<svg width="143" height="132" viewBox="0 0 143 132" fill="none" xmlns="http://www.w3.org/2000/svg">
<path d="M136.951 22.992L136.094 21.562C128.833 9.47174 115.741 2.18611 101.937 3.07268C100.157 3.17645 98.3869 3.41544 96.6422 3.78766C84.0906 6.50815 73.1697 16.121 68.6446 28.433C65.9797 35.6721 65.2385 44.0088 60.1734 49.7572C53.6011 57.2359 42.4366 57.4683 32.6417 57.1608C22.8468 56.8534 11.6576 57.1143 5.11003 64.6216C1.02264 69.344 -0.279821 76.0505 0.048441 82.3281C0.923807 99.0014 12.4024 113.912 26.9836 121.323C41.5648 128.734 58.7509 129.395 74.7157 126.135C97.0834 121.57 118.357 109.029 131.142 89.6709C143.926 70.3128 147.163 43.898 136.951 22.992Z" fill="#F1E9FB"/>
<g clip-path="url(#clip0_2611_3778)">
<mask id="path-2-outside-1_2611_3778" maskUnits="userSpaceOnUse" x="17.5547" y="-1.17285" width="115" height="134" fill="black">
<rect fill="white" x="17.5547" y="-1.17285" width="115" height="134"/>
<path d="M77.1875 1.03125C77.4384 1.14059 77.6893 1.24993 77.9478 1.36258C80.3409 2.53463 81.936 4.22301 82.9389 6.69205C83.1132 7.20716 83.2524 7.72039 83.375 8.25C83.6176 8.23804 83.8602 8.22608 84.1101 8.21375C86.7379 8.13758 86.7379 8.13758 87.9028 8.66895C89.575 10.2982 90.3861 11.6252 90.434 13.9644C90.4229 18.636 88.9053 23.027 86.4697 27.0008C86.1701 27.5597 86.1701 27.5597 86.2371 28.1116C86.5382 28.7687 86.9457 29.1815 87.4516 29.6968C88.8981 31.2806 89.5939 32.8272 89.8505 34.9507C89.8054 35.887 89.5494 36.7365 89.3047 37.6406C89.5323 37.8154 89.76 37.9902 89.9945 38.1704C96.0128 42.8212 101.27 48.6328 103.227 56.2031C103.402 56.2254 103.577 56.2477 103.758 56.2706C110.73 57.2811 116.792 60.6028 121.789 65.4844C121.992 65.6718 122.196 65.8593 122.405 66.0524C128.393 71.7051 131.507 80.1866 131.885 88.2827C132.087 97.0173 129.171 104.956 123.594 111.633C123.461 111.797 123.329 111.962 123.192 112.131C121.793 113.834 120.1 115.175 118.373 116.531C118.161 116.698 118.161 116.698 117.945 116.868C116.971 117.614 115.977 118.172 114.876 118.723C113.852 119.253 113.852 119.253 113.365 120.227C113.378 120.896 113.457 121.539 113.539 122.203C113.345 124.568 112.13 126.556 110.445 128.181C106.082 131.787 100.975 132.156 95.5758 132.129C94.9976 132.13 94.4195 132.132 93.8414 132.134C92.2828 132.137 90.7243 132.134 89.1657 132.13C87.5277 132.126 85.8898 132.128 84.2518 132.129C81.5022 132.13 78.7525 132.126 76.0029 132.12C73.1832 132.114 70.3636 132.112 67.5439 132.115C64.1324 132.118 60.7209 132.118 57.3093 132.114C56.0117 132.112 54.7142 132.112 53.4166 132.113C51.8862 132.115 50.3558 132.112 48.8254 132.106C48.2667 132.105 47.708 132.105 47.1493 132.106C41.4894 132.118 35.704 131.611 31.2717 127.649C29.3134 125.587 28.8098 123.415 28.8376 120.643C28.9632 117.596 30.2259 115.016 31.5472 112.332C32.7713 109.778 33.6392 106.947 34.1328 104.156C33.8709 104.165 33.609 104.174 33.3392 104.182C29.0479 104.071 25.673 101.688 22.789 98.7422C19.8581 95.5988 18.5225 91.4362 18.5553 87.1824C18.7223 82.591 20.6145 78.5518 23.8203 75.2813C26.7937 72.7236 29.9943 71.4515 33.8377 70.8773C34.1356 70.8325 34.4334 70.7877 34.7402 70.7415C35.0776 70.6916 35.0776 70.6916 35.4219 70.6406C35.4593 70.4309 35.4967 70.2212 35.5352 70.0052C36.6851 63.6336 38.0525 57.4517 40.8359 51.5625C40.9186 51.3875 41.0013 51.2125 41.0866 51.0322C42.2741 48.5695 43.7249 46.4382 45.4765 44.3438C45.6779 44.0998 45.8793 43.8559 46.0868 43.6046C47.6352 41.8125 49.3752 40.3909 51.2608 38.9771C51.8342 38.5431 52.394 38.0928 52.9531 37.6406C52.868 37.3854 52.7829 37.1302 52.6953 36.8672C52.4231 34.2793 52.7593 32.3242 54.2422 30.1641C54.7164 29.6499 55.1898 29.1878 55.7316 28.7461C55.8357 28.6185 55.9397 28.4909 56.0469 28.3594C55.92 27.567 55.6094 26.9159 55.2452 26.2062C53.3235 22.3815 51.8384 18.8624 51.7768 14.5342C51.773 14.3235 51.7691 14.1127 51.7651 13.8956C51.7952 12.1733 52.2698 10.8144 53.4305 9.52396C53.5813 9.40665 53.7322 9.28933 53.8877 9.16846C54.0399 9.04649 54.1921 8.92453 54.3489 8.79886C55.2705 8.14285 55.9902 8.22371 57.1103 8.23389C57.4407 8.23622 57.771 8.23854 58.1114 8.24094C58.4932 8.24543 58.4932 8.24543 58.8828 8.25C58.9393 8.06921 58.9958 7.88842 59.054 7.70215C60.0286 4.78625 61.4744 2.88454 64.2133 1.44114C68.236 -0.46731 73.0569 -0.782602 77.1875 1.03125ZM61.7187 5.15625C60.6094 6.5183 60.4058 8.09457 60.1719 9.79688C59.889 9.7693 59.6062 9.74171 59.3148 9.71329C58.9399 9.68184 58.5649 9.65064 58.1899 9.61963C57.911 9.59147 57.911 9.59147 57.6265 9.56273C56.4159 9.46876 55.7176 9.55809 54.7578 10.3125C53.3258 11.8264 53.0876 13.33 53.1324 15.3529C53.4956 19.4648 55.2414 23.5498 57.3359 27.0703C58.3638 26.916 59.1183 26.5851 60.0268 26.0874C65.9122 23.0945 73.36 22.9766 79.5857 24.9795C80.9687 25.4541 82.2584 26.0748 83.5411 26.7773C84.1521 27.1263 84.1521 27.1263 84.9219 27.0703C88.6464 20.0574 88.6464 20.0574 88.9179 12.3035C88.5124 11.2504 87.8334 10.5186 86.9844 9.79688C85.3987 9.26832 83.7105 9.5648 82.0859 9.79688C82.057 9.53018 82.057 9.53018 82.0275 9.25809C81.691 6.85337 80.8281 5.25352 78.9761 3.67383C73.778 -0.121005 66.1563 0.511603 61.7187 5.15625ZM56.0469 30.4219C54.6283 32.0965 53.8485 33.6553 53.9229 35.8752C53.9608 36.3753 53.9608 36.3753 54.2422 36.8672C55.3628 36.7071 56.2722 36.2744 57.2715 35.7715C64.734 32.1624 73.8502 31.7893 81.6932 34.3978C83.4387 35.0182 85.1212 35.7494 86.7477 36.6396C87.2685 36.9211 87.2685 36.9211 88.0156 36.8672C88.5437 35.8111 88.4187 34.5492 88.1062 33.4351C87.4932 31.926 86.5806 30.794 85.4375 29.6484C85.2351 29.4416 85.2351 29.4416 85.0286 29.2305C80.9143 25.3671 74.7347 24.8455 69.3987 24.9293C64.4642 25.0948 59.4458 26.6878 56.0469 30.4219ZM47.7969 43.8281C41.1958 51.0495 37.603 61.4928 36.9687 71.1563C37.2246 71.2098 37.4805 71.2633 37.7442 71.3184C40.5759 71.9473 43.0448 72.8867 45.4765 74.5078C45.5616 72.4659 45.6467 70.4241 45.7344 68.3203C49.1375 68.3203 52.5406 68.3203 56.0469 68.3203C56.0469 81.082 56.0469 93.8438 56.0469 106.992C52.6437 106.992 49.2406 106.992 45.7344 106.992C45.6493 104.95 45.5642 102.908 45.4765 100.805C44.9129 101.124 44.3493 101.443 43.7685 101.771C41.1851 103.18 38.6094 103.88 35.6797 104.156C35.6423 104.306 35.6049 104.457 35.5663 104.611C34.7885 107.695 33.8993 110.589 32.5513 113.468C30.4415 118.046 30.4415 118.046 30.5234 122.977C31.1074 124.521 31.8236 125.774 33.1015 126.844C33.2438 126.967 33.386 127.091 33.5326 127.218C36.9684 130.03 41.6852 130.752 46.0045 130.747C46.2306 130.748 46.4566 130.749 46.6896 130.749C47.4425 130.752 48.1954 130.752 48.9484 130.752C49.4902 130.754 50.0321 130.755 50.5739 130.756C52.0431 130.76 53.5123 130.761 54.9816 130.763C55.9011 130.763 56.8207 130.764 57.7403 130.766C60.6221 130.769 63.5039 130.772 66.3857 130.773C69.7034 130.774 73.0211 130.778 76.3388 130.786C78.9089 130.791 81.479 130.794 84.0491 130.794C85.5814 130.794 87.1136 130.796 88.6459 130.801C90.0893 130.805 91.5327 130.805 92.9761 130.803C93.5027 130.803 94.0293 130.804 94.5558 130.807C99.7632 130.83 105.4 130.598 109.414 126.844C109.636 126.637 109.636 126.637 109.863 126.427C111.259 124.975 112.016 123.093 112.018 121.082C112.01 120.772 112.001 120.461 111.992 120.141C111.779 120.217 111.779 120.217 111.561 120.294C102.452 123.504 93.0541 124.096 84.1242 119.867C83.7879 119.702 83.4522 119.535 83.1172 119.367C82.8574 119.238 82.8574 119.238 82.5925 119.105C79.9841 117.779 77.7757 116.206 75.6406 114.211C75.5077 114.089 75.3748 113.967 75.2379 113.841C68.6743 107.773 65.2107 99.3527 64.8311 90.4916C64.5759 80.9951 68.1506 72.6107 74.6094 65.7422C74.7449 65.59 74.8805 65.4378 75.0202 65.281C80.6704 59.1984 89.2574 56.3908 97.3391 56.0605C98.7857 56.0107 100.232 55.9731 101.68 55.9453C98.4523 47.2166 92.4935 40.4778 84.0034 36.561C71.6818 31.0854 57.1558 34.353 47.7969 43.8281ZM75.6406 66.5156C75.4671 66.6728 75.2936 66.83 75.1149 66.992C73.48 68.5259 72.2389 70.3315 71 72.1875C70.8375 72.4285 70.675 72.6694 70.5075 72.9176C68.3751 76.3129 66.9804 80.3525 66.3594 84.3047C66.3125 84.5692 66.2656 84.8338 66.2174 85.1063C65.2092 93.8374 67.4315 102.348 72.8047 109.313C73.5455 110.206 74.3217 111.053 75.125 111.891C75.3204 112.102 75.5158 112.314 75.7171 112.532C81.3222 118.421 89.3533 121.577 97.409 121.791C106.235 121.888 114.27 118.725 120.716 112.697C124.977 108.498 127.972 103.213 129.523 97.4531C129.592 97.1985 129.592 97.1985 129.662 96.9388C131.685 88.9905 130.131 80.1621 126.053 73.126C123.346 68.6456 119.73 64.9752 115.344 62.1328C115.096 61.9693 114.848 61.8058 114.592 61.6373C102.127 53.8762 85.978 56.6316 75.6406 66.5156ZM47.0234 69.3516C46.9809 70.4044 46.9383 71.4573 46.8945 72.542C46.8757 72.8685 46.857 73.195 46.8376 73.5313C46.7918 75.8931 47.5115 76.9461 49.0859 78.6328C51.4838 82.4675 52.0919 87.1352 51.228 91.5607C50.6856 93.6191 49.8622 95.8412 48.3785 97.4142C47.0959 98.8296 46.8287 99.8581 46.8608 101.758C46.8773 102.087 46.8937 102.416 46.9106 102.754C46.9478 103.813 46.9851 104.871 47.0234 105.961C49.5758 105.961 52.1281 105.961 54.7578 105.961C54.7578 93.8798 54.7578 81.7988 54.7578 69.3516C52.2054 69.3516 49.6531 69.3516 47.0234 69.3516ZM24.3359 76.8281C21.3926 80.3089 19.7765 84.1122 19.9531 88.7036C20.4254 93.1151 22.4413 96.9492 25.8828 99.7734C29.4717 102.268 33.3724 103.411 37.7459 102.794C41.6813 102.057 45.1175 99.951 47.4746 96.7119C49.9312 92.9759 50.9662 89.0742 50.2058 84.5978C49.222 80.4465 46.89 76.9996 43.3133 74.6448C37.313 71.1236 29.2835 71.5086 24.3359 76.8281Z"/>
</mask>
<path d="M77.1875 1.03125C77.4384 1.14059 77.6893 1.24993 77.9478 1.36258C80.3409 2.53463 81.936 4.22301 82.9389 6.69205C83.1132 7.20716 83.2524 7.72039 83.375 8.25C83.6176 8.23804 83.8602 8.22608 84.1101 8.21375C86.7379 8.13758 86.7379 8.13758 87.9028 8.66895C89.575 10.2982 90.3861 11.6252 90.434 13.9644C90.4229 18.636 88.9053 23.027 86.4697 27.0008C86.1701 27.5597 86.1701 27.5597 86.2371 28.1116C86.5382 28.7687 86.9457 29.1815 87.4516 29.6968C88.8981 31.2806 89.5939 32.8272 89.8505 34.9507C89.8054 35.887 89.5494 36.7365 89.3047 37.6406C89.5323 37.8154 89.76 37.9902 89.9945 38.1704C96.0128 42.8212 101.27 48.6328 103.227 56.2031C103.402 56.2254 103.577 56.2477 103.758 56.2706C110.73 57.2811 116.792 60.6028 121.789 65.4844C121.992 65.6718 122.196 65.8593 122.405 66.0524C128.393 71.7051 131.507 80.1866 131.885 88.2827C132.087 97.0173 129.171 104.956 123.594 111.633C123.461 111.797 123.329 111.962 123.192 112.131C121.793 113.834 120.1 115.175 118.373 116.531C118.161 116.698 118.161 116.698 117.945 116.868C116.971 117.614 115.977 118.172 114.876 118.723C113.852 119.253 113.852 119.253 113.365 120.227C113.378 120.896 113.457 121.539 113.539 122.203C113.345 124.568 112.13 126.556 110.445 128.181C106.082 131.787 100.975 132.156 95.5758 132.129C94.9976 132.13 94.4195 132.132 93.8414 132.134C92.2828 132.137 90.7243 132.134 89.1657 132.13C87.5277 132.126 85.8898 132.128 84.2518 132.129C81.5022 132.13 78.7525 132.126 76.0029 132.12C73.1832 132.114 70.3636 132.112 67.5439 132.115C64.1324 132.118 60.7209 132.118 57.3093 132.114C56.0117 132.112 54.7142 132.112 53.4166 132.113C51.8862 132.115 50.3558 132.112 48.8254 132.106C48.2667 132.105 47.708 132.105 47.1493 132.106C41.4894 132.118 35.704 131.611 31.2717 127.649C29.3134 125.587 28.8098 123.415 28.8376 120.643C28.9632 117.596 30.2259 115.016 31.5472 112.332C32.7713 109.778 33.6392 106.947 34.1328 104.156C33.8709 104.165 33.609 104.174 33.3392 104.182C29.0479 104.071 25.673 101.688 22.789 98.7422C19.8581 95.5988 18.5225 91.4362 18.5553 87.1824C18.7223 82.591 20.6145 78.5518 23.8203 75.2813C26.7937 72.7236 29.9943 71.4515 33.8377 70.8773C34.1356 70.8325 34.4334 70.7877 34.7402 70.7415C35.0776 70.6916 35.0776 70.6916 35.4219 70.6406C35.4593 70.4309 35.4967 70.2212 35.5352 70.0052C36.6851 63.6336 38.0525 57.4517 40.8359 51.5625C40.9186 51.3875 41.0013 51.2125 41.0866 51.0322C42.2741 48.5695 43.7249 46.4382 45.4765 44.3438C45.6779 44.0998 45.8793 43.8559 46.0868 43.6046C47.6352 41.8125 49.3752 40.3909 51.2608 38.9771C51.8342 38.5431 52.394 38.0928 52.9531 37.6406C52.868 37.3854 52.7829 37.1302 52.6953 36.8672C52.4231 34.2793 52.7593 32.3242 54.2422 30.1641C54.7164 29.6499 55.1898 29.1878 55.7316 28.7461C55.8357 28.6185 55.9397 28.4909 56.0469 28.3594C55.92 27.567 55.6094 26.9159 55.2452 26.2062C53.3235 22.3815 51.8384 18.8624 51.7768 14.5342C51.773 14.3235 51.7691 14.1127 51.7651 13.8956C51.7952 12.1733 52.2698 10.8144 53.4305 9.52396C53.5813 9.40665 53.7322 9.28933 53.8877 9.16846C54.0399 9.04649 54.1921 8.92453 54.3489 8.79886C55.2705 8.14285 55.9902 8.22371 57.1103 8.23389C57.4407 8.23622 57.771 8.23854 58.1114 8.24094C58.4932 8.24543 58.4932 8.24543 58.8828 8.25C58.9393 8.06921 58.9958 7.88842 59.054 7.70215C60.0286 4.78625 61.4744 2.88454 64.2133 1.44114C68.236 -0.46731 73.0569 -0.782602 77.1875 1.03125ZM61.7187 5.15625C60.6094 6.5183 60.4058 8.09457 60.1719 9.79688C59.889 9.7693 59.6062 9.74171 59.3148 9.71329C58.9399 9.68184 58.5649 9.65064 58.1899 9.61963C57.911 9.59147 57.911 9.59147 57.6265 9.56273C56.4159 9.46876 55.7176 9.55809 54.7578 10.3125C53.3258 11.8264 53.0876 13.33 53.1324 15.3529C53.4956 19.4648 55.2414 23.5498 57.3359 27.0703C58.3638 26.916 59.1183 26.5851 60.0268 26.0874C65.9122 23.0945 73.36 22.9766 79.5857 24.9795C80.9687 25.4541 82.2584 26.0748 83.5411 26.7773C84.1521 27.1263 84.1521 27.1263 84.9219 27.0703C88.6464 20.0574 88.6464 20.0574 88.9179 12.3035C88.5124 11.2504 87.8334 10.5186 86.9844 9.79688C85.3987 9.26832 83.7105 9.5648 82.0859 9.79688C82.057 9.53018 82.057 9.53018 82.0275 9.25809C81.691 6.85337 80.8281 5.25352 78.9761 3.67383C73.778 -0.121005 66.1563 0.511603 61.7187 5.15625ZM56.0469 30.4219C54.6283 32.0965 53.8485 33.6553 53.9229 35.8752C53.9608 36.3753 53.9608 36.3753 54.2422 36.8672C55.3628 36.7071 56.2722 36.2744 57.2715 35.7715C64.734 32.1624 73.8502 31.7893 81.6932 34.3978C83.4387 35.0182 85.1212 35.7494 86.7477 36.6396C87.2685 36.9211 87.2685 36.9211 88.0156 36.8672C88.5437 35.8111 88.4187 34.5492 88.1062 33.4351C87.4932 31.926 86.5806 30.794 85.4375 29.6484C85.2351 29.4416 85.2351 29.4416 85.0286 29.2305C80.9143 25.3671 74.7347 24.8455 69.3987 24.9293C64.4642 25.0948 59.4458 26.6878 56.0469 30.4219ZM47.7969 43.8281C41.1958 51.0495 37.603 61.4928 36.9687 71.1563C37.2246 71.2098 37.4805 71.2633 37.7442 71.3184C40.5759 71.9473 43.0448 72.8867 45.4765 74.5078C45.5616 72.4659 45.6467 70.4241 45.7344 68.3203C49.1375 68.3203 52.5406 68.3203 56.0469 68.3203C56.0469 81.082 56.0469 93.8438 56.0469 106.992C52.6437 106.992 49.2406 106.992 45.7344 106.992C45.6493 104.95 45.5642 102.908 45.4765 100.805C44.9129 101.124 44.3493 101.443 43.7685 101.771C41.1851 103.18 38.6094 103.88 35.6797 104.156C35.6423 104.306 35.6049 104.457 35.5663 104.611C34.7885 107.695 33.8993 110.589 32.5513 113.468C30.4415 118.046 30.4415 118.046 30.5234 122.977C31.1074 124.521 31.8236 125.774 33.1015 126.844C33.2438 126.967 33.386 127.091 33.5326 127.218C36.9684 130.03 41.6852 130.752 46.0045 130.747C46.2306 130.748 46.4566 130.749 46.6896 130.749C47.4425 130.752 48.1954 130.752 48.9484 130.752C49.4902 130.754 50.0321 130.755 50.5739 130.756C52.0431 130.76 53.5123 130.761 54.9816 130.763C55.9011 130.763 56.8207 130.764 57.7403 130.766C60.6221 130.769 63.5039 130.772 66.3857 130.773C69.7034 130.774 73.0211 130.778 76.3388 130.786C78.9089 130.791 81.479 130.794 84.0491 130.794C85.5814 130.794 87.1136 130.796 88.6459 130.801C90.0893 130.805 91.5327 130.805 92.9761 130.803C93.5027 130.803 94.0293 130.804 94.5558 130.807C99.7632 130.83 105.4 130.598 109.414 126.844C109.636 126.637 109.636 126.637 109.863 126.427C111.259 124.975 112.016 123.093 112.018 121.082C112.01 120.772 112.001 120.461 111.992 120.141C111.779 120.217 111.779 120.217 111.561 120.294C102.452 123.504 93.0541 124.096 84.1242 119.867C83.7879 119.702 83.4522 119.535 83.1172 119.367C82.8574 119.238 82.8574 119.238 82.5925 119.105C79.9841 117.779 77.7757 116.206 75.6406 114.211C75.5077 114.089 75.3748 113.967 75.2379 113.841C68.6743 107.773 65.2107 99.3527 64.8311 90.4916C64.5759 80.9951 68.1506 72.6107 74.6094 65.7422C74.7449 65.59 74.8805 65.4378 75.0202 65.281C80.6704 59.1984 89.2574 56.3908 97.3391 56.0605C98.7857 56.0107 100.232 55.9731 101.68 55.9453C98.4523 47.2166 92.4935 40.4778 84.0034 36.561C71.6818 31.0854 57.1558 34.353 47.7969 43.8281ZM75.6406 66.5156C75.4671 66.6728 75.2936 66.83 75.1149 66.992C73.48 68.5259 72.2389 70.3315 71 72.1875C70.8375 72.4285 70.675 72.6694 70.5075 72.9176C68.3751 76.3129 66.9804 80.3525 66.3594 84.3047C66.3125 84.5692 66.2656 84.8338 66.2174 85.1063C65.2092 93.8374 67.4315 102.348 72.8047 109.313C73.5455 110.206 74.3217 111.053 75.125 111.891C75.3204 112.102 75.5158 112.314 75.7171 112.532C81.3222 118.421 89.3533 121.577 97.409 121.791C106.235 121.888 114.27 118.725 120.716 112.697C124.977 108.498 127.972 103.213 129.523 97.4531C129.592 97.1985 129.592 97.1985 129.662 96.9388C131.685 88.9905 130.131 80.1621 126.053 73.126C123.346 68.6456 119.73 64.9752 115.344 62.1328C115.096 61.9693 114.848 61.8058 114.592 61.6373C102.127 53.8762 85.978 56.6316 75.6406 66.5156ZM47.0234 69.3516C46.9809 70.4044 46.9383 71.4573 46.8945 72.542C46.8757 72.8685 46.857 73.195 46.8376 73.5313C46.7918 75.8931 47.5115 76.9461 49.0859 78.6328C51.4838 82.4675 52.0919 87.1352 51.228 91.5607C50.6856 93.6191 49.8622 95.8412 48.3785 97.4142C47.0959 98.8296 46.8287 99.8581 46.8608 101.758C46.8773 102.087 46.8937 102.416 46.9106 102.754C46.9478 103.813 46.9851 104.871 47.0234 105.961C49.5758 105.961 52.1281 105.961 54.7578 105.961C54.7578 93.8798 54.7578 81.7988 54.7578 69.3516C52.2054 69.3516 49.6531 69.3516 47.0234 69.3516ZM24.3359 76.8281C21.3926 80.3089 19.7765 84.1122 19.9531 88.7036C20.4254 93.1151 22.4413 96.9492 25.8828 99.7734C29.4717 102.268 33.3724 103.411 37.7459 102.794C41.6813 102.057 45.1175 99.951 47.4746 96.7119C49.9312 92.9759 50.9662 89.0742 50.2058 84.5978C49.222 80.4465 46.89 76.9996 43.3133 74.6448C37.313 71.1236 29.2835 71.5086 24.3359 76.8281Z" fill="#BF83FF"/>
<path d="M77.1875 1.03125C77.4384 1.14059 77.6893 1.24993 77.9478 1.36258C80.3409 2.53463 81.936 4.22301 82.9389 6.69205C83.1132 7.20716 83.2524 7.72039 83.375 8.25C83.6176 8.23804 83.8602 8.22608 84.1101 8.21375C86.7379 8.13758 86.7379 8.13758 87.9028 8.66895C89.575 10.2982 90.3861 11.6252 90.434 13.9644C90.4229 18.636 88.9053 23.027 86.4697 27.0008C86.1701 27.5597 86.1701 27.5597 86.2371 28.1116C86.5382 28.7687 86.9457 29.1815 87.4516 29.6968C88.8981 31.2806 89.5939 32.8272 89.8505 34.9507C89.8054 35.887 89.5494 36.7365 89.3047 37.6406C89.5323 37.8154 89.76 37.9902 89.9945 38.1704C96.0128 42.8212 101.27 48.6328 103.227 56.2031C103.402 56.2254 103.577 56.2477 103.758 56.2706C110.73 57.2811 116.792 60.6028 121.789 65.4844C121.992 65.6718 122.196 65.8593 122.405 66.0524C128.393 71.7051 131.507 80.1866 131.885 88.2827C132.087 97.0173 129.171 104.956 123.594 111.633C123.461 111.797 123.329 111.962 123.192 112.131C121.793 113.834 120.1 115.175 118.373 116.531C118.161 116.698 118.161 116.698 117.945 116.868C116.971 117.614 115.977 118.172 114.876 118.723C113.852 119.253 113.852 119.253 113.365 120.227C113.378 120.896 113.457 121.539 113.539 122.203C113.345 124.568 112.13 126.556 110.445 128.181C106.082 131.787 100.975 132.156 95.5758 132.129C94.9976 132.13 94.4195 132.132 93.8414 132.134C92.2828 132.137 90.7243 132.134 89.1657 132.13C87.5277 132.126 85.8898 132.128 84.2518 132.129C81.5022 132.13 78.7525 132.126 76.0029 132.12C73.1832 132.114 70.3636 132.112 67.5439 132.115C64.1324 132.118 60.7209 132.118 57.3093 132.114C56.0117 132.112 54.7142 132.112 53.4166 132.113C51.8862 132.115 50.3558 132.112 48.8254 132.106C48.2667 132.105 47.708 132.105 47.1493 132.106C41.4894 132.118 35.704 131.611 31.2717 127.649C29.3134 125.587 28.8098 123.415 28.8376 120.643C28.9632 117.596 30.2259 115.016 31.5472 112.332C32.7713 109.778 33.6392 106.947 34.1328 104.156C33.8709 104.165 33.609 104.174 33.3392 104.182C29.0479 104.071 25.673 101.688 22.789 98.7422C19.8581 95.5988 18.5225 91.4362 18.5553 87.1824C18.7223 82.591 20.6145 78.5518 23.8203 75.2813C26.7937 72.7236 29.9943 71.4515 33.8377 70.8773C34.1356 70.8325 34.4334 70.7877 34.7402 70.7415C35.0776 70.6916 35.0776 70.6916 35.4219 70.6406C35.4593 70.4309 35.4967 70.2212 35.5352 70.0052C36.6851 63.6336 38.0525 57.4517 40.8359 51.5625C40.9186 51.3875 41.0013 51.2125 41.0866 51.0322C42.2741 48.5695 43.7249 46.4382 45.4765 44.3438C45.6779 44.0998 45.8793 43.8559 46.0868 43.6046C47.6352 41.8125 49.3752 40.3909 51.2608 38.9771C51.8342 38.5431 52.394 38.0928 52.9531 37.6406C52.868 37.3854 52.7829 37.1302 52.6953 36.8672C52.4231 34.2793 52.7593 32.3242 54.2422 30.1641C54.7164 29.6499 55.1898 29.1878 55.7316 28.7461C55.8357 28.6185 55.9397 28.4909 56.0469 28.3594C55.92 27.567 55.6094 26.9159 55.2452 26.2062C53.3235 22.3815 51.8384 18.8624 51.7768 14.5342C51.773 14.3235 51.7691 14.1127 51.7651 13.8956C51.7952 12.1733 52.2698 10.8144 53.4305 9.52396C53.5813 9.40665 53.7322 9.28933 53.8877 9.16846C54.0399 9.04649 54.1921 8.92453 54.3489 8.79886C55.2705 8.14285 55.9902 8.22371 57.1103 8.23389C57.4407 8.23622 57.771 8.23854 58.1114 8.24094C58.4932 8.24543 58.4932 8.24543 58.8828 8.25C58.9393 8.06921 58.9958 7.88842 59.054 7.70215C60.0286 4.78625 61.4744 2.88454 64.2133 1.44114C68.236 -0.46731 73.0569 -0.782602 77.1875 1.03125ZM61.7187 5.15625C60.6094 6.5183 60.4058 8.09457 60.1719 9.79688C59.889 9.7693 59.6062 9.74171 59.3148 9.71329C58.9399 9.68184 58.5649 9.65064 58.1899 9.61963C57.911 9.59147 57.911 9.59147 57.6265 9.56273C56.4159 9.46876 55.7176 9.55809 54.7578 10.3125C53.3258 11.8264 53.0876 13.33 53.1324 15.3529C53.4956 19.4648 55.2414 23.5498 57.3359 27.0703C58.3638 26.916 59.1183 26.5851 60.0268 26.0874C65.9122 23.0945 73.36 22.9766 79.5857 24.9795C80.9687 25.4541 82.2584 26.0748 83.5411 26.7773C84.1521 27.1263 84.1521 27.1263 84.9219 27.0703C88.6464 20.0574 88.6464 20.0574 88.9179 12.3035C88.5124 11.2504 87.8334 10.5186 86.9844 9.79688C85.3987 9.26832 83.7105 9.5648 82.0859 9.79688C82.057 9.53018 82.057 9.53018 82.0275 9.25809C81.691 6.85337 80.8281 5.25352 78.9761 3.67383C73.778 -0.121005 66.1563 0.511603 61.7187 5.15625ZM56.0469 30.4219C54.6283 32.0965 53.8485 33.6553 53.9229 35.8752C53.9608 36.3753 53.9608 36.3753 54.2422 36.8672C55.3628 36.7071 56.2722 36.2744 57.2715 35.7715C64.734 32.1624 73.8502 31.7893 81.6932 34.3978C83.4387 35.0182 85.1212 35.7494 86.7477 36.6396C87.2685 36.9211 87.2685 36.9211 88.0156 36.8672C88.5437 35.8111 88.4187 34.5492 88.1062 33.4351C87.4932 31.926 86.5806 30.794 85.4375 29.6484C85.2351 29.4416 85.2351 29.4416 85.0286 29.2305C80.9143 25.3671 74.7347 24.8455 69.3987 24.9293C64.4642 25.0948 59.4458 26.6878 56.0469 30.4219ZM47.7969 43.8281C41.1958 51.0495 37.603 61.4928 36.9687 71.1563C37.2246 71.2098 37.4805 71.2633 37.7442 71.3184C40.5759 71.9473 43.0448 72.8867 45.4765 74.5078C45.5616 72.4659 45.6467 70.4241 45.7344 68.3203C49.1375 68.3203 52.5406 68.3203 56.0469 68.3203C56.0469 81.082 56.0469 93.8438 56.0469 106.992C52.6437 106.992 49.2406 106.992 45.7344 106.992C45.6493 104.95 45.5642 102.908 45.4765 100.805C44.9129 101.124 44.3493 101.443 43.7685 101.771C41.1851 103.18 38.6094 103.88 35.6797 104.156C35.6423 104.306 35.6049 104.457 35.5663 104.611C34.7885 107.695 33.8993 110.589 32.5513 113.468C30.4415 118.046 30.4415 118.046 30.5234 122.977C31.1074 124.521 31.8236 125.774 33.1015 126.844C33.2438 126.967 33.386 127.091 33.5326 127.218C36.9684 130.03 41.6852 130.752 46.0045 130.747C46.2306 130.748 46.4566 130.749 46.6896 130.749C47.4425 130.752 48.1954 130.752 48.9484 130.752C49.4902 130.754 50.0321 130.755 50.5739 130.756C52.0431 130.76 53.5123 130.761 54.9816 130.763C55.9011 130.763 56.8207 130.764 57.7403 130.766C60.6221 130.769 63.5039 130.772 66.3857 130.773C69.7034 130.774 73.0211 130.778 76.3388 130.786C78.9089 130.791 81.479 130.794 84.0491 130.794C85.5814 130.794 87.1136 130.796 88.6459 130.801C90.0893 130.805 91.5327 130.805 92.9761 130.803C93.5027 130.803 94.0293 130.804 94.5558 130.807C99.7632 130.83 105.4 130.598 109.414 126.844C109.636 126.637 109.636 126.637 109.863 126.427C111.259 124.975 112.016 123.093 112.018 121.082C112.01 120.772 112.001 120.461 111.992 120.141C111.779 120.217 111.779 120.217 111.561 120.294C102.452 123.504 93.0541 124.096 84.1242 119.867C83.7879 119.702 83.4522 119.535 83.1172 119.367C82.8574 119.238 82.8574 119.238 82.5925 119.105C79.9841 117.779 77.7757 116.206 75.6406 114.211C75.5077 114.089 75.3748 113.967 75.2379 113.841C68.6743 107.773 65.2107 99.3527 64.8311 90.4916C64.5759 80.9951 68.1506 72.6107 74.6094 65.7422C74.7449 65.59 74.8805 65.4378 75.0202 65.281C80.6704 59.1984 89.2574 56.3908 97.3391 56.0605C98.7857 56.0107 100.232 55.9731 101.68 55.9453C98.4523 47.2166 92.4935 40.4778 84.0034 36.561C71.6818 31.0854 57.1558 34.353 47.7969 43.8281ZM75.6406 66.5156C75.4671 66.6728 75.2936 66.83 75.1149 66.992C73.48 68.5259 72.2389 70.3315 71 72.1875C70.8375 72.4285 70.675 72.6694 70.5075 72.9176C68.3751 76.3129 66.9804 80.3525 66.3594 84.3047C66.3125 84.5692 66.2656 84.8338 66.2174 85.1063C65.2092 93.8374 67.4315 102.348 72.8047 109.313C73.5455 110.206 74.3217 111.053 75.125 111.891C75.3204 112.102 75.5158 112.314 75.7171 112.532C81.3222 118.421 89.3533 121.577 97.409 121.791C106.235 121.888 114.27 118.725 120.716 112.697C124.977 108.498 127.972 103.213 129.523 97.4531C129.592 97.1985 129.592 97.1985 129.662 96.9388C131.685 88.9905 130.131 80.1621 126.053 73.126C123.346 68.6456 119.73 64.9752 115.344 62.1328C115.096 61.9693 114.848 61.8058 114.592 61.6373C102.127 53.8762 85.978 56.6316 75.6406 66.5156ZM47.0234 69.3516C46.9809 70.4044 46.9383 71.4573 46.8945 72.542C46.8757 72.8685 46.857 73.195 46.8376 73.5313C46.7918 75.8931 47.5115 76.9461 49.0859 78.6328C51.4838 82.4675 52.0919 87.1352 51.228 91.5607C50.6856 93.6191 49.8622 95.8412 48.3785 97.4142C47.0959 98.8296 46.8287 99.8581 46.8608 101.758C46.8773 102.087 46.8937 102.416 46.9106 102.754C46.9478 103.813 46.9851 104.871 47.0234 105.961C49.5758 105.961 52.1281 105.961 54.7578 105.961C54.7578 93.8798 54.7578 81.7988 54.7578 69.3516C52.2054 69.3516 49.6531 69.3516 47.0234 69.3516ZM24.3359 76.8281C21.3926 80.3089 19.7765 84.1122 19.9531 88.7036C20.4254 93.1151 22.4413 96.9492 25.8828 99.7734C29.4717 102.268 33.3724 103.411 37.7459 102.794C41.6813 102.057 45.1175 99.951 47.4746 96.7119C49.9312 92.9759 50.9662 89.0742 50.2058 84.5978C49.222 80.4465 46.89 76.9996 43.3133 74.6448C37.313 71.1236 29.2835 71.5086 24.3359 76.8281Z" stroke="#BF83FF" mask="url(#path-2-outside-1_2611_3778)"/>
<path d="M113.684 67.495L113.687 67.497C119.058 71.5865 122.967 77.4632 124.018 84.2302L124.02 84.2439L124.02 84.2439C124.12 85.2495 124.121 86.2372 124.113 87.2322L124.11 87.8078V87.8079C124.108 88.2737 124.105 88.7394 124.102 89.2049L124.1 89.4518L123.853 89.453C122.572 89.4594 121.292 89.4641 120.011 89.4672M113.684 67.495L120.01 89.2172M113.684 67.495C103.388 59.8726 88.5773 61.1639 79.6509 70.2979L79.6509 70.2978L79.648 70.3009C74.6487 75.5946 72.1889 81.9723 72.2969 89.2068L72.3005 89.4518L72.5456 89.453C73.6107 89.4583 74.6759 89.4628 75.7411 89.4656H75.7412C76.1746 89.4667 76.6079 89.4678 77.0413 89.4691M113.684 67.495L77.0413 89.4691M120.011 89.4672L120.01 89.2172M120.011 89.4672C120.011 89.4672 120.011 89.4672 120.011 89.4672L120.01 89.2172M120.011 89.4672C119.575 89.4685 119.14 89.4703 118.704 89.4725C118.079 89.4756 117.453 89.4771 116.828 89.4782L116.829 89.4782L116.827 89.2282M120.01 89.2172C119.575 89.2185 119.139 89.2203 118.703 89.2225C118.078 89.2256 117.452 89.2271 116.827 89.2282M116.827 89.2282L116.828 89.4782M116.827 89.2282L116.828 89.4782M116.828 89.4782L116.235 89.4822L116.233 89.4822C115.76 89.4823 115.288 89.4689 114.82 89.4529L114.721 89.4495L114.651 89.3798C114.384 89.1125 114.283 88.8066 114.239 88.5061C114.218 88.3589 114.21 88.2096 114.204 88.068C114.204 88.0467 114.203 88.0255 114.202 88.0045C114.197 87.883 114.192 87.767 114.181 87.6497M116.828 89.4782L114.181 87.6497M114.181 87.6497C114.181 87.6498 114.181 87.65 114.181 87.6502L114.43 87.6261L114.181 87.6494C114.181 87.6495 114.181 87.6496 114.181 87.6497ZM77.0413 89.4691C77.0414 89.4691 77.0416 89.4691 77.0417 89.4691L77.0424 89.2191L77.0412 89.4691C77.0412 89.4691 77.0413 89.4691 77.0413 89.4691ZM114.471 81.1499L114.471 81.1501C115.702 82.9019 115.94 85.3316 116.105 87.3297L116.272 87.664L114.471 81.1499ZM114.471 81.1499L114.463 81.1395M114.471 81.1499L114.463 81.1395M114.463 81.1395L114.444 81.1151C113.765 80.2503 113.137 79.4514 112.796 78.4592M114.463 81.1395L112.796 78.4592M112.796 78.4592C113.278 76.7417 113.517 75.903 113.913 75.1241C114.295 74.3728 114.826 73.6735 115.884 72.3056L112.796 78.4592ZM110.41 78.2864C110.411 78.2879 110.412 78.2894 110.413 78.291L110.61 78.1372L110.406 78.2816L110.41 78.2864ZM102.764 73.205C102.766 73.2057 102.768 73.2063 102.77 73.207L102.849 72.9699L102.758 73.2027L102.764 73.205ZM91.4872 74.0424C91.4891 74.0414 91.4911 74.0405 91.493 74.0395L91.3792 73.8169L91.4813 74.0451C91.4832 74.0442 91.4852 74.0433 91.4872 74.0424ZM82.8424 84.1358C82.8429 84.1337 82.8435 84.1316 82.844 84.1295L82.6025 84.0649L82.8403 84.1421C82.841 84.14 82.8417 84.1379 82.8424 84.1358ZM79.5702 89.4782L79.5708 89.4782L79.5712 89.2282L79.5695 89.4782C79.5697 89.4782 79.57 89.4782 79.5702 89.4782ZM83.6218 74.3473L83.6211 74.3461C82.891 73.1395 82.2456 72.0428 81.8551 70.7265C86.2261 67.0278 91.511 64.3465 97.3063 64.4396C97.3108 65.118 97.3145 65.7964 97.3172 66.4747L97.3208 67.4027L97.3208 67.4035L97.3273 68.3275L97.3273 68.3285L97.3298 69.2062L97.3298 69.2067L97.3339 70.0209L97.334 70.0287L97.3345 70.0365C97.345 70.1917 97.352 70.2969 97.3526 70.3774C97.3532 70.4577 97.3467 70.4914 97.3412 70.5081C97.3338 70.531 97.3244 70.5491 97.196 70.657C93.3194 71.0429 89.4654 72.2431 86.4942 74.9347L86.494 74.9345L86.4849 74.9436C85.9108 75.52 85.4391 75.8974 84.7594 76.2447C84.5011 75.8169 84.2437 75.3886 83.9874 74.9596C83.9874 74.9596 83.9874 74.9596 83.9874 74.9596L83.6218 74.3473ZM99.0937 64.4466C103.814 64.5003 108.167 66.0715 112.073 68.7485C112.073 68.7488 112.074 68.7491 112.074 68.7494L112.558 69.0888L112.558 69.0893L112.614 69.1285C113.322 69.621 113.954 70.0618 114.431 70.7246C114.552 71.0071 114.58 71.0866 114.578 71.1607C114.577 71.1937 114.57 71.2367 114.541 71.3141C114.512 71.3923 114.469 71.4891 114.404 71.6321L114.042 72.2599L114.04 72.2618L113.65 72.9529L113.648 72.9567L113.227 73.672L113.225 73.6749C112.767 74.4786 112.308 75.2802 111.84 76.0771C111.648 76.0974 111.503 76.1115 111.386 76.1167C111.245 76.1228 111.163 76.1148 111.101 76.0975C110.979 76.0633 110.888 75.9833 110.591 75.6912C107.979 73.0535 105.04 71.7322 101.478 70.9125L101.478 70.9124L101.471 70.911L99.0937 70.4356V70.4353V70.4225V70.4096V70.3968V70.384V70.3712V70.3584V70.3456V70.3328V70.32V70.3072V70.2944V70.2816V70.2688V70.256V70.2432V70.2304V70.2176V70.2048V70.192V70.1792V70.1664V70.1536V70.1409V70.1281V70.1153V70.1025V70.0897V70.0769V70.0642V70.0514V70.0386V70.0258V70.0131V70.0003V69.9875V69.9748V69.962V69.9492V69.9365V69.9237V69.9109V69.8982V69.8854V69.8727V69.8599V69.8472V69.8344V69.8216V69.8089V69.7961V69.7834V69.7707V69.7579V69.7452V69.7324V69.7197V69.7069V69.6942V69.6815V69.6687V69.656V69.6432V69.6305V69.6178V69.6051V69.5923V69.5796V69.5669V69.5541V69.5414V69.5287V69.516V69.5033V69.4905V69.4778V69.4651V69.4524V69.4397V69.4269V69.4142V69.4015V69.3888V69.3761V69.3634V69.3507V69.338V69.3253V69.3126V69.2999V69.2872V69.2745V69.2618V69.2491V69.2364V69.2237V69.211V69.1983V69.1856V69.1729V69.1602V69.1475V69.1349V69.1222V69.1095V69.0968V69.0841V69.0714V69.0588V69.0461V69.0334V69.0207V69.0081V68.9954V68.9827V68.97V68.9574V68.9447V68.932V68.9194V68.9067V68.894V68.8814V68.8687V68.856V68.8434V68.8307V68.8181V68.8054V68.7927V68.7801V68.7674V68.7548V68.7421V68.7295V68.7168V68.7042V68.6915V68.6789V68.6662V68.6536V68.6409V68.6283V68.6156V68.603V68.5904V68.5777V68.5651V68.5524V68.5398V68.5272V68.5145V68.5019V68.4893V68.4766V68.464V68.4514V68.4388V68.4261V68.4135V68.4009V68.3882V68.3756V68.363V68.3504V68.3378V68.3251V68.3125V68.2999V68.2873V68.2747V68.2621V68.2494V68.2368V68.2242V68.2116V68.199V68.1864V68.1738V68.1612V68.1486V68.136V68.1233V68.1107V68.0981V68.0855V68.0729V68.0603V68.0477V68.0351V68.0225V68.0099V67.9973V67.9847V67.9722V67.9596V67.947V67.9344V67.9218V67.9092V67.8966V67.884V67.8714V67.8588V67.8463V67.8337V67.8211V67.8085V67.7959V67.7833V67.7708V67.7582V67.7456V67.733V67.7204V67.7079V67.6953V67.6827V67.6701V67.6576V67.645V67.6324V67.6199V67.6073V67.5947V67.5821V67.5696V67.557V67.5444V67.5319V67.5193V67.5067V67.4942V67.4816V67.4691V67.4565V67.4439V67.4314V67.4188V67.4063V67.3937V67.3811V67.3686V67.356V67.3435V67.3309V67.3184V67.3058V67.2933V67.2807V67.2682V67.2556V67.2431V67.2305V67.218V67.2054V67.1929V67.1803V67.1678V67.1553V67.1427V67.1302V67.1176V67.1051V67.0925V67.08V67.0675V67.0549V67.0424V67.0298V67.0173V67.0048V66.9922V66.9797V66.9672V66.9546V66.9421V66.9296V66.917V66.9045V66.892V66.8795V66.8669V66.8544V66.8419V66.8293V66.8168V66.8043V66.7918V66.7792V66.7667V66.7542V66.7417V66.7291V66.7166V66.7041V66.6916V66.6791V66.6665V66.654V66.6415V66.629V66.6165V66.604V66.5914V66.5789V66.5664V66.5539V66.5414V66.5289V66.5164V66.5038V66.4913V66.4788V66.4663V66.4538V66.4413V66.4288V66.4163V66.4038V66.3913V66.3787V66.3662V66.3537V66.3412V66.3287V66.3162V66.3037V66.2912V66.2787V66.2662V66.2537V66.2412V66.2287V66.2162V66.2037V66.1912V66.1787V66.1662V66.1537V66.1412V66.1287V66.1162V66.1037V66.0912V66.0787V66.0662V66.0537V66.0412V66.0287V66.0163V66.0038V65.9913V65.9788V65.9663V65.9538V65.9413V65.9288V65.9163V65.9038V65.8913V65.8789V65.8664V65.8539V65.8414V65.8289V65.8164V65.8039V65.7914V65.779V65.7665V65.754V65.7415V65.729V65.7165V65.704V65.6916V65.6791V65.6666V65.6541V65.6416V65.6291V65.6167V65.6042V65.5917V65.5792V65.5667V65.5543V65.5418V65.5293V65.5168V65.5043V65.4919V65.4794V65.4669V65.4544V65.442V65.4295V65.417V65.4045V65.3921V65.3796V65.3671V65.3546V65.3422V65.3297V65.3172V65.3047V65.2923V65.2798V65.2673V65.2548V65.2424V65.2299V65.2174V65.2049V65.1925V65.18V65.1675V65.1551V65.1426V65.1301V65.1176V65.1052V65.0927V65.0802V65.0678V65.0553V65.0428V65.0304V65.0179V65.0054V64.993V64.9805V64.968V64.9555V64.9431V64.9306V64.9181V64.9057V64.8932V64.8807V64.8683V64.8558V64.8433V64.8309V64.8184V64.8059V64.7935V64.781V64.7685V64.7561V64.7436V64.7311V64.7187V64.7062V64.6938V64.6813V64.6688V64.6564V64.6439V64.6314V64.619V64.6065V64.594V64.5816V64.5691V64.5566V64.5442V64.5317V64.5193V64.5068V64.4943V64.4819V64.4694V64.4569V64.4466ZM80.485 86.2668L80.4849 86.2668L80.4842 86.2729L80.3172 87.664H80.3122H80.2989H80.2856H80.2722H80.2589H80.2456H80.2323H80.219H80.2056H80.1923H80.179H80.1657H80.1524H80.1391H80.1258H80.1125H80.0992H80.0859H80.0726H80.0592H80.0459H80.0327H80.0194H80.0061H79.9928H79.9795H79.9662H79.9529H79.9396H79.9263H79.913H79.8997H79.8865H79.8732H79.8599H79.8466H79.8333H79.8201H79.8068H79.7935H79.7802H79.767H79.7537H79.7404H79.7272H79.7139H79.7006H79.6874H79.6741H79.6609H79.6476H79.6343H79.6211H79.6078H79.5946H79.5813H79.5681H79.5548H79.5416H79.5283H79.5151H79.5018H79.4886H79.4754H79.4621H79.4489H79.4356H79.4224H79.4092H79.3959H79.3827H79.3695H79.3562H79.343H79.3298H79.3166H79.3033H79.2901H79.2769H79.2637H79.2505H79.2372H79.224H79.2108H79.1976H79.1844H79.1712H79.158H79.1447H79.1315H79.1183H79.1051H79.0919H79.0787H79.0655H79.0523H79.0391H79.0259H79.0127H78.9995H78.9863H78.9731H78.9599H78.9467H78.9335H78.9204H78.9072H78.894H78.8808H78.8676H78.8544H78.8412H78.8281H78.8149H78.8017H78.7885H78.7753H78.7622H78.749H78.7358H78.7227H78.7095H78.6963H78.6831H78.67H78.6568H78.6436H78.6305H78.6173H78.6041H78.591H78.5778H78.5647H78.5515H78.5384H78.5252H78.512H78.4989H78.4857H78.4726H78.4594H78.4463H78.4331H78.42H78.4068H78.3937H78.3806H78.3674H78.3543H78.3411H78.328H78.3148H78.3017H78.2886H78.2754H78.2623H78.2492H78.236H78.2229H78.2098H78.1966H78.1835H78.1704H78.1573H78.1441H78.131H78.1179H78.1048H78.0916H78.0785H78.0654H78.0523H78.0392H78.026H78.0129H77.9998H77.9867H77.9736H77.9605H77.9474H77.9343H77.9211H77.908H77.8949H77.8818H77.8687H77.8556H77.8425H77.8294H77.8163H77.8032H77.7901H77.777H77.7639H77.7508H77.7377H77.7246H77.7115H77.6984H77.6853H77.6722H77.6592H77.6461H77.633H77.6199H77.6068H77.5937H77.5806H77.5675H77.5545H77.5414H77.5283H77.5152H77.5021H77.489H77.476H77.4629H77.4498H77.4367H77.4237H77.4106H77.3975H77.3844H77.3714H77.3583H77.3452H77.3322H77.3191H77.306H77.293H77.2799H77.2668H77.2538H77.2407H77.2276H77.2146H77.2015H77.1884H77.1754H77.1623H77.1493H77.1362H77.1231H77.1101H77.097H77.084H77.0709H77.0579H77.0448H77.0318H77.0187H77.0057H76.9926H76.9796H76.9665H76.9535H76.9404H76.9274H76.9143H76.9013H76.8882H76.8752H76.8622H76.8491H76.8361H76.823H76.81H76.7969H76.7839H76.7709H76.7578H76.7448H76.7318H76.7187H76.7057H76.6927H76.6796H76.6666H76.6536H76.6405H76.6275H76.6145H76.6014H76.5884H76.5754H76.5624H76.5493H76.5363H76.5233H76.5103H76.4972H76.4842H76.4712H76.4582H76.4451H76.4321H76.4191H76.4061H76.3931H76.38H76.367H76.354H76.341H76.328H76.3149H76.3019H76.2889H76.2759H76.2629H76.2499H76.2369H76.2239H76.2108H76.1978H76.1848H76.1718H76.1588H76.1458H76.1328H76.1198H76.1068H76.0938H76.0808H76.0677H76.0547H76.0417H76.0287H76.0157H76.0027H75.9897H75.9767H75.9637H75.9507H75.9377H75.9247H75.9117H75.8987H75.8857H75.8727H75.8597H75.8467H75.8337H75.8207H75.8077H75.7947H75.7817H75.7688H75.7558H75.7428H75.7298H75.7168H75.7038H75.6908H75.6778H75.6648H75.6518H75.6388H75.6258H75.6129H75.5999H75.5869H75.5739H75.5609H75.5479H75.5349H75.5219H75.509H75.496H75.483H75.47H75.457H75.444H75.431H75.4181H75.4051H75.3921H75.3791H75.3661H75.3531H75.3402H75.3272H75.3142H75.3012H75.2882H75.2753H75.2623H75.2493H75.2363H75.2233H75.2104H75.1974H75.1844H75.1714H75.1585H75.1455H75.1325H75.1195H75.1066H75.0936H75.0806H75.0676H75.0547H75.0417H75.0287H75.0157H75.0028H74.9898H74.9768H74.9638H74.9509H74.9379H74.9249H74.912H74.899H74.886H74.873H74.8601H74.8471H74.8341H74.8212H74.8082H74.7952H74.7822H74.7693H74.7563H74.7433H74.7304H74.7174H74.7044H74.6915H74.6785H74.6655H74.6526H74.6396H74.6266H74.6137H74.6007H74.5877H74.5748H74.5618H74.5488H74.5359H74.5229H74.5099H74.497H74.484H74.471H74.4581H74.4451H74.4322H74.4192H74.4062H74.3933H74.3803H74.3673H74.3544H74.3414H74.3284H74.3155H74.3025H74.2896H74.2766H74.2636H74.2507H74.2377H74.2247H74.2118H74.1988H74.1859H74.1729H74.1599H74.147H74.134H74.121H74.1081H74.0951H74.0874C74.1568 81.8523 76.6406 76.552 80.3958 72.1796H80.396H80.3963C80.7401 72.762 81.0823 73.3452 81.4227 73.9295C81.4227 73.9295 81.4227 73.9296 81.4227 73.9296L81.8698 74.6979L81.8707 74.6994L82.3167 75.4538L82.3178 75.4557L82.7397 76.1839L82.7396 76.184L82.7424 76.1884C82.9468 76.5249 83.0427 76.6825 83.1275 76.8459C83.2011 76.9879 83.2663 77.1341 83.3868 77.4057C83.4235 77.886 83.4357 78.0864 83.4062 78.2471C83.3779 78.4007 83.3105 78.5233 83.1154 78.8601C81.6878 81.2351 80.8826 83.5246 80.485 86.2668Z" fill="#BF83FF" stroke="#BF83FF" stroke-width="0.5"/>
<path d="M30.6114 11.4497L30.6114 11.45C32.4125 11.4696 33.8461 11.8584 35.1447 12.555C36.438 13.2487 37.5872 14.2425 38.8251 15.454L38.8294 15.4582L38.8293 15.4583C39.2498 15.8903 39.6675 16.3251 40.0824 16.7625L30.6114 11.4497ZM30.6114 11.4497L30.5999 11.4501M30.6114 11.4497L30.5999 11.4501M30.5999 11.4501C30.3499 11.4589 30.0712 11.4626 29.7738 11.4666C29.0452 11.4763 28.2047 11.4876 27.4019 11.5779C26.2745 11.7047 25.1373 11.9934 24.417 12.7137L24.3414 12.7893L24.3438 12.8962C24.3441 12.9076 24.3443 12.919 24.3446 12.9303C24.3538 13.3416 24.3601 13.6234 24.5472 13.9405C24.6382 14.0946 24.7672 14.2507 24.9411 14.4372C25.1149 14.6235 25.3445 14.8515 25.6437 15.1485L25.6476 15.1524L25.6476 15.1524L25.6502 15.1549L26.0576 15.5478C26.4922 15.977 26.9274 16.4062 27.3652 16.8331L27.3654 16.8333M30.5999 11.4501L27.3654 16.8333M27.3654 16.8333C27.9593 17.4116 28.551 17.9924 29.1422 18.5741L27.3654 16.8333ZM27.6404 14.0905C28.7752 15.4258 29.9815 16.674 31.2315 17.9179L31.2324 17.9188L31.8487 18.5381C31.8488 18.5381 31.8488 18.5382 31.8489 18.5383C32.4367 19.1254 32.7288 19.4173 33.0352 19.6932C33.3413 19.9687 33.6617 20.2283 34.3053 20.7499L34.3162 20.7587L34.3159 20.759C34.3264 20.7685 34.3368 20.7779 34.347 20.7872C34.5672 20.9868 34.7198 21.1252 34.8153 21.2903C34.9134 21.4599 34.9467 21.6494 34.9924 21.9092C34.9945 21.9214 34.9967 21.9338 34.9989 21.9464L35.006 21.9865L35 22.0268C34.9218 22.5497 34.7644 22.9174 34.5264 23.2456C34.3329 23.5126 34.0854 23.7521 33.8085 24.0202C33.7585 24.0687 33.7074 24.1181 33.6555 24.1688C33.6553 24.169 33.6552 24.1692 33.655 24.1693L33.2894 24.5312L33.2891 24.5316C32.9005 24.9147 32.5078 25.2928 32.1161 25.6699L32.1148 25.6712L27.6404 14.0905ZM27.6404 14.0905C29.1224 13.8329 30.6 13.7089 32.1052 13.7493C34.3613 14.738 35.4563 15.2218 36.3897 15.9519C37.3304 16.6877 38.1121 17.6775 39.7249 19.7252L39.7249 19.7252L39.7281 19.7292C40.3567 20.4948 40.9994 21.2467 41.6433 21.9957L41.6435 21.9959L41.7957 22.1726C41.5393 22.4738 41.2821 22.7783 41.0235 23.0845C38.831 25.6806 36.5371 28.3967 33.7566 30.2006C31.7164 31.0779 29.3827 30.7799 27.2037 30.2372L27.4262 30.0325L27.6404 14.0905ZM40.7073 17.4184L40.0828 16.7629L29.5578 25.0881L29.7339 25.2655L29.5575 25.0884L29.5576 25.0883C28.562 26.0764 27.567 27.0668 26.5838 28.0698L26.5835 28.0701L26.2198 28.4422L26.2197 28.4423L25.5996 29.0756L25.5995 29.0756L25.5954 29.0799L25.0894 29.622L25.0888 29.6227L25.0774 29.6349C24.8761 29.8488 24.7617 29.9704 24.6691 30.0914C24.5748 30.2148 24.5043 30.3361 24.385 30.5412L24.3776 30.5539L24.3334 30.63L24.3466 30.717L24.3489 30.7326C24.39 31.0034 24.4132 31.1569 24.4484 31.2974C24.484 31.4399 24.5313 31.5671 24.6125 31.7851L24.6173 31.798L24.6729 31.9476L24.832 31.9601L24.9376 31.9683C27.9566 32.2054 31.087 32.4513 34.1345 32.0711L34.1443 32.0699L34.1539 32.0679C36.0743 31.6724 37.1948 30.2387 38.2174 28.8099L38.2175 28.81L38.222 28.8032C38.8651 27.84 39.5912 27.1446 40.4959 26.3893C40.9527 26.0092 41.3895 25.6188 41.8204 25.2115L41.8204 25.2116L41.823 25.209L42.5398 24.5113C42.54 24.5111 42.5403 24.5109 42.5405 24.5107C42.5936 24.4597 42.6462 24.4096 42.6982 24.3601C43.3001 23.7866 43.821 23.2904 44.1159 22.3989L44.1255 22.37L44.1278 22.3396L44.1306 22.3033C44.1536 22.0061 44.1687 21.8104 44.1374 21.6324C44.1051 21.4489 44.0248 21.2906 43.9098 21.0639C43.9051 21.0546 43.9003 21.0452 43.8955 21.0357L43.8824 21.0098L43.8636 20.9876L43.4501 20.4974L43.4494 20.4966L42.9792 19.9347L42.9793 19.9346L42.9746 19.9293L42.4473 19.3345C42.4473 19.3345 42.4473 19.3345 42.4473 19.3345C41.8765 18.688 41.2988 18.05 40.7088 17.4199L40.7073 17.4184ZM32.5064 22.1544C32.5544 22.2125 32.6021 22.2708 32.6497 22.3294L32.8438 22.1718L32.6676 21.9943C32.6139 22.0477 32.5601 22.101 32.5064 22.1544ZM29.1424 18.5743L29.3177 18.3961L29.1424 18.5743Z" fill="#BF83FF" stroke="#BF83FF" stroke-width="0.5"/>
<path d="M103.766 11.9749L103.766 11.9749C103.335 11.9892 102.904 11.9996 102.473 12.0065C102.165 12.0102 101.831 11.9998 101.479 11.9888C101.451 11.9879 101.423 11.987 101.395 11.9862C101.014 11.9744 100.614 11.9633 100.218 11.9712C99.4305 11.9868 98.6225 12.0772 97.9585 12.4092L97.8203 12.4783V12.6328V12.6349V12.6369V12.639V12.6411V12.6431V12.6452V12.6472V12.6493V12.6513V12.6534V12.6554V12.6575V12.6595V12.6616V12.6636V12.6657V12.6677V12.6698V12.6718V12.6739V12.6759V12.678V12.68V12.6821V12.6841V12.6862V12.6882V12.6903V12.6923V12.6944V12.6964V12.6985V12.7005V12.7026V12.7046V12.7066V12.7087V12.7107V12.7128V12.7148V12.7169V12.7189V12.721V12.723V12.7251V12.7271V12.7291V12.7312V12.7332V12.7353V12.7373V12.7394V12.7414V12.7434V12.7455V12.7475V12.7496V12.7516V12.7537V12.7557V12.7577V12.7598V12.7618V12.7639V12.7659V12.7679V12.77V12.772V12.7741V12.7761V12.7781V12.7802V12.7822V12.7843V12.7863V12.7883V12.7904V12.7924V12.7944V12.7965V12.7985V12.8005V12.8026V12.8046V12.8067V12.8087V12.8107V12.8128V12.8148V12.8168V12.8189V12.8209V12.8229V12.825V12.827V12.829V12.8311V12.8331V12.8351V12.8372V12.8392V12.8412V12.8433V12.8453V12.8473V12.8494V12.8514V12.8534V12.8555V12.8575V12.8595V12.8616V12.8636V12.8656V12.8677V12.8697V12.8717V12.8737V12.8758V12.8778V12.8798V12.8819V12.8839V12.8859V12.8879V12.89V12.892V12.894V12.8961V12.8981V12.9001V12.9021V12.9042V12.9062V12.9082V12.9103V12.9123V12.9143V12.9163V12.9184V12.9204V12.9224V12.9244V12.9265V12.9285V12.9305V12.9325V12.9346V12.9366V12.9386V12.9406V12.9427V12.9447V12.9467V12.9487V12.9507V12.9528V12.9548V12.9568V12.9588V12.9609V12.9629V12.9649V12.9669V12.969V12.971V12.973V12.975V12.977V12.9791V12.9811V12.9831V12.9851V12.9871V12.9892V12.9912V12.9932V12.9952V12.9972V12.9993V13.0013V13.0033V13.0053V13.0073V13.0094V13.0114V13.0134V13.0154V13.0174V13.0194V13.0215V13.0235V13.0255V13.0275V13.0295V13.0316V13.0336V13.0356V13.0376V13.0396V13.0416V13.0437V13.0457V13.0477V13.0497V13.0517V13.0537V13.0557V13.0578V13.0598V13.0618V13.0638V13.0658V13.0678V13.0699V13.0719V13.0739V13.0759V13.0779V13.0799V13.0819V13.0839V13.086V13.088V13.09V13.092V13.094V13.096V13.098V13.1001V13.1021V13.1041V13.1061V13.1081V13.1101V13.1121V13.1141V13.1161V13.1182V13.1202V13.1222V13.1242V13.1262V13.1282V13.1302V13.1322V13.1342V13.1363V13.1383V13.1403V13.1423V13.1443V13.1463V13.1483V13.1503V13.1523V13.1543V13.1563V13.1584V13.1604V13.1624V13.1644V13.1664V13.1684V13.1704V13.1724V13.1744V13.1764V13.1784V13.1804V13.1825V13.1845V13.1865V13.1885V13.1905V13.1925V13.1945V13.1965V13.1985V13.2005V13.2025V13.2045V13.2065V13.2085V13.2105V13.2126V13.2146V13.2166V13.2186V13.2206V13.2226V13.2246V13.2266V13.2286V13.2306V13.2326V13.2346V13.2366V13.2386V13.2406V13.2426V13.2446V13.2466V13.2486V13.2506V13.2526V13.2547V13.2567V13.2587V13.2607V13.2627V13.2647V13.2667V13.2687V13.2707V13.2727V13.2747V13.2767V13.2787V13.2807V13.2827V13.2847V13.2867V13.2887V13.2907V13.2927V13.2947V13.2967V13.2987V13.3007V13.3027V13.3047V13.3067V13.3087V13.3107V13.3127V13.3147V13.3167V13.3187V13.3207V13.3227V13.3247V13.3267V13.3287V13.3307V13.3327V13.3347V13.3367V13.3387V13.3407V13.3427V13.3447V13.3467V13.3487V13.3507V13.3527V13.3547V13.3567V13.3587V13.3607V13.3627V13.3647V13.3667V13.3687V13.3707V13.3727V13.3747V13.3767V13.3787V13.3807V13.3827V13.3847V13.3867V13.3887V13.3907V13.3927V13.3947V13.3967V13.3987V13.4007V13.4027V13.4047V13.4067V13.4087V13.4107V13.4127V13.4147V13.4167V13.4187V13.4207V13.4227V13.4247V13.4267V13.4287V13.4307V13.4327V13.4347V13.4367V13.4387V13.4406V13.4426V13.4446V13.4466V13.4486V13.4506V13.4526V13.4546V13.4566V13.4586V13.4606V13.4626V13.4646V13.4666V13.4686V13.4706V13.4726V13.4746V13.4766V13.4786V13.4806V13.4826V13.4846V13.4866V13.4886V13.4906V13.4926V13.4945V13.4965V13.4985V13.5005V13.5025V13.5045V13.5065V13.5085V13.5105V13.5125V13.5145V13.5165V13.5185V13.5205V13.5225V13.5245V13.5265V13.5285V13.5305V13.5325V13.5345V13.5364V13.5384V13.5404V13.5424V13.5444V13.5464V13.5484V13.5504V13.5524V13.5544V13.5564V13.5584V13.5604V13.5624V13.5644V13.5664V13.5684V13.5704V13.5724V13.5743V13.5763V13.5783V13.5803V13.5823V13.5843V13.5863V13.5883V13.5903V13.5923V13.5943V13.5963V13.5983V13.6003V13.6023V13.6043V13.6063V13.6083V13.6102V13.6122V13.6142V13.6162V13.6182V13.6202V13.6222V13.6242V13.6262V13.6282V13.6302V13.6322V13.6342V13.6362V13.6382V13.6402V13.6422V13.6441V13.6461V13.6481V13.6501V13.6521V13.6541V13.6561V13.6581V13.6601V13.6621V13.6641V13.7551L97.8788 13.8248C98.4717 14.5311 98.4772 14.5376 98.8765 14.934L98.8765 14.9341L98.8798 14.9373L99.3081 15.347C99.762 15.7944 100.217 16.2418 100.675 16.6861L100.675 16.6863C101.145 17.1407 101.613 17.5972 102.08 18.0547C102.38 18.3497 102.68 18.6446 102.981 18.9394L102.982 18.9406C104.043 19.9664 105.031 21.0264 105.979 22.1539C105.05 23.0536 104.123 23.9564 103.2 24.8632L103.2 24.8634C102.802 25.255 102.403 25.6463 102.005 26.0372C101.412 26.6103 100.819 27.1842 100.23 27.7639L100.23 27.7641L99.6756 28.312C99.6224 28.3629 99.5689 28.4138 99.5153 28.4649C98.9332 29.0193 98.3379 29.5863 97.8638 30.281L97.8185 30.3473L97.8204 30.4277L97.8211 30.4578C97.8292 30.8117 97.8341 31.0232 97.8707 31.206C97.9087 31.396 97.9801 31.5518 98.0911 31.7938L98.1009 31.8151L98.1547 31.9326L98.2816 31.9566C99.293 32.1481 100.301 32.3073 101.328 32.418L101.328 32.418L101.333 32.4185C104.652 32.7128 107.511 32.7439 110.286 30.5056L110.286 30.5058L110.295 30.4981C110.563 30.2602 110.88 29.9891 111.227 29.6912C112.233 28.8294 113.501 27.7427 114.637 26.5817C115.403 25.7987 116.118 24.9736 116.66 24.1492C117.2 23.3277 117.582 22.4881 117.655 21.679L117.664 21.5782L117.601 21.4994C116.974 20.7215 116.968 20.714 116.526 20.2695L116.526 20.2694L116.522 20.2657L116.045 19.8061C116.044 19.8056 116.044 19.8052 116.043 19.8048C115.538 19.3029 115.03 18.8015 114.519 18.3041L114.519 18.304C114.168 17.9626 113.818 17.6198 113.469 17.2757L113.435 17.2411C112.776 16.589 112.117 15.9352 111.444 15.2932L111.444 15.2928L111.419 15.2687C110.979 14.8505 110.542 14.4349 110.114 14.0099C109.793 13.6312 109.469 13.2545 109.139 12.8827L109.127 12.8697L109.114 12.8584L109.102 12.848C108.831 12.6175 108.606 12.4263 108.367 12.2831C108.115 12.1325 107.853 12.0371 107.501 11.9812C106.83 11.8744 105.798 11.9082 103.824 11.9729L103.766 11.9749ZM103.827 16.9847L103.827 16.9843C102.868 16.0543 101.964 15.1081 101.113 14.0914C102.596 13.8333 104.075 13.709 105.582 13.7495C107.838 14.7381 108.933 15.222 109.866 15.952C110.807 16.6878 111.589 17.6776 113.201 19.7254L113.201 19.7254L113.205 19.7293C113.833 20.4949 114.476 21.2468 115.12 21.9959L115.12 21.9961L115.272 22.1727C115.016 22.4739 114.759 22.7785 114.5 23.0847C112.308 25.6807 110.014 28.3968 107.233 30.2007C105.19 31.0793 102.852 30.7792 100.671 30.235C101.011 29.8865 101.353 29.5404 101.699 29.2C102.031 28.8753 102.363 28.5497 102.694 28.2233L102.694 28.2232C103.224 27.6991 103.756 27.1756 104.288 26.6527C104.819 26.1328 105.351 25.6123 105.88 25.0891L105.881 25.089L106.381 24.5941L106.382 24.5924L106.872 24.1171L106.872 24.1171L106.874 24.115L107.327 23.6653C107.327 23.6651 107.327 23.6649 107.327 23.6646C107.79 23.2103 108.059 22.8839 108.305 22.252L108.317 22.2209L108.32 22.1878C108.321 22.1766 108.322 22.1655 108.324 22.1545C108.347 21.9333 108.367 21.75 108.29 21.5507C108.252 21.4511 108.194 21.3562 108.122 21.2534C108.05 21.1517 107.955 21.0293 107.836 20.8753L107.832 20.8703L107.821 20.8561L107.808 20.8436L107.083 20.1434C107.082 20.1432 107.082 20.1429 107.082 20.1427C106.68 19.7483 106.277 19.3541 105.869 18.9636L105.869 18.9635C105.317 18.4364 104.771 17.9044 104.223 17.3711L103.827 16.9847Z" fill="#BF83FF" stroke="#BF83FF" stroke-width="0.5"/>
<path d="M107.094 80.1796C106.944 81.6536 106.545 82.9099 106.01 84.2875C105.928 84.5033 105.845 84.719 105.76 84.9413C105.586 85.3955 105.411 85.8494 105.235 86.303C104.968 86.9915 104.706 87.6815 104.444 88.3717C104.274 88.8151 104.103 89.2584 103.932 89.7016C103.854 89.9052 103.777 90.1088 103.698 90.3186C102.886 92.391 101.951 94.3528 99.875 95.3906C98.0647 95.5765 96.4411 95.5257 94.9766 94.3593C93.9038 93.2709 93.6036 92.2305 93.5586 90.7177C93.6209 89.5075 93.7058 88.6402 94.4609 87.6562C96.0406 86.2902 97.7863 85.1682 99.5527 84.0629C99.801 83.9069 100.049 83.7508 100.305 83.59C100.797 83.2812 101.289 82.9728 101.781 82.665C102.364 82.298 102.944 81.9261 103.522 81.5503C103.815 81.3619 104.109 81.1736 104.403 80.9853C104.648 80.8265 104.893 80.6676 105.145 80.5039C105.86 80.1523 106.308 80.1086 107.094 80.1796ZM102.276 84.0146C102.082 84.1419 101.888 84.2692 101.688 84.4004C101.284 84.6657 100.88 84.9315 100.477 85.1978C99.9037 85.5748 99.3283 85.9478 98.7521 86.3198C98.4066 86.5449 98.0612 86.7702 97.7158 86.9956C97.5551 87.0987 97.3943 87.2019 97.2287 87.3081C96.1996 87.986 95.4315 88.5537 95.0662 89.757C94.9298 90.8216 94.9106 91.3836 95.3794 92.3774C96.2633 93.352 97.0063 94.0101 98.3281 94.2304C99.3287 94.0637 99.8675 93.7124 100.648 93.0703C101.229 92.1983 101.645 91.3066 102.034 90.3361C102.145 90.061 102.255 89.786 102.369 89.5027C102.482 89.2177 102.595 88.9327 102.711 88.6391C102.88 88.2191 102.88 88.2191 103.053 87.7907C103.714 86.1337 104.298 84.4774 104.773 82.7578C103.827 82.7578 103.048 83.5046 102.276 84.0146Z" fill="#BF83FF"/>
<path d="M41.0256 84.6939L40.446 86.6712H29.4006L29.9801 84.6939H41.0256ZM35.8438 98.0234L29.6051 90.3871L29.571 88.9553H32.6733C33.4801 88.9553 34.1676 88.8416 34.7358 88.6143C35.304 88.3814 35.7386 88.0348 36.0398 87.5746C36.3409 87.1087 36.4915 86.5234 36.4915 85.8189C36.4915 84.7791 36.179 83.9638 35.554 83.3729C34.929 82.7763 33.9688 82.478 32.6733 82.478H29.4006L29.9801 80.5689H32.6733C34.0597 80.5689 35.196 80.799 36.0824 81.2592C36.9744 81.7138 37.6335 82.3388 38.0597 83.1342C38.4915 83.924 38.7074 84.8189 38.7074 85.8189C38.7074 86.7223 38.5085 87.5547 38.1108 88.3161C37.7188 89.0717 37.0881 89.6797 36.2188 90.1399C35.3551 90.6001 34.2131 90.8303 32.7926 90.8303H32.7415L38.5028 97.8871V98.0234H35.8438ZM41.0256 80.5689L40.446 82.5462L31.7528 82.478L32.3324 80.5689H41.0256Z" fill="#BF83FF"/>
</g>
<defs>
<clipPath id="clip0_2611_3778">
<rect width="132" height="132" fill="white" transform="translate(5)"/>
</clipPath>
</defs>
</svg>
