<svg width="52" height="52" viewBox="0 0 52 52" fill="none" xmlns="http://www.w3.org/2000/svg">
<g clip-path="url(#clip0_2472_4135)">
<path d="M47.6328 24.3211C47.7657 24.3205 47.7657 24.3205 47.9014 24.3199C48.0885 24.3196 48.2756 24.3204 48.4627 24.3221C48.749 24.3243 49.035 24.3221 49.3213 24.3195C49.5032 24.3198 49.6852 24.3203 49.8672 24.3211C49.9527 24.3203 50.0381 24.3195 50.1262 24.3186C50.4899 24.3244 50.72 24.3395 51.0381 24.5244C51.262 24.9095 51.2456 25.2571 51.2414 25.6954C51.2418 25.784 51.2422 25.8726 51.2426 25.9639C51.2429 26.1511 51.2421 26.3382 51.2404 26.5253C51.2383 26.8116 51.2404 27.0976 51.243 27.3838C51.2427 27.5658 51.2422 27.7478 51.2414 27.9297C51.2422 28.0152 51.2431 28.1007 51.2439 28.1888C51.2344 28.7816 51.2344 28.7816 50.9937 29.1007C50.7637 29.2624 50.6532 29.3052 50.375 29.3008C50.3079 29.3019 50.2409 29.3029 50.1718 29.304C49.8694 29.2237 49.7565 29.0881 49.5625 28.8438C49.5006 28.4931 49.5006 28.4931 49.4863 28.1075C49.4805 27.9792 49.4748 27.8509 49.4688 27.7187C49.4662 27.6208 49.4636 27.5228 49.4609 27.4219C49.4194 27.4637 49.3778 27.5055 49.335 27.5485C48.9037 27.9821 48.472 28.4153 48.0401 28.8483C47.8789 29.0101 47.7177 29.1719 47.5566 29.3339C47.3254 29.5663 47.0939 29.7984 46.8623 30.0304C46.7901 30.1032 46.7178 30.176 46.6434 30.251C46.5763 30.3181 46.5092 30.3852 46.4401 30.4543C46.381 30.5136 46.3219 30.5729 46.261 30.634C45.9748 30.8972 45.7132 30.913 45.3301 30.9073C44.8727 30.8449 44.4861 30.6204 44.0813 30.4085C43.9877 30.3612 43.8942 30.3138 43.7978 30.265C43.5011 30.1144 43.2056 29.9616 42.9101 29.8086C42.7084 29.7057 42.5066 29.603 42.3047 29.5004C41.8116 29.2494 41.3195 28.9965 40.8281 28.7422C40.6995 28.838 40.5709 28.934 40.4424 29.0299C40.3708 29.0833 40.2992 29.1368 40.2254 29.1918C39.9327 29.4147 39.6532 29.6512 39.3745 29.8912C38.7822 30.3966 38.1821 30.8915 37.5781 31.3829C37.3685 31.5541 37.1591 31.7256 36.9497 31.897C36.7868 32.0303 36.6238 32.1636 36.4609 32.2969C36.4944 32.3975 36.5279 32.498 36.5625 32.6016C36.571 32.8262 36.5734 33.051 36.5724 33.2757C36.5721 33.4076 36.5717 33.5395 36.5714 33.6754C36.5705 33.8147 36.5697 33.954 36.5688 34.0933C36.5683 34.2338 36.5678 34.3743 36.5674 34.5148C36.5662 34.8589 36.5646 35.2029 36.5625 35.5469C36.6624 35.4942 36.7623 35.4414 36.8652 35.387C38.4923 34.5587 40.2454 34.1153 42.075 34.1044C42.1532 34.1038 42.2313 34.1033 42.3119 34.1027C42.4767 34.1017 42.6415 34.101 42.8063 34.1007C43.0523 34.0997 43.2983 34.0965 43.5443 34.0933C45.916 34.0772 48.5895 34.5436 50.3615 36.2329C50.8472 36.7444 51.1985 37.205 51.2024 37.9319C51.2035 38.0718 51.2035 38.0718 51.2046 38.2145C51.2049 38.3166 51.2052 38.4187 51.2054 38.5239C51.2061 38.6316 51.2068 38.7393 51.2075 38.8502C51.2095 39.2074 51.2107 39.5645 51.2117 39.9217C51.2121 40.0436 51.2125 40.1656 51.2129 40.2912C51.215 40.9369 51.2165 41.5825 51.2174 42.2281C51.2186 42.8946 51.2221 43.5611 51.2261 44.2276C51.2288 44.7404 51.2296 45.2532 51.23 45.7659C51.2305 46.0116 51.2316 46.2573 51.2335 46.5029C51.236 46.8471 51.2359 47.1913 51.2352 47.5355C51.2372 47.6871 51.2372 47.6871 51.2391 47.8418C51.2327 48.7072 50.9834 49.3188 50.3623 49.9307C48.7408 51.4604 46.224 52.0078 44.0499 52.0207C43.9718 52.0213 43.8936 52.0218 43.8131 52.0224C43.6483 52.0234 43.4834 52.0241 43.3186 52.0245C43.0726 52.0254 42.8267 52.0286 42.5806 52.0318C40.4226 52.0465 37.6678 51.6828 36.0118 50.1469C35.9589 50.0882 35.906 50.0294 35.8515 49.9688C35.5652 50.1037 35.3197 50.2585 35.0644 50.4449C33.4549 51.5188 31.4615 52.0093 29.54 52.0207C29.4619 52.0213 29.3838 52.0218 29.3034 52.0224C29.1384 52.0234 28.9734 52.0241 28.8084 52.0245C28.5626 52.0254 28.3169 52.0286 28.0711 52.0318C25.6625 52.0482 22.9426 51.6122 21.1385 49.8922C20.5785 49.3025 20.3006 48.8336 20.2975 48.0081C20.2972 47.9429 20.2968 47.8777 20.2964 47.8105C20.2953 47.5916 20.2949 47.3727 20.2945 47.1537C20.2939 46.9969 20.2932 46.8401 20.2925 46.6833C20.2903 46.1679 20.2893 45.6525 20.2883 45.137C20.2879 44.9595 20.2874 44.782 20.287 44.6045C20.2851 43.7704 20.2836 42.9362 20.2828 42.1021C20.2818 41.1398 20.2791 40.1775 20.275 39.2151C20.272 38.471 20.2705 37.7269 20.2701 36.9828C20.2699 36.5385 20.269 36.0943 20.2664 35.65C20.264 35.2318 20.2636 34.8136 20.2647 34.3954C20.2647 34.2422 20.2641 34.0891 20.2627 33.936C20.2544 32.9757 20.3085 32.3079 20.9226 31.5312C22.5821 29.8962 25.0698 29.2425 27.3608 29.2294C27.4413 29.2288 27.5219 29.2283 27.6049 29.2277C27.7751 29.2267 27.9453 29.226 28.1155 29.2257C28.3698 29.2247 28.624 29.2215 28.8782 29.2183C30.9042 29.2049 32.8867 29.5633 34.6784 30.5466C34.9497 30.6779 35.1431 30.7629 35.4453 30.7735C35.6906 30.6173 35.6906 30.6173 35.915 30.3799C36.2672 30.0429 36.6208 29.721 37.0005 29.4151C37.3577 29.1262 37.7109 28.8337 38.0597 28.5348C38.2813 28.3455 38.5043 28.1581 38.7279 27.9712C38.8432 27.8745 38.958 27.7773 39.0725 27.6796C39.2435 27.5345 39.4165 27.3923 39.5903 27.2505C39.6915 27.1664 39.7927 27.0822 39.897 26.9954C40.2895 26.7723 40.5937 26.7476 41.0312 26.8126C41.3661 26.9313 41.6723 27.0927 41.985 27.2605C42.073 27.3058 42.1611 27.3511 42.2518 27.3978C42.5313 27.5418 42.8097 27.688 43.0879 27.8345C43.3676 27.9813 43.6475 28.1275 43.9283 28.2723C44.1025 28.3622 44.2762 28.4533 44.4491 28.5456C44.5278 28.5863 44.6065 28.627 44.6876 28.6689C44.7564 28.7052 44.8252 28.7415 44.8961 28.7789C45.1433 28.8601 45.2597 28.8375 45.5 28.7422C45.7166 28.5516 45.9167 28.3609 46.1173 28.1547C46.1753 28.0962 46.2334 28.0377 46.2931 27.9775C46.4781 27.7909 46.6619 27.6033 46.8457 27.4156C46.971 27.2888 47.0963 27.162 47.2218 27.0353C47.5289 26.7249 47.835 26.4135 48.1406 26.1016C47.9937 26.0977 47.9937 26.0977 47.8438 26.0937C47.7155 26.0879 47.5872 26.0822 47.455 26.0762C47.2642 26.0692 47.2642 26.0692 47.0694 26.0619C46.675 25.9923 46.5514 25.9081 46.3125 25.5938C46.2585 25.3907 46.2585 25.3907 46.2617 25.1876C46.2601 25.087 46.2601 25.087 46.2585 24.9844C46.4455 24.2807 47.0285 24.3153 47.6328 24.3211ZM22.1406 32.8047C21.9932 33.0996 22.0012 33.2895 22.039 33.6172C22.7597 34.7704 24.2332 35.1373 25.4807 35.4394C28.2086 36.0267 31.6011 35.9537 34.0234 34.4297C34.4987 34.0866 34.4987 34.0866 34.8359 33.6172C34.8901 33.2199 34.8602 33.0467 34.6455 32.7032C33.325 31.2984 30.9074 30.9755 29.0673 30.8826C26.726 30.8107 23.895 31.0893 22.1406 32.8047ZM36.7656 37.6797C36.6182 37.9746 36.6262 38.1645 36.664 38.4922C37.3847 39.6454 38.8582 40.0123 40.1057 40.3144C42.8336 40.9017 46.2261 40.8287 48.6484 39.3047C49.1237 38.9616 49.1237 38.9616 49.4609 38.4922C49.5151 38.0949 49.4852 37.9217 49.2705 37.5782C47.95 36.1734 45.5324 35.8505 43.6923 35.7576C41.351 35.6857 38.52 35.9643 36.7656 37.6797ZM21.9375 35.9532C21.9286 36.3129 21.9232 36.6725 21.9184 37.0323C21.9159 37.1337 21.9133 37.2352 21.9107 37.3397C21.904 38.0101 21.9493 38.4751 22.4183 38.9905C24.5531 40.6785 27.7056 40.7832 30.2957 40.5021C31.7869 40.313 33.7302 39.9189 34.7343 38.6954C34.9056 38.3322 34.962 38.0493 34.9573 37.6492C34.9567 37.55 34.956 37.4508 34.9553 37.3487C34.9536 37.2464 34.9519 37.144 34.9502 37.0386C34.9493 36.9343 34.9483 36.8301 34.9474 36.7226C34.945 36.4661 34.9417 36.2097 34.9375 35.9532C34.5593 36.0723 34.216 36.2087 33.8647 36.3912C32.5238 37.0136 30.9212 37.2847 29.4507 37.2941C29.3756 37.2948 29.3005 37.2955 29.2231 37.2963C28.9824 37.298 28.7417 37.2987 28.5009 37.2989C28.4188 37.2989 28.3367 37.299 28.2521 37.2991C26.1825 37.2963 24.1707 37.0629 22.3255 36.0464C22.1449 35.9379 22.1449 35.9379 21.9375 35.9532ZM21.9375 40.8282C21.9286 41.1879 21.9232 41.5475 21.9184 41.9073C21.9159 42.0087 21.9133 42.1102 21.9107 42.2147C21.904 42.8851 21.9493 43.3501 22.4183 43.8655C24.5531 45.5535 27.7056 45.6582 30.2957 45.3771C31.7869 45.188 33.7302 44.7939 34.7343 43.5704C34.9056 43.2072 34.962 42.9243 34.9573 42.5242C34.9567 42.425 34.956 42.3258 34.9553 42.2237C34.9536 42.1214 34.9519 42.019 34.9502 41.9136C34.9493 41.8093 34.9483 41.7051 34.9474 41.5976C34.945 41.3411 34.9417 41.0847 34.9375 40.8282C34.5593 40.9473 34.216 41.0837 33.8647 41.2662C32.5238 41.8886 30.9212 42.1597 29.4507 42.1691C29.3756 42.1698 29.3005 42.1705 29.2231 42.1713C28.9824 42.173 28.7417 42.1737 28.5009 42.1739C28.4188 42.1739 28.3367 42.174 28.2521 42.1741C26.1825 42.1713 24.1707 41.9379 22.3255 40.9214C22.1449 40.8129 22.1449 40.8129 21.9375 40.8282ZM36.5625 40.8282C36.5536 41.1879 36.5482 41.5475 36.5434 41.9073C36.5409 42.0087 36.5383 42.1102 36.5357 42.2147C36.529 42.8851 36.5743 43.3501 37.0433 43.8655C39.1781 45.5535 42.3306 45.6582 44.9207 45.3771C46.4119 45.188 48.3552 44.7939 49.3593 43.5704C49.5306 43.2072 49.587 42.9243 49.5823 42.5242C49.5817 42.425 49.581 42.3258 49.5803 42.2237C49.5786 42.1214 49.5769 42.019 49.5752 41.9136C49.5743 41.8093 49.5733 41.7051 49.5724 41.5976C49.57 41.3411 49.5667 41.0847 49.5625 40.8282C49.1843 40.9473 48.841 41.0837 48.4897 41.2662C47.1488 41.8886 45.5462 42.1597 44.0757 42.1691C44.0006 42.1698 43.9255 42.1705 43.8481 42.1713C43.6074 42.173 43.3667 42.1737 43.1259 42.1739C43.0438 42.1739 42.9617 42.174 42.8771 42.1741C40.8075 42.1713 38.7957 41.9379 36.9505 40.9214C36.7699 40.8129 36.7699 40.8129 36.5625 40.8282ZM21.9375 45.7032C21.9286 46.0629 21.9232 46.4225 21.9184 46.7823C21.9159 46.8837 21.9133 46.9852 21.9107 47.0897C21.904 47.7601 21.9493 48.2251 22.4183 48.7405C24.5531 50.4285 27.7056 50.5332 30.2957 50.2521C31.7869 50.063 33.7302 49.6689 34.7343 48.4454C34.9056 48.0822 34.962 47.7993 34.9573 47.3992C34.9567 47.3 34.956 47.2008 34.9553 47.0987C34.9536 46.9964 34.9519 46.894 34.9502 46.7886C34.9493 46.6843 34.9483 46.5801 34.9474 46.4726C34.945 46.2161 34.9417 45.9597 34.9375 45.7032C34.5593 45.8223 34.216 45.9587 33.8647 46.1412C32.5238 46.7636 30.9212 47.0347 29.4507 47.0441C29.3756 47.0448 29.3005 47.0455 29.2231 47.0463C28.9824 47.048 28.7417 47.0487 28.5009 47.0489C28.4188 47.0489 28.3367 47.049 28.2521 47.0491C26.1825 47.0463 24.1707 46.8129 22.3255 45.7964C22.1449 45.6879 22.1449 45.6879 21.9375 45.7032ZM36.5625 45.7032C36.5536 46.0629 36.5482 46.4225 36.5434 46.7823C36.5409 46.8837 36.5383 46.9852 36.5357 47.0897C36.529 47.7601 36.5743 48.2251 37.0433 48.7405C39.1781 50.4285 42.3306 50.5332 44.9207 50.2521C46.4119 50.063 48.3552 49.6689 49.3593 48.4454C49.5306 48.0822 49.587 47.7993 49.5823 47.3992C49.5817 47.3 49.581 47.2008 49.5803 47.0987C49.5786 46.9964 49.5769 46.894 49.5752 46.7886C49.5743 46.6843 49.5733 46.5801 49.5724 46.4726C49.57 46.2161 49.5667 45.9597 49.5625 45.7032C49.1843 45.8223 48.841 45.9587 48.4897 46.1412C47.1488 46.7636 45.5462 47.0347 44.0757 47.0441C44.0006 47.0448 43.9255 47.0455 43.8481 47.0463C43.6074 47.048 43.3667 47.0487 43.1259 47.0489C43.0438 47.0489 42.9617 47.049 42.8771 47.0491C40.8075 47.0463 38.7957 46.8129 36.9505 45.7964C36.7699 45.6879 36.7699 45.6879 36.5625 45.7032Z" fill="black"/>
<path d="M6.46821 -0.0277775C6.5764 -0.0283093 6.6846 -0.0288412 6.79607 -0.0293892C7.15804 -0.0309108 7.51999 -0.0309842 7.88197 -0.031052C8.14176 -0.0318262 8.40155 -0.0326822 8.66134 -0.0336137C9.36686 -0.0358424 10.0724 -0.0367384 10.7779 -0.0372524C11.219 -0.0375838 11.6602 -0.0382466 12.1013 -0.0389791C13.3244 -0.0409659 14.5475 -0.0426321 15.7705 -0.0429275C15.8878 -0.042956 15.8878 -0.042956 16.0075 -0.0429852C16.166 -0.0430224 16.3245 -0.0430593 16.483 -0.043096C16.5617 -0.0431146 16.6404 -0.0431331 16.7215 -0.0431523C16.8003 -0.0431706 16.879 -0.0431889 16.9602 -0.0432078C18.2352 -0.0435671 19.5102 -0.0463092 20.7852 -0.0501091C22.0964 -0.0539854 23.4077 -0.0559435 24.7189 -0.0559741C25.4542 -0.0560333 26.1895 -0.056884 26.9249 -0.0598333C27.6171 -0.0625972 28.3093 -0.0627123 29.0016 -0.061087C29.2548 -0.0609032 29.508 -0.0615774 29.7612 -0.0632014C31.5936 -0.0742311 33.0553 0.0192883 34.5312 1.21882C34.6158 1.28244 34.7004 1.34607 34.7875 1.41163C35.7089 2.19348 36.4757 3.57012 36.5814 4.78861C36.5888 5.03948 36.59 5.28965 36.5889 5.54063C36.5893 5.63642 36.5897 5.7322 36.5901 5.83088C36.5912 6.15078 36.5908 6.47067 36.5904 6.79057C36.5908 7.02032 36.5913 7.25007 36.5919 7.47982C36.5933 8.103 36.5933 8.72618 36.5931 9.34937C36.593 9.86935 36.5935 10.3893 36.594 10.9093C36.5952 12.2055 36.5951 13.5016 36.5944 14.7977C36.5939 15.9238 36.595 17.0499 36.597 18.176C36.5989 19.3325 36.5997 20.489 36.5994 21.6456C36.5992 22.2948 36.5995 22.944 36.6009 23.5932C36.6022 24.2031 36.602 24.8129 36.6006 25.4228C36.6004 25.6471 36.6007 25.8713 36.6015 26.0956C36.6026 26.4008 36.6018 26.7059 36.6005 27.0111C36.6012 27.1006 36.602 27.1901 36.6027 27.2824C36.5973 27.8848 36.5973 27.8848 36.4292 28.1016C36.1487 28.319 35.895 28.324 35.5468 28.336C35.3055 28.2206 35.1259 28.1182 34.9375 27.9298C34.9267 27.6462 34.9226 27.365 34.9228 27.0813C34.9224 26.9913 34.922 26.9012 34.9217 26.8085C34.9206 26.5042 34.9202 26.2 34.9198 25.8958C34.9192 25.6786 34.9185 25.4615 34.9178 25.2443C34.9163 24.7752 34.9151 24.3062 34.9141 23.8371C34.9126 23.0949 34.9101 22.3526 34.9075 21.6104C34.9003 19.4992 34.8942 17.388 34.889 15.2768C34.8862 14.1119 34.8826 12.9469 34.8782 11.782C34.8755 11.0448 34.8737 10.3077 34.8725 9.57052C34.8716 9.1104 34.8698 8.65028 34.8678 8.19016C34.8671 7.9776 34.8666 7.76504 34.8666 7.55248C34.8729 4.99348 34.8729 4.99348 33.6191 2.82557C32.5344 1.8478 31.2582 1.71065 29.8601 1.71305C29.7607 1.71282 29.6613 1.71259 29.559 1.71235C29.2275 1.71171 28.896 1.71179 28.5645 1.71188C28.3262 1.71157 28.0879 1.71123 27.8497 1.71084C27.2033 1.70995 26.557 1.70971 25.9107 1.70964C25.4387 1.70956 24.9668 1.70926 24.4948 1.70895C23.2248 1.7081 21.9548 1.70772 20.6848 1.7078C20.5767 1.7078 20.5767 1.7078 20.4665 1.70781C20.3944 1.70781 20.3223 1.70782 20.248 1.70782C19.0798 1.70786 17.9117 1.70689 16.7435 1.70546C15.5421 1.704 14.3407 1.7033 13.1393 1.70339C12.4656 1.70342 11.7918 1.70313 11.1181 1.70205C10.4843 1.70106 9.85037 1.70106 9.21648 1.7018C8.98443 1.7019 8.75238 1.70166 8.52033 1.70105C5.87959 1.66983 5.87959 1.66983 3.63796 2.9434C2.53584 4.16614 2.52358 5.60799 2.52544 7.16513C2.52525 7.31577 2.52502 7.46642 2.52475 7.61706C2.52413 8.02975 2.52414 8.44243 2.52426 8.85511C2.52428 9.3007 2.52372 9.74628 2.52324 10.1919C2.52239 11.0644 2.52211 11.9369 2.52206 12.8094C2.52201 13.5188 2.5218 14.2282 2.52148 14.9376C2.52058 16.9499 2.52012 18.9622 2.52019 20.9745C2.5202 21.1372 2.5202 21.1372 2.5202 21.3031C2.52021 21.4117 2.52021 21.5202 2.52022 21.6321C2.52026 23.3913 2.51929 25.1505 2.51785 26.9098C2.51639 28.7172 2.51569 30.5245 2.51578 32.3319C2.51582 33.3462 2.51554 34.3605 2.51444 35.3748C2.51352 36.2384 2.5133 37.1021 2.51399 37.9657C2.51432 38.406 2.51433 38.8463 2.51344 39.2867C2.51264 39.6904 2.51279 40.0941 2.51368 40.4978C2.51383 40.6433 2.51365 40.7887 2.51308 40.9341C2.50731 42.5162 2.63776 43.9088 3.75579 45.1121C4.88784 46.1324 6.21524 46.2261 7.66724 46.2254C7.78161 46.2258 7.89599 46.2261 8.01383 46.2265C8.26098 46.2272 8.50814 46.2278 8.75529 46.2281C9.14626 46.2289 9.53722 46.2305 9.92819 46.2323C10.0611 46.233 10.1939 46.2336 10.3309 46.2343C10.398 46.2346 10.4652 46.2349 10.5344 46.2352C11.4435 46.2395 12.3526 46.2429 13.2617 46.2441C13.9422 46.2451 14.6228 46.2481 15.3033 46.2524C15.5626 46.2536 15.8219 46.2541 16.0813 46.2539C16.443 46.2537 16.8047 46.2559 17.1665 46.2587C17.2739 46.2581 17.3814 46.2574 17.492 46.2567C18.2165 46.266 18.2165 46.266 18.5506 46.5064C18.6981 46.7353 18.7425 46.8548 18.7382 47.1251C18.7393 47.1921 18.7403 47.2591 18.7414 47.3282C18.6629 47.6236 18.5142 47.7438 18.2812 47.9376C18.0332 47.9887 18.0332 47.9887 17.7509 47.9892C17.5899 47.9909 17.5899 47.9909 17.4257 47.9926C17.2498 47.9914 17.2498 47.9914 17.0704 47.9901C16.8845 47.9912 16.8845 47.9912 16.6949 47.9923C16.3551 47.9938 16.0154 47.9934 15.6756 47.9921C15.319 47.9911 14.9624 47.9921 14.6058 47.9927C14.0061 47.9934 13.4064 47.9925 12.8067 47.9905C12.116 47.9883 11.4254 47.989 10.7347 47.9913C10.1401 47.9931 9.5456 47.9934 8.95103 47.9923C8.59666 47.9917 8.24232 47.9916 7.88795 47.9929C7.49152 47.9943 7.09515 47.9924 6.69872 47.9901C6.58313 47.991 6.46754 47.9918 6.34845 47.9926C4.95891 47.9781 3.53973 47.4478 2.50689 46.4967C1.5388 45.4544 0.788106 44.1265 0.786333 42.6773C0.785977 42.6113 0.785621 42.5454 0.785254 42.4774C0.784312 42.2573 0.784807 42.0372 0.785302 41.8171C0.784922 41.6573 0.784455 41.4975 0.783907 41.3378C0.782666 40.8994 0.782691 40.461 0.782931 40.0226C0.782972 39.5495 0.781851 39.0765 0.780888 38.6034C0.779201 37.6767 0.778643 36.7501 0.778529 35.8235C0.778433 35.0701 0.778015 34.3167 0.777371 33.5634C0.775583 31.4268 0.774646 29.2903 0.774798 27.1537C0.774806 27.0386 0.774814 26.9234 0.774822 26.8048C0.774831 26.6895 0.774839 26.5741 0.774848 26.4553C0.77493 24.5871 0.772987 22.7188 0.770122 20.8506C0.767204 18.9316 0.765802 17.0127 0.765977 15.0938C0.766045 14.0167 0.765488 12.9396 0.763301 11.8625C0.76145 10.9454 0.761011 10.0282 0.762389 9.11109C0.763051 8.64339 0.763066 8.17572 0.761301 7.70802C0.7597 7.27929 0.759998 6.85061 0.761765 6.42188C0.762076 6.26735 0.761711 6.11282 0.760575 5.95829C0.749822 4.39111 1.16565 2.8757 2.25338 1.69449C3.46488 0.56916 4.82668 -0.0317868 6.46821 -0.0277775Z" fill="black"/>
<path d="M6.3453 4.01095C6.45486 4.01031 6.56441 4.00968 6.67728 4.00903C7.04562 4.0074 7.41391 4.00869 7.78226 4.00997C8.04582 4.00942 8.30938 4.00869 8.57294 4.00781C9.21524 4.006 9.85752 4.00639 10.4998 4.00757C11.0218 4.00849 11.5437 4.00861 12.0656 4.00817C12.177 4.00808 12.177 4.00808 12.2906 4.00798C12.4414 4.00785 12.5922 4.00772 12.7431 4.00759C14.1577 4.00643 15.5724 4.00776 16.9871 4.00994C18.2014 4.01176 19.4156 4.01144 20.6299 4.00957C22.0395 4.0074 23.4491 4.00654 24.8586 4.00779C25.0089 4.00792 25.1592 4.00805 25.3094 4.00817C25.4203 4.00827 25.4203 4.00827 25.5335 4.00836C26.0549 4.00871 26.5763 4.00812 27.0977 4.00716C27.7993 4.00591 28.5008 4.0068 29.2024 4.00915C29.4603 4.00969 29.7183 4.00953 29.9762 4.00864C30.3274 4.00753 30.6785 4.00892 31.0298 4.01095C31.1841 4.00959 31.1841 4.00959 31.3415 4.0082C32.0226 4.01588 32.0226 4.01588 32.3602 4.23708C32.5238 4.50813 32.5511 4.66212 32.5516 4.97759C32.5533 5.13137 32.5533 5.13137 32.5551 5.28825C32.5539 5.45605 32.5539 5.45605 32.5526 5.62723C32.5537 5.80465 32.5537 5.80465 32.5548 5.98565C32.5565 6.37719 32.5554 6.76865 32.554 7.16019C32.5543 7.43188 32.5547 7.70358 32.5552 7.97527C32.5559 8.54491 32.5549 9.11454 32.553 9.68418C32.5508 10.3426 32.5515 11.0009 32.5537 11.6593C32.5556 12.2248 32.5558 12.7903 32.5548 13.3557C32.5541 13.6934 32.5542 14.031 32.5554 14.3687C32.5564 14.7451 32.5549 15.1214 32.5526 15.4978C32.5534 15.6097 32.5542 15.7216 32.5551 15.8368C32.5539 15.9393 32.5528 16.0419 32.5516 16.1475C32.5514 16.2809 32.5514 16.2809 32.5512 16.4171C32.4769 16.7647 32.3936 16.8661 32.0938 17.0625C31.7394 17.1231 31.3886 17.1173 31.0298 17.1141C30.9202 17.1148 30.8107 17.1154 30.6978 17.116C30.3294 17.1177 29.9612 17.1164 29.5928 17.1151C29.3292 17.1157 29.0657 17.1164 28.8021 17.1173C28.1598 17.1191 27.5175 17.1187 26.8752 17.1175C26.3533 17.1166 25.8314 17.1165 25.3094 17.1169C25.1981 17.117 25.1981 17.117 25.0844 17.1171C24.9336 17.1172 24.7828 17.1173 24.632 17.1175C23.2173 17.1186 21.8026 17.1173 20.3879 17.1151C19.1737 17.1133 17.9594 17.1136 16.7451 17.1155C15.3356 17.1177 13.926 17.1185 12.5164 17.1173C12.3662 17.1171 12.2159 17.117 12.0656 17.1169C11.9917 17.1168 11.9178 17.1168 11.8416 17.1167C11.3202 17.1164 10.7988 17.1169 10.2774 17.1179C9.5758 17.1192 8.87426 17.1183 8.17269 17.1159C7.91475 17.1154 7.6568 17.1155 7.39887 17.1164C7.04765 17.1175 6.69652 17.1162 6.3453 17.1141C6.24244 17.115 6.13957 17.1159 6.03359 17.1169C5.35248 17.1092 5.35248 17.1092 5.01488 16.888C4.85128 16.6169 4.82398 16.4629 4.82344 16.1475C4.82172 15.9937 4.82172 15.9937 4.81997 15.8368C4.8212 15.669 4.8212 15.669 4.82246 15.4978C4.82175 15.3796 4.82104 15.2613 4.8203 15.1394C4.81851 14.7479 4.8197 14.3564 4.82107 13.9649C4.8208 13.6932 4.82041 13.4215 4.8199 13.1498C4.81916 12.5802 4.82013 12.0105 4.82207 11.4409C4.82428 10.7825 4.82356 10.1242 4.82132 9.46577C4.81948 8.90028 4.81922 8.33481 4.82028 7.76932C4.82092 7.43167 4.82084 7.09405 4.81966 6.75639C4.81863 6.37997 4.8202 6.00365 4.82246 5.62723C4.82164 5.51537 4.82082 5.4035 4.81997 5.28825C4.82112 5.18573 4.82226 5.08321 4.82344 4.97759C4.82359 4.88862 4.82375 4.79964 4.82391 4.70797C4.99428 3.91086 5.68079 4.00509 6.3453 4.01095ZM6.50003 5.68753C6.50003 8.90503 6.50003 12.1225 6.50003 15.4375C14.5438 15.4375 22.5875 15.4375 30.875 15.4375C30.875 12.22 30.875 9.00253 30.875 5.68753C22.8313 5.68753 14.7875 5.68753 6.50003 5.68753Z" fill="black"/>
<path d="M7.7188 37.3211C7.81568 37.3207 7.91256 37.3203 8.01238 37.3199C8.21656 37.3196 8.42075 37.3204 8.62493 37.3221C8.93657 37.3243 9.24798 37.3221 9.55962 37.3195C9.75851 37.3198 9.95741 37.3203 10.1563 37.3211C10.2953 37.3199 10.2953 37.3199 10.4372 37.3186C11.0014 37.3269 11.3439 37.3911 11.7813 37.7813C12.2427 38.2985 12.2474 38.7461 12.2415 39.4063C12.2421 39.5516 12.2421 39.5516 12.2427 39.6999C12.243 39.9041 12.2422 40.1083 12.2405 40.3124C12.2383 40.6241 12.2405 40.9355 12.2431 41.2471C12.2428 41.446 12.2423 41.6449 12.2415 41.8438C12.2423 41.9365 12.2432 42.0292 12.244 42.1247C12.2357 42.6889 12.1715 43.0314 11.7813 43.4688C11.2641 43.9302 10.8165 43.9349 10.1563 43.929C10.011 43.9296 10.011 43.9296 9.86272 43.9302C9.65854 43.9305 9.45435 43.9297 9.25017 43.928C8.93853 43.9258 8.62712 43.928 8.31548 43.9306C8.11659 43.9303 7.91769 43.9298 7.7188 43.929C7.62611 43.9298 7.53342 43.9307 7.43792 43.9315C6.87372 43.9232 6.53119 43.859 6.0938 43.4688C5.63242 42.9516 5.62774 42.504 5.6336 41.8438C5.63321 41.7469 5.63282 41.65 5.63242 41.5502C5.63214 41.346 5.63289 41.1418 5.63459 40.9377C5.63676 40.626 5.63461 40.3146 5.63201 40.003C5.63228 39.8041 5.6328 39.6052 5.6336 39.4063C5.63277 39.3136 5.63195 39.2209 5.6311 39.1254C5.63936 38.5612 5.7036 38.2187 6.0938 37.7813C6.61098 37.3199 7.05862 37.3152 7.7188 37.3211ZM7.31255 39.0001C7.31255 40.0726 7.31255 41.1451 7.31255 42.2501C8.38505 42.2501 9.45755 42.2501 10.5626 42.2501C10.5626 41.1776 10.5626 40.1051 10.5626 39.0001C9.49005 39.0001 8.41755 39.0001 7.31255 39.0001Z" fill="black"/>
<path d="M7.7188 28.3836C7.81568 28.3832 7.91256 28.3828 8.01238 28.3824C8.21656 28.3821 8.42075 28.3829 8.62493 28.3846C8.93657 28.3868 9.24798 28.3846 9.55962 28.382C9.75851 28.3823 9.95741 28.3828 10.1563 28.3836C10.2953 28.3824 10.2953 28.3824 10.4372 28.3811C11.0014 28.3894 11.3439 28.4536 11.7813 28.8438C12.2427 29.361 12.2474 29.8086 12.2415 30.4688C12.2421 30.6141 12.2421 30.6141 12.2427 30.7624C12.243 30.9666 12.2422 31.1708 12.2405 31.3749C12.2383 31.6866 12.2405 31.998 12.2431 32.3096C12.2428 32.5085 12.2423 32.7074 12.2415 32.9063C12.2423 32.999 12.2432 33.0917 12.244 33.1872C12.2357 33.7514 12.1715 34.0939 11.7813 34.5313C11.2641 34.9927 10.8165 34.9974 10.1563 34.9915C10.011 34.9921 10.011 34.9921 9.86272 34.9927C9.65854 34.993 9.45435 34.9922 9.25017 34.9905C8.93853 34.9883 8.62712 34.9905 8.31548 34.9931C8.11659 34.9928 7.91769 34.9923 7.7188 34.9915C7.62611 34.9923 7.53342 34.9932 7.43792 34.994C6.87372 34.9857 6.53119 34.9215 6.0938 34.5313C5.63242 34.0141 5.62774 33.5665 5.6336 32.9063C5.63321 32.8094 5.63282 32.7125 5.63242 32.6127C5.63214 32.4085 5.63289 32.2043 5.63459 32.0002C5.63676 31.6885 5.63461 31.3771 5.63201 31.0655C5.63228 30.8666 5.6328 30.6677 5.6336 30.4688C5.63277 30.3761 5.63195 30.2834 5.6311 30.1879C5.63936 29.6237 5.7036 29.2812 6.0938 28.8438C6.61098 28.3824 7.05862 28.3777 7.7188 28.3836ZM7.31255 30.0626C7.31255 31.1351 7.31255 32.2076 7.31255 33.3126C8.38505 33.3126 9.45755 33.3126 10.5626 33.3126C10.5626 32.2401 10.5626 31.1676 10.5626 30.0626C9.49005 30.0626 8.41755 30.0626 7.31255 30.0626Z" fill="black"/>
<path d="M27.2188 19.4461C27.3157 19.4457 27.4126 19.4453 27.5124 19.4449C27.7166 19.4446 27.9208 19.4454 28.1249 19.4471C28.4366 19.4493 28.748 19.4471 29.0596 19.4445C29.2585 19.4448 29.4574 19.4453 29.6563 19.4461C29.7953 19.4449 29.7953 19.4449 29.9372 19.4436C30.5014 19.4519 30.8439 19.5161 31.2813 19.9063C31.7427 20.4235 31.7474 20.8711 31.7415 21.5313C31.7421 21.6766 31.7421 21.6766 31.7427 21.8249C31.743 22.0291 31.7422 22.2333 31.7405 22.4374C31.7383 22.7491 31.7405 23.0605 31.7431 23.3721C31.7428 23.571 31.7423 23.7699 31.7415 23.9688C31.7423 24.0615 31.7432 24.1542 31.744 24.2497C31.7357 24.8139 31.6715 25.1564 31.2813 25.5938C30.7641 26.0552 30.3165 26.0599 29.6563 26.054C29.511 26.0546 29.511 26.0546 29.3627 26.0552C29.1585 26.0555 28.9543 26.0547 28.7502 26.053C28.4385 26.0508 28.1271 26.053 27.8155 26.0556C27.6166 26.0553 27.4177 26.0548 27.2188 26.054C27.1261 26.0548 27.0334 26.0557 26.9379 26.0565C26.3737 26.0482 26.0312 25.984 25.5938 25.5938C25.1324 25.0766 25.1277 24.629 25.1336 23.9688C25.1332 23.8719 25.1328 23.775 25.1324 23.6752C25.1321 23.471 25.1329 23.2668 25.1346 23.0627C25.1368 22.751 25.1346 22.4396 25.132 22.128C25.1323 21.9291 25.1328 21.7302 25.1336 21.5313C25.1328 21.4386 25.132 21.3459 25.1311 21.2504C25.1394 20.6862 25.2036 20.3437 25.5938 19.9063C26.111 19.4449 26.5586 19.4402 27.2188 19.4461ZM26.8126 21.1251C26.8126 22.1976 26.8126 23.2701 26.8126 24.3751C27.8851 24.3751 28.9576 24.3751 30.0626 24.3751C30.0626 23.3026 30.0626 22.2301 30.0626 21.1251C28.9901 21.1251 27.9176 21.1251 26.8126 21.1251Z" fill="black"/>
<path d="M17.4688 19.4461C17.5657 19.4457 17.6626 19.4453 17.7624 19.4449C17.9666 19.4446 18.1708 19.4454 18.3749 19.4471C18.6866 19.4493 18.998 19.4471 19.3096 19.4445C19.5085 19.4448 19.7074 19.4453 19.9063 19.4461C20.0453 19.4449 20.0453 19.4449 20.1872 19.4436C20.7514 19.4519 21.0939 19.5161 21.5313 19.9063C21.9927 20.4235 21.9974 20.8711 21.9915 21.5313C21.9921 21.6766 21.9921 21.6766 21.9927 21.8249C21.993 22.0291 21.9922 22.2333 21.9905 22.4374C21.9883 22.7491 21.9905 23.0605 21.9931 23.3721C21.9928 23.571 21.9923 23.7699 21.9915 23.9688C21.9923 24.0615 21.9932 24.1542 21.994 24.2497C21.9857 24.8139 21.9215 25.1564 21.5313 25.5938C21.0141 26.0552 20.5665 26.0599 19.9063 26.054C19.761 26.0546 19.761 26.0546 19.6127 26.0552C19.4085 26.0555 19.2043 26.0547 19.0002 26.053C18.6885 26.0508 18.3771 26.053 18.0655 26.0556C17.8666 26.0553 17.6677 26.0548 17.4688 26.054C17.3761 26.0548 17.2834 26.0557 17.1879 26.0565C16.6237 26.0482 16.2812 25.984 15.8438 25.5938C15.3824 25.0766 15.3777 24.629 15.3836 23.9688C15.3832 23.8719 15.3828 23.775 15.3824 23.6752C15.3821 23.471 15.3829 23.2668 15.3846 23.0627C15.3868 22.751 15.3846 22.4396 15.382 22.128C15.3823 21.9291 15.3828 21.7302 15.3836 21.5313C15.3828 21.4386 15.382 21.3459 15.3811 21.2504C15.3894 20.6862 15.4536 20.3437 15.8438 19.9063C16.361 19.4449 16.8086 19.4402 17.4688 19.4461ZM17.0626 21.1251C17.0626 22.1976 17.0626 23.2701 17.0626 24.3751C18.1351 24.3751 19.2076 24.3751 20.3126 24.3751C20.3126 23.3026 20.3126 22.2301 20.3126 21.1251C19.2401 21.1251 18.1676 21.1251 17.0626 21.1251Z" fill="black"/>
<path d="M7.7188 19.4461C7.81568 19.4457 7.91256 19.4453 8.01238 19.4449C8.21656 19.4446 8.42075 19.4454 8.62493 19.4471C8.93657 19.4493 9.24798 19.4471 9.55962 19.4445C9.75851 19.4448 9.95741 19.4453 10.1563 19.4461C10.2953 19.4449 10.2953 19.4449 10.4372 19.4436C11.0014 19.4519 11.3439 19.5161 11.7813 19.9063C12.2427 20.4235 12.2474 20.8711 12.2415 21.5313C12.2421 21.6766 12.2421 21.6766 12.2427 21.8249C12.243 22.0291 12.2422 22.2333 12.2405 22.4374C12.2383 22.7491 12.2405 23.0605 12.2431 23.3721C12.2428 23.571 12.2423 23.7699 12.2415 23.9688C12.2423 24.0615 12.2432 24.1542 12.244 24.2497C12.2357 24.8139 12.1715 25.1564 11.7813 25.5938C11.2641 26.0552 10.8165 26.0599 10.1563 26.054C10.011 26.0546 10.011 26.0546 9.86272 26.0552C9.65854 26.0555 9.45435 26.0547 9.25017 26.053C8.93853 26.0508 8.62712 26.053 8.31548 26.0556C8.11659 26.0553 7.91769 26.0548 7.7188 26.054C7.62611 26.0548 7.53342 26.0557 7.43792 26.0565C6.87372 26.0482 6.53119 25.984 6.0938 25.5938C5.63242 25.0766 5.62774 24.629 5.6336 23.9688C5.63321 23.8719 5.63282 23.775 5.63242 23.6752C5.63214 23.471 5.63289 23.2668 5.63459 23.0627C5.63676 22.751 5.63461 22.4396 5.63201 22.128C5.63228 21.9291 5.6328 21.7302 5.6336 21.5313C5.63277 21.4386 5.63195 21.3459 5.6311 21.2504C5.63936 20.6862 5.7036 20.3437 6.0938 19.9063C6.61098 19.4449 7.05862 19.4402 7.7188 19.4461ZM7.31255 21.1251C7.31255 22.1976 7.31255 23.2701 7.31255 24.3751C8.38505 24.3751 9.45755 24.3751 10.5626 24.3751C10.5626 23.3026 10.5626 22.2301 10.5626 21.1251C9.49005 21.1251 8.41755 21.1251 7.31255 21.1251Z" fill="black"/>
<path d="M17.3649 28.3801C17.4509 28.3794 17.537 28.3788 17.6257 28.3781C17.8069 28.3774 17.988 28.3777 18.1691 28.379C18.4463 28.3805 18.7231 28.377 19.0002 28.3731C19.1766 28.373 19.353 28.3732 19.5294 28.3737C19.612 28.3724 19.6947 28.371 19.7798 28.3696C20.186 28.3763 20.3714 28.397 20.6708 28.6819C20.9074 29.0987 20.8301 29.298 20.7188 29.7579C20.6082 29.933 20.6082 29.933 20.4141 30.0626C20.1513 30.0891 19.9135 30.0981 19.6512 30.0923C19.5772 30.0919 19.5033 30.0915 19.4271 30.091C19.1911 30.0893 18.9552 30.0855 18.7193 30.0816C18.5592 30.0801 18.3991 30.0787 18.239 30.0775C17.8468 30.0744 17.4548 30.0684 17.0626 30.0626C17.0626 31.1351 17.0626 32.2076 17.0626 33.3126C17.4647 33.3126 17.8669 33.3126 18.2813 33.3126C18.6876 33.7188 18.6876 33.7188 18.7415 33.922C18.7405 33.989 18.7394 34.056 18.7383 34.1251C18.7394 34.1921 18.7404 34.2591 18.7415 34.3282C18.6583 34.6416 18.5468 34.7501 18.2813 34.9376C17.9796 34.9972 17.6866 34.9943 17.3799 34.9884C17.2997 34.9899 17.2194 34.9915 17.1367 34.9931C16.592 34.9895 16.2672 34.9016 15.8438 34.5313C15.3928 33.9985 15.3777 33.5734 15.3836 32.9063C15.3832 32.8095 15.3828 32.7126 15.3824 32.6128C15.3821 32.4086 15.3829 32.2044 15.3846 32.0002C15.3868 31.6886 15.3846 31.3772 15.382 31.0655C15.3823 30.8666 15.3828 30.6677 15.3836 30.4688C15.3828 30.3761 15.382 30.2834 15.3811 30.1879C15.3894 29.6238 15.4536 29.2812 15.8438 28.8438C16.34 28.4121 16.7363 28.3762 17.3649 28.3801Z" fill="black"/>
<path d="M17.3799 37.3241C17.461 37.3225 17.542 37.321 17.6255 37.3193C18.0095 37.3219 18.218 37.3302 18.5376 37.5558C18.6953 37.7927 18.7427 37.9062 18.7383 38.1874C18.7394 38.2544 18.7404 38.3214 18.7415 38.3905C18.6876 38.5936 18.6876 38.5936 18.2813 38.9999C17.8791 38.9999 17.4769 38.9999 17.0626 38.9999C17.0626 40.0724 17.0626 41.1449 17.0626 42.2499C17.4647 42.2499 17.8669 42.2499 18.2813 42.2499C18.6876 42.6561 18.6876 42.6561 18.7415 42.8593C18.7405 42.9263 18.7394 42.9933 18.7383 43.0624C18.7394 43.1294 18.7404 43.1964 18.7415 43.2655C18.6583 43.5789 18.5468 43.6874 18.2813 43.8749C17.9796 43.9345 17.6866 43.9316 17.3799 43.9257C17.2997 43.9272 17.2194 43.9288 17.1367 43.9304C16.592 43.9268 16.2672 43.8389 15.8438 43.4686C15.3928 42.9358 15.3777 42.5107 15.3836 41.8436C15.3832 41.7467 15.3828 41.6499 15.3824 41.55C15.3821 41.3459 15.3829 41.1417 15.3846 40.9375C15.3868 40.6259 15.3846 40.3144 15.382 40.0028C15.3823 39.8039 15.3828 39.605 15.3836 39.4061C15.3828 39.3134 15.382 39.2207 15.3811 39.1252C15.3894 38.5589 15.4645 38.2292 15.8438 37.7811C16.3424 37.345 16.7469 37.3117 17.3799 37.3241Z" fill="black"/>
<path d="M26.9648 12.1334C27.0717 12.1329 27.1785 12.1324 27.2886 12.1318C27.3996 12.1334 27.5106 12.135 27.625 12.1366C27.7915 12.1342 27.7915 12.1342 27.9614 12.1318C28.0683 12.1324 28.1751 12.1329 28.2852 12.1334C28.4313 12.1341 28.4313 12.1341 28.5803 12.1348C28.9162 12.2018 29.0376 12.3307 29.25 12.5936C29.304 12.7968 29.304 12.7968 29.3008 12.9999C29.3018 13.0669 29.3029 13.1339 29.304 13.203C29.2252 13.4994 29.0783 13.6187 28.8438 13.8124C28.5803 13.8649 28.5803 13.8649 28.2852 13.8663C28.1783 13.8669 28.0715 13.8674 27.9614 13.8679C27.8504 13.8663 27.7394 13.8648 27.625 13.8632C27.4585 13.8655 27.4585 13.8655 27.2886 13.8679C27.1817 13.8674 27.0749 13.8669 26.9648 13.8663C26.8674 13.8659 26.77 13.8654 26.6697 13.8649C26.3338 13.7979 26.2124 13.6691 26 13.4061C25.946 13.203 25.946 13.203 25.9492 12.9999C25.9476 12.8993 25.9476 12.8993 25.946 12.7968C26.0861 12.2695 26.463 12.1358 26.9648 12.1334Z" fill="black"/>
<path d="M22.0898 12.1334C22.1967 12.1329 22.3035 12.1324 22.4136 12.1318C22.5246 12.1334 22.6356 12.135 22.75 12.1366C22.9165 12.1342 22.9165 12.1342 23.0864 12.1318C23.1933 12.1324 23.3001 12.1329 23.4102 12.1334C23.5563 12.1341 23.5563 12.1341 23.7053 12.1348C24.0412 12.2018 24.1626 12.3307 24.375 12.5936C24.429 12.7968 24.429 12.7968 24.4258 12.9999C24.4268 13.0669 24.4279 13.1339 24.429 13.203C24.3502 13.4994 24.2033 13.6187 23.9688 13.8124C23.7053 13.8649 23.7053 13.8649 23.4102 13.8663C23.3033 13.8669 23.1965 13.8674 23.0864 13.8679C22.9754 13.8663 22.8644 13.8648 22.75 13.8632C22.5835 13.8655 22.5835 13.8655 22.4136 13.8679C22.3067 13.8674 22.1999 13.8669 22.0898 13.8663C21.9924 13.8659 21.895 13.8654 21.7947 13.8649C21.4588 13.7979 21.3374 13.6691 21.125 13.4061C21.071 13.203 21.071 13.203 21.0742 12.9999C21.0726 12.8993 21.0726 12.8993 21.071 12.7968C21.2111 12.2695 21.588 12.1358 22.0898 12.1334Z" fill="black"/>
<path d="M17.2148 12.1334C17.3217 12.1329 17.4285 12.1324 17.5386 12.1318C17.6496 12.1334 17.7606 12.135 17.875 12.1366C18.0415 12.1342 18.0415 12.1342 18.2114 12.1318C18.3183 12.1324 18.4251 12.1329 18.5352 12.1334C18.6813 12.1341 18.6813 12.1341 18.8303 12.1348C19.1662 12.2018 19.2876 12.3307 19.5 12.5936C19.554 12.7968 19.554 12.7968 19.5508 12.9999C19.5518 13.0669 19.5529 13.1339 19.554 13.203C19.4752 13.4994 19.3283 13.6187 19.0938 13.8124C18.8303 13.8649 18.8303 13.8649 18.5352 13.8663C18.4283 13.8669 18.3215 13.8674 18.2114 13.8679C18.1004 13.8663 17.9894 13.8648 17.875 13.8632C17.7085 13.8655 17.7085 13.8655 17.5386 13.8679C17.4317 13.8674 17.3249 13.8669 17.2148 13.8663C17.1174 13.8659 17.02 13.8654 16.9197 13.8649C16.5838 13.7979 16.4624 13.6691 16.25 13.4061C16.196 13.203 16.196 13.203 16.1992 12.9999C16.1976 12.8993 16.1976 12.8993 16.196 12.7968C16.3361 12.2695 16.713 12.1358 17.2148 12.1334Z" fill="black"/>
</g>
<defs>
<clipPath id="clip0_2472_4135">
<rect width="52" height="52" fill="white"/>
</clipPath>
</defs>
</svg>
