<svg width="377" height="180" viewBox="0 0 377 180" fill="none" xmlns="http://www.w3.org/2000/svg">
<path d="M232.5 43C232.5 38.8579 229.142 35.5 225 35.5H71C66.8579 35.5 63.5 38.8579 63.5 43V63C63.5 67.1421 66.8579 70.5 71 70.5H232.5V43Z" fill="#EFF6FF" stroke="#CFE4FF"/>
<path d="M85.3799 50.8613L83.5146 58H82.2354L81.0439 53.7227C81.0146 53.6185 80.9821 53.4948 80.9463 53.3516C80.9105 53.2083 80.8747 53.0618 80.8389 52.9121C80.8063 52.7624 80.777 52.6257 80.751 52.502C80.7282 52.375 80.7119 52.2773 80.7021 52.209C80.6956 52.2773 80.681 52.3734 80.6582 52.4971C80.6354 52.6208 80.6077 52.7575 80.5752 52.9072C80.5459 53.0537 80.5133 53.2002 80.4775 53.3467C80.4417 53.4899 80.4092 53.6169 80.3799 53.7275L79.208 58H77.9336L76.0732 50.8613H77.25L78.2803 55.0459C78.3128 55.1794 78.3454 55.3242 78.3779 55.4805C78.4137 55.6335 78.4463 55.7881 78.4756 55.9443C78.5081 56.1006 78.5374 56.2536 78.5635 56.4033C78.5895 56.5498 78.6107 56.6833 78.627 56.8037C78.6432 56.68 78.6644 56.5433 78.6904 56.3936C78.7165 56.2406 78.7441 56.0859 78.7734 55.9297C78.806 55.7702 78.8385 55.6172 78.8711 55.4707C78.9069 55.3242 78.9427 55.1924 78.9785 55.0752L80.1406 50.8613H81.2832L82.4697 55.0898C82.5055 55.2103 82.5397 55.3454 82.5723 55.4951C82.6081 55.6449 82.6423 55.7979 82.6748 55.9541C82.7074 56.1104 82.7367 56.2617 82.7627 56.4082C82.7887 56.5547 82.8099 56.6865 82.8262 56.8037C82.849 56.6442 82.8783 56.4619 82.9141 56.2568C82.9499 56.0518 82.9906 55.8434 83.0361 55.6318C83.0817 55.4202 83.1273 55.2249 83.1729 55.0459L84.1982 50.8613H85.3799ZM87.4209 50.4023V52.3115C87.4209 52.5101 87.4144 52.7038 87.4014 52.8926C87.3916 53.0814 87.3802 53.2279 87.3672 53.332H87.4307C87.5446 53.1432 87.6846 52.9886 87.8506 52.8682C88.0166 52.7445 88.2021 52.6517 88.4072 52.5898C88.6156 52.528 88.8369 52.4971 89.0713 52.4971C89.4847 52.4971 89.8363 52.5671 90.126 52.707C90.4157 52.8438 90.637 53.057 90.79 53.3467C90.9463 53.6364 91.0244 54.0124 91.0244 54.4746V58H89.877V54.6895C89.877 54.2695 89.7907 53.9554 89.6182 53.7471C89.4456 53.5355 89.1787 53.4297 88.8174 53.4297C88.4691 53.4297 88.1924 53.5029 87.9873 53.6494C87.7855 53.7926 87.6406 54.0059 87.5527 54.2891C87.4648 54.569 87.4209 54.9108 87.4209 55.3145V58H86.2734V50.4023H87.4209ZM94.75 52.4922C95.4336 52.4922 95.9495 52.6436 96.2979 52.9463C96.6494 53.249 96.8252 53.721 96.8252 54.3623V58H96.0098L95.79 57.2334H95.751C95.598 57.4287 95.4401 57.5898 95.2773 57.7168C95.1146 57.8438 94.9258 57.9382 94.7109 58C94.4993 58.0651 94.2406 58.0977 93.9346 58.0977C93.6123 58.0977 93.3242 58.0391 93.0703 57.9219C92.8164 57.8014 92.6162 57.6191 92.4697 57.375C92.3232 57.1309 92.25 56.8216 92.25 56.4473C92.25 55.8906 92.4567 55.4723 92.8701 55.1924C93.2868 54.9124 93.915 54.7578 94.7549 54.7285L95.6924 54.6943V54.4111C95.6924 54.0368 95.6045 53.7699 95.4287 53.6104C95.2562 53.4508 95.012 53.3711 94.6963 53.3711C94.4261 53.3711 94.1641 53.4102 93.9102 53.4883C93.6562 53.5664 93.4089 53.6624 93.168 53.7764L92.7969 52.9658C93.0605 52.8258 93.36 52.7119 93.6953 52.624C94.0339 52.5361 94.3854 52.4922 94.75 52.4922ZM95.6875 55.417L94.9893 55.4414C94.4163 55.4609 94.0143 55.5586 93.7832 55.7344C93.5521 55.9102 93.4365 56.151 93.4365 56.457C93.4365 56.724 93.5163 56.9193 93.6758 57.043C93.8353 57.1634 94.0452 57.2236 94.3057 57.2236C94.7028 57.2236 95.0316 57.1113 95.292 56.8867C95.5557 56.6589 95.6875 56.3252 95.6875 55.8857V55.417ZM100.443 57.1699C100.593 57.1699 100.741 57.1569 100.888 57.1309C101.034 57.1016 101.168 57.0674 101.288 57.0283V57.8975C101.161 57.9528 100.997 58 100.795 58.0391C100.593 58.0781 100.383 58.0977 100.165 58.0977C99.859 58.0977 99.584 58.0472 99.3398 57.9463C99.0957 57.8421 98.902 57.6647 98.7588 57.4141C98.6156 57.1634 98.5439 56.8167 98.5439 56.374V53.4688H97.8066V52.9561L98.5977 52.5508L98.9736 51.3936H99.6963V52.5947H101.244V53.4688H99.6963V56.3594C99.6963 56.6328 99.7646 56.8363 99.9014 56.9697C100.038 57.1032 100.219 57.1699 100.443 57.1699ZM108.417 60.3975V58.1025C108.417 57.9723 108.42 57.8307 108.427 57.6777C108.437 57.5247 108.451 57.3848 108.471 57.2578H108.412C108.266 57.4954 108.062 57.6956 107.802 57.8584C107.541 58.0179 107.201 58.0977 106.781 58.0977C106.146 58.0977 105.635 57.8633 105.248 57.3945C104.861 56.9225 104.667 56.2259 104.667 55.3047C104.667 54.6927 104.757 54.1784 104.936 53.7617C105.115 53.3451 105.365 53.0293 105.688 52.8145C106.013 52.5996 106.391 52.4922 106.82 52.4922C107.234 52.4922 107.569 52.5736 107.826 52.7363C108.087 52.8958 108.295 53.0928 108.451 53.3271H108.49L108.617 52.5947H109.569V60.3975H108.417ZM107.123 57.1748C107.449 57.1748 107.709 57.113 107.904 56.9893C108.1 56.8656 108.241 56.6784 108.329 56.4277C108.417 56.1738 108.464 55.8597 108.471 55.4854V55.3096C108.471 54.6976 108.371 54.2321 108.173 53.9131C107.974 53.5941 107.621 53.4346 107.113 53.4346C106.684 53.4346 106.365 53.6022 106.156 53.9375C105.948 54.2695 105.844 54.7318 105.844 55.3242C105.844 55.9232 105.948 56.3822 106.156 56.7012C106.368 57.0169 106.69 57.1748 107.123 57.1748ZM115.927 52.5947V58H115.023L114.867 57.2725H114.804C114.69 57.458 114.545 57.6126 114.369 57.7363C114.193 57.8568 113.998 57.9463 113.783 58.0049C113.568 58.0667 113.342 58.0977 113.104 58.0977C112.698 58.0977 112.349 58.0293 112.06 57.8926C111.773 57.7526 111.553 57.5378 111.4 57.248C111.247 56.9583 111.171 56.584 111.171 56.125V52.5947H112.323V55.9102C112.323 56.3301 112.408 56.6442 112.577 56.8525C112.75 57.0609 113.017 57.165 113.378 57.165C113.726 57.165 114.003 57.0934 114.208 56.9502C114.413 56.807 114.558 56.5954 114.643 56.3154C114.73 56.0355 114.774 55.6921 114.774 55.2852V52.5947H115.927ZM119.726 52.4922C120.207 52.4922 120.621 52.5915 120.966 52.79C121.311 52.9886 121.576 53.2702 121.762 53.6348C121.947 53.9993 122.04 54.4355 122.04 54.9434V55.5586H118.432C118.445 56.0827 118.585 56.4863 118.852 56.7695C119.122 57.0527 119.499 57.1943 119.984 57.1943C120.329 57.1943 120.639 57.1618 120.912 57.0967C121.189 57.0283 121.474 56.929 121.767 56.7988V57.7314C121.496 57.8584 121.221 57.9512 120.941 58.0098C120.661 58.0684 120.326 58.0977 119.936 58.0977C119.405 58.0977 118.938 57.9951 118.534 57.79C118.134 57.5817 117.82 57.2725 117.592 56.8623C117.367 56.4521 117.255 55.9427 117.255 55.334C117.255 54.7285 117.357 54.2142 117.562 53.791C117.768 53.3678 118.056 53.0456 118.427 52.8242C118.798 52.6029 119.231 52.4922 119.726 52.4922ZM119.726 53.3564C119.364 53.3564 119.071 53.4736 118.847 53.708C118.625 53.9424 118.495 54.2858 118.456 54.7383H120.917C120.914 54.4681 120.868 54.2288 120.78 54.0205C120.696 53.8122 120.565 53.6494 120.39 53.5322C120.217 53.415 119.996 53.3564 119.726 53.3564ZM126.967 56.457C126.967 56.8118 126.881 57.1113 126.708 57.3555C126.535 57.5996 126.283 57.7852 125.951 57.9121C125.622 58.0358 125.219 58.0977 124.74 58.0977C124.363 58.0977 124.037 58.07 123.764 58.0146C123.493 57.9626 123.238 57.8812 122.997 57.7705V56.7793C123.254 56.8997 123.542 57.0039 123.861 57.0918C124.184 57.1797 124.488 57.2236 124.774 57.2236C125.152 57.2236 125.424 57.165 125.59 57.0479C125.756 56.9274 125.839 56.7679 125.839 56.5693C125.839 56.4521 125.805 56.348 125.736 56.2568C125.671 56.1624 125.548 56.0664 125.365 55.9688C125.186 55.8678 124.923 55.7474 124.574 55.6074C124.232 55.4707 123.944 55.334 123.71 55.1973C123.476 55.0605 123.298 54.8962 123.178 54.7041C123.057 54.5088 122.997 54.2598 122.997 53.957C122.997 53.4785 123.186 53.1156 123.563 52.8682C123.944 52.6175 124.447 52.4922 125.072 52.4922C125.404 52.4922 125.717 52.5264 126.01 52.5947C126.306 52.6598 126.596 52.7559 126.879 52.8828L126.518 53.7471C126.273 53.6396 126.028 53.5518 125.78 53.4834C125.536 53.4118 125.287 53.376 125.033 53.376C124.737 53.376 124.511 53.4215 124.354 53.5127C124.201 53.6038 124.125 53.734 124.125 53.9033C124.125 54.0303 124.162 54.1377 124.237 54.2256C124.312 54.3135 124.441 54.4014 124.623 54.4893C124.809 54.5771 125.066 54.6862 125.395 54.8164C125.717 54.9401 125.995 55.0703 126.229 55.207C126.467 55.3405 126.649 55.5049 126.776 55.7002C126.903 55.8955 126.967 56.1478 126.967 56.457ZM130.219 57.1699C130.368 57.1699 130.517 57.1569 130.663 57.1309C130.81 57.1016 130.943 57.0674 131.063 57.0283V57.8975C130.937 57.9528 130.772 58 130.57 58.0391C130.368 58.0781 130.159 58.0977 129.94 58.0977C129.634 58.0977 129.359 58.0472 129.115 57.9463C128.871 57.8421 128.677 57.6647 128.534 57.4141C128.391 57.1634 128.319 56.8167 128.319 56.374V53.4688H127.582V52.9561L128.373 52.5508L128.749 51.3936H129.472V52.5947H131.02V53.4688H129.472V56.3594C129.472 56.6328 129.54 56.8363 129.677 56.9697C129.813 57.1032 129.994 57.1699 130.219 57.1699ZM133.31 52.5947V58H132.162V52.5947H133.31ZM132.743 50.5244C132.919 50.5244 133.07 50.5716 133.197 50.666C133.327 50.7604 133.393 50.9232 133.393 51.1543C133.393 51.3822 133.327 51.5449 133.197 51.6426C133.07 51.737 132.919 51.7842 132.743 51.7842C132.561 51.7842 132.406 51.737 132.279 51.6426C132.156 51.5449 132.094 51.3822 132.094 51.1543C132.094 50.9232 132.156 50.7604 132.279 50.666C132.406 50.5716 132.561 50.5244 132.743 50.5244ZM139.74 55.2852C139.74 55.7344 139.682 56.1331 139.564 56.4814C139.447 56.8298 139.276 57.1243 139.052 57.3652C138.827 57.6029 138.557 57.7852 138.241 57.9121C137.925 58.0358 137.569 58.0977 137.172 58.0977C136.801 58.0977 136.461 58.0358 136.151 57.9121C135.842 57.7852 135.574 57.6029 135.346 57.3652C135.121 57.1243 134.947 56.8298 134.823 56.4814C134.7 56.1331 134.638 55.7344 134.638 55.2852C134.638 54.6895 134.74 54.1849 134.945 53.7715C135.154 53.3548 135.45 53.0374 135.834 52.8193C136.218 52.6012 136.675 52.4922 137.206 52.4922C137.704 52.4922 138.144 52.6012 138.524 52.8193C138.905 53.0374 139.203 53.3548 139.418 53.7715C139.633 54.1882 139.74 54.6927 139.74 55.2852ZM135.819 55.2852C135.819 55.679 135.867 56.016 135.961 56.2959C136.059 56.5758 136.208 56.7907 136.41 56.9404C136.612 57.0869 136.872 57.1602 137.191 57.1602C137.51 57.1602 137.771 57.0869 137.973 56.9404C138.174 56.7907 138.323 56.5758 138.417 56.2959C138.511 56.016 138.559 55.679 138.559 55.2852C138.559 54.8913 138.511 54.5576 138.417 54.2842C138.323 54.0075 138.174 53.7975 137.973 53.6543C137.771 53.5078 137.509 53.4346 137.187 53.4346C136.711 53.4346 136.365 53.5941 136.146 53.9131C135.928 54.2321 135.819 54.6895 135.819 55.2852ZM143.876 52.4922C144.485 52.4922 144.958 52.6501 145.297 52.9658C145.639 53.2783 145.81 53.7812 145.81 54.4746V58H144.662V54.6895C144.662 54.2695 144.576 53.9554 144.403 53.7471C144.231 53.5355 143.964 53.4297 143.603 53.4297C143.078 53.4297 142.714 53.5908 142.509 53.9131C142.307 54.2354 142.206 54.7025 142.206 55.3145V58H141.059V52.5947H141.952L142.113 53.3271H142.177C142.294 53.1383 142.439 52.9837 142.611 52.8633C142.787 52.7396 142.982 52.6468 143.197 52.585C143.415 52.5231 143.642 52.4922 143.876 52.4922ZM151.049 56.457C151.049 56.8118 150.963 57.1113 150.79 57.3555C150.618 57.5996 150.365 57.7852 150.033 57.9121C149.704 58.0358 149.301 58.0977 148.822 58.0977C148.445 58.0977 148.119 58.07 147.846 58.0146C147.576 57.9626 147.32 57.8812 147.079 57.7705V56.7793C147.336 56.8997 147.624 57.0039 147.943 57.0918C148.266 57.1797 148.57 57.2236 148.856 57.2236C149.234 57.2236 149.506 57.165 149.672 57.0479C149.838 56.9274 149.921 56.7679 149.921 56.5693C149.921 56.4521 149.887 56.348 149.818 56.2568C149.753 56.1624 149.63 56.0664 149.447 55.9688C149.268 55.8678 149.005 55.7474 148.656 55.6074C148.314 55.4707 148.026 55.334 147.792 55.1973C147.558 55.0605 147.38 54.8962 147.26 54.7041C147.139 54.5088 147.079 54.2598 147.079 53.957C147.079 53.4785 147.268 53.1156 147.646 52.8682C148.026 52.6175 148.529 52.4922 149.154 52.4922C149.486 52.4922 149.799 52.5264 150.092 52.5947C150.388 52.6598 150.678 52.7559 150.961 52.8828L150.6 53.7471C150.355 53.6396 150.11 53.5518 149.862 53.4834C149.618 53.4118 149.369 53.376 149.115 53.376C148.819 53.376 148.593 53.4215 148.437 53.5127C148.284 53.6038 148.207 53.734 148.207 53.9033C148.207 54.0303 148.244 54.1377 148.319 54.2256C148.394 54.3135 148.523 54.4014 148.705 54.4893C148.891 54.5771 149.148 54.6862 149.477 54.8164C149.799 54.9401 150.077 55.0703 150.312 55.207C150.549 55.3405 150.731 55.5049 150.858 55.7002C150.985 55.8955 151.049 56.1478 151.049 56.457ZM156.703 58.0977C156.059 58.0977 155.541 57.8633 155.15 57.3945C154.763 56.9225 154.569 56.2275 154.569 55.3096C154.569 54.3818 154.766 53.6803 155.16 53.2051C155.557 52.7298 156.08 52.4922 156.728 52.4922C157.001 52.4922 157.24 52.5296 157.445 52.6045C157.65 52.6761 157.826 52.7738 157.973 52.8975C158.122 53.0212 158.249 53.1595 158.354 53.3125H158.407C158.391 53.2116 158.371 53.0667 158.349 52.8779C158.329 52.6859 158.319 52.5085 158.319 52.3457V50.4023H159.472V58H158.573L158.368 57.2627H158.319C158.222 57.4189 158.098 57.5605 157.948 57.6875C157.802 57.8112 157.626 57.9105 157.421 57.9854C157.219 58.0602 156.98 58.0977 156.703 58.0977ZM157.025 57.165C157.517 57.165 157.864 57.0234 158.065 56.7402C158.267 56.457 158.371 56.0322 158.378 55.4658V55.3145C158.378 54.709 158.28 54.2451 158.085 53.9229C157.89 53.5973 157.533 53.4346 157.016 53.4346C156.602 53.4346 156.286 53.6022 156.068 53.9375C155.854 54.2695 155.746 54.7334 155.746 55.3291C155.746 55.9248 155.854 56.3805 156.068 56.6963C156.286 57.0088 156.605 57.165 157.025 57.165ZM165.902 55.2852C165.902 55.7344 165.844 56.1331 165.727 56.4814C165.609 56.8298 165.438 57.1243 165.214 57.3652C164.989 57.6029 164.719 57.7852 164.403 57.9121C164.088 58.0358 163.731 58.0977 163.334 58.0977C162.963 58.0977 162.623 58.0358 162.313 57.9121C162.004 57.7852 161.736 57.6029 161.508 57.3652C161.283 57.1243 161.109 56.8298 160.985 56.4814C160.862 56.1331 160.8 55.7344 160.8 55.2852C160.8 54.6895 160.902 54.1849 161.107 53.7715C161.316 53.3548 161.612 53.0374 161.996 52.8193C162.38 52.6012 162.838 52.4922 163.368 52.4922C163.866 52.4922 164.306 52.6012 164.687 52.8193C165.067 53.0374 165.365 53.3548 165.58 53.7715C165.795 54.1882 165.902 54.6927 165.902 55.2852ZM161.981 55.2852C161.981 55.679 162.029 56.016 162.123 56.2959C162.221 56.5758 162.37 56.7907 162.572 56.9404C162.774 57.0869 163.035 57.1602 163.354 57.1602C163.673 57.1602 163.933 57.0869 164.135 56.9404C164.337 56.7907 164.485 56.5758 164.579 56.2959C164.674 56.016 164.721 55.679 164.721 55.2852C164.721 54.8913 164.674 54.5576 164.579 54.2842C164.485 54.0075 164.337 53.7975 164.135 53.6543C163.933 53.5078 163.671 53.4346 163.349 53.4346C162.873 53.4346 162.527 53.5941 162.309 53.9131C162.09 54.2321 161.981 54.6895 161.981 55.2852ZM169.003 52.5947H170.253L171.361 55.6807C171.41 55.8206 171.454 55.959 171.493 56.0957C171.535 56.2292 171.571 56.361 171.601 56.4912C171.633 56.6214 171.659 56.7516 171.679 56.8818H171.708C171.741 56.7126 171.786 56.5238 171.845 56.3154C171.907 56.1038 171.975 55.8923 172.05 55.6807L173.114 52.5947H174.35L172.03 58.7422C171.897 59.0938 171.732 59.3932 171.537 59.6406C171.345 59.8913 171.117 60.0801 170.854 60.207C170.59 60.3372 170.289 60.4023 169.95 60.4023C169.787 60.4023 169.646 60.3926 169.525 60.373C169.405 60.3568 169.302 60.3389 169.218 60.3193V59.4014C169.286 59.4176 169.372 59.4323 169.477 59.4453C169.581 59.4583 169.688 59.4648 169.799 59.4648C170.004 59.4648 170.181 59.4242 170.331 59.3428C170.481 59.2614 170.608 59.1458 170.712 58.9961C170.816 58.8496 170.902 58.682 170.971 58.4932L171.161 57.9854L169.003 52.5947ZM179.955 55.2852C179.955 55.7344 179.896 56.1331 179.779 56.4814C179.662 56.8298 179.491 57.1243 179.267 57.3652C179.042 57.6029 178.772 57.7852 178.456 57.9121C178.14 58.0358 177.784 58.0977 177.387 58.0977C177.016 58.0977 176.675 58.0358 176.366 57.9121C176.057 57.7852 175.788 57.6029 175.561 57.3652C175.336 57.1243 175.162 56.8298 175.038 56.4814C174.914 56.1331 174.853 55.7344 174.853 55.2852C174.853 54.6895 174.955 54.1849 175.16 53.7715C175.368 53.3548 175.665 53.0374 176.049 52.8193C176.433 52.6012 176.89 52.4922 177.421 52.4922C177.919 52.4922 178.358 52.6012 178.739 52.8193C179.12 53.0374 179.418 53.3548 179.633 53.7715C179.848 54.1882 179.955 54.6927 179.955 55.2852ZM176.034 55.2852C176.034 55.679 176.081 56.016 176.176 56.2959C176.273 56.5758 176.423 56.7907 176.625 56.9404C176.827 57.0869 177.087 57.1602 177.406 57.1602C177.725 57.1602 177.986 57.0869 178.188 56.9404C178.389 56.7907 178.537 56.5758 178.632 56.2959C178.726 56.016 178.773 55.679 178.773 55.2852C178.773 54.8913 178.726 54.5576 178.632 54.2842C178.537 54.0075 178.389 53.7975 178.188 53.6543C177.986 53.5078 177.724 53.4346 177.401 53.4346C176.926 53.4346 176.579 53.5941 176.361 53.9131C176.143 54.2321 176.034 54.6895 176.034 55.2852ZM185.985 52.5947V58H185.082L184.926 57.2725H184.862C184.748 57.458 184.604 57.6126 184.428 57.7363C184.252 57.8568 184.057 57.9463 183.842 58.0049C183.627 58.0667 183.401 58.0977 183.163 58.0977C182.756 58.0977 182.408 58.0293 182.118 57.8926C181.832 57.7526 181.612 57.5378 181.459 57.248C181.306 56.9583 181.229 56.584 181.229 56.125V52.5947H182.382V55.9102C182.382 56.3301 182.466 56.6442 182.636 56.8525C182.808 57.0609 183.075 57.165 183.437 57.165C183.785 57.165 184.062 57.0934 184.267 56.9502C184.472 56.807 184.617 56.5954 184.701 56.3154C184.789 56.0355 184.833 55.6921 184.833 55.2852V52.5947H185.985ZM191.376 50.4023V52.3115C191.376 52.5101 191.369 52.7038 191.356 52.8926C191.347 53.0814 191.335 53.2279 191.322 53.332H191.386C191.5 53.1432 191.64 52.9886 191.806 52.8682C191.972 52.7445 192.157 52.6517 192.362 52.5898C192.571 52.528 192.792 52.4971 193.026 52.4971C193.44 52.4971 193.791 52.5671 194.081 52.707C194.371 52.8438 194.592 53.057 194.745 53.3467C194.901 53.6364 194.979 54.0124 194.979 54.4746V58H193.832V54.6895C193.832 54.2695 193.746 53.9554 193.573 53.7471C193.401 53.5355 193.134 53.4297 192.772 53.4297C192.424 53.4297 192.147 53.5029 191.942 53.6494C191.741 53.7926 191.596 54.0059 191.508 54.2891C191.42 54.569 191.376 54.9108 191.376 55.3145V58H190.229V50.4023H191.376ZM198.705 52.4922C199.389 52.4922 199.905 52.6436 200.253 52.9463C200.604 53.249 200.78 53.721 200.78 54.3623V58H199.965L199.745 57.2334H199.706C199.553 57.4287 199.395 57.5898 199.232 57.7168C199.07 57.8438 198.881 57.9382 198.666 58C198.454 58.0651 198.196 58.0977 197.89 58.0977C197.567 58.0977 197.279 58.0391 197.025 57.9219C196.771 57.8014 196.571 57.6191 196.425 57.375C196.278 57.1309 196.205 56.8216 196.205 56.4473C196.205 55.8906 196.412 55.4723 196.825 55.1924C197.242 54.9124 197.87 54.7578 198.71 54.7285L199.647 54.6943V54.4111C199.647 54.0368 199.56 53.7699 199.384 53.6104C199.211 53.4508 198.967 53.3711 198.651 53.3711C198.381 53.3711 198.119 53.4102 197.865 53.4883C197.611 53.5664 197.364 53.6624 197.123 53.7764L196.752 52.9658C197.016 52.8258 197.315 52.7119 197.65 52.624C197.989 52.5361 198.34 52.4922 198.705 52.4922ZM199.643 55.417L198.944 55.4414C198.371 55.4609 197.969 55.5586 197.738 55.7344C197.507 55.9102 197.392 56.151 197.392 56.457C197.392 56.724 197.471 56.9193 197.631 57.043C197.79 57.1634 198 57.2236 198.261 57.2236C198.658 57.2236 198.987 57.1113 199.247 56.8867C199.511 56.6589 199.643 56.3252 199.643 55.8857V55.417ZM203.622 58L201.566 52.5947H202.782L203.896 55.7686C203.967 55.9704 204.032 56.1885 204.091 56.4229C204.149 56.6572 204.19 56.8542 204.213 57.0137H204.252C204.275 56.8477 204.319 56.6491 204.384 56.418C204.449 56.1836 204.516 55.9671 204.584 55.7686L205.697 52.5947H206.908L204.853 58H203.622ZM209.882 52.4922C210.364 52.4922 210.777 52.5915 211.122 52.79C211.467 52.9886 211.732 53.2702 211.918 53.6348C212.104 53.9993 212.196 54.4355 212.196 54.9434V55.5586H208.588C208.601 56.0827 208.741 56.4863 209.008 56.7695C209.278 57.0527 209.656 57.1943 210.141 57.1943C210.486 57.1943 210.795 57.1618 211.068 57.0967C211.345 57.0283 211.63 56.929 211.923 56.7988V57.7314C211.653 57.8584 211.378 57.9512 211.098 58.0098C210.818 58.0684 210.482 58.0977 210.092 58.0977C209.561 58.0977 209.094 57.9951 208.69 57.79C208.29 57.5817 207.976 57.2725 207.748 56.8623C207.523 56.4521 207.411 55.9427 207.411 55.334C207.411 54.7285 207.514 54.2142 207.719 53.791C207.924 53.3678 208.212 53.0456 208.583 52.8242C208.954 52.6029 209.387 52.4922 209.882 52.4922ZM209.882 53.3564C209.521 53.3564 209.228 53.4736 209.003 53.708C208.782 53.9424 208.651 54.2858 208.612 54.7383H211.073C211.07 54.4681 211.024 54.2288 210.937 54.0205C210.852 53.8122 210.722 53.6494 210.546 53.5322C210.373 53.415 210.152 53.3564 209.882 53.3564ZM214.047 55.8223V55.5146C214.047 55.2738 214.075 55.0638 214.13 54.8848C214.185 54.7057 214.278 54.5381 214.408 54.3818C214.538 54.2223 214.714 54.0563 214.936 53.8838C215.163 53.7048 215.344 53.5501 215.478 53.4199C215.614 53.2897 215.712 53.1595 215.771 53.0293C215.832 52.8958 215.863 52.7412 215.863 52.5654C215.863 52.2887 215.769 52.0788 215.58 51.9355C215.395 51.7891 215.132 51.7158 214.794 51.7158C214.494 51.7158 214.213 51.7581 213.949 51.8428C213.686 51.9274 213.425 52.0332 213.168 52.1602L212.763 51.3008C213.059 51.138 213.38 51.0078 213.725 50.9102C214.073 50.8092 214.455 50.7588 214.872 50.7588C215.536 50.7588 216.049 50.9199 216.41 51.2422C216.775 51.5645 216.957 51.9893 216.957 52.5166C216.957 52.8063 216.911 53.0553 216.82 53.2637C216.729 53.4688 216.594 53.6592 216.415 53.835C216.239 54.0075 216.026 54.1898 215.775 54.3818C215.57 54.5446 215.412 54.6862 215.302 54.8066C215.194 54.9238 215.119 55.0426 215.077 55.1631C215.038 55.2835 215.019 55.4284 215.019 55.5977V55.8223H214.047ZM213.861 57.3945C213.861 57.1276 213.93 56.9404 214.066 56.833C214.206 56.7223 214.377 56.667 214.579 56.667C214.774 56.667 214.942 56.7223 215.082 56.833C215.222 56.9404 215.292 57.1276 215.292 57.3945C215.292 57.6549 215.222 57.8438 215.082 57.9609C214.942 58.0749 214.774 58.1318 214.579 58.1318C214.377 58.1318 214.206 58.0749 214.066 57.9609C213.93 57.8438 213.861 57.6549 213.861 57.3945Z" fill="#142349"/>
<path d="M232.5 43C232.5 38.8579 229.142 35.5 225 35.5H22C17.8578 35.5 14.5 38.8579 14.5 43V63C14.5 67.1421 17.8579 70.5 22 70.5H232.5V43Z" fill="#EFF6FF" stroke="#CFE4FF"/>
<path d="M35.5674 57H34.4004V53.7773H31.1094V57H29.9375V49.8613H31.1094V52.7812H34.4004V49.8613H35.5674V57ZM39.4932 51.4922C39.9749 51.4922 40.3883 51.5915 40.7334 51.79C41.0785 51.9886 41.3438 52.2702 41.5293 52.6348C41.7148 52.9993 41.8076 53.4355 41.8076 53.9434V54.5586H38.1992C38.2122 55.0827 38.3522 55.4863 38.6191 55.7695C38.8893 56.0527 39.2669 56.1943 39.752 56.1943C40.097 56.1943 40.4062 56.1618 40.6797 56.0967C40.9564 56.0283 41.2412 55.929 41.5342 55.7988V56.7314C41.264 56.8584 40.9889 56.9512 40.709 57.0098C40.429 57.0684 40.0938 57.0977 39.7031 57.0977C39.1725 57.0977 38.7054 56.9951 38.3018 56.79C37.9014 56.5817 37.5872 56.2725 37.3594 55.8623C37.1348 55.4521 37.0225 54.9427 37.0225 54.334C37.0225 53.7285 37.125 53.2142 37.3301 52.791C37.5352 52.3678 37.8232 52.0456 38.1943 51.8242C38.5654 51.6029 38.9984 51.4922 39.4932 51.4922ZM39.4932 52.3564C39.1318 52.3564 38.8389 52.4736 38.6143 52.708C38.3929 52.9424 38.2627 53.2858 38.2236 53.7383H40.6846C40.6813 53.4681 40.6357 53.2288 40.5479 53.0205C40.4632 52.8122 40.333 52.6494 40.1572 52.5322C39.9847 52.415 39.7633 52.3564 39.4932 52.3564ZM42.2861 51.5947H43.5361L44.6445 54.6807C44.6934 54.8206 44.7373 54.959 44.7764 55.0957C44.8187 55.2292 44.8545 55.361 44.8838 55.4912C44.9163 55.6214 44.9424 55.7516 44.9619 55.8818H44.9912C45.0238 55.7126 45.0693 55.5238 45.1279 55.3154C45.1898 55.1038 45.2581 54.8923 45.333 54.6807L46.3975 51.5947H47.6328L45.3135 57.7422C45.18 58.0938 45.0156 58.3932 44.8203 58.6406C44.6283 58.8913 44.4004 59.0801 44.1367 59.207C43.873 59.3372 43.5719 59.4023 43.2334 59.4023C43.0706 59.4023 42.929 59.3926 42.8086 59.373C42.6882 59.3568 42.5856 59.3389 42.501 59.3193V58.4014C42.5693 58.4176 42.6556 58.4323 42.7598 58.4453C42.8639 58.4583 42.9714 58.4648 43.082 58.4648C43.2871 58.4648 43.4645 58.4242 43.6143 58.3428C43.764 58.2614 43.891 58.1458 43.9951 57.9961C44.0993 57.8496 44.1855 57.682 44.2539 57.4932L44.4443 56.9854L42.2861 51.5947ZM53.0625 56.1699C53.2122 56.1699 53.3604 56.1569 53.5068 56.1309C53.6533 56.1016 53.7868 56.0674 53.9072 56.0283V56.8975C53.7803 56.9528 53.6159 57 53.4141 57.0391C53.2122 57.0781 53.0023 57.0977 52.7842 57.0977C52.4782 57.0977 52.2031 57.0472 51.959 56.9463C51.7148 56.8421 51.5212 56.6647 51.3779 56.4141C51.2347 56.1634 51.1631 55.8167 51.1631 55.374V52.4688H50.4258V51.9561L51.2168 51.5508L51.5928 50.3936H52.3154V51.5947H53.8633V52.4688H52.3154V55.3594C52.3154 55.6328 52.3838 55.8363 52.5205 55.9697C52.6572 56.1032 52.8379 56.1699 53.0625 56.1699ZM56.1533 49.4023V51.3115C56.1533 51.5101 56.1468 51.7038 56.1338 51.8926C56.124 52.0814 56.1126 52.2279 56.0996 52.332H56.1631C56.277 52.1432 56.417 51.9886 56.583 51.8682C56.749 51.7445 56.9346 51.6517 57.1396 51.5898C57.348 51.528 57.5693 51.4971 57.8037 51.4971C58.2171 51.4971 58.5687 51.5671 58.8584 51.707C59.1481 51.8438 59.3695 52.057 59.5225 52.3467C59.6787 52.6364 59.7568 53.0124 59.7568 53.4746V57H58.6094V53.6895C58.6094 53.2695 58.5231 52.9554 58.3506 52.7471C58.1781 52.5355 57.9111 52.4297 57.5498 52.4297C57.2015 52.4297 56.9248 52.5029 56.7197 52.6494C56.5179 52.7926 56.373 53.0059 56.2852 53.2891C56.1973 53.569 56.1533 53.9108 56.1533 54.3145V57H55.0059V49.4023H56.1533ZM63.5166 51.4922C63.9984 51.4922 64.4118 51.5915 64.7568 51.79C65.1019 51.9886 65.3672 52.2702 65.5527 52.6348C65.7383 52.9993 65.8311 53.4355 65.8311 53.9434V54.5586H62.2227C62.2357 55.0827 62.3757 55.4863 62.6426 55.7695C62.9128 56.0527 63.2904 56.1943 63.7754 56.1943C64.1204 56.1943 64.4297 56.1618 64.7031 56.0967C64.9798 56.0283 65.2646 55.929 65.5576 55.7988V56.7314C65.2874 56.8584 65.0124 56.9512 64.7324 57.0098C64.4525 57.0684 64.1172 57.0977 63.7266 57.0977C63.196 57.0977 62.7288 56.9951 62.3252 56.79C61.9248 56.5817 61.6107 56.2725 61.3828 55.8623C61.1582 55.4521 61.0459 54.9427 61.0459 54.334C61.0459 53.7285 61.1484 53.2142 61.3535 52.791C61.5586 52.3678 61.8467 52.0456 62.2178 51.8242C62.5889 51.6029 63.0218 51.4922 63.5166 51.4922ZM63.5166 52.3564C63.1553 52.3564 62.8623 52.4736 62.6377 52.708C62.4163 52.9424 62.2861 53.2858 62.2471 53.7383H64.708C64.7048 53.4681 64.6592 53.2288 64.5713 53.0205C64.4867 52.8122 64.3564 52.6494 64.1807 52.5322C64.0081 52.415 63.7868 52.3564 63.5166 52.3564ZM69.8643 51.4922C69.9554 51.4922 70.0547 51.4971 70.1621 51.5068C70.2695 51.5166 70.3623 51.5296 70.4404 51.5459L70.333 52.6201C70.2646 52.6006 70.18 52.5859 70.0791 52.5762C69.9814 52.5664 69.8936 52.5615 69.8154 52.5615C69.6104 52.5615 69.415 52.5957 69.2295 52.6641C69.0439 52.7292 68.8796 52.8301 68.7363 52.9668C68.5931 53.1003 68.4808 53.2679 68.3994 53.4697C68.318 53.6715 68.2773 53.9059 68.2773 54.1729V57H67.125V51.5947H68.0234L68.1797 52.5469H68.2334C68.3408 52.3548 68.4743 52.179 68.6338 52.0195C68.7933 51.86 68.9756 51.7331 69.1807 51.6387C69.389 51.541 69.6169 51.4922 69.8643 51.4922ZM73.5947 51.4922C74.0765 51.4922 74.4899 51.5915 74.835 51.79C75.18 51.9886 75.4453 52.2702 75.6309 52.6348C75.8164 52.9993 75.9092 53.4355 75.9092 53.9434V54.5586H72.3008C72.3138 55.0827 72.4538 55.4863 72.7207 55.7695C72.9909 56.0527 73.3685 56.1943 73.8535 56.1943C74.1986 56.1943 74.5078 56.1618 74.7812 56.0967C75.0579 56.0283 75.3428 55.929 75.6357 55.7988V56.7314C75.3656 56.8584 75.0905 56.9512 74.8105 57.0098C74.5306 57.0684 74.1953 57.0977 73.8047 57.0977C73.2741 57.0977 72.807 56.9951 72.4033 56.79C72.0029 56.5817 71.6888 56.2725 71.4609 55.8623C71.2363 55.4521 71.124 54.9427 71.124 54.334C71.124 53.7285 71.2266 53.2142 71.4316 52.791C71.6367 52.3678 71.9248 52.0456 72.2959 51.8242C72.667 51.6029 73.0999 51.4922 73.5947 51.4922ZM73.5947 52.3564C73.2334 52.3564 72.9404 52.4736 72.7158 52.708C72.4945 52.9424 72.3643 53.2858 72.3252 53.7383H74.7861C74.7829 53.4681 74.7373 53.2288 74.6494 53.0205C74.5648 52.8122 74.4346 52.6494 74.2588 52.5322C74.0863 52.415 73.8649 52.3564 73.5947 52.3564ZM78.1943 54.8223H77.3301L77.0957 49.8613H78.4287L78.1943 54.8223ZM77.0371 56.3945C77.0371 56.1276 77.1055 55.9404 77.2422 55.833C77.3822 55.7223 77.5531 55.667 77.7549 55.667C77.9535 55.667 78.1227 55.7223 78.2627 55.833C78.4027 55.9404 78.4727 56.1276 78.4727 56.3945C78.4727 56.6549 78.4027 56.8438 78.2627 56.9609C78.1227 57.0749 77.9535 57.1318 77.7549 57.1318C77.5531 57.1318 77.3822 57.0749 77.2422 56.9609C77.1055 56.8438 77.0371 56.6549 77.0371 56.3945ZM91.1143 49.8613L89.249 57H87.9697L86.7783 52.7227C86.749 52.6185 86.7165 52.4948 86.6807 52.3516C86.6449 52.2083 86.609 52.0618 86.5732 51.9121C86.5407 51.7624 86.5114 51.6257 86.4854 51.502C86.4626 51.375 86.4463 51.2773 86.4365 51.209C86.43 51.2773 86.4154 51.3734 86.3926 51.4971C86.3698 51.6208 86.3421 51.7575 86.3096 51.9072C86.2803 52.0537 86.2477 52.2002 86.2119 52.3467C86.1761 52.4899 86.1436 52.6169 86.1143 52.7275L84.9424 57H83.668L81.8076 49.8613H82.9844L84.0146 54.0459C84.0472 54.1794 84.0798 54.3242 84.1123 54.4805C84.1481 54.6335 84.1807 54.7881 84.21 54.9443C84.2425 55.1006 84.2718 55.2536 84.2979 55.4033C84.3239 55.5498 84.3451 55.6833 84.3613 55.8037C84.3776 55.68 84.3988 55.5433 84.4248 55.3936C84.4508 55.2406 84.4785 55.0859 84.5078 54.9297C84.5404 54.7702 84.5729 54.6172 84.6055 54.4707C84.6413 54.3242 84.6771 54.1924 84.7129 54.0752L85.875 49.8613H87.0176L88.2041 54.0898C88.2399 54.2103 88.2741 54.3454 88.3066 54.4951C88.3424 54.6449 88.3766 54.7979 88.4092 54.9541C88.4417 55.1104 88.471 55.2617 88.4971 55.4082C88.5231 55.5547 88.5443 55.6865 88.5605 55.8037C88.5833 55.6442 88.6126 55.4619 88.6484 55.2568C88.6842 55.0518 88.7249 54.8434 88.7705 54.6318C88.8161 54.4202 88.8617 54.2249 88.9072 54.0459L89.9326 49.8613H91.1143ZM93.1553 49.4023V51.3115C93.1553 51.5101 93.1488 51.7038 93.1357 51.8926C93.126 52.0814 93.1146 52.2279 93.1016 52.332H93.165C93.279 52.1432 93.4189 51.9886 93.585 51.8682C93.751 51.7445 93.9365 51.6517 94.1416 51.5898C94.3499 51.528 94.5713 51.4971 94.8057 51.4971C95.2191 51.4971 95.5706 51.5671 95.8604 51.707C96.1501 51.8438 96.3714 52.057 96.5244 52.3467C96.6807 52.6364 96.7588 53.0124 96.7588 53.4746V57H95.6113V53.6895C95.6113 53.2695 95.5251 52.9554 95.3525 52.7471C95.18 52.5355 94.9131 52.4297 94.5518 52.4297C94.2035 52.4297 93.9268 52.5029 93.7217 52.6494C93.5199 52.7926 93.375 53.0059 93.2871 53.2891C93.1992 53.569 93.1553 53.9108 93.1553 54.3145V57H92.0078V49.4023H93.1553ZM100.484 51.4922C101.168 51.4922 101.684 51.6436 102.032 51.9463C102.384 52.249 102.56 52.721 102.56 53.3623V57H101.744L101.524 56.2334H101.485C101.332 56.4287 101.174 56.5898 101.012 56.7168C100.849 56.8438 100.66 56.9382 100.445 57C100.234 57.0651 99.9749 57.0977 99.6689 57.0977C99.3467 57.0977 99.0586 57.0391 98.8047 56.9219C98.5508 56.8014 98.3506 56.6191 98.2041 56.375C98.0576 56.1309 97.9844 55.8216 97.9844 55.4473C97.9844 54.8906 98.1911 54.4723 98.6045 54.1924C99.0212 53.9124 99.6494 53.7578 100.489 53.7285L101.427 53.6943V53.4111C101.427 53.0368 101.339 52.7699 101.163 52.6104C100.991 52.4508 100.746 52.3711 100.431 52.3711C100.16 52.3711 99.8984 52.4102 99.6445 52.4883C99.3906 52.5664 99.1432 52.6624 98.9023 52.7764L98.5312 51.9658C98.7949 51.8258 99.0944 51.7119 99.4297 51.624C99.7682 51.5361 100.12 51.4922 100.484 51.4922ZM101.422 54.417L100.724 54.4414C100.151 54.4609 99.7487 54.5586 99.5176 54.7344C99.2865 54.9102 99.1709 55.151 99.1709 55.457C99.1709 55.724 99.2507 55.9193 99.4102 56.043C99.5697 56.1634 99.7796 56.2236 100.04 56.2236C100.437 56.2236 100.766 56.1113 101.026 55.8867C101.29 55.6589 101.422 55.3252 101.422 54.8857V54.417ZM106.178 56.1699C106.327 56.1699 106.476 56.1569 106.622 56.1309C106.769 56.1016 106.902 56.0674 107.022 56.0283V56.8975C106.896 56.9528 106.731 57 106.529 57.0391C106.327 57.0781 106.118 57.0977 105.899 57.0977C105.593 57.0977 105.318 57.0472 105.074 56.9463C104.83 56.8421 104.636 56.6647 104.493 56.4141C104.35 56.1634 104.278 55.8167 104.278 55.374V52.4688H103.541V51.9561L104.332 51.5508L104.708 50.3936H105.431V51.5947H106.979V52.4688H105.431V55.3594C105.431 55.6328 105.499 55.8363 105.636 55.9697C105.772 56.1032 105.953 56.1699 106.178 56.1699ZM109.039 49.8613L109.112 49.9688C109.054 50.2064 108.977 50.4603 108.883 50.7305C108.792 51.0007 108.692 51.2708 108.585 51.541C108.478 51.8112 108.368 52.0667 108.258 52.3076H107.428C107.473 52.1156 107.521 51.9137 107.569 51.7021C107.618 51.4873 107.665 51.2725 107.711 51.0576C107.757 50.8395 107.797 50.6296 107.833 50.4277C107.869 50.2227 107.9 50.0339 107.926 49.8613H109.039ZM113.688 55.457C113.688 55.8118 113.601 56.1113 113.429 56.3555C113.256 56.5996 113.004 56.7852 112.672 56.9121C112.343 57.0358 111.939 57.0977 111.461 57.0977C111.083 57.0977 110.758 57.07 110.484 57.0146C110.214 56.9626 109.959 56.8812 109.718 56.7705V55.7793C109.975 55.8997 110.263 56.0039 110.582 56.0918C110.904 56.1797 111.209 56.2236 111.495 56.2236C111.873 56.2236 112.145 56.165 112.311 56.0479C112.477 55.9274 112.56 55.7679 112.56 55.5693C112.56 55.4521 112.525 55.348 112.457 55.2568C112.392 55.1624 112.268 55.0664 112.086 54.9688C111.907 54.8678 111.643 54.7474 111.295 54.6074C110.953 54.4707 110.665 54.334 110.431 54.1973C110.196 54.0605 110.019 53.8962 109.898 53.7041C109.778 53.5088 109.718 53.2598 109.718 52.957C109.718 52.4785 109.907 52.1156 110.284 51.8682C110.665 51.6175 111.168 51.4922 111.793 51.4922C112.125 51.4922 112.438 51.5264 112.73 51.5947C113.027 51.6598 113.316 51.7559 113.6 51.8828L113.238 52.7471C112.994 52.6396 112.748 52.5518 112.501 52.4834C112.257 52.4118 112.008 52.376 111.754 52.376C111.458 52.376 111.231 52.4215 111.075 52.5127C110.922 52.6038 110.846 52.734 110.846 52.9033C110.846 53.0303 110.883 53.1377 110.958 53.2256C111.033 53.3135 111.161 53.4014 111.344 53.4893C111.529 53.5771 111.786 53.6862 112.115 53.8164C112.438 53.9401 112.716 54.0703 112.95 54.207C113.188 54.3405 113.37 54.5049 113.497 54.7002C113.624 54.8955 113.688 55.1478 113.688 55.457ZM122.311 54.2852C122.311 54.7344 122.252 55.1331 122.135 55.4814C122.018 55.8298 121.847 56.1243 121.622 56.3652C121.397 56.6029 121.127 56.7852 120.812 56.9121C120.496 57.0358 120.139 57.0977 119.742 57.0977C119.371 57.0977 119.031 57.0358 118.722 56.9121C118.412 56.7852 118.144 56.6029 117.916 56.3652C117.691 56.1243 117.517 55.8298 117.394 55.4814C117.27 55.1331 117.208 54.7344 117.208 54.2852C117.208 53.6895 117.311 53.1849 117.516 52.7715C117.724 52.3548 118.02 52.0374 118.404 51.8193C118.788 51.6012 119.246 51.4922 119.776 51.4922C120.274 51.4922 120.714 51.6012 121.095 51.8193C121.476 52.0374 121.773 52.3548 121.988 52.7715C122.203 53.1882 122.311 53.6927 122.311 54.2852ZM118.39 54.2852C118.39 54.679 118.437 55.016 118.531 55.2959C118.629 55.5758 118.779 55.7907 118.98 55.9404C119.182 56.0869 119.443 56.1602 119.762 56.1602C120.081 56.1602 120.341 56.0869 120.543 55.9404C120.745 55.7907 120.893 55.5758 120.987 55.2959C121.082 55.016 121.129 54.679 121.129 54.2852C121.129 53.8913 121.082 53.5576 120.987 53.2842C120.893 53.0075 120.745 52.7975 120.543 52.6543C120.341 52.5078 120.079 52.4346 119.757 52.4346C119.282 52.4346 118.935 52.5941 118.717 52.9131C118.499 53.2321 118.39 53.6895 118.39 54.2852ZM126.446 51.4922C127.055 51.4922 127.529 51.6501 127.867 51.9658C128.209 52.2783 128.38 52.7812 128.38 53.4746V57H127.232V53.6895C127.232 53.2695 127.146 52.9554 126.974 52.7471C126.801 52.5355 126.534 52.4297 126.173 52.4297C125.649 52.4297 125.284 52.5908 125.079 52.9131C124.877 53.2354 124.776 53.7025 124.776 54.3145V57H123.629V51.5947H124.522L124.684 52.3271H124.747C124.864 52.1383 125.009 51.9837 125.182 51.8633C125.357 51.7396 125.553 51.6468 125.768 51.585C125.986 51.5231 126.212 51.4922 126.446 51.4922ZM131.769 51.5947H133.019L134.127 54.6807C134.176 54.8206 134.22 54.959 134.259 55.0957C134.301 55.2292 134.337 55.361 134.366 55.4912C134.399 55.6214 134.425 55.7516 134.444 55.8818H134.474C134.506 55.7126 134.552 55.5238 134.61 55.3154C134.672 55.1038 134.741 54.8923 134.815 54.6807L135.88 51.5947H137.115L134.796 57.7422C134.662 58.0938 134.498 58.3932 134.303 58.6406C134.111 58.8913 133.883 59.0801 133.619 59.207C133.355 59.3372 133.054 59.4023 132.716 59.4023C132.553 59.4023 132.411 59.3926 132.291 59.373C132.171 59.3568 132.068 59.3389 131.983 59.3193V58.4014C132.052 58.4176 132.138 58.4323 132.242 58.4453C132.346 58.4583 132.454 58.4648 132.564 58.4648C132.77 58.4648 132.947 58.4242 133.097 58.3428C133.246 58.2614 133.373 58.1458 133.478 57.9961C133.582 57.8496 133.668 57.682 133.736 57.4932L133.927 56.9854L131.769 51.5947ZM142.721 54.2852C142.721 54.7344 142.662 55.1331 142.545 55.4814C142.428 55.8298 142.257 56.1243 142.032 56.3652C141.808 56.6029 141.537 56.7852 141.222 56.9121C140.906 57.0358 140.549 57.0977 140.152 57.0977C139.781 57.0977 139.441 57.0358 139.132 56.9121C138.823 56.7852 138.554 56.6029 138.326 56.3652C138.102 56.1243 137.927 55.8298 137.804 55.4814C137.68 55.1331 137.618 54.7344 137.618 54.2852C137.618 53.6895 137.721 53.1849 137.926 52.7715C138.134 52.3548 138.43 52.0374 138.814 51.8193C139.199 51.6012 139.656 51.4922 140.187 51.4922C140.685 51.4922 141.124 51.6012 141.505 51.8193C141.886 52.0374 142.184 52.3548 142.398 52.7715C142.613 53.1882 142.721 53.6927 142.721 54.2852ZM138.8 54.2852C138.8 54.679 138.847 55.016 138.941 55.2959C139.039 55.5758 139.189 55.7907 139.391 55.9404C139.592 56.0869 139.853 56.1602 140.172 56.1602C140.491 56.1602 140.751 56.0869 140.953 55.9404C141.155 55.7907 141.303 55.5758 141.397 55.2959C141.492 55.016 141.539 54.679 141.539 54.2852C141.539 53.8913 141.492 53.5576 141.397 53.2842C141.303 53.0075 141.155 52.7975 140.953 52.6543C140.751 52.5078 140.489 52.4346 140.167 52.4346C139.692 52.4346 139.345 52.5941 139.127 52.9131C138.909 53.2321 138.8 53.6895 138.8 54.2852ZM148.751 51.5947V57H147.848L147.691 56.2725H147.628C147.514 56.458 147.369 56.6126 147.193 56.7363C147.018 56.8568 146.822 56.9463 146.607 57.0049C146.393 57.0667 146.166 57.0977 145.929 57.0977C145.522 57.0977 145.174 57.0293 144.884 56.8926C144.597 56.7526 144.378 56.5378 144.225 56.248C144.072 55.9583 143.995 55.584 143.995 55.125V51.5947H145.147V54.9102C145.147 55.3301 145.232 55.6442 145.401 55.8525C145.574 56.0609 145.841 56.165 146.202 56.165C146.55 56.165 146.827 56.0934 147.032 55.9502C147.237 55.807 147.382 55.5954 147.467 55.3154C147.555 55.0355 147.599 54.6921 147.599 54.2852V51.5947H148.751ZM153.136 51.4922C153.227 51.4922 153.326 51.4971 153.434 51.5068C153.541 51.5166 153.634 51.5296 153.712 51.5459L153.604 52.6201C153.536 52.6006 153.451 52.5859 153.351 52.5762C153.253 52.5664 153.165 52.5615 153.087 52.5615C152.882 52.5615 152.687 52.5957 152.501 52.6641C152.315 52.7292 152.151 52.8301 152.008 52.9668C151.865 53.1003 151.752 53.2679 151.671 53.4697C151.59 53.6715 151.549 53.9059 151.549 54.1729V57H150.396V51.5947H151.295L151.451 52.5469H151.505C151.612 52.3548 151.746 52.179 151.905 52.0195C152.065 51.86 152.247 51.7331 152.452 51.6387C152.66 51.541 152.888 51.4922 153.136 51.4922ZM163.419 51.4922C164.024 51.4922 164.48 51.6484 164.786 51.9609C165.095 52.2734 165.25 52.7747 165.25 53.4648V57H164.103V53.6699C164.103 53.2598 164.023 52.9505 163.863 52.7422C163.704 52.5339 163.461 52.4297 163.136 52.4297C162.68 52.4297 162.351 52.5762 162.149 52.8691C161.951 53.1589 161.852 53.5804 161.852 54.1338V57H160.704V53.6699C160.704 53.3965 160.668 53.1686 160.597 52.9863C160.528 52.8008 160.423 52.6624 160.279 52.5713C160.136 52.4769 159.955 52.4297 159.737 52.4297C159.422 52.4297 159.169 52.5013 158.98 52.6445C158.795 52.7878 158.661 52.9993 158.58 53.2793C158.499 53.556 158.458 53.8962 158.458 54.2998V57H157.311V51.5947H158.204L158.365 52.3223H158.429C158.539 52.1335 158.676 51.9788 158.839 51.8584C159.005 51.7347 159.189 51.6436 159.391 51.585C159.592 51.5231 159.802 51.4922 160.021 51.4922C160.424 51.4922 160.764 51.5638 161.041 51.707C161.318 51.847 161.524 52.0618 161.661 52.3516H161.749C161.918 52.0586 162.154 51.8421 162.457 51.7021C162.76 51.5622 163.08 51.4922 163.419 51.4922ZM167.999 51.5947V57H166.852V51.5947H167.999ZM167.433 49.5244C167.608 49.5244 167.76 49.5716 167.887 49.666C168.017 49.7604 168.082 49.9232 168.082 50.1543C168.082 50.3822 168.017 50.5449 167.887 50.6426C167.76 50.737 167.608 50.7842 167.433 50.7842C167.25 50.7842 167.096 50.737 166.969 50.6426C166.845 50.5449 166.783 50.3822 166.783 50.1543C166.783 49.9232 166.845 49.7604 166.969 49.666C167.096 49.5716 167.25 49.5244 167.433 49.5244ZM172.462 51.4922C173.071 51.4922 173.544 51.6501 173.883 51.9658C174.225 52.2783 174.396 52.7812 174.396 53.4746V57H173.248V53.6895C173.248 53.2695 173.162 52.9554 172.989 52.7471C172.817 52.5355 172.55 52.4297 172.188 52.4297C171.664 52.4297 171.3 52.5908 171.095 52.9131C170.893 53.2354 170.792 53.7025 170.792 54.3145V57H169.645V51.5947H170.538L170.699 52.3271H170.763C170.88 52.1383 171.025 51.9837 171.197 51.8633C171.373 51.7396 171.568 51.6468 171.783 51.585C172.001 51.5231 172.228 51.4922 172.462 51.4922ZM177.818 57.0977C177.174 57.0977 176.656 56.8633 176.266 56.3945C175.878 55.9225 175.685 55.2275 175.685 54.3096C175.685 53.3818 175.882 52.6803 176.275 52.2051C176.673 51.7298 177.195 51.4922 177.843 51.4922C178.116 51.4922 178.355 51.5296 178.561 51.6045C178.766 51.6761 178.941 51.7738 179.088 51.8975C179.238 52.0212 179.365 52.1595 179.469 52.3125H179.522C179.506 52.2116 179.487 52.0667 179.464 51.8779C179.444 51.6859 179.435 51.5085 179.435 51.3457V49.4023H180.587V57H179.688L179.483 56.2627H179.435C179.337 56.4189 179.213 56.5605 179.063 56.6875C178.917 56.8112 178.741 56.9105 178.536 56.9854C178.334 57.0602 178.095 57.0977 177.818 57.0977ZM178.141 56.165C178.632 56.165 178.979 56.0234 179.181 55.7402C179.382 55.457 179.487 55.0322 179.493 54.4658V54.3145C179.493 53.709 179.396 53.2451 179.2 52.9229C179.005 52.5973 178.648 52.4346 178.131 52.4346C177.717 52.4346 177.402 52.6022 177.184 52.9375C176.969 53.2695 176.861 53.7334 176.861 54.3291C176.861 54.9248 176.969 55.3805 177.184 55.6963C177.402 56.0088 177.721 56.165 178.141 56.165ZM186.842 56.1699C186.992 56.1699 187.14 56.1569 187.286 56.1309C187.433 56.1016 187.566 56.0674 187.687 56.0283V56.8975C187.56 56.9528 187.395 57 187.193 57.0391C186.992 57.0781 186.782 57.0977 186.563 57.0977C186.257 57.0977 185.982 57.0472 185.738 56.9463C185.494 56.8421 185.3 56.6647 185.157 56.4141C185.014 56.1634 184.942 55.8167 184.942 55.374V52.4688H184.205V51.9561L184.996 51.5508L185.372 50.3936H186.095V51.5947H187.643V52.4688H186.095V55.3594C186.095 55.6328 186.163 55.8363 186.3 55.9697C186.437 56.1032 186.617 56.1699 186.842 56.1699ZM193.57 54.2852C193.57 54.7344 193.512 55.1331 193.395 55.4814C193.277 55.8298 193.106 56.1243 192.882 56.3652C192.657 56.6029 192.387 56.7852 192.071 56.9121C191.756 57.0358 191.399 57.0977 191.002 57.0977C190.631 57.0977 190.291 57.0358 189.981 56.9121C189.672 56.7852 189.404 56.6029 189.176 56.3652C188.951 56.1243 188.777 55.8298 188.653 55.4814C188.53 55.1331 188.468 54.7344 188.468 54.2852C188.468 53.6895 188.57 53.1849 188.775 52.7715C188.984 52.3548 189.28 52.0374 189.664 51.8193C190.048 51.6012 190.506 51.4922 191.036 51.4922C191.534 51.4922 191.974 51.6012 192.354 51.8193C192.735 52.0374 193.033 52.3548 193.248 52.7715C193.463 53.1882 193.57 53.6927 193.57 54.2852ZM189.649 54.2852C189.649 54.679 189.697 55.016 189.791 55.2959C189.889 55.5758 190.038 55.7907 190.24 55.9404C190.442 56.0869 190.702 56.1602 191.021 56.1602C191.34 56.1602 191.601 56.0869 191.803 55.9404C192.005 55.7907 192.153 55.5758 192.247 55.2959C192.341 55.016 192.389 54.679 192.389 54.2852C192.389 53.8913 192.341 53.5576 192.247 53.2842C192.153 53.0075 192.005 52.7975 191.803 52.6543C191.601 52.5078 191.339 52.4346 191.017 52.4346C190.541 52.4346 190.195 52.5941 189.977 52.9131C189.758 53.2321 189.649 53.6895 189.649 54.2852ZM196.705 57.0977C196.061 57.0977 195.543 56.8633 195.152 56.3945C194.765 55.9225 194.571 55.2275 194.571 54.3096C194.571 53.3818 194.768 52.6803 195.162 52.2051C195.559 51.7298 196.082 51.4922 196.729 51.4922C197.003 51.4922 197.242 51.5296 197.447 51.6045C197.652 51.6761 197.828 51.7738 197.975 51.8975C198.124 52.0212 198.251 52.1595 198.355 52.3125H198.409C198.393 52.2116 198.373 52.0667 198.351 51.8779C198.331 51.6859 198.321 51.5085 198.321 51.3457V49.4023H199.474V57H198.575L198.37 56.2627H198.321C198.224 56.4189 198.1 56.5605 197.95 56.6875C197.804 56.8112 197.628 56.9105 197.423 56.9854C197.221 57.0602 196.982 57.0977 196.705 57.0977ZM197.027 56.165C197.519 56.165 197.866 56.0234 198.067 55.7402C198.269 55.457 198.373 55.0322 198.38 54.4658V54.3145C198.38 53.709 198.282 53.2451 198.087 52.9229C197.892 52.5973 197.535 52.4346 197.018 52.4346C196.604 52.4346 196.288 52.6022 196.07 52.9375C195.855 53.2695 195.748 53.7334 195.748 54.3291C195.748 54.9248 195.855 55.3805 196.07 55.6963C196.288 56.0088 196.607 56.165 197.027 56.165ZM203.238 51.4922C203.922 51.4922 204.438 51.6436 204.786 51.9463C205.138 52.249 205.313 52.721 205.313 53.3623V57H204.498L204.278 56.2334H204.239C204.086 56.4287 203.928 56.5898 203.766 56.7168C203.603 56.8438 203.414 56.9382 203.199 57C202.988 57.0651 202.729 57.0977 202.423 57.0977C202.101 57.0977 201.812 57.0391 201.559 56.9219C201.305 56.8014 201.104 56.6191 200.958 56.375C200.812 56.1309 200.738 55.8216 200.738 55.4473C200.738 54.8906 200.945 54.4723 201.358 54.1924C201.775 53.9124 202.403 53.7578 203.243 53.7285L204.181 53.6943V53.4111C204.181 53.0368 204.093 52.7699 203.917 52.6104C203.744 52.4508 203.5 52.3711 203.185 52.3711C202.914 52.3711 202.652 52.4102 202.398 52.4883C202.145 52.5664 201.897 52.6624 201.656 52.7764L201.285 51.9658C201.549 51.8258 201.848 51.7119 202.184 51.624C202.522 51.5361 202.874 51.4922 203.238 51.4922ZM204.176 54.417L203.478 54.4414C202.905 54.4609 202.503 54.5586 202.271 54.7344C202.04 54.9102 201.925 55.151 201.925 55.457C201.925 55.724 202.005 55.9193 202.164 56.043C202.324 56.1634 202.534 56.2236 202.794 56.2236C203.191 56.2236 203.52 56.1113 203.78 55.8867C204.044 55.6589 204.176 55.3252 204.176 54.8857V54.417ZM206.104 51.5947H207.354L208.463 54.6807C208.512 54.8206 208.556 54.959 208.595 55.0957C208.637 55.2292 208.673 55.361 208.702 55.4912C208.735 55.6214 208.761 55.7516 208.78 55.8818H208.81C208.842 55.7126 208.888 55.5238 208.946 55.3154C209.008 55.1038 209.076 54.8923 209.151 54.6807L210.216 51.5947H211.451L209.132 57.7422C208.998 58.0938 208.834 58.3932 208.639 58.6406C208.447 58.8913 208.219 59.0801 207.955 59.207C207.691 59.3372 207.39 59.4023 207.052 59.4023C206.889 59.4023 206.747 59.3926 206.627 59.373C206.507 59.3568 206.404 59.3389 206.319 59.3193V58.4014C206.388 58.4176 206.474 58.4323 206.578 58.4453C206.682 58.4583 206.79 58.4648 206.9 58.4648C207.105 58.4648 207.283 58.4242 207.433 58.3428C207.582 58.2614 207.709 58.1458 207.813 57.9961C207.918 57.8496 208.004 57.682 208.072 57.4932L208.263 56.9854L206.104 51.5947ZM212.828 54.8223V54.5146C212.828 54.2738 212.856 54.0638 212.911 53.8848C212.966 53.7057 213.059 53.5381 213.189 53.3818C213.32 53.2223 213.495 53.0563 213.717 52.8838C213.945 52.7048 214.125 52.5501 214.259 52.4199C214.396 52.2897 214.493 52.1595 214.552 52.0293C214.614 51.8958 214.645 51.7412 214.645 51.5654C214.645 51.2887 214.55 51.0788 214.361 50.9355C214.176 50.7891 213.914 50.7158 213.575 50.7158C213.276 50.7158 212.994 50.7581 212.73 50.8428C212.467 50.9274 212.206 51.0332 211.949 51.1602L211.544 50.3008C211.84 50.138 212.161 50.0078 212.506 49.9102C212.854 49.8092 213.237 49.7588 213.653 49.7588C214.317 49.7588 214.83 49.9199 215.191 50.2422C215.556 50.5645 215.738 50.9893 215.738 51.5166C215.738 51.8063 215.693 52.0553 215.602 52.2637C215.51 52.4688 215.375 52.6592 215.196 52.835C215.021 53.0075 214.807 53.1898 214.557 53.3818C214.352 53.5446 214.194 53.6862 214.083 53.8066C213.976 53.9238 213.901 54.0426 213.858 54.1631C213.819 54.2835 213.8 54.4284 213.8 54.5977V54.8223H212.828ZM212.643 56.3945C212.643 56.1276 212.711 55.9404 212.848 55.833C212.988 55.7223 213.159 55.667 213.36 55.667C213.556 55.667 213.723 55.7223 213.863 55.833C214.003 55.9404 214.073 56.1276 214.073 56.3945C214.073 56.6549 214.003 56.8438 213.863 56.9609C213.723 57.0749 213.556 57.1318 213.36 57.1318C213.159 57.1318 212.988 57.0749 212.848 56.9609C212.711 56.8438 212.643 56.6549 212.643 56.3945Z" fill="#142349"/>
</svg>
