<svg width="247" height="198" viewBox="0 0 247 198" fill="none" xmlns="http://www.w3.org/2000/svg">
<path d="M226.606 49.4788C242.858 76.5628 241.151 114.688 220.847 139.776C200.543 164.864 169.091 184.168 133.567 190.094C108.21 194.315 66.6109 195.107 43.4425 185.524C20.274 175.94 0.081592 154.499 0.000334826 132.874C-0.0352152 123.54 2.74784 111.29 14.2203 101.56C25.1596 92.2658 45.418 93.3831 61.0042 93.7843C76.5903 94.1855 94.3145 93.8858 104.761 84.1959C112.78 76.7507 113.964 65.9537 118.189 56.5736C125.38 40.6268 142.723 28.1793 162.657 24.6547C165.431 24.1635 168.233 23.8446 171.047 23.7C192.971 22.5573 213.763 31.9933 225.266 47.6505L226.606 49.4788Z" fill="#FEF5D8"/>
<path d="M37.3788 85.5977H196.755C197.204 85.5977 197.649 85.6862 198.064 85.8582C198.48 86.0302 198.857 86.2824 199.175 86.6002C199.493 86.9181 199.745 87.2954 199.917 87.7107C200.089 88.126 200.178 88.5711 200.178 89.0206V188.459C200.178 190.422 199.398 192.304 198.01 193.691C196.623 195.079 194.741 195.859 192.778 195.859H40.8424C38.8799 195.859 36.9978 195.079 35.6101 193.691C34.2225 192.304 33.4429 190.422 33.4429 188.459V89.5386C33.4422 89.0213 33.5435 88.509 33.741 88.0309C33.9385 87.5528 34.2283 87.1183 34.5939 86.7522C34.9594 86.3862 35.3935 86.0959 35.8714 85.8977C36.3492 85.6996 36.8615 85.5977 37.3788 85.5977Z" fill="#263238"/>
<path d="M26.47 187.702H207.115V190.379C207.115 191.294 206.935 192.2 206.584 193.045C206.234 193.891 205.721 194.659 205.074 195.306C204.427 195.953 203.659 196.466 202.813 196.816C201.968 197.166 201.062 197.347 200.147 197.347H33.4429C32.5278 197.347 31.6218 197.166 30.7764 196.816C29.931 196.466 29.1629 195.953 28.5159 195.306C27.8688 194.659 27.3556 193.891 27.0054 193.045C26.6553 192.2 26.475 191.294 26.475 190.379V187.702H26.47Z" fill="#263238"/>
<path d="M195.236 89.9805H37.9221V183.091H195.236V89.9805Z" fill="#455A64"/>
<path d="M100.373 187.702L102.613 191.268H134.156L136.238 187.702H100.373Z" fill="#455A64"/>
<path d="M188.004 96.1814H43.1682V183.055H188.004V96.1814Z" fill="white"/>
<path d="M49.349 100.463C49.35 100.704 49.2792 100.94 49.1457 101.142C49.0121 101.343 48.8218 101.5 48.5989 101.593C48.376 101.686 48.1305 101.71 47.8936 101.663C47.6567 101.616 47.439 101.5 47.2683 101.33C47.0975 101.159 46.9813 100.941 46.9344 100.704C46.8876 100.467 46.9121 100.222 47.005 99.9989C47.0979 99.7759 47.2549 99.5856 47.4561 99.4521C47.6573 99.3185 47.8937 99.2478 48.1352 99.2488C48.4567 99.2501 48.7646 99.3784 48.992 99.6058C49.2193 99.8331 49.3476 100.141 49.349 100.463Z" fill="#263238"/>
<path d="M54.3056 100.463C54.3056 100.703 54.2344 100.937 54.1011 101.137C53.9677 101.337 53.7781 101.492 53.5563 101.584C53.3345 101.676 53.0905 101.7 52.855 101.653C52.6196 101.606 52.4033 101.491 52.2336 101.321C52.0638 101.151 51.9482 100.935 51.9014 100.699C51.8545 100.464 51.8786 100.22 51.9705 99.9981C52.0623 99.7763 52.2179 99.5867 52.4175 99.4533C52.6171 99.32 52.8518 99.2488 53.0918 99.2488C53.4133 99.2501 53.7213 99.3784 53.9486 99.6058C54.176 99.8331 54.3043 100.141 54.3056 100.463Z" fill="#263238"/>
<path d="M59.2674 100.463C59.2684 100.704 59.1977 100.94 59.0641 101.142C58.9306 101.343 58.7403 101.5 58.5173 101.593C58.2944 101.686 58.0489 101.71 57.812 101.663C57.5751 101.616 57.3575 101.5 57.1867 101.33C57.0159 101.159 56.8998 100.941 56.8529 100.704C56.806 100.467 56.8306 100.222 56.9235 99.9989C57.0163 99.7759 57.1734 99.5856 57.3746 99.4521C57.5758 99.3185 57.8121 99.2478 58.0536 99.2488C58.3751 99.2501 58.6831 99.3784 58.9104 99.6058C59.1378 99.8331 59.2661 100.141 59.2674 100.463Z" fill="#263238"/>
<path d="M188.004 105.79C188.004 105.866 155.577 105.927 115.589 105.927C75.6 105.927 43.1682 105.866 43.1682 105.79C43.1682 105.714 75.5847 105.653 115.589 105.653C155.593 105.653 188.004 105.704 188.004 105.79Z" fill="#263238"/>
<path d="M200.172 187.773H33.4429V188.307H200.172V187.773Z" fill="#455A64"/>
<path d="M91.5671 125.18L93.0247 152.005C93.0504 152.465 93.25 152.897 93.5829 153.215C93.9158 153.533 94.3572 153.712 94.8174 153.717L143.064 154.067C143.544 154.07 144.005 153.882 144.347 153.545C144.689 153.208 144.883 152.749 144.887 152.269L145.039 131.396C145.041 131.158 144.995 130.921 144.905 130.7C144.815 130.48 144.682 130.279 144.514 130.109C144.346 129.94 144.146 129.806 143.926 129.713C143.706 129.621 143.47 129.574 143.231 129.573L113.552 129.548C113.076 129.551 112.617 129.369 112.272 129.04L107.153 123.921C106.815 123.592 106.361 123.409 105.889 123.413L93.3751 123.321C93.1333 123.321 92.894 123.37 92.6713 123.464C92.4486 123.558 92.2469 123.695 92.0784 123.869C91.9098 124.042 91.7777 124.247 91.6899 124.473C91.6021 124.698 91.5603 124.938 91.5671 125.18Z" fill="#FFD95B"/>
<path d="M145.085 126.415L92.3608 126.029L92.1299 157.535L144.854 157.922L145.085 126.415Z" fill="#F5F5F5"/>
<path d="M88.1492 128.826L91.9327 161.71C91.9684 161.99 92.1045 162.247 92.3156 162.434C92.5267 162.621 92.7986 162.724 93.0805 162.726L144.46 163.102C144.754 163.104 145.037 162.995 145.254 162.798C145.47 162.6 145.604 162.327 145.628 162.035L148.457 129.202C148.471 129.042 148.452 128.881 148.4 128.728C148.349 128.576 148.266 128.436 148.158 128.317C148.05 128.198 147.918 128.103 147.771 128.038C147.624 127.973 147.465 127.938 147.304 127.938L89.3122 127.511C89.1457 127.51 88.9809 127.544 88.8289 127.612C88.6769 127.679 88.5411 127.779 88.4309 127.904C88.3206 128.028 88.2384 128.175 88.1898 128.334C88.1412 128.494 88.1274 128.661 88.1492 128.826Z" fill="#FFD95B"/>
<path d="M129.54 145.535C129.377 145.535 129.463 144.098 128.59 142.051C128.082 140.869 127.353 139.795 126.442 138.887C125.321 137.79 123.957 136.974 122.46 136.505C120.955 136.062 119.368 135.975 117.823 136.251C116.557 136.488 115.349 136.972 114.268 137.673C112.415 138.892 111.653 140.126 111.541 140.035C111.506 140.009 111.638 139.674 112.013 139.151C112.554 138.408 113.207 137.754 113.948 137.211C115.058 136.394 116.329 135.823 117.676 135.535C119.338 135.178 121.063 135.251 122.689 135.748C124.315 136.245 125.786 137.149 126.965 138.374C127.914 139.371 128.645 140.554 129.113 141.848C129.416 142.713 129.587 143.618 129.621 144.534C129.626 145.184 129.59 145.535 129.54 145.535Z" fill="#E0E0E0"/>
<path d="M124.842 142.046C124.974 141.873 127.153 143.306 129.702 145.246L129.844 145.352L129.23 145.54C130.245 142.589 131.261 140.284 131.459 140.355C131.657 140.426 131.007 142.843 129.981 145.799L129.804 146.307L129.367 145.977L129.225 145.865C126.67 143.935 124.71 142.219 124.842 142.046Z" fill="#E0E0E0"/>
<path d="M111.003 143.905C111.165 143.905 110.906 145.301 111.511 147.374C111.848 148.577 112.408 149.707 113.161 150.705C114.074 151.926 115.265 152.911 116.635 153.58C116.992 153.753 117.359 153.907 117.732 154.042C118.108 154.148 118.479 154.275 118.849 154.346C119.567 154.503 120.299 154.58 121.033 154.575C122.283 154.562 123.519 154.31 124.674 153.833C125.463 153.511 126.212 153.1 126.909 152.61C127.417 152.264 127.671 152.046 127.716 152.102C127.762 152.158 127.559 152.427 127.102 152.858C126.451 153.468 125.709 153.974 124.903 154.357C123.7 154.941 122.389 155.268 121.053 155.316C120.261 155.344 119.468 155.278 118.692 155.118C118.291 155.047 117.889 154.915 117.478 154.798C117.07 154.655 116.671 154.485 116.285 154.291C114.943 153.636 113.767 152.686 112.845 151.512C111.923 150.337 111.279 148.969 110.962 147.511C110.855 147.009 110.789 146.499 110.764 145.987C110.764 145.54 110.764 145.154 110.795 144.844C110.871 144.23 110.962 143.879 111.003 143.905Z" fill="#E0E0E0"/>
<path d="M115.238 147.942C115.081 148.1 113.1 146.419 110.8 144.169L110.673 144.047L111.308 143.935C109.916 146.739 108.651 148.902 108.458 148.811C108.265 148.719 109.215 146.393 110.597 143.585L110.835 143.077L111.226 143.458L111.358 143.585C113.654 145.84 115.391 147.785 115.238 147.942Z" fill="#E0E0E0"/>
<path d="M71.4357 51.373L68.9726 59.067C68.501 60.6347 67.6063 62.0419 66.3869 63.1341C65.1675 64.2263 63.6705 64.9611 62.0606 65.2578L45.6162 68.3456L41.142 68.2034L45.6162 62.6627L57.9774 58.4474C58.5699 58.319 59.1157 58.0304 59.5554 57.6131C59.9951 57.1958 60.3118 56.6658 60.471 56.0808L65.3972 45.3701L71.6286 49.1943L71.4357 51.373Z" fill="#B78876"/>
<path d="M95.6859 43.8314C95.4574 45.0248 91.9786 53.7041 91.9786 53.7041C91.9786 53.7041 78.4391 49.1334 78.6168 48.4427C78.7641 47.8993 81.3644 39.2048 84.4826 34.3903C85.0698 33.463 85.8655 32.6858 86.8063 32.1206C87.7472 31.5554 88.807 31.2179 89.9014 31.1349C90.5159 31.0943 91.8364 31.7291 92.1969 31.9323C95.046 33.532 97.4685 34.6087 95.6859 43.8314Z" fill="#455A64"/>
<path d="M76.5804 27.0062C70.4556 27.6918 69.4704 31.8512 66.6061 35.9496L62.4772 43.5674L70.0696 48.2245L69.8056 59.9052L66.1896 71.0781L94.7566 68.3915L92.1157 58.8235L95.9247 43.801C96.2141 41.7696 97.0013 37.9454 96.4681 35.9343C94.8023 29.6369 88.2611 27.8086 83.7716 26.6304C82.8423 26.3866 78.363 26.4018 77.5859 26.5948" fill="#FFD95B"/>
<path d="M95.4371 43.7096C95.413 43.7623 95.3927 43.8166 95.3761 43.8721C95.3355 43.9889 95.2847 44.1514 95.2187 44.3546L94.6296 46.1981C94.1217 47.8029 93.4158 50.0934 92.5524 52.8714L92.6489 52.8257L79.9525 48.133L79.6376 48.001L79.6884 48.1077C80.4541 45.255 81.4423 42.4667 82.6441 39.7686C83.5851 37.5442 84.861 35.477 86.4277 33.6388C87.0394 32.947 87.762 32.3617 88.5657 31.907C89.1692 31.5597 89.846 31.3596 90.5413 31.323C90.6749 31.313 90.809 31.313 90.9425 31.323L91.298 31.3585C91.4047 31.3585 91.5062 31.3585 91.5977 31.3941L91.8414 31.4601L92.1766 31.5464H92.2934C92.2591 31.5258 92.2212 31.512 92.1817 31.5058L91.8516 31.3991L91.6078 31.328C91.5073 31.3064 91.4055 31.2911 91.3031 31.2823L90.9476 31.2366C90.8107 31.2265 90.6732 31.2265 90.5362 31.2366C89.8235 31.2618 89.127 31.4568 88.5048 31.8054C87.6853 32.2567 86.9472 32.8421 86.321 33.5372C84.7319 35.3743 83.4384 37.4475 82.4867 39.6823C81.2576 42.3894 80.2505 45.1918 79.4751 48.0619V48.1381L79.5462 48.1686L79.8662 48.3006C84.6299 50.0832 89.0482 51.6677 92.5981 52.9628L92.6692 52.9882V52.9171L94.7007 46.2184C94.9343 45.4262 95.1222 44.8015 95.2491 44.3647C95.3101 44.1616 95.3558 43.9923 95.3863 43.8569C95.4074 43.8094 95.4244 43.7601 95.4371 43.7096Z" fill="#263238"/>
<path d="M80.1555 46.3707C80.1555 46.4164 83.0757 47.4321 86.717 48.6357C90.3584 49.8393 93.3192 50.7789 93.3192 50.7281C93.3192 50.6773 90.399 49.6667 86.7627 48.463C83.1265 47.2594 80.1708 46.33 80.1555 46.3707Z" fill="#263238"/>
<path d="M78.6168 70.7328L79.7137 44.3191H70.3945L67.7689 72.1497L78.6168 70.7328Z" fill="#263238"/>
<g opacity="0.3">
<path d="M91.9329 52.663C91.3899 55.1494 90.6842 57.5975 89.8202 59.9914C89.27 61.5116 88.4926 62.9396 87.5145 64.2269C86.0614 65.8987 84.1256 67.0787 81.9738 67.6041C79.8312 68.1217 77.6103 68.2303 75.4275 67.9241L86.3058 61.779L89.2006 51.7285L91.9329 52.663Z" fill="black"/>
</g>
<path d="M90.6835 52.0992L88.002 60.875C87.5376 62.4547 86.6468 63.8758 85.4274 64.9823C84.208 66.0887 82.7073 66.8378 81.0901 67.1471L64.6406 70.2704L60.1664 70.1231L64.6406 64.5367L77.0069 60.2707C77.6023 60.1362 78.1495 59.8412 78.5891 59.4177C79.0287 58.9943 79.3439 58.4585 79.5005 57.8685L81.791 49.0369L90.6835 52.0992Z" fill="#B78876"/>
<path d="M69.8258 59.6004C69.8767 59.3273 69.9039 59.0503 69.9071 58.7726C69.9325 58.1885 69.968 57.4267 70.0137 56.5024C70.095 54.5878 70.1915 51.9317 70.2829 49.0217C70.3743 46.1117 70.4353 43.4353 70.4708 41.5359C70.4708 40.6116 70.4708 39.8498 70.4708 39.2657C70.4914 38.9885 70.4914 38.7101 70.4708 38.4329C70.4203 38.7059 70.3948 38.983 70.3946 39.2607C70.3642 39.8447 70.3286 40.6065 70.2829 41.5257C70.2016 43.4403 70.1051 46.0964 70.0137 49.0115C69.9223 51.9266 69.8614 54.598 69.8258 56.4974C69.8258 57.4217 69.8258 58.1885 69.8004 58.7675C69.7882 59.0453 69.7967 59.3237 69.8258 59.6004Z" fill="#263238"/>
<path d="M63.5894 41.541C64.6097 42.2908 65.6805 42.9695 66.7939 43.5724C67.8639 44.253 68.9806 44.8571 70.1356 45.3804C69.1152 44.6306 68.0445 43.9519 66.9311 43.349C65.8611 42.6685 64.7444 42.0643 63.5894 41.541Z" fill="#263238"/>
<path d="M25.952 127.938L25.8505 122.91L35.4998 119.487L35.8959 126.485L35.3576 126.744C32.9351 127.887 22.9709 132.391 21.1121 132.559C19.0401 132.752 25.952 127.938 25.952 127.938Z" fill="#FFD95B"/>
<g opacity="0.4">
<path d="M22.6204 130.421C22.6204 130.421 20.264 132.28 20.7769 132.585C21.2898 132.889 31.5282 128.72 35.8857 126.49L35.7892 126.292L23.885 131.259C23.885 131.259 23.1537 130.233 22.6204 130.421Z" fill="white"/>
</g>
<path d="M35.9315 126.226L35.7842 126.307L35.3525 126.51L33.768 127.247C32.412 127.856 30.5279 128.674 28.4254 129.532C26.3228 130.391 24.4031 131.127 23.0065 131.64L21.3458 132.234L20.8938 132.386C20.8417 132.408 20.7871 132.424 20.7313 132.432L20.8837 132.366L21.3306 132.188L22.9761 131.559C24.3625 131.025 26.2771 130.279 28.3797 129.426C30.4822 128.572 32.3714 127.76 33.7376 127.171L35.3525 126.47L35.7944 126.282C35.8379 126.258 35.8839 126.24 35.9315 126.226Z" fill="#263238"/>
<path d="M23.9458 131.391C23.7619 131.151 23.5524 130.931 23.3212 130.736C23.0688 130.572 22.7977 130.439 22.5137 130.34C22.834 130.33 23.1467 130.438 23.3923 130.644C23.6635 130.815 23.8609 131.082 23.9458 131.391Z" fill="#263238"/>
<path d="M26.0434 128.974C26.0434 128.999 25.8352 128.898 25.6219 128.745C25.4086 128.593 25.2461 128.446 25.2664 128.42C25.2867 128.395 25.4746 128.496 25.6879 128.649C25.9012 128.801 26.0637 128.943 26.0434 128.974Z" fill="#263238"/>
<path d="M26.6172 128.293C26.6172 128.324 26.4242 128.293 26.2109 128.212C25.9976 128.131 25.8402 128.049 25.8503 128.019C25.8605 127.988 26.0433 128.019 26.2515 128.1C26.4597 128.181 26.6273 128.263 26.6172 128.293Z" fill="#263238"/>
<path d="M26.729 127.257C26.729 127.288 26.5462 127.399 26.2872 127.511C26.1312 127.596 25.9571 127.644 25.7793 127.648C25.9107 127.537 26.0625 127.452 26.2262 127.399C26.381 127.315 26.5528 127.266 26.729 127.257Z" fill="#263238"/>
<path d="M26.6579 126.612C26.6579 126.612 26.4954 126.83 26.2009 126.978C26.033 127.08 25.8384 127.129 25.6422 127.12C25.6422 127.084 25.8758 127.008 26.1501 126.866C26.3123 126.768 26.4821 126.683 26.6579 126.612Z" fill="#263238"/>
<path d="M25.4238 128.314C25.2444 128.42 25.0489 128.498 24.8448 128.542C24.6255 128.602 24.4011 128.641 24.1744 128.659C24.0378 128.674 23.8998 128.674 23.7631 128.659C23.6794 128.646 23.6035 128.602 23.5498 128.537C23.524 128.497 23.5103 128.45 23.5103 128.402C23.5103 128.355 23.524 128.308 23.5498 128.268C23.7259 128.071 23.9652 127.941 24.2266 127.901C24.488 127.861 24.755 127.914 24.9819 128.049C25.1171 128.126 25.2347 128.23 25.3273 128.354C25.364 128.398 25.3901 128.451 25.4035 128.507C25.2738 128.351 25.1173 128.22 24.9413 128.121C24.7488 128.022 24.5322 127.979 24.3166 127.999C24.0602 128.017 23.8212 128.136 23.6514 128.329C23.5853 128.43 23.6514 128.527 23.7936 128.542C23.9202 128.555 24.0478 128.555 24.1744 128.542C24.3945 128.528 24.6133 128.499 24.8296 128.456C25.1952 128.385 25.4136 128.293 25.4238 128.314Z" fill="#263238"/>
<path d="M25.2866 128.405C25.1662 128.312 25.0833 128.178 25.053 128.029C25.01 127.863 25.01 127.688 25.053 127.521C25.0624 127.412 25.1008 127.308 25.1642 127.218C25.2276 127.129 25.3137 127.058 25.4136 127.013C25.4766 127.004 25.5407 127.019 25.5934 127.055C25.6461 127.09 25.6834 127.145 25.698 127.206C25.7208 127.305 25.7208 127.408 25.698 127.506C25.6749 127.663 25.6323 127.817 25.571 127.963C25.5241 128.105 25.4419 128.232 25.3323 128.334C25.3323 128.334 25.4085 128.182 25.4898 127.938C25.5404 127.793 25.5744 127.643 25.5913 127.491C25.6218 127.339 25.5913 127.095 25.4339 127.13C25.2765 127.166 25.1952 127.379 25.1495 127.526C25.1194 127.672 25.1194 127.823 25.1495 127.968C25.1786 128.119 25.2246 128.265 25.2866 128.405Z" fill="#263238"/>
<path d="M34.748 123.844C34.748 123.844 34.4788 123.926 34.0928 124.139C33.5916 124.417 33.1755 124.826 32.8892 125.322C32.6131 125.825 32.4812 126.394 32.5083 126.968C32.5083 127.409 32.6201 127.673 32.5997 127.679C32.5794 127.684 32.5642 127.618 32.5236 127.496C32.4752 127.33 32.4429 127.16 32.4271 126.988C32.371 126.395 32.497 125.8 32.7883 125.281C33.0796 124.762 33.5223 124.344 34.0573 124.083C34.2192 124.001 34.3895 123.936 34.5652 123.89C34.6234 123.865 34.685 123.85 34.748 123.844Z" fill="#263238"/>
<path d="M32.3002 120.518C32.8828 121.708 33.3916 122.932 33.8237 124.185C33.5145 123.596 33.2381 122.991 32.9959 122.371C32.7273 121.768 32.495 121.149 32.3002 120.518Z" fill="#263238"/>
<path d="M31.1219 127.318C30.7331 127.594 30.3096 127.818 29.8624 127.983C29.4314 128.185 28.9754 128.329 28.5065 128.41C28.5065 128.38 29.1007 128.176 29.8167 127.877C30.5328 127.577 31.1016 127.288 31.1219 127.318Z" fill="#263238"/>
<path d="M32.8791 126.612C32.9096 126.612 32.8791 126.754 32.8791 126.912C32.8791 127.069 32.8791 127.206 32.8791 127.216C32.8791 127.227 32.7776 127.095 32.7827 126.912C32.7877 126.729 32.8487 126.612 32.8791 126.612Z" fill="#263238"/>
<path d="M33.2042 125.505C33.2347 125.505 33.2042 125.637 33.1585 125.769C33.1128 125.901 33.0366 125.998 33.0062 125.983C32.9757 125.967 33.0062 125.856 33.0519 125.724C33.0976 125.591 33.1738 125.495 33.2042 125.505Z" fill="#263238"/>
<path d="M34.0016 124.743C34.0016 124.779 33.8848 124.824 33.7731 124.926C33.6613 125.028 33.5953 125.134 33.5598 125.124C33.5242 125.114 33.5598 124.957 33.6969 124.835C33.834 124.713 33.9965 124.713 34.0016 124.743Z" fill="#263238"/>
<path d="M34.6007 124.291C34.6261 124.317 34.6007 124.383 34.5296 124.444C34.4585 124.505 34.3976 124.53 34.3722 124.505C34.3468 124.479 34.3722 124.413 34.4484 124.357C34.5245 124.301 34.5804 124.266 34.6007 124.291Z" fill="#263238"/>
<path d="M64.6405 71.5146L36.3376 72.0225C34.1493 72.0637 32.0494 72.8936 30.424 74.3594C28.7986 75.8252 27.757 77.8285 27.4907 80.0009L21.9043 125.607H37.2721L41.9647 86.212H64.2393L64.6405 71.5146Z" fill="#263238"/>
<path d="M22.0872 122.727C22.0872 122.798 25.4543 122.879 29.6085 122.905C33.7628 122.93 37.0588 122.829 37.1299 122.818C37.6073 122.773 33.7628 122.666 29.6085 122.641C25.4543 122.615 22.0872 122.656 22.0872 122.727Z" fill="#455A64"/>
<path d="M91.2066 86.2325C102.501 82.4946 94.7616 67.5535 94.7616 67.5535L45.3877 72.1953C44.4455 72.1893 43.5114 72.3696 42.6392 72.726C41.7669 73.0824 40.9738 73.6078 40.3054 74.2719C39.6371 74.9361 39.1066 75.7258 38.7447 76.5957C38.3827 77.4657 38.1964 78.3986 38.1964 79.3408C38.1951 80.2794 38.3788 81.209 38.737 82.0765C39.0953 82.944 39.621 83.7323 40.2842 84.3965C40.9474 85.0606 41.735 85.5875 42.602 85.947C43.469 86.3064 44.3983 86.4915 45.3369 86.4915L91.2066 86.2426" fill="#263238"/>
<path d="M76.1131 70.3872L75.9709 69.3207L63.3354 68.823L57.1344 53.186L33.5089 54.7909L41.4823 72.1494L76.1131 70.3872Z" fill="#455A64"/>
<path d="M47.8356 63.3279C47.9662 63.5356 48.1554 63.6998 48.3793 63.7998C48.6033 63.8998 48.8519 63.9312 49.0936 63.8898C49.3354 63.8485 49.5594 63.7363 49.7374 63.5675C49.9153 63.3987 50.0392 63.181 50.0933 62.9417C50.1474 62.7025 50.1293 62.4526 50.0413 62.2237C49.9533 61.9948 49.7994 61.7971 49.5989 61.6558C49.3985 61.5144 49.1606 61.4357 48.9155 61.4296C48.6703 61.4235 48.4288 61.4903 48.2216 61.6215C47.9446 61.797 47.7484 62.0751 47.676 62.395C47.6037 62.7148 47.6611 63.0503 47.8356 63.3279Z" fill="white"/>
<path d="M80.2063 70.0776C80.1592 70.0702 80.1113 70.0702 80.0641 70.0776H79.6477L78.0581 70.1436L72.2076 70.4179L52.909 71.4336C51.9695 71.4742 51.035 71.5555 50.1209 71.5656C49.2067 71.5758 48.2926 71.6164 47.4038 71.6672C46.5151 71.718 45.6416 71.7789 44.7884 71.8652C43.9405 71.9272 43.1042 72.0979 42.2999 72.3731C41.5317 72.6441 40.8279 73.0712 40.2329 73.6275C39.6775 74.1605 39.2489 74.8113 38.9785 75.532C38.7308 76.1976 38.5604 76.8894 38.4706 77.5939C38.3786 78.2398 38.3328 78.8916 38.3335 79.5441C38.3168 80.6706 38.5419 81.7876 38.9937 82.8197C39.3358 83.5966 39.8581 84.2808 40.5173 84.8156C40.9342 85.1544 41.4116 85.4111 41.9241 85.5723C42.2796 85.6739 42.2846 85.6434 41.9241 85.5215C41.4277 85.3434 40.9669 85.0786 40.563 84.7394C39.9254 84.2029 39.4198 83.527 39.0851 82.7639C38.6581 81.7437 38.4521 80.6446 38.4808 79.539C38.4857 78.8963 38.5367 78.2547 38.6331 77.6193C38.7227 76.9247 38.8932 76.2429 39.141 75.5878C39.4078 74.9003 39.8221 74.2797 40.3548 73.7697C40.9326 73.2399 41.6114 72.8322 42.3507 72.5712C43.1366 72.3133 43.9525 72.1579 44.7782 72.109C45.6314 72.0278 46.4999 71.9668 47.3886 71.916C48.2774 71.8652 49.1763 71.8297 50.0955 71.8195C51.0147 71.8094 51.9441 71.7281 52.8887 71.6875L72.1873 70.6108L78.0378 70.2553L79.6274 70.1436L80.0388 70.1131L80.2063 70.0776Z" fill="#455A64"/>
<path d="M78.3019 44.3392C78.3019 44.3392 79.5614 32.1507 90.4498 28.9766C91.2582 29.2832 91.9984 29.7457 92.6285 30.3376C92.6285 30.3376 82.3698 29.911 79.7137 44.3392H78.3019Z" fill="#263238"/>
<path d="M70.481 44.9283C70.481 44.9283 67.9772 33.659 77.0831 26.8689C77.9549 26.8676 78.8182 27.0402 79.6224 27.3768C79.6224 27.3768 69.318 30.5509 71.8573 44.9943L70.481 44.9283Z" fill="#263238"/>
<path d="M89.1243 5.02608C89.3617 4.36374 89.7789 3.7806 90.3291 3.342C90.8793 2.90341 91.5407 2.62669 92.2393 2.54286C92.9379 2.45903 93.6461 2.57139 94.2844 2.86737C94.9227 3.16334 95.466 3.63123 95.8534 4.21859C96.2874 5.00053 96.6283 5.83061 96.8691 6.69186C97.1194 7.55306 97.6686 8.29676 98.4181 8.78931C99.3373 9.29717 100.541 9.11434 101.379 9.74408C102.308 10.4398 102.334 11.9736 101.552 12.8369C101.137 13.2458 100.61 13.5224 100.037 13.6318C99.4652 13.7412 98.8734 13.6784 98.3368 13.4514C98.6034 14.1306 98.7528 14.8502 98.7787 15.5794C98.7897 15.9448 98.7107 16.3073 98.5486 16.6349C98.3866 16.9626 98.1464 17.2454 97.8493 17.4584C97.5219 17.6345 97.1549 17.7237 96.7832 17.7175C96.4116 17.7113 96.0477 17.6098 95.7265 17.4229C95.0904 17.0371 94.5462 16.5171 94.1318 15.8993C94.0258 16.4125 93.8444 16.9071 93.5934 17.367C93.4674 17.5971 93.2933 17.7974 93.083 17.9543C92.8727 18.1111 92.6311 18.2209 92.3746 18.2761C92.0543 18.3034 91.7326 18.2427 91.4444 18.1003C91.1561 17.958 90.9123 17.7395 90.7393 17.4686C90.3994 16.9255 90.1939 16.3092 90.14 15.6708C89.9515 14.091 90.0548 12.4901 90.4447 10.9477C90.6834 9.96246 91.0237 8.95182 90.8358 7.95134C90.6479 6.95087 89.6626 6.01641 88.6926 6.31604" fill="#263238"/>
<path d="M101.861 11.8365C101.861 11.8365 101.811 11.872 101.699 11.9126C101.534 11.975 101.364 12.0242 101.191 12.0599C100.559 12.1813 99.9089 12.1813 99.2765 12.0599C98.3216 11.8828 97.4391 11.4309 96.7372 10.7598C96.3253 10.3658 95.982 9.90577 95.7215 9.39875C95.4566 8.85298 95.267 8.27383 95.1577 7.67712C95.0496 7.09859 94.8898 6.53091 94.6804 5.98087C94.4815 5.48399 94.1472 5.05289 93.7154 4.73662C93.346 4.4699 92.9232 4.28639 92.4761 4.19871C92.029 4.11104 91.5681 4.12129 91.1254 4.22876C90.5213 4.38401 89.9649 4.68578 89.5053 5.10736C89.1752 5.40192 89.033 5.61522 88.9974 5.61522C89.019 5.55805 89.0499 5.50486 89.0888 5.45778C89.1857 5.31217 89.2963 5.17613 89.419 5.05149C89.8718 4.58591 90.4394 4.24785 91.0644 4.07133C91.5343 3.94127 92.0272 3.91709 92.5076 4.00052C92.988 4.08395 93.4439 4.27291 93.8424 4.5538C94.3169 4.89024 94.6852 5.35547 94.9038 5.89454C95.1282 6.45769 95.2983 7.04099 95.4117 7.63649C95.5253 8.21189 95.7131 8.77011 95.9703 9.29718C96.2139 9.78221 96.5366 10.2233 96.9251 10.6024C97.583 11.2508 98.4132 11.6968 99.3171 11.8873C99.9298 12.0182 100.561 12.0388 101.181 11.9482C101.618 11.8974 101.856 11.8365 101.861 11.8365Z" fill="#455A64"/>
<path d="M93.3395 17.8088C93.3395 17.8088 93.2887 17.8088 93.2125 17.7275C93.0957 17.6349 92.9916 17.5273 92.9027 17.4076C92.5733 16.9631 92.3745 16.4354 92.3288 15.884C92.2538 15.0733 92.3454 14.2558 92.598 13.4818C92.9198 12.5663 93.1777 11.6296 93.37 10.6785C93.5231 9.73472 93.3436 8.7671 92.8621 7.94111C92.4607 7.26351 91.8667 6.72075 91.1557 6.38198C90.6782 6.14779 90.1618 6.00319 89.6321 5.95538C89.4368 5.95515 89.2416 5.94157 89.0481 5.91475C89.2407 5.85813 89.4422 5.83747 89.6423 5.85381C90.1913 5.8631 90.7325 5.98586 91.2319 6.21439C91.9857 6.54907 92.6199 7.10527 93.05 7.80906C93.5809 8.6764 93.7861 9.70423 93.629 10.7089C93.4389 11.6749 93.1723 12.6242 92.8316 13.5479C92.5782 14.2905 92.4696 15.075 92.5117 15.8586C92.5372 16.3872 92.7 16.9 92.984 17.3466C93.1871 17.6564 93.3598 17.7935 93.3395 17.8088Z" fill="#455A64"/>
<path d="M71.7607 11.6891C69.2214 5.82844 72.7002 2.2582 74.9653 0.978404C76.3111 0.216618 77.9109 0.0591822 79.4598 0.0185537C80.9953 -0.0539339 82.5334 0.086207 84.0305 0.434997C85.5273 0.79093 86.8933 1.56194 87.9715 2.65941C89.8252 4.64513 90.2467 7.58055 90.074 10.2773C89.8793 13.4894 88.9572 16.6152 87.3773 19.4187C87.2001 19.7863 86.9262 20.0988 86.5851 20.3227C86.4101 20.4311 86.2011 20.4708 85.9986 20.4342C85.796 20.3977 85.6141 20.2874 85.4881 20.1246" fill="#263238"/>
<path d="M85.4271 4.84837C85.8387 4.89157 86.2191 5.08782 86.4928 5.39823C86.7665 5.70863 86.9136 6.11054 86.905 6.5243L85.9655 28.87C85.9299 31.5109 81.1459 34.6291 78.3222 34.5682C75.4731 34.5072 76.0724 31.4753 76.2908 28.9818C76.4139 27.0698 76.3901 25.1513 76.2197 23.243C76.2197 23.243 72.5936 22.6183 71.8572 17.9308C71.4865 15.5946 71.6033 11.7603 71.8013 8.62683C71.8435 7.95815 72.0205 7.30492 72.3218 6.70645C72.623 6.10798 73.0422 5.57664 73.5541 5.14441C74.0661 4.71218 74.6602 4.388 75.3007 4.19137C75.9412 3.99474 76.6148 3.92972 77.2811 4.00025L85.4271 4.84837Z" fill="#B78876"/>
<path d="M73.0151 11.6535C73.0124 11.8108 73.0715 11.9628 73.1798 12.0768C73.2881 12.1908 73.4369 12.2577 73.5941 12.263C73.6709 12.2692 73.7483 12.26 73.8216 12.2359C73.8948 12.2118 73.9625 12.1733 74.0207 12.1227C74.0789 12.0721 74.1264 12.0104 74.1604 11.9411C74.1944 11.8719 74.2142 11.7966 74.2187 11.7196C74.2201 11.5619 74.1599 11.4099 74.0507 11.296C73.9416 11.1821 73.7923 11.1154 73.6347 11.1101C73.5582 11.1046 73.4814 11.1144 73.4087 11.1388C73.3361 11.1632 73.269 11.2018 73.2113 11.2523C73.1537 11.3029 73.1066 11.3644 73.073 11.4333C73.0393 11.5021 73.0196 11.577 73.0151 11.6535Z" fill="#263238"/>
<path d="M72.624 10.6073C72.7002 10.6835 73.1573 10.3483 73.8074 10.3483C74.4574 10.3483 74.9297 10.6733 75.0008 10.5972C75.0719 10.521 74.9602 10.4194 74.752 10.2671C74.4702 10.0719 74.1348 9.96897 73.7921 9.9725C73.4545 9.97137 73.1253 10.0781 72.8526 10.2772C72.6545 10.4296 72.5885 10.5718 72.624 10.6073Z" fill="#263238"/>
<path d="M79.3582 11.6535C79.3555 11.8108 79.4146 11.9628 79.5229 12.0768C79.6313 12.1908 79.78 12.2577 79.9372 12.263C80.0141 12.2692 80.0914 12.26 80.1647 12.2359C80.238 12.2118 80.3057 12.1733 80.3639 12.1227C80.4221 12.0721 80.4696 12.0104 80.5036 11.9411C80.5376 11.8719 80.5574 11.7966 80.5619 11.7196C80.5633 11.5619 80.503 11.4099 80.3939 11.296C80.2848 11.1821 80.1355 11.1154 79.9778 11.1101C79.9014 11.1046 79.8246 11.1144 79.7519 11.1388C79.6792 11.1632 79.6121 11.2018 79.5545 11.2523C79.4968 11.3029 79.4498 11.3644 79.4161 11.4333C79.3824 11.5021 79.3628 11.577 79.3582 11.6535Z" fill="#263238"/>
<path d="M79.0028 10.7293C79.079 10.8054 79.5361 10.4702 80.1811 10.4702C80.826 10.4702 81.3085 10.7953 81.3796 10.714C81.4507 10.6328 81.339 10.5413 81.1307 10.389C80.8497 10.1923 80.5139 10.0892 80.1709 10.0944C79.8332 10.0933 79.5041 10.2001 79.2314 10.3991C79.0333 10.5515 78.9673 10.6937 79.0028 10.7293Z" fill="#263238"/>
<path d="M76.6463 15.5386C76.3051 15.4324 75.9519 15.3693 75.5951 15.3507C75.4275 15.3507 75.27 15.2999 75.2446 15.1831C75.226 15.0062 75.2652 14.828 75.3564 14.6753C75.5087 14.2757 75.678 13.8542 75.8642 13.4107C76.3067 12.3486 76.665 11.2533 76.9358 10.135C76.3925 11.1618 75.9355 12.232 75.5697 13.3345C75.4072 13.7814 75.2497 14.2029 75.1024 14.6042C74.9956 14.8031 74.9649 15.0342 75.0161 15.2542C75.04 15.3123 75.0765 15.3644 75.1231 15.4066C75.1697 15.4487 75.2251 15.48 75.2853 15.498C75.3782 15.5222 75.4736 15.5358 75.5697 15.5386C75.9271 15.5846 76.2889 15.5846 76.6463 15.5386Z" fill="#263238"/>
<path d="M76.1995 23.2174C78.4223 23.2553 80.6118 22.6732 82.5223 21.5364C82.5223 21.5364 80.9987 24.7663 76.2858 24.3245L76.1995 23.2174Z" fill="#AA6550"/>
<path d="M76.9358 17.1028C77.0602 16.9475 77.2217 16.8261 77.4055 16.7497C77.5892 16.6734 77.7893 16.6446 77.9871 16.6661C78.1301 16.6797 78.2689 16.7217 78.3953 16.7897C78.5218 16.8578 78.6334 16.9504 78.7235 17.0622C78.8085 17.1719 78.8587 17.3045 78.8678 17.443C78.8768 17.5814 78.8443 17.7194 78.7743 17.8392C78.6686 17.9545 78.5314 18.0362 78.3797 18.0742C78.228 18.1121 78.0685 18.1046 77.9211 18.0525C77.6139 17.9405 77.3324 17.7678 77.0933 17.5447C77.0201 17.4952 76.9579 17.4313 76.9104 17.3568C76.8855 17.321 76.8722 17.2785 76.8722 17.2349C76.8722 17.1913 76.8855 17.1488 76.9104 17.113" fill="#AA6550"/>
<path d="M78.5557 15.9856C78.4491 15.9856 78.4491 16.6864 77.8447 17.1841C77.2404 17.6818 76.4938 17.6057 76.4888 17.692C76.4837 17.7783 76.6564 17.8291 76.9712 17.8342C77.385 17.844 77.7885 17.7052 78.1088 17.4431C78.4178 17.1896 78.6148 16.8248 78.6573 16.4274C78.6827 16.1583 78.6065 15.9856 78.5557 15.9856Z" fill="#263238"/>
<path d="M78.7082 9.59169C78.7742 9.76944 79.4243 9.6831 80.181 9.77452C80.9377 9.86593 81.5624 10.0742 81.6589 9.91672C81.7046 9.84054 81.5979 9.67295 81.3491 9.50535C81.0219 9.28994 80.6471 9.15747 80.2572 9.11938C79.8675 9.07258 79.4722 9.11959 79.1043 9.2565C78.825 9.36823 78.6828 9.50535 78.7082 9.59169Z" fill="#263238"/>
<path d="M72.8729 8.72834C72.9897 8.87562 73.4366 8.72834 73.9699 8.72834C74.5031 8.72834 74.9856 8.82483 75.0668 8.67247C75.1481 8.52012 75.0414 8.44902 74.8434 8.30682C74.5774 8.13653 74.265 8.05312 73.9495 8.06813C73.6349 8.07376 73.3298 8.17665 73.076 8.36269C72.8729 8.50489 72.8119 8.65724 72.8729 8.72834Z" fill="#263238"/>
<path d="M71.7911 8.61145C72.6139 4.60445 73.7312 6.18897 74.9957 4.27435C76.824 6.12803 81.0341 8.26103 83.6039 8.68255C83.87 8.70061 84.1278 8.78248 84.3555 8.92124C84.5255 9.10073 84.6522 9.31662 84.7261 9.55247C84.8001 9.78832 84.8192 10.0379 84.7821 10.2823C84.7321 11.6739 84.8463 13.0666 85.1224 14.4315C85.4118 15.8082 86.1216 17.0611 87.1538 18.017C88.6774 14.7514 88.8602 10.9476 88.1695 7.39767C87.8851 5.95028 87.4078 4.43178 86.2498 3.50748C85.378 2.90048 84.3696 2.51841 83.3144 2.39527C80.7447 1.92297 78.0276 1.80616 75.5848 2.72538C73.142 3.6446 71.2376 4.75681 70.9075 7.36212" fill="#263238"/>
<path d="M89.5612 5.79787C89.4027 5.91078 89.2324 6.00614 89.0534 6.08227C88.8445 6.18841 88.627 6.27675 88.4033 6.34636L87.9869 6.48856L87.5095 6.61044C86.7199 6.7993 85.9135 6.90987 85.1022 6.94055C84.1033 6.9755 83.1033 6.91428 82.116 6.75772C81.1382 6.59014 80.179 6.32822 79.2517 5.97562C78.847 5.81764 78.4519 5.6362 78.0684 5.43221L77.5605 5.15797L77.1035 4.86341C76.8413 4.69524 76.5902 4.51034 76.3518 4.30985L76.0573 4.06608L75.8288 3.83754C75.6788 3.70544 75.5458 3.55533 75.4326 3.39062C76.0011 3.85836 76.5927 4.29736 77.205 4.70598L77.6621 4.98022L78.17 5.23923C78.5505 5.42811 78.9404 5.59761 79.338 5.74708C80.2543 6.08332 81.1995 6.33492 82.1617 6.49871C83.1256 6.65201 84.1009 6.72167 85.0768 6.70693C85.8722 6.6885 86.6643 6.59841 87.4434 6.43777C88.7791 6.14829 89.5358 5.74201 89.5612 5.79787Z" fill="#455A64"/>
<path d="M88.2306 2.62891C88.1112 2.75731 87.9744 2.86842 87.8243 2.95901C87.6654 3.08281 87.4954 3.19162 87.3165 3.28404L86.9762 3.46687L86.5801 3.63954C85.1078 4.20582 83.5408 4.48508 81.9636 4.46227C80.3937 4.47031 78.8279 4.29992 77.2964 3.95441C76.833 3.85586 76.3752 3.73209 75.9252 3.58368C75.748 3.54509 75.577 3.48184 75.4174 3.39577C75.4174 3.35514 76.1436 3.55321 77.3167 3.77159C78.8396 4.06629 80.3872 4.21425 81.9383 4.21342C83.4931 4.23579 85.0399 3.98658 86.509 3.47703C87.0977 3.22543 87.6724 2.94232 88.2306 2.62891Z" fill="#455A64"/>
<path d="M73.7819 1.60818C73.7819 1.57771 73.9444 1.54724 74.1933 1.60818C74.5224 1.70042 74.815 1.89196 75.0312 2.15667C75.2507 2.42045 75.3852 2.74442 75.4172 3.08605C75.4172 3.34506 75.3715 3.49741 75.3359 3.49233C75.245 3.07498 75.0724 2.67974 74.8281 2.32934C74.3964 1.7707 73.7667 1.67928 73.7819 1.60818Z" fill="#455A64"/>
<path d="M98.0677 6.6716C98.1031 6.60655 98.1515 6.5495 98.2099 6.50401C98.3669 6.36284 98.5639 6.27409 98.7736 6.25008C99.1158 6.2058 99.4627 6.28309 99.7538 6.46846C99.9499 6.59513 100.107 6.77381 100.207 6.98456C100.308 7.1953 100.348 7.42982 100.323 7.66192C100.293 7.94083 100.195 8.20821 100.038 8.44093C99.8817 8.67366 99.6707 8.86472 99.4237 8.99759C99.13 9.13402 98.8048 9.18812 98.4828 9.15413C98.1608 9.12014 97.8541 8.99933 97.5954 8.8046C97.3066 8.60649 97.0739 8.33707 96.9199 8.0225C96.7732 7.70282 96.6887 7.3581 96.6711 7.00679C96.6932 6.29699 96.6746 5.58652 96.6152 4.87887C96.4772 4.22246 96.1745 3.61194 95.7356 3.10467C95.2968 2.5974 94.7361 2.21004 94.1064 1.979C93.5865 1.79975 93.0325 1.7418 92.4867 1.80958C91.941 1.87735 91.418 2.06907 90.9577 2.37005C90.3219 2.76716 89.8073 3.33101 89.4697 4.00027C89.2361 4.48274 89.1853 4.77729 89.1599 4.77221C89.1559 4.69851 89.1645 4.62466 89.1853 4.55384C89.2261 4.34891 89.2909 4.14948 89.3783 3.95964C89.6447 3.35644 90.0539 2.82716 90.5707 2.41749C91.0874 2.00782 91.6961 1.73009 92.3441 1.60826C92.9606 1.4951 93.5959 1.5441 94.1877 1.75046C94.8628 1.98986 95.4648 2.39935 95.9354 2.93937C96.406 3.47938 96.7294 4.13165 96.8742 4.83316C96.9374 5.55078 96.956 6.27162 96.9301 6.99155C96.9412 7.31594 97.0154 7.63506 97.1485 7.93109C97.2934 8.20264 97.5026 8.43455 97.7579 8.60654C97.9814 8.77795 98.2468 8.88627 98.5263 8.92022C98.8059 8.95416 99.0895 8.91248 99.3475 8.79952C99.5674 8.68723 99.7568 8.52316 99.8992 8.32145C100.042 8.11974 100.133 7.88643 100.165 7.64161C100.192 7.44101 100.163 7.23679 100.081 7.05195C99.9981 6.8671 99.8655 6.70899 99.6979 6.59542C99.4381 6.4152 99.1246 6.32919 98.8092 6.35165C98.5347 6.37825 98.2754 6.49014 98.0677 6.6716Z" fill="#263238"/>
<path d="M85.7217 8.78921C85.5549 8.82423 85.384 8.83619 85.2139 8.82476C84.899 8.82476 84.4419 8.82476 83.8782 8.82476C82.3973 8.80053 80.9291 8.54698 79.5259 8.07313C78.1085 7.57943 76.8707 6.67407 75.9709 5.4729C75.7071 5.10695 75.4936 4.70725 75.3361 4.28451C75.2706 4.13308 75.2311 3.97169 75.2192 3.80713C75.4714 4.35121 75.7722 4.87135 76.1181 5.36117C77.0319 6.49037 78.2416 7.34318 79.6122 7.82428C80.9927 8.28671 82.4294 8.56005 83.8833 8.63685C84.4985 8.6524 85.1123 8.70327 85.7217 8.78921Z" fill="#263238"/>
<path d="M92.395 20.2769C92.3689 20.4456 92.2908 20.6018 92.1715 20.7239C92.0188 20.8998 91.8321 21.0431 91.6227 21.1452C91.4132 21.2473 91.1853 21.3061 90.9527 21.318C90.2557 21.337 89.5792 21.0817 89.0685 20.607C88.7466 20.3283 88.5416 19.9384 88.4946 19.5152C88.4701 19.2784 88.517 19.0396 88.6292 18.8297C88.7414 18.6197 88.9139 18.4481 89.1244 18.3369C89.3491 18.2332 89.6055 18.2214 89.8388 18.3039C90.0722 18.3865 90.2641 18.5568 90.3737 18.7788C90.4165 18.8888 90.4341 19.007 90.4253 19.1248C90.4165 19.2425 90.3816 19.3568 90.3229 19.4593C90.2213 19.6544 90.0591 19.8112 89.8608 19.9062C89.5024 20.0508 89.1019 20.0508 88.7435 19.9062C88.4378 19.8034 88.161 19.6293 87.936 19.3983C87.6087 19.0688 87.3998 18.6402 87.3418 18.1795C87.3071 18.0108 87.3158 17.836 87.3672 17.6716C87.3926 17.6716 87.3672 17.8494 87.4434 18.149C87.5364 18.5707 87.754 18.9547 88.068 19.2511C88.2783 19.4555 88.5342 19.6069 88.8146 19.6929C89.1196 19.8039 89.4555 19.7948 89.7541 19.6675C89.904 19.5996 90.0247 19.4805 90.0945 19.3315C90.1643 19.1825 90.1787 19.0136 90.135 18.8549C90.0508 18.7019 89.9122 18.5862 89.7466 18.5307C89.581 18.4752 89.4006 18.484 89.2412 18.5553C89.0826 18.6481 88.9542 18.7847 88.8713 18.9486C88.7885 19.1125 88.7547 19.2969 88.7739 19.4796C88.8164 19.8378 88.9879 20.1682 89.2564 20.409C89.7185 20.8494 90.3296 21.0997 90.9679 21.1098C91.3974 21.1032 91.8081 20.9324 92.1157 20.6324C92.3086 20.4344 92.3747 20.2668 92.395 20.2769Z" fill="#263238"/>
<path d="M70.7756 44.847C70.7756 44.8775 70.7349 44.9486 70.7451 45.0603C70.7553 45.1721 70.8416 45.2736 70.9787 45.2178C71.1158 45.1619 71.1057 45.0349 71.0244 44.9435C70.9432 44.8521 70.8619 44.847 70.8517 44.8115C70.8416 44.7759 70.9584 44.6947 71.1412 44.8115C71.1942 44.8428 71.2388 44.8864 71.2715 44.9385C71.3042 44.9906 71.324 45.0498 71.3291 45.1111C71.3304 45.1909 71.3073 45.2692 71.2628 45.3355C71.2183 45.4018 71.1546 45.4528 71.0803 45.4819C71.0075 45.5143 70.9264 45.5235 70.8482 45.508C70.77 45.4926 70.6985 45.4533 70.6435 45.3955C70.6026 45.3501 70.5738 45.2952 70.5596 45.2357C70.5454 45.1763 70.5463 45.1142 70.5623 45.0553C70.6181 44.847 70.7705 44.8166 70.7756 44.847Z" fill="#455A64"/>
<path d="M78.9012 44.6896C78.9012 44.7302 78.7945 44.7607 78.7285 44.8978C78.7065 44.9327 78.6937 44.9725 78.6913 45.0136C78.689 45.0548 78.697 45.0958 78.7148 45.133C78.7326 45.1702 78.7595 45.2022 78.793 45.2262C78.8266 45.2501 78.8656 45.2652 78.9066 45.2699C78.9475 45.2747 78.9889 45.269 79.0271 45.2534C79.0652 45.2378 79.0988 45.2128 79.1246 45.1807C79.1504 45.1486 79.1677 45.1104 79.1748 45.0699C79.1819 45.0293 79.1786 44.9875 79.1652 44.9486C79.1297 44.8013 79.0281 44.7454 79.0383 44.7048C79.0484 44.6642 79.2211 44.6642 79.3379 44.8775C79.3697 44.9423 79.3863 45.0135 79.3863 45.0857C79.3863 45.1579 79.3697 45.2291 79.3379 45.2939C79.2927 45.3754 79.2239 45.4414 79.1405 45.4831C79.0571 45.5248 78.963 45.5403 78.8707 45.5275C78.7875 45.523 78.7073 45.495 78.6393 45.4469C78.5713 45.3987 78.5183 45.3323 78.4865 45.2553C78.4546 45.1783 78.4452 45.0939 78.4592 45.0117C78.4733 44.9296 78.5103 44.8531 78.566 44.7911C78.7387 44.6083 78.9113 44.6591 78.9012 44.6896Z" fill="#455A64"/>
<path d="M71.2986 49.2097C71.2986 49.2097 71.2986 49.4789 71.2986 49.9614C71.3144 50.6372 71.4255 51.3074 71.6287 51.9522C71.7797 52.3837 72.0125 52.782 72.3143 53.1253C72.6755 53.4991 73.1507 53.7421 73.6652 53.816C74.2285 53.9355 74.8158 53.8546 75.3259 53.5875C75.8648 53.281 76.3026 52.8238 76.5854 52.2721C77.0703 51.3228 77.3636 50.2875 77.4488 49.225L77.5757 49.357C75.7576 49.357 74.2036 49.3215 73.0863 49.2961L71.7709 49.2605C71.6011 49.2629 71.4314 49.2527 71.2631 49.23C71.4073 49.2054 71.5536 49.1952 71.6998 49.1996L72.9898 49.164C74.102 49.1386 75.6916 49.1132 77.5605 49.1082H77.6925V49.2402C77.6221 50.3498 77.3212 51.4326 76.8089 52.4194C76.5028 53.0158 76.0276 53.5087 75.4427 53.8363C74.881 54.1246 74.2372 54.2107 73.6195 54.0801C73.0557 53.9901 72.5386 53.7128 72.1518 53.2929C71.835 52.9223 71.595 52.4925 71.4459 52.0283C71.2561 51.3685 71.1705 50.6831 71.192 49.9969C71.1836 49.7304 71.2196 49.4644 71.2986 49.2097Z" fill="#455A64"/>
<path d="M91.0745 74.8108C90.9584 74.9019 90.8255 74.9692 90.6834 75.0089C90.306 75.1447 89.9108 75.2251 89.5103 75.2476C88.8442 75.2977 88.1752 75.2013 87.5504 74.965C86.9257 74.7287 86.3602 74.3584 85.894 73.8801C85.4278 73.4017 85.0721 72.827 84.8519 72.1964C84.6317 71.5657 84.5524 70.8945 84.6196 70.2299C84.6516 69.8311 84.7423 69.4392 84.8888 69.0669C84.9954 68.8029 85.0767 68.6708 85.0919 68.681C84.9456 69.19 84.8504 69.7122 84.8075 70.2401C84.7649 70.8736 84.8562 71.509 85.0755 72.1049C85.2949 72.7008 85.6373 73.2438 86.0805 73.6985C86.5237 74.1532 87.0578 74.5094 87.6478 74.744C88.2379 74.9785 88.8708 75.0861 89.5052 75.0597C90.0351 75.0273 90.5606 74.9439 91.0745 74.8108Z" fill="#455A64"/>
<path d="M43.1633 85.5976C43.1633 85.5265 54.1838 85.4656 67.769 85.4656C81.3542 85.4656 92.3747 85.5265 92.3747 85.5976C92.3747 85.6687 81.3593 85.7297 67.769 85.7297C54.1788 85.7297 43.1633 85.6738 43.1633 85.5976Z" fill="#455A64"/>
<path d="M210.502 62.9013C210.502 62.9013 210.35 62.9013 210.04 62.9013H208.644L203.215 62.9368L182.844 63.0079L112.552 63.1146H112.359L112.308 62.9317C111.539 60.2913 111.404 57.5065 111.914 54.804C112.424 52.1015 113.566 49.5577 115.245 47.3798C116.925 45.2018 119.095 43.4513 121.579 42.2708C124.063 41.0902 126.79 40.5129 129.54 40.586L129.281 40.9212C128.849 39.3911 128.665 37.8016 128.737 36.2133C128.956 30.7844 132.043 25.5483 136.787 23.1055C139.088 21.9024 141.648 21.2803 144.244 21.2936C146.84 21.3068 149.394 21.9551 151.682 23.1817L151.317 23.3138C153.856 17.1484 159.173 12.6792 164.958 10.6173C170.742 8.55543 177.197 8.78397 182.255 11.4299C187.063 13.9738 190.845 18.0999 192.961 23.1106C194.896 27.531 195.349 32.4591 194.251 37.158L194.053 36.9345C196.816 36.6426 199.608 37.0423 202.179 38.0975C204.465 39.0256 206.523 40.4376 208.212 42.2365C208.983 43.0422 209.626 43.9621 210.116 44.9637C210.549 45.893 210.889 46.8626 211.132 47.8585C211.545 49.5922 211.776 51.3639 211.823 53.1453C211.912 55.5996 211.701 58.0556 211.193 60.4585C211.058 61.0819 210.888 61.6973 210.685 62.302C210.543 62.7083 210.467 62.9013 210.467 62.9013" fill="#FFD95B"/>
<g opacity="0.3">
<path d="M210.502 62.9013C210.502 62.9013 210.35 62.9013 210.04 62.9013H208.644L203.215 62.9368L182.844 63.0079L112.552 63.1146H112.359L112.308 62.9317C111.539 60.2913 111.404 57.5065 111.914 54.804C112.424 52.1015 113.566 49.5577 115.245 47.3798C116.925 45.2018 119.095 43.4513 121.579 42.2708C124.063 41.0902 126.79 40.5129 129.54 40.586L129.281 40.9212C128.849 39.3911 128.665 37.8016 128.737 36.2133C128.956 30.7844 132.043 25.5483 136.787 23.1055C139.088 21.9024 141.648 21.2803 144.244 21.2936C146.84 21.3068 149.394 21.9551 151.682 23.1817L151.317 23.3138C153.856 17.1484 159.173 12.6792 164.958 10.6173C170.742 8.55543 177.197 8.78397 182.255 11.4299C187.063 13.9738 190.845 18.0999 192.961 23.1106C194.896 27.531 195.349 32.4591 194.251 37.158L194.053 36.9345C196.816 36.6426 199.608 37.0423 202.179 38.0975C204.465 39.0256 206.523 40.4376 208.212 42.2365C208.983 43.0422 209.626 43.9621 210.116 44.9637C210.549 45.893 210.889 46.8626 211.132 47.8585C211.545 49.5922 211.776 51.3639 211.823 53.1453C211.912 55.5996 211.701 58.0556 211.193 60.4585C211.058 61.0819 210.888 61.6973 210.685 62.302C210.543 62.7083 210.467 62.9013 210.467 62.9013" fill="black"/>
</g>
<path d="M202.732 62.9013C202.732 62.9013 202.58 62.9013 202.265 62.9013H200.873L195.439 62.9369L175.074 63.008L104.777 63.1146H104.589L104.533 62.9318C103.763 60.291 103.628 57.5057 104.139 54.8028C104.649 52.0999 105.791 49.5558 107.471 47.3778C109.151 45.1997 111.322 43.4493 113.807 42.2691C116.291 41.0889 119.02 40.5122 121.769 40.5861L121.51 40.9213C121.075 39.3867 120.891 37.7916 120.967 36.1982C121.18 30.7692 124.273 25.5332 129.017 23.0904C131.316 21.8872 133.876 21.2652 136.471 21.2784C139.067 21.2917 141.62 21.94 143.907 23.1666L143.546 23.2986C146.086 17.1332 151.403 12.6641 157.187 10.6022C162.972 8.54029 169.422 8.76883 174.48 11.4148C179.289 13.9569 183.071 18.0836 185.186 23.0955C187.126 27.5049 187.589 32.4233 186.506 37.1174L186.308 36.894C189.071 36.5999 191.864 36.9997 194.434 38.057C196.722 38.9837 198.782 40.3958 200.472 42.196C201.242 43.0019 201.883 43.9218 202.372 44.9232C202.806 45.8516 203.147 46.8214 203.387 47.818C203.8 49.5516 204.031 51.3234 204.078 53.1048C204.166 55.5593 203.953 58.0154 203.443 60.4179C203.31 61.0418 203.14 61.6574 202.935 62.2614C202.793 62.6677 202.717 62.8607 202.717 62.8607" fill="#FFD95B"/>
<path d="M172.322 40.2204C172.176 39.7532 172.099 39.2674 172.093 38.7781C171.997 38.3211 171.915 37.7624 171.753 37.1174L171.463 36.1017C171.352 35.7462 171.189 35.3856 171.047 34.9997C170.298 33.2183 169.214 31.5976 167.853 30.2258C166.182 28.5572 164.128 27.3238 161.87 26.6341C159.612 25.9443 157.22 25.8192 154.902 26.2696C153.006 26.635 151.2 27.372 149.59 28.4381C148.501 29.1623 147.504 30.0148 146.619 30.9774C146.299 31.3177 146.066 31.597 145.903 31.7849C145.74 31.9728 145.639 32.0592 145.619 32.0439C145.598 32.0287 145.649 31.9068 145.776 31.6935C145.953 31.3731 146.155 31.0674 146.38 30.7794C147.199 29.7034 148.173 28.7551 149.27 27.9658C150.912 26.7875 152.782 25.9642 154.76 25.5484C157.197 25.035 159.723 25.1477 162.105 25.876C164.486 26.6042 166.643 27.9243 168.376 29.7129C169.774 31.1707 170.859 32.8989 171.565 34.7914C171.697 35.1977 171.855 35.5786 171.946 35.9494C172.037 36.3201 172.108 36.6807 172.185 37.0108C172.312 37.6812 172.347 38.2652 172.398 38.7375C172.442 39.2329 172.416 39.7321 172.322 40.2204Z" fill="#FAFAFA"/>
<path d="M165.354 35.0453C165.486 34.8675 168.665 37.0767 172.464 39.9461L172.677 40.1036L172.063 40.2915C173.586 35.9137 174.988 32.4654 175.191 32.5365C175.394 32.6076 174.333 36.1677 172.809 40.5505L172.631 41.0583L172.195 40.7282L171.986 40.5657C168.183 37.6963 165.222 35.1977 165.354 35.0453Z" fill="#FAFAFA"/>
<path d="M144.821 37.803C144.904 38.2706 144.921 38.7475 144.872 39.2199C144.897 39.6719 144.933 40.2356 144.994 40.8603C145.084 41.577 145.225 42.2865 145.415 42.9831C145.901 44.7947 146.727 46.4975 147.848 48.0008C149.215 49.8401 151.004 51.3241 153.064 52.3277L153.465 52.5308L153.886 52.6984L154.714 53.0235C154.994 53.1149 155.278 53.186 155.557 53.2723C155.832 53.3584 156.112 53.4279 156.395 53.4805C157.473 53.7124 158.574 53.8232 159.676 53.8106C161.551 53.7822 163.403 53.3925 165.13 52.6629C166.303 52.1664 167.413 51.5322 168.437 50.7737C168.802 50.5096 169.082 50.2912 169.269 50.1388C169.457 49.9865 169.569 49.9306 169.589 49.9458C169.61 49.9611 169.539 50.0728 169.376 50.2556C169.148 50.5274 168.898 50.7804 168.63 51.0123C167.653 51.8885 166.553 52.6158 165.364 53.1707C163.595 54.0091 161.673 54.4742 159.717 54.5369C158.556 54.5745 157.396 54.4756 156.258 54.2423C155.959 54.1911 155.664 54.1198 155.375 54.029C155.08 53.9427 154.775 53.8665 154.481 53.77L153.602 53.4297L153.16 53.2571L152.734 53.0387L151.886 52.6019C151.611 52.4394 151.352 52.2617 151.088 52.0941C150.576 51.7567 150.084 51.3887 149.615 50.992C149.382 50.8041 149.179 50.5807 148.96 50.3826C148.742 50.1845 148.529 49.9814 148.346 49.7579L147.787 49.0977L147.518 48.7727L147.279 48.4324C145.682 46.2288 144.743 43.6171 144.572 40.9009C144.572 40.2407 144.572 39.6719 144.572 39.2097C144.585 38.7311 144.669 38.257 144.821 37.803Z" fill="#FAFAFA"/>
<path d="M151.083 43.7906C150.931 43.9481 148.036 41.3834 144.638 38.062L144.445 37.8741L145.08 37.7675C143.018 41.9217 141.221 45.1771 141.017 45.0806C140.814 44.9841 142.307 41.5815 144.359 37.417L144.598 36.9092L144.989 37.2901L145.182 37.478C148.615 40.8146 151.256 43.6332 151.083 43.7906Z" fill="#FAFAFA"/>
<path d="M246.184 88.5228C246.184 88.5228 246.184 88.4365 246.184 88.2638V87.5021C246.184 86.8164 246.184 85.8261 246.159 84.5514C246.159 81.9715 246.159 78.2337 246.118 73.5766L246.21 73.6629L204.875 73.7086L158.995 73.6528H158.919V73.5766C158.919 70.2908 158.945 67.6956 158.955 65.908C158.955 65.0243 158.955 64.3438 158.955 63.8765C158.955 63.6531 158.955 63.4804 158.955 63.3687C158.947 63.3097 158.947 63.2499 158.955 63.1909C158.955 63.1909 158.955 63.2519 158.955 63.3687C158.955 63.4855 158.955 63.6683 158.955 63.8765C158.955 64.3488 158.955 65.0294 158.955 65.908C158.955 67.6956 158.955 70.2908 158.99 73.5766L158.914 73.5004L204.794 73.4446L246.129 73.4852H246.22V73.5766C246.22 78.2337 246.184 81.9715 246.179 84.5514C246.179 85.8261 246.179 86.8164 246.154 87.5021C246.154 87.8322 246.154 88.081 246.154 88.2638C246.169 88.3496 246.179 88.436 246.184 88.5228Z" fill="#FFD95B"/>
<path d="M118.301 85.5976C118.23 85.5976 118.169 80.5597 118.169 74.3435C118.169 68.1273 118.23 63.0894 118.301 63.0894C118.372 63.0894 118.433 68.1273 118.433 74.3435C118.433 80.5597 118.372 85.5976 118.301 85.5976Z" fill="#FFD95B"/>
</svg>
