<svg width="52" height="52" viewBox="0 0 52 52" fill="none" xmlns="http://www.w3.org/2000/svg">
<path d="M28.5525 1.57243C28.6883 1.57188 28.8241 1.57115 28.96 1.57027C29.3239 1.56844 29.6877 1.56913 30.0516 1.57043C30.4355 1.57147 30.8195 1.5705 31.2035 1.56986C31.8478 1.56913 32.4921 1.57009 33.1365 1.57203C33.8774 1.57424 34.6183 1.57353 35.3593 1.57129C35.9997 1.56944 36.6402 1.56919 37.2807 1.57025C37.6613 1.57088 38.0419 1.57098 38.4226 1.56963C38.7807 1.56844 39.1388 1.56929 39.497 1.57161C39.6882 1.57239 39.8794 1.57121 40.0707 1.56994C41.2729 1.58163 42.44 1.84995 43.5068 2.41845C43.5743 2.45332 43.6418 2.48818 43.7114 2.52411C44.2541 2.81199 44.7323 3.15072 45.1952 3.55468C45.2935 3.6331 45.3919 3.71153 45.4932 3.79232C46.8721 4.94335 47.7555 6.8707 47.9613 8.63435C47.997 9.12951 47.9945 9.62477 47.9914 10.1209C47.9916 10.2788 47.992 10.4367 47.9925 10.5946C47.9931 10.9229 47.9923 11.2512 47.9904 11.5796C47.9881 11.9955 47.9894 12.4114 47.9918 12.8274C47.9933 13.1527 47.9928 13.4779 47.9918 13.8032C47.9915 13.9564 47.9918 14.1095 47.9928 14.2627C47.9995 15.6332 47.8124 16.9881 47.1503 18.2114C47.1155 18.2781 47.0807 18.3448 47.0448 18.4136C46.0017 20.3607 44.3264 21.8629 42.1975 22.5247C42.1072 22.5515 42.0169 22.5783 41.9239 22.6058C41.8327 22.6329 41.7415 22.66 41.6476 22.6879C41.5782 22.7084 41.5089 22.7289 41.4374 22.75C41.4292 22.811 41.421 22.872 41.4125 22.9348C41.3264 23.571 41.2388 24.2069 41.1504 24.8427C41.1176 25.0799 41.0852 25.3171 41.0532 25.5544C41.0071 25.8959 40.9595 26.2372 40.9118 26.5784C40.8908 26.737 40.8908 26.737 40.8694 26.8988C40.7047 28.053 40.7047 28.053 40.3202 28.4375C40.1282 28.4688 40.1282 28.4688 39.8886 28.4819C39.8106 28.4881 39.7325 28.4942 39.6521 28.5006C39.1737 28.3779 38.9694 27.9442 38.7256 27.5458C38.5234 27.1997 38.3262 26.8512 38.1303 26.5015C38.0311 26.3259 37.9319 26.1504 37.8326 25.9748C37.7638 25.8532 37.6952 25.7315 37.6266 25.6098C37.1072 24.6878 36.5803 23.77 36.0546 22.8516C35.0772 22.8374 34.0999 22.8266 33.1225 22.82C32.6685 22.8168 32.2147 22.8125 31.7608 22.8056C31.3222 22.7989 30.8837 22.7953 30.4451 22.7937C30.2783 22.7926 30.1115 22.7904 29.9447 22.7871C28.9819 22.7688 28.2782 22.7932 27.5234 23.4609C26.1558 24.2241 24.846 24.4389 23.3157 24.3193C19.0688 23.8683 19.0688 23.8683 15.2636 25.3375C14.3454 26.1606 13.5734 27.1393 12.9124 28.1779C12.7968 28.3359 12.7968 28.3359 12.5937 28.4375C11.8633 28.4964 11.8633 28.4964 11.5674 28.2841C11.2995 27.9321 11.3238 27.6158 11.3352 27.1918C11.3358 27.1112 11.3364 27.0306 11.337 26.9476C11.3393 26.6909 11.3443 26.4344 11.3495 26.1777C11.3516 26.0034 11.3534 25.8291 11.3551 25.6548C11.3596 25.2282 11.3666 24.8016 11.3749 24.375C11.3162 24.3696 11.2575 24.3642 11.1971 24.3586C9.43935 24.1824 7.9008 23.427 6.60148 22.2422C6.50152 22.1528 6.50152 22.1528 6.39954 22.0617C4.96885 20.7135 4.11149 18.7708 4.02366 16.8194C4.00627 16.1984 4.0053 15.5777 4.00945 14.9565C4.01163 14.5683 4.00946 14.1803 4.00687 13.7921C4.00489 12.1754 4.08207 10.7576 4.85587 9.30566C4.89074 9.23812 4.9256 9.17058 4.96152 9.101C5.24941 8.55834 5.58814 8.08015 5.9921 7.61718C6.10973 7.4697 6.10973 7.4697 6.22974 7.31924C7.02618 6.36513 8.18162 5.69029 9.34366 5.28125C9.43785 5.24724 9.53205 5.21323 9.62909 5.1782C10.8867 4.78366 12.1303 4.82338 13.4375 4.83532C13.6835 4.83608 13.9295 4.83666 14.1756 4.83706C14.8182 4.8386 15.4608 4.84258 16.1035 4.8471C16.7612 4.85128 17.4189 4.85312 18.0766 4.85516C19.3636 4.8595 20.6505 4.86634 21.9374 4.875C21.9661 4.81451 21.9948 4.75402 22.0243 4.69171C22.7548 3.2906 24.4714 2.38515 25.919 1.92865C26.8114 1.67275 27.6187 1.56619 28.5525 1.57243ZM24.1718 4.875C24.099 4.9364 24.0262 4.9978 23.9512 5.06106C22.5204 6.37816 22.0065 8.14271 21.9256 10.0244C21.9094 10.6383 21.9085 11.2521 21.9109 11.8661C21.912 12.187 21.9109 12.5078 21.9096 12.8286C21.9078 15.0991 22.0382 17.0808 23.5624 18.8906C23.6152 18.9548 23.6679 19.0189 23.7223 19.085C24.9035 20.3882 26.6302 21.0473 28.3547 21.1365C28.8685 21.1523 29.3823 21.1533 29.8963 21.1529C30.1862 21.1528 30.4761 21.1541 30.766 21.1558C31.5891 21.1605 32.4123 21.163 33.2354 21.1637C33.7414 21.1642 34.2473 21.1666 34.7533 21.1703C34.9454 21.1713 35.1375 21.1715 35.3297 21.171C35.5973 21.1703 35.8648 21.172 36.1324 21.1743C36.2115 21.1735 36.2906 21.1727 36.372 21.1718C36.7297 21.1773 36.9285 21.1953 37.2148 21.4183C37.3854 21.6469 37.5261 21.8734 37.6598 22.1255C37.7107 22.2205 37.7616 22.3154 37.8141 22.4132C37.8661 22.5118 37.918 22.6103 37.9716 22.7119C38.3632 23.4481 38.7668 24.172 39.203 24.8828C39.4731 24.6127 39.4596 24.4323 39.5077 24.0556C39.5245 23.9303 39.5412 23.8049 39.5585 23.6758C39.5753 23.5441 39.592 23.4125 39.6093 23.2768C39.6425 23.018 39.6764 22.7592 39.7109 22.5005C39.7255 22.3853 39.7402 22.2701 39.7553 22.1514C39.8098 21.8502 39.8805 21.6024 40.0155 21.3281C40.2147 21.2262 40.2147 21.2262 40.4599 21.1694C40.5509 21.1459 40.6419 21.1223 40.7356 21.098C40.8331 21.0734 40.9307 21.0488 41.0312 21.0234C42.8989 20.4777 44.473 19.4123 45.4805 17.71C46.3146 16.0472 46.3462 14.3442 46.3389 12.5242C46.3378 12.2015 46.3389 11.8789 46.3402 11.5563C46.342 9.19508 46.183 7.24849 44.5859 5.38281C44.5297 5.31525 44.4735 5.2477 44.4157 5.1781C43.2512 3.89516 41.5878 3.37383 39.914 3.25C39.0386 3.21339 38.162 3.22134 37.286 3.22302C37.0323 3.22288 36.7785 3.22268 36.5248 3.22243C35.9952 3.22213 35.4656 3.22256 34.936 3.22351C34.261 3.22467 33.5859 3.224 32.9108 3.22279C32.3875 3.22205 31.8642 3.22229 31.3409 3.22281C31.0921 3.22295 30.8433 3.22279 30.5946 3.22231C28.2045 3.21873 26.0851 3.25486 24.1718 4.875ZM7.92179 8.12499C7.849 8.1864 7.77621 8.2478 7.70121 8.31106C6.36025 9.54547 5.77536 11.222 5.68741 13C5.67093 13.5438 5.66444 14.0873 5.66202 14.6313C5.66121 14.734 5.66121 14.734 5.66037 14.8388C5.64833 16.8418 5.9171 18.5462 7.10929 20.2109C7.17763 20.3076 7.17763 20.3076 7.24735 20.4061C8.38664 21.8671 10.1574 22.5255 11.9335 22.75C12.111 22.7688 12.111 22.7688 12.2922 22.7881C12.6209 22.8573 12.7015 22.894 12.8984 23.1562C12.9423 23.4053 12.9423 23.4053 12.9503 23.697C12.9557 23.8536 12.9557 23.8536 12.9612 24.0134C12.9635 24.1222 12.9658 24.2311 12.9682 24.3433C12.9716 24.4533 12.9751 24.5633 12.9787 24.6767C12.9871 24.9485 12.9941 25.2203 12.9999 25.4922C13.6059 24.9912 14.156 24.4461 14.7074 23.8862C14.8792 23.7118 15.0513 23.5377 15.2236 23.3637C15.2988 23.2873 15.3741 23.2109 15.4516 23.1321C15.804 22.7983 16.075 22.8374 16.5511 22.8339C16.624 22.8332 16.6968 22.8326 16.7719 22.8319C16.9306 22.8304 17.0893 22.8292 17.2481 22.8282C17.5006 22.8265 17.7532 22.8242 18.0058 22.8216C18.7241 22.8145 19.4425 22.8084 20.1608 22.8031C20.6003 22.7999 21.0398 22.7957 21.4793 22.7909C21.6455 22.7893 21.8118 22.7881 21.9781 22.7872C23.8284 22.8082 23.8284 22.8082 25.5937 22.3437C25.3313 22.1688 25.0694 22.0304 24.7876 21.8908C22.8311 20.9039 21.6846 19.461 20.8202 17.4687C20.7532 17.3347 20.6862 17.2006 20.6171 17.0625C17.5672 17.0625 14.5173 17.0625 11.3749 17.0625C11.3749 16.5262 11.3749 15.99 11.3749 15.4375C14.3243 15.4375 17.2737 15.4375 20.3124 15.4375C20.3124 14.365 20.3124 13.2925 20.3124 12.1875C16.8268 12.1875 13.3412 12.1875 9.74991 12.1875C9.74991 11.6512 9.74991 11.115 9.74991 10.5625C13.2355 10.5625 16.7212 10.5625 20.3124 10.5625C20.3459 9.85867 20.3794 9.15484 20.414 8.42968C20.5366 7.90475 20.6577 7.41468 20.8202 6.90625C20.8548 6.77102 20.8888 6.63563 20.9218 6.5C19.796 6.49526 18.6703 6.49167 17.5445 6.48947C17.0217 6.48842 16.4988 6.48699 15.9759 6.48467C15.4702 6.48244 14.9644 6.48125 14.4587 6.48072C14.2669 6.48035 14.0751 6.47963 13.8833 6.47852C11.6553 6.46619 9.69568 6.62291 7.92179 8.12499Z" fill="black"/>
<path d="M18.4474 31.1626C20.6994 32.8851 22.1777 35.1967 22.7075 37.9915C22.8873 39.6816 22.8722 41.437 22.3437 43.0625C22.3119 43.161 22.3119 43.161 22.2794 43.2615C21.7441 44.8533 20.8747 46.1425 19.7031 47.3281C19.6378 47.4007 19.5724 47.4734 19.5051 47.5483C18.0039 49.1797 15.5069 50.2735 13.3033 50.3913C9.79276 50.4378 7.08305 49.7016 4.51949 47.2202C2.43463 45.132 1.59601 42.4394 1.59277 39.5395C1.62264 36.5724 2.85908 34.0618 4.94967 31.9749C8.57088 28.4957 14.4088 28.3565 18.4474 31.1626ZM5.34746 34.0924C3.73097 36.1387 3.19337 38.4544 3.35152 41.0312C3.59829 43.094 4.71792 44.9924 6.19527 46.414C6.3613 46.5208 6.52985 46.6241 6.70308 46.7187C6.73149 46.6241 6.7599 46.5294 6.78917 46.4319C7.37974 44.5279 8.31803 42.843 10.1118 41.8691C11.188 41.3347 12.3487 41.1811 13.5078 41.539C15.3598 42.2802 16.4555 43.5891 17.2434 45.3881C17.4148 45.8244 17.555 46.2648 17.6718 46.7187C19.4144 45.6252 20.3648 43.6664 20.9091 41.7421C21.3898 39.4275 20.9195 37.0337 19.6971 35.0299C18.3596 33.0249 16.3094 31.514 13.9208 31.0245C10.6404 30.5695 7.55306 31.5749 5.34746 34.0924ZM9.41988 44.6621C8.83793 45.4913 8.3823 46.5265 8.22652 47.5312C8.29542 47.8513 8.29542 47.8513 8.55819 47.966C10.9142 48.9281 13.2774 48.9565 15.6406 48.039C15.8127 47.9423 15.9832 47.8424 16.1484 47.7343C15.8892 46.0206 15.1446 44.5903 13.8125 43.4687C12.0995 42.3731 10.5854 43.2294 9.41988 44.6621Z" fill="black"/>
<path d="M46.0593 31.1558C48.3805 32.9321 49.9471 35.3719 50.375 38.289C50.4683 39.9022 50.4756 41.5162 49.9687 43.0624C49.9369 43.1607 49.9369 43.1607 49.9044 43.261C49.3692 44.853 48.4998 46.1422 47.3281 47.328C47.2628 47.4007 47.1974 47.4733 47.1301 47.5482C45.6289 49.1797 43.1319 50.2734 40.9283 50.3913C37.4178 50.4378 34.708 49.7015 32.1445 47.2201C30.0459 45.1181 29.2212 42.4164 29.2178 39.4981C29.2285 38.4716 29.3389 37.5384 29.6562 36.5624C29.688 36.4639 29.688 36.4639 29.7205 36.3633C30.2558 34.7716 31.1253 33.4824 32.2968 32.2968C32.3622 32.2241 32.4275 32.1514 32.4948 32.0766C35.8995 28.3764 42.1369 28.3942 46.0593 31.1558ZM33.0078 34.0233C31.29 36.2032 30.6914 38.6254 31.0051 41.3839C31.1751 42.4675 31.6592 43.4379 32.1953 44.3827C32.2444 44.4692 32.2935 44.5558 32.344 44.6449C32.64 45.1211 33.0018 45.5351 33.3759 45.9506C33.4234 46.0035 33.4709 46.0564 33.5199 46.111C33.768 46.3785 33.9858 46.5845 34.3281 46.7186C34.3565 46.624 34.3849 46.5293 34.4142 46.4318C35.0047 44.5279 35.943 42.8429 37.7368 41.869C38.813 41.3347 39.9737 41.1811 41.1328 41.539C42.9848 42.2802 44.0805 43.589 44.8684 45.388C45.0398 45.8243 45.18 46.2648 45.2968 46.7186C46.9779 45.6637 47.9932 43.7308 48.5341 41.869C49.0213 39.4914 48.6201 36.9949 47.308 34.951C47.0332 34.553 46.7314 34.1849 46.414 33.8202C46.3062 33.6953 46.3062 33.6953 46.1962 33.5679C44.584 31.8331 42.2995 31.0523 39.9954 30.8558C37.357 30.7643 34.7133 32.0485 33.0078 34.0233ZM37.0449 44.662C36.4629 45.4912 36.0073 46.5265 35.8515 47.5311C35.9204 47.8513 35.9204 47.8513 36.1832 47.966C38.5392 48.9281 40.9024 48.9565 43.2656 48.039C43.4377 47.9422 43.6082 47.8424 43.7734 47.7343C43.5142 46.0205 42.7696 44.5902 41.4375 43.4686C39.7245 42.3731 38.2104 43.2293 37.0449 44.662Z" fill="black"/>
<path d="M42.8551 33.1863C43.7543 34.1733 43.936 35.2301 43.9064 36.5161C43.8503 37.6227 43.336 38.4482 42.548 39.2003C41.5138 40.0718 40.4202 40.2308 39.1088 40.1399C38.0154 40.022 37.172 39.3895 36.4801 38.5684C35.7221 37.5161 35.6142 36.4017 35.7501 35.1406C35.9704 34.0443 36.6429 33.2039 37.5318 32.5512C39.2936 31.4728 41.3784 31.8011 42.8551 33.1863ZM38.086 34.3281C37.523 35.0839 37.3943 35.7258 37.4767 36.6641C37.655 37.3387 38.1323 37.7995 38.6954 38.1875C39.3047 38.4862 40.0038 38.5022 40.6568 38.3279C41.2793 38.0532 41.7666 37.5366 42.0644 36.9291C42.258 36.3191 42.2566 35.5974 41.9962 35.0073C41.6843 34.4757 41.2088 34.0716 40.6695 33.7822C39.7159 33.5377 38.8528 33.6683 38.086 34.3281Z" fill="black"/>
<path d="M14.7671 32.7797C15.569 33.439 16.1605 34.2962 16.2724 35.3507C16.3432 36.6672 16.2105 37.7489 15.3332 38.7901C14.5074 39.6552 13.6289 40.1174 12.4277 40.165C11.1568 40.1807 10.1794 39.8946 9.24226 39C8.34765 38.0628 8.06152 37.0855 8.07727 35.8145C8.12482 34.6133 8.58702 33.7349 9.45213 32.909C10.9938 31.61 13.1616 31.6056 14.7671 32.7797ZM10.461 34.3281C9.91599 34.9497 9.7622 35.5358 9.80641 36.3546C9.91886 37.124 10.2765 37.5441 10.8573 38.0407C11.4654 38.4596 12.0809 38.4633 12.797 38.3906C13.4718 38.2105 13.9318 37.7359 14.3204 37.1718C14.619 36.5626 14.6351 35.8634 14.4608 35.2104C14.1648 34.5398 13.5686 34.0063 12.8985 33.7187C11.9805 33.5351 11.1798 33.701 10.461 34.3281Z" fill="black"/>
<path d="M25.1875 6.5C31.0863 6.5 36.985 6.5 43.0625 6.5C43.0625 7.03625 43.0625 7.5725 43.0625 8.125C37.1637 8.125 31.265 8.125 25.1875 8.125C25.1875 7.58875 25.1875 7.0525 25.1875 6.5Z" fill="black"/>
<path d="M26.8125 11.375C31.6388 11.375 36.465 11.375 41.4375 11.375C41.4375 11.9112 41.4375 12.4475 41.4375 13C36.6112 13 31.785 13 26.8125 13C26.8125 12.4638 26.8125 11.9275 26.8125 11.375Z" fill="black"/>
<path d="M28.4375 16.25C32.1912 16.25 35.945 16.25 39.8125 16.25C39.8125 16.7862 39.8125 17.3225 39.8125 17.875C36.0588 17.875 32.305 17.875 28.4375 17.875C28.4375 17.3388 28.4375 16.8025 28.4375 16.25Z" fill="black"/>
</svg>
