<svg width="132" height="133" viewBox="0 0 132 133" fill="none" xmlns="http://www.w3.org/2000/svg">
<path d="M126.417 18.5841L125.625 17.2548C118.923 6.01599 106.838 -0.756575 94.0955 0.0675641C92.4524 0.16402 90.8187 0.386187 89.2082 0.732192C77.6221 3.2611 67.5413 12.197 63.3643 23.6419C60.9044 30.3713 60.2201 38.1208 55.5446 43.4644C49.4779 50.4165 39.1723 50.6325 30.1308 50.3467C21.0893 50.0609 10.7609 50.3035 4.71695 57.2821C0.943974 61.6719 -0.258296 67.9061 0.0447147 73.7416C0.852745 89.2407 11.4484 103.102 24.9079 109.99C38.3675 116.879 54.2316 117.494 68.9684 114.463C89.6155 110.22 109.253 98.5621 121.054 80.5673C132.855 62.5725 135.843 38.0178 126.417 18.5841Z" fill="#FEF5D8"/>
<mask id="path-2-outside-1_2606_13065" maskUnits="userSpaceOnUse" x="3.61548" y="8.29565" width="124" height="125" fill="black">
<rect fill="white" x="3.61548" y="8.29565" width="124" height="125"/>
<path d="M33.5611 9.29616C33.8025 9.29682 33.8025 9.29682 34.0488 9.29749C36.6206 9.30925 39.0917 9.45059 41.5896 10.0925C41.7486 10.1324 41.9075 10.1724 42.0713 10.2136C44.6138 10.8773 46.8851 11.9584 49.1877 13.2176C49.5931 13.4319 49.5931 13.4319 50.0067 13.6505C55.9295 16.9029 60.5103 21.3953 64.3839 26.9201C65.2118 26.5633 65.7236 26.0878 66.3428 25.4326C67.3129 24.4299 68.3168 23.5041 69.3702 22.593C69.6118 22.3785 69.8533 22.1637 70.0946 21.9488C78.551 14.4559 87.9661 8.81329 99.5252 9.37129C105.806 9.83843 111.577 12.2608 116.384 16.3427C116.578 16.5032 116.773 16.6638 116.973 16.8292C122.092 21.2075 125.403 27.9511 126.356 34.6127C126.622 39.3794 126.502 44.0836 124.608 48.5246C124.428 49.1342 124.45 49.4143 124.694 49.998C125.021 50.3654 125.021 50.3654 125.421 50.659C125.651 50.8375 125.881 51.016 126.119 51.1999C126.095 51.6319 126.095 51.6319 125.881 52.1615C125.199 52.5709 125.199 52.5709 124.353 52.9428C124.074 53.068 123.795 53.1932 123.508 53.3222C122.794 53.6039 122.794 53.6039 122.32 53.6039C122.264 53.7706 122.209 53.9373 122.153 54.1091C121.782 54.947 121.276 55.6244 120.717 56.3384C120.61 56.4766 120.503 56.6149 120.392 56.7573C120.087 57.15 119.779 57.5408 119.47 57.931C119.336 58.102 119.202 58.2731 119.064 58.4493C118.192 59.5223 117.206 60.4167 116.146 61.2965C115.816 61.5759 115.816 61.5759 115.48 61.8609C111.108 65.4774 105.591 67.7746 99.9194 68.055C98.9218 68.1149 98.4563 68.1756 97.6433 68.8107C97.073 69.5044 96.506 70.1959 95.9636 70.9123C95.8501 71.0573 95.7365 71.2023 95.6195 71.3518C94.6479 72.7998 94.4408 74.7873 94.6197 76.4874C95.0983 78.7325 96.1199 80.6016 98.0322 81.8948C99.7918 82.9183 101.709 83.0445 103.695 83.0823C104.161 83.0945 104.626 83.1075 105.091 83.1217C105.294 83.1259 105.496 83.1301 105.705 83.1345C106.174 83.1724 106.174 83.1724 106.411 83.4128C106.435 83.8688 106.441 84.3257 106.442 84.7824C106.442 85.0752 106.443 85.368 106.444 85.6696C106.444 85.9916 106.443 86.3136 106.443 86.6356C106.443 86.9634 106.443 87.2913 106.443 87.6191C106.444 88.3071 106.443 88.995 106.442 89.6829C106.441 90.5665 106.441 91.4501 106.443 92.3337C106.444 93.0109 106.443 93.6882 106.443 94.3654C106.443 94.6913 106.443 95.0172 106.443 95.3431C106.444 95.7978 106.443 96.2525 106.442 96.7073C106.441 97.0961 106.441 97.0961 106.441 97.4929C106.411 98.0769 106.411 98.0769 106.174 98.3173C105.779 98.3435 105.383 98.3547 104.987 98.3595C104.742 98.3652 104.496 98.371 104.243 98.3769C103.728 98.387 103.213 98.3946 102.698 98.3994C100.308 98.4635 98.3745 99.0325 96.6175 100.729C95.0848 102.471 94.4622 104.558 94.5677 106.884C94.9714 109.568 96.6047 111.352 98.5206 113.11C98.9233 113.49 98.9233 113.49 99.5252 114.183C99.4418 115.58 98.0503 116.597 97.1508 117.549C96.9541 117.757 96.9541 117.757 96.7534 117.97C95.8518 118.921 94.941 119.862 94.0245 120.798C93.7021 121.129 93.3809 121.46 93.061 121.793C92.5935 122.28 92.1221 122.762 91.6498 123.244C91.508 123.393 91.3663 123.542 91.2202 123.696C90.5741 124.346 90.1427 124.721 89.2671 125.021C88.6029 125.001 88.6029 125.001 88.1444 124.713C88.0147 124.566 87.8851 124.42 87.7515 124.27C87.5302 124.031 87.5302 124.031 87.3044 123.787C87.1551 123.618 87.0057 123.448 86.8518 123.273C85.4162 121.667 83.9479 120.315 81.7162 120.136C78.918 120.077 77.0993 120.593 75.0484 122.56C73.8244 123.956 73.3961 125.475 73.3399 127.31C73.331 127.566 73.3222 127.822 73.313 128.086C73.2962 128.627 73.2795 129.167 73.2629 129.707C73.2541 129.962 73.2452 130.217 73.236 130.48C73.2289 130.715 73.2217 130.949 73.2142 131.19C73.1693 131.732 73.1693 131.732 72.9318 131.972C72.4728 131.995 72.013 132.001 71.5535 132C71.2588 132 70.9641 132 70.6604 132C70.3364 131.998 70.0124 131.997 69.6883 131.996C69.3586 131.996 69.0289 131.995 68.6992 131.995C67.8299 131.994 66.9606 131.992 66.0913 131.989C65.2048 131.987 64.3183 131.985 63.4319 131.984C61.6914 131.982 59.9509 131.978 58.2105 131.972C58.2058 131.831 58.2011 131.689 58.1962 131.543C58.1733 130.89 58.1474 130.237 58.1214 129.584C58.1104 129.25 58.1104 129.25 58.0992 128.909C57.9817 126.085 57.5105 123.931 55.4354 121.936C53.6472 120.463 51.8431 119.986 49.5457 120.077C46.9637 120.438 45.347 122 43.6807 123.898C43.5492 124.044 43.4177 124.189 43.2823 124.339C43.1674 124.472 43.0525 124.605 42.9341 124.742C42.5394 125.001 42.5394 125.001 41.984 124.953C41.2317 124.724 40.9015 124.428 40.3455 123.87C40.1555 123.681 39.9654 123.493 39.7696 123.298C39.568 123.093 39.3663 122.888 39.1586 122.676C38.9495 122.466 38.7403 122.256 38.5249 122.039C37.9707 121.48 37.419 120.919 36.8679 120.357C36.5292 120.013 36.1886 119.671 35.8471 119.331C35.1917 118.676 34.5405 118.017 33.8904 117.357C33.6864 117.154 33.4823 116.951 33.2721 116.741C33.0858 116.549 32.8995 116.358 32.7075 116.16C32.5424 115.993 32.3772 115.825 32.2071 115.653C31.7748 115.03 31.7601 114.689 31.8545 113.943C32.1408 113.536 32.1408 113.536 32.5399 113.174C32.684 113.038 32.8281 112.902 32.9766 112.762C33.1303 112.621 33.284 112.48 33.4424 112.335C35.1034 110.74 36.4129 109.117 36.6516 106.729C36.7031 104.374 36.017 102.262 34.4664 100.481C32.3797 98.6838 30.3637 98.4838 27.7141 98.4074C27.4498 98.3981 27.1855 98.3888 26.9132 98.3792C26.2651 98.3567 25.617 98.3361 24.9687 98.3173C24.6512 97.6743 24.7011 97.1816 24.7006 96.4617C24.6998 96.1737 24.6991 95.8857 24.6983 95.5891C24.699 95.1207 24.699 95.1206 24.6997 94.6428C24.6996 94.3207 24.6993 93.9986 24.699 93.6764C24.6987 93.0013 24.6992 92.3261 24.7003 91.6509C24.7017 90.7838 24.7009 89.9166 24.6995 89.0495C24.6986 88.3844 24.6989 87.7193 24.6995 87.0543C24.6997 86.5785 24.699 86.1026 24.6983 85.6268C24.6994 85.196 24.6994 85.196 24.7006 84.7565C24.7007 84.5023 24.7009 84.248 24.7011 83.9861C24.7313 83.4128 24.7313 83.4128 24.9687 83.1724C25.3461 83.1432 25.7246 83.1292 26.1031 83.1217C26.338 83.1149 26.5729 83.1081 26.8149 83.101C27.3071 83.0887 27.7993 83.078 28.2915 83.0691C30.54 82.9987 32.798 82.6649 34.4664 81.0089C35.8732 79.3427 36.4679 77.5037 36.6924 75.3446C36.4831 73.402 35.9171 71.6599 34.5257 70.2512C34.3788 70.1025 34.3788 70.1025 34.2289 69.9507C34.2289 69.792 34.2289 69.6334 34.2289 69.4699C34.0701 69.4783 33.9112 69.4867 33.7475 69.4953C26.4694 69.703 19.8263 66.2532 14.5906 61.3489C13.1725 59.9808 11.8926 58.5103 10.9087 56.79C9.60118 54.5442 8.427 53.5317 6.03186 52.5493C5.65033 52.3574 5.65033 52.3574 5.2611 52.1615C5.18275 51.8442 5.10439 51.5269 5.02366 51.1999C5.57215 50.724 6.12064 50.248 6.68575 49.7576C6.47 48.5059 6.08635 47.3059 5.71326 46.0953C3.42382 38.4385 4.89439 30.5012 8.46656 23.5245C12.0344 17.1908 17.6319 12.6262 24.5087 10.4981C24.6963 10.4398 24.884 10.3815 25.0773 10.3214C27.8795 9.50162 30.6538 9.28356 33.5611 9.29616ZM13.3341 18.9871C8.14714 25.0592 5.41822 32.8368 5.97343 40.863C6.27425 43.4515 6.91259 45.9168 7.88408 48.3283C8.13497 49.1133 8.22055 49.6602 8.1104 50.4787C7.63551 51.0497 7.63551 51.0497 7.16063 51.4403C11.1551 53.6084 15.2119 55.6486 19.2701 57.6906C19.8267 57.127 19.8322 56.9297 19.9297 56.1592C19.9582 55.9417 19.9867 55.7242 20.016 55.5002C20.0447 55.2645 20.0734 55.0289 20.103 54.7861C20.134 54.5442 20.1649 54.3023 20.1968 54.0531C20.262 53.5405 20.3262 53.0278 20.3895 52.515C20.4863 51.7313 20.5861 50.9479 20.6864 50.1646C20.7494 49.6668 20.8121 49.169 20.8747 48.6711C20.9044 48.4369 20.9341 48.2028 20.9646 47.9615C20.9916 47.7417 21.0186 47.522 21.0464 47.2956C21.0703 47.1032 21.0942 46.9109 21.1188 46.7128C21.1723 46.122 21.1783 45.5426 21.1697 44.9497C20.9885 45.029 20.8073 45.1083 20.6206 45.1901C19.9825 45.4305 19.9825 45.4305 19.2701 45.4305C19.1156 44.94 18.9625 44.4491 18.8101 43.958C18.7247 43.6847 18.6393 43.4114 18.5513 43.1298C17.2044 38.3213 18.0498 32.9683 20.3535 28.6244C22.3112 25.2888 25.4562 23.3371 29.1239 22.3676C29.5579 22.2759 29.9932 22.1898 30.4299 22.1122C30.7286 22.0577 31.0273 22.0031 31.3351 21.9469C31.666 21.9151 31.9976 21.8912 32.3294 21.8718C32.7169 21.8486 32.7169 21.8486 33.1122 21.8248C37.7187 21.6797 42.1463 23.5154 45.8635 26.1989C46.1041 26.3712 46.3447 26.5435 46.5926 26.721C50.5252 29.6181 53.603 33.2712 56.0735 37.4974C56.9557 36.6394 57.7203 35.7328 58.4628 34.7479C59.522 33.3615 60.6228 32.0195 61.7578 30.696C62.4135 29.9314 63.0525 29.1582 63.6716 28.3625C62.5964 26.6361 61.4929 25.0889 60.1156 23.5968C59.7309 23.1781 59.3753 22.7564 59.0267 22.3075C58.2697 21.4232 57.4391 20.6923 56.5484 19.9486C56.3081 19.7472 56.0678 19.5458 55.8203 19.3383C53.7971 17.671 51.6781 16.2297 49.4252 14.9004C49.2754 14.812 49.1257 14.7236 48.9715 14.6326C37.8237 8.14413 22.3638 9.05684 13.3341 18.9871ZM74.3565 20.189C74.1208 20.3765 73.8851 20.564 73.6423 20.7572C72.2348 21.9 70.9008 23.113 69.5807 24.3565C68.9854 24.9127 68.3792 25.4512 67.7675 25.9886C65.1423 28.3759 62.758 31.0806 60.5849 33.8915C60.3823 34.1468 60.1795 34.4019 59.9764 34.6568C58.7572 36.1961 57.5892 37.7678 56.4593 39.3755C56.3436 39.5392 56.2278 39.7028 56.1085 39.8715C55.2972 41.0388 54.5995 42.2481 53.9365 43.5073C56.2505 43.8998 58.562 44.1609 60.8965 44.3787C61.2371 44.4112 61.5776 44.4438 61.9182 44.4764C62.74 44.555 63.5619 44.6325 64.3839 44.7093C64.3325 44.9786 64.2811 45.2479 64.2281 45.5253C64.1613 45.8793 64.0945 46.2333 64.0278 46.5874C63.9938 46.7648 63.9598 46.9422 63.9248 47.125C63.7881 47.8531 63.6716 48.5338 63.6716 49.2768C64.5838 49.3883 64.5838 49.3883 64.9493 48.955C65.096 48.7304 65.096 48.7304 65.2456 48.5011C65.4137 48.2505 65.4137 48.2505 65.5851 47.9948C65.7029 47.8129 65.8208 47.6311 65.9421 47.4438C66.1962 47.0658 66.451 46.6883 66.7064 46.3113C66.8344 46.1217 66.9623 45.9321 67.0941 45.7368C71.2081 39.7635 76.4392 33.6903 82.192 29.324C82.3256 29.2211 82.4592 29.1181 82.5968 29.012C87.5518 25.1986 93.0216 21.4898 99.5252 22.1122C103.351 22.6904 106.902 24.4083 109.324 27.5508C112.201 31.5606 113.674 36.3688 112.915 41.3269C112.66 42.7285 112.339 44.0843 111.872 45.4305C111.216 45.3048 110.608 45.1639 109.973 44.9497C110.312 46.8947 110.655 48.8392 111 50.7831C111.101 51.3511 111.202 51.9191 111.302 52.4872C111.426 53.1904 111.552 53.893 111.679 54.5955C111.716 54.8058 111.753 55.0161 111.79 55.2328C111.963 56.3299 111.963 56.3299 112.584 57.2098C113.865 56.5821 115.144 55.9536 116.423 55.3244C116.858 55.1108 117.292 54.8975 117.727 54.6844C118.355 54.3765 118.983 54.0677 119.61 53.7588C119.802 53.6651 119.993 53.5714 120.191 53.4749C121.479 52.8394 122.735 52.1571 123.982 51.4403C123.825 51.3114 123.668 51.1825 123.507 51.0497C123.032 50.4787 123.032 50.4787 122.96 49.8468C123.05 48.8316 123.353 47.989 123.7 47.0381C126.04 40.2234 125.605 33.0881 122.539 26.5614C121.487 24.427 120.262 22.5101 118.758 20.6698C118.595 20.4659 118.433 20.262 118.265 20.0519C113.508 14.3716 106.288 11.1837 99.0503 10.5733C89.5319 10.1233 81.648 14.3439 74.3565 20.189ZM23.7815 26.1989C20.6027 29.0861 19.3116 33.0485 18.9511 37.2458C18.8985 39.3639 19.0266 42.0525 19.9825 43.9881C20.8444 43.7501 21.7063 43.5121 22.5943 43.2669C22.5573 43.525 22.5202 43.7832 22.4821 44.0491C22.4353 44.3944 22.3886 44.7396 22.342 45.0849C22.3174 45.2542 22.2927 45.4236 22.2674 45.5981C22.0822 47.0007 21.9897 48.232 22.7909 49.4627C25.6055 52.5237 29.0922 55.0026 33.3135 55.3477C38.8823 55.5438 43.6852 52.6073 47.6425 48.8843C47.9372 48.6026 47.9372 48.6026 48.2379 48.3152C48.4638 48.1076 48.6897 47.9 48.9224 47.686C49.2521 47.3727 49.2521 47.3727 49.5884 47.0531C49.8909 46.7687 49.8909 46.7687 50.1996 46.4784C50.6806 45.9447 50.6806 45.9447 50.5734 45.2887C50.5079 45.0975 50.4424 44.9063 50.3749 44.7093C50.2917 44.4465 50.2084 44.1837 50.1226 43.913C50.0492 43.6998 49.9757 43.4866 49.9 43.2669C50.0555 43.3171 50.211 43.3673 50.3712 43.419C51.2356 43.5748 51.6772 43.5781 52.5119 43.2669C53.6955 42.0207 54.5302 40.4394 55.3612 38.9398C54.0327 36.1021 52.0211 33.7575 49.9 31.4876C49.7029 31.2725 49.5058 31.0575 49.3027 30.8359C42.8463 24.0125 31.9771 19.566 23.7815 26.1989ZM73.5175 39.3566C72.9816 40.0009 72.4703 40.6618 71.9821 41.3438C74.1519 46.6789 82.8722 50.9768 87.7656 53.1153C92.5158 55.0803 97.7437 55.8145 102.612 53.8443C104.477 52.9879 106.074 51.8575 107.598 50.4787C107.772 50.325 107.945 50.1713 108.124 50.013C108.755 49.3858 109.219 48.9113 109.325 48.0016C109.271 47.3677 109.158 46.7731 109.023 46.1516C108.937 45.621 108.853 45.0901 108.771 44.559C108.697 44.1326 108.624 43.7062 108.548 43.2669C109.41 43.5049 110.272 43.7429 111.16 43.9881C112.679 39.7576 112.103 35.2175 110.284 31.2021C108.477 27.7573 105.709 25.2469 102.137 23.795C91.2023 20.4381 80.0852 31.8369 73.5175 39.3566ZM70.7949 42.7861C70.4323 43.1693 70.4323 43.1693 70.063 43.6735C69.8484 43.955 69.8484 43.955 69.6294 44.2421C69.4056 44.5403 69.4056 44.5403 69.1773 44.8445C69.0308 45.0368 68.8844 45.2291 68.7335 45.4272C68.309 45.9866 67.8887 46.5489 67.4707 47.1132C67.3481 47.2784 67.2256 47.4435 67.0993 47.6136C66.4894 48.3661 66.4894 48.3661 66.2835 49.2768C66.5729 49.2858 66.5729 49.2858 66.8682 49.295C67.7369 49.3228 68.6055 49.3524 69.4741 49.382C69.7779 49.3914 70.0816 49.4009 70.3946 49.4106C70.6831 49.4207 70.9716 49.4307 71.2688 49.4411C71.5361 49.4499 71.8035 49.4587 72.0789 49.4678C72.6944 49.5172 72.6944 49.5172 72.9318 49.7576C72.9578 50.1573 72.9688 50.558 72.9736 50.9586C72.9792 51.2073 72.9849 51.456 72.9907 51.7122C73.0008 52.2336 73.0083 52.7551 73.013 53.2766C73.072 55.5329 73.5517 57.5416 75.1087 59.2297C76.9013 60.8124 78.935 61.6787 81.3202 61.6092C83.9884 61.3051 85.6396 59.8191 87.4167 57.8972C87.6292 57.6685 87.6292 57.6685 87.8461 57.4352C87.9652 57.2985 88.0842 57.1618 88.2069 57.021C88.7689 56.6066 89.1058 56.6479 89.7901 56.729C90.2897 57.1032 90.2897 57.1032 90.7884 57.6338C90.9771 57.8311 91.1658 58.0284 91.3602 58.2317C91.5611 58.4473 91.7619 58.6629 91.9688 58.885C92.3999 59.3343 92.831 59.7835 93.2623 60.2326C93.9398 60.9442 94.6146 61.6584 95.2879 62.3742C95.9375 63.0641 96.5948 63.7465 97.2519 64.4291C97.4513 64.6447 97.6507 64.8603 97.8562 65.0825C98.9987 66.3279 98.9987 66.3279 100.555 66.7299C100.842 66.6822 101.129 66.6344 101.425 66.5852C101.607 66.5636 101.789 66.542 101.976 66.5198C102.471 66.4147 102.965 66.3088 103.458 66.1945C103.643 66.1517 103.829 66.1089 104.02 66.0647C108.103 65.0719 111.794 63.1258 114.959 60.3349C115.156 60.1642 115.354 59.9934 115.557 59.8175C116.963 58.5736 118.317 57.259 119.47 55.7674C119.47 55.6088 119.47 55.4501 119.47 55.2866C118.491 55.5954 117.603 55.9675 116.693 56.4454C116.445 56.574 116.197 56.7026 115.941 56.8351C115.423 57.1061 114.904 57.3778 114.387 57.6502C114.139 57.7782 113.891 57.9062 113.636 58.038C113.412 58.1558 113.187 58.2736 112.955 58.395C112.347 58.6522 112.347 58.6522 111.397 58.6522C110.849 55.8756 110.3 53.099 109.735 50.2384C109.187 50.7143 108.638 51.1903 108.073 51.6807C104.221 54.8616 99.7906 56.4837 94.7764 56.0078C85.8242 54.8793 77.8387 49.6968 71.6917 43.189C71.3088 42.7312 71.3088 42.7312 70.7949 42.7861ZM52.037 44.7093C52.0655 44.9719 52.0655 44.9719 52.0945 45.2398C52.0187 46.1246 51.718 46.4011 51.1169 47.0381C50.9198 47.2476 50.7227 47.4571 50.5196 47.6729C50.3151 47.8849 50.1107 48.0968 49.9 48.3152C49.6301 48.6108 49.6301 48.6108 49.3547 48.9124C45.5177 53.0057 40.3984 56.1569 34.7229 56.3486C30.2949 56.3867 26.5414 54.7657 23.3066 51.6807C22.8744 51.2144 22.4968 50.7522 22.1194 50.2384C21.571 51.0713 21.5197 51.5861 21.3988 52.5737C21.3789 52.7305 21.3591 52.8873 21.3386 53.0488C21.2756 53.5492 21.2151 54.0498 21.1548 54.5504C21.0933 55.0502 21.0312 55.5499 20.9685 56.0495C20.9118 56.5034 20.8565 56.9575 20.8014 57.4116C20.7183 58.0036 20.6174 58.5588 20.4573 59.133C19.2932 58.9996 18.365 58.6187 17.3354 58.0803C17.1012 57.9607 17.1012 57.9607 16.8623 57.8388C16.368 57.5858 15.875 57.3303 15.382 57.0746C15.0454 56.9018 14.7088 56.7291 14.372 56.5567C13.5501 56.1354 12.7295 55.7117 11.9095 55.2866C11.9095 56.5119 12.8175 57.263 13.5715 58.1714C13.753 58.3936 13.9345 58.6157 14.1216 58.8447C18.495 63.9485 24.895 67.6598 31.6319 68.1778C31.855 68.1958 32.0782 68.2137 32.3081 68.2323C32.5537 68.2499 32.5537 68.2499 32.8043 68.2679C32.6818 68.1341 32.5594 68.0002 32.4333 67.8623C32.0919 67.3064 32.0919 67.3064 32.0974 66.7691C32.4378 65.7937 33.073 65.2372 33.8004 64.5296C33.949 64.3811 34.0975 64.2327 34.2506 64.0797C34.7259 63.6054 35.2044 63.1345 35.6832 62.6637C36.3081 62.0447 36.9317 61.4243 37.555 60.8035C37.778 60.5819 37.778 60.5819 38.0056 60.3558C38.9082 59.4547 39.7762 58.5372 40.5915 57.5533C41.2609 56.7487 41.2609 56.7487 41.8882 56.6135C42.8428 56.7828 43.3081 57.4003 43.9343 58.0963C44.1867 58.3631 44.4399 58.6292 44.694 58.8944C44.8144 59.0206 44.9348 59.1468 45.0588 59.2769C46.5218 60.7711 48.2755 61.5424 50.3452 61.6421C52.7709 61.5544 54.8057 60.434 56.4816 58.7141C58.5952 56.1862 58.3593 52.6464 58.4479 49.5172C59.7016 49.4378 60.9553 49.3585 62.247 49.2768C62.652 48.0465 62.8539 47.1702 62.9593 45.9113C62.4651 45.4109 61.466 45.5078 60.7834 45.437C60.5874 45.416 60.3914 45.395 60.1895 45.3734C59.7731 45.329 59.3567 45.2852 58.9403 45.2419C58.307 45.1758 57.6739 45.1077 57.0409 45.0394C56.6362 44.9965 56.2315 44.9538 55.8268 44.9112C55.6387 44.8909 55.4507 44.8706 55.257 44.8497C54.177 44.7387 53.1225 44.6897 52.037 44.7093ZM59.3977 50.7191C59.3193 52.3057 59.241 53.8924 59.1602 55.527C58.4599 58.153 57.2345 60.137 54.8863 61.5369C52.7096 62.6778 50.3697 62.8573 47.9801 62.3398C45.6437 61.5745 43.958 59.9451 42.3019 58.1714C41.5787 58.4986 41.0819 58.8669 40.5251 59.435C40.3682 59.5938 40.2114 59.7525 40.0499 59.9161C39.8834 60.0872 39.7169 60.2582 39.5454 60.4345C39.2865 60.6976 39.2865 60.6976 39.0224 60.966C38.4722 61.5258 37.9236 62.0872 37.375 62.6487C37.002 63.0288 36.6288 63.4088 36.2555 63.7887C35.3413 64.7196 34.4284 65.6519 33.5166 66.5852C33.854 67.3018 34.163 67.7528 34.7483 68.283C36.7316 70.2363 37.7809 72.3908 37.8796 75.1793C37.8291 78.1852 36.6374 80.3269 34.5554 82.3911C32.0954 84.4378 29.2992 84.2069 26.1559 84.3744C26.1559 88.5789 26.1559 92.7834 26.1559 97.1153C27.8797 97.1946 29.6036 97.2739 31.3796 97.3557C34.5877 98.6549 35.8589 99.6388 37.324 102.673C38.1383 104.705 38.145 107.231 37.375 109.27C36.69 110.814 35.7156 112.028 34.5257 113.192C34.4054 113.311 34.2851 113.431 34.1612 113.554C33.8683 113.845 33.5739 114.135 33.2792 114.424C34.2711 115.622 35.3048 116.748 36.4011 117.848C36.5572 118.006 36.7133 118.164 36.8741 118.326C37.367 118.824 37.8607 119.321 38.3545 119.818C38.6912 120.157 39.0279 120.497 39.3645 120.837C40.1847 121.665 41.0057 122.492 41.827 123.318C42.7083 122.904 43.2252 122.403 43.8898 121.681C45.5932 119.918 47.1786 118.985 49.6241 118.921C52.3339 118.896 54.4165 119.349 56.5475 121.159C59.2481 123.862 59.2083 126.936 59.3977 130.771C63.4722 130.771 67.5467 130.771 71.7446 130.771C71.9013 128.946 72.058 127.121 72.2195 125.241C73.3318 122.426 74.3326 120.857 77.0193 119.51C79.3302 118.538 81.7513 118.532 84.1212 119.352C85.5332 119.98 86.5715 121.027 87.6532 122.116C87.7894 122.251 87.9256 122.385 88.0659 122.524C88.3276 122.785 88.5848 123.051 88.8404 123.318C89.5745 122.987 90.0742 122.609 90.639 122.033C90.8006 121.869 90.9622 121.705 91.1286 121.537C91.3003 121.361 91.472 121.184 91.6489 121.003C91.8267 120.822 92.0045 120.641 92.1878 120.455C92.755 119.878 93.3205 119.299 93.886 118.721C94.2705 118.329 94.6551 117.937 95.0398 117.546C95.9822 116.587 96.9232 115.626 97.8631 114.664C97.6367 114.395 97.4101 114.126 97.1834 113.858C97.0572 113.708 96.931 113.558 96.801 113.404C96.3678 112.899 95.9134 112.416 95.459 111.93C93.813 110.062 93.2539 108.025 93.2868 105.554C93.5159 102.923 94.5224 100.874 96.4181 99.092C99.0251 96.9415 101.868 97.2697 105.224 97.1153C105.224 92.9108 105.224 88.7063 105.224 84.3744C102.756 84.2554 102.756 84.2554 100.238 84.134C97.7074 83.4492 95.9868 82.3774 94.5983 80.1046C93.3921 77.9178 92.9208 75.5421 93.5308 73.0721C94.1948 71.1423 95.1758 69.7069 96.6166 68.298C96.797 68.1186 96.797 68.1186 96.9811 67.9355C97.274 67.6445 97.5684 67.3551 97.8631 67.066C97.5364 66.3227 97.1623 65.8168 96.5933 65.2449C96.4317 65.0814 96.2701 64.9178 96.1036 64.7493C95.9295 64.5755 95.7553 64.4016 95.5759 64.2226C95.3974 64.0425 95.2189 63.8624 95.035 63.6769C94.4651 63.1027 93.8936 62.5301 93.3221 61.9576C92.9352 61.5683 92.5484 61.1789 92.1618 60.7894C91.2142 59.8353 90.2652 58.8826 89.3153 57.931C89.0499 58.1602 88.7846 58.3897 88.5194 58.6192C88.3717 58.7469 88.2239 58.8747 88.0717 59.0063C87.5693 59.4469 87.0853 59.9057 86.5995 60.365C84.3915 62.3601 82.2167 62.6754 79.3397 62.5405C77.3178 62.3604 75.5174 61.3084 74.119 59.8541C71.9788 56.8783 72.0908 54.7492 71.7446 50.7191C67.6701 50.7191 63.5956 50.7191 59.3977 50.7191Z"/>
</mask>
<path d="M33.5611 9.29616C33.8025 9.29682 33.8025 9.29682 34.0488 9.29749C36.6206 9.30925 39.0917 9.45059 41.5896 10.0925C41.7486 10.1324 41.9075 10.1724 42.0713 10.2136C44.6138 10.8773 46.8851 11.9584 49.1877 13.2176C49.5931 13.4319 49.5931 13.4319 50.0067 13.6505C55.9295 16.9029 60.5103 21.3953 64.3839 26.9201C65.2118 26.5633 65.7236 26.0878 66.3428 25.4326C67.3129 24.4299 68.3168 23.5041 69.3702 22.593C69.6118 22.3785 69.8533 22.1637 70.0946 21.9488C78.551 14.4559 87.9661 8.81329 99.5252 9.37129C105.806 9.83843 111.577 12.2608 116.384 16.3427C116.578 16.5032 116.773 16.6638 116.973 16.8292C122.092 21.2075 125.403 27.9511 126.356 34.6127C126.622 39.3794 126.502 44.0836 124.608 48.5246C124.428 49.1342 124.45 49.4143 124.694 49.998C125.021 50.3654 125.021 50.3654 125.421 50.659C125.651 50.8375 125.881 51.016 126.119 51.1999C126.095 51.6319 126.095 51.6319 125.881 52.1615C125.199 52.5709 125.199 52.5709 124.353 52.9428C124.074 53.068 123.795 53.1932 123.508 53.3222C122.794 53.6039 122.794 53.6039 122.32 53.6039C122.264 53.7706 122.209 53.9373 122.153 54.1091C121.782 54.947 121.276 55.6244 120.717 56.3384C120.61 56.4766 120.503 56.6149 120.392 56.7573C120.087 57.15 119.779 57.5408 119.47 57.931C119.336 58.102 119.202 58.2731 119.064 58.4493C118.192 59.5223 117.206 60.4167 116.146 61.2965C115.816 61.5759 115.816 61.5759 115.48 61.8609C111.108 65.4774 105.591 67.7746 99.9194 68.055C98.9218 68.1149 98.4563 68.1756 97.6433 68.8107C97.073 69.5044 96.506 70.1959 95.9636 70.9123C95.8501 71.0573 95.7365 71.2023 95.6195 71.3518C94.6479 72.7998 94.4408 74.7873 94.6197 76.4874C95.0983 78.7325 96.1199 80.6016 98.0322 81.8948C99.7918 82.9183 101.709 83.0445 103.695 83.0823C104.161 83.0945 104.626 83.1075 105.091 83.1217C105.294 83.1259 105.496 83.1301 105.705 83.1345C106.174 83.1724 106.174 83.1724 106.411 83.4128C106.435 83.8688 106.441 84.3257 106.442 84.7824C106.442 85.0752 106.443 85.368 106.444 85.6696C106.444 85.9916 106.443 86.3136 106.443 86.6356C106.443 86.9634 106.443 87.2913 106.443 87.6191C106.444 88.3071 106.443 88.995 106.442 89.6829C106.441 90.5665 106.441 91.4501 106.443 92.3337C106.444 93.0109 106.443 93.6882 106.443 94.3654C106.443 94.6913 106.443 95.0172 106.443 95.3431C106.444 95.7978 106.443 96.2525 106.442 96.7073C106.441 97.0961 106.441 97.0961 106.441 97.4929C106.411 98.0769 106.411 98.0769 106.174 98.3173C105.779 98.3435 105.383 98.3547 104.987 98.3595C104.742 98.3652 104.496 98.371 104.243 98.3769C103.728 98.387 103.213 98.3946 102.698 98.3994C100.308 98.4635 98.3745 99.0325 96.6175 100.729C95.0848 102.471 94.4622 104.558 94.5677 106.884C94.9714 109.568 96.6047 111.352 98.5206 113.11C98.9233 113.49 98.9233 113.49 99.5252 114.183C99.4418 115.58 98.0503 116.597 97.1508 117.549C96.9541 117.757 96.9541 117.757 96.7534 117.97C95.8518 118.921 94.941 119.862 94.0245 120.798C93.7021 121.129 93.3809 121.46 93.061 121.793C92.5935 122.28 92.1221 122.762 91.6498 123.244C91.508 123.393 91.3663 123.542 91.2202 123.696C90.5741 124.346 90.1427 124.721 89.2671 125.021C88.6029 125.001 88.6029 125.001 88.1444 124.713C88.0147 124.566 87.8851 124.42 87.7515 124.27C87.5302 124.031 87.5302 124.031 87.3044 123.787C87.1551 123.618 87.0057 123.448 86.8518 123.273C85.4162 121.667 83.9479 120.315 81.7162 120.136C78.918 120.077 77.0993 120.593 75.0484 122.56C73.8244 123.956 73.3961 125.475 73.3399 127.31C73.331 127.566 73.3222 127.822 73.313 128.086C73.2962 128.627 73.2795 129.167 73.2629 129.707C73.2541 129.962 73.2452 130.217 73.236 130.48C73.2289 130.715 73.2217 130.949 73.2142 131.19C73.1693 131.732 73.1693 131.732 72.9318 131.972C72.4728 131.995 72.013 132.001 71.5535 132C71.2588 132 70.9641 132 70.6604 132C70.3364 131.998 70.0124 131.997 69.6883 131.996C69.3586 131.996 69.0289 131.995 68.6992 131.995C67.8299 131.994 66.9606 131.992 66.0913 131.989C65.2048 131.987 64.3183 131.985 63.4319 131.984C61.6914 131.982 59.9509 131.978 58.2105 131.972C58.2058 131.831 58.2011 131.689 58.1962 131.543C58.1733 130.89 58.1474 130.237 58.1214 129.584C58.1104 129.25 58.1104 129.25 58.0992 128.909C57.9817 126.085 57.5105 123.931 55.4354 121.936C53.6472 120.463 51.8431 119.986 49.5457 120.077C46.9637 120.438 45.347 122 43.6807 123.898C43.5492 124.044 43.4177 124.189 43.2823 124.339C43.1674 124.472 43.0525 124.605 42.9341 124.742C42.5394 125.001 42.5394 125.001 41.984 124.953C41.2317 124.724 40.9015 124.428 40.3455 123.87C40.1555 123.681 39.9654 123.493 39.7696 123.298C39.568 123.093 39.3663 122.888 39.1586 122.676C38.9495 122.466 38.7403 122.256 38.5249 122.039C37.9707 121.48 37.419 120.919 36.8679 120.357C36.5292 120.013 36.1886 119.671 35.8471 119.331C35.1917 118.676 34.5405 118.017 33.8904 117.357C33.6864 117.154 33.4823 116.951 33.2721 116.741C33.0858 116.549 32.8995 116.358 32.7075 116.16C32.5424 115.993 32.3772 115.825 32.2071 115.653C31.7748 115.03 31.7601 114.689 31.8545 113.943C32.1408 113.536 32.1408 113.536 32.5399 113.174C32.684 113.038 32.8281 112.902 32.9766 112.762C33.1303 112.621 33.284 112.48 33.4424 112.335C35.1034 110.74 36.4129 109.117 36.6516 106.729C36.7031 104.374 36.017 102.262 34.4664 100.481C32.3797 98.6838 30.3637 98.4838 27.7141 98.4074C27.4498 98.3981 27.1855 98.3888 26.9132 98.3792C26.2651 98.3567 25.617 98.3361 24.9687 98.3173C24.6512 97.6743 24.7011 97.1816 24.7006 96.4617C24.6998 96.1737 24.6991 95.8857 24.6983 95.5891C24.699 95.1207 24.699 95.1206 24.6997 94.6428C24.6996 94.3207 24.6993 93.9986 24.699 93.6764C24.6987 93.0013 24.6992 92.3261 24.7003 91.6509C24.7017 90.7838 24.7009 89.9166 24.6995 89.0495C24.6986 88.3844 24.6989 87.7193 24.6995 87.0543C24.6997 86.5785 24.699 86.1026 24.6983 85.6268C24.6994 85.196 24.6994 85.196 24.7006 84.7565C24.7007 84.5023 24.7009 84.248 24.7011 83.9861C24.7313 83.4128 24.7313 83.4128 24.9687 83.1724C25.3461 83.1432 25.7246 83.1292 26.1031 83.1217C26.338 83.1149 26.5729 83.1081 26.8149 83.101C27.3071 83.0887 27.7993 83.078 28.2915 83.0691C30.54 82.9987 32.798 82.6649 34.4664 81.0089C35.8732 79.3427 36.4679 77.5037 36.6924 75.3446C36.4831 73.402 35.9171 71.6599 34.5257 70.2512C34.3788 70.1025 34.3788 70.1025 34.2289 69.9507C34.2289 69.792 34.2289 69.6334 34.2289 69.4699C34.0701 69.4783 33.9112 69.4867 33.7475 69.4953C26.4694 69.703 19.8263 66.2532 14.5906 61.3489C13.1725 59.9808 11.8926 58.5103 10.9087 56.79C9.60118 54.5442 8.427 53.5317 6.03186 52.5493C5.65033 52.3574 5.65033 52.3574 5.2611 52.1615C5.18275 51.8442 5.10439 51.5269 5.02366 51.1999C5.57215 50.724 6.12064 50.248 6.68575 49.7576C6.47 48.5059 6.08635 47.3059 5.71326 46.0953C3.42382 38.4385 4.89439 30.5012 8.46656 23.5245C12.0344 17.1908 17.6319 12.6262 24.5087 10.4981C24.6963 10.4398 24.884 10.3815 25.0773 10.3214C27.8795 9.50162 30.6538 9.28356 33.5611 9.29616ZM13.3341 18.9871C8.14714 25.0592 5.41822 32.8368 5.97343 40.863C6.27425 43.4515 6.91259 45.9168 7.88408 48.3283C8.13497 49.1133 8.22055 49.6602 8.1104 50.4787C7.63551 51.0497 7.63551 51.0497 7.16063 51.4403C11.1551 53.6084 15.2119 55.6486 19.2701 57.6906C19.8267 57.127 19.8322 56.9297 19.9297 56.1592C19.9582 55.9417 19.9867 55.7242 20.016 55.5002C20.0447 55.2645 20.0734 55.0289 20.103 54.7861C20.134 54.5442 20.1649 54.3023 20.1968 54.0531C20.262 53.5405 20.3262 53.0278 20.3895 52.515C20.4863 51.7313 20.5861 50.9479 20.6864 50.1646C20.7494 49.6668 20.8121 49.169 20.8747 48.6711C20.9044 48.4369 20.9341 48.2028 20.9646 47.9615C20.9916 47.7417 21.0186 47.522 21.0464 47.2956C21.0703 47.1032 21.0942 46.9109 21.1188 46.7128C21.1723 46.122 21.1783 45.5426 21.1697 44.9497C20.9885 45.029 20.8073 45.1083 20.6206 45.1901C19.9825 45.4305 19.9825 45.4305 19.2701 45.4305C19.1156 44.94 18.9625 44.4491 18.8101 43.958C18.7247 43.6847 18.6393 43.4114 18.5513 43.1298C17.2044 38.3213 18.0498 32.9683 20.3535 28.6244C22.3112 25.2888 25.4562 23.3371 29.1239 22.3676C29.5579 22.2759 29.9932 22.1898 30.4299 22.1122C30.7286 22.0577 31.0273 22.0031 31.3351 21.9469C31.666 21.9151 31.9976 21.8912 32.3294 21.8718C32.7169 21.8486 32.7169 21.8486 33.1122 21.8248C37.7187 21.6797 42.1463 23.5154 45.8635 26.1989C46.1041 26.3712 46.3447 26.5435 46.5926 26.721C50.5252 29.6181 53.603 33.2712 56.0735 37.4974C56.9557 36.6394 57.7203 35.7328 58.4628 34.7479C59.522 33.3615 60.6228 32.0195 61.7578 30.696C62.4135 29.9314 63.0525 29.1582 63.6716 28.3625C62.5964 26.6361 61.4929 25.0889 60.1156 23.5968C59.7309 23.1781 59.3753 22.7564 59.0267 22.3075C58.2697 21.4232 57.4391 20.6923 56.5484 19.9486C56.3081 19.7472 56.0678 19.5458 55.8203 19.3383C53.7971 17.671 51.6781 16.2297 49.4252 14.9004C49.2754 14.812 49.1257 14.7236 48.9715 14.6326C37.8237 8.14413 22.3638 9.05684 13.3341 18.9871ZM74.3565 20.189C74.1208 20.3765 73.8851 20.564 73.6423 20.7572C72.2348 21.9 70.9008 23.113 69.5807 24.3565C68.9854 24.9127 68.3792 25.4512 67.7675 25.9886C65.1423 28.3759 62.758 31.0806 60.5849 33.8915C60.3823 34.1468 60.1795 34.4019 59.9764 34.6568C58.7572 36.1961 57.5892 37.7678 56.4593 39.3755C56.3436 39.5392 56.2278 39.7028 56.1085 39.8715C55.2972 41.0388 54.5995 42.2481 53.9365 43.5073C56.2505 43.8998 58.562 44.1609 60.8965 44.3787C61.2371 44.4112 61.5776 44.4438 61.9182 44.4764C62.74 44.555 63.5619 44.6325 64.3839 44.7093C64.3325 44.9786 64.2811 45.2479 64.2281 45.5253C64.1613 45.8793 64.0945 46.2333 64.0278 46.5874C63.9938 46.7648 63.9598 46.9422 63.9248 47.125C63.7881 47.8531 63.6716 48.5338 63.6716 49.2768C64.5838 49.3883 64.5838 49.3883 64.9493 48.955C65.096 48.7304 65.096 48.7304 65.2456 48.5011C65.4137 48.2505 65.4137 48.2505 65.5851 47.9948C65.7029 47.8129 65.8208 47.6311 65.9421 47.4438C66.1962 47.0658 66.451 46.6883 66.7064 46.3113C66.8344 46.1217 66.9623 45.9321 67.0941 45.7368C71.2081 39.7635 76.4392 33.6903 82.192 29.324C82.3256 29.2211 82.4592 29.1181 82.5968 29.012C87.5518 25.1986 93.0216 21.4898 99.5252 22.1122C103.351 22.6904 106.902 24.4083 109.324 27.5508C112.201 31.5606 113.674 36.3688 112.915 41.3269C112.66 42.7285 112.339 44.0843 111.872 45.4305C111.216 45.3048 110.608 45.1639 109.973 44.9497C110.312 46.8947 110.655 48.8392 111 50.7831C111.101 51.3511 111.202 51.9191 111.302 52.4872C111.426 53.1904 111.552 53.893 111.679 54.5955C111.716 54.8058 111.753 55.0161 111.79 55.2328C111.963 56.3299 111.963 56.3299 112.584 57.2098C113.865 56.5821 115.144 55.9536 116.423 55.3244C116.858 55.1108 117.292 54.8975 117.727 54.6844C118.355 54.3765 118.983 54.0677 119.61 53.7588C119.802 53.6651 119.993 53.5714 120.191 53.4749C121.479 52.8394 122.735 52.1571 123.982 51.4403C123.825 51.3114 123.668 51.1825 123.507 51.0497C123.032 50.4787 123.032 50.4787 122.96 49.8468C123.05 48.8316 123.353 47.989 123.7 47.0381C126.04 40.2234 125.605 33.0881 122.539 26.5614C121.487 24.427 120.262 22.5101 118.758 20.6698C118.595 20.4659 118.433 20.262 118.265 20.0519C113.508 14.3716 106.288 11.1837 99.0503 10.5733C89.5319 10.1233 81.648 14.3439 74.3565 20.189ZM23.7815 26.1989C20.6027 29.0861 19.3116 33.0485 18.9511 37.2458C18.8985 39.3639 19.0266 42.0525 19.9825 43.9881C20.8444 43.7501 21.7063 43.5121 22.5943 43.2669C22.5573 43.525 22.5202 43.7832 22.4821 44.0491C22.4353 44.3944 22.3886 44.7396 22.342 45.0849C22.3174 45.2542 22.2927 45.4236 22.2674 45.5981C22.0822 47.0007 21.9897 48.232 22.7909 49.4627C25.6055 52.5237 29.0922 55.0026 33.3135 55.3477C38.8823 55.5438 43.6852 52.6073 47.6425 48.8843C47.9372 48.6026 47.9372 48.6026 48.2379 48.3152C48.4638 48.1076 48.6897 47.9 48.9224 47.686C49.2521 47.3727 49.2521 47.3727 49.5884 47.0531C49.8909 46.7687 49.8909 46.7687 50.1996 46.4784C50.6806 45.9447 50.6806 45.9447 50.5734 45.2887C50.5079 45.0975 50.4424 44.9063 50.3749 44.7093C50.2917 44.4465 50.2084 44.1837 50.1226 43.913C50.0492 43.6998 49.9757 43.4866 49.9 43.2669C50.0555 43.3171 50.211 43.3673 50.3712 43.419C51.2356 43.5748 51.6772 43.5781 52.5119 43.2669C53.6955 42.0207 54.5302 40.4394 55.3612 38.9398C54.0327 36.1021 52.0211 33.7575 49.9 31.4876C49.7029 31.2725 49.5058 31.0575 49.3027 30.8359C42.8463 24.0125 31.9771 19.566 23.7815 26.1989ZM73.5175 39.3566C72.9816 40.0009 72.4703 40.6618 71.9821 41.3438C74.1519 46.6789 82.8722 50.9768 87.7656 53.1153C92.5158 55.0803 97.7437 55.8145 102.612 53.8443C104.477 52.9879 106.074 51.8575 107.598 50.4787C107.772 50.325 107.945 50.1713 108.124 50.013C108.755 49.3858 109.219 48.9113 109.325 48.0016C109.271 47.3677 109.158 46.7731 109.023 46.1516C108.937 45.621 108.853 45.0901 108.771 44.559C108.697 44.1326 108.624 43.7062 108.548 43.2669C109.41 43.5049 110.272 43.7429 111.16 43.9881C112.679 39.7576 112.103 35.2175 110.284 31.2021C108.477 27.7573 105.709 25.2469 102.137 23.795C91.2023 20.4381 80.0852 31.8369 73.5175 39.3566ZM70.7949 42.7861C70.4323 43.1693 70.4323 43.1693 70.063 43.6735C69.8484 43.955 69.8484 43.955 69.6294 44.2421C69.4056 44.5403 69.4056 44.5403 69.1773 44.8445C69.0308 45.0368 68.8844 45.2291 68.7335 45.4272C68.309 45.9866 67.8887 46.5489 67.4707 47.1132C67.3481 47.2784 67.2256 47.4435 67.0993 47.6136C66.4894 48.3661 66.4894 48.3661 66.2835 49.2768C66.5729 49.2858 66.5729 49.2858 66.8682 49.295C67.7369 49.3228 68.6055 49.3524 69.4741 49.382C69.7779 49.3914 70.0816 49.4009 70.3946 49.4106C70.6831 49.4207 70.9716 49.4307 71.2688 49.4411C71.5361 49.4499 71.8035 49.4587 72.0789 49.4678C72.6944 49.5172 72.6944 49.5172 72.9318 49.7576C72.9578 50.1573 72.9688 50.558 72.9736 50.9586C72.9792 51.2073 72.9849 51.456 72.9907 51.7122C73.0008 52.2336 73.0083 52.7551 73.013 53.2766C73.072 55.5329 73.5517 57.5416 75.1087 59.2297C76.9013 60.8124 78.935 61.6787 81.3202 61.6092C83.9884 61.3051 85.6396 59.8191 87.4167 57.8972C87.6292 57.6685 87.6292 57.6685 87.8461 57.4352C87.9652 57.2985 88.0842 57.1618 88.2069 57.021C88.7689 56.6066 89.1058 56.6479 89.7901 56.729C90.2897 57.1032 90.2897 57.1032 90.7884 57.6338C90.9771 57.8311 91.1658 58.0284 91.3602 58.2317C91.5611 58.4473 91.7619 58.6629 91.9688 58.885C92.3999 59.3343 92.831 59.7835 93.2623 60.2326C93.9398 60.9442 94.6146 61.6584 95.2879 62.3742C95.9375 63.0641 96.5948 63.7465 97.2519 64.4291C97.4513 64.6447 97.6507 64.8603 97.8562 65.0825C98.9987 66.3279 98.9987 66.3279 100.555 66.7299C100.842 66.6822 101.129 66.6344 101.425 66.5852C101.607 66.5636 101.789 66.542 101.976 66.5198C102.471 66.4147 102.965 66.3088 103.458 66.1945C103.643 66.1517 103.829 66.1089 104.02 66.0647C108.103 65.0719 111.794 63.1258 114.959 60.3349C115.156 60.1642 115.354 59.9934 115.557 59.8175C116.963 58.5736 118.317 57.259 119.47 55.7674C119.47 55.6088 119.47 55.4501 119.47 55.2866C118.491 55.5954 117.603 55.9675 116.693 56.4454C116.445 56.574 116.197 56.7026 115.941 56.8351C115.423 57.1061 114.904 57.3778 114.387 57.6502C114.139 57.7782 113.891 57.9062 113.636 58.038C113.412 58.1558 113.187 58.2736 112.955 58.395C112.347 58.6522 112.347 58.6522 111.397 58.6522C110.849 55.8756 110.3 53.099 109.735 50.2384C109.187 50.7143 108.638 51.1903 108.073 51.6807C104.221 54.8616 99.7906 56.4837 94.7764 56.0078C85.8242 54.8793 77.8387 49.6968 71.6917 43.189C71.3088 42.7312 71.3088 42.7312 70.7949 42.7861ZM52.037 44.7093C52.0655 44.9719 52.0655 44.9719 52.0945 45.2398C52.0187 46.1246 51.718 46.4011 51.1169 47.0381C50.9198 47.2476 50.7227 47.4571 50.5196 47.6729C50.3151 47.8849 50.1107 48.0968 49.9 48.3152C49.6301 48.6108 49.6301 48.6108 49.3547 48.9124C45.5177 53.0057 40.3984 56.1569 34.7229 56.3486C30.2949 56.3867 26.5414 54.7657 23.3066 51.6807C22.8744 51.2144 22.4968 50.7522 22.1194 50.2384C21.571 51.0713 21.5197 51.5861 21.3988 52.5737C21.3789 52.7305 21.3591 52.8873 21.3386 53.0488C21.2756 53.5492 21.2151 54.0498 21.1548 54.5504C21.0933 55.0502 21.0312 55.5499 20.9685 56.0495C20.9118 56.5034 20.8565 56.9575 20.8014 57.4116C20.7183 58.0036 20.6174 58.5588 20.4573 59.133C19.2932 58.9996 18.365 58.6187 17.3354 58.0803C17.1012 57.9607 17.1012 57.9607 16.8623 57.8388C16.368 57.5858 15.875 57.3303 15.382 57.0746C15.0454 56.9018 14.7088 56.7291 14.372 56.5567C13.5501 56.1354 12.7295 55.7117 11.9095 55.2866C11.9095 56.5119 12.8175 57.263 13.5715 58.1714C13.753 58.3936 13.9345 58.6157 14.1216 58.8447C18.495 63.9485 24.895 67.6598 31.6319 68.1778C31.855 68.1958 32.0782 68.2137 32.3081 68.2323C32.5537 68.2499 32.5537 68.2499 32.8043 68.2679C32.6818 68.1341 32.5594 68.0002 32.4333 67.8623C32.0919 67.3064 32.0919 67.3064 32.0974 66.7691C32.4378 65.7937 33.073 65.2372 33.8004 64.5296C33.949 64.3811 34.0975 64.2327 34.2506 64.0797C34.7259 63.6054 35.2044 63.1345 35.6832 62.6637C36.3081 62.0447 36.9317 61.4243 37.555 60.8035C37.778 60.5819 37.778 60.5819 38.0056 60.3558C38.9082 59.4547 39.7762 58.5372 40.5915 57.5533C41.2609 56.7487 41.2609 56.7487 41.8882 56.6135C42.8428 56.7828 43.3081 57.4003 43.9343 58.0963C44.1867 58.3631 44.4399 58.6292 44.694 58.8944C44.8144 59.0206 44.9348 59.1468 45.0588 59.2769C46.5218 60.7711 48.2755 61.5424 50.3452 61.6421C52.7709 61.5544 54.8057 60.434 56.4816 58.7141C58.5952 56.1862 58.3593 52.6464 58.4479 49.5172C59.7016 49.4378 60.9553 49.3585 62.247 49.2768C62.652 48.0465 62.8539 47.1702 62.9593 45.9113C62.4651 45.4109 61.466 45.5078 60.7834 45.437C60.5874 45.416 60.3914 45.395 60.1895 45.3734C59.7731 45.329 59.3567 45.2852 58.9403 45.2419C58.307 45.1758 57.6739 45.1077 57.0409 45.0394C56.6362 44.9965 56.2315 44.9538 55.8268 44.9112C55.6387 44.8909 55.4507 44.8706 55.257 44.8497C54.177 44.7387 53.1225 44.6897 52.037 44.7093ZM59.3977 50.7191C59.3193 52.3057 59.241 53.8924 59.1602 55.527C58.4599 58.153 57.2345 60.137 54.8863 61.5369C52.7096 62.6778 50.3697 62.8573 47.9801 62.3398C45.6437 61.5745 43.958 59.9451 42.3019 58.1714C41.5787 58.4986 41.0819 58.8669 40.5251 59.435C40.3682 59.5938 40.2114 59.7525 40.0499 59.9161C39.8834 60.0872 39.7169 60.2582 39.5454 60.4345C39.2865 60.6976 39.2865 60.6976 39.0224 60.966C38.4722 61.5258 37.9236 62.0872 37.375 62.6487C37.002 63.0288 36.6288 63.4088 36.2555 63.7887C35.3413 64.7196 34.4284 65.6519 33.5166 66.5852C33.854 67.3018 34.163 67.7528 34.7483 68.283C36.7316 70.2363 37.7809 72.3908 37.8796 75.1793C37.8291 78.1852 36.6374 80.3269 34.5554 82.3911C32.0954 84.4378 29.2992 84.2069 26.1559 84.3744C26.1559 88.5789 26.1559 92.7834 26.1559 97.1153C27.8797 97.1946 29.6036 97.2739 31.3796 97.3557C34.5877 98.6549 35.8589 99.6388 37.324 102.673C38.1383 104.705 38.145 107.231 37.375 109.27C36.69 110.814 35.7156 112.028 34.5257 113.192C34.4054 113.311 34.2851 113.431 34.1612 113.554C33.8683 113.845 33.5739 114.135 33.2792 114.424C34.2711 115.622 35.3048 116.748 36.4011 117.848C36.5572 118.006 36.7133 118.164 36.8741 118.326C37.367 118.824 37.8607 119.321 38.3545 119.818C38.6912 120.157 39.0279 120.497 39.3645 120.837C40.1847 121.665 41.0057 122.492 41.827 123.318C42.7083 122.904 43.2252 122.403 43.8898 121.681C45.5932 119.918 47.1786 118.985 49.6241 118.921C52.3339 118.896 54.4165 119.349 56.5475 121.159C59.2481 123.862 59.2083 126.936 59.3977 130.771C63.4722 130.771 67.5467 130.771 71.7446 130.771C71.9013 128.946 72.058 127.121 72.2195 125.241C73.3318 122.426 74.3326 120.857 77.0193 119.51C79.3302 118.538 81.7513 118.532 84.1212 119.352C85.5332 119.98 86.5715 121.027 87.6532 122.116C87.7894 122.251 87.9256 122.385 88.0659 122.524C88.3276 122.785 88.5848 123.051 88.8404 123.318C89.5745 122.987 90.0742 122.609 90.639 122.033C90.8006 121.869 90.9622 121.705 91.1286 121.537C91.3003 121.361 91.472 121.184 91.6489 121.003C91.8267 120.822 92.0045 120.641 92.1878 120.455C92.755 119.878 93.3205 119.299 93.886 118.721C94.2705 118.329 94.6551 117.937 95.0398 117.546C95.9822 116.587 96.9232 115.626 97.8631 114.664C97.6367 114.395 97.4101 114.126 97.1834 113.858C97.0572 113.708 96.931 113.558 96.801 113.404C96.3678 112.899 95.9134 112.416 95.459 111.93C93.813 110.062 93.2539 108.025 93.2868 105.554C93.5159 102.923 94.5224 100.874 96.4181 99.092C99.0251 96.9415 101.868 97.2697 105.224 97.1153C105.224 92.9108 105.224 88.7063 105.224 84.3744C102.756 84.2554 102.756 84.2554 100.238 84.134C97.7074 83.4492 95.9868 82.3774 94.5983 80.1046C93.3921 77.9178 92.9208 75.5421 93.5308 73.0721C94.1948 71.1423 95.1758 69.7069 96.6166 68.298C96.797 68.1186 96.797 68.1186 96.9811 67.9355C97.274 67.6445 97.5684 67.3551 97.8631 67.066C97.5364 66.3227 97.1623 65.8168 96.5933 65.2449C96.4317 65.0814 96.2701 64.9178 96.1036 64.7493C95.9295 64.5755 95.7553 64.4016 95.5759 64.2226C95.3974 64.0425 95.2189 63.8624 95.035 63.6769C94.4651 63.1027 93.8936 62.5301 93.3221 61.9576C92.9352 61.5683 92.5484 61.1789 92.1618 60.7894C91.2142 59.8353 90.2652 58.8826 89.3153 57.931C89.0499 58.1602 88.7846 58.3897 88.5194 58.6192C88.3717 58.7469 88.2239 58.8747 88.0717 59.0063C87.5693 59.4469 87.0853 59.9057 86.5995 60.365C84.3915 62.3601 82.2167 62.6754 79.3397 62.5405C77.3178 62.3604 75.5174 61.3084 74.119 59.8541C71.9788 56.8783 72.0908 54.7492 71.7446 50.7191C67.6701 50.7191 63.5956 50.7191 59.3977 50.7191Z" fill="#CE9F03"/>
<path d="M33.5611 9.29616C33.8025 9.29682 33.8025 9.29682 34.0488 9.29749C36.6206 9.30925 39.0917 9.45059 41.5896 10.0925C41.7486 10.1324 41.9075 10.1724 42.0713 10.2136C44.6138 10.8773 46.8851 11.9584 49.1877 13.2176C49.5931 13.4319 49.5931 13.4319 50.0067 13.6505C55.9295 16.9029 60.5103 21.3953 64.3839 26.9201C65.2118 26.5633 65.7236 26.0878 66.3428 25.4326C67.3129 24.4299 68.3168 23.5041 69.3702 22.593C69.6118 22.3785 69.8533 22.1637 70.0946 21.9488C78.551 14.4559 87.9661 8.81329 99.5252 9.37129C105.806 9.83843 111.577 12.2608 116.384 16.3427C116.578 16.5032 116.773 16.6638 116.973 16.8292C122.092 21.2075 125.403 27.9511 126.356 34.6127C126.622 39.3794 126.502 44.0836 124.608 48.5246C124.428 49.1342 124.45 49.4143 124.694 49.998C125.021 50.3654 125.021 50.3654 125.421 50.659C125.651 50.8375 125.881 51.016 126.119 51.1999C126.095 51.6319 126.095 51.6319 125.881 52.1615C125.199 52.5709 125.199 52.5709 124.353 52.9428C124.074 53.068 123.795 53.1932 123.508 53.3222C122.794 53.6039 122.794 53.6039 122.32 53.6039C122.264 53.7706 122.209 53.9373 122.153 54.1091C121.782 54.947 121.276 55.6244 120.717 56.3384C120.61 56.4766 120.503 56.6149 120.392 56.7573C120.087 57.15 119.779 57.5408 119.47 57.931C119.336 58.102 119.202 58.2731 119.064 58.4493C118.192 59.5223 117.206 60.4167 116.146 61.2965C115.816 61.5759 115.816 61.5759 115.48 61.8609C111.108 65.4774 105.591 67.7746 99.9194 68.055C98.9218 68.1149 98.4563 68.1756 97.6433 68.8107C97.073 69.5044 96.506 70.1959 95.9636 70.9123C95.8501 71.0573 95.7365 71.2023 95.6195 71.3518C94.6479 72.7998 94.4408 74.7873 94.6197 76.4874C95.0983 78.7325 96.1199 80.6016 98.0322 81.8948C99.7918 82.9183 101.709 83.0445 103.695 83.0823C104.161 83.0945 104.626 83.1075 105.091 83.1217C105.294 83.1259 105.496 83.1301 105.705 83.1345C106.174 83.1724 106.174 83.1724 106.411 83.4128C106.435 83.8688 106.441 84.3257 106.442 84.7824C106.442 85.0752 106.443 85.368 106.444 85.6696C106.444 85.9916 106.443 86.3136 106.443 86.6356C106.443 86.9634 106.443 87.2913 106.443 87.6191C106.444 88.3071 106.443 88.995 106.442 89.6829C106.441 90.5665 106.441 91.4501 106.443 92.3337C106.444 93.0109 106.443 93.6882 106.443 94.3654C106.443 94.6913 106.443 95.0172 106.443 95.3431C106.444 95.7978 106.443 96.2525 106.442 96.7073C106.441 97.0961 106.441 97.0961 106.441 97.4929C106.411 98.0769 106.411 98.0769 106.174 98.3173C105.779 98.3435 105.383 98.3547 104.987 98.3595C104.742 98.3652 104.496 98.371 104.243 98.3769C103.728 98.387 103.213 98.3946 102.698 98.3994C100.308 98.4635 98.3745 99.0325 96.6175 100.729C95.0848 102.471 94.4622 104.558 94.5677 106.884C94.9714 109.568 96.6047 111.352 98.5206 113.11C98.9233 113.49 98.9233 113.49 99.5252 114.183C99.4418 115.58 98.0503 116.597 97.1508 117.549C96.9541 117.757 96.9541 117.757 96.7534 117.97C95.8518 118.921 94.941 119.862 94.0245 120.798C93.7021 121.129 93.3809 121.46 93.061 121.793C92.5935 122.28 92.1221 122.762 91.6498 123.244C91.508 123.393 91.3663 123.542 91.2202 123.696C90.5741 124.346 90.1427 124.721 89.2671 125.021C88.6029 125.001 88.6029 125.001 88.1444 124.713C88.0147 124.566 87.8851 124.42 87.7515 124.27C87.5302 124.031 87.5302 124.031 87.3044 123.787C87.1551 123.618 87.0057 123.448 86.8518 123.273C85.4162 121.667 83.9479 120.315 81.7162 120.136C78.918 120.077 77.0993 120.593 75.0484 122.56C73.8244 123.956 73.3961 125.475 73.3399 127.31C73.331 127.566 73.3222 127.822 73.313 128.086C73.2962 128.627 73.2795 129.167 73.2629 129.707C73.2541 129.962 73.2452 130.217 73.236 130.48C73.2289 130.715 73.2217 130.949 73.2142 131.19C73.1693 131.732 73.1693 131.732 72.9318 131.972C72.4728 131.995 72.013 132.001 71.5535 132C71.2588 132 70.9641 132 70.6604 132C70.3364 131.998 70.0124 131.997 69.6883 131.996C69.3586 131.996 69.0289 131.995 68.6992 131.995C67.8299 131.994 66.9606 131.992 66.0913 131.989C65.2048 131.987 64.3183 131.985 63.4319 131.984C61.6914 131.982 59.9509 131.978 58.2105 131.972C58.2058 131.831 58.2011 131.689 58.1962 131.543C58.1733 130.89 58.1474 130.237 58.1214 129.584C58.1104 129.25 58.1104 129.25 58.0992 128.909C57.9817 126.085 57.5105 123.931 55.4354 121.936C53.6472 120.463 51.8431 119.986 49.5457 120.077C46.9637 120.438 45.347 122 43.6807 123.898C43.5492 124.044 43.4177 124.189 43.2823 124.339C43.1674 124.472 43.0525 124.605 42.9341 124.742C42.5394 125.001 42.5394 125.001 41.984 124.953C41.2317 124.724 40.9015 124.428 40.3455 123.87C40.1555 123.681 39.9654 123.493 39.7696 123.298C39.568 123.093 39.3663 122.888 39.1586 122.676C38.9495 122.466 38.7403 122.256 38.5249 122.039C37.9707 121.48 37.419 120.919 36.8679 120.357C36.5292 120.013 36.1886 119.671 35.8471 119.331C35.1917 118.676 34.5405 118.017 33.8904 117.357C33.6864 117.154 33.4823 116.951 33.2721 116.741C33.0858 116.549 32.8995 116.358 32.7075 116.16C32.5424 115.993 32.3772 115.825 32.2071 115.653C31.7748 115.03 31.7601 114.689 31.8545 113.943C32.1408 113.536 32.1408 113.536 32.5399 113.174C32.684 113.038 32.8281 112.902 32.9766 112.762C33.1303 112.621 33.284 112.48 33.4424 112.335C35.1034 110.74 36.4129 109.117 36.6516 106.729C36.7031 104.374 36.017 102.262 34.4664 100.481C32.3797 98.6838 30.3637 98.4838 27.7141 98.4074C27.4498 98.3981 27.1855 98.3888 26.9132 98.3792C26.2651 98.3567 25.617 98.3361 24.9687 98.3173C24.6512 97.6743 24.7011 97.1816 24.7006 96.4617C24.6998 96.1737 24.6991 95.8857 24.6983 95.5891C24.699 95.1207 24.699 95.1206 24.6997 94.6428C24.6996 94.3207 24.6993 93.9986 24.699 93.6764C24.6987 93.0013 24.6992 92.3261 24.7003 91.6509C24.7017 90.7838 24.7009 89.9166 24.6995 89.0495C24.6986 88.3844 24.6989 87.7193 24.6995 87.0543C24.6997 86.5785 24.699 86.1026 24.6983 85.6268C24.6994 85.196 24.6994 85.196 24.7006 84.7565C24.7007 84.5023 24.7009 84.248 24.7011 83.9861C24.7313 83.4128 24.7313 83.4128 24.9687 83.1724C25.3461 83.1432 25.7246 83.1292 26.1031 83.1217C26.338 83.1149 26.5729 83.1081 26.8149 83.101C27.3071 83.0887 27.7993 83.078 28.2915 83.0691C30.54 82.9987 32.798 82.6649 34.4664 81.0089C35.8732 79.3427 36.4679 77.5037 36.6924 75.3446C36.4831 73.402 35.9171 71.6599 34.5257 70.2512C34.3788 70.1025 34.3788 70.1025 34.2289 69.9507C34.2289 69.792 34.2289 69.6334 34.2289 69.4699C34.0701 69.4783 33.9112 69.4867 33.7475 69.4953C26.4694 69.703 19.8263 66.2532 14.5906 61.3489C13.1725 59.9808 11.8926 58.5103 10.9087 56.79C9.60118 54.5442 8.427 53.5317 6.03186 52.5493C5.65033 52.3574 5.65033 52.3574 5.2611 52.1615C5.18275 51.8442 5.10439 51.5269 5.02366 51.1999C5.57215 50.724 6.12064 50.248 6.68575 49.7576C6.47 48.5059 6.08635 47.3059 5.71326 46.0953C3.42382 38.4385 4.89439 30.5012 8.46656 23.5245C12.0344 17.1908 17.6319 12.6262 24.5087 10.4981C24.6963 10.4398 24.884 10.3815 25.0773 10.3214C27.8795 9.50162 30.6538 9.28356 33.5611 9.29616ZM13.3341 18.9871C8.14714 25.0592 5.41822 32.8368 5.97343 40.863C6.27425 43.4515 6.91259 45.9168 7.88408 48.3283C8.13497 49.1133 8.22055 49.6602 8.1104 50.4787C7.63551 51.0497 7.63551 51.0497 7.16063 51.4403C11.1551 53.6084 15.2119 55.6486 19.2701 57.6906C19.8267 57.127 19.8322 56.9297 19.9297 56.1592C19.9582 55.9417 19.9867 55.7242 20.016 55.5002C20.0447 55.2645 20.0734 55.0289 20.103 54.7861C20.134 54.5442 20.1649 54.3023 20.1968 54.0531C20.262 53.5405 20.3262 53.0278 20.3895 52.515C20.4863 51.7313 20.5861 50.9479 20.6864 50.1646C20.7494 49.6668 20.8121 49.169 20.8747 48.6711C20.9044 48.4369 20.9341 48.2028 20.9646 47.9615C20.9916 47.7417 21.0186 47.522 21.0464 47.2956C21.0703 47.1032 21.0942 46.9109 21.1188 46.7128C21.1723 46.122 21.1783 45.5426 21.1697 44.9497C20.9885 45.029 20.8073 45.1083 20.6206 45.1901C19.9825 45.4305 19.9825 45.4305 19.2701 45.4305C19.1156 44.94 18.9625 44.4491 18.8101 43.958C18.7247 43.6847 18.6393 43.4114 18.5513 43.1298C17.2044 38.3213 18.0498 32.9683 20.3535 28.6244C22.3112 25.2888 25.4562 23.3371 29.1239 22.3676C29.5579 22.2759 29.9932 22.1898 30.4299 22.1122C30.7286 22.0577 31.0273 22.0031 31.3351 21.9469C31.666 21.9151 31.9976 21.8912 32.3294 21.8718C32.7169 21.8486 32.7169 21.8486 33.1122 21.8248C37.7187 21.6797 42.1463 23.5154 45.8635 26.1989C46.1041 26.3712 46.3447 26.5435 46.5926 26.721C50.5252 29.6181 53.603 33.2712 56.0735 37.4974C56.9557 36.6394 57.7203 35.7328 58.4628 34.7479C59.522 33.3615 60.6228 32.0195 61.7578 30.696C62.4135 29.9314 63.0525 29.1582 63.6716 28.3625C62.5964 26.6361 61.4929 25.0889 60.1156 23.5968C59.7309 23.1781 59.3753 22.7564 59.0267 22.3075C58.2697 21.4232 57.4391 20.6923 56.5484 19.9486C56.3081 19.7472 56.0678 19.5458 55.8203 19.3383C53.7971 17.671 51.6781 16.2297 49.4252 14.9004C49.2754 14.812 49.1257 14.7236 48.9715 14.6326C37.8237 8.14413 22.3638 9.05684 13.3341 18.9871ZM74.3565 20.189C74.1208 20.3765 73.8851 20.564 73.6423 20.7572C72.2348 21.9 70.9008 23.113 69.5807 24.3565C68.9854 24.9127 68.3792 25.4512 67.7675 25.9886C65.1423 28.3759 62.758 31.0806 60.5849 33.8915C60.3823 34.1468 60.1795 34.4019 59.9764 34.6568C58.7572 36.1961 57.5892 37.7678 56.4593 39.3755C56.3436 39.5392 56.2278 39.7028 56.1085 39.8715C55.2972 41.0388 54.5995 42.2481 53.9365 43.5073C56.2505 43.8998 58.562 44.1609 60.8965 44.3787C61.2371 44.4112 61.5776 44.4438 61.9182 44.4764C62.74 44.555 63.5619 44.6325 64.3839 44.7093C64.3325 44.9786 64.2811 45.2479 64.2281 45.5253C64.1613 45.8793 64.0945 46.2333 64.0278 46.5874C63.9938 46.7648 63.9598 46.9422 63.9248 47.125C63.7881 47.8531 63.6716 48.5338 63.6716 49.2768C64.5838 49.3883 64.5838 49.3883 64.9493 48.955C65.096 48.7304 65.096 48.7304 65.2456 48.5011C65.4137 48.2505 65.4137 48.2505 65.5851 47.9948C65.7029 47.8129 65.8208 47.6311 65.9421 47.4438C66.1962 47.0658 66.451 46.6883 66.7064 46.3113C66.8344 46.1217 66.9623 45.9321 67.0941 45.7368C71.2081 39.7635 76.4392 33.6903 82.192 29.324C82.3256 29.2211 82.4592 29.1181 82.5968 29.012C87.5518 25.1986 93.0216 21.4898 99.5252 22.1122C103.351 22.6904 106.902 24.4083 109.324 27.5508C112.201 31.5606 113.674 36.3688 112.915 41.3269C112.66 42.7285 112.339 44.0843 111.872 45.4305C111.216 45.3048 110.608 45.1639 109.973 44.9497C110.312 46.8947 110.655 48.8392 111 50.7831C111.101 51.3511 111.202 51.9191 111.302 52.4872C111.426 53.1904 111.552 53.893 111.679 54.5955C111.716 54.8058 111.753 55.0161 111.79 55.2328C111.963 56.3299 111.963 56.3299 112.584 57.2098C113.865 56.5821 115.144 55.9536 116.423 55.3244C116.858 55.1108 117.292 54.8975 117.727 54.6844C118.355 54.3765 118.983 54.0677 119.61 53.7588C119.802 53.6651 119.993 53.5714 120.191 53.4749C121.479 52.8394 122.735 52.1571 123.982 51.4403C123.825 51.3114 123.668 51.1825 123.507 51.0497C123.032 50.4787 123.032 50.4787 122.96 49.8468C123.05 48.8316 123.353 47.989 123.7 47.0381C126.04 40.2234 125.605 33.0881 122.539 26.5614C121.487 24.427 120.262 22.5101 118.758 20.6698C118.595 20.4659 118.433 20.262 118.265 20.0519C113.508 14.3716 106.288 11.1837 99.0503 10.5733C89.5319 10.1233 81.648 14.3439 74.3565 20.189ZM23.7815 26.1989C20.6027 29.0861 19.3116 33.0485 18.9511 37.2458C18.8985 39.3639 19.0266 42.0525 19.9825 43.9881C20.8444 43.7501 21.7063 43.5121 22.5943 43.2669C22.5573 43.525 22.5202 43.7832 22.4821 44.0491C22.4353 44.3944 22.3886 44.7396 22.342 45.0849C22.3174 45.2542 22.2927 45.4236 22.2674 45.5981C22.0822 47.0007 21.9897 48.232 22.7909 49.4627C25.6055 52.5237 29.0922 55.0026 33.3135 55.3477C38.8823 55.5438 43.6852 52.6073 47.6425 48.8843C47.9372 48.6026 47.9372 48.6026 48.2379 48.3152C48.4638 48.1076 48.6897 47.9 48.9224 47.686C49.2521 47.3727 49.2521 47.3727 49.5884 47.0531C49.8909 46.7687 49.8909 46.7687 50.1996 46.4784C50.6806 45.9447 50.6806 45.9447 50.5734 45.2887C50.5079 45.0975 50.4424 44.9063 50.3749 44.7093C50.2917 44.4465 50.2084 44.1837 50.1226 43.913C50.0492 43.6998 49.9757 43.4866 49.9 43.2669C50.0555 43.3171 50.211 43.3673 50.3712 43.419C51.2356 43.5748 51.6772 43.5781 52.5119 43.2669C53.6955 42.0207 54.5302 40.4394 55.3612 38.9398C54.0327 36.1021 52.0211 33.7575 49.9 31.4876C49.7029 31.2725 49.5058 31.0575 49.3027 30.8359C42.8463 24.0125 31.9771 19.566 23.7815 26.1989ZM73.5175 39.3566C72.9816 40.0009 72.4703 40.6618 71.9821 41.3438C74.1519 46.6789 82.8722 50.9768 87.7656 53.1153C92.5158 55.0803 97.7437 55.8145 102.612 53.8443C104.477 52.9879 106.074 51.8575 107.598 50.4787C107.772 50.325 107.945 50.1713 108.124 50.013C108.755 49.3858 109.219 48.9113 109.325 48.0016C109.271 47.3677 109.158 46.7731 109.023 46.1516C108.937 45.621 108.853 45.0901 108.771 44.559C108.697 44.1326 108.624 43.7062 108.548 43.2669C109.41 43.5049 110.272 43.7429 111.16 43.9881C112.679 39.7576 112.103 35.2175 110.284 31.2021C108.477 27.7573 105.709 25.2469 102.137 23.795C91.2023 20.4381 80.0852 31.8369 73.5175 39.3566ZM70.7949 42.7861C70.4323 43.1693 70.4323 43.1693 70.063 43.6735C69.8484 43.955 69.8484 43.955 69.6294 44.2421C69.4056 44.5403 69.4056 44.5403 69.1773 44.8445C69.0308 45.0368 68.8844 45.2291 68.7335 45.4272C68.309 45.9866 67.8887 46.5489 67.4707 47.1132C67.3481 47.2784 67.2256 47.4435 67.0993 47.6136C66.4894 48.3661 66.4894 48.3661 66.2835 49.2768C66.5729 49.2858 66.5729 49.2858 66.8682 49.295C67.7369 49.3228 68.6055 49.3524 69.4741 49.382C69.7779 49.3914 70.0816 49.4009 70.3946 49.4106C70.6831 49.4207 70.9716 49.4307 71.2688 49.4411C71.5361 49.4499 71.8035 49.4587 72.0789 49.4678C72.6944 49.5172 72.6944 49.5172 72.9318 49.7576C72.9578 50.1573 72.9688 50.558 72.9736 50.9586C72.9792 51.2073 72.9849 51.456 72.9907 51.7122C73.0008 52.2336 73.0083 52.7551 73.013 53.2766C73.072 55.5329 73.5517 57.5416 75.1087 59.2297C76.9013 60.8124 78.935 61.6787 81.3202 61.6092C83.9884 61.3051 85.6396 59.8191 87.4167 57.8972C87.6292 57.6685 87.6292 57.6685 87.8461 57.4352C87.9652 57.2985 88.0842 57.1618 88.2069 57.021C88.7689 56.6066 89.1058 56.6479 89.7901 56.729C90.2897 57.1032 90.2897 57.1032 90.7884 57.6338C90.9771 57.8311 91.1658 58.0284 91.3602 58.2317C91.5611 58.4473 91.7619 58.6629 91.9688 58.885C92.3999 59.3343 92.831 59.7835 93.2623 60.2326C93.9398 60.9442 94.6146 61.6584 95.2879 62.3742C95.9375 63.0641 96.5948 63.7465 97.2519 64.4291C97.4513 64.6447 97.6507 64.8603 97.8562 65.0825C98.9987 66.3279 98.9987 66.3279 100.555 66.7299C100.842 66.6822 101.129 66.6344 101.425 66.5852C101.607 66.5636 101.789 66.542 101.976 66.5198C102.471 66.4147 102.965 66.3088 103.458 66.1945C103.643 66.1517 103.829 66.1089 104.02 66.0647C108.103 65.0719 111.794 63.1258 114.959 60.3349C115.156 60.1642 115.354 59.9934 115.557 59.8175C116.963 58.5736 118.317 57.259 119.47 55.7674C119.47 55.6088 119.47 55.4501 119.47 55.2866C118.491 55.5954 117.603 55.9675 116.693 56.4454C116.445 56.574 116.197 56.7026 115.941 56.8351C115.423 57.1061 114.904 57.3778 114.387 57.6502C114.139 57.7782 113.891 57.9062 113.636 58.038C113.412 58.1558 113.187 58.2736 112.955 58.395C112.347 58.6522 112.347 58.6522 111.397 58.6522C110.849 55.8756 110.3 53.099 109.735 50.2384C109.187 50.7143 108.638 51.1903 108.073 51.6807C104.221 54.8616 99.7906 56.4837 94.7764 56.0078C85.8242 54.8793 77.8387 49.6968 71.6917 43.189C71.3088 42.7312 71.3088 42.7312 70.7949 42.7861ZM52.037 44.7093C52.0655 44.9719 52.0655 44.9719 52.0945 45.2398C52.0187 46.1246 51.718 46.4011 51.1169 47.0381C50.9198 47.2476 50.7227 47.4571 50.5196 47.6729C50.3151 47.8849 50.1107 48.0968 49.9 48.3152C49.6301 48.6108 49.6301 48.6108 49.3547 48.9124C45.5177 53.0057 40.3984 56.1569 34.7229 56.3486C30.2949 56.3867 26.5414 54.7657 23.3066 51.6807C22.8744 51.2144 22.4968 50.7522 22.1194 50.2384C21.571 51.0713 21.5197 51.5861 21.3988 52.5737C21.3789 52.7305 21.3591 52.8873 21.3386 53.0488C21.2756 53.5492 21.2151 54.0498 21.1548 54.5504C21.0933 55.0502 21.0312 55.5499 20.9685 56.0495C20.9118 56.5034 20.8565 56.9575 20.8014 57.4116C20.7183 58.0036 20.6174 58.5588 20.4573 59.133C19.2932 58.9996 18.365 58.6187 17.3354 58.0803C17.1012 57.9607 17.1012 57.9607 16.8623 57.8388C16.368 57.5858 15.875 57.3303 15.382 57.0746C15.0454 56.9018 14.7088 56.7291 14.372 56.5567C13.5501 56.1354 12.7295 55.7117 11.9095 55.2866C11.9095 56.5119 12.8175 57.263 13.5715 58.1714C13.753 58.3936 13.9345 58.6157 14.1216 58.8447C18.495 63.9485 24.895 67.6598 31.6319 68.1778C31.855 68.1958 32.0782 68.2137 32.3081 68.2323C32.5537 68.2499 32.5537 68.2499 32.8043 68.2679C32.6818 68.1341 32.5594 68.0002 32.4333 67.8623C32.0919 67.3064 32.0919 67.3064 32.0974 66.7691C32.4378 65.7937 33.073 65.2372 33.8004 64.5296C33.949 64.3811 34.0975 64.2327 34.2506 64.0797C34.7259 63.6054 35.2044 63.1345 35.6832 62.6637C36.3081 62.0447 36.9317 61.4243 37.555 60.8035C37.778 60.5819 37.778 60.5819 38.0056 60.3558C38.9082 59.4547 39.7762 58.5372 40.5915 57.5533C41.2609 56.7487 41.2609 56.7487 41.8882 56.6135C42.8428 56.7828 43.3081 57.4003 43.9343 58.0963C44.1867 58.3631 44.4399 58.6292 44.694 58.8944C44.8144 59.0206 44.9348 59.1468 45.0588 59.2769C46.5218 60.7711 48.2755 61.5424 50.3452 61.6421C52.7709 61.5544 54.8057 60.434 56.4816 58.7141C58.5952 56.1862 58.3593 52.6464 58.4479 49.5172C59.7016 49.4378 60.9553 49.3585 62.247 49.2768C62.652 48.0465 62.8539 47.1702 62.9593 45.9113C62.4651 45.4109 61.466 45.5078 60.7834 45.437C60.5874 45.416 60.3914 45.395 60.1895 45.3734C59.7731 45.329 59.3567 45.2852 58.9403 45.2419C58.307 45.1758 57.6739 45.1077 57.0409 45.0394C56.6362 44.9965 56.2315 44.9538 55.8268 44.9112C55.6387 44.8909 55.4507 44.8706 55.257 44.8497C54.177 44.7387 53.1225 44.6897 52.037 44.7093ZM59.3977 50.7191C59.3193 52.3057 59.241 53.8924 59.1602 55.527C58.4599 58.153 57.2345 60.137 54.8863 61.5369C52.7096 62.6778 50.3697 62.8573 47.9801 62.3398C45.6437 61.5745 43.958 59.9451 42.3019 58.1714C41.5787 58.4986 41.0819 58.8669 40.5251 59.435C40.3682 59.5938 40.2114 59.7525 40.0499 59.9161C39.8834 60.0872 39.7169 60.2582 39.5454 60.4345C39.2865 60.6976 39.2865 60.6976 39.0224 60.966C38.4722 61.5258 37.9236 62.0872 37.375 62.6487C37.002 63.0288 36.6288 63.4088 36.2555 63.7887C35.3413 64.7196 34.4284 65.6519 33.5166 66.5852C33.854 67.3018 34.163 67.7528 34.7483 68.283C36.7316 70.2363 37.7809 72.3908 37.8796 75.1793C37.8291 78.1852 36.6374 80.3269 34.5554 82.3911C32.0954 84.4378 29.2992 84.2069 26.1559 84.3744C26.1559 88.5789 26.1559 92.7834 26.1559 97.1153C27.8797 97.1946 29.6036 97.2739 31.3796 97.3557C34.5877 98.6549 35.8589 99.6388 37.324 102.673C38.1383 104.705 38.145 107.231 37.375 109.27C36.69 110.814 35.7156 112.028 34.5257 113.192C34.4054 113.311 34.2851 113.431 34.1612 113.554C33.8683 113.845 33.5739 114.135 33.2792 114.424C34.2711 115.622 35.3048 116.748 36.4011 117.848C36.5572 118.006 36.7133 118.164 36.8741 118.326C37.367 118.824 37.8607 119.321 38.3545 119.818C38.6912 120.157 39.0279 120.497 39.3645 120.837C40.1847 121.665 41.0057 122.492 41.827 123.318C42.7083 122.904 43.2252 122.403 43.8898 121.681C45.5932 119.918 47.1786 118.985 49.6241 118.921C52.3339 118.896 54.4165 119.349 56.5475 121.159C59.2481 123.862 59.2083 126.936 59.3977 130.771C63.4722 130.771 67.5467 130.771 71.7446 130.771C71.9013 128.946 72.058 127.121 72.2195 125.241C73.3318 122.426 74.3326 120.857 77.0193 119.51C79.3302 118.538 81.7513 118.532 84.1212 119.352C85.5332 119.98 86.5715 121.027 87.6532 122.116C87.7894 122.251 87.9256 122.385 88.0659 122.524C88.3276 122.785 88.5848 123.051 88.8404 123.318C89.5745 122.987 90.0742 122.609 90.639 122.033C90.8006 121.869 90.9622 121.705 91.1286 121.537C91.3003 121.361 91.472 121.184 91.6489 121.003C91.8267 120.822 92.0045 120.641 92.1878 120.455C92.755 119.878 93.3205 119.299 93.886 118.721C94.2705 118.329 94.6551 117.937 95.0398 117.546C95.9822 116.587 96.9232 115.626 97.8631 114.664C97.6367 114.395 97.4101 114.126 97.1834 113.858C97.0572 113.708 96.931 113.558 96.801 113.404C96.3678 112.899 95.9134 112.416 95.459 111.93C93.813 110.062 93.2539 108.025 93.2868 105.554C93.5159 102.923 94.5224 100.874 96.4181 99.092C99.0251 96.9415 101.868 97.2697 105.224 97.1153C105.224 92.9108 105.224 88.7063 105.224 84.3744C102.756 84.2554 102.756 84.2554 100.238 84.134C97.7074 83.4492 95.9868 82.3774 94.5983 80.1046C93.3921 77.9178 92.9208 75.5421 93.5308 73.0721C94.1948 71.1423 95.1758 69.7069 96.6166 68.298C96.797 68.1186 96.797 68.1186 96.9811 67.9355C97.274 67.6445 97.5684 67.3551 97.8631 67.066C97.5364 66.3227 97.1623 65.8168 96.5933 65.2449C96.4317 65.0814 96.2701 64.9178 96.1036 64.7493C95.9295 64.5755 95.7553 64.4016 95.5759 64.2226C95.3974 64.0425 95.2189 63.8624 95.035 63.6769C94.4651 63.1027 93.8936 62.5301 93.3221 61.9576C92.9352 61.5683 92.5484 61.1789 92.1618 60.7894C91.2142 59.8353 90.2652 58.8826 89.3153 57.931C89.0499 58.1602 88.7846 58.3897 88.5194 58.6192C88.3717 58.7469 88.2239 58.8747 88.0717 59.0063C87.5693 59.4469 87.0853 59.9057 86.5995 60.365C84.3915 62.3601 82.2167 62.6754 79.3397 62.5405C77.3178 62.3604 75.5174 61.3084 74.119 59.8541C71.9788 56.8783 72.0908 54.7492 71.7446 50.7191C67.6701 50.7191 63.5956 50.7191 59.3977 50.7191Z" stroke="#E4B109" mask="url(#path-2-outside-1_2606_13065)"/>
<mask id="path-3-inside-2_2606_13065" fill="white">
<path d="M70.662 69.2019C71.7145 70.0348 72.3996 70.816 72.6978 72.1427C72.6176 72.5725 72.5323 73.0013 72.4433 73.4293C72.3194 74.1173 72.3194 74.1173 72.407 74.7895C73.0568 75.6398 73.8872 76.2084 74.7336 76.848C75.0917 77.1966 75.4435 77.5518 75.7879 77.9141C75.9558 78.082 76.1238 78.25 76.2968 78.423C76.7227 78.8588 77.1292 79.3137 77.5329 79.7705C79.0691 80.7198 80.5488 80.7572 82.2952 80.3771C83.2072 79.7411 83.7271 78.9519 84.3311 78.0244C84.7099 77.532 85.0916 77.0418 85.4762 76.554C85.7738 76.1624 86.071 75.7705 86.3669 75.3776C85.791 75.3776 85.2152 75.3776 84.6219 75.3776C84.5259 74.9894 84.4299 74.6012 84.3311 74.2013C86.0829 73.4208 87.6447 72.8368 89.566 72.7309C89.662 72.8279 89.758 72.925 89.8569 73.0249C89.8457 73.7534 89.8147 74.4678 89.766 75.1938C89.7557 75.3955 89.7453 75.5972 89.7347 75.805C89.6658 76.8743 89.5844 77.4083 88.9844 78.3185C88.6005 78.2214 88.2166 78.1244 87.821 78.0244C87.7251 77.6362 87.6291 77.248 87.5302 76.848C87.0016 77.5147 86.4747 78.1826 85.9488 78.8515C85.7987 79.0405 85.6485 79.2294 85.4938 79.4242C85.3504 79.6071 85.207 79.79 85.0593 79.9784C84.9268 80.1463 84.7943 80.3142 84.6577 80.4871C84.2742 81.0009 84.2742 81.0009 84.0402 81.8475C84.1482 82.2053 84.2562 82.5632 84.3674 82.9319C84.691 84.1382 84.5524 84.9179 84.0584 86.0531C83.6014 86.7921 83.0824 87.1085 82.2952 87.4351C82.1033 87.4351 81.9113 87.4351 81.7136 87.4351C81.7136 92.4816 81.7136 97.528 81.7136 102.727C82.3854 102.825 83.0572 102.922 83.7494 103.022C83.6534 103.507 83.5574 103.992 83.4586 104.492C69.7342 104.492 56.0099 104.492 41.8696 104.492C41.7257 103.764 41.7257 103.764 41.5788 103.022C42.5865 102.876 42.5865 102.876 43.6146 102.727C43.6164 101.82 43.5991 100.914 43.5783 100.007C43.579 99.7505 43.5798 99.4939 43.5805 99.2295C43.5583 98.4933 43.5182 97.8502 43.3238 97.1399C42.507 96.4001 42.507 96.4001 41.5788 95.9635C40.8781 94.9578 40.6344 94.2133 40.7245 93.0043C40.9616 91.6413 41.579 90.8017 42.6876 89.9899C44.1899 89.5125 45.4086 89.7617 46.8138 90.3759C46.9486 90.2647 47.0835 90.1535 47.2225 90.039C47.8374 89.5323 48.4525 89.0259 49.0677 88.5195C49.2799 88.3446 49.4921 88.1696 49.7107 87.9894C49.9169 87.8197 50.1231 87.6501 50.3356 87.4753C50.5244 87.3197 50.7133 87.1642 50.9079 87.0039C51.3003 86.6874 51.7037 86.3845 52.1143 86.0924C52.6948 85.7165 52.6948 85.7165 52.7133 85.0571C52.692 84.835 52.6706 84.6128 52.6486 84.384C52.5812 82.7673 53.0489 82.0681 54.1027 80.8733C55.3347 80.1577 56.4743 80.2316 57.8654 80.3771C58.1533 80.4741 58.4412 80.5711 58.7379 80.6711C58.8477 80.5532 58.9576 80.4353 59.0707 80.3139C60.1251 79.2127 61.2246 78.2275 62.4096 77.2708C64.1166 75.9126 64.1166 75.9126 65.427 74.2013C65.4624 73.4501 65.4264 72.7188 65.3872 71.9681C65.432 71.1713 65.5764 70.8491 66.0632 70.2311C67.5219 68.92 68.7937 68.6091 70.662 69.2019ZM67.3356 71.2972C66.8088 72.1169 66.8088 72.1169 66.8812 73.0617C67.116 73.9136 67.116 73.9136 67.6628 74.477C68.5892 74.9074 69.1144 74.7863 70.0803 74.4954C70.6562 74.1826 70.6562 74.1826 70.9528 73.6131C71.11 72.5455 71.0877 72.048 70.4802 71.1502C69.8045 70.6138 69.8045 70.6138 68.917 70.5069C68.0019 70.6032 68.0019 70.6032 67.3356 71.2972ZM66.5903 75.6717C66.4104 75.8426 66.4104 75.8426 66.2268 76.017C65.6697 76.5456 65.1122 77.0737 64.5545 77.6016C64.3554 77.7904 64.1563 77.9791 63.9511 78.1735C62.7563 79.3021 61.5498 80.4067 60.2852 81.4557C59.822 81.8703 59.822 81.8703 59.6104 82.7297C59.6191 83.1589 59.6381 83.5879 59.6649 84.0163C59.6745 85.017 59.6305 85.3411 59.1196 86.2404C58.447 86.8469 58.447 86.8469 56.9929 87.4351C56.9929 92.4816 56.9929 97.528 56.9929 102.727C60.6399 102.727 64.2869 102.727 68.0445 102.727C68.0445 93.9932 68.0445 85.2589 68.0445 76.2599C67.3247 75.9687 67.3247 75.9687 66.5903 75.6717ZM69.7895 76.2599C69.7895 84.9942 69.7895 93.7285 69.7895 102.727C73.1486 102.727 76.5077 102.727 79.9686 102.727C80.0086 100.571 80.0434 98.4153 80.0644 96.2585C80.0732 95.5247 80.0851 94.791 80.1002 94.0574C80.1214 93.0033 80.1313 91.9495 80.139 90.8952C80.148 90.5667 80.157 90.2383 80.1663 89.8999C80.1666 89.0422 80.1536 88.2722 79.9686 87.4351C79.167 86.6563 79.167 86.6563 78.2236 86.2587C77.5165 85.1862 77.6783 85.0285 77.8782 83.8142C77.9146 82.4386 77.6517 81.7447 76.7444 80.7619C75.82 79.8623 74.8502 79.0209 73.853 78.205C73.11 77.5901 72.4013 76.9386 71.693 76.2833C70.9974 75.7918 70.5239 75.8886 69.7895 76.2599ZM54.3754 83.0238C54.1974 84.1036 54.2337 84.579 54.848 85.4868C55.5237 86.0231 55.5237 86.0231 56.4112 86.1301C57.3263 86.0338 57.3263 86.0338 57.9926 85.3397C58.5194 84.52 58.5194 84.52 58.447 83.5752C58.1121 82.6015 57.8989 82.3055 56.9929 81.8475C55.7009 81.6188 55.1282 81.9524 54.3754 83.0238ZM79.4596 82.4908C78.7632 83.2459 78.7632 83.2459 78.6417 84.0715C78.8629 85.0411 79.1683 85.3897 79.9686 85.9647C81.0364 86.1446 81.5065 86.1079 82.4043 85.4868C82.9347 84.8035 82.9347 84.8035 83.0405 83.9061C82.9494 82.9748 82.9494 82.9748 82.2225 82.3254C81.0586 81.6299 80.5203 81.6376 79.4596 82.4908ZM53.1602 87.1394C52.9696 87.3075 52.7791 87.4756 52.5827 87.6487C52.3705 87.8311 52.1583 88.0134 51.9397 88.2013C51.7237 88.3973 51.5078 88.5933 51.2853 88.7952C51.0671 88.9844 50.8489 89.1736 50.6241 89.3685C50.0246 89.8919 49.4362 90.4259 48.8496 90.9641C48.6078 91.176 48.366 91.3879 48.1168 91.6062C47.5748 92.2787 47.585 92.5945 47.6681 93.4454C47.719 94.6509 47.6153 95.3073 46.8138 96.2576C46.5648 96.3573 46.3159 96.457 46.0594 96.5597C45.312 97.0544 45.312 97.0544 45.2417 97.7341C45.2161 98.4917 45.2334 99.2313 45.2687 99.9888C45.2987 100.893 45.3287 101.796 45.3596 102.727C48.7187 102.727 52.0778 102.727 55.5387 102.727C55.5387 97.681 55.5387 92.6345 55.5387 87.4351C53.9625 86.681 53.9625 86.681 53.1602 87.1394ZM42.7421 92.1404C42.4304 93.2239 42.2941 93.8635 42.7785 94.8975C43.4713 95.5046 43.8604 95.6473 44.7779 95.6694C45.6089 95.4202 45.6089 95.4202 46.2321 94.7872C46.5952 93.7857 46.5952 93.7857 46.5229 92.7286C46.0089 91.9971 45.5887 91.6643 44.7961 91.2766C43.8575 91.2478 43.4462 91.5247 42.7421 92.1404Z"/>
</mask>
<path d="M70.662 69.2019C71.7145 70.0348 72.3996 70.816 72.6978 72.1427C72.6176 72.5725 72.5323 73.0013 72.4433 73.4293C72.3194 74.1173 72.3194 74.1173 72.407 74.7895C73.0568 75.6398 73.8872 76.2084 74.7336 76.848C75.0917 77.1966 75.4435 77.5518 75.7879 77.9141C75.9558 78.082 76.1238 78.25 76.2968 78.423C76.7227 78.8588 77.1292 79.3137 77.5329 79.7705C79.0691 80.7198 80.5488 80.7572 82.2952 80.3771C83.2072 79.7411 83.7271 78.9519 84.3311 78.0244C84.7099 77.532 85.0916 77.0418 85.4762 76.554C85.7738 76.1624 86.071 75.7705 86.3669 75.3776C85.791 75.3776 85.2152 75.3776 84.6219 75.3776C84.5259 74.9894 84.4299 74.6012 84.3311 74.2013C86.0829 73.4208 87.6447 72.8368 89.566 72.7309C89.662 72.8279 89.758 72.925 89.8569 73.0249C89.8457 73.7534 89.8147 74.4678 89.766 75.1938C89.7557 75.3955 89.7453 75.5972 89.7347 75.805C89.6658 76.8743 89.5844 77.4083 88.9844 78.3185C88.6005 78.2214 88.2166 78.1244 87.821 78.0244C87.7251 77.6362 87.6291 77.248 87.5302 76.848C87.0016 77.5147 86.4747 78.1826 85.9488 78.8515C85.7987 79.0405 85.6485 79.2294 85.4938 79.4242C85.3504 79.6071 85.207 79.79 85.0593 79.9784C84.9268 80.1463 84.7943 80.3142 84.6577 80.4871C84.2742 81.0009 84.2742 81.0009 84.0402 81.8475C84.1482 82.2053 84.2562 82.5632 84.3674 82.9319C84.691 84.1382 84.5524 84.9179 84.0584 86.0531C83.6014 86.7921 83.0824 87.1085 82.2952 87.4351C82.1033 87.4351 81.9113 87.4351 81.7136 87.4351C81.7136 92.4816 81.7136 97.528 81.7136 102.727C82.3854 102.825 83.0572 102.922 83.7494 103.022C83.6534 103.507 83.5574 103.992 83.4586 104.492C69.7342 104.492 56.0099 104.492 41.8696 104.492C41.7257 103.764 41.7257 103.764 41.5788 103.022C42.5865 102.876 42.5865 102.876 43.6146 102.727C43.6164 101.82 43.5991 100.914 43.5783 100.007C43.579 99.7505 43.5798 99.4939 43.5805 99.2295C43.5583 98.4933 43.5182 97.8502 43.3238 97.1399C42.507 96.4001 42.507 96.4001 41.5788 95.9635C40.8781 94.9578 40.6344 94.2133 40.7245 93.0043C40.9616 91.6413 41.579 90.8017 42.6876 89.9899C44.1899 89.5125 45.4086 89.7617 46.8138 90.3759C46.9486 90.2647 47.0835 90.1535 47.2225 90.039C47.8374 89.5323 48.4525 89.0259 49.0677 88.5195C49.2799 88.3446 49.4921 88.1696 49.7107 87.9894C49.9169 87.8197 50.1231 87.6501 50.3356 87.4753C50.5244 87.3197 50.7133 87.1642 50.9079 87.0039C51.3003 86.6874 51.7037 86.3845 52.1143 86.0924C52.6948 85.7165 52.6948 85.7165 52.7133 85.0571C52.692 84.835 52.6706 84.6128 52.6486 84.384C52.5812 82.7673 53.0489 82.0681 54.1027 80.8733C55.3347 80.1577 56.4743 80.2316 57.8654 80.3771C58.1533 80.4741 58.4412 80.5711 58.7379 80.6711C58.8477 80.5532 58.9576 80.4353 59.0707 80.3139C60.1251 79.2127 61.2246 78.2275 62.4096 77.2708C64.1166 75.9126 64.1166 75.9126 65.427 74.2013C65.4624 73.4501 65.4264 72.7188 65.3872 71.9681C65.432 71.1713 65.5764 70.8491 66.0632 70.2311C67.5219 68.92 68.7937 68.6091 70.662 69.2019ZM67.3356 71.2972C66.8088 72.1169 66.8088 72.1169 66.8812 73.0617C67.116 73.9136 67.116 73.9136 67.6628 74.477C68.5892 74.9074 69.1144 74.7863 70.0803 74.4954C70.6562 74.1826 70.6562 74.1826 70.9528 73.6131C71.11 72.5455 71.0877 72.048 70.4802 71.1502C69.8045 70.6138 69.8045 70.6138 68.917 70.5069C68.0019 70.6032 68.0019 70.6032 67.3356 71.2972ZM66.5903 75.6717C66.4104 75.8426 66.4104 75.8426 66.2268 76.017C65.6697 76.5456 65.1122 77.0737 64.5545 77.6016C64.3554 77.7904 64.1563 77.9791 63.9511 78.1735C62.7563 79.3021 61.5498 80.4067 60.2852 81.4557C59.822 81.8703 59.822 81.8703 59.6104 82.7297C59.6191 83.1589 59.6381 83.5879 59.6649 84.0163C59.6745 85.017 59.6305 85.3411 59.1196 86.2404C58.447 86.8469 58.447 86.8469 56.9929 87.4351C56.9929 92.4816 56.9929 97.528 56.9929 102.727C60.6399 102.727 64.2869 102.727 68.0445 102.727C68.0445 93.9932 68.0445 85.2589 68.0445 76.2599C67.3247 75.9687 67.3247 75.9687 66.5903 75.6717ZM69.7895 76.2599C69.7895 84.9942 69.7895 93.7285 69.7895 102.727C73.1486 102.727 76.5077 102.727 79.9686 102.727C80.0086 100.571 80.0434 98.4153 80.0644 96.2585C80.0732 95.5247 80.0851 94.791 80.1002 94.0574C80.1214 93.0033 80.1313 91.9495 80.139 90.8952C80.148 90.5667 80.157 90.2383 80.1663 89.8999C80.1666 89.0422 80.1536 88.2722 79.9686 87.4351C79.167 86.6563 79.167 86.6563 78.2236 86.2587C77.5165 85.1862 77.6783 85.0285 77.8782 83.8142C77.9146 82.4386 77.6517 81.7447 76.7444 80.7619C75.82 79.8623 74.8502 79.0209 73.853 78.205C73.11 77.5901 72.4013 76.9386 71.693 76.2833C70.9974 75.7918 70.5239 75.8886 69.7895 76.2599ZM54.3754 83.0238C54.1974 84.1036 54.2337 84.579 54.848 85.4868C55.5237 86.0231 55.5237 86.0231 56.4112 86.1301C57.3263 86.0338 57.3263 86.0338 57.9926 85.3397C58.5194 84.52 58.5194 84.52 58.447 83.5752C58.1121 82.6015 57.8989 82.3055 56.9929 81.8475C55.7009 81.6188 55.1282 81.9524 54.3754 83.0238ZM79.4596 82.4908C78.7632 83.2459 78.7632 83.2459 78.6417 84.0715C78.8629 85.0411 79.1683 85.3897 79.9686 85.9647C81.0364 86.1446 81.5065 86.1079 82.4043 85.4868C82.9347 84.8035 82.9347 84.8035 83.0405 83.9061C82.9494 82.9748 82.9494 82.9748 82.2225 82.3254C81.0586 81.6299 80.5203 81.6376 79.4596 82.4908ZM53.1602 87.1394C52.9696 87.3075 52.7791 87.4756 52.5827 87.6487C52.3705 87.8311 52.1583 88.0134 51.9397 88.2013C51.7237 88.3973 51.5078 88.5933 51.2853 88.7952C51.0671 88.9844 50.8489 89.1736 50.6241 89.3685C50.0246 89.8919 49.4362 90.4259 48.8496 90.9641C48.6078 91.176 48.366 91.3879 48.1168 91.6062C47.5748 92.2787 47.585 92.5945 47.6681 93.4454C47.719 94.6509 47.6153 95.3073 46.8138 96.2576C46.5648 96.3573 46.3159 96.457 46.0594 96.5597C45.312 97.0544 45.312 97.0544 45.2417 97.7341C45.2161 98.4917 45.2334 99.2313 45.2687 99.9888C45.2987 100.893 45.3287 101.796 45.3596 102.727C48.7187 102.727 52.0778 102.727 55.5387 102.727C55.5387 97.681 55.5387 92.6345 55.5387 87.4351C53.9625 86.681 53.9625 86.681 53.1602 87.1394ZM42.7421 92.1404C42.4304 93.2239 42.2941 93.8635 42.7785 94.8975C43.4713 95.5046 43.8604 95.6473 44.7779 95.6694C45.6089 95.4202 45.6089 95.4202 46.2321 94.7872C46.5952 93.7857 46.5952 93.7857 46.5229 92.7286C46.0089 91.9971 45.5887 91.6643 44.7961 91.2766C43.8575 91.2478 43.4462 91.5247 42.7421 92.1404Z" fill="#CE9F03" stroke="#E4B109" stroke-width="2" mask="url(#path-3-inside-2_2606_13065)"/>
</svg>
