<svg width="52" height="52" viewBox="0 0 52 52" fill="none" xmlns="http://www.w3.org/2000/svg">
<rect width="52" height="52" fill="#F6FAFF"/>
<path d="M4.02028 4.65858C4.09738 4.65837 4.17449 4.65816 4.25393 4.65795C4.51316 4.65737 4.77239 4.65752 5.03163 4.65766C5.21902 4.6574 5.40642 4.6571 5.59381 4.65675C6.10947 4.65593 6.62514 4.65575 7.1408 4.65567C7.69668 4.65549 8.25255 4.65472 8.80842 4.65404C10.0242 4.65266 11.24 4.65204 12.4559 4.6516C13.2149 4.65132 13.9739 4.65089 14.733 4.65043C16.8341 4.64919 18.9353 4.64814 21.0365 4.6478C21.1724 4.64778 21.3082 4.64776 21.4441 4.64773C21.5803 4.64771 21.7165 4.64769 21.8526 4.64767C22.1258 4.64762 22.3991 4.64758 22.6723 4.64753C22.7739 4.64751 22.7739 4.64751 22.8775 4.6475C25.0739 4.64713 27.2702 4.64551 29.4665 4.64314C31.7891 4.64064 34.1116 4.63925 36.4341 4.63913C37.7 4.63904 38.9659 4.63845 40.2318 4.63661C41.3096 4.63505 42.3875 4.63453 43.4654 4.63536C44.0153 4.63576 44.5653 4.63567 45.1152 4.63424C45.6189 4.63295 46.1225 4.63307 46.6261 4.6343C46.8081 4.6345 46.9901 4.63419 47.1721 4.6333C49.467 4.62285 49.467 4.62285 50.2037 5.28765C50.9496 6.03996 51.1504 6.7951 51.1539 7.83966C51.1528 7.98766 51.1517 8.13565 51.1505 8.28365C51.151 8.44299 51.1519 8.60234 51.1529 8.76168C51.155 9.19747 51.1539 9.63321 51.1524 10.069C51.1512 10.5398 51.153 11.0106 51.1544 11.4813C51.1566 12.4028 51.1562 13.3242 51.1547 14.2456C51.1535 14.9946 51.1534 15.7436 51.1539 16.4926C51.154 16.5993 51.1541 16.706 51.1542 16.8159C51.1543 17.0326 51.1545 17.2494 51.1547 17.4661C51.1561 19.4975 51.1544 21.5289 51.1517 23.5602C51.1495 25.3025 51.1498 27.0448 51.1522 28.7871C51.1549 30.8113 51.156 32.8355 51.1544 34.8597C51.1543 35.0756 51.1541 35.2915 51.1539 35.5075C51.1539 35.6137 51.1538 35.7199 51.1537 35.8294C51.1533 36.5773 51.154 37.3253 51.1552 38.0732C51.1566 38.9849 51.1562 39.8966 51.1535 40.8083C51.1522 41.2733 51.1517 41.7383 51.1533 42.2033C51.1549 42.6293 51.154 43.0553 51.1513 43.4813C51.1508 43.6351 51.151 43.7888 51.1523 43.9426C51.1595 44.9146 51.0918 45.763 50.3981 46.5053C49.6756 47.1739 48.9397 47.3439 47.9795 47.3415C47.9024 47.3417 47.8253 47.3419 47.7458 47.3422C47.4864 47.3427 47.2271 47.3426 46.9678 47.3424C46.7803 47.3427 46.5928 47.343 46.4054 47.3434C45.8895 47.3442 45.3737 47.3444 44.8578 47.3444C44.3017 47.3446 43.7456 47.3454 43.1896 47.3461C41.9733 47.3475 40.7571 47.3481 39.5409 47.3485C38.7816 47.3488 38.0224 47.3492 37.2632 47.3497C35.1616 47.3509 33.0599 47.352 30.9583 47.3523C30.8224 47.3523 30.6865 47.3524 30.5507 47.3524C30.4144 47.3524 30.2782 47.3524 30.142 47.3524C29.8688 47.3525 29.5955 47.3525 29.3222 47.3526C29.2206 47.3526 29.2206 47.3526 29.1169 47.3526C26.9199 47.353 24.7228 47.3546 22.5258 47.357C20.2027 47.3595 17.8795 47.3609 15.5564 47.361C14.2901 47.3611 13.0239 47.3617 11.7576 47.3635C10.6794 47.3651 9.6013 47.3656 8.52316 47.3647C7.97302 47.3643 7.42289 47.3644 6.87275 47.3659C6.36905 47.3672 5.86538 47.367 5.36168 47.3658C5.17954 47.3656 4.9974 47.3659 4.81525 47.3668C2.65021 47.3766 2.65021 47.3766 1.72661 46.6172C1.18224 45.9959 0.889124 45.4758 0.887693 44.6345C0.887306 44.5691 0.88692 44.5037 0.886522 44.4362C0.885474 44.2167 0.885871 43.9971 0.886262 43.7775C0.885809 43.6186 0.88527 43.4597 0.88465 43.3008C0.883209 42.8639 0.883041 42.427 0.883086 41.99C0.882918 41.5189 0.881591 41.0478 0.880425 40.5766C0.878104 39.5463 0.8773 38.516 0.876787 37.4857C0.876456 36.8423 0.875794 36.199 0.87506 35.5556C0.873073 33.7744 0.871407 31.9931 0.871112 30.2118C0.871093 30.0978 0.871074 29.9838 0.871054 29.8664C0.871017 29.6353 0.87098 29.4041 0.870943 29.173C0.870925 29.0583 0.870906 28.9436 0.870887 28.8254C0.870869 28.7105 0.87085 28.5956 0.870831 28.4773C0.870472 26.6161 0.867727 24.7549 0.86393 22.8937C0.860063 20.9829 0.858096 19.072 0.858065 17.1611C0.858006 16.0882 0.857143 15.0153 0.854206 13.9424C0.851717 13.0289 0.850976 12.1153 0.852504 11.2017C0.853233 10.7356 0.853145 10.2696 0.850838 9.80362C0.848745 9.37664 0.849013 8.94973 0.85113 8.52275C0.851484 8.36863 0.850988 8.2145 0.849535 8.06039C0.840952 7.08694 0.907167 6.23825 1.60204 5.49486C2.32439 4.82627 3.06024 4.65616 4.02028 4.65858ZM2.60893 6.74126C1.2236 8.89623 2.33598 11.8601 2.33598 14.4219C17.9543 14.4219 33.5725 14.4219 49.6641 14.4219C50.3067 10.2375 50.3067 10.2375 49.3186 6.6278C48.7992 6.24458 48.4352 6.18044 47.8069 6.18202C47.6924 6.18171 47.6924 6.18171 47.5757 6.18139C47.3179 6.18081 47.0602 6.18096 46.8024 6.1811C46.6166 6.18084 46.4308 6.18053 46.2449 6.18019C45.7327 6.17937 45.2204 6.17919 44.7081 6.17911C44.1563 6.17892 43.6044 6.17816 43.0526 6.17747C41.8452 6.17609 40.6378 6.17548 39.4304 6.17503C38.6769 6.17475 37.9234 6.17432 37.1699 6.17387C35.0849 6.17263 33 6.17158 30.915 6.17124C30.7815 6.17122 30.648 6.17119 30.5104 6.17117C30.3766 6.17115 30.2428 6.17113 30.1049 6.1711C29.8337 6.17106 29.5625 6.17101 29.2913 6.17097C29.224 6.17096 29.1568 6.17094 29.0875 6.17093C26.9067 6.17056 24.7258 6.16895 22.545 6.16658C20.2399 6.16408 17.9349 6.16269 15.6298 6.16257C14.373 6.16247 13.1162 6.16189 11.8595 6.16005C10.7894 6.15849 9.71944 6.15796 8.64942 6.1588C8.10323 6.1592 7.55705 6.1591 7.01086 6.15768C6.51111 6.15639 6.01139 6.1565 5.51165 6.15774C5.3306 6.15794 5.14955 6.15762 4.9685 6.15674C4.72282 6.15562 4.47722 6.15637 4.23155 6.15759C4.16089 6.15682 4.09023 6.15605 4.01743 6.15525C3.4269 6.16162 3.02108 6.31797 2.60893 6.74126ZM2.33598 15.9454C2.33179 20.6396 2.3276 25.3339 2.32329 30.1705C2.32144 31.6539 2.31959 33.1374 2.31768 34.6658C2.317 35.993 2.317 35.993 2.31659 37.3201C2.3164 37.9123 2.31566 38.5045 2.31454 39.0966C2.31324 39.7795 2.31265 40.4623 2.31294 41.1451C2.31306 41.4945 2.31286 41.8438 2.31176 42.1932C2.31076 42.5673 2.311 42.9414 2.31155 43.3155C2.31096 43.4244 2.31037 43.5334 2.30976 43.6456C2.30057 44.563 2.30057 44.563 2.68153 45.3723C3.20086 45.7555 3.56485 45.8197 4.1932 45.8181C4.26951 45.8183 4.34581 45.8185 4.42443 45.8187C4.68217 45.8193 4.9399 45.8191 5.19764 45.819C5.38347 45.8193 5.5693 45.8196 5.75513 45.8199C6.26741 45.8207 6.77968 45.8209 7.29196 45.821C7.84382 45.8212 8.39567 45.822 8.94752 45.8226C10.1549 45.824 11.3623 45.8246 12.5697 45.8251C13.3232 45.8254 14.0767 45.8258 14.8302 45.8262C16.9152 45.8275 19.0001 45.8285 21.0851 45.8289C21.2186 45.8289 21.3521 45.8289 21.4897 45.8289C21.6235 45.829 21.7573 45.829 21.8952 45.829C22.1664 45.829 22.4376 45.8291 22.7088 45.8291C22.776 45.8292 22.8433 45.8292 22.9126 45.8292C25.0934 45.8295 27.2742 45.8312 29.4551 45.8335C31.7601 45.836 34.0652 45.8374 36.3703 45.8375C37.6271 45.8376 38.8838 45.8382 40.1406 45.8401C41.2106 45.8416 42.2806 45.8421 43.3507 45.8413C43.8969 45.8409 44.443 45.841 44.9892 45.8424C45.489 45.8437 45.9887 45.8436 46.4884 45.8424C46.6695 45.8422 46.8505 45.8425 47.0316 45.8434C47.2773 45.8445 47.5229 45.8437 47.7685 45.8425C47.8392 45.8433 47.9099 45.8441 47.9827 45.8449C48.4469 45.8398 48.7609 45.7411 49.1563 45.5001C49.6133 45.0306 49.6769 44.6127 49.6766 43.9762C49.6768 43.8758 49.677 43.7753 49.6772 43.6718C49.6769 43.5623 49.6766 43.4528 49.6763 43.3399C49.6764 43.2232 49.6765 43.1065 49.6766 42.9863C49.6767 42.6622 49.6764 42.3381 49.6759 42.014C49.6755 41.6592 49.6756 41.3044 49.6757 40.9496C49.6757 40.2608 49.6753 39.5721 49.6746 38.8834C49.6739 38.0867 49.6738 37.29 49.6737 36.4934C49.6732 34.39 49.6718 32.2866 49.6705 30.1832C49.6684 25.4847 49.6663 20.7862 49.6641 15.9454C34.0458 15.9454 18.4275 15.9454 2.33598 15.9454Z" fill="black"/>
<path d="M34.6793 20.9972C37.3689 23.3852 38.8507 26.6117 39.1183 30.1832C39.2173 31.9642 38.9221 33.7808 38.2891 35.4452C38.264 35.5115 38.2389 35.5778 38.213 35.6461C37.6163 37.1821 36.79 38.5205 35.6485 39.7108C35.5504 39.8308 35.453 39.9514 35.3565 40.0727C33.5377 42.1945 30.3639 43.5943 27.6251 43.8749C27.5 43.8884 27.375 43.9019 27.2462 43.9158C23.9225 44.2197 20.4788 43.2751 17.8751 41.1645C17.7052 41.0192 17.5358 40.8733 17.3672 40.7265C17.3007 40.6723 17.2342 40.6181 17.1657 40.5622C14.6873 38.5334 13.2445 35.2324 12.9306 32.0988C12.6378 28.646 13.6391 25.1547 15.8775 22.4871C20.7008 16.8628 29.0438 16.2191 34.6793 20.9972ZM17.8751 22.6483C17.8075 22.7082 17.7399 22.768 17.6703 22.8296C15.558 24.7832 14.5793 27.7113 14.3997 30.5103C14.3123 33.6233 15.5268 36.6034 17.643 38.8667C19.8234 41.1253 22.7042 42.3546 25.8358 42.453C28.8871 42.4892 31.6606 41.3022 33.9219 39.3046C33.9913 39.2437 34.0607 39.1828 34.1322 39.1201C36.2596 37.1262 37.4512 34.1338 37.5944 31.2593C37.6735 28.0408 36.4664 25.0736 34.2651 22.7479C32.1449 20.5769 29.2902 19.3433 26.2567 19.2609C23.0081 19.2333 20.2265 20.4349 17.8751 22.6483Z" fill="black"/>
<path d="M25.6524 7.60287C25.7193 7.60257 25.7863 7.60227 25.8553 7.60195C26.0795 7.60107 26.3037 7.60092 26.5279 7.60077C26.6888 7.6003 26.8496 7.59979 27.0104 7.59924C27.4473 7.59791 27.8842 7.59725 28.3211 7.5968C28.5942 7.5965 28.8673 7.59609 29.1404 7.59563C29.9953 7.59424 30.8501 7.59326 31.705 7.59287C32.691 7.59242 33.6771 7.59063 34.6631 7.58769C35.4258 7.58549 36.1884 7.58447 36.9511 7.58433C37.4064 7.58423 37.8616 7.58363 38.3169 7.58181C38.7454 7.58014 39.1739 7.57992 39.6024 7.58081C39.7592 7.58089 39.9161 7.58045 40.073 7.57945C41.1865 7.57273 42.0206 7.60995 42.8593 8.42963C43.4718 9.22927 43.5444 9.98795 43.4687 10.9687C43.3313 11.6706 42.9351 12.2214 42.3556 12.6338C41.5654 13.0799 40.7924 13.072 39.9109 13.0657C39.7483 13.0663 39.5856 13.0672 39.423 13.0683C38.9841 13.0707 38.5451 13.0698 38.1061 13.0682C37.6452 13.0669 37.1843 13.0681 36.7233 13.0689C35.9495 13.0698 35.1757 13.0686 34.4019 13.0661C33.5091 13.0634 32.6165 13.0643 31.7237 13.0671C30.9552 13.0694 30.1867 13.0697 29.4181 13.0684C28.96 13.0676 28.5019 13.0675 28.0438 13.0692C27.6129 13.0706 27.1822 13.0696 26.7513 13.0667C26.5939 13.066 26.4364 13.0662 26.279 13.0673C25.2498 13.074 24.4049 12.9877 23.6196 12.264C23.5672 12.1906 23.5149 12.1171 23.4609 12.0414C23.4064 11.9683 23.352 11.8951 23.2959 11.8197C22.896 11.1279 22.8765 10.4283 22.9531 9.64838C23.19 8.81422 23.6459 8.2718 24.375 7.82184C24.7958 7.60814 25.1842 7.60405 25.6524 7.60287ZM24.5464 9.72455C24.4385 10.0777 24.4099 10.4045 24.4765 10.7656C24.7401 11.1969 24.9676 11.4145 25.4586 11.5405C26.0152 11.6289 26.5824 11.6061 27.1445 11.6044C27.2916 11.6046 27.4386 11.605 27.5856 11.6054C27.9835 11.6064 28.3813 11.606 28.7792 11.6054C29.1963 11.6048 29.6135 11.6053 30.0307 11.6056C30.7311 11.606 31.4315 11.6055 32.1319 11.6046C32.9407 11.6034 33.7494 11.6038 34.5582 11.6049C35.2537 11.6058 35.9492 11.606 36.6446 11.6054C37.0596 11.6051 37.4745 11.6051 37.8894 11.6058C38.2795 11.6063 38.6696 11.6059 39.0598 11.6048C39.2026 11.6045 39.3455 11.6046 39.4883 11.605C40.6992 11.6456 40.6992 11.6456 41.7358 11.1147C41.9807 10.7819 42.0181 10.4807 41.9961 10.0737C41.9091 9.69314 41.7178 9.50908 41.4375 9.24213C41.1541 9.10044 40.9213 9.12679 40.6041 9.12562C40.5388 9.12525 40.4734 9.12488 40.4061 9.12449C40.1862 9.12337 39.9662 9.12298 39.7463 9.12259C39.589 9.12196 39.4317 9.12128 39.2744 9.12057C38.8463 9.1188 38.4182 9.11773 37.9901 9.11689C37.7228 9.11637 37.4555 9.11575 37.1881 9.11512C36.352 9.11318 35.5158 9.11174 34.6797 9.11089C33.7139 9.1099 32.7482 9.10722 31.7824 9.10312C31.0363 9.10006 30.2902 9.09855 29.5441 9.09822C29.0983 9.09798 28.6526 9.09706 28.2068 9.09451C27.7874 9.09215 27.368 9.09172 26.9486 9.09276C26.7947 9.09281 26.6408 9.09217 26.4869 9.09078C26.2767 9.08898 26.0666 9.0897 25.8564 9.09103C25.68 9.09067 25.68 9.09067 25.5 9.0903C25.0608 9.16094 24.8099 9.3731 24.5464 9.72455Z" fill="black"/>
<path d="M27.7266 24.1718C27.9742 24.3241 27.9742 24.3241 28.1328 24.578C28.1779 25.2395 28.0582 25.823 27.9046 26.4642C27.8803 26.5687 27.8561 26.6732 27.831 26.7808C27.7509 27.1245 27.6696 27.468 27.5881 27.8114C27.5319 28.0514 27.4757 28.2914 27.4195 28.5315C27.3018 29.0341 27.1835 29.5366 27.0648 30.039C26.913 30.681 26.7623 31.3233 26.612 31.9657C26.4959 32.4613 26.3795 32.9569 26.263 33.4525C26.2073 33.6892 26.1518 33.9259 26.0962 34.1626C26.0183 34.4944 25.9399 34.8261 25.8615 35.1577C25.8388 35.2544 25.8162 35.3511 25.7928 35.4507C25.7287 35.7204 25.6621 35.9891 25.5938 36.2577C25.5707 36.3512 25.5475 36.4446 25.5237 36.5409C25.4994 36.6314 25.4751 36.722 25.4501 36.8152C25.429 36.896 25.4078 36.9768 25.386 37.0601C25.2637 37.3292 25.138 37.4321 24.8828 37.578C24.2603 37.5671 24.2603 37.5671 23.9966 37.2967C23.8421 37.0263 23.8435 36.9058 23.8852 36.6004C23.9034 36.466 23.9034 36.466 23.922 36.329C23.9959 35.8955 24.0869 35.4683 24.1883 35.0405C24.2104 34.9447 24.2326 34.8489 24.2554 34.7503C24.3281 34.4365 24.4017 34.123 24.4754 33.8095C24.5267 33.5892 24.578 33.3689 24.6292 33.1485C24.7364 32.6875 24.8441 32.2266 24.9521 31.7658C25.0897 31.1791 25.2264 30.5922 25.3629 30.0053C25.4687 29.5503 25.5749 29.0954 25.6811 28.6405C25.7315 28.4244 25.7819 28.2082 25.8323 27.992C25.9872 27.3274 26.1444 26.6633 26.3047 25.9999C26.3239 25.92 26.343 25.8401 26.3628 25.7578C26.4149 25.5424 26.4686 25.3275 26.523 25.1127C26.5522 24.9957 26.5815 24.8787 26.6116 24.7582C26.8231 24.1588 27.1084 24.0959 27.7266 24.1718Z" fill="black"/>
<path d="M14.2695 8.11868C14.8687 8.46318 15.2217 9.00112 15.4375 9.64847C15.5227 10.4778 15.5166 11.1714 15.0277 11.8698C14.5124 12.428 13.8813 12.7713 13.1174 12.8076C12.4118 12.7731 11.7403 12.5384 11.225 12.0435C10.7253 11.4751 10.5762 10.8977 10.5625 10.1563C10.6267 9.40983 11.011 8.75111 11.5682 8.25912C12.3676 7.73215 13.4058 7.74478 14.2695 8.11868ZM12.1875 9.95316C12.0699 10.144 12.0699 10.144 12.0859 10.3594C12.2148 10.7102 12.3393 10.9232 12.6191 11.1719C13.0153 11.316 13.2274 11.233 13.6094 11.0703C13.8884 10.8273 13.9112 10.684 13.9648 10.315C13.9406 9.94283 13.9406 9.94283 13.7046 9.65482C13.4168 9.42144 13.4168 9.42144 13.0508 9.38187C12.6055 9.46138 12.4612 9.599 12.1875 9.95316Z" fill="black"/>
<path d="M20.2554 8.07414C20.8482 8.43236 21.3239 8.98696 21.5313 9.64836C21.6162 10.4198 21.6202 11.1522 21.1251 11.7812C20.5367 12.4002 19.995 12.7225 19.141 12.7992C18.4361 12.7925 17.8235 12.5427 17.3133 12.0601C16.7959 11.4449 16.6043 10.7462 16.6563 9.95305C16.8132 9.20162 17.1383 8.66846 17.7406 8.19395C18.4522 7.75815 19.4972 7.74307 20.2554 8.07414ZM18.2813 9.85149C18.1587 10.2117 18.1467 10.3819 18.294 10.7338C18.5156 11.0071 18.6624 11.1459 18.9922 11.2734C19.3677 11.2151 19.6116 11.15 19.9 10.8988C20.0571 10.5568 20.0601 10.3251 20.0079 9.95305C19.8132 9.6399 19.8132 9.6399 19.5001 9.44524C18.9544 9.35754 18.652 9.43713 18.2813 9.85149Z" fill="black"/>
<path d="M8.01953 8.03332C8.69653 8.41452 9.15043 8.88238 9.38189 9.62936C9.52622 10.3469 9.4256 11.0585 9.06967 11.6979C8.67883 12.2448 8.17216 12.6053 7.5129 12.7361C6.69684 12.8603 6.05343 12.6997 5.36541 12.2446C4.90276 11.8492 4.59676 11.2849 4.54617 10.6787C4.52737 9.83487 4.57405 9.25948 5.16665 8.63595C5.97106 7.89389 6.95586 7.63901 8.01953 8.03332ZM6.30328 9.65475C6.0699 9.94253 6.0699 9.94253 6.03033 10.3086C6.10984 10.7538 6.24747 10.8982 6.60162 11.1718C6.87572 11.3003 6.9757 11.2828 7.26812 11.1972C7.51663 11.0698 7.65867 10.992 7.82037 10.7656C7.93152 10.4004 7.9544 10.2276 7.79498 9.87692C7.54363 9.55376 7.37708 9.45364 6.96978 9.40084C6.59188 9.41704 6.59188 9.41704 6.30328 9.65475Z" fill="black"/>
<path d="M29.0727 26.9727C29.5323 27.0244 29.7692 27.1988 30.1069 27.4916C30.1669 27.5411 30.2269 27.5906 30.2887 27.6416C30.4175 27.7481 30.5458 27.8553 30.6735 27.9632C30.9512 28.1968 31.233 28.4252 31.5149 28.6537C31.6512 28.7643 31.7873 28.8752 31.9229 28.9865C32.3237 29.3148 32.7319 29.6281 33.1521 29.9313C33.4054 30.1383 33.4142 30.2664 33.4521 30.5956C33.3829 31.2879 32.856 31.6414 32.3548 32.0682C32.0062 32.3734 31.6698 32.6907 31.332 33.0077C31.1988 33.1319 31.0655 33.2561 30.9321 33.3802C30.7249 33.5733 30.5197 33.7677 30.3164 33.965C30.0032 34.2605 29.7971 34.4162 29.3833 34.5565C29.0469 34.5311 29.0469 34.5311 28.7485 34.3217C28.5391 34.0233 28.5391 34.0233 28.4756 33.7186C28.5598 33.3145 28.7495 33.1879 29.0469 32.9061C29.1271 32.8247 29.2074 32.7433 29.2901 32.6594C29.7447 32.1996 30.2049 31.7563 30.6961 31.3359C30.9371 31.1253 31.1601 30.9015 31.3828 30.6718C30.7978 30.1316 30.1886 29.6304 29.5598 29.1428C29.3883 29.0098 29.2176 28.876 29.0469 28.7421C28.9604 28.6757 28.9604 28.6757 28.8721 28.6079C28.5682 28.3676 28.445 28.2576 28.3232 27.8788C28.3359 27.5233 28.3359 27.5233 28.4883 27.225C28.7422 27.0155 28.7422 27.0155 29.0727 26.9727Z" fill="black"/>
<path d="M23.3594 26.7109C23.5625 26.8759 23.5625 26.8759 23.6641 27.1171C23.6955 27.4381 23.6963 27.5465 23.5625 27.8281C23.0092 28.4589 22.2894 28.9556 21.6238 29.4639C21.2601 29.7433 20.9347 30.0359 20.6172 30.3671C20.8118 30.547 21.0065 30.7269 21.2012 30.9067C21.2898 30.9886 21.2898 30.9886 21.3802 31.0721C21.8874 31.5403 22.3965 32.0064 22.9063 32.4718C22.9888 32.5481 23.0713 32.6244 23.1562 32.7031C23.2169 32.7565 23.2775 32.8099 23.3399 32.8649C23.4609 33.0078 23.4609 33.0078 23.5054 33.3569C23.4609 33.7187 23.4609 33.7187 23.3022 33.9663C22.9558 34.1883 22.7507 34.1725 22.3437 34.1249C22.0979 33.9463 21.9111 33.7871 21.7026 33.5727C21.5867 33.4596 21.4707 33.3465 21.3547 33.2335C21.2983 33.1775 21.242 33.1215 21.1839 33.0637C20.9676 32.8514 20.7425 32.6501 20.5156 32.4492C18.5974 30.73 18.5974 30.73 18.5161 30.3164C18.5221 30.0075 18.5658 29.8841 18.7625 29.6415C19.0331 29.3957 19.3129 29.1696 19.6016 28.9453C19.713 28.8564 19.8244 28.7674 19.9356 28.6783C20.233 28.4414 20.5331 28.2081 20.8338 27.9755C21.0311 27.8221 21.2274 27.6674 21.4233 27.5123C21.5206 27.4354 21.5206 27.4354 21.6198 27.3569C21.7447 27.2581 21.8694 27.1592 21.9941 27.0603C22.5092 26.654 22.7009 26.5607 23.3594 26.7109Z" fill="black"/>
<path d="M46.7949 8.35986C47.3018 8.46709 47.577 8.78284 47.9375 9.14062C48.0508 9.25001 48.0508 9.25001 48.1664 9.3616C48.8225 10.0036 48.8225 10.0036 48.9023 10.4229C48.8248 10.9461 48.5041 11.2119 48.1406 11.5781C48.0752 11.6462 48.0097 11.7143 47.9423 11.7844C47.3625 12.3788 47.3625 12.3788 46.9346 12.416C46.6172 12.3906 46.6172 12.3906 46.376 12.2891C46.1139 11.9665 46.1843 11.6803 46.2109 11.2734C46.064 11.2695 46.064 11.2695 45.9142 11.2655C45.7859 11.2597 45.6576 11.254 45.5254 11.248C45.3981 11.2433 45.2709 11.2386 45.1398 11.2338C44.7442 11.164 44.6183 11.0851 44.3828 10.7656C44.332 10.4609 44.332 10.4609 44.3828 10.1562C44.5431 9.93567 44.5431 9.93567 44.7891 9.75C45.1398 9.71033 45.1398 9.71033 45.5254 9.72461C45.6537 9.72828 45.782 9.73194 45.9142 9.73572C46.0611 9.74279 46.0611 9.74279 46.2109 9.75C46.1774 9.68297 46.1439 9.61594 46.1094 9.54688C46.0729 9.1534 46.0518 8.92233 46.2744 8.58838C46.5156 8.42969 46.5156 8.42969 46.7949 8.35986Z" fill="black"/>
</svg>
