<svg width="232" height="179" viewBox="0 0 232 179" fill="none" xmlns="http://www.w3.org/2000/svg">
<path d="M1.20703 171.189L27.4375 153.477L154.54 152.87L160.354 171.457L1.20703 171.189Z" fill="#455A64"/>
<path d="M160.026 178.445L0.943359 178.331V170.841L160.096 171.338L160.026 178.445Z" fill="#455A64"/>
<path d="M156.124 171.298C156.124 171.368 121.767 171.413 79.4051 171.393C37.0427 171.373 2.68164 171.298 2.68164 171.224C2.68164 171.149 37.0278 171.109 79.4051 171.129C121.782 171.149 156.124 171.224 156.124 171.298Z" fill="#263238"/>
<path d="M105.139 27.4265H88.3485C87.7915 27.4265 87.2572 27.2052 86.8633 26.8113C86.4693 26.4174 86.248 25.8831 86.248 25.326V2.09715C86.248 1.82146 86.3024 1.54849 86.408 1.29383C86.5136 1.03918 86.6684 0.807841 86.8635 0.61306C87.0586 0.418279 87.2901 0.263874 87.545 0.15868C87.7998 0.053485 88.0729 -0.000436325 88.3485 2.65895e-06H98.9912L107.23 8.48876V25.326C107.23 25.8814 107.01 26.4141 106.618 26.8077C106.226 27.2014 105.694 27.4238 105.139 27.4265Z" fill="#2059EE"/>
<g opacity="0.2">
<path d="M86.6621 19.1047H106.809C106.919 19.1047 107.024 19.1484 107.102 19.226C107.179 19.3037 107.223 19.409 107.223 19.5188V25.2626C107.223 25.8365 106.995 26.3869 106.589 26.7927C106.183 27.1985 105.633 27.4265 105.059 27.4265H88.412C87.8381 27.4265 87.2877 27.1985 86.8818 26.7927C86.476 26.3869 86.248 25.8365 86.248 25.2626V19.5188C86.248 19.409 86.2917 19.3037 86.3693 19.226C86.447 19.1484 86.5523 19.1047 86.6621 19.1047Z" fill="black"/>
</g>
<g opacity="0.2">
<path d="M98.9941 0V6.53521C98.9937 6.79159 99.0438 7.04555 99.1416 7.28255C99.2394 7.51954 99.383 7.73492 99.5642 7.91637C99.7453 8.09782 99.9604 8.24177 100.197 8.33999C100.434 8.4382 100.688 8.48876 100.944 8.48876H107.232L98.9941 0Z" fill="white"/>
</g>
<g opacity="0.2">
<path d="M99.0748 7.10962C99.0748 7.10962 98.9946 8.70251 100.798 9.21678C100.866 9.23589 100.935 9.25149 101.005 9.26353C101.826 9.41047 107.23 10.3689 107.23 10.2453V8.48879H100.941C100.941 8.48879 99.372 8.43536 99.0748 7.10962Z" fill="black"/>
</g>
<path d="M92.2539 22.728C92.2744 22.3758 92.3982 22.0375 92.6097 21.7551C92.8213 21.4728 93.1113 21.259 93.4435 21.1404C93.7758 21.0218 94.1356 21.0037 94.4782 21.0883C94.8207 21.1728 95.1307 21.3564 95.3696 21.616L94.8854 22.0602C94.7852 21.9397 94.6596 21.8431 94.5175 21.7772C94.3754 21.7114 94.2205 21.678 94.0639 21.6795C93.9219 21.6714 93.7797 21.6925 93.6461 21.7413C93.5125 21.7901 93.3903 21.8656 93.2869 21.9633C93.1835 22.061 93.1012 22.1788 93.0449 22.3094C92.9886 22.44 92.9596 22.5808 92.9596 22.723C92.9596 22.8653 92.9886 23.006 93.0449 23.1366C93.1012 23.2673 93.1835 23.385 93.2869 23.4827C93.3903 23.5804 93.5125 23.656 93.6461 23.7048C93.7797 23.7536 93.9219 23.7746 94.0639 23.7666C94.2211 23.7682 94.3768 23.7342 94.519 23.6671C94.6613 23.6 94.7865 23.5016 94.8854 23.3792L95.3696 23.8267C95.132 24.0874 94.8228 24.2723 94.4806 24.3582C94.1385 24.4441 93.7786 24.4272 93.4461 24.3095C93.1135 24.1919 92.823 23.9788 92.611 23.6969C92.3989 23.415 92.2747 23.0768 92.2539 22.7247V22.728Z" fill="#FAFAFA"/>
<path d="M95.5918 24.0403L95.8489 23.4726C96.1667 23.6899 96.5426 23.8063 96.9276 23.8066C97.375 23.8066 97.5554 23.6596 97.5554 23.4726C97.5554 22.8615 95.6586 23.2823 95.6586 22.0701C95.6586 21.5124 96.1061 21.0682 97.0344 21.0682C97.4311 21.0609 97.8223 21.1614 98.1665 21.3588L97.9327 21.9331C97.6586 21.7702 97.3466 21.6815 97.0277 21.676C96.5803 21.676 96.41 21.843 96.41 22.0467C96.41 22.6478 98.3067 22.2337 98.3067 23.4325C98.3067 23.9769 97.8526 24.4344 96.9209 24.4344C96.4482 24.4404 95.9848 24.303 95.5918 24.0403Z" fill="#FAFAFA"/>
<path d="M98.5645 24.0403L98.8183 23.4726C99.1365 23.689 99.5121 23.8052 99.8969 23.8066C100.344 23.8066 100.525 23.6596 100.525 23.4726C100.525 22.8615 98.6279 23.2823 98.6279 22.0701C98.6279 21.5124 99.0754 21.0682 100.004 21.0682C100.4 21.0609 100.792 21.1614 101.136 21.3588L100.902 21.9331C100.628 21.7697 100.316 21.6811 99.9971 21.676C99.5496 21.676 99.3793 21.843 99.3793 22.0467C99.3793 22.6478 101.276 22.2337 101.276 23.4325C101.276 23.9769 100.825 24.4344 99.8902 24.4344C99.4184 24.4414 98.9558 24.3039 98.5645 24.0403Z" fill="#FAFAFA"/>
<path d="M93.3198 12.1688C93.6538 12.2757 93.8241 12.5027 93.8241 13.0103V14.2092C93.8144 14.2837 93.8219 14.3594 93.8459 14.4306C93.8699 14.5018 93.9098 14.5666 93.9626 14.62C94.0154 14.6734 94.0797 14.7141 94.1506 14.739C94.2215 14.7639 94.2971 14.7723 94.3717 14.7635H94.5053V15.6785H94.0712C93.1328 15.6785 92.6553 15.1976 92.6553 14.3428V12.9803C92.6627 12.9339 92.6593 12.8864 92.6454 12.8414C92.6316 12.7965 92.6076 12.7554 92.5753 12.7212C92.5431 12.687 92.5034 12.6607 92.4594 12.6442C92.4153 12.6278 92.3681 12.6216 92.3213 12.6263H92.0742V11.708H92.3213C92.3679 11.7132 92.4151 11.7076 92.4592 11.6916C92.5033 11.6755 92.543 11.6495 92.5754 11.6156C92.6077 11.5816 92.6318 11.5406 92.6456 11.4958C92.6595 11.451 92.6628 11.4036 92.6553 11.3573V10.0015C92.6553 9.13997 93.1328 8.66577 94.0712 8.66577H94.5053V9.57743H94.3717C94.2968 9.56858 94.2208 9.577 94.1497 9.60205C94.0785 9.6271 94.014 9.66812 93.9611 9.72195C93.9083 9.77579 93.8684 9.84101 93.8447 9.91263C93.8209 9.98424 93.8139 10.0603 93.8241 10.1351V11.334C93.8241 11.8482 93.6671 12.0653 93.3198 12.1688Z" fill="#FAFAFA"/>
<path d="M101.403 11.7079V12.6229H101.152C100.952 12.6229 100.818 12.7364 100.818 12.9769V14.3327C100.818 15.1942 100.337 15.6684 99.399 15.6684H98.9648V14.7634H99.1018C99.1764 14.7722 99.252 14.7638 99.3229 14.7389C99.3938 14.7141 99.4581 14.6734 99.5109 14.6199C99.5637 14.5665 99.6036 14.5017 99.6276 14.4305C99.6516 14.3593 99.6591 14.2836 99.6494 14.2091V13.0103C99.6494 12.4926 99.8064 12.2756 100.15 12.1687C99.8164 12.0652 99.6494 11.8348 99.6494 11.3305V10.1317C99.6596 10.0569 99.6526 9.98083 99.6288 9.90921C99.6051 9.8376 99.5652 9.77237 99.5124 9.71854C99.4595 9.6647 99.395 9.62369 99.3238 9.59863C99.2527 9.57358 99.1767 9.56516 99.1018 9.57401H98.9648V8.66235H99.399C100.337 8.66235 100.818 9.13989 100.818 9.99811V11.3739C100.818 11.6144 100.945 11.7246 101.152 11.7246L101.403 11.7079Z" fill="#FAFAFA"/>
<path d="M128.628 44.2905H111.597C111.317 44.2905 111.04 44.2352 110.781 44.128C110.523 44.0207 110.288 43.8634 110.09 43.6652C109.892 43.4671 109.735 43.2318 109.628 42.9729C109.521 42.714 109.466 42.4366 109.467 42.1566V18.5771C109.467 18.012 109.691 17.4701 110.091 17.0706C110.49 16.671 111.032 16.4465 111.597 16.4465H122.4L130.749 25.0655V42.1566C130.75 42.7205 130.527 43.2617 130.13 43.6617C129.732 44.0617 129.192 44.2878 128.628 44.2905Z" fill="#2059EE"/>
<g opacity="0.2">
<path d="M109.464 35.8418H130.762V41.9863C130.762 42.5974 130.52 43.1835 130.088 43.6156C129.655 44.0477 129.069 44.2905 128.458 44.2905H111.761C111.15 44.2905 110.564 44.0477 110.132 43.6156C109.7 43.1835 109.457 42.5974 109.457 41.9863V35.8418H109.464Z" fill="black"/>
</g>
<g opacity="0.2">
<path d="M122.396 16.4465V23.0819C122.396 23.608 122.605 24.1125 122.977 24.4845C123.349 24.8565 123.854 25.0655 124.38 25.0655H130.758L122.396 16.4465Z" fill="white"/>
</g>
<g opacity="0.2">
<path d="M122.485 23.6663C122.485 23.6663 122.401 25.2759 124.235 25.8035C124.304 25.8229 124.374 25.8385 124.445 25.8502C125.277 26.0005 130.76 26.9756 130.76 26.852V25.0655H124.382C124.382 25.0655 122.789 25.012 122.485 23.6663Z" fill="black"/>
</g>
<path d="M118.211 28.8657L115.653 29.8007L118.211 30.7291V31.6908L114.555 30.3017V29.2998L118.211 27.9106V28.8657Z" fill="#FAFAFA"/>
<path d="M120.958 26.0239H122.023L119.499 33.2571H118.434L120.958 26.0239Z" fill="#FAFAFA"/>
<path d="M125.817 29.3031V30.3049L122.17 31.6907V30.7424L124.728 29.814L122.17 28.879V27.9272L125.817 29.3031Z" fill="#FAFAFA"/>
<path d="M117.338 38.9841V41.846H116.67V40.6739H115.371V41.846H114.703V38.9841H115.371V40.1128H116.67V38.9841H117.338Z" fill="#FAFAFA"/>
<path d="M118.61 39.5251H117.695V38.9841H120.19V39.5251H119.272V41.846H118.604L118.61 39.5251Z" fill="#FAFAFA"/>
<path d="M123.148 41.8458V40.1293L122.307 41.5452H122.006L121.168 40.166V41.8357H120.547V38.9739H121.095L122.17 40.7605L123.225 38.9806H123.769V41.8424L123.148 41.8458Z" fill="#FAFAFA"/>
<path d="M124.447 38.9841H125.115V41.3217H126.551V41.8594H124.451L124.447 38.9841Z" fill="#FAFAFA"/>
<path d="M59.1765 18.885H21.8825C21.202 18.885 20.6504 19.4369 20.6504 20.1177V81.7625C20.6504 82.4433 21.202 82.9951 21.8825 82.9951H59.1765C59.857 82.9951 60.4086 82.4433 60.4086 81.7625V20.1177C60.4086 19.4369 59.857 18.885 59.1765 18.885Z" fill="white"/>
<path d="M22.1156 18.8851H59.0118C59.3823 18.8851 59.7376 19.0383 59.9995 19.3112C60.2615 19.584 60.4086 19.9541 60.4086 20.3399V26.3397H20.6504V20.407C20.6493 20.2065 20.6865 20.0077 20.7598 19.8223C20.8331 19.6369 20.9411 19.4685 21.0774 19.3269C21.2137 19.1852 21.3757 19.0733 21.554 18.9974C21.7322 18.9216 21.9231 18.8834 22.1156 18.8851Z" fill="#E0E0E0"/>
<path d="M58.9522 82.9709C59.1267 82.9615 59.2985 82.9235 59.4608 82.8584C59.6952 82.7555 59.8953 82.5873 60.0373 82.3737C60.1793 82.1601 60.2572 81.9102 60.2618 81.6535C60.2618 80.2839 60.2618 78.2717 60.2417 75.6811C60.2417 70.496 60.2417 62.9973 60.2097 53.7315C60.1777 44.4657 60.2097 33.4246 60.1857 21.1705V20.5962C60.1966 20.4127 60.1804 20.2287 60.1376 20.05C60.0625 19.7891 59.9045 19.5601 59.6876 19.3977C59.4707 19.2353 59.2068 19.1484 58.9361 19.1503H22.0909C21.7857 19.1496 21.4916 19.2655 21.2685 19.4743C21.0453 19.6832 20.9098 19.9694 20.8895 20.2749C20.8895 20.4797 20.8895 20.7086 20.8895 20.9255V38.9311C20.8895 45.5983 20.8895 52.0326 20.8895 58.1616C20.8895 64.2906 20.8895 70.1104 20.8895 75.5606C20.8895 76.9222 20.8895 78.2637 20.8895 79.577V81.529C20.8669 81.8324 20.9541 82.1337 21.135 82.3779C21.3159 82.6221 21.5785 82.7926 21.8747 82.8584C22.1806 82.8903 22.4885 82.8997 22.7958 82.8866H29.0355L50.9263 82.9187L56.8776 82.9388L50.9263 82.9588L29.0355 82.991H22.7237C22.4043 83.002 22.0845 82.9912 21.7666 82.9588C21.4354 82.8883 21.141 82.7 20.9375 82.4287C20.7327 82.154 20.6319 81.8152 20.6532 81.4728C20.6532 80.8302 20.6532 80.1795 20.6532 79.5208V75.5044C20.6532 70.0541 20.6532 64.2304 20.6532 58.1054C20.6532 51.9803 20.6532 45.5421 20.6532 38.8748C20.6532 35.5359 20.6532 32.1447 20.6532 28.7013V20.8693C20.6532 20.6484 20.6532 20.4395 20.6532 20.2026C20.6718 19.9645 20.7503 19.7351 20.8815 19.5359C21.012 19.3358 21.1902 19.1715 21.4 19.0579C21.6098 18.9443 21.8445 18.8849 22.0829 18.8852H58.9481C59.1564 18.8818 59.3628 18.9243 59.5529 19.0097C59.7449 19.0945 59.9162 19.2204 60.0545 19.3786C60.1929 19.5368 60.2951 19.7234 60.3539 19.9255C60.3983 20.1216 60.4158 20.323 60.4059 20.5239V21.0982C60.4059 33.3523 60.4059 44.3934 60.3819 53.6592C60.3579 62.925 60.3579 70.4237 60.3499 75.6088C60.3499 78.1994 60.3499 80.2116 60.3298 81.5812C60.3263 81.8876 60.219 82.1836 60.0255 82.4206C59.8848 82.5944 59.705 82.7321 59.5008 82.8223C59.372 82.8708 59.2373 82.9019 59.1003 82.9147L58.9522 82.9709Z" fill="#263238"/>
<path d="M26.6138 23.1094C26.6138 23.3551 26.5409 23.5953 26.4044 23.7997C26.2679 24.004 26.0738 24.1632 25.8468 24.2573C25.6198 24.3513 25.37 24.3759 25.129 24.328C24.888 24.28 24.6666 24.1617 24.4928 23.9879C24.3191 23.8142 24.2007 23.5928 24.1528 23.3518C24.1048 23.1108 24.1294 22.861 24.2235 22.6339C24.3175 22.4069 24.4768 22.2129 24.6811 22.0763C24.8854 21.9398 25.1256 21.867 25.3713 21.867C25.5347 21.8664 25.6965 21.8981 25.8475 21.9604C25.9985 22.0226 26.1357 22.1141 26.2511 22.2296C26.3666 22.3451 26.4581 22.4823 26.5204 22.6333C26.5826 22.7843 26.6144 22.9461 26.6138 23.1094Z" fill="white"/>
<path d="M28.8479 24.3518C29.5341 24.3518 30.0904 23.7956 30.0904 23.1094C30.0904 22.4232 29.5341 21.8669 28.8479 21.8669C28.1617 21.8669 27.6055 22.4232 27.6055 23.1094C27.6055 23.7956 28.1617 24.3518 28.8479 24.3518Z" fill="white"/>
<path d="M32.3264 24.3518C33.0126 24.3518 33.5689 23.7956 33.5689 23.1094C33.5689 22.4232 33.0126 21.8669 32.3264 21.8669C31.6402 21.8669 31.084 22.4232 31.084 23.1094C31.084 23.7956 31.6402 24.3518 32.3264 24.3518Z" fill="white"/>
<path d="M37.735 35.7822H30.402C30.1881 35.7822 29.9831 35.7037 29.8319 35.5639C29.6807 35.424 29.5957 35.2344 29.5957 35.0367C29.5957 34.839 29.6807 34.6494 29.8319 34.5096C29.9831 34.3698 30.1881 34.2913 30.402 34.2913H37.735C37.9489 34.2913 38.1539 34.3698 38.3052 34.5096C38.4564 34.6494 38.5413 34.839 38.5413 35.0367C38.5413 35.2344 38.4564 35.424 38.3052 35.5639C38.1539 35.7037 37.9489 35.7822 37.735 35.7822Z" fill="#263238"/>
<path d="M37.735 39.758H30.402C30.1881 39.758 29.9831 39.6795 29.8319 39.5397C29.6807 39.3999 29.5957 39.2103 29.5957 39.0126C29.5957 38.8148 29.6807 38.6252 29.8319 38.4854C29.9831 38.3456 30.1881 38.2671 30.402 38.2671H37.735C37.9489 38.2671 38.1539 38.3456 38.3052 38.4854C38.4564 38.6252 38.5413 38.8148 38.5413 39.0126C38.5413 39.2103 38.4564 39.3999 38.3052 39.5397C38.1539 39.6795 37.9489 39.758 37.735 39.758Z" fill="#E0E0E0"/>
<path d="M38.2311 51.1887H30.8981C30.6842 51.1887 30.4792 51.1101 30.3279 50.9703C30.1767 50.8305 30.0918 50.6409 30.0918 50.4432C30.0918 50.2455 30.1767 50.0559 30.3279 49.9161C30.4792 49.7763 30.6842 49.6978 30.8981 49.6978H38.2311C38.445 49.6978 38.65 49.7763 38.8012 49.9161C38.9525 50.0559 39.0374 50.2455 39.0374 50.4432C39.0374 50.6409 38.9525 50.8305 38.8012 50.9703C38.65 51.1101 38.445 51.1887 38.2311 51.1887Z" fill="#E0E0E0"/>
<path d="M37.735 44.2309H30.402C30.1881 44.2309 29.9831 44.1524 29.8319 44.0126C29.6807 43.8728 29.5957 43.6832 29.5957 43.4855C29.5957 43.2877 29.6807 43.0981 29.8319 42.9583C29.9831 42.8185 30.1881 42.74 30.402 42.74H37.735C37.9489 42.74 38.1539 42.8185 38.3052 42.9583C38.4564 43.0981 38.5413 43.2877 38.5413 43.4855C38.5413 43.6832 38.4564 43.8728 38.3052 44.0126C38.1539 44.1524 37.9489 44.2309 37.735 44.2309Z" fill="#2059EE"/>
<path d="M37.735 68.0859H30.402C30.1881 68.0859 29.9831 68.0074 29.8319 67.8676C29.6807 67.7278 29.5957 67.5381 29.5957 67.3404C29.5957 67.1427 29.6807 66.9531 29.8319 66.8133C29.9831 66.6735 30.1881 66.595 30.402 66.595H37.735C37.9489 66.595 38.1539 66.6735 38.3052 66.8133C38.4564 66.9531 38.5413 67.1427 38.5413 67.3404C38.5413 67.5381 38.4564 67.7278 38.3052 67.8676C38.1539 68.0074 37.9489 68.0859 37.735 68.0859Z" fill="#2059EE"/>
<path d="M49.6608 35.7822H42.3278C42.1139 35.7822 41.9088 35.7037 41.7576 35.5639C41.6064 35.424 41.5215 35.2344 41.5215 35.0367C41.5215 34.839 41.6064 34.6494 41.7576 34.5096C41.9088 34.3698 42.1139 34.2913 42.3278 34.2913H49.6608C49.8746 34.2913 50.0797 34.3698 50.2309 34.5096C50.3821 34.6494 50.4671 34.839 50.4671 35.0367C50.4671 35.2344 50.3821 35.424 50.2309 35.5639C50.0797 35.7037 49.8746 35.7822 49.6608 35.7822Z" fill="#455A64"/>
<path d="M57.1921 39.758H42.2315C42.133 39.7537 42.0364 39.731 41.9473 39.6911C41.8583 39.6512 41.7784 39.5949 41.7125 39.5256C41.6466 39.4562 41.5958 39.3751 41.5633 39.2871C41.5307 39.199 41.517 39.1057 41.5228 39.0126C41.517 38.9194 41.5307 38.8261 41.5633 38.738C41.5958 38.65 41.6466 38.5689 41.7125 38.4996C41.7784 38.4302 41.8583 38.3739 41.9473 38.334C42.0364 38.2941 42.133 38.2714 42.2315 38.2671H57.2118C57.3102 38.2714 57.4068 38.2941 57.4959 38.334C57.585 38.3739 57.6648 38.4302 57.7307 38.4996C57.7967 38.5689 57.8474 38.65 57.88 38.738C57.9125 38.8261 57.9263 38.9194 57.9204 39.0126C57.9263 39.1072 57.9119 39.202 57.8781 39.2913C57.8443 39.3806 57.7919 39.4624 57.7239 39.5321C57.6558 39.6017 57.5737 39.6576 57.4823 39.6964C57.391 39.7352 57.2922 39.7562 57.1921 39.758Z" fill="#263238"/>
<path d="M57.1759 44.2309H41.7761C41.6738 44.2285 41.5731 44.2073 41.4798 44.1683C41.3866 44.1293 41.3026 44.0735 41.233 44.0041C41.1633 43.9346 41.1093 43.853 41.0741 43.7639C41.039 43.6749 41.0234 43.5802 41.0282 43.4855C41.0234 43.3907 41.039 43.2961 41.0741 43.207C41.1093 43.118 41.1633 43.0363 41.233 42.9669C41.3026 42.8974 41.3866 42.8416 41.4798 42.8026C41.5731 42.7637 41.6738 42.7424 41.7761 42.74H57.1759C57.2781 42.7424 57.3788 42.7637 57.4721 42.8026C57.5654 42.8416 57.6493 42.8974 57.719 42.9669C57.7887 43.0363 57.8426 43.118 57.8778 43.207C57.913 43.2961 57.9286 43.3907 57.9237 43.4855C57.9286 43.5802 57.913 43.6749 57.8778 43.7639C57.8426 43.853 57.7887 43.9346 57.719 44.0041C57.6493 44.0735 57.5654 44.1293 57.4721 44.1683C57.3788 44.2073 57.2781 44.2285 57.1759 44.2309Z" fill="#E0E0E0"/>
<path d="M45.7442 47.7099H30.3444C30.2422 47.7076 30.1414 47.6863 30.0482 47.6473C29.9549 47.6083 29.871 47.5525 29.8013 47.4831C29.7316 47.4136 29.6776 47.332 29.6425 47.2429C29.6073 47.1539 29.5917 47.0592 29.5966 46.9645C29.5917 46.8697 29.6073 46.7751 29.6425 46.686C29.6776 46.597 29.7316 46.5153 29.8013 46.4459C29.871 46.3764 29.9549 46.3206 30.0482 46.2816C30.1414 46.2427 30.2422 46.2214 30.3444 46.219H45.7442C45.8465 46.2214 45.9472 46.2427 46.0405 46.2816C46.1337 46.3206 46.2177 46.3764 46.2873 46.4459C46.357 46.5153 46.411 46.597 46.4462 46.686C46.4813 46.7751 46.4969 46.8697 46.4921 46.9645C46.4969 47.0592 46.4813 47.1539 46.4462 47.2429C46.411 47.332 46.357 47.4136 46.2873 47.4831C46.2177 47.5525 46.1337 47.6083 46.0405 47.6473C45.9472 47.6863 45.8465 47.7076 45.7442 47.7099Z" fill="#E0E0E0"/>
<path d="M27.1101 35.0367C27.1101 35.1842 27.0664 35.3283 26.9844 35.4509C26.9025 35.5735 26.7861 35.669 26.6499 35.7254C26.5137 35.7819 26.3638 35.7966 26.2192 35.7679C26.0746 35.7391 25.9417 35.6681 25.8375 35.5638C25.7332 35.4596 25.6622 35.3268 25.6335 35.1822C25.6047 35.0376 25.6195 34.8877 25.6759 34.7514C25.7323 34.6152 25.8279 34.4988 25.9504 34.4169C26.073 34.335 26.2172 34.2913 26.3646 34.2913C26.5623 34.2913 26.7519 34.3698 26.8917 34.5096C27.0315 34.6494 27.1101 34.839 27.1101 35.0367Z" fill="#455A64"/>
<path d="M27.1101 31.0611C27.1101 31.2086 27.0664 31.3527 26.9844 31.4753C26.9025 31.5979 26.7861 31.6934 26.6499 31.7499C26.5137 31.8063 26.3638 31.821 26.2192 31.7923C26.0746 31.7635 25.9417 31.6925 25.8375 31.5883C25.7332 31.484 25.6622 31.3512 25.6335 31.2066C25.6047 31.062 25.6195 30.9121 25.6759 30.7759C25.7323 30.6396 25.8279 30.5232 25.9504 30.4413C26.073 30.3594 26.2172 30.3157 26.3646 30.3157C26.5623 30.3157 26.7519 30.3942 26.8917 30.534C27.0315 30.6738 27.1101 30.8634 27.1101 31.0611Z" fill="#455A64"/>
<path d="M27.1101 39.0126C27.1101 39.16 27.0664 39.3041 26.9844 39.4267C26.9025 39.5493 26.7861 39.6449 26.6499 39.7013C26.5137 39.7577 26.3638 39.7725 26.2192 39.7437C26.0746 39.7149 25.9417 39.6439 25.8375 39.5397C25.7332 39.4354 25.6622 39.3026 25.6335 39.158C25.6047 39.0134 25.6195 38.8635 25.6759 38.7273C25.7323 38.5911 25.8279 38.4746 25.9504 38.3927C26.073 38.3108 26.2172 38.2671 26.3646 38.2671C26.5623 38.2671 26.7519 38.3456 26.8917 38.4854C27.0315 38.6252 27.1101 38.8148 27.1101 39.0126Z" fill="#455A64"/>
<path d="M27.1101 43.4855C27.1101 43.6329 27.0664 43.777 26.9844 43.8996C26.9025 44.0222 26.7861 44.1178 26.6499 44.1742C26.5137 44.2306 26.3638 44.2454 26.2192 44.2166C26.0746 44.1878 25.9417 44.1168 25.8375 44.0126C25.7332 43.9083 25.6622 43.7755 25.6335 43.6309C25.6047 43.4863 25.6195 43.3364 25.6759 43.2002C25.7323 43.064 25.8279 42.9475 25.9504 42.8656C26.073 42.7837 26.2172 42.74 26.3646 42.74C26.5623 42.74 26.7519 42.8185 26.8917 42.9583C27.0315 43.0981 27.1101 43.2877 27.1101 43.4855Z" fill="#455A64"/>
<path d="M38.2311 62.6191H30.8981C30.6842 62.6191 30.4792 62.5406 30.3279 62.4008C30.1767 62.261 30.0918 62.0714 30.0918 61.8736C30.0918 61.6759 30.1767 61.4863 30.3279 61.3465C30.4792 61.2067 30.6842 61.1282 30.8981 61.1282H38.2311C38.445 61.1282 38.65 61.2067 38.8012 61.3465C38.9525 61.4863 39.0374 61.6759 39.0374 61.8736C39.0374 62.0714 38.9525 62.261 38.8012 62.4008C38.65 62.5406 38.445 62.6191 38.2311 62.6191Z" fill="#E0E0E0"/>
<path d="M37.735 55.6613H30.402C30.1881 55.6613 29.9831 55.5828 29.8319 55.443C29.6807 55.3032 29.5957 55.1136 29.5957 54.9159C29.5957 54.7182 29.6807 54.5286 29.8319 54.3888C29.9831 54.2489 30.1881 54.1704 30.402 54.1704H37.735C37.9489 54.1704 38.1539 54.2489 38.3052 54.3888C38.4564 54.5286 38.5413 54.7182 38.5413 54.9159C38.5413 55.1136 38.4564 55.3032 38.3052 55.443C38.1539 55.5828 37.9489 55.6613 37.735 55.6613Z" fill="#2059EE"/>
<path d="M57.1759 55.6613H41.7761C41.6738 55.659 41.5731 55.6377 41.4798 55.5987C41.3866 55.5598 41.3026 55.5039 41.233 55.4345C41.1633 55.365 41.1093 55.2834 41.0741 55.1943C41.039 55.1053 41.0234 55.0106 41.0282 54.9159C41.0234 54.8212 41.039 54.7265 41.0741 54.6374C41.1093 54.5484 41.1633 54.4667 41.233 54.3973C41.3026 54.3278 41.3866 54.272 41.4798 54.233C41.5731 54.1941 41.6738 54.1728 41.7761 54.1704H57.1759C57.2781 54.1728 57.3788 54.1941 57.4721 54.233C57.5654 54.272 57.6493 54.3278 57.719 54.3973C57.7887 54.4667 57.8426 54.5484 57.8778 54.6374C57.913 54.7265 57.9286 54.8212 57.9237 54.9159C57.9286 55.0106 57.913 55.1053 57.8778 55.1943C57.8426 55.2834 57.7887 55.365 57.719 55.4345C57.6493 55.5039 57.5654 55.5598 57.4721 55.5987C57.3788 55.6377 57.2781 55.659 57.1759 55.6613Z" fill="#E0E0E0"/>
<path d="M45.7442 59.1401H30.3444C30.2422 59.1377 30.1414 59.1164 30.0482 59.0775C29.9549 59.0385 29.871 58.9827 29.8013 58.9132C29.7316 58.8438 29.6776 58.7621 29.6425 58.6731C29.6073 58.584 29.5917 58.4894 29.5966 58.3946C29.5917 58.2999 29.6073 58.2052 29.6425 58.1162C29.6776 58.0271 29.7316 57.9455 29.8013 57.876C29.871 57.8066 29.9549 57.7508 30.0482 57.7118C30.1414 57.6728 30.2422 57.6515 30.3444 57.6492H45.7442C45.8465 57.6515 45.9472 57.6728 46.0405 57.7118C46.1337 57.7508 46.2177 57.8066 46.2873 57.876C46.357 57.9455 46.411 58.0271 46.4462 58.1162C46.4813 58.2052 46.4969 58.2999 46.4921 58.3946C46.4969 58.4894 46.4813 58.584 46.4462 58.6731C46.411 58.7621 46.357 58.8438 46.2873 58.9132C46.2177 58.9827 46.1337 59.0385 46.0405 59.0775C45.9472 59.1164 45.8465 59.1377 45.7442 59.1401Z" fill="#E0E0E0"/>
<path d="M27.1101 54.9159C27.1101 55.0633 27.0664 55.2074 26.9844 55.33C26.9025 55.4526 26.7861 55.5482 26.6499 55.6046C26.5137 55.661 26.3638 55.6758 26.2192 55.647C26.0746 55.6183 25.9417 55.5473 25.8375 55.443C25.7332 55.3387 25.6622 55.2059 25.6335 55.0613C25.6047 54.9167 25.6195 54.7668 25.6759 54.6306C25.7323 54.4944 25.8279 54.378 25.9504 54.296C26.073 54.2141 26.2172 54.1704 26.3646 54.1704C26.5623 54.1704 26.7519 54.2489 26.8917 54.3888C27.0315 54.5286 27.1101 54.7182 27.1101 54.9159Z" fill="#455A64"/>
<path d="M34.6679 30.3157H29.9903C29.7724 30.3157 29.5957 30.4839 29.5957 30.6913V31.4309C29.5957 31.6384 29.7724 31.8066 29.9903 31.8066H34.6679C34.8858 31.8066 35.0625 31.6384 35.0625 31.4309V30.6913C35.0625 30.4839 34.8858 30.3157 34.6679 30.3157Z" fill="#455A64"/>
<path d="M37.735 72.0617H30.402C30.1881 72.0617 29.9831 71.9832 29.8319 71.8434C29.6807 71.7036 29.5957 71.514 29.5957 71.3163C29.5957 71.1186 29.6807 70.929 29.8319 70.7891C29.9831 70.6493 30.1881 70.5708 30.402 70.5708H37.735C37.9489 70.5708 38.1539 70.6493 38.3052 70.7891C38.4564 70.929 38.5413 71.1186 38.5413 71.3163C38.5413 71.514 38.4564 71.7036 38.3052 71.8434C38.1539 71.9832 37.9489 72.0617 37.735 72.0617Z" fill="#263238"/>
<path d="M49.6608 72.0617H42.3278C42.1139 72.0617 41.9088 71.9832 41.7576 71.8434C41.6064 71.7036 41.5215 71.514 41.5215 71.3163C41.5215 71.1186 41.6064 70.929 41.7576 70.7891C41.9088 70.6493 42.1139 70.5708 42.3278 70.5708H49.6608C49.8746 70.5708 50.0797 70.6493 50.2309 70.7891C50.3821 70.929 50.4671 71.1186 50.4671 71.3163C50.4671 71.514 50.3821 71.7036 50.2309 71.8434C50.0797 71.9832 49.8746 72.0617 49.6608 72.0617Z" fill="#455A64"/>
<path d="M27.1101 71.3163C27.1101 71.4637 27.0664 71.6078 26.9844 71.7304C26.9025 71.853 26.7861 71.9486 26.6499 72.005C26.5137 72.0614 26.3638 72.0762 26.2192 72.0474C26.0746 72.0186 25.9417 71.9476 25.8375 71.8434C25.7332 71.7391 25.6622 71.6063 25.6335 71.4617C25.6047 71.3171 25.6195 71.1672 25.6759 71.031C25.7323 70.8948 25.8279 70.7783 25.9504 70.6964C26.073 70.6145 26.2172 70.5708 26.3646 70.5708C26.5623 70.5708 26.7519 70.6493 26.8917 70.7891C27.0315 70.9289 27.1101 71.1186 27.1101 71.3163Z" fill="#455A64"/>
<path d="M27.1101 75.2919C27.1101 75.4393 27.0664 75.5834 26.9844 75.706C26.9025 75.8286 26.7861 75.9242 26.6499 75.9806C26.5137 76.037 26.3638 76.0518 26.2192 76.023C26.0746 75.9942 25.9417 75.9232 25.8375 75.819C25.7332 75.7147 25.6622 75.5819 25.6335 75.4373C25.6047 75.2927 25.6195 75.1428 25.6759 75.0066C25.7323 74.8704 25.8279 74.7539 25.9504 74.672C26.073 74.5901 26.2172 74.5464 26.3646 74.5464C26.5623 74.5464 26.7519 74.6249 26.8917 74.7647C27.0315 74.9045 27.1101 75.0941 27.1101 75.2919Z" fill="#455A64"/>
<path d="M34.6679 74.5464H29.9903C29.7724 74.5464 29.5957 74.7146 29.5957 74.9221V75.6617C29.5957 75.8691 29.7724 76.0373 29.9903 76.0373H34.6679C34.8858 76.0373 35.0625 75.8691 35.0625 75.6617V74.9221C35.0625 74.7146 34.8858 74.5464 34.6679 74.5464Z" fill="#455A64"/>
<path d="M156.679 70.5461H67.0488V127.559H156.679V70.5461Z" fill="white"/>
<path d="M83.1907 70.5461H67.0488V127.559H83.1907V70.5461Z" fill="#EBEBEB"/>
<path d="M74.1442 76.6986C74.228 76.6483 74.3183 76.6099 74.4126 76.5843L74.4673 76.3159H74.9146L74.9841 76.5793C75.0779 76.6041 75.1681 76.6408 75.2525 76.6887L75.4811 76.5396L75.8042 76.8477L75.665 77.0813C75.7152 77.165 75.7537 77.2554 75.7793 77.3496L76.0477 77.4043V77.8566L75.7843 77.9212C75.7632 78.0169 75.728 78.109 75.6799 78.1945L75.829 78.4181L75.5159 78.7412L75.2823 78.602C75.1987 78.6538 75.1084 78.694 75.014 78.7213L74.9593 78.9847H74.507L74.4424 78.7213C74.3487 78.6965 74.2584 78.6598 74.1741 78.612L73.9455 78.7611L73.6224 78.448L73.7616 78.2144C73.7113 78.1306 73.6729 78.0403 73.6473 77.946L73.3789 77.8913V77.4441L73.6423 77.3795C73.6645 77.284 73.6996 77.192 73.7467 77.1061L73.5976 76.8775L73.9107 76.5545L74.1442 76.6936V76.6986ZM74.3828 77.2999C74.2961 77.3921 74.2479 77.5139 74.2479 77.6404C74.2479 77.7669 74.2961 77.8886 74.3828 77.9808C74.4752 78.0689 74.598 78.1181 74.7257 78.1181C74.8534 78.1181 74.9762 78.0689 75.0686 77.9808C75.1253 77.8846 75.1478 77.7721 75.1327 77.6614C75.1176 77.5508 75.0656 77.4485 74.9853 77.371C74.9049 77.2935 74.8008 77.2453 74.6897 77.2342C74.5786 77.2231 74.467 77.2498 74.3729 77.3099L74.3828 77.2999Z" fill="#E0E0E0"/>
<path d="M77.8709 89.2968H70.8437C70.7486 89.2968 70.6545 89.278 70.5668 89.2415C70.479 89.205 70.3993 89.1514 70.3324 89.084C70.2654 89.0166 70.2124 88.9365 70.1765 88.8485C70.1406 88.7605 70.1224 88.6663 70.1231 88.5712C70.1231 88.3801 70.199 88.1968 70.3341 88.0617C70.4693 87.9265 70.6526 87.8506 70.8437 87.8506H77.8809C77.9759 87.8499 78.0702 87.8681 78.1582 87.904C78.2462 87.94 78.3262 87.9929 78.3937 88.0599C78.4611 88.1269 78.5146 88.2065 78.5512 88.2943C78.5877 88.3821 78.6065 88.4762 78.6065 88.5712C78.6065 88.6674 78.5874 88.7625 78.5503 88.8512C78.5132 88.9399 78.4589 89.0203 78.3905 89.0878C78.322 89.1554 78.2409 89.2086 78.1517 89.2445C78.0625 89.2803 77.9671 89.2981 77.8709 89.2968Z" fill="#E0E0E0"/>
<path d="M77.8709 85.6142H70.8437C70.6521 85.6129 70.4688 85.5359 70.3338 85.3999C70.1988 85.264 70.123 85.0802 70.123 84.8886C70.123 84.6975 70.199 84.5142 70.3341 84.3791C70.4693 84.2439 70.6525 84.168 70.8437 84.168H77.8809C77.9759 84.1673 78.0702 84.1855 78.1582 84.2214C78.2462 84.2573 78.3262 84.3103 78.3936 84.3773C78.4611 84.4443 78.5146 84.5239 78.5511 84.6117C78.5877 84.6994 78.6065 84.7936 78.6065 84.8886C78.6065 84.9847 78.5874 85.0799 78.5503 85.1686C78.5132 85.2573 78.4589 85.3377 78.3904 85.4052C78.322 85.4727 78.2408 85.526 78.1517 85.5618C78.0625 85.5977 77.967 85.6155 77.8709 85.6142Z" fill="#E0E0E0"/>
<path d="M77.8709 82.2397H70.8437C70.6525 82.2397 70.4693 82.1637 70.3341 82.0286C70.199 81.8934 70.123 81.7102 70.123 81.519C70.123 81.3275 70.1988 81.1436 70.3338 81.0077C70.4688 80.8718 70.6521 80.7948 70.8437 80.7935H77.8809C78.069 80.796 78.2488 80.8715 78.3824 81.0041C78.5159 81.1367 78.5927 81.316 78.5965 81.5041C78.5985 81.6004 78.5812 81.6962 78.5456 81.7856C78.5099 81.8751 78.4567 81.9566 78.3891 82.0251C78.3214 82.0937 78.2407 82.148 78.1517 82.1849C78.0627 82.2217 77.9672 82.2403 77.8709 82.2397Z" fill="#E0E0E0"/>
<path d="M96.7807 78.9699H90.1113C89.9201 78.9699 89.7368 78.894 89.6017 78.7588C89.4666 78.6237 89.3906 78.4404 89.3906 78.2493C89.39 78.1542 89.4081 78.06 89.4441 77.972C89.48 77.884 89.533 77.8039 89.5999 77.7365C89.6669 77.6691 89.7466 77.6155 89.8343 77.579C89.9221 77.5425 90.0162 77.5237 90.1113 77.5237H96.7807C96.8758 77.5237 96.9699 77.5425 97.0576 77.579C97.1454 77.6155 97.225 77.6691 97.292 77.7365C97.359 77.8039 97.412 77.884 97.4479 77.972C97.4838 78.06 97.502 78.1542 97.5013 78.2493C97.5013 78.4404 97.4254 78.6237 97.2902 78.7588C97.1551 78.894 96.9718 78.9699 96.7807 78.9699Z" fill="#263238"/>
<path d="M96.7807 82.7568H90.1113C90.0162 82.7568 89.9221 82.738 89.8343 82.7014C89.7466 82.6649 89.6669 82.6114 89.5999 82.5439C89.533 82.4765 89.48 82.3965 89.4441 82.3085C89.4081 82.2205 89.39 82.1262 89.3906 82.0312C89.3906 81.8401 89.4666 81.6568 89.6017 81.5216C89.7368 81.3865 89.9201 81.3105 90.1113 81.3105H96.7807C96.9718 81.3105 97.1551 81.3865 97.2902 81.5216C97.4254 81.6568 97.5013 81.8401 97.5013 82.0312C97.502 82.1262 97.4838 82.2205 97.4479 82.3085C97.412 82.3965 97.359 82.4765 97.292 82.5439C97.225 82.6114 97.1454 82.6649 97.0576 82.7014C96.9699 82.738 96.8758 82.7568 96.7807 82.7568Z" fill="#E0E0E0"/>
<path d="M96.7807 86.6679H90.1113C89.9201 86.6679 89.7368 86.592 89.6017 86.4568C89.4666 86.3217 89.3906 86.1384 89.3906 85.9473C89.39 85.8522 89.4081 85.758 89.4441 85.67C89.48 85.582 89.533 85.5019 89.5999 85.4345C89.6669 85.3671 89.7466 85.3135 89.8343 85.277C89.9221 85.2405 90.0162 85.2217 90.1113 85.2217H96.7807C96.8758 85.2217 96.9699 85.2405 97.0576 85.277C97.1454 85.3135 97.225 85.3671 97.292 85.4345C97.359 85.5019 97.412 85.582 97.4479 85.67C97.4838 85.758 97.502 85.8522 97.5013 85.9473C97.5013 86.1384 97.4254 86.3217 97.2902 86.4568C97.1551 86.592 96.9718 86.6679 96.7807 86.6679Z" fill="#2059EE"/>
<path d="M93.938 94.2318H90.1113C90.0162 94.2318 89.9221 94.213 89.8343 94.1765C89.7466 94.14 89.6669 94.0865 89.5999 94.019C89.533 93.9516 89.48 93.8716 89.4441 93.7836C89.4081 93.6956 89.39 93.6013 89.3906 93.5063C89.3906 93.3151 89.4666 93.1318 89.6017 92.9967C89.7368 92.8616 89.9201 92.7856 90.1113 92.7856H93.938C94.1291 92.7856 94.3124 92.8616 94.4475 92.9967C94.5827 93.1318 94.6586 93.3151 94.6586 93.5063C94.6593 93.6013 94.6411 93.6956 94.6052 93.7836C94.5693 93.8716 94.5163 93.9516 94.4493 94.019C94.3823 94.0865 94.3027 94.14 94.2149 94.1765C94.1271 94.213 94.033 94.2318 93.938 94.2318Z" fill="#263238"/>
<path d="M93.938 98.153H90.1113C90.0162 98.153 89.9221 98.1342 89.8343 98.0977C89.7466 98.0611 89.6669 98.0076 89.5999 97.9402C89.533 97.8727 89.48 97.7927 89.4441 97.7047C89.4081 97.6167 89.39 97.5225 89.3906 97.4274C89.3906 97.2363 89.4666 97.053 89.6017 96.9179C89.7368 96.7827 89.9201 96.7068 90.1113 96.7068H93.938C94.1291 96.7068 94.3124 96.7827 94.4475 96.9179C94.5827 97.053 94.6586 97.2363 94.6586 97.4274C94.6593 97.5225 94.6411 97.6167 94.6052 97.7047C94.5693 97.7927 94.5163 97.8727 94.4493 97.9402C94.3823 98.0076 94.3027 98.0611 94.2149 98.0977C94.1271 98.1342 94.033 98.153 93.938 98.153Z" fill="#263238"/>
<path d="M105.295 98.153H98.2881C98.0957 98.153 97.9111 98.0766 97.775 97.9405C97.6389 97.8044 97.5625 97.6199 97.5625 97.4274C97.5638 97.2359 97.6408 97.0526 97.7768 96.9176C97.9127 96.7826 98.0965 96.7068 98.2881 96.7068H105.295C105.391 96.7061 105.485 96.7243 105.573 96.7602C105.661 96.7961 105.741 96.8491 105.808 96.9161C105.876 96.9831 105.929 97.0627 105.966 97.1505C106.002 97.2383 106.021 97.3324 106.021 97.4274C106.021 97.6199 105.945 97.8044 105.809 97.9405C105.672 98.0766 105.488 98.153 105.295 98.153Z" fill="#E0E0E0"/>
<path d="M101.333 101.637H94.3202C94.1291 101.637 93.9458 101.561 93.8107 101.426C93.6755 101.291 93.5996 101.107 93.5996 100.916C93.5996 100.725 93.6754 100.541 93.8104 100.405C93.9454 100.269 94.1287 100.192 94.3202 100.191H101.333C101.524 100.192 101.707 100.269 101.842 100.405C101.977 100.541 102.053 100.725 102.053 100.916C102.053 101.107 101.977 101.291 101.842 101.426C101.707 101.561 101.524 101.637 101.333 101.637Z" fill="#2059EE"/>
<path d="M102.886 104.171H98.0701C97.7984 104.171 97.5781 104.392 97.5781 104.663V105.126C97.5781 105.397 97.7984 105.618 98.0701 105.618H102.886C103.158 105.618 103.378 105.397 103.378 105.126V104.663C103.378 104.392 103.158 104.171 102.886 104.171Z" fill="#2059EE"/>
<path d="M102.649 113.41H98.2959C98.2006 113.41 98.1063 113.392 98.0182 113.355C97.9302 113.319 97.8502 113.265 97.7828 113.198C97.7155 113.13 97.662 113.05 97.6255 112.962C97.5891 112.874 97.5703 112.78 97.5703 112.685C97.5703 112.59 97.5891 112.496 97.6256 112.408C97.6622 112.32 97.7157 112.24 97.7831 112.173C97.8506 112.106 97.9306 112.053 98.0186 112.018C98.1066 111.982 98.2009 111.963 98.2959 111.964H102.649C102.841 111.964 103.024 112.04 103.159 112.175C103.294 112.31 103.37 112.494 103.37 112.685C103.371 112.78 103.353 112.874 103.317 112.962C103.281 113.05 103.228 113.13 103.161 113.198C103.094 113.265 103.014 113.318 102.926 113.355C102.839 113.392 102.744 113.41 102.649 113.41Z" fill="#2059EE"/>
<path d="M102.649 121.64H98.2959C98.2009 121.641 98.1066 121.623 98.0186 121.587C97.9306 121.551 97.8506 121.498 97.7831 121.431C97.7157 121.364 97.6622 121.284 97.6256 121.196C97.5891 121.109 97.5703 121.014 97.5703 120.919C97.5703 120.824 97.5891 120.73 97.6255 120.642C97.662 120.554 97.7155 120.474 97.7828 120.406C97.8502 120.339 97.9302 120.286 98.0182 120.249C98.1063 120.213 98.2006 120.194 98.2959 120.194H102.649C102.744 120.194 102.839 120.213 102.926 120.249C103.014 120.286 103.094 120.339 103.161 120.407C103.228 120.474 103.281 120.554 103.317 120.642C103.353 120.73 103.371 120.824 103.37 120.919C103.37 121.111 103.294 121.294 103.159 121.429C103.024 121.564 102.841 121.64 102.649 121.64Z" fill="#2059EE"/>
<path d="M113.359 121.64H105.726C105.631 121.641 105.536 121.623 105.448 121.587C105.36 121.551 105.28 121.498 105.213 121.431C105.145 121.364 105.092 121.284 105.055 121.196C105.019 121.109 105 121.014 105 120.919C105 120.727 105.076 120.542 105.213 120.406C105.349 120.27 105.533 120.194 105.726 120.194H113.359C113.454 120.194 113.548 120.213 113.636 120.249C113.724 120.286 113.804 120.339 113.87 120.407C113.937 120.474 113.99 120.554 114.026 120.642C114.062 120.73 114.08 120.824 114.08 120.919C114.08 121.111 114.004 121.294 113.869 121.429C113.734 121.564 113.55 121.64 113.359 121.64Z" fill="#455A64"/>
<path d="M118.703 121.64H117.604C117.509 121.641 117.415 121.623 117.327 121.587C117.239 121.551 117.159 121.498 117.092 121.431C117.024 121.364 116.971 121.284 116.934 121.196C116.898 121.109 116.879 121.014 116.879 120.919C116.879 120.824 116.898 120.73 116.934 120.642C116.971 120.554 117.024 120.474 117.091 120.406C117.159 120.339 117.239 120.286 117.327 120.249C117.415 120.213 117.509 120.194 117.604 120.194H118.703C118.895 120.194 119.08 120.27 119.216 120.406C119.352 120.542 119.428 120.727 119.428 120.919C119.427 121.111 119.35 121.294 119.214 121.429C119.078 121.564 118.894 121.64 118.703 121.64Z" fill="#E0E0E0"/>
<path d="M112.903 113.41H106.442C106.25 113.41 106.065 113.334 105.929 113.198C105.793 113.062 105.717 112.877 105.717 112.685C105.717 112.59 105.736 112.496 105.772 112.408C105.809 112.32 105.862 112.24 105.93 112.173C105.997 112.106 106.077 112.053 106.165 112.018C106.253 111.982 106.347 111.963 106.442 111.964H112.903C113.094 111.964 113.278 112.04 113.413 112.175C113.548 112.31 113.624 112.494 113.624 112.685C113.624 112.78 113.606 112.874 113.57 112.962C113.534 113.05 113.481 113.13 113.414 113.198C113.347 113.265 113.268 113.318 113.18 113.355C113.092 113.392 112.998 113.41 112.903 113.41Z" fill="#E0E0E0"/>
<path d="M127.052 117.023H106.452C106.26 117.023 106.075 116.947 105.939 116.811C105.803 116.675 105.727 116.49 105.727 116.298C105.727 116.203 105.745 116.109 105.782 116.021C105.818 115.933 105.872 115.853 105.939 115.786C106.007 115.719 106.087 115.667 106.175 115.631C106.263 115.595 106.357 115.577 106.452 115.577H127.052C127.243 115.577 127.426 115.653 127.561 115.788C127.697 115.923 127.772 116.107 127.772 116.298C127.773 116.393 127.755 116.487 127.719 116.575C127.683 116.663 127.63 116.743 127.563 116.811C127.496 116.878 127.417 116.932 127.329 116.968C127.241 117.005 127.147 117.023 127.052 117.023Z" fill="#E0E0E0"/>
<path d="M129.428 113.41H116.278C116.086 113.41 115.901 113.334 115.765 113.198C115.629 113.062 115.553 112.877 115.553 112.685C115.554 112.493 115.631 112.31 115.767 112.175C115.903 112.04 116.087 111.964 116.278 111.964H129.428C129.523 111.963 129.618 111.982 129.706 112.018C129.794 112.053 129.874 112.106 129.941 112.173C130.009 112.24 130.062 112.32 130.099 112.408C130.135 112.496 130.154 112.59 130.154 112.685C130.154 112.877 130.077 113.062 129.941 113.198C129.805 113.334 129.621 113.41 129.428 113.41Z" fill="#455A64"/>
<path d="M111.669 104.171H105.76C105.488 104.171 105.268 104.392 105.268 104.663V105.126C105.268 105.397 105.488 105.618 105.76 105.618H111.669C111.94 105.618 112.161 105.397 112.161 105.126V104.663C112.161 104.392 111.94 104.171 111.669 104.171Z" fill="#455A64"/>
<path d="M116.386 104.171H114.572C114.3 104.171 114.08 104.392 114.08 104.663V105.126C114.08 105.397 114.3 105.618 114.572 105.618H116.386C116.658 105.618 116.878 105.397 116.878 105.126V104.663C116.878 104.392 116.658 104.171 116.386 104.171Z" fill="#E0E0E0"/>
<path d="M126.779 104.171H119.504C119.232 104.171 119.012 104.392 119.012 104.663V105.126C119.012 105.397 119.232 105.618 119.504 105.618H126.779C127.051 105.618 127.271 105.397 127.271 105.126V104.663C127.271 104.392 127.051 104.171 126.779 104.171Z" fill="#E0E0E0"/>
<path d="M106.079 101.637H104.519C104.424 101.638 104.329 101.619 104.241 101.583C104.153 101.548 104.073 101.495 104.006 101.428C103.938 101.361 103.885 101.281 103.848 101.193C103.812 101.105 103.793 101.011 103.793 100.916C103.793 100.724 103.869 100.539 104.005 100.403C104.142 100.267 104.326 100.191 104.519 100.191H106.079C106.271 100.192 106.454 100.269 106.589 100.405C106.724 100.541 106.8 100.725 106.8 100.916C106.8 101.107 106.724 101.291 106.589 101.426C106.453 101.561 106.27 101.637 106.079 101.637Z" fill="#263238"/>
<path d="M119.309 101.637H109.369C109.178 101.637 108.995 101.561 108.859 101.426C108.724 101.291 108.648 101.107 108.648 100.916C108.648 100.725 108.724 100.541 108.859 100.405C108.994 100.269 109.177 100.192 109.369 100.191H119.309C119.501 100.192 119.684 100.269 119.82 100.405C119.956 100.54 120.033 100.724 120.034 100.916C120.033 101.108 119.956 101.291 119.82 101.426C119.684 101.561 119.5 101.637 119.309 101.637Z" fill="#E0E0E0"/>
<path d="M107.457 78.9699H100.793C100.602 78.9699 100.418 78.894 100.283 78.7588C100.148 78.6237 100.072 78.4404 100.072 78.2493C100.072 78.1542 100.09 78.06 100.126 77.972C100.162 77.884 100.215 77.8039 100.282 77.7365C100.349 77.6691 100.428 77.6155 100.516 77.579C100.604 77.5425 100.698 77.5237 100.793 77.5237H107.457C107.65 77.5237 107.834 77.6001 107.97 77.7362C108.107 77.8723 108.183 78.0568 108.183 78.2493C108.183 78.3443 108.164 78.4384 108.128 78.5262C108.091 78.6139 108.038 78.6936 107.97 78.7606C107.903 78.8276 107.823 78.8806 107.735 78.9165C107.647 78.9524 107.552 78.9705 107.457 78.9699Z" fill="#455A64"/>
<path d="M116.07 82.7568H100.793C100.698 82.7568 100.604 82.738 100.516 82.7015C100.428 82.6649 100.349 82.6114 100.282 82.544C100.215 82.4765 100.162 82.3965 100.126 82.3085C100.09 82.2205 100.072 82.1262 100.072 82.0312C100.072 81.8401 100.148 81.6568 100.283 81.5216C100.418 81.3865 100.602 81.3106 100.793 81.3106H116.07C116.165 81.3099 116.259 81.3281 116.347 81.364C116.435 81.3999 116.515 81.4529 116.583 81.5199C116.65 81.5869 116.704 81.6665 116.74 81.7543C116.777 81.842 116.796 81.9361 116.796 82.0312C116.796 82.2236 116.719 82.4082 116.583 82.5443C116.447 82.6803 116.262 82.7568 116.07 82.7568Z" fill="#263238"/>
<path d="M132.47 86.6679H100.793C100.602 86.6679 100.418 86.592 100.283 86.4568C100.148 86.3217 100.072 86.1384 100.072 85.9473C100.072 85.8522 100.09 85.758 100.126 85.67C100.162 85.582 100.215 85.5019 100.282 85.4345C100.349 85.3671 100.428 85.3135 100.516 85.277C100.604 85.2405 100.698 85.2217 100.793 85.2217H132.47C132.565 85.2217 132.659 85.2405 132.747 85.277C132.835 85.3135 132.915 85.3671 132.982 85.4345C133.049 85.5019 133.102 85.582 133.137 85.67C133.173 85.758 133.192 85.8522 133.191 85.9473C133.191 86.1384 133.115 86.3217 132.98 86.4568C132.845 86.592 132.661 86.6679 132.47 86.6679Z" fill="#E0E0E0"/>
<path d="M115.727 89.426H100.793C100.601 89.4246 100.418 89.3476 100.283 89.2117C100.148 89.0758 100.072 88.892 100.072 88.7004C100.072 88.5093 100.148 88.326 100.283 88.1908C100.418 88.0557 100.602 87.9798 100.793 87.9798H115.727C115.822 87.9791 115.916 87.9972 116.004 88.0332C116.092 88.0691 116.172 88.1221 116.24 88.1891C116.307 88.256 116.361 88.3357 116.397 88.4235C116.434 88.5112 116.453 88.6053 116.453 88.7004C116.453 88.8928 116.376 89.0774 116.24 89.2134C116.104 89.3495 115.92 89.426 115.727 89.426Z" fill="#E0E0E0"/>
<path d="M112.675 94.2318H97.7363C97.6412 94.2318 97.5471 94.213 97.4593 94.1765C97.3716 94.14 97.2919 94.0865 97.2249 94.019C97.158 93.9516 97.105 93.8716 97.0691 93.7836C97.0331 93.6956 97.015 93.6013 97.0156 93.5063C97.0156 93.3151 97.0916 93.1318 97.2267 92.9967C97.3618 92.8616 97.5451 92.7856 97.7363 92.7856H112.675C112.867 92.7856 113.05 92.8616 113.185 92.9967C113.32 93.1318 113.396 93.3151 113.396 93.5063C113.397 93.6013 113.379 93.6956 113.343 93.7836C113.307 93.8716 113.254 93.9516 113.187 94.019C113.12 94.0865 113.04 94.14 112.952 94.1765C112.865 94.213 112.77 94.2318 112.675 94.2318Z" fill="#455A64"/>
<path d="M121.038 94.2319H116.028C115.836 94.2319 115.651 94.1554 115.515 94.0193C115.379 93.8833 115.303 93.6987 115.303 93.5063C115.303 93.4112 115.322 93.3171 115.358 93.2294C115.395 93.1416 115.448 93.0619 115.516 92.995C115.583 92.928 115.663 92.875 115.751 92.8391C115.839 92.8032 115.933 92.785 116.028 92.7857H121.038C121.229 92.7857 121.413 92.8614 121.549 92.9964C121.685 93.1314 121.762 93.3147 121.763 93.5063C121.763 93.6987 121.687 93.8833 121.551 94.0193C121.415 94.1554 121.23 94.2319 121.038 94.2319Z" fill="#2059EE"/>
<path d="M133.836 94.2072H124.394C124.299 94.2078 124.204 94.1897 124.116 94.1538C124.028 94.1179 123.948 94.0649 123.881 93.9979C123.813 93.9309 123.76 93.8513 123.723 93.7635C123.687 93.6757 123.668 93.5816 123.668 93.4866C123.668 93.2941 123.744 93.1096 123.88 92.9735C124.017 92.8374 124.201 92.761 124.394 92.761H133.836C133.931 92.761 134.025 92.7798 134.113 92.8163C134.201 92.8528 134.28 92.9064 134.347 92.9738C134.414 93.0412 134.467 93.1213 134.503 93.2093C134.539 93.2973 134.557 93.3915 134.557 93.4866C134.557 93.6777 134.481 93.861 134.346 93.9961C134.211 94.1313 134.027 94.2072 133.836 94.2072Z" fill="#263238"/>
<path d="M146.702 94.2072H137.26C137.069 94.2072 136.885 94.1313 136.75 93.9961C136.615 93.861 136.539 93.6777 136.539 93.4866C136.538 93.3915 136.557 93.2973 136.592 93.2093C136.628 93.1213 136.681 93.0412 136.748 92.9738C136.815 92.9064 136.895 92.8528 136.983 92.8163C137.071 92.7798 137.165 92.761 137.26 92.761H146.702C146.895 92.761 147.079 92.8374 147.215 92.9735C147.351 93.1096 147.428 93.2941 147.428 93.4866C147.428 93.5816 147.409 93.6757 147.373 93.7635C147.336 93.8513 147.282 93.9309 147.215 93.9979C147.148 94.0649 147.068 94.1179 146.98 94.1538C146.892 94.1897 146.797 94.2078 146.702 94.2072Z" fill="#E0E0E0"/>
<path d="M74.8195 93.1984H70.8437C70.6521 93.1971 70.4688 93.1201 70.3338 92.9841C70.1988 92.8482 70.123 92.6644 70.123 92.4728C70.123 92.2817 70.199 92.0984 70.3341 91.9633C70.4693 91.8281 70.6525 91.7522 70.8437 91.7522H74.8195C75.0106 91.7522 75.1939 91.8281 75.329 91.9633C75.4642 92.0984 75.5401 92.2817 75.5401 92.4728C75.5401 92.6644 75.4643 92.8482 75.3293 92.9841C75.1943 93.1201 75.0111 93.1971 74.8195 93.1984Z" fill="#E0E0E0"/>
<path d="M73.6317 104.897H70.8437C70.7486 104.897 70.6545 104.878 70.5668 104.842C70.479 104.805 70.3993 104.752 70.3324 104.684C70.2654 104.617 70.2124 104.537 70.1765 104.449C70.1406 104.361 70.1224 104.267 70.1231 104.172C70.1231 103.98 70.199 103.797 70.3341 103.662C70.4693 103.527 70.6526 103.451 70.8437 103.451H73.6417C73.8328 103.451 74.0161 103.527 74.1512 103.662C74.2864 103.797 74.3623 103.98 74.3623 104.172C74.363 104.267 74.3445 104.363 74.3079 104.451C74.2714 104.54 74.2175 104.62 74.1495 104.688C74.0815 104.755 74.0006 104.809 73.9117 104.845C73.8228 104.881 73.7276 104.898 73.6317 104.897Z" fill="#E0E0E0"/>
<path d="M78.5965 97.0944H70.8437C70.6526 97.0944 70.4693 97.0185 70.3341 96.8833C70.199 96.7482 70.1231 96.5649 70.1231 96.3738C70.1224 96.2787 70.1406 96.1845 70.1765 96.0965C70.2124 96.0085 70.2654 95.9285 70.3324 95.861C70.3993 95.7936 70.479 95.74 70.5668 95.7035C70.6545 95.667 70.7486 95.6482 70.8437 95.6482H78.5965C78.6916 95.6482 78.7857 95.667 78.8735 95.7035C78.9612 95.74 79.0409 95.7936 79.1079 95.861C79.1748 95.9285 79.2278 96.0085 79.2637 96.0965C79.2997 96.1845 79.3178 96.2787 79.3172 96.3738C79.3172 96.5649 79.2412 96.7482 79.1061 96.8833C78.9709 97.0185 78.7877 97.0944 78.5965 97.0944Z" fill="#E0E0E0"/>
<path d="M77.2348 100.996H70.8437C70.6526 100.996 70.4693 100.92 70.3341 100.785C70.199 100.65 70.1231 100.466 70.1231 100.275C70.1224 100.18 70.1406 100.086 70.1765 99.9979C70.2124 99.9098 70.2654 99.8298 70.3324 99.7624C70.3993 99.6949 70.479 99.6414 70.5668 99.6049C70.6545 99.5684 70.7486 99.5496 70.8437 99.5496H77.2448C77.3398 99.5496 77.4339 99.5684 77.5217 99.6049C77.6094 99.6414 77.6891 99.6949 77.7561 99.7624C77.8231 99.8298 77.876 99.9098 77.9119 99.9979C77.9479 100.086 77.966 100.18 77.9654 100.275C77.9654 100.371 77.9464 100.465 77.9096 100.553C77.8727 100.641 77.8188 100.721 77.7508 100.788C77.6828 100.855 77.6022 100.908 77.5136 100.944C77.4251 100.979 77.3303 100.997 77.2348 100.996Z" fill="#E0E0E0"/>
<path d="M86.8461 78.2492C86.8461 78.3947 86.8029 78.5369 86.7221 78.6578C86.6413 78.7788 86.5264 78.8731 86.392 78.9287C86.2576 78.9844 86.1097 78.999 85.967 78.9706C85.8244 78.9422 85.6933 78.8722 85.5904 78.7693C85.4876 78.6664 85.4175 78.5354 85.3891 78.3927C85.3608 78.25 85.3753 78.1021 85.431 77.9677C85.4867 77.8333 85.5809 77.7184 85.7019 77.6376C85.8228 77.5568 85.9651 77.5137 86.1105 77.5137C86.3056 77.5137 86.4927 77.5912 86.6306 77.7291C86.7686 77.867 86.8461 78.0541 86.8461 78.2492Z" fill="#455A64"/>
<path d="M86.1105 75.1232C86.5167 75.1232 86.8461 74.7938 86.8461 74.3876C86.8461 73.9814 86.5167 73.6521 86.1105 73.6521C85.7043 73.6521 85.375 73.9814 85.375 74.3876C85.375 74.7938 85.7043 75.1232 86.1105 75.1232Z" fill="#455A64"/>
<path d="M86.1105 82.7567C86.5167 82.7567 86.8461 82.4274 86.8461 82.0212C86.8461 81.615 86.5167 81.2856 86.1105 81.2856C85.7043 81.2856 85.375 81.615 85.375 82.0212C85.375 82.4274 85.7043 82.7567 86.1105 82.7567Z" fill="#455A64"/>
<path d="M86.1105 86.6827C86.5167 86.6827 86.8461 86.3534 86.8461 85.9472C86.8461 85.541 86.5167 85.2117 86.1105 85.2117C85.7043 85.2117 85.375 85.541 85.375 85.9472C85.375 86.3534 85.7043 86.6827 86.1105 86.6827Z" fill="#455A64"/>
<path d="M86.1105 90.6041C86.5167 90.6041 86.8461 90.2748 86.8461 89.8686C86.8461 89.4624 86.5167 89.1331 86.1105 89.1331C85.7043 89.1331 85.375 89.4624 85.375 89.8686C85.375 90.2748 85.7043 90.6041 86.1105 90.6041Z" fill="#455A64"/>
<path d="M86.846 93.7896C86.847 93.9353 86.8047 94.078 86.7245 94.1996C86.6443 94.3212 86.5298 94.4163 86.3954 94.4727C86.2611 94.5291 86.1131 94.5444 85.9701 94.5166C85.8271 94.4888 85.6956 94.4191 85.5922 94.3165C85.4888 94.2138 85.4183 94.0828 85.3895 93.9399C85.3607 93.7971 85.375 93.649 85.4305 93.5143C85.486 93.3796 85.5803 93.2644 85.7014 93.1834C85.8224 93.1023 85.9648 93.0591 86.1105 93.0591C86.3047 93.0591 86.4911 93.1359 86.6289 93.2727C86.7667 93.4096 86.8447 93.5954 86.846 93.7896Z" fill="#455A64"/>
<path d="M86.1105 98.4513C86.5167 98.4513 86.8461 98.122 86.8461 97.7157C86.8461 97.3095 86.5167 96.9802 86.1105 96.9802C85.7043 96.9802 85.375 97.3095 85.375 97.7157C85.375 98.122 85.7043 98.4513 86.1105 98.4513Z" fill="#455A64"/>
<path d="M86.1105 102.372C86.5167 102.372 86.8461 102.043 86.8461 101.637C86.8461 101.23 86.5167 100.901 86.1105 100.901C85.7043 100.901 85.375 101.23 85.375 101.637C85.375 102.043 85.7043 102.372 86.1105 102.372Z" fill="#455A64"/>
<path d="M86.8461 105.563C86.8461 105.709 86.8029 105.851 86.7221 105.972C86.6413 106.093 86.5264 106.187 86.392 106.243C86.2576 106.298 86.1097 106.313 85.967 106.285C85.8244 106.256 85.6933 106.186 85.5904 106.083C85.4876 105.98 85.4175 105.849 85.3891 105.707C85.3608 105.564 85.3753 105.416 85.431 105.282C85.4867 105.147 85.5809 105.032 85.7019 104.952C85.8228 104.871 85.9651 104.828 86.1105 104.828C86.3056 104.828 86.4927 104.905 86.6306 105.043C86.7686 105.181 86.8461 105.368 86.8461 105.563Z" fill="#455A64"/>
<path d="M86.8461 109.484C86.8461 109.63 86.8029 109.772 86.7221 109.893C86.6413 110.014 86.5264 110.108 86.392 110.164C86.2576 110.219 86.1097 110.234 85.967 110.205C85.8244 110.177 85.6933 110.107 85.5904 110.004C85.4876 109.901 85.4175 109.77 85.3891 109.628C85.3608 109.485 85.3753 109.337 85.431 109.203C85.4867 109.068 85.5809 108.953 85.7019 108.872C85.8228 108.792 85.9651 108.749 86.1105 108.749C86.3056 108.749 86.4927 108.826 86.6306 108.964C86.7686 109.102 86.8461 109.289 86.8461 109.484Z" fill="#455A64"/>
<path d="M86.1105 114.146C86.5167 114.146 86.8461 113.817 86.8461 113.41C86.8461 113.004 86.5167 112.675 86.1105 112.675C85.7043 112.675 85.375 113.004 85.375 113.41C85.375 113.817 85.7043 114.146 86.1105 114.146Z" fill="#455A64"/>
<path d="M86.8461 117.331C86.8461 117.477 86.8029 117.619 86.7221 117.74C86.6413 117.861 86.5264 117.955 86.392 118.011C86.2576 118.067 86.1097 118.081 85.967 118.053C85.8244 118.024 85.6933 117.954 85.5904 117.852C85.4876 117.749 85.4175 117.618 85.3891 117.475C85.3608 117.332 85.3753 117.184 85.431 117.05C85.4867 116.916 85.5809 116.801 85.7019 116.72C85.8228 116.639 85.9651 116.596 86.1105 116.596C86.3056 116.596 86.4927 116.673 86.6306 116.811C86.7686 116.949 86.8461 117.136 86.8461 117.331Z" fill="#455A64"/>
<path d="M86.1105 121.993C86.5167 121.993 86.8461 121.664 86.8461 121.257C86.8461 120.851 86.5167 120.522 86.1105 120.522C85.7043 120.522 85.375 120.851 85.375 121.257C85.375 121.664 85.7043 121.993 86.1105 121.993Z" fill="#455A64"/>
<path d="M69.7375 62.7732H154.775C155.28 62.7732 155.764 62.9737 156.121 63.3307C156.478 63.6877 156.679 64.1718 156.679 64.6766V70.5708H67.0488V65.4569C67.0488 65.104 67.1184 64.7546 67.2536 64.4287C67.3888 64.1028 67.5869 63.8067 67.8366 63.5575C68.0863 63.3082 68.3828 63.1106 68.709 62.9761C69.0351 62.8415 69.3846 62.7725 69.7375 62.7732Z" fill="#E0E0E0"/>
<path d="M71.6798 67.9666C72.2699 67.9666 72.7483 67.4882 72.7483 66.8981C72.7483 66.308 72.2699 65.8296 71.6798 65.8296C71.0897 65.8296 70.6113 66.308 70.6113 66.8981C70.6113 67.4882 71.0897 67.9666 71.6798 67.9666Z" fill="white"/>
<path d="M76.0335 66.8981C76.0335 67.1094 75.9708 67.316 75.8534 67.4917C75.736 67.6674 75.5691 67.8044 75.3739 67.8853C75.1786 67.9661 74.9638 67.9873 74.7565 67.9461C74.5493 67.9048 74.3589 67.8031 74.2094 67.6536C74.06 67.5042 73.9582 67.3138 73.917 67.1066C73.8758 66.8993 73.897 66.6844 73.9778 66.4892C74.0587 66.294 74.1956 66.1271 74.3714 66.0097C74.5471 65.8923 74.7537 65.8296 74.965 65.8296C75.1055 65.8289 75.2447 65.8561 75.3747 65.9096C75.5046 65.9631 75.6227 66.0417 75.722 66.1411C75.8214 66.2404 75.9 66.3585 75.9535 66.4884C76.007 66.6184 76.0342 66.7576 76.0335 66.8981Z" fill="white"/>
<path d="M79.3167 66.8981C79.3167 67.1094 79.254 67.316 79.1366 67.4917C79.0192 67.6674 78.8523 67.8044 78.6571 67.8853C78.4618 67.9661 78.247 67.9873 78.0397 67.9461C77.8325 67.9048 77.6421 67.8031 77.4926 67.6536C77.3432 67.5042 77.2414 67.3138 77.2002 67.1066C77.159 66.8993 77.1802 66.6844 77.261 66.4892C77.3419 66.294 77.4788 66.1271 77.6546 66.0097C77.8303 65.8923 78.0369 65.8296 78.2482 65.8296C78.3887 65.8289 78.5279 65.8561 78.6579 65.9096C78.7878 65.9631 78.9059 66.0417 79.0052 66.1411C79.1046 66.2404 79.1832 66.3585 79.2367 66.4884C79.2902 66.6184 79.3174 66.7576 79.3167 66.8981Z" fill="white"/>
<path d="M86.1113 126.669L93.6902 134.865L100.563 126.669H86.1113Z" fill="white"/>
<path d="M154.248 127.564C154.515 127.548 154.779 127.498 155.033 127.415C155.403 127.285 155.735 127.067 156.001 126.781C156.268 126.494 156.461 126.147 156.564 125.77C156.636 125.508 156.665 125.236 156.649 124.965V124.05C156.649 123.409 156.649 122.709 156.649 121.953C156.649 120.437 156.649 118.688 156.649 116.72C156.649 108.843 156.624 97.4522 156.609 83.3728C156.609 79.8542 156.609 76.1716 156.609 72.325C156.609 70.4 156.609 68.4403 156.609 66.4457C156.609 65.9487 156.609 65.4518 156.609 64.9548C156.556 64.468 156.35 64.0105 156.022 63.6473C155.694 63.2841 155.259 63.0338 154.78 62.9321C154.275 62.8777 153.767 62.8611 153.259 62.8824H126.83H97.6225H70.2888C69.9608 62.8824 69.6079 62.8824 69.2948 62.8824C68.9784 62.9128 68.672 63.0093 68.3953 63.1657C68.1175 63.324 67.8755 63.5382 67.6847 63.7949C67.494 64.0515 67.3585 64.3449 67.287 64.6566C67.2198 65.1105 67.1982 65.57 67.2224 66.0283V86.6926C67.2224 93.8988 67.2224 100.929 67.2224 107.784V117.888C67.2224 119.544 67.2224 121.189 67.2224 122.823C67.2224 123.633 67.2224 124.453 67.2224 125.248C67.245 125.631 67.3627 126.001 67.5649 126.327C67.7672 126.652 68.0474 126.922 68.3804 127.112C68.7118 127.303 69.0862 127.407 69.4687 127.415H86.7487L86.7835 127.45L93.7411 134.755H93.5871L99.6701 127.499L99.6999 127.465H99.7446L139.587 127.504L150.466 127.534L139.587 127.564L99.7446 127.604L99.8192 127.569L93.7064 134.929L93.6318 135.019L93.5523 134.934L86.5946 127.639L86.6741 127.673H69.429C69.0104 127.66 68.6011 127.546 68.2362 127.34C67.8685 127.131 67.5588 126.833 67.3349 126.474C67.1111 126.115 66.9802 125.705 66.954 125.283C66.954 124.458 66.954 123.658 66.954 122.843V117.908C66.954 114.595 66.954 111.227 66.954 107.804V86.7174C66.954 83.116 66.954 79.4715 66.954 75.7839V65.3474C66.9481 65.1036 66.9714 64.86 67.0236 64.6218C67.1059 64.278 67.2577 63.9547 67.4696 63.6718C67.6816 63.3889 67.9493 63.1523 68.2561 62.9768C68.5621 62.8037 68.9004 62.6954 69.2501 62.6587C69.6129 62.6339 69.926 62.6587 70.244 62.6587H126.78H153.21C153.73 62.6351 154.252 62.6534 154.77 62.7134C155.291 62.8254 155.764 63.0989 156.121 63.495C156.478 63.8912 156.701 64.3898 156.758 64.92C156.788 65.4468 156.758 65.914 156.758 66.4109C156.758 68.3988 156.758 70.3586 156.758 72.2902C156.758 76.1335 156.758 79.8161 156.758 83.338C156.758 97.4174 156.723 108.808 156.713 116.685C156.713 118.673 156.713 120.403 156.713 121.918C156.713 122.674 156.713 123.375 156.713 124.016V124.93C156.726 125.207 156.694 125.484 156.619 125.75C156.496 126.198 156.246 126.6 155.898 126.908C155.653 127.132 155.364 127.302 155.048 127.405C154.857 127.47 154.658 127.51 154.457 127.524L154.248 127.564Z" fill="#263238"/>
<path d="M48.182 108.917C48.182 108.917 45.3443 109.529 44.8523 111.546C44.3603 113.564 48.8281 161.741 48.9822 162.909C49.2654 164.753 50.821 167.099 54.3197 166.969C57.3761 166.86 98.9781 166.969 109.449 166.969C110.846 166.969 111.681 165.787 111.865 164.375L60.353 161.334L48.182 108.917Z" fill="#E0E0E0"/>
<path d="M46.89 110.528L51.3628 162.482C51.4041 162.892 51.5943 163.273 51.8975 163.552C52.2006 163.831 52.5957 163.99 53.0078 163.998L111.875 164.261L100.564 153.039L62.3262 152.771L58.236 112.063C58.207 111.798 58.0955 111.548 57.9172 111.35C57.7389 111.151 57.5028 111.013 57.2421 110.955L48.6742 108.967C48.4494 108.922 48.2172 108.929 47.9955 108.987C47.7738 109.046 47.5687 109.155 47.3961 109.306C47.2235 109.457 47.088 109.646 47.0002 109.858C46.9125 110.07 46.8747 110.299 46.89 110.528Z" fill="#E0E0E0"/>
<path d="M46.8894 110.528C46.8806 110.443 46.8806 110.359 46.8894 110.274C46.9008 110.024 46.9798 109.782 47.118 109.574C47.2292 109.401 47.3749 109.253 47.546 109.139C47.717 109.026 47.9097 108.948 48.112 108.913C48.3753 108.878 48.643 108.9 48.8972 108.977L49.7669 109.176L54.3143 110.22L57.1967 110.886C57.4772 110.939 57.7335 111.08 57.9291 111.288C58.1246 111.496 58.2492 111.76 58.2851 112.044C58.3398 112.6 58.3994 113.172 58.4591 113.758C59.4182 123.201 60.7849 136.619 62.4349 152.761L62.3256 152.657L100.568 152.91H100.618L100.657 152.95L111.964 164.167L112.187 164.39H111.874H109.265L66.1125 164.186L56.4215 164.137H54.0857C53.698 164.137 53.3203 164.137 52.9227 164.137C52.5116 164.111 52.1219 163.944 51.8194 163.665C51.5192 163.388 51.3242 163.015 51.2678 162.611C51.2231 162.228 51.1982 161.861 51.1634 161.483C51.1038 160.737 51.0392 159.992 50.9746 159.261C50.4776 153.387 50.0104 147.91 49.588 142.916C48.7481 132.922 48.0673 124.836 47.6001 119.245C47.3715 116.452 47.1926 114.275 47.0733 112.809C47.0137 112.073 46.9739 111.517 46.9441 111.134C46.9143 110.751 46.9043 110.563 46.9043 110.563C46.9043 110.563 46.9342 110.751 46.9689 111.129C47.0037 111.507 47.0584 112.073 47.123 112.804C47.2572 114.295 47.451 116.447 47.6995 119.235C48.1965 124.826 48.9022 132.912 49.7769 142.896C50.2092 147.896 50.6863 153.367 51.1933 159.242C51.2562 159.977 51.3208 160.718 51.3871 161.463C51.4219 161.836 51.4467 162.218 51.4865 162.581C51.5457 162.936 51.7204 163.261 51.9834 163.506C52.2575 163.753 52.6088 163.897 52.9774 163.913C53.3501 163.913 53.7427 163.913 54.1254 163.913H56.4662L66.1573 163.953L109.305 164.137H111.914L111.82 164.355L100.464 153.129L100.553 153.168L62.3156 152.88H62.2162V152.781C60.611 136.639 59.2791 123.191 58.3448 113.773C58.2851 113.187 58.2255 112.615 58.1708 112.058C58.1395 111.799 58.0263 111.555 57.8476 111.364C57.6689 111.173 57.434 111.044 57.1769 110.995L54.2944 110.319L49.757 109.241L48.8873 109.037C48.6421 108.958 48.3828 108.932 48.1269 108.962C47.9271 108.994 47.7359 109.067 47.565 109.176C47.3941 109.284 47.2471 109.426 47.1329 109.593C46.9941 109.797 46.9118 110.034 46.8944 110.279C46.8845 110.443 46.8994 110.528 46.8894 110.528Z" fill="#263238"/>
<path d="M89.9766 162.909H95.4483L88.5304 153.939H85.2852L89.9766 162.909Z" fill="#263238"/>
<path d="M48.9141 112.873L53.0937 158.039L60.9062 151.827L57.5267 113.808C57.5147 113.659 57.4525 113.52 57.3504 113.411C57.2484 113.303 57.1125 113.232 56.9651 113.211L49.6645 112.168C49.5666 112.154 49.4669 112.163 49.3727 112.192C49.2785 112.222 49.1923 112.273 49.1203 112.341C49.0483 112.409 48.9924 112.492 48.9567 112.584C48.921 112.676 48.9064 112.775 48.9141 112.873Z" fill="#263238"/>
<path d="M57.2754 162.909H62.9211L68.6612 153.939H65.4109L57.2754 162.909Z" fill="#263238"/>
<path d="M64.209 162.909H69.6807L72.6775 153.939H69.4273L64.209 162.909Z" fill="#263238"/>
<path d="M70.9043 162.909H76.376L76.6692 153.939H73.424L70.9043 162.909Z" fill="#263238"/>
<path d="M77.1152 162.909H82.587L80.5643 153.939H77.319L77.1152 162.909Z" fill="#263238"/>
<path d="M83.5869 162.909H89.0586L84.6007 153.939H81.3555L83.5869 162.909Z" fill="#263238"/>
<path d="M95.1941 161.16C95.1941 161.204 86.8499 161.239 76.5575 161.239C66.2651 161.239 57.9258 161.204 57.9258 161.16C57.9258 161.115 66.2651 161.085 76.5575 161.085C86.8499 161.085 95.1941 161.12 95.1941 161.16Z" fill="#E0E0E0"/>
<path d="M94.1994 159.53C94.1994 159.575 86.2776 159.609 76.5021 159.609C66.7265 159.609 58.8047 159.575 58.8047 159.53C58.8047 159.485 66.7265 159.455 76.5021 159.455C86.2776 159.455 94.1994 159.475 94.1994 159.53Z" fill="#E0E0E0"/>
<path d="M94.2018 158.039C94.2018 158.123 86.7471 158.193 77.5531 158.193C68.359 158.193 60.9043 158.108 60.9043 158.039C60.9043 157.969 68.359 157.885 77.558 157.885C86.7571 157.885 94.2018 157.939 94.2018 158.039Z" fill="#E0E0E0"/>
<path d="M94.411 156.662C94.411 156.747 87.1154 156.816 78.1201 156.816C69.1248 156.816 61.8242 156.747 61.8242 156.662C61.8242 156.578 69.1198 156.503 78.1201 156.503C87.1204 156.503 94.411 156.573 94.411 156.662Z" fill="#E0E0E0"/>
<path d="M95.1951 155.668C95.1951 155.753 87.8497 155.822 78.7948 155.822C69.7399 155.822 62.3945 155.753 62.3945 155.668C62.3945 155.584 69.7349 155.509 78.7948 155.509C87.8547 155.509 95.1951 155.579 95.1951 155.668Z" fill="#E0E0E0"/>
<path d="M95.9802 154.625C95.9802 154.714 88.5007 154.784 79.2768 154.784C70.0528 154.784 62.5684 154.714 62.5684 154.625C62.5684 154.535 70.023 154.47 79.2768 154.47C88.5305 154.47 95.9802 154.56 95.9802 154.625Z" fill="#E0E0E0"/>
<path d="M52.1777 162.482L62.3956 152.945L52.1777 162.482Z" fill="#E0E0E0"/>
<path d="M62.3961 152.945C62.4458 152.995 60.1994 155.171 57.3865 157.805C54.5736 160.439 52.2478 162.537 52.1981 162.482C52.1484 162.427 54.3897 160.255 57.2076 157.616C60.0255 154.978 62.3265 152.89 62.3961 152.945Z" fill="#263238"/>
<path d="M231.128 117.406C231.128 117.406 230.631 112.128 217.481 108.754C211.134 107.124 195.981 106.343 194.267 116.208C194.212 116.526 186.723 178.465 186.723 178.465H214.737L231.128 117.406Z" fill="#455A64"/>
<path d="M226.687 178.445H213.766L218.079 117.784C218.397 114.832 221.454 112.7 224.908 113.028L226.066 113.137C229.515 113.465 231.707 116.79 231.607 120.592L226.687 178.445Z" fill="#455A64"/>
<path d="M214.737 176.263C214.662 176.263 215.577 164.301 216.774 149.565C217.972 134.83 219.001 122.883 219.07 122.888C219.14 122.893 218.23 134.845 217.033 149.585C215.835 164.326 214.806 176.268 214.737 176.263Z" fill="#263238"/>
<path d="M228.647 114.539C228.051 114.354 227.444 114.212 226.828 114.111C225.338 113.908 223.823 114.204 222.519 114.952C221.215 115.699 220.194 116.858 219.617 118.246C219.395 118.828 219.213 119.424 219.07 120.03C219.054 119.864 219.063 119.697 219.095 119.533C219.16 119.072 219.278 118.62 219.448 118.186C220 116.731 221.039 115.512 222.39 114.738C223.741 113.963 225.318 113.682 226.853 113.942C227.313 114.013 227.764 114.138 228.195 114.315C228.356 114.366 228.508 114.442 228.647 114.539Z" fill="#263238"/>
<path d="M187.839 38.6697C187.973 35.1163 185.563 34.6393 183.709 35.0468C182.559 34.2452 181.173 33.8513 179.773 33.9278C178.372 34.0044 177.038 34.5469 175.981 35.4692C175.133 35.0061 174.179 34.7708 173.213 34.7864C172.246 34.8019 171.3 35.0677 170.467 35.5578C169.634 36.0479 168.943 36.7456 168.46 37.5828C167.977 38.42 167.719 39.3681 167.712 40.3346C166.738 40.2158 165.751 40.4065 164.892 40.8797C164.033 41.3529 163.344 42.0846 162.924 42.9711C162.504 43.8575 162.374 44.8537 162.552 45.8184C162.729 46.7832 163.206 47.6674 163.915 48.3459C162.809 48.6768 161.875 49.422 161.306 50.4258C160.737 51.4296 160.578 52.6144 160.862 53.7326C161.147 54.8508 161.852 55.816 162.831 56.4264C163.81 57.0368 164.987 57.2453 166.116 57.0082L187.914 42.4915C189.221 41.1149 187.77 40.5682 187.839 38.6697Z" fill="#263238"/>
<path d="M165.485 57.6494C165.701 52.8661 167.709 48.3393 171.111 44.9698C174.513 41.6002 179.058 39.635 183.844 39.465L184.837 39.4302C195.488 39.6737 201.238 48.8728 200.696 59.4981L200.418 94.9525L200.348 101.687L175.996 107.476L175.748 93.4417C175.748 93.4417 165.47 92.2192 164.983 82.0112C164.73 77.0812 165.073 66.8832 165.485 57.6494Z" fill="#AE7461"/>
<path d="M175.648 93.4319C180.394 93.2651 184.993 91.7404 188.898 89.0386C188.898 89.0386 186.01 96.4932 175.783 95.9466L175.648 93.4319Z" fill="#6F4439"/>
<path d="M168.463 67.9667C168.472 68.3468 168.629 68.7083 168.901 68.9739C169.174 69.2395 169.539 69.3881 169.919 69.388C170.105 69.396 170.291 69.3666 170.466 69.3016C170.641 69.2365 170.801 69.1372 170.936 69.0093C171.072 68.8815 171.181 68.7278 171.256 68.5572C171.332 68.3867 171.372 68.2028 171.375 68.0164C171.366 67.6362 171.209 67.2747 170.937 67.0091C170.664 66.7435 170.299 66.5949 169.919 66.595C169.733 66.5863 169.546 66.6152 169.371 66.68C169.196 66.7448 169.036 66.8442 168.9 66.9721C168.764 67.1001 168.656 67.2541 168.58 67.425C168.505 67.5958 168.465 67.78 168.463 67.9667Z" fill="#263238"/>
<path d="M167.757 63.1163C167.941 63.2952 169.019 62.4404 170.59 62.3907C172.16 62.341 173.338 63.0815 173.502 62.8877C173.581 62.7982 173.388 62.4603 172.871 62.1174C172.175 61.6684 171.357 61.4478 170.53 61.4862C169.713 61.5105 168.926 61.7961 168.284 62.3013C167.821 62.674 167.672 63.0219 167.757 63.1163Z" fill="#263238"/>
<path d="M181.082 67.6437C181.092 68.0242 181.251 68.3858 181.524 68.6512C181.797 68.9167 182.162 69.0652 182.543 69.065C182.729 69.073 182.915 69.0436 183.09 68.9786C183.265 68.9135 183.425 68.8142 183.561 68.6863C183.696 68.5585 183.805 68.4048 183.88 68.2342C183.956 68.0637 183.996 67.8798 183.999 67.6934C183.99 67.3132 183.833 66.9517 183.561 66.6861C183.289 66.4205 182.923 66.2719 182.543 66.272C182.356 66.2633 182.17 66.2922 181.995 66.357C181.819 66.4217 181.659 66.5209 181.523 66.6489C181.386 66.7768 181.277 66.9307 181.201 67.1016C181.126 67.2725 181.085 67.4568 181.082 67.6437Z" fill="#263238"/>
<path d="M182.78 62.3509C182.964 62.5347 184.042 61.6799 185.613 61.6253C187.183 61.5706 188.361 62.321 188.525 62.1222C188.605 62.0328 188.411 61.6948 187.894 61.347C187.197 60.901 186.38 60.6806 185.553 60.7158C184.737 60.7441 183.951 61.0294 183.307 61.5308C182.84 61.9185 182.666 62.2713 182.78 62.3509Z" fill="#263238"/>
<path d="M178.018 74.174C178.018 74.0846 177.024 73.9504 175.454 73.8013C175.051 73.7764 174.669 73.7118 174.589 73.4385C174.541 73.0253 174.621 72.6073 174.818 72.2408C175.149 71.2468 175.507 70.2148 175.891 69.1446C177.382 64.7414 178.451 61.1234 178.272 61.0637C178.093 61.0041 176.741 64.5426 175.25 68.9359L174.216 72.0619C173.982 72.5546 173.928 73.1136 174.062 73.6422C174.125 73.782 174.219 73.9053 174.337 74.0027C174.455 74.1002 174.594 74.169 174.743 74.2038C174.968 74.2558 175.198 74.2792 175.429 74.2734C177.029 74.2883 178.018 74.2635 178.018 74.174Z" fill="#263238"/>
<path d="M182.664 75.0934C182.406 75.0934 182.465 76.7931 181.049 78.0753C179.632 79.3575 177.814 79.2133 177.809 79.4519C177.809 79.5612 178.221 79.77 178.991 79.76C179.99 79.7402 180.95 79.3669 181.7 78.7064C182.424 78.0723 182.871 77.1807 182.947 76.2215C182.997 75.496 182.793 75.0785 182.664 75.0934Z" fill="#263238"/>
<path d="M182.598 57.8683C182.802 58.2659 184.139 57.8683 185.784 57.8236C187.429 57.7788 188.81 58.082 188.964 57.6745C189.029 57.4757 188.741 57.1129 188.154 56.7899C187.39 56.3884 186.532 56.1963 185.669 56.2332C184.824 56.2505 183.999 56.4924 183.279 56.934C182.757 57.2968 182.509 57.6745 182.598 57.8683Z" fill="#263238"/>
<path d="M167.964 58.7827C168.227 59.1554 169.326 58.8324 170.623 58.8771C171.92 58.9219 173.013 59.23 173.287 58.8771C173.406 58.7032 173.247 58.3354 172.79 57.9776C172.162 57.5427 171.419 57.3039 170.656 57.2915C169.892 57.2791 169.142 57.4937 168.501 57.908C168.019 58.246 167.85 58.6038 167.964 58.7827Z" fill="#263238"/>
<path d="M166.302 52.9381C166.302 52.9381 168.787 46.4426 171.804 44.8424C175.476 42.8992 177.231 46.9446 180.749 45.8363C184.268 44.7281 187.777 42.8545 191.514 45.4785C195.599 48.3461 193.81 50.5278 194.217 55.0503C195.867 73.3987 199.411 78.4729 200.057 69.7807C200.126 68.8315 202.736 67.9817 202.979 63.9611C203.302 58.7478 203.277 52.4312 201.985 48.7834C200.897 45.7121 199.048 43.6248 195.788 41.3685C190.639 37.8101 183.746 37.9741 179.079 38.6152C174.413 39.2563 165.592 44.9418 166.302 52.9381Z" fill="#263238"/>
<path d="M199.399 69.5123C199.398 69.137 199.473 68.7655 199.62 68.4201C199.767 68.0747 199.982 67.7626 200.253 67.5029C200.524 67.2432 200.845 67.0411 201.196 66.909C201.547 66.7769 201.922 66.7174 202.297 66.7342C204.21 66.8485 206.372 67.8524 206.382 71.7984C206.411 78.7909 199.384 77.3745 199.369 77.1708C199.354 76.967 199.384 72.4395 199.399 69.5123Z" fill="#AE7461"/>
<path d="M200.882 74.5467C200.917 74.5467 201.006 74.6312 201.215 74.7256C201.507 74.8411 201.832 74.8411 202.124 74.7256C202.86 74.4523 203.481 73.2745 203.506 72.0171C203.524 71.4173 203.406 70.8211 203.163 70.2727C203.095 70.0541 202.976 69.855 202.815 69.6923C202.654 69.5296 202.456 69.4082 202.239 69.3384C202.099 69.3017 201.95 69.3155 201.819 69.3773C201.688 69.4391 201.584 69.5449 201.523 69.6763C201.428 69.8702 201.473 70.0093 201.438 70.0242C201.404 70.0391 201.289 69.9049 201.344 69.6167C201.381 69.4432 201.477 69.2883 201.617 69.1794C201.711 69.1061 201.819 69.0525 201.935 69.0217C202.05 68.991 202.17 68.9838 202.288 69.0004C202.576 69.0549 202.845 69.1828 203.069 69.3718C203.292 69.5607 203.464 69.8043 203.565 70.0789C203.865 70.6835 204.012 71.3524 203.993 72.027C203.958 73.4335 203.237 74.7555 202.229 75.0536C202.041 75.1081 201.844 75.1198 201.651 75.088C201.458 75.0562 201.275 74.9816 201.115 74.8698C200.897 74.7057 200.862 74.5467 200.882 74.5467Z" fill="#6F4439"/>
<path d="M198.785 55.9846C197.9 56.6357 196.961 57.3066 195.873 57.4756C194.784 57.6445 193.512 57.0382 193.288 55.9598C193.189 55.4628 193.288 54.9112 192.955 54.5484C192.558 54.111 191.857 54.275 191.276 54.3595C190.258 54.4735 189.231 54.2346 188.368 53.6828C187.506 53.131 186.858 52.2997 186.534 51.3279C186.037 52.1231 184.835 52.1281 184.05 51.651C183.264 51.1739 182.713 50.3688 182.062 49.6879C181.411 49.0071 180.541 48.4057 179.621 48.5697C179.124 48.6641 178.627 48.9872 178.131 48.9623C177.206 48.9126 176.724 47.8541 176.55 46.9744C176.376 46.0948 176.232 44.9865 175.442 44.5392C174.652 44.0919 173.777 44.405 172.957 44.5392C172.137 44.6734 171.024 44.5392 170.775 43.7192C170.73 43.4993 170.731 43.2725 170.777 43.0528C170.823 42.8332 170.914 42.6253 171.044 42.442C171.58 41.5762 172.393 40.9171 173.351 40.5716C174.309 40.2261 175.356 40.2144 176.322 40.5386C176.625 39.3636 177.269 38.3048 178.174 37.496C179.078 36.6872 180.202 36.1647 181.404 35.9945C182.605 35.8243 183.83 36.0141 184.924 36.5398C186.017 37.0655 186.931 37.9036 187.548 38.9482C188.267 38.2498 189.143 37.7348 190.102 37.447C191.062 37.1591 192.077 37.1069 193.061 37.2946C194.045 37.4824 194.969 37.9046 195.755 38.5255C196.542 39.1465 197.167 39.9478 197.577 40.8616C198.419 40.6213 199.312 40.631 200.148 40.8893C200.984 41.1477 201.727 41.6436 202.287 42.3167C202.846 42.9898 203.198 43.811 203.299 44.6804C203.399 45.5497 203.245 46.4296 202.855 47.213C204.137 47.8889 205.256 49.0965 205.34 50.5427C205.425 51.9889 204.058 53.4749 202.651 53.1469C203.002 53.7084 203.115 54.3862 202.966 55.0311C202.817 55.6761 202.418 56.2354 201.856 56.586C201.295 56.9366 200.617 57.0498 199.972 56.9007C199.327 56.7515 198.768 56.3523 198.417 55.7908" fill="#263238"/>
<path d="M203.157 53.1169C203.194 53.3577 203.178 53.6035 203.111 53.8377C203.045 54.0719 202.928 54.2888 202.769 54.4737C202.44 54.9316 201.95 55.2477 201.398 55.3583C201.046 55.4304 200.683 55.4233 200.335 55.3373C199.987 55.2513 199.662 55.0887 199.385 54.8613L199.678 54.8067C199.334 55.473 198.884 56.0789 198.346 56.6008C197.989 56.9552 197.567 57.2386 197.104 57.4357C196.502 57.6634 195.844 57.6987 195.22 57.5367C194.597 57.3747 194.04 57.0234 193.625 56.5312C193.327 56.0994 193.118 55.613 193.009 55.0999C192.944 54.9201 192.919 54.7287 192.934 54.5383C192.964 54.5383 193.028 54.7172 193.158 55.0353C193.316 55.5053 193.549 55.9467 193.848 56.3423C194.549 57.3363 196.721 57.7587 198.053 56.2926C198.557 55.799 198.984 55.2328 199.32 54.6128L199.439 54.4041L199.618 54.5582C199.849 54.7594 200.12 54.9081 200.414 54.9939C200.707 55.0797 201.016 55.1006 201.318 55.0552C201.804 54.9738 202.244 54.7218 202.561 54.3445C202.838 53.9787 203.041 53.5615 203.157 53.1169Z" fill="#455A64"/>
<path d="M120.544 144.62C120.544 144.62 107.359 144.228 106.569 143.979C105.366 143.711 104.119 143.711 102.916 143.979C101.977 144.277 98.2249 145.609 98.2249 145.609L90.2733 147.731C90.2733 147.731 82.2769 152.945 82.4359 153.993C82.595 155.042 83.4746 155.758 84.9208 155.216C86.367 154.674 93.5782 150.917 93.5782 150.917L101.53 150.077C101.53 150.077 112.374 153.974 114.566 153.78C116.757 153.586 122.368 152.637 122.368 152.637C122.368 152.637 123.158 147.016 122.761 146.126C122.363 145.237 120.544 144.62 120.544 144.62Z" fill="#AE7461"/>
<path d="M83.0082 158.645C83.0082 158.645 89.6925 151.484 91.5413 150.52C93.39 149.556 103.697 147.861 103.697 147.861C103.697 147.861 106.997 146.494 108.205 146.976C109.413 147.458 122.21 149.392 122.771 149.461C123.333 149.531 120.038 160.733 120.038 160.733C116.847 161.192 113.598 161.055 110.456 160.33C105.308 159.122 103.533 157.512 103.533 157.512L98.3946 156.16L95.2438 157.358C95.2438 157.358 94.6822 162.02 92.4259 161.776L91.3822 161.051L92.1873 155.902L88.8874 157.269C88.8874 157.269 86.3081 161.135 84.3798 160.569C82.4515 160.002 83.0082 158.645 83.0082 158.645Z" fill="#AE7461"/>
<path d="M83.0083 158.645C82.9612 158.828 82.9444 159.018 82.9586 159.207C82.9822 159.434 83.0682 159.651 83.2071 159.833C83.407 160.079 83.6673 160.269 83.9625 160.384C84.3212 160.561 84.7263 160.62 85.1205 160.553C85.5877 160.426 86.024 160.204 86.4027 159.902C87.3432 159.144 88.1612 158.246 88.8279 157.239L92.1229 155.862L92.2571 155.802V155.946C92.0185 157.497 91.7601 159.236 91.4669 161.1L91.4271 161.011L92.4708 161.731H92.4261C92.6389 161.748 92.8528 161.719 93.0534 161.646C93.2541 161.574 93.4367 161.458 93.589 161.309C93.9167 160.99 94.1785 160.61 94.3593 160.191C94.7469 159.302 95.0062 158.364 95.1296 157.403V157.338L95.1893 157.313L98.3302 156.11H98.3649H98.3997L103.548 157.452H103.578C104.667 158.231 105.867 158.843 107.137 159.266C108.459 159.736 109.812 160.113 111.187 160.394C112.612 160.679 114.058 160.845 115.511 160.891C117.006 160.945 118.503 160.862 119.983 160.643L119.884 160.732C120.113 159.942 120.381 159.097 120.6 158.247C121.31 155.713 122.021 153.223 122.533 150.758C122.598 150.456 122.646 150.151 122.677 149.844C122.682 149.774 122.682 149.704 122.677 149.635C122.647 149.585 122.677 149.6 122.677 149.635H122.617L122.155 149.565L120.316 149.287L116.713 148.72C114.353 148.338 112.062 147.96 109.86 147.543C109.313 147.428 108.777 147.334 108.23 147.17C107.728 147.019 107.195 147.002 106.684 147.12C105.663 147.32 104.665 147.619 103.702 148.015H103.678C100.08 148.616 96.7846 149.212 93.9071 149.898C93.2149 150.058 92.5328 150.259 91.8645 150.5C91.2679 150.777 90.7193 151.148 90.2394 151.598C89.2454 152.423 88.4204 153.238 87.6601 153.973C86.1393 155.464 84.9863 156.647 84.1812 157.452L83.2817 158.382C83.0729 158.59 82.9636 158.69 82.9636 158.69C82.9636 158.69 83.058 158.575 83.2568 158.357L84.1315 157.408C84.9118 156.588 86.0548 155.375 87.5607 153.884C88.3161 153.144 89.156 152.319 90.13 151.484C90.3736 151.275 90.627 151.061 90.8954 150.862C91.1697 150.657 91.4706 150.49 91.7899 150.365C92.4663 150.119 93.1567 149.914 93.8574 149.749C96.7398 149.043 100.03 148.437 103.633 147.816H103.608C104.584 147.411 105.598 147.103 106.635 146.896C107.185 146.771 107.759 146.79 108.3 146.951C108.797 147.105 109.353 147.2 109.895 147.314C112.087 147.726 114.368 148.094 116.743 148.472L120.346 149.034L122.185 149.317L122.647 149.386H122.747H122.801C122.834 149.408 122.862 149.438 122.882 149.472C122.902 149.507 122.913 149.545 122.916 149.585C122.923 149.671 122.923 149.758 122.916 149.844C122.886 150.162 122.838 150.479 122.772 150.793C122.275 153.278 121.544 155.763 120.833 158.302C120.59 159.157 120.336 160.007 120.118 160.787V160.867H120.038C118.543 161.09 117.031 161.173 115.521 161.115C114.055 161.074 112.595 160.908 111.157 160.618C109.77 160.336 108.404 159.954 107.072 159.475C106.423 159.244 105.788 158.977 105.169 158.675C104.553 158.385 103.972 158.028 103.434 157.611L103.484 157.636L98.3451 156.279H98.4146L95.2638 157.477L95.3334 157.388C95.2057 158.372 94.9362 159.333 94.5333 160.24C94.3419 160.684 94.063 161.085 93.7132 161.418C93.5394 161.585 93.3322 161.714 93.1052 161.795C92.8783 161.877 92.6367 161.909 92.3962 161.89H92.3714L91.3278 161.165L91.278 161.13V161.07C91.5713 159.212 91.8496 157.472 92.0931 155.922L92.2074 156.011L88.9025 157.368L88.9323 157.343C88.2488 158.359 87.4103 159.261 86.4474 160.017C86.054 160.322 85.6025 160.543 85.1205 160.668C84.7081 160.736 84.2848 160.669 83.9128 160.479C83.6082 160.356 83.3421 160.153 83.1425 159.892C83.0012 159.701 82.9167 159.474 82.899 159.236C82.8808 159.033 82.9186 158.829 83.0083 158.645Z" fill="#6F4439"/>
<path d="M103.241 152.572C103.076 152.591 102.909 152.591 102.744 152.572C102.421 152.547 101.954 152.502 101.372 152.443L99.3445 152.214L98.7581 152.15C98.5656 152.117 98.3691 152.117 98.1766 152.15C97.7549 152.214 97.3369 152.3 96.9242 152.408C95.2494 152.905 93.5696 153.218 92.9484 154.212C92.6799 154.574 92.4779 154.982 92.352 155.415C92.2626 155.723 92.2377 155.912 92.2228 155.912C92.1962 155.746 92.2081 155.576 92.2576 155.415C92.3475 154.954 92.5338 154.517 92.8043 154.133C92.9916 153.863 93.2216 153.627 93.4851 153.432C93.7902 153.218 94.1251 153.051 94.4791 152.935C95.2664 152.648 96.0675 152.401 96.8795 152.194C97.3013 152.081 97.7295 151.993 98.1617 151.931C98.3759 151.899 98.5936 151.899 98.8078 151.931L99.3892 152.01L101.417 152.289C101.993 152.373 102.456 152.448 102.779 152.502C102.935 152.504 103.091 152.528 103.241 152.572Z" fill="#6F4439"/>
<path d="M85.2988 156.265C85.4667 156.064 85.6513 155.878 85.8505 155.708C86.2232 155.365 86.7699 154.883 87.4607 154.307C88.1515 153.73 88.9914 153.054 89.9456 152.353C90.4425 152.006 90.9395 151.648 91.5061 151.31C91.7941 151.138 92.091 150.982 92.3957 150.843C92.7197 150.716 93.0518 150.612 93.3896 150.53C95.6792 149.975 98.0038 149.577 100.347 149.337L102.464 149.073C102.722 149.03 102.983 149.009 103.245 149.009C102.995 149.087 102.739 149.142 102.479 149.173L100.377 149.516C98.6029 149.829 96.1131 150.047 93.4691 150.778C93.1464 150.858 92.8293 150.959 92.5199 151.081C92.2237 151.214 91.935 151.364 91.6552 151.528C91.1035 151.856 90.5916 152.204 90.1046 152.547C89.1106 153.233 88.2906 153.889 87.5849 154.446L85.925 155.783C85.7292 155.959 85.5198 156.121 85.2988 156.265Z" fill="#6F4439"/>
<path d="M168.556 109.584C166.175 112.951 164.069 116.504 162.259 120.209C159.869 125.179 152.145 142.101 152.145 142.101L120.672 143.751L121.139 155.912C121.139 155.912 151.534 166.741 158.338 164.649C165.141 162.557 172.392 154.709 172.392 154.709L175.648 103.421C175.648 103.421 172.949 102.919 168.556 109.584Z" fill="#2059EE"/>
<path d="M175.138 103.545C175.138 103.545 167.067 121.849 165.889 129.602C163.548 145.008 162.763 154.625 162.763 154.625L160.02 178.445H213.768C213.768 178.445 215.547 134.298 214.404 119.498C213.549 108.406 205.051 101.498 201.577 97.7058C201.368 97.4772 200.414 94.3711 200.414 94.3711L175.366 100.787L175.138 103.545Z" fill="#2059EE"/>
<path d="M172.54 106.323C172.528 106.384 172.508 106.442 172.48 106.497C172.425 106.622 172.361 106.791 172.271 106.994L171.471 108.908C170.78 110.568 169.781 112.978 168.778 116.039C167.61 119.618 166.682 123.271 165.999 126.973C165.199 131.152 164.553 135.789 164.012 140.675C163.018 150.455 162.128 159.306 161.477 165.727C161.144 168.923 160.876 171.512 160.687 173.316C160.587 174.201 160.513 174.892 160.458 175.379C160.428 175.607 160.408 175.781 160.394 175.915C160.387 175.977 160.375 176.039 160.359 176.099C160.354 176.038 160.354 175.976 160.359 175.915C160.359 175.781 160.384 175.602 160.399 175.374C160.443 174.877 160.503 174.196 160.577 173.306C160.746 171.497 160.99 168.908 161.288 165.707C161.909 159.296 162.729 150.43 163.773 140.645C164.31 135.759 164.966 131.113 165.761 126.928C166.455 123.213 167.403 119.55 168.599 115.965C169.627 112.908 170.651 110.498 171.372 108.853C171.73 108.023 172.023 107.387 172.222 106.96C172.316 106.751 172.391 106.592 172.45 106.463C172.477 106.415 172.507 106.368 172.54 106.323Z" fill="#263238"/>
<g opacity="0.3">
<path d="M200.462 135.138C199.965 130.263 197.774 125.368 193.763 122.555L160.992 169.35C166.777 172.471 173.203 175.692 179.629 174.32C183.108 173.579 186.159 171.542 188.654 169.032C193.837 163.819 196.65 156.717 198.623 149.65C199.94 144.919 200.954 140.014 200.462 135.138Z" fill="black"/>
</g>
<path d="M204.176 129.487C200.095 143.935 190.906 161.562 188.083 165.106C186.046 167.711 183.445 169.822 180.476 171.279C177.506 172.736 174.245 173.502 170.938 173.52C167.24 173.52 135.99 167.432 126.707 165.613C125.943 165.461 125.241 165.089 124.687 164.542C124.133 163.995 123.752 163.298 123.591 162.536L123.511 162.154L119.361 161.021L121.583 149.834L122.025 149.213L166.718 150.619L179.719 114.404C179.968 113.992 183.72 101.841 193.903 102.392" fill="#2059EE"/>
<path d="M193.904 102.402H193.566C193.234 102.393 192.902 102.401 192.572 102.427C191.277 102.504 190.006 102.805 188.815 103.317C186.911 104.185 185.233 105.479 183.909 107.099C182.122 109.294 180.727 111.78 179.785 114.449C176.5 123.623 172.042 136.088 166.818 150.674L166.794 150.753H166.709L122.036 149.352L122.145 149.297L121.703 149.918V149.869C121.062 153.104 120.381 156.543 119.715 160.022L119.511 161.056L119.417 160.902L123.586 162.025L123.666 162.05V162.124C123.787 163.044 124.221 163.895 124.893 164.535C125.228 164.844 125.615 165.091 126.036 165.265C126.469 165.424 126.917 165.539 127.373 165.608L132.84 166.677L143.525 168.729C150.527 170.056 157.271 171.318 163.707 172.407C165.318 172.675 166.908 172.904 168.478 173.152C169.264 173.252 170.049 173.361 170.819 173.396C171.593 173.405 172.366 173.367 173.135 173.281C176.106 172.962 178.981 172.041 181.584 170.573C184 169.185 186.138 167.362 187.89 165.196C188.681 164.153 189.405 163.06 190.057 161.925C190.708 160.817 191.324 159.719 191.906 158.64C195.559 151.819 198.76 144.765 201.488 137.524C202.432 134.959 203.108 132.947 203.535 131.56C203.744 130.879 203.908 130.357 204.032 130C204.156 129.642 204.201 129.473 204.201 129.473C204.201 129.473 204.156 129.652 204.057 130.005L203.6 131.575C203.187 132.952 202.526 134.969 201.612 137.539C198.914 144.799 195.733 151.87 192.09 158.705C191.513 159.788 190.897 160.887 190.251 162C189.597 163.147 188.868 164.249 188.069 165.3C186.296 167.502 184.127 169.353 181.673 170.757C179.048 172.243 176.148 173.178 173.15 173.505C172.371 173.595 171.588 173.635 170.804 173.624C170.009 173.59 169.229 173.48 168.439 173.381C166.863 173.157 165.268 172.884 163.658 172.64C157.197 171.557 150.473 170.3 143.465 168.978L132.78 166.925L127.314 165.862C126.842 165.79 126.379 165.67 125.932 165.504C125.48 165.32 125.066 165.056 124.709 164.723C123.998 164.048 123.537 163.151 123.402 162.179L123.497 162.278L119.327 161.155L119.213 161.12V161.006C119.277 160.678 119.352 160.325 119.422 159.972C120.112 156.493 120.793 153.054 121.41 149.819V149.789L121.852 149.168L121.892 149.113H122.036L166.729 150.535L166.62 150.609L179.66 114.409C180.612 111.738 182.021 109.253 183.825 107.064C185.166 105.435 186.867 104.14 188.795 103.282C189.995 102.775 191.275 102.484 192.577 102.422C192.908 102.4 193.24 102.4 193.571 102.422L193.904 102.402Z" fill="#263238"/>
<path d="M156.875 147.761C156.281 146.628 155.557 145.567 154.718 144.601C153.821 143.695 152.82 142.897 151.736 142.225C152.106 142.324 152.457 142.483 152.775 142.697C153.572 143.165 154.297 143.746 154.927 144.422C155.556 145.098 156.085 145.861 156.497 146.688C156.678 147.024 156.805 147.386 156.875 147.761Z" fill="#263238"/>
<path d="M172.126 159.391C172.081 159.391 171.992 158.819 171.733 157.9C171.391 156.728 170.898 155.605 170.267 154.56C169.628 153.52 168.854 152.57 167.966 151.732C167.285 151.086 166.808 150.738 166.833 150.708C166.964 150.757 167.086 150.826 167.196 150.912C167.508 151.12 167.807 151.348 168.09 151.593C169.981 153.235 171.316 155.423 171.912 157.855C172.004 158.219 172.069 158.59 172.106 158.963C172.135 159.104 172.141 159.248 172.126 159.391Z" fill="#263238"/>
<g opacity="0.3">
<path d="M160.205 150.346L162.804 150.445C163.227 140.232 165.329 130.069 167.128 119.995C162.541 129.368 161.338 139.979 160.205 150.346Z" fill="black"/>
</g>
<path d="M200.707 97.7058C200.629 97.746 200.545 97.7745 200.459 97.7903L199.743 97.9891L197.109 98.6899C194.888 99.2813 191.821 100.126 188.412 100.986C185.003 101.846 181.887 102.512 179.611 102.884C178.473 103.073 177.548 103.207 176.907 103.272L176.167 103.347C176.081 103.359 175.994 103.359 175.908 103.347C175.99 103.316 176.075 103.296 176.162 103.287L176.892 103.163C177.528 103.068 178.448 102.904 179.576 102.696C181.837 102.278 184.943 101.587 188.348 100.708C191.752 99.8279 194.808 99.0278 197.065 98.4811C198.183 98.2078 199.092 97.9842 199.723 97.8599L200.449 97.7108C200.535 97.6979 200.621 97.6962 200.707 97.7058Z" fill="#263238"/>
</svg>
