<svg width="247" height="189" viewBox="0 0 247 189" fill="none" xmlns="http://www.w3.org/2000/svg">
<path d="M234.849 33.6555C251.692 61.7247 249.923 101.236 228.88 127.237C207.838 153.238 175.242 173.244 138.425 179.386C112.146 183.76 69.0339 184.581 45.0227 174.649C21.0115 164.717 0.0845599 142.495 0.000347005 120.084C-0.0364961 110.41 2.8478 97.7152 14.7376 87.6307C26.0748 77.9988 47.0701 79.1568 63.2232 79.5726C79.3763 79.9884 97.7452 79.6778 108.572 69.6355C116.883 61.9194 118.109 50.7297 122.488 41.0083C129.941 24.4815 147.915 11.5812 168.574 7.92845C171.449 7.41931 174.353 7.08884 177.269 6.93895C199.99 5.7547 221.538 15.5339 233.46 31.7607L234.849 33.6555Z" fill="#E8F2FE"/>
<path d="M1.3313 181.3L29.111 162.542L163.72 161.899L169.878 181.584L1.3313 181.3Z" fill="#455A64"/>
<path d="M169.531 188.984L1.05237 188.863V180.932L169.604 181.458L169.531 188.984Z" fill="#455A64"/>
<path d="M165.399 181.416C165.399 181.489 129.014 181.537 84.1495 181.516C39.285 181.495 2.89453 181.416 2.89453 181.337C2.89453 181.258 39.2692 181.216 84.1495 181.237C129.03 181.258 165.399 181.337 165.399 181.416Z" fill="#263238"/>
<path d="M111.404 29.0464H93.6216C93.0317 29.0464 92.4658 28.812 92.0486 28.3948C91.6315 27.9776 91.3971 27.4118 91.3971 26.8218V2.22101C91.3971 1.92905 91.4547 1.63995 91.5665 1.37025C91.6783 1.10055 91.8423 0.855555 92.0489 0.649269C92.2555 0.442983 92.5007 0.27946 92.7706 0.168052C93.0405 0.0566439 93.3297 -0.000462096 93.6216 2.816e-06H104.893L113.618 8.99013V26.8218C113.618 27.41 113.385 27.9742 112.97 28.3911C112.555 28.808 111.992 29.0436 111.404 29.0464Z" fill="#2059EE"/>
<g opacity="0.2">
<path d="M91.8354 20.2332H113.172C113.288 20.2332 113.4 20.2794 113.482 20.3616C113.564 20.4438 113.61 20.5554 113.61 20.6717V26.7547C113.61 27.3625 113.369 27.9454 112.939 28.3752C112.509 28.805 111.927 29.0464 111.319 29.0464H93.6886C93.0808 29.0464 92.4979 28.805 92.0681 28.3752C91.6383 27.9454 91.3969 27.3625 91.3969 26.7547V20.6717C91.3969 20.5554 91.4431 20.4438 91.5253 20.3616C91.6075 20.2794 91.7191 20.2332 91.8354 20.2332Z" fill="black"/>
</g>
<g opacity="0.2">
<path d="M104.893 0V6.92119C104.892 7.19272 104.945 7.46168 105.049 7.71267C105.152 7.96367 105.304 8.19177 105.496 8.38393C105.688 8.5761 105.916 8.72855 106.167 8.83257C106.418 8.93659 106.686 8.99013 106.958 8.99013H113.617L104.893 0Z" fill="white"/>
</g>
<g opacity="0.2">
<path d="M104.981 7.52954C104.981 7.52954 104.896 9.21652 106.806 9.76116C106.878 9.78139 106.952 9.79792 107.025 9.81067C107.895 9.96628 113.618 10.9813 113.618 10.8504V8.99017H106.958C106.958 8.99017 105.296 8.93359 104.981 7.52954Z" fill="black"/>
</g>
<path d="M97.7557 24.0704C97.7775 23.6974 97.9085 23.3391 98.1326 23.0401C98.3566 22.7411 98.6638 22.5146 99.0156 22.389C99.3675 22.2634 99.7486 22.2442 100.111 22.3338C100.474 22.4234 100.802 22.6178 101.055 22.8927L100.543 23.3631C100.437 23.2355 100.304 23.1332 100.153 23.0634C100.003 22.9937 99.8384 22.9583 99.6726 22.9599C99.5222 22.9514 99.3716 22.9737 99.2302 23.0254C99.0887 23.0771 98.9592 23.1571 98.8497 23.2605C98.7403 23.364 98.653 23.4887 98.5934 23.6271C98.5338 23.7654 98.5031 23.9145 98.5031 24.0651C98.5031 24.2157 98.5338 24.3648 98.5934 24.5031C98.653 24.6415 98.7403 24.7662 98.8497 24.8697C98.9592 24.9731 99.0887 25.0531 99.2302 25.1048C99.3716 25.1565 99.5222 25.1788 99.6726 25.1703C99.8392 25.172 100.004 25.136 100.155 25.065C100.305 24.9939 100.438 24.8897 100.543 24.76L101.055 25.234C100.804 25.5101 100.476 25.7059 100.114 25.7969C99.7516 25.8878 99.3705 25.8699 99.0183 25.7453C98.6661 25.6207 98.3585 25.3951 98.1339 25.0965C97.9093 24.798 97.7778 24.4398 97.7557 24.0669V24.0704Z" fill="#FAFAFA"/>
<path d="M101.289 25.4603L101.561 24.859C101.898 25.0891 102.296 25.2124 102.704 25.2127C103.178 25.2127 103.368 25.0571 103.368 24.859C103.368 24.2118 101.36 24.6574 101.36 23.3736C101.36 22.783 101.834 22.3126 102.817 22.3126C103.237 22.3049 103.651 22.4113 104.016 22.6203L103.768 23.2286C103.478 23.056 103.147 22.9622 102.81 22.9563C102.336 22.9563 102.155 23.1331 102.155 23.3489C102.155 23.9855 104.164 23.5469 104.164 24.8166C104.164 25.3931 103.683 25.8776 102.697 25.8776C102.196 25.884 101.705 25.7385 101.289 25.4603Z" fill="#FAFAFA"/>
<path d="M104.44 25.4603L104.709 24.859C105.046 25.0881 105.444 25.2113 105.851 25.2127C106.325 25.2127 106.516 25.0571 106.516 24.859C106.516 24.2118 104.507 24.6574 104.507 23.3736C104.507 22.783 104.981 22.3126 105.964 22.3126C106.384 22.3049 106.799 22.4113 107.163 22.6203L106.916 23.2286C106.626 23.0556 106.295 22.9617 105.957 22.9563C105.483 22.9563 105.303 23.1331 105.303 23.3489C105.303 23.9855 107.312 23.5469 107.312 24.8166C107.312 25.3931 106.834 25.8776 105.844 25.8776C105.344 25.8851 104.854 25.7394 104.44 25.4603Z" fill="#FAFAFA"/>
<path d="M98.884 12.8874C99.2377 13.0006 99.418 13.2411 99.418 13.7787V15.0483C99.4078 15.1272 99.4157 15.2074 99.4411 15.2828C99.4666 15.3582 99.5088 15.4268 99.5648 15.4834C99.6207 15.54 99.6888 15.5831 99.7638 15.6094C99.8389 15.6358 99.919 15.6446 99.998 15.6354H100.139V16.6044H99.6797C98.6859 16.6044 98.1802 16.0951 98.1802 15.1898V13.7468C98.188 13.6977 98.1845 13.6474 98.1698 13.5998C98.1551 13.5522 98.1297 13.5086 98.0955 13.4724C98.0614 13.4362 98.0194 13.4083 97.9727 13.3909C97.9261 13.3735 97.8761 13.367 97.8265 13.3719H97.5648V12.3994H97.8265C97.8759 12.4049 97.9259 12.399 97.9725 12.382C98.0192 12.365 98.0613 12.3375 98.0956 12.3015C98.1298 12.2655 98.1553 12.2221 98.17 12.1747C98.1846 12.1272 98.1881 12.077 98.1802 12.028V10.5921C98.1802 9.67969 98.6859 9.17749 99.6797 9.17749H100.139V10.143H99.998C99.9187 10.1336 99.8382 10.1425 99.7628 10.1691C99.6875 10.1956 99.6192 10.239 99.5632 10.2961C99.5072 10.3531 99.465 10.4221 99.4398 10.498C99.4147 10.5738 99.4072 10.6544 99.418 10.7336V12.0033C99.418 12.5479 99.2518 12.7778 98.884 12.8874Z" fill="#FAFAFA"/>
<path d="M107.446 12.3995V13.3685H107.181C106.969 13.3685 106.827 13.4888 106.827 13.7434V15.1793C106.827 16.0917 106.318 16.5939 105.324 16.5939H104.864V15.6355H105.009C105.088 15.6448 105.168 15.6359 105.244 15.6095C105.319 15.5832 105.387 15.5401 105.443 15.4835C105.499 15.4269 105.541 15.3583 105.566 15.2829C105.592 15.2075 105.6 15.1273 105.589 15.0484V13.7788C105.589 13.2306 105.756 13.0007 106.12 12.8875C105.766 12.7779 105.589 12.5339 105.589 11.9998V10.7302C105.6 10.651 105.593 10.5704 105.568 10.4946C105.542 10.4187 105.5 10.3497 105.444 10.2926C105.388 10.2356 105.32 10.1922 105.245 10.1657C105.169 10.1391 105.089 10.1302 105.009 10.1396H104.864V9.17407H105.324C106.318 9.17407 106.827 9.67981 106.827 10.5887V12.0458C106.827 12.3005 106.962 12.4172 107.181 12.4172L107.446 12.3995Z" fill="#FAFAFA"/>
<path d="M136.28 46.9064H118.243C117.947 46.9064 117.653 46.8479 117.379 46.7343C117.105 46.6207 116.856 46.4542 116.647 46.2443C116.437 46.0344 116.271 45.7852 116.158 45.5111C116.045 45.2369 115.986 44.9431 115.987 44.6465V19.6743C115.987 19.0759 116.225 18.502 116.648 18.0788C117.071 17.6557 117.645 17.418 118.243 17.418H129.684L138.526 26.546V44.6465C138.527 45.2437 138.291 45.8169 137.87 46.2406C137.449 46.6642 136.877 46.9036 136.28 46.9064Z" fill="#2059EE"/>
<g opacity="0.2">
<path d="M115.984 37.9587H138.54V44.4661C138.54 45.1133 138.283 45.734 137.825 46.1917C137.368 46.6493 136.747 46.9064 136.1 46.9064H118.417C117.77 46.9064 117.149 46.6493 116.691 46.1917C116.234 45.734 115.976 45.1133 115.976 44.4661V37.9587H115.984Z" fill="black"/>
</g>
<g opacity="0.2">
<path d="M129.681 17.418V24.4453C129.681 25.0024 129.902 25.5368 130.296 25.9307C130.69 26.3247 131.224 26.546 131.781 26.546H138.536L129.681 17.418Z" fill="white"/>
</g>
<g opacity="0.2">
<path d="M129.773 25.0642C129.773 25.0642 129.684 26.7689 131.626 27.3277C131.699 27.3483 131.773 27.3648 131.849 27.3772C132.729 27.5363 138.536 28.569 138.536 28.4382V26.5461H131.781C131.781 26.5461 130.094 26.4895 129.773 25.0642Z" fill="black"/>
</g>
<path d="M125.246 30.5706L122.537 31.5608L125.246 32.544V33.5626L121.374 32.0913V31.0303L125.246 29.5591V30.5706Z" fill="#FAFAFA"/>
<path d="M128.157 27.561H129.285L126.611 35.2214H125.483L128.157 27.561Z" fill="#FAFAFA"/>
<path d="M133.302 31.034V32.095L129.44 33.5627V32.5583L132.149 31.5751L129.44 30.5848V29.5769L133.302 31.034Z" fill="#FAFAFA"/>
<path d="M124.323 41.2866V44.3175H123.616V43.0762H122.24V44.3175H121.533V41.2866H122.24V42.482H123.616V41.2866H124.323Z" fill="#FAFAFA"/>
<path d="M125.67 41.8596H124.701V41.2866H127.343V41.8596H126.371V44.3175H125.663L125.67 41.8596Z" fill="#FAFAFA"/>
<path d="M130.477 44.3176V42.4998L129.586 43.9993H129.267L128.38 42.5387V44.307H127.722V41.2761H128.302L129.441 43.1682L130.558 41.2832H131.135V44.3141L130.477 44.3176Z" fill="#FAFAFA"/>
<path d="M131.852 41.2866H132.56V43.7623H134.08V44.3317H131.856L131.852 41.2866Z" fill="#FAFAFA"/>
<path d="M62.7231 20.0005H23.2264C22.5057 20.0005 21.9215 20.585 21.9215 21.3059V86.5917C21.9215 87.3127 22.5057 87.8971 23.2264 87.8971H62.7231C63.4437 87.8971 64.028 87.3127 64.028 86.5917V21.3059C64.028 20.585 63.4437 20.0005 62.7231 20.0005Z" fill="white"/>
<path d="M23.4733 20.0005H62.5487C62.941 20.0005 63.3173 20.1629 63.5947 20.4518C63.8721 20.7408 64.028 21.1327 64.028 21.5413V27.8954H21.9215V21.6124C21.9204 21.4 21.9598 21.1895 22.0374 20.9931C22.1151 20.7967 22.2294 20.6184 22.3738 20.4684C22.5181 20.3185 22.6897 20.1999 22.8784 20.1195C23.0672 20.0392 23.2694 19.9988 23.4733 20.0005Z" fill="#E0E0E0"/>
<path d="M62.4855 87.8715C62.6703 87.8615 62.8523 87.8213 63.0241 87.7524C63.2725 87.6433 63.4844 87.4652 63.6347 87.239C63.7851 87.0128 63.8676 86.7481 63.8724 86.4763C63.8724 85.0258 63.8724 82.8947 63.8512 80.1511C63.8512 74.6597 63.8512 66.7182 63.8173 56.9051C63.7834 47.092 63.8173 35.3988 63.7918 22.421V21.8127C63.8035 21.6184 63.7863 21.4235 63.7409 21.2342C63.6614 20.958 63.4941 20.7154 63.2644 20.5434C63.0346 20.3714 62.7552 20.2794 62.4685 20.2814H23.4471C23.1239 20.2807 22.8124 20.4034 22.5761 20.6246C22.3398 20.8458 22.1963 21.149 22.1747 21.4724C22.1747 21.6894 22.1747 21.9318 22.1747 22.1615V41.2305C22.1747 48.2915 22.1747 55.1058 22.1747 61.5968C22.1747 68.0879 22.1747 74.2514 22.1747 80.0235C22.1747 81.4655 22.1747 82.8862 22.1747 84.2772V86.3444C22.1508 86.6657 22.2431 86.9849 22.4347 87.2434C22.6264 87.502 22.9045 87.6827 23.2181 87.7524C23.5421 87.7861 23.8682 87.7961 24.1936 87.7821H30.8018L53.9856 87.8162L60.2884 87.8374L53.9856 87.8587L30.8018 87.8927H24.1173C23.779 87.9044 23.4403 87.893 23.1036 87.8587C22.7529 87.784 22.4411 87.5846 22.2256 87.2972C22.0087 87.0063 21.9019 86.6475 21.9245 86.2849C21.9245 85.6043 21.9245 84.9152 21.9245 84.2176V79.964C21.9245 74.1918 21.9245 68.0241 21.9245 61.5373C21.9245 55.0505 21.9245 48.232 21.9245 41.171C21.9245 37.6348 21.9245 34.0433 21.9245 30.3965V22.102C21.9245 21.868 21.9245 21.6468 21.9245 21.3959C21.9441 21.1438 22.0273 20.9008 22.1662 20.6898C22.3045 20.4779 22.4932 20.3039 22.7154 20.1836C22.9376 20.0633 23.1862 20.0004 23.4387 20.0007H62.4812C62.7018 19.9971 62.9204 20.0421 63.1217 20.1326C63.3251 20.2223 63.5064 20.3557 63.653 20.5232C63.7995 20.6908 63.9077 20.8884 63.97 21.1024C64.0171 21.3101 64.0356 21.5234 64.0251 21.7362V22.3444C64.0251 35.3222 64.0251 47.0154 63.9997 56.8285C63.9742 66.6416 63.9742 74.5832 63.9657 80.0746C63.9657 82.8182 63.9657 84.9492 63.9445 86.3997C63.9408 86.7242 63.8271 87.0377 63.6222 87.2887C63.4733 87.4727 63.2828 87.6185 63.0666 87.7141C62.9301 87.7655 62.7875 87.7984 62.6424 87.8119L62.4855 87.8715Z" fill="#263238"/>
<path d="M28.2375 24.4743C28.2375 24.7345 28.1603 24.9889 28.0157 25.2053C27.8711 25.4217 27.6656 25.5903 27.4252 25.6899C27.1848 25.7895 26.9202 25.8156 26.665 25.7648C26.4097 25.714 26.1753 25.5887 25.9912 25.4047C25.8072 25.2207 25.6819 24.9862 25.6311 24.731C25.5803 24.4757 25.6064 24.2112 25.706 23.9707C25.8056 23.7303 25.9742 23.5248 26.1906 23.3802C26.407 23.2356 26.6614 23.1585 26.9217 23.1585C27.0946 23.1579 27.266 23.1915 27.4259 23.2574C27.5858 23.3233 27.7311 23.4202 27.8534 23.5425C27.9757 23.6648 28.0726 23.8101 28.1385 23.97C28.2044 24.1299 28.2381 24.3013 28.2375 24.4743Z" fill="white"/>
<path d="M30.606 25.7901C31.3327 25.7901 31.9218 25.201 31.9218 24.4743C31.9218 23.7476 31.3327 23.1584 30.606 23.1584C29.8793 23.1584 29.2902 23.7476 29.2902 24.4743C29.2902 25.201 29.8793 25.7901 30.606 25.7901Z" fill="white"/>
<path d="M34.2903 25.7901C35.017 25.7901 35.6061 25.201 35.6061 24.4743C35.6061 23.7476 35.017 23.1584 34.2903 23.1584C33.5636 23.1584 32.9745 23.7476 32.9745 24.4743C32.9745 25.201 33.5636 25.7901 34.2903 25.7901Z" fill="white"/>
<path d="M40.0156 37.8959H32.2494C32.0229 37.8959 31.8057 37.8127 31.6456 37.6646C31.4855 37.5166 31.3955 37.3158 31.3955 37.1064C31.3955 36.897 31.4855 36.6962 31.6456 36.5481C31.8057 36.4001 32.0229 36.3169 32.2494 36.3169H40.0156C40.242 36.3169 40.4592 36.4001 40.6194 36.5481C40.7795 36.6962 40.8695 36.897 40.8695 37.1064C40.8695 37.3158 40.7795 37.5166 40.6194 37.6646C40.4592 37.8127 40.242 37.8959 40.0156 37.8959Z" fill="#263238"/>
<path d="M40.0156 42.1063H32.2494C32.0229 42.1063 31.8057 42.0232 31.6456 41.8751C31.4855 41.727 31.3955 41.5262 31.3955 41.3168C31.3955 41.1075 31.4855 40.9066 31.6456 40.7586C31.8057 40.6105 32.0229 40.5273 32.2494 40.5273H40.0156C40.242 40.5273 40.4592 40.6105 40.6194 40.7586C40.7795 40.9066 40.8695 41.1075 40.8695 41.3168C40.8695 41.5262 40.7795 41.727 40.6194 41.8751C40.4592 42.0232 40.242 42.1063 40.0156 42.1063Z" fill="#E0E0E0"/>
<path d="M40.5418 54.212H32.7756C32.5492 54.212 32.332 54.1289 32.1719 53.9808C32.0117 53.8328 31.9218 53.6319 31.9218 53.4226C31.9218 53.2132 32.0117 53.0124 32.1719 52.8643C32.332 52.7162 32.5492 52.6331 32.7756 52.6331H40.5418C40.7683 52.6331 40.9855 52.7162 41.1456 52.8643C41.3057 53.0124 41.3957 53.2132 41.3957 53.4226C41.3957 53.6319 41.3057 53.8328 41.1456 53.9808C40.9855 54.1289 40.7683 54.212 40.5418 54.212Z" fill="#E0E0E0"/>
<path d="M40.0156 46.8434H32.2494C32.0229 46.8434 31.8057 46.7602 31.6456 46.6122C31.4855 46.4641 31.3955 46.2633 31.3955 46.0539C31.3955 45.8445 31.4855 45.6437 31.6456 45.4956C31.8057 45.3476 32.0229 45.2644 32.2494 45.2644H40.0156C40.242 45.2644 40.4592 45.3476 40.6194 45.4956C40.7795 45.6437 40.8695 45.8445 40.8695 46.0539C40.8695 46.2633 40.7795 46.4641 40.6194 46.6122C40.4592 46.7602 40.242 46.8434 40.0156 46.8434Z" fill="#2059EE"/>
<path d="M40.0156 72.1073H32.2494C32.0229 72.1073 31.8057 72.0241 31.6456 71.8761C31.4855 71.728 31.3955 71.5272 31.3955 71.3178C31.3955 71.1084 31.4855 70.9076 31.6456 70.7596C31.8057 70.6115 32.0229 70.5283 32.2494 70.5283H40.0156C40.242 70.5283 40.4592 70.6115 40.6194 70.7596C40.7795 70.9076 40.8695 71.1084 40.8695 71.3178C40.8695 71.5272 40.7795 71.728 40.6194 71.8761C40.4592 72.0241 40.242 72.1073 40.0156 72.1073Z" fill="#2059EE"/>
<path d="M52.6474 37.8959H44.8812C44.6548 37.8959 44.4376 37.8127 44.2774 37.6646C44.1173 37.5166 44.0273 37.3158 44.0273 37.1064C44.0273 36.897 44.1173 36.6962 44.2774 36.5481C44.4376 36.4001 44.6548 36.3169 44.8812 36.3169H52.6474C52.8739 36.3169 53.0911 36.4001 53.2512 36.5481C53.4113 36.6962 53.5013 36.897 53.5013 37.1064C53.5013 37.3158 53.4113 37.5166 53.2512 37.6646C53.0911 37.8127 52.8739 37.8959 52.6474 37.8959Z" fill="#455A64"/>
<path d="M60.6235 42.1063H44.7792C44.675 42.1018 44.5727 42.0777 44.4784 42.0354C44.384 41.9932 44.2995 41.9336 44.2296 41.8601C44.1598 41.7867 44.1061 41.7008 44.0716 41.6076C44.0371 41.5143 44.0225 41.4155 44.0287 41.3168C44.0225 41.2182 44.0371 41.1194 44.0716 41.0261C44.1061 40.9328 44.1598 40.847 44.2296 40.7735C44.2995 40.7001 44.384 40.6405 44.4784 40.5982C44.5727 40.556 44.675 40.5319 44.7792 40.5273H60.6444C60.7486 40.5319 60.8509 40.556 60.9452 40.5982C61.0396 40.6405 61.1241 40.7001 61.194 40.7735C61.2638 40.847 61.3175 40.9328 61.352 41.0261C61.3865 41.1194 61.4011 41.2182 61.3949 41.3168C61.4011 41.4171 61.3858 41.5175 61.35 41.612C61.3143 41.7066 61.2587 41.7933 61.1867 41.867C61.1146 41.9407 61.0276 41.9999 60.9309 42.0411C60.8341 42.0822 60.7296 42.1044 60.6235 42.1063Z" fill="#263238"/>
<path d="M60.6034 46.8434H44.2941C44.1858 46.8409 44.0791 46.8183 43.9803 46.7771C43.8815 46.7358 43.7926 46.6767 43.7189 46.6031C43.6451 46.5296 43.5879 46.4431 43.5506 46.3488C43.5134 46.2545 43.4969 46.1542 43.502 46.0539C43.4969 45.9536 43.5134 45.8533 43.5506 45.759C43.5879 45.6647 43.6451 45.5782 43.7189 45.5047C43.7926 45.4311 43.8815 45.372 43.9803 45.3307C44.0791 45.2895 44.1858 45.2669 44.2941 45.2644H60.6034C60.7117 45.2669 60.8184 45.2895 60.9171 45.3307C61.0159 45.372 61.1048 45.4311 61.1786 45.5047C61.2524 45.5782 61.3096 45.6647 61.3468 45.759C61.384 45.8533 61.4006 45.9536 61.3954 46.0539C61.4006 46.1542 61.384 46.2545 61.3468 46.3488C61.3096 46.4431 61.2524 46.5296 61.1786 46.6031C61.1048 46.6767 61.0159 46.7358 60.9171 46.7771C60.8184 46.8183 60.7117 46.8409 60.6034 46.8434Z" fill="#E0E0E0"/>
<path d="M48.4978 50.5277H32.1885C32.0802 50.5252 31.9735 50.5027 31.8747 50.4614C31.7759 50.4201 31.687 50.361 31.6133 50.2874C31.5395 50.2139 31.4823 50.1274 31.4451 50.0331C31.4078 49.9388 31.3913 49.8385 31.3964 49.7382C31.3913 49.6379 31.4078 49.5376 31.4451 49.4433C31.4823 49.349 31.5395 49.2625 31.6133 49.189C31.687 49.1155 31.7759 49.0563 31.8747 49.0151C31.9735 48.9738 32.0802 48.9512 32.1885 48.9487H48.4978C48.6061 48.9512 48.7128 48.9738 48.8116 49.0151C48.9103 49.0563 48.9992 49.1155 49.073 49.189C49.1468 49.2625 49.204 49.349 49.2412 49.4433C49.2784 49.5376 49.295 49.6379 49.2898 49.7382C49.295 49.8385 49.2784 49.9388 49.2412 50.0331C49.204 50.1274 49.1468 50.2139 49.073 50.2874C48.9992 50.361 48.9103 50.4201 48.8116 50.4614C48.7128 50.5027 48.6061 50.5252 48.4978 50.5277Z" fill="#E0E0E0"/>
<path d="M28.7638 37.1064C28.7638 37.2625 28.7175 37.4152 28.6308 37.545C28.544 37.6748 28.4207 37.776 28.2764 37.8358C28.1322 37.8955 27.9734 37.9112 27.8203 37.8807C27.6671 37.8503 27.5265 37.7751 27.4161 37.6646C27.3056 37.5542 27.2304 37.4136 27.2 37.2604C27.1695 37.1073 27.1852 36.9485 27.2449 36.8043C27.3047 36.66 27.4059 36.5367 27.5357 36.45C27.6655 36.3632 27.8182 36.3169 27.9743 36.3169C28.1837 36.3169 28.3845 36.4001 28.5326 36.5481C28.6806 36.6962 28.7638 36.897 28.7638 37.1064Z" fill="#455A64"/>
<path d="M28.7638 32.8957C28.7638 33.0518 28.7175 33.2045 28.6308 33.3343C28.544 33.4641 28.4207 33.5653 28.2764 33.6251C28.1322 33.6848 27.9734 33.7005 27.8203 33.67C27.6671 33.6396 27.5265 33.5644 27.4161 33.454C27.3056 33.3435 27.2304 33.2029 27.2 33.0497C27.1695 32.8966 27.1852 32.7378 27.2449 32.5936C27.3047 32.4493 27.4059 32.326 27.5357 32.2393C27.6655 32.1525 27.8182 32.1062 27.9743 32.1062C28.1837 32.1062 28.3845 32.1894 28.5326 32.3374C28.6806 32.4855 28.7638 32.6863 28.7638 32.8957Z" fill="#455A64"/>
<path d="M28.7638 41.3168C28.7638 41.473 28.7175 41.6256 28.6308 41.7555C28.544 41.8853 28.4207 41.9865 28.2764 42.0462C28.1322 42.106 27.9734 42.1216 27.8203 42.0912C27.6671 42.0607 27.5265 41.9855 27.4161 41.8751C27.3056 41.7647 27.2304 41.624 27.2 41.4709C27.1695 41.3177 27.1852 41.159 27.2449 41.0147C27.3047 40.8705 27.4059 40.7472 27.5357 40.6604C27.6655 40.5736 27.8182 40.5273 27.9743 40.5273C28.1837 40.5273 28.3845 40.6105 28.5326 40.7586C28.6806 40.9066 28.7638 41.1075 28.7638 41.3168Z" fill="#455A64"/>
<path d="M28.7638 46.0539C28.7638 46.21 28.7175 46.3627 28.6308 46.4925C28.544 46.6224 28.4207 46.7235 28.2764 46.7833C28.1322 46.8431 27.9734 46.8587 27.8203 46.8282C27.6671 46.7978 27.5265 46.7226 27.4161 46.6122C27.3056 46.5017 27.2304 46.3611 27.2 46.2079C27.1695 46.0548 27.1852 45.896 27.2449 45.7518C27.3047 45.6075 27.4059 45.4842 27.5357 45.3975C27.6655 45.3107 27.8182 45.2644 27.9743 45.2644C28.1837 45.2644 28.3845 45.3476 28.5326 45.4956C28.6806 45.6437 28.7638 45.8445 28.7638 46.0539Z" fill="#455A64"/>
<path d="M40.5418 66.3178H32.7756C32.5492 66.3178 32.332 66.2346 32.1719 66.0865C32.0117 65.9385 31.9218 65.7377 31.9218 65.5283C31.9218 65.3189 32.0117 65.1181 32.1719 64.97C32.332 64.8219 32.5492 64.7388 32.7756 64.7388H40.5418C40.7683 64.7388 40.9855 64.8219 41.1456 64.97C41.3057 65.1181 41.3957 65.3189 41.3957 65.5283C41.3957 65.7377 41.3057 65.9385 41.1456 66.0865C40.9855 66.2346 40.7683 66.3178 40.5418 66.3178Z" fill="#E0E0E0"/>
<path d="M40.0156 58.9491H32.2494C32.0229 58.9491 31.8057 58.8659 31.6456 58.7179C31.4855 58.5698 31.3955 58.369 31.3955 58.1596C31.3955 57.9502 31.4855 57.7494 31.6456 57.6014C31.8057 57.4533 32.0229 57.3701 32.2494 57.3701H40.0156C40.242 57.3701 40.4592 57.4533 40.6194 57.6014C40.7795 57.7494 40.8695 57.9502 40.8695 58.1596C40.8695 58.369 40.7795 58.5698 40.6194 58.7179C40.4592 58.8659 40.242 58.9491 40.0156 58.9491Z" fill="#2059EE"/>
<path d="M60.6034 58.9491H44.2941C44.1858 58.9466 44.0791 58.924 43.9803 58.8828C43.8815 58.8415 43.7926 58.7824 43.7189 58.7088C43.6451 58.6353 43.5879 58.5488 43.5506 58.4545C43.5134 58.3602 43.4969 58.2599 43.502 58.1596C43.4969 58.0593 43.5134 57.959 43.5506 57.8647C43.5879 57.7704 43.6451 57.6839 43.7189 57.6104C43.7926 57.5368 43.8815 57.4777 43.9803 57.4364C44.0791 57.3952 44.1858 57.3726 44.2941 57.3701H60.6034C60.7117 57.3726 60.8184 57.3952 60.9171 57.4364C61.0159 57.4777 61.1048 57.5368 61.1786 57.6104C61.2524 57.6839 61.3096 57.7704 61.3468 57.8647C61.384 57.959 61.4006 58.0593 61.3954 58.1596C61.4006 58.2599 61.384 58.3602 61.3468 58.4545C61.3096 58.5488 61.2524 58.6353 61.1786 58.7088C61.1048 58.7824 61.0159 58.8415 60.9171 58.8828C60.8184 58.924 60.7117 58.9466 60.6034 58.9491Z" fill="#E0E0E0"/>
<path d="M48.4978 62.6334H32.1885C32.0802 62.6309 31.9735 62.6084 31.8747 62.5671C31.7759 62.5258 31.687 62.4667 31.6133 62.3932C31.5395 62.3196 31.4823 62.2332 31.4451 62.1388C31.4078 62.0445 31.3913 61.9443 31.3964 61.8439C31.3913 61.7436 31.4078 61.6434 31.4451 61.549C31.4823 61.4547 31.5395 61.3683 31.6133 61.2947C31.687 61.2212 31.7759 61.162 31.8747 61.1208C31.9735 61.0795 32.0802 61.057 32.1885 61.0544H48.4978C48.6061 61.057 48.7128 61.0795 48.8116 61.1208C48.9103 61.162 48.9992 61.2212 49.073 61.2947C49.1468 61.3683 49.204 61.4547 49.2412 61.549C49.2784 61.6434 49.295 61.7436 49.2898 61.8439C49.295 61.9443 49.2784 62.0445 49.2412 62.1388C49.204 62.2332 49.1468 62.3196 49.073 62.3932C48.9992 62.4667 48.9103 62.5258 48.8116 62.5671C48.7128 62.6084 48.6061 62.6309 48.4978 62.6334Z" fill="#E0E0E0"/>
<path d="M28.7638 58.1596C28.7638 58.3158 28.7175 58.4684 28.6308 58.5982C28.544 58.7281 28.4207 58.8293 28.2764 58.889C28.1322 58.9488 27.9734 58.9644 27.8203 58.9339C27.6671 58.9035 27.5265 58.8283 27.4161 58.7179C27.3056 58.6075 27.2304 58.4668 27.2 58.3136C27.1695 58.1605 27.1852 58.0017 27.2449 57.8575C27.3047 57.7132 27.4059 57.5899 27.5357 57.5032C27.6655 57.4164 27.8182 57.3701 27.9743 57.3701C28.1837 57.3701 28.3845 57.4533 28.5326 57.6014C28.6806 57.7494 28.7638 57.9502 28.7638 58.1596Z" fill="#455A64"/>
<path d="M36.7672 32.1062H31.8134C31.5826 32.1062 31.3955 32.2843 31.3955 32.5041V33.2873C31.3955 33.5071 31.5826 33.6852 31.8134 33.6852H36.7672C36.998 33.6852 37.1851 33.5071 37.1851 33.2873V32.5041C37.1851 32.2843 36.998 32.1062 36.7672 32.1062Z" fill="#455A64"/>
<path d="M40.0156 76.318H32.2494C32.0229 76.318 31.8057 76.2348 31.6456 76.0868C31.4855 75.9387 31.3955 75.7379 31.3955 75.5285C31.3955 75.3191 31.4855 75.1183 31.6456 74.9703C31.8057 74.8222 32.0229 74.739 32.2494 74.739H40.0156C40.242 74.739 40.4592 74.8222 40.6194 74.9703C40.7795 75.1183 40.8695 75.3191 40.8695 75.5285C40.8695 75.7379 40.7795 75.9387 40.6194 76.0868C40.4592 76.2348 40.242 76.318 40.0156 76.318Z" fill="#263238"/>
<path d="M52.6474 76.318H44.8812C44.6548 76.318 44.4376 76.2348 44.2774 76.0868C44.1173 75.9387 44.0273 75.7379 44.0273 75.5285C44.0273 75.3191 44.1173 75.1183 44.2774 74.9703C44.4376 74.8222 44.6548 74.739 44.8812 74.739H52.6474C52.8739 74.739 53.0911 74.8222 53.2512 74.9703C53.4113 75.1183 53.5013 75.3191 53.5013 75.5285C53.5013 75.7379 53.4113 75.9387 53.2512 76.0868C53.0911 76.2348 52.8739 76.318 52.6474 76.318Z" fill="#455A64"/>
<path d="M28.7638 75.5285C28.7638 75.6847 28.7175 75.8373 28.6308 75.9671C28.544 76.097 28.4207 76.1982 28.2764 76.2579C28.1322 76.3177 27.9734 76.3333 27.8203 76.3028C27.6671 76.2724 27.5265 76.1972 27.4161 76.0868C27.3056 75.9764 27.2304 75.8357 27.2 75.6825C27.1695 75.5294 27.1852 75.3706 27.2449 75.2264C27.3047 75.0821 27.4059 74.9588 27.5357 74.8721C27.6655 74.7853 27.8182 74.739 27.9743 74.739C28.1837 74.739 28.3845 74.8222 28.5326 74.9703C28.6806 75.1183 28.7638 75.3191 28.7638 75.5285Z" fill="#455A64"/>
<path d="M28.7638 79.7392C28.7638 79.8954 28.7175 80.048 28.6308 80.1778C28.544 80.3077 28.4207 80.4088 28.2764 80.4686C28.1322 80.5284 27.9734 80.544 27.8203 80.5135C27.6671 80.4831 27.5265 80.4079 27.4161 80.2975C27.3056 80.187 27.2304 80.0464 27.2 79.8932C27.1695 79.7401 27.1852 79.5813 27.2449 79.4371C27.3047 79.2928 27.4059 79.1695 27.5357 79.0828C27.6655 78.996 27.8182 78.9497 27.9743 78.9497C28.1837 78.9497 28.3845 79.0329 28.5326 79.1809C28.6806 79.329 28.7638 79.5298 28.7638 79.7392Z" fill="#455A64"/>
<path d="M36.7672 78.9497H31.8134C31.5826 78.9497 31.3955 79.1278 31.3955 79.3476V80.1308C31.3955 80.3506 31.5826 80.5287 31.8134 80.5287H36.7672C36.998 80.5287 37.1851 80.3506 37.1851 80.1308V79.3476C37.1851 79.1278 36.998 78.9497 36.7672 78.9497Z" fill="#455A64"/>
<path d="M165.983 74.7126H71.0597V135.093H165.983V74.7126Z" fill="white"/>
<path d="M88.1549 74.7126H71.0597V135.093H88.1549V74.7126Z" fill="#EBEBEB"/>
<path d="M78.5758 81.2285C78.6645 81.1753 78.7602 81.1346 78.86 81.1075L78.9179 80.8232H79.3916L79.4653 81.1022C79.5646 81.1284 79.6602 81.1673 79.7495 81.218L79.9916 81.0601L80.3337 81.3864L80.1864 81.6338C80.2396 81.7225 80.2803 81.8182 80.3074 81.918L80.5917 81.9759V82.4549L80.3127 82.5233C80.2903 82.6247 80.2531 82.7223 80.2022 82.8128L80.3601 83.0496L80.0285 83.3917L79.7811 83.2444C79.6926 83.2992 79.5969 83.3417 79.4969 83.3707L79.439 83.6496H78.96L78.8916 83.3707C78.7923 83.3445 78.6968 83.3055 78.6074 83.2549L78.3653 83.4128L78.0232 83.0812L78.1705 82.8338C78.1173 82.7451 78.0766 82.6495 78.0495 82.5496L77.7653 82.4917V82.018L78.0442 81.9496C78.0677 81.8485 78.1049 81.7511 78.1547 81.6601L77.9968 81.418L78.3284 81.0759L78.5758 81.2233V81.2285ZM78.8284 81.8654C78.7367 81.963 78.6856 82.0919 78.6856 82.2259C78.6856 82.3599 78.7367 82.4888 78.8284 82.5865C78.9263 82.6798 79.0564 82.7318 79.1916 82.7318C79.3268 82.7318 79.4569 82.6798 79.5548 82.5865C79.6147 82.4845 79.6387 82.3654 79.6226 82.2482C79.6066 82.1311 79.5516 82.0227 79.4665 81.9407C79.3814 81.8586 79.2711 81.8075 79.1534 81.7958C79.0358 81.7841 78.9176 81.8123 78.8179 81.8759L78.8284 81.8654Z" fill="#E0E0E0"/>
<path d="M82.5231 94.5712H75.0808C74.9802 94.5712 74.8805 94.5513 74.7875 94.5126C74.6946 94.4739 74.6102 94.4172 74.5393 94.3458C74.4684 94.2744 74.4123 94.1896 74.3742 94.0964C74.3362 94.0032 74.317 93.9034 74.3176 93.8028C74.3176 93.6003 74.3981 93.4062 74.5412 93.2631C74.6843 93.12 74.8784 93.0396 75.0808 93.0396H82.5337C82.6343 93.0389 82.7341 93.0581 82.8273 93.0962C82.9205 93.1342 83.0053 93.1903 83.0767 93.2612C83.1481 93.3322 83.2048 93.4165 83.2435 93.5095C83.2822 93.6024 83.3021 93.7021 83.3021 93.8028C83.3021 93.9046 83.2819 94.0054 83.2426 94.0993C83.2034 94.1932 83.1458 94.2784 83.0733 94.3499C83.0009 94.4214 82.9149 94.4778 82.8204 94.5157C82.726 94.5537 82.6249 94.5726 82.5231 94.5712Z" fill="#E0E0E0"/>
<path d="M82.5231 90.671H75.0808C74.8779 90.6697 74.6838 90.5881 74.5408 90.4441C74.3979 90.3002 74.3176 90.1055 74.3176 89.9026C74.3176 89.7002 74.398 89.5061 74.5412 89.363C74.6843 89.2198 74.8784 89.1394 75.0808 89.1394H82.5336C82.6343 89.1387 82.7341 89.158 82.8273 89.196C82.9205 89.2341 83.0053 89.2902 83.0767 89.3611C83.1481 89.432 83.2048 89.5164 83.2435 89.6093C83.2822 89.7023 83.3021 89.8019 83.3021 89.9026C83.3021 90.0044 83.2819 90.1052 83.2426 90.1991C83.2033 90.2931 83.1458 90.3782 83.0733 90.4497C83.0008 90.5212 82.9149 90.5776 82.8204 90.6156C82.726 90.6536 82.6249 90.6724 82.5231 90.671Z" fill="#E0E0E0"/>
<path d="M82.5231 87.0971H75.0808C74.8784 87.0971 74.6843 87.0166 74.5412 86.8735C74.398 86.7304 74.3176 86.5363 74.3176 86.3339C74.3176 86.131 74.3979 85.9363 74.5408 85.7923C74.6838 85.6484 74.8779 85.5668 75.0808 85.5654H82.5336C82.7329 85.5681 82.9234 85.6481 83.0648 85.7885C83.2062 85.929 83.2875 86.1188 83.2916 86.3181C83.2937 86.4201 83.2753 86.5214 83.2376 86.6162C83.1999 86.711 83.1435 86.7972 83.0719 86.8699C83.0002 86.9425 82.9147 87 82.8205 87.039C82.7262 87.078 82.6251 87.0978 82.5231 87.0971Z" fill="#E0E0E0"/>
<path d="M102.55 83.6342H95.4867C95.2843 83.6342 95.0902 83.5538 94.9471 83.4106C94.8039 83.2675 94.7235 83.0734 94.7235 82.871C94.7228 82.7703 94.7421 82.6705 94.7801 82.5773C94.8181 82.4841 94.8743 82.3994 94.9452 82.3279C95.0161 82.2565 95.1005 82.1998 95.1934 82.1611C95.2864 82.1225 95.386 82.1025 95.4867 82.1025H102.55C102.651 82.1025 102.75 82.1225 102.843 82.1611C102.936 82.1998 103.021 82.2565 103.092 82.3279C103.163 82.3994 103.219 82.4841 103.257 82.5773C103.295 82.6705 103.314 82.7703 103.313 82.871C103.313 83.0734 103.233 83.2675 103.09 83.4106C102.947 83.5538 102.752 83.6342 102.55 83.6342Z" fill="#263238"/>
<path d="M102.55 87.6444H95.4867C95.386 87.6444 95.2864 87.6245 95.1934 87.5858C95.1005 87.5472 95.0161 87.4905 94.9452 87.419C94.8743 87.3476 94.8181 87.2628 94.7801 87.1696C94.7421 87.0764 94.7228 86.9766 94.7235 86.876C94.7235 86.6736 94.8039 86.4795 94.9471 86.3363C95.0902 86.1932 95.2843 86.1128 95.4867 86.1128H102.55C102.752 86.1128 102.947 86.1932 103.09 86.3363C103.233 86.4795 103.313 86.6736 103.313 86.876C103.314 86.9766 103.295 87.0764 103.257 87.1696C103.219 87.2628 103.163 87.3476 103.092 87.419C103.021 87.4905 102.936 87.5472 102.843 87.5858C102.75 87.6245 102.651 87.6444 102.55 87.6444Z" fill="#E0E0E0"/>
<path d="M102.55 91.7868H95.4867C95.2843 91.7868 95.0902 91.7063 94.9471 91.5632C94.8039 91.4201 94.7235 91.226 94.7235 91.0236C94.7228 90.9229 94.7421 90.8231 94.7801 90.7299C94.8181 90.6367 94.8743 90.5519 94.9452 90.4805C95.0161 90.4091 95.1005 90.3524 95.1934 90.3137C95.2864 90.275 95.386 90.2551 95.4867 90.2551H102.55C102.651 90.2551 102.75 90.275 102.843 90.3137C102.936 90.3524 103.021 90.4091 103.092 90.4805C103.163 90.5519 103.219 90.6367 103.257 90.7299C103.295 90.8231 103.314 90.9229 103.313 91.0236C103.313 91.226 103.233 91.4201 103.09 91.5632C102.947 91.7063 102.752 91.7868 102.55 91.7868Z" fill="#2059EE"/>
<path d="M99.5395 99.7977H95.4867C95.386 99.7977 95.2864 99.7778 95.1934 99.7391C95.1005 99.7005 95.0161 99.6438 94.9452 99.5723C94.8743 99.5009 94.8181 99.4162 94.7801 99.323C94.7421 99.2298 94.7228 99.1299 94.7235 99.0293C94.7235 98.8269 94.8039 98.6328 94.9471 98.4896C95.0902 98.3465 95.2843 98.2661 95.4867 98.2661H99.5395C99.7419 98.2661 99.936 98.3465 100.079 98.4896C100.222 98.6328 100.303 98.8269 100.303 99.0293C100.303 99.1299 100.284 99.2298 100.246 99.323C100.208 99.4162 100.152 99.5009 100.081 99.5723C100.01 99.6438 99.9257 99.7005 99.8327 99.7391C99.7398 99.7778 99.6401 99.7977 99.5395 99.7977Z" fill="#263238"/>
<path d="M99.5395 103.95H95.4867C95.386 103.95 95.2864 103.93 95.1934 103.892C95.1005 103.853 95.0161 103.796 94.9452 103.725C94.8743 103.654 94.8181 103.569 94.7801 103.476C94.7421 103.382 94.7228 103.283 94.7235 103.182C94.7235 102.979 94.8039 102.785 94.9471 102.642C95.0902 102.499 95.2843 102.419 95.4867 102.419H99.5395C99.7419 102.419 99.936 102.499 100.079 102.642C100.222 102.785 100.303 102.979 100.303 103.182C100.303 103.283 100.284 103.382 100.246 103.476C100.208 103.569 100.152 103.654 100.081 103.725C100.01 103.796 99.9257 103.853 99.8327 103.892C99.7398 103.93 99.6401 103.95 99.5395 103.95Z" fill="#263238"/>
<path d="M111.566 103.95H104.145C103.941 103.95 103.746 103.869 103.601 103.725C103.457 103.581 103.376 103.386 103.376 103.182C103.378 102.979 103.459 102.785 103.603 102.642C103.747 102.499 103.942 102.419 104.145 102.419H111.566C111.667 102.418 111.767 102.437 111.86 102.475C111.953 102.513 112.038 102.569 112.109 102.64C112.181 102.711 112.237 102.796 112.276 102.889C112.315 102.982 112.334 103.081 112.334 103.182C112.334 103.386 112.254 103.581 112.109 103.725C111.965 103.869 111.77 103.95 111.566 103.95Z" fill="#E0E0E0"/>
<path d="M107.371 107.64H99.9448C99.7424 107.64 99.5483 107.56 99.4052 107.416C99.262 107.273 99.1816 107.079 99.1816 106.877C99.1816 106.674 99.2619 106.479 99.4049 106.335C99.5478 106.191 99.7419 106.11 99.9448 106.108H107.371C107.574 106.11 107.768 106.191 107.911 106.335C108.054 106.479 108.135 106.674 108.135 106.877C108.135 107.079 108.054 107.273 107.911 107.416C107.768 107.56 107.574 107.64 107.371 107.64Z" fill="#2059EE"/>
<path d="M109.013 110.324H103.913C103.626 110.324 103.392 110.558 103.392 110.845V111.335C103.392 111.623 103.626 111.856 103.913 111.856H109.013C109.301 111.856 109.534 111.623 109.534 111.335V110.845C109.534 110.558 109.301 110.324 109.013 110.324Z" fill="#2059EE"/>
<path d="M108.766 120.109H104.155C104.054 120.109 103.954 120.089 103.861 120.05C103.768 120.012 103.683 119.955 103.612 119.884C103.541 119.812 103.484 119.728 103.445 119.634C103.407 119.541 103.387 119.441 103.387 119.34C103.387 119.24 103.407 119.14 103.445 119.047C103.484 118.954 103.541 118.87 103.612 118.799C103.684 118.728 103.768 118.672 103.862 118.634C103.955 118.596 104.055 118.576 104.155 118.577H108.766C108.968 118.577 109.162 118.658 109.306 118.801C109.449 118.944 109.529 119.138 109.529 119.34C109.53 119.441 109.511 119.541 109.473 119.634C109.435 119.727 109.378 119.812 109.307 119.883C109.237 119.955 109.152 120.012 109.059 120.05C108.966 120.089 108.867 120.109 108.766 120.109Z" fill="#2059EE"/>
<path d="M108.766 128.825H104.155C104.055 128.826 103.955 128.806 103.862 128.768C103.768 128.73 103.684 128.674 103.612 128.603C103.541 128.532 103.484 128.448 103.445 128.355C103.407 128.262 103.387 128.162 103.387 128.062C103.387 127.961 103.407 127.861 103.445 127.768C103.484 127.674 103.541 127.59 103.612 127.518C103.683 127.447 103.768 127.39 103.861 127.352C103.954 127.313 104.054 127.293 104.155 127.293H108.766C108.867 127.293 108.966 127.313 109.059 127.352C109.152 127.39 109.237 127.447 109.307 127.519C109.378 127.59 109.435 127.675 109.473 127.768C109.511 127.861 109.53 127.961 109.529 128.062C109.529 128.264 109.449 128.458 109.306 128.601C109.162 128.744 108.968 128.825 108.766 128.825Z" fill="#2059EE"/>
<path d="M120.109 128.825H112.024C111.924 128.826 111.824 128.806 111.731 128.768C111.637 128.73 111.553 128.674 111.481 128.603C111.41 128.532 111.353 128.448 111.314 128.355C111.276 128.262 111.256 128.162 111.256 128.062C111.256 127.858 111.337 127.662 111.481 127.518C111.625 127.374 111.821 127.293 112.024 127.293H120.109C120.209 127.293 120.309 127.313 120.402 127.352C120.495 127.39 120.579 127.447 120.65 127.519C120.721 127.59 120.777 127.675 120.815 127.768C120.853 127.861 120.873 127.961 120.872 128.062C120.872 128.264 120.792 128.458 120.648 128.601C120.505 128.744 120.311 128.825 120.109 128.825Z" fill="#455A64"/>
<path d="M125.766 128.825H124.603C124.503 128.826 124.403 128.806 124.31 128.768C124.216 128.73 124.132 128.674 124.06 128.603C123.989 128.532 123.932 128.448 123.893 128.355C123.855 128.262 123.835 128.162 123.835 128.062C123.835 127.961 123.855 127.861 123.893 127.768C123.932 127.674 123.989 127.59 124.06 127.518C124.131 127.447 124.216 127.39 124.309 127.352C124.402 127.313 124.502 127.293 124.603 127.293H125.766C125.97 127.293 126.166 127.374 126.31 127.518C126.454 127.662 126.535 127.858 126.535 128.062C126.534 128.265 126.452 128.459 126.308 128.602C126.164 128.745 125.969 128.825 125.766 128.825Z" fill="#E0E0E0"/>
<path d="M119.624 120.109H112.782C112.578 120.109 112.383 120.028 112.239 119.884C112.094 119.74 112.013 119.544 112.013 119.34C112.013 119.24 112.033 119.14 112.072 119.047C112.111 118.954 112.167 118.87 112.239 118.799C112.31 118.728 112.395 118.672 112.488 118.634C112.581 118.596 112.681 118.576 112.782 118.577H119.624C119.827 118.577 120.021 118.658 120.164 118.801C120.307 118.944 120.387 119.138 120.387 119.34C120.388 119.441 120.369 119.541 120.331 119.634C120.293 119.727 120.237 119.812 120.166 119.883C120.095 119.955 120.01 120.012 119.917 120.05C119.825 120.089 119.725 120.109 119.624 120.109Z" fill="#E0E0E0"/>
<path d="M134.609 123.935H112.793C112.589 123.935 112.393 123.854 112.249 123.71C112.105 123.566 112.024 123.371 112.024 123.167C112.024 123.066 112.044 122.966 112.083 122.873C112.122 122.781 112.178 122.696 112.25 122.625C112.321 122.554 112.406 122.498 112.499 122.46C112.592 122.422 112.692 122.403 112.793 122.404H134.609C134.812 122.404 135.006 122.484 135.149 122.627C135.292 122.77 135.372 122.964 135.372 123.167C135.373 123.267 135.354 123.367 135.316 123.46C135.278 123.554 135.222 123.638 135.151 123.71C135.08 123.781 134.995 123.838 134.902 123.877C134.809 123.915 134.71 123.935 134.609 123.935Z" fill="#E0E0E0"/>
<path d="M137.125 120.109H123.198C122.994 120.109 122.799 120.028 122.655 119.884C122.511 119.74 122.43 119.544 122.43 119.34C122.431 119.137 122.513 118.943 122.656 118.8C122.8 118.657 122.995 118.577 123.198 118.577H137.125C137.225 118.576 137.325 118.596 137.418 118.634C137.512 118.672 137.596 118.728 137.668 118.799C137.739 118.87 137.796 118.954 137.835 119.047C137.873 119.14 137.893 119.24 137.893 119.34C137.893 119.544 137.812 119.74 137.668 119.884C137.524 120.028 137.329 120.109 137.125 120.109Z" fill="#455A64"/>
<path d="M118.319 110.324H112.061C111.773 110.324 111.54 110.558 111.54 110.845V111.335C111.54 111.623 111.773 111.856 112.061 111.856H118.319C118.606 111.856 118.84 111.623 118.84 111.335V110.845C118.84 110.558 118.606 110.324 118.319 110.324Z" fill="#455A64"/>
<path d="M123.314 110.324H121.393C121.105 110.324 120.872 110.558 120.872 110.845V111.335C120.872 111.623 121.105 111.856 121.393 111.856H123.314C123.602 111.856 123.835 111.623 123.835 111.335V110.845C123.835 110.558 123.602 110.324 123.314 110.324Z" fill="#E0E0E0"/>
<path d="M134.319 110.324H126.614C126.326 110.324 126.093 110.558 126.093 110.845V111.335C126.093 111.623 126.326 111.856 126.614 111.856H134.319C134.607 111.856 134.84 111.623 134.84 111.335V110.845C134.84 110.558 134.607 110.324 134.319 110.324Z" fill="#E0E0E0"/>
<path d="M112.398 107.64H110.745C110.644 107.641 110.545 107.621 110.451 107.583C110.358 107.545 110.273 107.489 110.202 107.418C110.131 107.347 110.074 107.263 110.035 107.17C109.996 107.077 109.977 106.978 109.977 106.877C109.977 106.673 110.058 106.478 110.202 106.333C110.346 106.189 110.541 106.108 110.745 106.108H112.398C112.601 106.11 112.795 106.191 112.938 106.335C113.081 106.479 113.161 106.674 113.161 106.877C113.161 107.079 113.08 107.273 112.937 107.416C112.794 107.56 112.6 107.64 112.398 107.64Z" fill="#263238"/>
<path d="M126.409 107.64H115.882C115.68 107.64 115.486 107.56 115.343 107.416C115.199 107.273 115.119 107.079 115.119 106.877C115.119 106.674 115.199 106.479 115.342 106.335C115.485 106.191 115.679 106.11 115.882 106.108H126.409C126.612 106.11 126.807 106.191 126.951 106.335C127.094 106.479 127.176 106.673 127.177 106.877C127.176 107.08 127.094 107.274 126.95 107.417C126.806 107.56 126.612 107.64 126.409 107.64Z" fill="#E0E0E0"/>
<path d="M113.856 83.6342H106.798C106.595 83.6342 106.401 83.5538 106.258 83.4106C106.115 83.2675 106.034 83.0734 106.034 82.871C106.034 82.7703 106.053 82.6705 106.091 82.5773C106.129 82.4841 106.185 82.3994 106.256 82.3279C106.327 82.2565 106.411 82.1998 106.504 82.1611C106.597 82.1225 106.697 82.1025 106.798 82.1025H113.856C114.06 82.1025 114.255 82.1835 114.399 82.3276C114.543 82.4717 114.624 82.6672 114.624 82.871C114.624 82.9717 114.604 83.0713 114.566 83.1643C114.527 83.2572 114.47 83.3416 114.399 83.4125C114.327 83.4834 114.243 83.5395 114.149 83.5776C114.056 83.6156 113.956 83.6349 113.856 83.6342Z" fill="#455A64"/>
<path d="M122.977 87.6444H106.798C106.697 87.6444 106.597 87.6245 106.504 87.5859C106.411 87.5472 106.327 87.4905 106.256 87.419C106.185 87.3476 106.129 87.2629 106.091 87.1697C106.053 87.0765 106.034 86.9767 106.034 86.876C106.034 86.6736 106.115 86.4795 106.258 86.3364C106.401 86.1932 106.595 86.1128 106.798 86.1128H122.977C123.078 86.1121 123.178 86.1314 123.271 86.1694C123.364 86.2074 123.449 86.2636 123.52 86.3345C123.592 86.4054 123.648 86.4898 123.687 86.5827C123.726 86.6757 123.745 86.7753 123.745 86.876C123.745 87.0798 123.665 87.2753 123.52 87.4194C123.376 87.5635 123.181 87.6444 122.977 87.6444Z" fill="#263238"/>
<path d="M140.346 91.7868H106.798C106.595 91.7868 106.401 91.7063 106.258 91.5632C106.115 91.4201 106.034 91.226 106.034 91.0236C106.034 90.9229 106.053 90.8231 106.091 90.7299C106.129 90.6367 106.185 90.5519 106.256 90.4805C106.327 90.4091 106.411 90.3524 106.504 90.3137C106.597 90.275 106.697 90.2551 106.798 90.2551H140.346C140.447 90.2551 140.546 90.275 140.639 90.3137C140.732 90.3524 140.817 90.4091 140.887 90.4805C140.958 90.5519 141.014 90.6367 141.053 90.7299C141.091 90.8231 141.11 90.9229 141.109 91.0236C141.109 91.226 141.029 91.4201 140.886 91.5632C140.742 91.7063 140.548 91.7868 140.346 91.7868Z" fill="#E0E0E0"/>
<path d="M122.614 94.7079H106.798C106.595 94.7065 106.401 94.6249 106.258 94.481C106.115 94.337 106.034 94.1424 106.034 93.9395C106.034 93.7371 106.115 93.5429 106.258 93.3998C106.401 93.2567 106.595 93.1763 106.798 93.1763H122.614C122.715 93.1756 122.814 93.1948 122.908 93.2329C123.001 93.2709 123.085 93.327 123.157 93.3979C123.228 93.4689 123.285 93.5533 123.324 93.6462C123.362 93.7391 123.382 93.8388 123.382 93.9395C123.382 94.1433 123.301 94.3387 123.157 94.4828C123.013 94.627 122.818 94.7079 122.614 94.7079Z" fill="#E0E0E0"/>
<path d="M119.382 99.7977H103.561C103.46 99.7977 103.36 99.7778 103.268 99.7391C103.175 99.7005 103.09 99.6438 103.019 99.5723C102.948 99.5009 102.892 99.4162 102.854 99.323C102.816 99.2298 102.797 99.1299 102.798 99.0293C102.798 98.8269 102.878 98.6328 103.021 98.4896C103.164 98.3465 103.358 98.2661 103.561 98.2661H119.382C119.585 98.2661 119.779 98.3465 119.922 98.4896C120.065 98.6328 120.145 98.8269 120.145 99.0293C120.146 99.1299 120.127 99.2298 120.089 99.323C120.051 99.4162 119.995 99.5009 119.924 99.5723C119.853 99.6438 119.769 99.7005 119.676 99.7391C119.583 99.7778 119.483 99.7977 119.382 99.7977Z" fill="#455A64"/>
<path d="M128.24 99.7977H122.935C122.731 99.7977 122.536 99.7168 122.391 99.5727C122.247 99.4286 122.166 99.2331 122.166 99.0293C122.166 98.9286 122.186 98.829 122.225 98.736C122.264 98.6431 122.32 98.5587 122.392 98.4878C122.463 98.4169 122.548 98.3607 122.641 98.3227C122.734 98.2847 122.834 98.2654 122.935 98.2661H128.24C128.443 98.2661 128.638 98.3464 128.782 98.4893C128.926 98.6323 129.007 98.8264 129.009 99.0293C129.009 99.2331 128.928 99.4286 128.784 99.5727C128.639 99.7168 128.444 99.7977 128.24 99.7977Z" fill="#2059EE"/>
<path d="M141.793 99.7711H131.793C131.692 99.7718 131.593 99.7526 131.499 99.7146C131.406 99.6765 131.321 99.6204 131.25 99.5495C131.179 99.4785 131.122 99.3942 131.083 99.3012C131.045 99.2083 131.025 99.1086 131.025 99.0079C131.025 98.8041 131.106 98.6087 131.25 98.4646C131.394 98.3205 131.589 98.2395 131.793 98.2395H141.793C141.894 98.2395 141.994 98.2594 142.087 98.2981C142.18 98.3368 142.264 98.3935 142.335 98.4649C142.406 98.5363 142.462 98.6211 142.5 98.7143C142.538 98.8075 142.557 98.9073 142.557 99.0079C142.557 99.2103 142.476 99.4045 142.333 99.5476C142.19 99.6907 141.996 99.7711 141.793 99.7711Z" fill="#263238"/>
<path d="M155.42 99.7711H145.42C145.218 99.7711 145.023 99.6907 144.88 99.5476C144.737 99.4045 144.657 99.2103 144.657 99.0079C144.656 98.9073 144.675 98.8075 144.713 98.7143C144.751 98.6211 144.807 98.5363 144.878 98.4649C144.949 98.3935 145.034 98.3368 145.127 98.2981C145.22 98.2594 145.319 98.2395 145.42 98.2395H155.42C155.624 98.2395 155.819 98.3205 155.964 98.4646C156.108 98.6087 156.189 98.8041 156.189 99.0079C156.189 99.1086 156.169 99.2083 156.13 99.3012C156.091 99.3942 156.035 99.4785 155.963 99.5495C155.892 99.6204 155.807 99.6765 155.714 99.7146C155.621 99.7526 155.521 99.7718 155.42 99.7711Z" fill="#E0E0E0"/>
<path d="M79.2915 98.7028H75.0808C74.8779 98.7014 74.6838 98.6198 74.5408 98.4758C74.3979 98.3319 74.3176 98.1372 74.3176 97.9343C74.3176 97.7319 74.398 97.5378 74.5412 97.3947C74.6843 97.2516 74.8784 97.1711 75.0808 97.1711H79.2915C79.4939 97.1711 79.688 97.2516 79.8311 97.3947C79.9742 97.5378 80.0546 97.7319 80.0546 97.9343C80.0546 98.1372 79.9744 98.3319 79.8314 98.4758C79.6885 98.6198 79.4943 98.7014 79.2915 98.7028Z" fill="#E0E0E0"/>
<path d="M78.0335 111.093H75.0808C74.9802 111.093 74.8805 111.073 74.7875 111.034C74.6946 110.995 74.6102 110.939 74.5393 110.867C74.4684 110.796 74.4123 110.711 74.3742 110.618C74.3362 110.525 74.317 110.425 74.3176 110.324C74.3176 110.122 74.3981 109.928 74.5412 109.785C74.6843 109.641 74.8784 109.561 75.0808 109.561H78.0441C78.2465 109.561 78.4406 109.641 78.5837 109.785C78.7268 109.928 78.8072 110.122 78.8072 110.324C78.808 110.426 78.7884 110.526 78.7497 110.62C78.711 110.714 78.6539 110.799 78.5819 110.871C78.5098 110.943 78.4242 110.999 78.3301 111.037C78.2359 111.075 78.1351 111.094 78.0335 111.093Z" fill="#E0E0E0"/>
<path d="M83.2916 102.829H75.0808C74.8784 102.829 74.6843 102.749 74.5412 102.606C74.3981 102.463 74.3176 102.268 74.3176 102.066C74.317 101.965 74.3362 101.866 74.3742 101.772C74.4123 101.679 74.4684 101.594 74.5393 101.523C74.6102 101.452 74.6946 101.395 74.7875 101.356C74.8805 101.318 74.9802 101.298 75.0808 101.298H83.2916C83.3923 101.298 83.4919 101.318 83.5849 101.356C83.6778 101.395 83.7622 101.452 83.8331 101.523C83.904 101.594 83.9601 101.679 83.9982 101.772C84.0362 101.866 84.0555 101.965 84.0548 102.066C84.0548 102.268 83.9744 102.463 83.8312 102.606C83.6881 102.749 83.494 102.829 83.2916 102.829Z" fill="#E0E0E0"/>
<path d="M81.8494 106.961H75.0808C74.8784 106.961 74.6843 106.881 74.5412 106.738C74.3981 106.594 74.3176 106.4 74.3176 106.198C74.317 106.097 74.3362 105.997 74.3742 105.904C74.4123 105.811 74.4684 105.726 74.5393 105.655C74.6102 105.583 74.6946 105.527 74.7875 105.488C74.8805 105.449 74.9802 105.429 75.0808 105.429H81.86C81.9606 105.429 82.0603 105.449 82.1532 105.488C82.2462 105.527 82.3305 105.583 82.4015 105.655C82.4724 105.726 82.5285 105.811 82.5666 105.904C82.6046 105.997 82.6238 106.097 82.6231 106.198C82.6232 106.299 82.6031 106.399 82.5641 106.492C82.525 106.586 82.4679 106.67 82.3959 106.741C82.3239 106.812 82.2385 106.868 82.1447 106.906C82.0509 106.944 81.9505 106.962 81.8494 106.961Z" fill="#E0E0E0"/>
<path d="M92.0289 82.8708C92.0289 83.0248 91.9832 83.1754 91.8976 83.3035C91.812 83.4316 91.6904 83.5315 91.548 83.5904C91.4057 83.6494 91.2491 83.6648 91.0979 83.6348C90.9468 83.6047 90.808 83.5305 90.6991 83.4216C90.5902 83.3126 90.516 83.1738 90.4859 83.0227C90.4559 82.8716 90.4713 82.715 90.5302 82.5727C90.5892 82.4303 90.689 82.3087 90.8171 82.2231C90.9452 82.1375 91.0959 82.0918 91.2499 82.0918C91.4565 82.0918 91.6547 82.1739 91.8007 82.3199C91.9468 82.466 92.0289 82.6642 92.0289 82.8708Z" fill="#455A64"/>
<path d="M91.2499 79.5601C91.6801 79.5601 92.0289 79.2114 92.0289 78.7812C92.0289 78.351 91.6801 78.0022 91.2499 78.0022C90.8197 78.0022 90.4709 78.351 90.4709 78.7812C90.4709 79.2114 90.8197 79.5601 91.2499 79.5601Z" fill="#455A64"/>
<path d="M91.2499 87.6446C91.6801 87.6446 92.0289 87.2959 92.0289 86.8656C92.0289 86.4354 91.6801 86.0867 91.2499 86.0867C90.8197 86.0867 90.4709 86.4354 90.4709 86.8656C90.4709 87.2959 90.8197 87.6446 91.2499 87.6446Z" fill="#455A64"/>
<path d="M91.2499 91.8026C91.6801 91.8026 92.0289 91.4538 92.0289 91.0236C92.0289 90.5934 91.6801 90.2446 91.2499 90.2446C90.8197 90.2446 90.4709 90.5934 90.4709 91.0236C90.4709 91.4538 90.8197 91.8026 91.2499 91.8026Z" fill="#455A64"/>
<path d="M91.2499 95.9554C91.6801 95.9554 92.0289 95.6066 92.0289 95.1764C92.0289 94.7462 91.6801 94.3975 91.2499 94.3975C90.8197 94.3975 90.4709 94.7462 90.4709 95.1764C90.4709 95.6066 90.8197 95.9554 91.2499 95.9554Z" fill="#455A64"/>
<path d="M92.0289 99.3291C92.0299 99.4834 91.9851 99.6345 91.9002 99.7633C91.8152 99.8921 91.6939 99.9928 91.5517 100.053C91.4094 100.112 91.2526 100.128 91.1012 100.099C90.9497 100.07 90.8104 99.9958 90.701 99.8871C90.5915 99.7783 90.5168 99.6396 90.4863 99.4883C90.4558 99.3371 90.4709 99.1802 90.5297 99.0375C90.5885 98.8949 90.6884 98.7729 90.8166 98.6871C90.9448 98.6012 91.0956 98.5554 91.2499 98.5554C91.4556 98.5554 91.6529 98.6368 91.7989 98.7817C91.9448 98.9267 92.0275 99.1234 92.0289 99.3291Z" fill="#455A64"/>
<path d="M91.2499 104.266C91.6801 104.266 92.0289 103.917 92.0289 103.487C92.0289 103.057 91.6801 102.708 91.2499 102.708C90.8197 102.708 90.4709 103.057 90.4709 103.487C90.4709 103.917 90.8197 104.266 91.2499 104.266Z" fill="#455A64"/>
<path d="M91.2499 108.419C91.6801 108.419 92.0289 108.07 92.0289 107.64C92.0289 107.21 91.6801 106.861 91.2499 106.861C90.8197 106.861 90.4709 107.21 90.4709 107.64C90.4709 108.07 90.8197 108.419 91.2499 108.419Z" fill="#455A64"/>
<path d="M92.0289 111.798C92.0289 111.952 91.9832 112.103 91.8976 112.231C91.812 112.359 91.6904 112.459 91.548 112.518C91.4057 112.577 91.2491 112.592 91.0979 112.562C90.9468 112.532 90.808 112.458 90.6991 112.349C90.5902 112.24 90.516 112.101 90.4859 111.95C90.4559 111.799 90.4713 111.642 90.5302 111.5C90.5892 111.358 90.689 111.236 90.8171 111.15C90.9452 111.065 91.0959 111.019 91.2499 111.019C91.4565 111.019 91.6547 111.101 91.8007 111.247C91.9468 111.393 92.0289 111.591 92.0289 111.798Z" fill="#455A64"/>
<path d="M92.0289 115.951C92.0289 116.105 91.9832 116.255 91.8976 116.383C91.812 116.511 91.6904 116.611 91.548 116.67C91.4057 116.729 91.2491 116.745 91.0979 116.715C90.9468 116.685 90.808 116.61 90.6991 116.501C90.5902 116.392 90.516 116.254 90.4859 116.103C90.4559 115.951 90.4713 115.795 90.5302 115.653C90.5892 115.51 90.689 115.389 90.8171 115.303C90.9452 115.217 91.0959 115.172 91.2499 115.172C91.4565 115.172 91.6547 115.254 91.8007 115.4C91.9468 115.546 92.0289 115.744 92.0289 115.951Z" fill="#455A64"/>
<path d="M91.2499 120.888C91.6801 120.888 92.0289 120.539 92.0289 120.109C92.0289 119.679 91.6801 119.33 91.2499 119.33C90.8197 119.33 90.4709 119.679 90.4709 120.109C90.4709 120.539 90.8197 120.888 91.2499 120.888Z" fill="#455A64"/>
<path d="M92.0289 124.261C92.0289 124.415 91.9832 124.566 91.8976 124.694C91.812 124.822 91.6904 124.922 91.548 124.981C91.4057 125.04 91.2491 125.055 91.0979 125.025C90.9468 124.995 90.808 124.921 90.6991 124.812C90.5902 124.703 90.516 124.564 90.4859 124.413C90.4559 124.262 90.4713 124.106 90.5302 123.963C90.5892 123.821 90.689 123.699 90.8171 123.614C90.9452 123.528 91.0959 123.482 91.2499 123.482C91.4565 123.482 91.6547 123.565 91.8007 123.711C91.9468 123.857 92.0289 124.055 92.0289 124.261Z" fill="#455A64"/>
<path d="M91.2499 129.198C91.6801 129.198 92.0289 128.85 92.0289 128.419C92.0289 127.989 91.6801 127.64 91.2499 127.64C90.8197 127.64 90.4709 127.989 90.4709 128.419C90.4709 128.85 90.8197 129.198 91.2499 129.198Z" fill="#455A64"/>
<path d="M73.9071 66.481H163.968C164.502 66.481 165.015 66.6933 165.393 67.0714C165.771 67.4494 165.983 67.9622 165.983 68.4968V74.7391H71.0597V69.3232C71.0597 68.9495 71.1334 68.5794 71.2765 68.2343C71.4197 67.8891 71.6295 67.5755 71.894 67.3116C72.1585 67.0476 72.4724 66.8383 72.8179 66.6958C73.1633 66.5533 73.5335 66.4803 73.9071 66.481Z" fill="#E0E0E0"/>
<path d="M75.965 71.981C76.59 71.981 77.0966 71.4744 77.0966 70.8494C77.0966 70.2244 76.59 69.7178 75.965 69.7178C75.34 69.7178 74.8334 70.2244 74.8334 70.8494C74.8334 71.4744 75.34 71.981 75.965 71.981Z" fill="white"/>
<path d="M80.5758 70.8494C80.5758 71.0732 80.5095 71.292 80.3851 71.4781C80.2608 71.6642 80.0841 71.8092 79.8773 71.8949C79.6705 71.9805 79.443 72.0029 79.2235 71.9593C79.004 71.9156 78.8023 71.8078 78.6441 71.6496C78.4858 71.4913 78.378 71.2897 78.3344 71.0702C78.2907 70.8507 78.3131 70.6231 78.3988 70.4163C78.4844 70.2096 78.6295 70.0328 78.8155 69.9085C79.0016 69.7842 79.2204 69.7178 79.4442 69.7178C79.593 69.7171 79.7405 69.7459 79.8781 69.8025C80.0157 69.8591 80.1407 69.9424 80.246 70.0477C80.3512 70.1529 80.4345 70.2779 80.4911 70.4155C80.5477 70.5531 80.5765 70.7006 80.5758 70.8494Z" fill="white"/>
<path d="M84.0549 70.8494C84.0549 71.0732 83.9885 71.292 83.8641 71.4781C83.7398 71.6642 83.5631 71.8092 83.3563 71.8949C83.1495 71.9805 82.922 72.0029 82.7025 71.9593C82.483 71.9156 82.2813 71.8078 82.1231 71.6496C81.9648 71.4913 81.857 71.2897 81.8134 71.0702C81.7697 70.8507 81.7921 70.6231 81.8778 70.4163C81.9634 70.2096 82.1085 70.0328 82.2945 69.9085C82.4806 69.7842 82.6994 69.7178 82.9232 69.7178C83.072 69.7171 83.2195 69.7459 83.3571 69.8025C83.4947 69.8591 83.6197 69.9424 83.725 70.0477C83.8302 70.1529 83.9135 70.2779 83.9701 70.4155C84.0268 70.5531 84.0555 70.7006 84.0549 70.8494Z" fill="white"/>
<path d="M91.2499 134.151L99.2764 142.83L106.556 134.151H91.2499Z" fill="white"/>
<path d="M163.41 135.098C163.692 135.082 163.972 135.029 164.241 134.94C164.632 134.803 164.984 134.572 165.266 134.269C165.549 133.966 165.753 133.598 165.862 133.198C165.939 132.921 165.969 132.633 165.952 132.346V131.377C165.952 130.698 165.952 129.956 165.952 129.156C165.952 127.551 165.952 125.698 165.952 123.614C165.952 115.271 165.925 103.208 165.91 88.2971C165.91 84.5706 165.91 80.6705 165.91 76.5967C165.91 74.5581 165.91 72.4826 165.91 70.3702C165.91 69.8439 165.91 69.3176 165.91 68.7912C165.853 68.2757 165.636 67.7912 165.288 67.4065C164.94 67.0219 164.48 66.7568 163.973 66.6491C163.438 66.5915 162.9 66.5739 162.362 66.5964H134.372H103.439H74.4913C74.1439 66.5964 73.7702 66.5964 73.4386 66.5964C73.1036 66.6287 72.779 66.7309 72.486 66.8965C72.1917 67.0641 71.9355 67.291 71.7334 67.5628C71.5314 67.8346 71.388 68.1454 71.3122 68.4754C71.2411 68.9562 71.2182 69.4428 71.2438 69.9281V91.8129C71.2438 99.4447 71.2438 106.891 71.2438 114.15V124.851C71.2438 126.605 71.2438 128.347 71.2438 130.077C71.2438 130.935 71.2438 131.804 71.2438 132.646C71.2677 133.051 71.3924 133.443 71.6066 133.788C71.8207 134.133 72.1176 134.419 72.4702 134.619C72.8212 134.822 73.2177 134.932 73.6228 134.94H91.9233L91.9602 134.977L99.3288 142.714H99.1656L105.608 135.03L105.64 134.993H105.687L147.883 135.035L159.404 135.067L147.883 135.098L105.687 135.14L105.766 135.104L99.292 142.899L99.213 142.993L99.1288 142.904L91.7602 135.177L91.8444 135.214H73.5807C73.1374 135.2 72.7039 135.079 72.3175 134.862C71.9281 134.64 71.6001 134.324 71.363 133.944C71.1259 133.563 70.9873 133.13 70.9596 132.683C70.9596 131.809 70.9596 130.961 70.9596 130.098V124.872C70.9596 121.363 70.9596 117.796 70.9596 114.171V91.8393C70.9596 88.0251 70.9596 84.1654 70.9596 80.26V69.207C70.9533 68.9489 70.978 68.6909 71.0333 68.4386C71.1204 68.0745 71.2812 67.7321 71.5056 67.4324C71.7301 67.1328 72.0136 66.8823 72.3386 66.6964C72.6626 66.5131 73.0209 66.3984 73.3912 66.3596C73.7755 66.3333 74.107 66.3596 74.4439 66.3596H134.319H162.31C162.861 66.3345 163.414 66.3539 163.962 66.4175C164.514 66.536 165.015 66.8257 165.393 67.2453C165.771 67.6648 166.007 68.1929 166.068 68.7544C166.099 69.3123 166.068 69.8071 166.068 70.3334C166.068 72.4387 166.068 74.5142 166.068 76.5599C166.068 80.6302 166.068 84.5303 166.068 88.2602C166.068 103.171 166.031 115.235 166.02 123.577C166.02 125.682 166.02 127.514 166.02 129.119C166.02 129.919 166.02 130.661 166.02 131.34V132.309C166.034 132.602 166 132.895 165.92 133.177C165.79 133.651 165.525 134.078 165.157 134.404C164.898 134.641 164.591 134.82 164.257 134.93C164.054 134.998 163.844 135.041 163.631 135.056L163.41 135.098Z" fill="#263238"/>
<path d="M51.08 115.351C51.08 115.351 48.0747 115.998 47.5536 118.135C47.0325 120.272 51.7643 171.294 51.9274 172.531C52.2274 174.484 53.8748 176.968 57.5802 176.831C60.8171 176.715 104.876 176.831 115.966 176.831C117.445 176.831 118.329 175.579 118.524 174.084L63.9699 170.863L51.08 115.351Z" fill="#E0E0E0"/>
<path d="M49.7116 117.056L54.4486 172.079C54.4923 172.513 54.6938 172.916 55.0148 173.212C55.3359 173.508 55.7543 173.676 56.1908 173.684L118.535 173.963L106.555 162.078L66.0595 161.794L61.7278 118.682C61.697 118.401 61.5789 118.137 61.3901 117.926C61.2013 117.716 60.9512 117.57 60.6751 117.509L51.6012 115.403C51.3631 115.355 51.1172 115.362 50.8824 115.425C50.6476 115.487 50.4304 115.602 50.2476 115.762C50.0648 115.922 49.9213 116.122 49.8283 116.347C49.7354 116.571 49.6955 116.814 49.7116 117.056Z" fill="#E0E0E0"/>
<path d="M49.7115 117.056C49.7021 116.967 49.7021 116.877 49.7115 116.788C49.7235 116.523 49.8072 116.266 49.9536 116.045C50.0714 115.863 50.2257 115.706 50.4068 115.585C50.5879 115.465 50.792 115.383 51.0062 115.345C51.2852 115.309 51.5687 115.332 51.8378 115.414L52.7589 115.624L57.5748 116.73L60.6276 117.435C60.9246 117.491 61.1961 117.641 61.4031 117.861C61.6102 118.081 61.7422 118.361 61.7802 118.661C61.8381 119.251 61.9013 119.856 61.9644 120.477C62.9803 130.477 64.4277 144.688 66.1751 161.784L66.0593 161.673L106.56 161.941H106.613L106.655 161.984L118.629 173.863L118.866 174.1H118.534H115.771L70.0699 173.884L59.8065 173.831H57.3327C56.9222 173.831 56.5222 173.831 56.1011 173.831C55.6657 173.804 55.253 173.627 54.9327 173.331C54.6147 173.038 54.4082 172.644 54.3484 172.215C54.3011 171.81 54.2748 171.421 54.2379 171.021C54.1748 170.231 54.1063 169.442 54.0379 168.668C53.5116 162.447 53.0168 156.647 52.5694 151.357C51.6799 140.772 50.9589 132.209 50.4641 126.288C50.222 123.33 50.0325 121.024 49.9062 119.472C49.8431 118.693 49.8009 118.103 49.7694 117.698C49.7378 117.293 49.7273 117.093 49.7273 117.093C49.7273 117.093 49.7588 117.293 49.7957 117.693C49.8325 118.093 49.8904 118.693 49.9588 119.467C50.101 121.046 50.3062 123.325 50.5694 126.277C51.0957 132.199 51.8431 140.762 52.7695 151.336C53.2274 156.631 53.7326 162.426 54.2695 168.647C54.3362 169.426 54.4046 170.21 54.4748 171C54.5116 171.394 54.5379 171.8 54.58 172.184C54.6428 172.559 54.8278 172.903 55.1064 173.163C55.3966 173.424 55.7687 173.577 56.159 173.594C56.5538 173.594 56.9696 173.594 57.3748 173.594H59.8539L70.1173 173.637L115.813 173.831H118.577L118.477 174.063L106.45 162.173L106.545 162.215L66.0488 161.91H65.9435V161.805C64.2435 144.709 62.8329 130.467 61.8434 120.493C61.7802 119.872 61.7171 119.267 61.6592 118.677C61.626 118.402 61.5062 118.144 61.3169 117.942C61.1276 117.739 60.8788 117.602 60.6065 117.551L57.5538 116.835L52.7484 115.693L51.8273 115.477C51.5677 115.393 51.293 115.366 51.022 115.398C50.8104 115.432 50.6079 115.509 50.4269 115.624C50.2459 115.739 50.0903 115.889 49.9694 116.066C49.8224 116.282 49.7352 116.533 49.7167 116.793C49.7062 116.966 49.722 117.056 49.7115 117.056Z" fill="#263238"/>
<path d="M95.3444 172.531H101.139L93.8128 163.031H90.3759L95.3444 172.531Z" fill="#263238"/>
<path d="M51.8538 119.54L56.2802 167.373L64.5541 160.794L60.9751 120.53C60.9623 120.373 60.8965 120.224 60.7884 120.11C60.6803 119.995 60.5364 119.92 60.3803 119.898L52.6485 118.793C52.5449 118.778 52.4393 118.787 52.3395 118.819C52.2398 118.851 52.1484 118.904 52.0721 118.976C51.9959 119.048 51.9367 119.136 51.8989 119.233C51.8611 119.331 51.8457 119.436 51.8538 119.54Z" fill="#263238"/>
<path d="M60.7119 172.531H66.691L72.7702 163.031H69.328L60.7119 172.531Z" fill="#263238"/>
<path d="M68.0541 172.531H73.849L77.0228 163.031H73.5805L68.0541 172.531Z" fill="#263238"/>
<path d="M75.1439 172.531H80.9388L81.2494 163.031H77.8124L75.1439 172.531Z" fill="#263238"/>
<path d="M81.723 172.531H87.5179L85.3758 163.031H81.9388L81.723 172.531Z" fill="#263238"/>
<path d="M88.5758 172.531H94.3706L89.6495 163.031H86.2125L88.5758 172.531Z" fill="#263238"/>
<path d="M100.871 170.679C100.871 170.726 92.0339 170.763 81.1336 170.763C70.2333 170.763 61.4015 170.726 61.4015 170.679C61.4015 170.631 70.2333 170.6 81.1336 170.6C92.0339 170.6 100.871 170.636 100.871 170.679Z" fill="#E0E0E0"/>
<path d="M99.8183 168.952C99.8183 169 91.4286 169.036 81.0756 169.036C70.7227 169.036 62.333 169 62.333 168.952C62.333 168.905 70.7227 168.873 81.0756 168.873C91.4286 168.873 99.8183 168.894 99.8183 168.952Z" fill="#E0E0E0"/>
<path d="M99.8182 167.373C99.8182 167.463 91.9233 167.536 82.1862 167.536C72.449 167.536 64.5541 167.447 64.5541 167.373C64.5541 167.299 72.449 167.21 82.1914 167.21C91.9338 167.21 99.8182 167.268 99.8182 167.373Z" fill="#E0E0E0"/>
<path d="M100.039 165.915C100.039 166.005 92.3128 166.078 82.7862 166.078C73.2596 166.078 65.5278 166.005 65.5278 165.915C65.5278 165.826 73.2544 165.747 82.7862 165.747C92.3181 165.747 100.039 165.821 100.039 165.915Z" fill="#E0E0E0"/>
<path d="M100.871 164.863C100.871 164.952 93.0917 165.026 83.502 165.026C73.9122 165.026 66.1331 164.952 66.1331 164.863C66.1331 164.773 73.907 164.694 83.502 164.694C93.097 164.694 100.871 164.768 100.871 164.863Z" fill="#E0E0E0"/>
<path d="M101.702 163.757C101.702 163.852 93.7812 163.926 84.0125 163.926C74.2438 163.926 66.3173 163.852 66.3173 163.757C66.3173 163.663 74.2122 163.594 84.0125 163.594C93.8128 163.594 101.702 163.689 101.702 163.757Z" fill="#E0E0E0"/>
<path d="M55.3116 172.079L66.133 161.978L55.3116 172.079Z" fill="#E0E0E0"/>
<path d="M66.1331 161.978C66.1857 162.031 63.8067 164.336 60.8277 167.126C57.8486 169.915 55.3854 172.136 55.3328 172.078C55.2801 172.021 57.6539 169.72 60.6382 166.926C63.6225 164.131 66.0594 161.92 66.1331 161.978Z" fill="#263238"/>
<path d="M244.828 124.34C244.828 124.34 244.302 118.751 230.375 115.177C223.654 113.451 207.606 112.624 205.79 123.072C205.732 123.409 197.8 189.005 197.8 189.005H227.47L244.828 124.34Z" fill="#455A64"/>
<path d="M240.128 188.984H226.443L231.012 124.74C231.349 121.614 234.586 119.356 238.244 119.703L239.47 119.819C243.123 120.167 245.444 123.688 245.339 127.714L240.128 188.984Z" fill="#455A64"/>
<path d="M227.47 186.674C227.391 186.674 228.359 174.005 229.628 158.399C230.896 142.793 231.986 130.14 232.059 130.146C232.133 130.151 231.17 142.809 229.901 158.42C228.633 174.031 227.543 186.679 227.47 186.674Z" fill="#263238"/>
<path d="M242.202 121.303C241.571 121.108 240.927 120.957 240.275 120.851C238.697 120.636 237.093 120.949 235.712 121.741C234.33 122.533 233.25 123.76 232.638 125.23C232.403 125.846 232.21 126.477 232.059 127.119C232.042 126.944 232.051 126.766 232.086 126.593C232.154 126.105 232.279 125.626 232.459 125.167C233.043 123.625 234.145 122.334 235.575 121.514C237.005 120.694 238.676 120.397 240.302 120.672C240.789 120.747 241.266 120.879 241.723 121.067C241.893 121.121 242.055 121.201 242.202 121.303Z" fill="#263238"/>
<path d="M198.985 40.9538C199.127 37.1905 196.574 36.6852 194.611 37.1168C193.392 36.2679 191.925 35.8507 190.442 35.9318C188.959 36.0129 187.545 36.5875 186.426 37.5642C185.528 37.0738 184.518 36.8246 183.494 36.841C182.471 36.8575 181.469 37.139 180.587 37.658C179.704 38.1771 178.972 38.916 178.46 39.8027C177.949 40.6893 177.676 41.6934 177.668 42.717C176.637 42.5911 175.592 42.7931 174.682 43.2943C173.772 43.7954 173.043 44.5703 172.598 45.5091C172.153 46.448 172.015 47.503 172.203 48.5247C172.392 49.5464 172.897 50.4829 173.647 51.2014C172.476 51.5518 171.486 52.3411 170.884 53.4042C170.282 54.4673 170.113 55.722 170.414 56.9063C170.715 58.0906 171.462 59.1127 172.499 59.7592C173.536 60.4057 174.783 60.6264 175.979 60.3754L199.064 45.0013C200.448 43.5433 198.911 42.9644 198.985 40.9538Z" fill="#263238"/>
<path d="M175.31 61.0543C175.538 55.9886 177.666 51.1944 181.268 47.6258C184.871 44.0573 189.685 41.9759 194.753 41.7959L195.806 41.759C207.085 42.0169 213.174 51.7593 212.601 63.0123L212.306 100.561L212.232 107.692L186.442 113.824L186.179 98.9606C186.179 98.9606 175.294 97.6659 174.779 86.855C174.51 81.6338 174.873 70.8335 175.31 61.0543Z" fill="#AE7461"/>
<path d="M186.074 98.9501C191.1 98.7735 195.97 97.1587 200.106 94.2974C200.106 94.2974 197.048 102.192 186.216 101.613L186.074 98.9501Z" fill="#6F4439"/>
<path d="M178.463 71.9811C178.473 72.3837 178.639 72.7666 178.927 73.0478C179.216 73.3291 179.602 73.4865 180.005 73.4864C180.202 73.4949 180.399 73.4638 180.584 73.3949C180.769 73.326 180.939 73.2208 181.083 73.0854C181.226 72.95 181.341 72.7872 181.421 72.6066C181.501 72.426 181.544 72.2312 181.547 72.0338C181.538 71.6312 181.371 71.2483 181.083 70.967C180.795 70.6857 180.408 70.5283 180.005 70.5285C179.808 70.5193 179.61 70.5499 179.425 70.6185C179.24 70.6871 179.07 70.7923 178.926 70.9278C178.782 71.0634 178.667 71.2265 178.587 71.4074C178.508 71.5884 178.466 71.7835 178.463 71.9811Z" fill="#263238"/>
<path d="M177.716 66.8439C177.91 67.0334 179.053 66.1281 180.716 66.0755C182.379 66.0229 183.626 66.8071 183.8 66.6018C183.884 66.5071 183.679 66.1492 183.132 65.786C182.395 65.3106 181.528 65.0769 180.653 65.1176C179.788 65.1432 178.954 65.4458 178.274 65.9808C177.784 66.3755 177.626 66.7439 177.716 66.8439Z" fill="#263238"/>
<path d="M191.826 71.6388C191.837 72.0419 192.005 72.4248 192.294 72.7059C192.583 72.9871 192.971 73.1443 193.374 73.1441C193.571 73.1526 193.768 73.1215 193.953 73.0526C194.138 72.9837 194.308 72.8785 194.451 72.7431C194.595 72.6077 194.71 72.4449 194.79 72.2643C194.87 72.0837 194.913 71.8889 194.916 71.6915C194.906 71.2889 194.74 70.906 194.451 70.6247C194.163 70.3435 193.777 70.186 193.374 70.1862C193.176 70.177 192.979 70.2076 192.793 70.2761C192.607 70.3447 192.437 70.4498 192.293 70.5853C192.149 70.7207 192.033 70.8838 191.953 71.0647C191.873 71.2457 191.83 71.4409 191.826 71.6388Z" fill="#263238"/>
<path d="M193.626 66.0336C193.821 66.2283 194.963 65.323 196.626 65.2651C198.29 65.2072 199.537 66.002 199.711 65.7915C199.795 65.6967 199.59 65.3388 199.042 64.9704C198.304 64.4981 197.439 64.2647 196.563 64.3019C195.699 64.332 194.867 64.6341 194.184 65.1651C193.69 65.5757 193.505 65.9494 193.626 66.0336Z" fill="#263238"/>
<path d="M188.584 78.5548C188.584 78.4601 187.532 78.318 185.868 78.1601C185.442 78.1338 185.037 78.0653 184.953 77.7759C184.902 77.3382 184.986 76.8956 185.195 76.5074C185.546 75.4547 185.924 74.3617 186.332 73.2284C187.91 68.5651 189.042 64.7334 188.853 64.6702C188.663 64.6071 187.232 68.3545 185.653 73.0073L184.558 76.3179C184.31 76.8398 184.252 77.4318 184.395 77.9916C184.461 78.1396 184.56 78.2703 184.686 78.3735C184.811 78.4766 184.958 78.5495 185.116 78.5864C185.354 78.6415 185.598 78.6662 185.842 78.6601C187.537 78.6759 188.584 78.6496 188.584 78.5548Z" fill="#263238"/>
<path d="M193.505 79.5287C193.232 79.5287 193.295 81.3288 191.795 82.6867C190.295 84.0446 188.368 83.892 188.363 84.1446C188.363 84.2604 188.8 84.4815 189.616 84.471C190.674 84.45 191.69 84.0546 192.484 83.3551C193.251 82.6836 193.725 81.7393 193.805 80.7235C193.858 79.9551 193.642 79.5129 193.505 79.5287Z" fill="#263238"/>
<path d="M193.432 61.2859C193.648 61.707 195.063 61.2859 196.806 61.2386C198.548 61.1912 200.011 61.5123 200.174 61.0807C200.243 60.8701 199.937 60.4859 199.316 60.1438C198.506 59.7186 197.598 59.5152 196.685 59.5543C195.79 59.5726 194.916 59.8288 194.153 60.2964C193.6 60.6806 193.337 61.0807 193.432 61.2859Z" fill="#263238"/>
<path d="M177.937 62.2544C178.216 62.6491 179.379 62.307 180.753 62.3544C182.126 62.4017 183.284 62.7281 183.574 62.3544C183.7 62.1702 183.532 61.7807 183.047 61.4017C182.383 60.9411 181.596 60.6882 180.787 60.6751C179.979 60.662 179.184 60.8892 178.505 61.328C177.995 61.6859 177.816 62.0649 177.937 62.2544Z" fill="#263238"/>
<path d="M176.173 56.0648C176.173 56.0648 178.805 49.1856 182 47.4909C185.89 45.4329 187.747 49.7172 191.474 48.5435C195.2 47.3698 198.916 45.3855 202.874 48.1646C207.201 51.2015 205.306 53.5121 205.737 58.3017C207.485 77.7338 211.238 83.1077 211.922 73.9021C211.996 72.8968 214.759 71.9968 215.017 67.7388C215.359 62.2176 215.332 55.5279 213.964 51.6647C212.811 48.4119 210.853 46.2014 207.401 43.8118C201.948 40.0433 194.648 40.217 189.705 40.8959C184.763 41.5749 175.421 47.5961 176.173 56.0648Z" fill="#263238"/>
<path d="M211.227 73.618C211.226 73.2205 211.306 72.827 211.461 72.4612C211.616 72.0954 211.844 71.765 212.131 71.4899C212.418 71.2148 212.758 71.0008 213.13 70.8609C213.502 70.721 213.899 70.658 214.296 70.6758C216.322 70.7969 218.611 71.86 218.622 76.0391C218.654 83.4446 211.211 81.9445 211.195 81.7287C211.18 81.5129 211.211 76.7181 211.227 73.618Z" fill="#AE7461"/>
<path d="M212.796 78.9498C212.832 78.9498 212.927 79.0392 213.148 79.1392C213.458 79.2615 213.802 79.2615 214.111 79.1392C214.89 78.8498 215.548 77.6024 215.575 76.2707C215.594 75.6355 215.469 75.0041 215.211 74.4233C215.14 74.1918 215.014 73.9809 214.843 73.8086C214.673 73.6363 214.463 73.5078 214.233 73.4338C214.084 73.395 213.927 73.4096 213.789 73.475C213.65 73.5405 213.539 73.6526 213.475 73.7917C213.375 73.997 213.422 74.1444 213.385 74.1602C213.348 74.1759 213.227 74.0338 213.285 73.7286C213.324 73.5448 213.426 73.3807 213.575 73.2654C213.674 73.1878 213.789 73.131 213.911 73.0985C214.033 73.0659 214.16 73.0582 214.285 73.0759C214.59 73.1336 214.875 73.2691 215.112 73.4692C215.349 73.6693 215.53 73.9273 215.638 74.218C215.955 74.8583 216.111 75.5668 216.09 76.2813C216.054 77.7708 215.29 79.1708 214.222 79.4866C214.023 79.5443 213.814 79.5567 213.61 79.523C213.406 79.4893 213.213 79.4103 213.043 79.2919C212.811 79.1182 212.775 78.9498 212.796 78.9498Z" fill="#6F4439"/>
<path d="M210.574 59.2912C209.637 59.9807 208.643 60.6912 207.49 60.8702C206.337 61.0491 204.99 60.407 204.753 59.2649C204.648 58.7386 204.753 58.1543 204.4 57.7701C203.979 57.3069 203.237 57.4806 202.621 57.5701C201.543 57.6908 200.457 57.4378 199.543 56.8534C198.629 56.269 197.943 55.3887 197.6 54.3595C197.074 55.2016 195.8 55.2069 194.969 54.7016C194.137 54.1963 193.553 53.3437 192.863 52.6226C192.174 51.9015 191.253 51.2647 190.279 51.4383C189.753 51.5383 189.226 51.8805 188.7 51.8541C187.721 51.8015 187.21 50.6804 187.026 49.7488C186.842 48.8172 186.689 47.6435 185.852 47.1698C185.016 46.6961 184.089 47.0277 183.221 47.1698C182.352 47.3119 181.173 47.1698 180.91 46.3014C180.863 46.0684 180.864 45.8283 180.912 45.5956C180.961 45.363 181.057 45.1428 181.194 44.9487C181.763 44.0318 182.624 43.3338 183.638 42.9678C184.653 42.6019 185.762 42.5896 186.784 42.9328C187.105 41.6885 187.788 40.5671 188.746 39.7106C189.704 38.854 190.894 38.3007 192.167 38.1204C193.439 37.9402 194.736 38.1411 195.895 38.6979C197.053 39.2547 198.02 40.1423 198.674 41.2486C199.435 40.5089 200.362 39.9635 201.379 39.6587C202.395 39.3538 203.47 39.2984 204.512 39.4973C205.554 39.6961 206.533 40.1433 207.366 40.8009C208.198 41.4585 208.86 42.3072 209.295 43.275C210.187 43.0205 211.133 43.0307 212.018 43.3043C212.904 43.578 213.691 44.1032 214.283 44.816C214.875 45.5289 215.248 46.3986 215.354 47.3193C215.461 48.24 215.298 49.1719 214.885 50.0015C216.243 50.7173 217.427 51.9963 217.517 53.5279C217.606 55.0595 216.159 56.6332 214.669 56.2859C215.04 56.8805 215.16 57.5983 215.002 58.2814C214.844 58.9644 214.422 59.5567 213.827 59.9281C213.232 60.2994 212.515 60.4193 211.831 60.2613C211.148 60.1034 210.556 59.6806 210.185 59.0859" fill="#263238"/>
<path d="M215.206 56.2544C215.245 56.5093 215.229 56.7697 215.158 57.0177C215.087 57.2657 214.964 57.4955 214.796 57.6913C214.447 58.1762 213.928 58.511 213.343 58.6281C212.971 58.7045 212.586 58.6969 212.218 58.6059C211.849 58.5148 211.505 58.3426 211.211 58.1018L211.522 58.0439C211.158 58.7496 210.681 59.3913 210.111 59.944C209.733 60.3194 209.286 60.6194 208.795 60.8282C208.158 61.0694 207.461 61.1067 206.801 60.9352C206.141 60.7636 205.551 60.3915 205.111 59.8703C204.796 59.413 204.574 58.8978 204.458 58.3544C204.39 58.1641 204.363 57.9613 204.38 57.7597C204.411 57.7597 204.479 57.9492 204.616 58.286C204.784 58.7838 205.031 59.2513 205.348 59.6703C206.09 60.7229 208.39 61.1703 209.801 59.6176C210.334 59.0948 210.787 58.4952 211.143 57.8386L211.269 57.6176L211.459 57.7808C211.703 57.9938 211.99 58.1513 212.301 58.2422C212.612 58.3331 212.938 58.3552 213.259 58.3071C213.773 58.2209 214.24 57.954 214.575 57.5544C214.869 57.167 215.083 56.7252 215.206 56.2544Z" fill="#455A64"/>
<path d="M127.714 153.162C127.714 153.162 113.751 152.747 112.914 152.483C111.64 152.199 110.319 152.199 109.045 152.483C108.05 152.799 104.077 154.21 104.077 154.21L95.6554 156.457C95.6554 156.457 87.1867 161.978 87.3551 163.089C87.5236 164.2 88.4552 164.957 89.9868 164.384C91.5184 163.81 99.1555 159.831 99.1555 159.831L107.577 158.941C107.577 158.941 119.061 163.068 121.382 162.863C123.704 162.657 129.646 161.652 129.646 161.652C129.646 161.652 130.483 155.699 130.062 154.757C129.641 153.815 127.714 153.162 127.714 153.162Z" fill="#AE7461"/>
<path d="M87.9606 168.015C87.9606 168.015 95.0397 160.431 96.9977 159.41C98.9556 158.389 109.872 156.594 109.872 156.594C109.872 156.594 113.367 155.147 114.646 155.657C115.925 156.168 129.478 158.215 130.072 158.289C130.667 158.363 127.177 170.226 127.177 170.226C123.798 170.712 120.357 170.567 117.03 169.8C111.577 168.521 109.698 166.815 109.698 166.815L104.256 165.384L100.919 166.652C100.919 166.652 100.324 171.589 97.9345 171.331L96.8292 170.563L97.6819 165.11L94.1871 166.557C94.1871 166.557 91.4554 170.652 89.4132 170.052C87.3711 169.452 87.9606 168.015 87.9606 168.015Z" fill="#AE7461"/>
<path d="M87.9605 168.015C87.9105 168.209 87.8928 168.41 87.9079 168.61C87.9328 168.851 88.0239 169.081 88.171 169.273C88.3827 169.534 88.6584 169.735 88.9711 169.857C89.3509 170.044 89.78 170.107 90.1974 170.036C90.6922 169.901 91.1543 169.667 91.5553 169.347C92.5514 168.544 93.4177 167.592 94.1238 166.526L97.6134 165.068L97.7555 165.005V165.157C97.5029 166.799 97.2292 168.642 96.9186 170.615L96.8765 170.521L97.9818 171.284H97.9345C98.1598 171.302 98.3864 171.271 98.5989 171.194C98.8114 171.117 99.0048 170.995 99.1661 170.836C99.5132 170.499 99.7904 170.097 99.9819 169.652C100.392 168.711 100.667 167.717 100.798 166.699V166.631L100.861 166.605L104.187 165.331H104.224H104.261L109.714 166.752H109.745C110.899 167.577 112.169 168.224 113.514 168.673C114.914 169.171 116.348 169.57 117.803 169.868C119.313 170.169 120.844 170.345 122.383 170.394C123.966 170.451 125.552 170.363 127.119 170.131L127.014 170.226C127.256 169.389 127.541 168.494 127.772 167.594C128.525 164.91 129.277 162.273 129.82 159.662C129.888 159.343 129.939 159.019 129.972 158.694C129.977 158.62 129.977 158.546 129.972 158.473C129.941 158.42 129.972 158.436 129.972 158.473H129.909L129.42 158.399L127.472 158.104L123.656 157.504C121.156 157.099 118.73 156.699 116.398 156.257C115.819 156.136 115.251 156.036 114.672 155.862C114.14 155.703 113.576 155.684 113.035 155.81C111.954 156.021 110.896 156.338 109.877 156.757H109.851C106.04 157.394 102.55 158.025 99.5029 158.752C98.7698 158.921 98.0475 159.134 97.3397 159.389C96.7078 159.682 96.1269 160.075 95.6186 160.552C94.5659 161.426 93.6922 162.289 92.887 163.068C91.2764 164.647 90.0553 165.899 89.2026 166.752L88.25 167.736C88.0289 167.957 87.9131 168.063 87.9131 168.063C87.9131 168.063 88.0131 167.942 88.2237 167.71L89.15 166.705C89.9763 165.836 91.1869 164.552 92.7817 162.973C93.5817 162.189 94.4712 161.315 95.5028 160.431C95.7607 160.21 96.0291 159.983 96.3134 159.773C96.6039 159.555 96.9226 159.378 97.2608 159.247C97.9771 158.986 98.7082 158.768 99.4503 158.594C102.503 157.846 105.987 157.204 109.803 156.546H109.777C110.811 156.117 111.884 155.791 112.982 155.573C113.565 155.44 114.173 155.46 114.745 155.631C115.272 155.794 115.861 155.894 116.435 156.015C118.756 156.452 121.172 156.841 123.688 157.241L127.504 157.836L129.451 158.136L129.941 158.21H130.046H130.104C130.139 158.233 130.168 158.264 130.189 158.301C130.21 158.337 130.222 158.378 130.225 158.42C130.233 158.511 130.233 158.603 130.225 158.694C130.193 159.032 130.142 159.367 130.072 159.699C129.546 162.331 128.772 164.962 128.02 167.652C127.762 168.557 127.493 169.457 127.262 170.284V170.368H127.177C125.594 170.604 123.993 170.692 122.393 170.631C120.84 170.587 119.294 170.411 117.772 170.105C116.302 169.806 114.856 169.402 113.445 168.894C112.758 168.649 112.085 168.367 111.43 168.047C110.778 167.74 110.162 167.362 109.593 166.92L109.645 166.947L104.203 165.51H104.277L100.94 166.778L101.013 166.684C100.878 167.726 100.593 168.744 100.166 169.705C99.9635 170.175 99.6681 170.599 99.2977 170.952C99.1136 171.129 98.8941 171.265 98.6538 171.351C98.4134 171.438 98.1575 171.472 97.9029 171.452H97.8766L96.7713 170.684L96.7186 170.647V170.584C97.0292 168.615 97.3239 166.773 97.5818 165.131L97.7029 165.226L94.2028 166.663L94.2344 166.636C93.5105 167.712 92.6225 168.667 91.6027 169.468C91.186 169.791 90.7078 170.025 90.1974 170.157C89.7607 170.229 89.3124 170.159 88.9184 169.957C88.5958 169.827 88.314 169.613 88.1026 169.336C87.9529 169.134 87.8635 168.893 87.8447 168.642C87.8254 168.426 87.8654 168.209 87.9605 168.015Z" fill="#6F4439"/>
<path d="M109.387 161.584C109.213 161.604 109.036 161.604 108.861 161.584C108.519 161.557 108.024 161.51 107.408 161.447L105.261 161.205L104.64 161.136C104.436 161.102 104.228 161.102 104.024 161.136C103.577 161.204 103.135 161.296 102.698 161.41C100.924 161.936 99.145 162.268 98.4871 163.32C98.2027 163.704 97.9888 164.135 97.8555 164.594C97.7607 164.92 97.7344 165.12 97.7186 165.12C97.6904 164.945 97.703 164.764 97.7555 164.594C97.8507 164.106 98.0479 163.643 98.3344 163.236C98.5328 162.951 98.7764 162.701 99.0555 162.494C99.3785 162.268 99.7333 162.09 100.108 161.968C100.942 161.664 101.79 161.402 102.65 161.184C103.097 161.064 103.551 160.971 104.008 160.905C104.235 160.87 104.466 160.87 104.693 160.905L105.308 160.989L107.456 161.284C108.066 161.373 108.556 161.452 108.898 161.51C109.064 161.512 109.228 161.536 109.387 161.584Z" fill="#6F4439"/>
<path d="M90.3867 165.494C90.5646 165.282 90.76 165.084 90.9709 164.905C91.3657 164.542 91.9447 164.031 92.6763 163.421C93.4079 162.81 94.2974 162.094 95.3079 161.352C95.8342 160.984 96.3606 160.605 96.9606 160.247C97.2656 160.065 97.5801 159.9 97.9027 159.752C98.2459 159.618 98.5976 159.508 98.9554 159.42C101.38 158.833 103.842 158.411 106.324 158.157L108.566 157.878C108.839 157.833 109.116 157.81 109.393 157.81C109.128 157.893 108.857 157.951 108.582 157.984L106.356 158.347C104.477 158.678 101.84 158.91 99.0396 159.684C98.6978 159.768 98.362 159.876 98.0343 160.005C97.7206 160.146 97.4149 160.304 97.1185 160.478C96.5343 160.826 95.9921 161.194 95.4763 161.557C94.4237 162.284 93.5552 162.978 92.8078 163.568L91.0499 164.984C90.8425 165.171 90.6208 165.342 90.3867 165.494Z" fill="#6F4439"/>
<path d="M178.563 116.056C176.042 119.622 173.812 123.385 171.894 127.309C169.363 132.572 161.184 150.494 161.184 150.494L127.851 152.241L128.346 165.12C128.346 165.12 160.536 176.589 167.742 174.373C174.947 172.157 182.626 163.847 182.626 163.847L186.074 109.529C186.074 109.529 183.216 108.998 178.563 116.056Z" fill="#2059EE"/>
<path d="M185.532 109.661C185.532 109.661 176.984 129.046 175.737 137.257C173.258 153.573 172.426 163.757 172.426 163.757L169.521 188.984H226.443C226.443 188.984 228.328 142.23 227.117 126.556C226.212 114.809 217.211 107.493 213.532 103.477C213.311 103.235 212.301 99.9451 212.301 99.9451L185.774 106.74L185.532 109.661Z" fill="#2059EE"/>
<path d="M182.779 112.603C182.766 112.667 182.745 112.729 182.716 112.787C182.658 112.919 182.589 113.098 182.495 113.314L181.647 115.34C180.916 117.098 179.858 119.651 178.795 122.893C177.558 126.683 176.575 130.552 175.852 134.472C175.005 138.899 174.321 143.809 173.747 148.983C172.694 159.341 171.752 168.715 171.063 175.516C170.71 178.9 170.426 181.642 170.226 183.553C170.121 184.49 170.042 185.221 169.984 185.737C169.952 185.979 169.931 186.163 169.915 186.305C169.908 186.371 169.896 186.436 169.878 186.5C169.874 186.435 169.874 186.37 169.878 186.305C169.878 186.163 169.905 185.974 169.921 185.732C169.968 185.205 170.031 184.484 170.11 183.542C170.289 181.626 170.547 178.884 170.863 175.495C171.521 168.705 172.389 159.315 173.494 148.952C174.063 143.778 174.758 138.857 175.6 134.425C176.335 130.491 177.339 126.611 178.605 122.814C179.695 119.577 180.779 117.024 181.542 115.282C181.921 114.403 182.231 113.73 182.442 113.277C182.542 113.056 182.621 112.887 182.684 112.751C182.713 112.7 182.745 112.651 182.779 112.603Z" fill="#263238"/>
<g opacity="0.3">
<path d="M212.353 143.12C211.827 137.957 209.506 132.772 205.258 129.793L170.552 179.353C176.679 182.658 183.484 186.068 190.29 184.616C193.974 183.832 197.206 181.674 199.848 179.016C205.337 173.494 208.316 165.973 210.406 158.489C211.801 153.478 212.874 148.283 212.353 143.12Z" fill="black"/>
</g>
<path d="M216.285 137.135C211.964 152.436 202.232 171.105 199.242 174.858C197.085 177.617 194.33 179.852 191.185 181.396C188.04 182.939 184.587 183.75 181.084 183.768C177.168 183.768 144.072 177.321 134.241 175.394C133.432 175.234 132.688 174.84 132.102 174.261C131.515 173.682 131.111 172.943 130.941 172.136L130.856 171.731L126.461 170.531L128.814 158.683L129.283 158.026L176.615 159.515L190.384 121.161C190.647 120.725 194.621 107.856 205.406 108.44" fill="#2059EE"/>
<path d="M205.406 108.45H205.048C204.697 108.441 204.346 108.449 203.995 108.477C202.625 108.558 201.278 108.877 200.016 109.419C198 110.338 196.223 111.708 194.821 113.424C192.928 115.749 191.451 118.382 190.453 121.209C186.974 130.925 182.253 144.125 176.721 159.573L176.695 159.657H176.605L129.293 158.173L129.409 158.115L128.941 158.773V158.72C128.262 162.147 127.541 165.789 126.835 169.473L126.62 170.568L126.52 170.405L130.935 171.594L131.02 171.621V171.7C131.148 172.674 131.607 173.575 132.32 174.252C132.674 174.58 133.084 174.842 133.53 175.026C133.989 175.194 134.463 175.316 134.946 175.389L140.736 176.521L152.052 178.695C159.468 180.1 166.61 181.437 173.426 182.589C175.131 182.874 176.816 183.116 178.479 183.379C179.31 183.484 180.142 183.6 180.958 183.637C181.777 183.647 182.596 183.606 183.411 183.516C186.557 183.178 189.602 182.202 192.358 180.647C194.917 179.178 197.182 177.247 199.037 174.952C199.875 173.848 200.642 172.691 201.332 171.489C202.022 170.315 202.674 169.152 203.29 168.01C207.159 160.786 210.549 153.315 213.438 145.646C214.438 142.93 215.154 140.799 215.606 139.33C215.827 138.609 216.001 138.057 216.133 137.678C216.264 137.299 216.312 137.12 216.312 137.12C216.312 137.12 216.264 137.309 216.159 137.683L215.675 139.346C215.238 140.804 214.538 142.941 213.569 145.662C210.713 153.351 207.343 160.84 203.485 168.078C202.874 169.226 202.222 170.389 201.537 171.568C200.845 172.783 200.073 173.95 199.227 175.063C197.349 177.395 195.052 179.355 192.453 180.842C189.673 182.416 186.602 183.406 183.426 183.753C182.602 183.848 181.772 183.89 180.942 183.879C180.1 183.842 179.274 183.726 178.437 183.621C176.768 183.384 175.079 183.095 173.373 182.837C166.531 181.689 159.41 180.358 151.989 178.958L140.673 176.784L134.883 175.658C134.383 175.582 133.893 175.455 133.42 175.279C132.941 175.084 132.503 174.804 132.125 174.452C131.371 173.737 130.883 172.787 130.741 171.758L130.841 171.863L126.425 170.673L126.304 170.636V170.515C126.372 170.168 126.451 169.794 126.525 169.421C127.256 165.736 127.977 162.094 128.63 158.668V158.636L129.099 157.978L129.141 157.92H129.293L176.626 159.426L176.51 159.505L190.321 121.167C191.329 118.338 192.822 115.705 194.732 113.387C196.152 111.662 197.954 110.291 199.995 109.382C201.266 108.846 202.622 108.537 204.001 108.472C204.351 108.448 204.703 108.448 205.053 108.472L205.406 108.45Z" fill="#263238"/>
<path d="M166.189 156.489C165.56 155.288 164.794 154.165 163.905 153.141C162.954 152.182 161.894 151.337 160.747 150.625C161.139 150.73 161.51 150.899 161.847 151.126C162.691 151.621 163.459 152.236 164.126 152.952C164.792 153.668 165.352 154.477 165.789 155.352C165.98 155.708 166.115 156.092 166.189 156.489Z" fill="#263238"/>
<path d="M182.342 168.805C182.295 168.805 182.2 168.2 181.926 167.226C181.563 165.985 181.041 164.796 180.374 163.689C179.697 162.588 178.877 161.581 177.937 160.694C177.216 160.01 176.71 159.641 176.737 159.61C176.875 159.661 177.005 159.734 177.121 159.826C177.451 160.046 177.768 160.287 178.068 160.547C180.071 162.286 181.485 164.603 182.116 167.179C182.213 167.564 182.282 167.956 182.321 168.352C182.352 168.501 182.359 168.654 182.342 168.805Z" fill="#263238"/>
<g opacity="0.3">
<path d="M169.715 159.226L172.468 159.331C172.916 148.515 175.142 137.751 177.047 127.083C172.189 137.009 170.915 148.246 169.715 159.226Z" fill="black"/>
</g>
<path d="M212.611 103.477C212.528 103.519 212.44 103.549 212.348 103.566L211.59 103.777L208.801 104.519C206.448 105.145 203.2 106.04 199.59 106.951C195.979 107.861 192.679 108.566 190.268 108.961C189.063 109.161 188.084 109.303 187.405 109.372L186.621 109.451C186.53 109.463 186.438 109.463 186.347 109.451C186.434 109.418 186.524 109.397 186.616 109.387L187.389 109.256C188.063 109.156 189.037 108.982 190.232 108.761C192.626 108.319 195.916 107.587 199.521 106.656C203.127 105.724 206.364 104.877 208.753 104.298C209.937 104.008 210.901 103.771 211.569 103.64L212.337 103.482C212.428 103.468 212.52 103.467 212.611 103.477Z" fill="#263238"/>
</svg>
