<svg width="143" height="132" viewBox="0 0 143 132" fill="none" xmlns="http://www.w3.org/2000/svg">
<path d="M136.951 22.992L136.094 21.562C128.833 9.47174 115.741 2.18611 101.937 3.07268C100.157 3.17645 98.3869 3.41544 96.6422 3.78766C84.0906 6.50815 73.1697 16.121 68.6446 28.433C65.9797 35.6721 65.2385 44.0088 60.1734 49.7572C53.6011 57.2359 42.4366 57.4683 32.6417 57.1608C22.8468 56.8534 11.6576 57.1143 5.11003 64.6216C1.02264 69.344 -0.279821 76.0505 0.048441 82.3281C0.923807 99.0014 12.4024 113.912 26.9836 121.323C41.5648 128.734 58.7509 129.395 74.7157 126.135C97.0834 121.57 118.357 109.029 131.142 89.6709C143.926 70.3128 147.163 43.898 136.951 22.992Z" fill="#E7EDFF"/>
<g clip-path="url(#clip0_2606_13063)">
<mask id="path-2-outside-1_2606_13063" maskUnits="userSpaceOnUse" x="3.82141" y="-1.12305" width="134" height="134" fill="black">
<rect fill="white" x="3.82141" y="-1.12305" width="134" height="134"/>
<path d="M112.701 1.75628C114.043 2.70524 115.204 3.7871 116.117 5.15618C116.287 5.08705 116.458 5.01793 116.633 4.94671C117.239 4.70692 117.845 4.46984 118.454 4.23772C118.621 4.17358 118.789 4.10944 118.962 4.04336C121.619 3.11905 124.348 3.50219 126.842 4.70601C129.085 5.94778 130.652 7.6588 131.586 10.0546C131.688 10.452 131.79 10.8495 131.892 11.247C132.283 12.502 132.994 12.883 134.091 13.5301C135.408 14.406 136.39 15.9003 136.876 17.3982C137.364 19.9516 137.27 22.3102 135.939 24.5888C134.327 26.8353 132.495 27.8776 129.781 28.3593C129.012 28.4018 128.247 28.3963 127.477 28.3835C127.276 28.3817 127.075 28.38 126.868 28.3782C126.378 28.3737 125.888 28.3667 125.398 28.3593C125.399 28.524 125.399 28.6886 125.399 28.8582C125.405 38.6064 125.409 48.3545 125.412 58.1026C125.412 59.2718 125.412 60.441 125.413 61.6103C125.413 61.9594 125.413 61.9594 125.413 62.3157C125.414 66.0899 125.416 69.8642 125.418 73.6384C125.421 77.5082 125.422 81.3779 125.423 85.2477C125.423 87.6375 125.424 90.0274 125.426 92.4172C125.428 94.0537 125.428 95.6902 125.428 97.3267C125.428 98.2723 125.428 99.2179 125.429 100.164C125.431 101.186 125.43 102.209 125.429 103.232C125.431 103.685 125.431 103.685 125.432 104.148C125.431 104.419 125.431 104.691 125.43 104.971C125.43 105.207 125.43 105.444 125.43 105.687C125.398 106.219 125.398 106.219 125.141 106.476C124.7 106.504 124.259 106.514 123.818 106.517C123.531 106.52 123.244 106.522 122.949 106.525C122.632 106.526 122.314 106.528 121.987 106.529C121.655 106.532 121.324 106.535 120.981 106.537C120.069 106.544 119.156 106.55 118.243 106.555C117.289 106.56 116.336 106.567 115.383 106.574C113.577 106.587 111.771 106.599 109.965 106.61C107.91 106.623 105.854 106.637 103.798 106.651C99.5687 106.68 95.3391 106.708 91.1094 106.734C91.2167 106.893 91.324 107.052 91.4345 107.216C91.5747 107.425 91.7149 107.633 91.8593 107.848C91.9985 108.055 92.1377 108.262 92.2811 108.475C93.2082 109.907 93.8695 111.451 93.6875 113.18C93.9158 113.242 94.1442 113.305 94.3794 113.37C96.5531 114.197 98.2874 116.265 99.3493 118.294C100.338 120.66 100.266 123.798 99.3755 126.183C98.2887 128.418 96.5082 130.464 94.2032 131.484C92.9569 131.892 91.8815 132.065 90.5723 132.067C90.3977 132.068 90.223 132.069 90.043 132.07C89.4626 132.073 88.8822 132.072 88.3018 132.071C87.8837 132.072 87.4655 132.073 87.0474 132.075C85.9149 132.078 84.7824 132.078 83.65 132.078C82.7031 132.077 81.7562 132.079 80.8093 132.08C78.5745 132.083 76.3398 132.083 74.105 132.081C71.803 132.08 69.501 132.083 67.199 132.088C65.2194 132.093 63.2399 132.095 61.2603 132.094C60.0794 132.093 58.8985 132.094 57.7176 132.097C56.6066 132.101 55.4957 132.1 54.3847 132.097C53.9782 132.096 53.5718 132.097 53.1653 132.099C49.6882 132.116 47.3236 131.636 44.7344 129.229C42.6875 127.103 41.9242 124.663 41.9736 121.763C42.1342 118.72 43.5069 116.499 45.7344 114.469C46.8201 113.626 47.7238 113.15 49.086 112.922C49.077 112.691 49.068 112.461 49.0588 112.223C49.0518 111.911 49.0448 111.599 49.0376 111.278C49.0287 110.973 49.0197 110.668 49.0104 110.354C49.0305 109.501 49.2237 108.771 49.4774 107.958C49.5485 107.728 49.6196 107.499 49.6929 107.262C49.7478 107.088 49.8028 106.914 49.8594 106.734C49.6896 106.733 49.5197 106.732 49.3448 106.731C45.2181 106.704 41.0914 106.676 36.9648 106.647C34.9692 106.633 32.9736 106.619 30.978 106.606C29.2392 106.595 27.5005 106.583 25.7618 106.57C24.8406 106.563 23.9194 106.557 22.9981 106.551C21.9714 106.546 20.9447 106.538 19.918 106.529C19.4565 106.527 19.4565 106.527 18.9857 106.525C18.7077 106.522 18.4297 106.52 18.1432 106.517C17.7786 106.515 17.7785 106.515 17.4065 106.512C16.8594 106.476 16.8594 106.476 16.6016 106.219C16.5767 105.713 16.5702 105.206 16.5706 104.7C16.5702 104.37 16.5699 104.04 16.5695 103.7C16.5704 103.331 16.5714 102.961 16.5723 102.592C16.5724 102.206 16.5724 101.82 16.5722 101.434C16.5721 100.382 16.5737 99.3309 16.5755 98.2794C16.5771 97.1818 16.5772 96.0842 16.5775 94.9866C16.5783 92.9066 16.5804 90.8266 16.583 88.7467C16.5859 86.3793 16.5873 84.012 16.5886 81.6446C16.5913 76.7735 16.5959 71.9023 16.6016 67.0312C16.3674 67.0343 16.3674 67.0343 16.1284 67.0376C15.415 67.046 14.7016 67.0512 13.9882 67.0564C13.7426 67.0597 13.4969 67.0631 13.2438 67.0666C11.5122 67.076 10.0918 66.9717 8.60941 65.9999C8.33473 65.821 8.33473 65.821 8.05451 65.6384C6.41147 64.387 5.26333 62.6344 4.91091 60.5826C4.62698 57.9927 4.97845 55.7749 6.54691 53.6249C7.5811 52.4779 8.71642 51.6296 10.1563 51.0468C10.3264 51.0468 10.4966 51.0468 10.6719 51.0468C10.6585 50.7846 10.6585 50.7846 10.6447 50.5171C10.5491 47.2295 11.655 45.0159 13.4756 42.3456C14.2538 41.5217 15.1264 40.8231 16.086 40.2187C16.2561 40.2187 16.4263 40.2187 16.6016 40.2187C16.6016 32.0512 16.6016 23.8837 16.6016 15.4687C18.8285 15.469 21.0554 15.4693 23.3497 15.4696C30.4717 15.4694 37.5937 15.4617 44.7157 15.4491C45.8217 15.4472 46.9276 15.4453 48.0335 15.4435C48.3638 15.443 48.3638 15.443 48.7007 15.4424C52.2675 15.4366 55.8344 15.4363 59.4012 15.438C63.0601 15.4397 66.7189 15.4354 70.3777 15.4258C72.6361 15.42 74.8945 15.4188 77.1529 15.4234C78.7008 15.4261 80.2486 15.4232 81.7965 15.4158C82.6901 15.4117 83.5835 15.4101 84.4771 15.4152C85.4455 15.4195 86.4134 15.4143 87.3817 15.4067C87.6649 15.4102 87.948 15.4137 88.2397 15.4173C89.5991 15.433 89.5991 15.433 90.7844 14.8684C91.1819 14.409 91.1819 14.409 91.625 13.664C92.1749 13.24 92.1749 13.24 92.6885 12.9389C92.8593 12.8362 93.0302 12.7335 93.2061 12.6277C93.6875 12.3749 93.6875 12.3749 94.461 12.1171C94.4773 11.8612 94.4935 11.6053 94.5103 11.3417C94.7925 7.91672 95.8065 4.97504 98.4128 2.571C102.705 -0.598115 108.121 -1.10074 112.701 1.75628ZM98.2164 4.9034C96.9141 6.54986 95.9683 8.69476 96.03 10.816C96.0406 11.6723 96.0226 12.3341 95.75 13.1484C95.0177 13.6746 94.2889 13.9745 93.4539 14.3115C91.9612 15.0296 91.2149 16.3047 90.481 17.7407C90.1026 19.885 90.1123 21.7269 91.2081 23.6522C92.2889 25.1611 93.688 26.3039 95.4922 26.8124C96.6196 26.9281 97.7422 26.9234 98.8748 26.9207C99.2129 26.9229 99.551 26.9251 99.8994 26.9273C100.823 26.933 101.747 26.9338 102.67 26.9333C103.444 26.9333 104.217 26.9355 104.99 26.9376C106.816 26.9426 108.641 26.9433 110.467 26.9416C112.345 26.9399 114.223 26.9458 116.102 26.9553C117.719 26.9633 119.336 26.9662 120.953 26.9652C121.916 26.9646 122.88 26.966 123.844 26.9724C124.92 26.9792 125.996 26.9756 127.072 26.971C127.388 26.9745 127.704 26.9779 128.029 26.9814C130.247 26.9597 132.01 26.5434 133.685 25.0221C135.1 23.5505 135.722 22.0708 135.856 20.0449C135.794 18.1201 135.021 16.3173 133.647 14.9571C132.936 14.4118 132.222 13.9807 131.417 13.5864C130.628 13.0144 130.6 12.6453 130.442 11.6982C129.914 9.28054 128.759 7.74289 126.762 6.30022C124.623 4.95713 122.302 4.65095 119.851 5.20653C118.968 5.49278 118.213 5.92224 117.419 6.39992C116.756 6.78023 116.078 7.01161 115.344 7.21868C115.281 7.03257 115.217 6.84646 115.152 6.65471C114.15 4.41288 112.079 2.75537 109.861 1.81469C105.51 0.284791 101.317 1.64475 98.2164 4.9034ZM17.8907 16.7577C17.8907 22.458 17.8907 28.1582 17.8907 34.0312C52.9429 34.0312 87.995 34.0312 124.109 34.0312C124.109 32.1595 124.109 30.2877 124.109 28.3593C123.278 28.3542 122.447 28.3491 121.59 28.3438C118.84 28.3265 116.089 28.3065 113.339 28.2852C111.671 28.2723 110.004 28.2604 108.337 28.2505C106.727 28.241 105.117 28.2291 103.507 28.2154C102.894 28.2107 102.281 28.2068 101.668 28.2038C100.807 28.1994 99.9459 28.1919 99.085 28.1837C98.833 28.1831 98.581 28.1826 98.3214 28.182C95.4376 28.1471 93.311 27.6074 91.1628 25.609C89.5295 23.8467 88.984 21.7144 89.0469 19.3359C89.2171 18.4851 89.3872 17.6343 89.5625 16.7577C65.9108 16.7577 42.2591 16.7577 17.8907 16.7577ZM17.8907 35.5781C17.8907 36.8542 17.8907 38.1304 17.8907 39.4452C18.3001 39.3602 18.7095 39.2751 19.1314 39.1874C22.7694 38.5408 25.8853 39.0462 29.0531 40.9992C30.0615 41.7351 30.7921 42.5931 31.5547 43.5702C31.8087 43.8319 32.0653 44.091 32.3282 44.3437C32.5209 44.2536 32.7137 44.1636 32.9123 44.0708C33.1662 43.9534 33.4201 43.8361 33.6817 43.7153C33.9329 43.5986 34.1842 43.482 34.443 43.3618C36.658 42.4182 39.388 42.4608 41.6416 43.2641C42.3252 43.542 42.8906 43.8226 43.4957 44.247C44.4026 44.7117 45.2094 44.6869 46.2017 44.6498C46.3803 44.6463 46.559 44.6429 46.743 44.6393C47.1803 44.6302 47.6176 44.6163 48.0547 44.6015C48.0547 45.0269 48.0547 45.4523 48.0547 45.8906C47.289 45.8906 46.5233 45.8906 45.7344 45.8906C45.8587 46.1302 45.983 46.3698 46.1111 46.6167C46.2756 46.9385 46.4401 47.2605 46.6045 47.5825C46.6863 47.7395 46.768 47.8965 46.8523 48.0583C47.2664 48.8737 47.558 49.5745 47.7848 50.4708C48.0954 51.4303 48.3226 51.6392 49.1827 52.1264C49.8438 52.51 50.3332 52.8035 50.8378 53.3828C51.5543 54.0129 51.8986 54.0103 52.8418 54.0068C53.1339 54.0082 53.426 54.0096 53.727 54.0111C54.206 54.0055 54.206 54.0055 54.6947 53.9998C55.2003 54 55.2003 54 55.7162 54.0003C56.6398 54.0006 57.5633 53.9945 58.4869 53.9873C59.4524 53.9809 60.4178 53.9803 61.3833 53.979C63.2113 53.9758 65.0392 53.9674 66.8671 53.957C68.9483 53.9455 71.0295 53.9398 73.1107 53.9346C77.3916 53.9239 81.6723 53.9057 85.9532 53.8827C85.8681 54.2231 85.783 54.5634 85.6953 54.914C74.7203 54.9991 63.7452 55.0841 52.4375 55.1718C52.6928 56.448 52.6928 56.448 52.9532 57.7499C53.0949 59.7621 52.7507 60.8126 52.1797 62.9062C76.9375 63.0338 76.9375 63.0338 102.195 63.164C102.28 63.5043 102.366 63.8446 102.453 64.1952C102.189 64.1951 101.925 64.195 101.654 64.1949C95.2328 64.1929 88.8121 64.1998 82.3913 64.2159C79.2862 64.2235 76.1812 64.2283 73.0761 64.2262C70.3696 64.2244 67.6632 64.2281 64.9567 64.2382C63.5237 64.2433 62.0909 64.2458 60.6579 64.2418C59.3086 64.2381 57.9595 64.2416 56.6103 64.2507C56.1156 64.2527 55.6209 64.2521 55.1262 64.2487C51.9319 64.1254 51.9319 64.1254 49.2384 65.6116C47.7911 66.9815 45.7475 66.8874 43.8809 66.8848C43.4512 66.8888 43.4512 66.8888 43.0128 66.8929C42.0911 66.9005 41.1695 66.903 40.2478 66.9053C39.6766 66.9093 39.1053 66.9136 38.534 66.9183C36.4225 66.9332 34.3109 66.9415 32.1993 66.9506C25.1165 66.9905 25.1165 66.9905 17.8907 67.0312C17.8907 79.6227 17.8907 92.2143 17.8907 105.187C23.2506 105.241 28.6105 105.294 34.1328 105.349C36.6687 105.384 36.6687 105.384 39.2559 105.42C40.7751 105.428 40.7751 105.428 42.2944 105.433C42.9701 105.437 43.6445 105.446 44.3199 105.46C45.3444 105.481 46.3684 105.481 47.3931 105.48C47.6924 105.489 47.9917 105.499 48.3001 105.508C49.5292 105.493 50.314 105.473 51.2526 104.632C51.802 103.964 51.802 103.964 52.2511 103.27C53.9733 100.709 56.9615 99.1519 59.9141 98.4843C64.2991 98.0877 67.9485 98.5956 71.5157 101.32C72.7569 102.415 73.796 103.481 74.6094 104.93C75.2933 104.66 75.9718 104.382 76.6467 104.091C77.0341 103.924 77.0341 103.924 77.4292 103.753C77.6868 103.641 77.9444 103.529 78.2097 103.414C80.8545 102.437 83.8579 102.661 86.4688 103.641C87.4046 104.151 88.3405 104.661 89.3047 105.187C100.79 105.187 112.276 105.187 124.109 105.187C124.109 82.2163 124.109 59.2452 124.109 35.5781C89.0572 35.5781 54.005 35.5781 17.8907 35.5781ZM14.7969 43.3124C14.654 43.453 14.5111 43.5936 14.3639 43.7384C12.618 45.5842 11.9147 47.9801 11.9449 50.4828C11.9472 50.7344 11.9495 50.986 11.9519 51.2452C11.9549 51.435 11.9579 51.6247 11.961 51.8202C11.7586 51.908 11.5562 51.9957 11.3477 52.0861C9.16623 53.0925 7.563 54.1695 6.56302 56.4125C5.94648 58.3778 6.07612 60.3065 7.0142 62.1338C8.05023 63.8752 9.44431 65.0274 11.3924 65.6266C12.0635 65.7629 12.686 65.777 13.3711 65.7801C13.6577 65.7819 13.9443 65.7838 14.2395 65.7857C14.7094 65.7867 14.7094 65.7867 15.1889 65.7878C15.5197 65.7894 15.8506 65.7911 16.1915 65.7929C17.2879 65.7983 18.3844 65.801 19.4808 65.8036C19.8591 65.8046 20.2373 65.8057 20.6156 65.8067C22.3931 65.8116 24.1706 65.8153 25.9482 65.8175C27.9963 65.82 30.0443 65.8268 32.0924 65.8372C33.6779 65.845 35.2633 65.8488 36.8488 65.8496C37.7946 65.8502 38.7403 65.8525 39.686 65.859C40.7425 65.8662 41.7988 65.8651 42.8554 65.8633C43.166 65.8666 43.4767 65.8699 43.7968 65.8733C46.3887 65.8573 48.2895 65.204 50.1867 63.4127C51.581 61.8296 51.8528 60.135 51.7779 58.0631C51.4904 55.9691 50.4516 54.5054 48.8292 53.1969C48.1731 52.7582 47.5342 52.5088 46.7657 52.3359C46.7497 52.0062 46.7338 51.6765 46.7173 51.3368C46.4578 49.1032 45.3605 47.3477 43.7364 45.8281C41.7075 44.2431 39.5169 43.6059 36.9688 43.8281C35.6183 44.0899 34.4988 44.4608 33.4078 45.3105C32.586 45.8906 32.586 45.8906 31.9334 45.8634C31.1395 45.5757 31.0021 45.3175 30.604 44.5854C29.3321 42.5477 27.4505 41.1057 25.1557 40.3808C21.1871 39.5959 17.6663 40.3337 14.7969 43.3124ZM53.2392 103.72C50.8029 106.829 50.3063 110.133 50.1172 113.953C49.961 114.001 49.8048 114.048 49.6439 114.097C47.2272 114.934 45.3532 116.375 44.1714 118.674C43.1595 120.91 43.1393 123.129 43.9197 125.456C44.834 127.553 46.5514 129.292 48.6332 130.231C50.4456 130.927 52.2929 130.855 54.2029 130.844C54.6106 130.846 55.0183 130.848 55.426 130.85C56.5265 130.854 57.6269 130.853 58.7274 130.849C59.883 130.847 61.0386 130.849 62.1942 130.851C64.1342 130.853 66.0742 130.85 68.0143 130.845C70.2523 130.84 72.4903 130.842 74.7283 130.847C76.6552 130.852 78.582 130.853 80.5088 130.85C81.6573 130.848 82.8057 130.848 83.9542 130.851C85.0344 130.854 86.1144 130.852 87.1945 130.846C87.5892 130.845 87.9839 130.845 88.3786 130.848C91.7056 130.865 94.0178 130.343 96.4711 128.006C98.0999 126.152 98.6977 124.052 98.6544 121.621C98.4066 119.063 97.1462 117.165 95.2344 115.5C94.7789 115.241 94.3169 114.994 93.8487 114.759C93.0462 114.321 92.7237 114.114 92.3672 113.262C92.2472 112.729 92.1386 112.193 92.041 111.656C91.5656 109.261 90.158 107.456 88.2735 105.961C85.5908 104.209 82.6643 103.542 79.5089 104.18C77.9606 104.647 76.2816 105.32 75.125 106.476C74.4936 106.445 74.4936 106.445 73.836 106.219C73.4442 105.758 73.4442 105.758 73.1109 105.171C71.3198 102.325 68.7869 100.647 65.586 99.6606C60.9349 98.778 56.4773 100.327 53.2392 103.72Z"/>
</mask>
<path d="M112.701 1.75628C114.043 2.70524 115.204 3.7871 116.117 5.15618C116.287 5.08705 116.458 5.01793 116.633 4.94671C117.239 4.70692 117.845 4.46984 118.454 4.23772C118.621 4.17358 118.789 4.10944 118.962 4.04336C121.619 3.11905 124.348 3.50219 126.842 4.70601C129.085 5.94778 130.652 7.6588 131.586 10.0546C131.688 10.452 131.79 10.8495 131.892 11.247C132.283 12.502 132.994 12.883 134.091 13.5301C135.408 14.406 136.39 15.9003 136.876 17.3982C137.364 19.9516 137.27 22.3102 135.939 24.5888C134.327 26.8353 132.495 27.8776 129.781 28.3593C129.012 28.4018 128.247 28.3963 127.477 28.3835C127.276 28.3817 127.075 28.38 126.868 28.3782C126.378 28.3737 125.888 28.3667 125.398 28.3593C125.399 28.524 125.399 28.6886 125.399 28.8582C125.405 38.6064 125.409 48.3545 125.412 58.1026C125.412 59.2718 125.412 60.441 125.413 61.6103C125.413 61.9594 125.413 61.9594 125.413 62.3157C125.414 66.0899 125.416 69.8642 125.418 73.6384C125.421 77.5082 125.422 81.3779 125.423 85.2477C125.423 87.6375 125.424 90.0274 125.426 92.4172C125.428 94.0537 125.428 95.6902 125.428 97.3267C125.428 98.2723 125.428 99.2179 125.429 100.164C125.431 101.186 125.43 102.209 125.429 103.232C125.431 103.685 125.431 103.685 125.432 104.148C125.431 104.419 125.431 104.691 125.43 104.971C125.43 105.207 125.43 105.444 125.43 105.687C125.398 106.219 125.398 106.219 125.141 106.476C124.7 106.504 124.259 106.514 123.818 106.517C123.531 106.52 123.244 106.522 122.949 106.525C122.632 106.526 122.314 106.528 121.987 106.529C121.655 106.532 121.324 106.535 120.981 106.537C120.069 106.544 119.156 106.55 118.243 106.555C117.289 106.56 116.336 106.567 115.383 106.574C113.577 106.587 111.771 106.599 109.965 106.61C107.91 106.623 105.854 106.637 103.798 106.651C99.5687 106.68 95.3391 106.708 91.1094 106.734C91.2167 106.893 91.324 107.052 91.4345 107.216C91.5747 107.425 91.7149 107.633 91.8593 107.848C91.9985 108.055 92.1377 108.262 92.2811 108.475C93.2082 109.907 93.8695 111.451 93.6875 113.18C93.9158 113.242 94.1442 113.305 94.3794 113.37C96.5531 114.197 98.2874 116.265 99.3493 118.294C100.338 120.66 100.266 123.798 99.3755 126.183C98.2887 128.418 96.5082 130.464 94.2032 131.484C92.9569 131.892 91.8815 132.065 90.5723 132.067C90.3977 132.068 90.223 132.069 90.043 132.07C89.4626 132.073 88.8822 132.072 88.3018 132.071C87.8837 132.072 87.4655 132.073 87.0474 132.075C85.9149 132.078 84.7824 132.078 83.65 132.078C82.7031 132.077 81.7562 132.079 80.8093 132.08C78.5745 132.083 76.3398 132.083 74.105 132.081C71.803 132.08 69.501 132.083 67.199 132.088C65.2194 132.093 63.2399 132.095 61.2603 132.094C60.0794 132.093 58.8985 132.094 57.7176 132.097C56.6066 132.101 55.4957 132.1 54.3847 132.097C53.9782 132.096 53.5718 132.097 53.1653 132.099C49.6882 132.116 47.3236 131.636 44.7344 129.229C42.6875 127.103 41.9242 124.663 41.9736 121.763C42.1342 118.72 43.5069 116.499 45.7344 114.469C46.8201 113.626 47.7238 113.15 49.086 112.922C49.077 112.691 49.068 112.461 49.0588 112.223C49.0518 111.911 49.0448 111.599 49.0376 111.278C49.0287 110.973 49.0197 110.668 49.0104 110.354C49.0305 109.501 49.2237 108.771 49.4774 107.958C49.5485 107.728 49.6196 107.499 49.6929 107.262C49.7478 107.088 49.8028 106.914 49.8594 106.734C49.6896 106.733 49.5197 106.732 49.3448 106.731C45.2181 106.704 41.0914 106.676 36.9648 106.647C34.9692 106.633 32.9736 106.619 30.978 106.606C29.2392 106.595 27.5005 106.583 25.7618 106.57C24.8406 106.563 23.9194 106.557 22.9981 106.551C21.9714 106.546 20.9447 106.538 19.918 106.529C19.4565 106.527 19.4565 106.527 18.9857 106.525C18.7077 106.522 18.4297 106.52 18.1432 106.517C17.7786 106.515 17.7785 106.515 17.4065 106.512C16.8594 106.476 16.8594 106.476 16.6016 106.219C16.5767 105.713 16.5702 105.206 16.5706 104.7C16.5702 104.37 16.5699 104.04 16.5695 103.7C16.5704 103.331 16.5714 102.961 16.5723 102.592C16.5724 102.206 16.5724 101.82 16.5722 101.434C16.5721 100.382 16.5737 99.3309 16.5755 98.2794C16.5771 97.1818 16.5772 96.0842 16.5775 94.9866C16.5783 92.9066 16.5804 90.8266 16.583 88.7467C16.5859 86.3793 16.5873 84.012 16.5886 81.6446C16.5913 76.7735 16.5959 71.9023 16.6016 67.0312C16.3674 67.0343 16.3674 67.0343 16.1284 67.0376C15.415 67.046 14.7016 67.0512 13.9882 67.0564C13.7426 67.0597 13.4969 67.0631 13.2438 67.0666C11.5122 67.076 10.0918 66.9717 8.60941 65.9999C8.33473 65.821 8.33473 65.821 8.05451 65.6384C6.41147 64.387 5.26333 62.6344 4.91091 60.5826C4.62698 57.9927 4.97845 55.7749 6.54691 53.6249C7.5811 52.4779 8.71642 51.6296 10.1563 51.0468C10.3264 51.0468 10.4966 51.0468 10.6719 51.0468C10.6585 50.7846 10.6585 50.7846 10.6447 50.5171C10.5491 47.2295 11.655 45.0159 13.4756 42.3456C14.2538 41.5217 15.1264 40.8231 16.086 40.2187C16.2561 40.2187 16.4263 40.2187 16.6016 40.2187C16.6016 32.0512 16.6016 23.8837 16.6016 15.4687C18.8285 15.469 21.0554 15.4693 23.3497 15.4696C30.4717 15.4694 37.5937 15.4617 44.7157 15.4491C45.8217 15.4472 46.9276 15.4453 48.0335 15.4435C48.3638 15.443 48.3638 15.443 48.7007 15.4424C52.2675 15.4366 55.8344 15.4363 59.4012 15.438C63.0601 15.4397 66.7189 15.4354 70.3777 15.4258C72.6361 15.42 74.8945 15.4188 77.1529 15.4234C78.7008 15.4261 80.2486 15.4232 81.7965 15.4158C82.6901 15.4117 83.5835 15.4101 84.4771 15.4152C85.4455 15.4195 86.4134 15.4143 87.3817 15.4067C87.6649 15.4102 87.948 15.4137 88.2397 15.4173C89.5991 15.433 89.5991 15.433 90.7844 14.8684C91.1819 14.409 91.1819 14.409 91.625 13.664C92.1749 13.24 92.1749 13.24 92.6885 12.9389C92.8593 12.8362 93.0302 12.7335 93.2061 12.6277C93.6875 12.3749 93.6875 12.3749 94.461 12.1171C94.4773 11.8612 94.4935 11.6053 94.5103 11.3417C94.7925 7.91672 95.8065 4.97504 98.4128 2.571C102.705 -0.598115 108.121 -1.10074 112.701 1.75628ZM98.2164 4.9034C96.9141 6.54986 95.9683 8.69476 96.03 10.816C96.0406 11.6723 96.0226 12.3341 95.75 13.1484C95.0177 13.6746 94.2889 13.9745 93.4539 14.3115C91.9612 15.0296 91.2149 16.3047 90.481 17.7407C90.1026 19.885 90.1123 21.7269 91.2081 23.6522C92.2889 25.1611 93.688 26.3039 95.4922 26.8124C96.6196 26.9281 97.7422 26.9234 98.8748 26.9207C99.2129 26.9229 99.551 26.9251 99.8994 26.9273C100.823 26.933 101.747 26.9338 102.67 26.9333C103.444 26.9333 104.217 26.9355 104.99 26.9376C106.816 26.9426 108.641 26.9433 110.467 26.9416C112.345 26.9399 114.223 26.9458 116.102 26.9553C117.719 26.9633 119.336 26.9662 120.953 26.9652C121.916 26.9646 122.88 26.966 123.844 26.9724C124.92 26.9792 125.996 26.9756 127.072 26.971C127.388 26.9745 127.704 26.9779 128.029 26.9814C130.247 26.9597 132.01 26.5434 133.685 25.0221C135.1 23.5505 135.722 22.0708 135.856 20.0449C135.794 18.1201 135.021 16.3173 133.647 14.9571C132.936 14.4118 132.222 13.9807 131.417 13.5864C130.628 13.0144 130.6 12.6453 130.442 11.6982C129.914 9.28054 128.759 7.74289 126.762 6.30022C124.623 4.95713 122.302 4.65095 119.851 5.20653C118.968 5.49278 118.213 5.92224 117.419 6.39992C116.756 6.78023 116.078 7.01161 115.344 7.21868C115.281 7.03257 115.217 6.84646 115.152 6.65471C114.15 4.41288 112.079 2.75537 109.861 1.81469C105.51 0.284791 101.317 1.64475 98.2164 4.9034ZM17.8907 16.7577C17.8907 22.458 17.8907 28.1582 17.8907 34.0312C52.9429 34.0312 87.995 34.0312 124.109 34.0312C124.109 32.1595 124.109 30.2877 124.109 28.3593C123.278 28.3542 122.447 28.3491 121.59 28.3438C118.84 28.3265 116.089 28.3065 113.339 28.2852C111.671 28.2723 110.004 28.2604 108.337 28.2505C106.727 28.241 105.117 28.2291 103.507 28.2154C102.894 28.2107 102.281 28.2068 101.668 28.2038C100.807 28.1994 99.9459 28.1919 99.085 28.1837C98.833 28.1831 98.581 28.1826 98.3214 28.182C95.4376 28.1471 93.311 27.6074 91.1628 25.609C89.5295 23.8467 88.984 21.7144 89.0469 19.3359C89.2171 18.4851 89.3872 17.6343 89.5625 16.7577C65.9108 16.7577 42.2591 16.7577 17.8907 16.7577ZM17.8907 35.5781C17.8907 36.8542 17.8907 38.1304 17.8907 39.4452C18.3001 39.3602 18.7095 39.2751 19.1314 39.1874C22.7694 38.5408 25.8853 39.0462 29.0531 40.9992C30.0615 41.7351 30.7921 42.5931 31.5547 43.5702C31.8087 43.8319 32.0653 44.091 32.3282 44.3437C32.5209 44.2536 32.7137 44.1636 32.9123 44.0708C33.1662 43.9534 33.4201 43.8361 33.6817 43.7153C33.9329 43.5986 34.1842 43.482 34.443 43.3618C36.658 42.4182 39.388 42.4608 41.6416 43.2641C42.3252 43.542 42.8906 43.8226 43.4957 44.247C44.4026 44.7117 45.2094 44.6869 46.2017 44.6498C46.3803 44.6463 46.559 44.6429 46.743 44.6393C47.1803 44.6302 47.6176 44.6163 48.0547 44.6015C48.0547 45.0269 48.0547 45.4523 48.0547 45.8906C47.289 45.8906 46.5233 45.8906 45.7344 45.8906C45.8587 46.1302 45.983 46.3698 46.1111 46.6167C46.2756 46.9385 46.4401 47.2605 46.6045 47.5825C46.6863 47.7395 46.768 47.8965 46.8523 48.0583C47.2664 48.8737 47.558 49.5745 47.7848 50.4708C48.0954 51.4303 48.3226 51.6392 49.1827 52.1264C49.8438 52.51 50.3332 52.8035 50.8378 53.3828C51.5543 54.0129 51.8986 54.0103 52.8418 54.0068C53.1339 54.0082 53.426 54.0096 53.727 54.0111C54.206 54.0055 54.206 54.0055 54.6947 53.9998C55.2003 54 55.2003 54 55.7162 54.0003C56.6398 54.0006 57.5633 53.9945 58.4869 53.9873C59.4524 53.9809 60.4178 53.9803 61.3833 53.979C63.2113 53.9758 65.0392 53.9674 66.8671 53.957C68.9483 53.9455 71.0295 53.9398 73.1107 53.9346C77.3916 53.9239 81.6723 53.9057 85.9532 53.8827C85.8681 54.2231 85.783 54.5634 85.6953 54.914C74.7203 54.9991 63.7452 55.0841 52.4375 55.1718C52.6928 56.448 52.6928 56.448 52.9532 57.7499C53.0949 59.7621 52.7507 60.8126 52.1797 62.9062C76.9375 63.0338 76.9375 63.0338 102.195 63.164C102.28 63.5043 102.366 63.8446 102.453 64.1952C102.189 64.1951 101.925 64.195 101.654 64.1949C95.2328 64.1929 88.8121 64.1998 82.3913 64.2159C79.2862 64.2235 76.1812 64.2283 73.0761 64.2262C70.3696 64.2244 67.6632 64.2281 64.9567 64.2382C63.5237 64.2433 62.0909 64.2458 60.6579 64.2418C59.3086 64.2381 57.9595 64.2416 56.6103 64.2507C56.1156 64.2527 55.6209 64.2521 55.1262 64.2487C51.9319 64.1254 51.9319 64.1254 49.2384 65.6116C47.7911 66.9815 45.7475 66.8874 43.8809 66.8848C43.4512 66.8888 43.4512 66.8888 43.0128 66.8929C42.0911 66.9005 41.1695 66.903 40.2478 66.9053C39.6766 66.9093 39.1053 66.9136 38.534 66.9183C36.4225 66.9332 34.3109 66.9415 32.1993 66.9506C25.1165 66.9905 25.1165 66.9905 17.8907 67.0312C17.8907 79.6227 17.8907 92.2143 17.8907 105.187C23.2506 105.241 28.6105 105.294 34.1328 105.349C36.6687 105.384 36.6687 105.384 39.2559 105.42C40.7751 105.428 40.7751 105.428 42.2944 105.433C42.9701 105.437 43.6445 105.446 44.3199 105.46C45.3444 105.481 46.3684 105.481 47.3931 105.48C47.6924 105.489 47.9917 105.499 48.3001 105.508C49.5292 105.493 50.314 105.473 51.2526 104.632C51.802 103.964 51.802 103.964 52.2511 103.27C53.9733 100.709 56.9615 99.1519 59.9141 98.4843C64.2991 98.0877 67.9485 98.5956 71.5157 101.32C72.7569 102.415 73.796 103.481 74.6094 104.93C75.2933 104.66 75.9718 104.382 76.6467 104.091C77.0341 103.924 77.0341 103.924 77.4292 103.753C77.6868 103.641 77.9444 103.529 78.2097 103.414C80.8545 102.437 83.8579 102.661 86.4688 103.641C87.4046 104.151 88.3405 104.661 89.3047 105.187C100.79 105.187 112.276 105.187 124.109 105.187C124.109 82.2163 124.109 59.2452 124.109 35.5781C89.0572 35.5781 54.005 35.5781 17.8907 35.5781ZM14.7969 43.3124C14.654 43.453 14.5111 43.5936 14.3639 43.7384C12.618 45.5842 11.9147 47.9801 11.9449 50.4828C11.9472 50.7344 11.9495 50.986 11.9519 51.2452C11.9549 51.435 11.9579 51.6247 11.961 51.8202C11.7586 51.908 11.5562 51.9957 11.3477 52.0861C9.16623 53.0925 7.563 54.1695 6.56302 56.4125C5.94648 58.3778 6.07612 60.3065 7.0142 62.1338C8.05023 63.8752 9.44431 65.0274 11.3924 65.6266C12.0635 65.7629 12.686 65.777 13.3711 65.7801C13.6577 65.7819 13.9443 65.7838 14.2395 65.7857C14.7094 65.7867 14.7094 65.7867 15.1889 65.7878C15.5197 65.7894 15.8506 65.7911 16.1915 65.7929C17.2879 65.7983 18.3844 65.801 19.4808 65.8036C19.8591 65.8046 20.2373 65.8057 20.6156 65.8067C22.3931 65.8116 24.1706 65.8153 25.9482 65.8175C27.9963 65.82 30.0443 65.8268 32.0924 65.8372C33.6779 65.845 35.2633 65.8488 36.8488 65.8496C37.7946 65.8502 38.7403 65.8525 39.686 65.859C40.7425 65.8662 41.7988 65.8651 42.8554 65.8633C43.166 65.8666 43.4767 65.8699 43.7968 65.8733C46.3887 65.8573 48.2895 65.204 50.1867 63.4127C51.581 61.8296 51.8528 60.135 51.7779 58.0631C51.4904 55.9691 50.4516 54.5054 48.8292 53.1969C48.1731 52.7582 47.5342 52.5088 46.7657 52.3359C46.7497 52.0062 46.7338 51.6765 46.7173 51.3368C46.4578 49.1032 45.3605 47.3477 43.7364 45.8281C41.7075 44.2431 39.5169 43.6059 36.9688 43.8281C35.6183 44.0899 34.4988 44.4608 33.4078 45.3105C32.586 45.8906 32.586 45.8906 31.9334 45.8634C31.1395 45.5757 31.0021 45.3175 30.604 44.5854C29.3321 42.5477 27.4505 41.1057 25.1557 40.3808C21.1871 39.5959 17.6663 40.3337 14.7969 43.3124ZM53.2392 103.72C50.8029 106.829 50.3063 110.133 50.1172 113.953C49.961 114.001 49.8048 114.048 49.6439 114.097C47.2272 114.934 45.3532 116.375 44.1714 118.674C43.1595 120.91 43.1393 123.129 43.9197 125.456C44.834 127.553 46.5514 129.292 48.6332 130.231C50.4456 130.927 52.2929 130.855 54.2029 130.844C54.6106 130.846 55.0183 130.848 55.426 130.85C56.5265 130.854 57.6269 130.853 58.7274 130.849C59.883 130.847 61.0386 130.849 62.1942 130.851C64.1342 130.853 66.0742 130.85 68.0143 130.845C70.2523 130.84 72.4903 130.842 74.7283 130.847C76.6552 130.852 78.582 130.853 80.5088 130.85C81.6573 130.848 82.8057 130.848 83.9542 130.851C85.0344 130.854 86.1144 130.852 87.1945 130.846C87.5892 130.845 87.9839 130.845 88.3786 130.848C91.7056 130.865 94.0178 130.343 96.4711 128.006C98.0999 126.152 98.6977 124.052 98.6544 121.621C98.4066 119.063 97.1462 117.165 95.2344 115.5C94.7789 115.241 94.3169 114.994 93.8487 114.759C93.0462 114.321 92.7237 114.114 92.3672 113.262C92.2472 112.729 92.1386 112.193 92.041 111.656C91.5656 109.261 90.158 107.456 88.2735 105.961C85.5908 104.209 82.6643 103.542 79.5089 104.18C77.9606 104.647 76.2816 105.32 75.125 106.476C74.4936 106.445 74.4936 106.445 73.836 106.219C73.4442 105.758 73.4442 105.758 73.1109 105.171C71.3198 102.325 68.7869 100.647 65.586 99.6606C60.9349 98.778 56.4773 100.327 53.2392 103.72Z" fill="#2952CE"/>
<path d="M112.701 1.75628C114.043 2.70524 115.204 3.7871 116.117 5.15618C116.287 5.08705 116.458 5.01793 116.633 4.94671C117.239 4.70692 117.845 4.46984 118.454 4.23772C118.621 4.17358 118.789 4.10944 118.962 4.04336C121.619 3.11905 124.348 3.50219 126.842 4.70601C129.085 5.94778 130.652 7.6588 131.586 10.0546C131.688 10.452 131.79 10.8495 131.892 11.247C132.283 12.502 132.994 12.883 134.091 13.5301C135.408 14.406 136.39 15.9003 136.876 17.3982C137.364 19.9516 137.27 22.3102 135.939 24.5888C134.327 26.8353 132.495 27.8776 129.781 28.3593C129.012 28.4018 128.247 28.3963 127.477 28.3835C127.276 28.3817 127.075 28.38 126.868 28.3782C126.378 28.3737 125.888 28.3667 125.398 28.3593C125.399 28.524 125.399 28.6886 125.399 28.8582C125.405 38.6064 125.409 48.3545 125.412 58.1026C125.412 59.2718 125.412 60.441 125.413 61.6103C125.413 61.9594 125.413 61.9594 125.413 62.3157C125.414 66.0899 125.416 69.8642 125.418 73.6384C125.421 77.5082 125.422 81.3779 125.423 85.2477C125.423 87.6375 125.424 90.0274 125.426 92.4172C125.428 94.0537 125.428 95.6902 125.428 97.3267C125.428 98.2723 125.428 99.2179 125.429 100.164C125.431 101.186 125.43 102.209 125.429 103.232C125.431 103.685 125.431 103.685 125.432 104.148C125.431 104.419 125.431 104.691 125.43 104.971C125.43 105.207 125.43 105.444 125.43 105.687C125.398 106.219 125.398 106.219 125.141 106.476C124.7 106.504 124.259 106.514 123.818 106.517C123.531 106.52 123.244 106.522 122.949 106.525C122.632 106.526 122.314 106.528 121.987 106.529C121.655 106.532 121.324 106.535 120.981 106.537C120.069 106.544 119.156 106.55 118.243 106.555C117.289 106.56 116.336 106.567 115.383 106.574C113.577 106.587 111.771 106.599 109.965 106.61C107.91 106.623 105.854 106.637 103.798 106.651C99.5687 106.68 95.3391 106.708 91.1094 106.734C91.2167 106.893 91.324 107.052 91.4345 107.216C91.5747 107.425 91.7149 107.633 91.8593 107.848C91.9985 108.055 92.1377 108.262 92.2811 108.475C93.2082 109.907 93.8695 111.451 93.6875 113.18C93.9158 113.242 94.1442 113.305 94.3794 113.37C96.5531 114.197 98.2874 116.265 99.3493 118.294C100.338 120.66 100.266 123.798 99.3755 126.183C98.2887 128.418 96.5082 130.464 94.2032 131.484C92.9569 131.892 91.8815 132.065 90.5723 132.067C90.3977 132.068 90.223 132.069 90.043 132.07C89.4626 132.073 88.8822 132.072 88.3018 132.071C87.8837 132.072 87.4655 132.073 87.0474 132.075C85.9149 132.078 84.7824 132.078 83.65 132.078C82.7031 132.077 81.7562 132.079 80.8093 132.08C78.5745 132.083 76.3398 132.083 74.105 132.081C71.803 132.08 69.501 132.083 67.199 132.088C65.2194 132.093 63.2399 132.095 61.2603 132.094C60.0794 132.093 58.8985 132.094 57.7176 132.097C56.6066 132.101 55.4957 132.1 54.3847 132.097C53.9782 132.096 53.5718 132.097 53.1653 132.099C49.6882 132.116 47.3236 131.636 44.7344 129.229C42.6875 127.103 41.9242 124.663 41.9736 121.763C42.1342 118.72 43.5069 116.499 45.7344 114.469C46.8201 113.626 47.7238 113.15 49.086 112.922C49.077 112.691 49.068 112.461 49.0588 112.223C49.0518 111.911 49.0448 111.599 49.0376 111.278C49.0287 110.973 49.0197 110.668 49.0104 110.354C49.0305 109.501 49.2237 108.771 49.4774 107.958C49.5485 107.728 49.6196 107.499 49.6929 107.262C49.7478 107.088 49.8028 106.914 49.8594 106.734C49.6896 106.733 49.5197 106.732 49.3448 106.731C45.2181 106.704 41.0914 106.676 36.9648 106.647C34.9692 106.633 32.9736 106.619 30.978 106.606C29.2392 106.595 27.5005 106.583 25.7618 106.57C24.8406 106.563 23.9194 106.557 22.9981 106.551C21.9714 106.546 20.9447 106.538 19.918 106.529C19.4565 106.527 19.4565 106.527 18.9857 106.525C18.7077 106.522 18.4297 106.52 18.1432 106.517C17.7786 106.515 17.7785 106.515 17.4065 106.512C16.8594 106.476 16.8594 106.476 16.6016 106.219C16.5767 105.713 16.5702 105.206 16.5706 104.7C16.5702 104.37 16.5699 104.04 16.5695 103.7C16.5704 103.331 16.5714 102.961 16.5723 102.592C16.5724 102.206 16.5724 101.82 16.5722 101.434C16.5721 100.382 16.5737 99.3309 16.5755 98.2794C16.5771 97.1818 16.5772 96.0842 16.5775 94.9866C16.5783 92.9066 16.5804 90.8266 16.583 88.7467C16.5859 86.3793 16.5873 84.012 16.5886 81.6446C16.5913 76.7735 16.5959 71.9023 16.6016 67.0312C16.3674 67.0343 16.3674 67.0343 16.1284 67.0376C15.415 67.046 14.7016 67.0512 13.9882 67.0564C13.7426 67.0597 13.4969 67.0631 13.2438 67.0666C11.5122 67.076 10.0918 66.9717 8.60941 65.9999C8.33473 65.821 8.33473 65.821 8.05451 65.6384C6.41147 64.387 5.26333 62.6344 4.91091 60.5826C4.62698 57.9927 4.97845 55.7749 6.54691 53.6249C7.5811 52.4779 8.71642 51.6296 10.1563 51.0468C10.3264 51.0468 10.4966 51.0468 10.6719 51.0468C10.6585 50.7846 10.6585 50.7846 10.6447 50.5171C10.5491 47.2295 11.655 45.0159 13.4756 42.3456C14.2538 41.5217 15.1264 40.8231 16.086 40.2187C16.2561 40.2187 16.4263 40.2187 16.6016 40.2187C16.6016 32.0512 16.6016 23.8837 16.6016 15.4687C18.8285 15.469 21.0554 15.4693 23.3497 15.4696C30.4717 15.4694 37.5937 15.4617 44.7157 15.4491C45.8217 15.4472 46.9276 15.4453 48.0335 15.4435C48.3638 15.443 48.3638 15.443 48.7007 15.4424C52.2675 15.4366 55.8344 15.4363 59.4012 15.438C63.0601 15.4397 66.7189 15.4354 70.3777 15.4258C72.6361 15.42 74.8945 15.4188 77.1529 15.4234C78.7008 15.4261 80.2486 15.4232 81.7965 15.4158C82.6901 15.4117 83.5835 15.4101 84.4771 15.4152C85.4455 15.4195 86.4134 15.4143 87.3817 15.4067C87.6649 15.4102 87.948 15.4137 88.2397 15.4173C89.5991 15.433 89.5991 15.433 90.7844 14.8684C91.1819 14.409 91.1819 14.409 91.625 13.664C92.1749 13.24 92.1749 13.24 92.6885 12.9389C92.8593 12.8362 93.0302 12.7335 93.2061 12.6277C93.6875 12.3749 93.6875 12.3749 94.461 12.1171C94.4773 11.8612 94.4935 11.6053 94.5103 11.3417C94.7925 7.91672 95.8065 4.97504 98.4128 2.571C102.705 -0.598115 108.121 -1.10074 112.701 1.75628ZM98.2164 4.9034C96.9141 6.54986 95.9683 8.69476 96.03 10.816C96.0406 11.6723 96.0226 12.3341 95.75 13.1484C95.0177 13.6746 94.2889 13.9745 93.4539 14.3115C91.9612 15.0296 91.2149 16.3047 90.481 17.7407C90.1026 19.885 90.1123 21.7269 91.2081 23.6522C92.2889 25.1611 93.688 26.3039 95.4922 26.8124C96.6196 26.9281 97.7422 26.9234 98.8748 26.9207C99.2129 26.9229 99.551 26.9251 99.8994 26.9273C100.823 26.933 101.747 26.9338 102.67 26.9333C103.444 26.9333 104.217 26.9355 104.99 26.9376C106.816 26.9426 108.641 26.9433 110.467 26.9416C112.345 26.9399 114.223 26.9458 116.102 26.9553C117.719 26.9633 119.336 26.9662 120.953 26.9652C121.916 26.9646 122.88 26.966 123.844 26.9724C124.92 26.9792 125.996 26.9756 127.072 26.971C127.388 26.9745 127.704 26.9779 128.029 26.9814C130.247 26.9597 132.01 26.5434 133.685 25.0221C135.1 23.5505 135.722 22.0708 135.856 20.0449C135.794 18.1201 135.021 16.3173 133.647 14.9571C132.936 14.4118 132.222 13.9807 131.417 13.5864C130.628 13.0144 130.6 12.6453 130.442 11.6982C129.914 9.28054 128.759 7.74289 126.762 6.30022C124.623 4.95713 122.302 4.65095 119.851 5.20653C118.968 5.49278 118.213 5.92224 117.419 6.39992C116.756 6.78023 116.078 7.01161 115.344 7.21868C115.281 7.03257 115.217 6.84646 115.152 6.65471C114.15 4.41288 112.079 2.75537 109.861 1.81469C105.51 0.284791 101.317 1.64475 98.2164 4.9034ZM17.8907 16.7577C17.8907 22.458 17.8907 28.1582 17.8907 34.0312C52.9429 34.0312 87.995 34.0312 124.109 34.0312C124.109 32.1595 124.109 30.2877 124.109 28.3593C123.278 28.3542 122.447 28.3491 121.59 28.3438C118.84 28.3265 116.089 28.3065 113.339 28.2852C111.671 28.2723 110.004 28.2604 108.337 28.2505C106.727 28.241 105.117 28.2291 103.507 28.2154C102.894 28.2107 102.281 28.2068 101.668 28.2038C100.807 28.1994 99.9459 28.1919 99.085 28.1837C98.833 28.1831 98.581 28.1826 98.3214 28.182C95.4376 28.1471 93.311 27.6074 91.1628 25.609C89.5295 23.8467 88.984 21.7144 89.0469 19.3359C89.2171 18.4851 89.3872 17.6343 89.5625 16.7577C65.9108 16.7577 42.2591 16.7577 17.8907 16.7577ZM17.8907 35.5781C17.8907 36.8542 17.8907 38.1304 17.8907 39.4452C18.3001 39.3602 18.7095 39.2751 19.1314 39.1874C22.7694 38.5408 25.8853 39.0462 29.0531 40.9992C30.0615 41.7351 30.7921 42.5931 31.5547 43.5702C31.8087 43.8319 32.0653 44.091 32.3282 44.3437C32.5209 44.2536 32.7137 44.1636 32.9123 44.0708C33.1662 43.9534 33.4201 43.8361 33.6817 43.7153C33.9329 43.5986 34.1842 43.482 34.443 43.3618C36.658 42.4182 39.388 42.4608 41.6416 43.2641C42.3252 43.542 42.8906 43.8226 43.4957 44.247C44.4026 44.7117 45.2094 44.6869 46.2017 44.6498C46.3803 44.6463 46.559 44.6429 46.743 44.6393C47.1803 44.6302 47.6176 44.6163 48.0547 44.6015C48.0547 45.0269 48.0547 45.4523 48.0547 45.8906C47.289 45.8906 46.5233 45.8906 45.7344 45.8906C45.8587 46.1302 45.983 46.3698 46.1111 46.6167C46.2756 46.9385 46.4401 47.2605 46.6045 47.5825C46.6863 47.7395 46.768 47.8965 46.8523 48.0583C47.2664 48.8737 47.558 49.5745 47.7848 50.4708C48.0954 51.4303 48.3226 51.6392 49.1827 52.1264C49.8438 52.51 50.3332 52.8035 50.8378 53.3828C51.5543 54.0129 51.8986 54.0103 52.8418 54.0068C53.1339 54.0082 53.426 54.0096 53.727 54.0111C54.206 54.0055 54.206 54.0055 54.6947 53.9998C55.2003 54 55.2003 54 55.7162 54.0003C56.6398 54.0006 57.5633 53.9945 58.4869 53.9873C59.4524 53.9809 60.4178 53.9803 61.3833 53.979C63.2113 53.9758 65.0392 53.9674 66.8671 53.957C68.9483 53.9455 71.0295 53.9398 73.1107 53.9346C77.3916 53.9239 81.6723 53.9057 85.9532 53.8827C85.8681 54.2231 85.783 54.5634 85.6953 54.914C74.7203 54.9991 63.7452 55.0841 52.4375 55.1718C52.6928 56.448 52.6928 56.448 52.9532 57.7499C53.0949 59.7621 52.7507 60.8126 52.1797 62.9062C76.9375 63.0338 76.9375 63.0338 102.195 63.164C102.28 63.5043 102.366 63.8446 102.453 64.1952C102.189 64.1951 101.925 64.195 101.654 64.1949C95.2328 64.1929 88.8121 64.1998 82.3913 64.2159C79.2862 64.2235 76.1812 64.2283 73.0761 64.2262C70.3696 64.2244 67.6632 64.2281 64.9567 64.2382C63.5237 64.2433 62.0909 64.2458 60.6579 64.2418C59.3086 64.2381 57.9595 64.2416 56.6103 64.2507C56.1156 64.2527 55.6209 64.2521 55.1262 64.2487C51.9319 64.1254 51.9319 64.1254 49.2384 65.6116C47.7911 66.9815 45.7475 66.8874 43.8809 66.8848C43.4512 66.8888 43.4512 66.8888 43.0128 66.8929C42.0911 66.9005 41.1695 66.903 40.2478 66.9053C39.6766 66.9093 39.1053 66.9136 38.534 66.9183C36.4225 66.9332 34.3109 66.9415 32.1993 66.9506C25.1165 66.9905 25.1165 66.9905 17.8907 67.0312C17.8907 79.6227 17.8907 92.2143 17.8907 105.187C23.2506 105.241 28.6105 105.294 34.1328 105.349C36.6687 105.384 36.6687 105.384 39.2559 105.42C40.7751 105.428 40.7751 105.428 42.2944 105.433C42.9701 105.437 43.6445 105.446 44.3199 105.46C45.3444 105.481 46.3684 105.481 47.3931 105.48C47.6924 105.489 47.9917 105.499 48.3001 105.508C49.5292 105.493 50.314 105.473 51.2526 104.632C51.802 103.964 51.802 103.964 52.2511 103.27C53.9733 100.709 56.9615 99.1519 59.9141 98.4843C64.2991 98.0877 67.9485 98.5956 71.5157 101.32C72.7569 102.415 73.796 103.481 74.6094 104.93C75.2933 104.66 75.9718 104.382 76.6467 104.091C77.0341 103.924 77.0341 103.924 77.4292 103.753C77.6868 103.641 77.9444 103.529 78.2097 103.414C80.8545 102.437 83.8579 102.661 86.4688 103.641C87.4046 104.151 88.3405 104.661 89.3047 105.187C100.79 105.187 112.276 105.187 124.109 105.187C124.109 82.2163 124.109 59.2452 124.109 35.5781C89.0572 35.5781 54.005 35.5781 17.8907 35.5781ZM14.7969 43.3124C14.654 43.453 14.5111 43.5936 14.3639 43.7384C12.618 45.5842 11.9147 47.9801 11.9449 50.4828C11.9472 50.7344 11.9495 50.986 11.9519 51.2452C11.9549 51.435 11.9579 51.6247 11.961 51.8202C11.7586 51.908 11.5562 51.9957 11.3477 52.0861C9.16623 53.0925 7.563 54.1695 6.56302 56.4125C5.94648 58.3778 6.07612 60.3065 7.0142 62.1338C8.05023 63.8752 9.44431 65.0274 11.3924 65.6266C12.0635 65.7629 12.686 65.777 13.3711 65.7801C13.6577 65.7819 13.9443 65.7838 14.2395 65.7857C14.7094 65.7867 14.7094 65.7867 15.1889 65.7878C15.5197 65.7894 15.8506 65.7911 16.1915 65.7929C17.2879 65.7983 18.3844 65.801 19.4808 65.8036C19.8591 65.8046 20.2373 65.8057 20.6156 65.8067C22.3931 65.8116 24.1706 65.8153 25.9482 65.8175C27.9963 65.82 30.0443 65.8268 32.0924 65.8372C33.6779 65.845 35.2633 65.8488 36.8488 65.8496C37.7946 65.8502 38.7403 65.8525 39.686 65.859C40.7425 65.8662 41.7988 65.8651 42.8554 65.8633C43.166 65.8666 43.4767 65.8699 43.7968 65.8733C46.3887 65.8573 48.2895 65.204 50.1867 63.4127C51.581 61.8296 51.8528 60.135 51.7779 58.0631C51.4904 55.9691 50.4516 54.5054 48.8292 53.1969C48.1731 52.7582 47.5342 52.5088 46.7657 52.3359C46.7497 52.0062 46.7338 51.6765 46.7173 51.3368C46.4578 49.1032 45.3605 47.3477 43.7364 45.8281C41.7075 44.2431 39.5169 43.6059 36.9688 43.8281C35.6183 44.0899 34.4988 44.4608 33.4078 45.3105C32.586 45.8906 32.586 45.8906 31.9334 45.8634C31.1395 45.5757 31.0021 45.3175 30.604 44.5854C29.3321 42.5477 27.4505 41.1057 25.1557 40.3808C21.1871 39.5959 17.6663 40.3337 14.7969 43.3124ZM53.2392 103.72C50.8029 106.829 50.3063 110.133 50.1172 113.953C49.961 114.001 49.8048 114.048 49.6439 114.097C47.2272 114.934 45.3532 116.375 44.1714 118.674C43.1595 120.91 43.1393 123.129 43.9197 125.456C44.834 127.553 46.5514 129.292 48.6332 130.231C50.4456 130.927 52.2929 130.855 54.2029 130.844C54.6106 130.846 55.0183 130.848 55.426 130.85C56.5265 130.854 57.6269 130.853 58.7274 130.849C59.883 130.847 61.0386 130.849 62.1942 130.851C64.1342 130.853 66.0742 130.85 68.0143 130.845C70.2523 130.84 72.4903 130.842 74.7283 130.847C76.6552 130.852 78.582 130.853 80.5088 130.85C81.6573 130.848 82.8057 130.848 83.9542 130.851C85.0344 130.854 86.1144 130.852 87.1945 130.846C87.5892 130.845 87.9839 130.845 88.3786 130.848C91.7056 130.865 94.0178 130.343 96.4711 128.006C98.0999 126.152 98.6977 124.052 98.6544 121.621C98.4066 119.063 97.1462 117.165 95.2344 115.5C94.7789 115.241 94.3169 114.994 93.8487 114.759C93.0462 114.321 92.7237 114.114 92.3672 113.262C92.2472 112.729 92.1386 112.193 92.041 111.656C91.5656 109.261 90.158 107.456 88.2735 105.961C85.5908 104.209 82.6643 103.542 79.5089 104.18C77.9606 104.647 76.2816 105.32 75.125 106.476C74.4936 106.445 74.4936 106.445 73.836 106.219C73.4442 105.758 73.4442 105.758 73.1109 105.171C71.3198 102.325 68.7869 100.647 65.586 99.6606C60.9349 98.778 56.4773 100.327 53.2392 103.72Z" stroke="#2952CE" mask="url(#path-2-outside-1_2606_13063)"/>
<path d="M28.7188 93.8516H28.5138L28.4736 94.0525L28.2158 95.3416L28.156 95.6404L28.4608 95.6406C37.6301 95.6464 46.7994 95.6509 55.9687 95.6536L59.2822 95.6546L59.9494 95.6548C63.5239 95.6559 67.0985 95.6577 70.673 95.6601C74.3518 95.6625 78.0307 95.6642 81.7096 95.6648C83.9773 95.6651 86.2449 95.6658 88.5125 95.6679C90.081 95.6693 91.6495 95.6701 93.2181 95.67L93.5063 95.6699C94.3148 95.6697 95.1231 95.6696 95.9313 95.6705C96.7715 95.6718 97.6117 95.6726 98.4521 95.6723L98.4522 95.6723L99.3648 95.6716L99.3653 95.6716L100.232 95.6739L100.233 95.6739L101.012 95.6723L101.012 95.6723L101.69 95.6726L101.698 95.6726L101.706 95.6721L101.747 95.6696C101.959 95.6563 102.122 95.6461 102.253 95.5961C102.4 95.5404 102.501 95.4394 102.609 95.3302C102.616 95.3234 102.623 95.3165 102.63 95.3096L102.73 95.2095L102.696 95.0722L102.438 94.0409L102.391 93.8516H102.195H102.049H101.903H101.756H101.61H101.464H101.317H101.171H101.025H100.879H100.732H100.586H100.44H100.294H100.148H100.002H99.8554H99.7093H99.5632H99.4171H99.271H99.125H98.979H98.833H98.687H98.541H98.395H98.2491H98.1032H97.9573H97.8114H97.6655H97.5196H97.3738H97.2279H97.0821H96.9363H96.7905H96.6447H96.499H96.3532H96.2075H96.0618H95.9161H95.7704H95.6248H95.4791H95.3335H95.1879H95.0423H94.8967H94.7511H94.6056H94.46H94.3145H94.169H94.0235H93.878H93.7325H93.5871H93.4417H93.2962H93.1508H93.0054H92.8601H92.7147H92.5693H92.424H92.2787H92.1334H91.9881H91.8428H91.6976H91.5523H91.4071H91.2619H91.1167H90.9715H90.8263H90.6811H90.536H90.3909H90.2458H90.1006H89.9556H89.8105H89.6654H89.5204H89.3753H89.2303H89.0853H88.9403H88.7953H88.6504H88.5054H88.3605H88.2156H88.0707H87.9258H87.7809H87.636H87.4912H87.3463H87.2015H87.0567H86.9119H86.7671H86.6223H86.4776H86.3328H86.1881H86.0434H85.8986H85.7539H85.6093H85.4646H85.3199H85.1753H85.0307H84.8861H84.7414H84.5969H84.4523H84.3077H84.1632H84.0186H83.8741H83.7296H83.5851H83.4406H83.2961H83.1516H83.0072H82.8628H82.7183H82.5739H82.4295H82.2851H82.1407H81.9964H81.852H81.7077H81.5634H81.419H81.2747H81.1304H80.9862H80.8419H80.6976H80.5534H80.4092H80.2649H80.1207H79.9765H79.8324H79.6882H79.544H79.3999H79.2557H79.1116H78.9675H78.8234H78.6793H78.5352H78.3912H78.2471H78.1031H77.959H77.815H77.671H77.527H77.383H77.239H77.0951H76.9511H76.8071H76.6632H76.5193H76.3754H76.2315H76.0876H75.9437H75.7998H75.656H75.5121H75.3683H75.2245H75.0807H74.9369H74.7931H74.6493H74.5055H74.3618H74.218H74.0743H73.9305H73.7868H73.6431H73.4994H73.3557H73.212H73.0684H72.9247H72.7811H72.6374H72.4938H72.3502H72.2066H72.063H71.9194H71.7758H71.6323H71.4887H71.3452H71.2016H71.0581H70.9146H70.7711H70.6276H70.4841H70.3406H70.1971H70.0537H69.9102H69.7668H69.6234H69.4799H69.3365H69.1931H69.0497H68.9063H68.763H68.6196H68.4762H68.3329H68.1896H68.0462H67.9029H67.7596H67.6163H67.473H67.3297H67.1864H67.0432H66.8999H66.7567H66.6134H66.4702H66.327H66.1838H66.0405H65.8974H65.7542H65.611H65.4678H65.3246H65.1815H65.0383H64.8952H64.7521H64.609H64.4658H64.3227H64.1796H64.0366H63.8935H63.7504H63.6073H63.4643H63.3212H63.1782H63.0352H62.8921H62.7491H62.6061H62.4631H62.3201H62.1771H62.0342H61.8912H61.7482H61.6053H61.4623H61.3194H61.1765H61.0335H60.8906H60.7477H60.6048H60.4619H60.319H60.1762H60.0333H59.8904H59.7476H59.6047H59.4619H59.319H59.1762H59.0334H58.8906H58.7478H58.605H58.4622H58.3194H58.1766H58.0338H57.891H57.7483H57.6055H57.4628H57.32H57.1773H57.0346H56.8919H56.7491H56.6064H56.4637H56.321H56.1784H56.0357H55.893H55.7503H55.6077H55.465H55.3224H55.1797H55.0371H54.8944H54.7518H54.6092H54.4666H54.324H54.1814H54.0388H53.8962H53.7536H53.611H53.4684H53.3259H53.1833H53.0407H52.8982H52.7556H52.6131H52.4706H52.328H52.1855H52.043H51.9005H51.758H51.6155H51.473H51.3305H51.188H51.0455H50.903H50.7606H50.6181H50.4757H50.3332H50.1907H50.0483H49.9059H49.7634H49.621H49.4786H49.3361H49.1937H49.0513H48.9089H48.7665H48.6241H48.4817H48.3393H48.1969H48.0546H47.9122H47.7698H47.6274H47.4851H47.3427H47.2004H47.058H46.9157H46.7733H46.631H46.4887H46.3463H46.204H46.0617H45.9194H45.7771H45.6348H45.4925H45.3502H45.2079H45.0656H44.9233H44.781H44.6387H44.4964H44.3542H44.2119H44.0696H43.9274H43.7851H43.6428H43.5006H43.3583H43.2161H43.0738H42.9316H42.7894H42.6471H42.5049H42.3627H42.2205H42.0782H41.936H41.7938H41.6516H41.5094H41.3672H41.225H41.0828H40.9406H40.7984H40.6562H40.514H40.3718H40.2296H40.0875H39.9453H39.8031H39.6609H39.5188H39.3766H39.2344H39.0923H38.9501H38.808H38.6658H38.5236H38.3815H38.2393H38.0972H37.9551H37.8129H37.6708H37.5286H37.3865H37.2444H37.1022H36.9601H36.818H36.6758H36.5337H36.3916H36.2495H36.1074H35.9652H35.8231H35.681H35.5389H35.3968H35.2547H35.1126H34.9705H34.8284H34.6863H34.5442H34.4021H34.26H34.1179H33.9758H33.8337H33.6916H33.5495H33.4074H33.2653H33.1232H32.9811H32.839H32.6969H32.5549H32.4128H32.2707H32.1286H31.9865H31.8444H31.7024H31.5603H31.4182H31.2761H31.134H30.992H30.8499H30.7078H30.5657H30.4236H30.2816H30.1395H29.9974H29.8553H29.7133H29.5712H29.4291H29.287H29.145H29.0029H28.8608H28.7188Z" fill="#2952CE" stroke="#2952CE" stroke-width="0.5"/>
<path d="M101.012 73.2583L101.012 73.2583L100.232 73.2598L100.232 73.2598L99.3657 73.2576L99.3649 73.2576L98.4519 73.2582C97.612 73.2586 96.7721 73.2578 95.9321 73.2565C95.1233 73.2555 94.3146 73.2557 93.5061 73.2559L93.218 73.2559C91.6497 73.2561 90.0813 73.2553 88.513 73.2538C86.2452 73.2517 83.9774 73.2511 81.7097 73.2507C78.0309 73.2502 74.3521 73.2484 70.6733 73.246C67.0987 73.2436 63.5242 73.2418 59.9496 73.2407L59.2824 73.2405L55.9688 73.2395C46.9012 73.2369 37.8335 73.2324 28.7659 73.2268L28.9237 72.4375H29.0029H29.145H29.287H29.4291H29.5712H29.7133H29.8553H29.9974H30.1395H30.2816H30.4236H30.5657H30.7078H30.8499H30.992H31.134H31.2761H31.4182H31.5603H31.7024H31.8444H31.9865H32.1286H32.2707H32.4128H32.5549H32.6969H32.839H32.9811H33.1232H33.2653H33.4074H33.5495H33.6916H33.8337H33.9758H34.1179H34.26H34.4021H34.5442H34.6863H34.8284H34.9705H35.1126H35.2547H35.3968H35.5389H35.681H35.8231H35.9652H36.1074H36.2495H36.3916H36.5337H36.6758H36.818H36.9601H37.1022H37.2444H37.3865H37.5286H37.6708H37.8129H37.9551H38.0972H38.2393H38.3815H38.5236H38.6658H38.808H38.9501H39.0923H39.2344H39.3766H39.5188H39.6609H39.8031H39.9453H40.0875H40.2296H40.3718H40.514H40.6562H40.7984H40.9406H41.0828H41.225H41.3672H41.5094H41.6516H41.7938H41.936H42.0782H42.2205H42.3627H42.5049H42.6471H42.7894H42.9316H43.0738H43.2161H43.3583H43.5006H43.6428H43.7851H43.9274H44.0696H44.2119H44.3542H44.4964H44.6387H44.781H44.9233H45.0656H45.2079H45.3502H45.4925H45.6348H45.7771H45.9194H46.0617H46.204H46.3463H46.4887H46.631H46.7733H46.9157H47.058H47.2004H47.3427H47.4851H47.6274H47.7698H47.9122H48.0546H48.1969H48.3393H48.4817H48.6241H48.7665H48.9089H49.0513H49.1937H49.3361H49.4786H49.621H49.7634H49.9059H50.0483H50.1907H50.3332H50.4757H50.6181H50.7606H50.903H51.0455H51.188H51.3305H51.473H51.6155H51.758H51.9005H52.043H52.1855H52.328H52.4706H52.6131H52.7556H52.8982H53.0407H53.1833H53.3259H53.4684H53.611H53.7536H53.8962H54.0388H54.1814H54.324H54.4666H54.6092H54.7518H54.8944H55.0371H55.1797H55.3224H55.465H55.6077H55.7503H55.893H56.0357H56.1784H56.321H56.4637H56.6064H56.7491H56.8919H57.0346H57.1773H57.32H57.4628H57.6055H57.7483H57.891H58.0338H58.1766H58.3194H58.4622H58.605H58.7478H58.8906H59.0334H59.1762H59.319H59.4619H59.6047H59.7476H59.8904H60.0333H60.1762H60.319H60.4619H60.6048H60.7477H60.8906H61.0335H61.1765H61.3194H61.4623H61.6053H61.7482H61.8912H62.0342H62.1771H62.3201H62.4631H62.6061H62.7491H62.8921H63.0352H63.1782H63.3212H63.4643H63.6073H63.7504H63.8935H64.0366H64.1796H64.3227H64.4658H64.609H64.7521H64.8952H65.0383H65.1815H65.3246H65.4678H65.611H65.7542H65.8974H66.0405H66.1838H66.327H66.4702H66.6134H66.7567H66.8999H67.0432H67.1864H67.3297H67.473H67.6163H67.7596H67.9029H68.0462H68.1896H68.3329H68.4762H68.6196H68.763H68.9063H69.0497H69.1931H69.3365H69.4799H69.6234H69.7668H69.9102H70.0537H70.1971H70.3406H70.4841H70.6276H70.7711H70.9146H71.0581H71.2016H71.3452H71.4887H71.6323H71.7758H71.9194H72.063H72.2066H72.3502H72.4938H72.6374H72.7811H72.9247H73.0684H73.212H73.3557H73.4994H73.6431H73.7868H73.9305H74.0743H74.218H74.3618H74.5055H74.6493H74.7931H74.9369H75.0807H75.2245H75.3683H75.5121H75.656H75.7998H75.9437H76.0876H76.2315H76.3754H76.5193H76.6632H76.8071H76.9511H77.0951H77.239H77.383H77.527H77.671H77.815H77.959H78.1031H78.2471H78.3912H78.5352H78.6793H78.8234H78.9675H79.1116H79.2557H79.3999H79.544H79.6882H79.8324H79.9765H80.1207H80.2649H80.4092H80.5534H80.6976H80.8419H80.9862H81.1304H81.2747H81.419H81.5634H81.7077H81.852H81.9964H82.1407H82.2851H82.4295H82.5739H82.7183H82.8628H83.0072H83.1516H83.2961H83.4406H83.5851H83.7296H83.8741H84.0186H84.1632H84.3077H84.4523H84.5969H84.7414H84.8861H85.0307H85.1753H85.3199H85.4646H85.6093H85.7539H85.8986H86.0434H86.1881H86.3328H86.4776H86.6223H86.7671H86.9119H87.0567H87.2015H87.3463H87.4912H87.636H87.7809H87.9258H88.0707H88.2156H88.3605H88.5054H88.6504H88.7953H88.9403H89.0853H89.2303H89.3753H89.5204H89.6654H89.8105H89.9556H90.1006H90.2458H90.3909H90.536H90.6811H90.8263H90.9715H91.1167H91.2619H91.4071H91.5523H91.6976H91.8428H91.9881H92.1334H92.2787H92.424H92.5693H92.7147H92.8601H93.0054H93.1508H93.2962H93.4417H93.5871H93.7325H93.878H94.0235H94.169H94.3145H94.46H94.6056H94.7511H94.8967H95.0423H95.1879H95.3335H95.4791H95.6248H95.7704H95.9161H96.0618H96.2075H96.3532H96.499H96.6447H96.7905H96.9363H97.0821H97.2279H97.3738H97.5196H97.6655H97.8114H97.9573H98.1032H98.2491H98.395H98.541H98.687H98.833H98.979H99.125H99.271H99.4171H99.5632H99.7093H99.8554H100.002H100.148H100.294H100.44H100.586H100.732H100.879H101.025H101.171H101.317H101.464H101.61H101.756H101.903H102L102.176 73.1404C102.119 73.1937 102.1 73.2055 102.076 73.2146C102.025 73.2338 101.948 73.2417 101.683 73.2586L101.012 73.2583Z" fill="#2952CE" stroke="#2952CE" stroke-width="0.5"/>
<path d="M31.877 82.7316L31.8771 82.7316C32.6497 82.7305 33.4221 82.7313 34.1942 82.7321L34.2097 82.7321C34.7652 82.7318 35.3206 82.7313 35.8761 82.7308L35.8762 82.7308C37.3885 82.7296 38.9009 82.7301 40.4131 82.7309M31.877 82.7316L40.4131 82.7309M31.877 82.7316L31.1787 82.7328C31.0179 82.7323 30.8485 82.7276 30.6758 82.7228C30.3776 82.7144 30.0692 82.7058 29.7774 82.7185C29.3015 82.7394 28.816 82.8163 28.3491 83.0497L28.1783 83.1351L28.2158 83.3224L28.4736 84.6114L28.5138 84.8124H28.7188H28.8323H28.9457H29.0592H29.1727H29.2861H29.3996H29.513H29.6264H29.7398H29.8532H29.9666H30.0799H30.1933H30.3066H30.4199H30.5332H30.6465H30.7598H30.8731H30.9863H31.0996H31.2128H31.326H31.4392H31.5524H31.6656H31.7788H31.892H32.0051H32.1182H32.2314H32.3445H32.4576H32.5707H32.6837H32.7968H32.9098H33.0229H33.1359H33.2489H33.3619H33.4749H33.5879H33.7008H33.8138H33.9267H34.0397H34.1526H34.2655H34.3784H34.4913H34.6041H34.717H34.8298H34.9427H35.0555H35.1683H35.2811H35.3939H35.5067H35.6194H35.7322H35.8449H35.9577H36.0704H36.1831H36.2958H36.4085H36.5212H36.6338H36.7465H36.8591H36.9717H37.0844H37.197H37.3096H37.4221H37.5347H37.6473H37.7598H37.8724H37.9849H38.0974H38.2099H38.3224H38.4349H38.5474H38.6599H38.7723H38.8847H38.9972H39.1096H39.222H39.3344H39.4468H39.5592H39.6715H39.7839H39.8963H40.0086H40.1209H40.2332H40.3455H40.4578H40.5701H40.6824H40.7947H40.9069H41.0191H41.1314H41.2436H41.3558H41.468H41.5802H41.6924H41.8046H41.9167H42.0289H42.141H42.2531H42.3653H42.4774H42.5895H42.7016H42.8137H42.9257H43.0378H43.1498H43.2619H43.3739H43.4859H43.598H43.71H43.822H43.9339H44.0459H44.1579H44.2698H44.3818H44.4937H44.6056H44.7176H44.8295H44.9414H45.0533H45.1651H45.277H45.3889H45.5007H45.6126H45.7244H45.8362H45.948H46.0598H46.1716H46.2834H46.3952H46.507H46.6187H46.7305H46.8422H46.954H47.0657H47.1774H47.2891H47.4008H47.5125H47.6242H47.7359H47.8475H47.9592H48.0708H48.1825H48.2941H48.4057H48.5173H48.6289H48.7405H48.8521H48.9637H49.0753H49.1868H49.2984H49.4099H49.5214H49.633H49.7445H49.856H49.9675H50.079H50.1905H50.302H50.4134H50.5249H50.6363H50.7478H50.8592H50.9707H51.0821H51.1935H51.3049H51.4163H51.5277H51.6391H51.7504H51.8618H51.9732H52.0845H52.1959H52.3072H52.4185H52.5298H52.6411H52.7525H52.8638H52.975H53.0863H53.1976H53.3089H53.4201H53.5314H53.6426H53.7539H53.8651H53.9763H54.0875H54.1987H54.3099H54.4211H54.5323H54.6435H54.7547H54.8658H54.977H55.0881H55.1993H55.3104H55.4215H55.5327H55.6438H55.7549H55.866H55.9771H56.0882H56.1992H56.3103H56.4214H56.5324H56.6435H56.7546H56.8656H56.9766H57.0877H57.1987H57.3097H57.4207H57.5317H57.6427H57.7537H57.8647H57.9756H58.0866H58.1976H58.3085H58.4195H58.5304H58.6413H58.7523H58.8632H58.9741H59.085H59.1959H59.3068H59.4177H59.5286H59.6395H59.7504H59.8613H59.9721H60.083H60.1938H60.3047H60.4155H60.5263H60.6372H60.748H60.8588H60.9696H61.0804H61.1912H61.302H61.4128H61.5236H61.6344H61.7451H61.8559H61.9667H62.0774H62.1882H62.2989H62.4097H62.5204H62.6311H62.7419H62.8526H62.9633H63.074H63.1847H63.2954H63.4061H63.5168H63.6274H63.7381H63.8488H63.9595H64.0701H64.1808H64.2914H64.4021H64.5127H64.6234H64.734H64.8446H64.9552H65.0659H65.1765H65.2871H65.3977H65.5083H65.6189H65.7295H65.84H65.9506H66.0612H66.1718H66.2823H66.3929H66.5035H66.614H66.7246H66.8351H66.9456H67.0562H67.1667H67.2772H67.3878H67.4983H67.6088H67.7193H67.8298H67.9403H68.0508H68.1613H68.2718H68.3823H68.4928H68.6032H68.7137H68.8242H68.9346H69.0451H69.1556H69.266H69.3765H69.4869H69.5974H69.7078H69.8182H69.9287H70.0391H70.1495H70.2599H70.3703H70.4808H70.5912H70.7016H70.812H70.9224H71.0328H71.1432H71.2536H71.3639H71.4743H71.5847H71.6951H71.8055H71.9158H72.0262H72.1366H72.2469H72.3573H72.4676H72.578H72.6883H72.7987H72.909H73.0194H73.1297H73.24H73.3504H73.4607H73.571H73.6813H73.7917H73.902H74.0123H74.1226H74.2329H74.3432H74.4535H74.5638H74.6741H74.7844H74.8947H75.005H75.1153H75.2256H75.3358H75.4461H75.5564H75.6667H75.777H75.8872H75.9975H76.1078H76.218H76.3283H76.4386H76.5488H76.6591H76.7693H76.8796H76.9898H77.1001H77.2103H77.3206H77.4308H77.541H77.6513H77.7615H77.8718H77.982H78.0922H78.2024H78.3127H78.4229H78.5331H78.6433H78.7536H78.8638H78.974H79.0842H79.1944H79.3047H79.4149H79.5251H79.6353H79.7455H79.8557H79.9659H80.0761H80.1863H80.2965H80.4067H80.5169H80.6271H80.7373H80.8475H80.9577H81.0679H81.1781H81.2883H81.3984H81.5086H81.6188H81.729H81.8392H81.9494H82.0596H82.1698H82.2799H82.3901H82.5003H82.6105H82.7207H82.8308H82.941H83.0512H83.1614H83.2715H83.3817H83.4919H83.6021H83.7122H83.8224H83.9326H84.0428H84.1529H84.2631H84.3733H84.4834H84.5936H84.7038H84.814H84.9241H85.0343H85.1445H85.2546H85.3648H85.475H85.5851H85.6953H85.9003L85.9405 84.6114L86.1983 83.3224L86.2357 83.1351L86.0649 83.0497L86.0524 83.0435C85.7736 82.904 85.5978 82.8161 85.3002 82.7738C85.0259 82.7349 84.6405 82.7336 83.932 82.7312L83.8964 82.731V82.731L83.8949 82.731L83.2359 82.7328C83.2357 82.7328 83.2356 82.7328 83.2354 82.7328M31.877 82.7316L83.2354 82.7328M40.4131 82.7309C41.7774 82.7314 43.1417 82.7311 44.506 82.7307M40.4131 82.7309L44.506 82.7307M74.9424 82.9804L74.9423 82.7304C76.422 82.7296 77.9016 82.7301 79.3812 82.7316C79.3813 82.7316 79.3813 82.7316 79.3813 82.7316M74.9424 82.9804L79.3813 82.7316M74.9424 82.9804L74.9423 82.7304C73.3683 82.7312 71.7942 82.7312 70.2202 82.7308C67.5877 82.7301 64.9552 82.7303 62.3227 82.7314C59.2518 82.7328 56.1809 82.7333 53.11 82.7319C50.4571 82.7307 47.8042 82.7301 45.1513 82.7305C44.9362 82.7306 44.7211 82.7306 44.506 82.7307M74.9424 82.9804L44.506 82.7307M79.3813 82.7316C79.9256 82.732 80.4698 82.7319 81.014 82.7313C81.7546 82.7306 82.4951 82.7315 83.2354 82.7328M79.3813 82.7316L83.2354 82.7328" fill="#2952CE" stroke="#2952CE" stroke-width="0.5"/>
<path d="M25.1094 52.336C25.1094 52.7614 25.1094 53.1868 25.1094 53.6251C24.3475 54.0135 23.5845 54.3995 22.8213 54.7852C22.4958 54.9512 22.4958 54.9512 22.1637 55.1206C21.956 55.2253 21.7482 55.33 21.5342 55.4378C21.3425 55.535 21.1508 55.6322 20.9533 55.7324C20.4688 55.9454 20.4688 55.9454 19.9531 55.9454C19.9531 56.1155 19.9531 56.2857 19.9531 56.461C20.2816 56.5622 20.2816 56.5622 20.6168 56.6654C21.5415 56.9913 22.385 57.3815 23.2564 57.8306C23.5505 57.9785 23.8446 58.1264 24.1476 58.2788C24.8516 58.7813 24.8516 58.7813 25.0802 59.4853C25.0898 59.6784 25.0994 59.8714 25.1094 60.0704C23.9612 60.4216 23.4027 60.2284 22.35 59.6857C22.0761 59.5464 21.8023 59.4072 21.5201 59.2637C21.237 59.1152 20.9538 58.9666 20.6621 58.8135C20.375 58.667 20.0878 58.5204 19.792 58.3694C17.6871 57.2887 17.6871 57.2887 17.375 56.9766C17.3645 56.4611 17.364 55.9453 17.375 55.4298C18.2668 54.943 19.1611 54.4612 20.0579 53.9836C20.512 53.7406 20.964 53.4938 21.4159 53.2469C21.7026 53.0949 21.9892 52.9428 22.2845 52.7862C22.5478 52.6444 22.8111 52.5026 23.0823 52.3566C23.9002 52.0481 24.2875 52.0766 25.1094 52.336Z" fill="#2952CE"/>
<path d="M33.1016 52.0781C34.1859 52.2205 35.0441 52.4678 36.0221 52.9543C36.2707 53.0779 36.5193 53.2015 36.7754 53.3289C37.0306 53.4585 37.2859 53.5881 37.5488 53.7217C37.8081 53.8493 38.0673 53.9769 38.3344 54.1084C38.5816 54.2327 38.8289 54.357 39.0836 54.485C39.3087 54.5982 39.5338 54.7113 39.7657 54.8278C40.3203 55.1719 40.3203 55.1719 40.8359 55.9453C40.805 56.4694 40.805 56.4694 40.5781 56.9766C40.1197 57.318 40.1197 57.318 39.5267 57.614C39.3124 57.7235 39.098 57.8331 38.8772 57.9459C38.6515 58.0567 38.4259 58.1675 38.1934 58.2817C37.7514 58.5047 37.3097 58.7279 36.868 58.9514C36.6602 59.0552 36.4524 59.159 36.2383 59.266C35.7897 59.4978 35.3539 59.7542 34.9234 60.0179C34.2765 60.3946 33.8379 60.3912 33.1016 60.3281C33.0165 59.9027 32.9314 59.4773 32.8438 59.0391C33.6485 58.6077 34.4545 58.1786 35.2607 57.75C35.4901 57.627 35.7194 57.5041 35.9556 57.3774C36.175 57.2611 36.3943 57.1447 36.6203 57.0249C36.8228 56.9169 37.0253 56.8089 37.234 56.6976C37.7422 56.4609 37.7422 56.4609 38.2578 56.4609C38.2578 56.2908 38.2578 56.1206 38.2578 55.9453C38.0445 55.8822 37.8311 55.819 37.6113 55.754C36.5736 55.3802 35.6456 54.8954 34.6807 54.3662C34.5032 54.2702 34.3257 54.1741 34.1429 54.0752C33.7092 53.8403 33.2764 53.6039 32.8438 53.3672C32.9288 52.9418 33.0139 52.5164 33.1016 52.0781Z" fill="#2952CE"/>
<path d="M86.4687 116.531C87.6318 117.733 87.5726 119.064 87.5554 120.651C87.4613 121.974 87.1656 122.844 86.1465 123.75C85.1913 124.097 84.6083 124.016 83.6328 123.75C82.6851 123.11 82.3816 122.356 82.1514 121.244C81.9869 119.767 82.1288 118.508 82.7949 117.176C83.9765 115.863 84.8555 115.874 86.4687 116.531ZM84.4062 117.562C83.6034 119.04 83.4365 120.301 83.8906 121.945C84.2658 122.404 84.2658 122.404 84.664 122.719C85.1796 122.515 85.1796 122.515 85.6953 122.203C85.9575 121.416 85.9959 120.852 86.0015 120.028C86.0069 119.661 86.0069 119.661 86.0125 119.288C85.9521 118.582 85.7977 118.165 85.4375 117.562C85.0972 117.562 84.7569 117.562 84.4062 117.562Z" fill="#2952CE"/>
<path d="M69.4531 116.273C70.3917 116.925 70.7034 117.668 70.9356 118.779C71.1184 120.447 70.9204 122.082 69.9688 123.492C69.1576 124.108 68.3855 124.13 67.3906 124.008C66.5835 123.531 66.1906 123.15 65.7632 122.316C65.3776 120.388 65.2939 118.494 66.3594 116.789C67.4419 116.019 68.1862 115.86 69.4531 116.273ZM68.1641 117.305C67.5127 117.928 67.158 118.293 67.0805 119.219C67.0242 121.099 67.0242 121.099 67.9063 122.719C68.6013 122.464 68.8874 122.291 69.2598 121.639C69.6206 120.286 69.613 119.065 68.9375 117.82C68.6823 117.65 68.4271 117.48 68.1641 117.305Z" fill="#2952CE"/>
<path d="M58.9472 116.676C59.9862 118.123 60.0045 119.639 59.7791 121.343C59.5679 122.378 59.2713 123.197 58.4155 123.847C57.6554 124.064 57.0929 124.104 56.3047 124.008C55.4975 123.531 55.1046 123.15 54.6772 122.316C54.2977 120.418 54.2221 118.638 55.2221 116.926C56.2077 115.668 57.7285 115.83 58.9472 116.676ZM57.0781 117.305C56.4267 117.928 56.072 118.293 55.9945 119.219C55.9382 121.099 55.9382 121.099 56.8203 122.719C57.3276 122.711 57.3276 122.711 57.8515 122.461C58.4875 121.125 58.5672 119.802 58.1577 118.384C57.8666 117.743 57.8666 117.743 57.0781 117.305Z" fill="#2952CE"/>
<path d="M107.867 10.3125C107.867 10.7379 107.867 11.1633 107.867 11.6016C107.442 11.6866 107.016 11.7717 106.578 11.8594C106.578 12.1638 106.578 12.4682 106.578 12.7819C106.578 17.2734 106.578 17.2734 106.569 18.1365C106.567 18.4526 106.564 18.7686 106.562 19.0942C106.559 19.411 106.556 19.7277 106.553 20.054C106.539 20.8875 106.539 20.8875 106.836 21.6563C107.355 21.8453 107.355 21.8453 107.867 21.9141C107.867 22.3395 107.867 22.7648 107.867 23.2031C106.085 23.2842 106.085 23.2842 105.289 22.6875C104.735 21.6179 104.719 20.7052 104.741 19.5132C104.746 19.1898 104.751 18.8665 104.755 18.5333C104.761 18.2877 104.767 18.0421 104.773 17.7891C104.433 17.6189 104.093 17.4488 103.742 17.2734C103.742 16.9331 103.742 16.5928 103.742 16.2422C104.083 16.072 104.423 15.9019 104.773 15.7266C104.76 15.3582 104.76 15.3582 104.746 14.9823C104.739 14.659 104.732 14.3356 104.725 14.0024C104.716 13.6824 104.707 13.3624 104.698 13.0326C104.778 12.0603 104.965 11.5983 105.547 10.8281C106.319 10.2879 106.939 10.2609 107.867 10.3125Z" fill="#2952CE"/>
<path d="M117.664 10.3125C117.983 10.3285 118.302 10.3444 118.631 10.3608C118.9 10.3743 118.9 10.3743 119.175 10.388C120.03 10.6705 120.302 11.0937 120.758 11.8594C120.832 12.5713 120.857 13.1694 120.822 13.8735C120.818 14.0522 120.813 14.2308 120.808 14.4148C120.796 14.8522 120.778 15.2894 120.758 15.7266C121.098 15.8967 121.438 16.0669 121.789 16.2422C121.704 16.6676 121.619 17.093 121.531 17.5312C121.276 17.6163 121.021 17.7014 120.758 17.7891C120.764 18.0563 120.77 18.3235 120.776 18.5988C120.781 18.9519 120.785 19.3051 120.79 19.6582C120.794 19.834 120.799 20.0098 120.803 20.1909C120.812 21.1523 120.798 21.8834 120.242 22.6875C119.409 23.2826 118.665 23.2486 117.664 23.2031C117.664 22.7777 117.664 22.3523 117.664 21.9141C118.175 21.7864 118.175 21.7864 118.695 21.6562C118.946 20.467 118.967 19.3493 118.937 18.1415C118.953 17.5312 118.953 17.5312 119.098 16.9693C119.269 16.4785 119.269 16.4785 118.953 15.9844C118.935 15.2837 118.929 14.59 118.937 13.8896C118.938 13.6952 118.939 13.5008 118.941 13.3005C118.944 12.8201 118.948 12.3397 118.953 11.8594C118.528 11.7743 118.102 11.6892 117.664 11.6016C117.664 11.1762 117.664 10.7508 117.664 10.3125Z" fill="#2952CE"/>
<path d="M31.0391 49.2422C31.3794 49.4123 31.7197 49.5825 32.0703 49.7578C31.7015 51.8978 30.9154 53.8391 30.1122 55.8456C29.8776 56.4319 29.6459 57.0194 29.4146 57.607C29.2661 57.9817 29.1174 58.3563 28.9685 58.7309C28.8995 58.9057 28.8304 59.0806 28.7593 59.2607C28.4532 60.0226 28.1452 60.6729 27.6875 61.3594C27.2621 61.2743 26.8367 61.1892 26.3984 61.1016C26.5364 59.5558 26.8762 58.2654 27.4438 56.8255C27.5217 56.6236 27.5996 56.4218 27.6799 56.2138C27.8439 55.7909 28.009 55.3684 28.1753 54.9464C28.4296 54.2995 28.6786 53.6507 28.9272 53.0016C29.0877 52.5896 29.2485 52.1777 29.4096 51.7659C29.4838 51.572 29.5579 51.3782 29.6343 51.1784C30.0062 50.245 30.1824 49.8133 31.0391 49.2422Z" fill="#2952CE"/>
<path d="M92.5875 82.7297V82.7297L93.3086 82.7313L93.309 82.7313L94.0483 82.7306L94.0485 82.7306C94.5653 82.7304 95.0822 82.7309 95.599 82.7319L92.5875 82.7297ZM92.5875 82.7297L92.5861 82.7297M92.5875 82.7297L92.5861 82.7297M92.5861 82.7297L91.9193 82.7322C91.9192 82.7322 91.9191 82.7322 91.919 82.7322C91.9035 82.7322 91.8881 82.7322 91.8728 82.7322C91.5705 82.7325 91.3153 82.7327 91.0661 82.7698C90.7964 82.81 90.5398 82.8919 90.2241 83.0498L90.0533 83.1352L90.0908 83.3224L90.3486 84.6115L90.3888 84.8124H90.5938H90.6169H90.64H90.6631H90.6862H90.7093H90.7324H90.7555H90.7786H90.8017H90.8247H90.8478H90.8709H90.894H90.9171H90.9401H90.9632H90.9863H91.0093H91.0324H91.0555H91.0785H91.1016H91.1246H91.1477H91.1707H91.1938H91.2168H91.2399H91.2629H91.286H91.309H91.332H91.355H91.3781H91.4011H91.4241H91.4471H91.4702H91.4932H91.5162H91.5392H91.5622H91.5852H91.6082H91.6312H91.6542H91.6772H91.7002H91.7232H91.7462H91.7691H91.7921H91.8151H91.8381H91.8611H91.884H91.907H91.93H91.9529H91.9759H91.9989H92.0218H92.0448H92.0677H92.0907H92.1136H92.1366H92.1595H92.1825H92.2054H92.2284H92.2513H92.2742H92.2972H92.3201H92.343H92.3659H92.3889H92.4118H92.4347H92.4576H92.4805H92.5034H92.5263H92.5492H92.5722H92.5951H92.618H92.6409H92.6637H92.6866H92.7095H92.7324H92.7553H92.7782H92.8011H92.824H92.8468H92.8697H92.8926H92.9155H92.9383H92.9612H92.9841H93.0069H93.0298H93.0526H93.0755H93.0984H93.1212H93.1441H93.1669H93.1898H93.2126H93.2354H93.2583H93.2811H93.304H93.3268H93.3496H93.3725H93.3953H93.4181H93.4409H93.4638H93.4866H93.5094H93.5322H93.555H93.5778H93.6006H93.6235H93.6463H93.6691H93.6919H93.7147H93.7375H93.7603H93.7831H93.8058H93.8286H93.8514H93.8742H93.897H93.9198H93.9426H93.9653H93.9881H94.0109H94.0337H94.0564H94.0792H94.102H94.1247H94.1475H94.1703H94.193H94.2158H94.2385H94.2613H94.2841H94.3068H94.3296H94.3523H94.375H94.3978H94.4205H94.4433H94.466H94.4887H94.5115H94.5342H94.5569H94.5797H94.6024H94.6251H94.6479H94.6706H94.6933H94.716H94.7387H94.7615H94.7842H94.8069H94.8296H94.8523H94.875H94.8977H94.9204H94.9431H94.9658H94.9885H95.0112H95.0339H95.0566H95.0793H95.102H95.1247H95.1474H95.1701H95.1927H95.2154H95.2381H95.2608H95.2835H95.3061H95.3288H95.3515H95.3742H95.3968H95.4195H95.4422H95.4648H95.4875H95.5102H95.5328H95.5555H95.5781H95.6008H95.6234H95.6461H95.6687H95.6914H95.714H95.7367H95.7593H95.782H95.8046H95.8273H95.8499H95.8725H95.8952H95.9178H95.9404H95.9631H95.9857H96.0083H96.031H96.0536H96.0762H96.0988H96.1215H96.1441H96.1667H96.1893H96.2119H96.2346H96.2572H96.2798H96.3024H96.325H96.3476H96.3702H96.3928H96.4154H96.438H96.4606H96.4832H96.5058H96.5284H96.551H96.5736H96.5962H96.6188H96.6414H96.664H96.6866H96.7092H96.7318H96.7543H96.7769H96.7995H96.8221H96.8447H96.8673H96.8898H96.9124H96.935H96.9576H96.9801H97.0027H97.0253H97.0478H97.0704H97.093H97.1155H97.1381H97.1607H97.1832H97.2058H97.2284H97.2509H97.2735H97.296H97.3186H97.3411H97.3637H97.3862H97.4088H97.4313H97.4539H97.4764H97.499H97.5215H97.5441H97.5666H97.5892H97.6117H97.6342H97.6568H97.6793H97.7019H97.7244H97.7469H97.7695H97.792H97.8145H97.8371H97.8596H97.8821H97.9046H97.9272H97.9497H97.9722H97.9947H98.0173H98.0398H98.0623H98.0848H98.1073H98.1299H98.1524H98.1749H98.1974H98.2199H98.2424H98.265H98.2875H98.31H98.3325H98.355H98.3775H98.4H98.4225H98.445H98.4675H98.49H98.5125H98.535H98.5575H98.58H98.6025H98.625H98.6475H98.67H98.6925H98.715H98.7375H98.76H98.7825H98.805H98.8275H98.85H98.8725H98.895H98.9174H98.9399H98.9624H98.9849H99.0074H99.0299H99.0524H99.0748H99.0973H99.1198H99.1423H99.1648H99.1872H99.2097H99.2322H99.2547H99.2772H99.2996H99.3221H99.3446H99.3671H99.3895H99.412H99.4345H99.457H99.4794H99.5019H99.5244H99.5468H99.5693H99.5918H99.6142H99.6367H99.6592H99.6816H99.7041H99.7266H99.749H99.7715H99.794H99.8164H99.8389H99.8613H99.8838H99.9063H99.9287H99.9512H99.9736H99.9961H100.019H100.041H100.063H100.086H100.108H100.131H100.153H100.176H100.198H100.221H100.243H100.266H100.288H100.31H100.333H100.355H100.378H100.4H100.423H100.445H100.468H100.49H100.512H100.535H100.557H100.58H100.602H100.625H100.647H100.67H100.692H100.715H100.737H100.759H100.782H100.804H100.827H100.849H100.872H100.894H100.916H100.939H100.961H100.984H101.006H101.029H101.051H101.074H101.096H101.118H101.141H101.163H101.186H101.208H101.231H101.253H101.276H101.298H101.32H101.343H101.365H101.388H101.41H101.433H101.455H101.477H101.5H101.522H101.545H101.567H101.59H101.612H101.634H101.657H101.679H101.702H101.724H101.747H101.769H101.792H101.814H101.836H101.859H101.881H101.904H101.926H101.949H101.971H101.993H102.016H102.038H102.061H102.083H102.106H102.128H102.15H102.173H102.195H102.4L102.44 84.6115L102.698 83.3224L102.736 83.1352L102.565 83.0498L102.541 83.0376C102.306 82.9203 102.158 82.8464 102.012 82.8037C101.861 82.7597 101.716 82.7498 101.498 82.735L101.475 82.7334L101.467 82.7328L101.458 82.7328L100.87 82.7322L100.87 82.7322L100.203 82.7297L100.202 82.7297L99.4805 82.7313C99.4803 82.7313 99.4802 82.7313 99.4801 82.7313C98.979 82.7308 98.4778 82.7305 97.9767 82.7303L97.9761 82.7303M92.5861 82.7297L97.9761 82.7303M97.9761 82.7303C97.1835 82.732 96.3912 82.7333 95.5991 82.7319L97.9761 82.7303Z" fill="#2952CE" stroke="#2952CE" stroke-width="0.5"/>
<path d="M90.5938 53.6328H90.2888L90.3486 53.9318L90.6064 55.2209L90.6466 55.4219H90.8516H90.8742H90.8968H90.9193H90.9419H90.9645H90.9871H91.0097H91.0323H91.0548H91.0774H91.1H91.1226H91.1451H91.1677H91.1903H91.2128H91.2354H91.2579H91.2805H91.303H91.3256H91.3481H91.3707H91.3932H91.4157H91.4383H91.4608H91.4833H91.5059H91.5284H91.5509H91.5734H91.5959H91.6185H91.641H91.6635H91.686H91.7085H91.731H91.7535H91.776H91.7985H91.821H91.8435H91.866H91.8884H91.9109H91.9334H91.9559H91.9784H92.0008H92.0233H92.0458H92.0682H92.0907H92.1132H92.1356H92.1581H92.1806H92.203H92.2255H92.2479H92.2704H92.2928H92.3152H92.3377H92.3601H92.3825H92.405H92.4274H92.4498H92.4723H92.4947H92.5171H92.5395H92.5619H92.5844H92.6068H92.6292H92.6516H92.674H92.6964H92.7188H92.7412H92.7636H92.786H92.8084H92.8308H92.8532H92.8756H92.8979H92.9203H92.9427H92.9651H92.9875H93.0098H93.0322H93.0546H93.0769H93.0993H93.1217H93.144H93.1664H93.1888H93.2111H93.2335H93.2558H93.2782H93.3005H93.3229H93.3452H93.3675H93.3899H93.4122H93.4346H93.4569H93.4792H93.5015H93.5239H93.5462H93.5685H93.5908H93.6132H93.6355H93.6578H93.6801H93.7024H93.7247H93.747H93.7693H93.7916H93.8139H93.8362H93.8585H93.8808H93.9031H93.9254H93.9477H93.97H93.9923H94.0146H94.0368H94.0591H94.0814H94.1037H94.126H94.1482H94.1705H94.1928H94.215H94.2373H94.2596H94.2818H94.3041H94.3263H94.3486H94.3709H94.3931H94.4154H94.4376H94.4599H94.4821H94.5043H94.5266H94.5488H94.5711H94.5933H94.6155H94.6378H94.66H94.6822H94.7045H94.7267H94.7489H94.7711H94.7934H94.8156H94.8378H94.86H94.8822H94.9044H94.9267H94.9489H94.9711H94.9933H95.0155H95.0377H95.0599H95.0821H95.1043H95.1265H95.1487H95.1709H95.1931H95.2152H95.2374H95.2596H95.2818H95.304H95.3262H95.3484H95.3705H95.3927H95.4149H95.4371H95.4592H95.4814H95.5036H95.5257H95.5479H95.5701H95.5922H95.6144H95.6366H95.6587H95.6809H95.703H95.7252H95.7473H95.7695H95.7916H95.8138H95.8359H95.8581H95.8802H95.9024H95.9245H95.9466H95.9688H95.9909H96.013H96.0352H96.0573H96.0794H96.1016H96.1237H96.1458H96.168H96.1901H96.2122H96.2343H96.2564H96.2786H96.3007H96.3228H96.3449H96.367H96.3891H96.4112H96.4334H96.4555H96.4776H96.4997H96.5218H96.5439H96.566H96.5881H96.6102H96.6323H96.6544H96.6765H96.6986H96.7206H96.7427H96.7648H96.7869H96.809H96.8311H96.8532H96.8753H96.8973H96.9194H96.9415H96.9636H96.9857H97.0077H97.0298H97.0519H97.074H97.096H97.1181H97.1402H97.1622H97.1843H97.2064H97.2284H97.2505H97.2726H97.2946H97.3167H97.3387H97.3608H97.3828H97.4049H97.427H97.449H97.4711H97.4931H97.5152H97.5372H97.5593H97.5813H97.6033H97.6254H97.6474H97.6695H97.6915H97.7136H97.7356H97.7576H97.7797H97.8017H97.8237H97.8458H97.8678H97.8898H97.9119H97.9339H97.9559H97.978H98H98.022H98.044H98.0661H98.0881H98.1101H98.1321H98.1542H98.1762H98.1982H98.2202H98.2422H98.2642H98.2863H98.3083H98.3303H98.3523H98.3743H98.3963H98.4183H98.4403H98.4623H98.4844H98.5064H98.5284H98.5504H98.5724H98.5944H98.6164H98.6384H98.6604H98.6824H98.7044H98.7264H98.7484H98.7704H98.7924H98.8144H98.8364H98.8583H98.8803H98.9023H98.9243H98.9463H98.9683H98.9903H99.0123H99.0343H99.0562H99.0782H99.1002H99.1222H99.1442H99.1662H99.1882H99.2101H99.2321H99.2541H99.2761H99.2981H99.32H99.342H99.364H99.386H99.4079H99.4299H99.4519H99.4739H99.4958H99.5178H99.5398H99.5617H99.5837H99.6057H99.6277H99.6496H99.6716H99.6936H99.7155H99.7375H99.7595H99.7814H99.8034H99.8254H99.8473H99.8693H99.8912H99.9132H99.9352H99.9571H99.9791H100.001H100.023H100.045H100.067H100.089H100.111H100.133H100.155H100.177H100.199H100.221H100.243H100.265H100.286H100.308H100.33H100.352H100.374H100.396H100.418H100.44H100.462H100.484H100.506H100.528H100.55H100.572H100.594H100.616H100.638H100.66H100.682H100.704H100.725H100.747H100.769H100.791H100.813H100.835H100.857H100.879H100.901H100.923H100.945H100.967H100.989H101.011H101.033H101.055H101.077H101.098H101.12H101.142H101.164H101.186H101.208H101.23H101.252H101.274H101.296H101.318H101.34H101.362H101.384H101.406H101.428H101.45H101.471H101.493H101.515H101.537H101.559H101.581H101.603H101.625H101.647H101.669H101.691H101.713H101.735H101.757H101.779H101.8H101.822H101.844H101.866H101.888H101.91H101.932H101.954H101.976H101.998H102.02H102.042H102.064H102.086H102.108H102.13H102.151H102.173H102.195H102.4L102.44 55.2209L102.698 53.9318L102.758 53.6328H102.453H102.43H102.406H102.382H102.359H102.335H102.311H102.288H102.264H102.241H102.217H102.193H102.17H102.146H102.123H102.099H102.075H102.052H102.028H102.005H101.981H101.958H101.934H101.91H101.887H101.863H101.84H101.816H101.793H101.769H101.746H101.722H101.698H101.675H101.651H101.628H101.604H101.581H101.557H101.534H101.51H101.487H101.463H101.44H101.416H101.393H101.369H101.346H101.322H101.299H101.275H101.252H101.228H101.205H101.181H101.158H101.134H101.111H101.087H101.064H101.04H101.017H100.993H100.97H100.946H100.923H100.899H100.876H100.853H100.829H100.806H100.782H100.759H100.735H100.712H100.688H100.665H100.642H100.618H100.595H100.571H100.548H100.524H100.501H100.478H100.454H100.431H100.407H100.384H100.361H100.337H100.314H100.29H100.267H100.244H100.22H100.197H100.173H100.15H100.127H100.103H100.08H100.056H100.033H100.01H99.9863H99.963H99.9396H99.9162H99.8929H99.8695H99.8461H99.8228H99.7994H99.7761H99.7527H99.7294H99.706H99.6827H99.6593H99.636H99.6127H99.5893H99.566H99.5427H99.5193H99.496H99.4727H99.4494H99.426H99.4027H99.3794H99.3561H99.3328H99.3095H99.2862H99.2629H99.2396H99.2162H99.1929H99.1696H99.1464H99.1231H99.0998H99.0765H99.0532H99.0299H99.0066H98.9833H98.96H98.9368H98.9135H98.8902H98.8669H98.8437H98.8204H98.7971H98.7739H98.7506H98.7273H98.7041H98.6808H98.6576H98.6343H98.6111H98.5878H98.5645H98.5413H98.5181H98.4948H98.4716H98.4483H98.4251H98.4019H98.3786H98.3554H98.3322H98.3089H98.2857H98.2625H98.2392H98.216H98.1928H98.1696H98.1464H98.1232H98.0999H98.0767H98.0535H98.0303H98.0071H97.9839H97.9607H97.9375H97.9143H97.8911H97.8679H97.8447H97.8215H97.7983H97.7751H97.7519H97.7287H97.7056H97.6824H97.6592H97.636H97.6128H97.5897H97.5665H97.5433H97.5201H97.497H97.4738H97.4506H97.4275H97.4043H97.3811H97.358H97.3348H97.3117H97.2885H97.2654H97.2422H97.219H97.1959H97.1727H97.1496H97.1265H97.1033H97.0802H97.057H97.0339H97.0107H96.9876H96.9645H96.9413H96.9182H96.8951H96.8719H96.8488H96.8257H96.8026H96.7794H96.7563H96.7332H96.7101H96.687H96.6638H96.6407H96.6176H96.5945H96.5714H96.5483H96.5252H96.5021H96.479H96.4559H96.4328H96.4097H96.3866H96.3635H96.3404H96.3173H96.2942H96.2711H96.248H96.2249H96.2018H96.1787H96.1556H96.1325H96.1095H96.0864H96.0633H96.0402H96.0171H95.9941H95.971H95.9479H95.9248H95.9018H95.8787H95.8556H95.8325H95.8095H95.7864H95.7633H95.7403H95.7172H95.6941H95.6711H95.648H95.625H95.6019H95.5789H95.5558H95.5327H95.5097H95.4866H95.4636H95.4405H95.4175H95.3944H95.3714H95.3483H95.3253H95.3023H95.2792H95.2562H95.2331H95.2101H95.1871H95.164H95.141H95.118H95.0949H95.0719H95.0489H95.0258H95.0028H94.9798H94.9567H94.9337H94.9107H94.8877H94.8646H94.8416H94.8186H94.7956H94.7726H94.7495H94.7265H94.7035H94.6805H94.6575H94.6345H94.6114H94.5884H94.5654H94.5424H94.5194H94.4964H94.4734H94.4504H94.4274H94.4044H94.3814H94.3584H94.3354H94.3124H94.2894H94.2664H94.2434H94.2204H94.1974H94.1744H94.1514H94.1284H94.1054H94.0824H94.0594H94.0364H94.0134H93.9904H93.9674H93.9445H93.9215H93.8985H93.8755H93.8525H93.8295H93.8065H93.7836H93.7606H93.7376H93.7146H93.6916H93.6687H93.6457H93.6227H93.5997H93.5767H93.5538H93.5308H93.5078H93.4849H93.4619H93.4389H93.4159H93.393H93.37H93.347H93.3241H93.3011H93.2781H93.2551H93.2322H93.2092H93.1863H93.1633H93.1403H93.1174H93.0944H93.0714H93.0485H93.0255H93.0026H92.9796H92.9566H92.9337H92.9107H92.8878H92.8648H92.8418H92.8189H92.7959H92.773H92.75H92.7271H92.7041H92.6812H92.6582H92.6353H92.6123H92.5893H92.5664H92.5434H92.5205H92.4975H92.4746H92.4516H92.4287H92.4058H92.3828H92.3599H92.3369H92.314H92.291H92.2681H92.2451H92.2222H92.1992H92.1763H92.1534H92.1304H92.1075H92.0845H92.0616H92.0386H92.0157H91.9928H91.9698H91.9469H91.9239H91.901H91.8781H91.8551H91.8322H91.8092H91.7863H91.7634H91.7404H91.7175H91.6945H91.6716H91.6487H91.6257H91.6028H91.5799H91.5569H91.534H91.5111H91.4881H91.4652H91.4422H91.4193H91.3964H91.3734H91.3505H91.3276H91.3046H91.2817H91.2588H91.2358H91.2129H91.19H91.167H91.1441H91.1212H91.0982H91.0753H91.0524H91.0294H91.0065H90.9836H90.9607H90.9377H90.9148H90.8919H90.8689H90.846H90.8231H90.8001H90.7772H90.7543H90.7313H90.7084H90.6855H90.6625H90.6396H90.6167H90.5938Z" fill="#2952CE" stroke="#2952CE" stroke-width="0.5"/>
<path d="M80.2812 116.274C80.2812 118.656 80.2812 121.038 80.2812 123.492C79.8559 123.577 79.4305 123.662 78.9922 123.75C78.7344 123.492 78.7344 123.492 78.7051 122.966C78.7065 122.741 78.7078 122.515 78.7092 122.283C78.71 122.039 78.7109 121.796 78.7117 121.545C78.7139 121.289 78.716 121.033 78.7183 120.769C78.7194 120.512 78.7206 120.255 78.7218 119.99C78.7248 119.353 78.7291 118.716 78.7344 118.078C78.309 118.078 77.8836 118.078 77.4453 118.078C77.5098 117.466 77.5098 117.466 77.7031 116.789C78.5741 116.112 79.0941 116.274 80.2812 116.274Z" fill="#2952CE"/>
<path d="M74.6094 116.273C75.0657 116.73 74.9008 117.387 74.9014 118.005C74.9019 118.454 74.9019 118.454 74.9024 118.911C74.9014 119.227 74.9004 119.542 74.8994 119.867C74.9004 120.181 74.9014 120.495 74.9024 120.819C74.9021 121.118 74.9018 121.418 74.9014 121.727C74.9011 122.003 74.9008 122.28 74.9005 122.565C74.8672 123.234 74.8672 123.234 74.6094 123.75C74.184 123.75 73.7586 123.75 73.3203 123.75C73.3203 121.878 73.3203 120.007 73.3203 118.078C72.8949 118.078 72.4695 118.078 72.0312 118.078C71.9462 117.823 71.8611 117.568 71.7734 117.305C73.3927 116.1 73.3927 116.1 74.6094 116.273Z" fill="#2952CE"/>
<path d="M63.5234 116.274C63.9797 116.73 63.8148 117.387 63.8155 118.005C63.816 118.454 63.816 118.454 63.8165 118.912C63.8155 119.227 63.8145 119.542 63.8135 119.867C63.8145 120.181 63.8155 120.495 63.8165 120.819C63.8162 121.119 63.8158 121.418 63.8155 121.727C63.8152 122.003 63.8149 122.28 63.8146 122.565C63.7812 123.234 63.7812 123.234 63.5234 123.75C63.098 123.75 62.6727 123.75 62.2344 123.75C62.2344 121.878 62.2344 120.007 62.2344 118.078C61.809 118.078 61.3836 118.078 60.9453 118.078C61.0098 117.466 61.0098 117.466 61.2031 116.789C61.9469 116.231 62.6126 116.2 63.5234 116.274Z" fill="#2952CE"/>
<path d="M46.5078 23.9766C47.0234 24.3955 47.0234 24.3955 47.2812 25.0078C47.2629 25.9051 47.1818 26.3729 46.5884 27.0542C45.7699 27.4303 45.2964 27.3294 44.4453 27.0703C43.849 26.1759 43.8202 25.8014 43.9297 24.75C44.5165 23.7144 45.4231 23.841 46.5078 23.9766Z" fill="#2952CE"/>
<path d="M37.4843 23.9766C38.1007 24.6508 38.2634 25.0297 38.2416 25.9424C37.9384 26.7107 37.7123 26.9664 36.9687 27.3282C36.0218 27.2714 35.5843 27.2329 34.9062 26.5547C34.7655 25.0067 34.7655 25.0067 35.1801 24.2506C35.9869 23.8081 36.5865 23.8484 37.4843 23.9766Z" fill="#2952CE"/>
<path d="M27.2686 23.9282C28.2032 23.9766 28.2032 23.9766 28.9766 24.4922C29.1422 25.7963 29.1422 25.7963 28.9766 26.5547C28.3055 27.1875 27.9289 27.3281 27.0108 27.3281C26.3985 27.0703 26.3985 27.0703 25.899 26.5063C25.625 25.7812 25.625 25.7812 25.8184 24.9434C26.2542 23.9846 26.2542 23.9846 27.2686 23.9282Z" fill="#2952CE"/>
<path d="M51.4062 44.6016C53.278 44.6016 55.1497 44.6016 57.0781 44.6016C57.1632 44.9419 57.2483 45.2822 57.3359 45.6328C57.0781 45.8906 57.0781 45.8906 56.5045 45.9199C56.2575 45.9185 56.0104 45.9172 55.7558 45.9158C55.3558 45.9146 55.3558 45.9146 54.9476 45.9133C54.667 45.9111 54.3863 45.909 54.0972 45.9067C53.6747 45.905 53.6747 45.905 53.2437 45.9032C52.5452 45.9002 51.8468 45.8959 51.1484 45.8906C51.2335 45.4652 51.3186 45.0398 51.4062 44.6016Z" fill="#2952CE"/>
<path d="M109.797 82.7153L109.789 82.7153L109.781 82.7157C109.764 82.7167 109.747 82.7176 109.73 82.7186C109.331 82.7409 109.068 82.7555 108.853 82.8418C108.628 82.9319 108.465 83.0956 108.236 83.3244C108.226 83.3343 108.216 83.3444 108.206 83.3545L108.079 83.4819L108.159 83.6431L108.675 84.6744L108.744 84.8126H108.898H108.907H108.915H108.923H108.931H108.94H108.948H108.956H108.964H108.972H108.981H108.989H108.997H109.005H109.013H109.022H109.03H109.038H109.046H109.054H109.063H109.071H109.079H109.087H109.095H109.104H109.112H109.12H109.128H109.136H109.145H109.153H109.161H109.169H109.177H109.185H109.194H109.202H109.21H109.218H109.226H109.235H109.243H109.251H109.259H109.267H109.275H109.284H109.292H109.3H109.308H109.316H109.325H109.333H109.341H109.349H109.357H109.365H109.374H109.382H109.39H109.398H109.406H109.414H109.423H109.431H109.439H109.447H109.455H109.463H109.471H109.48H109.488H109.496H109.504H109.512H109.52H109.529H109.537H109.545H109.553H109.561H109.569H109.577H109.586H109.594H109.602H109.61H109.618H109.626H109.634H109.643H109.651H109.659H109.667H109.675H109.683H109.691H109.7H109.708H109.716H109.724H109.732H109.74H109.748H109.756H109.765H109.773H109.781H109.789H109.797H109.805H109.813H109.821H109.83H109.838H109.846H109.854H109.862H109.87H109.878H109.886H109.895H109.903H109.911H109.919H109.927H109.935H109.943H109.951H109.959H109.968H109.976H109.984H109.992H110H110.008H110.016H110.024H110.032H110.041H110.049H110.057H110.065H110.073H110.081H110.089H110.097H110.105H110.113H110.122H110.13H110.138H110.146H110.154H110.162H110.17H110.178H110.186H110.194H110.202H110.211H110.219H110.227H110.235H110.243H110.251H110.259H110.267H110.275H110.283H110.291H110.299H110.308H110.316H110.324H110.332H110.34H110.348H110.356H110.364H110.372H110.38H110.388H110.396H110.405H110.413H110.421H110.429H110.437H110.445H110.453H110.461H110.469H110.477H110.485H110.493H110.501H110.509H110.518H110.526H110.534H110.542H110.55H110.558H110.566H110.574H110.582H110.59H110.598H110.606H110.614H110.622H110.63H110.638H110.646H110.655H110.663H110.671H110.679H110.687H110.695H110.703H110.711H110.719H110.727H110.735H110.743H110.751H110.759H110.767H110.775H110.783H110.791H110.799H110.808H110.816H110.824H110.832H110.84H110.848H110.856H110.864H110.872H110.88H110.888H110.896H110.904H110.912H110.92H110.928H110.936H110.944H110.952H110.96H110.968H110.976H110.984H110.992H111.001H111.009H111.017H111.025H111.033H111.041H111.049H111.057H111.065H111.073H111.081H111.089H111.097H111.105H111.113H111.121H111.129H111.137H111.145H111.153H111.161H111.169H111.177H111.185H111.193H111.201H111.209H111.217H111.225H111.233H111.241H111.249H111.257H111.265H111.273H111.281H111.289H111.298H111.306H111.314H111.322H111.33H111.338H111.346H111.354H111.362H111.37H111.378H111.386H111.394H111.402H111.41H111.418H111.426H111.434H111.442H111.45H111.458H111.466H111.474H111.482H111.49H111.498H111.506H111.514H111.522H111.53H111.538H111.546H111.554H111.562H111.57H111.578H111.586H111.594H111.602H111.61H111.618H111.626H111.634H111.642H111.65H111.658H111.666H111.674H111.682H111.69H111.698H111.706H111.714H111.722H111.73H111.738H111.746H111.754H111.762H111.77H111.778H111.786H111.794H111.802H111.81H111.818H111.826H111.834H111.842H111.85H111.858H111.866H111.874H111.882H111.89H111.898H111.906H111.914H111.922H111.93H111.938H111.946H111.954H111.962H111.97H111.978H111.986H111.994H112.002H112.01H112.018H112.026H112.034H112.042H112.05H112.058H112.066H112.074H112.082H112.09H112.098H112.106H112.114H112.122H112.13H112.138H112.146H112.154H112.162H112.17H112.178H112.186H112.194H112.202H112.21H112.218H112.226H112.234H112.241H112.249H112.257H112.265H112.273H112.281H112.289H112.297H112.305H112.313H112.321H112.329H112.337H112.345H112.353H112.361H112.369H112.377H112.385H112.393H112.401H112.409H112.417H112.425H112.433H112.441H112.449H112.457H112.465H112.473H112.481H112.489H112.497H112.505H112.513H112.521H112.529H112.537H112.545H112.553H112.561H112.569H112.577H112.585H112.593H112.601H112.609H112.617H112.625H112.633H112.641H112.649H112.657H112.664H112.672H112.68H112.688H112.696H112.704H112.712H112.72H112.728H112.736H112.744H112.752H112.76H112.768H112.776H112.784H112.792H112.8H112.808H112.816H112.824H112.832H112.84H112.848H112.856H112.864H112.872H112.88H112.888H112.896H112.904H112.912H112.92H112.928H112.936H112.944H112.952H112.96H112.968H112.976H112.984H112.992H113H113.007H113.015H113.023H113.178L113.247 84.6744L113.505 84.1587L113.557 84.0536L113.51 83.946C113.265 83.3911 113.261 83.3836 112.983 82.8924L112.913 82.7689L112.771 82.7657C112.321 82.7559 111.87 82.7466 111.42 82.7405L111.419 82.7405L110.869 82.7335C110.512 82.7249 110.154 82.7188 109.797 82.7153Z" fill="#2952CE" stroke="#2952CE" stroke-width="0.5"/>
<path d="M108.641 93.8516H108.486L108.417 93.9898L108.159 94.5054L108.113 94.598L108.146 94.6962L108.403 95.4697L108.46 95.6389L108.638 95.6406C109.153 95.6455 109.669 95.6502 110.185 95.6532L110.185 95.6532L110.813 95.6567C110.814 95.6567 110.814 95.6567 110.814 95.6567C111.222 95.661 111.63 95.6641 112.038 95.6658L112.038 95.6659L112.046 95.6657C112.062 95.6653 112.079 95.6649 112.095 95.6645C112.541 95.6531 112.808 95.6463 112.988 95.6053C113.095 95.581 113.181 95.5436 113.262 95.4861C113.331 95.437 113.392 95.3753 113.45 95.3177C113.453 95.315 113.455 95.3123 113.458 95.3096L113.558 95.2095L113.524 95.0722L113.266 94.0409L113.219 93.8516H113.023H113.015H113.006H112.997H112.989H112.98H112.971H112.962H112.954H112.945H112.936H112.927H112.919H112.91H112.901H112.893H112.884H112.875H112.866H112.858H112.849H112.84H112.832H112.823H112.814H112.805H112.797H112.788H112.779H112.771H112.762H112.753H112.745H112.736H112.727H112.718H112.71H112.701H112.692H112.684H112.675H112.666H112.658H112.649H112.64H112.632H112.623H112.614H112.605H112.597H112.588H112.579H112.571H112.562H112.553H112.545H112.536H112.527H112.519H112.51H112.501H112.493H112.484H112.475H112.467H112.458H112.449H112.441H112.432H112.423H112.415H112.406H112.397H112.389H112.38H112.371H112.363H112.354H112.345H112.337H112.328H112.319H112.311H112.302H112.293H112.285H112.276H112.267H112.259H112.25H112.241H112.233H112.224H112.215H112.207H112.198H112.19H112.181H112.172H112.164H112.155H112.146H112.138H112.129H112.12H112.112H112.103H112.095H112.086H112.077H112.069H112.06H112.051H112.043H112.034H112.025H112.017H112.008H112H111.991H111.982H111.974H111.965H111.956H111.948H111.939H111.931H111.922H111.913H111.905H111.896H111.887H111.879H111.87H111.862H111.853H111.844H111.836H111.827H111.819H111.81H111.801H111.793H111.784H111.776H111.767H111.758H111.75H111.741H111.733H111.724H111.715H111.707H111.698H111.69H111.681H111.672H111.664H111.655H111.647H111.638H111.629H111.621H111.612H111.604H111.595H111.586H111.578H111.569H111.561H111.552H111.543H111.535H111.526H111.518H111.509H111.5H111.492H111.483H111.475H111.466H111.458H111.449H111.44H111.432H111.423H111.415H111.406H111.397H111.389H111.38H111.372H111.363H111.355H111.346H111.337H111.329H111.32H111.312H111.303H111.295H111.286H111.277H111.269H111.26H111.252H111.243H111.235H111.226H111.218H111.209H111.2H111.192H111.183H111.175H111.166H111.158H111.149H111.14H111.132H111.123H111.115H111.106H111.098H111.089H111.081H111.072H111.063H111.055H111.046H111.038H111.029H111.021H111.012H111.004H110.995H110.986H110.978H110.969H110.961H110.952H110.944H110.935H110.927H110.918H110.91H110.901H110.892H110.884H110.875H110.867H110.858H110.85H110.841H110.833H110.824H110.816H110.807H110.799H110.79H110.781H110.773H110.764H110.756H110.747H110.739H110.73H110.722H110.713H110.705H110.696H110.688H110.679H110.671H110.662H110.653H110.645H110.636H110.628H110.619H110.611H110.602H110.594H110.585H110.577H110.568H110.56H110.551H110.543H110.534H110.526H110.517H110.509H110.5H110.491H110.483H110.474H110.466H110.457H110.449H110.44H110.432H110.423H110.415H110.406H110.398H110.389H110.381H110.372H110.364H110.355H110.347H110.338H110.33H110.321H110.313H110.304H110.296H110.287H110.279H110.27H110.262H110.253H110.245H110.236H110.228H110.219H110.21H110.202H110.193H110.185H110.176H110.168H110.159H110.151H110.142H110.134H110.125H110.117H110.108H110.1H110.091H110.083H110.074H110.066H110.057H110.049H110.04H110.032H110.023H110.015H110.006H109.998H109.989H109.981H109.972H109.964H109.955H109.947H109.938H109.93H109.921H109.913H109.904H109.896H109.887H109.879H109.87H109.862H109.853H109.845H109.836H109.828H109.819H109.811H109.802H109.794H109.785H109.777H109.769H109.76H109.752H109.743H109.735H109.726H109.718H109.709H109.701H109.692H109.684H109.675H109.667H109.658H109.65H109.641H109.633H109.624H109.616H109.607H109.599H109.59H109.582H109.573H109.565H109.556H109.548H109.539H109.531H109.522H109.514H109.505H109.497H109.488H109.48H109.471H109.463H109.454H109.446H109.438H109.429H109.421H109.412H109.404H109.395H109.387H109.378H109.37H109.361H109.353H109.344H109.336H109.327H109.319H109.31H109.302H109.293H109.285H109.276H109.268H109.259H109.251H109.242H109.234H109.225H109.217H109.209H109.2H109.192H109.183H109.175H109.166H109.158H109.149H109.141H109.132H109.124H109.115H109.107H109.098H109.09H109.081H109.073H109.064H109.056H109.047H109.039H109.03H109.022H109.014H109.005H108.997H108.988H108.98H108.971H108.963H108.954H108.946H108.937H108.929H108.92H108.912H108.903H108.895H108.886H108.878H108.869H108.861H108.852H108.844H108.836H108.827H108.819H108.81H108.802H108.793H108.785H108.776H108.768H108.759H108.751H108.742H108.734H108.725H108.717H108.708H108.7H108.691H108.683H108.675H108.666H108.658H108.649H108.641Z" fill="#2952CE" stroke="#2952CE" stroke-width="0.5"/>
<path d="M112.911 15.9683C113.222 15.9762 113.222 15.9762 113.539 15.9844C113.7 16.5967 113.7 16.5967 113.797 17.2734C113.627 17.4436 113.457 17.6137 113.281 17.7891C112.733 17.6924 112.733 17.6924 112.25 17.5312C112.151 17.1043 112.066 16.6741 111.992 16.2422C112.25 15.9844 112.25 15.9844 112.911 15.9683Z" fill="#2952CE"/>
<path d="M115.859 15.9844C116.37 15.9844 116.88 15.9844 117.406 15.9844C117.583 16.4517 117.583 16.4517 117.664 17.0156C117.358 17.4829 117.358 17.4829 116.891 17.7891C116.343 17.7568 116.343 17.7568 115.859 17.5312C115.602 16.7578 115.602 16.7578 115.859 15.9844Z" fill="#2952CE"/>
<path d="M108.383 15.9844C108.893 15.9844 109.404 15.9844 109.93 15.9844C110.107 16.4517 110.107 16.4517 110.188 17.0156C109.881 17.4829 109.881 17.4829 109.414 17.7891C108.85 17.7085 108.85 17.7085 108.383 17.5312C108.383 17.0208 108.383 16.5103 108.383 15.9844Z" fill="#2952CE"/>
</g>
<defs>
<clipPath id="clip0_2606_13063">
<rect width="132" height="132" fill="white" transform="translate(5)"/>
</clipPath>
</defs>
</svg>
