<svg width="787" height="62" viewBox="0 0 787 62" fill="none" xmlns="http://www.w3.org/2000/svg">
<path opacity="0.3" d="M0.251229 29.8817L3.88181 31.7487L5.74877 28.1181L2.11819 26.2512L0.251229 29.8817ZM353.654 30.6361L352.136 26.8462L348.346 28.364L349.864 32.1539L353.654 30.6361ZM3.15273 29.476C3.92326 29.2289 4.70664 28.9806 5.50268 28.7313L5.20389 27.777C4.40567 28.0269 3.62005 28.2759 2.84727 28.5238L3.15273 29.476ZM10.3738 27.2421C11.9444 26.773 13.5572 26.3015 15.2108 25.8286L14.9359 24.8672C13.2786 25.3411 11.662 25.8137 10.0876 26.2839L10.3738 27.2421ZM20.0621 24.4697C21.669 24.0287 23.31 23.5872 24.9839 23.1459L24.7289 22.179C23.0518 22.6211 21.4076 23.0635 19.7974 23.5054L20.0621 24.4697ZM29.854 21.8866C31.4634 21.4783 33.1002 21.0708 34.7635 20.6646L34.5263 19.6932C32.8601 20.1001 31.2204 20.5083 29.6081 20.9173L29.854 21.8866ZM39.704 19.4808C41.3156 19.1019 42.9499 18.7247 44.6061 18.3496L44.3852 17.3743C42.7263 17.75 41.0894 18.1278 39.4752 18.5074L39.704 19.4808ZM49.5902 17.2419C51.2053 16.8898 52.8395 16.54 54.4923 16.193L54.2868 15.2143C52.6315 15.5619 50.9948 15.9122 49.3772 16.2649L49.5902 17.2419ZM59.4838 15.165C61.1102 14.8365 62.7531 14.511 64.4121 14.1888L64.2214 13.2071C62.56 13.5298 60.9146 13.8558 59.2859 14.1848L59.4838 15.165ZM69.4126 13.2368C71.0475 12.9318 72.6968 12.6302 74.3602 12.3324L74.184 11.3481C72.5182 11.6463 70.8664 11.9483 69.2292 12.2537L69.4126 13.2368ZM79.3734 11.4536C81.0143 11.1721 82.668 10.8944 84.3338 10.6209L84.1718 9.63412C82.5036 9.90805 80.8476 10.1861 79.2043 10.468L79.3734 11.4536ZM89.3623 9.81379C91.0076 9.55578 92.6641 9.30197 94.3312 9.05264L94.1833 8.06364C92.5138 8.31332 90.855 8.56749 89.2074 8.82587L89.3623 9.81379ZM99.3644 8.31834C101.017 8.0833 102.679 7.85282 104.351 7.62715L104.217 6.63613C102.543 6.86212 100.878 7.09293 99.2236 7.3283L99.3644 8.31834ZM109.382 6.96639C111.044 6.75427 112.714 6.54705 114.392 6.34498L114.273 5.35215C112.592 5.55451 110.919 5.76202 109.256 5.97444L109.382 6.96639ZM119.421 5.75798C121.09 5.5692 122.768 5.38564 124.452 5.20756L124.347 4.2131C122.66 4.39144 120.98 4.57526 119.308 4.76431L119.421 5.75798ZM129.479 4.69484C131.156 4.52996 132.84 4.37062 134.53 4.21706L134.44 3.22116C132.747 3.37494 131.06 3.53451 129.381 3.69964L129.479 4.69484ZM139.554 3.7795C141.235 3.63942 142.922 3.50518 144.614 3.377L144.539 2.37986C142.844 2.50823 141.154 2.64266 139.471 2.78295L139.554 3.7795ZM149.646 3.01511C151.325 2.90074 153.01 2.79247 154.699 2.69051L154.639 1.69233C152.947 1.79444 151.26 1.90288 149.578 2.01742L149.646 3.01511ZM159.75 2.40545C161.429 2.3173 163.112 2.23552 164.799 2.1603L164.754 1.16129C163.064 1.23663 161.379 1.31854 159.698 1.40682L159.75 2.40545ZM169.864 1.9548C171.542 1.89351 173.224 1.83885 174.909 1.79102L174.881 0.791421C173.193 0.839334 171.509 0.894083 169.828 0.955471L169.864 1.9548ZM179.974 1.66818C181.655 1.6344 183.34 1.60755 185.027 1.58782L185.015 0.587891C183.325 0.607649 181.638 0.634543 179.954 0.668383L179.974 1.66818ZM190.085 1.55025C191.77 1.54496 193.458 1.54692 195.148 1.55633L195.153 0.556342C193.461 0.54692 191.77 0.544954 190.082 0.550255L190.085 1.55025ZM200.2 1.60674C201.887 1.63104 203.575 1.66291 205.264 1.70252L205.288 0.702798C203.595 0.66311 201.904 0.631186 200.215 0.606839L200.2 1.60674ZM210.315 1.84408C211.999 1.89904 213.684 1.96185 215.371 2.0327L215.413 1.03359C213.723 0.9626 212.035 0.89967 210.348 0.844612L210.315 1.84408ZM220.424 2.26917C222.106 2.35596 223.789 2.45091 225.472 2.55421L225.533 1.55608C223.847 1.45258 222.161 1.35745 220.476 1.2705L220.424 2.26917ZM230.522 2.88932C232.202 3.00925 233.882 3.13766 235.562 3.27475L235.643 2.27806C233.96 2.1407 232.277 2.01202 230.593 1.89186L230.522 2.88932ZM240.601 3.71219C242.279 3.86673 243.958 4.03011 245.635 4.20252L245.737 3.20776C244.056 3.03499 242.375 2.87126 240.693 2.7164L240.601 3.71219ZM250.662 4.74674C252.337 4.93729 254.011 5.13703 255.684 5.34615L255.808 4.35388C254.131 4.14429 252.454 3.94411 250.775 3.75315L250.662 4.74674ZM260.698 6.00199C262.368 6.2301 264.037 6.46778 265.704 6.71519L265.851 5.72603C264.18 5.47804 262.508 5.23982 260.834 5.01119L260.698 6.00199ZM270.702 7.48743C272.366 7.75486 274.029 8.03223 275.689 8.31973L275.86 7.33439C274.196 7.04619 272.529 6.76815 270.86 6.50008L270.702 7.48743ZM280.664 9.21302C282.322 9.52162 283.978 9.84057 285.631 10.1701L285.827 9.18935C284.17 8.85902 282.51 8.53927 280.847 8.22989L280.664 9.21302ZM290.581 11.1903C292.231 11.5417 293.877 11.9038 295.52 12.2769L295.742 11.3017C294.094 10.9276 292.443 10.5645 290.789 10.2122L290.581 11.1903ZM300.443 13.4303C302.081 13.8261 303.715 14.2331 305.345 14.6514L305.594 13.6828C303.959 13.2633 302.32 12.8552 300.677 12.4583L300.443 13.4303ZM310.236 15.9441C311.862 16.3866 313.483 16.8406 315.1 17.3064L315.377 16.3455C313.755 15.8783 312.129 15.423 310.499 14.9792L310.236 15.9441ZM319.949 18.7435C321.562 19.2349 323.17 19.7384 324.772 20.2541L325.079 19.3022C323.471 18.7849 321.859 18.2799 320.241 17.7869L319.949 18.7435ZM329.569 21.8403C331.167 22.3828 332.759 22.9378 334.344 23.5055L334.681 22.564C333.09 21.9944 331.493 21.4376 329.891 20.8934L329.569 21.8403ZM339.083 25.247C340.662 25.8423 342.235 26.4507 343.8 27.0722L344.169 26.1428C342.598 25.5191 341.02 24.9087 339.436 24.3113L339.083 25.247ZM348.479 28.9772C349.256 29.3013 350.03 29.6288 350.803 29.9597L351.197 29.0404C350.421 28.7083 349.644 28.3797 348.865 28.0544L348.479 28.9772Z" fill="#032437"/>
<path opacity="0.3" d="M414.251 35.6183L417.882 33.7514L419.749 37.382L416.118 39.2489L414.251 35.6183ZM786.654 29.3639L785.136 33.1538L781.346 31.6361L782.864 27.8462L786.654 29.3639ZM417.153 36.024C417.914 36.2683 418.691 36.5129 419.482 36.7578L419.186 37.7131C418.392 37.4672 417.612 37.2216 416.847 36.9763L417.153 36.024ZM424.348 38.2121C425.907 38.6625 427.514 39.113 429.168 39.5627L428.905 40.5277C427.247 40.0766 425.635 39.6248 424.071 39.1728L424.348 38.2121ZM434.019 40.8454C435.628 41.2592 437.276 41.6718 438.961 42.0826L438.724 43.0541C437.035 42.6424 435.383 42.2288 433.77 41.8139L434.019 40.8454ZM443.806 43.2351C445.421 43.6097 447.066 43.9824 448.74 44.3526L448.525 45.3291C446.847 44.9581 445.198 44.5846 443.58 44.2092L443.806 43.2351ZM453.655 45.4142C455.274 45.7559 456.918 46.0952 458.587 46.4315L458.389 47.4118C456.718 47.0749 455.07 46.735 453.448 46.3926L453.655 45.4142ZM463.539 47.4077C465.164 47.7209 466.811 48.0312 468.477 48.3382L468.296 49.3217C466.627 49.0141 464.978 48.7033 463.35 48.3896L463.539 47.4077ZM473.449 49.2339C475.082 49.5216 476.734 49.8061 478.402 50.087L478.236 51.0731C476.565 50.7918 474.911 50.5069 473.275 50.2187L473.449 49.2339ZM483.381 50.9064C485.024 51.1707 486.682 51.4314 488.356 51.6883L488.204 52.6767C486.528 52.4194 484.868 52.1584 483.222 51.8938L483.381 50.9064ZM493.335 52.435C494.988 52.6771 496.655 52.9153 498.334 53.1496L498.196 54.14C496.514 53.9054 494.845 53.6669 493.19 53.4245L493.335 52.435ZM503.31 53.8265C504.974 54.0472 506.649 54.2638 508.336 54.4762L508.211 55.4683C506.522 55.2557 504.844 55.0388 503.179 54.8178L503.31 53.8265ZM513.307 55.0856C514.975 55.2845 516.653 55.4793 518.341 55.6695L518.229 56.6633C516.539 56.4727 514.858 56.2778 513.189 56.0785L513.307 55.0856ZM523.325 56.2151C524.989 56.392 526.663 56.5644 528.345 56.7323L528.246 57.7274C526.561 57.5593 524.885 57.3866 523.219 57.2095L523.325 56.2151ZM533.361 57.2167C535.023 57.3719 536.693 57.5225 538.37 57.6683L538.283 58.6646C536.604 58.5185 534.932 58.3677 533.268 58.2124L533.361 57.2167ZM543.415 58.0909C545.075 58.2246 546.741 58.3535 548.414 58.4776L548.34 59.4749C546.665 59.3506 544.996 59.2215 543.335 59.0877L543.415 58.0909ZM553.453 58.8352C555.121 58.9482 556.795 59.0563 558.475 59.1593L558.414 60.1575C556.732 60.0543 555.055 59.9461 553.385 59.8329L553.453 58.8352ZM563.501 59.4514C565.178 59.5434 566.861 59.6304 568.549 59.712L568.5 60.7108C566.81 60.6291 565.126 60.5421 563.446 60.4499L563.501 59.4514ZM573.565 59.9382C575.242 60.0084 576.923 60.0733 578.608 60.1326L578.573 61.132C576.885 61.0726 575.202 61.0076 573.523 60.9374L573.565 59.9382ZM583.641 60.2933C585.315 60.3411 586.993 60.3835 588.674 60.4203L588.652 61.42C586.968 61.3832 585.289 61.3408 583.613 61.2929L583.641 60.2933ZM593.725 60.5135C595.397 60.5387 597.072 60.5582 598.749 60.5719L598.741 61.5719C597.061 61.5582 595.384 61.5386 593.71 61.5134L593.725 60.5135ZM603.791 60.5956C605.468 60.5976 607.148 60.5937 608.831 60.5838L608.836 61.5838C607.152 61.5937 605.47 61.5976 603.79 61.5956L603.791 60.5956ZM613.864 60.5362C615.543 60.5142 617.225 60.4862 618.908 60.4519L618.928 61.4517C617.243 61.486 615.559 61.5141 613.877 61.5361L613.864 60.5362ZM623.939 60.3307C625.616 60.2841 627.295 60.2312 628.974 60.1718L629.01 61.1711C627.328 61.2306 625.647 61.2836 623.967 61.3303L623.939 60.3307ZM634.011 59.9743C635.687 59.9021 637.363 59.8233 639.04 59.7379L639.091 60.7366C637.412 60.8222 635.733 60.901 634.054 60.9733L634.011 59.9743ZM644.071 59.4616C645.747 59.3628 647.423 59.2571 649.099 59.1446L649.166 60.1424C647.487 60.2551 645.809 60.3609 644.13 60.4598L644.071 59.4616ZM654.123 58.7862C655.797 58.6598 657.471 58.5263 659.143 58.3856L659.227 59.3821C657.551 59.523 655.875 59.6567 654.198 59.7834L654.123 58.7862ZM664.163 57.9414C665.835 57.7861 667.505 57.6235 669.175 57.4534L669.276 58.4482C667.604 58.6186 665.93 58.7816 664.255 58.9372L664.163 57.9414ZM674.183 56.92C675.853 56.7344 677.522 56.5411 679.188 56.3401L679.308 57.3329C677.639 57.5343 675.967 57.7279 674.293 57.9139L674.183 56.92ZM684.182 55.7136C685.849 55.4962 687.514 55.2709 689.176 55.0375L689.315 56.0278C687.65 56.2616 685.981 56.4874 684.311 56.7052L684.182 55.7136ZM694.16 54.3121C695.82 54.062 697.477 53.8036 699.13 53.5368L699.289 54.524C697.633 54.7914 695.973 55.0503 694.309 55.301L694.16 54.3121ZM704.105 52.7068C705.76 52.4216 707.411 52.1278 709.059 51.8253L709.239 52.8089C707.588 53.1121 705.934 53.4065 704.275 53.6923L704.105 52.7068ZM714.008 50.8876C715.659 50.565 717.306 50.2334 718.948 49.8927L719.151 50.8718C717.505 51.2133 715.854 51.5457 714.199 51.869L714.008 50.8876ZM723.859 48.843C725.506 48.4808 727.147 48.1091 728.783 47.7279L729.01 48.7018C727.37 49.084 725.724 49.4566 724.074 49.8196L723.859 48.843ZM733.675 46.5551C735.307 46.1528 736.933 45.7406 738.553 45.3186L738.805 46.2863C737.181 46.7095 735.551 47.1227 733.914 47.526L733.675 46.5551ZM743.423 44.0146C745.04 43.5698 746.65 43.1148 748.254 42.6494L748.532 43.6097C746.924 44.0764 745.31 44.5327 743.688 44.9788L743.423 44.0146ZM753.091 41.2074C754.698 40.7155 756.298 40.2129 757.889 39.6994L758.196 40.6511C756.6 41.1661 754.995 41.6703 753.384 42.1636L753.091 41.2074ZM762.665 38.1182C764.26 37.5762 765.846 37.0229 767.425 36.4582L767.761 37.3997C766.178 37.9663 764.586 38.5214 762.986 39.0651L762.665 38.1182ZM772.133 34.7293C773.712 34.1345 775.282 33.5278 776.842 32.909L777.211 33.8386C775.645 34.4595 774.07 35.0683 772.485 35.6651L772.133 34.7293ZM781.498 31.0148C782.269 30.6931 783.037 30.3683 783.803 30.0403L784.197 30.9597C783.428 31.2888 782.657 31.6148 781.883 31.9377L781.498 31.0148Z" fill="#032437"/>
</svg>
