<svg width="172" height="165" viewBox="0 0 172 165" fill="none" xmlns="http://www.w3.org/2000/svg">
<path d="M85.8807 102.44L82.1419 102.604L68.6909 131.801L47.418 142.407L48.4327 153.358C48.4327 153.358 74.6221 148.526 81.1514 144.871C87.6806 141.217 96.0037 117.474 96.0037 117.474C96.046 117.643 87.1551 102.453 87.1551 102.453" fill="#FFBF9D"/>
<path d="M48.6618 129.125L45.9377 126.256C45.4123 125.918 44.7962 125.749 44.1741 125.767L35.5369 126.027C33.9061 126.19 32.4383 127.078 31.5384 128.449L28.3976 133.794C28.3976 133.794 26.2836 137.454 26.5554 138.342C26.9601 139.683 28.3795 139.411 28.3795 139.411C28.3795 139.411 28.6815 141.102 29.2432 141.447C30.1854 142.021 31.3391 141.58 31.3391 141.58C31.6531 142.226 32.3236 142.661 33.0423 142.606C33.1873 142.594 33.3383 142.57 33.4893 142.522C34.5161 142.214 34.9751 140.227 34.9751 140.227L39.3541 139.417C39.3541 139.417 45.6418 143.621 47.8645 146.381C50.0812 149.136 55.8917 147.034 55.8917 147.034L58.0661 136.645L48.6678 129.125H48.6618Z" fill="#FFBF9D"/>
<path d="M42.2968 130.369C42.3028 130.43 41.6022 130.563 40.4063 130.683C39.2164 130.816 37.5312 130.865 35.6346 131.112L35.84 130.961C35.532 131.638 35.1514 132.338 34.7166 133.027C33.3757 135.171 31.7932 136.844 30.5611 137.943C29.3229 139.037 28.4289 139.544 28.3927 139.49C28.3444 139.423 29.1477 138.807 30.2953 137.66C31.4368 136.512 32.9408 134.833 34.2515 132.737C34.6743 132.06 35.0488 131.384 35.3568 130.738L35.4233 130.605L35.5622 130.587C37.5131 130.369 39.1922 130.387 40.3821 130.351C41.572 130.327 42.2847 130.303 42.2907 130.369H42.2968Z" fill="#FF9A6C"/>
<path d="M42.4939 134.489C42.506 134.543 41.9141 134.767 40.8692 134.924C39.8242 135.075 38.3203 135.123 36.6412 134.779L36.9492 134.604C36.774 135.117 36.5687 135.643 36.321 136.168C35.409 138.083 34.1225 139.544 33.0715 140.432C32.0206 141.326 31.2474 141.701 31.2172 141.646C31.1689 141.574 31.8575 141.091 32.8118 140.148C33.7661 139.212 34.95 137.769 35.8318 135.933C36.0734 135.425 36.2727 134.918 36.4539 134.429L36.5324 134.205L36.762 134.253C39.9934 134.972 42.4879 134.326 42.506 134.489H42.4939Z" fill="#FF9A6C"/>
<path d="M53.4565 136.62C50.8895 135.424 48.3225 134.235 45.7495 133.039C44.6804 132.543 43.569 132.036 42.3973 132.042C41.1289 132.042 39.9511 132.646 38.8277 133.226C37.4445 133.939 36.0613 134.657 34.6842 135.37C34.4607 135.485 34.2131 135.624 34.1346 135.865C34.0319 136.179 34.2614 136.506 34.4909 136.741C36.5627 138.837 40.2833 138.988 42.5181 137.067C43.1825 138.879 43.871 140.728 45.1153 142.195C46.3595 143.669 48.2984 144.708 50.1949 144.358" fill="#FFBF9D"/>
<path d="M50.1937 144.364C50.1937 144.364 50.1272 144.4 49.9883 144.43C49.8494 144.467 49.638 144.491 49.3601 144.503C48.8105 144.515 47.9709 144.412 47.0408 143.941C46.1167 143.482 45.108 142.648 44.3107 141.453C43.4953 140.263 42.8913 138.765 42.2933 137.152L42.6799 137.255C41.5444 138.257 39.8894 138.789 38.1922 138.656C37.3466 138.596 36.4829 138.366 35.6916 137.955C35.3051 137.738 34.9185 137.496 34.5803 137.188C34.4111 137.031 34.236 136.892 34.085 136.681C33.94 136.482 33.783 136.192 33.8675 135.841C33.934 135.558 34.1575 135.376 34.3266 135.268C34.5078 135.153 34.6648 135.08 34.8279 134.996C35.148 134.827 35.4681 134.664 35.7883 134.501C36.4225 134.174 37.0506 133.848 37.6667 133.534C38.8989 132.924 40.0646 132.205 41.3813 131.915C42.7101 131.595 44.0147 132.006 45.0355 132.471C46.0804 132.948 47.0166 133.407 47.8864 133.824C49.5534 134.639 50.9305 135.31 51.9875 135.823C52.9479 136.306 53.4734 136.59 53.4613 136.627C53.4432 136.663 52.8875 136.439 51.8969 136.017C50.8218 135.539 49.4205 134.923 47.7233 134.174C46.8354 133.776 45.8811 133.347 44.8543 132.888C43.8335 132.453 42.6739 132.109 41.484 132.411C40.2941 132.682 39.1465 133.389 37.9083 134.011C37.2922 134.331 36.6701 134.658 36.0299 134.99C35.7097 135.153 35.3896 135.322 35.0695 135.485C34.7433 135.654 34.3991 135.817 34.387 135.98C34.3205 136.18 34.6165 136.536 34.9366 136.79C35.2386 137.068 35.5889 137.291 35.9393 137.49C36.658 137.865 37.4493 138.076 38.2284 138.143C39.7867 138.276 41.3149 137.792 42.3598 136.898L42.6255 136.669L42.7403 137.001C43.3141 138.62 43.8819 140.088 44.6369 141.247C45.3737 142.413 46.2979 143.222 47.1676 143.705C48.9434 144.678 50.2057 144.285 50.1876 144.382L50.1937 144.364Z" fill="#FF9A6C"/>
<path d="M156.696 39.045C157.167 33.1862 158.484 27.3999 158.659 21.523C158.834 15.6461 157.705 9.43697 153.899 4.95529C150.094 0.473608 143.1 -1.61622 138.087 1.45209L136.764 6.37469C137.114 29.1213 135.296 52.0854 135.647 74.8321C135.695 77.8219 137.924 80.6727 139.089 83.4209C140.261 86.1691 142.822 88.5489 145.812 88.567C149.72 88.5912 152.547 84.8162 154.008 81.1922C159.311 68.0491 155.567 53.1666 156.696 39.039V39.045Z" fill="#263238"/>
<path d="M144.652 7.67299C143.897 6.16299 143.124 4.63487 141.946 3.42687C140.768 2.21887 139.107 1.36723 137.434 1.57259C136.649 1.66923 135.828 2.05579 135.514 2.78663C135.199 3.51747 135.695 4.55031 136.486 4.53823L136.643 4.69527C138.292 6.36835 139.977 8.01123 141.692 9.61183C142.121 10.0165 142.574 10.4272 143.124 10.6386C143.68 10.85 144.368 10.8138 144.785 10.4031C145.48 9.71451 145.087 8.54879 144.646 7.67299H144.652Z" fill="#0CAA6A"/>
<path d="M147.574 13.6525C142.211 6.10852 134.642 1.46376 125.419 0.684597C120.219 0.243677 117.99 1.17988 114.173 1.94092C110.356 2.69592 106.834 4.47771 104.382 7.50375C101.471 11.0976 98.9521 15.1685 98.1367 19.7166C97.3032 24.3916 97.3455 29.0243 97.9857 32.8838C98.7588 37.5709 101.447 44.837 103.971 48.8596L111.896 50.3757C118.522 51.0522 125.238 51.7286 131.81 50.6535C138.381 49.5784 144.904 46.5222 148.752 41.0862C154.097 33.5362 152.932 21.1904 147.568 13.6525H147.574Z" fill="#263238"/>
<path d="M136.878 12.85L121.283 5.39062L117.061 5.59599C107.638 4.99199 100.432 14.9399 99.8526 22.5684C99.2063 31.0425 98.7594 41.4132 99.6775 47.7552C101.532 60.5056 112.186 62.2814 112.186 62.2814C112.186 62.2814 111.51 68.9616 111.147 73.1775L135.809 73.0688L140.822 17.4465C140.9 15.1211 139.185 13.1279 136.878 12.8561V12.85Z" fill="#FFBF9D"/>
<path d="M118.73 46.0877C118.688 45.4172 118.361 44.8072 117.914 44.3723C117.033 43.5026 115.662 43.3334 114.611 43.9556C113.56 44.5837 112.889 45.9669 112.986 47.3017C113.499 48.1171 114.327 48.697 115.275 48.848C115.42 48.8721 115.571 48.8842 115.722 48.8902C116.447 48.9204 117.202 48.7272 117.788 48.2319C118.38 47.7366 118.778 46.9152 118.724 46.0877H118.73Z" fill="#FF9A6C"/>
<path d="M102.502 34.1537C102.46 35.0174 103.154 35.7603 104.054 35.8207C104.948 35.8811 105.715 35.2348 105.757 34.3711C105.8 33.5074 105.105 32.7645 104.205 32.7041C103.305 32.6437 102.544 33.296 102.502 34.1537Z" fill="#263238"/>
<path d="M102.437 27.0015C102.636 27.2189 103.886 26.3189 105.638 26.3431C107.389 26.3431 108.67 27.2672 108.863 27.0498C108.96 26.9531 108.754 26.5666 108.199 26.1559C107.649 25.7391 106.713 25.3344 105.62 25.3223C104.526 25.3163 103.602 25.7029 103.065 26.1075C102.521 26.5122 102.334 26.8988 102.431 26.9954L102.437 27.0015Z" fill="#263238"/>
<path d="M112.746 41.486C112.758 41.3893 111.664 41.184 109.901 40.9363C109.454 40.882 109.031 40.7914 108.958 40.4833C108.856 40.1572 109.049 39.68 109.273 39.1606C109.707 38.0794 110.166 36.9499 110.644 35.76C112.546 30.922 113.935 26.9416 113.736 26.8692C113.543 26.7967 111.84 30.6563 109.931 35.4943C109.472 36.6902 109.031 37.8257 108.614 38.9129C108.439 39.4203 108.137 39.9941 108.361 40.6706C108.475 41.0088 108.801 41.2565 109.091 41.335C109.375 41.4256 109.629 41.4316 109.852 41.4497C111.628 41.5705 112.733 41.5887 112.746 41.492V41.486Z" fill="#263238"/>
<path d="M112.168 62.2631C112.168 62.2631 120.721 62.9275 129.268 57.9385C129.268 57.9385 124.611 66.7025 111.891 65.3435L112.162 62.2631H112.168Z" fill="#FF9A6C"/>
<path d="M117.901 42.7667C117.617 42.7486 117.587 44.6512 115.938 45.9861C114.295 47.3209 112.266 47.0793 112.247 47.3451C112.217 47.4659 112.694 47.7195 113.552 47.7558C114.392 47.798 115.624 47.5383 116.632 46.729C117.641 45.9136 118.082 44.8082 118.155 44.0291C118.239 43.2318 118.034 42.7607 117.901 42.7667Z" fill="#263238"/>
<path d="M103.446 20.9136C103.736 21.3485 105.083 21.0767 106.653 21.2277C108.23 21.3304 109.516 21.8075 109.867 21.427C110.024 21.2398 109.855 20.823 109.317 20.3821C108.785 19.9472 107.861 19.5365 106.78 19.4519C105.699 19.3673 104.727 19.621 104.141 19.9713C103.543 20.3217 103.313 20.7082 103.44 20.9196L103.446 20.9136Z" fill="#263238"/>
<path d="M120.422 34.6246C120.41 35.4883 119.667 36.1889 118.767 36.1889C117.867 36.1889 117.148 35.5003 117.16 34.6366C117.172 33.7729 117.915 33.0723 118.815 33.0723C119.715 33.0723 120.434 33.7669 120.422 34.6246Z" fill="#263238"/>
<path d="M126.155 27.9321C125.943 28.1314 124.753 27.1589 122.996 27.0744C121.244 26.9657 119.909 27.8052 119.734 27.5757C119.643 27.473 119.873 27.1046 120.453 26.7241C121.027 26.3435 121.987 25.9993 123.08 26.0597C124.173 26.1201 125.073 26.567 125.581 27.0079C126.1 27.4489 126.263 27.8415 126.161 27.9321H126.155Z" fill="#263238"/>
<path d="M125.484 22.2548C125.121 22.6354 123.786 22.1522 122.162 22.0555C120.537 21.9045 119.142 22.1703 118.846 21.7414C118.719 21.53 118.954 21.1435 119.577 20.7992C120.187 20.4549 121.195 20.1952 122.313 20.2798C123.43 20.3704 124.378 20.775 124.922 21.216C125.478 21.6569 125.647 22.0736 125.484 22.2609V22.2548Z" fill="#263238"/>
<path d="M137.198 38.5987C137.21 37.6505 138.339 35.4338 139.275 35.2949C141.782 34.9385 146.282 35.1982 146.24 41.5463C146.185 50.2197 137.488 48.3775 137.47 48.1299C137.457 47.9366 137.143 41.8724 137.198 38.5987Z" fill="#FFBF9D"/>
<path d="M139.885 44.9709C139.921 44.9407 140.036 45.0796 140.29 45.1944C140.537 45.3092 140.966 45.3937 141.419 45.2246C142.337 44.8924 143.116 43.4428 143.171 41.8784C143.201 41.0872 143.038 40.3382 142.76 39.7101C142.5 39.0759 142.09 38.6289 141.631 38.5444C141.172 38.4356 140.845 38.7074 140.737 38.9551C140.616 39.1967 140.67 39.3718 140.628 39.3839C140.604 39.4081 140.441 39.239 140.513 38.8826C140.549 38.7074 140.652 38.5081 140.857 38.339C141.069 38.1699 141.371 38.0853 141.697 38.1216C142.367 38.1699 142.965 38.792 143.267 39.4745C143.606 40.1631 143.805 41.0087 143.775 41.8966C143.708 43.6421 142.802 45.2729 141.546 45.6293C140.936 45.7863 140.429 45.5991 140.163 45.3877C139.897 45.1702 139.849 44.977 139.879 44.9649L139.885 44.9709Z" fill="#FF9A6C"/>
<path d="M139.624 35.3421L137.275 37.4682C128.408 27.7498 111.424 3.77102 112.366 5.19646C112.366 5.19646 119.04 2.9677 126.01 4.64682C132.98 6.32594 146.111 10.7593 145.338 19.0643C144.571 27.3633 139.624 35.3421 139.624 35.3421Z" fill="#263238"/>
<path d="M152.309 34.2917C152.309 34.2917 152.291 34.1165 152.213 33.7843C152.134 33.4521 151.977 32.9749 151.718 32.383C151.192 31.2052 150.147 29.5865 148.383 28.0765C146.644 26.5303 144.186 25.1954 141.353 24.0841C138.526 22.9485 135.319 21.9942 132.214 20.4057C129.086 18.8655 126.331 16.9689 124 15.0422C121.681 13.1033 119.79 11.1283 118.334 9.36458C116.873 7.6009 115.834 6.06674 115.133 4.99162C114.813 4.48426 114.553 4.0675 114.348 3.74134C114.167 3.45746 114.064 3.3125 114.052 3.31854C114.04 3.32458 114.112 3.48766 114.27 3.78362C114.433 4.07958 114.656 4.52654 114.988 5.08222C115.647 6.18754 116.655 7.75794 118.093 9.55786C119.53 11.3578 121.415 13.3751 123.74 15.3502C126.078 17.3072 128.856 19.24 132.015 20.7923C135.162 22.4049 138.393 23.3472 141.202 24.4585C144.023 25.5397 146.451 26.8202 148.184 28.306C149.942 29.7617 151.005 31.3139 151.567 32.4495C152.128 33.5971 152.273 34.2977 152.315 34.2856L152.309 34.2917Z" fill="#455A64"/>
<path d="M149.708 35.481C149.708 35.481 149.841 34.7804 149.503 33.5724C149.177 32.3704 148.265 30.7094 146.531 29.284C144.816 27.8163 142.297 26.8076 139.513 25.968C136.71 25.1466 133.684 24.1379 130.749 22.5192C127.813 20.9125 125.216 19.0281 123.096 17.0469C120.964 15.0779 119.273 13.0726 117.986 11.2908C116.682 9.5211 115.83 7.95071 115.22 6.88767C114.954 6.37427 114.743 5.9575 114.568 5.6253C114.417 5.34142 114.326 5.19042 114.314 5.19646C114.302 5.2025 114.362 5.36558 114.489 5.66154C114.64 6.00582 114.833 6.43466 115.069 6.96014C115.637 8.05338 116.452 9.66002 117.733 11.466C119.001 13.284 120.68 15.3316 122.818 17.3369C124.944 19.3542 127.572 21.2749 130.537 22.8997C133.503 24.5365 136.602 25.5573 139.398 26.3546C142.183 27.17 144.653 28.1243 146.338 29.5195C148.047 30.8785 148.978 32.461 149.34 33.6147C149.727 34.7743 149.654 35.481 149.714 35.475L149.708 35.481Z" fill="#455A64"/>
<path d="M138.35 49.9532C138.35 49.8928 139.093 49.8505 140.391 49.6029C141.684 49.3371 143.538 48.6788 145.411 47.2292C147.301 45.8037 149.047 43.5025 150.369 40.6637C151.686 37.8189 152.586 34.4304 152.918 30.8245C153.075 29.0186 153.057 27.2488 152.858 25.5576C152.634 23.8664 152.242 22.2659 151.74 20.78C150.702 17.8144 149.216 15.3621 147.736 13.5078C144.758 9.76909 142.173 8.17453 142.282 8.05977C142.294 8.04165 142.451 8.13829 142.741 8.34365C143.025 8.54901 143.472 8.83289 143.991 9.26173C145.048 10.0892 146.516 11.3999 148.05 13.2602C149.59 15.1145 151.143 17.5909 152.236 20.6109C152.761 22.1269 153.172 23.7638 153.408 25.4973C153.619 27.2307 153.643 29.0488 153.486 30.891C153.148 34.5633 152.212 38.0061 150.841 40.9053C149.469 43.7985 147.633 46.142 145.652 47.5674C143.689 49.023 141.762 49.6331 140.428 49.8385C139.763 49.9774 139.232 49.9411 138.881 49.9774C138.525 49.9955 138.344 49.9895 138.344 49.9713L138.35 49.9532Z" fill="#455A64"/>
<path d="M111.337 70.1875L135.817 67.542L140.299 71.619L122.825 81.893L115.112 85.8855L107.502 83.5722L105.086 79.0361L111.337 70.1875Z" fill="#FFBF9D"/>
<path d="M78.3459 99.9887C78.3459 99.9887 86.0167 85.2632 87.9193 82.0439C91.1567 76.5596 97.1967 73.455 97.1967 73.455L111.336 70.1813C111.336 70.1813 109.869 77.2663 118.669 77.7555C129.861 78.3776 136.813 67.6445 136.813 67.6445C136.813 67.6445 149.582 68.9613 153.109 70.4411C156.636 71.9209 166.608 76.0945 168.076 89.3583L171.495 111.012L144.514 113.065L144.889 141.894L158.164 164.605H93.0472C94.068 164.876 97.6558 149.71 95.3002 137.727L90.8547 126.939C89.079 122.621 87.9736 118.042 87.7079 113.379C87.5327 110.311 87.6173 107.986 87.6173 107.986C87.6173 107.986 80.6954 105.606 78.3398 99.9827L78.3459 99.9887Z" fill="#0CAA6A"/>
<path d="M99.6022 152.035L144.836 138.457L144.516 113.071L167.552 111.313C167.552 111.313 165.716 124.469 165.444 131.209C165.058 140.909 160.389 154.469 157.272 157.344C154.149 160.225 98.4062 163.348 98.4062 163.348L99.6082 152.023L99.6022 152.035Z" fill="#FFBF9D"/>
<path d="M73.9499 160.02C74.3244 160.636 75.0311 161.005 75.7378 160.884C75.8767 160.86 76.0277 160.817 76.1787 160.757C77.1692 160.352 76.9156 158.287 76.9156 158.287L81.7294 157.115C81.7294 157.115 88.3855 160.715 90.8498 163.246C93.3142 165.782 98.9012 163.143 98.9012 163.143L100.091 152.597L90.4874 145.174C90.4874 145.174 91.0733 145.615 90.3425 144.147C89.6056 142.679 86.8332 143.471 86.8332 143.471C86.3379 142.752 84.4716 142.625 84.4716 142.625L76.6679 144.141C75.0613 144.455 73.6781 145.476 72.9171 146.925L69.9937 152.452C69.9937 152.452 68.532 156.384 68.8824 157.242C69.4139 158.54 70.797 158.136 70.797 158.136C70.797 158.136 71.3769 160.6 72.0413 160.636C72.7057 160.673 73.956 160.02 73.956 160.02H73.9499Z" fill="#FFBF9D"/>
<path d="M90.1257 151.256C90.1257 151.34 89.0687 151.322 87.3956 151.527C85.7225 151.739 83.4273 152.216 81.0657 153.225C79.8879 153.726 78.8067 154.306 77.8645 154.898C76.9524 155.508 75.9981 156.021 75.7444 156.74C75.6176 157.09 75.7142 157.428 75.9015 157.67C76.0887 157.912 76.3243 158.063 76.5357 158.129C76.9645 158.268 77.2182 158.129 77.2363 158.177C77.2544 158.189 77.0068 158.413 76.4873 158.316C76.2337 158.268 75.9377 158.129 75.684 157.851C75.4303 157.591 75.2552 157.102 75.4001 156.631C75.533 156.16 75.9015 155.773 76.2941 155.447C76.6987 155.133 77.1276 154.813 77.6047 154.505C78.553 153.877 79.6523 153.273 80.8603 152.76C83.2763 151.721 85.65 151.292 87.3533 151.171C89.0687 151.056 90.1256 151.201 90.1196 151.256H90.1257Z" fill="#FF9A6C"/>
<path d="M91.0679 156.233C91.0679 156.384 87.8546 156.499 83.9407 157.03C80.0207 157.55 76.892 158.293 76.8558 158.148C76.8377 158.081 77.6048 157.816 78.8671 157.489C80.1295 157.163 81.8992 156.795 83.8743 156.529C85.8493 156.263 87.6553 156.149 88.9599 156.13C90.2646 156.106 91.0739 156.167 91.0739 156.233H91.0679Z" fill="#FF9A6C"/>
<path d="M73.9771 159.815C73.9771 159.815 73.8925 159.525 73.814 158.981C73.7415 158.443 73.6449 157.658 73.6328 156.674C73.6328 156.184 73.6389 155.641 73.7295 155.061C73.808 154.475 74.0375 153.847 74.3697 153.285C74.9979 152.156 75.8978 150.966 77.0877 150.036C78.2715 149.112 79.4674 148.32 80.7056 147.843C81.9318 147.366 83.0975 147.179 84.0639 147.064C85.0363 146.955 85.8215 146.913 86.3651 146.895C86.9087 146.877 87.2107 146.883 87.2107 146.913C87.2228 146.992 86.0208 147.124 84.1122 147.414C83.1639 147.577 82.0344 147.795 80.8748 148.272C79.7211 148.743 78.5494 149.534 77.4018 150.428C76.2542 151.334 75.4146 152.422 74.7683 153.521C74.0858 154.572 74.0315 155.725 73.9892 156.68C73.9469 158.6 74.0918 159.808 73.9831 159.815H73.9771Z" fill="#FF9A6C"/>
<path d="M84.2425 144.654C84.2486 144.727 83.0708 144.854 81.2105 145.216C79.4226 145.633 76.5295 145.989 75.0738 148.616C73.4611 151.026 72.1082 153.285 71.5767 155.097C71.0089 156.897 71.1659 158.105 71.0572 158.099C71.0331 158.099 70.9606 157.809 70.9485 157.266C70.9304 156.728 70.9847 155.931 71.2324 154.995C71.6914 153.092 73.0323 150.749 74.651 148.327C75.0678 147.717 75.5208 147.137 76.0644 146.66C76.6019 146.176 77.2482 145.868 77.8462 145.645C79.0602 145.198 80.1957 145.005 81.144 144.854C83.0466 144.576 84.2365 144.582 84.2365 144.642L84.2425 144.654Z" fill="#FF9A6C"/>
<path d="M89.0004 161.705C89.0004 161.705 88.8192 161.609 88.5051 161.385C88.1487 161.137 87.6836 160.823 87.1038 160.431C85.8716 159.621 84.0415 158.474 81.6557 157.266L81.7705 157.278C80.333 157.64 78.7142 158.045 76.9626 158.486L77.1136 158.268C77.1559 158.667 77.1619 159.054 77.1136 159.464C77.0653 159.869 76.9687 160.304 76.6546 160.678C76.4915 160.86 76.2378 160.98 76.0325 161.023C75.8211 161.095 75.5855 161.137 75.35 161.113C74.8788 161.083 74.4258 160.872 74.0876 160.533C74.003 160.449 73.9245 160.358 73.852 160.262L73.8037 160.189L73.7795 160.153L73.7675 160.135C73.701 160.111 74.3292 160.286 74.0634 160.213H74.0514L73.9004 160.298C73.701 160.395 73.4957 160.485 73.2903 160.57C73.0789 160.654 72.8675 160.727 72.638 160.787C72.5232 160.817 72.4085 160.841 72.2816 160.854C72.1608 160.866 72.0219 160.884 71.8226 160.799C71.5327 160.624 71.4179 160.401 71.2971 160.189C71.1823 159.978 71.0857 159.76 71.0011 159.537C70.832 159.096 70.6992 158.649 70.5784 158.184L70.8804 158.359C70.2582 158.522 69.4972 158.425 69.014 157.882C68.7965 157.628 68.6093 157.308 68.6033 156.928C68.5912 156.583 68.6455 156.281 68.6999 155.973C68.9475 154.753 69.3401 153.569 69.775 152.361V152.349L69.7871 152.331C70.2824 151.389 70.8079 150.392 71.3454 149.384C71.6776 148.755 72.0038 148.133 72.336 147.517C72.6682 146.919 72.9521 146.249 73.4353 145.693C73.9003 145.144 74.4802 144.697 75.1084 144.382C75.7365 144.05 76.4553 143.923 77.0834 143.809C79.6685 143.313 82.1329 142.842 84.4401 142.401H84.5005C84.9656 142.438 85.3945 142.516 85.8294 142.637C86.2522 142.77 86.6991 142.921 87.0192 143.338L86.7414 143.271C87.5507 142.866 88.5111 142.788 89.2782 143.217C90.0513 143.64 90.4439 144.395 90.6855 145.113L90.6191 145.017C93.3733 147.137 95.6262 148.864 97.2329 150.102C97.9758 150.688 98.5677 151.153 99.0207 151.51C99.4254 151.836 99.6308 152.017 99.6247 152.029C99.6126 152.041 99.3831 151.896 98.9603 151.594C98.4952 151.262 97.8852 150.821 97.1181 150.265C95.4873 149.063 93.2042 147.378 90.4016 145.313L90.3594 145.276L90.3352 145.21C90.1178 144.576 89.7312 143.893 89.097 143.567C88.4809 143.217 87.6353 143.295 86.9588 143.64L86.7897 143.724L86.675 143.573C86.4877 143.325 86.0951 143.156 85.7085 143.048C85.3159 142.939 84.8932 142.866 84.4704 142.83H84.5307C82.2295 143.283 79.7652 143.766 77.1801 144.274C76.5217 144.401 75.9056 144.509 75.3318 144.811C74.758 145.095 74.2386 145.5 73.8158 146.001C73.3869 146.484 73.1151 147.113 72.7769 147.735C72.4507 148.351 72.1185 148.979 71.7924 149.601C71.2609 150.61 70.7294 151.606 70.2341 152.549L70.2461 152.518C69.8233 153.696 69.4247 154.88 69.1891 156.046C69.1348 156.336 69.0865 156.632 69.0925 156.891C69.0865 157.115 69.2133 157.35 69.3764 157.544C69.6905 157.924 70.2703 158.003 70.7414 157.888L70.983 157.828L71.0434 158.063C71.1521 158.504 71.279 158.945 71.436 159.362C71.587 159.754 71.7984 160.231 72.028 160.376C72.04 160.376 72.1246 160.401 72.2273 160.382C72.3239 160.376 72.4206 160.352 72.5232 160.328C72.7226 160.28 72.9219 160.207 73.1212 160.135C73.3205 160.056 73.5138 159.972 73.701 159.881L73.84 159.815H73.852C73.5863 159.736 74.2144 159.905 74.148 159.893L74.1601 159.911L74.1782 159.942L74.2144 160.002C74.2688 160.08 74.3292 160.153 74.3956 160.219C74.6614 160.485 75.0177 160.654 75.3741 160.678C75.5553 160.697 75.7305 160.666 75.9056 160.606C76.0989 160.564 76.2258 160.497 76.3345 160.382C76.7633 159.863 76.7633 158.993 76.709 158.305L76.6969 158.123L76.86 158.087C78.6176 157.67 80.2423 157.29 81.6799 156.946L81.7403 156.934L81.7946 156.964C84.1865 158.226 85.9924 159.416 87.2004 160.274C87.8044 160.709 88.2574 161.059 88.5534 161.307C88.8493 161.554 89.0003 161.687 88.9943 161.699L89.0004 161.705Z" fill="#FF9A6C"/>
<path d="M17.2717 162.949L0.172488 118.048C-0.473792 116.357 0.776482 114.545 2.58244 114.545H57.486C58.4887 114.545 59.4007 115.125 59.8235 116.031L76.2644 158.86L110.753 159.446C112.178 159.446 113.332 160.6 113.332 162.025C113.332 163.451 112.178 164.604 110.753 164.604H19.6817C18.6126 164.604 17.6522 163.94 17.2717 162.943V162.949Z" fill="#455A64"/>
<path d="M40.5083 139.58C40.5083 141.567 38.8956 143.18 36.9084 143.18C34.9213 143.18 33.3086 141.567 33.3086 139.58C33.3086 137.593 34.9213 135.98 36.9084 135.98C38.8956 135.98 40.5083 137.593 40.5083 139.58Z" fill="white"/>
<path d="M94.6078 83.7236C94.6864 83.7659 93.9555 85.137 92.9227 87.4261C91.8898 89.7093 90.6154 92.9346 89.5826 96.613C88.5618 100.297 87.982 103.716 87.68 106.205C87.378 108.693 87.2934 110.245 87.2028 110.245C87.1666 110.245 87.1484 109.853 87.1484 109.152C87.1484 108.445 87.1907 107.425 87.2934 106.168C87.4988 103.656 88.0182 100.189 89.051 96.4741C90.0899 92.7595 91.4368 89.5281 92.5663 87.2691C93.128 86.1396 93.6173 85.2457 93.9857 84.6417C94.3481 84.0377 94.5656 83.7115 94.6018 83.7297L94.6078 83.7236Z" fill="#263238"/>
<path d="M171.5 111.018C171.5 111.018 171.306 111.066 170.944 111.102C170.527 111.144 169.99 111.199 169.325 111.259C167.851 111.38 165.81 111.555 163.279 111.767C158.067 112.159 150.861 112.703 142.598 113.325L142.332 113.343L142.314 113.077C142.139 110.329 141.958 107.43 141.771 104.452C141.475 99.2577 141.227 94.3109 141.149 89.8051C140.913 85.269 142.024 81.1316 143.8 78.1901C145.558 75.2003 147.895 73.4669 149.599 72.6213C150.468 72.2105 151.163 71.9387 151.652 71.824C152.135 71.6851 152.395 71.6247 152.395 71.6428C152.419 71.7153 151.368 71.9267 149.695 72.8085C148.046 73.7024 145.811 75.4419 144.132 78.3834C142.435 81.2947 141.39 85.3113 141.65 89.793C141.759 94.2867 142.024 99.2335 142.314 104.422C142.495 107.4 142.677 110.299 142.846 113.041L142.562 112.793C150.825 112.25 158.036 111.773 163.255 111.422C165.792 111.277 167.833 111.156 169.313 111.072C169.984 111.042 170.521 111.018 170.938 110.999C171.306 110.987 171.5 110.993 171.506 111.005L171.5 111.018Z" fill="#263238"/>
<path d="M120.773 128.655C120.755 128.691 120.441 128.57 119.867 128.323C119.577 128.202 119.233 128.045 118.859 127.815C118.478 127.592 118.025 127.362 117.578 127.03C116.648 126.42 115.627 125.562 114.6 124.505C113.598 123.424 112.601 122.138 111.749 120.664C110.916 119.178 110.318 117.662 109.907 116.243C109.527 114.817 109.309 113.501 109.261 112.389C109.201 111.833 109.237 111.332 109.243 110.891C109.243 110.45 109.279 110.07 109.327 109.762C109.406 109.146 109.466 108.813 109.503 108.813C109.611 108.826 109.436 110.185 109.648 112.353C109.744 113.44 109.998 114.715 110.396 116.098C110.825 117.469 111.423 118.937 112.233 120.386C113.06 121.824 114.02 123.086 114.981 124.155C115.965 125.206 116.932 126.07 117.814 126.71C119.571 128.003 120.828 128.546 120.785 128.649L120.773 128.655Z" fill="#263238"/>
</svg>
