<svg width="76" height="80" viewBox="0 0 76 80" fill="none" xmlns="http://www.w3.org/2000/svg">
<path d="M44.0246 2.53244C44.4671 2.88322 44.8898 3.24705 45.3086 3.62577C45.4403 3.74447 45.5721 3.86317 45.7079 3.98547C48.7702 6.89347 50.8175 10.9677 52.2821 14.8785C52.4801 14.8556 52.678 14.8328 52.882 14.8092C55.0129 14.5773 57.1133 14.5233 59.2556 14.5615C59.2981 14.4165 59.3406 14.2714 59.3844 14.122C59.6996 13.2655 60.2619 12.7448 61.0461 12.2901C62.307 11.7219 63.5348 11.6572 64.8424 12.1149C66.0321 12.655 66.7511 13.4807 67.2364 14.6847C67.3846 15.1957 67.3836 15.618 67.3386 16.1464C67.5249 16.1906 67.5249 16.1906 67.715 16.2356C68.5272 16.5577 69.1779 17.0516 69.8744 17.5728C70.0129 17.674 70.0129 17.674 70.1543 17.7771C71.5856 18.8845 72.8174 20.9713 73.1594 22.7572C73.8304 28.375 71.6335 33.4706 68.233 37.8697C68.0504 38.1019 67.866 38.3327 67.6796 38.5619C67.0457 39.309 67.0457 39.309 66.8631 40.2368C67.1023 40.6327 67.1023 40.6327 67.4674 41.0095C68.078 41.7136 68.6182 42.4306 69.1315 43.2085C69.1961 43.3057 69.2608 43.403 69.3273 43.5031C69.8312 44.2706 69.8312 44.2706 70.0296 44.6695C70.3415 45.2991 70.3415 45.2991 70.9418 45.6224C71.0995 45.6332 71.2572 45.644 71.4197 45.6552C72.8856 45.8262 73.859 46.3673 74.7876 47.5273C75.4391 48.6566 75.5795 49.9569 75.2433 51.2122C74.9142 52.1573 74.4066 53.03 73.5197 53.5499C73.4151 53.5499 73.3105 53.5499 73.2027 53.5499C73.2254 53.6829 73.2254 53.6829 73.2485 53.8186C73.5891 56.2818 72.8893 58.6643 71.4191 60.6473C71.3278 60.7633 71.2364 60.8794 71.1423 60.9989C71.0439 61.1301 70.9454 61.2613 70.8439 61.3964C68.5867 64.0534 64.709 65.0078 61.4002 65.332C59.5616 65.4779 57.7648 65.4425 55.9274 65.298C55.7533 65.2855 55.5792 65.273 55.3999 65.2602C54.2913 65.1748 53.2131 65.0251 52.1236 64.8027C52.1051 64.915 52.0865 65.0273 52.0674 65.143C51.9583 65.6253 51.7951 66.0367 51.5961 66.4891C51.4843 66.7438 51.4843 66.7438 51.3702 67.0036C51.2919 67.1795 51.2137 67.3554 51.1331 67.5366C51.0573 67.7101 50.9815 67.8835 50.9034 68.0623C50.5007 68.9733 50.0795 69.8494 49.5619 70.7012C49.3878 70.9985 49.3878 70.9985 49.5184 71.4097C49.5936 71.5307 49.6688 71.6516 49.7463 71.7762C50.2595 72.9453 50.2405 74.2766 49.8156 75.471C49.3258 76.5343 48.6402 77.2199 47.5769 77.7097C46.5933 78.0601 45.4097 78.2035 44.4301 77.7852C43.945 77.6048 43.7384 77.6408 43.2482 77.7988C42.9011 77.9698 42.558 78.1489 42.218 78.3337C39.855 79.5566 37.371 79.697 34.8309 78.959C33.123 78.4102 31.7287 77.4059 30.4106 76.2139C30.2788 76.0952 30.147 75.9765 30.0112 75.8542C26.9227 72.9213 24.9577 68.878 23.437 64.9612C23.1497 64.984 22.8625 65.0072 22.5752 65.0305C22.4153 65.0434 22.2553 65.0563 22.0905 65.0695C21.7996 65.0958 21.5087 65.1231 21.2191 65.1603C20.2094 65.2888 19.2138 65.2964 18.197 65.2881C18.0295 65.2874 17.8621 65.2866 17.6896 65.2859C17.2809 65.2841 16.8722 65.2815 16.4635 65.2782C16.421 65.4232 16.3785 65.5683 16.3347 65.7177C16.0195 66.5742 15.4572 67.0949 14.6731 67.5496C13.4122 68.1178 12.1844 68.1825 10.8767 67.7248C9.68703 67.1848 8.96803 66.359 8.48268 65.155C8.3345 64.644 8.33556 64.2217 8.38053 63.6933C8.25631 63.6638 8.1321 63.6344 8.00412 63.6041C7.19234 63.2822 6.54322 62.7843 5.8447 62.2669C5.70414 62.1688 5.56358 62.0707 5.41876 61.9697C3.47181 60.1806 2.51799 57.7264 2.36745 55.1337C2.17276 50.0424 4.9457 44.8837 8.16036 41.1006C8.56358 40.6172 8.8664 40.2476 8.856 39.6029C8.61682 39.207 8.61682 39.207 8.25176 38.8302C7.64116 38.1261 7.10089 37.4091 6.58762 36.6312C6.52299 36.534 6.45837 36.4367 6.39179 36.3366C5.88795 35.5691 5.88795 35.5691 5.68954 35.1702C5.37766 34.5406 5.37766 34.5406 4.77737 34.2173C4.61965 34.2065 4.46193 34.1957 4.29943 34.1845C2.83349 34.0135 1.86008 33.4724 0.931526 32.3124C0.280015 31.1831 0.139598 29.8828 0.475869 28.6275C0.80493 27.6824 1.31253 26.8097 2.19944 26.2898C2.30404 26.2898 2.40865 26.2898 2.51642 26.2898C2.48373 26.1034 2.45104 25.9171 2.41736 25.7251C2.15876 23.3026 2.95799 20.9135 4.41829 18.9992C4.51697 18.8589 4.51697 18.8589 4.61764 18.7157C6.57139 16.1536 10.2012 15.0728 13.2481 14.6356C13.9267 14.5533 14.5979 14.5334 15.281 14.5293C15.4072 14.5283 15.5333 14.5272 15.6633 14.5261C16.0687 14.5234 16.4741 14.5224 16.8795 14.5219C17.0171 14.5215 17.1546 14.5212 17.2964 14.5208C19.4292 14.5186 21.4956 14.6366 23.5955 15.037C23.6141 14.9247 23.6326 14.8124 23.6517 14.6967C23.7608 14.2144 23.9241 13.803 24.123 13.3506C24.1976 13.1808 24.2721 13.011 24.349 12.8361C24.4272 12.6602 24.5055 12.4843 24.5861 12.3031C24.6619 12.1296 24.7377 11.9562 24.8158 11.7774C25.2184 10.8664 25.6397 9.99028 26.1572 9.1385C26.3313 8.84118 26.3313 8.84118 26.2007 8.42998C26.1255 8.30903 26.0503 8.18809 25.9729 8.06347C25.4596 6.89439 25.4786 5.56312 25.9035 4.36869C26.3933 3.30545 27.0789 2.61983 28.1422 2.13002C29.1258 1.77959 30.3094 1.63616 31.2891 2.05449C31.7741 2.23494 31.9807 2.19887 32.4709 2.04087C32.818 1.86994 33.1612 1.69076 33.5011 1.50597C37.0025 -0.306058 40.8905 0.26002 44.0246 2.53244ZM33.7388 4.25973C33.7654 4.39191 33.792 4.52409 33.8193 4.66028C34.1071 6.25035 34.0919 7.37224 33.1717 8.73086C32.5539 9.50822 31.8362 10.0309 30.8402 10.1771C30.0598 10.2643 29.2943 10.2881 28.5087 10.2823C26.9065 12.8498 26.9065 12.8498 26.1313 15.671C26.2344 15.6954 26.3375 15.7199 26.4437 15.7451C28.6993 16.2881 30.9033 16.9137 33.095 17.6719C33.2006 17.7082 33.3062 17.7446 33.415 17.782C34.6189 18.1981 35.8 18.6425 36.9591 19.1728C37.6801 19.4161 38.2941 19.385 38.9876 19.0834C39.1078 19.0328 39.2281 18.9821 39.3519 18.9299C39.4805 18.8743 39.6091 18.8188 39.7416 18.7615C42.9428 17.4362 46.2265 16.4972 49.5878 15.671C49.2972 14.6144 48.9434 13.6272 48.4684 12.6399C48.3754 12.4458 48.3754 12.4458 48.2805 12.2478C46.4405 8.4917 43.8251 4.70023 39.7583 3.18992C37.6218 2.56332 35.6188 3.228 33.7388 4.25973ZM28.5087 5.05217C28.1361 5.5602 28.1286 6.01877 28.1917 6.63707C28.4264 7.23062 28.6293 7.40691 29.1823 7.73659C29.8974 7.9392 30.2128 7.89287 30.886 7.588C31.4152 7.12671 31.5093 6.8704 31.6091 6.17151C31.5739 5.42633 31.2502 5.08691 30.7275 4.57671C29.8614 4.14363 29.2081 4.4799 28.5087 5.05217ZM61.6627 15.1559C61.3869 15.6784 61.4041 16.0388 61.4745 16.6219C61.7515 17.1656 61.9614 17.4838 62.4849 17.8007C63.0139 17.914 63.3336 17.8933 63.8518 17.7313C64.4499 17.213 64.771 16.8972 64.8622 16.1068C64.7853 15.3375 64.5893 15.0682 64.0103 14.5615C63.0298 14.2077 62.3989 14.4451 61.6627 15.1559ZM7.2711 19.7917C7.16997 19.8781 7.06884 19.9645 6.96465 20.0536C5.94848 20.9823 5.30412 22.2445 5.05225 23.5954C5.02879 24.2832 5.03364 24.968 5.05225 25.6558C5.22172 25.7079 5.22172 25.7079 5.39461 25.761C6.6956 26.1918 7.63747 26.6553 8.28147 27.9044C8.87211 29.2063 8.86383 30.5089 8.37124 31.8487C8.22204 32.1539 8.22204 32.1539 7.85553 32.5798C7.72315 32.7612 7.72315 32.7612 7.58808 32.9463C7.95129 34.4495 9.10493 35.7313 10.0249 36.9482C10.0928 37.039 10.1607 37.1298 10.2307 37.2234C10.3986 37.4417 10.5774 37.6515 10.7579 37.8595C10.8625 37.8595 10.9671 37.8595 11.0749 37.8595C11.291 37.6456 11.291 37.6456 11.5206 37.3543C12.7302 35.9321 14.0865 34.6249 15.5126 33.4218C15.6768 33.2794 15.8408 33.1368 16.0047 32.994C17.5515 31.6516 17.5515 31.6516 18.3567 31.0376C18.4577 30.9605 18.5587 30.8833 18.6628 30.8038C18.856 30.6574 19.0504 30.5125 19.2461 30.3695C20.1132 29.7137 20.2773 29.0789 20.4325 28.0338C20.4616 27.8461 20.4906 27.6584 20.5205 27.465C20.5514 27.2635 20.5822 27.062 20.6139 26.8544C20.8903 25.1047 21.227 23.3779 21.6342 21.6539C21.68 21.4592 21.7258 21.2644 21.773 21.0637C22.0045 20.1002 22.2553 19.1496 22.5594 18.2063C22.6652 17.8679 22.6652 17.8679 22.6446 17.4143C17.6928 16.6741 11.283 16.2127 7.2711 19.7917ZM53.233 17.4143C52.9985 17.8833 53.166 18.1583 53.3086 18.6575C53.3623 18.8499 53.416 19.0423 53.4713 19.2405C53.5003 19.3432 53.5293 19.4459 53.5593 19.5517C54.0345 21.2408 54.4624 22.9302 54.7882 24.6553C54.8202 24.8232 54.8521 24.9911 54.885 25.1641C55.0276 25.9388 55.1525 26.7108 55.2439 27.4933C55.3653 29.0338 55.3653 29.0338 56.175 30.2817C56.4058 30.4359 56.6405 30.5844 56.8783 30.7275C57.1251 30.9191 57.3693 31.1142 57.6113 31.3119C57.7451 31.4183 57.8789 31.5248 58.0168 31.6344C63.9173 36.4056 63.9173 36.4056 64.6443 37.8595C65.1458 37.6442 65.4139 37.427 65.7351 36.9878C65.8594 36.8183 65.8594 36.8183 65.9861 36.6454C66.0729 36.523 66.1596 36.4007 66.249 36.2746C66.3396 36.1475 66.4303 36.0205 66.5236 35.8896C69.0706 32.2534 71.1288 28.139 70.6669 23.5954C70.4286 22.3424 69.9316 21.3692 69.082 20.4256C68.997 20.328 68.912 20.2303 68.8244 20.1297C68.1568 19.4096 67.4237 18.9556 66.5462 18.5238C66.3941 18.7395 66.3941 18.7395 66.2391 18.9596C65.5427 19.7871 64.5926 20.1024 63.5448 20.2573C62.3283 20.3367 61.1305 19.9556 60.2066 19.1577C59.7084 18.5087 59.3003 17.8299 58.9387 17.0974C56.0698 17.0338 56.0698 17.0338 53.233 17.4143ZM25.1804 18.0483C24.6527 19.5449 24.2117 21.0304 23.8716 22.5822C23.8033 22.893 23.7328 23.2032 23.6621 23.5134C23.3624 24.8567 23.1355 26.1927 22.9616 27.5577C23.0627 27.4921 23.1638 27.4266 23.268 27.359C26.9042 25.0098 30.6871 22.8883 34.5313 20.9011C33.9416 20.508 33.3456 20.3102 32.6789 20.079C32.4722 20.0069 32.4722 20.0069 32.2612 19.9333C28.7927 18.6203 28.7927 18.6203 25.1804 18.0483ZM48.092 18.504C47.9132 18.552 47.7344 18.6 47.5501 18.6495C45.3947 19.2439 43.2915 19.988 41.1878 20.7426C41.5343 21.1243 41.8564 21.339 42.322 21.5567C42.4558 21.6208 42.5895 21.6848 42.7273 21.7508C42.8731 21.8202 43.0188 21.8895 43.169 21.961C46.3037 23.4913 49.2668 25.3582 52.1961 27.2468C52.4478 27.4089 52.4478 27.4089 52.7576 27.5577C52.4466 25.5338 52.0575 23.5414 51.559 21.5549C51.5126 21.3696 51.4662 21.1844 51.4184 20.9935C51.1632 19.9961 50.8782 19.0204 50.5387 18.0483C49.6769 18.0483 48.9209 18.2804 48.092 18.504ZM29.4596 26.4482C29.3081 26.5373 29.1566 26.6263 29.0005 26.7181C25.5569 28.6271 25.5569 28.6271 22.4861 31.0444C22.4245 31.4905 22.3728 31.9339 22.3276 32.3817C22.3145 32.5007 22.3014 32.6197 22.288 32.7423C22.0444 35.0888 21.9784 37.4435 21.9809 39.801C21.9808 39.9292 21.9808 40.0573 21.9807 40.1894C21.9821 42.5492 22.0696 44.8989 22.2896 47.2494C22.3203 47.6017 22.3332 47.9556 22.3406 48.3093C22.5661 49.0626 23.0775 49.3429 23.7144 49.766C23.8415 49.8538 23.9686 49.9417 24.0996 50.0322C27.6741 52.4731 31.4644 54.6075 35.3237 56.5612C35.487 56.6442 35.487 56.6442 35.6536 56.7288C36.9312 57.3859 36.9312 57.3859 38.335 57.5122C38.7563 57.3769 38.7563 57.3769 39.1665 57.1686C39.3235 57.0934 39.4805 57.0182 39.6423 56.9407C39.8925 56.8166 39.8925 56.8166 40.1478 56.69C40.4093 56.5623 40.4093 56.5623 40.6762 56.4319C42.3304 55.6136 43.9375 54.7191 45.5314 53.7896C45.9152 53.5659 46.3001 53.3443 46.6854 53.1234C47.966 52.385 49.2202 51.6159 50.4335 50.7708C50.8262 50.4988 51.2241 50.2609 51.6444 50.0341C52.6967 49.4485 52.6967 49.4485 53.3562 48.4801C53.5311 47.7169 53.5467 46.9518 53.5472 46.1715C53.5498 45.8181 53.5685 45.4723 53.5977 45.1203C53.929 40.9837 53.7971 36.7402 53.4295 32.6103C53.3995 32.2491 53.386 31.8866 53.3785 31.5242C53.1518 30.7764 52.6377 30.4942 52.0047 30.0737C51.8776 29.9859 51.7505 29.898 51.6195 29.8075C42.9808 23.9083 38.6759 20.9945 29.4596 26.4482ZM3.19 28.9643C2.95363 29.3661 2.85568 29.6256 2.8334 30.0935C3.04316 30.6981 3.26485 31.0054 3.74471 31.4308C4.39148 31.7417 4.68689 31.7308 5.36923 31.5199C5.92978 31.0447 6.28574 30.7135 6.36969 29.9746C6.3071 29.3236 6.09737 29.0111 5.68621 28.5086C4.77505 27.862 3.90427 28.199 3.19 28.9643ZM18.6625 33.9864C18.1531 34.4588 17.6438 34.9297 17.1173 35.3831C14.7185 37.4129 14.7185 37.4129 12.6597 39.7614C13.6264 42.0364 16.4975 44.0108 18.3257 45.5958C18.4647 45.717 18.4647 45.717 18.6064 45.8406C19.0004 46.1776 19.2948 46.4108 19.7918 46.5764C19.7746 46.3319 19.7746 46.3319 19.7571 46.0824C19.4941 41.8371 19.494 37.5065 19.7918 33.2633C19.2718 33.2633 19.0324 33.6407 18.6625 33.9864ZM55.9274 33.2633C55.9388 33.4282 55.9502 33.593 55.962 33.7629C56.2235 38.0123 56.203 42.328 55.9274 46.5764C56.6283 46.191 57.2018 45.7144 57.7995 45.1896C57.9534 45.0551 57.9534 45.0551 58.1104 44.918C59.8458 43.3914 61.5632 41.8447 63.0594 40.0783C62.2869 38.3922 60.5501 36.9943 59.1628 35.8096C58.8357 35.5297 58.5122 35.2465 58.1895 34.9615C57.9737 34.7718 57.7578 34.5822 57.542 34.3925C57.4375 34.2999 57.3331 34.2073 57.2255 34.1119C57.1262 34.0251 57.027 33.9384 56.9247 33.849C56.8357 33.7705 56.7467 33.6921 56.6549 33.6113C56.3859 33.3882 56.3859 33.3882 55.9274 33.2633ZM10.4818 42.2557C7.34059 46.047 4.63993 50.836 5.01364 55.8972C5.16803 57.2849 5.71197 58.3866 6.63715 59.4141C6.72214 59.5117 6.80713 59.6094 6.89469 59.71C7.5623 60.4301 8.29543 60.8841 9.17298 61.3159C9.32988 61.1002 9.32988 61.1002 9.48996 60.8801C10.1249 60.117 11.0393 59.6737 12.0258 59.5725C13.3112 59.4737 14.524 59.8472 15.5126 60.682C16.0101 61.3287 16.4264 62.0076 16.7805 62.7423C18.3006 62.7724 19.8047 62.7761 21.3172 62.6037C21.4325 62.5912 21.5479 62.5788 21.6667 62.566C21.9416 62.5314 22.2144 62.48 22.4861 62.4254C22.7206 61.9564 22.5531 61.6814 22.4106 61.1822C22.3569 60.9898 22.3032 60.7974 22.2479 60.5992C22.2043 60.4452 22.2043 60.4452 22.1599 60.288C21.6856 58.6023 21.2577 56.9157 20.9309 55.1943C20.8985 55.0266 20.8661 54.8588 20.8327 54.686C20.6864 53.8987 20.5664 53.1202 20.4975 52.3223C20.4019 50.8619 20.4019 50.8619 19.7292 49.6125C19.2393 49.2477 18.7331 48.9465 18.2069 48.6368C17.8443 48.3604 17.5006 48.0645 17.1569 47.7651C17.0703 47.691 16.9837 47.6169 16.8945 47.5406C16.1041 46.8635 15.3299 46.1691 14.5616 45.467C14.4011 45.3213 14.2405 45.1756 14.08 45.0299C11.8157 42.9711 11.8157 42.9711 11.2631 42.2279C11.1699 42.1053 11.1699 42.1053 11.0749 41.9802C10.7303 41.9429 10.7303 41.9429 10.4818 42.2557ZM64.6443 41.9802C64.421 42.2064 64.2081 42.4429 64.0004 42.6835C63.0156 43.8009 61.9837 44.847 60.8523 45.8162C60.4916 46.1286 60.1417 46.4514 59.7905 46.7745C58.9762 47.5096 58.1232 48.1889 57.2578 48.8621C57.1262 48.9674 57.1262 48.9674 56.992 49.0747C56.7198 49.2707 56.7198 49.2707 56.4223 49.4101C56.0622 49.5944 55.8624 49.7432 55.6104 50.0632C55.388 50.7721 55.2808 51.4881 55.1837 52.2223C55.1005 52.848 55.0014 53.4712 54.904 54.0948C54.8749 54.285 54.8749 54.285 54.8451 54.479C54.6483 55.7394 54.373 56.9756 54.075 58.2155C54.0071 58.4991 54.0071 58.4991 53.9379 58.7884C53.8105 59.3144 53.6809 59.8398 53.55 60.365C53.5043 60.5485 53.4586 60.732 53.4116 60.921C53.2996 61.3697 53.1873 61.8183 53.0745 62.2669C53.1824 62.2897 53.2903 62.3124 53.4015 62.3359C53.6588 62.3903 53.9161 62.4447 54.1735 62.499C55.6531 62.7573 57.1238 62.7807 58.6217 62.782C58.7384 62.7821 58.8551 62.7822 58.9754 62.7823C60.6981 62.7798 62.3383 62.7214 64.0103 62.2669C64.1126 62.2397 64.2148 62.2125 64.3202 62.1844C66.498 61.5889 68.5783 60.5019 69.8107 58.5343C70.4545 57.2973 70.9085 55.9119 70.8254 54.5009C70.5142 54.0565 70.1891 53.9492 69.6763 53.8174C68.7729 53.5324 68.1164 53.0842 67.6104 52.2721C67.001 51.084 66.7557 49.8462 67.1467 48.534C67.3677 48.0261 67.6007 47.5974 67.9428 47.1608C68.1687 46.9059 68.1687 46.9059 68.0831 46.5944C67.8973 46.0314 67.5745 45.5598 67.2594 45.0609C67.1891 44.9491 67.1188 44.8373 67.0464 44.7222C66.427 43.7544 65.7692 42.8021 64.9613 41.9802C64.8567 41.9802 64.7521 41.9802 64.6443 41.9802ZM69.8744 48.6368C69.5261 49.0664 69.411 49.3483 69.3296 49.8948C69.4192 50.5218 69.6269 50.8483 70.0329 51.3311C70.5172 51.6321 70.8072 51.6481 71.3801 51.6481C72.0992 51.4426 72.3224 51.1578 72.7272 50.5386C72.9408 50.0048 72.907 49.8076 72.7173 49.2608C72.3584 48.7166 72.0331 48.4657 71.4593 48.1613C70.7567 48.1613 70.4655 48.272 69.8744 48.6368ZM22.9616 52.282C23.2725 54.3059 23.6617 56.2983 24.1601 58.2848C24.2065 58.4701 24.2529 58.6553 24.3007 58.8462C24.556 59.8436 24.8409 60.8193 25.1804 61.7914C26.2412 61.6906 27.2272 61.4479 28.2511 61.1574C28.4209 61.1097 28.5907 61.062 28.7656 61.0128C30.7142 60.4535 32.624 59.7824 34.5313 59.0971C34.1848 58.7154 33.8628 58.5007 33.3971 58.283C33.2633 58.2189 33.1296 58.1549 32.9918 58.0889C32.846 58.0195 32.7003 57.9502 32.5502 57.8787C29.4154 56.3484 26.4523 54.4815 23.523 52.5929C23.2714 52.4308 23.2714 52.4308 22.9616 52.282ZM52.0239 52.6547C49.0215 54.6473 45.9291 56.4375 42.7214 58.0787C42.1977 58.3472 41.6863 58.6248 41.1878 58.9386C41.9911 59.4741 42.9306 59.7063 43.8425 60.0084C43.9482 60.0436 44.0539 60.0788 44.1628 60.1151C47.293 61.283 47.293 61.283 50.5387 61.7914C51.0664 60.2948 51.5074 58.8093 51.8475 57.2575C51.9158 56.9467 51.9863 56.6365 52.0571 56.3263C52.3567 54.983 52.5837 53.647 52.7576 52.282C52.4721 52.282 52.2546 52.5002 52.0239 52.6547ZM36.0567 61.0584C32.8595 62.3862 29.5063 63.4063 26.1313 64.1687C26.422 65.2253 26.7758 66.2125 27.2507 67.1998C27.3127 67.3292 27.3747 67.4586 27.4387 67.5919C29.2298 71.2483 31.7512 74.9327 35.6407 76.5309C37.6041 77.1775 39.4736 76.8516 41.2968 75.9465C41.5255 75.8259 41.7537 75.7044 41.9803 75.58C41.9537 75.4478 41.9272 75.3156 41.8998 75.1794C41.612 73.5893 41.6272 72.4675 42.5474 71.1088C43.1794 70.3136 43.926 69.8069 44.9414 69.6502C45.0855 69.6392 45.2295 69.6282 45.3779 69.6168C45.5215 69.605 45.6652 69.5931 45.8131 69.5809C46.2797 69.5563 46.7433 69.5532 47.2104 69.5574C47.4891 69.0364 47.766 68.5144 48.0425 67.9923C48.1203 67.8468 48.1982 67.7014 48.2784 67.5515C49.0386 66.1423 49.0386 66.1423 49.5878 64.6442C49.5355 64.4873 49.4832 64.3304 49.4293 64.1687C49.0782 64.0236 49.0782 64.0236 48.6393 63.9353C48.4703 63.895 48.3013 63.8546 48.1272 63.813C47.9423 63.7702 47.7575 63.7274 47.567 63.6834C44.5045 62.9334 41.5054 61.9345 38.6124 60.6758C37.6215 60.3295 36.9728 60.6621 36.0567 61.0584ZM11.3918 62.4254C11.0124 62.8807 10.9227 63.1745 10.8371 63.7626C10.9411 64.5037 11.1474 64.787 11.7088 65.2782C12.3371 65.5049 12.8076 65.5081 13.4225 65.2484C13.9872 64.7805 14.2173 64.5382 14.314 63.7923C14.2315 63.1089 14.0578 62.7865 13.6107 62.2669C12.7491 61.8046 12.2134 61.929 11.3918 62.4254ZM44.3675 72.6776C44.1162 73.2247 44.0763 73.7302 44.1991 74.3121C44.477 74.7905 44.8062 75.1703 45.3086 75.4215C45.9279 75.4919 46.2192 75.4432 46.7746 75.1441C47.3544 74.6697 47.4985 74.4256 47.5769 73.688C47.5184 73.1142 47.4228 72.8528 47.052 72.4102C46.0251 71.8281 45.2688 71.8927 44.3675 72.6776Z" fill="black"/>
</svg>
