<svg width="143" height="132" viewBox="0 0 143 132" fill="none" xmlns="http://www.w3.org/2000/svg">
<path d="M136.951 22.992L136.094 21.562C128.833 9.47174 115.741 2.18611 101.937 3.07268C100.157 3.17645 98.3869 3.41544 96.6422 3.78766C84.0906 6.50815 73.1697 16.121 68.6446 28.433C65.9797 35.6721 65.2385 44.0088 60.1734 49.7572C53.6011 57.2359 42.4366 57.4683 32.6417 57.1608C22.8468 56.8534 11.6576 57.1143 5.11003 64.6216C1.02264 69.344 -0.279821 76.0505 0.048441 82.3281C0.923807 99.0014 12.4024 113.912 26.9836 121.323C41.5648 128.734 58.7509 129.395 74.7157 126.135C97.0834 121.57 118.357 109.029 131.142 89.6709C143.926 70.3128 147.163 43.898 136.951 22.992Z" fill="#FFEFE3"/>
<g clip-path="url(#clip0_2611_3774)">
<mask id="path-2-outside-1_2611_3774" maskUnits="userSpaceOnUse" x="3.83997" y="-1.09619" width="134" height="134" fill="black">
<rect fill="white" x="3.83997" y="-1.09619" width="134" height="134"/>
<path d="M74.3516 -9.6716e-05C75.1013 0.397691 75.6915 0.84557 76.3216 1.41063C77.7563 2.61787 79.0296 2.88738 80.8614 3.10977C81.4152 3.19009 81.9687 3.27202 82.522 3.35549C82.9339 3.41706 82.9339 3.41706 83.354 3.47987C93.2981 5.09967 102.889 9.70388 110.703 15.9843C110.841 16.0922 110.978 16.2001 111.119 16.3113C115.068 19.4218 118.796 23.0907 121.743 27.1675C122.05 27.5895 122.364 28.0042 122.68 28.4187C130.541 38.8771 134.869 52.4317 134.68 65.4843C134.88 65.5584 135.081 65.6325 135.287 65.7089C136.19 66.0941 136.51 66.4363 137 67.289C137.259 68.6805 137.067 69.7656 136.297 70.9734C135.969 71.414 135.969 71.414 135.593 71.8344C134.275 73.3559 134.063 74.8601 133.793 76.8119C132.339 85.9116 129.092 95.1258 123.594 102.609C123.482 102.763 123.371 102.918 123.256 103.076C119.823 107.815 116.084 112.128 111.477 115.758C111.173 116.01 111.173 116.01 110.862 116.268C107.795 118.804 104.409 120.847 100.906 122.719C100.743 122.807 100.579 122.895 100.41 122.986C92.1641 127.403 82.2359 130.067 72.8531 129.954C72.5962 129.951 72.3393 129.949 72.0746 129.946C71.8901 129.943 71.7057 129.94 71.5157 129.937C71.4389 130.14 71.3621 130.344 71.283 130.553C70.9417 131.365 70.7622 131.613 69.9688 132C69.1445 132.199 68.4726 132.209 67.6485 132C67.0694 131.565 67.0694 131.565 66.4722 131.017C64.9761 129.715 63.4625 129.524 61.5643 129.255C48.8178 127.376 37.0116 121.742 27.4297 113.18C27.1666 112.948 26.9034 112.717 26.6402 112.486C25.2458 111.245 23.9827 109.971 22.7891 108.539C22.5807 108.302 22.3724 108.064 22.1577 107.82C19.1698 104.404 16.6813 100.733 14.572 96.7159C14.301 96.2014 14.0234 95.6912 13.7445 95.1811C9.55159 87.3461 7.75112 78.4607 7.16425 69.6727C7.16391 67.8685 7.16391 67.8685 6.38477 66.3655C6.13801 66.2085 6.13801 66.2085 5.88627 66.0482C5.3152 65.6006 5.0407 65.373 4.84495 64.6675C4.7936 63.2741 5.13574 62.4485 6.03129 61.3593C6.24864 61.1466 6.46598 60.9339 6.68992 60.7147C7.5968 59.6212 7.58342 58.3946 7.69096 57.0248C9.22065 42.1331 16.9433 27.2854 28.5093 17.6762C29.0069 17.2817 29.5067 16.8899 30.0079 16.4999C30.1691 16.3719 30.3303 16.2439 30.4964 16.1121C32.9796 14.1408 35.4826 12.3612 38.2579 10.828C38.467 10.7101 38.6761 10.5922 38.8916 10.4708C47.1413 5.84765 56.344 3.04677 65.8015 2.45516C66.0846 2.43697 66.3678 2.41877 66.6595 2.40003C67.1983 2.36906 67.7375 2.34502 68.2769 2.32903C68.9598 2.29258 69.5686 2.24926 70.2266 2.0624C70.8857 1.33877 70.8857 1.33877 71.2579 0.515528C72.3015 -0.180236 73.1258 -0.169171 74.3516 -9.6716e-05ZM71.9507 2.01406C71.4554 2.79479 71.4554 2.79479 71.5157 3.60928C71.2775 3.61289 71.2775 3.61289 71.0345 3.61658C55.4513 3.90911 40.6968 8.91285 28.9766 19.3358C28.8482 19.4483 28.7198 19.5608 28.5875 19.6767C22.5099 25.0097 17.6305 31.563 14.2813 38.9296C14.1963 39.1154 14.1114 39.3013 14.0239 39.4928C11.5179 45.0415 9.00208 51.585 9.12504 57.7499C10.4087 56.7954 11.3309 55.6766 12.3286 54.4316C13.0622 53.5282 13.8351 52.6633 14.6197 51.8041C14.7495 51.6597 14.8793 51.5153 15.0131 51.3665C15.9719 50.3254 16.5817 49.8172 17.9873 49.661C19.291 49.7959 20.0454 50.3176 20.9021 51.2714C21.3663 51.8486 21.8141 52.4353 22.2574 53.0287C22.4074 53.226 22.5575 53.4232 22.7121 53.6264C23.0142 54.0235 23.3154 54.4213 23.6158 54.8197C24.3619 55.8039 25.1223 56.7769 25.8829 57.7499C26.053 57.6648 26.2232 57.5797 26.3985 57.4921C26.5623 57.0256 26.5623 57.0256 26.6674 56.4548C26.7144 56.2366 26.7615 56.0184 26.81 55.7936C26.8855 55.438 26.8855 55.438 26.9624 55.0751C29.5485 43.711 36.4082 34.2883 46.1705 27.9957C53.6472 23.306 62.4128 20.7377 71.2579 20.8827C71.3748 21.1273 71.4918 21.3719 71.6123 21.6239C71.9803 22.4304 71.9803 22.4304 72.5469 22.9452C74.3448 22.9594 75.5726 22.0135 77.0264 21.0438C77.2752 20.8815 77.5241 20.7191 77.7805 20.5518C78.2877 20.2206 78.7941 19.8882 79.2996 19.5545C79.9564 19.1222 80.6161 18.6952 81.2783 18.2714C84.5547 16.3068 84.5547 16.3068 87.5 13.9218C87.6318 13.1722 87.6318 13.1722 87.5 12.3749C87.0703 11.7846 87.0703 11.7846 86.4366 11.2953C86.1999 11.0962 85.9633 10.8972 85.7195 10.6921C84.5803 9.78155 83.4387 8.87498 82.2864 7.98101C81.2558 7.17883 80.2449 6.3534 79.2339 5.52676C78.7188 5.10817 78.2032 4.69014 77.6873 4.27244C77.3575 4.00498 77.0284 3.73677 76.6999 3.46778C76.2472 3.09822 75.7914 2.73291 75.3345 2.36856C74.9462 2.055 74.9462 2.055 74.55 1.7351C73.4055 1.01999 72.8244 0.951491 71.9507 2.01406ZM80.5391 4.64053C81.9533 6.10039 83.4507 7.46454 85.0649 8.70107C85.2248 8.82383 85.3847 8.94659 85.5494 9.07306C85.8651 9.31371 86.1824 9.55225 86.5015 9.78834C87.6152 10.6361 88.6391 11.5338 88.8969 12.9792C88.8773 13.1626 88.8576 13.3461 88.8374 13.5351C88.8251 13.7185 88.8128 13.902 88.8002 14.091C87.9735 15.9487 85.5528 17.037 83.9068 18.0629C83.5391 18.2944 83.5391 18.2944 83.1641 18.5307C82.4619 18.9725 81.7585 19.4123 81.0547 19.8515C80.6516 20.1036 80.2484 20.3557 79.8452 20.6078C79.423 20.8715 79.423 20.8715 78.9922 21.1405C79.5863 21.7346 79.8774 21.7884 80.6831 21.9724C81.0442 22.0585 81.0442 22.0585 81.4126 22.1464C81.672 22.208 81.9315 22.2695 82.1988 22.3329C93.685 25.2049 103.543 32.7288 109.644 42.8329C109.738 42.9911 109.833 43.1494 109.93 43.3124C110.073 43.5512 110.073 43.5512 110.219 43.7949C114.172 50.5173 116.428 58.6866 116.117 66.5155C115.873 66.6325 115.628 66.7495 115.376 66.87C114.57 67.238 114.57 67.238 114.055 67.8046C114.059 69.5159 114.848 70.5624 115.827 71.9135C116.135 72.3499 116.442 72.7863 116.75 73.2227C116.904 73.4392 117.058 73.6557 117.217 73.8788C117.861 74.7846 118.487 75.7015 119.114 76.6186C119.343 76.9506 119.572 77.2826 119.801 77.6146C120.298 78.3363 120.79 79.0612 121.28 79.7878C121.408 79.9774 121.536 80.1669 121.669 80.3622C121.915 80.7259 122.16 81.0904 122.404 81.4557C122.929 82.2284 123.323 82.7493 124.109 83.2733C125.149 83.246 125.623 82.8666 126.329 82.1353C127.026 81.3414 127.625 80.4776 128.234 79.6156C128.531 79.2 128.828 78.7844 129.125 78.3689C129.276 78.1566 129.427 77.9443 129.582 77.7256C130.169 76.9046 130.761 76.0882 131.354 75.272C131.907 74.5093 132.456 73.7442 133.006 72.979C133.374 72.4688 133.745 71.9615 134.117 71.4543C134.331 71.1563 134.546 70.8582 134.76 70.56C134.945 70.3057 135.131 70.0515 135.321 69.7896C135.742 69.0389 135.824 68.6492 135.711 67.8046C135.443 67.3216 135.443 67.3216 134.938 67.0312C134.424 66.9358 133.908 66.849 133.391 66.7733C133.388 66.6054 133.386 66.4374 133.383 66.2644C133.073 48.8044 126.391 32.8226 113.836 20.6148C112.678 19.5126 111.449 18.5125 110.188 17.5312C109.94 17.3311 109.693 17.131 109.438 16.9249C101.939 10.9598 90.4406 4.37492 80.5391 4.64053ZM39.8047 34.289C39.6116 34.4631 39.4186 34.6373 39.2196 34.8167C32.7887 40.9463 28.2439 50.3112 27.3421 59.1215C27.453 59.996 27.7621 60.4251 28.2998 61.1176C29.1293 62.1979 29.775 63.0684 29.7178 64.4691C29.4515 65.3633 29.202 65.6969 28.461 66.2577C27.6231 66.58 27.6231 66.58 26.9141 66.7733C26.2999 76.4867 30.9308 87.1799 37.1712 94.4378C37.8547 95.2071 38.5691 95.9444 39.2891 96.6796C39.5383 96.9416 39.7874 97.2038 40.0364 97.4661C42.732 100.272 45.7136 102.47 49.086 104.414C49.5172 104.668 49.5172 104.668 49.9571 104.928C53.4038 106.901 57.2018 108.258 61.0581 109.184C61.3161 109.245 61.3161 109.245 61.5792 109.309C63.6243 109.765 63.6243 109.765 65.5346 109.128C65.7483 108.939 65.962 108.75 66.1822 108.555C67.3489 107.542 67.8613 107.163 69.4612 107.198C69.9688 107.25 69.9688 107.25 70.5811 107.508C71.2226 108.297 71.3203 109.093 71.5157 110.086C81.9414 110.747 92.5459 105.782 100.233 99.013C104.375 95.2923 107.637 91.0526 110.188 86.1093C110.27 85.9498 110.352 85.7904 110.437 85.6261C112.165 82.2275 113.353 78.6603 114.184 74.9428C114.255 74.6356 114.255 74.6356 114.328 74.3222C114.564 73.1892 114.655 72.4609 114.055 71.414C113.879 71.1747 113.704 70.9354 113.523 70.6889C112.882 69.6349 112.785 69.0369 112.766 67.8046C113.118 66.9244 113.342 66.6066 114.206 66.2074C114.915 65.7867 114.915 65.7866 114.981 64.9274C114.694 52.9548 109.366 41.8535 100.735 33.6216C94.6431 28.0123 86.0534 23.1645 77.6709 22.5746C76.5394 22.7024 76.0572 23.0413 75.1442 23.6673C74.2322 24.1946 73.334 24.3692 72.2891 24.2343C71.3554 23.7537 70.8209 23.1813 70.4844 22.1718C58.9602 21.7003 48.2133 26.7049 39.8047 34.289ZM16.1988 51.9622C15.1466 53.0194 14.197 54.1614 13.238 55.3027C12.5978 56.0643 11.9393 56.8059 11.2681 57.5404C10.262 58.6486 9.31146 59.7943 8.37476 60.9615C7.90265 61.536 7.41011 62.0745 6.90141 62.6161C6.22519 63.3475 6.22519 63.3475 6.25687 64.1308C6.60191 64.8208 6.91643 65.095 7.57816 65.4843C7.8334 65.5694 8.08863 65.6544 8.3516 65.7421C8.36182 65.9531 8.37204 66.1642 8.38257 66.3817C9.29077 84.3237 15.698 100.276 28.9766 112.664C29.8937 113.478 30.8403 114.238 31.8125 114.984C31.9647 115.103 32.1168 115.222 32.2735 115.345C34.682 117.225 37.1372 118.909 39.8047 120.398C39.9863 120.501 40.1679 120.604 40.355 120.71C46.7674 124.322 55.2409 128.069 62.75 127.875C61.2537 126.359 59.6823 124.928 58.1094 123.492C57.8921 123.293 57.6747 123.095 57.4508 122.89C57.2693 122.727 57.0879 122.564 56.9009 122.396C56.7457 122.257 56.5905 122.117 56.4306 121.973C56.0578 121.636 56.0578 121.636 55.5313 121.687C54.8527 120.33 54.8312 119.043 55.209 117.595C55.5963 116.936 55.8883 116.86 56.5625 116.531C56.8559 116.304 57.1413 116.067 57.4186 115.82C57.6558 115.611 57.6558 115.611 57.8979 115.398C58.0634 115.251 58.2289 115.104 58.3995 114.952C59.9038 113.629 61.427 112.348 63.0079 111.117C62.2762 110.629 61.8682 110.477 61.034 110.285C60.6741 110.199 60.6741 110.199 60.3069 110.111C60.0496 110.05 59.7924 109.988 59.5274 109.925C48.118 107.063 38.403 99.5317 32.2617 89.5626C28.3527 82.9019 26.0632 75.7964 25.7378 68.0624C25.7267 67.8135 25.7156 67.5646 25.7041 67.3081C25.677 66.7002 25.6507 66.0922 25.625 65.4843C25.868 65.4876 26.1109 65.4909 26.3612 65.4943C27.3754 65.4841 27.3754 65.4841 28.2032 64.9687C28.4873 64.274 28.4873 64.274 28.461 63.4218C28.1165 62.7177 27.635 62.1407 27.1397 61.5365C27 61.3586 26.8603 61.1807 26.7163 60.9974C26.42 60.6201 26.122 60.2442 25.8224 59.8696C25.2309 59.1252 24.6557 58.3691 24.0807 57.6119C23.6624 57.0613 23.2417 56.5126 22.8203 55.9643C22.2991 55.2855 21.7815 54.6042 21.2674 53.92C21.093 53.6893 21.093 53.6893 20.9151 53.4539C20.604 53.0422 20.2941 52.6297 19.9844 52.217C19.4872 51.6219 19.0688 51.1873 18.4063 50.789C17.3216 50.789 16.9824 51.2521 16.1988 51.9622ZM115.602 73.9921C115.564 74.1552 115.527 74.3184 115.488 74.4864C113.455 83.246 109.999 90.853 103.742 97.453C103.515 97.697 103.288 97.9409 103.053 98.1922C95.1496 106.504 83.5381 111.015 72.1824 111.405C71.6163 111.407 71.0502 111.393 70.4844 111.375C70.4621 111.195 70.4399 111.015 70.4169 110.829C70.2485 109.39 70.2485 109.39 69.3726 108.329C68.0397 108.237 67.0948 109.274 66.1384 110.104C65.988 110.237 65.8376 110.369 65.6827 110.505C65.3596 110.785 65.0363 111.066 64.7128 111.346C64.5542 111.483 64.3955 111.62 64.2321 111.762C63.6236 112.283 63.0027 112.789 62.3794 113.292C61.2013 114.25 60.047 115.232 58.899 116.225C58.7341 116.367 58.5693 116.509 58.3995 116.656C57.1741 117.703 57.1741 117.703 56.0469 118.851C56.0235 119.766 56.2467 120.079 56.8757 120.742C58.7896 122.575 60.7366 124.326 62.8024 125.986C63.6058 126.654 64.3703 127.356 65.1348 128.068C66.8923 129.907 66.8923 129.907 69.147 130.727C69.7395 130.496 69.7395 130.496 70.0494 129.97C70.2663 129.395 70.2663 129.395 70.2266 128.648C70.3854 128.646 70.5442 128.644 70.7078 128.641C86.179 128.351 100.617 123.187 112.25 112.922C112.38 112.809 112.509 112.695 112.643 112.579C122.708 103.744 130.277 90.921 132.359 77.6015C132.37 77.1719 132.374 76.7419 132.359 76.3124C131.483 77.1304 130.801 78.0398 130.12 79.0194C129.893 79.3402 129.666 79.6608 129.439 79.9812C129.325 80.1425 129.211 80.3038 129.093 80.47C128.56 81.2207 128.022 81.9674 127.477 82.7094C127.294 82.961 127.111 83.2125 126.922 83.4717C126.355 84.1335 125.971 84.2633 125.119 84.3751C124.924 84.3837 124.729 84.3924 124.528 84.4013C124.335 84.4139 124.142 84.4265 123.942 84.4395C122.405 84.0975 121.464 82.2636 120.613 81.0336C120.481 80.8455 120.349 80.6574 120.214 80.4637C119.056 78.8015 117.933 77.1161 116.825 75.4199C116.702 75.2329 116.579 75.0459 116.453 74.8531C116.344 74.6866 116.235 74.5201 116.124 74.3485C116.036 74.2309 115.949 74.1133 115.859 73.9921C115.774 73.9921 115.689 73.9921 115.602 73.9921Z"/>
</mask>
<path d="M74.3516 -9.6716e-05C75.1013 0.397691 75.6915 0.84557 76.3216 1.41063C77.7563 2.61787 79.0296 2.88738 80.8614 3.10977C81.4152 3.19009 81.9687 3.27202 82.522 3.35549C82.9339 3.41706 82.9339 3.41706 83.354 3.47987C93.2981 5.09967 102.889 9.70388 110.703 15.9843C110.841 16.0922 110.978 16.2001 111.119 16.3113C115.068 19.4218 118.796 23.0907 121.743 27.1675C122.05 27.5895 122.364 28.0042 122.68 28.4187C130.541 38.8771 134.869 52.4317 134.68 65.4843C134.88 65.5584 135.081 65.6325 135.287 65.7089C136.19 66.0941 136.51 66.4363 137 67.289C137.259 68.6805 137.067 69.7656 136.297 70.9734C135.969 71.414 135.969 71.414 135.593 71.8344C134.275 73.3559 134.063 74.8601 133.793 76.8119C132.339 85.9116 129.092 95.1258 123.594 102.609C123.482 102.763 123.371 102.918 123.256 103.076C119.823 107.815 116.084 112.128 111.477 115.758C111.173 116.01 111.173 116.01 110.862 116.268C107.795 118.804 104.409 120.847 100.906 122.719C100.743 122.807 100.579 122.895 100.41 122.986C92.1641 127.403 82.2359 130.067 72.8531 129.954C72.5962 129.951 72.3393 129.949 72.0746 129.946C71.8901 129.943 71.7057 129.94 71.5157 129.937C71.4389 130.14 71.3621 130.344 71.283 130.553C70.9417 131.365 70.7622 131.613 69.9688 132C69.1445 132.199 68.4726 132.209 67.6485 132C67.0694 131.565 67.0694 131.565 66.4722 131.017C64.9761 129.715 63.4625 129.524 61.5643 129.255C48.8178 127.376 37.0116 121.742 27.4297 113.18C27.1666 112.948 26.9034 112.717 26.6402 112.486C25.2458 111.245 23.9827 109.971 22.7891 108.539C22.5807 108.302 22.3724 108.064 22.1577 107.82C19.1698 104.404 16.6813 100.733 14.572 96.7159C14.301 96.2014 14.0234 95.6912 13.7445 95.1811C9.55159 87.3461 7.75112 78.4607 7.16425 69.6727C7.16391 67.8685 7.16391 67.8685 6.38477 66.3655C6.13801 66.2085 6.13801 66.2085 5.88627 66.0482C5.3152 65.6006 5.0407 65.373 4.84495 64.6675C4.7936 63.2741 5.13574 62.4485 6.03129 61.3593C6.24864 61.1466 6.46598 60.9339 6.68992 60.7147C7.5968 59.6212 7.58342 58.3946 7.69096 57.0248C9.22065 42.1331 16.9433 27.2854 28.5093 17.6762C29.0069 17.2817 29.5067 16.8899 30.0079 16.4999C30.1691 16.3719 30.3303 16.2439 30.4964 16.1121C32.9796 14.1408 35.4826 12.3612 38.2579 10.828C38.467 10.7101 38.6761 10.5922 38.8916 10.4708C47.1413 5.84765 56.344 3.04677 65.8015 2.45516C66.0846 2.43697 66.3678 2.41877 66.6595 2.40003C67.1983 2.36906 67.7375 2.34502 68.2769 2.32903C68.9598 2.29258 69.5686 2.24926 70.2266 2.0624C70.8857 1.33877 70.8857 1.33877 71.2579 0.515528C72.3015 -0.180236 73.1258 -0.169171 74.3516 -9.6716e-05ZM71.9507 2.01406C71.4554 2.79479 71.4554 2.79479 71.5157 3.60928C71.2775 3.61289 71.2775 3.61289 71.0345 3.61658C55.4513 3.90911 40.6968 8.91285 28.9766 19.3358C28.8482 19.4483 28.7198 19.5608 28.5875 19.6767C22.5099 25.0097 17.6305 31.563 14.2813 38.9296C14.1963 39.1154 14.1114 39.3013 14.0239 39.4928C11.5179 45.0415 9.00208 51.585 9.12504 57.7499C10.4087 56.7954 11.3309 55.6766 12.3286 54.4316C13.0622 53.5282 13.8351 52.6633 14.6197 51.8041C14.7495 51.6597 14.8793 51.5153 15.0131 51.3665C15.9719 50.3254 16.5817 49.8172 17.9873 49.661C19.291 49.7959 20.0454 50.3176 20.9021 51.2714C21.3663 51.8486 21.8141 52.4353 22.2574 53.0287C22.4074 53.226 22.5575 53.4232 22.7121 53.6264C23.0142 54.0235 23.3154 54.4213 23.6158 54.8197C24.3619 55.8039 25.1223 56.7769 25.8829 57.7499C26.053 57.6648 26.2232 57.5797 26.3985 57.4921C26.5623 57.0256 26.5623 57.0256 26.6674 56.4548C26.7144 56.2366 26.7615 56.0184 26.81 55.7936C26.8855 55.438 26.8855 55.438 26.9624 55.0751C29.5485 43.711 36.4082 34.2883 46.1705 27.9957C53.6472 23.306 62.4128 20.7377 71.2579 20.8827C71.3748 21.1273 71.4918 21.3719 71.6123 21.6239C71.9803 22.4304 71.9803 22.4304 72.5469 22.9452C74.3448 22.9594 75.5726 22.0135 77.0264 21.0438C77.2752 20.8815 77.5241 20.7191 77.7805 20.5518C78.2877 20.2206 78.7941 19.8882 79.2996 19.5545C79.9564 19.1222 80.6161 18.6952 81.2783 18.2714C84.5547 16.3068 84.5547 16.3068 87.5 13.9218C87.6318 13.1722 87.6318 13.1722 87.5 12.3749C87.0703 11.7846 87.0703 11.7846 86.4366 11.2953C86.1999 11.0962 85.9633 10.8972 85.7195 10.6921C84.5803 9.78155 83.4387 8.87498 82.2864 7.98101C81.2558 7.17883 80.2449 6.3534 79.2339 5.52676C78.7188 5.10817 78.2032 4.69014 77.6873 4.27244C77.3575 4.00498 77.0284 3.73677 76.6999 3.46778C76.2472 3.09822 75.7914 2.73291 75.3345 2.36856C74.9462 2.055 74.9462 2.055 74.55 1.7351C73.4055 1.01999 72.8244 0.951491 71.9507 2.01406ZM80.5391 4.64053C81.9533 6.10039 83.4507 7.46454 85.0649 8.70107C85.2248 8.82383 85.3847 8.94659 85.5494 9.07306C85.8651 9.31371 86.1824 9.55225 86.5015 9.78834C87.6152 10.6361 88.6391 11.5338 88.8969 12.9792C88.8773 13.1626 88.8576 13.3461 88.8374 13.5351C88.8251 13.7185 88.8128 13.902 88.8002 14.091C87.9735 15.9487 85.5528 17.037 83.9068 18.0629C83.5391 18.2944 83.5391 18.2944 83.1641 18.5307C82.4619 18.9725 81.7585 19.4123 81.0547 19.8515C80.6516 20.1036 80.2484 20.3557 79.8452 20.6078C79.423 20.8715 79.423 20.8715 78.9922 21.1405C79.5863 21.7346 79.8774 21.7884 80.6831 21.9724C81.0442 22.0585 81.0442 22.0585 81.4126 22.1464C81.672 22.208 81.9315 22.2695 82.1988 22.3329C93.685 25.2049 103.543 32.7288 109.644 42.8329C109.738 42.9911 109.833 43.1494 109.93 43.3124C110.073 43.5512 110.073 43.5512 110.219 43.7949C114.172 50.5173 116.428 58.6866 116.117 66.5155C115.873 66.6325 115.628 66.7495 115.376 66.87C114.57 67.238 114.57 67.238 114.055 67.8046C114.059 69.5159 114.848 70.5624 115.827 71.9135C116.135 72.3499 116.442 72.7863 116.75 73.2227C116.904 73.4392 117.058 73.6557 117.217 73.8788C117.861 74.7846 118.487 75.7015 119.114 76.6186C119.343 76.9506 119.572 77.2826 119.801 77.6146C120.298 78.3363 120.79 79.0612 121.28 79.7878C121.408 79.9774 121.536 80.1669 121.669 80.3622C121.915 80.7259 122.16 81.0904 122.404 81.4557C122.929 82.2284 123.323 82.7493 124.109 83.2733C125.149 83.246 125.623 82.8666 126.329 82.1353C127.026 81.3414 127.625 80.4776 128.234 79.6156C128.531 79.2 128.828 78.7844 129.125 78.3689C129.276 78.1566 129.427 77.9443 129.582 77.7256C130.169 76.9046 130.761 76.0882 131.354 75.272C131.907 74.5093 132.456 73.7442 133.006 72.979C133.374 72.4688 133.745 71.9615 134.117 71.4543C134.331 71.1563 134.546 70.8582 134.76 70.56C134.945 70.3057 135.131 70.0515 135.321 69.7896C135.742 69.0389 135.824 68.6492 135.711 67.8046C135.443 67.3216 135.443 67.3216 134.938 67.0312C134.424 66.9358 133.908 66.849 133.391 66.7733C133.388 66.6054 133.386 66.4374 133.383 66.2644C133.073 48.8044 126.391 32.8226 113.836 20.6148C112.678 19.5126 111.449 18.5125 110.188 17.5312C109.94 17.3311 109.693 17.131 109.438 16.9249C101.939 10.9598 90.4406 4.37492 80.5391 4.64053ZM39.8047 34.289C39.6116 34.4631 39.4186 34.6373 39.2196 34.8167C32.7887 40.9463 28.2439 50.3112 27.3421 59.1215C27.453 59.996 27.7621 60.4251 28.2998 61.1176C29.1293 62.1979 29.775 63.0684 29.7178 64.4691C29.4515 65.3633 29.202 65.6969 28.461 66.2577C27.6231 66.58 27.6231 66.58 26.9141 66.7733C26.2999 76.4867 30.9308 87.1799 37.1712 94.4378C37.8547 95.2071 38.5691 95.9444 39.2891 96.6796C39.5383 96.9416 39.7874 97.2038 40.0364 97.4661C42.732 100.272 45.7136 102.47 49.086 104.414C49.5172 104.668 49.5172 104.668 49.9571 104.928C53.4038 106.901 57.2018 108.258 61.0581 109.184C61.3161 109.245 61.3161 109.245 61.5792 109.309C63.6243 109.765 63.6243 109.765 65.5346 109.128C65.7483 108.939 65.962 108.75 66.1822 108.555C67.3489 107.542 67.8613 107.163 69.4612 107.198C69.9688 107.25 69.9688 107.25 70.5811 107.508C71.2226 108.297 71.3203 109.093 71.5157 110.086C81.9414 110.747 92.5459 105.782 100.233 99.013C104.375 95.2923 107.637 91.0526 110.188 86.1093C110.27 85.9498 110.352 85.7904 110.437 85.6261C112.165 82.2275 113.353 78.6603 114.184 74.9428C114.255 74.6356 114.255 74.6356 114.328 74.3222C114.564 73.1892 114.655 72.4609 114.055 71.414C113.879 71.1747 113.704 70.9354 113.523 70.6889C112.882 69.6349 112.785 69.0369 112.766 67.8046C113.118 66.9244 113.342 66.6066 114.206 66.2074C114.915 65.7867 114.915 65.7866 114.981 64.9274C114.694 52.9548 109.366 41.8535 100.735 33.6216C94.6431 28.0123 86.0534 23.1645 77.6709 22.5746C76.5394 22.7024 76.0572 23.0413 75.1442 23.6673C74.2322 24.1946 73.334 24.3692 72.2891 24.2343C71.3554 23.7537 70.8209 23.1813 70.4844 22.1718C58.9602 21.7003 48.2133 26.7049 39.8047 34.289ZM16.1988 51.9622C15.1466 53.0194 14.197 54.1614 13.238 55.3027C12.5978 56.0643 11.9393 56.8059 11.2681 57.5404C10.262 58.6486 9.31146 59.7943 8.37476 60.9615C7.90265 61.536 7.41011 62.0745 6.90141 62.6161C6.22519 63.3475 6.22519 63.3475 6.25687 64.1308C6.60191 64.8208 6.91643 65.095 7.57816 65.4843C7.8334 65.5694 8.08863 65.6544 8.3516 65.7421C8.36182 65.9531 8.37204 66.1642 8.38257 66.3817C9.29077 84.3237 15.698 100.276 28.9766 112.664C29.8937 113.478 30.8403 114.238 31.8125 114.984C31.9647 115.103 32.1168 115.222 32.2735 115.345C34.682 117.225 37.1372 118.909 39.8047 120.398C39.9863 120.501 40.1679 120.604 40.355 120.71C46.7674 124.322 55.2409 128.069 62.75 127.875C61.2537 126.359 59.6823 124.928 58.1094 123.492C57.8921 123.293 57.6747 123.095 57.4508 122.89C57.2693 122.727 57.0879 122.564 56.9009 122.396C56.7457 122.257 56.5905 122.117 56.4306 121.973C56.0578 121.636 56.0578 121.636 55.5313 121.687C54.8527 120.33 54.8312 119.043 55.209 117.595C55.5963 116.936 55.8883 116.86 56.5625 116.531C56.8559 116.304 57.1413 116.067 57.4186 115.82C57.6558 115.611 57.6558 115.611 57.8979 115.398C58.0634 115.251 58.2289 115.104 58.3995 114.952C59.9038 113.629 61.427 112.348 63.0079 111.117C62.2762 110.629 61.8682 110.477 61.034 110.285C60.6741 110.199 60.6741 110.199 60.3069 110.111C60.0496 110.05 59.7924 109.988 59.5274 109.925C48.118 107.063 38.403 99.5317 32.2617 89.5626C28.3527 82.9019 26.0632 75.7964 25.7378 68.0624C25.7267 67.8135 25.7156 67.5646 25.7041 67.3081C25.677 66.7002 25.6507 66.0922 25.625 65.4843C25.868 65.4876 26.1109 65.4909 26.3612 65.4943C27.3754 65.4841 27.3754 65.4841 28.2032 64.9687C28.4873 64.274 28.4873 64.274 28.461 63.4218C28.1165 62.7177 27.635 62.1407 27.1397 61.5365C27 61.3586 26.8603 61.1807 26.7163 60.9974C26.42 60.6201 26.122 60.2442 25.8224 59.8696C25.2309 59.1252 24.6557 58.3691 24.0807 57.6119C23.6624 57.0613 23.2417 56.5126 22.8203 55.9643C22.2991 55.2855 21.7815 54.6042 21.2674 53.92C21.093 53.6893 21.093 53.6893 20.9151 53.4539C20.604 53.0422 20.2941 52.6297 19.9844 52.217C19.4872 51.6219 19.0688 51.1873 18.4063 50.789C17.3216 50.789 16.9824 51.2521 16.1988 51.9622ZM115.602 73.9921C115.564 74.1552 115.527 74.3184 115.488 74.4864C113.455 83.246 109.999 90.853 103.742 97.453C103.515 97.697 103.288 97.9409 103.053 98.1922C95.1496 106.504 83.5381 111.015 72.1824 111.405C71.6163 111.407 71.0502 111.393 70.4844 111.375C70.4621 111.195 70.4399 111.015 70.4169 110.829C70.2485 109.39 70.2485 109.39 69.3726 108.329C68.0397 108.237 67.0948 109.274 66.1384 110.104C65.988 110.237 65.8376 110.369 65.6827 110.505C65.3596 110.785 65.0363 111.066 64.7128 111.346C64.5542 111.483 64.3955 111.62 64.2321 111.762C63.6236 112.283 63.0027 112.789 62.3794 113.292C61.2013 114.25 60.047 115.232 58.899 116.225C58.7341 116.367 58.5693 116.509 58.3995 116.656C57.1741 117.703 57.1741 117.703 56.0469 118.851C56.0235 119.766 56.2467 120.079 56.8757 120.742C58.7896 122.575 60.7366 124.326 62.8024 125.986C63.6058 126.654 64.3703 127.356 65.1348 128.068C66.8923 129.907 66.8923 129.907 69.147 130.727C69.7395 130.496 69.7395 130.496 70.0494 129.97C70.2663 129.395 70.2663 129.395 70.2266 128.648C70.3854 128.646 70.5442 128.644 70.7078 128.641C86.179 128.351 100.617 123.187 112.25 112.922C112.38 112.809 112.509 112.695 112.643 112.579C122.708 103.744 130.277 90.921 132.359 77.6015C132.37 77.1719 132.374 76.7419 132.359 76.3124C131.483 77.1304 130.801 78.0398 130.12 79.0194C129.893 79.3402 129.666 79.6608 129.439 79.9812C129.325 80.1425 129.211 80.3038 129.093 80.47C128.56 81.2207 128.022 81.9674 127.477 82.7094C127.294 82.961 127.111 83.2125 126.922 83.4717C126.355 84.1335 125.971 84.2633 125.119 84.3751C124.924 84.3837 124.729 84.3924 124.528 84.4013C124.335 84.4139 124.142 84.4265 123.942 84.4395C122.405 84.0975 121.464 82.2636 120.613 81.0336C120.481 80.8455 120.349 80.6574 120.214 80.4637C119.056 78.8015 117.933 77.1161 116.825 75.4199C116.702 75.2329 116.579 75.0459 116.453 74.8531C116.344 74.6866 116.235 74.5201 116.124 74.3485C116.036 74.2309 115.949 74.1133 115.859 73.9921C115.774 73.9921 115.689 73.9921 115.602 73.9921Z" fill="#EB996E"/>
<path d="M74.3516 -9.6716e-05C75.1013 0.397691 75.6915 0.84557 76.3216 1.41063C77.7563 2.61787 79.0296 2.88738 80.8614 3.10977C81.4152 3.19009 81.9687 3.27202 82.522 3.35549C82.9339 3.41706 82.9339 3.41706 83.354 3.47987C93.2981 5.09967 102.889 9.70388 110.703 15.9843C110.841 16.0922 110.978 16.2001 111.119 16.3113C115.068 19.4218 118.796 23.0907 121.743 27.1675C122.05 27.5895 122.364 28.0042 122.68 28.4187C130.541 38.8771 134.869 52.4317 134.68 65.4843C134.88 65.5584 135.081 65.6325 135.287 65.7089C136.19 66.0941 136.51 66.4363 137 67.289C137.259 68.6805 137.067 69.7656 136.297 70.9734C135.969 71.414 135.969 71.414 135.593 71.8344C134.275 73.3559 134.063 74.8601 133.793 76.8119C132.339 85.9116 129.092 95.1258 123.594 102.609C123.482 102.763 123.371 102.918 123.256 103.076C119.823 107.815 116.084 112.128 111.477 115.758C111.173 116.01 111.173 116.01 110.862 116.268C107.795 118.804 104.409 120.847 100.906 122.719C100.743 122.807 100.579 122.895 100.41 122.986C92.1641 127.403 82.2359 130.067 72.8531 129.954C72.5962 129.951 72.3393 129.949 72.0746 129.946C71.8901 129.943 71.7057 129.94 71.5157 129.937C71.4389 130.14 71.3621 130.344 71.283 130.553C70.9417 131.365 70.7622 131.613 69.9688 132C69.1445 132.199 68.4726 132.209 67.6485 132C67.0694 131.565 67.0694 131.565 66.4722 131.017C64.9761 129.715 63.4625 129.524 61.5643 129.255C48.8178 127.376 37.0116 121.742 27.4297 113.18C27.1666 112.948 26.9034 112.717 26.6402 112.486C25.2458 111.245 23.9827 109.971 22.7891 108.539C22.5807 108.302 22.3724 108.064 22.1577 107.82C19.1698 104.404 16.6813 100.733 14.572 96.7159C14.301 96.2014 14.0234 95.6912 13.7445 95.1811C9.55159 87.3461 7.75112 78.4607 7.16425 69.6727C7.16391 67.8685 7.16391 67.8685 6.38477 66.3655C6.13801 66.2085 6.13801 66.2085 5.88627 66.0482C5.3152 65.6006 5.0407 65.373 4.84495 64.6675C4.7936 63.2741 5.13574 62.4485 6.03129 61.3593C6.24864 61.1466 6.46598 60.9339 6.68992 60.7147C7.5968 59.6212 7.58342 58.3946 7.69096 57.0248C9.22065 42.1331 16.9433 27.2854 28.5093 17.6762C29.0069 17.2817 29.5067 16.8899 30.0079 16.4999C30.1691 16.3719 30.3303 16.2439 30.4964 16.1121C32.9796 14.1408 35.4826 12.3612 38.2579 10.828C38.467 10.7101 38.6761 10.5922 38.8916 10.4708C47.1413 5.84765 56.344 3.04677 65.8015 2.45516C66.0846 2.43697 66.3678 2.41877 66.6595 2.40003C67.1983 2.36906 67.7375 2.34502 68.2769 2.32903C68.9598 2.29258 69.5686 2.24926 70.2266 2.0624C70.8857 1.33877 70.8857 1.33877 71.2579 0.515528C72.3015 -0.180236 73.1258 -0.169171 74.3516 -9.6716e-05ZM71.9507 2.01406C71.4554 2.79479 71.4554 2.79479 71.5157 3.60928C71.2775 3.61289 71.2775 3.61289 71.0345 3.61658C55.4513 3.90911 40.6968 8.91285 28.9766 19.3358C28.8482 19.4483 28.7198 19.5608 28.5875 19.6767C22.5099 25.0097 17.6305 31.563 14.2813 38.9296C14.1963 39.1154 14.1114 39.3013 14.0239 39.4928C11.5179 45.0415 9.00208 51.585 9.12504 57.7499C10.4087 56.7954 11.3309 55.6766 12.3286 54.4316C13.0622 53.5282 13.8351 52.6633 14.6197 51.8041C14.7495 51.6597 14.8793 51.5153 15.0131 51.3665C15.9719 50.3254 16.5817 49.8172 17.9873 49.661C19.291 49.7959 20.0454 50.3176 20.9021 51.2714C21.3663 51.8486 21.8141 52.4353 22.2574 53.0287C22.4074 53.226 22.5575 53.4232 22.7121 53.6264C23.0142 54.0235 23.3154 54.4213 23.6158 54.8197C24.3619 55.8039 25.1223 56.7769 25.8829 57.7499C26.053 57.6648 26.2232 57.5797 26.3985 57.4921C26.5623 57.0256 26.5623 57.0256 26.6674 56.4548C26.7144 56.2366 26.7615 56.0184 26.81 55.7936C26.8855 55.438 26.8855 55.438 26.9624 55.0751C29.5485 43.711 36.4082 34.2883 46.1705 27.9957C53.6472 23.306 62.4128 20.7377 71.2579 20.8827C71.3748 21.1273 71.4918 21.3719 71.6123 21.6239C71.9803 22.4304 71.9803 22.4304 72.5469 22.9452C74.3448 22.9594 75.5726 22.0135 77.0264 21.0438C77.2752 20.8815 77.5241 20.7191 77.7805 20.5518C78.2877 20.2206 78.7941 19.8882 79.2996 19.5545C79.9564 19.1222 80.6161 18.6952 81.2783 18.2714C84.5547 16.3068 84.5547 16.3068 87.5 13.9218C87.6318 13.1722 87.6318 13.1722 87.5 12.3749C87.0703 11.7846 87.0703 11.7846 86.4366 11.2953C86.1999 11.0962 85.9633 10.8972 85.7195 10.6921C84.5803 9.78155 83.4387 8.87498 82.2864 7.98101C81.2558 7.17883 80.2449 6.3534 79.2339 5.52676C78.7188 5.10817 78.2032 4.69014 77.6873 4.27244C77.3575 4.00498 77.0284 3.73677 76.6999 3.46778C76.2472 3.09822 75.7914 2.73291 75.3345 2.36856C74.9462 2.055 74.9462 2.055 74.55 1.7351C73.4055 1.01999 72.8244 0.951491 71.9507 2.01406ZM80.5391 4.64053C81.9533 6.10039 83.4507 7.46454 85.0649 8.70107C85.2248 8.82383 85.3847 8.94659 85.5494 9.07306C85.8651 9.31371 86.1824 9.55225 86.5015 9.78834C87.6152 10.6361 88.6391 11.5338 88.8969 12.9792C88.8773 13.1626 88.8576 13.3461 88.8374 13.5351C88.8251 13.7185 88.8128 13.902 88.8002 14.091C87.9735 15.9487 85.5528 17.037 83.9068 18.0629C83.5391 18.2944 83.5391 18.2944 83.1641 18.5307C82.4619 18.9725 81.7585 19.4123 81.0547 19.8515C80.6516 20.1036 80.2484 20.3557 79.8452 20.6078C79.423 20.8715 79.423 20.8715 78.9922 21.1405C79.5863 21.7346 79.8774 21.7884 80.6831 21.9724C81.0442 22.0585 81.0442 22.0585 81.4126 22.1464C81.672 22.208 81.9315 22.2695 82.1988 22.3329C93.685 25.2049 103.543 32.7288 109.644 42.8329C109.738 42.9911 109.833 43.1494 109.93 43.3124C110.073 43.5512 110.073 43.5512 110.219 43.7949C114.172 50.5173 116.428 58.6866 116.117 66.5155C115.873 66.6325 115.628 66.7495 115.376 66.87C114.57 67.238 114.57 67.238 114.055 67.8046C114.059 69.5159 114.848 70.5624 115.827 71.9135C116.135 72.3499 116.442 72.7863 116.75 73.2227C116.904 73.4392 117.058 73.6557 117.217 73.8788C117.861 74.7846 118.487 75.7015 119.114 76.6186C119.343 76.9506 119.572 77.2826 119.801 77.6146C120.298 78.3363 120.79 79.0612 121.28 79.7878C121.408 79.9774 121.536 80.1669 121.669 80.3622C121.915 80.7259 122.16 81.0904 122.404 81.4557C122.929 82.2284 123.323 82.7493 124.109 83.2733C125.149 83.246 125.623 82.8666 126.329 82.1353C127.026 81.3414 127.625 80.4776 128.234 79.6156C128.531 79.2 128.828 78.7844 129.125 78.3689C129.276 78.1566 129.427 77.9443 129.582 77.7256C130.169 76.9046 130.761 76.0882 131.354 75.272C131.907 74.5093 132.456 73.7442 133.006 72.979C133.374 72.4688 133.745 71.9615 134.117 71.4543C134.331 71.1563 134.546 70.8582 134.76 70.56C134.945 70.3057 135.131 70.0515 135.321 69.7896C135.742 69.0389 135.824 68.6492 135.711 67.8046C135.443 67.3216 135.443 67.3216 134.938 67.0312C134.424 66.9358 133.908 66.849 133.391 66.7733C133.388 66.6054 133.386 66.4374 133.383 66.2644C133.073 48.8044 126.391 32.8226 113.836 20.6148C112.678 19.5126 111.449 18.5125 110.188 17.5312C109.94 17.3311 109.693 17.131 109.438 16.9249C101.939 10.9598 90.4406 4.37492 80.5391 4.64053ZM39.8047 34.289C39.6116 34.4631 39.4186 34.6373 39.2196 34.8167C32.7887 40.9463 28.2439 50.3112 27.3421 59.1215C27.453 59.996 27.7621 60.4251 28.2998 61.1176C29.1293 62.1979 29.775 63.0684 29.7178 64.4691C29.4515 65.3633 29.202 65.6969 28.461 66.2577C27.6231 66.58 27.6231 66.58 26.9141 66.7733C26.2999 76.4867 30.9308 87.1799 37.1712 94.4378C37.8547 95.2071 38.5691 95.9444 39.2891 96.6796C39.5383 96.9416 39.7874 97.2038 40.0364 97.4661C42.732 100.272 45.7136 102.47 49.086 104.414C49.5172 104.668 49.5172 104.668 49.9571 104.928C53.4038 106.901 57.2018 108.258 61.0581 109.184C61.3161 109.245 61.3161 109.245 61.5792 109.309C63.6243 109.765 63.6243 109.765 65.5346 109.128C65.7483 108.939 65.962 108.75 66.1822 108.555C67.3489 107.542 67.8613 107.163 69.4612 107.198C69.9688 107.25 69.9688 107.25 70.5811 107.508C71.2226 108.297 71.3203 109.093 71.5157 110.086C81.9414 110.747 92.5459 105.782 100.233 99.013C104.375 95.2923 107.637 91.0526 110.188 86.1093C110.27 85.9498 110.352 85.7904 110.437 85.6261C112.165 82.2275 113.353 78.6603 114.184 74.9428C114.255 74.6356 114.255 74.6356 114.328 74.3222C114.564 73.1892 114.655 72.4609 114.055 71.414C113.879 71.1747 113.704 70.9354 113.523 70.6889C112.882 69.6349 112.785 69.0369 112.766 67.8046C113.118 66.9244 113.342 66.6066 114.206 66.2074C114.915 65.7867 114.915 65.7866 114.981 64.9274C114.694 52.9548 109.366 41.8535 100.735 33.6216C94.6431 28.0123 86.0534 23.1645 77.6709 22.5746C76.5394 22.7024 76.0572 23.0413 75.1442 23.6673C74.2322 24.1946 73.334 24.3692 72.2891 24.2343C71.3554 23.7537 70.8209 23.1813 70.4844 22.1718C58.9602 21.7003 48.2133 26.7049 39.8047 34.289ZM16.1988 51.9622C15.1466 53.0194 14.197 54.1614 13.238 55.3027C12.5978 56.0643 11.9393 56.8059 11.2681 57.5404C10.262 58.6486 9.31146 59.7943 8.37476 60.9615C7.90265 61.536 7.41011 62.0745 6.90141 62.6161C6.22519 63.3475 6.22519 63.3475 6.25687 64.1308C6.60191 64.8208 6.91643 65.095 7.57816 65.4843C7.8334 65.5694 8.08863 65.6544 8.3516 65.7421C8.36182 65.9531 8.37204 66.1642 8.38257 66.3817C9.29077 84.3237 15.698 100.276 28.9766 112.664C29.8937 113.478 30.8403 114.238 31.8125 114.984C31.9647 115.103 32.1168 115.222 32.2735 115.345C34.682 117.225 37.1372 118.909 39.8047 120.398C39.9863 120.501 40.1679 120.604 40.355 120.71C46.7674 124.322 55.2409 128.069 62.75 127.875C61.2537 126.359 59.6823 124.928 58.1094 123.492C57.8921 123.293 57.6747 123.095 57.4508 122.89C57.2693 122.727 57.0879 122.564 56.9009 122.396C56.7457 122.257 56.5905 122.117 56.4306 121.973C56.0578 121.636 56.0578 121.636 55.5313 121.687C54.8527 120.33 54.8312 119.043 55.209 117.595C55.5963 116.936 55.8883 116.86 56.5625 116.531C56.8559 116.304 57.1413 116.067 57.4186 115.82C57.6558 115.611 57.6558 115.611 57.8979 115.398C58.0634 115.251 58.2289 115.104 58.3995 114.952C59.9038 113.629 61.427 112.348 63.0079 111.117C62.2762 110.629 61.8682 110.477 61.034 110.285C60.6741 110.199 60.6741 110.199 60.3069 110.111C60.0496 110.05 59.7924 109.988 59.5274 109.925C48.118 107.063 38.403 99.5317 32.2617 89.5626C28.3527 82.9019 26.0632 75.7964 25.7378 68.0624C25.7267 67.8135 25.7156 67.5646 25.7041 67.3081C25.677 66.7002 25.6507 66.0922 25.625 65.4843C25.868 65.4876 26.1109 65.4909 26.3612 65.4943C27.3754 65.4841 27.3754 65.4841 28.2032 64.9687C28.4873 64.274 28.4873 64.274 28.461 63.4218C28.1165 62.7177 27.635 62.1407 27.1397 61.5365C27 61.3586 26.8603 61.1807 26.7163 60.9974C26.42 60.6201 26.122 60.2442 25.8224 59.8696C25.2309 59.1252 24.6557 58.3691 24.0807 57.6119C23.6624 57.0613 23.2417 56.5126 22.8203 55.9643C22.2991 55.2855 21.7815 54.6042 21.2674 53.92C21.093 53.6893 21.093 53.6893 20.9151 53.4539C20.604 53.0422 20.2941 52.6297 19.9844 52.217C19.4872 51.6219 19.0688 51.1873 18.4063 50.789C17.3216 50.789 16.9824 51.2521 16.1988 51.9622ZM115.602 73.9921C115.564 74.1552 115.527 74.3184 115.488 74.4864C113.455 83.246 109.999 90.853 103.742 97.453C103.515 97.697 103.288 97.9409 103.053 98.1922C95.1496 106.504 83.5381 111.015 72.1824 111.405C71.6163 111.407 71.0502 111.393 70.4844 111.375C70.4621 111.195 70.4399 111.015 70.4169 110.829C70.2485 109.39 70.2485 109.39 69.3726 108.329C68.0397 108.237 67.0948 109.274 66.1384 110.104C65.988 110.237 65.8376 110.369 65.6827 110.505C65.3596 110.785 65.0363 111.066 64.7128 111.346C64.5542 111.483 64.3955 111.62 64.2321 111.762C63.6236 112.283 63.0027 112.789 62.3794 113.292C61.2013 114.25 60.047 115.232 58.899 116.225C58.7341 116.367 58.5693 116.509 58.3995 116.656C57.1741 117.703 57.1741 117.703 56.0469 118.851C56.0235 119.766 56.2467 120.079 56.8757 120.742C58.7896 122.575 60.7366 124.326 62.8024 125.986C63.6058 126.654 64.3703 127.356 65.1348 128.068C66.8923 129.907 66.8923 129.907 69.147 130.727C69.7395 130.496 69.7395 130.496 70.0494 129.97C70.2663 129.395 70.2663 129.395 70.2266 128.648C70.3854 128.646 70.5442 128.644 70.7078 128.641C86.179 128.351 100.617 123.187 112.25 112.922C112.38 112.809 112.509 112.695 112.643 112.579C122.708 103.744 130.277 90.921 132.359 77.6015C132.37 77.1719 132.374 76.7419 132.359 76.3124C131.483 77.1304 130.801 78.0398 130.12 79.0194C129.893 79.3402 129.666 79.6608 129.439 79.9812C129.325 80.1425 129.211 80.3038 129.093 80.47C128.56 81.2207 128.022 81.9674 127.477 82.7094C127.294 82.961 127.111 83.2125 126.922 83.4717C126.355 84.1335 125.971 84.2633 125.119 84.3751C124.924 84.3837 124.729 84.3924 124.528 84.4013C124.335 84.4139 124.142 84.4265 123.942 84.4395C122.405 84.0975 121.464 82.2636 120.613 81.0336C120.481 80.8455 120.349 80.6574 120.214 80.4637C119.056 78.8015 117.933 77.1161 116.825 75.4199C116.702 75.2329 116.579 75.0459 116.453 74.8531C116.344 74.6866 116.235 74.5201 116.124 74.3485C116.036 74.2309 115.949 74.1133 115.859 73.9921C115.774 73.9921 115.689 73.9921 115.602 73.9921Z" stroke="#EB996E" mask="url(#path-2-outside-1_2611_3774)"/>
<mask id="path-3-outside-2_2611_3774" maskUnits="userSpaceOnUse" x="34.1283" y="29.1641" width="74" height="74" fill="black">
<rect fill="white" x="34.1283" y="29.1641" width="74" height="74"/>
<path d="M64.5547 30.1641C68.8937 30.1641 73.2327 30.1641 77.7032 30.1641C77.7883 31.7805 77.8733 33.397 77.961 35.0625C78.823 37.6484 79.4504 38.7119 81.7557 39.966C83.3507 40.6515 84.9999 40.6793 86.6461 40.1543C88.2433 39.4855 89.2931 38.2631 90.4478 37.0172C91.1094 36.3516 91.1094 36.3516 91.8829 36.0938C92.2821 36.3399 92.2821 36.3399 92.7359 36.7604C93.008 37.0116 93.008 37.0116 93.2856 37.2678C93.5033 37.4759 93.7211 37.684 93.9454 37.8984C94.0762 38.0225 94.207 38.1465 94.3417 38.2742C95.2669 39.1527 96.1811 40.0416 97.0892 40.9378C97.4129 41.2559 97.7382 41.5723 98.065 41.8872C98.5409 42.3459 99.0115 42.8094 99.4813 43.2742C99.702 43.4842 99.702 43.4842 99.9271 43.6983C100.907 44.6832 100.907 44.6832 100.905 45.5609C100.533 46.4127 99.9613 46.8935 99.2789 47.5181C97.6074 49.124 96.7511 50.2378 96.6685 52.5938C96.7462 54.5855 97.2357 56.1195 98.6238 57.5838C100.206 58.9881 102.079 59.1881 104.113 59.2002C104.569 59.2068 105.025 59.2154 105.481 59.2264C105.68 59.2279 105.879 59.2295 106.083 59.231C106.578 59.2969 106.578 59.2969 107.094 59.8125C107.158 60.3408 107.158 60.3408 107.156 60.9988C107.157 61.2449 107.158 61.4909 107.159 61.7445C107.156 62.1441 107.156 62.1441 107.153 62.5518C107.153 62.8245 107.153 63.0972 107.153 63.3782C107.152 63.9555 107.15 64.5329 107.147 65.1102C107.142 65.9963 107.142 66.8823 107.142 67.7684C107.14 68.3284 107.139 68.8883 107.137 69.4482C107.137 69.7147 107.137 69.9811 107.136 70.2555C107.135 70.5016 107.133 70.7477 107.131 71.0012C107.13 71.2183 107.129 71.4354 107.128 71.6592C107.094 72.1875 107.094 72.1875 106.836 72.7031C106.692 72.7055 106.548 72.7079 106.399 72.7104C105.734 72.7244 105.068 72.746 104.403 72.7676C104.176 72.7712 103.95 72.7749 103.717 72.7787C101.762 72.8508 100.207 73.3373 98.6504 74.54C97.2511 76.3281 96.5538 77.9306 96.6796 80.23C96.9853 82.4031 98.295 83.5973 99.8808 85.0011C100.291 85.3792 100.291 85.3792 100.906 86.1094C100.842 87.1106 100.55 87.6268 99.8546 88.3299C99.6041 88.5865 99.6041 88.5865 99.3486 88.8482C99.1671 89.0285 98.9855 89.2088 98.7985 89.3945C98.6125 89.5821 98.4264 89.7697 98.2348 89.963C97.8414 90.3582 97.4467 90.7521 97.0508 91.1448C96.4438 91.7482 95.8433 92.3575 95.243 92.9676C94.8602 93.3507 94.477 93.7334 94.0934 94.1157C93.9134 94.299 93.7335 94.4824 93.5481 94.6714C93.3786 94.8376 93.2092 95.0038 93.0347 95.175C92.8866 95.3228 92.7385 95.4706 92.5859 95.6229C92.1407 95.9062 92.1407 95.9062 91.6051 95.857C90.8627 95.5446 90.4554 95.0165 89.917 94.4238C88.1955 92.6696 86.7409 91.7312 84.2452 91.6362C82.3776 91.7153 81.2412 92.2221 79.8301 93.4087C78.2028 95.3525 77.9342 97.1401 77.816 99.5962C77.7993 99.9195 77.7993 99.9195 77.7822 100.249C77.755 100.778 77.729 101.307 77.7032 101.836C75.8354 101.842 73.9675 101.847 72.0997 101.85C71.4638 101.851 70.8278 101.853 70.1918 101.855C69.2799 101.858 68.368 101.86 67.4561 101.861C67.1699 101.862 66.8836 101.864 66.5886 101.865C66.1938 101.865 66.1938 101.865 65.791 101.865C65.4415 101.866 65.4415 101.866 65.0849 101.867C64.5547 101.836 64.5547 101.836 64.2969 101.578C64.2689 101.2 64.2568 100.82 64.2516 100.441C64.2424 100.09 64.2424 100.09 64.233 99.7316C64.2221 99.2402 64.2139 98.7488 64.2088 98.2573C64.1527 96.4011 63.7853 95.024 62.5758 93.589C60.472 91.8868 58.7546 91.501 56.0469 91.7812C54.2868 92.1665 53.1362 93.5923 51.9762 94.8808C51.5956 95.2909 51.5956 95.2909 50.8907 95.9062C50.0155 95.8348 49.5701 95.4594 48.9573 94.8586C48.7862 94.6925 48.6151 94.5263 48.4388 94.3551C48.2572 94.1744 48.0757 93.9937 47.8886 93.8075C47.6066 93.5294 47.6066 93.5294 47.3189 93.2456C46.9224 92.8531 46.527 92.4594 46.1325 92.0649C45.5268 91.4608 44.9151 90.8632 44.3029 90.2656C43.9186 89.8836 43.5347 89.5013 43.1513 89.1185C42.875 88.8506 42.875 88.8506 42.5931 88.5772C42.4261 88.4078 42.2591 88.2384 42.087 88.0639C41.9384 87.9164 41.7898 87.7689 41.6367 87.6169C41.3516 87.1406 41.3516 87.1406 41.3965 86.4799C41.7044 85.5714 42.2732 85.1376 42.9791 84.498C44.575 82.9774 45.4836 81.658 45.6055 79.4224C45.5091 77.4812 44.909 75.8642 43.4786 74.5239C41.7983 73.0872 39.8951 72.846 37.7584 72.7998C35.4495 72.7307 35.4495 72.7307 35.1641 72.4453C35.1387 72.0431 35.1311 71.6398 35.1308 71.2368C35.1299 70.9796 35.1291 70.7224 35.1283 70.4573C35.1288 70.1775 35.1293 69.8977 35.1299 69.6094C35.1296 69.3242 35.1294 69.0391 35.1291 68.7453C35.129 68.1411 35.1294 67.5368 35.1305 66.9326C35.1319 66.004 35.1305 65.0755 35.1289 64.147C35.129 63.5615 35.1294 62.9761 35.1299 62.3906C35.1294 62.1108 35.1288 61.831 35.1283 61.5427C35.1291 61.2854 35.1299 61.0282 35.1308 60.7632C35.131 60.5355 35.1312 60.3079 35.1314 60.0733C35.1641 59.5547 35.1641 59.5547 35.4219 59.2969C35.7942 59.272 36.1677 59.2628 36.5408 59.2606C40.2203 59.3227 40.2203 59.3227 43.4141 57.75C44.8941 56.051 45.6368 54.2434 45.5693 51.9845C45.2384 49.5568 43.6465 48.0885 41.9015 46.5462C41.3516 45.8906 41.3516 45.8906 41.3978 45.2613C41.6275 44.5454 41.8553 44.2278 42.3837 43.702C42.5464 43.5377 42.7091 43.3735 42.8766 43.2043C43.0533 43.0313 43.23 42.8583 43.4121 42.6801C43.6835 42.409 43.6835 42.409 43.9603 42.1325C44.3427 41.7517 44.7264 41.3721 45.1112 40.9937C45.7009 40.4134 46.2864 39.829 46.8714 39.2439C47.2435 38.8744 47.6157 38.5051 47.9883 38.1361C48.1639 37.961 48.3396 37.7859 48.5206 37.6056C48.6849 37.4446 48.8491 37.2836 49.0184 37.1177C49.1625 36.9756 49.3065 36.8335 49.455 36.6871C49.8594 36.3516 49.8594 36.3516 50.6329 36.0938C51.0871 36.3999 51.0871 36.3999 51.5836 36.8672C51.7653 37.0334 51.9471 37.1995 52.1344 37.3707C52.4959 37.7108 52.8565 38.0518 53.216 38.3939C54.6068 39.6777 55.7905 40.3405 57.6744 40.5894C59.4832 40.3748 61.4906 39.7846 62.7501 38.4141C63.9381 36.7274 64.2296 35.3116 64.2325 33.2739C64.241 32.7935 64.2504 32.3132 64.2607 31.8328C64.2619 31.6234 64.2632 31.4141 64.2645 31.1984C64.2969 30.6797 64.2969 30.6797 64.5547 30.1641ZM65.8438 31.4531C65.7587 32.7293 65.6736 34.0055 65.586 35.3203C65.1347 37.3061 64.6142 38.9134 62.9213 40.1392C60.6555 41.551 58.7164 42.0191 56.0469 41.7656C54.4664 41.3633 53.3332 40.4923 52.1596 39.3889C51.5912 38.8621 50.9803 38.3826 50.3751 37.8984C47.9929 40.2806 45.6107 42.6628 43.1563 45.1172C43.6054 46.0154 43.8414 46.3615 44.542 47.0024C46.26 48.6702 46.8004 50.2743 46.8462 52.6421C46.8517 54.3046 46.6139 55.5579 45.7344 56.9766C45.641 57.1401 45.5477 57.3036 45.4514 57.472C44.5351 58.9257 43.2276 59.7887 41.6094 60.3281C39.1847 60.4557 39.1847 60.4557 36.711 60.5859C36.711 64.1592 36.711 67.7325 36.711 71.4141C38.8805 71.5417 38.8805 71.5417 41.0938 71.6719C43.2026 72.2811 44.6443 73.1502 45.8069 75.0466C46.9491 77.237 47.2232 79.8172 46.5592 82.214C45.7831 83.9102 44.5272 85.1307 43.1563 86.3672C43.5785 87.449 44.3766 88.1685 45.1886 88.9655C45.3366 89.1128 45.4847 89.2601 45.6372 89.4119C46.1089 89.8806 46.5823 90.3476 47.0557 90.8145C47.3764 91.1326 47.697 91.4508 48.0175 91.7692C48.802 92.548 49.5881 93.3252 50.3751 94.1016C50.5531 93.9484 50.5531 93.9484 50.7347 93.7921C55.1145 90.0293 55.1145 90.0293 58.2847 90.1619C60.8056 90.4674 62.4632 91.518 64.2486 93.2637C65.7708 95.5252 65.6601 97.7907 65.8438 100.547C69.332 100.547 72.8202 100.547 76.4141 100.547C76.4992 99.1005 76.5843 97.6542 76.6719 96.1641C77.1877 94.4693 77.6146 93.4393 78.9922 92.2969C79.1943 92.1161 79.3964 91.9353 79.6045 91.749C81.3699 90.4881 83.2942 90.0358 85.4376 90.2344C87.4656 90.5909 88.8029 91.4805 90.336 92.8125C90.8465 93.2379 91.3569 93.6633 91.8829 94.1016C94.2651 91.7194 96.6472 89.3372 99.1016 86.8828C98.6304 85.9403 98.3347 85.5676 97.587 84.8848C96.0618 83.3984 95.2598 81.8195 95.2203 79.6691C95.3324 77.6692 95.7142 76.2056 96.7813 74.5078C96.9302 74.2685 97.0791 74.0292 97.2325 73.7827C99.6328 71.4491 102.222 71.6096 105.547 71.4141C105.547 67.8408 105.547 64.2675 105.547 60.5859C103.93 60.5009 102.314 60.4158 100.648 60.3281C98.3454 59.4861 97.0334 58.3315 95.9273 56.1548C95.0789 54.0586 95.0076 51.9287 95.7662 49.8021C96.508 48.0836 97.7704 46.9059 99.1016 45.6328C98.6794 44.551 97.8813 43.8315 97.0693 43.0345C96.9213 42.8872 96.7732 42.7399 96.6207 42.5881C96.1491 42.1194 95.6757 41.6524 95.2022 41.1855C94.8815 40.8674 94.5609 40.5492 94.2404 40.2308C93.4559 39.452 92.6698 38.6748 91.8829 37.8984C90.7169 38.8868 90.7169 38.8868 89.5797 39.9076C87.8002 41.5577 86.1265 41.9195 83.7144 41.8553C81.5807 41.6316 79.6224 40.8506 78.2188 39.1875C76.4799 36.5837 76.6147 34.8635 76.4141 31.4531C72.9259 31.4531 69.4377 31.4531 65.8438 31.4531Z"/>
</mask>
<path d="M64.5547 30.1641C68.8937 30.1641 73.2327 30.1641 77.7032 30.1641C77.7883 31.7805 77.8733 33.397 77.961 35.0625C78.823 37.6484 79.4504 38.7119 81.7557 39.966C83.3507 40.6515 84.9999 40.6793 86.6461 40.1543C88.2433 39.4855 89.2931 38.2631 90.4478 37.0172C91.1094 36.3516 91.1094 36.3516 91.8829 36.0938C92.2821 36.3399 92.2821 36.3399 92.7359 36.7604C93.008 37.0116 93.008 37.0116 93.2856 37.2678C93.5033 37.4759 93.7211 37.684 93.9454 37.8984C94.0762 38.0225 94.207 38.1465 94.3417 38.2742C95.2669 39.1527 96.1811 40.0416 97.0892 40.9378C97.4129 41.2559 97.7382 41.5723 98.065 41.8872C98.5409 42.3459 99.0115 42.8094 99.4813 43.2742C99.702 43.4842 99.702 43.4842 99.9271 43.6983C100.907 44.6832 100.907 44.6832 100.905 45.5609C100.533 46.4127 99.9613 46.8935 99.2789 47.5181C97.6074 49.124 96.7511 50.2378 96.6685 52.5938C96.7462 54.5855 97.2357 56.1195 98.6238 57.5838C100.206 58.9881 102.079 59.1881 104.113 59.2002C104.569 59.2068 105.025 59.2154 105.481 59.2264C105.68 59.2279 105.879 59.2295 106.083 59.231C106.578 59.2969 106.578 59.2969 107.094 59.8125C107.158 60.3408 107.158 60.3408 107.156 60.9988C107.157 61.2449 107.158 61.4909 107.159 61.7445C107.156 62.1441 107.156 62.1441 107.153 62.5518C107.153 62.8245 107.153 63.0972 107.153 63.3782C107.152 63.9555 107.15 64.5329 107.147 65.1102C107.142 65.9963 107.142 66.8823 107.142 67.7684C107.14 68.3284 107.139 68.8883 107.137 69.4482C107.137 69.7147 107.137 69.9811 107.136 70.2555C107.135 70.5016 107.133 70.7477 107.131 71.0012C107.13 71.2183 107.129 71.4354 107.128 71.6592C107.094 72.1875 107.094 72.1875 106.836 72.7031C106.692 72.7055 106.548 72.7079 106.399 72.7104C105.734 72.7244 105.068 72.746 104.403 72.7676C104.176 72.7712 103.95 72.7749 103.717 72.7787C101.762 72.8508 100.207 73.3373 98.6504 74.54C97.2511 76.3281 96.5538 77.9306 96.6796 80.23C96.9853 82.4031 98.295 83.5973 99.8808 85.0011C100.291 85.3792 100.291 85.3792 100.906 86.1094C100.842 87.1106 100.55 87.6268 99.8546 88.3299C99.6041 88.5865 99.6041 88.5865 99.3486 88.8482C99.1671 89.0285 98.9855 89.2088 98.7985 89.3945C98.6125 89.5821 98.4264 89.7697 98.2348 89.963C97.8414 90.3582 97.4467 90.7521 97.0508 91.1448C96.4438 91.7482 95.8433 92.3575 95.243 92.9676C94.8602 93.3507 94.477 93.7334 94.0934 94.1157C93.9134 94.299 93.7335 94.4824 93.5481 94.6714C93.3786 94.8376 93.2092 95.0038 93.0347 95.175C92.8866 95.3228 92.7385 95.4706 92.5859 95.6229C92.1407 95.9062 92.1407 95.9062 91.6051 95.857C90.8627 95.5446 90.4554 95.0165 89.917 94.4238C88.1955 92.6696 86.7409 91.7312 84.2452 91.6362C82.3776 91.7153 81.2412 92.2221 79.8301 93.4087C78.2028 95.3525 77.9342 97.1401 77.816 99.5962C77.7993 99.9195 77.7993 99.9195 77.7822 100.249C77.755 100.778 77.729 101.307 77.7032 101.836C75.8354 101.842 73.9675 101.847 72.0997 101.85C71.4638 101.851 70.8278 101.853 70.1918 101.855C69.2799 101.858 68.368 101.86 67.4561 101.861C67.1699 101.862 66.8836 101.864 66.5886 101.865C66.1938 101.865 66.1938 101.865 65.791 101.865C65.4415 101.866 65.4415 101.866 65.0849 101.867C64.5547 101.836 64.5547 101.836 64.2969 101.578C64.2689 101.2 64.2568 100.82 64.2516 100.441C64.2424 100.09 64.2424 100.09 64.233 99.7316C64.2221 99.2402 64.2139 98.7488 64.2088 98.2573C64.1527 96.4011 63.7853 95.024 62.5758 93.589C60.472 91.8868 58.7546 91.501 56.0469 91.7812C54.2868 92.1665 53.1362 93.5923 51.9762 94.8808C51.5956 95.2909 51.5956 95.2909 50.8907 95.9062C50.0155 95.8348 49.5701 95.4594 48.9573 94.8586C48.7862 94.6925 48.6151 94.5263 48.4388 94.3551C48.2572 94.1744 48.0757 93.9937 47.8886 93.8075C47.6066 93.5294 47.6066 93.5294 47.3189 93.2456C46.9224 92.8531 46.527 92.4594 46.1325 92.0649C45.5268 91.4608 44.9151 90.8632 44.3029 90.2656C43.9186 89.8836 43.5347 89.5013 43.1513 89.1185C42.875 88.8506 42.875 88.8506 42.5931 88.5772C42.4261 88.4078 42.2591 88.2384 42.087 88.0639C41.9384 87.9164 41.7898 87.7689 41.6367 87.6169C41.3516 87.1406 41.3516 87.1406 41.3965 86.4799C41.7044 85.5714 42.2732 85.1376 42.9791 84.498C44.575 82.9774 45.4836 81.658 45.6055 79.4224C45.5091 77.4812 44.909 75.8642 43.4786 74.5239C41.7983 73.0872 39.8951 72.846 37.7584 72.7998C35.4495 72.7307 35.4495 72.7307 35.1641 72.4453C35.1387 72.0431 35.1311 71.6398 35.1308 71.2368C35.1299 70.9796 35.1291 70.7224 35.1283 70.4573C35.1288 70.1775 35.1293 69.8977 35.1299 69.6094C35.1296 69.3242 35.1294 69.0391 35.1291 68.7453C35.129 68.1411 35.1294 67.5368 35.1305 66.9326C35.1319 66.004 35.1305 65.0755 35.1289 64.147C35.129 63.5615 35.1294 62.9761 35.1299 62.3906C35.1294 62.1108 35.1288 61.831 35.1283 61.5427C35.1291 61.2854 35.1299 61.0282 35.1308 60.7632C35.131 60.5355 35.1312 60.3079 35.1314 60.0733C35.1641 59.5547 35.1641 59.5547 35.4219 59.2969C35.7942 59.272 36.1677 59.2628 36.5408 59.2606C40.2203 59.3227 40.2203 59.3227 43.4141 57.75C44.8941 56.051 45.6368 54.2434 45.5693 51.9845C45.2384 49.5568 43.6465 48.0885 41.9015 46.5462C41.3516 45.8906 41.3516 45.8906 41.3978 45.2613C41.6275 44.5454 41.8553 44.2278 42.3837 43.702C42.5464 43.5377 42.7091 43.3735 42.8766 43.2043C43.0533 43.0313 43.23 42.8583 43.4121 42.6801C43.6835 42.409 43.6835 42.409 43.9603 42.1325C44.3427 41.7517 44.7264 41.3721 45.1112 40.9937C45.7009 40.4134 46.2864 39.829 46.8714 39.2439C47.2435 38.8744 47.6157 38.5051 47.9883 38.1361C48.1639 37.961 48.3396 37.7859 48.5206 37.6056C48.6849 37.4446 48.8491 37.2836 49.0184 37.1177C49.1625 36.9756 49.3065 36.8335 49.455 36.6871C49.8594 36.3516 49.8594 36.3516 50.6329 36.0938C51.0871 36.3999 51.0871 36.3999 51.5836 36.8672C51.7653 37.0334 51.9471 37.1995 52.1344 37.3707C52.4959 37.7108 52.8565 38.0518 53.216 38.3939C54.6068 39.6777 55.7905 40.3405 57.6744 40.5894C59.4832 40.3748 61.4906 39.7846 62.7501 38.4141C63.9381 36.7274 64.2296 35.3116 64.2325 33.2739C64.241 32.7935 64.2504 32.3132 64.2607 31.8328C64.2619 31.6234 64.2632 31.4141 64.2645 31.1984C64.2969 30.6797 64.2969 30.6797 64.5547 30.1641ZM65.8438 31.4531C65.7587 32.7293 65.6736 34.0055 65.586 35.3203C65.1347 37.3061 64.6142 38.9134 62.9213 40.1392C60.6555 41.551 58.7164 42.0191 56.0469 41.7656C54.4664 41.3633 53.3332 40.4923 52.1596 39.3889C51.5912 38.8621 50.9803 38.3826 50.3751 37.8984C47.9929 40.2806 45.6107 42.6628 43.1563 45.1172C43.6054 46.0154 43.8414 46.3615 44.542 47.0024C46.26 48.6702 46.8004 50.2743 46.8462 52.6421C46.8517 54.3046 46.6139 55.5579 45.7344 56.9766C45.641 57.1401 45.5477 57.3036 45.4514 57.472C44.5351 58.9257 43.2276 59.7887 41.6094 60.3281C39.1847 60.4557 39.1847 60.4557 36.711 60.5859C36.711 64.1592 36.711 67.7325 36.711 71.4141C38.8805 71.5417 38.8805 71.5417 41.0938 71.6719C43.2026 72.2811 44.6443 73.1502 45.8069 75.0466C46.9491 77.237 47.2232 79.8172 46.5592 82.214C45.7831 83.9102 44.5272 85.1307 43.1563 86.3672C43.5785 87.449 44.3766 88.1685 45.1886 88.9655C45.3366 89.1128 45.4847 89.2601 45.6372 89.4119C46.1089 89.8806 46.5823 90.3476 47.0557 90.8145C47.3764 91.1326 47.697 91.4508 48.0175 91.7692C48.802 92.548 49.5881 93.3252 50.3751 94.1016C50.5531 93.9484 50.5531 93.9484 50.7347 93.7921C55.1145 90.0293 55.1145 90.0293 58.2847 90.1619C60.8056 90.4674 62.4632 91.518 64.2486 93.2637C65.7708 95.5252 65.6601 97.7907 65.8438 100.547C69.332 100.547 72.8202 100.547 76.4141 100.547C76.4992 99.1005 76.5843 97.6542 76.6719 96.1641C77.1877 94.4693 77.6146 93.4393 78.9922 92.2969C79.1943 92.1161 79.3964 91.9353 79.6045 91.749C81.3699 90.4881 83.2942 90.0358 85.4376 90.2344C87.4656 90.5909 88.8029 91.4805 90.336 92.8125C90.8465 93.2379 91.3569 93.6633 91.8829 94.1016C94.2651 91.7194 96.6472 89.3372 99.1016 86.8828C98.6304 85.9403 98.3347 85.5676 97.587 84.8848C96.0618 83.3984 95.2598 81.8195 95.2203 79.6691C95.3324 77.6692 95.7142 76.2056 96.7813 74.5078C96.9302 74.2685 97.0791 74.0292 97.2325 73.7827C99.6328 71.4491 102.222 71.6096 105.547 71.4141C105.547 67.8408 105.547 64.2675 105.547 60.5859C103.93 60.5009 102.314 60.4158 100.648 60.3281C98.3454 59.4861 97.0334 58.3315 95.9273 56.1548C95.0789 54.0586 95.0076 51.9287 95.7662 49.8021C96.508 48.0836 97.7704 46.9059 99.1016 45.6328C98.6794 44.551 97.8813 43.8315 97.0693 43.0345C96.9213 42.8872 96.7732 42.7399 96.6207 42.5881C96.1491 42.1194 95.6757 41.6524 95.2022 41.1855C94.8815 40.8674 94.5609 40.5492 94.2404 40.2308C93.4559 39.452 92.6698 38.6748 91.8829 37.8984C90.7169 38.8868 90.7169 38.8868 89.5797 39.9076C87.8002 41.5577 86.1265 41.9195 83.7144 41.8553C81.5807 41.6316 79.6224 40.8506 78.2188 39.1875C76.4799 36.5837 76.6147 34.8635 76.4141 31.4531C72.9259 31.4531 69.4377 31.4531 65.8438 31.4531Z" fill="#EB996E"/>
<path d="M64.5547 30.1641C68.8937 30.1641 73.2327 30.1641 77.7032 30.1641C77.7883 31.7805 77.8733 33.397 77.961 35.0625C78.823 37.6484 79.4504 38.7119 81.7557 39.966C83.3507 40.6515 84.9999 40.6793 86.6461 40.1543C88.2433 39.4855 89.2931 38.2631 90.4478 37.0172C91.1094 36.3516 91.1094 36.3516 91.8829 36.0938C92.2821 36.3399 92.2821 36.3399 92.7359 36.7604C93.008 37.0116 93.008 37.0116 93.2856 37.2678C93.5033 37.4759 93.7211 37.684 93.9454 37.8984C94.0762 38.0225 94.207 38.1465 94.3417 38.2742C95.2669 39.1527 96.1811 40.0416 97.0892 40.9378C97.4129 41.2559 97.7382 41.5723 98.065 41.8872C98.5409 42.3459 99.0115 42.8094 99.4813 43.2742C99.702 43.4842 99.702 43.4842 99.9271 43.6983C100.907 44.6832 100.907 44.6832 100.905 45.5609C100.533 46.4127 99.9613 46.8935 99.2789 47.5181C97.6074 49.124 96.7511 50.2378 96.6685 52.5938C96.7462 54.5855 97.2357 56.1195 98.6238 57.5838C100.206 58.9881 102.079 59.1881 104.113 59.2002C104.569 59.2068 105.025 59.2154 105.481 59.2264C105.68 59.2279 105.879 59.2295 106.083 59.231C106.578 59.2969 106.578 59.2969 107.094 59.8125C107.158 60.3408 107.158 60.3408 107.156 60.9988C107.157 61.2449 107.158 61.4909 107.159 61.7445C107.156 62.1441 107.156 62.1441 107.153 62.5518C107.153 62.8245 107.153 63.0972 107.153 63.3782C107.152 63.9555 107.15 64.5329 107.147 65.1102C107.142 65.9963 107.142 66.8823 107.142 67.7684C107.14 68.3284 107.139 68.8883 107.137 69.4482C107.137 69.7147 107.137 69.9811 107.136 70.2555C107.135 70.5016 107.133 70.7477 107.131 71.0012C107.13 71.2183 107.129 71.4354 107.128 71.6592C107.094 72.1875 107.094 72.1875 106.836 72.7031C106.692 72.7055 106.548 72.7079 106.399 72.7104C105.734 72.7244 105.068 72.746 104.403 72.7676C104.176 72.7712 103.95 72.7749 103.717 72.7787C101.762 72.8508 100.207 73.3373 98.6504 74.54C97.2511 76.3281 96.5538 77.9306 96.6796 80.23C96.9853 82.4031 98.295 83.5973 99.8808 85.0011C100.291 85.3792 100.291 85.3792 100.906 86.1094C100.842 87.1106 100.55 87.6268 99.8546 88.3299C99.6041 88.5865 99.6041 88.5865 99.3486 88.8482C99.1671 89.0285 98.9855 89.2088 98.7985 89.3945C98.6125 89.5821 98.4264 89.7697 98.2348 89.963C97.8414 90.3582 97.4467 90.7521 97.0508 91.1448C96.4438 91.7482 95.8433 92.3575 95.243 92.9676C94.8602 93.3507 94.477 93.7334 94.0934 94.1157C93.9134 94.299 93.7335 94.4824 93.5481 94.6714C93.3786 94.8376 93.2092 95.0038 93.0347 95.175C92.8866 95.3228 92.7385 95.4706 92.5859 95.6229C92.1407 95.9062 92.1407 95.9062 91.6051 95.857C90.8627 95.5446 90.4554 95.0165 89.917 94.4238C88.1955 92.6696 86.7409 91.7312 84.2452 91.6362C82.3776 91.7153 81.2412 92.2221 79.8301 93.4087C78.2028 95.3525 77.9342 97.1401 77.816 99.5962C77.7993 99.9195 77.7993 99.9195 77.7822 100.249C77.755 100.778 77.729 101.307 77.7032 101.836C75.8354 101.842 73.9675 101.847 72.0997 101.85C71.4638 101.851 70.8278 101.853 70.1918 101.855C69.2799 101.858 68.368 101.86 67.4561 101.861C67.1699 101.862 66.8836 101.864 66.5886 101.865C66.1938 101.865 66.1938 101.865 65.791 101.865C65.4415 101.866 65.4415 101.866 65.0849 101.867C64.5547 101.836 64.5547 101.836 64.2969 101.578C64.2689 101.2 64.2568 100.82 64.2516 100.441C64.2424 100.09 64.2424 100.09 64.233 99.7316C64.2221 99.2402 64.2139 98.7488 64.2088 98.2573C64.1527 96.4011 63.7853 95.024 62.5758 93.589C60.472 91.8868 58.7546 91.501 56.0469 91.7812C54.2868 92.1665 53.1362 93.5923 51.9762 94.8808C51.5956 95.2909 51.5956 95.2909 50.8907 95.9062C50.0155 95.8348 49.5701 95.4594 48.9573 94.8586C48.7862 94.6925 48.6151 94.5263 48.4388 94.3551C48.2572 94.1744 48.0757 93.9937 47.8886 93.8075C47.6066 93.5294 47.6066 93.5294 47.3189 93.2456C46.9224 92.8531 46.527 92.4594 46.1325 92.0649C45.5268 91.4608 44.9151 90.8632 44.3029 90.2656C43.9186 89.8836 43.5347 89.5013 43.1513 89.1185C42.875 88.8506 42.875 88.8506 42.5931 88.5772C42.4261 88.4078 42.2591 88.2384 42.087 88.0639C41.9384 87.9164 41.7898 87.7689 41.6367 87.6169C41.3516 87.1406 41.3516 87.1406 41.3965 86.4799C41.7044 85.5714 42.2732 85.1376 42.9791 84.498C44.575 82.9774 45.4836 81.658 45.6055 79.4224C45.5091 77.4812 44.909 75.8642 43.4786 74.5239C41.7983 73.0872 39.8951 72.846 37.7584 72.7998C35.4495 72.7307 35.4495 72.7307 35.1641 72.4453C35.1387 72.0431 35.1311 71.6398 35.1308 71.2368C35.1299 70.9796 35.1291 70.7224 35.1283 70.4573C35.1288 70.1775 35.1293 69.8977 35.1299 69.6094C35.1296 69.3242 35.1294 69.0391 35.1291 68.7453C35.129 68.1411 35.1294 67.5368 35.1305 66.9326C35.1319 66.004 35.1305 65.0755 35.1289 64.147C35.129 63.5615 35.1294 62.9761 35.1299 62.3906C35.1294 62.1108 35.1288 61.831 35.1283 61.5427C35.1291 61.2854 35.1299 61.0282 35.1308 60.7632C35.131 60.5355 35.1312 60.3079 35.1314 60.0733C35.1641 59.5547 35.1641 59.5547 35.4219 59.2969C35.7942 59.272 36.1677 59.2628 36.5408 59.2606C40.2203 59.3227 40.2203 59.3227 43.4141 57.75C44.8941 56.051 45.6368 54.2434 45.5693 51.9845C45.2384 49.5568 43.6465 48.0885 41.9015 46.5462C41.3516 45.8906 41.3516 45.8906 41.3978 45.2613C41.6275 44.5454 41.8553 44.2278 42.3837 43.702C42.5464 43.5377 42.7091 43.3735 42.8766 43.2043C43.0533 43.0313 43.23 42.8583 43.4121 42.6801C43.6835 42.409 43.6835 42.409 43.9603 42.1325C44.3427 41.7517 44.7264 41.3721 45.1112 40.9937C45.7009 40.4134 46.2864 39.829 46.8714 39.2439C47.2435 38.8744 47.6157 38.5051 47.9883 38.1361C48.1639 37.961 48.3396 37.7859 48.5206 37.6056C48.6849 37.4446 48.8491 37.2836 49.0184 37.1177C49.1625 36.9756 49.3065 36.8335 49.455 36.6871C49.8594 36.3516 49.8594 36.3516 50.6329 36.0938C51.0871 36.3999 51.0871 36.3999 51.5836 36.8672C51.7653 37.0334 51.9471 37.1995 52.1344 37.3707C52.4959 37.7108 52.8565 38.0518 53.216 38.3939C54.6068 39.6777 55.7905 40.3405 57.6744 40.5894C59.4832 40.3748 61.4906 39.7846 62.7501 38.4141C63.9381 36.7274 64.2296 35.3116 64.2325 33.2739C64.241 32.7935 64.2504 32.3132 64.2607 31.8328C64.2619 31.6234 64.2632 31.4141 64.2645 31.1984C64.2969 30.6797 64.2969 30.6797 64.5547 30.1641ZM65.8438 31.4531C65.7587 32.7293 65.6736 34.0055 65.586 35.3203C65.1347 37.3061 64.6142 38.9134 62.9213 40.1392C60.6555 41.551 58.7164 42.0191 56.0469 41.7656C54.4664 41.3633 53.3332 40.4923 52.1596 39.3889C51.5912 38.8621 50.9803 38.3826 50.3751 37.8984C47.9929 40.2806 45.6107 42.6628 43.1563 45.1172C43.6054 46.0154 43.8414 46.3615 44.542 47.0024C46.26 48.6702 46.8004 50.2743 46.8462 52.6421C46.8517 54.3046 46.6139 55.5579 45.7344 56.9766C45.641 57.1401 45.5477 57.3036 45.4514 57.472C44.5351 58.9257 43.2276 59.7887 41.6094 60.3281C39.1847 60.4557 39.1847 60.4557 36.711 60.5859C36.711 64.1592 36.711 67.7325 36.711 71.4141C38.8805 71.5417 38.8805 71.5417 41.0938 71.6719C43.2026 72.2811 44.6443 73.1502 45.8069 75.0466C46.9491 77.237 47.2232 79.8172 46.5592 82.214C45.7831 83.9102 44.5272 85.1307 43.1563 86.3672C43.5785 87.449 44.3766 88.1685 45.1886 88.9655C45.3366 89.1128 45.4847 89.2601 45.6372 89.4119C46.1089 89.8806 46.5823 90.3476 47.0557 90.8145C47.3764 91.1326 47.697 91.4508 48.0175 91.7692C48.802 92.548 49.5881 93.3252 50.3751 94.1016C50.5531 93.9484 50.5531 93.9484 50.7347 93.7921C55.1145 90.0293 55.1145 90.0293 58.2847 90.1619C60.8056 90.4674 62.4632 91.518 64.2486 93.2637C65.7708 95.5252 65.6601 97.7907 65.8438 100.547C69.332 100.547 72.8202 100.547 76.4141 100.547C76.4992 99.1005 76.5843 97.6542 76.6719 96.1641C77.1877 94.4693 77.6146 93.4393 78.9922 92.2969C79.1943 92.1161 79.3964 91.9353 79.6045 91.749C81.3699 90.4881 83.2942 90.0358 85.4376 90.2344C87.4656 90.5909 88.8029 91.4805 90.336 92.8125C90.8465 93.2379 91.3569 93.6633 91.8829 94.1016C94.2651 91.7194 96.6472 89.3372 99.1016 86.8828C98.6304 85.9403 98.3347 85.5676 97.587 84.8848C96.0618 83.3984 95.2598 81.8195 95.2203 79.6691C95.3324 77.6692 95.7142 76.2056 96.7813 74.5078C96.9302 74.2685 97.0791 74.0292 97.2325 73.7827C99.6328 71.4491 102.222 71.6096 105.547 71.4141C105.547 67.8408 105.547 64.2675 105.547 60.5859C103.93 60.5009 102.314 60.4158 100.648 60.3281C98.3454 59.4861 97.0334 58.3315 95.9273 56.1548C95.0789 54.0586 95.0076 51.9287 95.7662 49.8021C96.508 48.0836 97.7704 46.9059 99.1016 45.6328C98.6794 44.551 97.8813 43.8315 97.0693 43.0345C96.9213 42.8872 96.7732 42.7399 96.6207 42.5881C96.1491 42.1194 95.6757 41.6524 95.2022 41.1855C94.8815 40.8674 94.5609 40.5492 94.2404 40.2308C93.4559 39.452 92.6698 38.6748 91.8829 37.8984C90.7169 38.8868 90.7169 38.8868 89.5797 39.9076C87.8002 41.5577 86.1265 41.9195 83.7144 41.8553C81.5807 41.6316 79.6224 40.8506 78.2188 39.1875C76.4799 36.5837 76.6147 34.8635 76.4141 31.4531C72.9259 31.4531 69.4377 31.4531 65.8438 31.4531Z" stroke="#EB996E" mask="url(#path-3-outside-2_2611_3774)"/>
<mask id="path-4-outside-3_2611_3774" maskUnits="userSpaceOnUse" x="47.5706" y="49.5364" width="46" height="33" fill="black">
<rect fill="white" x="47.5706" y="49.5364" width="46" height="33"/>
<path d="M75.125 50.7891C76.0581 51.5193 76.6654 52.2042 76.9297 53.3672C76.8586 53.744 76.783 54.1199 76.7041 54.4952C76.5943 55.0983 76.5943 55.0983 76.6719 55.6875C77.248 56.433 77.9841 56.9314 78.7344 57.4922C79.0518 57.7978 79.3637 58.1092 79.669 58.4268C79.8179 58.574 79.9668 58.7212 80.1202 58.8729C80.4976 59.255 80.858 59.6538 81.2159 60.0542C82.5777 60.8865 83.8894 60.9192 85.4375 60.586C86.246 60.0284 86.7068 59.3366 87.2422 58.5235C87.5781 58.0918 87.9164 57.6621 88.2574 57.2344C88.5212 56.8912 88.7846 56.5476 89.0469 56.2032C88.5364 56.2032 88.026 56.2032 87.5 56.2032C87.415 55.8629 87.3299 55.5225 87.2422 55.1719C88.7952 54.4877 90.1797 53.9758 91.8828 53.8828C91.9679 53.9679 92.053 54.053 92.1407 54.1407C92.1307 54.7793 92.1033 55.4056 92.0601 56.042C92.0509 56.2188 92.0418 56.3956 92.0324 56.5778C91.9713 57.5152 91.8992 57.9834 91.3672 58.7813C91.0269 58.6962 90.6866 58.6111 90.336 58.5235C90.2509 58.1832 90.1658 57.8429 90.0782 57.4922C89.6095 58.0766 89.1425 58.6622 88.6763 59.2486C88.5432 59.4142 88.4101 59.5799 88.273 59.7506C88.1458 59.911 88.0187 60.0713 87.8878 60.2365C87.7703 60.3837 87.6528 60.5308 87.5318 60.6825C87.1918 61.1328 87.1918 61.1328 86.9844 61.875C87.0801 62.1888 87.1758 62.5025 87.2744 62.8257C87.5613 63.8832 87.4385 64.5668 87.0005 65.562C86.5954 66.2098 86.1353 66.4872 85.4375 66.7735C85.2674 66.7735 85.0972 66.7735 84.9219 66.7735C84.9219 71.1975 84.9219 75.6216 84.9219 80.1797C85.5175 80.2648 86.113 80.3499 86.7266 80.4375C86.6415 80.8629 86.5564 81.2883 86.4688 81.7266C74.3026 81.7266 62.1364 81.7266 49.6016 81.7266C49.474 81.0885 49.474 81.0885 49.3438 80.4375C50.2371 80.3099 50.2371 80.3099 51.1485 80.1797C51.1501 79.3843 51.1347 78.5901 51.1162 77.795C51.1169 77.57 51.1176 77.345 51.1183 77.1132C51.0986 76.4678 51.063 75.904 50.8907 75.2813C50.1666 74.6328 50.1666 74.6328 49.3438 74.25C48.7226 73.3684 48.5066 72.7157 48.5865 71.6558C48.7966 70.4609 49.344 69.7249 50.3267 69.0132C51.6584 68.5947 52.7388 68.8132 53.9844 69.3516C54.104 69.2541 54.2235 69.1566 54.3467 69.0562C54.8918 68.612 55.4371 68.1681 55.9825 67.7242C56.1706 67.5708 56.3587 67.4174 56.5525 67.2594C56.7352 67.1107 56.918 66.962 57.1064 66.8087C57.2738 66.6724 57.4412 66.536 57.6137 66.3955C57.9616 66.118 58.3192 65.8525 58.6831 65.5964C59.1977 65.2669 59.1977 65.2669 59.2142 64.6888C59.1952 64.4941 59.1763 64.2993 59.1568 64.0987C59.0971 62.6815 59.5117 62.0684 60.4458 61.021C61.5379 60.3937 62.5482 60.4585 63.7813 60.586C64.0365 60.6711 64.2918 60.7561 64.5547 60.8438C64.6521 60.7404 64.7495 60.6371 64.8498 60.5306C65.7845 59.5653 66.7591 58.7015 67.8096 57.8628C69.3228 56.6721 69.3228 56.6721 70.4844 55.1719C70.5158 54.5134 70.4839 53.8723 70.4492 53.2141C70.4889 52.5156 70.6169 52.2332 71.0484 51.6914C72.3414 50.542 73.4689 50.2695 75.125 50.7891ZM72.1763 52.626C71.7094 53.3446 71.7094 53.3446 71.7735 54.1729C71.9816 54.9197 71.9816 54.9197 72.4663 55.4136C73.2876 55.7909 73.7532 55.6848 74.6094 55.4297C75.12 55.1556 75.12 55.1556 75.3828 54.6563C75.5222 53.7203 75.5024 53.2842 74.9639 52.4971C74.3649 52.0269 74.3649 52.0269 73.5782 51.9331C72.767 52.0176 72.767 52.0176 72.1763 52.626ZM71.5157 56.461C71.3561 56.6108 71.3561 56.6108 71.1934 56.7637C70.6996 57.2271 70.2053 57.69 69.711 58.1529C69.5345 58.3183 69.3579 58.4838 69.1761 58.6542C68.1169 59.6436 67.0474 60.612 65.9264 61.5316C65.5158 61.8951 65.5158 61.8951 65.3282 62.6485C65.3359 63.0247 65.3528 63.4008 65.3765 63.7764C65.3851 64.6536 65.346 64.9377 64.8931 65.7261C64.2969 66.2578 64.2969 66.2579 63.0078 66.7735C63.0078 71.1975 63.0078 75.6216 63.0078 80.1797C66.2408 80.1797 69.4738 80.1797 72.8047 80.1797C72.8047 72.5227 72.8047 64.8657 72.8047 56.9766C72.1666 56.7214 72.1666 56.7214 71.5157 56.461ZM74.3516 56.9766C74.3516 64.6336 74.3516 72.2907 74.3516 80.1797C77.3293 80.1797 80.3071 80.1797 83.375 80.1797C83.4105 78.289 83.4413 76.3994 83.46 74.5086C83.4678 73.8654 83.4783 73.2222 83.4917 72.579C83.5105 71.6549 83.5193 70.7311 83.5261 69.8068C83.5341 69.5189 83.5421 69.231 83.5503 68.9343C83.5506 68.1824 83.5391 67.5074 83.375 66.7735C82.6645 66.0908 82.6645 66.0908 81.8282 65.7422C81.2013 64.802 81.3448 64.6637 81.522 63.5992C81.5542 62.3933 81.3212 61.7849 80.5169 60.9233C79.6974 60.1347 78.8378 59.3971 77.9538 58.6818C77.2951 58.1427 76.6669 57.5716 76.039 56.9971C75.4224 56.5663 75.0026 56.6511 74.3516 56.9766ZM60.6875 62.9063C60.5298 63.8529 60.562 64.2696 61.1065 65.0655C61.7055 65.5357 61.7055 65.5357 62.4922 65.6294C63.3034 65.545 63.3034 65.545 63.8941 64.9366C64.361 64.218 64.361 64.218 64.2969 63.3897C64 62.5361 63.811 62.2766 63.0078 61.875C61.8625 61.6746 61.3549 61.967 60.6875 62.9063ZM82.9239 62.439C82.3065 63.101 82.3065 63.101 82.1988 63.8247C82.3949 64.6747 82.6656 64.9803 83.375 65.4844C84.3216 65.6422 84.7384 65.61 85.5342 65.0655C86.0044 64.4665 86.0044 64.4665 86.0982 63.6797C86.0174 62.8633 86.0174 62.8633 85.3731 62.294C84.3413 61.6843 83.8641 61.6911 82.9239 62.439ZM59.6103 66.5143C59.4414 66.6616 59.2724 66.809 59.0984 66.9608C58.9103 67.1206 58.7222 67.2805 58.5284 67.4452C58.3369 67.617 58.1455 67.7888 57.9483 67.9659C57.7549 68.1317 57.5614 68.2975 57.3622 68.4684C56.8307 68.9273 56.3091 69.3954 55.7891 69.8672C55.5747 70.053 55.3604 70.2388 55.1395 70.4302C54.659 71.0197 54.668 71.2966 54.7417 72.0425C54.7869 73.0993 54.695 73.6748 53.9844 74.5079C53.7637 74.5953 53.5431 74.6827 53.3157 74.7727C52.6532 75.2063 52.6532 75.2063 52.5908 75.8022C52.5682 76.4664 52.5834 77.1147 52.6148 77.7788C52.6414 78.5711 52.668 79.3634 52.6953 80.1797C55.6731 80.1797 58.6508 80.1797 61.7188 80.1797C61.7188 75.7557 61.7188 71.3316 61.7188 66.7735C60.3215 66.1124 60.3215 66.1124 59.6103 66.5143ZM50.375 70.8985C50.0987 71.8483 49.9779 72.409 50.4073 73.3155C51.0214 73.8477 51.3663 73.9729 52.1797 73.9922C52.9163 73.7737 52.9163 73.7737 53.4688 73.2188C53.7906 72.3409 53.7906 72.3409 53.7266 71.4141C53.2709 70.7728 52.8984 70.4811 52.1958 70.1412C51.3637 70.1159 50.9992 70.3587 50.375 70.8985Z"/>
</mask>
<path d="M75.125 50.7891C76.0581 51.5193 76.6654 52.2042 76.9297 53.3672C76.8586 53.744 76.783 54.1199 76.7041 54.4952C76.5943 55.0983 76.5943 55.0983 76.6719 55.6875C77.248 56.433 77.9841 56.9314 78.7344 57.4922C79.0518 57.7978 79.3637 58.1092 79.669 58.4268C79.8179 58.574 79.9668 58.7212 80.1202 58.8729C80.4976 59.255 80.858 59.6538 81.2159 60.0542C82.5777 60.8865 83.8894 60.9192 85.4375 60.586C86.246 60.0284 86.7068 59.3366 87.2422 58.5235C87.5781 58.0918 87.9164 57.6621 88.2574 57.2344C88.5212 56.8912 88.7846 56.5476 89.0469 56.2032C88.5364 56.2032 88.026 56.2032 87.5 56.2032C87.415 55.8629 87.3299 55.5225 87.2422 55.1719C88.7952 54.4877 90.1797 53.9758 91.8828 53.8828C91.9679 53.9679 92.053 54.053 92.1407 54.1407C92.1307 54.7793 92.1033 55.4056 92.0601 56.042C92.0509 56.2188 92.0418 56.3956 92.0324 56.5778C91.9713 57.5152 91.8992 57.9834 91.3672 58.7813C91.0269 58.6962 90.6866 58.6111 90.336 58.5235C90.2509 58.1832 90.1658 57.8429 90.0782 57.4922C89.6095 58.0766 89.1425 58.6622 88.6763 59.2486C88.5432 59.4142 88.4101 59.5799 88.273 59.7506C88.1458 59.911 88.0187 60.0713 87.8878 60.2365C87.7703 60.3837 87.6528 60.5308 87.5318 60.6825C87.1918 61.1328 87.1918 61.1328 86.9844 61.875C87.0801 62.1888 87.1758 62.5025 87.2744 62.8257C87.5613 63.8832 87.4385 64.5668 87.0005 65.562C86.5954 66.2098 86.1353 66.4872 85.4375 66.7735C85.2674 66.7735 85.0972 66.7735 84.9219 66.7735C84.9219 71.1975 84.9219 75.6216 84.9219 80.1797C85.5175 80.2648 86.113 80.3499 86.7266 80.4375C86.6415 80.8629 86.5564 81.2883 86.4688 81.7266C74.3026 81.7266 62.1364 81.7266 49.6016 81.7266C49.474 81.0885 49.474 81.0885 49.3438 80.4375C50.2371 80.3099 50.2371 80.3099 51.1485 80.1797C51.1501 79.3843 51.1347 78.5901 51.1162 77.795C51.1169 77.57 51.1176 77.345 51.1183 77.1132C51.0986 76.4678 51.063 75.904 50.8907 75.2813C50.1666 74.6328 50.1666 74.6328 49.3438 74.25C48.7226 73.3684 48.5066 72.7157 48.5865 71.6558C48.7966 70.4609 49.344 69.7249 50.3267 69.0132C51.6584 68.5947 52.7388 68.8132 53.9844 69.3516C54.104 69.2541 54.2235 69.1566 54.3467 69.0562C54.8918 68.612 55.4371 68.1681 55.9825 67.7242C56.1706 67.5708 56.3587 67.4174 56.5525 67.2594C56.7352 67.1107 56.918 66.962 57.1064 66.8087C57.2738 66.6724 57.4412 66.536 57.6137 66.3955C57.9616 66.118 58.3192 65.8525 58.6831 65.5964C59.1977 65.2669 59.1977 65.2669 59.2142 64.6888C59.1952 64.4941 59.1763 64.2993 59.1568 64.0987C59.0971 62.6815 59.5117 62.0684 60.4458 61.021C61.5379 60.3937 62.5482 60.4585 63.7813 60.586C64.0365 60.6711 64.2918 60.7561 64.5547 60.8438C64.6521 60.7404 64.7495 60.6371 64.8498 60.5306C65.7845 59.5653 66.7591 58.7015 67.8096 57.8628C69.3228 56.6721 69.3228 56.6721 70.4844 55.1719C70.5158 54.5134 70.4839 53.8723 70.4492 53.2141C70.4889 52.5156 70.6169 52.2332 71.0484 51.6914C72.3414 50.542 73.4689 50.2695 75.125 50.7891ZM72.1763 52.626C71.7094 53.3446 71.7094 53.3446 71.7735 54.1729C71.9816 54.9197 71.9816 54.9197 72.4663 55.4136C73.2876 55.7909 73.7532 55.6848 74.6094 55.4297C75.12 55.1556 75.12 55.1556 75.3828 54.6563C75.5222 53.7203 75.5024 53.2842 74.9639 52.4971C74.3649 52.0269 74.3649 52.0269 73.5782 51.9331C72.767 52.0176 72.767 52.0176 72.1763 52.626ZM71.5157 56.461C71.3561 56.6108 71.3561 56.6108 71.1934 56.7637C70.6996 57.2271 70.2053 57.69 69.711 58.1529C69.5345 58.3183 69.3579 58.4838 69.1761 58.6542C68.1169 59.6436 67.0474 60.612 65.9264 61.5316C65.5158 61.8951 65.5158 61.8951 65.3282 62.6485C65.3359 63.0247 65.3528 63.4008 65.3765 63.7764C65.3851 64.6536 65.346 64.9377 64.8931 65.7261C64.2969 66.2578 64.2969 66.2579 63.0078 66.7735C63.0078 71.1975 63.0078 75.6216 63.0078 80.1797C66.2408 80.1797 69.4738 80.1797 72.8047 80.1797C72.8047 72.5227 72.8047 64.8657 72.8047 56.9766C72.1666 56.7214 72.1666 56.7214 71.5157 56.461ZM74.3516 56.9766C74.3516 64.6336 74.3516 72.2907 74.3516 80.1797C77.3293 80.1797 80.3071 80.1797 83.375 80.1797C83.4105 78.289 83.4413 76.3994 83.46 74.5086C83.4678 73.8654 83.4783 73.2222 83.4917 72.579C83.5105 71.6549 83.5193 70.7311 83.5261 69.8068C83.5341 69.5189 83.5421 69.231 83.5503 68.9343C83.5506 68.1824 83.5391 67.5074 83.375 66.7735C82.6645 66.0908 82.6645 66.0908 81.8282 65.7422C81.2013 64.802 81.3448 64.6637 81.522 63.5992C81.5542 62.3933 81.3212 61.7849 80.5169 60.9233C79.6974 60.1347 78.8378 59.3971 77.9538 58.6818C77.2951 58.1427 76.6669 57.5716 76.039 56.9971C75.4224 56.5663 75.0026 56.6511 74.3516 56.9766ZM60.6875 62.9063C60.5298 63.8529 60.562 64.2696 61.1065 65.0655C61.7055 65.5357 61.7055 65.5357 62.4922 65.6294C63.3034 65.545 63.3034 65.545 63.8941 64.9366C64.361 64.218 64.361 64.218 64.2969 63.3897C64 62.5361 63.811 62.2766 63.0078 61.875C61.8625 61.6746 61.3549 61.967 60.6875 62.9063ZM82.9239 62.439C82.3065 63.101 82.3065 63.101 82.1988 63.8247C82.3949 64.6747 82.6656 64.9803 83.375 65.4844C84.3216 65.6422 84.7384 65.61 85.5342 65.0655C86.0044 64.4665 86.0044 64.4665 86.0982 63.6797C86.0174 62.8633 86.0174 62.8633 85.3731 62.294C84.3413 61.6843 83.8641 61.6911 82.9239 62.439ZM59.6103 66.5143C59.4414 66.6616 59.2724 66.809 59.0984 66.9608C58.9103 67.1206 58.7222 67.2805 58.5284 67.4452C58.3369 67.617 58.1455 67.7888 57.9483 67.9659C57.7549 68.1317 57.5614 68.2975 57.3622 68.4684C56.8307 68.9273 56.3091 69.3954 55.7891 69.8672C55.5747 70.053 55.3604 70.2388 55.1395 70.4302C54.659 71.0197 54.668 71.2966 54.7417 72.0425C54.7869 73.0993 54.695 73.6748 53.9844 74.5079C53.7637 74.5953 53.5431 74.6827 53.3157 74.7727C52.6532 75.2063 52.6532 75.2063 52.5908 75.8022C52.5682 76.4664 52.5834 77.1147 52.6148 77.7788C52.6414 78.5711 52.668 79.3634 52.6953 80.1797C55.6731 80.1797 58.6508 80.1797 61.7188 80.1797C61.7188 75.7557 61.7188 71.3316 61.7188 66.7735C60.3215 66.1124 60.3215 66.1124 59.6103 66.5143ZM50.375 70.8985C50.0987 71.8483 49.9779 72.409 50.4073 73.3155C51.0214 73.8477 51.3663 73.9729 52.1797 73.9922C52.9163 73.7737 52.9163 73.7737 53.4688 73.2188C53.7906 72.3409 53.7906 72.3409 53.7266 71.4141C53.2709 70.7728 52.8984 70.4811 52.1958 70.1412C51.3637 70.1159 50.9992 70.3587 50.375 70.8985Z" fill="#EB996E"/>
<path d="M75.125 50.7891C76.0581 51.5193 76.6654 52.2042 76.9297 53.3672C76.8586 53.744 76.783 54.1199 76.7041 54.4952C76.5943 55.0983 76.5943 55.0983 76.6719 55.6875C77.248 56.433 77.9841 56.9314 78.7344 57.4922C79.0518 57.7978 79.3637 58.1092 79.669 58.4268C79.8179 58.574 79.9668 58.7212 80.1202 58.8729C80.4976 59.255 80.858 59.6538 81.2159 60.0542C82.5777 60.8865 83.8894 60.9192 85.4375 60.586C86.246 60.0284 86.7068 59.3366 87.2422 58.5235C87.5781 58.0918 87.9164 57.6621 88.2574 57.2344C88.5212 56.8912 88.7846 56.5476 89.0469 56.2032C88.5364 56.2032 88.026 56.2032 87.5 56.2032C87.415 55.8629 87.3299 55.5225 87.2422 55.1719C88.7952 54.4877 90.1797 53.9758 91.8828 53.8828C91.9679 53.9679 92.053 54.053 92.1407 54.1407C92.1307 54.7793 92.1033 55.4056 92.0601 56.042C92.0509 56.2188 92.0418 56.3956 92.0324 56.5778C91.9713 57.5152 91.8992 57.9834 91.3672 58.7813C91.0269 58.6962 90.6866 58.6111 90.336 58.5235C90.2509 58.1832 90.1658 57.8429 90.0782 57.4922C89.6095 58.0766 89.1425 58.6622 88.6763 59.2486C88.5432 59.4142 88.4101 59.5799 88.273 59.7506C88.1458 59.911 88.0187 60.0713 87.8878 60.2365C87.7703 60.3837 87.6528 60.5308 87.5318 60.6825C87.1918 61.1328 87.1918 61.1328 86.9844 61.875C87.0801 62.1888 87.1758 62.5025 87.2744 62.8257C87.5613 63.8832 87.4385 64.5668 87.0005 65.562C86.5954 66.2098 86.1353 66.4872 85.4375 66.7735C85.2674 66.7735 85.0972 66.7735 84.9219 66.7735C84.9219 71.1975 84.9219 75.6216 84.9219 80.1797C85.5175 80.2648 86.113 80.3499 86.7266 80.4375C86.6415 80.8629 86.5564 81.2883 86.4688 81.7266C74.3026 81.7266 62.1364 81.7266 49.6016 81.7266C49.474 81.0885 49.474 81.0885 49.3438 80.4375C50.2371 80.3099 50.2371 80.3099 51.1485 80.1797C51.1501 79.3843 51.1347 78.5901 51.1162 77.795C51.1169 77.57 51.1176 77.345 51.1183 77.1132C51.0986 76.4678 51.063 75.904 50.8907 75.2813C50.1666 74.6328 50.1666 74.6328 49.3438 74.25C48.7226 73.3684 48.5066 72.7157 48.5865 71.6558C48.7966 70.4609 49.344 69.7249 50.3267 69.0132C51.6584 68.5947 52.7388 68.8132 53.9844 69.3516C54.104 69.2541 54.2235 69.1566 54.3467 69.0562C54.8918 68.612 55.4371 68.1681 55.9825 67.7242C56.1706 67.5708 56.3587 67.4174 56.5525 67.2594C56.7352 67.1107 56.918 66.962 57.1064 66.8087C57.2738 66.6724 57.4412 66.536 57.6137 66.3955C57.9616 66.118 58.3192 65.8525 58.6831 65.5964C59.1977 65.2669 59.1977 65.2669 59.2142 64.6888C59.1952 64.4941 59.1763 64.2993 59.1568 64.0987C59.0971 62.6815 59.5117 62.0684 60.4458 61.021C61.5379 60.3937 62.5482 60.4585 63.7813 60.586C64.0365 60.6711 64.2918 60.7561 64.5547 60.8438C64.6521 60.7404 64.7495 60.6371 64.8498 60.5306C65.7845 59.5653 66.7591 58.7015 67.8096 57.8628C69.3228 56.6721 69.3228 56.6721 70.4844 55.1719C70.5158 54.5134 70.4839 53.8723 70.4492 53.2141C70.4889 52.5156 70.6169 52.2332 71.0484 51.6914C72.3414 50.542 73.4689 50.2695 75.125 50.7891ZM72.1763 52.626C71.7094 53.3446 71.7094 53.3446 71.7735 54.1729C71.9816 54.9197 71.9816 54.9197 72.4663 55.4136C73.2876 55.7909 73.7532 55.6848 74.6094 55.4297C75.12 55.1556 75.12 55.1556 75.3828 54.6563C75.5222 53.7203 75.5024 53.2842 74.9639 52.4971C74.3649 52.0269 74.3649 52.0269 73.5782 51.9331C72.767 52.0176 72.767 52.0176 72.1763 52.626ZM71.5157 56.461C71.3561 56.6108 71.3561 56.6108 71.1934 56.7637C70.6996 57.2271 70.2053 57.69 69.711 58.1529C69.5345 58.3183 69.3579 58.4838 69.1761 58.6542C68.1169 59.6436 67.0474 60.612 65.9264 61.5316C65.5158 61.8951 65.5158 61.8951 65.3282 62.6485C65.3359 63.0247 65.3528 63.4008 65.3765 63.7764C65.3851 64.6536 65.346 64.9377 64.8931 65.7261C64.2969 66.2578 64.2969 66.2579 63.0078 66.7735C63.0078 71.1975 63.0078 75.6216 63.0078 80.1797C66.2408 80.1797 69.4738 80.1797 72.8047 80.1797C72.8047 72.5227 72.8047 64.8657 72.8047 56.9766C72.1666 56.7214 72.1666 56.7214 71.5157 56.461ZM74.3516 56.9766C74.3516 64.6336 74.3516 72.2907 74.3516 80.1797C77.3293 80.1797 80.3071 80.1797 83.375 80.1797C83.4105 78.289 83.4413 76.3994 83.46 74.5086C83.4678 73.8654 83.4783 73.2222 83.4917 72.579C83.5105 71.6549 83.5193 70.7311 83.5261 69.8068C83.5341 69.5189 83.5421 69.231 83.5503 68.9343C83.5506 68.1824 83.5391 67.5074 83.375 66.7735C82.6645 66.0908 82.6645 66.0908 81.8282 65.7422C81.2013 64.802 81.3448 64.6637 81.522 63.5992C81.5542 62.3933 81.3212 61.7849 80.5169 60.9233C79.6974 60.1347 78.8378 59.3971 77.9538 58.6818C77.2951 58.1427 76.6669 57.5716 76.039 56.9971C75.4224 56.5663 75.0026 56.6511 74.3516 56.9766ZM60.6875 62.9063C60.5298 63.8529 60.562 64.2696 61.1065 65.0655C61.7055 65.5357 61.7055 65.5357 62.4922 65.6294C63.3034 65.545 63.3034 65.545 63.8941 64.9366C64.361 64.218 64.361 64.218 64.2969 63.3897C64 62.5361 63.811 62.2766 63.0078 61.875C61.8625 61.6746 61.3549 61.967 60.6875 62.9063ZM82.9239 62.439C82.3065 63.101 82.3065 63.101 82.1988 63.8247C82.3949 64.6747 82.6656 64.9803 83.375 65.4844C84.3216 65.6422 84.7384 65.61 85.5342 65.0655C86.0044 64.4665 86.0044 64.4665 86.0982 63.6797C86.0174 62.8633 86.0174 62.8633 85.3731 62.294C84.3413 61.6843 83.8641 61.6911 82.9239 62.439ZM59.6103 66.5143C59.4414 66.6616 59.2724 66.809 59.0984 66.9608C58.9103 67.1206 58.7222 67.2805 58.5284 67.4452C58.3369 67.617 58.1455 67.7888 57.9483 67.9659C57.7549 68.1317 57.5614 68.2975 57.3622 68.4684C56.8307 68.9273 56.3091 69.3954 55.7891 69.8672C55.5747 70.053 55.3604 70.2388 55.1395 70.4302C54.659 71.0197 54.668 71.2966 54.7417 72.0425C54.7869 73.0993 54.695 73.6748 53.9844 74.5079C53.7637 74.5953 53.5431 74.6827 53.3157 74.7727C52.6532 75.2063 52.6532 75.2063 52.5908 75.8022C52.5682 76.4664 52.5834 77.1147 52.6148 77.7788C52.6414 78.5711 52.668 79.3634 52.6953 80.1797C55.6731 80.1797 58.6508 80.1797 61.7188 80.1797C61.7188 75.7557 61.7188 71.3316 61.7188 66.7735C60.3215 66.1124 60.3215 66.1124 59.6103 66.5143ZM50.375 70.8985C50.0987 71.8483 49.9779 72.409 50.4073 73.3155C51.0214 73.8477 51.3663 73.9729 52.1797 73.9922C52.9163 73.7737 52.9163 73.7737 53.4688 73.2188C53.7906 72.3409 53.7906 72.3409 53.7266 71.4141C53.2709 70.7728 52.8984 70.4811 52.1958 70.1412C51.3637 70.1159 50.9992 70.3587 50.375 70.8985Z" stroke="#EB996E" mask="url(#path-4-outside-3_2611_3774)"/>
</g>
<defs>
<clipPath id="clip0_2611_3774">
<rect width="132" height="132" fill="white" transform="translate(5)"/>
</clipPath>
</defs>
</svg>
