<svg width="258" height="219" viewBox="0 0 258 219" fill="none" xmlns="http://www.w3.org/2000/svg">
<path d="M248.32 46.0583L247.429 43.4552C239.964 21.3287 221.085 4.64278 198.022 0.842233C195.053 0.343419 192.051 0.0649942 189.041 0.00923785C167.364 -0.374721 145.829 10.9293 133.829 28.9884C126.775 39.5961 122.505 52.7223 112.028 60.0175C98.4397 69.5449 79.9641 65.6988 63.9094 61.4818C47.8547 57.2647 29.3596 53.4707 15.8169 63.0501C7.35675 69.0503 2.71671 79.3196 0.933573 89.5368C-3.74552 116.648 9.61495 144.938 30.9149 162.359C52.2149 179.78 80.2635 187.349 107.765 188.156C146.298 189.288 185.963 177.203 214.174 150.931C242.385 124.659 257.451 83.5041 248.32 46.0583Z" fill="#FFE7EC"/>
<path d="M235.473 33.1286L231.135 33.1521L231.252 54.7349L235.59 54.7114L235.473 33.1286Z" fill="#E0E0E0"/>
<path d="M204.79 33.1878L193.561 33.2485L193.625 45.1614L204.855 45.1006L204.79 33.1878Z" fill="#EBEBEB"/>
<path d="M215.97 33.1272L204.74 33.188L204.805 45.1008L216.034 45.0401L215.97 33.1272Z" fill="#F5F5F5"/>
<path d="M193.578 36.5537C201.041 36.6149 208.525 36.5537 216.008 36.4518C216.035 36.4461 216.06 36.431 216.078 36.4092C216.096 36.3874 216.105 36.3601 216.105 36.332C216.105 36.3039 216.096 36.2766 216.078 36.2548C216.06 36.2329 216.035 36.2179 216.008 36.2122C208.545 36.1714 201.062 36.2122 193.578 36.3498C193.551 36.3498 193.526 36.3606 193.506 36.3797C193.487 36.3988 193.477 36.4248 193.477 36.4518C193.477 36.4788 193.487 36.5048 193.506 36.5239C193.526 36.543 193.551 36.5537 193.578 36.5537Z" fill="#E0E0E0"/>
<path d="M206.966 44.9053L186.561 45.0157L186.613 54.7265L207.018 54.6161L206.966 44.9053Z" fill="#EBEBEB"/>
<path d="M227.274 44.7955L206.869 44.9059L206.922 54.6166L227.327 54.5062L227.274 44.7955Z" fill="#F5F5F5"/>
<path d="M186.569 47.7276C200.128 47.8856 213.734 47.7276 227.288 47.5288C227.316 47.5231 227.34 47.5081 227.358 47.4863C227.376 47.4644 227.386 47.4372 227.386 47.409C227.386 47.3809 227.376 47.3536 227.358 47.3318C227.34 47.31 227.316 47.2949 227.288 47.2892C213.729 47.2179 200.123 47.2281 186.569 47.5237C186.542 47.5237 186.516 47.5345 186.497 47.5536C186.478 47.5727 186.467 47.5986 186.467 47.6257C186.467 47.6527 186.478 47.6786 186.497 47.6978C186.516 47.7169 186.542 47.7276 186.569 47.7276Z" fill="#E0E0E0"/>
<path d="M258.001 54.7367H178.938V58.2132H258.001V54.7367Z" fill="#E0E0E0"/>
<path d="M195.096 56.4139H191.885V68.2811H195.096V56.4139Z" fill="#E0E0E0"/>
<path d="M243.002 56.4139H239.791V68.2811H243.002V56.4139Z" fill="#E0E0E0"/>
<path d="M239.701 25.0821L235.363 25.1056L235.524 54.7883L239.862 54.7648L239.701 25.0821Z" fill="#EBEBEB"/>
<path d="M246.485 30.6121L239.746 30.6486L239.876 54.7036L246.615 54.6671L246.485 30.6121Z" fill="#F5F5F5"/>
<path d="M246.434 35.259C244.191 35.4153 241.939 35.4153 239.695 35.259C241.939 35.1026 244.191 35.1026 246.434 35.259Z" fill="#E0E0E0"/>
<path d="M246.434 34.2497C244.191 34.406 241.939 34.406 239.695 34.2497C241.939 34.0934 244.191 34.0934 246.434 34.2497Z" fill="#E0E0E0"/>
<path d="M246.434 51.0613C244.191 51.2177 241.939 51.2177 239.695 51.0613C241.939 50.905 244.191 50.905 246.434 51.0613Z" fill="#E0E0E0"/>
<path d="M246.434 50.0522C244.191 50.2085 241.939 50.2085 239.695 50.0522C241.939 49.8959 244.191 49.8959 246.434 50.0522Z" fill="#E0E0E0"/>
<path d="M243.173 47.8449C243.112 47.8449 243.061 45.4184 243.061 42.4262C243.061 39.4339 243.112 37.0074 243.173 37.0074C243.234 37.0074 243.29 39.4339 243.29 42.4262C243.29 45.4184 243.239 47.8449 243.173 47.8449Z" fill="#E0E0E0"/>
<path d="M253.847 36.5333H246.512V54.6908H253.847V36.5333Z" fill="#EBEBEB"/>
<path d="M238.717 30.1665C238.718 30.414 238.645 30.6561 238.508 30.8623C238.371 31.0685 238.176 31.2293 237.948 31.3245C237.72 31.4196 237.468 31.4448 237.225 31.3968C236.983 31.3488 236.759 31.2297 236.585 31.0547C236.41 30.8798 236.291 30.6568 236.243 30.414C236.194 30.1713 236.22 29.9198 236.315 29.6913C236.41 29.4629 236.571 29.2679 236.777 29.1311C236.983 28.9943 237.225 28.9217 237.473 28.9227C237.802 28.9241 238.118 29.0556 238.351 29.2885C238.584 29.5215 238.715 29.8371 238.717 30.1665Z" fill="#E0E0E0"/>
<path d="M237.854 33.5972H237.084V51.2551H237.854V33.5972Z" fill="#E0E0E0"/>
<path d="M193.149 21.2573H117.195V94.1524H193.149V21.2573Z" fill="white"/>
<path d="M156.758 98.0353C156.758 98.7411 156.533 99.431 156.113 100.018C155.693 100.605 155.096 101.062 154.398 101.332C153.699 101.602 152.93 101.673 152.189 101.535C151.447 101.397 150.766 101.058 150.231 100.558C149.696 100.059 149.332 99.4236 149.185 98.7315C149.037 98.0393 149.113 97.3218 149.402 96.6698C149.692 96.0178 150.182 95.4605 150.81 95.0684C151.439 94.6763 152.178 94.467 152.935 94.467C153.948 94.467 154.921 94.843 155.638 95.5122C156.355 96.1814 156.758 97.089 156.758 98.0353Z" fill="#E0E0E0"/>
<path d="M192.954 21.5095H117V26.6071H192.954V21.5095Z" fill="#F5F5F5"/>
<path d="M130.928 94.4046H192.954V82.6802H117V94.4046H120.958" fill="#BDD0FF"/>
<path d="M127.703 24.0581C127.703 24.2597 127.643 24.4568 127.531 24.6245C127.419 24.7922 127.26 24.9228 127.074 25C126.887 25.0772 126.682 25.0973 126.485 25.058C126.287 25.0187 126.105 24.9216 125.963 24.779C125.82 24.6364 125.723 24.4547 125.684 24.257C125.644 24.0592 125.664 23.8542 125.742 23.6679C125.819 23.4816 125.949 23.3224 126.117 23.2104C126.285 23.0984 126.482 23.0386 126.684 23.0386C126.954 23.0386 127.213 23.146 127.404 23.3372C127.596 23.5284 127.703 23.7877 127.703 24.0581Z" fill="white"/>
<path d="M121.588 24.0581C121.588 24.2597 121.528 24.4568 121.416 24.6245C121.304 24.7922 121.145 24.9228 120.958 25C120.772 25.0772 120.567 25.0973 120.369 25.058C120.172 25.0187 119.99 24.9216 119.847 24.779C119.705 24.6364 119.608 24.4547 119.568 24.257C119.529 24.0592 119.549 23.8542 119.626 23.6679C119.704 23.4816 119.834 23.3224 120.002 23.2104C120.17 23.0984 120.367 23.0386 120.568 23.0386C120.839 23.0386 121.098 23.146 121.289 23.3372C121.48 23.5284 121.588 23.7877 121.588 24.0581Z" fill="white"/>
<path d="M124.646 24.0581C124.646 24.2597 124.587 24.4568 124.475 24.6245C124.363 24.7922 124.203 24.9228 124.017 25C123.831 25.0772 123.626 25.0973 123.428 25.058C123.23 25.0187 123.049 24.9216 122.906 24.779C122.763 24.6364 122.666 24.4547 122.627 24.257C122.588 24.0592 122.608 23.8542 122.685 23.6679C122.762 23.4816 122.893 23.3224 123.061 23.2104C123.228 23.0984 123.425 23.0386 123.627 23.0386C123.897 23.0386 124.157 23.146 124.348 23.3372C124.539 23.5284 124.646 23.7877 124.646 24.0581Z" fill="white"/>
<path d="M187.091 34.7632C187.023 34.7632 186.958 34.7551 186.911 34.7407C186.863 34.7263 186.836 34.7068 186.836 34.6864V33.8204C186.836 33.8 186.863 33.7805 186.911 33.7661C186.958 33.7517 187.023 33.7437 187.091 33.7437C187.158 33.7437 187.223 33.7517 187.271 33.7661C187.319 33.7805 187.346 33.8 187.346 33.8204V34.6864C187.346 34.7068 187.319 34.7263 187.271 34.7407C187.223 34.7551 187.158 34.7632 187.091 34.7632Z" fill="#E0E0E0"/>
<path d="M156.76 68.407C153.38 68.407 150.138 67.0643 147.748 64.6744C145.358 62.2844 144.016 59.043 144.016 55.6631C144.016 52.2832 145.358 49.0417 147.748 46.6518C150.138 44.2618 153.38 42.9192 156.76 42.9192C160.139 42.9192 163.381 44.2618 165.771 46.6518C168.161 49.0417 169.503 52.2832 169.503 55.6631C169.503 59.043 168.161 62.2844 165.771 64.6744C163.381 67.0643 160.139 68.407 156.76 68.407Z" fill="#F5F5F5"/>
<path d="M158.011 55.7931C158.712 55.5621 159.309 55.0785 159.696 54.4296C160.083 53.7807 160.234 53.0094 160.122 52.2549C160.01 51.5005 159.641 50.8127 159.083 50.3159C158.525 49.8191 157.815 49.546 157.08 49.546C156.345 49.546 155.635 49.8191 155.077 50.3159C154.519 50.8127 154.15 51.5005 154.038 52.2549C153.925 53.0094 154.076 53.7807 154.464 54.4296C154.851 55.0785 155.448 55.5621 156.149 55.7931C154.897 56.0038 153.758 56.6707 152.936 57.6743C152.114 58.6778 151.662 59.9526 151.662 61.2704H162.367C162.363 59.9747 161.927 58.7204 161.133 57.7215C160.338 56.7227 159.235 56.0411 158.011 55.7931Z" fill="#9A9A9A"/>
<path d="M168.623 87.2681H167.836C167.631 87.2681 167.465 87.4894 167.465 87.7624V88.8128C167.465 89.0858 167.631 89.3071 167.836 89.3071H168.623C168.828 89.3071 168.994 89.0858 168.994 88.8128V87.7624C168.994 87.4894 168.828 87.2681 168.623 87.2681Z" fill="white"/>
<path d="M169.504 88.8696V88.2828L169.88 87.8087C169.89 87.7943 169.904 87.7842 169.92 87.78C169.936 87.7757 169.953 87.7775 169.967 87.785C169.982 87.7925 169.995 87.8054 170.003 87.8219C170.011 87.8383 170.015 87.8574 170.013 87.8764V89.2082C170.015 89.2273 170.011 89.2464 170.003 89.2628C169.995 89.2792 169.982 89.2921 169.967 89.2997C169.953 89.3072 169.936 89.309 169.92 89.3047C169.904 89.3004 169.89 89.2904 169.88 89.276L169.504 88.8696Z" fill="white"/>
<path d="M155.256 90.8073C154.757 90.3085 154.417 89.673 154.279 88.9811C154.142 88.2893 154.213 87.5722 154.483 86.9206C154.753 86.2689 155.21 85.712 155.797 85.3201C156.384 84.9283 157.074 84.7191 157.779 84.7191C158.485 84.7191 159.175 84.9283 159.762 85.3201C160.348 85.712 160.806 86.2689 161.076 86.9206C161.346 87.5722 161.417 88.2893 161.279 88.9811C161.141 89.673 160.802 90.3085 160.303 90.8073C159.972 91.1396 159.579 91.4033 159.146 91.5832C158.713 91.7631 158.248 91.8557 157.779 91.8557C157.31 91.8557 156.846 91.7631 156.413 91.5832C155.98 91.4033 155.586 91.1396 155.256 90.8073Z" fill="#E0E0E0"/>
<path d="M156.515 88.7543L157.135 88.6384C157.172 88.6304 157.204 88.613 157.228 88.5888C157.251 88.5645 157.264 88.5349 157.265 88.5042V88.4005C157.26 88.3788 157.262 88.3565 157.269 88.3352C157.276 88.3139 157.288 88.294 157.306 88.2768C157.323 88.2595 157.344 88.2454 157.369 88.2352C157.393 88.225 157.42 88.219 157.448 88.2176H158.526C158.526 88.2176 158.77 88.2176 158.77 88.3701V88.5164C158.768 88.5412 158.776 88.5659 158.794 88.5861C158.813 88.6062 158.839 88.6205 158.87 88.6262L159.542 88.7909C159.559 88.7957 159.577 88.7978 159.595 88.7971C159.614 88.7963 159.631 88.7927 159.648 88.7865C159.664 88.7802 159.679 88.7715 159.691 88.7607C159.703 88.75 159.712 88.7374 159.718 88.7238L159.81 88.5591C159.821 88.5272 159.821 88.4934 159.81 88.4615C159.806 88.3724 159.766 88.2867 159.695 88.2176C159.422 88.0429 159.106 87.9157 158.768 87.8443C158.43 87.7728 158.076 87.7587 157.731 87.8028C156.592 87.8455 156.34 88.2298 156.278 88.3213C156.241 88.404 156.241 88.4947 156.278 88.5774C156.278 88.5774 156.278 88.6384 156.324 88.675C156.341 88.7033 156.368 88.7264 156.403 88.7407C156.438 88.7551 156.477 88.7599 156.515 88.7543Z" fill="white"/>
<path d="M150.642 88.2874C150.642 88.9932 150.433 89.683 150.041 90.2698C149.649 90.8566 149.092 91.314 148.44 91.5841C147.788 91.8542 147.07 91.9248 146.378 91.7871C145.686 91.6495 145.05 91.3096 144.551 90.8106C144.052 90.3115 143.712 89.6757 143.574 88.9835C143.437 88.2914 143.507 87.5739 143.777 86.9219C144.048 86.2699 144.505 85.7126 145.092 85.3205C145.679 84.9284 146.368 84.7191 147.074 84.7191C148.02 84.7212 148.926 85.0978 149.595 85.7665C150.264 86.4353 150.64 87.3417 150.642 88.2874Z" fill="#E0E0E0"/>
<path d="M145.805 88.7971C145.755 88.7993 145.705 88.7713 145.662 88.7166C145.62 88.662 145.586 88.5831 145.566 88.4902C145.546 88.3973 145.54 88.2945 145.549 88.1949C145.558 88.0953 145.582 88.0034 145.618 87.931C145.653 87.8586 145.698 87.8089 145.748 87.7883C145.798 87.7678 145.849 87.7772 145.896 87.8154C145.943 87.8537 145.983 87.919 146.011 88.003C146.04 88.0871 146.055 88.1861 146.055 88.2873C146.055 88.4206 146.029 88.5487 145.982 88.6439C145.935 88.7392 145.872 88.7942 145.805 88.7971Z" fill="white"/>
<path d="M146.825 88.7971C146.774 88.7993 146.724 88.7713 146.682 88.7166C146.639 88.662 146.606 88.5831 146.585 88.4902C146.565 88.3973 146.559 88.2945 146.569 88.1949C146.578 88.0953 146.602 88.0034 146.637 87.931C146.673 87.8586 146.718 87.8089 146.768 87.7883C146.817 87.7678 146.869 87.7772 146.916 87.8154C146.962 87.8537 147.003 87.919 147.031 88.003C147.059 88.0871 147.074 88.1861 147.074 88.2873C147.074 88.4206 147.048 88.5487 147.002 88.6439C146.955 88.7392 146.892 88.7942 146.825 88.7971Z" fill="white"/>
<path d="M148.094 88.7972C147.993 88.7972 147.894 88.7673 147.811 88.7113C147.727 88.6553 147.661 88.5757 147.623 88.4825C147.584 88.3894 147.574 88.2869 147.594 88.188C147.613 88.0891 147.662 87.9983 147.733 87.927C147.805 87.8557 147.895 87.8072 147.994 87.7875C148.093 87.7678 148.196 87.7779 148.289 87.8165C148.382 87.8551 148.462 87.9204 148.518 88.0043C148.574 88.0881 148.603 88.1866 148.603 88.2875C148.603 88.3544 148.59 88.4207 148.565 88.4825C148.539 88.5444 148.501 88.6006 148.454 88.6479C148.407 88.6952 148.351 88.7328 148.289 88.7584C148.227 88.784 148.161 88.7972 148.094 88.7972Z" fill="white"/>
<path d="M125.156 34.5083C125.156 34.9619 125.022 35.4055 124.77 35.7827C124.517 36.1599 124.159 36.4539 123.74 36.6275C123.321 36.8012 122.86 36.8466 122.415 36.7581C121.97 36.6696 121.561 36.4511 121.24 36.1303C120.919 35.8095 120.701 35.4007 120.612 34.9558C120.524 34.5108 120.569 34.0496 120.743 33.6304C120.917 33.2113 121.211 32.853 121.588 32.6009C121.965 32.3489 122.409 32.2144 122.862 32.2144C123.471 32.2144 124.054 32.456 124.484 32.8862C124.914 33.3164 125.156 33.8999 125.156 34.5083Z" fill="#E0E0E0"/>
<path d="M135.859 33.9985C132.977 34.3384 130.076 34.3384 127.193 33.9985C130.076 33.6587 132.977 33.6587 135.859 33.9985Z" fill="#E0E0E0"/>
<path d="M175.111 72.2302C175.111 72.3675 167.35 72.4851 157.779 72.4851C148.208 72.4851 140.447 72.3675 140.447 72.2302C140.447 72.093 148.2 71.9753 157.779 71.9753C167.358 71.9753 175.111 72.0832 175.111 72.2302Z" fill="#E0E0E0"/>
<path d="M193.198 94.311C193.198 94.311 193.198 94.186 193.198 93.9596C193.198 93.7333 193.198 93.3898 193.198 92.9526C193.198 92.0549 193.198 90.7434 193.198 89.0493C193.198 85.6145 193.198 80.5949 193.151 74.2169C193.151 61.4454 193.096 43.2093 193.065 21.312L193.237 21.4838H117.156L117.36 21.2808C117.36 47.9635 117.36 72.9991 117.36 94.3031L117.18 94.1236L172.26 94.2173L187.756 94.2641H191.853H192.908H191.892H187.826L172.377 94.311L117.18 94.4046H117V94.2251C117 72.921 117 47.8855 117 21.2027V20.9998H117.211H193.291H193.463V21.1715C193.463 43.1157 193.401 61.3908 193.377 74.1857C193.377 80.5558 193.377 85.5598 193.331 89.0181C193.331 90.7121 193.331 92.0158 193.331 92.9214C193.331 93.3507 193.331 93.702 193.331 93.9128C193.331 94.1236 193.198 94.311 193.198 94.311Z" fill="white"/>
<path d="M82.7671 33.9051C83.5428 26.1199 77.8605 19.1799 70.0753 18.4043C62.2901 17.6286 55.3501 23.3109 54.5744 31.0961C53.7987 38.8812 59.4811 45.8212 67.2662 46.5969C75.0514 47.3726 81.9914 41.6903 82.7671 33.9051Z" fill="#F5F5F5"/>
<path d="M69.9823 29.3611H64.2169C63.8566 29.3611 63.5645 29.6532 63.5645 30.0136V35.7789C63.5645 36.1393 63.8566 36.4314 64.2169 36.4314H69.9823C70.3426 36.4314 70.6348 36.1393 70.6348 35.7789V30.0136C70.6348 29.6532 70.3426 29.3611 69.9823 29.3611Z" fill="white"/>
<path d="M71.2773 34.1528V31.7672L73.0615 29.8556C73.1145 29.8 73.1828 29.7614 73.2577 29.7447C73.3327 29.728 73.4109 29.734 73.4825 29.7619C73.554 29.7897 73.6157 29.8382 73.6596 29.9012C73.7036 29.9642 73.7278 30.0388 73.7293 30.1156V35.5496C73.7302 35.625 73.7089 35.699 73.6679 35.7623C73.6269 35.8256 73.5681 35.8753 73.4989 35.9053C73.4297 35.9353 73.3532 35.9441 73.279 35.9307C73.2048 35.9173 73.1362 35.8822 73.0819 35.8299L71.2773 34.1528Z" fill="white"/>
<path d="M45.0498 155.368C44.0601 155.368 43.111 154.975 42.4113 154.275C41.7115 153.575 41.3184 152.626 41.3184 151.636C41.3184 150.647 41.7115 149.698 42.4113 148.998C43.111 148.298 44.0601 147.905 45.0498 147.905C46.0394 147.905 46.9885 148.298 47.6883 148.998C48.388 149.698 48.7812 150.647 48.7812 151.636C48.7812 152.626 48.388 153.575 47.6883 154.275C46.9885 154.975 46.0394 155.368 45.0498 155.368Z" fill="#F5F5F5"/>
<path d="M44.9212 151.662C45.0553 151.619 45.1697 151.529 45.2437 151.409C45.3176 151.289 45.3462 151.147 45.3244 151.007C45.3026 150.868 45.2317 150.741 45.1246 150.65C45.0175 150.558 44.8812 150.508 44.7402 150.508C44.5993 150.508 44.4629 150.558 44.3558 150.65C44.2487 150.741 44.1779 150.868 44.156 151.007C44.1342 151.147 44.1628 151.289 44.2367 151.409C44.3107 151.529 44.425 151.619 44.5592 151.662C44.3152 151.698 44.0924 151.821 43.9321 152.008C43.7718 152.196 43.685 152.435 43.6876 152.681H45.7623C45.766 152.439 45.6834 152.204 45.5293 152.017C45.3752 151.83 45.1596 151.704 44.9212 151.662Z" fill="#E0E0E0"/>
<path d="M46.0847 151.84C46.0617 151.84 46.0397 151.831 46.0234 151.815C46.0072 151.798 45.998 151.776 45.998 151.753V150.8C45.998 150.777 46.0072 150.755 46.0234 150.739C46.0397 150.723 46.0617 150.714 46.0847 150.714C46.1077 150.714 46.1297 150.723 46.146 150.739C46.1622 150.755 46.1714 150.777 46.1714 150.8V151.753C46.1714 151.776 46.1622 151.798 46.146 151.815C46.1297 151.831 46.1077 151.84 46.0847 151.84Z" fill="#E0E0E0"/>
<path d="M46.5593 151.361H45.6316C45.6095 151.361 45.5881 151.353 45.572 151.337C45.5559 151.322 45.5462 151.302 45.5449 151.279C45.5449 151.256 45.5541 151.234 45.5703 151.218C45.5866 151.202 45.6086 151.193 45.6316 151.193H46.5848C46.5964 151.192 46.608 151.194 46.6189 151.198C46.6297 151.202 46.6396 151.208 46.6478 151.217C46.656 151.225 46.6623 151.235 46.6664 151.245C46.6705 151.256 46.6722 151.268 46.6715 151.279C46.6725 151.293 46.67 151.307 46.6642 151.32C46.6583 151.332 46.6494 151.343 46.6381 151.351C46.6269 151.36 46.6138 151.365 46.6 151.366C46.5862 151.368 46.5722 151.366 46.5593 151.361Z" fill="#E0E0E0"/>
<path d="M60.4452 187.388H55.3778L53.498 164.57H59.4657L60.4452 187.388Z" fill="#263238"/>
<path d="M104.375 187.388H109.448L111.328 164.57H105.355L104.375 187.388Z" fill="#263238"/>
<path d="M114.814 200.779L49.5667 202.313L47.5794 160.172C47.5303 159.193 47.6806 158.214 48.021 157.294C48.3615 156.375 48.8851 155.534 49.5601 154.824C50.2351 154.113 51.0474 153.546 51.9478 153.158C52.8482 152.771 53.818 152.57 54.7983 152.568H110.387C111.385 152.563 112.373 152.764 113.289 153.159C114.206 153.554 115.03 154.134 115.712 154.863C116.394 155.592 116.917 156.454 117.25 157.395C117.582 158.336 117.717 159.335 117.645 160.33L114.814 200.779Z" fill="#455A64"/>
<path d="M118.155 160.025H117.969H117.436H115.381L107.817 160.053C101.43 160.053 92.609 159.991 82.8705 160.217C73.1264 160.54 64.2938 160.483 57.9072 160.387C54.7139 160.336 52.1321 160.274 50.3486 160.223L48.2933 160.155L47.7554 160.126H47.5742C47.6362 160.118 47.6991 160.118 47.7611 160.126H48.2933H50.3486L57.9129 160.2C64.2995 160.24 73.1207 160.262 82.8592 159.94C92.609 159.713 101.43 159.821 107.817 159.86L115.381 159.928H117.436H117.969C118.036 159.95 118.099 159.983 118.155 160.025Z" fill="#263238"/>
<path d="M71.3781 153.253C69.9114 153.464 68.4841 153.891 67.143 154.521C65.8468 155.24 64.6623 156.144 63.627 157.205C63.8322 156.812 64.1043 156.458 64.431 156.158C65.9407 154.612 67.9156 153.603 70.0532 153.287C70.4896 153.199 70.9378 153.188 71.3781 153.253Z" fill="#263238"/>
<g opacity="0.3">
<path d="M63.0098 152.568C64.9405 154.725 68.1055 155.67 70.9647 156.106C76.1171 156.893 81.3996 157.312 86.5406 156.435C89.8358 155.869 93.0971 154.781 96.432 155.014C99.7668 155.246 103.272 156.854 106.561 155.92C107.445 155.665 108.269 155.236 108.984 154.659C109.7 154.081 110.293 153.366 110.728 152.556C111 152.041 111.176 151.322 110.728 150.943C110.502 150.75 110.009 151.413 109.715 151.39C94.2578 150.212 78.4781 153.655 63.0098 152.568Z" fill="black"/>
</g>
<g opacity="0.3">
<path d="M102.809 162.72C102.532 164.152 103.228 165.63 104.242 166.683C105.318 167.67 106.524 168.507 107.826 169.169C109.926 170.386 112.016 171.779 113.329 173.817C115.82 177.69 114.898 182.768 115.951 187.247C115.951 187.247 116.834 167.912 116.647 168.398" fill="black"/>
</g>
<path d="M83.1069 34.557C84.2512 35.72 85.0975 37.1424 85.5737 38.7029C86.0499 40.2635 86.1417 41.916 85.8416 43.5198C85.5358 45.0711 84.8904 46.8037 85.768 48.1173C86.6456 49.4308 88.5989 49.6177 89.4426 50.9482C90.4107 52.5166 89.2104 54.5378 89.4029 56.3666C89.5235 57.2243 89.9451 58.0112 90.5922 58.5868C91.2394 59.1624 92.0701 59.4892 92.9359 59.509C90.7319 60.9079 88.1855 61.6738 85.5755 61.7228L83.9109 58.9768C84.5507 59.945 84.1883 61.3265 83.3447 62.1418C82.4602 62.903 81.3713 63.3874 80.2137 63.5346C77.4856 64.0324 74.6795 63.8956 72.0129 63.1346C69.3462 62.3737 66.8905 61.0091 64.8359 59.1466" fill="#263238"/>
<path d="M52.0852 44.918C52.6174 43.7857 53.4044 42.7325 53.8121 41.5209C54.6897 38.9391 53.7498 35.7967 55.3182 33.5942C56.4505 31.9976 58.4832 31.3974 60.4139 31.0464C62.3446 30.6953 64.3772 30.4462 65.8946 29.2572C67.027 28.3796 67.7573 27.0831 68.8784 26.1998C70.4807 24.9485 72.6549 24.7164 74.6818 24.8296C76.7781 24.8771 78.8271 25.4619 80.6325 26.5282C81.5239 27.0702 82.276 27.8133 82.8286 28.6982C83.3811 29.5831 83.7188 30.5851 83.8145 31.6239C83.8598 32.643 83.6163 33.6735 83.8145 34.67C84.041 35.7628 84.7714 36.6856 85.1677 37.7274C85.5605 38.849 85.5696 40.0694 85.1935 41.1967C84.8173 42.324 84.0774 43.2945 83.0898 43.9555L66.7325 60.6185C63.6185 61.3942 56.5411 59.1804 54.5085 56.7118C52.4759 54.2432 50.7377 47.8226 52.0852 44.918Z" fill="#263238"/>
<path d="M82.9713 41.5606C82.875 37.3311 80.2875 32.0372 76.0638 32.3147L62.7923 35.1003C62.1735 35.1425 61.593 35.4145 61.1645 35.8629C60.736 36.3113 60.4907 36.9036 60.4766 37.5236L60.6011 69.2303H60.5105C60.5105 69.2303 63.1207 78.2893 71.9193 75.9339C73.6631 75.4697 74.5294 73.6182 74.9484 71.6988H75.039C75.039 71.4724 75.039 71.2572 75.0786 71.0364C75.3087 69.5992 75.3884 68.1418 75.3164 66.6881C75.4466 64.1346 75.4919 63.0871 75.4919 63.1097C75.4919 63.1324 80.9217 62.4303 82.3202 55.4435C83.0166 52.0124 83.0732 46.2656 82.9713 41.5606Z" fill="#FFBE9D"/>
<path d="M72.1929 47.381C72.1855 47.6158 72.0866 47.8385 71.9174 48.0014C71.7481 48.1643 71.5219 48.2546 71.287 48.253C71.1718 48.2575 71.0569 48.239 70.9489 48.1986C70.841 48.1582 70.7422 48.0966 70.6584 48.0175C70.5746 47.9384 70.5073 47.8434 70.4607 47.738C70.414 47.6326 70.3889 47.5189 70.3867 47.4037C70.3941 47.1684 70.4928 46.9452 70.6619 46.7813C70.831 46.6175 71.0572 46.526 71.2926 46.5261C71.4081 46.5223 71.5231 46.5415 71.6311 46.5826C71.739 46.6237 71.8378 46.6858 71.9215 46.7653C72.0053 46.8449 72.0724 46.9402 72.119 47.0459C72.1656 47.1516 72.1907 47.2656 72.1929 47.381Z" fill="#263238"/>
<path d="M81.4097 47.381C81.4023 47.6158 81.3034 47.8385 81.1342 48.0014C80.9649 48.1643 80.7387 48.2546 80.5038 48.253C80.3886 48.2575 80.2737 48.239 80.1657 48.1986C80.0578 48.1582 79.959 48.0966 79.8752 48.0175C79.7914 47.9384 79.7241 47.8434 79.6775 47.738C79.6308 47.6326 79.6057 47.5189 79.6035 47.4037C79.6109 47.1684 79.7096 46.9452 79.8787 46.7813C80.0478 46.6175 80.274 46.526 80.5094 46.5261C80.6249 46.5223 80.7399 46.5415 80.8479 46.5826C80.9558 46.6237 81.0546 46.6858 81.1383 46.7653C81.2221 46.8449 81.2892 46.9402 81.3358 47.0459C81.3824 47.1516 81.4075 47.2656 81.4097 47.381Z" fill="#263238"/>
<path d="M81.9749 44.635C81.856 44.7879 81.086 44.1594 80.0272 44.1877C78.9685 44.216 78.2154 44.8558 78.0965 44.7086C77.9776 44.5614 78.1475 44.3689 78.4759 44.0745C78.9011 43.699 79.4458 43.4866 80.013 43.4752C80.5802 43.4638 81.133 43.6541 81.573 44.0122C81.907 44.2953 82.0259 44.5671 81.9749 44.635Z" fill="#263238"/>
<path d="M72.1701 44.6124C72.0286 44.7482 71.2812 44.0462 70.1545 43.9726C69.0278 43.899 68.1615 44.4255 68.0483 44.2726C67.935 44.1198 68.1445 43.9442 68.5239 43.7064C69.0251 43.3828 69.6191 43.2334 70.2138 43.2815C70.8085 43.3296 71.3707 43.5725 71.8134 43.9726C72.1418 44.2783 72.2381 44.5501 72.1701 44.6124Z" fill="#263238"/>
<path d="M75.2823 51.6388C75.8012 51.4983 76.3357 51.4241 76.8733 51.418C77.1224 51.418 77.3602 51.3614 77.4055 51.1915C77.4402 50.9361 77.3926 50.6763 77.2696 50.4498C77.0601 49.844 76.845 49.2042 76.6128 48.5361C75.7069 45.8014 75.0558 43.5649 75.169 43.5253C75.2823 43.4857 76.1032 45.6768 77.0148 48.4059C77.23 49.0796 77.4395 49.7194 77.6376 50.3309C77.783 50.6363 77.8151 50.9835 77.7282 51.3104C77.6893 51.3961 77.6314 51.4718 77.5588 51.5317C77.4861 51.5915 77.4008 51.634 77.3092 51.6558C77.1701 51.6882 77.0275 51.7034 76.8846 51.7011C76.3499 51.7437 75.812 51.7227 75.2823 51.6388Z" fill="#263238"/>
<path d="M75.4931 63.1552C72.1786 63.077 68.9507 62.0813 66.168 60.2789C66.168 60.2789 68.2572 65.2048 75.3289 64.8085L75.4931 63.1552Z" fill="#EB996E"/>
<path d="M74.7813 53.9602C74.6059 53.7208 74.3726 53.5298 74.1033 53.405C73.8339 53.2802 73.5374 53.2258 73.2413 53.2468C73.0238 53.2584 72.811 53.3146 72.6161 53.412C72.4213 53.5094 72.2486 53.6459 72.1089 53.813C71.9764 53.9672 71.8935 54.1578 71.8713 54.3599C71.849 54.562 71.8885 54.7661 71.9843 54.9454C72.1332 55.1253 72.3322 55.2568 72.556 55.3234C72.7798 55.3899 73.0183 55.3884 73.2413 55.3191C73.7075 55.1755 74.1406 54.9407 74.5152 54.6283C74.6261 54.5524 74.7236 54.4586 74.804 54.3509C74.8395 54.2972 74.8585 54.2342 74.8585 54.1697C74.8585 54.1053 74.8395 54.0423 74.804 53.9885" fill="#EC6980"/>
<path d="M72.4003 52.1936C72.5588 52.1936 72.5192 53.2467 73.3911 54.0281C74.263 54.8094 75.3897 54.7414 75.3897 54.8887C75.3897 55.0359 75.1293 55.0868 74.6537 55.0812C74.0365 55.063 73.4453 54.8286 72.9834 54.4187C72.5413 54.0242 72.2676 53.4749 72.2191 52.8843C72.1964 52.4427 72.3493 52.1823 72.4003 52.1936Z" fill="#263238"/>
<path d="M72.4632 41.3171C72.3557 41.5776 71.3931 41.4134 70.2494 41.5097C69.1057 41.6059 68.1658 41.872 68.0243 41.6285C67.962 41.5096 68.1319 41.2719 68.5169 41.0284C69.0236 40.73 69.5944 40.5573 70.1815 40.5245C70.7613 40.4776 71.3438 40.5708 71.8801 40.7962C72.3104 40.9774 72.5085 41.1982 72.4632 41.3171Z" fill="#263238"/>
<path d="M81.3592 41.6738C81.1553 41.8833 80.4023 41.6229 79.4794 41.5776C78.5565 41.5323 77.7809 41.6568 77.6053 41.419C77.5317 41.3058 77.6676 41.085 78.013 40.8925C78.4913 40.6537 79.0258 40.55 79.5587 40.5924C80.0884 40.6206 80.5999 40.795 81.0364 41.0963C81.3535 41.3341 81.4498 41.5946 81.3592 41.6738Z" fill="#263238"/>
<path d="M59.8557 35.7742C60.6143 34.8569 61.8317 34.4832 62.9867 34.1888C67.9629 32.9099 73.074 32.2295 78.2115 32.1619C78.7211 33.2942 77.9737 34.6191 76.9319 35.2589C75.8902 35.8987 74.6672 36.0573 73.4499 36.3517C72.2326 36.6461 71.0209 37.1613 70.4208 38.2201C69.8206 39.2789 70.0414 40.8132 69.4582 41.9796C68.4618 43.9782 65.4666 44.3066 64.4814 46.3166C63.7341 47.834 64.4531 49.6232 64.4814 51.3161C64.4993 52.1749 64.3339 53.0277 63.9961 53.8175C63.6584 54.6073 63.156 55.316 62.5227 55.8963C61.8893 56.4766 61.1395 56.9151 60.3232 57.1827C59.507 57.4503 58.643 57.5407 57.7891 57.4479C58.1476 51.4086 58.5062 45.3692 58.8648 39.3298C58.9384 38.0899 59.0517 36.7423 59.8557 35.7742Z" fill="#263238"/>
<path d="M45.9951 49.5214C47.0426 48.7853 48.3165 48.1908 48.8261 47.0188C49.5847 45.3202 48.4071 43.0555 49.5111 41.5721C50.519 40.2019 52.9649 40.5642 53.9218 39.1544C54.6635 38.0504 54.0916 36.935 54.4426 35.9328C54.7937 34.9307 56.3564 34.2003 57.3925 34.4437L64.1868 47.2736C64.4812 51.3445 64.9964 53.5526 63.8641 55.7664C63.2469 56.9894 62.4882 58.1614 62.1655 59.492C61.8428 60.8225 61.9843 62.3852 62.9921 63.3138C58.0549 63.1213 53.7689 60.0185 49.8225 57.0404L45.6441 53.8924C45.174 53.6032 44.7845 53.2001 44.5117 52.7203C43.9908 51.537 44.9477 50.2291 45.9951 49.5214Z" fill="#263238"/>
<path d="M49.8281 55.8117C49.9915 55.8836 50.1624 55.9367 50.3377 55.9703C50.843 56.0834 51.364 56.1083 51.8777 56.0439C52.8354 55.9377 53.7358 55.5345 54.4527 54.8908C55.1695 54.247 55.6669 53.395 55.875 52.4542C56.021 51.8323 56.0422 51.1876 55.9373 50.5575C55.7918 49.8877 55.5576 49.2403 55.2409 48.6324C54.904 48.0059 54.6635 47.3321 54.5275 46.6338C54.454 46.2771 54.4611 45.9084 54.5483 45.5548C54.6355 45.2012 54.8005 44.8715 55.0314 44.5898C55.5466 44.0236 56.3903 44.0237 57.1943 43.7745C57.6412 43.694 58.0467 43.462 58.3427 43.1176C58.6386 42.7732 58.8069 42.3374 58.8192 41.8834C58.9155 40.9832 58.6267 40.1226 58.5588 39.2677C58.5114 38.8452 58.5598 38.4175 58.7003 38.0164C58.858 37.6253 59.1488 37.3024 59.5213 37.1048C60.3267 36.7575 61.2099 36.6305 62.0805 36.7368C62.9742 36.8085 63.8717 36.6547 64.6906 36.2895C65.4778 35.9224 66.1494 35.3467 66.6326 34.6249C67.0515 33.9209 67.3608 33.1572 67.5499 32.3601C67.7214 31.6216 67.9681 30.9026 68.2859 30.2143C68.6167 29.5875 69.0805 29.0407 69.6448 28.612C70.5766 27.9001 71.7106 27.5027 72.8829 27.4773C74.0553 27.4518 75.2054 27.7996 76.1673 28.4704C76.8274 28.916 77.4026 29.4758 77.8658 30.1237C78.2569 30.6885 78.5818 31.2964 78.834 31.9355C78.8313 31.8885 78.8197 31.8424 78.8001 31.7996C78.7718 31.7147 78.7435 31.5845 78.6755 31.4203C78.4907 30.9403 78.2493 30.4841 77.9564 30.0614C77.4977 29.3892 76.9224 28.8043 76.2579 28.3345C75.2688 27.6265 74.0791 27.2534 72.8628 27.2697C71.6465 27.286 70.4673 27.6908 69.4976 28.4251C68.9032 28.8814 68.4146 29.4609 68.0651 30.1237C67.7321 30.825 67.474 31.5594 67.2951 32.3148C67.1126 33.0864 66.8128 33.8254 66.4062 34.506C65.9478 35.1859 65.3112 35.7265 64.5661 36.0687C63.7874 36.4134 62.9348 36.5574 62.0861 36.4877C61.1661 36.3735 60.2323 36.5125 59.3854 36.8897C58.9521 37.115 58.6145 37.4889 58.4342 37.9428C58.2789 38.3857 58.2247 38.8577 58.2757 39.3243C58.4425 40.1692 58.5296 41.0279 58.5361 41.8891C58.513 42.2853 58.3687 42.6647 58.1228 42.9762C57.8515 43.2591 57.503 43.456 57.1207 43.5424C56.7356 43.65 56.328 43.7122 55.9317 43.8255C55.5199 43.9264 55.1426 44.1356 54.8389 44.4313C54.5822 44.743 54.3982 45.108 54.3002 45.4998C54.2023 45.8916 54.1929 46.3002 54.2727 46.6961C54.423 47.4176 54.6766 48.1136 55.0257 48.7627C55.3363 49.3508 55.5685 49.977 55.7165 50.6254C55.8229 51.2261 55.8094 51.8418 55.6769 52.4372C55.4531 53.4717 54.8742 54.3952 54.0406 55.0474C53.4059 55.5362 52.6544 55.8504 51.8607 55.9589C51.18 56.0401 50.49 55.9901 49.8281 55.8117Z" fill="#455A64"/>
<path d="M44.2901 46.6054C44.1931 46.717 44.1216 46.8484 44.0806 46.9904C43.9533 47.3965 43.9774 47.835 44.1485 48.2247C44.2751 48.5121 44.4694 48.7646 44.7147 48.9607C45.0083 49.1869 45.3594 49.3261 45.7282 49.3627C46.1791 49.4029 46.6324 49.3185 47.0388 49.1189C47.4451 48.9192 47.7888 48.6119 48.0326 48.2304C48.3207 47.7938 48.5012 47.2951 48.5591 46.7753C48.6092 46.2195 48.5574 45.6592 48.4062 45.122C48.1401 43.9896 47.557 42.8969 47.6872 41.6626C47.6978 41.3549 47.7711 41.0526 47.9025 40.7742C48.034 40.4957 48.2208 40.247 48.4516 40.0433C48.9982 39.6918 49.6606 39.5678 50.2973 39.6979C51.0052 39.8352 51.7319 39.8448 52.4432 39.7262C52.8205 39.623 53.1555 39.403 53.4 39.0977C53.6362 38.79 53.8024 38.4345 53.887 38.0559C54.0057 37.3299 54.0324 36.5918 53.9662 35.8591C53.9377 35.1754 54.0575 34.4936 54.3173 33.8605C54.8144 32.6514 55.754 31.6774 56.9444 31.1371C58.0585 30.7272 59.2565 30.5989 60.4321 30.7634C61.4835 30.884 62.5472 30.842 63.5858 30.6388C64.4393 30.4243 65.2406 30.0391 65.9412 29.5065C66.4704 29.1095 66.9379 28.6364 67.3283 28.1023C67.669 27.657 67.9278 27.1547 68.0927 26.6189C67.8502 27.1151 67.5641 27.5888 67.2377 28.0344C66.8417 28.5474 66.3724 28.9996 65.8449 29.3762C65.1537 29.8757 64.3705 30.2336 63.5405 30.4294C62.5186 30.6162 61.4741 30.6449 60.4435 30.5143C59.2293 30.3374 57.9902 30.4639 56.8368 30.8823C55.5773 31.443 54.5819 32.4668 54.0568 33.7416C53.7828 34.4109 53.6535 35.1306 53.6775 35.8535C53.7441 36.5633 53.7194 37.2788 53.6039 37.9823C53.5525 38.3167 53.4094 38.6302 53.1905 38.8881C52.9716 39.146 52.6855 39.3381 52.3639 39.4431C51.6874 39.5485 50.9976 39.5351 50.3256 39.4035C49.6165 39.2702 48.8833 39.4185 48.2817 39.8168C48.0248 40.045 47.8163 40.3225 47.6684 40.6327C47.5206 40.9429 47.4365 41.2796 47.4211 41.6229C47.3747 42.2591 47.4555 42.8981 47.6589 43.5027C47.8287 44.0689 48.0326 44.6351 48.1741 45.1673C48.322 45.678 48.3776 46.211 48.3383 46.7413C48.2879 47.2269 48.1251 47.6941 47.8627 48.1058C47.6418 48.4604 47.327 48.7471 46.9533 48.9339C46.5796 49.1208 46.1614 49.2006 45.7452 49.1646C45.4037 49.1411 45.0758 49.0213 44.7996 48.8192C44.5717 48.6396 44.3894 48.4087 44.2674 48.1454C44.0976 47.779 44.0577 47.3656 44.1542 46.9734C44.2108 46.7356 44.307 46.6167 44.2901 46.6054Z" fill="#263238"/>
<path d="M95.5637 55.6021C95.6542 56.0355 95.5943 56.4869 95.3938 56.8817C95.2843 57.108 95.1259 57.3071 94.9301 57.4647C94.7343 57.6224 94.5059 57.7346 94.2615 57.7933C93.9352 57.8478 93.6001 57.8111 93.2934 57.6872C92.9867 57.5633 92.7201 57.357 92.5233 57.0912C92.2988 56.7795 92.1925 56.3983 92.2232 56.0154C92.2575 55.5924 92.3708 55.1795 92.5572 54.7981C92.9139 53.9998 93.548 53.1618 93.5933 52.0691C93.6241 51.5176 93.5393 50.9658 93.3443 50.449C93.1493 49.9322 92.8484 49.4619 92.461 49.0683C92.0497 48.6553 91.5661 48.3214 91.0342 48.0831C90.4893 47.8611 89.9186 47.7089 89.3356 47.6302C88.7681 47.5571 88.2088 47.4301 87.6653 47.2508C87.155 47.0816 86.7215 46.7364 86.4424 46.277C86.2046 45.8144 86.0988 45.2953 86.1366 44.7766C86.1684 44.2665 86.2713 43.7634 86.4424 43.2818C86.8202 42.3749 87.0808 41.4236 87.2181 40.4509C87.2705 39.5835 87.0635 38.7203 86.6235 37.971C86.2442 37.3742 85.7564 36.8537 85.1854 36.4366C84.7709 36.1191 84.3793 35.7729 84.0134 35.4004C83.7131 35.0725 83.482 34.6874 83.334 34.2681C83.334 34.2681 83.334 34.2681 83.334 34.353C83.3495 34.4397 83.3723 34.5249 83.4019 34.6078C83.5201 34.9235 83.6947 35.2151 83.9172 35.4684C84.2662 35.8558 84.6448 36.2154 85.0495 36.5442C85.5935 36.9621 86.056 37.4764 86.4141 38.0615C86.8202 38.7789 87.0053 39.6003 86.9463 40.4225C86.7967 41.3672 86.5304 42.2895 86.1536 43.1686C85.9752 43.6723 85.8666 44.1981 85.8309 44.7313C85.7821 45.3048 85.8979 45.8803 86.1649 46.3902C86.4754 46.9076 86.9587 47.2986 87.5295 47.4943C88.0826 47.6759 88.6511 47.8066 89.228 47.8849C89.7934 47.9571 90.3472 48.1017 90.8756 48.3152C91.3786 48.5358 91.8357 48.8489 92.2232 49.2381C92.589 49.6021 92.875 50.0383 93.0631 50.5189C93.2513 50.9994 93.3374 51.5138 93.3159 52.0294C93.2876 53.0259 92.6931 53.8356 92.3194 54.6736C92.1292 55.0855 92.016 55.5288 91.9854 55.9815C91.9603 56.411 92.0865 56.8357 92.3421 57.1818C92.5622 57.4752 92.8608 57.7005 93.2033 57.8317C93.5459 57.963 93.9186 57.9948 94.2784 57.9235C94.5432 57.8552 94.7891 57.7282 94.9979 57.5517C95.2067 57.3753 95.373 57.154 95.4844 56.9043C95.6303 56.5958 95.6871 56.2526 95.6486 55.9135C95.6367 55.8059 95.6081 55.7008 95.5637 55.6021Z" fill="#263238"/>
<path d="M120.681 117.945L118.212 114.163L114.192 112.148L114.045 112.04C113.399 111.573 112.658 111.255 111.875 111.108C111.092 110.961 110.286 110.99 109.515 111.191C107.885 111.627 105.699 112.17 103.808 112.493L99.4824 111.31V119.729L121.286 118.353L120.681 117.945Z" fill="#FFBE9D"/>
<path d="M120.531 117.713C120.253 117.403 119.944 117.122 119.609 116.875C119.042 116.383 118.193 115.743 117.27 114.99L116.404 114.322H116.37C115.475 114.152 114.7 114.016 114.145 113.931C113.854 113.861 113.555 113.831 113.256 113.841C113.531 113.962 113.82 114.047 114.116 114.095C114.683 114.226 115.43 114.395 116.319 114.577L116.268 114.548L117.078 115.199C118.001 115.924 118.85 116.564 119.467 117.017C119.792 117.292 120.149 117.525 120.531 117.713Z" fill="#EB996E"/>
<path d="M118.834 118.449C117.835 117.745 116.786 117.113 115.697 116.558L114.933 116.139H114.905C113.977 116.05 113.043 116.034 112.113 116.094C113.028 116.272 113.956 116.376 114.888 116.405H114.831L115.595 116.83C116.633 117.45 117.715 117.992 118.834 118.449Z" fill="#EB996E"/>
<path d="M146.056 94.0804C145.703 93.8827 145.289 93.8208 144.893 93.9062C144.497 93.9917 144.145 94.2187 143.905 94.5447L126.353 118.325L98.57 118.698C97.4376 118.766 96.1127 121.008 97.1092 122.096L128.482 121.665L146.6 96.4981C146.737 96.3082 146.833 96.0913 146.88 95.8618C146.927 95.6323 146.925 95.3953 146.873 95.1667C146.822 94.9381 146.722 94.723 146.582 94.5358C146.441 94.3485 146.262 94.1933 146.056 94.0804Z" fill="#E0E0E0"/>
<path d="M146.055 94.0804C146.103 94.1038 146.151 94.1303 146.196 94.1597C146.328 94.2438 146.444 94.349 146.541 94.4711C146.739 94.7095 146.868 94.9975 146.914 95.3039C146.96 95.6102 146.921 95.9233 146.802 96.2093C146.579 96.6023 146.332 96.9805 146.06 97.3416L145.132 98.6439L142.839 101.866L128.582 121.761L128.548 121.818H128.48L97.6793 122.254H97.1131H97.0508L97.0055 122.203C96.8701 122.049 96.7664 121.869 96.7004 121.675C96.6343 121.481 96.6072 121.275 96.6205 121.071C96.6367 120.677 96.7371 120.29 96.9149 119.938C97.0839 119.595 97.312 119.285 97.5887 119.021C97.865 118.73 98.2412 118.554 98.6418 118.528L102.933 118.472L111.228 118.364L126.351 118.172L126.249 118.223C131.962 110.528 136.724 104.113 140.059 99.6121L143.948 94.4144C144.138 94.1941 144.382 94.0263 144.656 93.9272C144.929 93.828 145.224 93.8008 145.511 93.8483C145.714 93.8708 145.908 93.9428 146.077 94.0577C145.896 93.9793 145.706 93.9223 145.511 93.8879C145.234 93.846 144.951 93.8761 144.689 93.9753C144.428 94.0744 144.196 94.2393 144.016 94.4541L140.183 99.6913L126.464 118.376L126.425 118.427H126.362L111.24 118.647L102.95 118.761L98.6588 118.823C98.3293 118.844 98.021 118.993 97.7982 119.236C97.5458 119.474 97.3386 119.756 97.1867 120.069C97.0026 120.353 96.908 120.687 96.9151 121.026C96.9222 121.365 97.0306 121.694 97.2263 121.971L97.1187 121.926H97.6849L128.486 121.524L128.384 121.575C134.3 113.399 139.249 106.554 142.725 101.758C143.592 100.563 144.373 99.4932 145.047 98.5589L145.992 97.268C146.264 96.9217 146.514 96.5586 146.74 96.181C146.863 95.9053 146.908 95.6011 146.87 95.3015C146.832 95.002 146.713 94.7186 146.524 94.4824C146.388 94.3268 146.229 94.1914 146.055 94.0804Z" fill="#263238"/>
<path d="M61.9057 66.5466C60.1727 66.813 58.552 67.5694 57.2347 68.7265C55.5342 70.4516 54.2553 72.5462 53.4978 74.847C52.5693 77.627 52.9882 88.6054 52.9882 91.7874C52.9882 94.9694 53.7922 106.91 54.1942 108.898C54.5962 110.885 53.9338 113.84 53.0165 115.76C51.3633 119.208 53.9394 120.974 53.9394 120.974L88.0297 120.72L87.8939 119.451C87.6561 117.232 88.46 114.979 87.6391 112.918C86.3878 109.897 85.8511 106.628 86.0707 103.366C86.5067 97.7041 88.2052 93.8087 87.1578 90.5135C85.5725 85.4857 80.3239 74.0543 73.9769 69.1738C73.9769 69.1738 68.9774 68.1037 67.8451 67.7073C65.2689 66.8071 63.91 66.3202 61.9057 66.5466Z" fill="#EC6980"/>
<path d="M101.981 110.33L72.8617 104.249L72.1087 78.9633C72.1087 78.9633 71.0896 68.6643 65.9259 67.7074L53.498 83.1814C54.1888 90.9778 53.5603 105.733 57.1443 111.429C60.7283 117.124 64.2104 121.677 73.0373 121.275C81.8642 120.873 101.313 120.68 101.313 120.68L101.981 110.33Z" fill="#EC6980"/>
<path d="M72.9171 104.351C72.9851 104.402 72.2887 105.314 71.6998 106.616C71.111 107.918 70.8506 108.999 70.7656 108.983C70.7937 108.112 71.0223 107.259 71.4337 106.491C71.7501 105.67 72.2587 104.936 72.9171 104.351Z" fill="#263238"/>
<g opacity="0.3">
<path d="M71.9023 77.8873C74.8126 86.8217 74.1671 100.603 79.7271 105.687L72.8592 104.249C72.9886 102.635 73.0075 101.014 72.9158 99.3968C72.3496 92.3308 72.2874 85.1401 71.9023 77.8816" fill="black"/>
</g>
<path d="M71.2582 74.694C71.4723 75.3596 71.6425 76.0386 71.7678 76.7266C71.9321 77.5537 72.0512 78.3891 72.1245 79.2291C72.2207 80.22 72.2377 81.3693 72.283 82.6546C72.4472 87.8183 72.685 95.2184 72.9738 104.249L72.8832 104.136L102.014 110.188L102.133 110.217V110.341C101.917 113.654 101.691 117.136 101.464 120.691V120.827H101.329L97.7899 120.867C92.7281 120.935 87.7853 121.008 83.0123 121.11C80.6267 121.159 78.2865 121.222 75.9915 121.297C73.7268 121.359 71.462 121.574 69.2426 121.229C68.1584 121.077 67.0948 120.804 66.0719 120.414C65.0848 120.015 64.1479 119.502 63.2806 118.885C61.6546 117.665 60.236 116.191 59.0794 114.52C58.5133 113.721 57.9471 112.929 57.4658 112.13L57.0921 111.536C56.9732 111.338 56.8656 111.123 56.7581 110.919C56.6505 110.715 56.5373 110.505 56.4297 110.302C56.3221 110.098 56.2598 109.877 56.1806 109.662C55.5669 108.03 55.1303 106.337 54.8783 104.611C54.4276 101.655 54.1422 98.6763 54.0234 95.6883C53.8932 93.0555 53.8365 90.7907 53.7686 88.9336C53.7006 87.0765 53.644 85.6441 53.5931 84.6702C53.5931 84.189 53.5421 83.8209 53.5251 83.5379C53.5081 83.2548 53.5251 83.1585 53.5251 83.1585C53.5251 83.1585 53.5251 83.2831 53.5704 83.5322C53.6157 83.7813 53.6214 84.1607 53.6667 84.6646C53.7346 85.6384 53.8195 87.0765 53.8988 88.9336C53.9781 90.7907 54.0573 93.0498 54.1989 95.6826C54.3317 98.66 54.6304 101.628 55.0935 104.572C55.3501 106.282 55.7886 107.96 56.4014 109.577L56.6505 110.205L56.9732 110.806C57.0808 111.009 57.1827 111.213 57.3016 111.411L57.681 112.006C58.1849 112.799 58.7227 113.586 59.2889 114.378C60.4338 116.023 61.835 117.474 63.4391 118.676C64.2917 119.28 65.2136 119.78 66.1851 120.165C67.1887 120.544 68.2312 120.812 69.2935 120.963C71.445 121.297 73.6928 121.082 75.9915 121.02C78.2903 120.957 80.6286 120.878 83.018 120.821C87.7909 120.714 92.7338 120.635 97.7955 120.572L101.34 120.533L101.193 120.674C101.425 117.119 101.651 113.637 101.866 110.324L101.98 110.472L72.8605 104.368H72.7699V104.277C72.5208 95.2183 72.317 87.8579 72.1754 82.6829C72.1415 81.392 72.1358 80.2483 72.0509 79.2575C71.9865 78.4201 71.8788 77.5867 71.7281 76.7606C71.6092 76.0868 71.4903 75.5772 71.4111 75.2375C71.3714 75.0733 71.3375 74.9431 71.3148 74.8525C71.2925 74.8009 71.2736 74.748 71.2582 74.694Z" fill="#263238"/>
<path d="M118.007 172.39L113.682 204.25L124.994 206.101L133.045 177.837L118.007 172.39Z" fill="#FFBE9D"/>
<path d="M83.7109 123.443C83.7109 123.443 131.962 118.851 135.54 122.135C139.118 125.419 142.096 132.564 140.907 134.948C139.718 137.332 137.029 145.383 137.029 145.383L114.817 140.316L83.7109 123.443Z" fill="#263238"/>
<path d="M114.801 145.383L105.85 159.045L116.386 165.868L127.812 148.35L114.801 145.383Z" fill="#FFBE9D"/>
<path d="M54.7556 120.941C54.7556 120.941 50.5828 140.015 57.4394 147.767C64.2959 155.518 74.4251 155.518 84.8656 154.029C95.3062 152.54 120.066 152.002 120.066 152.002C120.066 152.002 118.962 158.796 118.152 166.485C117.342 174.174 117.178 179.066 117.178 179.066L132.68 180.357C132.68 180.357 141.32 154.063 142.651 148.854C143.982 143.645 143.529 136.652 138.937 134.059C135.041 131.857 104.331 123.341 89.6273 122.079L88.0306 120.703L54.7556 120.941Z" fill="#263238"/>
<path d="M127.649 145.689C127.649 145.74 127.043 145.825 126.125 146.159C125.588 146.352 125.069 146.592 124.574 146.878C123.969 147.23 123.4 147.642 122.876 148.106C122.361 148.578 121.893 149.097 121.477 149.658C121.145 150.122 120.853 150.615 120.605 151.13C120.18 152.007 120.039 152.608 119.982 152.591C119.926 152.574 119.982 152.438 120.045 152.16C120.13 151.772 120.253 151.392 120.413 151.028C120.642 150.49 120.925 149.976 121.256 149.493C121.669 148.903 122.145 148.36 122.677 147.874C123.216 147.397 123.804 146.979 124.433 146.629C124.946 146.347 125.486 146.119 126.046 145.949C126.415 145.83 126.794 145.744 127.179 145.694C127.333 145.662 127.493 145.66 127.649 145.689Z" fill="#455A64"/>
<path d="M125.805 129.807C126.212 128.668 126.904 127.653 127.815 126.857C127.561 127.398 127.242 127.906 126.863 128.369C126.57 128.889 126.214 129.372 125.805 129.807Z" fill="#455A64"/>
<path d="M143.301 141.55C143.301 141.55 143.301 141.505 143.255 141.403L143.148 140.961C143.057 140.576 142.916 140.004 142.684 139.262C142.398 138.39 142.018 137.551 141.551 136.76C140.979 135.697 140.112 134.822 139.054 134.24C136.151 132.978 133.164 131.917 130.114 131.064C126.689 130.039 122.907 128.952 118.915 127.899C110.926 125.776 103.6 124.258 98.2604 123.369C95.5936 122.917 93.4251 122.611 91.9247 122.401L90.1978 122.164C90.011 122.164 89.8638 122.118 89.7505 122.096L89.5977 122.067H89.7505L90.2035 122.107L91.936 122.288C93.4421 122.464 95.6163 122.735 98.2943 123.166C105.273 124.313 112.189 125.811 119.017 127.656C123.014 128.714 126.796 129.813 130.222 130.849C133.275 131.71 136.263 132.789 139.162 134.076C140.249 134.682 141.135 135.593 141.71 136.698C142.164 137.505 142.523 138.361 142.78 139.251C142.995 139.982 143.125 140.559 143.199 140.95C143.227 141.131 143.255 141.278 143.272 141.397C143.289 141.446 143.299 141.498 143.301 141.55Z" fill="#455A64"/>
<path d="M125.874 205.274L126.253 203.893C121.619 203.499 117.238 201.611 113.769 198.514L109.936 206.797L135.499 218.166C136.462 215.721 125.874 205.274 125.874 205.274Z" fill="#EC6980"/>
<path d="M109.936 206.798L110.87 204.776L135.08 216.451C135.08 216.451 135.992 217.442 135.499 218.15L109.936 206.798Z" fill="#E0E0E0"/>
<path d="M125.532 205.116C125.47 205.235 124.824 205.014 124.026 205.116C123.228 205.218 122.661 205.597 122.571 205.495C122.48 205.393 122.99 204.782 123.958 204.652C124.926 204.521 125.611 205.014 125.532 205.116Z" fill="#263238"/>
<path d="M115.585 204.227C115.499 204.4 115.348 204.533 115.165 204.596C114.982 204.66 114.781 204.649 114.606 204.567C114.519 204.528 114.44 204.473 114.375 204.403C114.31 204.334 114.26 204.252 114.227 204.163C114.194 204.074 114.18 203.979 114.184 203.884C114.189 203.789 114.213 203.695 114.255 203.61C114.343 203.437 114.496 203.305 114.679 203.242C114.863 203.179 115.064 203.189 115.24 203.27C115.327 203.308 115.405 203.364 115.47 203.434C115.535 203.503 115.585 203.585 115.618 203.675C115.65 203.764 115.664 203.859 115.658 203.954C115.653 204.049 115.628 204.142 115.585 204.227Z" fill="#E0E0E0"/>
<path d="M125.379 204.946C125.185 204.945 124.993 204.909 124.812 204.839C124.271 204.723 123.771 204.465 123.363 204.091C123.232 203.96 123.12 203.811 123.029 203.65C122.915 203.48 122.842 203.286 122.814 203.083C122.805 202.949 122.84 202.815 122.912 202.701C122.984 202.587 123.09 202.499 123.216 202.449C123.341 202.403 123.474 202.382 123.607 202.388C123.74 202.393 123.871 202.426 123.991 202.483C124.459 202.714 124.854 203.069 125.133 203.509C125.412 203.95 125.563 204.459 125.571 204.98L125.197 204.923C125.259 204.726 125.343 204.536 125.447 204.357C125.728 203.873 126.134 203.473 126.621 203.198C127.109 202.922 127.661 202.781 128.221 202.789C128.367 202.786 128.512 202.815 128.645 202.874C128.719 202.912 128.784 202.965 128.835 203.031C128.886 203.096 128.922 203.172 128.94 203.253C128.959 203.382 128.952 203.514 128.92 203.64C128.888 203.766 128.831 203.885 128.753 203.989C128.507 204.339 128.168 204.612 127.774 204.776C127.216 204.995 126.616 205.084 126.018 205.037C125.804 205.048 125.589 205.031 125.379 204.986C125.583 204.919 125.797 204.886 126.013 204.889C126.578 204.883 127.136 204.764 127.655 204.538C127.99 204.381 128.276 204.134 128.481 203.825C128.585 203.681 128.629 203.503 128.606 203.327C128.572 203.18 128.453 203.134 128.215 203.134C127.723 203.137 127.24 203.268 126.815 203.514C126.389 203.761 126.034 204.114 125.786 204.538C125.694 204.698 125.62 204.867 125.565 205.042C125.547 205.09 125.513 205.129 125.468 205.152C125.423 205.175 125.371 205.18 125.322 205.167C125.284 205.154 125.25 205.13 125.226 205.098C125.201 205.065 125.187 205.026 125.186 204.986C125.177 204.535 125.048 204.095 124.812 203.711C124.576 203.327 124.242 203.012 123.844 202.8C123.499 202.613 123.097 202.8 123.125 203.072C123.182 203.399 123.334 203.702 123.561 203.944C123.921 204.309 124.361 204.584 124.846 204.748C125.032 204.789 125.211 204.856 125.379 204.946Z" fill="#263238"/>
<path d="M127.496 206.888C126.927 206.877 126.359 206.917 125.797 207.007C125.259 207.187 124.74 207.418 124.246 207.698C124.41 207.441 124.626 207.221 124.881 207.053C125.136 206.885 125.423 206.773 125.724 206.724C126.014 206.626 126.322 206.59 126.627 206.618C126.933 206.646 127.229 206.738 127.496 206.888Z" fill="#263238"/>
<path d="M128.92 208.513C128.92 208.598 128.223 208.575 127.425 208.819C126.627 209.062 126.055 209.447 126.004 209.385C126.363 208.986 126.825 208.694 127.34 208.542C127.854 208.389 128.401 208.381 128.92 208.519V208.513Z" fill="#263238"/>
<path d="M118.392 164.327L118.992 163.031C114.492 161.861 110.492 159.262 107.595 155.625L102.42 163.15L125.702 178.652C127.066 176.41 118.392 164.327 118.392 164.327Z" fill="#EC6980"/>
<path d="M102.42 163.15L103.683 161.31L125.571 176.914C125.571 176.914 126.302 178.046 125.69 178.669L102.42 163.15Z" fill="#E0E0E0"/>
<path d="M118.081 164.112C118.002 164.22 117.396 163.891 116.592 163.874C115.788 163.858 115.166 164.124 115.092 164.01C115.018 163.897 115.63 163.371 116.604 163.41C117.578 163.45 118.178 164.027 118.081 164.112Z" fill="#263238"/>
<path d="M108.427 161.565C108.311 161.721 108.138 161.825 107.946 161.857C107.754 161.889 107.557 161.845 107.397 161.734C107.318 161.681 107.251 161.613 107.2 161.533C107.148 161.453 107.113 161.364 107.097 161.271C107.08 161.177 107.083 161.081 107.104 160.989C107.126 160.896 107.165 160.809 107.221 160.732C107.336 160.575 107.507 160.47 107.699 160.438C107.891 160.406 108.087 160.451 108.246 160.562C108.325 160.615 108.393 160.683 108.445 160.763C108.497 160.842 108.532 160.931 108.549 161.025C108.566 161.119 108.564 161.215 108.543 161.307C108.522 161.4 108.483 161.487 108.427 161.565Z" fill="#E0E0E0"/>
<path d="M117.957 163.92C117.757 163.892 117.565 163.824 117.391 163.722C116.883 163.507 116.44 163.164 116.106 162.725C115.999 162.572 115.911 162.407 115.845 162.233C115.76 162.039 115.723 161.827 115.738 161.616C115.748 161.48 115.802 161.352 115.892 161.249C115.982 161.147 116.103 161.077 116.236 161.049C116.367 161.025 116.501 161.027 116.632 161.056C116.762 161.084 116.885 161.137 116.994 161.214C117.413 161.523 117.74 161.94 117.94 162.421C118.139 162.902 118.204 163.428 118.127 163.943L117.764 163.824C117.861 163.638 117.977 163.464 118.11 163.303C118.468 162.873 118.935 162.546 119.461 162.356C119.987 162.166 120.555 162.12 121.105 162.221C121.251 162.243 121.39 162.298 121.513 162.38C121.58 162.428 121.634 162.49 121.673 162.563C121.711 162.636 121.732 162.717 121.733 162.799C121.732 162.93 121.705 163.059 121.652 163.179C121.6 163.298 121.523 163.406 121.428 163.495C121.128 163.798 120.749 164.01 120.335 164.107C119.747 164.227 119.14 164.215 118.557 164.073C118.343 164.048 118.133 163.993 117.934 163.909C118.148 163.876 118.366 163.876 118.58 163.909C119.145 163.996 119.723 163.971 120.278 163.835C120.635 163.735 120.958 163.539 121.213 163.269C121.338 163.143 121.412 162.976 121.422 162.799C121.422 162.652 121.303 162.584 121.065 162.55C120.58 162.469 120.081 162.517 119.62 162.687C119.158 162.858 118.749 163.146 118.433 163.524C118.316 163.663 118.216 163.815 118.132 163.977C118.112 164.017 118.078 164.049 118.036 164.067C117.994 164.084 117.947 164.087 117.903 164.073C117.86 164.06 117.823 164.031 117.798 163.993C117.774 163.954 117.764 163.908 117.77 163.863C117.835 163.417 117.782 162.962 117.615 162.544C117.448 162.125 117.173 161.758 116.819 161.48C116.508 161.236 116.083 161.327 116.06 161.627C116.065 161.959 116.163 162.282 116.343 162.561C116.637 162.981 117.024 163.326 117.476 163.569C117.793 163.79 117.974 163.892 117.957 163.92Z" fill="#263238"/>
<path d="M119.717 166.196C119.158 166.086 118.589 166.03 118.019 166.026C117.461 166.118 116.912 166.256 116.377 166.439C116.582 166.215 116.833 166.036 117.111 165.914C117.39 165.792 117.692 165.73 117.996 165.732C118.3 165.68 118.611 165.695 118.908 165.775C119.205 165.855 119.481 165.999 119.717 166.196Z" fill="#263238"/>
<path d="M120.851 168.03C120.851 168.115 120.149 167.98 119.323 168.081C118.496 168.183 117.868 168.472 117.822 168.393C118.247 168.064 118.753 167.856 119.287 167.792C119.82 167.729 120.361 167.811 120.851 168.03Z" fill="#263238"/>
<path d="M206.549 201.455C206.549 201.532 161.428 201.588 105.78 201.588C50.1328 201.588 5 201.532 5 201.455C5 201.379 50.1122 201.323 105.78 201.323C161.449 201.323 206.549 201.384 206.549 201.455Z" fill="#263238"/>
</svg>
