<svg width="247" height="191" viewBox="0 0 247 191" fill="none" xmlns="http://www.w3.org/2000/svg">
<path d="M228.337 43.6206L227.611 41.5008C221.532 23.4817 206.157 9.89319 187.375 6.79815C184.957 6.39193 182.513 6.16519 180.062 6.11978C162.408 5.8071 144.871 15.0127 135.099 29.7195C129.354 38.358 125.877 49.0476 117.345 54.9886C106.279 62.7474 91.2328 59.6152 78.1584 56.181C65.084 52.7468 50.0221 49.657 38.9934 57.4582C32.1038 62.3446 28.3251 70.7076 26.8729 79.0281C23.0624 101.107 33.9428 124.145 51.2888 138.332C68.6348 152.519 91.4766 158.683 113.873 159.34C145.253 160.262 177.555 150.421 200.529 129.026C223.503 107.631 235.772 74.1153 228.337 43.6206Z" fill="#FFE7EC"/>
<path d="M165.357 111.281C174.155 111.281 182.594 114.776 188.816 120.996C195.039 127.217 198.536 135.654 198.538 144.452V182.928H132.175V144.452C132.178 135.654 135.675 127.217 141.898 120.996C148.12 114.776 156.558 111.281 165.357 111.281Z" fill="#455A64"/>
<path d="M81.335 164.273L77.9962 166.637L74.2864 175.546C74.2864 175.546 75.2933 176.224 76.0724 175.503C76.8514 174.783 79.8299 169.605 79.8299 169.605V172.668C79.8337 173.269 80.0574 173.847 80.4587 174.295C80.86 174.742 81.4112 175.027 82.0081 175.095L87.5092 176.812L94.261 174.889L94.8387 166.854L81.335 164.273Z" fill="#FFBE9D"/>
<path d="M141.323 105.038C139.669 104.561 138.858 102.669 138.71 100.957C138.561 99.2456 138.842 97.4755 138.376 95.8219C138.042 94.6454 137.343 93.5643 137.252 92.3453C137.157 91.031 137.782 89.7644 137.825 88.45C137.872 86.611 136.765 84.9045 136.765 83.0655C136.728 80.5216 137.184 76.319 139.727 76.4621C142.271 76.6051 146.347 81.0622 146.023 83.5849" fill="#263238"/>
<path d="M165.357 83.9769L165.304 86.5208L164.774 124.552C164.716 128.966 160.873 132.432 156.146 132.332C151.376 132.231 147.492 128.537 147.481 124.075C147.481 119.39 147.364 114.461 147.364 114.461C147.364 114.461 141.333 113.459 140.083 105.589C139.462 101.678 139.659 95.26 139.987 90.0133C140.057 88.8941 140.353 87.8007 140.857 86.7989C141.361 85.797 142.062 84.9075 142.919 84.1836C143.775 83.4598 144.769 82.9167 145.841 82.587C146.913 82.2573 148.04 82.1478 149.156 82.2651L165.357 83.9769Z" fill="#FFBE9D"/>
<path d="M141.619 94.4812C141.618 94.7448 141.719 94.9987 141.9 95.1895C142.082 95.3803 142.331 95.4931 142.595 95.5041C142.725 95.5171 142.856 95.5036 142.981 95.4644C143.105 95.4251 143.221 95.3609 143.32 95.2757C143.419 95.1904 143.5 95.0859 143.557 94.9684C143.615 94.851 143.648 94.7231 143.654 94.5925C143.657 94.4605 143.633 94.3294 143.584 94.2067C143.535 94.0841 143.463 93.9722 143.371 93.8777C143.278 93.7831 143.169 93.7077 143.047 93.6557C142.926 93.6038 142.795 93.5763 142.663 93.5749C142.535 93.5641 142.406 93.5791 142.283 93.6191C142.161 93.6591 142.047 93.7232 141.95 93.8077C141.853 93.8921 141.773 93.9953 141.717 94.111C141.66 94.2266 141.627 94.3525 141.619 94.4812Z" fill="#263238"/>
<path d="M141.402 93.3522C141.524 93.4847 142.292 92.9176 143.379 92.9229C144.465 92.9282 145.26 93.4529 145.377 93.3363C145.493 93.2197 145.308 93.0395 144.958 92.8063C144.49 92.4846 143.936 92.3127 143.368 92.3135C142.795 92.3135 142.237 92.4994 141.778 92.8435C141.455 93.0448 141.338 93.2939 141.402 93.3522Z" fill="#263238"/>
<path d="M152.495 94.4809C152.49 94.7444 152.589 94.9991 152.771 95.1904C152.952 95.3816 153.201 95.4941 153.464 95.5038C153.594 95.5154 153.725 95.5008 153.849 95.461C153.973 95.4211 154.088 95.3568 154.187 95.2718C154.286 95.1869 154.366 95.0829 154.424 94.9662C154.482 94.8495 154.516 94.7223 154.524 94.5923C154.527 94.3288 154.427 94.0747 154.244 93.8844C154.062 93.6942 153.813 93.583 153.549 93.5747C153.42 93.5616 153.289 93.575 153.165 93.614C153.041 93.6529 152.926 93.7168 152.827 93.8015C152.729 93.8863 152.648 93.9902 152.591 94.107C152.534 94.2238 152.501 94.351 152.495 94.4809Z" fill="#263238"/>
<path d="M152.076 93.5749C152.203 93.7074 152.966 93.1456 154.053 93.1456C155.139 93.1456 155.934 93.6756 156.056 93.559C156.178 93.4424 155.987 93.2622 155.637 93.029C155.169 92.7087 154.615 92.537 154.047 92.5361C153.474 92.538 152.917 92.7238 152.457 93.0661C152.129 93.2569 152.017 93.4954 152.076 93.5749Z" fill="#263238"/>
<path d="M148.138 101.609C147.564 101.434 146.972 101.328 146.373 101.291C146.092 101.265 145.843 101.206 145.785 101.021C145.763 100.735 145.828 100.448 145.971 100.199L146.792 98.0795C147.931 95.0746 148.753 92.5996 148.631 92.5572C148.509 92.5148 147.492 94.9103 146.352 97.9205C146.077 98.6625 145.822 99.3674 145.562 100.04C145.398 100.368 145.347 100.741 145.419 101.1C145.46 101.197 145.522 101.284 145.601 101.354C145.68 101.424 145.774 101.475 145.875 101.503C146.029 101.546 146.187 101.57 146.347 101.572C146.94 101.662 147.542 101.674 148.138 101.609Z" fill="#263238"/>
<path d="M147.385 114.461C151.092 114.519 154.741 113.547 157.927 111.652C157.927 111.652 155.367 117.058 147.491 116.321L147.385 114.461Z" fill="#EB996E"/>
<path d="M148.594 104.227C148.801 103.968 149.07 103.765 149.377 103.638C149.684 103.511 150.018 103.464 150.348 103.501C150.588 103.523 150.821 103.592 151.033 103.706C151.245 103.82 151.432 103.976 151.583 104.164C151.728 104.344 151.814 104.566 151.829 104.797C151.844 105.028 151.788 105.259 151.668 105.457C151.494 105.652 151.266 105.791 151.013 105.855C150.76 105.92 150.493 105.906 150.247 105.817C149.735 105.636 149.263 105.355 148.859 104.99C148.735 104.903 148.629 104.794 148.546 104.667C148.506 104.608 148.485 104.538 148.485 104.466C148.485 104.394 148.506 104.324 148.546 104.264" fill="#EB996E"/>
<path d="M151.334 102.362C151.154 102.362 151.154 103.533 150.147 104.365C149.14 105.197 147.878 105.075 147.873 105.239C147.873 105.314 148.149 105.467 148.679 105.483C149.371 105.493 150.045 105.258 150.581 104.821C151.094 104.401 151.423 103.799 151.498 103.141C151.546 102.648 151.413 102.356 151.334 102.362Z" fill="#263238"/>
<path d="M151.795 89.2979C151.906 89.5947 152.987 89.4569 154.265 89.6106C155.542 89.7643 156.57 90.1087 156.734 89.8438C156.814 89.7166 156.633 89.441 156.204 89.1548C155.65 88.8044 155.023 88.585 154.371 88.5133C153.719 88.4417 153.059 88.5197 152.441 88.7414C151.986 88.9269 151.752 89.1601 151.795 89.2979Z" fill="#263238"/>
<path d="M141.8 90.2094C141.99 90.4585 142.738 90.2094 143.639 90.2094C144.54 90.2094 145.303 90.3737 145.478 90.1193C145.552 89.9921 145.435 89.743 145.101 89.5098C144.656 89.2252 144.135 89.0846 143.607 89.1071C143.078 89.116 142.564 89.2902 142.139 89.6052C141.821 89.8331 141.715 90.0875 141.8 90.2094Z" fill="#263238"/>
<path d="M168.256 81.5603C169.893 77.1138 176.709 70.4309 181.95 73.3987C187.69 76.6633 185.66 78.9316 187.732 80.4367C188.225 80.7918 190.557 80.0181 190.88 80.5374C191.734 81.9101 191.008 83.6855 190.282 85.127C190.463 85.1008 190.64 85.0546 190.811 84.9892C190.96 84.9311 191.12 84.9107 191.278 84.93C191.436 84.9492 191.587 85.0074 191.716 85.0995C191.846 85.1915 191.951 85.3143 192.022 85.457C192.092 85.5996 192.126 85.7576 192.121 85.9167C192.022 87.6797 191.404 89.3743 190.345 90.7871C190.705 90.8708 191.078 90.8834 191.442 90.8242C191.558 90.8055 191.677 90.8174 191.788 90.8587C191.898 90.8999 191.995 90.9691 192.071 91.0594C192.146 91.1497 192.197 91.2581 192.217 91.3739C192.238 91.4897 192.229 91.6089 192.189 91.7199C191.866 92.5664 191.335 93.318 190.645 93.9052C189.955 94.4924 189.128 94.8964 188.241 95.0799C186.052 95.5304 183.742 94.7354 181.956 93.3946C180.17 92.0537 178.824 90.2147 177.615 88.3227C176.91 87.2363 176.216 86.0915 175.167 85.3284C174.117 84.5652 172.607 84.2684 171.531 84.9892" fill="#263238"/>
<path d="M171.52 84.8197C171.52 84.8197 171.52 84.7349 171.52 84.613C171.504 84.4305 171.459 84.2517 171.388 84.083C171.161 83.5243 170.875 82.9913 170.535 82.4931C170.207 81.9758 169.833 81.4897 169.416 81.041C169.098 80.7018 168.86 80.511 168.886 80.511C169.14 80.5871 169.371 80.7277 169.554 80.9191C170.02 81.3446 170.428 81.8292 170.768 82.3606C171.123 82.8844 171.395 83.4601 171.573 84.0671C171.633 84.2571 171.653 84.4574 171.632 84.6554C171.595 84.7614 171.531 84.8303 171.52 84.8197Z" fill="#EC6980"/>
<path d="M184.828 97.0196C184.828 97.0196 184.77 97.0779 184.637 97.1627C184.448 97.2913 184.245 97.3996 184.033 97.486C183.248 97.8045 182.394 97.9176 181.553 97.8146C180.288 97.6729 179.12 97.0734 178.267 96.1293C177.78 95.5575 177.418 94.8893 177.207 94.1684C176.99 93.4065 176.86 92.6224 176.82 91.8312C176.719 90.2413 176.783 88.6885 176.497 87.3423C176.373 86.7067 176.154 86.0937 175.845 85.5245C175.565 85.0393 175.19 84.6157 174.743 84.2791C174.106 83.7617 173.305 83.4908 172.485 83.5159C172.187 83.5527 171.893 83.6148 171.605 83.7014C171.668 83.6525 171.738 83.6132 171.812 83.5848C172.024 83.495 172.246 83.4344 172.474 83.4046C173.33 83.34 174.18 83.5949 174.859 84.1201C175.338 84.4657 175.74 84.9058 176.041 85.4132C176.373 85.998 176.61 86.631 176.746 87.2893C177.053 88.6726 176.995 90.2254 177.096 91.8153C177.135 92.5863 177.26 93.3505 177.467 94.0942C177.661 94.7786 177.995 95.4155 178.447 95.965C179.13 96.7182 180.018 97.2543 181.003 97.5068C181.988 97.7593 183.025 97.7171 183.985 97.3853C184.542 97.1839 184.812 96.9931 184.828 97.0196Z" fill="#263238"/>
<path d="M190.117 75.6246C190.181 75.7165 190.233 75.8163 190.271 75.9214C190.388 76.223 190.456 76.5415 190.472 76.8647C190.504 77.3788 190.419 77.8934 190.223 78.3698C189.971 79.0151 189.515 79.5603 188.925 79.9227C188.196 80.3446 187.337 80.4824 186.513 80.3095C186.039 80.2196 185.59 80.0262 185.199 79.7432C184.808 79.4601 184.484 79.0944 184.25 78.6719C183.783 77.7425 183.475 76.741 183.339 75.7094C183.127 74.6759 182.925 73.5577 182.226 72.715C181.882 72.3053 181.419 72.0127 180.901 71.8777C180.394 71.7523 179.865 71.7433 179.353 71.8512C178.367 72.0732 177.429 72.4737 176.587 73.033C175.111 73.9356 173.733 74.9888 172.474 76.1758C171.627 76.9769 170.832 77.832 170.095 78.7355L169.501 79.4828C169.441 79.5775 169.368 79.6631 169.284 79.7372C169.332 79.6361 169.391 79.5403 169.459 79.451C169.575 79.2655 169.766 79.0058 169.989 78.6719C170.696 77.7291 171.475 76.8431 172.321 76.0221C173.568 74.803 174.946 73.7243 176.428 72.8051C177.295 72.2247 178.262 71.8079 179.279 71.5756C179.832 71.4547 180.405 71.4638 180.954 71.6021C181.543 71.7467 182.071 72.0731 182.464 72.5348C183.228 73.4623 183.424 74.6282 183.63 75.6564C183.757 76.6603 184.049 77.6363 184.494 78.5447C184.708 78.939 185.006 79.2815 185.367 79.548C185.728 79.8145 186.142 79.9985 186.582 80.087C187.354 80.2545 188.16 80.1359 188.851 79.7531C189.413 79.4192 189.853 78.914 190.107 78.3115C190.304 77.8571 190.402 77.3655 190.393 76.87C190.366 76.4431 190.273 76.0229 190.117 75.6246Z" fill="#263238"/>
<path d="M170.211 73.7539C170.472 73.9939 170.671 74.2941 170.789 74.6284C171.14 75.4219 171.249 76.3015 171.102 77.1567C170.955 78.0119 170.558 78.8046 169.962 79.4352C169.739 79.7116 169.451 79.9298 169.125 80.0712C169.098 80.0341 169.422 79.7956 169.819 79.308C170.34 78.6756 170.687 77.918 170.826 77.1102C170.964 76.3024 170.89 75.4725 170.609 74.7026C170.397 74.109 170.169 73.7751 170.211 73.7539Z" fill="#263238"/>
<path d="M170.996 83.5371C170.393 82.0177 169.426 80.6702 168.179 79.6137C166.932 78.5572 165.444 77.8242 163.846 77.4795C161.892 77.1136 159.872 77.3867 158.086 78.2585C157.428 77.8338 156.828 77.3261 156.3 76.7481C154.432 74.8648 152.116 73.4878 149.569 72.7468C147.005 72.0166 144.263 72.229 141.842 73.3457C140.646 73.9122 139.596 74.7434 138.769 75.7765C137.943 76.8095 137.362 78.0172 137.072 79.3079C136.808 80.605 136.908 81.95 137.36 83.194C137.813 84.438 138.601 85.5325 139.637 86.3565C141.757 87.9464 144.937 87.9835 146.977 86.3035C146.834 87.4641 147.852 88.54 149.002 88.7573C149.583 88.8295 150.173 88.7821 150.735 88.6181C151.298 88.454 151.821 88.1768 152.272 87.8033C153.169 87.0566 154.012 86.2472 154.795 85.3814C155.107 85.0793 155.43 84.7878 155.759 84.5069C156.377 85.8433 157.297 87.0178 158.447 87.9376C159.596 88.8574 160.944 89.4972 162.384 89.8066C161.472 90.7977 161.552 92.3505 161.928 93.6436C162.304 94.9368 162.914 96.1981 162.887 97.5442C162.887 98.6784 162.384 99.7436 162.166 100.857C161.871 102.415 162.096 104.028 162.808 105.446C163.078 105.976 163.412 106.75 163.714 107.275C164.244 108.218 164.244 108.218 165.028 108.456C166.65 108.96 169.448 103.072 170.169 100.735C170.773 98.7844 171.006 95.2865 171.711 93.3733C172.951 89.9391 172.183 86.5685 170.996 83.5371Z" fill="#263238"/>
<path d="M172.087 90.9249C172.059 90.9881 172.021 91.0469 171.976 91.0998C171.853 91.2549 171.702 91.386 171.531 91.4867C171.211 91.6735 170.851 91.7785 170.481 91.7924C170.111 91.8062 169.744 91.7285 169.411 91.5662C169.185 91.4547 168.983 91.2999 168.817 91.1104C168.649 90.9048 168.509 90.6765 168.404 90.4321C168.215 89.9075 167.973 89.4033 167.683 88.9269C167.495 88.6968 167.264 88.5061 167.002 88.366C166.74 88.2259 166.453 88.1392 166.157 88.1108C165.495 88.0387 164.83 88.0104 164.164 88.026C163.481 88.0121 162.801 87.9178 162.14 87.7451C161.527 87.5733 160.934 87.3389 160.37 87.0455C159.416 86.5465 158.563 85.8764 157.852 85.0687C157.369 84.5303 156.966 83.9253 156.655 83.2721C156.568 83.1004 156.492 82.9234 156.427 82.7422C156.397 82.6785 156.377 82.6105 156.368 82.5408C156.806 83.407 157.353 84.2138 157.995 84.9416C158.709 85.7107 159.552 86.3492 160.486 86.8283C161.038 87.1029 161.615 87.3248 162.209 87.4907C162.85 87.6533 163.508 87.7422 164.17 87.7557C164.848 87.7394 165.526 87.7712 166.199 87.8511C166.528 87.8865 166.846 87.9868 167.135 88.146C167.424 88.3052 167.679 88.5202 167.885 88.7786C168.184 89.2804 168.428 89.8135 168.611 90.3685C168.705 90.5961 168.83 90.81 168.982 91.0044C169.131 91.1773 169.31 91.3211 169.512 91.4284C169.82 91.5857 170.162 91.6677 170.508 91.6677C170.854 91.6677 171.196 91.5857 171.504 91.4284C171.719 91.2854 171.915 91.1162 172.087 90.9249Z" fill="#455A64"/>
<path d="M170.863 94.1048C170.863 94.1048 170.768 94.2479 170.529 94.4281C170.192 94.6819 169.811 94.8723 169.406 94.9899C168.798 95.1735 168.154 95.1954 167.535 95.0534C166.771 94.8807 166.078 94.4796 165.548 93.9034C165.072 93.3091 164.67 92.6596 164.35 91.969C164.089 91.4254 163.73 90.9348 163.29 90.5222C162.999 90.2471 162.646 90.0454 162.262 89.9339C162.112 89.9128 161.963 89.8827 161.817 89.8438C161.97 89.8063 162.13 89.8063 162.283 89.8438C162.702 89.9138 163.094 90.0971 163.417 90.3738C163.891 90.7871 164.281 91.2872 164.567 91.8471C164.886 92.5138 165.281 93.1415 165.744 93.7179C166.236 94.2545 166.876 94.6341 167.583 94.8096C168.16 94.9537 168.765 94.9537 169.342 94.8096C169.881 94.6492 170.393 94.4118 170.863 94.1048Z" fill="#455A64"/>
<path d="M191.75 84.8727C191.745 84.9756 191.72 85.0766 191.675 85.1695C191.569 85.4517 191.407 85.7095 191.198 85.9274C190.868 86.2747 190.456 86.535 190.001 86.6852C189.399 86.8971 188.747 86.923 188.13 86.7594C186.736 86.4202 185.427 85.1695 184.627 83.516C183.826 81.8625 183.323 79.8963 182.099 78.2163C181.51 77.4063 180.706 76.7783 179.777 76.4038C178.907 76.069 177.973 75.9332 177.043 76.0063C175.458 76.1439 173.966 76.8081 172.803 77.893C172.003 78.6161 171.323 79.4624 170.789 80.3998C170.408 81.0622 170.259 81.4597 170.222 81.4597C170.239 81.356 170.273 81.2558 170.323 81.1629C170.434 80.8897 170.56 80.6226 170.699 80.3627C171.203 79.391 171.87 78.5127 172.671 77.7658C173.859 76.6223 175.401 75.9176 177.043 75.7678C178.013 75.6834 178.99 75.8211 179.899 76.1706C180.877 76.5561 181.723 77.2147 182.337 78.0679C183.609 79.8115 184.054 81.8201 184.876 83.41C185.697 84.9999 186.89 86.2348 188.199 86.5898C188.781 86.756 189.399 86.745 189.974 86.558C190.384 86.4432 190.761 86.2324 191.073 85.943C191.386 85.6537 191.625 85.294 191.771 84.8939L191.75 84.8727Z" fill="#455A64"/>
<path d="M191.548 88.593C191.548 88.593 191.49 88.6778 191.357 88.8209C191.154 89.0232 190.936 89.2109 190.705 89.3826C190.341 89.6547 189.941 89.8775 189.518 90.0451C188.953 90.275 188.341 90.3677 187.732 90.3154C186.951 90.1895 186.202 89.9079 185.531 89.4873C184.86 89.0668 184.28 88.5157 183.826 87.8669C183.286 87.1099 182.868 86.273 182.586 85.3866C182.268 84.4857 182.019 83.5317 181.68 82.5884C181.376 81.6692 180.912 80.8115 180.307 80.0551C179.739 79.3644 178.971 78.8664 178.108 78.6295C176.616 78.2647 175.042 78.4648 173.688 79.1913C172.772 79.6777 171.923 80.2797 171.16 80.9826L170.529 81.5549C170.461 81.6289 170.385 81.6947 170.302 81.751C170.354 81.6646 170.418 81.5861 170.492 81.5178C170.62 81.3694 170.816 81.1627 171.086 80.9031C171.829 80.1594 172.675 79.5258 173.598 79.0217C174.99 78.2428 176.625 78.0158 178.177 78.3857C179.092 78.6302 179.908 79.1524 180.514 79.8802C181.14 80.6598 181.623 81.5445 181.94 82.493C182.284 83.4522 182.533 84.4062 182.841 85.3018C183.113 86.1606 183.513 86.9735 184.028 87.7132C184.897 88.9751 186.231 89.8405 187.738 90.1193C188.317 90.1808 188.903 90.1064 189.449 89.902C189.865 89.7483 190.261 89.5436 190.626 89.2925C191.251 88.8792 191.532 88.5771 191.548 88.593Z" fill="#455A64"/>
<path d="M134.348 167.469L135.244 169.705L133.479 190.104H178.5L176.491 184.004L182.088 184.29C190.721 184.725 197.775 177.014 196.095 168.534C196.042 168.28 195.989 168.004 195.92 167.771C193.127 156.859 189.327 142.189 188.008 137.859C185.819 130.699 180.949 127.297 180.949 127.297H180.874C174.138 121.801 164.975 121.313 164.975 121.313L161.599 123.582C159.935 124.697 158.013 125.368 156.016 125.532C154.019 125.696 152.013 125.348 150.189 124.52C149.522 124.216 148.929 123.773 148.449 123.219C147.969 122.666 147.613 122.016 147.407 121.313C143.442 121.729 139.563 122.74 135.901 124.313C133.82 125.277 131.957 126.655 130.427 128.364C128.897 130.072 127.732 132.075 127.003 134.25L115.243 168.698L95.2202 165.99L90.938 177.681L111.225 182.515C114.863 183.599 118.762 183.401 122.271 181.954C125.78 180.507 128.685 177.898 130.5 174.565L134.348 167.49M171.796 170.246C171.796 170.246 173.72 162.869 174.891 158.899L177.732 170.029L171.796 170.246Z" fill="#EC6980"/>
<path d="M187.107 184.407H186.874H186.195H183.546L173.63 184.444L139.123 184.492H139.007V184.359C139.182 180.151 139.372 175.736 139.563 171.179V171.051H139.69L152.51 170.649L177.732 169.891L177.61 170.055C176.667 166.616 175.898 163.266 175.156 160.07C174.414 156.875 173.752 153.811 173.1 150.928C172.789 149.487 172.483 148.088 172.183 146.731C171.855 145.429 171.615 144.106 171.462 142.772C171.349 141.538 171.349 140.296 171.462 139.062C171.556 137.927 171.762 136.803 172.077 135.708C172.594 133.825 173.634 132.127 175.077 130.811C176.168 129.85 177.513 129.224 178.951 129.009C179.843 128.865 180.756 128.915 181.627 129.157C181.85 129.222 182.067 129.301 182.279 129.396C182.422 129.454 182.491 129.491 182.491 129.491C182.491 129.491 182.199 129.359 181.617 129.2C180.751 128.977 179.848 128.939 178.967 129.088C177.551 129.319 176.23 129.949 175.161 130.906C173.748 132.213 172.733 133.892 172.231 135.75C171.925 136.838 171.727 137.952 171.637 139.078C171.522 140.312 171.522 141.554 171.637 142.788C171.793 144.114 172.037 145.427 172.368 146.72C172.671 148.072 172.978 149.471 173.301 150.912C173.953 153.796 174.647 156.848 175.373 160.044C176.099 163.24 176.894 166.589 177.843 170.018L177.886 170.177H177.721L152.526 170.951L139.701 171.354L139.833 171.221C139.637 175.779 139.447 180.193 139.266 184.401L139.134 184.264L173.64 184.317L183.556 184.354H186.206H186.884C186.96 184.367 187.034 184.385 187.107 184.407Z" fill="#263238"/>
<path d="M136.844 137.483C136.868 137.591 136.876 137.702 136.871 137.812C136.871 138.029 136.871 138.342 136.871 138.76C136.797 139.923 136.592 141.073 136.261 142.189C135.76 143.836 135.173 145.454 134.502 147.039C133.669 148.962 133.019 150.96 132.562 153.006C132.189 155.066 132.178 157.175 132.53 159.239C132.815 160.927 133.222 162.592 133.749 164.22C134.194 165.614 134.592 166.732 134.868 167.506L135.175 168.396C135.218 168.498 135.249 168.605 135.265 168.714C135.205 168.622 135.157 168.522 135.122 168.418C135.032 168.19 134.91 167.888 134.767 167.543C134.459 166.78 134.035 165.672 133.564 164.279C133.005 162.647 132.577 160.974 132.281 159.276C131.905 157.185 131.905 155.044 132.281 152.953C132.737 150.891 133.392 148.878 134.237 146.943C134.979 145.152 135.631 143.535 136.044 142.136C136.39 141.036 136.622 139.903 136.738 138.755C136.823 137.939 136.818 137.483 136.844 137.483Z" fill="#263238"/>
<path d="M177.732 170.034C178.034 169.926 178.355 169.884 178.675 169.912C179.448 169.932 180.207 170.112 180.906 170.442C181.624 170.751 182.239 171.256 182.682 171.9C182.879 172.155 182.999 172.462 183.026 172.785C182.978 172.785 182.867 172.456 182.523 172.011C182.06 171.437 181.465 170.985 180.79 170.691C180.119 170.387 179.403 170.196 178.67 170.124C178.355 170.116 178.042 170.085 177.732 170.034Z" fill="#263238"/>
<path d="M173.767 123.306C174.057 123.389 174.338 123.496 174.61 123.624C174.88 123.736 175.209 123.868 175.585 124.038L176.841 124.653C177.308 124.88 177.801 125.183 178.336 125.463C178.871 125.744 179.396 126.121 179.989 126.492C181.225 127.33 182.386 128.273 183.461 129.311C185.421 131.206 186.919 133.528 187.838 136.095C188 136.535 188.134 136.984 188.241 137.441C188.336 137.844 188.427 138.183 188.464 138.501C188.523 138.796 188.562 139.095 188.58 139.396C188.481 139.112 188.406 138.819 188.358 138.522C188.31 138.236 188.204 137.902 188.093 137.504C187.981 137.107 187.833 136.672 187.658 136.185C186.694 133.676 185.197 131.407 183.27 129.534C182.208 128.507 181.062 127.569 179.846 126.73C179.279 126.359 178.739 125.993 178.219 125.67C177.7 125.347 177.212 125.071 176.751 124.833L175.516 124.186L174.568 123.73C174.291 123.609 174.024 123.467 173.767 123.306Z" fill="#263238"/>
<g opacity="0.3">
<path d="M172.013 145.512C172.013 145.512 167.54 165.264 167.609 167.199C167.621 168.215 167.777 169.225 168.07 170.198L171.78 170.23L171.812 169.864L174.939 158.687L172.013 145.512Z" fill="black"/>
</g>
<path d="M147.433 144.516C147.433 144.548 146.962 144.733 146.209 145.289C145.161 146.089 144.365 147.172 143.914 148.411C143.613 149.26 143.488 150.162 143.549 151.061C143.606 152.095 143.911 153.1 144.439 153.992C145.014 154.98 145.835 155.802 146.824 156.377C147.34 156.686 147.899 156.918 148.483 157.065C149.082 157.224 149.702 157.296 150.322 157.277C150.942 157.262 151.557 157.163 152.15 156.981C152.722 156.793 153.269 156.535 153.777 156.212C155.072 155.361 156.031 154.087 156.489 152.606C156.948 151.126 156.877 149.532 156.289 148.098C155.779 146.882 154.929 145.838 153.841 145.093C153.067 144.563 152.563 144.41 152.579 144.378C152.702 144.412 152.823 144.454 152.94 144.505C153.275 144.643 153.598 144.81 153.904 145.003C154.865 145.621 155.655 146.472 156.201 147.476C156.746 148.48 157.03 149.605 157.026 150.748C157.015 151.821 156.758 152.876 156.273 153.833C155.731 154.891 154.924 155.791 153.931 156.445C153.403 156.784 152.835 157.056 152.24 157.256C151.621 157.444 150.979 157.548 150.332 157.564C149.054 157.597 147.792 157.27 146.691 156.62C145.665 156.02 144.814 155.161 144.222 154.129C143.376 152.668 143.105 150.944 143.462 149.294C143.818 147.644 144.777 146.186 146.151 145.205C146.448 145.001 146.761 144.824 147.089 144.675C147.2 144.615 147.315 144.561 147.433 144.516Z" fill="white"/>
<path d="M150.163 143.307C150.299 144.925 150.345 146.55 150.3 148.173C150.345 149.796 150.299 151.42 150.163 153.038C150.023 151.42 149.977 149.796 150.025 148.173C149.977 146.55 150.023 144.925 150.163 143.307Z" fill="white"/>
<path d="M133.076 170.951L130.161 169.769C130.161 169.769 126.775 164.024 126.081 164.3C125.386 164.575 125.286 166.329 126.664 168.974L122.832 168.11C122.832 168.11 114.882 172.35 115.259 172.832C115.635 173.314 116.382 174.486 118.115 173.479C119.848 172.472 122.116 171.269 122.116 171.269L126.595 172.281L120.95 173.341L115.879 178.498C115.879 178.498 117.707 179.717 119.143 178.238L133.188 180.448H139.134L139.452 172.588L133.076 170.951Z" fill="#FFBE9D"/>
<path d="M119.143 178.201C119.207 178.233 119.44 177.809 119.912 177.236C120.188 176.909 120.514 176.627 120.876 176.399C121.336 176.152 121.837 175.992 122.355 175.927C124.65 175.525 126.499 175.101 126.478 174.984C126.457 174.867 124.581 175.095 122.275 175.514C121.702 175.585 121.151 175.778 120.659 176.081C120.27 176.346 119.934 176.68 119.668 177.067C119.399 177.394 119.218 177.784 119.143 178.201Z" fill="#EB996E"/>
<path d="M121.348 178.635C121.401 178.635 121.427 178.344 121.809 178.238C122.19 178.132 122.832 178.036 123.484 177.93C124.809 177.718 125.906 177.671 125.911 177.544C125.916 177.416 124.793 177.284 123.42 177.501C122.827 177.58 122.247 177.733 121.692 177.957C121.596 177.998 121.51 178.06 121.441 178.139C121.372 178.218 121.322 178.312 121.295 178.413C121.268 178.566 121.321 178.641 121.348 178.635Z" fill="#EB996E"/>
<path d="M132.689 170.781C132.212 170.683 131.743 170.55 131.285 170.384C130.426 170.119 129.234 169.785 127.904 169.451L124.496 168.592C124.018 168.496 123.551 168.352 123.102 168.163C123.589 168.201 124.071 168.283 124.544 168.407C125.423 168.587 126.664 168.847 127.973 169.186C129.115 169.465 130.241 169.803 131.349 170.198C131.817 170.34 132.267 170.535 132.689 170.781Z" fill="#EB996E"/>
<path d="M226.945 67.548C227.06 67.3756 227.198 67.2188 227.353 67.0817C227.676 66.7637 228.074 66.3609 228.54 65.8945C229.553 64.8982 230.968 63.5361 232.536 62.0416L232.573 62.0098V62.2112C230.983 60.7432 229.568 59.4077 228.551 58.4325L227.358 57.2666C227.201 57.1336 227.062 56.9803 226.945 56.8108C227.118 56.9191 227.28 57.0452 227.427 57.1871L228.683 58.2894C229.743 59.2275 231.18 60.5418 232.764 61.9992L232.87 62.0999L232.764 62.2006L232.727 62.2377C231.137 63.7269 229.722 65.0678 228.678 66.027L227.427 67.1559C227.282 67.3044 227.12 67.436 226.945 67.548Z" fill="#263238"/>
<path d="M214.724 56.8108C214.609 56.9833 214.471 57.14 214.316 57.2772L213.123 58.4643C212.111 59.4607 210.701 60.8227 209.133 62.3172L209.096 62.349V62.1476C210.686 63.6156 212.095 64.9512 213.118 65.9263L214.311 67.0923C214.468 67.2252 214.607 67.3785 214.724 67.548C214.549 67.442 214.387 67.3157 214.242 67.1717C213.897 66.875 213.478 66.504 212.986 66.0694C211.926 65.1314 210.489 63.817 208.905 62.3596L208.799 62.2589L208.905 62.1582L208.942 62.1211C210.532 60.6319 211.947 59.2911 212.991 58.3318L214.242 57.203C214.389 57.0565 214.55 56.9251 214.724 56.8108Z" fill="#263238"/>
<path d="M217.861 70.076C217.792 70.076 219.075 66.4563 220.723 62.0575C222.371 57.6587 223.776 54.1079 223.85 54.1344C223.924 54.1609 222.636 57.7541 220.983 62.1529C219.329 66.5517 217.93 70.1025 217.861 70.076Z" fill="#263238"/>
<path d="M240.825 77.7605C240.825 77.7605 240.825 77.5485 240.825 77.1564C240.825 76.7642 240.825 76.1812 240.825 75.4287C240.825 73.9129 240.825 71.7188 240.793 68.8888C240.793 63.2552 240.756 55.2102 240.735 45.5064L240.846 45.6177L201.098 45.6442L201.236 45.5064C201.236 57.1658 201.236 68.1733 201.236 77.7605L201.109 77.6333L229.807 77.6969L237.942 77.7287H240.104H240.661H240.852H240.131H238.011L229.902 77.7605L201.125 77.8241H201.003V77.7022C201.003 68.115 201.003 57.1075 201.003 45.4481V45.3474H201.146H240.894H241.011V45.464C241.011 55.1943 240.968 63.2711 240.952 68.9206C240.952 71.7241 240.952 73.9235 240.92 75.434C240.92 76.1759 240.92 76.7483 240.92 77.1405C240.92 77.5326 240.825 77.7605 240.825 77.7605Z" fill="#263238"/>
<path d="M241.138 50.2921C241.138 50.3663 232.165 50.4299 221.105 50.4299C210.044 50.4299 201.066 50.3663 201.066 50.2921C201.066 50.2179 210.034 50.1543 221.105 50.1543C232.176 50.1543 241.138 50.2126 241.138 50.2921Z" fill="#263238"/>
<path d="M204.326 47.9338C204.326 48.0386 204.295 48.1411 204.237 48.2282C204.178 48.3154 204.095 48.3833 203.999 48.4234C203.902 48.4635 203.795 48.474 203.692 48.4536C203.59 48.4331 203.495 48.3826 203.421 48.3085C203.347 48.2344 203.297 48.14 203.276 48.0372C203.256 47.9344 203.266 47.8278 203.306 47.731C203.346 47.6341 203.414 47.5514 203.501 47.4931C203.589 47.4349 203.691 47.4038 203.796 47.4038C203.936 47.4038 204.071 47.4596 204.171 47.559C204.27 47.6584 204.326 47.7932 204.326 47.9338Z" fill="#263238"/>
<path d="M206.276 47.9338C206.276 48.0386 206.245 48.1411 206.187 48.2282C206.129 48.3154 206.046 48.3833 205.949 48.4234C205.852 48.4635 205.746 48.474 205.643 48.4536C205.54 48.4331 205.446 48.3826 205.371 48.3085C205.297 48.2344 205.247 48.14 205.226 48.0372C205.206 47.9344 205.216 47.8278 205.257 47.731C205.297 47.6341 205.365 47.5514 205.452 47.4931C205.539 47.4349 205.641 47.4038 205.746 47.4038C205.887 47.4038 206.022 47.4596 206.121 47.559C206.22 47.6584 206.276 47.7932 206.276 47.9338Z" fill="#263238"/>
<path d="M208.226 47.9338C208.226 48.0386 208.195 48.1411 208.137 48.2282C208.079 48.3154 207.996 48.3833 207.899 48.4234C207.802 48.4635 207.696 48.474 207.593 48.4536C207.49 48.4331 207.396 48.3826 207.322 48.3085C207.248 48.2344 207.197 48.14 207.177 48.0372C207.156 47.9344 207.167 47.8278 207.207 47.731C207.247 47.6341 207.315 47.5514 207.402 47.4931C207.489 47.4349 207.592 47.4038 207.696 47.4038C207.837 47.4038 207.972 47.4596 208.071 47.559C208.171 47.6584 208.226 47.7932 208.226 47.9338Z" fill="#263238"/>
<path d="M96.6089 44.8173L97.0223 44.3615C97.2391 44.7193 97.5438 45.0157 97.9074 45.2225C98.271 45.4294 98.6814 45.5398 99.0998 45.5434C100.345 45.5434 100.96 44.8332 100.96 43.3334V37.3235H97.5045V36.7087H101.644V43.3175C101.644 45.2042 100.769 46.1423 99.0998 46.1423C98.6066 46.1488 98.1198 46.0308 97.6844 45.7992C97.249 45.5676 96.8791 45.2299 96.6089 44.8173Z" fill="#EC6980"/>
<path d="M103.604 45.2308L103.912 44.7008C104.631 45.2551 105.516 45.5518 106.424 45.5435C107.897 45.5435 108.486 45.0135 108.486 44.2344C108.486 42.1993 103.859 43.7045 103.859 40.9539C103.859 39.894 104.739 39.0407 106.509 39.0407C107.357 39.0258 108.191 39.2638 108.904 39.7244L108.597 40.2543C107.974 39.8265 107.232 39.6058 106.477 39.6237C105.115 39.6237 104.511 40.1854 104.511 40.938C104.511 43.0579 109.143 41.5528 109.143 44.2132C109.143 45.3527 108.162 46.1264 106.382 46.1264C105.381 46.1551 104.4 45.8389 103.604 45.2308Z" fill="#EC6980"/>
<path d="M115.264 51.0499C115.264 51.0499 115.264 50.9016 115.264 50.6207C115.264 50.3398 115.264 49.9264 115.264 49.407C115.264 48.3471 115.264 46.7837 115.232 44.8175C115.232 40.8692 115.2 35.2515 115.174 28.4943L115.29 28.6109H90.9805C90.9487 28.6427 91.2402 28.3512 91.1183 28.4784V34.5307C91.1183 36.5181 91.1183 38.4578 91.1183 40.3604C91.1183 44.1497 91.1183 47.7323 91.1183 51.034L90.9964 50.9122L108.565 50.9704L113.531 51.0022H114.845H115.158H115.28H114.845H113.552L108.618 51.034L90.9699 51.0923H90.848V50.9704C90.848 47.6687 90.848 44.0808 90.848 40.2968C90.848 38.4048 90.848 36.4651 90.848 34.4671V28.5049L90.9858 28.3618H115.296H115.412V28.4784C115.412 35.2674 115.37 40.9116 115.354 44.8758C115.354 46.8314 115.354 48.3736 115.322 49.4388C115.322 49.9688 115.322 50.3504 115.322 50.6313C115.322 50.9122 115.264 51.0499 115.264 51.0499Z" fill="#EC6980"/>
<path d="M115.211 31.8438C115.211 31.918 109.779 31.9816 103.075 31.9816C96.3704 31.9816 90.9382 31.918 90.9382 31.8438C90.9382 31.7696 96.3704 31.7007 103.075 31.7007C109.779 31.7007 115.211 31.7643 115.211 31.8438Z" fill="#EC6980"/>
<path d="M93.111 30.5717C93.3451 30.5717 93.535 30.4032 93.535 30.1954C93.535 29.9876 93.3451 29.8191 93.111 29.8191C92.8768 29.8191 92.687 29.9876 92.687 30.1954C92.687 30.4032 92.8768 30.5717 93.111 30.5717Z" fill="#EC6980"/>
<path d="M95.0878 30.1955C95.0986 30.2821 95.0827 30.3699 95.0423 30.4472C95.0019 30.5246 94.9389 30.5878 94.8617 30.6284C94.7845 30.669 94.6967 30.6851 94.6101 30.6746C94.5235 30.6641 94.4421 30.6275 94.3769 30.5696C94.3116 30.5116 94.2656 30.4352 94.2448 30.3504C94.2241 30.2657 94.2297 30.1766 94.2609 30.0951C94.292 30.0136 94.3473 29.9436 94.4193 29.8943C94.4913 29.845 94.5766 29.8188 94.6638 29.8192C94.7698 29.8134 94.8738 29.8497 94.9532 29.9201C95.0326 29.9906 95.081 30.0896 95.0878 30.1955Z" fill="#EC6980"/>
<path d="M96.6407 30.1955C96.6514 30.2821 96.6356 30.3699 96.5952 30.4472C96.5548 30.5246 96.4918 30.5878 96.4146 30.6284C96.3374 30.669 96.2496 30.6851 96.163 30.6746C96.0763 30.6641 95.995 30.6275 95.9297 30.5696C95.8645 30.5116 95.8184 30.4352 95.7977 30.3504C95.777 30.2657 95.7826 30.1766 95.8137 30.0951C95.8449 30.0136 95.9002 29.9436 95.9722 29.8943C96.0441 29.845 96.1294 29.8188 96.2167 29.8192C96.3227 29.8134 96.4267 29.8497 96.5061 29.9201C96.5855 29.9906 96.6338 30.0896 96.6407 30.1955Z" fill="#EC6980"/>
<path d="M162.767 1.48682H135.755V20.462H162.767V1.48682Z" fill="#455A64"/>
<path d="M162.982 4.30332C162.982 4.36621 156.882 4.42012 149.364 4.42012C141.846 4.42012 135.746 4.36621 135.746 4.30332C135.746 4.24043 141.842 4.18652 149.364 4.18652C156.886 4.18652 162.982 4.23594 162.982 4.30332Z" fill="white"/>
<path d="M137.962 2.91533C137.972 2.98877 137.959 3.06353 137.925 3.12961C137.891 3.19569 137.837 3.24994 137.771 3.28509C137.705 3.32024 137.629 3.33463 137.554 3.32631C137.48 3.318 137.409 3.28739 137.353 3.23858C137.296 3.18977 137.256 3.12508 137.238 3.05318C137.219 2.98127 137.224 2.90558 137.25 2.83623C137.277 2.76688 137.324 2.70718 137.386 2.66512C137.448 2.62306 137.522 2.60064 137.597 2.60087C137.687 2.59591 137.776 2.62604 137.844 2.68482C137.913 2.74359 137.955 2.82634 137.962 2.91533Z" fill="white"/>
<path d="M139.288 2.91533C139.299 2.98877 139.286 3.06353 139.252 3.12961C139.218 3.19569 139.164 3.24994 139.098 3.28509C139.032 3.32024 138.956 3.33463 138.881 3.32631C138.806 3.318 138.736 3.28739 138.679 3.23858C138.623 3.18977 138.583 3.12508 138.564 3.05318C138.546 2.98127 138.551 2.90558 138.577 2.83623C138.604 2.76688 138.651 2.70718 138.713 2.66512C138.775 2.62306 138.849 2.60064 138.924 2.60087C139.014 2.59591 139.103 2.62604 139.171 2.68482C139.239 2.74359 139.281 2.82634 139.288 2.91533Z" fill="white"/>
<path d="M140.25 3.22999C140.452 3.22999 140.615 3.0892 140.615 2.91553C140.615 2.74186 140.452 2.60107 140.25 2.60107C140.049 2.60107 139.886 2.74186 139.886 2.91553C139.886 3.0892 140.049 3.22999 140.25 3.22999Z" fill="white"/>
<path d="M145.749 11.8685C145.749 13.0095 144.91 13.6968 143.528 13.6968H142.069V15.3859H141.495V10.0356H143.528C144.91 10.0356 145.749 10.723 145.749 11.8685ZM145.174 11.8685C145.174 11.015 144.6 10.5208 143.515 10.5208H142.069V13.1937H143.515C144.6 13.1982 145.174 12.7085 145.174 11.8685Z" fill="white"/>
<path d="M151.525 10.0356V15.3859H150.959V12.9152H147.558V15.3859H146.998V10.0356H147.572V12.421H150.973V10.0356H151.525Z" fill="white"/>
<path d="M157.538 11.8685C157.538 13.0095 156.704 13.6968 155.323 13.6968H153.864V15.3859H153.289V10.0356H155.323C156.704 10.0356 157.538 10.723 157.538 11.8685ZM156.968 11.8685C156.968 11.015 156.394 10.5208 155.309 10.5208H153.864V13.1937H155.309C156.394 13.1982 156.968 12.7085 156.968 11.8685Z" fill="white"/>
<path d="M200.553 10.5928C200.545 10.1415 200.631 9.69344 200.805 9.27592C200.979 8.8584 201.237 8.4802 201.564 8.16445C201.892 7.84869 202.281 7.60201 202.708 7.43947C203.135 7.27694 203.592 7.20196 204.05 7.21913C204.492 7.20154 204.934 7.27427 205.346 7.43274C205.759 7.59121 206.134 7.83201 206.448 8.14003L206.142 8.45449C205.869 8.19227 205.545 7.98739 205.189 7.85226C204.833 7.71713 204.453 7.65456 204.072 7.66835C203.669 7.64631 203.266 7.7055 202.887 7.84228C202.508 7.97907 202.161 8.19058 201.868 8.46389C201.575 8.7372 201.341 9.06656 201.182 9.43183C201.022 9.7971 200.94 10.1906 200.94 10.5883C200.94 10.986 201.022 11.3795 201.182 11.7448C201.341 12.11 201.575 12.4394 201.868 12.7127C202.161 12.986 202.508 13.1975 202.887 13.3343C203.266 13.4711 203.669 13.5303 204.072 13.5083C204.454 13.5206 204.834 13.4565 205.19 13.3198C205.546 13.1831 205.87 12.9767 206.142 12.7131L206.448 13.0276C206.134 13.3368 205.76 13.579 205.347 13.739C204.934 13.899 204.493 13.9733 204.05 13.9575C203.593 13.9746 203.137 13.8999 202.71 13.7379C202.284 13.5759 201.895 13.33 201.568 13.0152C201.24 12.7005 200.982 12.3233 200.807 11.9069C200.633 11.4904 200.546 11.0433 200.553 10.5928Z" fill="#EC6980"/>
<path d="M207.373 13.0589L207.596 12.6996C208.202 13.2481 208.999 13.547 209.821 13.5351C211.189 13.5351 211.768 12.9556 211.768 12.2324C211.768 10.2378 207.56 11.4373 207.56 8.98449C207.56 8.04562 208.289 7.21905 209.949 7.21905C210.672 7.21524 211.38 7.4232 211.982 7.81651L211.795 8.20734C211.251 7.84166 210.608 7.64314 209.949 7.63682C208.636 7.63682 208.048 8.23429 208.048 8.98449C208.048 10.979 212.26 9.80208 212.26 12.2144C212.26 13.1533 211.499 13.9709 209.83 13.9709C208.922 13.9963 208.039 13.6688 207.373 13.0589Z" fill="#EC6980"/>
<path d="M213.241 13.0589L213.464 12.6995C214.068 13.2504 214.866 13.5498 215.689 13.5351C217.057 13.5351 217.636 12.9556 217.636 12.2324C217.636 10.2378 213.423 11.4372 213.423 8.98447C213.423 8.0456 214.157 7.21902 215.816 7.21902C216.538 7.21611 217.244 7.42403 217.845 7.81649L217.663 8.20731C217.125 7.84584 216.491 7.64751 215.839 7.6368C214.526 7.6368 213.938 8.23427 213.938 8.98447C213.938 10.979 218.151 9.80206 218.151 12.2144C218.151 13.1533 217.389 13.9708 215.721 13.9708C214.804 14.0023 213.912 13.6744 213.241 13.0589Z" fill="#EC6980"/>
<path d="M223.868 19.2312C223.868 19.2312 223.868 19.1055 223.868 18.8764C223.868 18.6473 223.868 18.3014 223.868 17.8656C223.868 16.9672 223.868 15.6779 223.84 14.0203C223.84 10.7005 223.813 5.93424 223.79 0.0943365L223.886 0.188673L193.847 0.211135L193.965 0.0943365C193.965 6.8821 193.965 13.3464 193.965 19.2133L193.856 19.1055L215.465 19.1594L221.661 19.1863H223.316H223.745C223.795 19.1824 223.845 19.1824 223.895 19.1863H223.758H223.344H221.711L215.538 19.2133L193.856 19.2672H193.746V19.1594C193.746 13.2925 193.746 6.82819 193.746 0.0404284V0H193.865L223.904 0.0269523H224V0.116799C223.977 5.9567 223.959 10.7499 223.95 14.0831C223.95 15.7318 223.95 17.0211 223.95 17.906C223.95 18.3373 223.95 18.6697 223.95 18.9033C223.877 19.1189 223.868 19.2312 223.868 19.2312Z" fill="#EC6980"/>
<path d="M223.868 2.95152C223.868 3.01441 217.138 3.06831 208.823 3.06831C200.507 3.06831 193.778 3.01441 193.778 2.95152C193.778 2.88862 200.507 2.83472 208.823 2.83472C217.138 2.83472 223.868 2.88413 223.868 2.95152Z" fill="#EC6980"/>
<path d="M196.048 1.55432C196.058 1.62772 196.044 1.70215 196.009 1.7677C195.974 1.83326 195.92 1.88682 195.854 1.92126C195.787 1.9557 195.712 1.96937 195.637 1.96046C195.563 1.95155 195.493 1.92048 195.437 1.87139C195.381 1.8223 195.341 1.75752 195.323 1.68567C195.305 1.61383 195.31 1.53834 195.337 1.46926C195.364 1.40019 195.411 1.34079 195.473 1.29901C195.535 1.25722 195.609 1.23503 195.684 1.23537C195.775 1.23045 195.864 1.2612 195.933 1.32092C196.001 1.38065 196.042 1.46453 196.048 1.55432Z" fill="#EC6980"/>
<path d="M197.384 1.55432C197.393 1.62772 197.38 1.70215 197.345 1.7677C197.31 1.83326 197.256 1.88682 197.19 1.92126C197.123 1.9557 197.048 1.96937 196.973 1.96046C196.899 1.95155 196.829 1.92048 196.773 1.87139C196.716 1.8223 196.677 1.75752 196.659 1.68567C196.641 1.61383 196.646 1.53834 196.673 1.46926C196.7 1.40019 196.747 1.34079 196.809 1.29901C196.871 1.25722 196.944 1.23503 197.019 1.23537C197.111 1.23045 197.2 1.2612 197.268 1.32092C197.337 1.38065 197.378 1.46453 197.384 1.55432Z" fill="#EC6980"/>
<path d="M198.72 1.55432C198.729 1.62772 198.716 1.70215 198.681 1.7677C198.646 1.83326 198.592 1.88682 198.525 1.92126C198.459 1.9557 198.384 1.96937 198.309 1.96046C198.235 1.95155 198.165 1.92048 198.108 1.87139C198.052 1.8223 198.013 1.75752 197.995 1.68567C197.977 1.61383 197.982 1.53834 198.009 1.46926C198.035 1.40019 198.083 1.34079 198.145 1.29901C198.207 1.25722 198.28 1.23503 198.355 1.23537C198.446 1.23045 198.536 1.2612 198.604 1.32092C198.673 1.38065 198.714 1.46453 198.72 1.55432Z" fill="#EC6980"/>
<path d="M185.129 29.1367H147.408V55.6319H185.129V29.1367Z" fill="#EC6980"/>
<path d="M160.132 41.4365V46.7194H158.897V44.5631H156.471V46.7194H155.236V41.4365H156.471V43.5119H158.897V41.4365H160.132Z" fill="white"/>
<path d="M162.498 42.4293H160.789V41.4365H165.444V42.4293H163.734V46.7194H162.498V42.4293Z" fill="white"/>
<path d="M166.109 41.4365H167.345V45.7041H170.021V46.7194H166.109V41.4365Z" fill="white"/>
<path d="M175.574 46.7194V43.5748L174.001 46.1713H173.44L171.876 43.6422V46.7194H170.705V41.4365H171.726L173.727 44.7069L175.692 41.4365H176.704V46.6969L175.574 46.7194Z" fill="white"/>
<path d="M185.43 33.0675C185.43 33.1304 176.914 33.1843 166.41 33.1843C155.906 33.1843 147.394 33.1304 147.394 33.0675C147.394 33.0046 155.906 32.9507 166.41 32.9507C176.914 32.9507 185.43 33.0001 185.43 33.0675Z" fill="white"/>
<path d="M150.49 31.1312C150.501 31.2323 150.481 31.3343 150.432 31.4238C150.383 31.5133 150.307 31.5861 150.216 31.6326C150.124 31.6791 150.02 31.697 149.917 31.6841C149.815 31.6713 149.719 31.6281 149.642 31.5604C149.565 31.4927 149.511 31.4035 149.486 31.3048C149.462 31.206 149.468 31.1022 149.505 31.0071C149.541 30.912 149.606 30.83 149.691 30.772C149.775 30.7139 149.876 30.6825 149.979 30.682C150.043 30.6783 150.106 30.6871 150.166 30.7077C150.226 30.7283 150.282 30.7604 150.329 30.8021C150.377 30.8439 150.415 30.8944 150.443 30.9509C150.47 31.0073 150.486 31.0686 150.49 31.1312Z" fill="white"/>
<path d="M152.341 31.1312C152.352 31.2323 152.332 31.3343 152.283 31.4238C152.234 31.5133 152.158 31.5861 152.067 31.6326C151.975 31.6791 151.871 31.697 151.769 31.6841C151.666 31.6713 151.57 31.6281 151.493 31.5604C151.416 31.4927 151.362 31.4035 151.337 31.3048C151.313 31.206 151.319 31.1022 151.356 31.0071C151.392 30.912 151.457 30.83 151.542 30.772C151.627 30.7139 151.727 30.6825 151.83 30.682C151.894 30.6783 151.957 30.6871 152.017 30.7077C152.077 30.7283 152.133 30.7604 152.18 30.8021C152.228 30.8439 152.266 30.8944 152.294 30.9509C152.321 31.0073 152.337 31.0686 152.341 31.1312Z" fill="white"/>
<path d="M154.192 31.1312C154.203 31.2323 154.183 31.3343 154.134 31.4238C154.085 31.5133 154.009 31.5861 153.918 31.6326C153.826 31.6791 153.722 31.697 153.619 31.6841C153.517 31.6713 153.421 31.6281 153.344 31.5604C153.267 31.4927 153.213 31.4035 153.188 31.3048C153.164 31.206 153.17 31.1022 153.207 31.0071C153.243 30.912 153.308 30.83 153.393 30.772C153.477 30.7139 153.578 30.6825 153.681 30.682C153.745 30.6783 153.808 30.6871 153.868 30.7077C153.928 30.7283 153.984 30.7604 154.031 30.8021C154.079 30.8439 154.117 30.8944 154.145 30.9509C154.172 31.0073 154.188 31.0686 154.192 31.1312Z" fill="white"/>
<path d="M51.7573 90.9251C51.7529 90.8899 51.7529 90.8543 51.7573 90.8191V90.5276C51.7573 90.2573 51.7573 89.881 51.7573 89.3934C51.7573 88.3918 51.7573 86.9503 51.7255 85.1219C51.7255 81.4492 51.6884 76.2236 51.6619 69.9647L51.7838 70.0812H30.8234C30.7916 70.1077 31.0831 69.8216 30.9612 69.9488V72.7894C30.9612 73.7328 30.9612 74.6708 30.9612 75.593V81.0093C30.9612 84.5283 30.9612 87.8512 30.9612 90.8986L30.8446 90.7767L46.0018 90.8403L50.2734 90.8721H51.4075H51.699H51.4181H50.3052L46.0654 90.9039L30.834 90.9675H30.7121V90.9251C30.7121 87.8777 30.7121 84.5654 30.7121 81.0358V69.97C30.5849 70.0919 30.8764 69.7951 30.8499 69.8269H51.8103H51.9269V69.9488C51.9269 76.2395 51.8845 81.4916 51.8686 85.1802C51.8686 86.998 51.8686 88.4342 51.8368 89.42C51.8368 89.8969 51.8368 90.2679 51.8368 90.5329C51.8368 90.6495 51.8368 90.7396 51.8368 90.8138C51.8152 90.8542 51.7885 90.8916 51.7573 90.9251Z" fill="#263238"/>
<path d="M51.7573 70.1713C51.8103 70.2243 47.1731 74.9411 41.4017 80.6913C35.6303 86.4415 30.8923 91.0735 30.8499 91.0205C30.8075 90.9675 35.4289 86.2507 41.2056 80.4952C46.9823 74.7397 51.7043 70.1184 51.7573 70.1713Z" fill="#263238"/>
<path d="M51.4235 90.7926C51.3705 90.8456 46.7491 86.2719 41.1049 80.58C35.4607 74.8881 30.9241 70.2244 30.9771 70.1714C31.0301 70.1184 35.6515 74.692 41.301 80.3839C46.9505 86.0758 51.4765 90.7343 51.4235 90.7926Z" fill="#263238"/>
<path d="M95.4535 75.5824C95.4535 75.6566 87.1224 75.7202 76.8515 75.7202C66.5806 75.7202 58.2548 75.6566 58.2548 75.5824C58.2548 75.5082 66.5806 75.4446 76.8515 75.4446C87.1224 75.4446 95.4535 75.5082 95.4535 75.5824Z" fill="#263238"/>
<path d="M95.4535 78.9264C95.4535 79.0006 87.1224 79.0642 76.8515 79.0642C66.5806 79.0642 58.2548 79.0006 58.2548 78.9264C58.2548 78.8522 66.5806 78.7886 76.8515 78.7886C87.1224 78.7886 95.4535 78.8469 95.4535 78.9264Z" fill="#263238"/>
<path d="M95.4535 82.2652C95.4535 82.3447 87.1224 82.403 76.8515 82.403C66.5806 82.403 58.2548 82.3447 58.2548 82.2652C58.2548 82.1857 66.5806 82.1274 76.8515 82.1274C87.1224 82.1274 95.4535 82.191 95.4535 82.2652Z" fill="#263238"/>
<path d="M95.4535 85.6253C95.4535 85.6995 87.1224 85.7631 76.8515 85.7631C66.5806 85.7631 58.2548 85.6995 58.2548 85.6253C58.2548 85.5511 66.5806 85.4875 76.8515 85.4875C87.1224 85.4875 95.4535 85.5299 95.4535 85.6253Z" fill="#263238"/>
<path d="M75.0814 72.2381C75.0814 72.3176 71.2497 72.3812 66.533 72.3812C61.8162 72.3812 57.9845 72.3176 57.9845 72.2381C57.9845 72.1586 61.8109 72.1003 66.533 72.1003C71.255 72.1003 75.0814 72.1639 75.0814 72.2381Z" fill="#263238"/>
<path d="M24.1934 63.6367H30.4312H47.8832L108.459 63.7427H108.592V63.8964C108.592 74.2309 108.592 85.4345 108.592 97.0621V97.1999H100.886L101.024 97.0621V104.264L100.79 104.031L93.9007 97.1416L93.9961 97.1787L24.1934 97.1257H24.098V97.0356C24.098 86.6269 24.1404 78.2693 24.151 72.5085C24.151 69.6413 24.151 67.4207 24.151 65.9103C24.151 65.1683 24.151 64.596 24.151 64.2091C24.151 63.8222 24.151 63.6367 24.151 63.6367C24.151 63.6367 24.151 63.8381 24.151 64.2303C24.151 64.6225 24.151 65.1948 24.151 65.9474C24.151 67.4631 24.151 69.689 24.151 72.5615C24.151 78.3117 24.1828 86.6481 24.204 97.0356L24.1086 96.9402L93.9272 96.8978H93.9855L94.0226 96.9349L100.912 103.825L100.674 103.925V96.8978H108.385L108.247 97.0356C108.247 85.408 108.247 74.2044 108.247 63.8699L108.38 64.0024L47.8938 63.7692L30.4047 63.6844H25.7356H24.5273L24.1934 63.6367Z" fill="#263238"/>
<path d="M238.944 171.396H192.942V182.939H238.944V171.396Z" fill="#455A64"/>
<path d="M232.345 175.164H204.31V179.171H232.345V175.164Z" fill="#263238"/>
<path d="M200.775 177.401C200.776 177.844 200.645 178.278 200.4 178.647C200.154 179.017 199.804 179.305 199.395 179.475C198.985 179.646 198.534 179.691 198.099 179.605C197.664 179.519 197.264 179.306 196.95 178.993C196.636 178.68 196.422 178.28 196.335 177.845C196.248 177.41 196.292 176.959 196.462 176.549C196.631 176.139 196.918 175.789 197.287 175.542C197.656 175.296 198.09 175.164 198.533 175.164C198.827 175.163 199.119 175.221 199.391 175.333C199.663 175.445 199.91 175.609 200.118 175.817C200.326 176.025 200.491 176.272 200.604 176.543C200.717 176.815 200.775 177.106 200.775 177.401Z" fill="#263238"/>
<path d="M234.534 165.105H197.791V171.348H234.534V165.105Z" fill="#263238"/>
<path d="M243.793 153.568H197.791V165.111H243.793V153.568Z" fill="#EC6980"/>
<path d="M211.798 159.048C211.835 158.466 212.041 157.908 212.392 157.442C212.742 156.977 213.222 156.624 213.77 156.428C214.319 156.233 214.914 156.202 215.48 156.341C216.046 156.48 216.559 156.781 216.955 157.209L216.155 157.951C215.988 157.752 215.78 157.592 215.544 157.483C215.309 157.374 215.052 157.318 214.793 157.32C214.35 157.344 213.934 157.537 213.63 157.859C213.325 158.181 213.155 158.607 213.155 159.05C213.155 159.493 213.325 159.92 213.63 160.241C213.934 160.563 214.35 160.756 214.793 160.781C215.053 160.783 215.311 160.727 215.547 160.616C215.783 160.505 215.991 160.342 216.155 160.139L216.955 160.881C216.561 161.313 216.049 161.62 215.481 161.761C214.914 161.903 214.318 161.874 213.767 161.678C213.216 161.483 212.736 161.128 212.385 160.66C212.035 160.192 211.831 159.631 211.798 159.048Z" fill="white"/>
<path d="M223.5 159.519H222.154V160.834H221.152V159.519H219.817V158.576H221.152V157.267H222.149V158.576H223.495L223.5 159.519Z" fill="white"/>
<path d="M228.174 159.519H226.828V160.834H225.832V159.519H224.496V158.576H225.832V157.267H226.828V158.576H228.174V159.519Z" fill="white"/>
<path d="M204.628 164.787C204.554 164.787 204.49 162.275 204.49 159.175C204.49 156.075 204.554 153.557 204.628 153.557C204.702 153.557 204.766 156.075 204.766 159.175C204.766 162.275 204.723 164.787 204.628 164.787Z" fill="#FAFAFA"/>
<path d="M202.603 164.787C202.529 164.787 202.465 162.275 202.465 159.175C202.465 156.075 202.529 153.557 202.603 153.557C202.743 155.426 202.789 157.301 202.741 159.175C202.789 161.047 202.743 162.92 202.603 164.787Z" fill="#FAFAFA"/>
<path d="M236.469 164.787C236.329 162.92 236.283 161.047 236.331 159.175C236.283 157.301 236.329 155.426 236.469 153.557C236.543 153.557 236.606 156.075 236.606 159.175C236.606 162.275 236.522 164.787 236.469 164.787Z" fill="#FAFAFA"/>
<path d="M234.465 164.787C234.391 164.787 234.327 162.275 234.327 159.175C234.327 156.075 234.391 153.557 234.465 153.557C234.539 153.557 234.603 156.075 234.603 159.175C234.603 162.275 234.539 164.787 234.465 164.787Z" fill="#FAFAFA"/>
<path d="M212.991 168.153C212.985 167.986 213.014 167.821 213.076 167.667C213.138 167.512 213.231 167.373 213.35 167.256C213.468 167.14 213.61 167.049 213.765 166.99C213.92 166.931 214.086 166.904 214.252 166.912C214.44 166.9 214.629 166.938 214.797 167.023C214.966 167.108 215.109 167.236 215.211 167.395L214.967 167.564C214.889 167.448 214.782 167.353 214.657 167.289C214.532 167.225 214.392 167.194 214.252 167.199C213.999 167.199 213.756 167.299 213.577 167.478C213.399 167.657 213.298 167.9 213.298 168.153C213.298 168.406 213.399 168.648 213.577 168.827C213.756 169.006 213.999 169.106 214.252 169.106C214.391 169.112 214.53 169.082 214.655 169.02C214.78 168.958 214.887 168.866 214.967 168.751L215.211 168.916C215.109 169.075 214.967 169.205 214.798 169.29C214.629 169.376 214.441 169.415 214.252 169.403C214.085 169.411 213.919 169.384 213.763 169.323C213.607 169.263 213.466 169.172 213.347 169.054C213.229 168.937 213.136 168.796 213.075 168.641C213.013 168.486 212.985 168.319 212.991 168.153Z" fill="#EBEBEB"/>
<path d="M215.519 169.101L215.672 168.836C215.925 169.02 216.23 169.116 216.542 169.112C217.008 169.112 217.199 168.953 217.199 168.714C217.199 168.073 215.609 168.577 215.609 167.607C215.609 167.209 215.953 166.912 216.579 166.912C216.882 166.904 217.182 166.983 217.442 167.14L217.299 167.405C217.086 167.263 216.835 167.189 216.579 167.193C216.133 167.193 215.943 167.368 215.943 167.601C215.943 168.264 217.533 167.76 217.533 168.704C217.533 169.128 217.162 169.403 216.526 169.403C216.166 169.414 215.813 169.308 215.519 169.101Z" fill="#EBEBEB"/>
<path d="M217.798 169.101L217.951 168.836C218.203 169.021 218.508 169.118 218.82 169.112C219.287 169.112 219.478 168.953 219.478 168.714C219.478 168.073 217.888 168.577 217.888 167.607C217.888 167.209 218.232 166.912 218.858 166.912C219.161 166.904 219.461 166.983 219.721 167.14L219.578 167.405C219.365 167.263 219.114 167.189 218.858 167.193C218.412 167.193 218.222 167.368 218.222 167.601C218.222 168.264 219.811 167.76 219.811 168.704C219.811 169.128 219.441 169.403 218.805 169.403C218.445 169.414 218.092 169.308 217.798 169.101Z" fill="#EBEBEB"/>
<path d="M203.197 169.34C203.811 169.34 204.31 168.842 204.31 168.227C204.31 167.612 203.811 167.114 203.197 167.114C202.582 167.114 202.084 167.612 202.084 168.227C202.084 168.842 202.582 169.34 203.197 169.34Z" fill="#EBEBEB"/>
<path d="M231.089 169.34C231.704 169.34 232.202 168.842 232.202 168.227C232.202 167.612 231.704 167.114 231.089 167.114C230.475 167.114 229.976 167.612 229.976 168.227C229.976 168.842 230.475 169.34 231.089 169.34Z" fill="#EBEBEB"/>
<path d="M91.0281 109.474H13.7475C10.2351 109.474 7.38782 112.321 7.38782 115.834V164.438C7.38782 167.95 10.2351 170.797 13.7475 170.797H91.0281C94.5405 170.797 97.3878 167.95 97.3878 164.438V115.834C97.3878 112.321 94.5405 109.474 91.0281 109.474Z" fill="#263238"/>
<path d="M37.3472 156.223L32.3655 184.433H55.7479L59.9824 155.645L37.3472 156.223Z" fill="#455A64"/>
<path d="M87.4561 109.474H10.1755C6.66312 109.474 3.8158 112.321 3.8158 115.834V164.438C3.8158 167.95 6.66312 170.797 10.1755 170.797H87.4561C90.9684 170.797 93.8158 167.95 93.8158 164.438V115.834C93.8158 112.321 90.9684 109.474 87.4561 109.474Z" fill="#455A64"/>
<path d="M57.7565 170.797L59.9824 155.645L60.6024 170.797H57.7565Z" fill="#263238"/>
<path d="M37.4744 154.654C37.5486 154.654 36.9815 158.422 36.2078 163.038C35.434 167.655 34.7503 171.391 34.6708 171.38C34.5913 171.37 35.1637 167.612 35.9375 162.996C36.7112 158.38 37.4002 154.644 37.4744 154.654Z" fill="#263238"/>
<path d="M51.7678 138.013C51.7678 138.597 51.5947 139.168 51.2703 139.653C50.9459 140.139 50.4849 140.517 49.9455 140.74C49.4061 140.964 48.8126 141.022 48.2399 140.908C47.6673 140.795 47.1413 140.513 46.7285 140.101C46.3157 139.688 46.0345 139.162 45.9206 138.589C45.8067 138.017 45.8652 137.423 46.0886 136.884C46.312 136.344 46.6904 135.883 47.1758 135.559C47.6613 135.234 48.232 135.061 48.8158 135.061C49.2037 135.061 49.5879 135.136 49.9463 135.285C50.3048 135.433 50.6305 135.65 50.9047 135.924C51.179 136.199 51.3964 136.524 51.5445 136.883C51.6926 137.241 51.7685 137.625 51.7678 138.013Z" fill="#FAFAFA"/>
<path d="M48.8158 140.976C48.2299 140.976 47.6571 140.802 47.1699 140.476C46.6827 140.151 46.303 139.688 46.0788 139.147C45.8546 138.605 45.7959 138.01 45.9102 137.435C46.0245 136.86 46.3067 136.333 46.721 135.918C47.1353 135.504 47.6632 135.222 48.2379 135.107C48.8125 134.993 49.4082 135.052 49.9495 135.276C50.4909 135.5 50.9536 135.88 51.2791 136.367C51.6046 136.854 51.7784 137.427 51.7784 138.013C51.777 138.798 51.4644 139.551 50.9091 140.106C50.3538 140.662 49.6011 140.974 48.8158 140.976ZM48.8158 135.077C48.2351 135.077 47.6675 135.249 47.1846 135.572C46.7018 135.894 46.3255 136.353 46.1033 136.89C45.881 137.426 45.8229 138.016 45.9362 138.586C46.0495 139.155 46.3291 139.679 46.7397 140.089C47.1503 140.5 47.6735 140.779 48.243 140.893C48.8126 141.006 49.4029 140.948 49.9394 140.726C50.4759 140.503 50.9344 140.127 51.2571 139.644C51.5797 139.161 51.7519 138.594 51.7519 138.013C51.7505 137.235 51.4407 136.489 50.8904 135.939C50.3401 135.388 49.5941 135.078 48.8158 135.077Z" fill="#263238"/>
<path d="M26.3396 127.726C26.3396 127.726 27.7282 125.765 27.2565 123.587C27.2565 123.587 27.2565 122.882 26.1965 121.499C25.8626 121.059 25.4824 120.655 25.0624 120.296C24.6879 119.97 24.2854 119.677 23.8594 119.422C23.7163 119.332 23.6262 119.284 23.6262 119.284C22.0691 118.405 20.2424 118.131 18.496 118.515C17.157 118.79 15.9344 119.469 14.9929 120.46C14.679 120.789 14.4099 121.158 14.1927 121.557C13.6423 122.472 13.2879 123.49 13.152 124.548C13.016 125.607 13.1015 126.682 13.403 127.705C13.4454 127.843 13.4931 127.981 13.5461 128.113V128.161C13.5461 128.209 13.5832 128.256 13.6044 128.299L13.6468 128.394C13.6945 128.505 13.7369 128.611 13.7899 128.717C13.9192 128.982 14.0643 129.239 14.2245 129.486C14.3859 129.776 14.5836 130.045 14.8127 130.286C15.2509 130.806 15.8116 131.21 16.4444 131.46C17.0772 131.709 17.7622 131.798 18.4377 131.717C18.7076 132.208 19.1463 132.585 19.6726 132.777C20.6954 133.01 22.3595 132.496 23.5679 131.849C24.7762 131.203 26.5092 129.968 26.4827 128.913C26.4675 128.517 26.4052 128.124 26.2972 127.742L26.3396 127.726Z" fill="#263238"/>
<path d="M17.3513 118.515C16.0228 118.794 14.8115 119.473 13.8799 120.46C13.5644 120.789 13.2935 121.158 13.0744 121.557C12.3695 122.914 11.1559 125.527 12.7087 128.717C14.2615 131.908 16.5616 131.828 17.6003 131.68C18.6391 131.532 25.2214 127.726 25.2214 127.726C25.2214 127.726 27.2353 124.891 25.5976 122.252C24.1932 119.994 21.183 117.694 17.3513 118.515Z" fill="#EC6980"/>
<path d="M16.869 130.795C16.869 130.795 17.5792 132.533 18.602 132.761C19.6249 132.989 21.2837 132.48 22.492 131.834C23.7004 131.187 25.4334 129.952 25.4069 128.898C25.3804 127.843 24.8769 126.672 24.702 126.576C23.8823 126.358 23.0261 126.314 22.1883 126.447C21.3505 126.579 20.5496 126.885 19.8369 127.345C18.4619 128.097 17.4071 129.323 16.869 130.795Z" fill="#F5F5F5"/>
<g opacity="0.4">
<path d="M20.4304 120.736C20.758 121.345 20.8977 122.038 20.8319 122.726C20.7661 123.414 20.4978 124.068 20.0607 124.604C19.6237 125.14 19.0376 125.534 18.3765 125.737C17.7155 125.94 17.0091 125.942 16.3466 125.744C15.6842 125.546 15.0954 125.155 14.6546 124.622C14.2139 124.09 13.941 123.438 13.8704 122.75C13.7999 122.062 13.9348 121.369 14.2581 120.757C14.5815 120.146 15.0788 119.645 15.6872 119.316C16.0918 119.097 16.5355 118.96 16.993 118.914C17.4505 118.867 17.9128 118.91 18.3534 119.042C18.7939 119.174 19.2042 119.392 19.5606 119.682C19.917 119.973 20.2126 120.331 20.4304 120.736Z" fill="white"/>
</g>
<g opacity="0.4">
<path d="M13.7315 130.286C14.185 129.308 14.2679 128.199 13.9647 127.165C13.6305 126.157 12.9386 125.306 12.0197 124.774C11.9447 125.973 12.1254 127.175 12.5497 128.299C12.8203 129.027 13.2207 129.701 13.7315 130.286Z" fill="white"/>
</g>
<g opacity="0.4">
<path d="M26.1541 123.593C25.0892 123.431 24.1182 122.891 23.4195 122.072C22.7604 121.297 22.4245 120.299 22.4814 119.284C23.4795 119.862 24.3661 120.614 25.0995 121.505C26.1488 122.893 26.1541 123.593 26.1541 123.593Z" fill="white"/>
</g>
<path d="M16.8796 130.774C16.8969 130.915 16.94 131.051 17.0068 131.176C17.0423 131.238 17.0957 131.288 17.16 131.32C17.2243 131.351 17.2965 131.362 17.3672 131.351C17.5209 131.314 17.6057 131.166 17.6746 131.028C18.4096 129.643 19.5259 128.497 20.8915 127.726C21.4351 127.396 22.0487 127.198 22.6828 127.149C23.2552 127.149 23.8117 127.292 24.3841 127.324C24.5302 127.34 24.6782 127.318 24.8133 127.26C24.9405 127.196 24.9352 127.048 24.9034 126.91C24.8943 126.844 24.8718 126.78 24.8372 126.722C24.8025 126.665 24.7565 126.615 24.702 126.576C23.1969 125.956 21.3314 126.412 19.9323 127.223C18.5833 128.074 17.5215 129.311 16.8849 130.774" fill="#E0E0E0"/>
<path d="M127.814 179.33H76.6129V182.939H127.814V179.33Z" fill="#455A64"/>
<path d="M64.3652 177.941H66.9303C68.021 177.941 69.0671 178.374 69.8383 179.146C70.6096 179.917 71.0429 180.963 71.0429 182.054V182.939H60.2844V182.054C60.2844 180.969 60.7133 179.927 61.4777 179.157C62.2421 178.387 63.28 177.95 64.3652 177.941Z" fill="#455A64"/>
<path d="M70.8573 181.815C69.1332 181.952 67.4031 181.998 65.6742 181.953C63.9435 181.998 62.2116 181.952 60.4857 181.815C62.2114 181.676 63.9435 181.63 65.6742 181.678C67.4031 181.63 69.1333 181.676 70.8573 181.815Z" fill="#263238"/>
<path d="M65.7538 177.899C65.877 178.525 65.9073 179.166 65.8439 179.802C65.8692 180.438 65.805 181.075 65.6531 181.694C65.5339 181.068 65.5053 180.429 65.5683 179.796C65.5415 179.158 65.604 178.52 65.7538 177.899Z" fill="#263238"/>
<path d="M246.22 182.939H0V190.104H246.22V182.939Z" fill="#263238"/>
</svg>
