<svg width="240" height="187" viewBox="0 0 240 187" fill="none" xmlns="http://www.w3.org/2000/svg">
<path d="M218.606 12.2293L214.51 12.2515L214.62 32.6306L218.716 32.6084L218.606 12.2293Z" fill="#E0E0E0"/>
<path d="M189.635 12.2852L179.031 12.3425L179.092 23.591L189.696 23.5336L189.635 12.2852Z" fill="#EBEBEB"/>
<path d="M200.189 12.228L189.586 12.2854L189.647 23.5339L200.25 23.4765L200.189 12.228Z" fill="#F5F5F5"/>
<path d="M179.049 15.4634C186.096 15.5212 193.162 15.4634 200.228 15.3672C200.254 15.3618 200.277 15.3476 200.294 15.327C200.311 15.3064 200.32 15.2806 200.32 15.254C200.32 15.2275 200.311 15.2017 200.294 15.1811C200.277 15.1605 200.254 15.1463 200.228 15.1409C193.181 15.1024 186.115 15.1409 179.049 15.2709C179.024 15.2709 178.999 15.281 178.981 15.2991C178.963 15.3171 178.953 15.3416 178.953 15.3672C178.953 15.3927 178.963 15.4172 178.981 15.4352C178.999 15.4533 179.024 15.4634 179.049 15.4634Z" fill="#E0E0E0"/>
<path d="M191.689 23.3494L172.422 23.4536L172.471 32.6228L191.739 32.5185L191.689 23.3494Z" fill="#EBEBEB"/>
<path d="M210.865 23.2454L191.598 23.3496L191.647 32.5188L210.915 32.4145L210.865 23.2454Z" fill="#F5F5F5"/>
<path d="M172.428 26.0141C185.232 26.1633 198.078 26.0141 210.877 25.8264C210.903 25.821 210.926 25.8068 210.943 25.7862C210.96 25.7656 210.969 25.7398 210.969 25.7133C210.969 25.6867 210.96 25.661 210.943 25.6404C210.926 25.6198 210.903 25.6056 210.877 25.6002C198.073 25.5328 185.227 25.5424 172.428 25.8216C172.403 25.8216 172.378 25.8317 172.36 25.8498C172.342 25.8678 172.332 25.8923 172.332 25.9178C172.332 25.9434 172.342 25.9679 172.36 25.9859C172.378 26.004 172.403 26.0141 172.428 26.0141Z" fill="#E0E0E0"/>
<path d="M239.878 32.6323H165.225V35.915H239.878V32.6323Z" fill="#E0E0E0"/>
<path d="M180.482 34.2161H177.449V45.4214H180.482V34.2161Z" fill="#E0E0E0"/>
<path d="M225.716 34.2161H222.684V45.4214H225.716V34.2161Z" fill="#E0E0E0"/>
<path d="M222.598 4.63165L218.502 4.65381L218.654 32.6811L222.75 32.6589L222.598 4.63165Z" fill="#EBEBEB"/>
<path d="M229.004 9.85327L222.641 9.8877L222.764 32.6012L229.127 32.5668L229.004 9.85327Z" fill="#F5F5F5"/>
<path d="M228.957 14.2408C226.838 14.3884 224.712 14.3884 222.594 14.2408C224.712 14.0932 226.838 14.0932 228.957 14.2408Z" fill="#E0E0E0"/>
<path d="M228.957 13.2879C226.838 13.4356 224.712 13.4356 222.594 13.2879C224.712 13.1403 226.838 13.1403 228.957 13.2879Z" fill="#E0E0E0"/>
<path d="M228.957 29.162C226.838 29.3096 224.712 29.3096 222.594 29.162C224.712 29.0144 226.838 29.0144 228.957 29.162Z" fill="#E0E0E0"/>
<path d="M228.957 28.2091C226.838 28.3567 224.712 28.3567 222.594 28.2091C224.712 28.0615 226.838 28.0615 228.957 28.2091Z" fill="#E0E0E0"/>
<path d="M225.877 26.1249C225.82 26.1249 225.771 23.8338 225.771 21.0084C225.771 18.183 225.82 15.8918 225.877 15.8918C225.935 15.8918 225.988 18.183 225.988 21.0084C225.988 23.8338 225.94 26.1249 225.877 26.1249Z" fill="#E0E0E0"/>
<path d="M235.956 15.4441H229.029V32.589H235.956V15.4441Z" fill="#EBEBEB"/>
<path d="M221.669 9.43226C221.67 9.6659 221.602 9.89456 221.472 10.0892C221.343 10.2839 221.159 10.4358 220.943 10.5256C220.728 10.6155 220.49 10.6392 220.261 10.5939C220.032 10.5485 219.821 10.4361 219.656 10.2709C219.491 10.1057 219.378 9.89515 219.333 9.66595C219.288 9.43675 219.311 9.19924 219.401 8.98357C219.491 8.76789 219.643 8.58377 219.838 8.45456C220.032 8.32535 220.261 8.25687 220.495 8.25782C220.806 8.25909 221.104 8.38323 221.324 8.60321C221.544 8.82319 221.668 9.12117 221.669 9.43226Z" fill="#E0E0E0"/>
<path d="M220.854 12.6716H220.127V29.3448H220.854V12.6716Z" fill="#E0E0E0"/>
<path d="M178.644 1.02002H106.926V69.8499H178.644V1.02002Z" fill="white"/>
<path d="M144.28 73.5163C144.28 74.1827 144.069 74.8341 143.672 75.3881C143.275 75.9422 142.712 76.3741 142.052 76.6291C141.392 76.8841 140.667 76.9508 139.966 76.8208C139.266 76.6908 138.623 76.3699 138.118 75.8987C137.613 75.4275 137.269 74.8272 137.13 74.1736C136.991 73.52 137.062 72.8426 137.335 72.2269C137.609 71.6112 138.071 71.085 138.665 70.7148C139.259 70.3446 139.957 70.147 140.671 70.147C141.628 70.147 142.546 70.502 143.223 71.1338C143.9 71.7657 144.28 72.6227 144.28 73.5163Z" fill="#E0E0E0"/>
<path d="M178.458 1.2583H106.74V6.07158H178.458V1.2583Z" fill="#F5F5F5"/>
<path d="M119.891 70.0881H178.458V59.0176H106.74V70.0881H110.478" fill="#BDD0FF"/>
<path d="M116.847 3.6648C116.847 3.8552 116.791 4.04132 116.685 4.19962C116.579 4.35793 116.429 4.48132 116.253 4.55418C116.077 4.62704 115.883 4.64611 115.697 4.60896C115.51 4.57182 115.338 4.48013 115.204 4.3455C115.069 4.21087 114.978 4.03934 114.94 3.85261C114.903 3.66587 114.922 3.47231 114.995 3.29641C115.068 3.12051 115.191 2.97017 115.35 2.86439C115.508 2.75861 115.694 2.70215 115.885 2.70215C116.14 2.70215 116.385 2.80356 116.565 2.9841C116.746 3.16463 116.847 3.40949 116.847 3.6648Z" fill="white"/>
<path d="M111.072 3.6648C111.072 3.8552 111.015 4.04132 110.91 4.19962C110.804 4.35793 110.653 4.48132 110.478 4.55418C110.302 4.62704 110.108 4.64611 109.921 4.60896C109.735 4.57182 109.563 4.48013 109.428 4.3455C109.294 4.21087 109.202 4.03934 109.165 3.85261C109.128 3.66587 109.147 3.47231 109.22 3.29641C109.293 3.12051 109.416 2.97017 109.574 2.86439C109.733 2.75861 109.919 2.70215 110.109 2.70215C110.364 2.70215 110.609 2.80356 110.79 2.9841C110.97 3.16463 111.072 3.40949 111.072 3.6648Z" fill="white"/>
<path d="M113.96 3.6648C113.96 3.8552 113.904 4.04132 113.798 4.19962C113.692 4.35793 113.542 4.48132 113.366 4.55418C113.19 4.62704 112.997 4.64611 112.81 4.60896C112.623 4.57182 112.452 4.48013 112.317 4.3455C112.182 4.21087 112.091 4.03934 112.054 3.85261C112.017 3.66587 112.036 3.47231 112.108 3.29641C112.181 3.12051 112.305 2.97017 112.463 2.86439C112.621 2.75861 112.807 2.70215 112.998 2.70215C113.253 2.70215 113.498 2.80356 113.679 2.9841C113.859 3.16463 113.96 3.40949 113.96 3.6648Z" fill="white"/>
<path d="M172.922 13.7727C172.858 13.7727 172.797 13.7651 172.752 13.7515C172.707 13.7379 172.682 13.7195 172.682 13.7003V12.8825C172.682 12.8633 172.707 12.8449 172.752 12.8313C172.797 12.8177 172.858 12.8101 172.922 12.8101C172.986 12.8101 173.047 12.8177 173.092 12.8313C173.138 12.8449 173.163 12.8633 173.163 12.8825V13.7003C173.163 13.7195 173.138 13.7379 173.092 13.7515C173.047 13.7651 172.986 13.7727 172.922 13.7727Z" fill="#E0E0E0"/>
<path d="M144.283 45.5405C141.092 45.5405 138.031 44.2727 135.774 42.0161C133.518 39.7594 132.25 36.6987 132.25 33.5073C132.25 30.3159 133.518 27.2552 135.774 24.9986C138.031 22.7419 141.092 21.4741 144.283 21.4741C147.475 21.4741 150.535 22.7419 152.792 24.9986C155.049 27.2552 156.316 30.3159 156.316 33.5073C156.316 36.6987 155.049 39.7594 152.792 42.0161C150.535 44.2727 147.475 45.5405 144.283 45.5405Z" fill="#F5F5F5"/>
<path d="M145.464 33.6299C146.125 33.4118 146.689 32.9552 147.055 32.3425C147.42 31.7298 147.563 31.0014 147.457 30.289C147.351 29.5767 147.003 28.9273 146.476 28.4582C145.949 27.9891 145.278 27.7312 144.584 27.7312C143.891 27.7312 143.22 27.9891 142.693 28.4582C142.166 28.9273 141.818 29.5767 141.712 30.289C141.606 31.0014 141.748 31.7298 142.114 32.3425C142.479 32.9552 143.044 33.4118 143.705 33.6299C142.523 33.8289 141.448 34.4585 140.671 35.4061C139.895 36.3537 139.469 37.5574 139.469 38.8017H149.577C149.573 37.5783 149.161 36.3939 148.411 35.4508C147.661 34.5076 146.619 33.8641 145.464 33.6299Z" fill="#9A9A9A"/>
<path d="M155.485 63.3496H154.741C154.547 63.3496 154.391 63.5586 154.391 63.8163V64.8082C154.391 65.066 154.547 65.2749 154.741 65.2749H155.485C155.678 65.2749 155.835 65.066 155.835 64.8082V63.8163C155.835 63.5586 155.678 63.3496 155.485 63.3496Z" fill="white"/>
<path d="M156.316 64.8621V64.3079L156.671 63.8603C156.681 63.8467 156.695 63.8372 156.71 63.8332C156.724 63.8292 156.74 63.8308 156.754 63.8379C156.768 63.8451 156.78 63.8572 156.788 63.8728C156.795 63.8883 156.799 63.9063 156.797 63.9243V65.1818C156.799 65.1998 156.795 65.2178 156.788 65.2333C156.78 65.2488 156.768 65.261 156.754 65.2681C156.74 65.2753 156.724 65.2769 156.71 65.2729C156.695 65.2689 156.681 65.2594 156.671 65.2457L156.316 64.8621Z" fill="white"/>
<path d="M142.863 66.6916C142.392 66.2205 142.072 65.6204 141.942 64.9672C141.812 64.3139 141.878 63.6369 142.134 63.0216C142.389 62.4063 142.82 61.8804 143.374 61.5104C143.929 61.1404 144.58 60.9429 145.246 60.9429C145.913 60.9429 146.564 61.1404 147.118 61.5104C147.672 61.8804 148.104 62.4063 148.359 63.0216C148.614 63.6369 148.681 64.3139 148.551 64.9672C148.421 65.6204 148.1 66.2205 147.629 66.6916C147.317 67.0053 146.945 67.2543 146.537 67.4241C146.128 67.594 145.689 67.6815 145.246 67.6815C144.803 67.6815 144.365 67.594 143.956 67.4241C143.547 67.2543 143.176 67.0053 142.863 66.6916Z" fill="#E0E0E0"/>
<path d="M144.051 64.7532L144.636 64.6438C144.671 64.6362 144.702 64.6198 144.724 64.5969C144.746 64.574 144.758 64.546 144.759 64.5171V64.4192C144.755 64.3986 144.756 64.3776 144.763 64.3574C144.769 64.3373 144.781 64.3185 144.798 64.3023C144.814 64.286 144.834 64.2726 144.857 64.263C144.88 64.2534 144.906 64.2477 144.932 64.2464H145.949C145.949 64.2464 146.18 64.2464 146.18 64.3904V64.5286C146.178 64.552 146.186 64.5753 146.203 64.5943C146.22 64.6134 146.246 64.6268 146.274 64.6322L146.909 64.7877C146.925 64.7923 146.943 64.7943 146.96 64.7936C146.977 64.7928 146.993 64.7895 147.009 64.7836C147.024 64.7777 147.038 64.7694 147.049 64.7593C147.061 64.7491 147.07 64.7373 147.075 64.7244L147.162 64.5689C147.173 64.5388 147.173 64.5069 147.162 64.4767C147.158 64.3926 147.12 64.3117 147.054 64.2464C146.796 64.0814 146.498 63.9613 146.178 63.8939C145.859 63.8265 145.525 63.8131 145.199 63.8548C144.124 63.8951 143.885 64.2579 143.828 64.3443C143.792 64.4224 143.792 64.5081 143.828 64.5862C143.828 64.5862 143.828 64.6438 143.871 64.6783C143.886 64.705 143.913 64.7268 143.945 64.7404C143.978 64.7539 144.015 64.7584 144.051 64.7532Z" fill="white"/>
<path d="M138.506 64.3122C138.506 64.9785 138.309 65.63 137.938 66.184C137.568 66.7381 137.042 67.17 136.426 67.425C135.811 67.68 135.133 67.7467 134.48 67.6167C133.826 67.4867 133.226 67.1658 132.754 66.6946C132.283 66.2234 131.962 65.6231 131.832 64.9695C131.702 64.3159 131.769 63.6385 132.024 63.0228C132.279 62.4071 132.711 61.8809 133.265 61.5107C133.819 61.1405 134.47 60.9429 135.137 60.9429C136.03 60.9448 136.886 61.3004 137.517 61.9319C138.149 62.5633 138.504 63.4192 138.506 64.3122Z" fill="#E0E0E0"/>
<path d="M133.939 64.7934C133.891 64.7954 133.844 64.769 133.804 64.7174C133.764 64.6658 133.732 64.5913 133.713 64.5036C133.694 64.4158 133.689 64.3187 133.697 64.2247C133.706 64.1307 133.729 64.0439 133.762 63.9755C133.795 63.9072 133.838 63.8603 133.885 63.8409C133.932 63.8214 133.981 63.8303 134.025 63.8664C134.069 63.9025 134.107 63.9642 134.134 64.0436C134.16 64.1229 134.175 64.2164 134.175 64.312C134.175 64.4379 134.15 64.5588 134.106 64.6487C134.062 64.7387 134.002 64.7906 133.939 64.7934Z" fill="white"/>
<path d="M134.9 64.7936C134.852 64.7957 134.805 64.7692 134.765 64.7176C134.725 64.666 134.693 64.5916 134.674 64.5038C134.655 64.4161 134.65 64.319 134.658 64.2249C134.667 64.1309 134.689 64.0442 134.723 63.9758C134.756 63.9074 134.799 63.8605 134.846 63.8411C134.893 63.8217 134.942 63.8306 134.986 63.8667C135.03 63.9028 135.068 63.9644 135.095 64.0438C135.121 64.1232 135.136 64.2166 135.136 64.3123C135.136 64.4381 135.111 64.559 135.067 64.649C135.023 64.7389 134.963 64.7909 134.9 64.7936Z" fill="white"/>
<path d="M136.1 64.7935C136.005 64.7935 135.912 64.7652 135.833 64.7123C135.754 64.6595 135.692 64.5843 135.656 64.4963C135.619 64.4084 135.61 64.3116 135.628 64.2182C135.647 64.1249 135.693 64.0391 135.76 63.9718C135.827 63.9045 135.913 63.8586 136.007 63.8401C136.1 63.8215 136.197 63.831 136.285 63.8674C136.373 63.9039 136.448 63.9656 136.501 64.0447C136.554 64.1239 136.582 64.2169 136.582 64.3121C136.582 64.3753 136.569 64.4379 136.545 64.4963C136.521 64.5547 136.485 64.6078 136.441 64.6525C136.396 64.6972 136.343 64.7326 136.285 64.7568C136.226 64.781 136.164 64.7935 136.1 64.7935Z" fill="white"/>
<path d="M114.441 13.5322C114.441 13.9606 114.314 14.3793 114.076 14.7355C113.838 15.0917 113.5 15.3693 113.104 15.5333C112.708 15.6972 112.273 15.7401 111.853 15.6565C111.433 15.573 111.047 15.3667 110.744 15.0638C110.441 14.7608 110.235 14.3749 110.151 13.9547C110.067 13.5346 110.11 13.0991 110.274 12.7033C110.438 12.3075 110.716 11.9692 111.072 11.7312C111.428 11.4932 111.847 11.3662 112.275 11.3662C112.85 11.3662 113.401 11.5944 113.807 12.0006C114.213 12.4068 114.441 12.9577 114.441 13.5322Z" fill="#E0E0E0"/>
<path d="M124.548 13.0507C121.826 13.3716 119.087 13.3716 116.365 13.0507C119.087 12.7298 121.826 12.7298 124.548 13.0507Z" fill="#E0E0E0"/>
<path d="M161.609 49.1506C161.609 49.2802 154.282 49.3912 145.244 49.3912C136.206 49.3912 128.879 49.2802 128.879 49.1506C128.879 49.021 136.199 48.9099 145.244 48.9099C154.289 48.9099 161.609 49.0117 161.609 49.1506Z" fill="#E0E0E0"/>
<path d="M178.688 69.9996C178.688 69.9996 178.688 69.8816 178.688 69.6678C178.688 69.4541 178.688 69.1298 178.688 68.717C178.688 67.8693 178.688 66.6309 178.688 65.0314C178.688 61.7881 178.688 57.0484 178.644 51.0262C178.644 38.9669 178.592 21.7478 178.563 1.0717L178.725 1.23386H106.888L107.08 1.04222C107.08 26.2369 107.08 49.8762 107.08 69.9922L106.91 69.8226L158.919 69.9111L173.55 69.9553H177.419H178.415H177.456H173.617L159.029 69.9996L106.91 70.088H106.74V69.9185C106.74 49.8025 106.74 26.1632 106.74 0.968502V0.776855H106.94H178.777H178.939V0.939022C178.939 21.6594 178.88 38.9153 178.858 50.9967C178.858 57.0116 178.858 61.7365 178.814 65.0019C178.814 66.6014 178.814 67.8324 178.814 68.6875C178.814 69.0929 178.814 69.4246 178.814 69.6236C178.814 69.8226 178.688 69.9996 178.688 69.9996Z" fill="white"/>
<path d="M62.3451 8.67188H56.9013C56.561 8.67188 56.2852 8.94771 56.2852 9.28798V14.7318C56.2852 15.0721 56.561 15.3479 56.9013 15.3479H62.3451C62.6853 15.3479 62.9612 15.0721 62.9612 14.7318V9.28798C62.9612 8.94771 62.6853 8.67188 62.3451 8.67188Z" fill="white"/>
<path d="M63.5664 13.1964V10.9438L65.2511 9.13881C65.3011 9.08633 65.3656 9.04989 65.4364 9.03413C65.5071 9.01838 65.581 9.02401 65.6486 9.05031C65.7161 9.07662 65.7744 9.12241 65.8158 9.18187C65.8573 9.24134 65.8802 9.31179 65.8816 9.38429V14.5152C65.8825 14.5864 65.8623 14.6563 65.8236 14.7161C65.7849 14.7758 65.7294 14.8228 65.6641 14.8511C65.5988 14.8794 65.5265 14.8878 65.4564 14.8751C65.3864 14.8624 65.3216 14.8293 65.2703 14.78L63.5664 13.1964Z" fill="white"/>
<path d="M38.8046 127.651C37.8701 127.651 36.974 127.28 36.3132 126.619C35.6525 125.959 35.2812 125.062 35.2812 124.128C35.2812 123.194 35.6525 122.297 36.3132 121.637C36.974 120.976 37.8701 120.605 38.8046 120.605C39.739 120.605 40.6352 120.976 41.2959 121.637C41.9567 122.297 42.3279 123.194 42.3279 124.128C42.3279 125.062 41.9567 125.959 41.2959 126.619C40.6352 127.28 39.739 127.651 38.8046 127.651Z" fill="#F5F5F5"/>
<path d="M38.6824 124.152C38.8091 124.111 38.9171 124.027 38.987 123.913C39.0568 123.8 39.0838 123.666 39.0632 123.534C39.0426 123.403 38.9757 123.283 38.8745 123.196C38.7734 123.11 38.6447 123.062 38.5116 123.062C38.3785 123.062 38.2498 123.11 38.1486 123.196C38.0475 123.283 37.9806 123.403 37.96 123.534C37.9394 123.666 37.9664 123.8 38.0362 123.913C38.106 124.027 38.214 124.111 38.3407 124.152C38.1103 124.186 37.8999 124.302 37.7486 124.479C37.5972 124.656 37.5152 124.882 37.5176 125.115H39.4766C39.4802 124.886 39.4022 124.664 39.2567 124.487C39.1111 124.311 38.9076 124.192 38.6824 124.152Z" fill="#E0E0E0"/>
<path d="M39.7811 124.32C39.7593 124.32 39.7385 124.312 39.7232 124.296C39.7078 124.281 39.6992 124.26 39.6992 124.239V123.338C39.6992 123.317 39.7078 123.296 39.7232 123.281C39.7385 123.265 39.7593 123.257 39.7811 123.257C39.8028 123.257 39.8236 123.265 39.8389 123.281C39.8542 123.296 39.8629 123.317 39.8629 123.338V124.239C39.8629 124.26 39.8543 124.281 39.8389 124.296C39.8236 124.312 39.8028 124.32 39.7811 124.32Z" fill="#E0E0E0"/>
<path d="M40.2293 123.868H39.3533C39.3324 123.868 39.3123 123.86 39.2971 123.846C39.2819 123.831 39.2727 123.812 39.2715 123.791C39.2715 123.769 39.2801 123.748 39.2955 123.733C39.3108 123.718 39.3316 123.709 39.3533 123.709H40.2534C40.2643 123.708 40.2753 123.71 40.2855 123.714C40.2958 123.718 40.3051 123.724 40.3128 123.732C40.3206 123.739 40.3266 123.749 40.3304 123.759C40.3343 123.769 40.3359 123.78 40.3352 123.791C40.3362 123.804 40.3338 123.817 40.3283 123.829C40.3228 123.841 40.3143 123.851 40.3037 123.859C40.2931 123.867 40.2807 123.872 40.2677 123.873C40.2547 123.875 40.2415 123.873 40.2293 123.868Z" fill="#E0E0E0"/>
<path d="M53.339 157.886H48.5542L46.7793 136.341H52.4141L53.339 157.886Z" fill="#263238"/>
<path d="M94.8203 157.886H99.6105L101.385 136.341H95.7452L94.8203 157.886Z" fill="#263238"/>
<path d="M104.676 170.53L43.0667 171.979L41.1902 132.188C41.1439 131.263 41.2858 130.339 41.6072 129.471C41.9287 128.603 42.4231 127.809 43.0604 127.138C43.6978 126.466 44.4648 125.932 45.315 125.565C46.1652 125.199 47.0809 125.01 48.0065 125.008H100.495C101.437 125.003 102.37 125.193 103.235 125.566C104.101 125.939 104.88 126.487 105.523 127.175C106.167 127.864 106.661 128.677 106.975 129.566C107.289 130.454 107.417 131.398 107.349 132.337L104.676 170.53Z" fill="#455A64"/>
<path d="M107.831 132.049H107.654H107.152H105.211L98.0685 132.075C92.0381 132.075 83.7088 132.016 74.5134 132.23C65.3127 132.535 56.9727 132.482 50.9423 132.391C47.927 132.343 45.4892 132.284 43.8052 132.236L41.8645 132.171L41.3566 132.145H41.1855C41.2441 132.137 41.3035 132.137 41.362 132.145H41.8645H43.8052L50.9476 132.214C56.9781 132.252 65.3073 132.273 74.5027 131.968C83.7088 131.754 92.0381 131.856 98.0685 131.893L105.211 131.958H107.152H107.654C107.717 131.979 107.777 132.009 107.831 132.049Z" fill="#263238"/>
<path d="M63.6626 125.655C62.2777 125.854 60.9301 126.258 59.6637 126.852C58.4398 127.531 57.3213 128.385 56.3438 129.386C56.5376 129.015 56.7945 128.681 57.1029 128.397C58.5285 126.938 60.3933 125.986 62.4116 125.687C62.8236 125.604 63.2469 125.593 63.6626 125.655Z" fill="#263238"/>
<g opacity="0.3">
<path d="M55.7598 125.008C57.5828 127.045 60.5713 127.937 63.2711 128.349C68.1361 129.092 73.124 129.488 77.9783 128.659C81.0898 128.124 84.1692 127.098 87.318 127.317C90.4669 127.536 93.7762 129.055 96.8823 128.173C97.7166 127.932 98.4945 127.527 99.1702 126.982C99.8459 126.437 100.406 125.762 100.817 124.997C101.074 124.511 101.239 123.832 100.817 123.473C100.603 123.292 100.138 123.917 99.8601 123.896C85.2651 122.784 70.3654 126.034 55.7598 125.008Z" fill="black"/>
</g>
<g opacity="0.3">
<path d="M93.3392 134.593C93.0772 135.946 93.7348 137.341 94.6917 138.336C95.708 139.268 96.8465 140.057 98.0758 140.683C100.059 141.832 102.032 143.147 103.272 145.072C105.625 148.728 104.753 153.524 105.748 157.753C105.748 157.753 106.582 139.496 106.405 139.955" fill="black"/>
</g>
<path d="M74.7364 13.5784C75.8169 14.6765 76.616 16.0195 77.0656 17.4931C77.5152 18.9666 77.602 20.527 77.3186 22.0413C77.0299 23.5061 76.4204 25.1421 77.2491 26.3824C78.0777 27.6227 79.9221 27.7991 80.7187 29.0554C81.6329 30.5363 80.4995 32.4449 80.6813 34.1717C80.7952 34.9815 81.1932 35.7245 81.8043 36.268C82.4153 36.8115 83.1997 37.1202 84.0173 37.1388C81.9361 38.4597 79.5318 39.1829 77.0673 39.2292L75.4955 36.6363C76.0996 37.5505 75.7575 38.8549 74.9609 39.6248C74.1257 40.3436 73.0976 40.8009 72.0045 40.9399C69.4286 41.41 66.779 41.2807 64.2611 40.5623C61.7431 39.8438 59.4244 38.5553 57.4844 36.7967" fill="#263238"/>
<path d="M45.4434 23.3615C45.946 22.2923 46.6891 21.2979 47.074 20.1538C47.9027 17.716 47.0152 14.7489 48.4961 12.6692C49.5653 11.1616 51.4846 10.5949 53.3076 10.2635C55.1307 9.93199 57.0499 9.69677 58.4827 8.57408C59.5519 7.74542 60.2416 6.52115 61.3001 5.68715C62.813 4.50566 64.866 4.28647 66.7799 4.39339C68.7592 4.43818 70.6939 4.99043 72.3987 5.99723C73.2404 6.50897 73.9505 7.21071 74.4723 8.04624C74.994 8.88177 75.3128 9.82787 75.4032 10.8088C75.446 11.7711 75.2161 12.7441 75.4032 13.685C75.6171 14.7168 76.3067 15.5882 76.681 16.5719C77.0519 17.631 77.0604 18.7832 76.7053 19.8477C76.3501 20.9122 75.6514 21.8285 74.7189 22.4527L59.2739 38.1864C56.3335 38.9188 49.6508 36.8284 47.7316 34.4975C45.8123 32.1666 44.171 26.1041 45.4434 23.3615Z" fill="#263238"/>
<path d="M74.6094 20.1913C74.5185 16.1977 72.0753 11.1991 68.0871 11.4611L55.5557 14.0914C54.9715 14.1312 54.4233 14.388 54.0187 14.8114C53.6141 15.2348 53.3825 15.7941 53.3691 16.3795L53.4868 46.3179H53.4012C53.4012 46.3179 55.8658 54.8717 64.1737 52.6477C65.8203 52.2093 66.6383 50.4612 67.0339 48.6488H67.1194C67.1194 48.435 67.1194 48.2318 67.1568 48.0233C67.3741 46.6662 67.4494 45.2902 67.3814 43.9175C67.5043 41.5064 67.5471 40.5173 67.5471 40.5387C67.5471 40.5601 72.674 39.8972 73.9945 33.3C74.6521 30.0603 74.7056 24.634 74.6094 20.1913Z" fill="#FFBE9D"/>
<path d="M64.43 25.6871C64.4231 25.9088 64.3297 26.119 64.1699 26.2728C64.0101 26.4267 63.7965 26.5119 63.5746 26.5104C63.4659 26.5147 63.3574 26.4972 63.2555 26.4591C63.1536 26.4209 63.0603 26.3627 62.9811 26.2881C62.902 26.2134 62.8385 26.1236 62.7945 26.0241C62.7504 25.9246 62.7267 25.8173 62.7246 25.7085C62.7316 25.4863 62.8247 25.2755 62.9844 25.1208C63.1441 24.9662 63.3577 24.8797 63.58 24.8798C63.689 24.8763 63.7976 24.8944 63.8996 24.9332C64.0015 24.972 64.0947 25.0306 64.1738 25.1057C64.2529 25.1808 64.3163 25.2709 64.3603 25.3707C64.4042 25.4705 64.428 25.5781 64.43 25.6871Z" fill="#263238"/>
<path d="M73.1351 25.6871C73.1281 25.9088 73.0348 26.119 72.875 26.2728C72.7151 26.4267 72.5015 26.5119 72.2797 26.5104C72.171 26.5147 72.0625 26.4972 71.9605 26.4591C71.8586 26.4209 71.7654 26.3627 71.6862 26.2881C71.607 26.2134 71.5436 26.1236 71.4995 26.0241C71.4555 25.9246 71.4317 25.8173 71.4297 25.7085C71.4366 25.4863 71.5298 25.2755 71.6895 25.1208C71.8492 24.9662 72.0628 24.8797 72.2851 24.8798C72.3941 24.8763 72.5027 24.8944 72.6047 24.9332C72.7066 24.972 72.7998 25.0306 72.8789 25.1057C72.958 25.1808 73.0214 25.2709 73.0653 25.3707C73.1093 25.4705 73.133 25.5781 73.1351 25.6871Z" fill="#263238"/>
<path d="M73.6686 23.0941C73.5564 23.2384 72.8293 22.645 71.8296 22.6718C70.8298 22.6985 70.1188 23.3026 70.0065 23.1636C69.8943 23.0246 70.0547 22.8428 70.3647 22.5648C70.7662 22.2103 71.2806 22.0098 71.8161 21.999C72.3516 21.9882 72.8736 22.1679 73.2891 22.506C73.6045 22.7733 73.7168 23.0299 73.6686 23.0941Z" fill="#263238"/>
<path d="M64.4092 23.073C64.2756 23.2014 63.5699 22.5384 62.506 22.4689C61.4421 22.3994 60.6242 22.8966 60.5173 22.7523C60.4103 22.6079 60.6081 22.4422 60.9663 22.2177C61.4396 21.912 62.0005 21.771 62.562 21.8164C63.1236 21.8619 63.6544 22.0912 64.0724 22.4689C64.3825 22.7576 64.4734 23.0142 64.4092 23.073Z" fill="#263238"/>
<path d="M67.3495 29.7074C67.8394 29.5748 68.3442 29.5047 68.8517 29.4989C69.087 29.4989 69.3115 29.4455 69.3543 29.2851C69.3871 29.0439 69.3421 28.7986 69.226 28.5847C69.0282 28.0127 68.825 27.4086 68.6058 26.7777C67.7504 24.1955 67.1356 22.0838 67.2426 22.0464C67.3495 22.009 68.1247 24.0779 68.9854 26.6548C69.1885 27.291 69.3863 27.8951 69.5735 28.4725C69.7107 28.7609 69.741 29.0887 69.659 29.3973C69.6223 29.4783 69.5676 29.5497 69.499 29.6062C69.4304 29.6628 69.3498 29.7029 69.2634 29.7235C69.132 29.754 68.9973 29.7684 68.8624 29.7662C68.3576 29.8064 67.8497 29.7867 67.3495 29.7074Z" fill="#263238"/>
<path d="M67.5473 40.5816C64.4176 40.5077 61.3697 39.5676 58.7422 37.8657C58.7422 37.8657 60.7149 42.5169 67.3923 42.1426L67.5473 40.5816Z" fill="#EB996E"/>
<path d="M66.8746 31.8994C66.7089 31.6734 66.4886 31.493 66.2343 31.3752C65.98 31.2574 65.7 31.206 65.4204 31.2258C65.215 31.2367 65.0141 31.2898 64.8301 31.3818C64.6461 31.4738 64.4831 31.6027 64.3512 31.7605C64.226 31.906 64.1478 32.086 64.1268 32.2768C64.1058 32.4677 64.143 32.6604 64.2336 32.8297C64.3741 32.9995 64.562 33.1237 64.7733 33.1866C64.9847 33.2494 65.2099 33.248 65.4204 33.1825C65.8606 33.047 66.2695 32.8253 66.6233 32.5303C66.728 32.4585 66.8201 32.37 66.8959 32.2683C66.9295 32.2176 66.9474 32.1581 66.9474 32.0973C66.9474 32.0364 66.9295 31.9769 66.8959 31.9262" fill="#EC6980"/>
<path d="M64.6264 30.2313C64.776 30.2313 64.7386 31.2257 65.5619 31.9634C66.3852 32.7012 67.4491 32.6371 67.4491 32.7761C67.4491 32.9151 67.2032 32.9632 66.7541 32.9578C66.1713 32.9407 65.6131 32.7193 65.177 32.3323C64.7595 31.9598 64.5011 31.4411 64.4553 30.8835C64.4339 30.4665 64.5782 30.2206 64.6264 30.2313Z" fill="#263238"/>
<path d="M64.6857 19.9615C64.5841 20.2074 63.6753 20.0524 62.5953 20.1433C61.5154 20.2341 60.6279 20.4854 60.4943 20.2555C60.4355 20.1433 60.5959 19.9187 60.9594 19.6888C61.4379 19.4071 61.9768 19.244 62.5312 19.213C63.0786 19.1688 63.6287 19.2568 64.135 19.4696C64.5413 19.6407 64.7285 19.8492 64.6857 19.9615Z" fill="#263238"/>
<path d="M73.0862 20.2982C72.8938 20.496 72.1827 20.2501 71.3113 20.2073C70.4399 20.1645 69.7075 20.2821 69.5418 20.0576C69.4723 19.9507 69.6006 19.7422 69.9267 19.5604C70.3783 19.335 70.883 19.237 71.3862 19.2771C71.8863 19.3037 72.3693 19.4684 72.7815 19.7529C73.0809 19.9774 73.1718 20.2233 73.0862 20.2982Z" fill="#263238"/>
<path d="M52.7834 14.7277C53.4998 13.8617 54.6492 13.5088 55.7398 13.2308C60.4385 12.0232 65.2646 11.3807 70.1156 11.3169C70.5967 12.3861 69.891 13.6371 68.9073 14.2412C67.9236 14.8453 66.7689 14.995 65.6195 15.273C64.47 15.551 63.326 16.0375 62.7593 17.0373C62.1926 18.037 62.4011 19.4858 61.8504 20.5871C60.9095 22.4743 58.0814 22.7844 57.1512 24.6823C56.4455 26.115 57.1244 27.8044 57.1512 29.4029C57.1681 30.2138 57.0119 31.019 56.6929 31.7648C56.374 32.5105 55.8997 33.1797 55.3017 33.7277C54.7036 34.2756 53.9956 34.6897 53.2249 34.9423C52.4541 35.195 51.6384 35.2804 50.832 35.1928C51.1706 29.4902 51.5092 23.7877 51.8478 18.0851C51.9173 16.9143 52.0242 15.6419 52.7834 14.7277Z" fill="#263238"/>
<path d="M39.6952 27.708C40.6843 27.013 41.8871 26.4517 42.3683 25.345C43.0847 23.7412 41.9727 21.6027 43.0152 20.2021C43.9668 18.9083 46.2763 19.2504 47.1798 17.9192C47.8802 16.8767 47.3402 15.8236 47.6717 14.8773C48.0031 13.931 49.4787 13.2414 50.457 13.4713L56.8724 25.5856C57.1504 29.4295 57.6369 31.5145 56.5676 33.6048C55.9849 34.7596 55.2685 35.8662 54.9638 37.1226C54.6591 38.3789 54.7927 39.8545 55.7443 40.7312C51.0825 40.5495 47.0355 37.6198 43.3092 34.8077L39.3637 31.8353C38.9199 31.5623 38.5521 31.1816 38.2945 30.7286C37.8027 29.6113 38.7062 28.3763 39.6952 27.708Z" fill="#263238"/>
<path d="M43.3145 33.6475C43.4687 33.7154 43.6301 33.7656 43.7956 33.7972C44.2727 33.9041 44.7647 33.9276 45.2498 33.8667C46.154 33.7665 47.0042 33.3858 47.6811 32.7779C48.358 32.1701 48.8276 31.3656 49.0241 30.4773C49.162 29.8901 49.182 29.2813 49.0829 28.6863C48.9455 28.0539 48.7244 27.4426 48.4254 26.8686C48.1073 26.277 47.8802 25.6408 47.7517 24.9814C47.6824 24.6446 47.6891 24.2966 47.7714 23.9627C47.8537 23.6288 48.0096 23.3175 48.2276 23.0515C48.7141 22.5169 49.5106 22.5169 50.2698 22.2817C50.6918 22.2056 51.0747 21.9866 51.3541 21.6614C51.6336 21.3362 51.7925 20.9247 51.8041 20.496C51.895 19.646 51.6224 18.8334 51.5582 18.0261C51.5135 17.6272 51.5592 17.2234 51.6919 16.8446C51.8408 16.4753 52.1153 16.1705 52.467 15.9839C53.2275 15.656 54.0614 15.536 54.8835 15.6364C55.7274 15.7041 56.5749 15.5589 57.3481 15.2141C58.0914 14.8674 58.7256 14.3238 59.1818 13.6423C59.5773 12.9775 59.8693 12.2565 60.0479 11.5038C60.2099 10.8065 60.4427 10.1276 60.7429 9.47764C61.0552 8.88586 61.4931 8.3695 62.0259 7.96469C62.9058 7.29249 63.9765 6.91729 65.0835 6.89327C66.1905 6.86925 67.2765 7.19764 68.1847 7.83103C68.808 8.25173 69.3512 8.78039 69.7885 9.3921C70.1578 9.92544 70.4646 10.4995 70.7027 11.1029C70.7001 11.0585 70.6892 11.015 70.6707 10.9746C70.6439 10.8944 70.6172 10.7714 70.5531 10.6164C70.3786 10.1632 70.1506 9.73246 69.8741 9.3333C69.4409 8.69853 68.8978 8.14632 68.2702 7.70272C67.3363 7.03419 66.213 6.68187 65.0645 6.69726C63.9161 6.71265 62.8026 7.09494 61.8869 7.78826C61.3258 8.21913 60.8644 8.76624 60.5344 9.3921C60.2199 10.0543 59.9762 10.7478 59.8073 11.4611C59.635 12.1896 59.3519 12.8873 58.968 13.53C58.5352 14.172 57.9341 14.6825 57.2305 15.0056C56.4952 15.331 55.6902 15.467 54.8888 15.4012C54.0201 15.2934 53.1384 15.4246 52.3387 15.7807C51.9296 15.9935 51.6108 16.3465 51.4406 16.7751C51.2939 17.1933 51.2428 17.639 51.2909 18.0796C51.4484 18.8774 51.5307 19.6882 51.5368 20.5014C51.515 20.8754 51.3787 21.2338 51.1465 21.5278C50.8904 21.795 50.5613 21.9809 50.2003 22.0625C49.8367 22.164 49.4518 22.2228 49.0776 22.3298C48.6888 22.4251 48.3326 22.6226 48.0458 22.9018C47.8034 23.1961 47.6296 23.5408 47.5372 23.9107C47.4447 24.2806 47.4358 24.6665 47.5112 25.0403C47.6531 25.7215 47.8926 26.3787 48.2222 26.9916C48.5154 27.5469 48.7347 28.1382 48.8744 28.7505C48.9749 29.3176 48.9622 29.899 48.837 30.4612C48.6258 31.438 48.0791 32.31 47.292 32.9258C46.6927 33.3874 45.9831 33.6841 45.2337 33.7865C44.591 33.8632 43.9395 33.816 43.3145 33.6475Z" fill="#455A64"/>
<path d="M38.0844 24.9546C37.9929 25.06 37.9254 25.1841 37.8866 25.3182C37.7665 25.7017 37.7892 26.1157 37.9508 26.4836C38.0703 26.755 38.2538 26.9935 38.4854 27.1786C38.7626 27.3922 39.0941 27.5237 39.4423 27.5582C39.8681 27.5961 40.2962 27.5165 40.6798 27.3279C41.0635 27.1394 41.3881 26.8492 41.6182 26.489C41.8903 26.0768 42.0607 25.6059 42.1154 25.115C42.1627 24.5902 42.1138 24.0612 41.9711 23.554C41.7198 22.4847 41.1691 21.4529 41.2921 20.2875C41.3022 19.9969 41.3714 19.7115 41.4954 19.4486C41.6195 19.1857 41.7959 18.9509 42.0138 18.7585C42.53 18.4266 43.1554 18.3096 43.7567 18.4323C44.4251 18.562 45.1113 18.571 45.7829 18.4591C46.1392 18.3617 46.4555 18.1539 46.6864 17.8657C46.9093 17.5751 47.0662 17.2394 47.1461 16.882C47.2583 16.1964 47.2834 15.4995 47.221 14.8077C47.1941 14.1621 47.3071 13.5183 47.5524 12.9205C48.0218 11.7788 48.909 10.8592 50.0331 10.349C51.085 9.96197 52.2162 9.84076 53.3263 9.99614C54.319 10.11 55.3234 10.0703 56.3041 9.87852C57.11 9.67594 57.8665 9.31222 58.5281 8.80929C59.0278 8.43451 59.4692 7.98771 59.8379 7.48345C60.1595 7.06298 60.4039 6.58872 60.5596 6.08276C60.3307 6.55133 60.0605 6.9986 59.7523 7.4193C59.3784 7.90376 58.9352 8.33066 58.4372 8.68633C57.7845 9.15792 57.045 9.49586 56.2613 9.68072C55.2964 9.85716 54.3101 9.88421 53.337 9.7609C52.1905 9.59393 51.0206 9.71332 49.9315 10.1084C48.7422 10.6378 47.8023 11.6046 47.3065 12.8082C47.0477 13.4402 46.9256 14.1198 46.9483 14.8023C47.0112 15.4726 46.9879 16.1481 46.8788 16.8125C46.8303 17.1282 46.6952 17.4242 46.4885 17.6677C46.2818 17.9112 46.0117 18.0926 45.708 18.1918C45.0692 18.2913 44.4179 18.2786 43.7834 18.1544C43.1138 18.0285 42.4215 18.1685 41.8534 18.5446C41.6109 18.7601 41.414 19.0221 41.2744 19.315C41.1348 19.608 41.0554 19.9259 41.0408 20.25C40.997 20.8507 41.0734 21.4541 41.2654 22.025C41.4258 22.5596 41.6182 23.0942 41.7519 23.5967C41.8915 24.079 41.944 24.5823 41.9069 25.083C41.8593 25.5415 41.7056 25.9826 41.4578 26.3714C41.2492 26.7062 40.952 26.9769 40.5991 27.1533C40.2463 27.3298 39.8515 27.4051 39.4584 27.3711C39.136 27.3489 38.8264 27.2358 38.5656 27.045C38.3504 26.8754 38.1782 26.6574 38.063 26.4088C37.9027 26.0628 37.865 25.6725 37.9561 25.3021C38.0096 25.0776 38.1005 24.9653 38.0844 24.9546Z" fill="#263238"/>
<path d="M86.4988 33.4497C86.5843 33.859 86.5277 34.2851 86.3385 34.6579C86.235 34.8716 86.0855 35.0596 85.9006 35.2084C85.7157 35.3573 85.5 35.4632 85.2692 35.5186C84.9611 35.5701 84.6448 35.5355 84.3552 35.4185C84.0655 35.3015 83.8139 35.1067 83.628 34.8557C83.416 34.5614 83.3156 34.2014 83.3446 33.84C83.377 33.4405 83.484 33.0506 83.66 32.6905C83.9968 31.9367 84.5956 31.1455 84.6384 30.1137C84.6674 29.593 84.5873 29.0719 84.4032 28.584C84.2191 28.096 83.935 27.6519 83.5691 27.2802C83.1808 26.8903 82.7241 26.575 82.2219 26.35C81.7075 26.1404 81.1686 25.9967 80.6181 25.9223C80.0822 25.8533 79.5541 25.7334 79.041 25.5641C78.5591 25.4044 78.1498 25.0785 77.8862 24.6446C77.6617 24.2078 77.5618 23.7177 77.5975 23.2279C77.6275 22.7462 77.7247 22.2712 77.8862 21.8165C78.2429 20.9602 78.4891 20.0619 78.6186 19.1434C78.6681 18.3245 78.4727 17.5093 78.0573 16.8018C77.6991 16.2383 77.2385 15.7469 76.6994 15.353C76.308 15.0532 75.9382 14.7263 75.5927 14.3746C75.3091 14.065 75.0909 13.7013 74.9512 13.3054C74.9512 13.3054 74.9512 13.3054 74.9512 13.3856C74.9659 13.4674 74.9873 13.5479 75.0153 13.6262C75.1269 13.9243 75.2917 14.1997 75.5018 14.4388C75.8314 14.8046 76.1889 15.1442 76.5711 15.4546C77.0847 15.8492 77.5214 16.3349 77.8595 16.8873C78.2429 17.5647 78.4178 18.3403 78.362 19.1167C78.2207 20.0086 77.9693 20.8795 77.6136 21.7096C77.4451 22.1852 77.3426 22.6816 77.3088 23.1851C77.2627 23.7266 77.3721 24.27 77.6242 24.7515C77.9174 25.24 78.3737 25.6093 78.9127 25.794C79.435 25.9655 79.9718 26.089 80.5165 26.1629C81.0504 26.231 81.5732 26.3676 82.0722 26.5692C82.5472 26.7775 82.9788 27.0731 83.3446 27.4406C83.69 27.7843 83.9601 28.1962 84.1377 28.6499C84.3154 29.1037 84.3967 29.5894 84.3764 30.0763C84.3497 31.0172 83.7883 31.7817 83.4355 32.5729C83.2559 32.9619 83.149 33.3804 83.1201 33.8079C83.0964 34.2134 83.2156 34.6145 83.4569 34.9413C83.6648 35.2183 83.9467 35.4311 84.2701 35.555C84.5936 35.6789 84.9455 35.7089 85.2853 35.6416C85.5352 35.5772 85.7674 35.4572 85.9646 35.2906C86.1617 35.124 86.3188 34.915 86.424 34.6793C86.5617 34.3879 86.6154 34.0639 86.579 33.7437C86.5678 33.6421 86.5408 33.5429 86.4988 33.4497Z" fill="#263238"/>
<path d="M110.215 92.3163L107.884 88.7451L104.088 86.8418L103.949 86.7403C103.34 86.2995 102.64 85.9989 101.901 85.8603C101.161 85.7217 100.4 85.7483 99.6726 85.9384C98.1329 86.35 96.0693 86.8632 94.2837 87.168L90.1992 86.0506V94.0003L110.787 92.7012L110.215 92.3163Z" fill="#FFBE9D"/>
<path d="M110.075 92.0969C109.812 91.8041 109.52 91.5389 109.203 91.3057C108.669 90.8406 107.867 90.2365 106.995 89.5254L106.178 88.8946H106.145C105.301 88.7342 104.568 88.6059 104.044 88.5257C103.77 88.4597 103.487 88.4309 103.205 88.4402C103.465 88.5547 103.738 88.6355 104.018 88.6807C104.552 88.8037 105.258 88.9641 106.097 89.1352L106.049 89.1084L106.814 89.7232C107.685 90.4075 108.487 91.0117 109.07 91.4393C109.377 91.6988 109.714 91.9196 110.075 92.0969Z" fill="#EB996E"/>
<path d="M108.471 92.7916C107.527 92.1269 106.537 91.5302 105.509 91.006L104.787 90.6104H104.761C103.885 90.526 103.003 90.5117 102.125 90.5676C102.989 90.7359 103.865 90.8342 104.745 90.8617H104.691L105.413 91.2626C106.392 91.8486 107.414 92.3597 108.471 92.7916Z" fill="#EB996E"/>
<path d="M134.176 69.7821C133.842 69.5954 133.452 69.5369 133.078 69.6176C132.704 69.6983 132.372 69.9127 132.145 70.2205L115.572 92.6743L89.3381 93.0272C88.2688 93.0913 87.0178 95.2084 87.9588 96.2349L117.582 95.8286L134.689 72.0649C134.819 71.8857 134.909 71.6809 134.954 71.4641C134.998 71.2474 134.996 71.0237 134.947 70.8078C134.899 70.592 134.805 70.3889 134.672 70.2121C134.539 70.0352 134.37 69.8887 134.176 69.7821Z" fill="#E0E0E0"/>
<path d="M134.174 69.7821C134.22 69.8042 134.265 69.8292 134.308 69.857C134.432 69.9364 134.542 70.0358 134.634 70.151C134.821 70.3761 134.943 70.6481 134.986 70.9374C135.029 71.2266 134.993 71.5223 134.88 71.7923C134.67 72.1634 134.436 72.5205 134.18 72.8615L133.303 74.0911L131.138 77.1331L117.676 95.9194L117.644 95.9729H117.58L88.497 96.3845H87.9624H87.9036L87.8608 96.3364C87.733 96.1908 87.6351 96.0214 87.5727 95.8379C87.5103 95.6545 87.4847 95.4605 87.4973 95.2672C87.5125 94.895 87.6073 94.5304 87.7753 94.198C87.9348 93.8741 88.1502 93.581 88.4114 93.3319C88.6724 93.0569 89.0276 92.8908 89.4058 92.8668L93.4582 92.8133L101.29 92.7117L115.57 92.53L115.474 92.5781C120.868 85.3127 125.364 79.2555 128.513 75.0053L132.186 70.0975C132.365 69.8895 132.595 69.731 132.854 69.6374C133.112 69.5438 133.39 69.5182 133.661 69.5629C133.853 69.5842 134.036 69.6522 134.196 69.7607C134.024 69.6867 133.845 69.6328 133.661 69.6004C133.4 69.5608 133.133 69.5892 132.886 69.6829C132.638 69.7765 132.419 69.9322 132.25 70.135L128.63 75.0801L115.677 92.7224L115.639 92.7705H115.581L101.301 92.979L93.4742 93.086L89.4219 93.1448C89.1108 93.1651 88.8196 93.305 88.6093 93.535C88.371 93.76 88.1753 94.0263 88.0319 94.3209C87.8581 94.5899 87.7688 94.9047 87.7754 95.2248C87.7821 95.5449 87.8845 95.8557 88.0693 96.1172L87.9677 96.0745H88.5023L117.585 95.6949L117.489 95.743C123.076 88.0232 127.748 81.5597 131.031 77.0315C131.849 75.9035 132.587 74.893 133.223 74.0109L134.116 72.792C134.372 72.465 134.608 72.1221 134.821 71.7655C134.938 71.5053 134.98 71.218 134.944 70.9352C134.909 70.6523 134.796 70.3848 134.618 70.1617C134.489 70.0148 134.34 69.887 134.174 69.7821Z" fill="#263238"/>
<path d="M54.717 43.784C53.0806 44.0356 51.5503 44.7497 50.3064 45.8423C48.7008 47.4712 47.4933 49.449 46.778 51.6215C45.9012 54.2464 46.2968 64.6126 46.2968 67.6171C46.2968 70.6217 47.056 81.8967 47.4356 83.7732C47.8151 85.6497 47.1896 88.4404 46.3236 90.2527C44.7625 93.5085 47.195 95.1765 47.195 95.1765L79.3841 94.9359L79.2558 93.7384C79.0313 91.6427 79.7904 89.5149 79.0152 87.5689C77.8338 84.7168 77.327 81.6302 77.5343 78.55C77.946 73.2039 79.5498 69.5257 78.5608 66.4143C77.0639 61.6669 72.108 50.873 66.115 46.2647C66.115 46.2647 61.3943 45.2542 60.3251 44.88C57.8926 44.03 56.6095 43.5702 54.717 43.784Z" fill="#EC6980"/>
<path d="M92.5583 85.1256L65.0631 79.3839L64.3521 55.508C64.3521 55.508 63.3898 45.7834 58.5141 44.8799L46.7793 59.4909C47.4315 66.8525 46.8381 80.7846 50.2222 86.1628C53.6063 91.541 56.8942 95.8393 65.2288 95.4597C73.5635 95.0802 91.9275 94.8984 91.9275 94.8984L92.5583 85.1256Z" fill="#EC6980"/>
<path d="M65.1155 79.48C65.1797 79.5281 64.5221 80.3888 63.9661 81.6184C63.4101 82.848 63.1642 83.8692 63.084 83.8531C63.1105 83.0309 63.3264 82.2259 63.7148 81.5008C64.0135 80.725 64.4938 80.032 65.1155 79.48Z" fill="#263238"/>
<g opacity="0.3">
<path d="M64.1582 54.4919C66.9061 62.9281 66.2967 75.9406 71.5466 80.7415L65.0617 79.3836C65.1839 77.8593 65.2017 76.3286 65.1152 74.8019C64.5806 68.1299 64.5217 61.3403 64.1582 54.4866" fill="black"/>
</g>
<path d="M63.5481 51.4768C63.7503 52.1054 63.911 52.7465 64.0293 53.3961C64.1845 54.177 64.2969 54.9659 64.3661 55.7591C64.457 56.6946 64.473 57.7799 64.5158 58.9935C64.6708 63.8692 64.8954 70.8566 65.168 79.3837L65.0825 79.2767L92.5884 84.9918L92.7006 85.0185V85.1361C92.4975 88.2636 92.2836 91.5515 92.0698 94.9089V95.0372H91.9415L88.6001 95.0746C83.8207 95.1388 79.1535 95.2082 74.6467 95.3045C72.3942 95.3508 70.1845 95.4096 68.0175 95.4809C65.879 95.5397 63.7406 95.7429 61.6449 95.4167C60.6212 95.2734 59.6169 95.0152 58.6511 94.6469C57.719 94.2706 56.8344 93.7862 56.0154 93.2034C54.4801 92.0517 53.1407 90.6598 52.0486 89.0816C51.514 88.3278 50.9793 87.5793 50.5249 86.8255L50.1721 86.2641C50.0598 86.077 49.9582 85.8739 49.8566 85.6814C49.7551 85.489 49.6482 85.2912 49.5466 85.0987C49.445 84.9062 49.3862 84.6977 49.3113 84.4946C48.7319 82.9536 48.3197 81.3548 48.0817 79.7258C47.6562 76.9345 47.3867 74.1216 47.2745 71.3003C47.1515 68.8143 47.098 66.6759 47.0339 64.9224C46.9697 63.1688 46.9163 61.8162 46.8682 60.8967C46.8682 60.4423 46.82 60.0948 46.804 59.8275C46.788 59.5602 46.804 59.4693 46.804 59.4693C46.804 59.4693 46.804 59.5869 46.8468 59.8221C46.8895 60.0574 46.8949 60.4156 46.9377 60.8914C47.0018 61.8109 47.082 63.1688 47.1569 64.9224C47.2317 66.6759 47.3065 68.809 47.4402 71.295C47.5656 74.1063 47.8476 76.9084 48.2849 79.6884C48.5272 81.3032 48.9412 82.8875 49.5198 84.4144L49.7551 85.0078L50.0598 85.5745C50.1614 85.767 50.2576 85.9594 50.3699 86.1465L50.7281 86.7079C51.2039 87.4563 51.7118 88.1994 52.2464 88.9479C53.3274 90.5012 54.6504 91.8712 56.1651 93.0056C56.9702 93.5761 57.8407 94.0482 58.758 94.4117C59.7056 94.7703 60.6899 95.0231 61.693 95.1655C63.7245 95.4809 65.847 95.2777 68.0175 95.2189C70.188 95.1601 72.396 95.0853 74.6521 95.0318C79.1589 94.9302 83.826 94.8554 88.6055 94.7966L91.9522 94.7592L91.8132 94.8928C92.0324 91.5355 92.2462 88.2476 92.4494 85.1201L92.5563 85.2591L65.0611 79.4959H64.9755V79.4104C64.7403 70.8566 64.5478 63.9066 64.4142 59.0202C64.3821 57.8013 64.3768 56.7214 64.2966 55.7858C64.2358 54.9952 64.1341 54.2082 63.9918 53.4281C63.8796 52.792 63.7673 52.3108 63.6925 51.99C63.655 51.835 63.623 51.712 63.6016 51.6265C63.5805 51.5778 63.5627 51.5278 63.5481 51.4768Z" fill="#263238"/>
<path d="M107.69 143.725L103.605 173.807L114.287 175.556L121.889 148.868L107.69 143.725Z" fill="#FFBE9D"/>
<path d="M75.3066 97.5073C75.3066 97.5073 120.866 93.1716 124.245 96.2723C127.624 99.3731 130.436 106.12 129.313 108.371C128.191 110.621 125.651 118.224 125.651 118.224L104.678 113.439L75.3066 97.5073Z" fill="#263238"/>
<path d="M104.663 118.224L96.2109 131.124L106.16 137.566L116.949 121.025L104.663 118.224Z" fill="#FFBE9D"/>
<path d="M47.9667 95.1445C47.9667 95.1445 44.0266 113.156 50.5008 120.474C56.975 127.793 66.5392 127.793 76.3975 126.387C86.2558 124.981 109.634 124.473 109.634 124.473C109.634 124.473 108.592 130.889 107.828 138.149C107.063 145.409 106.908 150.028 106.908 150.028L121.546 151.247C121.546 151.247 129.704 126.419 130.96 121.501C132.217 116.582 131.789 109.98 127.453 107.531C123.775 105.452 94.7776 97.4112 80.8936 96.219L79.386 94.9199L47.9667 95.1445Z" fill="#263238"/>
<path d="M116.794 118.512C116.794 118.56 116.222 118.641 115.356 118.956C114.848 119.139 114.358 119.366 113.891 119.635C113.319 119.968 112.782 120.356 112.287 120.795C111.801 121.24 111.359 121.731 110.967 122.26C110.653 122.699 110.377 123.164 110.143 123.65C109.742 124.479 109.609 125.045 109.555 125.029C109.502 125.013 109.555 124.885 109.614 124.623C109.695 124.256 109.811 123.898 109.962 123.554C110.179 123.046 110.445 122.56 110.758 122.105C111.147 121.547 111.598 121.034 112.1 120.576C112.608 120.125 113.164 119.731 113.757 119.4C114.242 119.134 114.752 118.919 115.281 118.758C115.629 118.646 115.987 118.565 116.35 118.518C116.496 118.488 116.647 118.486 116.794 118.512Z" fill="#455A64"/>
<path d="M115.053 103.516C115.437 102.441 116.091 101.482 116.951 100.731C116.711 101.242 116.41 101.722 116.052 102.158C115.775 102.65 115.44 103.106 115.053 103.516Z" fill="#455A64"/>
<path d="M131.573 114.604C131.573 114.604 131.573 114.562 131.531 114.465L131.429 114.048C131.344 113.685 131.21 113.145 130.991 112.444C130.721 111.621 130.362 110.828 129.921 110.081C129.381 109.078 128.563 108.252 127.564 107.702C124.822 106.51 122.001 105.508 119.122 104.703C115.888 103.736 112.317 102.709 108.548 101.715C101.004 99.71 94.0863 98.2772 89.0448 97.4379C86.5268 97.0102 84.4792 96.7215 83.0625 96.5237L81.4319 96.2991C81.2555 96.2991 81.1165 96.2564 81.0096 96.235L80.8652 96.2083H81.0096L81.4373 96.2457L83.0732 96.4167C84.4953 96.5825 86.5482 96.8391 89.0769 97.2454C95.6664 98.3286 102.197 99.7436 108.644 101.485C112.418 102.485 115.989 103.522 119.224 104.5C122.107 105.313 124.928 106.332 127.665 107.547C128.692 108.119 129.529 108.98 130.071 110.023C130.5 110.785 130.839 111.594 131.082 112.434C131.285 113.123 131.408 113.669 131.477 114.038C131.504 114.209 131.531 114.348 131.547 114.46C131.563 114.507 131.572 114.555 131.573 114.604Z" fill="#455A64"/>
<path d="M115.12 174.775L115.478 173.47C111.102 173.098 106.966 171.316 103.69 168.392L100.07 176.213L124.208 186.948C125.117 184.639 115.12 174.775 115.12 174.775Z" fill="#EC6980"/>
<path d="M100.07 176.213L100.952 174.305L123.813 185.328C123.813 185.328 124.673 186.264 124.208 186.932L100.07 176.213Z" fill="#E0E0E0"/>
<path d="M114.794 174.625C114.735 174.738 114.126 174.529 113.372 174.625C112.618 174.722 112.084 175.08 111.998 174.984C111.912 174.887 112.394 174.31 113.308 174.187C114.222 174.064 114.869 174.529 114.794 174.625Z" fill="#263238"/>
<path d="M105.404 173.786C105.322 173.95 105.179 174.075 105.007 174.135C104.834 174.195 104.644 174.185 104.479 174.107C104.397 174.071 104.322 174.018 104.261 173.953C104.2 173.887 104.152 173.81 104.121 173.725C104.09 173.641 104.076 173.551 104.081 173.462C104.085 173.372 104.108 173.284 104.147 173.203C104.231 173.04 104.375 172.916 104.548 172.856C104.721 172.796 104.911 172.806 105.078 172.882C105.16 172.919 105.234 172.971 105.295 173.037C105.356 173.102 105.404 173.18 105.434 173.264C105.465 173.349 105.478 173.439 105.473 173.528C105.467 173.618 105.444 173.706 105.404 173.786Z" fill="#E0E0E0"/>
<path d="M114.651 174.465C114.469 174.464 114.287 174.43 114.117 174.363C113.606 174.254 113.134 174.01 112.748 173.658C112.625 173.533 112.519 173.393 112.433 173.241C112.325 173.08 112.256 172.897 112.23 172.706C112.222 172.579 112.254 172.453 112.322 172.345C112.391 172.238 112.491 172.154 112.609 172.107C112.727 172.063 112.853 172.043 112.979 172.049C113.105 172.055 113.228 172.085 113.342 172.139C113.783 172.357 114.156 172.692 114.419 173.108C114.683 173.524 114.826 174.005 114.833 174.497L114.48 174.443C114.539 174.257 114.618 174.078 114.716 173.909C114.982 173.452 115.365 173.074 115.825 172.814C116.285 172.554 116.807 172.421 117.335 172.428C117.473 172.426 117.61 172.453 117.736 172.508C117.806 172.544 117.867 172.594 117.915 172.656C117.963 172.718 117.997 172.79 118.014 172.866C118.032 172.988 118.025 173.112 117.995 173.231C117.965 173.351 117.911 173.463 117.838 173.561C117.606 173.891 117.285 174.149 116.913 174.304C116.386 174.511 115.82 174.595 115.256 174.55C115.053 174.561 114.85 174.545 114.651 174.502C114.845 174.439 115.047 174.408 115.25 174.411C115.784 174.405 116.311 174.293 116.801 174.08C117.117 173.931 117.387 173.698 117.581 173.406C117.679 173.27 117.721 173.102 117.699 172.936C117.667 172.797 117.554 172.754 117.33 172.754C116.865 172.757 116.41 172.88 116.007 173.113C115.605 173.345 115.271 173.679 115.036 174.08C114.949 174.23 114.879 174.39 114.828 174.556C114.811 174.6 114.778 174.637 114.736 174.659C114.693 174.681 114.644 174.686 114.598 174.673C114.562 174.661 114.53 174.639 114.507 174.608C114.484 174.577 114.471 174.54 114.47 174.502C114.461 174.077 114.339 173.661 114.116 173.299C113.894 172.936 113.578 172.639 113.203 172.439C112.877 172.262 112.497 172.439 112.524 172.695C112.578 173.004 112.721 173.29 112.935 173.519C113.275 173.863 113.691 174.123 114.149 174.278C114.324 174.317 114.493 174.38 114.651 174.465Z" fill="#263238"/>
<path d="M116.649 176.299C116.112 176.288 115.575 176.326 115.045 176.411C114.537 176.581 114.046 176.799 113.58 177.063C113.735 176.82 113.939 176.613 114.18 176.454C114.42 176.296 114.691 176.19 114.975 176.144C115.25 176.051 115.54 176.017 115.829 176.043C116.117 176.07 116.396 176.157 116.649 176.299Z" fill="#263238"/>
<path d="M117.995 177.833C117.995 177.913 117.338 177.892 116.584 178.122C115.83 178.352 115.29 178.715 115.242 178.656C115.581 178.28 116.018 178.004 116.504 177.86C116.989 177.716 117.506 177.708 117.995 177.838V177.833Z" fill="#263238"/>
<path d="M108.054 136.112L108.621 134.887C104.371 133.783 100.595 131.329 97.859 127.895L92.9727 135L114.956 149.637C116.244 147.52 108.054 136.112 108.054 136.112Z" fill="#EC6980"/>
<path d="M92.9727 135L94.1649 133.262L114.833 147.996C114.833 147.996 115.523 149.065 114.945 149.653L92.9727 135Z" fill="#E0E0E0"/>
<path d="M107.762 135.908C107.687 136.01 107.115 135.7 106.356 135.684C105.597 135.668 105.009 135.919 104.939 135.812C104.87 135.705 105.447 135.208 106.367 135.245C107.286 135.283 107.853 135.828 107.762 135.908Z" fill="#263238"/>
<path d="M98.6454 133.503C98.5354 133.65 98.3726 133.749 98.1912 133.779C98.0098 133.809 97.8238 133.768 97.6724 133.663C97.5982 133.613 97.5349 133.548 97.4862 133.473C97.4375 133.398 97.4044 133.314 97.3889 133.225C97.3735 133.137 97.3759 133.046 97.3962 132.959C97.4164 132.872 97.454 132.789 97.5067 132.717C97.6148 132.569 97.7768 132.469 97.9577 132.439C98.1387 132.409 98.3241 132.451 98.4743 132.557C98.5489 132.606 98.6128 132.671 98.662 132.746C98.7112 132.821 98.7448 132.905 98.7607 132.993C98.7767 133.082 98.7747 133.172 98.7549 133.26C98.7351 133.347 98.6978 133.43 98.6454 133.503Z" fill="#E0E0E0"/>
<path d="M107.644 135.727C107.455 135.7 107.273 135.636 107.109 135.54C106.629 135.337 106.211 135.013 105.895 134.599C105.795 134.454 105.712 134.298 105.649 134.134C105.569 133.95 105.534 133.75 105.548 133.551C105.558 133.423 105.609 133.302 105.694 133.205C105.779 133.109 105.893 133.042 106.018 133.016C106.142 132.993 106.269 132.995 106.392 133.022C106.515 133.049 106.631 133.099 106.735 133.171C107.13 133.463 107.439 133.857 107.627 134.311C107.816 134.765 107.877 135.262 107.804 135.748L107.462 135.636C107.553 135.461 107.662 135.296 107.788 135.144C108.126 134.738 108.567 134.43 109.064 134.25C109.561 134.071 110.096 134.027 110.616 134.123C110.754 134.144 110.885 134.195 111.001 134.273C111.064 134.318 111.116 134.377 111.152 134.446C111.188 134.514 111.208 134.591 111.209 134.668C111.209 134.792 111.182 134.914 111.133 135.027C111.083 135.14 111.011 135.242 110.921 135.326C110.638 135.611 110.28 135.811 109.889 135.903C109.334 136.016 108.761 136.005 108.21 135.871C108.008 135.848 107.81 135.795 107.622 135.716C107.824 135.685 108.03 135.685 108.232 135.716C108.766 135.799 109.311 135.775 109.835 135.647C110.173 135.552 110.478 135.367 110.718 135.112C110.836 134.993 110.906 134.835 110.915 134.668C110.915 134.529 110.803 134.465 110.579 134.433C110.12 134.357 109.65 134.402 109.214 134.563C108.778 134.724 108.391 134.996 108.093 135.353C107.983 135.484 107.888 135.628 107.809 135.78C107.79 135.818 107.757 135.849 107.718 135.865C107.678 135.882 107.634 135.884 107.593 135.871C107.552 135.859 107.517 135.832 107.494 135.795C107.471 135.759 107.461 135.716 107.467 135.673C107.529 135.252 107.478 134.822 107.321 134.427C107.163 134.032 106.904 133.685 106.569 133.423C106.275 133.193 105.874 133.278 105.853 133.562C105.857 133.875 105.95 134.18 106.12 134.444C106.397 134.84 106.763 135.166 107.189 135.395C107.489 135.604 107.66 135.7 107.644 135.727Z" fill="#263238"/>
<path d="M109.305 137.876C108.776 137.773 108.239 137.719 107.701 137.716C107.174 137.802 106.655 137.933 106.15 138.106C106.344 137.894 106.581 137.725 106.844 137.609C107.107 137.494 107.392 137.436 107.679 137.438C107.966 137.389 108.26 137.403 108.54 137.479C108.821 137.554 109.082 137.69 109.305 137.876Z" fill="#263238"/>
<path d="M110.376 139.608C110.376 139.688 109.713 139.56 108.932 139.656C108.152 139.752 107.558 140.025 107.516 139.95C107.917 139.64 108.395 139.444 108.898 139.383C109.402 139.323 109.913 139.401 110.376 139.608Z" fill="#263238"/>
<path d="M191.295 171.169C191.295 171.241 148.69 171.294 96.1463 171.294C43.6021 171.294 0.986328 171.241 0.986328 171.169C0.986328 171.096 43.5827 171.043 96.1463 171.043C148.71 171.043 191.295 171.101 191.295 171.169Z" fill="#263238"/>
</svg>
