<svg width="65" height="55" viewBox="0 0 65 55" fill="none" xmlns="http://www.w3.org/2000/svg">
<path d="M20.8038 24.9589C19.2029 24.498 17.602 24.2642 16.0447 24.2642C13.6399 24.2642 11.6333 24.8137 10.0774 25.4867C11.5774 19.9952 15.1808 10.5199 22.3591 9.45281C23.0238 9.35395 23.5686 8.87326 23.75 8.2262L25.3188 2.61476C25.4511 2.14021 25.3727 1.63225 25.102 1.22042C24.8313 0.808599 24.3963 0.533822 23.9088 0.467002C23.3791 0.394729 22.8391 0.35791 22.3038 0.35791C13.6877 0.35791 5.15468 9.35122 1.55398 22.2282C-0.559661 29.7829 -1.17944 41.1408 4.02695 48.2897C6.94037 52.29 11.1908 54.4262 16.6604 54.6396C16.6829 54.6403 16.7047 54.6409 16.7272 54.6409C23.4759 54.6409 29.4602 50.0959 31.2807 43.5892C32.3682 39.6994 31.8766 35.62 29.8952 32.0997C27.935 28.619 24.7066 26.0819 20.8038 24.9589Z" fill="#3366FF"/>
<path d="M63.0486 32.1004C61.0884 28.619 57.8599 26.0819 53.9572 24.9589C52.3563 24.498 50.7554 24.2642 49.1988 24.2642C46.794 24.2642 44.7867 24.8137 43.2308 25.4867C44.7308 19.9952 48.3342 10.5199 55.5131 9.45281C56.1779 9.35395 56.722 8.87326 56.904 8.2262L58.4729 2.61476C58.6052 2.14021 58.5268 1.63225 58.2561 1.22042C57.9861 0.808599 57.5511 0.533822 57.0629 0.467002C56.5338 0.394729 55.9938 0.35791 55.4579 0.35791C46.8417 0.35791 38.3087 9.35122 34.7074 22.2282C32.5944 29.7829 31.9746 41.1408 37.1817 48.2911C40.0944 52.2907 44.3456 54.4275 49.8145 54.6403C49.837 54.6409 49.8588 54.6416 49.882 54.6416C56.6299 54.6416 62.615 50.0966 64.4354 43.5899C65.5216 39.7001 65.0293 35.62 63.0486 32.1004Z" fill="#3366FF"/>
</svg>
