<svg width="259" height="152" viewBox="0 0 259 152" fill="none" xmlns="http://www.w3.org/2000/svg">
<path d="M76.6758 139.397V146.425H66.3973H55.0617V139.397H76.6758Z" fill="#F5F5F5"/>
<path d="M77.582 137.433V139.397H54.306V137.433H66.3964H77.582Z" fill="#E0E0E0"/>
<path d="M65.9422 146.426H55.0589V139.397H54.3042V137.433H66.3945V139.215L65.9422 146.426Z" fill="#E0E0E0"/>
<path d="M69.269 140.53H73.6523V141.587H69.269V140.53Z" fill="#E0E0E0"/>
<path d="M68.5876 142.91H74.2148V145.145H68.5876V142.91Z" fill="white"/>
<path d="M48.75 130.404V137.433H38.4739H27.1383V130.404H48.75Z" fill="#F5F5F5"/>
<path d="M49.6562 128.44V130.404H26.3827V128.44H38.473H49.6562Z" fill="#E0E0E0"/>
<path d="M38.0218 137.433H27.1409V130.404H26.3862V128.44H38.4766V130.222L38.0218 137.433Z" fill="#E0E0E0"/>
<path d="M41.3433 131.537H45.7266V132.594H41.3433V131.537Z" fill="#E0E0E0"/>
<path d="M40.6657 133.917H46.293V136.152H40.6657V133.917Z" fill="white"/>
<path d="M49.7891 139.397V146.425H39.5106H28.1749V139.397H49.7891Z" fill="#F5F5F5"/>
<path d="M50.6914 137.433V139.397H27.4179V137.433H39.5082H50.6914Z" fill="#E0E0E0"/>
<path d="M39.053 146.426H28.1722V139.397H27.4175V137.433H39.5078V139.215L39.053 146.426Z" fill="#E0E0E0"/>
<path d="M42.3823 140.53H46.7656V141.587H42.3823V140.53Z" fill="#E0E0E0"/>
<path d="M41.697 142.91H47.3242V145.145H41.697V142.91Z" fill="white"/>
<path d="M162.706 48.9988L159.945 96.0701C159.898 96.8779 159.545 97.6373 158.957 98.1932C158.369 98.7491 157.591 99.0596 156.782 99.0612L72.0545 99.3193C71.6372 99.3208 71.2237 99.2401 70.8377 99.0817C70.4517 98.9233 70.1006 98.6904 69.8047 98.3963C69.5087 98.1022 69.2737 97.7526 69.1129 97.3675C68.9522 96.9825 68.8689 96.5695 68.8679 96.1522L68.7545 59.5008C68.7535 59.0817 68.8353 58.6665 68.9953 58.2792C69.1553 57.8919 69.3904 57.54 69.6869 57.2438C69.9834 56.9477 70.3356 56.7131 70.7231 56.5535C71.1106 56.394 71.5259 56.3126 71.945 56.3142L124.052 56.4901C124.469 56.4917 124.883 56.411 125.268 56.2527C125.654 56.0944 126.005 55.8615 126.3 55.5674L135.328 46.6215C135.922 46.0342 136.722 45.7029 137.557 45.6988L159.523 45.6323C159.957 45.6316 160.386 45.7196 160.785 45.8909C161.184 46.0622 161.543 46.3132 161.841 46.6285C162.139 46.9438 162.37 47.3167 162.518 47.7243C162.667 48.1319 162.731 48.5656 162.706 48.9988Z" fill="#B8B8B8"/>
<path opacity="0.3" d="M162.706 48.9988L159.945 96.0701C159.898 96.8779 159.545 97.6373 158.957 98.1932C158.369 98.7491 157.591 99.0596 156.782 99.0612L72.0545 99.3193C71.6372 99.3208 71.2237 99.2401 70.8377 99.0817C70.4517 98.9233 70.1006 98.6904 69.8047 98.3963C69.5087 98.1022 69.2737 97.7526 69.1129 97.3675C68.9522 96.9825 68.8689 96.5695 68.8679 96.1522L68.7545 59.5008C68.7535 59.0817 68.8353 58.6665 68.9953 58.2792C69.1553 57.8919 69.3904 57.54 69.6869 57.2438C69.9834 56.9477 70.3356 56.7131 70.7231 56.5535C71.1106 56.394 71.5259 56.3126 71.945 56.3142L124.052 56.4901C124.469 56.4917 124.883 56.411 125.268 56.2527C125.654 56.0944 126.005 55.8615 126.3 55.5674L135.328 46.6215C135.922 46.0342 136.722 45.7029 137.557 45.6988L159.523 45.6323C159.957 45.6316 160.386 45.7196 160.785 45.8909C161.184 46.0622 161.543 46.3132 161.841 46.6285C162.139 46.9438 162.37 47.3167 162.518 47.7243C162.667 48.1319 162.731 48.5656 162.706 48.9988Z" fill="black"/>
<path d="M133.881 27.9405L161.742 64.5137L132.503 86.788L104.642 50.2149L133.881 27.9405Z" fill="white"/>
<path d="M133.884 27.9358L134.013 28.1156L134.404 28.6278C134.748 29.0853 135.252 29.75 135.905 30.6219L141.587 38.1211L161.672 64.5638L161.691 64.4387L132.445 86.7017L132.59 86.7212L104.716 50.1597L104.697 50.277L125.884 34.0822L131.796 29.5506L133.36 28.3542L133.884 27.9358L133.352 28.3268L131.788 29.4998L125.876 33.9844L104.591 50.1402L104.524 50.191L104.575 50.2614L132.422 86.8464L132.484 86.9285L132.566 86.8659L161.797 64.5794L161.867 64.5247L161.812 64.4504L141.618 38.0155L135.909 30.5593L134.4 28.6044L134.009 28.1039L133.884 27.9358Z" fill="#263238"/>
<path d="M133.384 84.5238L140.227 60.5443L124.681 60.7593L126.194 51.7196L107.481 50.5193L133.384 84.5238Z" fill="#455A64"/>
<path d="M135.766 54.1866C133.924 53.9353 132.634 52.2381 132.886 50.396C133.137 48.5538 134.834 47.2642 136.676 47.5156C138.518 47.7669 139.808 49.4641 139.557 51.3062C139.305 53.1484 137.608 54.438 135.766 54.1866Z" fill="#455A64"/>
<path d="M127.69 27.5395L129.797 78.6572L65.8577 81.2924L63.751 30.1746L127.69 27.5395Z" fill="white"/>
<path d="M63.7663 30.1644H64.0712L64.9627 30.1331L68.4308 30.0002L81.5133 29.488L127.709 27.6308L127.615 27.5448C128.237 42.7582 128.952 60.2003 129.707 78.659L129.805 78.5534L65.8502 81.1965L65.9363 81.2786C65.2833 65.8736 64.7437 53.1038 64.3723 44.1853C64.1768 39.7202 64.0243 36.2169 63.9227 33.8319C63.8679 32.6394 63.8288 31.7245 63.8015 31.095C63.7741 30.4655 63.7545 30.1566 63.7545 30.1566C63.7545 30.1566 63.7545 30.4655 63.7819 31.0793C63.8093 31.6932 63.8406 32.6042 63.8836 33.7889C63.9774 36.1739 64.1142 39.6538 64.2746 44.1267C64.6304 53.0608 65.1425 65.8501 65.7603 81.2708V81.3529H65.8502L129.812 78.7528H129.914V78.6511C129.152 60.1925 128.428 42.7504 127.799 27.5369V27.447H127.709L81.4586 29.402L68.3995 29.965L64.951 30.1175L64.0673 30.1566L63.7663 30.1644Z" fill="#263238"/>
<path d="M127.469 75.5235L105.565 48.6038L93.4174 66.5111L84.3112 57.5809L68.0225 77.9711L127.469 75.5235Z" fill="#263238"/>
<path d="M87.2167 46.7892C86.6506 44.265 88.238 41.7598 90.7623 41.1937C93.2865 40.6276 95.7917 42.215 96.3578 44.7393C96.9239 47.2635 95.3365 49.7687 92.8123 50.3348C90.288 50.9009 87.7828 49.3135 87.2167 46.7892Z" fill="#263238"/>
<path d="M60.669 52.1382L147.281 64.0634L138.109 127.498L52.208 115.397L60.669 52.1382Z" fill="#EBEBEB"/>
<path d="M60.3379 44.2244L145.949 61.9675L132.515 124.639L47.6268 106.767L60.3379 44.2244Z" fill="#E0E0E0"/>
<path d="M67.8994 37.1909L150.371 66.2102L128.691 126.528L46.9463 97.4778L67.8994 37.1909Z" fill="white"/>
<path d="M67.8994 37.1909C67.6726 37.84 59.6065 60.9436 46.868 97.4504L46.8406 97.5286L46.9188 97.556L128.636 126.622L128.734 126.657L128.765 126.56L128.925 126.122C136.639 104.645 143.955 84.2857 150.43 66.2415L150.461 66.1516L150.375 66.1242L67.8759 37.1909L150.34 66.2963L150.285 66.179L128.753 126.051L128.593 126.493L128.726 126.431L46.9735 97.3996L47.0244 97.5051C59.669 60.9631 67.6726 37.84 67.8994 37.1909Z" fill="#263238"/>
<path d="M65.5727 95.0456C65.733 95.1043 69.6938 84.8173 74.4209 72.071C79.1479 59.3247 82.8584 48.9439 82.6981 48.8853C82.5378 48.8266 78.581 59.1097 73.85 71.8599C69.119 84.6101 65.4163 94.9791 65.5727 95.0456Z" fill="#263238"/>
<path d="M72.6159 98.2639C72.7723 98.3225 76.737 88.0356 81.4641 75.2932C86.1911 62.5508 89.8977 52.1622 89.7413 52.1035C89.5849 52.0449 85.6203 62.3318 80.8893 75.0781C76.1583 87.8244 72.4556 98.2052 72.6159 98.2639Z" fill="#263238"/>
<path d="M94.487 107.424C94.6434 107.482 98.6081 97.1955 103.335 84.4492C108.062 71.7029 111.769 61.3221 111.612 61.2634C111.456 61.2048 107.491 71.4878 102.764 84.238C98.0372 96.9882 94.3306 107.365 94.487 107.424Z" fill="#263238"/>
<path d="M87.5141 104.617C87.6744 104.675 91.6352 94.3884 96.3623 81.6421C101.089 68.8958 104.8 58.515 104.64 58.4563C104.479 58.3977 100.522 68.6807 95.7914 81.4309C91.0604 94.1811 87.3538 104.558 87.5141 104.617Z" fill="#263238"/>
<path d="M80.5456 101.809C80.702 101.868 84.6627 91.5807 89.3937 78.8383C94.1247 66.096 97.8274 55.7073 97.671 55.6487C97.5146 55.59 93.55 65.877 88.819 78.6233C84.088 91.3696 80.3853 101.75 80.5456 101.809Z" fill="#263238"/>
<path d="M102.561 109.747C102.718 109.805 106.682 99.5182 111.409 86.7719C116.136 74.0256 119.843 63.6448 119.687 63.5862C119.53 63.5275 115.566 73.8106 110.835 86.5608C106.104 99.311 102.401 109.688 102.561 109.747Z" fill="#263238"/>
<path d="M110.28 112.574C110.436 112.632 114.397 102.345 119.128 89.6031C123.859 76.8607 127.562 66.476 127.405 66.4369C127.249 66.3978 123.284 76.6652 118.553 89.4115C113.822 102.158 110.12 112.519 110.28 112.574Z" fill="#263238"/>
<path d="M118.002 115.408C118.163 115.466 122.123 105.179 126.854 92.437C131.585 79.6946 135.288 69.306 135.128 69.2473C134.967 69.1887 131.011 79.4756 126.28 92.2219C121.549 104.968 117.854 115.349 118.002 115.408Z" fill="#263238"/>
<path d="M164.439 74.7648L157.546 132.471C157.486 132.966 157.248 133.423 156.876 133.755C156.504 134.087 156.023 134.271 155.524 134.274L65.3069 134.547C64.7922 134.55 64.2956 134.358 63.9164 134.01C63.5372 133.662 63.3035 133.184 63.2621 132.671L58.5428 74.9994C58.5202 74.7182 58.5559 74.4354 58.6477 74.1686C58.7395 73.9018 58.8854 73.6569 59.0763 73.4491C59.2671 73.2413 59.4989 73.0752 59.7569 72.9612C60.015 72.8472 60.2938 72.7877 60.576 72.7864L162.402 72.4775C162.691 72.4766 162.978 72.5372 163.242 72.6552C163.506 72.7733 163.743 72.9462 163.935 73.1624C164.128 73.3786 164.272 73.6333 164.359 73.9096C164.446 74.1858 164.473 74.4773 164.439 74.7648Z" fill="#B8B8B8"/>
<path d="M114.836 35.1535L113.504 35.6701L114.836 36.1846V36.4974L113.16 35.8318V35.5105L114.836 34.8428V35.1535Z" fill="#263238"/>
<path d="M116.22 33.8196H116.547L115.307 37.3641H114.984L116.22 33.8196Z" fill="#263238"/>
<path d="M118.336 35.5104V35.8338L116.66 36.4994V36.1866L117.997 35.6721L116.66 35.1534V34.8406L118.336 35.5104Z" fill="#263238"/>
<path d="M118.77 36.7508C118.769 36.717 118.775 36.6835 118.788 36.6521C118.801 36.6208 118.819 36.5923 118.843 36.5684C118.867 36.5445 118.895 36.5257 118.927 36.513C118.958 36.5003 118.991 36.4941 119.025 36.4947C119.058 36.4944 119.092 36.5008 119.122 36.5137C119.153 36.5265 119.181 36.5455 119.204 36.5694C119.228 36.5934 119.246 36.6218 119.258 36.6529C119.27 36.6841 119.276 36.7174 119.274 36.7508C119.275 36.7845 119.27 36.818 119.258 36.8494C119.246 36.8808 119.228 36.9095 119.205 36.9337C119.181 36.958 119.153 36.9773 119.123 36.9907C119.092 37.004 119.059 37.011 119.025 37.0112C118.991 37.0112 118.958 37.0045 118.926 36.9913C118.895 36.9782 118.867 36.9589 118.843 36.9347C118.819 36.9105 118.8 36.8817 118.788 36.8502C118.775 36.8186 118.769 36.7848 118.77 36.7508Z" fill="#263238"/>
<path d="M119.621 36.7519C119.62 36.718 119.626 36.6843 119.639 36.6528C119.651 36.6213 119.67 36.5928 119.694 36.5688C119.718 36.5448 119.747 36.526 119.778 36.5134C119.809 36.5009 119.843 36.4948 119.877 36.4957C119.91 36.4957 119.943 36.5023 119.973 36.5153C120.004 36.5283 120.031 36.5473 120.055 36.5712C120.078 36.5951 120.096 36.6234 120.108 36.6545C120.119 36.6855 120.125 36.7186 120.124 36.7519C120.125 36.7853 120.119 36.8186 120.108 36.8499C120.096 36.8812 120.078 36.9098 120.055 36.934C120.032 36.9582 120.004 36.9776 119.974 36.9911C119.943 37.0045 119.91 37.0117 119.877 37.0122C119.843 37.0125 119.809 37.006 119.778 36.9929C119.746 36.9799 119.718 36.9607 119.694 36.9364C119.67 36.9121 119.651 36.8832 119.639 36.8515C119.626 36.8198 119.62 36.7859 119.621 36.7519Z" fill="#263238"/>
<path d="M120.473 36.7509C120.472 36.717 120.478 36.6833 120.49 36.6518C120.503 36.6204 120.522 36.5918 120.546 36.5678C120.57 36.5439 120.598 36.525 120.629 36.5124C120.661 36.4999 120.694 36.4938 120.728 36.4947C120.761 36.4947 120.794 36.5014 120.825 36.5143C120.855 36.5273 120.883 36.5463 120.906 36.5702C120.929 36.5941 120.947 36.6224 120.959 36.6535C120.971 36.6845 120.977 36.7176 120.975 36.7509C120.977 36.7843 120.971 36.8177 120.959 36.8489C120.947 36.8802 120.929 36.9088 120.906 36.933C120.883 36.9573 120.856 36.9767 120.825 36.9901C120.795 37.0035 120.762 37.0107 120.728 37.0113C120.694 37.0116 120.661 37.005 120.629 36.992C120.598 36.9789 120.569 36.9597 120.545 36.9354C120.522 36.9111 120.503 36.8822 120.49 36.8505C120.478 36.8189 120.472 36.785 120.473 36.7509Z" fill="#263238"/>
<path d="M206.372 107.247C206.372 107.247 197.206 168.339 198.517 171.287C199.829 174.234 242.787 221.451 242.787 221.451L258.602 210.967C258.602 210.967 221.107 163.728 221.389 162.622C221.671 161.515 235.596 102.333 235.596 102.333L206.372 107.247Z" fill="#EBEBEB"/>
<path d="M240.819 101.501L241.376 103.764C243.005 110.446 241.995 117.5 238.556 123.456L213.639 166.69C211.869 169.75 210.58 173.065 209.818 176.518L198.537 226.435H181.172C181.172 227.472 185.663 185.31 187.919 171.308C189.611 160.732 203.748 127.968 210.594 112.485L206.363 107.268L213.738 106.055L240.819 101.501Z" fill="#EBEBEB"/>
<path d="M210.07 112.351C209.915 112.57 209.787 112.807 209.69 113.056C209.464 113.508 209.154 114.17 208.78 114.995C208.033 116.638 207.053 118.936 206.052 121.503C205.05 124.069 204.225 126.438 203.661 128.144C203.386 129.005 203.168 129.703 203.027 130.189C202.937 130.437 202.875 130.695 202.844 130.958C202.98 130.738 203.087 130.501 203.161 130.253C203.365 129.703 203.619 129.033 203.908 128.243C204.529 126.551 205.396 124.217 206.397 121.651C207.398 119.085 208.336 116.779 209.02 115.108C209.33 114.333 209.598 113.698 209.824 113.127C209.943 112.882 210.026 112.62 210.07 112.351Z" fill="#263238"/>
<path d="M208.024 184.809C208.077 184.651 208.115 184.488 208.137 184.323C208.201 183.963 208.285 183.498 208.384 182.912C208.44 182.602 208.497 182.264 208.56 181.897C208.624 181.531 208.729 181.129 208.828 180.699C209.019 179.845 209.216 178.865 209.533 177.801C209.681 177.265 209.829 176.708 209.992 176.13L210.563 174.332C210.929 173.091 211.444 171.801 211.973 170.426C213.044 167.704 214.349 164.786 215.865 161.754C218.521 156.637 221.446 151.664 224.628 146.856C225.834 145.037 226.814 143.55 227.526 142.485C227.85 141.991 228.104 141.597 228.309 141.293C228.405 141.157 228.49 141.014 228.562 140.863C228.443 140.981 228.337 141.111 228.245 141.251L227.406 142.4C226.701 143.409 225.651 144.875 224.41 146.715C221.161 151.491 218.199 156.457 215.54 161.585C214.017 164.609 212.72 167.563 211.655 170.299C211.169 171.709 210.661 172.985 210.302 174.24L209.752 176.045C209.604 176.637 209.456 177.194 209.315 177.737C209.019 178.809 208.842 179.796 208.666 180.656C208.581 181.089 208.504 181.491 208.433 181.862C208.377 182.236 208.335 182.567 208.285 182.884C208.215 183.469 208.151 183.942 208.102 184.294C208.058 184.463 208.032 184.635 208.024 184.809Z" fill="#263238"/>
<path d="M229.392 39.1396C230.919 39.3465 232.473 39.1014 233.862 38.4346C234.55 38.0985 235.133 37.5804 235.546 36.9365C235.96 36.2926 236.19 35.5476 236.21 34.7824C236.21 33.887 235.794 33.0057 235.942 32.1244C236.09 31.2431 236.746 30.538 237.169 29.7484C237.672 28.7402 237.814 27.5904 237.573 26.4899C237.332 25.3895 236.722 24.4047 235.843 23.699C234.92 22.994 233.728 22.6274 232.967 21.7602C232.05 20.7378 231.902 19.2572 231.345 18.0022C230.932 17.0983 230.303 16.3094 229.514 15.7047C228.725 15.1 227.799 14.6978 226.819 14.5334C225.733 14.3642 224.605 14.484 223.569 14.1386C222.713 13.7686 221.905 13.2951 221.164 12.7285C218.711 11.1429 215.734 10.5834 212.873 11.1703C211.619 11.3917 210.455 11.9666 209.517 12.8272C208.509 13.8284 207.211 14.9423 206.845 16.2819C206.415 17.9035 206.944 19.9341 207.374 21.5486C207.804 23.1632 209.108 24.6438 210.772 24.8412" fill="#263238"/>
<path d="M229.734 51.6119L216.494 51.7952C216.268 50.2723 215.789 44.3217 215.789 44.3217C215.789 44.3217 210.24 43.9903 209.662 38.5262C209.083 33.062 208.844 20.4276 208.844 20.4276C211.825 18.7974 215.188 17.9934 218.584 18.0988C221.981 18.2041 225.287 19.215 228.162 21.0268L229.029 21.5768L229.734 51.6119Z" fill="#FFBE9D"/>
<path d="M215.379 34.9648C214.973 34.851 214.552 34.8034 214.131 34.8238C213.934 34.8238 213.778 34.7885 213.75 34.6828C213.73 34.4877 213.762 34.2907 213.842 34.1117L214.293 32.5253C214.731 31.1765 215.036 29.788 215.203 28.3796C214.628 29.6768 214.184 31.0277 213.877 32.4125C213.729 32.9625 213.595 33.4842 213.461 34.0059C213.364 34.2723 213.364 34.5644 213.461 34.8308C213.497 34.904 213.549 34.9678 213.614 35.0168C213.679 35.0658 213.755 35.0987 213.835 35.1129C213.947 35.1298 214.061 35.1298 214.173 35.1129C214.581 35.1336 214.989 35.0835 215.379 34.9648Z" fill="#263238"/>
<path d="M215.804 44.2446C218.333 44.056 220.749 43.1184 222.742 41.5513C222.742 41.5513 221.424 45.6406 215.924 45.6617L215.804 44.2446Z" fill="#EB996E"/>
<path d="M228.989 27.3227C229.102 27.2734 232.733 26.6811 232.514 31.0031C232.295 35.325 228.016 33.6893 228.009 33.5624C228.002 33.4355 228.989 27.3227 228.989 27.3227Z" fill="#FFBE9D"/>
<path d="M229.392 32.1094C229.392 32.1094 229.47 32.1658 229.589 32.2293C229.765 32.3139 229.967 32.329 230.153 32.2716C230.44 32.107 230.678 31.8698 230.844 31.5839C231.01 31.298 231.098 30.9734 231.098 30.6429C231.126 30.2711 231.071 29.8977 230.936 29.5501C230.901 29.4146 230.834 29.2895 230.741 29.1852C230.648 29.0809 230.531 29.0005 230.4 28.9508C230.314 28.9248 230.222 28.9287 230.139 28.962C230.056 28.9954 229.986 29.056 229.942 29.1341C229.878 29.254 229.942 29.3386 229.878 29.3456C229.815 29.3527 229.794 29.2681 229.836 29.0918C229.865 28.9862 229.93 28.894 230.019 28.831C230.078 28.7873 230.146 28.7565 230.218 28.7407C230.289 28.7249 230.364 28.7245 230.435 28.7393C230.612 28.7806 230.774 28.8675 230.907 28.9912C231.039 29.1149 231.137 29.2711 231.19 29.4443C231.357 29.8279 231.428 30.2469 231.394 30.6641C231.399 31.0497 231.29 31.428 231.079 31.7508C230.868 32.0735 230.565 32.3261 230.21 32.4761C230.089 32.5085 229.962 32.512 229.84 32.4863C229.717 32.4605 229.602 32.4063 229.505 32.328C229.392 32.2152 229.392 32.1165 229.392 32.1094Z" fill="#EB996E"/>
<path d="M220.291 27.2171C220.354 27.1395 220.248 26.935 219.966 26.7165C219.591 26.4504 219.149 26.2941 218.69 26.2652C218.231 26.2292 217.772 26.3246 217.365 26.5402C217.055 26.7165 216.928 26.9068 216.977 26.9844C217.083 27.1677 217.781 26.928 218.641 26.9844C219.501 27.0408 220.164 27.3792 220.291 27.2171Z" fill="#263238"/>
<path d="M212.619 27.2594C212.661 27.069 212.069 26.787 211.293 26.7941C210.518 26.8011 209.926 27.0761 209.961 27.2735C209.996 27.4709 210.588 27.5273 211.293 27.5273C211.999 27.5273 212.584 27.4639 212.619 27.2594Z" fill="#263238"/>
<path d="M230.359 22.9014C230.148 24.2269 229.941 25.5548 229.739 26.885C229.704 27.5185 229.486 28.1282 229.111 28.6405C228.406 29.4231 227.123 29.3456 226.221 28.8309C224.902 28.0624 224.176 26.5888 223.619 25.1646C223.062 23.7404 222.569 22.2387 221.504 21.1529C220.739 21.9545 219.739 22.4938 218.649 22.6939C217.559 22.8939 216.434 22.7445 215.433 22.2669C214.552 21.8298 213.819 21.1388 212.973 20.6312C212.569 20.3452 212.104 20.1558 211.615 20.0776C211.126 19.9994 210.626 20.0344 210.153 20.1799C209.652 20.3915 209.201 20.8004 208.665 20.7722C208.46 20.7547 208.262 20.6846 208.092 20.5685C207.921 20.4524 207.783 20.2943 207.692 20.1094C207.516 19.7336 207.455 19.3143 207.516 18.9038C207.692 17.3809 208.926 16.1682 210.336 15.4914C212.303 14.5255 214.566 14.3915 216.766 14.3844C218.852 14.3228 220.937 14.5289 222.97 14.9978C225.012 15.4784 226.87 16.5443 228.315 18.0648C229.027 18.8313 229.556 19.7488 229.864 20.7486C230.172 21.7485 230.249 22.805 230.091 23.8391" fill="#263238"/>
<path d="M213.126 18.5301C212.837 19.9334 212.094 21.2023 211.01 22.14C210.522 22.6266 209.873 22.9176 209.184 22.9578C208.632 22.892 208.123 22.6247 207.755 22.2072C207.386 21.7897 207.185 21.2512 207.189 20.6946C207.238 19.5727 207.721 18.5137 208.536 17.7405C209.231 16.9169 210.22 16.396 211.292 16.2881C211.824 16.2626 212.346 16.4386 212.754 16.781C213.162 17.1234 213.425 17.6071 213.492 18.1353" fill="#263238"/>
<path d="M219.52 29.2609C219.52 29.4479 219.445 29.6272 219.313 29.7594C219.181 29.8917 219.001 29.9659 218.814 29.9659C218.726 29.9717 218.637 29.9594 218.553 29.93C218.469 29.9006 218.392 29.8546 218.326 29.7947C218.26 29.7349 218.207 29.6624 218.17 29.5816C218.133 29.5007 218.112 29.4133 218.109 29.3243C218.109 29.1374 218.184 28.958 218.316 28.8258C218.448 28.6936 218.627 28.6193 218.814 28.6193C218.903 28.6126 218.993 28.6241 219.077 28.6531C219.162 28.6822 219.239 28.7281 219.305 28.7882C219.371 28.8482 219.424 28.9211 219.461 29.0024C219.498 29.0837 219.518 29.1717 219.52 29.2609Z" fill="#263238"/>
<path d="M220.63 28.4995C220.538 28.5911 220.023 28.1893 219.276 28.1752C218.529 28.1611 217.979 28.5277 217.901 28.429C217.823 28.3303 217.95 28.2316 218.197 28.0624C218.521 27.8472 218.902 27.7365 219.291 27.7454C219.679 27.7542 220.055 27.8821 220.369 28.1117C220.594 28.3021 220.672 28.4995 220.63 28.4995Z" fill="#263238"/>
<path d="M211.859 29.2407C211.859 29.4277 211.785 29.607 211.653 29.7393C211.521 29.8715 211.341 29.9458 211.154 29.9458C211.065 29.9525 210.976 29.941 210.892 29.912C210.807 29.8829 210.73 29.837 210.664 29.7769C210.598 29.7168 210.544 29.6439 210.508 29.5626C210.471 29.4814 210.451 29.3934 210.449 29.3042C210.449 29.1172 210.524 28.9379 210.656 28.8056C210.788 28.6734 210.967 28.5991 211.154 28.5991C211.331 28.5984 211.501 28.6639 211.632 28.7827C211.762 28.9015 211.843 29.0649 211.859 29.2407Z" fill="#263238"/>
<path d="M212.852 28.62C212.768 28.7117 212.246 28.3098 211.499 28.2957C210.751 28.2816 210.201 28.6482 210.089 28.5566C209.976 28.4649 210.138 28.3521 210.385 28.1829C210.709 27.9662 211.093 27.8553 211.483 27.8654C211.873 27.8755 212.25 28.0061 212.563 28.2393C212.817 28.4156 212.895 28.5848 212.852 28.62Z" fill="#263238"/>
<path d="M215.556 37.179C215.556 37.2283 215.739 37.3129 216.078 37.2918C216.518 37.2592 216.931 37.063 217.234 36.7418C217.54 36.4219 217.719 36.0002 217.734 35.5574C217.734 35.226 217.643 35.0356 217.6 35.0427C217.558 35.0497 217.6 35.8535 216.973 36.488C216.345 37.1226 215.549 37.0803 215.556 37.179Z" fill="#263238"/>
<path d="M213.058 65.4238L202.052 61.7434C202.052 61.7434 194.395 79.8702 192.421 80.0747C181.5 81.0688 169.81 77.4519 165.714 76.0207C165.298 75.5483 164.819 74.9913 164.304 74.3003C163.853 73.7096 163.505 73.0469 163.275 72.3403C162.959 71.4705 162.763 70.5622 162.689 69.64C162.712 69.4605 162.678 69.2783 162.592 69.1194C162.505 68.9605 162.371 68.8329 162.207 68.7548C162.044 68.6768 161.861 68.6521 161.683 68.6844C161.505 68.7168 161.341 68.8044 161.216 68.9349C160.743 69.5483 160.624 71.8891 161.702 74.4061C162.781 76.9231 158.967 74.9208 157.564 74.2157C156.161 73.5107 151.712 71.5365 151.155 71.7974C150.337 72.1781 150.591 73.1229 152.008 73.7927C153.425 74.4625 157.543 76.7821 157.134 77.5013C156.725 78.2204 149.632 74.533 149.632 74.533C149.632 74.533 148.222 73.4966 147.742 74.3144C146.84 75.795 154.68 79.1581 155.427 79.4613C155.956 79.6728 155.54 80.4766 154.99 80.2157C154.44 79.9548 147.996 76.3732 147.066 77.8749C146.36 79.0242 153.481 80.6951 154.398 82.1828C155.315 83.6704 149.124 80.3638 148.483 81.4777C148.25 81.9008 148.13 82.2462 151.966 83.5929C154.773 84.4744 157.625 85.204 160.511 85.7785C160.511 85.7785 199.994 103.447 207.044 86.399C214.285 69.1112 213.058 65.4238 213.058 65.4238Z" fill="#EB996E"/>
<path d="M198.365 67.7147C202.771 57.3998 208.539 53.3599 211.584 51.8652C212.652 51.3473 213.812 51.0499 214.997 50.9909L215.364 49.2142L229.958 47.9028L230.318 50.159L232.433 50.0391C232.433 50.0391 245.011 51.3012 245.039 65.8745C245.039 72.6924 241.366 79.3269 240.068 82.5771C239.258 89.3738 242.184 101.705 242.092 104.709L206.325 107.247L204.858 84.9038L205.19 82.7887L193.415 79.1788L198.365 67.7147Z" fill="#00995B"/>
<path d="M119.177 18.3897C124.34 11.9956 131.282 7.27559 139.127 4.82613C146.971 2.37666 155.366 2.30772 163.249 4.62802C171.133 6.94831 178.152 11.5537 183.419 17.8621C188.686 24.1704 191.965 31.8987 192.841 40.0699C193.547 46.713 192.641 53.4286 190.199 59.6467C187.756 65.8647 183.849 71.4017 178.81 75.7877L215.184 118.478L209.966 122.927L173.304 79.877C168.039 83.1276 162.112 85.154 155.959 85.8065C154.465 85.9668 152.964 86.0468 151.461 86.0462C143.626 86.0201 135.958 83.7819 129.339 79.5892C122.721 75.3966 117.421 69.4199 114.049 62.3474C110.678 55.2749 109.373 47.3941 110.284 39.6123C111.195 31.8305 114.285 24.4642 119.198 18.3615L119.177 18.3897ZM117.02 48.1709C117.874 56.1505 121.468 63.5872 127.19 69.2139C132.912 74.8405 140.409 78.309 148.401 79.0284C156.394 79.7478 164.389 77.6736 171.024 73.1591C177.659 68.6447 182.524 61.9694 184.789 54.2705C187.054 46.5716 186.58 38.3255 183.447 30.9372C180.314 23.5489 174.716 17.4754 167.607 13.7516C160.498 10.0278 152.318 8.88412 144.46 10.5153C136.603 12.1466 129.554 16.4518 124.514 22.6975C121.643 26.2372 119.502 30.3111 118.216 34.6836C116.929 39.0561 116.523 43.6403 117.02 48.1709Z" fill="#263238"/>
<path d="M122.1 15.4633C127.261 9.06595 134.203 4.34285 142.049 1.89133C149.894 -0.560189 158.291 -0.629997 166.176 1.69072C174.061 4.01144 181.081 8.61845 186.347 14.9291C191.614 21.2397 194.891 28.9704 195.764 37.1435C196.472 43.7867 195.566 50.5027 193.123 56.7209C190.681 62.9392 186.773 68.4761 181.733 72.8613L218.551 115.869L212.974 120.332L176.206 76.9224C170.94 80.1702 165.013 82.1964 158.861 82.8519C157.367 83.0089 155.866 83.0889 154.363 83.0916C146.528 83.0655 138.86 80.8273 132.241 76.6347C125.623 72.442 120.323 66.4653 116.951 59.3928C113.58 52.3203 112.275 44.4395 113.186 36.6577C114.097 28.8759 117.187 21.5096 122.1 15.4069V15.4633ZM119.943 45.2445C120.796 53.228 124.391 60.6687 130.115 66.2987C135.839 71.9287 143.338 75.3997 151.335 76.1201C159.332 76.8405 167.33 74.7658 173.969 70.2495C180.607 65.7333 185.474 59.0549 187.74 51.3524C190.006 43.6499 189.532 35.3999 186.397 28.0083C183.262 20.6166 177.661 14.5406 170.549 10.8157C163.436 7.09076 155.252 5.94737 147.391 7.58035C139.53 9.21333 132.478 13.5216 127.437 19.7711C124.567 23.3114 122.427 27.3854 121.14 31.7577C119.854 36.13 119.447 40.714 119.943 45.2445Z" fill="#455A64"/>
<path d="M173.301 64.0698C173.405 63.981 173.498 63.8791 173.576 63.7667C173.745 63.5551 174.006 63.252 174.281 62.836C175.138 61.6741 175.913 60.4537 176.6 59.1838C178.898 54.9878 180.293 50.3582 180.697 45.5917C181.102 40.8251 180.506 36.0266 178.948 31.5036C178.488 30.1385 177.932 28.8074 177.284 27.5201C177.066 27.0548 176.861 26.7163 176.727 26.4837C176.673 26.3578 176.599 26.2412 176.509 26.1382C176.549 26.2693 176.601 26.3967 176.664 26.5189C176.77 26.7657 176.953 27.1112 177.157 27.5765C177.749 28.8836 178.267 30.2229 178.709 31.5882C180.184 36.094 180.737 40.8507 180.335 45.5747C179.932 50.2988 178.583 54.8935 176.368 59.0851C175.707 60.356 174.972 61.5872 174.168 62.7725C173.893 63.2026 173.653 63.4776 173.505 63.7385C173.426 63.8417 173.358 63.9528 173.301 64.0698Z" fill="#263238"/>
<path d="M171.579 21.3997C171.516 21.4843 171.939 21.8791 172.362 22.4361C172.785 22.9931 173.067 23.4937 173.166 23.4585C173.264 23.4232 173.123 22.8098 172.658 22.2105C172.193 21.6112 171.629 21.3151 171.579 21.3997Z" fill="#263238"/>
<path d="M208.125 59.9233C208.012 60.2395 207.927 60.5651 207.871 60.8963C207.73 61.5238 207.547 62.4404 207.328 63.5825C206.905 65.8528 206.391 69.0114 205.918 72.5155C205.446 76.0196 205.213 79.2064 205.079 81.5119C205.009 82.6682 204.966 83.6271 204.952 84.2475C204.919 84.5828 204.919 84.9205 204.952 85.2557C205.024 84.9288 205.067 84.5961 205.079 84.2616C205.143 83.5566 205.227 82.633 205.326 81.5331C205.53 79.2346 205.841 76.0549 206.271 72.5578C206.701 69.0608 207.18 65.9092 207.54 63.6248C207.709 62.5391 207.85 61.6296 207.963 60.9175C208.052 60.5928 208.107 60.2596 208.125 59.9233Z" fill="#263238"/>
<path d="M188.67 94.5557C188.67 94.5557 228.153 112.259 235.203 95.2114C242.437 77.846 241.21 74.1586 241.21 74.1586L230.205 70.4783C230.205 70.4783 222.541 88.6051 220.574 88.8096C209.645 89.8107 197.956 86.1868 193.859 84.7555C193.443 84.2902 192.971 83.7262 192.449 83.0423C191.927 82.3584 191.519 81.6322 191.039 81.0188C189.996 79.7144 189.171 79.4959 188.712 78.9812C187.627 77.7473 186.597 78.6498 187.105 79.3125C187.613 79.9753 188.748 80.6521 189.826 83.1762C190.905 85.7003 187.063 84.4524 185.54 84.0575C183.862 83.6133 180.71 82.3866 180.71 82.3866C180.633 83.1269 181.472 84.6145 182.889 85.2843C183.657 85.6581 184.445 85.9876 185.251 86.2714C185.251 86.2714 182.339 85.9118 182.261 86.5816C182.184 87.2514 183.121 92.1585 186.224 93.6321L188.67 94.5557Z" fill="#FFBE9D"/>
<path d="M232.798 54.6853L225.705 76.0976L241.216 82.2316C241.216 82.2316 249.31 61.2 239.058 56.0531L232.798 54.6853Z" fill="#00995B"/>
<path d="M224.675 75.2666C224.675 75.2666 224.76 75.2102 224.887 75.0691C225.062 74.8484 225.218 74.6125 225.352 74.3641C225.784 73.4481 226.158 72.5062 226.473 71.5439C227.34 69.1467 228.518 65.8189 229.794 62.1456L231.578 56.9564C232.127 55.363 232.558 53.8824 233.368 52.9306C233.67 52.5441 234.055 52.2302 234.494 52.0118C234.934 51.7934 235.416 51.6761 235.907 51.6686C236.269 51.6922 236.624 51.778 236.957 51.9224C236.957 51.9224 236.887 51.8448 236.717 51.7532C236.468 51.6223 236.194 51.5454 235.914 51.5276C235.392 51.504 234.872 51.6034 234.395 51.8178C233.919 52.0321 233.499 52.3553 233.171 52.7614C232.283 53.7555 231.824 55.2714 231.26 56.8436C230.696 58.4159 230.09 60.1856 229.448 62.0257C228.165 65.699 227.03 69.0762 226.226 71.4593C225.817 72.672 225.521 73.6661 225.225 74.2795C224.929 74.8929 224.647 75.2454 224.675 75.2666Z" fill="#263238"/>
<path d="M225.003 75.6682C225.181 75.8153 225.378 75.9386 225.588 76.0348C225.975 76.2534 226.547 76.5495 227.259 76.902C228.669 77.6071 230.678 78.5237 232.899 79.4332C235.12 80.3427 237.228 81.0689 238.744 81.5483C239.498 81.788 240.154 81.9714 240.549 82.0842C240.776 82.1658 241.013 82.2156 241.254 82.2322C240.477 81.87 239.676 81.5614 238.857 81.3086C237.362 80.7657 235.331 80.0043 233.068 79.1018C230.805 78.1993 228.838 77.318 227.371 76.6694C226.603 76.287 225.812 75.9527 225.003 75.6682Z" fill="#263238"/>
<path d="M238.675 81.441C239.316 80.4804 239.743 79.3938 239.93 78.2542C239.559 78.7022 239.288 79.2236 239.133 79.7841C238.861 80.2961 238.704 80.8618 238.675 81.441Z" fill="#263238"/>
<path d="M235.395 80.1801C235.487 80.2294 235.91 79.609 236.22 78.77C236.465 78.2618 236.563 77.6952 236.502 77.1343C236.214 77.6031 236.002 78.1148 235.874 78.6501C235.64 79.1335 235.478 79.6491 235.395 80.1801Z" fill="#263238"/>
<path d="M231.96 78.6923C232.388 78.295 232.694 77.7838 232.842 77.2187C233.099 76.6917 233.202 76.1025 233.138 75.5195C232.852 76.009 232.636 76.5358 232.496 77.0847C232.245 77.5938 232.065 78.1346 231.96 78.6923Z" fill="#263238"/>
<path d="M228.287 77.2112C228.627 76.7174 228.866 76.1616 228.992 75.5755C229.226 75.0246 229.348 74.4326 229.352 73.834C229.004 74.3209 228.764 74.876 228.647 75.4626C228.406 76.0139 228.283 76.6096 228.287 77.2112Z" fill="#263238"/>
<path d="M193.135 78.9521C195.082 79.7751 197.076 80.4814 199.107 81.0673C201.1 81.7656 203.132 82.3494 205.191 82.8158C203.243 81.996 201.249 81.2898 199.22 80.7007C197.227 80.0002 195.195 79.4163 193.135 78.9521Z" fill="#263238"/>
<path d="M202.595 81.442C202.694 81.4843 203.004 80.9626 203.3 80.2857C203.596 79.6089 203.744 79.0237 203.653 78.9814C203.561 78.9391 203.251 79.4608 202.948 80.1447C202.645 80.8286 202.489 81.3786 202.595 81.442Z" fill="#263238"/>
<path d="M199.555 80.7576C199.646 80.7576 199.978 80.1795 200.203 79.3475C200.397 78.8596 200.451 78.3273 200.358 77.8105C200.253 77.8105 200.069 78.4521 199.851 79.2206C199.653 79.7089 199.553 80.231 199.555 80.7576Z" fill="#263238"/>
<path d="M196.253 79.7151C196.694 78.7721 196.904 77.7378 196.867 76.6975C196.595 77.1454 196.429 77.6493 196.38 78.1711C196.22 78.6691 196.176 79.1975 196.253 79.7151Z" fill="#263238"/>
<path d="M228.525 49.9614C228.631 49.9614 228.681 49.5666 228.652 49.0871C228.624 48.6077 228.504 48.234 228.406 48.2411C228.307 48.2481 228.25 48.6429 228.286 49.1153C228.321 49.5877 228.427 49.9684 228.525 49.9614Z" fill="#263238"/>
<path d="M225.317 50.1517C225.422 50.1517 225.514 49.771 225.535 49.2986C225.556 48.8262 225.486 48.4314 225.387 48.4314C225.289 48.4314 225.19 48.8051 225.169 49.2845C225.148 49.7639 225.218 50.1447 225.317 50.1517Z" fill="#263238"/>
<path d="M222.832 50.5811C222.93 50.5811 223.008 50.1793 223.008 49.6857C223.008 49.1922 222.916 48.7974 222.817 48.7974C222.719 48.7974 222.634 49.1992 222.641 49.6857C222.648 50.1722 222.726 50.5811 222.832 50.5811Z" fill="#263238"/>
<path d="M219.474 50.9494C219.566 50.9494 219.77 50.5194 219.784 49.913C219.798 49.3067 219.629 48.8414 219.538 48.8625C219.446 48.8837 219.439 49.3419 219.418 49.8989C219.397 50.4559 219.368 50.9212 219.474 50.9494Z" fill="#263238"/>
<path d="M216.697 50.9488C216.803 50.9488 216.937 50.5047 217.008 49.9265C217.078 49.3484 217.05 48.8689 216.951 48.8619C216.853 48.8548 216.712 49.3061 216.641 49.8842C216.571 50.4624 216.606 50.9347 216.697 50.9488Z" fill="#263238"/>
</svg>
