<svg width="272" height="234" viewBox="0 0 272 234" fill="none" xmlns="http://www.w3.org/2000/svg">
<path d="M268.203 49.0989L267.26 46.3469C259.369 22.9549 239.41 5.31459 215.027 1.29667C211.889 0.769325 208.715 0.474976 205.533 0.41603C182.616 0.0101102 159.85 11.9607 147.163 31.0527C139.705 42.2671 135.192 56.144 124.115 63.8565C109.75 73.9288 90.2174 69.8628 73.2444 65.4045C56.2715 60.9463 36.7185 56.9352 22.4012 67.0626C13.4572 73.4059 8.55178 84.2626 6.66666 95.0642C1.71994 123.726 15.8446 153.634 38.3628 172.051C60.8811 190.469 90.5339 198.471 119.609 199.324C160.345 200.521 202.279 187.745 232.104 159.97C261.928 132.196 277.856 88.6864 268.203 49.0989Z" fill="#FFE7EC"/>
<path d="M185.613 161.611C194.469 161.611 202.962 165.128 209.224 171.389C215.487 177.65 219.007 186.141 219.01 194.997V233.722H152.217V194.997C152.22 186.141 155.739 177.65 162.002 171.389C168.265 165.128 176.758 161.611 185.613 161.611Z" fill="#455A64"/>
<path d="M101.047 207.946L97.687 210.325L93.9531 219.292C93.9531 219.292 94.9666 219.974 95.7507 219.249C96.5348 218.523 99.5325 213.312 99.5325 213.312V216.395C99.5364 217 99.7615 217.582 100.165 218.032C100.569 218.482 101.124 218.769 101.725 218.838L107.262 220.566L114.057 218.63L114.639 210.544L101.047 207.946Z" fill="#FFBE9D"/>
<path d="M161.423 148.327C159.759 147.847 158.943 145.943 158.794 144.22C158.644 142.497 158.927 140.716 158.458 139.052C158.122 137.867 157.417 136.779 157.327 135.552C157.231 134.23 157.86 132.955 157.903 131.632C157.951 129.781 156.836 128.063 156.836 126.213C156.799 123.652 157.257 119.422 159.818 119.566C162.378 119.71 166.48 124.196 166.155 126.735" fill="#263238"/>
<path d="M185.615 127.13L185.561 129.69L185.028 167.968C184.969 172.411 181.102 175.899 176.344 175.798C171.543 175.697 167.634 171.979 167.623 167.488C167.623 162.772 167.506 157.812 167.506 157.812C167.506 157.812 161.435 156.803 160.177 148.882C159.552 144.946 159.75 138.486 160.081 133.206C160.151 132.079 160.449 130.979 160.956 129.97C161.463 128.962 162.169 128.067 163.031 127.338C163.893 126.61 164.894 126.063 165.973 125.731C167.051 125.399 168.186 125.289 169.308 125.407L185.615 127.13Z" fill="#FFBE9D"/>
<path d="M161.723 137.702C161.721 137.967 161.822 138.223 162.006 138.415C162.189 138.607 162.439 138.721 162.704 138.732C162.835 138.745 162.967 138.731 163.093 138.692C163.218 138.652 163.335 138.588 163.434 138.502C163.534 138.416 163.615 138.311 163.673 138.193C163.731 138.074 163.764 137.946 163.771 137.814C163.773 137.681 163.749 137.549 163.7 137.426C163.651 137.302 163.578 137.19 163.485 137.095C163.392 137 163.282 136.924 163.16 136.871C163.038 136.819 162.906 136.791 162.773 136.79C162.644 136.779 162.514 136.794 162.391 136.834C162.267 136.875 162.153 136.939 162.056 137.024C161.958 137.109 161.878 137.213 161.82 137.33C161.763 137.446 161.73 137.573 161.723 137.702Z" fill="#263238"/>
<path d="M161.503 136.566C161.626 136.699 162.399 136.129 163.493 136.134C164.586 136.139 165.386 136.667 165.504 136.55C165.621 136.433 165.434 136.251 165.082 136.017C164.612 135.693 164.053 135.52 163.482 135.521C162.905 135.521 162.344 135.708 161.882 136.054C161.556 136.257 161.439 136.507 161.503 136.566Z" fill="#263238"/>
<path d="M172.668 137.702C172.664 137.967 172.764 138.224 172.946 138.416C173.129 138.609 173.379 138.722 173.644 138.732C173.775 138.743 173.907 138.729 174.031 138.689C174.156 138.648 174.272 138.584 174.371 138.498C174.471 138.413 174.552 138.308 174.61 138.191C174.669 138.073 174.703 137.945 174.711 137.814C174.714 137.549 174.613 137.293 174.429 137.102C174.246 136.91 173.995 136.798 173.73 136.79C173.599 136.777 173.468 136.79 173.343 136.83C173.218 136.869 173.102 136.933 173.003 137.018C172.904 137.104 172.823 137.208 172.765 137.326C172.708 137.443 172.675 137.571 172.668 137.702Z" fill="#263238"/>
<path d="M172.245 136.79C172.373 136.923 173.141 136.358 174.235 136.358C175.328 136.358 176.129 136.891 176.251 136.774C176.374 136.657 176.182 136.475 175.83 136.241C175.358 135.918 174.801 135.746 174.23 135.745C173.653 135.747 173.092 135.934 172.629 136.278C172.299 136.47 172.187 136.71 172.245 136.79Z" fill="#263238"/>
<path d="M168.284 144.876C167.707 144.701 167.11 144.593 166.508 144.556C166.225 144.53 165.974 144.471 165.916 144.284C165.894 143.996 165.959 143.708 166.102 143.458L166.929 141.324C168.076 138.3 168.903 135.809 168.78 135.766C168.657 135.723 167.633 138.134 166.487 141.164C166.209 141.911 165.953 142.62 165.692 143.298C165.526 143.627 165.475 144.003 165.548 144.364C165.589 144.462 165.651 144.549 165.731 144.62C165.81 144.69 165.904 144.741 166.006 144.77C166.161 144.813 166.321 144.837 166.481 144.839C167.078 144.929 167.684 144.942 168.284 144.876Z" fill="#263238"/>
<path d="M167.525 157.811C171.255 157.87 174.929 156.891 178.135 154.984C178.135 154.984 175.558 160.425 167.632 159.684L167.525 157.811Z" fill="#EB996E"/>
<path d="M168.741 147.512C168.949 147.25 169.22 147.046 169.529 146.918C169.838 146.791 170.174 146.743 170.506 146.781C170.748 146.802 170.982 146.873 171.196 146.987C171.409 147.102 171.598 147.258 171.749 147.448C171.895 147.63 171.982 147.852 171.997 148.085C172.012 148.318 171.956 148.55 171.835 148.749C171.66 148.946 171.43 149.086 171.176 149.15C170.921 149.215 170.652 149.202 170.405 149.112C169.889 148.929 169.414 148.646 169.007 148.28C168.883 148.192 168.776 148.082 168.693 147.954C168.652 147.894 168.631 147.824 168.631 147.752C168.631 147.679 168.652 147.609 168.693 147.549" fill="#EB996E"/>
<path d="M171.501 145.634C171.319 145.634 171.319 146.813 170.306 147.65C169.292 148.488 168.023 148.365 168.018 148.53C168.018 148.605 168.295 148.76 168.828 148.776C169.525 148.785 170.203 148.549 170.743 148.109C171.259 147.687 171.59 147.08 171.666 146.418C171.714 145.922 171.581 145.629 171.501 145.634Z" fill="#263238"/>
<path d="M171.964 132.486C172.076 132.784 173.164 132.646 174.45 132.8C175.735 132.955 176.77 133.302 176.935 133.035C177.015 132.907 176.834 132.63 176.402 132.341C175.844 131.989 175.213 131.768 174.556 131.696C173.9 131.624 173.236 131.702 172.615 131.925C172.156 132.112 171.921 132.347 171.964 132.486Z" fill="#263238"/>
<path d="M161.903 133.403C162.095 133.654 162.847 133.403 163.754 133.403C164.661 133.403 165.429 133.568 165.605 133.312C165.68 133.184 165.562 132.933 165.226 132.699C164.778 132.412 164.253 132.271 163.722 132.293C163.189 132.302 162.673 132.478 162.245 132.795C161.925 133.024 161.818 133.28 161.903 133.403Z" fill="#263238"/>
<path d="M188.531 124.698C190.179 120.222 197.039 113.496 202.314 116.483C208.091 119.769 206.048 122.052 208.134 123.567C208.63 123.924 210.977 123.146 211.302 123.668C212.161 125.05 211.43 126.837 210.7 128.288C210.882 128.261 211.061 128.215 211.233 128.149C211.382 128.09 211.543 128.07 211.702 128.089C211.861 128.109 212.013 128.167 212.144 128.26C212.274 128.352 212.38 128.476 212.451 128.62C212.522 128.763 212.556 128.922 212.55 129.082C212.451 130.857 211.83 132.562 210.764 133.984C211.126 134.069 211.501 134.081 211.868 134.022C211.985 134.003 212.104 134.015 212.215 134.056C212.326 134.098 212.424 134.167 212.5 134.258C212.576 134.349 212.627 134.458 212.648 134.575C212.669 134.691 212.659 134.811 212.62 134.923C212.295 135.775 211.76 136.532 211.066 137.123C210.371 137.714 209.539 138.12 208.646 138.305C206.443 138.758 204.117 137.958 202.32 136.609C200.522 135.259 199.167 133.408 197.951 131.504C197.242 130.41 196.543 129.258 195.487 128.49C194.431 127.722 192.91 127.423 191.828 128.149" fill="#263238"/>
<path d="M191.817 127.978C191.817 127.978 191.817 127.893 191.817 127.77C191.801 127.586 191.756 127.407 191.684 127.237C191.455 126.674 191.167 126.138 190.825 125.637C190.495 125.116 190.119 124.627 189.699 124.175C189.379 123.834 189.139 123.642 189.166 123.642C189.422 123.718 189.653 123.86 189.838 124.052C190.307 124.481 190.718 124.968 191.06 125.503C191.417 126.03 191.69 126.61 191.87 127.221C191.931 127.412 191.951 127.614 191.929 127.813C191.892 127.92 191.828 127.989 191.817 127.978Z" fill="#EC6980"/>
<path d="M205.211 140.257C205.211 140.257 205.152 140.316 205.019 140.401C204.828 140.53 204.624 140.639 204.411 140.726C203.62 141.047 202.761 141.161 201.914 141.057C200.642 140.915 199.465 140.311 198.607 139.361C198.117 138.785 197.753 138.113 197.54 137.387C197.322 136.62 197.191 135.831 197.151 135.035C197.05 133.435 197.114 131.872 196.826 130.517C196.701 129.877 196.48 129.26 196.17 128.687C195.888 128.199 195.511 127.773 195.06 127.434C194.42 126.913 193.613 126.641 192.788 126.666C192.488 126.703 192.192 126.765 191.902 126.853C191.965 126.803 192.036 126.764 192.11 126.735C192.323 126.645 192.548 126.584 192.777 126.554C193.639 126.489 194.494 126.745 195.177 127.274C195.659 127.622 196.064 128.065 196.367 128.575C196.701 129.164 196.94 129.801 197.076 130.464C197.386 131.856 197.327 133.419 197.428 135.019C197.468 135.795 197.593 136.564 197.802 137.313C197.998 138.001 198.334 138.642 198.789 139.196C199.476 139.954 200.37 140.493 201.361 140.747C202.352 141.002 203.396 140.959 204.363 140.625C204.923 140.422 205.195 140.23 205.211 140.257Z" fill="#263238"/>
<path d="M210.535 118.724C210.599 118.816 210.651 118.917 210.689 119.022C210.807 119.326 210.876 119.646 210.892 119.972C210.924 120.489 210.838 121.007 210.641 121.487C210.387 122.136 209.929 122.685 209.334 123.05C208.601 123.474 207.737 123.613 206.907 123.439C206.43 123.348 205.978 123.154 205.585 122.869C205.191 122.584 204.865 122.216 204.63 121.791C204.159 120.855 203.849 119.847 203.712 118.809C203.499 117.769 203.296 116.643 202.592 115.795C202.246 115.383 201.78 115.088 201.259 114.952C200.748 114.826 200.216 114.817 199.701 114.926C198.708 115.149 197.765 115.552 196.917 116.115C195.431 117.024 194.044 118.084 192.777 119.278C191.925 120.085 191.125 120.945 190.383 121.855L189.785 122.607C189.725 122.702 189.651 122.788 189.566 122.863C189.615 122.761 189.674 122.665 189.742 122.575C189.86 122.388 190.052 122.127 190.276 121.791C190.987 120.842 191.772 119.95 192.623 119.124C193.878 117.897 195.265 116.811 196.757 115.886C197.63 115.302 198.602 114.882 199.626 114.648C200.183 114.527 200.76 114.536 201.312 114.675C201.905 114.821 202.437 115.149 202.832 115.614C203.6 116.547 203.798 117.721 204.006 118.756C204.133 119.766 204.427 120.748 204.875 121.663C205.09 122.059 205.39 122.404 205.753 122.672C206.117 122.941 206.534 123.126 206.977 123.215C207.753 123.384 208.565 123.264 209.26 122.879C209.825 122.543 210.268 122.034 210.524 121.428C210.723 120.971 210.821 120.476 210.812 119.977C210.785 119.547 210.692 119.124 210.535 118.724Z" fill="#263238"/>
<path d="M190.499 116.841C190.762 117.082 190.962 117.385 191.081 117.721C191.434 118.52 191.544 119.405 191.396 120.266C191.248 121.126 190.849 121.924 190.249 122.559C190.023 122.837 189.734 123.057 189.406 123.199C189.379 123.162 189.705 122.922 190.105 122.431C190.629 121.794 190.979 121.032 191.118 120.219C191.257 119.406 191.182 118.571 190.899 117.796C190.686 117.198 190.457 116.862 190.499 116.841Z" fill="#263238"/>
<path d="M191.289 126.687C190.682 125.158 189.709 123.802 188.454 122.739C187.199 121.675 185.701 120.937 184.093 120.591C182.126 120.222 180.093 120.497 178.295 121.375C177.633 120.947 177.029 120.436 176.497 119.854C174.617 117.959 172.286 116.573 169.723 115.827C167.142 115.092 164.383 115.306 161.946 116.43C160.743 117 159.685 117.837 158.853 118.876C158.022 119.916 157.437 121.132 157.145 122.431C156.879 123.736 156.98 125.09 157.435 126.342C157.891 127.594 158.684 128.696 159.727 129.525C161.861 131.125 165.061 131.163 167.115 129.472C166.971 130.64 167.995 131.723 169.152 131.941C169.737 132.014 170.331 131.966 170.897 131.801C171.463 131.636 171.989 131.357 172.443 130.981C173.346 130.23 174.195 129.415 174.982 128.544C175.297 128.24 175.622 127.946 175.953 127.663C176.575 129.009 177.501 130.191 178.658 131.116C179.815 132.042 181.172 132.686 182.621 132.998C181.703 133.995 181.783 135.558 182.162 136.859C182.541 138.161 183.154 139.43 183.127 140.785C183.127 141.927 182.621 142.999 182.402 144.119C182.105 145.688 182.332 147.311 183.047 148.738C183.319 149.272 183.656 150.05 183.96 150.579C184.493 151.528 184.493 151.528 185.282 151.768C186.915 152.275 189.731 146.349 190.456 143.996C191.065 142.033 191.299 138.513 192.009 136.587C193.257 133.131 192.483 129.738 191.289 126.687Z" fill="#263238"/>
<path d="M192.387 134.123C192.358 134.187 192.32 134.246 192.275 134.299C192.151 134.455 191.999 134.587 191.827 134.688C191.506 134.876 191.143 134.982 190.77 134.996C190.398 135.01 190.028 134.932 189.693 134.768C189.466 134.656 189.263 134.5 189.096 134.31C188.926 134.103 188.786 133.873 188.68 133.627C188.489 133.099 188.246 132.592 187.955 132.112C187.766 131.88 187.532 131.689 187.269 131.548C187.005 131.407 186.716 131.319 186.418 131.291C185.752 131.218 185.082 131.19 184.413 131.205C183.725 131.191 183.041 131.096 182.375 130.923C181.759 130.75 181.162 130.514 180.594 130.219C179.634 129.716 178.775 129.042 178.06 128.229C177.574 127.687 177.168 127.078 176.854 126.421C176.767 126.248 176.69 126.07 176.625 125.887C176.595 125.823 176.575 125.755 176.566 125.685C177.007 126.556 177.557 127.368 178.204 128.101C178.923 128.875 179.771 129.518 180.711 130C181.266 130.276 181.847 130.5 182.445 130.667C183.09 130.83 183.752 130.92 184.418 130.933C185.101 130.917 185.783 130.949 186.461 131.029C186.791 131.065 187.112 131.166 187.403 131.326C187.694 131.486 187.95 131.703 188.157 131.963C188.459 132.468 188.704 133.004 188.888 133.563C188.983 133.792 189.109 134.007 189.261 134.203C189.411 134.377 189.592 134.522 189.795 134.63C190.105 134.788 190.449 134.871 190.798 134.871C191.146 134.871 191.49 134.788 191.8 134.63C192.016 134.486 192.213 134.316 192.387 134.123Z" fill="#455A64"/>
<path d="M191.156 137.323C191.156 137.323 191.06 137.467 190.82 137.649C190.48 137.904 190.097 138.096 189.689 138.214C189.078 138.399 188.429 138.421 187.806 138.278C187.037 138.104 186.34 137.701 185.806 137.121C185.327 136.523 184.923 135.869 184.6 135.174C184.338 134.627 183.976 134.133 183.534 133.718C183.241 133.441 182.886 133.238 182.499 133.126C182.348 133.104 182.198 133.074 182.051 133.035C182.205 132.997 182.366 132.997 182.52 133.035C182.942 133.105 183.337 133.29 183.662 133.568C184.138 133.984 184.531 134.488 184.819 135.051C185.14 135.722 185.538 136.354 186.003 136.934C186.499 137.474 187.143 137.856 187.854 138.033C188.436 138.178 189.044 138.178 189.625 138.033C190.167 137.871 190.683 137.632 191.156 137.323Z" fill="#455A64"/>
<path d="M212.177 128.031C212.172 128.135 212.147 128.237 212.102 128.33C211.995 128.614 211.832 128.874 211.622 129.093C211.289 129.442 210.875 129.704 210.416 129.856C209.811 130.069 209.154 130.095 208.534 129.93C207.131 129.589 205.813 128.33 205.008 126.666C204.202 125.002 203.696 123.023 202.463 121.332C201.871 120.517 201.062 119.885 200.127 119.508C199.251 119.171 198.31 119.034 197.375 119.108C195.78 119.246 194.278 119.915 193.107 121.007C192.302 121.734 191.618 122.586 191.081 123.53C190.696 124.196 190.547 124.596 190.51 124.596C190.527 124.492 190.561 124.391 190.611 124.298C190.723 124.023 190.849 123.754 190.99 123.492C191.497 122.514 192.169 121.63 192.974 120.878C194.17 119.728 195.722 119.018 197.375 118.868C198.351 118.783 199.335 118.921 200.25 119.273C201.234 119.661 202.086 120.324 202.703 121.183C203.984 122.937 204.432 124.959 205.258 126.559C206.085 128.159 207.285 129.402 208.603 129.76C209.188 129.927 209.811 129.916 210.39 129.728C210.803 129.612 211.182 129.4 211.496 129.109C211.811 128.817 212.051 128.455 212.198 128.053L212.177 128.031Z" fill="#455A64"/>
<path d="M211.974 131.776C211.974 131.776 211.915 131.861 211.782 132.005C211.577 132.209 211.358 132.398 211.126 132.571C210.759 132.845 210.357 133.069 209.931 133.237C209.362 133.469 208.746 133.562 208.134 133.509C207.347 133.383 206.593 133.099 205.918 132.676C205.243 132.253 204.659 131.698 204.202 131.045C203.659 130.283 203.237 129.441 202.954 128.549C202.634 127.642 202.383 126.682 202.042 125.732C201.736 124.807 201.269 123.944 200.661 123.183C200.088 122.488 199.315 121.986 198.447 121.748C196.945 121.381 195.361 121.582 193.998 122.313C193.076 122.803 192.221 123.409 191.454 124.116L190.819 124.692C190.751 124.767 190.674 124.833 190.59 124.89C190.642 124.803 190.707 124.724 190.782 124.655C190.91 124.506 191.107 124.298 191.379 124.036C192.127 123.288 192.979 122.65 193.908 122.143C195.309 121.359 196.954 121.13 198.516 121.503C199.437 121.749 200.259 122.274 200.869 123.007C201.499 123.791 201.985 124.682 202.303 125.636C202.65 126.602 202.901 127.562 203.21 128.463C203.484 129.328 203.887 130.146 204.405 130.89C205.28 132.16 206.623 133.031 208.139 133.312C208.722 133.374 209.312 133.299 209.862 133.093C210.28 132.939 210.678 132.733 211.046 132.48C211.675 132.064 211.958 131.76 211.974 131.776Z" fill="#455A64"/>
<path d="M154.404 211.163L155.306 213.414L153.529 233.944H198.842L196.82 227.805L202.453 228.093C211.142 228.53 218.242 220.769 216.551 212.235C216.498 211.979 216.444 211.701 216.375 211.467C213.564 200.484 209.739 185.719 208.411 181.361C206.208 174.155 201.306 170.731 201.306 170.731H201.232C194.452 165.199 185.23 164.708 185.23 164.708L181.832 166.991C180.156 168.114 178.222 168.789 176.212 168.955C174.202 169.12 172.184 168.769 170.348 167.936C169.677 167.63 169.079 167.183 168.596 166.627C168.113 166.07 167.755 165.416 167.547 164.708C163.557 165.127 159.653 166.145 155.967 167.728C153.872 168.697 151.997 170.085 150.457 171.804C148.917 173.524 147.745 175.54 147.011 177.729L135.175 212.4L115.023 209.675L110.713 221.441L131.132 226.306C134.793 227.397 138.717 227.198 142.249 225.742C145.78 224.285 148.704 221.66 150.532 218.305L154.404 211.184M192.094 213.958C192.094 213.958 194.031 206.533 195.21 202.538L198.069 213.739L192.094 213.958Z" fill="#EC6980"/>
<path d="M207.506 228.21H207.271H206.588H203.921L193.941 228.247L159.211 228.295H159.094V228.162C159.27 223.927 159.462 219.484 159.654 214.896V214.768H159.782L172.685 214.363L198.07 213.6L197.947 213.766C196.997 210.304 196.224 206.933 195.477 203.716C194.731 200.5 194.064 197.417 193.408 194.515C193.095 193.064 192.787 191.656 192.485 190.29C192.155 188.98 191.913 187.649 191.759 186.306C191.645 185.064 191.645 183.814 191.759 182.572C191.854 181.429 192.061 180.298 192.378 179.196C192.899 177.301 193.946 175.592 195.397 174.267C196.495 173.3 197.849 172.67 199.296 172.453C200.195 172.309 201.113 172.359 201.99 172.603C202.214 172.668 202.433 172.748 202.646 172.843C202.79 172.901 202.86 172.939 202.86 172.939C202.86 172.939 202.566 172.805 201.979 172.645C201.108 172.421 200.199 172.383 199.312 172.533C197.887 172.765 196.558 173.4 195.483 174.363C194.06 175.678 193.038 177.368 192.533 179.238C192.226 180.333 192.026 181.455 191.935 182.588C191.82 183.83 191.82 185.08 191.935 186.322C192.092 187.656 192.338 188.978 192.672 190.28C192.976 191.64 193.285 193.048 193.61 194.499C194.266 197.401 194.965 200.473 195.696 203.69C196.427 206.906 197.227 210.277 198.182 213.728L198.224 213.888H198.059L172.701 214.667L159.793 215.072L159.926 214.939C159.729 219.526 159.536 223.97 159.355 228.205L159.222 228.066L193.952 228.119L203.932 228.157H206.599H207.282C207.357 228.17 207.432 228.188 207.506 228.21Z" fill="#263238"/>
<path d="M156.916 180.983C156.939 181.091 156.948 181.202 156.943 181.313C156.943 181.532 156.943 181.847 156.943 182.268C156.868 183.438 156.662 184.596 156.329 185.719C155.825 187.376 155.234 189.005 154.558 190.6C153.72 192.536 153.066 194.547 152.606 196.606C152.23 198.679 152.219 200.802 152.574 202.879C152.86 204.578 153.27 206.254 153.801 207.893C154.249 209.296 154.649 210.421 154.926 211.2L155.236 212.096C155.279 212.198 155.31 212.306 155.326 212.416C155.266 212.323 155.218 212.223 155.182 212.117C155.092 211.888 154.969 211.584 154.825 211.237C154.516 210.469 154.089 209.354 153.614 207.952C153.052 206.31 152.62 204.626 152.323 202.916C151.944 200.812 151.944 198.657 152.323 196.553C152.782 194.478 153.441 192.452 154.292 190.504C155.038 188.701 155.694 187.074 156.11 185.666C156.458 184.558 156.692 183.418 156.809 182.263C156.895 181.441 156.889 180.983 156.916 180.983Z" fill="#263238"/>
<path d="M198.068 213.744C198.372 213.635 198.696 213.593 199.018 213.622C199.795 213.641 200.56 213.823 201.263 214.155C201.985 214.466 202.605 214.974 203.05 215.622C203.249 215.879 203.37 216.189 203.397 216.513C203.349 216.513 203.237 216.182 202.89 215.734C202.425 215.157 201.826 214.701 201.146 214.406C200.471 214.1 199.75 213.907 199.012 213.835C198.696 213.826 198.381 213.796 198.068 213.744Z" fill="#263238"/>
<path d="M194.078 166.714C194.369 166.797 194.653 166.904 194.926 167.034C195.198 167.146 195.529 167.279 195.908 167.45L197.172 168.069C197.641 168.298 198.137 168.602 198.676 168.885C199.215 169.168 199.743 169.546 200.34 169.92C201.584 170.764 202.753 171.713 203.834 172.757C205.807 174.665 207.315 177.001 208.24 179.585C208.403 180.028 208.538 180.48 208.645 180.94C208.741 181.345 208.832 181.687 208.869 182.007C208.929 182.304 208.968 182.605 208.987 182.908C208.887 182.622 208.812 182.327 208.763 182.028C208.715 181.74 208.608 181.404 208.496 181.004C208.384 180.604 208.235 180.166 208.059 179.676C207.089 177.151 205.582 174.866 203.642 172.981C202.573 171.948 201.42 171.004 200.196 170.16C199.626 169.786 199.081 169.418 198.559 169.093C198.036 168.767 197.545 168.49 197.081 168.25L195.838 167.599L194.884 167.141C194.605 167.018 194.336 166.875 194.078 166.714Z" fill="#263238"/>
<g opacity="0.3">
<path d="M192.312 189.064C192.312 189.064 187.81 208.944 187.88 210.891C187.892 211.914 188.048 212.93 188.344 213.91L192.078 213.942L192.11 213.574L195.257 202.324L192.312 189.064Z" fill="black"/>
</g>
<path d="M167.573 188.061C167.573 188.093 167.099 188.28 166.341 188.84C165.287 189.644 164.485 190.735 164.032 191.981C163.728 192.836 163.603 193.744 163.664 194.648C163.721 195.689 164.029 196.701 164.56 197.598C165.138 198.593 165.965 199.42 166.96 199.998C167.48 200.309 168.042 200.543 168.63 200.692C169.233 200.852 169.856 200.923 170.481 200.905C171.105 200.89 171.724 200.79 172.321 200.606C172.897 200.417 173.447 200.158 173.958 199.833C175.262 198.977 176.227 197.694 176.688 196.204C177.15 194.714 177.078 193.11 176.487 191.667C175.974 190.442 175.118 189.392 174.022 188.642C173.244 188.109 172.737 187.954 172.753 187.922C172.877 187.956 172.998 187.999 173.116 188.05C173.453 188.189 173.778 188.357 174.086 188.552C175.054 189.174 175.849 190.03 176.398 191.04C176.947 192.051 177.232 193.184 177.228 194.334C177.218 195.413 176.958 196.475 176.471 197.438C175.925 198.503 175.113 199.409 174.113 200.068C173.581 200.409 173.01 200.683 172.411 200.884C171.788 201.073 171.142 201.177 170.491 201.193C169.205 201.226 167.935 200.897 166.827 200.244C165.794 199.639 164.937 198.775 164.341 197.737C163.49 196.266 163.217 194.531 163.576 192.87C163.935 191.21 164.9 189.742 166.283 188.754C166.581 188.55 166.897 188.371 167.227 188.221C167.339 188.16 167.455 188.107 167.573 188.061Z" fill="white"/>
<path d="M170.321 186.845C170.459 188.473 170.505 190.108 170.46 191.741C170.505 193.375 170.459 195.01 170.321 196.638C170.181 195.01 170.134 193.375 170.182 191.741C170.134 190.108 170.181 188.473 170.321 186.845Z" fill="white"/>
<path d="M153.124 214.667L150.19 213.478C150.19 213.478 146.782 207.695 146.083 207.973C145.384 208.25 145.283 210.016 146.67 212.677L142.813 211.808C142.813 211.808 134.812 216.075 135.191 216.561C135.569 217.046 136.322 218.225 138.066 217.211C139.81 216.198 142.093 214.987 142.093 214.987L146.6 216.006L140.92 217.073L135.815 222.263C135.815 222.263 137.655 223.49 139.101 222.001L153.236 224.226H159.221L159.541 216.315L153.124 214.667Z" fill="#FFBE9D"/>
<path d="M139.1 221.964C139.164 221.996 139.398 221.569 139.873 220.993C140.151 220.664 140.479 220.38 140.844 220.151C141.306 219.902 141.811 219.741 142.332 219.676C144.642 219.27 146.503 218.844 146.482 218.726C146.461 218.609 144.572 218.838 142.252 219.26C141.675 219.331 141.12 219.526 140.625 219.831C140.234 220.097 139.896 220.433 139.628 220.823C139.357 221.152 139.175 221.545 139.1 221.964Z" fill="#EB996E"/>
<path d="M141.318 222.401C141.372 222.401 141.398 222.108 141.782 222.001C142.167 221.895 142.812 221.799 143.468 221.692C144.802 221.479 145.906 221.431 145.911 221.303C145.916 221.175 144.786 221.041 143.404 221.26C142.807 221.339 142.223 221.493 141.665 221.719C141.568 221.76 141.482 221.823 141.413 221.902C141.343 221.982 141.293 222.076 141.265 222.177C141.238 222.332 141.292 222.407 141.318 222.401Z" fill="#EB996E"/>
<path d="M152.733 214.496C152.253 214.398 151.781 214.264 151.32 214.096C150.456 213.83 149.255 213.494 147.917 213.158L144.487 212.293C144.006 212.197 143.536 212.052 143.084 211.861C143.574 211.9 144.059 211.982 144.535 212.107C145.42 212.288 146.668 212.549 147.986 212.891C149.135 213.172 150.269 213.512 151.384 213.91C151.855 214.052 152.308 214.249 152.733 214.496Z" fill="#EB996E"/>
<path d="M252.002 69C252.099 68.8715 252.215 68.7547 252.346 68.6525C252.619 68.4156 252.955 68.1155 253.348 67.768C254.202 67.0257 255.396 66.0109 256.72 64.8973L256.752 64.8736V65.0237C255.41 63.9299 254.216 62.9348 253.357 62.2083L252.351 61.3396C252.218 61.2405 252.101 61.1263 252.002 61C252.148 61.0807 252.285 61.1747 252.409 61.2804L253.469 62.1017C254.363 62.8006 255.575 63.7799 256.913 64.8657L257.002 64.9408L256.913 65.0158L256.881 65.0434C255.54 66.153 254.345 67.152 253.464 67.8667L252.409 68.7078C252.286 68.8185 252.15 68.9165 252.002 69Z" fill="#263238"/>
<path d="M242.002 61C241.905 61.1285 241.789 61.2453 241.658 61.3475L240.651 62.232C239.797 62.9743 238.608 63.9891 237.284 65.1027L237.252 65.1264V64.9763C238.594 66.0701 239.784 67.0652 240.647 67.7917L241.653 68.6604C241.786 68.7595 241.903 68.8737 242.002 69C241.854 68.921 241.718 68.8269 241.595 68.7196C241.304 68.4985 240.951 68.2221 240.535 67.8983C239.641 67.1994 238.429 66.2201 237.091 65.1343L237.002 65.0592L237.091 64.9842L237.123 64.9566C238.464 63.847 239.658 62.848 240.54 62.1333L241.595 61.2922C241.719 61.183 241.856 61.0852 242.002 61Z" fill="#263238"/>
<path d="M244.004 71.9999C243.947 71.9999 245.016 68.8211 246.391 64.9581C247.766 61.0952 248.938 57.9769 248.999 58.0001C249.061 58.0234 247.987 61.1789 246.608 65.0419C245.229 68.9048 244.062 72.0231 244.004 71.9999Z" fill="#263238"/>
<path d="M262.849 77.9471C262.849 77.9471 262.849 77.7709 262.849 77.4448C262.849 77.1188 262.849 76.6341 262.849 76.0085C262.849 74.7484 262.849 72.9243 262.823 70.5715C262.823 65.8879 262.792 59.1996 262.775 51.1322L262.866 51.2247L230.081 51.2467L230.194 51.1322C230.194 60.8254 230.194 69.9767 230.194 77.9471L230.089 77.8414L253.761 77.8943L260.471 77.9207H262.254H262.713H262.871H262.276H260.528L253.839 77.9471L230.102 78H230.002V77.8987C230.002 69.9282 230.002 60.7769 230.002 51.0837V51H230.12H262.906H263.002V51.0969C263.002 59.1864 262.967 65.9011 262.954 70.5979C262.954 72.9287 262.954 74.7572 262.928 76.0129C262.928 76.6297 262.928 77.1056 262.928 77.4316C262.928 77.7577 262.849 77.9471 262.849 77.9471Z" fill="#263238"/>
<path d="M233.002 53.5C233.002 53.5989 232.973 53.6956 232.918 53.7778C232.863 53.86 232.785 53.9241 232.693 53.9619C232.602 53.9998 232.501 54.0097 232.404 53.9904C232.307 53.9711 232.218 53.9235 232.148 53.8536C232.078 53.7836 232.031 53.6945 232.012 53.5975C231.992 53.5006 232.002 53.4 232.04 53.3087C232.078 53.2173 232.142 53.1392 232.224 53.0843C232.306 53.0293 232.403 53 232.502 53C232.635 53 232.762 53.0527 232.855 53.1464C232.949 53.2402 233.002 53.3674 233.002 53.5Z" fill="#263238"/>
<path d="M239.002 53.5C239.002 53.5989 238.973 53.6956 238.918 53.7778C238.863 53.86 238.785 53.9241 238.693 53.9619C238.602 53.9998 238.501 54.0097 238.404 53.9904C238.307 53.9711 238.218 53.9235 238.148 53.8536C238.078 53.7836 238.031 53.6945 238.012 53.5975C237.992 53.5006 238.002 53.4 238.04 53.3087C238.078 53.2173 238.142 53.1392 238.224 53.0843C238.306 53.0293 238.403 53 238.502 53C238.635 53 238.762 53.0527 238.856 53.1464C238.949 53.2402 239.002 53.3674 239.002 53.5Z" fill="#263238"/>
<path d="M236.002 53.5C236.002 53.5989 235.973 53.6956 235.918 53.7778C235.863 53.86 235.785 53.9241 235.693 53.9619C235.602 53.9998 235.501 54.0097 235.404 53.9904C235.307 53.9711 235.218 53.9235 235.148 53.8536C235.078 53.7836 235.031 53.6945 235.012 53.5975C234.992 53.5006 235.002 53.4 235.04 53.3087C235.078 53.2173 235.142 53.1392 235.224 53.0843C235.306 53.0293 235.403 53 235.502 53C235.635 53 235.762 53.0527 235.856 53.1464C235.949 53.2402 236.002 53.3674 236.002 53.5Z" fill="#263238"/>
<path d="M210.624 30.2878H153.699V70.8661H210.624V30.2878Z" fill="#EC6980"/>
<path d="M172.903 49.1252V57.2161H171.038V53.9137H167.378V57.2161H165.514V49.1252H167.378V52.3038H171.038V49.1252H172.903Z" fill="white"/>
<path d="M176.473 50.6457H173.893V49.1252H180.917V50.6457H178.337V57.2161H176.473V50.6457Z" fill="white"/>
<path d="M181.922 49.1252H183.786V55.6612H187.825V57.2161H181.922V49.1252Z" fill="white"/>
<path d="M196.205 57.2161V52.4001L193.832 56.3768H192.985L190.626 52.5033V57.2161H188.857V49.1252H190.399L193.419 54.1339L196.384 49.1252H197.912V57.1817L196.205 57.2161Z" fill="white"/>
<path d="M211.08 36.3078C211.08 36.4041 198.228 36.4867 182.376 36.4867C166.525 36.4867 153.68 36.4041 153.68 36.3078C153.68 36.2115 166.525 36.1289 182.376 36.1289C198.228 36.1289 211.08 36.2046 211.08 36.3078Z" fill="white"/>
<path d="M158.351 33.3426C158.368 33.4974 158.337 33.6536 158.263 33.7907C158.189 33.9278 158.076 34.0393 157.937 34.1105C157.799 34.1816 157.642 34.2092 157.487 34.1894C157.333 34.1697 157.188 34.1036 157.072 33.9999C156.956 33.8962 156.874 33.7597 156.837 33.6084C156.8 33.4571 156.809 33.2982 156.864 33.1525C156.919 33.0069 157.017 32.8813 157.145 32.7924C157.273 32.7035 157.425 32.6554 157.581 32.6546C157.676 32.649 157.772 32.6624 157.863 32.6939C157.954 32.7255 158.037 32.7747 158.109 32.8386C158.18 32.9025 158.239 32.9799 158.28 33.0664C158.322 33.1529 158.346 33.2467 158.351 33.3426Z" fill="white"/>
<path d="M161.144 33.3426C161.161 33.4974 161.13 33.6536 161.056 33.7907C160.982 33.9278 160.869 34.0393 160.73 34.1105C160.592 34.1816 160.435 34.2092 160.28 34.1894C160.126 34.1697 159.981 34.1036 159.865 33.9999C159.749 33.8962 159.667 33.7597 159.63 33.6084C159.592 33.4571 159.602 33.2982 159.657 33.1525C159.712 33.0069 159.81 32.8813 159.938 32.7924C160.066 32.7035 160.218 32.6554 160.374 32.6546C160.469 32.649 160.565 32.6624 160.656 32.6939C160.747 32.7255 160.83 32.7747 160.902 32.8386C160.973 32.9025 161.031 32.9799 161.073 33.0664C161.115 33.1529 161.139 33.2467 161.144 33.3426Z" fill="white"/>
<path d="M163.937 33.3426C163.954 33.4974 163.923 33.6536 163.849 33.7907C163.775 33.9278 163.662 34.0393 163.523 34.1105C163.385 34.1816 163.228 34.2092 163.073 34.1894C162.919 34.1697 162.774 34.1036 162.658 33.9999C162.542 33.8962 162.46 33.7597 162.423 33.6084C162.385 33.4571 162.395 33.2982 162.45 33.1525C162.505 33.0069 162.603 32.8813 162.731 32.7924C162.859 32.7035 163.011 32.6554 163.167 32.6546C163.262 32.649 163.358 32.6624 163.449 32.6939C163.54 32.7255 163.623 32.7747 163.695 32.8386C163.766 32.9025 163.824 32.9799 163.866 33.0664C163.908 33.1529 163.932 33.2467 163.937 33.3426Z" fill="white"/>
<path d="M36.3761 110.192C36.3703 110.147 36.3703 110.1 36.3761 110.055V109.676C36.3761 109.325 36.3761 108.837 36.3761 108.204C36.3761 106.904 36.3761 105.032 36.3348 102.659C36.3348 97.8908 36.2866 91.1071 36.2522 82.9818L36.4105 83.1332H9.20006C9.15878 83.1676 9.53718 82.796 9.37894 82.9612V86.6488C9.37894 87.8735 9.37894 89.0912 9.37894 90.2884V97.3197C9.37894 101.888 9.37894 106.202 9.37894 110.158L9.22758 110L28.9044 110.082L34.4497 110.123H35.922H36.3004H35.9357H34.4909L28.9869 110.165L9.21382 110.247H9.05558V110.192C9.05558 106.236 9.05558 101.936 9.05558 97.3541V82.9887C8.89046 83.1469 9.26886 82.7616 9.23446 82.8029H36.4449H36.5962V82.9612C36.5962 91.1277 36.5412 97.9458 36.5205 102.734C36.5205 105.094 36.5205 106.959 36.4793 108.238C36.4793 108.857 36.4793 109.339 36.4793 109.683C36.4793 109.834 36.4793 109.951 36.4793 110.048C36.4512 110.1 36.4166 110.149 36.3761 110.192Z" fill="#263238"/>
<path d="M36.3764 83.2501C36.4452 83.3189 30.4252 89.4421 22.9328 96.9069C15.4405 104.372 9.28979 110.385 9.23475 110.316C9.17971 110.247 15.1791 104.124 22.6783 96.6523C30.1775 89.1807 36.3076 83.1813 36.3764 83.2501Z" fill="#263238"/>
<path d="M35.9421 110.02C35.8733 110.089 29.8739 104.152 22.5467 96.7624C15.2195 89.3733 9.33023 83.3189 9.39903 83.2501C9.46783 83.1813 15.4672 89.1187 22.8013 96.5079C30.1354 103.897 36.0109 109.945 35.9421 110.02Z" fill="#263238"/>
<path d="M93.1013 90.2746C93.1013 90.3709 82.2859 90.4535 68.9525 90.4535C55.619 90.4535 44.8105 90.3709 44.8105 90.2746C44.8105 90.1783 55.619 90.0957 68.9525 90.0957C82.2859 90.0957 93.1013 90.1783 93.1013 90.2746Z" fill="#263238"/>
<path d="M93.1013 94.6159C93.1013 94.7122 82.2859 94.7948 68.9525 94.7948C55.619 94.7948 44.8105 94.7122 44.8105 94.6159C44.8105 94.5196 55.619 94.437 68.9525 94.437C82.2859 94.437 93.1013 94.5127 93.1013 94.6159Z" fill="#263238"/>
<path d="M93.1013 98.9501C93.1013 99.0533 82.2859 99.129 68.9525 99.129C55.619 99.129 44.8105 99.0533 44.8105 98.9501C44.8105 98.8469 55.619 98.7712 68.9525 98.7712C82.2859 98.7712 93.1013 98.8538 93.1013 98.9501Z" fill="#263238"/>
<path d="M93.1013 103.312C93.1013 103.408 82.2859 103.491 68.9525 103.491C55.619 103.491 44.8105 103.408 44.8105 103.312C44.8105 103.216 55.619 103.133 68.9525 103.133C82.2859 103.133 93.1013 103.188 93.1013 103.312Z" fill="#263238"/>
<path d="M66.6539 85.9333C66.6539 86.0365 61.6796 86.119 55.5564 86.119C49.4332 86.119 44.459 86.0365 44.459 85.9333C44.459 85.8301 49.4263 85.7544 55.5564 85.7544C61.6865 85.7544 66.6539 85.837 66.6539 85.9333Z" fill="#263238"/>
<path d="M0.59259 74.7671H8.69035H31.3462L109.985 74.9047H110.157V75.1042C110.157 88.5202 110.157 103.065 110.157 118.159V118.338H100.153L100.332 118.159V127.509L100.029 127.206L91.0852 118.262L91.2091 118.311L0.59259 118.242H0.46875V118.125C0.46875 104.613 0.523789 93.7628 0.537549 86.2842C0.537549 82.5621 0.537549 79.6794 0.537549 77.7186C0.537549 76.7554 0.537549 76.0124 0.537549 75.5101C0.537549 75.0079 0.537549 74.7671 0.537549 74.7671C0.537549 74.7671 0.537549 75.0285 0.537549 75.5377C0.537549 76.0468 0.537549 76.7898 0.537549 77.7668C0.537549 79.7344 0.537549 82.6241 0.537549 86.353C0.537549 93.8178 0.578831 104.64 0.606351 118.125L0.48251 118.001L91.1196 117.946H91.1953L91.2435 117.994L100.187 126.938L99.8779 127.069V117.946H109.888L109.709 118.125C109.709 103.03 109.709 88.4858 109.709 75.0698L109.881 75.2418L31.36 74.9391L8.65595 74.829H2.59467H1.02603L0.59259 74.7671Z" fill="#263238"/>
<path d="M110.803 157.792H33.0219C29.4869 157.792 26.6211 160.658 26.6211 164.193V213.112C26.6211 216.647 29.4869 219.512 33.0219 219.512H110.803C114.338 219.512 117.204 216.647 117.204 213.112V164.193C117.204 160.658 114.338 157.792 110.803 157.792Z" fill="#263238"/>
<path d="M56.7738 204.844L51.7598 233.237H75.2936L79.5555 204.262L56.7738 204.844Z" fill="#455A64"/>
<path d="M107.207 157.792H29.4262C25.8912 157.792 23.0254 160.658 23.0254 164.193V213.112C23.0254 216.647 25.8912 219.512 29.4262 219.512H107.207C110.742 219.512 113.608 216.647 113.608 213.112V164.193C113.608 160.658 110.742 157.792 107.207 157.792Z" fill="#455A64"/>
<path d="M77.3164 219.512L79.5567 204.262L80.1808 219.512H77.3164Z" fill="#263238"/>
<path d="M56.9034 203.265C56.978 203.265 56.4073 207.058 55.6285 211.704C54.8497 216.35 54.1617 220.11 54.0816 220.099C54.0016 220.089 54.5777 216.307 55.3565 211.661C56.1353 207.015 56.8287 203.254 56.9034 203.265Z" fill="#263238"/>
<path d="M71.2878 186.516C71.2878 187.104 71.1136 187.678 70.7871 188.167C70.4607 188.655 69.9966 189.036 69.4537 189.261C68.9109 189.486 68.3135 189.545 67.7371 189.43C67.1608 189.315 66.6314 189.032 66.2159 188.617C65.8004 188.201 65.5174 187.672 65.4028 187.096C65.2882 186.519 65.347 185.922 65.5719 185.379C65.7967 184.836 66.1775 184.372 66.6661 184.046C67.1547 183.719 67.7291 183.545 68.3168 183.545C68.7071 183.544 69.0938 183.621 69.4546 183.77C69.8154 183.919 70.1432 184.138 70.4192 184.414C70.6952 184.69 70.914 185.017 71.0631 185.378C71.2122 185.739 71.2885 186.126 71.2878 186.516Z" fill="#FAFAFA"/>
<path d="M68.3177 189.498C67.7279 189.498 67.1515 189.323 66.6611 188.995C66.1708 188.668 65.7886 188.202 65.5629 187.657C65.3372 187.112 65.2782 186.513 65.3932 185.934C65.5083 185.356 65.7923 184.825 66.2093 184.408C66.6263 183.991 67.1576 183.707 67.736 183.592C68.3144 183.477 68.9139 183.536 69.4587 183.761C70.0036 183.987 70.4693 184.369 70.7969 184.86C71.1245 185.35 71.2994 185.926 71.2994 186.516C71.298 187.307 70.9834 188.064 70.4245 188.623C69.8656 189.182 69.108 189.496 68.3177 189.498ZM68.3177 183.561C67.7332 183.561 67.1619 183.734 66.6759 184.059C66.19 184.384 65.8112 184.845 65.5875 185.385C65.3639 185.925 65.3054 186.519 65.4194 187.093C65.5334 187.666 65.8149 188.192 66.2281 188.606C66.6414 189.019 67.1679 189.3 67.7412 189.414C68.3144 189.528 68.9086 189.47 69.4485 189.246C69.9885 189.023 70.45 188.644 70.7747 188.158C71.0994 187.672 71.2727 187.101 71.2727 186.516C71.2713 185.733 70.9595 184.982 70.4057 184.428C69.8518 183.874 69.101 183.563 68.3177 183.561Z" fill="#263238"/>
<path d="M45.6956 176.163C45.6956 176.163 47.0931 174.189 46.6184 171.997C46.6184 171.997 46.6184 171.287 45.5516 169.895C45.2155 169.452 44.8328 169.046 44.4101 168.684C44.0332 168.356 43.628 168.061 43.1992 167.804C43.0552 167.714 42.9645 167.666 42.9645 167.666C41.3974 166.781 39.5588 166.505 37.8012 166.892C36.4535 167.169 35.223 167.852 34.2754 168.85C33.9595 169.181 33.6886 169.552 33.4699 169.954C32.916 170.874 32.5593 171.899 32.4225 172.964C32.2857 174.029 32.3717 175.111 32.6752 176.141C32.7178 176.28 32.7659 176.419 32.8192 176.552V176.6C32.8192 176.648 32.8565 176.696 32.8779 176.739L32.9205 176.835C32.9685 176.947 33.0112 177.054 33.0646 177.16C33.1947 177.427 33.3408 177.685 33.502 177.934C33.6644 178.226 33.8634 178.497 34.094 178.739C34.535 179.263 35.0994 179.669 35.7363 179.92C36.3732 180.172 37.0626 180.261 37.7425 180.179C38.0141 180.674 38.4557 181.053 38.9854 181.246C40.0148 181.481 41.6897 180.963 42.9059 180.313C44.122 179.662 45.8663 178.419 45.8396 177.358C45.8243 176.959 45.7616 176.563 45.6529 176.179L45.6956 176.163Z" fill="#263238"/>
<path d="M36.6506 166.892C35.3135 167.173 34.0944 167.856 33.1568 168.85C32.8392 169.181 32.5666 169.552 32.346 169.954C31.6366 171.319 30.4151 173.949 31.978 177.16C33.5409 180.371 35.8558 180.291 36.9013 180.142C37.9468 179.993 44.5717 176.163 44.5717 176.163C44.5717 176.163 46.5986 173.309 44.9504 170.653C43.5369 168.38 40.5071 166.065 36.6506 166.892Z" fill="#EC6980"/>
<path d="M36.1641 179.251C36.1641 179.251 36.8788 181.001 37.9083 181.23C38.9378 181.46 40.6073 180.947 41.8235 180.297C43.0396 179.646 44.7839 178.403 44.7572 177.342C44.7305 176.28 44.2238 175.101 44.0478 175.005C43.2227 174.786 42.361 174.742 41.5178 174.875C40.6745 175.008 39.8684 175.316 39.1511 175.779C37.7672 176.536 36.7056 177.77 36.1641 179.251Z" fill="#F5F5F5"/>
<g opacity="0.4">
<path d="M39.7478 169.127C40.0775 169.74 40.2182 170.437 40.1519 171.13C40.0857 171.823 39.8156 172.48 39.3757 173.02C38.9358 173.559 38.346 173.956 37.6806 174.16C37.0153 174.365 36.3043 174.367 35.6376 174.167C34.9708 173.968 34.3782 173.575 33.9346 173.039C33.491 172.502 33.2164 171.847 33.1453 171.154C33.0743 170.462 33.2101 169.764 33.5356 169.149C33.861 168.533 34.3615 168.029 34.9739 167.698C35.3811 167.478 35.8277 167.34 36.2882 167.293C36.7486 167.246 37.2139 167.29 37.6573 167.422C38.1007 167.555 38.5136 167.774 38.8723 168.067C39.231 168.359 39.5285 168.72 39.7478 169.127Z" fill="white"/>
</g>
<g opacity="0.4">
<path d="M33.0071 178.739C33.4636 177.755 33.547 176.638 33.2418 175.597C32.9055 174.583 32.209 173.727 31.2842 173.192C31.2087 174.398 31.3906 175.608 31.8176 176.739C32.09 177.472 32.493 178.15 33.0071 178.739Z" fill="white"/>
</g>
<g opacity="0.4">
<path d="M45.5094 172.002C44.4375 171.84 43.4602 171.296 42.757 170.471C42.0937 169.692 41.7556 168.687 41.8129 167.666C42.8174 168.248 43.7098 169.004 44.4479 169.9C45.5041 171.298 45.5094 172.002 45.5094 172.002Z" fill="white"/>
</g>
<path d="M36.1738 179.23C36.1912 179.372 36.2346 179.509 36.3018 179.635C36.3376 179.698 36.3913 179.748 36.456 179.779C36.5207 179.811 36.5934 179.822 36.6646 179.811C36.8192 179.774 36.9046 179.624 36.9739 179.486C37.7136 178.092 38.8372 176.938 40.2117 176.163C40.7587 175.83 41.3763 175.631 42.0146 175.581C42.5907 175.581 43.1508 175.725 43.7268 175.757C43.874 175.774 44.0229 175.752 44.1589 175.693C44.2869 175.629 44.2816 175.48 44.2496 175.341C44.2404 175.274 44.2177 175.21 44.1829 175.152C44.148 175.094 44.1017 175.044 44.0469 175.005C42.532 174.381 40.6544 174.84 39.2462 175.656C37.8885 176.512 36.8198 177.758 36.1792 179.23" fill="#E0E0E0"/>
<path d="M147.827 228.1H96.2949V231.733H147.827V228.1Z" fill="#455A64"/>
<path d="M83.9666 226.703H86.5483C87.6461 226.703 88.6989 227.139 89.4751 227.915C90.2514 228.691 90.6875 229.744 90.6875 230.842V231.733H79.8594V230.842C79.8593 229.75 80.291 228.702 81.0604 227.926C81.8297 227.151 82.8744 226.711 83.9666 226.703Z" fill="#455A64"/>
<path d="M90.5012 230.602C88.766 230.739 87.0247 230.786 85.2845 230.741C83.5426 230.786 81.7996 230.739 80.0625 230.602C81.7994 230.461 83.5426 230.415 85.2845 230.463C87.0247 230.415 88.7661 230.461 90.5012 230.602Z" fill="#263238"/>
<path d="M85.364 226.66C85.488 227.291 85.5185 227.936 85.4547 228.575C85.4802 229.216 85.4155 229.857 85.2626 230.479C85.1426 229.85 85.1139 229.207 85.1773 228.57C85.1503 227.928 85.2132 227.285 85.364 226.66Z" fill="#263238"/>
<path d="M267 233H19V234H267V233Z" fill="#263238"/>
</svg>
