<svg width="306" height="306" viewBox="0 0 306 306" fill="none" xmlns="http://www.w3.org/2000/svg">
<path d="M280.223 283.356C280.223 283.442 225.914 283.515 158.943 283.515C91.9714 283.515 37.6503 283.423 37.6503 283.356C37.6503 283.289 91.9408 283.197 158.943 283.197C225.944 283.197 280.223 283.246 280.223 283.356Z" fill="#263238"/>
<path d="M262.548 62.167L261.061 59.719C248.472 39.0211 225.773 26.5486 201.838 28.0663C198.751 28.244 195.683 28.6531 192.658 29.2903C170.895 33.9476 151.96 50.4043 144.114 71.4816C139.493 83.8746 138.208 98.1464 129.426 107.987C118.03 120.79 98.6728 121.188 81.6898 120.662C64.7068 120.136 45.3064 120.582 33.9538 133.434C26.8669 141.519 24.6086 153 25.1777 163.747C26.6955 192.29 46.5977 217.817 71.8795 230.504C97.1612 243.19 126.959 244.323 154.64 238.741C193.423 230.926 230.308 209.457 252.475 176.317C274.641 143.177 280.253 97.9567 262.548 62.167Z" fill="#FFEFE3"/>
<path d="M226.042 173.979L226.483 174.714C226.978 175.537 227.698 176.201 228.558 176.629L229.329 177.009L228.594 177.45C227.77 177.945 227.105 178.668 226.679 179.53L226.299 180.295L225.859 179.561C225.362 178.74 224.642 178.076 223.784 177.645L223.013 177.266L223.747 176.825C224.571 176.332 225.236 175.611 225.663 174.751L226.042 173.979Z" fill="#2952CE"/>
<path d="M139.756 22.644L140.197 23.3784C140.691 24.2026 141.411 24.8675 142.272 25.294L143.043 25.6734L142.308 26.1141C141.491 26.5995 140.827 27.3059 140.393 28.152L140.013 28.9232L139.573 28.1888C139.077 27.3642 138.355 26.6993 137.492 26.2732L136.727 25.8938L137.461 25.4531C138.283 24.9577 138.945 24.2379 139.371 23.3784L139.756 22.644Z" fill="#2952CE"/>
<path d="M243.05 91.8L243.49 92.5344C243.986 93.359 244.708 94.0239 245.571 94.45L246.336 94.8294L245.602 95.2701C244.78 95.7655 244.118 96.4853 243.692 97.3448L243.313 98.1159L242.872 97.3815C242.376 96.5569 241.654 95.892 240.791 95.4659L240.026 95.0865L240.755 94.6458C241.577 94.1505 242.242 93.4308 242.67 92.5712L243.05 91.8Z" fill="#2952CE"/>
<path d="M83.9174 121.666L84.2357 122.198C84.598 122.799 85.1247 123.283 85.7534 123.594L86.3165 123.869L85.7779 124.193C85.1774 124.556 84.6932 125.082 84.3826 125.711L84.1072 126.268L83.7828 125.736C83.4205 125.135 82.8938 124.651 82.2651 124.34L81.7081 124.065L82.2406 123.74C82.8426 123.38 83.3273 122.853 83.6359 122.223L83.9174 121.666Z" fill="#2952CE"/>
<path d="M98.5321 190.246L98.8564 190.785C99.2189 191.38 99.7432 191.86 100.368 192.168L100.931 192.443L100.393 192.768C99.792 193.13 99.3078 193.657 98.9972 194.286L98.7218 194.842L98.3974 194.31C98.0368 193.71 97.5123 193.226 96.8858 192.915L96.3228 192.633L96.8613 192.315C97.4618 191.953 97.946 191.426 98.2567 190.797L98.5321 190.246Z" fill="#2952CE"/>
<path d="M238.252 70.9922L238.57 71.5246C238.93 72.1267 239.457 72.6114 240.088 72.92L240.651 73.2015L240.112 73.5197C239.512 73.882 239.027 74.4087 238.717 75.0375L238.441 75.6005L238.117 75.062C237.755 74.4615 237.228 73.9773 236.599 73.6666L236.042 73.3912L236.575 73.0669C237.177 72.7065 237.661 72.1793 237.97 71.5491L238.252 70.9922Z" fill="#2952CE"/>
<path d="M55.2636 107.198L55.5819 107.73C55.9433 108.333 56.47 108.82 57.0996 109.132L57.6627 109.407L57.1241 109.726C56.5262 110.091 56.0427 110.617 55.7288 111.243L55.4534 111.806L55.129 111.268C54.7667 110.667 54.24 110.183 53.6112 109.872L53.0543 109.597L53.5868 109.273C54.1888 108.912 54.6735 108.385 54.9821 107.755L55.2636 107.198Z" fill="#2952CE"/>
<path d="M253.723 74.3091L253.907 74.6151C254.114 74.9578 254.416 75.2339 254.776 75.4107L255.1 75.5698L254.794 75.7534C254.443 75.9573 254.161 76.2595 253.98 76.6224L253.821 76.9468L253.637 76.6408C253.431 76.2949 253.129 76.0164 252.768 75.8391L252.45 75.68L252.756 75.4964C253.099 75.2886 253.375 74.987 253.552 74.6273L253.723 74.3091Z" fill="#2952CE"/>
<path d="M242.285 162.413L242.468 162.725C242.676 163.067 242.978 163.344 243.337 163.52L243.656 163.679L243.35 163.863C243.005 164.07 242.727 164.372 242.548 164.732L242.389 165.056L242.205 164.744C241.997 164.402 241.696 164.126 241.336 163.949L241.018 163.79L241.324 163.606C241.668 163.399 241.947 163.097 242.126 162.737L242.285 162.413Z" fill="#2952CE"/>
<path d="M163.141 15.7468L163.324 16.0528C163.532 16.3956 163.834 16.6716 164.194 16.8484L164.518 17.0075L164.212 17.1973C163.864 17.3996 163.583 17.6997 163.404 18.0602L163.245 18.3845L163.061 18.0785C162.851 17.7323 162.545 17.4539 162.18 17.2768L161.874 17.1361L162.186 16.9525C162.529 16.7447 162.805 16.4431 162.982 16.0834L163.141 15.7468Z" fill="#2952CE"/>
<path d="M128.092 31.3711L128.275 31.6771C128.479 32.0199 128.776 32.2979 129.132 32.4788L129.45 32.6379L129.144 32.8215C128.801 33.0293 128.525 33.3309 128.349 33.6906L128.189 34.0088L128 33.7028C127.795 33.3585 127.495 33.0802 127.137 32.9011L126.812 32.742L127.118 32.5584C127.46 32.3508 127.734 32.049 127.908 31.6893L128.092 31.3711Z" fill="#2952CE"/>
<path d="M102.473 198.288L102.657 198.594C102.864 198.939 103.166 199.217 103.526 199.396L103.844 199.555L103.538 199.739C103.196 199.946 102.919 200.248 102.743 200.608L102.584 200.926L102.4 200.62C102.191 200.277 101.89 199.999 101.531 199.818L101.207 199.659L101.513 199.475C101.858 199.27 102.137 198.968 102.314 198.606L102.473 198.288Z" fill="#2952CE"/>
<path d="M192.523 243.472L116.635 243.295C113.489 243.295 110.943 241.073 110.949 238.35C110.949 235.632 113.514 233.454 116.659 233.454L192.547 233.631C195.693 233.631 198.233 235.847 198.227 238.57C198.221 241.275 195.669 243.478 192.523 243.472Z" fill="#455A64"/>
<path d="M192.523 231.501L116.635 231.33C113.489 231.33 110.943 229.108 110.949 226.385C110.949 223.662 113.514 221.489 116.659 221.489L192.547 221.66C195.693 221.66 198.233 223.882 198.227 226.605C198.221 229.31 195.669 231.507 192.523 231.501Z" fill="#455A64"/>
<path d="M189.475 245.259L120.001 245.1C118.683 245.19 117.448 245.778 116.547 246.743C115.645 247.709 115.144 248.981 115.144 250.302C115.144 251.623 115.645 252.895 116.547 253.86C117.448 254.826 118.683 255.413 120.001 255.504H127.626L137.7 274.825C138.268 275.904 139.118 276.81 140.161 277.443C141.203 278.077 142.398 278.416 143.618 278.423L168.447 278.478C169.68 278.482 170.891 278.145 171.945 277.505C172.999 276.865 173.855 275.946 174.42 274.849L184.298 255.675H189.481C190.799 255.585 192.034 254.997 192.935 254.032C193.837 253.066 194.339 251.794 194.339 250.473C194.339 249.152 193.837 247.88 192.935 246.915C192.034 245.949 190.799 245.362 189.481 245.271L189.475 245.259Z" fill="#455A64"/>
<path d="M213.337 164.426C213.337 164.426 213.147 164.72 212.774 165.265L211.122 167.713L209.916 169.524C209.475 170.191 209.041 170.956 208.539 171.764L206.948 174.396C206.366 175.326 205.865 176.385 205.265 177.456C204.971 178.006 204.653 178.569 204.359 179.145C204.206 179.438 204.053 179.757 203.894 180.026C203.735 180.295 203.606 180.638 203.459 180.95C202.847 182.205 202.235 183.514 201.623 184.891L199.824 189.292C199.255 190.84 198.692 192.468 198.111 194.151C196.932 197.781 195.97 201.478 195.228 205.222C194.392 209.444 193.982 213.739 194.004 218.043V218.147H193.906L112.908 218.19H112.779V218.062C111.929 208.582 109.457 199.318 105.472 190.675C103.386 186.09 100.979 181.659 98.2689 177.413C96.898 175.252 95.4414 173.129 93.8931 171.042C92.3447 168.955 90.6556 166.966 88.9971 164.922L88.7951 164.677H89.1195L89.0032 164.922C81.416 155.166 76.2389 143.757 73.8929 131.623C73.5624 130.068 73.3605 128.489 73.1157 126.91C73.0177 126.115 72.9443 125.319 72.8586 124.524L72.7362 123.3L72.6567 122.076C72.6138 121.274 72.5404 120.472 72.5159 119.664C72.4914 118.857 72.5159 118.049 72.467 117.216C72.418 116.384 72.467 115.601 72.467 114.768C72.467 113.936 72.4669 113.141 72.5404 112.32C72.9109 105.754 74.0824 99.2574 76.0288 92.9751C81.679 75.2578 93.4021 60.1038 109.132 50.1841C112.879 47.8227 116.815 45.7757 120.901 44.0641C124.912 42.3957 129.058 41.0711 133.294 40.1044C141.503 38.2133 149.961 37.6451 158.349 38.4214C162.384 38.8035 166.385 39.4847 170.32 40.4594C174.142 41.4438 177.891 42.6953 181.538 44.2048C185.058 45.7204 188.474 47.4664 191.764 49.4313C194.926 51.3756 197.958 53.5242 200.84 55.8634C206.288 60.3413 211.114 65.5258 215.191 71.2797C218.959 76.5832 222.044 82.3406 224.371 88.4157C224.983 89.8478 225.406 91.3166 225.908 92.7487C226.409 94.1807 226.74 95.6373 227.132 97.0327C227.456 98.477 227.811 99.8907 228.092 101.317C228.215 102.027 228.343 102.724 228.466 103.422C228.588 104.12 228.723 104.811 228.796 105.509C229.551 110.713 229.787 115.98 229.5 121.231C229.001 129.665 227.141 137.963 223.992 145.803C222.839 148.651 221.527 151.432 220.063 154.132C218.766 156.47 217.578 158.416 216.562 159.91L215.21 161.899L214.169 163.288L213.319 164.426L214.139 163.288L215.167 161.874L216.513 159.873C217.517 158.355 218.692 156.427 219.977 154.089C221.43 151.385 222.731 148.602 223.876 145.754C228.928 132.981 230.559 119.111 228.607 105.515C228.533 104.817 228.398 104.132 228.276 103.434C228.154 102.736 228.025 102.039 227.897 101.335C227.621 99.9274 227.285 98.5198 226.936 97.051C226.587 95.5822 226.152 94.193 225.712 92.767C225.271 91.3411 224.782 89.8723 224.176 88.4463C221.848 82.3941 218.764 76.661 214.996 71.3837C210.923 65.6609 206.107 60.5054 200.675 56.0531C197.797 53.7288 194.774 51.5906 191.623 49.6516C188.344 47.6944 184.938 45.9586 181.427 44.4557C177.794 42.9533 174.06 41.7079 170.252 40.7287C166.331 39.7552 162.341 39.078 158.318 38.7029C149.962 37.9318 141.537 38.502 133.361 40.3921C129.142 41.3547 125.012 42.6753 121.017 44.3395C116.948 46.0521 113.028 48.0991 109.297 50.4595C93.6105 60.3739 81.9349 75.5158 76.3348 93.2077C74.3954 99.4661 73.2281 105.938 72.8586 112.48C72.8158 113.287 72.8097 114.095 72.7852 114.928C72.7607 115.76 72.7179 116.537 72.7546 117.345C72.7913 118.153 72.7852 118.954 72.8035 119.756C72.8219 120.558 72.8953 121.36 72.9443 122.155L73.0177 123.379L73.1401 124.603C73.2258 125.393 73.3054 126.188 73.4033 126.978C73.642 128.551 73.8439 130.123 74.1683 131.672C76.5031 143.758 81.6571 155.123 89.2113 164.842L89.4071 165.093H89.0889L89.2113 164.842C90.882 166.868 92.6018 168.851 94.1073 170.962C95.6128 173.074 97.1183 175.191 98.4892 177.358C101.209 181.613 103.62 186.057 105.705 190.656C109.708 199.33 112.192 208.627 113.049 218.141L112.914 218.013L193.912 218.056L193.814 218.16C193.803 213.844 194.226 209.539 195.075 205.308C195.813 201.555 196.769 197.848 197.939 194.206C198.551 192.523 199.096 190.895 199.671 189.347C200.246 187.798 200.895 186.348 201.507 184.94C202.119 183.533 202.774 182.254 203.343 181.005L203.778 180.081L204.249 179.2C204.561 178.624 204.861 178.061 205.161 177.511C205.773 176.427 206.275 175.369 206.856 174.451L208.459 171.825C208.961 171.017 209.402 170.252 209.849 169.591C210.295 168.93 210.712 168.331 211.073 167.798L212.75 165.35L213.362 164.524L213.337 164.426Z" fill="#263238"/>
<path d="M83.6787 142.963C83.6478 142.91 83.6251 142.852 83.6114 142.792C83.5625 142.657 83.5074 142.486 83.4339 142.272C83.2748 141.794 83.0606 141.127 82.7852 140.277L82.3201 138.832C82.1671 138.3 82.0325 137.712 81.8733 137.088C81.5673 135.827 81.1573 134.408 80.8941 132.804C80.7473 132.002 80.5943 131.164 80.429 130.289C80.2638 129.414 80.1903 128.49 80.0618 127.535C79.7742 125.638 79.6824 123.594 79.5416 121.415C79.3591 116.738 79.5638 112.055 80.1536 107.412C80.8158 102.779 81.8577 98.2086 83.2687 93.7463C83.9786 91.7083 84.6151 89.7622 85.3985 88.0057C85.7779 87.1245 86.1023 86.2554 86.4878 85.4537L87.6078 83.1526C88.2871 81.6715 89.0643 80.4108 89.6886 79.2786C90.0129 78.7217 90.3006 78.1893 90.5882 77.718L91.4205 76.4451L92.5772 74.6947L92.8832 74.248C92.9567 74.1439 92.9934 74.095 92.9995 74.1011C93.0056 74.1072 92.9995 74.1562 92.9138 74.2663L92.6323 74.7315L91.5246 76.5124L90.7167 77.7915C90.4352 78.2688 90.1598 78.8074 89.8477 79.3704C89.2357 80.5087 88.4707 81.7695 87.8097 83.2566L86.7081 85.5577C86.3348 86.3595 86.0166 87.2285 85.6433 88.1098C84.8721 89.8601 84.2479 91.7818 83.5502 93.8381C82.1673 98.2879 81.1441 102.841 80.4902 107.455C79.8987 112.079 79.6797 116.743 79.8354 121.403C79.97 123.545 80.0496 125.589 80.325 127.48C80.4474 128.428 80.5208 129.352 80.6738 130.228C80.8268 131.103 80.9737 131.935 81.1206 132.737C81.3593 134.346 81.7326 135.797 82.0447 137.021C82.1977 137.633 82.3262 138.245 82.467 138.771C82.6077 139.297 82.773 139.781 82.9015 140.222C83.1524 141.078 83.3544 141.752 83.5135 142.229L83.6604 142.755C83.6772 142.823 83.6834 142.893 83.6787 142.963Z" fill="#263238"/>
<path d="M107.057 60.5881C105.725 61.9453 104.319 63.2284 102.847 64.4315C101.442 65.7173 99.965 66.9209 98.4219 68.0362C99.7553 66.6781 101.163 65.395 102.639 64.1928C104.042 62.9085 105.517 61.705 107.057 60.5881Z" fill="#263238"/>
<path d="M214.2 151.843C214.2 151.843 214.2 151.794 214.255 151.703L214.439 151.305L215.167 149.799L215.699 148.716C215.889 148.318 216.073 147.871 216.311 147.4C216.715 146.452 217.223 145.393 217.67 144.175L218.404 142.272C218.655 141.611 218.87 140.907 219.114 140.185C219.628 138.747 220.051 137.174 220.522 135.521C221.464 131.924 222.172 128.268 222.639 124.579C223.063 120.882 223.249 117.161 223.196 113.44C223.129 111.727 223.098 110.093 222.939 108.544C222.872 107.785 222.829 107.051 222.743 106.347C222.658 105.643 222.566 104.97 222.486 104.328C222.346 103.036 222.107 101.88 221.942 100.87C221.85 100.362 221.777 99.8846 221.691 99.45C221.605 99.0155 221.507 98.63 221.428 98.275L221.079 96.6348C221.048 96.4635 221.018 96.3227 220.999 96.2064C220.991 96.1578 220.991 96.1082 220.999 96.0596C221.02 96.1049 221.036 96.152 221.048 96.2003C221.079 96.3166 221.116 96.4512 221.158 96.6226C221.262 97.0204 221.397 97.559 221.568 98.2444L221.856 99.4194C221.954 99.854 222.034 100.325 222.131 100.833C222.315 101.849 222.572 103.006 222.743 104.297L223.025 106.317C223.117 107.027 223.166 107.761 223.239 108.526C223.411 110.044 223.453 111.684 223.527 113.422C223.715 120.902 222.812 128.369 220.846 135.589C220.363 137.241 219.928 138.82 219.402 140.258C219.145 140.98 218.931 141.684 218.668 142.345L217.915 144.242C217.456 145.466 216.936 146.519 216.513 147.461C216.293 147.933 216.103 148.373 215.901 148.771L215.338 149.842L214.555 151.323L214.347 151.703C214.307 151.759 214.258 151.806 214.2 151.843Z" fill="#263238"/>
<path d="M188.802 76.9223C184.616 74.5232 180.234 72.3384 175.528 71.298C174.874 71.1193 174.194 71.0612 173.52 71.1266C173.184 71.1653 172.862 71.283 172.58 71.4703C172.298 71.6575 172.065 71.9088 171.898 72.2037C171.495 73.0422 171.898 74.0397 172.394 74.817C173.526 76.5306 175.222 77.7729 176.929 78.9051C181.611 82.008 186.635 84.5355 191.617 87.057C191.005 83.4829 189.732 80.4168 188.771 76.9223" fill="#2952CE"/>
<path d="M220.895 86.1451C222.266 90.7719 223.912 95.3741 226.593 99.3827C226.943 99.9649 227.397 100.477 227.933 100.894C228.201 101.101 228.516 101.241 228.849 101.3C229.183 101.36 229.526 101.338 229.849 101.237C230.718 100.913 231.134 99.9213 231.293 99.0094C231.66 96.9898 231.293 94.9151 230.846 92.92C229.622 87.412 227.725 82.1427 225.846 76.855C223.833 79.8721 222.615 82.975 220.895 86.1451Z" fill="#2952CE"/>
<path d="M188.741 76.8244C188.741 76.8244 189.065 108.863 207.046 109.493C225.026 110.123 225.779 77.057 225.779 76.8244C225.779 76.8244 223.655 72.0508 207.26 72.2344C190.864 72.418 188.741 76.8244 188.741 76.8244Z" fill="#2952CE"/>
<path d="M212.621 89.5478C212.532 90.7708 212.082 91.9399 211.328 92.9072C210.574 93.8745 209.55 94.5965 208.386 94.9819C207.222 95.3674 205.97 95.3989 204.788 95.0725C203.606 94.7461 202.547 94.0764 201.745 93.1482C200.944 92.2201 200.436 91.075 200.285 89.858C200.135 88.641 200.348 87.4066 200.899 86.3111C201.45 85.2155 202.314 84.308 203.381 83.7032C204.447 83.0985 205.67 82.8237 206.893 82.9137C208.532 83.0343 210.056 83.8008 211.13 85.0448C212.204 86.2889 212.741 87.9085 212.621 89.5478Z" fill="#263238"/>
<path d="M210.944 89.4255C210.879 90.3164 210.551 91.168 210.001 91.8724C209.452 92.5769 208.706 93.1026 207.858 93.3832C207.01 93.6638 206.098 93.6865 205.237 93.4486C204.376 93.2107 203.605 92.7228 203.021 92.0466C202.437 91.3704 202.067 90.5363 201.957 89.6498C201.848 88.7632 202.003 87.8641 202.405 87.066C202.806 86.2679 203.435 85.6068 204.212 85.1662C204.989 84.7256 205.879 84.5253 206.77 84.5907C207.964 84.68 209.074 85.2391 209.857 86.1454C210.639 87.0517 211.03 88.2313 210.944 89.4255Z" fill="white"/>
<path d="M208.765 90.2518C208.731 90.0045 208.717 89.7548 208.722 89.5051C208.722 89.0339 208.722 88.373 208.722 87.559L208.771 87.6447L206.427 86.2921H206.556L204.212 87.6079C204.151 87.7181 204.298 87.4672 204.285 87.4917V88.1832C204.285 88.4097 204.285 88.6422 204.285 88.8687C204.285 89.3154 204.285 89.7499 204.285 90.1722L204.224 90.0559L206.519 91.4574H206.415C207.131 91.0719 207.725 90.7659 208.141 90.5517C208.356 90.4291 208.582 90.3247 208.814 90.2395C208.622 90.3853 208.417 90.5143 208.202 90.6251C207.811 90.8638 207.223 91.2371 206.489 91.6349L206.44 91.6655L206.391 91.6349L204.065 90.2824L203.998 90.2457V90.1661C203.998 89.7438 203.998 89.3093 203.998 88.8625C203.998 88.6361 203.998 88.4097 203.998 88.1771V87.5161C203.998 87.5161 204.132 87.2897 204.065 87.3937L206.421 86.0902L206.489 86.0535L206.55 86.0902L208.845 87.4978H208.9V87.5529C208.9 88.3974 208.851 89.0767 208.826 89.5419C208.828 89.7799 208.808 90.0176 208.765 90.2518Z" fill="#2952CE"/>
<path d="M188.661 76.7999C188.661 76.7999 188.698 76.7999 188.759 76.7999L189.028 76.8917L190.075 77.2589L190.821 77.5282L191.733 77.8097C192.382 78.0055 193.117 78.2564 193.955 78.4217L195.258 78.7521C195.711 78.8684 196.189 78.9541 196.684 79.0581C197.664 79.2846 198.735 79.4376 199.848 79.6212C204.719 80.3218 209.666 80.3218 214.536 79.6212C215.656 79.4437 216.721 79.2907 217.701 79.0643C218.196 78.9541 218.674 78.8684 219.126 78.7583L220.43 78.4217C221.268 78.2258 222.003 77.9749 222.658 77.8097C222.982 77.7118 223.27 77.6261 223.563 77.5343L224.316 77.265L225.357 76.8978L225.626 76.806L225.724 76.7754C225.724 76.7754 225.693 76.7754 225.632 76.8182L225.363 76.9223L224.328 77.3078L223.582 77.5894C223.306 77.6873 222.97 77.773 222.676 77.8831C222.027 78.079 221.293 78.336 220.455 78.538L219.151 78.8807C218.698 78.997 218.221 79.0888 217.725 79.1989C216.74 79.4254 215.675 79.5845 214.555 79.7681C209.671 80.4861 204.708 80.4861 199.824 79.7681C198.698 79.5845 197.633 79.4253 196.648 79.1928C196.158 79.0887 195.675 78.997 195.222 78.8807L193.918 78.538C193.08 78.336 192.352 78.079 191.697 77.877L190.791 77.5894L190.044 77.3078L189.01 76.9162L188.741 76.8121L188.661 76.7999Z" fill="#263238"/>
<g opacity="0.3">
<path d="M188.741 76.8245C188.741 76.8245 190.864 72.4242 207.26 72.2345C223.655 72.0448 225.779 76.8245 225.779 76.8245C225.779 76.8245 209.243 84.9825 188.741 76.8245Z" fill="black"/>
</g>
<path d="M194.377 99.6276C194.365 99.6127 194.354 99.5963 194.347 99.5786L194.267 99.4378L193.967 98.8748L193.759 98.4709L193.527 97.9752C193.361 97.6202 193.178 97.2163 192.994 96.7512L192.7 96.0351L192.413 95.2518C192.198 94.7132 192.021 94.1196 191.801 93.5014C191.415 92.2774 191.042 90.876 190.711 89.4072C190.381 87.9384 190.142 86.5308 189.946 85.2394C189.75 83.9481 189.622 82.7914 189.549 81.8061C189.5 81.3165 189.469 80.8759 189.444 80.4842C189.42 80.0925 189.402 79.7559 189.389 79.4805V78.8685V78.6421C189.389 78.6421 189.389 78.6421 189.389 78.7033V78.8624C189.389 79.0215 189.389 79.2296 189.438 79.4744C189.487 79.7192 189.475 80.0864 189.512 80.472C189.549 80.8575 189.579 81.3043 189.628 81.7939C189.72 82.7731 189.873 83.9298 190.056 85.2211C190.24 86.5124 190.509 87.9078 190.828 89.3766C191.146 90.8454 191.531 92.2163 191.905 93.4586C192.113 94.0706 192.284 94.6826 192.517 95.2089L192.798 95.9984L193.086 96.7144C193.257 97.1734 193.441 97.5774 193.6 97.9384L193.82 98.4403L194.022 98.8503L194.298 99.4195L194.365 99.5664L194.377 99.6276Z" fill="white"/>
<path d="M203.043 107.333C202.946 107.329 202.85 107.317 202.756 107.296C202.496 107.255 202.24 107.193 201.991 107.112C201.618 107.001 201.254 106.861 200.901 106.696C200.475 106.488 200.066 106.246 199.677 105.974C199.288 105.698 198.922 105.391 198.582 105.056C198.304 104.78 198.048 104.484 197.817 104.168C197.658 103.961 197.514 103.742 197.388 103.514C197.335 103.433 197.289 103.347 197.254 103.257C197.254 103.257 197.48 103.599 197.866 104.113C198.104 104.415 198.362 104.701 198.637 104.97C198.978 105.296 199.342 105.597 199.726 105.87C200.115 106.14 200.524 106.379 200.95 106.586C201.295 106.755 201.651 106.902 202.015 107.027C202.639 107.235 203.043 107.308 203.043 107.333Z" fill="white"/>
<path d="M206.789 96.0289H206.617C206.507 96.0289 206.336 96.0289 206.122 96.0289C205.515 96.0186 204.914 95.9217 204.335 95.7413C203.468 95.4787 202.66 95.0528 201.954 94.4867C201.073 93.8061 200.379 92.9141 199.935 91.8934C199.491 90.8728 199.312 89.7565 199.414 88.6482C199.455 88.1658 199.541 87.6884 199.671 87.2223C199.791 86.8214 199.943 86.4306 200.124 86.0533C200.39 85.5043 200.732 84.9954 201.14 84.5417C201.248 84.4196 201.362 84.3032 201.483 84.1929C201.568 84.1133 201.611 84.0766 201.617 84.0827C201.623 84.0888 201.452 84.254 201.177 84.5784C200.786 85.0354 200.461 85.5441 200.21 86.09C200.032 86.4647 199.887 86.8537 199.775 87.2529C199.652 87.7114 199.572 88.1807 199.536 88.6543C199.438 89.7432 199.615 90.8392 200.05 91.8421C200.485 92.845 201.165 93.7227 202.027 94.3949C202.399 94.6909 202.796 94.9531 203.215 95.1783C203.584 95.3646 203.967 95.5241 204.359 95.6556C204.932 95.8388 205.527 95.9478 206.128 95.98C206.55 96.0289 206.789 96.0167 206.789 96.0289Z" fill="white"/>
<path d="M206.011 43.5132C206.011 43.5132 190.332 43.3235 187.884 56.916C185.436 70.5085 198.661 70.7411 202.474 70.992C204.206 71.1083 207.903 71.1206 211.164 71.0593C218.392 70.937 223.496 69.5355 225.24 62.8341C225.448 62.0468 225.579 61.2414 225.632 60.4289C226.054 53.0849 221.079 43.1522 206.011 43.5132Z" fill="#2952CE"/>
<path d="M217.382 64.1927L194.61 64.5476C194.04 64.5565 193.474 64.4526 192.944 64.2417C192.414 64.0309 191.932 63.7173 191.524 63.3191C191.116 62.9209 190.791 62.4459 190.568 61.9215C190.344 61.3971 190.227 60.8337 190.222 60.2636C190.204 59.1171 190.642 58.0103 191.439 57.1864C192.237 56.3624 193.329 55.8888 194.475 55.8695L217.26 55.5451C217.83 55.537 218.396 55.6415 218.926 55.8526C219.455 56.0636 219.938 56.3772 220.346 56.7751C220.754 57.1731 221.08 57.6477 221.304 58.1718C221.529 58.6958 221.648 59.259 221.654 59.8291C221.664 60.9735 221.22 62.0752 220.419 62.893C219.619 63.7108 218.527 64.1781 217.382 64.1927Z" fill="#263238"/>
<path d="M199.334 59.823C199.282 60.093 199.15 60.3413 198.956 60.5364C198.762 60.7315 198.514 60.8647 198.245 60.9189C197.975 60.9732 197.695 60.9461 197.441 60.8412C197.187 60.7363 196.969 60.5582 196.816 60.3296C196.663 60.1009 196.582 59.832 196.582 59.5569C196.582 59.2818 196.663 59.0128 196.816 58.7842C196.969 58.5556 197.187 58.3775 197.441 58.2726C197.695 58.1678 197.975 58.1408 198.245 58.195C198.605 58.2675 198.921 58.4793 199.125 58.7844C199.329 59.0894 199.405 59.4628 199.334 59.823Z" fill="white"/>
<path d="M215.246 59.5659C215.194 59.8358 215.063 60.0841 214.869 60.2793C214.676 60.4745 214.428 60.6079 214.159 60.6626C213.89 60.7173 213.61 60.6908 213.356 60.5865C213.101 60.4822 212.884 60.3048 212.73 60.0767C212.577 59.8486 212.494 59.5801 212.493 59.3052C212.493 59.0303 212.573 58.7613 212.725 58.5323C212.878 58.3034 213.094 58.1247 213.348 58.0189C213.602 57.9131 213.881 57.8849 214.151 57.938C214.512 58.0091 214.83 58.2203 215.035 58.5255C215.241 58.8307 215.317 59.2048 215.246 59.5659Z" fill="white"/>
<path d="M203.325 59.1804C203.429 59.1804 203.374 59.6761 203.68 60.3249C203.855 60.6944 204.105 61.0237 204.414 61.2918C204.78 61.6112 205.235 61.8118 205.718 61.8671C206.204 61.9025 206.689 61.7871 207.107 61.5366C207.461 61.3288 207.767 61.0495 208.007 60.7165C208.423 60.1351 208.459 59.6517 208.564 59.6578C208.668 59.6639 208.643 59.7802 208.643 60.0127C208.629 60.3395 208.544 60.6592 208.392 60.9491C208.165 61.3869 207.83 61.7597 207.419 62.0323C206.903 62.382 206.284 62.548 205.663 62.5036C205.042 62.4375 204.464 62.1611 204.022 61.7202C203.667 61.3844 203.404 60.9629 203.257 60.4962C203.158 60.1841 203.131 59.8534 203.178 59.5293C203.221 59.2845 203.282 59.1743 203.325 59.1804Z" fill="white"/>
<path d="M204.028 44.5291H203.973H203.808C203.661 44.5291 203.447 44.529 203.196 44.578C202.417 44.6554 201.644 44.7842 200.883 44.9636C199.754 45.231 198.654 45.6124 197.602 46.1019C196.311 46.7056 195.102 47.4706 194.004 48.3785C192.015 50.0406 190.431 52.1335 189.371 54.4985C189.049 55.2113 188.777 55.9454 188.557 56.6956C188.471 56.9649 188.428 57.173 188.386 57.3076L188.337 57.4667V57.5218C188.337 57.5218 188.337 57.5218 188.337 57.4667L188.373 57.3015C188.404 57.1607 188.441 56.9465 188.52 56.6895C188.713 55.9313 188.963 55.1887 189.267 54.4679C189.729 53.3895 190.306 52.3636 190.987 51.4079C193.355 48.0989 196.862 45.7802 200.834 44.8963C201.607 44.7238 202.393 44.6093 203.184 44.5535C203.459 44.5535 203.68 44.5535 203.796 44.5535H204.016L204.028 44.5291Z" fill="white"/>
<path d="M188.692 63.3359C188.591 63.1856 188.515 63.0204 188.465 62.8463C188.323 62.4486 188.217 62.039 188.147 61.6223C188.083 61.1951 188.056 60.763 188.068 60.331C188.064 60.1516 188.085 59.9725 188.129 59.7986C188.172 59.7986 188.129 60.6187 188.276 61.6346C188.423 62.6505 188.729 63.3237 188.692 63.3359Z" fill="white"/>
<path d="M213.619 54.7496C213.619 54.7863 210.62 54.8169 206.923 54.8169C203.227 54.8169 200.222 54.8169 200.222 54.7496C200.222 54.6823 203.221 54.6884 206.923 54.6884C210.626 54.6884 213.619 54.719 213.619 54.7496Z" fill="white"/>
<path d="M202.186 70.0251C202.186 70.0251 202.15 70.0251 202.076 70.0251H201.752C201.605 70.0251 201.433 70.0251 201.232 70.0251C201.03 70.0251 200.797 70.0251 200.54 70.0251C199.943 70.02 199.346 69.9833 198.753 69.9149C198.026 69.8305 197.305 69.7058 196.593 69.5416C195.881 69.3798 195.18 69.1755 194.493 68.9296C193.933 68.7266 193.383 68.4937 192.847 68.2319C192.615 68.1218 192.413 68.0116 192.235 67.9137C192.058 67.8158 191.905 67.7362 191.782 67.6628L191.501 67.4914L191.409 67.4241C191.409 67.4241 191.446 67.4241 191.513 67.4669L191.807 67.6138C191.929 67.6811 192.082 67.7668 192.266 67.8525C192.449 67.9382 192.651 68.0483 192.878 68.1462C193.337 68.3604 193.894 68.593 194.524 68.8194C195.211 69.0588 195.909 69.2631 196.617 69.4314C197.326 69.595 198.043 69.7217 198.765 69.8109C199.426 69.8904 200.032 69.9333 200.54 69.9455C200.791 69.9455 201.023 69.9455 201.225 69.9455H202.18L202.186 70.0251Z" fill="white"/>
<path d="M221.354 78.7828H221.299L221.122 78.8501L220.442 79.0949C220.149 79.1989 219.788 79.3213 219.359 79.4499C218.931 79.5784 218.447 79.7375 217.909 79.8721L217.058 80.0986L216.128 80.3128C215.516 80.4658 214.794 80.5882 214.065 80.7289C212.479 80.9972 210.879 81.1851 209.273 81.292C207.669 81.3741 206.061 81.3741 204.457 81.292C203.716 81.243 203.013 81.2063 202.358 81.1329L201.409 81.0349L200.534 80.9125C199.977 80.8452 199.481 80.7473 199.041 80.6739C198.6 80.6004 198.227 80.5209 197.921 80.4535L197.217 80.2944L197.033 80.2516H196.972C196.972 80.2516 196.972 80.2516 197.039 80.2516L197.223 80.2822L197.933 80.4168C198.239 80.478 198.612 80.5515 199.053 80.6127C199.494 80.6739 199.989 80.7779 200.546 80.8391L201.421 80.9493C201.721 80.986 202.033 81.0105 202.364 81.0411C203.019 81.1084 203.723 81.1451 204.457 81.1879C205.938 81.2491 207.566 81.2491 209.267 81.1512C210.969 81.0533 212.584 80.8391 214.041 80.6004C214.769 80.4658 215.461 80.3495 216.103 80.1965C216.422 80.1231 216.715 80.0619 217.034 79.9884L217.884 79.7742C218.429 79.6457 218.912 79.4927 219.335 79.3703C219.757 79.2479 220.13 79.1316 220.43 79.0337L221.116 78.8134L221.293 78.7583L221.354 78.7828Z" fill="white"/>
<path d="M171.904 139.181L174.42 162.296L189.304 167.26L189.916 174.457L168.912 173.049C168.912 173.049 162.437 173.208 161.029 164.677L160.687 142.253L171.904 139.181Z" fill="#FFBE9D"/>
<path d="M202.792 174.334C202.66 174.491 202.483 174.604 202.286 174.659C202.088 174.714 201.878 174.707 201.684 174.64C201.599 174.614 201.519 174.575 201.446 174.524C200.919 174.194 201.281 173.037 201.281 173.037L198.661 171.868C198.661 171.868 194.481 173.227 192.81 174.414C191.14 175.601 188.227 173.514 188.227 173.514L188.649 167.394L194.903 164.163C194.903 164.163 194.524 164.353 195.099 163.588C195.675 162.823 197.174 163.588 197.174 163.588C197.529 163.233 198.606 163.355 198.606 163.355L202.89 165.032C203.325 165.204 203.715 165.472 204.033 165.815C204.351 166.158 204.587 166.568 204.726 167.015L205.815 170.473C205.815 170.473 206.244 172.872 205.956 173.324C205.832 173.514 205.642 173.651 205.422 173.708C205.203 173.766 204.97 173.74 204.769 173.637C204.769 173.637 204.157 174.977 203.796 174.934C203.421 174.814 203.073 174.625 202.768 174.377L202.792 174.334Z" fill="#FFBE9D"/>
<path d="M194.004 173.728C194.114 173.694 194.221 173.649 194.322 173.594L195.228 173.196C196.349 172.72 197.498 172.311 198.667 171.972H198.6L201.219 173.165L201.152 173.025C201.086 173.246 201.045 173.474 201.03 173.704C201.001 173.961 201.047 174.22 201.164 174.451C201.244 174.566 201.354 174.657 201.483 174.714C201.6 174.779 201.729 174.821 201.862 174.836C202.138 174.865 202.415 174.796 202.645 174.64C202.704 174.601 202.76 174.556 202.811 174.506L202.847 174.469H202.676L202.749 174.53L203.074 174.744C203.184 174.819 203.301 174.885 203.423 174.94C203.487 174.972 203.555 174.997 203.625 175.014C203.71 175.044 203.803 175.044 203.888 175.014C204.034 174.954 204.161 174.854 204.255 174.726C204.34 174.617 204.418 174.503 204.487 174.383C204.632 174.149 204.76 173.906 204.873 173.655L204.683 173.722C204.858 173.812 205.055 173.852 205.251 173.838C205.448 173.824 205.636 173.757 205.797 173.643C205.963 173.519 206.08 173.342 206.128 173.141C206.187 172.96 206.226 172.774 206.244 172.584C206.22 171.855 206.143 171.129 206.011 170.411C205.828 169.799 205.632 169.187 205.43 168.575C205.308 168.178 205.185 167.792 205.063 167.4C204.957 167.002 204.81 166.617 204.622 166.25C204.416 165.888 204.137 165.573 203.802 165.326C203.478 165.092 203.119 164.912 202.737 164.793L198.686 163.22H198.655C198.395 163.196 198.132 163.196 197.872 163.22C197.597 163.232 197.334 163.33 197.119 163.502H197.284C197.085 163.341 196.849 163.23 196.598 163.179C196.347 163.127 196.087 163.138 195.84 163.208C195.4 163.383 195.041 163.717 194.836 164.145L194.885 164.096L190.601 166.305L189.432 166.917C189.292 166.98 189.158 167.058 189.034 167.149C189.181 167.1 189.324 167.041 189.463 166.972L190.65 166.409L195.001 164.285H195.032V164.249C195.215 163.879 195.529 163.591 195.913 163.441C196.124 163.384 196.344 163.378 196.557 163.424C196.77 163.469 196.969 163.566 197.137 163.704L197.223 163.771L197.303 163.698C197.482 163.571 197.695 163.503 197.915 163.502C198.157 163.478 198.401 163.478 198.643 163.502H198.612L202.651 165.099C203.007 165.215 203.344 165.385 203.649 165.601C203.951 165.824 204.204 166.107 204.39 166.433C204.566 166.785 204.705 167.154 204.806 167.535C204.922 167.921 205.05 168.312 205.173 168.704C205.369 169.316 205.571 169.928 205.754 170.54C205.883 171.241 205.963 171.951 205.993 172.664C205.997 172.83 205.985 172.996 205.956 173.159C205.921 173.297 205.839 173.418 205.724 173.502C205.605 173.582 205.467 173.629 205.323 173.638C205.18 173.646 205.037 173.616 204.91 173.551L204.775 173.496L204.72 173.624C204.613 173.864 204.493 174.097 204.359 174.322C204.256 174.527 204.105 174.703 203.918 174.836C203.88 174.846 203.84 174.846 203.802 174.836C203.745 174.821 203.69 174.801 203.637 174.775C203.528 174.724 203.421 174.667 203.319 174.604C203.214 174.536 203.11 174.469 203.013 174.396L202.939 174.34C203.098 174.34 202.719 174.34 202.755 174.34L202.725 174.371C202.686 174.41 202.643 174.445 202.596 174.475C202.418 174.6 202.201 174.657 201.984 174.634C201.881 174.623 201.78 174.59 201.691 174.536C201.598 174.506 201.519 174.446 201.464 174.365C201.317 173.97 201.317 173.536 201.464 173.141V173.043L201.372 173L198.741 171.844H198.704H198.673C197.502 172.206 196.357 172.648 195.246 173.165C194.855 173.349 194.561 173.502 194.365 173.612C194.239 173.633 194.118 173.672 194.004 173.728Z" fill="#EB996E"/>
<path d="M197.511 165.301C197.906 165.631 198.347 165.901 198.82 166.103C199.959 166.662 201.164 167.073 202.407 167.327L202.284 167.192C202.284 167.425 202.321 167.676 202.352 167.933C202.531 169.364 202.984 170.748 203.686 172.009C203.895 172.389 204.132 172.753 204.396 173.098C204.585 173.343 204.702 173.465 204.714 173.453C204.726 173.441 204.359 172.878 203.869 171.911C203.243 170.649 202.83 169.293 202.645 167.896C202.615 167.645 202.596 167.4 202.578 167.174V167.076H202.462C201.24 166.831 200.048 166.456 198.906 165.956C198.037 165.546 197.535 165.24 197.511 165.301Z" fill="#EB996E"/>
<path d="M201.036 168.998C200.96 170.903 201.64 172.762 202.927 174.169C203 174.12 202.272 173.098 201.758 171.666C201.244 170.234 201.127 168.985 201.036 168.998Z" fill="#EB996E"/>
<path d="M187.823 171.501C187.823 171.501 187.859 171.55 187.945 171.623C188.067 171.728 188.198 171.823 188.337 171.905C188.851 172.237 189.425 172.468 190.026 172.584C190.949 172.762 191.903 172.678 192.78 172.339C193.892 171.9 194.82 171.095 195.412 170.057L195.222 170.118C196.598 170.78 198.091 171.165 199.616 171.25C200.025 171.292 200.439 171.268 200.84 171.177C201.066 171.126 201.265 170.993 201.397 170.803C201.458 170.707 201.497 170.599 201.514 170.486C201.531 170.373 201.525 170.258 201.495 170.148C201.436 169.929 201.293 169.742 201.097 169.628L200.62 169.365C199.359 168.686 198.172 168.141 197.205 167.694C196.238 167.248 195.369 166.941 194.83 166.733C194.541 166.609 194.239 166.515 193.931 166.452C194.207 166.602 194.493 166.733 194.787 166.844C195.344 167.082 196.14 167.456 197.119 167.884C198.098 168.312 199.243 168.918 200.485 169.61L200.956 169.873C201.02 169.91 201.076 169.959 201.12 170.018C201.164 170.077 201.196 170.144 201.213 170.216C201.233 170.289 201.237 170.365 201.227 170.439C201.216 170.514 201.191 170.586 201.152 170.65C201.057 170.778 200.917 170.863 200.76 170.889C200.391 170.969 200.011 170.989 199.634 170.95C198.15 170.859 196.696 170.488 195.35 169.855L195.228 169.793L195.161 169.916C194.614 170.901 193.752 171.673 192.713 172.107C191.88 172.447 190.969 172.55 190.081 172.407C189.496 172.311 188.932 172.119 188.41 171.837C188.019 171.623 187.835 171.483 187.823 171.501Z" fill="#EB996E"/>
<path d="M205.779 257.878C205.823 257.689 205.823 257.492 205.779 257.303C205.69 256.778 205.492 256.278 205.197 255.834C205.102 255.678 204.984 255.535 204.849 255.412C204.763 255.332 204.658 255.276 204.544 255.25C204.43 255.224 204.311 255.229 204.2 255.265C204.133 255.289 204.072 255.328 204.022 255.379C203.973 255.43 203.935 255.491 203.912 255.559C203.871 255.684 203.871 255.819 203.912 255.944C203.996 256.157 204.098 256.362 204.218 256.556C204.439 256.936 204.628 257.315 204.916 257.744C205.003 257.866 205.121 257.962 205.257 258.023C205.394 258.085 205.544 258.109 205.693 258.093C205.965 258.045 206.222 257.931 206.44 257.762C206.843 257.467 207.211 257.126 207.535 256.746C207.691 256.567 207.836 256.379 207.97 256.183C208.119 255.99 208.229 255.769 208.294 255.534C208.329 255.397 208.315 255.252 208.255 255.123C208.195 254.995 208.092 254.891 207.964 254.831C207.843 254.796 207.716 254.792 207.594 254.82C207.472 254.848 207.359 254.906 207.266 254.99C206.989 255.233 206.745 255.511 206.538 255.816C206.233 256.247 205.99 256.719 205.816 257.217C205.735 257.392 205.693 257.582 205.693 257.774C205.979 257.13 206.327 256.515 206.734 255.938C206.937 255.662 207.173 255.411 207.437 255.192C207.492 255.142 207.558 255.106 207.629 255.088C207.701 255.07 207.776 255.07 207.847 255.088C207.908 255.123 207.954 255.179 207.979 255.244C208.003 255.31 208.004 255.382 207.982 255.449C207.923 255.639 207.828 255.816 207.701 255.969C207.572 256.153 207.431 256.33 207.284 256.501C206.97 256.855 206.619 257.175 206.238 257.456C206.058 257.594 205.849 257.686 205.626 257.725C205.535 257.737 205.443 257.723 205.36 257.686C205.276 257.648 205.205 257.587 205.155 257.511C204.916 257.162 204.689 256.728 204.463 256.373C204.356 256.204 204.26 256.028 204.175 255.847C204.114 255.681 204.175 255.571 204.261 255.528C204.524 255.418 204.781 255.718 204.959 255.969C205.352 256.547 205.63 257.195 205.779 257.878Z" fill="#263238"/>
<path d="M190.84 258.393L183.422 274.47L171.452 268.937L179.12 249.041L190.84 258.393Z" fill="#FFBE9D"/>
<path d="M184.824 273.393L180.485 281.661C180.485 281.661 191.556 293.148 190.54 295.694L164.457 283.191L171.623 266.612L184.824 273.393Z" fill="#FFEFE3"/>
<path d="M172.963 276.661C172.676 276.618 172.383 276.682 172.141 276.841C171.898 277 171.722 277.243 171.647 277.524C171.59 277.809 171.646 278.105 171.802 278.35C171.958 278.596 172.203 278.771 172.486 278.839C172.792 278.892 173.106 278.826 173.365 278.655C173.624 278.485 173.808 278.223 173.881 277.921C173.907 277.618 173.815 277.315 173.623 277.078C173.432 276.841 173.156 276.687 172.853 276.648" fill="#E7EDFF"/>
<g opacity="0.6">
<path d="M164.457 283.191L165.546 281.11L190.142 293.882C190.142 293.882 191.066 294.941 190.54 295.718L164.457 283.191Z" fill="white"/>
</g>
<path d="M180.974 281.728C180.907 281.857 180.246 281.606 179.42 281.728C178.594 281.851 178.006 282.212 177.914 282.108C177.822 282.004 178.367 281.355 179.365 281.239C180.362 281.122 181.06 281.624 180.974 281.728Z" fill="#263238"/>
<path d="M183.165 284.176C183.135 284.311 182.48 284.262 181.788 284.592C181.097 284.923 180.699 285.437 180.564 285.37C180.43 285.302 180.705 284.543 181.574 284.146C182.443 283.748 183.22 284.048 183.165 284.176Z" fill="#263238"/>
<path d="M183.153 288.191C183.025 288.191 183.153 287.444 183.814 286.899C184.475 286.355 185.203 286.367 185.203 286.502C185.203 286.636 184.659 286.832 184.126 287.279C183.594 287.726 183.282 288.252 183.153 288.191Z" fill="#263238"/>
<path d="M182.217 278.546C182.107 278.638 181.605 278.179 180.864 277.885C180.124 277.591 179.451 277.548 179.438 277.407C179.426 277.267 180.179 277.071 181.054 277.407C181.929 277.744 182.327 278.46 182.217 278.546Z" fill="#263238"/>
<path d="M187.272 271.251L206.825 222.291C206.825 222.291 206.385 213.943 204.848 211.305C203.312 208.668 156.727 193.288 156.727 193.288C156.727 193.288 144.86 190.43 136.953 193.288C129.046 196.146 123.11 206.03 124.205 211.526C125.301 217.021 130.356 221.489 130.356 221.489L164.199 222.101L182.865 228.888L170.289 264.929L187.272 271.251Z" fill="#263238"/>
<path d="M204.659 237.805L205.099 255.51L191.917 255.828L190.02 234.592L204.659 237.805Z" fill="#FFBE9D"/>
<path d="M205.883 253.925L205.632 263.258C205.632 263.258 220.65 268.656 220.846 271.416L191.923 271.71L191.036 253.668L205.883 253.925Z" fill="#FFEFE3"/>
<path d="M196.684 262.095C196.407 262.183 196.171 262.37 196.024 262.621C195.876 262.872 195.825 263.168 195.883 263.454C195.961 263.734 196.143 263.974 196.392 264.125C196.641 264.275 196.939 264.324 197.223 264.262C197.52 264.172 197.771 263.973 197.927 263.705C198.082 263.437 198.131 263.119 198.061 262.817C197.951 262.533 197.736 262.303 197.459 262.176C197.183 262.048 196.868 262.032 196.58 262.132" fill="#E7EDFF"/>
<g opacity="0.6">
<path d="M191.935 271.728L191.99 269.384L219.702 269.996C219.702 269.996 220.999 270.541 220.858 271.453L191.935 271.728Z" fill="white"/>
</g>
<path d="M206.109 263.105C206.109 263.246 205.399 263.319 204.714 263.778C204.029 264.237 203.655 264.837 203.527 264.782C203.398 264.727 203.6 263.913 204.445 263.368C205.289 262.824 206.14 262.977 206.109 263.105Z" fill="#263238"/>
<path d="M209.157 264.329C209.194 264.464 208.582 264.715 208.11 265.314C207.639 265.914 207.498 266.538 207.364 266.538C207.229 266.538 207.125 265.737 207.725 264.996C208.325 264.256 209.151 264.194 209.157 264.329Z" fill="#263238"/>
<path d="M210.919 267.94C210.791 267.976 210.583 267.273 210.919 266.495C211.256 265.718 211.935 265.4 211.997 265.516C212.058 265.632 211.654 266.055 211.385 266.697C211.115 267.34 211.054 267.927 210.919 267.94Z" fill="#263238"/>
<path d="M205.822 259.702C205.766 259.831 205.112 259.641 204.316 259.702C203.52 259.763 202.896 260.021 202.823 259.904C202.749 259.788 203.343 259.292 204.285 259.213C205.228 259.133 205.889 259.586 205.822 259.702Z" fill="#263238"/>
<path d="M196.96 188.661C196.96 188.661 204.861 188.049 205.736 196.617C206.611 205.185 207.468 245.161 207.468 245.161L189.01 246.703L186.152 205.834L156.708 193.306C156.708 193.306 191.684 187.566 196.96 188.661Z" fill="#263238"/>
<path d="M164.408 177.101C164.408 177.101 169.2 190.565 168.288 192.04C167.376 193.514 155.044 199.696 155.044 199.696L124.199 211.544C124.199 211.544 121.035 206.507 121.035 198.765C121.035 191.024 131.764 177.101 131.764 177.101H164.408Z" fill="#263238"/>
<path d="M155.264 192.621C155.264 192.621 155.307 192.651 155.405 192.7L155.846 192.902L157.553 193.661L163.967 196.452L186.103 205.981L185.999 205.84C186.281 209.879 186.58 214.243 186.899 218.753C187.645 229.298 188.337 239.017 188.888 246.709V246.85H189.028L202.492 245.669L206.164 245.326L207.131 245.222C207.243 245.215 207.353 245.199 207.462 245.173H207.131L206.158 245.234L202.45 245.51L188.986 246.569L189.132 246.697C188.606 239.004 187.939 229.28 187.217 218.735C186.899 214.224 186.605 209.861 186.305 205.828V205.724L186.213 205.687L164.028 196.268L157.578 193.563L155.852 192.853L155.399 192.676L155.264 192.621Z" fill="#455A64"/>
<path d="M130.729 193.967C131.025 193.913 131.316 193.833 131.598 193.729L133.918 192.982C136.453 192.123 139.052 191.467 141.69 191.017C144.328 190.585 147.02 190.619 149.646 191.115C150.724 191.369 151.788 191.677 152.835 192.04C152.584 191.874 152.315 191.738 152.033 191.636C151.28 191.316 150.499 191.064 149.701 190.883C147.052 190.302 144.317 190.231 141.641 190.675C138.982 191.133 136.372 191.837 133.844 192.78C132.871 193.123 132.088 193.423 131.555 193.631C131.269 193.715 130.993 193.828 130.729 193.967Z" fill="#455A64"/>
<path d="M135.093 186.88C135.99 186.825 136.889 186.825 137.786 186.88C138.618 186.935 139.622 187.064 140.711 187.192C141.8 187.321 143.012 187.468 144.261 187.706C146.404 188.049 148.458 188.81 150.307 189.946C151.043 190.46 151.742 191.025 152.4 191.636C152.281 191.42 152.131 191.224 151.953 191.054C151.498 190.564 150.992 190.125 150.442 189.744C148.595 188.524 146.508 187.714 144.322 187.37C143.055 187.125 141.837 186.99 140.735 186.874C139.634 186.758 138.642 186.66 137.798 186.635C137.13 186.606 136.46 186.635 135.797 186.721C135.555 186.739 135.318 186.792 135.093 186.88Z" fill="#455A64"/>
<path d="M148.716 78.8807C145.166 78.2687 142.045 79.6396 139.052 81.6408C136.067 83.701 133.782 86.6243 132.504 90.0191C131.083 93.5691 130.855 97.4851 131.855 101.176C132.369 103.005 133.247 104.712 134.438 106.193C135.628 107.674 137.107 108.899 138.783 109.793C143.398 112.137 149.303 111.323 153.434 108.202C157.565 105.08 159.928 99.9152 160.124 94.7376C160.311 91.1473 159.365 87.589 157.419 84.5662C156.436 83.072 155.156 81.7961 153.659 80.818C152.162 79.8398 150.479 79.1804 148.716 78.8807Z" fill="#263238"/>
<path d="M138.624 90.9493C139.144 89.5906 138.942 88.0729 139.144 86.6347C139.597 83.4645 142.149 80.9247 145.105 79.6885C147.853 78.5379 151.225 78.7888 154.518 79.8598C156.814 80.5581 158.865 81.8954 160.43 83.7154C161.427 84.95 162.114 86.4054 162.433 87.96C162.753 89.5145 162.695 91.1229 162.266 92.6506L146.054 90.2944C144.536 91.549 142.994 92.822 141.158 93.5258C140.627 93.7598 140.045 93.8525 139.469 93.7951C139.181 93.7615 138.908 93.6454 138.685 93.4609C138.461 93.2763 138.295 93.0311 138.208 92.7547C138.03 92.1427 138.398 91.5368 138.624 90.9493Z" fill="#263238"/>
<path d="M154.836 84.3337L140.68 87.3325C140.024 87.3826 139.409 87.6755 138.956 88.1541C138.504 88.6327 138.246 89.2627 138.232 89.9213L138.404 120.558C138.417 122.649 139.118 124.677 140.399 126.329L141.751 128.073C144.811 132.045 151.06 131.641 153.41 127.204C153.554 126.952 153.665 126.683 153.741 126.403C153.783 126.127 153.857 125.944 153.869 125.711L154.144 122.724C154.279 119.995 154.297 117.216 154.297 117.253C154.297 117.29 160.093 116.519 161.574 109.052C162.315 105.344 162.364 99.2115 162.241 94.1931C162.143 89.6765 159.371 84.0339 154.836 84.3337Z" fill="#FFBE9D"/>
<path d="M159.867 100.454C159.859 100.705 159.753 100.943 159.573 101.118C159.392 101.292 159.151 101.39 158.9 101.39C158.777 101.395 158.654 101.375 158.539 101.332C158.424 101.289 158.318 101.223 158.229 101.139C158.139 101.055 158.068 100.953 158.018 100.841C157.968 100.728 157.941 100.607 157.939 100.484C157.945 100.233 158.05 99.9935 158.231 99.8184C158.412 99.6433 158.654 99.5462 158.906 99.5479C159.029 99.5421 159.152 99.5612 159.267 99.604C159.383 99.6468 159.489 99.7124 159.578 99.7969C159.668 99.8814 159.74 99.9831 159.789 100.096C159.839 100.209 159.865 100.33 159.867 100.454Z" fill="#263238"/>
<path d="M160.797 97.3081C160.674 97.4305 159.964 96.8613 158.93 96.8246C157.896 96.7879 157.094 97.2775 157.002 97.1489C156.911 97.0204 157.082 96.8674 157.425 96.6348C157.885 96.3437 158.423 96.2006 158.967 96.2248C159.506 96.2432 160.025 96.4341 160.448 96.7695C160.76 97.0449 160.858 97.3081 160.797 97.3081Z" fill="#263238"/>
<path d="M150.289 99.958C150.281 100.209 150.175 100.447 149.995 100.622C149.814 100.797 149.573 100.894 149.322 100.894C149.199 100.898 149.077 100.878 148.963 100.835C148.848 100.791 148.744 100.725 148.655 100.641C148.566 100.557 148.495 100.456 148.445 100.344C148.396 100.232 148.369 100.111 148.367 99.9886C148.373 99.737 148.478 99.4979 148.659 99.3228C148.84 99.1477 149.082 99.0506 149.334 99.0523C149.456 99.0473 149.579 99.067 149.694 99.1102C149.808 99.1534 149.914 99.2191 150.003 99.3035C150.092 99.388 150.163 99.4894 150.212 99.6018C150.261 99.7142 150.287 99.8353 150.289 99.958Z" fill="#263238"/>
<path d="M150.956 97.0756C150.834 97.198 150.124 96.6288 149.083 96.5921C148.043 96.5554 147.247 97.045 147.162 96.9103C147.076 96.7757 147.241 96.6288 147.578 96.4024C148.039 96.1092 148.58 95.966 149.126 95.9923C149.665 96.0108 150.184 96.2017 150.607 96.537C150.919 96.794 151.017 97.0205 150.956 97.0756Z" fill="#263238"/>
<path d="M154.065 104.958C154.618 104.81 155.187 104.73 155.76 104.719C156.023 104.719 156.28 104.658 156.329 104.481C156.364 104.209 156.312 103.933 156.182 103.691C155.962 103.042 155.723 102.357 155.479 101.647C154.505 98.734 153.808 96.3411 153.924 96.3044C154.04 96.2677 154.928 98.5933 155.907 101.506C156.139 102.222 156.366 102.908 156.574 103.563C156.731 103.888 156.766 104.26 156.672 104.609C156.631 104.701 156.569 104.782 156.492 104.845C156.414 104.909 156.323 104.954 156.225 104.976C156.077 105.011 155.925 105.028 155.772 105.025C155.203 105.076 154.629 105.053 154.065 104.958Z" fill="#263238"/>
<path d="M154.303 117.253C150.767 117.174 147.322 116.115 144.352 114.193C144.352 114.193 146.678 119.493 154.224 119.089L154.303 117.253Z" fill="#EB996E"/>
<path d="M153.532 107.443C153.347 107.184 153.096 106.977 152.807 106.844C152.517 106.711 152.198 106.656 151.88 106.684C151.645 106.696 151.415 106.756 151.204 106.862C150.993 106.967 150.807 107.115 150.656 107.296C150.512 107.462 150.423 107.669 150.4 107.888C150.377 108.106 150.421 108.327 150.527 108.52C150.685 108.715 150.898 108.857 151.139 108.928C151.38 108.998 151.636 108.992 151.874 108.911C152.369 108.759 152.829 108.509 153.226 108.177C153.347 108.098 153.451 107.996 153.532 107.877C153.571 107.82 153.592 107.753 153.592 107.684C153.592 107.616 153.571 107.548 153.532 107.492" fill="#EB996E"/>
<path d="M150.986 105.558C151.158 105.558 151.115 106.678 152.045 107.516C152.975 108.355 154.181 108.275 154.181 108.434C154.181 108.501 153.906 108.642 153.404 108.636C152.744 108.619 152.111 108.37 151.617 107.932C151.141 107.513 150.847 106.924 150.797 106.292C150.772 105.821 150.913 105.546 150.986 105.558Z" fill="#263238"/>
<path d="M150.895 94.0033C150.784 94.2787 149.756 94.1073 148.532 94.2053C147.308 94.3032 146.317 94.5969 146.164 94.3399C146.096 94.2114 146.28 93.9544 146.684 93.6973C147.226 93.3837 147.832 93.1976 148.457 93.153C149.081 93.1085 149.708 93.2067 150.289 93.4403C150.729 93.6361 150.95 93.8687 150.895 94.0033Z" fill="#263238"/>
<path d="M160.674 92.7855C160.479 93.0119 159.775 92.7426 158.918 92.6998C158.061 92.657 157.327 92.7916 157.168 92.5407C157.1 92.4183 157.223 92.1857 157.553 91.9776C157.986 91.7199 158.489 91.6043 158.991 91.6472C159.496 91.6757 159.979 91.8595 160.375 92.1735C160.668 92.4122 160.76 92.6753 160.674 92.7855Z" fill="#263238"/>
<path d="M136.029 88.74C137.498 84.456 143.906 78.5563 148.441 78.948L155.601 83.4401C155.342 84.6734 154.754 85.8137 153.899 86.7402C153.045 87.6668 151.956 88.3451 150.748 88.7033C149.456 89.0643 147.914 89.1439 147.125 90.2333C146.335 91.3226 146.751 92.9873 145.999 94.1378C144.964 95.7229 142.223 95.5944 141.433 97.3202C141.09 98.073 141.243 98.9849 140.882 99.7376C140.405 100.729 137.822 101.953 136.794 101.574C135.766 101.194 135.778 99.4316 135.454 98.5136C135.04 97.4453 135.01 96.2664 135.368 95.1782C135.864 93.0913 135.325 90.8147 136.029 88.74Z" fill="#263238"/>
<path d="M139.879 102.584C139.879 102.027 139.303 100.686 138.759 100.576C137.29 100.289 134.628 100.307 134.475 104.046C134.242 109.169 139.432 108.33 139.444 108.202C139.456 108.073 139.811 104.517 139.879 102.584Z" fill="#FFBE9D"/>
<path d="M137.951 106.188C137.951 106.188 137.859 106.249 137.706 106.311C137.492 106.396 137.253 106.396 137.039 106.311C136.506 106.09 136.09 105.209 136.109 104.285C136.113 103.845 136.218 103.412 136.415 103.018C136.47 102.86 136.563 102.718 136.686 102.604C136.808 102.49 136.957 102.407 137.118 102.363C137.222 102.342 137.33 102.357 137.423 102.406C137.517 102.455 137.591 102.535 137.633 102.632C137.694 102.779 137.633 102.883 137.681 102.889C137.73 102.896 137.798 102.81 137.767 102.596C137.741 102.468 137.674 102.352 137.577 102.265C137.443 102.153 137.269 102.098 137.094 102.112C136.882 102.145 136.682 102.231 136.513 102.363C136.344 102.495 136.211 102.668 136.127 102.865C135.886 103.298 135.756 103.783 135.748 104.279C135.748 105.313 136.219 106.298 136.972 106.549C137.107 106.594 137.251 106.609 137.393 106.592C137.534 106.575 137.671 106.527 137.792 106.451C137.939 106.311 137.969 106.2 137.951 106.188Z" fill="#EB996E"/>
<path d="M134.934 87.4303C134.934 85.833 132.951 84.7865 131.39 84.4193C129.796 84.1455 128.157 84.4586 126.776 85.3006C125.95 85.7535 125.123 86.3899 124.94 87.3141C124.756 88.2382 125.644 89.3275 126.519 88.9971C126.077 89.128 125.671 89.3568 125.331 89.6664C124.99 89.976 124.724 90.3585 124.552 90.7853C124.379 91.2121 124.305 91.6723 124.336 92.1316C124.366 92.5909 124.499 93.0374 124.726 93.438C124.953 93.8386 125.267 94.1828 125.645 94.4451C126.023 94.7075 126.456 94.8811 126.911 94.953C127.365 95.025 127.83 94.9935 128.271 94.8608C128.712 94.7282 129.117 94.4978 129.456 94.1868C129.01 95.6671 128.071 96.9499 126.794 97.8221C128.12 98.0116 129.473 97.8481 130.716 97.3481C131.959 96.8482 133.048 96.0293 133.873 94.9743C134.698 93.9192 135.231 92.6651 135.417 91.3385C135.604 90.0119 135.437 88.6597 134.934 87.4181V87.4303Z" fill="#263238"/>
<path d="M131.378 95.576C131.229 95.0783 131.165 94.559 131.188 94.0399C131.164 91.5094 131.994 89.0448 133.544 87.0447C133.84 86.6187 134.204 86.2445 134.621 85.937C134.719 86.0043 133 87.7057 132.1 90.4536C131.2 93.2015 131.494 95.576 131.378 95.576Z" fill="#FFEFE3"/>
<path d="M154.114 81.9285C154.585 84.0155 157.755 86.6899 159.144 88.3117C161.801 91.4084 162.321 92.4366 162.296 99.3277C163.52 96.9348 164.506 94.5908 164.408 91.898C164.351 89.1703 163.297 86.5578 161.446 84.554C160.513 83.5698 159.363 82.8171 158.088 82.3559C156.813 81.8948 155.448 81.738 154.102 81.898" fill="#263238"/>
<path d="M175.827 138.887C175.827 138.887 170.319 129.707 168.777 127.829C167.546 126.391 166 125.257 164.261 124.512C163.571 124.224 162.85 124.018 162.113 123.9L154.157 122.143C154.157 122.143 154.157 127.553 148.471 127.89C142.786 128.226 138.018 120.319 138.018 120.319C138.018 120.319 128.838 121.739 126.653 122.865C124.468 123.991 121.017 125.43 119.12 134.928L117.785 144.218L133.612 145.656L135.123 169.145L142.963 174.604C142.963 174.604 164.695 180.252 166.084 180.626C167.474 180.999 167.92 145.656 167.92 145.656C167.92 145.656 173.514 142.051 175.827 138.887Z" fill="#FF9140"/>
<path d="M165.424 134.94C165.551 135.152 165.653 135.378 165.73 135.613C165.907 136.06 166.14 136.709 166.397 137.529C167.723 141.796 168.27 146.268 168.012 150.73C167.957 151.58 167.896 152.272 167.823 152.743C167.806 152.99 167.763 153.234 167.694 153.471C167.665 153.225 167.665 152.977 167.694 152.731C167.725 152.253 167.761 151.568 167.78 150.717C167.839 148.503 167.737 146.288 167.474 144.089C167.198 141.894 166.764 139.722 166.176 137.59C165.95 136.77 165.748 136.109 165.607 135.656C165.522 135.424 165.46 135.184 165.424 134.94Z" fill="#263238"/>
<path d="M164.75 173.41L134.989 166.935L133.612 145.656L120.38 144.432C120.38 144.432 120.87 158.973 121.378 163.3C122.106 169.518 125.784 177.988 127.932 179.696C130.081 181.403 166.085 180.626 166.085 180.626L164.75 173.41Z" fill="#FFBE9D"/>
<path d="M181.642 177.266C181.542 177.472 181.384 177.643 181.187 177.759C180.989 177.875 180.762 177.929 180.534 177.915C180.436 177.905 180.339 177.885 180.246 177.853C179.585 177.645 179.634 176.305 179.634 176.305L176.482 175.791C176.482 175.791 172.382 178.435 170.919 180.185C169.457 181.935 165.742 180.522 165.742 180.522L164.45 173.79L170.258 168.539C170.258 168.539 169.897 168.857 170.301 167.872C170.705 166.886 172.523 167.26 172.523 167.26C172.81 166.776 173.998 166.599 173.998 166.599L179.089 167.211C179.608 167.27 180.106 167.445 180.548 167.723C180.989 168 181.363 168.373 181.642 168.814L183.796 172.223C183.796 172.223 184.934 174.671 184.75 175.252C184.669 175.49 184.503 175.689 184.284 175.812C184.065 175.935 183.809 175.974 183.563 175.919C183.563 175.919 183.312 177.535 182.89 177.59C182.454 177.568 182.027 177.464 181.629 177.284L181.642 177.266Z" fill="#FFBE9D"/>
<path d="M170.803 172.437C170.803 172.492 171.488 172.437 172.572 172.48C173.986 172.542 175.385 172.804 176.727 173.257C177.466 173.505 178.184 173.809 178.875 174.169C179.487 174.518 180.13 174.781 180.326 175.252C180.371 175.35 180.39 175.458 180.381 175.566C180.371 175.673 180.333 175.776 180.271 175.864C180.179 176.01 180.044 176.123 179.885 176.189C179.741 176.236 179.59 176.258 179.438 176.256C179.438 176.256 179.597 176.397 179.928 176.305C180.123 176.249 180.295 176.131 180.417 175.968C180.505 175.858 180.562 175.726 180.584 175.587C180.605 175.447 180.59 175.305 180.54 175.173C180.413 174.878 180.199 174.628 179.928 174.457C179.653 174.273 179.365 174.089 179.04 173.912C178.342 173.528 177.611 173.207 176.856 172.951C175.485 172.489 174.049 172.254 172.602 172.253C171.997 172.225 171.39 172.287 170.803 172.437Z" fill="#EB996E"/>
<path d="M170.448 175.687C170.448 175.785 172.529 175.687 175.075 175.846C177.621 176.005 179.671 176.305 179.683 176.213C179.259 176.046 178.814 175.937 178.361 175.889C177.28 175.705 176.188 175.582 175.093 175.522C173.996 175.46 172.897 175.46 171.801 175.522C171.344 175.514 170.889 175.57 170.448 175.687Z" fill="#EB996E"/>
<path d="M181.611 177.137C181.657 176.962 181.68 176.78 181.678 176.599C181.709 176.101 181.709 175.603 181.678 175.105C181.661 174.757 181.614 174.411 181.537 174.071C181.446 173.672 181.275 173.295 181.036 172.963C180.537 172.193 179.89 171.529 179.132 171.011C178.378 170.49 177.554 170.078 176.684 169.787C175.967 169.583 175.227 169.472 174.481 169.457C173.869 169.457 173.343 169.457 172.994 169.457C172.811 169.445 172.626 169.463 172.449 169.512C173.119 169.604 173.793 169.659 174.469 169.677C175.189 169.726 175.902 169.857 176.592 170.069C177.423 170.371 178.209 170.783 178.93 171.293C179.651 171.785 180.274 172.408 180.766 173.129C181.163 173.719 181.392 174.407 181.427 175.118C181.574 176.36 181.544 177.143 181.611 177.137Z" fill="#EB996E"/>
<path d="M174.255 167.902C174.255 167.951 175.02 167.97 176.238 168.11C177.455 168.251 179.298 168.373 180.35 169.989C181.387 171.196 182.252 172.541 182.921 173.985C183.139 174.604 183.3 175.241 183.404 175.889C183.447 175.713 183.457 175.53 183.435 175.35C183.404 174.857 183.303 174.371 183.135 173.906C182.518 172.405 181.663 171.014 180.601 169.787C180.317 169.413 179.986 169.078 179.616 168.79C179.249 168.523 178.833 168.332 178.392 168.227C177.685 168.04 176.961 167.925 176.231 167.884C175.575 167.803 174.91 167.809 174.255 167.902Z" fill="#EB996E"/>
<path d="M172.045 179.102C172.156 179.037 172.259 178.959 172.351 178.869C172.572 178.698 172.853 178.465 173.202 178.184C174.273 177.353 175.391 176.585 176.55 175.883H176.476L179.628 176.421L179.518 176.287C179.511 176.545 179.532 176.804 179.579 177.058C179.621 177.34 179.745 177.603 179.934 177.817C180.054 177.919 180.2 177.985 180.356 178.006C180.502 178.037 180.652 178.037 180.797 178.006C181.102 177.961 181.38 177.806 181.58 177.572C181.634 177.516 181.681 177.454 181.721 177.388L181.752 177.339V177.309L181.568 177.376L181.666 177.413L182.07 177.56C182.211 177.602 182.351 177.639 182.504 177.67C182.582 177.676 182.66 177.676 182.737 177.67C182.838 177.678 182.939 177.659 183.031 177.615C183.17 177.505 183.276 177.359 183.337 177.192C183.4 177.054 183.454 176.91 183.496 176.764C183.582 176.471 183.649 176.172 183.698 175.87L183.514 175.999C183.728 176.043 183.95 176.028 184.157 175.957C184.363 175.886 184.547 175.761 184.689 175.595C184.831 175.423 184.907 175.206 184.903 174.983C184.893 174.775 184.856 174.57 184.793 174.371C184.559 173.594 184.268 172.835 183.924 172.1C183.563 171.519 183.171 170.907 182.78 170.264L182.052 169.114C181.826 168.712 181.557 168.337 181.25 167.994C180.926 167.666 180.539 167.408 180.111 167.235C179.693 167.082 179.253 166.991 178.808 166.966L174.01 166.427H173.973C173.686 166.475 173.403 166.549 173.129 166.648C172.837 166.736 172.582 166.917 172.4 167.162L172.578 167.107C172.317 166.988 172.032 166.934 171.746 166.95C171.461 166.966 171.183 167.051 170.938 167.198C170.513 167.51 170.224 167.972 170.13 168.49L170.173 168.422L166.17 172.021C165.717 172.431 165.362 172.761 165.093 173.012C164.961 173.12 164.84 173.241 164.732 173.373C164.877 173.283 165.012 173.179 165.136 173.061L166.256 172.119L170.332 168.6V168.557C170.421 168.108 170.674 167.709 171.042 167.437C171.251 167.318 171.486 167.251 171.726 167.241C171.967 167.232 172.207 167.28 172.425 167.382L172.535 167.425L172.602 167.327C172.762 167.137 172.975 167.001 173.214 166.935C173.469 166.847 173.731 166.781 173.998 166.739H173.961L178.753 167.302C179.171 167.326 179.584 167.413 179.977 167.559C180.366 167.713 180.718 167.947 181.011 168.245C181.299 168.572 181.552 168.929 181.764 169.31L182.492 170.46L183.643 172.296C183.977 173.015 184.264 173.755 184.5 174.512C184.553 174.687 184.588 174.868 184.604 175.05C184.611 175.21 184.556 175.365 184.451 175.485C184.346 175.607 184.211 175.698 184.059 175.749C183.907 175.799 183.744 175.808 183.588 175.772H183.429V175.925C183.381 176.214 183.318 176.5 183.239 176.782C183.188 177.033 183.075 177.267 182.908 177.462C182.868 177.468 182.826 177.468 182.786 177.462C182.721 177.468 182.655 177.468 182.59 177.462C182.456 177.437 182.323 177.404 182.192 177.364C182.064 177.327 181.935 177.278 181.807 177.229L181.715 177.192L181.531 177.26V177.296C181.502 177.351 181.467 177.402 181.427 177.449C181.269 177.631 181.053 177.753 180.815 177.792C180.7 177.813 180.582 177.813 180.466 177.792C180.36 177.782 180.26 177.739 180.179 177.67C179.911 177.286 179.79 176.819 179.836 176.354V176.238H179.732L176.574 175.742H176.531H176.501C175.342 176.463 174.236 177.265 173.19 178.141C172.829 178.447 172.578 178.698 172.37 178.869C172.254 178.936 172.145 179.014 172.045 179.102Z" fill="#EB996E"/>
<path d="M214.237 157.712L175.038 158.031C173.765 158.031 172.553 158.643 172.364 159.867L168.08 188.441H147.884C147.572 188.441 147.273 188.565 147.053 188.785C146.832 189.005 146.708 189.304 146.708 189.616C146.708 189.928 146.832 190.226 147.053 190.447C147.273 190.667 147.572 190.791 147.884 190.791H212.364L216.77 160.638C216.821 160.275 216.793 159.905 216.689 159.554C216.585 159.202 216.407 158.877 216.167 158.6C215.927 158.323 215.631 158.1 215.298 157.947C214.965 157.794 214.603 157.714 214.237 157.712Z" fill="#E7EDFF"/>
<path d="M214.237 157.712C214.442 157.699 214.649 157.717 214.849 157.768C215.452 157.91 215.984 158.264 216.348 158.765C216.615 159.123 216.782 159.545 216.831 159.989C216.846 160.531 216.798 161.073 216.691 161.605L216.122 165.583C215.259 171.568 214.016 180.203 212.486 190.816V190.92H212.364L149.799 190.956H148.104C147.796 190.988 147.486 190.93 147.21 190.791C146.926 190.638 146.708 190.385 146.598 190.081C146.489 189.781 146.49 189.452 146.603 189.154C146.715 188.855 146.931 188.607 147.21 188.453C147.482 188.314 147.788 188.257 148.092 188.288H168.049L167.896 188.417L172.18 160.075C172.219 159.503 172.478 158.968 172.902 158.582C173.331 158.226 173.85 157.997 174.402 157.921C174.926 157.872 175.454 157.854 175.98 157.865H177.523L183.422 157.829L193.912 157.761L208.845 157.688H212.841H213.869H214.218C214.218 157.688 214.102 157.688 213.869 157.688H212.841L208.845 157.749L193.912 157.914L183.422 158.018L177.523 158.074H175.987C175.472 158.064 174.957 158.082 174.444 158.129C173.939 158.198 173.463 158.411 173.073 158.741C172.702 159.09 172.483 159.571 172.461 160.081C171.182 168.649 169.763 178.19 168.233 188.423V188.557H148.104C147.854 188.526 147.601 188.568 147.376 188.68C147.168 188.798 147.008 188.985 146.923 189.208C146.838 189.431 146.834 189.677 146.91 189.904C146.996 190.131 147.159 190.321 147.369 190.442C147.598 190.559 147.855 190.605 148.11 190.577H149.793L212.358 190.614L212.235 190.718L215.975 165.491C216.201 164.004 216.397 162.676 216.587 161.519C216.695 160.998 216.749 160.467 216.746 159.934C216.705 159.493 216.549 159.071 216.293 158.71C215.942 158.217 215.428 157.864 214.842 157.712C214.641 157.696 214.438 157.696 214.237 157.712Z" fill="#263238"/>
<path d="M190.521 173.906C190.521 174.39 190.665 174.863 190.934 175.266C191.203 175.669 191.585 175.982 192.033 176.168C192.48 176.353 192.972 176.401 193.447 176.307C193.922 176.213 194.358 175.979 194.7 175.637C195.043 175.295 195.276 174.858 195.37 174.384C195.465 173.909 195.416 173.417 195.231 172.969C195.046 172.522 194.732 172.14 194.33 171.871C193.927 171.602 193.454 171.458 192.969 171.458C192.32 171.458 191.698 171.716 191.238 172.175C190.779 172.634 190.521 173.257 190.521 173.906Z" fill="white"/>
<path d="M169.665 190.559C169.72 190.559 170.968 183.294 172.449 174.31C173.93 165.326 175.093 158.037 175.038 158.031C174.983 158.025 173.735 165.295 172.253 174.279C170.772 183.264 169.61 190.552 169.665 190.559Z" fill="#263238"/>
</svg>
