<svg width="255" height="240" viewBox="0 0 255 240" fill="none" xmlns="http://www.w3.org/2000/svg">
<path d="M244.103 34.3186L242.612 31.8639C229.989 11.1095 207.228 -1.39714 183.227 0.124768C180.132 0.302889 177.055 0.713158 174.022 1.35211C152.2 6.02216 133.213 22.5238 125.345 43.6587C120.712 56.0856 119.423 70.3964 110.617 80.2643C99.1906 93.1023 79.7801 93.5012 62.7507 92.9734C45.7213 92.4457 26.2679 92.8936 14.8843 105.781C7.77796 113.887 5.5135 125.4 6.08422 136.176C7.60613 164.798 27.5628 190.394 52.9136 203.115C78.2644 215.837 108.144 216.972 135.9 211.375C174.789 203.539 211.775 182.011 234.002 148.781C256.229 115.55 261.857 70.2062 244.103 34.3186Z" fill="#FEF5D8"/>
<path d="M233.057 71H56.7136C55.2538 71.0012 53.8542 71.582 52.8223 72.6147C51.7905 73.6474 51.2109 75.0475 51.2109 76.5073V201.051C51.2109 202.51 51.7907 203.91 52.8226 204.942C53.8546 205.974 55.2542 206.554 56.7136 206.554H124.389L121.084 232.484H170.206L167.436 206.554H233.057C234.517 206.554 235.917 205.974 236.95 204.942C237.982 203.91 238.563 202.511 238.564 201.051V76.5073C238.564 75.0467 237.984 73.6459 236.951 72.613C235.919 71.5802 234.518 71 233.057 71Z" fill="#455A64"/>
<path d="M147.247 193.457C149.643 196.882 145.89 200.64 142.465 198.24C142.349 198.16 142.249 198.06 142.17 197.944C139.774 194.519 143.527 190.77 146.952 193.162C147.067 193.242 147.167 193.342 147.247 193.457Z" fill="#263238"/>
<path d="M60.6322 75.741H229.174C229.762 75.741 230.344 75.8568 230.888 76.0818C231.431 76.3069 231.925 76.6367 232.34 77.0525C232.756 77.4683 233.086 77.9619 233.311 78.5052C233.536 79.0485 233.652 79.6308 233.652 80.2188V183.763H56.1543V80.2326C56.1525 79.6434 56.267 79.0597 56.4912 78.5148C56.7154 77.9699 57.045 77.4747 57.4609 77.0574C57.8769 76.6401 58.3712 76.309 58.9154 76.0831C59.4595 75.8572 60.043 75.741 60.6322 75.741Z" fill="#E0E0E0"/>
<path opacity="0.3" d="M51.2246 180.698V182.807H225.329C225.329 182.807 226.894 176.377 228.131 169.323C230.264 157.141 230.989 140.443 231.123 135.855C231.257 131.266 231.123 133.251 231.123 133.251L51.2246 180.698Z" fill="black"/>
<path d="M56.2527 79.5912C56.2527 79.5912 56.5943 169.254 40.5156 180.689H222.717C222.717 180.689 226.909 170.704 232.338 118.341C233.653 105.669 233.653 95.9145 233.653 95.9145V79.5173C233.652 79.0176 233.551 78.5233 233.357 78.0626C233.164 77.602 232.881 77.1841 232.525 76.8332C232.17 76.4822 231.748 76.2051 231.285 76.0177C230.822 75.8303 230.326 75.7363 229.826 75.7411H60.0657C59.5615 75.7399 59.0621 75.8389 58.5965 76.0324C58.1309 76.2259 57.7084 76.51 57.3536 76.8682C56.9988 77.2265 56.7187 77.6517 56.5297 78.1192C56.3407 78.5866 56.2465 79.087 56.2527 79.5912Z" fill="#FAFAFA"/>
<path d="M56.2521 79.5911C56.2521 79.5911 56.2521 79.4664 56.2521 79.2218C56.3289 78.2431 56.7883 77.3342 57.5309 76.692C58.1673 76.1453 58.9647 75.8211 59.8021 75.7688C63.5828 75.7365 69.1548 75.7457 76.3285 75.7318L137.125 75.6949L227.324 75.6672H228.903C229.44 75.6453 229.979 75.6669 230.514 75.7318C231.341 75.8666 232.103 76.2653 232.685 76.8684C233.268 77.4716 233.639 78.2469 233.745 79.0787C233.8 79.6372 233.745 80.1635 233.773 80.7082C233.773 81.7884 233.773 82.8733 233.773 83.9397C233.773 88.2882 233.773 92.686 233.773 97.1331C233.699 101.579 233.482 106.066 233.154 110.594C232.826 115.123 232.337 119.675 231.839 124.268C230.841 133.454 229.738 142.798 228.386 152.247C227.724 156.975 226.97 161.723 226.124 166.493C225.69 168.875 225.242 171.262 224.739 173.644C224.256 176.047 223.63 178.42 222.864 180.749L222.841 180.822H221.623L40.5335 180.795H40.252L40.4782 180.629C41.2626 180.034 41.9697 179.344 42.5832 178.574C43.1827 177.806 43.7243 176.995 44.2035 176.146C45.125 174.466 45.9123 172.715 46.5579 170.911C47.8139 167.433 48.8364 163.875 49.6185 160.261C51.1788 153.235 52.1482 146.5 52.9099 140.185C54.4056 127.545 55.0565 116.568 55.4951 107.589C55.9336 98.6103 56.0767 91.5981 56.1598 86.8479C56.2429 82.0977 56.2429 79.7757 56.2429 79.5911C56.2429 79.5911 56.2429 80.2143 56.2429 81.4376C56.2429 82.6609 56.2429 84.4705 56.2013 86.8479C56.1367 91.6028 55.9982 98.6057 55.592 107.594C55.1858 116.582 54.5302 127.559 53.0484 140.203C52.2913 146.523 51.3311 153.263 49.7708 160.298C48.9941 163.921 47.9731 167.487 46.7148 170.971C46.059 172.785 45.2593 174.543 44.3236 176.229C43.8387 177.086 43.2925 177.907 42.6894 178.685C42.0651 179.465 41.3472 180.166 40.552 180.772L40.4966 180.605L221.586 180.578H222.717L222.606 180.652C223.36 178.336 223.977 175.977 224.452 173.589C224.974 171.211 225.422 168.825 225.837 166.447C226.678 161.683 227.432 156.938 228.099 152.21C229.452 142.761 230.555 133.422 231.557 124.24C232.051 119.624 232.563 115.095 232.873 110.571C233.182 106.047 233.417 101.565 233.496 97.1239C233.496 92.6799 233.496 88.2836 233.496 83.935V80.7036C233.496 80.1681 233.519 79.6142 233.468 79.0971C233.369 78.316 233.021 77.5876 232.475 77.0198C231.93 76.4519 231.216 76.0748 230.44 75.9442C229.917 75.8845 229.391 75.8644 228.866 75.8842H227.268H137.07L76.2731 75.8426H59.7975C58.9651 75.8929 58.1729 76.2176 57.5447 76.7659C57.0876 77.1562 56.7326 77.6522 56.5106 78.2108C56.3444 78.6522 56.2569 79.1194 56.2521 79.5911Z" fill="#263238"/>
<path d="M185.644 206.558C185.644 206.618 170.872 206.664 152.632 206.664C134.393 206.664 119.621 206.618 119.621 206.558C119.621 206.498 134.393 206.448 152.632 206.448C170.872 206.448 185.644 206.498 185.644 206.558Z" fill="#263238"/>
<path d="M97.1272 89.2992H68.0443C67.504 89.2992 66.9857 89.0848 66.6032 88.7032C66.2206 88.3215 66.0051 87.8037 66.0039 87.2634C66.0039 86.7222 66.2189 86.2032 66.6015 85.8206C66.9842 85.4379 67.5032 85.2229 68.0443 85.2229H97.1272C97.3978 85.2211 97.6662 85.2731 97.9165 85.376C98.1669 85.4789 98.3943 85.6305 98.5855 85.8221C98.7767 86.0138 98.9278 86.2415 99.0301 86.4921C99.1324 86.7427 99.1839 87.0112 99.1814 87.2818C99.1753 87.8214 98.9558 88.3365 98.5708 88.7146C98.1858 89.0927 97.6667 89.3029 97.1272 89.2992Z" fill="#E0E0E0"/>
<path d="M106.038 103.928H69.4445C68.8363 103.928 68.2342 103.808 67.6726 103.575C67.111 103.341 66.6011 102.999 66.1721 102.568C65.7431 102.137 65.4036 101.625 65.1729 101.063C64.9423 100.5 64.8251 99.8971 64.8282 99.2889C64.8282 98.0646 65.3145 96.8904 66.1803 96.0247C67.046 95.159 68.2202 94.6726 69.4445 94.6726H106.038C107.262 94.6726 108.437 95.159 109.302 96.0247C110.168 96.8904 110.654 98.0646 110.654 99.2889C110.657 99.8971 110.54 100.5 110.31 101.063C110.079 101.625 109.739 102.137 109.311 102.568C108.882 102.999 108.372 103.341 107.81 103.575C107.248 103.808 106.646 103.928 106.038 103.928Z" fill="#FFD95B"/>
<path d="M122.21 111.592H67.4517C67.0635 111.592 66.6913 111.437 66.4169 111.163C66.1425 110.889 65.9883 110.516 65.9883 110.128C65.9895 109.741 66.1442 109.37 66.4185 109.096C66.6928 108.823 67.0643 108.669 67.4517 108.669H122.21C122.597 108.671 122.967 108.825 123.241 109.098C123.514 109.371 123.668 109.742 123.669 110.128C123.669 110.516 123.516 110.887 123.242 111.161C122.969 111.436 122.598 111.59 122.21 111.592Z" fill="#E0E0E0"/>
<path d="M122.21 116.166H67.4517C67.0635 116.166 66.6913 116.012 66.4169 115.737C66.1425 115.463 65.9883 115.091 65.9883 114.703C65.9883 114.511 66.0262 114.321 66.0998 114.143C66.1734 113.966 66.2812 113.805 66.4172 113.67C66.5531 113.534 66.7145 113.427 66.892 113.354C67.0695 113.281 67.2597 113.243 67.4517 113.244H122.21C122.594 113.249 122.96 113.405 123.23 113.678C123.5 113.951 123.651 114.319 123.651 114.703C123.651 115.087 123.5 115.456 123.23 115.729C122.961 116.003 122.595 116.16 122.21 116.166Z" fill="#E0E0E0"/>
<path d="M91.2765 120.736H67.4517C67.2597 120.737 67.0695 120.699 66.892 120.626C66.7145 120.553 66.5531 120.446 66.4172 120.31C66.2812 120.175 66.1734 120.014 66.0998 119.837C66.0262 119.659 65.9883 119.469 65.9883 119.277C65.9883 118.889 66.1425 118.517 66.4169 118.243C66.6913 117.968 67.0635 117.814 67.4517 117.814H91.2765C91.4685 117.814 91.6585 117.852 91.8358 117.925C92.0131 117.999 92.1741 118.107 92.3096 118.243C92.4451 118.379 92.5525 118.54 92.6255 118.718C92.6986 118.895 92.7359 119.085 92.7353 119.277C92.7359 119.469 92.6985 119.659 92.6255 119.836C92.5524 120.014 92.4449 120.175 92.3094 120.31C92.1738 120.446 92.0127 120.553 91.8355 120.626C91.6582 120.699 91.4682 120.737 91.2765 120.736Z" fill="#E0E0E0"/>
<path d="M219.272 161.605H152.672C152.48 161.605 152.29 161.567 152.112 161.493C151.935 161.42 151.773 161.312 151.638 161.176C151.502 161.04 151.394 160.879 151.32 160.701C151.247 160.524 151.209 160.334 151.209 160.141C151.21 159.754 151.365 159.383 151.639 159.11C151.914 158.836 152.285 158.683 152.672 158.683H219.272C219.659 158.683 220.031 158.836 220.305 159.11C220.579 159.383 220.734 159.754 220.735 160.141C220.735 160.529 220.581 160.902 220.307 161.176C220.032 161.451 219.66 161.605 219.272 161.605Z" fill="#E0E0E0"/>
<path d="M217.362 98.0884H154.391C154.004 98.0884 153.632 97.9348 153.358 97.6614C153.084 97.388 152.929 97.0169 152.928 96.6296C152.928 96.2415 153.082 95.8693 153.356 95.5949C153.631 95.3204 154.003 95.1663 154.391 95.1663H217.362C217.75 95.1663 218.123 95.3204 218.397 95.5949C218.672 95.8693 218.826 96.2415 218.826 96.6296C218.825 97.0169 218.67 97.388 218.395 97.6614C218.121 97.9348 217.75 98.0884 217.362 98.0884Z" fill="#E0E0E0"/>
<path d="M177.533 103.591H154.391C154.003 103.591 153.631 103.437 153.356 103.163C153.082 102.888 152.928 102.516 152.928 102.128C152.929 101.741 153.084 101.37 153.358 101.096C153.632 100.823 154.004 100.669 154.391 100.669H177.533C177.919 100.67 178.29 100.824 178.563 101.098C178.836 101.371 178.99 101.741 178.991 102.128C178.991 102.515 178.838 102.887 178.565 103.161C178.291 103.435 177.92 103.59 177.533 103.591Z" fill="#E0E0E0"/>
<path d="M219.17 166.927H152.571C152.379 166.928 152.189 166.891 152.011 166.818C151.834 166.744 151.672 166.637 151.536 166.502C151.4 166.366 151.292 166.205 151.219 166.028C151.145 165.851 151.107 165.66 151.107 165.468C151.107 165.08 151.262 164.708 151.536 164.434C151.81 164.159 152.183 164.005 152.571 164.005H219.17C219.559 164.005 219.931 164.159 220.205 164.434C220.48 164.708 220.634 165.08 220.634 165.468C220.634 165.66 220.596 165.851 220.522 166.028C220.449 166.205 220.341 166.366 220.205 166.502C220.069 166.637 219.908 166.744 219.73 166.818C219.553 166.891 219.362 166.928 219.17 166.927Z" fill="#E0E0E0"/>
<path d="M185.92 172.245H150.998C150.611 172.244 150.241 172.09 149.968 171.817C149.694 171.543 149.54 171.173 149.539 170.786C149.539 170.399 149.693 170.028 149.966 169.753C150.239 169.479 150.611 169.324 150.998 169.323H185.92C186.308 169.323 186.681 169.477 186.955 169.752C187.23 170.026 187.384 170.398 187.384 170.786C187.382 171.174 187.228 171.545 186.953 171.818C186.679 172.092 186.308 172.245 185.92 172.245Z" fill="#E0E0E0"/>
<path d="M182.559 90.2547H155.041C154.482 90.2535 153.946 90.0308 153.551 89.6355C153.156 89.2401 152.933 88.7042 152.932 88.1451C152.933 87.5859 153.156 87.05 153.551 86.6546C153.946 86.2593 154.482 86.0366 155.041 86.0354H182.564C183.123 86.0354 183.66 86.2577 184.056 86.6533C184.451 87.0489 184.673 87.5855 184.673 88.1451C184.673 88.4225 184.619 88.6972 184.512 88.9535C184.406 89.2097 184.25 89.4425 184.054 89.6385C183.858 89.8344 183.624 89.9897 183.368 90.0955C183.111 90.2012 182.837 90.2553 182.559 90.2547Z" fill="#E0E0E0"/>
<path d="M151.741 111.942C151.749 111.997 151.749 112.053 151.741 112.108C151.741 112.224 151.741 112.381 151.741 112.57C151.741 112.999 151.741 113.618 151.741 114.416C151.741 116.041 151.741 118.4 151.774 121.369C151.774 127.328 151.801 135.73 151.82 145.549L151.705 145.434H169.02L205.028 145.466L215.945 145.507H218.914H219.685H219.948C219.948 145.507 219.855 145.507 219.685 145.507H218.914L215.945 145.53L205.028 145.567L169.02 145.604H151.705H151.594V145.494C151.594 135.675 151.626 127.273 151.635 121.313C151.635 118.345 151.658 115.986 151.668 114.361C151.668 113.558 151.668 112.939 151.668 112.515C151.668 112.311 151.668 112.154 151.668 112.053C151.69 112.015 151.715 111.978 151.741 111.942Z" fill="#263238"/>
<path d="M191.385 142.479H194.953V136.69H191.385V142.479Z" fill="#FFD95B"/>
<path d="M205.779 142.479H209.348V136.69H205.779V142.479Z" fill="#FFD95B"/>
<path d="M212.973 142.479H216.541V138.911H212.973V142.479Z" fill="#FFD95B"/>
<path d="M198.578 142.479H202.146V133.939H198.578V142.479Z" fill="#FFD95B"/>
<path d="M184.189 142.479H187.758V131.839H184.189V142.479Z" fill="#FFD95B"/>
<path d="M176.996 142.479H180.564V128.792H176.996V142.479Z" fill="#FFD95B"/>
<path d="M169.793 142.479H173.361V125.394H169.793V142.479Z" fill="#FFD95B"/>
<path d="M162.602 142.484H166.17V120.796H162.602V142.484Z" fill="#FFD95B"/>
<path d="M155.406 142.479H158.975V114.31H155.406V142.479Z" fill="#FFD95B"/>
<path d="M213.776 136.722H215.738C216.181 136.722 216.541 136.363 216.541 135.919V135.79C216.541 135.346 216.181 134.987 215.738 134.987H213.776C213.332 134.987 212.973 135.346 212.973 135.79V135.919C212.973 136.363 213.332 136.722 213.776 136.722Z" fill="#E0E0E0"/>
<path d="M206.76 134.982H208.722C209.166 134.982 209.525 134.623 209.525 134.179V134.05C209.525 133.606 209.166 133.247 208.722 133.247H206.76C206.317 133.247 205.957 133.606 205.957 134.05V134.179C205.957 134.623 206.317 134.982 206.76 134.982Z" fill="#E0E0E0"/>
<path d="M199.557 132.143H201.519C201.963 132.143 202.322 131.783 202.322 131.34V131.211C202.322 130.767 201.963 130.407 201.519 130.407H199.557C199.113 130.407 198.754 130.767 198.754 131.211V131.34C198.754 131.783 199.113 132.143 199.557 132.143Z" fill="#E0E0E0"/>
<path d="M192.252 134.751H194.214C194.658 134.751 195.018 134.392 195.018 133.948V133.819C195.018 133.375 194.658 133.016 194.214 133.016H192.252C191.809 133.016 191.449 133.375 191.449 133.819V133.948C191.449 134.392 191.809 134.751 192.252 134.751Z" fill="#E0E0E0"/>
<path d="M184.993 129.849H186.955C187.398 129.849 187.758 129.489 187.758 129.046V128.916C187.758 128.473 187.398 128.113 186.955 128.113H184.993C184.549 128.113 184.189 128.473 184.189 128.916V129.046C184.189 129.489 184.549 129.849 184.993 129.849Z" fill="#E0E0E0"/>
<path d="M177.799 126.996H179.761C180.205 126.996 180.564 126.636 180.564 126.193V126.063C180.564 125.62 180.205 125.26 179.761 125.26H177.799C177.356 125.26 176.996 125.62 176.996 126.063V126.193C176.996 126.636 177.356 126.996 177.799 126.996Z" fill="#E0E0E0"/>
<path d="M170.596 123.728H172.558C173.002 123.728 173.361 123.368 173.361 122.925V122.795C173.361 122.352 173.002 121.992 172.558 121.992H170.596C170.153 121.992 169.793 122.352 169.793 122.795V122.925C169.793 123.368 170.153 123.728 170.596 123.728Z" fill="#E0E0E0"/>
<path d="M163.383 118.913H165.345C165.789 118.913 166.148 118.553 166.148 118.11V117.98C166.148 117.537 165.789 117.177 165.345 117.177H163.383C162.94 117.177 162.58 117.537 162.58 117.98V118.11C162.58 118.553 162.94 118.913 163.383 118.913Z" fill="#E0E0E0"/>
<path d="M156.243 112.551H158.205C158.648 112.551 159.008 112.192 159.008 111.748V111.619C159.008 111.175 158.648 110.816 158.205 110.816H156.243C155.799 110.816 155.439 111.175 155.439 111.619V111.748C155.439 112.192 155.799 112.551 156.243 112.551Z" fill="#E0E0E0"/>
<path d="M174.703 156.144H152.836C152.476 156.144 152.131 156.001 151.876 155.746C151.622 155.492 151.479 155.146 151.479 154.786C151.479 154.426 151.622 154.081 151.876 153.827C152.131 153.572 152.476 153.429 152.836 153.429H174.703C175.063 153.429 175.408 153.572 175.663 153.827C175.917 154.081 176.06 154.426 176.06 154.786C176.06 155.146 175.917 155.492 175.663 155.746C175.408 156.001 175.063 156.144 174.703 156.144Z" fill="#E0E0E0"/>
<path d="M88.6635 158.692H66.8006C66.4406 158.692 66.0954 158.549 65.8409 158.294C65.5864 158.04 65.4434 157.694 65.4434 157.334C65.4428 157.156 65.4774 156.979 65.5453 156.814C65.6133 156.648 65.7132 156.498 65.8392 156.372C65.9653 156.245 66.1152 156.145 66.2801 156.076C66.4451 156.008 66.6219 155.973 66.8006 155.973H88.6635C89.0228 155.979 89.3657 156.124 89.6198 156.378C89.874 156.632 90.0193 156.975 90.0253 157.334C90.0182 157.693 89.8723 158.035 89.6183 158.288C89.3643 158.541 89.022 158.686 88.6635 158.692Z" fill="#E0E0E0"/>
<path d="M126.883 143.601C126.883 143.647 113.431 143.689 96.849 143.689C80.2671 143.689 66.8105 143.647 66.8105 143.601C66.8105 143.555 80.2533 143.513 96.849 143.513C113.445 143.513 126.883 143.559 126.883 143.601Z" fill="#E0E0E0"/>
<path d="M126.883 138.421C126.883 138.472 113.431 138.514 96.849 138.514C80.2671 138.514 66.8105 138.472 66.8105 138.421C66.8105 138.371 80.2533 138.334 96.849 138.334C113.445 138.334 126.883 138.375 126.883 138.421Z" fill="#E0E0E0"/>
<path d="M126.883 133.237C126.883 133.288 113.431 133.325 96.849 133.325C80.2671 133.325 66.8105 133.288 66.8105 133.237C66.8105 133.186 80.2533 133.149 96.849 133.149C113.445 133.149 126.883 133.186 126.883 133.237Z" fill="#E0E0E0"/>
<path d="M126.883 128.053C126.883 128.099 113.431 128.141 96.849 128.141C80.2671 128.141 66.8105 128.099 66.8105 128.053C66.8105 128.007 80.2533 127.961 96.849 127.961C113.445 127.961 126.883 128.002 126.883 128.053Z" fill="#E0E0E0"/>
<path d="M122.651 143.416C121.483 140.591 120.679 137.503 119.779 134.576C118.999 132.032 118.925 130.841 118.256 128.685C117.199 125.297 114.401 124.923 112.37 125.842C110.56 126.659 109.776 128.792 109.176 130.707C108.455 132.997 107.741 135.294 107.034 137.6C106.744 138.701 106.301 139.756 105.718 140.734C105.426 141.219 105.035 141.637 104.57 141.961C104.106 142.285 103.578 142.507 103.022 142.613C101.176 142.853 99.5413 141.316 98.7566 139.617C97.9718 137.918 97.7548 135.998 97.0531 134.257C96.3515 132.517 94.9065 130.855 93.0508 130.818C90.7703 130.777 89.2239 133.103 88.2729 135.208C87.0796 137.861 86.1174 140.612 85.3969 143.43C85.2052 144.403 84.8838 145.345 84.4413 146.232C84.219 146.671 83.8992 147.054 83.5063 147.351C83.1135 147.648 82.658 147.851 82.1747 147.945C80.9237 148.102 79.7604 147.206 79.031 146.163C78.3016 145.12 77.8538 143.892 77.1106 142.862C76.3674 141.833 75.1625 140.974 73.9207 141.191C72.8036 141.385 72.005 142.364 71.3448 143.296C69.5583 145.823 68.0127 148.513 66.7285 151.328H128.864C125.988 150.322 123.823 146.241 122.651 143.416Z" fill="#FFD95B"/>
<path d="M126.158 151.31H125.931H125.276H122.751L113.477 151.338L82.8611 151.366H66.6348V151.283C66.6348 143.319 66.6348 136.533 66.6671 131.732C66.6671 129.341 66.6671 127.439 66.6902 126.133C66.6902 125.487 66.6902 124.988 66.6902 124.646V124.263V124.674C66.6902 125.016 66.6902 125.514 66.6902 126.161C66.6902 127.467 66.6902 129.369 66.7132 131.76C66.7132 136.561 66.7132 143.347 66.7456 151.31L66.6625 151.227H82.8196L113.435 151.25L122.709 151.278H125.234H125.89C125.98 151.283 126.069 151.294 126.158 151.31Z" fill="#263238"/>
<g opacity="0.3">
<path d="M118.859 130.966L96.8066 151.31H107.83L121.107 139.017L118.859 130.966Z" fill="white"/>
</g>
<g opacity="0.3">
<path d="M99.4288 140.748L87.2971 151.31H84.1719L98.5009 139.022L99.7473 141.136" fill="white"/>
</g>
<path d="M66.7129 151.31C67.3165 149.92 67.9993 148.565 68.7579 147.252C69.6305 145.703 70.5939 144.206 71.6431 142.77C71.9631 142.332 72.344 141.942 72.7741 141.611C73.2433 141.255 73.8196 141.07 74.4083 141.085C75.0273 141.134 75.6175 141.367 76.1025 141.754C76.6173 142.147 77.0542 142.632 77.3904 143.185C78.106 144.284 78.5676 145.614 79.514 146.671C79.9871 147.212 80.6055 147.606 81.2959 147.806C81.6496 147.89 82.0177 147.89 82.3715 147.806C82.7323 147.723 83.0719 147.566 83.3686 147.345C83.9677 146.86 84.424 146.222 84.6889 145.498C84.9618 144.744 85.1869 143.973 85.3628 143.19C85.7826 141.556 86.2865 139.944 86.8724 138.361C87.1724 137.549 87.5002 136.736 87.8464 135.924C88.1872 135.091 88.5915 134.285 89.0559 133.514C89.5305 132.712 90.1579 132.011 90.9024 131.451C91.2865 131.168 91.7203 130.96 92.1811 130.837C92.6482 130.721 93.1346 130.707 93.6076 130.795C94.5594 131.017 95.4066 131.558 96.0081 132.328C96.6316 133.084 97.1019 133.954 97.393 134.89C97.7069 135.813 97.9192 136.773 98.1916 137.72C98.4287 138.673 98.8118 139.584 99.3272 140.42C99.8479 141.251 100.603 141.91 101.497 142.313C101.938 142.497 102.417 142.572 102.893 142.533C103.369 142.493 103.829 142.34 104.234 142.087C105.039 141.573 105.68 140.839 106.081 139.972C106.476 139.113 106.803 138.224 107.06 137.313C107.623 135.522 108.175 133.762 108.717 132.032C108.994 131.169 109.243 130.311 109.548 129.475C109.837 128.639 110.244 127.85 110.757 127.13C111.269 126.418 111.993 125.886 112.825 125.611C113.229 125.476 113.647 125.392 114.072 125.362C114.492 125.337 114.913 125.372 115.323 125.468C116.128 125.67 116.846 126.129 117.368 126.774C117.856 127.399 118.215 128.115 118.425 128.879C118.887 130.357 119.127 131.825 119.491 133.2C119.671 133.888 119.879 134.553 120.073 135.213L120.641 137.138C121.263 139.404 122.018 141.631 122.903 143.809C123.579 145.441 124.442 146.99 125.474 148.425C126.12 149.342 126.923 150.138 127.847 150.775C128.093 150.931 128.35 151.066 128.618 151.181C128.802 151.259 128.89 151.306 128.89 151.306L128.613 151.199C128.342 151.09 128.079 150.958 127.828 150.807C126.892 150.177 126.076 149.384 125.419 148.467C124.374 147.025 123.5 145.466 122.815 143.822C121.91 141.647 121.14 139.417 120.507 137.147C120.318 136.524 120.128 135.882 119.93 135.227C119.731 134.571 119.524 133.902 119.344 133.21C118.97 131.825 118.72 130.361 118.268 128.898C118.06 128.154 117.709 127.458 117.234 126.848C116.73 126.23 116.041 125.79 115.267 125.593C114.872 125.505 114.467 125.472 114.063 125.496C113.652 125.525 113.247 125.607 112.858 125.74C112.057 126.007 111.361 126.519 110.868 127.204C110.365 127.912 109.967 128.69 109.686 129.512C109.382 130.338 109.137 131.201 108.86 132.065L107.203 137.35C106.946 138.267 106.617 139.163 106.219 140.028C105.806 140.925 105.147 141.685 104.317 142.221C103.889 142.484 103.405 142.642 102.905 142.682C102.399 142.721 101.892 142.64 101.423 142.447C100.494 142.033 99.7101 141.351 99.1703 140.49C98.6429 139.632 98.252 138.697 98.0116 137.72C97.7392 136.769 97.5499 135.813 97.2176 134.899C96.935 133.986 96.4806 133.135 95.8788 132.392C95.3007 131.652 94.4859 131.132 93.5707 130.92C93.1224 130.835 92.6611 130.848 92.2181 130.957C91.7787 131.074 91.3653 131.273 90.9994 131.543C90.2796 132.091 89.6742 132.775 89.2175 133.556C88.7562 134.319 88.3549 135.117 88.0172 135.942C87.671 136.755 87.3432 137.563 87.0432 138.375C86.4573 139.95 85.9519 141.554 85.529 143.181C85.3496 143.971 85.1214 144.75 84.8458 145.512C84.5681 146.264 84.089 146.925 83.4609 147.423C83.1502 147.665 82.7913 147.836 82.4084 147.926C82.0318 148.014 81.6401 148.014 81.2635 147.926C80.5481 147.716 79.9076 147.306 79.417 146.745C78.4476 145.655 77.9952 144.321 77.2889 143.232C76.961 142.697 76.5368 142.227 76.0379 141.847C75.5682 141.477 74.9997 141.253 74.4037 141.205C73.84 141.185 73.2868 141.361 72.8387 141.704C72.4126 142.023 72.0361 142.405 71.7216 142.835C70.6705 144.265 69.6996 145.752 68.8133 147.289C68.0839 148.559 67.5715 149.57 67.2299 150.258L66.8468 151.047C66.7637 151.218 66.7129 151.31 66.7129 151.31Z" fill="#263238"/>
<path d="M67.3578 169.425C67.3434 168.183 67.697 166.966 68.3741 165.925C69.0511 164.885 70.0212 164.068 71.1619 163.578C72.3027 163.089 73.5629 162.948 74.7836 163.174C76.0042 163.4 77.1306 163.982 78.0205 164.848C78.9105 165.713 79.5241 166.823 79.7839 168.037C80.0437 169.251 79.9381 170.514 79.4804 171.668C79.0227 172.822 78.2334 173.815 77.2121 174.52C76.1909 175.226 74.9834 175.614 73.7422 175.634C72.0729 175.655 70.4634 175.013 69.2666 173.849C68.0698 172.685 67.3834 171.094 67.3578 169.425ZM76.6459 169.277C76.634 168.683 76.4465 168.107 76.107 167.619C75.7676 167.132 75.2915 166.757 74.7388 166.54C74.186 166.323 73.5815 166.275 73.0013 166.401C72.4212 166.527 71.8915 166.823 71.4791 167.25C71.0668 167.677 70.7902 168.217 70.6842 168.801C70.5783 169.385 70.6478 169.988 70.884 170.533C71.1202 171.077 71.5125 171.54 72.0113 171.862C72.5101 172.184 73.0931 172.351 73.6868 172.342C74.4855 172.328 75.2458 171.997 75.8006 171.422C76.3555 170.847 76.6595 170.076 76.6459 169.277Z" fill="#F5F5F5"/>
<path d="M67.3583 169.425C67.3299 167.755 67.9647 166.143 69.1234 164.941C70.2822 163.739 71.8703 163.045 73.5396 163.012L73.595 166.309C72.8141 166.349 72.0793 166.69 71.5451 167.261C71.0109 167.832 70.7191 168.588 70.7311 169.37C70.743 170.152 71.0578 170.898 71.6092 171.453C72.1606 172.007 72.9056 172.326 73.6873 172.342L73.7427 175.633C72.0734 175.654 70.4639 175.013 69.2671 173.849C68.0703 172.685 67.3839 171.094 67.3583 169.425Z" fill="#455A64"/>
<path d="M76.6465 169.277V169.452C76.6546 169.531 76.6546 169.609 76.6465 169.688C76.639 169.794 76.622 169.899 76.5957 170.002C76.5335 170.288 76.4276 170.564 76.2818 170.819C75.9377 171.437 75.387 171.915 74.7261 172.168C74.0653 172.421 73.3364 172.434 72.6672 172.204C72.5302 172.158 72.3974 172.101 72.2702 172.033C72.1372 171.966 72.0105 171.887 71.8917 171.797C71.7685 171.71 71.6513 171.614 71.5408 171.511C71.4309 171.402 71.3291 171.285 71.2361 171.16C71.0392 170.91 70.8833 170.629 70.7745 170.329C70.6711 170.019 70.6136 169.696 70.6037 169.369C70.6002 169.042 70.6469 168.717 70.7422 168.404C70.8367 168.1 70.9801 167.813 71.1669 167.555C71.2547 167.428 71.352 167.307 71.4577 167.195C71.565 167.088 71.6791 166.987 71.7993 166.895C71.9166 166.805 72.04 166.723 72.1686 166.65C72.2954 166.582 72.4265 166.522 72.561 166.47C73.0694 166.274 73.6215 166.22 74.1583 166.313C74.6248 166.393 75.0651 166.585 75.4416 166.872C75.9967 167.277 76.3933 167.863 76.5634 168.529C76.5937 168.632 76.6153 168.737 76.628 168.843C76.628 168.931 76.628 169.009 76.628 169.074C76.6253 169.121 76.6253 169.169 76.628 169.217V169.268C76.628 169.268 76.628 169.268 76.628 169.217V169.074C76.6242 168.996 76.6134 168.919 76.5957 168.843C76.5813 168.74 76.5581 168.638 76.5264 168.538C76.4522 168.259 76.3354 167.993 76.1802 167.749C75.9799 167.423 75.7181 167.139 75.4093 166.913C75.0364 166.639 74.6051 166.454 74.149 166.373C73.6239 166.286 73.0849 166.342 72.5887 166.535C72.4565 166.583 72.3283 166.641 72.2056 166.71C72.0799 166.783 71.9596 166.865 71.8455 166.955C71.7283 167.044 71.6172 167.141 71.5131 167.246C71.4129 167.357 71.3189 167.474 71.2315 167.597C71.052 167.849 70.9133 168.128 70.8207 168.423C70.7301 168.722 70.6834 169.033 70.6822 169.346C70.6972 169.977 70.9086 170.587 71.2869 171.091C71.3779 171.211 71.4766 171.325 71.5824 171.433C71.6899 171.534 71.804 171.628 71.924 171.714C72.0406 171.799 72.1624 171.876 72.2887 171.945C72.4157 172.009 72.5467 172.065 72.681 172.111C73.1492 172.277 73.6515 172.321 74.1414 172.24C74.6313 172.16 75.0929 171.957 75.4832 171.65C75.7845 171.413 76.0383 171.122 76.231 170.791C76.3785 170.542 76.486 170.271 76.5495 169.988C76.5785 169.887 76.5986 169.783 76.6095 169.678C76.6173 169.602 76.6173 169.524 76.6095 169.448V169.305C76.6419 169.291 76.6419 169.277 76.6465 169.277Z" fill="#263238"/>
<path d="M67.359 169.425C67.3622 169.458 67.3622 169.492 67.359 169.526C67.359 169.595 67.359 169.697 67.359 169.826C67.359 169.955 67.359 169.965 67.359 170.043C67.359 170.122 67.3867 170.214 67.4006 170.306C67.4144 170.399 67.4375 170.505 67.456 170.611C67.4776 170.727 67.5069 170.841 67.5437 170.953C67.6967 171.54 67.9396 172.101 68.2638 172.614C68.686 173.298 69.2343 173.895 69.8795 174.373L70.1519 174.567C70.2488 174.632 70.3504 174.687 70.452 174.747C70.5535 174.807 70.6505 174.872 70.7566 174.918L71.0844 175.07L71.2506 175.149L71.426 175.209L71.7815 175.333C71.9015 175.37 72.0261 175.393 72.1508 175.426C72.2748 175.461 72.4014 175.487 72.5293 175.504C72.792 175.549 73.0572 175.576 73.3233 175.587C73.4572 175.587 73.5957 175.587 73.7295 175.587L74.145 175.56H74.3528L74.5605 175.523C74.699 175.495 74.8421 175.481 74.9806 175.449C75.2628 175.379 75.5403 175.291 75.8115 175.186C76.0892 175.08 76.3591 174.955 76.6194 174.812C76.7486 174.738 76.8779 174.65 77.0071 174.572C77.1361 174.491 77.2595 174.401 77.3764 174.304C77.6237 174.115 77.8567 173.909 78.0735 173.685C78.1797 173.57 78.2812 173.45 78.3874 173.33L78.4659 173.242L78.5351 173.145L78.6736 172.951L78.8121 172.753L78.9368 172.545L79.0568 172.337L79.1214 172.231L79.1722 172.12C79.2368 171.973 79.3061 171.825 79.3753 171.659L79.5369 171.197C79.7315 170.555 79.8295 169.888 79.8277 169.217C79.8109 168.547 79.691 167.884 79.4723 167.25C79.4169 167.098 79.3568 166.941 79.2968 166.789C79.2368 166.636 79.1491 166.498 79.0799 166.35L79.0245 166.244L78.9598 166.138L78.8306 165.935L78.7013 165.731L78.5536 165.538L78.4105 165.348L78.3366 165.256L78.2582 165.168L77.935 164.822C77.709 164.607 77.4684 164.408 77.2149 164.227C77.0957 164.132 76.9691 164.047 76.8363 163.973L76.4439 163.742C76.1776 163.609 75.9032 163.494 75.6222 163.396C75.349 163.3 75.0699 163.221 74.7867 163.16C74.6436 163.132 74.5005 163.123 74.362 163.1L74.1542 163.072H73.9465H73.531C73.3926 163.072 73.2587 163.072 73.1202 163.096C72.8549 163.112 72.5911 163.148 72.3308 163.202C72.2041 163.223 72.0791 163.254 71.9569 163.294C71.8322 163.331 71.7076 163.359 71.5876 163.4L71.2367 163.534L71.0659 163.599L70.8997 163.682L70.5812 163.843C70.4704 163.899 70.3781 163.968 70.2765 164.028C70.175 164.088 70.078 164.148 69.9857 164.213C69.8934 164.277 69.8057 164.351 69.718 164.42C69.0882 164.918 68.56 165.533 68.1623 166.23C67.8544 166.753 67.6287 167.319 67.4929 167.91C67.4652 168.035 67.4283 168.146 67.4144 168.257C67.4006 168.367 67.3867 168.469 67.3729 168.561C67.359 168.654 67.3452 168.746 67.3359 168.824V169.046C67.3359 169.175 67.3359 169.277 67.3359 169.346C67.3359 169.415 67.3359 169.448 67.3359 169.448V169.346C67.3359 169.277 67.3359 169.175 67.3359 169.046C67.3359 168.917 67.3359 168.908 67.3359 168.824C67.3359 168.741 67.3359 168.654 67.3683 168.561C67.4006 168.469 67.3913 168.363 67.4052 168.252C67.419 168.141 67.456 168.026 67.479 167.906C67.6128 167.31 67.8353 166.737 68.1392 166.207C68.5377 165.497 69.069 164.87 69.7041 164.36L69.9719 164.153L70.2627 163.963C70.3643 163.903 70.4612 163.83 70.5674 163.779L70.8951 163.613L71.0567 163.529L71.2321 163.46L71.5876 163.326C71.703 163.28 71.8322 163.253 71.9569 163.216C72.0806 163.176 72.2072 163.145 72.3354 163.123C72.5983 163.065 72.8653 163.028 73.134 163.012C73.2725 163.012 73.411 163.012 73.5495 163.012H73.965C74.0388 163.012 74.1081 163.012 74.1773 163.012L74.3897 163.04C74.5328 163.063 74.6759 163.077 74.819 163.105C75.1056 163.164 75.3879 163.243 75.6638 163.34C75.9493 163.436 76.2271 163.553 76.4947 163.691C76.6286 163.76 76.7625 163.843 76.8963 163.922C77.0307 163.998 77.1588 164.084 77.2795 164.18C77.5357 164.362 77.7779 164.563 78.0043 164.781C78.1151 164.896 78.2258 165.011 78.332 165.131L78.4151 165.219L78.489 165.311L78.6367 165.505L78.7844 165.699L78.9183 165.902L79.0476 166.115L79.1122 166.216L79.1676 166.327L79.3892 166.789L79.5692 167.25C80.0212 168.541 80.0438 169.943 79.6338 171.248L79.4676 171.71L79.2599 172.171L79.2091 172.282L79.1491 172.388L79.0245 172.601L78.8998 172.813L78.7567 173.011L78.6136 173.205L78.5444 173.302L78.4659 173.395L78.152 173.755C77.9284 173.977 77.691 174.185 77.4411 174.378C77.3234 174.478 77.1984 174.569 77.0671 174.65C76.9333 174.729 76.8086 174.816 76.6748 174.89C76.4124 175.037 76.1393 175.164 75.8577 175.269C75.5841 175.376 75.3033 175.464 75.0175 175.532C74.8744 175.564 74.7313 175.583 74.5928 175.606L74.3805 175.643C74.3097 175.647 74.2388 175.647 74.1681 175.643L73.7526 175.67C73.6141 175.67 73.4756 175.67 73.3372 175.67C73.0695 175.659 72.8028 175.631 72.5385 175.587C72.4093 175.567 72.2813 175.539 72.1554 175.504C72.0261 175.472 71.9015 175.449 71.7815 175.407L71.4214 175.283L71.246 175.218L71.0798 175.144L70.7474 174.987C70.6412 174.936 70.5397 174.867 70.4381 174.812C70.3365 174.756 70.235 174.696 70.138 174.632L69.8657 174.433C69.2144 173.949 68.6627 173.344 68.2407 172.651C67.9205 172.132 67.6808 171.567 67.5298 170.976C67.5021 170.856 67.4606 170.745 67.4467 170.634C67.4329 170.523 67.4098 170.422 67.396 170.325C67.3821 170.228 67.3636 170.14 67.3544 170.062V169.84V169.54C67.359 169.452 67.359 169.425 67.359 169.425Z" fill="#263238"/>
<path d="M96.7056 163.599C97.9471 163.585 99.165 163.938 100.206 164.616C101.246 165.293 102.063 166.263 102.552 167.404C103.042 168.545 103.183 169.806 102.956 171.026C102.73 172.247 102.147 173.374 101.281 174.263C100.415 175.153 99.305 175.766 98.0908 176.026C96.8766 176.285 95.6128 176.179 94.4589 175.72C93.3051 175.262 92.3129 174.472 91.6077 173.45C90.9025 172.428 90.5158 171.22 90.4966 169.979C90.4756 168.31 91.1176 166.701 92.2817 165.505C93.4457 164.309 95.0367 163.623 96.7056 163.599ZM96.8533 172.882C97.4471 172.871 98.0241 172.683 98.5113 172.343C98.9986 172.004 99.3743 171.527 99.5909 170.974C99.8076 170.421 99.8556 169.816 99.7288 169.236C99.6019 168.656 99.306 168.126 98.8784 167.714C98.4508 167.302 97.9106 167.026 97.3261 166.92C96.7415 166.815 96.1389 166.885 95.5942 167.122C95.0496 167.359 94.5873 167.752 94.2659 168.251C93.9444 168.751 93.7781 169.334 93.788 169.928C93.7958 170.325 93.882 170.717 94.0416 171.08C94.2012 171.444 94.4311 171.773 94.7181 172.047C95.0051 172.322 95.3435 172.537 95.7139 172.68C96.0843 172.824 96.4793 172.892 96.8764 172.882H96.8533Z" fill="#F5F5F5"/>
<path d="M96.7056 163.599C98.3737 163.57 99.985 164.205 101.186 165.363C102.387 166.52 103.08 168.107 103.113 169.775L99.8216 169.831C99.7811 169.05 99.4392 168.315 98.8678 167.781C98.2963 167.247 97.54 166.956 96.758 166.968C95.9761 166.981 95.2295 167.296 94.6755 167.848C94.1215 168.4 93.8034 169.146 93.788 169.928L90.4966 169.979C90.4756 168.31 91.1176 166.701 92.2817 165.505C93.4457 164.309 95.0367 163.623 96.7056 163.599Z" fill="#FFD95B"/>
<path d="M90.4902 169.914C90.489 168.245 91.1497 166.643 92.3274 165.46C93.5051 164.277 95.1038 163.609 96.7731 163.603V166.895C95.9934 166.925 95.2558 167.256 94.7149 167.819C94.1741 168.381 93.872 169.131 93.872 169.911C93.872 170.692 94.1741 171.442 94.7149 172.004C95.2558 172.567 95.9934 172.898 96.7731 172.928V176.224C95.1038 176.218 93.5051 175.55 92.3274 174.368C91.1497 173.185 90.489 171.583 90.4902 169.914Z" fill="#FFD95B"/>
<path d="M96.8755 172.882H96.6816C96.6048 172.888 96.5277 172.888 96.4508 172.882C96.3451 172.871 96.2402 172.852 96.1369 172.827C95.8509 172.764 95.5756 172.66 95.3198 172.517C94.9803 172.326 94.6809 172.07 94.4381 171.765C94.1398 171.397 93.934 170.964 93.838 170.5C93.7272 169.966 93.7639 169.413 93.9442 168.898C93.9917 168.763 94.0471 168.63 94.1104 168.501C94.18 168.37 94.2587 168.243 94.3458 168.123C94.4349 167.999 94.532 167.882 94.6366 167.772C94.7466 167.664 94.8622 167.563 94.9828 167.467C95.2346 167.269 95.5168 167.113 95.8184 167.006C96.1283 166.902 96.4519 166.844 96.7786 166.835C97.1056 166.833 97.4309 166.882 97.7434 166.978C98.0461 167.071 98.3315 167.213 98.5882 167.398C98.7151 167.486 98.8354 167.583 98.9483 167.689C99.0557 167.796 99.1559 167.91 99.2483 168.03C99.3398 168.148 99.4231 168.271 99.4976 168.4C99.5661 168.528 99.6262 168.661 99.6776 168.797C99.8718 169.306 99.926 169.857 99.8346 170.394C99.7488 170.859 99.5577 171.298 99.276 171.677C99.0424 171.989 98.7508 172.252 98.4174 172.453C98.1688 172.606 97.8978 172.72 97.6141 172.79C97.5115 172.82 97.4065 172.842 97.3002 172.854C97.2239 172.867 97.1468 172.875 97.0694 172.878H96.8755H96.9263H97.0648C97.1423 172.874 97.2194 172.865 97.2956 172.85C97.4 172.833 97.5033 172.81 97.6049 172.781C97.8835 172.704 98.1494 172.588 98.3943 172.434C98.7183 172.23 99.0016 171.967 99.2299 171.659C99.5058 171.287 99.6894 170.855 99.7654 170.399C99.8541 169.874 99.7999 169.335 99.6084 168.838C99.556 168.707 99.4959 168.579 99.4284 168.455C99.3554 168.321 99.2737 168.191 99.1837 168.067C99.0927 167.952 98.994 167.842 98.8882 167.74C98.5561 167.42 98.1549 167.182 97.7157 167.042C97.4166 166.951 97.1052 166.906 96.7924 166.909C96.1621 166.92 95.5513 167.13 95.0475 167.509C94.9273 167.6 94.8132 167.698 94.7059 167.804C94.6043 167.911 94.5102 168.026 94.4243 168.146C94.3398 168.262 94.2627 168.384 94.1934 168.51C94.1303 168.638 94.0748 168.769 94.0273 168.903C93.8622 169.372 93.818 169.875 93.8987 170.365C93.9794 170.856 94.1824 171.318 94.4889 171.71C94.7253 172.01 95.0167 172.262 95.3475 172.453C95.5963 172.599 95.8654 172.708 96.1462 172.776C96.2494 172.803 96.3542 172.823 96.4601 172.836C96.5478 172.836 96.6263 172.836 96.6909 172.836H96.8294L96.8755 172.882Z" fill="#263238"/>
<path d="M96.7063 163.599H96.6047L96.3047 163.622H96.0831L95.82 163.663L95.5153 163.719C95.3996 163.741 95.2855 163.77 95.1737 163.807C94.5881 163.962 94.0293 164.204 93.5164 164.527C92.8321 164.948 92.235 165.496 91.7576 166.142L91.5591 166.419C91.4991 166.512 91.4437 166.613 91.3837 166.715C91.3237 166.816 91.259 166.913 91.2082 167.024C91.1575 167.135 91.1113 167.241 91.0559 167.347L90.982 167.514L90.922 167.689L90.7974 168.044C90.7605 168.164 90.7374 168.289 90.7051 168.414C90.6703 168.538 90.6426 168.665 90.622 168.792C90.5771 169.055 90.5509 169.32 90.5435 169.586C90.5435 169.72 90.5435 169.859 90.5435 169.997L90.5712 170.408C90.5668 170.479 90.5668 170.55 90.5712 170.62L90.6081 170.828C90.6312 170.967 90.6497 171.105 90.682 171.244C90.7499 171.526 90.8363 171.803 90.9405 172.074C91.0472 172.352 91.1721 172.622 91.3144 172.882C91.3929 173.016 91.476 173.141 91.5591 173.27C91.6384 173.4 91.728 173.524 91.8268 173.639C92.0139 173.887 92.2192 174.12 92.4408 174.336L92.7963 174.65L92.8886 174.729L92.9855 174.798L93.1794 174.937L93.3733 175.08L93.581 175.2L93.7934 175.324L93.8949 175.384L94.0057 175.435L94.4674 175.638L94.929 175.8C96.2164 176.208 97.6016 176.187 98.876 175.74L99.3376 175.56L99.7761 175.343L99.8869 175.287L99.9885 175.223L100.196 175.094L100.399 174.964L100.589 174.821L100.778 174.673L100.875 174.6L100.963 174.521L101.309 174.198C101.522 173.972 101.72 173.731 101.9 173.478C101.995 173.358 102.082 173.232 102.158 173.099C102.232 172.97 102.315 172.841 102.384 172.707C102.518 172.441 102.636 172.166 102.735 171.885C102.83 171.612 102.907 171.333 102.966 171.05C102.994 170.907 103.008 170.768 103.031 170.625L103.058 170.417C103.058 170.348 103.058 170.279 103.058 170.209V169.794C103.058 169.655 103.058 169.522 103.058 169.388C103.04 169.123 103.005 168.859 102.952 168.598C102.952 168.464 102.888 168.344 102.86 168.22C102.832 168.095 102.795 167.971 102.754 167.851L102.615 167.504L102.551 167.329L102.467 167.167C102.412 167.056 102.361 166.95 102.306 166.844C102.25 166.738 102.186 166.641 102.126 166.539C102.066 166.438 102.001 166.346 101.937 166.253L101.729 165.986C101.233 165.355 100.62 164.825 99.9239 164.425C99.3988 164.119 98.8308 163.894 98.2389 163.756C98.1189 163.733 98.0081 163.691 97.8973 163.682L97.588 163.636C97.4957 163.636 97.408 163.608 97.3249 163.603H97.1033H96.8079H97.3387C97.4218 163.603 97.5095 163.627 97.6065 163.636L97.9158 163.677C98.0326 163.695 98.1483 163.719 98.262 163.751C98.8571 163.881 99.4286 164.102 99.9562 164.407C100.668 164.803 101.295 165.334 101.803 165.972C101.872 166.059 101.941 166.152 102.015 166.239C102.089 166.327 102.14 166.433 102.204 166.535C102.269 166.636 102.334 166.729 102.389 166.835L102.555 167.163L102.638 167.329C102.638 167.384 102.68 167.444 102.703 167.5L102.841 167.855C102.883 167.975 102.911 168.1 102.948 168.224C102.99 168.349 103.022 168.478 103.044 168.608C103.098 168.871 103.136 169.138 103.155 169.406C103.155 169.54 103.155 169.679 103.155 169.817V170.237C103.155 170.306 103.155 170.376 103.155 170.445L103.128 170.657C103.128 170.8 103.095 170.943 103.068 171.087C103.007 171.374 102.928 171.658 102.832 171.936C102.732 172.22 102.615 172.497 102.481 172.767C102.407 172.901 102.329 173.03 102.251 173.164C102.173 173.297 102.087 173.425 101.992 173.547C101.809 173.804 101.608 174.047 101.392 174.276L101.041 174.604L100.953 174.683L100.856 174.757L100.667 174.904L100.473 175.057L100.265 175.186L100.058 175.315L99.9516 175.38L99.8454 175.435L99.3838 175.657L98.9221 175.837C98.2789 176.055 97.6068 176.176 96.9279 176.197C96.2492 176.197 95.5741 176.098 94.9244 175.901L94.4628 175.735L94.0011 175.527L93.8903 175.477L93.7842 175.417L93.5718 175.292L93.3641 175.167L93.1656 175.024L92.9671 174.886L92.8701 174.812L92.7778 174.733L92.4223 174.42C92.1972 174.199 91.9875 173.963 91.7945 173.713C91.6955 173.594 91.606 173.468 91.5268 173.335C91.4437 173.205 91.3606 173.076 91.2821 172.947C91.1399 172.681 91.0135 172.406 90.9036 172.125C90.7979 171.852 90.7115 171.571 90.6451 171.285C90.6127 171.142 90.5943 170.999 90.5666 170.86L90.5296 170.648C90.5296 170.579 90.5296 170.51 90.5296 170.44L90.502 170.02C90.502 169.882 90.502 169.743 90.502 169.609C90.5083 169.34 90.5361 169.071 90.585 168.806C90.6029 168.676 90.6307 168.548 90.6681 168.423C90.7005 168.298 90.7235 168.169 90.7605 168.049C90.7974 167.929 90.8482 167.809 90.8897 167.689L90.9497 167.514L91.0282 167.347L91.1806 167.015C91.2313 166.909 91.3006 166.812 91.3606 166.706C91.4206 166.599 91.476 166.503 91.5406 166.41L91.7391 166.133C92.2232 165.483 92.8283 164.933 93.521 164.513C94.0382 164.19 94.6018 163.949 95.1921 163.797C95.3168 163.77 95.4276 163.728 95.5384 163.714L95.8477 163.663L96.1108 163.622H96.3324H96.6278L96.7063 163.599Z" fill="#263238"/>
<path d="M114.829 168.991C114.814 167.749 115.168 166.532 115.845 165.491C116.522 164.451 117.492 163.634 118.633 163.144C119.773 162.655 121.034 162.514 122.254 162.74C123.475 162.966 124.601 163.548 125.491 164.414C126.381 165.279 126.995 166.389 127.255 167.603C127.514 168.817 127.409 170.08 126.951 171.234C126.493 172.388 125.704 173.381 124.683 174.086C123.662 174.792 122.454 175.179 121.213 175.2C119.544 175.221 117.934 174.579 116.737 173.415C115.54 172.251 114.854 170.66 114.829 168.991ZM124.112 168.838C124.1 168.244 123.912 167.667 123.573 167.18C123.233 166.693 122.757 166.317 122.204 166.101C121.651 165.884 121.046 165.836 120.466 165.963C119.885 166.09 119.356 166.386 118.944 166.813C118.531 167.241 118.255 167.781 118.15 168.365C118.044 168.95 118.115 169.553 118.351 170.097C118.588 170.642 118.981 171.104 119.481 171.426C119.98 171.747 120.564 171.913 121.158 171.904C121.554 171.896 121.944 171.811 122.307 171.652C122.67 171.494 122.999 171.265 123.273 170.98C123.548 170.694 123.763 170.357 123.907 169.988C124.051 169.619 124.121 169.225 124.112 168.829V168.838Z" fill="#F5F5F5"/>
<path d="M114.829 168.99C114.801 167.321 115.435 165.709 116.594 164.507C117.753 163.305 119.341 162.611 121.01 162.578L121.061 165.87C120.28 165.91 119.545 166.252 119.011 166.824C118.477 167.395 118.186 168.151 118.198 168.933C118.211 169.715 118.527 170.462 119.079 171.016C119.631 171.57 120.376 171.888 121.158 171.903L121.213 175.199C119.544 175.22 117.935 174.579 116.738 173.415C115.541 172.251 114.855 170.66 114.829 168.99Z" fill="#455A64"/>
<path d="M121.095 162.629C122.764 162.627 124.365 163.287 125.548 164.464C126.732 165.641 127.399 167.239 127.405 168.908H124.114C124.084 168.128 123.752 167.39 123.19 166.849C122.628 166.309 121.878 166.007 121.097 166.007C120.317 166.007 119.567 166.309 119.005 166.849C118.442 167.39 118.111 168.128 118.081 168.908H114.789C114.795 167.24 115.462 165.642 116.644 164.465C117.827 163.288 119.427 162.628 121.095 162.629Z" fill="#F5F5F5"/>
<path d="M124.111 168.829C124.111 168.829 124.111 168.829 124.111 168.88V169.023C124.117 169.1 124.117 169.177 124.111 169.254C124.104 169.361 124.087 169.468 124.061 169.572C123.998 169.858 123.892 170.132 123.747 170.385C123.558 170.725 123.303 171.024 122.999 171.266C122.602 171.586 122.131 171.799 121.63 171.886C121.128 171.974 120.613 171.932 120.132 171.765C119.995 171.717 119.86 171.66 119.73 171.594C119.6 171.525 119.476 171.446 119.356 171.359C119.234 171.27 119.117 171.174 119.006 171.073C118.897 170.962 118.795 170.845 118.701 170.722C118.503 170.47 118.347 170.188 118.239 169.886C118.134 169.578 118.076 169.256 118.069 168.931C118.065 168.602 118.112 168.275 118.207 167.961C118.301 167.658 118.445 167.373 118.632 167.116C118.72 166.989 118.817 166.869 118.923 166.756C119.029 166.648 119.143 166.547 119.264 166.456C119.38 166.365 119.504 166.283 119.633 166.212C119.759 166.14 119.89 166.078 120.026 166.027C120.535 165.832 121.087 165.78 121.623 165.875C122.09 165.955 122.53 166.146 122.906 166.433C123.218 166.665 123.481 166.955 123.682 167.287C123.836 167.538 123.951 167.81 124.024 168.095C124.05 168.197 124.07 168.3 124.084 168.404C124.099 168.482 124.107 168.561 124.107 168.64C124.107 168.695 124.107 168.746 124.107 168.783C124.107 168.82 124.107 168.829 124.107 168.829C124.108 168.814 124.108 168.798 124.107 168.783V168.64C124.101 168.562 124.09 168.485 124.074 168.409C124.059 168.304 124.036 168.201 124.005 168.1C123.93 167.821 123.813 167.555 123.659 167.31C123.436 166.95 123.141 166.64 122.791 166.402C122.441 166.163 122.044 166.001 121.628 165.925C121.103 165.839 120.564 165.893 120.067 166.082C119.935 166.133 119.807 166.193 119.684 166.262C119.56 166.335 119.439 166.416 119.324 166.502C119.208 166.595 119.097 166.693 118.992 166.798C118.889 166.908 118.795 167.025 118.71 167.149C118.528 167.399 118.389 167.679 118.299 167.975C118.208 168.274 118.161 168.585 118.161 168.898C118.174 169.531 118.385 170.143 118.766 170.648C118.855 170.767 118.954 170.88 119.061 170.985C119.167 171.089 119.282 171.185 119.403 171.271C119.518 171.356 119.64 171.432 119.767 171.497C119.893 171.561 120.022 171.617 120.155 171.663C120.657 171.841 121.198 171.879 121.72 171.774C122.174 171.682 122.6 171.482 122.962 171.193C123.255 170.968 123.504 170.691 123.696 170.376C123.841 170.127 123.949 169.857 124.014 169.577C124.041 169.475 124.061 169.372 124.074 169.268C124.09 169.192 124.097 169.114 124.097 169.037V168.894C124.104 168.873 124.108 168.851 124.111 168.829Z" fill="#263238"/>
<path d="M114.83 168.991V169.092C114.83 169.161 114.83 169.258 114.853 169.388V169.609C114.853 169.688 114.885 169.775 114.899 169.872C114.913 169.969 114.932 170.066 114.955 170.177C114.978 170.288 115.01 170.399 115.038 170.519C115.195 171.106 115.439 171.666 115.763 172.18C116.184 172.863 116.732 173.459 117.378 173.935L117.651 174.133C117.748 174.198 117.849 174.253 117.946 174.313C118.043 174.373 118.149 174.433 118.255 174.484L118.583 174.636L118.749 174.71L118.925 174.775L119.28 174.895C119.4 174.936 119.525 174.959 119.65 174.992C119.774 175.025 119.9 175.051 120.028 175.07C120.291 175.115 120.556 175.142 120.822 175.149C120.956 175.149 121.094 175.149 121.228 175.149L121.644 175.121C121.713 175.126 121.782 175.126 121.852 175.121L122.059 175.089C122.198 175.061 122.341 175.043 122.479 175.01C122.762 174.944 123.04 174.857 123.31 174.752C123.587 174.644 123.857 174.519 124.118 174.378L124.501 174.138C124.631 174.056 124.756 173.967 124.875 173.87C125.122 173.68 125.354 173.473 125.572 173.251C125.674 173.131 125.78 173.016 125.886 172.896L125.965 172.804L126.034 172.711L126.172 172.513L126.311 172.319L126.436 172.111L126.556 171.903L126.616 171.797L126.666 171.687L126.874 171.225C126.925 171.068 126.98 170.916 127.036 170.763C127.446 169.476 127.423 168.09 126.971 166.816C126.911 166.659 126.856 166.507 126.796 166.355L126.579 165.916L126.523 165.805L126.459 165.704L126.329 165.501L126.2 165.293L126.052 165.104L125.909 164.914L125.835 164.817L125.752 164.734L125.429 164.388C125.205 164.173 124.966 163.974 124.714 163.793C124.594 163.698 124.468 163.613 124.335 163.539L123.943 163.308C123.677 163.174 123.402 163.058 123.121 162.962C122.846 162.866 122.566 162.787 122.281 162.726C122.142 162.699 121.999 162.685 121.861 162.666L121.653 162.634H121.441H121.03C120.891 162.634 120.753 162.634 120.619 162.657C120.354 162.673 120.09 162.709 119.83 162.763C119.701 162.785 119.575 162.816 119.451 162.855C119.331 162.892 119.206 162.916 119.086 162.962L118.735 163.096L118.565 163.16L118.398 163.243L118.075 163.405C117.969 163.456 117.877 163.529 117.775 163.589C117.674 163.65 117.577 163.71 117.484 163.774L117.217 163.982C116.586 164.48 116.056 165.094 115.656 165.791C115.351 166.315 115.127 166.881 114.992 167.472C114.964 167.592 114.927 167.707 114.913 167.818C114.899 167.929 114.885 168.026 114.872 168.123C114.858 168.22 114.844 168.307 114.835 168.386C114.825 168.464 114.835 168.543 114.835 168.607C114.835 168.672 114.835 168.834 114.835 168.908C114.835 168.981 114.835 169.009 114.835 169.009V168.908C114.835 168.834 114.835 168.737 114.835 168.607C114.835 168.478 114.835 168.464 114.835 168.386C114.835 168.307 114.835 168.215 114.867 168.118C114.899 168.021 114.89 167.92 114.904 167.813C114.918 167.707 114.955 167.587 114.978 167.463C115.111 166.868 115.333 166.296 115.638 165.768C116.034 165.056 116.565 164.429 117.203 163.922L117.471 163.714C117.563 163.645 117.664 163.589 117.761 163.525C117.858 163.46 117.96 163.391 118.066 163.336L118.389 163.174L118.555 163.091L118.731 163.022L119.082 162.883C119.202 162.842 119.331 162.814 119.456 162.777C119.58 162.738 119.706 162.705 119.834 162.68C120.098 162.626 120.364 162.591 120.633 162.574C120.771 162.574 120.905 162.551 121.044 162.551H121.464C121.534 162.546 121.605 162.546 121.676 162.551L121.888 162.579C122.032 162.602 122.175 162.615 122.313 162.643C122.601 162.702 122.885 162.779 123.163 162.874C123.447 162.973 123.724 163.091 123.993 163.225L124.39 163.456C124.526 163.532 124.656 163.618 124.778 163.714C125.032 163.902 125.273 164.107 125.498 164.328L125.826 164.674L125.909 164.762L125.983 164.859L126.131 165.053L126.279 165.242L126.408 165.45L126.542 165.658L126.606 165.764L126.662 165.875L126.883 166.336L127.063 166.798C127.282 167.441 127.402 168.113 127.419 168.792C127.424 169.471 127.324 170.147 127.123 170.796C127.073 170.953 127.017 171.109 126.962 171.257L126.754 171.719L126.703 171.83L126.639 171.936L126.519 172.148L126.394 172.361L126.251 172.554L126.108 172.753L126.039 172.85L125.96 172.942L125.641 173.302C125.421 173.526 125.185 173.734 124.935 173.925C124.818 174.025 124.693 174.116 124.561 174.198C124.427 174.276 124.303 174.364 124.169 174.438C123.906 174.583 123.633 174.709 123.352 174.816C123.077 174.921 122.797 175.009 122.512 175.08C122.369 175.112 122.225 175.13 122.087 175.153L121.875 175.19H121.662L121.247 175.218C121.108 175.218 120.97 175.218 120.831 175.218C120.564 175.211 120.297 175.185 120.033 175.14C119.899 175.14 119.774 175.08 119.645 175.056L119.271 174.959L118.916 174.835L118.74 174.77L118.574 174.692L118.242 174.539C118.131 174.489 118.034 174.419 117.932 174.364L117.632 174.184L117.36 173.981C116.709 173.499 116.157 172.895 115.735 172.204C115.415 171.684 115.176 171.119 115.024 170.528C114.989 170.414 114.961 170.299 114.941 170.182C114.941 170.075 114.904 169.969 114.89 169.877C114.876 169.785 114.858 169.692 114.849 169.614V169.392V169.092C114.83 169.014 114.83 168.991 114.83 168.991Z" fill="#263238"/>
<path d="M239.239 138.095C243.593 136.314 245.679 131.341 243.899 126.988C242.118 122.634 237.146 120.547 232.792 122.328C228.438 124.108 226.351 129.081 228.132 133.435C229.912 137.789 234.885 139.875 239.239 138.095Z" fill="#E0E0E0"/>
<path d="M244.528 130.213C244.477 129.517 244.372 128.826 244.215 128.145C244.021 127.354 243.71 126.596 243.291 125.897C242.284 124.217 240.722 122.941 238.875 122.288C237.028 121.635 235.012 121.646 233.172 122.319C232.41 122.59 231.694 122.976 231.049 123.464C230.36 123.954 229.76 124.557 229.271 125.246C228.213 126.685 227.642 128.425 227.642 130.211C227.642 131.997 228.213 133.737 229.271 135.176C229.76 135.866 230.36 136.468 231.049 136.958C231.694 137.446 232.41 137.832 233.172 138.103C235.012 138.77 237.027 138.778 238.872 138.126C240.718 137.474 242.28 136.201 243.291 134.525C243.71 133.826 244.021 133.068 244.215 132.277C244.371 131.598 244.476 130.908 244.528 130.213C244.533 130.258 244.533 130.303 244.528 130.347C244.528 130.453 244.528 130.587 244.528 130.753C244.53 130.975 244.511 131.196 244.473 131.414C244.442 131.713 244.388 132.009 244.311 132.3C244.122 133.112 243.811 133.89 243.388 134.608C242.769 135.659 241.934 136.566 240.937 137.27C239.941 137.974 238.806 138.457 237.609 138.689C236.094 138.975 234.53 138.851 233.08 138.329C232.295 138.052 231.557 137.656 230.892 137.156C230.18 136.645 229.556 136.022 229.045 135.31C227.954 133.832 227.365 132.043 227.365 130.206C227.365 128.369 227.954 126.581 229.045 125.103C229.306 124.752 229.59 124.419 229.895 124.106C230.201 123.807 230.528 123.529 230.873 123.275C231.539 122.775 232.277 122.38 233.062 122.102C234.512 121.58 236.076 121.456 237.59 121.742C238.787 121.976 239.921 122.46 240.917 123.164C241.913 123.867 242.749 124.773 243.37 125.823C243.793 126.541 244.105 127.319 244.293 128.131C244.37 128.422 244.424 128.719 244.455 129.018C244.493 129.236 244.511 129.457 244.51 129.678C244.51 129.844 244.51 129.978 244.51 130.084C244.52 130.126 244.527 130.17 244.528 130.213Z" fill="#263238"/>
<path d="M234.974 128.829L237.342 130.911V130.098L235.159 132.356C234.647 132.891 235.459 133.708 235.976 133.173L238.16 130.911C238.266 130.802 238.325 130.656 238.325 130.504C238.325 130.353 238.266 130.207 238.16 130.098L235.791 128.012C235.68 127.908 235.534 127.851 235.383 127.851C235.231 127.851 235.085 127.908 234.974 128.012C234.867 128.12 234.807 128.267 234.807 128.42C234.807 128.573 234.867 128.72 234.974 128.829Z" fill="#263238"/>
<path d="M21.9024 88.9436C20.9192 88.3158 20.6791 86.8663 21.2146 85.8276C21.511 85.3235 21.9197 84.8946 22.4089 84.5743C22.8981 84.2541 23.4547 84.051 24.0352 83.9811C24.871 83.8536 25.7252 83.926 26.5276 84.1925C27.33 84.4589 28.0579 84.9116 28.6515 85.5137C29.2886 86.1692 29.8056 87.0232 30.6642 87.3233C31.4259 87.5864 32.2615 87.3233 33.0601 87.4525C33.5901 87.5479 34.092 87.7607 34.529 88.0755C34.966 88.3902 35.3269 88.7989 35.5852 89.2714C36.1043 90.2205 36.4188 91.2678 36.5085 92.3458C36.6239 93.3291 36.7024 94.4047 37.381 95.1156C38.0596 95.8266 39.0936 95.9604 39.9153 96.459C40.6728 96.9576 41.205 97.7328 41.3983 98.6188C41.5915 99.5048 41.4304 100.431 40.9494 101.2C40.6216 101.662 40.1508 102.123 40.1138 102.686C40.0769 103.25 40.4185 103.684 40.5755 104.187C40.658 104.511 40.6703 104.849 40.6114 105.178C40.5525 105.507 40.4239 105.82 40.2341 106.096C40.0443 106.371 39.7979 106.603 39.5112 106.775C39.2245 106.948 38.9043 107.057 38.572 107.095C37.8842 107.132 37.1548 106.869 36.5408 107.173C35.9268 107.478 35.7053 108.212 35.3129 108.771C34.9127 109.31 34.3397 109.696 33.6895 109.864C33.0393 110.032 32.3512 109.972 31.7398 109.694C31.2367 109.445 30.7658 109.038 30.2026 109.075C29.6394 109.112 29.2055 109.588 28.6561 109.699C27.9406 109.837 27.2712 109.306 26.8096 108.711C26.348 108.115 26.0848 107.418 25.5355 106.929C24.82 106.292 23.8136 106.135 22.9088 105.821C21.9048 105.475 20.9867 104.918 20.2168 104.187C19.4468 103.456 18.8429 102.568 18.4459 101.583C18.0489 100.598 17.8681 99.5392 17.9157 98.4784C17.9633 97.4177 18.2382 96.3795 18.7218 95.4342" fill="#263238"/>
<path d="M32.3305 102.354C32.5518 102.119 32.8253 101.939 33.1291 101.828H33.0691C33.125 101.812 33.1821 101.802 33.2399 101.796C33.3437 101.767 33.4524 101.758 33.5594 101.772C33.6664 101.785 33.7697 101.82 33.8631 101.874C34.2111 102 34.4993 102.252 34.6709 102.581C34.8041 102.871 34.8556 103.192 34.8198 103.509C34.784 103.826 34.6623 104.128 34.4678 104.381C34.3257 104.611 34.1171 104.793 33.8696 104.902C33.6221 105.012 33.3473 105.043 33.0814 104.993C32.8154 104.943 32.5709 104.814 32.38 104.622C32.1891 104.43 32.0608 104.185 32.0119 103.919C31.9293 103.653 31.9152 103.37 31.9709 103.096C32.0266 102.823 32.1502 102.567 32.3305 102.354Z" fill="#455A64"/>
<path d="M19.2689 111.167L18.281 93.0846C18.2623 92.6768 18.3969 92.2768 18.6583 91.9632C18.9198 91.6497 19.2891 91.4453 19.6936 91.3904L28.2892 88.9576C31.059 88.5837 32.9932 91.9444 33.2471 94.7234C33.5287 97.8071 33.7503 101.583 33.4502 103.901C32.8455 108.559 29.0324 109.265 29.0324 109.265C29.0324 109.265 29.0047 110.437 29.0324 112.122L27.2782 117.851L19.2689 111.167Z" fill="#FFBF9D"/>
<path d="M32.0436 98.8964C32.0512 99.0517 31.9973 99.2036 31.8936 99.3194C31.7899 99.4352 31.6448 99.5055 31.4897 99.515C31.4142 99.5239 31.3377 99.5175 31.2648 99.4961C31.1919 99.4747 31.1241 99.4388 31.0654 99.3905C31.0068 99.3422 30.9585 99.2825 30.9235 99.215C30.8885 99.1476 30.8675 99.0738 30.8618 98.998C30.8555 98.843 30.9098 98.6917 31.0132 98.5762C31.1167 98.4607 31.2611 98.3901 31.4158 98.3794C31.4912 98.3705 31.5677 98.3769 31.6406 98.3983C31.7136 98.4197 31.7814 98.4556 31.84 98.5039C31.8987 98.5522 31.947 98.6119 31.9819 98.6794C32.0169 98.7468 32.0379 98.8207 32.0436 98.8964Z" fill="#263238"/>
<path d="M32.4789 96.7129C32.4096 96.7914 31.948 96.4729 31.3063 96.4913C30.6646 96.5098 30.2076 96.8422 30.1384 96.7683C30.0691 96.6945 30.1753 96.5929 30.3738 96.4359C30.6431 96.2404 30.9645 96.1296 31.2971 96.1174C31.6264 96.1093 31.9498 96.2064 32.2203 96.3944C32.4465 96.5375 32.5158 96.676 32.4789 96.7129Z" fill="#263238"/>
<path d="M26.2057 98.9887C26.2133 99.1439 26.1594 99.2959 26.0557 99.4117C25.952 99.5275 25.8069 99.5978 25.6518 99.6073C25.5762 99.6149 25.4998 99.6074 25.4271 99.5852C25.3545 99.563 25.287 99.5266 25.2285 99.478C25.1701 99.4295 25.1219 99.3698 25.0868 99.3024C25.0517 99.235 25.0303 99.1614 25.0239 99.0857C25.0176 98.9312 25.0721 98.7804 25.1756 98.6656C25.2792 98.5508 25.4236 98.4812 25.5779 98.4717C25.6534 98.4627 25.7298 98.4692 25.8027 98.4906C25.8757 98.512 25.9435 98.5479 26.0021 98.5962C26.0608 98.6445 26.1091 98.7042 26.144 98.7716C26.179 98.8391 26.2 98.9129 26.2057 98.9887Z" fill="#263238"/>
<path d="M26.1922 97.0083C26.123 97.0914 25.6613 96.7682 25.0243 96.7867C24.3872 96.8052 23.921 97.1422 23.8517 97.0637C23.7825 96.9852 23.8841 96.8883 24.0872 96.7359C24.3546 96.5368 24.6771 96.4255 25.0104 96.4174C25.339 96.4099 25.6618 96.5051 25.9337 96.6898C26.1599 96.8375 26.2476 96.976 26.1922 97.0083Z" fill="#263238"/>
<path d="M28.6529 101.689C28.9872 101.574 29.3346 101.501 29.6869 101.472C29.8485 101.449 30.0008 101.412 30.0285 101.302C30.031 101.139 29.9878 100.979 29.9039 100.84L29.3869 99.6073C28.9068 98.5637 28.5116 97.483 28.2051 96.3759C28.2789 96.3482 28.9206 97.7608 29.6408 99.4965L30.1393 100.734C30.2498 100.928 30.2859 101.156 30.2409 101.375C30.2198 101.433 30.1855 101.486 30.1406 101.528C30.0957 101.571 30.0415 101.602 29.9824 101.62C29.8928 101.649 29.7995 101.664 29.7054 101.666C29.3571 101.72 29.0032 101.728 28.6529 101.689Z" fill="#263238"/>
<path d="M29.0168 109.264C26.9152 109.344 24.8343 108.825 23.0156 107.769C23.0156 107.769 24.3544 111.217 28.9845 110.654L29.0168 109.264Z" fill="#FF9A6C"/>
<path d="M26.4001 94.3678C26.3447 94.5433 25.7031 94.4786 24.9552 94.5894C24.2074 94.7002 23.6026 94.9264 23.5011 94.7694C23.4549 94.6956 23.5565 94.5294 23.7965 94.354C24.1171 94.1391 24.4824 94 24.8647 93.9472C25.247 93.8945 25.6363 93.9294 26.0031 94.0493C26.2847 94.1509 26.4278 94.2847 26.4001 94.3678Z" fill="#263238"/>
<path d="M32.1957 94.5154C32.0849 94.6631 31.6418 94.5154 31.1109 94.5154C30.58 94.5154 30.1369 94.64 30.0261 94.4923C29.9799 94.4184 30.0261 94.2707 30.2384 94.1276C30.4964 93.9543 30.8001 93.8618 31.1109 93.8618C31.4217 93.8618 31.7254 93.9543 31.9834 94.1276C32.1773 94.2938 32.2511 94.4415 32.1957 94.5154Z" fill="#263238"/>
<path d="M36.3701 93.7444C36.1742 93.0361 35.7427 92.4157 35.1468 91.9856C34.792 91.8035 34.4468 91.6032 34.1127 91.3854C33.4433 90.8453 33.291 89.9036 32.8755 89.1511C32.6029 88.6655 32.2188 88.2516 31.7549 87.9434C31.291 87.6353 30.7606 87.4416 30.2073 87.3785C29.284 87.2861 28.3608 87.5631 27.4375 87.3369C26.7727 87.1707 26.1957 86.7368 25.5263 86.6122C24.2292 86.3583 23.0151 87.3046 22.0918 88.2371C22.0918 89.1604 22.8304 89.7974 23.5506 90.3975C23.9113 90.6961 24.3327 90.9126 24.7854 91.0321C25.2382 91.1517 25.7115 91.1714 26.1726 91.09C26.8882 90.9607 27.6683 90.6007 28.2869 90.9792C28.9055 91.3577 28.9655 92.3641 29.5425 92.858C30.3642 93.5736 31.6753 92.9042 32.7186 93.2135C33.5264 93.4536 34.0296 94.2245 34.5651 94.8754C35.1006 95.5263 35.9085 96.1402 36.7117 95.9002C36.6824 95.1707 36.5677 94.4472 36.3701 93.7444Z" fill="#263238"/>
<path d="M26.5628 89.7975C25.9811 89.6267 24.7809 89.2482 24.467 88.7404C24.151 88.1941 23.6966 87.7408 23.1495 87.4264C22.6024 87.1119 21.982 86.9473 21.3509 86.9492C20.7152 87 20.1129 87.2549 19.6337 87.6758C19.1546 88.0967 18.8242 88.6612 18.6919 89.2851C17.9285 89.3135 17.1868 89.5465 16.5444 89.9599C15.902 90.3733 15.3825 90.9518 15.0404 91.6348C14.9521 91.8113 14.875 91.9933 14.8096 92.1795C14.5781 92.5889 14.4387 93.0439 14.4012 93.5128C14.3638 93.9816 14.4291 94.453 14.5926 94.8939C14.7958 95.4248 15.142 96.0111 14.8696 96.5096C14.5973 97.0082 13.891 97.0313 13.3462 97.2159C12.8758 97.3946 12.4831 97.7329 12.2367 98.1716C11.9904 98.6104 11.906 99.1218 11.9983 99.6164C12.1243 99.9525 12.1824 100.31 12.1691 100.669C12.0372 101.024 11.82 101.341 11.5366 101.592C11.2357 101.95 11.034 102.381 10.9518 102.842C10.8695 103.302 10.9096 103.777 11.0681 104.217C11.2265 104.657 11.4977 105.048 11.8545 105.35C12.2114 105.653 12.6414 105.857 13.1016 105.941C13.5245 105.956 13.941 106.05 14.3295 106.218C14.745 106.472 14.925 106.97 15.2158 107.358C15.5037 107.726 15.8966 107.999 16.3425 108.139C16.7885 108.279 17.2665 108.28 17.7133 108.143C17.891 108.08 18.0601 107.994 18.2165 107.889C18.3851 108.112 18.6081 108.289 18.8642 108.402C19.1203 108.515 19.401 108.561 19.6798 108.535L19.509 98.7578C19.5629 98.8768 19.6448 98.9809 19.7477 99.0613C19.8506 99.1417 19.9714 99.196 20.0999 99.2194C21.6695 99.5749 21.9003 96.3388 21.5494 95.4663C22.1408 94.9813 22.6696 94.4246 23.1236 93.8091C23.6271 92.8294 23.8763 91.7388 23.8484 90.6377C24.4023 90.6654 26.8213 89.8668 26.5628 89.7975Z" fill="#263238"/>
<path d="M19.9363 99.5472C19.8901 98.5501 18.6714 98.3377 17.8128 98.8363C17.3512 99.1086 16.9772 99.6626 17.0188 100.715C17.1342 103.531 19.9363 102.834 19.9363 102.751C19.9363 102.668 19.9963 100.711 19.9363 99.5472Z" fill="#FFBF9D"/>
<path d="M19.0352 101.722C19.0352 101.722 18.9844 101.758 18.9059 101.8C18.7912 101.852 18.6616 101.86 18.5412 101.823C18.3549 101.715 18.2007 101.559 18.0944 101.372C17.9881 101.184 17.9336 100.972 17.9365 100.757C17.9194 100.516 17.9573 100.274 18.0473 100.05C18.0694 99.9614 18.1129 99.8791 18.1741 99.8107C18.2352 99.7423 18.3121 99.6899 18.3981 99.658C18.4537 99.6413 18.5133 99.644 18.5671 99.6659C18.6208 99.6877 18.6655 99.7273 18.6936 99.778C18.7351 99.8565 18.7213 99.9119 18.7351 99.9165C18.749 99.9211 18.7951 99.8704 18.7674 99.755C18.7477 99.6849 18.7055 99.6233 18.6474 99.5795C18.5674 99.526 18.4702 99.5046 18.3751 99.5195C18.2603 99.5482 18.1548 99.6057 18.0684 99.6865C17.982 99.7672 17.9175 99.8686 17.8811 99.9812C17.7705 100.23 17.7229 100.503 17.7426 100.775C17.7391 101.026 17.81 101.273 17.9463 101.484C18.0827 101.695 18.2784 101.861 18.5089 101.962C18.5878 101.983 18.6705 101.985 18.7505 101.969C18.8306 101.953 18.9059 101.919 18.9706 101.869C19.0306 101.791 19.0444 101.726 19.0352 101.722Z" fill="#FF9A6C"/>
<path d="M22.688 89.0362C22.4696 89.1463 22.2787 89.3041 22.1294 89.4978C21.808 90.0933 21.7334 90.7913 21.9217 91.4413V91.5151H21.8524C21.4478 91.6244 21.0737 91.8253 20.7591 92.1023C20.4445 92.3792 20.1979 92.7249 20.0382 93.1124C19.9514 93.3318 19.903 93.5644 19.8951 93.8002C19.9023 94.0501 19.9317 94.2988 19.9828 94.5434C20.0378 94.8067 20.0733 95.0736 20.089 95.3421C20.1085 95.6359 20.0306 95.9279 19.8674 96.173C19.5046 96.6367 19.0273 96.9978 18.4825 97.2209C18.0039 97.4353 17.5628 97.7252 17.1761 98.0795C16.5397 98.7041 16.165 99.5476 16.1282 100.438C16.1067 101.039 16.2335 101.635 16.4975 102.174C16.6867 102.557 16.8437 102.742 16.8252 102.756C16.8068 102.77 16.7791 102.714 16.7052 102.627C16.6021 102.496 16.5095 102.357 16.4282 102.211C16.0526 101.531 15.9097 100.746 16.0214 99.9767C16.133 99.2075 16.4931 98.4959 17.0468 97.9503C17.446 97.585 17.9031 97.2886 18.3994 97.0732C18.9164 96.8638 19.371 96.5252 19.7197 96.0899C20.029 95.6606 19.8905 95.1066 19.8074 94.5988C19.7569 94.3416 19.7276 94.0807 19.7197 93.8187C19.733 93.5619 19.7892 93.3091 19.8859 93.0708C20.0572 92.6588 20.3226 92.2926 20.6609 92.0016C20.9992 91.7106 21.4009 91.5029 21.834 91.3951L21.7832 91.4874C21.6915 91.1473 21.6692 90.7922 21.7176 90.4432C21.7659 90.0943 21.884 89.7586 22.0648 89.4563C22.1857 89.3002 22.3447 89.1779 22.5264 89.1008C22.6233 89.05 22.688 89.0269 22.688 89.0362Z" fill="white"/>
<path d="M17.984 102.774C18.2041 102.537 18.478 102.357 18.7826 102.248H18.7226C18.7787 102.234 18.8359 102.225 18.8934 102.22C18.9979 102.19 19.1075 102.181 19.2154 102.195C19.3233 102.208 19.4274 102.244 19.5213 102.299C19.863 102.419 20.1487 102.66 20.3245 102.977C20.4579 103.268 20.5091 103.59 20.4725 103.909C20.4359 104.227 20.3129 104.529 20.1168 104.782C19.9746 105.012 19.7661 105.194 19.5186 105.303C19.2711 105.413 18.9962 105.445 18.7303 105.395C18.4644 105.345 18.2199 105.215 18.029 105.023C17.838 104.832 17.7097 104.587 17.6609 104.321C17.5822 104.056 17.5705 103.776 17.6269 103.506C17.6833 103.236 17.8061 102.985 17.984 102.774Z" fill="#455A64"/>
<path d="M25.9796 102.368C26.7316 102.534 27.4592 102.797 28.1447 103.148C28.2047 103.476 27.683 104.21 27.3507 104.339C27.18 104.403 26.9965 104.426 26.8152 104.406C26.6339 104.386 26.4599 104.323 26.3074 104.223C26.0386 104.001 25.8611 103.687 25.8088 103.342C25.7879 103.008 25.8465 102.674 25.9796 102.368Z" fill="#FF9A6C"/>
<path d="M27.2601 104.385C27.0121 104.38 26.7669 104.331 26.5354 104.242C26.2959 104.137 26.0955 103.96 25.9629 103.734C25.85 103.53 25.7967 103.298 25.8089 103.064C25.8212 102.831 25.8985 102.606 26.0322 102.414L25.926 102.447C26.5932 102.704 27.2802 102.906 27.9803 103.051C27.3393 102.737 26.6739 102.474 25.9906 102.266L25.9214 102.243L25.8798 102.299C25.7205 102.518 25.629 102.779 25.6167 103.05C25.6044 103.321 25.6718 103.589 25.8106 103.822C25.9681 104.073 26.2055 104.263 26.4846 104.362C26.6044 104.422 26.7359 104.455 26.8698 104.459C27.0037 104.463 27.1369 104.438 27.2601 104.385Z" fill="#263238"/>
<path d="M25.1308 227.77V228.232C25.1308 228.232 32.8354 231.408 32.9047 232.876L17.5508 232.65L17.837 227.544C18.9653 228.103 20.2007 228.413 21.4592 228.452C22.7178 228.491 23.97 228.258 25.1308 227.77Z" fill="#263238"/>
<path d="M17.5469 232.645L17.6161 231.417L32.3053 232.087C32.3053 232.087 32.9839 232.391 32.9008 232.871L17.5469 232.645Z" fill="#455A64"/>
<path d="M25.1818 228.269C25.1818 228.343 24.8033 228.371 24.4294 228.611C24.0555 228.851 23.857 229.155 23.7877 229.123C23.7185 229.091 23.8385 228.661 24.2955 228.384C24.7525 228.107 25.2003 228.2 25.1818 228.269Z" fill="white"/>
<path d="M26.783 228.957C26.783 229.03 26.4691 229.155 26.2106 229.469C25.9521 229.783 25.8736 230.115 25.7998 230.111C25.7259 230.106 25.6844 229.681 26.0121 229.298C26.3399 228.915 26.7784 228.887 26.783 228.957Z" fill="white"/>
<path d="M27.6684 230.9C27.5992 230.9 27.4976 230.54 27.6961 230.129C27.8946 229.718 28.2501 229.566 28.2778 229.626C28.3055 229.686 28.0885 229.908 27.9316 230.245C27.7746 230.582 27.7423 230.891 27.6684 230.9Z" fill="white"/>
<path d="M14.1514 223.14L20.6881 224.987L19.054 228.68L20.7481 238.06C20.7972 238.318 20.7495 238.585 20.6141 238.81C20.4787 239.035 20.265 239.202 20.0141 239.279C19.8189 239.334 19.6119 239.334 19.4169 239.277C19.2219 239.221 19.0465 239.111 18.9108 238.96C17.4706 237.345 12.1895 231.366 12.3187 230.651L12.5265 228.698C12.6457 228.208 12.7905 227.724 12.9604 227.249L14.1514 223.14Z" fill="#263238"/>
<path d="M19.8199 239.307L12.3968 229.954L12.3599 230.379C12.3323 230.554 12.345 230.733 12.397 230.903C12.449 231.072 12.5389 231.228 12.66 231.357C13.2462 232.28 14.9081 234.436 18.8966 238.956C19.0113 239.084 19.155 239.182 19.3156 239.243C19.4762 239.304 19.6492 239.326 19.8199 239.307Z" fill="#455A64"/>
<path d="M17.8603 234.695C18.1451 234.398 18.4854 234.159 18.862 233.993C19.2549 233.882 19.665 233.844 20.0715 233.882C20.0715 233.855 19.9561 233.767 19.7207 233.712C19.412 233.651 19.0925 233.676 18.7974 233.785C18.4985 233.894 18.2372 234.086 18.0449 234.339C17.8649 234.543 17.8326 234.681 17.8603 234.695Z" fill="white"/>
<path d="M18.4675 236.107C18.7797 235.975 19.0986 235.859 19.4231 235.761C19.7636 235.727 20.1059 235.715 20.4479 235.724C20.296 235.614 20.1209 235.541 19.9361 235.509C19.7513 235.477 19.5616 235.487 19.3816 235.54C18.7537 235.66 18.3983 236.075 18.4675 236.107Z" fill="white"/>
<path d="M16.6445 232.839C17.1073 232.593 17.5871 232.38 18.0802 232.202C18.5965 232.097 19.1194 232.028 19.6451 231.994C19.1179 231.808 18.5428 231.808 18.0156 231.994C17.4738 232.107 16.9886 232.406 16.6445 232.839Z" fill="white"/>
<path d="M19.3817 230.665C19.5386 231.56 19.691 232.363 19.811 232.945C19.8574 233.26 19.9363 233.57 20.0464 233.868C20.0439 233.546 20.0114 233.225 19.9495 232.908C19.8618 232.322 19.7325 231.523 19.5756 230.6C19.4417 229.848 19.3124 229.155 19.2063 228.615C19.2159 228.194 19.1912 227.772 19.1324 227.355C19.0674 227.771 19.0411 228.193 19.0539 228.615" fill="#455A64"/>
<path d="M11.7781 167.093C11.2723 164.812 11.1691 162.459 11.4734 160.141C12.3182 154.523 12.8583 152.441 15.7389 146.352L16.4544 146.523L37.9804 146.352L38.8205 147.645C40.667 152.631 41.9319 155.603 42.4536 159.25C43.0537 163.447 41.9919 169.526 39.6838 175.666C34.6474 188.924 31.836 199.523 31.6421 202.376C31.4483 205.229 31.1436 208.183 28.4984 217.222C26.5642 223.823 25.1377 227.77 25.1377 227.77C23.1296 228.901 20.9831 229.206 19.0627 228.107L13.1538 225.827C13.1538 225.827 14.9634 210.256 17.0776 206.129C18.601 203.156 21.0938 201.744 19.9305 197.87C18.7672 193.997 13.3615 174.72 11.7781 167.093Z" fill="#263238"/>
<path d="M33.6739 154.449L33.5954 154.551L33.3692 154.865L32.506 156.088L29.2745 160.737C29.4315 162.477 29.4915 164.494 29.6023 166.738C29.7131 168.981 29.8239 171.46 29.9531 174.124C30.0824 176.788 30.2393 179.627 30.4148 182.604C30.5902 185.582 30.7425 188.693 31.0426 191.897C31.3519 194.56 31.6242 197.178 31.398 199.694C31.3443 200.313 31.2596 200.929 31.1441 201.54C31.0346 202.143 30.8803 202.737 30.6825 203.318C30.2578 204.449 29.7592 205.543 29.2976 206.604C27.4188 210.907 25.66 214.692 24.192 217.924C22.724 221.155 21.5283 223.68 20.7066 225.471C20.3004 226.362 19.9819 227.055 19.7834 227.535C19.6818 227.761 19.5987 227.941 19.5433 228.07C19.4879 228.2 19.4648 228.255 19.4648 228.255C19.5004 228.198 19.5327 228.14 19.5618 228.08C19.6218 227.95 19.7095 227.775 19.8203 227.549L20.799 225.508C21.6391 223.717 22.8532 221.146 24.3489 217.965C25.8446 214.785 27.5803 210.976 29.4961 206.724C29.9577 205.658 30.4517 204.573 30.881 203.424C31.082 202.837 31.2363 202.235 31.3426 201.623C31.4627 201.009 31.5411 200.386 31.6012 199.749C31.832 197.21 31.555 194.579 31.2457 191.901C30.9503 188.712 30.7841 185.596 30.6133 182.618C30.4425 179.64 30.2994 176.801 30.1516 174.142C30.0039 171.483 29.8885 169.009 29.7731 166.756C29.6577 164.504 29.5838 162.486 29.4176 160.755V160.792L32.6029 156.116L33.4431 154.874C33.5308 154.735 33.6 154.629 33.6554 154.551C33.6645 154.518 33.6707 154.484 33.6739 154.449Z" fill="#455A64"/>
<path d="M62.3926 127.845C62.3926 127.845 65.624 126.437 66.5473 125.837C67.2902 125.334 68.1438 125.017 69.0355 124.914C70.088 124.725 72.8762 124.425 73.5548 124.914C74.2334 125.403 77.2802 126.65 77.2802 126.65L73.2548 128.829C73.2548 128.829 72.5946 131.562 71.796 131.806C70.9974 132.051 71.1359 131.972 70.2773 131.806C69.4186 131.64 66.6119 130.292 66.5288 130.348C66.4457 130.403 63.5605 131.963 63.5605 131.963L62.3926 127.845Z" fill="#FFBF9D"/>
<path d="M74.6484 127.467H84.2273L84.6889 127.153C84.7061 127.141 84.7201 127.125 84.7298 127.107C84.7394 127.088 84.7445 127.068 84.7445 127.047C84.7445 127.026 84.7394 127.005 84.7298 126.987C84.7201 126.968 84.7061 126.952 84.6889 126.941L84.2273 126.654H74.6484V127.467Z" fill="#263238"/>
<path d="M79.4549 126.904C79.4549 126.904 78.9933 126.354 78.1069 126.904C77.5915 127.207 77.0923 127.536 76.6113 127.891C76.4068 127.842 76.2049 127.782 76.0065 127.711L74.7186 128.298L74.5801 129.055C74.5801 129.055 76.2004 129.6 76.7128 129.327C77.6398 128.743 78.5113 128.076 79.3164 127.333C79.5472 127.042 79.4549 126.904 79.4549 126.904Z" fill="#FFBF9D"/>
<path d="M71.3381 130.043L71.929 129.664L71.7167 128.829C71.7167 128.829 70.4749 128.662 70.3318 127.984C70.1887 127.305 70.3318 127.319 70.3318 127.319L71.9336 127.591L71.195 126.968C71.195 126.968 69.847 126.802 69.9532 126.017L70.2117 125.643C70.8027 125.753 71.3845 125.907 71.9521 126.105C72.6279 126.481 73.2842 126.891 73.9187 127.333L72.7092 126.183C72.3819 126.066 72.0807 125.886 71.8228 125.653C71.7736 125.603 71.7362 125.543 71.7135 125.477C71.6908 125.411 71.6834 125.341 71.6919 125.271C71.7003 125.202 71.7244 125.135 71.7623 125.077C71.8001 125.018 71.8508 124.969 71.9105 124.932C71.9978 124.875 72.102 124.849 72.206 124.859C72.6471 124.883 73.0817 124.977 73.4939 125.136C74.011 125.38 75.5528 126.52 75.779 127.107C76.0052 127.693 75.9775 127.905 75.6128 128.275C75.2256 128.608 74.8048 128.901 74.3572 129.147C74.1778 129.484 73.9177 129.771 73.6001 129.983C73.6001 129.983 73.3416 131.123 71.7859 131.783" fill="#FFBF9D"/>
<path d="M71.795 131.802C71.795 131.802 71.8551 131.802 71.9612 131.742C72.1222 131.676 72.2767 131.596 72.4229 131.502C72.6646 131.359 72.8853 131.184 73.0784 130.98C73.3459 130.706 73.5465 130.375 73.6647 130.011L73.637 130.052C73.9725 129.844 74.2453 129.549 74.4264 129.198L74.3987 129.226C74.6618 129.078 74.9249 128.916 75.1973 128.732C75.498 128.549 75.7523 128.3 75.9405 128.002C76.0248 127.821 76.0363 127.615 75.9728 127.425C75.9316 127.236 75.8582 127.055 75.7559 126.89C75.5186 126.576 75.2442 126.293 74.9388 126.045C74.6238 125.782 74.2939 125.537 73.9509 125.311C73.7724 125.188 73.5804 125.086 73.3785 125.006C73.1703 124.932 72.9554 124.878 72.7368 124.845L72.409 124.799C72.2896 124.782 72.1684 124.782 72.0489 124.799C71.9498 124.821 71.8584 124.869 71.7844 124.939C71.7103 125.009 71.6563 125.097 71.628 125.195C71.5997 125.292 71.5982 125.396 71.6235 125.494C71.6488 125.593 71.7001 125.682 71.772 125.754C71.857 125.837 71.9497 125.911 72.0489 125.976C72.2471 126.108 72.4611 126.215 72.686 126.294H72.6491L73.143 126.756L73.8585 127.439L73.9832 127.287C73.3785 126.881 72.7922 126.484 72.1782 126.147C71.8679 125.995 71.541 125.881 71.2042 125.805C70.8764 125.727 70.5533 125.653 70.2394 125.593H70.1793L70.147 125.639L69.8885 126.008C69.8664 126.179 69.9092 126.352 70.0085 126.493C70.1061 126.62 70.2306 126.724 70.3732 126.798C70.6344 126.932 70.9173 127.02 71.2088 127.056H71.1626L71.9105 127.67L71.9705 127.536L70.7702 127.338L70.4933 127.292H70.424H70.3224C70.2163 127.365 70.244 127.421 70.2301 127.472C70.228 127.653 70.2481 127.835 70.2901 128.012C70.3207 128.192 70.4139 128.355 70.5533 128.473C70.675 128.573 70.8102 128.656 70.9549 128.718C71.2019 128.821 71.4609 128.892 71.7258 128.93L71.6889 128.898C71.7766 129.221 71.8551 129.489 71.9151 129.71V129.678L71.4534 129.974C71.4029 130.003 71.3564 130.039 71.315 130.08C71.3688 130.06 71.42 130.034 71.4673 130.001L71.9289 129.729C71.8781 129.503 71.8089 129.23 71.7304 128.907V128.829H71.6981C71.4439 128.785 71.196 128.71 70.9595 128.607C70.8193 128.559 70.6928 128.477 70.5907 128.37C70.4887 128.262 70.4141 128.131 70.3732 127.989C70.3373 127.825 70.3218 127.657 70.3271 127.49C70.324 127.472 70.324 127.453 70.3271 127.435C70.3271 127.435 70.3271 127.435 70.3271 127.388C70.3271 127.342 70.3271 127.453 70.3271 127.439H70.3778H70.4425L70.7241 127.49L71.9197 127.698L72.2013 127.749L71.9797 127.564L71.2411 126.936H71.218C70.9488 126.9 70.6879 126.817 70.4471 126.691C70.3247 126.644 70.2206 126.559 70.15 126.449C70.0794 126.338 70.046 126.208 70.0547 126.077V126.119C70.1378 125.994 70.2255 125.874 70.3132 125.75L70.2209 125.787C70.5348 125.847 70.8533 125.916 71.1765 125.999C71.4957 126.073 71.8055 126.183 72.0997 126.327C72.6952 126.659 73.2861 127.061 73.8816 127.462L74.0017 127.315L73.2861 126.631L72.7922 126.17H72.7691C72.5626 126.092 72.3646 125.993 72.1782 125.874C72.0902 125.813 72.0069 125.745 71.9289 125.671C71.8656 125.609 71.8278 125.525 71.8227 125.436C71.8171 125.345 71.8437 125.256 71.8978 125.183C71.9519 125.11 72.03 125.059 72.1182 125.039C72.2164 125.028 72.3155 125.028 72.4136 125.039L72.7322 125.085C72.9375 125.115 73.1398 125.163 73.3369 125.228C73.5261 125.305 73.7071 125.401 73.877 125.514C74.2128 125.735 74.5364 125.974 74.8464 126.23C75.1406 126.448 75.4072 126.7 75.6404 126.982C75.7316 127.124 75.7987 127.28 75.8389 127.444C75.8958 127.592 75.8958 127.757 75.8389 127.905C75.663 128.18 75.428 128.412 75.1511 128.584C74.888 128.769 74.6249 128.935 74.371 129.083C74.2067 129.414 73.9563 129.694 73.6462 129.895V129.923C73.5375 130.267 73.3529 130.583 73.1061 130.846C72.922 131.049 72.7126 131.228 72.4829 131.377C72.0166 131.7 71.7858 131.788 71.795 131.802Z" fill="#FF9A6C"/>
<path d="M70.8094 130.089C70.7449 129.863 70.6401 129.65 70.5001 129.461C69.8821 128.501 68.9984 127.74 67.9565 127.273C67.749 127.16 67.5218 127.088 67.2871 127.061C68.7188 127.725 69.9382 128.773 70.8094 130.089Z" fill="#FF9A6C"/>
<path d="M71.8301 127.545C71.8301 127.578 72.0101 127.605 72.2917 127.725C72.6314 127.888 72.9086 128.157 73.0811 128.492C73.25 128.838 73.3815 129.202 73.4735 129.577C73.5566 129.867 73.612 130.038 73.6397 130.038C73.6674 130.038 73.6397 129.844 73.6074 129.544C73.5551 129.144 73.4348 128.755 73.2519 128.395C73.0572 128.02 72.7271 127.733 72.3286 127.592C72.1709 127.526 71.9971 127.51 71.8301 127.545Z" fill="#FF9A6C"/>
<path d="M73.873 127.305C74.0501 127.567 74.1914 127.851 74.2931 128.15C74.4362 128.653 74.3993 129.073 74.4547 129.096C74.5933 128.779 74.6032 128.419 74.4824 128.095C74.4212 127.857 74.3004 127.64 74.1316 127.462C73.9977 127.328 73.8869 127.287 73.873 127.305Z" fill="#FF9A6C"/>
<path d="M29.1376 110.128L30.9241 112.487L36.6068 113.71C36.6068 113.71 40.7938 122.61 40.5999 126.705C40.5404 128.76 40.3275 130.808 39.9628 132.831L39.9998 137.516C39.9998 137.516 41.7632 141.413 40.9784 143.102C40.1936 144.792 37.987 146.334 37.987 146.334L17.3475 146.592C17.3475 146.592 15.8795 147.437 15.1085 145.23C14.7762 144.307 16.0595 141.45 15.5702 137.775C14.887 132.84 12.4403 126.908 12.4403 126.908L11.5586 116.152L18.0676 112.995L19.2586 109.851L27.0464 111.84L29.1376 110.128Z" fill="#FFD95B"/>
<path d="M63.8288 126.682C63.6072 126.705 60.3804 127.841 60.3804 127.841C59.5653 127.585 58.6969 127.552 57.8645 127.744C56.6689 128.094 50.58 129.461 50.58 129.461L42.7322 119.333C42.7322 119.333 39.5885 114.038 36.5879 113.71L38.9745 128.63C38.9745 128.63 45.3404 137.041 48.4057 138.093C51.4709 139.146 62.2546 135.162 62.5409 133.666L66.1416 131.414L63.8288 126.682Z" fill="#FFD95B"/>
<path d="M37.4375 116.826C37.449 116.883 37.4693 116.938 37.4975 116.988L37.7099 117.45C37.8068 117.644 37.9222 117.879 38.0422 118.165C38.1623 118.451 38.31 118.761 38.4439 119.121C38.781 119.958 39.0723 120.814 39.3163 121.683C39.6087 122.745 39.8354 123.824 39.9949 124.914C40.1408 126.009 40.221 127.111 40.235 128.215C40.2397 129.118 40.1965 130.021 40.1057 130.92C40.0734 131.303 40.018 131.649 39.9811 131.949C39.9442 132.25 39.898 132.517 39.8611 132.73L39.778 133.219C39.7718 133.277 39.7718 133.336 39.778 133.394C39.778 133.394 39.8057 133.339 39.8334 133.228L39.9488 132.767C39.9996 132.554 40.055 132.305 40.1011 131.991C40.1473 131.677 40.2165 131.345 40.2535 130.957C40.3663 130.055 40.4248 129.147 40.4289 128.238C40.4245 127.125 40.3489 126.013 40.2027 124.91C40.041 123.807 39.8066 122.717 39.501 121.646C39.2451 120.774 38.9368 119.918 38.5777 119.084C38.4346 118.724 38.2731 118.41 38.1438 118.133C38.0145 117.856 37.8899 117.616 37.7837 117.431L37.5391 116.97C37.5115 116.918 37.4774 116.87 37.4375 116.826Z" fill="#263238"/>
<path d="M18.0488 113.013C18.0961 113.047 18.1473 113.075 18.2012 113.096L18.6628 113.295C19.0552 113.461 19.6276 113.692 20.3478 113.955C22.2434 114.631 24.1781 115.192 26.1412 115.635L26.2336 115.658V115.562C26.2751 115.381 26.3259 115.192 26.3767 114.998C26.6583 113.987 26.9906 113.032 27.1984 112.113L27.0414 112.15C27.8539 113.143 28.5879 114.024 29.248 114.707L29.2988 114.758L29.345 114.707C29.5945 114.418 29.8214 114.109 30.0236 113.784L30.4852 113.069C30.7437 112.681 30.9191 112.492 30.9099 112.482C30.856 112.516 30.8078 112.558 30.7668 112.607C30.6444 112.74 30.5303 112.88 30.4252 113.027C30.2821 113.212 30.1159 113.447 29.9266 113.72C29.7182 114.029 29.4884 114.324 29.2388 114.601H29.3357C28.7033 113.913 27.9785 113.018 27.1753 112.025L27.0553 111.878L27.0137 112.062C26.8014 112.986 26.4644 113.909 26.1828 114.938C26.1274 115.132 26.0766 115.326 26.0351 115.511L26.1505 115.437C24.1941 114.997 22.2619 114.457 20.3616 113.817C19.6368 113.572 19.0598 113.355 18.6582 113.216C18.4605 113.133 18.2568 113.065 18.0488 113.013Z" fill="#263238"/>
<path d="M29.4783 147.428C29.4783 147.428 29.5106 147.428 29.5614 147.386C29.6121 147.345 29.6998 147.312 29.8014 147.243C30.0884 147.035 30.3342 146.775 30.5262 146.477C30.8217 145.998 31.0267 145.469 31.1309 144.917C31.2693 144.189 31.3358 143.45 31.3294 142.71C31.3294 139.442 31.3802 134.922 31.0293 129.937C30.8493 127.448 30.5677 125.08 30.1984 122.947C29.8775 121.057 29.4444 119.187 28.9012 117.348C28.4142 115.65 27.7969 113.993 27.0547 112.39C27.0547 112.39 27.0547 112.422 27.0547 112.482C27.0547 112.542 27.1147 112.635 27.1516 112.741L27.5348 113.719C27.7102 114.139 27.881 114.675 28.0934 115.284C28.3057 115.894 28.5181 116.605 28.7535 117.385C29.2758 119.225 29.695 121.093 30.0091 122.98C30.3646 125.108 30.6416 127.467 30.8216 129.95C31.1724 134.922 31.1494 139.446 31.1817 142.71C31.1929 143.442 31.1341 144.173 31.0063 144.893C30.9162 145.437 30.7268 145.96 30.4477 146.435C30.2012 146.833 29.8702 147.172 29.4783 147.428Z" fill="#263238"/>
<path d="M23.6465 140.397C23.8262 140.398 24.0056 140.381 24.182 140.346C24.5282 140.3 25.0221 140.222 25.6269 140.102C28.7948 139.472 31.8579 138.398 34.7257 136.912C35.275 136.626 35.7089 136.381 36.0044 136.201C36.1669 136.118 36.3214 136.021 36.466 135.91C36.2954 135.968 36.1314 136.044 35.9767 136.136C35.672 136.293 35.2288 136.52 34.6749 136.787C33.2314 137.488 31.7486 138.104 30.234 138.634C28.7214 139.162 27.1801 139.604 25.6177 139.959C25.0175 140.093 24.5282 140.194 24.1912 140.263C24.0059 140.291 23.8235 140.336 23.6465 140.397Z" fill="#263238"/>
<g opacity="0.3">
<path d="M39.2656 121.17C40.4328 122.381 41.1624 123.947 41.3388 125.619C41.5153 127.292 41.1284 128.975 40.2397 130.403V130.343C40.6382 127.251 40.3045 124.109 39.2656 121.17Z" fill="black"/>
</g>
<path d="M22.4892 137.493C22.4892 137.493 19.3547 137.493 19.1055 137.757C18.8562 138.02 17.0143 139.751 17.0143 139.751C16.8052 140.228 16.5646 140.691 16.2941 141.136C16.2941 141.136 15.7402 142.059 15.2324 142.216C14.9614 142.313 14.6752 142.36 14.3876 142.354L13.6074 146.371C13.6074 146.371 14.8307 147.294 15.454 147.105C16.0772 146.915 19.1978 144.469 19.1978 144.469L19.9964 144.053C19.9964 144.053 23.3155 143.638 23.3109 142.604L23.2648 142.322L19.9595 142.571L18.7869 142.968L20.7535 141.842C20.7535 141.842 23.7818 141.163 24.0495 141.039C24.3173 140.914 24.5666 140.416 24.4096 140.194L23.7495 140.222C23.7495 140.222 24.3681 139.626 24.2711 139.188H21.3028C21.3028 139.188 22.9093 138.061 22.4892 137.493Z" fill="#FFBF9D"/>
<path d="M24.0882 140.12C23.9977 140.131 23.9063 140.131 23.8159 140.12H23.0819C22.4587 140.12 21.6 140.157 20.6537 140.203C20.5336 140.203 20.4136 140.203 20.3121 140.231C20.2054 140.25 20.1025 140.286 20.0074 140.337C19.8274 140.448 19.6427 140.573 19.4719 140.683C19.1349 140.914 18.8348 141.145 18.5948 141.33C18.4041 141.474 18.2208 141.628 18.0455 141.791C17.9208 141.911 17.8608 141.985 17.8516 141.976C17.8912 141.894 17.9442 141.819 18.0085 141.754C18.1698 141.567 18.3458 141.392 18.5348 141.233C18.8126 140.994 19.1022 140.769 19.4026 140.559C19.5735 140.439 19.7443 140.319 19.9474 140.199C20.0518 140.138 20.1657 140.096 20.2844 140.074C20.4038 140.058 20.524 140.049 20.6444 140.046C21.5954 140 22.4587 139.982 23.0819 140C23.3911 140 23.645 140.023 23.8205 140.042C23.913 140.055 24.0032 140.081 24.0882 140.12Z" fill="#FF9A6C"/>
<path d="M21.4189 139.317C21.4189 139.317 21.1696 139.276 20.768 139.262C20.2493 139.244 19.7333 139.343 19.2585 139.553C18.7837 139.762 18.3623 140.076 18.0259 140.471C17.7674 140.771 17.6474 140.993 17.6289 140.984C17.6964 140.773 17.8064 140.578 17.952 140.411C18.2816 139.986 18.7122 139.649 19.2048 139.432C19.6973 139.216 20.2363 139.125 20.7726 139.169C20.9958 139.175 21.2156 139.225 21.4189 139.317Z" fill="#FF9A6C"/>
<path d="M1.04192 140.249C0.558523 139.543 0.232874 138.741 0.0871053 137.897C-0.0586637 137.054 -0.0211378 136.188 0.197134 135.361C0.746476 132.993 7.12162 121.807 10.0161 117.602C11.0547 116.092 13.0813 115.423 13.0813 115.423C13.0813 115.423 17.1437 118.59 17.5222 123.104L14.1015 127.651L8.91737 136.676L1.04192 140.249Z" fill="#FFD95B"/>
<path d="M13.3856 141.639L8.4369 135.407C8.4369 135.407 1.18004 140.102 1.05078 140.25C1.05078 140.25 7.07508 145.378 13.6164 146.902L14.5074 142.313L13.3856 141.639Z" fill="#FFD95B"/>
<path d="M14.9372 125.551C14.913 125.089 14.9254 124.626 14.9742 124.166C15.0539 123.085 14.9856 121.998 14.771 120.935C14.54 119.877 13.9983 118.913 13.2153 118.165C12.8718 117.877 12.5007 117.623 12.1074 117.408C12.2329 117.418 12.3552 117.452 12.4675 117.51C12.7775 117.648 13.0653 117.832 13.3215 118.054C14.1696 118.799 14.7568 119.795 14.9972 120.898C15.2296 121.987 15.2872 123.106 15.168 124.212C15.1373 124.665 15.06 125.114 14.9372 125.551Z" fill="#263238"/>
<path d="M2.16016 136.436C2.40235 136.149 2.70289 135.916 3.04187 135.753C3.84217 135.313 4.74143 135.084 5.65471 135.088C6.15204 135.062 6.65069 135.076 7.14578 135.13C7.55651 135.179 7.95518 135.301 8.32295 135.49C8.56855 135.621 8.78894 135.794 8.97385 136.002C9.09849 136.159 9.15388 136.247 9.14004 136.256C8.86355 136.02 8.56345 135.813 8.24447 135.638C7.88528 135.481 7.50351 135.383 7.11347 135.347C6.62984 135.306 6.14401 135.299 5.65933 135.324C4.77864 135.321 3.90877 135.518 3.11573 135.901C2.51561 136.215 2.18324 136.469 2.16016 136.436Z" fill="#263238"/>
<path d="M238.129 232.26C238.129 232.331 192.651 232.393 136.57 232.393C80.4882 232.393 35 232.316 35 232.26C35 232.203 80.4626 232.126 136.57 232.126C192.676 232.126 238.129 232.167 238.129 232.26Z" fill="#263238"/>
</svg>
