<svg width="245" height="249" viewBox="0 0 245 249" fill="none" xmlns="http://www.w3.org/2000/svg">
<path d="M234.637 33.9064L233.168 31.4812C220.728 10.9761 198.298 -1.38036 174.647 0.12327C171.597 0.299251 168.565 0.704592 165.576 1.33587C144.071 5.94983 125.361 22.2533 117.608 43.1343C113.042 55.4119 111.772 69.5509 103.094 79.3002C91.834 91.9841 72.7061 92.3782 55.9246 91.8567C39.1431 91.3353 19.9729 91.7779 8.75495 104.51C1.75207 112.52 -0.479414 123.894 0.0829932 134.54C1.58275 162.818 21.2489 188.107 46.2306 200.676C71.2124 213.244 100.657 214.366 128.009 208.837C166.332 201.094 202.779 179.825 224.683 146.994C246.587 114.163 252.132 69.3629 234.637 33.9064Z" fill="#E7EDFF"/>
<path d="M112.295 34.5403H88.532C86.0949 34.5403 84.1193 36.5159 84.1193 38.953V62.7156C84.1193 65.1527 86.0949 67.1284 88.532 67.1284H112.295C114.732 67.1284 116.707 65.1527 116.707 62.7156V38.953C116.707 36.5159 114.732 34.5403 112.295 34.5403Z" fill="#2952CE"/>
<g opacity="0.3">
<path d="M112.295 34.5403H88.532C86.0949 34.5403 84.1193 36.5159 84.1193 38.953V62.7156C84.1193 65.1527 86.0949 67.1284 88.532 67.1284H112.295C114.732 67.1284 116.707 65.1527 116.707 62.7156V38.953C116.707 36.5159 114.732 34.5403 112.295 34.5403Z" fill="black"/>
</g>
<path d="M108.897 34.5403H85.1342C82.6971 34.5403 80.7214 36.5159 80.7214 38.953V62.7156C80.7214 65.1527 82.6971 67.1284 85.1342 67.1284H108.897C111.334 67.1284 113.31 65.1527 113.31 62.7156V38.953C113.31 36.5159 111.334 34.5403 108.897 34.5403Z" fill="#2952CE"/>
<path d="M92.4261 43.5716C93.1003 43.1658 93.8248 42.8502 94.5811 42.6327L95.0281 40.5001L98.6361 40.4375L99.1548 42.5522C99.9183 42.7424 100.653 43.0325 101.341 43.4151L103.161 42.2214L105.754 44.725L104.623 46.5849C105.03 47.2582 105.346 47.9829 105.561 48.7399L107.694 49.187L107.757 52.7905L105.629 53.3091C105.439 54.0729 105.149 54.8081 104.766 55.4953L105.959 57.315L103.46 59.9081L101.605 58.7814C100.932 59.1884 100.207 59.5027 99.4498 59.7158L99.0027 61.8484L95.3992 61.911L94.8985 59.7963C94.1353 59.6073 93.4002 59.3187 92.7122 58.9379L90.8747 60.1316L88.2816 57.6279L89.4128 55.7636C89.0054 55.0902 88.6897 54.3655 88.4739 53.6086L86.3413 53.1616L86.2787 49.567L88.3934 49.0484C88.582 48.2843 88.8722 47.549 89.2563 46.8621L88.0626 45.038L90.5662 42.4449L92.4261 43.576V43.5716ZM94.3486 48.3733C93.8175 48.9237 93.4616 49.6193 93.3258 50.3721C93.19 51.1249 93.2806 51.901 93.5859 52.6023C93.8913 53.3036 94.3977 53.8986 95.0413 54.3121C95.6848 54.7255 96.4365 54.9389 97.2013 54.9251C97.966 54.9114 98.7096 54.6711 99.3378 54.2348C99.966 53.7984 100.451 53.1856 100.731 52.4738C101.011 51.7619 101.073 50.983 100.91 50.2357C100.748 49.4883 100.367 48.8059 99.8164 48.2749C99.0783 47.5629 98.0875 47.1733 97.0621 47.1918C96.0367 47.2102 95.0607 47.6352 94.3486 48.3733Z" fill="white"/>
<g opacity="0.3">
<path d="M105.991 34.5403L80.7214 54.7217V58.6516L110.851 34.5403H105.991Z" fill="white"/>
</g>
<g opacity="0.3">
<path d="M80.7526 63.23L113.309 37.9741V45.0649L84.1683 67.1286C83.7186 67.1286 83.2734 67.0396 82.8583 66.8667C82.4433 66.6938 82.0665 66.4405 81.7498 66.1213C81.4331 65.8021 81.1827 65.4234 81.0131 65.0069C80.8435 64.5905 80.758 64.1446 80.7615 63.695L80.7526 63.23Z" fill="white"/>
</g>
<path d="M215.54 33.5842L202.074 40.3397C201.579 40.5498 201.158 40.9011 200.862 41.3497C200.566 41.7982 200.409 42.324 200.41 42.8612V49.1517C200.395 54.8817 202.065 60.4898 205.212 65.2781C207.635 68.9755 210.854 73.7012 216.206 76.4016H218.62C224.58 74.582 229.028 69.74 231.747 65.5955C234.894 60.8072 236.564 55.1992 236.548 49.4692V42.8612C236.548 42.326 236.391 41.8025 236.096 41.3558C235.801 40.9091 235.382 40.5589 234.89 40.3486L219.555 33.8033C218.871 33.5127 216.224 33.2936 215.54 33.5842Z" fill="#455A64"/>
<g opacity="0.3">
<path d="M215.54 33.5842L202.074 40.3397C201.579 40.5498 201.158 40.9011 200.862 41.3497C200.566 41.7982 200.409 42.324 200.41 42.8612V49.1517C200.395 54.8817 202.065 60.4898 205.212 65.2781C207.635 68.9755 210.854 73.7012 216.206 76.4016H218.62C224.58 74.582 229.028 69.74 231.747 65.5955C234.894 60.8072 236.564 55.1992 236.548 49.4692V42.8612C236.548 42.326 236.391 41.8025 236.096 41.3558C235.801 40.9091 235.382 40.5589 234.89 40.3486L219.555 33.8033C218.871 33.5127 216.224 33.2936 215.54 33.5842Z" fill="black"/>
</g>
<path d="M214.999 33.803L199.659 40.3394C199.164 40.5491 198.743 40.9003 198.447 41.3489C198.151 41.7975 197.994 42.3235 197.996 42.861V49.1515C197.994 54.9892 199.723 60.6964 202.966 65.551C206.208 70.4056 210.817 74.1894 216.21 76.4237C222.17 74.604 226.619 69.7621 229.337 65.6176C232.484 60.8293 234.154 55.2213 234.139 49.4912V42.861C234.139 42.3257 233.981 41.8022 233.687 41.3555C233.392 40.9088 232.972 40.5586 232.48 40.3483L217.136 33.803C216.798 33.6591 216.435 33.585 216.067 33.585C215.7 33.585 215.337 33.6591 214.999 33.803Z" fill="#455A64"/>
<path d="M234.089 47.7791C234.11 47.8745 234.119 47.9721 234.116 48.0697C234.116 48.2843 234.138 48.5615 234.156 48.9057C234.174 49.25 234.192 49.7105 234.156 50.247C234.12 50.7835 234.156 51.3513 234.076 51.9995C233.995 52.6478 233.973 53.3408 233.839 54.1098C233.776 54.4853 233.732 54.8788 233.651 55.2767L233.387 56.5062C232.962 58.3209 232.37 60.0928 231.621 61.7997C230.849 63.4993 229.927 65.1271 228.867 66.6639C228.358 67.3525 227.884 68.0052 227.378 68.5954C227.133 68.886 226.905 69.1766 226.663 69.4359C226.422 69.6952 226.185 69.9411 225.961 70.178C225.514 70.6609 225.067 71.0454 224.709 71.3986C224.352 71.7518 223.994 72.0424 223.712 72.2659L223.06 72.7935C222.987 72.859 222.908 72.916 222.823 72.9634C222.884 72.8849 222.954 72.8143 223.033 72.7533L223.65 72.1989C223.922 71.9619 224.258 71.6668 224.615 71.3047C224.973 70.9426 225.416 70.5536 225.84 70.0663L226.524 69.3152C226.761 69.0559 226.972 68.7653 227.226 68.4746C227.723 67.8979 228.183 67.2317 228.688 66.5388C229.73 65.01 230.638 63.3945 231.402 61.7102C232.152 60.0152 232.75 58.2573 233.191 56.457C233.284 56.0412 233.374 55.6343 233.463 55.2409C233.553 54.8475 233.593 54.454 233.66 54.083C233.799 53.3363 233.852 52.6299 233.924 51.9861C233.995 51.3423 234 50.7611 234.04 50.247C234.08 49.7328 234.071 49.2947 234.071 48.9325C234.071 48.5704 234.071 48.3156 234.071 48.0965C234.065 47.9903 234.071 47.8838 234.089 47.7791Z" fill="#263238"/>
<path d="M214.927 61.4553L206.124 54.4585L208.565 51.387L214.467 56.0814L223.086 46.4377L226.01 49.0487L214.927 61.4553Z" fill="white"/>
<path d="M237.478 188.816C237.517 192.142 236.569 195.405 234.755 198.192C232.941 200.98 230.341 203.168 227.285 204.479C224.228 205.791 220.852 206.168 217.581 205.562C214.311 204.957 211.293 203.396 208.909 201.076C206.525 198.757 204.882 195.784 204.186 192.531C203.49 189.279 203.774 185.893 205.001 182.802C206.228 179.71 208.343 177.051 211.08 175.161C213.816 173.271 217.052 172.234 220.377 172.18C224.849 172.124 229.161 173.844 232.367 176.963C235.573 180.081 237.411 184.344 237.478 188.816ZM212.602 189.219C212.634 190.808 213.136 192.353 214.045 193.657C214.954 194.962 216.229 195.968 217.709 196.548C219.189 197.129 220.808 197.258 222.361 196.92C223.915 196.582 225.333 195.791 226.437 194.647C227.542 193.504 228.283 192.058 228.567 190.494C228.85 188.93 228.665 187.317 228.033 185.858C227.401 184.399 226.351 183.16 225.015 182.297C223.68 181.435 222.119 180.987 220.529 181.01C218.39 181.049 216.354 181.935 214.867 183.474C213.381 185.013 212.567 187.079 212.602 189.219Z" fill="#F5F5F5"/>
<path d="M237.478 188.816C237.556 193.286 235.859 197.605 232.758 200.825C229.657 204.046 225.406 205.906 220.936 205.998L220.793 197.172C222.912 197.102 224.918 196.202 226.38 194.666C227.842 193.13 228.641 191.081 228.607 188.961C228.572 186.842 227.706 184.82 226.195 183.333C224.684 181.846 222.649 181.011 220.529 181.01L220.386 172.185C224.856 172.13 229.166 173.85 232.37 176.967C235.574 180.085 237.411 184.346 237.478 188.816Z" fill="#455A64"/>
<path d="M212.603 189.219C212.596 189.176 212.596 189.132 212.603 189.089V188.705C212.6 188.495 212.615 188.286 212.647 188.079C212.67 187.795 212.716 187.514 212.786 187.238C212.949 186.471 213.231 185.733 213.622 185.052C214.542 183.392 216.019 182.11 217.793 181.433C219.567 180.757 221.523 180.729 223.315 181.355C224.062 181.606 224.766 181.971 225.403 182.437C225.732 182.674 226.045 182.933 226.342 183.21C226.634 183.504 226.906 183.818 227.155 184.149C228.21 185.533 228.795 187.219 228.823 188.959C228.851 190.699 228.321 192.402 227.312 193.82C226.847 194.504 226.273 195.108 225.613 195.608C224.994 196.095 224.303 196.483 223.565 196.757C221.793 197.433 219.84 197.465 218.047 196.847C216.254 196.229 214.735 195.001 213.756 193.377C213.348 192.708 213.047 191.979 212.862 191.218C212.785 190.944 212.729 190.664 212.696 190.381C212.659 190.175 212.638 189.966 212.634 189.756C212.634 189.599 212.634 189.474 212.634 189.376C212.629 189.331 212.629 189.286 212.634 189.241C212.69 189.9 212.799 190.554 212.96 191.195C213.163 191.943 213.476 192.655 213.89 193.31C214.432 194.179 215.132 194.937 215.956 195.545C217.027 196.337 218.281 196.844 219.601 197.021C220.922 197.198 222.265 197.038 223.507 196.556C224.226 196.287 224.898 195.908 225.501 195.434C226.139 194.952 226.694 194.371 227.146 193.712C228.122 192.334 228.633 190.681 228.606 188.993C228.578 187.305 228.014 185.669 226.994 184.323C226.522 183.679 225.948 183.116 225.295 182.656C224.678 182.201 223.995 181.844 223.27 181.596C221.516 180.994 219.608 181.022 217.872 181.675C216.137 182.327 214.683 183.564 213.761 185.173C213.367 185.839 213.076 186.561 212.898 187.314C212.75 187.941 212.651 188.577 212.603 189.219Z" fill="#263238"/>
<path d="M237.478 188.816C237.478 188.816 237.478 188.727 237.447 188.544C237.416 188.36 237.411 188.097 237.384 187.748C237.384 187.569 237.358 187.372 237.34 187.158C237.322 186.943 237.264 186.711 237.223 186.456C237.139 185.869 237.012 185.289 236.843 184.721C236.425 183.15 235.774 181.651 234.912 180.273C233.78 178.442 232.308 176.846 230.575 175.569C228.481 174.011 226.049 172.969 223.476 172.529C222.774 172.407 222.064 172.335 221.352 172.314C220.994 172.314 220.628 172.279 220.261 172.292L219.152 172.368C218.964 172.368 218.777 172.368 218.593 172.413L218.034 172.507C217.663 172.578 217.283 172.627 216.912 172.712C216.152 172.895 215.406 173.128 214.677 173.41C213.933 173.696 213.209 174.03 212.509 174.411C212.16 174.612 211.824 174.858 211.48 175.055C211.131 175.271 210.798 175.512 210.483 175.775C209.823 176.283 209.198 176.835 208.614 177.429L207.778 178.381L207.568 178.623L207.385 178.882L207.009 179.401L206.634 179.924L206.307 180.478L205.981 181.042L205.816 181.323L205.677 181.618L205.145 182.799C205.002 183.214 204.854 183.63 204.698 184.05C203.604 187.498 203.662 191.208 204.863 194.62C205.024 195.035 205.181 195.447 205.337 195.858L205.923 197.029L206.07 197.32L206.245 197.597L206.589 198.147L206.933 198.692L207.327 199.207L207.716 199.712L207.912 199.967L208.127 200.199L208.994 201.125C209.596 201.699 210.237 202.231 210.912 202.716C211.236 202.969 211.577 203.199 211.932 203.405C212.285 203.606 212.629 203.825 212.982 204.013C213.694 204.373 214.429 204.686 215.182 204.947C215.913 205.202 216.66 205.411 217.418 205.573C217.793 205.645 218.173 205.68 218.549 205.739L219.108 205.815C219.295 205.837 219.483 205.815 219.666 205.846L220.78 205.886C221.146 205.886 221.508 205.841 221.87 205.824C222.581 205.78 223.288 205.686 223.985 205.542C226.543 205.02 228.94 203.9 230.982 202.274C232.673 200.942 234.092 199.298 235.162 197.432C235.982 196.028 236.585 194.509 236.951 192.925C237.1 192.352 237.208 191.77 237.273 191.181C237.308 190.927 237.353 190.69 237.371 190.475C237.389 190.26 237.371 190.059 237.398 189.885C237.398 189.536 237.425 189.272 237.434 189.085C237.442 188.897 237.434 188.807 237.434 188.807C237.434 188.807 237.434 188.901 237.434 189.085C237.434 189.268 237.434 189.532 237.434 189.885C237.434 190.064 237.434 190.26 237.434 190.48C237.434 190.699 237.38 190.927 237.349 191.19C237.29 191.783 237.188 192.37 237.045 192.947C236.684 194.545 236.081 196.079 235.256 197.494C234.19 199.388 232.768 201.058 231.067 202.412C229.01 204.064 226.591 205.204 224.008 205.739C223.302 205.888 222.586 205.986 221.866 206.034C221.504 206.034 221.133 206.092 220.762 206.096L219.68 206.047C219.492 206.047 219.3 206.047 219.112 206.02L218.544 205.944C218.164 205.886 217.78 205.85 217.4 205.779C215.838 205.451 214.324 204.924 212.897 204.21C212.535 204.017 212.187 203.798 211.829 203.593C211.47 203.385 211.125 203.153 210.796 202.9C210.111 202.406 209.46 201.866 208.847 201.286L207.953 200.347L207.734 200.114L207.537 199.855L207.139 199.341L206.741 198.827L206.392 198.272L206.039 197.713L205.865 197.436L205.717 197.137C205.521 196.743 205.319 196.345 205.123 195.947C204.926 195.549 204.801 195.116 204.644 194.7C203.42 191.238 203.359 187.47 204.47 183.97L204.917 182.705L205.471 181.498L205.61 181.198L205.78 180.912L206.111 180.344L206.442 179.781L206.822 179.249L207.202 178.726L207.394 178.462L207.604 178.22L208.453 177.255C209.045 176.653 209.677 176.093 210.345 175.578C210.666 175.316 211.003 175.074 211.355 174.854C211.708 174.639 212.048 174.407 212.401 174.206C213.809 173.451 215.309 172.883 216.863 172.516C217.243 172.431 217.628 172.382 218.003 172.314L218.567 172.216C218.754 172.189 218.947 172.189 219.134 172.171L220.257 172.1C220.628 172.1 220.994 172.1 221.361 172.127C222.082 172.149 222.8 172.222 223.511 172.346C225.878 172.767 228.127 173.686 230.112 175.042C232.096 176.399 233.768 178.162 235.019 180.214C235.882 181.606 236.527 183.121 236.933 184.708C237.092 185.28 237.212 185.862 237.29 186.451C237.326 186.711 237.375 186.943 237.398 187.158C237.42 187.372 237.398 187.573 237.429 187.752C237.429 188.097 237.46 188.365 237.474 188.553C237.487 188.74 237.478 188.816 237.478 188.816Z" fill="#263238"/>
<path d="M222.429 207.357C219.871 207.42 217.325 206.971 214.943 206.036C212.56 205.102 210.388 203.702 208.553 201.917C206.719 200.132 205.259 197.999 204.26 195.643C203.261 193.286 202.743 190.754 202.735 188.195L213.018 188.03C213.099 193.247 217.069 196.524 222.259 196.448L222.429 207.357Z" fill="#2952CE"/>
<path d="M222.429 207.357C222.424 207.289 222.424 207.22 222.429 207.152C222.429 207.013 222.429 206.821 222.429 206.579C222.429 206.061 222.398 205.327 222.371 204.389C222.331 202.493 222.273 199.779 222.201 196.448L222.286 196.533C221.244 196.548 220.205 196.42 219.197 196.153C218.089 195.861 217.049 195.355 216.134 194.664C215.15 193.912 214.354 192.94 213.81 191.825C213.237 190.643 212.931 189.348 212.915 188.034L213.032 188.146L205.074 188.276L202.758 188.311L202.869 188.195C202.928 190.26 203.28 192.306 203.916 194.271C204.094 194.718 204.264 195.201 204.439 195.657C204.613 196.113 204.859 196.551 205.065 196.967C205.27 197.392 205.505 197.803 205.767 198.196C205.997 198.597 206.251 198.984 206.527 199.354L207.345 200.427C207.635 200.767 207.944 201.08 208.239 201.398L208.686 201.845L209.16 202.265L210.085 203.079C211.263 204.005 212.542 204.794 213.899 205.43L214.793 205.851C215.097 205.971 215.401 206.065 215.687 206.172L216.506 206.494C216.783 206.579 217.06 206.633 217.324 206.7L218.088 206.888L218.446 206.973L218.799 207.026L220.06 207.201C220.391 207.251 220.726 207.278 221.061 207.281L221.799 207.321L222.246 207.348H222.407H221.808H221.057C220.716 207.353 220.376 207.334 220.038 207.29L218.768 207.129L218.415 207.085L218.048 207L217.279 206.821C217.015 206.758 216.734 206.709 216.456 206.624L215.598 206.333C215.307 206.231 214.999 206.137 214.704 206.02L213.787 205.6C212.413 204.969 211.117 204.182 209.924 203.253L208.986 202.435L208.507 202.015C208.36 201.858 208.212 201.697 208.06 201.541C207.77 201.219 207.452 200.906 207.166 200.566L206.334 199.484C206.056 199.109 205.798 198.72 205.561 198.317C205.295 197.918 205.058 197.502 204.85 197.07C204.64 196.623 204.403 196.202 204.211 195.729L203.683 194.325C203.033 192.339 202.673 190.27 202.615 188.182V188.065H202.731L205.051 188.03L213.005 187.905H213.121V188.016C213.129 189.298 213.419 190.562 213.971 191.718C214.49 192.802 215.255 193.75 216.206 194.486C217.097 195.165 218.111 195.665 219.193 195.957C220.184 196.223 221.206 196.353 222.233 196.346H222.318V196.43C222.353 199.788 222.38 202.52 222.403 204.429C222.403 205.359 222.403 206.088 222.403 206.597C222.403 206.834 222.403 207.017 222.403 207.156C222.417 207.222 222.426 207.29 222.429 207.357Z" fill="#263238"/>
<path d="M219.188 116.08C219.188 116.08 219.188 115.744 219.148 115.087L219.112 113.867C219.112 113.384 219.09 112.821 219.027 112.181C218.965 111.542 218.92 110.84 218.857 110.044C218.795 109.248 218.652 108.403 218.535 107.478C218.229 105.347 217.815 103.232 217.297 101.143C216.632 98.5311 215.794 95.9667 214.789 93.4662C213.607 90.4853 212.186 87.6055 210.537 84.8553C206.511 78.1346 201.243 72.2415 195.014 67.4905C187.454 61.7282 178.647 57.8189 169.302 56.0764C161.384 54.6119 153.257 54.7045 145.374 56.3491C136.825 58.163 128.766 61.7967 121.746 67.0032C119.317 68.8234 117.015 70.8071 114.856 72.9405C112.682 75.1375 110.666 77.4861 108.825 79.9687C106.956 82.5029 105.289 85.1803 103.84 87.976C103.487 88.6868 103.089 89.3798 102.776 90.1086L101.788 92.2948C101.493 93.037 101.202 93.7836 100.894 94.5303L100.67 95.0891L100.478 95.6614L100.089 96.8014L99.7045 97.9505L99.3736 99.1173C99.1635 99.8953 98.9042 100.664 98.7433 101.46C98.5823 102.256 98.3766 103.043 98.1978 103.839C98.019 104.634 97.9072 105.444 97.7507 106.248C96.6897 112.755 96.6897 119.391 97.7507 125.898C98.2654 129.105 99.043 132.265 100.076 135.345L100.46 136.489L100.652 137.062L100.876 137.625C101.171 138.371 101.466 139.114 101.77 139.86C102.074 140.607 102.427 141.318 102.758 142.042C103.089 142.766 103.469 143.464 103.822 144.179C105.267 146.977 106.931 149.656 108.798 152.191C110.642 154.676 112.657 157.029 114.829 159.232C116.991 161.365 119.294 163.349 121.723 165.17C126.455 168.669 131.664 171.469 137.193 173.486C139.861 174.437 142.588 175.214 145.356 175.81C153.24 177.455 161.369 177.547 169.289 176.083C178.633 174.337 187.439 170.428 195.001 164.669C201.229 159.918 206.496 154.025 210.519 147.304C212.169 144.555 213.591 141.675 214.771 138.693C215.776 136.193 216.614 133.628 217.279 131.017C217.856 128.656 218.258 126.546 218.522 124.686C218.634 123.756 218.759 122.898 218.839 122.115C218.92 121.333 218.96 120.618 219.009 119.978C219.058 119.339 219.085 118.78 219.094 118.293C219.103 117.806 219.121 117.399 219.13 117.072C219.152 116.415 219.17 116.08 219.17 116.08C219.17 116.08 219.17 116.415 219.17 117.072C219.17 117.403 219.161 117.81 219.143 118.293C219.143 118.78 219.143 119.343 219.067 119.983C218.991 120.622 218.969 121.324 218.911 122.124C218.853 122.925 218.741 123.783 218.607 124.677C218.311 126.817 217.908 128.94 217.4 131.039C216.742 133.658 215.911 136.229 214.914 138.738C213.736 141.727 212.315 144.614 210.667 147.371C206.644 154.116 201.375 160.034 195.139 164.808C187.557 170.587 178.73 174.516 169.36 176.28C161.417 177.756 153.262 177.668 145.352 176.021C142.573 175.423 139.835 174.645 137.157 173.691C131.602 171.676 126.367 168.87 121.612 165.362C119.174 163.535 116.861 161.545 114.691 159.407C112.511 157.196 110.488 154.836 108.637 152.343C106.763 149.796 105.091 147.105 103.639 144.295C103.286 143.584 102.888 142.887 102.57 142.154C102.253 141.421 101.913 140.696 101.582 139.963C101.251 139.23 100.992 138.47 100.688 137.728L100.469 137.164L100.263 136.57L99.8744 135.421C98.8419 132.328 98.0615 129.157 97.5406 125.938C96.4765 119.404 96.4765 112.742 97.5406 106.208C97.6837 105.403 97.8327 104.599 97.9877 103.794C98.171 102.994 98.3498 102.202 98.5331 101.406C98.7164 100.611 98.9802 99.8372 99.168 99.0503L99.4988 97.8789L99.8878 96.7299L100.277 95.5809L100.473 95.0086L100.693 94.4453C100.992 93.6987 101.287 92.9476 101.587 92.2099C101.886 91.4722 102.244 90.7479 102.575 90.0192C102.906 89.2904 103.29 88.593 103.643 87.8776C105.095 85.0679 106.767 82.3771 108.642 79.8301C110.49 77.3354 112.513 74.9748 114.695 72.7661C116.864 70.6292 119.175 68.6411 121.612 66.8154C126.358 63.3009 131.588 60.4924 137.139 58.4773C139.816 57.5229 142.552 56.7434 145.33 56.1435C153.24 54.5026 161.394 54.416 169.338 55.8886C178.708 57.6487 187.536 61.5759 195.117 67.3564C201.354 72.1302 206.625 78.0477 210.649 84.7927C212.296 87.5501 213.715 90.4374 214.892 93.426C215.898 95.932 216.736 98.5025 217.4 101.12C217.972 103.485 218.37 105.614 218.625 107.464C218.737 108.394 218.857 109.253 218.933 110.04C219.009 110.827 219.045 111.542 219.09 112.177C219.134 112.812 219.157 113.379 219.166 113.867C219.175 114.354 219.166 114.761 219.193 115.087C219.188 115.736 219.188 116.08 219.188 116.08Z" fill="#455A64"/>
<path d="M193.704 116.08C193.704 116.08 193.704 115.812 193.704 115.289C193.704 114.766 193.682 113.988 193.66 112.973C193.566 110.934 193.467 107.925 193.016 104.08C192.492 99.404 191.628 94.7718 190.432 90.2208C188.886 84.1823 186.585 78.3629 183.582 72.9007C181.818 69.7381 179.71 66.7799 177.296 64.0797C174.689 61.1437 171.535 58.743 168.01 57.0113C166.138 56.1369 164.151 55.5347 162.109 55.223C160.001 54.9178 157.857 54.9525 155.76 55.3258C151.495 56.0993 147.471 58.3436 144.06 61.357C142.329 62.8898 140.748 64.5845 139.339 66.418C137.878 68.28 136.555 70.2465 135.382 72.3016C134.172 74.3951 133.086 76.5583 132.132 78.7799C131.148 81.0398 130.279 83.3482 129.53 85.6963C127.989 90.5125 126.847 95.447 126.114 100.45C124.606 110.784 124.606 121.282 126.114 131.616C126.843 136.628 127.986 141.57 129.53 146.393C130.278 148.743 131.147 151.052 132.132 153.314C133.087 155.535 134.173 157.698 135.382 159.792C136.553 161.85 137.876 163.818 139.339 165.68C140.748 167.514 142.329 169.208 144.06 170.741C147.471 173.754 151.495 175.994 155.76 176.772C157.857 177.145 160.001 177.18 162.109 176.875C164.151 176.564 166.139 175.962 168.01 175.087C171.536 173.355 174.691 170.954 177.301 168.018C179.711 165.316 181.819 162.358 183.587 159.197C186.587 153.735 188.887 147.915 190.432 141.877C191.628 137.326 192.492 132.694 193.016 128.017C193.463 124.168 193.566 121.159 193.66 119.125C193.682 118.106 193.695 117.337 193.704 116.805C193.713 116.273 193.704 116.013 193.704 116.013C193.704 116.013 193.704 116.281 193.704 116.805C193.704 117.328 193.704 118.106 193.682 119.125C193.601 121.164 193.517 124.173 193.078 128.026C192.571 132.702 191.721 137.335 190.534 141.886C188.996 147.94 186.701 153.776 183.703 159.255C181.936 162.432 179.823 165.404 177.404 168.117C174.785 171.078 171.612 173.497 168.064 175.239C166.176 176.116 164.172 176.719 162.113 177.027C159.983 177.336 157.817 177.303 155.698 176.929C151.388 176.146 147.328 173.888 143.894 170.857C142.163 169.343 140.578 167.669 139.16 165.859C137.693 163.988 136.364 162.013 135.185 159.948C133.969 157.848 132.879 155.678 131.922 153.448C130.939 151.18 130.072 148.864 129.324 146.509C127.778 141.672 126.631 136.717 125.895 131.692C124.378 121.337 124.378 110.815 125.895 100.459C126.626 95.4369 127.773 90.4841 129.324 85.6516C130.074 83.2951 130.945 80.9791 131.935 78.7129C132.894 76.4837 133.984 74.313 135.199 72.2122C136.374 70.1488 137.698 68.1735 139.16 66.3018C140.581 64.4604 142.174 62.7583 143.917 61.2184C147.346 58.1871 151.406 55.9249 155.72 55.147C157.838 54.7684 160.003 54.7352 162.131 55.0486C164.191 55.3574 166.197 55.9596 168.086 56.837C171.633 58.5813 174.805 61.0005 177.426 63.959C179.843 66.6706 181.952 69.6409 183.716 72.8158C186.719 78.2932 189.015 84.1296 190.548 90.1851C191.736 94.7363 192.587 99.3687 193.096 104.045C193.543 107.899 193.619 110.912 193.7 112.946C193.7 113.966 193.7 114.735 193.722 115.267C193.745 115.799 193.704 116.08 193.704 116.08Z" fill="#455A64"/>
<path d="M206.496 78.3997L206.263 78.5159L205.57 78.8378L202.888 80.0539L200.947 80.9257C200.232 81.2297 199.436 81.5158 198.591 81.8467C196.888 82.4815 194.983 83.2997 192.779 83.948L189.363 85.0478C188.773 85.2535 188.152 85.3965 187.526 85.562L185.608 86.0672L183.623 86.5858L182.608 86.8496L181.562 87.0642L177.234 87.9583C170.773 89.1094 164.234 89.7626 157.674 89.9121C151.11 89.9698 144.551 89.5214 138.056 88.5709L133.701 87.8197L132.65 87.6409L131.627 87.4084L129.628 86.9613L127.692 86.5143C127.062 86.3667 126.436 86.2415 125.841 86.0672L122.39 85.0746C120.177 84.4979 118.245 83.7334 116.524 83.1611C115.67 82.8571 114.865 82.5978 114.141 82.3161L112.174 81.5024L109.456 80.3713L108.758 80.0583L108.521 79.951C108.521 79.951 108.606 79.951 108.772 80.036L109.482 80.3132L112.214 81.4041L114.19 82.1954C114.915 82.4726 115.719 82.7274 116.578 83.0225C118.303 83.5903 120.23 84.3369 122.448 84.9047L125.895 85.8794C126.49 86.0627 127.116 86.1834 127.746 86.3265L129.677 86.7736L131.676 87.2207L132.7 87.4487L133.75 87.623L138.1 88.3652C144.584 89.2972 151.129 89.7366 157.678 89.6796C164.226 89.5311 170.753 88.8839 177.203 87.7437L181.526 86.8496L182.568 86.6394L183.587 86.3801L185.567 85.866L187.481 85.3697C188.107 85.2043 188.728 85.0657 189.319 84.86L192.739 83.7781C194.929 83.1388 196.839 82.334 198.551 81.7126C199.396 81.3862 200.196 81.109 200.911 80.8184L202.861 79.9645L205.543 78.7886L206.25 78.4891C206.411 78.4265 206.496 78.3997 206.496 78.3997Z" fill="#455A64"/>
<path d="M108.968 153.197C108.968 153.197 109.044 153.152 109.201 153.081L109.903 152.755L112.585 151.534L114.539 150.64C115.259 150.336 116.064 150.05 116.913 149.719C118.63 149.079 120.552 148.266 122.761 147.613L126.203 146.513C126.798 146.308 127.428 146.169 128.059 145.999L129.99 145.494L131.989 144.975C132.328 144.89 132.668 144.792 133.013 144.716L134.068 144.501L138.427 143.607C144.941 142.464 151.532 141.816 158.143 141.667C164.753 141.614 171.358 142.062 177.9 143.008L182.286 143.755L183.345 143.938C183.694 144.005 184.038 144.09 184.378 144.166L186.395 144.613L188.339 145.06C188.979 145.212 189.609 145.328 190.208 145.507L193.687 146.5C195.922 147.081 197.862 147.841 199.597 148.418C200.46 148.722 201.269 148.986 201.998 149.263L203.983 150.081L206.719 151.217L207.43 151.521L207.667 151.628L207.421 151.543L206.701 151.261L203.947 150.161L201.962 149.366C201.229 149.088 200.415 148.834 199.552 148.534C197.818 147.966 195.868 147.224 193.642 146.652L190.163 145.691C189.564 145.507 188.934 145.391 188.299 145.243L186.354 144.796L184.338 144.349C183.998 144.278 183.658 144.193 183.31 144.126L182.25 143.947L177.869 143.209C171.336 142.286 164.745 141.851 158.148 141.908C151.552 142.06 144.976 142.704 138.476 143.835L134.117 144.729L133.066 144.939C132.722 145.015 132.382 145.114 132.042 145.194L130.053 145.691L128.126 146.187C127.495 146.357 126.865 146.491 126.275 146.692L122.828 147.778C120.619 148.418 118.697 149.223 116.98 149.848C116.126 150.175 115.321 150.456 114.597 150.743L112.639 151.601L109.921 152.786L109.21 153.085L108.968 153.197Z" fill="#455A64"/>
<path d="M219.188 117.077C219.188 117.144 191.916 117.198 158.317 117.198C124.719 117.198 97.4468 117.135 97.4468 117.077C97.4468 117.019 124.697 116.961 158.317 116.961C191.938 116.961 219.188 117.005 219.188 117.077Z" fill="#455A64"/>
<path d="M159.279 177.237C159.216 177.237 159.069 149.857 158.948 116.084C158.827 82.3117 158.796 54.9321 158.859 54.9321C158.921 54.9321 159.073 82.3117 159.189 116.093C159.306 149.875 159.35 177.237 159.279 177.237Z" fill="#455A64"/>
<path d="M114.557 154.075L110.516 158.406C110.516 158.406 93.2999 186.342 91.2251 188.535C89.9148 189.918 86.6753 191.711 82.3621 192.175C79.9416 192.402 73.5354 187.498 73.5354 187.498L79.1408 170.29L85.5106 168.552L100.743 152.173L114.557 154.075Z" fill="#FFBF9D"/>
<path d="M109.397 160.553C110.807 158.86 114.42 155.384 114.42 155.384L115.94 153.764C116.012 153.897 116.07 154.038 116.113 154.183C116.179 154.46 116.314 154.717 116.504 154.929C116.724 155.083 116.986 155.166 117.255 155.166C117.523 155.166 117.785 155.083 118.005 154.929C118.484 154.657 118.885 154.266 119.166 153.793C119.448 153.319 119.603 152.781 119.614 152.23C119.625 151.68 119.492 151.136 119.229 150.652C118.967 150.168 118.582 149.76 118.114 149.469C118.035 149.167 117.892 148.885 117.696 148.641C116.404 146.985 113.374 147.204 113.374 147.204L113.829 146.567C113.829 146.567 115.894 145.275 119.334 147.477C119.846 147.807 120.46 147.939 121.063 147.85C121.247 147.829 121.424 147.768 121.581 147.67C121.739 147.573 121.872 147.441 121.973 147.286C122.473 146.439 121.973 145.866 119.88 144.474C117.787 143.081 115.239 142.445 113.647 143.036C112.901 143.287 112.174 143.591 111.472 143.946C111.472 143.946 115.221 137.895 115.448 137.494C116.085 136.366 116.122 135.119 115.403 134.619C114.939 134.291 114.129 134.228 113.337 135.529C112.655 136.648 104.237 147.286 104.237 147.286L100.771 152.208L109.397 160.553Z" fill="#FFBF9D"/>
<path d="M101.999 152.354C102.296 152.605 102.666 152.753 103.054 152.777C103.443 152.802 103.828 152.701 104.155 152.491C104.838 152.136 105.393 151.581 106.048 151.153C108.023 149.952 110.725 150.443 112.636 149.142C112.909 148.96 113.173 148.651 113.055 148.35C112.936 148.05 112.581 148.023 112.281 148.005L104.628 147.695" fill="#FFBF9D"/>
<path d="M104.628 147.696C104.901 147.643 105.179 147.624 105.456 147.641H107.722L111.071 147.732H112.035C112.431 147.687 112.829 147.798 113.145 148.041C113.228 148.14 113.28 148.261 113.294 148.388C113.309 148.516 113.286 148.646 113.227 148.76C113.128 148.949 112.984 149.112 112.809 149.233C112.495 149.445 112.159 149.622 111.808 149.761C110.487 150.158 109.14 150.462 107.776 150.671C107.21 150.795 106.664 151 106.157 151.281C105.693 151.554 105.301 151.9 104.901 152.191C104.601 152.447 104.248 152.635 103.868 152.742C103.488 152.849 103.089 152.872 102.699 152.81C102.144 152.664 101.98 152.346 101.998 152.346C102.225 152.487 102.474 152.589 102.735 152.646C103.097 152.671 103.46 152.621 103.802 152.499C104.143 152.377 104.455 152.185 104.719 151.936C105.092 151.654 105.474 151.299 105.966 150.981C106.498 150.667 107.075 150.433 107.676 150.289C109.017 150.07 110.342 149.766 111.644 149.379C111.965 149.258 112.27 149.099 112.554 148.906C112.809 148.724 112.954 148.46 112.827 148.351C112.699 148.242 112.354 148.187 112.017 148.178L111.052 148.132L107.704 147.95L105.447 147.787C105.171 147.794 104.895 147.764 104.628 147.696Z" fill="#FF9A6C"/>
<path d="M113.274 147.141C113.574 146.761 113.952 146.45 114.384 146.231C114.868 146.031 115.403 145.989 115.912 146.112C116.557 146.265 117.172 146.523 117.732 146.877C118.307 147.24 118.917 147.545 119.552 147.787C120.085 147.981 120.66 148.028 121.218 147.923C121.413 147.891 121.598 147.812 121.756 147.693C121.915 147.575 122.042 147.419 122.128 147.241C122.196 147.115 122.227 146.973 122.219 146.831C122.219 146.831 122.155 146.968 122.027 147.186C121.938 147.332 121.818 147.457 121.674 147.552C121.531 147.646 121.369 147.708 121.199 147.732C120.676 147.797 120.144 147.731 119.652 147.541C119.042 147.294 118.457 146.99 117.905 146.631C117.324 146.272 116.688 146.011 116.022 145.857C115.463 145.735 114.879 145.806 114.366 146.058C114.023 146.228 113.729 146.482 113.51 146.795C113.405 146.89 113.324 147.008 113.274 147.141Z" fill="#FF9A6C"/>
<path d="M115.695 136.986C115.408 137.363 115.156 137.765 114.939 138.187L113.201 141.117L111.381 144.02C111.106 144.403 110.869 144.811 110.672 145.239C111.019 144.908 111.325 144.535 111.581 144.129C112.091 143.41 112.755 142.4 113.447 141.263C114.138 140.125 114.721 139.061 115.112 138.278C115.356 137.872 115.552 137.438 115.695 136.986Z" fill="#FF9A6C"/>
<path d="M113.811 149.353C113.953 149.394 114.099 149.422 114.247 149.434C114.437 149.444 114.621 149.495 114.788 149.585C114.955 149.675 115.1 149.8 115.212 149.953C115.273 150.06 115.304 150.181 115.304 150.303C115.304 150.426 115.273 150.547 115.212 150.654C115.065 150.924 114.885 151.175 114.675 151.4C114.407 151.684 114.251 152.056 114.238 152.446C114.255 152.657 114.322 152.861 114.433 153.041C114.543 153.221 114.695 153.373 114.875 153.484C115.052 153.595 115.25 153.668 115.457 153.698C115.664 153.728 115.875 153.714 116.076 153.657C116.448 153.567 116.784 153.367 117.041 153.083C117.421 152.607 117.727 152.076 117.951 151.509C118.119 151.135 118.22 150.735 118.251 150.326C118.269 150.172 118.247 150.015 118.187 149.871C118.187 149.871 118.187 150.035 118.142 150.308C118.075 150.698 117.95 151.075 117.769 151.427C117.534 151.96 117.228 152.459 116.859 152.91C116.635 153.159 116.335 153.327 116.006 153.388C115.677 153.449 115.337 153.399 115.039 153.247C114.894 153.163 114.771 153.044 114.682 152.901C114.593 152.758 114.541 152.596 114.529 152.428C114.527 152.089 114.657 151.762 114.893 151.518C115.108 151.269 115.292 150.994 115.439 150.699C115.511 150.556 115.544 150.397 115.534 150.237C115.525 150.077 115.473 149.923 115.385 149.789C115.252 149.621 115.081 149.486 114.887 149.394C114.693 149.303 114.48 149.257 114.266 149.262C114.11 149.265 113.956 149.295 113.811 149.353Z" fill="#FF9A6C"/>
<path d="M116.095 153.41C116.095 153.41 115.977 153.51 115.922 153.774C115.894 153.963 115.909 154.157 115.966 154.339C116.022 154.522 116.12 154.69 116.25 154.83C116.458 155.026 116.712 155.166 116.989 155.236C117.267 155.306 117.557 155.304 117.833 155.23C118.494 155.028 119.053 154.582 119.398 153.983C119.728 153.462 119.896 152.854 119.881 152.238C119.867 151.621 119.67 151.022 119.316 150.516C119.099 150.2 118.821 149.931 118.498 149.725C118.279 149.579 118.152 149.534 118.143 149.552C118.512 149.853 118.837 150.206 119.107 150.598C119.384 151.029 119.544 151.525 119.571 152.036C119.607 152.659 119.452 153.278 119.125 153.811C118.818 154.349 118.322 154.754 117.733 154.948C117.497 155.021 117.246 155.032 117.004 154.982C116.762 154.931 116.537 154.819 116.35 154.657C116.23 154.538 116.137 154.396 116.076 154.24C116.015 154.083 115.987 153.915 115.995 153.747C116.05 153.547 116.123 153.419 116.095 153.41Z" fill="#FF9A6C"/>
<path d="M109.398 154.929C109.398 154.929 109.225 154.729 108.815 154.584C108.252 154.394 107.641 154.394 107.077 154.584L107.25 154.766C107.39 154.471 107.509 154.167 107.605 153.856C108.009 152.803 108.11 151.659 107.896 150.552C107.831 151.64 107.645 152.718 107.341 153.765C107.246 154.074 107.134 154.378 107.005 154.675L106.877 154.966L107.168 154.857C107.682 154.67 108.24 154.641 108.77 154.775C109.198 154.838 109.398 154.957 109.398 154.929Z" fill="#FF9A6C"/>
<path d="M115.849 144.638C115.805 144.836 115.808 145.041 115.859 145.238C115.91 145.434 116.006 145.615 116.14 145.767C116.531 146.331 117.05 146.495 117.105 146.422C117.159 146.349 116.704 146.094 116.368 145.603C116.031 145.112 115.931 144.638 115.849 144.638Z" fill="#FF9A6C"/>
<path d="M83.0083 205.151L74.3909 190.674L74.8277 177.024C76.6476 171.41 75.4647 162.155 72.935 156.814L64.6452 138.678L58.0024 136.804L41.4774 135.894C40.5038 135.894 36.9276 136.23 30.8035 138.178C25.6531 139.816 23.0233 142.355 20.2479 146.813L30.0392 192.039C30.0392 192.039 22.0861 211.057 23.5056 221.931L83.0083 205.151Z" fill="#2952CE"/>
<path d="M64.6451 138.641C64.6451 138.641 76.2108 141.207 80.433 156.995L85.6198 173.811L76.1289 174.394L64.6451 138.641Z" fill="#2952CE"/>
<g opacity="0.3">
<path d="M35.0715 193.786C41.8052 190.855 49.549 190.428 55.8733 186.697C58.2938 185.277 60.4231 183.403 62.9073 182.074C65.3915 180.746 68.3671 180.009 71.006 181.037C73.6449 182.065 75.5558 185.987 74.2364 188.453C73.7177 189.764 71.2426 190.992 69.8413 190.874C68.4399 190.755 67.1114 190.173 65.71 189.964C62.7071 189.591 59.8225 191.065 57.1108 192.421C51.2778 195.333 45.2518 197.841 39.0753 199.928C37.6644 200.521 36.1339 200.773 34.6074 200.665C33.8483 200.588 33.1355 200.264 32.5783 199.743C32.021 199.222 31.6502 198.532 31.5226 197.78C31.3952 195.897 33.3243 194.55 35.0715 193.786Z" fill="black"/>
</g>
<g opacity="0.3">
<path d="M34.7798 175.714C34.7798 175.714 36.1812 175.35 37.0456 175.095C37.5137 174.903 37.9317 174.606 38.2676 174.227C38.6035 173.849 38.8485 173.399 38.9839 172.911C39.0492 172.499 39.0275 172.077 38.9202 171.673C37.8646 165.886 36.7999 160.099 35.2803 154.384C35.3163 159.833 35.6718 165.275 36.345 170.682C36.3911 171.391 36.3911 172.102 36.345 172.811L34.525 173.129L34.7798 175.714Z" fill="black"/>
</g>
<path d="M70.5508 150.198C70.5922 150.333 70.6503 150.461 70.7237 150.581L71.2697 151.645C71.5714 152.204 71.8447 152.778 72.0886 153.365C72.3889 154.029 72.7802 154.776 73.1078 155.64C73.4354 156.505 73.8449 157.46 74.1724 158.461C74.5 159.462 74.8367 160.609 75.1734 161.782C76.5048 166.923 76.9358 172.255 76.4474 177.543C76.3018 178.753 76.2017 179.909 75.9833 180.974C75.7649 182.038 75.6011 183.039 75.3918 183.94C75.1825 184.841 74.9368 185.642 74.7457 186.351C74.5546 187.061 74.3544 187.662 74.1816 188.171C74.0087 188.681 73.9086 188.999 73.8085 189.309C73.7571 189.441 73.7204 189.578 73.6993 189.718C73.7813 189.601 73.8457 189.472 73.8904 189.336L74.3453 188.235C74.5944 187.641 74.8101 187.033 74.9914 186.415C75.2098 185.705 75.501 184.914 75.7012 184.004C75.9014 183.094 76.1835 182.111 76.3655 181.028C76.5475 179.945 76.7113 178.79 76.8659 177.57C77.1183 174.908 77.1457 172.229 76.9478 169.563C76.7132 166.896 76.2567 164.254 75.5829 161.664C75.2371 160.481 74.9277 159.353 74.5273 158.334C74.2001 157.371 73.8235 156.427 73.399 155.504C73.0532 154.639 72.6437 153.902 72.3161 153.238C71.9885 152.573 71.67 152.028 71.4062 151.582L70.7692 150.562C70.6509 150.308 70.569 150.189 70.5508 150.198Z" fill="#263238"/>
<path d="M81.5514 162.291C81.7285 161.946 81.9971 161.657 82.3278 161.454C82.6584 161.252 83.0384 161.145 83.426 161.144H119.761C120.102 161.145 120.437 161.234 120.734 161.403C121.03 161.573 121.277 161.816 121.45 162.11C121.624 162.404 121.718 162.738 121.723 163.079C121.729 163.42 121.645 163.757 121.481 164.056L109.496 185.65C109.135 186.3 108.608 186.843 107.968 187.223C107.329 187.604 106.601 187.808 105.857 187.815L70.5317 188.552C70.2785 188.558 70.0281 188.498 69.805 188.378C69.582 188.258 69.3939 188.082 69.2591 187.867C69.1244 187.653 69.0476 187.407 69.0362 187.154C69.0248 186.901 69.0792 186.649 69.1941 186.423L81.5514 162.291Z" fill="#263238"/>
<path d="M99.2139 170.654C99.0152 170.81 98.7748 170.905 98.5229 170.925C98.2709 170.945 98.0186 170.89 97.7976 170.768C97.5766 170.645 97.3968 170.46 97.2807 170.235C97.1646 170.011 97.1174 169.757 97.145 169.506C97.1727 169.254 97.2739 169.017 97.436 168.823C97.5982 168.629 97.814 168.487 98.0563 168.416C98.2987 168.344 98.5569 168.345 98.7984 168.42C99.04 168.494 99.2542 168.638 99.4141 168.834C99.5207 168.967 99.6002 169.119 99.6479 169.282C99.6956 169.446 99.7105 169.617 99.6919 169.786C99.6733 169.955 99.6215 170.119 99.5395 170.268C99.4575 170.417 99.3468 170.548 99.2139 170.654Z" fill="#EBEBEB"/>
<path d="M64.2999 174.876L68.2947 171.792C69.1033 170.786 70.1272 169.974 71.291 169.417C72.4548 168.859 73.7289 168.57 75.0193 168.57L78.4772 168.325L78.6774 170.245C78.6774 170.245 89.324 170.709 89.7153 172.019V172.693L80.6156 173.302C80.6156 173.302 88.3685 173.302 88.8053 173.302C89.2421 173.302 90.9619 173.175 90.9255 174.085C90.9255 174.831 90.0156 175.422 88.6779 175.614C88.1228 175.695 81.3982 176.278 81.3982 176.278L88.7871 176.214C89.6152 176.214 89.506 177.534 89.0146 177.706C88.5232 177.879 79.1688 180.591 79.1688 180.591C80.0356 181.184 81.05 181.524 82.0989 181.574C83.4001 181.483 85.6295 179.818 86.0936 180.6C86.5577 181.383 86.4576 181.856 86.1846 182.038C84.7833 182.825 83.3266 183.51 81.8259 184.085C80.8067 184.358 72.4714 185.678 72.4714 185.678L65.5648 184.768L64.2999 174.876Z" fill="#FFBF9D"/>
<path d="M82.3069 170.372C81.0644 170.248 79.8153 170.203 78.567 170.236C77.3195 170.192 76.0704 170.225 74.827 170.336C76.07 170.454 77.3187 170.5 78.567 170.472C79.8145 170.516 81.0636 170.483 82.3069 170.372Z" fill="#FF9A6C"/>
<path d="M64.2993 174.877L35.1804 182.329L32.1866 144.839C32.1866 144.839 28.0826 138.751 23.9059 143.283C19.7291 147.814 17.6453 153.292 17.9183 155.977C18.1913 158.661 18.7191 188.235 20.9212 193.567C24.0151 201.011 31.9227 200.61 34.1339 200.073C36.3451 199.537 67.8754 184.604 67.8754 184.604L64.2993 174.877Z" fill="#FFBF9D"/>
<path d="M33.1328 143.419C34.1702 151.736 36.1994 164.466 36.3086 172.847C36.3086 173.193 16.1528 174.876 16.1528 174.876C16.1528 174.876 16.8171 157.387 17.5724 151.618V151.417C17.9736 148.738 19.0872 146.215 20.7968 144.114C22.5064 142.012 24.7492 140.408 27.2908 139.47L30.776 138.159L33.1328 143.419Z" fill="#2952CE"/>
<path d="M16.1528 174.877H16.5623L17.7362 174.786L22.0403 174.395L36.3268 173.002H36.4542V172.866C36.4542 172.611 36.4542 172.329 36.3996 172.056C35.9901 166.259 35.6261 161.009 35.3531 157.187C35.2075 155.303 35.0892 153.775 35.0073 152.683L34.8981 151.454C34.8915 151.31 34.8733 151.167 34.8435 151.027C34.8319 151.172 34.8319 151.318 34.8435 151.463C34.8435 151.764 34.8435 152.173 34.9072 152.683C34.9709 153.775 35.0528 155.313 35.162 157.233C35.4168 161.064 35.7535 166.332 36.1266 172.111C36.1266 172.384 36.1266 172.666 36.1812 172.92L36.3086 172.775L22.0403 174.194L17.7453 174.668L16.5805 174.804C16.4358 174.813 16.2925 174.838 16.1528 174.877Z" fill="#263238"/>
<path d="M119.044 235.262C123.089 236.075 127.236 236.256 131.337 235.799C136.797 234.98 148.954 235.799 148.954 242.996C148.954 250.986 132.711 249.011 126.378 247.746C120.045 246.482 113.729 245.326 113.729 245.326L119.044 235.262Z" fill="#455A64"/>
<path d="M133.62 245.535C133.989 244.643 134.254 243.712 134.412 242.76C134.67 241.83 134.832 240.875 134.894 239.912C134.528 240.804 134.263 241.735 134.103 242.687C133.845 243.617 133.683 244.572 133.62 245.535Z" fill="#263238"/>
<path d="M131.409 245.644C131.873 243.763 132.138 241.839 132.201 239.902C131.909 240.828 131.723 241.783 131.646 242.751C131.464 243.704 131.385 244.674 131.409 245.644Z" fill="#263238"/>
<path d="M129.27 244.808C129.523 243.998 129.675 243.161 129.725 242.315C129.879 241.481 129.928 240.631 129.871 239.785C129.625 240.596 129.472 241.433 129.416 242.278C129.262 243.112 129.213 243.962 129.27 244.808Z" fill="#263238"/>
<path d="M125.914 243.97C126.654 242.616 127.025 241.09 126.987 239.547C126.752 240.27 126.57 241.009 126.441 241.759C126.208 242.481 126.032 243.22 125.914 243.97Z" fill="#263238"/>
<path d="M125.185 241.049C124.908 240.983 124.622 240.965 124.339 240.994C123.558 241.014 122.786 241.165 122.055 241.44C121.804 241.529 121.567 241.654 121.354 241.813C121.228 241.906 121.124 242.025 121.049 242.161C120.974 242.298 120.929 242.449 120.917 242.605C120.931 242.778 120.982 242.945 121.066 243.097C121.151 243.248 121.267 243.379 121.407 243.481C121.547 243.583 121.708 243.653 121.878 243.688C122.048 243.722 122.223 243.719 122.391 243.679C123.081 243.489 123.681 243.06 124.084 242.469C124.543 241.882 124.869 241.202 125.039 240.476C125.224 239.775 125.256 239.043 125.134 238.329C125.011 237.614 124.737 236.935 124.33 236.335C124.209 236.183 124.038 236.08 123.847 236.044C123.75 236.031 123.651 236.038 123.556 236.066C123.462 236.095 123.375 236.143 123.301 236.208C123.065 236.455 122.924 236.777 122.901 237.118C122.825 237.661 122.853 238.214 122.983 238.747C123.164 239.514 123.544 240.22 124.084 240.794C124.228 240.949 124.386 241.089 124.557 241.213C124.675 241.304 124.739 241.34 124.748 241.331C124.757 241.322 124.521 241.131 124.175 240.712C123.686 240.135 123.351 239.443 123.201 238.701C123.094 238.193 123.078 237.669 123.156 237.154C123.185 236.891 123.3 236.645 123.483 236.454C123.53 236.415 123.584 236.387 123.643 236.371C123.702 236.356 123.763 236.353 123.823 236.363C123.882 236.374 123.939 236.397 123.989 236.431C124.039 236.466 124.08 236.511 124.111 236.563C124.479 237.13 124.725 237.768 124.833 238.435C124.941 239.102 124.909 239.785 124.739 240.439C124.572 241.124 124.262 241.766 123.829 242.323C123.467 242.854 122.934 243.246 122.319 243.433C122.19 243.471 122.055 243.481 121.922 243.46C121.79 243.44 121.663 243.391 121.552 243.316C121.441 243.241 121.347 243.143 121.278 243.028C121.21 242.913 121.167 242.784 121.154 242.651C121.162 242.53 121.196 242.414 121.254 242.308C121.312 242.203 121.393 242.112 121.491 242.041C121.679 241.887 121.891 241.764 122.118 241.677C122.827 241.398 123.571 241.22 124.33 241.149C124.616 241.131 124.902 241.098 125.185 241.049Z" fill="#263238"/>
<path d="M114.374 244.307C114.374 244.307 114.429 244.307 114.538 244.361L115.029 244.479L116.913 244.907C118.551 245.271 120.926 245.772 123.874 246.345C126.823 246.918 130.362 247.564 134.312 248.101C136.384 248.436 138.486 248.54 140.581 248.411C141.698 248.339 142.802 248.128 143.866 247.783C144.413 247.602 144.94 247.367 145.44 247.082C145.967 246.802 146.437 246.426 146.824 245.972C147.04 245.769 147.23 245.54 147.388 245.289C147.69 244.765 147.876 244.181 147.933 243.578C147.989 242.975 147.915 242.367 147.715 241.795C147.325 240.689 146.596 239.734 145.632 239.065C144.728 238.427 143.73 237.932 142.674 237.6C142.156 237.455 141.655 237.282 141.136 237.163C140.618 237.045 140.117 236.918 139.608 236.854C135.54 236.208 131.837 236.535 128.761 236.535C127.214 236.535 125.822 236.535 124.602 236.444C123.558 236.373 122.519 236.243 121.49 236.053L120.371 235.817L119.561 235.589L119.061 235.453C118.951 235.453 118.897 235.407 118.888 235.453L119.051 235.516L119.543 235.689L120.344 235.944L121.463 236.208C122.493 236.419 123.536 236.567 124.584 236.654C125.813 236.754 127.214 236.808 128.761 236.79C131.846 236.79 135.54 236.517 139.562 237.172C140.063 237.245 140.563 237.382 141.073 237.482C141.582 237.582 142.074 237.773 142.583 237.919C143.607 238.243 144.574 238.725 145.45 239.347C146.361 239.977 147.052 240.878 147.424 241.922C147.607 242.453 147.674 243.016 147.622 243.574C147.571 244.133 147.401 244.674 147.124 245.162C146.984 245.388 146.812 245.594 146.614 245.772C146.249 246.186 145.815 246.534 145.331 246.8C144.846 247.07 144.338 247.296 143.812 247.473C142.771 247.813 141.692 248.021 140.599 248.092C138.526 248.222 136.445 248.124 134.394 247.801C130.444 247.273 126.923 246.654 123.965 246.117C121.008 245.581 118.624 245.098 116.977 244.771L115.084 244.407L114.593 244.307H114.374Z" fill="#263238"/>
<path d="M138.134 248.156C138.228 247.609 138.28 247.055 138.289 246.5C138.362 245.471 138.48 244.061 138.689 242.505C138.898 240.949 139.153 239.557 139.353 238.556C139.493 238.016 139.588 237.465 139.635 236.909C139.412 237.42 139.244 237.954 139.135 238.501C138.485 241.114 138.128 243.79 138.07 246.482C138.026 247.04 138.047 247.602 138.134 248.156Z" fill="#263238"/>
<g opacity="0.4">
<path d="M121.045 235.644L116.923 245.954L113.729 245.363L119.853 235.298L121.045 235.644Z" fill="black"/>
</g>
<path d="M24.8987 221.148L40.5957 208.244C41.4643 203.474 44.0861 199.201 47.9457 196.266C51.8052 193.331 56.6231 191.946 61.4521 192.384C65.3237 192.736 69.0006 194.242 72.0077 196.706L81.1073 203.84C95.2482 199.982 110.69 192.839 121.737 189.726C123.971 189.101 126.312 188.956 128.605 189.303C130.899 189.65 133.092 190.479 135.041 191.738L135.25 191.874C138.071 193.704 140.26 196.359 141.52 199.476C142.78 202.594 143.05 206.024 142.293 209.3C141.302 213.558 138.135 216.58 134.914 219.528C129.235 224.76 119.317 233.787 119.317 233.787L120.3 234.561L113.73 245.362L100.208 241.194C91.1079 239.893 71.7711 237.381 71.7711 237.381L77.2855 234.124L76.0206 233.742C65.5105 242.696 52.6618 246.818 36.7465 239.866C28.8935 236.171 23.9888 227.344 24.8987 221.148Z" fill="#263238"/>
<path d="M51.7959 219.71C51.8345 219.754 51.8772 219.793 51.9233 219.829L52.3146 220.156C52.6877 220.448 53.2246 220.857 53.8524 221.385L54.9717 222.295C55.3812 222.613 55.8817 222.914 56.3548 223.268L57.9655 224.36L58.8754 224.961L59.84 225.534C61.1503 226.317 62.5699 227.218 64.1714 228.028C64.9631 228.446 65.7821 228.938 66.6374 229.329L69.3036 230.594C72.9435 232.268 77.1021 233.951 81.5154 235.453C90.333 238.492 98.4954 240.685 104.337 242.45C105.802 242.887 107.122 243.288 108.277 243.652C109.433 244.016 110.434 244.316 111.244 244.562L113.109 245.171L113.601 245.326H113.765L113.61 245.253L113.128 245.08L111.308 244.416C110.507 244.125 109.488 243.797 108.359 243.424C107.231 243.051 105.884 242.623 104.428 242.178C98.5955 240.358 90.4513 238.128 81.6792 235.098C77.2749 233.597 73.1619 231.922 69.4856 230.266L66.8194 229.019C65.9641 228.601 65.1542 228.109 64.3534 227.736C62.7519 226.936 61.3323 226.053 60.0129 225.289L59.0483 224.724L58.1384 224.133L56.5277 223.059C56.0272 222.713 55.545 222.422 55.1355 222.104L54.0071 221.248C53.3337 220.748 52.806 220.338 52.4329 220.065L52.0143 219.765L51.7959 219.71Z" fill="#455A64"/>
<path d="M50.6229 224.76C50.7732 224.869 50.9388 224.955 51.1143 225.015C51.4328 225.161 51.906 225.361 52.4975 225.579C54.0434 226.146 55.6277 226.602 57.2384 226.944C58.8452 227.295 60.4752 227.529 62.1158 227.645C62.7437 227.69 63.2532 227.709 63.6081 227.699C63.7894 227.723 63.9729 227.723 64.1541 227.699C63.486 227.579 62.8115 227.497 62.134 227.454C60.8873 227.308 59.1675 227.072 57.3021 226.671C55.4366 226.271 53.7623 225.761 52.5703 225.397C51.933 225.15 51.283 224.938 50.6229 224.76Z" fill="#455A64"/>
<path d="M73.9078 198.526C73.8532 198.59 84.1904 206.716 96.9936 216.662C109.797 226.608 120.243 234.625 120.316 234.561C120.389 234.497 110.033 226.371 97.2302 216.416C84.427 206.461 73.9897 198.454 73.9078 198.526Z" fill="#455A64"/>
<path d="M36.763 233.378C36.7791 233.266 36.7791 233.153 36.763 233.041C36.763 232.787 36.763 232.468 36.763 232.086C36.763 231.249 36.763 230.038 36.8813 228.546C37.2541 220.76 38.6963 213.063 41.1673 205.67C41.6404 204.25 42.0772 203.113 42.3411 202.33C42.4685 201.966 42.5777 201.666 42.6596 201.42C42.7415 201.174 42.7688 201.102 42.7506 201.102C42.683 201.193 42.6307 201.294 42.5959 201.402L42.2137 202.312C41.877 203.076 41.4402 204.205 40.9307 205.624C38.3298 213.005 36.8811 220.742 36.6356 228.564C36.6356 230.057 36.6356 231.294 36.6356 232.113C36.6356 232.495 36.6356 232.814 36.6356 233.078C36.6636 233.183 36.7065 233.285 36.763 233.378Z" fill="#455A64"/>
<path d="M76.6385 233.214L76.502 233.314C76.411 233.405 76.2836 233.506 76.138 233.633C75.8104 233.906 75.3554 234.343 74.7276 234.852C72.9546 236.296 71.0541 237.575 69.0494 238.674C66.0709 240.284 62.8871 241.481 59.5857 242.232C59.1217 242.35 58.6758 242.441 58.1662 242.523L56.7011 242.778C55.7093 242.878 54.6992 243.042 53.6619 243.078C51.5219 243.215 49.3739 243.148 47.2466 242.878L45.6269 242.66L44.0344 242.332C43.0016 242.113 41.9811 241.84 40.9769 241.513C39.0787 240.9 37.249 240.092 35.5171 239.102C32.5571 237.453 30.0212 235.139 28.11 232.341C26.8287 230.45 25.9036 228.34 25.3801 226.117C25.2425 225.516 25.1362 224.908 25.0616 224.297C25.0616 224.106 25.0161 223.942 24.9979 223.814C25.0037 223.76 25.0037 223.705 24.9979 223.651C24.9979 223.651 24.9979 223.705 24.9979 223.814V224.306C25.0451 224.917 25.1302 225.525 25.2527 226.126C25.7294 228.399 26.6342 230.561 27.9189 232.496C29.8318 235.346 32.3837 237.711 35.3715 239.402C37.1236 240.406 38.9745 241.226 40.895 241.85C41.9065 242.188 42.9364 242.467 43.9798 242.687L45.5814 243.015L47.2284 243.242C49.3739 243.513 51.5405 243.577 53.6982 243.433C54.7538 243.433 55.773 243.233 56.7739 243.124L58.239 242.86C58.7304 242.769 59.2127 242.687 59.6767 242.56C62.9991 241.791 66.1992 240.566 69.1859 238.92C71.1917 237.798 73.0842 236.485 74.8368 234.998C75.4464 234.461 75.8923 234.015 76.2017 233.724L76.5475 233.378C76.6385 233.269 76.6385 233.223 76.6385 233.214Z" fill="#455A64"/>
<path d="M119.752 197.116C119.432 197.342 119.094 197.543 118.742 197.717C118.087 198.081 117.15 198.627 116.012 199.382C114.875 200.137 113.592 201.056 112.199 202.166C110.807 203.276 109.342 204.569 107.841 205.979C104.865 208.809 102.299 211.512 100.379 213.413C99.4235 214.369 98.6409 215.133 98.0859 215.643C97.805 215.926 97.5005 216.185 97.1759 216.416C97.4121 216.09 97.677 215.785 97.9676 215.506L100.179 213.204C102.053 211.257 104.592 208.527 107.586 205.679C109.087 204.268 110.571 202.949 111.972 201.866C113.22 200.891 114.517 199.98 115.858 199.136C116.758 198.562 117.691 198.039 118.651 197.571C119.006 197.392 119.374 197.24 119.752 197.116Z" fill="#455A64"/>
<path d="M69.213 236.417C71.9429 234.961 74.9913 235.826 77.6029 236.699C79.3319 237.282 81.1336 238.21 82.8989 237.718C84.1274 237.213 85.221 236.427 86.0929 235.425C88.0664 233.613 90.3825 232.214 92.9048 231.311C95.4271 230.408 98.1046 230.018 100.78 230.166C102.307 230.234 103.75 230.885 104.811 231.986C107.486 234.888 105.466 238.656 103.073 241.085C98.7977 245.414 93.1606 248.136 87.1121 248.793C81.3929 249.333 75.6265 248.535 70.2686 246.463C69.5187 246.171 68.838 245.725 68.2697 245.155C67.7014 244.585 67.2581 243.903 66.9679 243.153C66.6777 242.402 66.547 241.599 66.5842 240.795C66.6214 239.991 66.8256 239.203 67.1838 238.483C67.6463 237.612 68.3511 236.895 69.213 236.417Z" fill="#455A64"/>
<g opacity="0.4">
<path d="M69.2138 238.737C71.9437 237.282 75.0012 238.137 77.6037 239.02C79.3417 239.602 81.1435 240.53 82.9088 240.03C84.1386 239.531 85.2331 238.748 86.1028 237.746C88.0768 235.94 90.3927 234.548 92.9137 233.653C95.4348 232.757 98.1097 232.376 100.781 232.532C102.309 232.596 103.753 233.248 104.812 234.351C105.35 234.924 105.738 235.621 105.94 236.381C105.425 238.192 104.439 239.834 103.083 241.14C98.8052 245.47 93.1646 248.193 87.1128 248.847C81.3895 249.368 75.6233 248.552 70.2694 246.463C69.3661 246.089 68.5649 245.505 67.9319 244.76C67.299 244.014 66.8526 243.129 66.6295 242.177C66.7389 241.698 66.9134 241.235 67.1482 240.803C67.6195 239.927 68.3378 239.209 69.2138 238.737Z" fill="black"/>
</g>
<path d="M66.6288 242.178C66.7526 241.604 66.9809 241.058 67.3021 240.567C67.6907 240.001 68.1851 239.516 68.7581 239.138C69.506 238.629 70.3631 238.301 71.2605 238.183C73.2806 237.946 75.6283 238.802 78.2308 239.502C79.5832 240.003 81.0216 240.228 82.4622 240.167C83.2314 240.073 83.9723 239.819 84.637 239.42C85.3017 239.006 85.9289 238.534 86.5115 238.01C88.633 235.994 91.1797 234.48 93.9641 233.578C95.1669 233.17 96.4076 232.883 97.6677 232.723C98.763 232.564 99.8756 232.564 100.971 232.723C101.869 232.867 102.733 233.175 103.519 233.633C104.105 233.994 104.633 234.442 105.084 234.962C105.448 235.426 105.782 235.912 106.085 236.418C105.867 235.856 105.56 235.334 105.175 234.871C104.733 234.319 104.204 233.843 103.61 233.46C102.807 232.973 101.917 232.645 100.989 232.496C99.8698 232.331 98.7324 232.331 97.6131 232.496C96.3291 232.646 95.0638 232.926 93.8367 233.333C92.479 233.78 91.1685 234.359 89.9239 235.062C89.2617 235.429 88.6262 235.843 88.0221 236.299C87.4124 236.772 86.8391 237.3 86.2567 237.801C85.6901 238.309 85.0813 238.769 84.4368 239.175C83.8145 239.551 83.1201 239.793 82.3985 239.885C81.0048 239.946 79.6128 239.73 78.3036 239.248C75.7102 238.574 73.3261 237.719 71.215 238.001C70.3968 238.117 69.6126 238.406 68.9145 238.849C68.2164 239.291 67.6203 239.877 67.1656 240.567C66.9244 240.943 66.7519 241.359 66.6561 241.795C66.6356 241.922 66.6265 242.05 66.6288 242.178Z" fill="#263238"/>
<path d="M66.6288 242.178C66.7526 241.604 66.9809 241.058 67.3021 240.567C67.6907 240.001 68.1851 239.516 68.7581 239.138C69.506 238.629 70.3631 238.301 71.2605 238.183C73.2806 237.946 75.6283 238.802 78.2308 239.502C79.5832 240.003 81.0216 240.228 82.4622 240.167C83.2314 240.073 83.9723 239.819 84.637 239.42C85.3017 239.006 85.9289 238.534 86.5115 238.01C88.633 235.994 91.1797 234.48 93.9641 233.578C95.1669 233.17 96.4076 232.883 97.6677 232.723C98.763 232.564 99.8756 232.564 100.971 232.723C101.869 232.867 102.733 233.175 103.519 233.633C104.105 233.994 104.633 234.442 105.084 234.962C105.448 235.426 105.782 235.912 106.085 236.418C105.867 235.856 105.56 235.334 105.175 234.871C104.733 234.319 104.204 233.843 103.61 233.46C102.807 232.973 101.917 232.645 100.989 232.496C99.8698 232.331 98.7324 232.331 97.6131 232.496C96.3291 232.646 95.0638 232.926 93.8367 233.333C92.479 233.78 91.1685 234.359 89.9239 235.062C89.2617 235.429 88.6262 235.843 88.0221 236.299C87.4124 236.772 86.8391 237.3 86.2567 237.801C85.6901 238.309 85.0813 238.769 84.4368 239.175C83.8145 239.551 83.1201 239.793 82.3985 239.885C81.0048 239.946 79.6128 239.73 78.3036 239.248C75.7102 238.574 73.3261 237.719 71.215 238.001C70.3968 238.117 69.6126 238.406 68.9145 238.849C68.2164 239.291 67.6203 239.877 67.1656 240.567C66.9244 240.943 66.7519 241.359 66.6561 241.795C66.6356 241.922 66.6265 242.05 66.6288 242.178Z" fill="#263238"/>
<path d="M100.424 241.522C99.9947 241.149 99.5246 240.825 99.0225 240.558C97.8441 239.851 96.6291 239.207 95.3826 238.628C94.1446 238.049 92.8782 237.533 91.5881 237.081C91.0656 236.864 90.5186 236.711 89.9592 236.626C90.4496 236.906 90.9643 237.141 91.4971 237.327C92.4616 237.728 93.7811 238.292 95.2188 238.965C96.6566 239.638 97.9487 240.303 98.8587 240.785C99.3545 241.082 99.8788 241.329 100.424 241.522Z" fill="#263238"/>
<path d="M99.4879 244.253C97.7729 243.218 95.995 242.291 94.1646 241.477C92.3958 240.552 90.5725 239.734 88.7048 239.03C90.4174 240.063 92.1922 240.99 94.019 241.805C95.7917 242.729 97.6179 243.546 99.4879 244.253Z" fill="#263238"/>
<path d="M88.1955 245.436C88.2501 245.518 91.1529 243.789 94.6835 241.568C98.2142 239.348 101.053 237.474 100.971 237.383C100.89 237.292 98.014 239.03 94.4834 241.259C90.9527 243.488 88.1409 245.345 88.1955 245.436Z" fill="#263238"/>
<path d="M86.5654 242.605C87.0639 242.343 87.5388 242.039 87.985 241.695C88.8403 241.076 90.0142 240.221 91.3336 239.311C92.6531 238.401 93.8633 237.591 94.746 237.009C95.2404 236.724 95.704 236.388 96.1292 236.008C95.5934 236.214 95.0809 236.476 94.6004 236.79C93.6905 237.318 92.4529 238.092 91.1244 239.011C89.7958 239.93 88.6402 240.831 87.8303 241.486C87.3664 241.808 86.9418 242.184 86.5654 242.605Z" fill="#263238"/>
<path d="M18.9101 113.954C19.6041 113.325 20.1911 112.588 20.6482 111.77C20.903 110.733 20.903 109.65 20.6482 108.613C20.4491 107.247 20.588 105.854 21.0529 104.554C21.5177 103.255 22.2942 102.089 23.3144 101.16C25.4437 99.4129 28.8924 99.2673 30.8398 101.206L46.8825 111.506C48.2107 113.192 49.1833 115.13 49.7417 117.202C50.3 119.274 50.4325 121.438 50.131 123.563C49.9729 125.327 49.1961 126.977 47.938 128.222C46.6095 129.378 44.4256 129.651 43.1334 128.468C42.9394 129.826 42.3504 131.097 41.4397 132.123C40.529 133.15 39.3368 133.885 38.0113 134.239C36.6858 134.593 35.2855 134.55 33.9846 134.114C32.6836 133.679 31.5394 132.87 30.6942 131.79C30.019 132.622 29.1111 133.235 28.0863 133.549C27.0615 133.864 25.9662 133.866 24.9401 133.556C23.9141 133.245 23.0037 132.636 22.3252 131.806C21.6467 130.976 21.2308 129.963 21.1304 128.896C21.0121 127.64 21.3215 126.348 20.9575 125.147C20.5208 123.745 19.265 122.79 18.446 121.58C17.7054 120.423 17.3512 119.062 17.4346 117.691C17.518 116.321 18.0347 115.012 18.9101 113.954Z" fill="#263238"/>
<path d="M29.6298 106.665C28.8488 105.695 28.4429 104.476 28.4863 103.231C28.5298 101.986 29.0196 100.799 29.8664 99.8854C28.8291 98.7025 29.1203 96.8188 30.0757 95.5813C31.1461 94.4128 32.4644 93.4987 33.934 92.906C34.3688 91.1105 35.4699 89.5474 37.0143 88.5336C38.5587 87.5198 40.4307 87.1311 42.2511 87.4462C44.071 84.7163 48.0385 84.1066 51.2961 84.9165C52.077 85.1671 52.8881 85.3109 53.7075 85.3442C54.304 85.2759 54.8963 85.1756 55.482 85.0439C58.7397 84.4979 62.0701 86.6363 63.4624 89.5937C63.6459 90.0796 63.8938 90.5387 64.1995 90.9587C64.7019 91.4273 65.2614 91.8309 65.8647 92.1598C66.4705 92.5858 66.9764 93.1386 67.3473 93.7797C67.7181 94.4208 67.945 95.1349 68.0122 95.8725C68.1032 97.11 67.7483 98.4386 68.3216 99.5124C68.6128 100.067 69.1133 100.513 69.3499 101.087C70.0141 102.779 68.1396 104.59 68.5582 106.346C68.6492 106.701 68.8312 107.038 68.9404 107.384C69.1795 108.109 69.1373 108.899 68.8221 109.595C68.5014 110.083 68.2817 110.631 68.176 111.205C68.2184 111.646 68.3226 112.077 68.4854 112.488C68.7402 113.535 66.5563 117.693 65.6372 118.294L37.6739 119.504C36.6169 119.321 35.6437 118.812 34.89 118.048C34.1363 117.285 33.6398 116.305 33.4699 115.246C33.468 114.893 33.3637 114.548 33.1696 114.254C32.9425 114.05 32.6762 113.896 32.387 113.799C30.5671 112.889 30.2486 110.505 30.3669 108.512C30.402 108.235 30.3866 107.955 30.3214 107.684C30.164 107.3 29.9285 106.953 29.6298 106.665Z" fill="#263238"/>
<path d="M39.002 136.485H39.0848C39.0848 136.485 39.002 136.439 39.002 136.485Z" fill="#FFBF9D"/>
<path d="M66.7378 103.226C66.2464 97.7658 60.368 92.9066 58.8575 92.6063C56.801 91.5796 54.4857 91.1868 52.2056 91.478C49.7427 91.654 47.3379 92.3093 45.1261 93.4071C42.8121 94.6919 40.8921 96.5831 39.5726 98.8775C38.2531 101.172 37.5839 103.783 37.6371 106.429L39.0839 136.458C42.3416 140.043 51.2684 143.128 51.2684 143.128C51.2684 143.128 56.9466 144.42 58.5481 142.145L57.8383 131.835C57.8383 131.835 65.8005 130.47 67.0563 121.307C67.7024 116.739 67.2747 109.304 66.7378 103.226Z" fill="#FFBF9D"/>
<path d="M63.7266 111.306C63.734 111.615 63.6201 111.915 63.4092 112.141C63.1983 112.367 62.9072 112.502 62.5982 112.516C62.448 112.534 62.2958 112.521 62.1504 112.48C62.0051 112.438 61.8695 112.367 61.7518 112.272C61.634 112.177 61.5363 112.06 61.4645 111.927C61.3926 111.794 61.348 111.648 61.3334 111.497C61.3259 111.188 61.4398 110.888 61.6507 110.662C61.8616 110.436 62.1528 110.301 62.4617 110.287C62.6119 110.269 62.7642 110.282 62.9095 110.324C63.0549 110.365 63.1904 110.436 63.3082 110.531C63.4259 110.626 63.5236 110.743 63.5955 110.876C63.6673 111.009 63.7119 111.155 63.7266 111.306Z" fill="#263238"/>
<path d="M64.6712 106.784C64.5256 106.939 63.6065 106.302 62.3144 106.338C61.0222 106.374 60.094 107.03 59.9485 106.875C59.8029 106.72 60.0212 106.529 60.4216 106.229C60.9767 105.838 61.6359 105.623 62.3144 105.61C62.9843 105.587 63.644 105.779 64.198 106.156C64.6075 106.438 64.744 106.711 64.6712 106.784Z" fill="#263238"/>
<path d="M57.3646 116.912C58.0423 116.686 58.7453 116.546 59.4575 116.493C59.7851 116.493 60.0945 116.384 60.1491 116.156C60.157 115.836 60.0717 115.519 59.9034 115.246L58.866 112.826C57.4283 109.368 56.3727 106.52 56.5183 106.456C57.6371 108.43 58.5956 110.49 59.3847 112.617C59.7305 113.463 60.0672 114.282 60.3766 115.055C60.5952 115.435 60.6695 115.881 60.5859 116.311C60.5397 116.427 60.4673 116.532 60.3741 116.615C60.281 116.699 60.1697 116.76 60.049 116.793C59.8695 116.851 59.6824 116.882 59.4939 116.884C58.788 116.982 58.0727 116.991 57.3646 116.912Z" fill="#263238"/>
<path d="M57.8831 131.799C53.4774 131.973 49.1067 130.951 45.2346 128.842C45.2346 128.842 48.4286 135.321 57.7739 134.238L57.8831 131.799Z" fill="#FF9A6C"/>
<path d="M63.6991 101.77C63.4898 102.079 62.4979 101.897 61.3423 102.016C60.1866 102.134 59.2402 102.461 58.9855 102.188C58.8672 102.052 58.9855 101.752 59.3767 101.433C59.9066 101.037 60.5372 100.797 61.1967 100.742C61.8664 100.67 62.5427 100.793 63.144 101.097C63.6172 101.342 63.7901 101.615 63.6991 101.77Z" fill="#263238"/>
<path d="M50.0681 111.698C50.0869 112.007 50.2261 112.296 50.4557 112.503C50.6854 112.711 50.9873 112.82 51.2966 112.808C51.4478 112.813 51.5984 112.787 51.7396 112.733C51.8807 112.678 52.0094 112.596 52.1181 112.49C52.2267 112.385 52.3131 112.259 52.3721 112.12C52.4311 111.98 52.4614 111.831 52.4613 111.679C52.4403 111.371 52.3004 111.083 52.0713 110.876C51.8421 110.669 51.5416 110.559 51.2329 110.569C51.082 110.566 50.9319 110.592 50.7913 110.647C50.6507 110.702 50.5225 110.784 50.4141 110.889C50.3057 110.994 50.2193 111.12 50.1599 111.259C50.1005 111.397 50.0693 111.547 50.0681 111.698Z" fill="#263238"/>
<path d="M47.0186 107.702C47.1824 107.839 48.0469 107.129 49.339 107.056C50.6312 106.983 51.6048 107.557 51.7413 107.393C51.8778 107.229 51.6321 107.056 51.2045 106.783C50.6172 106.444 49.943 106.286 49.2662 106.328C48.6019 106.369 47.9663 106.613 47.4463 107.029C47.0641 107.356 46.9458 107.639 47.0186 107.702Z" fill="#263238"/>
<path d="M46.8462 102.761C47.1192 103.034 48.0929 102.679 49.2849 102.588C50.477 102.497 51.5052 102.652 51.7236 102.333C51.8146 102.188 51.6326 101.906 51.1776 101.66C50.548 101.364 49.8498 101.244 49.1575 101.314C48.4686 101.362 47.8068 101.602 47.2466 102.006C46.8462 102.324 46.7188 102.634 46.8462 102.761Z" fill="#263238"/>
<path d="M39.3295 115.046C39.3295 114.363 38.4651 112.78 37.7735 112.689C35.9535 112.452 32.6231 112.689 32.705 117.239C32.8142 123.472 39.2021 122.071 39.2112 121.898C39.2203 121.725 39.4296 117.394 39.3295 115.046Z" fill="#FFBF9D"/>
<path d="M37.4459 119.641C37.4459 119.641 37.3367 119.723 37.1456 119.805C36.8788 119.906 36.5844 119.906 36.3176 119.805C35.9067 119.557 35.5685 119.206 35.3368 118.786C35.1052 118.365 34.9884 117.892 34.9981 117.412C34.971 116.878 35.0676 116.346 35.2802 115.856C35.3392 115.66 35.4444 115.48 35.5869 115.333C35.7293 115.186 35.905 115.075 36.0992 115.01C36.2255 114.973 36.3604 114.982 36.4813 115.033C36.6022 115.084 36.7018 115.176 36.7635 115.292C36.8544 115.465 36.8181 115.592 36.8454 115.601C36.8727 115.61 36.9819 115.501 36.9273 115.237C36.8858 115.086 36.7964 114.951 36.6725 114.855C36.4904 114.734 36.2707 114.682 36.0537 114.709C35.7945 114.762 35.5531 114.879 35.3523 115.051C35.1516 115.223 34.9983 115.444 34.9071 115.692C34.6458 116.236 34.5239 116.836 34.5522 117.439C34.5365 117.998 34.6873 118.549 34.9854 119.022C35.2836 119.495 35.7156 119.869 36.2266 120.096C36.398 120.141 36.5772 120.148 36.7517 120.117C36.9261 120.085 37.0916 120.016 37.2366 119.914C37.4368 119.796 37.5096 119.696 37.4459 119.641Z" fill="#FF9A6C"/>
<path d="M68.1488 103.317C67.5212 103.026 66.9893 102.563 66.6155 101.981C66.2416 101.4 66.0412 100.723 66.0377 100.032C65.1914 100.305 64.2906 99.2494 63.7719 98.5396C63.2532 97.8298 62.6344 97.484 62.6526 96.6105C62.6708 96.4402 62.6458 96.268 62.5798 96.11C62.4006 95.8967 62.1467 95.76 61.87 95.7278C61.1906 95.5356 60.5704 95.1757 60.0663 94.6812C59.5623 94.1867 59.1906 93.5734 58.9855 92.8978C57.6203 93.519 56.1239 93.7971 54.6267 93.7077C54.2994 94.1867 53.8583 94.5769 53.343 94.8433C52.8277 95.1097 52.2542 95.244 51.6742 95.234C51.0942 95.2241 50.5257 95.0703 50.0198 94.7864C49.5138 94.5026 49.0863 94.0975 48.7756 93.6076C48.5649 93.9925 48.2752 94.3285 47.9255 94.5935C47.5758 94.8586 47.1739 95.0466 46.7464 95.1454C45.8778 95.3384 44.9865 95.4088 44.0984 95.3547C44.2797 96.2006 44.1457 97.0835 43.7218 97.8376C43.2978 98.5916 42.6131 99.1649 41.7962 99.4496C41.562 99.4902 41.353 99.6208 41.2138 99.8135C41.1046 100.032 41.2138 100.278 41.3321 100.505C41.4636 100.863 41.5206 101.244 41.4993 101.625C41.4781 102.005 41.3792 102.377 41.2087 102.718C41.0383 103.059 40.7998 103.362 40.508 103.607C40.2162 103.852 39.8773 104.036 39.5122 104.145C39.7587 104.346 39.9555 104.601 40.0872 104.891C40.2189 105.18 40.2819 105.497 40.2713 105.815C40.2608 106.132 40.1769 106.444 40.0263 106.724C39.8757 107.004 39.6623 107.246 39.403 107.43C39.1755 107.576 38.8752 107.748 38.9207 108.012C38.9437 108.11 38.9943 108.198 39.0663 108.267C39.6091 108.829 39.976 109.538 40.1219 110.305C40.1776 110.691 40.0816 111.082 39.8541 111.398C39.6266 111.714 39.2855 111.929 38.9025 111.998C39.1277 112.153 39.3189 112.353 39.4644 112.584C39.6099 112.816 39.7067 113.075 39.7488 113.345C39.7488 113.882 39.221 114.446 38.7023 114.255C37.5038 114.051 36.3163 113.787 35.1443 113.463C33.3244 111.115 35.481 108.422 35.5811 105.455C35.7475 102.468 36.6174 99.5619 38.1199 96.9745C38.7146 95.8641 39.4518 94.8362 40.313 93.917C41.3593 92.9244 42.5129 92.0515 43.7526 91.3145C45.2904 90.214 46.9958 89.369 48.8029 88.8121C52.2244 87.9021 55.837 89.0668 59.0856 90.4318C60.3351 90.912 61.5161 91.5545 62.598 92.3427C63.8123 93.3655 64.8325 94.5984 65.61 95.9826C66.8727 97.8887 67.7164 100.041 68.0851 102.298" fill="#263238"/>
<path d="M69.3591 101.069C69.273 100.833 69.1502 100.612 68.9951 100.414C68.8495 100.214 68.6584 99.977 68.4673 99.6676C68.256 99.3147 68.1226 98.9206 68.076 98.5119C68.0301 98.0003 68.0301 97.4857 68.076 96.9741C68.1242 96.3657 68.0905 95.7536 67.9759 95.1541C67.8095 94.4522 67.4996 93.7923 67.066 93.2159C66.8322 92.8985 66.5602 92.6112 66.2561 92.3605C65.9356 92.0932 65.5915 91.8556 65.2278 91.6508C64.8568 91.4419 64.5219 91.1746 64.236 90.8591C63.9739 90.5035 63.7598 90.1149 63.599 89.7035C63.208 88.8248 62.6625 88.0234 61.9883 87.3375C61.2673 86.5809 60.4128 85.9639 59.4677 85.5176C58.9703 85.2866 58.4483 85.1126 57.9117 84.9989C57.3617 84.8817 56.7993 84.8328 56.2374 84.8533C55.9462 84.8533 55.6641 84.9079 55.3274 84.9443C54.9907 84.9807 54.7723 85.0626 54.4902 85.1172C53.9287 85.246 53.3471 85.2615 52.7795 85.1627C52.2062 85.0626 51.642 84.8806 51.0506 84.7532C50.4524 84.6145 49.8436 84.5262 49.2306 84.4893C48.6098 84.4394 47.986 84.4394 47.3652 84.4893C46.749 84.5657 46.1402 84.6936 45.5453 84.8715C44.2985 85.2485 43.1988 86.0018 42.3968 87.0282C42.3149 87.1282 42.2421 87.2374 42.1693 87.3375H42.2694C41.3239 87.1707 40.3547 87.1926 39.4177 87.4018C38.4807 87.6111 37.5943 88.0036 36.8096 88.5569C35.2935 89.5607 34.2316 91.1191 33.8522 92.8974L33.8977 92.8337C33.1415 93.1954 32.4063 93.5995 31.6956 94.044C30.9933 94.4733 30.3763 95.0286 29.8756 95.6819C29.4223 96.321 29.1575 97.0745 29.1113 97.8567C29.0516 98.6115 29.29 99.3596 29.7756 99.9406V99.8405C28.9487 100.721 28.459 101.865 28.3924 103.071C28.3186 104.15 28.5825 105.225 29.1477 106.147C29.2754 106.362 29.4215 106.566 29.5845 106.756C29.7489 106.927 29.901 107.11 30.0394 107.302C30.1694 107.479 30.2538 107.685 30.2851 107.903C30.3033 108.118 30.3033 108.334 30.2851 108.549C30.2366 109.337 30.2793 110.128 30.4125 110.906C30.5119 111.553 30.7443 112.173 31.095 112.726C31.3524 113.129 31.7016 113.466 32.1142 113.708C32.4509 113.918 32.742 113.99 32.9058 114.1C32.9922 114.15 33.0717 114.211 33.1424 114.282C33.0837 114.201 33.0095 114.133 32.924 114.081C32.7511 113.963 32.46 113.881 32.1415 113.672C31.7417 113.422 31.4027 113.087 31.1496 112.689C30.8229 112.151 30.6035 111.555 30.5035 110.933C30.3774 110.16 30.3408 109.375 30.3943 108.594C30.4126 108.37 30.4126 108.145 30.3943 107.921C30.3594 107.685 30.2689 107.46 30.1304 107.266C29.9939 107.075 29.8301 106.893 29.6755 106.711C29.5395 106.499 29.4208 106.277 29.3206 106.046C28.7767 105.144 28.5256 104.095 28.6017 103.044C28.6701 101.873 29.1503 100.764 29.9575 99.9133L30.003 99.8587L29.9575 99.8041C29.5004 99.2623 29.272 98.5639 29.3206 97.8567C29.3709 97.1063 29.6293 96.3847 30.0667 95.7729C30.544 95.1404 31.1331 94.6007 31.8048 94.1805C32.5085 93.7402 33.2377 93.3421 33.9887 92.9884C34.3595 91.2572 35.3954 89.741 36.8733 88.7662C37.6367 88.2269 38.4993 87.844 39.4113 87.6394C40.3234 87.4348 41.2668 87.4127 42.1875 87.5741H42.2512L42.2967 87.5195L42.5151 87.2192C43.2985 86.2094 44.3816 85.4736 45.609 85.1172C46.2033 84.9368 46.8122 84.809 47.4289 84.735C48.6466 84.6188 49.875 84.6956 51.0688 84.9625C51.6511 85.0899 52.2244 85.281 52.8159 85.372C53.1156 85.4295 53.4208 85.4539 53.7259 85.4448C54.0314 85.425 54.3354 85.3855 54.6358 85.3265C54.9179 85.2628 55.2 85.1991 55.473 85.1536C55.746 85.1081 56.0281 85.0717 56.3102 85.0626C56.8567 85.039 57.404 85.0848 57.939 85.1991C58.4631 85.3111 58.9729 85.4821 59.4586 85.7087C60.3874 86.1281 61.2275 86.7211 61.9338 87.4558C62.6004 88.1267 63.14 88.9129 63.5262 89.7762C63.6971 90.1969 63.9202 90.5944 64.1905 90.9592C64.4879 91.2822 64.835 91.5556 65.2187 91.7691C65.5744 91.9751 65.915 92.2063 66.2379 92.4607C66.5315 92.71 66.797 92.9907 67.0296 93.2978C67.4608 93.8588 67.7707 94.5034 67.9395 95.1905C68.0626 95.7889 68.1024 96.4013 68.0578 97.0105C68.0114 97.5281 68.0114 98.0489 68.0578 98.5665C68.1082 98.9601 68.2416 99.3385 68.4491 99.6767C68.6145 99.932 68.7937 100.178 68.986 100.414C69.1003 100.564 69.2037 100.722 69.2954 100.887C69.3591 101.014 69.3591 101.078 69.3591 101.069Z" fill="#455A64"/>
<path d="M45.1984 85.9726C45.1984 85.9726 45.3713 85.8725 45.6716 85.7178C46.1048 85.4957 46.5724 85.348 47.0547 85.281C47.7648 85.1807 48.4889 85.2653 49.1567 85.5267C49.965 85.8486 50.6501 86.419 51.1131 87.1556C51.2491 87.377 51.3619 87.6118 51.4498 87.8562C51.4978 87.9588 51.5226 88.0706 51.5226 88.1838C51.5226 88.297 51.4978 88.4089 51.4498 88.5114L51.2951 88.7298L51.5499 88.6479C52.2105 88.4565 52.9189 88.5215 53.5337 88.8299C54.0158 89.072 54.4056 89.465 54.6438 89.9492C54.8061 90.2662 54.9021 90.613 54.9259 90.9683C54.9259 91.214 54.9259 91.3505 54.9259 91.3596C54.9259 91.3687 54.9259 91.3596 54.9259 91.2595C54.9382 91.1628 54.9382 91.065 54.9259 90.9683C54.9269 90.6003 54.8461 90.2366 54.6893 89.9037C54.4547 89.3801 54.0509 88.9506 53.5428 88.6843C52.892 88.3462 52.1361 88.2713 51.4316 88.475L51.5408 88.6115C51.612 88.4899 51.654 88.3535 51.6634 88.213C51.6729 88.0725 51.6496 87.9317 51.5954 87.8016C51.5052 87.5434 51.3862 87.2962 51.2405 87.0646C50.8049 86.3573 50.1669 85.797 49.4093 85.4563C48.6517 85.1156 47.8092 85.0102 46.991 85.1536C46.4993 85.2304 46.0268 85.4003 45.5988 85.6541C45.4833 85.7171 45.3737 85.7901 45.2712 85.8725L45.1984 85.9726Z" fill="#455A64"/>
<path d="M31.8403 99.249C31.834 99.2882 31.834 99.3282 31.8403 99.3673C31.873 99.4744 31.9221 99.5756 31.9859 99.6676C32.2458 99.9999 32.6178 100.226 33.0323 100.305C33.65 100.396 34.2809 100.311 34.8523 100.059C35.1708 99.9406 35.5074 99.8132 35.8441 99.6494C36.2157 99.4886 36.5186 99.2018 36.6995 98.8395L36.745 98.7395H36.5903C37.1745 99.1868 37.8215 99.5456 38.5103 99.8041C39.0939 100.012 39.7234 100.056 40.3303 99.9315C40.732 99.853 41.1075 99.6746 41.4222 99.4128C41.5029 99.3416 41.5761 99.2624 41.6406 99.1762C41.6649 99.1482 41.6863 99.1177 41.7043 99.0852C41.7043 99.0852 41.5951 99.1944 41.3676 99.3582C41.0515 99.5863 40.6873 99.7389 40.303 99.8041C39.7282 99.8984 39.1387 99.842 38.5922 99.6403C37.9398 99.378 37.3272 99.0258 36.7723 98.5939L36.6631 98.512L36.6176 98.6393V98.7213C36.4508 99.0433 36.1774 99.2973 35.8441 99.4401C35.5303 99.5942 35.2083 99.7309 34.8796 99.8496C34.3394 100.098 33.7411 100.192 33.1506 100.123C32.7604 100.065 32.4029 99.8714 32.1406 99.5766C32.0341 99.4734 31.9339 99.364 31.8403 99.249Z" fill="#E0E0E0"/>
<path d="M55.937 119.978C55.7167 119.68 55.4235 119.444 55.0856 119.293C54.7477 119.142 54.3766 119.08 54.0079 119.113C53.7411 119.133 53.4807 119.205 53.2418 119.325C53.0029 119.445 52.7901 119.611 52.6156 119.814C52.4491 120.012 52.3475 120.256 52.3247 120.513C52.3019 120.77 52.359 121.028 52.4882 121.252C52.6751 121.474 52.9238 121.634 53.2027 121.714C53.4815 121.793 53.7777 121.788 54.0534 121.698C54.632 121.499 55.1666 121.19 55.6276 120.788C55.7631 120.692 55.8829 120.575 55.9825 120.442C56.0275 120.375 56.0515 120.295 56.0515 120.214C56.0515 120.133 56.0275 120.054 55.9825 119.987" fill="#FF9A6C"/>
<path d="M52.9802 117.822C53.1804 117.822 53.144 119.123 54.245 120.087C55.3461 121.052 56.7384 120.943 56.7384 121.125C56.7384 121.307 56.4199 121.37 55.8284 121.37C55.0602 121.357 54.3205 121.077 53.7355 120.579C53.1749 120.096 52.8254 119.414 52.7618 118.677C52.7072 118.131 52.8619 117.803 52.9802 117.822Z" fill="#263238"/>
</svg>
