<svg width="249" height="248" viewBox="0 0 249 248" fill="none" xmlns="http://www.w3.org/2000/svg">
<path d="M238.103 34.3186L236.612 31.8639C223.989 11.1095 201.228 -1.39714 177.227 0.124768C174.132 0.302889 171.055 0.713158 168.022 1.35211C146.2 6.02216 127.213 22.5238 119.345 43.6587C114.712 56.0856 113.423 70.3964 104.617 80.2643C93.1906 93.1023 73.7801 93.5012 56.7507 92.9734C39.7213 92.4457 20.2679 92.8936 8.88428 105.781C1.77796 113.887 -0.486496 125.4 0.0842193 136.176C1.60613 164.798 21.5628 190.394 46.9136 203.115C72.2644 215.837 102.144 216.972 129.9 211.375C168.789 203.539 205.775 182.011 228.002 148.781C250.229 115.55 255.857 70.2062 238.103 34.3186Z" fill="#FEF5D8"/>
<path d="M99.765 98.3774L101.672 91.6205C98.8104 86.7643 97.8691 81.0135 99.0326 75.4985C100.196 69.9835 103.38 65.1031 107.959 61.8165C112.538 58.53 118.181 57.0749 123.778 57.7374C129.376 58.3999 134.523 61.1319 138.208 65.3966C141.894 69.6613 143.851 75.1502 143.694 80.7845C143.538 86.4187 141.281 91.7908 137.365 95.845C133.449 99.8992 128.159 102.342 122.533 102.694C116.908 103.045 111.354 101.28 106.964 97.7452L99.765 98.3774Z" fill="white"/>
<path d="M99.7655 98.3776L100.217 98.3535L101.584 98.2489L106.977 97.8287C106.998 97.828 107.018 97.8191 107.032 97.804C107.047 97.7889 107.055 97.7687 107.055 97.7478L107.034 97.7039L106.916 97.8126C109.835 100.183 113.299 101.788 116.994 102.484C118.147 102.704 119.315 102.828 120.488 102.854C121.745 102.877 123.002 102.804 124.249 102.636C128.767 102.005 132.992 100.03 136.373 96.9673C139.755 93.9042 142.136 89.8949 143.209 85.4603C144.036 81.9755 144.029 78.3449 143.188 74.8633C142.348 71.3817 140.699 68.1474 138.374 65.423L137.446 64.3703L136.429 63.4127L135.922 62.9375L135.378 62.5155L134.285 61.6642C133.917 61.3911 133.506 61.1385 133.136 60.9195C132.763 60.6581 132.372 60.4247 131.964 60.2211C127.193 57.629 121.65 56.834 116.342 57.9805C111.034 59.127 106.313 62.139 103.037 66.4695C101.366 68.6735 100.118 71.1673 99.3539 73.8252C99.0028 75.0351 98.747 76.2707 98.5888 77.5206C98.4735 78.6893 98.428 79.8638 98.4526 81.0379C98.6065 84.788 99.7009 88.4393 101.635 91.6558L101.611 91.6047L100.243 96.6947L99.9022 97.9844C99.8225 98.2709 99.7972 98.4073 99.7972 98.4073L99.9353 97.96L100.316 96.6606L101.737 91.608C101.738 91.5982 101.735 91.5886 101.731 91.5797C101.727 91.5708 101.721 91.563 101.713 91.5569C99.844 88.3426 98.7973 84.7164 98.6664 81.0003C98.6532 79.8381 98.7044 78.6761 98.8197 77.5195C98.9878 76.2836 99.2468 75.0618 99.5945 73.864C100.875 69.5315 103.432 65.6858 106.932 62.8289C110.432 59.972 114.712 58.2367 119.213 57.8495C122.658 57.5738 126.121 58.086 129.339 59.3473C130.167 59.6702 130.973 60.0458 131.752 60.4717C132.151 60.6775 132.538 60.9069 132.91 61.1588C133.286 61.4104 133.684 61.6338 134.045 61.8923L135.116 62.7359L135.657 63.1506L136.153 63.6219L137.145 64.5644L138.063 65.5951C140.351 68.277 141.975 71.4601 142.803 74.8865C143.631 78.3128 143.64 81.8862 142.83 85.3169C142.103 88.3533 140.754 91.2058 138.868 93.6943C136.983 96.1829 134.601 98.2532 131.875 99.7746C129.486 101.093 126.876 101.963 124.173 102.342C122.942 102.512 121.699 102.59 120.455 102.575C119.295 102.551 118.139 102.434 116.998 102.224C113.334 101.554 109.893 99.9885 106.981 97.6665C106.963 97.6628 106.944 97.6651 106.927 97.6731C106.909 97.6811 106.895 97.6943 106.886 97.7108C106.874 97.7243 106.868 97.7417 106.868 97.7597C106.868 97.7777 106.875 97.7951 106.887 97.8083L106.945 97.6835C104.609 97.8851 102.832 98.0835 101.61 98.1919L100.225 98.332L99.7655 98.3776Z" fill="#263238"/>
<path d="M127.289 93.5245C133.962 90.4055 136.843 82.4674 133.724 75.7943C130.605 69.1212 122.667 66.24 115.994 69.3589C109.321 72.4779 106.44 80.416 109.559 87.0891C112.677 93.7622 120.616 96.6434 127.289 93.5245Z" fill="#002DB4"/>
<path d="M133.817 83.9582C135.93 76.9017 131.922 69.4685 124.866 67.3556C117.809 65.2427 110.376 69.2503 108.263 76.3068C106.15 83.3633 110.158 90.7966 117.214 92.9095C124.271 95.0223 131.704 91.0147 133.817 83.9582Z" fill="#2952CE"/>
<path d="M129.111 76.3218C129.859 77.9227 130.115 79.7095 129.848 81.4562C129.581 83.203 128.802 84.8313 127.609 86.1352C126.416 87.4391 124.864 88.3601 123.148 88.7816C121.432 89.2031 119.629 89.1063 117.968 88.5034C116.307 87.9005 114.862 86.8186 113.816 85.3945C112.77 83.9703 112.169 82.268 112.091 80.5026C112.012 78.7373 112.459 76.9882 113.374 75.4767C114.289 73.9652 115.632 72.759 117.233 72.0108C118.296 71.514 119.447 71.2314 120.619 71.1792C121.791 71.127 122.962 71.3061 124.065 71.7065C125.168 72.1068 126.181 72.7204 127.047 73.5123C127.912 74.3042 128.614 75.2589 129.111 76.3218Z" fill="white"/>
<path d="M124.976 78.2543C125.342 79.0374 125.467 79.9114 125.337 80.7659C125.206 81.6204 124.825 82.4169 124.241 83.0547C123.658 83.6925 122.898 84.1431 122.059 84.3493C121.219 84.5555 120.338 84.5081 119.525 84.2132C118.713 83.9183 118.006 83.389 117.494 82.6924C116.982 81.9957 116.689 81.163 116.65 80.2994C116.612 79.4359 116.83 78.5803 117.278 77.8409C117.726 77.1015 118.383 76.5115 119.166 76.1455C120.216 75.6547 121.418 75.6011 122.507 75.9966C123.597 76.3921 124.485 77.2042 124.976 78.2543Z" fill="#2952CE"/>
<path d="M125.304 67.3213L123.77 64.8962L125.082 60.8653L126.572 63.5598L125.304 67.3213Z" fill="#455A64"/>
<path d="M129.973 62.6468L127.212 63.6705L125.744 67.4809L128.543 66.5195L129.973 62.6468Z" fill="#455A64"/>
<g opacity="0.3">
<path d="M121.515 79.8004L127.461 68.4318C126.882 68.0919 126.276 67.8008 125.648 67.5613L121.221 79.1722L121.515 79.8004Z" fill="black"/>
</g>
<path d="M126.494 63.1248L124.494 68.6347L121.315 77.3925L120.584 79.4078C120.537 79.5396 120.544 79.6846 120.604 79.811C120.664 79.9374 120.772 80.0348 120.903 80.0818C121.035 80.1288 121.18 80.1216 121.307 80.0617C121.433 80.0018 121.53 79.8941 121.577 79.7623L123.581 74.2418L126.76 65.4839L127.484 63.472C127.721 62.8362 126.727 62.4816 126.494 63.1248Z" fill="#263238"/>
<path d="M215.944 233.364C213.943 225.285 212.63 224.843 207.819 214.58H204.246L169.932 213.985L167.13 220.208C164.014 228.607 161.884 233.608 161.021 239.747C160.682 242.425 160.649 245.133 160.922 247.818H217.425C218.242 243.634 216.814 236.853 215.944 233.364Z" fill="#263238"/>
<path d="M178.568 120.961C177.114 122.152 175.97 123.677 175.232 125.405C174.494 127.133 174.185 129.014 174.33 130.888C174.49 132.705 175.009 134.774 173.841 136.171C172.673 137.569 170.39 137.538 169.26 138.958C167.954 140.638 169.084 143.097 168.634 145.174C168.392 146.143 167.812 146.994 166.999 147.573C166.186 148.153 165.192 148.423 164.198 148.335C166.55 150.213 169.374 151.407 172.36 151.786L174.605 148.846C174.226 149.399 174.043 150.063 174.086 150.731C174.129 151.4 174.395 152.035 174.841 152.534C175.762 153.517 176.952 154.207 178.262 154.52C181.333 155.435 184.574 155.628 187.731 155.084C190.889 154.539 193.878 153.272 196.465 151.381" fill="#263238"/>
<path d="M212.867 136.675C212.285 135.337 211.776 133.968 211.34 132.575C210.653 129.521 212.103 126.024 210.576 123.267C209.492 121.305 207.217 120.358 205.071 119.724C202.925 119.091 200.62 118.549 199.008 116.991C197.825 115.846 197.138 114.265 195.954 113.12C194.274 111.493 191.816 110.959 189.479 110.829C187.07 110.619 184.647 111.038 182.447 112.043C181.355 112.554 180.398 113.314 179.654 114.262C178.91 115.21 178.4 116.32 178.163 117.503C177.988 118.663 178.163 119.877 177.789 120.992C177.415 122.107 176.445 123.183 175.865 124.336C175.269 125.574 175.102 126.976 175.393 128.319C175.683 129.662 176.414 130.87 177.469 131.75L194.16 152.87C197.634 154.145 206.003 152.481 208.667 149.9C211.332 147.319 214.05 140.15 212.867 136.675Z" fill="#263238"/>
<path d="M177.881 129.009C178.515 124.168 182.134 118.426 186.937 119.259L200.314 123.962C200.641 124.011 200.955 124.125 201.237 124.297C201.519 124.47 201.763 124.697 201.956 124.965C202.149 125.233 202.286 125.537 202.36 125.86C202.433 126.182 202.441 126.515 202.383 126.841L199.413 161.659L183.378 164.576L183.493 160.277C183.653 157.337 183.821 154.657 183.814 154.68C183.806 154.703 177.705 153.237 176.942 145.052C176.552 140.982 177.178 134.385 177.881 129.009Z" fill="#FFBF9D"/>
<path d="M178.736 136.752C178.713 137.023 178.797 137.292 178.972 137.501C179.146 137.71 179.397 137.841 179.668 137.867C179.799 137.886 179.932 137.879 180.061 137.846C180.189 137.812 180.309 137.754 180.415 137.674C180.52 137.593 180.608 137.492 180.674 137.377C180.74 137.262 180.782 137.135 180.798 137.004C180.819 136.733 180.733 136.465 180.559 136.256C180.385 136.048 180.136 135.916 179.866 135.889C179.735 135.87 179.601 135.877 179.473 135.91C179.345 135.943 179.224 136.002 179.119 136.082C179.014 136.163 178.926 136.263 178.86 136.378C178.794 136.493 178.752 136.62 178.736 136.752Z" fill="#263238"/>
<path d="M189.235 137.324C189.211 137.595 189.296 137.865 189.471 138.073C189.645 138.282 189.895 138.414 190.166 138.439C190.297 138.458 190.431 138.451 190.559 138.418C190.688 138.385 190.808 138.326 190.913 138.246C191.019 138.165 191.107 138.065 191.173 137.95C191.238 137.835 191.28 137.708 191.296 137.576C191.318 137.305 191.232 137.037 191.058 136.829C190.884 136.62 190.635 136.488 190.365 136.461C190.234 136.442 190.1 136.449 189.972 136.482C189.844 136.515 189.723 136.574 189.618 136.654C189.513 136.735 189.424 136.835 189.359 136.95C189.293 137.066 189.251 137.193 189.235 137.324Z" fill="#263238"/>
<path d="M178.575 133.018C178.69 133.209 179.652 132.59 180.866 132.75C182.08 132.911 182.859 133.735 183.011 133.583C183.164 133.43 183.011 133.186 182.652 132.819C182.212 132.335 181.614 132.024 180.965 131.941C180.316 131.863 179.659 132.014 179.11 132.369C178.69 132.644 178.522 132.934 178.575 133.018Z" fill="#263238"/>
<path d="M189.449 133.812C189.594 133.98 190.533 133.285 191.831 133.323C193.129 133.361 194.068 134.087 194.213 133.927C194.358 133.766 194.145 133.545 193.74 133.209C193.195 132.772 192.521 132.528 191.823 132.514C191.138 132.493 190.466 132.702 189.914 133.109C189.533 133.43 189.372 133.728 189.449 133.812Z" fill="#263238"/>
<path d="M185.448 141.509C184.872 141.282 184.269 141.131 183.654 141.058C183.364 141.005 183.104 140.936 183.066 140.737C183.06 140.441 183.145 140.151 183.31 139.905L184.303 137.782C185.685 134.766 186.7 132.285 186.593 132.224C186.487 132.163 185.257 134.576 183.875 137.569C183.539 138.332 183.226 139.019 182.921 139.699C182.716 140.029 182.638 140.422 182.699 140.806C182.733 140.911 182.79 141.006 182.867 141.084C182.944 141.162 183.038 141.221 183.142 141.257C183.297 141.312 183.459 141.346 183.623 141.356C184.223 141.481 184.836 141.532 185.448 141.509Z" fill="#263238"/>
<path d="M183.783 154.657C187.592 154.972 191.414 154.224 194.824 152.496C194.824 152.496 191.716 157.994 183.661 156.696L183.783 154.657Z" fill="#FF9A6C"/>
<path d="M188.883 144.731C188.752 144.46 188.552 144.228 188.303 144.059C188.001 143.914 187.657 143.881 187.333 143.968C186.853 144.044 186.411 144.275 186.074 144.624C185.908 144.801 185.793 145.019 185.739 145.255C185.685 145.491 185.695 145.737 185.768 145.968C185.898 146.434 186.6 146.678 187.074 146.732C187.558 146.788 188.048 146.681 188.463 146.426C188.649 146.342 188.81 146.212 188.933 146.05C189.056 145.887 189.136 145.696 189.166 145.495C189.145 145.219 189.047 144.954 188.883 144.731Z" fill="#FF9A6C"/>
<path d="M188.64 143.204C188.456 143.204 188.372 144.387 187.28 145.181C186.189 145.975 184.898 145.754 184.875 145.945C184.852 146.136 185.15 146.204 185.692 146.25C186.403 146.306 187.111 146.112 187.693 145.7C187.981 145.5 188.225 145.243 188.41 144.945C188.595 144.647 188.717 144.314 188.769 143.967C188.838 143.471 188.724 143.158 188.64 143.204Z" fill="#263238"/>
<path d="M189.533 129.459C189.624 129.773 190.747 129.704 192.045 129.948C193.343 130.192 194.389 130.62 194.58 130.36C194.664 130.238 194.496 129.94 194.091 129.597C193.547 129.203 192.922 128.936 192.261 128.817C191.6 128.698 190.92 128.73 190.273 128.91C189.723 129.07 189.464 129.291 189.533 129.459Z" fill="#263238"/>
<path d="M179.225 128.925C179.431 129.192 180.332 128.986 181.393 129.047C182.454 129.108 183.332 129.353 183.562 129.101C183.661 128.971 183.562 128.711 183.157 128.444C182.64 128.107 182.04 127.922 181.424 127.91C180.812 127.874 180.204 128.012 179.667 128.307C179.278 128.543 179.133 128.795 179.225 128.925Z" fill="#263238"/>
<path d="M205.086 125.23C204.323 124.085 202.979 123.504 201.696 123.023C196.149 120.944 190.374 119.534 184.493 118.824C183.776 120.038 184.493 121.664 185.578 122.535C186.662 123.405 188.113 123.733 189.395 124.214C190.678 124.695 192.083 125.436 192.633 126.734C193.183 128.032 192.755 129.75 193.274 131.155C194.175 133.568 197.565 134.316 198.451 136.744C199.115 138.569 198.069 140.562 197.825 142.471C197.698 143.454 197.782 144.453 198.072 145.401C198.361 146.349 198.85 147.224 199.504 147.969C200.159 148.713 200.965 149.309 201.868 149.717C202.771 150.125 203.751 150.336 204.743 150.336C205.079 143.372 205.412 136.411 205.743 129.452C205.85 128.002 205.888 126.406 205.086 125.23Z" fill="#263238"/>
<path d="M219.311 142.669C218.196 141.692 216.814 140.852 216.364 139.454C215.707 137.408 217.326 134.98 216.249 133.117C215.264 131.422 212.431 131.536 211.492 129.803C210.782 128.452 211.576 127.238 211.294 126.046C211.011 124.855 209.308 123.825 208.094 123.977L198.695 137.859C197.855 142.486 196.992 144.952 198.008 147.647C198.679 149.078 199.191 150.579 199.535 152.122C199.764 153.649 199.382 155.466 198.115 156.405C203.796 156.795 209.095 153.763 213.981 150.847L219.158 147.747C219.725 147.47 220.214 147.055 220.578 146.54C221.327 145.257 220.388 143.639 219.311 142.669Z" fill="#263238"/>
<path d="M214.104 149.434C213.908 149.498 213.706 149.539 213.501 149.557C212.908 149.623 212.309 149.587 211.729 149.45C210.803 149.237 209.948 148.787 209.248 148.144C208.323 147.271 207.736 146.101 207.591 144.838C207.501 144.109 207.555 143.37 207.751 142.662C208 141.911 208.35 141.197 208.789 140.539C209.252 139.86 209.612 139.116 209.858 138.332C209.985 137.932 210.021 137.509 209.964 137.093C209.907 136.677 209.759 136.279 209.53 135.927C209.003 135.24 208.003 135.08 207.148 134.736C206.663 134.567 206.238 134.259 205.926 133.85C205.643 133.407 205.501 132.887 205.521 132.361C205.636 131.357 205.843 130.365 206.14 129.399C206.251 128.922 206.251 128.425 206.14 127.948C206.012 127.479 205.719 127.073 205.315 126.803C204.439 126.295 203.442 126.031 202.429 126.039C201.397 126.014 200.388 125.728 199.497 125.207C198.639 124.684 197.938 123.94 197.466 123.054C197.073 122.192 196.815 121.275 196.702 120.335C196.597 119.468 196.403 118.613 196.122 117.785C195.816 117.029 195.353 116.347 194.763 115.785C193.784 114.852 192.533 114.255 191.191 114.081C189.85 113.906 188.488 114.163 187.303 114.815C186.484 115.242 185.749 115.813 185.135 116.502C184.615 117.1 184.167 117.756 183.798 118.457C183.813 118.405 183.831 118.354 183.852 118.304C183.898 118.213 183.951 118.068 184.043 117.884C184.759 116.515 185.864 115.389 187.219 114.647C188.319 114.032 189.572 113.743 190.831 113.815C192.366 113.922 193.819 114.546 194.954 115.586C195.581 116.172 196.071 116.889 196.389 117.686C196.688 118.529 196.892 119.402 197 120.29C197.121 121.196 197.379 122.079 197.764 122.909C198.206 123.743 198.869 124.44 199.68 124.924C200.533 125.409 201.494 125.671 202.475 125.688C203.543 125.663 204.598 125.927 205.529 126.451C205.999 126.765 206.34 127.236 206.491 127.78C206.613 128.308 206.613 128.856 206.491 129.384C206.2 130.33 205.995 131.301 205.88 132.285C205.858 132.745 205.978 133.201 206.224 133.591C206.5 133.945 206.875 134.211 207.301 134.354C207.728 134.53 208.179 134.652 208.621 134.828C209.082 134.992 209.489 135.28 209.797 135.66C210.055 136.048 210.222 136.489 210.287 136.95C210.352 137.411 210.312 137.881 210.171 138.325C209.916 139.139 209.54 139.911 209.057 140.615C208.625 141.251 208.281 141.942 208.034 142.669C207.838 143.346 207.776 144.054 207.85 144.754C207.971 145.964 208.511 147.093 209.377 147.945C210.043 148.584 210.864 149.037 211.76 149.259C212.522 149.469 213.318 149.528 214.104 149.434Z" fill="#455A64"/>
<path d="M161.747 143.547C161.581 144.03 161.581 144.554 161.747 145.036C161.844 145.31 162.002 145.559 162.208 145.763C162.414 145.968 162.664 146.124 162.938 146.22C163.306 146.326 163.696 146.328 164.065 146.224C164.433 146.12 164.765 145.915 165.023 145.632C165.314 145.302 165.482 144.881 165.496 144.441C165.512 143.949 165.434 143.46 165.267 142.997C164.954 142.043 164.328 141.005 164.412 139.745C164.449 139.107 164.619 138.484 164.911 137.916C165.203 137.348 165.61 136.847 166.107 136.446C166.63 136.022 167.228 135.701 167.871 135.499C168.525 135.304 169.204 135.199 169.887 135.186C170.546 135.169 171.202 135.095 171.849 134.965C172.457 134.833 172.998 134.489 173.376 133.995C173.711 133.494 173.898 132.91 173.918 132.308C173.939 131.72 173.883 131.132 173.75 130.559C173.428 129.48 173.246 128.363 173.208 127.238C173.255 126.238 173.601 125.275 174.201 124.474C174.705 123.833 175.327 123.294 176.033 122.885C176.548 122.574 177.041 122.227 177.507 121.847C177.889 121.512 178.2 121.105 178.423 120.648C178.423 120.648 178.423 120.648 178.423 120.747C178.395 120.843 178.357 120.935 178.309 121.022C178.14 121.373 177.904 121.687 177.614 121.946C177.159 122.351 176.671 122.716 176.155 123.038C175.482 123.452 174.89 123.985 174.407 124.611C173.852 125.383 173.538 126.303 173.506 127.253C173.56 128.354 173.75 129.444 174.071 130.498C174.218 131.097 174.279 131.714 174.254 132.331C174.235 132.992 174.031 133.634 173.666 134.186C173.248 134.742 172.644 135.13 171.963 135.278C171.299 135.425 170.621 135.504 169.94 135.515C169.283 135.531 168.632 135.631 168.001 135.812C167.397 136.001 166.835 136.301 166.344 136.698C165.88 137.068 165.499 137.531 165.224 138.057C164.949 138.583 164.787 139.16 164.748 139.752C164.656 140.905 165.236 141.898 165.557 142.906C165.724 143.397 165.802 143.914 165.786 144.433C165.759 144.93 165.559 145.403 165.221 145.769C164.935 146.075 164.568 146.293 164.163 146.4C163.758 146.507 163.33 146.497 162.931 146.372C162.635 146.262 162.369 146.087 162.15 145.86C161.932 145.632 161.768 145.359 161.671 145.059C161.544 144.685 161.523 144.284 161.61 143.898C161.637 143.775 161.683 143.656 161.747 143.547Z" fill="#263238"/>
<path d="M171.504 160.368C165.984 161.331 160.967 165.576 158.432 172.142C156.142 178.091 153.477 183.718 153.744 183.71L166.725 190.43L167.656 188.467L169.428 210.099L163.945 223.079C163.945 223.079 176.292 230.058 186.493 230.127C196.037 230.195 213.584 225.186 213.584 225.186L209.003 212.343L212.469 190.353L212.507 191.941L224.663 189.574C224.663 189.574 222.922 176.037 220.074 169.165C217.493 163.056 207.575 160.384 207.575 160.384L199.336 158.246C199.336 158.246 197.648 163.171 190.379 162.774C183.11 162.377 183.683 157.895 183.683 157.895L171.504 160.368Z" fill="#FFD95B"/>
<path d="M214.73 174.28C214.722 174.333 214.722 174.387 214.73 174.441C214.73 174.563 214.73 174.708 214.676 174.899C214.623 175.311 214.554 175.884 214.47 176.579C214.287 177.999 214.02 179.961 213.707 182.122C213.394 184.283 213.111 186.23 212.897 187.665C212.798 188.36 212.714 188.925 212.653 189.338C212.653 189.528 212.615 189.681 212.592 189.796C212.585 189.849 212.585 189.903 212.592 189.956C212.592 189.956 212.592 189.903 212.592 189.803C212.592 189.704 212.645 189.536 212.676 189.345C212.752 188.94 212.844 188.368 212.966 187.681C213.195 186.26 213.501 184.306 213.814 182.145C214.127 179.984 214.371 178.014 214.524 176.594C214.6 175.884 214.654 175.303 214.684 174.906C214.684 174.715 214.684 174.563 214.684 174.441C214.684 174.318 214.73 174.28 214.73 174.28Z" fill="#263238"/>
<path d="M167.954 173.746C167.95 173.802 167.95 173.858 167.954 173.914C167.954 174.044 167.954 174.204 167.901 174.41C167.901 174.83 167.817 175.449 167.771 176.212C167.679 177.739 167.611 179.854 167.634 182.191C167.656 184.527 167.786 186.642 167.916 188.162C167.977 188.925 168.038 189.544 168.084 189.971L168.145 190.46C168.138 190.516 168.138 190.572 168.145 190.628C168.15 190.57 168.15 190.511 168.145 190.452C168.145 190.33 168.145 190.162 168.145 189.964C168.145 189.521 168.069 188.91 168.015 188.154C167.916 186.627 167.809 184.52 167.779 182.191C167.748 179.862 167.779 177.747 167.878 176.22C167.878 175.456 167.947 174.853 167.962 174.41C167.962 174.212 167.962 174.044 167.962 173.921C167.969 173.863 167.967 173.804 167.954 173.746Z" fill="#263238"/>
<path d="M192.06 205.311C191.516 205.278 190.97 205.357 190.458 205.543C189.946 205.73 189.477 206.02 189.082 206.395C187.83 207.61 185.623 209.297 183.149 209.152C179.332 208.93 176.819 205.716 177.041 201.371C177.262 197.027 180.141 194.118 183.974 194.339C186.448 194.484 188.441 196.408 189.548 197.76C189.896 198.18 190.328 198.523 190.815 198.767C191.303 199.012 191.836 199.152 192.381 199.18C193.44 199.24 194.479 198.878 195.271 198.172C196.063 197.466 196.542 196.475 196.603 195.416L197.321 169.974L157.463 168.516L130.205 167.546L129.288 191.728C129.158 193.934 131.22 195.591 133.427 195.721C133.971 195.754 134.516 195.675 135.029 195.489C135.541 195.302 136.009 195.012 136.405 194.637C137.657 193.423 139.863 191.735 142.337 191.88C146.155 192.102 148.667 195.316 148.446 199.661C148.224 204.006 145.346 206.915 141.513 206.693C139.039 206.548 137.046 204.624 135.939 203.273C135.591 202.853 135.159 202.51 134.672 202.265C134.184 202.021 133.651 201.88 133.106 201.852C132.048 201.792 131.01 202.153 130.218 202.858C129.426 203.562 128.947 204.551 128.884 205.609L127.685 234.067L167.81 235.594L191.35 236.487L194.244 236.594L195.824 209.511C195.878 208.456 195.513 207.422 194.808 206.635C194.103 205.848 193.115 205.372 192.06 205.311Z" fill="white"/>
<path d="M192.06 205.311C192.25 205.313 192.439 205.333 192.625 205.372C193.176 205.474 193.697 205.696 194.152 206.021C194.903 206.566 195.442 207.354 195.679 208.251C195.827 208.827 195.866 209.425 195.794 210.015C195.794 210.641 195.725 211.313 195.679 212.023C195.359 217.734 194.916 226.072 194.305 236.624V236.739H194.19L127.685 234.265H127.509V234.067C127.731 228.493 127.967 222.735 128.212 216.826C128.334 213.863 128.456 210.865 128.578 207.831C128.578 207.067 128.639 206.304 128.677 205.54C128.713 204.931 128.882 204.337 129.172 203.8C129.462 203.263 129.866 202.796 130.356 202.432C130.846 202.069 131.41 201.816 132.007 201.694C132.605 201.571 133.223 201.581 133.816 201.722C134.618 201.907 135.347 202.327 135.908 202.929C136.395 203.535 136.931 204.099 137.512 204.616C138.631 205.69 140.089 206.34 141.635 206.457C142.41 206.494 143.184 206.379 143.914 206.117C144.643 205.855 145.314 205.451 145.888 204.929C147.042 203.849 147.807 202.419 148.064 200.86C148.216 200.08 148.27 199.285 148.224 198.493C148.19 197.696 148.038 196.909 147.774 196.156C147.258 194.639 146.178 193.379 144.758 192.636C144.042 192.277 143.261 192.068 142.461 192.021C141.662 191.973 140.861 192.089 140.108 192.361C139.348 192.642 138.631 193.028 137.978 193.507C137.649 193.751 137.329 194.003 137.023 194.27C136.718 194.537 136.435 194.843 136.061 195.102C135.45 195.545 134.729 195.809 133.977 195.866C133.238 195.913 132.499 195.79 131.816 195.507C131.113 195.259 130.491 194.825 130.016 194.251C129.541 193.676 129.232 192.984 129.12 192.247C129.067 191.483 129.12 190.827 129.12 190.116L129.197 188.017L129.357 183.848C129.571 178.315 129.78 172.863 129.983 167.492V167.302H130.174L197.321 169.76H197.481V169.92C197.313 175.52 197.155 180.865 197.008 185.955C196.931 188.5 196.86 190.969 196.794 193.362C196.794 193.965 196.794 194.56 196.741 195.148C196.733 195.755 196.597 196.353 196.344 196.904C196.095 197.433 195.736 197.903 195.293 198.283C194.849 198.663 194.33 198.945 193.77 199.11C193.209 199.276 192.62 199.32 192.041 199.241C191.462 199.163 190.907 198.962 190.411 198.653C189.947 198.348 189.539 197.966 189.204 197.523C188.863 197.122 188.496 196.745 188.105 196.393C187.362 195.695 186.494 195.144 185.547 194.767C184.631 194.422 183.643 194.32 182.676 194.469C181.766 194.595 180.897 194.928 180.134 195.442C179.372 195.955 178.737 196.635 178.278 197.431C177.438 198.893 177.035 200.565 177.117 202.249C177.13 203.762 177.593 205.237 178.446 206.487C179.161 207.496 180.168 208.261 181.33 208.682C182.493 209.102 183.757 209.157 184.951 208.839C185.863 208.567 186.723 208.143 187.494 207.587C188.105 207.147 188.684 206.665 189.227 206.143C189.655 205.786 190.155 205.526 190.693 205.38C191.013 205.287 191.345 205.241 191.678 205.242C191.792 205.231 191.908 205.231 192.022 205.242C191.576 205.235 191.131 205.292 190.701 205.41C190.179 205.562 189.695 205.822 189.281 206.174C188.74 206.705 188.161 207.195 187.547 207.64C186.772 208.213 185.904 208.649 184.982 208.93C183.76 209.267 182.465 209.219 181.271 208.795C180.077 208.37 179.043 207.588 178.308 206.556C177.435 205.282 176.957 203.778 176.934 202.234C176.846 200.512 177.251 198.801 178.102 197.302C178.579 196.482 179.235 195.781 180.022 195.252C180.809 194.722 181.706 194.379 182.645 194.247C183.65 194.099 184.677 194.204 185.631 194.553C186.606 194.94 187.502 195.505 188.273 196.217C188.67 196.576 189.045 196.958 189.395 197.363C189.709 197.788 190.097 198.152 190.541 198.439C191.005 198.73 191.526 198.918 192.069 198.992C192.612 199.067 193.164 199.025 193.689 198.869C194.215 198.714 194.701 198.449 195.117 198.092C195.532 197.735 195.867 197.294 196.099 196.798C196.603 195.782 196.435 194.553 196.512 193.362C196.58 190.964 196.641 188.49 196.71 185.955C196.853 180.865 197 175.52 197.153 169.92L197.313 170.088L130.121 167.699L130.327 167.508C130.123 172.868 129.917 178.322 129.708 183.871C129.652 185.25 129.599 186.64 129.548 188.04L129.472 190.132C129.472 190.819 129.38 191.567 129.426 192.209C129.533 192.872 129.817 193.495 130.249 194.011C130.68 194.527 131.242 194.917 131.877 195.141C132.508 195.397 133.189 195.509 133.87 195.469C134.545 195.424 135.195 195.194 135.748 194.805C136.069 194.553 136.378 194.286 136.672 194.003C136.993 193.72 137.321 193.461 137.665 193.239C138.348 192.738 139.099 192.334 139.894 192.041C140.697 191.751 141.55 191.628 142.402 191.679C143.254 191.731 144.087 191.955 144.85 192.338C146.368 193.119 147.521 194.462 148.064 196.08C148.34 196.867 148.497 197.69 148.53 198.523C148.579 199.349 148.526 200.177 148.37 200.989C148.097 202.63 147.292 204.135 146.079 205.273C144.84 206.383 143.213 206.959 141.551 206.876C139.916 206.752 138.375 206.064 137.191 204.929C136.598 204.407 136.052 203.835 135.557 203.219C135.05 202.669 134.386 202.288 133.656 202.127C132.936 201.959 132.182 202.004 131.487 202.256C130.791 202.508 130.184 202.957 129.739 203.547C129.292 204.133 129.027 204.836 128.975 205.571C128.975 206.334 128.907 207.098 128.876 207.861C128.749 210.916 128.624 213.911 128.502 216.848C128.258 222.769 128.018 228.516 127.784 234.089L127.609 233.899L194.167 236.495L194.045 236.602C194.687 226.049 195.191 217.719 195.572 212.008C195.618 211.297 195.656 210.626 195.695 209.999C195.77 209.421 195.739 208.833 195.603 208.266C195.411 207.551 195.023 206.904 194.484 206.397C193.944 205.89 193.274 205.543 192.549 205.395C192.251 205.326 192.052 205.326 192.06 205.311Z" fill="#263238"/>
<path d="M135.199 230.02C135.199 230.02 133.015 230.501 134.092 235.105C134.771 237.991 136.558 236.334 136.558 236.334C136.762 236.539 137.013 236.691 137.289 236.778C137.565 236.864 137.858 236.882 138.143 236.83C138.428 236.779 138.696 236.658 138.923 236.48C139.151 236.302 139.333 236.071 139.452 235.807L139.704 236.09C139.704 236.09 141.032 238.335 142.964 236.181C143.345 236.351 143.768 236.4 144.177 236.322C144.587 236.244 144.963 236.043 145.255 235.746C146.186 234.677 144.667 232.264 144.667 232.264C144.667 232.264 144.361 228.722 143.407 228.592C143.118 228.547 142.822 228.602 142.568 228.748C142.314 228.893 142.117 229.121 142.01 229.393C141.917 230.222 141.876 231.056 141.887 231.89C141.887 231.89 141.635 228.836 141.002 228.561C139.887 228.134 138.795 228.34 139.192 232.081C139.192 232.081 138.94 229.302 138.329 229.027C137.718 228.752 136.856 229.203 136.459 230.241C136.221 230.855 136.132 231.517 136.199 232.173C136.199 232.173 136.573 229.485 135.199 230.02Z" fill="#FFBF9D"/>
<path d="M136.565 236.189C136.6 235.346 136.57 234.501 136.473 233.662C136.486 232.817 136.435 231.972 136.32 231.135C135.983 232.814 136.067 234.55 136.565 236.189Z" fill="#FF9A6C"/>
<path d="M139.566 235.853C139.569 235.055 139.507 234.259 139.382 233.471C139.367 232.675 139.293 231.881 139.161 231.096C138.956 231.881 138.917 232.7 139.046 233.501C139.06 234.312 139.236 235.112 139.566 235.853Z" fill="#FF9A6C"/>
<path d="M143.124 236.227C143.215 236.182 142.681 235.158 142.36 233.792C142.039 232.425 142.047 231.28 141.94 231.272C141.739 232.133 141.77 233.031 142.032 233.876C142.178 234.743 142.555 235.556 143.124 236.227Z" fill="#FF9A6C"/>
<path d="M224.106 189.719L212.653 191.895L213.058 202.051L201.75 215.695L204.216 222.422C206.506 220.803 219.227 212.137 223.625 207.64C225.519 205.716 224.106 189.719 224.106 189.719Z" fill="#FFBF9D"/>
<path d="M219.754 202.914C219.754 202.914 219.418 202.616 218.838 202.242C218.507 202.026 218.154 201.846 217.784 201.707C217.346 201.547 216.889 201.439 216.425 201.387C215.967 201.346 215.505 201.364 215.051 201.44C214.671 201.508 214.3 201.615 213.944 201.761C213.333 202.013 212.982 202.272 212.966 202.242C213.042 202.171 213.124 202.107 213.211 202.051C213.304 201.977 213.404 201.91 213.508 201.852C213.631 201.791 213.76 201.707 213.921 201.639C214.278 201.477 214.652 201.357 215.036 201.28C215.499 201.194 215.971 201.171 216.44 201.211C216.914 201.266 217.378 201.381 217.822 201.555C218.199 201.704 218.555 201.899 218.884 202.135C219.017 202.224 219.144 202.321 219.266 202.425C219.373 202.509 219.464 202.601 219.54 202.669C219.621 202.742 219.693 202.824 219.754 202.914Z" fill="#FF9A6C"/>
<path d="M201.925 215.329C201.925 215.329 200.772 213.611 199.634 213.183C198.496 212.756 196.847 212.702 196.58 212.42C196.313 212.137 195.816 211.282 195.213 211.656C194.61 212.031 193.365 213.878 195.587 215.222L197.237 215.772C196.89 216.535 196.432 217.243 195.877 217.872C195.259 218.391 187.318 223.583 187.318 223.583C187.318 223.583 186.386 224.056 186.501 224.866C186.616 225.675 188.257 225.782 188.257 225.782C188.471 226.149 188.775 226.455 189.139 226.673C189.504 226.891 189.917 227.012 190.342 227.027C191.003 227.021 191.661 226.942 192.304 226.79C192.594 227.215 193.015 227.534 193.503 227.696C193.992 227.859 194.52 227.857 195.007 227.691C196.755 227.103 204.62 222.071 204.62 222.071L203.857 215.696L201.925 215.329Z" fill="#FFBF9D"/>
<path d="M194.037 223.224C193.257 223.941 192.351 224.508 191.365 224.896C190.41 225.38 189.375 225.685 188.311 225.797C188.311 225.713 189.647 225.339 191.212 224.629C192.777 223.919 193.991 223.155 194.037 223.224Z" fill="#FF9A6C"/>
<path d="M196.236 224.957C195.126 226.199 193.57 226.951 191.907 227.049C191.907 226.965 192.961 226.752 194.152 226.171C195.343 225.591 196.175 224.904 196.236 224.957Z" fill="#FF9A6C"/>
<path d="M102.823 229.874L49.619 226.43L44.7551 247.81H104.144C104.653 241.799 104.207 235.745 102.823 229.874Z" fill="#263238"/>
<path d="M72.0132 104.422C72.4251 103.776 73.0278 103.274 73.7378 102.985C74.4478 102.697 75.23 102.636 75.9761 102.811C76.9218 102.197 78.0469 101.918 79.1702 102.021C80.2935 102.123 81.3495 102.601 82.1685 103.376C82.8663 103.038 83.6387 102.882 84.4133 102.923C85.1879 102.965 85.9393 103.202 86.5971 103.613C87.2473 104.039 87.7784 104.624 88.1404 105.312C88.5023 105.999 88.6834 106.768 88.6663 107.545C89.4539 107.495 90.2379 107.688 90.9124 108.098C91.5869 108.507 92.1195 109.114 92.4383 109.836C92.7339 110.567 92.8009 111.371 92.6305 112.141C92.4601 112.911 92.0603 113.612 91.4838 114.15C92.2943 114.516 92.9494 115.156 93.3336 115.958C93.7178 116.76 93.8064 117.672 93.5836 118.533C93.3136 119.38 92.7496 120.103 91.9935 120.57C91.2374 121.038 90.3389 121.22 89.4604 121.083L72.3797 108.729C71.8796 108.138 71.5757 107.406 71.51 106.634C71.4444 105.863 71.6202 105.09 72.0132 104.422Z" fill="#263238"/>
<path d="M89.9496 121.602C89.928 117.748 88.4567 114.042 85.8282 111.223C83.1997 108.403 79.6064 106.676 75.7628 106.385L74.9992 106.331C66.4321 106.217 63.1794 113.921 63.294 122.534L61.7668 154.405L74.4724 167.156L79.1148 158.673L80.7182 150.22C80.7182 150.22 89.0104 149.526 89.6976 141.294C89.9801 137.316 90.0107 129.07 89.9496 121.602Z" fill="#AE7461"/>
<path d="M80.7331 150.213C76.9201 149.937 73.2683 148.563 70.219 146.258C70.219 146.258 72.0133 152.58 80.2444 152.427L80.7331 150.213Z" fill="#6F4439"/>
<path d="M87.025 128.528C87.0072 128.834 86.8703 129.122 86.6434 129.329C86.4166 129.536 86.1177 129.645 85.8109 129.635C85.6606 129.637 85.5115 129.609 85.3724 129.552C85.2333 129.495 85.1072 129.41 85.0017 129.303C84.8961 129.196 84.8133 129.069 84.7582 128.929C84.703 128.789 84.6767 128.64 84.6808 128.49C84.6986 128.183 84.8356 127.896 85.0624 127.689C85.2893 127.482 85.5881 127.372 85.8949 127.383C86.0449 127.381 86.1936 127.41 86.3321 127.468C86.4707 127.525 86.5964 127.61 86.7018 127.717C86.8071 127.823 86.89 127.95 86.9455 128.089C87.001 128.229 87.028 128.378 87.025 128.528Z" fill="#263238"/>
<path d="M87.9793 125.939C87.8266 126.077 86.9867 125.359 85.6886 125.268C84.3906 125.176 83.459 125.749 83.3369 125.588C83.2147 125.428 83.4361 125.245 83.8637 124.977C84.4333 124.636 85.0954 124.481 85.7574 124.535C86.4156 124.577 87.0424 124.831 87.544 125.26C87.9258 125.588 88.0327 125.871 87.9793 125.939Z" fill="#263238"/>
<path d="M76.1898 127.971C76.1703 128.272 76.0361 128.555 75.8145 128.761C75.593 128.967 75.3011 129.08 74.9987 129.078C74.8484 129.078 74.6995 129.048 74.5609 128.99C74.4223 128.931 74.2967 128.846 74.1914 128.739C74.0862 128.631 74.0034 128.504 73.948 128.364C73.8926 128.224 73.8656 128.075 73.8686 127.925C73.8883 127.619 74.0258 127.333 74.2522 127.126C74.4787 126.92 74.7764 126.809 75.0827 126.818C75.2311 126.821 75.3775 126.853 75.5134 126.912C75.6494 126.972 75.7723 127.058 75.8751 127.165C75.9779 127.272 76.0586 127.398 76.1126 127.536C76.1666 127.675 76.1929 127.822 76.1898 127.971Z" fill="#263238"/>
<path d="M75.923 124.878C75.7627 125.023 74.9228 124.298 73.6324 124.214C72.342 124.13 71.4104 124.695 71.2806 124.527C71.1508 124.359 71.3875 124.191 71.8151 123.924C72.3839 123.58 73.0466 123.425 73.7087 123.481C74.3643 123.525 74.9883 123.779 75.4878 124.206C75.8849 124.542 75.9994 124.832 75.923 124.878Z" fill="#263238"/>
<path d="M79.3972 134.583C80.0743 134.418 80.7697 134.341 81.4664 134.354C81.7947 134.354 82.1002 134.308 82.1689 134.087C82.221 133.756 82.1703 133.418 82.0238 133.117L81.2603 130.582C80.1913 126.978 79.443 124.031 79.5881 123.985C79.7332 123.939 80.7105 126.833 81.7795 130.429C82.0391 131.315 82.2936 132.163 82.5431 132.972C82.7192 133.377 82.7462 133.832 82.6194 134.255C82.5685 134.367 82.4912 134.465 82.3942 134.541C82.2971 134.617 82.1831 134.668 82.062 134.69C81.8768 134.711 81.6898 134.711 81.5046 134.69C80.8005 134.743 80.0924 134.707 79.3972 134.583Z" fill="#263238"/>
<path d="M75.6251 135.194C75.8312 135.194 75.732 136.568 76.8315 137.629C77.931 138.691 79.4047 138.645 79.397 138.836C79.3894 139.027 79.0534 139.08 78.4349 139.05C77.6332 139.004 76.8733 138.677 76.2894 138.126C75.7345 137.587 75.4044 136.859 75.3655 136.087C75.3578 135.507 75.5335 135.178 75.6251 135.194Z" fill="#263238"/>
<path d="M76.1979 121.282C76.0222 121.595 74.9609 121.221 73.6399 121.152C72.319 121.083 71.2042 121.274 71.0897 120.938C71.0439 120.778 71.2882 120.495 71.7692 120.243C72.3895 119.947 73.0766 119.818 73.7621 119.869C74.4403 119.905 75.0954 120.127 75.6557 120.511C76.0909 120.816 76.2742 121.129 76.1979 121.282Z" fill="#263238"/>
<path d="M87.9184 122.442C87.7046 122.732 86.8265 122.442 85.7805 122.442C84.7344 122.442 83.8563 122.656 83.6502 122.358C83.5585 122.213 83.696 121.923 84.0778 121.64C84.5939 121.309 85.1968 121.139 85.81 121.151C86.4232 121.163 87.0189 121.358 87.5214 121.709C87.8955 122.007 88.0177 122.297 87.9184 122.442Z" fill="#263238"/>
<path d="M89.4304 117.77C89.4304 117.77 87.6437 112.425 85.2538 111.066C82.3599 109.393 80.8328 112.593 78.0382 111.6C75.2436 110.607 72.4795 108.989 69.4024 111.005C66.0351 113.204 67.4095 115.013 66.9438 118.64C65.0807 133.415 62.0876 137.416 61.8203 130.376C61.8203 129.612 59.7282 128.849 59.6442 125.588C59.5449 121.366 59.7511 116.265 60.8888 113.372C61.8585 110.921 63.4009 109.287 66.0886 107.561C70.3263 104.835 75.8621 105.163 79.5882 105.812C83.3144 106.461 90.2703 111.333 89.4304 117.77Z" fill="#263238"/>
<path d="M63.4008 130.276C63.4131 129.974 63.3642 129.673 63.2568 129.39C63.1495 129.108 62.986 128.85 62.7761 128.632C62.5663 128.414 62.3146 128.242 62.0361 128.124C61.7577 128.006 61.4582 127.946 61.1559 127.948C59.6288 127.986 57.8497 128.711 57.7276 131.918C57.4985 137.568 63.187 136.629 63.2022 136.461C63.2175 136.293 63.3244 132.643 63.4008 130.276Z" fill="#AE7461"/>
<path d="M62.0645 134.293C62.0645 134.293 61.9652 134.354 61.7972 134.422C61.6766 134.474 61.5467 134.501 61.4155 134.501C61.2842 134.501 61.1543 134.474 61.0337 134.422C60.6795 134.175 60.3969 133.839 60.2145 133.447C60.0322 133.056 59.9565 132.623 59.9953 132.193C60.0017 131.708 60.1165 131.23 60.3312 130.795C60.3882 130.621 60.4879 130.463 60.6212 130.336C60.7545 130.21 60.9173 130.118 61.0948 130.07C61.2081 130.043 61.3273 130.058 61.4309 130.111C61.5344 130.164 61.6156 130.252 61.6598 130.36C61.7285 130.521 61.6598 130.635 61.7209 130.643C61.782 130.65 61.843 130.551 61.8049 130.314C61.78 130.174 61.7071 130.048 61.5987 129.956C61.4483 129.834 61.2572 129.774 61.0642 129.788C60.831 129.825 60.6113 129.921 60.4267 130.069C60.242 130.216 60.0986 130.408 60.0105 130.627C59.7539 131.096 59.615 131.62 59.6058 132.155C59.6058 133.292 60.1327 134.384 60.9344 134.651C61.0833 134.703 61.242 134.719 61.3983 134.7C61.5546 134.68 61.7042 134.624 61.8354 134.537C62.0187 134.43 62.0797 134.3 62.0645 134.293Z" fill="#6F4439"/>
<path d="M63.2556 119.289C63.9015 119.897 64.6887 120.336 65.5463 120.564C65.9778 120.664 66.4309 120.602 66.8204 120.391C67.2099 120.18 67.5089 119.835 67.6613 119.419C67.7606 119.029 67.6613 118.563 67.9744 118.281C68.2874 117.998 68.8601 118.098 69.3259 118.182C70.1402 118.304 70.9719 118.144 71.6821 117.727C72.3923 117.31 72.9378 116.662 73.2276 115.891C73.4621 116.182 73.7953 116.377 74.164 116.439C74.5327 116.501 74.9113 116.426 75.2281 116.227C75.8426 115.795 76.395 115.282 76.8698 114.7C77.1079 114.408 77.4143 114.179 77.7619 114.034C78.1096 113.889 78.4876 113.832 78.8626 113.868C79.2468 114.034 79.6491 114.154 80.0614 114.226C80.825 114.226 81.222 113.371 81.39 112.646C81.558 111.921 81.6954 111.073 82.3521 110.714C83.0087 110.355 83.6883 110.653 84.3602 110.806C85.0321 110.958 85.8873 110.859 86.1393 110.203C86.1808 110.026 86.1859 109.843 86.1544 109.665C86.1229 109.486 86.0554 109.316 85.956 109.164C85.5537 108.45 84.9203 107.893 84.1598 107.587C83.3994 107.28 82.5572 107.241 81.7718 107.477C81.5689 106.521 81.0858 105.647 80.3839 104.966C79.6821 104.286 78.7934 103.83 77.8314 103.657C76.8694 103.484 75.8776 103.602 74.9828 103.996C74.088 104.389 73.3307 105.04 72.8077 105.866C72.2526 105.28 71.5635 104.837 70.7997 104.576C70.0359 104.315 69.2202 104.244 68.4226 104.368C67.6251 104.492 66.8695 104.807 66.2209 105.288C65.5722 105.768 65.0499 106.399 64.6987 107.125C64.0222 106.897 63.2936 106.873 62.6035 107.056C61.9133 107.239 61.2921 107.62 60.817 108.153C60.3419 108.686 60.0339 109.347 59.9312 110.053C59.8285 110.76 59.9358 111.481 60.2396 112.127C59.6984 112.349 59.2226 112.706 58.8567 113.163C58.4908 113.619 58.2468 114.161 58.1474 114.738C58.0405 115.906 59.0866 117.151 60.2319 116.922C59.9866 117.368 59.9118 117.888 60.0213 118.385C60.1309 118.883 60.4174 119.323 60.8275 119.625C61.2572 119.898 61.7722 120.004 62.2747 119.922C62.7773 119.84 63.2323 119.577 63.5534 119.182" fill="#263238"/>
<path d="M59.8273 116.853C59.7907 117.047 59.7963 117.246 59.8437 117.437C59.8912 117.628 59.9793 117.807 60.1022 117.96C60.3469 118.343 60.7298 118.617 61.1712 118.724C61.4524 118.792 61.7454 118.796 62.0283 118.735C62.3112 118.674 62.5768 118.55 62.8052 118.373L62.5685 118.319C62.8246 118.869 63.1704 119.372 63.5916 119.808C63.8662 120.105 64.1955 120.346 64.5613 120.518C64.9121 120.68 65.2993 120.746 65.6838 120.709C66.0075 120.704 66.3262 120.628 66.6176 120.487C66.909 120.346 67.1662 120.143 67.3712 119.892C67.619 119.547 67.8002 119.159 67.9057 118.747C67.9589 118.603 67.9848 118.45 67.9821 118.296C67.9821 118.296 67.8981 118.441 67.7835 118.709C67.6426 119.083 67.4415 119.431 67.188 119.74C66.9626 119.962 66.6935 120.136 66.3976 120.249C66.1018 120.362 65.7856 120.413 65.4692 120.398C65.1527 120.383 64.8428 120.302 64.5591 120.161C64.2753 120.021 64.0239 119.822 63.8207 119.579C63.4294 119.167 63.1025 118.699 62.851 118.189L62.7823 118.006L62.6372 118.128C62.4435 118.279 62.2202 118.386 61.9821 118.444C61.7439 118.502 61.4962 118.509 61.2552 118.464C60.8668 118.384 60.52 118.168 60.2778 117.854C60.0661 117.551 59.9132 117.212 59.8273 116.853Z" fill="#455A64"/>
<path d="M71.342 104.736C71.466 104.801 71.5934 104.86 71.7238 104.911C72.0717 105.092 72.3566 105.374 72.5408 105.721L72.6019 105.835L72.6859 105.736C73.4566 104.831 74.4445 104.138 75.5569 103.72C76.2707 103.452 77.0334 103.34 77.794 103.392C78.6348 103.454 79.4414 103.751 80.1229 104.247C80.6583 104.629 81.106 105.121 81.4362 105.69C81.7375 106.225 81.9076 106.825 81.9325 107.439V107.614H82.1081C82.9012 107.463 83.7222 107.624 84.3988 108.065C84.9351 108.418 85.3465 108.931 85.5747 109.531C85.7689 110.073 85.847 110.651 85.8038 111.226C85.8681 111.082 85.9019 110.926 85.903 110.768C85.9431 110.326 85.8884 109.881 85.7427 109.462C85.5244 108.813 85.1043 108.251 84.5439 107.858C83.8108 107.354 82.9079 107.159 82.0318 107.316L82.215 107.461C82.1976 106.798 82.0194 106.148 81.6958 105.568C81.3426 104.964 80.8634 104.443 80.2909 104.041C79.5637 103.51 78.7002 103.197 77.8017 103.14C76.9975 103.094 76.1929 103.221 75.4423 103.514C74.2966 103.961 73.2937 104.71 72.5408 105.682H72.6783C72.4682 105.315 72.1398 105.03 71.7467 104.873C71.6234 104.798 71.4853 104.751 71.342 104.736Z" fill="#455A64"/>
<path d="M54.5054 230.348C54.624 230.418 54.7493 230.477 54.8795 230.523L55.9714 230.966C56.9258 231.348 58.3308 231.852 60.0717 232.425C61.8126 232.997 63.9276 233.608 66.2793 234.196C68.6311 234.784 71.2653 235.318 74.037 235.761C76.8087 236.204 79.4659 236.471 81.894 236.647C84.3221 236.823 86.5135 236.876 88.346 236.861C90.1785 236.845 91.6751 236.8 92.6983 236.723L93.8818 236.639C94.0185 236.64 94.1546 236.622 94.2865 236.586C94.1493 236.574 94.0113 236.574 93.8741 236.586H92.6906C91.6675 236.586 90.1862 236.632 88.346 236.586C86.5059 236.54 84.3374 236.471 81.9169 236.296C79.4965 236.12 76.8546 235.815 74.0905 235.387C71.3264 234.96 68.7456 234.41 66.3633 233.86C63.9811 233.31 61.8966 232.707 60.148 232.157C58.3995 231.608 56.9869 231.157 56.0248 230.813L54.9024 230.432C54.7744 230.386 54.6409 230.358 54.5054 230.348Z" fill="#263238"/>
<path d="M89.8349 155L80.4661 153.473C80.4661 153.473 79.9698 157.398 73.5941 157.528C66.2717 157.68 61.1482 151.419 61.1482 151.419C61.1482 151.419 44.9151 156.107 41.7158 158.505C38.5165 160.903 48.9619 210.953 48.9619 210.953L49.9087 225.866C49.9087 225.866 47.786 228.523 47.786 231.111C47.8496 232.527 47.3934 233.918 46.5033 235.021C66.012 240.495 87.109 245.382 104.923 240.091C104.923 240.091 104.48 231.294 103.449 228.897C102.418 226.499 102.609 226.278 102.609 226.278L99.6847 200.18L96.8825 174.792L89.8349 155Z" fill="#455A64"/>
<path d="M89.8347 155C89.8347 155 94.4619 156.413 97.1496 159.33C99.8373 162.246 105.785 172.371 105.785 172.371L100.608 189.108L93.118 185.481L89.8347 155Z" fill="#455A64"/>
<path d="M95.615 173.914C95.8486 174.682 96.0147 175.468 96.1113 176.265C96.3709 177.724 96.684 179.747 96.997 181.984C97.3101 184.222 97.562 186.26 97.7071 187.734C97.8208 188.528 97.8643 189.33 97.8369 190.131C97.6402 189.354 97.5024 188.563 97.4246 187.764C97.1955 186.184 96.913 184.214 96.6076 182.038C96.3022 179.862 96.0502 177.892 95.844 176.303C95.7039 175.514 95.6273 174.715 95.615 173.914Z" fill="#263238"/>
<path d="M69.4174 190.124C69.3844 190.653 69.2474 191.171 69.0142 191.648C68.781 192.124 68.4563 192.55 68.0585 192.901C67.6607 193.252 67.1977 193.521 66.6959 193.693C66.1941 193.865 65.6633 193.937 65.1339 193.903C64.5853 193.873 64.0489 193.729 63.5588 193.48C63.0686 193.232 62.6352 192.885 62.2859 192.46C61.1711 191.086 59.1629 189.131 56.6737 188.979C52.8025 188.734 49.9087 191.666 49.6338 196.049C49.3589 200.432 51.871 203.685 55.7422 203.937C58.239 204.089 60.4686 202.409 61.7438 201.172C62.3344 200.621 63.0769 200.259 63.8753 200.134C64.6737 200.009 65.4912 200.127 66.2221 200.471C66.9531 200.816 67.5639 201.372 67.9757 202.067C68.3874 202.762 68.5811 203.565 68.5317 204.372L66.8137 231.715L127.661 234.311L128.982 205.555C129.017 205.031 129.156 204.519 129.39 204.049C129.625 203.578 129.95 203.159 130.348 202.816C130.746 202.473 131.208 202.212 131.708 202.049C132.207 201.887 132.734 201.825 133.258 201.867C133.79 201.906 134.307 202.058 134.774 202.314C135.242 202.569 135.649 202.922 135.969 203.349C137.083 204.715 138.542 206.807 141.726 206.708C146.086 206.563 148.491 204.021 148.766 199.638C149.041 195.255 146.529 192.002 142.657 191.75C140.161 191.597 137.923 193.178 136.656 194.4C136.262 194.793 135.792 195.102 135.275 195.307C134.758 195.511 134.204 195.608 133.648 195.591C131.426 195.453 129.349 193.766 129.486 191.544L130.525 167.11L70.2574 164.583L69.4174 190.124Z" fill="#FFD95B"/>
<path d="M40.0206 159.833C40.0206 159.833 36.0578 168.401 35.6836 171.18C35.363 173.409 32.8967 201.844 32.6752 206.021C32.4538 210.197 31.0641 218.917 36.3479 221.926C39.9901 224.002 58.3535 226.973 57.2616 226.805C59.1247 223.178 56.5974 220.857 59.9417 217.818L47.4576 208.815L49.9163 178.51L40.0206 159.833Z" fill="#AE7461"/>
<path d="M40.5399 213.069C41.1805 211.799 42.1715 210.739 43.3956 210.014C44.555 209.197 45.9193 208.718 47.3355 208.632C46.0306 209.057 44.776 209.622 43.5941 210.32C42.4756 211.118 41.451 212.04 40.5399 213.069Z" fill="#6F4439"/>
<path d="M61.3999 217.841C61.3999 217.841 63.4386 216.016 65.042 215.84C66.6455 215.665 68.7682 216.138 69.1729 215.901C69.5776 215.665 70.4862 214.68 71.1658 215.413C71.8453 216.146 72.8074 218.872 69.5165 219.872L67.2258 220.025C67.4188 221.12 67.774 222.18 68.2795 223.17C68.9056 224.041 77.3811 233.326 77.3811 233.326C77.3811 233.326 78.4271 234.234 78.0072 235.242C77.5872 236.25 75.4569 235.838 75.4569 235.838C75.0648 236.233 74.5798 236.524 74.0463 236.684C73.5129 236.844 72.9478 236.868 72.4027 236.754C71.5524 236.529 70.7302 236.209 69.9517 235.8C69.4408 236.249 68.7962 236.518 68.1173 236.565C67.4384 236.612 66.7629 236.434 66.195 236.059C64.1411 234.731 55.6962 225.675 55.6962 225.675L58.7504 217.742L61.3999 217.841Z" fill="#AE7461"/>
<path d="M68.9823 229.874C69.0739 229.798 70.3491 231.279 72.1281 232.875C73.9072 234.471 75.5565 235.547 75.4878 235.639C75.0819 235.497 74.7025 235.288 74.3654 235.021C73.4945 234.461 72.6675 233.835 71.8914 233.15C71.1197 232.458 70.3977 231.713 69.7306 230.92C69.4295 230.612 69.1772 230.259 68.9823 229.874Z" fill="#6F4439"/>
<path d="M65.2489 232.088C65.3329 232.004 66.2721 232.989 67.6235 233.936C68.5061 234.446 69.2981 235.099 69.9677 235.868C69.08 235.384 68.2278 234.838 67.4174 234.234C66.5487 233.683 65.8091 232.951 65.2489 232.088Z" fill="#6F4439"/>
<path d="M30.0334 189.986L48.5878 193.521L53.9861 176.311L49.5728 155.855C49.5728 155.855 39.7 156.214 36.4549 164.292C33.2098 172.371 30.0334 189.986 30.0334 189.986Z" fill="#455A64"/>
<path d="M123.103 170.287C123.103 170.287 125.294 169.806 124.21 165.201C123.531 162.315 121.752 163.98 121.752 163.98C121.547 163.775 121.296 163.622 121.02 163.535C120.743 163.448 120.45 163.429 120.165 163.48C119.88 163.532 119.611 163.651 119.382 163.828C119.153 164.005 118.971 164.236 118.85 164.499L118.606 164.216C118.606 164.216 117.27 161.971 115.345 164.125C114.965 163.955 114.541 163.906 114.132 163.984C113.723 164.062 113.347 164.263 113.055 164.56C112.123 165.629 113.635 168.042 113.635 168.042C113.635 168.042 113.948 171.585 114.895 171.722C115.185 171.766 115.482 171.71 115.736 171.563C115.99 171.416 116.186 171.186 116.292 170.913C116.391 170.084 116.434 169.25 116.422 168.416C116.422 168.416 116.674 171.508 117.3 171.753C118.423 172.173 119.514 171.966 119.11 168.225C119.11 168.225 119.369 171.012 119.973 171.279C120.576 171.546 121.454 171.104 121.851 170.065C122.089 169.453 122.178 168.794 122.11 168.141C122.11 168.141 121.752 170.791 123.103 170.287Z" fill="#AE7461"/>
<path d="M121.767 164.117C121.726 164.96 121.757 165.806 121.858 166.644C121.841 167.489 121.892 168.335 122.011 169.172C122.233 168.344 122.296 167.48 122.194 166.629C122.204 165.773 122.059 164.922 121.767 164.117Z" fill="#6F4439"/>
<path d="M118.758 164.453C118.765 165.251 118.828 166.047 118.949 166.835C118.959 167.632 119.033 168.426 119.17 169.21C119.463 167.616 119.32 165.973 118.758 164.453Z" fill="#6F4439"/>
<path d="M115.2 164.079C115.116 164.125 115.651 165.148 115.964 166.515C116.277 167.882 116.277 169.027 116.376 169.035C116.583 168.177 116.554 167.28 116.292 166.438C116.145 165.569 115.768 164.754 115.2 164.079Z" fill="#6F4439"/>
<path d="M49.1834 172.814C49.235 173.086 49.2581 173.362 49.2521 173.639C49.2521 174.173 49.2521 174.952 49.2521 175.929C49.2521 177.838 49.1986 180.511 49.0917 183.397C48.9848 186.283 48.8932 188.849 48.8169 190.857C48.7787 191.743 48.7481 192.499 48.7252 193.148C48.7324 193.428 48.7016 193.708 48.6336 193.98C48.5824 193.706 48.5594 193.427 48.5649 193.148C48.5649 192.613 48.5649 191.842 48.5649 190.857C48.5649 188.948 48.6183 186.276 48.7252 183.389C48.8321 180.503 48.9238 177.938 49.0001 175.929C49.0383 175.044 49.0688 174.288 49.0917 173.639C49.0831 173.361 49.114 173.083 49.1834 172.814Z" fill="#263238"/>
<path d="M232.129 247.26C232.129 247.331 186.651 247.393 130.57 247.393C74.4882 247.393 29 247.316 29 247.26C29 247.203 74.4626 247.126 130.57 247.126C186.676 247.126 232.129 247.167 232.129 247.26Z" fill="#263238"/>
</svg>
