<svg width="302" height="243" viewBox="0 0 302 243" fill="none" xmlns="http://www.w3.org/2000/svg">
<path d="M277.943 60.6879C297.876 93.9077 295.783 140.67 270.879 171.441C245.975 202.213 207.398 225.89 163.826 233.159C132.724 238.336 81.7013 239.307 53.2841 227.553C24.867 215.799 0.100076 189.499 0.000410679 162.976C-0.043193 151.527 3.37035 136.502 17.4419 124.567C30.8594 113.168 55.7073 114.538 74.8244 115.031C93.9415 115.523 115.681 115.155 128.494 103.27C138.33 94.1382 139.781 80.8951 144.964 69.39C153.784 49.8306 175.057 34.5631 199.506 30.2401C202.909 29.6375 206.345 29.2464 209.797 29.069C236.688 27.6674 262.19 39.2411 276.298 58.4454L277.943 60.6879Z" fill="#E7EDFF"/>
<path d="M45.8471 104.99H241.329C241.88 104.99 242.426 105.098 242.935 105.309C243.445 105.52 243.908 105.829 244.297 106.219C244.687 106.609 244.997 107.072 245.208 107.581C245.419 108.091 245.527 108.637 245.527 109.188V231.154C245.527 233.561 244.571 235.869 242.869 237.571C241.167 239.273 238.858 240.23 236.451 240.23H50.0953C47.6883 240.23 45.3798 239.273 43.6778 237.571C41.9757 235.869 41.0195 233.561 41.0195 231.154V109.823C41.0187 109.189 41.143 108.56 41.3852 107.974C41.6275 107.388 41.9829 106.855 42.4313 106.406C42.8797 105.957 43.4121 105.601 43.9982 105.358C44.5843 105.115 45.2126 104.99 45.8471 104.99Z" fill="#263238"/>
<path d="M32.4668 230.226H254.036V233.508C254.036 234.631 253.815 235.742 253.385 236.779C252.956 237.816 252.326 238.758 251.533 239.551C250.739 240.345 249.797 240.975 248.76 241.404C247.723 241.834 246.612 242.055 245.49 242.055H41.0194C39.897 242.055 38.7857 241.834 37.7488 241.404C36.7119 240.975 35.7698 240.345 34.9762 239.551C34.1826 238.758 33.5531 237.816 33.1236 236.779C32.6941 235.742 32.473 234.631 32.473 233.508V230.226H32.4668Z" fill="#263238"/>
<path d="M239.466 110.365H46.5137V224.57H239.466V110.365Z" fill="#455A64"/>
<path d="M123.113 230.226L125.86 234.598H164.549L167.103 230.226H123.113Z" fill="#455A64"/>
<path d="M230.597 117.971H52.9492V224.526H230.597V117.971Z" fill="white"/>
<path d="M60.529 123.222C60.5302 123.518 60.4435 123.808 60.2797 124.055C60.1159 124.302 59.8824 124.494 59.609 124.608C59.3356 124.722 59.0345 124.752 58.7439 124.695C58.4533 124.637 58.1864 124.495 57.9769 124.286C57.7675 124.076 57.625 123.809 57.5675 123.519C57.51 123.228 57.5401 122.927 57.6541 122.653C57.768 122.38 57.9606 122.147 58.2074 121.983C58.4542 121.819 58.7441 121.732 59.0403 121.733C59.4346 121.735 59.8123 121.892 60.0912 122.171C60.37 122.45 60.5274 122.828 60.529 123.222Z" fill="#263238"/>
<path d="M66.6084 123.222C66.6084 123.517 66.5211 123.804 66.3575 124.049C66.1939 124.294 65.9614 124.485 65.6893 124.598C65.4173 124.71 65.118 124.74 64.8292 124.682C64.5404 124.625 64.2751 124.483 64.0669 124.275C63.8587 124.067 63.7169 123.801 63.6595 123.513C63.602 123.224 63.6315 122.924 63.7442 122.652C63.8569 122.38 64.0477 122.148 64.2925 121.984C64.5373 121.821 64.8252 121.733 65.1196 121.733C65.514 121.735 65.8917 121.892 66.1705 122.171C66.4494 122.45 66.6067 122.828 66.6084 123.222Z" fill="#263238"/>
<path d="M72.6931 123.222C72.6943 123.518 72.6075 123.808 72.4437 124.055C72.2799 124.302 72.0465 124.494 71.7731 124.608C71.4997 124.722 71.1986 124.752 70.908 124.695C70.6174 124.637 70.3504 124.495 70.141 124.286C69.9315 124.076 69.789 123.809 69.7316 123.519C69.6741 123.228 69.7042 122.927 69.8181 122.653C69.932 122.38 70.1246 122.147 70.3714 121.983C70.6182 121.819 70.9081 121.732 71.2043 121.733C71.5987 121.735 71.9764 121.892 72.2552 122.171C72.5341 122.45 72.6914 122.828 72.6931 123.222Z" fill="#263238"/>
<path d="M230.597 129.757C230.597 129.85 190.824 129.925 141.776 129.925C92.7283 129.925 52.9492 129.85 52.9492 129.757C52.9492 129.663 92.7096 129.588 141.776 129.588C190.843 129.588 230.597 129.651 230.597 129.757Z" fill="#263238"/>
<path d="M245.521 230.313H41.0195V230.967H245.521V230.313Z" fill="#455A64"/>
<path d="M112.311 153.539L114.099 186.441C114.131 187.005 114.376 187.535 114.784 187.925C115.192 188.315 115.734 188.535 116.298 188.54L175.474 188.97C176.063 188.974 176.629 188.743 177.048 188.33C177.468 187.917 177.706 187.354 177.711 186.765L177.898 161.164C177.899 160.871 177.843 160.581 177.733 160.31C177.622 160.039 177.459 159.793 177.253 159.585C177.047 159.378 176.802 159.212 176.532 159.1C176.262 158.987 175.973 158.928 175.68 158.927L139.277 158.896C138.693 158.9 138.13 158.677 137.707 158.273L131.429 151.994C131.013 151.591 130.456 151.367 129.877 151.371L114.529 151.259C114.232 151.259 113.939 151.319 113.666 151.434C113.393 151.549 113.145 151.718 112.938 151.931C112.732 152.143 112.57 152.395 112.462 152.671C112.354 152.948 112.303 153.243 112.311 153.539Z" fill="#2952CE"/>
<path d="M177.954 155.054L113.285 154.58L113.002 193.225L177.671 193.699L177.954 155.054Z" fill="#F5F5F5"/>
<path d="M108.12 158.012L112.76 198.345C112.804 198.688 112.971 199.003 113.23 199.233C113.489 199.462 113.822 199.589 114.168 199.591L177.188 200.052C177.548 200.055 177.895 199.921 178.161 199.679C178.427 199.436 178.591 199.102 178.621 198.744L182.09 158.473C182.108 158.276 182.084 158.078 182.021 157.891C181.958 157.704 181.856 157.533 181.723 157.387C181.591 157.241 181.429 157.125 181.249 157.044C181.068 156.964 180.874 156.922 180.676 156.921L109.546 156.398C109.342 156.396 109.14 156.439 108.953 156.522C108.767 156.605 108.6 156.727 108.465 156.88C108.33 157.033 108.229 157.213 108.17 157.408C108.11 157.603 108.093 157.809 108.12 158.012Z" fill="#2952CE"/>
<path d="M158.887 178.505C158.688 178.505 158.794 176.743 157.723 174.232C157.1 172.782 156.206 171.465 155.088 170.352C153.713 169.006 152.04 168.005 150.204 167.43C148.358 166.886 146.411 166.779 144.517 167.119C142.963 167.41 141.482 168.002 140.157 168.863C137.883 170.358 136.949 171.871 136.812 171.759C136.768 171.728 136.93 171.317 137.391 170.675C138.054 169.765 138.855 168.962 139.764 168.296C141.125 167.294 142.684 166.593 144.336 166.24C146.375 165.802 148.491 165.892 150.485 166.502C152.479 167.111 154.284 168.22 155.729 169.722C156.893 170.945 157.79 172.396 158.364 173.983C158.736 175.044 158.946 176.155 158.987 177.278C158.993 178.076 158.95 178.505 158.887 178.505Z" fill="#E0E0E0"/>
<path d="M153.125 174.226C153.287 174.014 155.959 175.771 159.086 178.15L159.261 178.281L158.507 178.512C159.753 174.893 160.998 172.065 161.241 172.152C161.484 172.239 160.687 175.204 159.429 178.829L159.211 179.452L158.675 179.047L158.501 178.91C155.367 176.543 152.963 174.438 153.125 174.226Z" fill="#E0E0E0"/>
<path d="M136.15 176.506C136.35 176.506 136.032 178.219 136.773 180.76C137.187 182.237 137.874 183.623 138.798 184.847C139.917 186.344 141.378 187.552 143.058 188.372C143.497 188.584 143.946 188.774 144.404 188.939C144.865 189.07 145.319 189.226 145.774 189.313C146.654 189.505 147.552 189.599 148.453 189.593C149.986 189.577 151.502 189.269 152.919 188.684C153.886 188.288 154.805 187.784 155.66 187.182C156.283 186.759 156.594 186.491 156.65 186.56C156.706 186.628 156.457 186.958 155.896 187.488C155.098 188.236 154.188 188.856 153.199 189.325C151.724 190.042 150.116 190.443 148.478 190.503C147.506 190.537 146.534 190.455 145.581 190.26C145.089 190.172 144.597 190.01 144.092 189.867C143.591 189.691 143.103 189.483 142.628 189.244C140.983 188.442 139.54 187.276 138.41 185.836C137.279 184.396 136.489 182.718 136.1 180.928C135.969 180.313 135.888 179.688 135.857 179.06C135.857 178.512 135.857 178.038 135.895 177.658C135.988 176.904 136.1 176.475 136.15 176.506Z" fill="#E0E0E0"/>
<path d="M141.344 181.458C141.151 181.651 138.722 179.589 135.9 176.83L135.744 176.68L136.523 176.543C134.816 179.982 133.265 182.635 133.029 182.523C132.792 182.411 133.957 179.558 135.651 176.113L135.944 175.49L136.423 175.958L136.585 176.113C139.401 178.879 141.531 181.265 141.344 181.458Z" fill="#E0E0E0"/>
<path d="M87.6195 63.0115L84.5984 72.4486C84.02 74.3713 82.9226 76.0974 81.4269 77.437C79.9313 78.7767 78.0952 79.678 76.1206 80.0418L55.9507 83.8291L50.4629 83.6547L55.9507 76.8588L71.1124 71.6886C71.839 71.5311 72.5085 71.1771 73.0478 70.6653C73.5871 70.1534 73.9756 69.5033 74.1708 68.7859L80.2131 55.6487L87.8562 60.3392L87.6195 63.0115Z" fill="#B78876"/>
<path d="M117.364 53.7613C117.084 55.2252 112.817 65.8707 112.817 65.8707C112.817 65.8707 96.2099 60.2645 96.4279 59.4173C96.6086 58.7508 99.7979 48.0866 103.623 42.1814C104.343 41.0441 105.319 40.0908 106.473 39.3975C107.627 38.7043 108.927 38.2903 110.269 38.1886C111.023 38.1387 112.642 38.9174 113.085 39.1665C116.579 41.1287 119.55 42.4493 117.364 53.7613Z" fill="#455A64"/>
<path d="M93.9291 33.1242C86.4168 33.9651 85.2083 39.0667 81.6951 44.0936L76.6309 53.4373L85.9434 59.1494L85.6195 73.4763L81.1843 87.1803L116.223 83.8851L112.984 72.1495L117.656 53.7238C118.011 51.2322 118.976 46.5417 118.322 44.0749C116.279 36.3509 108.256 34.1084 102.749 32.6632C101.61 32.3642 96.1155 32.3829 95.1624 32.6196" fill="#2952CE"/>
<path d="M117.059 53.6117C117.029 53.6764 117.004 53.743 116.984 53.8111C116.934 53.9543 116.872 54.1537 116.791 54.4028L116.068 56.664C115.445 58.6324 114.579 61.4417 113.52 64.849L113.639 64.793L98.066 59.0373L97.6798 58.8753L97.7421 59.0061C98.6812 55.5072 99.8934 52.0873 101.367 48.778C102.522 46.0496 104.087 43.5141 106.008 41.2594C106.758 40.4109 107.645 39.6931 108.631 39.1353C109.371 38.7094 110.201 38.4639 111.054 38.419C111.217 38.4067 111.382 38.4067 111.546 38.419L111.982 38.4626C112.113 38.4626 112.237 38.4626 112.349 38.5062L112.648 38.5871L113.059 38.693H113.203C113.161 38.6677 113.114 38.6508 113.066 38.6432L112.661 38.5124L112.362 38.4252C112.239 38.3986 112.114 38.3799 111.988 38.3691L111.552 38.3131C111.384 38.3006 111.215 38.3006 111.047 38.3131C110.173 38.3439 109.319 38.5831 108.556 39.0107C107.551 39.5643 106.645 40.2823 105.877 41.1348C103.928 43.3881 102.342 45.9309 101.174 48.6721C99.6668 51.9924 98.4315 55.4297 97.4805 58.9501V59.0435L97.5677 59.0809L97.9601 59.2428C103.803 61.4293 109.222 63.3727 113.576 64.9612L113.664 64.9923V64.9051L116.155 56.6889C116.442 55.7172 116.672 54.951 116.828 54.4153C116.903 54.1661 116.959 53.9585 116.996 53.7924C117.022 53.7341 117.043 53.6736 117.059 53.6117Z" fill="#263238"/>
<path d="M98.3145 56.8758C98.3145 56.9319 101.896 58.1777 106.362 59.654C110.829 61.1303 114.46 62.2827 114.46 62.2204C114.46 62.1581 110.879 60.9185 106.419 59.4422C101.958 57.9659 98.3331 56.826 98.3145 56.8758Z" fill="#263238"/>
<path d="M96.4265 86.7567L97.7719 54.3591H86.3415L83.1211 88.4946L96.4265 86.7567Z" fill="#263238"/>
<g opacity="0.3">
<path d="M112.76 64.5937C112.094 67.6434 111.229 70.6461 110.169 73.5823C109.494 75.4469 108.541 77.1984 107.341 78.7773C105.559 80.8279 103.184 82.2752 100.545 82.9197C97.917 83.5545 95.1929 83.6877 92.5156 83.3121L105.858 75.7749L109.409 63.4475L112.76 64.5937Z" fill="black"/>
</g>
<path d="M111.228 63.9021L107.939 74.666C107.369 76.6036 106.276 78.3466 104.781 79.7038C103.285 81.0609 101.444 81.9796 99.4608 82.359L79.2847 86.1899L73.7969 86.0092L79.2847 79.1572L94.4526 73.9248C95.1828 73.7598 95.854 73.398 96.3932 72.8786C96.9324 72.3592 97.319 71.702 97.5111 70.9784L100.32 60.146L111.228 63.9021Z" fill="#B78876"/>
<path d="M85.6452 73.1025C85.7076 72.7676 85.7409 72.4279 85.7448 72.0872C85.776 71.3709 85.8196 70.4365 85.8757 69.3028C85.9753 66.9544 86.0937 63.6966 86.2058 60.1273C86.3179 56.5581 86.3927 53.2753 86.4363 50.9456C86.4363 49.8119 86.4363 48.8776 86.4363 48.1612C86.4616 47.8212 86.4616 47.4797 86.4363 47.1396C86.3744 47.4746 86.3431 47.8144 86.3428 48.155C86.3055 48.8713 86.2619 49.8057 86.2058 50.9332C86.1061 53.2815 85.9878 56.5394 85.8757 60.1149C85.7635 63.6904 85.6888 66.9669 85.6452 69.2966C85.6452 70.4303 85.6452 71.3709 85.614 72.081C85.5991 72.4218 85.6095 72.7633 85.6452 73.1025Z" fill="#263238"/>
<path d="M77.9961 50.9519C79.2476 51.8715 80.5609 52.704 81.9267 53.4435C83.239 54.2782 84.6087 55.0193 86.0254 55.6611C84.7739 54.7415 83.4606 53.909 82.0948 53.1695C80.7825 52.3348 79.4128 51.5938 77.9961 50.9519Z" fill="#263238"/>
<path d="M31.8316 156.921L31.707 150.755L43.5423 146.556L44.0282 155.14L43.3679 155.458C40.3966 156.859 28.1751 162.384 25.8953 162.59C23.3538 162.827 31.8316 156.921 31.8316 156.921Z" fill="#2952CE"/>
<g opacity="0.4">
<path d="M27.7453 159.967C27.7453 159.967 24.855 162.247 25.4841 162.621C26.1133 162.995 38.6711 157.881 44.0157 155.146L43.8973 154.903L29.2963 160.995C29.2963 160.995 28.3994 159.737 27.7453 159.967Z" fill="white"/>
</g>
<path d="M44.0714 154.822L43.8908 154.922L43.3613 155.171L41.4178 156.074C39.7547 156.822 37.4437 157.825 34.8648 158.877C32.286 159.93 29.9314 160.833 28.2184 161.462L26.1815 162.191L25.6271 162.378C25.5631 162.405 25.4962 162.424 25.4277 162.434L25.6146 162.353L26.1628 162.135L28.181 161.363C29.8815 160.709 32.2299 159.793 34.8088 158.747C37.3876 157.7 39.7048 156.703 41.3805 155.981L43.3613 155.121L43.9032 154.891C43.9566 154.862 44.013 154.839 44.0714 154.822Z" fill="#263238"/>
<path d="M29.3718 161.157C29.1462 160.862 28.8893 160.593 28.6057 160.354C28.2961 160.153 27.9636 159.99 27.6152 159.868C28.0081 159.856 28.3917 159.989 28.6929 160.241C29.0255 160.451 29.2677 160.778 29.3718 161.157Z" fill="#263238"/>
<path d="M31.9434 158.192C31.9434 158.223 31.688 158.099 31.4264 157.912C31.1648 157.725 30.9655 157.544 30.9904 157.513C31.0153 157.482 31.2458 157.607 31.5074 157.793C31.769 157.98 31.9683 158.155 31.9434 158.192Z" fill="#263238"/>
<path d="M32.6482 157.357C32.6482 157.395 32.4115 157.357 32.1499 157.258C31.8882 157.158 31.6951 157.058 31.7076 157.021C31.7201 156.984 31.9443 157.021 32.1997 157.121C32.4551 157.22 32.6607 157.32 32.6482 157.357Z" fill="#263238"/>
<path d="M32.784 156.087C32.784 156.124 32.5597 156.261 32.2421 156.398C32.0508 156.503 31.8372 156.561 31.6191 156.566C31.7803 156.43 31.9665 156.326 32.1673 156.261C32.3571 156.157 32.5679 156.098 32.784 156.087Z" fill="#263238"/>
<path d="M32.697 155.296C32.697 155.296 32.4977 155.564 32.1364 155.744C31.9305 155.869 31.6919 155.93 31.4512 155.919C31.4512 155.875 31.7377 155.782 32.0741 155.607C32.2731 155.487 32.4814 155.383 32.697 155.296Z" fill="#263238"/>
<path d="M31.183 157.382C30.9629 157.513 30.7231 157.608 30.4728 157.663C30.2038 157.736 29.9286 157.784 29.6506 157.806C29.4829 157.825 29.3137 157.825 29.146 157.806C29.0435 157.79 28.9504 157.737 28.8844 157.656C28.8528 157.607 28.8359 157.55 28.8359 157.491C28.8359 157.433 28.8528 157.375 28.8844 157.326C29.1005 157.084 29.394 156.925 29.7146 156.877C30.0351 156.828 30.3627 156.892 30.641 157.058C30.8068 157.152 30.951 157.279 31.0646 157.432C31.1096 157.486 31.1416 157.55 31.158 157.619C30.999 157.428 30.807 157.268 30.5912 157.146C30.3551 157.024 30.0894 156.972 29.825 156.996C29.5104 157.019 29.2174 157.164 29.009 157.401C28.928 157.526 29.009 157.644 29.1834 157.663C29.3388 157.678 29.4953 157.678 29.6506 157.663C29.9205 157.645 30.1889 157.61 30.4542 157.557C30.9027 157.47 31.1705 157.357 31.183 157.382Z" fill="#263238"/>
<path d="M31.0156 157.494C30.8678 157.38 30.7661 157.216 30.729 157.033C30.6763 156.829 30.6763 156.615 30.729 156.41C30.7405 156.277 30.7876 156.148 30.8654 156.039C30.9431 155.929 31.0488 155.843 31.1713 155.788C31.2485 155.776 31.3272 155.794 31.3918 155.838C31.4564 155.882 31.5022 155.948 31.5201 156.024C31.5481 156.145 31.5481 156.271 31.5201 156.392C31.4918 156.584 31.4395 156.773 31.3644 156.952C31.3068 157.126 31.2061 157.283 31.0716 157.407C31.0716 157.407 31.1651 157.22 31.2647 156.921C31.3268 156.744 31.3686 156.56 31.3893 156.373C31.4267 156.186 31.3893 155.887 31.1962 155.931C31.0031 155.974 30.9034 156.236 30.8474 156.417C30.8104 156.595 30.8104 156.78 30.8474 156.959C30.8831 157.143 30.9395 157.323 31.0156 157.494Z" fill="#263238"/>
<path d="M42.6205 151.901C42.6205 151.901 42.2903 152 41.8169 152.262C41.2021 152.603 40.6917 153.104 40.3406 153.713C40.0019 154.33 39.8402 155.029 39.8734 155.732C39.8734 156.273 40.0105 156.597 39.9856 156.604C39.9606 156.61 39.942 156.529 39.8921 156.379C39.8328 156.176 39.7932 155.967 39.7738 155.756C39.705 155.03 39.8596 154.299 40.2168 153.663C40.5741 153.026 41.1171 152.513 41.7733 152.193C41.9719 152.092 42.1807 152.013 42.3962 151.957C42.4676 151.927 42.5433 151.908 42.6205 151.901Z" fill="#263238"/>
<path d="M39.6172 147.821C40.3318 149.28 40.9559 150.782 41.4859 152.318C41.1066 151.596 40.7676 150.854 40.4706 150.094C40.1411 149.354 39.8561 148.595 39.6172 147.821Z" fill="#263238"/>
<path d="M38.1728 156.161C37.6959 156.5 37.1765 156.774 36.628 156.977C36.0993 157.225 35.54 157.401 34.9648 157.501C34.9648 157.463 35.6936 157.214 36.572 156.847C37.4503 156.479 38.1479 156.124 38.1728 156.161Z" fill="#263238"/>
<path d="M40.3276 155.296C40.3649 155.296 40.3276 155.47 40.3276 155.663C40.3276 155.856 40.3276 156.024 40.3276 156.037C40.3276 156.049 40.203 155.887 40.2092 155.663C40.2154 155.439 40.2902 155.296 40.3276 155.296Z" fill="#263238"/>
<path d="M40.7267 153.938C40.7641 153.938 40.7267 154.1 40.6707 154.262C40.6146 154.424 40.5212 154.542 40.4838 154.523C40.4464 154.505 40.4838 154.367 40.5399 154.206C40.5959 154.044 40.6894 153.925 40.7267 153.938Z" fill="#263238"/>
<path d="M41.7042 153.003C41.7042 153.047 41.561 153.103 41.4239 153.227C41.2869 153.352 41.2059 153.483 41.1623 153.47C41.1187 153.458 41.1623 153.265 41.3305 153.115C41.4987 152.966 41.698 152.966 41.7042 153.003Z" fill="#263238"/>
<path d="M42.4385 152.449C42.4696 152.48 42.4385 152.561 42.3513 152.636C42.2641 152.71 42.1893 152.741 42.1582 152.71C42.127 152.679 42.1582 152.598 42.2516 152.53C42.345 152.461 42.4136 152.418 42.4385 152.449Z" fill="#263238"/>
<path d="M79.2851 87.7161L44.5703 88.339C41.8862 88.3896 39.3106 89.4074 37.317 91.2053C35.3234 93.0032 34.0459 95.4603 33.7192 98.1249L26.8672 154.062H45.7164L51.4721 105.743H78.793L79.2851 87.7161Z" fill="#263238"/>
<path d="M27.0918 150.53C27.0918 150.617 31.2217 150.717 36.3171 150.748C41.4125 150.779 45.4552 150.655 45.5424 150.642C46.1279 150.586 41.4125 150.456 36.3171 150.424C31.2217 150.393 27.0918 150.443 27.0918 150.53Z" fill="#455A64"/>
<path d="M111.869 105.768C125.722 101.183 116.229 82.8574 116.229 82.8574L55.67 88.5508C54.5144 88.5434 53.3687 88.7647 52.2988 89.2018C51.229 89.6389 50.2562 90.2833 49.4364 91.0979C48.6166 91.9125 47.966 92.8812 47.5221 93.9482C47.0781 95.0152 46.8496 96.1595 46.8496 97.3152C46.848 98.4663 47.0733 99.6066 47.5127 100.671C47.9521 101.735 48.597 102.702 49.4104 103.516C50.2238 104.331 51.1899 104.977 52.2533 105.418C53.3167 105.859 54.4566 106.086 55.6077 106.086L111.869 105.781" fill="#263238"/>
<path d="M93.3555 86.3333L93.1811 85.0252L77.6831 84.4148L70.0774 65.2354L41.0996 67.2037L50.8793 88.4948L93.3555 86.3333Z" fill="#455A64"/>
<path d="M58.6726 77.6746C58.8328 77.9293 59.0648 78.1307 59.3395 78.2534C59.6142 78.376 59.9191 78.4145 60.2156 78.3637C60.5121 78.313 60.7869 78.1754 61.0052 77.9684C61.2235 77.7614 61.3754 77.4943 61.4418 77.2009C61.5082 76.9075 61.486 76.601 61.378 76.3202C61.2701 76.0394 61.0812 75.797 60.8354 75.6236C60.5896 75.4502 60.2978 75.3536 59.9971 75.3462C59.6964 75.3387 59.4002 75.4206 59.1461 75.5816C58.8063 75.7968 58.5656 76.138 58.4769 76.5303C58.3882 76.9226 58.4586 77.3341 58.6726 77.6746Z" fill="white"/>
<path d="M98.3776 85.9531C98.3198 85.944 98.2609 85.944 98.2032 85.9531H97.6924L95.7427 86.0341L88.5667 86.3705L64.8962 87.6163C63.7438 87.6661 62.5976 87.7658 61.4764 87.7782C60.3551 87.7907 59.2339 87.8405 58.1438 87.9028C57.0537 87.9651 55.9823 88.0399 54.9358 88.1458C53.8959 88.2217 52.8701 88.4311 51.8836 88.7687C50.9414 89.1011 50.0782 89.6249 49.3483 90.3073C48.6672 90.961 48.1414 91.7592 47.8097 92.6432C47.506 93.4596 47.297 94.3081 47.1868 95.1722C47.0739 95.9645 47.0177 96.7639 47.0186 97.5642C46.9981 98.9459 47.2743 100.316 47.8284 101.582C48.248 102.535 48.8886 103.374 49.6971 104.03C50.2086 104.445 50.794 104.76 51.4226 104.958C51.8586 105.083 51.8649 105.045 51.4226 104.896C50.8138 104.677 50.2486 104.353 49.7532 103.937C48.9712 103.278 48.351 102.449 47.9405 101.513C47.4167 100.262 47.1641 98.914 47.1993 97.5579C47.2054 96.7696 47.2678 95.9827 47.3862 95.2033C47.496 94.3514 47.7051 93.5151 48.0091 92.7117C48.3363 91.8684 48.8445 91.1072 49.4978 90.4817C50.2065 89.8318 51.0392 89.3318 51.9459 89.0116C52.9098 88.6953 53.9106 88.5048 54.9234 88.4448C55.9699 88.3451 57.035 88.2703 58.1251 88.2081C59.2152 88.1458 60.3178 88.1022 61.4452 88.0897C62.5727 88.0772 63.7126 87.9776 64.8712 87.9277L88.5418 86.6072L95.7177 86.1711L97.6675 86.0341L98.172 85.9967L98.3776 85.9531Z" fill="#455A64"/>
<path d="M96.041 54.3843C96.041 54.3843 97.5858 39.4344 110.941 35.5413C111.932 35.9174 112.84 36.4846 113.613 37.2107C113.613 37.2107 101.031 36.6874 97.7727 54.3843H96.041Z" fill="#263238"/>
<path d="M86.4471 55.1068C86.4471 55.1068 83.3762 41.2844 94.545 32.9561C95.6143 32.9544 96.6731 33.1662 97.6595 33.579C97.6595 33.579 85.0207 37.4722 88.1352 55.1877L86.4471 55.1068Z" fill="#263238"/>
<path d="M109.315 6.16483C109.606 5.35244 110.118 4.63719 110.792 4.09923C111.467 3.56127 112.278 3.22186 113.135 3.11904C113.992 3.01622 114.861 3.15404 115.644 3.51707C116.427 3.88009 117.093 4.45397 117.568 5.17441C118.1 6.13349 118.519 7.15162 118.814 8.20798C119.121 9.26428 119.795 10.1765 120.714 10.7806C121.841 11.4035 123.318 11.1793 124.345 11.9517C125.485 12.8051 125.517 14.6862 124.557 15.7452C124.048 16.2467 123.402 16.5859 122.7 16.7201C121.998 16.8543 121.272 16.7773 120.614 16.4989C120.941 17.332 121.124 18.2145 121.156 19.1089C121.17 19.5571 121.073 20.0017 120.874 20.4036C120.675 20.8055 120.381 21.1524 120.016 21.4137C119.615 21.6296 119.165 21.739 118.709 21.7314C118.253 21.7238 117.807 21.5994 117.412 21.3701C116.632 20.8968 115.965 20.2591 115.457 19.5013C115.327 20.1307 115.104 20.7374 114.796 21.3015C114.642 21.5838 114.428 21.8294 114.17 22.0218C113.912 22.2142 113.616 22.3489 113.301 22.4166C112.908 22.4501 112.514 22.3756 112.16 22.201C111.807 22.0264 111.508 21.7585 111.295 21.4261C110.879 20.76 110.627 20.0041 110.56 19.221C110.329 17.2834 110.456 15.3198 110.934 13.428C111.227 12.2195 111.644 10.9799 111.414 9.75279C111.183 8.52566 109.975 7.37951 108.785 7.74702" fill="#263238"/>
<path d="M124.938 14.5179C124.938 14.5179 124.876 14.5615 124.739 14.6114C124.537 14.6878 124.328 14.7482 124.116 14.792C123.341 14.9409 122.544 14.9409 121.768 14.792C120.597 14.5747 119.514 14.0206 118.653 13.1974C118.148 12.7141 117.727 12.1499 117.407 11.528C117.083 10.8586 116.85 10.1482 116.716 9.41631C116.583 8.70672 116.387 8.01044 116.131 7.33579C115.887 6.72634 115.477 6.19757 114.947 5.80966C114.494 5.48251 113.975 5.25742 113.427 5.14989C112.878 5.04236 112.313 5.05493 111.77 5.18675C111.029 5.37717 110.347 5.7473 109.783 6.26438C109.378 6.62567 109.204 6.8873 109.16 6.8873C109.187 6.81718 109.225 6.75193 109.272 6.69419C109.391 6.5156 109.527 6.34873 109.677 6.19586C110.233 5.62481 110.929 5.21015 111.695 4.99365C112.272 4.83413 112.876 4.80446 113.466 4.90679C114.055 5.00912 114.614 5.2409 115.103 5.58542C115.685 5.99808 116.137 6.56871 116.405 7.2299C116.68 7.92063 116.888 8.63607 117.028 9.36648C117.167 10.0722 117.397 10.7569 117.713 11.4034C118.012 11.9983 118.407 12.5393 118.884 13.0043C119.691 13.7996 120.709 14.3466 121.818 14.5802C122.569 14.7408 123.343 14.7661 124.104 14.655C124.639 14.5927 124.932 14.5179 124.938 14.5179Z" fill="#455A64"/>
<path d="M114.486 21.8433C114.486 21.8433 114.424 21.8433 114.331 21.7436C114.187 21.63 114.06 21.498 113.951 21.3512C113.546 20.806 113.303 20.1588 113.247 19.4825C113.155 18.4881 113.267 17.4854 113.577 16.5361C113.972 15.4132 114.288 14.2643 114.524 13.0976C114.711 11.9401 114.491 10.7533 113.901 9.74015C113.408 8.90905 112.68 8.24334 111.808 7.82782C111.222 7.54056 110.589 7.36321 109.939 7.30457C109.699 7.30429 109.46 7.28764 109.223 7.25474C109.459 7.18529 109.706 7.15995 109.951 7.17999C110.625 7.19138 111.289 7.34196 111.901 7.62226C112.826 8.03276 113.604 8.71497 114.131 9.57819C114.782 10.642 115.034 11.9027 114.841 13.135C114.608 14.3198 114.281 15.4842 113.863 16.6171C113.552 17.528 113.419 18.4902 113.471 19.4513C113.502 20.0997 113.702 20.7287 114.05 21.2764C114.299 21.6564 114.511 21.8246 114.486 21.8433Z" fill="#455A64"/>
<path d="M88.0183 14.3372C84.9037 7.14885 89.1707 2.76979 91.9488 1.20006C93.5996 0.265691 95.5617 0.0725897 97.4616 0.0227569C99.3449 -0.0661523 101.232 0.105737 103.068 0.533543C104.904 0.970112 106.579 1.91579 107.902 3.26189C110.175 5.69747 110.692 9.29789 110.48 12.6055C110.242 16.5453 109.111 20.3793 107.173 23.8179C106.955 24.2688 106.62 24.6521 106.201 24.9267C105.986 25.0596 105.73 25.1084 105.482 25.0635C105.233 25.0186 105.01 24.8834 104.856 24.6838" fill="#263238"/>
<path d="M104.781 5.94666C105.285 5.99965 105.752 6.24036 106.088 6.62108C106.423 7.00181 106.604 7.49477 106.593 8.00226L105.441 35.4103C105.397 38.6494 99.5295 42.4741 96.0661 42.3994C92.5716 42.3246 93.3066 38.6058 93.5745 35.5473C93.7255 33.2023 93.6963 30.8491 93.4873 28.5085C93.4873 28.5085 89.0397 27.7423 88.1365 21.9928C87.6817 19.1274 87.825 14.4245 88.0679 10.5811C88.1197 9.76095 88.3368 8.95973 88.7063 8.22568C89.0758 7.49163 89.5899 6.83992 90.2178 6.30977C90.8458 5.77962 91.5744 5.38199 92.36 5.14082C93.1456 4.89964 93.9719 4.8199 94.7891 4.9064L104.781 5.94666Z" fill="#B78876"/>
<path d="M89.5568 14.2936C89.5534 14.4864 89.6259 14.6729 89.7588 14.8127C89.8916 14.9526 90.0741 15.0346 90.2669 15.0411C90.3612 15.0487 90.456 15.0374 90.5459 15.0079C90.6358 14.9783 90.7188 14.9311 90.7902 14.869C90.8616 14.807 90.9198 14.7312 90.9615 14.6463C91.0032 14.5614 91.0275 14.469 91.033 14.3746C91.0348 14.1811 90.9608 13.9947 90.827 13.855C90.6932 13.7154 90.51 13.6336 90.3167 13.6271C90.2229 13.6203 90.1287 13.6323 90.0396 13.6622C89.9504 13.6921 89.8681 13.7395 89.7974 13.8015C89.7267 13.8635 89.669 13.9389 89.6277 14.0234C89.5864 14.1079 89.5623 14.1997 89.5568 14.2936Z" fill="#263238"/>
<path d="M89.0757 13.0102C89.1691 13.1036 89.7298 12.6925 90.5271 12.6925C91.3244 12.6925 91.9037 13.0912 91.9909 12.9977C92.0781 12.9043 91.9411 12.7797 91.6857 12.5928C91.3401 12.3535 90.9288 12.2272 90.5084 12.2316C90.0943 12.2302 89.6905 12.3611 89.356 12.6053C89.1131 12.7922 89.0321 12.9666 89.0757 13.0102Z" fill="#263238"/>
<path d="M97.338 14.2934C97.3346 14.4862 97.4072 14.6726 97.54 14.8125C97.6729 14.9523 97.8554 15.0343 98.0481 15.0408C98.1424 15.0485 98.2373 15.0372 98.3271 15.0076C98.417 14.9781 98.5001 14.9309 98.5715 14.8688C98.6428 14.8067 98.7011 14.731 98.7428 14.6461C98.7845 14.5612 98.8088 14.4688 98.8143 14.3743C98.816 14.1809 98.7421 13.9945 98.6083 13.8548C98.4744 13.7151 98.2913 13.6333 98.098 13.6268C98.0042 13.6201 97.91 13.632 97.8208 13.6619C97.7317 13.6919 97.6494 13.7392 97.5787 13.8012C97.508 13.8632 97.4503 13.9387 97.409 14.0232C97.3677 14.1076 97.3435 14.1995 97.338 14.2934Z" fill="#263238"/>
<path d="M96.8999 13.1597C96.9934 13.2532 97.554 12.842 98.3451 12.842C99.1362 12.842 99.7279 13.2407 99.8151 13.141C99.9023 13.0414 99.7653 12.9293 99.5099 12.7424C99.1653 12.5011 98.7533 12.3747 98.3326 12.3811C97.9185 12.3797 97.5147 12.5107 97.1802 12.7548C96.9373 12.9417 96.8563 13.1161 96.8999 13.1597Z" fill="#263238"/>
<path d="M94.0096 19.0589C93.5911 18.9287 93.158 18.8513 92.7202 18.8284C92.5147 18.8284 92.3216 18.7661 92.2904 18.6229C92.2675 18.4059 92.3156 18.1873 92.4275 18C92.6143 17.5099 92.822 16.9929 93.0504 16.4489C93.5931 15.1462 94.0326 13.8028 94.3647 12.4312C93.6983 13.6905 93.1378 15.0032 92.6891 16.3555C92.4897 16.9036 92.2966 17.4207 92.116 17.9128C91.985 18.1568 91.9474 18.4403 92.0101 18.7101C92.0394 18.7814 92.0842 18.8452 92.1413 18.897C92.1985 18.9487 92.2664 18.987 92.3402 19.0091C92.4543 19.0388 92.5713 19.0555 92.6891 19.0589C93.1275 19.1153 93.5713 19.1153 94.0096 19.0589Z" fill="#263238"/>
<path d="M93.4629 28.4774C96.1893 28.5239 98.8748 27.8099 101.218 26.4155C101.218 26.4155 99.3494 30.3772 93.5688 29.8353L93.4629 28.4774Z" fill="#AA6550"/>
<path d="M94.3652 20.9775C94.5177 20.787 94.7159 20.6381 94.9412 20.5444C95.1666 20.4508 95.412 20.4155 95.6546 20.4418C95.8299 20.4585 96.0002 20.51 96.1553 20.5935C96.3104 20.6769 96.4473 20.7906 96.5578 20.9277C96.6621 21.0622 96.7237 21.2249 96.7348 21.3947C96.7459 21.5645 96.7059 21.7338 96.6201 21.8807C96.4905 22.0222 96.3223 22.1224 96.1362 22.1689C95.9501 22.2154 95.7545 22.2062 95.5736 22.1424C95.1968 22.0049 94.8515 21.7931 94.5583 21.5194C94.4685 21.4588 94.3922 21.3803 94.334 21.289C94.3035 21.2451 94.2871 21.1929 94.2871 21.1395C94.2871 21.086 94.3035 21.0338 94.334 20.99" fill="#AA6550"/>
<path d="M96.3518 19.6074C96.221 19.6074 96.221 20.467 95.4797 21.0775C94.7384 21.6879 93.8228 21.5945 93.8165 21.7004C93.8103 21.8063 94.0221 21.8686 94.4083 21.8748C94.9158 21.8868 95.4108 21.7166 95.8036 21.3952C96.1826 21.0842 96.4242 20.6368 96.4764 20.1494C96.5075 19.8192 96.4141 19.6074 96.3518 19.6074Z" fill="#263238"/>
<path d="M96.5407 11.7649C96.6216 11.9829 97.419 11.877 98.3471 11.9892C99.2752 12.1013 100.041 12.3567 100.16 12.1636C100.216 12.0701 100.085 11.8646 99.7798 11.659C99.3784 11.3948 98.9188 11.2323 98.4405 11.1856C97.9625 11.1282 97.4777 11.1859 97.0265 11.3538C96.6839 11.4908 96.5095 11.659 96.5407 11.7649Z" fill="#263238"/>
<path d="M89.3831 10.7054C89.5264 10.8861 90.0746 10.7054 90.7286 10.7054C91.3827 10.7054 91.9744 10.8238 92.0741 10.6369C92.1738 10.4501 92.043 10.3628 91.8 10.1884C91.4738 9.97957 91.0906 9.87726 90.7037 9.89567C90.3178 9.90257 89.9435 10.0288 89.6323 10.257C89.3831 10.4314 89.3084 10.6182 89.3831 10.7054Z" fill="#263238"/>
<path d="M88.0546 10.5624C89.0637 5.64764 90.4341 7.59112 91.9851 5.24275C94.2276 7.51637 99.3915 10.1326 102.543 10.6496C102.87 10.6718 103.186 10.7722 103.465 10.9424C103.674 11.1625 103.829 11.4273 103.92 11.7166C104.011 12.0059 104.034 12.312 103.989 12.6118C103.927 14.3187 104.067 16.0269 104.406 17.701C104.761 19.3896 105.632 20.9263 106.898 22.0987C108.766 18.0934 108.991 13.4278 108.143 9.07365C107.795 7.29836 107.209 5.43585 105.789 4.30216C104.719 3.55764 103.483 3.08901 102.188 2.93798C99.0365 2.35868 95.7039 2.21541 92.7077 3.34288C89.7115 4.47034 87.3756 5.83452 86.9707 9.03005" fill="#263238"/>
<path d="M109.851 7.11153C109.656 7.25002 109.448 7.36698 109.228 7.46036C108.972 7.59054 108.705 7.6989 108.431 7.78427L107.92 7.95869L107.334 8.10819C106.366 8.33983 105.377 8.47545 104.382 8.51308C103.156 8.55595 101.93 8.48086 100.719 8.28883C99.5197 8.08329 98.3431 7.76203 97.2058 7.32955C96.7094 7.13578 96.2248 6.91323 95.7544 6.66303L95.1315 6.32666L94.5709 5.96537C94.2493 5.75911 93.9413 5.53232 93.649 5.2864L93.2877 4.98741L93.0074 4.7071C92.8235 4.54507 92.6603 4.36096 92.5215 4.15894C93.2188 4.73263 93.9443 5.27109 94.6954 5.77227L95.2561 6.10864L95.879 6.42633C96.3457 6.658 96.8239 6.8659 97.3117 7.04924C98.4356 7.46165 99.5949 7.77024 100.775 7.97114C101.957 8.15917 103.154 8.24462 104.351 8.22654C105.326 8.20393 106.298 8.09343 107.253 7.8964C108.892 7.54134 109.82 7.04301 109.851 7.11153Z" fill="#455A64"/>
<path d="M108.22 3.22461C108.073 3.3821 107.906 3.51838 107.722 3.6295C107.527 3.78134 107.318 3.9148 107.099 4.02816L106.681 4.25241L106.195 4.4642C104.39 5.15876 102.468 5.5013 100.533 5.47332C98.6076 5.48317 96.6871 5.27419 94.8087 4.85041C94.2402 4.72952 93.6788 4.57772 93.1268 4.39568C92.9094 4.34835 92.6997 4.27077 92.5039 4.1652C92.5039 4.11537 93.3947 4.35831 94.8336 4.62616C96.7014 4.98763 98.5996 5.16911 100.502 5.16809C102.409 5.19552 104.306 4.88986 106.108 4.26487C106.83 3.95628 107.535 3.60902 108.22 3.22461Z" fill="#455A64"/>
<path d="M90.4984 1.97236C90.4984 1.93498 90.6977 1.89761 91.0029 1.97236C91.4066 2.08549 91.7655 2.32043 92.0307 2.6451C92.2999 2.96864 92.4649 3.366 92.5042 3.78502C92.5042 4.10271 92.4481 4.28958 92.4045 4.28335C92.2929 3.77145 92.0812 3.28667 91.7816 2.85689C91.2521 2.17169 90.4797 2.05956 90.4984 1.97236Z" fill="#455A64"/>
<path d="M120.284 8.18297C120.328 8.10319 120.387 8.03321 120.459 7.97741C120.651 7.80427 120.893 7.6954 121.15 7.66596C121.57 7.61165 121.995 7.70644 122.352 7.93381C122.593 8.08918 122.786 8.30834 122.909 8.56683C123.032 8.82532 123.081 9.11296 123.05 9.39765C123.013 9.73974 122.894 10.0677 122.702 10.3531C122.509 10.6386 122.251 10.8729 121.948 11.0359C121.587 11.2032 121.189 11.2696 120.794 11.2279C120.399 11.1862 120.022 11.038 119.705 10.7992C119.351 10.5562 119.066 10.2257 118.877 9.83991C118.697 9.44781 118.593 9.02499 118.571 8.59409C118.599 7.7235 118.576 6.85207 118.503 5.9841C118.334 5.17899 117.962 4.43015 117.424 3.80797C116.886 3.18578 116.198 2.71067 115.426 2.42728C114.788 2.20743 114.109 2.13634 113.439 2.21948C112.77 2.30261 112.128 2.53776 111.564 2.90692C110.784 3.39399 110.153 4.08559 109.739 4.90647C109.452 5.49823 109.39 5.85952 109.359 5.85329C109.354 5.76288 109.364 5.67231 109.39 5.58544C109.44 5.33408 109.519 5.08947 109.626 4.85663C109.953 4.11678 110.455 3.46759 111.089 2.96511C111.723 2.46264 112.469 2.12198 113.264 1.97256C114.02 1.83375 114.8 1.89385 115.525 2.14697C116.353 2.44061 117.092 2.94287 117.669 3.60522C118.246 4.26757 118.643 5.06761 118.821 5.92804C118.898 6.80823 118.921 7.69238 118.889 8.57541C118.903 8.97328 118.994 9.3647 119.157 9.72779C119.335 10.0609 119.591 10.3453 119.904 10.5563C120.179 10.7665 120.504 10.8994 120.847 10.941C121.19 10.9826 121.538 10.9315 121.854 10.793C122.124 10.6552 122.356 10.454 122.531 10.2066C122.706 9.95918 122.817 9.67301 122.857 9.37273C122.891 9.12669 122.855 8.8762 122.753 8.64948C122.652 8.42276 122.49 8.22883 122.284 8.08954C121.965 7.86849 121.581 7.76299 121.194 7.79054C120.857 7.82316 120.539 7.9604 120.284 8.18297Z" fill="#263238"/>
<path d="M105.142 10.7807C104.937 10.8236 104.727 10.8383 104.519 10.8243C104.132 10.8243 103.572 10.8243 102.88 10.8243C101.064 10.7946 99.2632 10.4836 97.542 9.90237C95.8036 9.29682 94.2854 8.18636 93.1817 6.71307C92.8581 6.26421 92.5962 5.77397 92.403 5.25546C92.3227 5.06972 92.2743 4.87177 92.2598 4.66992C92.569 5.33727 92.938 5.97524 93.3623 6.57603C94.483 7.96104 95.9669 9.00705 97.6479 9.59714C99.3412 10.1643 101.103 10.4996 102.887 10.5938C103.641 10.6129 104.394 10.6753 105.142 10.7807Z" fill="#263238"/>
<path d="M113.327 24.8708C113.295 25.0777 113.199 25.2693 113.053 25.419C112.866 25.6348 112.637 25.8106 112.38 25.9358C112.123 26.061 111.843 26.1331 111.558 26.1478C110.703 26.171 109.873 25.8579 109.247 25.2757C108.852 24.9338 108.601 24.4556 108.543 23.9365C108.513 23.646 108.571 23.3532 108.708 23.0957C108.846 22.8382 109.057 22.6277 109.316 22.4913C109.591 22.3641 109.906 22.3496 110.192 22.4508C110.478 22.5521 110.713 22.761 110.848 23.0332C110.9 23.1682 110.922 23.3132 110.911 23.4576C110.9 23.6021 110.858 23.7422 110.786 23.8679C110.661 24.1072 110.462 24.2996 110.219 24.4161C109.779 24.5935 109.288 24.5935 108.848 24.4161C108.473 24.29 108.134 24.0765 107.858 23.7932C107.457 23.389 107.2 22.8633 107.129 22.2982C107.087 22.0913 107.097 21.8769 107.16 21.6753C107.191 21.6753 107.16 21.8933 107.254 22.2608C107.368 22.778 107.635 23.249 108.02 23.6125C108.278 23.8633 108.592 24.049 108.936 24.1545C109.31 24.2906 109.722 24.2795 110.088 24.1233C110.272 24.0401 110.42 23.8939 110.505 23.7112C110.591 23.5285 110.609 23.3212 110.555 23.1267C110.452 22.939 110.282 22.797 110.079 22.7289C109.876 22.6609 109.654 22.6716 109.459 22.7592C109.264 22.873 109.107 23.0405 109.005 23.2416C108.904 23.4426 108.862 23.6688 108.886 23.8929C108.938 24.3321 109.148 24.7374 109.477 25.0328C110.044 25.573 110.794 25.8799 111.577 25.8924C112.104 25.8843 112.607 25.6747 112.984 25.3069C113.221 25.0639 113.302 24.8584 113.327 24.8708Z" fill="#263238"/>
<path d="M86.8085 55.007C86.8085 55.0444 86.7586 55.1316 86.7711 55.2687C86.7835 55.4057 86.8894 55.5303 87.0576 55.4618C87.2258 55.3932 87.2133 55.2375 87.1137 55.1254C87.014 55.0133 86.9144 55.007 86.9019 54.9634C86.8894 54.9198 87.0327 54.8202 87.257 54.9634C87.3219 55.0019 87.3767 55.0553 87.4168 55.1192C87.4569 55.1832 87.4811 55.2558 87.4874 55.331C87.489 55.4288 87.4607 55.5249 87.4061 55.6062C87.3515 55.6874 87.2734 55.7501 87.1822 55.7857C87.0929 55.8255 86.9935 55.8367 86.8975 55.8178C86.8016 55.7988 86.7139 55.7506 86.6465 55.6798C86.5963 55.6241 86.5609 55.5567 86.5435 55.4838C86.5261 55.4109 86.5272 55.3348 86.5468 55.2624C86.6154 55.007 86.8022 54.9697 86.8085 55.007Z" fill="#455A64"/>
<path d="M96.7764 54.8139C96.7764 54.8637 96.6456 54.9011 96.5646 55.0693C96.5377 55.112 96.522 55.1609 96.5191 55.2114C96.5161 55.2618 96.526 55.3122 96.5478 55.3578C96.5696 55.4034 96.6027 55.4427 96.6438 55.4721C96.6849 55.5014 96.7328 55.5199 96.783 55.5257C96.8332 55.5316 96.8841 55.5246 96.9308 55.5054C96.9776 55.4863 97.0188 55.4556 97.0505 55.4162C97.0821 55.3769 97.1033 55.3301 97.1121 55.2803C97.1208 55.2305 97.1167 55.1794 97.1003 55.1316C97.0567 54.9509 96.9321 54.8824 96.9446 54.8326C96.957 54.7827 97.1688 54.7827 97.3121 55.0444C97.3511 55.1238 97.3714 55.2112 97.3714 55.2998C97.3714 55.3883 97.3511 55.4757 97.3121 55.5552C97.2566 55.6551 97.1722 55.736 97.0699 55.7872C96.9677 55.8383 96.8523 55.8573 96.739 55.8417C96.637 55.8361 96.5386 55.8018 96.4552 55.7428C96.3718 55.6837 96.3068 55.6022 96.2677 55.5078C96.2287 55.4133 96.2171 55.3098 96.2343 55.209C96.2516 55.1083 96.297 55.0145 96.3653 54.9385C96.5771 54.7142 96.7889 54.7765 96.7764 54.8139Z" fill="#455A64"/>
<path d="M87.4512 60.3577C87.4512 60.3577 87.4512 60.6879 87.4512 61.2796C87.4705 62.1086 87.6069 62.9306 87.8561 63.7215C88.0413 64.2507 88.3268 64.7393 88.697 65.1604C89.14 65.6189 89.7229 65.9169 90.3539 66.0075C91.0448 66.1541 91.7652 66.0549 92.3909 65.7272C93.0519 65.3513 93.5888 64.7906 93.9357 64.1139C94.5304 62.9496 94.8902 61.6796 94.9946 60.3764L95.1504 60.5384C92.9203 60.5384 91.0142 60.4948 89.6438 60.4636L88.0305 60.42C87.8222 60.4229 87.614 60.4104 87.4076 60.3827C87.5845 60.3524 87.7639 60.3399 87.9433 60.3453L89.5255 60.3017C90.8896 60.2705 92.8394 60.2394 95.1317 60.2332H95.2936V60.3951C95.2073 61.7561 94.8381 63.0842 94.2098 64.2945C93.8343 65.026 93.2515 65.6306 92.5341 66.0324C91.8452 66.3861 91.0555 66.4917 90.2979 66.3314C89.6063 66.2211 88.9721 65.881 88.4977 65.3659C88.1091 64.9114 87.8148 64.3842 87.6318 63.8149C87.3991 63.0056 87.294 62.1649 87.3204 61.3232C87.3101 60.9964 87.3543 60.6701 87.4512 60.3577Z" fill="#455A64"/>
<path d="M111.707 91.7587C111.565 91.8704 111.402 91.953 111.228 92.0016C110.765 92.1682 110.28 92.2668 109.789 92.2944C108.972 92.3559 108.151 92.2376 107.385 91.9478C106.619 91.658 105.925 91.2038 105.353 90.6171C104.781 90.0304 104.345 89.3255 104.075 88.552C103.805 87.7785 103.708 86.9552 103.79 86.14C103.829 85.6509 103.941 85.1702 104.12 84.7136C104.251 84.3897 104.351 84.2277 104.369 84.2402C104.19 84.8645 104.073 85.5051 104.021 86.1525C103.968 86.9296 104.08 87.7089 104.349 88.4398C104.618 89.1707 105.038 89.8367 105.582 90.3944C106.126 90.9521 106.781 91.3891 107.504 91.6767C108.228 91.9644 109.004 92.0963 109.783 92.0639C110.432 92.0242 111.077 91.922 111.707 91.7587Z" fill="#455A64"/>
<path d="M52.9434 104.989C52.9434 104.902 66.4605 104.827 83.1234 104.827C99.7862 104.827 113.303 104.902 113.303 104.989C113.303 105.077 99.7924 105.151 83.1234 105.151C66.4543 105.151 52.9434 105.083 52.9434 104.989Z" fill="#455A64"/>
<path d="M258.192 77.1518C258.192 77.1518 258.005 77.1518 257.625 77.1518H255.912L249.253 77.1954L224.268 77.2826L138.051 77.4134H137.814L137.752 77.1891C136.808 73.9505 136.643 70.5348 137.269 67.2201C137.895 63.9053 139.295 60.7853 141.355 58.114C143.414 55.4426 146.076 53.2955 149.123 51.8475C152.17 50.3995 155.515 49.6915 158.887 49.7811L158.57 50.1922C158.04 48.3155 157.815 46.3659 157.903 44.4178C158.171 37.7589 161.958 31.3367 167.776 28.3405C170.598 26.8648 173.738 26.1018 176.923 26.118C180.107 26.1343 183.24 26.9294 186.046 28.434L185.598 28.5959C188.712 21.0338 195.234 15.5522 202.329 13.0232C209.424 10.4941 217.341 10.7744 223.545 14.0198C229.442 17.14 234.081 22.2009 236.676 28.3467C239.05 33.7685 239.605 39.813 238.259 45.5764L238.016 45.3024C241.405 44.9443 244.83 45.4345 247.982 46.7288C250.786 47.8672 253.311 49.5991 255.382 51.8055C256.328 52.7938 257.116 53.922 257.718 55.1506C258.249 56.2903 258.666 57.4796 258.964 58.7012C259.47 60.8275 259.754 63.0007 259.811 65.1856C259.921 68.1959 259.662 71.2084 259.039 74.1556C258.873 74.9202 258.665 75.6751 258.416 76.4167C258.242 76.915 258.148 77.1518 258.148 77.1518" fill="#BCC8EA"/>
<g opacity="0.3">
<path d="M258.192 77.1515C258.192 77.1515 258.005 77.1515 257.625 77.1515H255.912L249.253 77.1951L224.268 77.2823L138.051 77.4131H137.814L137.752 77.1889C136.808 73.9503 136.643 70.5346 137.269 67.2198C137.895 63.9051 139.295 60.785 141.355 58.1137C143.414 55.4424 146.076 53.2953 149.123 51.8473C152.17 50.3993 155.515 49.6912 158.887 49.7808L158.57 50.192C158.04 48.3152 157.815 46.3656 157.903 44.4176C158.171 37.7587 161.958 31.3365 167.776 28.3403C170.598 26.8645 173.738 26.1015 176.923 26.1178C180.107 26.1341 183.24 26.9292 186.046 28.4337L185.598 28.5957C188.712 21.0335 195.234 15.5519 202.329 13.0229C209.424 10.4939 217.341 10.7742 223.545 14.0196C229.442 17.1397 234.081 22.2006 236.676 28.3465C239.05 33.7682 239.605 39.8128 238.259 45.5762L238.016 45.3021C241.405 44.9441 244.83 45.4343 247.982 46.7286C250.786 47.8669 253.311 49.5988 255.382 51.8053C256.328 52.7935 257.116 53.9218 257.718 55.1503C258.249 56.2901 258.666 57.4793 258.964 58.7009C259.47 60.8273 259.754 63.0004 259.811 65.1854C259.921 68.1957 259.662 71.2081 259.039 74.1553C258.873 74.9199 258.665 75.6748 258.416 76.4165C258.242 76.9148 258.148 77.1515 258.148 77.1515" fill="black"/>
</g>
<path d="M248.661 77.1516C248.661 77.1516 248.474 77.1516 248.088 77.1516H246.381L239.716 77.1952L214.737 77.2824L128.514 77.4133H128.284L128.215 77.189C127.271 73.9499 127.105 70.5336 127.732 67.2184C128.358 63.9031 129.759 60.7827 131.819 58.1112C133.88 55.4398 136.542 53.2928 139.59 51.8452C142.638 50.3976 145.984 49.6904 149.357 49.781L149.039 50.1921C148.504 48.3099 148.279 46.3534 148.372 44.399C148.634 37.7401 152.428 31.3179 158.246 28.3217C161.066 26.846 164.205 26.083 167.389 26.0993C170.572 26.1155 173.704 26.9106 176.509 28.4151L176.067 28.5771C179.182 21.015 185.703 15.5334 192.798 13.0044C199.893 10.4753 207.804 10.7556 214.008 14.001C219.907 17.1191 224.546 22.1807 227.139 28.3279C229.519 33.7363 230.087 39.7689 228.759 45.5265L228.516 45.2524C231.905 44.8917 235.331 45.382 238.483 46.6789C241.289 47.8155 243.816 49.5476 245.889 51.7556C246.833 52.744 247.619 53.8723 248.219 55.1006C248.752 56.2393 249.169 57.4289 249.464 58.6512C249.97 60.7776 250.254 62.9507 250.312 65.1357C250.42 68.1463 250.158 71.1587 249.533 74.1056C249.37 74.8708 249.162 75.6258 248.91 76.3668C248.736 76.8651 248.642 77.1018 248.642 77.1018" fill="#BCC8EA"/>
<path d="M211.361 49.3326C211.183 48.7595 211.089 48.1636 211.081 47.5635C210.963 47.0029 210.863 46.3177 210.664 45.5266L210.309 44.2808C210.172 43.8447 209.972 43.4025 209.798 42.9291C208.879 40.7442 207.549 38.7563 205.88 37.0737C203.831 35.027 201.312 33.5143 198.542 32.6683C195.773 31.8222 192.838 31.6687 189.996 32.2212C187.67 32.6694 185.455 33.5734 183.48 34.8811C182.145 35.7692 180.921 36.8149 179.836 37.9956C179.444 38.413 179.157 38.7556 178.958 38.986C178.758 39.2165 178.634 39.3224 178.609 39.3037C178.584 39.285 178.646 39.1355 178.802 38.8739C179.019 38.4809 179.267 38.106 179.543 37.7527C180.547 36.4329 181.741 35.2699 183.088 34.3017C185.102 32.8564 187.395 31.8466 189.821 31.3367C192.81 30.7069 195.909 30.8452 198.83 31.7384C201.75 32.6317 204.397 34.2508 206.521 36.4446C208.236 38.2326 209.567 40.3524 210.433 42.6737C210.595 43.172 210.788 43.6392 210.9 44.0939C211.013 44.5486 211.1 44.9909 211.193 45.3958C211.349 46.218 211.393 46.9344 211.455 47.5137C211.509 48.1214 211.478 48.7336 211.361 49.3326Z" fill="#FAFAFA"/>
<path d="M202.814 42.985C202.976 42.767 206.875 45.4766 211.535 48.9961L211.796 49.1892L211.042 49.4197C212.911 44.0502 214.63 39.8206 214.88 39.9078C215.129 39.995 213.827 44.3616 211.958 49.7373L211.74 50.3602L211.204 49.9554L210.949 49.756C206.283 46.2366 202.652 43.1719 202.814 42.985Z" fill="#FAFAFA"/>
<path d="M177.629 46.3674C177.731 46.941 177.752 47.526 177.692 48.1053C177.723 48.6597 177.766 49.3512 177.841 50.1173C177.951 50.9965 178.124 51.8666 178.358 52.7211C178.954 54.9431 179.966 57.0316 181.342 58.8755C183.018 61.1315 185.212 62.9517 187.739 64.1827L188.231 64.4318L188.748 64.6374L189.764 65.036C190.106 65.1482 190.455 65.2354 190.798 65.3413C191.135 65.4468 191.478 65.5321 191.826 65.5967C193.148 65.8811 194.497 66.0169 195.85 66.0016C198.149 65.9667 200.421 65.4887 202.54 64.5938C203.978 63.9848 205.34 63.207 206.595 62.2766C207.043 61.9526 207.386 61.6848 207.616 61.4979C207.847 61.311 207.984 61.2425 208.009 61.2612C208.034 61.2799 207.946 61.4169 207.747 61.6412C207.467 61.9745 207.161 62.2849 206.831 62.5693C205.634 63.644 204.284 64.536 202.826 65.2167C200.657 66.245 198.299 66.8154 195.899 66.8923C194.476 66.9385 193.052 66.8172 191.657 66.531C191.291 66.4682 190.929 66.3808 190.574 66.2694C190.212 66.1635 189.838 66.0701 189.477 65.9517L188.4 65.5344L187.858 65.3226L187.334 65.0547L186.294 64.519C185.958 64.3197 185.64 64.1017 185.316 63.8961C184.687 63.4823 184.084 63.031 183.51 62.5444C183.223 62.3139 182.974 62.0398 182.706 61.7969C182.438 61.554 182.177 61.3048 181.952 61.0307L181.267 60.2209L180.937 59.8223L180.644 59.4049C178.685 56.7021 177.534 53.4987 177.324 50.1672C177.324 49.3574 177.324 48.6597 177.324 48.0929C177.34 47.5058 177.443 46.9243 177.629 46.3674Z" fill="#FAFAFA"/>
<path d="M185.312 53.7114C185.125 53.9045 181.575 50.7588 177.407 46.685L177.171 46.4545L177.949 46.3237C175.42 51.4191 173.215 55.412 172.966 55.2936C172.717 55.1753 174.548 51.0018 177.065 45.8939L177.358 45.271L177.837 45.7382L178.074 45.9687C182.285 50.0612 185.524 53.5183 185.312 53.7114Z" fill="#FAFAFA"/>
<path d="M301.957 108.577C301.957 108.577 301.957 108.471 301.957 108.26V107.325C301.957 106.484 301.957 105.27 301.926 103.706C301.926 100.542 301.926 95.9572 301.876 90.2451L301.988 90.351L251.289 90.4071L195.016 90.3385H194.922V90.2451C194.922 86.2149 194.953 83.0318 194.966 80.8392C194.966 79.7553 194.966 78.9206 194.966 78.3475C194.966 78.0734 194.966 77.8617 194.966 77.7246C194.956 77.6522 194.956 77.579 194.966 77.5066C194.966 77.5066 194.966 77.5813 194.966 77.7246C194.966 77.8679 194.966 78.0921 194.966 78.3475C194.966 78.9268 194.966 79.7615 194.966 80.8392C194.966 83.0318 194.966 86.2149 195.009 90.2451L194.916 90.1517L251.19 90.0831L301.888 90.133H302.001V90.2451C302.001 95.9572 301.957 100.542 301.951 103.706C301.951 105.27 301.951 106.484 301.92 107.325C301.92 107.73 301.92 108.035 301.92 108.26C301.938 108.365 301.95 108.471 301.957 108.577Z" fill="#BCC8EA"/>
<path d="M145.101 104.989C145.014 104.989 144.939 98.8102 144.939 91.1858C144.939 83.5614 145.014 77.3821 145.101 77.3821C145.189 77.3821 145.263 83.5614 145.263 91.1858C145.263 98.8102 145.189 104.989 145.101 104.989Z" fill="#BCC8EA"/>
<path d="M192.817 137.748L184.429 141.956C184.121 142.087 183.858 142.306 183.674 142.586C183.49 142.865 183.392 143.192 183.393 143.527V147.446C183.383 151.015 184.423 154.508 186.384 157.491C187.893 159.794 189.898 162.738 193.232 164.42H194.736C198.448 163.286 201.219 160.27 202.912 157.689C204.873 154.706 205.913 151.213 205.903 147.643V143.527C205.903 143.194 205.805 142.868 205.622 142.589C205.438 142.311 205.177 142.093 204.87 141.962L195.318 137.885C194.892 137.704 193.243 137.567 192.817 137.748Z" fill="#455A64"/>
<g opacity="0.3">
<path d="M192.817 137.748L184.429 141.956C184.121 142.087 183.858 142.306 183.674 142.586C183.49 142.865 183.392 143.192 183.393 143.527V147.446C183.383 151.015 184.423 154.508 186.384 157.491C187.893 159.794 189.898 162.738 193.232 164.42H194.736C198.448 163.286 201.219 160.27 202.912 157.689C204.873 154.706 205.913 151.213 205.903 147.643V143.527C205.903 143.194 205.805 142.868 205.622 142.589C205.438 142.311 205.177 142.093 204.87 141.962L195.318 137.885C194.892 137.704 193.243 137.567 192.817 137.748Z" fill="black"/>
</g>
<path d="M192.48 137.885L182.925 141.956C182.616 142.087 182.354 142.306 182.169 142.585C181.985 142.864 181.887 143.192 181.889 143.527V147.445C181.887 151.082 182.965 154.637 184.984 157.661C187.004 160.685 189.875 163.042 193.235 164.433C196.947 163.3 199.718 160.284 201.411 157.702C203.372 154.72 204.412 151.226 204.402 147.657V143.527C204.402 143.193 204.304 142.867 204.121 142.589C203.937 142.311 203.676 142.093 203.369 141.962L193.811 137.885C193.601 137.795 193.374 137.749 193.145 137.749C192.917 137.749 192.69 137.795 192.48 137.885Z" fill="#455A64"/>
<path d="M204.372 146.591C204.384 146.65 204.39 146.711 204.388 146.772C204.388 146.905 204.402 147.078 204.413 147.292C204.424 147.507 204.436 147.794 204.413 148.128C204.391 148.462 204.413 148.816 204.363 149.22C204.313 149.623 204.299 150.055 204.216 150.534C204.177 150.768 204.149 151.013 204.099 151.261L203.934 152.027C203.669 153.157 203.301 154.261 202.834 155.324C202.353 156.383 201.779 157.397 201.119 158.354C200.801 158.783 200.506 159.19 200.191 159.557C200.038 159.738 199.896 159.919 199.746 160.081C199.595 160.242 199.448 160.396 199.309 160.543C199.03 160.844 198.752 161.083 198.529 161.303C198.306 161.523 198.083 161.704 197.908 161.844L197.501 162.172C197.456 162.213 197.407 162.249 197.354 162.278C197.392 162.229 197.436 162.185 197.484 162.147L197.869 161.802C198.039 161.654 198.247 161.471 198.47 161.245C198.693 161.019 198.969 160.777 199.233 160.474L199.659 160.006C199.807 159.844 199.938 159.663 200.097 159.482C200.406 159.123 200.693 158.708 201.007 158.276C201.656 157.324 202.222 156.318 202.698 155.268C203.165 154.213 203.538 153.118 203.812 151.996C203.87 151.737 203.926 151.484 203.982 151.239C204.037 150.994 204.062 150.748 204.104 150.517C204.191 150.052 204.224 149.612 204.269 149.211C204.313 148.81 204.316 148.448 204.341 148.128C204.366 147.808 204.36 147.535 204.36 147.309C204.36 147.084 204.36 146.925 204.36 146.788C204.356 146.722 204.36 146.656 204.372 146.591Z" fill="#263238"/>
<path d="M192.435 155.109L186.951 150.751L188.472 148.838L192.148 151.762L197.517 145.755L199.339 147.381L192.435 155.109Z" fill="white"/>
</svg>
