<svg width="247" height="248" viewBox="0 0 247 248" fill="none" xmlns="http://www.w3.org/2000/svg">
<path d="M246.223 246.356C246.223 246.442 191.914 246.515 124.943 246.515C57.9714 246.515 3.65027 246.423 3.65027 246.356C3.65027 246.289 57.9408 246.197 124.943 246.197C191.944 246.197 246.223 246.246 246.223 246.356Z" fill="#263238"/>
<path d="M234.637 33.9064L233.168 31.4812C220.728 10.9761 198.298 -1.38036 174.647 0.12327C171.597 0.299251 168.565 0.704592 165.576 1.33587C144.071 5.94983 125.361 22.2533 117.608 43.1343C113.042 55.4119 111.772 69.5509 103.094 79.3002C91.834 91.9841 72.7061 92.3782 55.9246 91.8567C39.1431 91.3353 19.9729 91.7779 8.75495 104.51C1.75207 112.52 -0.479414 123.894 0.0829932 134.54C1.58275 162.818 21.2489 188.107 46.2306 200.676C71.2124 213.244 100.657 214.366 128.009 208.837C166.332 201.094 202.779 179.825 224.683 146.994C246.587 114.163 252.132 69.3629 234.637 33.9064Z" fill="#FFE7EC"/>
<path d="M230.39 51H176.61C175.169 51 174 52.1753 174 53.6251V84.3749C174 85.8247 175.169 87 176.61 87H230.39C231.831 87 233 85.8247 233 84.3749V53.6251C233 52.1753 231.831 51 230.39 51Z" fill="white"/>
<path d="M200.946 62H182.054C181.472 62 181 62.3542 181 62.7912V63.2088C181 63.6458 181.472 64 182.054 64H200.946C201.528 64 202 63.6458 202 63.2088V62.7912C202 62.3542 201.528 62 200.946 62Z" fill="#E0E0E0"/>
<path d="M200.946 68H182.054C181.472 68 181 68.3542 181 68.7912V69.2088C181 69.6458 181.472 70 182.054 70H200.946C201.528 70 202 69.6458 202 69.2088V68.7912C202 68.3542 201.528 68 200.946 68Z" fill="#E0E0E0"/>
<path d="M191.881 74H182.119C181.501 74 181 74.3542 181 74.7912V75.2088C181 75.6458 181.501 76 182.119 76H191.881C192.499 76 193 75.6458 193 75.2088V74.7912C193 74.3542 192.499 74 191.881 74Z" fill="#E0E0E0"/>
<path d="M221.904 77H212.096C211.491 77 211 77.5314 211 78.1868V78.8132C211 79.4686 211.491 80 212.096 80H221.904C222.509 80 223 79.4686 223 78.8132V78.1868C223 77.5314 222.509 77 221.904 77Z" fill="#E0E0E0"/>
<path d="M218.5 75C216.818 75 215.174 74.5011 213.776 73.5665C212.378 72.6318 211.289 71.3034 210.646 69.7494C210.003 68.1954 209.835 66.4856 210.164 64.8363C210.494 63.1871 211.305 61.6726 212.495 60.4844C213.685 59.2962 215.201 58.4879 216.851 58.1615C218.501 57.8352 220.21 58.0057 221.763 58.6513C223.316 59.2969 224.642 60.3886 225.575 61.7884C226.507 63.1881 227.003 64.8329 227 66.5147C226.992 68.7653 226.094 70.9213 224.501 72.5113C222.908 74.1014 220.751 74.9961 218.5 75ZM218.5 58.5515C216.929 58.5515 215.392 59.0173 214.086 59.89C212.779 60.7628 211.76 62.0033 211.158 63.4548C210.556 64.9064 210.398 66.5038 210.703 68.0453C211.009 69.5867 211.764 71.0031 212.874 72.1153C213.984 73.2275 215.399 73.9857 216.94 74.294C218.481 74.6024 220.079 74.4471 221.532 73.8477C222.984 73.2484 224.227 72.2319 225.102 70.9267C225.977 69.6215 226.446 68.0862 226.449 66.5147C226.449 65.4699 226.245 64.4352 225.846 63.4696C225.447 62.5039 224.862 61.6264 224.123 60.8869C223.385 60.1474 222.509 59.5606 221.544 59.1599C220.579 58.7592 219.545 58.5524 218.5 58.5515Z" fill="#E0E0E0"/>
<path d="M218 75C215.616 74.9981 213.33 74.0512 211.643 72.367C209.956 70.6828 209.006 68.3986 209 66.0148H210.478C210.481 67.5019 210.924 68.9548 211.753 70.1898C212.581 71.4249 213.757 72.3867 215.132 72.9538C216.506 73.5209 218.018 73.6677 219.477 73.3758C220.935 73.0839 222.274 72.3663 223.324 71.3138C224.375 70.2612 225.09 68.9208 225.379 67.4621C225.668 66.0033 225.518 64.4916 224.948 63.118C224.378 61.7443 223.414 60.5704 222.178 59.7445C220.941 58.9186 219.487 58.4778 218 58.4778V57C220.387 57 222.676 57.9482 224.364 59.636C226.052 61.3239 227 63.6131 227 66C227 68.3869 226.052 70.6761 224.364 72.364C222.676 74.0518 220.387 75 218 75Z" fill="#FF725E"/>
<path d="M68.2532 91.3523C68.224 91.256 68.176 91.1664 68.112 91.0887C68.0481 91.011 67.9693 90.9467 67.8804 90.8995C67.7915 90.8523 67.6942 90.8231 67.5939 90.8137C67.4937 90.8042 67.3926 90.8147 67.2965 90.8444L63.8476 91.9193L16.5469 104.467L33.3899 170.111L39.2523 173.193L87.3955 159.807C87.5816 159.756 87.7554 159.667 87.9069 159.548C88.0584 159.428 88.1844 159.279 88.2775 159.11C88.3707 158.941 88.4291 158.755 88.4494 158.563C88.4697 158.371 88.4514 158.177 88.3956 157.992L68.2532 91.3523Z" fill="#EC6980"/>
<path d="M62.9027 88.75L67.6154 91.5139L87.7932 158.744L39.1736 172.627L33.6498 169.627L62.9027 88.75Z" fill="#F5F5F5"/>
<path d="M81.1828 155.949L33.39 170.123L14.0666 104.912C13.9456 104.5 13.9907 104.057 14.1924 103.678C14.394 103.299 14.7361 103.014 15.1453 102.884L62.4263 88.0414C62.5421 88.0052 62.664 87.9926 62.7847 88.0042C62.9054 88.0158 63.0226 88.0515 63.1294 88.1091C63.2362 88.1667 63.3303 88.245 63.4063 88.3396C63.4823 88.4341 63.5387 88.5429 63.572 88.6595L82.2537 154.016C82.3647 154.414 82.3146 154.84 82.1143 155.202C81.9139 155.563 81.5793 155.832 81.1828 155.949Z" fill="#EC6980"/>
<path d="M39.5044 167.351C39.4532 167.351 35.0042 152.784 29.5749 134.744C24.1456 116.704 19.7833 102.089 19.8384 102.065C19.8935 102.042 24.3385 116.633 29.7718 134.677C35.205 152.721 39.5595 167.335 39.5044 167.351Z" fill="#263238"/>
<path d="M37.8192 169.036C37.7641 169.056 33.3191 154.469 27.8897 136.429C22.4604 118.389 18.0981 103.778 18.1532 103.751C18.2083 103.723 22.6534 118.318 28.0827 136.362C33.512 154.406 37.8743 169.02 37.8192 169.036Z" fill="#263238"/>
<path d="M46.9848 130.275L43.1383 131.487L43.0123 133.255L40.6224 134.011L41.6422 123.905L44.0281 123.153L50.5676 130.897L48.0912 131.684L46.9848 130.275ZM45.7368 128.7L43.5202 125.913L43.2761 129.456L45.7368 128.7Z" fill="white"/>
<path d="M53.0993 124.991L53.556 126.436L50.1897 127.499L49.733 126.05L53.0993 124.991Z" fill="white"/>
<path d="M60.6075 117.928L61.0878 119.452L58.1271 126.44L62.9028 124.936L63.4894 126.803L55.6152 129.287L55.1388 127.779L58.0956 120.775L53.5639 122.204L52.9773 120.334L60.6075 117.928Z" fill="white"/>
<path d="M83.6829 157.67L83.5727 157.713L83.238 157.827L81.9545 158.221L77.2299 159.701L61.5877 164.505L45.9258 169.253L41.1658 170.662L39.8705 171.056L39.5319 171.15C39.4938 171.164 39.4541 171.172 39.4138 171.174C39.4487 171.155 39.4857 171.141 39.5241 171.131L39.8587 171.017L41.1422 170.623L45.8668 169.142L61.5129 164.335L77.1709 159.591L81.923 158.174L83.2183 157.78L83.5569 157.689C83.5978 157.677 83.6402 157.67 83.6829 157.67Z" fill="#263238"/>
<path d="M56.8828 164.642L49.6345 166.867C51.3387 169.988 52.5499 173.355 53.2252 176.847C54.2563 175.258 54.8198 173.411 54.8512 171.516C56.0766 172.985 57.4125 174.358 58.8474 175.623C58.9479 171.867 58.2793 168.13 56.8828 164.642Z" fill="#455A64"/>
<path d="M82.797 156.772C82.797 156.772 82.7616 156.792 82.6868 156.819L82.3561 156.929L81.0726 157.323L76.348 158.8L60.7058 163.607L45.0478 168.355L40.2957 169.772L39.0004 170.146L38.6618 170.237L38.5437 170.265C38.5783 170.244 38.6153 170.228 38.6539 170.217L38.9847 170.107L40.2721 169.694L44.9967 168.217L60.6389 163.41L76.3008 158.662L81.0529 157.276L82.3482 156.902L82.6868 156.811L82.797 156.772Z" fill="#263238"/>
<path d="M84.2656 154.914C84.2413 154.86 84.2216 154.805 84.2065 154.748L84.0608 154.26L83.5214 152.386C83.0569 150.748 82.3875 148.394 81.5529 145.488C79.8993 139.661 77.5961 131.614 75.0015 122.743C72.4069 113.873 70.0289 105.861 68.2651 100.061C67.395 97.1677 66.6902 94.8251 66.1941 93.1912C65.9579 92.4038 65.7689 91.7581 65.639 91.321C65.5799 91.1163 65.5327 90.9549 65.5012 90.8368C65.4823 90.7816 65.4678 90.725 65.4579 90.6675C65.4823 90.7199 65.5033 90.7738 65.5209 90.8289C65.5563 90.947 65.6114 91.1045 65.6784 91.3092C65.8162 91.7463 66.017 92.3683 66.2729 93.1676C66.7768 94.7936 67.5052 97.1322 68.4068 100.018C70.1903 105.806 72.6117 113.818 75.2102 122.692C77.8087 131.566 80.0843 139.622 81.7025 145.453C82.4899 148.366 83.1513 150.724 83.6002 152.37L84.1041 154.256C84.1553 154.465 84.1986 154.626 84.2262 154.748C84.2537 154.87 84.2656 154.914 84.2656 154.914Z" fill="#263238"/>
<path d="M63.4618 103.254C63.4618 103.254 63.4618 103.207 63.4145 103.121L63.2846 102.727C63.1691 102.37 63.0037 101.858 62.7885 101.191C62.3633 99.8527 61.7452 97.9038 60.9617 95.4431L61.0365 95.4825L25.1062 106.727L25.1732 106.597C26.0118 109.282 26.8307 111.908 27.6142 114.432L27.4882 114.365L53.0992 106.424L60.6782 104.093L62.7295 103.467L63.2649 103.306L63.45 103.254L63.2807 103.317L62.761 103.483L60.753 104.124L53.2095 106.487L27.5473 114.562L27.4488 114.589L27.4173 114.495C26.6299 111.971 25.811 109.345 24.9763 106.664L24.9448 106.566L25.0433 106.534L61.0011 95.3683L61.0562 95.3486V95.4038C61.8161 97.8881 62.4145 99.8527 62.8318 101.207C63.0287 101.869 63.1862 102.388 63.2925 102.735C63.3437 102.904 63.3791 103.03 63.4066 103.128C63.4288 103.169 63.4472 103.211 63.4618 103.254Z" fill="white"/>
<path d="M158.854 127.599C167.219 124.19 171.237 114.646 167.828 106.281C164.42 97.9165 154.876 93.8987 146.511 97.3072C138.146 100.716 134.129 110.26 137.537 118.624C140.946 126.989 150.49 131.007 158.854 127.599Z" fill="white"/>
<path d="M139.323 128.626C139.303 128.626 139.323 128.448 139.216 128.149C139.08 127.725 138.816 127.354 138.46 127.086C138.222 126.895 137.943 126.761 137.645 126.692C137.306 126.623 136.955 126.655 136.633 126.783C136.258 126.914 135.93 127.156 135.695 127.477C135.46 127.798 135.327 128.183 135.315 128.58C135.302 128.978 135.411 129.371 135.626 129.705C135.841 130.04 136.152 130.302 136.519 130.456C136.833 130.601 137.181 130.653 137.523 130.606C137.824 130.559 138.11 130.446 138.362 130.275C138.733 130.031 139.019 129.677 139.181 129.263C139.291 128.968 139.299 128.787 139.315 128.791C139.32 128.834 139.32 128.878 139.315 128.921C139.313 128.973 139.305 129.024 139.291 129.074C139.28 129.146 139.262 129.216 139.236 129.283C139.109 129.654 138.885 129.983 138.587 130.237C138.289 130.491 137.929 130.661 137.543 130.728C137.176 130.788 136.799 130.737 136.46 130.582C136.082 130.413 135.76 130.14 135.531 129.795C135.273 129.435 135.135 129.002 135.137 128.559C135.159 128.115 135.322 127.69 135.602 127.346C135.854 127.024 136.191 126.777 136.574 126.633C136.922 126.501 137.302 126.474 137.665 126.555C137.986 126.633 138.284 126.785 138.535 127C138.898 127.287 139.16 127.683 139.283 128.13C139.301 128.2 139.314 128.271 139.323 128.342C139.33 128.394 139.33 128.447 139.323 128.5C139.327 128.542 139.327 128.584 139.323 128.626Z" fill="#263238"/>
<path d="M149.921 128.72L150.189 128.743L150.976 128.83L151.547 128.893C151.76 128.893 151.992 128.893 152.244 128.893H153.055C153.205 128.9 153.355 128.893 153.504 128.873L153.98 128.834C155.565 128.715 157.122 128.357 158.599 127.771C160.56 127.009 162.356 125.876 163.89 124.436L164.532 123.822C164.733 123.605 164.926 123.369 165.126 123.141L165.43 122.794C165.533 122.678 165.629 122.556 165.717 122.428L166.264 121.641C166.355 121.511 166.449 121.385 166.54 121.247L166.78 120.826C166.938 120.542 167.103 120.259 167.264 119.972C167.426 119.684 167.54 119.365 167.682 119.062C167.753 118.908 167.819 118.751 167.89 118.597C167.922 118.519 167.961 118.444 167.989 118.365L168.071 118.121C168.312 117.466 168.506 116.795 168.654 116.113C168.725 115.767 168.819 115.424 168.875 115.066C168.93 114.708 168.957 114.349 169.001 113.987C169.02 113.806 169.052 113.625 169.06 113.44C169.068 113.255 169.06 113.074 169.06 112.889C169.06 112.519 169.079 112.144 169.06 111.77C169.021 111.011 168.931 110.254 168.792 109.507L168.686 108.936C168.686 108.841 168.654 108.747 168.63 108.648L168.552 108.369C168.442 107.975 168.335 107.617 168.225 107.239C168.115 106.861 167.938 106.503 167.796 106.129C167.717 105.947 167.654 105.735 167.564 105.577L167.288 105.042C166.92 104.315 166.503 103.614 166.04 102.943C165.788 102.617 165.532 102.294 165.276 101.967L165.083 101.719L164.867 101.495L164.434 101.038L164 100.581L163.524 100.187L163.052 99.7937L162.811 99.585C162.729 99.5221 162.638 99.463 162.552 99.4L161.504 98.6559L160.382 98.0141C157.262 96.3397 153.679 95.7313 150.181 96.2818L148.909 96.518L147.673 96.8724L147.366 96.9629L147.071 97.081L146.48 97.3173L145.894 97.5495L145.331 97.837L144.775 98.1244L144.496 98.27L144.236 98.4354L143.189 99.1047C142.531 99.5879 141.907 100.114 141.319 100.68L140.897 101.089C140.752 101.227 140.63 101.388 140.504 101.538C140.248 101.841 139.976 102.132 139.716 102.443L139.035 103.4L138.866 103.64C138.815 103.723 138.767 103.806 138.72 103.892C138.622 104.058 138.527 104.227 138.433 104.392C138.055 105.053 137.72 105.738 137.433 106.444C137.299 106.794 137.193 107.152 137.07 107.503C137.015 107.676 136.956 107.853 136.897 108.026C136.838 108.199 136.815 108.385 136.771 108.562C136.692 108.92 136.614 109.27 136.535 109.625C136.456 109.979 136.444 110.333 136.397 110.684C136.314 111.376 136.277 112.073 136.287 112.77V113.026C136.287 113.113 136.287 113.196 136.307 113.282C136.307 113.452 136.334 113.621 136.346 113.786C136.381 114.121 136.389 114.456 136.441 114.782C136.492 115.109 136.559 115.432 136.618 115.751C136.649 115.908 136.677 116.07 136.704 116.227L136.834 116.688C136.925 116.995 137.011 117.298 137.098 117.597C137.137 117.747 137.189 117.893 137.252 118.034C137.307 118.18 137.362 118.322 137.421 118.464C137.535 118.747 137.637 119.031 137.759 119.302C137.882 119.574 138.027 119.834 138.153 120.09C139.126 121.956 140.449 123.618 142.051 124.983C142.224 125.133 142.393 125.287 142.567 125.428L143.102 125.822L143.618 126.192C143.705 126.251 143.787 126.314 143.874 126.365L144.134 126.515L145.122 127.086C145.441 127.255 145.764 127.381 146.059 127.523L146.492 127.716C146.626 127.782 146.766 127.837 146.909 127.881L147.677 128.141C147.917 128.22 148.138 128.302 148.339 128.358L148.902 128.488L149.665 128.665L149.925 128.728C149.925 128.728 149.835 128.728 149.661 128.68L148.898 128.515L148.331 128.393C148.126 128.342 147.905 128.259 147.665 128.184L146.878 127.932C146.734 127.889 146.595 127.834 146.461 127.767L146.023 127.574C145.724 127.436 145.401 127.314 145.079 127.145L144.09 126.566L143.827 126.417C143.74 126.365 143.661 126.302 143.575 126.243L143.055 125.877L142.512 125.483L141.992 125.035C140.374 123.668 139.037 122.001 138.055 120.125C137.917 119.865 137.783 119.601 137.661 119.338C137.539 119.074 137.433 118.779 137.318 118.495C137.263 118.349 137.204 118.208 137.145 118.062C137.082 117.92 137.03 117.772 136.992 117.621C136.905 117.318 136.815 117.015 136.728 116.708C136.681 116.554 136.633 116.401 136.594 116.243C136.555 116.086 136.535 115.924 136.504 115.763C136.444 115.44 136.385 115.117 136.322 114.79C136.259 114.463 136.259 114.121 136.228 113.786C136.228 113.617 136.196 113.448 136.185 113.274C136.185 113.192 136.165 113.105 136.165 113.019V112.786C136.152 112.084 136.187 111.381 136.271 110.684C136.318 110.333 136.342 109.971 136.409 109.617L136.645 108.546C136.689 108.365 136.716 108.184 136.771 108.007L136.948 107.475C137.067 107.125 137.173 106.762 137.311 106.408C137.598 105.697 137.934 105.007 138.315 104.341L138.602 103.833C138.653 103.747 138.696 103.66 138.752 103.577L138.929 103.337C139.157 103.02 139.385 102.697 139.614 102.369C139.858 102.058 140.134 101.762 140.401 101.455C140.535 101.306 140.657 101.144 140.795 101.006L141.236 100.585C141.83 100.02 142.46 99.4936 143.122 99.0102L144.177 98.337L144.441 98.1677L144.72 98.022L145.283 97.7307L145.85 97.4432L146.445 97.2031L147.039 96.9669L147.338 96.8487L147.646 96.7582L148.894 96.396L150.177 96.1597C153.708 95.6031 157.324 96.2171 160.473 97.9078L161.607 98.5575L162.662 99.3055C162.748 99.3685 162.839 99.4276 162.926 99.4945L163.166 99.7071L163.65 100.124L164.134 100.546L164.571 101.006L165.008 101.463C165.079 101.542 165.154 101.617 165.221 101.695L165.418 101.943L166.205 102.928C166.67 103.605 167.089 104.313 167.461 105.046L167.737 105.585C167.831 105.766 167.894 105.979 167.969 106.144C168.115 106.538 168.276 106.888 168.402 107.266L168.733 108.404L168.812 108.688C168.835 108.782 168.851 108.881 168.871 108.975C168.906 109.168 168.942 109.369 168.973 109.55C169.114 110.304 169.204 111.067 169.241 111.833C169.241 112.227 169.241 112.589 169.241 112.963C169.241 113.148 169.241 113.334 169.241 113.519C169.241 113.704 169.201 113.889 169.182 114.07L169.052 115.16C168.997 115.519 168.902 115.865 168.831 116.215C168.68 116.902 168.481 117.576 168.237 118.235L168.154 118.479C168.127 118.558 168.087 118.637 168.052 118.716L167.843 119.184C167.701 119.491 167.579 119.802 167.422 120.097L166.882 120.928L166.638 121.353C166.548 121.487 166.453 121.617 166.363 121.747L165.808 122.535C165.72 122.664 165.623 122.787 165.516 122.901L165.213 123.251C165.008 123.479 164.819 123.716 164.611 123.936L163.965 124.55C162.413 125.993 160.596 127.122 158.614 127.873C157.131 128.459 155.567 128.815 153.976 128.928L153.5 128.964C153.351 128.978 153.201 128.978 153.051 128.964H152.236C151.984 128.964 151.748 128.964 151.539 128.944L150.965 128.873L150.177 128.771L149.921 128.72Z" fill="#263238"/>
<path d="M94.5142 116.794C92.211 115.034 91.9393 111.393 93.4866 108.944C95.0339 106.495 97.9749 105.184 100.865 104.975C102.964 104.842 105.065 105.208 106.996 106.042C108.927 106.876 110.633 108.155 111.975 109.774C113.405 111.534 114.491 113.759 116.558 114.688C118.373 115.507 120.495 115.082 122.444 115.527C125.055 116.101 127.149 118.176 128.303 120.586C129.456 122.995 129.775 125.704 129.854 128.385C129.925 130.838 129.881 133.503 131.409 135.433C132.937 137.362 135.452 137.897 137.386 139.303C141.02 141.953 141.76 147.783 138.901 151.252C137.992 152.362 136.736 153.339 136.515 154.756C136.315 156.048 137.055 157.284 137.338 158.559C138.071 161.851 135.118 165.422 131.748 165.319C130.047 165.264 128.291 164.445 126.708 165.067C125.125 165.69 124.417 167.453 123.33 168.749C122.227 170 120.727 170.834 119.082 171.111C117.437 171.387 115.746 171.09 114.294 170.268C113.113 169.548 112.019 168.438 110.625 168.41C109.231 168.383 108.046 169.461 106.664 169.591C104.857 169.776 103.286 168.32 102.357 166.756C101.428 165.193 100.845 163.394 99.601 162.071C97.971 160.339 95.5142 159.733 93.3409 158.76C90.9327 157.686 88.7832 156.107 87.038 154.131C85.2929 152.154 83.9927 149.825 83.2255 147.302C82.4584 144.78 82.2421 142.121 82.5914 139.508C82.9407 136.894 83.8474 134.386 85.2501 132.153" fill="#263238"/>
<path d="M117.483 150.929C118.081 150.391 118.799 150.005 119.578 149.803L119.428 149.784C119.57 149.76 119.714 149.748 119.857 149.748C120.121 149.695 120.392 149.697 120.655 149.754C120.918 149.81 121.166 149.919 121.385 150.075C122.22 150.462 122.88 151.147 123.235 151.996C123.504 152.744 123.561 153.552 123.402 154.33C123.242 155.108 122.871 155.828 122.33 156.41C121.405 157.429 119.909 158.016 118.605 157.591C117.424 157.197 116.597 155.996 116.357 154.752C116.208 154.072 116.233 153.365 116.43 152.696C116.627 152.028 116.989 151.42 117.483 150.929Z" fill="#455A64"/>
<path d="M121.283 134.342C121.259 127.417 117.196 118.684 110.279 118.987L88.4983 123.133C87.4846 123.179 86.525 123.603 85.8097 124.323C85.0943 125.043 84.6754 126.005 84.636 127.019L81.632 185.403L106.282 185.273C106.582 181.095 107.684 169.335 107.684 169.375C107.684 169.414 117.279 168.461 119.787 157.075C121.039 151.421 121.306 142.031 121.283 134.342Z" fill="#FFBF9D"/>
<path d="M116.113 143.768C116.095 144.152 115.927 144.514 115.645 144.776C115.363 145.038 114.99 145.179 114.605 145.169C114.417 145.173 114.23 145.14 114.054 145.07C113.879 145.001 113.72 144.897 113.585 144.765C113.451 144.633 113.345 144.475 113.272 144.301C113.2 144.127 113.163 143.94 113.164 143.752C113.183 143.367 113.351 143.005 113.632 142.742C113.914 142.48 114.287 142.338 114.672 142.346C114.861 142.343 115.048 142.377 115.223 142.447C115.399 142.516 115.558 142.621 115.692 142.753C115.827 142.886 115.933 143.044 116.005 143.218C116.078 143.392 116.114 143.579 116.113 143.768Z" fill="#263238"/>
<path d="M118.972 138.314C118.779 138.496 117.712 137.602 116.121 137.527C114.531 137.452 113.326 138.161 113.164 137.956C113.086 137.866 113.294 137.531 113.822 137.192C114.531 136.76 115.356 136.557 116.184 136.61C117.014 136.646 117.811 136.948 118.456 137.472C118.924 137.877 119.066 138.236 118.972 138.314Z" fill="#263238"/>
<path d="M101.841 142.787C101.823 143.171 101.655 143.533 101.373 143.795C101.091 144.057 100.718 144.198 100.333 144.189C100.145 144.193 99.9569 144.159 99.7814 144.09C99.606 144.02 99.4463 143.916 99.3119 143.783C99.1775 143.651 99.0711 143.492 98.999 143.318C98.9269 143.143 98.8906 142.956 98.8923 142.767C98.9116 142.384 99.08 142.022 99.3616 141.76C99.6432 141.499 100.016 141.357 100.4 141.366C100.589 141.362 100.776 141.396 100.951 141.466C101.127 141.536 101.286 141.64 101.42 141.773C101.555 141.905 101.661 142.063 101.733 142.237C101.806 142.412 101.842 142.599 101.841 142.787Z" fill="#263238"/>
<path d="M103.361 137.681C103.164 137.862 102.097 136.968 100.51 136.894C98.9238 136.819 97.7151 137.527 97.5536 137.323C97.4749 137.232 97.6796 136.898 98.2111 136.559C98.9198 136.126 99.7448 135.923 100.573 135.976C101.4 136.021 102.19 136.329 102.829 136.854C103.31 137.244 103.455 137.59 103.361 137.681Z" fill="#263238"/>
<path d="M108.416 149.795C108.416 149.705 109.408 149.591 111.019 149.484C111.412 149.484 111.806 149.406 111.901 149.134C111.995 148.862 111.869 148.402 111.704 147.917L110.688 144.768C109.286 140.275 108.298 136.59 108.479 136.535C108.66 136.48 109.944 140.078 111.345 144.567C111.68 145.677 112.003 146.732 112.306 147.74C112.432 148.209 112.664 148.748 112.424 149.343C112.357 149.482 112.259 149.604 112.137 149.699C112.016 149.795 111.874 149.861 111.723 149.894C111.494 149.943 111.26 149.961 111.026 149.949C109.4 149.933 108.416 149.882 108.416 149.795Z" fill="#263238"/>
<path d="M107.782 169.233C107.782 169.233 100.696 169.296 93.3252 164.233C93.3252 164.233 95.8922 173.056 107.463 172.666L107.782 169.233Z" fill="#FF9A6C"/>
<path d="M107.955 153.547C107.63 153.003 107.176 152.546 106.634 152.216C106.092 151.886 105.478 151.693 104.845 151.654C104.431 151.633 104.017 151.714 103.641 151.889C103.265 152.065 102.938 152.33 102.688 152.661C102.434 153.037 102.29 153.476 102.27 153.929C102.249 154.382 102.355 154.832 102.573 155.229C102.836 155.641 103.217 155.964 103.667 156.156C104.116 156.349 104.613 156.401 105.093 156.307C106.003 156.146 106.778 155.575 107.515 155.004C107.732 154.857 107.916 154.665 108.054 154.441C108.124 154.317 108.16 154.178 108.16 154.036C108.16 153.893 108.124 153.754 108.054 153.63" fill="#FF9A6C"/>
<path d="M103.68 150.61C103.94 150.61 103.841 152.331 105.255 153.642C106.668 154.953 108.499 154.87 108.499 155.114C108.499 155.225 108.07 155.425 107.294 155.398C106.284 155.35 105.323 154.95 104.578 154.268C103.87 153.608 103.447 152.699 103.396 151.732C103.345 151.008 103.566 150.583 103.68 150.61Z" fill="#263238"/>
<path d="M104.452 131.192C104.267 131.614 102.696 131.314 100.822 131.428C98.9474 131.543 97.412 131.96 97.1876 131.558C97.0891 131.365 97.3726 130.976 98.0065 130.594C98.8463 130.129 99.7812 129.862 100.74 129.813C101.699 129.765 102.656 129.936 103.538 130.314C104.207 130.629 104.53 130.991 104.452 131.192Z" fill="#263238"/>
<path d="M118.739 132.822C118.44 133.165 117.369 132.728 116.054 132.63C114.739 132.531 113.613 132.728 113.381 132.334C113.279 132.145 113.475 131.795 113.979 131.484C114.659 131.112 115.434 130.951 116.205 131.021C116.976 131.092 117.709 131.39 118.31 131.878C118.743 132.271 118.873 132.653 118.739 132.822Z" fill="#263238"/>
<path d="M129.24 131.83C128.846 130.066 128.019 128.342 126.598 127.224C125.81 126.613 124.889 126.2 124.177 125.515C122.637 124.031 122.456 121.668 121.598 119.712C121.031 118.451 120.172 117.344 119.093 116.482C118.013 115.62 116.743 115.028 115.389 114.755C113.137 114.322 110.735 114.798 108.57 114.046C106.967 113.487 105.629 112.298 103.999 111.837C100.822 110.94 97.6167 112.991 95.0694 115.093C94.8568 117.404 96.5655 119.113 98.2191 120.755C99.0485 121.571 100.045 122.198 101.14 122.593C102.235 122.987 103.402 123.139 104.562 123.038C106.353 122.873 108.365 122.153 109.81 123.227C111.33 124.357 111.184 126.771 112.499 128.149C114.381 130.094 117.763 128.72 120.283 129.724C122.224 130.491 123.303 132.511 124.488 134.232C125.673 135.952 127.527 137.657 129.574 137.24C129.594 135.421 129.622 133.598 129.24 131.83Z" fill="#263238"/>
<path d="M105.857 119.921C104.448 119.377 101.566 118.18 100.9 116.853C99.4552 113.975 96.6441 111.853 93.5889 111.735C92.0054 111.72 90.4593 112.217 89.182 113.153C87.9046 114.089 86.9644 115.414 86.5021 116.928C82.8248 116.633 79.0215 118.625 76.9624 121.944C76.7022 122.361 76.4707 122.795 76.2695 123.243C75.6073 124.208 75.1638 125.305 74.97 126.458C74.7762 127.611 74.8367 128.793 75.1474 129.921C75.5411 131.271 76.2577 132.803 75.4781 133.972C74.6986 135.141 72.9465 135.047 71.541 135.393C70.3372 135.729 69.2898 136.478 68.5817 137.508C67.8736 138.537 67.5498 139.783 67.6669 141.027C67.7771 141.913 68.1157 142.819 67.8558 143.673C67.596 144.528 66.7574 145.138 66.0959 145.791C65.2755 146.613 64.6849 147.635 64.3831 148.757C64.0814 149.878 64.079 151.059 64.3762 152.181C64.6735 153.304 65.2599 154.328 66.0771 155.153C66.8942 155.978 67.9135 156.574 69.033 156.882C70.0488 157.158 71.167 157.213 72.0134 157.843C72.978 158.559 73.3166 159.831 73.9545 160.855C74.5862 161.828 75.4987 162.585 76.571 163.028C77.6433 163.47 78.8247 163.576 79.9586 163.331C80.4119 163.219 80.8477 163.046 81.2539 162.816C81.8602 163.835 82.8839 164.579 84.7383 164.741L86.443 140.524C86.55 140.832 86.7303 141.109 86.9683 141.332C87.2062 141.555 87.4949 141.716 87.8092 141.803C91.6125 143.02 92.8842 135.075 92.207 132.83C93.7228 131.708 95.2543 130.57 96.463 129.078C97.6717 127.586 98.9985 123.354 98.9434 121.389C100.345 121.602 106.467 120.157 105.857 119.921Z" fill="#263238"/>
<path d="M87.3525 142.591C87.443 140.122 84.4823 139.331 82.2342 140.374C81.0019 140.945 79.9901 142.228 79.8719 144.847C79.5452 151.827 86.6202 150.717 86.6438 150.516C86.6517 150.394 87.2304 145.465 87.3525 142.591Z" fill="#FFBF9D"/>
<path d="M84.6319 147.771C84.6004 147.748 84.5059 147.85 84.2933 147.933C83.9986 148.043 83.6725 148.035 83.3839 147.909C82.6594 147.606 82.0925 146.405 82.1161 145.153C82.1291 144.554 82.2743 143.965 82.5413 143.429C82.6163 143.213 82.7426 143.019 82.9093 142.864C83.0759 142.708 83.278 142.595 83.498 142.535C83.6397 142.506 83.7871 142.526 83.9154 142.593C84.0437 142.66 84.1452 142.769 84.2028 142.901C84.2855 143.102 84.2343 143.24 84.2697 143.256C84.3051 143.271 84.4272 143.145 84.3839 142.862C84.3523 142.686 84.2621 142.527 84.128 142.409C83.9429 142.256 83.7057 142.182 83.4665 142.2C83.1767 142.243 82.9026 142.359 82.6709 142.539C82.4392 142.718 82.2576 142.954 82.1437 143.224C81.8179 143.814 81.6422 144.475 81.6318 145.149C81.6082 146.559 82.2697 147.905 83.2657 148.248C83.4499 148.312 83.6461 148.333 83.8397 148.311C84.0333 148.288 84.2193 148.222 84.3839 148.118C84.5965 147.937 84.6556 147.783 84.6319 147.771Z" fill="#FF9A6C"/>
<path d="M96.4315 117.196C96.4748 117.275 95.711 117.334 94.9394 118.235C94.1677 119.137 93.7582 120.917 94.0023 123.003L94.0259 123.18L93.8527 123.208C92.8293 123.388 91.8611 123.801 91.0233 124.415C90.1855 125.03 89.5006 125.829 89.0218 126.751C88.7591 127.274 88.5861 127.837 88.51 128.417C88.472 129.037 88.4904 129.659 88.5651 130.275C88.6457 130.94 88.6759 131.61 88.6557 132.279C88.6421 133.01 88.3843 133.716 87.9234 134.283C86.943 135.523 85.4942 136.047 84.2422 136.571C83.0106 136.99 81.8561 137.608 80.8247 138.401C79.1161 139.808 78.0045 141.81 77.7144 144.004C77.5332 145.486 77.717 146.991 78.2499 148.386C78.6436 149.374 78.9782 149.862 78.9349 149.89C78.8306 149.788 78.7406 149.673 78.6672 149.547C78.4383 149.202 78.2394 148.837 78.0727 148.457C77.4518 147.046 77.2089 145.498 77.3679 143.965C77.6176 141.664 78.746 139.548 80.5176 138.059C81.581 137.22 82.7792 136.567 84.0611 136.13C85.3131 135.606 86.6793 135.078 87.5336 133.984C88.3998 132.996 88.1754 131.586 88.0848 130.322C88.009 129.669 87.9932 129.01 88.0376 128.354C88.1259 127.72 88.3188 127.105 88.6084 126.535C89.1234 125.554 89.861 124.708 90.7622 124.064C91.6634 123.42 92.703 122.996 93.7976 122.826L93.644 123.031C93.4196 120.85 93.9118 118.995 94.7858 118.078C95.1099 117.724 95.5153 117.453 95.9669 117.291C96.1173 117.24 96.2733 117.208 96.4315 117.196Z" fill="#455A64"/>
<path d="M81.8012 150.146C82.3989 149.608 83.1173 149.222 83.8957 149.02L83.7422 148.996C83.8858 148.976 84.0304 148.965 84.1753 148.961C84.439 148.909 84.7106 148.911 84.9733 148.968C85.236 149.025 85.4843 149.135 85.7029 149.291C86.5374 149.676 87.1966 150.36 87.5494 151.209C87.8192 151.957 87.8778 152.765 87.7188 153.544C87.5597 154.323 87.1892 155.044 86.6478 155.626C85.7186 156.642 84.2265 157.233 82.9233 156.807C81.7421 156.414 80.9153 155.233 80.6752 153.969C80.524 153.288 80.548 152.581 80.7449 151.912C80.9419 151.243 81.3053 150.636 81.8012 150.146Z" fill="#455A64"/>
<path d="M56.7925 181.816C56.7925 181.816 26.7207 210.998 26.9924 220.419C26.9765 220.576 26.9448 220.73 26.8979 220.88C25.8034 227.069 30.2996 232.869 36.536 233.656L48.1584 235.101L72.986 203.08L66.2653 185.19L56.7925 181.816Z" fill="#EC6980"/>
<path d="M46.4064 196.187C46.4064 196.187 51.2569 187.982 56.7965 181.816C62.0407 175.985 69.0212 174.336 70.5764 174.249C76.3246 173.977 100.562 175.615 116.109 176.217C121.885 176.45 127.59 179.804 131.366 184.182C139.819 193.986 154.642 211.459 157.618 216.841C161.839 224.463 158.878 241.818 155.918 244.133C152.957 246.448 62.1116 242.507 62.1116 242.507L46.4064 196.187Z" fill="#EC6980"/>
<path d="M148.559 216.86C148.496 216.869 148.433 216.869 148.37 216.86L147.827 216.841L147.433 216.821C147.291 216.821 147.134 216.821 146.969 216.821C146.591 216.821 146.214 216.841 145.839 216.88L145.185 216.947C144.957 216.971 144.724 217.026 144.48 217.065C143.992 217.136 143.488 217.282 142.949 217.416C140.63 218.078 138.491 219.257 136.693 220.864C136.303 221.214 135.931 221.584 135.578 221.971C135.417 222.156 135.248 222.325 135.102 222.502C134.956 222.68 134.827 222.857 134.708 223.022C134.476 223.318 134.259 223.625 134.059 223.943C133.964 224.085 133.874 224.211 133.799 224.337L133.61 224.676C133.5 224.861 133.413 225.018 133.338 225.144C133.263 225.27 133.236 225.306 133.228 225.302C133.245 225.24 133.269 225.181 133.299 225.124C133.366 224.995 133.445 224.833 133.539 224.636L133.716 224.286C133.787 224.16 133.874 224.03 133.96 223.892C134.154 223.564 134.365 223.247 134.594 222.943C134.72 222.77 134.854 222.593 134.988 222.412C135.122 222.231 135.299 222.053 135.46 221.865C135.812 221.468 136.184 221.09 136.575 220.731C138.384 219.09 140.552 217.895 142.905 217.242C143.424 217.102 143.95 216.989 144.48 216.904C144.724 216.868 144.961 216.817 145.193 216.797L145.854 216.742C146.234 216.712 146.615 216.703 146.996 216.715C147.165 216.715 147.319 216.715 147.465 216.715L147.858 216.75L148.402 216.809C148.456 216.819 148.509 216.836 148.559 216.86Z" fill="#263238"/>
<path d="M68.285 215.624C68.251 215.537 68.2272 215.445 68.2141 215.352L68.0448 214.565C67.8913 213.88 67.6511 212.892 67.2928 211.683C66.3425 208.546 65.224 205.463 63.9423 202.447C62.462 198.903 60.9423 195.753 59.7572 193.553C59.4658 192.994 59.1902 192.493 58.9422 192.06C58.6941 191.627 58.4894 191.245 58.3083 190.946L57.9146 190.245C57.8625 190.166 57.8189 190.082 57.7847 189.993C57.8469 190.066 57.9023 190.143 57.95 190.226L58.391 190.907C58.5839 191.198 58.7847 191.572 59.0564 192.001C59.328 192.43 59.5997 192.927 59.8989 193.482C61.4635 196.364 62.8737 199.328 64.1234 202.36C65.4104 205.383 66.5135 208.48 67.4267 211.636C67.7614 212.852 67.9858 213.848 68.1157 214.541C68.1708 214.876 68.2141 215.14 68.2456 215.329C68.2695 215.426 68.2827 215.525 68.285 215.624Z" fill="#263238"/>
<path d="M128.299 190.234C128.302 190.266 128.302 190.299 128.299 190.332V190.619C128.299 190.891 128.299 191.261 128.299 191.73C128.299 192.698 128.24 194.092 128.165 195.817C128.023 199.265 127.724 204.025 127.196 209.27C126.669 214.514 126.015 219.235 125.46 222.656C125.188 224.361 124.952 225.735 124.775 226.684C124.688 227.148 124.618 227.51 124.566 227.778L124.507 228.062C124.504 228.095 124.495 228.127 124.48 228.156C124.478 228.123 124.478 228.09 124.48 228.058C124.48 227.979 124.503 227.884 124.519 227.77C124.559 227.503 124.618 227.136 124.688 226.672C124.838 225.699 125.051 224.31 125.311 222.632C125.818 219.223 126.456 214.498 126.984 209.246C127.511 203.994 127.83 199.254 128.015 195.809C128.098 194.1 128.165 192.71 128.212 191.73C128.236 191.261 128.252 190.887 128.263 190.619C128.263 190.501 128.263 190.407 128.283 190.332C128.284 190.299 128.289 190.266 128.299 190.234Z" fill="#263238"/>
<path d="M111.55 173.351C111.212 173.156 110.83 173.048 110.44 173.036L83.4154 170.076C82.4941 169.973 81.4469 169.906 80.7461 170.513C79.8523 171.28 79.9941 172.702 80.3957 173.812C80.7972 174.922 81.3996 176.048 81.1831 177.206L110.188 179.025C110.007 177.977 110.838 177.056 111.452 176.206C112.066 175.355 112.416 173.962 111.55 173.351Z" fill="#EC6980"/>
<path d="M112.842 178.466C112.739 178.504 112.634 178.533 112.527 178.552L111.605 178.753C111.212 178.84 110.712 178.942 110.137 179.033C109.562 179.123 108.912 179.249 108.168 179.328L107.03 179.473C106.637 179.521 106.215 179.548 105.786 179.588C104.932 179.678 104.011 179.71 103.03 179.757C100.929 179.82 98.8265 179.77 96.7308 179.607C94.636 179.423 92.5528 179.125 90.4905 178.714C89.5456 178.509 88.644 178.32 87.8132 178.092C87.3959 177.981 86.9904 177.887 86.6085 177.773L85.5061 177.446C84.8013 177.245 84.1793 177.013 83.6281 176.828C83.0769 176.643 82.6084 176.462 82.2304 176.308L81.3564 175.958C81.2535 175.92 81.1535 175.875 81.0571 175.824C81.1644 175.847 81.2697 175.879 81.3721 175.918L82.258 176.233C82.6517 176.375 83.1123 176.544 83.6674 176.717C84.2226 176.891 84.8486 177.111 85.5494 177.304L86.6479 177.623C87.0416 177.729 87.4353 177.82 87.8526 177.93C88.6834 178.151 89.585 178.324 90.5299 178.529C94.6413 179.346 98.8323 179.695 103.022 179.568C103.987 179.529 104.904 179.501 105.759 179.418C106.188 179.383 106.601 179.359 106.995 179.316L108.137 179.186C108.861 179.115 109.515 179.001 110.105 178.918C110.696 178.836 111.172 178.749 111.574 178.674L112.499 178.509C112.612 178.484 112.726 178.469 112.842 178.466Z" fill="#263238"/>
<g opacity="0.3">
<path d="M46.7725 207.112C44.1841 207.567 41.771 208.727 39.798 210.463C37.8249 212.199 36.368 214.445 35.5872 216.955C36.9376 216.51 38.225 215.349 39.2093 214.317C41.7724 211.628 44.9339 209.829 48.6269 209.435C51.1703 209.159 53.6035 209.829 55.9815 210.762C57.0563 211.187 58.2572 211.423 59.2178 212.073L60.4895 212.364C57.5012 208.065 51.942 206.277 46.7725 207.112Z" fill="black"/>
</g>
<g opacity="0.3">
<path d="M83.0925 176.568C86.9312 180.048 91.9589 182.521 97.1284 182.895C102.298 183.269 107.251 181.615 111.55 178.718C101.05 180.363 91.4944 179.804 83.0925 176.568Z" fill="black"/>
</g>
<g opacity="0.3">
<path d="M149.043 213.868C148.197 213.333 147.122 213.345 146.126 213.475C139.882 214.215 133.838 218.467 133.22 225.325C135.85 220.239 141.26 216.51 146.965 217.002C147.925 217.085 149.067 217.199 149.681 216.455C150.295 215.711 149.886 214.408 149.043 213.868Z" fill="black"/>
</g>
<path d="M29.3822 246.649L80.5886 246.389C80.5886 246.389 80.25 247.377 82.3721 247.377L99.3017 247.259C99.3017 247.259 100.554 247.377 100.573 246.389C100.573 246.389 140.272 247.058 150.079 247.334C150.811 247.353 152.11 246.908 151.5 245.975L148.079 241.877L91.4393 236.365L51.2806 240.585L37.5006 235.609H37.0439C36.8582 235.608 36.675 235.652 36.5099 235.737C36.3447 235.822 36.2024 235.946 36.095 236.097L29.0082 245.94C28.9616 246.008 28.9344 246.087 28.9297 246.17C28.925 246.252 28.9428 246.334 28.9813 246.407C29.0198 246.48 29.0775 246.541 29.1482 246.584C29.2188 246.626 29.2998 246.649 29.3822 246.649Z" fill="#455A64"/>
<path opacity="0.2" d="M51.0326 245.464L142.256 246.168L120.802 239.522L94.0576 240.274L67.2969 239.208L51.0326 245.464Z" fill="black"/>
<path d="M90.9315 243.66L91.4394 232.436C91.4394 232.436 91.5417 226.262 84.1045 224.203C76.6672 222.144 67.3992 224.766 58.7415 225.235C50.0837 225.703 50.1861 225.046 50.1861 225.046L43.1583 235.896L70.7615 239.92C70.7615 239.92 86.7542 240.853 87.0573 240.948C87.3605 241.042 90.9315 243.66 90.9315 243.66Z" fill="white"/>
<path d="M90.8409 244.058L91.4394 233.511C91.4394 233.511 91.337 227.357 98.7703 225.282C106.204 223.207 115.472 225.841 124.129 226.31C130.189 226.636 132.067 226.581 132.649 226.518C132.73 226.51 132.812 226.523 132.887 226.557C132.961 226.591 133.024 226.644 133.071 226.711L139.716 236.971L112.117 240.995C112.117 240.995 96.1246 241.932 95.8175 242.023C95.5104 242.113 90.8409 244.058 90.8409 244.058Z" fill="white"/>
<path d="M31.1381 245.814L43.1581 235.896C43.1581 235.896 68.0605 231.688 76.5056 233.184C84.9508 234.68 89.7698 237.581 90.9313 243.755L82.8208 245.814C79.4703 244.115 75.7811 243.189 72.0252 243.105C65.9147 243.011 50.6347 245.818 50.6347 245.818L31.1381 245.814Z" fill="#E0E0E0"/>
<path d="M99.5341 245.814L90.9747 243.66C90.9747 243.66 91.585 233.853 105.487 232.215C105.487 232.215 109.424 230.94 123.366 233.558C137.307 236.176 138.748 236.085 138.748 236.085L150.347 246.373C150.347 246.373 143.421 246.936 137.716 245.814C132.011 244.692 122.031 240.853 111.235 241.979C100.44 243.105 99.5341 245.814 99.5341 245.814Z" fill="#E0E0E0"/>
<path d="M43.1582 235.896L49.9616 225.396L37.8943 235.026L30.272 245.814H31.1381L43.1582 235.896Z" fill="#E0E0E0"/>
<path d="M138.701 236.086L133.157 226.77C133.157 226.77 144.201 236.369 144.295 236.641C144.39 236.912 150.311 246.373 150.311 246.373L138.701 236.086Z" fill="#E0E0E0"/>
<path d="M82.3721 245.814H99.4868L90.9314 243.66L90.4826 243.755" fill="#263238"/>
<path d="M90.9313 243.66C90.8723 243.66 90.9313 241.207 91.0573 238.192C91.1833 235.176 91.3369 232.727 91.392 232.731C91.4471 232.735 91.392 235.18 91.2621 238.199C91.1321 241.219 90.9865 243.664 90.9313 243.66Z" fill="#263238"/>
<path d="M55.1507 234.164C55.0755 234.19 54.9975 234.207 54.9184 234.215L54.2373 234.333L51.7096 234.727L43.1739 236.018L43.2212 235.999L41.5794 237.263L33.6107 243.338L31.1815 245.164L30.5121 245.653C30.4363 245.712 30.356 245.766 30.272 245.814C30.3365 245.742 30.4091 245.677 30.4885 245.621L31.1303 245.101L33.5201 243.219L41.4534 237.078L43.0952 235.818H43.1188H43.1425L51.6939 234.617L54.2255 234.278L54.9105 234.199C54.989 234.179 55.0696 234.167 55.1507 234.164Z" fill="#263238"/>
<path d="M89.8054 237.771C89.8054 237.771 89.7778 237.747 89.7306 237.692L89.5219 237.44C89.3408 237.223 89.0652 236.905 88.6833 236.523C87.5992 235.447 86.3563 234.544 84.9982 233.845C82.9794 232.819 80.8085 232.123 78.5688 231.786C75.8222 231.387 73.0486 231.202 70.2733 231.235C65.2272 231.217 60.1877 231.599 55.202 232.377C53.2885 232.676 51.7491 232.971 50.6861 233.184L49.4616 233.432L49.1427 233.495C49.1061 233.5 49.069 233.5 49.0325 233.495L49.1388 233.46L49.4537 233.381C49.7293 233.314 50.1388 233.212 50.6703 233.093C51.7255 232.857 53.2649 232.538 55.1783 232.223C60.1674 231.4 65.2168 230.997 70.2733 231.019C73.0598 230.984 75.8446 231.175 78.6003 231.589C80.8566 231.937 83.0405 232.653 85.0651 233.708C86.4311 234.423 87.6728 235.353 88.7424 236.464C89.0312 236.764 89.3021 237.08 89.5534 237.412L89.7463 237.676C89.7704 237.705 89.7903 237.737 89.8054 237.771Z" fill="#263238"/>
<path d="M89.8054 236.412C89.8054 236.412 89.7778 236.389 89.7345 236.337L89.5416 236.109C89.4589 236.003 89.3526 235.881 89.2227 235.739C89.0928 235.597 88.9471 235.428 88.7699 235.251C87.7731 234.247 86.6383 233.391 85.3997 232.707C83.5531 231.701 81.5604 230.991 79.494 230.601C76.9636 230.138 74.3969 229.903 71.8245 229.896C67.1486 229.801 62.472 230.047 57.832 230.632C56.0484 230.861 54.6153 231.085 53.6232 231.251L52.4853 231.44L52.1861 231.487H52.0837L52.1822 231.459L52.4775 231.392C52.7334 231.337 53.1153 231.254 53.6113 231.164C54.5956 230.975 56.0327 230.727 57.8123 230.483C62.4565 229.854 67.143 229.591 71.8285 229.695C74.4121 229.702 76.9898 229.945 79.5295 230.42C81.6084 230.822 83.61 231.553 85.4588 232.585C86.703 233.282 87.8341 234.163 88.8132 235.199C88.9865 235.385 89.1361 235.55 89.2581 235.703C89.3802 235.857 89.4865 235.979 89.5613 236.097L89.7385 236.341C89.7636 236.362 89.7861 236.386 89.8054 236.412Z" fill="#263238"/>
<path d="M89.8054 235.03C89.8054 235.03 89.7778 235.011 89.7345 234.959L89.5455 234.731C89.4642 234.623 89.3579 234.501 89.2266 234.365C89.0954 234.228 88.9458 234.067 88.7778 233.881C87.7945 232.883 86.6728 232.031 85.447 231.353C83.6258 230.349 81.6582 229.637 79.6161 229.243C77.1109 228.78 74.569 228.544 72.0214 228.538C67.3898 228.433 62.7567 228.665 58.1587 229.231C56.391 229.447 54.9697 229.664 53.9854 229.825L52.8554 230.01L52.5601 230.054C52.5264 230.061 52.4915 230.061 52.4578 230.054L52.5562 230.026L52.8475 229.963C53.1074 229.912 53.4854 229.829 53.9736 229.739C54.95 229.554 56.3713 229.314 58.139 229.077C62.7428 228.469 67.3867 228.218 72.0292 228.325C74.5876 228.337 77.1393 228.586 79.6515 229.069C81.71 229.476 83.6904 230.208 85.5178 231.239C86.7475 231.935 87.8662 232.811 88.8368 233.837C89.0101 234.018 89.1518 234.184 89.2739 234.333C89.3959 234.483 89.4983 234.609 89.577 234.727L89.7503 234.967C89.7708 234.986 89.7893 235.007 89.8054 235.03Z" fill="#263238"/>
<path d="M89.8054 233.656C89.8054 233.656 89.7778 233.636 89.7345 233.585L89.5494 233.361C89.388 233.164 89.1557 232.876 88.8053 232.526C86.4223 230.068 83.3667 228.368 80.0216 227.64C77.7774 227.14 75.238 227.116 72.5844 227.152C67.2692 227.183 62.462 227.412 59.0013 227.778C57.2689 227.951 55.8515 228.136 54.9106 228.282L53.8003 228.447L53.509 228.487C53.4764 228.493 53.4431 228.493 53.4105 228.487C53.4426 228.476 53.4756 228.468 53.509 228.463L53.7924 228.4C54.0444 228.353 54.4145 228.278 54.8948 228.199C55.8555 228.03 57.2571 227.805 58.9855 227.628C63.5041 227.175 68.043 226.953 72.5844 226.963C75.234 226.931 77.7971 226.963 80.0649 227.475C82.0749 227.908 83.9875 228.709 85.7068 229.837C86.8657 230.583 87.9242 231.475 88.8565 232.491C89.1104 232.767 89.3496 233.056 89.5731 233.357L89.7463 233.593C89.7677 233.612 89.7875 233.633 89.8054 233.656Z" fill="#263238"/>
<path d="M89.8055 232.29C89.8055 232.29 89.7818 232.29 89.7385 232.219L89.5535 231.995C89.396 231.798 89.1598 231.507 88.8369 231.144C87.9397 230.119 86.9187 229.209 85.7975 228.436C85.0244 227.906 84.1968 227.462 83.3289 227.109C82.3253 226.715 81.2846 226.424 80.2225 226.239C77.7816 225.831 75.305 225.678 72.8325 225.782C67.5607 225.939 62.8046 226.447 59.3557 226.715C57.6312 226.853 56.2375 226.955 55.269 227.01L54.1587 227.066H53.8673L54.1548 227.038L55.265 226.943L59.3439 226.581C62.7889 226.278 67.5449 225.747 72.8286 225.589C75.317 225.48 77.8099 225.634 80.2658 226.05C81.3436 226.242 82.399 226.545 83.4155 226.951C84.2923 227.314 85.1267 227.773 85.9038 228.318C87.0265 229.106 88.0405 230.04 88.9196 231.093C89.2346 231.463 89.4629 231.763 89.6086 231.971L89.7779 232.207C89.7894 232.234 89.7986 232.262 89.8055 232.29Z" fill="#263238"/>
<path d="M92.2778 237.397C92.2778 237.397 92.2975 237.361 92.3408 237.302L92.5377 237.046C92.7955 236.717 93.073 236.405 93.3684 236.109C94.4582 235.023 95.7158 234.119 97.0929 233.432C99.1369 232.414 101.334 231.738 103.597 231.432C106.358 231.068 109.144 230.929 111.928 231.014C116.986 231.086 122.028 231.581 127.003 232.495C128.909 232.849 130.44 233.196 131.496 233.452C132.023 233.578 132.429 233.688 132.704 233.759L133.015 233.845C133.052 233.852 133.088 233.864 133.122 233.881C133.085 233.887 133.048 233.887 133.011 233.881L132.692 233.814L131.476 233.542C130.417 233.314 128.885 232.987 126.976 232.656C122.005 231.784 116.974 231.309 111.928 231.235C109.154 231.147 106.378 231.279 103.625 231.629C101.379 231.925 99.1948 232.579 97.1559 233.566C95.7847 234.238 94.5257 235.119 93.4235 236.176C93.0298 236.55 92.7542 236.861 92.5692 237.078L92.3566 237.326L92.2778 237.397Z" fill="#263238"/>
<path d="M92.3015 236.018L92.3606 235.932L92.5417 235.692C92.6204 235.585 92.7267 235.459 92.8527 235.298C92.9787 235.137 93.1283 234.983 93.3055 234.806C94.3046 233.786 95.453 232.925 96.7111 232.251C98.5766 231.251 100.59 230.557 102.676 230.195C105.224 229.767 107.805 229.572 110.389 229.613C115.076 229.6 119.757 229.952 124.389 230.668C126.165 230.943 127.594 231.219 128.578 231.428C129.07 231.526 129.448 231.617 129.708 231.676L130 231.747C130.033 231.754 130.066 231.764 130.098 231.778C130.064 231.783 130.03 231.783 129.996 231.778L129.7 231.727L128.562 231.518C127.574 231.333 126.145 231.081 124.366 230.821C119.737 230.151 115.066 229.819 110.389 229.829C107.818 229.788 105.249 229.976 102.711 230.392C100.641 230.743 98.639 231.416 96.778 232.388C95.5249 233.047 94.3738 233.884 93.3606 234.873C93.1795 235.046 93.0259 235.207 92.9 235.349C92.774 235.491 92.6559 235.613 92.5732 235.715L92.3763 235.94L92.3015 236.018Z" fill="#263238"/>
<path d="M92.3291 234.657C92.3291 234.657 92.3291 234.625 92.3842 234.57L92.5653 234.334C92.6604 234.197 92.7629 234.065 92.8724 233.94C93.0137 233.769 93.1635 233.604 93.3213 233.448C94.3099 232.439 95.4446 231.584 96.6875 230.912C98.5327 229.913 100.527 229.218 102.593 228.853C105.115 228.414 107.672 228.211 110.231 228.247C114.875 228.225 119.514 228.562 124.106 229.255C125.866 229.522 127.283 229.79 128.255 229.991C128.744 230.089 129.122 230.18 129.377 230.235L129.665 230.306C129.699 230.311 129.733 230.321 129.763 230.337C129.729 230.343 129.695 230.343 129.661 230.337L129.37 230.29L128.24 230.082C127.263 229.904 125.842 229.66 124.082 229.412C119.494 228.761 114.865 228.444 110.231 228.463C107.685 228.43 105.14 228.626 102.629 229.05C100.58 229.407 98.5989 230.081 96.7584 231.05C95.5202 231.707 94.3826 232.539 93.3803 233.519C93.2031 233.688 93.0496 233.849 92.9236 233.991C92.7976 234.133 92.6834 234.251 92.6008 234.349L92.4039 234.578C92.3567 234.633 92.333 234.66 92.3291 234.657Z" fill="#263238"/>
<path d="M92.3528 232.29C92.6403 231.881 92.9716 231.505 93.341 231.168C94.3533 230.25 95.5177 229.516 96.7821 228.999C97.6451 228.629 98.5269 228.304 99.4239 228.026C100.446 227.681 101.49 227.406 102.55 227.203C104.802 226.782 107.326 226.81 109.94 226.9C115.192 227.065 119.909 227.715 123.326 228.113L127.366 228.601L128.464 228.731L128.748 228.77L128.846 228.79H128.748H128.46L127.358 228.695C126.401 228.609 125.015 228.463 123.31 228.274C119.893 227.908 115.18 227.286 109.944 227.121C107.326 227.038 104.826 226.999 102.593 227.404C101.54 227.598 100.501 227.861 99.4829 228.191C98.5183 228.491 97.6325 228.802 96.845 229.136C95.5888 229.639 94.4246 230.347 93.4001 231.231C93.2405 231.37 93.0881 231.517 92.9434 231.672C92.8303 231.778 92.7238 231.891 92.6244 232.011L92.4315 232.227C92.3803 232.27 92.3567 232.294 92.3528 232.29Z" fill="#263238"/>
<path d="M109.456 235.861V242.523L111.664 240.527L113.826 242.42L113.952 235.932C113.952 235.932 110.4 235.743 109.456 235.861Z" fill="#EC6980"/>
<path d="M134.429 239.731L134.315 239.712L133.988 239.637L132.74 239.338C131.653 239.078 130.078 238.719 128.122 238.334C126.165 237.948 123.826 237.546 121.22 237.113L117.137 236.44C115.682 236.182 114.212 236.024 112.735 235.967C111.258 235.905 109.777 235.926 108.302 236.03C106.929 236.115 105.565 236.318 104.227 236.637C101.961 237.197 99.8349 238.22 97.9828 239.641C97.2745 240.187 96.6012 240.778 95.967 241.409C95.4001 241.964 94.9394 242.468 94.5654 242.881L93.7189 243.846L93.4985 244.098C93.4473 244.153 93.4197 244.18 93.4158 244.176L93.4827 244.082L93.6874 243.822C93.8685 243.59 94.1441 243.255 94.5064 242.83C94.8686 242.405 95.3253 241.893 95.8844 241.33C96.5127 240.685 97.1835 240.082 97.8923 239.527C99.7529 238.071 101.899 237.025 104.192 236.456C105.539 236.127 106.914 235.917 108.298 235.83C109.781 235.722 111.269 235.7 112.755 235.763C114.239 235.819 115.718 235.98 117.18 236.243L121.263 236.928C123.866 237.365 126.208 237.786 128.161 238.192C130.114 238.597 131.704 238.979 132.771 239.259C133.311 239.397 133.728 239.515 134.012 239.597L134.33 239.692C134.365 239.7 134.398 239.713 134.429 239.731Z" fill="#263238"/>
<path d="M88.0061 244.287C88.0061 244.287 87.9707 244.255 87.9077 244.188L87.636 243.889C87.514 243.759 87.3722 243.59 87.1911 243.405C87.01 243.22 86.7974 243.011 86.5533 242.775C85.1606 241.472 83.5865 240.378 81.8799 239.527C79.3437 238.276 76.62 237.449 73.8167 237.078C70.3789 236.657 66.9012 236.682 63.4699 237.153C59.8123 237.605 56.3831 238.334 53.2334 238.979C50.0837 239.625 47.2765 240.184 44.8788 240.531C42.9883 240.812 41.0838 240.991 39.1739 241.066C38.4967 241.086 37.9691 241.094 37.599 241.086C37.9534 241.086 38.477 241.062 39.1542 241.031C41.0582 240.925 42.9557 240.724 44.8394 240.428C47.2292 240.07 50.0522 239.499 53.1782 238.853C56.3043 238.208 59.7532 237.46 63.4148 237.007C66.8635 236.535 70.3589 236.515 73.8127 236.948C76.6347 237.331 79.3737 238.179 81.9193 239.456C83.6342 240.304 85.2143 241.401 86.6084 242.712L87.2384 243.357C87.4155 243.55 87.5494 243.724 87.6675 243.857L87.9274 244.168C87.9594 244.204 87.986 244.243 88.0061 244.287Z" fill="#263238"/>
<path d="M88.0061 245.668C88.0061 245.668 87.9707 245.637 87.9077 245.57L87.636 245.271C87.514 245.141 87.3722 244.971 87.1911 244.786L86.5533 244.156C85.1596 242.855 83.5856 241.761 81.8799 240.908C79.3437 239.658 76.62 238.831 73.8167 238.459C70.3789 238.038 66.9012 238.064 63.4699 238.534C59.8123 238.987 56.3831 239.715 53.2334 240.361C50.0837 241.007 47.2765 241.57 44.8788 241.912C42.9883 242.195 41.0839 242.375 39.1739 242.452C38.4967 242.452 37.9691 242.475 37.599 242.452C37.9534 242.452 38.477 242.428 39.1542 242.396C41.0581 242.293 42.9556 242.093 44.8394 241.798C47.2292 241.436 50.0522 240.869 53.1782 240.203C56.3043 239.538 59.7532 238.814 63.4148 238.357C66.8635 237.885 70.3589 237.866 73.8127 238.298C76.6342 238.683 79.373 239.531 81.9193 240.806C83.6285 241.676 85.1994 242.794 86.5808 244.125L87.2108 244.771C87.388 244.963 87.5218 245.137 87.6399 245.271L87.8998 245.585C87.9825 245.629 88.01 245.664 88.0061 245.668Z" fill="#263238"/>
<path d="M83.9587 244.495C83.8822 244.447 83.8097 244.393 83.7422 244.334C83.6005 244.227 83.4075 244.05 83.1319 243.853C82.376 243.28 81.574 242.771 80.7342 242.33C79.4884 241.675 78.1765 241.155 76.8207 240.778C75.1599 240.319 73.4571 240.027 71.7379 239.908C68.6053 239.752 65.465 239.909 62.3636 240.377L59.5367 240.771L58.7493 240.877C58.6603 240.887 58.5705 240.887 58.4816 240.877C58.5675 240.848 58.6558 240.827 58.7454 240.814L59.5092 240.672C60.1706 240.55 61.1313 240.385 62.3281 240.208C65.4373 239.7 68.5915 239.523 71.7379 239.68C73.4705 239.798 75.186 240.098 76.8562 240.574C78.2232 240.962 79.5434 241.5 80.7933 242.176C81.627 242.628 82.4178 243.155 83.1556 243.751C83.4233 243.96 83.6083 244.145 83.7422 244.263C83.8247 244.33 83.8976 244.408 83.9587 244.495Z" fill="#263238"/>
<path d="M68.8008 216.632L82.7068 213.628C82.7068 213.628 87.9195 212.577 88.9274 213.132C89.9353 213.687 95.7426 218.333 96.2426 218.766C96.7426 219.199 102.294 225.853 102.294 225.853C102.294 225.853 102.168 227.959 99.1207 227.113C97.5458 226.68 90.8842 220.853 90.8842 220.853L89.3212 219.624C89.3212 219.624 91.7504 223.388 91.7031 224.625C91.6559 225.861 90.1086 228.329 89.5771 228.668C89.0455 229.007 86.384 228.542 86.384 228.542C86.384 228.542 84.4942 230.581 83.0099 228.975C83.0099 228.975 80.4784 231.609 78.4232 230.081L77.3208 227.92L76.2696 227.105C76.2696 227.105 76.1081 228.593 75.0884 228.759C74.0687 228.924 62.6313 226.459 62.6313 226.459L66.5685 215.699L68.8008 216.632Z" fill="#FFBF9D"/>
<path d="M83.5847 220.439C83.701 220.494 83.8085 220.565 83.9036 220.652C84.1004 220.805 84.38 221.046 84.691 221.333C85.5517 222.116 86.3205 222.994 86.9824 223.951C87.1654 224.234 87.316 224.536 87.4312 224.853C87.5584 225.15 87.5981 225.478 87.5454 225.798C87.4724 226.32 87.3322 226.831 87.1281 227.317C87.0016 227.648 86.8392 227.963 86.6438 228.258C86.5765 228.37 86.4866 228.467 86.38 228.542C86.38 228.542 86.4588 228.428 86.5769 228.215C86.744 227.91 86.8837 227.592 86.9942 227.262C87.1734 226.783 87.2962 226.285 87.3604 225.778C87.3741 225.635 87.3741 225.492 87.3604 225.349C87.3337 225.203 87.2942 225.059 87.2422 224.92C87.1267 224.619 86.9802 224.332 86.8052 224.061C86.1522 223.124 85.4127 222.25 84.5965 221.451C83.9823 220.817 83.565 220.463 83.5847 220.439Z" fill="#FF9A6C"/>
<path d="M76.4073 221.676C76.5416 221.606 76.6867 221.559 76.8365 221.538C77.2412 221.45 77.6582 221.432 78.0688 221.487C79.4352 221.688 80.6673 222.419 81.4981 223.522C81.9289 224.138 82.2548 224.82 82.4627 225.542C82.6366 226.122 82.7682 226.714 82.8564 227.314C82.9351 227.822 82.9784 228.239 83.002 228.526C83.0201 228.675 83.0201 228.826 83.002 228.975C82.9666 228.975 82.8957 228.345 82.7028 227.337C82.5892 226.749 82.442 226.168 82.2619 225.597C82.0527 224.894 81.7324 224.23 81.313 223.629C80.8729 223.052 80.3212 222.57 79.6909 222.211C79.1757 221.914 78.6118 221.712 78.0255 221.613C77.486 221.553 76.9406 221.574 76.4073 221.676Z" fill="#FF9A6C"/>
<path d="M84.6438 216.352C84.6438 216.352 84.7225 216.313 84.88 216.278C84.9772 216.258 85.0764 216.252 85.1753 216.258C85.3079 216.256 85.4401 216.27 85.569 216.301C86.302 216.49 86.9777 216.855 87.5376 217.364C88.1068 217.844 88.617 218.39 89.0573 218.99C89.2593 219.225 89.4216 219.491 89.5377 219.778C89.3198 219.561 89.116 219.331 88.9274 219.089C88.4584 218.522 87.9435 217.996 87.388 217.514C86.8507 217.026 86.2159 216.659 85.5257 216.435C85.2352 216.378 84.9398 216.35 84.6438 216.352Z" fill="#FF9A6C"/>
<path d="M66.3597 214.242L59.3989 211.53L46.5835 212.187L40.1975 220.802L37.6344 233.208C37.6344 233.208 61.1036 228.054 61.8477 227.983C62.5919 227.912 63.7888 226.707 63.7888 226.707L66.2928 227.231L69.5015 216.483L66.3597 214.242Z" fill="#EC6980"/>
<path d="M70.5528 215.908L70.4583 215.884L70.1906 215.786L69.1552 215.392L65.3716 213.931L59.769 211.742L56.4658 210.439C55.2989 209.945 54.0991 209.534 52.8751 209.207C51.6512 208.89 50.3809 208.793 49.123 208.919C47.9533 209.041 46.8052 209.319 45.7095 209.746C43.852 210.49 42.1141 211.504 40.5519 212.754C39.2015 213.801 38.1896 214.722 37.4613 215.372L36.6423 216.108L36.4258 216.293C36.3746 216.337 36.347 216.356 36.347 216.352C36.3647 216.326 36.3859 216.302 36.41 216.282L36.6148 216.077L37.4022 215.313C38.0991 214.66 39.1109 213.707 40.4535 212.64C42.0159 211.363 43.7611 210.328 45.6308 209.569C46.7422 209.131 47.9076 208.845 49.0955 208.718C50.3755 208.59 51.6681 208.687 52.9145 209.006C54.1488 209.335 55.358 209.752 56.5327 210.254L59.832 211.569L65.4188 213.797L69.1788 215.317L70.1985 215.742L70.4583 215.856L70.5528 215.908Z" fill="#263238"/>
<path d="M127.684 234.778C127.405 234.31 127.291 233.645 127.972 232.845L129.846 232.011C130.06 231.43 130.37 230.89 130.763 230.412C131.244 229.975 131.944 229.416 131.944 229.416C131.944 229.416 132.98 227.983 133.976 227.385C134.972 226.786 137.405 226.148 138.244 225.416C139.082 224.684 141.712 222.384 143.547 223.262C145.382 224.14 146.697 227.223 148.13 227.873C149.563 228.522 150.098 230.676 150.642 231.554C151.185 232.432 151.799 233.07 151.878 233.747C151.957 234.424 153.512 235.782 153.791 237.613C154.071 239.444 153.914 240.086 153.075 240.763C152.236 241.44 150.602 242.798 148.968 243.039C148.051 243.172 146.795 243.255 145.87 243.302C145.502 243.321 145.138 243.231 144.822 243.041C144.506 242.852 144.254 242.573 144.098 242.239L143.984 241.999C143.984 241.999 139.799 244.113 137.807 243.834C135.815 243.554 136.626 241.842 136.626 241.842C136.626 241.842 134.59 243.81 133.314 243.436C132.039 243.062 131.346 243.117 131.244 241.999C131.141 240.881 132.078 239.605 132.078 239.605C132.078 239.605 130.165 239.649 130.007 238.373C129.953 237.466 130.13 236.559 130.523 235.739L128.988 235.566C128.725 235.543 128.47 235.46 128.245 235.323C128.019 235.187 127.827 235.001 127.684 234.778Z" fill="#FFBF9D"/>
<path d="M138.397 226.235C138.35 226.391 138.287 226.543 138.208 226.687C138.128 226.863 138.036 227.032 137.933 227.195C137.807 227.416 137.669 227.631 137.519 227.837C137.132 228.376 136.704 228.886 136.24 229.361C135.72 229.896 135.122 230.459 134.484 231.038C133.846 231.617 133.256 232.176 132.736 232.707C132.279 233.176 131.857 233.677 131.472 234.207C130.818 235.121 130.567 235.782 130.523 235.754C130.567 235.597 130.626 235.444 130.7 235.298C130.77 235.117 130.856 234.943 130.956 234.778C131.075 234.553 131.206 234.335 131.35 234.125C131.725 233.576 132.144 233.059 132.602 232.577C133.114 232.034 133.712 231.467 134.346 230.888C134.98 230.309 135.582 229.754 136.106 229.231C136.57 228.767 137.003 228.272 137.401 227.75C138.075 226.857 138.358 226.211 138.397 226.235Z" fill="#FF9A6C"/>
<path d="M143.59 227.963C143.581 228.019 143.563 228.073 143.539 228.125C143.5 228.231 143.441 228.38 143.354 228.573C143.112 229.114 142.837 229.64 142.531 230.148C141.522 231.847 140.183 233.328 138.594 234.503C137.677 235.204 136.763 235.81 135.948 236.373C135.133 236.936 134.409 237.463 133.834 237.948C133.377 238.317 132.941 238.712 132.527 239.129C132.387 239.295 132.236 239.452 132.074 239.597C132.189 239.411 132.321 239.235 132.468 239.074C132.862 238.626 133.287 238.206 133.74 237.818C134.311 237.326 135.027 236.782 135.838 236.207C136.649 235.633 137.559 235.026 138.468 234.329C139.325 233.686 140.116 232.959 140.831 232.16C141.409 231.503 141.936 230.801 142.405 230.062C142.799 229.428 143.086 228.88 143.279 228.518C143.369 228.326 143.473 228.14 143.59 227.963Z" fill="#FF9A6C"/>
<path d="M144.232 228.459C144.268 228.503 143.968 228.834 143.555 229.196C143.142 229.558 142.768 229.818 142.744 229.774C142.72 229.731 143.008 229.404 143.421 229.042C143.651 228.797 143.926 228.599 144.232 228.459Z" fill="#FF9A6C"/>
<path d="M146.713 233.262C146.679 233.437 146.625 233.608 146.551 233.77C146.373 234.223 146.143 234.654 145.866 235.054C144.926 236.358 143.733 237.46 142.358 238.294C140.783 239.302 139.315 240.129 138.287 240.782C137.771 241.105 137.358 241.377 137.075 241.57C136.933 241.677 136.783 241.771 136.626 241.853C136.744 241.724 136.876 241.607 137.019 241.507C137.291 241.294 137.693 241.007 138.201 240.664C139.212 239.975 140.677 239.129 142.24 238.125C143.593 237.303 144.78 236.234 145.74 234.975C146.11 234.432 146.436 233.859 146.713 233.262Z" fill="#FF9A6C"/>
<path d="M150.788 235.857C150.749 235.975 150.695 236.088 150.626 236.192C150.516 236.4 150.335 236.692 150.099 237.042C149.47 237.952 148.745 238.791 147.937 239.546C147.491 239.959 147.022 240.345 146.532 240.704C146.126 240.992 145.702 241.255 145.264 241.491C145.079 241.593 144.906 241.672 144.752 241.743C144.598 241.814 144.465 241.869 144.358 241.908C144.247 241.963 144.127 241.999 144.004 242.015C144.004 241.983 144.476 241.786 145.185 241.361C145.608 241.113 146.016 240.842 146.409 240.55C146.85 240.216 147.323 239.83 147.791 239.397C148.586 238.646 149.316 237.83 149.973 236.956C150.48 236.286 150.74 235.841 150.788 235.857Z" fill="#FF9A6C"/>
<path d="M131.492 231.349C130.934 231.656 130.354 231.919 129.755 232.136C129.177 232.406 128.581 232.638 127.972 232.829C127.94 232.766 128.7 232.357 129.677 231.947C130.653 231.538 131.468 231.294 131.492 231.349Z" fill="#FF9A6C"/>
<path d="M132.629 224.038C133.313 224.017 133.996 224.038 134.677 224.101C133.312 224.19 131.943 224.19 130.578 224.101C131.26 224.038 131.945 224.016 132.629 224.038Z" fill="#EC6980"/>
</svg>
