<svg width="108" height="100" viewBox="0 0 108 100" fill="none" xmlns="http://www.w3.org/2000/svg">
<path d="M103.432 21.034L102.784 19.9586C97.3005 10.8667 87.4131 5.38795 76.9872 6.05466C75.6429 6.13269 74.3062 6.31241 72.9885 6.59232C63.509 8.63813 55.261 15.867 51.8435 25.1256C49.8308 30.5694 49.271 36.8386 45.4456 41.1614C40.4819 46.7854 32.05 46.9601 24.6525 46.7289C17.2549 46.4977 8.80436 46.694 3.85932 52.3395C0.772342 55.8907 -0.211333 60.934 0.0365848 65.6547C0.6977 78.193 9.36684 89.406 20.3792 94.9789C31.3916 100.552 44.3713 101.049 56.4287 98.5974C73.3218 95.1644 89.3885 85.7338 99.044 71.1765C108.699 56.6193 111.144 36.7553 103.432 21.034Z" fill="#FFEFE3"/>
<path d="M49.7641 0.00611321C49.9347 0.00402573 49.9347 0.00402573 50.1087 0.00189609C50.4839 -0.00159407 50.8588 0.000712625 51.2339 0.00339874C51.495 0.00286366 51.7561 0.00209281 52.0172 0.00109629C52.5642 -7.40817e-05 53.111 0.00162562 53.6579 0.00533765C54.3587 0.00986265 55.0593 0.00725708 55.7601 0.00250048C56.2992 -0.000370341 56.8382 0.000544494 57.3773 0.00260197C57.6356 0.00313148 57.894 0.00248254 58.1524 0.00063277C58.5137 -0.00138634 58.8746 0.00169181 59.2359 0.00611321C59.5441 0.00706097 59.5441 0.00706097 59.8586 0.00802788C60.3769 0.108875 60.3769 0.108875 60.7559 0.473663C60.9815 0.851601 61.106 1.09507 61.1718 1.52261C61.2004 1.69593 61.2004 1.69593 61.2295 1.87276C61.2471 1.99522 61.2647 2.11767 61.2828 2.24384C61.303 2.37166 61.3233 2.49947 61.3441 2.63116C61.4079 3.03759 61.4682 3.44447 61.5285 3.85143C61.5713 4.1256 61.6143 4.39973 61.6575 4.67384C61.9653 6.65476 61.9653 6.65476 61.9653 7.41529C62.1141 7.44273 62.263 7.47017 62.4163 7.49843C65.5856 8.1367 68.5307 9.49425 71.3365 11.0685C71.5474 11.1761 71.7587 11.2831 71.9719 11.3862C72.1295 11.267 72.2872 11.1478 72.4496 11.0251C76.9694 7.61719 76.9694 7.61719 77.7197 7.48478C78.3502 7.57781 78.4549 7.63285 78.8998 8.03834C79.011 8.13964 79.1222 8.24095 79.2367 8.34532C79.8928 8.96747 80.5351 9.60259 81.1738 10.2427C81.3926 10.4613 81.3926 10.4613 81.6159 10.6843C81.9219 10.9902 82.2277 11.2963 82.5333 11.6026C82.9251 11.9953 83.3177 12.3874 83.7104 12.7792C84.0863 13.1543 84.4616 13.5301 84.8369 13.9058C84.978 14.0466 85.1191 14.1874 85.2645 14.3325C85.394 14.4624 85.5234 14.5924 85.6568 14.7262C85.7711 14.8407 85.8854 14.9552 86.0032 15.0731C86.359 15.4561 86.4211 15.6402 86.4935 16.1661C86.4006 17.0186 86.0197 17.4726 85.5026 18.1367C85.4102 18.2598 85.3177 18.3829 85.2224 18.5098C85.0314 18.764 84.8394 19.0174 84.6464 19.2701C84.2088 19.8459 83.7842 20.431 83.3584 21.0156C83.1105 21.3533 82.8622 21.6907 82.6138 22.0281C82.666 22.1192 82.7182 22.2104 82.772 22.3042C84.5078 25.4041 85.8527 28.5556 86.5847 32.0347C86.8107 32.0581 86.8107 32.0581 87.0414 32.0819C88.4693 32.2358 89.8909 32.4299 91.3101 32.6502C91.4745 32.6739 91.6389 32.6976 91.8083 32.722C91.9641 32.7471 92.1199 32.7721 92.2804 32.7979C92.4188 32.8192 92.5572 32.8404 92.6997 32.8623C93.2243 33.028 93.5023 33.2317 93.8911 33.6231C93.992 34.1414 93.992 34.1414 93.9939 34.7641C93.996 34.9347 93.996 34.9347 93.9981 35.1087C94.0016 35.4839 93.9993 35.8588 93.9966 36.2339C93.9971 36.495 93.9979 36.7561 93.9989 37.0172C94.0001 37.5642 93.9984 38.111 93.9947 38.6579C93.9901 39.3587 93.9927 40.0593 93.9975 40.7601C94.0004 41.2992 93.9995 41.8382 93.9974 42.3773C93.9969 42.6356 93.9975 42.894 93.9994 43.1524C94.0014 43.5137 93.9983 43.8746 93.9939 44.2359C93.9932 44.4414 93.9926 44.6468 93.992 44.8586C93.8911 45.3769 93.8911 45.3769 93.5251 45.7559C92.9718 46.0872 92.4312 46.1889 91.8033 46.2828C91.681 46.303 91.5588 46.3233 91.4328 46.3441C91.0448 46.4079 90.6563 46.4682 90.2677 46.5285C90.0034 46.5712 89.7392 46.6143 89.4751 46.6575C88.8297 46.7627 88.1839 46.8648 87.5377 46.9653C87.6214 47.0372 87.705 47.1092 87.7912 47.1833C91.1323 50.0779 93.3173 53.9909 93.8911 58.4014C93.9419 59.1993 93.9518 59.9944 93.9507 60.7938C93.9506 60.9565 93.9506 60.9565 93.9504 61.1225C93.944 62.8764 93.803 64.5098 93.2558 66.1843C93.2047 66.3464 93.2047 66.3464 93.1526 66.5117C92.4252 68.7707 91.3216 70.7428 89.7614 72.5377C89.6523 72.6679 89.5431 72.7982 89.4307 72.9323C86.6507 76.1581 82.4666 78.5624 78.1664 78.8911C75.5779 79.0278 73.0266 79.061 70.5424 78.2558C70.38 78.2047 70.38 78.2047 70.2143 78.1526C67.1002 77.1496 64.2972 75.3089 62.1241 72.8554C62.0717 72.7505 62.0193 72.6457 61.9653 72.5377C61.9397 72.702 61.9142 72.8662 61.8878 73.0354C61.7921 73.6471 61.693 74.2582 61.593 74.8692C61.5502 75.1333 61.5083 75.3975 61.4673 75.6619C61.4081 76.0428 61.3457 76.423 61.2828 76.8033C61.2652 76.9208 61.2476 77.0383 61.2295 77.1594C61.1013 77.9088 60.9248 78.3621 60.3769 78.8911C59.8586 78.992 59.8586 78.992 59.2359 78.9939C59.0653 78.996 59.0653 78.996 58.8913 78.9981C58.5161 79.0016 58.1412 78.9993 57.766 78.9966C57.505 78.9971 57.2439 78.9979 56.9828 78.9989C56.4358 79.0001 55.889 78.9984 55.3421 78.9947C54.6413 78.9901 53.9407 78.9927 53.2399 78.9975C52.7008 79.0004 52.1618 78.9995 51.6227 78.9974C51.3644 78.9969 51.106 78.9975 50.8476 78.9994C50.4863 79.0014 50.1254 78.9983 49.7641 78.9939C49.4559 78.9929 49.4559 78.9929 49.1414 78.992C48.6231 78.8911 48.6231 78.8911 48.2441 78.5263C48.0185 78.1484 47.894 77.9049 47.8281 77.4774C47.7996 77.3041 47.7996 77.3041 47.7705 77.1272C47.7529 77.0048 47.7353 76.8823 47.7172 76.7561C47.697 76.6283 47.6767 76.5005 47.6559 76.3688C47.5921 75.9624 47.5318 75.5555 47.4715 75.1486C47.4287 74.8744 47.3857 74.6003 47.3425 74.3262C47.0347 72.3452 47.0347 72.3452 47.0347 71.5847C46.8115 71.5435 46.8115 71.5435 46.5837 71.5016C43.4144 70.8633 40.4693 69.5058 37.6635 67.9315C37.4526 67.8239 37.2413 67.7169 37.0281 67.6138C36.7916 67.7926 36.7916 67.7926 36.5504 67.9749C32.0306 71.3828 32.0306 71.3828 31.2803 71.5152C30.6497 71.4222 30.545 71.3671 30.1001 70.9617C29.9334 70.8097 29.9334 70.8097 29.7633 70.6547C29.1072 70.0325 28.4649 69.3974 27.8262 68.7573C27.6803 68.6116 27.5344 68.4658 27.3841 68.3157C27.0781 68.0098 26.7723 67.7037 26.4667 67.3974C26.0749 67.0047 25.6823 66.6126 25.2896 66.2208C24.9137 65.8457 24.5384 65.4699 24.1631 65.0942C23.9514 64.883 23.9514 64.883 23.7355 64.6675C23.5413 64.4726 23.5413 64.4726 23.3432 64.2738C23.2289 64.1593 23.1146 64.0448 22.9968 63.9269C22.6409 63.5439 22.5789 63.3598 22.5065 62.8339C22.5994 61.9814 22.9803 61.5274 23.4974 60.8633C23.5898 60.7402 23.6823 60.6171 23.7776 60.4902C23.9686 60.236 24.1606 59.9826 24.3536 59.7299C24.7912 59.1541 25.2158 58.569 25.6416 57.9844C25.8895 57.6467 26.1378 57.3093 26.3862 56.9719C26.334 56.8808 26.2817 56.7896 26.228 56.6958C24.4922 53.5959 23.1473 50.4444 22.4153 46.9653C22.1892 46.9419 22.1892 46.9419 21.9586 46.9181C20.5307 46.7642 19.1091 46.5701 17.6899 46.3498C17.5255 46.3261 17.3611 46.3024 17.1917 46.2779C17.0359 46.2529 16.8801 46.2279 16.7196 46.2021C16.5812 46.1808 16.4428 46.1596 16.3003 46.1376C15.7757 45.972 15.4977 45.7683 15.1089 45.3769C15.008 44.8586 15.008 44.8586 15.0061 44.2359C15.0047 44.1222 15.0033 44.0085 15.0019 43.8913C14.9984 43.5161 15.0007 43.1412 15.0034 42.766C15.0029 42.505 15.0021 42.2439 15.0011 41.9828C14.9999 41.4358 15.0016 40.889 15.0053 40.3421C15.0099 39.6413 15.0073 38.9407 15.0025 38.2399C14.9996 37.7008 15.0005 37.1618 15.0026 36.6227C15.0031 36.3644 15.0025 36.106 15.0006 35.8476C14.9986 35.4863 15.0017 35.1254 15.0061 34.7641C15.0067 34.5586 15.0074 34.3531 15.008 34.1414C15.1089 33.6231 15.1089 33.6231 15.4737 33.2441C15.8516 33.0185 16.0951 32.894 16.5226 32.8281C16.6959 32.7996 16.6959 32.7996 16.8728 32.7705C16.9952 32.7529 17.1177 32.7353 17.2438 32.7172C17.3717 32.697 17.4995 32.6767 17.6312 32.6559C18.0376 32.5921 18.4445 32.5318 18.8514 32.4715C19.1256 32.4287 19.3997 32.3857 19.6738 32.3425C21.6548 32.0347 21.6548 32.0347 22.4153 32.0347C22.4427 31.8859 22.4702 31.737 22.4984 31.5837C23.1367 28.4144 24.4942 25.4693 26.0685 22.6635C26.1761 22.4526 26.2831 22.2413 26.3862 22.0281C26.267 21.8705 26.1478 21.7128 26.0251 21.5504C22.6172 17.0306 22.6172 17.0306 22.4848 16.2803C22.5778 15.6498 22.6328 15.545 23.0383 15.1001C23.1396 14.989 23.2409 14.8778 23.3453 14.7633C23.9675 14.1072 24.6026 13.4649 25.2427 12.8262C25.3884 12.6803 25.5342 12.5344 25.6843 12.3841C25.9902 12.0781 26.2963 11.7723 26.6026 11.4667C26.9953 11.0749 27.3874 10.6823 27.7792 10.2896C28.1543 9.9137 28.5301 9.53842 28.9058 9.1631C29.0466 9.02199 29.1874 8.88087 29.3325 8.73548C29.5274 8.54131 29.5274 8.54131 29.7262 8.34321C29.8979 8.17173 29.8979 8.17173 30.0731 7.99677C30.4561 7.64095 30.6402 7.57888 31.1661 7.5065C32.0186 7.59942 32.4726 7.98034 33.1367 8.49736C33.2598 8.58984 33.3829 8.68232 33.5098 8.77761C33.764 8.9686 34.0174 9.16059 34.2701 9.35358C34.8459 9.7912 35.431 10.2158 36.0156 10.6416C36.3533 10.8895 36.6907 11.1378 37.0281 11.3862C37.1192 11.334 37.2104 11.2818 37.3042 11.228C40.3606 9.51657 43.5785 8.07753 47.0347 7.41529C47.0503 7.2646 47.0659 7.1139 47.0819 6.95864C47.2358 5.53071 47.4299 4.10911 47.6502 2.68995C47.6739 2.52553 47.6976 2.36112 47.722 2.19173C47.7471 2.03591 47.7721 1.8801 47.7979 1.71956C47.8192 1.5812 47.8404 1.44285 47.8623 1.30029C48.1953 0.245776 48.6978 0.00939216 49.7641 0.00611321ZM50.5291 2.65024C50.1619 4.57814 49.809 6.4608 49.5457 8.39871C49.4194 8.99352 49.3472 9.21087 48.9408 9.63899C48.5625 9.79805 48.5625 9.79805 48.1149 9.91074C47.8681 9.97549 47.8681 9.97549 47.6162 10.0415C47.4407 10.0856 47.2652 10.1297 47.0844 10.1751C44.8676 10.7665 42.8295 11.4818 40.7707 12.498C40.576 12.5941 40.576 12.5941 40.3774 12.6921C39.5895 13.092 38.8581 13.5378 38.134 14.0443C37.6196 14.3759 37.3247 14.457 36.7105 14.404C36.0786 14.1057 35.5235 13.7059 34.9633 13.2922C34.8603 13.2162 34.7574 13.1403 34.6513 13.062C34.1011 12.6539 33.5541 12.2417 33.0095 11.8261C32.5085 11.446 31.9961 11.0933 31.4689 10.7508C30.9925 10.9646 30.6619 11.2012 30.2949 11.5711C30.1931 11.6729 30.0914 11.7746 29.9866 11.8794C29.8787 11.989 29.7708 12.0985 29.6597 12.2114C29.5477 12.3237 29.4358 12.4361 29.3205 12.5519C28.9638 12.9104 28.6081 13.2701 28.2525 13.6297C28.0106 13.8732 27.7686 14.1166 27.5266 14.36C26.9338 14.9562 26.342 15.5534 25.7508 16.1512C25.949 16.6902 26.1718 17.1307 26.5121 17.5925C26.5987 17.7109 26.6852 17.8293 26.7744 17.9513C26.8658 18.0747 26.9572 18.1981 27.0513 18.3253C27.2381 18.5815 27.4248 18.8378 27.6116 19.094C27.9098 19.501 28.2096 19.9067 28.5112 20.3113C28.6093 20.4455 28.7074 20.5796 28.8084 20.7177C28.9325 20.8836 28.9325 20.8836 29.0591 21.0528C29.3004 21.4935 29.3736 21.8445 29.404 22.3458C29.2669 22.715 29.2669 22.715 29.0367 23.0903C28.9489 23.2408 28.8611 23.3913 28.7706 23.5464C28.6651 23.7268 28.5597 23.9071 28.451 24.093C27.0947 26.5409 26.0238 28.9477 25.2888 31.6525C24.6546 33.9833 24.6546 33.9833 24.0036 34.4173C23.5641 34.508 23.1315 34.5846 22.6883 34.6512C22.5597 34.6715 22.431 34.6918 22.2985 34.7128C21.8875 34.7775 21.4764 34.8407 21.0652 34.9037C20.654 34.9675 20.2429 35.0317 19.8319 35.0963C19.5762 35.1364 19.3204 35.1761 19.0645 35.2151C18.5762 35.291 18.1201 35.3725 17.6502 35.5291C17.6502 38.1499 17.6502 40.7707 17.6502 43.4709C19.5781 43.8381 21.4608 44.191 23.3987 44.4543C23.9935 44.5806 24.2109 44.6528 24.639 45.0592C24.7981 45.4375 24.7981 45.4375 24.9107 45.885C24.9539 46.0496 24.9971 46.2142 25.0415 46.3838C25.0856 46.5593 25.1297 46.7348 25.1751 46.9156C25.7665 49.1324 26.4818 51.1705 27.498 53.2293C27.5941 53.424 27.5941 53.424 27.6921 53.6226C28.092 54.4105 28.5378 55.1419 29.0443 55.866C29.3759 56.3804 29.457 56.6753 29.404 57.2895C29.1057 57.9214 28.7059 58.4764 28.2922 59.0367C28.2162 59.1397 28.1403 59.2426 28.062 59.3487C27.6539 59.8989 27.2417 60.4459 26.8261 60.9905C26.446 61.4915 26.0933 62.0039 25.7508 62.5311C25.9646 63.0075 26.2012 63.3381 26.5711 63.7051C26.6729 63.8069 26.7746 63.9086 26.8794 64.0134C27.0437 64.1752 27.0437 64.1752 27.2114 64.3403C27.3237 64.4522 27.4361 64.5642 27.5519 64.6795C27.9104 65.0362 28.27 65.3919 28.6297 65.7475C28.8732 65.9894 29.1166 66.2314 29.36 66.4734C29.9562 67.0662 30.5534 67.658 31.1512 68.2492C31.6902 68.051 32.1307 67.8282 32.5925 67.4879C32.7109 67.4013 32.8293 67.3148 32.9513 67.2256C33.0747 67.1342 33.1981 67.0428 33.3253 66.9487C33.5815 66.7619 33.8378 66.5752 34.094 66.3884C34.501 66.0901 34.9067 65.7904 35.3113 65.4888C35.4455 65.3907 35.5796 65.2926 35.7177 65.1916C35.8283 65.1089 35.9389 65.0261 36.0528 64.9409C36.4935 64.6996 36.8445 64.6264 37.3458 64.596C37.715 64.7331 37.715 64.7331 38.0903 64.9633C38.2408 65.0511 38.3913 65.1389 38.5464 65.2294C38.7268 65.3349 38.9071 65.4403 39.093 65.549C41.5409 66.9053 43.9477 67.9762 46.6525 68.7112C48.9833 69.3454 48.9833 69.3454 49.4173 69.9964C49.508 70.4359 49.5846 70.8685 49.6512 71.3117C49.6715 71.4403 49.6918 71.569 49.7128 71.7015C49.7775 72.1124 49.8407 72.5236 49.9037 72.9348C49.9675 73.346 50.0317 73.757 50.0963 74.1681C50.1364 74.4238 50.1761 74.6796 50.2151 74.9355C50.291 75.4238 50.3725 75.8799 50.5291 76.3498C53.1499 76.3498 55.7707 76.3498 58.4709 76.3498C58.8374 74.4257 59.1924 72.5351 59.4698 70.6013C59.5827 69.9964 59.5827 69.9964 59.7806 69.6576C59.9472 69.3363 59.9472 69.3363 59.7509 68.8963C59.6234 68.63 59.6234 68.63 59.4934 68.3584C59.1063 67.5216 58.7755 66.6842 58.4907 65.8071C58.4396 65.6497 58.4396 65.6497 58.3874 65.4892C58.3085 65.2447 58.2307 64.9998 58.1532 64.7548C57.9939 64.7713 57.9939 64.7713 57.8314 64.7881C51.0718 65.4511 44.1483 63.9157 38.7803 59.6051C37.9618 58.909 37.1712 58.1888 36.3928 57.4484C36.2392 57.3074 36.2392 57.3074 36.0826 57.1636C31.6973 53.014 29.2235 46.4902 29.0541 40.5399C28.9534 33.1274 31.4637 26.7419 36.5516 21.3928C36.6456 21.2904 36.7396 21.188 36.8364 21.0826C40.9875 16.6957 47.5134 14.2224 53.4657 14.0541C60.8541 13.955 67.261 16.4664 72.6072 21.5516C72.7096 21.6456 72.812 21.7396 72.9174 21.8364C77.1628 25.8537 79.7422 32.2643 79.9282 38.0484C79.9348 38.5291 79.9353 39.0093 79.9335 39.4901C79.9341 39.6501 79.9347 39.8101 79.9353 39.975C79.934 41.0425 79.8696 42.092 79.7548 43.1532C79.9391 43.2128 80.1233 43.2724 80.3132 43.3338C80.5639 43.4157 80.8146 43.4978 81.0652 43.5801C81.1949 43.6226 81.3246 43.665 81.4583 43.7088C82.3868 44.0179 83.2716 44.3728 84.1569 44.7912C84.3365 44.8452 84.3365 44.8452 84.5198 44.9004C84.6771 44.7956 84.8343 44.6907 84.9964 44.5827C85.4359 44.492 85.8685 44.4154 86.3117 44.3488C86.5047 44.3183 86.5047 44.3183 86.7015 44.2872C87.1124 44.2225 87.5236 44.1593 87.9348 44.0963C88.346 44.0324 88.757 43.9683 89.1681 43.9037C89.4238 43.8636 89.6796 43.8239 89.9355 43.7849C90.4238 43.709 90.8799 43.6275 91.3498 43.4709C91.3498 40.8501 91.3498 38.2293 91.3498 35.5291C89.4219 35.1619 87.5392 34.809 85.6013 34.5457C85.0065 34.4194 84.7891 34.3472 84.361 33.9408C84.2019 33.5625 84.2019 33.5625 84.0893 33.1149C84.0461 32.9504 84.0029 32.7858 83.9585 32.6162C83.8924 32.353 83.8924 32.353 83.8249 32.0844C83.2335 29.8676 82.5182 27.8295 81.502 25.7707C81.4379 25.6409 81.3739 25.5111 81.3079 25.3774C80.908 24.5895 80.4622 23.8581 79.9557 23.134C79.6241 22.6196 79.543 22.3247 79.596 21.7105C79.8943 21.0786 80.2941 20.5235 80.7078 19.9633C80.7838 19.8603 80.8597 19.7574 80.938 19.6513C81.3461 19.1011 81.7583 18.5541 82.1739 18.0095C82.554 17.5085 82.9067 16.9961 83.2492 16.4689C83.0354 15.9925 82.7988 15.6619 82.4288 15.2949C82.3271 15.1931 82.2254 15.0914 82.1206 14.9866C82.011 14.8787 81.9015 14.7708 81.7886 14.6597C81.6763 14.5477 81.5639 14.4358 81.4481 14.3205C81.0896 13.9638 80.7299 13.6081 80.3703 13.2525C80.1268 13.0106 79.8834 12.7686 79.64 12.5266C79.0438 11.9338 78.4466 11.342 77.8488 10.7508C77.3098 10.949 76.8693 11.1718 76.4075 11.5121C76.2891 11.5987 76.1707 11.6852 76.0487 11.7744C75.8636 11.9115 75.8636 11.9115 75.6747 12.0513C75.4185 12.2381 75.1622 12.4248 74.906 12.6116C74.4989 12.9098 74.0932 13.2096 73.6887 13.5112C73.5545 13.6093 73.4204 13.7074 73.2823 13.8084C73.1717 13.8911 73.0611 13.9738 72.9472 14.0591C72.5065 14.3004 72.1554 14.3736 71.6542 14.404C71.285 14.2669 71.285 14.2669 70.9097 14.0367C70.7592 13.9489 70.6087 13.8611 70.4536 13.7706C70.2732 13.6651 70.0929 13.5597 69.907 13.451C67.4591 12.0947 65.0523 11.0238 62.3475 10.2888C60.0167 9.65456 60.0167 9.65456 59.5827 9.00364C59.492 8.56413 59.4154 8.13148 59.3488 7.68829C59.3183 7.49533 59.3183 7.49533 59.2872 7.29847C59.2225 6.88755 59.1593 6.47639 59.0963 6.06519C59.0324 5.65404 58.9683 5.24295 58.9037 4.83191C58.8636 4.5762 58.8239 4.32041 58.7849 4.06453C58.709 3.57616 58.6275 3.12012 58.4709 2.65024C55.8501 2.65024 53.2293 2.65024 50.5291 2.65024ZM44.3345 19.0103C44.1619 19.0969 43.9893 19.1835 43.8115 19.2727C38.3153 22.1142 34.5065 27.0134 32.5807 32.8289C30.8575 38.3643 31.3419 44.5093 34.0103 49.6654C34.0969 49.8381 34.1835 50.0107 34.2727 50.1885C37.1142 55.6847 42.0134 59.4935 47.8289 61.4193C51.0235 62.4138 54.3643 62.6351 57.6767 62.2134C57.8333 61.7437 57.8429 61.4878 57.8256 61.0023C57.8193 60.2121 57.8755 59.4435 57.9646 58.6595C57.9757 58.5549 57.9869 58.4504 57.9984 58.3427C58.0854 57.6199 58.2328 56.9202 58.3987 56.2114C58.4419 56.0264 58.4851 55.8413 58.5296 55.6507C58.5626 55.5101 58.5957 55.3695 58.6297 55.2247C58.3189 55.2228 58.319 55.2228 58.0019 55.2208C56.0504 55.2085 54.0989 55.1945 52.1474 55.179C51.144 55.1711 50.1407 55.1637 49.1374 55.1577C48.1693 55.1518 47.2013 55.1445 46.2332 55.136C45.8637 55.1331 45.4942 55.1307 45.1246 55.1288C44.6074 55.1262 44.0903 55.1216 43.5731 55.1165C43.42 55.1161 43.267 55.1158 43.1092 55.1154C41.754 55.0985 41.754 55.0985 41.1578 54.7482C40.7748 54.1736 40.7942 53.7547 40.7965 53.0909C40.7957 52.971 40.7949 52.8511 40.7941 52.7276C40.7919 52.3304 40.792 51.9333 40.7924 51.5361C40.7918 51.2593 40.7911 50.9824 40.7903 50.7056C40.7891 50.1243 40.7892 49.5431 40.79 48.9619C40.7909 48.2204 40.7883 47.4791 40.7846 46.7376C40.7822 46.1651 40.7821 45.5927 40.7826 45.0202C40.7825 44.7471 40.7817 44.474 40.7801 44.2009C40.7685 41.9537 40.9651 40.1858 42.5005 38.444C44.5954 36.4443 47.9214 35.8619 50.688 35.5291C50.4715 35.0452 50.2225 34.7163 49.8541 34.3379C48.5349 32.8593 47.7909 30.8266 47.6701 28.858C47.6598 28.7217 47.6496 28.5853 47.6391 28.4448C47.5525 26.3028 48.0805 24.2779 49.5352 22.6765C51.0529 21.1997 52.9886 20.8628 55.0292 20.8822C56.8675 20.9898 58.5441 21.618 59.811 22.9818C61.229 24.7931 61.4964 27.1052 61.2852 29.3283C60.9408 31.8518 59.7508 33.6237 58.1532 35.5291C58.2514 35.5442 58.3496 35.5593 58.4508 35.5748C65.0362 36.6047 65.0362 36.6047 67.1082 39.129C67.9606 40.3573 68.1696 41.5839 68.2492 43.044C68.256 43.1616 68.2629 43.2793 68.27 43.4005C68.2867 43.6886 68.3027 43.9768 68.3187 44.2651C68.4142 44.2355 68.5097 44.2059 68.6082 44.1755C71.295 43.3553 73.8685 42.7869 76.6891 42.8455C77.0489 42.8776 77.0489 42.8776 77.2134 42.6767C77.8483 38.1284 77.1024 33.417 74.9897 29.3345C74.8598 29.0756 74.8598 29.0756 74.7273 28.8115C71.8858 23.3153 66.9866 19.5065 61.1711 17.5807C55.6357 15.8575 49.4907 16.3419 44.3345 19.0103ZM51.3785 24.4665C50.7328 25.2563 50.2766 26.2496 50.2114 27.2697C50.2035 27.3696 50.1955 27.4695 50.1872 27.5725C50.103 29.4317 50.6616 31.4103 51.9109 32.8147C52.6649 33.5043 53.4493 33.8863 54.4702 34.0202C55.5318 33.9728 56.5312 33.4168 57.2498 32.6502C58.5173 30.995 58.9705 28.9576 58.7501 26.9129C58.5487 25.7274 57.9743 24.7894 57.0513 24.0235C55.3173 23.1388 52.8926 23.0747 51.3785 24.4665ZM44.3246 40.3934C44.2231 40.5179 44.1215 40.6424 44.0169 40.7707C43.8793 40.9328 43.8793 40.9328 43.7389 41.0983C43.3353 41.7238 43.3621 42.3459 43.3635 43.0758C43.3635 43.1781 43.3635 43.2805 43.3634 43.3859C43.3635 43.7228 43.3648 44.0597 43.366 44.3966C43.3663 44.6307 43.3665 44.8648 43.3667 45.099C43.3673 45.7142 43.3689 46.3294 43.3706 46.9446C43.3723 47.5727 43.373 48.2009 43.3738 48.8291C43.3755 50.0609 43.3783 51.2927 43.3815 52.5245C44.3774 52.5245 45.3733 52.5245 46.3994 52.5245C46.4009 52.2816 46.4024 52.0387 46.4039 51.7884C46.4102 50.8888 46.4207 49.9893 46.4324 49.0897C46.4369 48.7001 46.4402 48.3104 46.4424 47.9208C46.4458 47.3613 46.4532 46.8019 46.4614 46.2424C46.4617 45.9803 46.4617 45.9803 46.462 45.7129C46.4667 45.4697 46.4667 45.4697 46.4715 45.2216C46.4729 45.0787 46.4744 44.9359 46.4758 44.7887C46.5582 44.4239 46.5582 44.4239 46.846 44.1395C47.3525 43.8596 47.7375 43.8854 48.3054 43.9474C48.6395 44.1924 48.7566 44.3732 48.9408 44.7416C48.9596 44.9913 48.9689 45.2417 48.9734 45.4921C48.9781 45.7258 48.9781 45.7258 48.983 45.9642C48.9856 46.1328 48.9883 46.3014 48.991 46.4751C48.9943 46.6474 48.9976 46.8197 49.001 46.9972C49.0114 47.5491 49.0208 48.101 49.0301 48.6529C49.037 49.0264 49.0439 49.3999 49.0509 49.7734C49.0679 50.6904 49.0841 51.6074 49.0996 52.5245C50.4844 52.5282 51.8692 52.531 53.254 52.5327C53.8969 52.5335 54.5399 52.5347 55.1828 52.5365C55.8028 52.5382 56.4228 52.5391 57.0428 52.5396C57.2798 52.5398 57.5169 52.5404 57.7539 52.5413C58.0848 52.5424 58.4157 52.5426 58.7466 52.5425C59.0297 52.543 59.0297 52.543 59.3185 52.5436C59.729 52.5727 59.729 52.5727 59.9004 52.3656C59.9182 52.1302 59.9253 51.8939 59.928 51.6578C59.9301 51.5073 59.9323 51.3567 59.9345 51.2015C59.9361 51.0376 59.9378 50.8736 59.9395 50.7047C59.9447 50.3607 59.95 50.0166 59.9553 49.6726C59.9628 49.1278 59.9699 48.583 59.9761 48.0381C59.9824 47.514 59.9906 46.9899 59.999 46.4658C60.0004 46.3028 60.0017 46.1398 60.0031 45.9719C60.0057 45.8198 60.0084 45.6677 60.0111 45.511C60.0127 45.3775 60.0144 45.2439 60.0161 45.1063C60.0635 44.7051 60.1625 44.4473 60.3769 44.1062C60.868 43.8607 61.2655 43.9007 61.8064 43.9474C62.2377 44.2759 62.4184 44.469 62.5285 45.0048C62.5335 45.2393 62.5335 45.2393 62.5385 45.4787C62.5437 45.6486 62.5488 45.8185 62.5541 45.9936C62.5563 46.1701 62.5586 46.3466 62.5609 46.5285C62.5656 46.7074 62.5703 46.8864 62.5752 47.0707C62.5864 47.5121 62.5947 47.9533 62.6006 48.3948C62.6711 48.3339 62.7415 48.2731 62.8141 48.2104C63.3878 47.7166 63.9654 47.23 64.5562 46.7568C64.6899 46.6493 64.8237 46.5418 64.9614 46.431C65.3008 46.1711 65.3008 46.1711 65.6185 46.0122C65.6324 45.3736 65.6408 44.735 65.6482 44.0963C65.6522 43.9162 65.6562 43.7361 65.6603 43.5506C65.6711 42.3169 65.6053 41.4856 64.7945 40.5126C60.4756 36.8655 48.5725 36.2968 44.3246 40.3934ZM65.7773 49.1889C65.6702 49.2731 65.5631 49.3572 65.4528 49.4439C62.495 51.835 60.8228 55.7364 60.4216 59.4444C60.0993 63.3784 61.2437 67.4938 63.8167 70.5368C66.8124 73.857 70.3034 75.8687 74.811 76.3299C79.1738 76.53 83.1962 75.0169 86.4346 72.1071C89.2472 69.4877 91.073 65.8321 91.2511 61.9783C91.3657 57.6383 90.3016 53.751 87.2678 50.5235C87.1472 50.3976 87.0266 50.2717 86.9024 50.142C86.7387 49.9604 86.7387 49.9604 86.5717 49.7753C83.8778 46.8914 79.7908 45.4649 75.913 45.3273C72.1422 45.4215 68.639 46.7226 65.7773 49.1889Z" fill="#FF9140"/>
</svg>
