<svg width="108" height="98" viewBox="0 0 108 98" fill="none" xmlns="http://www.w3.org/2000/svg">
<path d="M103.432 19.034L102.784 17.9586C97.3005 8.86675 87.4131 3.38795 76.9872 4.05466C75.6429 4.13269 74.3062 4.31241 72.9885 4.59232C63.509 6.63813 55.261 13.867 51.8435 23.1256C49.8308 28.5694 49.271 34.8386 45.4456 39.1614C40.4819 44.7854 32.05 44.9601 24.6525 44.7289C17.2549 44.4977 8.80436 44.694 3.85932 50.3395C0.772342 53.8907 -0.211333 58.934 0.0365848 63.6547C0.6977 76.193 9.36684 87.406 20.3792 92.9789C31.3916 98.5518 44.3713 99.0491 56.4287 96.5974C73.3218 93.1644 89.3885 83.7338 99.044 69.1765C108.699 54.6193 111.144 34.7553 103.432 19.034Z" fill="#E7EDFF"/>
<g clip-path="url(#clip0_2415_7615)">
<path d="M44.0545 1.58384C45.6786 2.8343 46.5249 4.93823 46.8047 6.91432C47.1237 10.1276 46.4136 13.4391 44.3637 15.9949C43.7053 16.7528 43.0497 17.3319 42.2246 17.8983C42.3756 17.9203 42.3756 17.9203 42.5297 17.9427C51.2784 19.2336 51.2784 19.2336 53.9946 22.473C55.026 23.8842 55.3868 25.38 55.3847 27.1046C55.3857 27.2302 55.3867 27.3559 55.3878 27.4853C55.3907 27.8961 55.3913 28.3069 55.3917 28.7178C55.3927 29.0062 55.3937 29.2945 55.3948 29.5829C55.3966 30.1856 55.3972 30.7882 55.397 31.3909C55.397 32.1599 55.4012 32.9289 55.4065 33.6979C55.41 34.2929 55.4106 34.8879 55.4104 35.483C55.4108 35.7663 55.4121 36.0497 55.4145 36.3331C55.439 39.5208 55.439 39.5208 54.4249 40.8018C54.3259 40.8813 54.2268 40.9609 54.1247 41.0429C54.0265 41.1256 53.9282 41.2083 53.827 41.2936C53.0546 41.7774 52.2879 41.8598 51.3954 41.8566C51.2811 41.8574 51.1667 41.8583 51.0488 41.8591C50.6672 41.8614 50.2857 41.8615 49.904 41.8616C49.6297 41.8628 49.3554 41.8641 49.0811 41.8655C48.337 41.8689 47.593 41.8703 46.8489 41.871C46.3836 41.8716 45.9183 41.8726 45.453 41.8737C43.8285 41.8774 42.204 41.8795 40.5795 41.88C39.0672 41.8806 37.555 41.8852 36.0428 41.8916C34.7428 41.897 33.4429 41.8994 32.143 41.8995C31.3673 41.8996 30.5917 41.9009 29.816 41.9053C29.086 41.9094 28.356 41.9097 27.626 41.9072C27.3589 41.907 27.0919 41.908 26.8248 41.9105C25.4009 41.9228 24.1389 41.92 22.9375 41.0429C22.5897 40.68 22.5897 40.68 22.3878 40.3292C22.3176 40.2127 22.2474 40.0961 22.1751 39.976C21.8231 39.2826 21.8336 38.6477 21.8326 37.8885C21.8314 37.6889 21.8314 37.6889 21.8302 37.4853C21.828 37.0444 21.8269 36.6035 21.8261 36.1626C21.8252 35.8556 21.8243 35.5486 21.8234 35.2417C21.8218 34.5971 21.8209 33.9526 21.8203 33.3081C21.8195 32.4851 21.8158 31.6621 21.8114 30.8391C21.8085 30.2044 21.8077 29.5697 21.8075 28.9349C21.807 28.6317 21.8058 28.3285 21.8038 28.0253C21.7884 25.5576 21.9505 23.5602 23.7614 21.6919C26.818 19.0168 30.9357 18.441 34.8184 17.8983C34.7195 17.8124 34.6206 17.7265 34.5188 17.638C32.0984 15.5025 30.5801 13.0491 30.31 9.77423C30.1622 7.13913 30.4482 4.55675 32.1664 2.43127C35.2302 -0.842624 40.4945 -0.839359 44.0545 1.58384ZM34.2012 4.1659C32.8486 5.8719 32.8117 7.94699 32.9668 10.0292C33.2588 12.1902 34.3328 14.1055 36.0117 15.4971C37.1354 16.2848 38.2659 16.3425 39.6016 16.2011C40.1763 16.0201 40.6466 15.7663 41.1445 15.4296C41.2424 15.3643 41.3402 15.2991 41.4411 15.2319C43.1353 13.9425 43.8913 11.7475 44.1816 9.71517C44.378 7.87502 44.2399 5.98967 43.0967 4.46365C42.0494 3.24054 40.8263 2.68889 39.2255 2.48793C37.4122 2.38461 35.5176 2.84945 34.2012 4.1659ZM31.4238 21.1386C31.1924 21.1838 30.961 21.2288 30.7295 21.2736C28.6641 21.7005 26.3404 22.6225 25.0365 24.3568C24.248 25.6896 24.3744 27.1191 24.3888 28.6165C24.3891 28.9073 24.3891 29.198 24.3888 29.4887C24.3891 30.0951 24.392 30.7013 24.3968 31.3076C24.403 32.0852 24.4036 32.8627 24.4025 33.6403C24.402 34.2393 24.4039 34.8382 24.4065 35.4371C24.4076 35.724 24.4081 36.0109 24.4079 36.2977C24.4082 36.6973 24.4115 37.0968 24.4157 37.4964C24.4152 37.615 24.4148 37.7335 24.4143 37.8556C24.4215 38.3007 24.4315 38.6453 24.6604 39.034C25.063 39.2578 25.3733 39.2435 25.8324 39.2365C26.0912 39.2343 26.0912 39.2343 26.3552 39.232C26.5353 39.2281 26.7154 39.2242 26.901 39.2202C27.1738 39.2171 27.1738 39.2171 27.4522 39.2139C27.9018 39.2084 28.3512 39.2008 28.8008 39.1913C28.801 39.0693 28.8012 38.9473 28.8014 38.8216C28.8042 37.6706 28.8106 36.5196 28.8212 35.3686C28.8264 34.7769 28.8303 34.1853 28.8309 33.5936C28.8316 33.0222 28.836 32.4511 28.843 31.8798C28.845 31.6621 28.8456 31.4444 28.8449 31.2267C28.8442 30.9212 28.8486 30.6158 28.8533 30.3104C28.8544 30.1367 28.8554 29.9629 28.8564 29.784C28.9857 29.1712 29.2485 28.9356 29.7266 28.5448C30.2021 28.4626 30.4798 28.5729 30.9609 28.6991C31.3255 29.2459 31.3112 29.4864 31.3187 30.1352C31.3218 30.3388 31.3249 30.5423 31.3281 30.7521C31.3299 30.9684 31.3317 31.1848 31.3334 31.4011C31.3361 31.5978 31.3389 31.7945 31.3417 31.9971C31.3514 32.7333 31.3585 33.4694 31.366 34.2056C31.3851 35.8509 31.4041 37.4962 31.4238 39.1913C36.1083 39.1913 40.7927 39.1913 45.6191 39.1913C45.6515 36.027 45.6515 36.027 45.679 32.8626C45.684 32.4658 45.6891 32.0691 45.6945 31.6723C45.6951 31.5185 45.6951 31.5185 45.6958 31.3616C45.6973 31.0579 45.702 30.7542 45.7067 30.4505C45.7093 30.194 45.7093 30.194 45.7119 29.9324C45.7818 29.4078 45.9115 29.1151 46.2363 28.6991C46.7813 28.5505 47.1439 28.4858 47.6829 28.6702C47.9336 28.8534 47.9336 28.8534 48.0879 29.162C48.1065 29.4802 48.1153 29.799 48.1196 30.1177C48.1226 30.3185 48.1257 30.5192 48.1289 30.7261C48.1315 30.9461 48.1341 31.1661 48.1367 31.386C48.1399 31.6105 48.1431 31.8349 48.1464 32.0593C48.1549 32.6503 48.1626 33.2414 48.17 33.8324C48.1778 34.4354 48.1863 35.0383 48.1949 35.6413C48.2115 36.8246 48.2271 38.0079 48.2422 39.1913C48.8722 39.2092 49.5021 39.2202 50.1323 39.2299C50.3111 39.235 50.4899 39.2402 50.6742 39.2455C50.8462 39.2475 51.0183 39.2495 51.1955 39.2516C51.4331 39.2564 51.4331 39.2564 51.6754 39.2614C52.1106 39.219 52.1106 39.219 52.4597 38.9544C52.8112 38.4344 52.8033 37.9736 52.7966 37.3671C52.7977 37.2461 52.7988 37.125 52.7999 37.0004C52.8026 36.6003 52.8008 36.2004 52.7988 35.8004C52.7992 35.5213 52.7998 35.2422 52.8005 34.9631C52.8015 34.3776 52.8001 33.7921 52.7973 33.2066C52.7938 32.4595 52.7958 31.7126 52.7995 30.9655C52.8017 30.3886 52.801 29.8117 52.7994 29.2348C52.799 28.9596 52.7995 28.6844 52.8009 28.4092C52.8176 25.8566 52.8176 25.8566 51.5831 23.6736C49.9325 22.2455 47.9637 21.6492 45.8795 21.1868C45.7388 21.1555 45.5982 21.1243 45.4532 21.0921C43.1445 20.6073 40.8828 20.4586 38.5311 20.4635C38.3929 20.4635 38.2547 20.4635 38.1123 20.4635C35.8263 20.4678 33.6617 20.6452 31.4238 21.1386Z" fill="#2952CE"/>
<path d="M81.912 38.8146C83.5373 40.1155 84.3981 42.0953 84.6562 44.1288C84.8698 47.5876 84.2802 50.8279 82.0024 53.556C81.4637 54.1251 80.8884 54.7305 80.1816 55.0839C81.01 55.2533 81.8392 55.4147 82.6714 55.5643C86.2031 56.2052 89.8958 56.9728 92.1203 60.0793C93.2067 61.9236 93.2344 63.5971 93.2245 65.684C93.2249 65.9934 93.2255 66.3028 93.2263 66.6122C93.2272 67.258 93.2259 67.9036 93.223 68.5494C93.2195 69.3748 93.2215 70.2001 93.2252 71.0256C93.2274 71.6635 93.2267 72.3013 93.2251 72.9393C93.2247 73.2436 93.2252 73.5479 93.2266 73.8522C93.2282 74.2779 93.2258 74.7034 93.2224 75.1291C93.2236 75.2532 93.2249 75.3774 93.2262 75.5054C93.2113 76.511 92.917 77.3117 92.2559 78.0778C92.1698 78.1466 92.0837 78.2154 91.9949 78.2863C91.9092 78.3575 91.8235 78.4287 91.7352 78.5021C91.014 78.9729 90.3511 79.0451 89.5067 79.0422C89.3904 79.043 89.2742 79.0438 89.1544 79.0447C88.7656 79.047 88.3768 79.0471 87.9879 79.0472C87.7088 79.0484 87.4297 79.0497 87.1506 79.0511C86.3928 79.0545 85.635 79.0558 84.8772 79.0566C84.4035 79.0572 83.9298 79.0581 83.4561 79.0592C81.8028 79.063 80.1495 79.065 78.4962 79.0656C76.9563 79.0661 75.4165 79.0708 73.8766 79.0772C72.5536 79.0826 71.2307 79.085 69.9077 79.0851C69.1179 79.0852 68.3282 79.0865 67.5385 79.0909C66.7953 79.095 66.0522 79.0953 65.309 79.0928C65.0369 79.0925 64.7648 79.0936 64.4927 79.096C61.7727 79.1192 61.7727 79.1192 60.7402 78.2284C59.804 77.216 59.6133 76.1212 59.6177 74.7711C59.6169 74.646 59.6162 74.5209 59.6153 74.392C59.6132 73.981 59.6133 73.57 59.6137 73.1589C59.6131 72.8709 59.6124 72.5828 59.6117 72.2947C59.6105 71.6915 59.6106 71.0883 59.6114 70.4851C59.6123 69.7164 59.6097 68.9478 59.6061 68.1792C59.6038 67.5842 59.6037 66.9891 59.6042 66.3941C59.6041 66.111 59.6033 65.8278 59.6017 65.5447C59.5898 63.0711 59.7653 60.9717 61.5171 59.0619C64.045 56.6762 67.3176 56.0554 70.6169 55.4754C71.287 55.355 71.9541 55.2208 72.621 55.0839C72.5204 54.9962 72.4198 54.9085 72.3161 54.8181C70.9609 53.6209 70.0285 52.5468 69.2265 50.9179C69.1674 50.7991 69.1084 50.6804 69.0475 50.5581C67.8886 47.9714 67.7501 44.636 68.7149 41.9875C69.4795 40.1053 70.7452 38.6333 72.621 37.8027C75.7646 36.695 79.1405 36.8643 81.912 38.8146ZM72.0364 41.4829C70.8479 42.9523 70.658 44.765 70.7695 46.5976C71.0414 48.9098 71.9001 51.0714 73.7011 52.6152C74.76 53.2879 75.8268 53.6957 77.0957 53.5409C78.8704 53.0479 80.0416 52.0356 80.9531 50.455C81.7079 48.9233 82.0933 47.4637 82.0814 45.7586C82.0806 45.6302 82.0799 45.5019 82.0791 45.3696C82.0453 43.6006 81.5288 42.1777 80.2491 40.9272C77.9401 39.0482 74.0826 39.3652 72.0364 41.4829ZM63.2282 61.2269C62.0108 62.559 62.215 64.4344 62.2217 66.1095C62.2214 66.3862 62.2209 66.663 62.2203 66.9397C62.2197 67.5173 62.2206 68.0947 62.2228 68.6722C62.2255 69.4123 62.2239 70.1523 62.2212 70.8923C62.2195 71.4627 62.22 72.033 62.2212 72.6034C62.2215 72.8764 62.2211 73.1493 62.2201 73.4223C62.2189 73.803 62.2207 74.1836 62.2233 74.5644C62.2223 74.6768 62.2214 74.7893 62.2204 74.9052C62.2264 75.3811 62.2574 75.7131 62.4894 76.1333C62.9549 76.575 63.4213 76.5496 64.0304 76.5462C64.1891 76.5457 64.3477 76.5452 64.5111 76.5447C64.6765 76.5434 64.8419 76.5421 65.0123 76.5408C65.1795 76.5401 65.3466 76.5394 65.5189 76.5387C65.9318 76.5369 66.3448 76.5343 66.7578 76.5312C66.7587 76.4046 66.7596 76.2781 66.7605 76.1477C66.7694 74.9557 66.7806 73.7638 66.7941 72.5718C66.801 71.959 66.8071 71.3462 66.8112 70.7334C66.8152 70.1421 66.8215 69.5509 66.8292 68.9596C66.8318 68.7339 66.8336 68.5082 66.8345 68.2825C66.836 67.9666 66.8403 67.6508 66.8453 67.335C66.8471 67.1551 66.8488 66.9752 66.8505 66.7899C66.9121 66.3476 66.9121 66.3476 67.129 66.0583C67.5802 65.7398 68.0816 65.8009 68.6093 65.8847C68.9449 66.1228 69.0442 66.2915 69.2265 66.6562C69.2451 66.9696 69.2539 67.2837 69.2582 67.5977C69.2613 67.7982 69.2644 67.9986 69.2676 68.2051C69.2702 68.4189 69.2728 68.6327 69.2753 68.8465C69.2782 69.0403 69.2811 69.2341 69.2841 69.4338C69.2946 70.1602 69.3039 70.8866 69.3133 71.613C69.3467 74.0475 69.3467 74.0475 69.3808 76.5312C74.0653 76.5312 78.7497 76.5312 83.5761 76.5312C83.6085 73.2006 83.6085 73.2006 83.636 69.87C83.641 69.4535 83.6461 69.037 83.6515 68.6204C83.6521 68.458 83.6521 68.458 83.6528 68.2922C83.6543 67.9731 83.6587 67.6541 83.6637 67.335C83.6663 67.0651 83.6663 67.0651 83.6689 66.7899C83.7304 66.3476 83.7304 66.3476 83.9473 66.0579C84.2556 65.8408 84.4361 65.8273 84.8105 65.8365C84.968 65.8374 84.968 65.8374 85.1287 65.8383C85.4277 65.8847 85.4277 65.8847 85.8906 66.1933C86.0592 66.6992 86.0692 67.0825 86.0766 67.6152C86.0796 67.8129 86.0827 68.0106 86.0859 68.2142C86.0885 68.43 86.0911 68.6458 86.0937 68.8615C86.0969 69.0823 86.1001 69.303 86.1034 69.5237C86.1119 70.1044 86.1195 70.685 86.127 71.2656C86.1347 71.8583 86.1433 72.4509 86.1519 73.0435C86.1684 74.2061 86.1841 75.3686 86.1992 76.5312C86.7488 76.5402 87.2985 76.5456 87.8482 76.5505C88.0814 76.5543 88.0814 76.5543 88.3192 76.5583C88.5452 76.5598 88.5452 76.5598 88.7758 76.5613C88.9831 76.5637 88.9831 76.5637 89.1945 76.5662C89.6399 76.5271 89.9659 76.4217 90.3652 76.2226C90.6049 75.7432 90.5436 75.235 90.5443 74.7088C90.5451 74.5843 90.5459 74.4598 90.5467 74.3316C90.5489 73.9184 90.55 73.5052 90.5508 73.092C90.5517 72.8049 90.5526 72.5177 90.5535 72.2305C90.5551 71.6273 90.556 71.0242 90.5565 70.421C90.5574 69.65 90.5611 68.8791 90.5655 68.1081C90.5684 67.5143 90.5692 66.9205 90.5694 66.3267C90.5699 66.0426 90.5711 65.7585 90.5731 65.4744C90.5758 65.0756 90.5755 64.6769 90.5745 64.2781C90.5766 64.1036 90.5766 64.1036 90.5788 63.9257C90.5697 62.764 90.224 61.7642 89.4249 60.9044C84.0614 56.0574 68.2945 55.8962 63.2282 61.2269Z" fill="#2952CE"/>
<path d="M28.955 51.8439C29.5697 52.3199 29.7248 52.8173 29.9387 53.5508C30.7433 56.1419 32.1362 58.0058 34.5043 59.3568C36.6131 60.4178 38.9765 60.7069 41.2988 60.9474C41.2934 60.7558 41.2881 60.5643 41.2825 60.3669C41.2782 60.1136 41.274 59.8603 41.2699 59.6069C41.266 59.4809 41.2621 59.3549 41.2581 59.2251C41.2491 58.4824 41.2854 58.0068 41.7617 57.3985C41.9969 57.1633 42.2097 57.1968 42.5374 57.1791C43.4361 57.1912 43.9419 57.5875 44.6258 58.1314C44.7457 58.2223 44.8655 58.3132 44.989 58.4069C45.236 58.5947 45.4821 58.7838 45.7271 58.9744C46.153 59.3053 46.5841 59.6287 47.0162 59.9516C47.2172 60.1018 47.4179 60.2525 47.6183 60.4035C48.3882 60.9837 49.1669 61.5507 49.9491 62.1142C50.0642 62.1977 50.1794 62.2812 50.298 62.3672C50.8633 62.7762 51.4312 63.1798 52.0074 63.5734C52.1674 63.685 52.1674 63.685 52.3307 63.7988C52.5301 63.9377 52.731 64.0744 52.9338 64.2084C53.4183 64.5496 53.6398 64.7986 53.8788 65.346C53.9593 65.9459 53.9641 66.1493 53.6425 66.6564C53.3139 66.9987 52.957 67.2995 52.5914 67.6014C52.4363 67.7325 52.4363 67.7325 52.2781 67.8662C52.0652 68.0459 51.8518 68.225 51.6378 68.4035C51.3533 68.6412 51.0706 68.8807 50.7887 69.1215C49.8882 69.8898 48.977 70.6441 48.0589 71.3913C47.5759 71.7885 47.0986 72.1919 46.622 72.5968C43.3296 75.393 43.3296 75.393 42.5332 75.4513C42.0447 75.335 41.8247 75.2211 41.5091 74.8287C41.2239 74.2083 41.2479 73.6846 41.2699 73.0115C41.273 72.829 41.273 72.829 41.2762 72.6429C41.2816 72.3446 41.2899 72.0464 41.2988 71.7481C41.1657 71.7442 41.0327 71.7402 40.8956 71.7361C36.187 71.5173 31.7361 69.8392 28.4548 66.3725C26.142 63.8045 25.3782 60.5301 25.5297 57.1657C25.6711 55.4022 26.2136 53.0356 27.5664 51.8439C28.0579 51.5981 28.4307 51.7263 28.955 51.8439ZM28.3379 56.9356C27.8005 58.0103 28.1732 59.9405 28.468 61.0528C29.5467 64.1467 31.7017 66.1608 34.5945 67.605C36.6514 68.5776 38.9552 69.0682 41.2222 69.1552C41.3999 69.1626 41.3999 69.1626 41.5811 69.1702C41.8118 69.1785 42.0426 69.184 42.2734 69.1861C42.7947 69.2026 43.1008 69.2434 43.5277 69.553C43.8974 70.0826 43.8794 70.4937 43.9218 71.131C44.5613 70.8686 45.0395 70.4148 45.5516 69.9641C45.7459 69.7952 45.9404 69.6264 46.135 69.4578C46.2309 69.3747 46.3268 69.2915 46.4255 69.2059C46.7976 68.8863 47.1767 68.5759 47.5575 68.2668C48.5178 67.4871 49.46 66.6863 50.4023 65.8849C49.8483 65.2802 49.2067 64.8326 48.5411 64.3612C48.2935 64.1843 48.046 64.0073 47.7985 63.8302C47.6699 63.7381 47.5412 63.646 47.4086 63.5511C46.5967 62.9652 45.794 62.3665 44.9913 61.768C44.8737 61.6808 44.7561 61.5936 44.6349 61.5037C44.5305 61.4259 44.4262 61.3482 44.3187 61.2681C44.104 61.0871 44.104 61.0871 43.9218 61.1017C43.9179 61.217 43.9139 61.3324 43.9098 61.4512C43.8967 61.6792 43.8967 61.6792 43.8833 61.9117C43.8761 62.0621 43.8689 62.2125 43.8616 62.3674C43.7414 62.9188 43.6186 63.0995 43.1504 63.4161C42.7091 63.4712 42.336 63.4892 41.8967 63.474C41.7741 63.4714 41.6514 63.4689 41.5251 63.4663C37.2998 63.3451 33.2782 62.4662 30.187 59.405C29.5725 58.7411 29.115 58.0166 28.6718 57.2298C28.6125 57.1327 28.5532 57.0357 28.4922 56.9356C28.4412 56.9356 28.3903 56.9356 28.3379 56.9356Z" fill="#2952CE"/>
<path d="M72.0328 8.94922C72.563 9.13771 72.7528 9.26219 73.084 9.7207C73.1602 10.2242 73.1421 10.7174 73.1226 11.2251C73.1198 11.3621 73.117 11.4992 73.1141 11.6404C73.1069 11.9779 73.0967 12.315 73.084 12.6523C73.2282 12.6563 73.3724 12.6603 73.521 12.6644C77.7039 12.845 81.8263 14.1181 84.9648 16.9727C85.0736 17.0671 85.1824 17.1616 85.2945 17.2589C87.5564 19.343 88.8025 22.5002 88.9766 25.5283C88.9766 27.89 88.5429 30.4563 87.125 32.4023C86.6739 32.7037 86.5203 32.7116 85.9581 32.682C85.2868 32.5233 85.2868 32.5233 84.9648 32.0938C84.8068 31.6829 84.6651 31.2777 84.5309 30.8594C83.6422 28.2516 82.2838 26.2009 79.7881 24.9364C77.6584 23.9403 75.3928 23.7377 73.084 23.4531C73.0888 23.5885 73.0888 23.5885 73.0938 23.7266C73.1066 24.1369 73.1146 24.5471 73.1226 24.9575C73.1277 25.0995 73.1329 25.2415 73.1382 25.3879C73.1532 26.4185 73.1532 26.4185 72.8501 26.9465C72.3017 27.2466 71.8326 27.2846 71.2324 27.1562C70.7878 26.9457 70.4152 26.6657 70.027 26.3655C69.9148 26.2825 69.8026 26.1995 69.687 26.1141C69.448 25.937 69.21 25.7587 68.9729 25.5792C68.6143 25.3084 68.253 25.0419 67.8903 24.7767C67.2766 24.3276 66.6649 23.8757 66.0539 23.4229C65.5441 23.0456 65.0332 22.6699 64.5222 22.2942C64.0387 21.9385 63.5558 21.5819 63.0729 21.2253C62.7696 21.0017 62.4656 20.779 62.1615 20.5564C61.9931 20.4323 61.8247 20.3082 61.6564 20.184C61.4437 20.0279 61.4437 20.0279 61.2266 19.8687C60.7524 19.4789 60.5977 19.2235 60.5184 18.6121C60.6026 17.9147 60.8441 17.7044 61.3574 17.2812C61.5955 17.0629 61.8333 16.8443 62.071 16.6255C62.7437 16.0233 63.4355 15.4497 64.1372 14.8818C64.6575 14.4548 65.168 14.0176 65.6777 13.5781C66.4503 12.9125 67.2314 12.2597 68.0241 11.6181C68.3424 11.3563 68.6563 11.0919 68.968 10.8225C69.0559 10.7468 69.1438 10.6711 69.2344 10.5932C69.4033 10.4473 69.5716 10.3008 69.7392 10.1534C71.137 8.94922 71.137 8.94922 72.0328 8.94922ZM67.2541 15.821C66.2373 16.6951 65.2133 17.5636 64.1348 18.3613C64.3677 19.0007 64.817 19.2879 65.3595 19.6536C65.5536 19.7881 65.7474 19.9229 65.9411 20.058C66.0991 20.1677 66.0991 20.1677 66.2603 20.2797C66.903 20.7325 67.5338 21.2016 68.1658 21.6691C68.3549 21.8087 68.3549 21.8087 68.5479 21.9511C69.5078 22.6599 69.5078 22.6599 69.8636 22.9421C70.1357 23.1741 70.1357 23.1741 70.4609 23.1445C70.475 23.0049 70.475 23.0049 70.4893 22.8625C70.5022 22.7391 70.5151 22.6158 70.5284 22.4888C70.541 22.367 70.5535 22.2453 70.5664 22.1199C70.6572 21.4426 70.6572 21.4426 70.7695 21.1387C73.7913 20.1314 78.2903 21.2839 81.0821 22.6272C83.0474 23.6312 84.7105 25.2223 85.837 27.1237C85.9399 27.2926 85.9399 27.2926 86.0449 27.4648C86.0958 27.4648 86.1468 27.4648 86.1992 27.4648C86.3109 24.3535 85.8079 21.9464 83.7594 19.4944C80.8835 16.4132 76.7414 15.4109 72.6851 15.2671C71.5018 15.2054 71.5018 15.2054 70.8961 14.7619C70.5545 14.2605 70.4962 13.8697 70.4609 13.2695C69.621 13.2695 67.9344 15.2351 67.2541 15.821Z" fill="#2952CE"/>
</g>
<defs>
<clipPath id="clip0_2415_7615">
<rect width="79" height="79" fill="white" transform="translate(18)"/>
</clipPath>
</defs>
</svg>
