<svg width="108" height="100" viewBox="0 0 108 100" fill="none" xmlns="http://www.w3.org/2000/svg">
<path d="M103.432 21.034L102.784 19.9586C97.3005 10.8667 87.4131 5.38795 76.9872 6.05466C75.6429 6.13269 74.3062 6.31241 72.9885 6.59232C63.509 8.63813 55.261 15.867 51.8435 25.1256C49.8308 30.5694 49.271 36.8386 45.4456 41.1614C40.4819 46.7854 32.05 46.9601 24.6525 46.7289C17.2549 46.4977 8.80436 46.694 3.85932 52.3395C0.772342 55.8907 -0.211333 60.934 0.0365848 65.6547C0.6977 78.193 9.36684 89.406 20.3792 94.9789C31.3916 100.552 44.3713 101.049 56.4287 98.5974C73.3218 95.1644 89.3885 85.7338 99.044 71.1765C108.699 56.6193 111.144 36.7553 103.432 21.034Z" fill="#FFE7EC"/>
<g clip-path="url(#clip0_2415_7616)">
<path d="M57.4316 0.617285C58.8094 1.63 59.8721 2.88534 60.1722 4.60429C60.2664 5.45868 60.2043 6.25116 60.0547 7.09775C61.8493 8.23486 63.6964 9.28217 65.5384 10.3399C66.3857 10.8267 67.2318 11.3153 68.0781 11.8038C68.4124 11.9967 68.7467 12.1896 69.081 12.3824C71.0869 13.5396 71.0869 13.5396 71.5889 13.8293C71.9213 14.0211 72.2537 14.2128 72.5862 14.4045C73.3601 14.8509 74.1339 15.2974 74.9071 15.745C75.1783 15.902 75.4496 16.0589 75.7209 16.2157C76.0593 16.4115 76.3977 16.6073 76.7359 16.8034C77.7505 17.3899 78.773 17.9596 79.8047 18.5157C79.951 18.3757 80.0974 18.2357 80.2483 18.0914C81.4065 17.1096 82.7775 16.7727 84.2793 16.8185C85.8815 17.0299 87.3841 17.6848 88.3971 18.9798C89.3827 20.4759 89.67 21.8246 89.5254 23.6075C89.1535 25.246 88.2428 26.4819 86.9023 27.4649C86.1385 27.7704 86.1385 27.7704 85.3593 28.0821C85.3593 35.618 85.3593 43.1538 85.3593 50.9181C85.8685 51.1217 86.3777 51.3254 86.9023 51.5353C88.214 52.3958 88.9913 53.599 89.4693 55.0799C89.7711 56.764 89.4999 58.3279 88.5706 59.7516C87.6093 61.0347 86.3608 61.8009 84.7837 62.11C83.0014 62.3287 81.4121 61.8689 79.9909 60.7677C79.8785 60.6743 79.7661 60.5808 79.6504 60.4845C79.5608 60.537 79.4712 60.5895 79.379 60.6436C77.5207 61.7323 75.6583 62.8128 73.7871 63.879C72.2873 64.7337 70.7927 65.5965 69.3028 66.4683C68.177 67.1268 67.0481 67.7798 65.9179 68.4308C64.5502 69.2189 63.1837 70.0091 61.8194 70.8031C61.6596 70.8959 61.4998 70.9886 61.3351 71.0842C61.1892 71.1693 61.0434 71.2543 60.893 71.3419C60.7642 71.4169 60.6354 71.4918 60.5027 71.5691C60.2184 71.7265 60.2184 71.7265 60.0547 71.9024C60.0769 72.0329 60.0992 72.1634 60.1222 72.2978C60.3659 73.7873 60.1445 75.1886 59.341 76.4831C58.4699 77.6804 57.3706 78.698 55.8886 79.0001C54.1686 79.1846 52.5967 79.1388 51.1657 78.087C49.8832 77.015 48.9715 75.7527 48.791 74.0626C48.7455 73.3121 48.7845 72.6382 48.9453 71.9024C48.1032 71.2967 47.2207 70.7804 46.3126 70.2823C45.2063 69.6753 44.1126 69.0499 43.0241 68.4115C41.6598 67.6117 40.2901 66.8219 38.916 66.0392C37.1112 65.0106 35.3145 63.9688 33.5219 62.9192C32.6717 62.4217 31.8206 61.9257 30.9697 61.4295C30.6563 61.2467 30.3429 61.0639 30.0294 60.8811C29.8979 60.8043 29.7663 60.7276 29.6307 60.6485C29.538 60.5944 29.4452 60.5402 29.3496 60.4845C29.2288 60.5785 29.2288 60.5785 29.1057 60.6744C27.6657 61.7785 26.2829 62.2756 24.45 62.1534C22.9257 61.9431 21.5975 61.2642 20.6318 60.0547C19.6176 58.5572 19.3287 57.1903 19.4746 55.3927C19.8465 53.7542 20.7572 52.5183 22.0976 51.5353C22.8614 51.2297 22.8614 51.2297 23.6406 50.9181C23.6406 43.3822 23.6406 35.8463 23.6406 28.0821C23.1314 27.8785 22.6222 27.6748 22.0976 27.4649C20.7859 26.6044 20.0086 25.4012 19.5306 23.9203C19.2383 22.289 19.4888 20.7263 20.3618 19.3258C21.281 18.0421 22.4535 17.2562 23.9974 16.9245C25.5587 16.6852 27.1267 16.8854 28.4362 17.8188C28.7429 18.0483 29.0473 18.2803 29.3496 18.5157C29.4501 18.4577 29.5506 18.3997 29.6542 18.34C29.9601 18.1635 30.266 17.987 30.572 17.8105C30.9322 17.6027 31.2923 17.3949 31.6525 17.1871C32.5651 16.6605 33.4778 16.1341 34.3907 15.6082C35.9982 14.682 37.604 13.7531 39.2053 12.8164C40.5504 12.0295 41.9015 11.2538 43.2556 10.4826C44.6273 9.70124 45.9946 8.91287 47.3541 8.11033C47.498 8.02548 47.6419 7.94064 47.7902 7.85323C48.4016 7.52124 48.4016 7.52124 48.9453 7.09775C48.9119 6.945 48.9119 6.945 48.8778 6.78916C48.5974 5.29405 48.8542 3.81583 49.6589 2.51707C51.38 0.151622 54.7717 -1.10795 57.4316 0.617285ZM51.9734 3.76108C51.4584 4.59286 51.3452 5.35333 51.4857 6.30517C51.7178 7.23181 52.3741 7.79054 53.1113 8.33213C53.7516 8.68596 54.399 8.74559 55.1171 8.64072C56.0759 8.34033 56.7239 7.77085 57.2773 6.94346C57.6659 6.16629 57.6307 5.45719 57.4316 4.629C57.0912 3.76951 56.55 3.23596 55.7657 2.76539C54.3056 2.15443 53.0114 2.72299 51.9734 3.76108ZM49.5034 9.92934C49.2934 10.0483 49.2934 10.0483 49.0792 10.1698C48.9268 10.2571 48.7744 10.3444 48.6174 10.4344C48.4587 10.5247 48.3001 10.6151 48.1366 10.7081C46.7115 11.5215 45.2944 12.3486 43.8782 13.1774C42.397 14.0437 40.9093 14.8987 39.4224 15.7552C38.5848 16.2378 37.7475 16.721 36.9101 17.2042C36.7473 17.2981 36.5846 17.392 36.4169 17.4887C35.6301 17.9425 34.8435 18.3965 34.0571 18.8508C33.6837 19.0665 33.3103 19.2821 32.9369 19.4977C32.6719 19.6508 32.4069 19.804 32.142 19.9571C31.9827 20.0491 31.8233 20.1411 31.6592 20.2359C31.5183 20.3173 31.3774 20.3987 31.2322 20.4826C31.0191 20.6039 30.8032 20.7205 30.5839 20.8302C30.5839 21.9504 30.5839 23.0706 30.5839 24.2247C30.827 24.3649 31.0701 24.5052 31.3205 24.6496C35.4654 27.0409 35.4654 27.0409 39.6103 29.4322C39.8587 29.5755 39.8587 29.5755 40.112 29.7217C40.4455 29.914 40.7789 30.1064 41.1123 30.2988C41.9615 30.7887 42.8107 31.2786 43.66 31.7684C43.8313 31.8672 44.0025 31.9661 44.179 32.0679C44.5179 32.2633 44.8571 32.4582 45.1966 32.6526C45.9668 33.0944 46.7316 33.5413 47.4855 34.0105C47.6173 34.0911 47.749 34.1717 47.8848 34.2548C48.1259 34.4027 48.3652 34.5535 48.6023 34.7077C49.427 35.2093 50.0137 35.2368 50.9511 35.0255C50.8493 34.9332 50.7475 34.8409 50.6425 34.7458C48.6663 32.7528 47.7077 30.2926 47.6627 27.5035C47.7084 25.584 48.1318 23.6696 49.5239 22.2526C50.5276 21.3273 51.4949 20.8286 52.8358 20.5825C53.1136 20.547 53.1136 20.547 53.2656 20.3673C53.2801 20.0785 53.2837 19.7891 53.2831 19.4999C53.2831 19.3146 53.2831 19.1293 53.2831 18.9383C53.2823 18.7366 53.2815 18.5349 53.2807 18.3271C53.2804 18.1197 53.2801 17.9124 53.28 17.705C53.2794 17.1584 53.2779 16.6118 53.2762 16.0651C53.2746 15.5077 53.2739 14.9502 53.2731 14.3928C53.2715 13.2984 53.2688 12.2039 53.2656 11.1095C53.1384 11.0588 53.0112 11.0082 52.8802 10.956C52.7134 10.8883 52.5466 10.8206 52.3748 10.7509C52.2094 10.6843 52.044 10.6177 51.8737 10.5491C51.3115 10.2909 50.94 9.98261 50.4882 9.5665C50.0738 9.5665 49.8639 9.72416 49.5034 9.92934ZM57.4159 10.3651C56.9687 10.6466 56.9687 10.6466 55.7343 11.1095C55.7343 14.1646 55.7343 17.2196 55.7343 20.3673C56.0398 20.4691 56.3454 20.571 56.6601 20.6759C58.3671 21.2645 59.6917 22.1149 60.5465 23.7618C61.5809 25.96 61.5666 28.5664 60.8261 30.8595C60.2439 32.3344 59.5079 33.6096 58.3574 34.7169C58.2046 34.8696 58.2046 34.8696 58.0488 35.0255C59.2385 35.3276 59.8513 35.0457 60.8916 34.4333C61.0723 34.3221 61.253 34.2109 61.4337 34.0997C61.6246 33.9858 61.8157 33.8723 62.0071 33.7592C62.4003 33.5262 62.7924 33.2914 63.1838 33.0553C64.0425 32.5383 64.9133 32.0425 65.7829 31.5442C66.1141 31.353 66.4452 31.1618 66.7762 30.9704C67.4446 30.5842 68.1132 30.1984 68.7821 29.8131C70.1072 29.0497 71.4322 28.2862 72.7534 27.5162C72.911 27.4245 73.0686 27.3328 73.231 27.2384C73.5408 27.0569 73.8497 26.8738 74.1575 26.6889C74.8806 26.2572 75.5937 25.8631 76.3673 25.529C77.5083 25.0401 77.5083 25.0401 78.416 24.2247C78.7506 23.1218 78.5991 21.9505 78.416 20.8302C78.2613 20.7441 78.2613 20.7441 78.1035 20.6564C74.6188 18.7163 74.6188 18.7163 72.9517 17.7272C71.9777 17.1498 70.9975 16.5833 70.0164 16.018C69.8456 15.9196 69.6748 15.8212 69.4987 15.7197C69.1484 15.5179 68.798 15.3161 68.4476 15.1143C67.6041 14.6285 66.7611 14.1419 65.9179 13.6554C65.5874 13.4647 65.257 13.274 64.9265 13.0834C64.3125 12.7292 63.6986 12.375 63.0848 12.0207C62.8088 11.8614 62.5327 11.7021 62.2567 11.5428C61.9103 11.3429 61.564 11.143 61.2176 10.9431C60.9118 10.7666 60.6058 10.5904 60.2997 10.4143C60.0519 10.2712 59.8046 10.1271 59.5582 9.9814C58.5319 9.37796 58.3179 9.68654 57.4159 10.3651ZM81.8491 20.1744C81.1097 20.9138 80.8449 21.4823 80.7979 22.5178C80.8318 23.4215 81.0408 24.0229 81.6562 24.6876C82.3457 25.3032 82.9195 25.5613 83.8357 25.6712C84.7664 25.5812 85.6211 25.2581 86.2411 24.5321C86.7762 23.6915 87.0285 22.9176 86.9023 21.9103C86.6081 20.9622 86.0385 20.2802 85.205 19.7501C83.9219 19.2716 82.9742 19.4584 81.8491 20.1744ZM23.1693 20.1835C22.4146 21.0117 22.0243 21.6762 22.059 22.8282C22.173 23.763 22.6202 24.411 23.332 24.9962C24.0959 25.4883 24.7214 25.7311 25.6464 25.6134C26.6153 25.2904 27.3355 24.8119 27.9416 23.9836C28.2446 23.0578 28.3274 22.1095 27.9452 21.1948C27.3227 20.1878 26.6682 19.731 25.5114 19.4511C24.6244 19.3859 23.8424 19.591 23.1693 20.1835ZM51.3134 23.9698C50.2427 25.2825 50.0776 26.7572 50.1797 28.3907C50.3995 30.0687 50.9873 31.743 52.3687 32.8075C52.5605 32.9363 52.7566 33.059 52.957 33.1739C53.0531 33.2308 53.1491 33.2877 53.2481 33.3463C54.0644 33.6873 55.0315 33.6242 55.8519 33.3294C57.3133 32.5371 58.053 31.2366 58.5563 29.6944C59.0354 28.0436 59.0182 26.217 58.1874 24.6822C57.6401 23.8505 56.9086 23.2815 55.926 23.0392C54.3357 22.8147 52.5631 22.8244 51.3134 23.9698ZM28.6552 26.8767C28.1152 27.3106 28.1152 27.3106 26.4179 28.0821C26.4179 35.618 26.4179 43.1538 26.4179 50.9181C27.4872 51.4527 27.4872 51.4527 28.5781 51.9981C28.7308 52.1509 28.8836 52.3036 29.041 52.461C29.6544 52.4261 30.1017 52.174 30.6243 51.8667C30.7822 51.7747 30.9402 51.6827 31.1029 51.5878C31.2721 51.4877 31.4414 51.3876 31.6158 51.2845C31.7943 51.1801 31.9728 51.0758 32.1514 50.9716C32.5231 50.7545 32.8945 50.537 33.2658 50.3191C33.972 49.9051 34.6812 49.4962 35.3915 49.089C35.7286 48.8941 36.0642 48.6966 36.3982 48.4964C37.1632 48.0412 37.894 47.6384 38.734 47.3397C39.9234 46.8904 39.9234 46.8904 40.7675 45.9806C41.0663 44.6567 40.994 43.3195 40.9309 41.9731C40.8646 40.5478 41.1853 39.4595 42.1562 38.3911C43.1825 37.314 44.4827 36.6374 45.8593 36.1056C45.2411 35.575 44.5952 35.1968 43.8824 34.8133C42.7626 34.2011 41.6561 33.5691 40.5554 32.9232C39.1911 32.1234 37.8214 31.3336 36.4472 30.5509C34.741 29.5788 33.0422 28.5946 31.3476 27.6024C31.216 27.5257 31.0844 27.449 30.9488 27.37C30.7177 27.2347 30.4874 27.098 30.2583 26.9596C29.4419 26.4464 29.4419 26.4464 28.6552 26.8767ZM78.6468 26.9978C78.3876 27.147 78.3876 27.147 78.1232 27.2993C77.9347 27.4091 77.7462 27.519 77.5577 27.6289C77.3626 27.7417 77.1675 27.8543 76.9723 27.9669C76.5699 28.1993 76.1678 28.4321 75.766 28.6655C75.2207 28.9821 74.6743 29.2969 74.1276 29.6112C72.3761 30.6185 70.6294 31.6338 68.8853 32.6539C66.9785 33.7671 65.0593 34.8588 63.1406 35.9513C63.5352 36.3459 63.9446 36.4991 64.4521 36.7324C66.0946 37.529 67.2519 38.5404 67.9238 40.2716C68.0792 40.7379 68.0688 41.0528 68.0286 41.5355C67.759 44.072 67.759 44.072 68.5276 46.3891C69.3394 47.0585 70.3011 47.4151 71.2776 47.7819C72.1039 48.1175 72.8442 48.5839 73.6038 49.0472C73.9091 49.226 74.2147 49.4042 74.5206 49.5818C75.1177 49.9307 75.7131 50.2822 76.3073 50.6361C76.6757 50.8551 77.045 51.0726 77.4144 51.2898C77.6783 51.4457 77.941 51.6036 78.2037 51.7615C78.3637 51.8553 78.5236 51.9491 78.6884 52.0458C78.8297 52.1298 78.9709 52.2138 79.1165 52.3004C79.48 52.4901 79.48 52.4901 79.8352 52.4267C80.1386 52.3118 80.1386 52.3118 80.4315 52.0367C80.8847 51.6895 80.8847 51.6895 82.582 50.9181C82.582 43.3822 82.582 35.8463 82.582 28.0821C81.8691 27.7257 81.1563 27.3693 80.4218 27.0021C80.2691 26.8493 80.1163 26.6965 79.959 26.5392C79.384 26.5392 79.1432 26.7102 78.6468 26.9978ZM48.791 37.9571C48.5965 38.0019 48.4019 38.0466 48.2015 38.0927C46.5644 38.5153 44.6565 39.1441 43.6803 40.6085C43.3604 41.1879 43.3158 41.6595 43.3205 42.3256C43.3204 42.4326 43.3203 42.5396 43.3202 42.6499C43.3207 42.9998 43.3255 43.3494 43.3303 43.6993C43.3315 43.9433 43.3323 44.1874 43.333 44.4315C43.3353 45.071 43.3414 45.7104 43.3482 46.3499C43.3545 47.0036 43.3573 47.6573 43.3605 48.311C43.3671 49.5915 43.3779 50.872 43.3906 52.1524C44.358 52.1524 45.3255 52.1524 46.3222 52.1524C46.3245 51.9228 46.3267 51.6931 46.329 51.4565C46.338 50.6038 46.3499 49.7513 46.3627 48.8987C46.3679 48.5298 46.3722 48.1609 46.3757 47.7919C46.3809 47.2614 46.3889 46.731 46.3976 46.2006C46.3986 46.0358 46.3995 45.871 46.4006 45.7013C46.4298 44.2247 46.4298 44.2247 46.9394 43.6661C47.4844 43.5175 47.847 43.4528 48.386 43.6372C48.6367 43.8204 48.6367 43.8204 48.791 44.129C48.8093 44.3857 48.8183 44.6432 48.8227 44.9006C48.8258 45.0634 48.8289 45.2263 48.8321 45.3941C48.8346 45.5657 48.8372 45.7374 48.8398 45.9143C48.8427 46.0717 48.8456 46.2291 48.8485 46.3913C48.8591 46.9808 48.8683 47.5704 48.8778 48.16C48.9 49.4775 48.9223 50.795 48.9453 52.1524C52.6114 52.1524 56.2775 52.1524 60.0547 52.1524C60.0932 49.5328 60.0932 49.5328 60.1284 46.9131C60.1338 46.5852 60.1394 46.2572 60.1451 45.9293C60.1468 45.7585 60.1486 45.5876 60.1504 45.4115C60.1535 45.2487 60.1566 45.0859 60.1598 44.9181C60.1618 44.7766 60.1639 44.6351 60.166 44.4893C60.209 44.129 60.209 44.129 60.5175 43.6661C61.5835 43.4254 61.5835 43.4254 62.128 43.7047C62.5395 44.1656 62.5447 44.6072 62.5551 45.1983C62.5597 45.43 62.5597 45.43 62.5644 45.6663C62.567 45.8326 62.5696 45.999 62.5722 46.1704C62.5754 46.341 62.5786 46.5116 62.5819 46.6873C62.592 47.2329 62.6011 47.7784 62.6102 48.3239C62.6169 48.6935 62.6236 49.0631 62.6304 49.4327C62.6469 50.3392 62.6625 51.2458 62.6777 52.1524C63.6451 52.1524 64.6126 52.1524 65.6093 52.1524C65.6303 50.7481 65.6473 49.3438 65.6573 47.9393C65.6621 47.287 65.6686 46.6348 65.6792 45.9826C65.6893 45.3523 65.6948 44.7222 65.6972 44.0918C65.6989 43.8522 65.7022 43.6126 65.7072 43.373C65.7354 41.971 65.7 40.8699 64.6836 39.8087C62.1152 37.6018 57.7332 37.4585 54.5289 37.4557C54.4081 37.4555 54.2873 37.4554 54.1629 37.4552C52.333 37.4568 50.5793 37.5379 48.791 37.9571ZM39.6923 49.4914C39.5328 49.584 39.3733 49.6766 39.209 49.772C39.0359 49.8733 38.8628 49.9747 38.6845 50.0791C38.5047 50.1837 38.3249 50.2883 38.145 50.3928C37.7691 50.6112 37.3934 50.83 37.0179 51.0489C36.1159 51.5743 35.2109 52.0944 34.3064 52.6153C33.8362 52.8862 33.3663 53.1571 32.8993 53.4335C32.4355 53.6954 32.4355 53.6954 31.9114 53.9408C30.9788 54.3654 30.9788 54.3654 30.4385 55.1786C30.4013 55.6462 30.4209 56.0738 30.4682 56.5403C30.4766 56.6973 30.4849 56.8543 30.4935 57.0161C30.5153 57.4021 30.5456 57.7854 30.5839 58.17C30.7301 58.2512 30.7301 58.2512 30.8793 58.334C33.0013 59.5139 35.11 60.713 37.2049 61.9406C38.1778 62.5107 39.1541 63.0749 40.1311 63.6379C40.2977 63.734 40.4644 63.83 40.6361 63.929C40.974 64.1237 41.3119 64.3183 41.6498 64.513C42.3207 64.8996 42.9915 65.2865 43.6621 65.6737C43.9932 65.8646 44.3245 66.0552 44.656 66.2455C45.4434 66.698 46.2284 67.1536 47.0072 67.6206C47.3768 67.8419 47.7475 68.0615 48.1183 68.281C48.381 68.4374 48.642 68.5965 48.9031 68.7556C49.0614 68.8491 49.2197 68.9426 49.3829 69.0389C49.5918 69.1647 49.5918 69.1647 49.805 69.293C50.172 69.4762 50.172 69.4762 50.5152 69.3179C50.6082 69.2543 50.7011 69.1907 50.7968 69.1251C50.9174 69.0519 51.0379 68.9787 51.1621 68.9033C51.4195 68.7429 51.6766 68.5822 51.9336 68.4211C52.3398 68.1993 52.3398 68.1993 53.2656 67.8907C53.2656 63.5627 53.2656 59.2347 53.2656 54.7755C49.485 54.737 49.485 54.737 45.7043 54.7017C44.9725 54.6933 44.9725 54.6933 44.6298 54.689C44.3908 54.6863 44.1518 54.6842 43.9127 54.6825C43.5504 54.6799 43.188 54.6753 42.8257 54.6704C42.7195 54.6701 42.6133 54.6697 42.5039 54.6694C41.9553 54.6597 41.5346 54.6285 41.0761 54.3126C40.849 53.8583 40.8851 53.3925 40.873 52.8938C40.8698 52.7846 40.8666 52.6755 40.8633 52.563C40.8532 52.214 40.8441 51.865 40.835 51.516C40.8284 51.2795 40.8217 51.043 40.8149 50.8066C40.7983 50.2266 40.7827 49.6465 40.7675 49.0665C40.3237 49.0665 40.0751 49.268 39.6923 49.4914ZM68.2324 49.0665C68.2293 49.2136 68.2263 49.3608 68.2231 49.5124C68.2114 50.0585 68.1977 50.6046 68.1834 51.1506C68.1775 51.3869 68.1721 51.6232 68.1673 51.8596C68.1602 52.1993 68.1513 52.539 68.142 52.8787C68.1402 52.9843 68.1384 53.0899 68.1366 53.1988C68.1193 53.7547 68.0867 53.991 67.7695 54.4669C67.2336 54.6455 66.7495 54.6482 66.1918 54.6529C66.077 54.6544 65.9622 54.656 65.844 54.6576C65.4727 54.6624 65.1013 54.6662 64.73 54.67C64.5007 54.6728 64.2713 54.6758 64.042 54.6787C63.1919 54.6893 62.3417 54.6986 61.4915 54.708C59.5917 54.7303 57.6918 54.7525 55.7343 54.7755C55.7343 59.1035 55.7343 63.4315 55.7343 67.8907C56.3454 68.1453 56.9564 68.3999 57.5859 68.6622C57.7577 68.8118 57.9296 68.9613 58.1067 69.1154C58.2403 69.2205 58.374 69.3255 58.5117 69.4337C59.4561 69.2501 60.2806 68.657 61.0962 68.1704C61.43 67.9734 61.7639 67.7765 62.0979 67.5797C62.2701 67.478 62.4423 67.3762 62.6197 67.2714C63.4525 66.7814 64.2897 66.2993 65.1272 65.8174C65.4643 65.6231 65.8014 65.4288 66.1385 65.2345C66.306 65.1381 66.4734 65.0416 66.6459 64.9423C67.4835 64.4596 68.3208 63.9764 69.1582 63.4933C69.4915 63.301 69.8248 63.1087 70.1581 62.9165C70.8369 62.5249 71.5155 62.1331 72.1941 61.7411C74.265 60.5453 76.3388 59.3549 78.416 58.17C78.416 57.0498 78.416 55.9296 78.416 54.7755C78.0084 54.5403 77.6007 54.3052 77.1931 54.07C76.8345 53.8631 76.4758 53.6561 76.1171 53.4492C75.271 52.961 74.4249 52.4729 73.5787 51.985C73.3117 51.8311 73.0447 51.6772 72.7777 51.5232C72.4447 51.3312 72.1117 51.1392 71.7786 50.9473C71.5466 50.8135 71.5466 50.8135 71.3099 50.677C71.085 50.5475 71.085 50.5475 70.8556 50.4154C70.5278 50.2251 70.2011 50.0328 69.8753 49.8392C69.7082 49.7401 69.5412 49.6411 69.3691 49.539C69.142 49.4033 69.142 49.4033 68.9104 49.2648C68.5655 49.0422 68.5655 49.0422 68.2324 49.0665ZM22.6377 54.5344C22.1613 55.3481 21.9577 56.1478 22.0976 57.0899C22.3963 58.0414 22.9609 58.7134 23.7949 59.2501C24.577 59.5771 25.2957 59.6581 26.1093 59.4044C26.9719 58.993 27.6521 58.4938 28.0236 57.5944C28.2717 56.6462 28.2906 55.7383 27.797 54.8719C27.2498 54.1148 26.5708 53.571 25.6464 53.3868C24.4743 53.2462 23.469 53.7239 22.6377 54.5344ZM81.3476 54.6212C80.8227 55.3386 80.7876 56.0642 80.8112 56.929C80.9489 57.8082 81.3941 58.4378 82.0691 59.0042C82.8193 59.4871 83.6066 59.6357 84.4739 59.5069C85.4692 59.2466 86.0158 58.6921 86.5937 57.8614C86.9592 57.2257 86.9901 56.5753 86.9023 55.8556C86.564 54.8051 86.0283 54.1773 85.07 53.6472C83.6463 52.9901 82.4105 53.5825 81.3476 54.6212ZM51.9064 71.7819C51.4112 72.5223 51.3609 73.1668 51.4851 74.0252C51.7018 74.9262 52.1887 75.5499 52.957 76.0685C53.7286 76.5314 54.5537 76.4866 55.4257 76.377C56.2162 76.0685 56.83 75.5566 57.2773 74.8341C57.6206 73.984 57.6521 73.2457 57.4316 72.3653C56.9858 71.5067 56.3668 70.9323 55.5222 70.4655C54.0131 70.0703 52.8455 70.5742 51.9064 71.7819Z" fill="#EC6980"/>
</g>
<defs>
<clipPath id="clip0_2415_7616">
<rect width="79" height="79" fill="white" transform="translate(15)"/>
</clipPath>
</defs>
</svg>
