<svg width="108" height="108" viewBox="0 0 108 108" fill="none" xmlns="http://www.w3.org/2000/svg">
<path d="M96.552 24.9612C102.419 38.2906 99.7337 52.7194 91.571 64.7786C83.4084 76.8379 69.8242 84.6506 55.5423 87.4867C45.347 89.5171 34.3742 89.1024 25.0646 84.4908C15.7551 79.8792 8.42401 70.5955 7.86241 60.2146C7.64641 56.2942 8.48449 52.1318 11.1024 49.1986C15.2799 44.5222 22.4122 44.358 28.6783 44.5524C34.9445 44.7468 42.0703 44.5978 46.2694 39.943C49.4964 36.3638 49.9716 31.1755 51.6694 26.6676C54.5594 19.0082 61.5319 13.025 69.552 11.3316C77.3842 9.67704 85.968 12.1697 91.7114 17.7338C91.9577 17.9714 92.2147 18.1982 92.4739 18.4229C93.1522 19.019 95.4353 22.4275 96.552 24.9612Z" fill="#E7EDFF"/>
<path d="M95.4189 57.1641C101.054 51.5293 101.054 42.3935 95.4189 36.7587C89.7841 31.1239 80.6483 31.1239 75.0135 36.7587C69.3787 42.3935 69.3787 51.5293 75.0135 57.1641C80.6483 62.7989 89.7841 62.7989 95.4189 57.1641Z" fill="#E0E0E0"/>
<path d="M67.3919 85.1277C67.0506 93.8045 60.6592 100.986 51.976 101.155C47.8064 101.236 43.7754 99.6573 40.7697 96.7662C37.7641 93.8752 36.0299 89.9086 35.9488 85.739C35.7803 77.0558 42.7053 69.0444 51.3647 69.7118C60.5966 70.416 67.7008 77.2092 67.3919 85.1277Z" fill="#E0E0E0"/>
<path d="M37.9017 43.6337C43.647 37.8884 43.647 28.5735 37.9017 22.8282C32.1564 17.0829 22.8414 17.0829 17.0961 22.8282C11.3508 28.5735 11.3508 37.8884 17.0961 43.6337C22.8414 49.379 32.1564 49.379 37.9017 43.6337Z" fill="#E0E0E0"/>
<path d="M83.3543 50.3628C83.5832 50.5788 78.0083 56.9897 70.904 64.6922C63.7998 72.3948 57.8533 78.4709 57.6244 78.2592C57.3954 78.0475 62.9704 71.6345 70.0768 63.9298C77.1832 56.225 83.1253 50.1511 83.3543 50.3628Z" fill="#E0E0E0"/>
<path d="M80.3972 39.8994C80.3303 40.204 70.5066 38.3226 58.456 35.7004C46.4053 33.0781 36.6875 30.7064 36.7523 30.404C36.8171 30.1016 46.6408 31.9787 58.6957 34.6031C70.7507 37.2275 80.4642 39.597 80.3972 39.8994Z" fill="#E0E0E0"/>
<path d="M44.5824 75.4402C44.4528 75.5201 42.9257 73.3342 40.6123 69.7011C38.2989 66.068 35.208 60.9812 31.968 55.2701C28.728 49.5591 25.92 44.3038 23.976 40.459C22.032 36.6142 20.9261 34.1864 21.06 34.128C21.1939 34.0697 22.5504 36.3507 24.6672 40.0961C26.784 43.8416 29.7065 49.0126 32.9357 54.7258L41.2927 69.3015C43.4289 73.0232 44.712 75.356 44.5824 75.4402Z" fill="#E0E0E0"/>
<path d="M90.6336 27.0713C90.7071 28.3046 90.7935 28.6783 91.2492 29.6633C91.5214 30.2465 91.8972 30.7865 92.0528 31.4107C92.2083 32.035 92.1197 32.6333 92.2277 33.2338C92.407 34.2144 93.0571 35.0309 93.5475 35.8992C94.0378 36.7675 94.3639 37.8691 93.8801 38.7396L88.8819 38.1499L88.5298 31.9464L90.6336 27.0713Z" fill="#263238"/>
<path d="M80.6976 24.9673C80.0496 26.341 80.9503 27.7126 80.3023 29.0842C79.9581 29.7536 79.6852 30.4573 79.488 31.1838C79.3346 31.8318 79.3022 32.5381 79.0344 33.1602C78.6024 34.1516 77.6326 34.8212 77.1811 35.8018C76.5137 37.2555 77.2243 39.0764 78.4987 40.0419C79.7731 41.0074 81.4709 41.245 83.0671 41.1349C84.0326 41.0658 85.0111 40.8735 85.847 40.3767C86.683 39.8799 87.3461 39.0375 87.4519 38.0742" fill="#263238"/>
<path d="M88.1086 22.5244C91.3227 23.95 91.962 29.2312 91.9793 29.944C91.9987 30.7907 92.4502 30.9679 93.0139 31.4107C93.5777 31.8535 94.1242 32.3913 94.2797 33.0803C94.4028 33.6225 94.2797 34.2208 94.5324 34.7155C94.8413 35.3051 95.5757 35.5233 96.1438 35.8883C97.2238 36.5774 97.7508 37.8734 97.8091 39.1283C97.8675 40.3833 97.5262 41.6102 97.1849 42.8155C97.0488 43.295 96.8825 43.8177 96.4483 44.0791C96.1135 44.2799 95.6945 44.2778 95.3014 44.2691L89.1929 44.1331C87.6355 44.0985 86.0371 44.0553 84.5986 43.4851C83.4222 43.0244 82.4302 42.1895 81.7755 41.1091C81.4584 40.5781 81.25 39.9894 81.1625 39.3772C81.075 38.7649 81.1101 38.1414 81.2657 37.5429C81.5206 36.6271 82.0757 35.7998 82.2377 34.8645C82.4364 33.7046 81.4644 33.2099 81.1123 32.0846C80.7603 30.9592 80.4643 28.2657 80.9503 27.1879" fill="#263238"/>
<path d="M91.7827 51.6454L90.7783 48.427L90.6336 53.3518C90.6336 53.3518 91.9296 56.7106 92.9275 59.2766C90.626 60.648 88.0004 61.3807 85.3214 61.3993C82.6424 61.4179 80.0069 60.7217 77.6865 59.3825L79.2331 53.8248L78.4965 47.5198L76.464 50.4466L72.1116 46.2389C72.1116 46.2389 75.2976 40.3529 75.6928 39.815C78.2136 36.3893 82.5638 36.4714 82.5638 36.4714L88.722 36.8126C88.722 36.8126 92.178 36.6204 94.4589 39.3593C94.4589 39.3593 96.6816 42.7526 98.5068 51.1248L91.7827 51.6454Z" fill="#2059EE"/>
<path d="M94.8629 40.2797C94.8338 40.2869 94.8042 40.292 94.7743 40.2948C94.7138 40.2948 94.6253 40.3077 94.5108 40.3293C94.1733 40.383 93.8434 40.4766 93.528 40.608C93.031 40.8178 92.5765 41.1164 92.1866 41.4893C91.9398 41.7203 91.7222 41.9807 91.5386 42.2647C91.3268 42.5766 91.1752 42.9253 91.0915 43.2929C91.0526 43.489 91.0593 43.6915 91.1109 43.8847C91.1719 44.0832 91.2964 44.2562 91.4652 44.3772C91.5496 44.4406 91.6483 44.4824 91.7526 44.4989C91.8568 44.5155 91.9636 44.5063 92.0635 44.4722C92.1644 44.4278 92.2541 44.3612 92.3259 44.2775C92.3977 44.1937 92.4497 44.0949 92.4782 43.9884C92.5478 43.7665 92.5309 43.5265 92.4307 43.3166C92.3218 43.0999 92.1607 42.9136 91.962 42.7745C91.5412 42.4762 91.0497 42.293 90.5364 42.2431C89.9936 42.1899 89.4458 42.2383 88.9207 42.3857C88.3683 42.5255 87.8388 42.7437 87.3482 43.0337C86.8418 43.339 86.4012 43.7421 86.0522 44.2195C85.8729 44.4573 85.765 44.7413 85.7412 45.0381C85.7368 45.1841 85.7751 45.3283 85.8513 45.4529C85.9322 45.578 86.0399 45.6835 86.1667 45.7617H86.1559C86.2925 45.8216 86.4465 45.8286 86.5879 45.7812C86.7288 45.7125 86.8401 45.5951 86.9011 45.4507C87.033 45.1396 87.0949 44.8034 87.0825 44.4657C87.0888 44.1312 87.0346 43.7983 86.9227 43.4829C86.8032 43.1744 86.6157 42.8968 86.3741 42.6708C85.8998 42.2271 85.2924 41.9522 84.6461 41.8889C84.0179 41.836 83.3856 41.9094 82.7863 42.1049C82.2009 42.2863 81.6156 42.5239 81.2397 42.9689C81.1431 43.0689 81.0686 43.1881 81.0208 43.3188C80.9731 43.4495 80.9533 43.5887 80.9626 43.7275C80.972 43.8662 81.0103 44.0015 81.0752 44.1246C81.14 44.2477 81.2299 44.3558 81.3391 44.442C81.4398 44.5263 81.5629 44.5796 81.6933 44.5953C81.8206 44.6093 81.9489 44.5787 82.0562 44.5089C82.1592 44.4342 82.2439 44.3371 82.3038 44.2248C82.3637 44.1125 82.3972 43.9881 82.4018 43.8609C82.4232 43.6073 82.3946 43.3519 82.3176 43.1093C82.2787 42.9905 82.2269 42.876 82.1837 42.7593C82.1599 42.7032 82.1405 42.6427 82.1124 42.5887L82.026 42.4267C81.8073 42.0138 81.5253 41.6377 81.1901 41.3121C80.6106 40.7495 79.908 40.3294 79.1381 40.0853C78.5587 39.8965 77.9495 39.816 77.3409 39.8477C76.9561 39.8718 76.5758 39.9443 76.2091 40.0637L75.9261 40.1652L75.8268 40.1954L75.9218 40.1544L76.2005 40.0421C76.5673 39.9147 76.9493 39.8363 77.3366 39.8088C77.9517 39.7681 78.569 39.8413 79.1575 40.0248C79.9395 40.267 80.654 40.6886 81.2441 41.256C81.5914 41.5832 81.8832 41.9648 82.1081 42.3857L82.1988 42.5498C82.2269 42.606 82.2463 42.6665 82.2701 42.7248C82.3176 42.8436 82.3694 42.9602 82.4105 43.0833C82.4918 43.337 82.5226 43.6041 82.5012 43.8696C82.4968 44.0121 82.4596 44.1517 82.3926 44.2776C82.3255 44.4034 82.2304 44.5122 82.1145 44.5953C81.9864 44.6776 81.8339 44.7135 81.6825 44.6969C81.534 44.6796 81.3937 44.6196 81.2786 44.5241C81.0438 44.3317 80.894 44.0548 80.8617 43.7529C80.8454 43.5994 80.8677 43.4442 80.9265 43.3015C80.9834 43.1591 81.0621 43.0265 81.1598 42.9084C81.5594 42.431 82.1621 42.1891 82.7539 42.0055C83.367 41.8051 84.0145 41.7316 84.6569 41.7895C85.3305 41.8524 85.9642 42.1373 86.4583 42.5995C86.7108 42.8369 86.9071 43.1276 87.0329 43.4505C87.1502 43.7789 87.2073 44.1257 87.2013 44.4744C87.2138 44.8292 87.1482 45.1824 87.0091 45.509C86.9359 45.6786 86.8029 45.8155 86.6354 45.8935C86.4653 45.954 86.2785 45.9478 86.1127 45.8762C85.9713 45.7901 85.8516 45.6726 85.7628 45.5328C85.6749 45.3911 85.6313 45.2264 85.6375 45.0597C85.661 44.7404 85.7757 44.4345 85.968 44.1785C86.3279 43.6891 86.7817 43.2765 87.3029 42.9645C87.8032 42.667 88.3437 42.4429 88.9077 42.2993C89.4449 42.1496 90.0053 42.1013 90.5601 42.1567C91.0903 42.2097 91.5974 42.4003 92.0311 42.7097C92.2416 42.8594 92.4115 43.059 92.5257 43.2907C92.6364 43.5215 92.6542 43.7859 92.5754 44.0294C92.5427 44.1482 92.4835 44.2581 92.4023 44.3509C92.3212 44.4436 92.2201 44.5169 92.1067 44.5651C91.9939 44.6047 91.873 44.6156 91.755 44.5967C91.6369 44.5778 91.5255 44.5299 91.4306 44.4571C91.2479 44.3253 91.1136 44.137 91.0483 43.9214C90.9931 43.7162 90.9872 43.5008 91.031 43.2929C91.1174 42.9162 91.2743 42.5593 91.4933 42.2409C91.6806 41.9548 91.9018 41.6922 92.1521 41.459C92.5504 41.0856 93.0138 40.7884 93.5193 40.5821C93.8366 40.4526 94.169 40.3641 94.5086 40.3185C94.6259 40.2987 94.7441 40.2857 94.8629 40.2797Z" fill="#FAFAFA"/>
<path d="M97.4722 47.3169C97.2805 47.3956 97.0937 47.4858 96.9128 47.5869C96.4309 47.8817 96.0469 48.3123 95.809 48.8246C95.7314 48.9927 95.672 49.1687 95.6319 49.3495C95.5788 49.5395 95.5788 49.7405 95.6319 49.9305C95.656 50.0253 95.7116 50.109 95.7896 50.1681C95.8291 50.1947 95.8745 50.2113 95.9219 50.2166C95.9693 50.2219 96.0173 50.2156 96.0617 50.1983C96.1564 50.1486 96.2364 50.075 96.294 49.9848C96.3516 49.8947 96.3847 49.7911 96.39 49.6843C96.4123 49.4469 96.3623 49.2083 96.2467 48.9998C96.1311 48.7913 95.9552 48.6226 95.742 48.5157C95.5061 48.4118 95.2474 48.3699 94.9907 48.3941C94.734 48.4183 94.4878 48.5078 94.2754 48.6539C93.8489 48.9611 93.5524 49.4163 93.4438 49.9305C93.3736 50.1627 93.3945 50.4129 93.5021 50.6303C93.5516 50.7286 93.6357 50.805 93.7382 50.8449C93.8407 50.8848 93.9544 50.8853 94.0572 50.8463C94.1528 50.7989 94.233 50.7255 94.2888 50.6346C94.3445 50.5437 94.3736 50.4389 94.3726 50.3323C94.3669 50.1219 94.3017 49.9175 94.1847 49.7426C93.98 49.4162 93.6721 49.1676 93.3099 49.0363C93.0109 48.927 92.6866 48.9075 92.3768 48.9801C92.1426 49.0362 91.9222 49.1391 91.7288 49.2825C91.5658 49.4063 91.4205 49.5516 91.2968 49.7145C91.3019 49.7016 91.3084 49.6893 91.3162 49.6778C91.3347 49.6421 91.3564 49.6081 91.381 49.5763C91.4704 49.4482 91.579 49.3345 91.7028 49.2393C91.8973 49.0841 92.1226 48.9722 92.3638 48.911C92.6855 48.8271 93.025 48.8421 93.3379 48.9542C93.7211 49.0856 94.0485 49.3429 94.2668 49.6843C94.3964 49.8759 94.4676 50.101 94.4719 50.3323C94.4744 50.4583 94.4407 50.5825 94.3749 50.69C94.309 50.7975 94.2138 50.884 94.1004 50.9392C94.0388 50.9664 93.9723 50.9805 93.9049 50.9805C93.8376 50.9805 93.7711 50.9664 93.7095 50.9392C93.5855 50.8859 93.4818 50.7943 93.4136 50.6779C93.2889 50.4374 93.2618 50.1581 93.3379 49.8981C93.4513 49.3555 93.7643 48.8752 94.2149 48.5524C94.4434 48.3944 94.7089 48.2982 94.9856 48.2732C95.2623 48.2482 95.5408 48.2953 95.7939 48.4099C96.0273 48.5266 96.2201 48.7112 96.3469 48.9394C96.4737 49.1675 96.5286 49.4287 96.5045 49.6886C96.4962 49.8137 96.4551 49.9345 96.3853 50.0388C96.3156 50.1431 96.2196 50.2271 96.1071 50.2826C96.0474 50.3048 95.9832 50.3123 95.9201 50.3044C95.8569 50.2965 95.7966 50.2734 95.7442 50.2372C95.6505 50.1644 95.5837 50.0626 95.5541 49.9478C95.4956 49.7431 95.4956 49.5261 95.5541 49.3214C95.5971 49.1355 95.6609 48.9551 95.7442 48.7835C95.9916 48.2606 96.3944 47.8268 96.8976 47.5415C97.0759 47.4363 97.2699 47.3605 97.4722 47.3169Z" fill="#FAFAFA"/>
<path d="M90.6573 50.4252C90.6394 50.4276 90.6213 50.4276 90.6033 50.4252L90.45 50.3885C90.2529 50.3419 90.0531 50.308 89.8517 50.2869C89.1098 50.2086 88.36 50.3132 87.6679 50.5915C87.4426 50.6833 87.2258 50.7946 87.0199 50.9241C86.7942 51.0597 86.5999 51.2415 86.4497 51.4577C86.3705 51.5699 86.3192 51.6993 86.3 51.8353C86.2809 51.9713 86.2944 52.1099 86.3395 52.2396C86.3845 52.373 86.4688 52.4897 86.5814 52.5744C86.6383 52.6158 86.7033 52.6449 86.7721 52.6598C86.8409 52.6747 86.9121 52.675 86.981 52.6608C87.1265 52.6219 87.257 52.5405 87.3559 52.427C87.4548 52.3135 87.5176 52.173 87.5361 52.0236C87.5613 51.7001 87.4735 51.378 87.2877 51.1121C86.906 50.529 86.3181 50.1117 85.6418 49.9435C84.9627 49.782 84.2475 49.8896 83.646 50.2437C83.3614 50.4054 83.1118 50.622 82.9116 50.8809C82.8212 51.0115 82.7567 51.1581 82.7215 51.3129C82.6797 51.4563 82.692 51.61 82.7561 51.7449C82.79 51.8046 82.8377 51.8553 82.8952 51.8929C82.9527 51.9305 83.0183 51.9538 83.0865 51.9609C83.2262 51.9691 83.3643 51.9287 83.4775 51.8465C83.5864 51.765 83.6711 51.6554 83.7225 51.5294C83.7738 51.4035 83.7899 51.2659 83.7691 51.1315C83.7397 50.8701 83.6542 50.6181 83.5185 50.3928C83.3957 50.1817 83.2437 49.989 83.0671 49.8204C82.7583 49.5287 82.3898 49.3076 81.9871 49.1724C81.6841 49.0691 81.3654 49.0194 81.0453 49.0255C80.7731 49.0343 80.5031 49.0779 80.2418 49.1551C80.2418 49.1551 80.2569 49.1551 80.2915 49.1335L80.4405 49.0795C80.6374 49.0224 80.8405 48.9898 81.0453 48.9823C81.3709 48.9675 81.6965 49.0114 82.0065 49.1119C82.4187 49.2445 82.7969 49.4657 83.1146 49.7599C83.2988 49.9267 83.4594 50.1178 83.592 50.328C83.7362 50.5633 83.8276 50.8271 83.8598 51.1013C83.8751 51.247 83.8589 51.3943 83.8123 51.5333C83.7607 51.6821 83.6631 51.8107 83.5337 51.9005C83.4006 51.9956 83.2391 52.0428 83.0757 52.0344C82.9899 52.0266 82.9072 51.9976 82.8353 51.9501C82.7633 51.9026 82.7042 51.8381 82.6632 51.7622C82.5865 51.6074 82.5696 51.4298 82.6157 51.2633C82.6543 51.0983 82.7239 50.9421 82.8209 50.8032C83.0289 50.5293 83.2905 50.3007 83.5898 50.1314C84.2147 49.7611 84.9593 49.6487 85.6656 49.8182C86.3705 49.9921 86.9828 50.4277 87.3785 51.0365C87.5777 51.3244 87.6708 51.6725 87.642 52.0214C87.6189 52.1931 87.5448 52.3539 87.4293 52.4829C87.3137 52.6119 87.1621 52.7032 86.994 52.745C86.9111 52.7617 86.8256 52.761 86.743 52.7428C86.6605 52.7245 86.5826 52.6892 86.5145 52.6392C86.385 52.5425 86.2884 52.4082 86.238 52.2547C86.187 52.1085 86.1729 51.9519 86.1969 51.7989C86.2234 51.6521 86.2801 51.5124 86.3633 51.3885C86.5221 51.1625 86.7276 50.9732 86.9659 50.8334C87.1795 50.7028 87.4043 50.5915 87.6377 50.5008C88.3426 50.2257 89.1058 50.1335 89.856 50.2329C90.1305 50.2611 90.4 50.3258 90.6573 50.4252Z" fill="#FAFAFA"/>
<path d="M66.528 32.4214C66.9751 32.443 66.8477 34.886 67.176 34.3654C67.5043 33.8449 66.9859 31.3695 67.4525 31.4127C68.0616 31.471 67.8845 34.0241 67.8845 34.2423C67.8845 34.4605 68.1977 34.4583 68.1869 34.2617C68.1718 33.9809 68.0767 31.0217 68.6751 31.0714C69.0077 31.0995 68.8911 31.6935 68.8911 31.6935C68.8911 31.6935 68.7744 34.4734 69.0574 34.4864C69.3403 34.4993 69.4699 32.8707 69.4721 32.3264C69.4743 31.7821 69.7356 31.5553 69.9754 31.7497C70.1395 31.8836 70.1719 33.5727 70.1568 34.1257C70.1417 34.6786 70.0726 36.169 70.7055 35.4433C71.3383 34.7175 72.0943 34.3913 72.3557 34.4432C72.6171 34.495 72.6322 34.8752 72.3557 35.0048C72.0758 35.1707 71.8193 35.3734 71.5932 35.6074C71.4148 35.7974 71.2583 36.0068 71.1267 36.2317C70.9746 36.47 70.8616 36.731 70.7919 37.0049L71.6429 47.1893L72.2671 46.4096L75.8247 49.8505L73.9671 51.9867C72.6084 53.5527 70.146 53.6521 68.7636 52.1077C68.7139 52.0515 68.6643 51.9932 68.6189 51.9327C68.2808 51.4848 68.0804 50.9482 68.0422 50.3883L66.8671 37.1864H66.8563C66.8304 35.7197 66.4243 34.5944 66.3617 33.847C66.2364 32.4279 66.3617 32.4128 66.528 32.4214Z" fill="#FFBE9D"/>
<path d="M82.9786 37.8627C82.9916 36.327 82.9786 34.7113 82.9786 34.7113C82.9786 34.7113 81.0044 34.3592 80.6264 31.7737C80.2635 29.307 80.877 23.9977 80.877 23.9977C83.739 22.8702 86.9595 23.3065 88.9618 25.6069L88.6508 38.0787C88.6141 39.5259 87.3418 40.647 85.791 40.5973C84.225 40.5519 82.9657 39.325 82.9786 37.8627Z" fill="#FFBE9D"/>
<path d="M81.4125 28.0799C81.4107 28.1664 81.4427 28.2501 81.5015 28.3134C81.5604 28.3767 81.6416 28.4146 81.7279 28.4191C81.7701 28.4226 81.8125 28.4177 81.8528 28.4047C81.8931 28.3917 81.9304 28.3709 81.9625 28.3433C81.9947 28.3158 82.0211 28.2822 82.0401 28.2444C82.0592 28.2066 82.0705 28.1654 82.0735 28.1231C82.0753 28.0369 82.0433 27.9535 81.9844 27.8905C81.9255 27.8275 81.8443 27.7901 81.7581 27.7862C81.716 27.782 81.6735 27.7864 81.6331 27.7991C81.5927 27.8117 81.5553 27.8323 81.523 27.8597C81.4908 27.8872 81.4644 27.9208 81.4454 27.9586C81.4264 27.9964 81.4152 28.0377 81.4125 28.0799Z" fill="#263238"/>
<path d="M80.8812 27.6998C80.9201 27.743 81.175 27.5594 81.5292 27.5659C81.8835 27.5724 82.1448 27.7516 82.1772 27.7084C82.2096 27.6652 82.1556 27.6112 82.0433 27.527C81.8908 27.4179 81.7081 27.359 81.5206 27.3585C81.3349 27.3554 81.1531 27.4122 81.0022 27.5205C80.8985 27.6026 80.8596 27.6804 80.8812 27.6998Z" fill="#263238"/>
<path d="M85.0587 28.1815C85.0564 28.2679 85.0882 28.3517 85.1472 28.4147C85.2062 28.4778 85.2877 28.5151 85.3741 28.5185C85.4161 28.5226 85.4585 28.5182 85.4988 28.5056C85.539 28.4929 85.5763 28.4722 85.6084 28.4448C85.6405 28.4173 85.6667 28.3837 85.6854 28.3459C85.7042 28.3081 85.7151 28.2668 85.7175 28.2247C85.7199 28.1385 85.6885 28.0548 85.6299 27.9914C85.5714 27.928 85.4904 27.8901 85.4043 27.8856C85.3621 27.8817 85.3195 27.8864 85.2791 27.8993C85.2387 27.9122 85.2013 27.933 85.1691 27.9606C85.1369 27.9882 85.1105 28.0219 85.0915 28.0599C85.0726 28.0978 85.0614 28.1392 85.0587 28.1815Z" fill="#263238"/>
<path d="M84.5965 27.8639C84.6353 27.9071 84.8902 27.7235 85.2445 27.73C85.5987 27.7365 85.8601 27.9158 85.8925 27.8726C85.9249 27.8294 85.8709 27.7754 85.7585 27.6911C85.6058 27.5824 85.4233 27.5236 85.2358 27.5226C85.0503 27.5189 84.8686 27.5749 84.7174 27.6825C84.6137 27.7754 84.5749 27.8639 84.5965 27.8639Z" fill="#263238"/>
<path d="M83.2724 30.4991C83.086 30.4361 82.8921 30.3984 82.6957 30.3868C82.6049 30.376 82.5185 30.3587 82.5034 30.2961C82.4978 30.2016 82.5204 30.1076 82.5682 30.0261C82.6546 29.8101 82.7475 29.5768 82.8447 29.337C83.2292 28.3564 83.51 27.5485 83.4689 27.5334C83.4279 27.5183 83.0866 28.3002 82.7 29.283L82.4343 29.9764C82.3768 30.0858 82.3592 30.2118 82.3846 30.3328C82.3966 30.3652 82.4162 30.3943 82.4417 30.4176C82.4673 30.4409 82.4981 30.4578 82.5315 30.4667C82.5812 30.4819 82.6329 30.4899 82.6849 30.4905C82.8796 30.5174 83.0769 30.5203 83.2724 30.4991Z" fill="#263238"/>
<path d="M82.9764 34.7111C84.1922 34.7434 85.3932 34.4376 86.4454 33.8276C86.4454 33.8276 85.5814 35.5924 83.0045 35.3202L82.9764 34.7111Z" fill="#EB996E"/>
<path d="M83.4128 31.359C83.482 31.2749 83.5714 31.2096 83.6726 31.1692C83.7738 31.1288 83.8835 31.1146 83.9916 31.1279C84.0697 31.1349 84.1455 31.1577 84.2146 31.1948C84.2836 31.2319 84.3445 31.2826 84.3934 31.3439C84.442 31.4044 84.4704 31.4786 84.4746 31.556C84.4789 31.6335 84.4588 31.7104 84.4172 31.7759C84.359 31.839 84.2834 31.8835 84.1999 31.9035C84.1164 31.9235 84.0289 31.9181 83.9484 31.8882C83.7808 31.8275 83.6273 31.7334 83.497 31.6117C83.4574 31.5825 83.423 31.5467 83.3955 31.5059C83.3823 31.486 83.3752 31.4627 83.3752 31.4389C83.3752 31.4151 83.3823 31.3918 83.3955 31.3719" fill="#EB996E"/>
<path d="M84.3178 30.7564C84.2594 30.7564 84.2551 31.1387 83.9203 31.4044C83.5855 31.6701 83.1751 31.6204 83.1708 31.6809C83.1665 31.7413 83.2615 31.7565 83.4365 31.7629C83.6637 31.7679 83.8852 31.6913 84.0607 31.5469C84.2313 31.4123 84.3422 31.2161 84.3696 31.0005C84.3869 30.8514 84.3437 30.7542 84.3178 30.7564Z" fill="#263238"/>
<path d="M87.8386 23.7729C86.8947 25.1186 84.3955 26.5032 82.6049 26.825C82.8209 26.5507 83.9139 25.8725 84.1169 25.5981C83.3069 26.2029 82.1448 27.0129 81.0691 27.0691C80.9423 27.0868 80.813 27.0665 80.6976 27.0108C80.6369 26.9624 80.5882 26.9005 80.5556 26.83C80.523 26.7595 80.5073 26.6823 80.5097 26.6047C80.4495 25.8252 80.4748 25.0415 80.5853 24.2676C80.6703 23.6123 81.0035 23.0147 81.5163 22.5979C82.2053 22.0644 83.1924 21.9326 84.1234 21.911C84.9016 21.8611 85.6821 21.9661 86.4195 22.2199C87.1344 22.5007 87.7435 23.058 87.8472 23.7319" fill="#263238"/>
<path d="M90.5472 29.808C90.6673 29.2377 90.7531 28.6607 90.8042 28.08C90.8798 26.7495 90.4954 21.8333 85.9032 22.2286L87.0091 23.6391C87.0091 23.6391 86.1019 26.6177 88.033 28.674C88.033 28.674 88.1431 29.8772 89.4888 31.266C89.4888 31.266 90.2686 31.2423 90.5472 29.808Z" fill="#263238"/>
<path d="M87.979 28.4493C88.2568 28.3941 88.5443 28.4157 88.8106 28.5119C89.0766 28.6121 89.2924 28.8131 89.4111 29.0714C89.5158 29.3364 89.5158 29.6314 89.4111 29.8965C89.3046 30.1585 89.1416 30.3938 88.9338 30.5855C88.7932 30.7324 88.62 30.8441 88.4283 30.9117C88.3321 30.9443 88.2294 30.9527 88.1291 30.9361C88.0289 30.9195 87.9343 30.8785 87.8538 30.8166" fill="#FFBE9D"/>
<path d="M88.1129 30.1255C88.0805 30.1255 88.1993 30.3026 88.452 30.2378C88.5882 30.1933 88.7014 30.0971 88.7674 29.97C88.8446 29.8282 88.8931 29.6726 88.9099 29.5121C88.9319 29.3421 88.8929 29.1699 88.7998 29.0261C88.7597 28.9653 88.7064 28.9144 88.644 28.877C88.5815 28.8396 88.5115 28.8168 88.4391 28.8101C88.1799 28.8101 88.0956 28.9807 88.1259 28.985C88.1561 28.9893 88.249 28.9159 88.4175 28.9569C88.5207 28.9984 88.6057 29.0754 88.6572 29.174C88.7087 29.2726 88.7233 29.3864 88.6983 29.4948C88.6659 29.7777 88.5535 30.0369 88.4002 30.0996C88.2468 30.1622 88.128 30.1017 88.1129 30.1255Z" fill="#EB996E"/>
<path d="M91.2168 54.8551V53.6758H82.9159L80.4794 43.0054L68.0573 43.1069L71.0683 54.8551H91.2168Z" fill="#263238"/>
<path d="M73.9433 48.9367C74.1269 49.5027 74.6258 49.8461 75.06 49.7057C75.4942 49.5653 75.695 48.9929 75.5093 48.4291C75.3235 47.8654 74.8267 47.5198 74.3947 47.6602C73.9627 47.8006 73.7597 48.3838 73.9433 48.9367Z" fill="#FAFAFA"/>
<path d="M79.92 54.7838C79.7106 54.3858 79.5364 53.9702 79.3995 53.5419C79.3614 53.4406 79.3452 53.3323 79.352 53.2243C79.3569 53.171 79.3776 53.1203 79.4115 53.0788C79.4453 53.0372 79.4908 53.0067 79.542 52.991C79.7364 52.9522 79.8574 53.1876 79.933 53.369C80.0775 53.7088 80.3001 54.0096 80.5827 54.2472C80.8653 54.4848 81.2 54.6524 81.5595 54.7363L82.0628 54.7234V54.7018L92.9211 53.7341L92.4027 51.5741L98.1504 51.1421L98.6753 53.2632C98.7432 53.8878 98.6756 54.5197 98.4772 55.1159C98.2787 55.712 97.9542 56.2584 97.5255 56.7178C97.0969 57.1772 96.5743 57.5387 95.9933 57.7779C95.4123 58.0171 94.7866 58.1282 94.1588 58.1038H81.6999C77.7363 58.363 76.9911 54.8638 76.9911 54.8638L79.92 54.7838Z" fill="#FFBE9D"/>
<path d="M65.4739 89.5947L60.5664 92.6187L62.3678 96.9495C64.0394 95.3959 65.3541 93.4983 66.2213 91.3875L65.4739 89.5947Z" fill="#B78876"/>
<path d="M66.8067 89.6941C66.1716 88.1821 63.9987 83.1623 62.1735 81.2874C59.4454 78.4794 54.6437 78.8595 54.6437 78.8595L48.4056 79.0755C46.8062 79.2922 45.2537 79.7724 43.8113 80.4968L43.658 80.5443V80.5746C41.9127 81.5228 39.4416 83.7973 37.0851 86.0048L39.9039 88.6184L43.0229 91.3875C43.0159 91.4056 43.0159 91.4256 43.0229 91.4437C43.0553 91.6122 42.5153 94.9623 42.038 97.8567C44.3649 99.6594 47.1509 100.773 50.0793 101.071C53.0076 101.369 55.9608 100.839 58.603 99.5415L58.8363 96.8653C59.0523 94.4396 59.2121 91.4372 59.2121 91.4372L60.1064 93.7074L66.6144 90.3248C66.6814 90.1196 66.744 89.9079 66.8067 89.6941Z" fill="#5785FE"/>
<path d="M54.8165 78.624C54.8304 78.6602 54.8398 78.6979 54.8445 78.7363C54.8659 78.844 54.8796 78.953 54.8856 79.0625C54.9069 79.4687 54.8519 79.8753 54.7236 80.2613C54.5339 80.8376 54.1938 81.3528 53.7386 81.7539C53.1655 82.2329 52.4514 82.5111 51.7053 82.5462C50.9592 82.5813 50.2221 82.3713 49.6065 81.9483C49.1141 81.5923 48.7256 81.1114 48.4812 80.5551C48.3172 80.1833 48.2248 79.7839 48.209 79.3779C48.2003 79.2686 48.2003 79.1588 48.209 79.0495C48.2088 79.0107 48.2147 78.9721 48.2263 78.9351C48.2393 78.9351 48.2263 79.0927 48.2436 79.3671C48.2775 79.764 48.3798 80.152 48.546 80.514C48.7938 81.0497 49.1763 81.5119 49.6562 81.8554C50.255 82.2598 50.9684 82.4597 51.6901 82.4255C52.4118 82.3912 53.1031 82.1246 53.6609 81.6653C54.0356 81.3425 54.3353 80.9418 54.539 80.4911C54.7428 80.0404 54.8455 79.5506 54.8402 79.056C54.8359 78.7795 54.8035 78.624 54.8165 78.624Z" fill="#263238"/>
<path d="M60.7565 79.9763C60.61 79.9994 60.4655 80.0341 60.3245 80.08C59.9389 80.2261 59.6036 80.4804 59.3589 80.8123C59.0065 81.3133 58.7947 81.8995 58.7455 82.51C58.7023 82.8535 58.6829 83.2185 58.6699 83.59C58.6569 83.9615 58.6483 84.359 58.644 84.7607C58.635 86.131 58.6963 87.5008 58.8276 88.8647C58.8773 89.3875 58.9291 89.8108 58.9615 90.1046C58.9788 90.2407 58.9896 90.3508 59.0004 90.4415C59.0061 90.4809 59.0061 90.5209 59.0004 90.5603C58.9862 90.5228 58.9767 90.4836 58.9723 90.4437C58.955 90.3551 58.9356 90.245 58.9118 90.1089C58.8665 89.8195 58.8017 89.3961 58.7433 88.8712C58.5878 87.5053 58.5157 86.1311 58.5273 84.7564C58.5273 84.3547 58.5381 83.9615 58.5554 83.5814C58.5727 83.2012 58.59 82.834 58.6375 82.4863C58.6929 81.8622 58.9169 81.2649 59.2855 80.7583C59.5429 80.4194 59.8968 80.1664 60.3007 80.0325C60.4475 79.984 60.6023 79.965 60.7565 79.9763Z" fill="#263238"/>
<path d="M45.9109 79.5703C45.907 79.6115 45.8982 79.6521 45.8849 79.6913L45.7877 80.0325L45.4206 81.2854C45.116 82.3438 44.7121 83.8104 44.3168 85.4434C43.9215 87.0763 43.6126 88.5602 43.4031 89.6402C43.2994 90.1694 43.2174 90.6014 43.1569 90.9211C43.1288 91.0615 43.105 91.176 43.0856 91.2689C43.0815 91.3098 43.0713 91.3498 43.0554 91.3877C43.0506 91.3468 43.0506 91.3054 43.0554 91.2645C43.0683 91.1717 43.0834 91.0486 43.105 90.9125C43.1482 90.6079 43.2195 90.1673 43.321 89.6165C43.5133 88.5365 43.8113 87.0245 44.2045 85.4002C44.5976 83.7758 45.0166 82.2984 45.3428 81.2465C45.5048 80.7194 45.643 80.2939 45.7424 80.0023C45.7899 79.8662 45.8288 79.7561 45.8612 79.6675C45.8746 79.6336 45.8912 79.601 45.9109 79.5703Z" fill="#263238"/>
<path d="M66.6835 88.6509C66.6046 88.7219 66.5193 88.7856 66.4286 88.841C66.2623 88.9576 66.0161 89.1218 65.7094 89.3183C65.0959 89.7158 64.2384 90.245 63.2729 90.7979C62.3074 91.3509 61.4153 91.8239 60.7651 92.1522C60.439 92.3164 60.1733 92.446 59.9897 92.5324C59.8953 92.5814 59.797 92.6226 59.6959 92.6555C59.7819 92.594 59.873 92.5398 59.9681 92.4935L60.7284 92.081C61.3764 91.7354 62.2534 91.2537 63.2167 90.7007C64.1801 90.1478 65.0441 89.6207 65.6662 89.2514L66.4049 88.8042C66.4925 88.7441 66.5858 88.6927 66.6835 88.6509Z" fill="#263238"/>
<path d="M43.3491 89.5992C43.3275 89.623 42.1027 88.6575 40.6102 87.4392C39.1176 86.221 37.921 85.2166 37.9404 85.1928C37.9599 85.1691 39.1867 86.1346 40.6793 87.3528C42.1719 88.5711 43.3685 89.5755 43.3491 89.5992Z" fill="#263238"/>
<path opacity="0.2" d="M58.5728 85.21L61.0136 93.2408L60.1042 93.7139L59.21 91.4437C59.21 91.4437 58.2876 86.6701 58.5728 85.21Z" fill="black"/>
<g opacity="0.2">
<path d="M46.1744 79.5743C44.8589 80.2698 48.1572 81.9503 49.6476 81.8941L48.5676 79.0386C48.5676 79.0386 46.6172 79.3431 46.1744 79.5743Z" fill="black"/>
</g>
<path opacity="0.2" d="M54.5745 91.2234L46.7596 91.2515L47.2737 88.3765L55.1534 88.2231L54.5745 91.2234Z" fill="white"/>
<path d="M53.8273 69.3554C53.7979 69.4644 53.8004 69.5795 53.8344 69.6871C53.8685 69.7947 53.9327 69.8902 54.0195 69.9624C54.1086 70.0318 54.2157 70.0744 54.3282 70.0851C54.4407 70.0958 54.5539 70.0742 54.6545 70.0229C55.0304 69.822 55.0693 69.295 54.985 68.8759C54.9008 68.4569 54.7517 68.0119 54.9202 67.621C55.0498 67.3207 55.3371 67.1263 55.5682 66.8866C55.7654 66.6801 55.9116 66.4303 55.9952 66.1574C56.0789 65.8844 56.0976 65.5956 56.0499 65.3141C55.9974 65.0343 55.8689 64.7744 55.6784 64.5629C55.4878 64.3514 55.2427 64.1966 54.9699 64.1153C54.4083 63.9706 53.7214 64.1563 53.2981 63.7589C52.9892 63.4716 52.9611 62.9899 52.7213 62.6443C52.3477 62.1086 51.5787 62.0374 50.9329 62.1367C50.287 62.2361 49.6369 62.4586 48.9889 62.3138C48.4553 62.1929 48.0147 61.83 47.5136 61.614C46.9656 61.3709 46.3551 61.3061 45.7683 61.4285C45.1815 61.551 44.648 61.8547 44.243 62.2967C43.838 62.7386 43.582 63.2966 43.5112 63.8919C43.4403 64.4871 43.5581 65.0896 43.8481 65.6143C44.0393 65.9994 44.3596 66.3052 44.7531 66.4783" fill="#263238"/>
<path d="M51.5614 82.4774C50.7393 82.4831 49.9464 82.1722 49.3472 81.6092C48.7481 81.0462 48.3885 80.2743 48.343 79.4534C48.2717 78.0364 48.2134 76.6734 48.2134 76.6734C48.2134 76.6734 45.5847 76.4834 45.3428 73.9151C45.1008 71.3469 45.0663 65.4047 45.0663 65.4047C46.4905 64.6571 48.0871 64.2997 49.6941 64.3688C51.3011 64.4378 52.8612 64.9308 54.216 65.7978L54.4666 65.9577L54.7712 79.2525C54.7737 79.6754 54.6926 80.0947 54.5324 80.4861C54.3721 80.8776 54.1361 81.2334 53.8377 81.5332C53.5393 81.8329 53.1846 82.0707 52.7939 82.2328C52.4032 82.3948 51.9844 82.4779 51.5614 82.4774Z" fill="#B78876"/>
<path d="M50.0538 69.3533C50.0067 69.3683 49.963 69.3924 49.9253 69.4243C49.8876 69.4563 49.8566 69.4954 49.8341 69.5393C49.8116 69.5833 49.798 69.6314 49.7942 69.6806C49.7904 69.7299 49.7964 69.7794 49.8118 69.8264C49.8443 69.9212 49.9129 69.9993 50.0027 70.0438C50.0925 70.0883 50.1962 70.0956 50.2914 70.064C50.338 70.0484 50.3811 70.0237 50.4183 69.9914C50.4554 69.9592 50.4858 69.9199 50.5078 69.8759C50.5298 69.8319 50.5428 69.7839 50.5463 69.7349C50.5497 69.6858 50.5435 69.6365 50.5279 69.5898C50.5123 69.5432 50.4876 69.5 50.4554 69.4629C50.4231 69.4258 50.3838 69.3953 50.3398 69.3734C50.2958 69.3514 50.2479 69.3383 50.1988 69.3349C50.1497 69.3315 50.1004 69.3377 50.0538 69.3533Z" fill="#263238"/>
<path d="M49.3322 69.4853C49.3754 69.5285 49.6195 69.319 49.9802 69.2952C50.3409 69.2714 50.6088 69.4399 50.6455 69.3924C50.6822 69.3449 50.6174 69.293 50.4986 69.2153C50.3391 69.115 50.1519 69.0681 49.9639 69.0813C49.776 69.0945 49.5971 69.1671 49.4532 69.2887C49.3452 69.3838 49.3128 69.468 49.3322 69.4853Z" fill="#263238"/>
<path d="M46.1311 69.3532C46.084 69.3681 46.0404 69.3923 46.0028 69.4242C45.9652 69.4562 45.9343 69.4953 45.912 69.5394C45.8896 69.5834 45.8763 69.6315 45.8728 69.6807C45.8692 69.73 45.8756 69.7794 45.8914 69.8262C45.9141 69.8977 45.9576 69.9608 46.0164 70.0075C46.0751 70.0541 46.1464 70.0823 46.2212 70.0883C46.296 70.0943 46.3708 70.0779 46.4363 70.0413C46.5017 70.0046 46.5548 69.9493 46.5887 69.8824C46.6226 69.8155 46.6358 69.74 46.6267 69.6655C46.6176 69.5911 46.5865 69.521 46.5375 69.4643C46.4884 69.4075 46.4236 69.3667 46.3512 69.3469C46.2788 69.3271 46.2022 69.3293 46.1311 69.3532Z" fill="#263238"/>
<path d="M45.36 69.4938C45.4032 69.537 45.6473 69.3253 46.008 69.3037C46.3687 69.2821 46.6365 69.4485 46.6733 69.4009C46.71 69.3534 46.6452 69.3016 46.5264 69.2217C46.3664 69.1223 46.1792 69.0761 45.9914 69.0897C45.8036 69.1033 45.6249 69.176 45.4809 69.2973C45.3751 69.3923 45.3427 69.4744 45.36 69.4938Z" fill="#263238"/>
<path d="M48.0621 72.2715C47.8719 72.2138 47.6732 72.1889 47.4746 72.1981C47.3796 72.1981 47.304 72.1786 47.2932 72.1311C47.2824 72.0379 47.2981 71.9436 47.3385 71.859L47.5545 71.1181C47.8613 70.0597 48.0643 69.1914 48.0103 69.1741C47.9563 69.1568 47.6647 70.0014 47.3623 71.0598L47.1463 71.805C47.0946 71.9291 47.0877 72.0673 47.1268 72.1959C47.1431 72.2302 47.1672 72.2603 47.1973 72.2835C47.2273 72.3068 47.2624 72.3227 47.2996 72.3298C47.3528 72.3359 47.4064 72.3359 47.4595 72.3298C47.6622 72.3453 47.8661 72.3256 48.0621 72.2715Z" fill="#263238"/>
<path d="M49.2481 72.5762C48.702 72.8512 48.1286 73.0684 47.5374 73.2242C47.6746 73.4007 47.8673 73.5259 48.0844 73.5796C48.3014 73.6332 48.5303 73.6123 48.734 73.5201C49.4943 73.1659 49.2481 72.5762 49.2481 72.5762Z" fill="white"/>
<path d="M48.2047 76.6324C49.4029 76.5588 50.5527 76.1327 51.5095 75.4077C51.5095 75.4077 50.8615 77.3236 48.2544 77.2999L48.2047 76.6324Z" fill="#A36957"/>
<path d="M54.5335 68.5563C54.5317 68.4555 54.5688 68.3579 54.6372 68.2838C54.7057 68.2097 54.8001 68.165 54.9007 68.1589C55.3846 68.1373 56.1816 68.3122 56.2831 69.6363C56.4257 71.5285 54.5789 71.0922 54.5702 71.0382C54.5616 70.9842 54.5422 69.2929 54.5335 68.5563Z" fill="#B78876"/>
<path d="M54.9785 70.2844C54.9785 70.2844 55.013 70.306 55.0713 70.3276C55.1529 70.354 55.2414 70.3494 55.3197 70.3146C55.5163 70.2261 55.661 69.8956 55.6437 69.5543C55.6371 69.3911 55.5935 69.2316 55.5163 69.0877C55.4935 69.0299 55.457 68.9785 55.41 68.9379C55.363 68.8972 55.3068 68.8686 55.2463 68.8545C55.2075 68.8469 55.1673 68.8534 55.1329 68.8728C55.0984 68.8922 55.072 68.9232 55.0584 68.9603C55.0368 69.0143 55.0584 69.051 55.0411 69.0553C55.0238 69.0597 54.9979 69.0273 55.0065 68.9473C55.0141 68.8992 55.0377 68.8551 55.0735 68.8221C55.1234 68.7798 55.1875 68.7582 55.2528 68.7616C55.332 68.7702 55.4077 68.7993 55.4724 68.8458C55.5371 68.8924 55.5887 68.9549 55.6221 69.0273C55.7167 69.185 55.7702 69.364 55.7777 69.5478C55.7949 69.9301 55.6243 70.3017 55.3457 70.401C55.2957 70.4194 55.2422 70.4264 55.1891 70.4216C55.1361 70.4167 55.0848 70.4001 55.0389 70.3729C54.9849 70.3297 54.972 70.2887 54.9785 70.2844Z" fill="#A36957"/>
<path d="M50.6067 68.4311C50.5268 68.5348 50.2438 68.4873 49.8788 68.4721C49.5137 68.457 49.2308 68.4549 49.1595 68.3425C49.0882 68.2302 49.4381 67.9559 49.909 67.9926C50.3799 68.0293 50.6974 68.3231 50.6067 68.4311Z" fill="#263238"/>
<path d="M46.4789 68.3661C46.4509 68.4957 46.2154 68.5583 45.9476 68.5821C45.6797 68.6058 45.4335 68.5821 45.3838 68.459C45.3341 68.3358 45.5588 68.135 45.9044 68.1047C46.25 68.0745 46.507 68.2386 46.4789 68.3661Z" fill="#263238"/>
<path d="M44.712 66.215C44.712 66.215 46.2715 66.9689 48.2998 65.9558C49.6325 65.2927 51.1834 64.9666 51.5247 65.2344C51.8659 65.5022 51.9394 66.8738 53.2527 67.2756C53.2527 67.2756 53.1619 69.8914 54.2052 69.7985C55.2485 69.7056 54.5962 65.6513 54.5962 65.6513L52.0431 64.405L49.248 63.8779L46.6215 64.2494L44.5911 64.8046L44.712 66.215Z" fill="#263238"/>
<path d="M35.3765 70.6948C35.4694 70.8439 38.4718 81.2464 38.4718 81.2464L32.5145 82.0607L29.7734 73.5698L35.3765 70.6948Z" fill="#455A64"/>
<path d="M38.4717 81.2461L39.0074 80.9632L35.8884 70.4224L35.3116 70.7269L38.4717 81.2461Z" fill="#263238"/>
<path d="M32.8796 73.4574C32.8901 73.5064 32.8858 73.5574 32.8673 73.6039C32.8488 73.6504 32.8169 73.6904 32.7757 73.7188C32.7344 73.7471 32.6856 73.7626 32.6356 73.7632C32.5855 73.7639 32.5364 73.7496 32.4944 73.7222C32.4525 73.6949 32.4196 73.6557 32.4 73.6096C32.3804 73.5635 32.3749 73.5127 32.3842 73.4635C32.3935 73.4143 32.4172 73.369 32.4524 73.3333C32.4875 73.2976 32.5324 73.2731 32.5815 73.263C32.6468 73.2496 32.7147 73.2624 32.7705 73.2989C32.8264 73.3353 32.8655 73.3923 32.8796 73.4574Z" fill="#263238"/>
<path d="M37.3486 85.9962L33.439 88.5428L32.7197 79.4341L32.7802 78.9783L35.424 77.9761L34.6637 76.0321C34.5762 75.8166 34.445 75.6216 34.2782 75.4595C34.1114 75.2975 33.9127 75.1718 33.6948 75.0906C33.4769 75.0093 33.2445 74.9743 33.0123 74.9876C32.7801 75.001 32.5532 75.0624 32.346 75.1681L31.4971 75.6001C31.1987 75.7525 30.9354 75.9658 30.7245 76.2263C30.5135 76.4867 30.3595 76.7885 30.2724 77.1121C29.9722 78.2396 29.7043 79.46 29.7324 79.3542L28.0563 91.0787C28.0563 91.0787 27.2614 94.4591 29.5683 96.0683C31.3157 97.2822 34.2576 95.9927 35.8193 95.1092L42.5887 91.0311L37.3486 85.9962Z" fill="#B78876"/>
<path d="M41.3403 38.1802L38.6899 34.1475L34.2188 36.9555L38.2709 43.2C38.2709 43.2 40.5 40.7851 41.3403 38.1802Z" fill="#EB996E"/>
<path d="M24.7298 18.0057C24.9458 17.7659 24.6521 17.3901 24.3454 17.2778C24.0386 17.1655 23.6606 17.1158 23.5138 16.8263C23.3366 16.4743 23.6498 16.079 23.706 15.688C23.7622 15.297 23.5246 14.8737 23.4533 14.4568C23.4079 14.1907 23.4326 13.9173 23.5251 13.6636C23.6176 13.4099 23.7747 13.1848 23.9807 13.0103C24.1868 12.8358 24.4348 12.7181 24.7003 12.6688C24.9657 12.6194 25.2395 12.6401 25.4945 12.7288C25.5108 12.3189 25.6515 11.9236 25.8978 11.5955C26.1442 11.2675 26.4845 11.0221 26.8736 10.892C27.2626 10.7619 27.6821 10.7533 28.0762 10.8672C28.4703 10.9812 28.8205 11.2123 29.0801 11.53C29.4694 11.2058 29.9001 10.9348 30.361 10.7243C30.5919 10.6203 30.8411 10.5629 31.0943 10.5555C31.3475 10.5481 31.5996 10.5908 31.8362 10.6811C32.0704 10.7789 32.2667 10.9496 32.3959 11.168C32.5252 11.3863 32.5804 11.6406 32.5534 11.8929C32.7417 11.6959 32.988 11.5641 33.2565 11.5167C33.5249 11.4693 33.8015 11.5088 34.0459 11.6294C34.2871 11.7565 34.4984 11.9336 34.6656 12.1489C34.8329 12.3642 34.9522 12.6127 35.0158 12.8779C35.2145 13.6123 35.0417 14.4763 34.4563 14.9601C33.871 15.4439 32.8709 15.3921 32.4367 14.7765" fill="#263238"/>
<path d="M27.5982 30.4216C28.368 30.4255 29.1097 30.1332 29.6698 29.6052C30.2299 29.0773 30.5655 28.3541 30.6071 27.5855C30.6741 26.2614 30.7302 24.9935 30.7302 24.9935C30.7302 24.9935 33.1883 24.8142 33.4151 22.4015C33.6419 19.9888 33.6722 14.4376 33.6722 14.4376C32.3387 13.7382 30.8439 13.4044 29.3396 13.47C27.8353 13.5357 26.3752 13.9984 25.1078 14.8113L24.8745 14.9603L24.5915 27.3997C24.5884 27.7962 24.6639 28.1893 24.8137 28.5564C24.9635 28.9234 25.1846 29.2571 25.4642 29.5381C25.7439 29.8192 26.0765 30.042 26.4428 30.1936C26.8091 30.3452 27.2018 30.4227 27.5982 30.4216Z" fill="#FFBE9D"/>
<path d="M29.0087 18.1437C29.0933 18.1742 29.163 18.236 29.2032 18.3165C29.2434 18.3969 29.2511 18.4898 29.2247 18.5757C29.1929 18.6628 29.1284 18.7341 29.045 18.7744C28.9615 18.8147 28.8656 18.8209 28.7776 18.7917C28.6926 18.7617 28.6227 18.6999 28.5824 18.6193C28.5421 18.5388 28.5346 18.4457 28.5616 18.3597C28.5929 18.2723 28.6574 18.2007 28.741 18.1603C28.8246 18.1199 28.9208 18.1139 29.0087 18.1437Z" fill="#263238"/>
<path d="M29.6826 18.2647C29.6416 18.3036 29.4126 18.1071 29.08 18.0876C28.7474 18.0682 28.4903 18.2215 28.4558 18.1783C28.4212 18.1351 28.4817 18.0854 28.5918 18.0098C28.7414 17.9163 28.9171 17.8731 29.093 17.8867C29.2689 17.8981 29.4364 17.9664 29.5703 18.0811C29.6697 18.1697 29.7021 18.2475 29.6826 18.2647Z" fill="#263238"/>
<path d="M32.6786 18.1437C32.7629 18.1746 32.8322 18.2365 32.8724 18.3168C32.9125 18.3971 32.9205 18.4898 32.8946 18.5757C32.8628 18.6628 32.7984 18.7341 32.7149 18.7744C32.6314 18.8147 32.5355 18.8209 32.4475 18.7917C32.3626 18.7617 32.2926 18.6999 32.2523 18.6193C32.212 18.5388 32.2046 18.4457 32.2315 18.3597C32.2629 18.2723 32.3273 18.2007 32.4109 18.1603C32.4945 18.1199 32.5907 18.1139 32.6786 18.1437Z" fill="#263238"/>
<path d="M33.3957 18.2736C33.3568 18.3125 33.1279 18.1159 32.7931 18.0943C32.4583 18.0727 32.2055 18.2304 32.171 18.1851C32.1364 18.1397 32.1969 18.0922 32.3071 18.0187C32.4564 17.925 32.6317 17.8812 32.8076 17.8937C32.9834 17.9061 33.1508 17.9741 33.2855 18.0879C33.3849 18.1764 33.4151 18.2542 33.3957 18.2736Z" fill="#263238"/>
<path d="M30.8707 20.8718C31.0489 20.8168 31.2352 20.7927 31.4215 20.8005C31.5101 20.8005 31.5792 20.7854 31.59 20.7379C31.5991 20.6513 31.5842 20.5638 31.5468 20.4852C31.4798 20.2692 31.4107 20.0316 31.3308 19.7918C31.0457 18.8025 30.8534 17.9882 30.8988 17.9753C30.9442 17.9623 31.2228 18.7507 31.5101 19.7378C31.577 19.9797 31.6418 20.2109 31.7066 20.4377C31.7531 20.5532 31.7592 20.6811 31.7239 20.8005C31.7088 20.833 31.6862 20.8614 31.6581 20.8835C31.6299 20.9056 31.597 20.9209 31.5619 20.928C31.5118 20.9352 31.4609 20.9352 31.4107 20.928C31.2289 20.9388 31.0465 20.9198 30.8707 20.8718Z" fill="#263238"/>
<path d="M29.7539 21.1509C30.2661 21.4062 30.8032 21.6081 31.3567 21.7535C31.2287 21.9184 31.049 22.0356 30.8465 22.0861C30.644 22.1366 30.4304 22.1176 30.2399 22.0322C29.5315 21.7082 29.7539 21.1509 29.7539 21.1509Z" fill="white"/>
<path d="M30.7367 24.9521C29.6167 24.8821 28.5423 24.4831 27.6479 23.8052C27.6479 23.8052 28.2549 25.598 30.6957 25.5764L30.7367 24.9521Z" fill="#EB996E"/>
<path d="M24.8163 18.4958C24.8181 18.4015 24.7834 18.3102 24.7193 18.2409C24.6553 18.1716 24.567 18.1299 24.4728 18.1243C24.0192 18.1027 23.274 18.2669 23.1768 19.5045C23.0429 21.2757 24.7731 20.8675 24.7795 20.8157C24.786 20.7638 24.8076 19.1827 24.8163 18.4958Z" fill="#FFBE9D"/>
<path d="M24.408 20.1117C24.408 20.1117 24.3756 20.1312 24.3194 20.1528C24.2434 20.1771 24.1611 20.1724 24.0883 20.1398C23.9047 20.0556 23.7665 19.7467 23.7837 19.427C23.7903 19.2759 23.8309 19.1282 23.9026 18.995C23.9239 18.9412 23.9581 18.8934 24.0022 18.8557C24.0462 18.8181 24.0988 18.7918 24.1553 18.779C24.1915 18.7715 24.2293 18.7771 24.2618 18.7949C24.2942 18.8128 24.3193 18.8416 24.3324 18.8762C24.3518 18.9281 24.3324 18.9626 24.3475 18.9648C24.3626 18.9669 24.3886 18.9388 24.3799 18.8654C24.3741 18.8202 24.3518 18.7786 24.3173 18.7488C24.2945 18.7283 24.2679 18.7126 24.2389 18.7025C24.21 18.6925 24.1793 18.6884 24.1488 18.6905C24.0744 18.6987 24.0035 18.7261 23.9429 18.7701C23.8823 18.814 23.8342 18.8729 23.8032 18.941C23.7154 19.0885 23.6656 19.2555 23.6585 19.427C23.6433 19.7834 23.801 20.1312 24.0537 20.224C24.1008 20.2419 24.1513 20.2489 24.2015 20.2444C24.2516 20.2399 24.3 20.2241 24.3432 20.1981C24.395 20.1549 24.408 20.1161 24.408 20.1117Z" fill="#EB996E"/>
<path d="M28.4904 17.28C28.566 17.3772 28.8295 17.3318 29.1708 17.3188C29.5121 17.3059 29.7821 17.3037 29.8426 17.1979C29.903 17.092 29.5833 16.835 29.1427 16.8717C28.7021 16.9084 28.404 17.1784 28.4904 17.28Z" fill="#263238"/>
<path d="M32.3525 17.2172C32.3784 17.3403 32.5987 17.3986 32.8493 17.4332C33.0998 17.4677 33.3288 17.4332 33.3763 17.3165C33.4239 17.1999 33.2122 17.0141 32.8903 16.9861C32.5685 16.958 32.3266 17.0984 32.3525 17.2172Z" fill="#263238"/>
<path d="M34.0157 15.2043C34.0157 15.2043 32.5555 15.9106 30.659 14.9624C29.4127 14.3403 27.9612 14.0379 27.635 14.2885C27.3089 14.539 27.2462 15.8221 26.0129 16.1958C26.0129 16.1958 26.0971 18.6452 25.1208 18.5566C24.1445 18.4681 24.7557 14.6686 24.7557 14.6686L27.1317 13.5022L29.7389 13.0098L32.1948 13.3554L34.0956 13.8759L34.0157 15.2043Z" fill="#263238"/>
<path d="M17.6688 29.3757C20.2219 26.7513 24.7126 27.0364 24.7126 27.0364L30.5446 27.2524C32.0409 27.4561 33.4933 27.9057 34.843 28.583L34.9855 28.6283V28.6564C36.6207 29.5442 38.934 31.6804 41.1372 33.7367L38.4999 36.1819L35.5817 38.7739C35.5878 38.7906 35.5878 38.809 35.5817 38.8257C35.5515 38.9812 36.0569 42.1176 36.5019 44.824C34.3247 46.51 31.7183 47.5518 28.9788 47.8309C26.2392 48.11 23.4764 47.6153 21.0039 46.403L20.7879 43.8996C20.5891 41.6294 20.4379 38.8192 20.4379 38.8192" fill="#2059EE"/>
<path d="M32.8839 27.6997C32.9035 27.7336 32.9187 27.7699 32.9292 27.8077C32.9595 27.8898 32.9962 27.9935 33.0394 28.1209C33.1344 28.3931 33.2554 28.7905 33.4152 29.283C33.7198 30.2679 34.1107 31.6395 34.4801 33.171C34.8495 34.7024 35.1281 36.0999 35.3074 37.1173C35.3959 37.6249 35.4629 38.0353 35.5039 38.3226C35.5212 38.4543 35.5363 38.5623 35.5471 38.6509C35.552 38.6896 35.552 38.7288 35.5471 38.7675C35.5317 38.7317 35.5215 38.6939 35.5169 38.6552L35.4521 38.3291C35.3938 38.031 35.316 37.6249 35.2188 37.1303C35.0223 36.1194 34.7307 34.7262 34.3548 33.1969C33.979 31.6676 33.6075 30.2982 33.3223 29.3089C33.1819 28.8272 33.0653 28.4298 32.9811 28.1382L32.8903 27.8185C32.8823 27.7794 32.8801 27.7394 32.8839 27.6997Z" fill="#263238"/>
<path d="M35.2814 37.0827C35.2619 37.0589 36.3787 36.1172 37.774 34.9788C39.1694 33.8405 40.3207 32.9376 40.3401 32.9614C40.3595 32.9852 39.2428 33.9269 37.8453 35.0652C36.4478 36.2036 35.3008 37.1064 35.2814 37.0827Z" fill="#263238"/>
<path opacity="0.2" d="M21.0383 32.9766L18.7531 40.4912L19.6041 40.9232L20.4422 38.7978C20.4422 38.7978 21.3019 34.3438 21.0383 32.9766Z" fill="black"/>
<g opacity="0.2">
<path d="M32.6354 27.7042C33.8666 28.3522 30.7821 29.9161 29.3954 29.875L30.4084 27.2031C30.4084 27.2031 32.2228 27.4861 32.6354 27.7042Z" fill="black"/>
</g>
<path d="M24.3453 27.2027V25.2134C24.3453 25.2134 28.2333 26.2135 28.3737 28.5398C28.3737 28.5398 28.8684 25.9694 30.8707 25.8441L31.1537 29.4599L28.823 31.4882H26.4621L24.5916 29.8747L24.3453 27.3647" fill="#2059EE"/>
<path d="M29.2485 39.6945C29.243 39.6579 29.243 39.6208 29.2485 39.5843C29.2485 39.4979 29.2485 39.3942 29.2485 39.2668C29.2485 38.9925 29.2615 38.5929 29.2636 38.1025C29.2636 37.1197 29.2399 35.7611 29.1168 34.2664C28.9936 32.7717 28.7971 31.4281 28.6286 30.4583C28.5465 29.9745 28.4752 29.5943 28.4126 29.3135C28.391 29.1882 28.3716 29.0845 28.3564 29.0025C28.3475 28.9657 28.3439 28.9279 28.3456 28.8901C28.36 28.9242 28.3708 28.9597 28.378 28.996C28.3996 29.0802 28.4256 29.1817 28.4558 29.3049C28.5206 29.5705 28.6048 29.9529 28.6999 30.4453C28.9405 31.7061 29.1142 32.9787 29.2204 34.2577C29.326 35.5364 29.3643 36.8198 29.3349 38.1025C29.322 38.595 29.3047 38.9946 29.2831 39.2689C29.2831 39.3942 29.2658 39.5001 29.2593 39.5843C29.2617 39.6214 29.258 39.6586 29.2485 39.6945Z" fill="#263238"/>
<path d="M28.1945 27.8638C28.1173 27.8484 28.0374 27.8544 27.9634 27.8811C27.8768 27.9145 27.8018 27.9722 27.7474 28.0474C27.6746 28.1504 27.6137 28.2612 27.5659 28.3779C27.2446 29.0704 26.9956 29.7943 26.8229 30.5379L26.8056 30.6113L26.7408 30.5725C26.5075 30.4321 26.2699 30.2809 26.0302 30.1167C25.5932 29.8218 25.1728 29.503 24.7709 29.162C24.587 29.0109 24.4393 28.8204 24.3389 28.6047C24.2612 28.4142 24.2166 28.2119 24.2071 28.0064C24.1993 27.7161 24.2268 27.426 24.2892 27.1424C24.3047 27.0366 24.3322 26.933 24.3713 26.8335C24.3675 26.9395 24.3545 27.0451 24.3324 27.1489C24.2874 27.4345 24.2722 27.7241 24.287 28.0129C24.3006 28.2071 24.3466 28.3976 24.4231 28.5766C24.5206 28.7778 24.6615 28.9548 24.8357 29.095C25.2368 29.4296 25.6549 29.7433 26.0885 30.0346C26.3261 30.1966 26.5637 30.3478 26.7926 30.4882L26.7106 30.5228C26.8885 29.7749 27.1523 29.0501 27.4968 28.3628C27.5508 28.2435 27.619 28.1311 27.6998 28.028C27.7634 27.9496 27.8481 27.8911 27.9439 27.8595C28.1146 27.8033 28.201 27.8638 28.1945 27.8638Z" fill="#263238"/>
<path d="M30.8707 25.8442C30.8919 25.9466 30.9028 26.0508 30.9031 26.1553C30.9182 26.3713 30.9376 26.6629 30.9614 27.0042C30.9852 27.3454 31.0327 27.7839 31.104 28.2526C31.1664 28.5003 31.1825 28.7573 31.1515 29.0108C31.0564 29.2758 30.8784 29.503 30.6439 29.6588C30.3358 29.8466 30.0464 30.0636 29.7799 30.3068L29.6956 30.404V30.2744C29.6479 29.5914 29.4495 28.9275 29.1146 28.3304C28.8662 27.8876 28.661 27.6608 28.6826 27.65C28.7397 27.6949 28.7905 27.7472 28.8338 27.8055C28.9633 27.9594 29.0803 28.1234 29.1837 28.2958C29.5438 28.8938 29.7591 29.5676 29.8123 30.2636L29.7172 30.2312C29.9819 29.9794 30.2714 29.7551 30.5812 29.5616C30.7956 29.4221 30.9598 29.2178 31.05 28.9784C31.0783 28.7388 31.0644 28.4961 31.0089 28.2613C30.942 27.7882 30.9074 27.3606 30.888 27.002C30.8685 26.6434 30.8664 26.354 30.8664 26.151C30.8596 26.0488 30.861 25.9462 30.8707 25.8442Z" fill="#263238"/>
<path d="M43.3814 26.3521C43.2237 26.5378 37.5018 34.1885 37.5018 34.1885L38.3075 34.6443L44.1784 27.0843L43.3814 26.3521Z" fill="#263238"/>
<path d="M20.3946 32.3999C20.3946 32.3999 26.4146 41.0658 26.7774 41.2364C27.4902 41.5712 35.7263 34.454 36.5126 33.7736C36.6206 33.6289 36.843 33.3244 37.2815 32.7174C37.2815 32.7174 37.9295 29.7431 38.625 29.972C39.3206 30.201 38.2449 31.484 38.6963 32.6116C39.1478 33.7391 41.217 31.0477 41.2883 30.8058L41.8218 30.1081C41.8218 30.1081 42.3813 31.6957 42.3424 32.3567C42.2214 34.4778 40.2148 37.0007 40.2148 37.0007C40.2148 37.0007 31.2119 48.1679 25.0386 48.5048C23.261 48.6042 20.1009 43.5606 17.9884 39.7763C17.3768 38.6719 17.1893 37.3824 17.4609 36.1495C17.7325 34.9167 18.4446 33.8254 19.4637 33.0803L20.3946 32.3999Z" fill="#FFBE9D"/>
<path d="M41.3402 32.7284C41.3251 32.7176 41.5195 32.3785 41.7333 31.9465C41.9471 31.5145 42.0983 31.1538 42.1156 31.1602C42.0421 31.4445 41.934 31.7187 41.7938 31.9767C41.6724 32.2441 41.5201 32.4964 41.3402 32.7284Z" fill="#EB996E"/>
<path d="M19.3752 28.1641C19.3752 28.1641 12.9146 30.4558 17.712 41.3271L25.1705 36.8257L24.1099 34.2855L19.3752 28.1641Z" fill="#2059EE"/>
<path d="M18.8806 28.3521H18.9324H19.0815C19.2759 28.3553 19.4694 28.3807 19.6582 28.4277C19.9559 28.5048 20.2405 28.6256 20.5027 28.7862C20.8476 29.0012 21.1627 29.2605 21.4402 29.5573C22.1441 30.3466 22.7337 31.2308 23.1919 32.1839C23.7384 33.2401 24.2482 34.4433 24.7709 35.7069L25.2288 36.8128L25.2483 36.8603L25.2029 36.8841C23.0429 38.0613 21.1659 39.1629 19.8396 39.9901C19.1765 40.4027 18.6473 40.7418 18.2844 40.9773L17.8675 41.2473C17.8204 41.2808 17.7705 41.3104 17.7185 41.3358C17.7614 41.2975 17.8069 41.2622 17.8546 41.23C17.9475 41.1652 18.0835 41.0658 18.2607 40.9427C18.6171 40.6965 19.1398 40.3465 19.8007 39.9253C21.1183 39.0829 22.9911 37.9662 25.1511 36.7847L25.1251 36.856L24.6672 35.7501C24.1445 34.4865 23.6391 33.2855 23.1012 32.2314C22.6465 31.2858 22.0652 30.4065 21.3732 29.6178C21.1031 29.3211 20.7952 29.0611 20.4574 28.8445C20.2096 28.6806 19.9398 28.5526 19.656 28.4644C19.4013 28.4043 19.1419 28.3667 18.8806 28.3521Z" fill="#263238"/>
<path d="M51.1822 50.1066C51.1822 50.1066 51.4857 47.0367 52.2008 46.6876C52.9158 46.3384 53.9078 46.105 54.1855 46.5616C54.5263 47.1407 54.7576 47.7776 54.8679 48.4404C54.938 49.056 54.9597 49.6762 54.9329 50.2952L54.1121 50.2129C54.1121 50.2129 54.1212 47.1536 53.8667 46.7052C53.6122 46.2569 52.3554 46.6321 52.2236 47.1781C52.0918 47.724 51.8131 50.1718 51.8131 50.1718L51.1822 50.1066Z" fill="#455A64"/>
<path d="M48.3747 54.4605C48.3991 53.1949 48.4926 50.4056 48.5339 49.1776C48.5396 49.0166 48.6074 48.864 48.723 48.7517C48.8386 48.6395 48.9932 48.5763 49.1543 48.5754L56.6762 48.5454C56.8378 48.5445 56.9934 48.6066 57.11 48.7185C57.2266 48.8303 57.2952 48.9832 57.3011 49.1446L57.5015 54.3386C57.5058 54.4222 57.4932 54.5058 57.4646 54.5845C57.4359 54.6631 57.3917 54.7352 57.3347 54.7964C57.2776 54.8576 57.2088 54.9067 57.1324 54.9408C57.056 54.9749 56.9735 54.9933 56.8898 54.9949L49.0042 55.1083C48.9197 55.109 48.836 55.0927 48.7581 55.0601C48.6802 55.0276 48.6096 54.9796 48.5508 54.9191C48.492 54.8585 48.446 54.7867 48.4157 54.7078C48.3855 54.629 48.3715 54.5449 48.3747 54.4605Z" fill="#455A64"/>
<path d="M56.7964 50.4502C56.7964 50.4502 56.8018 50.4666 56.7982 50.5041L56.799 50.6722C56.8012 50.8238 56.8024 51.0417 56.8035 51.3211C56.8068 51.8908 56.8066 52.7118 56.8145 53.7234C56.815 53.787 56.8154 53.8505 56.8138 53.9147C56.8197 53.9839 56.8054 54.0534 56.7728 54.1147C56.7379 54.1772 56.6845 54.2274 56.6199 54.2582C56.5519 54.2874 56.4777 54.2993 56.404 54.293L55.5426 54.3015L53.6443 54.3171L51.5439 54.3265L50.4346 54.3348L49.867 54.3375L49.7242 54.339C49.674 54.3418 49.6236 54.3394 49.574 54.3316C49.523 54.3197 49.4753 54.2967 49.4344 54.2642C49.3934 54.2317 49.3601 54.1905 49.3369 54.1436C49.3149 54.1043 49.3006 54.0611 49.295 54.0164C49.2932 53.9693 49.2947 53.9324 49.2962 53.8887L49.2971 53.6428C49.2997 53.4782 49.301 53.3163 49.3043 53.1538C49.3069 52.83 49.319 52.5076 49.314 52.1955C49.321 51.5678 49.328 50.9605 49.3336 50.3697L49.3255 50.3451L49.3535 50.3473C51.5156 50.4562 53.3701 50.4732 54.6843 50.4657C55.3407 50.4633 55.8606 50.4536 56.2178 50.4474L56.6297 50.4414L56.7336 50.439L56.7684 50.4412L56.7302 50.4424L56.6249 50.4475L56.2191 50.4651C55.8612 50.4761 55.3406 50.4906 54.6842 50.4999C53.3706 50.5162 51.5038 50.5101 49.3506 50.4005L49.378 50.3733L49.3604 52.1984C49.3572 52.5132 49.3554 52.8322 49.3508 53.1567C49.3488 53.3165 49.3482 53.4804 49.3456 53.645C49.3453 53.727 49.345 53.809 49.3426 53.8916C49.3332 53.9693 49.3428 54.048 49.3705 54.1212C49.3891 54.1619 49.417 54.1976 49.4519 54.2256C49.4867 54.2536 49.5277 54.2731 49.5714 54.2825C49.6164 54.2913 49.6623 54.2937 49.708 54.2898L49.8508 54.2883L50.4184 54.2855L51.5277 54.2773L53.6261 54.2685L55.5264 54.259L56.3864 54.2533C56.4514 54.2599 56.517 54.2508 56.5777 54.2267C56.635 54.1996 56.6825 54.1554 56.7134 54.1001C56.7416 54.0452 56.7543 53.9836 56.7503 53.922L56.751 53.7307C56.7553 52.7219 56.7603 51.9084 56.7638 51.3387C56.7648 51.0587 56.767 50.8374 56.7757 50.6844L56.7763 50.5136C56.7943 50.4713 56.7964 50.4502 56.7964 50.4502Z" fill="#263238"/>
<path d="M54.6666 53.8098C54.6666 53.8098 54.7137 53.8079 54.7991 53.7912C54.9221 53.7614 55.0343 53.6976 55.1229 53.6072C55.1909 53.5341 55.2421 53.447 55.2729 53.352C55.3037 53.257 55.3133 53.1564 55.3011 53.0573L55.2945 52.2568C55.295 52.1065 55.2942 51.9521 55.2968 51.8012C55.3106 51.636 55.2606 51.4718 55.1571 51.3423C55.1031 51.274 55.0353 51.2177 54.9581 51.1773C54.881 51.1369 54.7961 51.1132 54.7092 51.1078C54.5261 51.1044 54.3321 51.1091 54.1361 51.1077L51.5794 51.1128C51.4716 51.1135 51.3659 51.142 51.2724 51.1955C51.1788 51.249 51.1007 51.3257 51.0455 51.4182C50.9907 51.5084 50.9611 51.6116 50.9597 51.7171C50.9586 51.8243 50.9576 51.9316 50.9585 52.0381C50.9584 52.2519 50.9577 52.4637 50.959 52.6679L50.9572 52.9732C50.9602 53.0723 50.953 53.1747 50.9657 53.2683C50.9793 53.3595 51.013 53.4466 51.0642 53.5233C51.1154 53.6 51.1829 53.6644 51.2619 53.712C51.3403 53.7563 51.4269 53.7842 51.5164 53.7942C51.6031 53.8021 51.6946 53.7969 51.7814 53.7979L52.7533 53.8008L54.1611 53.808L54.5429 53.8141L54.6433 53.8152L54.6761 53.818L54.6453 53.8282L54.5463 53.8312L54.1637 53.8367L52.7545 53.8459L51.7723 53.8396C51.6829 53.8372 51.5981 53.8423 51.5025 53.8352C51.4081 53.8236 51.317 53.7933 51.2344 53.7461C51.1488 53.695 51.0754 53.6257 51.0195 53.5431C50.9637 53.4605 50.9266 53.3666 50.911 53.2681C50.9018 53.1678 50.899 53.0669 50.9026 52.9662C50.9009 52.8644 50.9019 52.764 50.9016 52.6595C50.9003 52.4553 50.9011 52.2435 50.8991 52.0304L50.9017 51.7066C50.9057 51.5304 50.9785 51.3628 51.1046 51.2397C51.2307 51.1165 51.4 51.0477 51.5762 51.0479L54.1322 51.0476C54.3303 51.0483 54.5209 51.047 54.7087 51.0511C54.8025 51.0566 54.8941 51.082 54.9774 51.1255C55.0608 51.169 55.1339 51.2297 55.1921 51.3035C55.2991 51.443 55.3507 51.6172 55.3371 51.7924C55.3359 51.9543 55.3367 52.1087 55.3328 52.2487C55.3324 52.5445 55.33 52.8136 55.3285 53.0506C55.3307 53.108 55.3291 53.1655 55.3237 53.2227C55.3177 53.2759 55.3052 53.3282 55.2863 53.3783C55.2534 53.4665 55.2024 53.5468 55.1365 53.6141C55.0439 53.7062 54.926 53.7688 54.7978 53.7939C54.755 53.8053 54.7108 53.8107 54.6666 53.8098Z" fill="#263238"/>
<g opacity="0.3">
<path d="M49.5493 54.3125C51.8023 54.9673 54.1977 54.9485 56.4402 54.2584L49.5493 54.3125Z" fill="black"/>
</g>
<path d="M53.789 51.8839L52.9024 51.8848C52.8356 51.8849 52.7715 51.8586 52.7241 51.8115C52.6766 51.7645 52.6497 51.7006 52.6493 51.6338C52.6495 51.5667 52.6762 51.5025 52.7236 51.4549C52.7709 51.4074 52.8351 51.3805 52.9022 51.38L53.7895 51.3812C53.8563 51.381 53.9204 51.4074 53.9679 51.4544C54.0153 51.5014 54.0422 51.5653 54.0427 51.6321C54.0426 51.6653 54.0359 51.6981 54.0231 51.7287C54.0103 51.7593 53.9916 51.7871 53.968 51.8105C53.9445 51.8339 53.9165 51.8524 53.8858 51.865C53.8551 51.8776 53.8222 51.884 53.789 51.8839Z" fill="#E0E0E0"/>
</svg>
