<svg width="111" height="114" viewBox="0 0 111 114" fill="none" xmlns="http://www.w3.org/2000/svg">
<path d="M106.432 18.874L105.784 17.8101C100.301 8.81498 90.4131 3.39447 79.9872 4.05408C78.6429 4.13128 77.3062 4.30909 75.9885 4.58602C66.509 6.61007 58.261 13.7621 54.8435 22.9221C52.8308 28.3081 52.271 34.5105 48.4456 38.7874C43.4819 44.3515 35.05 44.5244 27.6525 44.2956C20.2549 44.0669 11.8044 44.2611 6.85932 49.8465C3.77234 53.36 2.78867 58.3496 3.03658 63.0201C3.6977 75.425 12.3668 86.5187 23.3792 92.0323C34.3916 97.5459 47.3713 98.0379 59.4287 95.6123C76.3218 92.2158 92.3885 82.8855 102.044 68.4831C111.699 54.0808 114.144 34.4281 106.432 18.874Z" fill="#FFE7EC"/>
<path d="M70.8199 60.7978C70.8048 60.5756 70.7369 60.3602 70.6218 60.1694C70.5067 59.9787 70.3478 59.8182 70.1583 59.7012C64.3096 55.8265 59.8902 47.2363 59.4479 39.962C59.4479 39.549 59.4223 39.1286 59.4077 38.7046C59.0678 28.305 57.5361 15.6755 56.1617 12.3345C53.6249 6.12031 45.0274 5.54276 45.0274 5.54276C33.6115 4.72395 31.5718 13.4969 30.4057 21.484C29.6747 26.4517 26.9294 44.1987 26.9294 44.1987L29.0276 45.0138C30.2332 48.6399 32.2284 51.9533 34.8694 54.715C37.5104 57.4767 40.7313 59.6179 44.2999 60.9843C46.4018 61.7775 48.1856 62.0809 49.0191 61.412C52.3547 64.8073 56.4825 67.3196 61.0307 68.7228C62.862 69.342 64.7963 69.599 66.7258 69.4794C67.9723 69.3625 69.2846 68.9531 70.0157 67.9442C70.3382 67.5075 70.5298 66.9881 70.5682 66.4467C70.6067 65.9052 70.4904 65.364 70.2329 64.8861C69.9754 64.4082 69.5873 64.0135 69.1139 63.7478C68.6405 63.4822 68.1013 63.3567 67.5593 63.3859C68.0198 61.9639 70.8674 62.377 70.8199 60.7978Z" fill="#263238"/>
<path d="M46.5442 8.77048L45.8132 8.09058L38.0966 11.2013C37.5579 11.2304 37.0497 11.4606 36.6727 11.8465C36.2956 12.2323 36.0772 12.7457 36.0605 13.2849L36.13 38.4304C36.13 40.1339 36.459 41.6106 37.4898 42.9704L38.5864 44.4034C41.0575 47.664 46.1385 47.3971 48.0905 43.8002C48.208 43.5971 48.299 43.3796 48.361 43.1532C48.4103 42.9679 48.4494 42.7799 48.478 42.5903C48.7046 40.5652 48.7192 38.8106 48.7192 38.8106C48.8581 36.5918 48.902 35.6779 48.902 35.6998C48.902 35.7218 53.6284 35.1552 54.9078 29.0909C55.5438 26.0715 55.4232 21.9226 55.2441 17.8359C55.0102 12.181 51.0806 8.76683 46.5442 8.77048Z" fill="#FFBE9D"/>
<path d="M44.9615 21.2244C44.9529 21.4283 44.8654 21.621 44.7173 21.7615C44.5693 21.902 44.3724 21.9795 44.1683 21.9774C44.0694 21.9803 43.9709 21.9637 43.8784 21.9285C43.7859 21.8934 43.7012 21.8403 43.6293 21.7724C43.5573 21.7045 43.4994 21.6231 43.4589 21.5329C43.4184 21.4426 43.3961 21.3452 43.3933 21.2463C43.4019 21.0417 43.4899 20.8485 43.6388 20.7079C43.7876 20.5673 43.9854 20.4903 44.1902 20.4933C44.2895 20.4878 44.3889 20.5027 44.4823 20.537C44.5757 20.5712 44.6611 20.6242 44.7333 20.6927C44.8055 20.7611 44.863 20.8436 44.9022 20.935C44.9415 21.0264 44.9616 21.1249 44.9615 21.2244Z" fill="#263238"/>
<path d="M52.9412 21.4364C52.9336 21.6413 52.8458 21.835 52.6968 21.9758C52.5477 22.1167 52.3493 22.1933 52.1443 22.1894C52.0454 22.1923 51.9469 22.1757 51.8544 22.1405C51.762 22.1054 51.6773 22.0523 51.6054 21.9844C51.5334 21.9165 51.4755 21.8351 51.435 21.7448C51.3945 21.6546 51.3722 21.5572 51.3694 21.4583C51.3779 21.2537 51.466 21.0605 51.6148 20.9199C51.7637 20.7792 51.9615 20.7022 52.1663 20.7053C52.2653 20.7019 52.364 20.7181 52.4567 20.7531C52.5494 20.7881 52.6342 20.8411 52.7063 20.9091C52.7784 20.9771 52.8362 21.0587 52.8765 21.1492C52.9169 21.2397 52.9388 21.3373 52.9412 21.4364Z" fill="#263238"/>
<path d="M54.451 19.4515C54.3486 19.5502 53.7784 19.0859 52.934 19.0384C52.0896 18.9909 51.4499 19.4039 51.3622 19.2833C51.2744 19.1627 51.428 19.053 51.7277 18.8703C52.105 18.6359 52.5454 18.5236 52.9888 18.5486C53.4278 18.5705 53.8487 18.7304 54.1915 19.0055C54.4218 19.2175 54.5022 19.4076 54.451 19.4515Z" fill="#263238"/>
<path d="M45.8864 19.5392C45.773 19.6233 45.254 19.1005 44.4242 18.9726C43.5944 18.8447 42.9145 19.17 42.8378 19.053C42.8012 19.0018 42.9255 18.8337 43.2252 18.6875C43.6243 18.4932 44.0737 18.4268 44.5119 18.4974C44.9471 18.5635 45.3502 18.7656 45.6634 19.075C45.8827 19.3052 45.9412 19.499 45.8864 19.5392Z" fill="#263238"/>
<path d="M48.8361 25.6839C49.2874 25.5665 49.7516 25.5063 50.2179 25.5048C50.4336 25.5048 50.6419 25.461 50.6858 25.3147C50.715 25.0926 50.6754 24.8668 50.5725 24.6677L50.0168 22.9972C49.2492 20.6139 48.7045 18.6619 48.7996 18.6327C48.8946 18.6034 49.5965 20.5079 50.3678 22.8875C50.5505 23.4773 50.726 24.0378 50.8941 24.569C51.0157 24.8362 51.0403 25.1374 50.9636 25.4207C50.9289 25.4944 50.878 25.5593 50.8147 25.6106C50.7514 25.6619 50.6773 25.6982 50.598 25.7168C50.4782 25.744 50.3553 25.7551 50.2325 25.7497C49.7661 25.7867 49.297 25.7646 48.8361 25.6839Z" fill="#263238"/>
<path d="M48.9166 35.6996C46.0343 35.5987 43.2366 34.7002 40.8345 33.1042C40.8345 33.1042 42.6731 37.4432 48.8325 37.1873L48.9166 35.6996Z" fill="#EB996E"/>
<path d="M48.3756 27.6834C48.2252 27.4733 48.0238 27.305 47.7903 27.1944C47.5569 27.0837 47.2991 27.0344 47.0413 27.051C46.8538 27.0585 46.6697 27.1037 46.5001 27.1841C46.3305 27.2646 46.1789 27.3784 46.0544 27.5189C45.9356 27.6543 45.8609 27.8226 45.84 28.0015C45.8191 28.1803 45.8531 28.3613 45.9374 28.5205C46.066 28.6792 46.2391 28.796 46.4344 28.8559C46.6297 28.9159 46.8385 28.9161 47.034 28.8568C47.4348 28.733 47.8074 28.5318 48.1306 28.2646C48.2309 28.2032 48.3179 28.1224 48.3865 28.027C48.4178 27.9805 48.4345 27.9258 48.4345 27.8698C48.4345 27.8138 48.4178 27.7591 48.3865 27.7126" fill="#EB996E"/>
<path d="M46.3286 26.1408C46.4675 26.1408 46.4237 27.0583 47.173 27.7455C47.9224 28.4327 48.9057 28.3852 48.9057 28.5132C48.9057 28.5716 48.6791 28.6813 48.266 28.6703C47.7242 28.6541 47.2058 28.4455 46.8038 28.0818C46.4224 27.735 46.1894 27.2545 46.1532 26.7403C46.1459 26.3565 46.2592 26.1335 46.3286 26.1408Z" fill="#263238"/>
<path d="M46.6942 16.2495C46.5772 16.4615 45.7584 16.2276 44.7605 16.1947C43.7626 16.1618 42.9328 16.308 42.8305 16.085C42.7866 15.979 42.9584 15.7853 43.313 15.6171C43.7806 15.4127 44.2887 15.3176 44.7986 15.3392C45.3086 15.3607 45.8068 15.4983 46.2556 15.7414C46.5919 15.9388 46.7454 16.1471 46.6942 16.2495Z" fill="#263238"/>
<path d="M54.3304 15.8255C54.1732 16.0082 53.5993 15.7816 52.9011 15.7377C52.2029 15.6939 51.6034 15.7999 51.4792 15.5915C51.4243 15.4928 51.5267 15.3064 51.7935 15.1382C52.1523 14.9385 52.5622 14.8496 52.9714 14.8828C53.3807 14.916 53.7709 15.0697 54.0928 15.3247C54.3304 15.533 54.3998 15.7341 54.3304 15.8255Z" fill="#263238"/>
<path d="M36.2324 24.0281C36.2324 24.0281 40.5568 25.3733 43.0022 14.7032C43.8393 11.0478 47.2206 8.10153 47.2206 8.10153L45.8498 7.68848C45.8498 7.68848 37.3254 10.0901 37.1828 10.1961C37.0403 10.3021 35.0298 14.6082 35.0298 14.6082L36.2324 24.0281Z" fill="#263238"/>
<path d="M37.2998 23.6187C37.3217 23.1655 36.8465 22.0652 36.4006 21.9701C35.2089 21.7252 33.0413 21.7106 32.8658 24.7592C32.6319 28.93 36.8648 28.3086 36.8867 28.188C36.9087 28.0674 37.223 25.1906 37.2998 23.6187Z" fill="#FFBE9D"/>
<path d="M35.6949 26.5356C35.6949 26.5356 35.6181 26.5831 35.4939 26.6306C35.4064 26.6637 35.3132 26.679 35.2197 26.6759C35.1262 26.6728 35.0343 26.6512 34.9492 26.6124C34.5179 26.4259 34.1852 25.7058 34.2181 24.9528C34.2278 24.5955 34.3164 24.2447 34.4777 23.9256C34.5238 23.7975 34.6006 23.6826 34.7012 23.5909C34.8019 23.4992 34.9234 23.4334 35.0552 23.3993C35.1404 23.3801 35.2295 23.3921 35.3066 23.433C35.3837 23.4739 35.4437 23.541 35.4756 23.6222C35.5231 23.7429 35.4939 23.8233 35.5121 23.8306C35.5304 23.8379 35.6072 23.7685 35.5852 23.593C35.5663 23.4888 35.5136 23.3938 35.4354 23.3225C35.3245 23.2292 35.1814 23.1832 35.0369 23.1946C34.8639 23.2182 34.7 23.2861 34.561 23.3918C34.422 23.4975 34.3127 23.6373 34.2437 23.7977C34.0453 24.1485 33.9361 24.5426 33.9257 24.9455C33.9038 25.7862 34.2912 26.5977 34.8834 26.8061C34.9933 26.8445 35.1104 26.8578 35.2261 26.8451C35.3419 26.8325 35.4533 26.7942 35.5523 26.733C35.6803 26.6379 35.7278 26.5429 35.6949 26.5356Z" fill="#EB996E"/>
<path d="M39.1641 21.9775C39.3745 21.946 39.5832 21.9033 39.7891 21.8495C40.3434 21.6813 40.8513 21.3873 41.2732 20.9905C41.5662 20.7184 41.8263 20.4129 42.0482 20.0803C42.2989 19.6972 42.5096 19.2893 42.6769 18.8631C43.0372 17.8719 43.3374 16.86 43.5761 15.8327C43.8444 14.8084 44.1641 13.7983 44.5339 12.8061C44.841 11.9943 45.2076 11.2063 45.6305 10.4483C45.9131 9.93874 46.2319 9.45009 46.5845 8.98617C46.7052 8.81802 46.8148 8.70105 46.8843 8.62063C46.9169 8.57703 46.9536 8.53664 46.9939 8.5C46.9669 8.54819 46.9351 8.5935 46.8989 8.63525C46.8368 8.72663 46.7344 8.84726 46.6174 9.00079C46.2821 9.46976 45.9745 9.95798 45.6963 10.463C45.2892 11.2218 44.9362 12.0085 44.6399 12.817C44.2963 13.7272 43.9819 14.7507 43.6895 15.8364C43.4525 16.8689 43.1484 17.8848 42.7793 18.8777C42.6059 19.308 42.3891 19.7196 42.1323 20.1059C41.9038 20.441 41.6363 20.7478 41.3354 21.0198C40.9007 21.4198 40.3769 21.7106 39.8074 21.8678C39.5991 21.9341 39.3826 21.971 39.1641 21.9775Z" fill="#263238"/>
<path d="M33.4688 39.7645C33.4449 39.6984 33.429 39.6296 33.4213 39.5598L33.319 38.9676C33.2276 38.4339 33.1033 37.6736 32.9534 36.7049H33.0558C33.074 36.8584 33.0996 37.0266 33.1216 37.1984C33.1471 37.2532 33.18 37.319 33.2093 37.3848L33.1033 37.4213C32.0685 33.8284 31.5335 30.11 31.5132 26.3711C31.5132 24.8468 31.5132 23.2274 31.9262 21.619C32.0913 20.9576 32.3459 20.3218 32.6829 19.7292C33.0143 19.1574 33.3999 18.6188 33.8344 18.1208C34.6824 17.1412 35.5963 16.2931 36.4297 15.4633L40.9076 11.0768L43.9342 8.11962L44.764 7.32275L44.9833 7.11805L45.0638 7.05225C45.0638 7.05225 45.0455 7.08149 44.998 7.13267L44.7933 7.34833L43.9891 8.1708C43.258 8.90188 42.2528 9.91077 41.0026 11.1719L36.554 15.6022C35.7242 16.443 34.8104 17.291 33.9769 18.2597C33.0881 19.2333 32.4473 20.407 32.109 21.6812C31.7106 23.264 31.7142 24.876 31.696 26.393C31.7119 30.1176 32.222 33.8236 33.2129 37.414L33.1069 37.4542L33.0229 37.2642C33.0009 37.0887 32.979 36.9206 32.9607 36.7707H33.0594C33.202 37.7394 33.3116 38.5033 33.3884 39.0407C33.4213 39.2929 33.4469 39.4903 33.4688 39.6365C33.4704 39.6791 33.4704 39.7218 33.4688 39.7645Z" fill="#455A64"/>
<path d="M30.1863 20.4896C30.202 20.4279 30.2266 20.3688 30.2594 20.3142C30.3252 20.1826 30.4056 20.0217 30.5006 19.8243C30.7127 19.4003 31.0453 18.8008 31.4839 18.0734C31.9226 17.346 32.4746 16.4979 33.1325 15.5877C33.7905 14.6775 34.5691 13.7162 35.4318 12.7475C36.2945 11.7788 37.1827 10.9198 38.0088 10.1631C38.835 9.40643 39.6245 8.76673 40.3044 8.25863C40.9843 7.75053 41.5436 7.35209 41.9457 7.09621L42.4063 6.80013C42.4586 6.76525 42.5136 6.73469 42.5708 6.70874C42.5708 6.70874 42.5269 6.75626 42.4246 6.83303L41.9859 7.1547C41.5985 7.42886 41.0501 7.84192 40.3885 8.36464C39.7269 8.88736 38.9519 9.53802 38.1295 10.291C37.307 11.0441 36.437 11.9177 35.5707 12.8754C34.7044 13.8331 33.9404 14.7982 33.2714 15.6901C32.6025 16.582 32.0432 17.4264 31.5936 18.1428C31.144 18.8593 30.7931 19.4478 30.5628 19.8609L30.2886 20.3324C30.2599 20.3882 30.2256 20.4408 30.1863 20.4896Z" fill="#455A64"/>
<path d="M34.9602 38.1854C35.1064 37.9734 36.0788 36.0981 36.0788 36.0981L41.5765 40.8429C41.5765 40.8429 46.9792 45.3646 46.9792 45.0722L47.8419 40.7222L48.9019 36.7598L50.8831 39.7572C50.8831 39.7572 57.0973 51.9663 57.0973 52.1125C57.0973 52.2587 60.9538 64.9064 60.9538 64.9064L60.124 70.0239L60.0253 88.173L48.4121 87.6869L46.1202 84.0315L42.1979 60.7538L34.9602 38.1854Z" fill="white"/>
<path d="M47.9736 84.269H60.7858L64.5618 103.734H38.8899L47.9736 84.269Z" fill="#263238"/>
<path d="M32.8583 41.2084L25.3794 44.0158L32.2881 74.7833C32.2881 74.7833 31.8824 83.0957 30.4129 87.3323C28.9434 91.5689 25.4927 103.734 25.4927 103.734H48.4706C48.4706 103.734 49.4466 87.0362 49.0591 81.0706C48.6716 75.105 48.8325 63.861 46.5478 57.9941C44.2632 52.1271 35.1064 37.7102 35.1064 37.7102L32.8583 41.2084Z" fill="#EC6980"/>
<path d="M49.2529 37.1106L52.6415 39.9106L61.9482 41.296C61.9482 41.296 66.3529 57.2519 65.5378 63.5245C64.7226 69.7972 65.8594 80.6574 65.8594 80.6574L69.9389 103.734H60.9831C60.9831 103.734 58.4243 76.7461 58.2745 77.0715C58.1246 77.3968 57.6311 63.8718 56.6551 59.4853C55.6791 55.0988 50.7516 41.3107 50.7516 41.3107L49.2529 37.1106Z" fill="#EC6980"/>
<path d="M73.6856 76.8268C73.6856 76.8268 77.4361 75.1161 77.4361 71.775C77.4361 68.434 75.1514 63.7076 74.6653 61.9054C74.1791 60.1033 63.0923 41.044 61.9518 41.289L60.8113 41.5339L66.6782 67.2862L58.6912 69.2418L62.098 79.0456L73.6856 76.8268Z" fill="#EC6980"/>
<path d="M62.2515 68.5033L63.8964 63.181L64.1779 59.5549L68.0489 56.9961C68.0489 56.9961 69.0871 57.1167 68.78 57.9209C68.473 58.7251 66.8902 60.1726 66.8902 60.1726L65.9654 62.757L67.4677 60.1324L69.661 59.0358L71.8359 59.1966C71.8359 59.1966 72.238 60.1617 71.2328 60.2019H70.1362L68.4839 61.5325L67.4531 64.0254L69.0067 61.6129L71.3022 60.7977L72.7644 61.1633C72.7644 61.1633 73.1665 61.8066 72.4427 61.8943C71.719 61.9821 71.2365 61.9748 71.2365 61.9748L69.9095 62.746L68.7398 65.1952L70.7941 63.5027L73.448 63.1847C73.448 63.1847 73.8939 63.8244 73.2067 64.0656C72.5069 64.353 71.8224 64.6763 71.156 65.0343L69.6646 66.8438L62.2515 68.5033Z" fill="#FFBE9D"/>
<path d="M49.1506 84.2692C49.1322 84.2308 49.1187 84.1903 49.1104 84.1485C49.0884 84.0608 49.0555 83.9402 49.019 83.783C48.9349 83.4577 48.8216 82.9971 48.6534 82.4086C48.3574 81.1986 47.9224 79.4842 47.4033 77.3349C46.8842 75.1855 46.2372 72.6486 45.5135 69.8267C45.1479 68.4157 44.7604 66.9352 44.3364 65.4036C44.1281 64.6396 43.9087 63.8647 43.6711 63.0824C43.5542 62.6913 43.4226 62.3002 43.3056 61.9054C43.1683 61.5151 43.0084 61.133 42.8267 60.7613C41.456 58.0087 40.0559 55.4171 38.8058 53.0264C37.5556 50.6358 36.364 48.4645 35.3551 46.5856L35.3295 46.5344L35.3697 46.4979C35.6256 46.2676 35.8778 46.0519 36.13 45.8472C36.2542 45.7428 36.3848 45.6464 36.5212 45.5584L36.5796 45.5255H36.6162C36.6162 45.5255 36.6162 45.5255 36.5943 45.5511C36.5882 45.5671 36.5887 45.5849 36.5955 45.6006C36.6023 45.6163 36.615 45.6287 36.6308 45.6352H36.5285H36.3018C35.695 45.6352 35.1248 45.6352 34.5984 45.6352H34.5582V45.5986C34.0245 44.2206 33.6041 43.1276 33.3117 42.3673L32.9864 41.5119L32.906 41.2889L32.884 41.2122C32.884 41.2122 32.884 41.2341 32.9206 41.2816L33.0156 41.5009L33.3812 42.3453C33.6846 43.102 34.1123 44.173 34.6788 45.5584L34.624 45.5219C35.154 45.5219 35.7206 45.4926 36.3311 45.4926H36.5614C36.6052 45.4894 36.6492 45.4894 36.693 45.4926H36.7149C36.7243 45.502 36.731 45.5138 36.7342 45.5267C36.7374 45.5395 36.7371 45.553 36.7332 45.5657C36.7112 45.606 36.7149 45.5913 36.7076 45.5986H36.6747H36.6564C36.641 45.6058 36.6263 45.6144 36.6125 45.6242C36.4842 45.7093 36.362 45.8033 36.247 45.9057C36.0021 46.1104 35.7499 46.3261 35.5159 46.5564V46.4686C36.5285 48.3439 37.7092 50.5152 38.9959 52.8948C40.2826 55.2745 41.6716 57.8698 43.0461 60.6297C43.2315 61.0082 43.3938 61.3976 43.5322 61.7957C43.6602 62.1942 43.7918 62.5853 43.8978 62.9801C44.1415 63.7672 44.3632 64.5434 44.563 65.3086C44.9834 66.8402 45.3636 68.3206 45.7255 69.7353C46.4566 72.5609 47.0633 75.1124 47.5788 77.2581L48.7704 82.3428C48.902 82.9349 49.008 83.3992 49.0811 83.7282C49.1104 83.878 49.136 83.9987 49.1542 84.0937C49.1628 84.152 49.1615 84.2113 49.1506 84.2692Z" fill="#263238"/>
<path d="M60.983 66.1711C60.9734 66.0763 60.9734 65.9808 60.983 65.886C60.983 65.6776 61.0086 65.4071 61.0305 65.0672C61.0305 64.8881 61.0524 64.7016 61.0671 64.475V63.7732C61.0671 63.2651 61.0671 62.6765 61.0305 62.0588C60.8403 58.7499 60.1907 55.4836 59.1005 52.3537C58.6563 51.0453 58.1338 49.7648 57.5359 48.5192C57.003 47.311 56.3988 46.1356 55.7265 44.999C55.1307 43.9609 54.5824 43.058 54.1218 42.3123L53.0252 40.5687C52.9046 40.3786 52.8095 40.2031 52.7327 40.1044C52.6982 40.0507 52.6676 39.9945 52.6414 39.9363C52.6864 39.9821 52.7268 40.0323 52.762 40.0861L53.0764 40.5358C53.3469 40.9305 53.7343 41.5118 54.2095 42.2502C54.6847 42.9885 55.2477 43.8878 55.8545 44.9223C56.5368 46.0587 57.1472 47.2369 57.6822 48.4497C58.2918 49.7062 58.8205 51.0004 59.265 52.3244C60.3634 55.4691 60.9988 58.7568 61.1511 62.0844C61.1913 62.7241 61.1694 63.3016 61.1511 63.8061C61.1511 64.0583 61.1511 64.2959 61.1329 64.5116C61.1146 64.7272 61.0963 64.9246 61.0817 65.1037C61.0488 65.4437 61.0196 65.7178 61.0013 65.9225C60.9994 66.0057 60.9933 66.0886 60.983 66.1711Z" fill="#263238"/>
<path d="M73.9634 76.6843C73.8888 76.7124 73.8117 76.7332 73.7331 76.7464L73.0642 76.9L70.5383 77.4519L61.7068 79.3271L61.6301 79.3454L61.6045 79.2687C60.8734 77.0754 60.0473 74.6775 59.1956 72.1589L58.311 69.538L58.2744 69.4393L58.3768 69.4137L65.0186 67.8528L67.8808 67.1839L69.1712 66.8841C69.5676 66.7746 69.9743 66.706 70.3848 66.6794C71.0904 66.655 71.7919 66.7978 72.4318 67.0962C72.9118 67.3136 73.3556 67.6033 73.7477 67.9552C73.9932 68.1751 74.2149 68.4202 74.4094 68.6863C74.4642 68.774 74.5117 68.8434 74.5483 68.8983C74.5848 68.9531 74.5958 68.975 74.5921 68.975C74.3311 68.6205 74.032 68.2957 73.7002 68.0064C73.3073 67.6687 72.8662 67.3915 72.3916 67.1839C71.7603 66.9116 71.0752 66.7866 70.3884 66.8183C69.9884 66.8484 69.5926 66.9207 69.2077 67.034L67.9174 67.3447L65.0588 68.0319C63.0374 68.5108 60.7966 69.0445 58.4206 69.6147L58.4864 69.4904L59.3747 72.1114C60.2227 74.6336 61.0342 77.0352 61.7726 79.2284L61.6703 79.17L70.5164 77.3642L73.0532 76.8597L73.7258 76.7318C73.8038 76.7105 73.8832 76.6947 73.9634 76.6843Z" fill="#263238"/>
<path d="M30.793 89.467L43.0277 90.5929L40.9222 94.336L28.0369 93.0749L30.793 89.467Z" fill="#EC6980"/>
<path d="M30.7931 89.4597C30.7931 89.4597 30.7931 89.4889 30.7492 89.5328L30.6139 89.7229L30.0803 90.454L28.0844 93.1151L28.0405 93.0128L40.4799 94.2117L40.9332 94.2556L40.8418 94.3031L42.9473 90.5563L43.0167 90.6916L34.2657 89.8252L31.7069 89.5657L31.0197 89.4889C30.9383 89.4841 30.8576 89.4718 30.7784 89.4524H31.0087L31.685 89.4999L34.2438 89.7083L43.0387 90.5015H43.1776L43.1081 90.6258L41.0099 94.3726L40.977 94.4237H40.9149L40.4616 94.3799L28.0332 93.1334H27.9163L27.9857 93.042L30.0474 90.4028L30.603 89.701C30.6616 89.617 30.7251 89.5364 30.7931 89.4597Z" fill="#263238"/>
<path d="M63.7283 90.7246L65.64 94.3361L69.7487 93.4954L67.5701 90.1689L63.7283 90.7246Z" fill="#EC6980"/>
<path d="M63.7283 90.7244C63.8107 90.7002 63.8951 90.6831 63.9805 90.6732L64.7481 90.5416C65.4134 90.4283 66.3821 90.2675 67.5591 90.0884H67.6103L67.6395 90.1322C68.2756 91.0973 69.0286 92.2341 69.8328 93.4514L69.9096 93.5683L69.7707 93.5976L69.566 93.6378L65.6583 94.4237H65.5998L65.5706 94.3689C64.993 93.2722 64.5288 92.3401 64.2108 91.7041C64.0646 91.408 63.9439 91.1631 63.8452 90.973C63.8013 90.8931 63.7634 90.81 63.7319 90.7244C63.7319 90.7244 63.7941 90.8231 63.8928 90.9949L64.3058 91.726C64.6714 92.3547 65.1466 93.232 65.7168 94.2848L65.6254 94.2446L69.5294 93.4331L69.7341 93.3929L69.6756 93.5354C68.8787 92.3145 68.1367 91.174 67.508 90.2017L67.5847 90.2383C66.4479 90.3954 65.5011 90.5088 64.8212 90.6038L64.028 90.6952C63.8379 90.7171 63.7356 90.7281 63.7283 90.7244Z" fill="#263238"/>
<g opacity="0.3">
<path d="M29.5284 93.2248L29.0203 94.3361L41.7301 95.5021L42.6769 91.2144L40.9223 94.3361L29.5284 93.2248Z" fill="black"/>
</g>
<g opacity="0.3">
<path d="M32.1494 76.7317C32.1494 76.7317 34.1453 80.9135 36.7369 82.138C40.2717 83.8049 49.1251 82.7156 49.1251 82.7156L49.1507 80.1751L38.89 80.76L32.1494 76.7317Z" fill="black"/>
</g>
<path d="M25.8584 43.8222C25.8584 43.8222 22.2724 44.0671 22.203 53.4395C22.1335 62.812 33.1217 78.5375 34.9969 80.0874C36.8721 81.6373 39.0178 82.6755 44.6618 81.8384C51.7459 80.7893 56.6734 79.8425 56.6734 79.8425L55.6938 71.2852L43.0388 70.715L32.778 49.616C32.778 49.616 29.3566 43.4018 25.8584 43.8222Z" fill="#EC6980"/>
<g opacity="0.3">
<path d="M58.757 74.8784C57.368 74.3008 55.8327 74.2898 54.3157 74.2862L48.3355 74.2679C47.0453 74.2101 45.7531 74.317 44.49 74.5859C43.2156 74.863 42.0951 75.6161 41.3573 76.6914L38.2319 79.2758C42.2336 80.2451 46.4334 79.9995 50.2948 78.5703C51.2352 78.1544 52.2148 77.8336 53.2191 77.6126C55.9204 77.1886 58.6547 78.7568 61.3414 78.256C61.3451 76.7499 60.1424 75.4596 58.757 74.8784Z" fill="black"/>
</g>
<path d="M38.4988 66.1711C39.6656 66.6416 40.8639 67.03 42.0848 67.3336C43.6112 67.6507 45.1008 68.1248 46.5297 68.7482C47.5423 69.1476 48.532 69.6028 49.4943 70.1117L51.3805 76.6914C51.3805 76.6914 48.2478 78.6617 44.713 78.5593C41.1782 78.457 38.0456 79.6011 37.5923 79.2904C37.139 78.9797 37.0878 78.4167 37.5923 78.1645C38.0967 77.9123 40.2388 77.6089 40.2388 77.6089L42.0665 76.8522C42.0665 76.8522 35.7536 77.4079 35.2492 77.1556C34.7447 76.9034 34.2403 76.5488 34.4413 75.9932C34.4885 75.8399 34.5814 75.7046 34.7074 75.6053C34.8334 75.5061 34.9867 75.4476 35.1468 75.4376C35.1468 75.4376 33.7834 75.4888 33.8345 74.9331C33.8742 74.6979 33.9619 74.4733 34.092 74.2733C34.2222 74.0733 34.3921 73.9022 34.5912 73.7707C34.7959 73.6684 37.4424 72.5937 37.4424 72.5937L40.8492 71.9138L37.5777 71.7822L34.7191 72.5791C34.7191 72.5791 33.5787 72.7107 33.8345 71.7493C34.0904 70.7879 37.5923 69.7205 37.5923 69.7205L42.0373 69.4171C42.0373 69.4171 38.6012 68.9127 38.2466 67.8526C38.1315 67.576 38.0942 67.2731 38.1386 66.9768C38.1831 66.6804 38.3076 66.4019 38.4988 66.1711Z" fill="#FFBE9D"/>
<path d="M49.4941 70.1119H49.7135L58.3877 69.728L60.9831 77.302L51.3803 76.677L49.4941 70.1119Z" fill="#FFBE9D"/>
<path d="M41.9422 74.4179C41.5913 74.4717 41.2371 74.4998 40.8821 74.502C40.2278 74.5385 39.3249 74.6153 38.3233 74.7651C37.3218 74.915 36.4554 75.1088 35.8194 75.2659C35.4791 75.3685 35.1323 75.4479 34.7812 75.5035C35.1002 75.3443 35.4362 75.2217 35.7828 75.138C37.4342 74.6543 39.1433 74.3961 40.8638 74.3704C41.2239 74.3465 41.5856 74.3624 41.9422 74.4179Z" fill="#EB996E"/>
<path d="M35.432 54.3863C35.321 54.2582 35.2242 54.1185 35.1432 53.9696C34.9677 53.6991 34.7192 53.3007 34.4121 52.8182C33.5813 51.5616 32.6845 50.35 31.7254 49.1884C30.7784 48.0182 29.7058 46.9554 28.5269 46.0191C28.0227 45.6527 27.4992 45.3135 26.9587 45.0029C27.1206 45.0507 27.2773 45.1144 27.4266 45.193C27.6068 45.2767 27.7814 45.372 27.9494 45.4781C28.177 45.6088 28.3967 45.7529 28.6073 45.9095C29.8211 46.8227 30.9175 47.8822 31.8716 49.0641C32.8377 50.2315 33.7243 51.4625 34.5254 52.7487C34.8325 53.2386 35.0664 53.648 35.2236 53.9331C35.3072 54.0772 35.377 54.229 35.432 54.3863Z" fill="#263238"/>
<path d="M41.0466 66.8694C40.9673 66.7365 40.9024 66.5956 40.8528 66.449L40.3776 65.2829C39.9829 64.296 39.4236 62.9362 38.7766 61.4484C38.1296 59.9607 37.5154 58.6265 37.0622 57.6614C36.8502 57.2082 36.6711 56.8243 36.5321 56.5209C36.4562 56.3849 36.3973 56.24 36.3567 56.0896C36.4494 56.2145 36.5302 56.3479 36.5979 56.488C36.7405 56.7476 36.9416 57.1277 37.1828 57.6029C37.6653 58.5533 38.3014 59.8803 38.952 61.3717C39.6027 62.8631 40.14 64.2338 40.5056 65.2318C40.6883 65.7326 40.8309 66.142 40.9223 66.4234C40.9803 66.567 41.022 66.7166 41.0466 66.8694Z" fill="#263238"/>
<path d="M46.8916 45.1452C46.8916 45.1452 46.8112 45.1196 46.6723 45.0501L46.0764 44.7357L43.9782 43.577L44.1025 43.5148C44.0002 44.4579 43.8284 45.5582 43.6529 46.7316C43.5835 47.2105 43.5177 47.6747 43.4628 48.1207L43.4409 48.2925L43.313 48.1828C42.1871 47.2287 41.2148 46.388 40.5202 45.7812L39.716 45.0501C39.6141 44.9673 39.521 44.8742 39.4382 44.7723C39.5539 44.8333 39.6609 44.9095 39.7563 44.9989L40.6007 45.6752C41.3135 46.2564 42.3041 47.0789 43.4299 48.0256L43.2801 48.0841C43.3312 47.6381 43.3934 47.1702 43.4665 46.6914C43.6383 45.5143 43.832 44.4141 43.938 43.4783V43.354L44.044 43.4161L46.1093 44.6371L46.6796 45.0026C46.7568 45.0396 46.8282 45.0876 46.8916 45.1452Z" fill="#263238"/>
<path d="M50.0974 39.7644C50.1207 39.929 50.1268 40.0956 50.1156 40.2615C50.1156 40.6271 50.1157 41.0694 50.0901 41.6104C50.0608 42.7545 50.0096 44.33 49.9402 46.07C49.9402 46.1138 49.9402 46.154 49.9402 46.1979V46.5013L49.7757 46.2454L47.6921 42.9556H47.8201C47.5898 43.588 47.3997 44.118 47.2498 44.5237C47.1898 44.7213 47.1102 44.9123 47.0122 45.094C47.0475 44.8909 47.1013 44.6914 47.173 44.4982L47.6811 42.908L47.7287 42.7618L47.8127 42.8898L49.9365 46.154L49.7611 46.2016C49.7611 46.1614 49.7611 46.1175 49.7611 46.0773C49.8305 44.3373 49.9036 42.7618 49.9658 41.6214C50.0023 41.0804 50.0279 40.6271 50.0535 40.2725C50.0512 40.1021 50.0659 39.9319 50.0974 39.7644Z" fill="#263238"/>
<path d="M61.5681 44.8238C61.4647 44.7847 61.3665 44.7332 61.2756 44.6703L61.3195 44.641C61.5498 45.4598 62.2004 48.1319 62.9388 51.3048C63.3921 53.2385 63.7869 54.9895 64.0647 56.2615C64.1963 56.872 64.3023 57.3801 64.3864 57.7676C64.4333 57.9509 64.4639 58.1381 64.4778 58.3268C64.4089 58.1511 64.3539 57.9702 64.3133 57.7858C64.2146 57.3984 64.0903 56.8976 63.9477 56.2908C63.6334 55.0297 63.2166 53.2824 62.767 51.3487C62.036 48.1758 61.4292 45.5 61.2756 44.652V44.5862L61.3268 44.6227C61.4145 44.6805 61.4955 44.7479 61.5681 44.8238Z" fill="#263238"/>
<path d="M50.0975 80.9462C50.025 80.9759 49.9505 81.0004 49.8745 81.0194L49.2202 81.1948C48.6499 81.3447 47.8165 81.5384 46.782 81.7285C45.5665 81.9514 44.3384 82.0992 43.1047 82.1708C41.5896 82.2727 40.0677 82.1718 38.5793 81.8711C37.8072 81.7073 37.0591 81.4456 36.3532 81.0925C36.0184 80.9213 35.696 80.7271 35.3881 80.5113C35.1041 80.2884 34.8377 80.044 34.5913 79.7802C33.7672 78.8549 33.0029 77.8782 32.303 76.8558C31.6962 75.9932 31.2319 75.2804 30.9139 74.7832L30.5484 74.2093C30.5043 74.1435 30.4664 74.0737 30.4351 74.001C30.4902 74.0578 30.5392 74.1203 30.5813 74.1874C30.68 74.33 30.8079 74.5164 30.9687 74.743C31.305 75.2255 31.7876 75.9274 32.4053 76.7754C33.1168 77.7767 33.887 78.7349 34.7119 79.6449C34.9507 79.9018 35.2098 80.1389 35.4868 80.3541C35.7866 80.5651 36.1019 80.7533 36.4299 80.917C37.125 81.2642 37.8623 81.5198 38.6232 81.6773C40.0946 81.9758 41.5987 82.0815 43.0974 81.9917C44.3223 81.9254 45.5427 81.7912 46.7528 81.5896C47.7873 81.4141 48.6207 81.2423 49.1946 81.118L49.8562 80.9755C49.9349 80.9546 50.0161 80.9448 50.0975 80.9462Z" fill="#263238"/>
<g opacity="0.3">
<path d="M33.2021 42.082L34.1708 46.6842L34.9604 46.1907L34.5071 47.2873L44.4096 65.2463L43.1229 61.145L35.4137 46.5562L36.6346 45.5803H34.5839L33.2021 42.082Z" fill="black"/>
</g>
<path d="M54.0048 60.3298C53.8915 60.4724 51.5447 66.9607 51.5447 66.9607L53.8586 65.4986C53.8586 65.4986 54.8236 68.3205 54.8016 68.2219C54.7797 68.1232 56.6111 61.1815 56.6111 61.1815L54.0048 60.3298Z" fill="#263238"/>
<path d="M58.3 61.2473C58.3 61.2473 60.0364 67.8051 60.0839 67.732C60.1314 67.6589 61.027 65.5863 61.027 65.5863L63.2677 67.0083L60.9064 60.3298L58.3 61.2473Z" fill="#263238"/>
<path d="M57.4081 61.9932C60.5272 61.9932 63.0557 59.4647 63.0557 56.3456C63.0557 53.2265 60.5272 50.698 57.4081 50.698C54.289 50.698 51.7605 53.2265 51.7605 56.3456C51.7605 59.4647 54.289 61.9932 57.4081 61.9932Z" fill="#455A64"/>
<path d="M61.8274 56.1664C61.7941 55.8059 61.7367 55.4481 61.6556 55.0953C61.3999 54.141 60.8325 53.2995 60.0436 52.7047C59.4642 52.2678 58.7845 51.9833 58.0667 51.8773C57.3488 51.7712 56.6158 51.8471 55.9349 52.0979C55.5411 52.236 55.1711 52.4345 54.8383 52.6864C54.487 52.9433 54.1785 53.2542 53.9245 53.6076C53.3777 54.3486 53.0826 55.2454 53.0826 56.1664C53.0826 57.0873 53.3777 57.9841 53.9245 58.7251C54.1766 59.0801 54.4853 59.3913 54.8383 59.6463C55.1711 59.8991 55.541 60.0989 55.9349 60.2385C56.6162 60.4881 57.3493 60.563 58.067 60.4563C58.7847 60.3497 59.4643 60.0649 60.0436 59.628C60.8343 59.0365 61.4023 58.1955 61.6556 57.241C61.7364 56.8882 61.7938 56.5304 61.8274 56.17C61.8379 56.2635 61.8379 56.3579 61.8274 56.4515C61.8284 56.5665 61.8199 56.6815 61.8018 56.7951C61.7866 56.9519 61.7585 57.1071 61.7178 57.2593C61.4846 58.2448 60.9192 59.12 60.1167 59.7377C59.5216 60.1979 58.8198 60.5001 58.0766 60.6165C57.3333 60.7328 56.5727 60.6593 55.8655 60.403C55.456 60.2573 55.0704 60.0516 54.7213 59.7925C54.355 59.5267 54.033 59.2048 53.7673 58.8385C53.1951 58.0664 52.8862 57.1309 52.8862 56.17C52.8862 55.2091 53.1951 54.2736 53.7673 53.5016C54.0358 53.1307 54.363 52.8059 54.736 52.5402C55.0832 52.2783 55.4692 52.0724 55.8801 51.9297C56.6375 51.6566 57.4543 51.5922 58.2451 51.7433C59.0852 51.9041 59.861 52.3037 60.4796 52.8944C61.0981 53.4851 61.5331 54.2416 61.7324 55.0734C61.7732 55.2255 61.8013 55.3808 61.8165 55.5376C61.8343 55.65 61.8429 55.7637 61.8421 55.8776C61.8478 55.9741 61.8429 56.0709 61.8274 56.1664Z" fill="#263238"/>
<g opacity="0.2">
<path d="M58.735 50.855L51.7605 57.1203L52.2028 58.5386L60.1752 51.4179C59.7489 51.1145 59.2541 50.9211 58.735 50.855Z" fill="white"/>
</g>
<g opacity="0.2">
<path d="M60.8078 51.8311C60.7786 51.8092 52.6562 59.3978 52.6562 59.3978L53.1388 60.0411C53.157 60.0594 61.3086 52.2588 61.3086 52.2588L60.8078 51.8311Z" fill="white"/>
</g>
<path d="M58.0771 54.2693V58.685H57.0535V55.0991H56.1689V54.2803L58.0771 54.2693Z" fill="white"/>
<g opacity="0.3">
<path d="M53.6906 56.1662C53.6906 53.8524 55.3282 51.9552 57.4081 51.7615C57.2948 51.7615 57.1778 51.7615 57.0426 51.7615C54.7945 51.7615 52.9741 53.739 52.9741 56.1809C52.9741 58.6227 54.8018 60.6002 57.0426 60.6002C57.1632 60.6002 57.2802 60.6002 57.4081 60.582C55.3282 60.3736 53.6906 58.4765 53.6906 56.1662Z" fill="black"/>
</g>
<path d="M32.1494 70.6125C32.1896 70.6454 29.1008 74.4105 25.248 79.02C21.3952 83.6294 18.2405 87.336 18.2003 87.3031C18.1601 87.2702 21.2489 83.5051 25.1017 78.8957C28.9545 74.2862 32.1092 70.5796 32.1494 70.6125Z" fill="white"/>
<path d="M33.8163 63.4404C33.8528 63.4733 30.4825 67.3225 26.2861 72.0343C22.0897 76.7461 18.6537 80.5404 18.6098 80.5039C18.5659 80.4673 21.9399 76.6218 26.1363 71.91C30.3327 67.1982 33.7761 63.4039 33.8163 63.4404Z" fill="white"/>
<path d="M76.9975 26.7439C77.0377 26.7768 73.3055 31.0244 68.6595 36.2224C64.0135 41.4203 60.2192 45.6131 60.1826 45.5948C60.1461 45.5765 63.8746 41.2961 68.5206 36.0908C73.1666 30.8855 76.9573 26.7073 76.9975 26.7439Z" fill="white"/>
<path d="M21.2598 0.132568L21.7606 6.80734C21.8201 7.68191 22.188 8.50701 22.7987 9.13583C22.9516 9.29177 23.1126 9.43941 23.2812 9.57813C23.9309 10.1117 24.728 10.4344 25.5659 10.503L30.4422 10.916L25.1272 11.4424C24.742 11.4821 24.3746 11.6248 24.0635 11.8554C23.9429 11.9468 23.8259 12.0382 23.698 12.1369C22.6868 13.0184 22.0577 14.2583 21.9434 15.5949L21.5778 19.5464L21.1757 15.891C21.0968 15.0991 20.836 14.336 20.4137 13.6614C19.9914 12.9868 19.4191 12.4188 18.7412 12.0017L18.7083 11.9797C18.4369 11.8222 18.1331 11.7284 17.8201 11.7056L11.9678 11.2596L17.0561 10.7881C18.0596 10.7037 18.9967 10.252 19.688 9.51965C19.8269 9.36977 19.9621 9.20894 20.0901 9.04444C20.5277 8.46021 20.7822 7.75925 20.8212 7.03032L21.2598 0.132568Z" fill="#EC6980"/>
<path d="M6.02411 16.9221L6.34578 21.2355C6.38538 21.8 6.62367 22.3323 7.01838 22.7379C7.11659 22.8397 7.22031 22.9361 7.32908 23.0266C7.74603 23.3668 8.25529 23.5743 8.79125 23.6225L11.9422 23.8893L8.51709 24.2293C8.26812 24.2545 8.03064 24.3467 7.82987 24.4961C7.74945 24.5546 7.67635 24.6131 7.60324 24.6752C6.95052 25.2449 6.54429 26.0455 6.47007 26.9087L6.22881 29.4675L5.97293 27.1134C5.92101 26.6019 5.75185 26.1092 5.47861 25.6737C5.20537 25.2381 4.83541 24.8715 4.39745 24.6021H4.37552C4.2005 24.4997 4.00398 24.4396 3.80162 24.4267L0 24.1269L3.28986 23.8235C3.93789 23.769 4.54308 23.4775 4.98963 23.0047C5.08101 22.906 5.16874 22.8037 5.24916 22.6977C5.53541 22.3216 5.70222 21.8683 5.72801 21.3963L6.02411 16.9221Z" fill="#FFE7EC"/>
<path d="M65.8705 107.985L66.0203 109.967C66.0384 110.225 66.1472 110.468 66.3274 110.654C66.5421 110.884 66.8331 111.028 67.1462 111.06L68.6084 111.184L67.0365 111.341C66.9226 111.351 66.8138 111.393 66.7222 111.462L66.6162 111.546C66.317 111.807 66.1309 112.174 66.0971 112.569L65.9874 113.743L65.8668 112.646C65.8422 112.411 65.7634 112.184 65.6365 111.984C65.5097 111.785 65.3383 111.617 65.1357 111.495C65.0552 111.448 64.9652 111.421 64.8725 111.414L63.1289 111.275L64.6349 111.136C64.9313 111.113 65.2093 110.983 65.4172 110.771L65.5342 110.628C65.6658 110.456 65.7423 110.249 65.7535 110.032L65.8705 107.985Z" fill="#EC6980"/>
</svg>
