<svg width="108" height="108" viewBox="0 0 108 108" fill="none" xmlns="http://www.w3.org/2000/svg">
<path d="M12.6879 20.9713L13.2127 20.1073C17.6451 12.8044 25.6565 8.40228 34.1043 8.93796C35.1938 9.00421 36.2769 9.15223 37.3443 9.38076C45.0252 11.0245 51.7083 16.8328 54.4774 24.2718C56.106 28.6458 56.5618 33.6829 59.6614 37.1562C63.6855 41.6749 70.5175 41.8175 76.5223 41.6296C82.5271 41.4416 89.3635 41.6015 93.3703 46.1396C95.8781 48.98 96.6752 53.0214 96.4743 56.8252C95.9386 66.8994 88.9143 75.9088 79.9913 80.3864C71.0683 84.8641 60.5513 85.2637 50.7795 83.2938C37.0937 80.5355 24.0754 72.9582 16.2519 61.2618C8.42835 49.5654 6.42819 33.603 12.6879 20.9713Z" fill="#FFEFE3"/>
<path d="M15.3274 85.2486C18.3193 85.2486 20.7447 82.8232 20.7447 79.8313C20.7447 76.8395 18.3193 74.4141 15.3274 74.4141C12.3356 74.4141 9.91016 76.8395 9.91016 79.8313C9.91016 82.8232 12.3356 85.2486 15.3274 85.2486Z" fill="#FFEFE3"/>
<path d="M100.176 100.507C100.176 100.539 79.6932 100.563 54.4341 100.563C29.1751 100.563 8.6875 100.539 8.6875 100.507C8.6875 100.474 29.1643 100.451 54.4341 100.451C79.704 100.451 100.176 100.477 100.176 100.507Z" fill="#263238"/>
<path d="M90.2146 100.349L59.5426 100.332C57.7709 100.331 56.0722 99.6264 54.8198 98.3732C53.5674 97.1201 52.8639 95.4209 52.8639 93.6491L52.879 16.7531C52.883 14.9799 53.5903 13.2806 54.8456 12.0281C56.1009 10.7757 57.8017 10.0723 59.575 10.0723L90.247 10.0917C92.0187 10.0929 93.7175 10.7975 94.9698 12.0506C96.2222 13.3038 96.9257 15.003 96.9257 16.7747L96.9106 93.6707C96.9106 94.5493 96.7373 95.4192 96.4006 96.2306C96.0639 97.042 95.5704 97.779 94.9483 98.3994C94.3263 99.0198 93.588 99.5114 92.7758 99.846C91.9635 100.181 91.0931 100.352 90.2146 100.349Z" fill="#D0D0D0"/>
<path d="M90.2038 12.8027H84.2573C83.8652 12.8118 83.4928 12.9761 83.2218 13.2597C82.9509 13.5432 82.8036 13.9227 82.8123 14.3147V15.3947C82.8209 15.7868 82.6736 16.1663 82.4027 16.4498C82.1317 16.7333 81.7593 16.8977 81.3672 16.9067H69.7745C69.3828 16.8971 69.0109 16.7325 68.7404 16.4491C68.4699 16.1656 68.3229 15.7864 68.3316 15.3947V14.3147C68.3403 13.9227 68.193 13.5432 67.922 13.2597C67.6511 12.9761 67.2786 12.8118 66.8866 12.8027H59.5901C58.3515 12.8016 57.163 13.2916 56.2852 14.1654C55.4073 15.0392 54.9118 16.2254 54.9072 17.464L54.8921 92.5283C54.8944 93.7679 55.3882 94.9559 56.2653 95.8318C57.1424 96.7076 58.3311 97.1999 59.5707 97.2004L90.1843 97.2177C90.799 97.218 91.4077 97.0972 91.9757 96.8622C92.5437 96.6273 93.0599 96.2827 93.4947 95.8483C93.9296 95.4138 94.2746 94.898 94.5101 94.3302C94.7456 93.7624 94.8669 93.1538 94.8672 92.5391L94.8802 17.4748C94.8785 16.2355 94.3851 15.0475 93.5083 14.1715C92.6316 13.2956 91.4431 12.8033 90.2038 12.8027Z" fill="white"/>
<path d="M94.878 28.5794V17.3971C94.856 16.1716 94.3539 15.0038 93.4798 14.1447C92.6057 13.2855 91.4294 12.8037 90.2038 12.8027H84.2573C84.0631 12.8069 83.8716 12.8494 83.6938 12.9277C83.516 13.006 83.3554 13.1186 83.2212 13.259C83.087 13.3995 82.9818 13.565 82.9116 13.7462C82.8414 13.9273 82.8077 14.1205 82.8123 14.3147V15.3947C82.821 15.7868 82.6736 16.1663 82.4027 16.4498C82.1317 16.7333 81.7593 16.8977 81.3672 16.9067H69.7745C69.3828 16.8971 69.0109 16.7325 68.7404 16.4491C68.47 16.1656 68.3229 15.7864 68.3316 15.3947V14.3147C68.3403 13.9227 68.193 13.5432 67.922 13.2597C67.6511 12.9761 67.2787 12.8118 66.8866 12.8027H59.5901C58.3515 12.8016 57.163 13.2916 56.2852 14.1654C55.4073 15.0392 54.9118 16.2254 54.9072 17.464V28.6139H94.878V28.5794Z" fill="#EBEBEB"/>
<path d="M63.0591 43.7468C65.7349 43.7468 67.904 41.5825 67.904 38.9127C67.904 36.2429 65.7349 34.0786 63.0591 34.0786C60.3834 34.0786 58.2142 36.2429 58.2142 38.9127C58.2142 41.5825 60.3834 43.7468 63.0591 43.7468Z" fill="#E0E0E0"/>
<path d="M60.7954 40.1222L62.0655 40.0142L65.1629 40.5369L65.528 42.8675L65.4761 43.1397C64.7784 43.5335 63.9943 43.7492 63.1933 43.7676C62.3923 43.7861 61.5991 43.6068 60.884 43.2455L60.7954 40.1222Z" fill="#455A64"/>
<path d="M64.4998 40.5003C64.8069 40.4554 65.1205 40.4979 65.4047 40.6228C65.6888 40.7477 65.9322 40.95 66.1068 41.2066C66.3167 41.4997 66.5093 41.8047 66.6835 42.1203C66.1781 42.6689 65.7677 43.0858 65.0678 43.3299L64.4998 40.5003Z" fill="#455A64"/>
<path d="M60.7954 40.1222C60.7954 40.1222 59.9574 40.2258 59.6334 40.9408C59.3094 41.6558 59.2338 41.8782 59.2338 41.8782C59.6658 42.401 60.2187 43.0187 60.8948 43.2498C60.8948 43.2498 61.0482 41.4484 61.0676 40.9408C61.0914 40.3922 61.113 40.107 60.7954 40.1222Z" fill="#455A64"/>
<path d="M61.5601 35.5429C61.7712 35.2725 62.0404 35.0529 62.3477 34.9004C62.655 34.7478 62.9926 34.6663 63.3356 34.6616C63.6306 34.6616 63.9232 34.7142 64.1996 34.8171C64.4907 34.8861 64.7478 35.056 64.9254 35.2967C65.1456 35.5797 65.2899 35.9142 65.3444 36.2687C65.3951 36.6314 65.4125 36.9979 65.3963 37.3638C65.3786 37.7322 65.2597 38.0887 65.0528 38.3941L64.1219 38.5539C63.6086 38.5949 63.0921 38.5673 62.5861 38.4719C62.0745 38.3736 61.6226 38.077 61.329 37.6467C60.9553 37.0398 61.1108 36.0959 61.5601 35.5429Z" fill="#263238"/>
<path d="M60.6615 38.232C60.671 38.1267 60.7043 38.0249 60.7589 37.9343C60.8136 37.8438 60.8881 37.7668 60.9768 37.7093C61.0677 37.6547 61.1735 37.6303 61.279 37.6396C61.3846 37.6489 61.4845 37.6915 61.5643 37.7611L61.7112 37.9339C61.8246 37.9863 61.9187 38.0727 61.9807 38.1811C62.0426 38.2895 62.0692 38.4145 62.0568 38.5387C62.0407 38.6631 61.9889 38.7801 61.9076 38.8755C61.8263 38.971 61.7191 39.0408 61.5989 39.0766C61.4788 39.1107 61.3519 39.1133 61.2305 39.0841C61.109 39.055 60.9971 38.9951 60.9055 38.9103C60.8157 38.8234 60.7469 38.7171 60.7046 38.5995C60.6623 38.4819 60.6475 38.3562 60.6615 38.232Z" fill="#263238"/>
<path d="M60.8451 38.867C60.8102 38.8123 60.7928 38.7482 60.7954 38.6834C60.8265 38.5262 60.9014 38.3809 61.0114 38.2644C61.1157 38.1419 61.2426 38.0407 61.3851 37.9663C61.4931 37.908 61.5687 37.8864 61.5665 37.8799C61.4976 37.8849 61.4305 37.9048 61.37 37.9382C61.2177 38.0059 61.0831 38.1079 60.9769 38.2363C60.9172 38.3014 60.8664 38.374 60.8257 38.4523C60.7903 38.5191 60.7697 38.5928 60.7652 38.6683C60.7642 38.7202 60.7785 38.7713 60.8062 38.8152C60.8257 38.8584 60.8451 38.88 60.8451 38.867Z" fill="#455A64"/>
<path d="M64.1131 40.3336V39.4696C64.1131 39.4696 64.8713 39.3854 65.083 38.4134C65.1825 37.7705 65.2215 37.1196 65.1996 36.4694C65.1996 35.8797 64.692 35.0762 63.9619 35.074L63.6379 35.0352L62.3959 35.5276C62.3097 35.5324 62.2282 35.5691 62.1676 35.6306C62.1069 35.6921 62.0712 35.774 62.0676 35.8603L62.0309 40.0096L62.599 40.8067C62.703 40.9474 62.8484 41.0521 63.0149 41.106C63.1815 41.1599 63.3607 41.1603 63.5274 41.1072C63.6942 41.0541 63.8401 40.9501 63.9448 40.8098C64.0495 40.6695 64.1076 40.5 64.111 40.325L64.1131 40.3336Z" fill="#FFBE9D"/>
<path d="M63.6186 38.1891C63.6253 38.1391 63.6508 38.0935 63.6899 38.0617C63.7254 38.0319 63.7696 38.0143 63.8159 38.0116C63.8622 38.0089 63.9081 38.0211 63.9469 38.0465C63.9866 38.0775 64.0175 38.1183 64.0364 38.1649C64.0554 38.2116 64.0618 38.2623 64.0549 38.3122C64.0333 38.3422 64.0055 38.3674 63.9735 38.386C63.9415 38.4046 63.906 38.4163 63.8691 38.4202H63.8346C63.8059 38.4209 63.7775 38.416 63.7508 38.4056C63.7241 38.3952 63.6997 38.3796 63.6791 38.3597C63.6572 38.3374 63.6405 38.3105 63.6301 38.2811C63.6196 38.2516 63.6157 38.2202 63.6186 38.1891Z" fill="#EB996E"/>
<path d="M64.7482 37.1522C64.7471 37.1851 64.7331 37.2162 64.7092 37.2388C64.6854 37.2614 64.6536 37.2738 64.6208 37.2732C64.6046 37.2735 64.5885 37.2706 64.5735 37.2647C64.5584 37.2587 64.5447 37.2499 64.5331 37.2387C64.5214 37.2274 64.5121 37.214 64.5057 37.1992C64.4992 37.1844 64.4958 37.1684 64.4955 37.1522C64.4972 37.1192 64.5116 37.0881 64.5358 37.0655C64.56 37.0429 64.592 37.0307 64.6251 37.0313C64.6412 37.031 64.6571 37.0339 64.672 37.0399C64.687 37.0458 64.7006 37.0547 64.712 37.0659C64.7235 37.0772 64.7326 37.0906 64.7388 37.1054C64.745 37.1203 64.7482 37.1362 64.7482 37.1522Z" fill="#263238"/>
<path d="M64.9555 36.8411C64.9382 36.8562 64.8454 36.7806 64.7114 36.7742C64.5775 36.7677 64.4717 36.8303 64.4587 36.813C64.4458 36.7958 64.4695 36.7763 64.5149 36.7461C64.5761 36.7096 64.6468 36.6923 64.7179 36.6964C64.7883 36.6992 64.8558 36.725 64.9102 36.7698C64.949 36.8044 64.962 36.8346 64.9555 36.8411Z" fill="#263238"/>
<path d="M64.1024 37.865C64.1732 37.8484 64.2457 37.8397 64.3184 37.8391C64.353 37.8391 64.3875 37.8391 64.394 37.8089C64.3989 37.7734 64.3929 37.7372 64.3768 37.7052L64.2882 37.4374C64.2057 37.2088 64.1414 36.9741 64.0959 36.7354C64.1969 36.9566 64.28 37.1856 64.3444 37.4201C64.3746 37.513 64.4005 37.6037 64.4286 37.6901C64.4468 37.7331 64.4506 37.7808 64.4394 37.8261C64.4262 37.8493 64.4045 37.8664 64.3789 37.8737C64.3595 37.8757 64.34 37.8757 64.3206 37.8737C64.2478 37.8807 64.1744 37.8778 64.1024 37.865Z" fill="#263238"/>
<path d="M64.1089 39.472C63.6451 39.4512 63.1964 39.3016 62.8129 39.04C62.8129 39.04 63.1261 39.7377 64.1089 39.701V39.472Z" fill="#EB996E"/>
<path d="M63.6984 37.9386C63.7222 37.9386 63.7136 38.0855 63.8345 38.1956C63.9555 38.3058 64.111 38.2993 64.111 38.3187C64.111 38.3382 64.0743 38.3468 64.0095 38.3447C63.9231 38.3408 63.8407 38.3072 63.7762 38.2496C63.7153 38.1935 63.6782 38.1162 63.6725 38.0336C63.6704 37.971 63.6898 37.9364 63.6984 37.9386Z" fill="#263238"/>
<path d="M64.9275 36.3315C64.9037 36.3639 64.8 36.3315 64.6791 36.3315C64.5581 36.3315 64.4631 36.3618 64.4307 36.3315C64.3983 36.3013 64.4307 36.284 64.4782 36.2538C64.5378 36.2163 64.6065 36.1961 64.6769 36.1954C64.7477 36.1936 64.8175 36.2123 64.8778 36.2494C64.9231 36.2883 64.9383 36.3164 64.9275 36.3315Z" fill="#263238"/>
<path d="M63.2621 37.1524C63.2615 37.1855 63.2738 37.2175 63.2964 37.2417C63.3189 37.2659 63.35 37.2803 63.3831 37.282C63.3991 37.2835 63.4153 37.2817 63.4307 37.2768C63.4461 37.272 63.4603 37.2641 63.4726 37.2536C63.4849 37.2431 63.4949 37.2303 63.5022 37.2159C63.5094 37.2015 63.5137 37.1858 63.5148 37.1697C63.5149 37.137 63.5023 37.1055 63.4798 37.0818C63.4573 37.0581 63.4265 37.0439 63.3939 37.0422C63.3779 37.0405 63.3618 37.0419 63.3464 37.0465C63.331 37.0512 63.3168 37.0589 63.3044 37.0692C63.2921 37.0795 63.282 37.0921 63.2747 37.1064C63.2675 37.1208 63.2632 37.1364 63.2621 37.1524Z" fill="#263238"/>
<path d="M63.0979 36.7936C63.113 36.8109 63.2102 36.7418 63.3463 36.7439C63.4824 36.7461 63.5796 36.8152 63.5947 36.8001C63.6098 36.785 63.5947 36.7634 63.5429 36.731C63.4852 36.6887 63.4156 36.666 63.3442 36.6662C63.2741 36.664 63.2051 36.6844 63.1476 36.7245C63.1044 36.7569 63.0893 36.785 63.0979 36.7936Z" fill="#263238"/>
<path d="M63.0202 36.5041C63.0461 36.5365 63.152 36.5041 63.2772 36.5041C63.4025 36.5041 63.5084 36.53 63.5343 36.5041C63.5602 36.4782 63.5343 36.4566 63.4824 36.4264C63.4195 36.3895 63.348 36.3701 63.2751 36.3701C63.2022 36.3701 63.1306 36.3895 63.0677 36.4264C63.0224 36.4566 63.0072 36.4868 63.0202 36.5041Z" fill="#263238"/>
<path d="M62.2318 37.5172C62.2318 37.4438 62.1627 37.2666 62.0893 37.2515C61.8992 37.2105 61.5514 37.2083 61.5212 37.6965C61.4801 38.3639 62.1692 38.2667 62.1692 38.2473C62.1692 38.2278 62.2188 37.7678 62.2318 37.5172Z" fill="#FFBE9D"/>
<path d="M61.992 37.9925C61.992 37.9925 61.9812 37.9925 61.9596 38.0076C61.946 38.0134 61.9313 38.0164 61.9164 38.0164C61.9016 38.0164 61.8869 38.0134 61.8732 38.0076C61.8314 37.9776 61.7983 37.9369 61.7774 37.8898C61.7566 37.8427 61.7486 37.7909 61.7544 37.7398C61.757 37.6826 61.7717 37.6266 61.7976 37.5756C61.8054 37.5552 61.8178 37.537 61.834 37.5223C61.8501 37.5077 61.8695 37.4971 61.8905 37.4914C61.9042 37.4884 61.9185 37.4905 61.9308 37.4972C61.9431 37.504 61.9526 37.5149 61.9575 37.5281C61.959 37.5388 61.959 37.5497 61.9575 37.5605C61.9575 37.5605 61.9726 37.5605 61.9683 37.5238C61.9656 37.507 61.9572 37.4918 61.9445 37.4806C61.9363 37.4726 61.9264 37.4665 61.9156 37.4627C61.9048 37.459 61.8933 37.4577 61.8819 37.4589C61.8543 37.4625 61.828 37.4731 61.8057 37.4898C61.7834 37.5064 61.7657 37.5285 61.7544 37.554C61.7224 37.61 61.7046 37.6731 61.7026 37.7376C61.6953 37.797 61.7057 37.8572 61.7326 37.9107C61.7595 37.9641 61.8017 38.0084 61.8538 38.0378C61.8715 38.0438 61.8903 38.0459 61.909 38.0441C61.9276 38.0422 61.9456 38.0364 61.9618 38.027C61.992 38.0162 61.992 37.9946 61.992 37.9925Z" fill="#EB996E"/>
<path d="M62.0633 37.2537L62.2318 37.4287C62.9662 36.7288 64.4026 34.9727 64.3227 35.0764C63.9875 34.9527 63.6268 34.9141 63.273 34.9641C62.7265 35.057 61.6918 35.3291 61.707 35.9707C61.7391 36.4178 61.8603 36.854 62.0633 37.2537Z" fill="#263238"/>
<path d="M61.0913 37.1066C61.0913 37.1066 61.0913 37.0915 61.0913 37.0677C61.104 37.0315 61.1192 36.9961 61.1367 36.9619C61.2061 36.8381 61.3019 36.7311 61.4175 36.6487C61.5886 36.5267 61.7792 36.4346 61.9812 36.3765C62.1972 36.3053 62.4564 36.2491 62.7048 36.1433C63.1298 35.9638 63.5135 35.6991 63.8323 35.3657C63.9283 35.2643 64.0185 35.1576 64.1023 35.046L64.1693 34.9531C64.1766 34.9419 64.1853 34.9318 64.1952 34.9229L64.1758 34.9574C64.1607 34.979 64.1412 35.0136 64.1132 35.0546C64.0326 35.1697 63.9446 35.2794 63.8496 35.3829C63.7076 35.5357 63.5514 35.6745 63.3831 35.7977C63.1771 35.949 62.9537 36.0752 62.7178 36.1735C62.4797 36.2648 62.2367 36.3426 61.9899 36.4068C61.7909 36.4623 61.6025 36.5506 61.4326 36.6681C61.318 36.747 61.2216 36.8494 61.1496 36.9684C61.1268 37.0129 61.1073 37.0592 61.0913 37.1066Z" fill="#455A64"/>
<path d="M61.2857 37.2107C61.2841 37.1611 61.2929 37.1118 61.3116 37.0659C61.3615 36.938 61.4489 36.8281 61.5622 36.7506C61.7324 36.642 61.9226 36.5685 62.1216 36.5346C62.3602 36.4891 62.5928 36.4166 62.815 36.3186C63.036 36.2181 63.2435 36.0904 63.4328 35.9384C63.5898 35.8136 63.7344 35.674 63.8648 35.5215C63.9506 35.4191 64.0292 35.3108 64.1002 35.1975C64.124 35.1608 64.1434 35.1284 64.1564 35.1047C64.163 35.093 64.171 35.0822 64.1801 35.0723C64.1755 35.0843 64.1697 35.0959 64.1628 35.1068L64.111 35.204C64.0447 35.3215 63.968 35.4328 63.882 35.5367C63.7544 35.6961 63.6095 35.841 63.45 35.9687C63.259 36.1238 63.0493 36.2544 62.8258 36.3575C62.6009 36.4563 62.3653 36.5288 62.1238 36.5735C61.9282 36.6101 61.7413 36.6834 61.573 36.7895C61.461 36.8625 61.3731 36.9669 61.3203 37.0897C61.3052 37.1289 61.2937 37.1694 61.2857 37.2107Z" fill="#455A64"/>
<path d="M60.8947 43.2455C60.8631 42.8199 60.8631 42.3924 60.8947 41.9668C60.9235 42.3926 60.9235 42.8198 60.8947 43.2455Z" fill="#263238"/>
<path d="M65.4783 43.1547C65.4727 43.0828 65.4727 43.0106 65.4783 42.9387C65.4913 42.7585 65.4848 42.5774 65.4589 42.3987C65.4252 42.2202 65.3731 42.0458 65.3033 41.8781C65.2706 41.8087 65.2446 41.7364 65.2256 41.6621C65.2678 41.7252 65.3033 41.7925 65.3314 41.863C65.4114 42.0296 65.4688 42.2061 65.5021 42.3879C65.5278 42.5706 65.5278 42.756 65.5021 42.9387C65.5033 43.0114 65.4953 43.084 65.4783 43.1547Z" fill="#263238"/>
<path d="M88.7933 45.0513H72.2801C71.8868 45.0507 71.5096 44.8942 71.2315 44.616C70.9533 44.3379 70.7968 43.9608 70.7962 43.5674V36.6338L68.9753 35.0181H88.7933C88.9893 35.0167 89.1836 35.0541 89.365 35.1282C89.5465 35.2022 89.7114 35.3115 89.8504 35.4497C89.9894 35.5878 90.0996 35.7522 90.1747 35.9331C90.2498 36.1141 90.2884 36.3082 90.2881 36.5042V43.5674C90.2878 43.7631 90.2488 43.9568 90.1735 44.1374C90.0982 44.318 89.9879 44.482 89.849 44.6199C89.7101 44.7578 89.5454 44.8668 89.3642 44.9409C89.183 45.0149 88.989 45.0524 88.7933 45.0513Z" fill="#EBEBEB"/>
<path d="M87.6615 46.1747C87.0757 46.2304 86.4871 46.2491 85.8989 46.2309C85.3116 46.2491 84.7236 46.2303 84.1385 46.1747C84.7236 46.1191 85.3116 46.1004 85.8989 46.1186C86.4871 46.1003 87.0757 46.1191 87.6615 46.1747Z" fill="#E0E0E0"/>
<path d="M88.3894 46.313C88.3821 46.3129 88.3748 46.3113 88.3682 46.3083C88.3615 46.3054 88.3555 46.3011 88.3505 46.2957L88.0092 45.9393C87.9993 45.9292 87.9938 45.9156 87.9938 45.9015C87.9938 45.8874 87.9993 45.8738 88.0092 45.8637C88.0141 45.8585 88.0199 45.8544 88.0264 45.8516C88.0329 45.8488 88.0399 45.8473 88.047 45.8473C88.0541 45.8473 88.0611 45.8488 88.0676 45.8516C88.0741 45.8544 88.08 45.8585 88.0848 45.8637L88.3872 46.1791L89.0503 45.5051C89.0552 45.5 89.061 45.4959 89.0675 45.493C89.074 45.4902 89.081 45.4888 89.0881 45.4888C89.0952 45.4888 89.1022 45.4902 89.1087 45.493C89.1152 45.4959 89.1211 45.5 89.1259 45.5051C89.1358 45.5152 89.1414 45.5288 89.1414 45.5429C89.1414 45.5571 89.1358 45.5706 89.1259 45.5807L88.4239 46.2957C88.4145 46.305 88.4024 46.311 88.3894 46.313Z" fill="#FF9140"/>
<path d="M88.8754 46.3022H88.8128C88.7985 46.3022 88.7847 46.2965 88.7746 46.2864C88.7645 46.2762 88.7588 46.2625 88.7588 46.2482C88.7603 46.234 88.7667 46.2208 88.777 46.2109C88.7873 46.2011 88.8007 46.1951 88.8149 46.1942H88.8538L89.5385 45.4965C89.5436 45.4913 89.5496 45.4871 89.5563 45.4843C89.563 45.4814 89.5702 45.48 89.5774 45.48C89.5847 45.48 89.5919 45.4814 89.5986 45.4843C89.6052 45.4871 89.6113 45.4913 89.6163 45.4965C89.6262 45.5066 89.6317 45.5202 89.6317 45.5343C89.6317 45.5484 89.6262 45.562 89.6163 45.5721L88.9143 46.2849C88.9095 46.2905 88.9035 46.2949 88.8968 46.2979C88.8901 46.3009 88.8828 46.3024 88.8754 46.3022Z" fill="#FF9140"/>
<path d="M87.6615 73.3193C87.0757 73.3749 86.4871 73.3936 85.8989 73.3754C85.3116 73.3936 84.7236 73.3748 84.1385 73.3193C84.7236 73.2637 85.3116 73.2449 85.8989 73.2631C86.4871 73.2449 87.0757 73.2636 87.6615 73.3193Z" fill="#E0E0E0"/>
<path d="M88.3894 73.4573C88.3811 73.4582 88.3726 73.457 88.3647 73.454C88.3568 73.451 88.3498 73.4462 88.3441 73.44L88.0028 73.0836C87.9968 73.0788 87.9919 73.0727 87.9884 73.0658C87.9849 73.0589 87.9829 73.0514 87.9826 73.0437C87.9823 73.036 87.9836 73.0283 87.9865 73.0211C87.9894 73.014 87.9939 73.0075 87.9995 73.0022C88.0051 72.9969 88.0118 72.9929 88.0191 72.9904C88.0264 72.9879 88.0341 72.987 88.0418 72.9877C88.0495 72.9885 88.057 72.9909 88.0636 72.9947C88.0703 72.9986 88.0761 73.0039 88.0806 73.0102L88.383 73.3255L89.0461 72.6516C89.0509 72.6465 89.0568 72.6423 89.0633 72.6395C89.0698 72.6367 89.0768 72.6353 89.0839 72.6353C89.091 72.6353 89.098 72.6367 89.1045 72.6395C89.111 72.6423 89.1168 72.6465 89.1217 72.6516C89.1316 72.6617 89.1371 72.6753 89.1371 72.6894C89.1371 72.7036 89.1316 72.7171 89.1217 72.7272L88.4283 73.44C88.4178 73.4501 88.404 73.4562 88.3894 73.4573Z" fill="#FF9140"/>
<path d="M88.8754 73.4404H88.8128C88.7983 73.4398 88.7845 73.4337 88.7745 73.4232C88.7644 73.4127 88.7588 73.3987 88.7588 73.3842C88.7588 73.377 88.7602 73.3699 88.7631 73.3633C88.766 73.3567 88.7702 73.3508 88.7755 73.3459C88.7807 73.3411 88.787 73.3373 88.7938 73.335C88.8006 73.3327 88.8078 73.3318 88.8149 73.3324H88.8538L89.5385 72.6347C89.5436 72.6295 89.5496 72.6253 89.5563 72.6225C89.563 72.6196 89.5702 72.6182 89.5774 72.6182C89.5847 72.6182 89.5919 72.6196 89.5986 72.6225C89.6052 72.6253 89.6113 72.6295 89.6163 72.6347C89.6262 72.6448 89.6317 72.6584 89.6317 72.6725C89.6317 72.6866 89.6262 72.7002 89.6163 72.7103L88.9143 73.4231C88.9095 73.4287 88.9035 73.4331 88.8968 73.4361C88.8901 73.4391 88.8828 73.4406 88.8754 73.4404Z" fill="#FF9140"/>
<path d="M88.5817 37.0029C88.5817 37.0332 84.9766 37.0591 80.5292 37.0591C76.0818 37.0591 72.4789 37.0332 72.4789 37.0029C72.4789 36.9727 76.0818 36.9468 80.5292 36.9468C84.9766 36.9468 88.5817 36.9705 88.5817 37.0029Z" fill="white"/>
<path d="M88.5817 38.1846C88.5817 38.217 84.9766 38.2407 80.5292 38.2407C76.0818 38.2407 72.4789 38.217 72.4789 38.1846C72.4789 38.1522 76.0818 38.1284 80.5292 38.1284C84.9766 38.1284 88.5817 38.1543 88.5817 38.1846Z" fill="white"/>
<path d="M88.5817 39.3682C88.5817 39.3984 84.9766 39.4243 80.5292 39.4243C76.0818 39.4243 72.4789 39.3984 72.4789 39.3682C72.4789 39.3379 76.0818 39.312 80.5292 39.312C84.9766 39.312 88.5817 39.3379 88.5817 39.3682Z" fill="white"/>
<path d="M63.0591 73.8937C65.7349 73.8937 67.904 71.7295 67.904 69.0597C67.904 66.3899 65.7349 64.2256 63.0591 64.2256C60.3834 64.2256 58.2142 66.3899 58.2142 69.0597C58.2142 71.7295 60.3834 73.8937 63.0591 73.8937Z" fill="#E0E0E0"/>
<path d="M60.7954 70.2691L62.0655 70.1611L65.1629 70.6838L65.528 73.008L65.4761 73.278C64.7786 73.6724 63.9944 73.8884 63.1933 73.9068C62.3922 73.9253 61.599 73.7456 60.884 73.3838L60.7954 70.2627" fill="#455A64"/>
<path d="M64.4998 70.645C64.8069 70.6006 65.1203 70.6433 65.4044 70.7681C65.6884 70.893 65.9318 71.095 66.1068 71.3513C66.3171 71.6448 66.5096 71.9507 66.6835 72.2671C66.1781 72.8158 65.7677 73.2326 65.0678 73.4746L64.4998 70.645Z" fill="#455A64"/>
<path d="M60.7954 70.2693C60.7954 70.2693 59.9574 70.3708 59.6334 71.0858C59.3094 71.8008 59.2338 72.0254 59.2338 72.0254C59.6658 72.546 60.2187 73.1637 60.8948 73.3948C60.8948 73.3948 61.0482 71.5956 61.0676 71.0858C61.0914 70.5285 61.113 70.252 60.7954 70.2693Z" fill="#455A64"/>
<path d="M61.5601 65.6899C61.7709 65.4191 62.04 65.1993 62.3473 65.0468C62.6547 64.8942 62.9925 64.8128 63.3356 64.8086C63.6305 64.8069 63.9233 64.8589 64.1996 64.962C64.49 65.0324 64.7467 65.202 64.9254 65.4415C65.1452 65.7248 65.2894 66.0592 65.3444 66.4135C65.3951 66.7769 65.4124 67.1442 65.3963 67.5108C65.3789 67.8787 65.2601 68.2345 65.0528 68.539L64.1219 68.701C63.6085 68.7408 63.0922 68.7132 62.5861 68.6189C62.0745 68.5207 61.6226 68.224 61.329 67.7938C60.9553 67.176 61.1108 66.2407 61.5601 65.6899Z" fill="#263238"/>
<path d="M60.6615 68.3877C60.6706 68.2823 60.7039 68.1804 60.7585 68.0898C60.8132 67.9992 60.8878 67.9223 60.9768 67.865C61.0673 67.8098 61.1731 67.7848 61.2787 67.7938C61.3843 67.8027 61.4844 67.8451 61.5643 67.9147L61.7112 68.0896C61.8248 68.1417 61.9191 68.2281 61.9811 68.3366C62.0431 68.445 62.0696 68.5702 62.0568 68.6944C62.0392 68.8182 61.9868 68.9345 61.9057 69.0297C61.8247 69.1249 61.7183 69.1951 61.5989 69.2323C61.4786 69.2659 61.3516 69.268 61.2302 69.2385C61.1088 69.209 60.997 69.1488 60.9055 69.0638C60.8157 68.9774 60.747 68.8715 60.7046 68.7542C60.6623 68.637 60.6475 68.5116 60.6615 68.3877Z" fill="#263238"/>
<path d="M60.8451 69.0142C60.8105 68.9586 60.7932 68.8939 60.7954 68.8284C60.8265 68.6718 60.9014 68.5273 61.0114 68.4115C61.1151 68.2885 61.2421 68.1872 61.3851 68.1135C61.4931 68.0551 61.5687 68.0335 61.5665 68.0249C61.4978 68.0312 61.431 68.0511 61.37 68.0832C61.2185 68.1523 61.0842 68.2541 60.9768 68.3813C60.9169 68.4509 60.8661 68.5278 60.8256 68.6103C60.79 68.677 60.7694 68.7507 60.7652 68.8263C60.7644 68.8782 60.7787 68.9291 60.8062 68.9731C60.8256 69.0055 60.8451 69.0163 60.8451 69.0142Z" fill="#455A64"/>
<path d="M64.1175 70.5588V69.6948C64.1175 69.6948 64.8757 69.6106 65.0874 68.6407C65.1867 67.9978 65.2258 67.3469 65.204 66.6967C65.204 66.107 64.6964 65.3035 63.9663 65.3014L63.6423 65.2646L62.4003 65.7571C62.3139 65.7614 62.2322 65.7979 62.1714 65.8595C62.1106 65.9211 62.0751 66.0033 62.072 66.0898L62.0353 70.237L62.6034 71.034C62.7074 71.1748 62.8528 71.2795 63.0193 71.3334C63.1859 71.3873 63.3651 71.3877 63.5318 71.3346C63.6986 71.2814 63.8445 71.1774 63.9492 71.0371C64.0538 70.8969 64.1119 70.7273 64.1154 70.5523L64.1175 70.5588Z" fill="#FFBE9D"/>
<path d="M63.6185 68.3361C63.6252 68.2861 63.6507 68.2405 63.6897 68.2086C63.7253 68.1788 63.7695 68.1613 63.8158 68.1586C63.8621 68.1559 63.908 68.1681 63.9468 68.1935C63.9865 68.2244 64.0174 68.2653 64.0363 68.3119C64.0553 68.3585 64.0616 68.4093 64.0548 68.4592C64.033 68.4889 64.0052 68.5137 63.9732 68.532C63.9412 68.5502 63.9057 68.5615 63.869 68.565H63.8345C63.7767 68.5637 63.7215 68.5415 63.6789 68.5024C63.6568 68.4811 63.6399 68.4551 63.6294 68.4262C63.6189 68.3974 63.6152 68.3666 63.6185 68.3361Z" fill="#EB996E"/>
<path d="M64.7482 67.392C64.7442 67.4226 64.7291 67.4508 64.7059 67.4712C64.6827 67.4916 64.6528 67.5029 64.6218 67.5029C64.5909 67.5029 64.561 67.4916 64.5378 67.4712C64.5145 67.4508 64.4995 67.4226 64.4955 67.392C64.4972 67.3589 64.5116 67.3278 64.5358 67.3053C64.56 67.2827 64.592 67.2704 64.6251 67.271C64.6412 67.2707 64.6571 67.2736 64.672 67.2796C64.687 67.2856 64.7006 67.2944 64.712 67.3057C64.7235 67.3169 64.7326 67.3304 64.7388 67.3452C64.745 67.36 64.7482 67.3759 64.7482 67.392Z" fill="#263238"/>
<path d="M64.9555 67.0703C64.9382 67.0854 64.8454 67.0098 64.7114 67.0033C64.5775 66.9968 64.4717 67.0573 64.4587 67.04C64.4458 67.0227 64.4695 67.0033 64.5149 66.9752C64.5753 66.9368 64.6466 66.9194 64.7179 66.9255C64.7883 66.9283 64.8558 66.9541 64.9102 66.999C64.949 67.0335 64.962 67.0638 64.9555 67.0703Z" fill="#263238"/>
<path d="M64.1024 68.094C64.1733 68.0772 64.2456 68.0678 64.3184 68.066C64.353 68.066 64.3875 68.066 64.394 68.0357C64.3988 68.0002 64.3927 67.9641 64.3768 67.932C64.3487 67.8478 64.3184 67.7592 64.2882 67.6642C64.2061 67.4362 64.1418 67.2023 64.0959 66.9644C64.1972 67.1847 64.2802 67.413 64.3444 67.6469C64.3746 67.742 64.4005 67.8305 64.4286 67.9169C64.4468 67.9599 64.4506 68.0077 64.4394 68.053C64.4335 68.065 64.425 68.0754 64.4146 68.0837C64.4041 68.0919 64.3919 68.0977 64.3789 68.1005C64.3596 68.1035 64.3399 68.1035 64.3206 68.1005C64.2479 68.1082 64.1745 68.1061 64.1024 68.094Z" fill="#263238"/>
<path d="M64.1089 69.699C63.6463 69.6809 63.1977 69.5352 62.8129 69.2778C62.8129 69.2778 63.1261 69.9755 64.1089 69.9388V69.699Z" fill="#EB996E"/>
<path d="M63.6984 68.1655C63.7222 68.1655 63.7136 68.3124 63.8345 68.4247C63.9555 68.537 64.111 68.5284 64.111 68.5479C64.111 68.5673 64.0743 68.5738 64.0095 68.5738C63.9227 68.57 63.84 68.5355 63.7762 68.4766C63.7146 68.421 63.6773 68.3434 63.6725 68.2606C63.6704 68.2001 63.6898 68.1655 63.6984 68.1655Z" fill="#263238"/>
<path d="M64.9275 66.5607C64.9037 66.5931 64.8 66.5607 64.6791 66.5607C64.5581 66.5607 64.4631 66.5909 64.4307 66.5607C64.3983 66.5305 64.4307 66.5132 64.4782 66.4829C64.5373 66.4445 64.6064 66.4242 64.6769 66.4246C64.7478 66.4217 64.8179 66.4405 64.8778 66.4786C64.9231 66.5132 64.9383 66.5456 64.9275 66.5607Z" fill="#263238"/>
<path d="M63.2621 67.375C63.2615 67.4079 63.2739 67.4397 63.2965 67.4635C63.3191 67.4874 63.3502 67.5013 63.3831 67.5025C63.399 67.5043 63.4152 67.5028 63.4305 67.4982C63.4459 67.4935 63.4602 67.4859 63.4725 67.4756C63.4848 67.4653 63.4949 67.4526 63.5022 67.4383C63.5095 67.424 63.5138 67.4083 63.5148 67.3923C63.5154 67.3592 63.5031 67.3272 63.4806 67.303C63.458 67.2789 63.4269 67.2644 63.3939 67.2627C63.3778 67.2612 63.3616 67.263 63.3462 67.2679C63.3308 67.2727 63.3166 67.2807 63.3043 67.2911C63.292 67.3016 63.282 67.3144 63.2747 67.3288C63.2675 67.3432 63.2632 67.3589 63.2621 67.375Z" fill="#263238"/>
<path d="M63.0979 67.0205C63.113 67.0378 63.2102 66.9687 63.3463 66.973C63.4824 66.9773 63.5796 67.0443 63.5947 67.027C63.6098 67.0097 63.5947 66.9903 63.5429 66.9579C63.4848 66.9165 63.4154 66.8939 63.3442 66.8931C63.274 66.8925 63.2053 66.9137 63.1476 66.9536C63.1044 66.9838 63.0893 67.014 63.0979 67.0205Z" fill="#263238"/>
<path d="M63.0202 66.7315C63.0461 66.7617 63.152 66.7315 63.2772 66.7315C63.4025 66.7315 63.5084 66.7552 63.5343 66.7315C63.5602 66.7077 63.5343 66.6861 63.4824 66.6559C63.4195 66.619 63.348 66.5996 63.2751 66.5996C63.2022 66.5996 63.1306 66.619 63.0677 66.6559C63.0224 66.6839 63.0072 66.7163 63.0202 66.7315Z" fill="#263238"/>
<path d="M62.2318 67.6623C62.2318 67.5889 62.1627 67.4139 62.0893 67.3988C61.8992 67.3577 61.5514 67.3534 61.5212 67.8416C61.4801 68.509 62.1692 68.414 62.1692 68.3945C62.1692 68.3751 62.2188 67.915 62.2318 67.6623Z" fill="#FFBE9D"/>
<path d="M61.9921 68.1397C61.9921 68.1397 61.9813 68.1397 61.9597 68.1548C61.9319 68.1654 61.9011 68.1654 61.8733 68.1548C61.8316 68.1251 61.7986 68.0848 61.7777 68.0381C61.7569 67.9914 61.7488 67.94 61.7545 67.8891C61.7567 67.8319 61.7715 67.7759 61.7977 67.725C61.8054 67.7046 61.8179 67.6863 61.834 67.6717C61.8502 67.6571 61.8695 67.6464 61.8905 67.6407C61.904 67.6381 61.9179 67.64 61.9301 67.6463C61.9422 67.6526 61.9519 67.6628 61.9575 67.6753C61.9593 67.6867 61.9593 67.6984 61.9575 67.7098C61.9575 67.7098 61.9726 67.699 61.9683 67.671C61.9651 67.6544 61.9568 67.6393 61.9445 67.6278C61.9359 67.6205 61.926 67.615 61.9152 67.6117C61.9044 67.6084 61.8931 67.6072 61.8819 67.6083C61.8542 67.6115 61.8277 67.6219 61.8053 67.6386C61.7829 67.6553 61.7654 67.6777 61.7545 67.7034C61.7222 67.7593 61.7044 67.8224 61.7026 67.887C61.6955 67.946 61.706 68.0059 61.7329 68.059C61.7598 68.1121 61.8019 68.1559 61.8538 68.185C61.8706 68.1933 61.8891 68.1975 61.9078 68.1975C61.9265 68.1975 61.945 68.1933 61.9618 68.185C61.9921 68.1548 61.9921 68.1397 61.9921 68.1397Z" fill="#EB996E"/>
<path d="M62.0633 67.3923L62.2318 67.5694C62.9662 66.8674 64.4026 65.1114 64.3227 65.2172C63.9879 65.0919 63.6269 65.0525 63.273 65.1027C62.7265 65.1956 61.6918 65.4678 61.707 66.1114C61.7393 66.5579 61.8605 66.9933 62.0633 67.3923Z" fill="#263238"/>
<path d="M61.0913 67.2518C61.0913 67.2518 61.0913 67.2389 61.0913 67.2129C61.1045 67.1776 61.1196 67.143 61.1367 67.1093C61.2064 66.9851 61.3022 66.8775 61.4175 66.7939C61.5923 66.673 61.7867 66.5831 61.992 66.5282C62.208 66.4548 62.4672 66.3986 62.7156 66.2928C62.9495 66.1957 63.1713 66.0717 63.3766 65.9234C63.5441 65.8025 63.7003 65.6666 63.8432 65.5173C63.9641 65.3877 64.0592 65.2754 64.1132 65.1977C64.1391 65.1588 64.1628 65.1285 64.1801 65.1048C64.1974 65.081 64.2039 65.0724 64.206 65.0745L64.1866 65.1091L64.124 65.2041C64.0445 65.3201 63.9564 65.4298 63.8604 65.5325C63.7185 65.686 63.5623 65.8255 63.3939 65.9493C63.1866 66.0963 62.9625 66.2182 62.7264 66.3122C62.4759 66.4181 62.221 66.4742 61.9985 66.5455C61.7996 66.6004 61.6113 66.688 61.4412 66.8047C61.3265 66.8843 61.2301 66.9874 61.1583 67.1071C61.133 67.1539 61.1106 67.2023 61.0913 67.2518Z" fill="#455A64"/>
<path d="M61.2857 67.3576C61.2841 67.3074 61.2929 67.2574 61.3116 67.2108C61.3611 67.0831 61.4485 66.9738 61.5622 66.8976C61.7324 66.7889 61.9226 66.7155 62.1216 66.6816C62.3599 66.635 62.5924 66.5626 62.815 66.4656C63.036 66.3651 63.2435 66.2374 63.4328 66.0854C63.6929 65.8771 63.9163 65.6267 64.0937 65.3445C64.1175 65.3056 64.1369 65.2754 64.1499 65.2495C64.1569 65.2387 64.1648 65.2286 64.1736 65.2192C64.169 65.2313 64.1632 65.2429 64.1563 65.2538L64.1045 65.351C64.0382 65.4684 63.9616 65.5798 63.8756 65.6836C63.7479 65.8431 63.603 65.988 63.4435 66.1156C63.253 66.2708 63.0431 66.4008 62.8193 66.5023C62.594 66.6001 62.3586 66.6725 62.1173 66.7183C61.9212 66.7529 61.7339 66.8264 61.5665 66.9343C61.4533 67.0058 61.365 67.1107 61.3138 67.2345C61.3006 67.2746 61.2912 67.3158 61.2857 67.3576Z" fill="#455A64"/>
<path d="M60.8947 73.3903C60.8631 72.9654 60.8631 72.5387 60.8947 72.1138C60.9235 72.5388 60.9235 72.9653 60.8947 73.3903Z" fill="#263238"/>
<path d="M65.4783 73.3022C65.4721 73.2267 65.4721 73.1509 65.4783 73.0754C65.4913 72.8945 65.4848 72.7127 65.4589 72.5332C65.425 72.3555 65.3729 72.1818 65.3033 72.0148C65.2711 71.9453 65.2451 71.873 65.2256 71.7988C65.2678 71.8619 65.3033 71.9292 65.3314 71.9997C65.4117 72.1662 65.4691 72.3427 65.5021 72.5246C65.5278 72.7073 65.5278 72.8927 65.5021 73.0754C65.5039 73.1517 65.4959 73.2279 65.4783 73.3022Z" fill="#263238"/>
<path d="M88.7933 71.9023H72.2801C71.8864 71.9017 71.509 71.7449 71.2307 71.4663C70.9525 71.1876 70.7962 70.81 70.7962 70.4162V66.7788L68.9753 65.1631H88.7933C89.1867 65.1637 89.5638 65.3202 89.842 65.5983C90.1202 65.8765 90.2767 66.2536 90.2773 66.647V70.4162C90.2773 70.81 90.121 71.1876 89.8428 71.4663C89.5645 71.7449 89.1871 71.9017 88.7933 71.9023Z" fill="#EBEBEB"/>
<path d="M88.5817 67.148C88.5817 67.1804 84.9766 67.2041 80.5292 67.2041C76.0818 67.2041 72.4789 67.1804 72.4789 67.148C72.4789 67.1156 76.0818 67.0918 80.5292 67.0918C84.9766 67.0918 88.5817 67.1177 88.5817 67.148Z" fill="white"/>
<path d="M88.5817 68.3316C88.5817 68.3618 84.9766 68.3877 80.5292 68.3877C76.0818 68.3877 72.4789 68.3618 72.4789 68.3316C72.4789 68.3013 76.0818 68.2754 80.5292 68.2754C84.9766 68.2754 88.5817 68.3013 88.5817 68.3316Z" fill="white"/>
<path d="M88.5817 69.5156C88.5817 69.5459 84.9766 69.5718 80.5292 69.5718C76.0818 69.5718 72.4789 69.5459 72.4789 69.5156C72.4789 69.4854 76.0818 69.4595 80.5292 69.4595C84.9766 69.4595 88.5817 69.4832 88.5817 69.5156Z" fill="white"/>
<path d="M88.5817 40.5523C88.5817 40.5825 84.9766 40.6084 80.5292 40.6084C76.0818 40.6084 72.4789 40.5825 72.4789 40.5523C72.4789 40.522 76.0818 40.4961 80.5292 40.4961C84.9766 40.4961 88.5817 40.5199 88.5817 40.5523Z" fill="white"/>
<path d="M88.5817 41.7334C88.5817 41.7658 84.9766 41.7896 80.5292 41.7896C76.0818 41.7896 72.4789 41.7658 72.4789 41.7334C72.4789 41.701 76.0818 41.6772 80.5292 41.6772C84.9766 41.6772 88.5817 41.7032 88.5817 41.7334Z" fill="white"/>
<path d="M88.5817 43.1548C88.5817 43.1872 84.9766 43.211 80.5292 43.211C76.0818 43.211 72.4789 43.1872 72.4789 43.1548C72.4789 43.1224 76.0818 43.0986 80.5292 43.0986C84.9766 43.0986 88.5817 43.1246 88.5817 43.1548Z" fill="white"/>
<path d="M72.576 22.6001C72.5876 22.4323 72.6479 22.2715 72.7495 22.1374C72.8512 22.0033 72.9897 21.9019 73.1482 21.8455C73.3067 21.789 73.4783 21.7801 73.6418 21.8198C73.8052 21.8594 73.9536 21.946 74.0686 22.0688L73.8375 22.2848C73.7897 22.2269 73.7296 22.1804 73.6616 22.1487C73.5936 22.1169 73.5194 22.1007 73.4444 22.1012C73.3115 22.1012 73.184 22.154 73.09 22.248C72.996 22.3419 72.9433 22.4694 72.9433 22.6023C72.9433 22.7352 72.996 22.8627 73.09 22.9566C73.184 23.0506 73.3115 23.1034 73.4444 23.1034C73.5196 23.104 73.5941 23.0876 73.6621 23.0554C73.7302 23.0232 73.7901 22.9762 73.8375 22.9177L74.0686 23.1337C73.9537 23.2564 73.8056 23.3429 73.6422 23.3827C73.4789 23.4224 73.3076 23.4137 73.1491 23.3575C72.9907 23.3013 72.8521 23.2002 72.7503 23.0664C72.6485 22.9327 72.588 22.7721 72.576 22.6045V22.6001Z" fill="#263238"/>
<path d="M75.505 22.6933V23.3823H75.168V22.7473C75.168 22.5529 75.0773 22.4643 74.9239 22.4643C74.7706 22.4643 74.6367 22.568 74.6367 22.7883V23.3823H74.2867V21.7256H74.6367V22.3066C74.6873 22.258 74.7473 22.22 74.813 22.1952C74.8787 22.1703 74.9488 22.159 75.019 22.1619C75.0875 22.1591 75.1558 22.1714 75.2191 22.1977C75.2824 22.2241 75.3392 22.264 75.3855 22.3146C75.4318 22.3652 75.4665 22.4253 75.4871 22.4907C75.5077 22.5561 75.5138 22.6253 75.505 22.6933Z" fill="#263238"/>
<path d="M76.883 22.6975V23.3823H76.5569V23.2332C76.5164 23.2915 76.4609 23.3377 76.3962 23.367C76.3316 23.3963 76.2602 23.4075 76.1897 23.3995C75.9089 23.3995 75.7426 23.244 75.7426 23.0367C75.7426 22.8293 75.8916 22.6759 76.2588 22.6759H76.5353C76.5353 22.5269 76.4446 22.4405 76.2588 22.4405C76.1341 22.4392 76.0123 22.4778 75.911 22.5507L75.7857 22.3087C75.9399 22.2089 76.1205 22.1577 76.3042 22.1619C76.68 22.1619 76.883 22.3325 76.883 22.6975ZM76.5353 23.0021V22.879H76.2955C76.1335 22.879 76.0795 22.9395 76.0795 23.0215C76.0795 23.1036 76.153 23.1663 76.2761 23.1663C76.3312 23.1704 76.3862 23.1567 76.4329 23.1271C76.4795 23.0975 76.5155 23.0537 76.5353 23.0021Z" fill="#263238"/>
<path d="M77.9761 23.3282C77.8909 23.3817 77.7915 23.408 77.691 23.4038C77.6317 23.4119 77.5713 23.4065 77.5144 23.3879C77.4574 23.3693 77.4055 23.3381 77.3624 23.2965C77.3194 23.2548 77.2863 23.204 77.2658 23.1478C77.2452 23.0915 77.2377 23.0313 77.2439 22.9718V22.4771H77.0581V22.2093H77.2439V21.9155H77.5916V22.2093H77.8919V22.4771H77.5916V22.9674C77.589 22.988 77.591 23.0089 77.5975 23.0287C77.6039 23.0484 77.6146 23.0664 77.6289 23.0815C77.6431 23.0966 77.6605 23.1083 77.6799 23.1159C77.6992 23.1234 77.72 23.1266 77.7407 23.1251C77.7913 23.127 77.841 23.1109 77.8811 23.0798L77.9761 23.3282Z" fill="#263238"/>
<path d="M84.1385 25.011C84.1385 25.0412 80.4665 25.0671 75.9154 25.0671C71.3643 25.0671 67.6945 25.0412 67.6945 25.011C67.6945 24.9807 71.3665 24.9526 75.9154 24.9526C80.4644 24.9526 84.1385 24.9786 84.1385 25.011Z" fill="#263238"/>
<path d="M91.4242 22.6001C91.6353 22.6001 91.8065 22.4289 91.8065 22.2178C91.8065 22.0066 91.6353 21.8354 91.4242 21.8354C91.213 21.8354 91.0419 22.0066 91.0419 22.2178C91.0419 22.4289 91.213 22.6001 91.4242 22.6001Z" fill="#263238"/>
<path d="M91.8001 23.3281C91.8005 23.4044 91.7783 23.479 91.7362 23.5425C91.6941 23.6061 91.6341 23.6557 91.5637 23.6851C91.4934 23.7144 91.4159 23.7222 91.3411 23.7075C91.2663 23.6927 91.1976 23.656 91.1437 23.6021C91.0898 23.5482 91.0532 23.4795 91.0384 23.4048C91.0236 23.33 91.0314 23.2525 91.0608 23.1822C91.0902 23.1118 91.1398 23.0518 91.2033 23.0097C91.2669 22.9676 91.3415 22.9454 91.4178 22.9458C91.519 22.9464 91.6159 22.9868 91.6875 23.0584C91.7591 23.13 91.7995 23.2269 91.8001 23.3281Z" fill="#263238"/>
<path d="M91.8001 24.4492C91.8005 24.5254 91.7783 24.6001 91.7362 24.6636C91.6941 24.7272 91.6341 24.7768 91.5637 24.8062C91.4934 24.8355 91.4159 24.8433 91.3411 24.8286C91.2663 24.8138 91.1976 24.7771 91.1437 24.7232C91.0898 24.6693 91.0532 24.6006 91.0384 24.5259C91.0236 24.4511 91.0314 24.3736 91.0608 24.3032C91.0902 24.2329 91.1398 24.1729 91.2033 24.1308C91.2669 24.0887 91.3415 24.0665 91.4178 24.0669C91.5192 24.0669 91.6164 24.1072 91.6881 24.1789C91.7598 24.2506 91.8001 24.3478 91.8001 24.4492Z" fill="#263238"/>
<path d="M60.3332 23.514C60.3097 23.5145 60.2868 23.5069 60.2684 23.4924L59.2553 22.7494C59.2415 22.7391 59.2302 22.7257 59.2223 22.7104C59.2144 22.695 59.2102 22.6781 59.21 22.6608C59.21 22.6438 59.2142 22.6271 59.2221 22.6121C59.23 22.597 59.2414 22.5841 59.2553 22.5744L60.2684 21.8443C60.28 21.836 60.2931 21.8301 60.307 21.8269C60.3209 21.8238 60.3353 21.8234 60.3494 21.8258C60.3634 21.8282 60.3769 21.8334 60.3889 21.841C60.401 21.8486 60.4114 21.8586 60.4196 21.8702C60.4358 21.8933 60.4425 21.9217 60.438 21.9496C60.4336 21.9775 60.4184 22.0025 60.3958 22.0193L59.5016 22.6673L60.3958 23.3153C60.4186 23.3325 60.4338 23.3579 60.4382 23.3861C60.4427 23.4143 60.436 23.4431 60.4196 23.4665C60.4101 23.4808 60.3973 23.4926 60.3822 23.5009C60.3672 23.5092 60.3503 23.5137 60.3332 23.514Z" fill="#263238"/>
<path d="M86.7694 59.8322C89.4452 59.8322 91.6143 57.6679 91.6143 54.9981C91.6143 52.3284 89.4452 50.1641 86.7694 50.1641C84.0937 50.1641 81.9246 52.3284 81.9246 54.9981C81.9246 57.6679 84.0937 59.8322 86.7694 59.8322Z" fill="#E0E0E0"/>
<path d="M88.0956 57.8556H85.5468C85.4597 57.8556 85.3762 57.821 85.3147 57.7594C85.2531 57.6978 85.2185 57.6143 85.2185 57.5273C85.2185 57.44 85.253 57.3563 85.3145 57.2943C85.376 57.2324 85.4595 57.1973 85.5468 57.1968H88.0956C88.1829 57.1973 88.2664 57.2324 88.3279 57.2943C88.3894 57.3563 88.4239 57.44 88.4239 57.5273C88.4239 57.6143 88.3894 57.6978 88.3278 57.7594C88.2662 57.821 88.1827 57.8556 88.0956 57.8556Z" fill="#263238"/>
<path d="M86.966 51.8555H86.7413V52.9873H86.966V51.8555Z" fill="#263238"/>
<path d="M83.5511 56.3807C83.9137 56.3807 84.2077 56.0867 84.2077 55.724C84.2077 55.3614 83.9137 55.0674 83.5511 55.0674C83.1884 55.0674 82.8944 55.3614 82.8944 55.724C82.8944 56.0867 83.1884 56.3807 83.5511 56.3807Z" fill="#FF9140"/>
<path d="M90.1908 56.3372C90.5535 56.3372 90.8475 56.0432 90.8475 55.6806C90.8475 55.3179 90.5535 55.0239 90.1908 55.0239C89.8282 55.0239 89.5342 55.3179 89.5342 55.6806C89.5342 56.0432 89.8282 56.3372 90.1908 56.3372Z" fill="#FF9140"/>
<path d="M86.9509 52.7496C86.9509 52.7496 89.625 52.7172 90.0483 55.0349C90.4717 57.3526 88.2102 57.3936 87.56 57.4368C87.2663 57.4563 86.6355 57.4584 86.0783 57.4498C84.8449 57.4282 83.9744 57.1906 83.6785 56.0458C83.643 55.9115 83.6206 55.774 83.6115 55.6354C83.5338 54.3826 84.3805 52.6891 86.9509 52.7496Z" fill="#FF9140"/>
<path d="M85.0112 56.2769L88.8992 56.3374C89.0948 56.3403 89.2835 56.2655 89.424 56.1295C89.5645 55.9934 89.6453 55.8072 89.6487 55.6117C89.651 55.4161 89.5757 55.2276 89.4392 55.0875C89.3028 54.9474 89.1164 54.8672 88.9208 54.8643L85.0328 54.8038C84.9359 54.8021 84.8396 54.8195 84.7494 54.8551C84.6593 54.8907 84.577 54.9437 84.5074 55.0111C84.4378 55.0785 84.3821 55.1591 84.3437 55.248C84.3052 55.337 84.2847 55.4327 84.2833 55.5296C84.2819 55.6265 84.2996 55.7227 84.3354 55.8128C84.3712 55.9028 84.4245 55.9849 84.4921 56.0544C84.5597 56.1238 84.6404 56.1792 84.7295 56.2174C84.8185 56.2556 84.9143 56.2758 85.0112 56.2769Z" fill="#263238"/>
<path d="M88.0913 55.5317C88.097 55.5622 88.1087 55.5914 88.1257 55.6174C88.1427 55.6434 88.1647 55.6658 88.1904 55.6832C88.2161 55.7007 88.245 55.7129 88.2755 55.7192C88.3059 55.7254 88.3373 55.7255 88.3678 55.7196C88.4007 55.7163 88.4325 55.7061 88.4613 55.6898C88.49 55.6735 88.515 55.6514 88.5347 55.6248C88.5544 55.5983 88.5684 55.5679 88.5757 55.5357C88.583 55.5035 88.5835 55.4701 88.5771 55.4376C88.5708 55.4052 88.5578 55.3745 88.5389 55.3473C88.52 55.3202 88.4956 55.2974 88.4674 55.2802C88.4392 55.263 88.4077 55.2519 88.3749 55.2476C88.3421 55.2433 88.3088 55.2459 88.2771 55.2552C88.2467 55.2611 88.2179 55.273 88.1921 55.2901C88.1663 55.3072 88.1442 55.3293 88.1269 55.3549C88.1097 55.3806 88.0977 55.4094 88.0915 55.4398C88.0854 55.4701 88.0854 55.5013 88.0913 55.5317Z" fill="white"/>
<path d="M85.3762 55.4885C85.3795 55.5214 85.3897 55.5532 85.406 55.582C85.4223 55.6107 85.4444 55.6357 85.471 55.6554C85.4975 55.6751 85.5279 55.6891 85.5601 55.6964C85.5923 55.7037 85.6257 55.7042 85.6582 55.6978C85.6906 55.6915 85.7213 55.6785 85.7485 55.6596C85.7756 55.6407 85.7984 55.6163 85.8156 55.5881C85.8328 55.5599 85.8439 55.5284 85.8482 55.4956C85.8525 55.4628 85.8499 55.4295 85.8406 55.3978C85.8239 55.341 85.7867 55.2924 85.736 55.2616C85.6854 55.2309 85.6252 55.2201 85.567 55.2315C85.5089 55.2428 85.4571 55.2755 85.4218 55.323C85.3865 55.3706 85.3703 55.4296 85.3762 55.4885Z" fill="white"/>
<path d="M87.223 51.8403C87.2234 51.9135 87.2021 51.9851 87.1618 52.0461C87.1214 52.1072 87.0639 52.1548 86.9965 52.1831C86.929 52.2114 86.8547 52.219 86.7829 52.205C86.7111 52.191 86.6451 52.156 86.5932 52.1044C86.5413 52.0529 86.5059 51.9871 86.4915 51.9154C86.4771 51.8437 86.4843 51.7693 86.5122 51.7017C86.5401 51.634 86.5874 51.5762 86.6482 51.5355C86.709 51.4949 86.7805 51.4731 86.8536 51.4731C86.9512 51.4731 87.0448 51.5118 87.114 51.5806C87.1832 51.6494 87.2224 51.7428 87.223 51.8403Z" fill="#FF9140"/>
<path d="M87.411 55.4238C87.411 55.4238 87.4261 55.4411 87.4347 55.48C87.4415 55.5352 87.4363 55.5911 87.4196 55.6441C87.3959 55.7262 87.3512 55.8006 87.29 55.8601C87.2152 55.9349 87.1167 55.9815 87.0114 55.9919C86.9061 56.0007 86.8009 55.9732 86.7133 55.9141C86.644 55.8672 86.5869 55.8042 86.547 55.7306C86.5214 55.6809 86.5067 55.6264 86.5038 55.5707C86.5038 55.5318 86.5038 55.5102 86.5167 55.5102C86.5297 55.5102 86.5383 55.5923 86.6096 55.6938C86.6512 55.7501 86.7033 55.7978 86.763 55.8342C86.8352 55.8772 86.9189 55.8968 87.0027 55.8904C87.0832 55.8801 87.1586 55.8454 87.2187 55.791C87.2732 55.7459 87.3167 55.689 87.3462 55.6247C87.4023 55.5124 87.3937 55.4238 87.411 55.4238Z" fill="white"/>
<path d="M90.0439 54.959C90.052 54.9771 90.0585 54.9959 90.0633 55.0151C90.0718 55.0378 90.079 55.0609 90.0849 55.0843C90.0849 55.1102 90.1001 55.1404 90.1065 55.1771C90.1231 55.2577 90.1346 55.3392 90.1411 55.4212C90.1486 55.5219 90.1486 55.623 90.1411 55.7236C90.1321 55.8241 90.1155 55.9237 90.0914 56.0217C90.0711 56.1012 90.0451 56.1792 90.0137 56.255C90.003 56.2851 89.9907 56.3147 89.9769 56.3435C89.9675 56.3651 89.9567 56.386 89.9445 56.4062L89.9143 56.4602C89.9191 56.4403 89.9271 56.4213 89.9381 56.404L89.9662 56.3371C89.977 56.3111 89.9899 56.2831 90.0007 56.2507C90.0298 56.1746 90.0536 56.0967 90.072 56.0174C90.095 55.9199 90.1116 55.8211 90.1217 55.7215C90.1281 55.6215 90.1281 55.5212 90.1217 55.4212C90.1163 55.3401 90.1062 55.2593 90.0914 55.1793C90.0869 55.1458 90.0804 55.1127 90.072 55.0799C90.072 55.0519 90.0612 55.0303 90.0569 55.0108C90.0502 54.9942 90.0458 54.9768 90.0439 54.959Z" fill="#263238"/>
<path d="M83.7087 54.9722C83.6994 54.9908 83.6922 55.0103 83.6871 55.0305C83.6871 55.0478 83.6741 55.0715 83.6655 55.0974C83.6568 55.1234 83.6504 55.1558 83.6439 55.1903C83.6273 55.2708 83.6165 55.3524 83.6115 55.4344C83.604 55.5351 83.604 55.6362 83.6115 55.7368C83.6201 55.8373 83.6367 55.937 83.6612 56.0349C83.6812 56.1152 83.7072 56.1939 83.7389 56.2703C83.7497 56.3027 83.7648 56.3308 83.7756 56.3567C83.7864 56.3826 83.7994 56.4042 83.808 56.4215L83.8383 56.4734C83.8326 56.4538 83.8246 56.4349 83.8145 56.4172C83.8145 56.3999 83.7972 56.3783 83.7864 56.3524C83.7756 56.3265 83.7627 56.2984 83.7519 56.266C83.7228 56.1892 83.699 56.1106 83.6806 56.0306C83.6574 55.9332 83.6408 55.8343 83.6309 55.7346C83.6245 55.6354 83.6245 55.5358 83.6309 55.4366C83.6363 55.3547 83.6464 55.2732 83.6612 55.1925C83.6657 55.1619 83.6722 55.1316 83.6806 55.1018C83.6806 55.0737 83.6914 55.0499 83.6957 55.0326C83.7 55.0154 83.7087 54.9722 83.7087 54.9722Z" fill="#263238"/>
<path d="M84.2854 59.1495C84.2854 59.1495 85.0803 58.374 86.7413 58.374C88.4024 58.374 89.2534 59.1495 89.2534 59.1495C88.5038 59.6018 87.6449 59.8408 86.7694 59.8408C85.8939 59.8408 85.035 59.6018 84.2854 59.1495Z" fill="#FF9140"/>
<path d="M60.2641 59.9271H76.7751C76.9701 59.9274 77.1632 59.8892 77.3433 59.8147C77.5235 59.7403 77.6872 59.631 77.825 59.4931C77.9629 59.3553 78.0722 59.1916 78.1467 59.0114C78.2211 58.8312 78.2593 58.6381 78.259 58.4432V53.6523L80.0799 52.0366H60.2641C60.0692 52.0366 59.8762 52.075 59.6962 52.1496C59.5162 52.2242 59.3526 52.3335 59.2148 52.4713C59.077 52.609 58.9677 52.7726 58.8931 52.9527C58.8185 53.1327 58.7802 53.3257 58.7802 53.5205V58.4432C58.7799 58.6381 58.8181 58.8312 58.8925 59.0114C58.967 59.1916 59.0763 59.3553 59.2142 59.4931C59.352 59.631 59.5157 59.7403 59.6959 59.8147C59.876 59.8892 60.0691 59.9274 60.2641 59.9271Z" fill="#EBEBEB"/>
<path d="M76.032 54.3784C76.032 54.4108 72.6322 54.4346 68.4375 54.4346C64.2427 54.4346 60.8429 54.4108 60.8429 54.3784C60.8429 54.346 64.2427 54.3223 68.4375 54.3223C72.6322 54.3223 76.032 54.3482 76.032 54.3784Z" fill="white"/>
<path d="M76.032 55.6611C76.032 55.6935 72.6322 55.7173 68.4375 55.7173C64.2427 55.7173 60.8429 55.6935 60.8429 55.6611C60.8429 55.6287 64.2427 55.605 68.4375 55.605C72.6322 55.605 76.032 55.6309 76.032 55.6611Z" fill="white"/>
<path d="M76.032 56.9443C76.032 56.9746 72.6322 57.0005 68.4375 57.0005C64.2427 57.0005 60.8429 56.9746 60.8429 56.9443C60.8429 56.9141 64.2427 56.8882 68.4375 56.8882C72.6322 56.8882 76.032 56.9141 76.032 56.9443Z" fill="white"/>
<path d="M76.032 58.2271C76.032 58.2573 72.6322 58.2832 68.4375 58.2832C64.2427 58.2832 60.8429 58.2573 60.8429 58.2271C60.8429 58.1968 64.2427 58.1709 68.4375 58.1709C72.6322 58.1709 76.032 58.1947 76.032 58.2271Z" fill="white"/>
<path d="M86.7694 86.6765C89.4452 86.6765 91.6143 84.5122 91.6143 81.8424C91.6143 79.1726 89.4452 77.0083 86.7694 77.0083C84.0937 77.0083 81.9246 79.1726 81.9246 81.8424C81.9246 84.5122 84.0937 86.6765 86.7694 86.6765Z" fill="#E0E0E0"/>
<path d="M88.0956 84.7003H85.5468C85.5035 84.7003 85.4607 84.6917 85.4207 84.6751C85.3807 84.6585 85.3444 84.6341 85.3139 84.6034C85.2834 84.5727 85.2593 84.5362 85.2429 84.4961C85.2265 84.4561 85.2182 84.4131 85.2185 84.3698C85.2185 84.2828 85.2531 84.1992 85.3147 84.1377C85.3762 84.0761 85.4598 84.0415 85.5468 84.0415H88.0956C88.1827 84.0415 88.2662 84.0761 88.3278 84.1377C88.3894 84.1992 88.424 84.2828 88.424 84.3698C88.4242 84.4131 88.416 84.4561 88.3996 84.4961C88.3832 84.5362 88.3591 84.5727 88.3286 84.6034C88.298 84.6341 88.2618 84.6585 88.2218 84.6751C88.1818 84.6917 88.1389 84.7003 88.0956 84.7003Z" fill="#263238"/>
<path d="M86.966 78.6997H86.7413V79.8315H86.966V78.6997Z" fill="#263238"/>
<path d="M83.5511 83.2249C83.9137 83.2249 84.2077 82.9309 84.2077 82.5683C84.2077 82.2056 83.9137 81.9116 83.5511 81.9116C83.1884 81.9116 82.8944 82.2056 82.8944 82.5683C82.8944 82.9309 83.1884 83.2249 83.5511 83.2249Z" fill="#FF9140"/>
<path d="M90.1908 83.1795C90.5535 83.1795 90.8475 82.8855 90.8475 82.5228C90.8475 82.1602 90.5535 81.8662 90.1908 81.8662C89.8282 81.8662 89.5342 82.1602 89.5342 82.5228C89.5342 82.8855 89.8282 83.1795 90.1908 83.1795Z" fill="#FF9140"/>
<path d="M86.9509 79.594C86.9509 79.594 89.625 79.5616 90.0483 81.8771C90.4717 84.1926 88.2102 84.238 87.56 84.2812C87.2663 84.3006 86.6355 84.3028 86.0783 84.2941C84.8449 84.2725 83.9744 84.0328 83.6785 82.8901C83.643 82.7558 83.6206 82.6184 83.6115 82.4797C83.5338 81.2269 84.3805 79.5313 86.9509 79.594Z" fill="#FF9140"/>
<path d="M85.0112 83.1214L88.8992 83.1818C89.0948 83.1847 89.2835 83.1099 89.424 82.9739C89.5645 82.8378 89.6453 82.6516 89.6487 82.4561C89.651 82.2605 89.5757 82.072 89.4392 81.9319C89.3028 81.7918 89.1164 81.7116 88.9208 81.7087L85.0328 81.6461C84.8372 81.6432 84.6485 81.718 84.508 81.854C84.3675 81.9901 84.2867 82.1763 84.2833 82.3718C84.2819 82.4689 84.2995 82.5652 84.3354 82.6554C84.3712 82.7455 84.4244 82.8278 84.492 82.8974C84.5596 82.967 84.6402 83.0226 84.7293 83.061C84.8184 83.0994 84.9142 83.12 85.0112 83.1214Z" fill="#263238"/>
<path d="M88.0913 82.3762C88.0966 82.4069 88.1078 82.4364 88.1245 82.4628C88.1411 82.4892 88.1628 82.5121 88.1882 82.5302C88.2137 82.5482 88.2425 82.5611 88.2729 82.568C88.3034 82.575 88.3349 82.5758 88.3657 82.5706C88.3964 82.5653 88.4259 82.5541 88.4523 82.5374C88.4787 82.5208 88.5016 82.4991 88.5197 82.4737C88.5377 82.4482 88.5506 82.4194 88.5575 82.389C88.5644 82.3585 88.5653 82.327 88.5601 82.2962C88.5567 82.2634 88.5466 82.2315 88.5303 82.2028C88.514 82.1741 88.4918 82.149 88.4653 82.1293C88.4387 82.1096 88.4084 82.0957 88.3762 82.0884C88.3439 82.0811 88.3105 82.0806 88.2781 82.0869C88.2457 82.0933 88.2149 82.1063 88.1878 82.1252C88.1607 82.1441 88.1378 82.1684 88.1206 82.1967C88.1035 82.2249 88.0924 82.2564 88.0881 82.2892C88.0838 82.3219 88.0864 82.3553 88.0957 82.387L88.0913 82.3762Z" fill="white"/>
<path d="M85.3762 82.3328C85.3852 82.3789 85.4076 82.4214 85.4407 82.4547C85.4738 82.4881 85.516 82.5109 85.5621 82.5202C85.6081 82.5296 85.6559 82.5251 85.6994 82.5073C85.7429 82.4895 85.7801 82.4592 85.8064 82.4203C85.8327 82.3813 85.8468 82.3354 85.847 82.2884C85.8472 82.2414 85.8335 82.1955 85.8076 82.1563C85.7816 82.1171 85.7447 82.0865 85.7013 82.0683C85.658 82.0501 85.6103 82.0452 85.5641 82.0542C85.5335 82.0601 85.5043 82.072 85.4783 82.0893C85.4523 82.1065 85.4299 82.1287 85.4124 82.1546C85.395 82.1804 85.3828 82.2095 85.3766 82.2401C85.3704 82.2707 85.3702 82.3022 85.3762 82.3328Z" fill="white"/>
<path d="M87.223 78.676C87.223 78.7491 87.2013 78.8205 87.1607 78.8812C87.1201 78.9419 87.0625 78.9893 86.995 79.0172C86.9275 79.0452 86.8532 79.0525 86.7816 79.0383C86.7099 79.024 86.6441 78.9888 86.5924 78.9372C86.5408 78.8855 86.5056 78.8197 86.4913 78.7481C86.4771 78.6764 86.4844 78.6021 86.5124 78.5347C86.5403 78.4672 86.5877 78.4095 86.6484 78.3689C86.7091 78.3283 86.7806 78.3066 86.8536 78.3066C86.9516 78.3066 87.0455 78.3456 87.1148 78.4148C87.1841 78.4841 87.223 78.578 87.223 78.676Z" fill="#FF9140"/>
<path d="M87.411 82.2661C87.411 82.2661 87.4261 82.2856 87.4347 82.3244C87.4414 82.3796 87.4363 82.4356 87.4196 82.4886C87.3953 82.5704 87.3508 82.6447 87.29 82.7046C87.2152 82.7794 87.1167 82.826 87.0114 82.8364C86.9061 82.8451 86.8009 82.8177 86.7133 82.7586C86.644 82.7116 86.5869 82.6486 86.547 82.575C86.5216 82.5253 86.5069 82.4709 86.5038 82.4152C86.5038 82.3763 86.5038 82.3547 86.5167 82.3547C86.5297 82.3547 86.5383 82.4368 86.6096 82.5361C86.6505 82.5936 86.7027 82.6421 86.763 82.6787C86.8358 82.7203 86.9191 82.7398 87.0027 82.7348C87.0832 82.7245 87.1586 82.6899 87.2187 82.6355C87.2722 82.5894 87.3156 82.5328 87.3462 82.4692C87.4023 82.3525 87.3937 82.2683 87.411 82.2661Z" fill="white"/>
<path d="M90.0439 81.8018C90.0439 81.8018 90.0439 81.8234 90.0633 81.8601C90.0721 81.8826 90.0793 81.9057 90.0849 81.9292C90.0849 81.9551 90.1001 81.9854 90.1065 82.0199C90.1228 82.1005 90.1343 82.182 90.1411 82.264C90.1486 82.3647 90.1486 82.4657 90.1411 82.5664C90.1325 82.6669 90.1159 82.7666 90.0914 82.8645C90.0714 82.9448 90.0454 83.0235 90.0137 83.0999C90.003 83.1294 89.9907 83.1582 89.9769 83.1863C89.9679 83.2088 89.9571 83.2304 89.9445 83.2511L89.9143 83.303C89.92 83.2834 89.9279 83.2645 89.9381 83.2468C89.9381 83.2295 89.9554 83.2079 89.9662 83.182C89.977 83.1561 89.9899 83.128 90.0007 83.0956C90.03 83.0189 90.0539 82.9402 90.072 82.8602C90.0952 82.7635 90.1118 82.6653 90.1217 82.5664C90.1281 82.4664 90.1281 82.3661 90.1217 82.2662C90.1164 82.185 90.1063 82.1042 90.0914 82.0242C90.0869 81.9929 90.0804 81.9619 90.072 81.9314C90.072 81.9033 90.0612 81.8817 90.0569 81.8622C90.0495 81.8429 90.0451 81.8225 90.0439 81.8018Z" fill="#263238"/>
<path d="M83.7087 81.8169C83.6994 81.8355 83.6922 81.8551 83.6871 81.8752C83.6871 81.8925 83.6741 81.9163 83.6655 81.9422C83.6568 81.9681 83.6504 82.0005 83.6439 82.0351C83.6273 82.1155 83.6165 82.1971 83.6115 82.2791C83.604 82.3798 83.604 82.4809 83.6115 82.5815C83.6203 82.682 83.6369 82.7817 83.6612 82.8796C83.6812 82.9599 83.7072 83.0386 83.7389 83.1151C83.7497 83.1475 83.7648 83.1755 83.7756 83.2015C83.7864 83.2274 83.7994 83.249 83.808 83.2663L83.8383 83.3181C83.8331 83.2983 83.8251 83.2794 83.8145 83.2619C83.8145 83.2447 83.7972 83.2231 83.7864 83.1971C83.7756 83.1712 83.7627 83.1431 83.7519 83.1086C83.7228 83.0325 83.699 82.9546 83.6806 82.8753C83.6574 82.7779 83.6408 82.679 83.6309 82.5794C83.6245 82.4801 83.6245 82.3806 83.6309 82.2813C83.6363 82.1994 83.6464 82.1179 83.6612 82.0372C83.6657 82.0066 83.6722 81.9763 83.6806 81.9465C83.6806 81.9184 83.6914 81.8947 83.6957 81.8774C83.7 81.8601 83.7087 81.8169 83.7087 81.8169Z" fill="#263238"/>
<path d="M84.2854 85.9942C84.2854 85.9942 85.0803 85.2188 86.7413 85.2188C88.4024 85.2188 89.2534 85.9942 89.2534 85.9942C88.5038 86.4465 87.6449 86.6855 86.7694 86.6855C85.8939 86.6855 85.035 86.4465 84.2854 85.9942Z" fill="#FF9140"/>
<path d="M60.2641 86.7718H76.7751C76.9701 86.7721 77.1632 86.7339 77.3433 86.6595C77.5235 86.585 77.6872 86.4757 77.825 86.3378C77.9629 86.2 78.0722 86.0363 78.1467 85.8561C78.2211 85.6759 78.2593 85.4829 78.259 85.2879V80.497L80.0799 78.8813H60.2641C60.0692 78.8813 59.8762 78.9197 59.6962 78.9943C59.5162 79.0689 59.3526 79.1782 59.2148 79.316C59.077 79.4538 58.9677 79.6174 58.8931 79.7974C58.8185 79.9774 58.7802 80.1704 58.7802 80.3653V85.2879C58.7799 85.4829 58.8181 85.6759 58.8925 85.8561C58.967 86.0363 59.0763 86.2 59.2142 86.3378C59.352 86.4757 59.5157 86.585 59.6959 86.6595C59.876 86.7339 60.0691 86.7721 60.2641 86.7718Z" fill="#EBEBEB"/>
<path d="M60.2641 94.2646H76.7751C76.9702 94.2646 77.1633 94.2261 77.3435 94.1514C77.5237 94.0767 77.6873 93.9672 77.8252 93.8292C77.963 93.6911 78.0722 93.5273 78.1467 93.347C78.2211 93.1667 78.2593 92.9735 78.259 92.7785V91.1909L80.0799 89.5752H60.2641C60.0692 89.5752 59.8762 89.6136 59.6962 89.6882C59.5162 89.7627 59.3526 89.872 59.2148 90.0098C59.077 90.1476 58.9677 90.3112 58.8931 90.4912C58.8185 90.6713 58.7802 90.8642 58.7802 91.0591V92.7871C58.7819 93.1795 58.939 93.5553 59.2171 93.8322C59.4952 94.1091 59.8716 94.2646 60.2641 94.2646Z" fill="#EBEBEB"/>
<path d="M76.032 81.2163C76.032 81.2487 72.6322 81.2725 68.4375 81.2725C64.2427 81.2725 60.8429 81.2487 60.8429 81.2163C60.8429 81.1839 64.2427 81.1602 68.4375 81.1602C72.6322 81.1602 76.032 81.1926 76.032 81.2163Z" fill="white"/>
<path d="M76.032 82.5122C76.032 82.5425 72.6322 82.5684 68.4375 82.5684C64.2427 82.5684 60.8429 82.5425 60.8429 82.5122C60.8429 82.482 64.2427 82.4561 68.4375 82.4561C72.6322 82.4561 76.032 82.4755 76.032 82.5122Z" fill="white"/>
<path d="M76.032 83.7886C76.032 83.8188 72.6322 83.8447 68.4375 83.8447C64.2427 83.8447 60.8429 83.8188 60.8429 83.7886C60.8429 83.7583 64.2427 83.7324 68.4375 83.7324C72.6322 83.7324 76.032 83.7562 76.032 83.7886Z" fill="white"/>
<path d="M76.032 85.0718C76.032 85.102 72.6322 85.1279 68.4375 85.1279C64.2427 85.1279 60.8429 85.102 60.8429 85.0718C60.8429 85.0415 64.2427 85.0156 68.4375 85.0156C72.6322 85.0156 76.032 85.0394 76.032 85.0718Z" fill="white"/>
<path d="M76.0839 91.9883C76.0839 92.0185 72.7187 92.0445 68.5693 92.0445C64.4199 92.0445 61.0525 92.0185 61.0525 91.9883C61.0525 91.9581 64.4178 91.9321 68.5693 91.9321C72.7208 91.9321 76.0839 91.9559 76.0839 91.9883Z" fill="white"/>
<path d="M26.1576 32.7674L25.3584 30.2726C26.4951 28.428 26.9007 26.2249 26.4955 24.0964C26.0903 21.9679 24.9036 20.0679 23.1687 18.77C21.4337 17.4721 19.276 16.8701 17.1197 17.0823C14.9634 17.2945 12.9644 18.3056 11.5158 19.9169C10.0672 21.5282 9.27364 23.623 9.29118 25.7897C9.30871 27.9563 10.1361 30.0381 11.6106 31.6257C13.0851 33.2133 15.1002 34.1919 17.2596 34.3692C19.4191 34.5465 21.5668 33.9096 23.2805 32.5838L26.1576 32.7674Z" fill="#FAFAFA"/>
<path d="M26.1576 32.7673H25.9761L25.4275 32.7392L23.2675 32.6204C23.2642 32.6204 23.2609 32.6197 23.2579 32.6184C23.2549 32.6171 23.2521 32.6151 23.2499 32.6127C23.2477 32.6103 23.246 32.6074 23.2449 32.6042C23.2438 32.6011 23.2434 32.5978 23.2437 32.5945C23.2428 32.5902 23.2428 32.5858 23.2437 32.5815L23.2783 32.6161C21.7774 33.7884 19.9318 34.433 18.0273 34.4499C17.5464 34.4474 17.0663 34.4091 16.5909 34.3355C14.3824 33.9898 12.3932 32.8032 11.0397 31.0242C10.2859 30.0227 9.75495 28.8716 9.48239 27.6481C9.1862 26.3472 9.19803 24.9951 9.51695 23.6996C9.55799 23.5355 9.60119 23.3691 9.64439 23.205C9.68759 23.0408 9.75887 22.881 9.81503 22.719C9.86976 22.5551 9.93321 22.3944 10.0051 22.2373C10.0785 22.0818 10.1541 21.9263 10.2211 21.7686C10.2954 21.6109 10.3806 21.4587 10.476 21.3128L10.7503 20.8635L11.0657 20.4315L11.2255 20.2155C11.2795 20.1464 11.3421 20.0838 11.4005 20.0168C12.3346 18.9428 13.5195 18.1163 14.85 17.6106C16.1166 17.128 17.4767 16.941 18.8265 17.0641C20.0949 17.1902 21.3199 17.5944 22.4143 18.2478C24.3592 19.4029 25.7778 21.27 26.3693 23.4534C26.4942 23.9212 26.5838 24.3977 26.6371 24.879C26.6717 25.3288 26.6796 25.7803 26.6609 26.2311C26.5781 27.6678 26.137 29.0608 25.3778 30.2833V30.2639C25.6327 31.076 25.8271 31.7024 25.961 32.1301C26.0258 32.3461 26.0733 32.4951 26.1079 32.6053L26.1554 32.7651C26.1554 32.7651 26.1338 32.7068 26.0971 32.5988L25.9394 32.1215C25.8012 31.6895 25.596 31.0803 25.3325 30.279C25.3302 30.2727 25.3302 30.2658 25.3325 30.2595C26.0773 29.0398 26.5071 27.654 26.5831 26.2268C26.5997 25.7802 26.5896 25.333 26.5529 24.8876C26.4989 24.4106 26.4087 23.9383 26.2829 23.475C25.8196 21.7942 24.8586 20.2929 23.5263 19.1684C22.194 18.0438 20.5526 17.3487 18.8179 17.1743C17.4851 17.0523 16.142 17.2362 14.891 17.7121C13.5808 18.2135 12.4139 19.0294 11.4933 20.0881C11.4372 20.1551 11.3745 20.2155 11.3205 20.2847L11.1629 20.5007L10.8518 20.9175L10.584 21.3625C10.489 21.5078 10.4038 21.6594 10.3291 21.8161C10.2557 21.9695 10.1822 22.125 10.1131 22.2783C10.0426 22.4333 9.98063 22.5919 9.92735 22.7535C9.87119 22.9134 9.80423 23.0711 9.75671 23.2331C9.70919 23.3951 9.67247 23.5592 9.63143 23.7212C9.31823 24.9968 9.30492 26.3276 9.59255 27.6092C9.96683 29.2922 10.838 30.8239 12.0932 32.0059C13.3483 33.1879 14.9296 33.9656 16.632 34.2383C17.103 34.3122 17.5787 34.3519 18.0554 34.3571C18.5004 34.3552 18.9446 34.3183 19.3838 34.2469C20.7991 34.0163 22.135 33.4382 23.2718 32.5643C23.274 32.5619 23.2767 32.56 23.2797 32.5587C23.2827 32.5575 23.2859 32.5568 23.2891 32.5568C23.2923 32.5568 23.2955 32.5575 23.2985 32.5587C23.3015 32.56 23.3042 32.5619 23.3064 32.5643C23.3096 32.5687 23.3113 32.5739 23.3113 32.5794C23.3113 32.5848 23.3096 32.5901 23.3064 32.5945L23.2891 32.5556L25.4232 32.7025L25.9761 32.7414L26.1576 32.7673Z" fill="#263238"/>
<path d="M15.539 25.7341C15.539 25.908 15.4874 26.0779 15.3908 26.2225C15.2942 26.3671 15.1569 26.4798 14.9963 26.5463C14.8357 26.6128 14.6589 26.6302 14.4884 26.5963C14.3178 26.5624 14.1612 26.4787 14.0382 26.3557C13.9153 26.2328 13.8316 26.0761 13.7977 25.9056C13.7637 25.7351 13.7811 25.5583 13.8477 25.3977C13.9142 25.237 14.0269 25.0997 14.1715 25.0031C14.316 24.9065 14.486 24.855 14.6599 24.855C14.8929 24.8556 15.1161 24.9484 15.2809 25.1131C15.4456 25.2778 15.5384 25.5011 15.539 25.7341Z" fill="#263238"/>
<path d="M19.0599 25.7341C19.0599 25.908 19.0083 26.0779 18.9117 26.2225C18.8151 26.3671 18.6778 26.4798 18.5172 26.5463C18.3565 26.6128 18.1798 26.6302 18.0092 26.5963C17.8387 26.5624 17.6821 26.4787 17.5591 26.3557C17.4362 26.2328 17.3524 26.0761 17.3185 25.9056C17.2846 25.7351 17.302 25.5583 17.3686 25.3977C17.4351 25.237 17.5478 25.0997 17.6923 25.0031C17.8369 24.9065 18.0069 24.855 18.1808 24.855C18.4137 24.8556 18.637 24.9484 18.8018 25.1131C18.9665 25.2778 19.0593 25.5011 19.0599 25.7341Z" fill="#263238"/>
<path d="M22.572 25.296C22.6586 25.4466 22.6987 25.6195 22.6872 25.7929C22.6757 25.9662 22.6131 26.1323 22.5072 26.2701C22.4014 26.4079 22.2571 26.5112 22.0926 26.5671C21.9281 26.6229 21.7507 26.6287 21.5828 26.5838C21.415 26.539 21.2642 26.4453 21.1496 26.3148C21.0349 26.1843 20.9615 26.0227 20.9386 25.8505C20.9157 25.6782 20.9443 25.5031 21.0209 25.3471C21.0975 25.1912 21.2186 25.0614 21.3688 24.9742C21.4689 24.9161 21.5795 24.8784 21.6942 24.8631C21.8089 24.8479 21.9254 24.8554 22.0372 24.8853C22.149 24.9152 22.2538 24.9669 22.3455 25.0374C22.4373 25.1079 22.5142 25.1958 22.572 25.296Z" fill="#263238"/>
<path d="M22.9219 64.5836L13.824 63.6418L9.97057 54.896L6.97681 55.6758C6.97681 55.6758 9.18865 64.9184 11.664 66.3505C14.1394 67.7826 22.5958 68.0396 22.5958 68.0396L22.9219 64.5836Z" fill="#FF9140"/>
<path d="M27.7586 69.032C29.2389 67.3664 29.0888 64.8161 27.4231 63.3357C25.7575 61.8553 23.2072 62.0055 21.7268 63.6711C20.2465 65.3368 20.3966 67.8871 22.0623 69.3675C23.7279 70.8478 26.2782 70.6976 27.7586 69.032Z" fill="#263238"/>
<path d="M24.7428 70.3899C23.8078 70.3898 22.9017 70.0657 22.179 69.4725C21.4562 68.8793 20.9615 68.0539 20.7791 67.1369C20.5967 66.2199 20.7379 65.268 21.1786 64.4434C21.6194 63.6188 22.3324 62.9726 23.1962 62.6148C24.0601 62.257 25.0212 62.2097 25.9159 62.4812C26.8107 62.7526 27.5836 63.3258 28.1031 64.1032C28.6225 64.8807 28.8563 65.8141 28.7647 66.7446C28.673 67.6751 28.2616 68.545 27.6004 69.2062C27.226 69.5826 26.7807 69.881 26.2902 70.0842C25.7996 70.2874 25.2737 70.3913 24.7428 70.3899ZM24.7428 62.3201C23.8103 62.3191 22.9063 62.6415 22.1849 63.2323C21.4635 63.8231 20.9692 64.6458 20.7863 65.5602C20.6035 66.4746 20.7433 67.424 21.182 68.2469C21.6207 69.0697 22.3311 69.715 23.1922 70.0727C24.0533 70.4305 25.0118 70.4786 25.9045 70.2089C26.7971 69.9392 27.5686 69.3683 28.0875 68.5936C28.6064 67.8188 28.8406 66.8881 28.7502 65.96C28.6598 65.0319 28.2504 64.1639 27.5918 63.5038C27.2188 63.1279 26.7749 62.8297 26.2858 62.6266C25.7968 62.4234 25.2723 62.3192 24.7428 62.3201Z" fill="#263238"/>
<path d="M13.0085 67.0414C14.6336 66.6513 15.6348 65.0176 15.2446 63.3925C14.8545 61.7673 13.2207 60.7662 11.5956 61.1563C9.9705 61.5465 8.96936 63.1802 9.35952 64.8053C9.74968 66.4305 11.3834 67.4316 13.0085 67.0414Z" fill="#263238"/>
<path d="M10.004 55.6033C10.9699 54.6375 10.9699 53.0715 10.004 52.1057C9.03817 51.1398 7.47223 51.1398 6.50638 52.1057C5.54054 53.0715 5.54054 54.6375 6.50638 55.6033C7.47223 56.5692 9.03817 56.5692 10.004 55.6033Z" fill="#263238"/>
<path d="M12.1101 52.5162L10.0736 54.236L9.33919 53.3663L11.3756 51.6465C11.4829 51.556 11.6217 51.5117 11.7615 51.5235C11.9014 51.5353 12.0308 51.6022 12.1214 51.7094L12.1716 51.7688C12.2167 51.8219 12.251 51.8833 12.2724 51.9497C12.2937 52.016 12.3018 52.0859 12.2961 52.1553C12.2904 52.2248 12.271 52.2924 12.2391 52.3543C12.2071 52.4163 12.1633 52.4713 12.1101 52.5162Z" fill="#263238"/>
<path d="M9.52344 49.3666V51.9586C9.52344 51.9787 9.51547 51.9979 9.5013 52.0121C9.48712 52.0262 9.46789 52.0342 9.44784 52.0342H8.46288C8.44283 52.0342 8.4236 52.0262 8.40942 52.0121C8.39524 51.9979 8.38728 51.9787 8.38728 51.9586V49.3666C8.38728 49.2262 8.44303 49.0916 8.54228 48.9924C8.64152 48.8932 8.77613 48.8374 8.91648 48.8374H8.99424C9.13459 48.8374 9.2692 48.8932 9.36844 48.9924C9.46769 49.0916 9.52344 49.2262 9.52344 49.3666Z" fill="#263238"/>
<path d="M7.68938 49.3763L8.25525 51.9058C8.25963 51.9253 8.25606 51.9458 8.24532 51.9628C8.23458 51.9797 8.21755 51.9917 8.19798 51.9961L7.23678 52.2111C7.21721 52.2155 7.19671 52.2119 7.17978 52.2011C7.16285 52.1904 7.15088 52.1734 7.1465 52.1538L6.58063 49.6243C6.54999 49.4874 6.57501 49.3438 6.6502 49.2253C6.72538 49.1068 6.84457 49.023 6.98153 48.9924L7.05742 48.9754C7.19439 48.9448 7.33791 48.9698 7.45643 49.045C7.57495 49.1201 7.65874 49.2393 7.68938 49.3763Z" fill="#263238"/>
<path d="M5.71626 50.0105L7.01226 52.2553C7.02229 52.2726 7.025 52.2933 7.01981 52.3127C7.01462 52.332 7.00195 52.3485 6.98459 52.3586L6.13159 52.851C6.11422 52.8611 6.09359 52.8638 6.07422 52.8586C6.05485 52.8534 6.03834 52.8407 6.02831 52.8234L4.73231 50.5786C4.66214 50.4571 4.64312 50.3126 4.67945 50.1771C4.71577 50.0415 4.80447 49.9259 4.92602 49.8557L4.99336 49.8168C5.11491 49.7467 5.25936 49.7277 5.39493 49.764C5.5305 49.8003 5.64608 49.889 5.71626 50.0105Z" fill="#263238"/>
<path d="M62.4625 87.2402L65.1857 86.082L57.328 67.6064L54.6048 68.7645L62.4625 87.2402Z" fill="#FF9140"/>
<path d="M57.7184 69.3719C59.1588 67.6717 58.9481 65.1256 57.2479 63.6852C55.5476 62.2448 53.0015 62.4554 51.5611 64.1557C50.1207 65.856 50.3314 68.4021 52.0316 69.8425C53.7319 71.2829 56.278 71.0722 57.7184 69.3719Z" fill="#263238"/>
<path d="M54.6481 70.8133C54.015 70.8136 53.3908 70.6653 52.8256 70.3803C52.2603 70.0953 51.7699 69.6815 51.3938 69.1724C51.0176 68.6632 50.7663 68.0729 50.66 67.4488C50.5537 66.8248 50.5953 66.1845 50.7817 65.5796C51.0026 64.866 51.417 64.2277 51.9789 63.7355C52.5409 63.2434 53.2282 62.9167 53.9647 62.7917C54.7012 62.6668 55.4578 62.7486 56.1506 63.0279C56.8434 63.3072 57.4452 63.7732 57.889 64.374C58.3329 64.9748 58.6014 65.6869 58.6648 66.4312C58.7282 67.1755 58.584 67.9228 58.2482 68.59C57.9124 69.2572 57.3981 69.8183 56.7625 70.2108C56.127 70.6032 55.395 70.8118 54.6481 70.8133ZM54.6481 62.7392C53.9023 62.7399 53.1715 62.9476 52.5367 63.3389C51.902 63.7303 51.3882 64.2901 51.0527 64.9561C50.7171 65.622 50.5729 66.368 50.6361 67.1111C50.6992 67.8541 50.9673 68.565 51.4104 69.1648C51.8535 69.7646 52.4544 70.2297 53.1461 70.5083C53.8378 70.787 54.5932 70.8683 55.3283 70.7432C56.0635 70.6181 56.7495 70.2915 57.3101 69.7997C57.8707 69.308 58.2839 68.6703 58.5037 67.9577C58.8174 66.9366 58.7132 65.8327 58.2139 64.8883C57.7146 63.9439 56.8609 63.2363 55.8404 62.9206C55.4501 62.7997 55.0437 62.7386 54.6351 62.7392H54.6481Z" fill="#263238"/>
<path d="M62.8093 78.8278C63.2568 77.2176 62.3142 75.5494 60.7039 75.1019C59.0936 74.6545 57.4254 75.5971 56.978 77.2074C56.5305 78.8177 57.4731 80.4858 59.0834 80.9333C60.6937 81.3808 62.3618 80.4381 62.8093 78.8278Z" fill="#263238"/>
<path d="M64.4566 89.9098C65.8225 89.9098 66.9298 88.8025 66.9298 87.4366C66.9298 86.0707 65.8225 84.9634 64.4566 84.9634C63.0907 84.9634 61.9834 86.0707 61.9834 87.4366C61.9834 88.8025 63.0907 89.9098 64.4566 89.9098Z" fill="#263238"/>
<path d="M61.2218 89.9275L62.6067 87.6551L63.5787 88.2475L62.1938 90.5199C62.1208 90.6397 62.0031 90.7257 61.8667 90.7588C61.7304 90.7919 61.5864 90.7694 61.4666 90.6964L61.4001 90.6559C61.3405 90.6199 61.2886 90.5725 61.2473 90.5163C61.206 90.4602 61.1763 90.3964 61.1597 90.3287C61.1431 90.2611 61.1401 90.1908 61.1507 90.1219C61.1614 90.0531 61.1856 89.987 61.2218 89.9275Z" fill="#263238"/>
<path d="M64.6699 92.0945L63.8492 89.6358C63.8428 89.6168 63.8443 89.5961 63.8533 89.5781C63.8622 89.5602 63.8779 89.5465 63.897 89.5402L64.8312 89.2283C64.8503 89.222 64.871 89.2234 64.889 89.2324C64.9069 89.2413 64.9205 89.2571 64.9269 89.2761L65.7476 91.7347C65.7688 91.8009 65.7768 91.8706 65.771 91.9399C65.7653 92.0091 65.746 92.0766 65.7141 92.1384C65.6823 92.2002 65.6387 92.2551 65.5856 92.3C65.5326 92.3449 65.4712 92.379 65.405 92.4002L65.3313 92.4248C65.1997 92.4669 65.0569 92.456 64.9334 92.3942C64.8098 92.3325 64.7152 92.2249 64.6699 92.0945Z" fill="#263238"/>
<path d="M66.4084 91.5052L65.0707 89.2851C65.0656 89.2766 65.0622 89.2671 65.0607 89.2573C65.0592 89.2475 65.0597 89.2375 65.0621 89.2279C65.0645 89.2182 65.0687 89.2092 65.0746 89.2012C65.0805 89.1932 65.0879 89.1864 65.0964 89.1813L65.9401 88.673C65.9486 88.6679 65.958 88.6645 65.9679 88.663C65.9777 88.6615 65.9877 88.662 65.9973 88.6644C66.007 88.6667 66.016 88.671 66.024 88.6769C66.032 88.6828 66.0387 88.6902 66.0439 88.6987L67.3816 90.9189C67.454 91.0391 67.4757 91.1831 67.4419 91.3194C67.4081 91.4556 67.3216 91.5728 67.2014 91.6453L67.1348 91.6854C67.0146 91.7578 66.8705 91.7795 66.7343 91.7457C66.5981 91.712 66.4808 91.6254 66.4084 91.5052Z" fill="#263238"/>
<path d="M68.0783 90.2814L66.1382 88.5625C66.1232 88.5492 66.114 88.5305 66.1128 88.5105C66.1116 88.4905 66.1184 88.4708 66.1317 88.4558L66.7834 87.7202C66.7967 87.7052 66.8155 87.6961 66.8355 87.6949C66.8555 87.6936 66.8752 87.7004 66.8902 87.7137L68.8303 89.4326C68.9353 89.5257 68.9991 89.6567 69.0076 89.7968C69.016 89.9369 68.9685 90.0746 68.8754 90.1796L68.8239 90.2378C68.7306 90.3422 68.5998 90.4054 68.4601 90.4136C68.3203 90.4217 68.183 90.3742 68.0783 90.2814Z" fill="#263238"/>
<path d="M23.5441 62.1517C23.5441 62.1517 23.8357 90.4779 39.7311 91.0309C55.6265 91.5838 56.294 62.3547 56.294 62.1517C56.294 62.1517 54.4169 57.9289 39.919 58.093C25.4211 58.2572 23.5441 62.1517 23.5441 62.1517Z" fill="#FF9140"/>
<path d="M32.4691 57.1665H45.9043C46.7812 57.1665 47.4919 56.4557 47.4919 55.5789V55.3478C47.4919 54.471 46.7812 53.7602 45.9043 53.7602H32.4691C31.5923 53.7602 30.8815 54.471 30.8815 55.3478V55.5789C30.8815 56.4557 31.5923 57.1665 32.4691 57.1665Z" fill="#263238"/>
<path d="M38.6079 31.9785H39.7678V26.1141H38.6079V31.9785Z" fill="#263238"/>
<path d="M56.9234 49.4373C58.7549 49.002 59.8867 47.1644 59.4514 45.333C59.0161 43.5016 57.1785 42.3698 55.3471 42.8051C53.5157 43.2404 52.3839 45.0779 52.8192 46.9094C53.2545 48.7408 55.092 49.8726 56.9234 49.4373Z" fill="#FF9140"/>
<path d="M22.4826 49.2159C24.3185 48.7995 25.4691 46.9737 25.0527 45.1379C24.6363 43.302 22.8105 42.1514 20.9747 42.5678C19.1389 42.9842 17.9882 44.81 18.4046 46.6458C18.821 48.4816 20.6468 49.6323 22.4826 49.2159Z" fill="#FF9140"/>
<path d="M38.5128 30.7062C38.5128 30.7062 24.6542 30.5399 22.464 42.5517C20.2738 54.5634 31.9896 54.7794 35.3614 55.0062C36.8885 55.1099 40.1587 55.1207 43.0445 55.0689C49.4338 54.9587 53.9482 53.7232 55.4839 47.7962C55.6668 47.1012 55.7818 46.3901 55.8274 45.6729C56.2313 39.167 51.84 30.3866 38.5128 30.7062Z" fill="#FF9140"/>
<path d="M48.5655 48.9885L28.4321 49.3017C27.9298 49.3106 27.4306 49.2203 26.9632 49.036C26.4958 48.8518 26.0693 48.5771 25.7082 48.2278C25.3471 47.8785 25.0584 47.4614 24.8586 47.0004C24.6589 46.5394 24.552 46.0435 24.5441 45.5412C24.5356 45.0387 24.6261 44.5395 24.8106 44.0721C24.9951 43.6047 25.27 43.1782 25.6195 42.8171C25.9689 42.456 26.3862 42.1674 26.8473 41.9676C27.3084 41.7679 27.8044 41.6611 28.3069 41.6532L48.4402 41.34C48.9426 41.3308 49.4419 41.4209 49.9095 41.6051C50.377 41.7893 50.8036 42.0639 51.1648 42.4133C51.526 42.7626 51.8147 43.1798 52.0143 43.641C52.2139 44.1021 52.3206 44.5981 52.3282 45.1005C52.3371 45.6031 52.2467 46.1024 52.0623 46.57C51.8779 47.0375 51.6031 47.4641 51.2535 47.8252C50.904 48.1864 50.4867 48.475 50.0254 48.6747C49.5641 48.8743 49.068 48.981 48.5655 48.9885Z" fill="#263238"/>
<path d="M32.616 45.1243C32.5692 45.3624 32.4528 45.5812 32.2816 45.7531C32.1104 45.9251 31.8921 46.0424 31.6543 46.0903C31.4164 46.1382 31.1697 46.1144 30.9453 46.0221C30.721 45.9298 30.529 45.773 30.3937 45.5716C30.2584 45.3702 30.1859 45.1332 30.1853 44.8906C30.1847 44.6479 30.2561 44.4106 30.3903 44.2085C30.5246 44.0064 30.7158 43.8487 30.9397 43.7553C31.1636 43.6618 31.4102 43.6369 31.6483 43.6836C31.8065 43.7146 31.957 43.7765 32.0912 43.8657C32.2254 43.9549 32.3408 44.0697 32.4307 44.2035C32.5205 44.3372 32.5831 44.4874 32.6149 44.6454C32.6467 44.8034 32.6471 44.9662 32.616 45.1243Z" fill="white"/>
<path d="M46.6755 44.8996C46.6291 45.1378 46.513 45.3569 46.342 45.5292C46.171 45.7015 45.9527 45.8191 45.7148 45.8673C45.4769 45.9155 45.2301 45.892 45.0055 45.7999C44.7809 45.7077 44.5888 45.5511 44.4533 45.3496C44.3178 45.1482 44.2451 44.9112 44.2444 44.6684C44.2437 44.4257 44.315 44.1882 44.4493 43.986C44.5836 43.7838 44.7749 43.626 44.9989 43.5326C45.2229 43.4391 45.4696 43.4142 45.7078 43.461C46.0268 43.5237 46.3078 43.7104 46.4893 43.9801C46.6707 44.2498 46.7377 44.5805 46.6755 44.8996Z" fill="white"/>
<path d="M44.6515 73.4008C44.5726 74.4818 44.1749 75.515 43.5088 76.3699C42.8427 77.2248 41.9381 77.863 40.9092 78.2038C39.8804 78.5446 38.7737 78.5727 37.7289 78.2845C36.6841 77.9963 35.7483 77.4048 35.0397 76.5848C34.3311 75.7647 33.8816 74.7529 33.748 73.6774C33.6144 72.6019 33.8027 71.5109 34.2891 70.5424C34.7755 69.5739 35.5382 68.7714 36.4807 68.2364C37.4232 67.7013 38.5032 67.4577 39.5841 67.5364C41.0336 67.6426 42.3816 68.3199 43.3318 69.4196C44.2821 70.5193 44.7567 71.9513 44.6515 73.4008Z" fill="#263238"/>
<path d="M43.1676 73.2931C43.1099 74.0809 42.82 74.834 42.3343 75.457C41.8487 76.08 41.1893 76.545 40.4393 76.7932C39.6894 77.0414 38.8828 77.0617 38.1213 76.8514C37.3599 76.6412 36.6779 76.2098 36.1617 75.612C35.6454 75.0141 35.318 74.2766 35.2209 73.4927C35.1237 72.7088 35.2613 71.9136 35.616 71.2079C35.9708 70.5021 36.5269 69.9174 37.214 69.5277C37.9011 69.138 38.6883 68.9608 39.4761 69.0185C39.9993 69.0565 40.5098 69.1973 40.9785 69.4328C41.4473 69.6682 41.865 69.9937 42.2078 70.3907C42.5506 70.7877 42.8119 71.2484 42.9765 71.7464C43.1412 72.2444 43.2062 72.77 43.1676 73.2931Z" fill="white"/>
<path d="M41.2431 74.0185C41.2126 73.8003 41.2003 73.5799 41.2064 73.3597C41.1956 72.9471 41.1869 72.3574 41.1869 71.6317L41.2301 71.7116L39.176 70.5128H39.2904L37.2168 71.677C37.1607 71.7721 37.2924 71.5496 37.2795 71.5734V71.8801V72.189C37.2795 72.392 37.2795 72.595 37.2687 72.7938C37.2687 73.1912 37.2536 73.5757 37.2471 73.9472L37.1909 73.8478L39.2213 75.0877H39.1306C39.7635 74.7464 40.2862 74.4742 40.6426 74.2885C40.8344 74.1793 41.0344 74.0854 41.2409 74.0077C41.0798 74.1389 40.9062 74.254 40.7225 74.3511C40.3726 74.5671 39.8585 74.8717 39.2105 75.2454L39.1652 75.2713L39.1198 75.2454L37.0635 74.0466L37.0073 74.0142V73.945C37.0073 73.5735 37.0116 73.189 37.0203 72.7916C37.0203 72.5929 37.0203 72.392 37.0203 72.1868V71.8801V71.582C37.0073 71.6058 37.1391 71.3854 37.0829 71.4783L39.163 70.3249L39.2235 70.2925L39.2796 70.327L41.3079 71.5669L41.3532 71.595V71.6468C41.3295 72.3942 41.3057 72.9946 41.2841 73.4029C41.2896 73.6089 41.2759 73.815 41.2431 74.0185Z" fill="#FF9140"/>
<path d="M40.5407 27.3473C41.2872 26.6008 41.2872 25.3904 40.5407 24.6439C39.7942 23.8974 38.5838 23.8974 37.8373 24.6439C37.0908 25.3904 37.0908 26.6008 37.8373 27.3473C38.5838 28.0938 39.7942 28.0938 40.5407 27.3473Z" fill="#FF9140"/>
<path d="M36.1347 44.5584C36.2254 44.5692 36.1801 44.9904 36.4479 45.5671C36.5997 45.8981 36.8206 46.1928 37.0959 46.4311C37.4186 46.715 37.8203 46.8936 38.2472 46.943C38.6764 46.9707 39.104 46.8684 39.4741 46.6493C39.7873 46.4671 40.0582 46.2205 40.2689 45.9257C40.6361 45.4138 40.6686 44.9839 40.7593 44.9904C40.796 44.9904 40.8327 45.0984 40.8327 45.3014C40.8245 45.5907 40.7506 45.8743 40.6167 46.1309C40.4155 46.5186 40.118 46.8481 39.7527 47.0878C39.3012 47.4059 38.7511 47.5531 38.2011 47.5028C37.651 47.4525 37.1367 47.2082 36.7503 46.8134C36.4349 46.5118 36.2028 46.1339 36.0764 45.7162C35.9863 45.4375 35.9627 45.1416 36.0073 44.8522C36.044 44.6513 36.1001 44.5519 36.1347 44.5584Z" fill="white"/>
<path d="M54.5875 50.1551C54.5659 50.1551 54.8143 49.7663 55.0541 49.0859C55.3522 48.1948 55.5408 47.2707 55.6157 46.334C55.7022 45.4007 55.7238 44.4624 55.6805 43.526C55.6653 43.1653 55.6481 42.878 55.6308 42.662C55.6162 42.5576 55.6126 42.4519 55.62 42.3467C55.6476 42.4484 55.6657 42.5526 55.674 42.6577C55.7042 42.8586 55.7345 43.1502 55.7604 43.5217C55.8281 44.4656 55.8173 45.4135 55.728 46.3556C55.652 47.3011 55.4508 48.2323 55.1297 49.1248C55.028 49.3939 54.9052 49.6547 54.7625 49.9045C54.7114 49.9929 54.6529 50.0767 54.5875 50.1551Z" fill="#263238"/>
<path d="M22.4899 42.1499C22.4777 42.2548 22.4553 42.3582 22.4229 42.4588C22.3949 42.556 22.3646 42.6748 22.3365 42.8173C22.3085 42.9599 22.2653 43.1154 22.2393 43.2947C22.1636 43.711 22.1131 44.1316 22.0881 44.554C22.0591 45.0708 22.0663 45.589 22.1097 46.1049C22.158 46.6198 22.2417 47.1307 22.3603 47.6341C22.4595 48.0459 22.5835 48.4513 22.7318 48.8481C22.7901 49.0187 22.8571 49.1677 22.9111 49.3017C22.9651 49.4356 23.0169 49.5479 23.0601 49.6386C23.1094 49.7319 23.1499 49.8295 23.1811 49.9302C23.1196 49.8446 23.0661 49.7535 23.0213 49.6581C22.9602 49.5501 22.9047 49.4391 22.8549 49.3254C22.7945 49.1958 22.721 49.0468 22.6584 48.8761C22.498 48.4804 22.3652 48.0741 22.2609 47.6601C22.1345 47.1519 22.0465 46.6349 21.9974 46.1135C21.9534 45.5926 21.9491 45.0691 21.9845 44.5475C22.0146 44.1213 22.0738 43.6977 22.1616 43.2796C22.194 43.1003 22.2393 42.9426 22.2761 42.8022C22.3128 42.6618 22.3473 42.543 22.3797 42.4458C22.4084 42.3444 22.4452 42.2454 22.4899 42.1499Z" fill="#263238"/>
<path d="M23.4706 62.1279L23.5527 62.1517L23.7946 62.2338L24.7147 62.5578L25.38 62.7954C25.6241 62.8774 25.8941 62.9552 26.1814 63.0438C26.7581 63.2144 27.4083 63.4369 28.147 63.6097L29.2983 63.9056C29.7 64.0071 30.1234 64.0827 30.5597 64.1778C31.4237 64.3765 32.3719 64.5126 33.3677 64.6724C35.5211 64.9678 37.6914 65.123 39.865 65.1368C42.0386 65.124 44.209 64.9689 46.3623 64.6724C47.3515 64.5126 48.2933 64.3786 49.1703 64.1778C49.6023 64.0849 50.0343 64.0093 50.4317 63.9078L51.5851 63.6118C52.3217 63.439 52.9719 63.2166 53.5486 63.0459C53.8359 62.9574 54.1059 62.8796 54.3499 62.7975L55.0152 62.5599L55.9354 62.2359L56.1773 62.1538C56.2045 62.1431 56.2327 62.1351 56.2615 62.1301L56.1816 62.1646L55.944 62.2575L55.0303 62.601L54.3499 62.8558C54.108 62.9401 53.838 63.02 53.5507 63.1129C52.974 63.29 52.326 63.5168 51.5873 63.6961L50.4339 63.9985C50.0343 64.1022 49.6087 64.1799 49.1724 64.2771C48.3084 64.4802 47.358 64.6184 46.3644 64.7826C44.2066 65.0853 42.0309 65.2434 39.852 65.2556C37.6738 65.2418 35.4989 65.083 33.3418 64.7804C32.3503 64.6184 31.3978 64.478 30.5338 64.275C30.1018 64.1778 29.6698 64.1 29.2723 63.9963L28.1189 63.6939C27.3802 63.5146 26.7322 63.2878 26.1555 63.1107C25.8682 63.0178 25.6003 62.9379 25.3563 62.8537L24.6931 62.6053L23.7795 62.2618L23.5419 62.169C23.5168 62.1576 23.493 62.1438 23.4706 62.1279Z" fill="#263238"/>
<g opacity="0.3">
<path d="M23.5441 62.1516C23.5441 62.1516 25.4211 58.2636 39.919 58.0929C54.4169 57.9223 56.294 62.1516 56.294 62.1516C56.294 62.1516 41.6621 69.3638 23.5441 62.1516Z" fill="black"/>
</g>
<path d="M36.7568 31.6048C36.7403 31.6064 36.7236 31.6064 36.7071 31.6048L36.5624 31.62C36.4328 31.6329 36.2427 31.6372 35.9986 31.6653C35.3099 31.7322 34.6265 31.8454 33.9531 32.0044C30.47 32.8021 27.3978 34.8436 25.3131 37.7457C24.3059 39.1403 23.5434 40.6961 23.0581 42.3465C22.9825 42.5798 22.9414 42.7656 22.9047 42.8887L22.8637 43.0312C22.8598 43.0477 22.854 43.0636 22.8464 43.0788C22.8435 43.0623 22.8435 43.0455 22.8464 43.0291C22.8464 42.9902 22.8637 42.9427 22.8766 42.8844C22.9069 42.7591 22.9393 42.5712 23.0084 42.3336C23.1887 41.6625 23.4197 41.0061 23.6996 40.3701C24.6229 38.2565 26.0284 36.3886 27.8036 34.9161C29.5863 33.4547 31.6864 32.4309 33.9358 31.9267C34.6132 31.7728 35.3014 31.6709 35.9943 31.6221C36.2405 31.6005 36.4263 31.6027 36.5602 31.5962H36.7071C36.7417 31.6005 36.7568 31.6027 36.7568 31.6048Z" fill="white"/>
<path d="M23.1984 48.2327C23.1118 48.0989 23.0449 47.9535 22.9996 47.8007C22.7434 47.0789 22.624 46.3156 22.6476 45.55C22.6414 45.391 22.6604 45.2321 22.7037 45.0791C22.7383 45.0791 22.6908 45.8005 22.829 46.6732C22.9672 47.5458 23.2308 48.2197 23.1984 48.2327Z" fill="white"/>
<path d="M19.5631 47.1157C19.5631 47.1157 19.5135 47.0812 19.4465 46.9991C19.351 46.8828 19.2692 46.7559 19.2024 46.6211C18.9718 46.1746 18.8835 45.6681 18.9495 45.1699C19.0156 44.6717 19.2328 44.2057 19.5718 43.8347C19.6711 43.721 19.7835 43.6195 19.9066 43.5323C19.9489 43.4967 19.9971 43.4689 20.0491 43.4502C20.0621 43.4675 19.8677 43.5992 19.6323 43.8822C19.3233 44.2523 19.1255 44.7024 19.0621 45.1803C18.9986 45.6582 19.072 46.1443 19.2737 46.5822C19.4249 46.9256 19.5783 47.1028 19.5631 47.1157Z" fill="white"/>
<path d="M39.312 24.6629C39.1435 24.6443 38.9736 24.6407 38.8044 24.6521C38.603 24.6698 38.4082 24.7334 38.2352 24.838C38.0621 24.9426 37.9153 25.0855 37.806 25.2556C37.6967 25.4258 37.6279 25.6187 37.6048 25.8197C37.5816 26.0206 37.6048 26.2241 37.6726 26.4146C37.7309 26.5727 37.8032 26.7252 37.8886 26.8704C37.8886 26.8704 37.8454 26.8445 37.7849 26.7754C37.7019 26.6754 37.6362 26.5622 37.5905 26.4406C37.5081 26.2389 37.4755 26.0203 37.4954 25.8033C37.5154 25.5863 37.5873 25.3774 37.7051 25.1941C37.823 25.0108 37.9832 24.8586 38.1723 24.7503C38.3614 24.6421 38.5738 24.581 38.7915 24.5722C38.9208 24.5632 39.0507 24.5756 39.1759 24.6089C39.2731 24.624 39.312 24.6564 39.312 24.6629Z" fill="white"/>
<path d="M58.1386 44.4956C58.1148 44.5215 57.78 44.1997 57.2746 43.9578C56.7691 43.7158 56.3091 43.6446 56.3134 43.61C56.6655 43.6012 57.0136 43.6862 57.3221 43.8562C57.6468 43.992 57.9289 44.2129 58.1386 44.4956Z" fill="white"/>
<path d="M28.512 82.3112C28.5022 82.2983 28.4935 82.2846 28.4861 82.2701L28.4148 82.1427C28.35 82.0196 28.2636 81.8554 28.1513 81.6459C28.0951 81.5379 28.0346 81.4169 27.9655 81.2873L27.7625 80.8553C27.6156 80.5421 27.4514 80.1857 27.2894 79.7753C27.2074 79.5744 27.121 79.3628 27.0302 79.1446C26.9395 78.9264 26.8618 78.6888 26.7732 78.4491C26.5874 77.9717 26.4298 77.4468 26.2462 76.9025C25.907 75.8009 25.5744 74.5805 25.2828 73.2845C24.9912 71.9885 24.7795 70.7379 24.6067 69.5996C24.4339 68.4612 24.3216 67.4396 24.2525 66.5626C24.2114 66.1306 24.1855 65.7375 24.1639 65.3919C24.1423 65.0463 24.1229 64.7439 24.1164 64.5063C24.1099 64.2687 24.1034 64.0851 24.097 63.9468V63.8021C24.0946 63.7856 24.0946 63.7689 24.097 63.7524C24.0995 63.7689 24.0995 63.7857 24.097 63.8021L24.1099 63.9468C24.1099 64.0829 24.1337 64.2708 24.1488 64.5041C24.1639 64.7374 24.1855 65.0441 24.2158 65.3876C24.246 65.731 24.2741 66.1241 24.3216 66.5561C24.3994 67.4201 24.5376 68.4483 24.6996 69.5801C24.8616 70.712 25.097 71.9561 25.3822 73.2521C25.6673 74.5481 26.0021 75.7664 26.3326 76.8658C26.5162 77.4101 26.6695 77.9328 26.851 78.4102C26.9374 78.6521 27.0194 78.8832 27.1015 79.1057L27.3521 79.7408C27.5076 80.1447 27.6674 80.5032 27.81 80.8208L28.0044 81.2528C28.067 81.3845 28.1275 81.5055 28.1815 81.6156L28.4234 82.1211L28.4839 82.2528C28.497 82.2703 28.5066 82.2901 28.512 82.3112Z" fill="white"/>
<path d="M20.0599 64.7004C19.5329 64.7203 19.0052 64.7016 18.481 64.6442C17.9543 64.6258 17.4295 64.5702 16.9106 64.4779C17.4376 64.458 17.9654 64.4767 18.4896 64.5341C19.0163 64.5524 19.5411 64.6079 20.0599 64.7004Z" fill="white"/>
<path d="M11.934 60.0888C11.6277 59.6426 11.3527 59.1756 11.1111 58.6913C10.8372 58.2247 10.5962 57.7397 10.3896 57.2397C10.6951 57.6869 10.9693 58.1546 11.2104 58.6394C11.4857 59.1048 11.7275 59.5891 11.934 60.0888Z" fill="white"/>
<path d="M36.18 89.1212C36.095 89.1197 36.0103 89.1095 35.9273 89.091C35.6988 89.0503 35.473 88.9955 35.2512 88.9268C34.9218 88.8265 34.5999 88.7031 34.2879 88.5575C33.9078 88.3742 33.5424 88.1619 33.1949 87.9224C32.8514 87.677 32.5278 87.4047 32.2272 87.1081C31.9838 86.8642 31.7586 86.6029 31.5533 86.3262C31.4127 86.1415 31.2849 85.9474 31.171 85.7451C31.1244 85.6741 31.086 85.598 31.0565 85.5183C31.0738 85.5075 31.2552 85.8207 31.616 86.2787C31.828 86.5449 32.0567 86.7974 32.3007 87.0347C32.8986 87.6155 33.5846 88.0981 34.3332 88.4646C34.6391 88.6123 34.9536 88.7414 35.275 88.8512C35.828 89.037 36.1844 89.0996 36.18 89.1212Z" fill="white"/>
<path d="M39.4935 79.1293C39.4435 79.1379 39.393 79.143 39.3423 79.1444C39.1986 79.1565 39.0544 79.1609 38.9103 79.1573C38.3732 79.1455 37.8403 79.059 37.327 78.9003C36.9723 78.7898 36.6271 78.6511 36.2945 78.4856C35.9132 78.2895 35.5516 78.0573 35.2145 77.7922C34.4338 77.1924 33.8183 76.4039 33.4261 75.5009C33.0339 74.5978 32.8778 73.6098 32.9724 72.6298C33.0077 72.2045 33.0836 71.7835 33.1992 71.3727C33.3028 71.0164 33.4364 70.6695 33.5988 70.3359C33.8331 69.852 34.1341 69.4034 34.4931 69.0032C34.5893 68.8938 34.6918 68.7899 34.7998 68.6921C34.8356 68.6563 34.8738 68.6231 34.9143 68.5928C34.9143 68.5928 34.7717 68.7461 34.5255 69.0248C34.1798 69.4312 33.8893 69.8815 33.6615 70.364C33.3218 71.0749 33.1195 71.8437 33.0653 72.6298C32.9778 73.5924 33.1337 74.5616 33.5186 75.4482C33.9036 76.3349 34.5054 77.1104 35.2685 77.7037C35.5956 77.9669 35.9472 78.1984 36.3183 78.3949C36.6435 78.5664 36.9824 78.7109 37.3313 78.8269C37.837 78.9908 38.3621 79.0874 38.893 79.1141C39.284 79.1293 39.4935 79.1163 39.4935 79.1293Z" fill="white"/>
<path d="M13.3424 62.1192C13.3424 62.1365 13.1761 62.0566 12.9104 61.994C12.5549 61.9161 12.1864 61.9198 11.8325 62.0047C11.4786 62.0897 11.1485 62.2536 10.867 62.4843C10.651 62.6636 10.5473 62.8061 10.5322 62.7953C10.5915 62.6524 10.6832 62.5252 10.8001 62.4238C11.0804 62.1666 11.4218 61.9851 11.7918 61.8967C12.1618 61.8082 12.5483 61.8157 12.9147 61.9184C13.0708 61.9515 13.2172 62.0203 13.3424 62.1192Z" fill="white"/>
<path d="M45.2391 40.6426C45.2391 40.6728 42.5866 40.6987 39.3164 40.6987C36.0461 40.6987 33.3915 40.6728 33.3915 40.6426C33.3915 40.6123 36.044 40.5864 39.3164 40.5864C42.5888 40.5864 45.2391 40.608 45.2391 40.6426Z" fill="white"/>
<path d="M35.1303 54.1488C35.0979 54.158 35.0645 54.163 35.0309 54.1639L34.7415 54.1899C34.6162 54.2007 34.4628 54.2093 34.2835 54.2136C34.1043 54.2179 33.9012 54.2266 33.6766 54.2136C33.2251 54.2136 32.6895 54.1812 32.0955 54.1186C31.4527 54.0438 30.8145 53.9335 30.1839 53.7881C29.5547 53.6372 28.9346 53.4512 28.3263 53.2308C27.8307 53.0493 27.3447 52.8424 26.8704 52.6109C26.6544 52.5159 26.4881 52.4165 26.3304 52.3323C26.1727 52.248 26.0388 52.1724 25.9308 52.1163L25.6824 51.9651C25.653 51.9487 25.6254 51.9292 25.6003 51.9067C25.6003 51.9067 25.6349 51.9067 25.6932 51.9456L25.9524 52.0774C26.0626 52.1379 26.1987 52.2091 26.3585 52.2934C26.5183 52.3776 26.6998 52.464 26.905 52.5547C27.3111 52.7448 27.8057 52.9479 28.363 53.1487C29.5742 53.583 30.8307 53.8786 32.1084 54.03C32.6959 54.0991 33.2295 54.138 33.6766 54.1488C33.8926 54.1618 34.1086 54.1488 34.2835 54.1488C34.4585 54.1488 34.614 54.1488 34.7393 54.1488H35.0287C35.0624 54.1432 35.0967 54.1432 35.1303 54.1488Z" fill="white"/>
<path d="M52.3736 63.8818C52.3576 63.8924 52.3401 63.9004 52.3217 63.9056L52.1662 63.9639L51.5657 64.1799C51.3044 64.275 50.9847 64.3851 50.6067 64.4953C50.2287 64.6054 49.8032 64.748 49.3215 64.869L48.5698 65.0677C48.3085 65.1346 48.032 65.1908 47.749 65.2578C47.1831 65.3938 46.5697 65.5018 45.926 65.625C43.1223 66.1133 40.273 66.2879 37.4307 66.1455C36.7827 66.1045 36.1541 66.0721 35.5753 66.0051C35.2858 65.9749 35.005 65.9533 34.7372 65.9166L33.9661 65.8107C33.4736 65.7524 33.0329 65.6638 32.6463 65.5947C32.2597 65.5256 31.9249 65.4608 31.6549 65.3982L31.0328 65.2599L30.8708 65.221C30.852 65.2179 30.8338 65.2121 30.8168 65.2038C30.8362 65.2021 30.8557 65.2021 30.8751 65.2038L31.0371 65.2318L31.6635 65.3506C31.9357 65.4046 32.2683 65.4673 32.6571 65.5256C33.0459 65.5839 33.4844 65.6682 33.9769 65.7222L34.7458 65.8194C35.0137 65.8539 35.2945 65.8734 35.5839 65.9014C36.1606 65.9641 36.7827 65.9922 37.435 66.031C38.7418 66.085 40.1782 66.0872 41.6859 65.9986C43.1936 65.9101 44.617 65.7222 45.9065 65.5105C46.5545 65.3917 47.1637 65.2945 47.7296 65.1562C48.0125 65.0914 48.289 65.0374 48.5504 64.9726L49.3021 64.7804C49.7837 64.6659 50.2093 64.532 50.5873 64.424C50.9653 64.316 51.2893 64.208 51.5506 64.1281L52.1576 63.9337L52.3174 63.8862L52.3736 63.8818Z" fill="white"/>
</svg>
