<svg width="108" height="81" viewBox="0 0 108 81" fill="none" xmlns="http://www.w3.org/2000/svg">
<path d="M96.2821 21.0866C102.149 33.4286 99.4638 46.7886 91.3011 57.9546C83.1385 69.1206 69.5543 76.3546 55.2724 78.9806C45.0772 80.8606 34.1044 80.4766 24.7948 76.2066C15.4852 71.9366 8.15411 63.3406 7.59251 53.7286C7.37651 50.0986 8.21459 46.2446 10.8325 43.5286C15.01 39.1986 22.1423 39.0466 28.4084 39.2266C34.6746 39.4066 41.8004 39.2686 45.9995 34.9586C49.2265 31.6446 49.7017 26.8406 51.3995 22.6666C54.2896 15.5746 61.262 10.0346 69.2821 8.46663C77.1143 6.93463 85.6981 9.24263 91.4415 14.3946C91.6878 14.6146 91.9448 14.8246 92.204 15.0326C92.8823 15.5846 95.1654 18.7406 96.2821 21.0866Z" fill="#E3FFF4"/>
<path d="M51.6658 39.6746C52.4665 39.624 53.1605 39.824 53.8258 40.1133C54.1325 40.2509 54.4672 40.3268 54.8079 40.336L55.6849 40.3186L55.6964 31.2906C55.6958 31.0872 55.652 30.8859 55.5673 30.6982C55.4827 30.5105 55.3589 30.3401 55.2031 30.1967C55.0473 30.0533 54.8626 29.9398 54.6593 29.8626C54.4561 29.7853 54.2384 29.7459 54.0188 29.7466L44.7495 29.7786V29.6C44.7539 29.2374 44.8469 28.8805 45.0217 28.556C45.4945 27.6568 45.6487 26.6424 45.4623 25.6573C45.2327 24.4729 44.5334 23.4107 43.5017 22.6791C42.4699 21.9474 41.1802 21.5991 39.8854 21.7024C38.5906 21.8057 37.3842 22.3533 36.5029 23.2377C35.6216 24.122 35.129 25.2793 35.1217 26.4826C35.1239 27.1436 35.276 27.7968 35.5681 28.4C35.7177 28.7036 35.7967 29.0329 35.7999 29.3666L35.8546 29.7733H24.6845C24.465 29.7726 24.2474 29.8119 24.0443 29.8891C23.8412 29.9662 23.6565 30.0797 23.5007 30.2229C23.3449 30.3662 23.2211 30.5364 23.1364 30.724C23.0517 30.9115 23.0077 31.1127 23.0069 31.316V40.144H22.2106C21.8404 40.1406 21.4759 40.059 21.145 39.9053C20.2043 39.4905 19.1478 39.3559 18.121 39.52C16.9122 39.7228 15.8287 40.3361 15.0825 41.2398C14.3363 42.1435 13.9813 43.2725 14.0869 44.4058C14.1924 45.5391 14.751 46.5951 15.6532 47.3672C16.5554 48.1392 17.7364 48.5717 18.9649 48.58C19.6441 48.5801 20.3158 48.4479 20.9362 48.192C21.2467 48.0615 21.5831 47.9924 21.9241 47.9893H22.9465L22.9666 58.7893C22.9672 58.9549 23.003 59.1189 23.072 59.2717C23.1409 59.4245 23.2418 59.5633 23.3687 59.68C23.4956 59.7968 23.646 59.8893 23.8115 59.9522C23.977 60.0151 24.1543 60.0472 24.3332 60.0466H54.2348C54.9893 60.0466 55.5812 59.1693 55.5812 58.4746V48.6666H54.3716C54.0917 48.6669 53.8144 48.7171 53.5551 48.8146C52.8557 49.0751 52.097 49.1698 51.3481 49.0899C50.5991 49.01 49.8836 48.7581 49.2664 48.3572C48.6493 47.9562 48.1501 47.4189 47.8142 46.7939C47.4783 46.169 47.3163 45.4763 47.3429 44.7786C47.4337 42.6786 49.3921 39.8213 51.6658 39.6746Z" fill="#E0E0E0"/>
<path d="M51.6658 39.6749L51.5865 39.6842C51.5077 39.6914 51.4294 39.7026 51.3518 39.7175C51.046 39.7737 50.7506 39.8708 50.4749 40.0055C49.7448 40.3509 48.7886 41.1375 48.0672 42.4522C47.6552 43.18 47.4138 43.9801 47.3587 44.8002C47.3454 45.2702 47.415 45.739 47.5646 46.1882C47.7288 46.675 47.989 47.1293 48.3322 47.5282C48.7147 47.9726 49.1915 48.3396 49.7331 48.6068C50.2747 48.8739 50.8698 49.0355 51.4814 49.0815C52.1531 49.1389 52.83 49.0527 53.46 48.8295C53.7864 48.6976 54.1409 48.6356 54.4968 48.6482H55.6042V48.6669C55.6042 50.2189 55.6042 51.8669 55.6042 53.6095C55.6042 54.4798 55.6042 55.3731 55.6042 56.2895V58.3855C55.6077 58.506 55.599 58.6266 55.5782 58.7455C55.5549 58.8644 55.5192 58.981 55.4717 59.0935C55.379 59.323 55.2374 59.533 55.0555 59.7109C54.8738 59.8981 54.6302 60.0242 54.3629 60.0695C54.2189 60.0829 54.095 60.0775 53.9611 60.0789H42.4872H27.2333H25.2173C24.8789 60.0789 24.5448 60.0855 24.1978 60.0722C23.8445 60.0387 23.518 59.8825 23.2839 59.6352C23.0499 59.3878 22.9257 59.0676 22.9363 58.7389C22.9363 58.4215 22.9363 58.1029 22.9363 57.7842C22.9363 57.146 22.9363 56.5042 22.9363 55.8589C22.9363 53.2811 22.931 50.6567 22.9205 47.9855L22.9579 48.0202H22.32C22.1077 48.0146 21.8953 48.0191 21.6835 48.0335C21.4725 48.0567 21.2658 48.1056 21.0686 48.1789C20.8702 48.2608 20.6674 48.3334 20.461 48.3962C19.606 48.648 18.6928 48.6775 17.821 48.4814C16.9492 48.2853 16.1523 47.8712 15.5174 47.2842C15.1936 46.9888 14.9151 46.6536 14.6894 46.2882C14.579 46.1041 14.4828 45.9129 14.4014 45.7162C14.3611 45.6175 14.3136 45.5215 14.2819 45.4202L14.1912 45.1135C13.9204 44.1077 14.0248 43.0465 14.4875 42.1025C14.9503 41.1585 15.744 40.3871 16.74 39.9135C17.2261 39.6872 17.7491 39.5363 18.288 39.4669C18.828 39.3983 19.3763 39.41 19.9123 39.5015C20.1781 39.5479 20.4395 39.6134 20.6942 39.6975C20.8224 39.7402 20.9477 39.7869 21.0701 39.8402C21.1891 39.8947 21.3112 39.9433 21.4358 39.9855C21.9326 40.1669 22.4755 40.1015 23.0054 40.1189L22.968 40.1535C22.968 38.2442 22.968 36.3593 22.968 34.4989V31.7335C22.958 31.5029 22.9681 31.272 22.9982 31.0429C23.0429 30.8128 23.1439 30.5952 23.2934 30.4069C23.4404 30.219 23.6302 30.0634 23.8495 29.9512C24.0688 29.8389 24.3121 29.7728 24.5621 29.7575H35.8517L35.8186 29.7922C35.7998 29.6589 35.7811 29.5255 35.7638 29.3922C35.762 29.144 35.7167 28.8977 35.6299 28.6629C35.5882 28.5455 35.532 28.4349 35.4859 28.3175C35.4398 28.2002 35.388 28.0842 35.3419 27.9655C35.1772 27.4916 35.0932 26.9968 35.0928 26.4989L35.1144 26.1309C35.1144 26.0695 35.1144 26.0069 35.1288 25.9469L35.1605 25.7642C35.1849 25.6442 35.1965 25.5215 35.231 25.4042L35.3376 25.0509C35.3531 24.9919 35.3743 24.9343 35.4009 24.8789L35.4729 24.7095C35.5167 24.5952 35.5702 24.4842 35.6328 24.3775L35.8142 24.0562L36.0288 23.7335C36.3222 23.3408 36.6786 22.9919 37.0858 22.6989L37.2298 22.5869L37.3896 22.4895C37.4976 22.4255 37.6013 22.3562 37.7107 22.2989C37.9313 22.1849 38.1598 22.0847 38.3947 21.9989C38.8599 21.8278 39.3492 21.7196 39.8477 21.6775C40.0937 21.6567 40.3412 21.6531 40.5878 21.6669C40.7102 21.6735 40.8326 21.6762 40.955 21.6882L41.3165 21.7389C42.2643 21.909 43.1438 22.3161 43.8595 22.9162C44.5394 23.4841 45.0442 24.209 45.3225 25.0167C45.6008 25.8244 45.6426 26.686 45.4435 27.5135C45.3485 27.905 45.2035 28.2845 45.0115 28.6442C44.9247 28.8218 44.8614 29.0085 44.8229 29.2002C44.789 29.391 44.776 29.5844 44.784 29.7775L44.7566 29.7522L51.8126 29.7309H53.4153H53.807C53.9366 29.7309 54.0648 29.7309 54.1958 29.7375C54.4511 29.7624 54.6971 29.8398 54.9158 29.9642C55.1285 30.0839 55.3098 30.2458 55.4466 30.4384C55.5833 30.631 55.6721 30.8493 55.7064 31.0775C55.725 31.2971 55.7308 31.5174 55.7237 31.7375C55.7237 31.9535 55.7237 32.1669 55.7237 32.3775C55.7165 35.7522 55.7107 38.4349 55.7064 40.3229V40.3322H55.6949C55.3421 40.3322 55.0137 40.3522 54.7056 40.3455C54.4216 40.3237 54.1439 40.2565 53.8848 40.1469C53.4998 39.9693 53.0932 39.835 52.6738 39.7469C52.4262 39.698 52.1738 39.6729 51.9206 39.6722C51.8357 39.6722 51.7766 39.6722 51.7334 39.6722H51.6715C51.7543 39.6649 51.8375 39.6617 51.9206 39.6629C52.1746 39.6612 52.428 39.6844 52.6766 39.7322C53.0975 39.8202 53.5056 39.9545 53.892 40.1322C54.1499 40.2391 54.4255 40.3049 54.707 40.3269C55.0123 40.3269 55.3421 40.3162 55.6949 40.3109L55.6848 40.3215V31.7335C55.692 31.5152 55.6862 31.2966 55.6675 31.0789C55.6336 30.8564 55.5468 30.6436 55.4133 30.4559C55.2798 30.2682 55.103 30.1103 54.8957 29.9935C54.6813 29.8722 54.4401 29.7974 54.1901 29.7749C54.0634 29.7655 53.9352 29.7669 53.8056 29.7682H53.4096H51.8054L44.7494 29.7949H44.7235V29.7709C44.7142 29.5746 44.7272 29.378 44.7624 29.1842C44.8025 28.9887 44.8668 28.7981 44.9539 28.6162C45.1465 28.2605 45.2916 27.8844 45.3859 27.4962C45.5818 26.678 45.54 25.8263 45.2648 25.0278C44.9896 24.2294 44.4908 23.5128 43.8192 22.9509C43.1111 22.3577 42.2411 21.9556 41.3035 21.7882L40.9464 21.7389C40.8254 21.7269 40.7045 21.7242 40.5821 21.7175C40.3388 21.7038 40.0947 21.7074 39.852 21.7282C39.3579 21.7694 38.8728 21.8767 38.412 22.0469C38.1794 22.1311 37.9532 22.23 37.7352 22.3429C37.6272 22.4029 37.525 22.4762 37.4184 22.5322L37.2614 22.6282L37.1174 22.7389C36.7161 23.029 36.3646 23.3739 36.0749 23.7615L35.8632 24.0575L35.6832 24.3749C35.6221 24.4804 35.5696 24.5901 35.5262 24.7029L35.4557 24.8695C35.429 24.9245 35.4078 24.9817 35.3923 25.0402L35.2886 25.3882C35.2541 25.5042 35.2426 25.6255 35.2181 25.7442L35.1864 25.9242C35.1778 25.9842 35.1777 26.0455 35.1734 26.1055L35.1518 26.4695C35.1518 26.9612 35.2348 27.4497 35.3981 27.9175C35.4398 28.0349 35.4859 28.1522 35.5421 28.2669C35.5982 28.3815 35.6515 28.4949 35.6947 28.6149C35.7866 28.8557 35.8352 29.1088 35.8387 29.3642C35.8574 29.4975 35.8747 29.6309 35.8949 29.7709V29.8055H35.856L24.5707 29.8135C24.3312 29.8282 24.098 29.8916 23.888 29.9993C23.6779 30.1069 23.496 30.2561 23.3554 30.4362C23.2104 30.6158 23.1119 30.8238 23.0674 31.0442C23.0387 31.273 23.0296 31.5035 23.04 31.7335C23.04 32.65 23.04 33.5727 23.04 34.5015V40.1909H22.2048C21.9326 40.1887 21.6628 40.1436 21.407 40.0575C21.2803 40.0175 21.155 39.9602 21.0355 39.9095C20.916 39.8589 20.7922 39.8122 20.6669 39.7762C20.4157 39.6924 20.1576 39.6277 19.895 39.5829C19.3671 39.4927 18.8271 39.481 18.2952 39.5482C17.6206 39.6387 16.974 39.8589 16.3969 40.1948C15.8198 40.5307 15.3251 40.9747 14.9446 41.4983C14.5641 42.022 14.3062 42.6136 14.1876 43.2351C14.069 43.8566 14.0923 44.4942 14.256 45.1069L14.3438 45.4082C14.3755 45.5082 14.423 45.6029 14.4619 45.7002C14.5432 45.8939 14.6395 46.0819 14.7499 46.2629C15.0816 46.8001 15.5281 47.2691 16.0622 47.6412C16.5962 48.0133 17.2066 48.2806 17.856 48.4269C18.7077 48.6155 19.5989 48.5855 20.4336 48.3402C20.6386 48.2779 20.84 48.2058 21.037 48.1242C21.2403 48.0491 21.4533 47.9985 21.6706 47.9735C21.8894 47.9509 22.1026 47.9629 22.3157 47.9602H22.991V48.0002C22.991 50.6669 22.9958 53.2913 23.0054 55.8735C23.0054 56.5189 23.0054 57.1607 23.0054 57.7989C23.0054 58.1171 23.0054 58.4353 23.0054 58.7535C22.9957 59.0649 23.1138 59.3681 23.3358 59.6022C23.5578 59.8362 23.8673 59.9837 24.2021 60.0149C24.5347 60.0269 24.8789 60.0149 25.2101 60.0215H27.2261H42.48H53.9582C54.0893 60.0256 54.2206 60.0229 54.3513 60.0135C54.6061 59.9709 54.8382 59.8507 55.0109 59.6722C55.1876 59.4992 55.3252 59.2952 55.4155 59.0722C55.4619 58.9626 55.4971 58.8492 55.5206 58.7335C55.5404 58.6176 55.5486 58.5002 55.5451 58.3829C55.5451 58.1455 55.5451 57.9109 55.5451 57.6762V56.2869C55.5451 55.3722 55.5451 54.4789 55.5451 53.6069C55.5451 51.8669 55.5451 50.2162 55.5451 48.6642L55.5682 48.6855H54.4838C54.1329 48.6717 53.7832 48.7324 53.4614 48.8629C52.8249 49.086 52.1419 49.1722 51.4642 49.1149C50.8482 49.0673 50.2494 48.9034 49.7045 48.6333C49.1597 48.3631 48.6803 47.9925 48.2962 47.5442C47.9503 47.1419 47.6885 46.6834 47.5243 46.1922C47.3773 45.7412 47.3112 45.271 47.3285 44.8002C47.3872 43.9776 47.6326 43.1758 48.0485 42.4469C48.7685 41.1309 49.7376 40.3429 50.472 40.0015C50.7491 39.867 51.046 39.7708 51.3533 39.7162C51.4308 39.7023 51.5092 39.6925 51.588 39.6869L51.6658 39.6749Z" fill="#263238"/>
<path d="M90.8294 40.0442C90.1278 40.0435 89.434 40.1798 88.7932 40.4442C88.5763 40.5343 88.3471 40.5966 88.1121 40.6296V31.1402C88.1123 30.9742 88.0771 30.8098 88.0086 30.6563C87.94 30.5029 87.8395 30.3635 87.7127 30.2461C87.5859 30.1287 87.4353 30.0356 87.2696 29.9721C87.1039 29.9086 86.9263 29.8761 86.747 29.8762H76.0823V30.9962C76.0833 31.2549 76.1376 31.511 76.2422 31.7509C76.4602 32.2471 76.5722 32.7778 76.5719 33.3136C76.5725 33.9415 76.4208 34.5616 76.128 35.128C75.8351 35.6944 75.4086 36.1927 74.88 36.5861C74.3513 36.9794 73.734 37.2578 73.0736 37.4007C72.4132 37.5436 71.7265 37.5473 71.0644 37.4116C70.4022 37.2759 69.7814 37.0042 69.2478 36.6166C68.7142 36.229 68.2814 35.7354 67.9814 35.1722C67.6815 34.609 67.5219 33.9906 67.5146 33.3627C67.5073 32.7347 67.6523 32.1133 67.9391 31.5442C68.0826 31.2688 68.1583 30.9674 68.1609 30.6616V29.8762L57.3609 29.8442C56.916 29.8442 56.4893 30.0079 56.1746 30.2992C55.86 30.5905 55.6833 30.9856 55.6833 31.3976L55.6732 40.1976H54.9359C54.8524 40.1976 54.7674 40.1976 54.6839 40.1896C53.8818 39.6487 52.9369 39.3181 51.9489 39.2326C50.9609 39.1471 49.9663 39.3099 49.0698 39.7039C48.1733 40.0978 47.4081 40.7083 46.8548 41.471C46.3015 42.2337 45.9806 43.1205 45.9259 44.0379C45.8711 44.9553 46.0846 45.8694 46.5438 46.684C47.0029 47.4985 47.6908 48.1833 48.535 48.6663C49.3791 49.1493 50.3483 49.4125 51.3405 49.4284C52.3327 49.4442 53.3111 49.212 54.1727 48.7562C54.3194 48.7264 54.469 48.7112 54.6191 48.7109H55.5652V58.5336C55.5652 58.9455 55.742 59.3406 56.0566 59.6319C56.3712 59.9232 56.7979 60.0869 57.2428 60.0869H86.747C86.9264 60.0869 87.104 60.0542 87.2697 59.9906C87.4354 59.927 87.586 59.8337 87.7128 59.7162C87.8395 59.5987 87.9401 59.4592 88.0086 59.3057C88.0771 59.1522 88.1123 58.9877 88.1121 58.8216V48.8216C88.2951 48.8642 88.4727 48.9245 88.642 49.0016C89.5904 49.4305 90.661 49.5705 91.7006 49.4016C92.9493 49.1935 94.0692 48.5612 94.8408 47.6286C95.6124 46.696 95.9802 45.5303 95.8721 44.3597C95.764 43.1892 95.1877 42.0982 94.2563 41.3004C93.3249 40.5027 92.1053 40.0556 90.8366 40.0469L90.8294 40.0442Z" fill="#F5F5F5"/>
<path d="M90.8294 40.0443L91.1506 40.0576C91.2828 40.06 91.4147 40.0716 91.5451 40.0923L91.7971 40.1309C91.8947 40.1435 91.9911 40.1636 92.0851 40.1909L92.4048 40.2723C92.5157 40.3069 92.6294 40.3523 92.7504 40.3949C92.8094 40.4176 92.8728 40.4376 92.9347 40.4629L93.119 40.5523C93.2523 40.611 93.3812 40.6778 93.505 40.7523C94.1889 41.1486 94.7612 41.6899 95.1749 42.3313C95.5885 42.9728 95.8315 43.6961 95.8838 44.4416C95.8838 44.5563 95.9011 44.6709 95.9011 44.7883C95.9011 44.9056 95.8882 45.0216 95.881 45.1416C95.881 45.2003 95.881 45.2616 95.8666 45.3203C95.8522 45.3789 95.8478 45.4403 95.8378 45.5003L95.8075 45.6829C95.7917 45.7416 95.7773 45.8029 95.7614 45.8629C95.4871 46.9173 94.8335 47.854 93.9082 48.5189C93.3955 48.8825 92.8138 49.1539 92.1931 49.3189C92.0347 49.3643 91.8691 49.3869 91.705 49.4229C91.5408 49.4589 91.3694 49.4696 91.1995 49.4789C90.8533 49.5035 90.5053 49.4941 90.1613 49.4509C89.8071 49.4074 89.459 49.3287 89.123 49.2163C88.7774 49.1083 88.465 48.9216 88.1064 48.8469L88.1352 48.8256C88.1352 50.3616 88.1352 51.99 88.1352 53.7109C88.1352 54.5696 88.1352 55.4505 88.1352 56.3536C88.1352 56.8043 88.1352 57.2616 88.1352 57.7229V58.7696C88.1352 58.8283 88.1352 58.8896 88.128 58.9483C88.1218 59.0084 88.1112 59.0681 88.0963 59.1269C88.0343 59.3649 87.9008 59.5817 87.7111 59.7523C87.5215 59.9229 87.2836 60.0403 87.025 60.0909C86.8943 60.1128 86.7617 60.1222 86.629 60.1189H75.348H60.372H57.3984C57.2292 60.1248 57.0597 60.1141 56.893 60.0869C56.7257 60.0535 56.5644 59.9988 56.4134 59.9243C56.1114 59.7687 55.8663 59.5334 55.7093 59.2483C55.6308 59.1063 55.5769 58.9537 55.5494 58.7963C55.5265 58.6394 55.5178 58.4811 55.5235 58.3229V48.7123L55.561 48.7456H54.8784C54.7618 48.7456 54.6408 48.7456 54.5256 48.7456C54.4079 48.7512 54.2909 48.7654 54.1757 48.7883H54.1858C53.4969 49.1537 52.7313 49.3778 51.9408 49.4456C50.7019 49.5515 49.4605 49.2688 48.416 48.6431C47.3714 48.0173 46.5842 47.0847 46.1808 45.9949C45.9882 45.4703 45.8857 44.921 45.877 44.3669C45.8777 43.8153 45.968 43.267 46.1448 42.7403C46.3253 42.2184 46.5951 41.7269 46.944 41.2843C47.1193 41.0644 47.3118 40.8567 47.52 40.6629L47.8469 40.3883C47.9563 40.2989 48.0802 40.2229 48.1954 40.1403C48.6724 39.8262 49.1982 39.5812 49.7549 39.4136C50.3124 39.2592 50.8909 39.1792 51.4728 39.1763C52.6337 39.1833 53.7627 39.5285 54.6998 40.1629L54.6811 40.1563C55.0066 40.1709 55.3392 40.1563 55.6675 40.1643L55.6301 40.1976C55.6301 38.3176 55.6325 36.4625 55.6373 34.6323C55.6373 33.7158 55.6373 32.8074 55.6373 31.9069V31.5696C55.6373 31.4576 55.6373 31.3443 55.6474 31.2296C55.6878 30.8869 55.8474 30.5657 56.1022 30.3144C56.357 30.063 56.6932 29.8952 57.06 29.8363C57.299 29.8111 57.5397 29.8031 57.78 29.8123H58.4928H59.9126L62.712 29.8216L68.1538 29.8376H68.1869V30.5736C68.1942 30.8108 68.1581 31.0475 68.0803 31.2736C68.0398 31.3852 67.9917 31.4943 67.9363 31.6003C67.8845 31.7043 67.8398 31.8109 67.7923 31.9189C67.5105 32.6657 67.4644 33.4713 67.6595 34.2414C67.8547 35.0115 68.2828 35.7141 68.8939 36.2669C69.2301 36.5712 69.6142 36.8265 70.033 37.0243C70.8578 37.4131 71.7934 37.5529 72.7085 37.4243C73.5947 37.3012 74.4211 36.9358 75.0816 36.3749C75.403 36.103 75.6791 35.7885 75.901 35.4416C76.1231 35.1034 76.2891 34.7362 76.3934 34.3523C76.6089 33.6033 76.5905 32.8132 76.3402 32.0736C76.2854 31.8923 76.1962 31.7229 76.1371 31.5403C76.0819 31.3571 76.0543 31.1677 76.055 30.9776V29.8456H76.0824H83.8872H86.4878C86.6266 29.8421 86.7655 29.8452 86.904 29.8549C87.0419 29.8704 87.1767 29.9041 87.3043 29.9549C87.5516 30.0565 87.7616 30.2225 87.9087 30.4328C88.0557 30.6431 88.1334 30.8884 88.1323 31.1389C88.1323 31.6149 88.1323 32.0723 88.1323 32.5296C88.1323 36.1296 88.1323 38.8723 88.1237 40.6203L88.1122 40.6109C88.5931 40.5536 88.9546 40.3376 89.2958 40.2509C89.5743 40.1685 89.86 40.1087 90.1498 40.0723C90.3199 40.0519 90.4909 40.0394 90.6624 40.0349C90.7762 40.0349 90.8309 40.0349 90.8309 40.0349H90.6624C90.1994 40.0519 89.7411 40.1272 89.3002 40.2589C88.9618 40.3456 88.6003 40.5643 88.115 40.6243H88.105V40.6149C88.105 38.8669 88.105 36.1269 88.0949 32.5243C88.0949 32.0736 88.0949 31.61 88.0949 31.1336C88.096 30.8906 88.0206 30.6526 87.8779 30.4487C87.7352 30.2448 87.5313 30.0839 87.2914 29.9856C87.1676 29.9358 87.0366 29.903 86.9026 29.8883C86.7686 29.8763 86.629 29.8803 86.4907 29.8803H83.8872H76.0824L76.1098 29.8563V30.9629C76.1085 31.1486 76.1357 31.3336 76.1904 31.5123C76.2437 31.6896 76.3344 31.8616 76.3934 32.0456C76.6476 32.7945 76.667 33.5948 76.4496 34.3536C76.344 34.7421 76.176 35.1138 75.9514 35.4563C75.7271 35.8073 75.4475 36.1255 75.1219 36.4003C74.4533 36.9702 73.6158 37.3417 72.7171 37.4669C71.7891 37.5974 70.8403 37.4551 70.0042 37.0603C69.5805 36.8595 69.1921 36.6006 68.8522 36.2923C68.5071 35.9782 68.2179 35.6154 67.9954 35.2176C67.7074 34.708 67.5366 34.1488 67.4937 33.5751C67.4509 33.0014 67.5368 32.4257 67.7462 31.8843C67.7894 31.7749 67.8355 31.6656 67.8902 31.5603C67.9455 31.4565 67.9936 31.3496 68.0342 31.2403C68.1098 31.0201 68.1448 30.7898 68.1379 30.5589V29.8549L68.171 29.8856L62.7293 29.8709L59.9299 29.8629H58.5101H57.7872C57.5503 29.8532 57.313 29.8604 57.0773 29.8843C56.7264 29.9411 56.405 30.1018 56.1612 30.3422C55.9173 30.5826 55.7643 30.8898 55.7251 31.2176C55.715 31.3256 55.7136 31.4376 55.715 31.5509V31.8883C55.715 32.7896 55.715 33.698 55.715 34.6136C55.715 36.4429 55.715 38.2985 55.715 40.1803V40.2136H55.6776C55.3478 40.2136 55.0224 40.2216 54.6854 40.2056H54.6754L54.6653 40.1989C53.7405 39.5743 52.6275 39.2338 51.4829 39.2256C50.9088 39.2297 50.3382 39.3087 49.788 39.4603C49.2341 39.6303 48.712 39.8785 48.24 40.1963C48.1262 40.2789 48.0053 40.3523 47.8958 40.4416L47.5747 40.7083C47.3705 40.8995 47.1818 41.1045 47.0102 41.3216C46.6632 41.7573 46.3939 42.2416 46.2125 42.7563C46.0397 43.2746 45.9508 43.8138 45.949 44.3563C45.9627 45.6788 46.5306 46.9447 47.533 47.8869C48.1042 48.4163 48.794 48.8232 49.5536 49.079C50.3132 49.3347 51.1242 49.433 51.9293 49.3669C52.7084 49.3026 53.4636 49.0844 54.144 48.7269C54.263 48.703 54.3838 48.6883 54.5054 48.6829C54.6293 48.6829 54.7445 48.6829 54.8626 48.6829H55.5826V58.3296C55.5754 58.4842 55.5836 58.639 55.607 58.7923C55.6325 58.9433 55.684 59.0897 55.7597 59.2256C55.9149 59.4982 56.1546 59.7215 56.448 59.8669C56.5928 59.9379 56.7473 59.9904 56.9074 60.0229C57.0694 60.0491 57.234 60.0598 57.3984 60.0549H60.3734H75.3494H86.6362C86.7649 60.0586 86.8937 60.0501 87.0206 60.0296C87.2688 59.9812 87.4971 59.8686 87.6789 59.7047C87.8606 59.5409 87.9884 59.3327 88.0474 59.1043C88.0755 58.9915 88.0886 58.876 88.0862 58.7603V56.3496C88.0862 55.4474 88.0862 54.5665 88.0862 53.7069C88.0862 51.9887 88.0862 50.3603 88.0862 48.8216V48.8003H88.115C88.4837 48.8789 88.7962 49.0669 89.1346 49.1723C89.4679 49.2839 89.813 49.3625 90.1642 49.4069C90.5054 49.4494 90.8504 49.4588 91.1938 49.4349C91.3622 49.4256 91.5293 49.4043 91.6949 49.3803C91.8605 49.3563 92.0218 49.3216 92.1787 49.2776C93.0445 49.0499 93.8293 48.613 94.4526 48.0118C95.0759 47.4105 95.5152 46.6666 95.7254 45.8563C95.7413 45.7963 95.7571 45.7363 95.7715 45.6763L95.8018 45.4963L95.832 45.3176C95.8421 45.2576 95.8406 45.1976 95.845 45.1389C95.8517 45.0198 95.8589 44.9025 95.8666 44.7869C95.8666 44.6723 95.855 44.5576 95.8507 44.4429C95.7989 43.7013 95.5582 42.9815 95.1482 42.3426C94.7382 41.7037 94.1707 41.1637 93.492 40.7669C93.3689 40.6922 93.2405 40.6254 93.1075 40.5669L92.9246 40.4776C92.8627 40.4523 92.8008 40.4309 92.7403 40.4083C92.6208 40.3656 92.507 40.3203 92.3976 40.2856L92.0779 40.2029C91.984 40.1746 91.8876 40.1536 91.7899 40.1403L91.5379 40.1016C91.4077 40.0795 91.2757 40.067 91.1434 40.0643L90.8294 40.0443Z" fill="#263238"/>
<path d="M54.8639 41.7943C54.8639 41.7943 55.3492 41.5637 55.7769 41.6503C56.2045 41.737 57.7569 42.6743 57.7569 42.6743L59.0082 42.4583L59.7513 45.733L54.8639 47.6077V41.7943Z" fill="#AE7461"/>
<path d="M51.264 42.933C51.264 42.933 52.3828 42.7997 52.7875 42.6143C53.1921 42.429 54.1584 41.633 54.36 41.6477C54.5616 41.6623 55.296 41.7917 55.296 41.7917L54.9993 42.6143C54.9993 42.6143 56.4638 43.437 56.9001 43.7397C57.3365 44.0423 58.7073 45.3983 58.7721 45.7303C58.8369 46.0623 58.726 46.4517 58.5547 46.581C58.3833 46.7103 57.7598 46.4477 57.7598 46.4477C57.7838 46.5499 57.7833 46.6557 57.7584 46.7578C57.7335 46.8598 57.6849 46.9556 57.6158 47.0383C57.3825 47.3277 56.8382 47.2263 56.8382 47.2263C56.8382 47.2263 56.7907 47.7023 56.5416 47.789C56.2924 47.8757 55.7308 47.6157 55.7308 47.6157C55.7308 47.6157 55.5624 48.0157 55.3593 48.0623C55.1563 48.109 54.5788 47.7957 54.5788 47.7957C54.5788 47.7957 52.0862 46.137 51.5261 45.8917C50.9659 45.6463 50.7931 45.6317 50.7931 45.6317L51.264 42.933Z" fill="#FFBE9D"/>
<path d="M55.7279 47.6224C55.7178 47.6224 55.7106 47.5824 55.6847 47.5211C55.6488 47.4413 55.6064 47.3642 55.558 47.2904C55.4788 47.1894 55.4144 47.0791 55.3665 46.9624C55.4758 47.0404 55.564 47.1408 55.6242 47.2557C55.6747 47.3341 55.7121 47.419 55.7351 47.5077C55.7481 47.5784 55.7365 47.6237 55.7279 47.6224Z" fill="#EB996E"/>
<path d="M56.7633 47.3422C56.6472 47.2039 56.5419 47.0582 56.4479 46.9062C56.278 46.6662 56.0951 46.5062 56.1081 46.4902C56.276 46.5809 56.4151 46.7111 56.5113 46.8676C56.6266 47.0098 56.7121 47.1708 56.7633 47.3422Z" fill="#EB996E"/>
<path d="M57.7627 46.5091C57.7411 46.5091 57.672 46.2651 57.4992 45.9957C57.3264 45.7264 57.1291 45.5464 57.1449 45.5317C57.3149 45.6466 57.4575 45.7926 57.5638 45.9608C57.6701 46.129 57.7378 46.3156 57.7627 46.5091Z" fill="#EB996E"/>
<path d="M57.0326 44.709C57.1311 44.9588 57.1442 45.2307 57.07 45.4877C57.0442 45.3593 57.0346 45.2287 57.0412 45.0983C57.0231 44.9692 57.0202 44.8387 57.0326 44.709Z" fill="#EB996E"/>
<path d="M53.4066 43.4104C53.4066 43.4104 53.7954 42.2571 53.9351 42.1117C54.0748 41.9664 55.3751 41.6504 55.3751 41.6504L55.7797 42.6171L55.4917 42.8997L54.8682 42.8624C54.8682 42.8624 54.4809 43.8144 53.4066 43.4104Z" fill="#AE7461"/>
<path d="M51.0162 45.6934C51.0162 45.6934 50.8377 45.82 51.0162 46.1227C51.1948 46.4254 51.6772 46.2094 51.8327 46.1227C51.8327 46.1227 51.5995 46.628 51.8947 46.7894C52.0963 46.8859 52.324 46.9258 52.5498 46.904C52.5498 46.904 52.534 47.2067 52.9545 47.4094C53.375 47.612 53.4844 47.4094 53.4844 47.4094C53.4844 47.4094 53.5305 47.9134 54.0129 47.9574C54.4953 48.0014 54.6667 47.8467 54.6667 47.8467L54.4492 47.548C54.4492 47.548 54.73 47.0147 54.5126 46.7894C54.4375 46.7198 54.3473 46.6658 54.248 46.6309C54.1487 46.5959 54.0426 46.5809 53.9366 46.5867C53.9366 46.5867 54.033 46.1187 53.7551 45.988C53.6931 45.9523 53.6235 45.9292 53.551 45.9205C53.4785 45.9117 53.4049 45.9174 53.335 45.9373C53.2651 45.9571 53.2007 45.9906 53.146 46.0355C53.0913 46.0803 53.0476 46.1355 53.0178 46.1974C53.0178 46.1974 52.9862 45.684 52.5858 45.696C52.3521 45.6986 52.1285 45.7851 51.9623 45.9374L51.0162 45.6934Z" fill="#AE7461"/>
<path d="M53.0164 46.1943C52.982 46.3327 52.9189 46.4636 52.8306 46.5797C52.7637 46.7066 52.6713 46.8206 52.5585 46.9157C52.6087 46.7834 52.6785 46.6582 52.7658 46.5437C52.8318 46.4172 52.9161 46.2997 53.0164 46.1943Z" fill="#6F4439"/>
<path d="M53.9452 46.6489C53.9076 46.7952 53.8353 46.9318 53.7335 47.0489C53.6521 47.1789 53.541 47.2908 53.4081 47.3769C53.5803 47.1304 53.7594 46.8881 53.9452 46.6503V46.6489Z" fill="#6F4439"/>
<path d="M44.2958 52.0918H41.9328L41.328 60.0491H43.6982C44.1014 58.8371 45.1094 52.5225 45.1094 52.5225L44.2958 52.0918Z" fill="#263238"/>
<path d="M30.9139 52.0918C30.9139 52.0918 29.4004 55.3758 29.5516 56.7051C29.7028 58.0345 30.5524 60.0491 30.5524 60.0491H42.2568C42.504 59.1424 42.6963 58.2237 42.8328 57.2971C43.0862 55.6545 43.7659 52.0971 43.7659 52.0971L30.9139 52.0918Z" fill="#263238"/>
<path d="M46.3795 20.4C45.9835 19.9374 45.4954 19.4934 45.3946 18.9107C45.301 18.3774 45.5544 17.7907 45.2952 17.3107C44.9755 16.712 44.0597 16.596 43.6622 16.04C43.4707 15.7734 43.4246 15.4294 43.2302 15.1587C42.9077 14.6974 42.2424 14.5494 41.6462 14.58C41.0501 14.6107 40.4827 14.7814 39.888 14.8C39.073 14.816 38.2478 14.5334 37.4573 14.7134C36.5846 14.912 36.0173 15.5934 35.4254 16.2507L34.6536 17.0094C34.4978 17.1392 34.3285 17.2545 34.1482 17.3534C33.8314 17.5227 33.4742 17.6334 33.1978 17.856C32.6059 18.332 32.603 19.2987 33.1978 19.7774C32.8813 19.8627 32.6027 20.0399 32.4031 20.2828C32.2035 20.5257 32.0934 20.8215 32.089 21.1267C32.089 21.4614 32.233 21.7814 32.3165 22.1054C32.4 22.4294 32.4605 22.788 32.2949 23.088C32.1293 23.388 31.7002 23.5787 31.3934 23.4014C31.4399 23.6204 31.5384 23.8272 31.6819 24.0066C31.8253 24.186 32.0101 24.3336 32.2229 24.4387C32.0423 24.5931 31.8049 24.678 31.559 24.676C32.1437 26.1427 33.8962 26.9707 35.5766 27.0534C37.2571 27.136 38.8973 26.616 40.487 26.104L45.0706 25.2147C45.4723 25.148 45.661 24.708 45.6739 24.3294C45.6869 23.9507 45.6048 23.5547 45.769 23.208C45.9922 22.7334 46.6128 22.504 46.8461 22.032C47.1053 21.4907 46.7741 20.8654 46.3795 20.4Z" fill="#263238"/>
<path d="M35.4729 23.7559C35.1935 22.7945 34.9185 21.8265 34.822 20.8345C34.7255 19.8425 34.822 18.8185 35.2396 17.9012C35.3044 17.7679 35.8415 16.8345 36.0028 16.8599C36.118 16.8759 35.7709 17.7465 35.8242 17.8425C36.334 18.7572 36.4261 19.8332 36.2793 20.8545C36.1276 21.8455 35.8572 22.8177 35.4729 23.7532" fill="#263238"/>
<path d="M35.578 19.9572C35.6284 17.4598 37.2412 15.4065 39.9354 15.5238L40.1831 15.5478C41.3888 15.6642 42.503 16.1968 43.3036 17.0397C44.1042 17.8825 44.5325 18.9737 44.5031 20.0958C44.4455 22.2598 44.3591 24.6505 44.2065 25.7998C43.9026 28.1798 41.2862 28.2998 41.2862 28.2998L41.2156 32.2305L35.0898 28.3012L35.578 19.9572Z" fill="#FFBE9D"/>
<path d="M41.2819 28.2997C40.0939 28.1805 38.9676 27.7488 38.0361 27.0557C38.0361 27.0557 38.6395 29.069 41.2315 29.105L41.2819 28.2997Z" fill="#EB996E"/>
<path d="M43.6075 21.9438C43.598 22.0326 43.5514 22.1144 43.4778 22.1719C43.4041 22.2295 43.3091 22.2581 43.2129 22.2518C43.1658 22.2508 43.1193 22.241 43.0763 22.223C43.0334 22.205 42.9947 22.1792 42.9627 22.1471C42.9307 22.115 42.9061 22.0773 42.8902 22.0361C42.8743 21.995 42.8675 21.9514 42.8702 21.9078C42.8794 21.819 42.9256 21.737 42.999 21.6792C43.0724 21.6214 43.1672 21.5925 43.2633 21.5984C43.3106 21.5998 43.357 21.6098 43.4 21.628C43.443 21.6462 43.4816 21.6721 43.5136 21.7043C43.5457 21.7364 43.5705 21.7741 43.5866 21.8153C43.6027 21.8564 43.6098 21.9001 43.6075 21.9438Z" fill="#263238"/>
<path d="M43.8364 21.0318C43.786 21.0718 43.5297 20.8531 43.1337 20.8158C42.7377 20.7785 42.4267 20.9331 42.3892 20.8838C42.3705 20.8625 42.4267 20.7865 42.562 20.7131C42.746 20.6208 42.956 20.5827 43.164 20.6038C43.3699 20.623 43.5637 20.7029 43.7169 20.8318C43.8292 20.9331 43.8609 21.0145 43.8364 21.0318Z" fill="#263238"/>
<path d="M40.032 21.9438C40.0228 22.0324 39.9766 22.1143 39.9031 22.1719C39.8297 22.2294 39.7348 22.2581 39.6388 22.2518C39.5916 22.2507 39.5451 22.241 39.5021 22.223C39.459 22.205 39.4203 22.1793 39.3882 22.1472C39.3561 22.1151 39.3313 22.0774 39.3152 22.0362C39.2991 21.9951 39.2922 21.9514 39.2947 21.9078C39.3038 21.819 39.35 21.737 39.4234 21.6792C39.4969 21.6214 39.5917 21.5925 39.6878 21.5984C39.735 21.5998 39.7815 21.6098 39.8245 21.628C39.8674 21.6462 39.9061 21.6721 39.9381 21.7043C39.9702 21.7364 39.995 21.7741 40.0111 21.8153C40.0272 21.8564 40.0343 21.9001 40.032 21.9438Z" fill="#263238"/>
<path d="M39.9455 20.7998C39.8951 20.8398 39.6374 20.6225 39.2414 20.5852C38.8454 20.5478 38.5358 20.7025 38.4983 20.6532C38.4796 20.6305 38.5343 20.5558 38.6711 20.4825C38.8548 20.3895 39.065 20.3514 39.273 20.3732C39.4786 20.3925 39.6723 20.4719 39.826 20.5998C39.9369 20.6998 39.97 20.7838 39.9455 20.7998Z" fill="#263238"/>
<path d="M41.0399 23.7545C41.0399 23.7332 41.2905 23.7185 41.6937 23.7092C41.7959 23.7092 41.8938 23.7012 41.9183 23.6385C41.9376 23.5426 41.925 23.4436 41.8823 23.3545C41.8132 23.118 41.7407 22.8709 41.6649 22.6132C41.3654 21.5585 41.1594 20.6958 41.2055 20.6852C41.2516 20.6745 41.5324 21.5198 41.8305 22.5745C41.9025 22.834 41.9706 23.082 42.035 23.3185C42.0869 23.4372 42.091 23.5692 42.0465 23.6905C42.0282 23.7222 42.0024 23.7496 41.9709 23.7706C41.9395 23.7916 41.9033 23.8057 41.865 23.8118C41.8072 23.8189 41.7486 23.8189 41.6908 23.8118C41.2919 23.7985 41.0399 23.7758 41.0399 23.7545Z" fill="#263238"/>
<path d="M39.8505 23.8943C39.9153 23.8943 39.8706 24.2943 40.2062 24.6116C40.5417 24.9289 41.0039 24.9316 41.001 24.9876C41.001 25.0129 40.8902 25.0543 40.6958 25.0409C40.4441 25.019 40.2088 24.9162 40.0305 24.7503C39.8601 24.5901 39.7631 24.3751 39.7598 24.1503C39.7626 23.9823 39.8217 23.8889 39.8505 23.8943Z" fill="#263238"/>
<path d="M40.0925 19.3132C40.0421 19.4092 39.6533 19.3239 39.1824 19.3305C38.7115 19.3372 38.3184 19.4172 38.2723 19.3212C38.2507 19.2759 38.3256 19.1879 38.4883 19.1079C38.7038 19.0095 38.9406 18.9577 39.1808 18.9566C39.4211 18.9554 39.6585 19.0049 39.875 19.1012C40.032 19.1812 40.1155 19.2679 40.0925 19.3132Z" fill="#263238"/>
<path d="M43.8119 19.7986C43.7327 19.8746 43.4692 19.7613 43.1423 19.7253C42.8154 19.6893 42.5317 19.7253 42.477 19.6293C42.454 19.584 42.5073 19.5053 42.6369 19.4386C42.8104 19.3602 43.0051 19.331 43.1965 19.3547C43.3879 19.3784 43.5674 19.454 43.7125 19.572C43.8191 19.672 43.8465 19.7613 43.8119 19.7986Z" fill="#263238"/>
<path d="M35.5867 21.7424C35.5449 21.7211 33.8731 21.0851 33.7435 22.7197C33.6139 24.3544 35.4139 24.1331 35.424 24.0917C35.4341 24.0504 35.5867 21.7424 35.5867 21.7424Z" fill="#FFBE9D"/>
<path d="M34.93 23.4359C34.93 23.4293 34.8983 23.4533 34.845 23.4719C34.7694 23.4954 34.6869 23.4911 34.6146 23.4599C34.4332 23.3853 34.2978 23.0999 34.3122 22.8039C34.319 22.6641 34.3594 22.5275 34.4303 22.4039C34.451 22.354 34.4845 22.3095 34.5279 22.2742C34.5713 22.2389 34.6233 22.2139 34.6794 22.2013C34.7153 22.195 34.7525 22.2007 34.7844 22.2172C34.8162 22.2338 34.8408 22.2603 34.8537 22.2919C34.8738 22.3386 34.8609 22.3706 34.8695 22.3746C34.8781 22.3786 34.9098 22.3493 34.9012 22.2813C34.8944 22.2398 34.8726 22.2017 34.8393 22.1733C34.7931 22.1361 34.7333 22.117 34.6722 22.1199C34.5986 22.1282 34.5286 22.1539 34.4688 22.1946C34.409 22.2352 34.3615 22.2894 34.3309 22.3519C34.245 22.4885 34.1957 22.6421 34.1869 22.7999C34.1725 23.1306 34.3309 23.4519 34.5801 23.5373C34.6269 23.5537 34.6772 23.56 34.727 23.5559C34.7769 23.5517 34.8251 23.5372 34.8681 23.5133C34.9242 23.4746 34.9357 23.4386 34.93 23.4359Z" fill="#EB996E"/>
<path d="M43.5441 17.3185C43.8408 17.1852 43.0416 16.2812 42.3604 15.9439C41.3294 15.4346 39.7267 15.0639 38.7302 15.2625C37.5292 15.5012 36.5126 15.9866 35.8502 16.9439C35.1878 17.9012 34.8868 19.0465 34.8422 20.1825C34.8278 20.5292 34.8422 20.8919 35.0208 21.1972C35.2425 21.5732 35.7004 21.8292 35.6443 22.3265C35.6309 22.4163 35.6367 22.5075 35.6614 22.5951C35.6861 22.6828 35.7292 22.765 35.7883 22.8372C36.0892 23.1745 36.5083 22.8985 36.7084 22.6105C37.1404 21.9919 37.2369 21.2305 37.3219 20.4985C37.3824 19.9785 37.4428 19.4465 37.3219 18.9359C37.2542 18.6586 37.1332 18.3919 37.0828 18.1119C37.0481 17.9729 37.0463 17.8285 37.0776 17.6888C37.1089 17.549 37.1726 17.4173 37.2643 17.3026C37.3105 17.2537 37.3616 17.2091 37.4169 17.1692C37.6772 16.9849 37.9858 16.868 38.3109 16.8305C38.6361 16.793 38.9662 16.8363 39.2673 16.9559C40.2393 17.3412 41.904 17.9292 42.3705 17.6439C43.0401 17.2319 43.2129 16.9479 43.2129 16.9479L43.5441 17.3185Z" fill="#263238"/>
<path d="M38.8367 15.0452C39.8289 14.8026 40.9334 14.8839 41.8118 15.3746C42.2769 15.6412 42.6873 16.0319 42.801 16.5252C42.9148 17.0186 42.6498 17.5999 42.1329 17.7599L42.0969 17.7786C41.3265 17.9679 40.8441 17.8452 40.1097 17.5599C39.4905 17.3199 38.9577 16.9252 38.3342 16.6866C37.67 16.4337 36.9393 16.3706 36.2361 16.5052C36.9618 15.8332 37.846 15.2879 38.8367 15.0452Z" fill="#263238"/>
<path d="M39.2845 14.7613C39.3451 14.7605 39.4055 14.7663 39.4645 14.7786C39.6264 14.805 39.7855 14.8448 39.9397 14.8973C40.1694 14.9763 40.3879 15.0806 40.5906 15.208C40.8413 15.363 41.0606 15.5575 41.2386 15.7826C41.4077 16.014 41.5284 16.2727 41.5943 16.5453C41.6514 16.7642 41.688 16.9873 41.7037 17.212C41.7181 17.404 41.7181 17.56 41.7167 17.6666C41.7188 17.7225 41.7144 17.7783 41.7037 17.8333C41.6918 17.7785 41.6865 17.7226 41.6879 17.6666C41.6807 17.56 41.6721 17.4 41.6505 17.216C41.6274 16.9944 41.5864 16.7746 41.5281 16.5586C41.4596 16.2949 41.3406 16.0448 41.1767 15.82C41.0044 15.6008 40.7925 15.4109 40.5503 15.2586C40.3538 15.131 40.1422 15.0245 39.9196 14.9413C39.7114 14.8713 39.4994 14.8112 39.2845 14.7613Z" fill="#455A64"/>
<path d="M40.9104 14.6665C40.9627 14.6739 41.0139 14.6869 41.063 14.7052C41.1226 14.7218 41.1808 14.7423 41.2373 14.7665L41.4576 14.8692C41.8691 15.1035 42.1898 15.4527 42.3734 15.8665C42.4265 15.9833 42.4698 16.1036 42.503 16.2265C42.5314 16.3415 42.5507 16.4582 42.5606 16.5758C42.5708 16.6818 42.5732 16.7883 42.5678 16.8945C42.5606 16.9872 42.5471 17.0794 42.5275 17.1705C42.5116 17.2457 42.4895 17.3197 42.4613 17.3918C42.4428 17.4465 42.4192 17.4996 42.3907 17.5505C42.3695 17.598 42.3419 17.6428 42.3086 17.6838C42.3814 17.517 42.4373 17.3442 42.4757 17.1678C42.4908 17.0795 42.5009 16.9905 42.5059 16.9012C42.5078 16.7975 42.5035 16.6938 42.493 16.5905C42.4805 16.4765 42.4603 16.3634 42.4325 16.2518C42.398 16.1334 42.3552 16.0171 42.3043 15.9038C42.1258 15.5026 41.8213 15.1603 41.4302 14.9212L41.2186 14.8105C41.1644 14.784 41.1086 14.7604 41.0515 14.7398C41.0009 14.7218 40.9534 14.6971 40.9104 14.6665Z" fill="#455A64"/>
<path d="M42.0623 31.8357C42.0623 32.061 43.2763 36.9997 43.7414 38.213C44.2065 39.4264 45.6782 51.5917 45.4838 52.4584C45.2894 53.325 44.7868 53.2904 44.7868 53.2904C44.7868 53.2904 32.8953 52.597 31.6166 52.701C30.3379 52.805 29.7964 52.7704 29.4868 51.4184C29.1772 50.0664 29.4955 43.041 29.2247 41.3424C28.954 39.6437 28.9511 38.821 28.846 36.2984C28.7553 34.1104 29.2924 32.357 30.4156 31.0904C31.5388 29.8237 34.0257 28.545 34.0257 28.545L34.9084 27.353L41.1494 30.4104L41.2934 29.7144L41.6721 30.797L42.0623 31.8357Z" fill="#455A64"/>
<g opacity="0.3">
<path d="M44.7451 46.8903C44.64 46.645 44.303 46.5823 44.0251 46.5543C41.3798 46.2877 38.628 45.6703 36.6955 43.977C35.941 43.3103 35.3448 42.5103 34.7702 41.7103C33.5146 39.953 32.3352 38.1503 31.1558 36.3477L30.24 36.6663C30.803 39.2103 31.356 41.0517 32.2704 43.137C33.1848 45.2223 33.8962 47.2463 36.2146 47.929C37.7136 48.3703 40.5605 48.0317 42.1286 47.9183C42.7826 47.8885 43.4314 47.7947 44.064 47.6383C44.258 47.5944 44.4383 47.5095 44.591 47.3903C44.6657 47.3294 44.7199 47.2499 44.7473 47.1612C44.7746 47.0726 44.7738 46.9786 44.7451 46.8903Z" fill="black"/>
</g>
<path d="M29.9131 35.9999C29.9807 36.1132 35.2727 46.5799 37.6358 47.0105C39.9988 47.4412 47.3428 47.5439 48.7756 47.2892C50.2084 47.0345 51.611 46.8052 51.611 46.8052C51.611 46.8052 52.6492 44.5225 51.7017 42.5785L49.7289 42.6359C49.7289 42.6359 44.2439 42.3612 43.4692 42.1652C42.6945 41.9692 42.0292 41.2972 41.3279 41.3332L37.1519 32.3425C37.1519 32.3425 34.4404 30.0105 32.5036 30.7279C30.5668 31.4452 29.3443 35.0665 29.9131 35.9999Z" fill="#455A64"/>
<path d="M49.8815 47.1705C49.8872 47.1107 49.9003 47.0516 49.9204 46.9945C49.9521 46.8825 49.991 46.7198 50.0313 46.5185C50.0716 46.3172 50.1105 46.0745 50.1364 45.8038C50.1616 45.5102 50.1684 45.2155 50.1566 44.9212C50.1308 44.3865 50.041 43.8561 49.8887 43.3398C49.8297 43.1412 49.7764 42.9825 49.7347 42.8732C49.7112 42.8174 49.6929 42.7598 49.6799 42.7012C49.7132 42.7526 49.7407 42.8072 49.762 42.8638C49.8296 43.0147 49.8887 43.1687 49.9391 43.3252C50.107 43.843 50.2038 44.3783 50.2271 44.9185C50.2386 45.2156 50.2299 45.5131 50.2012 45.8092C50.1756 46.0507 50.1348 46.2907 50.0788 46.5278C50.043 46.6878 49.9978 46.8458 49.9434 47.0012C49.9281 47.0592 49.9074 47.1158 49.8815 47.1705Z" fill="#263238"/>
<path d="M37.152 32.3452C37.152 32.3452 37.1793 32.3985 37.2312 32.5039L37.4529 32.9732L38.304 34.7732C39.0326 36.3345 40.0795 38.5812 41.3582 41.3239L41.3294 41.3079C41.6585 41.3169 41.9787 41.4091 42.2553 41.5745C42.5433 41.7212 42.8212 41.8919 43.1265 42.0212C43.4416 42.1458 43.778 42.218 44.1201 42.2345C44.4672 42.2732 44.8214 42.3012 45.1814 42.3305C46.6214 42.4399 48.1464 42.5279 49.7347 42.6092L51.7075 42.5505H51.732L51.742 42.5705C52.0418 43.2328 52.1738 43.9498 52.128 44.6665C52.0935 45.4056 51.9301 46.1345 51.6441 46.8252V46.8425H51.624L50.3697 47.0572L48.996 47.2919C48.5423 47.3679 48.0831 47.4125 47.6222 47.4252C46.7092 47.4625 45.8107 47.4665 44.9265 47.4625C44.0424 47.4585 43.1755 47.4385 42.3259 47.4092C41.4763 47.3799 40.6468 47.3412 39.8361 47.2839C39.4315 47.2572 39.0326 47.2212 38.638 47.1812C38.25 47.1464 37.8651 47.0867 37.486 47.0025C37.3057 46.9362 37.1365 46.8464 36.9835 46.7359C36.8316 46.6291 36.6873 46.5133 36.5515 46.3892C36.2907 46.148 36.0459 45.8925 35.8185 45.6239C35.0047 44.6383 34.2619 43.604 33.5952 42.5279C32.3553 40.5652 31.4596 38.9212 30.8448 37.7852C30.5395 37.2159 30.3076 36.7719 30.1521 36.4692C29.9966 36.1665 29.9203 36.0065 29.9203 36.0065C29.9203 36.0065 29.9433 36.0452 29.9836 36.1226C30.024 36.1999 30.0873 36.3145 30.1665 36.4639L30.8707 37.7732C31.4942 38.9052 32.3956 40.5452 33.6412 42.5025C34.3057 43.5735 35.0456 44.6028 35.856 45.5839C36.082 45.8502 36.3253 46.1036 36.5846 46.3425C36.7166 46.4647 36.857 46.5787 37.0051 46.6839C37.153 46.7914 37.3169 46.8785 37.4918 46.9425C37.8687 47.0245 38.2512 47.0824 38.6366 47.1159C39.0283 47.1559 39.4272 47.1905 39.8318 47.2172C40.6396 47.2732 41.4705 47.3132 42.3187 47.3412C43.1668 47.3692 44.0352 47.3879 44.9107 47.3919C45.7862 47.3959 46.692 47.3919 47.602 47.3532C48.0595 47.3399 48.5153 47.2953 48.9657 47.2199L50.338 46.9852L51.5937 46.7705L51.5649 46.7919C51.8476 46.1093 52.0095 45.3889 52.0444 44.6585C52.0868 43.9518 51.9543 43.2454 51.6571 42.5932L51.6916 42.6132L49.7188 42.6705C48.1348 42.5865 46.6056 42.4985 45.1641 42.3865C44.8041 42.3572 44.4441 42.3279 44.1014 42.2892C43.9257 42.2705 43.7529 42.2505 43.5816 42.2199C43.4108 42.1905 43.2451 42.1398 43.0891 42.0692C42.778 41.9359 42.4987 41.7639 42.2136 41.6186C41.9468 41.4591 41.6381 41.3701 41.3208 41.3612H41.3006L41.292 41.3439C40.0233 38.5959 38.988 36.3465 38.268 34.7839L37.44 32.9799L37.2254 32.5079C37.1793 32.3999 37.152 32.3452 37.152 32.3452Z" fill="#263238"/>
<path d="M36.6033 31.6385C36.6033 31.6385 36.5299 31.5758 36.3974 31.4625C36.2111 31.3037 36.0085 31.1622 35.7926 31.0398C35.4728 30.858 35.1266 30.7192 34.7645 30.6278C33.8725 30.3965 32.9192 30.485 32.0947 30.8758C31.7587 31.031 31.4488 31.2304 31.1745 31.4678C30.9883 31.6291 30.8199 31.8074 30.672 31.9998C30.6213 32.0722 30.5665 32.1421 30.5078 32.2091C30.5161 32.1879 30.5272 32.1677 30.5409 32.1491C30.5654 32.1118 30.5957 32.0531 30.6475 31.9838C30.7892 31.786 30.9538 31.6031 31.1385 31.4385C31.7502 30.8855 32.5467 30.5414 33.3973 30.4626C34.2479 30.3839 35.1022 30.5752 35.82 31.0051C36.0368 31.1321 36.2373 31.2815 36.4176 31.4505C36.4681 31.4953 36.5162 31.5425 36.5616 31.5918C36.5775 31.6057 36.5915 31.6214 36.6033 31.6385Z" fill="#263238"/>
<path d="M41.3121 41.3423C41.2478 41.6024 41.1587 41.8568 41.0457 42.1023C40.9559 42.3555 40.8432 42.6013 40.7087 42.837C40.7729 42.5772 40.8621 42.3233 40.9751 42.0783C41.0648 41.8246 41.1775 41.5784 41.3121 41.3423Z" fill="#263238"/>
<path d="M50.8996 43.0664C50.8996 43.0664 50.9198 43.0571 50.9544 43.0664C51.001 43.0853 51.0384 43.1195 51.0595 43.1624C51.0792 43.194 51.0896 43.2299 51.0896 43.2664C51.0896 43.3029 51.0792 43.3388 51.0595 43.3704C51.0333 43.4084 50.9959 43.4386 50.9517 43.4575C50.9076 43.4764 50.8585 43.4832 50.8104 43.4771C50.762 43.4677 50.718 43.4447 50.6842 43.4113C50.6505 43.3779 50.6286 43.3357 50.6217 43.2904C50.6146 43.2548 50.6175 43.218 50.6301 43.1837C50.6427 43.1494 50.6646 43.1187 50.6937 43.0944C50.7132 43.0784 50.7361 43.0664 50.7609 43.059C50.7856 43.0517 50.8118 43.0492 50.8377 43.0518C50.8723 43.0518 50.8896 43.0624 50.8881 43.0664C50.8867 43.0704 50.8046 43.0664 50.7326 43.1291C50.7138 43.1494 50.7004 43.1734 50.6934 43.1993C50.6864 43.2253 50.686 43.2523 50.6923 43.2784C50.6981 43.3101 50.7137 43.3396 50.7372 43.3632C50.7607 43.3869 50.7911 43.4037 50.8248 43.4118C50.8594 43.4153 50.8945 43.4102 50.9264 43.3971C50.9582 43.384 50.9858 43.3633 51.0062 43.3371C51.0215 43.3146 51.0307 43.289 51.0329 43.2626C51.0352 43.2361 51.0304 43.2095 51.0191 43.1851C50.9759 43.0891 50.8968 43.0758 50.8996 43.0664Z" fill="#263238"/>
<path d="M41.2992 30.7583C41.2491 30.7395 41.201 30.7168 41.1552 30.6903L40.7606 30.4809L40.7894 30.4703C40.7117 30.8343 40.6354 31.3703 40.5014 32.0129L40.4914 32.0556L40.4525 32.0329C39.8765 31.6943 39.1766 31.3076 38.4365 30.8929C37.8835 30.5863 37.3666 30.2769 36.8914 30.0103C36.4162 29.7436 35.9741 29.5143 35.6069 29.3236L34.7328 28.8729L34.4952 28.7503C34.4674 28.7361 34.4405 28.7205 34.4146 28.7036C34.4453 28.7116 34.4749 28.7232 34.5024 28.7383L34.7457 28.8503C34.9574 28.9489 35.2598 29.0943 35.6328 29.2809C36.0057 29.4676 36.445 29.6916 36.9288 29.9476L38.4782 30.8276C39.2198 31.2423 39.9182 31.6276 40.4942 31.9756L40.4453 31.9943C40.5821 31.3569 40.667 30.8196 40.7563 30.4569V30.4329L40.7794 30.4449L41.1638 30.6676C41.2116 30.6943 41.2568 30.7247 41.2992 30.7583Z" fill="#263238"/>
<g opacity="0.3">
<path d="M35.2958 29.1343L38.5531 31.3823C39.2731 31.8769 40.0031 32.3796 40.8571 32.6316L40.8067 30.5329L40.474 31.9996L35.2958 29.1343Z" fill="black"/>
</g>
<path d="M68.832 18.6371C68.545 18.673 68.2539 18.6088 68.0151 18.4571C67.7763 18.3054 67.607 18.0769 67.5398 17.8161C67.4727 17.5553 67.5127 17.2806 67.6519 17.0455C67.7912 16.8104 68.0198 16.6316 68.2934 16.5438C68.1123 16.3777 67.9921 16.1631 67.9499 15.9302C67.9078 15.6974 67.9457 15.4582 68.0585 15.2465C68.1712 15.0348 68.353 14.8612 68.5782 14.7504C68.8033 14.6396 69.0604 14.5972 69.313 14.6291C69.3184 14.3965 69.389 14.1691 69.5178 13.9692C69.6465 13.7694 69.8291 13.6038 70.0476 13.4888C70.2661 13.3738 70.5131 13.3133 70.7645 13.3131C71.0158 13.3129 71.2629 13.3731 71.4816 13.4878C71.7604 13.2687 72.1105 13.1424 72.4759 13.1291C72.8414 13.1158 73.2011 13.2163 73.4976 13.4145C73.7415 13.3681 73.9951 13.3955 74.2209 13.4927C74.4468 13.5899 74.6329 13.7516 74.752 13.9541C74.871 14.1567 74.9166 14.3892 74.8821 14.6176C74.8476 14.8459 74.7348 15.058 74.5603 15.2225" fill="#263238"/>
<path d="M68.6692 18.7916C68.7442 17.641 69.2842 16.5587 70.1818 15.76C71.0793 14.9613 72.2687 14.5047 73.5134 14.481H73.7697C76.5388 14.5783 77.9961 16.8103 77.8147 19.369L77.9788 28.5023L71.2511 30.7343L71.1921 27.445C71.1921 27.445 68.5252 27.113 68.4388 24.645C68.3999 23.4663 68.5252 21.0103 68.6692 18.7916Z" fill="#AE7461"/>
<path d="M71.1705 27.4424C72.4031 27.4189 73.6025 27.0686 74.6265 26.4331C74.6265 26.4331 73.8461 28.2198 71.1893 28.0478L71.1705 27.4424Z" fill="#6F4439"/>
<path d="M69.4166 21.0173C69.4177 21.1088 69.4573 21.1963 69.5269 21.2613C69.5965 21.3262 69.6908 21.3635 69.7896 21.3653C69.8381 21.368 69.8866 21.3616 69.9324 21.3466C69.9782 21.3316 70.0203 21.3082 70.0561 21.2779C70.092 21.2476 70.1209 21.2109 70.1412 21.17C70.1614 21.1291 70.1726 21.0849 70.1741 21.0399C70.173 20.9484 70.1334 20.8609 70.0638 20.7959C69.9942 20.731 69.8999 20.6937 69.8011 20.6919C69.7527 20.6894 69.7042 20.6959 69.6585 20.711C69.6128 20.726 69.5708 20.7494 69.535 20.7797C69.4992 20.81 69.4702 20.8467 69.4499 20.8874C69.4296 20.9282 69.4183 20.9724 69.4166 21.0173Z" fill="#263238"/>
<path d="M69.264 19.9853C69.3115 20.0307 69.5952 19.828 70.0027 19.8213C70.4102 19.8147 70.7155 19.9973 70.7587 19.9547C70.7789 19.9333 70.7299 19.852 70.5974 19.7667C70.4181 19.6564 70.2064 19.6 69.9912 19.6053C69.7788 19.6091 69.5732 19.6749 69.4037 19.7933C69.2841 19.8813 69.2438 19.9653 69.264 19.9853Z" fill="#263238"/>
<path d="M73.1376 21.0172C73.1387 21.1088 73.1785 21.1964 73.2485 21.2612C73.3184 21.326 73.413 21.3628 73.512 21.3639C73.5603 21.3666 73.6088 21.3603 73.6545 21.3453C73.7002 21.3304 73.7422 21.3072 73.778 21.277C73.8139 21.2468 73.8428 21.2102 73.8631 21.1695C73.8835 21.1288 73.8948 21.0847 73.8965 21.0399C73.895 20.9482 73.8551 20.8607 73.7852 20.7958C73.7154 20.7308 73.621 20.6936 73.5221 20.6919C73.4737 20.6895 73.4252 20.6961 73.3796 20.7113C73.334 20.7264 73.2921 20.7498 73.2563 20.7801C73.2206 20.8103 73.1916 20.8469 73.1712 20.8876C73.1509 20.9283 73.1394 20.9724 73.1376 21.0172Z" fill="#263238"/>
<path d="M73.2844 19.9799C73.3319 20.0252 73.6156 19.8225 74.0231 19.8159C74.4306 19.8092 74.7431 19.9919 74.7791 19.9492C74.8007 19.9279 74.7503 19.8465 74.6178 19.7612C74.4398 19.6516 74.2297 19.5952 74.0159 19.5999C73.8036 19.6037 73.5979 19.6695 73.4284 19.7879C73.2959 19.8759 73.2599 19.9599 73.2844 19.9799Z" fill="#263238"/>
<path d="M71.8632 22.8117C71.8632 22.7904 71.6098 22.7544 71.1979 22.7144C71.0928 22.7064 70.9934 22.6891 70.9747 22.6237C70.9641 22.524 70.9862 22.4237 71.0381 22.3357C71.1317 22.0997 71.2282 21.8531 71.3261 21.5944C71.7322 20.5397 72.023 19.6731 71.977 19.6584C71.9309 19.6437 71.5651 20.4864 71.159 21.5411C71.063 21.8006 70.9699 22.0491 70.8797 22.2864C70.817 22.4043 70.8012 22.5388 70.835 22.6664C70.8514 22.6993 70.8756 22.7284 70.9057 22.7515C70.9359 22.7745 70.9713 22.791 71.0093 22.7997C71.0672 22.813 71.1267 22.8193 71.1864 22.8184C71.6054 22.8371 71.856 22.8344 71.8632 22.8117Z" fill="#263238"/>
<path d="M73.1318 18.6945C73.1879 18.7892 73.535 18.6785 73.9655 18.6585C74.3961 18.6385 74.7604 18.6959 74.7978 18.5959C74.8137 18.5479 74.7359 18.4625 74.579 18.3892C74.3766 18.3005 74.1529 18.2615 73.9295 18.2759C73.7082 18.2868 73.4939 18.3522 73.3089 18.4652C73.1678 18.5559 73.1073 18.6492 73.1318 18.6945Z" fill="#263238"/>
<path d="M69.1891 18.6463C69.2769 18.7317 69.611 18.6357 70.0171 18.6237C70.4232 18.6117 70.7673 18.6677 70.8436 18.5757C70.8782 18.5317 70.822 18.4423 70.6694 18.369C70.4598 18.2743 70.2279 18.2298 69.995 18.2396C69.762 18.2494 69.5354 18.3131 69.336 18.425C69.1948 18.517 69.1502 18.6063 69.1891 18.6463Z" fill="#263238"/>
<path d="M68.9011 17.6583C68.9011 17.6583 69.5678 16.1036 70.3627 15.7289C71.3246 15.2756 71.7638 16.2543 72.6854 15.9956C73.607 15.7369 74.5243 15.3036 75.4848 15.9489C76.5374 16.6543 76.0608 17.1729 76.1501 18.2636C76.5072 22.6863 77.4086 23.9209 77.6102 21.8316C77.6333 21.6023 78.3144 21.4076 78.3936 20.4409C78.4987 19.1863 78.516 17.6663 78.1949 16.7836C77.9242 16.0396 77.4518 15.5303 76.6109 14.9756C75.2861 14.1009 73.4933 14.1156 72.2794 14.2516C71.0654 14.3876 68.747 15.7329 68.9011 17.6583Z" fill="#263238"/>
<path d="M77.4402 21.7693C77.4412 21.6789 77.4621 21.5895 77.5015 21.5068C77.541 21.424 77.5982 21.3496 77.6698 21.2879C77.7413 21.2263 77.8256 21.1788 77.9176 21.1483C78.0096 21.1179 78.1074 21.105 78.2049 21.1107C78.7017 21.1453 79.2589 21.3947 79.2474 22.344C79.2258 24.028 77.4042 23.6613 77.4013 23.6133C77.3985 23.5653 77.4244 22.4733 77.4402 21.7693Z" fill="#AE7461"/>
<path d="M77.806 22.9839C77.806 22.9839 77.8377 23.0039 77.891 23.0279C77.9667 23.0562 78.0514 23.0562 78.1271 23.0279C78.3201 22.9652 78.4857 22.6839 78.4972 22.3812C78.5042 22.2367 78.4756 22.0926 78.4137 21.9599C78.3975 21.907 78.3677 21.8587 78.3268 21.8189C78.2859 21.7792 78.2352 21.7493 78.179 21.7319C78.1425 21.7227 78.1038 21.7255 78.0694 21.7399C78.035 21.7542 78.007 21.7792 77.9903 21.8105C77.9658 21.8572 77.9774 21.8919 77.9673 21.8945C77.9572 21.8972 77.9284 21.8652 77.9442 21.7959C77.9552 21.7544 77.9811 21.7177 78.0177 21.6919C78.0424 21.6743 78.0707 21.6616 78.1009 21.6545C78.1311 21.6474 78.1626 21.6461 78.1934 21.6505C78.268 21.6652 78.3373 21.6974 78.3946 21.7441C78.4519 21.7908 78.4951 21.8505 78.5202 21.9172C78.5956 22.0639 78.6312 22.2255 78.6239 22.3879C78.6081 22.7265 78.4166 23.0425 78.153 23.1105C78.1042 23.1227 78.053 23.1247 78.0032 23.1164C77.9534 23.1081 77.9062 23.0897 77.865 23.0625C77.8089 23.0239 77.7988 22.9865 77.806 22.9839Z" fill="#6F4439"/>
<path d="M77.328 18.5105C77.1091 18.682 76.8472 18.7998 76.5663 18.8532C76.2783 18.8852 75.9543 18.7398 75.8995 18.4798C75.8765 18.3625 75.8995 18.2265 75.8189 18.1372C75.7383 18.0478 75.5309 18.0692 75.3869 18.0865C75.1217 18.111 74.8554 18.0501 74.633 17.9141C74.4106 17.7781 74.2456 17.5753 74.1658 17.3398C74.0362 17.5292 73.7208 17.5265 73.5149 17.4092C73.309 17.2918 73.1722 17.0945 73.0095 16.9278C72.8467 16.7612 72.6178 16.6145 72.3787 16.6505C72.2448 16.6705 72.121 16.7478 71.9856 16.7385C71.7466 16.7238 71.6242 16.4718 71.5838 16.2492C71.5435 16.0265 71.509 15.7745 71.3045 15.6598C71.1 15.5452 70.8725 15.6212 70.6536 15.6598C70.4347 15.6985 70.1496 15.6518 70.0891 15.4545C70.0786 15.4014 70.0798 15.3468 70.0927 15.2941C70.1055 15.2414 70.1298 15.1916 70.164 15.1478C70.3068 14.9413 70.5208 14.7856 70.7712 14.706C71.0217 14.6263 71.2939 14.6275 71.5435 14.7092C71.6268 14.4274 71.7984 14.1748 72.0367 13.9832C72.2749 13.7917 72.5692 13.6699 72.8822 13.6333C73.1953 13.5966 73.513 13.6467 73.7953 13.7772C74.0776 13.9077 74.3117 14.1128 74.4682 14.3665C74.6579 14.2011 74.8878 14.0804 75.1386 14.0148C75.3893 13.9491 75.6534 13.9404 75.9086 13.9893C76.1638 14.0383 76.4024 14.1434 76.6044 14.2959C76.8064 14.4483 76.9657 14.6436 77.0688 14.8652C77.2901 14.8068 77.5251 14.81 77.7445 14.8744C77.9638 14.9387 78.158 15.0613 78.3027 15.227C78.4474 15.3927 78.5363 15.5941 78.5583 15.8061C78.5804 16.0182 78.5346 16.2316 78.4267 16.4198C78.7565 16.5865 79.0431 16.8825 79.0575 17.2305C79.0719 17.5785 78.7133 17.9318 78.3475 17.8478C78.4265 17.9837 78.4461 18.1425 78.4022 18.2914C78.3583 18.4402 78.2543 18.5678 78.1117 18.6476C77.969 18.7274 77.7987 18.7534 77.636 18.7202C77.4732 18.687 77.3305 18.5971 77.2373 18.4692" fill="#263238"/>
<path d="M71.4239 15.1997C71.4217 15.2098 71.4217 15.2203 71.4239 15.2304C71.4239 15.2504 71.4239 15.281 71.4369 15.3197C71.4652 15.4335 71.5139 15.5421 71.5809 15.641C71.6841 15.7987 71.825 15.9323 71.9927 16.0317C72.2139 16.1669 72.477 16.2311 72.7415 16.2144L72.7098 16.177C72.6582 16.3313 72.6748 16.4981 72.7559 16.641C72.8405 16.791 72.9488 16.9285 73.077 17.049C73.1385 17.119 73.208 17.1825 73.2844 17.2384C73.3706 17.2911 73.4695 17.3232 73.5724 17.3317C73.6791 17.3436 73.7873 17.3313 73.8876 17.2957C73.988 17.2602 74.0775 17.2025 74.1484 17.1277L74.0807 17.1104C74.1097 17.2848 74.1779 17.4517 74.2808 17.6003C74.3838 17.7489 74.5192 17.8759 74.6783 17.973C74.8534 18.0882 75.0641 18.1476 75.2788 18.1424C75.4805 18.1292 75.6782 18.0841 75.8634 18.009L75.8145 17.9904C75.9133 18.1922 76.0653 18.3678 76.2565 18.501C76.344 18.5692 76.4468 18.6182 76.5575 18.6445C76.6682 18.6708 76.7838 18.6737 76.8959 18.653C77.086 18.6115 77.2588 18.5192 77.3929 18.3877C77.527 18.2562 77.6166 18.0912 77.6505 17.913L77.6101 17.9317C77.8034 18.0227 78.0249 18.0486 78.2365 18.005C78.3947 17.9753 78.5429 17.9108 78.6685 17.817C78.7473 17.7584 78.8145 17.6875 78.8673 17.6077C78.8858 17.5801 78.9007 17.5505 78.9119 17.5197C78.8432 17.6252 78.7544 17.7182 78.6498 17.7944C78.5262 17.8813 78.3821 17.9398 78.2293 17.965C78.0281 18.0023 77.8193 17.9745 77.6375 17.8864L77.6029 17.869V17.905C77.5677 18.0716 77.4809 18.2252 77.353 18.3469C77.2252 18.4686 77.0618 18.5532 76.8829 18.5904C76.7817 18.6082 76.6775 18.6048 76.5779 18.5806C76.4782 18.5564 76.3857 18.5119 76.3069 18.4504C76.127 18.3233 75.9844 18.1564 75.8922 17.965L75.8778 17.9344L75.8433 17.9464C75.6655 18.017 75.4761 18.0589 75.2831 18.0704C75.0847 18.0753 74.89 18.0201 74.7287 17.913C74.579 17.8213 74.4515 17.7017 74.3543 17.5619C74.2572 17.4222 74.1924 17.2652 74.1642 17.101L74.1513 17.021L74.0951 17.0837C74.0318 17.15 73.9521 17.2011 73.8628 17.2327C73.7736 17.2643 73.6774 17.2754 73.5825 17.265C73.4911 17.2577 73.4031 17.2298 73.3261 17.1837C73.2543 17.1312 73.1886 17.0717 73.1303 17.0064C73.006 16.891 72.9007 16.7594 72.8178 16.6157C72.7799 16.5525 72.756 16.4829 72.7476 16.411C72.7392 16.3391 72.7464 16.2663 72.7689 16.197L72.7833 16.1557H72.7372C72.4844 16.1744 72.2318 16.1169 72.0172 15.9917C71.8531 15.898 71.7134 15.7719 71.6082 15.6224C71.5205 15.4926 71.4581 15.3495 71.4239 15.1997Z" fill="#455A64"/>
<path d="M73.2715 22.9425C73.2067 22.9492 73.2816 23.3425 72.9691 23.6879C72.6566 24.0332 72.1915 24.0612 72.1987 24.1172C72.1987 24.1425 72.3153 24.1772 72.5083 24.1505C72.7602 24.1124 72.9896 23.9935 73.1563 23.8145C73.3138 23.644 73.3947 23.424 73.3824 23.1999C73.3665 23.0265 73.296 22.9332 73.2715 22.9425Z" fill="#263238"/>
<path d="M58.4222 42.0905C58.6526 42.0052 66.263 41.1572 66.263 41.1572L69.3504 38.7358L69.0624 45.7438L59.3453 46.6105L58.4222 42.0905Z" fill="#048C56"/>
<path opacity="0.3" d="M67.9852 39.8076C67.8931 39.8503 67.1299 40.4743 67.1299 40.4743L67.3632 45.8703L67.9852 39.8076Z" fill="black"/>
<path d="M80.951 52.4971H68.0975C68.0975 52.4971 68.7772 55.8557 69.0292 57.4024C69.1707 58.2967 69.378 59.181 69.6499 60.0491H81.2923C81.2923 60.0491 82.1563 58.0984 82.3132 56.8491C82.4702 55.5997 80.951 52.4971 80.951 52.4971Z" fill="#263238"/>
<path d="M67.14 52.9023C67.14 52.9023 66.78 56.7303 67.14 60.049H71.5925V56.9917L67.14 52.9023Z" fill="#263238"/>
<path d="M69.6139 34.133L70.9992 31.333L71.1705 29.5997C71.1705 29.5997 73.8273 28.053 75.0873 27.4664C76.05 27.0423 77.0386 26.6706 78.048 26.353V27.9904L69.6139 34.133Z" fill="#EBEBEB"/>
<path d="M81.1914 48.4838C81.1914 48.4838 81.9445 39.1211 81.9949 38.4251C81.9949 38.4251 82.4399 33.4225 81.4809 31.5185C80.5218 29.6145 78.3748 27.9385 78.3748 27.9385L78.1761 26.9385L73.9842 29.3865L72.046 30.9465C71.3802 31.6053 70.7689 32.3095 70.2172 33.0531C69.6671 33.7585 69.0551 34.6651 68.7772 35.8051C68.6778 36.2225 67.5244 41.2065 67.4898 44.6798C67.4898 44.6798 67.3127 47.7118 67.1226 49.4278C66.8893 51.5531 66.5322 56.3971 66.61 59.2665L80.2079 58.8825C83.566 58.4078 82.9756 58.0985 82.9756 58.0985L81.1914 48.4838Z" fill="#048C56"/>
<path d="M78.0479 27.9902L77.9543 28.0302L77.6764 28.1369C77.5583 28.1902 77.4143 28.2596 77.2444 28.3409C77.0745 28.4222 76.8887 28.5302 76.6885 28.6622C75.5764 29.3884 74.5727 30.2474 73.7034 31.2169L73.6962 31.2262H73.6847L72.3801 31.4489L72.4089 31.4182C72.3887 31.9796 72.3671 32.5676 72.3441 33.1769V33.1902L72.3325 33.2009C71.6392 33.802 70.9983 34.4529 70.4159 35.1476C70.1736 35.4389 69.9542 35.7459 69.7593 36.0662L69.6873 36.1849L69.634 36.3089C69.5957 36.3906 69.5626 36.4743 69.5346 36.5596C69.477 36.7302 69.4194 36.8996 69.3719 37.0702C69.1717 37.7502 69.0047 38.4142 68.8492 39.0462C68.541 40.3116 68.2833 41.4556 68.0687 42.4156C67.6367 44.3382 67.402 45.5316 67.402 45.5316C67.408 45.4582 67.4181 45.3853 67.4322 45.3129C67.4553 45.1702 67.4941 44.9596 67.546 44.6889C67.6525 44.1489 67.8109 43.3689 68.0169 42.4062C68.2228 41.4436 68.4762 40.2996 68.7829 39.0329C68.9356 38.3996 69.1012 37.7356 69.3013 37.0529C69.3489 36.8809 69.4065 36.7102 69.4655 36.5382C69.4933 36.4512 69.5264 36.3657 69.5649 36.2822L69.621 36.1489L69.693 36.0276C69.8891 35.7017 70.111 35.3897 70.3569 35.0942C70.9442 34.4005 71.5899 33.7509 72.2879 33.1516L72.2764 33.1756C72.2994 32.5662 72.3225 31.9756 72.3441 31.4169V31.3916H72.3714L73.6761 31.1729L73.6573 31.1836C74.5326 30.2124 75.5465 29.3561 76.6713 28.6382C76.8729 28.5049 77.0701 28.4129 77.2343 28.3222C77.3985 28.2316 77.5511 28.1756 77.6663 28.1249L77.9471 28.0249L78.0479 27.9902Z" fill="#263238"/>
<path d="M73.4831 35.3891L73.6473 47.8811L71.5924 60.0491H77.0082C77.0082 60.0491 79.4706 50.8105 80.0438 48.8691C80.5996 46.9838 81.4348 37.4945 81.5082 37.0291C81.537 36.8465 82.1246 33.5625 80.3951 32.0225" fill="#048C56"/>
<path d="M80.3951 32.0225C80.3951 32.0225 80.4354 32.0571 80.5089 32.1265C80.6166 32.232 80.7157 32.3448 80.8055 32.4638C81.1388 32.9291 81.3684 33.4513 81.4809 33.9998C81.6621 34.8683 81.697 35.7574 81.5846 36.6358C81.5025 37.1465 81.4622 37.6945 81.4031 38.2771C81.3441 38.8598 81.285 39.4771 81.2217 40.1211C81.0921 41.4145 80.9466 42.8318 80.771 44.3518C80.6802 45.1105 80.5866 45.8971 80.47 46.7051C80.3695 47.5392 80.2103 48.3663 79.9934 49.1811C79.0876 52.5145 78.0926 56.1918 77.0457 60.0531V60.0798H71.5492V60.0411C72.3095 55.5531 73.0122 51.4105 73.6113 47.8745C73.5681 44.0918 73.5321 40.9691 73.5062 38.7905C73.4961 37.7025 73.4874 36.8518 73.4817 36.2691C73.4817 35.9811 73.4817 35.7598 73.4817 35.6025C73.4817 35.4451 73.4817 35.3771 73.4817 35.3771C73.4817 35.3771 73.4817 35.4531 73.4903 35.6025C73.499 35.7518 73.4975 35.9758 73.5033 36.2691C73.5119 36.8505 73.5263 37.7025 73.545 38.7905C73.5753 40.9691 73.6214 44.0918 73.6761 47.8745C73.0799 51.4118 72.3801 55.5545 71.627 60.0438L71.591 60.0038H77.0068L76.9708 60.0291L79.9257 49.1585C80.1427 48.3463 80.3024 47.5219 80.4038 46.6905C80.5204 45.8838 80.6154 45.0971 80.7076 44.3385C80.8862 42.8198 81.0345 41.4051 81.1684 40.1105C81.2337 39.4633 81.2956 38.8487 81.3542 38.2665C81.4161 37.6865 81.4593 37.1318 81.5414 36.6238C81.6563 35.7496 81.6262 34.8642 81.4521 33.9985C81.3432 33.4507 81.1186 32.9283 80.7911 32.4611C80.7041 32.3415 80.6078 32.2279 80.5031 32.1211C80.4311 32.0611 80.3951 32.0225 80.3951 32.0225Z" fill="#263238"/>
<path d="M76.3488 49.1104C76.2054 49.0861 76.065 49.0485 75.9297 48.9984C75.6748 48.9184 75.3278 48.7957 74.952 48.6411C74.5761 48.4864 74.2449 48.3304 74.0102 48.2091C73.8789 48.1502 73.7545 48.0792 73.6387 47.9971C73.7751 48.0442 73.9075 48.1008 74.0347 48.1664C74.2752 48.2757 74.6107 48.4237 74.9822 48.5784C75.3537 48.7331 75.7022 48.8611 75.9484 48.9531C76.0857 48.9966 76.2195 49.0492 76.3488 49.1104Z" fill="#263238"/>
<path d="M67.0752 49.9385C67.0736 49.9279 67.0736 49.9171 67.0752 49.9065C67.0752 49.8798 67.0752 49.8491 67.0752 49.8105C67.0752 49.7211 67.0867 49.5985 67.0968 49.4425C67.1184 49.1185 67.1501 48.6585 67.1889 48.0918C67.2725 46.9518 67.3905 45.3771 67.5576 43.6411C67.7246 41.9051 67.9147 40.3331 68.0717 39.1998C68.1494 38.6331 68.2157 38.1745 68.2661 37.8585C68.2905 37.7051 68.3107 37.5838 68.3251 37.4945C68.3323 37.4571 68.3381 37.4265 68.3424 37.4011C68.3435 37.3901 68.3464 37.3793 68.351 37.3691C68.351 37.3691 68.351 37.3798 68.351 37.4011C68.351 37.4225 68.351 37.4585 68.3409 37.4971C68.3309 37.5865 68.315 37.7078 68.2963 37.8625C68.2545 38.1851 68.1969 38.6438 68.1249 39.2065C67.9809 40.3411 67.7995 41.9105 67.6325 43.6465C67.4654 45.3825 67.3445 46.9571 67.2437 48.0958C67.1947 48.6611 67.1544 49.1198 67.127 49.4451C67.1126 49.5998 67.0997 49.7225 67.091 49.8118C67.091 49.8505 67.0838 49.8811 67.0809 49.9065C67.0811 49.9174 67.0792 49.9282 67.0752 49.9385Z" fill="#263238"/>
<path d="M78.0479 30.4462C77.9094 30.1016 77.7388 29.7688 77.5381 29.4516C77.3154 29.1469 77.0654 28.8601 76.7908 28.5942C76.8929 28.6497 76.9856 28.7189 77.0658 28.7996C77.2699 28.9842 77.4497 29.1906 77.6015 29.4142C77.7538 29.6376 77.8766 29.8771 77.9672 30.1276C78.0107 30.2296 78.0379 30.3369 78.0479 30.4462Z" fill="#263238"/>
<path d="M68.4878 45.9677C68.5021 45.9959 68.5066 46.0276 68.5008 46.0583C68.4914 46.1444 68.4496 46.2246 68.3827 46.285C68.3328 46.3316 68.2696 46.3641 68.2005 46.3787C68.1315 46.3933 68.0593 46.3895 67.9925 46.3677C67.9127 46.3424 67.8426 46.2961 67.7909 46.2343C67.7361 46.1668 67.7077 46.0841 67.7102 45.9997C67.7101 45.895 67.7465 45.793 67.8139 45.709C67.8472 45.669 67.8907 45.6374 67.9406 45.617C67.9925 45.5997 68.0299 45.5903 68.0731 45.5783H68.0832C68.1758 45.5756 68.267 45.5998 68.3438 45.6477C68.4016 45.6871 68.444 45.7427 68.4648 45.8063C68.4871 45.8579 68.495 45.9138 68.4878 45.969C68.4778 45.969 68.4706 45.9103 68.4288 45.8197C68.4058 45.7655 68.3657 45.719 68.3136 45.6863C68.2439 45.6488 68.1637 45.6311 68.0832 45.6357H68.0933C68.0544 45.649 68.004 45.6623 67.968 45.6757C67.9299 45.6931 67.8968 45.7187 67.8715 45.7503C67.8159 45.8233 67.7857 45.9103 67.7851 45.9997C67.7838 46.0667 67.8053 46.1325 67.8467 46.1875C67.8881 46.2426 67.9471 46.2842 68.0155 46.3063C68.071 46.3261 68.1314 46.3312 68.1899 46.3211C68.2484 46.311 68.3027 46.286 68.3467 46.249C68.4097 46.198 68.4536 46.1299 68.472 46.0543C68.485 45.9997 68.4806 45.969 68.4878 45.9677Z" fill="#263238"/>
<path d="M68.2862 50.3851C68.3005 50.4134 68.305 50.4451 68.2991 50.4758C68.2904 50.562 68.2485 50.6425 68.1811 50.7025C68.1312 50.7492 68.0681 50.7818 67.9989 50.7964C67.9298 50.811 67.8576 50.8071 67.7908 50.7851C67.7113 50.7593 67.6414 50.713 67.5892 50.6518C67.5345 50.5843 67.506 50.5016 67.5086 50.4171C67.5088 50.3125 67.5451 50.2107 67.6123 50.1265C67.6455 50.0865 67.6891 50.0548 67.739 50.0345C67.7908 50.0171 67.8283 50.0078 67.8715 49.9958H67.8815C67.9741 49.9931 68.0653 50.0173 68.1422 50.0651C68.1999 50.1046 68.2424 50.1602 68.2631 50.2238C68.2854 50.2754 68.2933 50.3313 68.2862 50.3865C68.2775 50.3865 68.2689 50.3278 68.2271 50.2371C68.2048 50.1826 68.1645 50.136 68.1119 50.1038C68.0422 50.0663 67.9621 50.0486 67.8815 50.0531H67.8916C67.8527 50.0665 67.8023 50.0798 67.7678 50.0931C67.729 50.1102 67.6954 50.1358 67.6699 50.1678C67.6142 50.2408 67.5841 50.3278 67.5835 50.4171C67.5821 50.4842 67.6037 50.55 67.645 50.605C67.6864 50.6601 67.7455 50.7017 67.8139 50.7238C67.8694 50.7436 67.9298 50.7487 67.9882 50.7386C68.0467 50.7285 68.101 50.7035 68.1451 50.6665C68.2081 50.6155 68.2519 50.5474 68.2703 50.4718C68.2833 50.4185 68.279 50.3865 68.2862 50.3851Z" fill="#263238"/>
<path d="M79.786 31.2839C79.7788 31.2959 79.6003 31.1892 79.2835 31.0772C79.0965 31.0117 78.9038 30.9613 78.7075 30.9265C78.47 30.8857 78.2289 30.866 77.9875 30.8679C77.7453 30.8724 77.5043 30.8983 77.2675 30.9452C77.0746 30.9854 76.8857 31.0407 76.703 31.1105C76.3905 31.2305 76.2148 31.3412 76.2062 31.3292C76.242 31.297 76.2821 31.2692 76.3257 31.2465C76.3714 31.2153 76.4195 31.1872 76.4697 31.1625C76.5365 31.1268 76.6052 31.0944 76.6756 31.0652C76.8609 30.9875 77.0538 30.9263 77.2516 30.8825C77.7341 30.775 78.2364 30.7686 78.7219 30.8639C78.919 30.9034 79.1118 30.9596 79.2979 31.0319C79.3693 31.0589 79.439 31.0896 79.5067 31.1239C79.5598 31.1467 79.6108 31.1734 79.6593 31.2039C79.7052 31.2252 79.7478 31.2521 79.786 31.2839Z" fill="#263238"/>
<g opacity="0.3">
<path d="M67.9219 42.9689C68.508 42.1783 68.724 41.4329 69.0379 40.5183C69.503 39.1596 69.6326 37.6249 70.3641 36.3703C70.7961 35.6316 71.3001 34.8743 72.0489 34.3996C72.7977 33.9249 72.887 33.3503 72.8726 31.7623C73.3953 31.7623 73.9468 31.3943 74.0116 31.3289C74.317 31.0108 74.5366 30.6302 74.6524 30.2183C74.2867 30.5876 73.6761 31.1983 73.6761 31.1983C73.6761 31.1983 72.3528 31.4263 72.3715 31.4183C72.3398 32.0289 72.3384 32.5663 72.3052 33.1769C72.3052 33.1769 69.7665 35.6716 69.5692 36.1729C69.372 36.6743 67.9219 42.9689 67.9219 42.9689Z" fill="black"/>
</g>
<g opacity="0.3">
<path d="M77.3481 58.5413C80.5665 52.9026 81.5659 45.488 81.3801 38.4253C81.3801 38.4253 80.4571 47.0106 80.1446 48.484C79.8321 49.9573 77.3481 58.5413 77.3481 58.5413Z" fill="black"/>
</g>
<path d="M77.8392 27.0825C77.8177 27.1027 77.7935 27.1201 77.7672 27.1345L77.5526 27.2679L76.752 27.7532L74.1153 29.3332L72.9763 29.9999L72.6134 30.2665C72.4983 30.3449 72.3896 30.4309 72.288 30.5239C72.0878 30.7025 71.9107 30.8759 71.7508 31.0332L71.722 31.0612L71.7062 31.0265L71.2915 30.1332C71.2468 30.0332 71.2108 29.9519 71.182 29.8892C71.1673 29.8616 71.1562 29.8325 71.1489 29.8025C71.1682 29.8278 71.1841 29.8551 71.1964 29.8839C71.2281 29.9439 71.2684 30.0172 71.3188 30.1212L71.7508 31.0012L71.7062 30.9945C71.8632 30.8345 72.0388 30.6585 72.239 30.4772C72.3411 30.3808 72.4508 30.2917 72.5673 30.2105L72.9288 29.9439L74.0664 29.2679L76.7203 27.7092L77.5296 27.2425L77.7513 27.1199C77.7792 27.1047 77.8086 27.0922 77.8392 27.0825Z" fill="#263238"/>
<path d="M10.1276 21.2869C10.1103 21.2962 9.49832 20.3122 8.7596 19.0909C8.02088 17.8695 7.43768 16.8722 7.45496 16.8629C7.47224 16.8535 8.08424 17.8362 8.82296 19.0589C9.56168 20.2815 10.1449 21.2775 10.1276 21.2869Z" fill="#263238"/>
<path d="M12.1954 17.0469C12.2156 17.0469 12.1868 17.8002 12.1306 18.7282C12.0744 19.6562 12.014 20.4069 11.9952 20.4055C11.9765 20.4042 12.0039 19.6522 12.06 18.7242C12.1162 17.7962 12.1752 17.0455 12.1954 17.0469Z" fill="#263238"/>
<path d="M8.64868 22.3295C8.64148 22.3468 7.95172 22.1468 7.10644 21.8815C6.26116 21.6161 5.58148 21.3895 5.58868 21.3721C5.59588 21.3548 6.2842 21.5548 7.12948 21.8188C7.97476 22.0828 8.65444 22.3121 8.64868 22.3295Z" fill="#263238"/>
<path d="M18.9966 24.22C18.5839 23.3478 17.9258 22.5943 17.0912 22.0381C16.2566 21.482 15.2759 21.1435 14.2518 21.0581C13.2276 20.9726 12.1974 21.1434 11.2689 21.5526C10.3403 21.9618 9.54748 22.5943 8.97313 23.3841C8.39878 24.1739 8.064 25.092 8.00376 26.0425C7.94352 26.993 8.16004 27.9411 8.63069 28.7876C9.10134 29.6342 9.80886 30.3482 10.6793 30.8551C11.5498 31.362 12.5514 31.6432 13.5793 31.6693L14.1553 32.8986L18.7633 31.032C18.7633 31.032 18.4652 30.332 18.1873 29.712C18.8546 28.954 19.2831 28.0402 19.4259 27.0713C19.5687 26.1024 19.4201 25.1158 18.9966 24.22Z" fill="#048C56"/>
<path d="M18.0807 31.3082C18.0807 31.3082 18.0663 31.2882 18.0432 31.2508C18.0202 31.2135 17.9828 31.1562 17.9381 31.0828C17.846 30.9335 17.712 30.7135 17.5436 30.4282C17.2109 29.8562 16.74 29.0202 16.226 27.9602C16.0964 27.6935 15.9639 27.4162 15.8314 27.1228C15.7652 26.9762 15.6989 26.8268 15.6298 26.6748C15.5518 26.5213 15.4993 26.3576 15.4743 26.1895C15.4648 26.0988 15.4792 26.0073 15.516 25.9228C15.5334 25.8797 15.5599 25.8402 15.594 25.8068C15.6282 25.7733 15.6692 25.7466 15.7148 25.7282C15.7624 25.714 15.8127 25.7094 15.8623 25.7147C15.912 25.72 15.9599 25.735 16.0028 25.7588C16.0907 25.8057 16.1625 25.8746 16.2101 25.9575C16.2544 26.0436 16.2765 26.138 16.2747 26.2333C16.273 26.3286 16.2474 26.4222 16.2 26.5068C16.1089 26.6821 15.9609 26.8266 15.7767 26.9202C15.5888 27.0177 15.3736 27.0609 15.1589 27.0442C14.9394 27.0258 14.7303 26.9489 14.557 26.8228C14.3788 26.6977 14.2368 26.5338 14.1437 26.3455C14.0933 26.251 14.0611 26.149 14.0487 26.0442C14.0308 25.9356 14.0575 25.8247 14.1236 25.7335C14.1602 25.6889 14.2103 25.6555 14.2676 25.6375C14.3247 25.6203 14.3855 25.6161 14.4447 25.6255C14.5632 25.6432 14.672 25.6966 14.7543 25.7775C14.8361 25.8564 14.9046 25.9463 14.9573 26.0442C15.0111 26.1399 15.0592 26.2382 15.1013 26.3388C15.1935 26.5416 15.2522 26.756 15.2756 26.9748C15.3024 27.1987 15.261 27.425 15.156 27.6282C15.102 27.728 15.0293 27.8183 14.9415 27.8948C14.8525 27.9724 14.7457 28.0303 14.629 28.0642C14.5119 28.0954 14.3883 28.0996 14.269 28.0762C14.1515 28.0512 14.0401 28.006 13.9407 27.9428C13.7466 27.821 13.5754 27.6706 13.4338 27.4975C13.3618 27.4148 13.2898 27.3282 13.2293 27.2415C13.1613 27.1575 13.1011 27.0683 13.0493 26.9748C12.9964 26.8777 12.9768 26.7679 12.9932 26.6602C13.0031 26.606 13.0268 26.5548 13.0623 26.5108C13.098 26.4676 13.149 26.4374 13.2063 26.4255C13.2649 26.4159 13.3253 26.4234 13.3791 26.4468C13.4316 26.4676 13.4802 26.4959 13.5231 26.5308C13.6071 26.5978 13.6799 26.676 13.7391 26.7628C13.9993 27.0902 14.1309 27.4901 14.112 27.8962C14.0929 28.0874 14.0215 28.2709 13.9047 28.4295C13.7909 28.5878 13.6239 28.7069 13.4295 28.7682C13.2381 28.8204 13.0326 28.8042 12.8535 28.7228C12.6778 28.6495 12.532 28.5262 12.4373 28.3708C12.391 28.2954 12.3602 28.2127 12.3466 28.1268C12.3315 28.0401 12.3488 27.9512 12.3956 27.8748C12.4211 27.8369 12.4599 27.8082 12.5055 27.7937C12.5511 27.7791 12.6008 27.7795 12.6461 27.7948C12.7301 27.8251 12.8037 27.8758 12.8592 27.9415C12.9606 28.0653 13.0462 28.1995 13.1141 28.3415L13.3301 28.7415C13.8903 29.7828 14.3266 30.6322 14.6175 31.2242C14.7615 31.5202 14.8709 31.7575 14.9429 31.9095C14.9775 31.9882 15.0048 32.0428 15.0236 32.0895L15.0495 32.1508L15.0192 32.0908C15.0005 32.0495 14.9717 31.9908 14.9357 31.9122C14.8608 31.7562 14.75 31.5255 14.6016 31.2308C14.3136 30.6402 13.8672 29.7935 13.3056 28.7548C13.2351 28.6215 13.1616 28.4882 13.0882 28.3548C13.0221 28.2125 12.9375 28.0782 12.8362 27.9548C12.7841 27.8947 12.7155 27.8486 12.6375 27.8215C12.5989 27.8087 12.5568 27.8084 12.518 27.8208C12.4793 27.8332 12.4462 27.8574 12.4244 27.8895C12.3809 27.9641 12.3666 28.0503 12.384 28.1335C12.3978 28.2156 12.4276 28.2946 12.4719 28.3668C12.5632 28.5163 12.7041 28.6346 12.8736 28.7042C13.0452 28.782 13.2421 28.7973 13.4252 28.7468C13.6121 28.6883 13.7724 28.5732 13.8802 28.4202C13.994 28.265 14.0633 28.0856 14.0818 27.8988C14.0999 27.506 13.9746 27.119 13.7261 26.8002C13.6688 26.716 13.5985 26.6401 13.5173 26.5748C13.4798 26.5402 13.4347 26.5136 13.3849 26.4968C13.3352 26.4799 13.2821 26.4734 13.2293 26.4775C13.179 26.4895 13.1339 26.5157 13.1004 26.5525C13.0668 26.5893 13.0465 26.6349 13.0421 26.6828C13.0268 26.7829 13.0454 26.885 13.0954 26.9748C13.1454 27.0683 13.2042 27.1576 13.2711 27.2415C13.3359 27.3282 13.4036 27.4135 13.4756 27.4948C13.6141 27.6612 13.7804 27.8061 13.968 27.9242C14.0645 27.9821 14.1713 28.0236 14.2834 28.0468C14.396 28.0685 14.5125 28.0648 14.6232 28.0362C14.7335 28.0008 14.8349 27.9451 14.9212 27.8725C15.0076 27.7998 15.0772 27.7117 15.1258 27.6135C15.2271 27.4164 15.2665 27.197 15.2396 26.9802C15.2173 26.7654 15.16 26.555 15.0696 26.3562C14.9935 26.1559 14.8778 25.9706 14.7284 25.8095C14.6519 25.7342 14.5506 25.6845 14.4404 25.6682C14.3877 25.6572 14.3328 25.6601 14.2819 25.6766C14.231 25.6931 14.1861 25.7225 14.1524 25.7615C14.0921 25.845 14.068 25.9463 14.0847 26.0455C14.0974 26.1459 14.1281 26.2437 14.1754 26.3348C14.269 26.5191 14.4105 26.679 14.5872 26.8002C14.7532 26.9211 14.9531 26.9956 15.1632 27.0148C15.3703 27.0312 15.5779 26.9899 15.7594 26.8962C15.9375 26.8057 16.0805 26.6658 16.1684 26.4962C16.2131 26.4163 16.2374 26.328 16.2394 26.2381C16.2414 26.1481 16.221 26.059 16.1799 25.9775C16.135 25.9002 16.0676 25.836 15.9855 25.7922C15.9469 25.7696 15.9033 25.7553 15.858 25.7502C15.8127 25.7451 15.7667 25.7494 15.7234 25.7628C15.6406 25.7971 15.5759 25.8604 15.5434 25.9388C15.5098 26.0171 15.4965 26.1016 15.5045 26.1855C15.5289 26.3504 15.5804 26.511 15.6572 26.6615L15.8559 27.1108C15.9884 27.4024 16.1189 27.6811 16.2476 27.9468C16.7588 29.0135 17.2253 29.8455 17.5536 30.4202C17.7192 30.7068 17.8503 30.9268 17.941 31.0775L18.0418 31.2482C18.0692 31.2868 18.0807 31.3082 18.0807 31.3082Z" fill="white"/>
<path d="M14.0343 31.2961C14.011 31.3002 13.9874 31.3025 13.9637 31.3027C13.9176 31.3027 13.8485 31.3107 13.7607 31.3107C13.5117 31.3141 13.2629 31.3003 13.0162 31.2694C12.6496 31.2256 12.289 31.1461 11.9405 31.0321C10.7238 30.6382 9.70132 29.8515 9.0605 28.8161C8.93638 28.6165 8.82809 28.4088 8.7365 28.1947C8.70338 28.1187 8.68322 28.0614 8.66738 28.0187C8.6591 27.9983 8.65237 27.9773 8.64722 27.9561C8.65824 27.9754 8.66786 27.9955 8.67602 28.0161C8.6933 28.0547 8.71634 28.1147 8.75234 28.1894C8.84913 28.4004 8.96073 28.6052 9.08642 28.8027C9.2727 29.0959 9.49027 29.3711 9.73586 29.6241C10.2452 30.1451 10.8658 30.5625 11.5583 30.8501C12.2508 31.1377 13.0003 31.2891 13.7592 31.2947C13.8471 31.2947 13.9162 31.2947 13.9623 31.2947L14.0343 31.2961Z" fill="#263238"/>
<path d="M8.4327 26.9336C8.46946 27.019 8.4932 27.1088 8.50326 27.2003C8.52676 27.2901 8.53693 27.3825 8.5335 27.4749C8.49674 27.3895 8.473 27.2997 8.46294 27.2083C8.43864 27.1185 8.42846 27.026 8.4327 26.9336Z" fill="#263238"/>
<path d="M18.949 25.588C18.9426 25.5701 18.9374 25.5519 18.9332 25.5334C18.9245 25.4934 18.9116 25.4414 18.8957 25.376C18.8885 25.3414 18.8799 25.3027 18.8698 25.2614C18.8597 25.22 18.8439 25.176 18.8295 25.128C18.7993 25.017 18.7628 24.9075 18.7201 24.8L18.6481 24.6147C18.6221 24.5507 18.5876 24.4814 18.5559 24.4187C18.4954 24.2854 18.4119 24.1454 18.3284 23.9987C17.9444 23.3714 17.4219 22.8262 16.7948 22.3987C16.6508 22.3054 16.5068 22.2107 16.3714 22.14C16.3037 22.1027 16.2389 22.0627 16.1741 22.032L15.9841 21.9427C15.8645 21.8827 15.7493 21.844 15.6514 21.8094C15.601 21.7907 15.5549 21.7707 15.5074 21.756L15.3879 21.7187L15.2223 21.6654C15.2026 21.6606 15.1837 21.6535 15.1661 21.644C15.1862 21.6475 15.206 21.6524 15.2252 21.6587L15.3922 21.704L15.5132 21.7387C15.5578 21.7534 15.6039 21.7707 15.6572 21.7894C15.7565 21.828 15.8732 21.8654 15.9941 21.9227L16.1857 22.0094C16.2519 22.04 16.3167 22.08 16.3873 22.116C16.5361 22.1952 16.6803 22.2815 16.8193 22.3747C17.4539 22.8016 17.9806 23.3512 18.3629 23.9854C18.4461 24.1235 18.5216 24.2654 18.589 24.4107C18.6193 24.4787 18.6538 24.544 18.6797 24.608L18.7503 24.7947C18.791 24.9014 18.8256 25.01 18.854 25.12C18.8669 25.1694 18.8813 25.2134 18.8914 25.2534C18.9015 25.2934 18.9073 25.3334 18.913 25.368C18.9255 25.4347 18.9356 25.488 18.9433 25.528C18.9471 25.5478 18.949 25.5679 18.949 25.588Z" fill="#263238"/>
<g opacity="0.2">
<path d="M11.8757 22.9335C11.687 22.7655 11.3731 22.7161 11.0448 22.7535C10.5755 22.8127 10.1502 23.0407 9.86113 23.3881C8.99713 24.3961 8.67024 25.3201 8.8344 26.6601C8.88912 27.1135 9.13536 27.8015 9.5328 28.1068C9.63084 28.1855 9.74545 28.2445 9.86938 28.2801C9.99332 28.3157 10.1239 28.327 10.2528 28.3135C10.9224 28.2321 11.1413 27.5055 11.0837 26.9201C11.029 26.3748 10.8374 25.8135 11.0261 25.2948C11.183 24.8668 11.5704 24.5535 11.8397 24.1775C12.109 23.8015 12.227 23.2521 11.8757 22.9335Z" fill="white"/>
</g>
<g opacity="0.2">
<path d="M13.8947 21.8936C13.5534 21.6602 13.0062 21.7283 12.7772 21.9629C12.6855 22.0626 12.6193 22.1803 12.5836 22.3071C12.548 22.4338 12.5437 22.5664 12.5713 22.6949C12.6106 22.8487 12.6981 22.9882 12.8229 23.0959C12.9477 23.2036 13.1042 23.2747 13.2726 23.3003C13.442 23.3186 13.6134 23.287 13.7624 23.2099C13.9113 23.1328 14.0301 23.0142 14.102 22.8709C14.2374 22.5816 14.1683 22.0802 13.8947 21.8936Z" fill="white"/>
</g>
<path d="M16.6177 34.8534C16.7625 34.8762 16.9031 34.9179 17.0353 34.9774C17.0806 34.9999 17.131 35.0124 17.1824 35.014C17.2339 35.0157 17.285 35.0063 17.3319 34.9867L18.2593 34.6094C18.3104 34.5888 18.3553 34.5568 18.3899 34.5163C18.4246 34.4759 18.448 34.4282 18.458 34.3774C18.4801 34.2392 18.554 34.1127 18.6668 34.02L16.6177 34.8534Z" fill="#263238"/>
<path d="M14.4792 32.8694C14.4879 32.8867 15.3432 34.1414 15.6644 34.62C15.7289 34.7183 15.819 34.8 15.9264 34.8577C16.0338 34.9155 16.1551 34.9475 16.2792 34.9507C16.3783 34.9523 16.4765 34.9341 16.5672 34.8974L18.5962 34.072C18.5962 34.072 19.1261 33.8574 19.0628 33.4187C18.9936 32.9574 18.4695 31.248 18.4695 31.248L14.4792 32.8694Z" fill="#E0E0E0"/>
<path d="M19.012 32.9926L15.4824 34.4409C15.4271 34.4636 15.4022 34.5234 15.4267 34.5746L15.4319 34.5855C15.4564 34.6367 15.521 34.6598 15.5763 34.6371L19.1059 33.1889C19.1612 33.1662 19.1861 33.1064 19.1616 33.0552L19.1564 33.0442C19.1319 32.9931 19.0672 32.97 19.012 32.9926Z" fill="#E0E0E0"/>
<path d="M19.1059 33.1869C19.1305 33.1739 19.1497 33.1537 19.1606 33.1296C19.1664 33.1149 19.1683 33.0991 19.1663 33.0836C19.1643 33.0681 19.1584 33.0532 19.1491 33.0402C19.1391 33.0218 19.1228 33.007 19.1028 32.9981C19.0827 32.9891 19.06 32.9866 19.0382 32.9909C18.8453 33.0655 18.563 33.1882 18.2146 33.3309L15.4915 34.4549C15.4777 34.4603 15.4655 34.4689 15.4562 34.4799C15.4469 34.4908 15.4407 34.5038 15.4382 34.5176C15.4347 34.5311 15.4347 34.5453 15.4382 34.5589C15.4434 34.5723 15.4507 34.5848 15.4598 34.5962C15.4698 34.6067 15.4823 34.6148 15.4963 34.6199C15.5104 34.625 15.5255 34.6269 15.5405 34.6256C15.5727 34.6166 15.604 34.6049 15.6341 34.5909L16.0171 34.4336L16.7371 34.1376L17.964 33.6389L18.7934 33.3042L19.0195 33.2149L19.0786 33.1936C19.0915 33.1936 19.0987 33.1856 19.0987 33.1936L19.08 33.2029L19.0224 33.2282L18.7992 33.3242L17.9755 33.6682L16.7515 34.1735L16.0315 34.4722L15.6485 34.6296L15.5995 34.6496C15.5821 34.6573 15.5637 34.6631 15.5448 34.6669C15.5237 34.669 15.5023 34.6663 15.4825 34.6591C15.4627 34.6519 15.445 34.6404 15.431 34.6256C15.4181 34.611 15.4084 34.5942 15.4022 34.5762C15.3965 34.5575 15.3965 34.5376 15.4022 34.5189C15.4055 34.4993 15.414 34.4808 15.4271 34.4652C15.4402 34.4496 15.4574 34.4373 15.4771 34.4296L18.2045 33.3149C18.5544 33.1749 18.8338 33.0576 19.0354 32.9842C19.0601 32.9799 19.0857 32.9834 19.1081 32.994C19.1305 33.0046 19.1485 33.0218 19.1592 33.0429C19.1686 33.0572 19.1742 33.0733 19.1757 33.0899C19.1772 33.1066 19.1745 33.1234 19.1678 33.1389C19.1617 33.1505 19.1531 33.1607 19.1424 33.169C19.1317 33.1772 19.1193 33.1833 19.1059 33.1869Z" fill="#263238"/>
<path d="M18.8849 32.539L15.2065 34.0483C15.1512 34.071 15.1263 34.1308 15.1508 34.182L15.156 34.193C15.1805 34.2441 15.2452 34.2672 15.3004 34.2446L18.9788 32.7353C19.0341 32.7126 19.059 32.6527 19.0345 32.6016L19.0293 32.5906C19.0048 32.5394 18.9401 32.5163 18.8849 32.539Z" fill="#E0E0E0"/>
<path d="M18.9806 32.7334C19.0061 32.7202 19.0255 32.6989 19.0354 32.6734C19.0405 32.6581 19.0419 32.6418 19.0394 32.6259C19.0369 32.61 19.0306 32.5948 19.021 32.5814C19.0088 32.5629 18.9902 32.5487 18.9683 32.5412C18.9463 32.5337 18.9222 32.5333 18.9 32.5401L18.0461 32.8961L15.2165 34.0627C15.2021 34.0685 15.1895 34.0777 15.1802 34.0894C15.1708 34.1012 15.165 34.1149 15.1632 34.1294C15.159 34.1429 15.159 34.1572 15.1632 34.1707C15.1681 34.1852 15.1764 34.1984 15.1877 34.2094C15.199 34.2194 15.2128 34.2267 15.2279 34.2306C15.2429 34.2346 15.2588 34.2351 15.2741 34.2321C15.3029 34.2227 15.3403 34.2054 15.372 34.1934L15.7694 34.0294L16.5226 33.7227L17.797 33.2027L18.661 32.8561L18.8957 32.7641L18.9576 32.7401L18.9792 32.7334L18.959 32.7441L18.9 32.7694L18.6667 32.8681L17.8114 33.2254L16.5413 33.7521L15.7896 34.0614L15.3922 34.2241C15.3562 34.2374 15.3288 34.2521 15.287 34.2654C15.2657 34.27 15.2435 34.2695 15.2224 34.2642C15.2013 34.2588 15.1819 34.2487 15.1661 34.2347C15.1511 34.2204 15.1398 34.2031 15.133 34.1841C15.1243 34.1652 15.1213 34.1444 15.1243 34.1241C15.1273 34.1037 15.1358 34.0845 15.1492 34.0681C15.1626 34.0517 15.1803 34.0389 15.2006 34.0307L18.0331 32.8734C18.3974 32.7267 18.6898 32.6067 18.8971 32.5267C18.9224 32.52 18.9494 32.5212 18.9738 32.5302C18.9983 32.5391 19.0189 32.5552 19.0325 32.5761C19.0426 32.5908 19.0489 32.6075 19.0509 32.6248C19.0529 32.6422 19.0505 32.6597 19.044 32.6761C19.039 32.6895 19.0306 32.7017 19.0196 32.7116C19.0086 32.7216 18.9953 32.729 18.9806 32.7334Z" fill="#263238"/>
<path d="M18.7342 32.0972L14.9597 33.646C14.9044 33.6686 14.8795 33.7285 14.904 33.7797L14.9092 33.7906C14.9337 33.8418 14.9983 33.8649 15.0536 33.8422L18.8281 32.2935C18.8833 32.2708 18.9083 32.211 18.8838 32.1598L18.8785 32.1488C18.8541 32.0977 18.7894 32.0746 18.7342 32.0972Z" fill="#E0E0E0"/>
<path d="M18.828 32.2911C18.843 32.2842 18.8561 32.2743 18.8663 32.262C18.8765 32.2498 18.8836 32.2356 18.8871 32.2205C18.8905 32.2053 18.8903 32.1897 18.8863 32.1747C18.8823 32.1596 18.8747 32.1457 18.864 32.1337C18.8511 32.1154 18.8317 32.1018 18.8091 32.0952C18.7865 32.0887 18.7622 32.0895 18.7402 32.0977L17.8632 32.4631L14.9674 33.6631C14.9526 33.6687 14.9398 33.6781 14.9303 33.6901C14.9209 33.7021 14.9153 33.7163 14.9141 33.7311C14.9093 33.7454 14.9093 33.7608 14.9141 33.7751C14.9198 33.7891 14.9287 33.8018 14.94 33.8124C14.952 33.8222 14.9665 33.829 14.9822 33.832C14.9979 33.8351 15.0141 33.8343 15.0293 33.8297C15.061 33.8191 15.097 33.8031 15.1316 33.7884L15.5391 33.6217L16.308 33.3071L17.6127 32.7737L18.494 32.4177L18.7344 32.3231L18.7978 32.2991L18.8194 32.2911C18.8194 32.2911 18.8122 32.2911 18.7992 32.3017L18.7373 32.3297L18.4997 32.4297L17.6328 32.8004L16.3368 33.3337L15.5679 33.6511L15.1604 33.8177L15.0552 33.8604C15.0338 33.867 15.0109 33.8682 14.9888 33.8637C14.9668 33.8593 14.9464 33.8494 14.93 33.8351C14.9141 33.8214 14.9018 33.8045 14.894 33.7857C14.8848 33.7665 14.8813 33.7453 14.8839 33.7244C14.886 33.7037 14.8941 33.6839 14.9073 33.667C14.9204 33.6502 14.9382 33.6368 14.9588 33.6284L17.856 32.4431L18.7373 32.0884C18.7629 32.0785 18.7914 32.0774 18.8178 32.0852C18.8442 32.093 18.8667 32.1093 18.8813 32.1311C18.8919 32.1458 18.8988 32.1626 18.9015 32.1801C18.9042 32.1976 18.9028 32.2155 18.8972 32.2324C18.8921 32.2469 18.8831 32.2599 18.871 32.2702C18.8588 32.2805 18.8441 32.2877 18.828 32.2911Z" fill="#263238"/>
<path d="M18.6095 31.6425L14.6823 33.2539C14.6271 33.2765 14.6021 33.3364 14.6266 33.3876L14.6319 33.3985C14.6564 33.4497 14.721 33.4728 14.7763 33.4501L18.7035 31.8387C18.7587 31.8161 18.7837 31.7562 18.7592 31.705L18.7539 31.6941C18.7294 31.6429 18.6648 31.6198 18.6095 31.6425Z" fill="#E0E0E0"/>
<path d="M18.7042 31.8375C18.7181 31.831 18.7303 31.822 18.7402 31.811C18.7502 31.8 18.7575 31.7872 18.7618 31.7735C18.7657 31.7566 18.7657 31.7393 18.7617 31.7225C18.7578 31.7057 18.7499 31.6899 18.7388 31.6761C18.7232 31.658 18.7013 31.6456 18.6768 31.641C18.6523 31.6363 18.6268 31.6398 18.6049 31.6508L17.6962 32.0295L14.6881 33.2681C14.6727 33.2744 14.6595 33.2844 14.6499 33.2971C14.6403 33.3098 14.6345 33.3246 14.6333 33.3401C14.6331 33.3558 14.6366 33.3713 14.6435 33.3856C14.6505 33.3999 14.6608 33.4126 14.6737 33.4228C14.6868 33.4321 14.7025 33.4379 14.7191 33.4396C14.7356 33.4412 14.7522 33.4386 14.7673 33.4321L14.8753 33.3881L15.2972 33.2161L16.0964 32.8895L17.4485 32.3375L18.3629 31.9681L18.6121 31.8695L18.6769 31.8455L18.6999 31.8375L18.6783 31.8481L18.6149 31.8761L18.3687 31.9815L17.4601 32.3601L16.1093 32.9175L15.3116 33.2468L14.8897 33.4201L14.7817 33.4641C14.7605 33.4728 14.7372 33.4762 14.7142 33.4738C14.6912 33.4715 14.6692 33.4635 14.6506 33.4508C14.6327 33.4373 14.6189 33.4199 14.6103 33.4001C14.6021 33.3858 14.5972 33.3701 14.5959 33.3539C14.5946 33.3377 14.597 33.3215 14.6028 33.3062C14.6086 33.2909 14.6178 33.2769 14.6297 33.2651C14.6417 33.2533 14.6561 33.2439 14.6722 33.2375L17.6818 32.0081L18.5948 31.6388C18.6191 31.6279 18.6467 31.6251 18.673 31.6309C18.6992 31.6367 18.7225 31.6508 18.7388 31.6708C18.7505 31.6856 18.7584 31.7026 18.7622 31.7205C18.7659 31.7385 18.7653 31.757 18.7604 31.7748C18.7531 31.7967 18.7378 31.8155 18.7172 31.8281C18.7133 31.8318 18.709 31.8349 18.7042 31.8375Z" fill="#263238"/>
<path d="M13.4194 31.92C13.4367 31.9547 13.909 32.7414 14.1524 33.1467C14.1971 33.2202 14.2591 33.2833 14.334 33.3314C14.4088 33.3794 14.4944 33.4111 14.5844 33.424L14.8508 33.4641L18.7719 31.8641L18.9159 31.6587C18.9664 31.5879 18.9986 31.5074 19.0101 31.4232C19.0216 31.339 19.012 31.2536 18.9822 31.1734L18.494 29.8521L13.4194 31.92Z" fill="#048C56"/>
<g opacity="0.3">
<path d="M15.7047 34.5721C16.123 34.4859 16.5289 34.3548 16.9143 34.1814C17.2484 34.0481 17.581 33.9147 17.941 33.7641C18.2046 33.6507 18.4436 33.5387 18.7042 33.4201C18.8109 33.3774 18.9062 33.3137 18.9836 33.2334L15.7047 34.5721Z" fill="black"/>
</g>
<g opacity="0.3">
<path d="M15.3634 34.2057C15.8105 34.1058 16.2449 33.9623 16.6594 33.7777C17.0208 33.6297 17.3794 33.4937 17.7668 33.3284C18.0548 33.2057 18.3096 33.0857 18.5904 32.9591C18.7054 32.9134 18.8088 32.8462 18.8943 32.7617L15.3634 34.2057Z" fill="black"/>
</g>
<g opacity="0.3">
<path d="M15.1647 33.7854C15.6121 33.6865 16.0466 33.543 16.4607 33.3574C16.8207 33.2094 17.1807 33.0748 17.568 32.9081C17.856 32.7868 18.1109 32.6668 18.3917 32.5401C18.506 32.4935 18.6093 32.4264 18.6956 32.3428L15.1647 33.7854Z" fill="black"/>
</g>
<g opacity="0.3">
<path d="M14.9659 33.3669C15.413 33.2667 15.8474 33.1233 16.2619 32.9389C16.6219 32.7909 16.9819 32.6549 17.3693 32.4895C17.6573 32.3669 17.9122 32.2469 18.193 32.1202C18.3079 32.0746 18.4114 32.0074 18.4968 31.9229L14.9659 33.3669Z" fill="black"/>
</g>
<path opacity="0.3" d="M13.4194 31.92C13.4367 31.9547 13.909 32.7414 14.1524 33.1467C14.1971 33.2202 14.2591 33.2833 14.334 33.3314C14.4088 33.3794 14.4944 33.4111 14.5844 33.424L14.8508 33.4641L18.7719 31.8641L18.9159 31.6587C18.9664 31.5879 18.9986 31.5074 19.0101 31.4232C19.0216 31.339 19.012 31.2536 18.9822 31.1734L18.494 29.8521L13.4194 31.92Z" fill="black"/>
<path d="M18.9678 31.3937C18.9678 31.4017 17.9266 31.835 16.6321 32.3617C15.3375 32.8884 14.2863 33.307 14.282 33.295C14.2777 33.283 15.3231 32.8537 16.6177 32.327C17.9122 31.8004 18.9634 31.3844 18.9678 31.3937Z" fill="#263238"/>
<path d="M18.4536 29.8444C18.4536 29.855 17.3261 30.3297 15.9221 30.911C14.5181 31.4924 13.3776 31.947 13.3733 31.9377C13.369 31.9284 14.5008 31.4537 15.9048 30.871C17.3088 30.2884 18.4493 29.835 18.4536 29.8444Z" fill="#263238"/>
<path d="M64.5582 20.9333L62.7596 20.7386C61.7464 21.6919 60.3847 22.2598 58.9422 22.3307C57.4997 22.4015 56.0807 21.9702 54.9643 21.1215C53.8478 20.2728 53.1146 19.0681 52.9088 17.7442C52.703 16.4203 53.0394 15.073 53.852 13.9672C54.6646 12.8613 55.8946 12.077 57.3001 11.7682C58.7056 11.4595 60.1851 11.6487 61.4475 12.2987C62.71 12.9488 63.6642 14.0125 64.1226 15.2809C64.5809 16.5493 64.5103 17.9306 63.9246 19.1533L64.5582 20.9333Z" fill="white"/>
<path d="M64.5582 20.9334C64.5582 20.9334 64.5423 20.8934 64.5135 20.8161L64.3883 20.4747L63.9102 19.1561H63.9419C63.9403 19.1575 63.9383 19.1587 63.9362 19.1595C63.9341 19.1603 63.9319 19.1608 63.9296 19.1608C63.9273 19.1608 63.9251 19.1603 63.923 19.1595C63.9209 19.1587 63.919 19.1575 63.9174 19.1561C63.9151 19.1531 63.9139 19.1496 63.9139 19.1461C63.9139 19.1425 63.9151 19.139 63.9174 19.1361C64.3045 18.3194 64.4654 17.4262 64.3854 16.5374C64.3603 16.2632 64.3121 15.9913 64.2414 15.7241C64.1614 15.4392 64.0589 15.1603 63.9347 14.8894C63.44 13.8199 62.5798 12.9305 61.4862 12.3577C60.3925 11.7849 59.126 11.5605 57.8813 11.7189C56.6365 11.8773 55.4824 12.4098 54.5962 13.2346C53.7101 14.0593 53.1409 15.1307 52.9763 16.2841C52.863 17.1028 52.9537 17.9347 53.2412 18.7161C53.5141 19.4503 53.9602 20.1189 54.5473 20.6734C55.5872 21.6647 57.0026 22.2427 58.4943 22.2854H58.7406C58.8213 22.2892 58.9022 22.287 58.9825 22.2787L59.4534 22.2401C59.7485 22.196 60.0408 22.1368 60.3289 22.0627C61.2463 21.8076 62.0804 21.3442 62.7553 20.7147C62.7575 20.7135 62.76 20.7129 62.7625 20.7129C62.765 20.7129 62.7675 20.7135 62.7697 20.7147L64.1017 20.8681L64.4473 20.9094L64.5668 20.9241L64.4545 20.9147L64.1118 20.8814L62.7654 20.7481H62.7798C62.1027 21.3874 61.2621 21.8579 60.3361 22.1161C60.0459 22.1926 59.7512 22.2536 59.4534 22.2987L58.9782 22.3401C58.8969 22.3487 58.8151 22.3514 58.7334 22.3481H58.4843C57.3068 22.3184 56.1669 21.9583 55.2155 21.3154C54.264 20.6726 53.5459 19.7772 53.1563 18.7481C52.8636 17.9567 52.771 17.1137 52.8855 16.2841C53.0073 15.4137 53.3584 14.5845 53.9079 13.8694C53.972 13.7784 54.0432 13.692 54.1211 13.6107L54.3443 13.3601L54.5905 13.1307C54.6702 13.0531 54.7553 12.9805 54.8454 12.9134L55.1118 12.7094C55.1982 12.6401 55.3004 12.5881 55.3926 12.5267C55.4847 12.4654 55.5812 12.4054 55.6806 12.3534L55.9801 12.2041C56.766 11.8236 57.6365 11.6169 58.5231 11.6001C59.3262 11.5862 60.1237 11.7262 60.8656 12.0112C61.6075 12.2961 62.2778 12.7199 62.8345 13.2561C63.3215 13.7253 63.7119 14.273 63.9865 14.8721C64.1119 15.1457 64.2144 15.4279 64.2932 15.7161C64.3646 15.9863 64.4128 16.2614 64.4372 16.5387C64.5102 17.4354 64.3379 18.3347 63.9361 19.1534L63.9059 19.1361C63.9095 19.1332 63.9141 19.1317 63.9188 19.1317C63.9236 19.1317 63.9281 19.1332 63.9318 19.1361C63.9322 19.1387 63.9322 19.1414 63.9318 19.1441C64.1319 19.7267 64.2875 20.1747 64.3926 20.4774C64.443 20.6254 64.4819 20.7441 64.5078 20.8174C64.5337 20.8907 64.5582 20.9334 64.5582 20.9334Z" fill="#263238"/>
<path d="M55.9886 17.1013L56.6798 16.3933L58.1458 17.484L60.323 15.168L61.0358 15.8106L58.1126 18.788L55.9886 17.1013Z" fill="#263238"/>
<path d="M48.7124 21.3895L49.8543 21.2562C49.8581 21.2549 49.8622 21.2549 49.8659 21.2562C50.4449 21.7957 51.1601 22.193 51.9467 22.4122C52.1936 22.4754 52.444 22.5261 52.6969 22.5642L53.1016 22.5975C53.1705 22.6029 53.2399 22.6029 53.3089 22.5975H53.5206C54.1227 22.5807 54.7162 22.4614 55.2716 22.2455C55.4156 22.1869 55.5712 22.1215 55.7166 22.0482L55.5827 21.9989C54.8724 21.7247 54.2289 21.3212 53.6905 20.8122C53.1079 20.2619 52.6651 19.5983 52.3945 18.8695C52.1092 18.096 52.0181 17.2725 52.1281 16.4615C52.2492 15.608 52.5954 14.7952 53.1361 14.0949C53.2001 14.0062 53.2703 13.9216 53.3463 13.8415L53.5652 13.5962L53.6588 13.5082H53.4976C52.8177 13.4959 52.1424 13.6136 51.5138 13.8538C50.8853 14.094 50.3169 14.4515 49.8443 14.9042C49.428 15.2988 49.0932 15.7607 48.8564 16.2669C48.7494 16.4991 48.6613 16.7384 48.5929 16.9829C48.334 17.9596 48.4317 18.9883 48.8708 19.9082C48.8725 19.9108 48.8733 19.9138 48.8733 19.9169C48.8733 19.9199 48.8725 19.9229 48.8708 19.9255L48.4633 21.0469C48.4172 21.1802 48.3812 21.2722 48.3553 21.3402C48.3294 21.4082 48.3179 21.4402 48.3179 21.4402L48.4201 21.4269L48.7124 21.3895Z" fill="#F5F5F5"/>
<path d="M48.7124 21.3893C48.7124 21.3893 48.6793 21.396 48.613 21.4053L48.3149 21.4453H48.3005V21.432C48.4129 21.12 48.5972 20.6026 48.8434 19.9133V19.9053L48.8333 19.884L48.8132 19.84L48.7743 19.7506C48.7469 19.6906 48.7239 19.628 48.698 19.564C48.6505 19.4306 48.6073 19.2973 48.5684 19.164C48.4859 18.8623 48.4376 18.5535 48.4244 18.2426C48.4079 17.8942 48.4349 17.5452 48.505 17.2026C48.5439 17.0186 48.5949 16.8369 48.6577 16.6586C48.72 16.4717 48.7975 16.2894 48.8895 16.1133C49.2821 15.3311 49.9062 14.6681 50.6895 14.2013C51.5672 13.6781 52.6005 13.4239 53.6429 13.4746H53.725L53.6674 13.528L53.5738 13.616C52.8848 14.3298 52.4131 15.2004 52.2073 16.1386C51.9516 17.347 52.1645 18.6001 52.8086 19.6774C53.4526 20.7546 54.4864 21.587 55.7281 22.028L55.7986 22.052L55.7324 22.0813C55.4812 22.2029 55.2208 22.3076 54.9533 22.3946C54.6978 22.4737 54.4358 22.5339 54.17 22.5746C53.6819 22.6452 53.1854 22.6514 52.6954 22.5933C52.5284 22.5613 52.3657 22.536 52.2073 22.504C52.0532 22.4706 51.9013 22.4292 51.7522 22.38C51.4794 22.2915 51.2153 22.1813 50.9631 22.0506C50.5594 21.8421 50.1899 21.5812 49.8658 21.276C49.8658 21.264 49.8327 21.276 49.8111 21.276L49.7434 21.2826L49.6153 21.2973L49.382 21.3226L49.0162 21.3613L48.793 21.384C48.7412 21.384 48.7153 21.384 48.7153 21.384L48.7916 21.372L49.0148 21.3426L49.3791 21.2973L49.6124 21.2693L49.7405 21.2533L49.8082 21.2453H49.8428C49.8499 21.2436 49.8573 21.2436 49.8644 21.2453C49.869 21.2436 49.8741 21.2436 49.8788 21.2453H49.886C50.2116 21.5449 50.5809 21.8007 50.9833 22.0053C51.5191 22.2796 52.1048 22.4603 52.7113 22.5386C52.947 22.5629 53.184 22.5749 53.4212 22.5746C53.673 22.5727 53.9244 22.5527 54.1729 22.5146C54.4354 22.4737 54.6939 22.4135 54.9461 22.3346C55.2095 22.2472 55.4659 22.143 55.7137 22.0226V22.076C54.4581 21.6331 53.4116 20.7943 52.7583 19.7073C52.1051 18.6202 51.887 17.3546 52.1425 16.1333C52.3499 15.1832 52.8276 14.3017 53.5263 13.58L53.6213 13.492L53.6458 13.5506C52.6748 13.5007 51.7097 13.7197 50.8736 14.1797C50.0376 14.6397 49.3684 15.3198 48.9514 16.1333C48.8604 16.3055 48.7834 16.4838 48.721 16.6666C48.6576 16.8412 48.6062 17.0194 48.5669 17.2C48.4318 17.8429 48.4495 18.5053 48.6188 19.1413C48.6562 19.2746 48.698 19.416 48.7441 19.5413C48.7685 19.604 48.7916 19.6666 48.8175 19.7266L48.8564 19.816L48.8765 19.8586L48.8852 19.88C48.8896 19.8867 48.8914 19.8947 48.89 19.9025C48.8887 19.9103 48.8844 19.9175 48.878 19.9226V19.9146C48.6231 20.604 48.4345 21.1226 48.3149 21.4266L48.3063 21.4173L48.6058 21.384L48.7124 21.3893Z" fill="#263238"/>
<path d="M97.1034 11.939H95.3121C94.9582 11.939 94.6713 12.2046 94.6713 12.5323V21.6003C94.6713 21.928 94.9582 22.1936 95.3121 22.1936H97.1034C97.4573 22.1936 97.7442 21.928 97.7442 21.6003V12.5323C97.7442 12.2046 97.4573 11.939 97.1034 11.939Z" fill="#455A64"/>
<path d="M87.454 17.9751H85.7059C85.34 17.9751 85.0435 18.2497 85.0435 18.5884V22.0178C85.0435 22.3565 85.34 22.6311 85.7059 22.6311H87.454C87.8198 22.6311 88.1164 22.3565 88.1164 22.0178V18.5884C88.1164 18.2497 87.8198 17.9751 87.454 17.9751Z" fill="#455A64"/>
<path d="M92.1556 15.4429H90.4996C90.1083 15.4429 89.7911 15.7366 89.7911 16.0989V21.9735C89.7911 22.3358 90.1083 22.6295 90.4996 22.6295H92.1556C92.5469 22.6295 92.8641 22.3358 92.8641 21.9735V16.0989C92.8641 15.7366 92.5469 15.4429 92.1556 15.4429Z" fill="#455A64"/>
<path d="M96.6081 8.55078C96.5875 8.58352 96.5628 8.61394 96.5347 8.64145L96.3057 8.89078L95.4417 9.81078L92.4249 12.9561L92.3918 12.9921L92.3486 12.9654L90.4622 11.8254L90.5428 11.8148L90.4708 11.8934C88.9171 13.5801 87.5116 15.1081 86.4835 16.2254L86.4561 16.2534L86.4244 16.2308L84.9254 15.2001L84.5279 14.9148C84.4789 14.8842 84.4336 14.8489 84.3926 14.8094C84.4431 14.8351 84.4912 14.8646 84.5366 14.8974L84.9542 15.1641L86.4763 16.1668H86.4187L90.3787 11.8134L90.4507 11.7348L90.4867 11.6961L90.5313 11.7241L92.4148 12.8681L92.3385 12.8774L95.3841 9.75878L96.2769 8.85878L96.5203 8.62145C96.5464 8.59473 96.5759 8.57101 96.6081 8.55078Z" fill="#263238"/>
<path d="M96.7046 10.7162C96.6707 10.4995 96.6567 10.2805 96.6628 10.0615C96.6513 9.66154 96.6441 9.0962 96.6441 8.47487L96.7147 8.53087L96.6542 8.5402C95.9774 8.64287 95.3582 8.73087 94.919 8.7882C94.6816 8.83053 94.4407 8.85373 94.199 8.85754C94.4309 8.79015 94.6683 8.74021 94.9089 8.7082C95.351 8.63087 95.9615 8.53087 96.6369 8.4282L96.6988 8.41887L96.7694 8.4082V8.47487C96.7694 9.0962 96.7694 9.6562 96.7507 10.0615C96.7569 10.2806 96.7414 10.4997 96.7046 10.7162Z" fill="#263238"/>
</svg>
