<svg width="111" height="82" viewBox="0 0 111 82" fill="none" xmlns="http://www.w3.org/2000/svg">
<path d="M11.8357 13.1629L12.418 12.2255C17.3354 4.30241 26.2234 -0.473462 35.5955 0.107704C36.8043 0.179583 38.0059 0.340168 39.1901 0.588103C47.7115 2.37144 55.1258 8.67287 58.1979 16.7436C60.0048 21.489 60.5104 26.9538 63.9492 30.722C68.4136 35.6245 75.9932 35.7791 82.6551 35.5752C89.3169 35.3714 96.9014 35.5448 101.347 40.4683C104.129 43.5499 105.013 47.9344 104.79 52.0611C104.196 62.9908 96.4029 72.7652 86.5036 77.6231C76.6043 82.481 64.9365 82.9145 54.0954 80.7773C38.9121 77.7848 24.4693 69.5641 15.7897 56.8745C7.11013 44.1849 4.89111 26.8671 11.8357 13.1629Z" fill="#FFEFE3"/>
<path d="M110.625 78.99C110.625 79.024 86.0738 79.0532 55.7935 79.0532C25.5133 79.0532 0.957031 79.0167 0.957031 78.99C0.957031 78.9633 25.5035 78.9244 55.7935 78.9244C86.0835 78.9244 110.625 78.9463 110.625 78.99Z" fill="#263238"/>
<path d="M35.5086 17.0475H98.3158C98.5492 17.0475 98.7802 17.0934 98.9958 17.1828C99.2114 17.2721 99.4073 17.4029 99.5723 17.568C99.7374 17.733 99.8683 17.9289 99.9576 18.1445C100.047 18.3601 100.093 18.5911 100.093 18.8245V60.2765C100.093 60.8775 99.8541 61.4539 99.4291 61.8789C99.0041 62.3039 98.4277 62.5426 97.8267 62.5426H35.4096C34.9651 62.5426 34.5387 62.366 34.2244 62.0516C33.91 61.7373 33.7334 61.3109 33.7334 60.8664V18.8245C33.7334 18.3535 33.9204 17.9018 34.2532 17.5686C34.5861 17.2354 35.0376 17.048 35.5086 17.0475Z" fill="#263238"/>
<path d="M46.8838 23.5729H42.2031V24.5933H46.8838V23.5729Z" fill="#455A64"/>
<path d="M44.5425 28.1437H42.2031V29.1641H44.5425V28.1437Z" fill="#EF9536"/>
<path d="M47.2606 30.4429H43.9648V31.4633H47.2606V30.4429Z" fill="#455A64"/>
<path d="M49.706 30.4429H47.7861V31.4633H49.706V30.4429Z" fill="#455A64"/>
<path d="M66.9176 30.4429H62.9697V31.4633H66.9176V30.4429Z" fill="#455A64"/>
<path d="M78.4593 32.6833H71.7891V33.7038H78.4593V32.6833Z" fill="#455A64"/>
<path d="M88.752 30.4429H85.5479V31.4633H88.752V30.4429Z" fill="#455A64"/>
<path d="M96.1736 30.4429H89.7324V31.4633H96.1736V30.4429Z" fill="#455A64"/>
<path d="M47.2606 32.6833H43.9648V33.7038H47.2606V32.6833Z" fill="#455A64"/>
<path d="M45.2361 34.9185H41.9404V35.9389H45.2361V34.9185Z" fill="#EF9536"/>
<path d="M45.2351 37.1553H43.6963V38.1757H45.2351V37.1553Z" fill="#455A64"/>
<path d="M50.8875 41.8633H49.3486V42.8837H50.8875V41.8633Z" fill="#455A64"/>
<path d="M73.5345 50.3728H70.5264V51.3932H73.5345V50.3728Z" fill="#455A64"/>
<path d="M90.3378 50.3728H82.9678V51.3932H90.3378V50.3728Z" fill="#455A64"/>
<path d="M62.2073 48.1396H59.1992V49.1601H62.2073V48.1396Z" fill="#E0E0E0"/>
<path d="M51.3079 46.2217H48.2998V47.2421H51.3079V46.2217Z" fill="#455A64"/>
<path d="M69.9022 50.3728H65.1592V51.3932H69.9022V50.3728Z" fill="#455A64"/>
<path d="M46.1951 39.4324H43.6963V40.4528H46.1951V39.4324Z" fill="#455A64"/>
<path d="M48.3312 41.9017H43.6963V42.9221H48.3312V41.9017Z" fill="#455A64"/>
<path d="M50.4764 43.7942H43.6963V44.8146H50.4764V43.7942Z" fill="#455A64"/>
<path d="M62.7616 43.7942H55.9814V44.8146H62.7616V43.7942Z" fill="#455A64"/>
<path d="M57.762 48.1396H48.2412V49.1601H57.762V48.1396Z" fill="#455A64"/>
<path d="M64.3442 50.3728H48.2412V51.3932H64.3442V50.3728Z" fill="#455A64"/>
<path d="M59.4721 52.6061H43.3691V53.6265H59.4721V52.6061Z" fill="#455A64"/>
<path d="M55.2603 43.7942H51.1934V44.8146H55.2603V43.7942Z" fill="#455A64"/>
<path d="M50.0398 37.1553H45.8428V38.1757H50.0398V37.1553Z" fill="#455A64"/>
<path d="M50.9656 39.4324H46.7686V40.4528H50.9656V39.4324Z" fill="#455A64"/>
<path d="M67.2278 39.4324H56.1133V40.4528H67.2278V39.4324Z" fill="#455A64"/>
<path d="M80.3659 39.4324H67.5293V40.4528H80.3659V39.4324Z" fill="#455A64"/>
<path d="M55.1277 39.4324H51.6543V40.4528H55.1277V39.4324Z" fill="#455A64"/>
<path d="M56.1157 37.1553H50.6143V38.1757H56.1157V37.1553Z" fill="#455A64"/>
<path d="M59.7886 37.1553H56.7256V38.1757H59.7886V37.1553Z" fill="#E0E0E0"/>
<path d="M51.2211 32.6833H47.7861V33.7038H51.2211V32.6833Z" fill="#455A64"/>
<path d="M70.5149 32.6833H53.5527V33.7038H70.5149V32.6833Z" fill="#455A64"/>
<path d="M89.5575 39.4324H81.5371V40.4528H89.5575V39.4324Z" fill="#455A64"/>
<path d="M82.3368 50.3728H74.3164V51.3932H82.3368V50.3728Z" fill="#455A64"/>
<path d="M84.3002 30.4429H67.5908V31.4633H84.3002V30.4429Z" fill="#455A64"/>
<path d="M61.9322 30.4429H50.3047V31.4633H61.9322V30.4429Z" fill="#455A64"/>
<path d="M50.0311 25.7366H42.2031V26.757H50.0311V25.7366Z" fill="#455A64"/>
<path d="M61.5323 25.7366H50.8135V26.757H61.5323V25.7366Z" fill="#455A64"/>
<path d="M51.0612 23.5729H47.6152V24.5933H51.0612V23.5729Z" fill="#E0E0E0"/>
<path d="M38.6338 23.5729H37.6445V24.5933H38.6338V23.5729Z" fill="#455A64"/>
<path d="M38.6338 25.806H37.6445V26.8264H38.6338V25.806Z" fill="#455A64"/>
<path d="M38.6338 28.0394H37.6445V29.0598H38.6338V28.0394Z" fill="#455A64"/>
<path d="M38.6338 30.2726H37.6445V31.293H38.6338V30.2726Z" fill="#455A64"/>
<path d="M38.6338 32.5056H37.6445V33.526H38.6338V32.5056Z" fill="#455A64"/>
<path d="M38.6338 34.7388H37.6445V35.7592H38.6338V34.7388Z" fill="#455A64"/>
<path d="M38.6338 36.9719H37.6445V37.9923H38.6338V36.9719Z" fill="#455A64"/>
<path d="M38.6338 39.2051H37.6445V40.2255H38.6338V39.2051Z" fill="#455A64"/>
<path d="M38.6338 41.4382H37.6445V42.4586H38.6338V41.4382Z" fill="#455A64"/>
<path d="M50.5096 57.4297H48.9707V58.4501H50.5096V57.4297Z" fill="#E0E0E0"/>
<path d="M48.0343 57.4297H43.3994V58.4501H48.0343V57.4297Z" fill="#EF9536"/>
<path d="M38.6338 57.316H37.6445V58.3364H38.6338V57.316Z" fill="#455A64"/>
<path d="M38.6338 43.6716H37.6445V44.692H38.6338V43.6716Z" fill="#455A64"/>
<path d="M38.6338 45.9047H37.6445V46.9251H38.6338V45.9047Z" fill="#455A64"/>
<path d="M38.6338 48.1396H37.6445V49.1601H38.6338V48.1396Z" fill="#455A64"/>
<path d="M38.6338 50.3728H37.6445V51.3932H38.6338V50.3728Z" fill="#455A64"/>
<path d="M38.6338 52.6061H37.6445V53.6265H38.6338V52.6061Z" fill="#455A64"/>
<path d="M48.0645 54.9564H43.3691V55.9768H48.0645V54.9564Z" fill="#455A64"/>
<path d="M59.5906 54.9564H48.9707V55.9768H59.5906V54.9564Z" fill="#455A64"/>
<path d="M38.6338 54.9564H37.6445V55.9768H38.6338V54.9564Z" fill="#455A64"/>
<path d="M66.2877 25.7291H62.8418V26.7495H66.2877V25.7291Z" fill="#E0E0E0"/>
<path d="M37.4341 20.6913C37.8216 20.6913 38.1357 20.3771 38.1357 19.9896C38.1357 19.6021 37.8216 19.288 37.4341 19.288C37.0466 19.288 36.7324 19.6021 36.7324 19.9896C36.7324 20.3771 37.0466 20.6913 37.4341 20.6913Z" fill="#455A64"/>
<path d="M39.3804 20.6913C39.7679 20.6913 40.082 20.3771 40.082 19.9896C40.082 19.6021 39.7679 19.288 39.3804 19.288C38.9928 19.288 38.6787 19.6021 38.6787 19.9896C38.6787 20.3771 38.9928 20.6913 39.3804 20.6913Z" fill="#455A64"/>
<path d="M41.3257 20.6913C41.7132 20.6913 42.0273 20.3771 42.0273 19.9896C42.0273 19.6021 41.7132 19.288 41.3257 19.288C40.9382 19.288 40.624 19.6021 40.624 19.9896C40.624 20.3771 40.9382 20.6913 41.3257 20.6913Z" fill="#455A64"/>
<g opacity="0.3">
<path d="M94.2619 44.3035H69.2775C68.545 44.3035 67.9512 44.8973 67.9512 45.6298V58.8163C67.9512 59.5488 68.545 60.1427 69.2775 60.1427H94.2619C94.9944 60.1427 95.5883 59.5488 95.5883 58.8163V45.6298C95.5883 44.8973 94.9944 44.3035 94.2619 44.3035Z" fill="black"/>
</g>
<path d="M96.726 42.6107H70.7157C70.2665 42.6107 69.9023 42.9749 69.9023 43.4241V57.6365C69.9023 58.0858 70.2665 58.4499 70.7157 58.4499H96.726C97.1753 58.4499 97.5394 58.0858 97.5394 57.6365V43.4241C97.5394 42.9749 97.1753 42.6107 96.726 42.6107Z" fill="#EF9536"/>
<path d="M80.7311 52.4669H78.2067L77.7377 53.6265H76.0156L78.65 47.658H80.3134L82.9551 53.6265H81.2001L80.7311 52.4669ZM80.2365 51.223L79.4689 49.3214L78.7013 51.2321L80.2365 51.223Z" fill="white"/>
<path d="M87.567 47.9271C87.9406 48.0883 88.259 48.3551 88.483 48.6947C88.7029 49.0455 88.815 49.4532 88.8054 49.8672C88.8194 50.2774 88.7078 50.6821 88.4855 51.0272C88.2632 51.3722 87.9408 51.6412 87.5615 51.798C87.1166 51.9854 86.6372 52.0765 86.1546 52.0655H85.114V53.6264H83.4268V47.6578H86.1546C86.6392 47.6457 87.1208 47.7375 87.567 47.9271ZM86.8342 50.5102C86.924 50.4299 86.9945 50.3304 87.0405 50.219C87.0865 50.1077 87.1068 49.9874 87.0999 49.8672C87.1065 49.7461 87.086 49.6251 87.0401 49.513C86.9942 49.4008 86.9238 49.3003 86.8342 49.2186C86.6095 49.0492 86.3308 48.9672 86.0501 48.9878H85.1122V50.7355H86.0501C86.3336 50.7585 86.6159 50.6785 86.8452 50.5102H86.8342Z" fill="white"/>
<path d="M89.6299 47.658H91.319V53.6265H89.6299V47.658Z" fill="white"/>
<path d="M40.3777 23.2816C40.4034 23.2816 40.4253 32.0659 40.4253 42.902C40.4253 53.7381 40.4034 62.5242 40.3777 62.5242C40.3521 62.5242 40.3301 53.7399 40.3301 42.902C40.3301 32.0641 40.3502 23.2816 40.3777 23.2816Z" fill="#455A64"/>
<path d="M66.8561 8.56152H53.4278C52.5799 8.56152 51.8926 9.24885 51.8926 10.0967V17.9357C51.8926 18.7836 52.5799 19.4709 53.4278 19.4709H66.8561C67.704 19.4709 68.3913 18.7836 68.3913 17.9357V10.0967C68.3913 9.24885 67.704 8.56152 66.8561 8.56152Z" fill="#EF9536"/>
<g opacity="0.3">
<path d="M66.8561 8.56152H53.4278C52.5799 8.56152 51.8926 9.24885 51.8926 10.0967V17.9357C51.8926 18.7836 52.5799 19.4709 53.4278 19.4709H66.8561C67.704 19.4709 68.3913 18.7836 68.3913 17.9357V10.0967C68.3913 9.24885 67.704 8.56152 66.8561 8.56152Z" fill="black"/>
</g>
<path d="M65.7487 8.56152H52.3203C51.4725 8.56152 50.7852 9.24885 50.7852 10.0967V17.9357C50.7852 18.7836 51.4725 19.4709 52.3203 19.4709H65.7487C66.5965 19.4709 67.2839 18.7836 67.2839 17.9357V10.0967C67.2839 9.24885 66.5965 8.56152 65.7487 8.56152Z" fill="#EF9536"/>
<path d="M57.2512 13.4035L55.0034 14.2004L57.2512 14.9973V16.0268L53.7705 14.7445V13.6599L57.2512 12.3776V13.4035Z" fill="white"/>
<path d="M59.7309 10.7324H60.9217L58.5951 17.3715H57.4043L59.7309 10.7324Z" fill="white"/>
<path d="M64.469 13.658V14.7425L60.9883 16.0249V14.9953L63.2379 14.1984L60.9883 13.4015V12.3719L64.469 13.658Z" fill="white"/>
<path d="M36.4628 55.0424H13.1162C12.7246 55.0424 12.4072 55.3598 12.4072 55.7513V78.0079C12.4072 78.3995 12.7246 78.7169 13.1162 78.7169H36.4628C36.8544 78.7169 37.1718 78.3995 37.1718 78.0079V55.7513C37.1718 55.3598 36.8544 55.0424 36.4628 55.0424Z" fill="#E0E0E0"/>
<path d="M37.2156 62.5994C37.2156 62.625 31.683 62.647 24.8626 62.647C18.0422 62.647 12.5078 62.625 12.5078 62.5994C12.5078 62.5737 18.0385 62.5518 24.8626 62.5518C31.6867 62.5518 37.2156 62.5719 37.2156 62.5994Z" fill="#263238"/>
<path d="M37.2156 70.2056C37.2156 70.2312 31.683 70.2532 24.8626 70.2532C18.0422 70.2532 12.5078 70.2312 12.5078 70.2056C12.5078 70.1799 18.0385 70.158 24.8626 70.158C31.6867 70.158 37.2156 70.1726 37.2156 70.2056Z" fill="#263238"/>
<path d="M16.9097 59.5766C17.2072 59.5766 17.4483 59.3354 17.4483 59.038C17.4483 58.7405 17.2072 58.4994 16.9097 58.4994C16.6122 58.4994 16.3711 58.7405 16.3711 59.038C16.3711 59.3354 16.6122 59.5766 16.9097 59.5766Z" fill="white"/>
<path d="M18.8413 59.5766C19.1388 59.5766 19.3799 59.3354 19.3799 59.038C19.3799 58.7405 19.1388 58.4994 18.8413 58.4994C18.5439 58.4994 18.3027 58.7405 18.3027 59.038C18.3027 59.3354 18.5439 59.5766 18.8413 59.5766Z" fill="white"/>
<path d="M31.0353 58.2081H30.9419C30.8316 58.2081 30.7422 58.2975 30.7422 58.4078V59.8422C30.7422 59.9525 30.8316 60.0419 30.9419 60.0419H31.0353C31.1456 60.0419 31.235 59.9525 31.235 59.8422V58.4078C31.235 58.2975 31.1456 58.2081 31.0353 58.2081Z" fill="#263238"/>
<path d="M32.2785 58.2081H32.185C32.0748 58.2081 31.9854 58.2975 31.9854 58.4078V59.8422C31.9854 59.9525 32.0748 60.0419 32.185 60.0419H32.2785C32.3888 60.0419 32.4782 59.9525 32.4782 59.8422V58.4078C32.4782 58.2975 32.3888 58.2081 32.2785 58.2081Z" fill="#263238"/>
<path d="M33.422 58.2081H33.3286C33.2183 58.2081 33.1289 58.2975 33.1289 58.4078V59.8422C33.1289 59.9525 33.2183 60.0419 33.3286 60.0419H33.422C33.5323 60.0419 33.6217 59.9525 33.6217 59.8422V58.4078C33.6217 58.2975 33.5323 58.2081 33.422 58.2081Z" fill="white"/>
<path d="M29.7794 58.2081H29.686C29.5757 58.2081 29.4863 58.2975 29.4863 58.4078V59.8422C29.4863 59.9525 29.5757 60.0419 29.686 60.0419H29.7794C29.8897 60.0419 29.9791 59.9525 29.9791 59.8422V58.4078C29.9791 58.2975 29.8897 58.2081 29.7794 58.2081Z" fill="#EF9536"/>
<path d="M16.9097 66.9595C17.2072 66.9595 17.4483 66.7184 17.4483 66.4209C17.4483 66.1235 17.2072 65.8823 16.9097 65.8823C16.6122 65.8823 16.3711 66.1235 16.3711 66.4209C16.3711 66.7184 16.6122 66.9595 16.9097 66.9595Z" fill="white"/>
<path d="M18.7378 66.9595C19.0353 66.9595 19.2764 66.7184 19.2764 66.4209C19.2764 66.1235 19.0353 65.8823 18.7378 65.8823C18.4404 65.8823 18.1992 66.1235 18.1992 66.4209C18.1992 66.7184 18.4404 66.9595 18.7378 66.9595Z" fill="white"/>
<path d="M31.0353 65.5928H30.9419C30.8316 65.5928 30.7422 65.6822 30.7422 65.7925V67.2269C30.7422 67.3372 30.8316 67.4266 30.9419 67.4266H31.0353C31.1456 67.4266 31.235 67.3372 31.235 67.2269V65.7925C31.235 65.6822 31.1456 65.5928 31.0353 65.5928Z" fill="#263238"/>
<path d="M32.2785 65.5928H32.185C32.0748 65.5928 31.9854 65.6822 31.9854 65.7925V67.2269C31.9854 67.3372 32.0748 67.4266 32.185 67.4266H32.2785C32.3888 67.4266 32.4782 67.3372 32.4782 67.2269V65.7925C32.4782 65.6822 32.3888 65.5928 32.2785 65.5928Z" fill="#263238"/>
<path d="M33.422 65.5928H33.3286C33.2183 65.5928 33.1289 65.6822 33.1289 65.7925V67.2269C33.1289 67.3372 33.2183 67.4266 33.3286 67.4266H33.422C33.5323 67.4266 33.6217 67.3372 33.6217 67.2269V65.7925C33.6217 65.6822 33.5323 65.5928 33.422 65.5928Z" fill="white"/>
<path d="M29.7794 65.5928H29.686C29.5757 65.5928 29.4863 65.6822 29.4863 65.7925V67.2269C29.4863 67.3372 29.5757 67.4266 29.686 67.4266H29.7794C29.8897 67.4266 29.9791 67.3372 29.9791 67.2269V65.7925C29.9791 65.6822 29.8897 65.5928 29.7794 65.5928Z" fill="#EF9536"/>
<path d="M16.9097 74.9083C17.2072 74.9083 17.4483 74.6671 17.4483 74.3697C17.4483 74.0722 17.2072 73.8311 16.9097 73.8311C16.6122 73.8311 16.3711 74.0722 16.3711 74.3697C16.3711 74.6671 16.6122 74.9083 16.9097 74.9083Z" fill="white"/>
<path d="M18.8911 74.9083C19.1886 74.9083 19.4297 74.6671 19.4297 74.3697C19.4297 74.0722 19.1886 73.8311 18.8911 73.8311C18.5937 73.8311 18.3525 74.0722 18.3525 74.3697C18.3525 74.6671 18.5937 74.9083 18.8911 74.9083Z" fill="white"/>
<path d="M31.0353 73.5417H30.9419C30.8316 73.5417 30.7422 73.6311 30.7422 73.7414V75.1759C30.7422 75.2861 30.8316 75.3756 30.9419 75.3756H31.0353C31.1456 75.3756 31.235 75.2861 31.235 75.1759V73.7414C31.235 73.6311 31.1456 73.5417 31.0353 73.5417Z" fill="#263238"/>
<path d="M32.2785 73.5417H32.185C32.0748 73.5417 31.9854 73.6311 31.9854 73.7414V75.1759C31.9854 75.2861 32.0748 75.3756 32.185 75.3756H32.2785C32.3888 75.3756 32.4782 75.2861 32.4782 75.1759V73.7414C32.4782 73.6311 32.3888 73.5417 32.2785 73.5417Z" fill="#263238"/>
<path d="M33.422 73.5417H33.3286C33.2183 73.5417 33.1289 73.6311 33.1289 73.7414V75.1759C33.1289 75.2861 33.2183 75.3756 33.3286 75.3756H33.422C33.5323 75.3756 33.6217 75.2861 33.6217 75.1759V73.7414C33.6217 73.6311 33.5323 73.5417 33.422 73.5417Z" fill="white"/>
<path d="M29.7794 73.5417H29.686C29.5757 73.5417 29.4863 73.6311 29.4863 73.7414V75.1759C29.4863 75.2861 29.5757 75.3756 29.686 75.3756H29.7794C29.8897 75.3756 29.9791 75.2861 29.9791 75.1759V73.7414C29.9791 73.6311 29.8897 73.5417 29.7794 73.5417Z" fill="#EF9536"/>
<path d="M24.7528 21.2079C24.7392 21.102 24.7045 20.9999 24.6507 20.9076C24.597 20.8153 24.5254 20.7347 24.44 20.6705C24.3546 20.6063 24.2573 20.5598 24.1537 20.5338C24.0501 20.5078 23.9424 20.5028 23.8368 20.5191C23.7075 20.2885 23.4943 20.1165 23.2414 20.0391C22.9886 19.9616 22.7157 19.9846 22.4794 20.1032C22.2595 20.226 22.0946 20.4275 21.8803 20.5576C21.6636 20.664 21.4417 20.7594 21.2153 20.8434C21.1025 20.8866 21.0022 20.9571 20.9233 21.0485C20.8443 21.1399 20.7892 21.2494 20.7628 21.3673C20.7604 21.5018 20.8008 21.6335 20.8782 21.7435C20.9555 21.8535 21.0659 21.9361 21.1933 21.9792C21.4495 22.0599 21.7201 22.0843 21.9866 22.0506C21.9302 22.0909 21.8908 22.1507 21.8759 22.2183C21.861 22.286 21.8717 22.3568 21.9059 22.417C21.9744 22.5347 22.084 22.6229 22.2137 22.6643C22.4236 22.7451 22.6517 22.7662 22.8728 22.7255C23.0939 22.6848 23.2995 22.5837 23.4668 22.4335L23.9687 22.0488C24.076 22.0467 24.1817 22.0231 24.2796 21.9794C24.3775 21.9357 24.4657 21.8728 24.5388 21.7943C24.6119 21.7159 24.6686 21.6236 24.7053 21.5229C24.7421 21.4221 24.7582 21.315 24.7528 21.2079Z" fill="#263238"/>
<path d="M23.4986 22.8823C23.4499 22.9257 23.387 22.9497 23.3218 22.9497C23.2566 22.9497 23.1937 22.9257 23.145 22.8823C23.0992 22.8345 23.0671 22.7753 23.0523 22.7107C23.0375 22.6462 23.0404 22.5789 23.0607 22.5159C23.1023 22.3908 23.1875 22.2848 23.3007 22.2173C23.4148 22.1491 23.5383 22.0979 23.6671 22.0653C23.8594 22.0052 24.0579 21.9677 24.2588 21.9535C24.3301 21.9463 24.4021 21.955 24.4695 21.9791C24.5027 21.992 24.532 22.0133 24.5545 22.0409C24.577 22.0686 24.5919 22.1016 24.5978 22.1367C24.5978 22.2375 24.5171 22.3199 24.4365 22.3767C24.1357 22.5983 23.8157 22.7927 23.4803 22.9574" fill="#EF9536"/>
<path d="M23.2065 22.831C22.732 22.3016 21.5485 22.373 21.2664 22.7174C21.0576 22.6174 20.8185 22.6014 20.5983 22.6727C20.378 22.7439 20.1936 22.897 20.0829 23.1003L18.8244 23.3678C18.6054 23.3946 18.3967 23.4765 18.218 23.6059C18.1317 23.6737 18.073 23.7705 18.0528 23.8784C18.0326 23.9862 18.0522 24.0977 18.1081 24.1921C18.0013 24.2281 17.9051 24.2898 17.828 24.3719C17.7509 24.454 17.6952 24.5539 17.666 24.6627C17.6368 24.7715 17.635 24.8858 17.6607 24.9955C17.6863 25.1052 17.7387 25.2068 17.8131 25.2913C17.77 25.34 17.7373 25.3971 17.7172 25.459C17.697 25.5209 17.6898 25.5862 17.696 25.651C17.7022 25.7158 17.7217 25.7786 17.7532 25.8355C17.7846 25.8925 17.8275 25.9423 17.8791 25.982C17.5275 26.3962 17.2499 26.8678 17.0584 27.3761C16.9585 27.5817 16.9345 27.8159 16.9906 28.0375C17.0675 28.2518 17.357 28.4038 17.5402 28.2683C17.477 28.3549 17.4406 28.4582 17.4354 28.5653C17.4302 28.6723 17.4564 28.7786 17.5109 28.871C17.2984 28.871 17.2324 29.2026 17.3771 29.3583C17.4593 29.4261 17.5546 29.4762 17.6571 29.5055C17.7595 29.5349 17.8669 29.5427 17.9725 29.5287C18.1847 29.4999 18.4007 29.5383 18.5899 29.6386C18.5876 29.6645 18.58 29.6897 18.5678 29.7127C18.5555 29.7357 18.5387 29.756 18.5184 29.7723C18.3381 29.9067 18.2164 30.1053 18.1786 30.327C18.1407 30.5487 18.1896 30.7765 18.3151 30.9631C18.3407 30.9979 18.3646 31.0309 18.3847 31.062C18.5587 31.2475 18.768 31.3963 19.0003 31.4999C19.4784 31.7545 19.766 31.7087 20.3028 31.7893C20.1526 32.1356 21.0191 32.9087 22.023 32.1557C23.804 32.6798 25.6514 32.9433 27.5079 32.938C27.801 32.938 28.1546 32.905 28.2883 32.6412C28.4095 32.6647 28.5347 32.6572 28.6523 32.6194C28.7698 32.5816 28.8759 32.5148 28.9607 32.425C29.129 32.2436 29.2642 32.034 29.36 31.8058C29.6145 31.7339 29.8404 31.5851 30.007 31.3798C30.1736 31.1745 30.2727 30.9228 30.2907 30.659C30.464 30.524 30.6074 30.3545 30.7118 30.1612C30.8162 29.9679 30.8792 29.755 30.8971 29.536C31.0184 29.4941 31.1297 29.4276 31.2241 29.3406C31.3185 29.2536 31.3938 29.1481 31.4455 29.0306C31.4971 28.9131 31.5238 28.7861 31.524 28.6578C31.5242 28.5294 31.4979 28.4024 31.4467 28.2848C31.3438 27.6754 31.1408 27.0874 30.8458 26.5444C31.1847 26.4729 31.3147 26.0186 31.1774 25.7017C31.04 25.3848 30.7358 25.1796 30.4446 24.9927C30.6955 25.0623 30.9172 24.7472 30.8604 24.4926C30.817 24.3691 30.7496 24.2554 30.6623 24.158C30.5749 24.0605 30.4692 23.9813 30.3511 23.9247C30.0245 23.7248 29.6743 23.566 29.3087 23.452C29.1933 23.0069 28.6291 22.4976 28.2096 22.2979C26.537 21.4918 25.3645 21.283 23.2156 22.8328" fill="#263238"/>
<path d="M21.9153 25.522C21.8933 25.1684 21.8347 24.8204 22.1828 24.7672L25.7478 23.6919C26.8964 23.5178 27.7281 24.9046 27.8545 26.0606C27.9938 27.343 28.1128 28.9167 28.0048 29.8839C27.9478 30.4358 27.7359 30.9603 27.3936 31.397C27.0513 31.8336 26.5925 32.1645 26.0702 32.3516L26.116 33.5314C25.9676 34.4474 25.7368 35.4605 25.3686 35.825C24.1082 35.5887 22.0454 32.8169 22.0454 32.8169L21.9153 25.522Z" fill="#AE7461"/>
<path d="M25.9891 28.9955C26.128 28.9454 26.2726 28.9128 26.4196 28.8984C26.4874 28.8892 26.5515 28.8727 26.5606 28.8251C26.5626 28.7545 26.5434 28.685 26.5057 28.6254L26.2803 28.1161C25.9689 27.3833 25.7308 26.7934 25.7674 26.7806C25.804 26.7678 26.0752 27.3467 26.3866 28.063C26.4635 28.2462 26.535 28.4111 26.6028 28.5759C26.6501 28.6559 26.667 28.7502 26.6504 28.8416C26.6416 28.8658 26.6275 28.8878 26.6092 28.9059C26.5908 28.9239 26.5686 28.9377 26.5442 28.946C26.5066 28.9571 26.4679 28.9639 26.4287 28.9661C26.2842 28.9959 26.1363 29.0058 25.9891 28.9955Z" fill="#263238"/>
<path d="M26.071 32.3516C25.2333 32.2506 24.4239 31.9848 23.6895 31.5693C23.6895 31.5693 24.1365 32.7876 26.071 32.936V32.3516Z" fill="#6F4439"/>
<path d="M24.8492 26.026C24.8272 26.0993 24.5597 26.0773 24.2483 26.1286C23.9368 26.1799 23.6877 26.277 23.6437 26.2147C23.6236 26.1836 23.6639 26.114 23.7628 26.0315C23.8942 25.9366 24.0461 25.8739 24.2061 25.8483C24.3654 25.8213 24.5288 25.8332 24.6824 25.8831C24.7997 25.9363 24.8601 25.9912 24.8492 26.026Z" fill="#263238"/>
<path d="M27.415 25.9818C27.3711 26.0441 27.1842 25.9818 26.9625 25.9965C26.7409 26.0112 26.5577 26.057 26.5119 25.9965C26.4899 25.9672 26.5119 25.9049 26.5962 25.8444C26.703 25.7692 26.8301 25.7279 26.9609 25.7259C27.0916 25.7239 27.2198 25.7614 27.3289 25.8335C27.4059 25.8902 27.4334 25.9507 27.415 25.9818Z" fill="#263238"/>
<path d="M28.7224 26.9877C28.7144 26.6818 28.6012 26.3881 28.4018 26.156C28.2734 26.0474 28.1511 25.9318 28.0355 25.8097C27.8174 25.5258 27.8523 25.1282 27.757 24.782C27.6947 24.5583 27.5802 24.3527 27.4228 24.182C27.2655 24.0112 27.0698 23.8803 26.852 23.8001C26.4856 23.6718 26.0789 23.6883 25.7382 23.5088C25.4872 23.375 25.2948 23.1424 25.0365 23.0251C24.5327 22.7961 23.9483 23.0544 23.472 23.3384C23.3786 23.7176 23.6167 24.0437 23.8384 24.3588C23.9556 24.5152 24.1051 24.6444 24.2768 24.7377C24.4484 24.8309 24.6382 24.8861 24.8332 24.8992C25.1354 24.9176 25.4872 24.8479 25.6997 25.0641C25.9122 25.2803 25.8371 25.6888 26.0203 25.949C26.2823 26.3153 26.8795 26.178 27.2715 26.4069C27.5738 26.5901 27.702 26.9565 27.8541 27.2625C28.0061 27.5684 28.2718 27.9092 28.6217 27.8908C28.6899 27.5947 28.7237 27.2916 28.7224 26.9877Z" fill="#263238"/>
<path d="M24.231 24.0273C23.3467 24.0148 22.4683 24.1735 21.6442 24.4944C21.3903 24.5703 21.167 24.7249 21.0067 24.936C20.8987 25.142 20.8523 25.3748 20.873 25.6065C20.873 26.3301 21.1734 27.2149 21.45 27.8836L22.3532 28.4332C23.0493 28.2683 22.7196 27.0665 22.6958 26.4638C22.9378 26.3534 23.1439 26.1772 23.2906 25.9553C23.4373 25.7335 23.5188 25.4748 23.5256 25.2089C23.7252 25.0784 23.8924 24.9042 24.0147 24.6995C24.1369 24.4948 24.2108 24.2649 24.231 24.0273Z" fill="#263238"/>
<path d="M22.3424 28.1638C22.3131 27.7498 21.8093 27.671 21.4429 27.8872C21.2469 28.0044 21.1003 28.2371 21.126 28.6749C21.1937 29.8474 22.357 29.5378 22.357 29.503C22.357 29.4682 22.3735 28.6493 22.3424 28.1638Z" fill="#AE7461"/>
<path d="M21.9822 29.076C21.9822 29.076 21.9639 29.0925 21.9291 29.1108C21.8817 29.1339 21.8272 29.1378 21.777 29.1218C21.6987 29.0781 21.6333 29.0143 21.5876 28.9371C21.5419 28.8599 21.5175 28.7719 21.5169 28.6821C21.5081 28.582 21.5219 28.4813 21.5572 28.3872C21.5661 28.3498 21.5839 28.3151 21.6091 28.2861C21.6343 28.257 21.6661 28.2345 21.7019 28.2205C21.7252 28.2138 21.7501 28.2151 21.7726 28.224C21.7951 28.233 21.8141 28.2491 21.8265 28.2699C21.843 28.3029 21.8375 28.3267 21.843 28.3267C21.8485 28.3267 21.8668 28.3066 21.8558 28.259C21.8469 28.2302 21.8289 28.2052 21.8045 28.1875C21.7708 28.166 21.7302 28.1582 21.6909 28.1655C21.6445 28.1768 21.6016 28.1994 21.5661 28.2314C21.5306 28.2634 21.5036 28.3037 21.4876 28.3487C21.444 28.4535 21.4264 28.5673 21.4363 28.6803C21.4362 28.7849 21.4672 28.8872 21.5252 28.9743C21.5832 29.0613 21.6658 29.1293 21.7624 29.1694C21.7941 29.1764 21.827 29.1762 21.8587 29.1689C21.8904 29.1617 21.92 29.1474 21.9456 29.1273C21.9822 29.1053 21.995 29.0778 21.9822 29.076Z" fill="#6F4439"/>
<path d="M21.8511 29.5691C21.8511 29.5691 21.8511 29.5691 21.8511 29.5855C21.8469 29.6006 21.8414 29.6153 21.8346 29.6295C21.8049 29.6848 21.757 29.7281 21.6991 29.7523C21.6077 29.7919 21.5092 29.8124 21.4096 29.8127C21.3483 29.8142 21.287 29.8099 21.2264 29.7999C21.1552 29.7899 21.086 29.7689 21.0212 29.7376H21.0359C21.0193 29.8367 20.9774 29.9299 20.9142 30.008C20.8509 30.0861 20.7686 30.1465 20.6751 30.1834C20.5816 30.2203 20.4802 30.2324 20.3806 30.2184C20.2811 30.2045 20.1869 30.1651 20.1071 30.104H20.1272C20.1099 30.1306 20.0873 30.1535 20.0608 30.1711C20.0344 30.1887 20.0046 30.2008 19.9734 30.2066C19.9121 30.2191 19.8486 30.214 19.7902 30.1919C19.7267 30.1682 19.6727 30.1245 19.6363 30.0673C19.6012 30.009 19.5811 29.943 19.5777 29.875C19.5718 29.7334 19.6166 29.5944 19.7041 29.483C19.7899 29.3669 19.8896 29.2617 20.0008 29.1697V29.1972C19.953 29.1656 19.912 29.1247 19.8805 29.0768C19.849 29.0289 19.8276 28.9751 19.8176 28.9187C19.7956 28.8031 19.807 28.6836 19.8506 28.5743C19.8991 28.4641 19.9688 28.3644 20.0558 28.2812C20.1428 28.1971 20.2352 28.1188 20.3324 28.0467V28.0723C20.2908 28.0269 20.259 27.9733 20.2391 27.915C20.2193 27.8567 20.2117 27.7948 20.217 27.7334C20.2253 27.6068 20.2712 27.4856 20.3489 27.3853C20.507 27.2109 20.7023 27.0744 20.9205 26.986L20.9113 27.0061C20.8831 26.8851 20.8843 26.7591 20.9148 26.6387C20.9453 26.5182 21.0041 26.4068 21.0864 26.3137C21.1687 26.2207 21.2721 26.1486 21.3879 26.1037C21.5038 26.0587 21.6287 26.0422 21.7522 26.0553L21.7339 26.0755C21.7172 25.9783 21.7213 25.8786 21.7459 25.7831C21.7705 25.6876 21.8151 25.5983 21.8768 25.5213C21.9384 25.4443 22.0156 25.3812 22.1034 25.3362C22.1912 25.2912 22.2875 25.2653 22.3861 25.2603L22.3714 25.2768C22.3741 25.177 22.3995 25.0792 22.4455 24.9907C22.4915 24.9021 22.557 24.8252 22.637 24.7656C22.7053 24.7107 22.784 24.6701 22.8684 24.6465C22.9528 24.6229 23.0411 24.6167 23.128 24.6282L23.1134 24.6411C23.1193 24.5345 23.1521 24.4311 23.2086 24.3406C23.2575 24.2591 23.3194 24.1861 23.3918 24.1244C23.5026 24.0239 23.6438 23.9633 23.793 23.9522H23.837H23.8773C23.9023 23.9502 23.9274 23.9502 23.9524 23.9522C23.9902 23.9607 24.0275 23.9711 24.0641 23.9834L24.1301 24.0127H24.1503C24.1503 24.0127 24.1503 24.0127 24.1283 24.0127L24.0623 23.9889C24.033 23.9761 23.9945 23.9724 23.9506 23.9596C23.9262 23.9576 23.9017 23.9576 23.8773 23.9596H23.837H23.793C23.6468 23.9759 23.5102 24.0403 23.4046 24.1428C23.335 24.2021 23.2767 24.2734 23.2324 24.3534C23.1787 24.4415 23.1479 24.5417 23.1427 24.6447V24.6575H23.1298C23.0464 24.6468 22.9616 24.6531 22.8807 24.6761C22.7998 24.6991 22.7244 24.7383 22.659 24.7913C22.583 24.8487 22.5208 24.9225 22.4771 25.0071C22.4333 25.0918 22.4091 25.1852 22.4062 25.2804V25.2951H22.3916C22.2979 25.3007 22.2065 25.326 22.1232 25.3693C22.04 25.4126 21.9668 25.4729 21.9084 25.5463C21.85 25.6198 21.8077 25.7047 21.7843 25.7955C21.7608 25.8864 21.7568 25.9811 21.7724 26.0737V26.0956H21.7485C21.6295 26.0822 21.509 26.0977 21.3972 26.1408C21.2854 26.1839 21.1857 26.2534 21.1065 26.3433C21.0274 26.4333 20.9711 26.541 20.9426 26.6574C20.914 26.7737 20.914 26.8953 20.9425 27.0116V27.0244H20.9297C20.7201 27.1119 20.5325 27.2445 20.3801 27.4128C20.3062 27.5077 20.2628 27.6226 20.2555 27.7426C20.2497 27.7992 20.256 27.8564 20.274 27.9105C20.292 27.9645 20.3213 28.014 20.3599 28.0558L20.3746 28.0687L20.3581 28.0815C20.1595 28.209 19.9973 28.3857 19.8873 28.5944C19.8454 28.6971 19.834 28.8097 19.8543 28.9187C19.8632 28.971 19.8829 29.0208 19.9123 29.065C19.9416 29.1092 19.9799 29.1467 20.0247 29.1752L20.0448 29.188L20.0265 29.2027C19.9134 29.2881 19.8112 29.3871 19.7224 29.4976C19.6404 29.6018 19.5976 29.7315 19.6015 29.864C19.6003 29.9251 19.6169 29.9853 19.6495 30.037C19.682 30.0888 19.729 30.1299 19.7847 30.1553C19.8375 30.1793 19.8969 30.185 19.9533 30.1714C20.0098 30.1577 20.06 30.1256 20.0961 30.0802V30.0673L20.1071 30.0765C20.1838 30.1349 20.2743 30.1725 20.3698 30.1858C20.4653 30.199 20.5626 30.1874 20.6523 30.152C20.742 30.1166 20.821 30.0587 20.8818 29.9839C20.9426 29.9091 20.983 29.8198 20.9993 29.7248V29.7119H21.0103C21.0733 29.7426 21.1406 29.7636 21.2099 29.7742C21.2705 29.7842 21.3318 29.7891 21.3931 29.7889C21.4911 29.7899 21.5883 29.7712 21.6789 29.7339C21.7353 29.711 21.7828 29.6705 21.8145 29.6185C21.828 29.603 21.8402 29.5865 21.8511 29.5691Z" fill="#455A64"/>
<path d="M17.3871 28.3177C17.3702 28.2953 17.3555 28.2714 17.3431 28.2462C17.3074 28.1735 17.2863 28.0944 17.2809 28.0136C17.2713 27.884 17.3055 27.755 17.378 27.6472C17.4257 27.575 17.488 27.5136 17.5609 27.4669C17.6338 27.4202 17.7156 27.3893 17.8011 27.3761V27.3907C17.7612 27.1912 17.7992 26.9841 17.9074 26.8118C17.9647 26.7146 18.043 26.6314 18.1364 26.5682C18.2381 26.5073 18.3455 26.4564 18.457 26.4161C18.5116 26.3934 18.5627 26.3631 18.609 26.3263C18.6555 26.2868 18.6924 26.2373 18.7171 26.1816C18.7684 26.0699 18.7849 25.9361 18.8509 25.8152C18.9213 25.692 19.0269 25.5925 19.1542 25.5295C19.2815 25.4665 19.4246 25.4429 19.5653 25.4616L19.5452 25.4818C19.5249 25.3394 19.5375 25.1943 19.5821 25.0576C19.6267 24.9209 19.7021 24.7963 19.8024 24.6933C19.9027 24.5903 20.0254 24.5117 20.1609 24.4636C20.2963 24.4154 20.4411 24.399 20.5839 24.4156L20.5638 24.4357C20.5468 24.2793 20.5749 24.1213 20.6448 23.9803C20.7148 23.8393 20.8236 23.7213 20.9584 23.6402C21.0933 23.5591 21.2485 23.5183 21.4058 23.5226C21.5631 23.5269 21.7159 23.5761 21.8461 23.6645H21.8113C21.9275 23.5524 22.067 23.4674 22.2199 23.4153C22.3552 23.3639 22.497 23.3312 22.6412 23.3182C22.8735 23.2921 23.1086 23.3076 23.3355 23.364C23.4811 23.3996 23.6202 23.4577 23.7477 23.5362C23.7809 23.5568 23.8127 23.5794 23.843 23.604L23.8741 23.6315C23.8741 23.6315 23.8302 23.5967 23.744 23.5436C23.6157 23.4686 23.4767 23.4137 23.3319 23.3805C23.1062 23.3278 22.8731 23.3148 22.643 23.3421C22.5015 23.3569 22.3624 23.3895 22.229 23.4391C22.0805 23.4926 21.945 23.5769 21.8315 23.6865H21.8205C21.696 23.6023 21.5501 23.5552 21.3999 23.5509C21.2497 23.5465 21.1014 23.585 20.9722 23.6619C20.8431 23.7388 20.7385 23.8508 20.6707 23.9849C20.6029 24.119 20.5747 24.2697 20.5894 24.4193V24.4412H20.5674C20.43 24.4253 20.2907 24.4411 20.1603 24.4874C20.0299 24.5337 19.9118 24.6094 19.8152 24.7084C19.7186 24.8075 19.646 24.9274 19.603 25.059C19.56 25.1905 19.5477 25.3301 19.5672 25.4671V25.5056H19.5452C19.4146 25.4896 19.2823 25.5119 19.1642 25.5698C19.0461 25.6277 18.9474 25.7187 18.8802 25.8317C18.8179 25.9453 18.8014 26.0772 18.7464 26.1981C18.7204 26.2582 18.6809 26.3114 18.631 26.3538C18.581 26.3925 18.5262 26.4245 18.468 26.4491C18.3587 26.4883 18.2533 26.5373 18.1529 26.5956C18.0623 26.6567 17.9861 26.7367 17.9294 26.8301C17.8279 26.9941 17.7901 27.1897 17.8231 27.3797V27.3925H17.8103C17.7275 27.4043 17.6481 27.4331 17.5771 27.4773C17.5062 27.5215 17.4452 27.5799 17.3981 27.649C17.3275 27.7543 17.2928 27.8796 17.2992 28.0062C17.3027 28.0854 17.3214 28.1631 17.3541 28.2352C17.3725 28.292 17.3889 28.3159 17.3871 28.3177Z" fill="#455A64"/>
<path d="M28.5889 28.6328C28.582 28.6178 28.5785 28.6016 28.5785 28.5851C28.5785 28.5687 28.582 28.5524 28.5889 28.5375C28.6024 28.4996 28.6258 28.4661 28.6567 28.4404C28.6994 28.4063 28.7487 28.3814 28.8014 28.3671C28.866 28.3506 28.9277 28.3247 28.9846 28.2902C29.0468 28.2445 29.0929 28.1804 29.1165 28.107C29.1434 28.0199 29.1534 27.9285 29.1458 27.8377C29.1458 27.7406 29.1275 27.6398 29.1275 27.5299C29.15 27.2941 29.1998 27.0617 29.2759 26.8374C29.3065 26.7109 29.3115 26.5794 29.2906 26.4509C29.2815 26.3837 29.2578 26.3193 29.2211 26.2623C29.1844 26.2053 29.1355 26.1571 29.0781 26.1211C28.9476 26.0578 28.8097 26.0111 28.6677 25.9819C28.593 25.9617 28.5224 25.9289 28.4589 25.8848C28.3942 25.8378 28.343 25.7746 28.3105 25.7016C28.2525 25.5526 28.2108 25.3979 28.1859 25.24C28.1712 25.1622 28.144 25.0873 28.1053 25.0183C28.0657 24.9505 28.0053 24.8971 27.9331 24.8662C27.8274 24.8375 27.7184 24.8227 27.6088 24.8223C27.552 24.8182 27.4962 24.8046 27.4439 24.782C27.3926 24.756 27.348 24.7184 27.3139 24.672C27.2596 24.5779 27.2183 24.4768 27.1911 24.3716C27.1611 24.2745 27.1112 24.1846 27.0446 24.1078C26.9809 24.034 26.9026 23.9742 26.8146 23.9323C26.7266 23.8903 26.6309 23.8671 26.5335 23.8641C26.3507 23.86 26.1732 23.9255 26.037 24.0473L26.0205 24.062V24.0418C25.9536 23.8983 25.857 23.7707 25.7369 23.6674C25.6169 23.5641 25.4763 23.4875 25.3244 23.4428C25.1972 23.4056 25.064 23.3938 24.9323 23.408C24.8204 23.4185 24.7112 23.4489 24.6099 23.4978C24.4683 23.5685 24.3496 23.6777 24.2673 23.8129C24.2452 23.8478 24.2262 23.8845 24.2105 23.9228L24.1959 23.9521V23.9612C24.1951 23.9576 24.1951 23.9539 24.1959 23.9502L24.2069 23.9209C24.2216 23.8814 24.24 23.8434 24.2618 23.8074C24.3415 23.6673 24.4606 23.5539 24.6044 23.4813C24.7074 23.4309 24.8184 23.3987 24.9323 23.386C25.0662 23.3714 25.2017 23.382 25.3317 23.4171C25.4882 23.4624 25.6333 23.5405 25.7571 23.6464C25.881 23.7522 25.9808 23.8833 26.0498 24.0309H26.026C26.1697 23.9069 26.3548 23.8415 26.5445 23.8477C26.7 23.8537 26.8498 23.9078 26.9732 24.0027C27.0966 24.0975 27.1875 24.2284 27.2333 24.3771C27.2592 24.4793 27.2993 24.5773 27.3524 24.6684C27.384 24.7099 27.4247 24.7437 27.4714 24.7672C27.518 24.7907 27.5694 24.8033 27.6217 24.8039C27.7343 24.8042 27.8465 24.8196 27.9551 24.8497C28.0321 24.8847 28.0962 24.943 28.1383 25.0165C28.1776 25.0895 28.206 25.1679 28.2225 25.2491C28.2468 25.4044 28.2873 25.5567 28.3434 25.7034C28.3738 25.7716 28.4211 25.8309 28.4808 25.8756C28.542 25.9173 28.6094 25.9489 28.6805 25.9691C28.8254 25.9984 28.9658 26.0465 29.0982 26.112C29.1611 26.1502 29.2139 26.2029 29.2521 26.2659C29.2872 26.3272 29.3113 26.3941 29.3235 26.4637C29.344 26.596 29.3384 26.7311 29.3071 26.8612C29.2306 27.0839 29.179 27.3143 29.1532 27.5482C29.1532 27.6545 29.1678 27.7571 29.1697 27.856C29.1768 27.9489 29.1656 28.0423 29.1367 28.1308C29.1132 28.2102 29.0634 28.2793 28.9956 28.3268C28.9387 28.3609 28.8769 28.3862 28.8124 28.4019C28.7616 28.4155 28.7137 28.4385 28.6714 28.4697C28.6409 28.494 28.617 28.5255 28.6018 28.5613C28.5917 28.5837 28.5873 28.6083 28.5889 28.6328Z" fill="#455A64"/>
<path d="M30.8683 26.8172C30.8683 26.8172 30.8683 26.8172 30.8555 26.7953L30.8244 26.7311L30.7034 26.4765C30.6503 26.3666 30.5899 26.2292 30.5056 26.079C30.4163 25.9044 30.2798 25.7585 30.1117 25.6576C30.0183 25.6063 29.9084 25.5715 29.7984 25.5239C29.7416 25.4984 29.6876 25.4671 29.6372 25.4304C29.5863 25.3889 29.5456 25.3363 29.5182 25.2766C29.4632 25.1556 29.4614 25.0182 29.4174 24.8918C29.3963 24.8286 29.3568 24.773 29.3038 24.7325C29.2482 24.6929 29.1863 24.6631 29.1206 24.6445C29.0493 24.6247 28.98 24.5984 28.9136 24.5658C28.8445 24.5281 28.7888 24.4698 28.7542 24.399C28.6997 24.253 28.6658 24.1001 28.6535 23.9447C28.6423 23.8689 28.6161 23.796 28.5765 23.7304C28.5334 23.6676 28.4678 23.6237 28.3933 23.6076C28.2394 23.5747 28.0746 23.6296 27.9024 23.6076C27.8149 23.5941 27.734 23.553 27.6715 23.4904C27.6147 23.4294 27.5655 23.3617 27.525 23.2889C27.4859 23.2189 27.4431 23.151 27.3967 23.0855C27.3521 23.0234 27.293 22.9731 27.2245 22.939C27.0807 22.8904 26.925 22.8904 26.7812 22.939C26.6373 22.9836 26.4855 22.9968 26.336 22.9774C26.1971 22.9404 26.0661 22.8783 25.9495 22.7942C25.8408 22.7198 25.7255 22.6554 25.6051 22.6019C25.38 22.5274 25.1382 22.5197 24.9089 22.5799C24.7196 22.6287 24.5437 22.7195 24.3941 22.8455C24.2824 22.9423 24.1865 23.056 24.1102 23.1826C24.0619 23.2625 24.0209 23.3465 23.9874 23.4336C23.9764 23.4629 23.9673 23.4849 23.96 23.5014C23.9604 23.5093 23.9604 23.5173 23.96 23.5252C23.96 23.5252 23.96 23.516 23.96 23.5014C23.96 23.4867 23.9728 23.4611 23.9838 23.4318C24.0608 23.1994 24.1987 22.9918 24.3831 22.8309C24.5333 22.7008 24.7113 22.6068 24.9034 22.5561C25.1376 22.4919 25.3855 22.4983 25.6161 22.5744C25.7386 22.6247 25.8563 22.6861 25.9678 22.7576C26.0822 22.8372 26.2101 22.8956 26.3452 22.9298C26.4899 22.9479 26.6368 22.9342 26.7757 22.8895C26.8509 22.8701 26.9274 22.8567 27.0047 22.8492C27.0854 22.842 27.1667 22.8552 27.241 22.8877C27.3148 22.9232 27.378 22.9775 27.4242 23.0452C27.472 23.1111 27.516 23.1796 27.5561 23.2504C27.5949 23.3207 27.6423 23.3859 27.6972 23.4446C27.7525 23.5016 27.8242 23.5401 27.9024 23.5545C28.0617 23.5802 28.2284 23.527 28.3952 23.5545C28.437 23.5627 28.4768 23.579 28.5123 23.6026C28.5479 23.6262 28.5784 23.6565 28.6022 23.6919C28.6456 23.761 28.6743 23.8383 28.6864 23.9191C28.699 24.0715 28.731 24.2217 28.7817 24.3661C28.8135 24.4308 28.8648 24.4839 28.9283 24.5181C28.993 24.5497 29.0604 24.5755 29.1298 24.5951C29.2007 24.6145 29.2676 24.6461 29.3276 24.6885C29.387 24.7349 29.43 24.7991 29.4504 24.8717C29.4962 25.0054 29.4962 25.141 29.5493 25.2564C29.6049 25.3643 29.6991 25.4474 29.8131 25.4891C29.9212 25.5385 30.0311 25.5733 30.1282 25.6265C30.299 25.7301 30.4368 25.88 30.5257 26.0588C30.61 26.2127 30.6686 26.3501 30.7181 26.4618L30.8335 26.7183C30.8463 26.7458 30.8555 26.7678 30.8628 26.7861L30.8683 26.8172Z" fill="#455A64"/>
<path d="M29.6212 25.5917H29.6432C29.6649 25.5908 29.6864 25.5959 29.7055 25.6064C29.7404 25.6286 29.7692 25.6591 29.7894 25.6953C29.8095 25.7314 29.8203 25.772 29.8209 25.8134C29.8222 25.8753 29.8142 25.9371 29.7971 25.9966C29.7771 26.0619 29.7666 26.1298 29.7659 26.1981C29.7739 26.2762 29.8023 26.3508 29.8483 26.4143C29.8941 26.4857 29.9528 26.5553 29.9986 26.6396C30.0256 26.6833 30.0423 26.7326 30.0474 26.7837C30.0525 26.8348 30.0458 26.8864 30.0279 26.9346C29.9912 27.0335 29.918 27.1178 29.8832 27.2185C29.8523 27.3261 29.8634 27.4413 29.9143 27.5409C29.9601 27.649 30.026 27.7516 30.07 27.8707C30.0938 27.9289 30.1068 27.991 30.1085 28.0539C30.1078 28.121 30.0928 28.1872 30.0645 28.2481C30.0001 28.3662 29.9253 28.4784 29.841 28.5833C29.7554 28.6856 29.7116 28.8165 29.7183 28.9497C29.7489 29.0869 29.7962 29.2198 29.8593 29.3454C29.8869 29.4143 29.9018 29.4875 29.9033 29.5616C29.9009 29.6351 29.8821 29.707 29.8483 29.7723C29.777 29.8921 29.6921 30.0033 29.5955 30.1039C29.5047 30.1988 29.4348 30.3118 29.3904 30.4355C29.3576 30.5599 29.3172 30.6823 29.2694 30.8019C29.2408 30.8593 29.2002 30.9099 29.1504 30.9502C29.0996 30.9857 29.0433 31.0123 28.9837 31.029C28.9287 31.0492 28.8719 31.0638 28.8224 31.0876C28.7732 31.1117 28.7276 31.1425 28.6869 31.1792C28.615 31.2544 28.5534 31.3388 28.5037 31.4302C28.4506 31.5182 28.3993 31.6043 28.3443 31.6812C28.2437 31.8224 28.1005 31.9277 27.9358 31.9816C27.8124 32.022 27.6817 32.0345 27.5529 32.0183C27.4717 32.0077 27.3927 31.9848 27.3184 31.9505C27.2932 31.9378 27.2687 31.9238 27.2451 31.9084C27.3421 31.9577 27.4468 31.9899 27.5547 32.0036C27.6783 32.0165 27.8033 32.0028 27.9211 31.9633C28.0809 31.9083 28.2193 31.8045 28.3168 31.6665C28.3699 31.5896 28.4194 31.5053 28.4725 31.4156C28.5257 31.3214 28.5916 31.2351 28.6686 31.1591C28.7103 31.1184 28.7586 31.085 28.8115 31.0602C28.8651 31.0365 28.9201 31.0163 28.9763 30.9997C29.032 30.9833 29.0846 30.9579 29.132 30.9246C29.1783 30.8874 29.2158 30.8405 29.242 30.7872C29.2892 30.6678 29.3284 30.5454 29.3592 30.4208C29.4057 30.2931 29.4773 30.176 29.5699 30.0764C29.6646 29.9782 29.7476 29.8694 29.8172 29.7521C29.8497 29.6918 29.8673 29.6246 29.8685 29.5561C29.8679 29.487 29.8542 29.4186 29.8282 29.3546C29.7632 29.2262 29.7146 29.0902 29.6835 28.9497C29.6756 28.8776 29.6857 28.8046 29.7128 28.7372C29.7389 28.6723 29.7727 28.6108 29.8135 28.554C29.8968 28.4507 29.9709 28.3404 30.0352 28.2243C30.0615 28.1667 30.0758 28.1044 30.0773 28.0411C30.0768 27.9782 30.0644 27.9161 30.0407 27.8579C29.9986 27.7425 29.9344 27.638 29.8886 27.5281C29.8331 27.422 29.8219 27.2981 29.8575 27.1837C29.896 27.0756 29.9693 27.0005 30.0041 26.8979C30.0213 26.8536 30.028 26.8058 30.0235 26.7584C30.0191 26.711 30.0036 26.6653 29.9784 26.625C29.9344 26.5444 29.8777 26.4747 29.8319 26.4015C29.7848 26.3342 29.7558 26.256 29.7476 26.1743C29.749 26.1034 29.7607 26.033 29.7824 25.9655C29.7989 25.9101 29.8081 25.8528 29.8099 25.7951C29.809 25.7555 29.799 25.7168 29.7805 25.6818C29.7621 25.6468 29.7358 25.6166 29.7036 25.5936C29.6768 25.5854 29.6483 25.5847 29.6212 25.5917Z" fill="#455A64"/>
<path d="M25.1469 29.3894C25.1627 29.3517 25.1925 29.3215 25.23 29.3052C25.2675 29.2888 25.3099 29.2875 25.3484 29.3015L26.0812 29.5708L26.1636 29.602C26.1271 29.751 26.0723 29.895 26.0006 30.0306C25.9672 30.0889 25.9216 30.1392 25.8669 30.1782C25.8121 30.2171 25.7496 30.2436 25.6836 30.256C25.5749 30.264 25.4664 30.2371 25.374 30.179C25.2971 30.1441 25.2283 30.0935 25.1721 30.0304C25.116 29.9673 25.0737 29.8931 25.0479 29.8126C25.046 29.6656 25.0799 29.5204 25.1469 29.3894Z" fill="#6F4439"/>
<path d="M21.1578 29.3785C21.0912 29.401 21.0292 29.4351 20.9746 29.4793C20.8266 29.5967 20.7253 29.763 20.6888 29.9483C20.6597 30.0749 20.6597 30.2064 20.6888 30.333C20.733 30.4835 20.8126 30.6213 20.9209 30.7348C21.0293 30.8483 21.1633 30.9341 21.3117 30.9852C21.4805 31.042 21.6627 31.0458 21.8338 30.9962C22.0054 30.9498 22.1604 30.8558 22.2808 30.725C22.393 30.6023 22.4669 30.4495 22.4933 30.2853C22.5169 30.1481 22.5085 30.0073 22.4688 29.8739C22.4291 29.7404 22.3591 29.6179 22.2643 29.5159C22.1878 29.4409 22.0968 29.3823 21.9968 29.3437C21.9232 29.3125 21.8455 29.2922 21.766 29.2833C21.7156 29.2752 21.6643 29.2752 21.6139 29.2833C21.5971 29.2867 21.5805 29.2916 21.5645 29.2979C21.6307 29.2881 21.698 29.2881 21.7642 29.2979C21.8412 29.3101 21.9164 29.3322 21.9877 29.3639C22.0818 29.4053 22.1675 29.4637 22.2405 29.5361C22.33 29.6354 22.3957 29.7539 22.4325 29.8825C22.4693 30.0111 22.4763 30.1463 22.453 30.278C22.4261 30.433 22.3548 30.5768 22.2478 30.692C22.1329 30.8164 21.9858 30.9064 21.8228 30.9522C21.6601 30.9987 21.4872 30.9955 21.3263 30.943C21.1764 30.8922 21.0416 30.8047 20.9343 30.6884C20.8371 30.5842 20.7656 30.4587 20.7254 30.322C20.6929 30.2025 20.6878 30.0773 20.7108 29.9556C20.7433 29.7761 20.8372 29.6136 20.9764 29.4958C21.0341 29.4525 21.0947 29.4133 21.1578 29.3785Z" fill="#E0E0E0"/>
<path d="M25.045 27.867C25.049 27.9332 25.0269 27.9984 24.9834 28.0484C24.9398 28.0984 24.8784 28.1293 24.8123 28.1345C24.78 28.1386 24.7472 28.1361 24.7158 28.1273C24.6845 28.1185 24.6552 28.1035 24.6298 28.0831C24.6043 28.0628 24.5832 28.0376 24.5677 28.009C24.5522 27.9804 24.5425 27.9489 24.5393 27.9165C24.5363 27.8502 24.559 27.7854 24.6027 27.7355C24.6464 27.6856 24.7077 27.6546 24.7738 27.649C24.806 27.6452 24.8386 27.6479 24.8697 27.6568C24.9009 27.6657 24.9299 27.6808 24.9552 27.7011C24.9804 27.7214 25.0014 27.7465 25.0168 27.775C25.0322 27.8035 25.0418 27.8348 25.045 27.867Z" fill="#263238"/>
<path d="M27.4904 27.8046C27.4939 27.8707 27.4716 27.9356 27.4282 27.9855C27.3848 28.0354 27.3236 28.0665 27.2577 28.0721C27.2254 28.0759 27.1927 28.0733 27.1615 28.0644C27.1302 28.0554 27.1011 28.0404 27.0757 28.0201C27.0503 27.9998 27.0292 27.9747 27.0136 27.9462C26.9979 27.9177 26.9882 27.8864 26.9847 27.8541C26.9812 27.7877 27.0037 27.7226 27.0475 27.6726C27.0914 27.6227 27.153 27.5918 27.2192 27.5866C27.2514 27.5826 27.2841 27.585 27.3154 27.5939C27.3466 27.6027 27.3758 27.6177 27.4011 27.6381C27.4264 27.6584 27.4473 27.6837 27.4627 27.7123C27.478 27.7409 27.4874 27.7723 27.4904 27.8046Z" fill="#263238"/>
<path d="M27.388 26.8686C27.3642 26.907 27.1682 26.7751 26.919 26.8026C26.6699 26.8301 26.505 26.9858 26.4739 26.962C26.4427 26.9382 26.4739 26.8814 26.5508 26.8063C26.6429 26.7076 26.7681 26.6463 26.9025 26.6341C27.0362 26.6207 27.1703 26.6544 27.2818 26.7293C27.366 26.788 27.4008 26.8503 27.388 26.8686Z" fill="#263238"/>
<path d="M25.0013 27.0739C24.9665 27.1124 24.754 26.9475 24.4517 26.9493C24.1495 26.9511 23.9315 27.1142 23.9021 27.0757C23.8728 27.0372 23.9205 26.9878 24.0157 26.9127C24.1418 26.8158 24.2964 26.7633 24.4554 26.7633C24.6144 26.7633 24.769 26.8158 24.8951 26.9127C24.9867 26.9859 25.0178 27.0556 25.0013 27.0739Z" fill="#263238"/>
<path d="M25.8519 30.1644C25.8312 30.1917 25.8033 30.2126 25.7713 30.2248C25.6846 30.2594 25.5895 30.267 25.4984 30.2468C25.3613 30.2218 25.2342 30.1583 25.132 30.0636C25.0713 30.004 25.0287 29.9284 25.0092 29.8456C24.9891 29.7588 24.9891 29.6686 25.0092 29.5818C25.0306 29.4983 25.062 29.4178 25.1027 29.3418C25.1125 29.3186 25.127 29.2977 25.1453 29.2804C25.1636 29.263 25.1852 29.2496 25.2089 29.2411C25.2541 29.2336 25.3005 29.2413 25.3408 29.263L25.7072 29.4096C25.8225 29.4479 25.9326 29.5002 26.0351 29.5653C25.9158 29.5434 25.7992 29.509 25.6871 29.4627L25.3207 29.3308C25.2455 29.2997 25.2107 29.3052 25.1759 29.3766C25.1408 29.4483 25.1126 29.5231 25.0917 29.6001C25.0689 29.6708 25.0654 29.7462 25.0815 29.8186C25.0976 29.8911 25.1327 29.9579 25.1833 30.0123C25.271 30.1011 25.3812 30.1644 25.502 30.1955C25.5836 30.2176 25.6696 30.2176 25.7512 30.1955C25.8171 30.179 25.8409 30.1589 25.8519 30.1644Z" fill="#263238"/>
<path d="M30.7475 21.981C30.6487 21.9067 30.541 21.8452 30.4269 21.7978C30.2927 21.7454 30.1495 21.7198 30.0055 21.7227C29.8159 21.7244 29.6304 21.7776 29.4687 21.8765L29.4449 21.893L29.4284 21.8674C29.297 21.6522 29.0866 21.4971 28.8422 21.435C28.7035 21.3951 28.5578 21.3862 28.4153 21.409C28.2728 21.4318 28.1371 21.4857 28.0178 21.5669L27.9867 21.5889L27.9647 21.5578C27.7211 21.2342 27.3622 21.0171 26.9626 20.9514C26.6504 20.8993 26.3298 20.9474 26.0466 21.0888C25.7873 21.2146 25.5674 21.4091 25.4109 21.6512V21.6677H25.3908C25.063 21.6805 24.7413 21.7603 24.4455 21.9022C24.2145 22.0123 24.0019 22.1576 23.8153 22.3327C23.6555 22.4919 23.5113 22.6662 23.3848 22.853C23.3848 22.853 23.3848 22.8383 23.4031 22.8108C23.4214 22.7834 23.4379 22.7431 23.469 22.6954C23.5596 22.5527 23.666 22.4206 23.786 22.3016C23.9716 22.1177 24.1856 21.9649 24.4198 21.8491C24.7215 21.6975 25.0517 21.6114 25.3889 21.5962L25.3596 21.6127C25.5211 21.3559 25.7516 21.1496 26.0246 21.0173C26.321 20.868 26.6572 20.8167 26.9846 20.8708C27.4041 20.9411 27.7802 21.1708 28.0343 21.512H27.9812C28.1099 21.4248 28.2564 21.3674 28.4101 21.3439C28.5638 21.3205 28.7208 21.3316 28.8697 21.3764C29.1298 21.4452 29.3522 21.6137 29.4889 21.8454L29.4486 21.8344C29.6196 21.7327 29.8157 21.6806 30.0147 21.6842C30.164 21.6843 30.3117 21.7148 30.4488 21.774C30.5351 21.8118 30.6158 21.8611 30.6888 21.9205C30.7109 21.9381 30.7306 21.9584 30.7475 21.981Z" fill="#263238"/>
<path d="M22.8055 21.5724C22.714 21.6164 22.614 21.6402 22.5124 21.642C22.372 21.6496 22.2316 21.6292 22.0992 21.582C21.9668 21.5348 21.8451 21.4618 21.7411 21.3672C21.5975 21.2303 21.498 21.0536 21.4553 20.8597C21.407 20.6354 21.4301 20.4016 21.5213 20.1911C21.6268 19.9564 21.8192 19.7719 22.0581 19.6763C22.317 19.5709 22.607 19.5709 22.866 19.6763L22.8202 19.6873C22.9333 19.5553 23.0886 19.4666 23.2598 19.4363C23.4034 19.4088 23.5517 19.4215 23.6885 19.4729C23.8207 19.5262 23.9337 19.6181 24.0128 19.7367C24.0883 19.8471 24.134 19.975 24.1455 20.1082C24.1571 20.2414 24.1341 20.3753 24.0787 20.497L24.0274 20.4494C24.1192 20.3983 24.2222 20.3704 24.3272 20.3682C24.4322 20.366 24.5362 20.3894 24.6301 20.4366C24.7177 20.4761 24.7957 20.5341 24.859 20.6065C24.9222 20.6789 24.9691 20.764 24.9965 20.8561C25.0373 21.0046 25.037 21.1614 24.9957 21.3098C24.9544 21.4582 24.8737 21.5926 24.762 21.6988C24.6183 21.8349 24.4394 21.9282 24.2454 21.9681C24.1947 21.9783 24.1432 21.985 24.0915 21.9882H24.0366C24.0366 21.9882 24.1099 21.9882 24.2399 21.9461C24.4251 21.8987 24.5944 21.8033 24.7309 21.6695C24.8327 21.5676 24.9054 21.4403 24.9415 21.3008C24.9776 21.1613 24.9757 21.0147 24.9361 20.8762C24.9106 20.7957 24.8683 20.7214 24.8121 20.6582C24.7559 20.5951 24.6871 20.5445 24.61 20.5098C24.5265 20.4682 24.4342 20.4475 24.3409 20.4498C24.2477 20.452 24.1564 20.477 24.0751 20.5227L23.967 20.5868L24.0219 20.475C24.0703 20.3645 24.0898 20.2434 24.0786 20.1233C24.0673 20.0031 24.0258 19.8877 23.9578 19.788C23.8866 19.6834 23.7859 19.6024 23.6684 19.5554C23.5462 19.5094 23.4135 19.4986 23.2855 19.5242C23.1315 19.5501 22.9914 19.6292 22.8898 19.7477L22.8715 19.7697L22.844 19.7587C22.6045 19.6606 22.336 19.6606 22.0965 19.7587C21.8737 19.8453 21.6936 20.0156 21.5946 20.2332C21.5069 20.4298 21.4832 20.649 21.5268 20.8597C21.5631 21.0428 21.6538 21.2107 21.7869 21.3415C21.9851 21.5277 22.2479 21.6295 22.5197 21.6255C22.6164 21.6169 22.7121 21.5991 22.8055 21.5724Z" fill="#263238"/>
<path d="M17.2296 24.6189C17.2202 24.6048 17.2128 24.5894 17.2076 24.5731C17.1892 24.5291 17.1739 24.4838 17.1618 24.4376C17.1188 24.2611 17.1145 24.0773 17.149 23.899C17.2011 23.6228 17.3459 23.3728 17.5594 23.19C17.6951 23.0752 17.8529 22.9894 18.023 22.9377C18.1931 22.8861 18.372 22.8697 18.5486 22.8896L18.5083 22.9097C18.6741 22.5754 18.9542 22.3115 19.2979 22.1659C19.5578 22.0579 19.8427 22.0249 20.1204 22.0707C20.3734 22.1122 20.612 22.2161 20.8148 22.3729H20.7763C21.0328 22.237 21.3196 22.1683 21.6098 22.1733C21.8343 22.176 22.0563 22.2214 22.2639 22.307C22.3952 22.3621 22.5185 22.4348 22.6302 22.5232C22.6716 22.5533 22.7092 22.5883 22.742 22.6276C22.5868 22.5139 22.4182 22.4198 22.24 22.3473C22.0363 22.2706 21.8202 22.2321 21.6025 22.2337C21.3236 22.2327 21.0489 22.302 20.8038 22.4352L20.7836 22.4462L20.7635 22.4316C20.5685 22.2855 20.3409 22.1893 20.1003 22.1513C19.8373 22.1088 19.5677 22.1406 19.3217 22.2429C18.9955 22.3804 18.7292 22.6299 18.5706 22.9464L18.5578 22.972H18.5303C18.3638 22.9524 18.195 22.9666 18.0342 23.0138C17.8733 23.061 17.7236 23.1403 17.5942 23.2468C17.388 23.418 17.2454 23.6535 17.1893 23.9155C17.1537 24.0883 17.1537 24.2666 17.1893 24.4394C17.2131 24.553 17.2388 24.6171 17.2296 24.6189Z" fill="#263238"/>
<path d="M38.0989 46.3425L37.4375 45.344L36.3786 44.8128L36.3383 44.7835C36.1675 44.6594 35.9711 44.575 35.7636 44.5364C35.556 44.4977 35.3425 44.5058 35.1384 44.56C34.7061 44.6754 34.1308 44.8183 33.6307 44.9044L32.4912 44.5911V46.8169L38.2418 46.4505L38.0989 46.3425Z" fill="#AE7461"/>
<path d="M38.0592 46.282C37.9863 46.1995 37.9046 46.1251 37.8155 46.0604C37.6598 45.9303 37.4491 45.7544 37.1982 45.5639L36.971 45.3807C36.7347 45.3367 36.5295 45.3019 36.3829 45.2781C36.306 45.2609 36.2273 45.2529 36.1484 45.2543C36.2206 45.2874 36.2971 45.3102 36.3756 45.3221C36.5185 45.3569 36.7218 45.4009 36.9563 45.4485H36.9417L37.1688 45.6317C37.4125 45.8149 37.636 45.9981 37.799 46.1117C37.8796 46.1774 37.9668 46.2345 38.0592 46.282Z" fill="#6F4439"/>
<path d="M37.6092 46.4763C37.3467 46.289 37.0705 46.1218 36.7829 45.9761L36.5814 45.8662C36.3379 45.8419 36.0928 45.8377 35.8486 45.8534C36.0904 45.8997 36.3354 45.9267 36.5814 45.934H36.5668L36.7683 46.0458C37.0382 46.2086 37.3192 46.3525 37.6092 46.4763Z" fill="#6F4439"/>
<path d="M44.7913 40.0477C44.6985 39.9952 44.5896 39.9784 44.4853 40.0007C44.381 40.023 44.2885 40.0827 44.2252 40.1687L39.594 46.4413L32.2662 46.5402C31.9749 46.5586 31.6195 47.1503 31.8814 47.4361L40.1564 47.3225L44.9342 40.6853C44.9701 40.6351 44.9951 40.578 45.0074 40.5175C45.0196 40.4571 45.019 40.3947 45.0055 40.3345C44.992 40.2743 44.966 40.2177 44.9291 40.1682C44.8922 40.1188 44.8452 40.0778 44.7913 40.0477Z" fill="#E0E0E0"/>
<path d="M22.5916 32.7822C22.1352 32.8539 21.7084 33.0533 21.3605 33.3574C20.9121 33.813 20.5748 34.366 20.3749 34.9732C20.1294 35.706 20.2394 38.6023 20.2394 39.4414C20.2394 40.2804 20.4537 43.4314 20.5581 43.9554C20.6625 44.4793 20.4903 45.2597 20.2485 45.7653C19.8125 46.6813 20.4922 47.1411 20.4922 47.1411L29.4835 47.0752L29.4487 46.7381C29.3864 46.1537 29.6044 45.5602 29.3809 45.0161C29.0507 44.2189 28.909 43.3562 28.9669 42.4953C29.0823 40.9967 29.5293 39.9745 29.2545 39.1061C28.835 37.7798 27.45 34.7644 25.7737 33.4765C25.7737 33.4765 24.4547 33.1944 24.1561 33.0899C23.4801 32.8518 23.121 32.7235 22.5916 32.7822Z" fill="#EF9536"/>
<path d="M33.169 44.3329L25.4747 42.7262L25.2915 36.0597C25.2915 36.0597 25.0222 33.3429 23.6611 33.0901L20.3818 37.1717C20.565 39.229 20.3983 43.122 21.3436 44.6223C22.2889 46.1227 23.2086 47.3263 25.537 47.2201C27.8654 47.1138 32.9949 47.0643 32.9949 47.0643L33.169 44.3329Z" fill="#EF9536"/>
<path d="M25.4967 42.7554C25.5151 42.77 25.3319 43.01 25.1761 43.3453C25.0204 43.6805 24.9526 43.9755 24.9307 43.97C24.9391 43.7394 25.0019 43.514 25.1139 43.3123C25.1976 43.1 25.3285 42.9096 25.4967 42.7554Z" fill="#263238"/>
<g opacity="0.3">
<path d="M25.231 35.7738C25.9986 38.1334 25.8318 41.768 27.2956 43.1017L25.4746 42.7261C25.5092 42.2995 25.5141 41.871 25.4893 41.4438C25.3427 39.5788 25.3244 37.6827 25.2236 35.7646" fill="black"/>
</g>
<path d="M25.059 34.9329C25.1152 35.1081 25.1598 35.2868 25.1927 35.4678C25.2365 35.687 25.2689 35.9084 25.2898 36.131C25.3155 36.3929 25.3192 36.6952 25.332 37.0341C25.3759 38.3953 25.4382 40.35 25.5152 42.7297L25.4895 42.7004L33.1838 44.2979H33.2168V44.3309C33.1618 45.2047 33.1014 46.1244 33.0336 47.0605V47.0971H32.9841L32.0498 47.1081C30.7143 47.1246 29.4118 47.1448 28.1532 47.1722C27.523 47.1845 26.9056 47.2009 26.3011 47.2217C25.6984 47.2364 25.0993 47.2932 24.5204 47.2034C24.2348 47.1626 23.9546 47.0901 23.685 46.9872C23.4257 46.8822 23.1798 46.7469 22.9522 46.5842C22.5271 46.2615 22.156 45.8732 21.8531 45.4337C21.7047 45.223 21.5618 45.0124 21.4299 44.8035L21.3291 44.646C21.298 44.5928 21.2705 44.5379 21.2412 44.4829L21.1551 44.3199L21.0891 44.1513C20.9272 43.7204 20.8123 43.2733 20.7466 42.8177C20.6259 42.0386 20.5507 41.2532 20.5212 40.4654C20.4864 39.7711 20.4699 39.1739 20.4534 38.6847C20.437 38.1956 20.4205 37.8164 20.4076 37.5581C20.4076 37.4317 20.393 37.3346 20.3893 37.2668C20.3857 37.199 20.3893 37.166 20.3893 37.166C20.3893 37.166 20.3893 37.199 20.4003 37.265C20.4113 37.3309 20.415 37.4317 20.426 37.5581C20.4443 37.8145 20.4681 38.1938 20.4883 38.6829C20.5084 39.172 20.5286 39.7693 20.5689 40.4636C20.6026 41.249 20.6808 42.0319 20.8033 42.8085C20.8711 43.2597 20.9866 43.7025 21.1478 44.1293L21.2137 44.2961L21.298 44.4536C21.3273 44.5067 21.3548 44.5617 21.3859 44.613L21.4848 44.7687C21.6186 44.9775 21.7596 45.1864 21.9099 45.3952C22.213 45.8298 22.5842 46.2127 23.009 46.5292C23.2367 46.6893 23.4827 46.8215 23.7418 46.9231C24.0063 47.0227 24.2809 47.0927 24.5607 47.1319C25.1305 47.2199 25.7222 47.1631 26.3286 47.1466C26.9349 47.1301 27.5523 47.11 28.1825 47.0953C29.4411 47.0678 30.7473 47.0458 32.081 47.0293H33.0153L32.9768 47.0642C33.0372 46.128 33.0977 45.2084 33.16 44.3345L33.1893 44.3748L25.473 42.7609H25.4474V42.7261C25.3814 40.3445 25.3283 38.3916 25.2917 37.0305C25.2807 36.6916 25.2807 36.3874 25.2587 36.1273C25.2367 35.8672 25.2056 35.6455 25.1744 35.4678C25.1433 35.2901 25.1103 35.1564 25.0883 35.0666C25.0883 35.0226 25.07 34.9897 25.0645 34.964C25.059 34.9384 25.059 34.9329 25.059 34.9329Z" fill="#263238"/>
<path d="M37.3905 60.7051L36.251 69.1083L39.2353 69.5975L41.3567 62.1413L37.3905 60.7051Z" fill="#AE7461"/>
<path d="M28.3457 47.7916C28.3457 47.7916 39.2514 47.0753 41.5157 47.4362C42.8842 47.6542 44.064 49.7921 43.3184 51.0782C42.9648 51.6864 42.4024 53.5806 42.4024 53.5806L36.5401 52.2433L28.3457 47.7916Z" fill="#455A64"/>
<path d="M36.547 53.5806L34.1855 57.1841L36.9646 58.9849L39.9801 54.3628L36.547 53.5806Z" fill="#AE7461"/>
<path d="M20.7104 47.132C20.7104 47.132 19.5581 52.212 21.4175 54.2089C22.7439 55.6323 25.9975 55.4821 28.7454 55.4821C31.5245 55.4821 37.9437 55.3301 37.9437 55.3301C37.9437 55.3301 37.6524 57.1162 37.4399 59.1497C37.2274 61.1832 37.1816 62.4692 37.1816 62.4692L41.2724 62.81C41.2724 62.81 43.5514 55.8741 43.9013 54.5002C44.2512 53.1262 44.1339 51.2814 42.9212 50.5962C41.8953 50.0173 33.7925 47.7695 29.9142 47.4361L29.4928 47.0697L20.7104 47.132Z" fill="#455A64"/>
<path d="M39.9341 53.6611C39.9341 53.6739 39.7765 53.6978 39.5329 53.7839C39.3916 53.8328 39.2549 53.8941 39.1243 53.9671C38.9659 54.0598 38.8168 54.1678 38.6792 54.2895C38.5447 54.4147 38.422 54.5521 38.3128 54.6998C38.2245 54.8222 38.1473 54.9522 38.082 55.0882C37.9702 55.3209 37.9317 55.4784 37.9171 55.4748C37.9163 55.4382 37.9212 55.4017 37.9317 55.3667C37.9555 55.2651 37.988 55.1658 38.0288 55.0699C38.0899 54.9279 38.1647 54.7923 38.2523 54.665C38.4678 54.3508 38.7548 54.0922 39.0895 53.9103C39.2248 53.8339 39.3679 53.7725 39.5164 53.7271C39.6155 53.6951 39.7173 53.6725 39.8205 53.6593C39.8582 53.653 39.8966 53.6537 39.9341 53.6611Z" fill="#263238"/>
<path d="M39.4492 49.4715C39.4919 49.3172 39.5654 49.1732 39.6654 49.0483C39.7442 48.9089 39.8516 48.7878 39.9805 48.6929C39.9124 48.8352 39.8282 48.9692 39.7295 49.0922C39.6514 49.2293 39.5573 49.3566 39.4492 49.4715Z" fill="#263238"/>
<path d="M44.0626 52.5695C44.0568 52.5574 44.0531 52.5443 44.0516 52.531C44.0516 52.4998 44.0351 52.4614 44.0223 52.4137C43.9985 52.3112 43.9619 52.1609 43.8996 51.9722C43.8273 51.742 43.7302 51.5202 43.6101 51.3109C43.4584 51.0306 43.2287 50.8002 42.9488 50.6477C42.184 50.3135 41.3968 50.0331 40.5929 49.8087C39.6879 49.5394 38.6894 49.2591 37.6379 48.9733C35.5311 48.4146 33.5984 48.0134 32.1896 47.7807C31.4861 47.6616 30.9072 47.581 30.517 47.5242L30.0627 47.4638L29.9436 47.4454C29.9299 47.4437 29.9164 47.4406 29.9033 47.4363H29.9455H30.0645L30.5207 47.4839C30.9182 47.5297 31.4916 47.603 32.1988 47.7147C34.0366 48.013 35.8581 48.4043 37.6562 48.8872C38.7114 49.1657 39.7099 49.4551 40.613 49.7299C41.4205 49.9631 42.2097 50.2551 42.9744 50.6038C43.2608 50.7639 43.4944 51.0038 43.6468 51.2944C43.7664 51.5075 43.8611 51.7337 43.9289 51.9686C43.9857 52.1609 44.0186 52.313 44.0388 52.4156C44.0388 52.465 44.0535 52.5035 44.0589 52.5347C44.0617 52.546 44.0629 52.5577 44.0626 52.5695Z" fill="#263238"/>
<path d="M39.4657 69.3794L39.5647 69.013C38.3407 68.9096 37.1834 68.4113 36.2671 67.5933L35.2559 69.7788L41.9975 72.7777C42.2576 72.1347 39.4657 69.3794 39.4657 69.3794Z" fill="#263238"/>
<path d="M35.2617 69.7807L35.509 69.2476L41.8934 72.3271C41.8934 72.3271 42.1353 72.5891 42.0034 72.7796L35.2617 69.7807Z" fill="#E0E0E0"/>
<path d="M39.3777 69.3374C39.3612 69.3685 39.1945 69.3099 38.9802 69.3374C38.7658 69.3648 38.6138 69.4656 38.5955 69.4381C38.5771 69.4106 38.7072 69.2549 38.9618 69.2165C39.2165 69.178 39.3979 69.3099 39.3777 69.3374Z" fill="#E0E0E0"/>
<path d="M36.755 69.1066C36.7314 69.152 36.6912 69.1867 36.6428 69.2034C36.5944 69.2201 36.5414 69.2176 36.4948 69.1963C36.4715 69.1865 36.4506 69.172 36.4332 69.1537C36.4158 69.1354 36.4024 69.1137 36.3938 69.0899C36.3852 69.0662 36.3816 69.0409 36.3832 69.0157C36.3848 68.9906 36.3916 68.966 36.4032 68.9435C36.4261 68.8974 36.4662 68.8621 36.5149 68.8453C36.5636 68.8285 36.6169 68.8316 36.6634 68.8538C36.6866 68.8636 36.7076 68.8781 36.725 68.8964C36.7424 68.9147 36.7558 68.9364 36.7644 68.9601C36.773 68.9839 36.7766 69.0091 36.775 69.0343C36.7733 69.0595 36.7665 69.0841 36.755 69.1066Z" fill="#E0E0E0"/>
<path d="M39.3376 69.2897C39.285 69.2906 39.2327 69.2813 39.1837 69.2622C39.0422 69.2299 38.9119 69.1604 38.8063 69.0607C38.7722 69.0255 38.7426 68.9861 38.7184 68.9435C38.6875 68.8974 38.6681 68.8447 38.6616 68.7896C38.6589 68.7541 38.6678 68.7186 38.687 68.6885C38.7061 68.6585 38.7345 68.6355 38.7679 68.6229C38.8005 68.6102 38.8355 68.6045 38.8705 68.6061C38.9055 68.6077 38.9398 68.6165 38.9712 68.632C39.0959 68.6919 39.2017 68.7849 39.277 68.9009C39.3523 69.017 39.3942 69.1515 39.3981 69.2897L39.2973 69.2751C39.3145 69.2227 39.3372 69.1724 39.3651 69.1248C39.4392 68.9968 39.5462 68.8908 39.6751 68.818C39.8039 68.7452 39.9499 68.7082 40.0979 68.7108C40.1369 68.709 40.1759 68.7165 40.2114 68.7328C40.231 68.7425 40.248 68.7567 40.261 68.7742C40.2741 68.7917 40.2828 68.8121 40.2866 68.8336C40.292 68.8675 40.2906 68.9021 40.2824 68.9355C40.2743 68.9688 40.2595 69.0002 40.2389 69.0277C40.1741 69.1198 40.0846 69.1916 39.9806 69.2348C39.8334 69.2927 39.6749 69.3165 39.5171 69.3044C39.4605 69.3079 39.4037 69.3029 39.3486 69.2897C39.4026 69.2733 39.4588 69.2652 39.5153 69.2659C39.6647 69.2628 39.8121 69.2311 39.9495 69.1725C40.0367 69.1311 40.1117 69.068 40.1675 68.9893C40.195 68.9512 40.2068 68.9039 40.2005 68.8574C40.2005 68.8207 40.1583 68.8079 40.096 68.8079C39.9665 68.8079 39.8392 68.8416 39.7268 68.9059C39.6143 68.9702 39.5206 69.0627 39.4548 69.1743C39.4315 69.2165 39.4119 69.2606 39.3962 69.3062C39.3921 69.317 39.3845 69.326 39.3746 69.3319C39.3647 69.3379 39.3531 69.3403 39.3417 69.3388C39.3303 69.3373 39.3197 69.332 39.3116 69.3238C39.3036 69.3155 39.2985 69.3048 39.2973 69.2934C39.2948 69.1742 39.2607 69.0579 39.1986 68.9562C39.1365 68.8545 39.0486 68.7711 38.9437 68.7145C38.8521 68.6668 38.7459 68.7145 38.7605 68.7878C38.7748 68.8737 38.8143 68.9534 38.8741 69.0168C38.9693 69.1126 39.0853 69.1853 39.213 69.2293C39.2565 69.245 39.2983 69.2653 39.3376 69.2897Z" fill="#E0E0E0"/>
<path d="M39.8947 69.8045C39.7457 69.8028 39.5969 69.8133 39.4495 69.8356C39.3081 69.8842 39.1714 69.9455 39.041 70.0188C39.138 69.8916 39.2754 69.8013 39.4305 69.7627C39.5857 69.724 39.7495 69.7394 39.8947 69.8063V69.8045Z" fill="#E0E0E0"/>
<path d="M40.2713 70.2332C40.2713 70.2551 40.0881 70.2496 39.8756 70.3138C39.663 70.3779 39.5092 70.4786 39.5 70.4603C39.5874 70.3463 39.7129 70.2676 39.8536 70.2386C39.9874 70.1858 40.136 70.1838 40.2713 70.2332Z" fill="#E0E0E0"/>
<path d="M37.4938 58.5782L37.6532 58.2356C36.4659 57.9266 35.4105 57.2415 34.6451 56.2827L33.2803 58.2667L39.4229 62.3575C39.7819 61.764 37.4938 58.5782 37.4938 58.5782Z" fill="#263238"/>
<path d="M33.2803 58.2668L33.6137 57.7814L39.3972 61.8941C39.3972 61.8941 39.5804 62.1909 39.4302 62.3576L33.2803 58.2668Z" fill="#E0E0E0"/>
<path d="M37.4122 58.5213C37.3902 58.5488 37.229 58.4627 37.0202 58.4591C36.8113 58.4554 36.6428 58.5232 36.6245 58.4939C36.6062 58.4646 36.7655 58.3253 37.022 58.3363C37.2785 58.3473 37.4379 58.4994 37.4122 58.5213Z" fill="white"/>
<path d="M34.865 57.8491C34.8343 57.8901 34.7889 57.9176 34.7383 57.9258C34.6878 57.934 34.636 57.9223 34.5939 57.8931C34.5727 57.8795 34.5546 57.8617 34.5406 57.8408C34.5267 57.8199 34.5172 57.7963 34.5127 57.7716C34.5082 57.7468 34.5089 57.7214 34.5147 57.6969C34.5204 57.6725 34.5312 57.6494 34.5463 57.6293C34.5767 57.588 34.622 57.5601 34.6726 57.5516C34.7231 57.543 34.7751 57.5545 34.8174 57.5835C34.8388 57.5971 34.8572 57.615 34.8713 57.636C34.8855 57.6571 34.8951 57.6809 34.8996 57.7058C34.904 57.7308 34.9033 57.7564 34.8973 57.7811C34.8914 57.8058 34.8804 57.8289 34.865 57.8491Z" fill="#E0E0E0"/>
<path d="M37.3832 58.47C37.3321 58.4613 37.2831 58.4432 37.2385 58.4169C37.1045 58.3608 36.9876 58.2705 36.8996 58.1549C36.8709 58.115 36.848 58.0712 36.8318 58.0249C36.809 57.9737 36.7989 57.9177 36.8025 57.8618C36.806 57.8265 36.8207 57.7933 36.8444 57.7669C36.8681 57.7406 36.8996 57.7225 36.9344 57.7153C36.9689 57.7089 37.0043 57.7096 37.0386 57.7171C37.0729 57.7247 37.1054 57.739 37.134 57.7592C37.2451 57.8403 37.3318 57.9503 37.3848 58.0773C37.4377 58.2042 37.4549 58.3432 37.4345 58.4792L37.3392 58.448C37.3644 58.3987 37.3944 58.3521 37.429 58.3088C37.5239 58.1956 37.6472 58.1096 37.7863 58.0597C37.9253 58.0098 38.0752 57.9978 38.2204 58.0249C38.2587 58.0303 38.2951 58.0447 38.3267 58.067C38.3442 58.0796 38.3586 58.0961 38.3688 58.1151C38.3789 58.1342 38.3846 58.1553 38.3853 58.1769C38.385 58.2113 38.3777 58.2453 38.3639 58.2768C38.35 58.3083 38.3299 58.3367 38.3047 58.3601C38.2252 58.4396 38.1248 58.4948 38.0152 58.5195C37.8608 58.5521 37.7011 58.549 37.5481 58.5103C37.4914 58.5039 37.436 58.4897 37.3832 58.4682C37.4396 58.4591 37.4971 58.4591 37.5536 58.4682C37.7005 58.4913 37.8506 58.4851 37.9951 58.4499C38.0897 58.4233 38.1752 58.3714 38.2424 58.2997C38.2756 58.2672 38.2953 58.2233 38.2973 58.1769C38.2973 58.1366 38.2644 58.1201 38.2039 58.1091C38.0757 58.088 37.9442 58.1006 37.8224 58.146C37.7006 58.1913 37.5928 58.2676 37.5096 58.3674C37.4792 58.4046 37.4522 58.4445 37.429 58.4865C37.4261 58.4925 37.422 58.4978 37.417 58.5022C37.412 58.5066 37.4061 58.5099 37.3998 58.5119C37.3934 58.514 37.3868 58.5147 37.3801 58.5141C37.3735 58.5136 37.3671 58.5116 37.3612 58.5085C37.3516 58.5042 37.3437 58.4968 37.3387 58.4875C37.3338 58.4783 37.332 58.4676 37.3337 58.4572C37.3509 58.3394 37.3368 58.2191 37.2927 58.1085C37.2487 57.9978 37.1763 57.9007 37.0828 57.827C37.0003 57.7647 36.8886 57.7885 36.8831 57.8673C36.8831 57.9545 36.9086 58.0398 36.9563 58.1128C37.0341 58.2238 37.1371 58.3148 37.2568 58.3784C37.3029 58.403 37.3454 58.4339 37.3832 58.47Z" fill="white"/>
<path d="M37.8414 59.0691C37.6951 59.0418 37.5468 59.0271 37.398 59.0251C37.2504 59.049 37.1051 59.0858 36.9639 59.135C37.0808 59.0259 37.2315 58.9599 37.391 58.9479C37.5506 58.9359 37.7094 58.9787 37.8414 59.0691Z" fill="white"/>
<path d="M38.1416 59.5546C38.1416 59.5766 37.9584 59.54 37.7386 59.5675C37.5188 59.5949 37.3557 59.67 37.3447 59.6499C37.456 59.5624 37.5892 59.5072 37.7298 59.4904C37.8704 59.4736 38.0129 59.4958 38.1416 59.5546Z" fill="white"/>
</svg>
