<svg width="98" height="74" viewBox="0 0 98 74" fill="none" xmlns="http://www.w3.org/2000/svg">
<path d="M7.80373 13.4378C2.31055 25.9176 4.82455 39.4268 12.4677 50.7174C20.1108 62.0081 32.8304 69.3229 46.2033 71.9782C55.7497 73.8792 66.0241 73.4909 74.7411 69.1732C83.4582 64.8555 90.3227 56.1636 90.8485 46.4443C91.0508 42.7737 90.266 38.8767 87.8147 36.1304C83.9032 31.752 77.2248 31.5983 71.3575 31.7803C65.4901 31.9624 58.8178 31.8228 54.886 27.4647C51.8644 24.1137 51.4194 19.2561 49.8297 15.0355C47.1236 7.86428 40.5949 2.26243 33.0853 0.676921C25.7516 -0.872184 17.7141 1.46158 12.3362 6.6711C12.1056 6.89356 11.865 7.10591 11.6223 7.31623C10.9872 7.87439 8.84937 11.0656 7.80373 13.4378Z" fill="#E7EDFF"/>
<path d="M97.1698 70.2634C97.1698 70.2936 75.4164 70.3196 48.587 70.3196C21.7577 70.3196 0 70.2872 0 70.2634C0 70.2396 21.749 70.2051 48.587 70.2051C75.425 70.2051 97.1698 70.2245 97.1698 70.2634Z" fill="#263238"/>
<path d="M14.7953 12.839C15.6979 11.9363 17.1614 11.9363 18.0641 12.839C18.9667 13.7416 18.9667 15.2051 18.0641 16.1078C17.1614 17.0104 15.6979 17.0104 14.7953 16.1078C13.8926 15.2051 13.8926 13.7416 14.7953 12.839Z" fill="#2059EE"/>
<path d="M35.7953 63.839C36.6979 62.9363 38.1614 62.9363 39.0641 63.839C39.9667 64.7416 39.9667 66.2051 39.0641 67.1078C38.1614 68.0104 36.6979 68.0104 35.7953 67.1078C34.8926 66.2051 34.8926 64.7416 35.7953 63.839Z" fill="#2059EE"/>
<path d="M71.7953 23.839C72.6979 22.9363 74.1614 22.9363 75.0641 23.839C75.9667 24.7416 75.9667 26.2051 75.0641 27.1078C74.1614 28.0104 72.6979 28.0104 71.7953 27.1078C70.8926 26.2051 70.8926 24.7416 71.7953 23.839Z" fill="#2059EE"/>
<path d="M72.1517 29.2118C72.4363 29.4827 65.5065 37.523 56.6757 47.1832C47.8449 56.8435 40.4532 64.4638 40.1686 64.1983C39.884 63.9329 46.8139 55.8899 55.6473 46.2269C64.4808 36.564 71.8671 28.9463 72.1517 29.2118Z" fill="#E0E0E0"/>
<path d="M70.1598 24.1679C70.0831 24.5183 58.8291 22.3535 45.0241 19.3362C31.219 16.3188 20.0863 13.5898 20.1605 13.2419C20.2348 12.8939 31.4887 15.0537 45.2987 18.0736C59.1088 21.0934 70.2365 23.8199 70.1598 24.1679Z" fill="#E0E0E0"/>
<path d="M35.3909 61.8171C35.2532 61.8822 33.9768 59.541 32.0787 55.6747C30.1806 51.8084 27.6701 46.4114 25.0804 40.3776C22.4907 34.3438 20.2801 28.8106 18.7724 24.7747C17.2648 20.7388 16.4337 18.2037 16.5732 18.1605C16.7128 18.1173 17.8091 20.5341 19.4995 24.4903C21.1898 28.4466 23.5236 33.9087 26.1023 39.9434L32.799 55.3527C34.5113 59.2874 35.529 61.7476 35.3909 61.8171Z" fill="#E0E0E0"/>
<path d="M64.4222 35.3184C64.9641 37.2879 65.7819 38.8651 66.5802 39.6576C67.3785 40.4501 68.2331 41.3766 68.204 42.4992C68.1923 42.9421 68.0447 43.4102 68.2389 43.8065C68.4895 44.3231 69.1557 44.4338 69.6569 44.7155C70.395 45.1311 70.8067 46.011 70.7776 46.8521C70.72 47.7097 70.3438 48.5147 69.7229 49.1091C69.1033 49.7326 68.1185 50.1716 67.3474 49.7442C66.8812 49.4878 66.6151 48.9848 66.3762 48.507C65.1603 46.0337 64.0596 43.5086 63.0742 40.9318" fill="#263238"/>
<path d="M59.4449 26.8827C58.7553 26.117 57.8489 25.5796 56.8464 25.3419C55.8438 25.1042 54.7926 25.1775 53.8327 25.5521C52.8728 25.9267 52.0498 26.5847 51.4732 27.4387C50.8967 28.2927 50.5939 29.302 50.6052 30.3323C50.6188 31.6492 51.1355 33.0302 50.6052 34.2422C50.2362 35.0988 49.3835 35.7456 49.2669 36.6702C49.131 37.7443 50.0439 38.7174 50.0011 39.7993C49.9701 40.5044 49.5272 41.1279 49.0183 41.6174C48.5094 42.1068 47.917 42.5109 47.4508 43.0411C46.1533 44.5134 46.0698 46.8423 47.0507 48.5419C48.0316 50.2414 49.9234 51.3097 51.8736 51.5409C53.8237 51.772 55.8107 51.234 57.5355 50.2978C58.6602 49.6879 59.7168 48.8837 60.385 47.7941C61.0531 46.7044 61.2823 45.2904 60.754 44.125" fill="#263238"/>
<path d="M53.2617 26.0899C53.553 26.0836 53.8444 26.0972 54.1338 26.1307C54.8275 26.2578 55.5082 26.4476 56.1675 26.6978C56.9444 26.9639 57.7097 27.1096 58.2594 27.0688C58.4763 27.0579 58.6909 27.0201 58.8984 26.9562C58.9756 26.9373 59.0495 26.9072 59.1179 26.8668C58.8363 26.9398 58.548 26.9841 58.2575 26.9989C57.554 26.9879 56.8576 26.8565 56.1986 26.6104C55.4216 26.3443 54.6913 26.1171 54.1436 26.0685C53.9289 26.043 53.7122 26.0391 53.4967 26.0568C53.4173 26.0579 53.3384 26.069 53.2617 26.0899Z" fill="#2059EE"/>
<path d="M70.3507 70.3123L67.0643 61.057L68.4356 52.262C68.8376 49.8884 69.0552 47.7946 68.4064 46.6156C66.6758 43.4553 64.6188 43.1912 61.8024 42.49C61.2197 42.3443 56.8203 42.2394 56.3366 42.3637C52.5219 42.828 50.0959 44.8771 48.7925 48.1908L47.394 54.0645L45.4517 60.2121C45.2882 60.5698 45.0461 60.8861 44.7435 61.1373C44.4408 61.3885 44.0853 61.5682 43.7036 61.663L36.0312 64.357L36.1089 65.8662L36.0662 67.8999L46.3024 65.876C48.3555 65.4681 50.4396 64.6911 51.0088 62.7002L52.0809 59.4215C52.6345 60.8006 53.2328 62.0631 53.2328 62.0631L52.5646 70.3123H70.3507Z" fill="#2059EE"/>
<path d="M67.5036 53.9435L64.6678 63.7718C64.4534 64.5222 64.0564 65.2078 63.5124 65.7673C62.9684 66.3269 62.2943 66.7431 61.5503 66.9786L49.3853 70.3486L47.7266 66.1531L58.7125 61.946L61.3231 52.106C61.3231 52.106 61.8941 46.615 66.8588 46.848" fill="#2059EE"/>
<path d="M66.8506 46.8408H66.703C66.6039 46.8408 66.4582 46.8408 66.2679 46.8506C65.7099 46.8729 65.16 46.9912 64.6421 47.2002C64.2671 47.3509 63.9148 47.5529 63.5952 47.8004C63.2164 48.0969 62.8822 48.4462 62.6027 48.8376C61.9321 49.8105 61.5026 50.929 61.3498 52.1007C60.6273 54.8375 59.7435 58.19 58.751 61.9446V61.966H58.7296L47.7378 66.2023L47.7669 66.1382C47.8602 66.3732 47.9612 66.6276 48.0602 66.884C48.5283 68.065 48.9887 69.2304 49.4199 70.3336L49.3597 70.3026L59.8115 67.4123L60.9905 67.088C61.1847 67.0336 61.379 66.9831 61.5732 66.9268C61.7574 66.8648 61.9382 66.7935 62.1151 66.7131C63.1277 66.2421 63.9376 65.4233 64.3974 64.4056C64.5332 64.0908 64.6448 63.7661 64.7315 63.4344C64.9192 62.7869 65.0992 62.166 65.2715 61.5717C65.9629 59.202 66.5165 57.2985 66.8991 55.9835C67.0934 55.3309 67.241 54.8181 67.3439 54.4782L67.4605 54.0897C67.4877 54.0023 67.5052 53.9576 67.5052 53.9576L67.4702 54.0917C67.445 54.183 67.41 54.3131 67.3614 54.4801C67.2643 54.8278 67.1206 55.3367 66.9361 55.9932C66.5592 57.3082 66.0154 59.2156 65.3375 61.5872L64.8014 63.4538C64.7163 63.7898 64.6046 64.1184 64.4673 64.4367C64.0005 65.4713 63.1784 66.3044 62.1501 66.785C61.9702 66.8693 61.7853 66.9426 61.5965 67.0044C61.4023 67.0627 61.208 67.1132 61.0138 67.1676L59.8348 67.4959L49.3849 70.3958L49.3403 70.4075L49.3247 70.3667C48.8877 69.2634 48.4273 68.098 47.9651 66.917L47.6698 66.1712L47.6523 66.1226L47.699 66.1051L58.6869 61.9019L58.6577 61.933C59.658 58.1823 60.5515 54.8317 61.2799 52.0949C61.4383 50.9133 61.8765 49.7866 62.558 48.8085C62.8424 48.4137 63.1827 48.0624 63.568 47.7654C63.8921 47.5178 64.249 47.3165 64.6285 47.1672C65.1509 46.9598 65.706 46.8467 66.2679 46.8331C66.4621 46.8175 66.6059 46.8331 66.703 46.8331L66.8506 46.8408Z" fill="#263238"/>
<path d="M59.2918 59.7299C59.2918 59.7299 59.2394 59.7415 59.1461 59.7435C59.0155 59.7443 58.8852 59.7307 58.7577 59.7027C58.3245 59.6061 57.9233 59.4001 57.5922 59.1045C57.258 58.8135 56.9966 58.4483 56.8289 58.0381C56.7991 57.9681 56.7745 57.896 56.7551 57.8225C56.7374 57.768 56.7244 57.7121 56.7162 57.6555C56.7007 57.5622 56.6949 57.5117 56.7026 57.5098C56.7104 57.5078 56.757 57.704 56.8969 58.0109C57.0777 58.399 57.3377 58.7451 57.6602 59.0268C57.9803 59.3118 58.3618 59.5192 58.7751 59.6328C59.084 59.7144 59.2918 59.7105 59.2918 59.7299Z" fill="#263238"/>
<path d="M51.9757 52.3467C51.9523 52.4462 51.9191 52.5431 51.8767 52.6361C51.8087 52.8206 51.7018 53.0867 51.5834 53.413C51.2459 54.2618 51.0491 55.16 51.0007 56.0721C50.989 56.5728 51.0619 57.0719 51.2163 57.5483C51.345 57.9373 51.517 58.3106 51.729 58.6613C51.8722 58.8982 52.0292 59.1265 52.1991 59.345C52.265 59.4234 52.326 59.5057 52.3817 59.5917C52.3817 59.5917 52.3584 59.5742 52.3215 59.5373C52.2846 59.5004 52.2321 59.446 52.168 59.3702C51.9851 59.1589 51.8183 58.9343 51.6688 58.6982C51.444 58.3477 51.262 57.9714 51.1269 57.5774C50.9645 57.092 50.8876 56.582 50.8997 56.0702C50.9487 55.1466 51.159 54.2388 51.5212 53.3878C51.6513 53.0595 51.7659 52.8051 51.8456 52.6108C51.8821 52.5195 51.9256 52.4312 51.9757 52.3467Z" fill="#263238"/>
<path d="M59.7905 63.2359C59.6684 62.9673 59.5145 62.7143 59.3321 62.4823C59.1229 62.2711 58.8895 62.0852 58.6367 61.9287C58.9326 62.0138 59.1979 62.182 59.4011 62.4133C59.6042 62.6447 59.7367 62.9295 59.7827 63.234L59.7905 63.2359Z" fill="#263238"/>
<path d="M47.9551 66.7305C47.9551 66.7305 44.4589 67.0762 44.5405 69.341L48.8836 69.0788L47.9551 66.7305Z" fill="#FFBE9D"/>
<path d="M63.7303 55.5931C63.7128 55.5931 63.6992 54.9346 63.6992 54.1247C63.6992 53.3147 63.7128 52.6562 63.7303 52.6562C63.7478 52.6562 63.7594 53.3147 63.7594 54.1247C63.7594 54.9346 63.7458 55.5931 63.7303 55.5931Z" fill="#FAFAFA"/>
<path d="M64.6995 53.9442C64.0151 53.983 63.329 53.983 62.6445 53.9442C63.329 53.9053 64.0151 53.9053 64.6995 53.9442Z" fill="#FAFAFA"/>
<path d="M64.5036 54.9807C64.2399 54.7137 63.9897 54.4337 63.7539 54.1416C63.5016 53.8634 63.2655 53.571 63.0469 53.2656C63.0585 53.2656 63.3946 53.6308 63.7986 54.1047C64.0494 54.3837 64.2848 54.6761 64.5036 54.9807Z" fill="#FAFAFA"/>
<path d="M62.9688 54.8141C63.0189 54.7285 63.0796 54.6495 63.1494 54.579C63.2679 54.4392 63.4388 54.2547 63.6311 54.0546L64.1264 53.5438C64.1897 53.4681 64.2599 53.3985 64.3362 53.3359C64.2861 53.4215 64.2254 53.5005 64.1555 53.571C64.037 53.7108 63.8661 53.8953 63.6738 54.0954L63.1785 54.6062C63.1153 54.6819 63.045 54.7515 62.9688 54.8141Z" fill="#FAFAFA"/>
<path d="M66.7635 50.9642C66.748 50.9642 66.7344 50.3057 66.7344 49.4958C66.7344 48.6858 66.748 48.0273 66.7635 48.0273C66.779 48.0273 66.7926 48.6858 66.7926 49.4958C66.7926 50.3057 66.781 50.9642 66.7635 50.9642Z" fill="#FAFAFA"/>
<path d="M67.7328 49.3153C67.049 49.3541 66.3635 49.3541 65.6797 49.3153C66.3635 49.2764 67.049 49.2764 67.7328 49.3153Z" fill="#FAFAFA"/>
<path d="M67.5368 50.3518C67.2712 50.0867 67.0202 49.8072 66.7851 49.5147C66.5345 49.2344 66.2985 48.9414 66.0781 48.6367C66.3435 48.9028 66.5944 49.1829 66.8298 49.4758C67.2319 49.9498 67.5485 50.3421 67.5368 50.3518Z" fill="#FAFAFA"/>
<path d="M66.0039 50.1852C66.0537 50.0998 66.1137 50.0209 66.1826 49.9501C66.3011 49.8103 66.472 49.6258 66.6643 49.4257L67.1596 48.9149C67.2235 48.8397 67.2937 48.7702 67.3694 48.707C67.3196 48.7924 67.2596 48.8713 67.1907 48.9421C67.0722 49.0819 66.9013 49.2664 66.707 49.4665L66.2137 49.9773C66.1498 50.0525 66.0796 50.122 66.0039 50.1852Z" fill="#FAFAFA"/>
<path d="M55.9608 67.5404C55.9433 67.5404 55.9297 66.8838 55.9297 66.0719C55.9297 65.26 55.9433 64.6035 55.9608 64.6035C55.9782 64.6035 55.9899 65.262 55.9899 66.0719C55.9899 66.8819 55.9763 67.5404 55.9608 67.5404Z" fill="#FAFAFA"/>
<path d="M56.93 65.8914C56.2456 65.9303 55.5595 65.9303 54.875 65.8914C55.5595 65.8526 56.2456 65.8526 56.93 65.8914Z" fill="#FAFAFA"/>
<path d="M56.7341 66.9282C56.4697 66.6619 56.2188 66.3825 55.9824 66.091C55.7313 65.8117 55.4959 65.5186 55.2773 65.2131C55.289 65.2034 55.625 65.5782 56.029 66.0522C56.2793 66.3316 56.5147 66.624 56.7341 66.9282Z" fill="#FAFAFA"/>
<path d="M55.1992 66.7613C55.2496 66.6764 55.3095 66.5975 55.3779 66.5263C55.4964 66.3865 55.6693 66.2019 55.8616 66.0019L56.3549 65.491C56.4198 65.4162 56.4906 65.3466 56.5666 65.2832C56.5165 65.3688 56.4558 65.4478 56.386 65.5182C56.2675 65.6581 56.0966 65.8426 55.9043 66.0427L55.409 66.5535C55.3451 66.6286 55.2749 66.6982 55.1992 66.7613Z" fill="#FAFAFA"/>
<path d="M62.7479 63.7328C62.7324 63.7328 62.7188 63.0762 62.7188 62.2663C62.7188 61.4563 62.7324 60.7979 62.7479 60.7979C62.7634 60.7979 62.779 61.4544 62.779 62.2663C62.779 63.0782 62.7654 63.7328 62.7479 63.7328Z" fill="#FAFAFA"/>
<path d="M63.7191 62.0858C63.0346 62.1246 62.3485 62.1246 61.6641 62.0858C62.3484 62.0443 63.0347 62.0443 63.7191 62.0858Z" fill="#FAFAFA"/>
<path d="M63.5254 63.1233C63.2607 62.8566 63.0098 62.5766 62.7737 62.2842C62.3717 61.8103 62.0551 61.4179 62.0667 61.4082C62.5833 61.9534 63.0702 62.5259 63.5254 63.1233Z" fill="#FAFAFA"/>
<path d="M61.9883 62.9557C62.0382 62.8699 62.0982 62.7903 62.167 62.7187C62.2855 62.5808 62.4583 62.3963 62.6506 62.1962L63.144 61.6834C63.2079 61.6082 63.2787 61.5393 63.3557 61.4775C63.3036 61.5618 63.2431 61.6405 63.1751 61.7126C63.0566 61.8505 62.8857 62.035 62.6934 62.237C62.5011 62.439 62.3398 62.6022 62.1981 62.7478C62.1329 62.8217 62.0628 62.8912 61.9883 62.9557Z" fill="#FAFAFA"/>
<path d="M65.0877 69.224C65.0702 69.224 65.0586 68.5674 65.0586 67.7575C65.0586 66.9475 65.0702 66.2891 65.0877 66.2891C65.1052 66.2891 65.1169 66.9456 65.1169 67.7575C65.1169 68.5694 65.1033 69.224 65.0877 69.224Z" fill="#FAFAFA"/>
<path d="M66.057 67.577C65.3732 67.6158 64.6877 67.6158 64.0039 67.577C64.6876 67.5355 65.3732 67.5355 66.057 67.577Z" fill="#FAFAFA"/>
<path d="M65.863 68.6145C65.5993 68.3475 65.349 68.0675 65.1133 67.7754C64.8621 67.4963 64.626 67.2039 64.4062 66.8994C64.6712 67.1652 64.9222 67.4446 65.1579 67.7366C65.4091 68.0159 65.6445 68.309 65.863 68.6145Z" fill="#FAFAFA"/>
<path d="M64.3281 68.4469C64.3784 68.3608 64.4391 68.2812 64.5088 68.2099C64.6273 68.072 64.7982 67.8875 64.9905 67.6874L65.4858 67.1746C65.5499 67.1004 65.6201 67.0315 65.6955 66.9688C65.6446 67.0533 65.5847 67.1321 65.5169 67.2038C65.3964 67.3417 65.2255 67.5262 65.0332 67.7282L64.5398 68.239C64.4743 68.3133 64.4036 68.3828 64.3281 68.4469Z" fill="#FAFAFA"/>
<path d="M53.9159 60.264C53.9003 60.264 53.8867 59.6075 53.8867 58.7975C53.8867 57.9876 53.9003 57.3291 53.9159 57.3291C53.9314 57.3291 53.945 57.9856 53.945 58.7975C53.945 59.6094 53.9314 60.264 53.9159 60.264Z" fill="#FAFAFA"/>
<path d="M54.8851 58.6268C54.2013 58.6656 53.5158 58.6656 52.832 58.6268C53.5158 58.5853 54.2014 58.5853 54.8851 58.6268Z" fill="#FAFAFA"/>
<path d="M54.6934 59.6536C54.428 59.3875 54.1771 59.1074 53.9417 58.8145C53.5396 58.3405 53.223 57.9482 53.2347 57.9385C53.5003 58.2036 53.7513 58.4831 53.9864 58.7756C54.237 59.0559 54.473 59.3489 54.6934 59.6536Z" fill="#FAFAFA"/>
<path d="M53.1562 59.4869C53.2054 59.4006 53.2654 59.3209 53.3349 59.25C53.4534 59.112 53.6244 58.9275 53.8166 58.7275L54.312 58.2147C54.3761 58.1404 54.4463 58.0715 54.5217 58.0088C54.4714 58.0937 54.4114 58.1726 54.343 58.2438C54.2245 58.3817 54.0517 58.5662 53.8594 58.7683L53.366 59.2791C53.3008 59.353 53.2307 59.4224 53.1562 59.4869Z" fill="#FAFAFA"/>
<path d="M58.2479 55.4505C58.2323 55.4505 58.2188 54.794 58.2188 53.984C58.2188 53.1741 58.2323 52.5156 58.2479 52.5156C58.2634 52.5156 58.279 53.1721 58.279 53.984C58.279 54.796 58.2673 55.4505 58.2479 55.4505Z" fill="#FAFAFA"/>
<path d="M59.2191 53.8035C58.5346 53.8424 57.8485 53.8424 57.1641 53.8035C57.8485 53.7647 58.5346 53.7647 59.2191 53.8035Z" fill="#FAFAFA"/>
<path d="M59.0271 54.8411C59.0154 54.8508 58.6794 54.4759 58.2754 54.002C58.0251 53.7226 57.7898 53.4302 57.5703 53.126C57.8347 53.3923 58.0856 53.6717 58.322 53.9631C58.5731 54.2425 58.8085 54.5356 59.0271 54.8411Z" fill="#FAFAFA"/>
<path d="M57.4922 54.6734C57.542 54.5881 57.602 54.5092 57.6709 54.4384C57.7894 54.2986 57.9622 54.114 58.1545 53.914C58.3468 53.7139 58.508 53.5488 58.6479 53.4012C58.7118 53.326 58.7827 53.2571 58.8596 53.1953C58.8089 53.2805 58.7483 53.3594 58.679 53.4303C58.5605 53.5682 58.3896 53.7547 58.1973 53.9548L57.702 54.4656C57.6374 54.5401 57.5673 54.6096 57.4922 54.6734Z" fill="#FAFAFA"/>
<path d="M46.8182 63.931C46.8027 63.931 46.7891 63.2725 46.7891 62.4626C46.7891 61.6526 46.8027 60.9941 46.8182 60.9941C46.8337 60.9941 46.8473 61.6526 46.8473 62.4626C46.8473 63.2725 46.8357 63.931 46.8182 63.931Z" fill="#FAFAFA"/>
<path d="M47.7874 62.2821C47.1036 62.3209 46.4182 62.3209 45.7344 62.2821C46.4182 62.2432 47.1036 62.2432 47.7874 62.2821Z" fill="#FAFAFA"/>
<path d="M47.5957 63.3196C47.331 63.0529 47.0801 62.7729 46.844 62.4805C46.442 62.0066 46.1254 61.6142 46.137 61.6045C46.4024 61.8706 46.6533 62.1507 46.8887 62.4436C47.1396 62.723 47.3756 63.0154 47.5957 63.3196Z" fill="#FAFAFA"/>
<path d="M46.0586 63.152C46.1084 63.0666 46.1684 62.9877 46.2373 62.9169C46.3558 62.7771 46.5267 62.5926 46.719 62.3925L47.2143 61.8817C47.2782 61.8065 47.3484 61.737 47.4241 61.6738C47.3737 61.7588 47.3138 61.8376 47.2454 61.9089C47.1269 62.0487 46.956 62.2332 46.7617 62.4333L46.2684 62.9441C46.2038 63.0186 46.1337 63.0881 46.0586 63.152Z" fill="#FAFAFA"/>
<path d="M49.6502 55.8509C49.6347 55.8509 49.6211 55.1944 49.6211 54.3825C49.6211 53.5706 49.6347 52.916 49.6502 52.916C49.6658 52.916 49.6794 53.5725 49.6794 54.3825C49.6794 55.1925 49.6658 55.8509 49.6502 55.8509Z" fill="#FAFAFA"/>
<path d="M50.6195 54.202C49.9357 54.2408 49.2502 54.2408 48.5664 54.202C49.2502 54.1631 49.9357 54.1631 50.6195 54.202Z" fill="#FAFAFA"/>
<path d="M50.4275 55.2395C50.1618 54.9744 49.9109 54.6949 49.6758 54.4024C49.4244 54.1227 49.1884 53.8296 48.9688 53.5244C49.2335 53.7911 49.4844 54.0712 49.7204 54.3635C50.1225 54.8374 50.4391 55.2298 50.4275 55.2395Z" fill="#FAFAFA"/>
<path d="M48.8867 55.0719C48.9383 54.9872 48.9988 54.9084 49.0674 54.8369C49.1858 54.6989 49.3568 54.5125 49.5491 54.3124L50.0444 53.8016C50.1089 53.7271 50.179 53.6576 50.2541 53.5938C50.2044 53.6791 50.1444 53.758 50.0754 53.8288C49.957 53.9686 49.7841 54.1531 49.5918 54.3532C49.3995 54.5533 49.2383 54.7184 49.0984 54.866C49.0346 54.9412 48.9637 55.0101 48.8867 55.0719Z" fill="#FAFAFA"/>
<path d="M53.2557 50.3216C53.2402 50.3216 53.2266 49.6651 53.2266 48.8551C53.2266 48.0452 53.2402 47.3867 53.2557 47.3867C53.2712 47.3867 53.2848 48.0432 53.2848 48.8551C53.2848 49.667 53.2712 50.3216 53.2557 50.3216Z" fill="#FAFAFA"/>
<path d="M54.2249 48.6737C53.5411 48.7125 52.8557 48.7125 52.1719 48.6737C52.8556 48.6322 53.5412 48.6322 54.2249 48.6737Z" fill="#FAFAFA"/>
<path d="M54.0329 49.7112C53.7676 49.4451 53.5166 49.165 53.2812 48.8721C53.0307 48.5924 52.7947 48.3 52.5742 47.9961C52.8393 48.2618 53.0902 48.5412 53.3259 48.8332C53.5766 49.1135 53.8126 49.4066 54.0329 49.7112Z" fill="#FAFAFA"/>
<path d="M52.4961 49.5445C52.5473 49.459 52.6078 49.3796 52.6767 49.3076C52.7952 49.1697 52.9661 48.9851 53.1584 48.7851L53.6537 48.2723C53.7179 48.198 53.7881 48.1292 53.8635 48.0664C53.8132 48.1513 53.7532 48.2302 53.6848 48.3014C53.5663 48.4393 53.3935 48.6239 53.2012 48.8259L52.7078 49.3367C52.6429 49.4115 52.5721 49.481 52.4961 49.5445Z" fill="#FAFAFA"/>
<path d="M55.5951 70.2809L55.5699 69.7487L47.6936 68.9951L44.0032 59.6271C43.9443 59.4762 43.8416 59.3464 43.7083 59.2543C43.5751 59.1623 43.4173 59.1121 43.2554 59.1104L29.8259 58.9395C29.6883 58.9378 29.5526 58.9709 29.4312 59.0358C29.3099 59.1006 29.2069 59.1951 29.1319 59.3104C29.0569 59.4258 29.0123 59.5582 29.0022 59.6954C28.9921 59.8326 29.0169 59.9702 29.0742 60.0952L33.7767 70.314C41.0857 70.2965 48.4764 70.4072 55.5951 70.2809Z" fill="#263238"/>
<path d="M37.636 64.813C37.7133 64.9463 37.8284 65.0537 37.9669 65.1214C38.1053 65.1891 38.2607 65.2141 38.4134 65.1932C38.5661 65.1723 38.7091 65.1066 38.8243 65.0042C38.9395 64.9018 39.0216 64.7675 39.0603 64.6184C39.0989 64.4692 39.0924 64.3119 39.0414 64.1665C38.9904 64.021 38.8974 63.8941 38.7741 63.8017C38.6508 63.7093 38.5027 63.6556 38.3489 63.6475C38.195 63.6395 38.0422 63.6774 37.9099 63.7564C37.7345 63.8611 37.6074 64.0307 37.5561 64.2285C37.5048 64.4263 37.5335 64.6363 37.636 64.813Z" fill="white"/>
<path d="M61.9473 28.5706V29.5729L62.159 44.5717C62.1843 46.3199 60.7061 47.7203 58.8415 47.7319C56.9574 47.7455 55.3899 46.3296 55.3355 44.5717C55.2792 42.7265 55.186 40.7841 55.186 40.7841C55.186 40.7841 52.7969 40.4539 52.218 37.3656C51.9306 35.8292 51.9383 33.2866 52.0122 31.2258C52.0273 30.7838 52.1318 30.3494 52.3194 29.9489C52.5069 29.5483 52.7736 29.1899 53.1034 28.8951C53.4331 28.6004 53.8191 28.3755 54.2381 28.2339C54.6571 28.0924 55.1005 28.0371 55.5414 28.0714L61.9473 28.5706Z" fill="#FFBE9D"/>
<path d="M53.0703 33.0304C53.0703 33.1334 53.1112 33.2322 53.1841 33.305C53.2569 33.3779 53.3558 33.4188 53.4588 33.4188C53.5609 33.422 53.6601 33.3848 53.7349 33.3154C53.8098 33.246 53.8544 33.1499 53.8589 33.0478C53.8589 32.9448 53.818 32.846 53.7451 32.7731C53.6723 32.7003 53.5735 32.6594 53.4704 32.6594C53.3684 32.6562 53.2692 32.6934 53.1943 32.7628C53.1194 32.8322 53.0749 32.9283 53.0703 33.0304Z" fill="#263238"/>
<path d="M52.6141 32.5276C52.6646 32.5781 52.9598 32.3469 53.391 32.3333C53.8222 32.3197 54.1388 32.5275 54.1835 32.4751C54.2282 32.4227 54.1524 32.3586 54.0126 32.2634C53.824 32.139 53.6013 32.0765 53.3755 32.0847C53.1532 32.0912 52.9385 32.1673 52.7617 32.3022C52.6141 32.4052 52.5791 32.5042 52.6141 32.5276Z" fill="#263238"/>
<path d="M57.2617 32.9874C57.2617 33.0904 57.3026 33.1892 57.3755 33.2621C57.4484 33.3349 57.5472 33.3759 57.6502 33.3759C57.7523 33.379 57.8515 33.3419 57.9264 33.2724C58.0012 33.203 58.0458 33.1069 58.0503 33.0049C58.0503 32.9018 58.0094 32.803 57.9365 32.7302C57.8637 32.6573 57.7649 32.6164 57.6618 32.6164C57.5598 32.6132 57.4606 32.6504 57.3857 32.7198C57.3108 32.7892 57.2663 32.8854 57.2617 32.9874Z" fill="#263238"/>
<path d="M56.8155 32.4905C56.866 32.541 57.1612 32.3099 57.5925 32.2963C58.0237 32.2827 58.3403 32.4905 58.3849 32.4381C58.4063 32.4148 58.3539 32.3215 58.214 32.2263C58.0258 32.1029 57.8038 32.0411 57.5789 32.0496C57.3555 32.0539 57.1396 32.1302 56.9631 32.2671C56.833 32.372 56.7903 32.4672 56.8155 32.4905Z" fill="#263238"/>
<path d="M55.3486 35.707C55.1209 35.6424 54.886 35.6065 54.6494 35.6002C54.5406 35.6002 54.4357 35.573 54.4163 35.4991C54.4028 35.3863 54.4252 35.2722 54.4804 35.1728L54.7795 34.3318C55.1971 33.1334 55.4943 32.1505 55.4457 32.133C55.3972 32.1156 55.0203 33.0751 54.6047 34.2696C54.5056 34.5649 54.4104 34.8523 54.3172 35.1146C54.2527 35.2487 54.2369 35.4012 54.2725 35.5458C54.2898 35.5838 54.3153 35.6175 54.3472 35.6444C54.3791 35.6713 54.4167 35.6907 54.4571 35.7012C54.5205 35.7171 54.586 35.7236 54.6513 35.7206C54.8834 35.7444 55.1176 35.7399 55.3486 35.707Z" fill="#263238"/>
<path d="M55.1953 40.7842C56.6565 40.7653 58.0839 40.3417 59.3189 39.5605C59.3189 39.5605 58.3711 41.7282 55.2575 41.5146L55.1953 40.7842Z" fill="#EB996E"/>
<path d="M55.5619 36.7362C55.6408 36.6316 55.7448 36.5485 55.8643 36.4949C55.9839 36.4412 56.115 36.4187 56.2456 36.4293C56.3404 36.4352 56.433 36.4603 56.5178 36.503C56.6026 36.5457 56.6779 36.6053 56.739 36.6779C56.7982 36.7476 56.8346 36.8338 56.8433 36.9248C56.8519 37.0158 56.8325 37.1072 56.7876 37.1868C56.7208 37.2656 56.6321 37.3226 56.5328 37.3506C56.4335 37.3786 56.3281 37.3764 56.2301 37.3442C56.0258 37.2779 55.8364 37.1723 55.6726 37.0334C55.6238 37.0001 55.5816 36.9579 55.5483 36.9091C55.5321 36.8857 55.5234 36.8579 55.5234 36.8295C55.5234 36.801 55.5321 36.7732 55.5483 36.7498" fill="#EB996E"/>
<path d="M56.6176 35.9708C56.5477 35.9708 56.5593 36.4331 56.1709 36.773C55.7824 37.1129 55.2871 37.076 55.2852 37.142C55.2852 37.1712 55.3978 37.2294 55.6056 37.2294C55.8783 37.2253 56.1409 37.1256 56.3476 36.9478C56.5453 36.777 56.6686 36.536 56.6914 36.2758C56.705 36.0796 56.6487 35.9669 56.6176 35.9708Z" fill="#263238"/>
<path d="M56.6588 30.8163C56.7054 30.9309 57.1308 30.8649 57.63 30.9115C58.1292 30.9581 58.5449 31.0824 58.6012 30.9775C58.6303 30.927 58.5565 30.8183 58.3895 30.7095C58.1671 30.5773 57.9175 30.4976 57.6597 30.4764C57.4019 30.4552 57.1426 30.4931 56.9016 30.5871C56.7307 30.6668 56.6394 30.7619 56.6588 30.8163Z" fill="#263238"/>
<path d="M52.7263 31.2826C52.806 31.3778 53.0973 31.269 53.4528 31.2554C53.8082 31.2418 54.1093 31.302 54.1753 31.1991C54.2045 31.1486 54.154 31.0515 54.0199 30.9641C53.841 30.8581 53.6345 30.808 53.4268 30.8201C53.2192 30.8322 53.02 30.906 52.8545 31.032C52.7302 31.135 52.6933 31.2399 52.7263 31.2826Z" fill="#263238"/>
<path d="M58.0545 27.5877C57.2251 28.691 58.0875 30.2507 59.0432 31.2471C59.9988 32.2436 61.1623 33.3973 60.902 34.7434C60.599 36.3128 58.4527 37.3189 58.7654 38.8864C58.882 39.4575 59.3326 39.945 59.3345 40.5297C59.3345 41.5824 57.9749 42.0952 57.5864 43.0722C57.0484 44.4124 58.5285 45.7488 58.5576 47.1919C58.5712 48.0116 58.107 48.7769 58.0817 49.5966C58.0312 51.2748 60.0241 52.5101 61.644 52.0906C63.2639 51.671 64.3885 50.0899 64.742 48.4486C65.0956 46.8074 64.5595 44.4979 64.2973 42.8391L67.1176 43.4937C67.642 42.9926 66.9233 42.4604 66.8068 41.7456C66.5096 39.9489 65.3286 38.43 64.7673 36.6954C64.2759 35.1823 64.272 33.5605 64.0583 31.9852C63.8447 30.41 63.3416 28.7765 62.1335 27.7431C60.9253 26.7098 58.847 26.5777 57.8739 27.8325" fill="#263238"/>
<path d="M62.5336 51.4919C62.5236 51.4695 62.5105 51.4486 62.4948 51.4298L62.3744 51.253C61.9915 50.6591 61.7736 49.9739 61.7431 49.2679C61.7147 48.6972 61.8136 48.1273 62.0325 47.5995C62.2733 47.0167 62.7026 46.4573 63.1571 45.863C63.3975 45.5544 63.6168 45.2299 63.8136 44.8918C64.0192 44.5293 64.1642 44.1356 64.2429 43.7264C64.3305 43.2916 64.2894 42.8406 64.1244 42.4289C64.0312 42.2197 63.8994 42.0299 63.7359 41.8695C63.5688 41.7114 63.3895 41.5666 63.1999 41.4364C62.8289 41.1741 62.4229 40.908 62.2287 40.4924C62.0336 40.0609 61.9984 39.5741 62.1296 39.1191C62.3452 38.1693 62.994 37.4332 63.4057 36.6096C63.6289 36.2074 63.7615 35.7612 63.7942 35.3024C63.8084 34.8629 63.7206 34.4262 63.5378 34.0263C63.1866 33.2997 62.6816 32.6581 62.0577 32.1461C61.4945 31.6488 60.937 31.2254 60.4806 30.7864C60.0566 30.4037 59.7024 29.9502 59.4336 29.4462C59.2318 29.0652 59.1077 28.648 59.0685 28.2186C59.0433 27.947 59.0683 27.6731 59.1423 27.4106C59.1908 27.2319 59.2355 27.1426 59.2277 27.1387C59.1848 27.224 59.1497 27.3131 59.1229 27.4048C59.0405 27.6684 59.0089 27.9452 59.0296 28.2206C59.0629 28.6572 59.1838 29.0826 59.3851 29.4714C59.6522 29.9821 60.0065 30.4423 60.432 30.8311C60.8904 31.2778 61.4459 31.7051 62.0034 32.2024C62.6149 32.709 63.1099 33.3418 63.4543 34.0573C63.6293 34.4535 63.7085 34.8854 63.6854 35.3179C63.6551 35.762 63.5285 36.1941 63.3145 36.5843C63.1086 36.9903 62.8502 37.3788 62.6055 37.7867C62.3419 38.1957 62.1452 38.6442 62.0228 39.1152C61.8877 39.5928 61.9262 40.1027 62.1316 40.5545C62.3549 41.0013 62.7725 41.2732 63.1396 41.5257C63.3253 41.6522 63.5013 41.7924 63.666 41.9453C63.82 42.0983 63.9451 42.2779 64.0351 42.4755C64.1934 42.8706 64.2332 43.3032 64.1497 43.7206C64.0738 44.1194 63.9334 44.5032 63.734 44.8568C63.5401 45.1902 63.324 45.5101 63.0872 45.8144C62.6385 46.4107 62.2073 46.9798 61.9645 47.5742C61.7448 48.1112 61.6492 48.6908 61.6848 49.2699C61.7099 49.7057 61.805 50.1346 61.9665 50.5402C62.0696 50.7949 62.1998 51.0378 62.3549 51.2647C62.4093 51.3424 62.4559 51.3968 62.4851 51.4356C62.4999 51.4555 62.5162 51.4743 62.5336 51.4919Z" fill="#2059EE"/>
</svg>
