<svg width="100" height="75" viewBox="0 0 100 75" fill="none" xmlns="http://www.w3.org/2000/svg">
<path d="M9.82619 11.8358L10.3522 10.9891C14.794 3.83214 22.8227 -0.481932 31.2885 0.0430382C32.3804 0.107967 33.4658 0.253024 34.5355 0.476985C42.2329 2.08788 48.9303 7.78 51.7054 15.0703C53.3375 19.3569 53.7942 24.2933 56.9005 27.6971C60.9332 32.1255 67.7799 32.2652 73.7976 32.081C79.8153 31.8969 86.6664 32.0535 90.6818 36.5009C93.1949 39.2846 93.9937 43.2451 93.7924 46.9728C93.2555 56.8457 86.2161 65.6749 77.274 70.0631C68.3319 74.4512 57.7923 74.8428 47.9995 72.9123C34.2844 70.2091 21.2381 62.7833 13.3978 51.3208C5.55753 39.8582 3.55308 24.215 9.82619 11.8358Z" fill="#FFEFE3"/>
<path d="M99.0637 71.2977C99.0637 71.3285 76.8864 71.3548 49.5341 71.3548C22.1818 71.3548 0 71.3219 0 71.2977C0 71.2736 22.173 71.2385 49.5341 71.2385C76.8952 71.2385 99.0637 71.2582 99.0637 71.2977Z" fill="#263238"/>
<path d="M31.2109 15.3447H87.945C88.1558 15.3447 88.3646 15.3862 88.5593 15.4669C88.7541 15.5476 88.931 15.6658 89.0801 15.8149C89.2291 15.9639 89.3474 16.1409 89.428 16.3356C89.5087 16.5304 89.5502 16.7391 89.5502 16.9499V54.3937C89.5502 54.9366 89.3345 55.4572 88.9506 55.8411C88.5668 56.225 88.0461 56.4407 87.5032 56.4407H31.1216C30.72 56.4407 30.3349 56.2812 30.0509 55.9972C29.767 55.7132 29.6074 55.3281 29.6074 54.9265V16.9499C29.6074 16.5245 29.7763 16.1164 30.077 15.8155C30.3777 15.5145 30.7855 15.3452 31.2109 15.3447Z" fill="#263238"/>
<path d="M41.4878 21.2392H37.2598V22.1609H41.4878V21.2392Z" fill="#455A64"/>
<path d="M39.373 25.368H37.2598V26.2897H39.373V25.368Z" fill="#EF9536"/>
<path d="M41.8266 27.4449H38.8496V28.3666H41.8266V27.4449Z" fill="#455A64"/>
<path d="M44.035 27.4449H42.3008V28.3666H44.035V27.4449Z" fill="#455A64"/>
<path d="M59.5837 27.4449H56.0176V28.3666H59.5837V27.4449Z" fill="#455A64"/>
<path d="M70.0096 29.4687H63.9844V30.3904H70.0096V29.4687Z" fill="#455A64"/>
<path d="M79.3064 27.4449H76.4121V28.3666H79.3064V27.4449Z" fill="#455A64"/>
<path d="M86.0117 27.4449H80.1934V28.3666H86.0117V27.4449Z" fill="#455A64"/>
<path d="M41.8266 29.4687H38.8496V30.3904H41.8266V29.4687Z" fill="#455A64"/>
<path d="M39.9985 31.4876H37.0215V32.4094H39.9985V31.4876Z" fill="#EF9536"/>
<path d="M39.9975 33.5081H38.6074V34.4299H39.9975V33.5081Z" fill="#455A64"/>
<path d="M45.1029 37.761H43.7129V38.6827H45.1029V37.761Z" fill="#455A64"/>
<path d="M65.559 45.4476H62.8418V46.3693H65.559V45.4476Z" fill="#455A64"/>
<path d="M80.7394 45.4476H74.082V46.3693H80.7394V45.4476Z" fill="#455A64"/>
<path d="M55.3266 43.4304H52.6094V44.3521H55.3266V43.4304Z" fill="#E0E0E0"/>
<path d="M45.4828 41.6979H42.7656V42.6196H45.4828V41.6979Z" fill="#455A64"/>
<path d="M62.2785 45.4476H57.9941V46.3693H62.2785V45.4476Z" fill="#455A64"/>
<path d="M40.8646 35.5651H38.6074V36.4869H40.8646V35.5651Z" fill="#455A64"/>
<path d="M42.7941 37.7957H38.6074V38.7175H42.7941V37.7957Z" fill="#455A64"/>
<path d="M44.7319 39.5052H38.6074V40.4269H44.7319V39.5052Z" fill="#455A64"/>
<path d="M55.8296 39.5052H49.7051V40.4269H55.8296V39.5052Z" fill="#455A64"/>
<path d="M51.313 43.4304H42.7129V44.3521H51.313V43.4304Z" fill="#455A64"/>
<path d="M57.2588 45.4476H42.7129V46.3693H57.2588V45.4476Z" fill="#455A64"/>
<path d="M52.8565 47.465H38.3105V48.3867H52.8565V47.465Z" fill="#455A64"/>
<path d="M49.0526 39.5052H45.3789V40.4269H49.0526V39.5052Z" fill="#455A64"/>
<path d="M44.3361 33.5081H40.5449V34.4299H44.3361V33.5081Z" fill="#455A64"/>
<path d="M45.174 35.5651H41.3828V36.4869H45.174V35.5651Z" fill="#455A64"/>
<path d="M59.8621 35.5651H49.8223V36.4869H59.8621V35.5651Z" fill="#455A64"/>
<path d="M71.7321 35.5651H60.1367V36.4869H71.7321V35.5651Z" fill="#455A64"/>
<path d="M48.9344 35.5651H45.7969V36.4869H48.9344V35.5651Z" fill="#455A64"/>
<path d="M49.8249 33.5081H44.8555V34.4299H49.8249V33.5081Z" fill="#455A64"/>
<path d="M53.1438 33.5081H50.377V34.4299H53.1438V33.5081Z" fill="#E0E0E0"/>
<path d="M45.4036 29.4687H42.3008V30.3904H45.4036V29.4687Z" fill="#455A64"/>
<path d="M62.8318 29.4687H47.5098V30.3904H62.8318V29.4687Z" fill="#455A64"/>
<path d="M80.0319 35.5651H72.7871V36.4869H80.0319V35.5651Z" fill="#455A64"/>
<path d="M73.5124 45.4476H66.2676V46.3693H73.5124V45.4476Z" fill="#455A64"/>
<path d="M75.2851 27.4449H60.1914V28.3666H75.2851V27.4449Z" fill="#455A64"/>
<path d="M55.0794 27.4449H44.5762V28.3666H55.0794V27.4449Z" fill="#455A64"/>
<path d="M44.3308 23.1936H37.2598V24.1153H44.3308V23.1936Z" fill="#455A64"/>
<path d="M54.7175 23.1936H45.0352V24.1153H54.7175V23.1936Z" fill="#455A64"/>
<path d="M45.2592 21.2392H42.1465V22.1609H45.2592V21.2392Z" fill="#E0E0E0"/>
<path d="M34.0323 21.2392H33.1387V22.1609H34.0323V21.2392Z" fill="#455A64"/>
<path d="M34.0323 23.2564H33.1387V24.1781H34.0323V23.2564Z" fill="#455A64"/>
<path d="M34.0323 25.2737H33.1387V26.1955H34.0323V25.2737Z" fill="#455A64"/>
<path d="M34.0323 27.291H33.1387V28.2127H34.0323V27.291Z" fill="#455A64"/>
<path d="M34.0323 29.3082H33.1387V30.2299H34.0323V29.3082Z" fill="#455A64"/>
<path d="M34.0323 31.3254H33.1387V32.2471H34.0323V31.3254Z" fill="#455A64"/>
<path d="M34.0323 33.3426H33.1387V34.2643H34.0323V33.3426Z" fill="#455A64"/>
<path d="M34.0323 35.3598H33.1387V36.2815H34.0323V35.3598Z" fill="#455A64"/>
<path d="M34.0323 37.377H33.1387V38.2988H34.0323V37.377Z" fill="#455A64"/>
<path d="M44.7631 51.8221H43.373V52.7439H44.7631V51.8221Z" fill="#E0E0E0"/>
<path d="M42.5246 51.8221H38.3379V52.7439H42.5246V51.8221Z" fill="#EF9536"/>
<path d="M34.0323 51.7196H33.1387V52.6413H34.0323V51.7196Z" fill="#455A64"/>
<path d="M34.0323 39.3944H33.1387V40.3161H34.0323V39.3944Z" fill="#455A64"/>
<path d="M34.0323 41.4116H33.1387V42.3334H34.0323V41.4116Z" fill="#455A64"/>
<path d="M34.0323 43.4304H33.1387V44.3521H34.0323V43.4304Z" fill="#455A64"/>
<path d="M34.0323 45.4476H33.1387V46.3693H34.0323V45.4476Z" fill="#455A64"/>
<path d="M34.0323 47.465H33.1387V48.3867H34.0323V47.465Z" fill="#455A64"/>
<path d="M42.5519 49.5881H38.3105V50.5098H42.5519V49.5881Z" fill="#455A64"/>
<path d="M52.9661 49.5881H43.373V50.5098H52.9661V49.5881Z" fill="#455A64"/>
<path d="M34.0323 49.5881H33.1387V50.5098H34.0323V49.5881Z" fill="#455A64"/>
<path d="M59.0131 23.187H55.9004V24.1087H59.0131V23.187Z" fill="#E0E0E0"/>
<path d="M32.9502 18.6362C33.3002 18.6362 33.584 18.3524 33.584 18.0024C33.584 17.6523 33.3002 17.3686 32.9502 17.3686C32.6002 17.3686 32.3164 17.6523 32.3164 18.0024C32.3164 18.3524 32.6002 18.6362 32.9502 18.6362Z" fill="#455A64"/>
<path d="M34.708 18.6362C35.0581 18.6362 35.3418 18.3524 35.3418 18.0024C35.3418 17.6523 35.0581 17.3686 34.708 17.3686C34.358 17.3686 34.0742 17.6523 34.0742 18.0024C34.0742 18.3524 34.358 18.6362 34.708 18.6362Z" fill="#455A64"/>
<path d="M36.4658 18.6362C36.8159 18.6362 37.0996 18.3524 37.0996 18.0024C37.0996 17.6523 36.8159 17.3686 36.4658 17.3686C36.1158 17.3686 35.832 17.6523 35.832 18.0024C35.832 18.3524 36.1158 18.6362 36.4658 18.6362Z" fill="#455A64"/>
<path d="M35.6094 20.9761C35.6326 20.9761 35.6525 28.911 35.6525 38.6993C35.6525 48.4876 35.6326 56.4241 35.6094 56.4241C35.5863 56.4241 35.5664 48.4893 35.5664 38.6993C35.5664 28.9093 35.5846 20.9761 35.6094 20.9761Z" fill="#455A64"/>
<path d="M80.1936 20H43.2666C40.935 20 39.0449 21.8901 39.0449 24.2217V45.7783C39.0449 48.1099 40.935 50 43.2666 50H80.1936C82.5251 50 84.4152 48.1099 84.4152 45.7783V24.2217C84.4152 21.8901 82.5251 20 80.1936 20Z" fill="#EF9536"/>
<g opacity="0.3">
<path d="M80.1916 20H43.2646C40.9331 20 39.043 21.8901 39.043 24.2217V45.7783C39.043 48.1099 40.9331 50 43.2646 50H80.1916C82.5232 50 84.4132 48.1099 84.4132 45.7783V24.2217C84.4132 21.8901 82.5232 20 80.1916 20Z" fill="black"/>
</g>
<path d="M77.1486 20H40.2217C37.8901 20 36 21.8901 36 24.2217V45.7783C36 48.1099 37.8901 50 40.2217 50H77.1486C79.4802 50 81.3703 48.1099 81.3703 45.7783V24.2217C81.3703 21.8901 79.4802 20 77.1486 20Z" fill="#EF9536"/>
<path d="M53.7827 33.3149L47.6014 35.5063L53.7827 37.6978V40.529L44.2109 37.0026V34.0202L53.7827 30.4937V33.3149Z" fill="white"/>
<path d="M60.5992 25.9699H63.8737L57.4757 44.2269H54.2012L60.5992 25.9699Z" fill="white"/>
<path d="M73.6304 34.015V36.9973L64.0586 40.5238V37.6925L70.245 35.5011L64.0586 33.3097V30.4784L73.6304 34.015Z" fill="white"/>
<path d="M14.2831 29.2566C14.3407 29.2038 14.4178 29.1729 14.4989 29.1702C14.7307 29.1452 14.9653 29.1859 15.1716 29.287C15.0241 29.1442 14.9309 28.9608 14.9063 28.7646C14.8817 28.5684 14.927 28.3701 15.0353 28.1999C15.1507 28.0337 15.3157 27.9019 15.5103 27.8204C15.7049 27.739 15.9209 27.7114 16.132 27.741C16.3416 27.7748 16.5387 27.8566 16.7054 27.979C16.8721 28.1014 17.003 28.2604 17.0862 28.4416C17.1652 28.625 17.2013 28.8219 17.1919 29.0192C17.1826 29.2164 17.128 29.4096 17.0319 29.5859L16.3302 29.7564C16.0045 29.9604 15.6204 30.0698 15.2271 30.0705C15.1486 30.0767 15.0695 30.0681 14.9947 30.0452C14.9198 30.0223 14.8508 29.9857 14.7917 29.9374C14.6857 29.83 14.7046 29.6198 14.8535 29.5754C14.7115 29.6174 14.5589 29.6174 14.4169 29.5754C14.2755 29.5369 14.1846 29.3641 14.2831 29.2566Z" fill="#263238"/>
<path d="M17.9183 28.4101C18.1355 28.3477 18.364 28.3259 18.5904 28.346C18.8168 28.366 19.0367 28.4275 19.2372 28.5268C19.3485 28.3948 19.4959 28.2925 19.6641 28.2307C19.8324 28.1688 20.0154 28.1495 20.1944 28.1749C20.3733 28.2002 20.5417 28.2692 20.6823 28.3748C20.8228 28.4804 20.9304 28.6187 20.994 28.7756C21.1861 28.7018 21.4006 28.6949 21.5978 28.7561C21.7949 28.8173 21.9615 28.9425 22.0666 29.1086C22.1718 29.2746 22.2083 29.4703 22.1696 29.6594C22.1309 29.8484 22.0195 30.0181 21.856 30.1371C22.0113 30.197 22.1499 30.2889 22.2612 30.4057C22.3724 30.5225 22.4534 30.6613 22.4981 30.8114C22.5427 30.9616 22.5498 31.1192 22.5188 31.2722C22.4878 31.4253 22.4195 31.5698 22.3192 31.6948C22.6511 31.8431 22.7079 32.2588 22.6587 32.5962C22.6095 32.9337 22.5047 33.2968 22.6688 33.6016C22.795 33.8351 23.0562 33.9834 23.2342 34.1854C23.4121 34.3875 23.4752 34.7436 23.2342 34.8861C23.3336 34.9029 23.4285 34.9377 23.5134 34.9885C23.5983 35.0393 23.6716 35.1051 23.729 35.1821C23.845 35.3376 23.8894 35.5293 23.8526 35.7151C23.8158 35.9009 23.7007 36.0656 23.5326 36.1729C23.3646 36.2802 23.1574 36.3213 22.9565 36.2873C23.0171 36.4234 23.0396 36.5715 23.022 36.7179C23.0044 36.8642 22.9471 37.0041 22.8556 37.1245C22.6678 37.3644 22.4027 37.543 22.0983 37.6348C21.6645 37.7715 21.196 37.7831 20.755 37.668C20.3139 37.5529 19.921 37.3165 19.6284 36.9902L16.9048 29.1983C17.0089 29.0114 17.1521 28.8454 17.3261 28.7101C17.5001 28.5748 17.7014 28.4728 17.9183 28.4101Z" fill="#263238"/>
<path d="M16.6206 30.5633L16.584 30.1429L19.2849 29.51C20.1229 29.3804 21.0846 30.1114 21.1881 30.8902C21.3042 31.7566 21.4077 32.8169 21.3396 33.472C21.2007 34.7879 20.1305 35.0145 20.1305 35.0145L20.2138 36.3094L17.1002 36.5184L16.6206 30.5633Z" fill="#AE7461"/>
<path d="M20.859 32.0439C20.8621 32.0874 20.8467 32.1304 20.8161 32.1636C20.7854 32.1967 20.7419 32.2175 20.6949 32.2214C20.672 32.2245 20.6487 32.2233 20.6264 32.2179C20.6041 32.2124 20.5831 32.2029 20.5649 32.1898C20.5466 32.1767 20.5314 32.1604 20.5201 32.1417C20.5088 32.1231 20.5018 32.1025 20.4993 32.0812C20.4961 32.0377 20.5113 31.9948 20.5417 31.9615C20.572 31.9281 20.6152 31.907 20.6621 31.9026C20.6851 31.8996 20.7085 31.901 20.7309 31.9065C20.7533 31.9121 20.7743 31.9217 20.7927 31.9349C20.811 31.948 20.8263 31.9645 20.8377 31.9832C20.8491 32.0019 20.8563 32.0225 20.859 32.0439Z" fill="#263238"/>
<path d="M20.9293 31.4612C20.9079 31.4834 20.7653 31.3982 20.5709 31.4087C20.3765 31.4192 20.239 31.5184 20.2163 31.4974C20.1935 31.4764 20.2264 31.4472 20.2857 31.4028C20.366 31.3436 20.4645 31.3093 20.5671 31.3047C20.6681 31.2986 20.7686 31.3228 20.8536 31.3736C20.9167 31.4122 20.9394 31.446 20.9293 31.4612Z" fill="#263238"/>
<path d="M19.0933 32.1326C19.0965 32.1762 19.0811 32.2192 19.0504 32.2523C19.0198 32.2855 18.9763 32.3063 18.9293 32.3101C18.9064 32.3132 18.8831 32.3121 18.8608 32.3066C18.8384 32.3012 18.8175 32.2917 18.7992 32.2786C18.781 32.2655 18.7657 32.2491 18.7545 32.2305C18.7432 32.2118 18.7361 32.1913 18.7337 32.17C18.7305 32.1265 18.7457 32.0836 18.776 32.0502C18.8064 32.0169 18.8496 31.9958 18.8965 31.9914C18.9195 31.9884 18.9429 31.9898 18.9653 31.9953C18.9877 32.0008 19.0087 32.0105 19.0271 32.0236C19.0454 32.0368 19.0607 32.0532 19.0721 32.072C19.0835 32.0907 19.0907 32.1113 19.0933 32.1326Z" fill="#263238"/>
<path d="M19.0172 31.6014C18.9958 31.6235 18.8519 31.5383 18.6588 31.5488C18.4657 31.5593 18.3269 31.6586 18.3041 31.6376C18.2814 31.6165 18.313 31.5873 18.3736 31.5418C18.4546 31.4838 18.5527 31.45 18.655 31.4449C18.7558 31.439 18.8561 31.4627 18.9415 31.5126C19.0046 31.5523 19.0273 31.5908 19.0172 31.6014Z" fill="#263238"/>
<path d="M19.8107 32.8963C19.9108 32.8605 20.0156 32.837 20.1224 32.8263C20.1716 32.8181 20.2183 32.8064 20.2246 32.7749C20.2264 32.7272 20.2118 32.6802 20.183 32.6406L20.0126 32.2985C19.7766 31.8115 19.6024 31.4099 19.6239 31.4017C19.6453 31.3935 19.8536 31.7812 20.0896 32.2669C20.1476 32.3837 20.2019 32.5005 20.2537 32.6114C20.2885 32.665 20.3019 32.7282 20.2915 32.7901C20.2853 32.8068 20.275 32.8221 20.2614 32.8346C20.2479 32.8472 20.2314 32.8567 20.2133 32.8625C20.1864 32.871 20.1584 32.8761 20.13 32.8776C20.0247 32.8958 19.9175 32.9021 19.8107 32.8963Z" fill="#263238"/>
<path d="M20.1302 35.018C19.4515 35.0651 18.7718 34.9404 18.1639 34.6572C18.1639 34.6572 18.7003 35.5434 20.1504 35.3426L20.1302 35.018Z" fill="#6F4439"/>
<path d="M18.9735 30.979C18.9545 31.028 18.7602 31.0046 18.5317 31.0303C18.3033 31.056 18.1178 31.1132 18.0875 31.0689C18.0736 31.0479 18.1064 31.0023 18.1809 30.9521C18.2794 30.8928 18.392 30.8563 18.509 30.8458C18.6263 30.8325 18.7453 30.8453 18.8561 30.8832C18.9394 30.9182 18.9823 30.9568 18.9735 30.979Z" fill="#263238"/>
<path d="M20.8807 31.0152C20.8504 31.0584 20.7128 31.0245 20.5513 31.0327C20.3897 31.0408 20.256 31.0794 20.2219 31.0327C20.2067 31.0128 20.2219 30.9708 20.2812 30.9276C20.3578 30.876 20.4492 30.8467 20.5438 30.8434C20.6384 30.8401 20.732 30.8629 20.8125 30.9089C20.8731 30.9533 20.8946 30.9941 20.8807 31.0152Z" fill="#263238"/>
<path d="M21.1835 29.9526C20.8617 29.565 20.409 29.2884 19.8974 29.1667L17.6156 29.4318H17.4212C17.3783 29.2987 17.136 29.2286 17.136 29.2286C16.9214 29.0768 16.178 29.0686 15.6606 29.5696C15.4738 29.7494 15.3413 30.2036 15.3375 30.4535C15.3375 30.5481 15.4448 30.6777 15.359 30.7302C15.256 30.7422 15.1523 30.7489 15.0485 30.7501C14.4679 30.8669 14.1057 31.3444 14.2105 32.0556C14.2202 32.0906 14.2244 32.1268 14.2231 32.163C14.2052 32.2182 14.1695 32.2671 14.1208 32.3031C13.9852 32.4413 13.8974 32.614 13.8688 32.7988C13.8403 32.9836 13.8722 33.1721 13.9606 33.34C14.03 33.4356 14.0824 33.5408 14.1158 33.6518C14.1511 33.8538 13.9896 34.0348 13.8634 34.2064C13.4848 34.7179 13.4116 35.4605 13.8482 35.9253C13.9543 36.042 14.0918 36.1401 14.1309 36.2849C14.1446 36.3573 14.1489 36.4311 14.1436 36.5044C14.1436 36.8758 14.3518 37.2915 14.7443 37.3697C14.9627 37.4129 15.2277 37.3557 15.3829 37.504C15.4417 37.5749 15.4885 37.6536 15.5218 37.7375C15.6087 37.8893 15.7491 38.009 15.9196 38.077C16.0901 38.1449 16.2806 38.157 16.4595 38.1112C16.8141 38.0096 16.9315 36.6808 16.8798 36.341C17.3089 36.1973 17.6257 36.1716 17.6055 35.7501C17.6055 35.7501 17.5398 35.0238 17.6673 34.67C17.7948 34.3162 17.5411 33.5642 17.3934 33.1987C17.2458 32.8332 17.4212 31.9832 17.4603 31.6445C17.4628 31.5472 17.4526 31.45 17.43 31.3549C17.4136 31.272 17.3934 31.1798 17.3682 31.0805C17.343 30.9813 17.2773 30.4967 17.2786 30.408C17.2849 30.088 17.714 30.2585 18.0358 30.3612C18.1173 30.3864 18.2024 30.4002 18.2883 30.4021C18.4235 30.4045 18.5576 30.3778 18.6798 30.3241C18.802 30.2704 18.909 30.1912 18.9925 30.0927C19.1502 30.2437 19.3491 30.3527 19.5681 30.4079C19.7871 30.4632 20.0181 30.4628 20.2369 30.4068C20.4017 30.642 20.5999 30.8557 20.8263 31.042C21.0558 31.2295 21.3562 31.3252 21.6618 31.3082C21.6702 30.8196 21.5018 30.3425 21.1835 29.9526Z" fill="#263238"/>
<path d="M19.6704 33.3318C19.6361 33.2882 19.5905 33.2532 19.5378 33.2301C19.4851 33.2071 19.4269 33.1967 19.3687 33.1999C19.3264 33.2014 19.2849 33.2108 19.2467 33.2277C19.2085 33.2446 19.1745 33.2685 19.1466 33.298C19.1192 33.3259 19.1019 33.3611 19.0971 33.3985C19.0924 33.436 19.1004 33.4739 19.1201 33.507C19.1488 33.5402 19.1876 33.5647 19.2315 33.5772C19.2754 33.5897 19.3223 33.5896 19.3662 33.577C19.4582 33.5519 19.544 33.5103 19.6186 33.4544C19.6409 33.4408 19.6605 33.4238 19.6767 33.4042C19.6837 33.3946 19.6875 33.3832 19.6875 33.3715C19.6875 33.3599 19.6837 33.3485 19.6767 33.3388" fill="#6F4439"/>
<path d="M19.204 33.0073C19.2356 33.0073 19.2255 33.1988 19.3959 33.3424C19.5662 33.486 19.7871 33.4755 19.7871 33.5024C19.7871 33.5292 19.7354 33.5374 19.642 33.535C19.5214 33.5335 19.4055 33.4921 19.3151 33.4183C19.2287 33.3461 19.1762 33.2455 19.1687 33.138C19.1649 33.0516 19.1901 33.0049 19.204 33.0073Z" fill="#263238"/>
<path d="M23.5359 67.3512L23.2835 69.8255C23.2835 69.8255 26.1989 70.8332 26.2305 71.3318L20.7189 71.3458V70.9733L20.9499 69.7005L21.2907 67.2274L23.5359 67.3512Z" fill="#455A64"/>
<path d="M21.6182 69.4425C21.5638 69.4575 21.5173 69.4906 21.4877 69.5354C21.4581 69.5803 21.4475 69.6337 21.458 69.6854C21.4723 69.7349 21.5062 69.7776 21.5529 69.805C21.5997 69.8325 21.6559 69.8427 21.7104 69.8337C21.768 69.8176 21.8171 69.7823 21.8481 69.7346C21.8791 69.6869 21.8899 69.6302 21.8782 69.5756C21.8574 69.524 21.8158 69.482 21.7621 69.4582C21.7084 69.4345 21.6469 69.4309 21.5905 69.4483" fill="#E0E0E0"/>
<path d="M20.7143 71.3458V70.9733L26 71.0667C26 71.0667 26.2524 71.1683 26.2221 71.3318L20.7143 71.3458Z" fill="#263238"/>
<path d="M23.3711 69.7998C23.3711 69.8255 23.2323 69.836 23.096 69.9166C22.9597 69.9971 22.8877 70.1057 22.8625 70.0952C22.8372 70.0847 22.8789 69.9376 23.0455 69.8418C23.2121 69.7461 23.3711 69.7764 23.3711 69.7998Z" fill="#263238"/>
<path d="M23.9607 70.0275C23.967 70.052 23.8471 70.0952 23.7537 70.2027C23.6603 70.3101 23.6275 70.4245 23.6048 70.4233C23.5821 70.4222 23.5606 70.2774 23.6793 70.1454C23.7979 70.0135 23.9594 70.003 23.9607 70.0275Z" fill="#263238"/>
<path d="M24.2949 70.6802C24.2697 70.686 24.2318 70.5634 24.3025 70.4198C24.3732 70.2762 24.5032 70.2248 24.5145 70.2458C24.5259 70.2668 24.4464 70.3416 24.3883 70.4572C24.3303 70.5728 24.3214 70.6802 24.2949 70.6802Z" fill="#263238"/>
<path d="M23.5655 69.2042C23.5529 69.2276 23.4267 69.1926 23.2715 69.2042C23.1162 69.2159 22.9938 69.2591 22.9799 69.2369C22.9661 69.2148 23.0822 69.1202 23.2664 69.1202C23.4507 69.1202 23.5782 69.1844 23.5655 69.2042Z" fill="#263238"/>
<path d="M16.7649 67.4212L16.5288 69.8535C16.5288 69.8535 19.3988 70.8274 19.4316 71.3166L14.0186 71.361V70.9943L14.2394 69.7461L14.5575 67.315L16.7649 67.4212Z" fill="#455A64"/>
<path d="M14.8949 69.4856C14.8416 69.5008 14.7962 69.5336 14.7674 69.5777C14.7385 69.6219 14.7282 69.6743 14.7384 69.725C14.753 69.7742 14.7871 69.8164 14.8339 69.8432C14.8807 69.8701 14.9368 69.8796 14.9908 69.8698C15.0471 69.8533 15.0947 69.8183 15.1248 69.7713C15.1548 69.7243 15.1651 69.6688 15.1536 69.6153C15.1326 69.5648 15.0913 69.5239 15.0384 69.501C14.9854 69.4781 14.925 69.4751 14.8697 69.4926" fill="#E0E0E0"/>
<path d="M14.0195 71.361V70.9943L19.213 71.0574C19.213 71.0574 19.4654 71.1555 19.4326 71.3166L14.0195 71.361Z" fill="#263238"/>
<path d="M16.6171 69.8278C16.6171 69.8524 16.4808 69.864 16.3482 69.9446C16.2157 70.0252 16.1451 70.1314 16.1198 70.1221C16.0946 70.1127 16.135 69.9668 16.2978 69.8722C16.4606 69.7776 16.6221 69.8045 16.6171 69.8278Z" fill="#263238"/>
<path d="M17.1973 70.0473C17.1973 70.0719 17.0862 70.1151 16.9953 70.2213C16.9045 70.3276 16.878 70.4397 16.8502 70.4385C16.8224 70.4373 16.806 70.2961 16.9221 70.1664C17.0382 70.0368 17.196 70.024 17.1973 70.0473Z" fill="#263238"/>
<path d="M17.5302 70.6907C17.5049 70.6907 17.4671 70.574 17.5302 70.4338C17.5933 70.2937 17.7258 70.2412 17.7372 70.2622C17.7485 70.2832 17.6715 70.3568 17.6109 70.47C17.5504 70.5833 17.5567 70.6872 17.5302 70.6907Z" fill="#263238"/>
<path d="M16.808 69.2416C16.7967 69.265 16.673 69.2311 16.519 69.2416C16.365 69.2521 16.2477 69.2965 16.2338 69.2755C16.2199 69.2545 16.3335 69.1646 16.5139 69.1587C16.6944 69.1529 16.8181 69.2218 16.808 69.2416Z" fill="#263238"/>
<path d="M23.6554 45.8343C23.6554 45.8343 24.9617 49.3373 25.0071 51.9377C25.0525 54.5382 25.0967 58.6823 24.5111 63.2491C23.9255 67.8159 23.6554 69.6515 23.6554 69.6515H20.6832C20.4945 67.8501 20.404 66.041 20.4118 64.2311C20.4573 61.6704 20.6743 60.8588 20.4118 58.0424C20.1493 55.2259 19.7253 53.534 19.2823 52.6804C19.2823 52.6804 18.0555 51.3305 17.9659 49.4798C17.9256 48.3081 18.1327 47.1404 18.5755 46.0421L23.6554 45.8343Z" fill="#263238"/>
<path d="M21.0117 50.7444C20.9625 50.8857 20.0803 56.6236 19.4366 59.1517C18.793 61.6797 18.0774 62.3535 17.9512 64.4063C17.8073 66.7743 17.1043 69.6433 17.1043 69.6433H13.939C13.939 69.6433 14.3845 65.2668 14.8288 61.8444C15.273 58.4219 15.9167 54.2054 15.8182 52.9396C15.7198 51.6738 15.4724 50.1115 15.8182 48.3378C16.164 46.5641 16.9125 46.0982 16.9125 46.0982L19.5982 45.9814L21.0117 50.7444Z" fill="#263238"/>
<path d="M18.0332 47.4632C18.0144 47.4915 17.9979 47.5212 17.984 47.5519C17.9406 47.6391 17.9047 47.7293 17.8767 47.8216C17.786 48.1653 17.7507 48.5194 17.7719 48.8726C17.7961 49.3946 17.8837 49.9124 18.0332 50.4162C18.1185 50.7151 18.2339 51.006 18.3777 51.285C18.544 51.5787 18.7356 51.8594 18.9507 52.1246C19.3798 52.6734 19.5931 53.2981 19.7534 53.8621C19.8885 54.3659 19.9889 54.8772 20.0538 55.3929C20.1131 55.8331 20.1472 56.1916 20.1737 56.4438C20.1863 56.5606 20.1977 56.6575 20.2052 56.7276C20.2071 56.761 20.2122 56.7942 20.2204 56.8268C20.2234 56.7938 20.2234 56.7606 20.2204 56.7276C20.2204 56.6563 20.2103 56.5606 20.2027 56.4415C20.1838 56.1939 20.156 55.8343 20.103 55.3906C20.0439 54.8719 19.9478 54.3573 19.8152 53.8504C19.7353 53.5507 19.6354 53.2559 19.5161 52.9676C19.4514 52.8153 19.3777 52.6664 19.2953 52.5216C19.208 52.3739 19.1119 52.2309 19.0075 52.093C18.7947 51.8299 18.6048 51.5515 18.4396 51.2605C18.2956 50.9854 18.1798 50.6985 18.0938 50.4034C17.9404 49.9026 17.8477 49.3876 17.8174 48.8679C17.7917 48.5192 17.8193 48.169 17.8994 47.8275C17.9242 47.7353 17.9558 47.6448 17.9941 47.5566C18.0102 47.5266 18.0233 47.4954 18.0332 47.4632Z" fill="#455A64"/>
<path d="M30.6168 38.6857C30.0716 38.987 29.0859 39.2695 29.0859 39.2695L27.9803 38.4522C27.9803 38.4522 28.7704 37.1163 29.0253 36.7368C29.1104 36.6099 29.1794 36.4743 29.2311 36.3328C29.3169 36.0479 29.5428 36.1693 29.5844 36.3935C29.581 36.5164 29.5576 36.638 29.515 36.7544C29.457 36.8922 29.4307 37.0398 29.438 37.1876C29.438 37.1876 29.5188 37.1245 29.7182 37.0007C29.9176 36.877 30.666 36.3001 30.974 36.0666C31.4359 35.7163 31.6681 35.9323 31.605 36.0666C31.5293 36.2359 30.3846 36.9786 30.425 37.1047C30.425 37.1047 30.6459 37.2214 30.6774 37.3534C30.6957 37.4401 30.6957 37.5294 30.6774 37.6161C30.6774 37.6161 30.8844 37.6348 30.9387 37.7574C30.9677 37.8553 30.9624 37.9591 30.9235 38.054C30.9235 38.054 31.1154 38.0703 31.1368 38.1708C31.1583 38.2712 31.0283 38.4603 30.6168 38.6857Z" fill="#AE7461"/>
<path d="M28.1659 38.0878C28.1495 38.1334 25.7957 40.3625 25.7957 40.3625C25.7957 40.3625 23.8319 38.3167 23.235 37.56C22.638 36.8034 21.7293 35.8833 20.9481 35.7139C20.1668 35.5446 19.0789 36.007 19.0789 36.007L20.4672 38.6367L22.2127 40.8553C22.2127 40.8553 24.0982 43.047 24.9956 43.3856C25.8929 43.7242 26.7688 43.2397 27.1563 42.8707C27.5437 42.5017 29.8066 39.3151 29.8066 39.3151L28.1659 38.0878Z" fill="#EF9536"/>
<path d="M15.0544 36.5838L20.4675 35.7139C20.4675 35.7139 21.9707 38.166 22.5336 40.7349C23.0965 43.3038 23.7363 45.8786 23.7363 45.8786L18.7347 46.4496C18.2141 46.509 17.6871 46.5023 17.1684 46.4297L16.6472 46.3562L17.075 44.7214C16.3607 43.0691 15.8382 41.6586 15.529 40.4932C14.8588 37.9687 15.0544 36.5838 15.0544 36.5838Z" fill="#EF9536"/>
<path d="M20.5933 39.036C20.6192 39.0749 20.6488 39.1116 20.6816 39.1457C20.7511 39.2228 20.8356 39.3186 20.9341 39.4318C21.1486 39.6747 21.4389 40.0157 21.762 40.387C22.0851 40.7583 22.3804 41.0969 22.6051 41.3316C22.7161 41.4484 22.8095 41.5442 22.8751 41.6072C22.9063 41.6426 22.9424 41.674 22.9824 41.7006C22.958 41.6608 22.9283 41.6239 22.8941 41.5909L22.6417 41.3036C22.4271 41.0619 22.1368 40.7198 21.815 40.3485C21.4932 39.9771 21.1953 39.6397 20.9719 39.4038C20.8596 39.287 20.7675 39.1925 20.7006 39.1294C20.6694 39.094 20.6333 39.0626 20.5933 39.036Z" fill="#263238"/>
<path d="M17.1596 44.7997C17.269 44.8417 17.3834 44.8719 17.5003 44.8896C18.0588 44.9984 18.6332 45.019 19.1991 44.9503C19.317 44.9417 19.4332 44.9194 19.5449 44.8838C19.4276 44.8851 19.3104 44.8929 19.1941 44.9071C18.9133 44.9293 18.6313 44.9356 18.3497 44.9258C18.0677 44.9151 17.7866 44.8889 17.5079 44.8476C17.3933 44.8235 17.2768 44.8075 17.1596 44.7997Z" fill="#263238"/>
<path d="M25.8466 41.6901C25.8769 41.48 25.8845 41.2676 25.8694 41.0561C25.8769 40.844 25.8629 40.6317 25.8277 40.422C25.7973 40.6321 25.7893 40.8445 25.8037 41.0561C25.7969 41.2682 25.8113 41.4805 25.8466 41.6901Z" fill="#263238"/>
<g opacity="0.3">
<path d="M15.2285 37.1514L18.6122 36.8723C18.6392 36.9387 18.6514 37.0095 18.6478 37.0804C18.6443 37.1513 18.6252 37.2208 18.5916 37.2846C18.5581 37.3485 18.5108 37.4053 18.4527 37.4516C18.3946 37.498 18.3269 37.5329 18.2538 37.5542C18.3449 37.7027 18.394 37.8701 18.3965 38.0409C18.3989 38.2116 18.3548 38.3802 18.268 38.5309C18.1813 38.6817 18.0548 38.8097 17.9003 38.9031C17.7457 38.9965 17.5682 39.0522 17.3842 39.0652C17.2934 39.0645 17.203 39.0751 17.1154 39.0967C16.9273 39.1586 16.8377 39.3489 16.7254 39.5019C16.5795 39.7071 16.3533 39.852 16.0943 39.9059C15.9654 39.9309 15.8316 39.9239 15.7066 39.8855C15.5816 39.8472 15.4698 39.7789 15.3825 39.6876C15.2172 39.5007 15.1894 39.2438 15.1768 39.0021C15.1429 38.3849 15.1602 37.7662 15.2285 37.1514Z" fill="black"/>
</g>
<g opacity="0.3">
<path d="M22.7383 41.4729C22.1809 41.3681 21.6822 41.083 21.3315 40.6687C20.9809 40.2544 20.8013 39.738 20.825 39.2123C21.5343 39.9222 22.1325 40.833 22.7383 41.4729Z" fill="black"/>
</g>
<path d="M14.4523 35.2212L17.3399 32.2483C17.2339 33.0026 17.5418 33.7534 17.9104 34.433C18.1211 34.8207 18.3559 35.2807 18.135 35.6626C18.3255 35.8404 18.4862 36.0435 18.6121 36.2651C18.6741 36.3766 18.7089 36.4993 18.7142 36.6246C18.7194 36.7498 18.6949 36.8746 18.6424 36.9902C18.5853 37.1037 18.4862 37.1944 18.363 37.2461C18.2399 37.2977 18.1008 37.3068 17.971 37.2716C18.0299 37.4243 18.0384 37.5897 17.9954 37.7469C17.9524 37.904 17.8599 38.0458 17.7297 38.1542C17.5994 38.2626 17.4372 38.3327 17.2638 38.3556C17.0903 38.3785 16.9134 38.3532 16.7556 38.2829C16.6861 38.5951 16.4935 38.8723 16.2154 39.0605C16.0759 39.1521 15.9116 39.2061 15.7409 39.2164C15.5703 39.2267 15.3998 39.1929 15.2486 39.1189C15.101 39.0387 14.9904 38.9112 14.9378 38.7605C14.8852 38.6098 14.8943 38.4464 14.9634 38.3015C14.3324 38.1719 13.931 37.5379 13.9121 36.9365C13.8932 36.3352 14.167 35.7665 14.4523 35.2212Z" fill="#263238"/>
<path d="M20.4217 30.3193C20.4361 30.3274 20.4519 30.3334 20.4684 30.3368C20.5166 30.348 20.5666 30.3512 20.616 30.3461C20.7074 30.3351 20.7946 30.3042 20.8705 30.2558C20.9465 30.2075 21.0089 30.1432 21.0527 30.0682C21.1162 29.9615 21.1376 29.8376 21.1133 29.7179C21.0854 29.5858 21.0165 29.4641 20.9151 29.3676C20.8037 29.2581 20.6596 29.1817 20.5012 29.1481C20.3328 29.1107 20.1572 29.1107 19.9888 29.1481C19.8917 29.1696 19.7974 29.2006 19.7073 29.2403L19.7515 29.2567C19.6367 29.0002 19.4205 28.7939 19.147 28.6798C18.9287 28.5884 18.6843 28.5647 18.4503 28.6121C18.2957 28.6424 18.1496 28.7021 18.0212 28.7873C17.9873 28.81 17.9553 28.835 17.9253 28.862C17.9051 28.8818 17.895 28.8924 17.8962 28.8935C17.8975 28.8947 17.9442 28.8597 18.0351 28.8059C18.1642 28.7295 18.3083 28.6772 18.4591 28.6518C18.6837 28.6125 18.9159 28.6395 19.123 28.7289C19.3803 28.8399 19.5834 29.0361 19.6922 29.2789L19.7048 29.3081L19.7363 29.294C19.8222 29.2569 19.9119 29.2275 20.0039 29.2065C20.1625 29.1727 20.3274 29.1727 20.486 29.2065C20.6327 29.2373 20.7665 29.3071 20.871 29.4073C20.9667 29.4972 21.0324 29.6107 21.0603 29.7343C21.0834 29.8413 21.0665 29.9525 21.0123 30.0495C20.9727 30.1206 20.9161 30.1824 20.8467 30.2301C20.7774 30.2779 20.6972 30.3104 20.6122 30.3251C20.5487 30.3313 20.4846 30.3294 20.4217 30.3193Z" fill="#455A64"/>
<path d="M14.3021 32.1887C14.3021 32.1887 14.2768 32.1338 14.2465 32.0311C14.2037 31.8858 14.1951 31.7337 14.2213 31.585C14.2575 31.3623 14.3772 31.1585 14.5595 31.0094C14.6716 30.9178 14.8028 30.8483 14.945 30.8054C15.0871 30.7624 15.2373 30.7468 15.3862 30.7595H15.4342L15.4203 30.7163C15.3926 30.6269 15.3761 30.5348 15.3711 30.4419C15.3548 30.1288 15.4665 29.8216 15.6841 29.5813C15.8657 29.3877 16.1093 29.2527 16.3795 29.196C16.5612 29.1567 16.7496 29.1515 16.9335 29.1808C17.0597 29.2018 17.1342 29.2275 17.1367 29.2216C17.1216 29.2121 17.105 29.2046 17.0875 29.1995C17.0394 29.1822 16.9901 29.1681 16.9398 29.1574C16.7054 29.1099 16.4615 29.1207 16.233 29.1885C16.0044 29.2564 15.7994 29.379 15.6386 29.5439C15.4068 29.7938 15.2875 30.1165 15.3054 30.4454C15.3104 30.5431 15.3282 30.64 15.3584 30.7338L15.3925 30.6953C15.235 30.6819 15.0762 30.6989 14.9261 30.7451C14.776 30.7913 14.6379 30.8658 14.5204 30.9638C14.3311 31.1231 14.2094 31.3397 14.1771 31.5745C14.1544 31.7288 14.1704 31.8858 14.2238 32.0334C14.2376 32.0738 14.2553 32.1129 14.2768 32.1502C14.2907 32.1771 14.2996 32.1899 14.3021 32.1887Z" fill="#455A64"/>
<path d="M18.8087 30.2188C18.839 30.2107 18.8668 30.1959 18.8895 30.1756C18.9554 30.1249 19.008 30.061 19.0435 29.9888C19.0978 29.8793 19.1158 29.7574 19.0952 29.6385C19.0676 29.4936 18.988 29.3615 18.8693 29.2637C18.7522 29.1655 18.6065 29.1014 18.4503 29.0792C18.2391 29.0528 18.0244 29.094 17.842 29.1959C17.7915 29.2251 17.7675 29.2462 17.77 29.2497C17.8724 29.2079 17.9779 29.1728 18.0856 29.1446C18.202 29.1206 18.3224 29.1174 18.4402 29.1352C18.5812 29.1601 18.7121 29.2203 18.8188 29.3092C18.9267 29.3986 19.0006 29.5177 19.0296 29.649C19.0499 29.757 19.0377 29.8681 18.9943 29.9701C18.9513 30.0638 18.8881 30.1484 18.8087 30.2188Z" fill="#455A64"/>
<path d="M17.0592 37.2845C17.0741 37.2791 17.0878 37.2712 17.0996 37.2611C17.1364 37.2374 17.1706 37.2104 17.2018 37.1805C17.3479 37.0418 17.4518 36.8698 17.503 36.682C17.5542 36.4942 17.5508 36.2972 17.4933 36.1109C17.3996 35.8373 17.1965 35.6072 16.9254 35.4676C16.815 35.4107 16.6952 35.3712 16.5708 35.3508L16.5897 35.401C16.6776 35.3082 16.7426 35.1989 16.7801 35.0805C16.8176 34.9621 16.8267 34.8375 16.8068 34.7156C16.7772 34.5209 16.6701 34.3435 16.5064 34.2181C16.4003 34.135 16.2745 34.0762 16.1391 34.0465C16.1031 34.0386 16.0663 34.0339 16.0293 34.0325C16.0041 34.0325 15.9902 34.0325 15.9902 34.0325C15.9902 34.0325 16.0419 34.0418 16.1328 34.0663C16.2612 34.1028 16.3793 34.165 16.4786 34.2485C16.629 34.3709 16.7259 34.5399 16.7512 34.7237C16.7666 34.8368 16.7558 34.9517 16.7195 35.0606C16.6831 35.1695 16.6221 35.2701 16.5405 35.3555L16.5014 35.3952L16.5581 35.4057C16.6756 35.428 16.7885 35.4674 16.8926 35.5224C17.1489 35.655 17.3421 35.8717 17.434 36.1296C17.5037 36.3418 17.4998 36.5689 17.4227 36.7789C17.3704 36.9212 17.289 37.0528 17.1829 37.1665C17.1059 37.2401 17.0592 37.2763 17.0592 37.2845Z" fill="#455A64"/>
<path d="M17.1049 30.7454L17.1945 30.3683C17.5018 30.9119 17.604 31.535 17.4848 32.1385C17.4293 32.4152 17.3296 32.7142 17.4596 32.9687C17.5479 33.1439 17.7297 33.263 17.8382 33.4358C17.9644 33.6471 17.8723 34.2041 17.9063 34.3127C17.9833 34.5626 18.2446 34.7226 18.3064 35.025C18.3683 35.3274 18.29 35.6906 17.9972 35.8354C17.4444 34.9935 16.8803 34.1189 16.7503 33.1415C16.6392 32.3253 16.8386 31.5126 17.1049 30.7454Z" fill="#263238"/>
<path d="M15.4326 32.7573C15.4326 32.7573 15.449 32.7573 15.4805 32.7573C15.5254 32.7553 15.5701 32.7506 15.6143 32.7433C15.7807 32.7203 15.9371 32.6553 16.0661 32.5553C16.1547 32.4836 16.2224 32.3924 16.263 32.2903C16.3133 32.1705 16.3111 32.0372 16.2567 31.9189C16.2262 31.8535 16.1794 31.7956 16.1202 31.7499C16.061 31.7043 15.991 31.6722 15.9159 31.6562C15.8331 31.6403 15.7469 31.6518 15.6724 31.6889C15.6319 31.7089 15.599 31.7399 15.578 31.7776C15.5571 31.8154 15.549 31.8582 15.555 31.9002C15.5582 31.9233 15.5665 31.9456 15.5793 31.9657C15.5921 31.9857 15.6092 32.0032 15.6294 32.017C15.667 32.0398 15.7107 32.0524 15.7557 32.0532C15.8378 32.0551 15.919 32.0374 15.9917 32.0018C16.1236 31.9399 16.2407 31.8541 16.3362 31.7496C16.4738 31.6037 16.5643 31.425 16.5973 31.2338C16.6304 31.0426 16.6046 30.8466 16.523 30.6683C16.5049 30.6304 16.4838 30.5937 16.4599 30.5586C16.4435 30.5341 16.4334 30.5224 16.4321 30.5235C16.4309 30.5247 16.4599 30.5773 16.499 30.6777C16.5528 30.8188 16.5747 30.9686 16.5634 31.1179C16.5481 31.2922 16.4849 31.46 16.3797 31.6053C16.2746 31.7506 16.131 31.8686 15.9626 31.9481C15.9003 31.9793 15.8303 31.995 15.7594 31.9937C15.7275 31.9953 15.696 31.9865 15.6704 31.9687C15.6448 31.951 15.6267 31.9255 15.6194 31.8967C15.6159 31.8666 15.6222 31.8362 15.6375 31.8094C15.6528 31.7825 15.6763 31.7605 15.7052 31.7461C15.766 31.7167 15.836 31.7076 15.9033 31.7204C15.9686 31.7344 16.0295 31.7623 16.0812 31.8018C16.1329 31.8413 16.174 31.8914 16.2012 31.9481C16.2508 32.0532 16.2548 32.1719 16.2125 32.2797C16.176 32.3752 16.1149 32.4609 16.0346 32.5296C15.9131 32.6276 15.7668 32.6955 15.6093 32.727C15.4969 32.748 15.4326 32.7527 15.4326 32.7573Z" fill="#455A64"/>
</svg>
