<svg width="100" height="75" viewBox="0 0 100 75" fill="none" xmlns="http://www.w3.org/2000/svg">
<path d="M92.5087 13.4993C98.132 26.2304 95.5584 40.0117 87.7344 51.5298C79.9103 63.0479 66.8895 70.51 53.2 73.2188C43.4277 75.158 32.9101 74.7619 23.9866 70.3573C15.0632 65.9527 8.03621 57.0856 7.49791 47.1705C7.29086 43.4261 8.09418 39.4505 10.6035 36.6489C14.6077 32.1824 21.4442 32.0256 27.4504 32.2113C33.4566 32.3969 40.2869 32.2546 44.3118 27.8087C47.405 24.3902 47.8605 19.4347 49.4878 15.1291C52.258 7.81347 58.9413 2.09879 66.6287 0.481346C74.136 -1.09896 82.3638 1.28181 87.869 6.59627C88.105 6.8232 88.3514 7.03982 88.5998 7.25438C89.2499 7.82379 91.4383 11.0793 92.5087 13.4993Z" fill="#FFE7EC"/>
<path d="M99.968 63.168C99.968 63.1987 77.7907 63.2251 50.4384 63.2251C23.0861 63.2251 0.904297 63.1921 0.904297 63.168C0.904297 63.1439 23.0773 63.1088 50.4384 63.1088C77.7995 63.1088 99.968 63.1285 99.968 63.168Z" fill="#263238"/>
<path d="M71.4159 12.6463H17.0878C16.6381 12.6466 16.2069 12.8254 15.889 13.1433C15.5711 13.4611 15.3926 13.892 15.3926 14.3414V52.6749C15.3926 53.1241 15.5712 53.5549 15.8891 53.8725C16.207 54.1902 16.6382 54.3686 17.0878 54.3686H37.9373L36.919 62.3496H52.0526L51.1993 54.3686H71.4159C71.8657 54.3686 72.297 54.1902 72.6151 53.8726C72.9333 53.555 73.1122 53.1243 73.1126 52.6749V14.3414C73.1126 13.8918 72.9338 13.4606 72.6156 13.1428C72.2975 12.8249 71.8659 12.6463 71.4159 12.6463Z" fill="#455A64"/>
<path d="M44.992 50.471C45.6912 51.4706 44.5959 52.5672 43.5963 51.8667C43.5624 51.8436 43.5332 51.8143 43.5101 51.7804C42.8109 50.7808 43.9062 49.6869 44.9058 50.3847C44.9394 50.4082 44.9686 50.4374 44.992 50.471Z" fill="#263238"/>
<path d="M18.3713 14.2496H70.1342C70.3148 14.2496 70.4936 14.2854 70.6605 14.3548C70.8273 14.4243 70.9789 14.5261 71.1066 14.6545C71.2343 14.7829 71.3357 14.9353 71.4048 15.103C71.4739 15.2707 71.5094 15.4505 71.5094 15.632V47.5989H16.9961V15.6363C16.9955 15.4544 17.0307 15.2742 17.0996 15.106C17.1684 14.9377 17.2696 14.7848 17.3974 14.656C17.5252 14.5272 17.6769 14.425 17.8441 14.3552C18.0112 14.2855 18.1904 14.2496 18.3713 14.2496Z" fill="white"/>
<path d="M56.7567 54.4967C56.7567 54.5854 52.2366 54.6536 46.6557 54.6536C41.0748 54.6536 36.5547 54.5854 36.5547 54.4967C36.5547 54.408 41.0748 54.3329 46.6557 54.3329C52.2366 54.3329 56.7567 54.408 56.7567 54.4967Z" fill="#263238"/>
<path d="M68.688 20.886H57.4213C57.2341 20.886 57.0487 20.8485 56.8758 20.7757C56.7029 20.703 56.5459 20.5963 56.4138 20.4619C56.2817 20.3274 56.1772 20.1679 56.1062 19.9924C56.0352 19.817 55.9991 19.629 56 19.4394C56 19.0576 56.1498 18.6915 56.4163 18.4216C56.6829 18.1517 57.0444 18 57.4213 18H68.688C69.065 18 69.4265 18.1517 69.693 18.4216C69.9596 18.6915 70.1093 19.0576 70.1093 19.4394C70.1103 19.629 70.0742 19.817 70.0032 19.9924C69.9322 20.1679 69.8276 20.3274 69.6955 20.4619C69.5635 20.5963 69.4065 20.703 69.2336 20.7757C69.0607 20.8485 68.8753 20.886 68.688 20.886Z" fill="#EC6980"/>
<path d="M69.509 23.1307H52.7658C52.6471 23.1307 52.5333 23.0799 52.4494 22.9896C52.3655 22.8992 52.3184 22.7767 52.3184 22.6489C52.3187 22.5214 52.366 22.3993 52.4499 22.3092C52.5338 22.2192 52.6474 22.1687 52.7658 22.1687H69.509C69.6272 22.1691 69.7404 22.2198 69.824 22.3098C69.9075 22.3997 69.9547 22.5217 69.955 22.6489C69.955 22.7764 69.9081 22.8987 69.8245 22.989C69.7409 23.0793 69.6274 23.1303 69.509 23.1307Z" fill="#E0E0E0"/>
<path d="M21.085 21.596C21.0891 21.6283 21.0891 21.6609 21.085 21.6931C21.085 21.7606 21.085 21.8523 21.085 21.9629C21.085 22.2138 21.085 22.5752 21.085 23.0419C21.085 23.9914 21.085 25.3698 21.1036 27.1043C21.1036 30.5867 21.1196 35.4961 21.1302 41.2336L21.0638 41.1661H31.0296L51.7529 41.185L58.0363 41.2093H59.7447H60.1884H60.3398C60.3398 41.2093 60.2867 41.2093 60.1884 41.2093H59.7447L58.0363 41.2228L51.7529 41.2444L31.0296 41.2659H21.0638H21V41.2012C21 35.4637 21.0186 30.5543 21.0239 27.0719C21.0239 25.3374 21.0372 23.959 21.0425 23.0095C21.0425 22.5402 21.0425 22.1787 21.0425 21.9305C21.0425 21.8118 21.0425 21.7201 21.0425 21.6608C21.0554 21.6384 21.0696 21.6168 21.085 21.596Z" fill="#263238"/>
<path d="M44.247 39.4778H46.0352V35.9014H44.247V39.4778Z" fill="#EC6980"/>
<path d="M51.9947 39.4778H54.3789V35.9014H51.9947V39.4778Z" fill="#EC6980"/>
<path d="M56.1666 39.4778H58.5508V37.0935H56.1666V39.4778Z" fill="#EC6980"/>
<path d="M48.4228 39.4778H50.2109V34.7093H48.4228V39.4778Z" fill="#EC6980"/>
<path d="M40.0771 39.4778H41.8652V33.5172H40.0771V39.4778Z" fill="#EC6980"/>
<path d="M35.9013 39.4778H37.6895V31.729H35.9013V39.4778Z" fill="#EC6980"/>
<path d="M31.7294 39.4778H33.5176V29.3448H31.7294V39.4778Z" fill="#EC6980"/>
<path d="M27.5556 39.4778H29.3438V26.9605H27.5556V39.4778Z" fill="#EC6980"/>
<path d="M23.3876 39.4778H25.1758L25.1758 23.3842H23.3876L23.3876 39.4778Z" fill="#EC6980"/>
<path d="M56.7032 35.9014H58.0141C58.3105 35.9014 58.5508 35.7779 58.5508 35.6255V35.5811C58.5508 35.4288 58.3105 35.3053 58.0141 35.3053H56.7032C56.4068 35.3053 56.1666 35.4288 56.1666 35.5811V35.6255C56.1666 35.7779 56.4068 35.9014 56.7032 35.9014Z" fill="#E0E0E0"/>
<path d="M52.9933 35.3054H53.9764C54.1987 35.3054 54.3789 35.0584 54.3789 34.7537V34.665C54.3789 34.3603 54.1987 34.1133 53.9764 34.1133H52.9933C52.7709 34.1133 52.5907 34.3603 52.5907 34.665V34.7537C52.5907 35.0584 52.7709 35.3054 52.9933 35.3054Z" fill="#E0E0E0"/>
<path d="M48.8253 33.5172H49.8084C50.0307 33.5172 50.2109 33.2702 50.2109 32.9656V32.8768C50.2109 32.5721 50.0307 32.3251 49.8084 32.3251H48.8253C48.603 32.3251 48.4228 32.5721 48.4228 32.8768V32.9656C48.4228 33.2702 48.603 33.5172 48.8253 33.5172Z" fill="#E0E0E0"/>
<path d="M44.6495 34.7093H45.6326C45.8549 34.7093 46.0352 34.5858 46.0352 34.4335V34.3891C46.0352 34.2368 45.8549 34.1133 45.6326 34.1133H44.6495C44.4272 34.1133 44.247 34.2368 44.247 34.3891V34.4335C44.247 34.5858 44.4272 34.7093 44.6495 34.7093Z" fill="#E0E0E0"/>
<path d="M40.4796 32.3251H41.4627C41.685 32.3251 41.8652 32.0781 41.8652 31.7735V31.6847C41.8652 31.38 41.685 31.133 41.4627 31.133H40.4796C40.2573 31.133 40.0771 31.38 40.0771 31.6847V31.7735C40.0771 32.0781 40.2573 32.3251 40.4796 32.3251Z" fill="#E0E0E0"/>
<path d="M36.3038 30.5369H37.2869C37.5092 30.5369 37.6895 30.2899 37.6895 29.9852V29.8965C37.6895 29.5918 37.5092 29.3448 37.2869 29.3448H36.3038C36.0815 29.3448 35.9013 29.5918 35.9013 29.8965V29.9852C35.9013 30.2899 36.0815 30.5369 36.3038 30.5369Z" fill="#E0E0E0"/>
<path d="M32.1319 28.7487H33.1151C33.3374 28.7487 33.5176 28.5018 33.5176 28.1971V28.1083C33.5176 27.8036 33.3374 27.5566 33.1151 27.5566H32.1319C31.9096 27.5566 31.7294 27.8036 31.7294 28.1083V28.1971C31.7294 28.5018 31.9096 28.7487 32.1319 28.7487Z" fill="#E0E0E0"/>
<path d="M27.9581 25.7684H28.9412C29.1635 25.7684 29.3438 25.5214 29.3438 25.2168V25.128C29.3438 24.8233 29.1635 24.5763 28.9412 24.5763H27.9581C27.7358 24.5763 27.5556 24.8233 27.5556 25.128V25.2168C27.5556 25.5214 27.7358 25.7684 27.9581 25.7684Z" fill="#E0E0E0"/>
<path d="M23.7901 22.1921H24.7733C24.9956 22.1921 25.1758 21.9451 25.1758 21.6404V21.5517C25.1758 21.247 24.9956 21 24.7733 21H23.7901C23.5678 21 23.3876 21.247 23.3876 21.5517V21.6404C23.3876 21.9451 23.5678 22.1921 23.7901 22.1921Z" fill="#E0E0E0"/>
<g opacity="0.3">
<path d="M30.19 34.1672L26.4467 37.4262H25.4824L29.9037 33.6345L30.2883 34.2869" fill="white"/>
</g>
<path d="M82.9813 23.081C83.2556 22.9059 83.3226 22.5014 83.1732 22.2116C83.0905 22.071 82.9765 21.9513 82.84 21.8619C82.7035 21.7726 82.5482 21.7159 82.3862 21.6964C82.153 21.6608 81.9147 21.6811 81.6908 21.7554C81.4669 21.8297 81.2638 21.9561 81.0982 22.124C80.9204 22.3069 80.7762 22.5452 80.5366 22.6289C80.3241 22.7023 80.091 22.6289 79.8681 22.665C79.7202 22.6916 79.5802 22.751 79.4583 22.8388C79.3364 22.9266 79.2357 23.0406 79.1636 23.1725C79.0188 23.4373 78.931 23.7295 78.906 24.0303C78.8738 24.3046 78.8519 24.6047 78.6625 24.8031C78.4732 25.0015 78.1847 25.0388 77.9554 25.1779C77.7441 25.317 77.5956 25.5333 77.5417 25.7805C77.4878 26.0277 77.5327 26.2862 77.6669 26.5007C77.7584 26.6295 77.8897 26.7583 77.9 26.9154C77.9103 27.0726 77.815 27.1937 77.7712 27.334C77.7482 27.4245 77.7448 27.5188 77.7612 27.6107C77.7777 27.7026 77.8135 27.7898 77.8665 27.8667C77.9194 27.9436 77.9882 28.0082 78.0682 28.0563C78.1482 28.1044 78.2375 28.1348 78.3302 28.1455C78.5222 28.1558 78.7257 28.0824 78.897 28.1674C79.0683 28.2524 79.1301 28.4572 79.2396 28.613C79.3512 28.7635 79.5111 28.8712 79.6925 28.9181C79.8739 28.9649 80.0659 28.9482 80.2365 28.8706C80.3769 28.8011 80.5083 28.6877 80.6654 28.6981C80.8225 28.7084 80.9436 28.841 81.0969 28.8719C81.2965 28.9106 81.4833 28.7625 81.6121 28.5963C81.7409 28.4301 81.8143 28.2357 81.9676 28.0991C82.1672 27.9214 82.448 27.8776 82.7005 27.79C82.9806 27.6936 83.2368 27.5381 83.4516 27.3341C83.6664 27.13 83.8349 26.8823 83.9457 26.6075C84.0565 26.3327 84.1069 26.0373 84.0936 25.7414C84.0803 25.4454 84.0036 25.1557 83.8687 24.892" fill="#263238"/>
<path d="M80.07 26.8227C80.0083 26.757 79.932 26.7067 79.8472 26.6759H79.864C79.8484 26.6715 79.8324 26.6685 79.8163 26.6669C79.7873 26.6587 79.757 26.6565 79.7272 26.6602C79.6973 26.664 79.6685 26.6737 79.6424 26.6888C79.5453 26.724 79.4649 26.7943 79.417 26.8858C79.3799 26.9668 79.3655 27.0563 79.3755 27.1449C79.3855 27.2334 79.4194 27.3175 79.4737 27.3881C79.5134 27.4524 79.5715 27.5031 79.6406 27.5336C79.7097 27.5641 79.7863 27.573 79.8605 27.559C79.9347 27.5451 80.003 27.509 80.0562 27.4555C80.1095 27.402 80.1453 27.3336 80.1589 27.2593C80.182 27.185 80.1859 27.106 80.1704 27.0296C80.1548 26.9533 80.1203 26.8822 80.07 26.8227Z" fill="#455A64"/>
<path d="M83.7161 29.2815L83.9917 24.2364C83.9969 24.1226 83.9594 24.011 83.8864 23.9235C83.8135 23.836 83.7104 23.779 83.5976 23.7636L81.1993 23.0849C80.4265 22.9805 79.8868 23.9182 79.816 24.6936C79.7374 25.554 79.6756 26.6076 79.7593 27.2542C79.928 28.5538 80.9919 28.7508 80.9919 28.7508C80.9919 28.7508 80.9997 29.078 80.9919 29.5481L81.4814 31.1465L83.7161 29.2815Z" fill="#FFBF9D"/>
<path d="M80.1506 25.858C80.1485 25.9013 80.1635 25.9437 80.1924 25.976C80.2214 26.0083 80.2619 26.0279 80.3052 26.0306C80.3262 26.0331 80.3476 26.0313 80.3679 26.0253C80.3882 26.0193 80.4072 26.0093 80.4235 25.9958C80.4399 25.9824 80.4534 25.9657 80.4631 25.9469C80.4729 25.9281 80.4787 25.9075 80.4803 25.8863C80.4821 25.8431 80.467 25.8009 80.4381 25.7687C80.4092 25.7364 80.3689 25.7167 80.3258 25.7137C80.3047 25.7112 80.2834 25.713 80.263 25.719C80.2427 25.725 80.2238 25.735 80.2074 25.7485C80.191 25.762 80.1776 25.7786 80.1678 25.7974C80.158 25.8163 80.1522 25.8369 80.1506 25.858Z" fill="#263238"/>
<path d="M80.0305 25.2487C80.0498 25.2706 80.1786 25.1818 80.3577 25.1869C80.5367 25.1921 80.6642 25.2848 80.6835 25.2642C80.7029 25.2436 80.6732 25.2153 80.6179 25.1715C80.5427 25.1169 80.453 25.086 80.3602 25.0826C80.2684 25.0803 80.1781 25.1074 80.1026 25.1599C80.0395 25.1998 80.0202 25.2384 80.0305 25.2487Z" fill="#263238"/>
<path d="M81.7795 25.8838C81.7774 25.9271 81.7924 25.9695 81.8214 26.0018C81.8503 26.0341 81.8908 26.0537 81.9341 26.0563C81.9552 26.0585 81.9765 26.0564 81.9967 26.0502C82.017 26.044 82.0358 26.0338 82.0522 26.0203C82.0685 26.0067 82.0819 25.9901 82.0917 25.9713C82.1015 25.9525 82.1075 25.9319 82.1092 25.9108C82.111 25.8677 82.0958 25.8256 82.0669 25.7936C82.038 25.7616 81.9977 25.7422 81.9547 25.7395C81.9336 25.737 81.9123 25.7388 81.8919 25.7448C81.8716 25.7507 81.8527 25.7608 81.8363 25.7742C81.8199 25.7877 81.8065 25.8044 81.7967 25.8232C81.7869 25.842 81.7811 25.8626 81.7795 25.8838Z" fill="#263238"/>
<path d="M81.7843 25.3312C81.8036 25.3543 81.9324 25.2642 82.1102 25.2693C82.2879 25.2745 82.418 25.3685 82.4373 25.3466C82.4566 25.3247 82.4283 25.2977 82.3716 25.2552C82.297 25.1996 82.207 25.1685 82.114 25.1663C82.0223 25.1642 81.9323 25.1907 81.8564 25.2423C81.7933 25.2835 81.7688 25.3221 81.7843 25.3312Z" fill="#263238"/>
<path d="M81.0958 26.6372C81.0025 26.6051 80.9056 26.5848 80.8073 26.5767C80.7622 26.5702 80.7197 26.5599 80.7119 26.529C80.7112 26.4837 80.7233 26.4391 80.7467 26.4002L80.891 26.0563C81.0249 25.7651 81.1352 25.4636 81.2207 25.1547C81.2001 25.147 81.0211 25.5411 80.8201 26.0254L80.681 26.3706C80.6502 26.4249 80.6401 26.4885 80.6527 26.5496C80.6586 26.5658 80.6682 26.5805 80.6807 26.5923C80.6932 26.6042 80.7083 26.6129 80.7248 26.6179C80.7498 26.626 80.7758 26.6303 80.8021 26.6308C80.8993 26.6457 80.998 26.6479 81.0958 26.6372Z" fill="#263238"/>
<path d="M80.9955 28.7508C81.5819 28.7729 82.1625 28.6282 82.6699 28.3335C82.6699 28.3335 82.2964 29.2957 81.0045 29.1385L80.9955 28.7508Z" fill="#FF9A6C"/>
<path d="M81.7252 24.5944C81.7407 24.6434 81.9197 24.6254 82.1284 24.6563C82.337 24.6872 82.5057 24.7503 82.5341 24.7065C82.547 24.6859 82.5186 24.6395 82.4516 24.5906C82.3622 24.5306 82.2603 24.4918 82.1536 24.4771C82.0469 24.4624 81.9383 24.4721 81.836 24.5056C81.7574 24.5339 81.7175 24.5713 81.7252 24.5944Z" fill="#263238"/>
<path d="M80.1108 24.6356C80.1417 24.6768 80.2654 24.6356 80.4135 24.6356C80.5616 24.6356 80.6852 24.6704 80.7162 24.6292C80.729 24.6086 80.7162 24.5674 80.6569 24.5274C80.5849 24.4791 80.5002 24.4533 80.4135 24.4533C80.3268 24.4533 80.242 24.4791 80.17 24.5274C80.1159 24.5738 80.0953 24.615 80.1108 24.6356Z" fill="#263238"/>
<path d="M78.9439 24.4205C78.9986 24.2229 79.119 24.0498 79.2852 23.9298C79.3842 23.879 79.4805 23.8231 79.5737 23.7624C79.7605 23.6117 79.803 23.3489 79.9189 23.139C79.995 23.0035 80.1022 22.888 80.2316 22.802C80.361 22.716 80.509 22.662 80.6634 22.6444C80.921 22.6186 81.1786 22.6959 81.4362 22.6328C81.6217 22.5864 81.7827 22.4653 81.9695 22.4306C82.3314 22.3597 82.6701 22.6238 82.9277 22.8839C82.9277 23.1415 82.7217 23.3193 82.5207 23.4867C82.4201 23.57 82.3025 23.6304 82.1762 23.6638C82.0499 23.6972 81.9178 23.7027 81.7891 23.6799C81.5895 23.6439 81.3718 23.5434 81.1992 23.649C81.0266 23.7546 81.0099 24.0354 80.8489 24.1732C80.6196 24.3729 80.2538 24.1861 79.9627 24.2724C79.7373 24.3394 79.5969 24.5545 79.4475 24.7361C79.2981 24.9177 79.0727 25.089 78.8486 25.022C78.8568 24.8185 78.8888 24.6166 78.9439 24.4205Z" fill="#263238"/>
<path d="M81.6796 23.3193C81.8419 23.2716 82.1768 23.166 82.2644 23.0244C82.3525 22.8719 82.4793 22.7455 82.6319 22.6577C82.7846 22.57 82.9577 22.5241 83.1338 22.5246C83.3111 22.5388 83.4792 22.6099 83.6129 22.7273C83.7466 22.8448 83.8387 23.0023 83.8757 23.1763C84.0887 23.1842 84.2956 23.2493 84.4748 23.3646C84.6541 23.48 84.799 23.6414 84.8945 23.8319C84.9191 23.8812 84.9406 23.932 84.9589 23.9839C85.0235 24.0981 85.0624 24.2251 85.0728 24.3559C85.0833 24.4867 85.065 24.6182 85.0194 24.7413C84.9627 24.8894 84.8661 25.053 84.9421 25.1921C85.0181 25.3312 85.2152 25.3376 85.3672 25.3891C85.4984 25.439 85.608 25.5334 85.6767 25.6558C85.7455 25.7782 85.769 25.9209 85.7433 26.0589C85.7081 26.1527 85.6919 26.2525 85.6956 26.3526C85.7324 26.4516 85.793 26.5401 85.8721 26.6102C85.9561 26.7101 86.0123 26.8303 86.0353 26.9589C86.0582 27.0874 86.047 27.2196 86.0028 27.3425C85.9586 27.4653 85.883 27.5743 85.7834 27.6588C85.6838 27.7432 85.5638 27.8 85.4354 27.8235C85.3174 27.8277 85.2012 27.854 85.0928 27.9008C84.9769 27.9716 84.9267 28.1107 84.8455 28.2189C84.7652 28.3217 84.6556 28.3976 84.5312 28.4367C84.4067 28.4758 84.2734 28.4762 84.1487 28.4379C84.0991 28.4203 84.052 28.3965 84.0083 28.367C83.9613 28.4294 83.8991 28.4787 83.8276 28.5102C83.7561 28.5418 83.6778 28.5546 83.6 28.5474L83.6477 25.8193C83.6327 25.8525 83.6098 25.8816 83.5811 25.904C83.5524 25.9265 83.5187 25.9416 83.4828 25.9481C83.0449 26.0473 82.9805 25.1444 83.0784 24.901C82.9134 24.7656 82.7659 24.6103 82.6392 24.4386C82.4987 24.1652 82.4292 23.861 82.4369 23.5537C82.2824 23.5615 81.6075 23.3386 81.6796 23.3193Z" fill="#263238"/>
<path d="M83.5288 26.0396C83.5417 25.7614 83.8818 25.7021 84.1213 25.8412C84.2501 25.9172 84.3545 26.0718 84.3429 26.3654C84.3107 27.1511 83.5288 26.9566 83.5288 26.9335C83.5288 26.9103 83.5121 26.3642 83.5288 26.0396Z" fill="#FFBF9D"/>
<path d="M83.7788 26.6463C83.7788 26.6463 83.7929 26.6566 83.8148 26.6681C83.8468 26.6826 83.883 26.6849 83.9166 26.6746C83.9686 26.6444 84.0116 26.601 84.0413 26.5487C84.0709 26.4964 84.0861 26.4372 84.0853 26.3771C84.0901 26.3099 84.0795 26.2425 84.0544 26.18C84.0482 26.1552 84.0361 26.1322 84.019 26.1131C84.002 26.094 83.9805 26.0794 83.9565 26.0705C83.941 26.0658 83.9244 26.0666 83.9094 26.0727C83.8944 26.0788 83.8819 26.0898 83.8741 26.104C83.8625 26.1259 83.8664 26.1414 83.8625 26.1426C83.8586 26.1439 83.8457 26.1298 83.8535 26.0976C83.859 26.078 83.8707 26.0608 83.887 26.0486C83.9093 26.0337 83.9364 26.0277 83.963 26.0319C83.995 26.0399 84.0244 26.0559 84.0485 26.0784C84.0726 26.101 84.0906 26.1293 84.1008 26.1607C84.1316 26.2302 84.1449 26.3063 84.1394 26.3822C84.1404 26.4523 84.1206 26.5212 84.0826 26.5801C84.0445 26.639 83.9899 26.6853 83.9256 26.7132C83.9036 26.7191 83.8805 26.7199 83.8582 26.7154C83.8359 26.7109 83.8148 26.7014 83.7968 26.6875C83.7801 26.6656 83.7762 26.6475 83.7788 26.6463Z" fill="#FF9A6C"/>
<path d="M82.7624 23.1068C82.8234 23.1375 82.8766 23.1815 82.9183 23.2356C83.0079 23.4017 83.0288 23.5965 82.9762 23.7778V23.7984H82.9956C83.1085 23.8289 83.2128 23.885 83.3006 23.9622C83.3884 24.0395 83.4572 24.1359 83.5017 24.2441C83.5259 24.3053 83.5395 24.3702 83.5417 24.436C83.5397 24.5057 83.5315 24.5751 83.5172 24.6434C83.5019 24.7168 83.492 24.7913 83.4876 24.8662C83.4821 24.9482 83.5039 25.0296 83.5494 25.098C83.6506 25.2274 83.7838 25.3282 83.9358 25.3904C84.0693 25.4502 84.1924 25.5311 84.3003 25.63C84.4779 25.8042 84.5824 26.0396 84.5927 26.2881C84.5987 26.4556 84.5633 26.6219 84.4897 26.7724C84.4368 26.8793 84.393 26.9309 84.3982 26.9347C84.4034 26.9386 84.4111 26.9231 84.4317 26.8987C84.4605 26.8621 84.4863 26.8234 84.509 26.7827C84.6138 26.5929 84.6537 26.3739 84.6225 26.1593C84.5913 25.9447 84.4909 25.7461 84.3364 25.5939C84.225 25.492 84.0975 25.4093 83.959 25.3492C83.8147 25.2908 83.6879 25.1963 83.5906 25.0748C83.5043 24.9551 83.543 24.8005 83.5661 24.6588C83.5802 24.587 83.5884 24.5142 83.5906 24.4411C83.5869 24.3695 83.5712 24.299 83.5442 24.2325C83.4964 24.1175 83.4224 24.0154 83.328 23.9342C83.2336 23.853 83.1215 23.795 83.0007 23.7649L83.0149 23.7907C83.0405 23.6958 83.0467 23.5967 83.0332 23.4993C83.0197 23.402 82.9867 23.3083 82.9363 23.224C82.9026 23.1804 82.8582 23.1463 82.8075 23.1248C82.7805 23.1106 82.7624 23.1042 82.7624 23.1068Z" fill="white"/>
<path d="M84.0742 26.9399C84.0128 26.8738 83.9363 26.8234 83.8513 26.7931H83.8681C83.8524 26.7892 83.8365 26.7867 83.8204 26.7853C83.7913 26.7769 83.7607 26.7745 83.7306 26.7783C83.7005 26.7821 83.6714 26.7919 83.6452 26.8072C83.5499 26.8408 83.4702 26.9082 83.4211 26.9966C83.3839 27.0778 83.3696 27.1677 83.3798 27.2565C83.3901 27.3452 83.4244 27.4295 83.4791 27.5002C83.5188 27.5644 83.5769 27.6151 83.646 27.6456C83.7151 27.6761 83.7917 27.685 83.8659 27.6711C83.9401 27.6571 84.0084 27.621 84.0616 27.5675C84.1149 27.514 84.1507 27.4456 84.1643 27.3714C84.1863 27.2976 84.1895 27.2196 84.1738 27.1442C84.1581 27.0689 84.1238 26.9987 84.0742 26.9399Z" fill="#455A64"/>
<path d="M81.8438 26.8265C81.634 26.8731 81.431 26.9462 81.2397 27.0442C81.2229 27.1357 81.3685 27.3405 81.4612 27.3765C81.5089 27.3944 81.5601 27.4009 81.6106 27.3953C81.6612 27.3897 81.7098 27.3722 81.7523 27.3443C81.8273 27.2822 81.8768 27.1946 81.8914 27.0983C81.8972 27.0052 81.8809 26.9121 81.8438 26.8265Z" fill="#FF9A6C"/>
<path d="M81.4864 27.3894C81.5556 27.3879 81.624 27.3744 81.6886 27.3495C81.7554 27.3203 81.8113 27.2707 81.8483 27.2078C81.8798 27.1508 81.8947 27.086 81.8913 27.0209C81.8879 26.9558 81.8663 26.8929 81.829 26.8395L81.8586 26.8485C81.6725 26.9202 81.4808 26.9767 81.2854 27.0172C81.4643 26.9294 81.6499 26.8562 81.8406 26.7982L81.8599 26.7918L81.8715 26.8073C81.9159 26.8684 81.9415 26.9413 81.9449 27.0169C81.9483 27.0924 81.9295 27.1673 81.8908 27.2323C81.8469 27.3023 81.7806 27.3554 81.7028 27.383C81.6693 27.3997 81.6326 27.4089 81.5953 27.4101C81.5579 27.4112 81.5207 27.4041 81.4864 27.3894Z" fill="#263238"/>
<path d="M82.0804 61.8154V61.9442C82.0804 61.9442 79.9307 62.8304 79.9114 63.2399L84.1953 63.1768L84.1155 61.7523C83.8007 61.9083 83.456 61.9946 83.1048 62.0055C82.7536 62.0164 82.4043 61.9516 82.0804 61.8154Z" fill="#263238"/>
<path d="M84.1953 63.1756L84.176 62.833L80.0775 63.0197C80.0775 63.0197 79.8882 63.1047 79.9114 63.2387L84.1953 63.1756Z" fill="#455A64"/>
<path d="M82.0669 61.9545C82.0669 61.9751 82.1725 61.9829 82.2768 62.0498C82.3812 62.1168 82.4365 62.2018 82.4559 62.1928C82.4752 62.1838 82.4417 62.064 82.3142 61.9867C82.1867 61.9094 82.0617 61.9352 82.0669 61.9545Z" fill="white"/>
<path d="M81.6194 62.1464C81.6194 62.167 81.707 62.2018 81.7791 62.2894C81.8513 62.377 81.8732 62.4697 81.8938 62.4684C81.9144 62.4672 81.926 62.3487 81.8345 62.2418C81.7431 62.1349 81.6207 62.1271 81.6194 62.1464Z" fill="white"/>
<path d="M81.3718 62.6887C81.3911 62.6887 81.4195 62.5883 81.3641 62.4736C81.3087 62.359 81.2095 62.3165 81.2018 62.3332C81.1941 62.35 81.2546 62.4118 81.2984 62.5058C81.3422 62.5998 81.3512 62.6861 81.3718 62.6887Z" fill="white"/>
<path d="M85.1423 60.5235L83.3185 61.0387L83.7744 62.0691L83.3017 64.6864C83.288 64.7583 83.3014 64.8328 83.3391 64.8955C83.3769 64.9583 83.4365 65.0049 83.5065 65.0264C83.561 65.0419 83.6188 65.0418 83.6732 65.0261C83.7276 65.0103 83.7765 64.9797 83.8144 64.9376C84.2162 64.4867 85.6897 62.8188 85.6536 62.6191L85.5957 62.0743C85.5624 61.9375 85.522 61.8025 85.4746 61.6699L85.1423 60.5235Z" fill="#263238"/>
<path d="M83.563 65.0342L85.6342 62.4247L85.6445 62.5432C85.6522 62.5921 85.6486 62.6421 85.6341 62.6894C85.6196 62.7367 85.5945 62.7801 85.5608 62.8162C85.3972 63.0738 84.9335 63.6753 83.8206 64.9363C83.7887 64.972 83.7486 64.9995 83.7037 65.0166C83.6589 65.0336 83.6107 65.0396 83.563 65.0342Z" fill="#455A64"/>
<path d="M84.1089 63.7474C84.0294 63.6645 83.9345 63.598 83.8294 63.5517C83.7198 63.5206 83.6054 63.5101 83.4919 63.5208C83.4919 63.513 83.5241 63.4886 83.5898 63.4731C83.676 63.4562 83.7651 63.4633 83.8474 63.4937C83.9308 63.524 84.0037 63.5776 84.0574 63.6483C84.1076 63.7049 84.1166 63.7436 84.1089 63.7474Z" fill="white"/>
<path d="M83.939 64.1416C83.8519 64.1046 83.7629 64.0724 83.6724 64.045C83.5774 64.0356 83.4819 64.0321 83.3865 64.0347C83.4289 64.004 83.4777 63.9834 83.5293 63.9745C83.5808 63.9656 83.6337 63.9685 83.684 63.9831C83.8592 64.0166 83.9583 64.1325 83.939 64.1416Z" fill="white"/>
<path d="M84.4473 63.2297C84.3181 63.161 84.1843 63.1016 84.0467 63.0519C83.9026 63.0227 83.7568 63.0033 83.6101 62.994C83.7572 62.942 83.9176 62.942 84.0647 62.994C84.2159 63.0253 84.3513 63.1088 84.4473 63.2297Z" fill="white"/>
<path d="M83.6831 62.623C83.6393 62.8729 83.5968 63.097 83.5633 63.2593C83.5503 63.3472 83.5283 63.4335 83.4976 63.5169C83.4983 63.427 83.5074 63.3373 83.5246 63.249C83.5491 63.0854 83.5852 62.8626 83.629 62.605C83.6663 62.3951 83.7024 62.2019 83.732 62.0512C83.7293 61.9336 83.7362 61.816 83.7526 61.6995C83.7708 61.8158 83.7781 61.9335 83.7745 62.0512" fill="#455A64"/>
<path d="M85.8049 44.8858C85.946 44.2491 85.9748 43.5926 85.8899 42.946C85.6542 41.3785 85.5035 40.7976 84.6997 39.0987L84.5001 39.1464L78.4941 39.0987L78.2597 39.4594C77.7445 40.8504 77.3916 41.6799 77.246 42.6974C77.0786 43.8682 77.3748 45.5645 78.0188 47.2776C79.424 50.9768 80.2084 53.9341 80.2625 54.7301C80.3166 55.526 80.4017 56.3504 81.1397 58.8723C81.6794 60.7142 82.0774 61.8154 82.0774 61.8154C82.6376 62.131 83.2366 62.216 83.7724 61.9094L85.421 61.2732C85.421 61.2732 84.9161 56.9287 84.3262 55.7772C83.9012 54.9477 83.2057 54.5536 83.5302 53.4729C83.8548 52.3923 85.3631 47.0136 85.8049 44.8858Z" fill="#263238"/>
<path d="M79.6957 41.3579L79.7175 41.3862L79.7807 41.4738L80.0215 41.8152L80.9231 43.1122C80.8793 43.5978 80.8626 44.1606 80.8317 44.7866C80.8008 45.4126 80.7699 46.1042 80.7338 46.8474C80.6977 47.5906 80.6539 48.3827 80.605 49.2135C80.556 50.0443 80.5135 50.9124 80.4298 51.8063C80.3435 52.5495 80.2675 53.2798 80.3306 53.9817C80.3456 54.1545 80.3693 54.3265 80.4015 54.4969C80.432 54.6652 80.4751 54.831 80.5303 54.9928C80.6488 55.3084 80.7879 55.6136 80.9167 55.9099C81.4409 57.1103 81.9316 58.1665 82.3412 59.0681C82.7508 59.9697 83.0844 60.6742 83.3137 61.174C83.427 61.4226 83.5159 61.6158 83.5713 61.7497C83.5996 61.8129 83.6228 61.8631 83.6383 61.8991C83.6537 61.9352 83.6602 61.9507 83.6602 61.9507C83.6502 61.9349 83.6412 61.9185 83.6331 61.9017C83.6164 61.8657 83.5919 61.8167 83.561 61.7536L83.2879 61.1843C83.0535 60.6845 82.7148 59.9671 82.2974 59.0797C81.8801 58.1922 81.3958 57.1296 80.8613 55.9434C80.7325 55.6458 80.5947 55.3432 80.4749 55.0224C80.4188 54.8586 80.3758 54.6907 80.3461 54.5201C80.3126 54.3488 80.2907 54.1749 80.274 53.9972C80.2096 53.2888 80.2868 52.5546 80.3731 51.8076C80.4556 50.9175 80.5019 50.0481 80.5496 49.2174C80.5973 48.3866 80.6372 47.5945 80.6784 46.8526C80.7196 46.1107 80.7518 45.4203 80.784 44.7918C80.8162 44.1632 80.8368 43.6003 80.8832 43.1173V43.1276L79.9945 41.8229L79.7601 41.4764C79.7356 41.4378 79.7163 41.4081 79.7008 41.3862C79.6983 41.377 79.6966 41.3675 79.6957 41.3579Z" fill="#455A64"/>
<path d="M71.6836 33.9351C71.6836 33.9351 70.782 33.5423 70.5244 33.3748C70.3171 33.2343 70.0789 33.1459 69.8301 33.1172C69.5365 33.0644 68.7585 32.9807 68.5692 33.1172C68.3798 33.2538 67.5298 33.6015 67.5298 33.6015L68.6529 34.2095C68.6529 34.2095 68.8371 34.972 69.0599 35.0402C69.2827 35.1085 69.2441 35.0866 69.4837 35.0402C69.7232 34.9939 70.5064 34.6178 70.5295 34.6332C70.5527 34.6487 71.3577 35.084 71.3577 35.084L71.6836 33.9351Z" fill="#FFBF9D"/>
<path d="M68.2637 33.8295H65.591L65.4622 33.7419C65.4575 33.7386 65.4536 33.7341 65.4509 33.729C65.4482 33.7238 65.4467 33.7181 65.4467 33.7123C65.4467 33.7064 65.4482 33.7007 65.4509 33.6955C65.4536 33.6904 65.4575 33.686 65.4622 33.6826L65.591 33.6028H68.2637V33.8295Z" fill="#263238"/>
<path d="M66.9231 33.6723C66.9231 33.6723 67.0519 33.5191 67.2992 33.6723C67.443 33.7569 67.5823 33.8489 67.7165 33.948C67.7735 33.9341 67.8298 33.9173 67.8852 33.8977L68.2446 34.0613L68.2832 34.2726C68.2832 34.2726 67.8311 34.4245 67.6881 34.3485C67.4295 34.1857 67.1863 33.9994 66.9617 33.7921C66.8973 33.711 66.9231 33.6723 66.9231 33.6723Z" fill="#FFBF9D"/>
<path d="M69.1881 34.5482L69.0232 34.4426L69.0825 34.2095C69.0825 34.2095 69.429 34.1631 69.4689 33.9737C69.5088 33.7844 69.4689 33.7883 69.4689 33.7883L69.022 33.8643L69.228 33.6904C69.228 33.6904 69.6041 33.644 69.5745 33.4251L69.5024 33.3207C69.3375 33.3513 69.1752 33.3944 69.0168 33.4495C68.8282 33.5544 68.6451 33.6688 68.4681 33.7921L68.8056 33.4714C68.8969 33.4387 68.9809 33.3884 69.0529 33.3233C69.0666 33.3095 69.077 33.2927 69.0834 33.2743C69.0897 33.2559 69.0918 33.2362 69.0894 33.2169C69.087 33.1976 69.0803 33.179 69.0698 33.1626C69.0592 33.1462 69.045 33.1325 69.0284 33.1224C69.004 33.1064 68.975 33.0991 68.946 33.1018C68.8229 33.1086 68.7016 33.1347 68.5866 33.179C68.4423 33.2473 68.0121 33.5654 67.949 33.729C67.8859 33.8926 67.8937 33.9519 67.9954 34.0549C68.1034 34.1479 68.2209 34.2295 68.3457 34.2983C68.3958 34.3923 68.4684 34.4724 68.557 34.5315C68.557 34.5315 68.6291 34.8496 69.0632 35.0338" fill="#FFBF9D"/>
<path d="M69.0602 35.0389C69.0602 35.0389 69.0435 35.0389 69.0138 35.0222C68.9689 35.0039 68.9258 34.9814 68.885 34.9552C68.8176 34.9154 68.756 34.8664 68.7021 34.8096C68.6275 34.7333 68.5715 34.6407 68.5386 34.5391L68.5463 34.5507C68.4527 34.4927 68.3766 34.4103 68.326 34.3125L68.3338 34.3202C68.2604 34.279 68.1869 34.2339 68.1109 34.1824C68.0271 34.1314 67.9561 34.0618 67.9036 33.9789C67.8801 33.9283 67.8768 33.8707 67.8946 33.8179C67.9061 33.765 67.9265 33.7144 67.9551 33.6685C68.0213 33.581 68.0979 33.5018 68.1831 33.4327C68.271 33.3593 68.363 33.2909 68.4587 33.228C68.5085 33.1936 68.5621 33.165 68.6184 33.1429C68.6765 33.1222 68.7365 33.1071 68.7975 33.0979L68.8889 33.085C68.9222 33.0804 68.956 33.0804 68.9894 33.085C69.017 33.0912 69.0425 33.1047 69.0632 33.1242C69.0839 33.1436 69.0989 33.1682 69.1068 33.1955C69.1147 33.2227 69.1151 33.2516 69.1081 33.279C69.101 33.3065 69.0867 33.3316 69.0667 33.3516C69.0429 33.3746 69.0171 33.3953 68.9894 33.4134C68.9341 33.4504 68.8744 33.4803 68.8116 33.5023H68.8219L68.6841 33.6311L68.4845 33.8217L68.4497 33.7792C68.6184 33.6659 68.782 33.5551 68.9533 33.4611C69.0399 33.4189 69.1311 33.3869 69.2251 33.3658C69.3165 33.3439 69.4067 33.3233 69.4943 33.3065H69.511L69.52 33.3194L69.5922 33.4224C69.5983 33.4701 69.5864 33.5184 69.5587 33.5577C69.5315 33.5932 69.4967 33.6222 69.4569 33.6427C69.384 33.6802 69.3051 33.7046 69.2238 33.7148H69.2367L69.028 33.8861L69.0113 33.8488L69.3462 33.7934L69.4234 33.7805H69.4428H69.4711C69.5007 33.8011 69.493 33.8166 69.4968 33.8307C69.4974 33.8815 69.4918 33.9321 69.4801 33.9814C69.4716 34.0317 69.4456 34.0773 69.4067 34.1102C69.3727 34.1382 69.335 34.1611 69.2946 34.1785C69.2257 34.2072 69.1534 34.2271 69.0795 34.2378L69.0898 34.2287C69.0654 34.3189 69.0435 34.3936 69.0267 34.4554V34.4464L69.1555 34.5288C69.1696 34.537 69.1826 34.547 69.1942 34.5585C69.1791 34.553 69.1649 34.5456 69.1517 34.5366L69.0229 34.4606C69.037 34.3975 69.0563 34.3215 69.0782 34.2313V34.2094H69.0873C69.1582 34.1971 69.2274 34.1764 69.2933 34.1476C69.3325 34.1341 69.3678 34.1113 69.3962 34.0813C69.4247 34.0513 69.4455 34.0148 69.4569 33.975C69.4669 33.9293 69.4713 33.8826 69.4698 33.8359C69.4706 33.8308 69.4706 33.8256 69.4698 33.8204C69.4698 33.8204 69.4698 33.8204 69.4698 33.8076C69.4698 33.7947 69.4698 33.8256 69.4698 33.8217H69.4556H69.4376L69.359 33.8359L69.0254 33.8939L68.9469 33.908L69.0087 33.8565L69.2148 33.6813H69.2212C69.2963 33.6712 69.3691 33.6481 69.4363 33.6131C69.4705 33.5999 69.4995 33.5762 69.5192 33.5454C69.5389 33.5146 69.5482 33.4783 69.5458 33.4418V33.4534C69.5226 33.4186 69.4981 33.3851 69.4737 33.3503L69.4994 33.3606C69.4118 33.3774 69.323 33.3967 69.2328 33.4199C69.1437 33.4404 69.0573 33.4711 68.9752 33.5113C68.809 33.6041 68.6442 33.7161 68.478 33.8282L68.4445 33.787L68.6442 33.5963L68.782 33.4675H68.7884C68.8461 33.4458 68.9013 33.4181 68.9533 33.3851C68.9779 33.3679 69.0011 33.349 69.0229 33.3284C69.0405 33.3109 69.0511 33.2875 69.0525 33.2627C69.0541 33.2375 69.0466 33.2125 69.0315 33.1923C69.0165 33.172 68.9947 33.1577 68.9701 33.152C68.9427 33.1489 68.915 33.1489 68.8876 33.152L68.7987 33.1648C68.7415 33.1733 68.685 33.1866 68.63 33.2048C68.5772 33.2262 68.5267 33.253 68.4793 33.2846C68.3856 33.3463 68.2953 33.4129 68.2088 33.4843C68.1268 33.545 68.0524 33.6155 67.9873 33.6942C67.9619 33.7338 67.9431 33.7773 67.9319 33.823C67.9161 33.8645 67.9161 33.9103 67.9319 33.9518C67.981 34.0284 68.0466 34.0931 68.1238 34.1412C68.1972 34.1927 68.2707 34.239 68.3415 34.2803C68.3873 34.3726 68.4572 34.4509 68.5437 34.5069V34.5147C68.5741 34.6107 68.6256 34.6988 68.6944 34.7723C68.7458 34.8289 68.8042 34.8787 68.8683 34.9204C68.9984 35.0106 69.0628 35.035 69.0602 35.0389Z" fill="#FF9A6C"/>
<path d="M69.3356 34.5611C69.3536 34.498 69.3828 34.4386 69.4219 34.3859C69.5943 34.1179 69.8409 33.9058 70.1316 33.7754C70.1895 33.7439 70.2529 33.7237 70.3184 33.7161C69.9189 33.9014 69.5787 34.1939 69.3356 34.5611Z" fill="#FF9A6C"/>
<path d="M69.0508 33.8514C69.0508 33.8604 69.0005 33.8681 68.922 33.9016C68.8272 33.9469 68.7499 34.022 68.7017 34.1154C68.6546 34.2121 68.6179 34.3136 68.5922 34.4181C68.5691 34.4992 68.5536 34.5469 68.5459 34.5469C68.5382 34.5469 68.5459 34.4928 68.5549 34.4091C68.5695 34.2973 68.603 34.1888 68.6541 34.0884C68.7084 33.9837 68.8005 33.9036 68.9117 33.8642C68.9557 33.846 69.0042 33.8415 69.0508 33.8514Z" fill="#FF9A6C"/>
<path d="M68.4805 33.7844C68.4311 33.8574 68.3916 33.9367 68.3633 34.0201C68.3233 34.1605 68.3336 34.2777 68.3182 34.2842C68.2795 34.1955 68.2767 34.0953 68.3105 34.0047C68.3275 33.9385 68.3612 33.8778 68.4083 33.8282C68.4457 33.7909 68.4766 33.7793 68.4805 33.7844Z" fill="#FF9A6C"/>
<path d="M80.9624 28.9917L80.464 29.6499L78.8784 29.9912C78.8784 29.9912 77.7102 32.4745 77.7643 33.6169C77.7809 34.1903 77.8403 34.7616 77.942 35.3261L77.9317 36.6335C77.9317 36.6335 77.4397 37.7205 77.6587 38.192C77.8776 38.6634 78.4933 39.0936 78.4933 39.0936L84.252 39.1657C84.252 39.1657 84.6616 39.4014 84.8767 38.7857C84.9694 38.5281 84.6114 37.7308 84.7479 36.7056C84.9385 35.3287 85.6212 33.6736 85.6212 33.6736L85.8672 30.6725L84.0511 29.7915L83.7188 28.9144L81.5459 29.4695L80.9624 28.9917Z" fill="#EC6980"/>
<path d="M71.2842 33.6105C71.346 33.617 72.2463 33.9338 72.2463 33.9338C72.4738 33.8626 72.7161 33.8533 72.9483 33.9068C73.2819 34.0047 74.9808 34.3859 74.9808 34.3859L77.1704 31.56C77.1704 31.56 78.0476 30.0827 78.8848 29.9912L78.2189 34.1541C78.2189 34.1541 76.4427 36.5008 75.5875 36.7945C74.7322 37.0882 71.7234 35.9766 71.6436 35.5593L70.6389 34.9307L71.2842 33.6105Z" fill="#EC6980"/>
<path d="M78.6465 30.8606C78.6433 30.8764 78.6376 30.8916 78.6297 30.9057L78.5705 31.0345C78.5434 31.0886 78.5112 31.1543 78.4778 31.2341C78.4443 31.314 78.403 31.4003 78.3657 31.5008C78.2716 31.7344 78.1904 31.9731 78.1223 32.2156C78.0407 32.512 77.9774 32.8131 77.9329 33.1172C77.8922 33.4226 77.8699 33.7301 77.8659 34.0382C77.8646 34.2902 77.8767 34.5422 77.902 34.7929C77.911 34.8998 77.9265 34.9964 77.9368 35.0802C77.9471 35.1639 77.96 35.2386 77.9703 35.2978L77.9935 35.4344C77.9952 35.4506 77.9952 35.467 77.9935 35.4833C77.9935 35.4833 77.9857 35.4678 77.978 35.4369L77.9458 35.3081C77.9316 35.2489 77.9162 35.1793 77.9033 35.0917C77.8904 35.0042 77.8711 34.9114 77.8608 34.8032C77.8293 34.5516 77.813 34.2982 77.8119 34.0446C77.8131 33.734 77.8342 33.4238 77.875 33.1159C77.9201 32.8084 77.9855 32.5042 78.0707 32.2053C78.1421 31.9621 78.2282 31.7233 78.3283 31.4905C78.3683 31.39 78.4134 31.3024 78.4494 31.2251C78.4855 31.1479 78.5203 31.0809 78.5499 31.0294L78.6181 30.9006C78.6258 30.8861 78.6354 30.8727 78.6465 30.8606Z" fill="#263238"/>
<path d="M84.0566 29.7967C84.0434 29.8061 84.0292 29.8139 84.0141 29.8199L83.8853 29.8753C83.7759 29.9217 83.6161 29.9861 83.4152 30.0595C82.8863 30.2481 82.3465 30.4047 81.7988 30.5283L81.773 30.5348V30.5077C81.7614 30.4575 81.7472 30.4047 81.7331 30.3506C81.6545 30.0685 81.5618 29.8019 81.5038 29.5456L81.5476 29.5559C81.3209 29.8328 81.1161 30.0788 80.9319 30.2694L80.9178 30.2836L80.9049 30.2694C80.8352 30.1886 80.7719 30.1024 80.7155 30.0118L80.5867 29.8122C80.5146 29.704 80.4657 29.6512 80.4682 29.6486C80.4833 29.6581 80.4967 29.6698 80.5082 29.6834C80.5423 29.7205 80.5741 29.7596 80.6035 29.8006C80.6434 29.8521 80.6898 29.9178 80.7426 29.9938C80.8007 30.0802 80.8649 30.1624 80.9345 30.2398H80.9074C81.0839 30.0479 81.2861 29.798 81.5102 29.5211L81.5437 29.4799L81.5553 29.5314C81.6146 29.789 81.7086 30.0466 81.7872 30.3338C81.8026 30.3879 81.8168 30.442 81.8284 30.4936L81.7962 30.4729C82.342 30.3503 82.8812 30.1994 83.4113 30.0209C83.6136 29.9526 83.7746 29.8921 83.8866 29.8534C83.9418 29.8302 83.9986 29.8113 84.0566 29.7967Z" fill="#263238"/>
<path d="M80.8668 39.3989C80.8668 39.3989 80.8577 39.3989 80.8436 39.3873C80.8294 39.3757 80.8049 39.3667 80.7766 39.3473C80.6965 39.2892 80.6279 39.2167 80.5744 39.1335C80.4919 39 80.4347 38.8524 80.4057 38.6982C80.367 38.4953 80.3485 38.289 80.3503 38.0825C80.3503 37.1706 80.3361 35.9096 80.434 34.5186C80.4842 33.8243 80.5628 33.1636 80.6658 32.5685C80.7554 32.041 80.8762 31.5193 81.0278 31.0062C81.1636 30.5325 81.3359 30.07 81.543 29.6228C81.543 29.6228 81.543 29.6318 81.543 29.6486C81.543 29.6653 81.5262 29.6911 81.5159 29.7207L81.409 29.9938C81.3601 30.111 81.3124 30.2604 81.2532 30.4304C81.1939 30.6004 81.1347 30.7988 81.069 31.0165C80.9232 31.5299 80.8063 32.0511 80.7186 32.5775C80.6195 33.1713 80.5422 33.8295 80.4919 34.5224C80.3941 35.9096 80.4005 37.1719 80.3915 38.0825C80.3884 38.2867 80.4047 38.4907 80.4404 38.6917C80.4656 38.8435 80.5184 38.9893 80.5963 39.1219C80.6651 39.2329 80.7574 39.3275 80.8668 39.3989Z" fill="#263238"/>
<path d="M82.4941 37.4372C82.444 37.4375 82.3939 37.4327 82.3447 37.423C82.2481 37.4101 82.1103 37.3882 81.9416 37.3548C81.0577 37.179 80.203 36.8794 79.4029 36.4647C79.2496 36.3849 79.1286 36.3166 79.0461 36.2664C79.0008 36.2434 78.9577 36.2162 78.9173 36.1852C78.9649 36.2014 79.0107 36.2226 79.0539 36.2484C79.1389 36.2921 79.2625 36.3553 79.4171 36.43C79.8198 36.6254 80.2335 36.7975 80.6561 36.9452C81.0782 37.0925 81.5082 37.216 81.9442 37.3148C82.1116 37.3522 82.2481 37.3805 82.3422 37.3998C82.3939 37.4076 82.4447 37.4201 82.4941 37.4372Z" fill="#263238"/>
<g opacity="0.3">
<path d="M78.1348 32.0726C77.8091 32.4104 77.6055 32.8473 77.5563 33.3139C77.5071 33.7806 77.615 34.2503 77.863 34.6486V34.6319C77.7518 33.7693 77.8449 32.8926 78.1348 32.0726Z" fill="black"/>
</g>
<path d="M82.8168 36.6271C82.8168 36.6271 83.6913 36.6271 83.7609 36.7005C83.8305 36.7739 84.3444 37.2569 84.3444 37.2569C84.4027 37.39 84.4698 37.5191 84.5453 37.6433C84.5453 37.6433 84.6999 37.9009 84.8415 37.9447C84.9171 37.9717 84.997 37.9848 85.0772 37.9834L85.2949 39.1039C85.2949 39.1039 84.9536 39.3615 84.7797 39.3087C84.6058 39.2559 83.7351 38.5733 83.7351 38.5733L83.5123 38.4573C83.5123 38.4573 82.5862 38.3414 82.5875 38.0529L82.6004 37.9743L83.5226 38.0439L83.8498 38.1547L83.3011 37.8404C83.3011 37.8404 82.4561 37.651 82.3814 37.6163C82.3067 37.5815 82.2372 37.4424 82.281 37.3806L82.4652 37.3883C82.4652 37.3883 82.2926 37.2221 82.3196 37.0998H83.1478C83.1478 37.0998 82.6996 36.7855 82.8168 36.6271Z" fill="#FFBF9D"/>
<path d="M82.3712 37.3599C82.3965 37.3629 82.422 37.3629 82.4472 37.3599H82.652C82.8259 37.3599 83.0655 37.3702 83.3295 37.3831C83.363 37.3831 83.3965 37.3831 83.4248 37.3908C83.4546 37.396 83.4833 37.406 83.5098 37.4205C83.5601 37.4514 83.6116 37.4861 83.6592 37.5171C83.7533 37.5815 83.837 37.6459 83.904 37.6974C83.9572 37.7377 84.0083 37.7807 84.0572 37.8262C84.092 37.8597 84.1088 37.8803 84.1113 37.8777C84.1003 37.8548 84.0855 37.8339 84.0675 37.8159C84.0225 37.7635 83.9734 37.7149 83.9207 37.6703C83.8432 37.6036 83.7624 37.5409 83.6786 37.4823C83.6309 37.4488 83.5832 37.4153 83.5266 37.3818C83.4974 37.3649 83.4656 37.3532 83.4325 37.347C83.3992 37.3426 83.3657 37.3401 83.3321 37.3393C83.0667 37.3264 82.8259 37.3213 82.652 37.3264C82.5657 37.3264 82.4949 37.3329 82.4459 37.338C82.4201 37.3417 82.3949 37.3491 82.3712 37.3599Z" fill="#FF9A6C"/>
<path d="M83.1164 37.1358C83.1164 37.1358 83.1859 37.1242 83.298 37.1203C83.4427 37.1153 83.5867 37.143 83.7192 37.2015C83.8516 37.2599 83.9692 37.3475 84.0631 37.4578C84.1352 37.5415 84.1687 37.6033 84.1738 37.6008C84.155 37.5419 84.1243 37.4876 84.0837 37.4411C83.9917 37.3223 83.8716 37.2285 83.7341 37.168C83.5967 37.1074 83.4463 37.0822 83.2967 37.0946C83.2344 37.0961 83.1731 37.1101 83.1164 37.1358Z" fill="#FF9A6C"/>
<path d="M88.8011 37.396C88.936 37.1989 89.0268 36.975 89.0675 36.7397C89.1082 36.5043 89.0977 36.2629 89.0368 36.032C88.8835 35.3712 87.1048 32.2504 86.2972 31.077C86.0074 30.6558 85.4419 30.4691 85.4419 30.4691C85.4419 30.4691 84.3085 31.3526 84.2029 32.6123L85.1573 33.881L86.6037 36.3991L88.8011 37.396Z" fill="#EC6980"/>
<path d="M85.3573 37.7837L86.738 36.0449C86.738 36.0449 88.7628 37.3548 88.7988 37.396C88.7988 37.396 87.118 38.827 85.2929 39.252L85.0443 37.9717L85.3573 37.7837Z" fill="#EC6980"/>
<path d="M84.9233 33.295C84.9301 33.1661 84.9267 33.0369 84.913 32.9086C84.8908 32.6069 84.9098 32.3035 84.9697 32.007C85.0342 31.7119 85.1853 31.4428 85.4038 31.2342C85.4996 31.1537 85.6032 31.083 85.7129 31.0229C85.6779 31.0257 85.6437 31.0353 85.6124 31.0513C85.5259 31.0899 85.4456 31.1411 85.3741 31.2032C85.1375 31.411 84.9737 31.689 84.9066 31.9967C84.8418 32.3004 84.8257 32.6126 84.8589 32.9215C84.8675 33.0478 84.8891 33.173 84.9233 33.295Z" fill="#263238"/>
<path d="M88.4883 36.3321C88.4207 36.2518 88.3369 36.1869 88.2423 36.1415C88.019 36.0187 87.7681 35.9548 87.5133 35.956C87.3745 35.9486 87.2354 35.9525 87.0972 35.9676C86.9826 35.9812 86.8714 36.0152 86.7688 36.068C86.7003 36.1046 86.6388 36.153 86.5872 36.211C86.5524 36.2548 86.5369 36.2793 86.5408 36.2818C86.6179 36.2159 86.7017 36.1581 86.7907 36.1093C86.8909 36.0656 86.9974 36.0383 87.1062 36.0281C87.2412 36.0168 87.3767 36.0146 87.512 36.0217C87.7577 36.0207 88.0004 36.0758 88.2217 36.1827C88.3891 36.2703 88.4818 36.3411 88.4883 36.3321Z" fill="#263238"/>
</svg>
