<svg width="87" height="74" viewBox="0 0 87 74" fill="none" xmlns="http://www.w3.org/2000/svg">
<path d="M83.0752 13.4378C88.5684 25.9176 86.0544 39.4268 78.4112 50.7174C70.7681 62.0081 58.0485 69.3229 44.6756 71.9782C35.1293 73.8792 24.8548 73.4909 16.1378 69.1732C7.42069 64.8555 0.556245 56.1636 0.0303891 46.4443C-0.171863 42.7737 0.612876 38.8767 3.06417 36.1304C6.97573 31.752 13.6541 31.5983 19.5214 31.7803C25.3888 31.9624 32.0611 31.8228 35.9929 27.4647C39.0145 24.1137 39.4595 19.2561 41.0492 15.0355C43.7553 7.86428 50.284 2.26243 57.7936 0.676921C65.1273 -0.872184 73.1648 1.46158 78.5427 6.6711C78.7733 6.89356 79.014 7.10591 79.2567 7.31623C79.8917 7.87439 82.0295 11.0656 83.0752 13.4378Z" fill="#E3FFF4"/>
<path d="M53.6178 18.9266L51.6753 18.7163C50.581 19.7459 49.1104 20.3593 47.5525 20.4358C45.9946 20.5123 44.4621 20.0465 43.2563 19.1299C42.0506 18.2133 41.2587 16.9122 41.0364 15.4824C40.8141 14.0526 41.1775 12.5975 42.0551 11.4032C42.9328 10.2089 44.2611 9.36177 45.7791 9.02833C47.297 8.6949 48.8948 8.89927 50.2583 9.60129C51.6217 10.3033 52.6523 11.4522 53.1473 12.8221C53.6424 14.1919 53.5661 15.6837 52.9335 17.0042L53.6178 18.9266Z" fill="white"/>
<path d="M53.6189 18.9267C53.6189 18.9267 53.6017 18.8835 53.5706 18.8L53.4353 18.4314L52.919 17.0072H52.9532C52.9515 17.0088 52.9494 17.0101 52.9472 17.011C52.9449 17.0118 52.9425 17.0123 52.94 17.0123C52.9375 17.0123 52.9351 17.0118 52.9329 17.011C52.9306 17.0101 52.9285 17.0088 52.9268 17.0072C52.9244 17.004 52.9231 17.0003 52.9231 16.9964C52.9231 16.9925 52.9244 16.9888 52.9268 16.9856C53.3449 16.1036 53.5186 15.1389 53.4322 14.179C53.4051 13.8829 53.3531 13.5892 53.2767 13.3006C53.1904 12.993 53.0796 12.6917 52.9454 12.3992C52.4112 11.2442 51.4822 10.2836 50.3011 9.66497C49.12 9.04636 47.7521 8.80398 46.4078 8.97507C45.0635 9.14616 43.817 9.72126 42.86 10.612C41.9029 11.5027 41.2882 12.6598 41.1104 13.9054C40.9881 14.7897 41.086 15.6882 41.3965 16.532C41.6912 17.3249 42.1731 18.0471 42.8071 18.6459C43.9302 19.7165 45.4588 20.3408 47.0699 20.3869H47.3358C47.423 20.391 47.5104 20.3886 47.5971 20.3797L48.1057 20.3379C48.4244 20.2904 48.7401 20.2264 49.0512 20.1464C50.0421 19.8708 50.9428 19.3704 51.6717 18.6906C51.6741 18.6893 51.6768 18.6886 51.6795 18.6886C51.6822 18.6886 51.6849 18.6893 51.6873 18.6906L53.1259 18.8562L53.4991 18.9008L53.6282 18.9166L53.5069 18.9066L53.1367 18.8706L51.6826 18.7266H51.6982C50.9669 19.417 50.0591 19.9252 49.059 20.204C48.7456 20.2866 48.4273 20.3525 48.1057 20.4013L47.5924 20.4459C47.5047 20.4553 47.4163 20.4582 47.3281 20.4546H47.059C45.7874 20.4225 44.5563 20.0336 43.5287 19.3393C42.5012 18.645 41.7256 17.6781 41.3048 16.5666C40.9887 15.7119 40.8887 14.8015 41.0124 13.9054C41.1439 12.9655 41.5231 12.0699 42.1166 11.2976C42.1858 11.1994 42.2627 11.106 42.3468 11.0182L42.5878 10.7475L42.8538 10.4998C42.9398 10.416 43.0318 10.3376 43.129 10.2651L43.4167 10.0448C43.51 9.96991 43.6205 9.91375 43.72 9.84751C43.8195 9.78127 43.9237 9.71647 44.031 9.66031L44.3545 9.49903C45.2033 9.08814 46.1434 8.86487 47.101 8.84671C47.9683 8.83178 48.8296 8.98294 49.6309 9.2907C50.4321 9.59847 51.1561 10.0562 51.7573 10.6352C52.2832 11.142 52.7049 11.7335 53.0014 12.3805C53.1368 12.676 53.2476 12.9808 53.3327 13.292C53.4098 13.5839 53.4618 13.881 53.4882 14.1805C53.5671 15.1489 53.3809 16.1201 52.947 17.0043L52.9143 16.9856C52.9183 16.9825 52.9232 16.9809 52.9283 16.9809C52.9335 16.9809 52.9384 16.9825 52.9423 16.9856C52.9428 16.9885 52.9428 16.9914 52.9423 16.9942C53.1585 17.6235 53.3265 18.1074 53.44 18.4342C53.4944 18.5941 53.5364 18.7222 53.5644 18.8014C53.5924 18.8806 53.6189 18.9267 53.6189 18.9267Z" fill="#263238"/>
<path d="M44.3633 14.7882L45.1098 14.0236L46.693 15.2015L49.0444 12.7002L49.8143 13.3943L46.6572 16.6098L44.3633 14.7882Z" fill="#263238"/>
<path d="M31.2566 47.405C31.9005 47.3664 32.4587 47.5187 32.9938 47.739C33.2404 47.8438 33.5096 47.9016 33.7836 47.9086L34.4889 47.8954L34.4981 41.0203C34.4977 40.8654 34.4624 40.7121 34.3944 40.5692C34.3263 40.4263 34.2268 40.2965 34.1015 40.1873C33.9762 40.0781 33.8276 39.9916 33.6641 39.9328C33.5007 39.874 33.3256 39.844 33.149 39.8445L25.6943 39.8689V39.7328C25.6978 39.4567 25.7726 39.1849 25.9131 38.9378C26.2934 38.2531 26.4174 37.4806 26.2675 36.7304C26.0828 35.8285 25.5205 35.0196 24.6907 34.4624C23.8609 33.9052 22.8237 33.64 21.7823 33.7187C20.741 33.7974 19.7708 34.2143 19.0621 34.8878C18.3533 35.5612 17.9571 36.4426 17.9512 37.3589C17.953 37.8623 18.0753 38.3597 18.3102 38.819C18.4305 39.0502 18.4941 39.301 18.4967 39.5552L18.5407 39.8648H9.55726C9.38069 39.8643 9.20573 39.8943 9.04237 39.953C8.879 40.0118 8.73044 40.0982 8.60516 40.2072C8.47987 40.3163 8.38032 40.446 8.31219 40.5888C8.24406 40.7316 8.20868 40.8848 8.20807 41.0396V47.7624H7.56764C7.26992 47.7598 6.9768 47.6976 6.71064 47.5806C5.95406 47.2647 5.10441 47.1622 4.27863 47.2872C3.30645 47.4417 2.43503 47.9087 1.83494 48.5969C1.23486 49.285 0.949315 50.1448 1.03421 51.0078C1.1191 51.8709 1.56831 52.6751 2.29392 53.263C3.01953 53.851 3.96928 54.1803 4.95728 54.1866C5.50354 54.1867 6.04372 54.086 6.54272 53.8911C6.79239 53.7917 7.06299 53.7392 7.33718 53.7368H8.15943L8.17564 61.9612C8.1761 62.0874 8.20489 62.2122 8.26037 62.3286C8.31585 62.445 8.39693 62.5506 8.49898 62.6396C8.60104 62.7285 8.72207 62.7989 8.85516 62.8468C8.98826 62.8947 9.13081 62.9191 9.27468 62.9187H33.3227C33.9295 62.9187 34.4055 62.2506 34.4055 61.7216V54.2526H33.4327C33.2076 54.2528 32.9846 54.291 32.776 54.3653C32.2135 54.5637 31.6034 54.6357 31.0011 54.5749C30.3987 54.514 29.8233 54.3223 29.3269 54.0169C28.8306 53.7116 28.4291 53.3024 28.159 52.8265C27.8888 52.3506 27.7586 51.823 27.78 51.2918C27.853 49.6926 29.428 47.5166 31.2566 47.405Z" fill="#E0E0E0"/>
<path d="M31.257 47.4053L31.1933 47.4124C31.1299 47.4179 31.0669 47.4264 31.0045 47.4378C30.7585 47.4806 30.521 47.5545 30.2992 47.6571C29.7121 47.9201 28.9431 48.5192 28.3629 49.5203C28.0315 50.0745 27.8374 50.6838 27.7931 51.3084C27.7824 51.6663 27.8383 52.0233 27.9587 52.3654C28.0907 52.7361 28.3 53.0821 28.576 53.3858C28.8836 53.7242 29.267 54.0037 29.7027 54.2072C30.1383 54.4106 30.6168 54.5337 31.1087 54.5687C31.6489 54.6124 32.1933 54.5467 32.7 54.3768C32.9625 54.2763 33.2475 54.2291 33.5338 54.2387H34.4244V54.2529C34.4244 55.4348 34.4244 56.6898 34.4244 58.0169C34.4244 58.6796 34.4244 59.3599 34.4244 60.0578V61.6539C34.4272 61.7457 34.4202 61.8375 34.4035 61.9281C34.3848 62.0186 34.3561 62.1074 34.3178 62.1931C34.2433 62.3679 34.1295 62.5277 33.9831 62.6632C33.837 62.8058 33.6411 62.9019 33.4261 62.9364C33.3103 62.9465 33.2107 62.9424 33.103 62.9435H23.8752H11.6074H9.98611C9.71395 62.9435 9.44527 62.9485 9.16617 62.9384C8.88203 62.9128 8.61946 62.7939 8.43126 62.6056C8.24305 62.4172 8.14316 62.1733 8.15167 61.923C8.15167 61.6814 8.15167 61.4387 8.15167 61.196C8.15167 60.71 8.15167 60.2213 8.15167 59.7298C8.15167 57.7668 8.14743 55.7682 8.13893 53.7341L8.16904 53.7605H7.65601C7.48529 53.7562 7.31444 53.7596 7.14412 53.7706C6.97445 53.7883 6.80818 53.8255 6.64961 53.8813C6.49002 53.9437 6.3269 53.999 6.1609 54.0468C5.47332 54.2386 4.73886 54.261 4.03772 54.1117C3.33658 53.9624 2.69572 53.647 2.18513 53.2C1.92472 52.975 1.70067 52.7198 1.51922 52.4415C1.43042 52.3013 1.35302 52.1557 1.2876 52.0059C1.25518 51.9308 1.21696 51.8577 1.19148 51.7805L1.11852 51.547C0.900743 50.781 0.984737 49.9729 1.35686 49.254C1.72898 48.5352 2.36738 47.9477 3.16836 47.5871C3.5593 47.4147 3.97989 47.2998 4.41332 47.2469C4.84759 47.1947 5.28859 47.2036 5.71966 47.2733C5.93339 47.3086 6.14365 47.3585 6.34851 47.4226C6.45158 47.4551 6.55234 47.4906 6.65077 47.5312C6.74648 47.5727 6.84467 47.6097 6.94493 47.6419C7.34448 47.78 7.78108 47.7302 8.20726 47.7434L8.17715 47.7698C8.17715 46.3158 8.17715 44.8804 8.17715 43.4637V41.3578C8.16913 41.1822 8.17726 41.0063 8.20147 40.8318C8.23739 40.6566 8.3186 40.4909 8.43888 40.3475C8.55706 40.2044 8.70976 40.0859 8.8861 40.0005C9.06245 39.915 9.25811 39.8647 9.45917 39.853H18.5387L18.5121 39.8794C18.497 39.7779 18.4819 39.6763 18.468 39.5748C18.4665 39.3858 18.4302 39.1982 18.3603 39.0194C18.3268 38.9301 18.2816 38.8458 18.2445 38.7564C18.2075 38.6671 18.1658 38.5787 18.1287 38.4884C17.9963 38.1274 17.9287 37.7506 17.9284 37.3715L17.9457 37.0912C17.9457 37.0445 17.9457 36.9968 17.9573 36.9511L17.9828 36.812C18.0025 36.7206 18.0118 36.6272 18.0395 36.5379L18.1252 36.2688C18.1377 36.2239 18.1547 36.18 18.1762 36.1378L18.2341 36.0088C18.2693 35.9217 18.3123 35.8372 18.3627 35.756L18.5086 35.5113L18.6811 35.2656C18.9171 34.9665 19.2037 34.7008 19.5312 34.4777L19.647 34.3924L19.7755 34.3183C19.8624 34.2695 19.9458 34.2167 20.0338 34.1731C20.2112 34.0863 20.395 34.01 20.5839 33.9446C20.958 33.8143 21.3515 33.7319 21.7524 33.6999C21.9503 33.684 22.1493 33.6813 22.3477 33.6918C22.4461 33.6969 22.5446 33.6989 22.643 33.708L22.9337 33.7466C23.696 33.8762 24.4033 34.1862 24.9789 34.6432C25.5257 35.0757 25.9317 35.6276 26.1555 36.2427C26.3793 36.8578 26.4129 37.514 26.2528 38.1442C26.1764 38.4422 26.0598 38.7313 25.9054 39.0052C25.8356 39.1405 25.7846 39.2826 25.7537 39.4286C25.7264 39.5739 25.716 39.7212 25.7224 39.8683L25.7004 39.849L31.3751 39.8327H32.6641H32.9791C33.0833 39.8327 33.1864 39.8327 33.2917 39.8378C33.497 39.8567 33.6949 39.9157 33.8708 40.0104C34.0419 40.1015 34.1877 40.2249 34.2977 40.3715C34.4076 40.5182 34.479 40.6844 34.5066 40.8582C34.5216 41.0254 34.5262 41.1932 34.5205 41.3608C34.5205 41.5253 34.5205 41.6878 34.5205 41.8482C34.5147 44.4181 34.5101 46.461 34.5066 47.8988V47.9059H34.4973C34.2136 47.9059 33.9496 47.9211 33.7017 47.916C33.4734 47.8994 33.25 47.8483 33.0416 47.7648C32.732 47.6295 32.405 47.5272 32.0676 47.4601C31.8685 47.4229 31.6655 47.4038 31.4619 47.4033C31.3936 47.4033 31.3461 47.4033 31.3114 47.4033H31.2616C31.3282 47.3977 31.3951 47.3953 31.4619 47.3962C31.6662 47.3949 31.87 47.4126 32.07 47.449C32.4085 47.516 32.7366 47.6182 33.0474 47.7536C33.2548 47.835 33.4764 47.8851 33.7029 47.9018C33.9484 47.9018 34.2136 47.8937 34.4973 47.8896L34.4892 47.8978V41.3578C34.495 41.1915 34.4904 41.0251 34.4753 40.8592C34.4481 40.6898 34.3782 40.5278 34.2709 40.3848C34.1635 40.2419 34.0214 40.1217 33.8546 40.0327C33.6822 39.9403 33.4882 39.8834 33.2871 39.8662C33.1852 39.8591 33.0821 39.8601 32.9779 39.8611H32.6594H31.3693L25.6946 39.8815H25.6738V39.8632C25.6663 39.7137 25.6768 39.564 25.705 39.4164C25.7373 39.2675 25.789 39.1224 25.8591 38.9839C26.014 38.713 26.1306 38.4266 26.2065 38.131C26.364 37.5078 26.3304 36.8593 26.1091 36.2512C25.8878 35.6432 25.4866 35.0975 24.9465 34.6696C24.377 34.2179 23.6773 33.9117 22.9233 33.7842L22.6361 33.7466C22.5388 33.7375 22.4415 33.7354 22.3431 33.7304C22.1474 33.7199 21.9511 33.7226 21.7559 33.7385C21.3585 33.7698 20.9684 33.8516 20.5978 33.9812C20.4107 34.0453 20.2288 34.1206 20.0535 34.2066C19.9666 34.2523 19.8844 34.3081 19.7987 34.3508L19.6725 34.4239L19.5567 34.5081C19.2339 34.7291 18.9512 34.9917 18.7182 35.2869L18.548 35.5123L18.4032 35.754C18.3541 35.8344 18.3119 35.9179 18.277 36.0038L18.2202 36.1307C18.1988 36.1726 18.1817 36.2161 18.1693 36.2607L18.0859 36.5257C18.0581 36.614 18.0488 36.7064 18.0291 36.7968L18.0036 36.9338C17.9967 36.9795 17.9967 37.0262 17.9932 37.0719L17.9759 37.3491C17.9758 37.7235 18.0426 38.0956 18.1739 38.4518C18.2075 38.5412 18.2445 38.6305 18.2897 38.7178C18.3349 38.8052 18.3777 38.8915 18.4125 38.9829C18.4863 39.1662 18.5254 39.359 18.5283 39.5535C18.5433 39.655 18.5572 39.7566 18.5734 39.8632V39.8896H18.5422L9.46612 39.8957C9.27346 39.9068 9.08598 39.9551 8.91703 40.0371C8.74808 40.1191 8.60183 40.2327 8.48868 40.3698C8.37212 40.5066 8.29289 40.665 8.25706 40.8329C8.23404 41.0071 8.22668 41.1826 8.23506 41.3578C8.23506 42.0557 8.23506 42.7583 8.23506 43.4657V47.7983H7.56336C7.34447 47.7966 7.1275 47.7623 6.92177 47.6967C6.81986 47.6663 6.7191 47.6226 6.62298 47.584C6.52686 47.5454 6.42726 47.5099 6.3265 47.4825C6.12453 47.4186 5.91692 47.3694 5.70576 47.3353C5.2812 47.2666 4.84687 47.2577 4.41911 47.3089C3.87659 47.3777 3.35653 47.5455 2.89242 47.8012C2.42831 48.057 2.03044 48.3952 1.72443 48.7939C1.41841 49.1927 1.21104 49.6432 1.11566 50.1165C1.02028 50.5898 1.03901 51.0754 1.17063 51.5419L1.24128 51.7714C1.26676 51.8475 1.30497 51.9196 1.33624 51.9938C1.40165 52.1413 1.47906 52.2845 1.56786 52.4222C1.83461 52.8314 2.19371 53.1885 2.62322 53.4719C3.05272 53.7552 3.54361 53.9588 4.06589 54.0702C4.75089 54.2138 5.46758 54.191 6.13889 54.0042C6.30375 53.9567 6.46572 53.9018 6.62414 53.8397C6.7877 53.7825 6.95896 53.744 7.1337 53.725C7.30973 53.7077 7.48113 53.7168 7.65253 53.7148H8.19568V53.7453C8.19568 55.776 8.19954 57.7746 8.20726 59.741C8.20726 60.2324 8.20726 60.7212 8.20726 61.2072C8.20726 61.4495 8.20726 61.6919 8.20726 61.9342C8.19946 62.1713 8.29439 62.4022 8.47295 62.5804C8.65151 62.7586 8.90045 62.8709 9.16965 62.8947C9.43717 62.9039 9.71395 62.8947 9.98032 62.8998H11.6017H23.8694H33.1007C33.2061 62.9029 33.3116 62.9009 33.4168 62.8937C33.6217 62.8612 33.8083 62.7697 33.9472 62.6338C34.0894 62.502 34.2001 62.3467 34.2727 62.1769C34.31 62.0934 34.3383 62.007 34.3572 61.919C34.3731 61.8307 34.3797 61.7413 34.3769 61.6519C34.3769 61.4712 34.3769 61.2925 34.3769 61.1138V60.0558C34.3769 59.3592 34.3769 58.6789 34.3769 58.0149C34.3769 56.6898 34.3769 55.4328 34.3769 54.2509L34.3954 54.2672H33.5234C33.2411 54.2566 32.9599 54.3028 32.7011 54.4022C32.1892 54.5722 31.6399 54.6378 31.0948 54.5941C30.5995 54.5579 30.1179 54.4331 29.6797 54.2273C29.2415 54.0216 28.856 53.7394 28.547 53.398C28.2689 53.0917 28.0583 52.7425 27.9263 52.3684C27.8081 52.025 27.7549 51.6669 27.7688 51.3084C27.816 50.682 28.0133 50.0713 28.3478 49.5163C28.9269 48.5141 29.7063 47.914 30.2969 47.6541C30.5197 47.5516 30.7585 47.4784 31.0057 47.4368C31.068 47.4262 31.1311 47.4187 31.1944 47.4145L31.257 47.4053Z" fill="#263238"/>
<path d="M62.7526 47.6865C62.1884 47.6859 61.6304 47.7897 61.1151 47.9911C60.9406 48.0597 60.7563 48.1072 60.5673 48.1322V40.9059C60.5675 40.7794 60.5392 40.6542 60.484 40.5374C60.4289 40.4205 60.3481 40.3144 60.2461 40.2249C60.1441 40.1355 60.023 40.0646 59.8897 40.0163C59.7565 39.968 59.6136 39.9432 59.4694 39.9433H50.8925V40.7962C50.8933 40.9932 50.9369 41.1883 51.0211 41.3709C51.1964 41.7488 51.2865 42.153 51.2863 42.5609C51.2868 43.0391 51.1647 43.5113 50.9292 43.9427C50.6937 44.374 50.3507 44.7535 49.9255 45.053C49.5004 45.3526 49.0039 45.5646 48.4728 45.6734C47.9416 45.7822 47.3894 45.785 46.8569 45.6817C46.3243 45.5783 45.8251 45.3714 45.3959 45.0763C44.9668 44.7811 44.6187 44.4052 44.3775 43.9763C44.1362 43.5474 44.0079 43.0765 44.002 42.5983C43.9961 42.1201 44.1128 41.6469 44.3434 41.2135C44.4588 41.0038 44.5197 40.7742 44.5218 40.5414V39.9433L35.836 39.9189C35.4782 39.9189 35.135 40.0436 34.882 40.2654C34.629 40.4872 34.4868 40.7881 34.4868 41.1018L34.4787 47.8033H33.8858C33.8186 47.8033 33.7503 47.8033 33.6831 47.7972C33.038 47.3853 32.2781 47.1335 31.4835 47.0684C30.6889 47.0033 29.889 47.1273 29.168 47.4273C28.447 47.7273 27.8316 48.1922 27.3867 48.773C26.9417 49.3539 26.6836 50.0291 26.6396 50.7278C26.5955 51.4264 26.7672 52.1225 27.1365 52.7428C27.5058 53.3631 28.059 53.8846 28.7379 54.2524C29.4168 54.6202 30.1963 54.8207 30.9942 54.8327C31.7922 54.8448 32.579 54.668 33.272 54.3209C33.3899 54.2982 33.5103 54.2866 33.631 54.2864H34.3919V61.7666C34.3919 62.0803 34.534 62.3812 34.787 62.603C35.0401 62.8249 35.3832 62.9495 35.7411 62.9495H59.4694C59.6137 62.9495 59.7565 62.9245 59.8898 62.8761C60.0231 62.8277 60.1442 62.7567 60.2461 62.6672C60.3481 62.5777 60.429 62.4715 60.4841 62.3546C60.5392 62.2377 60.5675 62.1124 60.5673 61.9859V54.3707C60.7145 54.4031 60.8573 54.449 60.9935 54.5077C61.7562 54.8344 62.6172 54.941 63.4533 54.8123C64.4576 54.6539 65.3582 54.1724 65.9788 53.4622C66.5993 52.752 66.8951 51.8642 66.8082 50.9728C66.7212 50.0814 66.2578 49.2506 65.5087 48.6431C64.7596 48.0356 63.7788 47.6952 62.7584 47.6885L62.7526 47.6865Z" fill="#F5F5F5"/>
<path d="M62.754 47.6863L63.0123 47.6965C63.1187 47.6983 63.2247 47.7071 63.3296 47.7229L63.5323 47.7523C63.6108 47.7619 63.6883 47.7772 63.7639 47.798L64.021 47.8599C64.1102 47.8863 64.2017 47.9209 64.2989 47.9533C64.3464 47.9706 64.3974 47.9858 64.4472 48.0051L64.5954 48.0732C64.7026 48.1179 64.8063 48.1688 64.9058 48.2255C65.4558 48.5273 65.9161 48.9395 66.2488 49.428C66.5814 49.9164 66.7769 50.4673 66.819 51.035C66.819 51.1223 66.8329 51.2096 66.8329 51.299C66.8329 51.3883 66.8224 51.4767 66.8167 51.5681C66.8167 51.6127 66.8167 51.6594 66.8051 51.7041C66.7935 51.7488 66.79 51.7955 66.7819 51.8412L66.7576 51.9803C66.7449 52.025 66.7333 52.0717 66.7205 52.1174C66.4999 52.9203 65.9743 53.6336 65.2301 54.14C64.8178 54.4169 64.3499 54.6235 63.8508 54.7492C63.7234 54.7837 63.5902 54.801 63.4582 54.8284C63.3261 54.8558 63.1883 54.8639 63.0517 54.871C62.7733 54.8897 62.4934 54.8826 62.2167 54.8497C61.9318 54.8165 61.6519 54.7566 61.3817 54.671C61.1037 54.5888 60.8524 54.4466 60.5641 54.3898L60.5872 54.3735C60.5872 55.5432 60.5872 56.7833 60.5872 58.0938C60.5872 58.7477 60.5872 59.4185 60.5872 60.1063C60.5872 60.4495 60.5872 60.7977 60.5872 61.149V61.9461C60.5872 61.9908 60.5872 62.0375 60.5814 62.0822C60.5764 62.128 60.5679 62.1734 60.556 62.2182C60.5061 62.3994 60.3987 62.5646 60.2462 62.6945C60.0937 62.8244 59.9024 62.9138 59.6943 62.9523C59.5893 62.969 59.4826 62.9762 59.3759 62.9737H50.3033H38.259H35.8675C35.7314 62.9782 35.5952 62.97 35.461 62.9493C35.3266 62.9239 35.1968 62.8822 35.0754 62.8254C34.8325 62.707 34.6353 62.5277 34.5091 62.3106C34.446 62.2025 34.4026 62.0863 34.3805 61.9664C34.3621 61.847 34.3551 61.7264 34.3597 61.606V54.2872L34.3898 54.3126H33.8409C33.7471 54.3126 33.6498 54.3126 33.5571 54.3126C33.4625 54.3168 33.3684 54.3277 33.2757 54.3451H33.2838C32.7298 54.6234 32.1141 54.7941 31.4783 54.8457C30.482 54.9263 29.4836 54.7111 28.6435 54.2345C27.8035 53.758 27.1704 53.0478 26.8459 52.2179C26.6911 51.8184 26.6086 51.4 26.6016 50.9781C26.6022 50.5581 26.6748 50.1405 26.817 49.7394C26.9622 49.342 27.1792 48.9676 27.4597 48.6306C27.6007 48.4632 27.7556 48.305 27.923 48.1574L28.1858 47.9483C28.2739 47.8802 28.3735 47.8224 28.4661 47.7594C28.8497 47.5202 29.2727 47.3337 29.7203 47.206C30.1687 47.0884 30.6339 47.0276 31.1019 47.0253C32.0356 47.0307 32.9436 47.2936 33.6973 47.7767L33.6822 47.7716C33.9439 47.7828 34.2114 47.7716 34.4755 47.7777L34.4454 47.8031C34.4454 46.3714 34.4473 44.9587 34.4512 43.5649C34.4512 42.867 34.4512 42.1752 34.4512 41.4895V41.2326C34.4512 41.1474 34.4512 41.061 34.4593 40.9737C34.4918 40.7128 34.6202 40.4682 34.8251 40.2768C35.03 40.0854 35.3004 39.9576 35.5954 39.9127C35.7876 39.8935 35.9812 39.8874 36.1744 39.8944H36.7477H37.8896L40.1409 39.9015L44.5174 39.9137H44.544V40.4742C44.5499 40.6548 44.5209 40.835 44.4583 41.0072C44.4258 41.0922 44.3871 41.1753 44.3425 41.256C44.3008 41.3352 44.2649 41.4164 44.2267 41.4987C44.0001 42.0673 43.963 42.6808 44.1199 43.2673C44.2768 43.8538 44.6212 44.3888 45.1127 44.8098C45.3831 45.0415 45.6919 45.2359 46.0287 45.3865C46.6921 45.6826 47.4445 45.7891 48.1805 45.6911C48.8932 45.5974 49.5578 45.3191 50.089 44.892C50.3475 44.6849 50.5696 44.4454 50.748 44.1813C50.9266 43.9237 51.0602 43.6441 51.1441 43.3517C51.3174 42.7814 51.3025 42.1797 51.1012 41.6165C51.0572 41.4784 50.9854 41.3494 50.9379 41.2103C50.8935 41.0708 50.8713 40.9266 50.8719 40.7818V39.9198H50.8939H57.1708H59.2624C59.374 39.9171 59.4857 39.9195 59.597 39.9269C59.708 39.9387 59.8164 39.9643 59.919 40.003C60.1179 40.0804 60.2868 40.2068 60.4051 40.3669C60.5233 40.5271 60.5858 40.7139 60.5849 40.9047C60.5849 41.2672 60.5849 41.6154 60.5849 41.9637C60.5849 44.7052 60.5849 46.7938 60.578 48.1249L60.5687 48.1178C60.9555 48.0742 61.2462 47.9097 61.5207 47.8437C61.7446 47.7809 61.9744 47.7354 62.2074 47.7076C62.3442 47.6921 62.4818 47.6826 62.6197 47.6792C62.7112 47.6792 62.7552 47.6792 62.7552 47.6792H62.6197C62.2474 47.6921 61.8788 47.7495 61.5241 47.8498C61.252 47.9158 60.9613 48.0823 60.571 48.128H60.5629V48.1209C60.5629 46.7897 60.5629 44.7032 60.5548 41.9596C60.5548 41.6165 60.5548 41.2634 60.5548 40.9006C60.5557 40.7156 60.4951 40.5343 60.3803 40.3791C60.2655 40.2238 60.1016 40.1012 59.9086 40.0264C59.809 39.9885 59.7037 39.9635 59.5959 39.9523C59.4882 39.9431 59.3759 39.9462 59.2647 39.9462H57.1708H50.8939L50.9159 39.9279V40.7707C50.9149 40.9121 50.9368 41.0529 50.9808 41.189C51.0236 41.324 51.0966 41.455 51.1441 41.5951C51.3484 42.1655 51.3641 42.7749 51.1892 43.3527C51.1043 43.6486 50.9692 43.9317 50.7885 44.1924C50.6082 44.4598 50.3833 44.7021 50.1215 44.9113C49.5838 45.3453 48.9102 45.6282 48.1874 45.7236C47.4411 45.8229 46.678 45.7146 46.0056 45.4139C45.6649 45.261 45.3525 45.0639 45.0791 44.8291C44.8016 44.5899 44.569 44.3137 44.39 44.0107C44.1584 43.6227 44.0211 43.1968 43.9866 42.7599C43.9521 42.323 44.0212 41.8846 44.1897 41.4723C44.2244 41.389 44.2615 41.3057 44.3055 41.2255C44.3499 41.1465 44.3886 41.0652 44.4213 40.9818C44.482 40.8142 44.5102 40.6388 44.5047 40.463V39.9269L44.5313 39.9502L40.1548 39.9391L37.9035 39.933H36.7616H36.1802C35.9897 39.9256 35.7988 39.931 35.6093 39.9492C35.3271 39.9925 35.0686 40.1149 34.8725 40.298C34.6764 40.4811 34.5534 40.715 34.5218 40.9646C34.5137 41.0468 34.5126 41.1321 34.5137 41.2184V41.4753C34.5137 42.1617 34.5137 42.8535 34.5137 43.5507C34.5137 44.9438 34.5137 46.3569 34.5137 47.7899V47.8153H34.4836C34.2184 47.8153 33.9567 47.8214 33.6857 47.8092H33.6776L33.6695 47.8041C32.9257 47.3284 32.0306 47.0692 31.1101 47.0629C30.6484 47.066 30.1895 47.1262 29.747 47.2416C29.3015 47.3711 28.8816 47.5601 28.502 47.8021C28.4105 47.865 28.3132 47.9209 28.2252 47.9889L27.967 48.192C27.8027 48.3376 27.651 48.4937 27.513 48.659C27.2339 48.9908 27.0173 49.3597 26.8714 49.7516C26.7324 50.1463 26.661 50.5569 26.6595 50.97C26.6705 51.9771 27.1273 52.9411 27.9334 53.6587C28.3928 54.0619 28.9476 54.3717 29.5585 54.5665C30.1694 54.7612 30.8216 54.8361 31.4691 54.7857C32.0957 54.7368 32.7031 54.5706 33.2502 54.2984C33.3459 54.2802 33.4431 54.269 33.5409 54.2649C33.6405 54.2649 33.7332 54.2649 33.8281 54.2649H34.4072V61.611C34.4014 61.7288 34.408 61.8467 34.4269 61.9634C34.4473 62.0784 34.4888 62.1899 34.5496 62.2934C34.6744 62.5009 34.8672 62.671 35.1032 62.7818C35.2197 62.8358 35.3439 62.8757 35.4726 62.9006C35.603 62.9205 35.7353 62.9286 35.8675 62.9249H38.2602H50.3044H59.3816C59.4852 62.9277 59.5888 62.9213 59.6909 62.9056C59.8905 62.8688 60.0741 62.783 60.2202 62.6583C60.3664 62.5335 60.4692 62.3749 60.5166 62.201C60.5392 62.1151 60.5497 62.0271 60.5479 61.939V60.1032C60.5479 59.4162 60.5479 58.7453 60.5479 58.0908C60.5479 56.7823 60.5479 55.5422 60.5479 54.3705V54.3542H60.571C60.8675 54.4141 61.1188 54.5573 61.3909 54.6375C61.659 54.7225 61.9366 54.7824 62.219 54.8162C62.4934 54.8486 62.7709 54.8557 63.047 54.8375C63.1825 54.8304 63.3169 54.8142 63.4501 54.7959C63.5832 54.7776 63.7129 54.7512 63.8392 54.7177C64.5355 54.5443 65.1667 54.2116 65.6679 53.7538C66.1692 53.2959 66.5225 52.7294 66.6916 52.1123C66.7043 52.0666 66.7171 52.0209 66.7286 51.9752L66.753 51.8381L66.7773 51.7021C66.7854 51.6564 66.7842 51.6107 66.7877 51.566C66.7931 51.4753 66.7989 51.386 66.8051 51.298C66.8051 51.2106 66.7958 51.1233 66.7923 51.036C66.7507 50.4712 66.5571 49.9231 66.2274 49.4366C65.8976 48.95 65.4412 48.5388 64.8954 48.2366C64.7964 48.1798 64.6931 48.1289 64.5862 48.0843L64.4391 48.0163C64.3893 47.997 64.3395 47.9808 64.2908 47.9635C64.1947 47.931 64.1032 47.8965 64.0152 47.8701L63.7581 47.8071C63.6826 47.7856 63.6051 47.7696 63.5265 47.7594L63.3238 47.73C63.2191 47.7131 63.113 47.7036 63.0065 47.7015L62.754 47.6863Z" fill="#263238"/>
<path d="M46.2464 40.5462C46.2139 40.4852 46.1887 40.4206 46.1713 40.3537C46.1244 40.2113 46.0633 40.0313 45.9929 39.8169C45.8364 39.3646 45.6392 38.7386 45.4045 38.05C45.1697 37.3614 44.9506 36.7402 44.7926 36.291C44.7175 36.0782 44.6549 35.8982 44.6063 35.7573C44.5809 35.6929 44.561 35.6264 44.5469 35.5586C44.5844 35.6172 44.6144 35.6803 44.6361 35.7464C44.6877 35.8685 44.7597 36.0484 44.8458 36.2707C45.0195 36.7151 45.2464 37.3348 45.4812 38.0234C45.7159 38.712 45.9131 39.3427 46.0477 39.7997C46.115 40.0282 46.1666 40.2144 46.2042 40.3443C46.2248 40.41 46.2389 40.4777 46.2464 40.5462Z" fill="#263238"/>
<path d="M43.4059 31.9063C43.4059 31.9063 43.4059 31.9282 43.4059 31.972C43.3995 32.0347 43.3891 32.0969 43.3746 32.1582C43.3179 32.3845 43.2283 32.6012 43.1086 32.8014C42.9376 33.107 42.7047 33.3735 42.4247 33.5839C42.0685 33.8246 41.6445 33.9448 41.215 33.9266C40.7874 33.9101 40.3715 33.7822 40.0084 33.5558C39.7082 33.3805 39.4386 33.1574 39.2103 32.8953C39.0573 32.7192 38.9313 32.5215 38.8362 32.3085C38.8106 32.2508 38.7881 32.1918 38.7689 32.1316C38.7564 32.0894 38.7517 32.0675 38.7548 32.0675C38.8788 32.3551 39.0467 32.6217 39.2525 32.8578C39.4796 33.108 39.7434 33.3223 40.035 33.4932C40.3917 33.7097 40.798 33.8309 41.215 33.8453C41.6258 33.8608 42.0313 33.7476 42.3746 33.5213C42.6479 33.3209 42.8788 33.0682 43.0538 32.778C43.175 32.5825 43.2702 32.372 43.3371 32.152C43.3825 31.9955 43.3934 31.9047 43.4059 31.9063Z" fill="#263238"/>
<path d="M52.2422 27.3443L59.4238 25.8857L65.3989 26.3552L70.5555 28.2066L67.0359 42.983L55.6382 43.5683L52.2422 27.3443Z" fill="#263238"/>
<path d="M58.3318 26.0938L51.014 27.5022L53.7809 47.6763C53.7809 47.6763 49.2331 55.1725 48.5508 62.7172H60.5619C60.5619 62.7172 61.6997 53.1255 61.5792 49.2757C61.4587 45.4258 61.5338 38.7027 61.5338 38.7027L58.3318 26.0938Z" fill="#0CAA6A"/>
<path d="M65.3998 26.3545C66.3068 26.5006 67.2003 26.7209 68.0712 27.0133C69.644 27.6002 72.3186 28.2653 72.3186 28.2653L67.7269 48.4534C67.7269 48.4534 72.3295 55.2752 72.0384 62.715C72.0384 62.715 63.8176 62.8527 60.5625 62.715L61.4404 38.3281C61.4404 38.3281 64.295 34.9571 64.7691 31.5674C65.2433 28.1777 65.3998 26.3545 65.3998 26.3545Z" fill="#0CAA6A"/>
<path d="M72.3187 28.2715C72.3187 28.2715 76.4471 32.8756 78.7492 34.6409C81.0512 36.4062 83.9292 39.0228 83.8791 40.364C83.851 41.1465 83.5364 42.123 83.2829 42.7913C83.0967 43.2803 82.8324 43.7359 82.5004 44.1403C81.3642 45.5409 77.4502 50.4894 75.4862 52.1968L70.9979 46.4893L76.5316 40.8179C76.5316 40.8179 70.5205 38.0745 70.2451 37.3749C69.9697 36.6754 72.3187 28.2715 72.3187 28.2715Z" fill="#0CAA6A"/>
<path d="M61.2917 41.0153C61.2531 40.9843 61.2175 40.9497 61.1853 40.9121L60.8973 40.5991L59.8394 39.4253L56.2603 35.3987L56.2384 35.3736L56.2478 35.3423L56.8159 33.2922L57.0694 32.3861L57.1257 32.4643L54.7517 32.3736H54.6719L54.6985 32.2985L56.2901 28.0151C56.4872 27.4987 56.6437 27.084 56.7595 26.7866L56.8879 26.4627C56.901 26.4241 56.9178 26.3869 56.938 26.3516C56.9328 26.3919 56.9222 26.4314 56.9067 26.4689C56.8785 26.5534 56.8409 26.663 56.7955 26.8007C56.6891 27.0996 56.5436 27.519 56.3605 28.0402C55.9739 29.109 55.4371 30.5989 54.8112 32.3376L54.7579 32.2593L57.132 32.3438H57.2118L57.1899 32.419C57.107 32.7179 57.024 33.0199 56.938 33.3251L56.3667 35.3752L56.3527 35.3188L59.9004 39.3768L60.9318 40.574L61.2041 40.8995C61.2364 40.9357 61.2657 40.9744 61.2917 41.0153Z" fill="#263238"/>
<path d="M60.5789 62.7214C60.5445 62.7214 60.7026 57.2174 60.9326 50.4317C61.1627 43.646 61.3755 38.142 61.4021 38.1436C61.4287 38.1451 61.2785 43.646 61.0484 50.4348C60.8184 57.2237 60.6212 62.723 60.5789 62.7214Z" fill="#263238"/>
<path d="M66.5397 26.5791C66.5525 26.6236 66.5614 26.6692 66.5663 26.7153C66.5819 26.817 66.6007 26.9469 66.6242 27.1096L66.8182 28.5854C66.9747 29.8562 67.1923 31.6136 67.4442 33.6262L67.4536 33.7075L67.3738 33.6935L66.0577 33.4665L66.1249 33.3805C66.2048 33.5589 66.2893 33.7498 66.3753 33.9407L66.8683 35.0456L66.884 35.0816L66.8589 35.1113L63.211 39.3367C62.754 39.8579 62.3831 40.2757 62.1155 40.5887L61.8166 40.9205C61.7834 40.9607 61.7467 40.9979 61.707 41.0316C61.7328 40.9859 61.7638 40.9434 61.7994 40.9048L62.0811 40.559L63.1452 39.2882L66.7619 35.0315L66.7525 35.0957C66.596 34.742 66.4285 34.3711 66.258 33.9924L66.0076 33.4305L65.9606 33.3241L66.0749 33.3445L67.391 33.573L67.3206 33.6403C67.089 31.6261 66.8871 29.8655 66.74 28.5948C66.6742 27.9688 66.621 27.4743 66.5835 27.1159C66.5694 26.9594 66.5569 26.8201 66.5475 26.7184C66.5404 26.6723 66.5377 26.6257 66.5397 26.5791Z" fill="#263238"/>
<path d="M59.8218 54.9503C59.5792 54.6373 59.0909 54.4323 58.8405 54.7468H58.8499C58.7273 54.8433 58.6367 54.9745 58.5901 55.1234C58.5434 55.2723 58.5429 55.4318 58.5886 55.581C58.626 55.673 58.6815 55.7566 58.7517 55.8269C58.822 55.8971 58.9056 55.9526 58.9976 55.9901C59.0896 56.0276 59.1882 56.0463 59.2875 56.0451C59.3869 56.0439 59.485 56.0228 59.5761 55.9832C59.6637 55.9349 59.7402 55.8689 59.8008 55.7894C59.8613 55.7098 59.9046 55.6184 59.9277 55.5211C59.9508 55.4239 59.9534 55.3228 59.9351 55.2245C59.9169 55.1262 59.8783 55.0328 59.8218 54.9503Z" fill="#263238"/>
<path d="M60.1968 48.4926C59.9542 48.1718 59.4659 47.9746 59.2155 48.2876H59.2249C59.1023 48.3841 59.0117 48.5153 58.9651 48.6642C58.9184 48.8131 58.9179 48.9726 58.9636 49.1218C59.001 49.2138 59.0565 49.2974 59.1268 49.3676C59.197 49.4378 59.2807 49.4932 59.3727 49.5306C59.4648 49.5679 59.5634 49.5865 59.6627 49.5851C59.7621 49.5836 59.8601 49.5623 59.9511 49.5224C60.0384 49.4743 60.1147 49.4085 60.1751 49.3292C60.2355 49.2499 60.2786 49.1588 60.3018 49.0619C60.3249 48.9649 60.3275 48.8642 60.3094 48.7662C60.2914 48.6681 60.253 48.575 60.1968 48.4926Z" fill="#263238"/>
<path d="M77.3143 48.5931C77.0717 48.2802 76.5835 48.0767 76.3331 48.3897H76.3425C76.2196 48.4856 76.1288 48.6166 76.0821 48.7653C76.0355 48.914 76.0351 49.0734 76.0811 49.2223C76.1184 49.3144 76.1738 49.3982 76.244 49.4686C76.3142 49.539 76.3978 49.5945 76.4899 49.632C76.582 49.6695 76.6806 49.6882 76.78 49.6869C76.8794 49.6856 76.9776 49.6644 77.0686 49.6245C77.156 49.5762 77.2323 49.5103 77.2927 49.4308C77.3531 49.3514 77.3963 49.2602 77.4194 49.1631C77.4425 49.066 77.4451 48.9652 77.427 48.867C77.4089 48.7689 77.3706 48.6756 77.3143 48.5931Z" fill="#263238"/>
<path d="M72.0355 28.7207C72.0249 28.8621 72.0024 29.0024 71.9682 29.1401C71.9103 29.4281 71.8337 29.8099 71.7413 30.2732L70.987 34.0072C70.6912 35.4673 70.4142 36.785 70.1967 37.7365C70.0887 38.206 69.9995 38.5972 69.9322 38.8617C69.9033 39.0004 69.8646 39.1369 69.8164 39.2702C69.8271 39.1287 69.8496 38.9884 69.8837 38.8508C69.9416 38.5628 70.0183 38.181 70.1106 37.7177C70.3078 36.7443 70.5801 35.4329 70.8649 33.9821C71.1498 32.5314 71.4377 31.2059 71.6474 30.2544C71.7554 29.7849 71.8446 29.3936 71.9119 29.1292C71.9434 28.9903 71.9847 28.8538 72.0355 28.7207Z" fill="#263238"/>
<path d="M79.8522 38.4616C79.8522 38.482 79.5862 38.4475 79.1621 38.4616C78.7379 38.4757 78.1339 38.5336 77.6378 38.9405C77.1417 39.3474 76.9069 39.9077 76.7426 40.2911C76.6681 40.5096 76.5792 40.7229 76.4766 40.9296C76.5117 40.7 76.5731 40.4753 76.6597 40.2598C76.8052 39.8638 77.0321 39.277 77.558 38.8513C77.805 38.6532 78.0949 38.5154 78.4046 38.4491C78.6539 38.3954 78.9088 38.3728 79.1636 38.3818C79.3335 38.3862 79.503 38.4024 79.6707 38.4303C79.7326 38.4289 79.7943 38.4395 79.8522 38.4616Z" fill="#263238"/>
<path d="M80.9525 39.6246C80.9525 39.6465 80.688 39.6246 80.267 39.6246C79.1645 39.6495 78.0879 39.9635 77.1449 40.5354C76.7834 40.7545 76.5768 40.9188 76.5643 40.9016C76.5518 40.8844 76.605 40.8484 76.6942 40.7686C76.8218 40.6556 76.9567 40.551 77.098 40.4556C78.0338 39.8282 79.1406 39.5051 80.267 39.5307C80.4358 39.5335 80.6041 39.5476 80.771 39.573C80.8339 39.58 80.8953 39.5974 80.9525 39.6246Z" fill="#263238"/>
<path d="M55.5535 48.3224C55.5363 48.3537 55.1904 48.1894 54.7554 48.0094C54.3203 47.8294 53.9619 47.6964 53.9729 47.6636C53.9839 47.6307 54.3641 47.7089 54.8055 47.8936C55.2468 48.0783 55.5707 48.2927 55.5535 48.3224Z" fill="#263238"/>
<path d="M55.9478 45.9265C55.9666 45.9578 55.3923 46.3193 54.7428 46.8405C54.0933 47.3616 53.6098 47.8389 53.5832 47.8139C53.5566 47.7888 54.0041 47.2693 54.6646 46.7434C55.325 46.2176 55.9259 45.8984 55.9478 45.9265Z" fill="#263238"/>
<g opacity="0.3">
<path d="M76.3055 40.6714C76.1731 40.2031 76.1926 39.7049 76.3614 39.2485C76.5301 38.792 76.8393 38.4009 77.2445 38.1314C77.4125 38.0052 77.6229 37.9491 77.8314 37.9749C78.0333 38.0187 78.2007 38.2504 78.1115 38.4444C78.0377 38.5547 77.9325 38.6403 77.8095 38.6901C77.4374 38.9265 77.1493 39.2743 76.9863 39.6839C76.8272 40.0916 76.7113 40.5149 76.6405 40.9468" fill="black"/>
</g>
<g opacity="0.3">
<path d="M54.7578 32.313C54.7969 32.4429 55.6498 32.5728 55.7985 32.939C55.9472 33.3052 55.8752 33.709 55.7688 34.0846C55.6624 34.4602 55.5246 34.8373 55.5513 35.2254C55.5982 35.9234 56.1491 36.468 56.6639 36.9469C58.1006 38.2693 59.8565 39.7044 61.2947 41.0268C60.0208 39.4023 58.3588 37.7184 56.9519 36.2098C56.7263 36.0025 56.5508 35.7468 56.4386 35.4617C56.3275 35.094 56.4386 34.7012 56.5466 34.335L56.9785 32.8748C57.0161 32.7496 57.0959 32.5399 57.1162 32.4711C56.94 32.4341 56.7609 32.4121 56.581 32.4053C56.581 32.4053 55.3134 32.2708 54.7578 32.324" fill="black"/>
</g>
<path d="M78.5676 48.7203C78.4978 48.661 78.4358 48.5932 78.3829 48.5184L77.9134 47.9488C77.5097 47.4699 76.9369 46.8204 76.2859 46.1193C75.6348 45.4182 75.0261 44.8032 74.5769 44.3666L74.0433 43.8501C73.9728 43.7918 73.9097 43.725 73.8555 43.6514C73.9345 43.6954 74.0084 43.7479 74.0761 43.8079C74.2123 43.919 74.4063 44.0833 74.638 44.2961C75.1074 44.7171 75.7225 45.3275 76.3766 46.0286C77.0308 46.7297 77.5942 47.3916 77.9807 47.8877C78.1764 48.1334 78.3266 48.3385 78.4283 48.4824C78.4837 48.5561 78.5304 48.636 78.5676 48.7203Z" fill="#263238"/>
<path d="M71.5485 47.1895L71.356 47.3287L68.0352 48.9594C68.0352 48.9594 69.8114 53.2412 70.3075 53.5855C70.8036 53.9298 73.8475 50.1097 73.8475 50.1097L71.5485 47.1895Z" fill="#9D6054"/>
<path d="M51.0561 27.5068C50.5303 27.6492 47.5052 33.2393 47.5052 33.2393L44.5975 35.6556L43.4003 31.8997C43.3996 31.8961 43.3976 31.8929 43.3947 31.8906C43.3919 31.8883 43.3883 31.8871 43.3847 31.8872H39.9699C39.9511 31.9044 38.7539 32.0437 38.7539 32.0593L39.1984 37.5258C39.1984 37.5258 40.8494 42.9453 41.7868 43.4883C42.7242 44.0314 45.682 42.9453 47.1609 42.4038C48.6398 41.8623 52.7025 37.0344 52.7025 37.0344L51.0561 27.5068Z" fill="#0CAA6A"/>
<path d="M52.4099 37.3828C52.4758 37.267 52.5238 37.142 52.5523 37.0119C52.6484 36.6634 52.7149 36.3074 52.7511 35.9477C52.8615 34.7654 52.8699 33.5758 52.7761 32.3921C52.7538 31.7355 52.6689 31.0826 52.5226 30.4421C52.3979 29.9182 52.207 29.4123 51.9545 28.9366C51.7859 28.616 51.5805 28.3161 51.3426 28.043C51.2624 27.9365 51.1657 27.8436 51.0562 27.7676C51.0265 27.7911 51.4396 28.1886 51.8387 28.9976C52.068 29.4709 52.2413 29.9694 52.3551 30.4828C52.4896 31.1153 52.5682 31.7583 52.5899 32.4046C52.6804 33.5794 52.6908 34.759 52.6212 35.9352C52.5586 36.8381 52.3817 37.3718 52.4099 37.3828Z" fill="#263238"/>
<path d="M47.8204 33.3641C47.8095 33.422 48.6373 33.4815 49.4183 34.0715C50.1992 34.6615 50.5137 35.4236 50.5576 35.3955C50.5779 35.3955 50.5356 35.1858 50.3791 34.8915C50.1683 34.5112 49.8785 34.1803 49.5292 33.9212C49.1799 33.6621 48.7793 33.4807 48.3541 33.3892C48.0286 33.3234 47.822 33.3422 47.8204 33.3641Z" fill="#263238"/>
<path d="M48.2588 40.0362C48.2807 40.0362 48.2275 39.7029 48.0725 39.188C47.8708 38.5156 47.5593 37.881 47.1508 37.3101C46.7288 36.7401 46.1823 36.2739 45.5529 35.947C45.0709 35.7013 44.7485 35.6168 44.7423 35.634C44.736 35.6512 45.0349 35.7905 45.4872 36.0628C46.0761 36.4116 46.5904 36.8732 47.0005 37.4212C47.3944 37.982 47.7103 38.5938 47.9395 39.2397C48.1273 39.728 48.2259 40.0441 48.2588 40.0362Z" fill="#263238"/>
<path d="M41.3711 41.2403C41.3711 41.2497 41.4384 41.3045 41.5949 41.3342C41.8185 41.3688 42.0474 41.3321 42.249 41.2293C42.5424 41.0745 42.7892 40.8444 42.9642 40.5627C43.1813 40.2326 43.3608 39.8793 43.4995 39.5094C43.7521 38.837 43.867 38.1207 43.8375 37.403C43.814 36.8537 43.7107 36.5266 43.6919 36.5313C43.6732 36.536 43.7154 36.8693 43.7045 37.4046C43.6939 38.0994 43.5653 38.7873 43.3242 39.439C43.03 40.1886 42.6497 40.8647 42.1896 41.1104C41.9397 41.2462 41.6507 41.2921 41.3711 41.2403Z" fill="#263238"/>
<g opacity="0.4">
<path d="M44.7852 35.6475C45.7278 35.9136 46.5961 36.3938 47.3226 37.0507C48.049 37.7077 48.6138 38.5235 48.9731 39.4347C49.0497 39.6366 49.1076 39.8917 48.9558 40.045C48.804 40.1984 48.5396 40.1389 48.3909 39.9903C48.2579 39.8267 48.1637 39.6352 48.1154 39.43C47.8375 38.6172 47.3968 37.8697 46.8201 37.2331C46.2435 36.5964 45.5431 36.0841 44.7617 35.7273" fill="black"/>
</g>
<g opacity="0.3">
<path d="M43.3847 31.8936L38.7539 32.0657C39.0151 32.7955 39.5484 33.3961 40.2422 33.7418C40.9245 34.0642 41.7133 33.9531 42.3627 33.5681C43.0122 33.1831 43.4488 32.4679 43.3847 31.8936Z" fill="black"/>
</g>
<path d="M70.4412 29.7656C70.0717 30.0315 69.6865 30.2751 69.2878 30.4949C68.9033 30.7377 68.5046 30.9572 68.0938 31.1522C68.463 30.8863 68.8482 30.6432 69.2471 30.4245C69.6319 30.1816 70.0306 29.9616 70.4412 29.7656Z" fill="white"/>
<path d="M69.6333 36.734C69.3881 36.4077 69.1654 36.0653 68.9666 35.7089C68.7432 35.3669 68.5429 35.0104 68.3672 34.6416C68.6131 34.9682 68.8364 35.3112 69.0354 35.6682C69.2589 36.0094 69.4586 36.3655 69.6333 36.734Z" fill="white"/>
<path d="M67.7696 38.2158C67.5389 38.4793 67.2877 38.7242 67.0185 38.9482C66.7672 39.1927 66.4972 39.4171 66.2109 39.6196C66.443 39.3568 66.6946 39.1119 66.9637 38.8872C67.2156 38.644 67.4849 38.4196 67.7696 38.2158Z" fill="white"/>
<path d="M64.1971 44.5972C63.9688 44.1847 63.7645 43.7594 63.5852 43.3234C63.3809 42.8984 63.2012 42.4621 63.0469 42.0166C63.2744 42.4295 63.4787 42.8548 63.6588 43.2905C63.8631 43.7154 64.0428 44.1517 64.1971 44.5972Z" fill="white"/>
<path d="M58.0169 41.3203C57.6688 41.6999 57.3005 42.0604 56.9136 42.4001C56.5455 42.7607 56.1584 43.1013 55.7539 43.4205C56.1003 43.042 56.466 42.6816 56.8494 42.3407C57.221 41.981 57.6106 41.6404 58.0169 41.3203Z" fill="white"/>
<path d="M55.8854 40.3447C55.5831 40.0046 55.3009 39.6472 55.0403 39.2742C54.7569 38.9175 54.4956 38.5438 54.2578 38.1553C54.5604 38.4955 54.8431 38.8529 55.1045 39.2257C55.387 39.5827 55.6478 39.9563 55.8854 40.3447Z" fill="white"/>
<path d="M55.4426 33.5215C55.2657 33.7575 55.0665 33.9761 54.8479 34.1741C54.6516 34.3931 54.4358 34.5937 54.2031 34.7735C54.3806 34.5379 54.5797 34.3194 54.7978 34.1209C54.9941 33.9019 55.2099 33.7013 55.4426 33.5215Z" fill="white"/>
<path d="M53.8915 29.331C53.7619 29.1007 53.657 28.8573 53.5785 28.6049C53.4736 28.3626 53.3949 28.1097 53.3438 27.8506C53.4718 28.0817 53.5766 28.3249 53.6567 28.5767C53.76 28.8197 53.8386 29.0724 53.8915 29.331Z" fill="white"/>
<path d="M51.2507 33.6139C51.1628 33.5168 51.089 33.4077 51.0316 33.2899C50.7196 32.74 50.5077 32.1392 50.4056 31.5153C50.3777 31.3868 50.3666 31.2553 50.3727 31.124C50.4131 31.248 50.4429 31.3753 50.4619 31.5043C50.5959 32.1146 50.8062 32.7056 51.0879 33.2633C51.15 33.3764 51.2043 33.4935 51.2507 33.6139Z" fill="white"/>
<path d="M49.8478 37.3501C49.7208 37.2938 49.6015 37.2218 49.4925 37.1357C49.2159 36.9442 48.9543 36.7318 48.71 36.5004C48.4682 36.2695 48.2438 36.021 48.0386 35.757C47.9474 35.6521 47.8701 35.5358 47.8086 35.4111C47.9084 35.5082 48.0005 35.6128 48.084 35.7241C48.2499 35.9182 48.4862 36.178 48.7664 36.4471C49.0465 36.7163 49.3188 36.9385 49.5207 37.095C49.6361 37.1715 49.7455 37.2568 49.8478 37.3501Z" fill="white"/>
<path d="M45.4839 40.0107C45.4995 40.0311 45.1553 40.3081 44.8297 40.7385C44.5042 41.1688 44.3243 41.571 44.3008 41.5601C44.3966 41.2407 44.5564 40.9441 44.7703 40.6884C44.9607 40.4172 45.2033 40.1869 45.4839 40.0107Z" fill="white"/>
<path d="M46.7183 40.0076C46.585 39.4452 46.5054 38.8714 46.4805 38.2939C46.6138 38.8563 46.6935 39.4301 46.7183 40.0076Z" fill="white"/>
<path d="M42.2718 37.2947C41.8463 37.0433 41.4351 36.7685 41.0402 36.4715C40.6292 36.1968 40.2337 35.8995 39.8555 35.5811C40.2809 35.8331 40.692 36.1085 41.0871 36.4058C41.4981 36.68 41.8936 36.9768 42.2718 37.2947Z" fill="white"/>
<path d="M57.4514 48.3628C57.1014 47.8693 56.796 47.3456 56.5391 46.7979C56.7257 47.0375 56.8902 47.2937 57.0305 47.5631C57.1939 47.8169 57.3348 48.0845 57.4514 48.3628Z" fill="white"/>
<path d="M60.831 45.8516C60.5176 45.7592 60.2124 45.6409 59.9186 45.4979C59.6141 45.3806 59.32 45.2382 59.0391 45.0723C59.3527 45.1634 59.6579 45.2812 59.9514 45.4244C60.2564 45.541 60.5507 45.684 60.831 45.8516Z" fill="white"/>
<path d="M64.1826 47.7197C63.8948 47.9606 63.5899 48.1802 63.2703 48.377C62.966 48.5971 62.6459 48.7943 62.3125 48.967C62.6003 48.7262 62.9053 48.5065 63.2249 48.3097C63.5295 48.0903 63.8496 47.8931 64.1826 47.7197Z" fill="white"/>
<path d="M66.9084 46.7862C66.885 46.7768 67.0571 46.3824 67.1416 45.8644C67.2261 45.3464 67.1948 44.9176 67.2199 44.916C67.2863 45.2334 67.2863 45.5611 67.2199 45.8785C67.1808 46.1995 67.0747 46.5088 66.9084 46.7862Z" fill="white"/>
<path d="M55.6146 53.3321C55.5218 53.278 55.4378 53.2099 55.3658 53.1302C55.1793 52.9515 55.0067 52.759 54.8493 52.5543C54.6911 52.3503 54.5483 52.1348 54.4221 51.9095C54.3635 51.8197 54.3187 51.7215 54.2891 51.6184C54.311 51.6059 54.5457 52.0331 54.9151 52.5042C55.2844 52.9753 55.6287 53.3149 55.6146 53.3321Z" fill="white"/>
<path d="M53.4207 57.6221C53.1493 57.7524 52.8664 57.8572 52.5756 57.9351C52.2938 58.039 52.003 58.1171 51.707 58.1682C51.9791 58.0396 52.2619 57.9348 52.5521 57.8552C52.834 57.7513 53.1247 57.6733 53.4207 57.6221Z" fill="white"/>
<path d="M57.5585 60.425C57.4578 60.3506 57.3664 60.2644 57.2862 60.1683C57.0821 59.947 56.8958 59.7099 56.729 59.4594C56.5612 59.2108 56.4136 58.9491 56.2877 58.6769C56.2286 58.5664 56.1844 58.4485 56.1562 58.3263C56.1797 58.3154 56.4066 58.8397 56.7963 59.4218C57.186 60.004 57.5772 60.4062 57.5585 60.425Z" fill="white"/>
<path d="M60.4389 53.4912C60.1946 53.4529 59.9553 53.3878 59.7253 53.2971C59.4863 53.2315 59.255 53.1407 59.0352 53.0264C59.28 53.0645 59.5198 53.1296 59.7503 53.2204C59.989 53.2855 60.2199 53.3763 60.4389 53.4912Z" fill="white"/>
<path d="M65.2058 54.3604C64.9472 54.6135 64.6693 54.8464 64.3748 55.0568C64.0964 55.2869 63.8014 55.4961 63.4922 55.6827C63.7512 55.4293 64.0296 55.1965 64.3248 54.9863C64.6025 54.756 64.897 54.5468 65.2058 54.3604Z" fill="white"/>
<path d="M68.1112 53.4666C67.8043 53.1024 67.5185 52.7209 67.2551 52.3241C66.9711 51.9434 66.7098 51.5463 66.4727 51.1348C66.7789 51.4995 67.0647 51.8809 67.3287 52.2772C67.6127 52.6579 67.874 53.0551 68.1112 53.4666Z" fill="white"/>
<path d="M68 59.41C67.5841 59.4514 67.1658 59.465 66.7481 59.4507C66.3303 59.4651 65.912 59.4515 65.4961 59.41C65.9121 59.3694 66.3303 59.3558 66.7481 59.3693C67.1658 59.3559 67.584 59.3695 68 59.41Z" fill="white"/>
<path d="M63.1633 60.7343C63.1997 60.2998 63.264 59.868 63.3558 59.4417C63.4209 59.0103 63.5124 58.5833 63.6296 58.1631C63.5255 59.0289 63.3687 59.8876 63.1602 60.7343H63.1633Z" fill="white"/>
<path d="M70.7804 60.897C70.666 60.5025 70.5771 60.101 70.5144 59.6951C70.4255 59.2938 70.3633 58.8871 70.3281 58.4775C70.4447 58.8715 70.5336 59.2731 70.5942 59.6794C70.683 60.0807 70.7453 60.4875 70.7804 60.897Z" fill="white"/>
<path d="M73.8948 47.7228C73.8302 47.3373 73.7926 46.9477 73.7821 46.5569C73.7443 46.1674 73.7334 45.7758 73.7492 45.3848C73.8148 45.7702 73.853 46.1598 73.8635 46.5507C73.9003 46.9402 73.9108 47.3319 73.8948 47.7228Z" fill="white"/>
<path d="M78.6854 44.5918C78.3174 44.4467 77.9598 44.2768 77.6149 44.0831C77.2577 43.913 76.9126 43.7185 76.582 43.501C76.9498 43.647 77.3074 43.8174 77.6525 44.0112C78.0098 44.1805 78.355 44.3745 78.6854 44.5918Z" fill="white"/>
<path d="M80.6335 41.4863C80.7018 41.8843 80.7442 42.2863 80.7603 42.6898C80.8018 43.0921 80.817 43.4968 80.8057 43.9011C80.7356 43.5028 80.6932 43.1002 80.6789 42.6961C80.6355 42.2944 80.6203 41.8901 80.6335 41.4863Z" fill="white"/>
<path d="M76.727 35.7924C76.4556 36.0819 76.1649 36.3527 75.8569 36.603C75.5667 36.8733 75.2582 37.1233 74.9336 37.3511C75.4946 36.7887 76.0938 36.2658 76.727 35.7861V35.7924Z" fill="white"/>
<path d="M73.5934 35.8003C73.5557 35.6634 73.5337 35.5227 73.5277 35.3808C73.4938 35.0408 73.4781 34.6991 73.4807 34.3574C73.4831 34.0153 73.504 33.6736 73.5433 33.3339C73.5511 33.1923 73.5752 33.052 73.6153 32.916C73.6229 33.0576 73.6177 33.1995 73.5997 33.3401C73.584 33.5999 73.5668 33.9661 73.5637 34.3589C73.5606 34.7517 73.5731 35.1164 73.584 35.3777C73.5994 35.518 73.6025 35.6594 73.5934 35.8003Z" fill="white"/>
<path d="M63.7947 36.6504C63.4735 37.1525 63.1068 37.624 62.6992 38.0589C62.8479 37.8017 63.0197 37.5587 63.2125 37.3327C63.3858 37.0884 63.5807 36.86 63.7947 36.6504Z" fill="white"/>
<path d="M65.6764 31.981C65.6495 31.7208 65.6495 31.4586 65.6764 31.1985C65.675 30.9357 65.7013 30.6734 65.7546 30.416C65.7849 30.9389 65.7592 31.4635 65.678 31.981H65.6764Z" fill="white"/>
<path d="M59.5855 35.3205C59.2201 35.3366 58.854 35.3267 58.49 35.2907C58.1226 35.2807 57.7565 35.2435 57.3945 35.1796C57.7599 35.1616 58.1261 35.1715 58.49 35.2094C58.8575 35.2177 59.2238 35.2548 59.5855 35.3205Z" fill="white"/>
<path d="M57.4922 30.4243C57.4912 30.1859 57.517 29.9481 57.5689 29.7154C57.5953 29.4787 57.6478 29.2457 57.7254 29.0205C57.7284 29.259 57.7032 29.4969 57.6503 29.7294C57.6238 29.9662 57.5708 30.1993 57.4922 30.4243Z" fill="white"/>
<path d="M69.4858 28.5409C69.0065 28.4572 68.5382 28.3196 68.0898 28.1309C68.3316 28.1597 68.5693 28.2154 68.7988 28.2967C69.0357 28.3538 69.266 28.4356 69.4858 28.5409Z" fill="white"/>
<path d="M82.5453 39.71C82.3447 39.4229 82.1279 39.1475 81.8958 38.8853C81.6432 38.6435 81.3767 38.4167 81.0977 38.2061C81.1974 38.2374 81.2911 38.2856 81.3747 38.3485C81.7979 38.6244 82.1527 38.9932 82.4122 39.4267C82.4713 39.5135 82.5163 39.6091 82.5453 39.71Z" fill="white"/>
<path d="M39.7003 31.9563C39.7003 31.9094 39.6048 30.9156 40.0399 30.1535C40.4749 29.3913 40.8302 27.601 40.8302 27.601C40.9152 27.1093 40.9623 26.6117 40.971 26.1127C40.9617 25.4711 40.8239 24.6792 41.0962 24.4445C41.3685 24.2097 42.3373 23.975 42.3091 25.7058C42.2841 27.1268 42.4781 27.479 42.4781 27.479C42.4781 27.479 44.0337 27.0846 44.1996 27.6746C44.3655 28.2646 44.0525 28.5603 44.0525 28.5603C44.0525 28.5603 44.5767 28.8733 44.4578 29.1754C44.3541 29.3741 44.1765 29.5242 43.9633 29.5932C43.9633 29.5932 44.2262 29.5932 44.0994 30.0784C44.0662 30.2165 44.0041 30.3461 43.9172 30.4586C43.8304 30.571 43.7208 30.6639 43.5955 30.731C43.6495 30.8167 43.6849 30.9128 43.6995 31.0131C43.714 31.1134 43.7074 31.2156 43.68 31.3131C43.5939 31.6699 43.4797 31.7232 43.3388 31.7498C43.198 31.7764 42.4233 31.8734 42.4233 31.8734C42.4135 32.0102 42.3729 32.143 42.3046 32.2619C42.2363 32.3809 42.1421 32.4829 42.029 32.5604L42.1526 32.8484C42.1526 32.8484 42.4656 33.7388 41.2966 33.7874C40.1275 33.8359 39.7832 32.9532 39.7003 31.9563Z" fill="#9D6054"/>
<path d="M40.9728 27.3931C40.9728 27.3931 41.0166 27.365 41.1012 27.329C41.2226 27.2814 41.3528 27.2606 41.483 27.2679C41.6767 27.2827 41.8679 27.3206 42.0527 27.3806C42.1646 27.4141 42.2786 27.4408 42.3938 27.4604C42.5185 27.4799 42.6451 27.4851 42.771 27.4761C43.0292 27.4542 43.2702 27.4213 43.4893 27.3978C43.5906 27.3852 43.6931 27.3852 43.7945 27.3978C43.8811 27.4122 43.9626 27.4488 44.0308 27.5042C44.1303 27.5873 44.1992 27.7014 44.2264 27.8282C44.2467 27.919 44.2436 27.9706 44.2483 27.9706C44.253 27.9706 44.2483 27.9581 44.2483 27.933C44.2518 27.8966 44.2518 27.8599 44.2483 27.8235C44.2271 27.6881 44.1596 27.5642 44.0574 27.4729C43.9843 27.4109 43.8964 27.3689 43.8023 27.3509C43.699 27.3328 43.5936 27.3291 43.4893 27.3399C43.2671 27.3587 43.0198 27.39 42.7725 27.4119C42.5355 27.4256 42.2979 27.3959 42.0714 27.3243C41.8822 27.2646 41.6859 27.2298 41.4877 27.221C41.3528 27.2176 41.2188 27.2454 41.0965 27.3024C41.064 27.3195 41.0331 27.3394 41.0041 27.3618C40.9806 27.3837 40.9713 27.3916 40.9728 27.3931Z" fill="#724A44"/>
<path d="M41.3086 28.3075C41.4414 28.3325 41.5758 28.3482 41.7108 28.3545L42.6826 28.4343C43.0629 28.464 43.4057 28.4922 43.6545 28.5172L43.9471 28.5501C43.9825 28.5583 44.0188 28.562 44.0551 28.5611C43.9274 28.5153 43.7943 28.4864 43.6592 28.475C43.4119 28.439 43.0676 28.4046 42.6873 28.3748C42.307 28.3451 41.9628 28.3247 41.7139 28.3138C41.5792 28.3002 41.4436 28.2981 41.3086 28.3075Z" fill="#724A44"/>
<path d="M40.5742 30.8603C40.5742 30.8603 40.5993 30.8979 40.665 30.9449C40.7598 31.0082 40.8662 31.0523 40.978 31.0747C41.144 31.1056 41.3143 31.1056 41.4803 31.0747C41.6807 31.0352 41.8782 30.983 42.0719 30.9182C42.4225 30.8092 42.7863 30.7486 43.1533 30.7383C43.435 30.7383 43.6087 30.7524 43.6103 30.7383C43.5706 30.726 43.5296 30.7181 43.4882 30.7148C43.3765 30.7013 43.2642 30.6945 43.1517 30.6945C42.7802 30.6914 42.4105 30.7468 42.0562 30.8588C41.8642 30.9217 41.6688 30.974 41.4709 31.0153C41.3111 31.047 41.1468 31.0502 40.9858 31.0247C40.8384 31 40.698 30.944 40.5742 30.8603Z" fill="#724A44"/>
<path d="M40.5586 31.7764C40.5586 31.7764 40.5586 31.8077 40.5742 31.8577C40.6047 31.927 40.6547 31.9857 40.7182 32.0268C40.8119 32.0861 40.9203 32.1181 41.0312 32.1191C41.1641 32.1184 41.2966 32.1059 41.4272 32.0815C41.7042 32.0408 41.9545 31.9986 42.133 31.961C42.2323 31.9472 42.3289 31.9182 42.4193 31.875C42.4193 31.875 42.3067 31.8937 42.1267 31.9188L41.4193 32.0221C41.2917 32.0458 41.1625 32.0599 41.0328 32.0643C40.9294 32.0667 40.8272 32.0413 40.737 31.9908C40.6556 31.9408 40.5929 31.8655 40.5586 31.7764Z" fill="#724A44"/>
<path d="M40.4414 32.2695C40.4971 32.3297 40.5655 32.3768 40.6417 32.4072C40.8222 32.4928 41.0236 32.5243 41.2216 32.4979C41.4196 32.4715 41.6058 32.3884 41.7575 32.2585C41.8249 32.211 41.8788 32.1468 41.914 32.0723C41.914 32.0723 41.8499 32.1396 41.7325 32.2288C41.5801 32.3408 41.402 32.4129 41.2145 32.4385C41.0263 32.4611 40.8355 32.4369 40.6589 32.368C40.5228 32.3133 40.4477 32.2585 40.4414 32.2695Z" fill="#724A44"/>
<path d="M41.3243 29.6929C41.3243 29.7023 41.4698 29.6585 41.7061 29.6241C42.014 29.5812 42.325 29.5639 42.6357 29.5724L43.5747 29.5959C43.7039 29.6053 43.8336 29.6053 43.9628 29.5959C43.8351 29.5738 43.7059 29.5618 43.5763 29.5599C43.3353 29.5458 43.005 29.5255 42.6373 29.5192C42.3227 29.5109 42.0081 29.5345 41.6983 29.5896C41.6046 29.6068 41.5121 29.6298 41.4213 29.6585C41.3571 29.6741 41.3227 29.6882 41.3243 29.6929Z" fill="#724A44"/>
<path d="M56.6992 13.1921C56.8302 12.7241 57.0529 12.2868 57.3543 11.9056C57.6557 11.5243 58.0299 11.2068 58.4551 10.9714C59.3941 10.4612 60.5193 10.3877 61.5631 10.5958C62.607 10.804 63.582 11.2782 64.5037 11.8118C65.0202 12.1107 65.5366 12.4378 65.9122 12.9073C66.5898 13.7602 66.6837 14.9245 66.7495 16.0138C66.8027 16.8948 66.8481 17.8166 66.4756 18.6163C66.3017 18.9832 66.0476 19.3063 65.732 19.5618C65.4164 19.8172 65.0475 19.9984 64.6524 20.0921" fill="#263238"/>
<path d="M66.2554 17.607C66.7686 17.0171 67.1577 16.33 67.3997 15.5866C67.6417 14.8432 67.7316 14.0587 67.6639 13.2798C67.6154 12.7587 67.473 12.2047 67.0708 11.8714C66.8658 11.6992 66.6107 11.5975 66.401 11.43C66.0207 11.1264 65.8329 10.6335 65.4714 10.3064C65.285 10.1384 65.059 10.0206 64.8146 9.964C64.5702 9.90736 64.3154 9.91377 64.0742 9.9826C63.8329 10.0514 63.6131 10.1805 63.4354 10.3575C63.2577 10.5346 63.1279 10.754 63.0582 10.995C62.8673 11.657 63.1521 12.3518 63.4307 12.9809L64.7233 15.8965C64.8658 16.2706 65.066 16.6202 65.3165 16.9325C65.4431 17.0877 65.6035 17.2118 65.7856 17.2954C65.9676 17.3789 66.1663 17.4197 66.3666 17.4145" fill="#263238"/>
<path d="M57.1388 12.5396C56.3661 13.3757 55.9013 14.4502 55.821 15.5858C55.7408 16.7215 56.05 17.8506 56.6975 18.787C57.2395 16.3965 57.9893 14.0578 58.9385 11.7979" fill="#263238"/>
<path d="M56.2129 15.7903C56.3255 14.0563 57.4789 11.9326 59.2051 12.1189L63.202 13.1392C63.8169 13.2956 64.3654 13.6451 64.7668 14.1364C65.1682 14.6277 65.4014 15.2348 65.4321 15.8685C65.4321 15.9343 65.4431 15.8529 65.4415 15.903L65.0362 26.3554L62.3413 33.1333L58.8984 25.961C58.8984 25.1175 58.8984 24.4446 58.8984 24.4493C58.8984 24.454 56.6839 24.0768 56.2379 21.1863C56.0094 19.7497 56.0814 17.7152 56.2129 15.7903Z" fill="#9D6054"/>
<path d="M57.2813 17.7857C57.28 17.8823 57.3166 17.9756 57.3833 18.0455C57.4501 18.1154 57.5415 18.1564 57.6381 18.1597C57.6852 18.1638 57.7327 18.1583 57.7777 18.1436C57.8226 18.1289 57.8642 18.1053 57.8998 18.0741C57.9355 18.043 57.9645 18.0051 57.9851 17.9625C58.0058 17.9199 58.0176 17.8736 58.0199 17.8264C58.0212 17.73 57.9848 17.6369 57.9184 17.5671C57.8521 17.4972 57.761 17.456 57.6647 17.4523C57.6175 17.4485 57.5701 17.4541 57.5251 17.4689C57.4801 17.4837 57.4386 17.5073 57.4028 17.5383C57.3671 17.5694 57.338 17.6073 57.3171 17.6497C57.2962 17.6922 57.284 17.7384 57.2813 17.7857Z" fill="#263238"/>
<path d="M56.7211 17.0158C56.7665 17.0644 57.0482 16.8593 57.4457 16.8593C57.8432 16.8593 58.1374 17.0612 58.1796 17.0158C58.2015 16.9939 58.1546 16.9063 58.0231 16.814C57.8509 16.6942 57.646 16.6303 57.4363 16.6309C57.2287 16.6303 57.0262 16.6949 56.8572 16.8155C56.7399 16.9063 56.6976 16.9939 56.7211 17.0158Z" fill="#263238"/>
<path d="M61 17.7857C60.9991 17.8822 61.0359 17.9753 61.1025 18.0451C61.1692 18.1149 61.2604 18.156 61.3568 18.1597C61.404 18.1635 61.4515 18.1579 61.4964 18.1431C61.5414 18.1284 61.583 18.1048 61.6187 18.0737C61.6544 18.0427 61.6836 18.0048 61.7044 17.9623C61.7253 17.9198 61.7375 17.8736 61.7402 17.8264C61.7411 17.7299 61.7044 17.6368 61.6377 17.567C61.5711 17.4971 61.4799 17.456 61.3834 17.4523C61.3363 17.4485 61.2888 17.4541 61.2438 17.4689C61.1989 17.4837 61.1573 17.5073 61.1216 17.5383C61.0859 17.5694 61.0567 17.6073 61.0358 17.6497C61.015 17.6922 61.0028 17.7384 61 17.7857Z" fill="#263238"/>
<path d="M60.6417 17.0998C60.6887 17.1483 60.9704 16.9433 61.3679 16.9433C61.7654 16.9433 62.0596 17.1452 62.1019 17.0998C62.1238 17.0779 62.0768 16.9903 61.9454 16.898C61.7726 16.778 61.5672 16.7141 61.3569 16.7149C61.1496 16.7143 60.9474 16.7795 60.7795 16.9011C60.6621 16.9903 60.6214 17.0779 60.6417 17.0998Z" fill="#263238"/>
<path d="M59.1888 20.062C59.1888 20.0385 58.9431 19.9962 58.5425 19.943C58.4408 19.9321 58.3438 19.9117 58.3265 19.8429C58.3183 19.7375 58.3423 19.6322 58.3954 19.5408C58.4924 19.2951 58.5926 19.0369 58.699 18.7583C59.1184 17.6629 59.4236 16.7489 59.3798 16.7317C59.336 16.7145 58.9572 17.5956 58.5363 18.6989C58.4319 18.9712 58.3354 19.232 58.2467 19.4813C58.1825 19.6039 58.1636 19.7453 58.1935 19.8804C58.207 19.9176 58.2291 19.9512 58.2579 19.9784C58.2867 20.0055 58.3215 20.0256 58.3594 20.0369C58.4161 20.0522 58.4745 20.06 58.5331 20.0604C58.9369 20.0745 59.1873 20.076 59.1888 20.062Z" fill="#263238"/>
<path d="M62.735 23.4199C62.735 23.4199 61.796 25.4043 58.9023 25.1289V24.4434C60.25 24.4636 61.5768 24.1093 62.735 23.4199Z" fill="#724A44"/>
<path d="M59.3545 21.0152C59.43 20.9205 59.5284 20.8466 59.6403 20.8003C59.7523 20.754 59.8742 20.737 59.9945 20.7507C60.0825 20.7587 60.168 20.7844 60.2457 20.8264C60.3235 20.8683 60.3919 20.9257 60.4468 20.9948C60.4991 21.0607 60.53 21.141 60.5354 21.2249C60.5407 21.3089 60.5202 21.3924 60.4765 21.4643C60.4125 21.536 60.3285 21.5868 60.2354 21.6103C60.1422 21.6337 60.0441 21.6287 59.9538 21.5958C59.7652 21.5262 59.5923 21.4198 59.4452 21.2828C59.4 21.2514 59.3612 21.2115 59.331 21.1654C59.3164 21.1434 59.3086 21.1175 59.3086 21.0911C59.3086 21.0646 59.3164 21.0388 59.331 21.0167" fill="#724A44"/>
<path d="M60.3598 20.3331C60.2941 20.3331 60.2925 20.7619 59.9216 21.0686C59.5507 21.3753 59.0906 21.3268 59.0859 21.3816C59.0859 21.4098 59.1892 21.4661 59.3833 21.4724C59.6368 21.4752 59.8835 21.3901 60.0813 21.2314C60.2701 21.0776 60.3919 20.8566 60.4209 20.6148C60.4381 20.4379 60.3896 20.3299 60.3598 20.3331Z" fill="#263238"/>
<path d="M60.545 15.9321C60.5841 16.0401 60.9816 15.99 61.4496 16.0479C61.9175 16.1058 62.2962 16.2326 62.3588 16.1356C62.3854 16.0902 62.3197 15.9869 62.1679 15.882C61.9644 15.7531 61.7343 15.672 61.495 15.6449C61.2556 15.6178 61.0132 15.6453 60.786 15.7255C60.6201 15.796 60.5278 15.8805 60.545 15.9321Z" fill="#263238"/>
<path d="M56.8666 15.8633C56.9371 15.9541 57.2109 15.8633 57.5411 15.8633C57.8714 15.8633 58.1515 15.9243 58.2157 15.8304C58.2454 15.7851 58.2 15.6943 58.0779 15.6082C57.9163 15.4998 57.7247 15.4451 57.5302 15.4517C57.3361 15.4537 57.1476 15.5173 56.9918 15.6333C56.8807 15.7256 56.8416 15.8179 56.8666 15.8633Z" fill="#263238"/>
<path d="M56.9979 13.1509C57.1747 12.7159 57.652 12.4545 58.1215 12.4311C58.5934 12.4304 59.0556 12.5651 59.4533 12.8192C61.1748 13.8145 62.1419 15.7926 63.843 16.8192C64.2609 17.0728 64.7226 17.2668 65.0778 17.6017C65.4331 17.9366 65.6647 18.4718 65.4675 18.9194C65.711 18.6172 65.9097 18.2814 66.0575 17.9225C66.1304 17.7422 66.1639 17.5484 66.1558 17.3541C66.1478 17.1597 66.0982 16.9694 66.0105 16.7958C65.8634 16.5407 65.6036 16.3466 65.5317 16.0602C65.4691 15.8083 65.5692 15.5469 65.5583 15.2871C65.5287 15.024 65.4375 14.7714 65.2922 14.55C64.6271 13.3716 63.71 12.3074 62.53 11.6439C61.7604 11.1983 60.884 10.9705 59.9948 10.985C59.1018 11.0059 58.2458 11.3456 57.5816 11.9428C57.2013 12.298 56.7991 12.6642 56.9979 13.1463" fill="#263238"/>
<path d="M65.4445 18.9312C65.4445 18.9312 65.4773 18.8921 65.5337 18.8139C65.6169 18.6995 65.6804 18.572 65.7215 18.4367C65.8566 17.9301 65.8009 17.3916 65.565 16.9234C65.4351 16.6213 65.252 16.3099 65.0626 15.9688C64.8649 15.6028 64.6878 15.2261 64.5321 14.8404C64.3657 14.4156 64.1636 14.0057 63.928 13.615C63.6658 13.2037 63.3429 12.8343 62.9702 12.5196C62.2503 11.9011 61.3715 11.4966 60.4334 11.3521C59.67 11.2175 58.8835 11.3236 58.183 11.6557C57.7164 11.8921 57.3371 12.2708 57.1 12.7371C57.0345 12.8634 56.9821 12.9961 56.9435 13.133C56.9201 13.2269 56.9091 13.277 56.9076 13.277C56.9058 13.2645 56.9058 13.2519 56.9076 13.2394C56.9118 13.2026 56.9181 13.166 56.9263 13.1299C56.957 12.9901 57.0032 12.8541 57.064 12.7246C57.2949 12.2456 57.6757 11.855 58.1486 11.6119C58.8569 11.2674 59.6555 11.1536 60.4319 11.2864C61.3836 11.4308 62.2756 11.8397 63.0062 12.4664C63.3846 12.7869 63.7113 13.1638 63.975 13.5837C64.2126 13.9776 64.4158 14.3912 64.5822 14.8201C64.7351 15.2039 64.9091 15.579 65.1033 15.9437C65.288 16.2849 65.4711 16.601 65.601 16.9077C65.8365 17.3866 65.8862 17.9359 65.7402 18.4492C65.6962 18.5861 65.6278 18.7138 65.5384 18.8264C65.5104 18.8642 65.4789 18.8993 65.4445 18.9312Z" fill="#455A64"/>
<path d="M66.7804 17.4158C66.7783 17.3882 66.7783 17.3604 66.7804 17.3328C66.7804 17.2713 66.7835 17.193 66.7898 17.0981C66.7976 16.8931 66.807 16.5973 66.7898 16.2326C66.7804 15.8058 66.7338 15.3806 66.6505 14.9619C66.5529 14.4505 66.3387 13.9685 66.0245 13.5534C65.6933 13.1493 65.3221 12.7796 64.9165 12.4501C64.5503 12.1371 64.2107 11.8633 63.9134 11.6489C63.616 11.4345 63.3672 11.278 63.1903 11.1794L62.9869 11.062C62.94 11.0338 62.9165 11.0197 62.918 11.0166C62.944 11.0254 62.9691 11.0364 62.9932 11.0495C63.0432 11.0714 63.1137 11.1074 63.2044 11.1559C63.4595 11.2934 63.7062 11.446 63.9431 11.6129C64.2436 11.8226 64.5894 12.0823 64.9588 12.4047C65.3705 12.735 65.7466 13.1074 66.0808 13.5159C66.4001 13.9415 66.6145 14.4364 66.7068 14.9603C66.7879 15.3834 66.8303 15.8129 66.8336 16.2436C66.8336 16.6114 66.8211 16.9072 66.8039 17.1122C66.8039 17.2139 66.7882 17.2937 66.782 17.3469C66.7841 17.3698 66.7836 17.393 66.7804 17.4158Z" fill="#455A64"/>
<path d="M65.5096 10.4346C65.5518 10.5392 65.5787 10.6493 65.5894 10.7617C65.632 11.0307 65.6451 11.3036 65.6285 11.5754C65.612 11.8475 65.5669 12.1172 65.4939 12.3798C65.4693 12.4893 65.4293 12.5947 65.375 12.6928C65.4614 12.3229 65.5221 11.9475 65.5565 11.5692C65.5676 11.1903 65.5519 10.8112 65.5096 10.4346Z" fill="#455A64"/>
<path d="M67.5443 12.5742C67.5279 12.6603 67.4944 12.7423 67.4457 12.8152C67.3397 12.9994 67.1963 13.1593 67.0247 13.2847C66.8546 13.4099 66.6608 13.4993 66.4551 13.5476C66.371 13.5732 66.2824 13.5801 66.1953 13.568C66.2759 13.5406 66.3579 13.5176 66.441 13.4991C66.8326 13.3789 67.1718 13.1295 67.4035 12.7917C67.4456 12.7162 67.4926 12.6435 67.5443 12.5742Z" fill="#455A64"/>
<path d="M67.687 14.5168C67.5063 14.5978 67.3086 14.6332 67.1111 14.6201C66.9133 14.6224 66.7181 14.5756 66.543 14.4839C66.543 14.4605 66.7996 14.5371 67.1126 14.5497C67.4256 14.5622 67.6823 14.4933 67.687 14.5168Z" fill="#455A64"/>
<path d="M66.4312 19.5677C66.3623 19.5333 66.3968 19.3424 66.4061 19.0325C66.4145 18.8612 66.3939 18.6898 66.3451 18.5254C66.3305 18.485 66.3127 18.4457 66.2919 18.4081C66.2813 18.3903 66.2698 18.373 66.2575 18.3564C66.2481 18.3408 66.2262 18.311 66.2105 18.2891C66.1382 18.1911 66.0587 18.0985 65.9726 18.0121C65.9023 17.9369 65.817 17.8772 65.7223 17.8369C65.691 17.8259 65.6831 17.8369 65.6988 17.8369L65.5971 17.8556L65.4875 17.8822C65.3452 17.9181 65.2075 17.9706 65.0775 18.0387C65.0067 18.0743 64.9377 18.1135 64.8709 18.1561L64.8177 18.1905L64.7285 18.2438C64.6686 18.2759 64.607 18.3047 64.5438 18.3298C64.2869 18.4361 64.0093 18.4832 63.7316 18.4675C63.5632 18.4575 63.3981 18.4161 63.2449 18.3455L63.1823 18.3142L63.1322 18.2844C63.0987 18.2654 63.0663 18.2445 63.0352 18.2218C62.9718 18.1782 62.9117 18.1301 62.8552 18.0779C62.6509 17.8848 62.4834 17.6563 62.3607 17.4034C62.2433 17.1749 62.1557 16.9511 62.0712 16.7461C61.7667 16.0071 61.3479 15.3205 60.8302 14.7116C60.4033 14.207 59.9166 13.7561 59.381 13.3689C59.0341 13.0981 58.6505 12.8778 58.2417 12.7147C57.9537 12.6067 57.7722 12.5786 57.755 12.5019C57.7378 12.4252 57.9271 12.3141 58.3043 12.3047C58.8203 12.3237 59.3241 12.4676 59.7722 12.7241C60.4363 13.064 61.0392 13.512 61.5563 14.0496C62.1984 14.7116 62.7079 15.4903 63.0571 16.3439C63.1463 16.5614 63.223 16.7586 63.3059 16.9276C63.3714 17.0716 63.4603 17.2038 63.5689 17.3189C63.5903 17.3404 63.6133 17.3603 63.6377 17.3783C63.6487 17.3881 63.6608 17.3965 63.6737 17.4034L63.6909 17.4159C63.7275 17.435 63.7673 17.4472 63.8083 17.4519C63.9366 17.4645 64.0662 17.4501 64.1886 17.4096C64.2178 17.4006 64.2465 17.3902 64.2747 17.3783L64.3138 17.3595L64.3858 17.3204C64.4844 17.2688 64.5845 17.2218 64.6878 17.1796C64.889 17.099 65.0992 17.0428 65.3138 17.0121L65.4625 16.9949H65.536H65.6174C65.7769 16.987 65.9353 17.0244 66.0744 17.1029C66.2607 17.2092 66.4211 17.3557 66.5439 17.5317C66.6404 17.6641 66.7237 17.8056 66.7927 17.9542C66.8099 17.9918 66.8224 18.0184 66.8396 18.0622C66.8569 18.106 66.8741 18.1467 66.885 18.189C66.9067 18.2667 66.9209 18.3464 66.9273 18.4269C66.9432 18.668 66.9014 18.9094 66.8052 19.1311C66.6597 19.4691 66.4922 19.5928 66.4312 19.5677Z" fill="#263238"/>
<path d="M65.0352 17.9607C65.0649 17.8778 66.5735 17.3347 66.5923 18.9373C66.6126 20.4928 65.0414 20.1892 65.0383 20.1423C65.0352 20.0953 65.0352 17.9607 65.0352 17.9607Z" fill="#9D6054"/>
<path d="M65.5128 19.5468C65.5128 19.5468 65.541 19.5656 65.5864 19.5859C65.6516 19.6124 65.7246 19.6124 65.7898 19.5859C65.9542 19.5233 66.0887 19.262 66.1028 18.9803C66.1043 18.8472 66.0771 18.7153 66.023 18.5937C66.008 18.5451 65.9813 18.5008 65.9453 18.4648C65.9093 18.4288 65.8651 18.4022 65.8164 18.3871C65.7857 18.3798 65.7534 18.3833 65.7249 18.3969C65.6964 18.4106 65.6734 18.4337 65.6599 18.4623C65.6396 18.5061 65.6506 18.5374 65.6427 18.5405C65.6349 18.5436 65.6083 18.5139 65.6208 18.4497C65.6288 18.4115 65.6498 18.3772 65.6803 18.3527C65.7023 18.3356 65.7274 18.3231 65.7543 18.3158C65.7812 18.3086 65.8092 18.3068 65.8368 18.3104C65.9007 18.3228 65.9605 18.3512 66.0103 18.3931C66.0602 18.435 66.0985 18.489 66.1216 18.5499C66.1893 18.6842 66.2232 18.833 66.2202 18.9834C66.2124 19.2964 66.0559 19.5922 65.8305 19.6579C65.7889 19.6705 65.7449 19.6737 65.7019 19.6672C65.6588 19.6607 65.6178 19.6447 65.5817 19.6203C65.516 19.5922 65.5081 19.5499 65.5128 19.5468Z" fill="#724A44"/>
<path d="M66.2392 17.9372C66.2392 17.9372 66.222 17.8981 66.1735 17.8323C66.1021 17.7381 66.0047 17.6669 65.8933 17.6273C65.7167 17.5651 65.5272 17.5484 65.3425 17.5788C65.0991 17.6286 64.864 17.7129 64.6445 17.8292C64.3728 17.9774 64.0682 18.0548 63.7587 18.0546C63.4007 18.0123 63.072 17.8362 62.8385 17.5616C62.5876 17.2623 62.4002 16.9152 62.2876 16.5412C62.1577 16.1609 62.0419 15.7587 61.8839 15.3706C61.6134 14.6216 61.1969 13.9338 60.6585 13.3471C60.2114 12.8745 59.6403 12.5372 59.0106 12.3737C58.7696 12.3128 58.522 12.2818 58.2735 12.2814C58.0855 12.2836 57.8982 12.3057 57.7148 12.3471C57.5597 12.3908 57.4071 12.4431 57.2578 12.5036L57.286 12.488L57.3705 12.4473C57.4795 12.3976 57.5926 12.3573 57.7085 12.3268C57.8934 12.2757 58.0834 12.2458 58.275 12.2376C58.5275 12.2343 58.7793 12.2627 59.0247 12.3221C59.667 12.4807 60.2507 12.8195 60.707 13.2986C61.2562 13.8862 61.6819 14.578 61.959 15.3331C62.1155 15.729 62.2329 16.1296 62.3612 16.5068C62.4704 16.8725 62.6518 17.2125 62.8948 17.5068C63.1179 17.7675 63.4306 17.935 63.7712 17.9763C64.0712 17.9785 64.367 17.9059 64.632 17.765C64.8568 17.6493 65.0971 17.5666 65.3456 17.5193C65.5367 17.4929 65.7314 17.5145 65.9121 17.5819C66.0259 17.6265 66.1236 17.7046 66.1922 17.8057C66.2104 17.8313 66.2251 17.8592 66.236 17.8887C66.236 17.9278 66.2407 17.9372 66.2392 17.9372Z" fill="#455A64"/>
<path d="M65.657 17.1604C65.6233 17.1468 65.5913 17.1294 65.5615 17.1087C65.502 17.0712 65.405 17.0195 65.3017 16.9428C64.9954 16.7181 64.7137 16.4616 64.4613 16.1776C64.0934 15.7526 63.7502 15.3069 63.4331 14.8427C63.0504 14.2745 62.6206 13.7395 62.1483 13.2433C61.8968 12.9955 61.6192 12.7756 61.3204 12.5875C61.0393 12.4161 60.7381 12.2799 60.4237 12.1822C59.8921 12.0111 59.333 11.9421 58.7758 11.9788C58.3995 12.0017 58.0279 12.0748 57.6709 12.1963C57.5426 12.2338 57.4487 12.2777 57.383 12.3027C57.3498 12.3166 57.3158 12.3287 57.2812 12.3387C57.3116 12.3198 57.3435 12.3036 57.3767 12.2902C57.4693 12.2447 57.5644 12.2044 57.6615 12.1697C58.0183 12.0379 58.3918 11.9568 58.7711 11.9287C59.3358 11.8841 59.9039 11.949 60.4441 12.1196C60.764 12.2172 61.0705 12.3545 61.3564 12.5281C61.6608 12.718 61.9432 12.941 62.1984 13.1932C62.6739 13.6919 63.1049 14.2312 63.4864 14.8051C63.8006 15.2688 64.1385 15.7159 64.4989 16.1447C64.7455 16.4317 65.0196 16.6937 65.3174 16.9272C65.4238 17.007 65.513 17.0602 65.5693 17.1025C65.6257 17.1447 65.657 17.1588 65.657 17.1604Z" fill="#455A64"/>
<path d="M65.6902 19.8233C65.7684 19.8079 65.8495 19.823 65.917 19.8654C65.9846 19.9078 66.0333 19.9744 66.0534 20.0516C66.0735 20.1287 66.0634 20.2106 66.0251 20.2806C65.9868 20.3505 65.9233 20.4032 65.8475 20.428C65.7717 20.4527 65.6894 20.4475 65.6172 20.4136C65.5451 20.3796 65.4886 20.3194 65.4593 20.2453C65.4301 20.1711 65.4302 20.0886 65.4597 20.0145C65.4893 19.9404 65.5459 19.8804 65.6182 19.8467" fill="white"/>
<path d="M65.6177 19.8458C65.5509 19.8991 65.5022 19.9718 65.4784 20.054C65.4669 20.0966 65.4663 20.1415 65.4767 20.1844C65.4871 20.2274 65.5081 20.267 65.5379 20.2997C65.5746 20.3383 65.6209 20.3663 65.6721 20.3809C65.7233 20.3955 65.7775 20.3961 65.829 20.3826C65.8791 20.3644 65.9232 20.3327 65.9563 20.291C65.9895 20.2493 66.0104 20.1992 66.0168 20.1463C66.0223 20.1027 66.017 20.0584 66.0011 20.0174C65.9853 19.9764 65.9595 19.94 65.926 19.9115C65.858 19.8587 65.7757 19.8276 65.6897 19.8223C65.7118 19.809 65.7375 19.8029 65.7633 19.8051C65.8339 19.8055 65.9022 19.8298 65.9573 19.874C66.0005 19.906 66.0347 19.9486 66.0566 19.9977C66.0785 20.0467 66.0875 20.1006 66.0825 20.1541C66.0779 20.2211 66.0533 20.2851 66.0119 20.3379C65.9705 20.3907 65.9142 20.4298 65.8503 20.4502C65.7863 20.4706 65.7178 20.4713 65.6534 20.4523C65.5891 20.4333 65.5319 20.3954 65.4894 20.3435C65.4543 20.3025 65.4304 20.2532 65.42 20.2003C65.4095 20.1474 65.413 20.0926 65.4299 20.0414C65.4496 19.9738 65.4915 19.9148 65.5489 19.874C65.5895 19.8458 65.6162 19.8427 65.6177 19.8458Z" fill="#263238"/>
</svg>
