<svg width="100" height="79" viewBox="0 0 100 79" fill="none" xmlns="http://www.w3.org/2000/svg">
<path d="M7.61362 14.2507C1.86301 27.6906 4.49482 42.239 12.4961 54.3983C20.4974 66.5576 33.8132 74.4351 47.8128 77.2946C57.8065 79.3419 68.5624 78.9237 77.688 74.2739C86.8136 69.6241 93.9997 60.2634 94.5502 49.7964C94.7619 45.8435 93.9404 41.6466 91.3743 38.689C87.2794 33.9739 80.288 33.8084 74.1457 34.0044C68.0034 34.2004 61.0184 34.0501 56.9024 29.3567C53.7391 25.7479 53.2733 20.5166 51.6091 15.9713C48.7762 8.24843 41.9415 2.21562 34.0799 0.508142C26.4026 -1.16014 17.9884 1.35317 12.3585 6.96346C12.1171 7.20303 11.8652 7.43171 11.6111 7.65821C10.9463 8.25932 8.70826 11.6961 7.61362 14.2507Z" fill="#E7EDFF"/>
<path d="M99.0637 66.3884C99.0637 66.4191 76.8864 66.4455 49.5341 66.4455C22.1818 66.4455 0 66.4125 0 66.3884C0 66.3643 22.173 66.3292 49.5341 66.3292C76.8952 66.3292 99.0637 66.3489 99.0637 66.3884Z" fill="#263238"/>
<path d="M81.4435 61.2106H21.7932C21.3243 61.2106 20.86 61.1182 20.4268 60.9388C19.9936 60.7593 19.6 60.4963 19.2684 60.1648C18.9369 59.8332 18.6739 59.4396 18.4944 59.0064C18.315 58.5732 18.2227 58.1089 18.2227 57.64V16.6969C18.2231 16.0065 18.4975 15.3446 18.9856 14.8565C19.4738 14.3683 20.1357 14.0939 20.826 14.0935H82.5528C82.8763 14.0935 83.1966 14.1573 83.4954 14.2812C83.7942 14.405 84.0657 14.5866 84.2943 14.8155C84.5229 15.0443 84.7041 15.316 84.8276 15.615C84.9511 15.914 85.0145 16.2343 85.0141 16.5578V57.64C85.0141 58.587 84.6379 59.4952 83.9683 60.1648C83.2987 60.8344 82.3905 61.2106 81.4435 61.2106Z" fill="#E0E0E0"/>
<path d="M81.4445 61.2106C81.4445 61.2106 81.4924 61.2106 81.5897 61.2013L81.769 61.1905C81.84 61.1905 81.9235 61.1689 82.0162 61.1565L82.1707 61.1333L82.3344 61.0901L82.5137 61.0437L82.7022 60.9742C82.8444 60.9211 82.9832 60.8592 83.1178 60.7888C83.1904 60.7517 83.2599 60.7038 83.3356 60.6605L83.4484 60.591L83.5473 60.5138C84.2924 59.9694 84.7944 59.1545 84.9455 58.2441C84.9548 58.1777 84.9656 58.1097 84.9749 58.0417C84.9842 57.9737 84.9842 57.9042 84.9888 57.8347C84.9981 57.6941 84.9996 57.5504 84.9981 57.4052V56.4967C84.9981 55.8725 84.9981 55.2081 84.9981 54.5036C84.9981 48.872 84.9981 40.7235 84.9873 30.6546C84.9873 28.1383 84.9873 25.504 84.9873 22.7518V18.5447C84.9873 18.1878 84.9873 17.8294 84.9873 17.4632V16.9271C84.9873 16.7463 84.9873 16.564 84.9873 16.3848C84.9609 16.0224 84.8538 15.6704 84.6739 15.3547C84.494 15.039 84.2458 14.7675 83.9475 14.5601C83.6434 14.3506 83.2949 14.2147 82.9293 14.163C82.8845 14.163 82.8397 14.1476 82.7933 14.1429H82.6543C82.5631 14.1429 82.4689 14.1429 82.3746 14.1429H65.1414H21.8297H21.1098C20.9908 14.1429 20.8687 14.1429 20.7513 14.1429L20.5752 14.1522L20.399 14.1785C20.3404 14.185 20.2825 14.1969 20.226 14.214C20.1688 14.2279 20.1117 14.2418 20.0545 14.2588C19.9427 14.2958 19.8333 14.3396 19.727 14.3901C19.5136 14.4898 19.3158 14.6199 19.1399 14.7764C18.9613 14.9305 18.8053 15.1089 18.6763 15.3063C18.5495 15.5039 18.4482 15.7167 18.3751 15.9398C18.3075 16.1646 18.2696 16.3973 18.2623 16.632C18.2546 16.8668 18.2623 17.1063 18.2623 17.3427V22.9959C18.2623 26.737 18.2623 30.4203 18.2623 34.046C18.2623 41.2921 18.2623 48.2803 18.2623 54.9378V57.4175C18.2623 57.6246 18.2623 57.827 18.2839 58.0355L18.3287 58.3353C18.3488 58.4357 18.3782 58.533 18.4013 58.6304C18.5143 59.0179 18.6919 59.3835 18.9266 59.7119C19.3955 60.3668 20.0743 60.8416 20.8502 61.0576C20.946 61.0792 21.0402 61.1117 21.1391 61.1256L21.4311 61.1704C21.6289 61.1812 21.8251 61.1936 22.0244 61.1905H32.3869H48.8569L72.7043 61.2013H79.1934L72.7043 61.209L48.8569 61.2214H32.3869H23.211H22.0244C21.8267 61.2214 21.6258 61.2137 21.4249 61.2013L21.1283 61.1781C21.0279 61.1642 20.9321 61.1302 20.8347 61.1086C20.2425 60.9435 19.7024 60.6297 19.2657 60.1971C18.8289 59.7644 18.5101 59.2272 18.3395 58.6366C18.3148 58.5361 18.2839 58.4373 18.2654 58.3368L18.2175 58.0278C18.2036 57.8208 18.1928 57.6138 18.1958 57.4098V54.9316C18.1958 48.2741 18.1958 41.2859 18.1958 34.0398V17.3365C18.1958 17.0986 18.1958 16.8637 18.1958 16.6243C18.2074 16.1385 18.3552 15.6658 18.6223 15.26C18.754 15.0568 18.9137 14.8732 19.0966 14.7146C19.2766 14.5546 19.4785 14.4209 19.6961 14.3175C19.8051 14.2646 19.9176 14.2191 20.0329 14.1816C20.0916 14.1646 20.1503 14.1507 20.209 14.1352C20.267 14.1181 20.3265 14.1062 20.3867 14.0997C20.4469 14.0904 20.5072 14.0796 20.5675 14.0734L20.7498 14.0641C20.8718 14.0549 20.9892 14.0641 21.1098 14.0641H21.8297H65.1414H82.3669C82.4611 14.0641 82.5538 14.0641 82.6496 14.0641H82.7918C82.8381 14.0641 82.8845 14.0765 82.9308 14.0827C83.4893 14.1672 84.0022 14.4397 84.3848 14.8552C84.7674 15.2707 84.9968 15.8043 85.0351 16.3678C85.0491 16.5516 85.0351 16.7324 85.0444 16.9132V18.5308C85.0444 19.9605 85.0444 21.3618 85.0444 22.7348C85.0444 25.4839 85.0444 28.1182 85.0444 30.6376C85.0444 40.7066 85.0351 48.855 85.0321 54.4866C85.0321 55.1912 85.0321 55.8555 85.0321 56.4797C85.0321 56.7887 85.0321 57.0977 85.0321 57.3851C85.0321 57.5303 85.0321 57.674 85.0228 57.8146C85.0228 57.8857 85.0228 57.9552 85.0089 58.0247C84.995 58.0943 84.9873 58.1607 84.978 58.2271C84.8254 59.1466 84.3156 59.9686 83.5597 60.5138L83.45 60.5956L83.3372 60.6652C83.2615 60.71 83.1904 60.7579 83.1178 60.7934C82.9826 60.8636 82.8433 60.9255 82.7006 60.9788L82.5106 61.0468L82.3298 61.0931L82.166 61.1349L82.0115 61.158C81.9173 61.1704 81.8354 61.1874 81.7643 61.1905L81.5851 61.1982L81.4445 61.2106Z" fill="#263238"/>
<path d="M84.945 61.9275H18.8813C17.9659 61.9275 17.0879 61.5638 16.4406 60.9165C15.7933 60.2692 15.4297 59.3913 15.4297 58.4759V57.9382C15.4297 57.903 15.4437 57.8692 15.4686 57.8443C15.4935 57.8193 15.5273 57.8053 15.5626 57.8053H87.6596C87.6771 57.8051 87.6945 57.8084 87.7107 57.815C87.7269 57.8216 87.7416 57.8314 87.754 57.8438C87.7664 57.8562 87.7762 57.8709 87.7828 57.8871C87.7894 57.9033 87.7927 57.9207 87.7924 57.9382V59.0784C87.7924 59.8338 87.4925 60.5582 86.9585 61.0925C86.4246 61.6267 85.7003 61.9271 84.945 61.9275Z" fill="#E0E0E0"/>
<path d="M84.946 61.9275H85.0433C85.1396 61.926 85.2356 61.9177 85.3307 61.9027C85.9875 61.81 86.5913 61.4909 87.0379 61.0004C87.265 60.7519 87.4464 60.4653 87.5741 60.1538C87.7194 59.7883 87.7898 59.3974 87.7811 59.0043V58.3507C87.7811 58.2379 87.7811 58.1252 87.7811 58.0093C87.7811 57.9506 87.7811 57.8934 87.744 57.8548C87.7069 57.8161 87.6451 57.8223 87.5895 57.8223L71.4965 57.8316L18.4141 57.8424H15.5667C15.5518 57.8417 15.5371 57.8444 15.5234 57.8501C15.5098 57.8557 15.4978 57.8643 15.4881 57.8752C15.4785 57.8862 15.4715 57.8993 15.4678 57.9135C15.4652 57.95 15.4652 57.9867 15.4678 58.0232V58.2642C15.4678 58.4187 15.4678 58.584 15.4817 58.7416C15.5037 59.0588 15.5718 59.3711 15.6841 59.6686C15.7898 59.9658 15.9404 60.2451 16.1306 60.4968C16.5031 61.0047 17.0082 61.4003 17.5906 61.6401C17.8806 61.7562 18.1844 61.8341 18.4945 61.8718C18.8035 61.9012 19.1125 61.895 19.4308 61.895H24.9928H39.0866L62.951 61.9027L79.0393 61.9151H83.4133H84.552H84.9398C84.9398 61.9151 84.8085 61.9151 84.552 61.9151H83.4133H79.0393L62.951 61.9275L39.0866 61.9352H19.4292C19.1202 61.9352 18.8019 61.9352 18.4837 61.9105C18.1656 61.8731 17.8538 61.7936 17.5566 61.6741C16.9617 61.4292 16.4459 61.025 16.0657 60.506C15.9703 60.3767 15.8831 60.2415 15.8046 60.1012C15.7301 59.9582 15.6645 59.8106 15.6084 59.6594C15.4947 59.3567 15.425 59.0393 15.4013 58.7169C15.3921 58.5624 15.3843 58.394 15.3874 58.2348V57.9938C15.3839 57.9512 15.3839 57.9083 15.3874 57.8656C15.3937 57.8405 15.4058 57.8172 15.4227 57.7976C15.4396 57.778 15.4608 57.7627 15.4848 57.7528C15.5077 57.7431 15.5325 57.7384 15.5574 57.7389H18.4002L71.4965 57.7791L87.5849 57.7899H87.676C87.7082 57.7934 87.7385 57.8069 87.7626 57.8285C87.7868 57.8502 87.8026 57.8797 87.8074 57.9119C87.8096 57.9418 87.8096 57.9717 87.8074 58.0015V58.995C87.814 59.3911 87.7415 59.7845 87.5941 60.1522C87.4652 60.4658 87.2815 60.7541 87.0518 61.0035C86.8636 61.2118 86.6442 61.3895 86.4014 61.5304C86.0754 61.7283 85.7109 61.8542 85.3322 61.8996C85.2366 61.9142 85.14 61.922 85.0433 61.9228L84.946 61.9275Z" fill="#263238"/>
<path d="M81.3467 16.9719H21.7041C21.2937 16.9719 20.9609 17.3046 20.9609 17.715V54.8219C20.9609 55.2323 21.2937 55.5651 21.7041 55.5651H81.3467C81.7571 55.5651 82.0898 55.2323 82.0898 54.8219V17.715C82.0898 17.3046 81.7571 16.9719 81.3467 16.9719Z" fill="white"/>
<path d="M45.0352 57.725L45.9328 59.2484H58.5696L59.4023 57.725H45.0352Z" fill="#263238"/>
<path d="M51.6119 16.1669C51.8884 16.1669 52.1125 15.9428 52.1125 15.6663C52.1125 15.3899 51.8884 15.1658 51.6119 15.1658C51.3354 15.1658 51.1113 15.3899 51.1113 15.6663C51.1113 15.9428 51.3354 16.1669 51.6119 16.1669Z" fill="#263238"/>
<path d="M20.9609 20.7526H31.7112V55.5697H21.7752C21.5592 55.5697 21.3521 55.4839 21.1994 55.3312C21.0467 55.1785 20.9609 54.9714 20.9609 54.7555V20.7526Z" fill="#F5F5F5"/>
<path d="M25.6798 22.3239C25.7358 22.2902 25.7961 22.2642 25.859 22.2466L25.8961 22.0689H26.1958L26.2375 22.2451C26.3013 22.2602 26.3627 22.2841 26.4198 22.3161L26.5743 22.2172L26.7891 22.4243L26.6964 22.5788C26.7303 22.6341 26.7563 22.6939 26.7737 22.7565L26.9513 22.7935V23.0933L26.7752 23.1365C26.7598 23.1997 26.7359 23.2605 26.7041 23.3173L26.803 23.4718L26.596 23.6881L26.4415 23.5939C26.3855 23.6275 26.3252 23.6535 26.2623 23.6711L26.2252 23.8488H25.9254L25.8822 23.6742C25.8189 23.6582 25.7581 23.6338 25.7014 23.6016L25.5469 23.702L25.3306 23.4934L25.4248 23.3389C25.3912 23.2829 25.3652 23.2226 25.3476 23.1597L25.1699 23.1226V22.8229L25.3445 22.7812C25.3602 22.7174 25.3846 22.656 25.4171 22.5989L25.3167 22.4444L25.5253 22.2296L25.6798 22.3223V22.3239ZM25.8343 22.724C25.7902 22.7699 25.7608 22.8277 25.7496 22.8903C25.7385 22.9529 25.7462 23.0174 25.7717 23.0756C25.7972 23.1338 25.8394 23.1832 25.893 23.2174C25.9465 23.2517 26.009 23.2692 26.0726 23.2679C26.1362 23.2666 26.1979 23.2465 26.25 23.2101C26.3021 23.1737 26.3423 23.1227 26.3654 23.0635C26.3885 23.0043 26.3936 22.9395 26.3799 22.8775C26.3662 22.8154 26.3344 22.7588 26.2885 22.7147C26.2274 22.6568 26.146 22.6253 26.0618 22.627C25.9776 22.6288 25.8976 22.6636 25.8389 22.724H25.8343Z" fill="#E0E0E0"/>
<path d="M28.1642 30.7133H23.4766C23.349 30.7129 23.2268 30.662 23.1367 30.5716C23.0467 30.4812 22.9961 30.3589 22.9961 30.2313C22.9961 30.1037 23.0467 29.9813 23.1367 29.891C23.2268 29.8006 23.349 29.7496 23.4766 29.7492H28.1642C28.2918 29.7496 28.414 29.8006 28.5041 29.891C28.5941 29.9813 28.6447 30.1037 28.6447 30.2313C28.6447 30.3589 28.5941 30.4812 28.5041 30.5716C28.414 30.662 28.2918 30.7129 28.1642 30.7133Z" fill="#E0E0E0"/>
<path d="M28.1642 28.2598H23.4766C23.349 28.2594 23.2268 28.2085 23.1367 28.1181C23.0467 28.0278 22.9961 27.9054 22.9961 27.7778C22.9961 27.6502 23.0467 27.5278 23.1367 27.4375C23.2268 27.3471 23.349 27.2962 23.4766 27.2957H28.1642C28.2918 27.2962 28.414 27.3471 28.5041 27.4375C28.5941 27.5278 28.6447 27.6502 28.6447 27.7778C28.6447 27.9054 28.5941 28.0278 28.5041 28.1181C28.414 28.2085 28.2918 28.2594 28.1642 28.2598Z" fill="#E0E0E0"/>
<path d="M28.1642 26.0149H23.4766C23.349 26.0145 23.2268 25.9635 23.1367 25.8732C23.0467 25.7828 22.9961 25.6605 22.9961 25.5329C22.9961 25.4053 23.0467 25.2829 23.1367 25.1926C23.2268 25.1022 23.349 25.0512 23.4766 25.0508H28.1642C28.2918 25.0512 28.414 25.1022 28.5041 25.1926C28.5941 25.2829 28.6447 25.4053 28.6447 25.5329C28.6447 25.6605 28.5941 25.7828 28.5041 25.8732C28.414 25.9635 28.2918 26.0145 28.1642 26.0149Z" fill="#E0E0E0"/>
<path d="M40.7627 23.2045H36.3223C36.1947 23.2041 36.0725 23.1531 35.9824 23.0628C35.8924 22.9724 35.8418 22.85 35.8418 22.7225C35.8418 22.5949 35.8924 22.4725 35.9824 22.3822C36.0725 22.2918 36.1947 22.2408 36.3223 22.2404H40.7627C40.8903 22.2408 41.0125 22.2918 41.1026 22.3822C41.1926 22.4725 41.2432 22.5949 41.2432 22.7225C41.2432 22.85 41.1926 22.9724 41.1026 23.0628C41.0125 23.1531 40.8903 23.2041 40.7627 23.2045Z" fill="#263238"/>
<path d="M40.7627 25.726H36.3223C36.1947 25.7256 36.0725 25.6746 35.9824 25.5843C35.8924 25.4939 35.8418 25.3715 35.8418 25.2439C35.8418 25.1164 35.8924 24.994 35.9824 24.9036C36.0725 24.8133 36.1947 24.7623 36.3223 24.7619H40.7627C40.8903 24.7623 41.0125 24.8133 41.1026 24.9036C41.1926 24.994 41.2432 25.1164 41.2432 25.2439C41.2432 25.3715 41.1926 25.4939 41.1026 25.5843C41.0125 25.6746 40.8903 25.7256 40.7627 25.726Z" fill="#E0E0E0"/>
<path d="M40.7627 28.3309H36.3223C36.1947 28.3305 36.0725 28.2795 35.9824 28.1892C35.8924 28.0988 35.8418 27.9764 35.8418 27.8488C35.8418 27.7857 35.8542 27.7233 35.8784 27.665C35.9025 27.6067 35.9379 27.5537 35.9825 27.5091C36.0272 27.4645 36.0801 27.4291 36.1384 27.4049C36.1967 27.3808 36.2592 27.3683 36.3223 27.3683H40.7627C40.8901 27.3683 41.0124 27.419 41.1025 27.5091C41.1926 27.5992 41.2432 27.7214 41.2432 27.8488C41.2432 27.9764 41.1926 28.0988 41.1026 28.1892C41.0125 28.2795 40.8903 28.3305 40.7627 28.3309Z" fill="#2059EE"/>
<path d="M38.8685 33.3677H36.3223C36.2592 33.3677 36.1967 33.3553 36.1384 33.3311C36.0801 33.307 36.0272 33.2716 35.9825 33.2269C35.9379 33.1823 35.9025 33.1294 35.8784 33.0711C35.8542 33.0128 35.8418 32.9503 35.8418 32.8872C35.8416 32.824 35.8539 32.7613 35.8779 32.7028C35.902 32.6444 35.9373 32.5912 35.982 32.5464C36.0266 32.5016 36.0797 32.4661 36.1381 32.4419C36.1965 32.4176 36.2591 32.4051 36.3223 32.4051H38.8685C38.9963 32.4051 39.119 32.4559 39.2094 32.5463C39.2998 32.6367 39.3505 32.7593 39.3505 32.8872C39.3501 33.0148 39.2992 33.137 39.2088 33.227C39.1185 33.3171 38.9961 33.3677 38.8685 33.3677Z" fill="#263238"/>
<path d="M38.8685 35.9788H36.3223C36.2592 35.9788 36.1967 35.9663 36.1384 35.9422C36.0801 35.918 36.0272 35.8827 35.9825 35.838C35.9379 35.7934 35.9025 35.7404 35.8784 35.6821C35.8542 35.6239 35.8418 35.5614 35.8418 35.4983C35.8416 35.435 35.8539 35.3724 35.8779 35.3139C35.902 35.2554 35.9373 35.2023 35.982 35.1575C36.0266 35.1127 36.0797 35.0772 36.1381 35.0529C36.1965 35.0287 36.2591 35.0162 36.3223 35.0162H38.8685C38.9963 35.0162 39.119 35.067 39.2094 35.1574C39.2998 35.2478 39.3505 35.3704 39.3505 35.4983C39.3501 35.6258 39.2992 35.7481 39.2088 35.8381C39.1185 35.9282 38.9961 35.9788 38.8685 35.9788Z" fill="#263238"/>
<path d="M46.4332 35.9788H41.7657C41.6382 35.9788 41.516 35.9281 41.4259 35.838C41.3358 35.7479 41.2852 35.6257 41.2852 35.4983C41.285 35.435 41.2972 35.3724 41.3213 35.3139C41.3453 35.2554 41.3807 35.2023 41.4253 35.1575C41.47 35.1127 41.523 35.0772 41.5814 35.0529C41.6398 35.0287 41.7024 35.0162 41.7657 35.0162H46.4332C46.4965 35.016 46.5593 35.0283 46.6179 35.0525C46.6765 35.0767 46.7297 35.1122 46.7745 35.157C46.8193 35.2018 46.8548 35.255 46.879 35.3136C46.9031 35.3721 46.9154 35.4349 46.9152 35.4983C46.9152 35.5615 46.9028 35.6241 46.8785 35.6825C46.8543 35.7409 46.8187 35.7939 46.7739 35.8386C46.7292 35.8832 46.676 35.9186 46.6175 35.9426C46.5591 35.9667 46.4964 35.979 46.4332 35.9788Z" fill="#E0E0E0"/>
<path d="M43.7941 38.301H39.1266C38.9987 38.301 38.8761 38.2502 38.7857 38.1598C38.6953 38.0694 38.6445 37.9468 38.6445 37.8189C38.6449 37.6913 38.6959 37.5691 38.7863 37.4791C38.8766 37.389 38.999 37.3384 39.1266 37.3384H43.7941C43.8572 37.3384 43.9197 37.3508 43.978 37.375C44.0363 37.3991 44.0892 37.4345 44.1339 37.4791C44.1785 37.5238 44.2139 37.5767 44.238 37.635C44.2622 37.6933 44.2746 37.7558 44.2746 37.8189C44.2748 37.8821 44.2625 37.9448 44.2385 38.0033C44.2144 38.0617 44.1791 38.1149 44.1344 38.1597C44.0898 38.2045 44.0367 38.24 43.9783 38.2642C43.9199 38.2885 43.8573 38.301 43.7941 38.301Z" fill="#2059EE"/>
<path d="M44.6766 39.9866H41.7735C41.5081 39.9866 41.293 40.2017 41.293 40.4671V40.4686C41.293 40.734 41.5081 40.9491 41.7735 40.9491H44.6766C44.9419 40.9491 45.1571 40.734 45.1571 40.4686V40.4671C45.1571 40.2017 44.9419 39.9866 44.6766 39.9866Z" fill="#2059EE"/>
<path d="M44.675 46.145H41.775C41.6472 46.145 41.5246 46.0942 41.4342 46.0038C41.3438 45.9134 41.293 45.7908 41.293 45.663C41.293 45.5351 41.3438 45.4125 41.4342 45.3221C41.5246 45.2317 41.6472 45.1809 41.775 45.1809H44.675C44.8029 45.1809 44.9255 45.2317 45.0159 45.3221C45.1063 45.4125 45.1571 45.5351 45.1571 45.663C45.1571 45.7908 45.1063 45.9134 45.0159 46.0038C44.9255 46.0942 44.8029 46.145 44.675 46.145Z" fill="#2059EE"/>
<path d="M44.675 51.6222H41.775C41.6472 51.6222 41.5246 51.5714 41.4342 51.481C41.3438 51.3906 41.293 51.268 41.293 51.1401C41.2934 51.0125 41.3443 50.8903 41.4347 50.8002C41.5251 50.7102 41.6474 50.6596 41.775 50.6596H44.675C44.8026 50.6596 44.925 50.7102 45.0153 50.8002C45.1057 50.8903 45.1567 51.0125 45.1571 51.1401C45.1571 51.268 45.1063 51.3906 45.0159 51.481C44.9255 51.5714 44.8029 51.6222 44.675 51.6222Z" fill="#2059EE"/>
<path d="M51.805 51.6222H46.7203C46.5925 51.6222 46.4699 51.5714 46.3795 51.481C46.2891 51.3906 46.2383 51.268 46.2383 51.1401C46.2387 51.0125 46.2897 50.8903 46.38 50.8002C46.4704 50.7102 46.5928 50.6596 46.7203 50.6596H51.805C51.9324 50.6596 52.0547 50.7102 52.1448 50.8003C52.2349 50.8905 52.2855 51.0127 52.2855 51.1401C52.2857 51.2033 52.2734 51.266 52.2494 51.3245C52.2253 51.3829 52.19 51.4361 52.1453 51.4809C52.1007 51.5257 52.0476 51.5612 51.9892 51.5854C51.9308 51.6097 51.8682 51.6222 51.805 51.6222Z" fill="#455A64"/>
<path d="M55.3628 51.6222H54.6305C54.5026 51.6222 54.38 51.5714 54.2896 51.481C54.1992 51.3906 54.1484 51.268 54.1484 51.1401C54.1488 51.0125 54.1998 50.8903 54.2902 50.8002C54.3805 50.7102 54.5029 50.6596 54.6305 50.6596H55.3628C55.4904 50.6596 55.6128 50.7102 55.7031 50.8002C55.7935 50.8903 55.8445 51.0125 55.8449 51.1401C55.8449 51.268 55.7941 51.3906 55.7037 51.481C55.6133 51.5714 55.4907 51.6222 55.3628 51.6222Z" fill="#E0E0E0"/>
<path d="M51.4999 46.145H47.2032C47.0756 46.1446 46.9534 46.0937 46.8633 46.0033C46.7732 45.9129 46.7227 45.7906 46.7227 45.663C46.7227 45.5354 46.7732 45.413 46.8633 45.3227C46.9534 45.2323 47.0756 45.1813 47.2032 45.1809H51.4999C51.6277 45.1809 51.7503 45.2317 51.8407 45.3221C51.9311 45.4125 51.9819 45.5351 51.9819 45.663C51.9819 45.7908 51.9311 45.9134 51.8407 46.0038C51.7503 46.0942 51.6277 46.145 51.4999 46.145Z" fill="#E0E0E0"/>
<path d="M60.923 48.546H47.2032C47.0757 48.546 46.9535 48.4954 46.8634 48.4053C46.7733 48.3152 46.7227 48.1929 46.7227 48.0655C46.7227 47.9379 46.7732 47.8155 46.8633 47.7252C46.9534 47.6348 47.0756 47.5839 47.2032 47.5835H60.923C61.0508 47.5835 61.1734 47.6342 61.2638 47.7246C61.3542 47.815 61.405 47.9377 61.405 48.0655C61.4046 48.1931 61.3536 48.3153 61.2633 48.4054C61.1729 48.4954 61.0506 48.546 60.923 48.546Z" fill="#E0E0E0"/>
<path d="M62.5084 46.145H53.7481C53.6205 46.1446 53.4983 46.0937 53.4082 46.0033C53.3182 45.9129 53.2676 45.7906 53.2676 45.663C53.2676 45.5354 53.3182 45.413 53.4082 45.3227C53.4983 45.2323 53.6205 45.1813 53.7481 45.1809H62.5084C62.6359 45.1813 62.7582 45.2323 62.8482 45.3227C62.9383 45.413 62.9889 45.5354 62.9889 45.663C62.9889 45.7906 62.9383 45.9129 62.8482 46.0033C62.7582 46.0937 62.6359 46.1446 62.5084 46.145Z" fill="#455A64"/>
<path d="M50.5273 39.9866H46.8965C46.6311 39.9866 46.416 40.2017 46.416 40.4671V40.4686C46.416 40.734 46.6311 40.9491 46.8965 40.9491H50.5273C50.7927 40.9491 51.0078 40.734 51.0078 40.4686V40.4671C51.0078 40.2017 50.7927 39.9866 50.5273 39.9866Z" fill="#455A64"/>
<path d="M53.6715 39.9866H52.7676C52.5022 39.9866 52.2871 40.2017 52.2871 40.4671V40.4686C52.2871 40.734 52.5022 40.9491 52.7676 40.9491H53.6715C53.9368 40.9491 54.152 40.734 54.152 40.4686V40.4671C54.152 40.2017 53.9368 39.9866 53.6715 39.9866Z" fill="#E0E0E0"/>
<path d="M60.5901 39.9866H56.0508C55.7854 39.9866 55.5703 40.2017 55.5703 40.4671V40.4686C55.5703 40.734 55.7854 40.9491 56.0508 40.9491H60.5901C60.8555 40.9491 61.0706 40.734 61.0706 40.4686V40.4671C61.0706 40.2017 60.8555 39.9866 60.5901 39.9866Z" fill="#E0E0E0"/>
<path d="M46.9554 38.301H45.9156C45.7878 38.301 45.6652 38.2502 45.5748 38.1598C45.4844 38.0694 45.4336 37.9468 45.4336 37.8189C45.434 37.6913 45.485 37.5691 45.5753 37.4791C45.6657 37.389 45.7881 37.3384 45.9156 37.3384H46.9554C47.083 37.3384 47.2054 37.389 47.2958 37.4791C47.3861 37.5691 47.4371 37.6913 47.4375 37.8189C47.4375 37.9468 47.3867 38.0694 47.2963 38.1598C47.2059 38.2502 47.0833 38.301 46.9554 38.301Z" fill="#263238"/>
<path d="M55.7661 38.301H49.1442C49.0163 38.301 48.8937 38.2502 48.8033 38.1598C48.7129 38.0694 48.6621 37.9468 48.6621 37.8189C48.6625 37.6913 48.7135 37.5691 48.8038 37.4791C48.8942 37.389 49.0166 37.3384 49.1442 37.3384H55.7661C55.8937 37.3384 56.0161 37.389 56.1064 37.4791C56.1968 37.5691 56.2478 37.6913 56.2482 37.8189C56.2482 37.9468 56.1974 38.0694 56.107 38.1598C56.0166 38.2502 55.894 38.301 55.7661 38.301Z" fill="#E0E0E0"/>
<path d="M47.876 23.2045H43.4356C43.308 23.2041 43.1858 23.1531 43.0957 23.0628C43.0057 22.9724 42.9551 22.85 42.9551 22.7225C42.9551 22.5949 43.0057 22.4725 43.0957 22.3822C43.1858 22.2918 43.308 22.2408 43.4356 22.2404H47.876C48.0036 22.2408 48.1258 22.2918 48.2158 22.3822C48.3059 22.4725 48.3565 22.5949 48.3565 22.7225C48.3565 22.85 48.3059 22.9724 48.2158 23.0628C48.1258 23.1531 48.0036 23.2041 47.876 23.2045Z" fill="#455A64"/>
<path d="M53.5957 25.726H43.4356C43.308 25.7256 43.1858 25.6746 43.0957 25.5843C43.0057 25.4939 42.9551 25.3715 42.9551 25.2439C42.9551 25.1164 43.0057 24.994 43.0957 24.9036C43.1858 24.8133 43.308 24.7623 43.4356 24.7619H53.5957C53.7232 24.7623 53.8455 24.8133 53.9355 24.9036C54.0256 24.994 54.0762 25.1164 54.0762 25.2439C54.0762 25.3715 54.0256 25.4939 53.9355 25.5843C53.8455 25.6746 53.7232 25.7256 53.5957 25.726Z" fill="#263238"/>
<path d="M64.5329 28.3309H43.4356C43.308 28.3305 43.1858 28.2795 43.0957 28.1892C43.0057 28.0988 42.9551 27.9764 42.9551 27.8488C42.9551 27.7214 43.0057 27.5992 43.0958 27.5091C43.1859 27.419 43.3081 27.3683 43.4356 27.3683H64.5329C64.6603 27.3683 64.7825 27.419 64.8727 27.5091C64.9628 27.5992 65.0134 27.7214 65.0134 27.8488C65.0134 27.9764 64.9628 28.0988 64.8728 28.1892C64.7827 28.2795 64.6605 28.3305 64.5329 28.3309Z" fill="#E0E0E0"/>
<path d="M53.384 30.1664H43.4356C43.308 30.166 43.1858 30.115 43.0957 30.0247C43.0057 29.9343 42.9551 29.8119 42.9551 29.6844C42.9551 29.5568 43.0057 29.4344 43.0957 29.344C43.1858 29.2537 43.308 29.2027 43.4356 29.2023H53.384C53.5116 29.2027 53.6338 29.2537 53.7239 29.344C53.8139 29.4344 53.8645 29.5568 53.8645 29.6844C53.8645 29.8119 53.8139 29.9343 53.7239 30.0247C53.6338 30.115 53.5116 30.166 53.384 30.1664Z" fill="#E0E0E0"/>
<path d="M51.3488 33.3677H41.4004C41.273 33.3677 41.1508 33.3171 41.0607 33.2269C40.9705 33.1368 40.9199 33.0146 40.9199 32.8872C40.9197 32.824 40.932 32.7613 40.9561 32.7028C40.9801 32.6444 41.0155 32.5912 41.0601 32.5464C41.1048 32.5016 41.1578 32.4661 41.2162 32.4419C41.2746 32.4176 41.3372 32.4051 41.4004 32.4051H51.3488C51.4121 32.4051 51.4747 32.4176 51.5331 32.4419C51.5915 32.4661 51.6445 32.5016 51.6892 32.5464C51.7338 32.5912 51.7692 32.6444 51.7932 32.7028C51.8173 32.7613 51.8295 32.824 51.8293 32.8872C51.8293 32.9503 51.8169 33.0128 51.7928 33.0711C51.7686 33.1294 51.7332 33.1823 51.6886 33.2269C51.644 33.2716 51.591 33.307 51.5327 33.3311C51.4744 33.3553 51.4119 33.3677 51.3488 33.3677Z" fill="#455A64"/>
<path d="M56.9158 33.3677H53.5817C53.4541 33.3677 53.3317 33.3171 53.2413 33.227C53.151 33.137 53.1 33.0148 53.0996 32.8872C53.0996 32.7593 53.1504 32.6367 53.2408 32.5463C53.3312 32.4559 53.4538 32.4051 53.5817 32.4051H56.9158C57.0437 32.4051 57.1663 32.4559 57.2567 32.5463C57.3471 32.6367 57.3979 32.7593 57.3979 32.8872C57.3975 33.0148 57.3465 33.137 57.2561 33.227C57.1658 33.3171 57.0434 33.3677 56.9158 33.3677Z" fill="#2059EE"/>
<path d="M65.44 33.3522H59.1363C59.0085 33.3522 58.8859 33.3014 58.7955 33.211C58.7051 33.1206 58.6543 32.998 58.6543 32.8702C58.6559 32.7434 58.7074 32.6224 58.7977 32.5333C58.8879 32.4442 59.0096 32.3943 59.1363 32.3943H65.44C65.5676 32.3943 65.69 32.4449 65.7804 32.535C65.8707 32.625 65.9217 32.7472 65.9221 32.8748C65.9209 33.0019 65.8695 33.1233 65.7793 33.2127C65.689 33.3021 65.5671 33.3522 65.44 33.3522Z" fill="#263238"/>
<path d="M74.01 33.3522H67.711C67.6477 33.3522 67.5851 33.3398 67.5267 33.3155C67.4683 33.2913 67.4153 33.2557 67.3707 33.211C67.326 33.1662 67.2907 33.113 67.2666 33.0546C67.2425 32.9961 67.2303 32.9334 67.2305 32.8702C67.2305 32.8071 67.2429 32.7446 67.2671 32.6863C67.2912 32.628 67.3266 32.575 67.3712 32.5304C67.4158 32.4858 67.4688 32.4504 67.5271 32.4263C67.5854 32.4021 67.6479 32.3897 67.711 32.3897H74.01C74.1376 32.3897 74.26 32.4403 74.3504 32.5303C74.4407 32.6204 74.4917 32.7426 74.4921 32.8702C74.4921 32.998 74.4413 33.1207 74.3509 33.2111C74.2605 33.3015 74.1379 33.3522 74.01 33.3522Z" fill="#E0E0E0"/>
<path d="M26.134 33.3105H23.4766C23.349 33.3101 23.2268 33.2591 23.1367 33.1688C23.0467 33.0784 22.9961 32.956 22.9961 32.8285C22.9961 32.7009 23.0467 32.5785 23.1367 32.4882C23.2268 32.3978 23.349 32.3468 23.4766 32.3464H26.134C26.2619 32.3464 26.3845 32.3972 26.4749 32.4876C26.5653 32.578 26.6161 32.7006 26.6161 32.8285C26.6161 32.9563 26.5653 33.0789 26.4749 33.1693C26.3845 33.2597 26.2619 33.3105 26.134 33.3105Z" fill="#E0E0E0"/>
<path d="M25.3384 41.1021H23.4766C23.4134 41.1021 23.3508 41.0896 23.2924 41.0654C23.234 41.0411 23.1809 41.0056 23.1363 40.9608C23.0916 40.916 23.0563 40.8629 23.0322 40.8044C23.0082 40.7459 22.9959 40.6833 22.9961 40.62C22.9961 40.5569 23.0085 40.4944 23.0327 40.4361C23.0568 40.3778 23.0922 40.3249 23.1368 40.2803C23.1815 40.2356 23.2344 40.2002 23.2927 40.1761C23.351 40.152 23.4135 40.1395 23.4766 40.1395H25.3384C25.4659 40.1395 25.5883 40.1901 25.6787 40.2802C25.769 40.3702 25.82 40.4924 25.8204 40.62C25.8204 40.7479 25.7696 40.8705 25.6792 40.9609C25.5888 41.0513 25.4662 41.1021 25.3384 41.1021Z" fill="#E0E0E0"/>
<path d="M28.6447 35.9077H23.4766C23.349 35.9073 23.2268 35.8563 23.1367 35.766C23.0467 35.6756 22.9961 35.5532 22.9961 35.4257C22.9961 35.2981 23.0467 35.1757 23.1367 35.0853C23.2268 34.995 23.349 34.944 23.4766 34.9436H28.6447C28.7725 34.9436 28.8952 34.9944 28.9856 35.0848C29.076 35.1752 29.1268 35.2978 29.1268 35.4257C29.1268 35.5535 29.076 35.6761 28.9856 35.7665C28.8952 35.8569 28.7725 35.9077 28.6447 35.9077Z" fill="#E0E0E0"/>
<path d="M27.7378 38.5049H23.4766C23.349 38.5045 23.2268 38.4535 23.1367 38.3632C23.0467 38.2728 22.9961 38.1504 22.9961 38.0228C22.9961 37.9597 23.0085 37.8973 23.0327 37.839C23.0568 37.7807 23.0922 37.7277 23.1368 37.6831C23.1814 37.6385 23.2344 37.6031 23.2927 37.5789C23.351 37.5548 23.4135 37.5423 23.4766 37.5423H27.7378C27.801 37.5421 27.8637 37.5544 27.9221 37.5785C27.9806 37.6025 28.0338 37.6379 28.0785 37.6825C28.1233 37.7272 28.1589 37.7802 28.1831 37.8386C28.2073 37.897 28.2198 37.9596 28.2198 38.0228C28.2198 38.1507 28.169 38.2733 28.0786 38.3637C27.9882 38.4541 27.8656 38.5049 27.7378 38.5049Z" fill="#E0E0E0"/>
<path d="M34.1456 22.7225C34.1459 22.8194 34.1174 22.9142 34.0638 22.995C34.0101 23.0757 33.9338 23.1387 33.8443 23.1761C33.7548 23.2134 33.6563 23.2233 33.5612 23.2046C33.4661 23.1858 33.3787 23.1393 33.31 23.0709C33.2414 23.0024 33.1946 22.9152 33.1755 22.8201C33.1565 22.7251 33.1661 22.6265 33.2031 22.5369C33.2402 22.4474 33.3029 22.3708 33.3835 22.3169C33.4641 22.263 33.5589 22.2342 33.6558 22.2342C33.7854 22.2342 33.9098 22.2856 34.0016 22.3771C34.0934 22.4687 34.1451 22.5928 34.1456 22.7225Z" fill="#455A64"/>
<path d="M34.1456 25.2362C34.1456 25.3331 34.1168 25.4278 34.063 25.5083C34.0092 25.5889 33.9327 25.6516 33.8432 25.6887C33.7537 25.7258 33.6552 25.7355 33.5602 25.7166C33.4652 25.6977 33.378 25.651 33.3095 25.5825C33.241 25.514 33.1943 25.4268 33.1754 25.3318C33.1565 25.2368 33.1662 25.1383 33.2033 25.0488C33.2404 24.9593 33.3031 24.8828 33.3837 24.829C33.4642 24.7752 33.5589 24.7464 33.6558 24.7464C33.7857 24.7464 33.9103 24.798 34.0021 24.8899C34.094 24.9817 34.1456 25.1063 34.1456 25.2362Z" fill="#455A64"/>
<path d="M34.1456 27.8489C34.1459 27.9458 34.1174 28.0406 34.0638 28.1214C34.0101 28.2021 33.9338 28.2651 33.8443 28.3024C33.7548 28.3398 33.6563 28.3497 33.5612 28.3309C33.4661 28.3122 33.3787 28.2657 33.31 28.1973C33.2414 28.1288 33.1946 28.0416 33.1755 27.9465C33.1565 27.8515 33.1661 27.7529 33.2031 27.6633C33.2402 27.5737 33.3029 27.4972 33.3835 27.4433C33.4641 27.3894 33.5589 27.3606 33.6558 27.3606C33.7854 27.3606 33.9098 27.412 34.0016 27.5035C34.0934 27.595 34.1451 27.7192 34.1456 27.8489Z" fill="#455A64"/>
<path d="M34.1456 30.4615C34.1459 30.5584 34.1174 30.6533 34.0638 30.734C34.0101 30.8148 33.9338 30.8778 33.8443 30.9151C33.7548 30.9524 33.6563 30.9623 33.5612 30.9436C33.4661 30.9249 33.3787 30.8783 33.31 30.8099C33.2414 30.7415 33.1946 30.6542 33.1755 30.5592C33.1565 30.4641 33.1661 30.3656 33.2031 30.276C33.2402 30.1864 33.3029 30.1098 33.3835 30.0559C33.4641 30.002 33.5589 29.9733 33.6558 29.9733C33.7854 29.9733 33.9098 30.0247 34.0016 30.1162C34.0934 30.2077 34.1451 30.3319 34.1456 30.4615Z" fill="#455A64"/>
<path d="M34.1456 33.0757C34.1456 33.1725 34.1168 33.2672 34.063 33.3478C34.0092 33.4283 33.9327 33.4911 33.8432 33.5282C33.7537 33.5652 33.6552 33.5749 33.5602 33.556C33.4652 33.5371 33.378 33.4905 33.3095 33.422C33.241 33.3535 33.1943 33.2662 33.1754 33.1712C33.1565 33.0762 33.1662 32.9777 33.2033 32.8882C33.2404 32.7987 33.3031 32.7223 33.3837 32.6684C33.4642 32.6146 33.5589 32.5859 33.6558 32.5859C33.7202 32.5857 33.7839 32.5982 33.8435 32.6228C33.903 32.6473 33.957 32.6834 34.0026 32.7289C34.0481 32.7744 34.0842 32.8285 34.1087 32.888C34.1332 32.9475 34.1458 33.0113 34.1456 33.0757Z" fill="#455A64"/>
<path d="M34.1456 35.6883C34.1456 35.7852 34.1168 35.8799 34.063 35.9604C34.0092 36.041 33.9327 36.1037 33.8432 36.1408C33.7537 36.1779 33.6552 36.1876 33.5602 36.1687C33.4652 36.1498 33.378 36.1031 33.3095 36.0346C33.241 35.9661 33.1943 35.8789 33.1754 35.7839C33.1565 35.6889 33.1662 35.5904 33.2033 35.5009C33.2404 35.4114 33.3031 35.3349 33.3837 35.2811C33.4642 35.2273 33.5589 35.1985 33.6558 35.1985C33.7857 35.1985 33.9103 35.2501 34.0021 35.342C34.094 35.4339 34.1456 35.5584 34.1456 35.6883Z" fill="#455A64"/>
<path d="M34.1456 38.3009C34.1456 38.3978 34.1168 38.4925 34.063 38.573C34.0092 38.6536 33.9327 38.7164 33.8432 38.7534C33.7537 38.7905 33.6552 38.8002 33.5602 38.7813C33.4652 38.7624 33.378 38.7157 33.3095 38.6473C33.241 38.5788 33.1943 38.4915 33.1754 38.3965C33.1565 38.3015 33.1662 38.203 33.2033 38.1135C33.2404 38.024 33.3031 37.9475 33.3837 37.8937C33.4642 37.8399 33.5589 37.8112 33.6558 37.8112C33.7857 37.8112 33.9103 37.8628 34.0021 37.9546C34.094 38.0465 34.1456 38.171 34.1456 38.3009Z" fill="#455A64"/>
<path d="M34.1456 40.9136C34.1459 41.0105 34.1174 41.1054 34.0638 41.1861C34.0101 41.2669 33.9338 41.3299 33.8443 41.3672C33.7548 41.4045 33.6563 41.4144 33.5612 41.3957C33.4661 41.377 33.3787 41.3304 33.31 41.262C33.2414 41.1936 33.1946 41.1063 33.1755 41.0112C33.1565 40.9162 33.1661 40.8176 33.2031 40.7281C33.2402 40.6385 33.3029 40.5619 33.3835 40.508C33.4641 40.4541 33.5589 40.4254 33.6558 40.4254C33.7854 40.4254 33.9098 40.4767 34.0016 40.5683C34.0934 40.6598 34.1451 40.784 34.1456 40.9136Z" fill="#455A64"/>
<path d="M34.1456 43.5277C34.1456 43.6246 34.1168 43.7193 34.063 43.7999C34.0092 43.8804 33.9327 43.9432 33.8432 43.9802C33.7537 44.0173 33.6552 44.027 33.5602 44.0081C33.4652 43.9892 33.378 43.9426 33.3095 43.8741C33.241 43.8056 33.1943 43.7183 33.1754 43.6233C33.1565 43.5283 33.1662 43.4298 33.2033 43.3403C33.2404 43.2508 33.3031 43.1743 33.3837 43.1205C33.4642 43.0667 33.5589 43.038 33.6558 43.038C33.7857 43.038 33.9103 43.0896 34.0021 43.1814C34.094 43.2733 34.1456 43.3979 34.1456 43.5277Z" fill="#455A64"/>
<path d="M34.1456 46.145C34.1456 46.2419 34.1168 46.3366 34.063 46.4171C34.0092 46.4977 33.9327 46.5604 33.8432 46.5975C33.7537 46.6346 33.6552 46.6443 33.5602 46.6254C33.4652 46.6065 33.378 46.5598 33.3095 46.4913C33.241 46.4228 33.1943 46.3356 33.1754 46.2406C33.1565 46.1456 33.1662 46.0471 33.2033 45.9576C33.2404 45.8681 33.3031 45.7916 33.3837 45.7378C33.4642 45.684 33.5589 45.6552 33.6558 45.6552C33.7202 45.655 33.7839 45.6676 33.8435 45.6921C33.903 45.7167 33.957 45.7527 34.0026 45.7982C34.0481 45.8438 34.0842 45.8978 34.1087 45.9574C34.1332 46.0169 34.1458 46.0806 34.1456 46.145Z" fill="#455A64"/>
<path d="M34.1456 48.753C34.1456 48.8499 34.1168 48.9446 34.063 49.0251C34.0092 49.1057 33.9327 49.1684 33.8432 49.2055C33.7537 49.2426 33.6552 49.2523 33.5602 49.2334C33.4652 49.2145 33.378 49.1678 33.3095 49.0993C33.241 49.0308 33.1943 48.9436 33.1754 48.8486C33.1565 48.7536 33.1662 48.6551 33.2033 48.5656C33.2404 48.4761 33.3031 48.3996 33.3837 48.3458C33.4642 48.292 33.5589 48.2632 33.6558 48.2632C33.7857 48.2632 33.9103 48.3148 34.0021 48.4067C34.094 48.4985 34.1456 48.6231 34.1456 48.753Z" fill="#455A64"/>
<path d="M34.1456 51.3657C34.1456 51.4625 34.1168 51.5572 34.063 51.6378C34.0092 51.7183 33.9327 51.7811 33.8432 51.8181C33.7537 51.8552 33.6552 51.8649 33.5602 51.846C33.4652 51.8271 33.378 51.7805 33.3095 51.712C33.241 51.6435 33.1943 51.5562 33.1754 51.4612C33.1565 51.3662 33.1662 51.2677 33.2033 51.1782C33.2404 51.0887 33.3031 51.0122 33.3837 50.9584C33.4642 50.9046 33.5589 50.8759 33.6558 50.8759C33.7857 50.8759 33.9103 50.9275 34.0021 51.0193C34.094 51.1112 34.1456 51.2358 34.1456 51.3657Z" fill="#455A64"/>
<path d="M21.7829 16.9348H81.2926C81.5114 16.9348 81.7212 17.0217 81.876 17.1764C82.0307 17.3312 82.1176 17.541 82.1176 17.7598V20.751H20.9238V17.7938C20.9238 17.566 21.0143 17.3475 21.1754 17.1864C21.3365 17.0253 21.555 16.9348 21.7829 16.9348Z" fill="#EBEBEB"/>
<path d="M81.3474 55.5697C81.3898 55.5683 81.4322 55.5642 81.4741 55.5573C81.5995 55.5353 81.7175 55.4822 81.8171 55.4028C81.8975 55.336 81.9629 55.2528 82.0087 55.1588C82.0545 55.0647 82.0798 54.962 82.0828 54.8574V53.986C82.0828 52.6651 82.0828 50.7183 82.0828 48.2123C82.0828 43.1971 82.0828 35.9417 82.072 26.9775C82.072 24.7362 82.072 22.3908 82.072 19.9414V17.8448C82.0767 17.7682 82.0767 17.6913 82.072 17.6146C82.0501 17.4641 81.9809 17.3245 81.8742 17.216C81.7675 17.1068 81.6281 17.0352 81.4772 17.0121C81.3998 17.0022 81.3218 16.9985 81.2439 17.0013H77.1032H60.2732H21.7094C21.6076 17.0013 21.507 17.0231 21.4142 17.0652C21.3215 17.1073 21.2388 17.1688 21.1718 17.2454C21.1045 17.3217 21.0549 17.4119 21.0265 17.5096C21.0014 17.6105 20.992 17.7148 20.9987 17.8186V26.6777C20.9987 30.0088 20.9987 33.2889 20.9987 36.518V46.0137C20.9987 47.5649 20.9987 49.0997 20.9987 50.6179V54.5608C20.9809 54.7413 20.9993 54.9236 21.0528 55.0969C21.1043 55.2203 21.1897 55.3265 21.299 55.4033C21.4084 55.4802 21.5373 55.5245 21.6708 55.5311C21.7604 55.5311 21.8547 55.5311 21.9458 55.5311H29.4994H37.6695H52.3334L73.5666 55.5434L79.3404 55.5512L73.5666 55.5589L52.3334 55.5697H37.6695H21.9396C21.8469 55.5697 21.7573 55.5697 21.6615 55.5697C21.5649 55.5648 21.47 55.5417 21.3819 55.5017C21.2041 55.4199 21.0636 55.2743 20.9879 55.0938C20.9502 55.0042 20.9298 54.9083 20.9277 54.8111V50.6164C20.9277 49.0991 20.9277 47.5644 20.9277 46.0122V36.5165C20.9277 33.2904 20.9277 30.0104 20.9277 26.6762V17.8248C20.921 17.7145 20.932 17.604 20.9601 17.4972C20.9886 17.3893 21.0414 17.2894 21.1146 17.2052C21.1885 17.1204 21.2796 17.0524 21.382 17.0058C21.4843 16.9591 21.5954 16.9349 21.7079 16.9348H60.2717H77.1017H81.23C81.3105 16.9323 81.391 16.9359 81.471 16.9456C81.6339 16.9713 81.7843 17.0484 81.9003 17.1658C82.0162 17.2831 82.0915 17.4344 82.1153 17.5976C82.1214 17.6773 82.1214 17.7574 82.1153 17.8371V19.9244C82.1153 22.3697 82.1153 24.715 82.1153 26.9605C82.1153 35.9216 82.106 43.1832 82.1029 48.1953C82.1029 50.7013 82.1029 52.6481 82.1029 53.9691C82.1029 54.2981 82.1029 54.5871 82.1029 54.8405C82.098 55.0118 82.0337 55.1761 81.9209 55.3052C81.8082 55.4343 81.654 55.5202 81.4849 55.5481C81.4533 55.554 81.4212 55.5571 81.3891 55.5573L81.3474 55.5697Z" fill="#263238"/>
<path d="M23.2675 19.3667C23.5209 19.3667 23.7263 19.1612 23.7263 18.9078C23.7263 18.6544 23.5209 18.4489 23.2675 18.4489C23.014 18.4489 22.8086 18.6544 22.8086 18.9078C22.8086 19.1612 23.014 19.3667 23.2675 19.3667Z" fill="white"/>
<path d="M24.5624 19.3667C24.8158 19.3667 25.0213 19.1612 25.0213 18.9078C25.0213 18.6544 24.8158 18.4489 24.5624 18.4489C24.309 18.4489 24.1035 18.6544 24.1035 18.9078C24.1035 19.1612 24.309 19.3667 24.5624 19.3667Z" fill="white"/>
<path d="M25.8534 19.3667C26.1068 19.3667 26.3123 19.1612 26.3123 18.9078C26.3123 18.6544 26.1068 18.4489 25.8534 18.4489C25.6 18.4489 25.3945 18.6544 25.3945 18.9078C25.3945 19.1612 25.6 19.3667 25.8534 19.3667Z" fill="white"/>
<path d="M78.6837 31.3131H73.7934C73.6306 31.3131 73.4745 31.2484 73.3594 31.1333C73.2443 31.0182 73.1797 30.8621 73.1797 30.6993V23.9321C73.1797 23.7694 73.2443 23.6133 73.3594 23.4982C73.4745 23.3831 73.6306 23.3184 73.7934 23.3184H76.8947L79.2953 25.7927V30.7024C79.2945 30.8643 79.2298 31.0193 79.1152 31.1337C79.0007 31.248 78.8455 31.3125 78.6837 31.3131Z" fill="#455A64"/>
<g opacity="0.2">
<path d="M73.1816 28.8879H79.2952V30.7086C79.2952 30.7879 79.2796 30.8666 79.2492 30.9399C79.2188 31.0132 79.1743 31.0799 79.1182 31.136C79.062 31.1921 78.9954 31.2367 78.9221 31.2671C78.8487 31.2974 78.7701 31.3131 78.6907 31.3131H73.7872C73.6268 31.3131 73.4731 31.2494 73.3597 31.136C73.2464 31.0226 73.1827 30.8689 73.1827 30.7086V28.8879H73.1816Z" fill="black"/>
</g>
<g opacity="0.2">
<path d="M76.8926 23.3205V25.225C76.8926 25.376 76.9525 25.5207 77.0591 25.6275C77.1657 25.7343 77.3104 25.7945 77.4613 25.7948H79.2932L76.8926 23.3205Z" fill="white"/>
</g>
<g opacity="0.2">
<path d="M76.9201 25.3928C76.9201 25.3928 76.8966 25.8541 77.4223 26.0065C77.4422 26.012 77.4623 26.0164 77.4827 26.0198C77.722 26.0627 79.2962 26.343 79.2962 26.3062V25.7948H77.4642C77.4642 25.7948 77.007 25.7794 76.9201 25.3928Z" fill="black"/>
</g>
<path d="M75.691 26.8902L74.9576 27.1592L75.691 27.4262V27.7014L74.6426 27.2994V27.013L75.691 26.6141V26.8902Z" fill="#FAFAFA"/>
<path d="M76.4812 26.0719H76.7881L76.0588 28.1463H75.752L76.4812 26.0719Z" fill="#FAFAFA"/>
<path d="M77.8756 27.0109V27.2994L76.8262 27.6983V27.4211L77.5606 27.1541L76.8262 26.8902V26.612L77.8756 27.0109Z" fill="#FAFAFA"/>
<path d="M75.4433 29.79V30.6083H75.253V30.2718H74.8797V30.6083H74.6895V29.79H74.8797V30.1143H75.253V29.79H75.4433Z" fill="#FAFAFA"/>
<path d="M75.8077 29.9455H75.5469V29.79H76.2629V29.9455H76V30.6114H75.8097L75.8077 29.9455Z" fill="#FAFAFA"/>
<path d="M77.1109 30.6114V30.1184L76.8685 30.5275H76.7826L76.5422 30.1317V30.6134H76.3652V29.7952H76.5217L76.8286 30.3066L77.1354 29.7952H77.2858V30.6134L77.1109 30.6114Z" fill="#FAFAFA"/>
<path d="M77.4835 29.79H77.6728V30.4569H78.0819V30.6114H77.4805L77.4835 29.79Z" fill="#FAFAFA"/>
<path d="M92.3174 56.9604H92.8279C92.9568 56.9601 93.0811 56.9127 93.1774 56.8271C93.2738 56.7416 93.3356 56.6238 93.3512 56.4958C93.452 55.6688 93.6498 53.3652 93.6523 53.3423L93.2912 53.3116C93.2912 53.3346 93.0908 55.6318 92.9913 56.4524C92.9863 56.4923 92.9669 56.5289 92.9369 56.5554C92.9068 56.582 92.868 56.5967 92.8279 56.5967H92.3174V56.9604Z" fill="#E0E0E0"/>
<path d="M92.3177 56.9604C92.3177 56.9604 92.3177 56.9527 92.3177 56.9387C92.3177 56.9246 92.3177 56.8978 92.3177 56.8698C92.3177 56.8047 92.3177 56.7141 92.3177 56.5967V56.589H92.5998H92.7644C92.7933 56.591 92.8223 56.591 92.8512 56.589C92.8799 56.5827 92.9061 56.5681 92.9265 56.5469C92.9487 56.5258 92.9635 56.498 92.9686 56.4678C92.9686 56.4358 92.9686 56.4014 92.9775 56.3669C92.9775 56.2967 92.9916 56.224 92.9979 56.15C93.012 56.0007 93.026 55.8411 93.0413 55.6739C93.1039 55.0014 93.1792 54.1935 93.2621 53.3167V53.2887H93.2838L93.5518 53.3116L93.6463 53.3193H93.668V53.341C93.5493 54.5662 93.4408 55.6688 93.3629 56.4703C93.3553 56.5629 93.3241 56.6519 93.2723 56.729C93.2204 56.8061 93.1497 56.8686 93.0669 56.9106C92.999 56.9448 92.9246 56.964 92.8486 56.9668C92.7797 56.9668 92.721 56.9668 92.6597 56.9668H92.4045H92.3381H92.4058H92.661C92.7946 56.9799 92.9293 56.9593 93.0528 56.9068C93.1311 56.866 93.1976 56.806 93.2461 56.7322C93.2946 56.6585 93.3234 56.5736 93.3298 56.4856C93.4051 55.6829 93.5084 54.5802 93.622 53.3563L93.6424 53.3793L93.548 53.3716L93.28 53.3486L93.3042 53.3282C93.2187 54.205 93.1409 55.0129 93.0745 55.6854C93.0579 55.8526 93.0426 56.0121 93.0273 56.1615C93.0273 56.2355 93.0133 56.3082 93.0056 56.3771C93.0056 56.4129 93.0056 56.4461 92.9954 56.4805C92.988 56.5157 92.9707 56.548 92.9456 56.5737C92.9209 56.5978 92.89 56.6145 92.8563 56.6222C92.8253 56.6253 92.7941 56.6253 92.7631 56.6222H92.5947L92.3177 56.6069L92.3254 56.5979C92.3254 56.7128 92.3254 56.8021 92.3254 56.8659C92.3254 56.8953 92.3254 56.9183 92.3254 56.9361C92.3254 56.954 92.3177 56.9591 92.3177 56.9604Z" fill="#263238"/>
<path d="M84.2887 57.065L83.061 66.1441H83.5421L85.3633 57.4032L84.2887 57.065Z" fill="#455A64"/>
<path d="M84.2877 57.065L84.3553 57.0842L84.5608 57.1467L85.3661 57.393H85.375V57.4032C85.0508 58.9743 84.3808 62.2108 83.6074 65.9438L83.5653 66.1467V66.1645H83.0408V66.1377C83.3892 63.5955 83.6993 61.3238 83.9239 59.6851C84.0362 58.8709 84.1281 58.2136 84.1907 57.758C84.2226 57.5347 84.2468 57.3598 84.2647 57.2399C84.2723 57.1812 84.2787 57.1378 84.2838 57.1059C84.2854 57.0908 84.288 57.0759 84.2915 57.0612C84.2915 57.0612 84.2915 57.0778 84.2915 57.1097C84.2915 57.1416 84.2813 57.1876 84.2736 57.2463C84.2583 57.3739 84.2353 57.5449 84.206 57.7721C84.146 58.2302 84.0592 58.8888 83.9507 59.7068C83.7325 61.3417 83.43 63.6083 83.0906 66.1441L83.0676 66.1173H83.5487L83.5257 66.1352C83.5385 66.0714 83.5538 66.0076 83.5679 65.9323C84.3515 62.2019 85.0304 58.9679 85.3546 57.3969L85.3622 57.4096L84.5671 57.1544L84.3604 57.0867L84.2877 57.065Z" fill="#263238"/>
<path d="M84.235 57.4032H92.3327C92.4767 57.4032 92.6148 57.3464 92.7171 57.245C92.8194 57.1437 92.8776 57.0061 92.8789 56.8621C92.8789 56.7172 92.8214 56.5783 92.7189 56.4759C92.6165 56.3734 92.4775 56.3159 92.3327 56.3159H84.235C84.0901 56.3159 83.9512 56.3734 83.8488 56.4759C83.7463 56.5783 83.6888 56.7172 83.6888 56.8621C83.6901 57.0061 83.7483 57.1437 83.8506 57.245C83.9529 57.3464 84.091 57.4032 84.235 57.4032Z" fill="#455A64"/>
<path d="M94.0642 53.6128L95.1694 44.9447C95.1878 44.801 95.1484 44.6559 95.0599 44.5412C94.9713 44.4266 94.8409 44.3518 94.6972 44.3334C94.6259 44.3242 94.5536 44.3293 94.4843 44.3481C94.415 44.367 94.3501 44.3993 94.2933 44.4433C94.2365 44.4873 94.189 44.542 94.1534 44.6044C94.1178 44.6668 94.0948 44.7356 94.0859 44.8068L92.9807 53.475C92.9715 53.5462 92.9765 53.6186 92.9954 53.6879C93.0143 53.7572 93.0466 53.8221 93.0906 53.8788C93.1346 53.9356 93.1893 53.9832 93.2517 54.0188C93.3141 54.0544 93.3829 54.0773 93.4541 54.0863C93.5978 54.1044 93.7428 54.0646 93.8572 53.9758C93.9716 53.8871 94.046 53.7565 94.0642 53.6128Z" fill="#455A64"/>
<path d="M92.2364 57.065L93.4629 66.1441H92.983L91.1619 57.4032L92.2364 57.065Z" fill="#455A64"/>
<path d="M84.1664 57.4032C84.1664 57.3917 86.0195 57.3815 88.3052 57.3815C90.591 57.3815 92.4453 57.3917 92.4453 57.4032C92.4453 57.4147 90.5922 57.4249 88.3052 57.4249C86.0182 57.4249 84.1664 57.416 84.1664 57.4032Z" fill="#263238"/>
<path d="M90.1396 33.8683C90.1485 33.7997 90.1711 33.7335 90.2059 33.6738C90.2407 33.614 90.2871 33.5617 90.3424 33.5201C90.3977 33.4785 90.4607 33.4484 90.5278 33.4314C90.5949 33.4145 90.6647 33.4112 90.7331 33.4216C90.8167 33.2721 90.9549 33.1606 91.1187 33.1105C91.2825 33.0603 91.4594 33.0753 91.6124 33.1523C91.7553 33.2315 91.8677 33.3629 92.0017 33.4472C92.1417 33.517 92.2853 33.5796 92.4317 33.6348C92.5052 33.6625 92.5706 33.708 92.622 33.7673C92.6735 33.8265 92.7094 33.8977 92.7266 33.9742C92.7269 34.0611 92.7 34.1459 92.6497 34.2166C92.5993 34.2874 92.528 34.3405 92.4458 34.3686C92.2807 34.4196 92.1068 34.4353 91.9353 34.4145C91.9713 34.4399 91.9966 34.4776 92.0065 34.5204C92.0164 34.5633 92.0101 34.6083 91.9889 34.6468C91.9443 34.7228 91.8735 34.78 91.7898 34.8076C91.6529 34.8601 91.5041 34.8736 91.36 34.8468C91.2159 34.82 91.0819 34.7539 90.973 34.6557L90.6489 34.4005C90.5804 34.3993 90.5128 34.3846 90.45 34.3572C90.3873 34.3297 90.3306 34.2901 90.2832 34.2406C90.2359 34.1911 90.1988 34.1328 90.1742 34.0689C90.1495 34.0049 90.1378 33.9368 90.1396 33.8683Z" fill="#263238"/>
<path d="M90.9524 34.9531C90.9836 34.9815 91.0244 34.9973 91.0666 34.9973C91.1088 34.9973 91.1496 34.9815 91.1808 34.9531C91.2107 34.9231 91.2317 34.8854 91.2416 34.8442C91.2516 34.803 91.2499 34.7599 91.237 34.7196C91.2087 34.6397 91.1537 34.5721 91.0813 34.5281C91.0092 34.484 90.9309 34.4509 90.849 34.4298C90.7247 34.3904 90.5962 34.366 90.4661 34.3571C90.42 34.3523 90.3733 34.358 90.3296 34.3737C90.3078 34.3816 90.2885 34.3952 90.2739 34.4132C90.2593 34.4312 90.2499 34.4528 90.2466 34.4758C90.2466 34.5409 90.2977 34.5919 90.35 34.6302C90.5447 34.7765 90.7523 34.9046 90.9702 35.0131" fill="#2059EE"/>
<path d="M91.1418 34.9199C91.4494 34.5766 92.2164 34.6226 92.3989 34.8459C92.534 34.781 92.689 34.7707 92.8316 34.817C92.9742 34.8633 93.0934 34.9628 93.1646 35.0948L93.9776 35.267C94.1209 35.2838 94.2575 35.337 94.3745 35.4215C94.4311 35.4655 94.4697 35.5288 94.4829 35.5993C94.496 35.6699 94.4829 35.7428 94.4459 35.8043C94.5142 35.8279 94.5757 35.8678 94.625 35.9206C94.6743 35.9734 94.7099 36.0375 94.7288 36.1072C94.7477 36.1769 94.7492 36.2502 94.7333 36.3206C94.7174 36.3911 94.6844 36.4566 94.6374 36.5114C94.6652 36.5429 94.6863 36.5798 94.6993 36.6198C94.7123 36.6597 94.717 36.702 94.713 36.7438C94.7091 36.7857 94.6966 36.8263 94.6764 36.8631C94.6561 36.9 94.6285 36.9323 94.5953 36.9581C94.8219 37.2267 95.0014 37.5318 95.1262 37.8603C95.1914 37.994 95.2068 38.1465 95.1696 38.2904C95.1198 38.4283 94.9398 38.524 94.8199 38.4398C94.859 38.4952 94.8815 38.5606 94.8849 38.6284C94.8883 38.6962 94.8724 38.7635 94.839 38.8226C94.9769 38.8226 95.0203 39.0383 94.9258 39.1391C94.8729 39.1826 94.8116 39.2148 94.7457 39.2336C94.6799 39.2525 94.6109 39.2577 94.5429 39.2489C94.4052 39.2311 94.2653 39.256 94.1422 39.3204C94.1436 39.3374 94.1484 39.3539 94.1563 39.369C94.1642 39.3842 94.175 39.3975 94.1881 39.4084C94.3031 39.4956 94.3804 39.6235 94.4042 39.7659C94.4279 39.9083 94.3963 40.0543 94.3158 40.1741L94.2711 40.238C94.1588 40.3582 94.0233 40.4546 93.8729 40.5213C93.5628 40.6872 93.3765 40.6578 93.0293 40.7102C93.1251 40.9335 92.5635 41.4351 91.9139 40.9514C90.7599 41.2916 89.5628 41.4635 88.3596 41.4619C88.1682 41.4619 87.9397 41.4389 87.8491 41.2692C87.7702 41.285 87.6886 41.2804 87.612 41.2558C87.5354 41.2313 87.4663 41.1875 87.4114 41.1288C87.3037 41.011 87.2173 40.8754 87.1561 40.728C86.9911 40.6813 86.8445 40.5848 86.7365 40.4516C86.6284 40.3184 86.5641 40.1551 86.5525 39.984C86.4401 39.8967 86.3472 39.7869 86.2797 39.6617C86.2122 39.5364 86.1717 39.3984 86.1607 39.2565C86.0823 39.2289 86.0106 39.1855 85.9498 39.1289C85.889 39.0722 85.8406 39.0037 85.8075 38.9275C85.7745 38.8513 85.7575 38.7691 85.7577 38.6861C85.7578 38.603 85.7751 38.5209 85.8084 38.4449C85.8735 38.0508 86.0028 37.6701 86.1913 37.3179C85.9718 37.272 85.8876 36.9772 85.9769 36.7717C86.0662 36.5663 86.2628 36.4335 86.4504 36.3123C86.287 36.3569 86.1441 36.1528 86.1811 35.9881C86.2381 35.827 86.3564 35.6949 86.5104 35.6206C86.7224 35.4916 86.949 35.3884 87.1855 35.313C87.2621 35.0246 87.6271 34.6953 87.8963 34.5651C88.9786 34.0431 89.7392 33.9079 91.1316 34.9123" fill="#263238"/>
<path d="M92.029 36.6632C92.0443 36.4348 92.0813 36.2089 91.8554 36.1744L89.5454 35.4789C88.8014 35.3653 88.2615 36.2638 88.1811 37.0104C88.0905 37.8425 88.0127 38.8609 88.0829 39.4888C88.1207 39.8461 88.2582 40.1855 88.4799 40.4683C88.7015 40.7511 88.9982 40.9658 89.3361 41.0879L89.3259 42.1855C89.4216 42.7738 89.5518 43.1031 89.7917 43.3341C90.6085 43.1822 91.946 41.3853 91.946 41.3853L92.029 36.6632Z" fill="#FFBF9D"/>
<path d="M89.3395 38.9158C89.2493 38.8831 89.1554 38.8617 89.06 38.852C89.0166 38.852 88.9758 38.8354 88.9694 38.8048C88.9679 38.7595 88.9803 38.715 89.0051 38.6771C89.0511 38.5712 89.0996 38.4615 89.1506 38.3466C89.2846 38.0677 89.3956 37.7783 89.4824 37.4813C89.3276 37.7493 89.1936 38.0287 89.0817 38.3172C89.0319 38.4334 88.986 38.5444 88.9413 38.6503C88.9111 38.7024 88.9003 38.7634 88.9107 38.8226C88.9162 38.8384 88.9253 38.8527 88.9373 38.8644C88.9492 38.8762 88.9637 38.885 88.9796 38.8903C89.004 38.8981 89.0293 38.9028 89.0549 38.9043C89.1489 38.9201 89.2445 38.924 89.3395 38.9158Z" fill="#263238"/>
<path d="M89.3377 41.0905C89.8769 41.0232 90.3974 40.8497 90.8691 40.58C90.8691 40.58 90.5948 41.3802 89.3377 41.4734V41.0905Z" fill="#FF9A6C"/>
<path d="M90.0757 36.9912C90.0898 37.0384 90.2634 37.0244 90.4586 37.0576C90.6539 37.0908 90.8211 37.1533 90.8504 37.1125C90.8632 37.0933 90.8364 37.0474 90.7726 36.9989C90.6869 36.9395 90.5889 36.9002 90.4859 36.8841C90.3829 36.8679 90.2776 36.8753 90.1778 36.9057C90.1077 36.9325 90.0694 36.9682 90.0757 36.9912Z" fill="#263238"/>
<path d="M88.4163 36.9619C88.4443 37.0027 88.5656 36.9619 88.7085 36.9721C88.8515 36.9823 88.9714 37.0104 89.0008 36.9721C89.0148 36.9529 89.0008 36.9121 88.9459 36.8725C88.8768 36.8246 88.7949 36.7983 88.7108 36.7972C88.6266 36.7961 88.5441 36.8201 88.4737 36.8662C88.4214 36.9032 88.4035 36.9427 88.4163 36.9619Z" fill="#263238"/>
<path d="M87.5661 37.614C87.5722 37.4176 87.6457 37.2293 87.7742 37.0806C87.8553 37.0096 87.9328 36.9347 88.0064 36.856C88.1468 36.6709 88.1341 36.4144 88.1877 36.1898C88.2273 36.0444 88.3012 35.9106 88.4031 35.7996C88.505 35.6886 88.632 35.6036 88.7734 35.5517C89.0083 35.4674 89.275 35.4789 89.4958 35.3615C89.6579 35.276 89.7829 35.1254 89.9501 35.0488C90.2768 34.8995 90.6559 35.068 90.9711 35.2517C91.0311 35.4968 90.8767 35.7086 90.7274 35.9128C90.6522 36.0134 90.5564 36.0967 90.4463 36.157C90.3362 36.2173 90.2144 36.2533 90.0892 36.2625C89.894 36.274 89.6655 36.2306 89.5277 36.3697C89.3899 36.5088 89.4384 36.7756 89.3197 36.9428C89.1499 37.184 88.7632 37.0921 88.508 37.2401C88.3127 37.355 88.2298 37.5898 88.1251 37.7953C88.0205 38.0007 87.8558 38.2139 87.6287 38.2024C87.5854 38.0093 87.5644 37.8119 87.5661 37.614Z" fill="#263238"/>
<path d="M90.4781 35.6946C91.0515 35.687 91.6208 35.7901 92.1551 35.9983C92.3194 36.0475 92.4637 36.1476 92.5673 36.2842C92.6376 36.4174 92.6681 36.568 92.6554 36.7181C92.649 37.1878 92.4601 37.7608 92.2802 38.1947L91.6944 38.5444C91.2439 38.4385 91.4519 37.6587 91.4736 37.2682C91.3166 37.1966 91.183 37.0822 91.088 36.9382C90.9929 36.7943 90.9404 36.6264 90.9363 36.4539C90.8077 36.37 90.6998 36.2581 90.6205 36.1266C90.5411 35.9951 90.4925 35.8475 90.4781 35.6946Z" fill="#263238"/>
<path d="M91.7021 38.3759C91.72 38.1079 92.0492 38.0569 92.279 38.1947C92.4066 38.2713 92.501 38.4206 92.4844 38.7052C92.441 39.4709 91.6868 39.2642 91.6868 39.2425C91.6868 39.2208 91.6804 38.6899 91.7021 38.3759Z" fill="#FFBF9D"/>
<path d="M91.9349 38.9681C91.9349 38.9681 91.9477 38.9783 91.9694 38.9898C91.9987 39.0032 92.0319 39.005 92.0625 38.9949C92.113 38.9663 92.1552 38.925 92.1847 38.8751C92.2143 38.8251 92.2302 38.7683 92.231 38.7103C92.2363 38.6453 92.2272 38.5799 92.2042 38.5189C92.1986 38.4946 92.1871 38.4721 92.1709 38.4532C92.1547 38.4343 92.1341 38.4196 92.111 38.4104C92.096 38.4057 92.0798 38.4064 92.0652 38.4122C92.0506 38.418 92.0384 38.4286 92.0306 38.4423C92.0191 38.464 92.023 38.4793 92.0191 38.4793C92.0153 38.4793 92.0038 38.4665 92.0115 38.4346C92.0169 38.4163 92.0286 38.4004 92.0447 38.39C92.0553 38.3825 92.0674 38.3773 92.0801 38.3747C92.0928 38.3721 92.106 38.372 92.1187 38.3747C92.1489 38.3836 92.1764 38.3999 92.1987 38.4222C92.221 38.4445 92.2374 38.472 92.2463 38.5023C92.2746 38.57 92.286 38.6436 92.2795 38.7167C92.2792 38.7844 92.2589 38.8506 92.2213 38.9069C92.1836 38.9632 92.1301 39.0071 92.0676 39.0332C92.0469 39.0382 92.0253 39.0384 92.0045 39.0338C91.9837 39.0291 91.9643 39.0197 91.9477 39.0064C91.9349 38.986 91.9349 38.9694 91.9349 38.9681Z" fill="#FF9A6C"/>
<path d="M92.0187 39.2872C92.0181 39.2906 92.0181 39.294 92.0187 39.2974C92.0206 39.3076 92.024 39.3175 92.0289 39.3267C92.048 39.3623 92.0793 39.3899 92.117 39.4046C92.1757 39.4317 92.2398 39.4452 92.3046 39.4441C92.3451 39.4453 92.3857 39.4427 92.4258 39.4365C92.4722 39.4303 92.5174 39.4169 92.5598 39.3969H92.5496C92.5616 39.4607 92.5897 39.5204 92.6312 39.5704C92.6726 39.6204 92.7261 39.659 92.7866 39.6826C92.8471 39.7062 92.9126 39.7141 92.977 39.7054C93.0414 39.6967 93.1024 39.6718 93.1545 39.633H93.1405C93.164 39.667 93.1996 39.6908 93.24 39.6994C93.2827 39.7082 93.327 39.7047 93.3677 39.6892C93.4082 39.6737 93.4427 39.6455 93.4659 39.6088C93.4902 39.5705 93.5039 39.5265 93.5055 39.4812C93.5095 39.3889 93.4801 39.2982 93.4225 39.2259C93.3642 39.1527 93.2969 39.0871 93.2222 39.0307V39.0472C93.2528 39.0268 93.2789 39.0003 93.2989 38.9693C93.3189 38.9384 93.3323 38.9036 93.3383 38.8673C93.3535 38.7924 93.346 38.7146 93.3166 38.644C93.2865 38.5731 93.2432 38.5085 93.189 38.4538C93.1322 38.3995 93.0721 38.3487 93.009 38.3019V38.3185C93.0358 38.2895 93.0562 38.2552 93.069 38.2179C93.0817 38.1805 93.0865 38.1409 93.0831 38.1016C93.0778 38.0194 93.048 37.9407 92.9976 37.8757C92.8943 37.7646 92.768 37.6774 92.6274 37.6204L92.6338 37.6345C92.6523 37.5554 92.6516 37.4731 92.6319 37.3944C92.6122 37.3156 92.574 37.2427 92.5205 37.1817C92.4669 37.1207 92.3996 37.0733 92.3241 37.0435C92.2486 37.0137 92.1671 37.0024 92.0863 37.0104L92.0978 37.0244C92.1085 36.9613 92.1058 36.8967 92.0897 36.8348C92.0736 36.7728 92.0446 36.715 92.0046 36.6651C91.9646 36.6152 91.9144 36.5743 91.8575 36.5452C91.8005 36.516 91.738 36.4993 91.6741 36.4961L91.6843 36.5063C91.6825 36.4415 91.6661 36.3781 91.6362 36.3206C91.6064 36.2631 91.5639 36.2132 91.512 36.1745C91.4677 36.1391 91.4168 36.1131 91.3621 36.0979C91.3075 36.0828 91.2504 36.0789 91.1942 36.0864L91.2032 36.094C91.199 36.0249 91.1779 35.9579 91.1419 35.8988C91.1113 35.8466 91.0725 35.7996 91.0271 35.7597C90.9563 35.6957 90.8668 35.6563 90.7718 35.6474H90.7169C90.7003 35.6474 90.6837 35.6474 90.6684 35.6474C90.6441 35.6522 90.6202 35.659 90.597 35.6678L90.5536 35.6857H90.5395H90.5549L90.5982 35.6703C90.6215 35.6621 90.6454 35.6557 90.6697 35.6512C90.685 35.6512 90.7003 35.6512 90.7169 35.6512H90.7437H90.7718C90.867 35.6592 90.9568 35.6988 91.0271 35.7635C91.0716 35.8028 91.1091 35.8494 91.1381 35.9013C91.1725 35.9581 91.1922 36.0226 91.1955 36.0889V36.0979H91.1942C91.2483 36.0909 91.3032 36.095 91.3557 36.1099C91.4081 36.1248 91.457 36.1503 91.4993 36.1847C91.5488 36.2218 91.5892 36.2697 91.6175 36.3247C91.6458 36.3798 91.6613 36.4406 91.6626 36.5024V36.5114H91.6716C91.7305 36.5133 91.7883 36.5279 91.8412 36.5541C91.894 36.5803 91.9406 36.6175 91.9778 36.6632C92.0194 36.7109 92.0497 36.7673 92.0665 36.8283C92.0833 36.8893 92.0862 36.9533 92.0748 37.0155V37.0295H92.0902C92.1675 37.0208 92.2458 37.031 92.3184 37.0591C92.391 37.0873 92.4556 37.1325 92.5069 37.1911C92.5582 37.2496 92.5946 37.3197 92.6129 37.3954C92.6312 37.471 92.6309 37.55 92.6121 37.6255V37.6345H92.6211C92.7593 37.6917 92.8831 37.7788 92.9835 37.8897C93.028 37.9518 93.0537 38.0253 93.0575 38.1016C93.0609 38.1383 93.0566 38.1754 93.0447 38.2104C93.0328 38.2453 93.0137 38.2774 92.9886 38.3045L92.9797 38.3134L92.9899 38.3211C93.1189 38.404 93.2244 38.5187 93.2962 38.6542C93.3232 38.7209 93.3303 38.794 93.3166 38.8647C93.3104 38.8983 93.2974 38.9303 93.2786 38.9588C93.2597 38.9873 93.2353 39.0118 93.2069 39.0307L93.1928 39.0383L93.2056 39.0485C93.2787 39.1036 93.3447 39.1675 93.4021 39.2387C93.456 39.3068 93.484 39.3918 93.4812 39.4786C93.4813 39.5193 93.4692 39.559 93.4465 39.5927C93.4237 39.6263 93.3914 39.6524 93.3536 39.6675C93.3195 39.6833 93.281 39.6871 93.2444 39.6783C93.2078 39.6695 93.1752 39.6486 93.152 39.619V39.6113H93.1443C93.0901 39.6521 93.0256 39.6772 92.9581 39.6837C92.8905 39.6902 92.8225 39.678 92.7614 39.6483C92.7109 39.6221 92.6671 39.5846 92.6333 39.5388C92.5994 39.4931 92.5765 39.4402 92.5662 39.3842V39.3778H92.5585C92.5184 39.3978 92.4753 39.4111 92.4309 39.4173C92.3913 39.4243 92.3512 39.4278 92.3109 39.4276C92.2475 39.4283 92.1845 39.4162 92.1259 39.3918C92.0889 39.3773 92.0579 39.3508 92.0378 39.3165C92.0225 39.3012 92.02 39.2872 92.0187 39.2872Z" fill="#455A64"/>
<path d="M94.9123 38.4755C94.9238 38.4614 94.9337 38.4459 94.9417 38.4295C94.965 38.3826 94.9785 38.3313 94.9812 38.2789C94.9879 38.1952 94.9664 38.1116 94.92 38.0416C94.8887 37.9947 94.848 37.9549 94.8006 37.9246C94.7531 37.8943 94.6999 37.8741 94.6443 37.8654L94.6507 37.8744C94.6757 37.7457 94.6515 37.6123 94.583 37.5004C94.5452 37.4376 94.4943 37.3836 94.4337 37.3422C94.3678 37.3026 94.2981 37.2696 94.2257 37.2439C94.1902 37.2286 94.1567 37.2089 94.1261 37.1852C94.0969 37.1594 94.0734 37.1276 94.0572 37.0921C94.024 37.0193 94.0126 36.9325 93.9704 36.8547C93.9252 36.7747 93.857 36.71 93.7746 36.6691C93.6923 36.6281 93.5996 36.6128 93.5084 36.625L93.5212 36.6377C93.5344 36.5454 93.5261 36.4514 93.4972 36.3628C93.4682 36.2742 93.4193 36.1934 93.3542 36.1267C93.2891 36.06 93.2095 36.0091 93.1217 35.978C93.0338 35.9469 92.9399 35.9364 92.8474 35.9473L92.8601 35.96C92.8697 35.8531 92.8476 35.7457 92.7965 35.6513C92.7455 35.5569 92.6677 35.4796 92.573 35.4291C92.487 35.386 92.3912 35.3662 92.2951 35.3716C92.1991 35.3769 92.1061 35.4073 92.0255 35.4598H92.0382C91.9636 35.3867 91.8745 35.3302 91.7766 35.2939C91.6886 35.2615 91.5968 35.2405 91.5035 35.2313C91.3527 35.2153 91.2002 35.2257 91.053 35.2619C90.9587 35.2844 90.8686 35.3219 90.7863 35.373C90.7643 35.3863 90.7434 35.4012 90.7237 35.4176L90.7046 35.4342C90.7046 35.4342 90.7326 35.4125 90.7888 35.3781C90.8717 35.3295 90.9617 35.2942 91.0555 35.2734C91.2018 35.2387 91.353 35.23 91.5022 35.2479C91.5939 35.2571 91.684 35.2781 91.7702 35.3104C91.8655 35.3451 91.9525 35.3995 92.0255 35.47V35.4764C92.1064 35.4203 92.2018 35.3888 92.3001 35.3856C92.3985 35.3825 92.4957 35.4079 92.58 35.4587C92.6643 35.5096 92.7321 35.5837 92.7752 35.6722C92.8184 35.7607 92.835 35.8598 92.8231 35.9575V35.9715H92.8372C92.9262 35.9611 93.0164 35.9712 93.1009 36.0011C93.1853 36.031 93.2618 36.0799 93.3245 36.144C93.3871 36.2081 93.4342 36.2857 93.4621 36.3708C93.49 36.456 93.498 36.5464 93.4855 36.6352V36.6505H93.5008C93.5875 36.6391 93.6757 36.6538 93.7541 36.6927C93.8325 36.7315 93.8976 36.7928 93.9411 36.8687C93.9819 36.9415 93.9921 37.027 94.0279 37.1035C94.0451 37.1424 94.0708 37.1768 94.1032 37.2044C94.1351 37.2297 94.1703 37.2508 94.2078 37.2669C94.279 37.2922 94.3477 37.3238 94.4133 37.3613C94.4713 37.4015 94.5204 37.4532 94.5575 37.5132C94.6249 37.6212 94.6494 37.7505 94.6264 37.8757V37.8833H94.6354C94.7303 37.8963 94.8169 37.9444 94.8781 38.0181C94.9393 38.0918 94.9706 38.1858 94.9659 38.2815C94.9632 38.333 94.9511 38.3836 94.9302 38.4308C94.9225 38.4602 94.9123 38.4742 94.9123 38.4755Z" fill="#455A64"/>
<path d="M87.6495 38.681C87.6537 38.6711 87.6558 38.6604 87.6558 38.6497C87.6558 38.639 87.6537 38.6283 87.6495 38.6184C87.6414 38.5935 87.6258 38.5716 87.6048 38.5559C87.5777 38.5334 87.5458 38.5173 87.5117 38.5087C87.4699 38.4979 87.4299 38.4811 87.393 38.4589C87.351 38.4271 87.3209 38.3822 87.3075 38.3313C87.2899 38.2752 87.2834 38.2163 87.2883 38.1577C87.2883 38.0952 87.3011 38.0301 87.3011 37.9573C87.2856 37.8044 87.2531 37.6538 87.2041 37.5081C87.1841 37.4267 87.1806 37.342 87.1939 37.2592C87.2003 37.2158 87.2159 37.1741 87.2397 37.1372C87.2634 37.1002 87.2948 37.0687 87.3317 37.0448C87.4166 37.0042 87.5062 36.9742 87.5985 36.9555C87.6471 36.9416 87.6932 36.9201 87.735 36.8917C87.7763 36.8602 87.8092 36.819 87.8307 36.7717C87.8678 36.6753 87.8943 36.5752 87.9099 36.4731C87.9202 36.4225 87.9383 36.3739 87.9635 36.3289C87.9887 36.2848 88.0277 36.2503 88.0745 36.2306C88.1433 36.2128 88.214 36.2034 88.2851 36.2025C88.3216 36.1993 88.3574 36.1903 88.391 36.1757C88.425 36.1599 88.4541 36.1352 88.4752 36.1043C88.5108 36.0436 88.5379 35.9783 88.5556 35.9103C88.5747 35.8472 88.6069 35.789 88.6501 35.7393C88.6914 35.6916 88.742 35.653 88.7989 35.6257C88.8557 35.5985 88.9176 35.5833 88.9806 35.581C89.099 35.5781 89.2141 35.6195 89.3035 35.6971L89.3137 35.7073V35.6946C89.357 35.6013 89.4196 35.5183 89.4976 35.4512C89.5755 35.384 89.6668 35.3343 89.7655 35.3053C89.8483 35.2813 89.9351 35.2739 90.0207 35.2836C90.093 35.2901 90.1635 35.3095 90.2288 35.3411C90.321 35.3862 90.3981 35.4572 90.4508 35.5453C90.4656 35.5677 90.478 35.5917 90.4878 35.6167L90.498 35.6359V35.6423C90.498 35.6423 90.498 35.6423 90.498 35.6346L90.4904 35.6155C90.4804 35.5903 90.4684 35.566 90.4547 35.5427C90.4035 35.4515 90.3261 35.3777 90.2326 35.3309C90.1662 35.2978 90.0945 35.2771 90.0207 35.2696C89.9351 35.2603 89.8485 35.2672 89.7655 35.29C89.6643 35.319 89.5705 35.3693 89.4904 35.4376C89.4103 35.5058 89.3457 35.5904 89.3009 35.6857H89.3163C89.2691 35.6429 89.2138 35.6099 89.1537 35.5888C89.0936 35.5677 89.0299 35.5587 88.9663 35.5625C88.9027 35.5663 88.8405 35.5828 88.7833 35.6109C88.7262 35.6391 88.6752 35.6784 88.6335 35.7265C88.5884 35.7786 88.5545 35.8394 88.5339 35.9052C88.5169 35.9713 88.4912 36.0348 88.4574 36.094C88.4366 36.1208 88.4101 36.1425 88.3798 36.1578C88.3496 36.173 88.3164 36.1813 88.2825 36.1821C88.2097 36.1826 88.1372 36.1925 88.0668 36.2115C88.0133 36.2322 87.9683 36.2705 87.9392 36.3199C87.9131 36.3669 87.8946 36.4178 87.8843 36.4705C87.8682 36.5707 87.8421 36.6691 87.8065 36.7641C87.7867 36.8085 87.7559 36.8471 87.7171 36.8764C87.6782 36.9033 87.6351 36.9236 87.5895 36.9364C87.4958 36.956 87.4049 36.9873 87.319 37.0295C87.2783 37.0543 87.2442 37.0884 87.2194 37.1291C87.196 37.1684 87.18 37.2116 87.1722 37.2567C87.159 37.3417 87.1629 37.4285 87.1837 37.5119C87.2329 37.6558 87.2659 37.8048 87.282 37.9561C87.282 38.0263 87.273 38.0926 87.2717 38.1564C87.2671 38.2164 87.2744 38.2767 87.2934 38.3338C87.3089 38.3851 87.3407 38.43 87.384 38.4614C87.4239 38.484 87.4669 38.5003 87.5117 38.5099C87.5451 38.5183 87.5764 38.5335 87.6036 38.5546C87.6234 38.5699 87.6388 38.5901 87.6482 38.6133C87.6571 38.6349 87.6576 38.659 87.6495 38.681Z" fill="#455A64"/>
<path d="M86.1751 37.5043L86.1828 37.4902C86.1828 37.4788 86.1956 37.4647 86.2045 37.4468C86.2224 37.4086 86.2492 37.3537 86.2823 37.2822C86.3155 37.2107 86.3551 37.1227 86.41 37.027C86.4676 36.914 86.5561 36.8198 86.6652 36.7551C86.7265 36.7219 86.7928 36.699 86.8681 36.6671C86.9051 36.6518 86.9399 36.6316 86.9715 36.6071C87.0054 36.581 87.0322 36.5467 87.0494 36.5075C87.0851 36.4297 87.0864 36.3404 87.1157 36.2523C87.1285 36.2107 87.1539 36.1741 87.1885 36.1476C87.2275 36.1219 87.2707 36.1029 87.3161 36.0915C87.3602 36.0786 87.4029 36.0615 87.4437 36.0404C87.4884 36.0162 87.5245 35.9788 87.5471 35.9332C87.5826 35.8385 87.6045 35.7393 87.6122 35.6384C87.6197 35.5891 87.6371 35.5418 87.6632 35.4993C87.6913 35.458 87.7343 35.4292 87.7832 35.4189C87.8827 35.3985 87.9912 35.433 88.1022 35.4189C88.1577 35.409 88.2087 35.3817 88.2477 35.3411C88.2843 35.3025 88.316 35.2597 88.3422 35.2134C88.3703 35.1675 88.3958 35.1228 88.4264 35.0858C88.4545 35.0448 88.4927 35.0118 88.5374 34.9901C88.6306 34.9589 88.7314 34.9589 88.8246 34.9901C88.9177 35.0195 89.0162 35.0282 89.113 35.0156C89.2044 34.9934 89.291 34.9544 89.3683 34.9008C89.4384 34.8512 89.5132 34.8084 89.5916 34.7731C89.7372 34.7248 89.8938 34.7199 90.0421 34.7591C90.1648 34.7904 90.2787 34.8494 90.3752 34.9314C90.4476 34.9939 90.51 35.067 90.5603 35.1484C90.5905 35.2008 90.617 35.2554 90.6394 35.3117C90.6394 35.3309 90.6521 35.3449 90.656 35.3564C90.6598 35.3679 90.6624 35.3717 90.6636 35.3717C90.6642 35.3662 90.6642 35.3606 90.6636 35.3551L90.6483 35.3104C90.6282 35.253 90.603 35.1975 90.573 35.1445C90.524 35.0608 90.462 34.9854 90.3892 34.9212C90.2915 34.8368 90.1759 34.7757 90.051 34.7425C89.8995 34.7016 89.7393 34.7061 89.5903 34.7553C89.5102 34.7902 89.4337 34.833 89.3619 34.8829C89.2879 34.9341 89.2053 34.9717 89.1181 34.9939C89.0241 35.0052 88.9288 34.996 88.8386 34.9671C88.7899 34.9553 88.7404 34.9468 88.6906 34.9416C88.6383 34.9369 88.5857 34.9453 88.5374 34.9659C88.489 34.989 88.4472 35.0241 88.4162 35.068C88.3859 35.109 88.3578 35.1516 88.332 35.1956C88.307 35.2419 88.2761 35.2848 88.2401 35.3232C88.2059 35.3596 88.1613 35.3845 88.1125 35.3947C88.0091 35.4113 87.9006 35.3768 87.7921 35.3947C87.74 35.4068 87.6944 35.4383 87.6645 35.4827C87.6301 35.5288 87.6066 35.582 87.5956 35.6384C87.5872 35.7369 87.5662 35.8338 87.533 35.9269C87.5124 35.9685 87.4794 36.0028 87.4386 36.0251C87.3976 36.0453 87.3549 36.062 87.311 36.0749C87.2655 36.0879 87.2224 36.1082 87.1834 36.1349C87.1465 36.1642 87.119 36.2037 87.1042 36.2485C87.0749 36.3352 87.0736 36.4233 87.0404 36.5037C87.0042 36.5743 86.9427 36.6285 86.8681 36.6556C86.7992 36.6862 86.7277 36.7092 86.6639 36.7436C86.5547 36.8121 86.4664 36.9092 86.4087 37.0244C86.3551 37.124 86.3168 37.2133 86.2811 37.2797L86.2058 37.4468L86.1866 37.4902C86.1825 37.4947 86.1787 37.4994 86.1751 37.5043Z" fill="#455A64"/>
<path d="M86.9831 36.7092H86.9703C86.9562 36.7091 86.9423 36.7121 86.9295 36.7181C86.9067 36.7327 86.888 36.7527 86.8748 36.7763C86.8617 36.7999 86.8546 36.8264 86.8542 36.8534C86.8541 36.8918 86.8592 36.93 86.8695 36.967C86.8821 37.0084 86.889 37.0513 86.8899 37.0946C86.8843 37.1452 86.8658 37.1935 86.8363 37.235C86.807 37.2809 86.7687 37.3256 86.7393 37.3792C86.7215 37.4074 86.7104 37.4394 86.7071 37.4727C86.7038 37.5059 86.7083 37.5394 86.7202 37.5706C86.7445 37.6357 86.7904 37.6893 86.8134 37.7557C86.8338 37.8255 86.8265 37.9005 86.7929 37.965C86.7636 38.0339 86.7215 38.1016 86.6921 38.1781C86.6764 38.2189 86.6682 38.2621 86.6679 38.3057C86.6678 38.35 86.6778 38.3936 86.6972 38.4334C86.7386 38.5099 86.7868 38.5826 86.8414 38.6503C86.897 38.7175 86.9253 38.8032 86.9206 38.8903C86.9007 38.9788 86.8698 39.0646 86.8287 39.1455C86.8117 39.1904 86.8022 39.2379 86.8006 39.2859C86.8028 39.3334 86.815 39.3799 86.8363 39.4224C86.8826 39.4998 86.9374 39.5717 86.9997 39.6369C87.0565 39.6988 87.0999 39.7718 87.1273 39.8513C87.1491 39.9319 87.1755 40.0111 87.2064 40.0886C87.2251 40.1259 87.2516 40.1586 87.2843 40.1844C87.3168 40.2078 87.353 40.2255 87.3915 40.2367C87.4272 40.2467 87.4621 40.2591 87.4962 40.2737C87.5283 40.2892 87.558 40.3094 87.5842 40.3337C87.6337 40.3818 87.6766 40.4363 87.7118 40.4958C87.7476 40.5532 87.7795 40.6081 87.8165 40.6578C87.8813 40.7496 87.9739 40.8181 88.0807 40.8531C88.1603 40.8799 88.2451 40.8877 88.3283 40.8761C88.3809 40.8697 88.4321 40.8551 88.4801 40.8327C88.4965 40.8245 88.5123 40.8151 88.5273 40.8046C88.46 40.8408 88.3859 40.8627 88.3097 40.8688C88.2334 40.875 88.1568 40.8653 88.0845 40.8403C87.9811 40.8054 87.8917 40.7383 87.8292 40.6489C87.7935 40.5991 87.7629 40.5443 87.7271 40.4868C87.6925 40.4255 87.6496 40.3692 87.5995 40.3196C87.5724 40.2937 87.5414 40.2722 87.5076 40.2558C87.4728 40.2406 87.437 40.2278 87.4004 40.2175C87.3644 40.2064 87.3303 40.1896 87.2996 40.1678C87.2691 40.144 87.2446 40.1134 87.2281 40.0784C87.1971 40.0025 87.1715 39.9244 87.1516 39.8449C87.122 39.7618 87.0755 39.6857 87.015 39.6215C86.9536 39.5581 86.8996 39.4879 86.8542 39.4122C86.8343 39.3725 86.823 39.329 86.821 39.2846C86.8226 39.2409 86.8317 39.1977 86.8478 39.157C86.8898 39.0736 86.9211 38.9853 86.941 38.8941C86.9466 38.8474 86.9404 38.8 86.9231 38.7563C86.9058 38.7146 86.8835 38.6752 86.8568 38.6388C86.8029 38.5722 86.7551 38.5009 86.7138 38.4257C86.6968 38.3893 86.6877 38.3497 86.687 38.3096C86.6876 38.2698 86.6954 38.2305 86.71 38.1934C86.7368 38.1194 86.7789 38.0518 86.8095 37.9803C86.844 37.911 86.8513 37.8314 86.83 37.757C86.8044 37.6868 86.7572 37.6293 86.7342 37.5719C86.7232 37.5431 86.719 37.512 86.7219 37.4813C86.7248 37.4505 86.7347 37.4208 86.7508 37.3945C86.7789 37.3422 86.8159 37.2975 86.8466 37.2503C86.8766 37.2063 86.895 37.1553 86.9002 37.1023C86.8994 37.0568 86.8921 37.0117 86.8785 36.9683C86.8675 36.9322 86.8615 36.8949 86.8606 36.8572C86.8609 36.832 86.8673 36.8071 86.8793 36.7849C86.8913 36.7627 86.9085 36.7437 86.9295 36.7296C86.9452 36.7181 86.9637 36.711 86.9831 36.7092Z" fill="#455A64"/>
<path d="M92.4689 39.1634C92.5103 39.1782 92.5487 39.2003 92.5825 39.2285C92.6781 39.3045 92.7433 39.4122 92.7662 39.5322C92.7863 39.6161 92.7863 39.7035 92.7662 39.7874C92.7414 39.8826 92.6936 39.9702 92.6271 40.0427C92.5553 40.1221 92.4643 40.1818 92.363 40.2163C92.2531 40.2527 92.1349 40.2553 92.0235 40.2239C91.9126 40.193 91.8127 40.1315 91.735 40.0465C91.6619 39.9677 91.6136 39.8692 91.5959 39.7632C91.5785 39.6723 91.5825 39.5787 91.6075 39.4897C91.6325 39.4006 91.678 39.3186 91.7402 39.2501C91.7902 39.2021 91.8492 39.1644 91.9137 39.1391C91.9615 39.1193 92.0117 39.106 92.063 39.0996C92.0956 39.0945 92.1287 39.0945 92.1613 39.0996C92.1723 39.1015 92.1831 39.105 92.1932 39.1098C92.1509 39.1038 92.1079 39.1038 92.0656 39.1098C92.0158 39.1177 91.9673 39.1323 91.9214 39.1532C91.8598 39.179 91.8038 39.2168 91.7567 39.2642C91.6989 39.3285 91.6564 39.4051 91.6325 39.4882C91.6087 39.5714 91.604 39.6588 91.6189 39.744C91.6351 39.8441 91.6794 39.9374 91.7465 40.0133C91.8213 40.0943 91.9172 40.1527 92.0235 40.1818C92.1289 40.2117 92.2409 40.2095 92.3451 40.1754C92.4428 40.1431 92.5306 40.0865 92.6003 40.0108C92.6637 39.9431 92.71 39.8613 92.7356 39.7721C92.7572 39.6944 92.7607 39.6128 92.7458 39.5335C92.7235 39.4181 92.6628 39.3138 92.5735 39.2374C92.5404 39.2104 92.5054 39.1856 92.4689 39.1634Z" fill="#E0E0E0"/>
<path d="M89.9511 38.1322C89.9483 38.175 89.9626 38.2172 89.9908 38.2494C90.019 38.2817 90.0589 38.3015 90.1017 38.3045C90.1226 38.3071 90.1438 38.3056 90.1641 38.3C90.1844 38.2943 90.2034 38.2847 90.2199 38.2716C90.2364 38.2585 90.2502 38.2423 90.2603 38.2238C90.2705 38.2053 90.2769 38.185 90.2791 38.1641C90.2812 38.1211 90.2666 38.079 90.2382 38.0466C90.2099 38.0142 90.1701 37.9941 90.1272 37.9905C90.1063 37.9879 90.085 37.9895 90.0647 37.9952C90.0444 38.0009 90.0255 38.0107 90.0091 38.0239C89.9926 38.0372 89.979 38.0536 89.9691 38.0722C89.9591 38.0908 89.953 38.1112 89.9511 38.1322Z" fill="#263238"/>
<path d="M88.4023 38.0582C88.4005 38.1008 88.4153 38.1424 88.4437 38.1743C88.472 38.2062 88.5116 38.2259 88.5541 38.2292C88.5751 38.2318 88.5963 38.2302 88.6166 38.2245C88.6369 38.2188 88.6559 38.209 88.6723 38.1958C88.6887 38.1825 88.7024 38.1661 88.7123 38.1475C88.7223 38.1289 88.7284 38.1085 88.7303 38.0875C88.7324 38.0447 88.7177 38.0027 88.6893 37.9705C88.661 37.9383 88.6212 37.9185 88.5784 37.9152C88.5574 37.9126 88.536 37.9142 88.5156 37.92C88.4953 37.9258 88.4763 37.9357 88.4598 37.9491C88.4434 37.9624 88.4298 37.979 88.4199 37.9977C88.41 38.0165 88.404 38.037 88.4023 38.0582Z" fill="#263238"/>
<path d="M88.4319 37.5362C88.4485 37.5617 88.5736 37.4762 88.7357 37.4941C88.8978 37.5119 89.005 37.6217 89.0254 37.5974C89.0458 37.5732 89.0254 37.5451 88.9743 37.4953C88.9142 37.4325 88.8337 37.3931 88.7471 37.3842C88.6606 37.3754 88.5738 37.3975 88.5021 37.4468C88.446 37.4864 88.4243 37.526 88.4319 37.5362Z" fill="#263238"/>
<path d="M89.9791 37.6702C90.0021 37.6957 90.14 37.5872 90.3352 37.5898C90.5305 37.5923 90.6709 37.6957 90.6926 37.6702C90.7143 37.6447 90.6811 37.614 90.6198 37.5643C90.5375 37.5021 90.4371 37.4684 90.3339 37.4685C90.2314 37.4677 90.1316 37.5014 90.0506 37.5643C89.9894 37.6128 89.9689 37.6587 89.9791 37.6702Z" fill="#263238"/>
<path d="M86.255 34.3686C86.3193 34.3204 86.3891 34.2801 86.463 34.2486C86.5502 34.2156 86.6429 34.1991 86.7361 34.2001C86.8588 34.2017 86.9788 34.2365 87.0833 34.3009L87.0999 34.3112L87.1101 34.2946C87.1957 34.1544 87.3334 34.0539 87.4929 34.0151C87.5826 33.9893 87.6769 33.9834 87.769 33.998C87.8612 34.0125 87.9491 34.0471 88.0264 34.0993L88.0468 34.1133L88.0609 34.0942C88.2186 33.8841 88.4513 33.7428 88.7105 33.6998C88.9123 33.668 89.1191 33.6992 89.3026 33.7892C89.47 33.8715 89.612 33.9977 89.7136 34.1542L89.72 34.1644H89.7327C89.9453 34.1719 90.1539 34.2237 90.3453 34.3163C90.4947 34.3878 90.6324 34.4816 90.7537 34.5945C90.8572 34.6978 90.9508 34.8106 91.0332 34.9314L91.0204 34.9046C91.0115 34.888 90.9987 34.8612 90.9783 34.8293C90.9193 34.737 90.8504 34.6514 90.7729 34.5741C90.6528 34.4544 90.514 34.3552 90.3619 34.2805C90.1668 34.1816 89.9526 34.1259 89.734 34.1172L89.7531 34.1274C89.6482 33.9627 89.4998 33.8302 89.3243 33.7445C89.1322 33.6484 88.9148 33.6154 88.7028 33.6501C88.4306 33.6951 88.1864 33.8438 88.0213 34.0648H88.0558C87.9726 34.0085 87.8779 33.9714 87.7785 33.9561C87.6792 33.9409 87.5777 33.948 87.4815 33.9768C87.3127 34.0212 87.1683 34.1304 87.0794 34.2805L87.1062 34.2741C86.9951 34.2082 86.8679 34.1742 86.7387 34.1759C86.6417 34.1763 86.5458 34.1963 86.4566 34.2346C86.4012 34.259 86.3492 34.2907 86.3022 34.329C86.2854 34.3409 86.2696 34.3541 86.255 34.3686Z" fill="#263238"/>
<path d="M91.4022 34.1044C91.4616 34.1333 91.5264 34.1489 91.5924 34.1504C91.6834 34.1552 91.7744 34.1417 91.8601 34.1108C91.9458 34.0799 92.0244 34.0322 92.0914 33.9704C92.1857 33.883 92.2504 33.7683 92.2764 33.6424C92.3085 33.4974 92.2937 33.3459 92.2343 33.2098C92.1665 33.057 92.0414 32.9369 91.8859 32.8754C91.7186 32.8071 91.5312 32.8071 91.3639 32.8754H91.3933C91.3196 32.79 91.2186 32.7327 91.1074 32.7133C91.0148 32.6946 90.9188 32.7026 90.8305 32.7363C90.7446 32.7706 90.6711 32.8302 90.6199 32.9073C90.5715 32.979 90.5422 33.0618 90.5346 33.148C90.527 33.2342 90.5414 33.3209 90.5765 33.3999L90.611 33.3693C90.5512 33.3362 90.4843 33.3181 90.416 33.3168C90.3477 33.3155 90.2801 33.3309 90.2192 33.3616C90.1634 33.3881 90.114 33.4261 90.0741 33.4732C90.0343 33.5203 90.005 33.5754 89.9882 33.6348C89.9615 33.731 89.9616 33.8327 89.9883 33.9289C90.0151 34.0252 90.0675 34.1123 90.14 34.181C90.2332 34.2688 90.349 34.3289 90.4744 34.3545C90.5077 34.3614 90.5414 34.3656 90.5752 34.3673C90.5982 34.3673 90.6097 34.3673 90.6097 34.3673C90.6097 34.3673 90.5625 34.3673 90.4821 34.3405C90.3622 34.3094 90.2526 34.2473 90.1643 34.1606C90.0994 34.0946 90.0533 34.0125 90.0309 33.9227C90.0084 33.833 90.0104 33.7388 90.0367 33.6501C90.0521 33.5968 90.0789 33.5475 90.1153 33.5057C90.1517 33.4638 90.1967 33.4303 90.2472 33.4076C90.3014 33.3805 90.3613 33.367 90.4218 33.3684C90.4823 33.3697 90.5415 33.3858 90.5944 33.4152L90.6633 33.4586L90.6288 33.3846C90.5973 33.3132 90.5846 33.2348 90.592 33.1571C90.5994 33.0793 90.6266 33.0047 90.671 32.9405C90.7162 32.8721 90.7812 32.8191 90.8573 32.7886C90.9388 32.7583 91.0272 32.7512 91.1125 32.7682C91.2118 32.7859 91.3019 32.8373 91.3678 32.9137L91.3793 32.9277L91.3971 32.9213C91.5521 32.8579 91.7258 32.8579 91.8808 32.9213C92.025 32.9777 92.142 33.0873 92.2075 33.2276C92.2636 33.3556 92.2788 33.4978 92.2509 33.6348C92.2217 33.7553 92.1562 33.864 92.0633 33.9462C91.9349 34.0677 91.764 34.1341 91.5873 34.1312C91.525 34.1273 91.4631 34.1184 91.4022 34.1044Z" fill="#263238"/>
<path d="M95.0122 36.0787C95.0188 36.0698 95.024 36.0599 95.0275 36.0494C95.0398 36.0209 95.0497 35.9915 95.0569 35.9613C95.085 35.8467 95.0876 35.7274 95.0645 35.6116C95.0315 35.4329 94.9377 35.271 94.7991 35.1535C94.7115 35.0793 94.6098 35.0237 94.5001 34.9902C94.3904 34.9566 94.275 34.9457 94.161 34.9582L94.1865 34.9722C94.0807 34.7547 93.8992 34.5832 93.676 34.4898C93.5076 34.4191 93.3227 34.3974 93.1425 34.4273C92.9784 34.4538 92.8236 34.5209 92.692 34.6226H92.7175C92.5512 34.5341 92.3648 34.4901 92.1764 34.4949C92.0315 34.4967 91.8882 34.5257 91.754 34.5804C91.6671 34.6159 91.5855 34.6631 91.5115 34.7208C91.4848 34.7405 91.4604 34.7632 91.4388 34.7885C91.539 34.714 91.6484 34.6526 91.7642 34.606C91.8965 34.5567 92.0366 34.5321 92.1777 34.5332C92.3558 34.5325 92.5313 34.5764 92.6882 34.6608H92.7022L92.7137 34.6519C92.8399 34.5567 92.9876 34.494 93.1438 34.4694C93.3162 34.4409 93.4932 34.4617 93.6543 34.5294C93.8656 34.6187 94.0384 34.7802 94.1418 34.985L94.1495 35.0016H94.1661C94.2741 34.9889 94.3837 34.9981 94.4881 35.0288C94.5925 35.0595 94.6896 35.111 94.7736 35.1803C94.9067 35.2914 94.9992 35.4435 95.0365 35.6129C95.0594 35.7249 95.0594 35.8404 95.0365 35.9524C95.025 36.0366 95.0097 36.0775 95.0122 36.0787Z" fill="#263238"/>
<path d="M81.4916 50.1568L81.9191 49.511L82.6057 49.1664L82.6312 49.1473C82.7423 49.0667 82.8699 49.012 83.0048 48.987C83.1397 48.9621 83.2785 48.9676 83.411 49.0031C83.6905 49.0771 84.0632 49.1703 84.3873 49.2251L85.125 49.0222V50.4644L81.3984 50.2295L81.4916 50.1568Z" fill="#FFBF9D"/>
<path d="M81.5166 50.1172C81.5635 50.0628 81.6161 50.0136 81.6736 49.9705C81.7744 49.8862 81.9161 49.7727 82.0731 49.6489L82.2211 49.534C82.373 49.5059 82.5057 49.483 82.604 49.4676C82.6538 49.4564 82.7048 49.4513 82.7559 49.4523C82.7091 49.4734 82.6598 49.488 82.6091 49.4957C82.5159 49.5187 82.3845 49.5468 82.2262 49.5787H82.2364L82.0897 49.6948C81.9314 49.8224 81.7872 49.9284 81.6813 50.0062C81.6305 50.049 81.5753 50.0862 81.5166 50.1172Z" fill="#FF9A6C"/>
<path d="M81.8083 50.2436C81.9786 50.1227 82.1578 50.0147 82.3443 49.9207L82.4719 49.8479C82.6305 49.8317 82.7902 49.8291 82.9492 49.8403C82.7926 49.8705 82.6339 49.888 82.4745 49.8926H82.4847L82.357 49.9654C82.1814 50.0718 81.9979 50.1648 81.8083 50.2436Z" fill="#FF9A6C"/>
<path d="M77.1523 46.078C77.2127 46.0439 77.2834 46.0332 77.3511 46.0478C77.4188 46.0624 77.4789 46.1013 77.5199 46.1571L80.5215 50.2257L85.2704 50.2895C85.4606 50.301 85.6903 50.6839 85.5256 50.8702L80.1655 50.7962L77.0694 46.4953C77.0451 46.4633 77.0279 46.4264 77.0189 46.3873C77.0099 46.3481 77.0093 46.3074 77.0171 46.268C77.0249 46.2286 77.041 46.1913 77.0643 46.1585C77.0876 46.1258 77.1176 46.0983 77.1523 46.078Z" fill="#455A64"/>
<path d="M77.1531 46.078L77.1301 46.0907C77.1074 46.1053 77.0871 46.1234 77.0701 46.1443C77.036 46.185 77.0138 46.2343 77.006 46.2867C76.9981 46.3392 77.0048 46.3928 77.0254 46.4417C77.0637 46.5079 77.1063 46.5714 77.1531 46.6319L77.3113 46.8539C77.4249 47.0147 77.5564 47.1985 77.7031 47.404L80.1407 50.8064V50.8153H80.1522L85.4179 50.8906H85.5264L85.5341 50.8817C85.5799 50.8288 85.6033 50.7601 85.5991 50.6903C85.5959 50.6239 85.5785 50.5591 85.5481 50.5001C85.5195 50.4413 85.4806 50.3882 85.4332 50.3431C85.386 50.2933 85.3217 50.2633 85.2533 50.2589L84.5195 50.25L83.1028 50.2308L80.5159 50.1989L80.5338 50.2078C79.5575 48.8908 78.7471 47.7945 78.1728 47.0262L77.5079 46.1328C77.4755 46.0951 77.434 46.0663 77.3872 46.0493C77.3405 46.0323 77.2902 46.0277 77.2411 46.0359C77.2073 46.0412 77.1751 46.0538 77.1467 46.0729C77.1772 46.0591 77.2094 46.0492 77.2424 46.0435C77.2898 46.0364 77.3383 46.0417 77.383 46.0589C77.4277 46.0762 77.4672 46.1047 77.4976 46.1418L78.1524 47.0351L80.4981 50.2257V50.2346H80.5095L83.0952 50.2717L84.5118 50.2921L85.2456 50.3023C85.3018 50.3056 85.3545 50.3308 85.3924 50.3725C85.4353 50.4137 85.4708 50.462 85.497 50.5154C85.528 50.5643 85.544 50.6212 85.5428 50.6791C85.5417 50.737 85.5236 50.7932 85.4907 50.8409L85.5085 50.8319H85.4269L80.1611 50.763L80.179 50.7719L77.7274 47.381C77.5793 47.1768 77.4453 46.9981 77.3305 46.8348L77.1697 46.614C77.1232 46.5546 77.0806 46.4924 77.042 46.4277C77.0217 46.3809 77.0144 46.3295 77.0209 46.279C77.0274 46.2284 77.0475 46.1806 77.079 46.1405C77.1006 46.1163 77.1256 46.0952 77.1531 46.078Z" fill="#263238"/>
<path d="M91.8928 41.3917C92.1035 41.5035 92.302 41.6369 92.485 41.7899C92.7702 42.0708 92.9645 42.431 93.0427 42.8236C93.1435 43.315 93.0631 45.1425 93.0631 45.6862C93.0631 46.2299 92.9253 48.2718 92.8564 48.6113C92.7874 48.9508 92.901 49.4562 93.058 49.7854C93.3401 50.375 92.8998 50.6788 92.8998 50.6788L87.0725 50.6354L87.0955 50.4184C87.135 50.0356 86.9946 49.6527 87.1389 49.3017C87.2831 48.9508 87.5051 48.1531 87.3941 47.478C87.3941 47.478 86.6667 46.5744 87.2665 45.117C87.6072 44.2836 88.1471 42.83 89.2306 41.9953L90.526 41.5729C90.4736 41.5844 91.5508 41.3534 91.8928 41.3917Z" fill="#2059EE"/>
<path d="M84.6875 48.8551L89.6647 47.8162L89.7924 43.4936C89.7924 43.4936 89.9672 41.7324 90.8491 41.5691L92.9766 44.2134C92.8579 45.5471 92.9664 48.0702 92.3538 49.0427C91.7412 50.0152 91.1452 50.7949 89.6379 50.726C88.1307 50.6571 84.8036 50.6252 84.8036 50.6252L84.6875 48.8551Z" fill="#2059EE"/>
<path d="M89.6578 47.8328C89.6464 47.8417 89.765 47.9974 89.8659 48.2157C89.9667 48.4339 90.0101 48.6228 90.0254 48.6202C90.0003 48.3224 89.87 48.0433 89.6578 47.8328Z" fill="#263238"/>
<g opacity="0.3">
<path d="M89.8281 43.3086C89.3317 44.84 89.4453 47.1921 88.4906 48.0612L89.666 47.8162C89.6434 47.5398 89.64 47.2622 89.6558 46.9854C89.7516 45.7781 89.763 44.5491 89.8281 43.3086Z" fill="black"/>
</g>
<path d="M89.9399 42.7636C89.903 42.8773 89.8736 42.9932 89.8519 43.1107C89.8302 43.2256 89.8072 43.366 89.7919 43.5383C89.7766 43.7106 89.7727 43.9046 89.7651 44.1241C89.737 45.0059 89.6962 46.272 89.6464 47.8149L89.663 47.8009L84.6857 48.8359H84.6653V48.8576C84.7023 49.423 84.7406 50.019 84.7801 50.6265V50.6494H84.8031L85.4093 50.6558C86.2746 50.666 87.1194 50.6801 87.935 50.6966C88.3421 50.7056 88.7428 50.7158 89.1346 50.7298C89.5171 50.7592 89.9015 50.7549 90.2832 50.7171C90.4687 50.6913 90.6506 50.6446 90.8256 50.578C90.9943 50.5122 91.1546 50.4265 91.3029 50.3227C91.5807 50.1142 91.8233 49.8626 92.0214 49.5774C92.1184 49.4404 92.2103 49.3039 92.2971 49.1677L92.3609 49.0669C92.3813 49.0324 92.3992 48.9967 92.4183 48.961L92.4745 48.8563L92.5166 48.7466C92.6212 48.4672 92.696 48.1776 92.74 47.8826C92.8164 47.3751 92.8649 46.8639 92.8854 46.3511C92.9071 45.9019 92.9174 45.5139 92.9288 45.2025C92.9403 44.8911 92.9505 44.6397 92.9582 44.4738C92.9582 44.3908 92.9671 44.3283 92.971 44.2836C92.9748 44.2389 92.971 44.2185 92.971 44.2185C92.971 44.2185 92.971 44.2415 92.971 44.2836C92.971 44.3257 92.9607 44.3908 92.9531 44.4725C92.9416 44.6397 92.9276 44.8847 92.9135 45.2025C92.8995 45.5203 92.8867 45.907 92.8625 46.3511C92.839 46.8602 92.7879 47.3676 92.7093 47.8711C92.6654 48.1632 92.5905 48.4498 92.486 48.7262L92.4439 48.8346L92.389 48.9367C92.3699 48.9712 92.352 49.0069 92.3328 49.0401L92.2678 49.1409C92.181 49.2775 92.0891 49.4115 91.9921 49.5468C91.7966 49.8283 91.557 50.0765 91.2825 50.2819C91.1369 50.385 90.9797 50.4707 90.8141 50.5371C90.6403 50.6023 90.4596 50.6477 90.2756 50.6724C89.8938 50.71 89.5094 50.7134 89.127 50.6826C88.7339 50.6686 88.3331 50.6584 87.926 50.6494C87.1092 50.6303 86.2669 50.6175 85.3991 50.606L84.7942 50.5997L84.8184 50.6239C84.7788 50.0164 84.7406 49.4204 84.7035 48.8538L84.6831 48.8793L89.6604 47.8353H89.6757V47.8188C89.7178 46.2758 89.7523 45.011 89.7766 44.1279C89.7766 43.9071 89.7766 43.7118 89.7983 43.5421C89.8086 43.3987 89.8269 43.256 89.8531 43.1146C89.8735 42.9997 89.8927 42.9129 89.908 42.8593L89.9233 42.7942C89.9386 42.7713 89.9399 42.7636 89.9399 42.7636Z" fill="#263238"/>
<path d="M81.9486 59.4643L82.6875 64.9113L80.7527 65.2278L79.3782 60.396L81.9486 59.4643Z" fill="#FFBF9D"/>
<path d="M87.8105 51.0961C87.8105 51.0961 80.7428 50.6315 79.2751 50.8651C78.3882 51.0068 77.6237 52.3966 78.1061 53.2261C78.3358 53.6205 78.6957 54.8482 78.6957 54.8482L82.4899 53.9816L87.8105 51.0961Z" fill="#263238"/>
<path d="M82.4971 54.8482L84.0273 57.1824L82.2266 58.3502L80.2727 55.3549L82.4971 54.8482Z" fill="#FFBF9D"/>
<path d="M92.7617 50.6686C92.7617 50.6686 93.4751 53.9306 92.3022 55.2553C91.1294 56.5801 89.3975 56.5801 87.6146 56.3261C85.8317 56.0721 81.5972 55.9828 81.5972 55.9828C81.5972 55.9828 81.7861 57.1403 81.9252 58.4574C82.0643 59.7745 82.0911 60.6091 82.0911 60.6091L79.4404 60.8299C79.4404 60.8299 77.9638 56.3338 77.7366 55.4442C77.5095 54.5547 77.586 53.3576 78.3747 52.9147C79.0397 52.5382 84.2901 51.0821 86.7978 50.8664L87.071 50.6316L92.7617 50.6686Z" fill="#263238"/>
<path d="M80.2992 54.8993C80.2992 54.9095 80.4026 54.9235 80.5545 54.9797C80.6466 55.0142 80.7354 55.0569 80.8199 55.1073C80.9225 55.1677 81.0191 55.2378 81.1083 55.3166C81.1965 55.397 81.2764 55.4859 81.347 55.5821C81.4044 55.6624 81.4544 55.7479 81.4963 55.8373C81.5691 55.9879 81.5946 56.0926 81.6035 56.0926C81.6032 56.0679 81.5994 56.0434 81.592 56.0198C81.5772 55.9542 81.5563 55.8901 81.5295 55.8284C81.4902 55.7358 81.4419 55.6473 81.3853 55.5642C81.3143 55.4641 81.233 55.3717 81.1428 55.2885C81.0507 55.2071 80.9501 55.1356 80.8429 55.0754C80.7586 55.0238 80.6692 54.981 80.5762 54.9478C80.5118 54.927 80.4455 54.9124 80.3783 54.9044C80.3523 54.8988 80.3257 54.8971 80.2992 54.8993Z" fill="#455A64"/>
<path d="M80.6172 52.1847C80.5483 51.988 80.4301 51.8122 80.2739 51.6742C80.3748 51.8531 80.4896 52.0238 80.6172 52.1847Z" fill="#455A64"/>
<path d="M77.6267 54.1935C77.6299 54.1852 77.6324 54.1767 77.6343 54.168C77.6343 54.1476 77.6445 54.1233 77.6522 54.0927C77.6675 54.0263 77.6917 53.9281 77.7313 53.8055C77.7792 53.6564 77.8425 53.5127 77.9202 53.3767C78.0183 53.1952 78.1667 53.0458 78.3477 52.9466C78.8451 52.7309 79.3568 52.5496 79.8792 52.4042C80.465 52.2281 81.112 52.0431 81.7935 51.8631C83.1553 51.5019 84.4073 51.2467 85.321 51.0897C85.7779 51.0119 86.148 50.9621 86.4046 50.9238L86.6994 50.883L86.7772 50.8715H86.8027H86.7759L86.6981 50.8791L86.402 50.9098C86.1468 50.9391 85.7728 50.9864 85.3159 51.0591C84.1247 51.2528 82.944 51.5062 81.7782 51.8185C81.0942 51.9997 80.4484 52.1873 79.8639 52.3647C79.3407 52.5126 78.8289 52.6981 78.3324 52.9198C78.1472 53.0242 77.9961 53.1797 77.8972 53.3678C77.8202 53.5064 77.759 53.6533 77.7147 53.8055C77.6859 53.9008 77.662 53.9975 77.6432 54.0952C77.6432 54.1259 77.6343 54.1514 77.6305 54.1718C77.6283 54.1789 77.627 54.1861 77.6267 54.1935Z" fill="#455A64"/>
<path d="M80.6034 65.0874L80.5383 64.8513C81.3306 64.783 82.0796 64.4602 82.6734 63.9311L83.3281 65.3477L78.9583 67.2902C78.7899 66.8728 80.6034 65.0874 80.6034 65.0874Z" fill="#455A64"/>
<path d="M83.3281 65.3477L83.1686 65.0019L79.0298 66.9979C79.0298 66.9979 78.8741 67.1664 78.9583 67.2902L83.3281 65.3477Z" fill="#E0E0E0"/>
<path d="M80.6599 65.0593C80.6714 65.0797 80.7876 65.0415 80.9152 65.0593C81.0428 65.0772 81.1475 65.1423 81.1641 65.1257C81.1806 65.1091 81.0913 64.9981 80.9254 64.9802C80.7595 64.9623 80.6472 65.0427 80.6599 65.0593Z" fill="#263238"/>
<path d="M82.3637 64.9023C82.3786 64.9322 82.4045 64.9551 82.436 64.966C82.4675 64.977 82.502 64.9752 82.5322 64.9611C82.5611 64.9462 82.5832 64.921 82.5941 64.8904C82.6051 64.8598 82.6039 64.8262 82.5909 64.7964C82.5758 64.7668 82.5498 64.7442 82.5183 64.7335C82.4869 64.7228 82.4525 64.7247 82.4224 64.739C82.4076 64.7456 82.3942 64.7551 82.3832 64.767C82.3721 64.7788 82.3636 64.7928 82.3581 64.8081C82.3526 64.8234 82.3503 64.8396 82.3513 64.8558C82.3522 64.872 82.3565 64.8878 82.3637 64.9023Z" fill="#E0E0E0"/>
<path d="M80.6889 65.03C80.7228 65.0299 80.7565 65.0239 80.7884 65.0121C80.8799 64.992 80.9645 64.948 81.0334 64.8845C81.0556 64.8618 81.0749 64.8366 81.0909 64.8092C81.1109 64.779 81.1231 64.7444 81.1266 64.7084C81.1285 64.6854 81.1229 64.6625 81.1107 64.6429C81.0985 64.6234 81.0804 64.6083 81.059 64.5999C81.0172 64.5854 80.9715 64.5877 80.9313 64.6063C80.8516 64.6458 80.7843 64.7065 80.7366 64.7816C80.6889 64.8568 80.6627 64.9435 80.6608 65.0325L80.7259 65.0236C80.7149 64.9894 80.7004 64.9565 80.6825 64.9253C80.6344 64.8426 80.5653 64.7742 80.4821 64.7271C80.3989 64.68 80.3046 64.6559 80.209 64.6573C80.1836 64.6568 80.1584 64.6616 80.135 64.6713C80.1225 64.678 80.1116 64.6872 80.103 64.6985C80.0944 64.7097 80.0883 64.7226 80.0852 64.7364C80.0785 64.7815 80.09 64.8274 80.1171 64.8641C80.1593 64.9233 80.2172 64.9697 80.2843 64.9981C80.3794 65.0362 80.4821 65.0515 80.5842 65.0427C80.621 65.046 80.6581 65.043 80.694 65.0338C80.6588 65.0232 80.6222 65.0181 80.5855 65.0185C80.4888 65.0165 80.3934 64.9957 80.3047 64.9572C80.2476 64.9301 80.1987 64.8883 80.163 64.836C80.1463 64.8108 80.1391 64.7805 80.1426 64.7505C80.1426 64.7262 80.1682 64.7173 80.209 64.7186C80.2933 64.7185 80.3762 64.7406 80.4492 64.7827C80.5222 64.8249 80.5829 64.8855 80.625 64.9585C80.64 64.9858 80.6524 65.0144 80.6621 65.044C80.6649 65.0523 80.671 65.0591 80.6789 65.0629C80.6868 65.0667 80.6959 65.0673 80.7042 65.0644C80.7107 65.0627 80.7165 65.059 80.7206 65.0536C80.7248 65.0483 80.7271 65.0418 80.7271 65.0351C80.7289 64.958 80.751 64.8827 80.7911 64.8168C80.8312 64.751 80.8879 64.6968 80.9556 64.6599C81.0156 64.628 81.0832 64.6599 81.0832 64.7071C81.0731 64.7628 81.0474 64.8146 81.0092 64.8564C80.9472 64.9184 80.8716 64.9652 80.7884 64.993C80.7538 65.0011 80.7204 65.0135 80.6889 65.03Z" fill="#263238"/>
<path d="M80.3211 65.3631C80.4177 65.3603 80.5143 65.3672 80.6095 65.3835C80.7016 65.4141 80.7905 65.4534 80.875 65.5009C80.8125 65.4179 80.7233 65.3589 80.6225 65.3338C80.5216 65.3087 80.4152 65.319 80.3211 65.3631Z" fill="#263238"/>
<path d="M80.083 65.64C80.083 65.6553 80.203 65.6515 80.3383 65.6923C80.4736 65.7332 80.5731 65.7995 80.582 65.7881C80.5259 65.7138 80.4447 65.6626 80.3536 65.6438C80.2669 65.6097 80.1707 65.6083 80.083 65.64Z" fill="#263238"/>
<path d="M81.8834 58.0873L81.7801 57.8652C82.5498 57.6651 83.234 57.2209 83.7301 56.5992L84.6133 57.8831L80.634 60.5351C80.4005 60.1522 81.8834 58.0873 81.8834 58.0873Z" fill="#455A64"/>
<path d="M84.6133 57.8831L84.3976 57.5692L80.6544 60.2339C80.6544 60.2339 80.5268 60.4266 80.634 60.5351L84.6133 57.8831Z" fill="#E0E0E0"/>
<path d="M81.9359 58.0503C81.9487 58.0681 82.052 58.012 82.1912 58.0094C82.3303 58.0069 82.4349 58.0516 82.4464 58.0324C82.4579 58.0133 82.3545 57.9227 82.1912 57.9303C82.0278 57.938 81.9193 58.0362 81.9359 58.0503Z" fill="#263238"/>
<path d="M83.5849 57.6138C83.6046 57.6407 83.6341 57.6589 83.667 57.6644C83.6999 57.6699 83.7337 57.6623 83.761 57.6431C83.7871 57.6237 83.8048 57.5951 83.8105 57.5631C83.8162 57.5311 83.8095 57.4981 83.7917 57.4709C83.7718 57.4441 83.7422 57.4262 83.7093 57.4209C83.6764 57.4157 83.6428 57.4235 83.6155 57.4428C83.5898 57.4622 83.5723 57.4905 83.5666 57.5223C83.561 57.554 83.5675 57.5867 83.5849 57.6138Z" fill="#E0E0E0"/>
<path d="M81.9559 58.0171C81.9892 58.0114 82.0212 57.9998 82.0503 57.9826C82.1374 57.9468 82.2132 57.8882 82.2698 57.8129C82.2881 57.7868 82.3032 57.7585 82.3145 57.7287C82.3291 57.6954 82.3357 57.6591 82.3336 57.6227C82.3311 57.6 82.3215 57.5786 82.3062 57.5616C82.2908 57.5447 82.2705 57.533 82.2481 57.5283C82.226 57.5241 82.2034 57.5244 82.1814 57.5292C82.1595 57.5341 82.1388 57.5433 82.1205 57.5564C82.0486 57.6088 81.9925 57.68 81.9583 57.7621C81.9241 57.8443 81.9131 57.9342 81.9265 58.0222L81.9878 58.0018C81.9709 57.9703 81.9513 57.9404 81.9291 57.9124C81.8678 57.8394 81.7883 57.7839 81.6986 57.7516C81.609 57.7193 81.5123 57.7114 81.4186 57.7287C81.3934 57.7321 81.3694 57.7413 81.3484 57.7555C81.3369 57.7636 81.3274 57.7743 81.3208 57.7867C81.3141 57.7991 81.3105 57.8129 81.3101 57.8269C81.3113 57.8722 81.3301 57.9152 81.3624 57.9469C81.4138 57.9985 81.4789 58.0344 81.55 58.0503C81.6504 58.0717 81.7544 58.0695 81.8538 58.0439C81.8901 58.0396 81.9257 58.0306 81.9597 58.0171C81.9234 58.0107 81.8862 58.0107 81.8499 58.0171C81.7547 58.0319 81.6575 58.0276 81.5641 58.0043C81.5027 57.9871 81.4471 57.9536 81.4032 57.9073C81.3924 57.897 81.3837 57.8845 81.3778 57.8707C81.3718 57.8568 81.3688 57.842 81.3688 57.8269C81.3688 57.8027 81.3892 57.7912 81.4288 57.7848C81.5116 57.7704 81.5968 57.7782 81.6757 57.8074C81.7546 57.8365 81.8244 57.8859 81.878 57.9507C81.898 57.9748 81.9156 58.0009 81.9303 58.0286C81.9322 58.0325 81.9349 58.0361 81.9382 58.039C81.9415 58.0419 81.9454 58.044 81.9496 58.0453C81.9538 58.0467 81.9582 58.0471 81.9626 58.0466C81.967 58.0462 81.9712 58.0448 81.975 58.0426C81.981 58.0395 81.9859 58.0347 81.9891 58.0288C81.9923 58.0229 81.9936 58.0161 81.9929 58.0094C81.9814 57.9331 81.9903 57.8551 82.0188 57.7834C82.0472 57.7116 82.0942 57.6487 82.1549 57.601C82.2085 57.5602 82.2826 57.5755 82.2826 57.6278C82.2824 57.684 82.266 57.739 82.2353 57.7861C82.1852 57.8581 82.1188 57.9171 82.0414 57.9584C82.0102 57.9738 81.9814 57.9935 81.9559 58.0171Z" fill="#263238"/>
<path d="M81.6554 58.4051C81.7505 58.387 81.847 58.3776 81.9438 58.377C82.0394 58.3922 82.1334 58.4162 82.2246 58.4485C82.1903 58.4086 82.1478 58.3766 82.1 58.3546C82.0522 58.3326 82.0003 58.321 81.9477 58.3208C81.8958 58.3135 81.8429 58.3173 81.7926 58.3318C81.7422 58.3463 81.6955 58.3713 81.6554 58.4051Z" fill="#263238"/>
<path d="M81.4636 58.7203C81.4636 58.7343 81.5836 58.7113 81.7252 58.7292C81.8669 58.7471 81.9741 58.7943 81.9805 58.7815C81.9112 58.7166 81.8202 58.6798 81.7252 58.6782C81.6358 58.6598 81.5427 58.6748 81.4636 58.7203Z" fill="#263238"/>
<path d="M89.6027 39.2706C89.6372 39.231 89.6811 39.2007 89.7305 39.1826C89.7798 39.1645 89.8329 39.1592 89.8848 39.1672C89.9223 39.1724 89.9585 39.185 89.9911 39.2042C90.0238 39.2235 90.0523 39.2491 90.0749 39.2795C90.0961 39.3096 90.1074 39.3455 90.1074 39.3822C90.1074 39.419 90.0961 39.4549 90.0749 39.485C90.0462 39.5148 90.0092 39.5353 89.9686 39.5437C89.9281 39.5521 89.886 39.5481 89.8478 39.5322C89.7693 39.4998 89.6978 39.4525 89.6372 39.3931C89.6182 39.3784 89.6022 39.3602 89.59 39.3395C89.5839 39.3302 89.5807 39.3193 89.5807 39.3082C89.5807 39.2971 89.5839 39.2863 89.59 39.2769" fill="#FF9A6C"/>
<path d="M90.047 38.9949C90.0202 38.9949 90.0113 39.1787 89.8466 39.3038C89.682 39.4288 89.4855 39.4008 89.4829 39.4314C89.4804 39.462 89.525 39.4684 89.6105 39.4748C89.7194 39.4808 89.8269 39.4482 89.9143 39.3829C89.9967 39.3206 90.0523 39.2294 90.07 39.1276C90.0789 39.0409 90.0598 38.9949 90.047 38.9949Z" fill="#263238"/>
</svg>
