<svg width="112" height="109" viewBox="0 0 112 109" fill="none" xmlns="http://www.w3.org/2000/svg">
<path d="M107.432 26.874L106.784 25.8101C101.301 16.815 91.4131 11.3945 80.9872 12.0541C79.6429 12.1313 78.3062 12.3091 76.9885 12.586C67.509 14.6101 59.261 21.7621 55.8435 30.9221C53.8308 36.3081 53.271 42.5105 49.4456 46.7874C44.4819 52.3515 36.05 52.5244 28.6525 52.2956C21.2549 52.0669 12.8044 52.2611 7.85932 57.8465C4.77234 61.36 3.78867 66.3496 4.03658 71.0201C4.6977 83.425 13.3668 94.5187 24.3792 100.032C35.3916 105.546 48.3713 106.038 60.4287 103.612C77.3218 100.216 93.3885 90.8855 103.044 76.4831C112.699 62.0808 115.144 42.4281 107.432 26.874Z" fill="#FFEFE3"/>
<path d="M28.4264 108.199C28.4264 108.259 43.8281 108.31 62.8231 108.31C81.818 108.31 97.2283 108.259 97.2283 108.199C97.2283 108.139 81.8266 108.088 62.8231 108.088C43.8195 108.088 28.4264 108.152 28.4264 108.199Z" fill="#263238"/>
<path d="M27.0179 47.4544L18.9095 47.2624L15.6278 60.3041L22.8827 63.9785C22.9226 66.9131 23.3531 69.8293 24.1629 72.6502L18.2779 78.262L25.1786 89.8058L32.8901 87.288C34.9916 89.3386 37.3584 91.0982 39.9274 92.52L39.7353 100.628L52.777 103.932L56.4514 96.6766C59.3862 96.6391 62.3027 96.2085 65.1231 95.3964L70.735 101.277L82.2575 94.3764L79.7268 86.6478C81.7854 84.5455 83.5536 82.1774 84.9845 79.6063L93.0929 79.7984L96.3704 66.7524L89.1155 63.078C89.0774 60.1433 88.6468 57.2268 87.8352 54.4063L93.7373 48.7902L86.8366 37.2677L79.1123 39.7941C77.0108 37.7435 74.644 35.9838 72.075 34.562L72.2671 26.4536L59.2211 23.1719L55.551 30.4268C52.6148 30.4648 49.697 30.8954 46.875 31.707L41.2631 25.8263L29.7407 32.7313L32.2671 40.4556C30.2192 42.5593 28.4598 44.9258 27.035 47.4928L27.0179 47.4544Z" fill="#F7F7F7"/>
<path d="M27.018 47.4543L27.3082 46.9635C27.5002 46.6435 27.7861 46.157 28.1873 45.5382C29.3815 43.711 30.7507 42.0045 32.2756 40.4427V40.4213C31.58 38.2875 30.735 35.6801 29.762 32.6927V32.7525L41.2973 25.8347H41.2162L46.8238 31.7197L46.8537 31.7539H46.8964C49.7113 30.9433 52.6219 30.5127 55.551 30.4736H55.5979L55.6193 30.4309L59.2979 23.176L59.204 23.2187L72.2458 26.509L72.1732 26.4151C72.1135 28.9287 72.0452 31.7027 71.9769 34.5235V34.5833L72.0281 34.6089C74.5872 36.0306 76.9452 37.7872 79.0398 39.8324L79.0824 39.8751L79.1422 39.8537L86.8665 37.3572L86.747 37.3145C88.9192 40.942 91.2578 44.8596 93.6477 48.8583V48.726L87.784 54.3251L87.7371 54.3678V54.4318C88.5429 57.2448 88.9734 60.152 89.0174 63.0779V63.1419L89.0771 63.1718L96.332 66.8462L96.2722 66.7224C95.2309 70.862 94.1384 75.2874 92.9947 79.7641L93.1057 79.683L84.9973 79.491H84.9247L84.8949 79.5508C83.4762 82.1095 81.7224 84.4676 79.6799 86.5624L79.6329 86.6093V86.6733L82.1594 94.4019L82.2106 94.2696L70.6668 101.175H70.8033C68.9085 99.183 67.0379 97.2228 65.1915 95.2939L65.1445 95.2469L65.0805 95.2682C62.2696 96.0772 59.3634 96.5077 56.4387 96.5485H56.3746L56.3448 96.6083L52.6746 103.863L52.7899 103.812L39.761 100.517L39.8335 100.616C39.8961 97.8501 39.9587 95.1473 40.0213 92.5071V92.4474L39.9701 92.4218C37.409 91.0026 35.0482 89.2489 32.9499 87.2068L32.9115 87.1684H32.856L25.1317 89.6991L25.2341 89.7375C22.7803 85.6363 20.4843 81.804 18.3249 78.215V78.3089C20.4246 76.3031 22.3578 74.4681 24.2014 72.6927L24.2355 72.6629V72.6202C23.4272 69.8063 22.9966 66.8973 22.9552 63.9698V63.9272H22.9168L15.6619 60.2613L15.6918 60.3253C17.0831 54.7433 18.1542 50.4672 18.9522 47.2793L18.9181 47.3049L25.0549 47.4287L26.5528 47.4586H27.0393C27.0393 47.4586 26.8729 47.4586 26.5443 47.4372L25.0378 47.3945L18.9181 47.2324H18.8925V47.2623C18.0859 50.4501 17.002 54.722 15.5894 60.2997V60.3424L15.6278 60.3637L22.8827 64.0424L22.8443 63.9869C22.8836 66.9285 23.3142 69.8519 24.1245 72.6799L24.1459 72.6074C22.298 74.3656 20.3605 76.2092 18.2609 78.215L18.214 78.2577L18.2438 78.3132C20.3477 81.9107 22.6181 85.743 25.089 89.8484L25.1274 89.9082L25.1914 89.8868L32.92 87.3647L32.8261 87.3434C34.9336 89.399 37.306 91.1643 39.8805 92.5925L39.8292 92.5071C39.7667 95.1559 39.7026 97.8587 39.6372 100.616V100.697H39.714L52.7557 103.983L52.8368 104.004L52.8752 103.927L56.5496 96.6723L56.4557 96.732C59.4002 96.6932 62.3264 96.2627 65.1573 95.4518L65.0506 95.4219L70.6625 101.307L70.7222 101.371L70.7948 101.324L82.3343 94.4574L82.4111 94.4105L82.3813 94.3294C81.5505 91.7688 80.7084 89.1926 79.8549 86.6008L79.8293 86.7117C81.8868 84.6042 83.6522 82.2302 85.0784 79.6532L84.9802 79.7129L93.0886 79.905H93.1782L93.1996 79.8196C94.3262 75.3429 95.4401 70.9174 96.4771 66.7779L96.5027 66.6925L96.4216 66.6499L89.1923 62.9627L89.2521 63.0566C89.2125 60.1121 88.782 57.186 87.9718 54.355L87.9419 54.4617L93.8098 48.8797L93.8739 48.8199L93.8312 48.7474L86.922 37.2249L86.8793 37.1566L86.8025 37.1822L79.0782 39.7129L79.1806 39.7343C77.0722 37.6706 74.6985 35.8968 72.122 34.4595L72.169 34.5449C72.2372 31.7112 72.3012 28.9373 72.3567 26.4365V26.3639H72.2842L59.2382 23.0864H59.1742L59.1443 23.1462C57.864 25.7067 56.6136 28.1478 55.4742 30.4011L55.5425 30.3584C52.6006 30.3955 49.677 30.8261 46.8494 31.6387L46.9262 31.66L41.3101 25.7793L41.2717 25.7451L41.2247 25.7707L29.7023 32.6842H29.6681V32.7226L32.2287 40.4469V40.4085C30.7059 41.9759 29.3435 43.6915 28.1617 45.5296C27.3594 46.7715 27.018 47.4543 27.018 47.4543Z" fill="#263238"/>
<path d="M73.8633 51.0773C73.8633 53.7489 71.9087 55.9168 69.4975 55.9168C67.0864 55.9168 65.1275 53.7489 65.1275 51.0773C65.1275 48.4058 67.0821 46.2336 69.4975 46.2336C71.913 46.2336 73.8633 48.4016 73.8633 51.0773Z" fill="#455A64"/>
<g opacity="0.3">
<path d="M70.7138 48.3977C70.6005 48.0656 70.4576 47.7442 70.2871 47.4375C70.1889 50.4632 70.0097 52.9427 69.6939 55.9172C70.5474 54.3766 70.8034 52.5031 70.9016 50.6595C71.0055 49.9009 70.9414 49.1288 70.7138 48.3977Z" fill="black"/>
</g>
<path d="M43.5294 60.5215C43.666 56.7746 43.7983 53.0063 44.5152 49.3276C45.2322 45.649 46.1326 42.0728 48.4371 39.0854L69.9884 40.2505C70.8206 43.5749 71.657 46.9805 71.3114 50.386C70.9785 53.6934 69.5318 56.8898 69.7665 60.2014C69.9287 62.5443 70.923 64.7379 71.6528 66.9698C72.3825 69.2018 72.852 71.6641 71.9814 73.8619C71.792 74.4262 71.4328 74.9181 70.9529 75.2702C70.3056 75.6117 69.5738 75.7599 68.8447 75.697C60.2242 75.697 51.6079 75.4993 42.996 75.1038C43.1724 70.2416 43.3502 65.3808 43.5294 60.5215Z" fill="#263238"/>
<path d="M45.518 65.276L50.6135 64.2944L60.3777 66.5349L65.3281 67.5677L65.4006 74.3318L54.3561 76.3631L46.905 74.1568L44.0883 70.013L45.518 65.276Z" fill="#B7715B"/>
<path d="M41.9034 65.9499L46.7087 64.8147C46.7087 64.8147 50.1228 75.3215 58.4872 74.8691C65.3153 74.4978 65.3153 67.5673 65.3153 67.5673L70.3127 68.4464C70.3127 68.4464 72.4081 81.1339 70.1121 90.0318C68.2002 97.4361 67.0565 108.135 67.0565 108.135L33.1847 108.216L41.8906 65.9669L41.9034 65.9499Z" fill="#FF9140"/>
<path d="M74.4394 71.3912C71.7423 68.0198 69.5871 68.4039 69.5871 68.4039L68.1404 84.5609L79.9189 99.459L84.7114 87.2068C84.7114 87.2068 76.9018 74.4852 74.4394 71.3912Z" fill="#FF9140"/>
<path d="M42.4752 65.8135C42.4752 65.8135 34.6954 66.4365 31.9044 79.1838C30.6241 84.9493 29.0451 91.7049 28.5885 96.2541C28.2513 99.5487 30.0437 104.704 33.3255 105.126L38.7112 105.865C41.2717 105.903 42.68 103.539 43.2177 101.303L44.4255 97.5002C45.0443 93.1516 41.7113 93.2071 39.8506 93.2327L41.2418 76.7214L42.4752 65.8135Z" fill="#FF9140"/>
<path d="M70.9656 77.3657C70.9837 77.4225 70.9952 77.4812 70.9997 77.5407L71.0808 78.0571C71.0808 78.168 71.115 78.2918 71.132 78.4283C71.1491 78.5649 71.1619 78.7143 71.179 78.8551C71.2089 79.1752 71.2473 79.5379 71.2643 79.9391C71.3217 80.884 71.3289 81.8313 71.2857 82.777C71.2287 83.9329 71.1133 85.0852 70.94 86.2295C70.7608 87.45 70.5388 88.6023 70.3084 89.6435C70.0779 90.6848 69.856 91.6194 69.6597 92.4047C69.4634 93.1899 69.3012 93.8172 69.1818 94.2525C69.122 94.4574 69.0751 94.6238 69.0409 94.7518C69.0261 94.8099 69.0076 94.8669 68.9854 94.9225C68.989 94.8619 68.999 94.8018 69.0153 94.7433C69.0452 94.6153 69.0836 94.4488 69.1348 94.2397L69.5616 92.4089C69.7451 91.6237 69.9883 90.7019 70.1846 89.6478C70.3809 88.5937 70.6114 87.4543 70.8034 86.2338C70.9955 85.0132 71.1064 83.8524 71.1576 82.7898C71.2089 81.7272 71.2131 80.7712 71.1576 79.9647C71.1576 79.5635 71.1107 79.2008 71.0851 78.8807C71.0851 78.7228 71.0638 78.5777 71.051 78.4539C71.0382 78.3302 71.0211 78.1979 71.0083 78.0827C71.0083 77.8693 70.9699 77.6986 70.9528 77.5663C70.9511 77.4992 70.9554 77.4321 70.9656 77.3657Z" fill="#263238"/>
<path d="M33.7141 97.7222C33.7203 97.6134 33.7404 97.5058 33.7738 97.4021C33.8486 97.1089 33.95 96.8233 34.0768 96.5486C34.492 95.6509 35.133 94.8762 35.9371 94.3002C36.7412 93.7243 37.6809 93.3668 38.6645 93.2625C38.959 93.2272 39.2559 93.2172 39.5521 93.2327C39.6612 93.2346 39.7699 93.2475 39.8765 93.2711C39.8765 93.2967 39.4113 93.2455 38.673 93.3479C37.7116 93.4806 36.7979 93.8489 36.0132 94.4199C35.2284 94.991 34.597 95.7471 34.175 96.6211C33.8506 97.2698 33.761 97.7307 33.7141 97.7222Z" fill="#263238"/>
<path d="M35.5322 91.3722C35.5944 91.3626 35.6577 91.3626 35.7199 91.3722C35.8923 91.3704 36.0647 91.3775 36.2363 91.3935C36.8 91.4577 37.3517 91.6013 37.8751 91.8203C38.3987 92.0359 38.8899 92.3231 39.3346 92.6738C39.4688 92.7803 39.5957 92.8958 39.7144 93.0195C39.7997 93.1048 39.8424 93.156 39.8339 93.1646C39.8254 93.1731 39.6248 92.9981 39.2791 92.7378C38.8286 92.4109 38.3417 92.1373 37.8281 91.9227C37.3125 91.716 36.7737 91.5727 36.2235 91.496C35.801 91.4021 35.5322 91.3935 35.5322 91.3722Z" fill="#263238"/>
<path d="M43.5891 74.8694C43.5777 74.7559 43.5777 74.6415 43.5891 74.528C43.5891 74.3061 43.5891 73.9903 43.5507 73.6019C43.4093 71.5643 42.8516 69.5774 41.9119 67.7639C41.7284 67.4182 41.5748 67.1408 41.4852 66.953C41.4234 66.8578 41.3692 66.758 41.323 66.6543C41.4002 66.7383 41.4689 66.8298 41.5278 66.9274C41.6516 67.1067 41.818 67.3798 42.0101 67.7255C42.5054 68.6234 42.8949 69.5757 43.1709 70.5634C43.4479 71.553 43.6111 72.571 43.6574 73.5977C43.6748 73.9075 43.6748 74.2181 43.6574 74.528C43.6453 74.6437 43.6225 74.758 43.5891 74.8694Z" fill="#263238"/>
<g opacity="0.3">
<path d="M70.6071 88.0689C71.568 86.3625 72.0971 84.447 72.1485 82.4893C72.1998 80.5317 71.7717 78.5911 70.9016 76.8367C71.4568 80.5661 71.3368 84.3649 70.5474 88.0519" fill="black"/>
</g>
<g opacity="0.3">
<path d="M52.9523 91.8671C51.4458 92.2939 49.359 92.4176 47.8909 91.8671C49.0389 93.4973 51.2538 94.0905 53.1785 93.5741C55.1031 93.0578 56.8699 91.1203 57.0193 89.1316C55.9752 90.4379 54.5558 91.3926 52.9523 91.8671Z" fill="black"/>
</g>
<path d="M58.4658 86.4343C58.4597 86.481 58.4483 86.5268 58.4317 86.5709C58.4018 86.6562 58.3677 86.7843 58.3037 86.9464C58.1285 87.4023 57.9113 87.8409 57.655 88.2566C56.8058 89.6428 55.5784 90.7577 54.1172 91.4701C53.3077 91.8516 52.4439 92.105 51.5566 92.2212C50.8369 92.3133 50.1084 92.3133 49.3887 92.2212C48.9034 92.1624 48.4248 92.0581 47.959 91.9096C47.7926 91.8584 47.6688 91.8072 47.5835 91.7731C47.4981 91.7389 47.4555 91.7219 47.4597 91.7176C47.464 91.7133 47.6432 91.7688 47.9718 91.8627C48.4388 91.9923 48.9155 92.0836 49.3972 92.1358C50.9921 92.3232 52.6074 92.0537 54.055 91.3586C55.5026 90.6635 56.7229 89.5715 57.5739 88.2096C57.8328 87.8018 58.0583 87.3736 58.2482 86.9294C58.4146 86.6178 58.4658 86.4343 58.4658 86.4343Z" fill="#263238"/>
<path d="M42.0912 104.358C42.0912 104.358 41.9546 104.52 41.6644 104.759C41.243 105.083 40.7591 105.315 40.2433 105.442C39.4776 105.631 38.6872 105.7 37.9004 105.647C37.0127 105.583 36.0312 105.481 35.0112 105.327C34.0534 105.203 33.11 104.986 32.1946 104.678C31.8115 104.51 31.4606 104.276 31.1576 103.987C30.8888 103.737 30.6458 103.461 30.4321 103.163C30.1219 102.732 29.8559 102.27 29.6384 101.785C29.5658 101.61 29.5061 101.478 29.4719 101.384C29.4552 101.335 29.4338 101.288 29.4079 101.243C29.4151 101.294 29.4279 101.344 29.4463 101.392C29.4762 101.486 29.5274 101.627 29.5957 101.819C29.7955 102.318 30.0518 102.791 30.3596 103.232C30.5723 103.54 30.8154 103.826 31.0851 104.085C31.3945 104.386 31.7542 104.63 32.1477 104.806C33.0709 105.126 34.0249 105.349 34.9942 105.472C36.0184 105.626 36.9957 105.724 37.8919 105.784C38.6902 105.833 39.4913 105.753 40.2646 105.549C40.7888 105.41 41.2774 105.161 41.6985 104.819C41.8078 104.722 41.9092 104.617 42.0015 104.503C42.0655 104.418 42.0954 104.358 42.0912 104.358Z" fill="#263238"/>
<path d="M43.3759 78.9321C43.3417 78.9321 42.5223 82.1072 41.5451 86.0419C40.5678 89.9766 39.7996 93.1773 39.838 93.1858C39.8764 93.1944 40.6915 90.0108 41.6688 86.0718C42.6461 82.1328 43.41 78.9364 43.3759 78.9321Z" fill="#263238"/>
<path d="M44.3831 96.907C44.4088 96.8212 44.4218 96.7321 44.4215 96.6425C44.4428 96.4025 44.4428 96.1612 44.4215 95.9212C44.3976 95.5562 44.2768 95.2041 44.0716 94.9013C43.9586 94.719 43.8255 94.5501 43.6747 94.3977C43.5093 94.2317 43.3228 94.0882 43.1199 93.9709C42.4139 93.5978 41.6487 93.3495 40.8581 93.2369C40.6191 93.2021 40.3783 93.1807 40.1369 93.1729C40.0492 93.1592 39.9599 93.1592 39.8723 93.1729C39.8723 93.1943 40.2478 93.207 40.841 93.3137C41.6155 93.4464 42.3643 93.6999 43.0602 94.0648C43.2517 94.174 43.4293 94.3058 43.5893 94.4574C43.7302 94.6141 43.8533 94.7859 43.9564 94.9696C44.1534 95.2582 44.2765 95.5909 44.3148 95.9383C44.3352 96.1753 44.3424 96.4132 44.3362 96.651C44.3435 96.7377 44.3592 96.8234 44.3831 96.907Z" fill="#263238"/>
<path d="M67.4279 103.155C66.8049 101.977 61.9228 98.8615 61.9228 98.8615L63.2414 98.5542L64.7009 99.173C64.8102 99.6678 65.0241 100.133 65.3283 100.539C65.866 101.303 66.775 100.513 66.775 100.513L66.1605 97.5556L63.2884 95.823C63.2884 95.823 60.5699 96.2498 60.1304 96.4461L58.9739 97.5087C58.466 97.9056 56.998 99.4761 56.5968 99.523C56.1957 99.5699 43.5978 96.7363 43.5978 96.7363C41.8907 98.1062 40.9604 100.82 40.6873 102.783C40.6873 102.783 40.38 103.744 40.7129 104.269L56.1786 105.481L59.4561 106.39C60.3338 106.752 61.2331 107.06 62.1489 107.311C63.2414 107.542 63.9755 107.192 64.0053 106.586C64.0352 105.98 63.186 105.92 63.186 105.92C62.4638 105.659 61.7608 105.348 61.082 104.99C60.5845 104.658 60.1757 104.21 59.8914 103.684L61.0607 103.825C61.0607 103.825 63.5444 105.532 64.4748 106.057C65.4051 106.582 65.5971 105.63 65.6697 105.352C65.7422 105.075 62.8787 102.263 62.8787 102.263C62.8787 102.263 65.6057 103.944 66.0964 104.367C66.5872 104.789 67.3127 104.917 67.4663 104.636C67.62 104.354 68.0638 104.358 67.4279 103.155Z" fill="#B7715B"/>
<path d="M53.9977 103.428C53.9977 103.428 53.9977 103.364 53.9977 103.24C53.9898 103.165 53.9898 103.089 53.9977 103.014C54.0074 102.914 54.026 102.816 54.0532 102.719C54.2078 102.161 54.4766 101.641 54.8427 101.192C55.1999 100.741 55.6001 100.327 56.0376 99.9541C56.211 99.7957 56.3981 99.6528 56.5967 99.5273C56.4399 99.7047 56.2701 99.8702 56.0888 100.022C55.6739 100.41 55.2888 100.828 54.9366 101.273C54.5773 101.71 54.3037 102.211 54.13 102.749C54.0105 103.155 54.0233 103.432 53.9977 103.428Z" fill="#754235"/>
<path d="M61.8203 98.7675C61.5348 98.8321 61.2362 98.8052 60.9668 98.6907C60.6934 98.6223 60.4467 98.4737 60.2584 98.264C60.2797 98.2341 60.5784 98.456 61.0052 98.5968C61.432 98.7377 61.8203 98.7334 61.8203 98.7675Z" fill="#754235"/>
<path d="M62.6311 102.002C62.205 101.889 61.7895 101.739 61.3892 101.554C60.975 101.403 60.5739 101.217 60.19 101C60.6164 101.112 61.032 101.262 61.4319 101.448C61.847 101.597 62.2483 101.783 62.6311 102.002Z" fill="#754235"/>
<path d="M60.0149 103.654C59.7944 103.605 59.5808 103.529 59.379 103.428C59.1617 103.364 58.9526 103.276 58.756 103.163C58.9853 103.167 59.2111 103.221 59.4174 103.321C59.6373 103.39 59.8407 103.503 60.0149 103.654Z" fill="#754235"/>
<path d="M62.2297 102.224C62.0517 102.346 61.8896 102.489 61.7475 102.651C61.6333 102.832 61.5402 103.025 61.4701 103.227C61.4701 103.227 61.4445 103.15 61.4701 103.027C61.5013 102.871 61.5685 102.725 61.6664 102.6C61.7643 102.468 61.8933 102.362 62.042 102.293C62.1487 102.224 62.2255 102.224 62.2297 102.224Z" fill="#754235"/>
<path d="M63.3779 100.411C63.3779 100.441 63.1774 100.56 63.0365 100.808C62.9661 100.965 62.9076 101.128 62.8616 101.294C62.8276 101.204 62.8169 101.107 62.8303 101.011C62.8438 100.916 62.8809 100.825 62.9384 100.748C63.1005 100.466 63.3737 100.381 63.3779 100.411Z" fill="#754235"/>
<path d="M62.9896 97.1888C62.9896 97.1888 62.9298 97.1376 62.8957 97.0352C62.8595 96.8952 62.8595 96.7484 62.8957 96.6084C62.9303 96.4663 63.0008 96.3356 63.1005 96.2286C63.1816 96.1518 63.2456 96.1219 63.2542 96.1347C63.1505 96.2898 63.0673 96.4576 63.0066 96.634C62.9764 96.8174 62.9706 97.0039 62.9896 97.1888Z" fill="#754235"/>
<path d="M40.5762 104.708C40.585 104.59 40.585 104.472 40.5762 104.354C40.5762 104.239 40.5762 104.098 40.5762 103.927C40.5762 103.757 40.5762 103.582 40.6146 103.381C40.7069 102.322 40.9349 101.279 41.2932 100.278C41.4947 99.7324 41.7387 99.2031 42.0229 98.6952C42.168 98.4647 42.2918 98.2428 42.4497 98.0508L42.6502 97.7648L42.8465 97.5173C43.3629 96.8857 43.7555 96.5614 43.7385 96.54C43.6388 96.6045 43.5458 96.6788 43.4611 96.762C43.3531 96.8526 43.2505 96.9495 43.1538 97.0522C43.0212 97.1877 42.8958 97.3301 42.7783 97.4789L42.5734 97.7264C42.5051 97.8118 42.4369 97.9099 42.3643 98.0081C42.2192 98.2001 42.0869 98.4348 41.9376 98.6525C41.6444 99.1648 41.3932 99.7 41.1865 100.253C40.8248 101.263 40.6078 102.319 40.5421 103.39C40.5421 103.594 40.5421 103.778 40.5207 103.944C40.4994 104.111 40.5207 104.247 40.5207 104.371C40.5305 104.485 40.549 104.597 40.5762 104.708Z" fill="#263238"/>
<path d="M99.3065 85.9052L94.7914 108.097H55.5809C55.478 108.097 55.3761 108.076 55.2811 108.037C55.1861 107.997 55.0998 107.939 55.0272 107.866C54.9546 107.793 54.8972 107.707 54.8582 107.612C54.8192 107.516 54.7994 107.414 54.8 107.311C54.8 107.104 54.8822 106.906 55.0287 106.759C55.1752 106.613 55.3738 106.53 55.5809 106.53H63.476L67.6624 85.9052C67.7024 85.7095 67.8096 85.534 67.9656 85.4093C68.1215 85.2845 68.3163 85.2184 68.516 85.2224L98.4786 84.8938C98.6032 84.8954 98.7259 84.9242 98.8381 84.9782C98.9503 85.0323 99.0493 85.1102 99.1282 85.2066C99.2071 85.303 99.264 85.4155 99.2948 85.5362C99.3256 85.6568 99.3296 85.7828 99.3065 85.9052Z" fill="#E0E0E0"/>
<path d="M99.3066 85.9053V85.837C99.3159 85.7705 99.3159 85.703 99.3066 85.6365C99.2918 85.5023 99.2454 85.3735 99.1712 85.2608C99.097 85.148 98.9972 85.0545 98.8798 84.9878C98.7995 84.9391 98.7114 84.9045 98.6195 84.8854C98.5181 84.8674 98.4151 84.8602 98.3122 84.864H97.6038H95.8413L84.5109 84.9707L76.6116 85.0518L72.1861 85.0945L69.8688 85.1201H68.6824C68.58 85.1201 68.4861 85.1201 68.3752 85.1201C68.2711 85.1294 68.1697 85.1584 68.0764 85.2054C67.8845 85.3001 67.733 85.4607 67.6497 85.6578C67.6095 85.7551 67.5808 85.8568 67.5643 85.9608L67.5046 86.2595L67.3851 86.857C67.304 87.2581 67.2186 87.6636 67.1376 88.069C66.9697 88.8798 66.8018 89.702 66.634 90.5356C66.2954 92.2 65.9498 93.907 65.597 95.6567C64.8885 99.1348 64.1545 102.749 63.3992 106.475L63.4504 106.432H55.6877C55.5847 106.427 55.4816 106.434 55.3804 106.454C55.219 106.497 55.074 106.587 54.9632 106.712C54.8524 106.837 54.7808 106.992 54.7571 107.157C54.7335 107.323 54.7589 107.491 54.8303 107.642C54.9016 107.793 55.0157 107.92 55.1585 108.007C55.2719 108.067 55.3973 108.101 55.5255 108.105H76.3897H94.8H94.8256V108.071C96.2083 101.243 97.3307 95.6951 98.1074 91.8543C98.4957 89.9339 98.7945 88.4403 98.9993 87.4246C99.1017 86.9167 99.1785 86.5326 99.2298 86.2681C99.281 86.0035 99.3023 85.8754 99.3023 85.8754C99.3023 85.8754 99.2724 86.0077 99.2169 86.2681C99.1615 86.5284 99.0804 86.9125 98.978 87.4203C98.7646 88.436 98.4573 89.9254 98.0647 91.8458C97.2752 95.6866 96.14 101.234 94.7445 108.041L94.7872 108.007H76.3769H55.5511C55.4394 108.003 55.3301 107.973 55.231 107.922C55.1323 107.867 55.0475 107.791 54.9831 107.698C54.9187 107.606 54.8765 107.5 54.8597 107.388C54.8303 107.204 54.8731 107.016 54.9792 106.863C55.0807 106.716 55.2323 106.609 55.406 106.565C55.4997 106.556 55.594 106.556 55.6877 106.565H63.5187V106.518C64.274 102.792 65.008 99.1775 65.7122 95.6994C66.0664 93.9625 66.4121 92.2555 66.7492 90.5783C66.9199 89.7461 67.0864 88.9268 67.2485 88.1117C67.3296 87.6849 67.415 87.3008 67.496 86.8997C67.5344 86.6991 67.5771 86.5028 67.6155 86.3022L67.6753 86.0035C67.6907 85.9071 67.7164 85.8127 67.7521 85.7218C67.829 85.5461 67.9648 85.4027 68.1362 85.3164C68.2217 85.2741 68.3143 85.248 68.4093 85.2396C68.4989 85.2396 68.6056 85.2396 68.7038 85.2396H69.8902L72.2117 85.214L76.6415 85.1542L84.5407 85.0603L95.8712 84.9195L97.6379 84.8939H98.3421C98.4428 84.8829 98.5444 84.8829 98.6451 84.8939C98.7341 84.9117 98.8193 84.9449 98.8969 84.9921C99.0121 85.0571 99.1106 85.148 99.1847 85.2576C99.2587 85.3672 99.3063 85.4925 99.3236 85.6237C99.3309 85.7179 99.3251 85.8127 99.3066 85.9053Z" fill="#263238"/>
<path d="M81.2419 96.0535C81.2419 96.3067 81.317 96.5542 81.4577 96.7647C81.5984 96.9753 81.7983 97.1394 82.0323 97.2363C82.2662 97.3332 82.5236 97.3585 82.772 97.3091C83.0203 97.2597 83.2485 97.1378 83.4275 96.9588C83.6066 96.7797 83.7285 96.5516 83.7779 96.3032C83.8273 96.0549 83.8019 95.7975 83.705 95.5635C83.6081 95.3296 83.444 95.1296 83.2335 94.989C83.023 94.8483 82.7754 94.7732 82.5222 94.7732C82.1827 94.7732 81.857 94.9081 81.6169 95.1482C81.3768 95.3883 81.2419 95.7139 81.2419 96.0535Z" fill="white"/>
<path d="M99.2725 86.0845H97.2155L91.6079 86.1101L73.1122 86.2381L70.4407 86.2594H69.7835C69.6714 86.249 69.5585 86.249 69.4464 86.2594C69.3325 86.2838 69.2241 86.3286 69.1263 86.3917C68.9314 86.515 68.7898 86.7069 68.7294 86.9295C68.6825 87.1471 68.6441 87.3562 68.6014 87.5611C68.2685 89.234 67.9499 90.84 67.6454 92.3792C67.0394 95.4475 66.4932 98.2129 66.0323 100.539C65.5714 102.865 65.2086 104.734 64.9569 106.04C64.8331 106.684 64.7349 107.188 64.6667 107.533C64.6368 107.704 64.6112 107.832 64.5941 107.926C64.577 108.02 64.5941 108.058 64.5941 108.058C64.5941 108.058 64.5941 108.016 64.6283 107.926C64.6624 107.836 64.6752 107.708 64.7093 107.538C64.7819 107.192 64.8843 106.684 65.0166 106.048L66.1304 100.552L67.7436 92.409C68.0509 90.8727 68.3709 89.2596 68.7038 87.5909C68.7465 87.3861 68.7891 87.1642 68.8318 86.9679C68.8749 86.8211 68.9567 86.6886 69.0685 86.5842C69.1804 86.4799 69.3183 86.4075 69.4677 86.3747C69.5727 86.3637 69.6785 86.3637 69.7835 86.3747H70.4407H73.1165L91.6079 86.2125L97.2155 86.1485L98.739 86.1272H99.1359L99.2725 86.0845Z" fill="#263238"/>
<path d="M46.8066 48.4104C46.7541 50.7255 47.1929 53.0255 48.094 55.1587C48.9951 57.292 50.3381 59.21 52.0344 60.7864L54.373 54.0009" fill="#263238"/>
<path d="M64.4406 34.942C62.4348 33.8452 60.0108 33.6873 57.7661 34.1397C55.5358 34.66 53.4053 35.5408 51.4586 36.7472C50.3149 37.3358 49.2915 38.1333 48.4414 39.0986C46.9862 40.9337 45.5437 43.9423 45.4029 46.2809C45.292 48.1715 46.0132 52.9 46.8112 54.6155C47.5452 56.1945 50.9764 57.3937 52.6706 57.7821L68.196 39.7089C67.9163 38.7055 67.4403 37.7675 66.7957 36.9493C66.1511 36.1311 65.3506 35.4488 64.4406 34.942Z" fill="#263238"/>
<path d="M67.1077 37.3786L63.3821 36.7129C65.4177 41.5651 65.9683 52.6523 67.1333 57.7819C68.5075 55.789 71.6954 49.7333 71.5247 47.305C71.354 44.8768 71.5332 36.9689 67.1077 37.3786Z" fill="#263238"/>
<path d="M69.2371 45.2863C68.9938 41.565 66.5186 37.003 62.8101 37.4041L54.2323 39.5934C52.9105 39.9297 51.732 40.6821 50.8706 41.7395C50.0092 42.7968 49.5105 44.1031 49.4483 45.4656C49.4483 45.6064 49.4227 45.4314 49.4227 45.5381L51.3388 67.7509L58.0731 73.7511L57.7274 73.7041L63.4588 68.7495C63.4588 66.9358 63.4588 63.8631 63.4588 63.8716C63.4588 63.8802 68.2128 63.0736 69.1859 56.8685C69.6724 53.7831 69.5059 49.4173 69.2371 45.2863Z" fill="#B7715B"/>
<path d="M67.7395 50.6595C67.7407 50.8668 67.6613 51.0664 67.5179 51.2162C67.3745 51.3659 67.1785 51.454 66.9713 51.4617C66.8704 51.4705 66.7687 51.4588 66.6724 51.4274C66.576 51.3961 66.487 51.3456 66.4105 51.2791C66.3341 51.2126 66.2718 51.1314 66.2274 51.0404C66.1829 50.9493 66.1573 50.8502 66.1519 50.7491C66.1485 50.5414 66.2265 50.3407 66.3693 50.1899C66.5121 50.0391 66.7083 49.9503 66.9158 49.9425C67.0174 49.9338 67.1196 49.9455 67.2164 49.9771C67.3133 50.0087 67.4028 50.0595 67.4796 50.1264C67.5565 50.1933 67.6191 50.2749 67.6637 50.3665C67.7084 50.4581 67.7341 50.5577 67.7395 50.6595Z" fill="#263238"/>
<path d="M68.2813 47.7149C68.1832 47.8216 67.5815 47.3735 66.7237 47.3778C65.8659 47.382 65.2428 47.8045 65.1489 47.7064C65.055 47.6082 65.2044 47.4759 65.4775 47.2796C65.8523 47.0172 66.3004 46.8798 66.7578 46.887C67.2035 46.8836 67.6386 47.0226 67.9997 47.2839C68.2813 47.4802 68.3539 47.668 68.2813 47.7149Z" fill="#263238"/>
<path d="M60.3095 50.6595C60.3119 50.8664 60.2334 51.066 60.0907 51.2159C59.948 51.3658 59.7524 51.454 59.5456 51.4617C59.4445 51.4705 59.3426 51.4588 59.246 51.4275C59.1494 51.3962 59.0601 51.3458 58.9833 51.2794C58.9065 51.2129 58.8438 51.1318 58.7989 51.0407C58.754 50.9496 58.7279 50.8504 58.722 50.7491C58.7196 50.5417 58.798 50.3416 58.9405 50.191C59.0831 50.0405 59.2787 49.9513 59.4859 49.9425C59.5874 49.9338 59.6896 49.9455 59.7865 49.9771C59.8833 50.0087 59.9728 50.0595 60.0497 50.1264C60.1265 50.1933 60.1891 50.2749 60.2338 50.3665C60.2784 50.4581 60.3042 50.5577 60.3095 50.6595Z" fill="#263238"/>
<path d="M60.173 47.7147C60.0748 47.8214 59.4731 47.3733 58.6153 47.3776C57.7576 47.3818 57.1345 47.8043 57.0406 47.7062C56.9467 47.608 57.0961 47.4757 57.3692 47.2794C57.738 47.0212 58.1779 46.884 58.6281 46.8868C59.0738 46.8834 59.5089 47.0224 59.87 47.2837C60.1346 47.48 60.2242 47.6677 60.173 47.7147Z" fill="#263238"/>
<path d="M62.8529 54.4275C63.3019 54.2812 63.7683 54.1951 64.2399 54.1714C64.4575 54.1501 64.6666 54.1031 64.7008 53.9538C64.7201 53.7292 64.6694 53.5041 64.5557 53.3094C64.3466 52.7802 64.1289 52.2254 63.907 51.645C63.0023 49.2765 62.3493 47.3305 62.4432 47.2964C62.5371 47.2622 63.348 49.1485 64.2527 51.517C64.4703 52.1016 64.6794 52.6564 64.8757 53.1899C65.0116 53.4525 65.0523 53.7541 64.991 54.0434C64.959 54.1202 64.9102 54.1889 64.8482 54.2443C64.7861 54.2997 64.7124 54.3404 64.6325 54.3635C64.5116 54.3971 64.3867 54.4143 64.2612 54.4147C63.7942 54.4781 63.321 54.4824 62.8529 54.4275Z" fill="#263238"/>
<path d="M55.2395 61.6824C55.2395 61.6824 57.2581 65.9499 63.4631 65.3482V63.8887C60.5705 63.929 57.7235 63.1652 55.2395 61.6824Z" fill="#754235"/>
<path d="M59.9085 44.6123C59.8232 44.847 58.9697 44.7403 57.9625 44.8598C56.9554 44.9793 56.1488 45.2609 56.0122 45.0518C55.9525 44.9537 56.0933 44.7318 56.439 44.5056C56.8759 44.2291 57.3699 44.0555 57.8837 43.9979C58.3975 43.9402 58.9176 44 59.4049 44.1727C59.7464 44.3306 59.9427 44.5098 59.9085 44.6123Z" fill="#263238"/>
<path d="M68.0255 45.0985C67.8761 45.2905 67.2872 45.0985 66.5745 45.0985C65.8618 45.0985 65.2686 45.2351 65.1278 45.0302C65.068 44.9321 65.1619 44.7358 65.4223 44.5522C65.7725 44.3268 66.1839 44.215 66.6001 44.2322C67.0169 44.2367 67.4216 44.3726 67.7566 44.6205C68.0084 44.7998 68.0938 45.0003 68.0255 45.0985Z" fill="#263238"/>
<path d="M67.5515 39.6189C67.3316 39.1638 66.9898 38.7785 66.5642 38.5058C66.1386 38.2331 65.6457 38.0837 65.1403 38.0741C64.125 38.0782 63.1324 38.3745 62.281 38.9276C58.5853 41.0614 56.6862 46.2209 53.0375 48.4272C52.137 48.9735 50.972 48.4742 50.2081 49.1954C49.4442 49.9166 48.9278 51.0646 49.3545 52.0248C48.8271 51.379 48.3959 50.6603 48.0743 49.891C47.918 49.5037 47.8463 49.0874 47.8639 48.6701C47.8816 48.2528 47.9882 47.844 48.1767 47.4713C48.4925 46.925 49.0302 46.5068 49.2052 45.8966C49.3375 45.3546 49.1241 44.7912 49.1497 44.2365C49.2119 43.6714 49.4064 43.129 49.7173 42.6532C51.1469 40.1268 53.1313 37.8394 55.645 36.414C57.2985 35.4591 59.1813 34.9736 61.0904 35.01C63.0067 35.0551 64.844 35.783 66.2712 37.0627C67.0863 37.8266 67.9441 38.6118 67.5216 39.6445" fill="#263238"/>
<path d="M50.2979 49.9466C50.2296 49.7674 46.9947 48.598 46.9521 52.0377C46.9094 55.3792 50.2808 54.722 50.2893 54.6281C50.2978 54.5342 50.2979 49.9466 50.2979 49.9466Z" fill="#B7715B"/>
<path d="M49.2692 53.3522C49.2692 53.3522 49.2095 53.3906 49.1113 53.4375C48.9739 53.49 48.822 53.49 48.6846 53.4375C48.3346 53.3052 48.0402 52.7419 48.0316 52.1572C48.0257 51.8706 48.084 51.5862 48.2023 51.3251C48.2351 51.2255 48.2908 51.135 48.3649 51.0609C48.4391 50.9868 48.5295 50.9311 48.6291 50.8983C48.696 50.8818 48.7665 50.889 48.8287 50.9185C48.8909 50.9481 48.941 50.9982 48.9705 51.0605C49.0132 51.1543 48.9705 51.2226 49.0089 51.2269C49.0473 51.2312 49.0815 51.1714 49.0559 51.0348C49.039 50.9511 48.9938 50.8758 48.9278 50.8215C48.8345 50.7529 48.7185 50.7224 48.6035 50.7361C48.4661 50.7614 48.3377 50.8218 48.2307 50.9116C48.1238 51.0013 48.0419 51.1173 47.9932 51.2482C47.8473 51.5348 47.7741 51.8528 47.7799 52.1743C47.7799 52.8486 48.1341 53.4844 48.6334 53.6253C48.7227 53.6523 48.817 53.659 48.9093 53.645C49.0015 53.631 49.0895 53.5965 49.1668 53.5442C49.265 53.4332 49.282 53.3564 49.2692 53.3522Z" fill="#754235"/>
<path d="M48.9662 48.2266C49.0375 48.1983 49.1049 48.161 49.1668 48.1156C49.2949 48.0346 49.4954 47.9279 49.7301 47.7614C50.3869 47.279 50.9905 46.7282 51.5311 46.1184C52.3215 45.2061 53.0582 44.2485 53.7374 43.2506C54.5608 42.0386 55.4829 40.8967 56.4943 39.8365C57.0358 39.3054 57.6324 38.8333 58.2738 38.4282C58.8788 38.0674 59.525 37.7808 60.1985 37.5747C61.3405 37.2115 62.5407 37.0667 63.7363 37.148C64.5443 37.1977 65.3422 37.3541 66.1091 37.6131C66.3822 37.6985 66.5828 37.7881 66.7279 37.8436C66.7979 37.8758 66.8708 37.9015 66.9456 37.9204C66.8792 37.8786 66.8092 37.8429 66.7364 37.8137C66.5999 37.754 66.3993 37.6515 66.1262 37.5577C65.3608 37.2738 64.5591 37.1 63.7449 37.0413C62.5322 36.9497 61.3133 37.0947 60.1558 37.468C59.4682 37.6767 58.81 37.9722 58.197 38.3472C57.5433 38.7527 56.9364 39.2293 56.3876 39.7683C55.3701 40.8421 54.445 41.9999 53.6222 43.2293C52.9508 44.2267 52.2256 45.1869 51.45 46.1056C50.9217 46.717 50.3342 47.2745 49.696 47.77C49.4656 47.9449 49.2692 48.0602 49.154 48.1498C49.0901 48.1721 49.0274 48.1977 48.9662 48.2266Z" fill="#455A64"/>
<path d="M49.8067 49.1744C49.7555 50.0876 49.7128 51.0521 50.1353 51.863C50.5578 52.6738 51.6205 53.2243 52.4142 52.772C53.0586 52.4007 53.2677 51.5728 53.3616 50.8345C53.6817 48.7007 53.8268 46.5669 54.1597 44.4331L49.8067 49.1744Z" fill="#263238"/>
<path d="M60.7492 56.0623C60.5865 56.2736 60.4774 56.5213 60.4312 56.784C60.3851 57.0467 60.4033 57.3167 60.4842 57.5709C60.5652 57.8251 60.7065 58.0558 60.896 58.2435C61.0856 58.4311 61.3178 58.5701 61.5728 58.6484C61.7749 58.7167 61.9938 58.7167 62.1959 58.6484C62.3582 58.5584 62.5006 58.4363 62.6143 58.2896C62.728 58.1429 62.8107 57.9746 62.8574 57.7949L63.203 56.9414C63.2301 56.8963 63.2472 56.8459 63.2531 56.7936C63.259 56.7413 63.2535 56.6884 63.2372 56.6384C63.1902 56.536 63.0665 56.5018 62.9555 56.4762L60.8217 55.9556" fill="#754235"/>
<path d="M62.1489 58.5544C61.8193 58.5979 61.4841 58.5553 61.1759 58.4307C60.8149 58.3151 60.5103 58.0684 60.3223 57.7393C60.2139 57.5352 60.1679 57.3037 60.19 57.0736C60.2058 56.8376 60.2636 56.6064 60.3607 56.3908C60.4569 56.1802 60.5932 55.9903 60.7619 55.8317L60.8216 55.7805L60.8899 55.8061C62.311 56.3054 63.4206 56.5572 63.4121 56.6212C62.52 56.5603 61.6423 56.3646 60.8088 56.0408L60.9369 56.0152C60.7939 56.1532 60.6781 56.3168 60.5955 56.4975C60.5053 56.6707 60.453 56.8611 60.4419 57.056C60.4309 57.251 60.4614 57.4461 60.5314 57.6284C60.688 57.9167 60.9399 58.1415 61.2441 58.2642C61.7733 58.4819 62.1617 58.5075 62.1489 58.5544Z" fill="#263238"/>
<path d="M66.728 38.0315C66.728 38.0315 66.4336 37.9761 65.8745 37.959C65.1183 37.9448 64.3669 38.0811 63.6639 38.3601C63.188 38.5464 62.7331 38.7824 62.3068 39.0643C61.8084 39.3973 61.3309 39.7608 60.8772 40.1525C59.827 41.0429 58.8871 42.0559 58.0776 43.1697C57.6509 43.7672 57.2796 44.3774 56.8699 44.945C56.4871 45.5005 56.037 46.0065 55.5299 46.4515C54.6643 47.1865 53.7179 47.8207 52.709 48.342C51.8555 48.7944 51.1386 49.1102 50.6478 49.3278L50.0759 49.5711C50.0117 49.6053 49.9426 49.6298 49.8711 49.6436C49.9289 49.6003 49.992 49.5644 50.0589 49.5369L50.6137 49.2638C51.1002 49.0248 51.8043 48.6877 52.645 48.2225C53.636 47.6924 54.5662 47.0556 55.4189 46.3235C55.9079 45.8795 56.3446 45.3813 56.7206 44.8383C57.1217 44.2793 57.4973 43.6647 57.924 43.063C58.7421 41.9353 59.6968 40.9132 60.7662 40.0202C61.2288 39.6284 61.7148 39.265 62.2215 38.932C62.6682 38.6452 63.1447 38.4077 63.6426 38.2236C64.364 37.951 65.1343 37.8318 65.9044 37.8736C66.1127 37.8843 66.3197 37.9128 66.5232 37.959C66.5943 37.9744 66.6631 37.9987 66.728 38.0315Z" fill="#455A64"/>
<path d="M44.2678 50.7019C43.0985 54.9695 44.0886 60.6752 42.9363 64.1064C41.7841 67.5375 40.9391 71.3356 42.245 74.7113C42.8481 73.3798 43.4484 72.0512 44.0459 70.7254C43.6769 71.5124 43.5176 72.3815 43.5837 73.2482C43.6497 74.1149 43.9388 74.9498 44.4229 75.6718C44.9069 76.3938 45.5695 76.9783 46.3461 77.3686C47.1228 77.7589 47.9873 77.9417 48.8555 77.8992C52.2695 70.9302 53.3065 62.809 50.2979 55.6566L47.8953 57.3636L45.7999 56.4589L44.2678 50.7019Z" fill="#263238"/>
<path d="M53.1313 51.5213C53.1313 54.1971 51.1768 56.365 48.7613 56.365C46.3459 56.365 44.3828 54.1971 44.3828 51.5213C44.3828 48.8455 46.3374 46.6819 48.7485 46.6819C51.1597 46.6819 53.1313 48.8498 53.1313 51.5213Z" fill="#455A64"/>
<path d="M51.3431 51.5212C51.3508 51.4517 51.3508 51.3816 51.3431 51.3121C51.3392 51.1098 51.3164 50.9084 51.2749 50.7104C51.2132 50.3965 51.1098 50.0922 50.9676 49.8056C50.7775 49.4219 50.5169 49.0773 50.1994 48.79C49.8116 48.4435 49.3438 48.1986 48.8381 48.0773C48.2507 47.9494 47.6381 48.0061 47.0841 48.2394C46.4733 48.5063 45.9583 48.9529 45.6075 49.5197C45.4227 49.8161 45.2791 50.1362 45.1808 50.4714C44.9792 51.1684 44.9792 51.9082 45.1808 52.6052C45.2797 52.9401 45.4233 53.2602 45.6075 53.5568C45.9583 54.1236 46.4733 54.5702 47.0841 54.8371C47.6381 55.0705 48.2507 55.1271 48.8381 54.9993C49.3448 54.8782 49.8129 54.6317 50.1994 54.2823C50.518 53.9976 50.7788 53.6542 50.9676 53.2709C51.1092 52.9841 51.2125 52.6799 51.2749 52.3662C51.3164 52.1682 51.3392 51.9667 51.3431 51.7645C51.3506 51.6935 51.3506 51.622 51.3431 51.5511C51.3212 51.8204 51.2842 52.0882 51.2322 52.3534C51.164 52.6624 51.0549 52.9609 50.9078 53.241C50.7181 53.6115 50.4604 53.9431 50.1482 54.2183C49.765 54.5364 49.3091 54.7549 48.821 54.8542C48.2484 54.9755 47.6523 54.9174 47.114 54.6877C46.5295 54.4305 46.037 54.0019 45.7014 53.4587C45.5177 53.1724 45.3741 52.8622 45.2746 52.5369C45.0813 51.8663 45.0813 51.1548 45.2746 50.4842C45.3733 50.1586 45.517 49.8483 45.7014 49.5624C46.0357 49.0181 46.5287 48.5892 47.114 48.3333C47.6523 48.1037 48.2484 48.0455 48.821 48.1669C49.3121 48.278 49.7672 48.5114 50.144 48.8454C50.4586 49.1195 50.7179 49.4512 50.9078 49.8227C51.0549 50.1029 51.164 50.4014 51.2322 50.7104C51.2841 50.9784 51.3212 51.2491 51.3431 51.5212Z" fill="#263238"/>
<path d="M47.9206 46.9464C47.9206 46.9464 47.1823 34.2248 59.8698 33.8193C59.8698 33.8193 64.1374 33.8193 65.917 36.047C65.917 36.047 62.998 34.34 59.6949 35.2831C57.0063 36.0385 50.9293 38.7399 50.5793 47.1256L49.4015 47.5311L47.9206 46.9464Z" fill="#455A64"/>
<g opacity="0.3">
<path d="M45.4625 53.1815C45.6286 53.8304 46.0061 54.4055 46.5355 54.8159C47.0649 55.2263 47.716 55.4485 48.3858 55.4476C49.0555 55.4192 49.7025 55.1968 50.2481 54.8073C50.7936 54.4179 51.2141 53.8782 51.4585 53.254C51.6915 52.6732 51.7664 52.0411 51.6757 51.4219C51.585 50.8027 51.3319 50.2186 50.9421 49.729C51.1912 50.2571 51.324 50.8326 51.3313 51.4165C51.3387 52.0003 51.2205 52.579 50.9848 53.1132C50.7392 53.6238 50.3672 54.0631 49.9042 54.3895C49.4411 54.7158 48.9023 54.9185 48.3389 54.9781C47.7377 54.9858 47.1469 54.8206 46.637 54.5021C46.127 54.1835 45.7194 53.7251 45.4625 53.1815Z" fill="black"/>
</g>
<path d="M50.8098 47.2579C50.6619 47.1377 50.4945 47.0438 50.3148 46.9805C49.8906 46.8003 49.439 46.6935 48.979 46.6647C48.5196 46.6325 48.0581 46.6772 47.6134 46.7969C47.4259 46.8345 47.2467 46.9053 47.0842 47.0061C48.3148 46.6289 49.6412 46.7185 50.8098 47.2579Z" fill="#263238"/>
<path d="M66.5527 36.5593L66.5271 36.4867C66.5271 36.4398 66.4887 36.3715 66.4503 36.2819C66.3366 36.0244 66.1933 35.7809 66.0236 35.5564C65.7447 35.2072 65.4187 34.8984 65.0548 34.6389C64.5719 34.2926 64.0489 34.006 63.4971 33.7853C63.1899 33.6658 62.8613 33.5634 62.5199 33.4567C62.1785 33.35 61.8157 33.2647 61.4359 33.2049C60.627 33.055 59.8042 32.9935 58.9821 33.0214C57.0918 33.0772 55.2406 33.5725 53.575 34.4681C52.7158 34.9294 51.9221 35.5035 51.2151 36.1752C50.5667 36.8082 49.9938 37.5142 49.508 38.2791C49.0589 38.9681 48.6855 39.7035 48.3942 40.4726C47.7646 42.1112 47.5051 43.8687 47.6346 45.6193C47.6539 45.9056 47.6895 46.1906 47.7412 46.4728C47.7412 46.5625 47.7669 46.6307 47.7797 46.6862V46.7588C47.7797 46.7588 47.7797 46.7332 47.7797 46.6862C47.7797 46.6393 47.7797 46.5582 47.7583 46.4686C47.7583 46.2765 47.69 45.9991 47.6772 45.6151C47.5257 43.0476 48.197 40.4987 49.5934 38.3388C50.0808 37.5842 50.6536 36.8882 51.3004 36.2648C51.9989 35.5942 52.784 35.0201 53.6348 34.5578C55.2839 33.6721 57.1154 33.1799 58.9863 33.1196C59.7995 33.0876 60.6138 33.1448 61.4146 33.2903C61.7944 33.3458 62.1486 33.4482 62.4943 33.5293C62.8399 33.6104 63.16 33.7341 63.463 33.8493C64.0114 34.0564 64.5329 34.3287 65.0164 34.6602C65.378 34.9126 65.7038 35.2126 65.9851 35.5521C66.15 35.7739 66.2929 36.0111 66.4119 36.2605C66.4503 36.3416 66.4759 36.4056 66.5015 36.4568C66.5271 36.508 66.5485 36.5593 66.5527 36.5593Z" fill="#455A64"/>
<path d="M67.6069 37.5963L67.5771 37.5323C67.5515 37.4853 67.5173 37.4299 67.4789 37.353C67.3482 37.1239 67.2058 36.9017 67.0522 36.6873C66.8066 36.3423 66.52 36.0285 66.1986 35.7527C65.7756 35.3933 65.3027 35.0971 64.7946 34.8736C64.1885 34.5821 63.5452 34.3753 62.8827 34.259C62.1194 34.153 61.3484 34.113 60.5782 34.1396C59.7291 34.1787 58.8844 34.2843 58.0518 34.4553C57.1522 34.62 56.2764 34.8952 55.4443 35.2747C54.6084 35.6548 53.8378 36.1647 53.1612 36.7854C52.5411 37.3705 52.0028 38.0366 51.5608 38.7656C50.8278 40.0077 50.2895 41.3548 49.9648 42.7601C49.7366 43.7004 49.5571 44.6519 49.4271 45.6108C49.3801 45.9437 49.346 46.204 49.3204 46.3918L49.2948 46.5966C49.2948 46.5497 49.2948 46.4771 49.3332 46.396C49.363 46.2083 49.4057 45.9479 49.4612 45.6193C49.5764 44.9451 49.7343 43.9635 50.0373 42.7814C50.3713 41.3892 50.9137 40.0555 51.6462 38.8254C52.0842 38.1061 52.6183 37.4499 53.2337 36.8751C53.9 36.264 54.6592 35.7628 55.4827 35.3899C56.2994 35.0137 57.1594 34.7399 58.0433 34.5748C58.869 34.4046 59.7064 34.2976 60.5484 34.2548C61.3111 34.2262 62.0748 34.2619 62.8315 34.3615C63.4858 34.4754 64.1227 34.6733 64.7263 34.9504C65.2284 35.1696 65.698 35.4568 66.1218 35.8039C66.4395 36.0756 66.7258 36.3819 66.9753 36.7172C67.1802 36.9903 67.321 37.2165 67.4021 37.3658L67.5088 37.5408C67.5899 37.5792 67.6027 37.6006 67.6069 37.5963Z" fill="#263238"/>
<path d="M83.3885 54.7434H96.5198C97.4694 54.7434 98.3802 55.1207 99.0516 55.7921C99.7231 56.4636 100.1 57.3743 100.1 58.3239V65.3996C100.1 66.3492 99.7231 67.2599 99.0516 67.9314C98.3802 68.6028 97.4694 68.9801 96.5198 68.9801H92.0944C91.3091 70.3158 90.1441 72.3088 90.1441 72.3088L88.1511 68.9801H83.3885C82.9179 68.9806 82.4519 68.8884 82.017 68.7087C81.5821 68.5291 81.1869 68.2654 80.854 67.9329C80.521 67.6003 80.2569 67.2054 80.0767 66.7707C79.8965 66.3361 79.8037 65.8701 79.8037 65.3996V58.3239C79.8037 57.8534 79.8965 57.3874 80.0767 56.9527C80.2569 56.518 80.521 56.1231 80.854 55.7906C81.1869 55.4581 81.5821 55.1944 82.017 55.0147C82.4519 54.8351 82.9179 54.7428 83.3885 54.7434Z" fill="white"/>
<path d="M83.3885 54.7433C83.2463 54.7353 83.1038 54.7353 82.9617 54.7433C82.5347 54.7885 82.1196 54.9114 81.7369 55.1061C81.2305 55.3634 80.7917 55.7361 80.4559 56.1943C80.12 56.6524 79.8966 57.1831 79.8037 57.7435C79.7501 58.228 79.7316 58.7158 79.7482 59.203C79.7482 60.2229 79.7482 61.3368 79.7482 62.5701C79.7482 63.1846 79.7482 63.8162 79.7482 64.4734V65.472C79.7528 65.8254 79.8089 66.1762 79.9147 66.5133C80.1463 67.2424 80.5998 67.881 81.2119 68.3401C81.8239 68.7991 82.5639 69.0556 83.3287 69.0739H88.181L88.0913 69.0227L90.0459 72.3514L90.1398 72.5093L90.2337 72.3471L92.1797 69.0355L92.0858 69.0867H96.3363C96.9229 69.1083 97.5067 68.9959 98.0433 68.7581C98.5657 68.5227 99.026 68.1687 99.3875 67.7242C99.749 67.2796 100.002 66.7569 100.126 66.1975C100.187 65.9257 100.218 65.6482 100.22 65.3696V64.5844C100.22 64.0509 100.22 63.526 100.22 63.0011V59.937C100.22 59.4377 100.22 58.9469 100.22 58.4604C100.231 57.9682 100.146 57.4785 99.9723 57.018C99.724 56.3658 99.2944 55.7983 98.734 55.3824C98.1737 54.9665 97.5061 54.7196 96.81 54.6708C96.3832 54.6452 95.9565 54.6708 95.5297 54.6708H93.1612L86.0173 54.7049L84.0755 54.7263L86.0173 54.7476L93.1612 54.7818H95.5212C95.9479 54.7818 96.3747 54.7818 96.7759 54.7818C97.2001 54.8166 97.6148 54.9264 98.0007 55.1061C98.8157 55.493 99.4501 56.1793 99.7717 57.0222C99.9333 57.4619 100.01 57.9282 99.9979 58.3964V59.873C99.9979 60.8716 99.9979 61.8958 99.9979 62.9371C99.9979 63.462 99.9979 63.9869 99.9979 64.5204C100.028 65.0498 99.9984 65.581 99.9083 66.1036C99.7896 66.6219 99.5546 67.1064 99.2212 67.5205C98.875 67.9401 98.437 68.2745 97.9409 68.4978C97.4376 68.7201 96.8904 68.8251 96.3406 68.805H92.0303L92.0004 68.8562L90.0459 72.2532H90.2337C89.5466 71.1095 88.8723 69.9829 88.2364 68.9288L88.2066 68.8776H83.3031C82.5603 68.8647 81.8417 68.6117 81.2547 68.1564C80.6954 67.7198 80.2805 67.125 80.064 66.4493C79.9054 65.8006 79.8479 65.1312 79.8933 64.4649V62.5616C79.8933 61.3453 79.8933 60.2144 79.8933 59.1944C79.8723 58.7132 79.8866 58.2311 79.936 57.752C80.0211 57.2117 80.2313 56.6987 80.5499 56.2542C80.8686 55.8096 81.2867 55.4456 81.7711 55.1914C82.145 54.9928 82.5509 54.8614 82.9702 54.8031C83.2178 54.7562 83.3885 54.7561 83.3885 54.7433Z" fill="#263238"/>
<path d="M87.9121 63.8674C87.8676 63.8074 87.8176 63.7517 87.7627 63.7009L87.336 63.2742C86.969 62.9114 86.4569 62.4207 85.885 61.8744V61.947C86.4611 61.4135 86.9732 60.927 87.3445 60.5728L87.7713 60.146C87.8238 60.0939 87.8709 60.0368 87.9121 59.9753C87.8464 60.0125 87.7861 60.0584 87.7329 60.1119L87.2805 60.5131C86.8964 60.8545 86.3758 61.3324 85.7997 61.8659L85.7612 61.9L85.7997 61.9384C86.3715 62.4804 86.8879 62.9669 87.2677 63.3168L87.7201 63.7436C87.7777 63.794 87.8424 63.8357 87.9121 63.8674Z" fill="#FF9140"/>
<path d="M87.912 64.085C87.9397 64.0845 87.9669 64.0781 87.9919 64.0664C88.0169 64.0546 88.0391 64.0377 88.0571 64.0167C88.1937 63.8631 88.0571 63.7351 87.9035 63.5601L87.4767 63.1333C87.1481 62.809 86.7086 62.3823 86.1965 61.9086C86.6915 61.4519 87.1268 61.055 87.4767 60.7222L87.9035 60.2954C88.0742 60.1204 88.2065 59.9881 88.0614 59.8302C88.0248 59.7905 87.9745 59.7661 87.9206 59.762C87.8224 59.762 87.7669 59.8004 87.592 59.9497L87.1353 60.3552C86.7512 60.6966 86.2263 61.1745 85.6502 61.708L85.6118 61.7464C85.5902 61.7657 85.5729 61.7894 85.5612 61.8159C85.5494 61.8424 85.5434 61.871 85.5435 61.9C85.5438 61.9296 85.55 61.9587 85.5617 61.9858C85.5735 62.013 85.5905 62.0375 85.6118 62.0579L85.6502 62.0921C86.2306 62.6511 86.7512 63.1376 87.1353 63.4876L87.5877 63.9143C87.7114 63.9954 87.8139 64.085 87.912 64.085Z" fill="#FF9140"/>
<path d="M92.3334 59.9753C92.3767 60.0376 92.4268 60.0949 92.4827 60.146L92.9095 60.5728C93.2765 60.9355 93.7886 61.4263 94.3562 61.9726V61.9C93.7844 62.4335 93.268 62.92 92.901 63.2742C92.7303 63.4406 92.5852 63.5857 92.4742 63.7009C92.4179 63.7502 92.3677 63.8061 92.3248 63.8674C92.3887 63.8293 92.4474 63.7835 92.4998 63.7308L92.9564 63.3297C93.3363 62.9882 93.8612 62.5103 94.433 61.9768L94.4714 61.9427L94.433 61.9043C93.8654 61.3623 93.3448 60.8758 92.965 60.5259L92.5126 60.0991C92.4572 60.0519 92.3972 60.0104 92.3334 59.9753Z" fill="#FF9140"/>
<path d="M92.3206 64.0851C92.4231 64.0851 92.5255 63.9955 92.6492 63.8931L93.1059 63.4919C93.4899 63.1463 94.0149 62.6683 94.5867 62.1349L94.6294 62.0965C94.67 62.0557 94.6929 62.0004 94.6929 61.9428C94.6929 61.8852 94.67 61.83 94.6294 61.7892L94.591 61.7508C94.0063 61.196 93.4857 60.7052 93.1059 60.3553L92.6535 59.9285C92.4743 59.7749 92.3249 59.6426 92.1798 59.8005C92.0347 59.9584 92.1798 60.0907 92.3292 60.2614L92.7559 60.6882C93.0845 61.0125 93.5241 61.4392 94.0362 61.9129C93.5454 62.3738 93.1059 62.7665 92.7815 63.0993L92.3548 63.5261C92.1883 63.6968 92.056 63.8291 92.1969 63.9827C92.2089 64.0077 92.2262 64.0298 92.2475 64.0475C92.2689 64.0652 92.2938 64.078 92.3206 64.0851Z" fill="#FF9140"/>
<path d="M91.1982 64.7895C91.2238 64.7895 90.7714 63.4708 90.1612 61.8705C89.5509 60.2701 89.0516 58.977 89.026 58.9898C89.0004 59.0026 89.4527 60.3042 90.0673 61.9046C90.6818 63.5049 91.1726 64.798 91.1982 64.7895Z" fill="#FF9140"/>
<path d="M91.1897 65.0196L91.3561 64.9556L91.3903 64.8745C91.4372 64.7806 91.4585 64.7337 90.3575 61.7976C89.1925 58.6951 89.1925 58.6951 88.9535 58.7889C88.7145 58.8828 88.706 58.8828 89.8667 61.9811C90.9635 64.9172 91.0104 64.9385 91.1086 64.9684L91.1897 65.0196Z" fill="#FF9140"/>
<path d="M100.876 4.44713C99.9609 3.86972 98.9757 3.42209 97.947 3.11605L97.3402 0.0872829L92.4356 0L91.7284 3.00258C90.689 3.27042 89.6884 3.68135 88.753 4.22456L86.2715 2.52688L82.7395 6.08371L84.2795 8.72842C83.7331 9.68424 83.3109 10.7116 83.0241 11.7834L80.1199 12.4162L80.032 17.531L82.9153 18.2686C83.1702 19.3532 83.5644 20.3969 84.087 21.3715L82.4591 23.9595L85.8697 27.6429L88.4057 26.0369C89.3207 26.615 90.306 27.0627 91.335 27.368L91.9376 30.3967L96.8464 30.4884L97.5536 27.4814C98.5933 27.2147 99.594 26.8037 100.529 26.2595L103.011 27.9571L106.542 24.4003L105.002 21.7556C105.55 20.8006 105.973 19.773 106.258 18.7006L109.162 18.0722L109.25 12.953L106.367 12.2154C106.111 11.1311 105.717 10.0875 105.195 9.11247L106.814 6.52449L103.404 2.8411L100.868 4.44713H100.876ZM98.2608 11.264C98.984 12.0451 99.4689 13.0324 99.6541 14.1009C99.8393 15.1693 99.7165 16.2711 99.3014 17.2668C98.8862 18.2626 98.1972 19.1076 97.3215 19.695C96.4459 20.2824 95.4229 20.5858 94.3819 20.5669C93.3409 20.5479 92.3286 20.2075 91.4731 19.5887C90.6176 18.9698 89.9573 18.1003 89.5756 17.0901C89.194 16.0799 89.1081 14.9743 89.3289 13.9132C89.5497 12.8521 90.0673 11.8831 90.8161 11.1287C91.3134 10.6278 91.9005 10.2339 92.5438 9.96953C93.1871 9.7052 93.874 9.57561 94.5653 9.58818C95.2567 9.60074 95.9388 9.75521 96.5729 10.0428C97.207 10.3303 97.7805 10.7453 98.2608 11.264Z" fill="#F1F1F1"/>
<path d="M12.6879 87.7074C12.1307 87.3706 11.531 87.1095 10.9048 86.931L10.5354 85.1642L7.55007 85.1133L7.11958 86.8648C6.48691 87.021 5.87787 87.2607 5.30849 87.5776L3.79797 86.5873L1.6481 88.6621L2.58548 90.2049C2.2529 90.7624 1.99592 91.3617 1.82131 91.9869L0.0535183 92.3561L2.67029e-05 95.3397L1.75508 95.77C1.91027 96.4026 2.15018 97.0115 2.46831 97.58L1.47743 99.0897L3.55344 101.238L5.09707 100.301C5.65406 100.639 6.25375 100.9 6.88014 101.078L7.24695 102.845L10.2349 102.898L10.6654 101.144C11.2982 100.989 11.9074 100.749 12.4764 100.431L13.987 101.422L16.1368 99.3468L15.1995 97.804C15.5329 97.2469 15.79 96.6476 15.9636 96.022L17.7314 95.6554L17.7849 92.6692L16.0299 92.2389C15.8742 91.6064 15.6343 90.9976 15.3166 90.4289L16.3024 88.9192L14.2264 86.7706L12.6828 87.7074H12.6879ZM11.0958 91.684C11.536 92.1396 11.8312 92.7155 11.9439 93.3388C12.0567 93.9621 11.9819 94.6048 11.7292 95.1856C11.4765 95.7665 11.0571 96.2594 10.5241 96.602C9.99111 96.9447 9.36841 97.1217 8.73476 97.1106C8.1011 97.0996 7.48496 96.901 6.96422 96.54C6.44348 96.179 6.04154 95.6718 5.80922 95.0825C5.5769 94.4932 5.52464 93.8483 5.65904 93.2293C5.79344 92.6103 6.10846 92.0451 6.56428 91.605C6.86699 91.3128 7.22434 91.083 7.61591 90.9288C8.00748 90.7746 8.42561 90.6991 8.84642 90.7064C9.26722 90.7137 9.68247 90.8038 10.0684 90.9716C10.4544 91.1393 10.8035 91.3814 11.0958 91.684Z" fill="#F1F1F1"/>
</svg>
