<svg width="94" height="94" viewBox="0 0 94 94" fill="none" xmlns="http://www.w3.org/2000/svg">
<path d="M92.5131 3.01685H60.3378C59.5563 3.01685 58.9229 3.65456 58.9229 4.44121V51.6103C58.9229 52.397 59.5563 53.0347 60.3378 53.0347H92.5131C93.2945 53.0347 93.928 52.397 93.928 51.6103V4.44121C93.928 3.65456 93.2945 3.01685 92.5131 3.01685Z" fill="#E0E0E0"/>
<path d="M92.5147 53.0345L92.6234 53.0268C92.7273 53.0169 92.83 52.9963 92.9297 52.9651C93.1307 52.9009 93.3148 52.792 93.4685 52.6466C93.6222 52.5012 93.7416 52.323 93.8178 52.125C93.8707 51.9869 93.9017 51.8412 93.9097 51.6934C93.9173 51.5392 93.9097 51.3727 93.9097 51.2001C93.9097 50.8548 93.9097 50.4771 93.9097 50.0686C93.9097 49.2501 93.9097 48.3051 93.9097 47.243C93.9097 42.9899 93.9097 36.8362 93.899 29.2334C93.899 25.432 93.899 21.2668 93.899 16.7964C93.899 14.5611 93.899 12.2519 93.899 9.86875C93.899 8.67766 93.899 7.46962 93.899 6.24462C93.899 5.62801 93.899 5.01141 93.899 4.3948C93.8903 4.08721 93.7803 3.79126 93.5862 3.5535C93.3922 3.31574 93.1251 3.14967 92.8271 3.08142C92.676 3.05024 92.5217 3.03833 92.3677 3.04596H60.3409C59.9858 3.0463 59.6444 3.18367 59.3869 3.4298C59.1307 3.67561 58.9783 4.0112 58.9612 4.36705C58.9612 5.0854 58.9612 5.80683 58.9612 6.52518V19.1395C58.9612 24.6103 58.9612 29.8885 58.9612 34.9154C58.9612 39.9423 58.9612 44.7195 58.9612 49.1899C58.9612 49.749 58.9612 50.3029 58.9612 50.8517C58.9612 51.1261 58.9612 51.402 58.9612 51.6718C58.9716 51.9387 59.0589 52.1969 59.2124 52.4148C59.3667 52.6321 59.5791 52.801 59.8249 52.9019C59.9452 52.9505 60.0713 52.9831 60.2 52.999C60.3287 53.0098 60.4603 53.0067 60.592 53.0083H68.0662L85.9547 53.0191L90.818 53.0268L85.9547 53.0345L68.0662 53.0453H60.5767C60.4466 53.0453 60.3149 53.0453 60.1786 53.0453C60.0445 53.0291 59.9132 52.9949 59.7881 52.9435C59.534 52.8384 59.3152 52.6621 59.1576 52.4356C58.9999 52.2091 58.91 51.9419 58.8984 51.6656C58.8984 51.3912 58.8984 51.1199 58.8984 50.844V49.1899C58.8984 44.7195 58.8984 39.9408 58.8984 34.9154C58.8984 29.8901 58.8984 24.6103 58.8984 19.1395C58.8984 16.4038 58.8984 13.6224 58.8984 10.7952V6.52672C58.8984 5.80991 58.8984 5.09311 58.8984 4.36859C58.9169 3.99438 59.0776 3.64165 59.3472 3.3834C59.6169 3.12515 59.9749 2.98115 60.347 2.98122H92.3616C92.5202 2.97518 92.6789 2.9876 92.8347 3.01822C93.1465 3.0892 93.4259 3.2625 93.6291 3.51087C93.8323 3.75923 93.9477 4.06856 93.9572 4.39017C93.9572 5.00678 93.9572 5.62339 93.9572 6.24V9.86875C93.9572 12.2489 93.9572 14.5581 93.9572 16.7964C93.9572 21.2668 93.9572 25.4289 93.9572 29.2334C93.9572 36.8362 93.9572 42.9899 93.9464 47.243C93.9464 48.3051 93.9464 49.247 93.9464 50.0686C93.9464 50.4771 93.9464 50.8548 93.9464 51.2001C93.9464 51.3743 93.9464 51.5377 93.9464 51.6949C93.9382 51.844 93.9062 51.9908 93.8515 52.1296C93.7609 52.3609 93.6127 52.5647 93.4212 52.7216C93.2838 52.8316 93.1283 52.9166 92.9618 52.9728C92.8584 53.0031 92.7522 53.0227 92.6448 53.0314L92.5147 53.0345Z" fill="#263238"/>
<g opacity="0.3">
<path d="M61.9778 51.9047H91.357L91.0339 45.7525V42.4783L61.9778 47.0489V51.9047Z" fill="black"/>
</g>
<g opacity="0.3">
<path d="M85.2596 3.11841L85.9272 5.11314V6.08893H85.1738L85.2596 3.11841Z" fill="black"/>
</g>
<path d="M60.4849 5.02075V50.9674H84.2948H92.3677V5.02075H60.4849Z" fill="white"/>
<path d="M92.3677 42.7511C92.3677 42.7511 92.3677 42.6926 92.3677 42.5754C92.3677 42.4583 92.3677 42.2825 92.3677 42.0528C92.3677 41.5904 92.3677 40.909 92.3677 40.0196C92.3677 38.2376 92.3677 35.6308 92.3585 32.3212C92.3585 25.6926 92.3585 16.2662 92.3463 5.0208L92.3769 5.05163H60.494L60.5277 5.01772V5.05934C60.5277 22.7221 60.5277 38.8511 60.5186 50.9644L60.494 50.9382L77.9001 50.9505L60.494 50.9613H60.468V50.9366C60.468 38.8233 60.468 22.6944 60.468 5.03159V4.95605H60.5017H92.3845H92.4136V5.01926C92.4136 16.2724 92.4044 25.6973 92.4014 32.3196C92.4014 35.6293 92.4014 38.236 92.3937 40.018C92.3937 40.9075 92.3937 41.5904 92.3937 42.0513C92.3937 42.281 92.3937 42.4552 92.3937 42.5739C92.3937 42.6926 92.3677 42.7511 92.3677 42.7511Z" fill="#263238"/>
<path d="M70.0952 1.771H84.2902C84.5473 1.771 84.7938 1.8738 84.9756 2.0568C85.1574 2.23979 85.2595 2.48799 85.2595 2.74678V6.48189H69.1274V2.74678C69.1274 2.48825 69.2294 2.24029 69.4108 2.05734C69.5923 1.87439 69.8384 1.7714 70.0952 1.771Z" fill="#263238"/>
<path d="M79.246 0H75.1406L75.6199 3.54242H78.7131L79.246 0Z" fill="#263238"/>
<path d="M84.2228 1.77122C84.2228 1.78972 81.0745 1.80513 77.1927 1.80513C73.3108 1.80513 70.1641 1.78972 70.1641 1.77122C70.1641 1.75272 73.3108 1.7373 77.1927 1.7373C81.0745 1.7373 84.2228 1.75272 84.2228 1.77122Z" fill="#455A64"/>
<path d="M69.4888 5.72204C69.4689 5.72204 69.4536 5.05611 69.4536 4.23293C69.4536 3.40976 69.4689 2.74536 69.4888 2.74536C69.5087 2.74536 69.5225 3.4113 69.5225 4.23293C69.5225 5.05456 69.5057 5.72204 69.4888 5.72204Z" fill="#455A64"/>
<path d="M84.7373 5.36904C84.7029 4.9198 84.6916 4.46907 84.7036 4.01866C84.6916 3.56774 84.7029 3.1165 84.7373 2.66675C84.7557 2.66675 84.771 3.27257 84.771 4.01866C84.771 4.76476 84.7557 5.36904 84.7373 5.36904Z" fill="#455A64"/>
<path d="M83.9594 5.99639C83.9594 6.01489 80.7284 6.03031 76.744 6.03031C72.7596 6.03031 69.5271 6.01489 69.5271 5.99639C69.5271 5.97789 72.7566 5.96094 76.744 5.96094C80.7315 5.96094 83.9594 5.97635 83.9594 5.99639Z" fill="#455A64"/>
<path d="M88.3311 13.8381H70.7229V14.928H88.3311V13.8381Z" fill="#E0E0E0"/>
<path d="M78.7116 16.0642H70.7229V17.1464H78.7116V16.0642Z" fill="#E0E0E0"/>
<path d="M68.3419 13.3743H65.4524C65.126 13.3743 64.8613 13.6407 64.8613 13.9693V16.8782C64.8613 17.2068 65.126 17.4732 65.4524 17.4732H68.3419C68.6684 17.4732 68.933 17.2068 68.933 16.8782V13.9693C68.933 13.6407 68.6684 13.3743 68.3419 13.3743Z" fill="#2952CE"/>
<path d="M66.8381 16.3986L65.6973 15.5122L66.0051 15.1114L66.7692 15.7064L67.8564 14.447L68.2361 14.7784L66.8381 16.3986Z" fill="white"/>
<path d="M88.3311 20.5854H70.7229V21.6753H88.3311V20.5854Z" fill="#E0E0E0"/>
<path d="M78.7116 22.8098H70.7229V23.892H78.7116V22.8098Z" fill="#E0E0E0"/>
<path d="M68.3419 20.1199H65.4524C65.126 20.1199 64.8613 20.3863 64.8613 20.7149V23.6238C64.8613 23.9524 65.126 24.2188 65.4524 24.2188H68.3419C68.6684 24.2188 68.933 23.9524 68.933 23.6238V20.7149C68.933 20.3863 68.6684 20.1199 68.3419 20.1199Z" fill="#2952CE"/>
<path d="M66.8381 23.1444L65.6973 22.2581L66.0051 21.8573L66.7692 22.4523L67.8564 21.1929L68.2361 21.5243L66.8381 23.1444Z" fill="white"/>
<path d="M88.3311 27.8137H70.7229V28.9036H88.3311V27.8137Z" fill="#E0E0E0"/>
<path d="M78.7116 30.0381H70.7229V31.1202H78.7116V30.0381Z" fill="#E0E0E0"/>
<path d="M88.3311 34.4946H70.7229V35.5845H88.3311V34.4946Z" fill="#E0E0E0"/>
<path d="M78.7116 36.7205H70.7229V37.8026H78.7116V36.7205Z" fill="#E0E0E0"/>
<path d="M68.3419 27.3481H65.4524C65.126 27.3481 64.8613 27.6145 64.8613 27.9432V30.852C64.8613 31.1807 65.126 31.4471 65.4524 31.4471H68.3419C68.6684 31.4471 68.933 31.1807 68.933 30.852V27.9432C68.933 27.6145 68.6684 27.3481 68.3419 27.3481Z" fill="#2952CE"/>
<path d="M66.8381 30.3725L65.6973 29.4861L66.0051 29.0853L66.7692 29.6803L67.8564 28.4209L68.2361 28.7523L66.8381 30.3725Z" fill="white"/>
<path d="M68.3985 38.387H65.3941C65.2343 38.387 65.0811 38.3232 64.968 38.2096C64.8549 38.0961 64.7912 37.942 64.7908 37.7812V34.7567C64.7912 34.5959 64.8549 34.4418 64.968 34.3282C65.0811 34.2147 65.2343 34.1509 65.3941 34.1509H68.3985C68.4775 34.1509 68.5558 34.1666 68.6288 34.197C68.7018 34.2274 68.7681 34.2721 68.824 34.3283C68.8799 34.3846 68.9242 34.4514 68.9545 34.5249C68.9847 34.5984 69.0003 34.6771 69.0003 34.7567V37.7812C69.0003 37.9418 68.9369 38.0959 68.824 38.2095C68.7111 38.3232 68.5581 38.387 68.3985 38.387ZM65.3941 34.2896C65.2723 34.2896 65.1554 34.3383 65.0693 34.4251C64.9831 34.5118 64.9347 34.6294 64.9347 34.7521V37.7765C64.9347 37.8992 64.9831 38.0168 65.0693 38.1035C65.1554 38.1903 65.2723 38.239 65.3941 38.239H68.3985C68.5203 38.239 68.6372 38.1903 68.7233 38.1035C68.8095 38.0168 68.8579 37.8992 68.8579 37.7765V34.7567C68.8579 34.634 68.8095 34.5164 68.7233 34.4297C68.6372 34.343 68.5203 34.2942 68.3985 34.2942L65.3941 34.2896Z" fill="#2952CE"/>
<path d="M88.3311 42.1392H70.7229V43.229H88.3311V42.1392Z" fill="#E0E0E0"/>
<path d="M78.7116 44.365H70.7229V45.4471H78.7116V44.365Z" fill="#E0E0E0"/>
<path d="M68.3985 46.0313H65.3941C65.2351 46.029 65.0832 45.9644 64.9706 45.8514C64.858 45.7383 64.7935 45.5856 64.7908 45.4255V42.4011C64.7931 42.2407 64.8575 42.0876 64.9701 41.9742C65.0827 41.8608 65.2348 41.7961 65.3941 41.7937H68.3985C68.5582 41.7941 68.7113 41.8583 68.8241 41.9721C68.9369 42.086 69.0003 42.2402 69.0003 42.4011V45.4255C68.9999 45.5861 68.9363 45.7399 68.8236 45.8535C68.7108 45.967 68.558 46.0309 68.3985 46.0313ZM65.3941 41.9324C65.2723 41.9324 65.1554 41.9812 65.0693 42.0679C64.9831 42.1546 64.9347 42.2722 64.9347 42.3949V45.4194C64.9347 45.542 64.9831 45.6596 65.0693 45.7464C65.1554 45.8331 65.2723 45.8818 65.3941 45.8818H68.3985C68.5203 45.8818 68.6372 45.8331 68.7233 45.7464C68.8095 45.6596 68.8579 45.542 68.8579 45.4194V42.4011C68.8579 42.2784 68.8095 42.1608 68.7233 42.0741C68.6372 41.9873 68.5203 41.9386 68.3985 41.9386L65.3941 41.9324Z" fill="#2952CE"/>
<path d="M86.1584 9.62061H68.6038V11.1344H86.1584V9.62061Z" fill="#2952CE"/>
<path d="M29.7632 13.8984L30.3729 12.426C29.9949 11.2358 29.9949 9.95779 30.3729 8.76765C30.7254 7.6504 31.3935 6.65895 32.2967 5.91284C33.1999 5.16672 34.2997 4.69778 35.4634 4.56256C36.6271 4.42734 37.805 4.63162 38.8553 5.15075C39.9055 5.66988 40.7832 6.48172 41.3824 7.48838C41.9817 8.49504 42.277 9.65355 42.2327 10.8242C42.1884 11.9949 41.8065 13.1278 41.1329 14.0864C40.4593 15.0449 39.5229 15.7881 38.4364 16.2265C37.35 16.6648 36.1599 16.7795 35.0098 16.5568C33.5841 16.2832 32.3048 15.505 31.4064 14.3649L29.7632 13.8984Z" fill="white"/>
<path d="M29.7631 13.8984L29.8637 13.9319L30.1686 14.0234L31.388 14.3801C31.3916 14.3815 31.3955 14.3822 31.3993 14.382C31.4032 14.3818 31.4069 14.3809 31.4104 14.3791C31.4138 14.3774 31.4169 14.375 31.4193 14.372C31.4218 14.369 31.4236 14.3655 31.4246 14.3618C31.4261 14.3548 31.4261 14.3475 31.4246 14.3405L31.3728 14.3709C31.9836 15.1612 32.7792 15.7894 33.6897 16.2001C34.2877 16.4606 34.922 16.6282 35.5707 16.697C36.3118 16.7682 37.0596 16.7042 37.7778 16.508C38.5701 16.2861 39.3108 15.91 39.9576 15.4014C40.6628 14.8555 41.2368 14.1586 41.6374 13.3619C42.0632 12.5093 42.2894 11.5711 42.2989 10.6181C42.3067 9.62026 42.0679 8.6359 41.6038 7.75246C41.1432 6.85533 40.4637 6.08886 39.6283 5.52395C38.8338 4.98551 37.9265 4.63616 36.9761 4.50268C36.0831 4.38242 35.1745 4.46474 34.3177 4.74351C33.5276 4.99546 32.7958 5.4028 32.1654 5.94161C31.5966 6.42804 31.1223 7.01502 30.7661 7.6732L30.5435 8.13964C30.4734 8.29511 30.4247 8.44449 30.3667 8.60607C30.2611 8.90325 30.1826 9.20935 30.132 9.52064C29.9606 10.4976 30.0328 11.5018 30.3423 12.4442V12.4259C30.1503 12.8985 29.9979 13.2704 29.8942 13.5295C29.8454 13.6484 29.8088 13.7429 29.7814 13.8131C29.7674 13.8435 29.7562 13.8751 29.7479 13.9076C29.7479 13.9076 29.7662 13.871 29.7967 13.807L29.9216 13.5234C30.0314 13.2704 30.1899 12.9137 30.3942 12.4473C30.3958 12.4445 30.3966 12.4414 30.3966 12.4381C30.3966 12.4349 30.3958 12.4318 30.3942 12.429C30.1016 11.4932 30.0409 10.5003 30.2174 9.53589C30.2716 9.23074 30.3522 8.93085 30.4582 8.6396C30.5161 8.49022 30.5649 8.33475 30.635 8.18232C30.7051 8.02989 30.7813 7.87746 30.8576 7.72503C31.2107 7.08056 31.6787 6.5061 32.2386 6.03002C32.8608 5.50781 33.5797 5.11314 34.3543 4.86851C35.1927 4.59699 36.0818 4.51882 36.9547 4.63986C37.8836 4.77044 38.7702 5.11254 39.546 5.6398C40.3526 6.19509 41.0115 6.93873 41.4657 7.80623C41.9199 8.67373 42.1557 9.63893 42.1526 10.6181C42.145 11.5454 41.9261 12.4588 41.5124 13.2887C41.121 14.0698 40.5608 14.7539 39.8722 15.2916C39.2395 15.7921 38.5144 16.163 37.7382 16.383C37.0359 16.5805 36.3033 16.6477 35.5768 16.5812C34.9381 16.5193 34.3128 16.3588 33.7232 16.1056C32.8272 15.7062 32.0408 15.0965 31.4307 14.3283C31.4281 14.3256 31.4251 14.3235 31.4216 14.322C31.4182 14.3206 31.4146 14.3198 31.4109 14.3198C31.4072 14.3198 31.4035 14.3206 31.4001 14.322C31.3967 14.3235 31.3936 14.3256 31.3911 14.3283C31.3881 14.3334 31.3866 14.3391 31.3866 14.345C31.3866 14.3509 31.3881 14.3567 31.3911 14.3618L31.4246 14.3222L30.2052 14.0021L29.882 13.9198C29.8432 13.9085 29.8034 13.9013 29.7631 13.8984Z" fill="#263238"/>
<path d="M38.2443 11.4049C37.8773 11.4049 37.5798 11.1073 37.5798 10.7403C37.5798 10.3732 37.8773 10.0757 38.2443 10.0757C38.6114 10.0757 38.9089 10.3732 38.9089 10.7403C38.9089 11.1073 38.6114 11.4049 38.2443 11.4049Z" fill="#263238"/>
<path d="M35.3422 10.7403C35.3422 10.8717 35.3812 11.0002 35.4542 11.1095C35.5272 11.2188 35.631 11.304 35.7525 11.3543C35.8739 11.4046 36.0075 11.4177 36.1364 11.3921C36.2654 11.3665 36.3838 11.3032 36.4767 11.2102C36.5697 11.1173 36.633 10.9988 36.6586 10.8699C36.6843 10.741 36.6711 10.6074 36.6208 10.4859C36.5705 10.3645 36.4853 10.2607 36.376 10.1877C36.2667 10.1147 36.1382 10.0757 36.0068 10.0757C35.8305 10.0757 35.6615 10.1457 35.5369 10.2703C35.4122 10.395 35.3422 10.564 35.3422 10.7403Z" fill="#263238"/>
<path d="M33.83 11.4049C33.463 11.4049 33.1654 11.1073 33.1654 10.7403C33.1654 10.3732 33.463 10.0757 33.83 10.0757C34.1971 10.0757 34.4946 10.3732 34.4946 10.7403C34.4946 11.1073 34.1971 11.4049 33.83 11.4049Z" fill="#263238"/>
<path d="M83.026 49.7651H84.3213V93.9422H83.026V49.7651Z" fill="#455A64"/>
<path d="M29.8861 50.0762H31.1814V93.9483H29.8861V50.0762Z" fill="#455A64"/>
<path d="M28.6047 49.3291H87.5552V51.9936H28.6047V49.3291Z" fill="#455A64"/>
<path d="M29.1729 51.9968C29.1729 52.0303 36.0513 52.0547 44.5363 52.0547C53.0212 52.0547 59.8997 52.0303 59.8997 51.9968C59.8997 51.9632 53.0229 51.9358 44.5363 51.9358C36.0496 51.9358 29.1729 51.9632 29.1729 51.9968Z" fill="#263238"/>
<path d="M59.188 33.7354C59.122 33.7218 59.054 33.7217 58.9879 33.735C58.9219 33.7483 58.8592 33.7748 58.8037 33.813C58.7482 33.8512 58.7009 33.9001 58.6648 33.957C58.6287 34.0139 58.6045 34.0775 58.5935 34.1439L55.8102 48.8869H42.2836C42.1866 48.8869 42.0935 48.9254 42.0249 48.994C41.9563 49.0627 41.9178 49.1557 41.9178 49.2527C41.9178 49.3497 41.9563 49.4428 42.0249 49.5114C42.0935 49.58 42.1866 49.6186 42.2836 49.6186H56.6424V49.5606H56.7095L59.5843 34.3177C59.5967 34.2534 59.5962 34.1874 59.583 34.1233C59.5697 34.0592 59.544 33.9983 59.5071 33.9442C59.4703 33.8901 59.4232 33.8438 59.3684 33.808C59.3136 33.7722 59.2523 33.7475 59.188 33.7354Z" fill="#263238"/>
<path d="M5.42018 63.691C5.42018 63.6178 5.42019 63.5477 5.40494 63.4745C5.34092 62.1057 5.89881 60.7887 6.43536 59.5114C7.8743 56.1214 9.26445 52.524 8.87423 48.8657C8.33768 44.0276 4.77998 40.0248 3.51177 35.3483C3.43789 35.0815 3.27869 34.8461 3.0585 34.6782C2.83832 34.5103 2.56923 34.4191 2.29234 34.4185C2.09269 34.4171 1.89552 34.4629 1.71689 34.552C1.53826 34.6412 1.38322 34.7714 1.26437 34.9318C1.14553 35.0922 1.06625 35.2785 1.03298 35.4753C0.999704 35.6722 1.01339 35.8741 1.07291 36.0647C2.48745 40.4394 5.71589 44.2776 6.22196 48.8688C6.62742 52.5271 5.23422 56.1244 3.79834 59.5144C3.26179 60.7796 2.7039 62.0966 2.76487 63.4776C2.82584 64.8586 3.70993 66.2914 5.06655 66.5262H25.2634C25.4309 66.527 25.5968 66.4947 25.7518 66.4312C25.9067 66.3676 26.0476 66.2741 26.1663 66.156C26.285 66.0379 26.3792 65.8975 26.4434 65.7428C26.5077 65.5882 26.5408 65.4224 26.5408 65.2549V64.9805C26.5404 64.8132 26.507 64.6476 26.4426 64.4931C26.3782 64.3387 26.284 64.1984 26.1654 64.0804C26.0468 63.9623 25.9061 63.8688 25.7513 63.8051C25.5966 63.7414 25.4308 63.7089 25.2634 63.7093L5.42018 63.691Z" fill="#455A64"/>
<path d="M1.35647 93.9997H30.696C30.9017 93.9976 31.1038 93.9464 31.2857 93.8504C31.4675 93.7544 31.6239 93.6165 31.7417 93.448C31.8866 93.2453 31.9814 93.0111 32.0185 92.7648C32.0556 92.5184 32.0339 92.2667 31.9551 92.0304L23.602 66.4375L23.1691 66.5808L31.5192 92.1889C31.5753 92.3565 31.591 92.535 31.565 92.7098C31.5391 92.8846 31.4722 93.0509 31.3698 93.1949C31.294 93.3042 31.1934 93.394 31.0764 93.457C30.9593 93.52 30.829 93.5546 30.696 93.5577H1.35647C1.22609 93.5566 1.09784 93.5244 0.982294 93.464C0.866749 93.4036 0.767216 93.3166 0.691885 93.2102C0.589947 93.0718 0.52125 92.9119 0.491114 92.7427C0.460979 92.5735 0.470215 92.3996 0.518112 92.2346L7.68229 66.5716L7.24024 66.4466L0.0608253 92.0944C-0.00585938 92.3281 -0.0177193 92.574 0.0261688 92.813C0.0700569 93.052 0.168503 93.2776 0.313854 93.4723C0.43368 93.6363 0.590624 93.7696 0.771839 93.8612C0.953054 93.9529 1.15339 94.0004 1.35647 93.9997Z" fill="#E0E0E0"/>
<path d="M42.5061 47.5578C42.5061 47.5578 41.4361 44.9604 40.3721 44.4116C39.603 44.0318 38.7997 43.7255 37.9729 43.4971H33.2902L33.2445 46.5457C33.4586 46.7461 33.7128 46.8989 33.9902 46.994C34.2676 47.0891 34.5621 47.1244 34.8542 47.0974C35.7687 46.9694 38.107 46.3963 38.107 46.3963L39.2533 46.4573L40.302 47.8108C40.302 47.8108 41.1617 48.0699 40.8568 47.259L40.4209 46.0914C40.4209 46.0914 41.436 47.6675 41.8263 47.7407C41.9461 47.7595 42.0685 47.753 42.1856 47.7215C42.3027 47.69 42.4119 47.6342 42.5061 47.5578Z" fill="#6F4439"/>
<path d="M23.0836 37.7566L26.8242 43.1343L33.2903 43.5001L33.3787 46.4511L28.5009 47.4115C27.2552 47.6565 25.9686 47.5956 24.7516 47.234C23.5345 46.8724 22.4234 46.2209 21.5136 45.3354L20.7911 38.8297L23.0836 37.7566Z" fill="#AE7461"/>
<path d="M25.9736 82.3635L21.6294 86.6162C21.6294 86.6162 24.7755 92.6768 24.053 93.5396L14.9804 85.0035L21.4648 78.0894L25.9736 82.3635Z" fill="#263238"/>
<path d="M19.1844 83.6043C19.0781 83.5461 18.9538 83.5302 18.8363 83.5595C18.7188 83.5889 18.6167 83.6615 18.5503 83.7628C18.496 83.8726 18.4851 83.9987 18.5195 84.1162C18.554 84.2336 18.6313 84.3339 18.7362 84.3969C18.8488 84.459 18.9808 84.4758 19.1053 84.4441C19.2299 84.4124 19.3377 84.3345 19.4069 84.2262C19.4509 84.1049 19.4477 83.9715 19.398 83.8523C19.3484 83.7332 19.2558 83.6371 19.1386 83.583" fill="#E0E0E0"/>
<path d="M14.9805 85.0037L15.6634 84.333L24.108 92.7684C24.108 92.7684 24.3549 93.3141 24.0531 93.5397L14.9805 85.0037Z" fill="#455A64"/>
<path d="M21.8244 86.7107C21.7847 86.7504 21.5439 86.5614 21.1994 86.4912C20.8549 86.4211 20.5714 86.4912 20.547 86.4303C20.5226 86.3693 20.8153 86.1955 21.2329 86.29C21.6506 86.3845 21.8701 86.6803 21.8244 86.7107Z" fill="white"/>
<path d="M22.425 87.9758C22.3976 88.0276 22.1385 87.9179 21.8153 87.9514C21.4922 87.985 21.2757 88.1343 21.2331 88.0886C21.1904 88.0429 21.3855 87.7837 21.7818 87.7472C22.1781 87.7106 22.4616 87.9362 22.425 87.9758Z" fill="white"/>
<path d="M21.9464 89.5581C21.8976 89.5306 22.0348 89.2532 22.3671 89.1404C22.6994 89.0276 22.9768 89.1404 22.9768 89.177C22.9768 89.2136 22.7177 89.2319 22.4463 89.3355C22.175 89.4392 21.9952 89.5977 21.9464 89.5581Z" fill="white"/>
<path d="M22.7024 85.6255C22.6475 85.6468 22.4981 85.3968 22.2329 85.1773C21.9677 84.9578 21.7025 84.8481 21.7116 84.7901C21.7208 84.7322 22.0531 84.7627 22.361 85.0249C22.6689 85.2871 22.7542 85.6133 22.7024 85.6255Z" fill="white"/>
<path d="M25.4738 52.0696C26.2694 52.0696 45.6279 57.7095 47.7284 59.6148C49.8289 61.5202 51.3867 85.1132 51.3867 85.1132L43.2683 87.8965C43.2683 87.8965 41.5581 76.3759 40.5246 72.6536C40.0231 70.7907 39.8082 68.8622 39.8875 66.9345L23.8153 59.9227L25.4738 52.0696Z" fill="#263238"/>
<path d="M24.9859 53.3165C25.3456 53.475 39.4118 59.4807 40.7348 63.5049C41.811 66.7851 40.5611 69.6722 39.0551 71.9281C37.357 74.4737 24.8974 85.8449 24.8974 85.8449L17.8644 80.8147L29.9215 68.3643C29.9215 68.3643 23.5957 64.4621 23.3793 64.4621C23.1628 64.4621 16.587 64.0262 14.5018 63.7914C12.5537 63.5689 11.4898 60.7794 11.4898 60.7794L9.75513 52.7769L22.8 49.7649L24.9859 53.3165Z" fill="#263238"/>
<path d="M24.9859 53.3165L24.8487 53.0817L24.4341 52.3989L22.8183 49.7527H22.8031L9.75515 52.7433H9.71247V52.786C10.2338 55.1914 10.8161 57.8924 11.441 60.7886C11.7378 61.5246 12.1573 62.205 12.6818 62.8006C12.9546 63.1058 13.2772 63.3625 13.636 63.5597C13.7253 63.6138 13.8204 63.6578 13.9195 63.6908C14.0178 63.7322 14.1199 63.7639 14.2244 63.7853C14.325 63.8067 14.4286 63.831 14.5292 63.8432L14.8341 63.8768C16.4803 64.0414 18.1875 64.1603 19.9374 64.2883L22.6019 64.4712L23.2787 64.5109H23.3671C23.3854 64.5109 23.3823 64.5109 23.3915 64.5109L23.425 64.5261L23.5744 64.5993L23.8792 64.7639C24.2756 64.9895 24.6719 65.2242 25.0682 65.459C26.6504 66.4071 28.2601 67.3948 29.9002 68.4039V68.3125C26.8882 71.4251 23.7116 74.6901 20.4648 78.0435L17.8217 80.772L17.7729 80.8208L17.8309 80.8604C20.227 82.5758 22.5714 84.2515 24.8639 85.8876L24.9005 85.915L24.9371 85.8845C27.4573 83.5798 29.8677 81.3269 32.1683 79.1258C33.3146 78.0283 34.4304 76.9461 35.5035 75.873C36.5766 74.7999 37.6192 73.7389 38.5521 72.6475C38.674 72.5165 38.7746 72.364 38.8874 72.2238C39.0002 72.0836 39.1069 71.9372 39.1923 71.7848C39.3843 71.4799 39.5703 71.1751 39.741 70.8702C40.0838 70.2683 40.3764 69.6392 40.616 68.9892C40.8478 68.3584 41.0103 67.7042 41.1007 67.0382C41.1784 66.3942 41.1784 65.7432 41.1007 65.0993C41.0377 64.4725 40.89 63.8572 40.6617 63.2701C40.4034 62.7242 40.0528 62.2271 39.6252 61.8007C38.831 61.0076 37.9622 60.293 37.0308 59.6667C35.4473 58.5908 33.8035 57.6065 32.1074 56.7187C30.6258 55.9261 29.3301 55.292 28.2692 54.7889C27.2083 54.2859 26.3791 53.914 25.8303 53.6671L25.1901 53.3896L24.9706 53.3012C24.9706 53.3012 25.0408 53.3378 25.184 53.4018L25.8212 53.6854C26.3791 53.9384 27.2052 54.3164 28.2601 54.8255C29.3149 55.3346 30.6105 55.9748 32.0891 56.7705C33.7792 57.6637 35.4178 58.6509 36.9973 59.7277C37.9233 60.3536 38.7861 61.0683 39.5733 61.8617C39.994 62.2806 40.3386 62.7696 40.5916 63.3067C40.8125 63.8839 40.957 64.4876 41.0214 65.1023C41.0925 65.7398 41.0874 66.3835 41.0062 67.0199C40.9157 67.6789 40.7532 68.326 40.5215 68.9496C40.2845 69.5947 39.9939 70.2188 39.6526 70.8154C39.4819 71.1202 39.299 71.4251 39.1039 71.7299C39.0112 71.8803 38.9094 72.0249 38.799 72.1628C38.6893 72.3031 38.5917 72.4494 38.4667 72.5835C37.5339 73.6749 36.4882 74.7175 35.4181 75.7998C34.3481 76.882 33.2292 77.949 32.0799 79.0465C29.7833 81.2395 27.3729 83.4914 24.8487 85.8022H24.9219L17.8888 80.7751V80.8635L20.5319 78.1198L29.9429 68.3978L29.9947 68.346L29.9337 68.3064C28.2936 67.2902 26.6819 66.3095 25.0987 65.3645C24.6993 65.1297 24.306 64.895 23.9067 64.6694L23.6018 64.5048C23.55 64.4773 23.5012 64.4499 23.4463 64.4255L23.4006 64.4072H23.3427H23.2604L22.5836 64.3676L19.9191 64.1877C18.1692 64.0597 16.4651 63.9408 14.8219 63.7792C14.4169 63.7652 14.0201 63.6611 13.6604 63.4744C13.3162 63.2816 13.007 63.0322 12.7458 62.7366C12.2305 62.153 11.8182 61.486 11.5264 60.7642L9.78259 52.7647L9.7521 52.8135L22.7939 49.7832H22.7696L24.4066 52.4232L24.8273 53.097C24.934 53.2433 24.9859 53.3165 24.9859 53.3165Z" fill="#455A64"/>
<path d="M23.7053 14.8373C24.0246 14.9 24.3559 14.8425 24.6354 14.6758C24.9149 14.5092 25.1231 14.2452 25.2198 13.9345C25.3166 13.6238 25.2952 13.2883 25.1597 12.9924C25.0242 12.6965 24.7842 12.4611 24.4857 12.3314C24.7043 12.1433 24.858 11.8913 24.9251 11.6109C24.9922 11.3305 24.9693 11.0362 24.8597 10.7696C24.75 10.503 24.5591 10.2777 24.3141 10.1257C24.0692 9.97375 23.7825 9.90282 23.495 9.92299C23.508 9.63924 23.4473 9.35695 23.3187 9.10367C23.1901 8.85039 22.9981 8.63477 22.7613 8.47785C22.5245 8.32092 22.2511 8.22805 21.9678 8.20831C21.6844 8.18856 21.4007 8.2426 21.1445 8.36516C20.8481 8.07889 20.4646 7.89973 20.0549 7.85611C19.6451 7.81248 19.2325 7.90687 18.8824 8.12432C18.6112 8.04789 18.3225 8.06092 18.0592 8.16148C17.7959 8.26204 17.572 8.44479 17.4208 8.68261C17.2695 8.92043 17.199 9.20067 17.2195 9.48176C17.2401 9.76284 17.3507 10.0298 17.535 10.2431" fill="#263238"/>
<path d="M18.4863 9.39556L18.7759 9.41994C20.1769 9.544 21.4798 10.1909 22.4254 11.232C23.371 12.2731 23.8901 13.6321 23.8792 15.0385C23.8579 17.7517 23.8 20.7485 23.6567 22.1935C23.3518 25.1811 20.3215 25.3823 20.3215 25.3823L20.2545 28.9979L13.0141 28.1322L13.5232 15.0385C13.5293 11.9076 15.3584 9.30105 18.4863 9.39556Z" fill="#AE7461"/>
<path d="M20.3247 25.3824C18.9407 25.2563 17.6215 24.7369 16.5231 23.8855C16.5231 23.8855 17.2944 26.175 20.3034 26.1689L20.3247 25.3824Z" fill="#6F4439"/>
<path d="M22.7999 17.8128C22.7913 17.9247 22.7393 18.0287 22.655 18.1028C22.5706 18.1768 22.4607 18.215 22.3487 18.2091C22.2941 18.2083 22.2402 18.1967 22.1902 18.1749C22.1402 18.1531 22.095 18.1215 22.0572 18.0821C22.0195 18.0427 21.99 17.9961 21.9704 17.9452C21.9508 17.8942 21.9416 17.8399 21.9432 17.7853C21.9518 17.6735 22.0038 17.5694 22.0881 17.4953C22.1724 17.4213 22.2824 17.3831 22.3944 17.389C22.449 17.3898 22.5029 17.4014 22.5529 17.4232C22.6029 17.445 22.6481 17.4766 22.6859 17.516C22.7236 17.5555 22.7531 17.602 22.7727 17.6529C22.7922 17.7039 22.8015 17.7582 22.7999 17.8128Z" fill="#263238"/>
<path d="M23.108 16.4623C23.0501 16.5111 22.7483 16.2428 22.2879 16.2063C21.8276 16.1697 21.4709 16.3648 21.4252 16.3038C21.3794 16.2428 21.4648 16.1819 21.6203 16.0874C21.8323 15.9676 22.0759 15.9155 22.3184 15.938C22.5574 15.959 22.7836 16.055 22.9647 16.2123C23.0958 16.319 23.1354 16.4227 23.108 16.4623Z" fill="#263238"/>
<path d="M18.657 17.575C18.6477 17.6866 18.5955 17.7902 18.5113 17.8641C18.4272 17.938 18.3177 17.9764 18.2059 17.9713C18.1513 17.9705 18.0974 17.9589 18.0474 17.9371C17.9973 17.9153 17.9521 17.8837 17.9144 17.8443C17.8767 17.8049 17.8472 17.7583 17.8276 17.7074C17.808 17.6564 17.7988 17.6021 17.8004 17.5475C17.8082 17.4359 17.8596 17.3318 17.9434 17.2577C18.0272 17.1836 18.1368 17.1454 18.2485 17.1512C18.3034 17.1516 18.3576 17.1629 18.408 17.1846C18.4584 17.2062 18.5039 17.2377 18.542 17.2771C18.58 17.3166 18.6098 17.3633 18.6296 17.4144C18.6493 17.4656 18.6587 17.5202 18.657 17.575Z" fill="#263238"/>
<path d="M18.5809 16.1329C18.523 16.1847 18.2181 15.9164 17.7608 15.8768C17.3035 15.8372 16.9438 16.0353 16.8981 15.9744C16.8523 15.9134 16.9377 15.8524 17.0932 15.7579C17.3058 15.6396 17.5489 15.5876 17.7913 15.6085C18.0303 15.6295 18.2565 15.7256 18.4376 15.8829C18.5687 16.0049 18.6083 16.1085 18.5809 16.1329Z" fill="#263238"/>
<path d="M19.9467 19.6907C20.1956 19.6345 20.4508 19.6109 20.7058 19.6206C20.8247 19.6206 20.9374 19.6054 20.9649 19.5261C20.9843 19.406 20.9673 19.2829 20.9161 19.1725L20.6478 18.2579C20.279 16.9409 20.0381 15.8648 20.0747 15.8495C20.1113 15.8343 20.471 16.8891 20.8399 18.2061C20.9283 18.5292 21.0137 18.8371 21.0929 19.1207C21.1554 19.2686 21.163 19.434 21.1143 19.5871C21.0933 19.6266 21.0638 19.6611 21.028 19.688C20.9921 19.7148 20.9508 19.7335 20.907 19.7426C20.8402 19.7512 20.7725 19.7512 20.7058 19.7426C20.4516 19.756 20.1967 19.7386 19.9467 19.6907Z" fill="#263238"/>
<path d="M19.1357 14.3983C19.0656 14.5111 18.6814 14.3495 18.1967 14.2885C17.712 14.2275 17.2974 14.2885 17.2639 14.1513C17.2639 14.0904 17.3462 13.9928 17.5291 13.9166C17.7639 13.8222 18.0195 13.7917 18.2699 13.8282C18.5184 13.8572 18.7544 13.9531 18.9528 14.1056C19.1052 14.2276 19.1662 14.3464 19.1357 14.3983Z" fill="#263238"/>
<path d="M23.297 14.5507C23.1903 14.6482 22.8214 14.5049 22.3641 14.4592C21.9068 14.4135 21.5166 14.4592 21.4495 14.3403C21.416 14.2824 21.4861 14.1818 21.6629 14.0995C21.9069 13.9955 22.1745 13.9597 22.4373 13.9958C22.699 14.0221 22.9492 14.1167 23.1628 14.2702C23.3 14.3921 23.3458 14.5049 23.297 14.5507Z" fill="#263238"/>
<path d="M23.7146 13.6422C23.7146 13.6422 23.1049 11.6972 22.2238 11.182C21.1782 10.554 20.602 11.7125 19.5838 11.3314C18.5655 10.9503 17.5687 10.3467 16.4315 11.057C15.1877 11.8375 15.6785 12.5051 15.4895 13.8252C14.7213 19.1815 13.6055 20.6174 13.5476 18.0566C13.5476 17.7761 12.7915 17.4865 12.7824 16.3036C12.7671 14.7794 12.8738 12.9167 13.3067 11.8649C13.6756 10.9808 14.2487 10.3985 15.2395 9.78578C16.8065 8.82243 18.8277 8.97791 20.1843 9.23704C21.541 9.49616 24.0469 11.307 23.7146 13.6422Z" fill="#263238"/>
<path d="M13.7458 17.9864C13.7525 17.8761 13.7365 17.7657 13.699 17.6618C13.6614 17.5579 13.603 17.4628 13.5273 17.3823C13.4517 17.3018 13.3604 17.2376 13.259 17.1937C13.1577 17.1497 13.0484 17.1269 12.938 17.1267C12.377 17.1267 11.7185 17.3919 11.6637 18.5474C11.5478 20.599 13.63 20.2911 13.6361 20.2332C13.6422 20.1753 13.7062 18.8522 13.7458 17.9864Z" fill="#AE7461"/>
<path d="M13.2335 19.4437C13.2335 19.4437 13.1969 19.465 13.1359 19.4894C13.0499 19.5243 12.9537 19.5243 12.8677 19.4894C12.7397 19.3979 12.6384 19.274 12.5741 19.1305C12.5098 18.9869 12.4849 18.8288 12.5018 18.6724C12.5069 18.496 12.5517 18.323 12.6329 18.1664C12.656 18.1036 12.6938 18.0474 12.7431 18.0023C12.7924 17.9572 12.8519 17.9246 12.9164 17.9072C12.9579 17.8991 13.0009 17.9056 13.0382 17.9256C13.0754 17.9456 13.1046 17.9779 13.1207 18.017C13.1451 18.0779 13.1207 18.1176 13.142 18.1206C13.1634 18.1237 13.1877 18.0901 13.1756 18.0048C13.1673 17.953 13.1414 17.9056 13.1024 17.8706C13.0478 17.8254 12.9781 17.8025 12.9073 17.8066C12.8216 17.8197 12.7407 17.8547 12.6723 17.9081C12.604 17.9614 12.5505 18.0315 12.5171 18.1115C12.4182 18.2834 12.3638 18.4772 12.3585 18.6755C12.3364 18.8577 12.3696 19.0424 12.4539 19.2055C12.5382 19.3687 12.6696 19.5026 12.8311 19.59C12.8851 19.6093 12.9429 19.6161 12.9999 19.6097C13.057 19.6034 13.1118 19.5842 13.1603 19.5535C13.2274 19.4925 13.2396 19.4468 13.2335 19.4437Z" fill="#6F4439"/>
<path d="M14.136 14.0234C14.3692 14.2491 14.6554 14.4126 14.9682 14.499C15.125 14.5376 15.2904 14.5181 15.4339 14.4441C15.5774 14.3701 15.6892 14.2466 15.7486 14.0965C15.7883 13.9563 15.7669 13.7917 15.8706 13.685C15.9742 13.5783 16.1968 13.624 16.3645 13.6575C16.9559 13.7734 17.7089 13.1789 17.9101 12.6119C17.9786 12.7292 18.0891 12.8162 18.2192 12.8552C18.3494 12.8942 18.4895 12.8825 18.6113 12.8222C18.809 12.722 18.9883 12.589 19.1417 12.429C19.2302 12.3223 19.3434 12.2388 19.4714 12.1857C19.5994 12.1326 19.7384 12.1115 19.8764 12.1241C20.0164 12.1853 20.1626 12.2313 20.3124 12.2613C20.5837 12.2613 20.7422 11.9564 20.8062 11.6943C20.8703 11.4321 20.9282 11.1242 21.169 10.9992C21.4118 10.9281 21.6717 10.9443 21.9037 11.0449C22.1476 11.1028 22.4708 11.0723 22.5561 10.8346C22.5874 10.7058 22.5665 10.57 22.4982 10.4565C22.3534 10.1938 22.124 9.98757 21.8474 9.87138C21.5707 9.75519 21.263 9.73579 20.9739 9.81633C20.9036 9.46674 20.7311 9.14589 20.4784 8.89438C20.2256 8.64287 19.9039 8.47203 19.5539 8.40348C19.204 8.33493 18.8416 8.37176 18.5126 8.5093C18.1836 8.64684 17.9029 8.87891 17.7058 9.17613C17.506 8.95972 17.2568 8.79479 16.9795 8.69537C16.7022 8.59595 16.405 8.56498 16.1131 8.60509C15.8213 8.6452 15.5434 8.75521 15.3032 8.92575C15.063 9.0963 14.8676 9.32233 14.7335 9.58463C14.4888 9.49685 14.2237 9.48293 13.9711 9.54459C13.7186 9.60626 13.4897 9.74079 13.313 9.93147C13.1363 10.1221 13.0195 10.3605 12.9772 10.617C12.9349 10.8735 12.9689 11.1368 13.075 11.3742C12.8761 11.4513 12.7002 11.5781 12.5641 11.7424C12.428 11.9068 12.3363 12.1033 12.2977 12.3131C12.2519 12.7338 12.6269 13.1942 13.0446 13.1179C12.9471 13.2774 12.9142 13.468 12.9523 13.651C12.9905 13.8339 13.0969 13.9955 13.25 14.1027C13.4031 14.2099 13.5913 14.2548 13.7762 14.2282C13.9612 14.2015 14.1291 14.1054 14.2457 13.9593" fill="#263238"/>
<path d="M21.0776 10.4563C21.0789 10.4685 21.0789 10.4807 21.0776 10.4929C21.073 10.5299 21.0659 10.5666 21.0563 10.6026C21.0152 10.7383 20.9535 10.8668 20.8734 10.9837C20.7439 11.1672 20.5738 11.3185 20.3765 11.4257C20.116 11.5743 19.8136 11.6322 19.5168 11.5904L19.5564 11.5507C19.579 11.6456 19.5825 11.7441 19.5668 11.8404C19.5511 11.9367 19.5165 12.0289 19.4649 12.1117C19.3571 12.2863 19.2246 12.4444 19.0717 12.5812C18.996 12.6618 18.9123 12.7343 18.8217 12.7976C18.7185 12.8537 18.6037 12.885 18.4863 12.8891C18.3632 12.895 18.2405 12.8703 18.1293 12.8171C18.018 12.7639 17.9218 12.6838 17.8492 12.5842L17.9254 12.569C17.8796 12.7797 17.7897 12.9784 17.6614 13.1518C17.5332 13.3252 17.3696 13.4695 17.1815 13.575C16.9736 13.7002 16.7314 13.7568 16.4895 13.7366C16.2643 13.7047 16.0458 13.6357 15.8432 13.5323L15.8981 13.511C15.7718 13.7502 15.586 13.9529 15.3585 14.0994C15.2548 14.1747 15.1354 14.2256 15.0092 14.2483C14.883 14.271 14.7534 14.2649 14.6299 14.2304C14.4189 14.1659 14.2315 14.0407 14.0912 13.8705C13.9508 13.7003 13.8635 13.4926 13.8403 13.2732L13.883 13.2976C13.6583 13.3937 13.4072 13.4087 13.1727 13.3403C12.9966 13.2914 12.8347 13.2016 12.7001 13.0781C12.6155 13.0007 12.5453 12.9088 12.4928 12.8068C12.4768 12.7709 12.4625 12.7343 12.4501 12.697C12.5195 12.8313 12.6125 12.9522 12.7245 13.0537C12.8578 13.1671 13.0153 13.2484 13.1848 13.2915C13.4085 13.3519 13.646 13.3347 13.8586 13.2427L13.8982 13.2244V13.2671C13.9236 13.4722 14.008 13.6654 14.1411 13.8235C14.2742 13.9815 14.4504 14.0974 14.6482 14.1573C14.761 14.1872 14.879 14.1912 14.9936 14.169C15.1082 14.1468 15.2162 14.099 15.3097 14.0292C15.5235 13.8889 15.6986 13.6971 15.8188 13.4713L15.8371 13.4348L15.8767 13.4531C16.0681 13.5507 16.274 13.6166 16.4865 13.6482C16.7107 13.6674 16.9352 13.6139 17.1267 13.4957C17.3032 13.3956 17.4569 13.2599 17.5781 13.0972C17.6994 12.9345 17.7854 12.7484 17.8309 12.5507L17.8522 12.4562L17.9071 12.5354C17.9727 12.6215 18.0585 12.6901 18.1568 12.7352C18.2551 12.7804 18.3631 12.8008 18.4711 12.7946C18.5779 12.7953 18.683 12.768 18.776 12.7153C18.8626 12.6587 18.9415 12.591 19.0107 12.5141C19.1617 12.3841 19.2923 12.2319 19.3979 12.0629C19.4451 11.9885 19.4773 11.9055 19.4924 11.8187C19.5076 11.7318 19.5055 11.6429 19.4863 11.5568V11.5081H19.5381C19.8197 11.5491 20.1071 11.4989 20.3582 11.3648C20.5514 11.2621 20.7199 11.1185 20.852 10.9441C20.9538 10.7951 21.03 10.6303 21.0776 10.4563Z" fill="#455A64"/>
<path d="M19.907 21.1632C19.907 21.0839 19.3918 21.1449 18.9741 20.7516C18.5565 20.3584 18.5473 19.8035 18.4772 19.8096C18.4071 19.8157 18.3918 19.9407 18.4132 20.1724C18.4443 20.4741 18.5815 20.755 18.8004 20.965C19.0113 21.1618 19.2893 21.2708 19.5777 21.2699C19.7942 21.2699 19.9161 21.1967 19.907 21.1632Z" fill="#263238"/>
<path d="M49.5391 82.0769L50.4842 88.6405C50.4842 88.6405 57.8404 89.7776 58.1392 90.9696L44.7803 93.4634L42.8658 83.3055L49.5391 82.0769Z" fill="#263238"/>
<path d="M46.2557 88.8629C46.1362 88.9194 46.0421 89.0187 45.9919 89.141C45.9417 89.2634 45.939 89.4002 45.9844 89.5244C46.047 89.6424 46.1514 89.7328 46.2772 89.7779C46.4029 89.823 46.5409 89.8196 46.6642 89.7683C46.7909 89.7084 46.8904 89.603 46.943 89.4731C46.9955 89.3432 46.9972 89.1982 46.9478 89.0671C46.8687 88.9504 46.7491 88.8674 46.6121 88.8341C46.4751 88.8009 46.3307 88.8198 46.207 88.8873" fill="#E0E0E0"/>
<path d="M44.7803 93.4634L44.6309 92.433L57.4929 90.427C57.4929 90.427 58.1331 90.5611 58.1392 90.9696L44.7803 93.4634Z" fill="#455A64"/>
<path d="M50.6914 88.537C50.6914 88.5979 50.3865 88.6863 50.0817 88.9455C49.7768 89.2046 49.6732 89.4942 49.6091 89.482C49.5451 89.4698 49.5756 89.0948 49.914 88.7869C50.2524 88.479 50.6944 88.476 50.6914 88.537Z" fill="white"/>
<path d="M52.1914 88.8234C52.2188 88.8782 51.9536 89.0368 51.7798 89.3416C51.6061 89.6465 51.5939 89.93 51.5268 89.9513C51.4597 89.9727 51.3561 89.6221 51.5817 89.2471C51.8073 88.8721 52.1914 88.7654 52.1914 88.8234Z" fill="white"/>
<path d="M53.2767 90.2623C53.2218 90.2867 53.0725 89.994 53.1792 89.6251C53.2859 89.2563 53.5663 89.0642 53.6029 89.1099C53.6395 89.1557 53.484 89.3721 53.4017 89.677C53.3194 89.9818 53.3407 90.2379 53.2767 90.2623Z" fill="white"/>
<path d="M50.3014 87.0674C50.2831 87.1283 49.9691 87.0979 49.6032 87.1924C49.2374 87.2869 48.9722 87.4484 48.9295 87.3997C48.8868 87.3509 49.1216 87.0948 49.5392 86.979C49.9569 86.8631 50.3227 87.0125 50.3014 87.0674Z" fill="white"/>
<path d="M20.5837 29.4644L20.3093 28.2236L13.014 24.5989L12.3769 25.608C12.3769 25.608 9.64838 27.8304 8.60272 29.7571C7.55705 31.6838 8.79478 47.4755 8.9716 49.7802C9.32219 54.4232 11.0568 60.502 11.0568 60.502C11.0568 60.502 13.3981 58.8711 20.2849 56.045C27.1716 53.219 27.5405 51.9355 27.5405 51.9355L23.4829 46.7895L20.5837 29.4644Z" fill="#2952CE"/>
<path d="M20.4862 29.9004C20.5258 30.129 23.8396 38.0462 23.8396 38.0462C23.8396 38.0462 22.1263 39.0035 21.8855 39.0492C21.6446 39.0949 20.4862 29.9004 20.4862 29.9004Z" fill="#2952CE"/>
<path d="M20.791 31.199C20.7574 31.199 21.0501 33.2141 21.4434 35.6926C21.8366 38.1711 22.1811 40.171 22.2147 40.1679C22.2482 40.1649 21.9555 38.1498 21.5623 35.6713C21.169 33.1928 20.8367 31.1929 20.791 31.199Z" fill="#263238"/>
<path d="M43.9602 47.0393C43.9602 47.0393 41.9939 44.1401 40.8232 43.631C39.971 43.286 39.0881 43.0227 38.1862 42.8445L33.2444 43.506L33.3328 46.4571C33.577 46.6559 33.8606 46.8006 34.1649 46.8815C34.4693 46.9624 34.7873 46.9778 35.098 46.9265C36.0827 46.7192 38.5246 45.9327 38.5246 45.9327L39.7593 45.9144L40.9787 47.2863C40.9787 47.2863 41.9146 47.4997 41.5305 46.6552C41.1464 45.8108 40.9756 45.4358 40.9756 45.4358C40.9756 45.4358 42.1951 47.0485 42.6036 47.0973C43.0566 47.1139 43.5102 47.0946 43.9602 47.0393Z" fill="#AE7461"/>
<path d="M18.1265 35.4243L21.5531 43.3872L33.281 43.5L33.3694 46.451C33.3694 46.451 22.0591 50.4386 19.041 49.6643C16.0229 48.8899 11.0355 38.2412 11.0355 38.2412L18.1265 35.4243Z" fill="#AE7461"/>
<path d="M15.3524 28.7083C15.6572 28.9979 16.7334 30.2326 17.8644 32.9489C18.9954 35.6652 20.5837 38.8204 20.5837 38.8204L12.4958 42.0428C12.4958 42.0428 10.6667 37.8022 9.79785 35.9151C9.14545 34.4793 8.69121 31.6471 9.28264 30.2844C9.87406 28.9217 12.5385 26.1536 15.3524 28.7083Z" fill="#2952CE"/>
<path d="M15.3524 28.7083C15.3294 28.6835 15.305 28.6601 15.2793 28.6382C15.2275 28.5924 15.1543 28.5223 15.0506 28.44C14.7487 28.1965 14.4128 27.9983 14.0537 27.8516C13.4772 27.6218 12.8439 27.575 12.2398 27.7175C11.4458 27.9259 10.727 28.355 10.1668 28.9552C9.83314 29.2937 9.54886 29.6775 9.32235 30.0954C9.10394 30.565 8.9846 31.0745 8.97176 31.5922C8.93295 32.7253 9.07496 33.8573 9.39246 34.9457C9.57297 35.5303 9.79612 36.1009 10.0601 36.6529C10.304 37.2159 10.5601 37.8022 10.8284 38.4119C11.3486 39.5968 11.8862 40.8162 12.441 42.0702L12.4654 42.122L12.5203 42.1007L12.6362 42.055L20.6021 38.8692L20.657 38.8479L20.6326 38.796C19.8765 37.2717 19.2059 35.8724 18.6358 34.6073C18.0657 33.3421 17.6206 32.2081 17.145 31.3179C16.7918 30.6205 16.3797 29.9545 15.9134 29.3271C15.7888 29.1626 15.6555 29.0049 15.514 28.8546C15.4638 28.8031 15.4109 28.7543 15.3555 28.7083L15.3921 28.7479L15.4988 28.8668C15.5933 28.9705 15.7244 29.132 15.886 29.3485C16.3467 29.9804 16.7546 30.6493 17.1054 31.3483C17.5718 32.2355 17.9986 33.3757 18.5718 34.6439C19.1449 35.9121 19.7912 37.3266 20.5533 38.8448L20.5808 38.7686L12.6118 41.9391L12.4929 41.9879L12.5691 42.0184C12.0173 40.7624 11.4747 39.5338 10.9533 38.3601C10.6912 37.7646 10.4341 37.1833 10.1821 36.6163C9.91891 36.0692 9.69577 35.5037 9.51441 34.9243C9.19869 33.848 9.05465 32.7287 9.0876 31.6075C9.09691 31.1027 9.21111 30.6054 9.42295 30.1472C9.64375 29.7358 9.92079 29.3572 10.2461 29.0223C10.7934 28.4329 11.4962 28.0102 12.2734 27.8028C12.8656 27.6596 13.4873 27.6989 14.0568 27.9156C14.4129 28.058 14.7482 28.2477 15.0537 28.4796C15.1604 28.5589 15.2366 28.626 15.2884 28.6686L15.3524 28.7083Z" fill="#263238"/>
<path d="M38.7776 44.3354C39.2087 44.3641 39.6316 44.4672 40.0275 44.6402C40.4062 44.8518 40.7438 45.1296 41.0244 45.4603C40.9843 45.3335 40.9155 45.2177 40.8232 45.1219C40.6185 44.8779 40.3665 44.6777 40.0824 44.5335C39.7978 44.3891 39.4864 44.3051 39.1678 44.2866C39.0358 44.2744 38.9026 44.291 38.7776 44.3354Z" fill="#6F4439"/>
<path d="M19.7331 39.1588C19.7383 39.1874 19.7475 39.2151 19.7605 39.2411L19.8489 39.4728C19.9373 39.6862 20.0593 39.9789 20.2087 40.3447C20.5288 41.1007 20.9739 42.1739 21.5043 43.4085V43.439H21.5409L25.1016 43.4786L30.8787 43.5183H32.6286H33.1042C33.1588 43.5257 33.2142 43.5257 33.2688 43.5183H33.1042H32.6286L30.8787 43.4817L25.1047 43.4085L21.5409 43.378L21.5897 43.4116L20.2544 40.363L19.8703 39.5063C19.8245 39.4149 19.791 39.3387 19.7636 39.2777C19.7361 39.2167 19.7361 39.1558 19.7331 39.1588Z" fill="#6F4439"/>
</svg>
