<svg width="104" height="87" viewBox="0 0 104 87" fill="none" xmlns="http://www.w3.org/2000/svg">
<path d="M96.41 15.5669C102.635 29.6609 99.7861 44.9173 91.1246 57.6684C82.463 70.4194 68.0484 78.6803 52.8934 81.6791C42.075 83.826 30.4315 83.3875 20.5528 78.5113C10.6742 73.6352 2.89502 63.819 2.29909 52.8425C2.06988 48.6972 2.95919 44.2961 5.73714 41.1946C10.1699 36.2499 17.7382 36.0764 24.3874 36.2819C31.0366 36.4875 38.598 36.3299 43.0537 31.408C46.478 27.6236 46.9823 22.1377 48.7838 17.3712C51.8506 9.27243 59.2492 2.94601 67.7596 1.15543C76.0705 -0.594041 85.179 2.04159 91.2735 7.92493C91.5348 8.17616 91.8076 8.41597 92.0826 8.65349C92.8023 9.28385 95.225 12.8879 96.41 15.5669Z" fill="#FFE7EC"/>
<path d="M31.3407 11.3192H31.3271C30.9199 11.3192 30.5899 11.3443 30.5899 11.3771C30.8055 11.4308 31.0283 11.4504 31.2499 11.435C31.2133 11.4736 31.1592 11.5296 31.0917 11.6048L30.5127 12.261L28.5828 14.4766L27.7703 13.9266C27.6255 13.832 27.4827 13.7336 27.3495 13.6467L27.3052 13.6197L27.2723 13.6583C26.4135 14.6619 25.6531 15.5593 25.1108 16.2077L24.4759 16.9797C24.3941 17.0695 24.3204 17.1663 24.2559 17.2692C24.346 17.1903 24.4305 17.1052 24.5087 17.0145L25.1706 16.2695C25.7207 15.6423 26.4791 14.768 27.3264 13.7818L27.7124 14.0346L28.5673 14.602L28.6098 14.631L28.6426 14.5924L30.5725 12.3131L31.1303 11.6357C31.2036 11.5469 31.2538 11.4813 31.2847 11.4427H31.2943C31.278 11.6662 31.2968 11.8909 31.3503 12.1086C31.3831 12.1086 31.4082 11.7863 31.4101 11.3848V11.3269L31.3407 11.3192Z" fill="#E0E0E0"/>
<path d="M61.8072 16.3775H67.6897C67.6898 17.5352 67.3482 18.6673 66.7078 19.6318C66.0673 20.5964 65.1565 21.3504 64.0894 21.7996C63.0223 22.2488 61.8463 22.3731 60.7089 22.1569C59.5715 21.9407 58.5232 21.3937 57.6952 20.5844C56.8673 19.775 56.2966 18.7394 56.0547 17.6072C55.8127 16.4749 55.9103 15.2965 56.3351 14.2195C56.7599 13.1424 57.4931 12.2147 58.4428 11.5525C59.3926 10.8904 60.5166 10.5232 61.6741 10.4969L61.8072 16.3775Z" fill="#F0F0F0"/>
<path d="M63.393 14.9436L63.2617 9.06116C64.8331 9.06051 66.3462 9.65569 67.496 10.7267C68.5966 11.8226 69.2331 13.3002 69.2735 14.8529L63.393 14.9436Z" fill="#EBEBEB"/>
<path d="M85.7058 86.3184C85.7058 86.3454 67.6879 86.3685 45.4666 86.3685C23.2454 86.3685 5.22363 86.3454 5.22363 86.3184C5.22363 86.2913 23.2376 86.2682 45.4666 86.2682C67.6956 86.2682 85.7058 86.2991 85.7058 86.3184Z" fill="#263238"/>
<path d="M70.335 35.7289C70.3822 35.7228 70.4289 35.7135 70.4748 35.7009C70.54 35.6782 70.5993 35.6414 70.6484 35.593C70.6976 35.5446 70.7355 35.486 70.7592 35.4212C70.7875 35.3221 70.7962 35.2183 70.7848 35.1159C70.7848 35.0017 70.7848 34.8828 70.7848 34.7406C70.7848 34.4679 70.7848 34.1556 70.7848 33.8083C70.7848 32.3935 70.7732 30.3517 70.7639 27.8344C70.7639 26.5711 70.7639 25.1913 70.7639 23.7089C70.7639 22.9654 70.7639 22.1985 70.7639 21.4084C70.7639 21.0145 70.7639 20.6136 70.7639 20.208C70.7639 20.0099 70.7639 19.7908 70.7639 19.6043C70.7487 19.5135 70.703 19.4306 70.6343 19.3691C70.5657 19.3077 70.4782 19.2715 70.3863 19.2664H59.5154C59.4098 19.2663 59.3084 19.3075 59.2327 19.381C59.1569 19.4546 59.1129 19.5548 59.1098 19.6603C59.1098 19.8934 59.1098 20.1265 59.1098 20.3735V24.5573C59.1098 26.373 59.1098 28.1234 59.1098 29.7923C59.1098 31.4612 59.1098 33.0554 59.1098 34.5262V35.0786C59.1027 35.1662 59.1027 35.2543 59.1098 35.342C59.1233 35.4212 59.1607 35.4944 59.217 35.5517C59.2725 35.6104 59.3437 35.6516 59.4222 35.6706C59.5055 35.683 59.5898 35.6869 59.6739 35.6823H62.1748L68.1487 35.7032L69.7803 35.7149H70.2021H70.3466C70.3466 35.7149 70.2977 35.7149 70.2021 35.7149H69.7803L68.1487 35.7265L62.1748 35.7452H60.196H59.6739C59.582 35.7507 59.4897 35.746 59.3988 35.7312C59.3023 35.7095 59.2146 35.6591 59.1471 35.5867C59.0771 35.5151 59.03 35.4242 59.0119 35.3256C59.0051 35.2325 59.0051 35.139 59.0119 35.0459V34.4935C59.0119 33.0111 59.0119 31.4262 59.0119 29.7597C59.0119 28.0931 59.0119 26.3404 59.0119 24.5247C59.0119 23.6188 59.0119 22.6958 59.0119 21.7557V20.3409C59.0119 20.1078 59.0119 19.8747 59.0119 19.623C59.0162 19.4861 59.0735 19.3563 59.1719 19.261C59.2702 19.1657 59.4018 19.1125 59.5387 19.1125H70.3933C70.5099 19.1199 70.6206 19.1665 70.7074 19.2448C70.7941 19.3231 70.8518 19.4285 70.8711 19.5437C70.8874 19.7768 70.8711 19.9586 70.8711 20.1661V21.3664C70.8711 22.1566 70.8711 22.9234 70.8711 23.6669C70.8711 25.1493 70.8711 26.5292 70.8711 27.7925C70.8711 30.3097 70.8571 32.3515 70.8524 33.7663C70.8524 34.1183 70.8524 34.4306 70.8524 34.6987C70.8524 34.8338 70.8524 34.9597 70.8524 35.0739C70.8615 35.1792 70.8504 35.2851 70.8198 35.3862C70.7945 35.4541 70.7537 35.5151 70.7007 35.5645C70.6477 35.6138 70.584 35.6502 70.5145 35.6706C70.4611 35.7061 70.399 35.7263 70.335 35.7289Z" fill="#263238"/>
<path d="M65.6937 22.4667C64.1087 22.1147 62.3676 22.9748 61.9224 24.6087C61.4936 26.1773 62.5308 28.0093 64.1041 28.4359C64.88 28.6218 65.6973 28.517 66.4012 28.1412C67.1051 27.7654 67.647 27.1447 67.9242 26.3964C68.4883 24.7206 67.4138 22.9142 65.7916 22.3804C65.6051 22.3175 65.5305 22.6135 65.7123 22.6741C67.0945 23.1799 68.0874 24.6716 67.6725 26.1703C67.2809 27.5921 65.6144 28.5431 64.1926 28.1655C62.8244 27.8019 61.9411 26.3335 62.1159 24.9653C62.328 23.2894 64.1017 22.2872 65.6797 22.5599C65.738 22.5599 65.7636 22.483 65.7053 22.4713L65.6937 22.4667Z" fill="#263238"/>
<path d="M64.1149 28.3867C64.9185 28.6239 65.783 28.5372 66.5235 28.1452C67.264 27.7532 67.8217 27.0869 68.0773 26.289C68.5714 24.5875 67.4689 22.7461 65.8117 22.2404C65.4295 22.1238 65.2919 22.6879 65.6486 22.8277C67.047 23.3778 67.9794 24.8998 67.4293 26.3938C66.9352 27.7224 65.4807 28.3634 64.1312 28.2119C64.024 28.1979 64.01 28.3657 64.1079 28.3937L64.1149 28.3867Z" fill="#EC6980"/>
<path d="M68.1523 31.1746C68.1523 31.2072 66.7119 31.2352 64.9311 31.2352C63.1504 31.2352 61.71 31.2072 61.71 31.1746C61.71 31.142 63.1527 31.114 64.9311 31.114C66.7095 31.114 68.1523 31.142 68.1523 31.1746Z" fill="#EC6980"/>
<path d="M68.1523 32.1513C68.1523 32.1863 66.7119 32.2119 64.9311 32.2119C63.1504 32.2119 61.71 32.1863 61.71 32.1513C61.71 32.1163 63.1527 32.0907 64.9311 32.0907C66.7095 32.0907 68.1523 32.1187 68.1523 32.1513Z" fill="#EC6980"/>
<path d="M24.2451 9.06221V30.6128C24.2457 30.8426 24.3373 31.0628 24.4998 31.2253C24.6622 31.3877 24.8824 31.4793 25.1122 31.4799H53.8184C54.0482 31.4793 54.2683 31.3877 54.4308 31.2253C54.5933 31.0628 54.6848 30.8426 54.6855 30.6128V8.31635C54.6855 8.2005 54.6623 8.08581 54.6173 7.97907C54.5723 7.87232 54.5063 7.77568 54.4233 7.69485C54.3403 7.61403 54.242 7.55065 54.1341 7.50848C54.0262 7.4663 53.9109 7.44617 53.7951 7.44929L25.0889 8.19515C24.8632 8.20181 24.6489 8.29601 24.4914 8.45784C24.334 8.61966 24.2456 8.83641 24.2451 9.06221Z" fill="#E0E0E0"/>
<path d="M52.1245 12.8334C52.1245 12.8567 51.7586 12.6493 51.064 12.4302C50.0792 12.1231 49.0376 12.0434 48.0176 12.1971C47.3207 12.3074 46.6456 12.5277 46.0178 12.8497C45.3009 13.2351 44.6372 13.7123 44.0436 14.2692C43.3956 14.8426 42.7523 15.4905 42.0111 16.0895C41.2552 16.7342 40.371 17.2109 39.4169 17.488C38.9225 17.6157 38.4081 17.6465 37.9019 17.5789C37.4166 17.5057 36.9451 17.3595 36.5034 17.1454C35.6948 16.7234 34.9104 16.2566 34.154 15.7469C33.4762 15.2972 32.7288 14.9626 31.942 14.7563C31.2561 14.5899 30.5477 14.5356 29.8443 14.5955C28.8179 14.6809 27.8245 14.9998 26.9401 15.5278C26.3178 15.9101 26.0241 16.1944 26.0078 16.1758C26.0705 16.0996 26.1408 16.0301 26.2176 15.9683C26.4287 15.7787 26.6547 15.6064 26.8935 15.4532C27.6403 14.9711 28.4763 14.6438 29.3519 14.4909C30.2276 14.3379 31.125 14.3624 31.991 14.5629C32.7997 14.7648 33.5687 15.1012 34.2659 15.5581C35.0177 16.0577 35.7958 16.5167 36.5967 16.9333C37.4513 17.3687 38.4336 17.4836 39.3657 17.2573C40.2885 16.9855 41.1438 16.5225 41.8759 15.8984C42.6078 15.3134 43.2534 14.6677 43.9107 14.0944C44.5214 13.531 45.2031 13.0499 45.9385 12.6633C46.5865 12.3492 47.2805 12.1407 47.9943 12.0456C49.0354 11.9 50.0961 12.0031 51.0896 12.3463C51.3582 12.4377 51.6193 12.5499 51.8704 12.6819C51.9601 12.7235 52.0453 12.7743 52.1245 12.8334Z" fill="#455A64"/>
<path d="M33.835 17.8961H31.0264V25.4899H33.835V17.8961Z" fill="#455A64"/>
<path d="M45.7481 17.8961H42.9395V25.4899H45.7481V17.8961Z" fill="#455A64"/>
<path d="M49.7168 13.437H46.9082V25.4896H49.7168V13.437Z" fill="#455A64"/>
<path d="M30.2032 23.0985H27.3945V25.6531H30.2032V23.0985Z" fill="#455A64"/>
<path d="M37.8037 21.3247H34.9951V25.4899H37.8037V21.3247Z" fill="#455A64"/>
<path d="M41.7793 20.369H38.9707V25.4898H41.7793V20.369Z" fill="#455A64"/>
<path d="M33.9458 26.3847C33.9458 26.4476 33.2676 26.4966 32.4285 26.4966C31.5894 26.4966 30.9111 26.4476 30.9111 26.3847C30.9111 26.3218 31.5917 26.2728 32.4285 26.2728C33.2652 26.2728 33.9458 26.3218 33.9458 26.3847Z" fill="#263238"/>
<path d="M30.4517 26.3847C30.4517 26.4476 29.7711 26.4966 28.9343 26.4966C28.0976 26.4966 27.417 26.4476 27.417 26.3847C27.417 26.3218 28.0976 26.2728 28.9343 26.2728C29.7711 26.2728 30.4517 26.3218 30.4517 26.3847Z" fill="#263238"/>
<path d="M50.2747 26.3847C50.2747 26.4476 49.5055 26.4966 48.5592 26.4966C47.6129 26.4966 46.8438 26.4476 46.8438 26.3847C46.8438 26.3218 47.6106 26.2728 48.5592 26.2728C49.5079 26.2728 50.2747 26.3218 50.2747 26.3847Z" fill="#263238"/>
<path d="M44.3883 26.4966C45.3358 26.4966 46.1038 26.4465 46.1038 26.3847C46.1038 26.3229 45.3358 26.2728 44.3883 26.2728C43.4409 26.2728 42.6729 26.3229 42.6729 26.3847C42.6729 26.4465 43.4409 26.4966 44.3883 26.4966Z" fill="#263238"/>
<path d="M41.7755 26.3847C41.7755 26.4476 41.0973 26.4966 40.2582 26.4966C39.4191 26.4966 38.7432 26.4476 38.7432 26.3847C38.7432 26.3218 39.4214 26.2728 40.2582 26.2728C41.0949 26.2728 41.7755 26.3218 41.7755 26.3847Z" fill="#263238"/>
<path d="M37.6705 26.3847C37.6705 26.4476 36.9899 26.4966 36.1531 26.4966C35.3163 26.4966 34.6357 26.4476 34.6357 26.3847C34.6357 26.3218 35.314 26.2728 36.1531 26.2728C36.9922 26.2728 37.6705 26.3218 37.6705 26.3847Z" fill="#263238"/>
<path d="M46.8253 35.8501H46.8719C46.9199 35.8543 46.9666 35.8677 47.0094 35.8898C47.081 35.9264 47.1396 35.9842 47.1772 36.0553C47.2223 36.1561 47.2393 36.2672 47.2262 36.3769C47.2262 36.871 47.2262 37.5959 47.2379 38.5259C47.2495 39.4559 47.2378 40.6027 47.2495 41.9289C47.2495 42.5939 47.2495 43.3025 47.2495 44.0546V44.91C47.2629 45.0159 47.2434 45.1233 47.1936 45.2177C47.1383 45.3151 47.0471 45.387 46.9395 45.4181C46.8357 45.4368 46.7301 45.4431 46.6248 45.4367H46.0142L46.0561 45.3948C46.0561 46.0661 46.0561 46.7933 46.0561 47.5438V47.6673L45.9746 47.5741L44.0703 45.4274L44.1076 45.4437H24.4775H23.1047C23.0278 45.4437 22.9602 45.4437 22.8716 45.4437C22.7864 45.4332 22.7057 45.3993 22.6385 45.3458C22.5711 45.2899 22.5204 45.2165 22.4917 45.1337C22.4788 45.0914 22.4718 45.0475 22.4707 45.0032V40.0386C22.4707 38.8849 22.4707 37.7497 22.4707 36.6403V36.2207C22.4734 36.1427 22.4963 36.0666 22.5372 36.0001C22.578 35.9335 22.6354 35.8786 22.7038 35.8408C22.7763 35.8056 22.8563 35.7887 22.9369 35.7919H25.1605L36.4346 35.8059L44.033 35.8245L46.1004 35.8362H44.033L36.4346 35.8548L25.1605 35.8688H22.9392C22.8796 35.8645 22.82 35.8766 22.7667 35.9037C22.7143 35.9307 22.67 35.9709 22.638 36.0204C22.6061 36.0699 22.5878 36.127 22.5849 36.1858V40.0386C22.5849 41.1931 22.5849 42.3671 22.5849 43.5605V44.91C22.579 44.9796 22.5845 45.0496 22.6012 45.1174C22.6201 45.178 22.6566 45.2315 22.7061 45.2713C22.7561 45.3118 22.8169 45.337 22.8809 45.3435H24.4752H44.1052H44.1286L44.1425 45.3598L46.0421 47.5135L45.9606 47.5438C45.9606 46.791 45.9606 46.0661 45.9606 45.3948V45.3505H46.6225C46.7198 45.3576 46.8175 45.3536 46.9139 45.3389C47.0002 45.3133 47.0735 45.2558 47.119 45.178C47.1657 45.0968 47.1868 45.0034 47.1796 44.91C47.1796 44.8121 47.1796 44.7142 47.1796 44.6186V44.0453C47.1796 43.2924 47.1796 42.5838 47.1796 41.9196C47.1796 40.5933 47.1796 39.4512 47.1796 38.5166C47.1796 37.5819 47.1796 36.8617 47.1796 36.3676C47.1947 36.2618 47.181 36.1539 47.14 36.0553C47.1051 35.9867 47.0507 35.93 46.9838 35.8921C46.9337 35.8693 46.8801 35.8552 46.8253 35.8501Z" fill="#263238"/>
<path d="M23.7764 43.7142C23.9722 43.0312 24.2006 42.3343 24.6551 41.7889C25.1096 41.2435 25.8485 40.8776 26.536 41.0547C27.6245 41.3344 28.149 42.7842 29.2608 42.9194C29.8761 43.0033 30.4751 42.635 30.8713 42.1572C31.2676 41.6794 31.5123 41.099 31.8153 40.5583C32.2815 39.7448 32.8945 38.992 33.7312 38.5841C34.568 38.1762 35.6448 38.1738 36.3767 38.7496C37.6307 39.7378 37.4559 41.9195 38.7914 42.7912C39.1162 42.9954 39.4943 43.0985 39.8778 43.0873C40.2613 43.0761 40.6328 42.9511 40.9451 42.7282C41.5394 42.2877 41.8424 41.5279 42.4671 41.134C43.1897 40.6678 44.1919 40.8566 44.8469 41.4067C45.5018 41.9567 45.8421 42.8052 45.9656 43.6489" fill="#EC6980"/>
<path d="M45.5171 39.7939C45.4982 39.7899 45.4801 39.7828 45.4635 39.7729L45.3097 39.7007C45.1086 39.6152 44.9014 39.5451 44.6897 39.4909C43.9032 39.3221 43.0875 39.346 42.3123 39.5608C41.7775 39.7057 41.2571 39.8992 40.7576 40.1388C40.2145 40.3906 39.6528 40.6982 39.0538 41.0082C38.4293 41.346 37.7794 41.6343 37.1099 41.8706C36.386 42.1269 35.6177 42.2339 34.8514 42.1853C34.089 42.1132 33.3422 41.9245 32.6371 41.6259C31.9495 41.3509 31.3179 41.0269 30.7165 40.7239C29.5185 40.1085 28.3857 39.6167 27.3881 39.4676C26.5969 39.3233 25.782 39.3826 25.02 39.6401C24.7439 39.7439 24.4785 39.8742 24.2275 40.0293C24.2414 40.0149 24.2571 40.0024 24.2742 39.992L24.414 39.8918C24.5991 39.7732 24.7959 39.674 25.0014 39.5958C25.7694 39.317 26.5968 39.2431 27.4021 39.3813C28.4253 39.5235 29.5628 40.013 30.7655 40.6237C31.3691 40.9243 32.0008 41.246 32.6814 41.5164C33.3756 41.8089 34.1106 41.9937 34.8607 42.0641C35.6112 42.1121 36.3637 42.0074 37.0726 41.7564C37.7363 41.5252 38.3808 41.2423 39.0002 40.9103C39.6015 40.6003 40.1656 40.2973 40.7157 40.0479C41.222 39.8091 41.7495 39.6179 42.2913 39.4769C43.0795 39.2654 43.9081 39.255 44.7013 39.4466C44.9907 39.5162 45.2664 39.6336 45.5171 39.7939Z" fill="#263238"/>
<path d="M35.1142 38.3069C35.1165 38.3558 35.1042 38.4042 35.0787 38.4459C35.0533 38.4877 35.0159 38.5209 34.9715 38.5412C34.927 38.5615 34.8775 38.568 34.8293 38.56C34.781 38.5519 34.7364 38.5295 34.701 38.4958C34.6656 38.4621 34.6411 38.4185 34.6306 38.3708C34.6202 38.323 34.6243 38.2732 34.6425 38.2278C34.6606 38.1824 34.6919 38.1435 34.7324 38.116C34.7728 38.0886 34.8206 38.0739 34.8695 38.0739C34.9322 38.0743 34.9925 38.0987 35.0379 38.142C35.0834 38.1853 35.1106 38.2443 35.1142 38.3069Z" fill="#455A64"/>
<path d="M26.3342 39.3442C26.3342 39.3926 26.3198 39.4399 26.2929 39.4801C26.2661 39.5204 26.2278 39.5517 26.1831 39.5703C26.1384 39.5888 26.0892 39.5936 26.0417 39.5842C25.9942 39.5748 25.9506 39.5514 25.9164 39.5172C25.8822 39.483 25.8589 39.4394 25.8494 39.3919C25.84 39.3444 25.8448 39.2952 25.8634 39.2505C25.8819 39.2058 25.9132 39.1676 25.9535 39.1407C25.9937 39.1138 26.0411 39.0994 26.0895 39.0994C26.122 39.0978 26.1546 39.1029 26.1851 39.1146C26.2155 39.1263 26.2432 39.1443 26.2662 39.1674C26.2893 39.1905 26.3073 39.2181 26.319 39.2486C26.3307 39.279 26.3359 39.3116 26.3342 39.3442Z" fill="#455A64"/>
<path d="M43.8096 39.3463C43.8096 39.3952 43.7951 39.4429 43.7679 39.4836C43.7408 39.5242 43.7022 39.5559 43.657 39.5746C43.6119 39.5933 43.5622 39.5982 43.5143 39.5886C43.4664 39.5791 43.4223 39.5556 43.3878 39.521C43.3532 39.4865 43.3297 39.4424 43.3202 39.3945C43.3106 39.3466 43.3155 39.2969 43.3342 39.2518C43.3529 39.2066 43.3846 39.168 43.4252 39.1409C43.4659 39.1137 43.5136 39.0992 43.5625 39.0992C43.628 39.0992 43.6909 39.1253 43.7372 39.1716C43.7835 39.2179 43.8096 39.2808 43.8096 39.3463Z" fill="#455A64"/>
<path d="M67.6879 66.0272H69.8558C70.8668 66.0272 73.0347 63.3688 61.2723 63.6719C53.5403 63.8709 53.0313 65.0138 53.4223 65.6801C53.5168 65.8314 53.6513 65.9537 53.8109 66.0333C53.9706 66.1129 54.1492 66.1468 54.3269 66.1313C54.5166 66.1174 54.7665 66.1151 55.0626 66.1174L54.8775 66.9318L50.5742 85.9542L51.3238 85.8894L54.5027 75.4181L60.5667 75.1867L60.9137 86.3198H61.8646L62.096 75.1289H62.126L62.7669 75.1057L68.1414 74.8975L71.3272 86.3221H72.2388L67.6879 66.0272ZM54.9631 73.9258L57.0847 66.9318L57.3161 66.1405C58.2045 66.1405 59.2433 66.1197 60.2844 66.1197L60.5158 73.7546L54.9631 73.9258ZM62.9589 73.6759H62.7276L62.1376 73.6944L62.2949 66.0202H65.682L67.7643 73.5186L62.9589 73.6759Z" fill="#455A64"/>
<path d="M48.3103 85.0078V82.5484L52.7177 82.5206L52.7524 86.1969L52.4794 86.2178C51.2648 86.2964 46.2952 86.4491 45.4808 86.1946C44.5739 85.9147 48.3103 85.0078 48.3103 85.0078Z" fill="#EC6980"/>
<path d="M45.3789 85.9704C45.3789 86.012 47.0262 86.0467 49.0598 86.0467C51.0935 86.0467 52.7408 86.012 52.7408 85.9704C52.7408 85.9287 51.0935 85.8964 49.0598 85.8964C47.0262 85.8964 45.3789 85.9287 45.3789 85.9704Z" fill="#263238"/>
<path d="M48.2372 85.5097C48.2742 85.4912 48.2372 85.3616 48.1469 85.232C48.0567 85.1025 47.9387 85.0354 47.9156 85.0655C47.8924 85.0955 47.9456 85.202 48.0336 85.3223C48.1215 85.4426 48.2001 85.5305 48.2372 85.5097Z" fill="#263238"/>
<path d="M47.9564 85.6717C47.9957 85.6578 47.9749 85.5121 47.8893 85.3594C47.8037 85.2067 47.688 85.1118 47.6579 85.128C47.6278 85.1442 47.6811 85.2807 47.762 85.4218C47.843 85.563 47.917 85.6879 47.9564 85.6717Z" fill="#263238"/>
<path d="M51.415 85.9541C51.4335 85.9541 51.4983 85.9008 51.5932 85.7921C51.7101 85.6519 51.8394 85.5226 51.9796 85.4057C52.1178 85.2963 52.282 85.2246 52.4562 85.1975C52.5903 85.179 52.6875 85.1975 52.6875 85.179C52.6875 85.1605 52.6135 85.1027 52.4562 85.0911C52.2509 85.0897 52.0515 85.1591 51.8916 85.2877C51.7378 85.4107 51.6083 85.5614 51.5099 85.732C51.4335 85.8569 51.3988 85.9425 51.415 85.9541Z" fill="#263238"/>
<path d="M48.2252 85.047C48.2043 85.0817 48.2784 85.1673 48.4056 85.2135C48.5329 85.2598 48.637 85.2436 48.6509 85.2135C48.6647 85.1835 48.5676 85.1233 48.4565 85.0817C48.3455 85.04 48.246 85.0123 48.2252 85.047Z" fill="#263238"/>
<path d="M48.292 84.811C48.292 84.8503 48.4054 84.8873 48.5534 84.8873C48.7015 84.8873 48.8218 84.8572 48.8195 84.8179C48.8172 84.7786 48.6992 84.7416 48.5557 84.7393C48.4123 84.7369 48.2966 84.7693 48.292 84.811Z" fill="#263238"/>
<path d="M57.6125 85.0078V82.5484L62.0199 82.5206L62.0546 86.1969L61.7816 86.2178C60.5669 86.2964 55.5973 86.4491 54.7829 86.1946C53.8783 85.9147 57.6125 85.0078 57.6125 85.0078Z" fill="#EC6980"/>
<path d="M54.6807 85.9704C54.6807 86.012 56.3303 86.0467 58.3616 86.0467C60.3929 86.0467 62.0425 86.012 62.0425 85.9704C62.0425 85.9287 60.3953 85.8964 58.3616 85.8964C56.3279 85.8964 54.6807 85.9287 54.6807 85.9704Z" fill="#263238"/>
<path d="M57.5368 85.5097C57.5738 85.4912 57.5368 85.3616 57.4466 85.232C57.3564 85.1025 57.2384 85.0354 57.2152 85.0655C57.1921 85.0955 57.2476 85.202 57.3332 85.3223C57.4188 85.4426 57.4998 85.5305 57.5368 85.5097Z" fill="#263238"/>
<path d="M57.2562 85.6717C57.2955 85.6578 57.2747 85.5121 57.1891 85.3594C57.1035 85.2067 56.9878 85.1118 56.9577 85.128C56.9276 85.1442 56.9809 85.2807 57.0618 85.4218C57.1428 85.563 57.2192 85.6879 57.2562 85.6717Z" fill="#263238"/>
<path d="M60.7168 85.9541C60.7353 85.9541 60.8001 85.9008 60.8949 85.7921C61.0118 85.6519 61.1411 85.5226 61.2813 85.4057C61.4195 85.2963 61.5837 85.2246 61.7579 85.1975C61.8921 85.179 61.9893 85.1975 61.9893 85.179C61.9893 85.1605 61.9129 85.1027 61.7579 85.0911C61.5527 85.0897 61.3533 85.1591 61.1934 85.2877C61.0396 85.4107 60.9101 85.5614 60.8117 85.732C60.7353 85.8569 60.7006 85.9425 60.7168 85.9541Z" fill="#263238"/>
<path d="M57.522 85.047C57.5011 85.0817 57.5775 85.1673 57.7024 85.2135C57.8274 85.2598 57.9338 85.2436 57.9477 85.2135C57.9615 85.1835 57.8644 85.1233 57.7533 85.0817C57.6423 85.04 57.5451 85.0123 57.522 85.047Z" fill="#263238"/>
<path d="M57.5918 84.811C57.5918 84.8503 57.7052 84.8873 57.8532 84.8873C58.0013 84.8873 58.1216 84.8572 58.1193 84.8179C58.117 84.7786 57.999 84.7416 57.8555 84.7393C57.7121 84.7369 57.5964 84.7693 57.5918 84.811Z" fill="#263238"/>
<path d="M70.2423 40.8942C70.0618 40.8526 69.8374 40.8757 69.7287 40.7253C69.6199 40.5749 69.6986 40.3991 69.7564 40.2394C69.9499 39.7275 69.9557 39.1635 69.7726 38.6477C69.6414 38.3076 69.4098 38.0155 69.1086 37.8102C69.1527 37.7677 69.1909 37.7195 69.222 37.6667C69.3074 37.5126 69.3505 37.3386 69.3469 37.1624C69.3527 37.0056 69.3254 36.8494 69.2668 36.7039C69.2082 36.5584 69.1196 36.4269 69.0068 36.3179C68.9076 36.228 68.7786 36.1782 68.6447 36.1782C68.5109 36.1782 68.3818 36.228 68.2827 36.3179C68.2459 36.3525 68.2166 36.3943 68.1966 36.4406C68.1765 36.487 68.1662 36.5369 68.1662 36.5874C68.1662 36.6379 68.1765 36.6879 68.1966 36.7342C68.2166 36.7806 68.2459 36.8224 68.2827 36.857C68.3312 36.8966 68.39 36.9218 68.4522 36.9296C68.5144 36.9374 68.5775 36.9274 68.6343 36.9009C68.7107 36.8616 68.7222 36.813 68.7222 36.813C68.6935 36.8403 68.6608 36.8629 68.6251 36.8801C68.5725 36.8986 68.516 36.9029 68.4612 36.8928C68.4064 36.8826 68.3552 36.8583 68.3127 36.8223C68.2824 36.7909 68.259 36.7536 68.2439 36.7127C68.2288 36.6719 68.2223 36.6283 68.2249 36.5848C68.2276 36.5413 68.2392 36.4988 68.2591 36.46C68.279 36.4213 68.3067 36.387 68.3405 36.3595C68.4291 36.2858 68.5419 36.2479 68.657 36.253C68.7721 36.2581 68.8812 36.306 68.9628 36.3873C69.0624 36.4898 69.1397 36.6117 69.1898 36.7455C69.24 36.8793 69.262 37.022 69.2544 37.1647C69.2575 37.3228 69.2175 37.4787 69.1387 37.6158C69.1075 37.6671 69.0694 37.7138 69.0253 37.7546C68.9017 37.6801 68.7675 37.6248 68.6274 37.5904C68.3289 37.5187 68.005 37.5372 67.732 37.396C67.5043 37.2659 67.331 37.0581 67.2438 36.8107C67.2438 36.7852 67.2438 36.7575 67.2438 36.7297C67.2765 36.3275 67.3314 35.9274 67.4081 35.5313C67.4594 35.1465 67.4493 34.756 67.378 34.3745C67.3248 34.0489 67.1976 33.74 67.0063 33.4712C66.815 33.2025 66.5646 32.9812 66.2744 32.8244C66.0753 32.7262 65.857 32.6733 65.635 32.6693C65.413 32.6653 65.1929 32.7104 64.9904 32.8012C64.882 32.8508 64.782 32.9172 64.6943 32.9979L64.6457 33.0488C64.509 33.1166 64.3883 33.2129 64.2917 33.331L63.5791 39.7582L68.8055 42.9533C69.2124 42.9397 69.6146 42.8617 69.997 42.7219C70.1877 42.6493 70.3588 42.5332 70.4969 42.3831C70.6351 42.2329 70.7364 42.0527 70.7929 41.8567C70.8414 41.6563 70.8113 41.4449 70.7089 41.266C70.6065 41.087 70.4396 40.954 70.2423 40.8942ZM66.8112 34.1639C66.7199 33.9102 66.579 33.6773 66.3967 33.4786C66.2143 33.28 65.9943 33.1197 65.7493 33.0071C65.4082 32.8736 65.0281 32.8802 64.6919 33.0256C64.7855 32.9538 64.8882 32.8946 64.9973 32.8498C65.1941 32.7702 65.4057 32.734 65.6177 32.7435C65.8297 32.7531 66.0371 32.8083 66.2259 32.9053C66.4996 33.0603 66.7346 33.2753 66.9133 33.5342C67.092 33.793 67.2098 34.089 67.2577 34.3999C67.3225 34.7683 67.3303 35.1444 67.2809 35.5151C67.2508 35.8043 67.1698 36.0958 67.1328 36.4058C67.1042 36.1863 67.0872 35.9654 67.0819 35.7441C67.0808 35.2059 66.9893 34.6718 66.8112 34.1639Z" fill="#263238"/>
<path d="M65.2608 34.1546C65.2294 34.0315 65.1578 33.9223 65.0572 33.8446C64.8595 33.7551 64.635 33.7452 64.4302 33.8168L64.4186 32.3408L61.5451 30.004L59.9973 30.8068C59.6008 31.013 59.269 31.3248 59.0388 31.7078C58.8085 32.0909 58.6886 32.5301 58.6925 32.977C58.704 34.1662 58.7341 35.7788 58.8128 36.695C58.947 38.2682 60.5387 38.3978 60.5387 38.3978C60.5387 38.3978 60.6081 38.9646 60.6544 39.5268C60.6544 39.5268 60.3051 44.1841 61.9431 44.1425C63.1508 44.1124 63.9629 41.5743 64.3053 40.2394L64.488 39.506V39.4667V39.4366L64.4533 35.0199L64.5019 35.0708C64.5541 35.115 64.618 35.143 64.6859 35.1512C64.7537 35.1594 64.8225 35.1476 64.8837 35.1171C64.9706 35.0785 65.0488 35.0227 65.1136 34.9532C65.1784 34.8836 65.2284 34.8016 65.2608 34.7122C65.3221 34.5314 65.3221 34.3354 65.2608 34.1546Z" fill="#FFBE9D"/>
<path d="M59.0568 34.1271C59.0571 34.1536 59.0626 34.1798 59.0732 34.2041C59.0838 34.2285 59.0991 34.2504 59.1183 34.2688C59.1375 34.2871 59.1601 34.3014 59.1849 34.3108C59.2097 34.3203 59.2362 34.3246 59.2627 34.3237C59.3161 34.3237 59.3673 34.3025 59.405 34.2648C59.4428 34.227 59.464 34.1758 59.464 34.1224C59.464 34.069 59.4428 34.0178 59.405 33.9801C59.3673 33.9424 59.3161 33.9211 59.2627 33.9211C59.2354 33.9202 59.2082 33.9248 59.1827 33.9348C59.1573 33.9448 59.1342 33.96 59.1149 33.9793C59.0956 33.9986 59.0805 34.0217 59.0705 34.0471C59.0605 34.0725 59.0558 34.0998 59.0568 34.1271Z" fill="#263238"/>
<path d="M58.8586 33.9138C58.8841 33.9393 59.0298 33.8074 59.2473 33.7912C59.4648 33.775 59.629 33.8745 59.6522 33.8444C59.6753 33.8144 59.6337 33.7843 59.5619 33.738C59.4649 33.6763 59.3502 33.6487 59.2357 33.6593C59.1217 33.6692 59.0138 33.7154 58.928 33.7912C58.8655 33.8491 58.8447 33.9023 58.8586 33.9138Z" fill="#263238"/>
<path d="M61.3955 34.0577C61.3955 34.1111 61.4167 34.1623 61.4545 34.2001C61.4922 34.2378 61.5434 34.259 61.5968 34.259C61.6502 34.259 61.7014 34.2378 61.7391 34.2001C61.7769 34.1623 61.7981 34.1111 61.7981 34.0577C61.7981 34.0043 61.7769 33.9531 61.7391 33.9154C61.7014 33.8777 61.6502 33.8564 61.5968 33.8564C61.5434 33.8564 61.4922 33.8777 61.4545 33.9154C61.4167 33.9531 61.3955 34.0043 61.3955 34.0577Z" fill="#263238"/>
<path d="M61.2678 33.8422C61.2932 33.8676 61.439 33.7381 61.6565 33.7196C61.8739 33.7011 62.0382 33.8029 62.0613 33.7751C62.0845 33.7473 62.0428 33.7126 61.9711 33.6664C61.8734 33.6072 61.7594 33.5805 61.6455 33.59C61.5316 33.5996 61.4237 33.6449 61.3372 33.7196C61.2747 33.7728 61.2539 33.8306 61.2678 33.8422Z" fill="#263238"/>
<path d="M60.5205 35.7071C60.4034 35.7315 60.2837 35.7408 60.1642 35.7348C60.1327 35.7391 60.1008 35.7391 60.0694 35.7348C60.0487 35.7305 60.0293 35.7213 60.0128 35.7081C59.9963 35.6948 59.9832 35.6778 59.9745 35.6585C59.9525 35.5821 59.9574 35.5004 59.9884 35.4271L60.1203 34.9644C60.2209 34.5694 60.3516 34.1827 60.5113 33.8076C60.441 34.2087 60.3404 34.6039 60.2105 34.9899L60.0717 35.4526C60.0457 35.5065 60.0368 35.567 60.0462 35.6261C60.0578 35.6654 60.1087 35.6724 60.1642 35.6724C60.284 35.6671 60.404 35.6788 60.5205 35.7071Z" fill="#263238"/>
<path d="M61.274 35.883C61.2878 35.8668 60.647 36.2694 60.2051 36.281C60.2869 36.3894 60.403 36.4669 60.5345 36.5009C60.666 36.535 60.8051 36.5235 60.9292 36.4684C61.0499 36.4322 61.1524 36.3518 61.2163 36.2433C61.2803 36.1348 61.3008 36.0061 61.274 35.883Z" fill="#FAFAFA"/>
<path d="M60.5273 38.4003C61.2749 38.351 61.9927 38.0885 62.5957 37.6438C62.5957 37.6438 62.1515 38.8122 60.5713 38.7844L60.5273 38.4003Z" fill="#EB996E"/>
<path d="M58.465 33.1668C59.1591 33.2616 59.6565 33.0742 60.3274 32.9053C60.9984 32.7364 61.6369 32.2945 61.8706 31.6421C61.9511 32.0734 62.1497 32.4739 62.4444 32.7989C62.5068 32.8683 62.6272 32.9331 62.6757 32.8567C62.6861 32.8342 62.6915 32.8098 62.6915 32.785C62.6915 32.7602 62.6861 32.7358 62.6757 32.7133L62.5369 32.1626C62.7745 32.5968 63.0835 32.9878 63.4508 33.3195C63.8349 33.6272 65.0032 34.1038 64.8251 33.6457C64.7811 33.53 65.1721 29.9624 61.7804 29.9092C58.3886 29.856 58.465 33.1668 58.465 33.1668Z" fill="#263238"/>
<path d="M64.4759 34.1826C64.4643 34.1826 64.5337 34.1016 64.6794 34.1063C64.7538 34.1121 64.8248 34.1395 64.8838 34.1851C64.9428 34.2306 64.9873 34.2924 65.0118 34.3628C65.0364 34.4332 65.0399 34.5092 65.0219 34.5815C65.004 34.6539 64.9654 34.7195 64.9108 34.7703C64.8463 34.8267 64.765 34.86 64.6794 34.8651C64.5337 34.8651 64.4666 34.7957 64.4759 34.7865C64.4851 34.7772 64.5591 34.8027 64.6702 34.7865C64.7392 34.7742 64.8016 34.738 64.8466 34.6843C64.8916 34.6306 64.9163 34.5627 64.9163 34.4926C64.9163 34.4226 64.8916 34.3547 64.8466 34.301C64.8016 34.2473 64.7392 34.2111 64.6702 34.1988C64.5545 34.1664 64.4828 34.2011 64.4759 34.1826Z" fill="#EB996E"/>
<path d="M70.1069 45.2645L70.6899 45.1465C70.6899 45.1465 69.4198 39.4365 65.0054 39.4365H64.4849V39.4643V39.5036L64.3021 40.237C63.9597 41.572 63.1453 44.11 61.9399 44.1401C60.4106 44.1794 60.6142 40.1329 60.6466 39.5869C60.6083 39.5914 60.5709 39.6015 60.5355 39.617C60.5355 39.617 55.7348 39.883 53.5947 44.0938L57.2965 46.7984L58.2011 46.2524C58.2011 46.2524 58.4972 52.2076 57.9883 53.8294C57.4145 55.6618 56.5261 57.6908 56.5261 57.6908C60.5957 57.3739 65.2252 57.5567 70.1601 58.0124L66.8679 45.9239C67.9742 45.8652 69.0657 45.643 70.1069 45.2645Z" fill="#EC6980"/>
<path d="M66.1444 48.1174C66.1444 48.1174 66.1144 48.1706 66.0403 48.247C65.9338 48.352 65.8167 48.4458 65.691 48.5269C65.2701 48.8011 64.7748 48.9385 64.2728 48.9203C63.7708 48.902 63.2868 48.7291 62.8869 48.4251C62.7663 48.336 62.6561 48.2335 62.5584 48.1197C62.489 48.0388 62.4589 47.9879 62.4658 47.9832C62.4728 47.9786 62.6301 48.1498 62.9285 48.3557C63.3243 48.6282 63.7896 48.7823 64.2698 48.7999C64.7501 48.8176 65.2254 48.698 65.6401 48.4552C65.9663 48.2748 66.1282 48.1174 66.1444 48.1174Z" fill="#263238"/>
<path d="M68.2855 51.2985C68.243 51.2064 68.2097 51.1103 68.186 51.0117C68.1213 50.8034 68.0426 50.5489 67.9547 50.225C67.7557 49.561 67.492 48.6425 67.1634 47.6361C66.8349 46.6297 66.5388 45.7181 66.3167 45.0611C66.2149 44.751 66.1269 44.4896 66.0575 44.2814C66.0193 44.1885 65.9921 44.0914 65.9766 43.9922C66.0267 44.0799 66.0685 44.172 66.1015 44.2675C66.1755 44.4456 66.2773 44.7071 66.3976 45.0333C66.6406 45.6834 66.9575 46.588 67.2768 47.5991C67.5961 48.6101 67.8598 49.5309 68.0357 50.2019C68.1236 50.5374 68.193 50.8104 68.2346 51.0001C68.263 51.0973 68.2801 51.1974 68.2855 51.2985Z" fill="#263238"/>
<path d="M66.8499 42.167C66.6425 42.1625 66.4392 42.1078 66.2576 42.0074C66.0603 41.9439 65.8806 41.8354 65.7324 41.6904C65.9326 41.7296 66.1254 41.7999 66.3039 41.8987C66.4984 41.96 66.6825 42.0505 66.8499 42.167Z" fill="#263238"/>
<path d="M67.9863 44.1471C67.9999 43.9144 68.0539 43.6858 68.146 43.4716C68.2012 43.2443 68.2951 43.0283 68.4236 42.833C68.4071 43.0656 68.3524 43.2938 68.2616 43.5086C68.2067 43.7355 68.1136 43.9514 67.9863 44.1471Z" fill="#263238"/>
<path d="M64.0225 45.5724C64.0732 45.3603 64.1568 45.1573 64.27 44.9709C64.3477 44.7664 64.4553 44.5746 64.5893 44.4017C64.5014 44.8333 64.3065 45.2358 64.0225 45.5724Z" fill="#263238"/>
<path d="M63.3107 46.8263C63.1044 46.7187 62.9244 46.5671 62.7832 46.3821C62.6127 46.223 62.4799 46.0278 62.3945 45.8107C62.7278 46.1258 63.0371 46.4653 63.32 46.8263H63.3107Z" fill="#263238"/>
<path d="M66.1694 46.6367C66.0491 46.8874 65.8809 47.1122 65.6743 47.2984C65.5024 47.4838 65.3108 47.6498 65.1029 47.7935L64.9316 47.8976L65.0658 47.7611C65.0982 47.7287 65.119 47.7149 65.126 47.7195C65.1329 47.7241 65.126 47.7496 65.1075 47.7889L65.0705 47.7565C65.1514 47.6593 65.3573 47.458 65.5887 47.2151C65.7642 47.005 65.9586 46.8113 66.1694 46.6367Z" fill="#263238"/>
<path d="M66.7974 50.7666C66.5681 50.7279 66.3506 50.6377 66.1611 50.5028C65.9506 50.402 65.7661 50.2539 65.6221 50.0702C65.8338 50.1563 66.0349 50.2665 66.2213 50.3987C66.428 50.4967 66.6215 50.6203 66.7974 50.7666Z" fill="#263238"/>
<path d="M63.8964 49.8226C63.8179 50.0441 63.7012 50.25 63.5516 50.4311C63.4344 50.6348 63.2843 50.8178 63.1074 50.9725C63.1847 50.7505 63.3015 50.5444 63.4521 50.364C63.5695 50.1604 63.7195 49.9774 63.8964 49.8226Z" fill="#263238"/>
<path d="M61.9894 50.0099C61.809 49.9435 61.6443 49.8403 61.5059 49.7068C61.2583 49.5148 61.0755 49.3367 61.0963 49.3112C61.1172 49.2858 61.3277 49.4199 61.5799 49.612C61.8321 49.804 62.0033 49.9821 61.9894 50.0099Z" fill="#263238"/>
<path d="M60.9633 47.1919C60.9818 47.2197 60.8014 47.3816 60.5584 47.5551C60.3155 47.7287 60.0957 47.8466 60.0957 47.8189C60.0957 47.7911 60.2553 47.6292 60.4983 47.4556C60.6338 47.3371 60.792 47.2473 60.9633 47.1919Z" fill="#263238"/>
<path d="M60.5724 45.7644C60.547 45.7852 60.3804 45.6094 60.1999 45.3734C60.0195 45.1374 59.8968 44.9269 59.9223 44.9107C59.9477 44.8945 60.1166 45.068 60.2948 45.304C60.4729 45.54 60.6002 45.7459 60.5724 45.7644Z" fill="#263238"/>
<path d="M64.6963 41.9701C64.7348 41.7691 64.8135 41.5779 64.9276 41.4079C65.0072 41.2192 65.1218 41.0473 65.2654 40.9012C65.2262 41.1028 65.1476 41.2947 65.0341 41.4658C64.9551 41.6541 64.8404 41.8254 64.6963 41.9701Z" fill="#263238"/>
<path d="M59.542 42.2107C59.329 42.148 59.1285 42.0486 58.9497 41.9169C58.7511 41.8174 58.5717 41.6834 58.4199 41.5212C58.6341 41.5811 58.835 41.6807 59.0122 41.8151C59.2113 41.9138 59.3908 42.0478 59.542 42.2107Z" fill="#263238"/>
<path d="M56.8404 41.519C56.8705 41.5352 56.7849 41.7342 56.6507 41.9586C56.5165 42.183 56.3846 42.3565 56.3545 42.338C56.3245 42.3195 56.4124 42.1252 56.5466 41.8984C56.6808 41.6717 56.8126 41.5028 56.8404 41.519Z" fill="#263238"/>
<path d="M59.6517 57.1401C59.2585 56.979 58.9003 56.7433 58.5967 56.446C58.8005 56.5103 58.9904 56.6124 59.1566 56.7468C59.3434 56.8479 59.5109 56.981 59.6517 57.1401Z" fill="#263238"/>
<path d="M67.382 56.3123C67.4075 56.3354 67.2386 56.5575 67.0049 56.812C66.7712 57.0665 66.5653 57.2516 66.5422 57.2284C66.519 57.2053 66.6856 56.9832 66.9193 56.7287C67.153 56.4742 67.3589 56.2891 67.382 56.3123Z" fill="#263238"/>
<path d="M62.129 57.1797C62.1198 56.8713 62.1198 56.5627 62.129 56.2543C62.1591 56.2543 62.2423 56.4509 62.2423 56.717C62.2603 56.8798 62.2202 57.0437 62.129 57.1797Z" fill="#263238"/>
<path d="M64.8615 57.2235C64.6579 57.1685 64.4665 57.0759 64.297 56.9505C64.1074 56.8585 63.937 56.7313 63.7949 56.5757C64.1885 56.7216 64.5505 56.9415 64.8615 57.2235Z" fill="#263238"/>
<path d="M70.1614 58.015C70.1153 58.0201 70.0687 58.0201 70.0226 58.015L69.6246 57.9826L68.1671 57.853C66.9362 57.7466 65.2357 57.5939 63.3525 57.5638C61.4692 57.5338 59.7594 57.5754 58.5263 57.6217L57.0641 57.6842L56.6662 57.7004C56.6201 57.7068 56.5734 57.7068 56.5273 57.7004L56.6638 57.6795L57.0618 57.6425C57.4042 57.6124 57.9039 57.5777 58.5217 57.5407C59.7571 57.4713 61.4646 57.4112 63.3548 57.4482C65.245 57.4852 66.9455 57.6448 68.1763 57.7721C68.7894 57.8392 69.2869 57.897 69.6293 57.941L70.0249 57.9942C70.0711 57.9954 70.1169 58.0024 70.1614 58.015Z" fill="#263238"/>
<g opacity="0.2">
<path d="M65.9736 43.9923L67.1304 51.685C67.1304 51.685 68.2016 51.685 68.3983 51.3658L65.9736 43.9923Z" fill="black"/>
<path d="M65.9736 43.9923L67.1304 51.685C67.1304 51.685 68.2016 51.685 68.3983 51.3658L65.9736 43.9923Z" fill="black"/>
</g>
<path d="M59.2514 57.5475C56.5283 57.758 55.0407 57.5706 52.0445 57.8528C51.0322 57.9863 50.101 58.4777 49.4194 59.2382C48.7379 59.9986 48.3511 60.9779 48.3289 61.9988L47.8037 84.6282H53.3078L54.1777 64.3402L55.7972 64.5461C55.589 72.144 56.3825 84.6282 56.3825 84.6282L62.4951 84.3297L62.1457 64.8446C62.1457 64.8446 70.366 65.4021 70.16 58.0217C70.1624 58.0148 63.6889 57.2305 59.2514 57.5475Z" fill="#263238"/>
<path d="M60.8989 57.4899C60.7615 57.5208 60.6224 57.544 60.4824 57.5593C60.214 57.601 59.8254 57.6588 59.3487 57.7467C58.7897 57.8249 58.242 57.9702 57.7177 58.1794C57.4153 58.3133 57.1351 58.4927 56.8871 58.7115C56.6231 58.9473 56.4091 59.2336 56.2578 59.5536C55.9812 60.1862 55.847 60.8717 55.8645 61.5618C55.8645 62.2004 55.8876 62.7811 55.883 63.267C55.8783 63.7528 55.8622 64.1461 55.8436 64.4238C55.8436 64.5603 55.8251 64.6667 55.8159 64.7361C55.8144 64.7728 55.809 64.8093 55.7997 64.8448C55.7897 64.7047 55.7897 64.5639 55.7997 64.4238C55.7997 64.1508 55.7997 63.7598 55.7997 63.267C55.7997 62.7742 55.7719 62.1981 55.7557 61.5618C55.7314 60.8537 55.8666 60.1492 56.1513 59.5004C56.3101 59.1669 56.5343 58.8687 56.8107 58.6236C57.0683 58.3978 57.3594 58.2136 57.6737 58.0776C58.2086 57.8696 58.7674 57.7297 59.3372 57.6611C59.8161 57.5848 60.2094 57.5385 60.4801 57.513C60.6143 57.5015 60.7115 57.4922 60.7924 57.4899C60.8277 57.4842 60.8636 57.4842 60.8989 57.4899Z" fill="#455A64"/>
<path d="M53.6924 62.9244C53.8113 63.1469 53.9112 63.3791 53.9908 63.6185C54.1088 63.8445 54.1729 64.0947 54.1782 64.3496C54.0593 64.1271 53.9595 63.8949 53.8798 63.6555C53.7606 63.43 53.6964 63.1795 53.6924 62.9244Z" fill="#455A64"/>
<path d="M54.1429 62.4614C54.2469 62.759 54.3009 63.0717 54.3026 63.3869C54.3385 63.7051 54.2972 64.0273 54.1823 64.3262C54.1453 64.3262 54.2077 63.9051 54.1823 63.4007C54.1568 62.8964 54.1013 62.4614 54.1429 62.4614Z" fill="#455A64"/>
<path d="M61.7344 62.8895C61.8748 63.1936 61.9676 63.5174 62.0097 63.8497C62.0868 64.1735 62.1371 64.5032 62.1601 64.8353C62.0204 64.5306 61.9298 64.2058 61.8917 63.8728C61.8116 63.5501 61.759 63.2211 61.7344 62.8895Z" fill="#455A64"/>
<path d="M62.2822 62.8851C62.42 63.534 62.3833 64.2078 62.1758 64.8378C62.1781 64.5114 62.199 64.1855 62.2382 63.8615C62.2359 63.5355 62.2505 63.2096 62.2822 62.8851Z" fill="#455A64"/>
<path d="M53.1673 83.3003C53.1673 83.3327 51.9619 83.3604 50.4743 83.3604C48.9866 83.3604 47.7812 83.3327 47.7812 83.3003C47.7812 83.2679 48.9866 83.2401 50.4743 83.2401C51.9619 83.2401 53.1673 83.2656 53.1673 83.3003Z" fill="#455A64"/>
<path d="M62.4243 83.1987C62.4243 83.2311 61.0523 83.2589 59.3611 83.2589C57.6698 83.2589 56.2979 83.2311 56.2979 83.1987C56.2979 83.1663 57.6698 83.1385 59.3611 83.1385C61.0523 83.1385 62.4243 83.1663 62.4243 83.1987Z" fill="#455A64"/>
<path d="M69.4293 61.4022H69.3529H69.1216H68.2424L65.0034 61.4184H62.7707C62.3603 61.4171 61.9511 61.4636 61.5515 61.5572C61.1304 61.6531 60.7534 61.8868 60.4803 62.2212C60.2214 62.5949 60.0833 63.0391 60.0847 63.4937C60.0615 63.9564 60.1124 64.44 60.1309 64.9328C60.1556 65.9168 60.1826 66.9309 60.2119 67.9751C60.3299 72.1396 60.4271 75.9131 60.4618 78.6455C60.4803 80.0105 60.4849 81.1164 60.4849 81.8845C60.4849 82.2609 60.4849 82.5547 60.4849 82.766C60.4849 82.8609 60.4849 82.9349 60.4849 82.9974C60.4885 83.0235 60.4885 83.0499 60.4849 83.076C60.4818 83.0499 60.4818 83.0235 60.4849 82.9974C60.4849 82.9395 60.4849 82.8655 60.4849 82.766C60.4849 82.5555 60.4849 82.2616 60.4687 81.8845C60.4525 81.1141 60.4317 80.0105 60.4062 78.6455C60.3484 75.9154 60.2397 72.1419 60.1217 67.9751C60.0939 66.934 60.0685 65.9184 60.043 64.9351C60.0245 64.4469 59.9759 63.9634 60.0014 63.4844C60.001 63.0074 60.1481 62.542 60.4224 62.1518C60.711 61.8 61.1095 61.5555 61.5538 61.4577C61.9627 61.3635 62.3812 61.3169 62.8008 61.3189H65.0334L68.2725 61.342L69.1517 61.3559H69.383C69.4 61.3697 69.4155 61.3852 69.4293 61.4022Z" fill="#455A64"/>
<path opacity="0.2" d="M55.1481 64.4561C55.1481 64.4561 54.9352 61.7145 55.9648 60.1389L55.8005 64.5348L55.1481 64.4561Z" fill="black"/>
<path d="M55.5926 61.8485C55.5727 61.8515 55.5524 61.8515 55.5324 61.8485L55.352 61.8161C55.1923 61.786 54.961 61.7398 54.6579 61.705C54.293 61.6602 53.9229 61.6821 53.5659 61.7698C53.3449 61.8281 53.1364 61.9261 52.9505 62.059C52.7468 62.2105 52.5839 62.41 52.4762 62.6397C52.2448 63.1256 52.217 63.7341 52.2032 64.3726C52.1893 65.0112 52.1708 65.7006 52.1523 66.4225C52.1129 67.8662 52.0713 69.4533 52.0273 71.1191C51.9302 74.4461 51.8399 77.4584 51.7751 79.6517C51.7381 80.7344 51.7057 81.6159 51.6849 82.2359C51.671 82.5344 51.6618 82.7704 51.6548 82.93C51.6548 83.0041 51.6548 83.0642 51.6433 83.1128C51.6463 83.1335 51.6463 83.1546 51.6433 83.1753C51.6397 83.1546 51.6397 83.1335 51.6433 83.1128C51.6433 83.0642 51.6433 83.0041 51.6433 82.93C51.6433 82.7588 51.6433 82.5228 51.6433 82.2359C51.6548 81.6136 51.6734 80.7344 51.6942 79.6493C51.7497 77.456 51.8284 74.4437 51.9117 71.1145C51.9602 69.4487 52.0042 67.8639 52.0458 66.4202C52.0667 65.6983 52.0875 65.0112 52.1083 64.3703C52.1291 63.7294 52.1523 63.1094 52.4044 62.6027C52.5207 62.3619 52.6948 62.1537 52.9111 61.9966C53.1049 61.8605 53.3222 61.7617 53.552 61.705C53.9182 61.6191 54.2974 61.6034 54.6695 61.6588C54.9725 61.7004 55.2039 61.7559 55.3635 61.7907L55.5417 61.8369C55.5741 61.8392 55.5949 61.8462 55.5926 61.8485Z" fill="#455A64"/>
<path d="M55.166 44.3971C55.166 44.3971 49.3565 50.2251 48.2483 51.5276C47.302 52.6405 47.9198 54.7389 48.711 54.8291C49.5023 54.9194 62.3104 54.7458 62.3104 54.7458L62.1415 52.1268C62.1415 52.1268 53.8449 52.1638 53.602 52.0112C53.359 51.8585 58.4004 46.7616 58.4004 46.7616L55.166 44.3971Z" fill="#FFBE9D"/>
<path d="M70.5267 45.1584C70.5267 45.1584 72.2919 50.5098 72.5048 51.1414C72.7176 51.773 73.8143 54.4499 71.7321 54.6743C69.6498 54.8987 58.4751 54.6743 58.4751 54.6743L57.6445 51.9697C57.6445 51.9697 68.4444 51.9419 68.3912 51.3658C68.338 50.7898 66.7509 45.9566 66.7509 45.9566L70.5267 45.1584Z" fill="#FFBE9D"/>
<path d="M46.9443 43.4902L50.9584 54.6093L69.4372 54.6024L69.3099 54.0587L62.3761 53.8042L58.9635 43.319L46.9443 43.4902Z" fill="#263238"/>
<path d="M55.1844 48.5522C55.1869 48.6774 55.1535 48.8007 55.0881 48.9075C55.0227 49.0142 54.928 49.1 54.8154 49.1546C54.7027 49.2092 54.5767 49.2304 54.4524 49.2156C54.3281 49.2008 54.2106 49.1507 54.1139 49.0712C54.0172 48.9917 53.9453 48.8861 53.9068 48.767C53.8682 48.6478 53.8647 48.5201 53.8965 48.3991C53.9283 48.278 53.9942 48.1685 54.0863 48.0837C54.1784 47.9989 54.2929 47.9423 54.4162 47.9206C54.6016 47.9038 54.7861 47.9606 54.9299 48.0789C55.0736 48.1971 55.1651 48.3671 55.1844 48.5522Z" fill="#FAFAFA"/>
<path d="M78.9967 54.3666H35.3437H34.8694H34.3975V86.292H35.3437V56.2475H78.9967V86.3151H90.1553V56.2475V54.3666H78.9967Z" fill="#455A64"/>
</svg>
