<svg width="91" height="79" viewBox="0 0 91 79" fill="none" xmlns="http://www.w3.org/2000/svg">
<path d="M85.0704 15.3114C90.5632 27.7916 88.0494 41.3013 80.4067 52.5924C72.764 63.8835 60.0451 71.1985 46.673 73.8539C37.1272 75.755 26.8534 75.3667 18.1368 71.0489C9.42026 66.731 2.55621 58.0387 2.03039 48.319C1.82815 44.6484 2.61284 40.7512 5.064 38.0048C8.97533 33.6263 15.6533 33.4726 21.5203 33.6546C27.3873 33.8366 34.0592 33.6971 37.9908 29.3388C41.0123 25.9876 41.4572 21.1298 43.0468 16.9091C45.7528 9.73761 52.2811 4.13555 59.7903 2.54999C67.1235 1.00082 75.1606 3.33468 80.5382 8.5444C80.7687 8.76686 81.0094 8.97921 81.2521 9.18954C81.8871 9.74773 84.0248 12.9391 85.0704 15.3114Z" fill="#FFE7EC"/>
<path d="M90.9799 77.9726C90.9799 78.0009 70.6123 78.0252 45.492 78.0252C20.3717 78.0252 0 77.9948 0 77.9726C0 77.9503 20.3636 77.918 45.492 77.918C70.6204 77.918 90.9799 77.9362 90.9799 77.9726Z" fill="#263238"/>
<path d="M59.507 0.259766H31.068C28.8386 0.259766 27.0312 2.06707 27.0312 4.29649V73.6751C27.0312 75.9045 28.8386 77.7118 31.068 77.7118H59.507C61.7365 77.7118 63.5438 75.9045 63.5438 73.6751V4.29649C63.5438 2.06707 61.7365 0.259766 59.507 0.259766Z" fill="#F5F5F5"/>
<path d="M30.9594 0.259766H59.6149C60.6456 0.260838 61.6338 0.671051 62.3622 1.40028C63.0907 2.12951 63.4999 3.1181 63.4999 4.14885V38.732H27.0703V4.14885C27.0703 3.63813 27.1709 3.13241 27.3664 2.66056C27.5618 2.18872 27.8483 1.75999 28.2094 1.39885C28.5705 1.03772 28.9993 0.751248 29.4711 0.555804C29.943 0.360359 30.4487 0.259766 30.9594 0.259766Z" fill="white"/>
<path d="M30.842 5.70979C30.8201 5.70994 30.7988 5.70283 30.7813 5.68957L29.9076 5.03633C29.8954 5.02712 29.8853 5.01523 29.8783 5.00156C29.8713 4.9879 29.8675 4.97281 29.8672 4.95746C29.8671 4.94195 29.8705 4.92663 29.8772 4.91262C29.8838 4.89862 29.8935 4.88629 29.9056 4.87656L30.7793 4.17681C30.8002 4.15991 30.827 4.15202 30.8537 4.15487C30.8805 4.15771 30.905 4.17106 30.9219 4.19198C30.9388 4.2129 30.9467 4.23967 30.9438 4.26641C30.941 4.29315 30.9276 4.31766 30.9067 4.33456L30.1281 4.95341L30.8966 5.52778C30.918 5.54387 30.9322 5.56782 30.936 5.59437C30.9398 5.62092 30.9329 5.64789 30.9168 5.66935C30.9082 5.68133 30.897 5.69119 30.8841 5.6982C30.8711 5.70521 30.8567 5.70917 30.842 5.70979Z" fill="#263238"/>
<path d="M36.9807 55.2307C36.9801 55.1927 36.9873 55.1551 37.0019 55.12C37.0165 55.085 37.0381 55.0533 37.0654 55.0269C37.0927 55.0006 37.1251 54.9801 37.1606 54.9668C37.1962 54.9535 37.2341 54.9476 37.272 54.9496C37.3099 54.949 37.3475 54.9564 37.3824 54.9714C37.4173 54.9864 37.4485 55.0086 37.4742 55.0365L37.4216 55.0851C37.4021 55.064 37.3783 55.0473 37.3518 55.0361C37.3253 55.025 37.2967 55.0196 37.2679 55.0204C37.2119 55.0204 37.1581 55.0426 37.1185 55.0823C37.0789 55.1219 37.0566 55.1757 37.0566 55.2317C37.0566 55.2878 37.0789 55.3415 37.1185 55.3811C37.1581 55.4208 37.2119 55.443 37.2679 55.443C37.2968 55.4436 37.3255 55.4379 37.352 55.4263C37.3785 55.4148 37.4023 55.3978 37.4216 55.3763L37.4742 55.4269C37.4336 55.4679 37.3817 55.496 37.3251 55.5077C37.2685 55.5194 37.2098 55.5141 37.1562 55.4925C37.1026 55.4709 37.0566 55.4339 37.024 55.3863C36.9913 55.3386 36.9735 55.2824 36.9727 55.2246L36.9807 55.2307Z" fill="#263238"/>
<path d="M38.0631 54.9561V55.5082H37.9842V55.2614H37.6687V55.5082H37.5898V54.9561H37.6687V55.1927H37.9842V54.9561H38.0631Z" fill="#263238"/>
<path d="M38.5793 55.3706H38.2861L38.2254 55.5082H38.1445L38.3953 54.9561H38.4722L38.7229 55.5082H38.64L38.5793 55.3706ZM38.5531 55.3059L38.4337 55.0369L38.3144 55.3059H38.5531Z" fill="#263238"/>
<path d="M39.2496 55.1433C39.2496 55.2626 39.1627 55.3455 39.0211 55.3455H38.8836V55.5134H38.8047V54.9613H39.0272C39.1627 54.9552 39.2496 55.028 39.2496 55.1433ZM39.1707 55.1433C39.1707 55.0644 39.1182 55.0199 39.017 55.0199H38.8836V55.2667H39.0272C39.1182 55.2707 39.1707 55.2262 39.1707 55.1433Z" fill="#263238"/>
<path d="M39.4596 55.0248H39.2695V54.9561H39.7266V55.0248H39.5365V55.5082H39.4596V55.0248Z" fill="#263238"/>
<path d="M40.2092 55.4394V55.5082H39.8047V54.9561H40.193V55.0248H39.8836V55.1947H40.1586V55.2614H39.8836V55.4394H40.2092Z" fill="#263238"/>
<path d="M40.704 55.5082L40.5867 55.3384H40.4148V55.5062H40.3359V54.9541H40.5503C40.6939 54.9541 40.7809 55.0269 40.7809 55.1462C40.7827 55.1845 40.7717 55.2224 40.7498 55.2538C40.7278 55.2853 40.6961 55.3086 40.6595 55.3202L40.791 55.5062L40.704 55.5082ZM40.704 55.1483C40.704 55.0694 40.6514 55.0249 40.5503 55.0249H40.4168V55.2736H40.5503C40.6454 55.2736 40.702 55.2271 40.702 55.1442L40.704 55.1483Z" fill="#263238"/>
<path d="M41.4539 55.439V55.5078H41.0495V55.4532L41.2739 55.2368C41.3326 55.1801 41.3427 55.1458 41.3427 55.1114C41.3427 55.077 41.3023 55.0204 41.2254 55.0204C41.1992 55.0187 41.1729 55.0231 41.1487 55.0333C41.1245 55.0435 41.103 55.0591 41.0859 55.079L41.0312 55.0325C41.0567 55.0046 41.088 54.9826 41.123 54.9683C41.158 54.9539 41.1957 54.9475 41.2335 54.9496C41.3488 54.9496 41.4216 55.0082 41.4216 55.1033C41.4203 55.1372 41.4114 55.1704 41.3957 55.2005C41.38 55.2306 41.3577 55.2568 41.3306 55.2772L41.1627 55.439H41.4539Z" fill="#263238"/>
<path d="M38.8493 56.4055L38.4651 57.5765H38.1738L37.917 56.7837L37.65 57.5704H37.3608L36.9766 56.3994H37.2577L37.5226 57.2225L37.7977 56.3994H38.0484L38.3174 57.2286L38.5884 56.3994L38.8493 56.4055Z" fill="#263238"/>
<path d="M39.9241 57.0612V57.5709H39.6632V57.0956C39.6632 56.95 39.5965 56.8832 39.4812 56.8832C39.3659 56.8832 39.2648 56.9601 39.2648 57.1259V57.5709H39.0039V56.3291H39.2648V56.7619C39.3028 56.7259 39.3476 56.6979 39.3965 56.6795C39.4455 56.6611 39.4977 56.6527 39.55 56.6547C39.603 56.6507 39.6562 56.6587 39.7057 56.6782C39.7551 56.6977 39.7995 56.7282 39.8355 56.7673C39.8716 56.8064 39.8982 56.8532 39.9136 56.9041C39.9289 56.955 39.9325 57.0087 39.9241 57.0612Z" fill="#263238"/>
<path d="M40.957 57.0629V57.5706H40.7123V57.4573C40.6825 57.501 40.6413 57.5358 40.5932 57.5579C40.5451 57.58 40.4919 57.5886 40.4393 57.5827C40.227 57.5827 40.1016 57.4654 40.1016 57.3117C40.1016 57.158 40.2148 57.0407 40.4878 57.0407H40.6901C40.6901 56.9295 40.6233 56.8647 40.4878 56.8647C40.3948 56.8634 40.3039 56.8925 40.229 56.9477L40.1359 56.7656C40.2516 56.6913 40.3868 56.6533 40.5242 56.6564C40.7973 56.6625 40.957 56.7899 40.957 57.0629ZM40.6962 57.2915V57.2005H40.5162C40.3948 57.2005 40.3564 57.2449 40.3564 57.3056C40.3564 57.3663 40.411 57.4148 40.504 57.4148C40.5447 57.416 40.5849 57.4049 40.6192 57.3829C40.6534 57.3608 40.6803 57.329 40.6962 57.2915Z" fill="#263238"/>
<path d="M41.7736 57.5323C41.7101 57.5723 41.6361 57.592 41.5612 57.589C41.5169 57.5953 41.4717 57.5915 41.429 57.5778C41.3864 57.5641 41.3474 57.5409 41.3151 57.5099C41.2827 57.4789 41.2578 57.441 41.2423 57.399C41.2268 57.357 41.221 57.312 41.2255 57.2674V56.8973H41.0859V56.6951H41.2255V56.4746H41.4864V56.6951H41.7109V56.8973H41.4864V57.2634C41.4842 57.2788 41.4856 57.2946 41.4903 57.3095C41.495 57.3244 41.503 57.338 41.5136 57.3495C41.5243 57.3609 41.5373 57.3698 41.5519 57.3755C41.5664 57.3813 41.582 57.3837 41.5976 57.3827C41.6361 57.3828 41.6736 57.3708 41.7048 57.3483L41.7736 57.5323Z" fill="#263238"/>
<path d="M42.3594 56.4054C42.3639 56.3654 42.3829 56.3284 42.413 56.3015C42.443 56.2746 42.4819 56.2598 42.5222 56.2598C42.5625 56.2598 42.6014 56.2746 42.6314 56.3015C42.6615 56.3284 42.6805 56.3654 42.685 56.4054C42.6851 56.4264 42.6808 56.4472 42.6724 56.4664C42.664 56.4856 42.6518 56.5029 42.6364 56.5172C42.621 56.5314 42.6028 56.5424 42.583 56.5492C42.5631 56.5561 42.5421 56.5588 42.5212 56.5571C42.5004 56.5588 42.4794 56.5561 42.4597 56.5492C42.44 56.5423 42.4219 56.5314 42.4067 56.5171C42.3914 56.5028 42.3794 56.4855 42.3712 56.4663C42.3631 56.447 42.359 56.4263 42.3594 56.4054ZM42.3918 56.6764H42.6526V57.5703H42.3918V56.6764Z" fill="#263238"/>
<path d="M42.8086 57.4915L42.8956 57.3054C42.9899 57.3613 43.0973 57.3913 43.207 57.3924C43.3284 57.3924 43.3728 57.36 43.3728 57.3094C43.3728 57.1618 42.8288 57.3095 42.8288 56.9535C42.8288 56.7836 42.9825 56.6623 43.2454 56.6623C43.3654 56.6597 43.4843 56.6868 43.5913 56.7412L43.5063 56.9272C43.4268 56.8823 43.3368 56.8593 43.2454 56.8605C43.1281 56.8605 43.0796 56.8969 43.0796 56.9434C43.0796 57.0971 43.6216 56.9434 43.6216 57.3034C43.6216 57.4712 43.4659 57.5885 43.1969 57.5885C43.0611 57.5918 42.9269 57.5583 42.8086 57.4915Z" fill="#263238"/>
<path d="M45.1727 56.3352V57.5709H44.9219V57.4657C44.8875 57.5054 44.8445 57.5366 44.7961 57.5569C44.7477 57.5773 44.6952 57.5862 44.6428 57.583C44.52 57.583 44.4022 57.5342 44.3153 57.4473C44.2285 57.3605 44.1797 57.2427 44.1797 57.1199C44.1797 56.997 44.2285 56.8792 44.3153 56.7924C44.4022 56.7055 44.52 56.6567 44.6428 56.6567C44.6928 56.6548 44.7427 56.6635 44.7891 56.6823C44.8355 56.7011 44.8773 56.7297 44.9118 56.7659V56.3291L45.1727 56.3352ZM44.9158 57.1259C44.9135 57.0808 44.8978 57.0373 44.8709 57.0009C44.844 56.9646 44.807 56.9369 44.7645 56.9214C44.722 56.906 44.6758 56.9033 44.6318 56.9139C44.5878 56.9245 44.5479 56.9477 44.5171 56.9808C44.4862 57.0139 44.4657 57.0553 44.4582 57.0999C44.4507 57.1445 44.4565 57.1903 44.4749 57.2317C44.4933 57.273 44.5234 57.3081 44.5615 57.3324C44.5996 57.3568 44.6441 57.3694 44.6893 57.3686C44.7205 57.3687 44.7513 57.3624 44.7799 57.35C44.8085 57.3376 44.8342 57.3194 44.8555 57.2967C44.8768 57.2739 44.8931 57.247 44.9035 57.2176C44.9139 57.1882 44.9181 57.157 44.9158 57.1259Z" fill="#263238"/>
<path d="M46.2882 57.2007H45.6067C45.6213 57.2566 45.6555 57.3054 45.7029 57.3384C45.7504 57.3714 45.808 57.3864 45.8656 57.3806C45.907 57.3825 45.9483 57.3757 45.9869 57.3607C46.0256 57.3458 46.0607 57.3229 46.09 57.2937L46.2296 57.4433C46.159 57.5109 46.071 57.5575 45.9754 57.5779C45.8798 57.5982 45.7805 57.5915 45.6885 57.5586C45.5965 57.5256 45.5155 57.4676 45.4546 57.3912C45.3937 57.3148 45.3553 57.2229 45.3438 57.1258C45.3431 57.0633 45.3553 57.0013 45.3795 56.9436C45.4037 56.8859 45.4395 56.8338 45.4845 56.7904C45.5296 56.7471 45.5831 56.7134 45.6416 56.6914C45.7002 56.6694 45.7626 56.6597 45.8251 56.6627C45.8873 56.6595 45.9495 56.6694 46.0076 56.6917C46.0657 56.7141 46.1185 56.7484 46.1626 56.7924C46.2066 56.8365 46.2409 56.8892 46.2632 56.9474C46.2856 57.0055 46.2955 57.0677 46.2923 57.1299C46.2923 57.1501 46.2903 57.1784 46.2882 57.2007ZM45.6047 57.047H46.0476C46.0389 56.9945 46.0118 56.9469 45.9713 56.9125C45.9307 56.8781 45.8793 56.8592 45.8261 56.8592C45.773 56.8592 45.7215 56.8781 45.681 56.9125C45.6404 56.9469 45.6134 56.9945 45.6047 57.047Z" fill="#263238"/>
<path d="M46.3828 57.4914L46.4698 57.3054C46.5649 57.3613 46.673 57.3912 46.7833 57.3923C46.9026 57.3923 46.9491 57.36 46.9491 57.3094C46.9491 57.1618 46.4051 57.3094 46.4051 56.9535C46.4051 56.7836 46.5588 56.6623 46.8217 56.6623C46.9417 56.6599 47.0604 56.687 47.1675 56.7411L47.0805 56.9272C47.0017 56.8825 46.9123 56.8595 46.8217 56.8604C46.7044 56.8604 46.6538 56.8968 46.6538 56.9434C46.6538 57.0971 47.1978 56.9434 47.1978 57.3034C47.1978 57.4712 47.0421 57.5885 46.7731 57.5885C46.6367 57.5915 46.502 57.558 46.3828 57.4914Z" fill="#263238"/>
<path d="M47.3203 56.4053C47.3208 56.3848 47.3255 56.3645 47.3341 56.3458C47.3427 56.3272 47.3551 56.3105 47.3705 56.2968C47.3859 56.2832 47.4039 56.2728 47.4235 56.2664C47.443 56.26 47.4637 56.2578 47.4841 56.2597C47.5041 56.2575 47.5242 56.2594 47.5434 56.2653C47.5626 56.2712 47.5803 56.281 47.5955 56.2941C47.6107 56.3072 47.623 56.3233 47.6317 56.3414C47.6404 56.3595 47.6452 56.3792 47.6459 56.3992C47.6414 56.4393 47.6224 56.4763 47.5923 56.5032C47.5623 56.53 47.5234 56.5449 47.4831 56.5449C47.4428 56.5449 47.4039 56.53 47.3739 56.5032C47.3439 56.4763 47.3248 56.4393 47.3203 56.3992V56.4053ZM47.3527 56.6763H47.6136V57.5702H47.3527V56.6763Z" fill="#263238"/>
<path d="M48.7895 56.6768V57.4251C48.7978 57.4928 48.7903 57.5615 48.7676 57.6258C48.7448 57.6901 48.7075 57.7482 48.6585 57.7957C48.6095 57.8431 48.5502 57.8785 48.4852 57.8991C48.4202 57.9198 48.3512 57.925 48.2839 57.9145C48.1276 57.9205 47.9734 57.8773 47.843 57.7911L47.9461 57.6031C48.0384 57.6699 48.1497 57.7053 48.2636 57.7042C48.4477 57.7042 48.5286 57.6213 48.5286 57.4595V57.421C48.4916 57.4586 48.447 57.488 48.3979 57.5071C48.3487 57.5263 48.2961 57.5349 48.2434 57.5323C48.1281 57.5323 48.0175 57.4865 47.936 57.4049C47.8544 57.3234 47.8086 57.2128 47.8086 57.0974C47.8086 56.9821 47.8544 56.8715 47.936 56.79C48.0175 56.7084 48.1281 56.6626 48.2434 56.6626C48.2999 56.6596 48.3563 56.6697 48.4083 56.6922C48.4602 56.7146 48.5062 56.7488 48.5427 56.7921V56.6768H48.7895ZM48.5346 57.0974C48.5379 57.0501 48.5268 57.0029 48.5029 56.9619C48.4789 56.9209 48.4432 56.8881 48.4003 56.8677C48.3575 56.8472 48.3095 56.8402 48.2626 56.8474C48.2157 56.8546 48.172 56.8758 48.1373 56.9081C48.1025 56.9405 48.0784 56.9825 48.0678 57.0288C48.0573 57.0751 48.061 57.1235 48.0783 57.1677C48.0956 57.2119 48.1258 57.2498 48.165 57.2766C48.2042 57.3034 48.2505 57.3178 48.298 57.3179C48.3284 57.3204 48.3589 57.3166 48.3877 57.3066C48.4165 57.2967 48.4428 57.2808 48.4651 57.26C48.4874 57.2393 48.5051 57.2141 48.5171 57.1861C48.529 57.1581 48.535 57.1279 48.5346 57.0974Z" fill="#263238"/>
<path d="M49.9494 57.0606V57.5702H49.6885V57.095C49.6885 56.9494 49.6218 56.8826 49.5065 56.8826C49.3912 56.8826 49.2921 56.9595 49.2921 57.1253V57.5702H49.0312V56.6703H49.28V56.7754C49.3184 56.7358 49.3647 56.7046 49.4159 56.684C49.4671 56.6635 49.5221 56.654 49.5773 56.6561C49.63 56.6525 49.6828 56.6607 49.7318 56.6802C49.7808 56.6998 49.8248 56.7301 49.8606 56.7689C49.8963 56.8078 49.9229 56.8541 49.9382 56.9046C49.9536 56.9551 49.9574 57.0084 49.9494 57.0606Z" fill="#263238"/>
<path d="M50.6132 56.738C50.6132 56.6571 50.5424 56.6046 50.4332 56.6046C50.3857 56.6033 50.3386 56.6139 50.2962 56.6354C50.2538 56.657 50.2175 56.6888 50.1905 56.7279L49.9883 56.6106C50.0411 56.5356 50.1124 56.4754 50.1954 56.4361C50.2783 56.3968 50.37 56.3795 50.4615 56.3861C50.7123 56.3861 50.8862 56.4974 50.8862 56.6956C50.8862 56.9625 50.6051 56.9929 50.6051 57.1708H50.3523C50.3523 56.9362 50.6132 56.8836 50.6132 56.738ZM50.32 57.4378C50.3244 57.3983 50.3432 57.3617 50.3729 57.3352C50.4026 57.3087 50.441 57.2941 50.4807 57.2941C50.5205 57.2941 50.5589 57.3087 50.5886 57.3352C50.6182 57.3617 50.6371 57.3983 50.6415 57.4378C50.6371 57.4773 50.6182 57.5138 50.5886 57.5403C50.5589 57.5669 50.5205 57.5815 50.4807 57.5815C50.441 57.5815 50.4026 57.5669 50.3729 57.5403C50.3432 57.5138 50.3244 57.4773 50.32 57.4378Z" fill="#263238"/>
<path d="M54.5563 74.2109H36.7065C36.0303 74.2103 35.3819 73.9415 34.9038 73.4633C34.4256 72.9852 34.1568 72.3368 34.1562 71.6606C34.1568 70.9844 34.4256 70.336 34.9038 69.8579C35.3819 69.3797 36.0303 69.1109 36.7065 69.1104H54.5563C55.2326 69.1104 55.8813 69.379 56.3596 69.8573C56.8378 70.3356 57.1065 70.9842 57.1065 71.6606C57.1065 72.337 56.8378 72.9856 56.3596 73.4639C55.8813 73.9422 55.2326 74.2109 54.5563 74.2109Z" fill="#EC6980"/>
<path d="M40.6472 71.1992V72.2772H40.445L39.907 71.6239V72.2772H39.6562V71.1992H39.8585L40.3944 71.8545V71.1992H40.6472Z" fill="white"/>
<path d="M41.7337 72.0769V72.2791H40.8984V71.2012H41.7074V71.4034H41.1411V71.638H41.6568V71.8403H41.1573V72.089L41.7337 72.0769Z" fill="white"/>
<path d="M42.5998 72.2772L42.3389 71.903L42.0841 72.2772H41.7969L42.2014 71.7291L41.8232 71.1992H42.1063L42.3551 71.5491L42.5977 71.1992H42.8687L42.4865 71.7271L42.891 72.2832L42.5998 72.2772Z" fill="white"/>
<path d="M43.1993 71.4034H42.8555V71.2012H43.7939V71.4034H43.4501V72.2771H43.1993V71.4034Z" fill="white"/>
<path d="M44.2852 71.7399C44.2923 71.6238 44.3333 71.5122 44.4032 71.4191C44.4731 71.3261 44.5688 71.2556 44.6784 71.2164C44.7881 71.1772 44.9068 71.171 45.0198 71.1986C45.1329 71.2263 45.2354 71.2865 45.3146 71.3719L45.1548 71.5215C45.1222 71.4812 45.0808 71.4488 45.0339 71.4268C44.987 71.4047 44.9356 71.3935 44.8838 71.3941C44.8363 71.3905 44.7885 71.3967 44.7436 71.4124C44.6986 71.428 44.6573 71.4529 44.6224 71.4852C44.5874 71.5176 44.5595 71.5568 44.5404 71.6005C44.5214 71.6442 44.5115 71.6913 44.5115 71.7389C44.5115 71.7866 44.5214 71.8337 44.5404 71.8774C44.5595 71.921 44.5874 71.9603 44.6224 71.9927C44.6573 72.025 44.6986 72.0498 44.7436 72.0655C44.7885 72.0812 44.8363 72.0874 44.8838 72.0838C44.9356 72.0843 44.987 72.0732 45.0339 72.0511C45.0808 72.029 45.1222 71.9966 45.1548 71.9563L45.3146 72.104C45.2361 72.1901 45.1339 72.2511 45.0209 72.2795C44.9078 72.3079 44.789 72.3023 44.6791 72.2634C44.5693 72.2246 44.4733 72.1542 44.4032 72.0611C44.3331 71.968 44.2921 71.8563 44.2852 71.7399Z" fill="white"/>
<path d="M46.4809 71.1992V72.2772H46.2321V71.8363H45.7407V72.2772H45.5V71.1992H45.7488V71.6239H46.2402V71.1992H46.4809Z" fill="white"/>
<path d="M47.4452 72.0466H46.9456L46.8506 72.2772H46.5938L47.0751 71.1992H47.3198L47.8011 72.2772H47.5423L47.4452 72.0466ZM47.3663 71.8565L47.1964 71.452L47.0245 71.8565H47.3663Z" fill="white"/>
<path d="M48.8504 71.5916C48.8504 71.8302 48.6704 71.9799 48.3812 71.9799H48.1648V72.2772H47.9141V71.1992H48.3812C48.6704 71.1992 48.8504 71.3489 48.8504 71.5916ZM48.5976 71.5916C48.5976 71.4722 48.5208 71.4035 48.3671 71.4035H48.1648V71.7776H48.3671C48.5208 71.7776 48.5976 71.7068 48.5976 71.5916Z" fill="white"/>
<path d="M49.2188 71.4034H48.875V71.2012H49.8134V71.4034H49.4696V72.2771H49.2188V71.4034Z" fill="white"/>
<path d="M50.7845 72.0769V72.2791H49.9492V71.2012H50.7582V71.4034H50.1919V71.638H50.6914V71.8403H50.1919V72.089L50.7845 72.0769Z" fill="white"/>
<path d="M51.6698 72.2772L51.4676 71.9778H51.2391V72.2772H50.9883V71.1992H51.4555C51.7426 71.1992 51.9226 71.3489 51.9226 71.5916C51.9257 71.6641 51.9061 71.7357 51.8666 71.7966C51.8271 71.8575 51.7696 71.9045 51.7022 71.9313L51.9429 72.2772H51.6698ZM51.4352 71.4035H51.233V71.7796H51.4352C51.5889 71.7796 51.6658 71.7068 51.6658 71.5916C51.6658 71.4763 51.5889 71.4035 51.4352 71.4035Z" fill="white"/>
<path d="M30.4456 43.5715C30.445 43.5336 30.4522 43.4959 30.4667 43.4609C30.4813 43.4258 30.5029 43.3941 30.5302 43.3678C30.5575 43.3414 30.5899 43.3209 30.6255 43.3076C30.661 43.2943 30.6989 43.2885 30.7368 43.2904C30.7746 43.2899 30.812 43.2972 30.8468 43.3118C30.8816 43.3265 30.913 43.3481 30.9391 43.3753L30.8865 43.4259C30.8669 43.4048 30.8431 43.3881 30.8166 43.377C30.7901 43.3658 30.7615 43.3604 30.7328 43.3612C30.6767 43.3612 30.623 43.3835 30.5833 43.4231C30.5437 43.4627 30.5214 43.5165 30.5214 43.5725C30.5214 43.6286 30.5437 43.6823 30.5833 43.722C30.623 43.7616 30.6767 43.7839 30.7328 43.7839C30.7617 43.7844 30.7903 43.7787 30.8169 43.7672C30.8434 43.7557 30.8671 43.7386 30.8865 43.7171L30.9391 43.7677C30.8984 43.8087 30.8465 43.8368 30.79 43.8485C30.7334 43.8602 30.6746 43.8549 30.6211 43.8333C30.5675 43.8117 30.5215 43.7747 30.4888 43.7271C30.4562 43.6794 30.4383 43.6232 30.4375 43.5654L30.4456 43.5715Z" fill="#263238"/>
<path d="M31.5337 43.2959V43.846H31.4548V43.6013H31.1414V43.846H31.0625V43.2959H31.1414V43.5325H31.4589V43.2959H31.5337Z" fill="#263238"/>
<path d="M32.0464 43.7085H31.747L31.6864 43.846H31.6055L31.8542 43.2959H31.9493L32.198 43.846H32.1151L32.0464 43.7085ZM32.0201 43.6458L31.9007 43.3768L31.7814 43.6458H32.0201Z" fill="#263238"/>
<path d="M32.7162 43.488C32.7162 43.6073 32.6313 43.6802 32.4877 43.6802H32.3542V43.846H32.2773V43.2959H32.4917C32.6313 43.2959 32.7162 43.3687 32.7162 43.488ZM32.6373 43.488C32.6373 43.4091 32.5847 43.3647 32.4857 43.3647H32.3542V43.6154H32.4897C32.5848 43.6154 32.6373 43.5669 32.6373 43.488Z" fill="#263238"/>
<path d="M32.9225 43.3647H32.7344V43.2959H33.1894V43.3647H32.9993V43.846H32.9225V43.3647Z" fill="#263238"/>
<path d="M33.6779 43.7793V43.846H33.2734V43.2959H33.6617V43.3647H33.3665V43.5345H33.6415V43.6013H33.3665V43.7793H33.6779Z" fill="#263238"/>
<path d="M34.1748 43.846L34.0555 43.6781H33.8836V43.846H33.8047V43.2959H34.0211C34.1647 43.2959 34.2496 43.3687 34.2496 43.488C34.2517 43.5264 34.241 43.5644 34.219 43.5959C34.197 43.6275 34.165 43.6507 34.1283 43.662L34.2597 43.846H34.1748ZM34.1748 43.488C34.1748 43.4091 34.1222 43.3647 34.0231 43.3647H33.8876V43.6154H34.0231C34.1161 43.6154 34.1748 43.5669 34.1748 43.488Z" fill="#263238"/>
<path d="M34.7101 43.2959V43.846H34.6332V43.3647H34.5078V43.2959H34.7101Z" fill="#263238"/>
<path d="M30.5352 44.9736H30.7778V46.0172H30.5352V44.9736Z" fill="#263238"/>
<path d="M31.9761 44.9736V46.0172H31.7739L31.2541 45.3842V46.0172H31.0195V44.9736H31.2218L31.7395 45.6087V44.9736H31.9761Z" fill="#263238"/>
<path d="M32.4392 45.171H32.1055V44.9688H33.0156V45.171H32.6819V46.0164H32.4392V45.171Z" fill="#263238"/>
<path d="M33.806 46.0172L33.6038 45.726H33.3813V46.0172H33.1406V44.9736H33.5916C33.8707 44.9736 34.0446 45.1192 34.0446 45.3538C34.0477 45.424 34.0286 45.4934 33.9902 45.5521C33.9517 45.6109 33.8958 45.6562 33.8303 45.6815L34.0649 46.0172H33.806ZM33.5795 45.1718H33.3772V45.5338H33.5795C33.7271 45.5338 33.802 45.4671 33.802 45.3538C33.802 45.2406 33.7271 45.1718 33.5795 45.1718Z" fill="#263238"/>
<path d="M34.1727 45.4952C34.1666 45.3813 34.1948 45.2682 34.2537 45.1705C34.3126 45.0728 34.3994 44.995 34.5029 44.9472C34.6064 44.8993 34.7219 44.8836 34.8345 44.902C34.947 44.9205 35.0515 44.9723 35.1343 45.0507C35.2171 45.1291 35.2745 45.2306 35.2991 45.342C35.3237 45.4533 35.3143 45.5695 35.2722 45.6755C35.2301 45.7815 35.1571 45.8724 35.0628 45.9365C34.9684 46.0007 34.8571 46.035 34.743 46.0352C34.6695 46.0396 34.5959 46.0289 34.5267 46.0037C34.4575 45.9785 34.3942 45.9394 34.3408 45.8888C34.2873 45.8382 34.2448 45.7772 34.2159 45.7094C34.187 45.6417 34.1723 45.5688 34.1727 45.4952ZM35.0706 45.4952C35.0694 45.4307 35.0492 45.3679 35.0125 45.3148C34.9758 45.2618 34.9242 45.2207 34.8642 45.1969C34.8043 45.173 34.7386 45.1674 34.6754 45.1807C34.6123 45.194 34.5545 45.2257 34.5093 45.2717C34.4641 45.3178 34.4335 45.3762 34.4213 45.4395C34.4091 45.5029 34.416 45.5685 34.4409 45.628C34.4659 45.6875 34.5079 45.7383 34.5616 45.7741C34.6154 45.8098 34.6785 45.8289 34.743 45.8289C34.7869 45.83 34.8305 45.8221 34.8712 45.8057C34.9118 45.7893 34.9487 45.7646 34.9794 45.7333C35.0102 45.702 35.0341 45.6647 35.0498 45.6237C35.0655 45.5828 35.0726 45.539 35.0706 45.4952Z" fill="#263238"/>
<path d="M35.4961 44.9727H35.9693C36.0417 44.9663 36.1146 44.9751 36.1835 44.9984C36.2523 45.0217 36.3155 45.0591 36.3691 45.1082C36.4227 45.1573 36.4655 45.217 36.4947 45.2835C36.524 45.35 36.5391 45.4218 36.5391 45.4945C36.5391 45.5672 36.524 45.639 36.4947 45.7055C36.4655 45.772 36.4227 45.8317 36.3691 45.8808C36.3155 45.9299 36.2523 45.9673 36.1835 45.9906C36.1146 46.0139 36.0417 46.0227 35.9693 46.0163H35.4961V44.9727ZM35.9572 45.8181C35.9997 45.8181 36.0418 45.8097 36.081 45.7935C36.1203 45.7772 36.156 45.7534 36.186 45.7233C36.2161 45.6933 36.2399 45.6576 36.2562 45.6183C36.2724 45.5791 36.2808 45.537 36.2808 45.4945C36.2808 45.452 36.2724 45.4099 36.2562 45.3707C36.2399 45.3314 36.2161 45.2957 36.186 45.2657C36.156 45.2357 36.1203 45.2118 36.081 45.1956C36.0418 45.1793 35.9997 45.1709 35.9572 45.1709H35.7368V45.8181H35.9572Z" fill="#263238"/>
<path d="M36.7198 45.5581V44.9736H36.9625V45.55C36.9625 45.7523 37.0474 45.8291 37.195 45.8291C37.3427 45.8291 37.4256 45.7482 37.4256 45.55V44.9736H37.6642V45.5581C37.6685 45.6227 37.6594 45.6875 37.6376 45.7485C37.6157 45.8094 37.5817 45.8653 37.5374 45.9125C37.4931 45.9598 37.4396 45.9975 37.3802 46.0232C37.3208 46.049 37.2567 46.0623 37.192 46.0623C37.1272 46.0623 37.0632 46.049 37.0038 46.0232C36.9444 45.9975 36.8909 45.9598 36.8466 45.9125C36.8023 45.8653 36.7682 45.8094 36.7464 45.7485C36.7246 45.6875 36.7155 45.6227 36.7198 45.5581Z" fill="#263238"/>
<path d="M37.8359 45.4945C37.843 45.3822 37.8828 45.2745 37.9505 45.1847C38.0182 45.0949 38.1107 45.027 38.2167 44.9893C38.3226 44.9516 38.4373 44.9458 38.5465 44.9727C38.6557 44.9996 38.7546 45.058 38.831 45.1406L38.6752 45.2841C38.6439 45.2453 38.6041 45.214 38.5589 45.1926C38.5137 45.1712 38.4643 45.1604 38.4143 45.1608C38.3258 45.1608 38.241 45.1959 38.1784 45.2585C38.1158 45.3211 38.0807 45.406 38.0807 45.4945C38.0807 45.583 38.1158 45.6679 38.1784 45.7304C38.241 45.793 38.3258 45.8282 38.4143 45.8282C38.4644 45.829 38.514 45.8184 38.5592 45.797C38.6045 45.7756 38.6442 45.744 38.6752 45.7048L38.831 45.8484C38.755 45.9319 38.6561 45.9911 38.5466 46.0186C38.4371 46.046 38.322 46.0405 38.2156 46.0027C38.1093 45.9648 38.0165 45.8964 37.9489 45.806C37.8814 45.7156 37.8421 45.6072 37.8359 45.4945Z" fill="#263238"/>
<path d="M39.2009 45.171H38.8672V44.9688H39.7752V45.171H39.4335V46.0164H39.1928L39.2009 45.171Z" fill="#263238"/>
<path d="M39.9023 44.9736H40.145V46.0172H39.9023V44.9736Z" fill="#263238"/>
<path d="M40.3289 45.4952C40.3229 45.3813 40.3511 45.2682 40.41 45.1705C40.4688 45.0728 40.5556 44.995 40.6592 44.9472C40.7627 44.8993 40.8782 44.8836 40.9908 44.902C41.1033 44.9205 41.2077 44.9723 41.2906 45.0507C41.3734 45.1291 41.4308 45.2306 41.4554 45.342C41.4799 45.4533 41.4706 45.5695 41.4284 45.6755C41.3863 45.7815 41.3134 45.8724 41.219 45.9365C41.1247 46.0007 41.0133 46.035 40.8993 46.0352C40.8258 46.0396 40.7521 46.0289 40.683 46.0037C40.6138 45.9785 40.5505 45.9394 40.497 45.8888C40.4436 45.8382 40.4011 45.7772 40.3721 45.7094C40.3432 45.6417 40.3285 45.5688 40.3289 45.4952ZM41.2249 45.4952C41.2237 45.4306 41.2034 45.3678 41.1666 45.3146C41.1298 45.2615 41.0781 45.2205 41.018 45.1967C40.9579 45.1729 40.8921 45.1674 40.8289 45.1808C40.7657 45.1943 40.7079 45.2262 40.6628 45.2724C40.6177 45.3187 40.5872 45.3773 40.5753 45.4408C40.5634 45.5043 40.5705 45.5699 40.5958 45.6294C40.621 45.6889 40.6633 45.7395 40.7173 45.775C40.7713 45.8105 40.8346 45.8293 40.8993 45.8289C40.943 45.8301 40.9866 45.8222 41.0271 45.8057C41.0677 45.7892 41.1044 45.7646 41.135 45.7332C41.1656 45.7019 41.1894 45.6646 41.2048 45.6236C41.2203 45.5826 41.2271 45.5389 41.2249 45.4952Z" fill="#263238"/>
<path d="M42.6068 44.9736V46.0172H42.4045L41.8848 45.3842V46.0172H41.6562V44.9736H41.8585L42.3762 45.6087V44.9736H42.6068Z" fill="#263238"/>
<path d="M45.5277 50.3203H45.9484C45.9665 50.3209 45.984 50.3263 45.9992 50.3361C46.0144 50.346 46.0266 50.3597 46.0345 50.376C46.0424 50.3922 46.0457 50.4103 46.0441 50.4283C46.0425 50.4463 46.0359 50.4635 46.0252 50.4781L45.8109 50.7733C45.8023 50.7858 45.7909 50.7961 45.7775 50.8032C45.7641 50.8102 45.7492 50.8139 45.734 50.8139C45.7189 50.8139 45.7039 50.8102 45.6906 50.8032C45.6772 50.7961 45.6657 50.7858 45.6572 50.7733L45.4549 50.4781C45.4436 50.464 45.4365 50.447 45.4343 50.4291C45.4321 50.4112 45.435 50.393 45.4425 50.3767C45.4501 50.3603 45.4621 50.3463 45.4771 50.3364C45.4922 50.3264 45.5097 50.3209 45.5277 50.3203Z" fill="#E0E0E0"/>
<path d="M59.412 47.4934C59.412 47.4934 59.4505 47.4934 59.5293 47.4934H59.8994V47.5197C58.326 47.542 52.4489 47.5602 45.4473 47.5602L34.8843 47.544L31.6828 47.5278H30.8112H30.5847C30.5591 47.5309 30.5333 47.5309 30.5078 47.5278H30.5847H30.8112L31.6828 47.5177L34.8843 47.4995L45.4473 47.4854C52.4489 47.4854 58.326 47.5015 59.8994 47.5238V47.5501H59.5293C59.4525 47.4975 59.412 47.4934 59.412 47.4934Z" fill="#263238"/>
<path d="M59.9257 49.1415C59.9257 49.1698 53.3771 49.194 45.3037 49.194C37.2303 49.194 30.6797 49.1698 30.6797 49.1415C30.6797 49.1131 37.2262 49.0889 45.3037 49.0889C53.3812 49.0889 59.9257 49.1131 59.9257 49.1415Z" fill="#263238"/>
<path d="M59.828 51.4266C59.828 51.4549 53.2795 51.4792 45.206 51.4792C37.1326 51.4792 30.582 51.4549 30.582 51.4266C30.582 51.3983 37.1286 51.374 45.206 51.374C53.2835 51.374 59.828 51.3983 59.828 51.4266Z" fill="#E0E0E0"/>
<path d="M59.9469 23.4382L60.8105 22.2592L61.7853 20.6696L62.4204 19.2256C62.4204 19.2256 62.4426 19.0557 62.2181 19.0395C61.9936 19.0233 61.6518 19.8161 61.6518 19.8161L61.3141 20.3581C61.3141 20.3581 60.942 20.6979 60.9359 20.6433C60.9298 20.5887 61.3141 19.8121 61.3141 19.8121L62.0664 18.093C62.0769 18.0316 62.0638 17.9684 62.0297 17.9163C61.9955 17.8641 61.9429 17.8268 61.8824 17.8119C61.755 17.7735 61.5851 17.8786 61.4435 18.1112C61.302 18.3438 61.1381 18.7928 61.0593 18.9202C60.9804 19.0476 60.5597 19.8505 60.5597 19.8505L61.215 17.7998C61.215 17.7998 61.5002 17.193 61.215 17.1041C60.9298 17.0151 60.8105 17.5267 60.7033 17.7108C60.5961 17.8948 60.135 19.2741 59.8843 19.5775C59.6335 19.8808 59.6941 19.6846 59.6941 19.6846L60.1108 18.5683C60.2928 18.0768 60.3029 17.7249 60.1411 17.5692C59.9793 17.4135 59.5566 18.5541 59.5566 18.5541L58.9297 20.1235L58.5555 20.5037L58.5212 19.897C58.5212 19.897 58.8629 19.3813 58.691 18.9505C58.5191 18.5197 58.2724 18.7018 58.2724 18.7018L57.5079 21.0821C57.427 21.5008 58.0338 22.6778 58.0338 22.6778L56.8203 24.771C56.8203 24.771 58.8245 26.0835 58.9135 26.0552C59.0025 26.0269 59.9469 23.4382 59.9469 23.4382Z" fill="#FFBF9D"/>
<path d="M59.7306 22.2389C59.6804 22.1078 59.6418 21.9724 59.6154 21.8344C59.5464 21.5084 59.3581 21.2199 59.0875 21.0255C58.9531 20.9353 58.7917 20.8939 58.6305 20.9082H58.5758V20.8475C58.5637 20.5886 58.5273 20.3439 58.5192 20.1801C58.5111 20.0163 58.5192 19.9111 58.5192 19.9111C58.546 19.9961 58.5642 20.0835 58.5738 20.172C58.6181 20.3974 58.6505 20.6248 58.6709 20.8536L58.6143 20.801C58.7991 20.7798 58.9855 20.8249 59.1401 20.9284C59.3124 21.0342 59.4523 21.1853 59.5446 21.3652C59.6159 21.5078 59.6669 21.6596 59.6963 21.8162C59.7309 21.9543 59.7425 22.0971 59.7306 22.2389Z" fill="#FF9A6C"/>
<path d="M41.6128 4.78575C41.6995 4.6191 41.8357 4.48338 42.0026 4.3972C42.1695 4.31102 42.359 4.27861 42.5451 4.30442C42.7633 4.13435 43.032 4.04199 43.3086 4.04199C43.5852 4.04199 43.8539 4.13435 44.072 4.30442C44.234 4.20407 44.4192 4.1474 44.6095 4.13995C44.7999 4.1325 44.9889 4.17452 45.1582 4.26192C45.3275 4.34931 45.4713 4.47909 45.5754 4.6386C45.6796 4.79811 45.7407 4.98189 45.7526 5.17203C45.9433 5.13694 46.1401 5.16295 46.3151 5.24633C46.4901 5.32972 46.6342 5.46622 46.7271 5.63638C46.8199 5.80655 46.8566 6.00167 46.832 6.19393C46.8073 6.38619 46.7226 6.56576 46.5899 6.70704C46.7991 6.77131 46.9771 6.91073 47.0896 7.09843C47.2021 7.28613 47.2411 7.50882 47.1991 7.72359C47.1572 7.93836 47.0372 8.13 46.8624 8.26158C46.6875 8.39315 46.4702 8.45536 46.2522 8.43619L41.8029 5.8192C41.6675 5.68823 41.5763 5.51822 41.5423 5.33293C41.5082 5.14765 41.5328 4.95634 41.6128 4.78575Z" fill="#263238"/>
<path d="M46.3864 8.55596C46.2911 7.61646 45.8455 6.7473 45.1383 6.12145C44.4312 5.49561 43.5143 5.15898 42.5701 5.17854H42.3679C40.2727 5.34438 39.2433 7.21713 39.4678 9.30627L39.9147 16.2836L40.2201 17.1573L43.8281 21.6793L44.7382 17.6042L44.7564 15.7133C44.7564 15.7133 46.7666 15.3573 46.7484 13.341C46.7484 12.3722 46.5705 10.368 46.3864 8.55596Z" fill="#FFBF9D"/>
<path d="M44.7603 15.7191C43.8295 15.7347 42.9137 15.4835 42.1211 14.9951C42.1211 14.9951 42.7683 16.4371 44.7502 16.2207L44.7603 15.7191Z" fill="#FF9A6C"/>
<path d="M45.5862 10.5432C45.5884 10.6186 45.5611 10.6918 45.5101 10.7474C45.4591 10.8029 45.3885 10.8363 45.3132 10.8405C45.2767 10.8441 45.2399 10.8404 45.2049 10.8296C45.1699 10.8188 45.1374 10.8011 45.1093 10.7775C45.0813 10.754 45.0582 10.725 45.0414 10.6924C45.0247 10.6598 45.0146 10.6242 45.0118 10.5877C45.0096 10.5127 45.0366 10.4397 45.0872 10.3842C45.1378 10.3287 45.2079 10.2951 45.2829 10.2904C45.3194 10.2868 45.3564 10.2905 45.3915 10.3013C45.4266 10.3121 45.4592 10.3298 45.4875 10.3533C45.5157 10.3768 45.539 10.4057 45.5559 10.4383C45.5729 10.4709 45.5832 10.5066 45.5862 10.5432Z" fill="#263238"/>
<path d="M45.9967 9.65383C45.9603 9.69226 45.7398 9.53451 45.4304 9.5426C45.121 9.55069 44.8965 9.70843 44.8621 9.67203C44.8277 9.63563 44.8803 9.58709 44.9774 9.51226C45.109 9.41608 45.2674 9.36372 45.4304 9.3626C45.592 9.35805 45.7508 9.40555 45.8834 9.4981C45.9805 9.56889 46.0129 9.63967 45.9967 9.65383Z" fill="#263238"/>
<path d="M42.8967 10.6231C42.8989 10.698 42.8718 10.7707 42.8212 10.8259C42.7706 10.881 42.7004 10.9142 42.6257 10.9184C42.5892 10.922 42.5524 10.9183 42.5174 10.9075C42.4824 10.8967 42.4499 10.879 42.4218 10.8554C42.3938 10.8319 42.3707 10.803 42.3539 10.7704C42.3372 10.7378 42.3271 10.7022 42.3243 10.6656C42.3221 10.5906 42.3491 10.5176 42.3997 10.4621C42.4503 10.4067 42.5204 10.373 42.5954 10.3683C42.6319 10.365 42.6688 10.369 42.7038 10.38C42.7388 10.3911 42.7713 10.409 42.7993 10.4327C42.8274 10.4564 42.8504 10.4854 42.8671 10.5181C42.8838 10.5508 42.8939 10.5865 42.8967 10.6231Z" fill="#263238"/>
<path d="M43.0318 9.67235C42.9975 9.70875 42.775 9.55303 42.4656 9.5591C42.1561 9.56516 41.9316 9.72695 41.8973 9.68853C41.8629 9.6501 41.9155 9.60359 42.0125 9.53078C42.1447 9.43432 42.3039 9.38195 42.4676 9.38112C42.6285 9.37686 42.7866 9.42436 42.9186 9.51662C43.0157 9.58741 43.048 9.65415 43.0318 9.67235Z" fill="#263238"/>
<path d="M44.1017 11.9451C44.2642 11.8916 44.4326 11.8576 44.6032 11.844C44.6821 11.844 44.7549 11.8177 44.767 11.7631C44.7729 11.6816 44.7531 11.6003 44.7104 11.5306C44.6315 11.3404 44.5506 11.1402 44.4637 10.9238C44.1219 10.0744 43.8711 9.37265 43.9055 9.36051C43.9399 9.34838 44.2453 10.0259 44.5891 10.8753L44.8257 11.482C44.8766 11.5766 44.8931 11.686 44.8722 11.7914C44.861 11.8192 44.8437 11.8441 44.8217 11.8644C44.7997 11.8847 44.7734 11.8998 44.7448 11.9087C44.7013 11.9211 44.6565 11.9286 44.6113 11.931C44.4427 11.9574 44.2715 11.9622 44.1017 11.9451Z" fill="#263238"/>
<path d="M43.0165 8.78619C42.9801 8.86709 42.7132 8.80035 42.3876 8.81249C42.0619 8.82462 41.795 8.89743 41.7606 8.81249C41.7444 8.77406 41.799 8.69923 41.9103 8.62845C42.0552 8.54166 42.2206 8.4949 42.3896 8.49295C42.5558 8.4862 42.7207 8.52464 42.8669 8.60418C42.9781 8.67496 43.0307 8.74777 43.0165 8.78619Z" fill="#263238"/>
<path d="M45.9029 8.80414C45.8564 8.88099 45.636 8.83043 45.3812 8.85268C45.1263 8.87492 44.914 8.94773 44.8574 8.87897C44.8311 8.84661 44.8574 8.7738 44.9463 8.69695C45.0619 8.60423 45.203 8.54917 45.3508 8.5392C45.5011 8.52523 45.6519 8.55921 45.7816 8.63628C45.8908 8.69897 45.9272 8.76774 45.9029 8.80414Z" fill="#263238"/>
<path d="M46.1698 7.63573C46.1698 7.63573 45.6136 6.38386 44.9988 6.10274C44.2546 5.76096 43.9532 6.57598 43.2474 6.39397C42.5416 6.21195 41.8317 5.88432 41.1239 6.44251C40.3493 7.04923 40.7194 7.45371 40.6972 8.35773C40.5738 11.9981 39.9327 13.0275 39.7102 11.3226C39.686 11.1365 39.1622 10.999 39.0691 10.2082C38.9478 9.18489 38.8831 7.94111 39.0974 7.209C39.2774 6.60228 39.6192 6.16139 40.2361 5.68208C41.2109 4.92368 42.5699 4.87312 43.4942 4.95402C44.4184 5.03491 46.2224 6.05218 46.1698 7.63573Z" fill="#263238"/>
<path d="M39.8382 11.2572C39.8343 11.1828 39.8152 11.11 39.7821 11.0432C39.749 10.9764 39.7027 10.917 39.6459 10.8688C39.5891 10.8205 39.5231 10.7843 39.4518 10.7624C39.3806 10.7405 39.3056 10.7334 39.2315 10.7415C38.8574 10.786 38.4428 11.0064 38.4832 11.7831C38.556 13.1603 39.9232 12.8044 39.9232 12.7639C39.9232 12.7235 39.8746 11.8417 39.8382 11.2572Z" fill="#FFBF9D"/>
<path d="M39.6006 12.2688C39.6006 12.2688 39.5763 12.287 39.5379 12.3073C39.4819 12.3349 39.4172 12.3393 39.3579 12.3194C39.2659 12.268 39.1895 12.1928 39.1365 12.1017C39.0834 12.0107 39.0559 11.907 39.0566 11.8017C39.0461 11.6842 39.0627 11.5659 39.1051 11.4558C39.1142 11.4106 39.1345 11.3683 39.1642 11.333C39.1939 11.2977 39.232 11.2703 39.275 11.2536C39.3023 11.2445 39.3319 11.2455 39.3586 11.2562C39.3852 11.2669 39.4072 11.2868 39.4206 11.3122C39.4408 11.3487 39.4348 11.377 39.4408 11.379C39.4469 11.381 39.4692 11.3547 39.455 11.2981C39.4462 11.2642 39.4253 11.2347 39.3963 11.2152C39.3772 11.2017 39.3554 11.1922 39.3325 11.1874C39.3096 11.1825 39.2859 11.1823 39.2629 11.1869C39.2067 11.2008 39.1551 11.229 39.1129 11.2687C39.0708 11.3083 39.0396 11.3582 39.0222 11.4134C38.9708 11.536 38.9493 11.6691 38.9595 11.8017C38.9838 12.0787 39.1395 12.3315 39.3417 12.3781C39.3792 12.3866 39.418 12.3867 39.4555 12.3783C39.4929 12.3699 39.528 12.3533 39.5581 12.3295C39.5986 12.3032 39.6047 12.2688 39.6006 12.2688Z" fill="#FF9A6C"/>
<path d="M39.8118 8.5936C39.9832 8.72744 40.1856 8.81579 40.4003 8.85045C40.508 8.86513 40.6174 8.84021 40.7082 8.78033C40.7989 8.72045 40.8649 8.62966 40.8938 8.52484C40.9079 8.42776 40.8816 8.3226 40.9423 8.2417C41.003 8.16081 41.1567 8.17699 41.2719 8.1871C41.4737 8.19872 41.6733 8.14052 41.8372 8.0223C42.0011 7.90407 42.1193 7.73302 42.1719 7.53791C42.2353 7.60435 42.3211 7.64488 42.4126 7.65161C42.5042 7.65833 42.595 7.63078 42.6674 7.57431C42.8078 7.45677 42.9317 7.3207 43.0355 7.16983C43.0873 7.0937 43.157 7.03141 43.2384 6.9884C43.3198 6.9454 43.4106 6.92297 43.5027 6.92309C43.6005 6.95408 43.7016 6.97376 43.804 6.98175C43.986 6.96152 44.0689 6.74917 44.0932 6.57726C44.1175 6.40536 44.1336 6.18694 44.2853 6.08582C44.4413 6.02078 44.6151 6.01219 44.7768 6.06155C44.9446 6.0838 45.159 6.0393 45.1974 5.87549C45.2035 5.83167 45.2007 5.78709 45.1892 5.74437C45.1777 5.70165 45.1578 5.66165 45.1307 5.62673C45.0155 5.46233 44.8482 5.34169 44.6558 5.28441C44.4634 5.22714 44.2573 5.23659 44.071 5.31124C43.9967 5.0852 43.8576 4.88598 43.671 4.73835C43.4844 4.59073 43.2585 4.50123 43.0215 4.48097C42.7844 4.46071 42.5466 4.51059 42.3377 4.62441C42.1287 4.73823 41.9579 4.91097 41.8463 5.12113C41.6972 4.99125 41.5189 4.89932 41.3265 4.85318C41.1342 4.80703 40.9336 4.80803 40.7418 4.85609C40.5499 4.90415 40.3726 4.99785 40.2247 5.12921C40.0769 5.26057 39.963 5.4257 39.8927 5.61055C39.723 5.56958 39.545 5.57942 39.3808 5.63885C39.2167 5.69828 39.0737 5.80468 38.9695 5.9448C38.8654 6.08492 38.8048 6.25258 38.7953 6.42689C38.7857 6.6012 38.8276 6.77446 38.9158 6.92512C38.789 6.99166 38.6812 7.08927 38.6023 7.20881C38.5234 7.32835 38.4761 7.46592 38.4648 7.60869C38.4648 7.89385 38.75 8.17092 39.023 8.09002C38.9676 8.20386 38.958 8.33465 38.9963 8.45535C39.0346 8.57605 39.1178 8.6774 39.2287 8.73846C39.3397 8.79951 39.4698 8.81558 39.5923 8.78335C39.7147 8.75112 39.8201 8.67305 39.8866 8.56529" fill="#263238"/>
<path d="M38.9154 8.07812C38.9111 8.12606 38.9172 8.17434 38.9333 8.2197C38.9493 8.26506 38.975 8.30644 39.0084 8.34104C39.0776 8.428 39.1775 8.48518 39.2875 8.50081C39.3576 8.51034 39.429 8.50422 39.4965 8.48289C39.564 8.46156 39.6259 8.42555 39.6778 8.37744H39.6192C39.6951 8.5037 39.7899 8.6176 39.9003 8.71518C39.9749 8.78092 40.0614 8.83172 40.1551 8.86484C40.2447 8.89637 40.341 8.90335 40.4342 8.88506C40.5129 8.8768 40.5889 8.85132 40.6567 8.81043C40.7245 8.76954 40.7825 8.71424 40.8265 8.64844C40.8803 8.56066 40.9161 8.46303 40.9317 8.36126C40.9438 8.29048 40.9459 8.25003 40.9317 8.24801C40.9144 8.28124 40.9015 8.31659 40.8933 8.35317C40.8681 8.44772 40.8271 8.53731 40.7719 8.61811C40.7218 8.67767 40.6599 8.72619 40.5901 8.76059C40.5203 8.79499 40.4441 8.81452 40.3663 8.81794C40.2886 8.82136 40.211 8.8086 40.1384 8.78047C40.0658 8.75234 39.9999 8.70945 39.9448 8.65451C39.8393 8.56318 39.7485 8.45607 39.6758 8.33699L39.6495 8.29655L39.6171 8.3289C39.5737 8.37058 39.5217 8.4023 39.4648 8.42186C39.4079 8.44142 39.3474 8.44834 39.2875 8.44216C39.1909 8.43207 39.1012 8.38756 39.0347 8.31677C38.9797 8.2458 38.9391 8.16472 38.9154 8.07812Z" fill="#455A64"/>
<path d="M41.4531 4.87709C41.4531 4.87709 41.4895 4.87709 41.5522 4.91147C41.6411 4.9468 41.7168 5.00902 41.7686 5.08945L41.7868 5.11371L41.805 5.08945C41.9728 4.85207 42.1983 4.66135 42.4603 4.53531C42.6288 4.45361 42.813 4.40945 43.0003 4.40587C43.2062 4.4016 43.4093 4.45482 43.5868 4.55957C43.7263 4.6403 43.847 4.74994 43.9407 4.88114C44.0254 5.00151 44.0808 5.14003 44.1025 5.28562V5.33011L44.1449 5.31798C44.3156 5.26637 44.4989 5.27685 44.6626 5.34756C44.8262 5.41827 44.9595 5.54464 45.0389 5.70426C45.0968 5.83154 45.1291 5.96898 45.1339 6.10874C45.1446 6.07198 45.1494 6.03375 45.1481 5.99548C45.1472 5.888 45.1237 5.7819 45.0793 5.68403C45.0103 5.53048 44.8941 5.40295 44.7476 5.32C44.5574 5.21347 44.3327 5.18657 44.1227 5.24517L44.1712 5.27551C44.1517 5.11495 44.0934 4.96155 44.0014 4.82855C43.9024 4.68625 43.7732 4.56749 43.6232 4.4807C43.4331 4.36824 43.215 4.31213 42.9942 4.31891C42.7965 4.32447 42.6025 4.3735 42.4259 4.4625C42.1563 4.59716 41.9279 4.80183 41.7646 5.05506H41.801C41.74 4.97117 41.6534 4.9094 41.5542 4.87911C41.5211 4.87103 41.4866 4.87034 41.4531 4.87709Z" fill="#455A64"/>
<path d="M43.275 12.4307C43.275 12.4307 42.8705 13.2619 43.728 13.4601C43.8025 13.4773 43.8803 13.4731 43.9525 13.4479C44.0177 13.4266 44.0764 13.3891 44.1231 13.3389C44.1698 13.2886 44.203 13.2273 44.2195 13.1608L44.3368 12.7098C44.3044 12.7199 43.275 12.4307 43.275 12.4307Z" fill="#FF9A6C"/>
<path d="M44.0278 13.4153C44.0278 13.4274 44.0076 13.4638 43.9327 13.4901C43.8278 13.5209 43.7162 13.5209 43.6112 13.4901C43.447 13.4523 43.3007 13.3595 43.1966 13.2272C43.1435 13.1425 43.1071 13.0485 43.0894 12.9501C43.0692 12.8459 43.0692 12.7388 43.0894 12.6346C43.1092 12.5355 43.1425 12.4395 43.1885 12.3494L43.2289 12.2686L43.3159 12.2969C43.9226 12.485 44.3595 12.6609 44.3453 12.7013C44.3312 12.7418 43.8599 12.6548 43.2492 12.4829L43.3746 12.4303C43.3393 12.5052 43.3128 12.584 43.2957 12.6649C43.2815 12.7439 43.2815 12.8247 43.2957 12.9036C43.3057 12.9742 43.3276 13.0425 43.3604 13.1058C43.4362 13.2092 43.5401 13.2885 43.6597 13.3344C43.7423 13.3706 43.8306 13.3919 43.9206 13.3971C43.9833 13.4112 44.0197 13.4031 44.0278 13.4153Z" fill="#263238"/>
<path d="M49.0704 38.4546L47.0965 20.4006L45.4382 16.8654L44.7829 16.2163L44.3845 17.7877L43.8283 19.7919L42.3054 17.8605L39.9008 15.9756L39.8462 16.9059L38.6914 20.3157L39.648 29.2163V38.4344L49.0704 38.4546Z" fill="white"/>
<path d="M44.7572 38.4345C44.7572 38.4345 44.7572 38.4184 44.7572 38.388C44.7572 38.3577 44.7572 38.3051 44.7572 38.2465C44.7572 38.1191 44.7451 37.937 44.737 37.7065C44.7208 37.2312 44.6986 36.5517 44.6703 35.7144C44.6116 34.0338 44.5186 31.7141 44.3871 29.1517C44.2557 26.5893 44.106 24.2696 43.9826 22.593C43.924 21.7578 43.8775 21.0783 43.8431 20.605C43.8289 20.3745 43.8168 20.2005 43.8067 20.065C43.8067 20.0057 43.8067 19.9592 43.8067 19.9255C43.804 19.9094 43.804 19.893 43.8067 19.877V19.9235C43.8067 19.9599 43.8067 20.0064 43.8208 20.065C43.833 20.1925 43.8492 20.3724 43.8714 20.603C43.9119 21.0722 43.9685 21.7497 44.0312 22.589C44.1606 24.2656 44.3163 26.5853 44.4478 29.1477C44.5793 31.7101 44.6662 34.0318 44.7107 35.7144C44.735 36.5537 44.7491 37.2353 44.7552 37.7045C44.7552 37.937 44.7552 38.1191 44.7552 38.2465V38.388C44.7577 38.4034 44.7583 38.419 44.7572 38.4345Z" fill="#263238"/>
<path d="M40.867 38.3878C40.8382 37.6939 40.8518 36.999 40.9075 36.3068C40.9823 34.8911 41.0632 32.355 40.9358 30.8463C40.6972 28.0149 40.1612 23.3634 40.1268 22.1277C40.0925 20.892 39.8761 16.2627 39.8761 16.2627L39.5282 16.8694L38.972 17.6339L33.9727 20.0304L36.7353 28.6762L37.6453 32.088L36.0618 38.4546" fill="#455A64"/>
<path d="M48.2281 38.5242C48.1937 37.6384 47.2593 30.2465 47.2593 30.2465L46.0297 18.6783L45.1055 16.4092L46.6122 17.2889L51.4902 18.8927L51.0999 22.3429L50.8754 31.2799L51.9068 38.4655" fill="#455A64"/>
<path d="M46.7109 17.2842C46.7339 17.3051 46.7549 17.3281 46.7736 17.3529L46.9415 17.5552L47.5664 18.3399L47.5806 18.3561L47.5644 18.3702L47.0325 18.7747V18.7302L47.6534 18.9324H47.6736V18.9527C47.6615 20.063 47.6473 21.4604 47.6311 22.9752C47.6028 24.8237 47.5785 26.4962 47.5624 27.7137C47.5502 28.3204 47.5401 28.8058 47.532 29.1496L47.5219 29.54V29.6431C47.5219 29.6653 47.5219 29.6775 47.5219 29.6775C47.5211 29.666 47.5211 29.6545 47.5219 29.6431V29.54C47.5219 29.4449 47.5219 29.3155 47.5219 29.1496C47.5219 28.8058 47.5219 28.3164 47.5219 27.7137C47.5341 26.5003 47.5523 24.8217 47.5705 22.9732C47.5927 21.4584 47.6129 20.0609 47.6271 18.9527L47.6473 18.979L47.0264 18.7767L46.9799 18.7605L47.0183 18.7322L47.5543 18.3277V18.3581L46.9476 17.5612L46.7878 17.359C46.7606 17.3357 46.7349 17.3107 46.7109 17.2842Z" fill="#263238"/>
<path d="M40.6467 29.393L40.6346 29.3586C40.6346 29.3323 40.6144 29.2999 40.6022 29.2595C40.5719 29.1665 40.5315 29.039 40.4769 28.8773C40.3697 28.5456 40.2079 28.0683 39.9996 27.4777L39.6558 26.5151C39.5201 26.1478 39.4033 25.7739 39.3059 25.3947C39.0971 24.5226 38.9337 23.6404 38.8165 22.7514C38.6486 21.5197 38.5394 20.3609 38.4727 19.3618V19.3477H38.4828L39.0207 18.8299V18.8724L38.5111 18.4841L38.4929 18.47L38.507 18.4497L39.4252 17.2039L39.678 16.8682L39.7448 16.7812L39.769 16.7529C39.769 16.7529 39.769 16.7651 39.7508 16.7853L39.6901 16.8763L39.4475 17.2201L38.5475 18.4801V18.4437L39.0612 18.8279L39.0854 18.8461L39.0632 18.8704L38.5293 19.3901L38.5394 19.3659C38.6122 20.3629 38.7234 21.5218 38.8933 22.7494C39.0089 23.6334 39.1695 24.5109 39.3746 25.3785C39.4698 25.7568 39.5838 26.13 39.7164 26.4969C39.8378 26.8427 39.949 27.1663 40.0522 27.4616C40.2544 28.0521 40.4081 28.5334 40.5092 28.8773C40.5598 29.0431 40.5982 29.1745 40.6225 29.2635L40.6467 29.3647C40.6467 29.3808 40.6467 29.3909 40.6467 29.393Z" fill="#263238"/>
<g opacity="0.3">
<path d="M36.7266 35.7675L39.3759 36.805L39.5519 36.2145L40.8644 37.3086L40.9352 35.6765L39.7824 34.0586L36.9207 34.9869L36.7266 35.7675Z" fill="black"/>
</g>
<path d="M45.7221 35.7449L44.6482 35.0937L43.7038 34.2382C43.9227 34.4152 44.1713 34.5522 44.4379 34.6427C44.5656 34.6817 44.7026 34.6774 44.8277 34.6306C44.9527 34.5838 45.0588 34.4971 45.1296 34.3838C45.1296 34.3838 44.7433 34.1391 44.6098 34.0663C44.4763 33.9935 43.1375 32.9924 42.7897 32.9196C42.4418 32.8468 40.2091 32.3877 40.2091 32.3877L40.1747 32.505L39.0664 34.8651L40.0513 35.1281C40.238 35.3915 40.4056 35.6679 40.5529 35.9552C40.7733 36.3981 41.8472 36.835 42.2618 37.0514C42.6764 37.2678 43.1416 36.8876 43.1416 36.8876C43.6168 36.9968 43.7341 36.4831 43.7341 36.4831C44.2802 36.4082 44.3267 35.8137 44.3267 35.8137C44.7509 35.9824 45.1836 36.1288 45.623 36.2525C45.6689 36.2649 45.7177 36.2595 45.7597 36.2373C45.8017 36.2152 45.8338 36.178 45.8496 36.1332C45.8778 36.0639 45.8806 35.9868 45.8572 35.9156C45.8339 35.8445 45.786 35.784 45.7221 35.7449Z" fill="#FFBF9D"/>
<path d="M44.3375 35.8116C44.1172 35.7455 43.9064 35.651 43.7105 35.5305C43.5027 35.4286 43.3139 35.2918 43.1523 35.126C43.1645 35.1099 43.4153 35.2858 43.7449 35.4658C43.9512 35.5654 44.1493 35.6811 44.3375 35.8116Z" fill="#FF9A6C"/>
<path d="M42.5938 35.7285C42.814 35.8239 43.0213 35.9469 43.2106 36.0946C43.413 36.2223 43.6075 36.3621 43.793 36.5132C43.5709 36.4216 43.362 36.3005 43.1722 36.1532C42.9696 36.0254 42.7764 35.8835 42.5938 35.7285Z" fill="#FF9A6C"/>
<path d="M42.168 36.1815C42.1801 36.1673 42.3884 36.3412 42.6655 36.5273C42.8402 36.6312 43.0029 36.754 43.1509 36.8934C42.9639 36.8124 42.7873 36.7092 42.625 36.586C42.448 36.4819 42.2928 36.3446 42.168 36.1815Z" fill="#FF9A6C"/>
<path d="M42.4453 33.3018C42.5283 33.3026 42.6102 33.3205 42.686 33.3543C42.8724 33.4214 43.0466 33.5184 43.2017 33.6415C43.3561 33.7648 43.4953 33.906 43.6163 34.0622C43.6709 34.1215 43.7147 34.19 43.7457 34.2644C43.5593 34.0645 43.3629 33.8742 43.1572 33.6941C42.9379 33.533 42.6986 33.4011 42.4453 33.3018Z" fill="#FF9A6C"/>
<path d="M32.0728 32.9764C31.9328 32.8886 31.8165 32.7679 31.734 32.6247C31.6515 32.4816 31.6053 32.3204 31.5995 32.1553C31.5899 31.6881 31.617 31.2208 31.6804 30.7578C31.8685 29.1824 33.9617 20.0391 33.9617 20.0391L37.0439 27.1701L36.152 30.2684L40.6923 32.4425L39.4303 36.008C39.4303 36.008 33.3954 33.7995 32.0728 32.9764Z" fill="#455A64"/>
<path d="M57.548 22.2012L55.1757 25.8982L51.4908 18.8926L50.2188 23.5947L50.9448 26.9094L53.6467 30.9542C54.0997 31.6277 55.5357 31.8764 56.4639 30.8126L60.4663 24.165L57.548 22.2012Z" fill="#455A64"/>
<path d="M50.971 21.1514C50.9732 21.185 50.9732 21.2188 50.971 21.2525C50.971 21.3233 50.971 21.4183 50.971 21.5376C50.971 21.7945 50.9831 22.1444 50.9912 22.5913C51.0013 23.4812 51.0074 24.7088 50.9912 26.0658C50.9751 27.4228 50.9508 28.6525 50.9225 29.5423C50.9063 29.9812 50.8921 30.3392 50.882 30.594C50.882 30.7133 50.882 30.8084 50.8679 30.8812C50.8675 30.9144 50.8641 30.9476 50.8578 30.9803C50.8547 30.9473 50.8547 30.9141 50.8578 30.8812C50.8578 30.8084 50.8578 30.7133 50.8578 30.594C50.8578 30.3371 50.8679 29.9873 50.8739 29.5403C50.8901 28.6525 50.9103 27.4228 50.9245 26.0658C50.9386 24.7088 50.9589 23.4812 50.9589 22.5832C50.9589 22.1444 50.9589 21.7864 50.9589 21.5296C50.9589 21.4123 50.9589 21.3152 50.9589 21.2444C50.9584 21.213 50.9625 21.1816 50.971 21.1514Z" fill="#263238"/>
<path d="M35.1722 22.1396C35.1843 22.1649 35.1938 22.1913 35.2005 22.2185L35.2692 22.4531C35.3299 22.6554 35.4128 22.9547 35.5139 23.3126C35.7162 24.0387 35.9933 25.0438 36.2764 26.1602C36.5595 27.2766 36.782 28.2959 36.9215 29.0361C36.9923 29.4082 37.0469 29.7095 37.0773 29.9178C37.0934 30.0149 37.1056 30.0958 37.1137 30.1565C37.1168 30.1847 37.1168 30.2132 37.1137 30.2414C37.1028 30.2155 37.0954 30.1883 37.0914 30.1605L37.0429 29.9219C37.0004 29.7075 36.9397 29.4102 36.8649 29.0462C36.7132 28.308 36.4827 27.2927 36.1995 26.1764C35.9164 25.06 35.6474 24.0549 35.4573 23.3248C35.3663 22.9668 35.2895 22.6715 35.2349 22.4592C35.2126 22.3621 35.1924 22.2853 35.1782 22.2226C35.1731 22.1952 35.1711 22.1674 35.1722 22.1396Z" fill="#263238"/>
<path d="M33.5784 33.7066L33.6067 33.7167L33.6916 33.747L34.0193 33.8684L35.2327 34.3376L39.4353 35.9737L39.3908 35.9939C39.6557 35.2477 39.9409 34.4387 40.2382 33.6014L40.6548 32.4264L40.671 32.4709L36.1954 30.3069C35.8537 30.1964 35.4934 30.1551 35.1356 30.1856C34.8659 30.2122 34.6019 30.2805 34.353 30.3878C34.1948 30.4557 34.042 30.5355 33.8959 30.6265L33.7847 30.7013C33.7584 30.7175 33.7462 30.7256 33.7442 30.7235L33.7806 30.6952L33.8898 30.6143C34.0327 30.5174 34.1836 30.4328 34.3408 30.3615C34.9307 30.0982 35.5972 30.0629 36.2116 30.2624L40.7074 32.4122L40.7357 32.4244L40.7256 32.4547L40.3089 33.6297L39.4595 36.0202L39.4494 36.0546L39.4171 36.0404L35.2226 34.38L34.0092 33.8947L33.6856 33.7612L33.6026 33.7248C33.5865 33.7066 33.5764 33.7066 33.5784 33.7066Z" fill="#263238"/>
<path d="M43.772 19.7219C43.7261 19.6875 43.6834 19.6489 43.6446 19.6066L43.3049 19.2689L42.1622 18.102H42.2128C42.0639 18.2832 41.9625 18.4987 41.9175 18.7289C41.8923 18.8499 41.8828 18.9736 41.8892 19.097V19.1758L41.8285 19.1253C41.2501 18.6561 40.7829 18.197 40.431 17.8835L40.0265 17.5134C39.9742 17.4718 39.9248 17.4266 39.8789 17.3779C39.9373 17.4115 39.9922 17.4508 40.0427 17.4952C40.1459 17.5741 40.2935 17.6975 40.4715 17.8492C40.8294 18.1545 41.3047 18.6076 41.8872 19.0626L41.8326 19.0929C41.824 18.9635 41.8335 18.8335 41.8609 18.7067C41.9072 18.4647 42.0143 18.2384 42.1723 18.0494L42.1966 18.0211L42.2229 18.0473L43.3473 19.2325L43.6729 19.5824C43.7103 19.6257 43.7434 19.6724 43.772 19.7219Z" fill="#263238"/>
<path d="M45.2953 17.167C45.3004 17.2025 45.3004 17.2386 45.2953 17.2742C45.2953 17.345 45.2953 17.4461 45.2811 17.5755C45.2527 17.9227 45.1959 18.267 45.1112 18.6049L45.091 18.6899L45.0506 18.613C44.9337 18.39 44.7844 18.1856 44.6077 18.0063C44.5571 17.9557 44.5045 17.9072 44.454 17.8627L44.5106 17.8445C44.4065 18.3092 44.2679 18.7655 44.096 19.2096C44.0313 19.3775 43.9747 19.511 43.9322 19.602C43.9123 19.65 43.8879 19.696 43.8594 19.7395C43.8706 19.6888 43.8868 19.6393 43.9079 19.5919L44.0515 19.1874C44.2084 18.7404 44.3387 18.2846 44.4418 17.8223L44.454 17.7656L44.4985 17.804C44.5535 17.8506 44.6061 17.8998 44.6562 17.9517C44.8393 18.137 44.9922 18.3499 45.1092 18.5827H45.0486C45.1347 18.2502 45.1989 17.9124 45.2407 17.5715C45.2811 17.3247 45.2953 17.167 45.2953 17.167Z" fill="#263238"/>
<path d="M49.4453 35.1245L49.8538 36.3885L52.1553 36.1761L51.4374 34.9688L49.4453 35.1245Z" fill="#455A64"/>
<path d="M49.4453 35.1227C49.49 35.1137 49.5353 35.1083 49.5808 35.1065L49.9853 35.066C50.3332 35.0316 50.8347 34.9851 51.4333 34.9346H51.4536L51.4637 34.9507L52.1837 36.1642L52.212 36.2127H52.1574L52.038 36.2249L49.8538 36.4271H49.8316V36.4069C49.7082 36.0024 49.6111 35.6889 49.5464 35.4705L49.4716 35.2177C49.4554 35.1611 49.4473 35.1328 49.4514 35.1328C49.4554 35.1328 49.4655 35.1671 49.4858 35.2258C49.506 35.2844 49.5383 35.3775 49.5747 35.4806L49.8842 36.3887L49.8538 36.3705L52.038 36.1682H52.1574L52.129 36.2208L51.4151 35.0074L51.4435 35.0236C50.861 35.066 50.3675 35.0964 50.0156 35.1186L49.6112 35.1429C49.4999 35.1227 49.4473 35.1227 49.4453 35.1227Z" fill="#263238"/>
<path d="M50.4851 25.0986H48.0117V25.8975H50.4851V25.0986Z" fill="#455A64"/>
<path d="M50.4857 25.898C50.4857 25.898 50.4857 25.8757 50.4857 25.8393C50.4857 25.8029 50.4857 25.7422 50.4857 25.6795C50.4857 25.5339 50.4857 25.3398 50.4735 25.0991L50.4958 25.1234C49.9073 25.1234 49.0174 25.1355 48.0224 25.1355C48.0386 25.1193 47.988 25.1699 48.0568 25.0991V25.8919L48.0224 25.8575C48.7282 25.8575 49.341 25.8676 49.7819 25.8737H50.3016C50.425 25.8737 50.4938 25.8737 50.5039 25.8737C50.4446 25.8775 50.3852 25.8775 50.3259 25.8737H49.8142C49.3734 25.8737 48.7504 25.8878 48.0305 25.8899H47.9961V25.0627L48.0305 25.0283C49.0255 25.0283 49.9154 25.0283 50.5039 25.0405H50.5281V25.0627C50.5281 25.3094 50.5241 25.5076 50.516 25.6573C50.5135 25.7383 50.5034 25.8189 50.4857 25.898Z" fill="#263238"/>
<g opacity="0.3">
<path d="M47.6333 18.957L48.0136 19.4808C48.0136 19.4808 47.9084 27.4248 47.5039 29.3906L47.6333 18.957Z" fill="black"/>
</g>
<path d="M49.2383 13.0553L49.9684 11.8135C49.6014 10.7315 49.6523 9.55139 50.1112 8.50506C50.5701 7.45874 51.4038 6.6219 52.4483 6.15902C53.4929 5.69614 54.6728 5.64071 55.7562 6.00361C56.8396 6.36651 57.748 7.1215 58.303 8.12018C58.858 9.11887 59.0194 10.289 58.7554 11.4006C58.4914 12.5123 57.8213 13.485 56.8765 14.1276C55.9318 14.7701 54.781 15.0361 53.6501 14.8733C52.5192 14.7104 51.4902 14.1304 50.7652 13.2474L49.2383 13.0553Z" fill="white"/>
<path d="M49.2406 13.0555L49.3437 13.0656L49.639 13.098L50.7715 13.2335L50.7513 13.2577C50.7483 13.2544 50.7467 13.2501 50.7467 13.2456C50.7467 13.2411 50.7483 13.2368 50.7513 13.2335C50.7545 13.231 50.7584 13.2297 50.7624 13.2297C50.7665 13.2297 50.7704 13.231 50.7736 13.2335C51.2582 13.8168 51.8802 14.2706 52.5836 14.5541C53.035 14.7367 53.5132 14.8439 53.9993 14.8716C55.1635 14.9444 56.3109 14.5656 57.2028 13.8139C58.0025 13.1441 58.5459 12.2184 58.7409 11.1936C58.9359 10.1689 58.7704 9.10828 58.2726 8.19161C57.9264 7.53912 57.4232 6.98309 56.8084 6.57369C56.2241 6.18462 55.5587 5.93421 54.8629 5.84158C54.207 5.75719 53.5406 5.81865 52.9112 6.02157C52.3371 6.20488 51.805 6.50032 51.3459 6.89078C50.8868 7.28124 50.5097 7.75895 50.2365 8.29621C49.9634 8.83347 49.7996 9.41961 49.7547 10.0206C49.7097 10.6217 49.7845 11.2256 49.9747 11.7976C49.9758 11.7998 49.9763 11.8022 49.9763 11.8046C49.9763 11.8071 49.9758 11.8095 49.9747 11.8117L49.4266 12.7258C49.3639 12.827 49.3174 12.9058 49.2831 12.9625C49.2487 13.0191 49.2305 13.0454 49.2305 13.0454L49.2729 12.9665L49.4084 12.7299L49.9444 11.7955V11.8097C49.6956 11.0873 49.6323 10.314 49.7603 9.56078C49.9609 8.39094 50.6045 7.34335 51.5574 6.63566C52.5102 5.92798 53.6991 5.61462 54.877 5.76068C55.5856 5.85515 56.2634 6.10966 56.859 6.50492C57.4835 6.92096 57.9961 7.48424 58.3515 8.1451C58.6753 8.74482 58.862 9.40893 58.8982 10.0895C58.9344 10.7701 58.8191 11.4503 58.5606 12.0809C58.3021 12.7116 57.907 13.2771 57.4036 13.7366C56.9002 14.1961 56.3011 14.5381 55.6496 14.7381C55.1159 14.9026 54.5564 14.9671 53.9993 14.9282C53.5058 14.8993 53.0206 14.7886 52.5634 14.6006C51.8534 14.3094 51.2276 13.8449 50.7432 13.2496L50.7736 13.2314C50.7745 13.2337 50.7751 13.2361 50.7751 13.2386C50.7751 13.241 50.7746 13.2435 50.7737 13.2457C50.7727 13.248 50.7713 13.2501 50.7696 13.2518C50.7678 13.2535 50.7657 13.2548 50.7634 13.2557H50.7594L49.6188 13.098L49.3437 13.0777L49.2406 13.0555Z" fill="#263238"/>
<path d="M53.0845 10.3479C53.0845 10.4339 53.059 10.518 53.0112 10.5895C52.9634 10.661 52.8955 10.7167 52.8161 10.7496C52.7366 10.7825 52.6492 10.7911 52.5648 10.7744C52.4805 10.7576 52.403 10.7162 52.3422 10.6554C52.2814 10.5946 52.24 10.5171 52.2232 10.4327C52.2064 10.3484 52.215 10.261 52.2479 10.1815C52.2809 10.1021 52.3366 10.0341 52.4081 9.98636C52.4796 9.93859 52.5637 9.91309 52.6497 9.91309C52.765 9.91309 52.8756 9.9589 52.9571 10.0404C53.0387 10.122 53.0845 10.2326 53.0845 10.3479Z" fill="#263238"/>
<path d="M54.8228 10.3479C54.8228 10.4339 54.7973 10.518 54.7495 10.5895C54.7017 10.661 54.6338 10.7167 54.5543 10.7496C54.4749 10.7825 54.3875 10.7911 54.3031 10.7744C54.2188 10.7576 54.1413 10.7162 54.0805 10.6554C54.0197 10.5946 53.9783 10.5171 53.9615 10.4327C53.9447 10.3484 53.9533 10.261 53.9862 10.1815C54.0191 10.1021 54.0749 10.0341 54.1464 9.98636C54.2179 9.93859 54.3019 9.91309 54.3879 9.91309C54.5033 9.91309 54.6139 9.9589 54.6954 10.0404C54.7769 10.122 54.8228 10.2326 54.8228 10.3479Z" fill="#263238"/>
<path d="M56.5565 10.1291C56.5999 10.2035 56.6202 10.289 56.6149 10.375C56.6096 10.4609 56.5789 10.5433 56.5267 10.6118C56.4745 10.6803 56.4031 10.7317 56.3216 10.7596C56.2402 10.7874 56.1523 10.7905 56.069 10.7683C55.9858 10.7462 55.9111 10.6998 55.8543 10.6352C55.7974 10.5705 55.7611 10.4904 55.7498 10.405C55.7386 10.3196 55.7529 10.2329 55.791 10.1557C55.8291 10.0784 55.8893 10.0143 55.9639 9.97134C56.0636 9.91454 56.1817 9.89925 56.2926 9.92877C56.4034 9.95828 56.4982 10.0302 56.5565 10.1291Z" fill="#263238"/>
<path d="M45.8666 27.3278C47.5252 27.3278 48.8698 25.9832 48.8698 24.3246C48.8698 22.6659 47.5252 21.3213 45.8666 21.3213C44.2079 21.3213 42.8633 22.6659 42.8633 24.3246C42.8633 25.9832 44.2079 27.3278 45.8666 27.3278Z" fill="#EC6980"/>
<path d="M45.1447 25.2119V23.4383C45.145 23.4188 45.1504 23.3997 45.1603 23.3829C45.1702 23.3661 45.1843 23.3521 45.2012 23.3424C45.2181 23.3326 45.2372 23.3274 45.2567 23.3272C45.2762 23.3269 45.2954 23.3318 45.3125 23.3412L46.8961 24.2331C46.9148 24.2425 46.9305 24.257 46.9415 24.2748C46.9525 24.2927 46.9583 24.3132 46.9583 24.3342C46.9583 24.3552 46.9525 24.3757 46.9415 24.3936C46.9305 24.4114 46.9148 24.4259 46.8961 24.4353L45.3125 25.313C45.2952 25.3233 45.2755 25.3287 45.2554 25.3286C45.2353 25.3285 45.2156 25.323 45.1984 25.3127C45.1811 25.3023 45.1671 25.2874 45.1576 25.2697C45.1482 25.252 45.1437 25.232 45.1447 25.2119Z" fill="white"/>
<path d="M63.5033 38.6309H27.0312V41.6786H63.5033V38.6309Z" fill="#E0E0E0"/>
<path d="M60.0846 40.2452H30.875V40.1016H60.0846C60.103 40.1026 60.1203 40.1108 60.1328 40.1244C60.1452 40.138 60.1519 40.1559 60.1513 40.1744C60.1516 40.1834 60.1501 40.1924 60.1469 40.2008C60.1437 40.2093 60.1388 40.217 60.1326 40.2236C60.1264 40.2302 60.119 40.2355 60.1108 40.2392C60.1025 40.2429 60.0936 40.2449 60.0846 40.2452Z" fill="white"/>
<path d="M35.7235 40.3295H31.0417C30.9919 40.3266 30.9449 40.3053 30.9098 40.2699C30.8747 40.2344 30.854 40.1872 30.8516 40.1374C30.8516 40.087 30.8716 40.0386 30.9072 40.0029C30.9429 39.9673 30.9912 39.9473 31.0417 39.9473H35.7235V40.3295Z" fill="#EC6980"/>
<path d="M36.0718 40.154C36.0718 40.2484 36.0438 40.3407 35.9913 40.4192C35.9389 40.4977 35.8643 40.5589 35.7771 40.595C35.6899 40.6311 35.5939 40.6406 35.5014 40.6222C35.4088 40.6037 35.3237 40.5583 35.257 40.4915C35.1902 40.4248 35.1448 40.3397 35.1264 40.2472C35.1079 40.1546 35.1174 40.0586 35.1535 39.9714C35.1896 39.8842 35.2508 39.8096 35.3293 39.7572C35.4078 39.7048 35.5001 39.6768 35.5945 39.6768C35.7211 39.6768 35.8425 39.727 35.932 39.8166C36.0215 39.9061 36.0718 40.0275 36.0718 40.154Z" fill="#EC6980"/>
<path d="M61.6742 40.1009H61.5508V39.749H61.9027V39.8704H61.6742V40.1009Z" fill="#263238"/>
<path d="M61.9027 40.5589H61.5508V40.209H61.6721V40.4375H61.9027V40.5589Z" fill="#263238"/>
<path d="M62.4613 40.5589H62.1094V40.4375H62.3379V40.209H62.4613V40.5589Z" fill="#263238"/>
<path d="M62.4613 40.0989H62.3399V39.8704H62.1094V39.749H62.4613V40.0989Z" fill="#263238"/>
<path d="M28.7774 40.7578V39.5869C28.7775 39.5739 28.781 39.5612 28.7875 39.5499C28.794 39.5387 28.8033 39.5294 28.8146 39.5228C28.8258 39.5163 28.8385 39.5128 28.8515 39.5127C28.8645 39.5126 28.8773 39.5158 28.8886 39.5221L29.9342 40.1127C29.9455 40.1193 29.9549 40.1287 29.9615 40.1401C29.968 40.1514 29.9714 40.1643 29.9714 40.1774C29.9714 40.1905 29.968 40.2034 29.9615 40.2147C29.9549 40.2261 29.9455 40.2355 29.9342 40.2421L28.8866 40.8226C28.8754 40.829 28.8627 40.8324 28.8497 40.8323C28.8368 40.8322 28.8242 40.8287 28.813 40.8221C28.8019 40.8156 28.7928 40.8061 28.7865 40.7948C28.7802 40.7835 28.7771 40.7708 28.7774 40.7578Z" fill="#263238"/>
<path d="M34.2165 53.9746H31.9109C31.0799 53.9746 30.4062 54.6483 30.4062 55.4793V57.7848C30.4062 58.6158 31.0799 59.2895 31.9109 59.2895H34.2165C35.0475 59.2895 35.7211 58.6158 35.7211 57.7848V55.4793C35.7211 54.6483 35.0475 53.9746 34.2165 53.9746Z" fill="#EC6980"/>
<path d="M32.3555 57.5905V55.6712C32.3555 55.6499 32.3611 55.629 32.3717 55.6105C32.3823 55.5921 32.3977 55.5767 32.4161 55.5661C32.4346 55.5554 32.4555 55.5498 32.4768 55.5498C32.4981 55.5498 32.519 55.5554 32.5375 55.5661L34.2525 56.5328C34.2715 56.5433 34.2873 56.5586 34.2983 56.5773C34.3093 56.596 34.3151 56.6173 34.3151 56.6389C34.3151 56.6606 34.3093 56.6819 34.2983 56.7006C34.2873 56.7193 34.2715 56.7346 34.2525 56.7451L32.5375 57.6977C32.5188 57.7078 32.4978 57.7129 32.4766 57.7125C32.4553 57.7121 32.4345 57.7062 32.4162 57.6955C32.3979 57.6847 32.3827 57.6693 32.3721 57.651C32.3614 57.6326 32.3557 57.6117 32.3555 57.5905Z" fill="white"/>
<path d="M36.9807 62.4045C36.9801 62.3666 36.9873 62.3289 37.0019 62.2939C37.0165 62.2588 37.0381 62.2271 37.0654 62.2008C37.0927 62.1744 37.1251 62.1539 37.1606 62.1406C37.1962 62.1273 37.2341 62.1215 37.272 62.1234C37.3097 62.1229 37.3471 62.1302 37.3819 62.1448C37.4167 62.1595 37.4481 62.1811 37.4742 62.2083L37.4216 62.2589C37.4021 62.2378 37.3783 62.2211 37.3518 62.21C37.3253 62.1988 37.2967 62.1934 37.2679 62.1942C37.2119 62.1942 37.1581 62.2165 37.1185 62.2561C37.0789 62.2957 37.0566 62.3495 37.0566 62.4055C37.0566 62.4616 37.0789 62.5153 37.1185 62.555C37.1581 62.5946 37.2119 62.6169 37.2679 62.6169C37.2968 62.6174 37.3255 62.6117 37.352 62.6002C37.3785 62.5887 37.4023 62.5716 37.4216 62.5501L37.4742 62.6007C37.4336 62.6417 37.3817 62.6699 37.3251 62.6815C37.2685 62.6932 37.2098 62.6879 37.1562 62.6663C37.1026 62.6447 37.0566 62.6077 37.024 62.5601C36.9913 62.5124 36.9735 62.4562 36.9727 62.3985L36.9807 62.4045Z" fill="#263238"/>
<path d="M38.0631 62.1289V62.679H37.9842V62.4343H37.6687V62.679H37.5898V62.1289H37.6687V62.3655H37.9842V62.1289H38.0631Z" fill="#263238"/>
<path d="M38.5793 62.5415H38.2861L38.2254 62.679H38.1445L38.3953 62.1289H38.4722L38.7229 62.679H38.64L38.5793 62.5415ZM38.5531 62.4788L38.4337 62.2098L38.3144 62.4788H38.5531Z" fill="#263238"/>
<path d="M39.2496 62.321C39.2496 62.4404 39.1627 62.5132 39.0211 62.5132H38.8836V62.679H38.8047V62.1289H39.0272C39.1627 62.1289 39.2496 62.2017 39.2496 62.321ZM39.1707 62.321C39.1707 62.2422 39.1182 62.1977 39.017 62.1977H38.8836V62.4444H39.0272C39.1182 62.4444 39.1707 62.3999 39.1707 62.321Z" fill="#263238"/>
<path d="M39.4596 62.1977H39.2695V62.1289H39.7266V62.1977H39.5365V62.679H39.4596V62.1977Z" fill="#263238"/>
<path d="M40.2092 62.6123V62.679H39.8047V62.1289H40.193V62.1977H39.8836V62.3675H40.1586V62.4343H39.8836V62.6123H40.2092Z" fill="#263238"/>
<path d="M40.704 62.6791L40.5867 62.5112H40.4148V62.677H40.3359V62.127H40.5503C40.6939 62.127 40.7809 62.1998 40.7809 62.3191C40.7823 62.3573 40.7712 62.395 40.7493 62.4264C40.7274 62.4578 40.6959 62.4812 40.6595 62.493L40.791 62.677L40.704 62.6791ZM40.704 62.3211C40.704 62.2422 40.6514 62.1977 40.5503 62.1977H40.4168V62.4465H40.5503C40.6454 62.4465 40.702 62.4 40.702 62.3211H40.704Z" fill="#263238"/>
<path d="M41.4553 62.5172C41.4553 62.6102 41.3865 62.6871 41.253 62.6871C41.18 62.6886 41.1086 62.6651 41.0508 62.6203L41.0872 62.5577C41.1333 62.5971 41.1924 62.618 41.253 62.6163C41.3339 62.6163 41.3825 62.5779 41.3825 62.5192C41.3825 62.4606 41.34 62.4222 41.247 62.4222H41.2025V62.3675L41.34 62.1977H41.075V62.1289H41.4391V62.1835L41.2955 62.3595C41.3966 62.3716 41.4553 62.4242 41.4553 62.5172Z" fill="#263238"/>
<path d="M37.0039 63.9861C37.0104 63.8593 37.0542 63.7372 37.1298 63.6352C37.2054 63.5331 37.3094 63.4557 37.4288 63.4125C37.5482 63.3693 37.6777 63.3623 37.8011 63.3924C37.9244 63.4225 38.0362 63.4883 38.1223 63.5816L37.9484 63.7414C37.9122 63.6984 37.867 63.6639 37.8159 63.6405C37.7649 63.6171 37.7093 63.6053 37.6531 63.6059C37.5539 63.6059 37.4587 63.6453 37.3885 63.7155C37.3184 63.7856 37.279 63.8808 37.279 63.98C37.279 64.0793 37.3184 64.1744 37.3885 64.2446C37.4587 64.3148 37.5539 64.3542 37.6531 64.3542C37.7097 64.3549 37.7657 64.3427 37.8169 64.3185C37.868 64.2943 37.913 64.2588 37.9484 64.2146L38.1223 64.3764C38.0362 64.4697 37.9244 64.5356 37.8011 64.5656C37.6777 64.5957 37.5482 64.5887 37.4288 64.5456C37.3094 64.5024 37.2054 64.4249 37.1298 64.3229C37.0542 64.2208 37.0104 64.0988 37.0039 63.9719V63.9861Z" fill="#263238"/>
<path d="M38.1884 64.1215C38.1824 64.0229 38.206 63.9247 38.2563 63.8397C38.3066 63.7548 38.3813 63.6868 38.4706 63.6447C38.56 63.6026 38.6599 63.5883 38.7575 63.6036C38.855 63.6189 38.9458 63.6632 39.0179 63.7306C39.0901 63.7981 39.1403 63.8856 39.1622 63.9819C39.1841 64.0782 39.1765 64.1789 39.1405 64.2709C39.1046 64.3628 39.0418 64.4419 38.9604 64.4978C38.879 64.5538 38.7827 64.584 38.6839 64.5846C38.6204 64.589 38.5567 64.5803 38.4967 64.5591C38.4368 64.5378 38.3818 64.5044 38.3353 64.4609C38.2888 64.4175 38.2518 64.3649 38.2265 64.3065C38.2012 64.2481 38.1883 64.1851 38.1884 64.1215ZM38.9125 64.1215C38.9089 64.0767 38.8924 64.034 38.8649 63.9985C38.8374 63.963 38.8002 63.9363 38.7578 63.9217C38.7153 63.9071 38.6696 63.9051 38.6261 63.9161C38.5825 63.9272 38.5432 63.9506 38.5128 63.9837C38.4825 64.0167 38.4624 64.0579 38.4551 64.1022C38.4478 64.1465 38.4536 64.1919 38.4718 64.233C38.49 64.274 38.5197 64.3089 38.5574 64.3332C38.5951 64.3576 38.639 64.3705 38.6839 64.3702C38.7158 64.3706 38.7474 64.3643 38.7767 64.3517C38.806 64.3391 38.8323 64.3204 38.8538 64.297C38.8754 64.2735 38.8918 64.2457 38.9019 64.2155C38.912 64.1852 38.9156 64.1532 38.9125 64.1215Z" fill="#263238"/>
<path d="M40.8686 64.0568V64.5705H40.6078V64.0952C40.6078 63.9496 40.543 63.8829 40.4379 63.8829C40.3327 63.8829 40.2356 63.9597 40.2356 64.1195V64.5705H39.9768V64.0952C39.9768 63.9496 39.9161 63.8829 39.8069 63.8829C39.6977 63.8829 39.6046 63.9597 39.6046 64.1195V64.5705H39.3438V63.6705H39.5945V63.7757C39.63 63.7369 39.6736 63.7063 39.7221 63.686C39.7707 63.6658 39.8231 63.6563 39.8756 63.6584C39.9335 63.6555 39.9911 63.6673 40.0431 63.6928C40.0951 63.7182 40.1398 63.7565 40.1729 63.804C40.2123 63.7567 40.2618 63.719 40.3179 63.6938C40.374 63.6686 40.4351 63.6564 40.4965 63.6584C40.5488 63.6541 40.6013 63.6617 40.6502 63.6807C40.6991 63.6996 40.7431 63.7293 40.7789 63.7676C40.8147 63.806 40.8413 63.8519 40.8569 63.9019C40.8724 63.952 40.8764 64.0049 40.8686 64.0568Z" fill="#263238"/>
<path d="M42.0824 64.121C42.0861 64.1816 42.0771 64.2422 42.0561 64.2992C42.035 64.3561 42.0023 64.408 41.96 64.4515C41.9178 64.4951 41.8669 64.5294 41.8107 64.5522C41.7545 64.5751 41.6941 64.5859 41.6335 64.5841C41.5831 64.5865 41.5328 64.578 41.486 64.5592C41.4392 64.5403 41.3971 64.5116 41.3624 64.4749V64.8956H41.1016V63.67H41.3523V63.7752C41.3871 63.7354 41.4306 63.7042 41.4793 63.6839C41.528 63.6636 41.5808 63.6547 41.6335 63.6579C41.6941 63.6561 41.7545 63.6669 41.8107 63.6898C41.8669 63.7126 41.9178 63.7469 41.96 63.7904C42.0023 63.834 42.035 63.8859 42.0561 63.9428C42.0771 63.9997 42.0861 64.0604 42.0824 64.121ZM41.8175 64.121C41.8136 64.0769 41.7969 64.0348 41.7695 64C41.7422 63.9652 41.7053 63.939 41.6633 63.9248C41.6214 63.9106 41.5762 63.9088 41.5333 63.9198C41.4903 63.9308 41.4515 63.954 41.4216 63.9866C41.3916 64.0192 41.3717 64.0599 41.3644 64.1036C41.3571 64.1472 41.3627 64.1921 41.3804 64.2327C41.3982 64.2733 41.4273 64.3079 41.4643 64.3322C41.5014 64.3565 41.5447 64.3696 41.589 64.3697C41.6208 64.3702 41.6525 64.3639 41.6817 64.3513C41.711 64.3386 41.7373 64.32 41.7589 64.2965C41.7805 64.273 41.7968 64.2453 41.8069 64.215C41.817 64.1848 41.8206 64.1527 41.8175 64.121Z" fill="#263238"/>
<path d="M42.1925 64.1216C42.186 64.0225 42.2094 63.9237 42.2598 63.8381C42.3101 63.7524 42.3851 63.6839 42.4748 63.6414C42.5646 63.5989 42.6651 63.5844 42.7632 63.5997C42.8614 63.615 42.9527 63.6594 43.0252 63.7273C43.0978 63.7951 43.1483 63.8832 43.1702 63.98C43.1921 64.0769 43.1844 64.1782 43.148 64.2706C43.1116 64.3631 43.0483 64.4424 42.9663 64.4984C42.8843 64.5545 42.7873 64.5845 42.688 64.5847C42.6245 64.5892 42.5607 64.5805 42.5008 64.5592C42.4408 64.5379 42.3858 64.5045 42.3393 64.4611C42.2928 64.4176 42.2558 64.365 42.2305 64.3066C42.2053 64.2482 42.1923 64.1852 42.1925 64.1216ZM42.9165 64.1216C42.9129 64.0769 42.8964 64.0341 42.8689 63.9986C42.8415 63.9632 42.8042 63.9365 42.7618 63.9218C42.7194 63.9072 42.6736 63.9053 42.6301 63.9163C42.5866 63.9273 42.5472 63.9508 42.5169 63.9838C42.4865 64.0169 42.4664 64.0581 42.4592 64.1023C42.4519 64.1466 42.4577 64.1921 42.4758 64.2331C42.494 64.2742 42.5237 64.309 42.5614 64.3334C42.5991 64.3578 42.6431 64.3706 42.688 64.3704C42.7198 64.3708 42.7515 64.3645 42.7807 64.3519C42.81 64.3393 42.8363 64.3206 42.8579 64.2971C42.8794 64.2736 42.8958 64.2459 42.9059 64.2156C42.916 64.1854 42.9196 64.1533 42.9165 64.1216Z" fill="#263238"/>
<path d="M43.2734 64.4875L43.3604 64.2994C43.455 64.3564 43.5634 64.3865 43.6739 64.3864C43.7952 64.3864 43.8397 64.3561 43.8397 64.3055C43.8397 64.1579 43.2957 64.3055 43.2957 63.9496C43.2957 63.7777 43.4494 63.6583 43.7123 63.6583C43.8323 63.656 43.951 63.6831 44.0581 63.7372L43.9712 63.9213C43.892 63.8773 43.8029 63.8544 43.7123 63.8545C43.595 63.8545 43.5444 63.8929 43.5444 63.9395C43.5444 64.0932 44.0885 63.9395 44.0885 64.2974C44.0885 64.4653 43.9327 64.5846 43.6638 64.5846C43.5274 64.5866 43.3929 64.5532 43.2734 64.4875Z" fill="#263238"/>
<path d="M44.207 63.3994C44.2078 63.379 44.2127 63.3589 44.2214 63.3404C44.2301 63.3218 44.2425 63.3053 44.2578 63.2917C44.2731 63.278 44.2911 63.2677 44.3105 63.2612C44.3299 63.2547 44.3504 63.2522 44.3709 63.2538C44.391 63.2516 44.4113 63.2535 44.4306 63.2596C44.4499 63.2656 44.4677 63.2756 44.483 63.289C44.4982 63.3023 44.5105 63.3186 44.519 63.3369C44.5276 63.3553 44.5322 63.3752 44.5326 63.3954C44.5282 63.4355 44.5091 63.4725 44.4791 63.4993C44.449 63.5262 44.4101 63.541 44.3698 63.541C44.3295 63.541 44.2907 63.5262 44.2606 63.4993C44.2306 63.4725 44.2115 63.4355 44.207 63.3954V63.3994ZM44.2394 63.6705H44.5003V64.5704H44.2394V63.6705Z" fill="#263238"/>
<path d="M45.3243 64.5274C45.2608 64.5671 45.1868 64.5868 45.112 64.584C45.0675 64.59 45.0223 64.5859 44.9797 64.5719C44.937 64.558 44.8981 64.5346 44.8658 64.5034C44.8335 64.4723 44.8087 64.4343 44.7932 64.3922C44.7777 64.3501 44.7719 64.3051 44.7763 64.2604V63.8923H44.6367V63.6901H44.7763V63.4717H45.0372V63.6901H45.2616V63.8923H45.0372V64.2584C45.035 64.2738 45.0363 64.2895 45.041 64.3043C45.0457 64.3191 45.0537 64.3326 45.0644 64.3439C45.0751 64.3552 45.0882 64.3639 45.1028 64.3694C45.1173 64.3749 45.1329 64.3771 45.1484 64.3757C45.186 64.3767 45.223 64.3654 45.2536 64.3433L45.3243 64.5274Z" fill="#263238"/>
<path d="M45.4375 63.3994C45.438 63.3791 45.4426 63.359 45.4511 63.3405C45.4596 63.322 45.4718 63.3054 45.487 63.2918C45.5021 63.2781 45.5199 63.2677 45.5392 63.2612C45.5585 63.2547 45.579 63.2522 45.5993 63.2538C45.6194 63.2516 45.6397 63.2535 45.659 63.2596C45.6783 63.2656 45.6962 63.2756 45.7114 63.289C45.7266 63.3023 45.7389 63.3186 45.7474 63.3369C45.756 63.3553 45.7606 63.3752 45.7611 63.3954C45.7611 63.4383 45.744 63.4795 45.7137 63.5098C45.6834 63.5402 45.6422 63.5572 45.5993 63.5572C45.5564 63.5572 45.5152 63.5402 45.4849 63.5098C45.4545 63.4795 45.4375 63.4383 45.4375 63.3954V63.3994ZM45.4699 63.6705H45.7307V64.5704H45.4699V63.6705Z" fill="#263238"/>
<path d="M45.9034 64.1216C45.8969 64.0225 45.9204 63.9237 45.9707 63.8381C46.0211 63.7524 46.096 63.6839 46.1858 63.6414C46.2756 63.5989 46.376 63.5844 46.4742 63.5997C46.5723 63.615 46.6636 63.6594 46.7362 63.7273C46.8087 63.7951 46.8593 63.8832 46.8811 63.98C46.903 64.0769 46.8953 64.1782 46.8589 64.2706C46.8226 64.3631 46.7593 64.4424 46.6772 64.4984C46.5952 64.5545 46.4982 64.5845 46.3989 64.5847C46.3354 64.5892 46.2717 64.5805 46.2117 64.5592C46.1517 64.5379 46.0968 64.5045 46.0503 64.4611C46.0038 64.4176 45.9668 64.365 45.9415 64.3066C45.9162 64.2482 45.9032 64.1852 45.9034 64.1216ZM46.6294 64.1216C46.6259 64.0769 46.6094 64.0343 46.5821 63.9988C46.5547 63.9634 46.5175 63.9367 46.4752 63.922C46.4329 63.9073 46.3872 63.9053 46.3438 63.9161C46.3003 63.927 46.261 63.9502 46.2305 63.9831C46.2001 64.0159 46.1798 64.0569 46.1723 64.1011C46.1648 64.1453 46.1703 64.1906 46.1882 64.2317C46.206 64.2728 46.2355 64.3078 46.2729 64.3324C46.3103 64.357 46.3541 64.3702 46.3989 64.3704C46.4311 64.3714 46.4632 64.3655 46.4929 64.3531C46.5227 64.3408 46.5495 64.3222 46.5715 64.2987C46.5935 64.2751 46.6103 64.2471 46.6206 64.2166C46.631 64.1861 46.6347 64.1537 46.6315 64.1216H46.6294Z" fill="#263238"/>
<path d="M47.9906 64.0563V64.57H47.7257V64.0947C47.7257 63.9491 47.659 63.8823 47.5437 63.8823C47.4284 63.8823 47.3273 63.9592 47.3273 64.125V64.57H47.0664V63.67H47.3212V63.7752C47.3602 63.7364 47.4067 63.7061 47.4578 63.6859C47.5089 63.6657 47.5636 63.6562 47.6185 63.6579C47.6705 63.6548 47.7225 63.6632 47.7709 63.6825C47.8192 63.7018 47.8627 63.7315 47.8983 63.7696C47.9338 63.8076 47.9605 63.853 47.9765 63.9026C47.9924 63.9522 47.9973 64.0046 47.9906 64.0563Z" fill="#263238"/>
<path d="M34.2165 61.3652H31.9109C31.0799 61.3652 30.4062 62.0389 30.4062 62.8699V65.1754C30.4062 66.0065 31.0799 66.6801 31.9109 66.6801H34.2165C35.0475 66.6801 35.7211 66.0065 35.7211 65.1754V62.8699C35.7211 62.0389 35.0475 61.3652 34.2165 61.3652Z" fill="#E0E0E0"/>
<path d="M32.3555 64.9802V63.0629C32.3551 63.0414 32.3604 63.0202 32.3709 63.0015C32.3814 62.9828 32.3967 62.9671 32.4152 62.9562C32.4337 62.9453 32.4548 62.9395 32.4763 62.9395C32.4978 62.9394 32.5189 62.945 32.5375 62.9557L34.2525 63.9224C34.2692 63.9335 34.2829 63.9485 34.2924 63.9662C34.3018 63.9838 34.3068 64.0035 34.3068 64.0236C34.3068 64.0436 34.3018 64.0633 34.2924 64.0809C34.2829 64.0986 34.2692 64.1136 34.2525 64.1247L32.5375 65.0772C32.5195 65.087 32.4994 65.0922 32.479 65.0923C32.4585 65.0924 32.4383 65.0875 32.4203 65.0778C32.4022 65.0682 32.3869 65.0542 32.3755 65.0372C32.3642 65.0201 32.3573 65.0005 32.3555 64.9802Z" fill="white"/>
<path d="M57.307 58.701C57.307 58.7293 52.888 58.7536 47.4376 58.7536C41.9872 58.7536 37.5703 58.7293 37.5703 58.701C37.5703 58.6727 41.9872 58.6484 47.4376 58.6484C52.888 58.6484 57.307 58.6727 57.307 58.701Z" fill="#263238"/>
<path d="M54.1937 65.8182C54.1937 65.8465 50.3512 65.8708 45.6369 65.8708C40.9227 65.8708 37.0781 65.8465 37.0781 65.8182C37.0781 65.7899 40.9086 65.7656 45.6369 65.7656C50.3653 65.7656 54.1937 65.7899 54.1937 65.8182Z" fill="#263238"/>
<path d="M59.5611 77.7098L59.7047 77.6997C59.8464 77.6963 59.9876 77.6828 60.1274 77.6592C60.6815 77.581 61.2121 77.3837 61.6826 77.0808C62.4545 76.5919 63.0333 75.8509 63.3208 74.9836C63.3693 74.8582 63.3916 74.7227 63.43 74.5791C63.4684 74.4355 63.4745 74.302 63.4987 74.1605C63.523 74.0189 63.5149 73.8692 63.525 73.7216C63.5351 73.574 63.525 73.4182 63.525 73.2625C63.525 72.6437 63.525 71.9823 63.525 71.2846C63.525 65.6886 63.5149 57.5949 63.5089 47.5941C63.5028 37.5933 63.4987 25.6915 63.4987 12.471V4.89509C63.5151 4.46826 63.4969 4.04081 63.4441 3.61693C63.3781 3.19269 63.2413 2.78253 63.0397 2.40349C62.6348 1.6386 61.9895 1.02814 61.2033 0.666241C60.8078 0.490045 60.3864 0.378735 59.9555 0.33659C59.5247 0.304231 59.0798 0.320411 58.6389 0.316366H31.0169C30.069 0.319043 29.1535 0.661291 28.4363 1.28105C27.7218 1.89646 27.2565 2.75152 27.1278 3.68569C27.0825 4.1514 27.0677 4.61957 27.0833 5.08722V9.2918C27.0833 13.0076 27.0833 16.6668 27.0833 20.2694C27.0833 27.4651 27.0833 34.4081 27.0833 41.0213C27.0833 47.6346 27.0833 53.9182 27.0833 59.7994C27.0833 62.7399 27.0833 65.5767 27.0833 68.3096C27.0833 69.6754 27.0833 71.0123 27.0833 72.3201V73.2969C27.073 73.6169 27.0852 73.9372 27.1197 74.2555C27.2018 74.8789 27.4328 75.4734 27.7932 75.9887C28.1477 76.4901 28.6109 76.9049 29.1482 77.2022C29.6769 77.4843 30.2624 77.644 30.8612 77.6693C32.0463 77.6855 33.2072 77.6693 34.3336 77.6795H40.6961H50.889H57.3284L50.889 77.6896H40.6961H34.3336C33.2072 77.6896 32.0503 77.6997 30.8571 77.6896C30.2476 77.6646 29.6516 77.5022 29.1138 77.2143C28.566 76.9128 28.0937 76.491 27.7325 75.9806C27.3649 75.4551 27.1291 74.8488 27.0449 74.2131C27.0089 73.8915 26.996 73.5677 27.0065 73.2443V68.3056C27.0065 65.5753 27.0065 62.7386 27.0065 59.7953C27.0065 53.9142 27.0065 47.6305 27.0065 41.0173C27.0065 34.404 27.0065 27.4672 27.0065 20.2654V5.08318C26.9901 4.61082 27.0049 4.13789 27.0509 3.66749C27.1891 2.70671 27.669 1.82795 28.4027 1.19237C29.1363 0.556788 30.0745 0.207001 31.0452 0.207156H58.645C59.0879 0.207156 59.5247 0.195021 59.9717 0.229402C60.4137 0.277087 60.8452 0.395205 61.2498 0.579278C62.0534 0.951118 62.7127 1.57634 63.1266 2.359C63.3287 2.74718 63.4654 3.16605 63.5311 3.59873C63.5845 4.02729 63.6028 4.45951 63.5857 4.89105V7.44332C63.5857 9.1381 63.5857 10.8113 63.5857 12.4629C63.5857 25.6874 63.5857 37.5974 63.5756 47.6002C63.5655 57.603 63.5614 65.6947 63.5574 71.2907C63.5574 71.9884 63.5574 72.6497 63.5574 73.2686V73.7277C63.5473 73.8773 63.5453 74.025 63.5311 74.1706C63.5169 74.3162 63.4927 74.4557 63.4583 74.5933C63.4282 74.7299 63.3911 74.8649 63.3471 74.9977C63.1876 75.4712 62.9414 75.9108 62.621 76.2941C62.3549 76.6105 62.041 76.8834 61.6907 77.1031C61.2171 77.4047 60.6838 77.6 60.1274 77.6754C59.9869 77.6975 59.8449 77.709 59.7027 77.7098H59.5611Z" fill="#263238"/>
</svg>
