<svg width="101" height="110" viewBox="0 0 101 110" fill="none" xmlns="http://www.w3.org/2000/svg">
<path opacity="0.2" d="M49.5179 55.5244C49.5179 55.5244 8.30469 79.8575 8.30469 102.912H90.7423C90.7367 79.8575 49.5179 55.5244 49.5179 55.5244Z" fill="#EBC4E5"/>
<path opacity="0.2" d="M49.5188 84.5576C49.5188 84.5576 11.4629 93.9847 11.4629 102.913H87.5747C87.5747 93.9847 49.5188 84.5576 49.5188 84.5576Z" fill="#EBC4E5"/>
<path opacity="0.3" d="M54.5215 62.2432C62.2605 69.8532 77.3012 86.7165 77.3012 102.912H66.9881C66.9881 86.7165 58.7555 69.8532 54.5215 62.2432Z" fill="white"/>
<path opacity="0.2" d="M49.5179 55.5243C49.5179 55.5243 8.30469 31.1912 8.30469 8.13672H90.7423C90.7367 31.1912 49.5179 55.5243 49.5179 55.5243Z" fill="#EBC4E5"/>
<path opacity="0.2" d="M49.5197 53.3042C49.5197 53.3042 28.4785 43.2098 28.4785 33.6201H70.5666C70.5666 43.193 49.5197 53.3042 49.5197 53.3042Z" fill="#EBC4E5"/>
<path opacity="0.3" d="M45.0268 48.806C37.2934 41.1959 22.2695 24.3326 22.2695 8.13672H32.5826C32.5602 24.3326 40.7759 41.1959 45.0268 48.806Z" fill="white"/>
<path opacity="0.3" d="M54.5215 48.806C62.2605 41.1959 76.9255 22.381 77.3012 8.13672H74.5533C73.2634 25.5047 60.6454 41.4426 54.5215 48.806Z" fill="white"/>
<path d="M85.1402 0H80.4688V0.5608H85.1402V0Z" fill="#EBC4E5"/>
<path d="M101 7.7054H100.44C100.438 5.81196 99.6856 3.99641 98.3473 2.65702C97.0089 1.31764 95.194 0.56377 93.3005 0.5608H88.3711V0H93.3005C95.3422 0.00444927 97.299 0.817873 98.7422 2.26211C100.185 3.70635 100.997 5.66368 101 7.7054Z" fill="#EBC4E5"/>
<path d="M93.2947 1.96289H5.7426C2.57105 1.96289 0 4.53394 0 7.70549V8.56912C0 11.7407 2.57105 14.3117 5.7426 14.3117H93.2947C96.4663 14.3117 99.0373 11.7407 99.0373 8.56912V7.70549C99.0373 4.53394 96.4663 1.96289 93.2947 1.96289Z" fill="#CEC7CD"/>
<path d="M93.2947 96.7383H5.7426C2.57105 96.7383 0 99.3093 0 102.481V103.345C0 106.516 2.57105 109.087 5.7426 109.087H93.2947C96.4663 109.087 99.0373 106.516 99.0373 103.345V102.481C99.0373 99.3093 96.4663 96.7383 93.2947 96.7383Z" fill="#CEC7CD"/>
</svg>
