<svg width="101" height="107" viewBox="0 0 101 107" fill="none" xmlns="http://www.w3.org/2000/svg">
<path d="M7.78762 106.221C3.4937 106.221 0 102.731 0 98.4415V30.851C0 26.5609 3.4937 23.0718 7.78762 23.0718H89.251C93.5411 23.0718 97.0309 26.5616 97.0309 30.851V98.4415C97.0309 102.732 93.5411 106.221 89.251 106.221H7.78762Z" fill="#D2EDED"/>
<path opacity="0.5" d="M7.78762 106.221C3.4937 106.221 0 102.731 0 98.4415V30.851C0 26.5609 3.4937 23.0718 7.78762 23.0718H89.251C93.5411 23.0718 97.0309 26.5616 97.0309 30.851V98.4415C97.0309 102.732 93.5411 106.221 89.251 106.221H7.78762Z" fill="white"/>
<path d="M95.4981 30.851V98.4407C95.4981 101.89 92.7004 104.688 89.2512 104.688H7.78783C4.33092 104.688 1.5332 101.89 1.5332 98.4407V30.851C1.5332 27.4017 4.33092 24.604 7.78783 24.604H89.2512C92.7004 24.604 95.4981 27.4017 95.4981 30.851Z" fill="#D2EDED"/>
<path d="M74.8065 61.9569C88.98 56.0861 95.7106 39.8369 89.8397 25.6634C83.9689 11.4899 67.7197 4.75927 53.5462 10.6301C39.3727 16.501 32.6421 32.7502 38.5129 46.9237C44.3838 61.0972 60.633 67.8278 74.8065 61.9569Z" fill="#D2EDED"/>
<path opacity="0.6" d="M74.8065 61.9569C88.98 56.0861 95.7106 39.8369 89.8397 25.6634C83.9689 11.4899 67.7197 4.75927 53.5462 10.6301C39.3727 16.501 32.6421 32.7502 38.5129 46.9237C44.3838 61.0972 60.633 67.8278 74.8065 61.9569Z" fill="white"/>
<path d="M64.1782 58.9017C76.6641 58.9017 86.786 48.7799 86.786 36.2939C86.786 23.8079 76.6641 13.686 64.1782 13.686C51.6922 13.686 41.5703 23.8079 41.5703 36.2939C41.5703 48.7799 51.6922 58.9017 64.1782 58.9017Z" fill="#D2EDED"/>
<path opacity="0.8" d="M64.1782 58.9017C76.6641 58.9017 86.786 48.7799 86.786 36.2939C86.786 23.8079 76.6641 13.686 64.1782 13.686C51.6922 13.686 41.5703 23.8079 41.5703 36.2939C41.5703 48.7799 51.6922 58.9017 64.1782 58.9017Z" fill="white"/>
<path d="M45.2772 83.4044C47.5691 84.2122 49.9628 85.0401 52.2907 85.7222C53.4604 86.0511 54.6254 86.3638 55.7369 86.5784C56.2887 86.6804 56.8299 86.7609 57.2944 86.7969C57.5312 86.8183 57.7313 86.8153 57.8846 86.8114C57.9666 86.8061 57.9812 86.8076 58.0632 86.7976C58.1513 86.7785 58.2433 86.7609 58.3046 86.7409C58.4395 86.7034 58.5154 86.675 58.53 86.6758C58.5476 86.6758 58.5484 86.7057 58.5905 86.665C58.6779 86.6014 58.8404 86.1952 58.937 85.687C59.1524 84.6568 59.2643 83.3476 59.4237 82.0814C59.5847 80.8013 59.761 79.5021 59.9672 78.2121C60.2002 76.9236 60.4416 75.6382 60.7636 74.3712C60.9467 73.6515 61.678 73.2161 62.3977 73.3993C63.0094 73.5549 63.4156 74.1067 63.411 74.7107V74.7169C63.4018 75.9847 63.3704 77.2433 63.3896 78.5026C63.3796 79.7604 63.3988 81.0144 63.4317 82.2876C63.4455 83.573 63.4984 84.8254 63.3658 86.3301C63.2761 87.0805 63.175 87.9543 62.6216 89.0044C62.3464 89.5187 61.9248 90.043 61.4373 90.4354C60.9467 90.8317 60.4386 91.0824 59.9764 91.2679C59.7395 91.3644 59.5226 91.4319 59.3034 91.4993C59.0757 91.563 58.776 91.632 58.5415 91.6687C58.0609 91.7423 57.6209 91.773 57.2185 91.7768C56.4045 91.7906 55.6725 91.7262 54.9604 91.6381C53.5447 91.4587 52.2163 91.1874 50.9163 90.8555C48.3064 90.2047 45.8406 89.4214 43.3434 88.4357C41.9583 87.8891 41.2792 86.3239 41.8257 84.9397C42.3592 83.5876 43.8638 82.9084 45.2236 83.3852L45.2772 83.4044Z" fill="#D9877C"/>
<path d="M41.872 83.5155C46.4028 80.9638 51.0861 85.0608 58.134 86.5455L59.9927 92.0712C59.9927 92.0712 53.138 93.7421 46.5032 90.345C39.8684 86.9479 41.872 83.5155 41.872 83.5155Z" fill="#D2EDED"/>
<path opacity="0.7" d="M59.9949 92.0719C59.9949 92.0719 59.1441 92.2788 57.7337 92.4015C56.3464 92.5165 54.4378 92.5471 52.2916 92.2022C51.2645 92.0412 50.1837 91.7883 49.08 91.4204C48.2292 91.1368 47.363 90.7842 46.5045 90.3473C46.3512 90.2706 46.198 90.1863 46.06 90.1096C39.9663 86.7907 41.8749 83.5178 41.8749 83.5178C46.4049 80.9653 51.0882 85.0584 58.1323 86.5531L59.9949 92.0719Z" fill="white"/>
<path d="M57.6095 86.0845L58.6029 85.6445L62.1311 91.1227L60.1129 93.4306C60.1129 93.4306 56.9496 89.0171 57.6103 86.0845H57.6095Z" fill="#D2EDED"/>
<path opacity="0.6" d="M57.6095 86.0845L58.6029 85.6445L62.1311 91.1227L60.1129 93.4306C60.1129 93.4306 56.9496 89.0171 57.6103 86.0845H57.6095Z" fill="white"/>
<path opacity="0.1" d="M49.0789 91.4204C48.2281 91.1368 47.362 90.7842 46.5035 90.3473C46.3502 90.2707 46.1969 90.1864 46.0589 90.1097C45.8673 88.6994 45.783 87.335 45.852 86.1699C45.852 86.1699 47.7452 88.2931 49.0789 91.4204Z" fill="black"/>
<path d="M23.7963 65.2973C23.4943 63.9529 27.5759 60.4906 29.9904 60.4025C32.4049 60.3143 31.5441 61.7132 33.0794 61.1781C34.6147 60.6431 36.603 60.4714 37.4561 61.7055C38.3092 62.9396 36.8574 65.3586 38.3966 65.5656C39.9357 65.7725 42.1831 67.071 41.0962 69.1076C40.01 71.1449 36.0258 75.1805 31.0566 76.525C26.0874 77.8686 23.2008 71.7765 23.1969 69.4594C23.1969 69.4594 21.4976 69.4042 21.7521 71.2545C22.0066 73.1048 24.5789 73.8997 23.9021 75.6864C23.2245 77.4731 22.5423 78.3975 24.3398 79.2813C26.1372 80.165 24.851 82.6631 23.6216 82.7619C23.6216 82.7619 24.198 82.4814 23.712 81.5884C23.2261 80.6955 21.4761 81.9886 19.8535 79.8109C18.23 77.6333 19.9899 76.7971 19.0678 75.9064C18.1457 75.0165 16.74 75.8612 16.0348 73.7042C15.5205 72.1314 17.429 70.1147 17.7103 68.8308C17.9917 67.5477 16.6595 67.3983 17.1439 65.0911C17.4666 63.555 19.8182 62.9549 21.1312 63.1404C23.4108 63.4631 23.7956 65.2958 23.7956 65.2958L23.7963 65.2973Z" fill="#263238"/>
<path opacity="0.7" d="M41.5045 90.9081C35.8745 86.1934 28.9707 83.1872 28.9707 83.1872C29.3639 83.119 29.7694 83.0554 30.1756 82.9979C33.2324 82.5709 35.7373 82.2444 38.4845 82.2437C39.1758 82.2444 39.8849 82.262 40.5831 82.2797V82.285C42.53 86.1313 41.5052 90.9066 41.5052 90.9066L41.5045 90.9081Z" fill="white"/>
<path d="M48.5264 104.688H29.5479C29.0957 102.748 28.5131 100.533 27.8003 98.1648C27.7083 97.8429 27.6087 97.5133 27.5014 97.1837C27.4017 96.8541 27.2944 96.5168 27.1871 96.1796V96.1719C27.0568 95.7657 26.9265 95.3517 26.7808 94.9302C26.6812 94.6312 26.5815 94.3246 26.4742 94.018V94.0104C26.4206 93.8647 26.3746 93.7114 26.3286 93.5658C26.0987 92.8989 25.861 92.2244 25.6157 91.5499C25.5621 91.389 25.5008 91.2356 25.4395 91.0747V91.067C25.2249 90.4692 25.0026 89.8713 24.7649 89.2657C24.2591 87.955 24.1288 86.8283 24.1211 86.0388C24.1211 85.2416 24.2361 84.7817 24.2361 84.7817C24.2361 84.7817 26.9035 83.8466 28.2372 83.4097C28.2908 83.3944 28.3522 83.3714 28.4058 83.3561C28.6971 83.2564 28.8964 83.1951 28.9653 83.1874H28.973C29.0803 83.1644 29.1953 83.1491 29.3026 83.1338C29.5862 83.0801 29.8775 83.0341 30.1764 82.9958L30.6593 82.9268C33.3574 82.5589 35.6492 82.2753 38.102 82.2523C38.2246 82.2446 38.3549 82.2446 38.4853 82.2446C38.8302 82.2446 39.1828 82.2523 39.5353 82.2523C39.8803 82.26 40.2329 82.2753 40.5778 82.283H40.5854C40.6084 82.283 40.6621 82.2906 40.7311 82.2906C40.7617 82.2906 40.7924 82.2983 40.8307 82.2983C40.8844 82.306 40.9457 82.3136 41.007 82.3213H41.053C41.9038 82.4056 43.6668 82.5896 44.5099 82.6739C44.5942 82.6815 44.6709 82.6892 44.7399 82.6969C44.7629 82.6969 44.7935 82.6969 44.8165 82.7045H44.8242C44.9008 82.7122 44.9545 82.7122 44.9775 82.7122V82.7199L44.9852 82.7275C45.0235 82.7812 45.1998 83.0418 45.4527 83.4634C45.652 83.8006 45.9049 84.2375 46.1655 84.7434C46.7021 85.7935 47.2693 87.1272 47.5453 88.5069C47.5912 88.7292 47.6219 88.9591 47.6526 89.1814C47.6679 89.2964 47.6832 89.4037 47.6909 89.511C47.7139 89.672 47.7292 89.8253 47.7599 89.9786C47.8059 90.3082 47.8519 90.6378 47.9055 90.9904C47.9515 91.3506 48.0052 91.7339 48.0511 92.1708C48.1738 93.2439 48.2888 94.6236 48.3577 96.6395C48.3654 96.8234 48.3731 97.0227 48.3884 97.245C48.3961 97.4673 48.4037 97.6972 48.4114 97.9502C48.4191 98.1954 48.4267 98.4561 48.4344 98.7243C48.4421 99.0003 48.4497 99.2839 48.4497 99.5828C48.4574 99.8741 48.465 100.165 48.4727 100.472C48.4957 101.905 48.5187 103.423 48.5264 104.688Z" fill="#D2EDED"/>
<path opacity="0.7" d="M48.5264 104.688H29.5479C29.0957 102.748 28.5131 100.533 27.8003 98.1648C27.7006 97.8429 27.601 97.5133 27.5014 97.1837C27.4017 96.8464 27.2944 96.5168 27.1871 96.1796V96.1719C27.0568 95.7657 26.9188 95.3517 26.7808 94.9302C26.6812 94.6312 26.5815 94.3246 26.4742 94.018V94.0104C26.4206 93.8647 26.3746 93.7114 26.3286 93.5658C26.0987 92.9066 25.861 92.2398 25.6157 91.5652C25.5621 91.4043 25.5008 91.2356 25.4395 91.0747V91.067C25.2249 90.4692 25.0026 89.8713 24.7649 89.2657C24.2591 87.955 24.1288 86.8283 24.1211 86.0388C24.1211 85.2416 24.2361 84.7817 24.2361 84.7817C24.2361 84.7817 26.9035 83.8466 28.2372 83.4097C28.2985 83.3867 28.3522 83.3714 28.4058 83.3561C28.6971 83.2564 28.8964 83.1951 28.9653 83.1874H28.973C29.0803 83.1644 29.1953 83.1491 29.3026 83.1338C29.5862 83.0801 29.8775 83.0341 30.1764 82.9958L30.6593 82.9268C33.3574 82.5589 35.6492 82.2753 38.102 82.2523C38.2246 82.2446 38.3549 82.2446 38.4853 82.2446C38.8302 82.2446 39.1828 82.2523 39.5353 82.2523C39.8803 82.26 40.2329 82.2676 40.5854 82.2753C40.6084 82.2753 40.6544 82.283 40.7311 82.2906C40.7617 82.2906 40.7924 82.2983 40.8307 82.2983C40.8767 82.306 40.938 82.306 40.9994 82.3136C41.0147 82.3136 41.0377 82.3213 41.053 82.3213C41.9038 82.4056 43.6668 82.5896 44.5099 82.6739C44.5942 82.6815 44.6709 82.6892 44.7399 82.6969C44.7552 82.6969 44.7705 82.6969 44.7859 82.7045H44.8242C44.9008 82.7122 44.9545 82.7199 44.9775 82.7199L44.9852 82.7275C45.0235 82.7812 45.1998 83.0418 45.4527 83.4634C45.652 83.8006 45.9049 84.2375 46.1655 84.7434C46.6868 85.7859 47.254 87.1119 47.5299 88.4839C47.5759 88.7139 47.6142 88.9515 47.6449 89.1814C47.6602 89.2964 47.6756 89.4037 47.6909 89.511C47.7139 89.672 47.7292 89.8253 47.7599 89.9786C47.8059 90.3082 47.8519 90.6378 47.9055 90.9904C47.9515 91.3506 48.0052 91.7339 48.0511 92.1708C48.1815 93.2439 48.2964 94.6236 48.3654 96.6395C48.3731 96.8234 48.3807 97.0227 48.3884 97.245C48.3961 97.4673 48.4037 97.6972 48.4114 97.9502C48.4191 98.1954 48.4267 98.4561 48.4344 98.7243C48.4421 99.0003 48.4497 99.2839 48.4497 99.5828C48.4574 99.8741 48.465 100.173 48.4727 100.472C48.4957 101.905 48.5187 103.423 48.5264 104.688Z" fill="white"/>
<path opacity="0.2" d="M39.5766 90.2851C39.5851 90.4415 39.4663 90.5756 39.3091 90.5848C39.1528 90.594 39.0186 90.4744 39.0102 90.3173C39.0018 90.1602 39.1206 90.0268 39.2777 90.0176C39.4348 90.0084 39.5682 90.1287 39.5766 90.2851Z" fill="black"/>
<path opacity="0.2" d="M40.9517 96.2179C40.9609 96.3743 40.8413 96.5084 40.6842 96.5176C40.5278 96.5268 40.3937 96.4065 40.3853 96.2501C40.3761 96.0937 40.4956 95.9596 40.6528 95.9512C40.8091 95.942 40.9433 96.0616 40.9517 96.2179Z" fill="black"/>
<path opacity="0.2" d="M41.5591 101.918C41.5676 102.075 41.448 102.209 41.2916 102.217C41.1353 102.227 41.0011 102.107 40.9927 101.951C40.9835 101.794 41.1031 101.66 41.2602 101.651C41.4166 101.642 41.5499 101.762 41.5591 101.918Z" fill="black"/>
<path d="M34.3053 80.7675C41.7089 80.326 44.4231 85.8164 44.4231 85.8164L40.901 85.3043C40.901 85.3043 40.0387 88.516 38.9572 89.4427C38.9572 89.4427 34.4417 88.6516 32.0886 86.3828L28.9252 87.4521C28.9252 87.4521 26.8672 81.2105 34.3053 80.7667V80.7675Z" fill="#D2EDED"/>
<path opacity="0.6" d="M34.3053 80.7675C41.7089 80.326 44.4231 85.8164 44.4231 85.8164L40.901 85.3043C40.901 85.3043 40.0387 88.516 38.9572 89.4427C38.9572 89.4427 34.4417 88.6516 32.0886 86.3828L28.9252 87.4521C28.9252 87.4521 26.8672 81.2105 34.3053 80.7667V80.7675Z" fill="white"/>
<path d="M39.6254 83.3577C40.6855 86.508 38.9571 89.4437 38.9571 89.4437C33.2482 87.9942 30.6344 82.9583 30.6344 82.9583C32.2058 81.0145 30.8728 76.2001 29.9062 73.5879L32.2464 75.1423L35.7293 77.4503C35.6803 78.0121 35.7983 78.7709 36.0068 79.4968C36.3195 80.5446 36.83 81.5181 37.3413 81.702L39.6239 83.3577H39.6254Z" fill="#D9877C"/>
<path opacity="0.2" d="M36.0073 79.4968C34.6583 79.2737 32.8348 77.9952 32.476 76.6508C32.3289 76.0836 32.2453 75.5232 32.2461 75.1431L35.7291 77.451C35.68 78.0128 35.7981 78.7717 36.0065 79.4975L36.0073 79.4968Z" fill="black"/>
<path d="M26.7834 71.1297C29.0353 74.9223 29.9061 76.5703 32.9429 77.6748C37.5105 79.3366 41.7446 76.0291 40.6876 71.7107C39.7364 67.8238 36.2136 62.2751 31.5272 62.4621C26.9098 62.6469 24.5314 67.337 26.7834 71.1297Z" fill="#D9877C"/>
<path d="M32.2324 69.9097C32.4079 70.2363 32.7237 70.4225 32.9383 70.3259C33.1529 70.2294 33.1851 69.886 33.0096 69.5594C32.8341 69.2329 32.5183 69.0467 32.3037 69.144C32.089 69.2406 32.0568 69.5832 32.2324 69.9097Z" fill="#263238"/>
<path d="M36.3535 67.8958C36.529 68.2224 36.8448 68.4086 37.0594 68.3113C37.274 68.2147 37.3062 67.8713 37.1307 67.5448C36.9552 67.2183 36.6394 67.032 36.4247 67.1294C36.2101 67.2259 36.1779 67.5693 36.3535 67.8958Z" fill="#263238"/>
<path d="M36.3398 67.1902L37.0075 66.6084C37.0075 66.6084 36.9316 67.4033 36.3398 67.1902Z" fill="#263238"/>
<path d="M35.4629 69.189C35.4629 69.189 36.7744 70.3433 37.7516 70.745C37.534 71.3428 36.6985 71.4915 36.6985 71.4915L35.4629 69.189Z" fill="#DE5753"/>
<path d="M30.5172 68.1412C30.5701 68.1228 30.6146 68.0837 30.6368 68.0285C30.9787 67.1715 31.7605 67.0428 31.7697 67.0412C31.8854 67.0221 31.9613 66.9155 31.9352 66.8006C31.9092 66.6856 31.7919 66.6074 31.6739 66.625C31.6332 66.6319 30.6506 66.7929 30.2267 67.856C30.1846 67.9618 30.2421 68.0867 30.3547 68.1343C30.4092 68.1573 30.4666 68.158 30.5165 68.1404L30.5172 68.1412Z" fill="#263238"/>
<path d="M36.9141 64.9743C36.9662 64.9635 37.0137 64.9336 37.0428 64.8869C37.1042 64.7903 37.0697 64.66 36.9662 64.5941C35.9253 63.938 35.0154 64.3013 34.9771 64.3174C34.869 64.3618 34.8246 64.4852 34.8782 64.5925C34.9319 64.6999 35.0622 64.7504 35.1703 64.706C35.2055 64.6914 35.9161 64.4201 36.7431 64.9413C36.7968 64.975 36.8581 64.985 36.9133 64.9735L36.9141 64.9743Z" fill="#263238"/>
<path d="M32.2188 69.2034L32.8864 68.6216C32.8864 68.6216 32.8105 69.4164 32.2188 69.2034Z" fill="#263238"/>
<path d="M29.658 72.8122C29.658 72.8122 30.7112 69.2243 27.7594 65.3887C27.7594 65.3887 31.5873 61.6965 36.1342 63.937C36.1342 63.937 31.0921 59.3617 25.2783 64.2428C19.4644 69.1239 26.6119 73.9007 27.6153 74.1643C28.6186 74.428 29.658 72.8122 29.658 72.8122Z" fill="#263238"/>
<path d="M27.1235 74.9322C27.9789 75.5224 28.9838 75.6704 29.7648 75.5132C30.9399 75.2764 30.8916 74.0278 30.0323 73.1471C29.2589 72.3537 27.716 71.5213 26.7924 72.2142C25.8825 72.8972 26.1447 74.2569 27.1235 74.9322Z" fill="#D9877C"/>
<path d="M37.2456 72.3638C37.1597 73.0145 37.2303 74.162 37.2303 74.162C37.1276 74.1873 37.0249 74.2126 36.9206 74.2317C35.5172 74.5376 34.7652 74.2156 34.3575 73.7665C34.1352 73.5196 34.0179 73.2307 33.955 72.9877C33.8791 72.7072 33.8891 72.4902 33.8891 72.4902C34.73 72.7723 36.0598 72.5883 36.7658 72.4603C37.0617 72.4098 37.2456 72.3638 37.2456 72.3638Z" fill="#263238"/>
<path d="M36.7658 72.4609L36.7474 72.9914C35.4252 73.2765 34.4563 73.2995 33.955 72.9891C33.8791 72.7085 33.8891 72.4916 33.8891 72.4916C34.73 72.7737 36.0598 72.5897 36.7658 72.4617V72.4609Z" fill="white"/>
<path d="M36.9206 74.2325C35.5171 74.5383 34.7652 74.2164 34.3574 73.7672C34.8395 73.6814 35.4305 73.6315 35.9824 73.7365C36.4047 73.8147 36.7029 74.0133 36.9206 74.2325Z" fill="#DE5753"/>
<path d="M62.9034 76.1062L66.8531 74.5448L63.4016 71.3394C63.4016 71.3394 59.9615 72.9452 60.8637 74.6828L62.9034 76.1062Z" fill="#D9877C"/>
<path d="M69.2154 71.2767L65.4872 69.4409L63.4023 71.3395L66.8539 74.545L69.2154 71.2767Z" fill="#D9877C"/>
<path opacity="0.1" d="M27.1859 96.1818C26.6624 94.53 26.0814 92.8207 25.4375 91.0762C25.879 90.3296 26.4102 89.685 27.0234 89.2588C27.0234 89.2588 28.3878 93.5489 27.1859 96.1818Z" fill="black"/>
<path d="M26.2676 89.5187L26.2522 89.557C26.1832 89.7639 26.1219 89.9709 26.0529 90.1855C25.9073 90.6377 25.7617 91.09 25.616 91.5499V91.5652C25.1868 92.9219 24.7652 94.3016 24.3666 95.6583C23.7764 97.6819 23.1862 99.7591 22.895 101.622C22.8643 101.821 22.8336 102.013 22.8183 102.197C22.7953 102.426 22.78 102.633 22.78 102.779C22.78 102.84 22.78 102.856 22.7723 102.894C22.78 102.917 22.7647 102.925 22.78 102.978C22.78 102.994 22.7877 103.024 22.7953 103.047C22.8183 103.132 22.8643 103.239 22.9103 103.354C22.9716 103.507 23.0559 103.668 23.1556 103.837C23.3165 104.113 23.5082 104.396 23.7228 104.688H18.2807C18.2577 104.657 18.25 104.619 18.2346 104.588C18.158 104.419 18.0967 104.197 18.043 103.982C18.0277 103.952 18.02 103.913 18.0124 103.883C17.9664 103.653 17.9204 103.4 17.8974 103.193C17.8591 102.833 17.8438 102.503 17.8438 102.197C17.8438 101.798 17.8667 101.438 17.8897 101.07C18.1197 98.5863 18.6332 96.4248 19.1774 94.225C19.7523 92.0481 20.3962 89.9402 21.155 87.8017C21.5996 86.56 22.8566 85.8395 24.1214 86.0388C24.2747 86.0618 24.4356 86.1077 24.5966 86.1614C25.9686 86.652 26.7045 88.139 26.2676 89.5187Z" fill="#D9877C"/>
<path d="M24.2352 84.7804C22.0392 85.2962 20.3368 87.8793 18.9019 92.7205C17.467 97.5625 16.6837 102.063 17.5322 104.085L23.4028 102.926C23.4028 102.926 24.5908 97.252 26.4757 94.0143C26.4757 94.0143 27.3663 89.8239 26.5592 87.4953C25.7521 85.1667 24.2352 84.7788 24.2352 84.7788V84.7804Z" fill="#D2EDED"/>
<path opacity="0.7" d="M24.2352 84.7804C22.0392 85.2962 20.3368 87.8793 18.9019 92.7205C17.467 97.5625 16.6837 102.063 17.5322 104.085L23.4028 102.926C23.4028 102.926 24.5908 97.252 26.4757 94.0143C26.4757 94.0143 27.3663 89.8239 26.5592 87.4953C25.7521 85.1667 24.2352 84.7788 24.2352 84.7788V84.7804Z" fill="white"/>
<path d="M23.8076 103.668L23.1561 103.837L19.8295 104.688H17.1468L15.9434 102.641C15.9434 102.641 16.4416 102.488 17.2004 102.319C17.3997 102.281 17.6143 102.235 17.8443 102.197C19.2853 101.921 21.2782 101.721 22.8188 102.197C23.0565 102.273 23.2864 102.365 23.501 102.48C23.57 102.511 23.639 102.549 23.708 102.588L23.8076 103.668Z" fill="#D2EDED"/>
<path opacity="0.6" d="M23.8076 103.668L23.1561 103.837L19.8295 104.688H17.1468L15.9434 102.641C15.9434 102.641 16.4416 102.488 17.2004 102.319C17.3997 102.281 17.6143 102.235 17.8443 102.197C19.2853 101.921 21.2782 101.721 22.8188 102.197C23.0565 102.273 23.2864 102.365 23.501 102.48C23.57 102.511 23.639 102.549 23.708 102.588L23.8076 103.668Z" fill="white"/>
<path d="M70.7499 61.5906C70.7652 63.6754 67.9177 65.3863 64.3903 65.4123C60.8621 65.4384 57.99 63.7697 57.9747 61.6848C57.9593 59.6 60.8069 57.8892 64.3343 57.8631C67.8625 57.837 70.7345 59.5057 70.7499 61.5906Z" fill="#263238"/>
<path opacity="0.4" d="M70.7499 61.5906C70.7652 63.6754 67.9177 65.3863 64.3903 65.4123C60.8621 65.4384 57.99 63.7697 57.9747 61.6848C57.9593 59.6 60.8069 57.8892 64.3343 57.8631C67.8625 57.837 70.7345 59.5057 70.7499 61.5906Z" fill="white"/>
<path d="M73.4582 54.6507C73.82 54.2582 74.0262 53.839 74.0231 53.4013C74.0078 51.3547 69.6433 49.7275 64.274 49.7673C58.9047 49.8072 54.5648 51.4988 54.5801 53.5454C54.5832 53.9831 54.7955 54.3993 55.1634 54.7863C55.0615 54.9994 55.0025 55.2171 55.004 55.4409C55.0071 55.874 55.2232 56.2848 55.598 56.6658C55.4861 56.8827 55.4263 57.1073 55.4279 57.3365C55.4309 57.7665 55.6525 58.1743 56.038 58.5506C55.9169 58.7706 55.8502 58.9982 55.8518 59.232C55.8548 59.6605 56.0809 60.066 56.4803 60.4377C56.3492 60.66 56.2741 60.8907 56.2756 61.1276C56.2879 62.8292 59.9172 64.1821 64.3806 64.1491C68.8439 64.1162 72.4526 62.7096 72.4395 61.008C72.438 60.7712 72.359 60.542 72.2249 60.3212C72.6181 59.9441 72.8389 59.5348 72.8358 59.1063C72.8343 58.8725 72.7645 58.6464 72.6396 58.428C73.0198 58.0463 73.2351 57.6346 73.2313 57.2046C73.2298 56.9755 73.1669 56.7524 73.0512 56.5363C73.4206 56.1499 73.6307 55.736 73.6268 55.303C73.6253 55.0799 73.5632 54.8622 73.4574 54.6507H73.4582Z" fill="#263238"/>
<path d="M81.3804 36.4233C81.3068 26.5179 72.8776 18.6299 62.8288 19.3979C54.1598 20.0609 47.2682 27.2767 46.9823 35.9657C46.796 41.6141 49.3308 46.6645 53.3664 49.9283C54.0984 50.5208 54.5131 51.426 54.428 52.3642C54.4242 52.4102 54.4219 52.4562 54.4227 52.5022C54.438 54.5809 58.8707 56.2327 64.3228 56.1928C69.7749 56.1522 74.1822 54.4345 74.1669 52.3558C74.1669 52.3113 74.1638 52.2668 74.1592 52.2224C74.0619 51.2742 74.475 50.3598 75.2055 49.7489C79.0119 46.5656 81.4202 41.7727 81.3804 36.4233Z" fill="#407BFF"/>
<path d="M81.3804 36.4233C81.3068 26.5179 72.8776 18.6299 62.8288 19.3979C54.1598 20.0609 47.2682 27.2767 46.9823 35.9657C46.796 41.6141 49.3308 46.6645 53.3664 49.9283C54.0984 50.5208 54.5131 51.426 54.428 52.3642C54.4242 52.4102 54.4219 52.4562 54.4227 52.5022C54.438 54.5809 58.8707 56.2327 64.3228 56.1928C69.7749 56.1522 74.1822 54.4345 74.1669 52.3558C74.1669 52.3113 74.1638 52.2668 74.1592 52.2224C74.0619 51.2742 74.475 50.3598 75.2055 49.7489C79.0119 46.5656 81.4202 41.7727 81.3804 36.4233Z" fill="white"/>
<path d="M60.7624 53.8176C60.4243 53.8176 60.1492 53.5455 60.1469 53.2067C60.1032 47.2732 55.3026 42.747 55.2535 42.7018C55.0688 42.5301 55.0067 42.2626 55.0987 42.0273C55.1899 41.7927 55.4153 41.6371 55.6674 41.6349L58.4981 41.6134L59.3597 39.5477C59.4501 39.33 59.6586 39.1828 59.8939 39.1698C60.1461 39.1606 60.353 39.2809 60.4665 39.4871L62.0845 42.4144L63.6589 39.4626C63.7686 39.2587 64.0115 39.1476 64.2131 39.1368C64.4438 39.1414 64.6539 39.2748 64.7558 39.4825L66.3616 42.7754L67.9184 39.4603C68.0219 39.2418 68.2687 39.0939 68.4848 39.1062C68.727 39.11 68.9439 39.2549 69.0405 39.4764L69.932 41.5298L72.7634 41.5084H72.768C73.0439 41.5084 73.2869 41.6923 73.3605 41.9583C73.4348 42.2266 73.3214 42.511 73.0823 42.6528C69.0543 45.045 67.9168 53.1553 67.9061 53.2366C67.8601 53.5738 67.5543 53.8068 67.214 53.7639C66.8767 53.7187 66.6406 53.409 66.6851 53.0725C66.728 52.7567 67.6516 46.1495 70.9951 42.7524L69.5334 42.7631C69.2436 42.7486 69.062 42.619 68.9646 42.3929L68.4534 41.2156L66.9288 44.4625C66.8276 44.6771 66.613 44.815 66.3762 44.8166C66.1301 44.8013 65.9224 44.684 65.8182 44.4709L64.1771 41.106L62.6364 43.9934C62.5299 44.1919 62.3237 44.3176 62.0976 44.3191C61.8753 44.3958 61.6638 44.1996 61.5541 44.001L60.0043 41.1979L59.4769 42.4627C59.3819 42.6903 59.1604 42.839 58.9128 42.8413L57.0878 42.8551C58.6139 44.6188 61.3411 48.4352 61.3763 53.1975C61.3786 53.537 61.1057 53.8153 60.7654 53.8176H60.7608H60.7624Z" fill="black"/>
</svg>
