<svg width="267" height="243" viewBox="0 0 267 243" fill="none" xmlns="http://www.w3.org/2000/svg">
<path d="M133.542 242.639C207.019 242.639 266.584 239.162 266.584 234.872C266.584 230.582 207.019 227.104 133.542 227.104C60.0656 227.104 0.500977 230.582 0.500977 234.872C0.500977 239.162 60.0656 242.639 133.542 242.639Z" fill="#F5F5F5"/>
<path d="M235.486 229.272L240.612 229.849L239.974 214.712L233.86 215.576L235.486 229.272Z" fill="#263238"/>
<path d="M208.726 229.451L213.892 228.937L215.21 215.659H209.034L208.726 229.451Z" fill="#263238"/>
<path opacity="0.6" d="M235.486 229.272L240.612 229.849L239.974 214.712L233.86 215.576L235.486 229.272Z" fill="white"/>
<path opacity="0.6" d="M208.726 229.451L213.892 228.937L215.21 215.659H209.034L208.726 229.451Z" fill="white"/>
<path d="M234.079 117.454C234.079 117.454 233.558 120.885 233.283 120.885C233.009 120.885 229.853 117.852 229.853 117.852L231.973 114.915L234.079 117.454Z" fill="#263238"/>
<path opacity="0.6" d="M234.079 117.454C234.079 117.454 233.558 120.885 233.283 120.885C233.009 120.885 229.853 117.852 229.853 117.852L231.973 114.915L234.079 117.454Z" fill="white"/>
<path d="M228.549 76.6963C231.657 77.3825 240.749 97.6725 241.586 100.891C242.423 104.109 234.525 118.951 234.525 118.951L230.731 114.758L235.095 100.904L227.89 88.1485L228.549 76.6963Z" fill="#263238"/>
<path opacity="0.8" d="M228.549 76.6963C231.657 77.3825 240.749 97.6725 241.586 100.891C242.423 104.109 234.525 118.951 234.525 118.951L230.731 114.758L235.095 100.904L227.89 88.1485L228.549 76.6963Z" fill="white"/>
<path d="M241.449 228.531H235.095C234.991 228.532 234.891 228.567 234.81 228.632C234.729 228.697 234.672 228.787 234.649 228.888L233.579 233.506C233.552 233.618 233.552 233.735 233.578 233.847C233.604 233.959 233.655 234.064 233.728 234.153C233.801 234.242 233.894 234.312 233.999 234.36C234.104 234.407 234.218 234.43 234.333 234.425C236.392 234.391 237.853 234.274 240.42 234.274C242.005 234.274 246.76 234.439 248.942 234.439C251.124 234.439 251.426 232.285 250.541 232.086C246.547 231.214 243.542 230.027 242.272 228.854C242.045 228.651 241.753 228.537 241.449 228.531Z" fill="#263238"/>
<path d="M213.989 117.962C213.989 117.962 215.876 127.795 218.236 139.618C219.608 146.431 221.118 153.897 222.518 160.539C223.026 162.927 223.513 165.205 223.979 167.311C227.547 183.505 234.039 226.39 234.039 226.39L242.087 225.059C242.087 225.059 240.489 178.448 237.936 161.932C235.61 146.836 230.903 111.944 230.903 111.944L213.989 117.962Z" fill="#263238"/>
<path opacity="0.2" d="M218.236 139.618C219.608 146.431 221.118 153.897 222.518 160.539C224.168 151.576 223.459 142.337 220.459 133.73C219.571 135.634 218.827 137.602 218.236 139.618Z" fill="black"/>
<path d="M214.675 228.531H208.335C208.231 228.532 208.131 228.567 208.05 228.632C207.969 228.697 207.912 228.787 207.889 228.888L206.818 233.506C206.792 233.617 206.792 233.733 206.817 233.845C206.843 233.957 206.894 234.061 206.966 234.15C207.038 234.239 207.13 234.31 207.234 234.357C207.338 234.405 207.452 234.429 207.566 234.425C209.625 234.391 211.093 234.274 213.659 234.274C215.238 234.274 220 234.439 222.182 234.439C224.364 234.439 224.666 232.285 223.774 232.086C219.78 231.214 216.775 230.027 215.505 228.854C215.278 228.648 214.982 228.533 214.675 228.531Z" fill="#263238"/>
<path d="M220.631 112.651C220.631 112.651 220.397 147.893 220.589 163.133C220.802 179.82 215.745 226.26 215.745 226.26L207.607 225.574C207.607 225.574 207.285 183.032 206.022 166.502C204.609 148.017 203.524 116.144 203.524 116.144L220.631 112.651Z" fill="#263238"/>
<path d="M203.531 117.455C203.531 114.71 203.188 110.353 203.078 106.558C202.975 103.079 202.77 99.2301 202.392 95.2022C201.854 89.4198 200.883 83.6858 199.49 78.048C199.49 78.048 202.776 77.1903 206.502 76.6345C207.23 76.5247 207.985 76.4287 208.726 76.3463C212.643 75.8929 216.584 75.6638 220.528 75.6602C221.015 75.6602 221.495 75.6945 221.962 75.7356C224.183 75.9007 226.392 76.2032 228.576 76.6414C228.576 76.6414 234.642 90.2138 231.637 116.398L203.531 117.455Z" fill="#263238"/>
<path opacity="0.8" d="M203.531 117.455C203.531 114.71 203.188 110.353 203.078 106.558C202.975 103.079 202.77 99.2301 202.392 95.2022C201.854 89.4198 200.883 83.6858 199.49 78.048C199.49 78.048 202.776 77.1903 206.502 76.6345C207.23 76.5247 207.985 76.4287 208.726 76.3463C212.643 75.8929 216.584 75.6638 220.528 75.6602C221.015 75.6602 221.495 75.6945 221.962 75.7356C224.183 75.9007 226.392 76.2032 228.576 76.6414C228.576 76.6414 234.642 90.2138 231.637 116.398L203.531 117.455Z" fill="white"/>
<path opacity="0.2" d="M201.24 86.625C201.727 89.5344 202.084 92.4094 202.365 95.2021C202.413 95.6824 202.454 96.1559 202.495 96.6293C203.396 93.7045 203.747 90.6383 203.532 87.5856C202.842 87.111 202.062 86.784 201.24 86.625Z" fill="black"/>
<path d="M209.254 63.0342C210.173 66.7875 211.244 73.6972 208.705 76.3733C209.934 77.5277 211.398 78.4031 212.997 78.9395C214.596 79.476 216.292 79.6609 217.968 79.4816C221.235 79.2209 221.289 76.936 220.5 75.7077C216.219 74.9392 216.184 71.7966 216.788 68.8049L209.254 63.0342Z" fill="#263238"/>
<path opacity="0.6" d="M209.254 63.0342C210.173 66.7875 211.244 73.6972 208.705 76.3733C209.934 77.5277 211.398 78.4031 212.997 78.9395C214.596 79.476 216.292 79.6609 217.968 79.4816C221.235 79.2209 221.289 76.936 220.5 75.7077C216.219 74.9392 216.184 71.7966 216.788 68.8049L209.254 63.0342Z" fill="white"/>
<path opacity="0.2" d="M212.321 65.3877L216.781 68.8185C216.632 69.5141 216.543 70.2212 216.514 70.9319C214.888 70.7878 212.582 69.141 212.335 67.4531C212.204 66.7713 212.199 66.0712 212.321 65.3877Z" fill="black"/>
<path d="M207.395 58.0118C208.657 63.0758 209.137 66.1086 212.198 68.2358C216.829 71.4333 222.717 67.8515 222.991 62.4925C223.238 57.6893 221.132 50.1964 215.738 49.1397C214.545 48.9071 213.311 48.9808 212.154 49.354C210.996 49.7271 209.952 50.3876 209.119 51.2736C208.285 52.1596 207.69 53.2423 207.389 54.4207C207.087 55.599 207.089 56.8345 207.395 58.0118Z" fill="#263238"/>
<path opacity="0.6" d="M207.395 58.0118C208.657 63.0758 209.137 66.1086 212.198 68.2358C216.829 71.4333 222.717 67.8515 222.991 62.4925C223.238 57.6893 221.132 50.1964 215.738 49.1397C214.545 48.9071 213.311 48.9808 212.154 49.354C210.996 49.7271 209.952 50.3876 209.119 51.2736C208.285 52.1596 207.69 53.2423 207.389 54.4207C207.087 55.599 207.089 56.8345 207.395 58.0118Z" fill="white"/>
<path d="M215.429 57.929C215.505 58.3475 215.793 58.6151 216.061 58.6151C216.328 58.6151 216.493 58.176 216.418 57.7643C216.342 57.3526 216.054 57.0781 215.786 57.0781C215.519 57.0781 215.354 57.5104 215.429 57.929Z" fill="#263238"/>
<path d="M220.143 56.9885C220.226 57.4071 220.507 57.6747 220.782 57.6747C221.056 57.6747 221.214 57.2424 221.131 56.8239C221.049 56.4053 220.775 56.1377 220.5 56.1377C220.226 56.1377 220.068 56.5837 220.143 56.9885Z" fill="#263238"/>
<path opacity="0.2" d="M218.689 57.5039C219.431 58.6381 220.327 59.6634 221.351 60.5505C221.1 60.7996 220.799 60.9931 220.468 61.1184C220.137 61.2437 219.783 61.298 219.43 61.2778L218.689 57.5039Z" fill="black"/>
<path d="M217.488 63.3087C217.673 63.302 217.856 63.279 218.037 63.2401C218.053 63.2376 218.069 63.2319 218.083 63.2232C218.097 63.2146 218.109 63.2032 218.119 63.1898C218.128 63.1764 218.135 63.1611 218.139 63.145C218.142 63.1289 218.143 63.1123 218.14 63.096C218.133 63.0639 218.115 63.0354 218.088 63.0163C218.061 62.9973 218.028 62.989 217.996 62.9931C217.481 63.1063 216.946 63.0963 216.436 62.964C215.926 62.8316 215.454 62.5806 215.059 62.2314C215.047 62.2194 215.034 62.2098 215.018 62.2033C215.003 62.1967 214.986 62.1934 214.97 62.1934C214.953 62.1934 214.937 62.1967 214.921 62.2033C214.906 62.2098 214.892 62.2194 214.881 62.2314C214.858 62.2556 214.845 62.2875 214.845 62.3206C214.845 62.3538 214.858 62.3857 214.881 62.4098C215.229 62.7319 215.641 62.9781 216.09 63.1328C216.539 63.2876 217.015 63.3475 217.488 63.3087Z" fill="#263238"/>
<path d="M213.694 56.687C213.738 56.6847 213.781 56.6709 213.818 56.6468C213.856 56.6227 213.886 56.5893 213.906 56.5498C214.037 56.2643 214.233 56.0136 214.479 55.8181C214.724 55.6226 215.012 55.4877 215.32 55.4245C215.386 55.4159 215.446 55.3815 215.488 55.3289C215.529 55.2762 215.547 55.2095 215.54 55.1431C215.536 55.1106 215.526 55.0791 215.511 55.0504C215.495 55.0217 215.474 54.9964 215.448 54.976C215.423 54.9556 215.393 54.9404 215.362 54.9314C215.33 54.9224 215.298 54.9197 215.265 54.9236C214.878 54.9953 214.513 55.1568 214.2 55.3952C213.886 55.6335 213.633 55.942 213.46 56.2959C213.445 56.3246 213.436 56.356 213.433 56.3884C213.431 56.4207 213.435 56.4533 213.445 56.484C213.455 56.5148 213.472 56.5432 213.493 56.5675C213.515 56.5917 213.541 56.6114 213.57 56.6253C213.605 56.6563 213.648 56.6776 213.694 56.687Z" fill="#263238"/>
<path d="M221.88 54.9851C221.928 54.9795 221.975 54.9631 222.017 54.937C222.069 54.8964 222.103 54.8371 222.112 54.7718C222.121 54.7065 222.104 54.6402 222.065 54.5871C221.839 54.2629 221.537 53.9989 221.185 53.8183C220.833 53.6377 220.443 53.5459 220.048 53.551C220.015 53.5527 219.983 53.5609 219.954 53.5749C219.925 53.589 219.899 53.6087 219.877 53.6329C219.855 53.6571 219.839 53.6854 219.828 53.7161C219.817 53.7468 219.813 53.7793 219.814 53.8117C219.815 53.8445 219.823 53.8767 219.836 53.9065C219.85 53.9362 219.87 53.9629 219.894 53.9847C219.919 54.0066 219.947 54.0232 219.978 54.0336C220.01 54.0439 220.042 54.0478 220.075 54.045C220.388 54.0464 220.696 54.1232 220.973 54.2689C221.251 54.4147 221.488 54.625 221.667 54.8821C221.69 54.9172 221.721 54.9454 221.759 54.9636C221.796 54.9817 221.838 54.9892 221.88 54.9851Z" fill="#263238"/>
<path d="M214.613 52.3231C214.613 52.3231 213 51.5958 212.554 52.8103C212.108 54.0248 212.746 56.9273 212.746 56.9273L212.355 56.4676C212.355 56.4676 211.827 63.2881 208.87 62.1833C205.912 61.0786 200.787 55.2736 206.276 50.7106C206.276 50.7106 206.619 49.0226 210.53 47.4513C214.441 45.88 219.855 47.4101 221.227 49.9284C222.6 52.4466 221.722 54.1826 221.722 54.1826C221.472 53.624 221.096 53.1308 220.624 52.7416C220.625 53.0267 220.555 53.3075 220.421 53.559C220.287 53.8105 220.092 54.0248 219.855 54.1826C219.785 53.6249 219.562 53.0975 219.21 52.6593C219.175 53.1605 219.029 53.6477 218.785 54.0865C217.941 51.383 215.951 51.1909 215.354 51.3419C215.141 51.4039 214.954 51.5329 214.821 51.7097C214.687 51.8864 214.614 52.1016 214.613 52.3231Z" fill="#263238"/>
<path d="M206.208 62.6498C206.514 63.221 206.931 63.7256 207.434 64.1343C207.937 64.5431 208.516 64.8478 209.137 65.0308C210.805 65.5043 211.669 64.0084 211.196 62.4165C210.798 60.9893 209.446 59.02 207.765 59.2395C207.399 59.2979 207.052 59.446 206.757 59.6707C206.462 59.8953 206.226 60.1895 206.072 60.5271C205.918 60.8647 205.85 61.2351 205.873 61.6055C205.897 61.9758 206.012 62.3346 206.208 62.6498Z" fill="#263238"/>
<path opacity="0.6" d="M206.208 62.6498C206.514 63.221 206.931 63.7256 207.434 64.1343C207.937 64.5431 208.516 64.8478 209.137 65.0308C210.805 65.5043 211.669 64.0084 211.196 62.4165C210.798 60.9893 209.446 59.02 207.765 59.2395C207.399 59.2979 207.052 59.446 206.757 59.6707C206.462 59.8953 206.226 60.1895 206.072 60.5271C205.918 60.8647 205.85 61.2351 205.873 61.6055C205.897 61.9758 206.012 62.3346 206.208 62.6498Z" fill="white"/>
<path d="M220.301 78.8096L219.663 81.2523C219.663 81.2523 222.483 96.5745 222.998 104.637L221.776 106.695L219.999 104.911C219.999 104.911 219.56 84.1068 218.833 81.3004L216.706 79.3997L218.339 78.0273L220.301 78.8096Z" fill="#263238"/>
<path d="M218.353 77.8142L209.076 73.4707L206.475 76.6614L214.49 82.6105L218.682 78.6307L223.423 81.6636L222.669 75.8448L217.221 73.4707L218.353 77.8142Z" fill="#263238"/>
<path opacity="0.9" d="M218.353 77.8142L209.076 73.4707L206.475 76.6614L214.49 82.6105L218.682 78.6307L223.423 81.6636L222.669 75.8448L217.221 73.4707L218.353 77.8142Z" fill="white"/>
<path d="M227.129 118.785L212.054 119.602L211.93 117.804L226.985 117.187L227.129 118.785Z" fill="black"/>
<path d="M211.169 117.839L211.333 119.643L203.669 120.062L203.6 118.148L211.169 117.839Z" fill="black"/>
<path d="M227.883 117.145L231.589 116.994L231.794 118.531L228.014 118.737L227.883 117.145Z" fill="black"/>
<path d="M222.346 117.55L222.483 119.005C222.487 119.056 222.481 119.107 222.464 119.156C222.448 119.204 222.422 119.249 222.388 119.287C222.354 119.326 222.313 119.357 222.267 119.379C222.221 119.401 222.171 119.414 222.12 119.417L219.114 119.52C219.017 119.523 218.922 119.489 218.85 119.423C218.779 119.358 218.735 119.267 218.73 119.17L218.613 117.735C218.61 117.684 218.616 117.633 218.632 117.585C218.649 117.536 218.675 117.492 218.709 117.453C218.742 117.415 218.784 117.384 218.83 117.361C218.876 117.339 218.926 117.326 218.977 117.324L221.955 117.207C222.051 117.205 222.145 117.239 222.217 117.302C222.29 117.366 222.336 117.454 222.346 117.55Z" fill="white"/>
<path d="M234.93 120.803L233.62 117.372C232.933 115.883 230.601 117.262 230.601 117.262C230.496 117.317 230.412 117.404 230.361 117.51C230.31 117.617 230.295 117.737 230.319 117.852L232.083 124.447C232.129 124.607 232.217 124.752 232.339 124.867C232.461 124.981 232.611 125.06 232.774 125.096C232.937 125.132 233.107 125.123 233.266 125.07C233.424 125.018 233.565 124.923 233.675 124.797L234.32 124.11C234.714 123.667 234.979 123.125 235.087 122.542C235.194 121.959 235.14 121.357 234.93 120.803Z" fill="#263238"/>
<path opacity="0.6" d="M234.93 120.803L233.62 117.372C232.933 115.883 230.601 117.262 230.601 117.262C230.496 117.317 230.412 117.404 230.361 117.51C230.31 117.617 230.295 117.737 230.319 117.852L232.083 124.447C232.129 124.607 232.217 124.752 232.339 124.867C232.461 124.981 232.611 125.06 232.774 125.096C232.937 125.132 233.107 125.123 233.266 125.07C233.424 125.018 233.565 124.923 233.675 124.797L234.32 124.11C234.714 123.667 234.979 123.125 235.087 122.542C235.194 121.959 235.14 121.357 234.93 120.803Z" fill="white"/>
<path d="M197.301 146.672H196.992C195.677 146.664 194.375 146.415 193.15 145.937C192.024 145.457 191.414 144.798 191.434 144.078C191.434 142.671 193.897 141.669 197.102 141.731C198.417 141.738 199.719 141.987 200.944 142.465C202.07 142.946 202.68 143.604 202.667 144.325C202.632 145.684 200.354 146.672 197.301 146.672ZM196.8 142.417C194.055 142.417 192.134 143.282 192.12 144.092C192.12 144.503 192.594 144.956 193.424 145.306C194.567 145.758 195.784 145.99 197.013 145.992C199.908 146.047 201.96 145.155 201.981 144.318C201.981 143.906 201.5 143.454 200.677 143.104C199.534 142.652 198.317 142.419 197.088 142.417H196.8Z" fill="#263238"/>
<path d="M183.763 144.414L183.358 163.077C183.354 163.223 183.379 163.368 183.432 163.504C183.485 163.64 183.563 163.764 183.664 163.869C183.765 163.974 183.886 164.059 184.019 164.117C184.153 164.175 184.296 164.207 184.442 164.21L211.662 164.8C211.957 164.805 212.241 164.695 212.454 164.492C212.668 164.289 212.792 164.01 212.801 163.716L213.206 145.059C213.212 144.763 213.1 144.477 212.896 144.264C212.691 144.051 212.411 143.927 212.115 143.92L184.895 143.329C184.749 143.326 184.604 143.351 184.468 143.404C184.332 143.456 184.208 143.535 184.103 143.636C183.998 143.737 183.914 143.857 183.855 143.991C183.797 144.124 183.765 144.268 183.763 144.414Z" fill="#263238"/>
<path opacity="0.1" d="M183.763 144.414L183.358 163.077C183.354 163.223 183.379 163.368 183.432 163.504C183.485 163.64 183.563 163.764 183.664 163.869C183.765 163.974 183.886 164.059 184.019 164.117C184.153 164.175 184.296 164.207 184.442 164.21L211.662 164.8C211.957 164.805 212.241 164.695 212.454 164.492C212.668 164.289 212.792 164.01 212.801 163.716L213.206 145.059C213.212 144.763 213.1 144.477 212.896 144.264C212.691 144.051 212.411 143.927 212.115 143.92L184.895 143.329C184.749 143.326 184.604 143.351 184.468 143.404C184.332 143.456 184.208 143.535 184.103 143.636C183.998 143.737 183.914 143.857 183.855 143.991C183.797 144.124 183.765 144.268 183.763 144.414Z" fill="white"/>
<path opacity="0.2" d="M210.53 144.997L210.125 163.654C210.12 163.948 210.23 164.233 210.433 164.446C210.636 164.659 210.915 164.784 211.209 164.793H211.662C211.957 164.798 212.241 164.687 212.454 164.484C212.668 164.282 212.792 164.003 212.801 163.708L213.206 145.051C213.212 144.756 213.1 144.47 212.896 144.257C212.691 144.043 212.411 143.92 212.115 143.912H211.662C211.517 143.909 211.372 143.934 211.236 143.987C211.1 144.039 210.976 144.118 210.871 144.219C210.765 144.32 210.681 144.44 210.623 144.574C210.564 144.707 210.533 144.851 210.53 144.997Z" fill="white"/>
<path d="M211.367 143.92C211.085 143.928 210.816 144.046 210.618 144.248C210.42 144.45 210.307 144.721 210.304 145.004L210.112 153.656C210.11 153.772 210.085 153.887 210.039 153.993C209.993 154.099 209.926 154.195 209.842 154.276C209.759 154.356 209.66 154.419 209.552 154.461C209.444 154.503 209.329 154.524 209.213 154.521L184.209 153.979C183.976 153.972 183.755 153.874 183.593 153.706C183.432 153.538 183.342 153.313 183.344 153.08L183.536 144.4C183.539 144.255 183.57 144.112 183.628 143.98C183.687 143.847 183.77 143.727 183.875 143.627C183.979 143.527 184.103 143.448 184.238 143.396C184.373 143.344 184.517 143.319 184.662 143.323L211.889 143.913L211.367 143.92Z" fill="#263238"/>
<path opacity="0.2" d="M211.367 143.92C211.085 143.928 210.816 144.046 210.618 144.248C210.42 144.45 210.307 144.721 210.304 145.004L210.112 153.656C210.11 153.772 210.085 153.887 210.039 153.993C209.993 154.099 209.926 154.195 209.842 154.276C209.759 154.356 209.66 154.419 209.552 154.461C209.444 154.503 209.329 154.524 209.213 154.521L184.209 153.979C183.976 153.972 183.755 153.874 183.593 153.706C183.432 153.538 183.342 153.313 183.344 153.08L183.536 144.4C183.539 144.255 183.57 144.112 183.628 143.98C183.687 143.847 183.77 143.727 183.875 143.627C183.979 143.527 184.103 143.448 184.238 143.396C184.373 143.344 184.517 143.319 184.662 143.323L211.889 143.913L211.367 143.92Z" fill="white"/>
<path d="M197.196 158.456L195.138 158.411C195.094 158.41 195.052 158.401 195.012 158.383C194.973 158.366 194.937 158.341 194.907 158.309C194.877 158.278 194.854 158.241 194.838 158.201C194.822 158.161 194.815 158.118 194.816 158.075L194.924 153.067L197.606 153.125L197.498 158.133C197.497 158.214 197.465 158.293 197.409 158.352C197.353 158.412 197.277 158.449 197.196 158.456Z" fill="#263238"/>
<path d="M197.411 157.17L195.071 157.115C194.89 157.112 194.717 157.038 194.591 156.909C194.467 156.777 194.401 156.602 194.406 156.422V155.303C194.406 155.121 194.478 154.947 194.606 154.818C194.735 154.689 194.91 154.617 195.092 154.617L197.431 154.665C197.611 154.671 197.781 154.748 197.905 154.878C198.031 155.009 198.1 155.184 198.097 155.365V156.484C198.097 156.666 198.025 156.84 197.896 156.969C197.767 157.097 197.593 157.17 197.411 157.17ZM195.092 154.981C195.004 154.983 194.921 155.018 194.858 155.079C194.796 155.14 194.759 155.223 194.755 155.31V156.429C194.752 156.473 194.759 156.517 194.774 156.558C194.789 156.6 194.813 156.638 194.845 156.669C194.875 156.702 194.912 156.728 194.954 156.746C194.995 156.763 195.04 156.772 195.085 156.772L197.425 156.827C197.469 156.83 197.514 156.823 197.556 156.808C197.598 156.792 197.636 156.768 197.669 156.737C197.701 156.706 197.726 156.669 197.743 156.628C197.76 156.586 197.769 156.542 197.768 156.497V155.372C197.767 155.283 197.733 155.197 197.672 155.132C197.609 155.07 197.526 155.034 197.438 155.029L195.099 154.981H195.092Z" fill="white"/>
<path d="M194.611 135.933L194.028 141.196L199.572 139.261C199.572 139.261 199.819 134.526 197.356 134.526L194.611 135.933Z" fill="#263238"/>
<path d="M195.146 143.563L199.805 143.323L199.586 139.261L194.042 141.196L195.146 143.563Z" fill="#263238"/>
<g opacity="0.6">
<path d="M194.611 135.933L194.028 141.196L199.572 139.261C199.572 139.261 199.819 134.526 197.356 134.526L194.611 135.933Z" fill="white"/>
<path d="M195.146 143.563L199.805 143.323L199.586 139.261L194.042 141.196L195.146 143.563Z" fill="white"/>
</g>
<path d="M199.462 78.0752C197.452 80.4493 192.209 100.149 191.482 106.043C190.755 111.938 194.227 136.365 194.227 136.365L199.49 135.556C199.49 135.556 197.843 110.051 198.57 108.37C199.297 106.688 203.861 88.6079 203.861 88.6079C203.861 88.6079 204.341 85.1222 203.627 82.6931C202.914 80.2641 199.462 78.0752 199.462 78.0752Z" fill="#263238"/>
<path opacity="0.8" d="M199.462 78.0752C197.452 80.4493 192.209 100.149 191.482 106.043C190.755 111.938 194.227 136.365 194.227 136.365L199.49 135.556C199.49 135.556 197.843 110.051 198.57 108.37C199.297 106.688 203.861 88.6079 203.861 88.6079C203.861 88.6079 204.341 85.1222 203.627 82.6931C202.914 80.2641 199.462 78.0752 199.462 78.0752Z" fill="white"/>
<path d="M144.494 18.7832H122.989L70.0854 234.453H197.397L144.494 18.7832Z" fill="#FFCED8"/>
<path opacity="0.7" d="M144.494 18.7832H122.989L70.0854 234.453H197.397L144.494 18.7832Z" fill="white"/>
<path opacity="0.2" d="M143.073 18.7832H124.41L78.5049 234.453H188.985L143.073 18.7832Z" fill="white"/>
<path d="M251.762 14.872H15.3222C15.0492 14.872 14.7875 14.7635 14.5944 14.5705C14.4014 14.3775 14.293 14.1157 14.293 13.8427C14.293 13.5698 14.4014 13.308 14.5944 13.1149C14.7875 12.9219 15.0492 12.8135 15.3222 12.8135H251.762C252.035 12.8135 252.297 12.9219 252.49 13.1149C252.683 13.308 252.792 13.5698 252.792 13.8427C252.792 14.1157 252.683 14.3775 252.49 14.5705C252.297 14.7635 252.035 14.872 251.762 14.872Z" fill="#263238"/>
<path d="M136.116 5.14941H118.989V21.1646H136.116V5.14941Z" fill="black"/>
<path d="M145.269 0.00976562H121.665V3.80428H145.269V0.00976562Z" fill="#263238"/>
<path d="M120.032 25.2262H130.304L127.024 21.1572H120.622L120.032 25.2262Z" fill="black"/>
<path d="M147.636 2.0957V25.2265H127.456L126.255 22.9209H121.143L120.382 25.2265H120.032V2.0957H147.636Z" fill="#263238"/>
<path opacity="0.1" d="M147.636 2.0957H127.929V25.2265H147.636V2.0957Z" fill="white"/>
<path opacity="0.1" d="M125.638 6.4664C125.638 8.12006 124.684 9.46495 123.517 9.46495C123.419 9.47505 123.32 9.47505 123.222 9.46495C122.193 9.27282 121.39 8.01713 121.39 6.5007C121.39 4.98427 122.193 3.75603 123.222 3.53645C123.32 3.52301 123.419 3.52301 123.517 3.53645C124.684 3.46783 125.638 4.84018 125.638 6.4664Z" fill="white"/>
<path opacity="0.1" d="M125.034 6.4662C125.034 7.98264 124.245 9.21088 123.222 9.43045C122.193 9.23833 121.39 7.98264 121.39 6.4662C121.39 4.94977 122.193 3.72153 123.222 3.50195C124.245 3.70094 125.034 4.94977 125.034 6.4662Z" fill="white"/>
<path opacity="0.1" d="M123.723 6.46688C123.723 7.19422 123.373 7.78433 122.941 7.78433C122.509 7.78433 122.159 7.19422 122.159 6.46688C122.159 5.73955 122.509 5.14258 122.941 5.14258C123.373 5.14258 123.723 5.73955 123.723 6.46688Z" fill="white"/>
<path d="M148.473 5.14941H131.347V21.1646H148.473V5.14941Z" fill="#263238"/>
<path opacity="0.1" d="M148.474 5.47168H132.76V20.8419H148.474V5.47168Z" fill="white"/>
<path d="M146.971 19.3325V6.97461L134.27 6.97461V19.3325H146.971Z" fill="#407BFF"/>
<path d="M140.205 17.301C140.089 17.3 139.976 17.27 139.875 17.2136C139.774 17.1573 139.69 17.0764 139.628 16.9785L136.403 12.4566C136.274 12.2667 136.213 12.0389 136.229 11.8099C136.245 11.5808 136.338 11.3639 136.493 11.1941C136.564 11.1208 136.651 11.0646 136.748 11.0295C136.844 10.9943 136.947 10.9812 137.049 10.9911C137.151 11.001 137.249 11.0336 137.337 11.0865C137.425 11.1395 137.5 11.2114 137.556 11.297L140.205 15.0092L144.582 8.87481C144.639 8.788 144.714 8.71502 144.802 8.66131C144.891 8.60761 144.99 8.57457 145.093 8.56467C145.196 8.55478 145.3 8.56827 145.397 8.60416C145.494 8.64004 145.581 8.69738 145.653 8.77189C145.808 8.94307 145.901 9.16172 145.916 9.39223C145.93 9.62274 145.867 9.85153 145.735 10.0413L140.781 16.9785C140.72 17.0764 140.635 17.1573 140.534 17.2136C140.434 17.27 140.32 17.3 140.205 17.301Z" fill="white"/>
<path d="M218.504 5.14941H201.377V21.1646H218.504V5.14941Z" fill="black"/>
<path d="M227.657 0.00976562H204.053V3.80428H227.657V0.00976562Z" fill="#263238"/>
<path d="M202.42 25.2262H212.692L209.419 21.1572H203.01L202.42 25.2262Z" fill="black"/>
<path d="M230.031 2.0957V25.2265H209.844L208.643 22.9209H203.532L202.77 25.2265H202.42V2.0957H230.031Z" fill="#263238"/>
<path opacity="0.1" d="M230.025 2.0957H210.318V25.2265H230.025V2.0957Z" fill="white"/>
<path opacity="0.1" d="M208.026 6.4664C208.026 8.12006 207.072 9.46495 205.905 9.46495C205.807 9.47505 205.708 9.47505 205.61 9.46495C204.581 9.27282 203.785 8.01713 203.785 6.5007C203.785 4.98427 204.581 3.75603 205.61 3.53645C205.708 3.52301 205.808 3.52301 205.905 3.53645C207.072 3.46783 208.026 4.84018 208.026 6.4664Z" fill="white"/>
<path opacity="0.1" d="M207.429 6.4662C207.429 7.98264 206.633 9.21088 205.61 9.43045C204.581 9.23833 203.785 7.98264 203.785 6.4662C203.785 4.94977 204.581 3.72153 205.61 3.50195C206.633 3.70094 207.429 4.94977 207.429 6.4662Z" fill="white"/>
<path opacity="0.1" d="M206.118 6.46688C206.118 7.19422 205.768 7.78433 205.336 7.78433C204.904 7.78433 204.554 7.19422 204.554 6.46688C204.554 5.73955 204.904 5.14258 205.336 5.14258C205.768 5.14258 206.118 5.73955 206.118 6.46688Z" fill="white"/>
<path d="M230.862 5.14941H213.735V21.1646H230.862V5.14941Z" fill="#263238"/>
<path opacity="0.1" d="M230.862 5.47168H215.148V20.8419H230.862V5.47168Z" fill="white"/>
<path d="M229.359 19.3325V6.97461L216.658 6.97461V19.3325H229.359Z" fill="#407BFF"/>
<path d="M224.116 13.157L227.41 9.58202C227.559 9.41484 227.641 9.19871 227.641 8.97475C227.641 8.7508 227.559 8.53467 227.41 8.36749C227.34 8.28848 227.254 8.22523 227.157 8.18192C227.061 8.13861 226.956 8.11621 226.851 8.11621C226.745 8.11621 226.641 8.13861 226.544 8.18192C226.448 8.22523 226.362 8.28848 226.292 8.36749L222.998 11.9424L219.704 8.36749C219.634 8.28848 219.548 8.22523 219.452 8.18192C219.355 8.13861 219.251 8.11621 219.145 8.11621C219.039 8.11621 218.935 8.13861 218.839 8.18192C218.742 8.22523 218.656 8.28848 218.586 8.36749C218.437 8.53467 218.354 8.7508 218.354 8.97475C218.354 9.19871 218.437 9.41484 218.586 9.58202L221.879 13.157L218.586 16.725C218.437 16.8922 218.354 17.1083 218.354 17.3323C218.354 17.5562 218.437 17.7724 218.586 17.9395C218.656 18.0191 218.743 18.0829 218.84 18.1266C218.937 18.1704 219.042 18.1932 219.149 18.1934C219.254 18.1931 219.358 18.1702 219.454 18.1264C219.55 18.0827 219.635 18.0189 219.704 17.9395L222.998 14.3646L226.292 17.9395C226.362 18.0191 226.449 18.0829 226.546 18.1266C226.643 18.1704 226.748 18.1932 226.854 18.1934C226.96 18.1931 227.064 18.1702 227.159 18.1264C227.255 18.0827 227.341 18.0189 227.41 17.9395C227.559 17.7724 227.641 17.5562 227.641 17.3323C227.641 17.1083 227.559 16.8922 227.41 16.725L224.116 13.157Z" fill="white"/>
<path d="M53.7269 5.14941H36.6001V21.1646H53.7269V5.14941Z" fill="black"/>
<path d="M62.8806 0.00976562H39.2764V3.80428H62.8806V0.00976562Z" fill="#263238"/>
<path d="M37.6362 25.2262H47.915L44.6352 21.1572H38.2332L37.6362 25.2262Z" fill="black"/>
<path d="M65.2477 2.0957V25.2265H45.0606L43.8666 22.9209H38.7547L37.993 25.2265H37.6362V2.0957H65.2477Z" fill="#263238"/>
<path opacity="0.1" d="M65.2478 2.0957H45.541V25.2265H65.2478V2.0957Z" fill="white"/>
<path opacity="0.1" d="M43.2493 6.46666C43.2493 8.12033 42.2956 9.46522 41.1291 9.46522C41.031 9.47582 40.9321 9.47582 40.834 9.46522C39.7979 9.27309 39.002 8.0174 39.002 6.50097C39.002 4.98453 39.7979 3.75629 40.834 3.53672C40.9319 3.52292 41.0312 3.52292 41.1291 3.53672C42.2818 3.4681 43.2493 4.84044 43.2493 6.46666Z" fill="white"/>
<path opacity="0.1" d="M42.6455 6.4662C42.6455 7.98264 41.8564 9.21088 40.834 9.43045C39.7979 9.23833 39.002 7.98264 39.002 6.4662C39.002 4.94977 39.7979 3.72153 40.834 3.50195C41.8564 3.70094 42.6455 4.94977 42.6455 6.4662Z" fill="white"/>
<path opacity="0.1" d="M41.335 6.46688C41.335 7.19422 40.985 7.78433 40.5527 7.78433C40.1205 7.78433 39.7705 7.19422 39.7705 6.46688C39.7705 5.73955 40.1205 5.14258 40.5527 5.14258C40.985 5.14258 41.335 5.73955 41.335 6.46688Z" fill="white"/>
<path d="M66.0848 5.14941H48.958V21.1646H66.0848V5.14941Z" fill="#263238"/>
<path opacity="0.1" d="M66.0849 5.47168H50.3716V20.8419H66.0849V5.47168Z" fill="white"/>
<path d="M64.5752 19.3325V6.97461L51.8742 6.97461V19.3325H64.5752Z" fill="#407BFF"/>
<path d="M59.3468 13.157L62.6405 9.58202C62.7895 9.41484 62.8718 9.19871 62.8718 8.97475C62.8718 8.7508 62.7895 8.53467 62.6405 8.36749C62.5703 8.28848 62.4842 8.22523 62.3878 8.18192C62.2914 8.13861 62.1869 8.11621 62.0812 8.11621C61.9756 8.11621 61.8711 8.13861 61.7747 8.18192C61.6783 8.22523 61.5922 8.28848 61.522 8.36749L58.2284 11.9424L54.9348 8.36749C54.8646 8.28848 54.7785 8.22523 54.6821 8.18192C54.5857 8.13861 54.4812 8.11621 54.3756 8.11621C54.2699 8.11621 54.1654 8.13861 54.069 8.18192C53.9726 8.22523 53.8865 8.28848 53.8163 8.36749C53.6673 8.53467 53.585 8.7508 53.585 8.97475C53.585 9.19871 53.6673 9.41484 53.8163 9.58202L57.1099 13.157L53.8163 16.725C53.6673 16.8922 53.585 17.1083 53.585 17.3323C53.585 17.5562 53.6673 17.7724 53.8163 17.9395C53.8859 18.0196 53.9718 18.0837 54.0683 18.1277C54.1648 18.1716 54.2695 18.1944 54.3756 18.1944C54.4816 18.1944 54.5864 18.1716 54.6828 18.1277C54.7793 18.0837 54.8652 18.0196 54.9348 17.9395L58.2284 14.3646L61.522 17.9395C61.5913 18.0189 61.6767 18.0827 61.7725 18.1264C61.8684 18.1702 61.9724 18.1931 62.0778 18.1934C62.1842 18.1932 62.2893 18.1704 62.3863 18.1266C62.4832 18.0829 62.5699 18.0191 62.6405 17.9395C62.7895 17.7724 62.8718 17.5562 62.8718 17.3323C62.8718 17.1083 62.7895 16.8922 62.6405 16.725L59.3468 13.157Z" fill="white"/>
<path d="M120.073 226.007L120.608 226.755L121.678 226.295L122.365 229.568L126.873 235.819C126.873 235.819 128.595 236.093 127.236 232.539C127.173 232.366 127.127 232.186 127.099 232.004C126.694 229.877 127.579 225.828 127.579 225.828L125.102 222.397C124.872 222.41 124.643 222.435 124.416 222.473C123.366 222.617 121.315 223.111 120.073 226.007Z" fill="#0033A6"/>
<path opacity="0.2" d="M120.073 226.007L120.608 226.755L121.678 226.295L122.365 229.568L126.873 235.819C126.873 235.819 128.595 236.093 127.236 232.539C127.173 232.366 127.127 232.186 127.099 232.004C126.694 229.877 127.579 225.828 127.579 225.828L125.102 222.397C124.872 222.41 124.643 222.435 124.416 222.473C123.366 222.617 121.315 223.111 120.073 226.007Z" fill="black"/>
<path d="M124.389 222.445C125.219 222.534 124.492 226.198 124.828 228.25C125.123 230.089 125.926 231.818 127.092 231.996C126.687 229.869 128.135 225.025 128.135 225.025L126.145 222.28C126.145 222.28 124.828 222.356 124.389 222.445Z" fill="#EBB376"/>
<path opacity="0.2" d="M124.389 222.445C125.219 222.534 124.492 226.198 124.828 228.25C125.123 230.089 125.926 231.818 127.092 231.996C126.687 229.869 128.135 225.025 128.135 225.025L126.145 222.28C126.145 222.28 124.828 222.356 124.389 222.445Z" fill="black"/>
<path d="M126.983 235.585H127.902L128.156 234.453L131.203 235.825H138.908C138.908 235.825 140.137 234.59 136.466 233.609C136.285 233.561 136.11 233.494 135.944 233.41C133.989 232.49 131.203 229.389 131.203 229.389H126.969C126.838 229.584 126.722 229.788 126.619 229.999C126.159 230.933 125.363 232.888 126.983 235.585Z" fill="#0033A6"/>
<path d="M126.619 230C127.182 229.375 129.721 232.113 131.587 233.046C133.248 233.87 135.114 234.24 135.944 233.396C133.989 232.477 130.908 228.47 130.908 228.47H127.477C127.477 228.47 126.818 229.602 126.619 230Z" fill="#EBB376"/>
<path d="M160.447 91.7985L158.608 86.9404L164.351 87.4276C164.351 87.4276 165.723 91.8603 163.411 92.471L160.447 91.7985Z" fill="#EBB376"/>
<path d="M159.562 81.8906L164.351 83.9834V87.428L158.615 86.9408L159.562 81.8906Z" fill="#EBB376"/>
<path d="M164.098 91.8945C164.098 91.8945 163.851 113.536 159.047 113.536C156.378 113.536 153.359 111.8 150.813 109.838C148.656 108.161 146.654 106.294 144.83 104.259V104.184L143.149 94.1382C147.877 94.0216 156.131 104.856 156.131 104.856L160.111 91.1328L164.098 91.8945Z" fill="#0033A6"/>
<path opacity="0.2" d="M150.792 109.824C148.635 108.147 146.633 106.28 144.809 104.246V104.17L146.346 100.739C148.924 103.096 150.512 106.343 150.792 109.824Z" fill="black"/>
<path d="M123.716 70.1362C123.716 70.1362 125.219 67.5424 129.521 67.0964C133.824 66.6504 139.532 68.9559 140.404 75.5157C141.275 82.0755 143.149 85.6847 143.149 85.6847C143.149 85.6847 129.288 89.3077 125.391 88.004C121.493 86.7003 115.469 72.0231 123.716 70.1362Z" fill="#263238"/>
<path d="M150.292 185.577C148.233 189.385 146.141 193.482 144.116 197.585C141.475 202.999 138.991 208.427 136.863 213.285C134.62 218.403 132.801 222.891 131.662 225.986C130.585 226.109 127.339 224.174 126.399 222.418C128.062 212.424 130.587 202.593 133.947 193.036C136.047 187.299 138.62 181.652 141.708 177.089C129.082 141.175 132.177 127.685 132.177 127.685L146.806 127.033C146.806 127.033 149.016 140.407 150.786 154.123C151.712 161.314 152.508 168.601 152.803 174.104V174.159C153.041 178.125 152.172 182.078 150.292 185.577Z" fill="#263238"/>
<path opacity="0.2" d="M138.236 166.406C136.383 160.299 135.045 155.015 134.119 150.48C135.059 146.939 136.383 143.899 138.188 142.074C138.174 142.074 140.774 151.955 138.236 166.406Z" fill="black"/>
<path opacity="0.2" d="M136.884 213.285C134.64 218.404 132.822 222.891 131.683 225.986C130.606 226.109 127.36 224.174 126.42 222.418C128.083 212.424 130.608 202.594 133.968 193.036C135.059 198.985 136.287 206.499 136.884 213.285Z" fill="black"/>
<path d="M141.269 125.435C141.269 125.435 137.015 158.371 134.572 174.242C132.005 190.895 131.683 217.608 132.321 228.497C131.388 229.039 127.991 229.698 126.146 229.122C126.146 229.122 117.466 195.444 123.229 175.882C117.98 137.353 125.583 127.918 125.583 127.918L141.269 125.435Z" fill="#263238"/>
<path opacity="0.7" d="M139.848 104.691C135.569 100.832 130.823 97.5239 125.72 94.8449C126.187 94.79 126.667 94.742 127.141 94.7008C130.381 94.3611 133.642 94.251 136.898 94.3714C137.701 94.4195 138.531 94.4881 139.348 94.5567C141.365 99.1815 139.848 104.691 139.848 104.691Z" fill="white"/>
<path d="M125.72 125.434C125.281 120.439 123.49 111.279 120.409 101.659C119.407 98.5296 121.095 94.9958 121.095 94.9958C121.095 94.9958 125.294 94.8929 125.713 94.8449C126.132 94.7969 126.66 94.742 127.133 94.7008C130.374 94.3611 133.635 94.251 136.891 94.3714C137.694 94.4195 138.524 94.4881 139.34 94.5567C139.601 94.5567 142.552 94.6116 142.806 94.639C142.806 94.639 146.888 99.305 147.135 103.086C147.442 105.994 147.555 108.919 147.471 111.841C147.471 115.272 147.204 119.801 146.977 124.625L125.72 125.434Z" fill="#0033A6"/>
<path opacity="0.8" d="M125.72 125.434C125.281 120.439 123.49 111.279 120.409 101.659C119.407 98.5296 121.095 94.9958 121.095 94.9958C121.095 94.9958 125.294 94.8929 125.713 94.8449C126.132 94.7969 126.66 94.742 127.133 94.7008C130.374 94.3611 133.635 94.251 136.891 94.3714C137.694 94.4195 138.524 94.4881 139.34 94.5567C139.601 94.5567 142.552 94.6116 142.806 94.639C142.806 94.639 146.888 99.305 147.135 103.086C147.442 105.994 147.555 108.919 147.471 111.841C147.471 115.272 147.204 119.801 146.977 124.625L125.72 125.434Z" fill="white"/>
<path d="M125.72 125.434L146.991 124C146.991 124 147.629 130.395 147.485 130.306C147.341 130.217 124.718 131.095 124.718 131.095L125.72 125.434Z" fill="#263238"/>
<path d="M125.912 125.791L146.985 124.625V126.622L125.72 127.754L125.912 125.791Z" fill="black"/>
<path d="M137.776 127.438C137.63 127.441 137.49 127.387 137.383 127.289C137.275 127.191 137.21 127.055 137.199 126.91L137.11 125.737C137.103 125.661 137.112 125.585 137.136 125.513C137.159 125.441 137.197 125.375 137.247 125.318C137.296 125.261 137.356 125.214 137.423 125.179C137.49 125.145 137.563 125.125 137.639 125.119L139.944 124.941C140.024 124.934 140.104 124.943 140.18 124.969C140.255 124.995 140.325 125.037 140.383 125.092C140.442 125.146 140.488 125.212 140.52 125.285C140.552 125.358 140.568 125.437 140.568 125.517V126.745C140.569 126.894 140.512 127.036 140.409 127.144C140.307 127.251 140.168 127.315 140.02 127.322L137.803 127.438H137.776ZM137.542 126.883C137.543 126.913 137.55 126.944 137.563 126.971C137.577 126.999 137.595 127.024 137.619 127.044C137.642 127.064 137.669 127.079 137.699 127.088C137.728 127.097 137.759 127.099 137.79 127.095L140.006 126.979C140.065 126.975 140.121 126.949 140.162 126.906C140.203 126.862 140.225 126.805 140.225 126.745V125.517C140.226 125.485 140.219 125.453 140.206 125.423C140.193 125.394 140.174 125.367 140.15 125.346C140.126 125.324 140.098 125.307 140.067 125.296C140.036 125.286 140.004 125.282 139.972 125.284L137.666 125.462C137.635 125.465 137.606 125.473 137.579 125.487C137.552 125.501 137.528 125.521 137.508 125.545C137.488 125.567 137.473 125.593 137.463 125.621C137.454 125.649 137.45 125.679 137.453 125.709L137.542 126.883Z" fill="white"/>
<path d="M127.449 140.064L120.093 138.733L124.375 122.903C124.375 122.903 123.284 118.971 122.069 114.463C121.486 112.274 120.875 109.948 120.354 107.876C119.774 105.814 119.315 103.72 118.982 101.604C118.844 99.0791 121.095 94.9964 121.095 94.9964L126.406 94.1387C126.406 94.1387 131.25 99.4839 131.566 109.728C131.882 119.973 127.449 140.064 127.449 140.064Z" fill="#0033A6"/>
<path d="M138.551 94.1387C138.551 94.1387 143.169 102.181 144.233 108.123C145.296 114.065 148.226 139.33 148.226 139.33L149.818 138.534L147.602 123.438C147.602 123.438 148.398 105.955 147.78 102.366C147.163 98.7772 143.142 94.1318 143.142 94.1318L138.551 94.1387Z" fill="#0033A6"/>
<path d="M136.287 93.754L136.603 93.4727C136.603 93.4727 141.09 94.0422 145.207 99.1816L143.609 100.739L146.353 102.935L145.056 113.536C145.056 113.536 140.898 99.408 139.1 96.0183C138.276 95.1327 137.329 94.3701 136.287 93.754Z" fill="#0033A6"/>
<path opacity="0.2" d="M136.287 93.7539L136.603 93.4932C136.603 93.4932 141.09 94.0421 145.207 99.1815L143.609 100.739L146.353 102.935L145.056 113.536C145.056 113.536 140.898 99.4079 139.1 96.0183C138.276 95.1326 137.329 94.37 136.287 93.7539Z" fill="black"/>
<path d="M127.456 94.1388C127.456 94.1388 132.595 99.8134 131.449 114.724L126.42 104.006L128.238 101.083L123.984 97.0893C123.984 97.0893 126.214 92.8557 127.792 93.2742L127.456 94.1388Z" fill="#0033A6"/>
<path opacity="0.2" d="M127.456 94.1388C127.456 94.1388 132.595 99.8134 131.449 114.724L126.42 104.006L128.238 101.083L123.984 97.0893C123.984 97.0893 126.214 92.8557 127.792 93.2742L127.456 94.1388Z" fill="black"/>
<path d="M138.153 95.7513L136.973 102.812L127.683 94.6877C129.645 92.5194 128.41 86.8105 127.449 83.709L130.084 85.6783L133.995 88.6082C133.923 89.4161 133.988 90.2304 134.187 91.0167C134.482 92.2586 135.011 93.432 135.601 93.679L138.153 95.7513Z" fill="#EBB376"/>
<path opacity="0.2" d="M134.187 91.0025C132.623 90.6525 130.578 89.0332 130.249 87.4412C130.126 86.8572 130.07 86.2608 130.084 85.6641L133.995 88.594C133.923 89.4019 133.988 90.2162 134.187 91.0025Z" fill="black"/>
<path d="M128.142 92.9033C128.142 92.9033 132.115 95.9705 136.781 102.448C136.781 102.448 137.2 95.9842 135.601 93.665L135.93 93.267C138.374 94.3356 140.5 96.0159 142.106 98.1457L139.032 97.1713L136.925 102.866L130.585 97.631L126.317 98.3721C126.317 98.3721 126.502 94.1659 128.142 92.9033Z" fill="#0033A6"/>
<path opacity="0.7" d="M128.142 92.9033C128.142 92.9033 132.115 95.9705 136.781 102.448C136.781 102.448 137.2 95.9842 135.601 93.665L135.93 93.267C138.374 94.3356 140.5 96.0159 142.106 98.1457L139.032 97.1713L136.925 102.866L130.585 97.631L126.317 98.3721C126.317 98.3721 126.502 94.1659 128.142 92.9033Z" fill="white"/>
<path d="M124.561 77.4917C125.686 82.5213 126.05 84.6758 129.028 87.0088C133.501 90.5151 139.416 88.3811 139.807 83.1868C140.164 78.5209 138.263 71.0691 132.987 69.5733C131.863 69.2145 130.664 69.1626 129.514 69.423C128.364 69.6834 127.304 70.2465 126.445 71.0542C125.585 71.8618 124.957 72.8845 124.626 74.0164C124.295 75.1482 124.272 76.3481 124.561 77.4917Z" fill="#EBB376"/>
<path d="M131.058 78.1092C131.134 78.5415 131.422 78.864 131.69 78.8297C131.957 78.7954 132.129 78.4317 132.053 78.0063C131.978 77.5808 131.69 77.2583 131.415 77.3201C131.141 77.3819 130.983 77.6838 131.058 78.1092Z" fill="#263238"/>
<path d="M136.376 77.375C136.452 77.8004 136.733 78.1229 137.008 78.0611C137.282 77.9994 137.44 77.6631 137.364 77.2377C137.289 76.8123 137.008 76.4898 136.733 76.5173C136.459 76.5447 136.287 76.9427 136.376 77.375Z" fill="#263238"/>
<path d="M136.616 76.5796L137.57 76.1816C137.57 76.1816 137.193 77.0325 136.616 76.5796Z" fill="#263238"/>
<path d="M134.915 78.4873C135.462 79.421 136.126 80.2811 136.891 81.0467C136.701 81.2268 136.472 81.3607 136.222 81.4381C135.972 81.5154 135.708 81.5341 135.45 81.4927L134.915 78.4873Z" fill="#D58745"/>
<path d="M129.796 75.5161C129.829 75.5161 129.861 75.5087 129.891 75.4945C129.921 75.4802 129.947 75.4595 129.968 75.4338C130.159 75.1942 130.408 75.0061 130.691 74.8863C130.973 74.7665 131.281 74.7189 131.587 74.7476C131.619 74.7535 131.651 74.7527 131.683 74.7453C131.714 74.738 131.743 74.7242 131.769 74.7048C131.795 74.6855 131.817 74.661 131.832 74.6329C131.848 74.6049 131.858 74.5738 131.861 74.5418C131.866 74.4743 131.845 74.4075 131.803 74.3543C131.762 74.3011 131.702 74.2653 131.635 74.2536C131.249 74.2104 130.858 74.2651 130.498 74.4126C130.138 74.5601 129.821 74.7956 129.576 75.0976C129.556 75.1231 129.541 75.1525 129.532 75.184C129.523 75.2156 129.52 75.2486 129.524 75.2812C129.527 75.3137 129.538 75.3452 129.554 75.3738C129.57 75.4023 129.592 75.4274 129.618 75.4475C129.667 75.4916 129.73 75.516 129.796 75.5161Z" fill="#263238"/>
<path d="M138.057 74.3287C138.089 74.3319 138.121 74.3287 138.152 74.3193C138.183 74.3098 138.211 74.2944 138.236 74.2738C138.259 74.2508 138.277 74.2236 138.29 74.1936C138.302 74.1635 138.308 74.1313 138.308 74.0988C138.308 74.0663 138.302 74.0341 138.29 74.0041C138.277 73.9741 138.259 73.9468 138.236 73.9238C137.986 73.6012 137.666 73.3404 137.299 73.1619C136.933 72.9834 136.53 72.8919 136.122 72.8946C136.091 72.8969 136.06 72.906 136.032 72.9211C136.004 72.9362 135.979 72.9571 135.96 72.9823C135.94 73.0076 135.926 73.0367 135.919 73.0677C135.911 73.0987 135.911 73.1309 135.916 73.1622C135.925 73.2295 135.959 73.291 136.011 73.3344C136.063 73.3777 136.13 73.3995 136.198 73.3955C136.52 73.3997 136.837 73.4772 137.125 73.6223C137.412 73.7674 137.663 73.9761 137.858 74.2326C137.884 74.2609 137.914 74.284 137.948 74.3005C137.982 74.317 138.019 74.3266 138.057 74.3287Z" fill="#263238"/>
<path d="M131.298 77.3199L132.252 76.915C132.252 76.915 131.882 77.7728 131.298 77.3199Z" fill="#263238"/>
<path d="M127.14 80.4083C127.14 80.4083 129.618 76.7991 127.731 71.4882C127.731 71.4882 133.33 68.7435 137.57 72.9154C137.57 72.9154 133.625 65.9988 125.384 69.313C117.143 72.6272 123.325 80.5387 124.382 81.1974C125.439 81.8562 127.14 80.4083 127.14 80.4083Z" fill="#263238"/>
<path d="M123.552 81.8425C123.88 82.2787 124.291 82.6453 124.763 82.921C125.234 83.1966 125.755 83.3758 126.296 83.4481C127.669 83.6128 128.094 82.2062 127.456 80.9162C126.886 79.7497 125.473 78.2675 124.19 78.6998C122.907 79.1321 122.708 80.7378 123.552 81.8425Z" fill="#EBB376"/>
<path d="M135.745 82.666C135.467 83.3113 135.238 83.9765 135.059 84.6559C134.935 84.6627 134.812 84.6627 134.688 84.6559C133.014 84.4912 132.3 83.86 132.005 83.2081C131.872 82.8894 131.816 82.5439 131.841 82.1994C131.851 82.0032 131.887 81.8092 131.95 81.623C132.936 82.1867 134.031 82.5308 135.162 82.6317C135.525 82.6523 135.745 82.666 135.745 82.666Z" fill="#263238"/>
<path d="M135.176 82.5966L134.963 83.1798C133.385 83.0151 132.301 82.6926 131.854 82.1643C131.864 81.968 131.901 81.774 131.964 81.5879C132.95 82.1516 134.045 82.4956 135.176 82.5966Z" fill="white"/>
<path d="M134.702 84.6216C133.028 84.457 132.314 83.8257 132.019 83.1738C132.653 83.2519 133.268 83.44 133.837 83.7296C134.212 83.9286 134.515 84.2408 134.702 84.6216Z" fill="#DE5753"/>
<path opacity="0.2" d="M123.044 113.255C122.86 113.755 122.518 114.182 122.069 114.47C121.486 112.281 120.875 109.955 120.354 107.882C121.726 106.236 122.865 104.863 122.865 104.863C122.865 104.863 124.43 109.721 123.044 113.255Z" fill="black"/>
<path d="M121.109 94.9961C118.193 95.3529 109.279 117.496 109.815 120.995C110.35 124.494 129.521 122.903 129.521 122.903V117.571L118.33 115.314L122.2 107.711C122.886 105.511 123.172 103.205 123.044 100.904C122.808 98.8235 122.149 96.8131 121.109 94.9961Z" fill="#0033A6"/>
<path d="M132.925 131.041L118.213 129.257C118.081 129.243 117.953 129.203 117.836 129.138C117.72 129.074 117.618 128.986 117.536 128.881C117.454 128.776 117.395 128.655 117.362 128.526C117.328 128.397 117.322 128.263 117.342 128.131L119.929 109.214C119.974 108.944 120.123 108.702 120.343 108.54C120.563 108.377 120.838 108.306 121.109 108.342L135.82 110.126C135.953 110.139 136.081 110.178 136.197 110.242C136.314 110.306 136.416 110.393 136.498 110.497C136.579 110.602 136.638 110.722 136.672 110.851C136.705 110.979 136.712 111.113 136.692 111.245L134.105 130.169C134.059 130.439 133.911 130.681 133.691 130.843C133.471 131.006 133.196 131.076 132.925 131.041Z" fill="#263238"/>
<path opacity="0.6" d="M132.925 131.041L118.213 129.257C118.081 129.243 117.953 129.203 117.836 129.138C117.72 129.074 117.618 128.986 117.536 128.881C117.454 128.776 117.395 128.655 117.362 128.526C117.328 128.397 117.322 128.263 117.342 128.131L119.929 109.214C119.974 108.944 120.123 108.702 120.343 108.54C120.563 108.377 120.838 108.306 121.109 108.342L135.82 110.126C135.953 110.139 136.081 110.178 136.197 110.242C136.314 110.306 136.416 110.393 136.498 110.497C136.579 110.602 136.638 110.722 136.672 110.851C136.705 110.979 136.712 111.113 136.692 111.245L134.105 130.169C134.059 130.439 133.911 130.681 133.691 130.843C133.471 131.006 133.196 131.076 132.925 131.041Z" fill="white"/>
<path opacity="0.2" d="M132.314 130.965L118.213 129.257C118.081 129.243 117.953 129.203 117.836 129.138C117.72 129.074 117.618 128.986 117.536 128.881C117.454 128.776 117.395 128.655 117.362 128.526C117.328 128.397 117.322 128.263 117.342 128.131L119.929 109.214C119.974 108.944 120.123 108.702 120.343 108.54C120.563 108.377 120.838 108.306 121.109 108.342L135.21 110.051C135.342 110.064 135.47 110.104 135.586 110.169C135.703 110.233 135.804 110.321 135.885 110.427C135.966 110.532 136.025 110.653 136.057 110.782C136.09 110.911 136.096 111.045 136.074 111.176L133.494 130.094C133.446 130.362 133.296 130.601 133.077 130.763C132.858 130.925 132.585 130.997 132.314 130.965Z" fill="white"/>
<path d="M126.681 118.059C126.257 118.003 125.828 118.116 125.486 118.372C125.144 118.629 124.915 119.009 124.849 119.431C124.819 119.636 124.831 119.846 124.885 120.046C124.939 120.246 125.033 120.434 125.161 120.597C125.289 120.76 125.45 120.895 125.632 120.994C125.814 121.094 126.015 121.155 126.221 121.174C126.643 121.224 127.069 121.109 127.409 120.853C127.749 120.598 127.977 120.221 128.046 119.802C127.84 119.783 127.639 119.723 127.456 119.624C127.274 119.525 127.114 119.39 126.986 119.226C126.858 119.063 126.765 118.875 126.712 118.674C126.66 118.473 126.649 118.264 126.681 118.059Z" fill="#263238"/>
<path opacity="0.3" d="M131.669 111.148L123.936 110.208C123.752 110.187 123.579 110.11 123.441 109.987C123.302 109.864 123.204 109.702 123.161 109.522L122.92 108.541L133.213 109.79L132.685 110.675C132.584 110.848 132.433 110.986 132.251 111.071C132.07 111.156 131.866 111.183 131.669 111.148Z" fill="black"/>
<path d="M133.625 116.92L129.247 118.175L128.328 121.071C128.746 123.431 133.275 122.443 133.275 122.443L134.208 123.026C134.382 123.135 134.58 123.199 134.785 123.214C134.99 123.228 135.195 123.192 135.382 123.109C135.57 123.025 135.734 122.897 135.861 122.736C135.987 122.575 136.073 122.384 136.109 122.182L136.589 119.438C136.629 119.213 136.607 118.982 136.525 118.769C136.442 118.556 136.303 118.37 136.123 118.23L134.75 117.153C134.595 117.027 134.412 116.94 134.216 116.899C134.02 116.858 133.817 116.865 133.625 116.92Z" fill="#EBB376"/>
<path d="M112.189 111.883C110.652 116.089 109.622 119.767 109.815 121.029C110.343 124.529 129.521 122.937 129.521 122.937V117.605L118.33 115.314L112.189 111.883Z" fill="#0033A6"/>
<path d="M57.2266 91.5583C61.5289 95.5587 62.0298 109.399 62.3866 115.279C62.5993 118.71 63.1276 122.381 63.6079 125.867C64.1157 129.462 64.6166 133.092 65.0901 136.708C65.1571 137.154 65.055 137.608 64.8038 137.983C64.5526 138.357 64.1705 138.623 63.7327 138.73C63.2948 138.837 62.8329 138.776 62.4378 138.559C62.0427 138.342 61.7429 137.986 61.5975 137.559C60.3555 134.06 59.2508 130.54 58.2901 126.958C56.9967 122.442 56.0787 117.826 55.5455 113.159C54.8113 108.088 54.1731 102.722 52.6636 97.8711C52.5353 97.5117 52.3841 97.1611 52.2107 96.8212C52.2587 96.8212 52.293 96.9173 52.3616 96.9516C48.8896 93.6443 53.5487 88.45 57.2197 91.5583H57.2266Z" fill="#263238"/>
<path opacity="0.7" d="M57.2266 91.5583C61.5289 95.5587 62.0298 109.399 62.3866 115.279C62.5993 118.71 63.1276 122.381 63.6079 125.867C64.1157 129.462 64.6166 133.092 65.0901 136.708C65.1571 137.154 65.055 137.608 64.8038 137.983C64.5526 138.357 64.1705 138.623 63.7327 138.73C63.2948 138.837 62.8329 138.776 62.4378 138.559C62.0427 138.342 61.7429 137.986 61.5975 137.559C60.3555 134.06 59.2508 130.54 58.2901 126.958C56.9967 122.442 56.0787 117.826 55.5455 113.159C54.8113 108.088 54.1731 102.722 52.6636 97.8711C52.5353 97.5117 52.3841 97.1611 52.2107 96.8212C52.2587 96.8212 52.293 96.9173 52.3616 96.9516C48.8896 93.6443 53.5487 88.45 57.2197 91.5583H57.2266Z" fill="white"/>
<path d="M65.6525 136.399L68.2325 140.907L62.4893 141.333C62.4893 141.333 60.4308 137.175 62.6196 136.2L65.6525 136.399Z" fill="#263238"/>
<path d="M68.0884 146.047L63.0313 144.736L62.4893 141.333L68.2325 140.907L68.0884 146.047Z" fill="#263238"/>
<path d="M33.5743 98.2417C29.9239 101.268 25.4364 104.657 23.0073 108.534C23.0073 108.28 22.925 108.212 22.9524 108.335C23.7278 110.257 25.3403 111.869 26.7538 113.509C28.6819 115.622 30.7748 117.749 32.8401 119.822C33.1376 120.136 33.3133 120.546 33.3355 120.978C33.3577 121.411 33.2249 121.837 32.9612 122.18C32.6974 122.523 32.3199 122.761 31.8965 122.851C31.4731 122.94 31.0315 122.876 30.6513 122.669C26.55 120.401 22.7835 117.575 19.4598 114.271C17.4013 112.171 15.6653 109.296 16.8044 106.249C17.8336 103.216 20.0294 100.801 22.1084 98.6122C24.3104 96.371 26.685 94.3061 29.2103 92.4367C33.1352 89.692 37.2865 95.2431 33.5743 98.2486V98.2417Z" fill="#263238"/>
<path opacity="0.7" d="M33.5743 98.2417C29.9239 101.268 25.4364 104.657 23.0073 108.534C23.0073 108.28 22.925 108.212 22.9524 108.335C23.7278 110.257 25.3403 111.869 26.7538 113.509C28.6819 115.622 30.7748 117.749 32.8401 119.822C33.1376 120.136 33.3133 120.546 33.3355 120.978C33.3577 121.411 33.2249 121.837 32.9612 122.18C32.6974 122.523 32.3199 122.761 31.8965 122.851C31.4731 122.94 31.0315 122.876 30.6513 122.669C26.55 120.401 22.7835 117.575 19.4598 114.271C17.4013 112.171 15.6653 109.296 16.8044 106.249C17.8336 103.216 20.0294 100.801 22.1084 98.6122C24.3104 96.371 26.685 94.3061 29.2103 92.4367C33.1352 89.692 37.2865 95.2431 33.5743 98.2486V98.2417Z" fill="white"/>
<path d="M38.1099 123.768C38.1099 123.768 38.4255 129.14 41.0535 138.555C42.699 144.377 44.6971 150.094 47.0369 155.674C48.3475 158.824 49.8502 162.166 51.5725 165.686C52.3479 167.284 53.1781 168.911 54.0496 170.585C55.0582 199.088 71.0528 228.072 71.0528 228.072C71.938 228.532 75.0326 228.031 75.012 227.132C72.6447 223.365 67.9788 186.84 64.9734 169.494C64.7881 167.14 64.5205 164.615 64.1843 162.008C63.306 155.016 62.0091 147.406 60.7534 140.737C58.7704 130.204 56.8766 121.936 56.8766 121.936L51.5999 122.45L38.1099 123.768Z" fill="#263238"/>
<path opacity="0.7" d="M38.1099 123.768C38.1099 123.768 38.4255 129.14 41.0535 138.555C42.699 144.377 44.6971 150.094 47.0369 155.674C48.3475 158.824 49.8502 162.166 51.5725 165.686C52.3479 167.284 53.1781 168.911 54.0496 170.585C55.0582 199.088 71.0528 228.072 71.0528 228.072C71.938 228.532 75.0326 228.031 75.012 227.132C72.6447 223.365 67.9788 186.84 64.9734 169.494C64.7881 167.14 64.5205 164.615 64.1843 162.008C63.306 155.016 62.0091 147.406 60.7534 140.737C58.7704 130.204 56.8766 121.936 56.8766 121.936L51.5999 122.45L38.1099 123.768Z" fill="white"/>
<path d="M31.8247 163.229C32.2501 166.296 32.7922 169.569 33.4715 173.069C27.7557 192.137 39.5029 229.334 39.5029 229.334C41.4928 229.726 43.2563 229.465 44.1483 228.799C41.932 217.587 43.5239 188.439 45.2462 171.017C45.3971 169.439 45.5893 167.696 45.802 165.843C46.1588 162.701 46.5773 159.235 47.0302 155.66C47.785 149.67 48.6427 143.364 49.4112 137.779C50.3513 131.02 51.1747 125.304 51.5864 122.436C51.7716 121.174 51.8746 120.46 51.8746 120.46L35.3722 122.244C35.3722 122.244 31.1797 126.951 30.569 141.642C30.3375 148.861 30.7578 156.086 31.8247 163.229Z" fill="#263238"/>
<path opacity="0.7" d="M31.8247 163.229C32.2501 166.296 32.7922 169.569 33.4715 173.069C27.7557 192.137 39.5029 229.334 39.5029 229.334C41.4928 229.726 43.2563 229.465 44.1483 228.799C41.932 217.587 43.5239 188.439 45.2462 171.017C45.3971 169.439 45.5893 167.696 45.802 165.843C46.1588 162.701 46.5773 159.235 47.0302 155.66C47.785 149.67 48.6427 143.364 49.4112 137.779C50.3513 131.02 51.1747 125.304 51.5864 122.436C51.7716 121.174 51.8746 120.46 51.8746 120.46L35.3722 122.244C35.3722 122.244 31.1797 126.951 30.569 141.642C30.3375 148.861 30.7578 156.086 31.8247 163.229Z" fill="white"/>
<path d="M54.8799 88.6904C60.1428 90.447 60.5133 94.1798 63.5256 102.064C62.5515 103.49 61.2709 104.681 59.7774 105.549C58.2839 106.417 56.6153 106.94 54.8936 107.08C54.8936 107.08 47.3595 93.0339 54.8799 88.6904Z" fill="#263238"/>
<path opacity="0.8" d="M63.5529 102.057C62.0503 104.25 59.8457 105.867 57.3019 106.641C56.531 106.892 55.7306 107.042 54.9209 107.087L54.8043 106.853C54.2073 105.673 51.545 100.17 51.5655 95.3257C51.5655 92.6291 52.4164 90.1245 54.9072 88.6836C60.1221 90.4402 60.5132 94.2072 63.5529 102.057Z" fill="white"/>
<path opacity="0.1" d="M60.5955 105.021C59.5802 105.732 58.4595 106.278 57.2744 106.641C56.0523 104.217 55.2187 101.617 54.8042 98.9348C55.5962 98.8508 56.3955 99.001 57.103 99.367C57.8104 99.7329 58.3949 100.298 58.784 100.993C59.5805 102.241 60.1908 103.598 60.5955 105.021Z" fill="black"/>
<path d="M51.7098 66.5061C51.7098 66.5061 56.6022 78.7405 51.7098 89.3899C46.8174 100.039 33.0872 93.6441 31.7285 91.0915C30.3699 88.539 33.5469 83.3378 33.5469 78.5758C33.5469 73.8138 32.3941 71.2201 33.2587 67.3089C34.1233 63.3978 51.7098 66.5061 51.7098 66.5061Z" fill="#263238"/>
<path opacity="0.2" d="M31.8247 163.229C36.3395 164.749 41.0436 165.633 45.802 165.857C46.1588 162.715 46.5773 159.249 47.0302 155.675C48.3408 158.824 49.8435 162.166 51.5658 165.686C55.9656 165.288 60.2475 164.046 64.1776 162.028C63.2993 155.036 62.0024 147.427 60.7467 140.757C58.9998 139.732 57.1107 138.971 55.1407 138.5C53.2669 138.046 51.346 137.816 49.4181 137.814C46.6118 137.794 43.8103 138.049 41.0537 138.575C37.4536 139.241 33.9328 140.28 30.5484 141.677C30.3258 148.885 30.753 156.098 31.8247 163.229Z" fill="black"/>
<path d="M31.7285 89.0882C32.6375 92.7227 33.3499 96.4037 33.8625 100.115C34.1576 102.173 34.4457 104.486 34.679 106.977C35.161 112.041 35.3443 117.13 35.228 122.216H56.9589C56.9589 122.216 60.3898 96.8282 54.722 88.5941C54.722 88.6147 43.5855 83.3655 31.7285 89.0882Z" fill="#263238"/>
<path opacity="0.5" d="M31.7285 89.0882C32.6375 92.7227 33.3499 96.4037 33.8625 100.115C34.1576 102.173 34.4457 104.486 34.679 106.977C35.161 112.041 35.3443 117.13 35.228 122.216H56.9589C56.9589 122.216 60.3898 96.8282 54.722 88.5941C54.722 88.6147 43.5855 83.3655 31.7285 89.0882Z" fill="white"/>
<path opacity="0.1" d="M33.8623 100.115C34.1574 102.173 34.4455 104.486 34.6788 106.977C36.2739 103.268 36.4928 99.1123 35.2964 95.2568L33.8623 100.115Z" fill="black"/>
<path d="M42.9678 84.9229C36.1541 84.9229 35.2964 90.5289 35.2964 90.5289L38.4802 89.1565L47.8464 95.4144L50.1451 89.0947L53.0339 89.63C53.0339 89.63 48.8894 84.9297 42.9678 84.9229Z" fill="#263238"/>
<path opacity="0.8" d="M42.9678 84.9229C36.1541 84.9229 35.2964 90.5289 35.2964 90.5289L38.4802 89.1565L47.8464 95.4144L50.1451 89.0947L53.0339 89.63C53.0339 89.63 48.8894 84.9297 42.9678 84.9229Z" fill="white"/>
<path d="M47.5378 95.0445L38.7549 87.4006C40.8889 85.2117 39.7979 79.1665 38.9058 75.9072L45.5685 81.2593C45.1225 83.8119 45.2323 86.5291 48.9582 87.4006C48.9582 87.4006 47.531 95.0239 47.5378 95.0445Z" fill="#263238"/>
<path opacity="0.7" d="M47.5378 95.0445L38.7549 87.4006C40.8889 85.2117 39.7979 79.1665 38.9058 75.9072L45.5685 81.2593C45.1225 83.8119 45.2323 86.5291 48.9582 87.4006C48.9582 87.4006 47.531 95.0239 47.5378 95.0445Z" fill="white"/>
<path opacity="0.1" d="M41.5954 78.0957L45.5409 81.2589C45.4275 81.8562 45.3678 82.4625 45.3625 83.0704C43.949 82.8646 41.9316 81.3276 41.6572 79.866C41.531 79.2843 41.5101 78.6848 41.5954 78.0957Z" fill="black"/>
<path d="M36.1061 69.3404C37.1011 74.6445 37.4099 76.8883 40.4359 79.4477C44.9852 83.2697 51.2362 81.2455 51.8331 75.8385C52.3752 70.9735 50.6529 63.1238 45.191 61.374C44.0306 60.9581 42.7801 60.8601 41.569 61.0903C40.358 61.3205 39.2306 61.8705 38.3038 62.6832C37.377 63.496 36.6844 64.5419 36.298 65.7124C35.9116 66.883 35.8453 68.1356 36.1061 69.3404Z" fill="#263238"/>
<path opacity="0.7" d="M36.1061 69.3404C37.1011 74.6445 37.4099 76.8883 40.4359 79.4477C44.9852 83.2697 51.2362 81.2455 51.8331 75.8385C52.3752 70.9735 50.6529 63.1238 45.191 61.374C44.0306 60.9581 42.7801 60.8601 41.569 61.0903C40.358 61.3205 39.2306 61.8705 38.3038 62.6832C37.377 63.496 36.6844 64.5419 36.298 65.7124C35.9116 66.883 35.8453 68.1356 36.1061 69.3404Z" fill="white"/>
<path d="M40.6626 65.4913C37.7395 69.2652 43.7504 73.6087 37.7395 73.3548C31.7287 73.1009 34.1715 64.6198 37.7395 62.6917C41.3076 60.7636 40.6626 65.4913 40.6626 65.4913Z" fill="#263238"/>
<path d="M44.5052 70.2052C44.5669 70.6512 44.8551 71.0012 45.1433 70.9806C45.4315 70.96 45.6099 70.5758 45.5413 70.1297C45.4727 69.6837 45.1913 69.3338 44.91 69.3544C44.6287 69.375 44.4366 69.7524 44.5052 70.2052Z" fill="#263238"/>
<path d="M49.919 69.882C49.9807 70.3349 50.2689 70.6779 50.5571 70.6574C50.8453 70.6368 51.0237 70.2525 50.9619 69.8065C50.9002 69.3605 50.612 69.0106 50.3238 69.0311C50.0356 69.0517 49.8298 69.436 49.919 69.882Z" fill="#263238"/>
<path d="M50.2002 69.066L51.202 68.6543C51.202 68.6543 50.7903 69.56 50.2002 69.066Z" fill="#263238"/>
<path opacity="0.2" d="M48.519 70.7129C49.0585 71.708 49.7226 72.6303 50.4952 73.4576C50.2897 73.6383 50.0457 73.7699 49.7818 73.8424C49.5179 73.9149 49.2409 73.9264 48.9719 73.8761L48.519 70.7129Z" fill="black"/>
<path d="M46.6804 75.7355C46.9291 75.7597 47.1796 75.7597 47.4283 75.7355C47.4452 75.7338 47.4616 75.7287 47.4765 75.7204C47.4914 75.7121 47.5043 75.7009 47.5147 75.6874C47.525 75.6738 47.5324 75.6583 47.5364 75.6418C47.5404 75.6253 47.541 75.6081 47.5381 75.5914C47.533 75.5574 47.5154 75.5266 47.4887 75.505C47.462 75.4834 47.4283 75.4726 47.394 75.4747C46.8314 75.5168 46.2665 75.4326 45.7406 75.2285C45.2147 75.0243 44.7411 74.7052 44.3543 74.2945C44.3421 74.2823 44.3277 74.2725 44.3118 74.2659C44.2959 74.2593 44.2789 74.2559 44.2616 74.2559C44.2444 74.2559 44.2274 74.2593 44.2115 74.2659C44.1956 74.2725 44.1811 74.2823 44.169 74.2945C44.1568 74.3066 44.147 74.321 44.1404 74.3369C44.1338 74.3528 44.1304 74.3699 44.1304 74.3871C44.1304 74.4044 44.1338 74.4214 44.1404 74.4373C44.147 74.4532 44.1568 74.4676 44.169 74.4798C44.8262 75.189 45.7187 75.6353 46.6804 75.7355Z" fill="#263238"/>
<path d="M35.5917 74.4315C35.8087 74.8994 36.1209 75.3169 36.5085 75.6572C36.896 75.9974 37.3504 76.2531 37.8424 76.4077C39.0775 76.7371 39.6127 75.3236 39.2147 73.9101C38.8442 72.6338 37.76 70.9321 36.5524 71.2409C35.3447 71.5496 34.9673 73.1896 35.5917 74.4315Z" fill="#263238"/>
<path d="M42.9679 67.7894C43.0025 67.7924 43.0374 67.7871 43.0696 67.7739C43.1018 67.7608 43.1304 67.7402 43.1531 67.7139C43.3592 67.4655 43.6241 67.2727 43.9237 67.1528C44.2233 67.033 44.5481 66.99 44.8686 67.0277C44.9015 67.0346 44.9356 67.0347 44.9686 67.028C45.0016 67.0212 45.0329 67.0078 45.0606 66.9885C45.0882 66.9692 45.1116 66.9445 45.1293 66.9159C45.147 66.8872 45.1587 66.8552 45.1636 66.8219C45.1705 66.7508 45.1513 66.6796 45.1097 66.6215C45.068 66.5635 45.0067 66.5225 44.9372 66.5062C44.5348 66.4484 44.1243 66.4922 43.7432 66.6336C43.3621 66.775 43.0224 67.0096 42.7552 67.3159C42.7074 67.3657 42.6807 67.4321 42.6807 67.5012C42.6807 67.5702 42.7074 67.6366 42.7552 67.6864C42.7782 67.721 42.8101 67.7487 42.8475 67.7668C42.8849 67.7849 42.9265 67.7927 42.9679 67.7894Z" fill="#263238"/>
<path d="M51.1334 67.2817C51.2009 67.2859 51.2673 67.2638 51.3187 67.22C51.3432 67.1957 51.3626 67.1669 51.3759 67.1351C51.3891 67.1033 51.396 67.0692 51.396 67.0347C51.396 67.0002 51.3891 66.9661 51.3759 66.9343C51.3626 66.9025 51.3432 66.8737 51.3187 66.8494C51.0476 66.5208 50.7037 66.2599 50.3142 66.0872C49.9248 65.9145 49.5005 65.8348 49.0749 65.8545C49.0414 65.8575 49.009 65.8677 48.9798 65.8844C48.9506 65.9011 48.9253 65.9239 48.9058 65.9513C48.8862 65.9786 48.8728 66.0099 48.8665 66.043C48.8601 66.076 48.861 66.11 48.8691 66.1427C48.8809 66.2124 48.9185 66.2751 48.9744 66.3183C49.0304 66.3616 49.1006 66.3821 49.171 66.376C49.5082 66.3673 49.843 66.4357 50.1498 66.576C50.4566 66.7164 50.7273 66.9249 50.9413 67.1857C50.9906 67.2412 51.0594 67.2757 51.1334 67.2817Z" fill="#263238"/>
<path d="M44.7861 69.3882L45.7948 68.9971C45.7948 68.9971 45.3762 69.8822 44.7861 69.3882Z" fill="#263238"/>
<path d="M43.2014 62.8285C43.2014 62.8285 41.6027 69.9373 36.3398 70.7332C31.0768 71.5292 32.3394 63.8098 39.3109 60.969C46.2823 58.1283 51.9364 63.7823 52.2589 65.3056C52.3247 65.7786 52.259 66.2607 52.069 66.6988C51.8789 67.137 51.5719 67.5144 51.1816 67.7896C51.1816 67.7896 48.6702 62.9658 43.2014 62.8285Z" fill="#263238"/>
<path opacity="0.7" d="M35.5917 74.4315C35.8087 74.8994 36.1209 75.3169 36.5085 75.6572C36.896 75.9974 37.3504 76.2531 37.8424 76.4077C39.0775 76.7371 39.6127 75.3236 39.2147 73.9101C38.8442 72.6338 37.76 70.9321 36.5524 71.2409C35.3447 71.5496 34.9673 73.1896 35.5917 74.4315Z" fill="white"/>
<path d="M39.0978 234.213H40.0173L40.2712 233.081L43.3178 234.453H51.0303C51.0303 234.453 52.2517 233.218 48.5807 232.237C48.4016 232.185 48.2272 232.118 48.0592 232.038C46.1036 231.118 43.3178 228.017 43.3178 228.017H39.0841C38.9578 228.213 38.8432 228.417 38.741 228.627C38.2744 229.56 37.4785 231.516 39.0978 234.213Z" fill="#263238"/>
<path d="M38.7412 228.628C39.297 228.003 41.8427 230.741 43.7022 231.674C45.3627 232.498 47.236 232.868 48.0594 232.024C46.1038 231.105 43.0229 227.098 43.0229 227.098H39.5921C39.5921 227.098 38.9402 228.23 38.7412 228.628Z" fill="#263238"/>
<path opacity="0.7" d="M38.7412 228.628C39.297 228.003 41.8427 230.741 43.7022 231.674C45.3627 232.498 47.236 232.868 48.0594 232.024C46.1038 231.105 43.0229 227.098 43.0229 227.098H39.5921C39.5921 227.098 38.9402 228.23 38.7412 228.628Z" fill="white"/>
<path d="M71.2243 234.213H72.1437L72.3976 233.081L75.4442 234.453H83.1499C83.1499 234.453 84.3781 233.218 80.7071 232.237C80.5276 232.186 80.3531 232.119 80.1856 232.038C78.2301 231.118 75.4442 228.017 75.4442 228.017H71.2105C71.0799 228.212 70.963 228.416 70.8606 228.627C70.4146 229.56 69.6049 231.516 71.2243 234.213Z" fill="#263238"/>
<path d="M70.8608 228.628C71.4235 228.003 73.9623 230.741 75.8287 231.674C77.4892 232.498 79.3556 232.868 80.1859 232.024C78.2303 231.105 75.1494 227.098 75.1494 227.098H71.7186C71.7186 227.098 71.0598 228.23 70.8608 228.628Z" fill="#263238"/>
<path opacity="0.7" d="M70.8608 228.628C71.4235 228.003 73.9623 230.741 75.8287 231.674C77.4892 232.498 79.3556 232.868 80.1859 232.024C78.2303 231.105 75.1494 227.098 75.1494 227.098H71.7186C71.7186 227.098 71.0598 228.23 70.8608 228.628Z" fill="white"/>
<path d="M57.1647 120.474H35.2553L34.6652 123.294C34.6652 123.294 26.6233 134.437 30.6992 162.213C30.6992 162.213 48.3268 164.272 64.9184 160.683C64.9184 160.683 61.1925 132.152 57.3019 122.841L57.1647 120.474Z" fill="#263238"/>
<path d="M41.7878 122.902H34.439L34.885 120.803H41.7878V122.902Z" fill="#263238"/>
<path d="M55.1406 120.803H57.3432L57.5353 122.902H55.1406V120.803Z" fill="#263238"/>
<path d="M54.4065 120.803H42.5015V122.896H54.4065V120.803Z" fill="#263238"/>
<path opacity="0.6" d="M41.7878 122.902H34.439L34.885 120.803H41.7878V122.902Z" fill="white"/>
<path opacity="0.6" d="M55.1406 120.803H57.3432L57.5353 122.902H55.1406V120.803Z" fill="white"/>
<path opacity="0.6" d="M54.4065 120.803H42.5015V122.896H54.4065V120.803Z" fill="white"/>
<path d="M47.8194 123.061H51.0718C51.284 123.061 51.4561 122.889 51.4561 122.676V121.029C51.4561 120.817 51.284 120.645 51.0718 120.645H47.8194C47.6071 120.645 47.4351 120.817 47.4351 121.029V122.676C47.4351 122.889 47.6071 123.061 47.8194 123.061Z" fill="white"/>
<path d="M33.087 88.5938C30.4727 88.731 25.7244 93.2391 21.7378 98.3648C23.8202 100.853 26.1012 103.169 28.5583 105.288L36.1062 99.9498C36.1062 99.9498 36.9982 91.5374 33.087 88.5938Z" fill="#263238"/>
<path opacity="0.8" d="M33.087 88.5938C30.4727 88.731 25.7244 93.2391 21.7378 98.3648C23.8202 100.853 26.1012 103.169 28.5583 105.288L36.1062 99.9498C36.1062 99.9498 36.9982 91.5374 33.087 88.5938Z" fill="white"/>
<path opacity="0.6" d="M47.6612 97.3082C47.6598 97.394 47.684 97.4783 47.7307 97.5502C47.7773 97.6222 47.8444 97.6787 47.9232 97.7125C48.0021 97.7462 48.0892 97.7558 48.1735 97.7399C48.2578 97.724 48.3355 97.6834 48.3966 97.6232C48.4578 97.563 48.4996 97.486 48.5169 97.402C48.5341 97.318 48.526 97.2307 48.4935 97.1513C48.461 97.0719 48.4056 97.004 48.3343 96.9562C48.2631 96.9084 48.1793 96.8828 48.0935 96.8828C47.98 96.8828 47.8711 96.9274 47.7902 97.007C47.7093 97.0866 47.663 97.1948 47.6612 97.3082Z" fill="white"/>
<path opacity="0.6" d="M48.9445 104.019C49.1794 104.019 49.3699 103.828 49.3699 103.593C49.3699 103.358 49.1794 103.168 48.9445 103.168C48.7095 103.168 48.519 103.358 48.519 103.593C48.519 103.828 48.7095 104.019 48.9445 104.019Z" fill="white"/>
<path opacity="0.6" d="M49.4454 110.579C49.6804 110.579 49.8709 110.389 49.8709 110.154C49.8709 109.919 49.6804 109.729 49.4454 109.729C49.2105 109.729 49.02 109.919 49.02 110.154C49.02 110.389 49.2105 110.579 49.4454 110.579Z" fill="white"/>
<path opacity="0.6" d="M49.4454 117.55C49.6804 117.55 49.8709 117.36 49.8709 117.125C49.8709 116.89 49.6804 116.699 49.4454 116.699C49.2105 116.699 49.02 116.89 49.02 117.125C49.02 117.36 49.2105 117.55 49.4454 117.55Z" fill="white"/>
<path d="M37.8425 124.728L37.5611 123.074C37.508 122.768 37.3825 122.478 37.1952 122.23C37.0078 121.982 36.764 121.782 36.4839 121.647L33.8284 120.364C33.3056 120.112 32.7302 119.989 32.1502 120.004C31.5701 120.02 31.0022 120.174 30.4936 120.453L29.8555 120.81C30.1368 123.554 32.4835 126.368 32.4835 126.368L33.0667 127.239C33.1806 127.421 33.3295 127.578 33.5047 127.702C33.6799 127.826 33.8779 127.914 34.0873 127.96C34.2967 128.007 34.5133 128.011 34.7244 127.974C34.9356 127.936 35.1371 127.856 35.3174 127.74L37.0602 126.608C37.3587 126.404 37.5915 126.118 37.7304 125.784C37.8692 125.45 37.9082 125.083 37.8425 124.728Z" fill="#263238"/>
<path opacity="0.7" d="M37.8425 124.728L37.5611 123.074C37.508 122.768 37.3825 122.478 37.1952 122.23C37.0078 121.982 36.764 121.782 36.4839 121.647L33.8284 120.364C33.3056 120.112 32.7302 119.989 32.1502 120.004C31.5701 120.02 31.0022 120.174 30.4936 120.453L29.8555 120.81C30.1368 123.554 32.4835 126.368 32.4835 126.368L33.0667 127.239C33.1806 127.421 33.3295 127.578 33.5047 127.702C33.6799 127.826 33.8779 127.914 34.0873 127.96C34.2967 128.007 34.5133 128.011 34.7244 127.974C34.9356 127.936 35.1371 127.856 35.3174 127.74L37.0602 126.608C37.3587 126.404 37.5915 126.118 37.7304 125.784C37.8692 125.45 37.9082 125.083 37.8425 124.728Z" fill="white"/>
<g opacity="0.7">
<path d="M65.6525 136.399L68.2325 140.907L62.4893 141.333C62.4893 141.333 60.4308 137.175 62.6196 136.2L65.6525 136.399Z" fill="white"/>
<path d="M68.0884 146.047L63.0313 144.736L62.4893 141.333L68.2325 140.907L68.0884 146.047Z" fill="white"/>
</g>
</svg>
