<svg width="738" height="465" viewBox="0 0 738 465" fill="none" xmlns="http://www.w3.org/2000/svg">
<path d="M345.283 31.3658H344.804C344.323 31.3708 343.843 31.4087 343.367 31.4792C341.496 31.7301 339.702 32.3882 338.113 33.4071C336.593 34.3751 335.287 35.6441 334.275 37.1359C333.264 38.6276 332.568 40.3107 332.232 42.0813C331.896 43.852 331.925 45.6727 332.319 47.4315C332.713 49.1903 333.462 50.8498 334.522 52.3079C335.954 54.3012 337.907 55.8619 340.167 56.8189C341.378 57.3091 342.649 57.6354 343.947 57.7892C345.295 57.89 346.631 57.8522 348.017 57.8648H365.859H408.588L408.298 57.575C408.298 62.212 408.298 67.227 408.298 72.3554V73.0484L408.802 72.5696L424.326 57.7892L424.112 57.8774H483.007H493.289C496.721 57.9132 500.037 56.6335 502.555 54.3012C505.074 51.9688 506.604 48.7607 506.831 45.3357C507.059 41.9106 505.966 38.5284 503.778 35.8836C501.59 33.2388 498.472 31.5321 495.065 31.1138C493.427 30.9374 491.852 31.0256 490.264 31.0004H467.205L403.749 31.076L360.907 31.1768L349.277 31.2398H346.253C345.572 31.2398 345.22 31.2398 345.22 31.2398H346.253H349.277L360.907 31.3028L403.749 31.4162H467.205H490.264C491.839 31.4162 493.452 31.4162 494.977 31.5296C498.133 31.9219 501.028 33.4818 503.092 35.902C504.681 37.767 505.702 40.0489 506.033 42.4768C506.364 44.9047 505.991 47.3766 504.959 49.5989C503.927 51.8212 502.278 53.7006 500.21 55.0139C498.141 56.3273 495.739 57.0193 493.289 57.0079H483.007H424.112H423.986L423.897 57.0835L408.386 71.8766L408.89 72.0908C408.89 66.9624 408.89 61.9473 408.89 57.3103V57.0331H408.613H365.885H348.042C346.669 57.0331 345.308 57.0331 344.01 57.0331C342.744 56.8925 341.502 56.5831 340.318 56.1133C337.706 55.0139 335.524 53.092 334.104 50.6395C332.683 48.187 332.102 45.3379 332.449 42.5251C332.795 39.7122 334.05 37.0893 336.023 35.0547C337.996 33.0202 340.579 31.6851 343.38 31.2524C344.627 31.3784 345.283 31.4666 345.283 31.3658Z" fill="#263238"/>
<g opacity="0.3">
<path d="M490.958 35.2212L496.969 53.7566H490.958L485.313 35.2212H490.958Z" fill="white"/>
</g>
<g opacity="0.3">
<path d="M476.115 35.2212L482.125 53.7566H476.115L470.47 35.2212H476.115Z" fill="white"/>
</g>
<g opacity="0.3">
<path d="M461.284 35.2212L467.282 53.7566H461.284L455.626 35.2212H461.284Z" fill="white"/>
</g>
<g opacity="0.3">
<path d="M446.44 35.2212L452.438 53.7566H446.44L440.783 35.2212H446.44Z" fill="white"/>
</g>
<path d="M385.318 46.0859C385.318 45.6758 385.418 45.3857 385.617 45.2158C385.816 45.04 386.06 44.9521 386.347 44.9521C386.646 44.9521 386.897 45.04 387.103 45.2158C387.308 45.3857 387.41 45.6758 387.41 46.0859C387.41 46.4902 387.308 46.7861 387.103 46.9736C386.897 47.1553 386.646 47.2461 386.347 47.2461C386.06 47.2461 385.816 47.1553 385.617 46.9736C385.418 46.7861 385.318 46.4902 385.318 46.0859ZM394.723 46.0859C394.723 45.6758 394.822 45.3857 395.021 45.2158C395.221 45.04 395.464 44.9521 395.751 44.9521C396.05 44.9521 396.302 45.04 396.507 45.2158C396.712 45.3857 396.814 45.6758 396.814 46.0859C396.814 46.4902 396.712 46.7861 396.507 46.9736C396.302 47.1553 396.05 47.2461 395.751 47.2461C395.464 47.2461 395.221 47.1553 395.021 46.9736C394.822 46.7861 394.723 46.4902 394.723 46.0859ZM404.127 46.0859C404.127 45.6758 404.227 45.3857 404.426 45.2158C404.625 45.04 404.868 44.9521 405.155 44.9521C405.454 44.9521 405.706 45.04 405.911 45.2158C406.116 45.3857 406.219 45.6758 406.219 46.0859C406.219 46.4902 406.116 46.7861 405.911 46.9736C405.706 47.1553 405.454 47.2461 405.155 47.2461C404.868 47.2461 404.625 47.1553 404.426 46.9736C404.227 46.7861 404.127 46.4902 404.127 46.0859ZM413.531 46.0859C413.531 45.6758 413.631 45.3857 413.83 45.2158C414.029 45.04 414.272 44.9521 414.56 44.9521C414.858 44.9521 415.11 45.04 415.315 45.2158C415.521 45.3857 415.623 45.6758 415.623 46.0859C415.623 46.4902 415.521 46.7861 415.315 46.9736C415.11 47.1553 414.858 47.2461 414.56 47.2461C414.272 47.2461 414.029 47.1553 413.83 46.9736C413.631 46.7861 413.531 46.4902 413.531 46.0859ZM422.936 46.0859C422.936 45.6758 423.035 45.3857 423.234 45.2158C423.434 45.04 423.677 44.9521 423.964 44.9521C424.263 44.9521 424.515 45.04 424.72 45.2158C424.925 45.3857 425.027 45.6758 425.027 46.0859C425.027 46.4902 424.925 46.7861 424.72 46.9736C424.515 47.1553 424.263 47.2461 423.964 47.2461C423.677 47.2461 423.434 47.1553 423.234 46.9736C423.035 46.7861 422.936 46.4902 422.936 46.0859ZM432.34 46.0859C432.34 45.6758 432.439 45.3857 432.639 45.2158C432.838 45.04 433.081 44.9521 433.368 44.9521C433.667 44.9521 433.919 45.04 434.124 45.2158C434.329 45.3857 434.432 45.6758 434.432 46.0859C434.432 46.4902 434.329 46.7861 434.124 46.9736C433.919 47.1553 433.667 47.2461 433.368 47.2461C433.081 47.2461 432.838 47.1553 432.639 46.9736C432.439 46.7861 432.34 46.4902 432.34 46.0859Z" fill="#9A9A9A"/>
<path d="M737.788 439.689C737.788 439.946 572.62 440.135 368.911 440.135C165.203 440.135 0 439.946 0 439.689C0 439.432 165.134 439.243 368.911 439.243C572.688 439.243 737.788 439.449 737.788 439.689Z" fill="#263238"/>
<ellipse opacity="0.04" cx="313.488" cy="234.617" rx="235.488" ry="229.617" fill="#386FFF"/>
<ellipse opacity="0.07" cx="312.182" cy="239.835" rx="198.958" ry="193.087" fill="#386FFF"/>
<ellipse opacity="0.11" cx="313.568" cy="241.064" rx="157.211" ry="151.755" fill="#C2D1FF"/>
<path d="M296.133 290.026L299.407 431.69H305.648L305.253 290.386L296.133 290.026Z" fill="#263238"/>
<path d="M273.554 288.449L243.174 431.69H236.213L261.501 288.449H273.554Z" fill="#263238"/>
<path d="M330.507 290.027L364.127 431.69H371.087L340.588 289.444L330.507 290.027Z" fill="#263238"/>
<path d="M234.105 134.288C234.105 134.288 195.599 132.094 199.439 176.652C203.28 221.21 205.491 266.402 219.807 281.832C234.122 297.262 378.271 297.793 390.375 285.141C402.479 272.488 367.265 273.037 360.664 273.037C354.064 273.037 313.346 276.877 300.145 242.177C286.944 207.477 290.235 132.094 234.105 134.288Z" fill="#263238"/>
<path d="M231.636 134.391C231.636 134.391 202.2 140.425 204.943 171.234C207.686 202.042 215.401 255.978 229.716 269.728C244.032 283.478 300.008 286.478 330.405 284.592C365.619 282.38 387.838 275.677 387.838 275.677C387.838 275.677 394.267 279.809 392.33 282.535C390.393 285.261 373.214 295.907 289.978 294.124C206.743 292.341 212.52 280.066 209.074 266.693C205.628 253.321 198.359 181.76 199.371 166.039C200.382 150.318 208.303 137.065 231.636 134.391Z" fill="#455A64"/>
<path d="M314.34 3.63078C309.708 2.03386 304.678 2.00822 300.029 3.5578C295.38 5.10737 291.372 8.14579 288.624 12.2029C284.903 17.9634 284.029 25.1983 280.24 30.9074C277.549 34.9363 273.571 37.9023 270.279 41.4683C266.988 45.0343 264.296 49.749 265.136 54.5322C265.925 59.0069 269.714 62.9844 268.959 67.4762C268.239 71.6765 263.816 74.4196 262.873 78.6029C261.861 83.5233 266.593 88.118 271.565 88.8894C276.537 89.6609 281.475 87.7408 286.155 85.8892C290.835 84.0376 295.807 82.186 300.762 83.0775C306.505 84.1233 310.911 88.6323 315.935 91.6497C321.231 94.6759 327.293 96.0945 333.383 95.7322C339.472 95.3699 345.323 93.2424 350.223 89.6095C353.995 86.7121 357.304 82.2203 356.378 77.6085C355.521 73.2538 351.235 70.2364 350.103 65.9675C348.286 59.6241 353.532 53.1435 352.761 46.5773C351.698 37.7651 340.76 33.7362 336.851 25.7812C334.948 21.958 334.776 17.5005 333.113 13.5745C331.45 9.64844 327.061 6.15099 323.152 7.83113" fill="#263238"/>
<path d="M318.043 83.8316C317.477 80.6942 318.488 67.4931 318.488 67.4931C318.488 67.4931 330.181 66.0187 330.695 54.0691C331.209 42.1195 330.009 14.6372 330.009 14.6372L308.459 4.35059L289.6 25.781L289.24 83.7116L318.043 83.8316Z" fill="#FFBE9D"/>
<path d="M328.484 35.7079C328.48 36.0007 328.391 36.286 328.226 36.5282C328.062 36.7704 327.83 36.9589 327.559 37.0701C327.288 37.1814 326.991 37.2104 326.703 37.1536C326.416 37.0969 326.152 36.9569 325.944 36.751C325.736 36.5451 325.593 36.2826 325.533 35.996C325.473 35.7094 325.498 35.4115 325.606 35.1394C325.715 34.8673 325.9 34.6331 326.141 34.4659C326.381 34.2987 326.665 34.206 326.958 34.1992C327.36 34.1992 327.745 34.3576 328.031 34.64C328.317 34.9225 328.479 35.3062 328.484 35.7079Z" fill="#263238"/>
<path d="M329.444 33.0338C329.256 33.2395 328.124 32.2966 326.53 32.228C324.935 32.1594 323.735 32.9824 323.564 32.7595C323.392 32.5366 323.667 32.2966 324.198 31.9194C324.894 31.4349 325.73 31.194 326.576 31.2343C327.423 31.2746 328.232 31.5939 328.879 32.1423C329.376 32.5538 329.53 32.9481 329.444 33.0338Z" fill="#263238"/>
<path d="M310.997 35.7079C311.019 35.916 310.998 36.1265 310.933 36.3257C310.869 36.525 310.763 36.7084 310.624 36.8642C310.484 37.0199 310.313 37.1445 310.121 37.2298C309.93 37.315 309.723 37.3591 309.514 37.3591C309.304 37.3591 309.097 37.315 308.906 37.2298C308.715 37.1445 308.544 37.0199 308.404 36.8642C308.264 36.7084 308.159 36.525 308.094 36.3257C308.03 36.1265 308.008 35.916 308.031 35.7079C308.008 35.4997 308.03 35.2892 308.094 35.09C308.159 34.8907 308.264 34.7073 308.404 34.5515C308.544 34.3958 308.715 34.2712 308.906 34.186C309.097 34.1007 309.304 34.0566 309.514 34.0566C309.723 34.0566 309.93 34.1007 310.121 34.186C310.313 34.2712 310.484 34.3958 310.624 34.5515C310.763 34.7073 310.869 34.8907 310.933 35.09C310.998 35.2892 311.019 35.4997 310.997 35.7079Z" fill="#263238"/>
<path d="M311.682 33.3415C311.494 33.5473 310.362 32.6043 308.768 32.5357C307.173 32.4672 305.973 33.2901 305.802 33.0672C305.63 32.8443 305.905 32.6043 306.436 32.2272C307.128 31.745 307.96 31.504 308.802 31.5414C309.649 31.5819 310.461 31.8945 311.117 32.4329C311.597 32.8615 311.768 33.2387 311.682 33.3415Z" fill="#263238"/>
<path d="M317.7 47.1253C318.546 46.8736 319.423 46.7409 320.306 46.7309C320.718 46.7309 321.112 46.6281 321.18 46.3366C321.219 45.8813 321.13 45.4243 320.923 45.0165C320.563 43.9536 320.169 42.822 319.775 41.5877C318.7 38.705 317.835 35.7485 317.186 32.7412C318.483 35.5118 319.566 38.3776 320.426 41.3134C320.803 42.5135 321.18 43.645 321.54 44.7422C321.779 45.2808 321.839 45.8815 321.712 46.4567C321.657 46.6081 321.566 46.7436 321.446 46.8513C321.327 46.9589 321.182 47.0354 321.026 47.0739C320.799 47.1053 320.568 47.1053 320.34 47.0739C319.467 47.2178 318.578 47.2351 317.7 47.1253Z" fill="#263238"/>
<path d="M318.489 67.5276C312.955 67.3477 307.594 65.5605 303.059 62.3843C303.059 62.3843 306.694 71.0936 318.352 70.3907L318.489 67.5276Z" fill="#EB996E"/>
<path d="M317.117 51.3432C317.019 50.8383 316.799 50.3651 316.477 49.9647C316.154 49.5643 315.738 49.2488 315.266 49.0458C314.94 48.8975 314.586 48.8208 314.229 48.8208C313.871 48.8208 313.517 48.8975 313.191 49.0458C312.878 49.2013 312.62 49.4489 312.451 49.7553C312.283 50.0618 312.212 50.4124 312.248 50.7603C312.345 51.1604 312.561 51.5219 312.867 51.7973C313.173 52.0727 313.555 52.249 313.963 52.3032C314.761 52.4088 315.571 52.3505 316.346 52.1318C316.564 52.098 316.774 52.0223 316.963 51.9089C317.057 51.85 317.131 51.765 317.176 51.6645C317.222 51.564 317.237 51.4523 317.22 51.3432" fill="#EB996E"/>
<path d="M313.14 47.0748C313.037 47.0748 312.848 47.5034 312.9 48.2749C312.996 49.3083 313.465 50.2713 314.22 50.9837C314.968 51.6922 315.95 52.101 316.98 52.1324C317.769 52.1324 318.214 51.9266 318.18 51.8238C318.146 51.7209 316.311 51.7209 314.837 50.3322C313.362 48.9435 313.397 47.0577 313.14 47.0748Z" fill="#263238"/>
<path d="M330.988 13.2831C330.558 16.7442 328.881 19.9298 326.271 22.2432C323.661 24.5566 320.297 25.8389 316.809 25.8498L320.049 18.7178C317.169 22.0609 314.186 25.5755 310.226 27.4957C306.265 29.4158 301.105 29.7245 297.745 26.8442C296.647 29.7759 296.665 33.0162 295.653 35.965C294.642 38.9138 292.224 51.1205 289.207 50.6405C286.189 50.1605 284.355 37.9366 283.635 35.2106C282.769 31.3347 282.826 27.3097 283.799 23.4595C284.773 19.6094 286.637 16.0415 289.241 13.043C292.31 9.46404 296.169 6.64706 300.513 4.81432C304.856 2.98158 309.567 2.18319 314.272 2.48214C318.467 2.66715 322.512 4.09321 325.896 6.57963C328.785 8.88507 330.8 12.1095 331.605 15.7176" fill="#263238"/>
<path d="M347 67.1158C347.282 67.0972 347.56 67.0335 347.823 66.9272C348.585 66.6963 349.32 66.386 350.017 66.0014C352.637 64.6037 354.802 62.486 356.258 59.898C357.386 57.9872 358.07 55.8474 358.26 53.6366C358.45 51.4259 358.14 49.2008 357.355 47.1255C356.426 44.6721 354.928 42.4745 352.983 40.7136C350.898 38.8174 348.339 37.5201 345.577 36.959C344.295 36.7777 343.098 36.2095 342.148 35.3302C341.348 34.3608 340.884 33.1573 340.828 31.9014C340.622 29.3812 341.616 26.9295 341.891 24.4608C342.19 22.0845 341.702 19.6757 340.502 17.603C339.448 15.8078 337.909 14.3461 336.062 13.3855C334.347 12.5112 332.821 11.9454 331.501 11.3625C330.345 10.9126 329.241 10.3377 328.21 9.64808C327.365 9.02122 326.61 8.28304 325.964 7.45361C326.059 7.71712 326.192 7.96543 326.358 8.19081C326.826 8.8575 327.406 9.43765 328.072 9.90524C329.094 10.6627 330.198 11.3012 331.364 11.8083C332.684 12.4255 334.244 13.0426 335.822 13.917C337.541 14.8534 338.961 16.2558 339.919 17.9631C341.029 19.9047 341.464 22.16 341.154 24.375C340.879 26.7238 339.833 29.1754 340.022 31.9871C340.079 33.4477 340.622 34.8475 341.565 35.9646C342.638 36.9806 343.996 37.6446 345.457 37.8676C347.98 38.3993 350.33 39.5551 352.292 41.2293C354.254 42.9035 355.765 45.0426 356.686 47.4513C357.444 49.4198 357.759 51.5311 357.608 53.6351C357.456 55.739 356.843 57.7837 355.812 59.6237C354.443 62.1535 352.417 64.2678 349.949 65.7443C348.131 66.7386 347 67.0301 347 67.1158Z" fill="#263238"/>
<path d="M269.388 82.8195C269.388 82.8195 268.376 82.1338 266.61 80.8651C264.053 79.1721 262.022 76.7963 260.747 74.0074C259.967 72.0714 259.847 69.9324 260.404 67.9211C260.714 66.8325 261.305 65.8449 262.119 65.058C263.045 64.2463 264.07 63.5551 265.17 63.0007C266.436 62.3207 267.503 61.3229 268.267 60.1055C269.03 58.8881 269.464 57.493 269.525 56.0573C269.645 52.9542 267.725 50.3825 267.039 47.6223C266.454 44.8475 266.912 41.9546 268.325 39.4959C269.631 37.1543 271.377 35.0876 273.468 33.4097C277.394 30.118 281.492 27.7006 284.32 24.8375C286.652 22.7072 288.389 20.0071 289.361 17.0025C289.595 16.1813 289.733 15.3355 289.772 14.4823C289.816 14.1868 289.816 13.8863 289.772 13.5908C289.63 14.7099 289.401 15.8162 289.087 16.8997C288.014 19.7819 286.248 22.3552 283.943 24.3917C281.132 27.0834 277.086 29.3979 273.005 32.741C270.84 34.4759 269.029 36.6122 267.673 39.033C266.138 41.6792 265.643 44.8024 266.285 47.7937C267.073 50.794 268.908 53.2628 268.771 55.9887C268.728 57.3208 268.329 58.6171 267.614 59.742C266.899 60.8669 265.895 61.7792 264.707 62.3835C263.552 62.9789 262.475 63.7161 261.501 64.578C260.617 65.4752 259.979 66.5854 259.65 67.8011C259.087 69.9635 259.243 72.2504 260.096 74.316C260.818 75.9815 261.874 77.4811 263.199 78.7221C264.195 79.6577 265.274 80.5012 266.422 81.2423C267.348 81.8423 268.136 82.2709 268.599 82.5281C268.848 82.6593 269.113 82.7572 269.388 82.8195Z" fill="#263238"/>
<path d="M331.382 27.5811C329.725 26.204 328.558 24.3274 328.056 22.2321C327.567 20.1464 327.308 18.0135 327.284 15.8715C327.284 15.2543 327.284 14.4486 327.936 14.2943C328.587 14.14 328.999 14.7229 329.273 15.2543C331.369 19.2234 332.11 23.7691 331.382 28.1983L331.004 27.8383" fill="#263238"/>
<path d="M361.299 423.204L361.625 407.774L332.754 406.985L332.051 429.53L333.765 429.702C341.72 430.353 374.26 432.479 379.626 431.005C385.678 429.376 361.299 423.204 361.299 423.204Z" fill="#367AFF"/>
<g opacity="0.5">
<path d="M342.526 429.616C342.165 427.164 340.906 424.934 338.994 423.358C337.134 421.779 334.745 420.964 332.308 421.078L332.085 429.136L342.526 429.616Z" fill="white"/>
</g>
<g opacity="0.4">
<path d="M373.197 426.649C373.197 426.649 381.769 429.358 380.62 430.747C379.472 432.136 346.555 431.227 332.051 429.547V428.912L370.505 430.301C370.505 430.301 371.517 426.667 373.197 426.649Z" fill="white"/>
</g>
<path d="M331.57 428.878H332.067L333.49 428.998L338.736 429.375C343.16 429.649 349.28 429.958 356.052 430.164C362.824 430.369 368.945 430.387 373.385 430.352C368.945 430.352 362.824 430.232 356.052 430.044C349.28 429.855 343.177 429.581 338.736 429.375L333.49 429.101H332.067L331.57 428.878Z" fill="#263238"/>
<path d="M370.522 430.747C370.786 429.883 371.142 429.05 371.585 428.262C372.114 427.537 372.73 426.881 373.419 426.307C372.541 426.663 371.793 427.28 371.275 428.073C370.757 428.867 370.494 429.8 370.522 430.747Z" fill="#263238"/>
<path d="M362.121 426.187C362.207 426.187 362.636 425.758 363.064 425.107C363.493 424.455 363.802 423.89 363.716 423.821C363.63 423.753 363.219 424.267 362.773 424.918C362.469 425.291 362.247 425.723 362.121 426.187Z" fill="#263238"/>
<path d="M359.823 424.884C359.823 424.969 360.355 424.678 360.852 424.232C361.349 423.786 361.726 423.392 361.675 423.323C361.624 423.255 361.144 423.529 360.629 423.975C360.115 424.421 359.755 424.815 359.823 424.884Z" fill="#263238"/>
<path d="M358.418 422.123C358.895 422.319 359.412 422.402 359.927 422.363C360.433 422.423 360.946 422.382 361.436 422.243C360.454 421.962 359.419 421.921 358.418 422.123Z" fill="#263238"/>
<path d="M357.973 420.187C358.471 420.546 359.073 420.733 359.687 420.718C360.263 420.826 360.858 420.766 361.401 420.547C360.836 420.436 360.262 420.379 359.687 420.375C359.121 420.269 358.548 420.206 357.973 420.187Z" fill="#263238"/>
<path d="M363.184 423.7C363.797 423.802 364.423 423.802 365.036 423.7C365.708 423.634 366.374 423.508 367.024 423.323C367.415 423.22 367.795 423.076 368.156 422.894C368.379 422.77 368.549 422.569 368.636 422.329C368.67 422.192 368.664 422.047 368.618 421.914C368.572 421.78 368.489 421.662 368.379 421.574C367.684 421.208 366.883 421.091 366.113 421.244C365.342 421.397 364.647 421.81 364.144 422.414C363.85 422.772 363.634 423.186 363.51 423.632C363.471 423.801 363.471 423.977 363.51 424.146C363.717 423.579 364.018 423.052 364.401 422.586C364.829 422.104 365.39 421.758 366.013 421.591C366.748 421.367 367.543 421.441 368.224 421.797C368.499 422.037 368.379 422.38 368.053 422.569C367.713 422.741 367.357 422.879 366.99 422.98C366.363 423.179 365.721 423.328 365.07 423.426C363.887 423.666 363.184 423.632 363.184 423.7Z" fill="#263238"/>
<path d="M363.647 423.803C363.9 423.425 363.992 422.963 363.904 422.517C363.858 422.03 363.699 421.561 363.441 421.146C363.291 420.867 363.072 420.631 362.805 420.46C362.538 420.289 362.232 420.189 361.916 420.168C361.725 420.202 361.556 420.309 361.444 420.466C361.332 420.623 361.286 420.818 361.315 421.009C361.36 421.304 361.459 421.589 361.607 421.849C361.845 422.26 362.133 422.64 362.464 422.98C362.735 423.325 363.089 423.597 363.493 423.769C363.493 423.769 363.133 423.426 362.636 422.826C362.359 422.47 362.112 422.091 361.898 421.694C361.658 421.283 361.504 420.58 361.898 420.511C362.293 420.443 362.824 420.957 363.098 421.334C363.345 421.702 363.514 422.116 363.596 422.551C363.662 422.965 363.679 423.385 363.647 423.803Z" fill="#263238"/>
<path d="M332.461 420.992C332.461 420.992 333.284 420.992 334.587 421.129C336.288 421.357 337.888 422.066 339.199 423.171C340.511 424.276 341.481 425.733 341.994 427.37C342.388 428.621 342.422 429.444 342.474 429.444C342.525 429.444 342.474 429.238 342.474 428.861C342.443 428.332 342.351 427.809 342.199 427.301C341.731 425.59 340.757 424.061 339.405 422.912C338.041 421.777 336.37 421.073 334.604 420.889C334.075 420.828 333.54 420.828 333.01 420.889C332.823 420.895 332.638 420.93 332.461 420.992Z" fill="#263238"/>
<path d="M335.788 409.06C335.525 411.027 335.387 413.008 335.376 414.992C335.254 416.967 335.254 418.949 335.376 420.924C335.629 418.962 335.767 416.987 335.788 415.009C335.899 413.028 335.899 411.042 335.788 409.06Z" fill="#263238"/>
<path d="M346.228 426.889C347.596 427.264 349.01 427.443 350.428 427.421C351.843 427.535 353.266 427.465 354.663 427.215C354.663 427.112 352.76 427.215 350.446 427.078C348.131 426.941 346.245 426.787 346.228 426.889Z" fill="#263238"/>
<path d="M340.571 426.735C340.571 426.735 340.708 427.129 340.897 427.575C341.085 428.021 341.171 428.398 341.274 428.398C341.377 428.398 341.428 427.935 341.274 427.438C341.119 426.941 340.639 426.666 340.571 426.735Z" fill="#263238"/>
<path d="M338.428 424.026C338.428 424.026 338.531 424.386 338.822 424.695C339.113 425.003 339.405 425.209 339.473 425.141C339.542 425.072 339.371 424.781 339.079 424.455C338.788 424.129 338.582 423.958 338.428 424.026Z" fill="#263238"/>
<path d="M335.496 422.723C335.496 422.826 335.89 422.826 336.319 422.981C336.748 423.135 337.039 423.392 337.108 423.324C337.176 423.255 336.953 422.844 336.439 422.655C335.925 422.466 335.462 422.638 335.496 422.723Z" fill="#263238"/>
<path d="M333.284 422.089C333.284 422.175 333.404 422.329 333.644 422.432C333.884 422.535 334.107 422.535 334.141 422.432C334.175 422.329 334.021 422.192 333.781 422.089C333.541 421.987 333.284 422.004 333.284 422.089Z" fill="#263238"/>
<path d="M431.007 340.721L424.321 326.834L398.21 339.213L407.793 359.632L409.508 358.963C416.897 355.963 446.883 343.122 450.997 339.384C455.558 335.218 431.007 340.721 431.007 340.721Z" fill="#367AFF"/>
<g opacity="0.5">
<path d="M417.171 354.935C415.739 352.92 413.615 351.504 411.205 350.957C408.831 350.401 406.335 350.756 404.21 351.952L407.639 359.255L417.171 354.935Z" fill="white"/>
</g>
<g opacity="0.4">
<path d="M443.197 338.407C443.197 338.407 452.026 336.967 451.666 338.698C451.306 340.43 421.509 354.54 407.811 359.614L407.571 359.014L442.477 342.847C442.477 342.847 441.705 339.196 443.197 338.407Z" fill="white"/>
</g>
<path d="M407.159 359.204C407.321 359.176 407.477 359.124 407.622 359.049L408.959 358.518L413.863 356.478C417.943 354.763 423.532 352.226 429.67 349.329C435.807 346.431 441.276 343.705 445.203 341.665L449.866 339.231L451.117 338.545L451.546 338.271L451.083 338.476L449.797 339.093L445.1 341.442C441.122 343.414 435.636 346.123 429.515 349.02C423.395 351.917 417.823 354.438 413.76 356.238L408.977 358.381L407.674 358.981L407.159 359.204Z" fill="#263238"/>
<path d="M442.665 343.276C442.502 342.394 442.438 341.497 442.477 340.602C442.638 339.715 442.891 338.847 443.231 338.013C442.572 338.706 442.183 339.612 442.134 340.567C441.966 341.505 442.155 342.471 442.665 343.276Z" fill="#263238"/>
<path d="M433.116 343.019C433.219 343.019 433.373 342.402 433.459 341.631C433.545 340.859 433.562 340.208 433.459 340.19C433.248 340.624 433.131 341.097 433.116 341.579C433.013 342.368 433.013 343.002 433.116 343.019Z" fill="#263238"/>
<path d="M430.475 342.899C430.561 342.899 430.835 342.47 431.11 341.853C431.384 341.236 431.504 340.705 431.401 340.67C431.298 340.636 431.041 341.099 430.784 341.716C430.527 342.333 430.39 342.865 430.475 342.899Z" fill="#263238"/>
<path d="M427.973 341.065C428.481 341.02 428.973 340.862 429.413 340.602C429.901 340.44 430.346 340.171 430.716 339.813C430.207 339.859 429.715 340.017 429.276 340.276C428.504 340.636 427.921 340.979 427.973 341.065Z" fill="#263238"/>
<path d="M426.687 339.557C427.277 339.577 427.865 339.478 428.416 339.266C428.967 339.054 429.469 338.733 429.893 338.322C428.826 338.738 427.757 339.149 426.687 339.557Z" fill="#263238"/>
<path d="M432.927 340.328C433.542 340.163 434.123 339.89 434.642 339.522C435.215 339.16 435.754 338.747 436.253 338.288C436.553 338.009 436.828 337.705 437.076 337.379C437.218 337.168 437.273 336.91 437.231 336.659C437.204 336.521 437.136 336.394 437.034 336.295C436.933 336.197 436.804 336.133 436.665 336.11C436.154 336.101 435.648 336.206 435.183 336.418C434.718 336.629 434.306 336.942 433.977 337.333C433.649 337.724 433.411 338.183 433.283 338.678C433.155 339.172 433.139 339.689 433.236 340.191C433.236 340.499 433.39 340.671 433.407 340.654C433.336 340.082 433.365 339.501 433.493 338.939C433.667 338.319 434.011 337.761 434.487 337.328C434.758 337.061 435.08 336.853 435.434 336.714C435.787 336.576 436.165 336.51 436.545 336.522C436.905 336.522 436.956 336.95 436.733 337.259C436.516 337.568 436.269 337.855 435.996 338.116C435.521 338.578 435.011 339.002 434.47 339.385C433.545 339.968 432.893 340.276 432.927 340.328Z" fill="#263238"/>
<path d="M433.39 340.207C433.438 339.757 433.316 339.304 433.048 338.939C432.779 338.528 432.421 338.182 432.002 337.927C431.742 337.746 431.441 337.633 431.126 337.601C430.811 337.568 430.493 337.615 430.202 337.739C430.049 337.858 429.948 338.031 429.919 338.222C429.89 338.414 429.936 338.609 430.047 338.767C430.214 339.01 430.43 339.215 430.682 339.367C431.081 339.638 431.513 339.857 431.967 340.019C432.368 340.189 432.802 340.265 433.236 340.242C433.236 340.242 432.773 340.105 432.053 339.779C431.637 339.598 431.24 339.374 430.87 339.11C430.476 338.87 430.013 338.304 430.407 338.03C430.647 337.954 430.9 337.932 431.148 337.964C431.397 337.997 431.636 338.084 431.847 338.219C432.229 338.441 432.566 338.731 432.842 339.076C433.068 339.431 433.252 339.81 433.39 340.207Z" fill="#263238"/>
<path d="M404.314 351.815C404.314 351.815 405.017 351.387 406.268 350.975C407.886 350.416 409.628 350.328 411.294 350.719C412.96 351.11 414.481 351.966 415.68 353.187C416.623 354.113 417.018 354.901 417.069 354.815C417.013 354.625 416.926 354.446 416.812 354.284C416.541 353.831 416.225 353.405 415.869 353.015C414.672 351.703 413.107 350.784 411.378 350.377C409.65 349.97 407.839 350.095 406.182 350.735C405.69 350.924 405.218 351.166 404.777 351.455C404.451 351.661 404.297 351.798 404.314 351.815Z" fill="#263238"/>
<path d="M401.862 339.676C402.525 341.543 403.298 343.369 404.176 345.145C404.947 346.966 405.823 348.741 406.799 350.46C406.135 348.593 405.363 346.767 404.485 344.991C403.722 343.166 402.846 341.391 401.862 339.676Z" fill="#263238"/>
<path d="M419.263 350.838C420.646 350.54 421.983 350.062 423.241 349.415C424.552 348.867 425.79 348.159 426.927 347.306C426.927 347.22 425.213 348.129 423.104 349.106C420.995 350.083 419.229 350.752 419.263 350.838Z" fill="#263238"/>
<path d="M414.137 353.254C414.137 353.357 414.446 353.546 414.806 353.854C415.166 354.163 415.423 354.471 415.509 354.42C415.595 354.368 415.509 353.94 415.029 353.597C414.549 353.254 414.155 353.168 414.137 353.254Z" fill="#263238"/>
<path d="M411.068 351.763C411.068 351.866 411.342 352.054 411.737 352.191C412.131 352.328 412.491 352.397 412.525 352.294C412.56 352.191 412.251 352.02 411.857 351.866C411.462 351.711 411.102 351.677 411.068 351.763Z" fill="#263238"/>
<path d="M407.793 351.986C407.793 351.986 408.205 351.883 408.65 351.848C409.096 351.814 409.473 351.848 409.508 351.848C409.542 351.848 409.165 351.505 408.599 351.574C408.033 351.643 407.725 351.917 407.793 351.986Z" fill="#263238"/>
<path d="M405.582 352.397C405.582 352.397 405.805 352.552 406.062 352.535C406.319 352.517 406.525 352.415 406.508 352.329C406.491 352.243 406.285 352.157 406.045 352.175C405.805 352.192 405.582 352.295 405.582 352.397Z" fill="#263238"/>
<path d="M240.705 138.951L246.843 108.091C251.3 82.9579 286.618 81.2435 286.618 81.2435L314.426 80.7806C314.426 80.7806 334.999 78.0203 347.669 92.3187C360.784 107.114 376.917 124.619 376.917 124.619L364.607 155.598L335.462 131.596C337.899 135.872 339.242 140.683 339.371 145.603C339.371 153.815 330.799 157.604 330.799 157.604L328.141 182.515L336.713 222.855L246.174 219.221C247.702 205.69 252.281 192.683 259.564 181.178L257.85 138.951H240.705Z" fill="#367AFF"/>
<path d="M279.503 104.439C279.26 105.074 279.099 105.736 279.023 106.411C278.731 107.868 278.389 109.668 277.96 111.812C277.034 116.578 275.834 122.784 274.531 129.642C273.228 136.499 272.062 142.946 271.342 147.54C270.965 149.838 270.708 151.706 270.554 152.992C270.43 153.659 270.39 154.338 270.434 155.015C270.66 154.377 270.815 153.716 270.896 153.044C271.188 151.586 271.548 149.786 271.959 147.643C272.885 142.877 274.085 136.671 275.388 129.813C276.691 122.955 277.857 116.526 278.577 111.914C278.954 109.617 279.211 107.765 279.366 106.462C279.477 105.794 279.523 105.117 279.503 104.439Z" fill="#263238"/>
<path d="M240.174 137.339C245.738 137.816 251.324 137.988 256.907 137.853C262.487 138.019 268.073 137.887 273.639 137.459C268.075 136.994 262.489 136.828 256.907 136.962C251.326 136.797 245.741 136.923 240.174 137.339Z" fill="#263238"/>
<path d="M236.728 165.25C238.443 150.471 240.894 137.819 240.894 137.819H272.954C272.954 137.819 268.977 156.678 269.851 160.964C270.64 164.753 332.753 167.256 348.938 167.513C349.915 166.793 351.304 168.01 352.555 166.913C353.66 165.932 354.593 164.773 355.315 163.484C356.27 161.92 357.014 160.237 357.527 158.478C357.588 158.148 357.743 157.844 357.975 157.602C358.207 157.361 358.504 157.192 358.83 157.117C359.157 157.042 359.498 157.065 359.811 157.182C360.125 157.299 360.398 157.505 360.596 157.775C361.247 159.164 360.51 163.775 357.441 168.233C354.372 172.69 362.43 170.376 365.379 169.587C368.328 168.799 377.586 166.793 378.529 167.53C379.935 168.61 379.06 170.342 376.094 171.062C373.128 171.782 364.368 174.491 364.848 176.205C365.328 177.919 380.277 173.513 380.277 173.513C380.277 173.513 383.329 172.09 383.946 173.89C385.044 177.148 368.808 180.44 367.248 180.748C366.168 180.954 366.631 182.686 367.779 182.463C368.928 182.24 382.626 177.885 383.775 181.194C384.666 183.731 370.437 184.04 368.088 186.543C365.739 189.046 378.854 185.189 379.609 187.64C379.883 188.566 374.466 188.977 366.579 190.092C358.517 190.861 350.416 191.148 342.32 190.949C324.13 191.943 259.804 193.281 246.072 192.303C230.093 191.086 236.111 170.393 236.728 165.25Z" fill="#FFBE9D"/>
<path d="M338.599 139.825C338.35 138.414 337.983 137.026 337.502 135.676C337.125 134.39 336.662 132.882 336.079 131.219C335.788 130.396 335.462 129.504 335.102 128.63C334.896 128.15 334.639 127.738 334.519 127.344C334.383 126.912 334.325 126.459 334.348 126.007C334.432 125.05 334.575 124.1 334.776 123.161C334.948 122.235 335.119 121.343 335.291 120.469C335.565 118.755 335.839 117.28 336.079 115.874C336.397 114.473 336.569 113.042 336.593 111.605C336.068 112.944 335.689 114.335 335.462 115.754C335.153 117.143 334.828 118.669 334.485 120.298L333.919 123.006C333.685 123.987 333.53 124.984 333.456 125.99C333.428 126.542 333.503 127.094 333.679 127.618C333.859 128.081 334.065 128.533 334.296 128.973C334.656 129.83 334.999 130.687 335.308 131.51C335.873 133.07 336.422 134.527 336.902 135.865C337.301 137.25 337.871 138.58 338.599 139.825Z" fill="#263238"/>
<path d="M301.225 22.9517C298.756 26.1405 296.081 29.8094 296.613 33.804C297.042 37.2329 299.836 40.4046 299.373 43.902C298.825 47.9309 294.23 50.5711 293.921 54.6343C293.733 58.0632 296.63 60.6006 298.67 63.2065C300.167 65.1333 301.27 67.3366 301.914 69.6902C302.558 72.0437 302.732 74.5012 302.425 76.9219C302.087 79.3294 301.206 81.6285 299.849 83.6453C298.491 85.6621 296.693 87.3437 294.59 88.5629C292.458 89.7426 290.056 90.35 287.62 90.326C285.183 90.302 282.794 89.6473 280.686 88.4258C276.969 85.8328 274.262 82.0355 273.022 77.6763C271.102 72.1558 270.588 65.6753 273.862 60.8063C275.2 58.8518 277.137 57.1717 277.566 54.8401C278.114 51.8913 276.023 49.1139 275.697 46.1308C275.251 42.1361 278.011 38.4844 281.063 35.8442C284.115 33.204 287.715 31.1124 289.995 27.8035" fill="#263238"/>
<g opacity="0.3">
<path d="M278.423 112.789C277.309 129.933 276.709 145.791 276.297 162.987C274.009 162.888 271.786 162.191 269.851 160.964C268.977 153.626 274.531 131.287 278.423 112.789Z" fill="black"/>
</g>
<path d="M320.22 104.885C320.469 103.577 320.332 102.225 319.826 100.993C319.243 98.9015 318.334 97.3757 318.111 97.4785C318.186 98.7691 318.476 100.038 318.969 101.233C319.191 102.509 319.613 103.741 320.22 104.885Z" fill="#FAFAFA"/>
<path d="M338.428 104.834C338.565 105.04 339.782 104.44 340.965 103.309C342.148 102.177 342.834 100.994 342.68 100.857C342.526 100.72 341.531 101.594 340.4 102.657C339.268 103.72 338.308 104.629 338.428 104.834Z" fill="#FAFAFA"/>
<path d="M355.829 119.063C355.829 119.063 355.983 118.909 356.086 118.601H355.692C355.425 119.999 355.425 121.436 355.692 122.835C355.794 124.435 356.393 125.964 357.406 127.207C357.204 125.68 356.901 124.168 356.498 122.681C356.189 120.967 356.12 119.355 356.018 118.618H355.623C355.726 118.961 355.76 119.046 355.829 119.063Z" fill="#FAFAFA"/>
<path d="M356.6 136.86C357.909 136.805 359.191 136.466 360.355 135.865C362.344 135.094 363.887 134.288 363.784 134.048C362.469 134.099 361.181 134.439 360.012 135.042C358.058 135.814 356.515 136.62 356.6 136.86Z" fill="#FAFAFA"/>
<path d="M341.857 127.001C342.097 127.001 342.063 125.458 341.497 123.692C340.931 121.927 340.142 120.658 339.92 120.761C339.697 120.864 340.125 122.252 340.657 123.95C341.188 125.647 341.685 127.036 341.857 127.001Z" fill="#FAFAFA"/>
<path d="M326.427 87.9814C326.427 88.2214 327.712 88.4786 329.324 88.5643C330.936 88.6501 332.239 88.5643 332.256 88.2557C332.273 87.9471 330.97 87.7414 329.358 87.6728C327.747 87.6043 326.427 87.7243 326.427 87.9814Z" fill="#FAFAFA"/>
<path d="M323.29 121.463C323.444 121.635 324.832 120.606 325.758 118.72C326.451 117.644 326.697 116.34 326.444 115.085C326.187 115.085 325.827 116.611 324.97 118.326C324.112 120.04 323.101 121.275 323.29 121.463Z" fill="#FAFAFA"/>
<path d="M292.841 114.281C292.67 114.452 293.75 115.824 295.378 117.23C297.007 118.636 298.533 119.493 298.67 119.287C298.807 119.081 297.556 117.915 295.961 116.544C294.367 115.172 293.013 114.109 292.841 114.281Z" fill="#FAFAFA"/>
<path d="M307.893 109.548C307.756 109.754 308.699 110.697 310.019 111.674C311.339 112.651 312.54 113.303 312.677 113.097C312.814 112.891 311.871 111.949 310.551 110.971C309.231 109.994 308.048 109.36 307.893 109.548Z" fill="#FAFAFA"/>
<path d="M300.505 97.2382C301.898 96.9462 303.17 96.2412 304.156 95.2151C305.871 93.6893 306.917 92.0435 306.711 91.9063C306.505 91.7692 305.271 93.0893 303.573 94.5294C301.876 95.9695 300.385 97.0153 300.505 97.2382Z" fill="#FAFAFA"/>
<path d="M283.171 92.4376C283.034 92.6262 283.994 93.6205 285.349 94.632C286.703 95.6436 287.92 96.3465 288.075 96.1408C288.229 95.935 287.252 94.9578 285.897 93.9291C284.543 92.9005 283.326 92.2318 283.171 92.4376Z" fill="#FAFAFA"/>
<path d="M268.701 99.2966C268.723 98.0572 268.538 96.8229 268.153 95.6448C267.758 93.6732 267.501 92.0445 267.244 92.0617C266.864 93.2844 266.864 94.5936 267.244 95.8163C267.673 97.8736 268.478 99.3823 268.701 99.2966Z" fill="#FAFAFA"/>
<path d="M266.147 115.807C266.319 115.978 267.862 114.829 269.576 113.218C271.29 111.606 272.611 110.166 272.439 109.995C272.268 109.823 270.725 110.955 269.01 112.566C267.296 114.178 265.976 115.618 266.147 115.807Z" fill="#FAFAFA"/>
<path d="M254.421 108.862C254.644 108.759 254.198 107.147 253.427 105.433C252.655 103.718 251.832 102.21 251.609 102.313C251.671 103.517 252.011 104.691 252.604 105.741C253.392 107.559 254.215 108.965 254.421 108.862Z" fill="#FAFAFA"/>
<path d="M253.82 128.699C253.528 127.265 252.944 125.905 252.106 124.705C251.529 123.373 250.696 122.167 249.654 121.156C249.945 122.586 250.529 123.94 251.369 125.133C251.943 126.472 252.776 127.684 253.82 128.699Z" fill="#FAFAFA"/>
<path d="M265.376 131.732C265.581 131.887 266.747 130.652 268.016 128.972C269.285 127.292 270.125 125.835 269.936 125.681C269.747 125.526 268.547 126.761 267.296 128.441C266.044 130.121 265.187 131.578 265.376 131.732Z" fill="#FAFAFA"/>
<path d="M287.184 140.22C286.77 138.422 285.969 136.737 284.835 135.282C283.939 133.675 282.698 132.288 281.2 131.219C282.001 132.834 282.966 134.362 284.08 135.779C284.962 137.36 286.002 138.848 287.184 140.22Z" fill="#FAFAFA"/>
<path d="M302.853 138.643C303.902 137.487 304.722 136.143 305.271 134.682C306.08 133.345 306.632 131.868 306.899 130.328C305.034 132.817 303.661 135.639 302.853 138.643Z" fill="#FAFAFA"/>
<path d="M322.587 134.048C323.57 135.481 324.787 136.738 326.187 137.768C327.391 139.021 328.8 140.059 330.353 140.837C330.525 140.648 328.913 138.985 326.77 137.1C325.563 135.848 324.147 134.816 322.587 134.048Z" fill="#FAFAFA"/>
<path d="M315.094 155.478C315.3 155.633 316.706 154.038 318.523 152.187C320.341 150.335 321.952 148.895 321.798 148.758C320.279 149.353 318.926 150.305 317.855 151.535C316.625 152.603 315.677 153.957 315.094 155.478Z" fill="#FAFAFA"/>
<path d="M301.276 156.13C301.178 154.56 300.65 153.048 299.75 151.758C298.464 149.529 296.904 148.089 296.733 148.329C297.348 149.702 298.107 151.007 298.996 152.221C299.619 153.599 300.383 154.909 301.276 156.13Z" fill="#FAFAFA"/>
<path d="M281.852 158.392C283.422 157.652 284.854 156.648 286.086 155.426C287.51 154.422 288.755 153.188 289.772 151.774C288.197 152.514 286.759 153.517 285.521 154.74C284.103 155.745 282.863 156.979 281.852 158.392Z" fill="#FAFAFA"/>
<path d="M283.566 107.337C284.91 107.121 286.165 106.526 287.183 105.623C289.001 104.303 290.115 102.845 289.944 102.674C289.772 102.503 288.401 103.634 286.652 104.903C284.903 106.171 283.566 107.114 283.566 107.337Z" fill="#FAFAFA"/>
<path d="M311.631 195.201C311.528 195.441 312.917 196.178 314.46 197.327C316.003 198.475 317.152 199.556 317.34 199.401C317.529 199.247 316.655 197.824 314.992 196.607C313.329 195.389 311.7 194.978 311.631 195.201Z" fill="#FAFAFA"/>
<path d="M290.887 203.671C292.382 201.356 293.348 198.739 293.716 196.008C292.228 198.327 291.263 200.942 290.887 203.671Z" fill="#FAFAFA"/>
<path d="M269.971 196.264C269.782 196.436 270.862 197.842 272.354 199.402C273.845 200.962 275.2 202.093 275.371 201.922C275.542 201.75 274.479 200.345 272.988 198.784C271.496 197.224 270.142 196.11 269.971 196.264Z" fill="#FAFAFA"/>
<path d="M254.421 207.545C254.609 207.734 255.998 206.636 258.055 206.242C260.113 205.848 261.81 206.242 261.896 206.019C261.321 205.604 260.658 205.329 259.958 205.215C259.259 205.102 258.542 205.154 257.867 205.368C255.604 205.83 254.301 207.408 254.421 207.545Z" fill="#FAFAFA"/>
<path d="M245.969 215.174C245.969 215.174 364.367 190.367 375.837 195.801C387.306 201.236 440.162 331.893 440.162 331.893L397.593 350.203L351.801 239.176C351.801 239.176 268.908 269.453 254.421 266.402C239.934 263.35 245.969 215.174 245.969 215.174Z" fill="#455A64"/>
<path d="M298.893 222.135C300.693 222.735 369.185 250.903 374.019 259.938C378.854 268.973 366.99 419.277 366.99 419.277H328.038L330.439 285.706L254.421 266.401L298.893 222.135Z" fill="#455A64"/>
<path d="M254.027 266.762C254.402 266.748 254.774 266.702 255.141 266.625L258.33 266.059C261.09 265.545 265.085 264.756 270.005 263.71C279.829 261.636 293.373 258.567 308.117 254.264C315.489 252.138 322.45 249.909 328.69 247.749C334.931 245.589 340.571 243.429 345.183 241.457C347.515 240.514 349.589 239.571 351.407 238.748C353.224 237.925 354.835 237.222 356.053 236.571L358.933 235.114C359.284 234.961 359.617 234.771 359.927 234.548C359.563 234.657 359.207 234.794 358.864 234.959L355.898 236.262C354.63 236.845 353.052 237.531 351.218 238.302C349.384 239.074 347.292 240.017 344.96 240.874C340.314 242.777 334.674 244.783 328.416 246.977C322.158 249.172 315.181 251.281 307.843 253.407C293.116 257.641 279.623 260.864 269.834 263.093L258.227 265.716L255.073 266.436C254.714 266.509 254.363 266.618 254.027 266.762Z" fill="#263238"/>
<path d="M374.002 294.466C374.193 293.731 374.314 292.979 374.362 292.221C374.533 290.592 374.756 288.517 375.013 286.049C375.27 283.58 375.545 280.305 375.853 276.911C376.378 273.151 376.378 269.338 375.853 265.578C375.094 261.778 373.099 258.336 370.179 255.789C367.856 253.719 365.224 252.024 362.378 250.766C360.493 249.907 358.564 249.146 356.6 248.485C355.892 248.201 355.157 247.989 354.406 247.851C354.406 248.005 357.423 249.085 362.104 251.28C364.847 252.571 367.379 254.27 369.613 256.32C372.362 258.782 374.244 262.065 374.979 265.681C375.459 269.363 375.459 273.092 374.979 276.774C374.722 280.202 374.499 283.271 374.31 285.929C374.122 288.586 374.036 290.489 373.95 292.118C373.881 292.9 373.898 293.688 374.002 294.466Z" fill="#263238"/>
<path d="M339.834 281.557C336.544 282.358 333.422 283.734 330.61 285.62C333.897 284.812 337.018 283.437 339.834 281.557Z" fill="#263238"/>
<path d="M336.388 277.443C335.278 278.851 334.242 280.316 333.285 281.832C331.57 284.181 329.736 285.809 329.856 286.015C331.534 285.201 332.952 283.937 333.953 282.363C335.214 280.987 336.058 279.28 336.388 277.443Z" fill="#263238"/>
<path d="M321.438 283.545C321.438 283.545 321.558 283.871 322.038 284.163C322.734 284.532 323.513 284.715 324.301 284.694C325.382 284.656 326.464 284.685 327.541 284.78C328.119 284.865 328.641 285.169 329.002 285.628C329.362 286.087 329.533 286.667 329.478 287.249C329.347 290.725 329.507 294.206 329.958 297.655C330.398 294.188 330.536 290.689 330.37 287.197C330.361 286.401 330.104 285.627 329.633 284.986C329.127 284.417 328.433 284.052 327.678 283.957C326.534 283.895 325.387 283.929 324.249 284.06C323.284 284.131 322.316 283.954 321.438 283.545Z" fill="#263238"/>
<path opacity="0.3" d="M330.782 195.03L250.083 201.51L253.53 192.475L329.993 191.378L330.782 195.03Z" fill="black"/>
<path d="M112.363 177.319H588.1V190.006H562.658L575.774 431.295L568.539 431.689L555.389 190.006H138.302L127.124 431.5H119.855L131.05 190.006H112.363V177.319Z" fill="#263238"/>
<path d="M449.351 102.296L422.966 179.377H303.504L304.396 175.417L352.691 173.908L374.945 102.245L449.351 102.296Z" fill="#263238"/>
<path d="M396.41 138.488C395.622 141.66 396.976 144.746 399.428 145.346C401.879 145.946 404.571 143.974 405.308 140.803C406.045 137.631 404.743 134.562 402.291 133.945C399.839 133.328 397.199 135.334 396.41 138.488Z" fill="white"/>
<path d="M149.586 70.1962C168.834 70.1962 184.438 54.5926 184.438 35.3447C184.438 16.0967 168.834 0.493164 149.586 0.493164C130.338 0.493164 114.735 16.0967 114.735 35.3447C114.735 54.5926 130.338 70.1962 149.586 70.1962Z" fill="white"/>
<path d="M184.438 35.3443C184.438 35.3443 184.438 35.1577 184.382 34.7845C184.326 34.4112 184.317 33.8514 184.27 33.1235C184.27 32.7596 184.223 32.3584 184.195 31.9105C184.167 31.4626 184.055 30.9774 183.981 30.4548C183.824 29.2415 183.581 28.0409 183.253 26.8624C182.439 23.6029 181.136 20.4852 179.39 17.6153C176.859 13.3993 173.465 9.76694 169.43 6.95726C165.395 4.14757 160.81 2.22428 155.978 1.31396C154.533 1.04525 153.071 0.876889 151.602 0.810082C150.855 0.810082 150.1 0.707439 149.344 0.71677L147.048 0.838075C146.666 0.838075 146.274 0.838076 145.891 0.912725L144.734 1.09001C143.969 1.22065 143.185 1.31396 142.411 1.47259C139.234 2.18612 136.163 3.30901 133.276 4.81311C132.548 5.20501 131.848 5.67156 131.12 6.10079C130.766 6.32474 130.392 6.52069 130.047 6.77263L129.03 7.53777C126.205 9.58949 123.734 12.0889 121.714 14.9373L120.921 16.001L120.222 17.1394L119.522 18.2405C119.275 18.6156 119.057 19.0086 118.869 19.4162C118.486 20.228 118.094 21.0398 117.693 21.8609L116.76 24.4177C115.621 27.9502 115.017 31.6331 114.968 35.3443C115.017 39.0525 115.621 42.7323 116.76 46.2617C117.068 47.1201 117.385 47.9786 117.693 48.8277C118.001 49.6768 118.477 50.4606 118.869 51.2631C119.054 51.6749 119.273 52.0711 119.522 52.4482L120.222 53.5959L120.912 54.7343L121.714 55.798C122.749 57.2121 123.881 58.5528 125.102 59.8104C126.336 61.0094 127.648 62.1254 129.03 63.1509L130.047 63.916C130.392 64.168 130.766 64.3639 131.12 64.5879C131.848 65.0171 132.548 65.521 133.276 65.8755C136.163 67.3796 139.234 68.5025 142.411 69.2161C143.185 69.384 143.969 69.468 144.744 69.5986L145.891 69.7759C146.283 69.7759 146.666 69.7759 147.048 69.8506L149.381 69.9905C150.137 69.9905 150.893 69.9252 151.639 69.9066C153.108 69.8367 154.57 69.6652 156.015 69.3934C160.849 68.4864 165.435 66.5645 169.47 63.7545C173.506 60.9445 176.9 57.3103 179.427 53.092C181.159 50.2257 182.449 47.1145 183.253 43.8636C183.581 42.6851 183.824 41.4845 183.981 40.2711C184.055 39.7486 184.149 39.2634 184.195 38.8155C184.242 38.3676 184.251 37.9664 184.27 37.6024C184.32 36.8808 184.357 36.3303 184.382 35.9508C184.382 35.5776 184.438 35.3817 184.438 35.3817C184.438 35.3817 184.438 35.5776 184.438 35.9508C184.438 36.3241 184.438 36.884 184.382 37.6024C184.382 37.9757 184.382 38.3769 184.326 38.8341C184.27 39.2914 184.205 39.7672 184.13 40.2898C183.986 41.4961 183.755 42.6905 183.439 43.8636C182.649 47.1498 181.362 50.2962 179.623 53.1946C177.095 57.4711 173.686 61.1605 169.622 64.0177C165.558 66.875 160.932 68.8347 156.053 69.7666C154.592 70.041 153.114 70.2156 151.63 70.2891C150.874 70.2891 150.109 70.3918 149.344 70.3824L147.02 70.2705C146.628 70.2705 146.237 70.2705 145.845 70.1958L144.716 69.9905C143.932 69.8599 143.139 69.7759 142.355 69.608C140.77 69.261 139.211 68.8058 137.689 68.2456C136.118 67.6851 134.588 67.018 133.108 66.2488C132.371 65.8475 131.652 65.381 130.924 64.9424C130.56 64.7092 130.178 64.5132 129.833 64.2613L128.806 63.4868C127.406 62.449 126.075 61.3206 124.822 60.109C123.583 58.8328 122.432 57.4736 121.379 56.0406L120.567 54.9675L119.858 53.8105L119.158 52.6441C118.904 52.2649 118.683 51.8654 118.495 51.4497C118.103 50.6286 117.702 49.8075 117.31 48.977L116.377 46.3736C115.227 42.7953 114.617 39.0654 114.567 35.307C114.596 31.5611 115.184 27.8405 116.312 24.2684L117.245 21.6743L118.439 19.1923C118.626 18.7778 118.844 18.3784 119.092 17.9979L119.802 16.8408L120.501 15.6838L121.313 14.6014C122.369 13.1733 123.52 11.8173 124.756 10.5424C126.009 9.33071 127.34 8.20234 128.741 7.16453L129.767 6.39005C130.112 6.13812 130.495 5.94216 130.859 5.70889C131.587 5.27966 132.305 4.77578 133.042 4.41187C135.97 2.89485 139.081 1.76263 142.299 1.04336C143.083 0.884731 143.876 0.79142 144.66 0.660786L145.826 0.483493C146.218 0.483493 146.61 0.483495 147.002 0.408847L149.325 0.296875C150.09 0.296875 150.846 0.362191 151.602 0.390184C153.089 0.467805 154.57 0.642356 156.034 0.912725C160.914 1.84461 165.539 3.80429 169.603 6.66156C173.667 9.51884 177.076 13.2083 179.604 17.4847C181.343 20.3831 182.63 23.5296 183.421 26.8157C183.736 28.0043 183.964 29.2144 184.102 30.4362C184.177 30.9681 184.261 31.4533 184.298 31.9012L184.354 33.1235C184.354 33.842 184.401 34.3926 184.41 34.7845C184.419 35.1764 184.438 35.3443 184.438 35.3443Z" fill="#263238"/>
<path d="M166.111 34.3653C165.655 34.5331 165.187 34.6672 164.712 34.7666L160.821 35.6997C157.527 36.4648 152.954 37.5006 147.841 38.6203L147.552 38.6856V37.3326C147.552 31.874 147.552 26.9285 147.617 23.336C147.617 21.6191 147.682 20.1915 147.701 19.0997C147.687 18.5817 147.718 18.0634 147.794 17.5508C147.864 18.064 147.896 18.5818 147.888 19.0997C147.888 20.1915 147.934 21.6191 147.962 23.336C147.962 26.9192 148.037 31.8646 148.037 37.3326V38.3497L147.738 38.1071C152.852 36.9967 157.433 36.0169 160.746 35.3078L164.665 34.5333C165.141 34.4327 165.625 34.3764 166.111 34.3653Z" fill="#263238"/>
<path d="M186.929 49.7139C186.963 49.5193 187.016 49.3286 187.088 49.1447C187.19 48.7808 187.405 48.2116 187.592 47.5584C188.192 45.6008 188.647 43.6017 188.954 41.5772C190.02 34.8879 189.382 28.0377 187.099 21.6604C184.816 15.2831 180.961 9.5848 175.89 5.09276C174.371 3.734 172.756 2.48663 171.057 1.36033C170.46 0.940435 169.965 0.660504 169.657 0.427227C169.487 0.328716 169.324 0.216365 169.172 0.0913086C169.361 0.147764 169.541 0.23272 169.704 0.343248C170.031 0.529869 170.544 0.781805 171.16 1.18304C172.913 2.26197 174.574 3.48548 176.124 4.84082C181.302 9.32098 185.233 15.0644 187.535 21.513C189.837 27.9616 190.432 34.896 189.262 41.6425C188.931 43.6642 188.435 45.6552 187.778 47.5957C187.554 48.2862 187.312 48.8088 187.181 49.1633C187.118 49.3559 187.034 49.5406 186.929 49.7139Z" fill="#263238"/>
<path d="M193.61 32.5637C193.536 32.5637 193.489 31.1733 193.209 28.9525C192.835 26.0648 192.179 23.2208 191.249 20.4613C190.311 17.7134 189.102 15.0658 187.638 12.5579C186.5 10.6263 185.679 9.50662 185.772 9.45996C186.023 9.67016 186.243 9.91526 186.425 10.1878C186.808 10.6917 187.358 11.4288 187.956 12.3712C189.543 14.8526 190.828 17.5154 191.781 20.3026C192.742 23.0895 193.368 25.9806 193.648 28.9152C193.75 30.0349 193.778 30.9494 193.778 31.5839C193.774 31.9173 193.717 32.2479 193.61 32.5637Z" fill="#263238"/>
<path d="M114.791 15.1616C114.736 15.3478 114.657 15.5264 114.558 15.6935C114.39 16.0387 114.101 16.524 113.802 17.1865C110.288 24.1673 108.871 32.0161 109.72 39.7851C110.569 47.5541 113.65 54.9112 118.589 60.9678C119.875 62.5578 121.272 64.0545 122.769 65.4467C123.292 65.9506 123.702 66.3052 124.01 66.5664C124.16 66.6927 124.301 66.8299 124.43 66.977C124.255 66.8857 124.092 66.7728 123.945 66.6411C123.646 66.4078 123.189 66.0719 122.648 65.5867C121.089 64.2396 119.644 62.7666 118.328 61.1824C113.924 55.9374 110.954 49.6414 109.706 42.9076C108.458 36.1738 108.976 29.2316 111.208 22.7571C111.866 20.8068 112.687 18.9153 113.662 17.1025C113.989 16.4493 114.306 15.9734 114.493 15.6468C114.579 15.4771 114.678 15.3148 114.791 15.1616Z" fill="#263238"/>
<path d="M105.469 31.0337C105.553 31.0337 105.376 32.424 105.301 34.6635C105.202 37.5717 105.399 40.4824 105.889 43.3507C106.389 46.2219 107.176 49.0354 108.24 51.7486C109.052 53.8295 109.687 55.0705 109.612 55.1078C109.402 54.8552 109.226 54.576 109.089 54.2774C108.781 53.7268 108.371 52.915 107.923 51.8793C106.752 49.1904 105.906 46.371 105.404 43.4813C104.908 40.5793 104.758 37.6288 104.956 34.6915C105.04 33.5624 105.152 32.6573 105.254 32.0321C105.28 31.6911 105.353 31.3553 105.469 31.0337Z" fill="#263238"/>
<path d="M178.438 41.0638C177.122 40.7932 176.058 40.5599 176.058 40.5506C176.058 40.5413 177.131 40.7466 178.447 41.0172C179.763 41.2878 180.827 41.5117 180.817 41.521C180.808 41.5304 179.744 41.3717 178.438 41.0638Z" fill="#263238"/>
<path d="M175.06 49.8813C173.903 49.2002 172.969 48.6403 172.969 48.631C172.969 48.6216 173.903 49.1629 175.078 49.844C176.254 50.5252 177.168 51.085 177.159 51.0944C177.15 51.1037 176.207 50.5625 175.06 49.8813Z" fill="#263238"/>
<path d="M168.976 57.0859C168.099 56.0595 167.399 55.2197 167.409 55.2197C167.418 55.2197 168.136 56.0315 169.004 57.0859C169.872 58.1403 170.581 58.9521 170.562 58.9521C170.544 58.9521 169.909 58.103 168.976 57.0859Z" fill="#263238"/>
<path d="M160.942 61.9374C160.447 60.687 160.056 59.6699 160.065 59.6699C160.074 59.6699 160.485 60.6683 160.998 61.9187C161.511 63.1691 161.884 64.1768 161.866 64.1862C161.847 64.1955 161.437 63.1784 160.942 61.9374Z" fill="#263238"/>
<path d="M151.742 63.9065C151.686 62.5629 151.648 61.4805 151.658 61.4805C151.667 61.4805 151.732 62.5629 151.788 63.9065C151.844 65.2502 151.891 66.3326 151.882 66.3326C151.872 66.3326 151.807 65.2502 151.742 63.9065Z" fill="#263238"/>
<path d="M142.401 62.777C142.774 61.4894 143.082 60.4536 143.101 60.4536C143.12 60.4536 142.821 61.508 142.448 62.7957C142.075 64.0834 141.757 65.1191 141.739 65.1191C141.72 65.1191 142.019 64.0647 142.401 62.777Z" fill="#263238"/>
<path d="M133.919 58.6906C134.694 57.5895 135.328 56.7124 135.347 56.7218C135.365 56.7311 134.731 57.6549 133.956 58.7186C133.182 59.7823 132.585 60.6595 132.585 60.6595C132.585 60.6595 133.145 59.7823 133.919 58.6906Z" fill="#263238"/>
<path d="M127.248 52.0653C128.33 51.2722 129.217 50.647 129.226 50.6564C129.235 50.6657 128.358 51.3095 127.267 52.1027C126.175 52.8958 125.298 53.5117 125.288 53.5023C125.279 53.493 126.156 52.8492 127.248 52.0653Z" fill="#263238"/>
<path d="M123.068 43.6297C124.355 43.2378 125.4 42.9298 125.4 42.9392C125.4 42.9485 124.365 43.2844 123.077 43.6763C121.789 44.0682 120.753 44.3668 120.753 44.3575C120.753 44.3482 121.789 44.0216 123.068 43.6297Z" fill="#263238"/>
<path d="M121.863 34.2986C123.207 34.2986 124.289 34.3919 124.289 34.4105C124.289 34.4292 123.197 34.4105 121.863 34.3452C120.529 34.2799 119.428 34.2426 119.437 34.2332C119.446 34.2239 120.519 34.2426 121.863 34.2986Z" fill="#263238"/>
<path d="M123.748 25.0712C125.008 25.5564 126.015 25.9483 126.015 26.0043C126.015 26.0603 124.989 25.6311 123.729 25.1552C122.47 24.6793 121.471 24.2781 121.471 24.2687C121.471 24.2594 122.498 24.5953 123.748 25.0712Z" fill="#263238"/>
<path d="M128.535 16.9616C129.562 17.8294 130.401 18.5385 130.401 18.5479C130.401 18.5572 129.552 17.8667 128.535 16.9989C127.518 16.1311 126.669 15.4313 126.669 15.422C126.669 15.4126 127.499 16.1031 128.535 16.9616Z" fill="#263238"/>
<path d="M135.683 10.8587C136.373 12.0064 136.933 12.9395 136.924 12.9488C136.914 12.9582 136.336 12.0157 135.645 10.8773C134.955 9.73895 134.395 8.79651 134.404 8.78718C134.413 8.77785 134.992 9.71095 135.683 10.8587Z" fill="#263238"/>
<path d="M144.426 7.38773C144.706 8.70341 144.93 9.76715 144.921 9.76715C144.911 9.76715 144.669 8.71274 144.379 7.39706C144.09 6.08138 143.876 5.02697 143.894 5.01764C143.913 5.00831 144.146 6.08138 144.426 7.38773Z" fill="#263238"/>
<path d="M153.823 6.95922C153.664 8.29357 153.524 9.36664 153.515 9.36664C153.505 9.36664 153.617 8.28423 153.785 6.94989C153.953 5.61555 154.084 4.54248 154.093 4.54248C154.103 4.54248 153.991 5.60622 153.823 6.95922Z" fill="#263238"/>
<path d="M162.864 9.59966C162.285 10.8034 161.8 11.7831 161.791 11.7738C161.782 11.7645 162.239 10.7847 162.817 9.57167C163.396 8.35863 163.881 7.3882 163.9 7.39753C163.918 7.40686 163.443 8.40528 162.864 9.59966Z" fill="#263238"/>
<path d="M170.544 15.0306C169.611 15.9637 168.827 16.7476 168.817 16.7382C168.808 16.7289 169.573 15.9451 170.516 14.9933C171.458 14.0415 172.233 13.2764 172.242 13.2857C172.251 13.2951 171.495 14.0789 170.544 15.0306Z" fill="#263238"/>
<path d="M176.049 22.6539C174.845 23.2511 173.865 23.727 173.865 23.7177C173.865 23.7083 174.799 23.2138 176.03 22.6166C177.262 22.0194 178.214 21.5435 178.214 21.5529C178.214 21.5622 177.253 22.0567 176.049 22.6539Z" fill="#263238"/>
<path d="M178.792 31.6587L176.375 31.9479C176.375 31.9479 177.449 31.78 178.783 31.612C180.117 31.4441 181.19 31.3041 181.19 31.3134C181.19 31.3228 180.117 31.4814 178.792 31.6587Z" fill="#263238"/>
<path d="M196.036 28.439C195.518 30.0145 194.85 31.5363 194.039 32.9832L193.983 33.0858L193.796 33.4684L193.563 33.1138C192.624 31.8034 191.818 30.4031 191.156 28.9335C192.232 30.1377 193.188 31.444 194.011 32.8339H193.591L193.647 32.7219C194.303 31.2203 195.103 29.7859 196.036 28.439Z" fill="#263238"/>
</svg>
