<svg width="247" height="195" viewBox="0 0 247 195" fill="none" xmlns="http://www.w3.org/2000/svg">
<path d="M234.849 43.8169C251.692 72.1475 249.923 112.027 228.88 138.27C207.838 164.513 175.242 184.705 138.425 190.905C112.146 195.319 69.0339 196.148 45.0227 186.124C21.0115 176.099 0.0845599 153.671 0.000347005 131.051C-0.0364961 121.287 2.8478 108.473 14.7376 98.2948C26.0748 88.5732 47.0701 89.7419 63.2232 90.1616C79.3763 90.5813 97.7452 90.2679 108.572 80.1319C116.883 72.3441 118.109 61.05 122.488 51.2382C129.941 34.5575 147.915 21.5369 168.574 17.8502C171.449 17.3363 174.353 17.0028 177.269 16.8515C199.99 15.6562 221.538 25.5265 233.46 41.9044L234.849 43.8169Z" fill="#F1E9FB"/>
<path d="M77.3045 88.7918C67.0322 88.7899 56.9864 91.8105 48.4187 97.4773C39.8509 103.144 33.1398 111.207 29.1216 120.66C25.1033 130.114 23.9555 140.541 25.8211 150.643C27.6867 160.744 32.4832 170.073 39.6131 177.468L33.8464 193.924C33.8464 193.924 45.0579 189.588 51.8692 186.891C58.8563 190.778 66.641 193.014 74.6261 193.425C82.6112 193.837 90.5846 192.414 97.9344 189.266C105.284 186.118 111.815 181.328 117.027 175.264C122.238 169.2 125.991 162.022 127.998 154.283C130.004 146.543 130.212 138.446 128.603 130.614C126.995 122.781 123.614 115.422 118.72 109.099C113.826 102.776 107.549 97.6582 100.369 94.1381C93.1903 90.618 85.3002 88.7891 77.3045 88.7918Z" fill="#E0E0E0"/>
<path d="M77.3047 88.6843C77.3047 88.6843 77.6124 88.6843 78.2062 88.6843C78.8001 88.6843 79.6944 88.6843 80.8606 88.7702C84.2636 88.9645 87.6372 89.5112 90.9274 90.4015C93.3055 91.0375 95.6365 91.8383 97.9033 92.7983C100.6 93.9494 103.194 95.3256 105.659 96.9123C111.689 100.789 116.869 105.849 120.884 111.787C123.199 115.245 125.106 118.959 126.565 122.856C128.117 127.092 129.124 131.509 129.563 135.999C130.523 145.964 128.622 155.996 124.083 164.918C122.884 167.292 121.496 169.565 119.933 171.715C112.421 182.175 101.326 189.509 88.7586 192.32C76.1914 195.131 63.0292 193.225 51.7765 186.962H51.9339L33.911 194.003L33.5461 194.146L33.6749 193.774L39.4416 177.318L39.4846 177.504C33.7569 171.564 29.5119 164.356 27.0951 156.467C24.6782 148.577 24.1576 140.228 25.5757 132.1C27.8226 119.203 34.8099 107.611 45.1655 99.6025C47.2001 98.0106 49.3528 96.5756 51.6047 95.3096C52.127 94.9948 52.6637 94.723 53.186 94.4582C53.7083 94.1935 54.2234 93.9145 54.7457 93.6784C55.7903 93.2205 56.7777 92.7268 57.7793 92.3619C61.1447 91.014 64.644 90.0282 68.2181 89.4213L69.2771 89.2352L70.2859 89.1065C70.937 89.0278 71.5451 88.9419 72.1032 88.8918C73.2408 88.8203 74.1924 88.7201 74.9651 88.7058H76.718C77.1115 88.7058 77.3119 88.7058 77.3119 88.7058H76.718L74.9722 88.7702C74.1995 88.7702 73.2479 88.899 72.1103 88.9777C71.5451 89.0349 70.9441 89.1279 70.293 89.2066L69.2914 89.3426L68.2325 89.5357C64.6729 90.1664 61.1888 91.1663 57.8366 92.5193C56.842 92.8913 55.8547 93.385 54.8172 93.8429C54.3021 94.0862 53.7941 94.3652 53.2718 94.6299C52.7495 94.8947 52.1986 95.1737 51.7049 95.4814C49.4529 96.7472 47.3002 98.1822 45.2656 99.7742C39.4815 104.27 34.7078 109.932 31.2546 116.393C27.8014 122.853 25.7459 129.968 25.2216 137.275C24.6973 144.582 25.716 151.917 28.2114 158.805C30.7069 165.692 34.6233 171.978 39.7064 177.253L39.7779 177.332V177.439L34.0541 193.895L33.818 193.659L51.8337 186.626H51.9196L51.9911 186.669C63.1673 192.881 76.2354 194.772 88.7141 191.984C101.193 189.195 112.213 181.922 119.682 171.544C121.239 169.408 122.619 167.149 123.811 164.79C127.084 158.37 128.997 151.343 129.431 144.15C129.864 136.956 128.808 129.751 126.329 122.984C124.873 119.097 122.974 115.39 120.67 111.937C115.024 103.567 107.102 96.9863 97.8389 92.97C95.5802 92.0105 93.2591 91.2049 90.8916 90.5589C87.619 89.655 84.2628 89.0868 80.8749 88.8632C79.7159 88.7416 78.8215 88.7702 78.2277 88.7344C77.6338 88.6986 77.3047 88.6843 77.3047 88.6843Z" fill="#263238"/>
<path d="M71.6519 73.0872L72.3674 73.0085C75.7386 72.6315 79.1281 73.5373 81.8618 75.5458C84.5954 77.5543 86.4728 80.5182 87.1206 83.848C88.3655 90.2873 89.6605 97.3848 89.9825 100.862C90.6979 108.074 83.6219 109.999 83.6219 109.999L84.0369 112.925C84.2003 114.072 84.1354 115.24 83.8459 116.362C83.5563 117.484 83.0479 118.538 82.3498 119.463C81.6516 120.388 80.7775 121.166 79.7778 121.752C78.7781 122.338 77.6724 122.72 76.5243 122.877C74.2322 123.195 71.9073 122.595 70.0547 121.209C68.202 119.822 66.9711 117.761 66.6293 115.472L62.6155 88.7991C61.1344 81.3939 64.211 74.3607 71.6519 73.0872Z" fill="#FFBF9D"/>
<path d="M83.6787 109.984C80.3361 110.357 76.9565 109.764 73.941 108.274C73.941 108.274 76.7386 113.211 83.8504 111.759L83.6787 109.984Z" fill="#FF9A6C"/>
<path d="M85.904 90.6659C85.9388 90.934 85.8667 91.2051 85.7034 91.4206C85.5401 91.6361 85.2987 91.7788 85.0311 91.8178C84.9013 91.8435 84.7676 91.8429 84.638 91.8159C84.5083 91.7889 84.3855 91.7362 84.2767 91.6607C84.1679 91.5853 84.0754 91.4888 84.0046 91.3769C83.9339 91.265 83.8864 91.14 83.8649 91.0093C83.832 90.7415 83.9048 90.4714 84.0678 90.2564C84.2307 90.0413 84.4711 89.8982 84.7378 89.8574C84.8676 89.8327 85.001 89.8341 85.1302 89.8615C85.2594 89.8889 85.3819 89.9418 85.4905 90.017C85.5991 90.0923 85.6915 90.1884 85.7625 90.2999C85.8335 90.4113 85.8816 90.5357 85.904 90.6659Z" fill="#263238"/>
<path d="M85.9467 87.5399C85.8322 87.6902 84.9879 87.2036 83.879 87.3253C82.77 87.4469 82.0259 88.098 81.8899 87.9763C81.754 87.8547 81.8899 87.6687 82.2548 87.3682C82.6932 86.9731 83.243 86.7232 83.8289 86.6527C84.4045 86.5894 84.9855 86.7096 85.4888 86.9961C85.8608 87.2466 85.9968 87.4755 85.9467 87.5399Z" fill="#263238"/>
<path d="M75.88 91.983C75.9108 92.2507 75.8361 92.5199 75.6718 92.7336C75.5076 92.9472 75.2666 93.0886 75 93.1277C74.8706 93.1524 74.7377 93.1509 74.6089 93.1234C74.4801 93.096 74.3581 93.043 74.2501 92.9677C74.1421 92.8923 74.0503 92.7961 73.98 92.6848C73.9097 92.5734 73.8624 92.4491 73.8409 92.3192C73.8082 92.0522 73.8811 91.783 74.0443 91.5691C74.2074 91.3552 74.4477 91.2136 74.7138 91.1745C74.8438 91.1477 74.9778 91.1476 75.1078 91.1741C75.2378 91.2007 75.361 91.2533 75.4701 91.3289C75.5791 91.4045 75.6717 91.5015 75.7421 91.6139C75.8126 91.7263 75.8595 91.8519 75.88 91.983Z" fill="#263238"/>
<path d="M75.0933 88.9635C74.9788 89.1137 74.1346 88.6272 73.0327 88.7488C71.9309 88.8705 71.1725 89.5216 71.0365 89.3999C70.9006 89.2783 71.0365 89.0923 71.4014 88.7918C71.8411 88.3987 72.3902 88.149 72.9755 88.0763C73.5511 88.013 74.1321 88.1332 74.6354 88.4197C75.0074 88.6701 75.1505 88.8991 75.0933 88.9635Z" fill="#263238"/>
<path d="M80.0226 96.7197C80.5867 96.477 81.1775 96.3017 81.7827 96.1974C82.0689 96.133 82.3265 96.0471 82.3551 95.854C82.3435 95.5574 82.2438 95.271 82.0689 95.0312L80.9957 92.9777C79.4932 90.0443 78.3699 87.6188 78.4843 87.5616C78.5988 87.5043 79.9153 89.8296 81.425 92.7631C81.7899 93.4786 82.1404 94.1941 82.4696 94.838C82.6855 95.1596 82.7794 95.5479 82.7343 95.9327C82.7047 96.0365 82.652 96.1322 82.5801 96.2128C82.5082 96.2933 82.4191 96.3565 82.3193 96.3977C82.1673 96.4554 82.0086 96.4939 81.8471 96.5122C81.2504 96.6594 80.6372 96.7292 80.0226 96.7197Z" fill="#263238"/>
<path d="M74.8927 84.5993C74.814 84.9141 73.6979 84.8926 72.4172 85.1931C71.1365 85.4936 70.1276 85.9658 69.9201 85.7154C69.8343 85.5938 69.9845 85.2933 70.3709 84.957C70.8948 84.5353 71.5083 84.2393 72.1644 84.0917C72.8206 83.9441 73.5018 83.9488 74.1558 84.1056C74.6566 84.2415 74.9213 84.449 74.8927 84.5993Z" fill="#263238"/>
<path d="M85.181 84.3843C85.0093 84.6562 84.2223 84.4845 83.2993 84.5703C82.3763 84.6562 81.6322 84.9281 81.4176 84.692C81.3317 84.5703 81.4176 84.3056 81.7324 84.0266C82.1578 83.6916 82.6727 83.4898 83.2125 83.4465C83.7522 83.4033 84.2927 83.5204 84.766 83.7833C85.1095 84.0337 85.2526 84.2555 85.181 84.3843Z" fill="#263238"/>
<path d="M86.0325 80.6208C86.0325 80.6208 83.6285 76.3279 81.339 75.5194C78.5629 74.5392 77.7616 77.5514 75.1715 77.1364C72.5815 76.7214 69.9342 75.7698 67.5875 77.995C65.0189 80.4347 66.4999 81.7727 66.686 84.9923C67.4014 98.0212 65.4768 101.949 64.1174 95.9248C63.9743 95.2594 62.0568 94.9375 61.463 92.1471C60.6974 88.5268 60.032 84.0908 60.5901 81.4149C61.0337 79.154 62.1141 77.4941 64.1675 75.5766C67.4086 72.5502 72.2595 71.9492 75.6151 71.9134C78.9707 71.8776 85.7034 74.9399 86.0325 80.6208Z" fill="#263238"/>
<path d="M64.554 95.6747C64.5139 95.4112 64.4205 95.1586 64.2795 94.9323C64.1384 94.7061 63.9527 94.511 63.7338 94.359C63.5148 94.207 63.2671 94.1013 63.0058 94.0482C62.7446 93.9952 62.4753 93.996 62.2143 94.0506C60.8836 94.3296 59.4812 95.2597 59.8747 98.0215C60.5902 102.93 65.3624 101.205 65.3481 101.062C65.3338 100.919 64.8688 97.7281 64.554 95.6747Z" fill="#FFBF9D"/>
<path d="M64.0394 99.3525C64.0394 99.3525 63.9607 99.4241 63.8247 99.5099C63.6345 99.6272 63.4061 99.6657 63.1879 99.6173C62.8423 99.4607 62.5443 99.2154 62.3244 98.9062C62.1044 98.597 61.9704 98.235 61.9359 97.8572C61.866 97.4377 61.888 97.0081 62.0002 96.5979C62.0291 96.4437 62.0941 96.2984 62.1898 96.1741C62.2856 96.0497 62.4094 95.9498 62.5512 95.8825C62.6449 95.8417 62.7499 95.8352 62.848 95.8639C62.9461 95.8927 63.0309 95.955 63.0878 96.0399C63.1736 96.1687 63.1593 96.2688 63.1808 96.276C63.2022 96.2831 63.2738 96.1758 63.1808 95.9826C63.1352 95.866 63.0521 95.7679 62.9447 95.7036C62.7922 95.6261 62.6171 95.6058 62.451 95.6464C62.256 95.7152 62.0819 95.8329 61.9454 95.9882C61.8088 96.1436 61.7144 96.3313 61.6711 96.5336C61.5168 96.9943 61.4823 97.4868 61.571 97.9645C61.7427 98.9519 62.3866 99.8033 63.1235 99.9035C63.2601 99.9232 63.3994 99.9115 63.5308 99.8693C63.6622 99.8272 63.7823 99.7557 63.882 99.6602C64.0465 99.467 64.0608 99.3525 64.0394 99.3525Z" fill="#FF9A6C"/>
<path d="M86.7911 75.2191C86.0041 74.6896 84.9524 74.6682 84.1725 74.1315C82.7415 73.1513 82.5555 70.7688 80.9099 70.2322C79.9369 69.9102 78.8851 70.4254 77.862 70.3753C76.2021 70.2894 75.5009 69.0803 72.9967 69.2091C72.1216 69.2031 71.2633 69.4497 70.5247 69.9193C69.7862 70.3888 69.1987 71.0614 68.8327 71.8563C68.2185 71.6126 67.5507 71.5358 66.8972 71.6338C66.2437 71.7318 65.6278 72.0012 65.1122 72.4144C64.6712 72.7966 64.3159 73.2676 64.0693 73.7965C63.8228 74.3254 63.6905 74.9003 63.6812 75.4838C63.6812 75.4838 63.1518 75.2548 61.6564 76.5713C60.6745 77.6421 59.9975 78.9565 59.696 80.3777C59.2524 82.2164 60.1396 84.0767 61.0053 85.7581C61.4704 86.6667 62.0428 87.6612 63.0301 87.9045C64.225 88.2336 65.4771 87.2462 65.892 86.0586C66.307 84.8709 66.9581 83.6832 67.4589 82.5384C68.3247 80.5565 69.219 78.7034 68.339 77.5301C69.4443 77.0942 70.6597 77.0215 71.809 77.3226C72.961 77.6302 73.9555 78.3028 75.136 78.6391C76.3165 78.9753 77.7046 78.8752 78.42 77.9236C78.5991 78.2416 78.8476 78.5151 79.1471 78.7237C79.4466 78.9324 79.7893 79.0707 80.1496 79.1285C80.51 79.1862 80.8787 79.1619 81.2284 79.0574C81.5781 78.9528 81.8997 78.7707 82.1692 78.5246C82.6513 79.2282 83.3818 79.7232 84.214 79.9104C85.0461 80.0975 85.9183 79.9628 86.6552 79.5334C88.0647 78.5961 88.2078 76.1635 86.7911 75.2191Z" fill="#263238"/>
<path d="M60.4683 84.6279C60.7182 84.9683 60.9293 85.3354 61.0979 85.7226C61.2976 86.1146 61.5991 86.4458 61.9708 86.6813C62.4553 86.8977 63.002 86.9308 63.509 86.7743C64.0325 86.6431 64.5209 86.3989 64.94 86.0589C65.2808 85.7673 65.588 85.4385 65.8558 85.0786C66.0847 84.7214 66.3432 84.3839 66.6285 84.0698C66.4853 84.4758 66.2802 84.8571 66.0204 85.2003C65.7677 85.5956 65.462 85.9543 65.1117 86.2663C64.6621 86.6453 64.1306 86.9147 63.5591 87.0534C62.9824 87.2279 62.3609 87.1767 61.8205 86.9103C61.4161 86.6413 61.098 86.2612 60.9047 85.8156C60.7102 85.4395 60.5635 85.0405 60.4683 84.6279Z" fill="#455A64"/>
<path d="M60.8624 88.427C61.1743 88.631 61.5109 88.7945 61.864 88.9136C62.2529 89.0097 62.6578 89.0219 63.0517 88.9493C63.5301 88.8516 63.9816 88.6514 64.3753 88.3627C65.0928 87.8012 65.6891 87.1002 66.1283 86.3021C66.3008 85.9589 66.5094 85.6351 66.7507 85.3362C66.658 85.7109 66.511 86.0701 66.3143 86.4022C65.907 87.2637 65.3014 88.0165 64.5471 88.5988C64.1244 88.9123 63.6344 89.123 63.1161 89.2141C62.6849 89.283 62.2436 89.2486 61.8282 89.1139C61.0913 88.8635 60.8337 88.4342 60.8624 88.427Z" fill="#455A64"/>
<path d="M76.9753 98.7083C76.8354 99.255 76.7704 99.8182 76.7821 100.382C76.7784 100.651 76.832 100.918 76.9393 101.165C77.0466 101.412 77.2052 101.633 77.4046 101.813C77.6115 102.038 77.866 102.214 78.1494 102.328C78.4329 102.442 78.7381 102.491 79.043 102.472C79.5905 102.438 80.1078 102.21 80.5015 101.828C80.8952 101.446 81.1392 100.936 81.1894 100.39L81.3182 99.1518C80.1806 98.8871 77.0611 98.7798 76.9753 98.7083Z" fill="#FF9A6C"/>
<path d="M80.2015 102.042C80.2015 102.042 80.0513 102.042 79.808 102.107C79.4646 102.177 79.1129 102.199 78.7634 102.171C78.2583 102.118 77.7911 101.878 77.4541 101.499C77.1492 101.121 76.9528 100.668 76.886 100.188C76.8192 99.7079 76.8845 99.2185 77.0749 98.7726L76.9246 98.8584C78.0408 98.9658 79.021 99.0445 79.715 99.0945C80.0881 99.1392 80.4652 99.1392 80.8383 99.0945C80.4801 98.9838 80.1104 98.9142 79.7365 98.8871C79.021 98.794 78.0694 98.6724 76.9533 98.5508H76.8459L76.803 98.6438C76.5816 99.1395 76.5058 99.6879 76.5843 100.225C76.6629 100.762 76.8926 101.266 77.2466 101.677C77.6365 102.101 78.1748 102.357 78.7491 102.393C79.1187 102.406 79.4874 102.35 79.8366 102.228C79.9696 102.192 80.0937 102.128 80.2015 102.042Z" fill="#263238"/>
<path d="M49.4288 121.389C49.021 121.389 43.1827 123.721 41.6444 129.467C40.1061 135.212 35.9206 156.226 35.9206 156.226L31.4489 162.393C31.4489 162.393 32.8798 173.662 41.0935 171.515C41.0935 171.515 46.5597 172.474 48.3055 166.929C50.0513 161.384 53.4283 144.849 53.4283 144.849L49.4288 121.389Z" fill="#455A64"/>
<path d="M66.5074 111.766L63.4094 116.445L49.4504 121.389L53.45 161.863L51.9546 183.084C51.7543 185.903 54.101 188.129 55.0812 188.207H99.7628C100.857 188.207 102.346 185.488 102.532 183.993C102.681 182.645 102.561 181.281 102.181 179.979L99.863 171.859C100.206 176.91 98.6968 141.737 98.6395 140.456L102.017 122.362L86.133 115.923L83.6789 112.131L76.5241 117.568L66.5074 111.766Z" fill="#455A64"/>
<path d="M101.996 122.362C101.996 122.362 105.194 125.166 105.73 127.306C106.267 129.445 117.75 154.329 117.75 154.329L123.474 155.875L124.998 159.03C125.897 160.851 126.139 162.928 125.683 164.907C125.226 166.886 124.1 168.647 122.494 169.891C122.297 170.041 122.091 170.179 121.879 170.306C118.795 172.138 113.25 172.066 110.023 168.26C106.961 164.682 98.0104 151.668 98.0104 151.668V135.756L101.996 122.362Z" fill="#455A64"/>
<path d="M118.1 154.344C117.52 154.427 116.944 154.541 116.376 154.687C115.045 155.146 113.867 155.963 112.97 157.049C112.09 158.157 111.368 159.383 110.824 160.69C110.619 161.252 110.358 161.791 110.044 162.3C110.13 161.705 110.298 161.124 110.545 160.576C111.037 159.195 111.763 157.91 112.691 156.777C113.635 155.629 114.909 154.8 116.34 154.401C116.909 154.213 117.521 154.193 118.1 154.344Z" fill="#263238"/>
<path d="M38.654 157.728L30.9841 151.353L26.5768 156.297L27.1205 158.723L36.7079 167.745C38.1302 166.928 39.2023 165.616 39.7201 164.06C40.6788 161.349 38.654 157.728 38.654 157.728Z" fill="#FFBF9D"/>
<path d="M30.8982 154.63C31.2248 153.589 31.2793 152.481 31.0563 151.413C30.8334 150.344 30.3405 149.351 29.6246 148.527C27.8892 146.717 25.8595 145.215 23.6218 144.084C22.2695 143.276 19.5865 140.442 18.9926 140.986C18.6348 141.308 18.4062 141.749 18.3496 142.227C18.293 142.705 18.4122 143.187 18.685 143.583C19.3074 144.757 22.2624 146.145 22.1837 147.654C22.1746 147.802 22.1362 147.947 22.0706 148.08C22.005 148.213 21.9136 148.331 21.8017 148.429C21.6898 148.526 21.5597 148.6 21.4189 148.646C21.2781 148.693 21.1294 148.711 20.9817 148.699C20.9817 148.699 15.7515 148.427 13.5908 147.983C11.43 147.54 9.41953 147.719 9.44815 148.484C9.47677 149.25 9.83451 149.715 11.5946 150.08C13.3547 150.445 16.3382 150.674 16.4384 151.103C16.5385 151.532 15.9089 151.725 14.8643 151.532C13.8197 151.339 8.84715 150.745 8.42502 151.275C8.32639 151.408 8.25835 151.562 8.22575 151.724C8.19316 151.887 8.19679 152.055 8.2364 152.216C8.27601 152.377 8.35063 152.528 8.45495 152.657C8.55926 152.786 8.69073 152.891 8.84 152.963L9.95614 153.514C9.95614 153.514 9.16912 154.373 9.67711 154.945C10.1851 155.517 11.4801 155.503 11.4801 155.503L18.084 156.083C18.084 156.083 18.4202 156.526 18.1984 156.798C17.9766 157.07 12.8681 156.083 12.7608 156.626C12.6535 157.17 12.1741 157.399 13.6766 157.957C15.8873 158.598 18.1892 158.866 20.488 158.751C21.9189 158.544 27.7858 158.966 27.7858 158.966L30.8982 154.63Z" fill="#FFBF9D"/>
<path d="M85.7176 117.096C85.3046 117.614 84.8448 118.093 84.3439 118.527C83.471 119.385 82.269 120.58 81.0026 121.947L80.2228 122.798L80.051 122.984L79.9008 122.791C78.9206 121.532 78.0692 120.409 77.4753 119.6C77.1268 119.186 76.829 118.732 76.5881 118.248C77.0017 118.596 77.3717 118.992 77.69 119.428C78.3482 120.194 79.2354 121.281 80.2299 122.534H79.908L80.695 121.675C81.7813 120.496 82.9301 119.376 84.1364 118.319C84.6116 117.849 85.1426 117.438 85.7176 117.096Z" fill="#263238"/>
<path d="M50.3377 132.121C50.4488 132.397 50.5256 132.685 50.5666 132.98C50.6883 133.538 50.8314 134.346 50.9959 135.348C51.3179 137.358 51.6613 140.156 51.9475 143.218C52.2337 146.28 52.4412 149.107 52.5986 151.131C52.6701 152.085 52.7274 152.887 52.7703 153.535C52.8059 153.83 52.8059 154.128 52.7703 154.423C52.6745 154.14 52.6144 153.847 52.5914 153.55C52.5056 152.992 52.4054 152.176 52.2838 151.16C52.0548 149.142 51.7973 146.345 51.5111 143.254C51.2249 140.163 50.9315 137.38 50.6811 135.384C50.5666 134.454 50.4665 133.652 50.3878 133.001C50.338 132.711 50.3212 132.415 50.3377 132.121Z" fill="#263238"/>
<path d="M98.8752 130.712C98.9605 131.064 99.0109 131.423 99.0255 131.785C99.0898 132.5 99.1686 133.495 99.2329 134.74C99.3689 137.244 99.4404 140.7 99.4547 144.506V157.227C99.4776 157.591 99.4608 157.955 99.4047 158.315C99.3318 157.959 99.2935 157.597 99.2902 157.234C99.2401 156.519 99.1972 155.524 99.1542 154.279C99.0684 151.775 99.0398 148.327 99.0255 144.513C99.0111 140.7 99.0255 137.251 98.9324 134.754C98.9324 133.574 98.8752 132.608 98.8609 131.799C98.827 131.437 98.8318 131.073 98.8752 130.712Z" fill="#263238"/>
<path d="M44.0416 166.5C43.8499 165.795 43.7065 165.078 43.6124 164.354C43.319 162.634 42.759 160.971 41.9525 159.424C41.1299 157.895 39.8891 156.632 38.3751 155.782C37.7212 155.476 37.0471 155.216 36.3574 155.002C36.5551 154.956 36.7607 154.956 36.9584 155.002C37.4965 155.094 38.0191 155.26 38.511 155.496C40.1366 156.304 41.4716 157.596 42.3317 159.195C43.163 160.781 43.6988 162.505 43.9129 164.282C44.0496 165.013 44.0929 165.758 44.0416 166.5Z" fill="#263238"/>
<path d="M46.0309 158.122C45.945 158.222 44.7072 156.948 42.7039 156.283C40.7006 155.618 38.9548 155.832 38.9476 155.696C40.2288 155.317 41.6006 155.383 42.8398 155.882C44.9648 156.598 46.131 158.079 46.0309 158.122Z" fill="#263238"/>
<path d="M77.5119 186.949C77.4777 186.712 77.4633 186.472 77.469 186.233C77.469 185.739 77.469 185.081 77.4189 184.244C77.4189 182.477 77.3331 179.951 77.2758 176.932C77.1327 170.722 76.9324 162.215 76.7106 152.806C76.4888 143.397 76.3672 134.848 76.3743 128.673C76.3743 125.582 76.3743 123.085 76.4459 121.354C76.4459 120.524 76.4888 119.858 76.5103 119.372C76.5046 119.132 76.519 118.893 76.5532 118.656C76.5747 118.894 76.5747 119.134 76.5532 119.372C76.5532 119.865 76.5532 120.524 76.5532 121.361C76.5532 123.128 76.5532 125.611 76.6176 128.673C76.682 134.848 76.8608 143.376 77.0755 152.799C77.2901 162.222 77.469 170.75 77.5191 176.932C77.5191 180.016 77.5191 182.52 77.5191 184.244C77.5191 185.081 77.5191 185.739 77.5191 186.233C77.5366 186.471 77.5342 186.711 77.5119 186.949Z" fill="#263238"/>
<path d="M38.282 157.442C38.7848 157.802 39.1745 158.299 39.4053 158.873C39.7103 159.471 39.9294 160.109 40.0564 160.769C40.1825 161.582 40.1825 162.41 40.0564 163.223C39.967 164.048 39.7244 164.848 39.3409 165.584C39.0082 166.177 38.5519 166.692 38.003 167.094C37.5213 167.501 36.9095 167.722 36.2787 167.716C36.8249 167.494 37.3415 167.206 37.817 166.858C38.3019 166.464 38.7033 165.977 38.9975 165.427C39.3366 164.727 39.5543 163.974 39.6414 163.201C39.7525 162.428 39.7525 161.643 39.6414 160.869C39.5376 160.237 39.3574 159.619 39.1048 159.03C38.8573 158.487 38.5827 157.957 38.282 157.442Z" fill="#263238"/>
<path d="M91.6636 149.335C91.3285 149.57 90.9743 149.776 90.6047 149.951C89.8892 150.33 88.8947 150.852 87.6283 151.482C85.0955 152.741 81.561 154.401 77.6116 156.082C73.6622 157.764 69.9775 159.152 67.3159 160.089C65.9779 160.561 64.8976 160.926 64.1463 161.162C63.7621 161.31 63.3643 161.421 62.9586 161.491C63.323 161.304 63.7009 161.144 64.0891 161.012L67.2086 159.81C69.8487 158.801 73.4761 157.37 77.4399 155.696C81.4036 154.022 84.9595 152.405 87.521 151.217L90.5546 149.786C90.9101 149.603 91.2813 149.452 91.6636 149.335Z" fill="#263238"/>
<path d="M19.1433 153.986C17.6138 154.195 16.0656 154.229 14.5285 154.086C12.9846 154.078 11.4464 153.898 9.94226 153.55C9.94226 153.428 12.01 153.55 14.5499 153.657C17.0899 153.764 19.1433 153.865 19.1433 153.986Z" fill="#FF9A6C"/>
<path d="M23.8434 153.636C23.8434 153.679 23.3497 153.6 22.763 153.106C22.3849 152.777 22.0843 152.369 21.8826 151.91C21.681 151.451 21.5834 150.953 21.5968 150.452C21.6458 149.924 21.7416 149.403 21.883 148.892C21.9916 148.498 22.0446 148.091 22.0404 147.683C22.0086 147.31 21.9218 146.943 21.7828 146.595C21.7828 146.545 22.2336 146.882 22.3409 147.661C22.3861 148.099 22.362 148.541 22.2693 148.971C22.1477 149.465 22.064 149.967 22.0189 150.473C22.0074 151.371 22.3492 152.237 22.9705 152.884C23.4499 153.392 23.872 153.571 23.8434 153.636Z" fill="#FF9A6C"/>
<path d="M76.0806 117.841C75.8407 118.667 75.5295 119.472 75.1505 120.245L74.6282 121.44C74.4387 121.912 74.2213 122.373 73.9771 122.82C73.889 122.969 73.7592 123.087 73.6041 123.163C73.4489 123.238 73.2751 123.265 73.1043 123.243C72.8035 123.161 72.5232 123.017 72.2815 122.82L70.8505 121.819C68.8543 120.445 67.0585 119.179 65.7706 118.241C65.0484 117.775 64.3685 117.246 63.7386 116.66C64.5093 117.044 65.2464 117.491 65.9423 117.998C67.2731 118.871 69.0904 120.094 71.0938 121.475L72.5247 122.484C72.7174 122.645 72.9381 122.769 73.1758 122.849C73.2744 122.861 73.3743 122.842 73.4624 122.796C73.5505 122.751 73.6227 122.679 73.6695 122.591C74.1345 121.74 74.5281 120.817 74.8858 120.123C75.2234 119.332 75.6229 118.569 76.0806 117.841Z" fill="#263238"/>
<path d="M119.453 157.077L127.659 152.233L131.616 157.077L130.793 159.424L120.218 167.294C118.914 166.217 118.043 164.705 117.764 163.037C117.228 160.082 119.453 157.077 119.453 157.077Z" fill="#FFBF9D"/>
<path d="M127.48 154.924C127.282 153.852 127.36 152.747 127.705 151.714C128.05 150.68 128.652 149.751 129.455 149.014C131.39 147.418 133.582 146.163 135.937 145.3C137.368 144.656 140.366 142.152 140.902 142.76C141.217 143.122 141.391 143.586 141.391 144.066C141.391 144.546 141.217 145.01 140.902 145.372C140.144 146.474 135.801 148.127 136.402 149.515C136.652 150.087 138.019 150.187 138.019 150.187C140.49 150.362 142.969 150.412 145.446 150.337C147.642 150.151 149.617 150.566 149.502 151.325C149.388 152.083 148.973 152.498 147.156 152.648C145.338 152.799 142.376 152.648 142.226 153.106C142.076 153.564 142.677 153.822 143.743 153.714C144.809 153.607 149.803 153.636 150.182 154.201C150.266 154.345 150.318 154.506 150.332 154.672C150.346 154.838 150.324 155.005 150.265 155.161C150.207 155.317 150.115 155.458 149.995 155.574C149.876 155.691 149.732 155.779 149.574 155.832L148.401 156.247C148.401 156.247 149.116 157.199 148.515 157.728C147.914 158.258 146.655 158.072 146.655 158.072L140.022 157.878C140.022 157.878 139.643 158.279 139.836 158.551C140.03 158.823 145.217 158.451 145.253 159.016C145.288 159.581 145.746 159.853 144.194 160.232C141.922 160.612 139.604 160.612 137.332 160.232C135.901 159.853 130.056 159.588 130.056 159.588L127.48 154.924Z" fill="#FFBF9D"/>
<path d="M121.714 168.16C121.535 168.145 121.362 168.091 121.206 168.003C120.757 167.808 120.336 167.556 119.954 167.251C118.655 166.25 117.766 164.809 117.455 163.199C117.144 161.589 117.432 159.921 118.265 158.508C118.509 158.084 118.804 157.692 119.145 157.342C119.389 157.106 119.546 156.991 119.567 157.013C119.589 157.034 119.067 157.585 118.53 158.651C117.81 160.026 117.58 161.605 117.878 163.128C118.176 164.651 118.984 166.027 120.168 167.029C121.041 167.809 121.75 168.088 121.714 168.16Z" fill="#263238"/>
<path d="M137.469 147.711C137.512 147.761 137.161 148.105 136.703 148.706C136.443 149.047 136.264 149.444 136.181 149.865C136.081 150.344 136.088 150.909 136.002 151.518C135.929 152.045 135.752 152.553 135.48 153.011C135.209 153.469 134.849 153.869 134.421 154.186C134.092 154.478 133.678 154.656 133.24 154.694C133.24 154.623 133.67 154.451 134.235 153.979C134.967 153.336 135.446 152.453 135.587 151.489C135.628 150.927 135.7 150.369 135.802 149.815C135.913 149.343 136.142 148.907 136.467 148.548C137.018 147.912 137.433 147.661 137.469 147.711Z" fill="#FF9A6C"/>
<path d="M138.649 155.339C138.649 155.217 140.86 155.339 143.564 155.532C146.269 155.725 148.458 156.033 148.451 156.154C146.808 156.228 145.161 156.161 143.529 155.954C141.888 155.889 140.255 155.683 138.649 155.339Z" fill="#FF9A6C"/>
<path d="M54.7023 188.208C54.7023 188.208 64.0035 193.86 78.313 193.388C92.6226 192.915 99.7416 188.208 99.7416 188.208H54.7023Z" fill="#263238"/>
<path d="M231.625 89.7145C240.195 80.486 244.981 68.3731 245.036 55.7795C245.09 43.186 240.407 31.0323 231.917 21.7305C223.428 12.4288 211.751 6.65872 199.205 5.56552C186.659 4.47233 174.16 8.13588 164.189 15.8291C154.219 23.5224 147.505 34.683 145.38 47.0962C143.255 59.5093 145.875 72.2676 152.719 82.8391C159.563 93.4106 170.132 101.023 182.327 104.165C194.523 107.306 207.454 105.749 218.554 99.8001C224.619 102.225 237.783 107.314 237.783 107.314L231.625 89.7145Z" fill="#FAFAFA"/>
<path d="M231.625 89.7143C231.625 89.7143 231.772 90.1083 232.046 90.8698L233.255 94.2561C234.304 97.2351 235.853 101.603 237.857 107.287L237.91 107.454L237.757 107.388L218.514 99.9001H218.607C212.591 103.114 205.987 105.08 199.193 105.679C192.398 106.278 185.552 105.498 179.066 103.387C176.552 102.574 174.11 101.553 171.766 100.334C169.331 99.0926 167.003 97.6516 164.806 96.0261C160.203 92.6075 156.205 88.4421 152.977 83.703C147.83 76.0864 144.86 67.2088 144.388 58.028C144.233 54.856 144.371 51.6766 144.802 48.5301C146.264 37.9045 151.075 28.0216 158.537 20.3161C165.998 12.6106 175.72 7.48362 186.293 5.67951C196.866 3.8754 207.739 5.48806 217.333 10.2833C226.928 15.0786 234.744 22.807 239.647 32.3464C241.503 35.9158 242.911 39.7003 243.842 43.6142C245.443 50.3609 245.649 57.3635 244.449 64.1929C242.969 72.6295 239.336 80.5412 233.903 87.1628C233.195 88.0511 232.607 88.6723 232.22 89.0998L231.625 89.7677L232.186 89.0998C232.567 88.6656 233.155 88.0244 233.843 87.1361C235.909 84.5753 237.721 81.8194 239.253 78.9073C241.679 74.3009 243.367 69.3425 244.256 64.213C245.431 57.4104 245.204 50.4394 243.588 43.7278C242.657 39.8321 241.25 36.0657 239.4 32.5133C236.264 26.4432 231.921 21.0777 226.637 16.746C221.353 12.4143 215.24 9.20764 208.673 7.32276C202.106 5.43788 195.223 4.91451 188.446 5.78473C181.669 6.65496 175.142 8.90045 169.264 12.3835C163.386 15.8665 158.282 20.5136 154.264 26.0398C150.246 31.5659 147.399 37.8547 145.899 44.5202C144.398 51.1858 144.275 58.0876 145.537 64.8024C146.799 71.5173 149.42 77.9035 153.238 83.5694C156.443 88.2774 160.412 92.4175 164.98 95.8191C167.164 97.436 169.476 98.8724 171.893 100.114C174.221 101.324 176.645 102.34 179.14 103.153C185.587 105.279 192.399 106.073 199.162 105.489C205.926 104.905 212.5 102.953 218.487 99.7532H218.534H218.581L237.797 107.301L237.697 107.401C235.693 101.71 234.197 97.3019 233.161 94.3096C232.647 92.8268 232.26 91.6913 231.993 90.9232C231.725 90.1551 231.625 89.7143 231.625 89.7143Z" fill="#263238"/>
<path d="M224.305 21.3326C224.887 20.8303 225.349 20.2046 225.659 19.5009C225.969 18.7972 226.118 18.0334 226.095 17.2649C225.961 15.7354 224.645 14.286 223.116 14.3595C223.367 13.6456 223.396 12.8727 223.201 12.1417C223.006 11.4107 222.594 10.7557 222.021 10.2622C221.447 9.76875 220.738 9.45977 219.986 9.37568C219.234 9.29158 218.474 9.43628 217.806 9.79087C217.862 9.37222 217.784 8.94658 217.584 8.57472C217.384 8.20287 217.071 7.90383 216.69 7.72031C216.022 7.34627 213.491 7.2728 212.683 8.72219L208.936 20.8917C208.153 21.5936 207.518 22.4432 207.065 23.3916C206.612 24.34 206.351 25.3686 206.297 26.4182C206.243 27.4678 206.397 28.5178 206.75 29.5077C207.103 30.4976 207.649 31.4079 208.355 32.1863C207.891 32.8183 207.626 33.5743 207.594 34.3576C207.562 35.1409 207.765 35.9159 208.176 36.5835C208.587 37.2511 209.187 37.781 209.901 38.1054C210.615 38.4299 211.409 38.534 212.182 38.4047C212.226 38.9391 212.386 39.4575 212.649 39.9247C212.912 40.3918 213.273 40.7967 213.707 41.1116C214.141 41.4265 214.638 41.6441 215.164 41.7494C215.69 41.8547 216.232 41.8454 216.754 41.722C217.276 41.5986 217.765 41.364 218.188 41.0343C218.61 40.7046 218.957 40.2876 219.204 39.8116C219.451 39.3356 219.593 38.812 219.619 38.2764C219.645 37.7408 219.555 37.2059 219.355 36.7082C221.105 37.4162 223.196 36.0937 223.83 34.3103C224.465 32.527 223.957 30.5232 223.082 28.84C223.868 28.6401 224.578 28.215 225.126 27.617C225.673 27.019 226.034 26.274 226.164 25.4737C226.294 24.6734 226.187 23.8526 225.857 23.1122C225.526 22.3717 224.987 21.7439 224.305 21.3059V21.3326Z" fill="#263238"/>
<path d="M214.794 10.8596C216.47 11.5275 216.724 12.9435 216.998 14.1191C217.599 16.6639 216.483 20.2907 214.941 22.3947C213.398 24.4986 211.795 25.5139 209.19 25.7343C209.377 21.7713 209.562 17.8127 209.744 13.8586L214.794 10.8596Z" fill="#BF83FF"/>
<path d="M215.295 17.7324C215.913 16.9923 216.252 16.0585 216.252 15.0941C216.252 14.1296 215.913 13.1958 215.295 12.4558C216.109 11.5608 215.963 10.0913 215.241 9.11616C214.463 8.18568 213.486 7.4416 212.382 6.93873C212.123 5.54558 211.339 4.30503 210.192 3.47253C209.045 2.64003 207.623 2.27895 206.218 2.46365C204.935 0.266182 201.909 -0.274835 199.425 0.272862C198.826 0.449847 198.206 0.542027 197.581 0.54671C197.131 0.479545 196.685 0.385874 196.245 0.266184C193.788 -0.241438 191.203 1.34154 190.074 3.6058C189.921 3.97658 189.719 4.32488 189.473 4.64108C189.083 4.9945 188.649 5.29744 188.184 5.54277C187.711 5.85876 187.312 6.27287 187.013 6.75693C186.715 7.241 186.524 7.78368 186.454 8.34805C186.347 9.30986 186.587 10.3518 186.12 11.2001C185.886 11.6276 185.499 11.9548 185.305 12.4023C184.757 13.6914 186.133 15.1475 185.766 16.5034C185.692 16.7839 185.545 17.0311 185.452 17.3049C185.242 17.8633 185.247 18.4797 185.465 19.0348C185.695 19.4257 185.849 19.8562 185.919 20.3039C185.871 20.6438 185.779 20.976 185.646 21.2924C185.425 22.1006 186.981 25.3868 187.649 25.881L208.842 27.4907C209.664 27.3735 210.428 27.0019 211.027 26.428C211.626 25.8541 212.03 25.1069 212.182 24.2914C212.19 24.0191 212.275 23.7547 212.429 23.5299C212.605 23.3744 212.813 23.2583 213.037 23.1893C214.446 22.5214 214.74 20.6913 214.7 19.135C214.685 18.9106 214.705 18.6851 214.76 18.4671C214.889 18.1898 215.07 17.9402 215.295 17.7324Z" fill="#263238"/>
<path d="M209.217 17.3451C209.336 15.3054 208.902 13.2714 207.962 11.4576C207.021 9.64373 205.609 8.11724 203.873 7.03904C202.223 6.12671 200.406 5.55651 198.53 5.36255C196.814 5.08073 195.053 5.32767 193.48 6.07055C192.292 6.26425 187.743 9.89107 187.235 14.1324C186.661 18.8412 186.153 24.6121 186.507 28.1588C187.229 35.3189 192.612 36.5345 192.612 36.5345L191.276 48.2566L201.148 57.5407L206.144 44.1822L209.217 17.3451Z" fill="#AE7461"/>
<path d="M188.851 20.411C188.838 20.648 188.917 20.881 189.071 21.0615C189.225 21.2419 189.443 21.3558 189.68 21.3795C189.795 21.3944 189.911 21.3863 190.023 21.3557C190.135 21.325 190.24 21.2724 190.331 21.201C190.423 21.1295 190.499 21.0405 190.555 20.9393C190.612 20.8381 190.648 20.7267 190.661 20.6114C190.678 20.3746 190.601 20.1407 190.448 19.9597C190.294 19.7787 190.076 19.665 189.84 19.6429C189.724 19.627 189.607 19.6344 189.494 19.6646C189.381 19.6948 189.276 19.7473 189.184 19.8188C189.092 19.8904 189.015 19.9796 188.958 20.0813C188.901 20.183 188.864 20.2951 188.851 20.411Z" fill="#263238"/>
<path d="M188.705 16.9442C188.811 17.0711 189.526 16.5969 190.508 16.657C191.49 16.7171 192.171 17.2448 192.285 17.1312C192.398 17.0177 192.238 16.8641 191.937 16.6169C191.532 16.2971 191.037 16.1126 190.521 16.0893C190.013 16.0598 189.509 16.1907 189.079 16.4633C188.765 16.677 188.651 16.8908 188.705 16.9442Z" fill="#263238"/>
<path d="M193.988 24.9997C193.48 24.8111 192.95 24.6854 192.412 24.6257C192.164 24.5856 191.931 24.5188 191.897 24.3452C191.895 24.0876 191.967 23.8348 192.104 23.6171C192.378 23.0227 192.659 22.4082 192.953 21.7536C194.135 19.0819 195.01 16.9179 194.903 16.8711C194.796 16.8244 193.747 18.935 192.565 21.5867C192.285 22.2546 192.011 22.8624 191.75 23.4635C191.573 23.7533 191.507 24.0972 191.563 24.432C191.593 24.5229 191.644 24.6057 191.711 24.674C191.778 24.7423 191.86 24.7943 191.951 24.8261C192.087 24.8685 192.229 24.8954 192.371 24.9062C192.903 25.0109 193.447 25.0424 193.988 24.9997Z" fill="#263238"/>
<path d="M192.612 36.5411C195.959 36.7785 199.307 36.0849 202.284 34.5374C202.284 34.5374 199.492 39.4065 192.412 38.3378L192.612 36.5411Z" fill="#6F4439"/>
<path d="M189.573 13.0704C189.72 13.3176 190.481 13.1974 191.349 13.3243C192.218 13.4512 192.932 13.7183 193.139 13.5113C193.233 13.4178 193.139 13.1773 192.859 12.9168C192.462 12.6003 191.982 12.4055 191.476 12.3558C190.971 12.2862 190.457 12.3627 189.994 12.5762C189.64 12.7365 189.506 12.9502 189.573 13.0704Z" fill="#263238"/>
<path d="M199.398 21.4195C199.379 21.657 199.268 21.8776 199.088 22.0338C198.908 22.1899 198.674 22.2692 198.436 22.2544C198.32 22.2518 198.206 22.2262 198.1 22.179C197.994 22.1317 197.898 22.0639 197.818 21.9793C197.739 21.8948 197.677 21.7953 197.636 21.6865C197.595 21.5778 197.577 21.4621 197.581 21.346C197.602 21.1092 197.713 20.8896 197.893 20.7338C198.073 20.578 198.306 20.4981 198.543 20.5111C198.659 20.5137 198.773 20.5394 198.88 20.5866C198.986 20.6338 199.081 20.7017 199.161 20.7862C199.24 20.8708 199.302 20.9703 199.343 21.079C199.384 21.1878 199.402 21.3035 199.398 21.4195Z" fill="#263238"/>
<path d="M202.07 18.0999C201.95 18.2068 201.308 17.6324 200.333 17.5389C199.358 17.4453 198.597 17.8728 198.503 17.7392C198.41 17.6056 198.59 17.4787 198.924 17.285C199.372 17.0305 199.888 16.923 200.4 16.9778C200.907 17.0233 201.387 17.2292 201.769 17.5656C202.05 17.8261 202.163 18.0532 202.07 18.0999Z" fill="#263238"/>
<path d="M202.33 14.2658C202.116 14.4661 201.388 14.1656 200.487 14.0721C199.585 13.9785 198.797 14.0721 198.643 13.8116C198.577 13.6913 198.717 13.4776 199.077 13.3039C199.557 13.0831 200.091 13.0066 200.614 13.0835C201.138 13.1344 201.635 13.3388 202.043 13.6713C202.344 13.9251 202.43 14.1656 202.33 14.2658Z" fill="#263238"/>
<path d="M207.693 23.9978C207.693 23.4701 208.401 22.2612 208.929 22.2077C210.338 22.0742 212.836 22.328 212.656 25.868C212.416 30.7037 207.606 29.4614 207.606 29.3211C207.606 29.1809 207.58 25.8212 207.693 23.9978Z" fill="#AE7461"/>
<path d="M209.029 27.6177C209.029 27.6177 209.11 27.6845 209.25 27.7579C209.446 27.8515 209.67 27.8682 209.878 27.8047C210.2 27.6217 210.468 27.3566 210.655 27.0363C210.841 26.716 210.94 26.3519 210.94 25.9813C210.973 25.566 210.914 25.1484 210.766 24.759C210.727 24.6073 210.652 24.4674 210.548 24.3511C210.443 24.2347 210.312 24.1455 210.165 24.091C210.069 24.0606 209.966 24.0646 209.874 24.1025C209.781 24.1403 209.704 24.2096 209.657 24.2981C209.584 24.425 209.61 24.5252 209.584 24.5319C209.557 24.5385 209.484 24.445 209.53 24.2513C209.565 24.1333 209.638 24.0301 209.737 23.9575C209.805 23.9084 209.882 23.8741 209.964 23.8568C210.046 23.8396 210.13 23.8397 210.212 23.8573C210.409 23.9053 210.59 24.0038 210.738 24.1432C210.885 24.2826 210.994 24.4579 211.053 24.6521C211.234 25.0729 211.31 25.5314 211.274 25.9879C211.193 26.9564 210.652 27.8448 209.938 27.9917C209.805 28.0232 209.668 28.0245 209.535 27.9956C209.402 27.9667 209.277 27.9083 209.17 27.8247C209.036 27.7179 209.016 27.631 209.029 27.6177Z" fill="#6F4439"/>
<path d="M186.133 14.1322C186.623 13.92 187.043 13.5722 187.342 13.1296C187.642 12.6871 187.808 12.1683 187.823 11.6342C188.491 11.8613 189.159 11.0665 189.58 10.5321C190 9.9978 190.468 9.73731 190.481 9.05603C190.469 8.92326 190.492 8.7896 190.548 8.66863C190.689 8.50934 190.884 8.40912 191.096 8.3881C191.621 8.25139 192.103 7.98537 192.498 7.61434C192.894 7.24331 193.19 6.7791 193.36 6.26411C194.381 6.78317 195.515 7.04024 196.66 7.01218C196.89 7.39224 197.213 7.70748 197.598 7.92822C197.984 8.14895 198.419 8.26793 198.864 8.27394C199.308 8.27995 199.746 8.17281 200.138 7.96259C200.529 7.75236 200.861 7.44599 201.101 7.07229C201.245 7.38079 201.453 7.65454 201.713 7.87476C201.972 8.09497 202.276 8.25643 202.604 8.34803C203.258 8.51863 203.933 8.59289 204.608 8.56844C204.444 9.21588 204.519 9.9008 204.82 10.4972C205.12 11.0936 205.626 11.5614 206.244 11.8145C206.418 11.8813 206.612 11.9415 206.678 12.1084C206.698 12.1997 206.699 12.294 206.682 12.3857C206.665 12.4775 206.63 12.5649 206.578 12.6428C206.47 12.9155 206.417 13.2073 206.424 13.5008C206.43 13.7942 206.496 14.0833 206.617 14.3508C206.738 14.6183 206.912 14.8586 207.128 15.0575C207.344 15.2563 207.597 15.4096 207.874 15.5082C207.681 15.6607 207.525 15.855 207.417 16.0766C207.31 16.2981 207.254 16.5411 207.254 16.7872C207.254 17.0334 207.31 17.2764 207.417 17.4979C207.525 17.7194 207.681 17.9138 207.874 18.0663C208.041 18.1799 208.268 18.3201 208.228 18.5272C208.206 18.6034 208.165 18.6726 208.108 18.7276C207.681 19.1523 207.385 19.6898 207.253 20.2771C207.202 20.5702 207.265 20.8715 207.429 21.1196C207.593 21.3678 207.845 21.5442 208.134 21.613C207.96 21.7298 207.811 21.8805 207.697 22.056C207.582 22.2316 207.504 22.4285 207.467 22.6349C207.433 23.0557 207.834 23.5099 208.235 23.383C208.408 23.3229 210.84 22.9956 210.953 22.8553C212.429 21.0786 210.833 18.9279 210.826 16.6169C210.783 14.2878 210.198 12.0008 209.116 9.93769C208.688 9.06459 208.147 8.25164 207.507 7.5198C206.741 6.72209 205.887 6.014 204.962 5.40917C203.824 4.51863 202.549 3.81723 201.188 3.33193C198.617 2.56382 195.845 3.33193 193.353 4.34049C192.389 4.68282 191.475 5.15229 190.635 5.73645C189.686 6.50853 188.881 7.44243 188.257 8.49497C187.25 9.95333 186.557 11.6044 186.22 13.3441" fill="#263238"/>
<path d="M185.305 12.3891C185.375 12.2051 185.474 12.0337 185.599 11.8815C185.712 11.7279 185.866 11.5542 186.013 11.3204C186.184 11.0513 186.296 10.7483 186.34 10.4321C186.391 10.0357 186.406 9.63564 186.387 9.23652C186.365 8.75433 186.408 8.27145 186.514 7.80048C186.654 7.27043 186.902 6.77485 187.242 6.34441C187.434 6.09365 187.659 5.86912 187.91 5.67649C188.159 5.47996 188.425 5.30563 188.704 5.15551C188.992 4.9988 189.253 4.79825 189.479 4.56106C189.686 4.29059 189.857 3.99418 189.987 3.67939C190.664 2.28572 191.815 1.17793 193.233 0.553517C193.614 0.387098 194.013 0.263877 194.422 0.186157C194.845 0.108101 195.275 0.0834169 195.704 0.112685C195.918 0.112685 196.132 0.1728 196.372 0.206197L197.007 0.359819C197.426 0.476573 197.865 0.50388 198.296 0.439969C198.737 0.379856 199.171 0.246271 199.632 0.16612C200.087 0.0720861 200.55 0.0184427 201.014 0.0058177C201.487 -0.0117806 201.961 0.0105643 202.43 0.0726115C202.907 0.145665 203.377 0.261917 203.833 0.419932C204.776 0.745258 205.593 1.35711 206.171 2.16989L206.338 2.4237L206.264 2.38362C207.688 2.19881 209.129 2.56656 210.291 3.4113C211.452 4.25603 212.246 5.51358 212.509 6.9255L212.469 6.87207C213.038 7.16664 213.587 7.49912 214.112 7.86727C214.639 8.22226 215.093 8.67587 215.448 9.20312C215.78 9.71016 215.963 10.3004 215.976 10.9063C216.006 11.4944 215.807 12.0713 215.421 12.516V12.4359C216.029 13.146 216.369 14.0462 216.383 14.9807C216.415 15.8216 216.181 16.6511 215.715 17.3518C215.611 17.5136 215.495 17.6677 215.368 17.8126C215.24 17.9442 215.12 18.0824 215.007 18.2268C214.906 18.3628 214.837 18.5206 214.807 18.6876C214.794 18.8543 214.794 19.0219 214.807 19.1886C214.826 19.8028 214.772 20.4171 214.647 21.0187C214.546 21.4955 214.356 21.9489 214.086 22.3545C213.879 22.6598 213.604 22.9135 213.284 23.0959C213.03 23.2429 212.803 23.2963 212.676 23.3764C212.608 23.4141 212.545 23.4613 212.489 23.5167C212.536 23.4544 212.595 23.4021 212.663 23.3631C212.79 23.2763 213.017 23.2161 213.271 23.0625C213.579 22.8787 213.841 22.6275 214.039 22.3278C214.3 21.9196 214.483 21.4667 214.58 20.992C214.698 20.394 214.745 19.7842 214.72 19.1752C214.707 19.004 214.707 18.8321 214.72 18.6609C214.75 18.4793 214.824 18.3075 214.934 18.16C215.047 18.0115 215.167 17.8688 215.294 17.7325C215.423 17.595 215.537 17.4451 215.635 17.285C216.073 16.5959 216.289 15.7896 216.256 14.974C216.237 14.0649 215.902 13.191 215.308 12.5027L215.274 12.4559L215.308 12.4158C215.673 11.9983 215.861 11.4538 215.829 10.8996C215.812 10.3159 215.637 9.7478 215.321 9.25655C214.976 8.75624 214.541 8.32379 214.039 7.98082C213.496 7.62014 212.929 7.29657 212.342 7.01233C212.081 5.63977 211.306 4.41856 210.175 3.59805C209.045 2.77754 207.643 2.41962 206.257 2.59736H206.171V2.55729L206.01 2.31683C205.452 1.52759 204.66 0.934017 203.746 0.620308C203.3 0.460673 202.839 0.346544 202.37 0.279666C201.91 0.215255 201.445 0.190676 200.981 0.206197C200.532 0.22042 200.085 0.274059 199.645 0.366497C199.197 0.446648 198.763 0.573553 198.309 0.640345C198.087 0.659574 197.863 0.659574 197.641 0.640345C197.416 0.623576 197.192 0.58556 196.973 0.526799L196.305 0.373177C196.098 0.373177 195.891 0.293025 195.678 0.279666C195.262 0.251509 194.845 0.273939 194.435 0.34646C194.036 0.421839 193.646 0.540541 193.273 0.700458C192.553 1.00848 191.898 1.45046 191.343 2.00291C190.821 2.50855 190.393 3.10345 190.08 3.75955C189.942 4.08399 189.762 4.38929 189.546 4.66792C189.311 4.9103 189.041 5.11528 188.744 5.27573C188.468 5.42219 188.204 5.59201 187.956 5.78335C187.725 5.96921 187.516 6.18225 187.335 6.41788C186.996 6.84263 186.75 7.33426 186.614 7.86059C186.506 8.32443 186.461 8.80073 186.48 9.27659C186.494 9.67853 186.471 10.0809 186.413 10.4789C186.368 10.8008 186.251 11.1087 186.073 11.3806C185.913 11.6143 185.759 11.7947 185.639 11.9416C185.551 12.0543 185.471 12.1726 185.398 12.2956C185.369 12.329 185.338 12.3603 185.305 12.3891Z" fill="#455A64"/>
<path d="M204.007 1.255C204.007 1.255 203.887 1.17485 203.66 1.04127C203.337 0.862509 202.987 0.738375 202.624 0.673908C202.088 0.572309 201.534 0.618484 201.021 0.807493C200.395 1.04267 199.859 1.47067 199.492 2.02979C199.382 2.1979 199.29 2.37698 199.218 2.56413C199.181 2.64374 199.162 2.73033 199.162 2.81794C199.162 2.90556 199.181 2.99214 199.218 3.07175L199.325 3.24541L199.138 3.17862C198.643 3.00933 198.101 3.04049 197.628 3.26545C197.254 3.44787 196.947 3.74504 196.753 4.11371C196.626 4.35697 196.547 4.6222 196.519 4.89518C196.519 5.08888 196.519 5.19575 196.519 5.19575C196.519 5.19575 196.519 5.19575 196.519 5.12228C196.512 5.04676 196.512 4.9707 196.519 4.89518C196.524 4.60763 196.592 4.32466 196.72 4.06696C196.914 3.67267 197.23 3.35169 197.622 3.1519C198.123 2.90668 198.701 2.8683 199.231 3.04504L199.144 3.14522C199.098 3.04695 199.075 2.93979 199.075 2.8313C199.075 2.72282 199.098 2.61566 199.144 2.51738C199.22 2.31854 199.316 2.12824 199.432 1.94964C199.815 1.365 200.378 0.919896 201.035 0.680589C201.571 0.494286 202.148 0.455077 202.704 0.567041C203.075 0.643668 203.429 0.788627 203.746 0.994514C203.833 1.04881 203.915 1.10907 203.993 1.17485C203.987 1.22161 204.014 1.24832 204.007 1.255Z" fill="#455A64"/>
<path d="M211.514 7.27251C211.514 7.27251 211.461 7.3393 211.334 7.43949C211.157 7.57449 210.967 7.69088 210.766 7.78681C210.459 7.9314 210.124 8.00882 209.784 8.01391C209.352 8.0225 208.932 7.86744 208.609 7.57976H208.715L208.562 7.77345L208.388 7.95379C208.029 8.27305 207.598 8.50201 207.132 8.62172C206.753 8.71974 206.359 8.74468 205.97 8.69519C205.712 8.65674 205.46 8.58255 205.222 8.47477C205.132 8.43783 205.048 8.3859 204.975 8.32115C205.299 8.45264 205.638 8.54242 205.984 8.58832C206.358 8.62447 206.737 8.59049 207.099 8.48813C207.543 8.36368 207.951 8.13464 208.288 7.82021L208.455 7.64655L208.595 7.47289L208.649 7.4061L208.709 7.45953C209.003 7.72664 209.387 7.87431 209.784 7.87364C210.108 7.87582 210.429 7.80982 210.726 7.67995C211.234 7.47289 211.514 7.25247 211.514 7.27251Z" fill="#455A64"/>
<path d="M213.799 11.9082C213.799 11.9082 213.799 11.9416 213.799 12.0018C213.769 12.0838 213.726 12.1604 213.672 12.2288C213.471 12.4807 213.182 12.6476 212.864 12.6964C212.394 12.7537 211.918 12.6724 211.494 12.4626C211.239 12.3609 210.989 12.2449 210.746 12.1153C210.465 11.9737 210.242 11.7371 210.118 11.4474V11.3672L210.232 11.414C209.777 11.7446 209.275 12.0058 208.743 12.1888C208.31 12.3263 207.849 12.3448 207.407 12.2422C207.102 12.1738 206.821 12.0263 206.592 11.8147C206.529 11.7584 206.475 11.6932 206.432 11.621L206.385 11.5476C206.385 11.5476 206.465 11.6344 206.632 11.768C206.862 11.9565 207.135 12.085 207.427 12.142C207.871 12.2401 208.334 12.21 208.763 12.0552C209.278 11.8734 209.764 11.6168 210.205 11.2938L210.292 11.2336V11.3338V11.4006C210.412 11.65 210.612 11.8521 210.86 11.975C211.1 12.1086 211.354 12.2155 211.588 12.3224C212 12.5326 212.463 12.6207 212.924 12.5762C213.224 12.5358 213.5 12.3917 213.705 12.1687C213.744 12.085 213.776 11.9978 213.799 11.9082Z" fill="#455A64"/>
<path d="M198.156 26.2686C197.03 26.5173 195.941 26.9101 194.916 27.4374C194.83 27.9317 195.644 29.0204 196.105 29.2208C196.36 29.3164 196.635 29.3499 196.905 29.3185C197.176 29.2871 197.435 29.1918 197.662 29.0404C198.068 28.7036 198.335 28.2274 198.41 27.7046C198.433 27.213 198.347 26.7222 198.156 26.2686Z" fill="#6F4439"/>
<path d="M196.239 29.2811C196.611 29.2775 196.98 29.2074 197.328 29.074C197.678 28.9154 197.968 28.6485 198.156 28.3126C198.378 27.9046 198.44 27.4281 198.329 26.9768C198.275 26.7614 198.183 26.5577 198.056 26.3756L198.216 26.4224C197.22 26.8051 196.195 27.1066 195.15 27.3241C196.118 26.842 197.123 26.4399 198.156 26.1218H198.256L198.316 26.2087C198.553 26.5358 198.689 26.9249 198.708 27.3282C198.727 27.7315 198.628 28.1316 198.423 28.4796C198.187 28.858 197.833 29.1471 197.414 29.3011C197.229 29.3839 197.028 29.4251 196.824 29.4216C196.621 29.4181 196.421 29.3702 196.239 29.2811Z" fill="#263238"/>
<path d="M208.609 31.1509C209.465 31.1509 210.158 30.4571 210.158 29.6013C210.158 28.7455 209.465 28.0518 208.609 28.0518C207.753 28.0518 207.059 28.7455 207.059 29.6013C207.059 30.4571 207.753 31.1509 208.609 31.1509Z" fill="#455A64"/>
<path d="M152.65 62.5037C152.65 62.5037 149.203 58.3893 148.328 56.9265C147.665 55.7261 146.72 54.7041 145.576 53.9476C144.241 52.9724 140.674 50.6614 139.411 50.8685C138.45 51.0221 134.809 49.6929 133.166 49.2988C133.019 49.2673 132.866 49.2796 132.726 49.3342C132.586 49.3888 132.465 49.4833 132.378 49.6061C132.091 50.5211 133.647 51.7568 134.803 52.2243L136.319 52.8322L137.154 56.4389C137.154 56.4389 136.199 60.6135 137.154 61.5018C138.109 62.3901 137.942 62.1697 139.224 62.5304C140.507 62.8911 145.236 62.9646 145.336 63.0915C145.436 63.2184 148.281 67.3261 148.281 67.3261L152.65 62.5037Z" fill="#AE7461"/>
<path d="M130.027 49.5927C130.027 49.5927 131.023 49.1585 131.878 50.4877C132.366 51.2531 132.812 52.0446 133.213 52.8588C133.32 52.9056 134.168 53.0191 134.168 53.0191L135.504 54.7157L135.17 55.8378C135.17 55.8378 132.592 55.4771 132.071 54.7557C131.208 53.3261 130.474 51.8217 129.88 50.2606C129.794 49.7196 130.027 49.5927 130.027 49.5927Z" fill="#AE7461"/>
<path d="M138.945 59.404L138.397 58.489L139.238 57.5205C139.238 57.5205 141.048 58.1416 141.696 57.3001C142.344 56.4585 142.151 56.3917 142.151 56.3917L139.779 55.6703L141.209 55.3297C141.209 55.3297 143.166 55.9976 143.553 54.8755L143.453 54.2076C142.578 53.9546 141.685 53.7693 140.781 53.6532C139.603 53.7006 138.428 53.8099 137.261 53.9805L139.699 53.2391C140.223 53.3044 140.755 53.2636 141.262 53.1189C141.362 53.0838 141.453 53.0267 141.528 52.9518C141.603 52.8769 141.661 52.7861 141.696 52.686C141.731 52.586 141.744 52.4794 141.732 52.3739C141.721 52.2685 141.686 52.167 141.63 52.0769C141.549 51.9419 141.427 51.8364 141.282 51.7763C140.662 51.5094 140.004 51.3405 139.332 51.2754C138.464 51.2754 135.585 51.7563 134.877 52.4042C134.169 53.0521 134.062 53.3593 134.302 54.1141C134.603 54.8353 134.979 55.5226 135.425 56.1646C135.437 56.7454 135.598 57.3133 135.892 57.8144C135.892 57.8144 135.465 59.5443 137.134 61.5147" fill="#AE7461"/>
<path d="M137.121 61.5013C137.055 61.4382 136.992 61.3713 136.934 61.3009C136.76 61.0912 136.604 60.8678 136.466 60.633C136.239 60.2725 136.06 59.8841 135.932 59.4775C135.752 58.9217 135.704 58.3318 135.792 57.7542V57.8277C135.477 57.3149 135.306 56.7264 135.298 56.1245V56.178C135.044 55.8039 134.79 55.4032 134.543 54.9623C134.26 54.5066 134.084 53.9928 134.029 53.4595C134.039 53.1561 134.163 52.8675 134.376 52.6513C134.566 52.4233 134.792 52.2272 135.044 52.0702C135.581 51.8 136.152 51.6002 136.74 51.4758C137.348 51.3314 137.964 51.2199 138.584 51.1418C138.912 51.1047 139.244 51.1047 139.572 51.1418C139.905 51.1883 140.233 51.262 140.554 51.3622L141.035 51.5225C141.21 51.5791 141.377 51.6601 141.529 51.763C141.687 51.8935 141.794 52.0757 141.831 52.2774C141.868 52.4791 141.832 52.6873 141.73 52.8651C141.628 53.0483 141.461 53.1866 141.262 53.2524C141.088 53.309 140.909 53.3493 140.728 53.3727C140.368 53.4128 140.005 53.4128 139.646 53.3727H139.706L138.711 53.6799L137.268 54.1207L137.208 53.8335C138.31 53.6866 139.379 53.5463 140.441 53.4996C140.97 53.5039 141.497 53.5712 142.01 53.7C142.511 53.8135 142.992 53.9337 143.473 54.0673H143.56V54.1541C143.56 54.3879 143.627 54.6083 143.66 54.8221V54.8555C143.573 55.1018 143.396 55.3067 143.166 55.4299C142.959 55.5365 142.73 55.5936 142.498 55.5969C142.043 55.6044 141.591 55.532 141.162 55.3831H141.235L139.799 55.7171V55.4833L141.569 56.0377L141.984 56.1646H142.084H142.13H142.171C142.188 56.159 142.207 56.159 142.224 56.1646C142.317 56.3382 142.224 56.3917 142.224 56.4718C142.103 56.7105 141.955 56.9345 141.783 57.1398C141.612 57.3489 141.378 57.4966 141.115 57.5606C140.884 57.6179 140.645 57.6404 140.407 57.6273C139.997 57.603 139.593 57.5221 139.205 57.3869H139.278L138.417 58.342V58.4422C138.59 58.7361 138.717 58.9699 138.818 59.1101C138.862 59.1847 138.9 59.2629 138.931 59.3439C138.87 59.2805 138.818 59.2085 138.777 59.1302L138.343 58.4622L139.172 57.4737H139.218C139.592 57.5936 139.981 57.661 140.374 57.6741C140.598 57.7041 140.826 57.6797 141.039 57.603C141.252 57.5262 141.443 57.3994 141.596 57.2333C141.758 57.0276 141.895 56.8034 142.004 56.5653C142.01 56.539 142.01 56.5116 142.004 56.4852C142.004 56.4852 142.004 56.4852 142.064 56.4318C142.104 56.3716 142.017 56.5119 142.064 56.4986H142.01H141.91L141.496 56.3716L139.719 55.844L139.298 55.7238L139.726 55.6169L141.162 55.2696H141.235C141.626 55.4046 142.038 55.4702 142.451 55.4633C142.65 55.4796 142.85 55.4329 143.021 55.3298C143.192 55.2268 143.327 55.0725 143.406 54.8889V54.9556C143.373 54.7286 143.339 54.5081 143.306 54.2877L143.4 54.4013C142.932 54.2744 142.451 54.1541 141.957 54.0473C141.465 53.923 140.961 53.8579 140.454 53.8536C139.425 53.9003 138.343 54.0473 137.255 54.1875L137.188 53.9003L138.631 53.4595L139.626 53.1589C139.961 53.199 140.299 53.199 140.634 53.1589C140.798 53.1408 140.959 53.1049 141.115 53.0521C141.18 53.0331 141.241 53.0015 141.293 52.9591C141.346 52.9167 141.39 52.8643 141.422 52.8049C141.49 52.6863 141.514 52.5476 141.489 52.4133C141.465 52.2789 141.394 52.1575 141.289 52.0702C141.163 51.986 141.026 51.9208 140.881 51.8765L140.414 51.7162C140.111 51.6197 139.8 51.5482 139.485 51.5025C139.177 51.466 138.865 51.466 138.557 51.5025C137.948 51.5712 137.344 51.6761 136.747 51.8164C136.183 51.9343 135.636 52.1205 135.117 52.3708C134.892 52.5128 134.689 52.6885 134.516 52.8918C134.425 52.9782 134.353 53.0817 134.302 53.1963C134.252 53.311 134.225 53.4345 134.222 53.5597C134.273 54.0527 134.435 54.5277 134.696 54.949C134.924 55.3831 135.177 55.7839 135.418 56.1579C135.416 56.7215 135.566 57.2753 135.852 57.7609V57.7943V57.8344C135.763 58.3831 135.8 58.9449 135.959 59.4775C136.07 59.8792 136.232 60.2651 136.44 60.6263C136.887 61.2074 137.141 61.4813 137.121 61.5013Z" fill="#6F4439"/>
<path d="M139.639 59.832C139.88 59.5612 140.167 59.335 140.487 59.1641C141.987 58.2797 143.71 57.8461 145.45 57.9151C145.809 57.9047 146.167 57.9613 146.505 58.0821C145.311 58.0969 144.121 58.2266 142.952 58.4695C141.806 58.8161 140.697 59.2724 139.639 59.832Z" fill="#6F4439"/>
<path d="M139.979 55.6635C139.979 55.717 139.692 55.6635 139.245 55.6034C138.671 55.5991 138.112 55.7794 137.648 56.1177C137.18 56.4752 136.75 56.8803 136.366 57.3267C136.059 57.6673 135.858 57.8744 135.825 57.8477C135.792 57.8209 135.939 57.5738 136.206 57.1797C136.556 56.6704 136.984 56.2196 137.475 55.8439C137.99 55.4648 138.63 55.2953 139.265 55.3697C139.527 55.3951 139.775 55.4973 139.979 55.6635Z" fill="#6F4439"/>
<path d="M137.374 53.9475C136.954 54.1838 136.565 54.4734 136.219 54.8091C135.684 55.3969 135.437 56.0247 135.357 55.998C135.371 55.7338 135.438 55.475 135.552 55.2366C135.667 54.9981 135.828 54.7847 136.025 54.6087C136.27 54.3262 136.583 54.1102 136.933 53.9809C137.167 53.894 137.374 53.9141 137.374 53.9475Z" fill="#6F4439"/>
<path d="M218.013 47.7556C218.013 47.7556 222.729 49.0046 222.869 55.2163C222.989 60.7066 225.541 76.1423 225.621 81.7128C225.701 87.2833 225.06 91.4845 218 92.6734C212.302 93.6286 206.258 80.8245 206.258 80.8245L212.055 75.795L209.637 65.7227C209.637 65.7227 208.034 62.2696 211.841 55.036C215.649 47.8024 218.013 47.7556 218.013 47.7556Z" fill="#BF83FF"/>
<path d="M191.784 38.2111L189.058 41.8112L180.375 43.6747C180.375 43.6747 173.99 57.2536 174.291 63.4987C174.38 66.6354 174.704 69.7611 175.259 72.8496L175.206 79.9964C175.206 79.9964 172.534 85.9409 173.71 88.5191C174.885 91.0973 178.278 93.4684 178.278 93.4684L209.744 93.8692C209.744 93.8692 211.988 95.1516 213.164 91.7852C214.339 88.4189 212.496 63.846 212.496 63.846L218.627 48.043L208.689 42.6127L206.872 37.8237L195.003 40.8561L191.784 38.2111Z" fill="#BF83FF"/>
<path d="M214.346 77.2846L213.01 75.3677L206.231 78.2999L206.865 80.4973C206.865 80.4973 209.177 83.0955 211.461 82.2272C213.745 81.3589 214.132 78.7874 214.132 78.7874L214.346 77.2846Z" fill="#AE7461"/>
<path d="M208.482 72.1414C208.93 71.5331 209.493 71.0181 210.138 70.6252C210.471 70.4855 210.812 70.3673 211.16 70.2712C211.105 70.1126 211.089 69.9433 211.112 69.7771C211.135 69.6109 211.197 69.4525 211.292 69.3146C211.388 69.1767 211.515 69.0633 211.662 68.9835C211.81 68.9037 211.974 68.8597 212.142 68.8552C212.412 69.0833 212.74 69.2314 213.09 69.2827C213.191 69.2667 213.294 69.2716 213.393 69.297C213.492 69.3224 213.585 69.3678 213.665 69.4303C213.746 69.4929 213.813 69.5714 213.862 69.6608C213.912 69.7503 213.942 69.8489 213.952 69.9506C214.072 70.4582 214.386 71.8742 213.952 72.5422C213.518 73.2101 212.736 73.878 213.09 75.6881C213.09 75.6881 212.616 77.6918 211.594 78.2061C211.128 78.487 210.601 78.6498 210.058 78.6804C210.058 78.6804 209.116 79.8225 208.328 79.6622C207.54 79.5019 207.186 79.4685 207.186 79.4685C207.186 79.4685 206.558 80.4437 205.182 79.6823C204.957 79.832 204.697 79.9201 204.427 79.9376C204.158 79.9552 203.888 79.9017 203.646 79.7824C203.278 79.5821 201.482 77.7787 201.402 76.3961C201.321 75.0135 201.402 74.0784 201.715 73.5641C202.223 72.8093 202.958 73.4973 202.958 73.4973C203.029 72.8462 203.258 72.2225 203.626 71.6805C204.14 71.1662 204.527 71.2464 204.527 71.2464C204.527 71.2464 204.374 69.6701 205.589 69.5565C206.805 69.443 206.692 70.8924 206.732 71.6805L206.772 72.462C206.772 72.462 207.286 71.2731 208.482 72.1414Z" fill="#AE7461"/>
<path d="M208.482 72.1414C208.482 72.1414 208.328 72.0413 208.015 71.921C207.821 71.8592 207.613 71.8592 207.42 71.921C207.165 72.0237 206.961 72.223 206.852 72.4754L206.745 72.7025V72.4554C206.745 72.1214 206.692 71.7407 206.679 71.3266C206.693 70.8864 206.618 70.4479 206.458 70.0375C206.397 69.937 206.316 69.85 206.22 69.7818C206.125 69.7136 206.016 69.6655 205.901 69.6405C205.786 69.6155 205.667 69.6142 205.552 69.6365C205.436 69.6588 205.327 69.7043 205.229 69.7703C205.014 69.9391 204.849 70.1631 204.752 70.4183C204.654 70.6736 204.627 70.9506 204.675 71.2197V71.3466H204.528C204.314 71.3747 204.109 71.4544 203.932 71.5788C203.755 71.7033 203.611 71.8689 203.513 72.0613C203.295 72.5165 203.151 73.0035 203.085 73.504L203.045 73.7378L202.872 73.5842C202.77 73.4602 202.626 73.3772 202.468 73.3502C202.31 73.3232 202.147 73.3541 202.01 73.4372C201.757 73.6914 201.603 74.0278 201.576 74.3857C201.523 74.7796 201.5 75.1771 201.509 75.5746C201.504 75.9801 201.54 76.3852 201.616 76.7835C201.899 77.5851 202.355 78.3147 202.952 78.9209C203.099 79.0878 203.252 79.2415 203.413 79.3951L203.653 79.6021C203.736 79.6563 203.826 79.699 203.92 79.729C204.118 79.7889 204.326 79.8044 204.531 79.7744C204.735 79.7444 204.93 79.6696 205.102 79.5554L205.183 79.502L205.256 79.542C205.621 79.773 206.061 79.8566 206.485 79.7758C206.717 79.7118 206.921 79.5733 207.066 79.3817L207.126 79.3016H207.213L208.028 79.4418C208.155 79.4418 208.308 79.4953 208.422 79.502C208.532 79.5246 208.646 79.5246 208.756 79.502C209.224 79.3063 209.635 78.9963 209.952 78.6003L209.998 78.5468H210.078C210.453 78.5191 210.82 78.4241 211.16 78.2663C211.51 78.1477 211.819 77.9351 212.055 77.6518C212.488 77.0506 212.797 76.3695 212.964 75.648V75.7015C212.77 74.9003 212.88 74.0557 213.271 73.3303C213.458 72.9897 213.719 72.6958 213.892 72.4086C214.031 72.1032 214.091 71.7679 214.066 71.4334C214.054 71.1018 214.018 70.7714 213.959 70.4449C213.939 70.144 213.844 69.8528 213.685 69.5967C213.591 69.5035 213.469 69.4447 213.338 69.4297C213.204 69.4297 213.051 69.4297 212.884 69.3762C212.594 69.2896 212.326 69.1441 212.096 68.9488H212.162C211.999 68.9502 211.838 68.991 211.694 69.0678C211.55 69.1445 211.427 69.2549 211.334 69.3896C211.21 69.6592 211.18 69.9623 211.247 70.2512V70.318H211.18L210.466 70.5585C210.252 70.6077 210.049 70.6936 209.865 70.8123C209.578 71.0051 209.314 71.2291 209.077 71.4802C208.876 71.6806 208.736 71.8409 208.636 71.9477C208.536 72.0546 208.489 72.1147 208.482 72.1081C208.475 72.1014 208.515 72.0413 208.602 71.921C208.689 71.8008 208.829 71.6338 209.016 71.4201C209.249 71.153 209.511 70.9133 209.798 70.7054C209.989 70.5793 210.199 70.4825 210.419 70.4182L211.14 70.1577L211.087 70.2579C210.993 69.9289 211.024 69.577 211.174 69.2694C211.277 69.1065 211.419 68.9715 211.587 68.876C211.754 68.7806 211.943 68.7276 212.136 68.7217H212.182C212.393 68.8935 212.636 69.0208 212.897 69.0957C213.117 69.1491 213.565 69.0957 213.805 69.3629C213.928 69.4956 214.011 69.6598 214.046 69.8371C214.079 69.9974 214.119 70.1577 214.146 70.318C214.216 70.6569 214.258 71.0009 214.273 71.3466C214.304 71.7252 214.235 72.1052 214.073 72.4487C213.879 72.7893 213.632 73.0565 213.458 73.3771C213.101 74.0519 213.011 74.8362 213.204 75.5746C213.036 76.3314 212.713 77.0454 212.256 77.6718C212.126 77.8337 211.973 77.9755 211.802 78.0926C211.628 78.2018 211.444 78.2957 211.254 78.3732C210.868 78.5487 210.454 78.6528 210.032 78.6804L210.159 78.627C209.803 79.0652 209.344 79.4074 208.823 79.6222C208.674 79.6713 208.517 79.6872 208.362 79.6689C208.202 79.6689 208.088 79.6289 207.948 79.6088L207.153 79.4686L207.293 79.4018C207.11 79.6566 206.843 79.8386 206.538 79.9161C206.041 80.0183 205.522 79.9276 205.089 79.6623H205.249C205.039 79.8039 204.8 79.8967 204.549 79.9336C204.298 79.9706 204.042 79.9509 203.8 79.876C203.698 79.8669 203.597 79.8468 203.499 79.8159L203.232 79.5888C203.065 79.4285 202.905 79.2682 202.751 79.1012C202.132 78.4556 201.66 77.683 201.369 76.8369C201.285 76.4149 201.249 75.9847 201.262 75.5545C201.253 75.1413 201.277 74.7281 201.335 74.3189C201.375 73.8924 201.57 73.4954 201.883 73.2034C201.978 73.134 202.087 73.0871 202.203 73.0663C202.319 73.0455 202.438 73.0513 202.551 73.0832C202.752 73.1377 202.937 73.2384 203.092 73.3771L202.878 73.4506C202.952 72.9204 203.112 72.4059 203.352 71.9277C203.476 71.6947 203.655 71.4953 203.873 71.3466C204.086 71.1789 204.351 71.0935 204.621 71.1062L204.488 71.2331C204.464 70.9147 204.503 70.5948 204.601 70.2913C204.69 69.9902 204.891 69.7344 205.162 69.5766C205.424 69.4422 205.722 69.3976 206.011 69.4497C206.149 69.4748 206.278 69.5329 206.389 69.6189C206.499 69.705 206.587 69.8165 206.645 69.944C206.809 70.3695 206.884 70.8242 206.866 71.2798C206.866 71.6939 206.866 72.0747 206.866 72.4086H206.752C206.816 72.2684 206.908 72.143 207.023 72.0406C207.138 71.9382 207.273 71.8611 207.42 71.8142C207.642 71.7501 207.879 71.7691 208.088 71.8676C208.232 71.9385 208.365 72.0308 208.482 72.1414Z" fill="#6F4439"/>
<path d="M212.63 71.8009C212.63 71.8343 212.483 71.8677 212.263 71.8009C211.974 71.7268 211.715 71.5659 211.521 71.3401C211.32 71.1211 211.198 70.8414 211.174 70.5452C211.174 70.3182 211.174 70.1846 211.234 70.1846C211.294 70.1846 211.354 70.7056 211.748 71.1464C212.142 71.5872 212.643 71.7208 212.63 71.8009Z" fill="#6F4439"/>
<path d="M210.846 75.8085C210.76 75.8419 210.406 74.9135 209.758 73.9049C209.11 72.8964 208.422 72.2084 208.462 72.1416C209.111 72.5278 209.644 73.0815 210.005 73.7446C210.45 74.3534 210.739 75.062 210.846 75.8085Z" fill="#6F4439"/>
<path d="M206.839 72.1213C206.885 72.1213 206.839 72.4954 206.939 73.0698C207.146 73.8132 207.466 74.5204 207.887 75.1671C208.106 75.5462 208.296 75.9414 208.455 76.3493C208.559 76.6876 208.646 77.0309 208.716 77.3779C208.796 77.6791 208.974 77.9448 209.223 78.1326C209.223 78.1326 209.11 78.1326 208.956 78.0525C208.747 77.9028 208.593 77.6896 208.515 77.4447C208.402 77.1508 208.348 76.7768 208.195 76.4495C208.03 76.0571 207.84 75.6756 207.627 75.3073C207.188 74.6379 206.884 73.8892 206.732 73.1032C206.655 72.7732 206.693 72.4271 206.839 72.1213Z" fill="#6F4439"/>
<path d="M206.171 77.4917C205.864 77.3245 205.593 77.0973 205.376 76.8237C205.112 76.5483 204.897 76.2298 204.741 75.882C204.584 75.4529 204.491 75.0026 204.467 74.5461C204.31 73.3924 204.349 72.2205 204.581 71.0796C204.668 71.0796 204.581 72.6292 204.761 74.5194C204.783 74.953 204.862 75.3818 204.995 75.7951C205.129 76.1212 205.311 76.4252 205.536 76.6968C205.775 76.9386 205.988 77.2051 206.171 77.4917Z" fill="#6F4439"/>
<path d="M203.986 77.8591C203.946 77.8591 203.819 77.632 203.505 77.298C203.317 77.1013 203.143 76.8915 202.985 76.6702C202.785 76.3766 202.668 76.0355 202.644 75.6817C202.63 75.0729 202.693 74.4648 202.831 73.8716C202.904 73.4241 202.898 73.1436 202.944 73.1436C203.047 73.3788 203.079 73.6385 203.038 73.8916C202.969 74.4768 202.935 75.0657 202.938 75.655C203.021 76.2238 203.278 76.7532 203.672 77.1711C203.953 77.5452 204.026 77.8457 203.986 77.8591Z" fill="#6F4439"/>
<path d="M222.668 82.3605C222.417 81.937 222.114 81.5466 221.766 81.1984C221.366 80.8439 220.916 80.5492 220.431 80.3234C219.831 80.0559 219.213 79.8327 218.58 79.6555C217.937 79.4772 217.304 79.2654 216.684 79.0209C216.171 78.8129 215.689 78.5389 215.247 78.2061C214.949 77.9781 214.688 77.7055 214.473 77.3979C214.326 77.1775 214.272 77.0439 214.286 77.0305C214.612 77.4001 214.974 77.7358 215.368 78.0324C215.81 78.3308 216.285 78.5773 216.784 78.7671C217.345 78.9875 217.986 79.1679 218.667 79.3749C219.314 79.5588 219.945 79.7979 220.551 80.0896C221.046 80.3369 221.498 80.6641 221.887 81.0581C222.16 81.3228 222.386 81.6323 222.555 81.9731C222.622 82.0917 222.661 82.2243 222.668 82.3605Z" fill="#263238"/>
<path d="M150.6 58.5762L152.81 60.7069C153.758 60.816 154.693 61.015 155.602 61.3013C157.432 61.8357 161.26 66.6447 161.26 66.6447L171.018 52.2309C171.018 52.2309 175.814 44.1557 180.369 43.6548L176.782 66.4577C176.782 66.4577 167.071 79.2818 162.395 80.8915C157.72 82.5012 147.614 69.9242 147.193 67.6399L144.221 64.0598L150.6 58.5762Z" fill="#BF83FF"/>
<path d="M216.557 92.9138C216.346 92.8682 216.142 92.7964 215.949 92.7C215.411 92.4674 214.892 92.1904 214.4 91.8718C212.803 90.781 211.39 89.4441 210.212 87.911C209.504 87.0294 208.876 86.1611 208.315 85.3596C207.786 84.6696 207.323 83.9317 206.932 83.1554C206.68 82.6058 206.616 81.9882 206.752 81.3988C206.796 81.2437 206.861 81.0953 206.946 80.9579C207.006 80.8644 207.053 80.8244 207.059 80.831C206.981 81.0244 206.916 81.2231 206.866 81.4255C206.775 81.9869 206.867 82.5626 207.126 83.0686C207.539 83.8186 208.012 84.5335 208.542 85.2059C209.11 85.9941 209.738 86.8557 210.439 87.724C211.606 89.234 212.98 90.5718 214.52 91.6981C215.722 92.5063 216.577 92.8603 216.557 92.9138Z" fill="#263238"/>
<path d="M210.847 61.0474C210.933 61.0474 210.9 62.824 210.993 65.0081C211.087 67.1923 211.261 68.9556 211.174 68.9623C211.043 68.5943 210.964 68.2099 210.94 67.8201C210.84 67.1054 210.74 66.1169 210.693 65.0215C210.646 63.9261 210.693 62.9242 210.693 62.2095C210.689 61.8169 210.741 61.4257 210.847 61.0474Z" fill="#263238"/>
<path d="M217.946 48.4237C217.366 48.5247 216.796 48.6767 216.243 48.8778C214.957 49.4815 213.865 50.4322 213.09 51.623C212.277 52.7933 211.655 54.085 211.247 55.4502C210.933 56.5055 210.86 57.1868 210.806 57.1801C210.781 57.0185 210.781 56.8541 210.806 56.6925C210.818 56.5041 210.843 56.3167 210.88 56.1315C210.917 55.8839 210.968 55.6386 211.033 55.3968C211.388 53.9829 211.997 52.6454 212.83 51.4493C213.292 50.7897 213.838 50.1925 214.453 49.6727C214.96 49.2489 215.536 48.9146 216.156 48.6841C216.283 48.6374 216.41 48.584 216.53 48.5506L216.884 48.4771C217.067 48.4268 217.256 48.4021 217.445 48.4036C217.612 48.3832 217.781 48.3899 217.946 48.4237Z" fill="#263238"/>
<path d="M179.127 48.4236C179.105 48.5102 179.071 48.5933 179.027 48.6707L178.706 49.3386C178.559 49.6325 178.385 50.0066 178.205 50.4274C178.025 50.8481 177.791 51.3357 177.584 51.8901C177.071 53.1683 176.625 54.4726 176.248 55.7975C175.802 57.42 175.456 59.0684 175.213 60.7334C174.986 62.4028 174.863 64.0848 174.845 65.7695C174.839 67.1458 174.906 68.5215 175.046 69.8906C175.086 70.4784 175.179 71.0061 175.233 71.4669C175.286 71.9278 175.36 72.3285 175.42 72.6558L175.54 73.4039C175.553 73.4902 175.553 73.5781 175.54 73.6644C175.504 73.5856 175.477 73.5026 175.46 73.4173C175.413 73.2102 175.353 72.9698 175.286 72.6759C175.189 72.286 175.11 71.8914 175.053 71.4936C174.979 71.0328 174.872 70.5051 174.819 69.9173C174.644 68.5416 174.554 67.1564 174.552 65.7695C174.544 62.38 175.019 59.0067 175.961 55.7507C176.35 54.4201 176.816 53.1132 177.357 51.8367C177.577 51.289 177.824 50.8081 178.025 50.3873C178.225 49.9665 178.412 49.5991 178.579 49.3119C178.746 49.0247 178.846 48.831 178.953 48.644C179.06 48.457 179.114 48.4236 179.127 48.4236Z" fill="#263238"/>
<path d="M208.689 42.6126C208.689 42.6126 208.615 42.6661 208.462 42.7395C208.308 42.813 208.081 42.9199 207.794 43.0468C207.193 43.3006 206.324 43.6479 205.222 44.0487C202.335 45.0846 199.386 45.9412 196.392 46.6135H196.246L196.212 46.4732C196.152 46.1994 196.079 45.9055 195.992 45.6116C195.571 44.0687 195.057 42.6126 194.743 41.21L194.983 41.2634C193.741 42.7796 192.625 44.1222 191.644 45.1641L191.563 45.2443L191.49 45.1641C191.108 44.7273 190.762 44.2605 190.455 43.7682L189.74 42.6861C189.346 42.0917 189.072 41.8045 189.072 41.7844C189.153 41.8375 189.225 41.9028 189.286 41.9781C189.419 42.1184 189.593 42.3321 189.813 42.646C190.034 42.96 190.281 43.314 190.568 43.7014C190.888 44.1709 191.241 44.6173 191.623 45.0372H191.477C192.445 43.9886 193.547 42.626 194.776 41.1098L194.956 40.8894L195.023 41.1633C195.344 42.5459 195.858 43.9952 196.286 45.5515C196.372 45.8454 196.446 46.146 196.513 46.4265L196.332 46.3129C199.317 45.6445 202.264 44.8196 205.162 43.8416C206.264 43.4743 207.166 43.1737 207.761 42.9266C208.063 42.8036 208.374 42.6988 208.689 42.6126Z" fill="#263238"/>
<path d="M191.289 95.0979L191.156 95.0311C191.033 94.9674 190.915 94.896 190.802 94.8174C190.361 94.4986 189.985 94.0998 189.693 93.6418C189.24 92.9139 188.927 92.1073 188.771 91.264C188.558 90.1638 188.455 89.0451 188.464 87.9244C188.464 82.9417 188.39 76.0421 188.925 68.4478C189.199 64.6473 189.593 61.0405 190.187 57.761C190.686 54.8764 191.355 52.0238 192.191 49.2183C192.934 46.6295 193.881 44.1036 195.023 41.6641L194.983 41.7977L194.836 42.1917L194.255 43.6879C193.981 44.3558 193.72 45.1373 193.393 46.0724C193.066 47.0075 192.725 48.0761 192.391 49.2784C191.593 52.0829 190.955 54.9307 190.481 57.8078C189.933 61.0472 189.512 64.6473 189.239 68.4411C188.704 76.022 188.744 82.915 188.691 87.8977C188.673 89.0166 188.76 90.1348 188.951 91.2373C189.094 92.0667 189.386 92.8632 189.813 93.5884C190.19 94.1927 190.693 94.7078 191.289 95.0979Z" fill="#263238"/>
<path d="M200.159 84.378C199.886 84.3743 199.613 84.3474 199.345 84.2978C198.824 84.231 198.069 84.1041 197.14 83.9238C192.311 82.9608 187.641 81.324 183.268 79.0613C182.433 78.6271 181.765 78.2531 181.317 77.9792C181.084 77.8474 180.86 77.6978 180.649 77.5317C180.908 77.6219 181.156 77.7383 181.391 77.8791C181.858 78.1195 182.54 78.4601 183.395 78.8743C185.589 79.9417 187.842 80.8872 190.141 81.7063C192.452 82.5076 194.807 83.1766 197.194 83.71C198.109 83.9171 198.857 84.0774 199.371 84.1776C199.641 84.212 199.906 84.2793 200.159 84.378Z" fill="#263238"/>
<g opacity="0.3">
<path d="M224.111 80.7777C223.988 80.2872 223.746 79.8347 223.405 79.4607C223.065 79.0866 222.637 78.8025 222.161 78.6337C221.198 78.3106 220.179 78.1923 219.168 78.2864C217.993 78.3487 216.814 78.3241 215.642 78.2129C216.637 79.001 218.38 79.3417 219.736 79.9161C220.522 80.1889 221.25 80.6082 221.88 81.1517C222.127 81.3855 222.334 81.6661 222.602 81.8731C222.731 81.9855 222.885 82.0649 223.051 82.1045C223.218 82.144 223.391 82.1426 223.557 82.1002C223.787 81.9772 223.968 81.7784 224.069 81.5375C224.17 81.2966 224.185 81.0283 224.111 80.7777Z" fill="black"/>
</g>
<g opacity="0.3">
<path d="M176.335 55.0496C174.558 56.8977 173.447 59.2848 173.177 61.8343C172.908 64.3837 173.494 66.9504 174.845 69.1294V69.0425C174.239 64.3259 174.749 59.5329 176.335 55.0496Z" fill="black"/>
</g>
<path d="M174.584 101.791L178.291 93.4551L212.629 92.9275L217.425 101.25C217.425 101.25 197.862 110.22 174.584 101.791Z" fill="#263238"/>
</svg>
