<svg width="52" height="52" viewBox="0 0 52 52" fill="none" xmlns="http://www.w3.org/2000/svg">
<g clip-path="url(#clip0_2472_4149)">
<path d="M29.2597 0.988452C29.3407 0.987991 29.4218 0.987531 29.5054 0.987057C29.7762 0.985775 30.047 0.985937 30.3179 0.986105C30.5124 0.985497 30.707 0.984806 30.9016 0.984038C31.4295 0.982245 31.9575 0.981768 32.4855 0.981638C32.8156 0.981493 33.1457 0.98106 33.4758 0.980521C34.628 0.978642 35.7803 0.977813 36.9325 0.977972C38.0055 0.978094 39.0784 0.975952 40.1513 0.972743C41.0734 0.970084 41.9955 0.968998 42.9175 0.969127C43.4678 0.969179 44.0181 0.968605 44.5684 0.966451C45.0863 0.964479 45.6041 0.964472 46.122 0.965946C46.3115 0.966158 46.5011 0.965682 46.6906 0.964451C47.9955 0.956527 49.0109 1.01639 50.0013 1.95903C50.864 2.8378 51.0454 3.74731 51.0369 4.95039C51.038 5.13861 51.038 5.13861 51.0391 5.33062C51.0406 5.67185 51.0402 6.01297 51.0389 6.35419C51.0379 6.71296 51.0389 7.07173 51.0395 7.4305C51.0402 8.03262 51.0393 8.63473 51.0373 9.23684C51.0351 9.93101 51.0358 10.6251 51.0381 11.3193C51.0399 11.9176 51.0402 12.5158 51.0391 13.1141C51.0385 13.4704 51.0384 13.8268 51.0397 14.1831C51.0411 14.5805 51.0392 14.9778 51.0369 15.3752C51.0378 15.4919 51.0386 15.6086 51.0394 15.7288C51.0276 16.8518 50.6392 17.6713 49.8672 18.4844C48.9292 19.2832 47.73 19.3418 46.552 19.3315C46.4181 19.3315 46.2843 19.3315 46.1463 19.3316C45.7827 19.3317 45.4192 19.3299 45.0556 19.3278C44.6743 19.3258 44.293 19.3257 43.9117 19.3253C43.1913 19.3244 42.4709 19.3219 41.7504 19.3188C40.9296 19.3154 40.1087 19.3137 39.2878 19.3122C37.6007 19.309 35.9136 19.3037 34.2266 19.2969C34.2283 19.3989 34.2301 19.5009 34.2319 19.606C34.2333 19.7426 34.2347 19.8792 34.2361 20.0157C34.2378 20.1492 34.2396 20.2826 34.2414 20.4201C34.1967 21.6239 33.6685 22.6095 32.8174 23.4447C31.7717 24.3008 30.5638 24.4995 29.2556 24.4716C29.0503 24.4683 28.8451 24.465 28.6398 24.4619C28.5316 24.4601 28.4234 24.4583 28.3119 24.4564C27.6104 24.4463 26.9088 24.4439 26.2072 24.4404C25.5942 24.437 24.9814 24.4306 24.3684 24.4177C20.5891 24.2558 20.5891 24.2558 17.3868 26.0055C17.0433 26.3102 16.6623 26.5483 16.2754 26.7934C16.1324 26.8888 15.9897 26.9845 15.8473 27.0807C15.2281 27.4951 14.605 27.9035 13.9819 28.312C13.8489 28.3992 13.7159 28.4864 13.583 28.5737C13.3955 28.6967 13.2079 28.8196 13.0202 28.9425C12.8566 29.0498 12.8566 29.0498 12.6896 29.1592C11.9374 29.6432 11.3635 29.9006 10.4522 29.7146C9.89669 29.5411 9.55453 29.2296 9.24218 28.7422C9.01072 28.2892 9.01267 27.8601 9.01922 27.3628C9.01951 27.2801 9.01979 27.1974 9.02009 27.1122C9.02122 26.8493 9.02377 26.5865 9.02636 26.3237C9.02738 26.145 9.02831 25.9663 9.02914 25.7875C9.03137 25.3505 9.03487 24.9135 9.03906 24.4766C8.94986 24.4643 8.86066 24.4521 8.76876 24.4395C8.65097 24.4225 8.53318 24.4056 8.41183 24.3881C8.2954 24.3717 8.17897 24.3552 8.05901 24.3383C7.02998 24.1421 6.12376 23.4663 5.52166 22.6179C5.39317 22.3951 5.28286 22.1729 5.17968 21.9375C5.14865 21.8695 5.11762 21.8016 5.08566 21.7316C4.75267 20.9346 4.75822 20.0847 4.75868 19.2331C4.75834 19.14 4.75799 19.0469 4.75764 18.9509C4.75669 18.6457 4.75648 18.3405 4.75637 18.0353C4.75604 17.8211 4.7557 17.607 4.75535 17.3929C4.75474 16.9449 4.75455 16.4969 4.75461 16.0488C4.75462 15.4778 4.75323 14.9068 4.75148 14.3357C4.75035 13.8936 4.75015 13.4515 4.7502 13.0094C4.75008 12.799 4.74964 12.5886 4.74885 12.3782C4.74227 10.4469 4.74328 8.81784 6.15008 7.33907C7.35269 6.22675 8.78861 6.1495 10.3468 6.16071C10.5161 6.1608 10.6853 6.16075 10.8546 6.16058C11.3105 6.16049 11.7664 6.16227 12.2223 6.16441C12.7001 6.16632 13.1779 6.16649 13.6557 6.16685C14.5589 6.1678 15.462 6.17029 16.3652 6.17336C17.394 6.17677 18.4229 6.17844 19.4518 6.17997C21.5669 6.18315 23.6819 6.1885 25.7969 6.1953C25.796 6.12796 25.7951 6.06062 25.7943 5.99124C25.7908 5.68356 25.7887 5.37589 25.7866 5.06819C25.7852 4.96226 25.7838 4.85632 25.7824 4.74718C25.7786 4.0103 25.8248 3.3913 26.2031 2.74217C26.245 2.66925 26.2869 2.59633 26.3301 2.5212C27.0128 1.49129 28.0459 0.98336 29.2597 0.988452ZM27.5488 3.13573C27.0676 3.80407 27.087 4.44312 27.0877 5.23755C27.087 5.3552 27.0863 5.47286 27.0856 5.59408C27.0837 5.98254 27.0833 6.37098 27.0831 6.75945C27.0826 6.9615 27.0821 7.16356 27.0815 7.36562C27.0799 8.00071 27.0794 8.6358 27.0795 9.27089C27.0797 9.92454 27.0775 10.5782 27.0743 11.2318C27.0716 11.7944 27.0706 12.3569 27.0707 12.9195C27.0707 13.2549 27.07 13.5902 27.068 13.9256C27.066 14.3 27.0666 14.6743 27.0678 15.0486C27.0667 15.1587 27.0656 15.2688 27.0644 15.3822C27.0708 16.155 27.2025 16.6895 27.7194 17.2902C27.7846 17.3449 27.8498 17.3997 27.917 17.456C28.014 17.5405 28.014 17.5405 28.113 17.6266C28.6214 17.9613 29.1362 18.0062 29.7303 18.003C29.8459 18.0036 29.8459 18.0036 29.9639 18.0042C30.2212 18.0053 30.4784 18.0049 30.7357 18.0044C30.9206 18.0049 31.1055 18.0054 31.2903 18.006C31.7919 18.0074 32.2934 18.0074 32.7949 18.0072C33.2139 18.0071 33.6328 18.0076 34.0518 18.0081C35.0404 18.0092 36.029 18.0092 37.0176 18.0086C38.0368 18.008 39.0559 18.0092 40.0751 18.0114C40.9508 18.0132 41.8264 18.0138 42.7021 18.0135C43.2248 18.0133 43.7475 18.0136 44.2702 18.015C44.7619 18.0163 45.2535 18.0161 45.7452 18.0147C45.9253 18.0145 46.1055 18.0148 46.2856 18.0156C46.5322 18.0167 46.7786 18.0158 47.0252 18.0146C47.0959 18.0153 47.1666 18.0161 47.2395 18.0168C47.9085 18.0095 48.4299 17.819 48.9785 17.4497C49.7651 16.6453 49.7809 15.7241 49.7804 14.6526C49.7807 14.5441 49.7811 14.4355 49.7814 14.3236C49.7824 13.9653 49.7826 13.607 49.7827 13.2487C49.783 12.999 49.7833 12.7494 49.7837 12.4997C49.7843 11.9764 49.7845 11.4531 49.7844 10.9299C49.7844 10.2605 49.7858 9.5912 49.7876 8.92186C49.7887 8.40614 49.7889 7.89042 49.7888 7.37469C49.789 7.12798 49.7894 6.88126 49.7902 6.63455C49.7912 6.28893 49.7909 5.94333 49.7903 5.5977C49.7909 5.49653 49.7914 5.39536 49.792 5.29112C49.7884 4.47387 49.7411 3.66753 49.2189 3.00322C48.5176 2.32223 47.7107 2.22198 46.7694 2.22078C46.6948 2.22055 46.6202 2.22032 46.5433 2.22008C46.2945 2.21944 46.0456 2.21952 45.7968 2.21961C45.6179 2.2193 45.439 2.21896 45.2602 2.21858C44.775 2.21768 44.2898 2.21744 43.8047 2.21738C43.5014 2.2173 43.1981 2.21709 42.8949 2.21682C41.8363 2.21588 40.7778 2.21546 39.7193 2.21554C38.7334 2.2156 37.7474 2.21453 36.7615 2.21293C35.9143 2.2116 35.0671 2.21105 34.2199 2.21112C33.7142 2.21115 33.2086 2.21086 32.7029 2.20978C32.2272 2.2088 31.7516 2.20879 31.2759 2.20953C31.1017 2.20964 30.9274 2.2094 30.7532 2.20878C30.5146 2.20799 30.2762 2.20847 30.0376 2.20925C29.8377 2.20917 29.8377 2.20917 29.6338 2.20908C28.7748 2.26566 28.1535 2.50352 27.5488 3.13573ZM6.83642 8.61376C6.13185 9.45364 6.07843 10.3605 6.07899 11.4205C6.07865 11.5141 6.07831 11.6077 6.07796 11.7041C6.077 12.0119 6.07679 12.3197 6.07668 12.6275C6.07636 12.8426 6.07602 13.0578 6.07566 13.2729C6.07505 13.7234 6.07486 14.1739 6.07492 14.6244C6.07493 15.1998 6.07355 15.7752 6.0718 16.3506C6.07066 16.7949 6.07046 17.2392 6.07052 17.6835C6.0704 17.8955 6.06995 18.1076 6.06916 18.3196C6.06816 18.617 6.06846 18.9145 6.06907 19.2119C6.0685 19.2983 6.06793 19.3847 6.06734 19.4737C6.0732 20.6071 6.28437 21.4874 7.07922 22.3223C7.7982 22.9798 8.52049 23.104 9.4578 23.1737C9.65788 23.1921 9.85661 23.2241 10.0547 23.2578C10.2657 23.5743 10.283 23.6421 10.2821 24.0008C10.2825 24.089 10.2829 24.1771 10.2833 24.2679C10.2829 24.3628 10.2824 24.4577 10.282 24.5555C10.2836 24.7563 10.2852 24.9571 10.287 25.1579C10.2886 25.4747 10.2895 25.7913 10.2888 26.1081C10.2886 26.4137 10.2914 26.7191 10.2947 27.0247C10.2937 27.1194 10.2926 27.2141 10.2916 27.3117C10.2993 27.852 10.2993 27.852 10.5792 28.3036C10.9438 28.4731 11.0954 28.4574 11.4766 28.3359C11.7776 28.1795 11.7776 28.1795 12.0768 27.9717C12.1333 27.9343 12.1898 27.8968 12.248 27.8583C12.4338 27.7349 12.6185 27.6101 12.8032 27.4853C12.9338 27.3983 13.0644 27.3113 13.1951 27.2245C13.4674 27.0434 13.7394 26.8619 14.0112 26.68C14.4081 26.4149 14.8069 26.1527 15.2066 25.8917C15.3024 25.8291 15.3024 25.8291 15.4002 25.7652C15.527 25.6824 15.6538 25.5996 15.7806 25.5169C16.0699 25.3281 16.3589 25.1391 16.6479 24.9498C16.7571 24.8802 16.8663 24.8105 16.9788 24.7387C17.2486 24.5623 17.4983 24.3731 17.7472 24.1683C19.0407 23.1448 20.1533 23.0915 21.7598 23.1273C22.0029 23.128 22.2461 23.1282 22.4892 23.1279C23.1241 23.1282 23.7586 23.1356 24.3934 23.1448C25.4118 23.1582 26.4303 23.16 27.4487 23.1633C27.8024 23.1653 28.156 23.1699 28.5096 23.175C28.7274 23.177 28.9453 23.1789 29.1631 23.1808C29.3086 23.1839 29.3086 23.1839 29.457 23.1871C30.4365 23.1923 31.2387 22.9728 31.9946 22.3398C32.5453 21.7934 32.8843 21.1285 32.9261 20.3482C32.9237 20.2233 32.9214 20.0984 32.9189 19.9697C32.9171 19.8432 32.9153 19.7168 32.9134 19.5865C32.911 19.4909 32.9087 19.3953 32.9062 19.2969C32.7296 19.2946 32.7296 19.2946 32.5494 19.2924C32.1084 19.2864 31.6674 19.2786 31.2263 19.2702C31.0363 19.2669 30.8462 19.264 30.656 19.2617C29.1744 19.2431 27.8961 19.2057 26.7585 18.1348C26.05 17.342 25.8851 16.5165 25.8776 15.4828C25.8766 15.3965 25.8756 15.3103 25.8745 15.2214C25.8713 14.9373 25.8688 14.6532 25.8663 14.3691C25.8642 14.1717 25.8621 13.9743 25.8599 13.777C25.8543 13.2582 25.8493 12.7394 25.8444 12.2207C25.8393 11.691 25.8336 11.1614 25.828 10.6317C25.8171 9.59302 25.8068 8.55432 25.7969 7.51561C23.588 7.50849 21.3791 7.50312 19.1702 7.49983C18.1445 7.49826 17.1189 7.49612 16.0932 7.49263C15.1991 7.48959 14.3049 7.48762 13.4107 7.48695C12.9375 7.48655 12.4642 7.48562 11.9909 7.4834C11.545 7.48132 11.0991 7.48069 10.6532 7.48115C10.49 7.48107 10.3268 7.48046 10.1635 7.47929C8.83257 7.4702 7.78602 7.58684 6.83642 8.61376Z" fill="black"/>
<path d="M29.4467 26.5332C30.3601 27.3211 30.8351 28.2584 30.9765 29.4531C30.9889 29.743 30.9884 30.0323 30.9864 30.3224C30.9862 30.4426 30.9862 30.4426 30.986 30.5652C30.9854 30.8187 30.9841 31.0722 30.9829 31.3257C30.9823 31.4986 30.9819 31.6715 30.9815 31.8444C30.9804 32.2661 30.9786 32.6877 30.9765 33.1094C31.0415 33.1204 31.1065 33.1314 31.1735 33.1427C32.5027 33.3848 33.7037 34.0076 34.5272 35.1002C35.434 36.4585 35.8456 37.9785 35.5286 39.5999C35.2757 40.5536 34.8792 41.3099 34.2265 42.0469C34.1782 42.1082 34.1299 42.1694 34.0801 42.2326C33.6958 42.678 33.232 42.9361 32.7158 43.2022C32.6152 43.2549 32.6152 43.2549 32.5127 43.3087C32.0056 43.5567 31.5383 43.6414 30.9765 43.6719C30.9776 43.765 30.9786 43.8582 30.9797 43.9541C30.9832 44.3043 30.9858 44.6545 30.9877 45.0047C30.9887 45.1553 30.9901 45.306 30.9918 45.4567C31.0083 46.8933 30.939 48.286 29.9248 49.4161C29.0484 50.1843 28.0774 50.5868 26.914 50.5781C25.6358 50.433 24.7776 49.9872 23.9477 49.0115C23.6059 48.5208 23.317 47.9209 23.2264 47.3249C23.1734 47.1121 23.1734 47.1121 22.9834 47.0034C22.9074 46.9701 22.8314 46.9368 22.7531 46.9025C22.6654 46.8637 22.5778 46.8249 22.4874 46.785C22.3897 46.7443 22.292 46.7036 22.1913 46.6616C22.0881 46.618 21.9848 46.5743 21.8784 46.5294C19.8173 45.6792 17.6943 45.0233 15.5327 44.4844C15.4579 44.4657 15.3831 44.447 15.306 44.4278C14.2729 44.172 13.2353 43.9595 12.1874 43.7735C12.1865 43.8738 12.1865 43.8738 12.1856 43.9762C12.1791 44.6748 12.1705 45.3734 12.1608 46.072C12.1574 46.3324 12.1546 46.5929 12.1523 46.8534C12.1488 47.2285 12.1435 47.6036 12.1378 47.9788C12.1372 48.0945 12.1366 48.2103 12.1359 48.3296C12.1221 49.0845 12.0753 49.7298 11.5622 50.3238C11.4836 50.3889 11.4051 50.454 11.3242 50.521C11.2456 50.5879 11.1671 50.6548 11.0861 50.7237C10.3964 51.2248 9.12612 51.0696 8.3182 50.9539C7.62701 50.812 6.93062 50.5533 6.49994 49.9688C6.17393 49.3338 6.08613 48.6981 5.98776 47.9958C5.97016 47.8756 5.95256 47.7554 5.93442 47.6315C5.87868 47.2491 5.82432 46.8665 5.76996 46.4839C5.73229 46.2246 5.69454 45.9654 5.65669 45.7061C5.58813 45.2337 5.5197 44.7613 5.4525 44.2887C5.43899 44.1938 5.42547 44.099 5.41155 44.0013C5.38275 43.7735 5.38275 43.7735 5.38275 43.5703C5.18794 43.5358 5.18794 43.5358 4.9892 43.5005C3.93143 43.2588 3.19607 42.7026 2.43744 41.9453C2.37879 41.8879 2.32014 41.8304 2.25971 41.7712C1.174 40.6148 0.953505 39.1941 0.983828 37.6793C1.0502 36.2123 1.7799 34.9121 2.84369 33.9219C3.82071 33.1706 4.94562 32.6868 6.18702 32.6936C6.36612 32.6939 6.36612 32.6939 6.54883 32.6943C6.74222 32.6951 6.74222 32.6951 6.93952 32.696C7.21692 32.696 7.49432 32.6953 7.77173 32.6944C7.8437 32.6942 7.91568 32.694 7.98983 32.6937C11.5758 32.6807 11.5758 32.6807 15.0853 31.9932C15.4543 31.8857 15.8251 31.7896 16.1976 31.6951C17.7278 31.2999 19.2309 30.8282 20.7124 30.2782C20.9203 30.2019 21.1289 30.1278 21.3383 30.0559C22.4947 29.7117 22.4947 29.7117 23.3494 28.9382C23.4478 28.6046 23.4478 28.6046 23.4966 28.2634C23.6469 27.502 24.2142 26.8905 24.8383 26.457C26.2897 25.5917 28.0328 25.493 29.4467 26.5332ZM25.0859 28.0313C24.4627 28.8879 24.5071 29.8088 24.5156 30.8181C24.5152 30.9961 24.5147 31.174 24.5139 31.352C24.5124 31.8327 24.5142 32.3134 24.5165 32.7941C24.5186 33.2984 24.518 33.8026 24.5178 34.3069C24.5178 35.1533 24.5198 35.9997 24.523 36.8461C24.5268 37.8235 24.5277 38.8009 24.527 39.7783C24.5263 40.7204 24.5274 41.6624 24.5294 42.6045C24.5302 43.0046 24.5305 43.4048 24.5303 43.8049C24.5302 44.2763 24.5317 44.7476 24.5343 45.2189C24.535 45.3915 24.5353 45.5641 24.5349 45.7367C24.5345 45.973 24.536 46.2092 24.538 46.4455C24.5384 46.5775 24.5388 46.7095 24.5392 46.8455C24.6186 47.6235 24.9125 48.1503 25.481 48.6794C25.989 49.0877 26.57 49.2553 27.2187 49.2578C27.9914 49.1474 28.6488 48.8274 29.1349 48.2009C29.5759 47.5004 29.6685 46.9199 29.6705 46.0946C29.6708 46.0238 29.6711 45.9531 29.6714 45.8802C29.6722 45.6445 29.6724 45.4088 29.6726 45.173C29.673 45.0035 29.6735 44.8339 29.6741 44.6644C29.6754 44.2046 29.6761 43.7448 29.6765 43.285C29.6768 42.9975 29.6772 42.7099 29.6777 42.4224C29.6791 41.5218 29.6801 40.6211 29.6805 39.7205C29.6809 38.6826 29.6827 37.6446 29.6856 36.6067C29.6878 35.8032 29.6889 34.9997 29.689 34.1963C29.6891 33.7169 29.6897 33.2376 29.6915 32.7582C29.6932 32.3071 29.6934 31.8559 29.6925 31.4048C29.6924 31.2398 29.6929 31.0748 29.6939 30.9098C29.7006 29.7437 29.686 28.6835 28.8405 27.7968C27.6976 26.8149 26.0874 26.9038 25.0859 28.0313ZM22.6202 30.9413C22.5297 30.9778 22.4392 31.0143 22.346 31.052C22.2468 31.092 22.1476 31.1321 22.0454 31.1734C18.9904 32.3803 15.8457 33.2641 12.6147 33.8552C12.3047 33.8875 12.3047 33.8875 12.1874 34.0235C12.1778 34.283 12.1747 34.5399 12.1759 34.7995C12.1759 34.8807 12.1759 34.962 12.1759 35.0457C12.1759 35.3155 12.1767 35.5853 12.1775 35.8552C12.1777 36.0417 12.1779 36.2283 12.178 36.4149C12.1783 36.9069 12.1793 37.399 12.1805 37.891C12.1815 38.3927 12.182 38.8944 12.1825 39.3962C12.1836 40.3813 12.1853 41.3664 12.1874 42.3516C13.0785 42.5576 13.0785 42.5576 13.97 42.7619C16.9313 43.4377 19.7736 44.2452 22.5862 45.3988C22.8708 45.5134 22.8708 45.5134 23.2578 45.6016C23.2578 40.7083 23.2578 35.815 23.2578 30.7735C23.008 30.7735 22.8518 30.8465 22.6202 30.9413ZM3.16742 35.585C2.39802 36.6293 2.20249 37.7275 2.33588 39C2.58948 40.0891 3.17836 41.0142 4.08148 41.6787C5.48409 42.4875 6.88963 42.4004 8.46137 42.377C9.25527 42.3686 10.0492 42.3602 10.8671 42.3516C10.8671 39.6033 10.8671 36.855 10.8671 34.0235C10.0376 34.0151 9.20811 34.0067 8.35346 33.9981C8.09414 33.9944 7.83482 33.9907 7.56764 33.9869C7.35826 33.9857 7.14889 33.9846 6.93952 33.9838C6.83391 33.9817 6.72831 33.9796 6.61951 33.9775C5.18521 33.9768 4.07863 34.4788 3.16742 35.585ZM30.9765 34.4297C30.9765 37.0439 30.9765 39.6581 30.9765 42.3516C32.2292 42.0732 32.9508 41.5468 33.7187 40.5235C34.3102 39.3819 34.451 38.4176 34.1249 37.1719C33.7356 36.0982 33.0043 35.2558 31.9921 34.7344C31.657 34.6338 31.3218 34.5333 30.9765 34.4297ZM6.80463 43.6719C6.88582 44.7273 6.99539 45.7601 7.14631 46.8052C7.17264 46.9903 7.19802 47.1755 7.22248 47.3609C7.25829 47.6319 7.29694 47.9023 7.33625 48.1728C7.34663 48.2554 7.35702 48.338 7.36773 48.4232C7.42948 48.8251 7.46829 49.0062 7.75953 49.3052C8.32009 49.6361 8.87315 49.6957 9.51508 49.7022C9.71048 49.7065 9.71048 49.7065 9.90982 49.7109C10.3106 49.657 10.4226 49.5739 10.664 49.2578C10.7924 49.0011 10.7778 48.8248 10.7771 48.5375C10.7771 48.4298 10.7771 48.322 10.7771 48.211C10.7763 48.036 10.7763 48.036 10.7755 47.8574C10.7753 47.6786 10.7753 47.6786 10.775 47.4962C10.7745 47.1143 10.7732 46.7325 10.7719 46.3506C10.7714 46.0922 10.7709 45.8338 10.7705 45.5754C10.7695 44.9409 10.7675 44.3064 10.7656 43.6719C9.45846 43.6719 8.15135 43.6719 6.80463 43.6719Z" fill="black"/>
<path d="M36.753 5.29385C36.9706 5.42433 37.1882 5.55472 37.406 5.68502C37.518 5.75261 37.63 5.8202 37.7455 5.88983C38.295 6.21878 38.8508 6.53665 39.4063 6.85537C39.6256 6.98202 39.8448 7.10871 40.064 7.23544C40.5153 7.49595 40.9677 7.75425 41.4209 8.01144C41.6422 8.13811 41.8636 8.2648 42.085 8.3915C42.1876 8.44917 42.2903 8.50684 42.396 8.56626C43.4694 9.18355 43.4694 9.18355 43.6656 9.88955C43.6729 10.3167 43.6128 10.6217 43.3672 10.9687C42.75 11.5397 41.9752 11.9252 41.2471 12.3334C41.0574 12.4406 40.8679 12.5479 40.6784 12.6553C40.5488 12.7287 40.4192 12.802 40.2896 12.8752C39.7413 13.1851 39.1955 13.4992 38.6504 13.8148C38.3216 14.005 37.9924 14.1944 37.663 14.3837C37.2976 14.5941 36.9341 14.8073 36.5728 15.0248C36.4622 15.0902 36.4622 15.0902 36.3494 15.1569C36.2187 15.2342 36.0888 15.3128 35.96 15.3931C35.4915 15.6671 35.1604 15.6864 34.6328 15.6405C34.1787 15.4092 33.9336 15.186 33.7188 14.7265C33.6898 14.4235 33.6771 14.1421 33.6793 13.8394C33.6788 13.7512 33.6783 13.6629 33.6777 13.572C33.6764 13.2809 33.6773 12.9899 33.6783 12.6988C33.6781 12.496 33.6778 12.2933 33.6774 12.0905C33.677 11.6658 33.6776 11.2411 33.679 10.8163C33.6808 10.2725 33.6798 9.72875 33.678 9.18495C33.6769 8.76629 33.6772 8.34764 33.678 7.92898C33.6782 7.72851 33.678 7.52803 33.6772 7.32755C33.6765 7.04702 33.6777 6.76657 33.6793 6.48604C33.6787 6.40356 33.6781 6.32107 33.6775 6.23609C33.683 5.74172 33.7548 5.40702 34.0235 4.97646C34.9008 4.15568 35.8971 4.76711 36.753 5.29385ZM35.0391 5.99209C35.0391 8.74037 35.0391 11.4887 35.0391 14.3202C35.5083 14.0521 35.9775 13.784 36.461 13.5077C36.7442 13.3505 37.0276 13.1938 37.3115 13.038C38.9797 12.1163 40.62 11.1435 42.25 10.1562C41.7773 9.74016 41.2427 9.45636 40.6948 9.15322C39.8418 8.67627 38.9931 8.19296 38.1494 7.69961C38.0484 7.64063 37.9474 7.58165 37.8434 7.52088C37.3741 7.24642 36.9057 6.97065 36.4387 6.69231C36.3583 6.64449 36.2778 6.59666 36.1949 6.54738C36.0463 6.45894 35.898 6.37011 35.7499 6.28083C35.4176 6.06469 35.4176 6.06469 35.0391 5.99209Z" fill="black"/>
<path d="M10.8669 18.4693C11.0279 18.4683 11.0279 18.4683 11.1922 18.4671C11.3697 18.4667 11.3697 18.4667 11.5507 18.4663C11.6749 18.4656 11.7991 18.465 11.927 18.4643C12.2682 18.4626 12.6094 18.4615 12.9507 18.4606C13.1638 18.4601 13.3769 18.4595 13.59 18.4588C14.2565 18.4569 14.9231 18.4555 15.5897 18.4546C16.3595 18.4536 17.1293 18.4509 17.8991 18.4468C18.4939 18.4438 19.0887 18.4423 19.6835 18.4419C20.0389 18.4417 20.3942 18.4408 20.7496 18.4382C21.1459 18.4354 21.5423 18.4359 21.9386 18.4366C22.0565 18.4353 22.1744 18.434 22.2959 18.4326C22.4038 18.4333 22.5117 18.434 22.6229 18.4348C22.7635 18.4344 22.7635 18.4344 22.907 18.434C23.2375 18.5007 23.3607 18.6248 23.5625 18.8905C23.5562 19.2587 23.5562 19.2587 23.4609 19.6015C23.1248 19.8256 23.0229 19.8302 22.632 19.8311C22.5235 19.8318 22.415 19.8325 22.3032 19.8333C22.1841 19.833 22.0651 19.8328 21.9425 19.8325C21.8171 19.833 21.6917 19.8335 21.5626 19.8341C21.2187 19.8352 20.8747 19.8355 20.5308 19.8352C20.2438 19.8351 19.9569 19.8356 19.6699 19.8361C18.993 19.8372 18.3161 19.8373 17.6392 19.8367C16.9405 19.8361 16.2418 19.8373 15.5431 19.8395C14.9435 19.8413 14.3438 19.8419 13.7442 19.8415C13.3859 19.8413 13.0277 19.8416 12.6695 19.843C12.2702 19.8445 11.8709 19.8436 11.4716 19.8424C11.293 19.8436 11.293 19.8436 11.1109 19.8448C11.0024 19.8441 10.8939 19.8433 10.7821 19.8426C10.6404 19.8426 10.6404 19.8426 10.4959 19.8427C10.2126 19.7974 10.1262 19.7239 9.95312 19.4999C9.86426 19.3095 9.86426 19.3095 9.85156 19.0937C10.1138 18.5568 10.2878 18.472 10.8669 18.4693Z" fill="black"/>
<path d="M10.757 14.5084C10.9191 14.5073 10.9191 14.5073 11.0845 14.5062C11.2041 14.5059 11.3237 14.5057 11.4469 14.5054C11.5721 14.5047 11.6973 14.504 11.8262 14.5034C12.1706 14.5017 12.5149 14.5005 12.8593 14.4997C13.0743 14.4992 13.2894 14.4985 13.5044 14.4979C14.1768 14.496 14.8492 14.4945 15.5217 14.4937C16.2985 14.4927 17.0753 14.49 17.8521 14.4859C18.4521 14.4828 19.0521 14.4813 19.6521 14.481C20.0106 14.4808 20.3691 14.4798 20.7277 14.4773C21.1277 14.4745 21.5277 14.4749 21.9277 14.4756C22.0467 14.4743 22.1657 14.473 22.2883 14.4717C22.4517 14.4727 22.4517 14.4727 22.6184 14.4738C22.7603 14.4735 22.7603 14.4735 22.9051 14.4731C23.237 14.5395 23.3601 14.6626 23.5625 14.9296C23.5562 15.2978 23.5562 15.2978 23.4609 15.6405C23.1248 15.8646 23.0229 15.8693 22.632 15.8701C22.5235 15.8709 22.415 15.8716 22.3032 15.8723C22.1841 15.8721 22.0651 15.8718 21.9425 15.8716C21.8171 15.8721 21.6917 15.8726 21.5626 15.8731C21.2187 15.8743 20.8747 15.8746 20.5308 15.8743C20.2438 15.8742 19.9569 15.8747 19.6699 15.8752C18.993 15.8763 18.3161 15.8763 17.6392 15.8757C16.9405 15.8751 16.2418 15.8764 15.5431 15.8785C14.9435 15.8803 14.3438 15.8809 13.7442 15.8806C13.3859 15.8804 13.0277 15.8807 12.6695 15.8821C12.2702 15.8836 11.8709 15.8827 11.4716 15.8815C11.293 15.8826 11.293 15.8826 11.1109 15.8838C11.0024 15.8831 10.8939 15.8824 10.7821 15.8817C10.6404 15.8817 10.6404 15.8817 10.4959 15.8817C10.2126 15.8364 10.1262 15.7629 9.95312 15.539C9.86426 15.3485 9.86426 15.3485 9.85156 15.1327C10.1143 14.6192 10.1911 14.511 10.757 14.5084Z" fill="black"/>
<path d="M10.757 10.5475C10.9191 10.5464 10.9191 10.5464 11.0845 10.5453C11.2041 10.545 11.3237 10.5447 11.4469 10.5444C11.5721 10.5438 11.6973 10.5431 11.8262 10.5424C12.1706 10.5408 12.5149 10.5396 12.8593 10.5387C13.0743 10.5382 13.2894 10.5376 13.5044 10.537C14.1768 10.535 14.8492 10.5336 15.5217 10.5327C16.2985 10.5317 17.0753 10.5291 17.8521 10.525C18.4521 10.5219 19.0521 10.5204 19.6521 10.5201C20.0106 10.5198 20.3691 10.5189 20.7277 10.5164C21.1277 10.5136 21.5277 10.514 21.9277 10.5147C22.0467 10.5134 22.1657 10.5121 22.2883 10.5107C22.4517 10.5118 22.4517 10.5118 22.6184 10.5129C22.7603 10.5125 22.7603 10.5125 22.9051 10.5121C23.237 10.5786 23.3601 10.7017 23.5625 10.9687C23.5562 11.3368 23.5562 11.3368 23.4609 11.6796C23.1248 11.9037 23.0229 11.9083 22.632 11.9092C22.5235 11.9099 22.415 11.9106 22.3032 11.9114C22.1841 11.9111 22.0651 11.9109 21.9425 11.9106C21.8171 11.9111 21.6917 11.9117 21.5626 11.9122C21.2187 11.9134 20.8747 11.9136 20.5308 11.9134C20.2438 11.9132 19.9569 11.9137 19.6699 11.9142C18.993 11.9154 18.3161 11.9154 17.6392 11.9148C16.9405 11.9142 16.2418 11.9154 15.5431 11.9176C14.9435 11.9194 14.3438 11.92 13.7442 11.9197C13.3859 11.9195 13.0277 11.9197 12.6695 11.9212C12.2702 11.9227 11.8709 11.9217 11.4716 11.9205C11.293 11.9217 11.293 11.9217 11.1109 11.9229C11.0024 11.9222 10.8939 11.9215 10.7821 11.9207C10.6404 11.9208 10.6404 11.9208 10.4959 11.9208C10.2126 11.8755 10.1262 11.802 9.95312 11.578C9.86426 11.3876 9.86426 11.3876 9.85156 11.1718C10.1143 10.6583 10.1911 10.5501 10.757 10.5475Z" fill="black"/>
<path d="M37.9268 37.4339C38.0593 37.4323 38.1919 37.4307 38.3284 37.429C38.4728 37.4289 38.6172 37.4289 38.7615 37.429C38.91 37.4282 39.0585 37.4275 39.207 37.4266C39.518 37.4253 39.829 37.4251 40.14 37.4257C40.5381 37.4263 40.9359 37.4232 41.3339 37.4191C41.6405 37.4164 41.9471 37.4162 42.2538 37.4165C42.4005 37.4164 42.5472 37.4154 42.6939 37.4136C42.8992 37.4113 43.1046 37.4126 43.31 37.4141C43.4267 37.4139 43.5435 37.4137 43.6637 37.4135C44.0742 37.4963 44.2292 37.6589 44.4843 37.9844C44.4769 38.3657 44.451 38.5255 44.1797 38.7969C43.8912 38.8227 43.8912 38.8227 43.5181 38.8232C43.4163 38.8237 43.4163 38.8237 43.3124 38.8242C43.0874 38.8251 42.8625 38.8245 42.6376 38.8239C42.4815 38.824 42.3254 38.8242 42.1693 38.8244C41.8418 38.8247 41.5144 38.8243 41.187 38.8234C40.7671 38.8222 40.3473 38.8229 39.9275 38.8241C39.605 38.8248 39.2825 38.8246 38.9601 38.8241C38.8053 38.8239 38.6505 38.8241 38.4957 38.8246C38.2793 38.8251 38.0629 38.8243 37.8465 38.8232C37.6617 38.8229 37.6617 38.8229 37.4732 38.8227C37.1718 38.7969 37.1718 38.7969 36.8672 38.5938C36.8045 38.0302 36.8045 38.0302 36.8672 37.7813C37.2024 37.4525 37.4675 37.4373 37.9268 37.4339Z" fill="black"/>
<path d="M41.0312 29.5547C41.2343 29.8594 41.2343 29.8594 41.2322 30.209C41.1328 30.5703 41.1328 30.5703 40.8853 30.788C40.7772 30.8476 40.669 30.9072 40.5575 30.9687C40.4693 31.0187 40.4693 31.0187 40.3793 31.0698C40.2546 31.1403 40.1293 31.2098 40.0035 31.2783C39.8168 31.3804 39.6326 31.4859 39.4487 31.5929C39.0847 31.8047 38.7188 32.0129 38.3525 32.2207C38.2275 32.2919 38.1025 32.363 37.9776 32.4342C37.7424 32.5681 37.5071 32.7018 37.2716 32.8353C37.0279 32.9741 36.7857 33.1151 36.5438 33.257C36.2389 33.4244 36.0901 33.4876 35.7499 33.4141C35.5087 33.2554 35.5087 33.2554 35.3437 33.0078C35.312 32.6651 35.312 32.6651 35.4453 32.2969C36.0748 31.7593 36.8757 31.3871 37.5971 30.9893C38.4839 30.5027 38.4839 30.5027 39.355 29.9891C39.4189 29.9503 39.4829 29.9115 39.5487 29.8715C39.7097 29.7727 39.8695 29.6719 40.0291 29.571C40.4075 29.4179 40.6406 29.4493 41.0312 29.5547Z" fill="black"/>
<path d="M36.3594 42.9609C36.6169 43.0704 36.6169 43.0704 36.8735 43.2255C36.9702 43.2829 37.0669 43.3403 37.1665 43.3995C37.2688 43.4621 37.3711 43.5248 37.4766 43.5893C37.6937 43.7194 37.9108 43.8495 38.128 43.9797C38.2384 44.0464 38.3488 44.1132 38.4625 44.182C38.7889 44.3779 39.1172 44.5699 39.4467 44.7604C39.5488 44.8197 39.651 44.879 39.7562 44.9401C39.9514 45.0533 40.1469 45.1663 40.3425 45.2788C40.4741 45.3559 40.4741 45.3559 40.6083 45.4345C40.7239 45.5015 40.7239 45.5015 40.8418 45.5698C41.1083 45.7572 41.2214 45.9354 41.2788 46.2553C41.2344 46.5155 41.2344 46.5155 41.0186 46.7568C40.6501 46.965 40.5215 46.9206 40.1172 46.8202C39.8378 46.6882 39.8378 46.6882 39.5515 46.5199C39.4445 46.4577 39.3376 46.3955 39.2275 46.3315C39.1147 46.2644 39.0019 46.1974 38.8857 46.1283C38.7685 46.0591 38.6512 45.99 38.5339 45.9208C38.3554 45.8156 38.177 45.7103 37.9989 45.6044C37.6208 45.3801 37.2394 45.1629 36.8549 44.9497C36.6707 44.8453 36.4865 44.741 36.3022 44.6366C36.2165 44.5904 36.1308 44.5443 36.0425 44.4967C35.4726 44.1676 35.4726 44.1676 35.3311 43.7031C35.3438 43.3671 35.3438 43.3671 35.5024 43.1195C35.8182 42.9171 35.9884 42.9303 36.3594 42.9609Z" fill="black"/>
</g>
<defs>
<clipPath id="clip0_2472_4149">
<rect width="52" height="52" fill="white"/>
</clipPath>
</defs>
</svg>
