<svg width="120" height="120" viewBox="0 0 120 120" fill="none" xmlns="http://www.w3.org/2000/svg">
<path d="M36.4947 94.8207L26.7598 109.878C36.2787 116.268 47.7097 120 60.0027 120C72.6621 120 84.4216 116.042 94.1137 109.288L84.8615 95.5715L36.4947 94.8207Z" fill="#B78A2D"/>
<path d="M76.4561 98.0199L36.6834 97.4555L28.7402 109.381C37.7943 115.174 48.5335 118.536 60.0412 118.536C71.8465 118.536 82.8445 114.999 92.0439 108.921L84.2968 97.0786L76.4561 98.0199Z" fill="#2B2B88"/>
<path d="M104.623 62.4408L119.947 62.8679C119.978 62.0008 120 61.1347 120 60.2606C120 27.0299 93.0847 0 60.003 0C26.9173 0 0 27.0299 0 60.2606C0 61.3603 0.0288664 62.4529 0.0895851 63.5405L15.7441 62.902L104.623 62.4408Z" fill="#B78A2D"/>
<path d="M1.57031 60.0973C1.57031 60.6175 1.57429 61.1468 1.59321 61.6881C3.84676 61.5889 10.9678 61.3002 13.2173 61.212C13.2104 60.8351 106.704 60.5083 106.696 60.7088C108.944 60.7719 116.081 60.9724 118.331 61.0285C118.333 60.7168 118.345 60.398 118.345 60.0963C118.345 27.7617 92.1536 1.46057 59.9558 1.46057C27.7639 1.46157 1.57031 27.7617 1.57031 60.0973Z" fill="#2B2B88"/>
<path d="M14.8555 60.2611C14.8555 85.238 35.1096 105.557 60.0013 105.557C84.891 105.557 105.138 85.238 105.138 60.2611C105.138 35.2821 84.891 14.9644 60.0013 14.9644C35.1096 14.9644 14.8555 35.2821 14.8555 60.2611Z" fill="#B78A2D"/>
<path d="M100.316 63.3001L100.363 55.6297L97.299 55.6989C96.9974 53.2249 96.4589 50.8292 95.7044 48.5256L98.4168 47.41L95.5351 40.3079L92.6326 41.603C91.4212 39.4839 90.0078 37.4892 88.4271 35.6548L90.614 33.4655L85.2438 28.0234L82.9475 30.4563C81.0562 28.9797 79.0207 27.6826 76.8587 26.593L78.093 23.6028L71.0665 20.6507L69.8312 23.8925C67.5568 23.272 65.1987 22.8601 62.772 22.6826L62.7819 19.3346L55.1632 19.3206L55.2568 22.8761C52.8639 23.1858 50.5366 23.7151 48.3 24.4539L47.013 21.3053L39.9696 24.2354L41.4308 27.5142C39.3545 28.6981 37.4025 30.0834 35.5969 31.6321L33.199 29.2173L27.8119 34.6383L30.392 37.0912C28.9238 38.9687 27.6328 40.9876 26.5388 43.1317L23.4213 41.7805L20.4102 48.8244L23.7985 50.1766C23.2103 52.2977 22.8012 54.4859 22.5971 56.7373L19.3133 56.6952L19.2188 64.3657L22.6439 64.3145C22.9106 66.7464 23.3944 69.1121 24.1041 71.3875L21.102 72.6004L23.9279 79.7215L27.0534 78.3592C28.2161 80.4753 29.5708 82.4751 31.1087 84.3266L28.8023 86.599L34.1217 92.0852L36.4828 89.6243C38.3481 91.1289 40.3608 92.4621 42.4939 93.5938L41.2407 96.5539L48.2473 99.5601L49.4706 96.4366C51.749 97.1042 54.1171 97.5643 56.5568 97.7839L56.5219 100.937L64.1406 101.011L64.0779 97.7217C66.5156 97.4561 68.8936 96.9579 71.1651 96.2452L72.3058 99.087L79.3691 96.2111L78.094 93.278C80.2291 92.0942 82.2447 90.7069 84.0971 89.1471L86.1855 91.2772L91.6073 85.8983L89.3657 83.7331C90.8897 81.8266 92.2295 79.7656 93.3572 77.5784L96.0189 78.7101L98.9782 71.6411L96.1533 70.5335C96.8083 68.2039 97.2502 65.776 97.4463 63.2841L100.316 63.3001Z" fill="#2B2B88"/>
<path d="M94.6385 60.2606C94.6385 79.4487 79.1304 94.994 60.001 94.994C40.8647 94.994 25.3516 79.4477 25.3516 60.2606C25.3516 41.0776 40.8647 25.5303 60.001 25.5303C79.1304 25.5303 94.6385 41.0776 94.6385 60.2606Z" fill="white"/>
<path d="M36.4818 112.021C36.2031 110.832 35.786 109.669 35.5073 108.483C35.3998 108.031 35.2197 107.61 34.8076 107.347C34.6015 107.216 34.4074 107.12 34.1755 107.224C33.3782 107.588 33.9426 108.457 34.3238 108.873C34.8902 109.506 35.6198 109.725 36.452 109.619C36.9616 109.556 37.514 109.278 37.5101 108.672C37.4971 107.951 36.7446 107.472 36.7018 106.794C36.659 106.075 37.2911 106.166 37.8007 106.346L40.4942 107.511M39.032 111.462L40.8834 106.113M40.8834 112.238L42.7289 106.889M35.8746 103.476C35.8746 103.476 40.1866 106.497 48.5877 108.441M45.9639 113.871L47.3534 108.21M46.6626 110.922C46.6626 110.922 44.5843 110.229 44.5823 110.227C44.2707 110.123 43.8537 110.108 43.56 110.256C43.2027 110.431 43.1011 110.987 43.3719 111.282C43.7939 111.73 44.3832 110.824 44.0468 110.688M51.2076 109.603L50.9727 112.553C50.9727 112.553 51.2842 113.718 53.051 113.718H53.3626M53.5915 109.757L53.3626 115.27M50.2819 108.907C50.2819 108.907 58.679 110.532 65.2246 109.524M56.5966 109.835C57.1142 110.566 57.9444 111.278 58.0738 112.21C58.237 113.426 57.1013 113.626 56.1338 113.484M55.2867 112.087C55.2867 112.087 56.1348 114.336 58.3684 116.043M60.9783 110.01C60.9823 110.844 61.1495 111.811 61.1495 112.643C61.1495 113.064 61.1963 114.003 60.7394 114.235C60.2885 114.465 59.7868 113.978 59.6953 113.563C59.4285 112.308 63.1423 112.78 63.9177 112.785M63.5315 109.912L63.9943 115.579M71.622 108.751L72.8503 114.104M71.9286 110.922L69.9249 111.157C69.9249 111.157 67.7569 111.272 67.9182 112.553C67.9182 112.553 67.8445 113.718 69.5396 113.485L72.4681 113.095M69.1534 111.388L71.0049 113.173M76.6975 113.718C76.6975 113.718 74.2359 113.485 74.3155 111.697C74.3155 111.697 74.3912 109.835 76.0107 110.064C76.0107 110.064 76.8587 110.226 76.5512 111.231C76.5512 111.231 78.1667 107.738 79.8618 109.369C79.8618 109.369 80.7099 110.306 79.3293 112.553M66.9994 109.446C66.9994 109.446 76.1649 108.674 84.8666 103.241M80.9438 105.646C80.9438 105.646 82.4677 108.415 82.4837 108.442C82.8002 109.013 82.1413 109.851 81.5351 109.582C80.7726 109.243 81.2355 108.458 81.7142 108.129L84.9492 106.735M83.4094 104.248L86.0282 109.217M77.009 107.198L77.7088 109.369" stroke="white" stroke-width="0.832409"/>
<path d="M48.1804 106.512C48.1804 106.766 47.9733 106.968 47.7245 106.968C47.4687 106.968 47.2656 106.766 47.2656 106.512C47.2656 106.257 47.4687 106.052 47.7245 106.052C47.9733 106.052 48.1804 106.257 48.1804 106.512Z" fill="white"/>
<path d="M63.9058 108.274C63.9058 108.528 63.7058 108.726 63.4509 108.726C63.2021 108.726 62.998 108.528 62.998 108.274C62.998 108.017 63.2021 107.814 63.4509 107.814C63.7058 107.814 63.9058 108.017 63.9058 108.274Z" fill="white"/>
<path d="M46.8574 59.4676C46.8574 60.3858 46.1148 61.1316 45.207 61.1316C44.2972 61.1316 43.5547 60.3858 43.5547 59.4676C43.5547 58.5514 44.2972 57.8076 45.207 57.8076C46.1148 57.8076 46.8574 58.5524 46.8574 59.4676Z" fill="#2B2B88"/>
<path d="M26.9824 60.2994C26.9824 78.5502 41.8675 93.2856 59.9527 93.429L40.449 33.5332C32.2868 39.5757 26.9824 49.3151 26.9824 60.2994Z" fill="#5CCAE8"/>
<path d="M78.4436 32.8066L60.5117 93.4993C78.4665 93.1936 92.9245 78.4472 92.9245 60.2996C92.9255 48.8662 87.1831 38.778 78.4436 32.8066Z" fill="#FFE275"/>
<path d="M59.9529 27.098C53.3335 27.098 47.1661 29.0667 41.998 32.4519L60.2485 88.766L77.177 31.9908C72.1653 28.8903 66.2676 27.098 59.9529 27.098Z" fill="#CF2027"/>
<path d="M59.653 58.7031L56.0039 51.6632L59.4977 47.9894L63.2981 51.8136L59.653 58.7031Z" fill="#B78A2D"/>
<path d="M59.653 58.7031L56.0039 51.6632L59.4977 47.9894L63.2981 51.8136L59.653 58.7031Z" stroke="white" stroke-width="0.644118"/>
<path d="M53.882 51.5113L48.709 47.9889L54.1806 44.316L59.6533 47.9889L53.882 51.5113Z" fill="#B78A2D"/>
<path d="M53.882 51.5113L48.709 47.9889L54.1806 44.316L59.6533 47.9889L53.882 51.5113Z" stroke="white" stroke-width="0.644118"/>
<path d="M59.0413 47.3779L52.0566 42.7868L54.9453 34.0659L58.3395 40.0372L59.0413 47.3779Z" fill="#B78A2D"/>
<path d="M59.0413 47.3779L52.0566 42.7868L54.9453 34.0659L58.3395 40.0372L59.0413 47.3779Z" stroke="white" stroke-width="0.644118"/>
<path d="M56.2578 36.4293L59.6541 31.4644L62.8722 36.6668L60.6365 40.8258L59.0131 41.2849L56.2578 36.4293Z" fill="#B78A2D"/>
<path d="M56.2578 36.4293L59.6541 31.4644L62.8722 36.6668L60.6365 40.8258L59.0131 41.2849L56.2578 36.4293Z" stroke="white" stroke-width="0.644118"/>
<path d="M63.6042 43.5469L70.2833 47.9895L65.1262 51.512L58.248 47.0322L63.6042 43.5469Z" fill="#B78A2D"/>
<path d="M63.6042 43.5469L70.2833 47.9895L65.1262 51.512L58.248 47.0322L63.6042 43.5469Z" stroke="white" stroke-width="0.644118"/>
<path d="M60.4101 77.6046H58.8105V57.1295H60.4101V77.6046Z" fill="#B78A2D"/>
<path d="M60.4101 77.6046H58.8105V57.1295H60.4101V77.6046Z" stroke="white" stroke-width="0.644118"/>
<path d="M37.645 45.2068L41.6434 50.284L44.9452 58.8586L43.034 66.3816L39.0375 72.5103L31.3939 66.555L36.4266 61.3105L41.2961 51.6844M44.771 59.5562L32.0857 53.604L36.4266 44.3347M37.4738 61.3095L42.166 66.9049M31.2188 66.9049L34.8659 75.6559L35.3655 76.1801L41.9898 83.1779L52.4175 87.7279L53.6309 88.0797L49.9838 78.1088L33.6495 76.0077M39.7363 73.5558L42.3432 84.2255" stroke="white" stroke-width="0.832409"/>
<path d="M33.6494 53.4312C33.6494 54.4978 32.7934 55.3568 31.7403 55.3568C30.6842 55.3568 29.8281 54.4978 29.8281 53.4312C29.8281 52.3707 30.6842 51.5066 31.7403 51.5066C32.7934 51.5066 33.6494 52.3707 33.6494 53.4312Z" fill="white"/>
<path d="M51.7247 77.5783C51.7247 78.6409 50.8697 79.505 49.8096 79.505C48.7555 79.505 47.8965 78.6409 47.8965 77.5783C47.8965 76.5138 48.7555 75.6567 49.8096 75.6567C50.8687 75.6567 51.7247 76.5138 51.7247 77.5783Z" fill="white"/>
<path d="M55.1934 87.9064C55.1934 88.969 54.3403 89.829 53.2822 89.829C52.2301 89.829 51.3711 88.969 51.3711 87.9064C51.3711 86.8409 52.2301 85.9778 53.2822 85.9778C54.3393 85.9778 55.1934 86.8409 55.1934 87.9064Z" fill="white"/>
<path d="M38.6895 43.8085C38.6895 44.871 37.8364 45.7351 36.7823 45.7351C35.7262 45.7351 34.8672 44.871 34.8672 43.8085C34.8672 42.7439 35.7262 41.8818 36.7823 41.8818C37.8354 41.8818 38.6895 42.7439 38.6895 43.8085Z" fill="white"/>
<path d="M43.7285 50.8954C43.7285 51.8116 42.9869 52.5594 42.0751 52.5594C41.1634 52.5594 40.4258 51.8116 40.4258 50.8954C40.4258 49.9772 41.1634 49.2314 42.0751 49.2314C42.9869 49.2314 43.7285 49.9772 43.7285 50.8954Z" fill="#2B2B88"/>
<path d="M38.6893 60.6964C38.6893 61.6126 37.9507 62.3563 37.0409 62.3563C36.1292 62.3563 35.3926 61.6126 35.3926 60.6964C35.3926 59.7762 36.1292 59.0364 37.0409 59.0364C37.9507 59.0364 38.6893 59.7762 38.6893 60.6964Z" fill="#2B2B88"/>
<path d="M44.4257 67.3455C44.4257 68.2637 43.6891 69.0075 42.7734 69.0075C41.8656 69.0075 41.125 68.2637 41.125 67.3455C41.125 66.4233 41.8656 65.6815 42.7734 65.6815C43.6881 65.6805 44.4257 66.4233 44.4257 67.3455Z" fill="#2B2B88"/>
<path d="M33.1308 66.4694C33.1308 67.3876 32.3903 68.1314 31.4785 68.1314C30.5667 68.1314 29.8281 67.3876 29.8281 66.4694C29.8281 65.5471 30.5667 64.8074 31.4785 64.8074C32.3903 64.8074 33.1308 65.5471 33.1308 66.4694Z" fill="#2B2B88"/>
<path d="M40.7783 72.7706C40.7783 73.6888 40.0357 74.4306 39.122 74.4306C38.2122 74.4306 37.4746 73.6888 37.4746 72.7706C37.4746 71.8484 38.2122 71.1056 39.122 71.1056C40.0357 71.1056 40.7783 71.8484 40.7783 72.7706Z" fill="#2B2B88"/>
<path d="M36.7813 75.9173C36.7813 76.8355 36.0427 77.5772 35.1309 77.5772C34.2122 77.5772 33.4766 76.8355 33.4766 75.9173C33.4766 74.9991 34.2122 74.2543 35.1309 74.2543C36.0427 74.2543 36.7813 74.9991 36.7813 75.9173Z" fill="#2B2B88"/>
<path d="M44.2518 83.6145C44.2518 84.5368 43.5153 85.2785 42.6035 85.2785C41.6917 85.2785 40.9531 84.5368 40.9531 83.6145C40.9531 82.7024 41.6917 81.9556 42.6035 81.9556C43.5153 81.9556 44.2518 82.7024 44.2518 83.6145Z" fill="#2B2B88"/>
<path d="M60.1089 41.5647L64.0576 34.3684L67.5265 42.6012L59.6719 48.0823L60.1089 41.5647Z" fill="#B78A2D"/>
<path d="M60.1089 41.5647L64.0576 34.3684L67.5265 42.6012L59.6719 48.0823L60.1089 41.5647Z" stroke="white" stroke-width="0.644118"/>
<path d="M59.0411 46.9925L56.9199 41.787L59.6533 38.2676L62.3886 41.787L59.6533 47.604L59.0411 46.9925Z" fill="#B78A2D"/>
<path d="M59.0411 46.9925L56.9199 41.787L59.6533 38.2676L62.3886 41.787L59.6533 47.604L59.0411 46.9925Z" stroke="white" stroke-width="0.644118"/>
<path d="M10.5956 57.6764L10.6215 57.2765C10.6344 57.0229 10.5628 56.8404 10.4105 56.7272C10.2572 56.6139 9.97549 56.5427 9.57833 56.5217C9.16226 56.4966 8.86862 56.5327 8.70538 56.6389C8.54114 56.7402 8.45653 56.9447 8.43662 57.2534L8.41671 57.5411L10.5956 57.6764ZM7.49996 57.487L7.52186 57.1642C7.53579 56.9146 7.47906 56.7432 7.34269 56.642C7.20632 56.5407 6.95548 56.4786 6.58221 56.4535C6.24975 56.4325 6.01285 56.4685 5.88843 56.5568C5.75206 56.641 5.6794 56.8144 5.66546 57.073L5.64754 57.3727L7.49996 57.487ZM11.5134 58.6798L4.66211 58.2608L4.75866 56.6971C4.78753 56.244 4.94082 55.9222 5.22948 55.7197C5.51516 55.5142 5.94118 55.4331 6.50457 55.4661C6.96345 55.4952 7.30984 55.5694 7.5557 55.6927C7.79559 55.818 7.93395 55.9894 7.97277 56.2059C8.03349 55.9603 8.20569 55.7829 8.48539 55.6616C8.76709 55.5393 9.1314 55.4952 9.58331 55.5223C10.3109 55.5664 10.8345 55.7157 11.16 55.9713C11.4935 56.225 11.6378 56.5999 11.6079 57.091L11.5134 58.6798Z" fill="white"/>
<path d="M11.7803 54.9827L4.96484 54.1707L5.07732 53.2074L11.8917 54.0183L11.7803 54.9827Z" fill="white"/>
<path d="M8.2445 51.5789L8.33907 51.0295C8.38983 50.7529 8.35002 50.5474 8.22758 50.4131C8.09619 50.2767 7.84336 50.1745 7.46611 50.1073C7.13365 50.0442 6.89078 50.0652 6.72952 50.1594C6.57623 50.2517 6.46774 50.4552 6.41598 50.7639L6.33037 51.235L8.2445 51.5789ZM11.9822 53.2158L5.23047 51.9999L5.53207 50.2767C5.62365 49.7585 5.83467 49.4046 6.15021 49.2262C6.46574 49.0458 6.93656 49.0127 7.55769 49.123C7.99864 49.2052 8.3311 49.3315 8.56303 49.4938C8.79495 49.6653 8.90843 49.8708 8.91042 50.1183C9.15031 49.6913 9.69578 49.54 10.5548 49.6743C10.5926 49.6833 10.6205 49.6913 10.6434 49.6953L11.5412 49.8246C11.798 49.8627 12.0041 49.8768 12.1673 49.8627C12.3286 49.8547 12.4679 49.8126 12.5943 49.7455L12.3903 50.8902C12.2758 50.8962 12.1375 50.8942 11.9822 50.8792C11.8249 50.8691 11.6089 50.8331 11.3272 50.789L10.6185 50.6717L10.4383 50.6426C10.0442 50.5714 9.76247 50.5835 9.59823 50.6887C9.42702 50.79 9.30559 51.0345 9.24089 51.4205L9.17718 51.7453L12.1474 52.2815L11.9822 53.2158Z" fill="white"/>
<path d="M12.7048 49.3753L6.05859 47.6542L6.30246 46.7139L11.8129 48.1404L12.2499 46.4222L13.3827 46.7169L12.7048 49.3753Z" fill="white"/>
<path d="M11.2557 44.3542L11.5125 43.5653L8.65079 43.0381L11.2557 44.3542ZM13.4117 46.5635L7.28711 43.2416L7.6992 42.0016L14.5833 43.0782L14.2498 44.0716L12.5308 43.7618L12.1765 44.8274L13.7283 45.6203L13.4117 46.5635Z" fill="white"/>
<path d="M15.3999 41.1209L9.12695 38.3282L9.51715 37.436L15.7891 40.2317L15.3999 41.1209Z" fill="white"/>
<path d="M16.1045 39.4938L10.0137 36.3202L10.4706 35.424L15.3539 36.4314L11.0847 34.2341L11.4978 33.4192L17.5916 36.5888L17.1387 37.4779L12.2453 36.4755L16.5225 38.6718L16.1045 39.4938Z" fill="white"/>
<path d="M15.8851 34.7403L16.3997 33.9073L16.773 34.1419C17.1323 34.3654 17.3951 34.4857 17.5643 34.4987C17.7365 34.5108 17.8749 34.4346 17.9814 34.2672C18.0829 34.0928 18.1078 33.9264 18.0501 33.761C17.9914 33.5976 17.85 33.4432 17.6221 33.3009C17.4479 33.1956 17.2787 33.1325 17.1174 33.1174C16.9492 33.1004 16.7063 33.1375 16.3818 33.2207L15.7269 33.4011C15.1645 33.5615 14.7474 33.6226 14.4627 33.5866C14.187 33.5505 13.8854 33.4332 13.5549 33.2277C13.0672 32.922 12.7506 32.5701 12.6083 32.1722C12.468 31.7752 12.5187 31.3823 12.7656 30.9893C13.0184 30.5773 13.3608 30.3518 13.7938 30.3177C14.2258 30.2796 14.7155 30.437 15.27 30.7828C15.3297 30.8179 15.3705 30.846 15.3994 30.866C15.4302 30.8831 15.4561 30.9051 15.474 30.9212L14.9883 31.707L14.832 31.6068C14.5115 31.4103 14.2626 31.3061 14.0745 31.3031C13.8943 31.2951 13.746 31.3813 13.6306 31.5577C13.548 31.693 13.534 31.8323 13.5898 31.9737C13.6485 32.114 13.764 32.2433 13.9461 32.3566C14.195 32.51 14.5712 32.51 15.0858 32.3536C15.0878 32.3536 15.0928 32.3536 15.0928 32.3536L15.7806 32.1521C16.2594 32.0028 16.6655 31.9506 16.989 31.9867C17.3095 32.0278 17.6659 32.1712 18.0541 32.4137C18.5816 32.7455 18.9191 33.1134 19.0614 33.5254C19.2008 33.9384 19.145 34.3594 18.8783 34.7854C18.5986 35.2375 18.2402 35.4771 17.8062 35.5062C17.3692 35.5332 16.8387 35.3568 16.2265 34.9669C16.1589 34.9268 16.0494 34.8556 15.907 34.7534L15.8851 34.7403Z" fill="white"/>
<path d="M20.3899 32.1897L15.7603 28.7985L15.1014 29.7147L14.1816 29.0451L16.0719 26.4188L16.9946 27.0904L16.3357 28.0036L20.9652 31.3928L20.3899 32.1897Z" fill="white"/>
<path d="M21.8998 30.1687L16.5625 25.8252L17.1776 25.0664L22.505 29.4138L21.8998 30.1687Z" fill="white"/>
<path d="M23.516 28.2166L19.2557 24.3634L18.5032 25.2074L17.6621 24.4395L19.8131 22.0308L20.6592 22.7946L19.9067 23.6356L24.166 27.4869L23.516 28.2166Z" fill="white"/>
<path d="M20.4336 21.3863L21.1304 20.7146L24.3385 24.0797C24.7038 24.4656 24.9845 24.6922 25.1886 24.7614C25.3866 24.8295 25.5827 24.7784 25.7639 24.597C25.947 24.4225 26.0018 24.2401 25.9401 24.0316C25.8774 23.8231 25.6584 23.5254 25.2871 23.1365L22.0949 19.7834L22.7817 19.1218L26.0615 22.5621C26.379 22.8979 26.6 23.1555 26.7165 23.3359C26.8369 23.5184 26.9156 23.7018 26.9613 23.8833C27.027 24.1549 27.0201 24.4145 26.9325 24.6601C26.8538 24.9087 26.7006 25.1413 26.4726 25.3618C26.0416 25.7798 25.6176 25.9482 25.2095 25.871C24.7994 25.7928 24.3017 25.447 23.7094 24.8375L20.4336 21.3863Z" fill="white"/>
<path d="M28.6849 23.1232L25.0358 18.6766L24.1669 19.3963L23.4512 18.5182L25.9327 16.4542L26.6533 17.3343L25.7903 18.0511L29.4374 22.4937L28.6849 23.1232Z" fill="white"/>
<path d="M30.6187 21.5495L26.6133 15.9381L28.7872 14.3683L29.4581 15.3045L28.0685 16.3089L28.9913 17.599L30.2813 16.6628L30.9153 17.5539L29.6223 18.4852L30.7262 20.0339L32.1506 19.0054L32.8215 19.9567L30.6187 21.5495Z" fill="white"/>
<path d="M33.823 15.2749C34.3754 16.2623 34.7706 16.8618 35.0025 17.0662C35.2305 17.2727 35.4674 17.3108 35.6953 17.1755C35.9332 17.0432 36.0218 16.8297 35.9661 16.532C35.9073 16.2292 35.6028 15.5797 35.0364 14.5833C34.478 13.5849 34.0878 12.9814 33.8539 12.778C33.6249 12.5695 33.398 12.5344 33.1601 12.6667C32.9262 12.798 32.8435 13.0155 32.9023 13.3183C32.957 13.625 33.2606 14.2745 33.823 15.2749ZM32.957 15.7651C32.6037 15.1246 32.3449 14.6043 32.1736 14.1944C32.0024 13.7894 31.9119 13.4616 31.9039 13.212C31.887 12.8672 31.9308 12.5815 32.0482 12.361C32.1627 12.1434 32.3668 11.946 32.6674 11.7766C32.965 11.6071 33.2407 11.53 33.4846 11.542C33.7314 11.555 34.0012 11.6593 34.2869 11.8587C34.4929 12.0031 34.7298 12.2527 34.9816 12.6055C35.2394 12.9604 35.546 13.4566 35.9044 14.0911C36.2577 14.7236 36.5165 15.2449 36.6847 15.6468C36.8569 16.0568 36.9545 16.3866 36.9615 16.6372C36.9824 16.9871 36.9316 17.2687 36.8171 17.4953C36.7027 17.7158 36.4926 17.9073 36.194 18.0757C35.8994 18.2441 35.6217 18.3253 35.3788 18.3132C35.1339 18.2932 34.8652 18.1879 34.5805 17.9895C34.3744 17.8551 34.1425 17.6065 33.8837 17.2517C33.6259 16.8978 33.3193 16.3996 32.957 15.7651Z" fill="white"/>
<path d="M38.1957 16.7943L35.2812 10.5423L37.7488 9.37549L38.2236 10.3979L36.632 11.1487L37.3158 12.6233L38.8218 11.9116L39.2847 12.912L37.7817 13.6247L39.0727 16.3803L38.1957 16.7943Z" fill="white"/>
<path d="M43.4418 14.5399L41.5526 9.09479L40.4945 9.46969L40.1152 8.39411L43.1581 7.32153L43.5294 8.40012L42.4703 8.77201L44.3645 14.2131L43.4418 14.5399Z" fill="white"/>
<path d="M45.7913 13.739L43.9707 7.07502L46.5537 6.3623L46.8524 7.47598L45.202 7.93408L45.626 9.46676L47.1619 9.04174L47.4476 10.0903L45.9117 10.5203L46.4114 12.3567L48.1055 11.8876L48.4091 13.0153L45.7913 13.739Z" fill="white"/>
<path d="M50.5525 10.063L51.4742 9.87952C51.4762 9.90859 51.4901 9.94969 51.507 10.0068C51.519 10.063 51.5269 10.1081 51.5359 10.1381C51.6892 10.923 51.6762 11.5275 51.507 11.9535C51.3279 12.3825 50.9844 12.6482 50.4668 12.7524C50.226 12.8005 50.006 12.8005 49.8198 12.7524C49.6307 12.7033 49.4486 12.6021 49.2903 12.4537C49.0713 12.2542 48.8852 11.9535 48.7329 11.5585C48.5816 11.1626 48.4064 10.4539 48.2043 9.43545C48.064 8.73477 47.9824 8.17643 47.9316 7.75642C47.9037 7.33942 47.9077 7.01565 47.9535 6.79512C48.0272 6.45731 48.1556 6.20069 48.3357 6.01725C48.5109 5.84283 48.7528 5.71954 49.0713 5.65338C49.5869 5.55213 50.003 5.65638 50.3096 5.96613C50.6132 6.27888 50.8441 6.8292 51.0034 7.6201L50.0836 7.80554L50.0488 7.64215C49.9751 7.27627 49.8796 7.01264 49.7541 6.85125C49.6297 6.68886 49.4715 6.62771 49.2893 6.6638C49.0614 6.70691 48.927 6.86428 48.8941 7.12892C48.8633 7.39656 48.9588 8.09323 49.1798 9.21893C49.4237 10.4379 49.6058 11.1756 49.7412 11.4212C49.8746 11.6708 50.0528 11.7701 50.2797 11.7239C50.4937 11.6818 50.6221 11.5485 50.6689 11.327C50.7117 11.1004 50.6789 10.7085 50.5674 10.1542L50.5525 10.063Z" fill="white"/>
<path d="M52.596 12.1791L51.8066 5.31568L52.7592 5.20441L53.0718 7.89386L54.3877 7.73949L54.0771 5.05004L55.0377 4.93677L55.833 11.7982L54.8744 11.9115L54.5141 8.80004L53.1962 8.95541L53.5595 12.0649L52.596 12.1791Z" fill="white"/>
<path d="M56.5883 11.7442L56.3594 4.83759L57.3528 4.8025L58.8727 9.58799L58.6826 4.7584L59.5984 4.72632L59.8293 11.6299L58.8399 11.667L57.3159 6.87548L57.5061 11.7111L56.5883 11.7442Z" fill="white"/>
<path d="M61.6303 8.2342C61.5796 9.36893 61.5915 10.0846 61.6811 10.3854C61.7687 10.6821 61.9479 10.8405 62.2196 10.8515C62.4844 10.8625 62.6725 10.7272 62.781 10.4445C62.8935 10.1618 62.9711 9.44611 63.0279 8.30137C63.0826 7.15461 63.0687 6.43288 62.9791 6.13517C62.8935 5.84146 62.7123 5.68709 62.4525 5.67205C62.1838 5.65702 61.9936 5.79836 61.8812 6.08605C61.7687 6.37374 61.6821 7.09246 61.6303 8.2342ZM60.6439 8.1901C60.6748 7.45634 60.7295 6.87494 60.8032 6.43689C60.8728 6.00485 60.9744 5.68208 61.0988 5.46055C61.262 5.15782 61.4512 4.9423 61.6662 4.817C61.8802 4.6917 62.1539 4.64058 62.4963 4.65161C62.8367 4.67165 63.1145 4.74984 63.3125 4.89519C63.5186 5.04054 63.6878 5.27209 63.8311 5.59286C63.9287 5.82442 63.9884 6.16223 64.0163 6.59928C64.0531 7.03432 64.0531 7.62173 64.0163 8.34748C63.9794 9.07322 63.9287 9.6506 63.859 10.0867C63.7853 10.5227 63.6898 10.8555 63.5713 11.075C63.4001 11.3808 63.214 11.5933 63 11.7186C62.784 11.8469 62.5003 11.897 62.1639 11.885C61.8175 11.8669 61.5477 11.7837 61.3496 11.6404C61.1436 11.498 60.9744 11.2635 60.842 10.9417C60.7405 10.7182 60.6688 10.3844 60.6399 9.94631C60.6071 9.50726 60.6111 8.91985 60.6439 8.1901Z" fill="white"/>
<path d="M64.5332 11.8678L65.3614 5.01038L66.3199 5.12766L65.6291 10.8163L67.379 11.0298L67.2357 12.2006L64.5332 11.8678Z" fill="white"/>
<path d="M69.3032 9.06987C69.0813 10.1825 68.9907 10.8953 69.0365 11.205C69.0753 11.5097 69.2286 11.6912 69.4934 11.7453C69.7502 11.7974 69.9602 11.6922 70.1105 11.4305C70.2578 11.1639 70.4509 10.4702 70.6709 9.34553C70.8929 8.21983 70.9835 7.50612 70.9446 7.19537C70.8998 6.89265 70.7466 6.70921 70.4838 6.65808C70.221 6.60897 70.0169 6.71622 69.8646 6.98186C69.7054 7.25051 69.5192 7.94517 69.3032 9.06987ZM68.3308 8.8744C68.4751 8.15668 68.6085 7.58631 68.7408 7.16931C68.8772 6.7483 69.0245 6.44257 69.1778 6.2481C69.3859 5.97043 69.6019 5.78399 69.8328 5.69277C70.0667 5.60456 70.3474 5.59253 70.6829 5.65568C71.0233 5.72384 71.2741 5.84714 71.4523 6.01654C71.6354 6.19096 71.7728 6.44457 71.8644 6.78338C71.9211 7.02697 71.936 7.36879 71.9012 7.80784C71.8684 8.24289 71.7808 8.81927 71.6364 9.53499C71.5021 10.2487 71.3567 10.8151 71.2263 11.2361C71.088 11.6561 70.9466 11.9658 70.7983 12.1693C70.5843 12.444 70.3623 12.6294 70.1374 12.7216C69.9055 12.8088 69.6248 12.8229 69.2833 12.7587C68.9469 12.6876 68.6941 12.5703 68.5139 12.3979C68.3327 12.2224 68.2013 11.9708 68.1197 11.63C68.0481 11.3934 68.0281 11.0526 68.065 10.6146C68.0978 10.1715 68.1874 9.59313 68.3308 8.8744Z" fill="white"/>
<path d="M74.1069 13.7932L74.2473 13.0464C74.0532 13.3381 73.8621 13.5266 73.656 13.6158C73.452 13.71 73.1991 13.71 72.9134 13.6268C72.3809 13.4755 72.0873 13.1046 72.0216 12.5172C71.9559 11.9307 72.1261 10.9313 72.5173 9.52898C72.7094 8.87441 72.8806 8.35115 73.0418 7.97325C73.2091 7.59334 73.3723 7.30966 73.5495 7.12321C73.7536 6.89767 73.9755 6.74831 74.2303 6.68616C74.4772 6.621 74.7669 6.63403 75.0894 6.72626C75.6219 6.88363 75.9683 7.1613 76.1295 7.5773C76.2928 7.98528 76.2699 8.54963 76.0728 9.26535L76.0201 9.43475L75.1471 9.18415L75.17 9.11298C75.2825 8.71302 75.3143 8.39426 75.2576 8.15769C75.2028 7.92012 75.0705 7.77076 74.8475 7.70861C74.5738 7.62742 74.3478 7.71362 74.1646 7.95921C73.9875 8.20681 73.7287 8.92654 73.3912 10.1134C73.1285 11.0546 72.9951 11.6992 73.004 12.04C73.008 12.3858 73.1364 12.5903 73.3833 12.6665C73.6361 12.7367 73.8402 12.6745 74.0134 12.4811C74.1726 12.2856 74.3378 11.9187 74.4901 11.3834L74.5538 11.1569L73.9068 10.9694L74.2065 9.9099L75.7622 10.354L74.732 13.9726L74.1069 13.7932Z" fill="white"/>
<path d="M76.3438 14.5572L77.362 11.8116L77.4596 7.59851L78.4709 7.98344L78.3017 10.6909L79.9401 8.53576L80.9225 8.90465L78.2758 12.1575L77.2555 14.901L76.3438 14.5572Z" fill="white"/>
<path d="M84.0189 12.7745C84.1961 12.7143 84.3434 12.6371 84.4579 12.5429C84.5723 12.4537 84.6679 12.3394 84.7356 12.2091C84.8092 12.0607 84.8441 11.9354 84.8331 11.8312C84.8192 11.728 84.7674 11.6508 84.6679 11.5996C84.5614 11.5485 84.4678 11.5465 84.3782 11.5886C84.2886 11.6347 84.209 11.729 84.1354 11.8673C84.1194 11.8994 84.1025 11.9375 84.0945 11.9926C84.0846 12.0507 84.0766 12.1069 84.0677 12.171L84.0189 12.7745ZM82.9319 16.0934L83.0135 14.0335C82.8155 14.0876 82.6323 14.1788 82.4731 14.3142C82.3118 14.4515 82.1794 14.6169 82.0839 14.8154C81.9365 15.096 81.8798 15.3647 81.8987 15.6173C81.9236 15.8739 82.0152 16.0463 82.1904 16.1345C82.2879 16.1856 82.3944 16.2087 82.5069 16.1997C82.6234 16.1967 82.7627 16.1596 82.9319 16.0934ZM82.8294 17.4757L82.8762 17.0076C82.6642 17.1099 82.4522 17.157 82.2481 17.157C82.044 17.152 81.834 17.0948 81.626 16.9836C81.2179 16.7751 80.981 16.4423 80.9143 15.9912C80.8516 15.5401 80.9531 15.0329 81.2428 14.4665C81.4299 14.0996 81.6628 13.815 81.9365 13.5964C82.2083 13.3849 82.5935 13.1955 83.0892 13.0381C83.0952 12.6953 83.124 12.4096 83.1708 12.183C83.2156 11.9545 83.2893 11.749 83.3868 11.5656C83.572 11.1866 83.8148 10.9381 84.1194 10.8037C84.4131 10.6724 84.7107 10.6804 85.0133 10.8388C85.3358 11.0042 85.5309 11.2368 85.6026 11.5305C85.6742 11.8212 85.6125 12.158 85.4214 12.5349C85.2641 12.8466 85.0561 13.1043 84.8092 13.3037C84.5683 13.5052 84.2886 13.6476 83.9811 13.7288L83.8895 15.2785C83.989 15.1642 84.0935 15.0329 84.1951 14.8805C84.2986 14.7342 84.3952 14.5638 84.4967 14.3683L84.5474 14.268L85.2532 14.6339C85.0312 15.062 84.8102 15.4218 84.5683 15.7215C84.3354 16.0192 84.0916 16.2628 83.8278 16.4393L83.7402 17.9539L82.8294 17.4757Z" fill="white"/>
<path d="M86.994 17.1165L87.8033 17.6658L87.5564 18.0327C87.3155 18.3845 87.1911 18.6472 87.1732 18.8156C87.1503 18.99 87.22 19.1303 87.3832 19.2396C87.5564 19.3559 87.7197 19.3849 87.8829 19.3308C88.0481 19.2797 88.2054 19.1423 88.3537 18.9188C88.4702 18.7474 88.5408 18.582 88.5598 18.4156C88.5777 18.2522 88.5518 18.0066 88.4821 17.6748L88.3288 17.0052C88.1905 16.4358 88.1457 16.0128 88.1905 15.7342C88.2353 15.4515 88.3677 15.1518 88.5846 14.828C88.9072 14.3488 89.2635 14.0431 89.6636 13.9178C90.0658 13.7915 90.453 13.8567 90.8342 14.1143C91.2324 14.3889 91.4384 14.7378 91.4643 15.1758C91.4822 15.6139 91.313 16.103 90.9417 16.6494C90.9089 16.7045 90.879 16.7436 90.8561 16.7747C90.8352 16.7997 90.8173 16.8238 90.7994 16.8458L90.0319 16.3276L90.1424 16.1762C90.3465 15.8625 90.459 15.6129 90.4789 15.4244C90.4888 15.24 90.4072 15.0866 90.234 14.9663C90.0996 14.8791 89.9672 14.8571 89.8219 14.9102C89.6835 14.9593 89.5551 15.0766 89.4307 15.254C89.2735 15.4946 89.2595 15.8755 89.3879 16.3957C89.3879 16.4018 89.3919 16.4048 89.3919 16.4068L89.5631 17.1065C89.6955 17.5946 89.7343 18.0046 89.6816 18.3254C89.6348 18.6482 89.4775 19.005 89.2227 19.3839C88.8723 19.9022 88.4901 20.2279 88.078 20.3573C87.6699 20.4886 87.2538 20.4084 86.8338 20.1277C86.3998 19.831 86.1668 19.4621 86.1589 19.021C86.1449 18.582 86.346 18.0557 86.7541 17.4503C86.7929 17.3841 86.8706 17.2779 86.9801 17.1375L86.994 17.1165Z" fill="white"/>
<path d="M91.9055 20.6494L92.6381 21.2348C92.6182 21.2578 92.5933 21.2949 92.5585 21.34C92.5296 21.3892 92.5017 21.4232 92.4808 21.4523C91.9911 22.0758 91.5263 22.4617 91.0853 22.6011C90.6573 22.7474 90.2303 22.6562 89.8142 22.3264C89.6241 22.172 89.4797 22.0066 89.4001 21.8292C89.3066 21.6528 89.2717 21.4493 89.2757 21.2278C89.2876 20.9321 89.3902 20.5932 89.5882 20.2224C89.7943 19.8465 90.2104 19.254 90.8613 18.4391C91.2933 17.8807 91.6626 17.4507 91.9523 17.148C92.2419 16.8473 92.4928 16.6458 92.6929 16.5415C92.9965 16.3791 93.2702 16.308 93.525 16.328C93.7758 16.3461 94.0247 16.4533 94.2735 16.6538C94.6896 16.9836 94.8777 17.3665 94.8449 17.8046C94.8021 18.2386 94.5353 18.7769 94.0436 19.4124L93.303 18.826L93.4046 18.6937C93.6395 18.4 93.7758 18.1564 93.8127 17.9529C93.8595 17.7514 93.7987 17.592 93.6594 17.4768C93.4782 17.3324 93.2702 17.3324 93.0492 17.4768C92.8292 17.6231 92.3594 18.1494 91.6557 19.0505C90.8842 20.0239 90.4522 20.6414 90.3547 20.904C90.2482 21.1676 90.287 21.3701 90.4692 21.5165C90.6384 21.6538 90.8195 21.6648 91.0236 21.5546C91.2237 21.4463 91.4944 21.1686 91.8498 20.7216L91.9055 20.6494Z" fill="white"/>
<path d="M91.6406 23.6301L96.1975 18.4667L96.9172 19.1102L92.3603 24.2776L91.6406 23.6301Z" fill="white"/>
<path d="M92.9648 24.8172L97.7805 19.8994L99.6837 21.791L98.8824 22.6119L97.6641 21.402L96.5572 22.5337L97.6909 23.6614L96.9235 24.4393L95.7917 23.3126L94.4679 24.6679L95.7041 25.9088L94.8919 26.7378L92.9648 24.8172Z" fill="white"/>
<path d="M95.3145 27.1725L100.484 22.6316L101.142 23.3954L98.4131 27.5935L102.013 24.4008L102.616 25.0925L97.4466 29.6334L96.7916 28.8826L99.519 24.6655L95.9127 27.8682L95.3145 27.1725Z" fill="white"/>
<path d="M101.103 30.4573L101.664 31.2161C101.643 31.2332 101.61 31.2612 101.565 31.2963C101.518 31.3364 101.483 31.3615 101.456 31.3825C100.818 31.8577 100.274 32.1083 99.8158 32.1293C99.357 32.1574 98.9678 31.9569 98.6532 31.5279C98.5129 31.3304 98.4143 31.1359 98.3775 30.9385C98.3447 30.744 98.3546 30.5415 98.4223 30.33C98.5039 30.0433 98.6911 29.7496 98.9897 29.4429C99.2793 29.1301 99.8377 28.668 100.67 28.0455C101.23 27.6235 101.694 27.3078 102.052 27.0912C102.419 26.8767 102.71 26.7424 102.928 26.6963C103.263 26.6191 103.551 26.6251 103.783 26.7083C104.024 26.7915 104.238 26.9589 104.428 27.2236C104.74 27.6486 104.822 28.0696 104.677 28.4816C104.528 28.8906 104.135 29.3396 103.49 29.8198L102.933 29.063L103.064 28.9617C103.357 28.7382 103.554 28.5397 103.649 28.3563C103.733 28.1718 103.729 28.0034 103.614 27.8521C103.478 27.6666 103.284 27.6155 103.037 27.6947C102.774 27.7779 102.196 28.1608 101.274 28.8505C100.283 29.5882 99.7014 30.0694 99.5361 30.2939C99.3729 30.5235 99.359 30.733 99.4973 30.9184C99.6257 31.0969 99.8009 31.157 100.022 31.1019C100.24 31.0457 100.574 30.8513 101.027 30.5104L101.103 30.4573Z" fill="white"/>
<path d="M100.08 33.2357L105.868 29.5328L107.302 31.8043L106.339 32.4238L105.425 30.9693L104.091 31.8213L104.941 33.1756L104.027 33.762L103.176 32.4057L101.573 33.4272L102.517 34.9158L101.534 35.5423L100.08 33.2357Z" fill="white"/>
<path d="M100.664 36.7468L101.066 36.5173C101.154 36.6345 101.284 36.6917 101.449 36.6947C101.621 36.6987 101.802 36.6436 102 36.5283L102.057 36.4972L101.828 36.0822L102.904 35.4738L103.33 36.2326L102.245 36.8501C101.925 37.0355 101.616 37.1217 101.33 37.0997C101.04 37.0816 100.815 36.9633 100.664 36.7468Z" fill="white"/>
<path d="M107.314 38.315L107.481 38.6889C107.612 38.9665 107.769 39.1329 107.967 39.181C108.155 39.2262 108.422 39.175 108.772 39.0186C109.115 38.8603 109.336 38.6979 109.419 38.5345C109.505 38.3681 109.489 38.1395 109.357 37.8529L109.185 37.4639L107.314 38.315ZM103.414 39.0497L109.668 36.2119L110.364 37.7646C110.572 38.2348 110.584 38.6387 110.411 38.9665C110.221 39.2993 109.809 39.6081 109.186 39.8968C108.566 40.1744 108.057 40.2747 107.66 40.1895C107.256 40.1063 106.953 39.8376 106.749 39.3855L106.461 38.733L103.813 39.9379L103.414 39.0497Z" fill="white"/>
<path d="M104.879 42.4519L111.284 39.9769L111.631 40.8841L105.225 43.361L104.879 42.4519Z" fill="white"/>
<path d="M105.52 44.1197L112.04 41.9946L112.338 42.9138L106.924 44.6831L107.468 46.3681L106.354 46.729L105.52 44.1197Z" fill="white"/>
<path d="M109.417 47.5794L109.609 48.3864L112.304 47.2857L109.417 47.5794ZM106.412 46.8798L113.351 46.3776L113.664 47.6466L107.283 50.4513L107.032 49.4319L108.648 48.7653L108.385 47.6737L106.649 47.8451L106.412 46.8798Z" fill="white"/>
<path d="M107.355 50.8398L114.127 49.7382L114.286 50.7356L109.766 52.8486L114.498 52.0497L114.646 52.9619L107.871 54.0645L107.712 53.0792L112.24 50.9521L107.504 51.754L107.355 50.8398Z" fill="white"/>
<path d="M107.939 54.8606L114.762 54.1709L114.862 55.1332L108.031 55.8269L107.939 54.8606Z" fill="white"/>
<path d="M84.7183 48.215L86.0869 43.3163H85.3344C85.3344 43.3163 84.4167 50.6569 79.7045 53.2642C79.7045 53.2642 80.6163 55.8634 79.4009 57.8552L75.1456 71.7766L72.7179 74.2235L70.75 79.862L72.9488 80.6429L73.3241 79.8881C73.3241 79.8881 74.3891 78.203 74.9963 79.7327L74.5414 81.107L76.5123 81.8758L77.2728 78.8145L77.7317 77.1314L77.881 73.3073L82.7474 58.0075L85.3354 54.7918C85.3354 54.7918 83.9618 51.124 84.7183 48.215Z" fill="#2B2B88"/>
<path d="M62.8438 90.2948L64.516 89.6783L65.2725 89.8317L66.035 88.7642L66.3346 89.3706L67.548 88.1457L68.0068 88.6068C69.7368 87.451 72.279 82.04 72.5418 81.4707L70.4734 80.7198C68.832 85.9915 62.8438 90.2948 62.8438 90.2948Z" fill="#2B2B88"/>
<path d="M69.6777 88.1469L71.5043 87.2297V87.9945L72.5624 87.0793L72.8699 87.8411C74.0485 86.9229 75.8462 83.7292 76.4006 82.7038L74.2993 81.944C73.3059 84.8199 69.6777 88.1469 69.6777 88.1469Z" fill="#2B2B88"/>
<path d="M91.7069 64.8914C91.7069 64.8914 86.3936 62.9027 82.1423 56.4742M73.1718 59.2288C73.1718 59.2288 81.5291 59.2289 84.57 56.6296M74.2379 57.8536C74.2379 57.8536 73.6297 64.8914 70.8924 69.3301M70.2832 67.6461C70.2832 67.6461 73.4754 69.0213 76.0575 75.4478M75.3029 75.143L76.9692 74.2228L85.0259 71.1665M83.8105 72.9979C83.8105 72.9979 84.571 65.3505 85.6321 63.9692M86.087 65.6553C86.087 65.6553 81.987 62.7503 80.6163 59.8403M77.4321 61.0633L74.8461 68.2575M74.5405 66.7238L76.9682 70.7064M76.2167 70.2483C76.2167 70.2483 78.1876 69.3301 80.7696 69.6368M79.8578 70.552L82.1423 65.5069M79.1033 63.8209L81.2245 67.1869M76.0575 62.4406L81.6834 60.6041M76.2456 65.1912L81.0692 64.7391" stroke="#B38D06" stroke-width="1.28774"/>
<path d="M85.7734 110.85C85.7734 110.85 85.7446 108.956 88.8701 110.319" stroke="white" stroke-width="0.832409"/>
</svg>
