<svg width="92" height="92" viewBox="0 0 92 92" fill="none" xmlns="http://www.w3.org/2000/svg">
<path d="M26.9688 35.0477H29.2265C34.017 35.0477 38.6118 36.7833 41.9994 39.8735C45.3869 42.9632 47.2901 47.1535 47.2901 51.5231V53.5825H45.0319C40.2414 53.5825 35.6466 51.8469 32.259 48.7572C28.8715 45.6675 26.9688 41.4768 26.9688 37.1072V35.0477Z" fill="#FF4D6B"/>
<path d="M31.4043 18.1976C35.0301 18.1976 38.5072 19.5113 41.0711 21.8497C43.6347 24.188 45.075 27.3595 45.075 30.6665C41.4493 30.6665 37.9722 29.3528 35.4086 27.0144C32.8447 24.6761 31.4043 21.5046 31.4043 18.1976Z" fill="#5577F7"/>
<path d="M11.084 36.0585C14.7097 36.0585 18.1869 37.3722 20.7508 39.7106C23.3143 42.0489 24.7547 45.2202 24.7547 48.5273C21.129 48.5273 17.6518 47.2136 15.088 44.8752C12.5243 42.5369 11.084 39.3652 11.084 36.0585Z" fill="#5577F7"/>
<path d="M15.5215 17.5238C19.1469 17.5238 22.6244 18.8375 25.1879 21.1759C27.7519 23.5142 29.1922 26.6857 29.1922 29.9927C25.5665 29.9927 22.089 28.679 19.5255 26.3406C16.9617 24.0023 15.5215 20.8308 15.5215 17.5238Z" fill="#FFD100"/>
<path d="M5.54297 23.2528H7.75983C9.52368 23.2528 11.2153 23.8919 12.4625 25.0295C13.7098 26.1671 14.4105 27.71 14.4105 29.3188V31.3407H12.1936C10.4297 31.3407 8.73811 30.7017 7.4909 29.5641C6.24365 28.4265 5.54297 26.8836 5.54297 25.2748V23.2528Z" fill="#09B965"/>
<path d="M0 39.0916H2.21686C3.98075 39.0916 5.67236 39.7305 6.91957 40.8681C8.16682 42.0056 8.8675 43.5486 8.8675 45.1575V47.1795H6.65063C4.88679 47.1795 3.19518 46.5405 1.94793 45.403C0.700677 44.2654 0 42.7224 0 41.1135V39.0916Z" fill="#FF4D6B"/>
<path d="M19.9512 5.72876H21.3058C23.1024 5.72876 24.8253 6.37967 26.0955 7.53832C27.3662 8.69696 28.0797 10.2684 28.0797 11.907V13.1427H26.7251C24.9285 13.1427 23.2056 12.4918 21.9349 11.3331C20.6647 10.1745 19.9512 8.603 19.9512 6.96441V5.72876Z" fill="#09B965"/>
<path d="M2.21484 51.8969C5.84053 51.8969 9.31773 53.2102 11.8815 55.5489C14.4453 57.8873 15.8856 61.0586 15.8856 64.3657C12.2599 64.3657 8.78264 63.052 6.21888 60.7136C3.65513 58.3753 2.21484 55.2036 2.21484 51.8969Z" fill="#FFD100"/>
<path d="M32.5137 3.70691C35.5516 3.70691 38.4648 4.80758 40.6129 6.76674C42.761 8.72589 43.9675 11.3831 43.9675 14.1538C40.93 14.1538 38.0164 13.0532 35.8688 11.094C33.7207 9.13481 32.5137 6.4776 32.5137 3.70691Z" fill="#FFD100"/>
<path d="M19.9512 53.9192C23.4934 53.9192 27.0007 54.5553 30.2731 55.7912C33.5456 57.0275 36.5192 58.8396 39.0237 61.124C41.5282 63.4084 43.5149 66.1204 44.8703 69.1054C46.2256 72.0901 46.9231 75.2892 46.9231 78.5199C43.3809 78.5199 39.8736 77.8838 36.6008 76.6479C33.3283 75.4116 30.3551 73.5995 27.8502 71.3151C25.3457 69.0307 23.359 66.3187 22.0036 63.3337C20.6483 60.349 19.9507 57.1499 19.9512 53.9192Z" fill="#09B965"/>
<path d="M71.3078 60.3142L48.7695 69.7577V56.2853L71.3078 46.8419V60.3142Z" fill="#5577F7"/>
<path d="M67.2464 36.6264L47.6641 44.8205V33.1316L67.2464 24.9377V36.6264Z" fill="#FFD100"/>
<path d="M60.5957 19.5411L49.8809 24.2635V17.5281L60.5957 12.8057V19.5411Z" fill="#FF4D6B"/>
<path d="M84.6104 38.809L72.7871 43.8096V36.6763L84.6104 31.6777V38.809Z" fill="#FF4D6B"/>
<path d="M87.1993 63.3517L76.4844 68.0733V61.3371L87.1993 56.6155V63.3517Z" fill="#FFD100"/>
<path d="M66.5062 74.4324L57.6387 78.1831V72.8327L66.5062 69.0842V74.4324Z" fill="#FF4D6B"/>
<path d="M79.8067 17.857L69.0918 22.5786V15.8423L79.8067 11.1207V17.857Z" fill="#09B965"/>
<path d="M59.8561 5.54744L50.6191 9.43589V3.88845L59.8561 0V5.54744Z" fill="#09B965"/>
<path d="M70.2023 8.7606L64.6602 11.1208V7.75202L70.2023 5.39185V8.7606Z" fill="#FFD100"/>
<path d="M86.0879 25.7083L77.5898 29.3179V24.1677L86.0879 20.556V25.7083Z" fill="#5577F7"/>
<path d="M92.0019 47.6118L83.5039 51.2235V46.0713L92.0019 42.4615V47.6118Z" fill="#09B965"/>
<path d="M46.9238 91.9998V57.1638L49.8797 55.9412V91.9998" fill="#5577F7"/>
</svg>
