<svg width="123" height="120" viewBox="0 0 123 120" fill="none" xmlns="http://www.w3.org/2000/svg">
<rect width="122.691" height="120" rx="10" fill="white"/>
<path d="M43.0801 41.1479H45.2449C49.8381 41.1479 54.2436 42.9725 57.4916 46.2209C60.7396 49.4689 62.5644 53.8738 62.5644 58.4673V60.6323H60.3992C55.806 60.6323 51.4005 58.8077 48.1525 55.5597C44.9045 52.3117 43.0801 47.9064 43.0801 43.3129V41.1479Z" fill="#FF4D6B"/>
<path d="M47.332 23.4346C50.8084 23.4346 54.1423 24.8155 56.6007 27.2737C59.0586 29.7318 60.4397 33.0658 60.4397 36.5422C56.9632 36.5422 53.6294 35.1612 51.1714 32.7031C48.7131 30.2449 47.332 26.9109 47.332 23.4346Z" fill="#5577F7"/>
<path d="M27.8477 42.2106C31.324 42.2106 34.658 43.5917 37.1163 46.0498C39.5742 48.508 40.9553 51.8417 40.9553 55.3183C37.4789 55.3183 34.1449 53.9372 31.6868 51.4791C29.2286 49.0209 27.8477 45.6868 27.8477 42.2106Z" fill="#5577F7"/>
<path d="M32.0996 22.7261C35.5757 22.7261 38.91 24.107 41.3679 26.5652C43.8262 29.0234 45.2072 32.3573 45.2072 35.8337C41.7309 35.8337 38.3966 34.4527 35.9387 31.9946C33.4805 29.5364 32.0996 26.2024 32.0996 22.7261Z" fill="#FFD100"/>
<path d="M22.5332 28.7485H24.6588C26.3499 28.7485 27.9719 29.4203 29.1678 30.6162C30.3636 31.8121 31.0354 33.434 31.0354 35.1252V37.2507H28.9099C27.2187 37.2507 25.5967 36.579 24.4009 35.3831C23.205 34.1872 22.5332 32.5653 22.5332 30.874V28.7485Z" fill="#09B965"/>
<path d="M17.2207 45.3987H19.3463C21.0375 45.3987 22.6594 46.0703 23.8553 47.2662C25.0511 48.462 25.7229 50.0841 25.7229 51.7754V53.9009H23.5974C21.9062 53.9009 20.2843 53.2293 19.0884 52.0334C17.8925 50.8376 17.2207 49.2155 17.2207 47.5242V45.3987Z" fill="#FF4D6B"/>
<path d="M36.3496 10.3271H37.6484C39.371 10.3271 41.023 11.0114 42.2409 12.2294C43.4592 13.4474 44.1433 15.0994 44.1433 16.8219V18.1209H42.8445C41.1219 18.1209 39.47 17.4366 38.2516 16.2186C37.0337 15.0006 36.3496 13.3486 36.3496 11.6261V10.3271Z" fill="#09B965"/>
<path d="M19.3457 58.8604C22.822 58.8604 26.156 60.241 28.6142 62.6995C31.0724 65.1577 32.4533 68.4914 32.4533 71.968C28.977 71.968 25.643 70.5869 23.1848 68.1288C20.7267 65.6706 19.3457 62.3365 19.3457 58.8604Z" fill="#FFD100"/>
<path d="M48.3965 8.20178C51.3093 8.20178 54.1025 9.35884 56.1621 11.4184C58.2217 13.4779 59.3785 16.2712 59.3785 19.1838C56.4662 19.1838 53.6726 18.0268 51.6134 15.9673C49.5538 13.9077 48.3965 11.1144 48.3965 8.20178Z" fill="#FFD100"/>
<path d="M36.3496 60.9862C39.746 60.9862 43.1087 61.6549 46.2464 62.9541C49.3841 64.2537 52.2352 66.1587 54.6366 68.5601C57.0379 70.9615 58.9428 73.8124 60.2423 76.9504C61.5418 80.088 62.2106 83.4509 62.2106 86.8472C58.8143 86.8472 55.4515 86.1785 52.3134 84.8793C49.1757 83.5797 46.325 81.6747 43.9232 79.2733C41.5219 76.8719 39.617 74.021 38.3175 70.883C37.018 67.7454 36.3492 64.3825 36.3496 60.9862Z" fill="#09B965"/>
<path d="M85.5923 67.7089L63.9824 77.6361V63.4736L85.5923 53.5464V67.7089Z" fill="#5577F7"/>
<path d="M81.6957 42.8076L62.9199 51.4215V39.1338L81.6957 30.5201V42.8076Z" fill="#FFD100"/>
<path d="M75.3185 24.8469L65.0449 29.8113V22.7308L75.3185 17.7664V24.8469Z" fill="#FF4D6B"/>
<path d="M98.3461 45.1018L87.0098 50.3585V42.8598L98.3461 37.6052V45.1018Z" fill="#FF4D6B"/>
<path d="M100.826 70.9019L90.5527 75.8654V68.7841L100.826 63.8206V70.9019Z" fill="#FFD100"/>
<path d="M80.9866 82.5501L72.4844 86.493V80.8685L80.9866 76.928V82.5501Z" fill="#FF4D6B"/>
<path d="M93.7403 23.0766L83.4668 28.0401V20.9587L93.7403 15.9952V23.0766Z" fill="#09B965"/>
<path d="M74.6104 10.1364L65.7539 14.224V8.3924L74.6104 4.30475V10.1364Z" fill="#09B965"/>
<path d="M84.5307 13.5142L79.2168 15.9953V12.454L84.5307 9.9729V13.5142Z" fill="#FFD100"/>
<path d="M99.7632 31.3303L91.6152 35.1249V29.7108L99.7632 25.9141V31.3303Z" fill="#5577F7"/>
<path d="M105.431 54.3556L97.2832 58.1522V52.7361L105.431 48.9415V54.3556Z" fill="#09B965"/>
<path d="M62.2109 101.017V64.3968L65.045 63.1116V101.017" fill="#5577F7"/>
<path d="M18.6087 113.77C18.5197 113.773 18.431 113.758 18.348 113.727C18.265 113.696 18.1895 113.649 18.126 113.588C18.0625 113.528 18.0124 113.456 17.9787 113.377C17.9449 113.298 17.9284 113.212 17.9299 113.126V107.028C17.9276 106.942 17.9439 106.857 17.9779 106.777C18.0118 106.698 18.0626 106.627 18.127 106.568C18.1941 106.506 18.2732 106.459 18.3597 106.427C18.4461 106.395 18.5382 106.381 18.6306 106.384C18.7208 106.38 18.8109 106.394 18.8951 106.426C18.9792 106.457 19.0555 106.506 19.1189 106.568C19.1792 106.629 19.2261 106.701 19.257 106.78C19.2878 106.859 19.3019 106.944 19.2985 107.028V113.126C19.3008 113.211 19.2854 113.295 19.2535 113.374C19.2215 113.452 19.1736 113.524 19.1124 113.584C19.0463 113.647 18.9674 113.696 18.8807 113.728C18.7941 113.76 18.7014 113.774 18.6087 113.77ZM23.3387 106.331C23.4239 106.33 23.5082 106.348 23.5845 106.385C23.6608 106.422 23.7267 106.476 23.7767 106.543C23.8816 106.66 23.9411 106.809 23.9453 106.964C23.9446 107.044 23.9268 107.123 23.8928 107.195C23.8589 107.268 23.8097 107.333 23.7482 107.386L19.1605 111.607L19.1058 110.098L22.8066 106.584C22.8728 106.51 22.9541 106.449 23.0456 106.405C23.1371 106.362 23.2368 106.337 23.3387 106.331ZM23.2073 113.77C23.1108 113.771 23.0155 113.75 22.9296 113.708C22.8437 113.666 22.7699 113.604 22.7146 113.527L20.1854 110.324L21.1818 109.343L23.7986 112.677C23.8957 112.798 23.9495 112.946 23.9519 113.099C23.9545 113.191 23.9351 113.282 23.8953 113.364C23.8553 113.448 23.796 113.521 23.7219 113.578C23.5801 113.7 23.3973 113.768 23.2073 113.77Z" fill="#5245FF"/>
<path d="M28.0595 107.754C28.4848 107.723 28.9076 107.843 29.2577 108.096C29.5339 108.33 29.7314 108.648 29.8217 109.006C29.928 109.418 29.9795 109.844 29.975 110.271V113.097C29.9772 113.186 29.9623 113.274 29.9312 113.356C29.9001 113.438 29.8535 113.513 29.7941 113.577C29.7351 113.64 29.6639 113.69 29.5851 113.724C29.5063 113.757 29.4216 113.773 29.3365 113.771C29.2514 113.773 29.1668 113.757 29.0881 113.724C29.0094 113.69 28.9381 113.64 28.8789 113.577C28.8194 113.513 28.7728 113.438 28.7417 113.356C28.7107 113.274 28.6958 113.186 28.698 113.097V110.271C28.7013 110.047 28.6712 109.823 28.6086 109.609C28.552 109.42 28.4377 109.256 28.2829 109.141C28.0831 109.009 27.8484 108.947 27.6125 108.964C27.3624 108.955 27.1146 109.016 26.8952 109.141C26.7069 109.25 26.552 109.412 26.4483 109.609C26.3417 109.811 26.2881 110.04 26.2929 110.271V113.097C26.2951 113.186 26.2802 113.274 26.2491 113.356C26.2181 113.438 26.1714 113.513 26.112 113.577C26.053 113.64 25.9818 113.69 25.903 113.724C25.8242 113.757 25.7395 113.773 25.6544 113.771C25.5693 113.773 25.4848 113.757 25.406 113.724C25.3273 113.69 25.256 113.64 25.1968 113.577C25.1374 113.513 25.0907 113.438 25.0596 113.356C25.0286 113.274 25.0137 113.186 25.0159 113.097V108.538C25.0134 108.449 25.0282 108.36 25.0592 108.278C25.0903 108.195 25.1371 108.12 25.1968 108.056C25.2561 107.993 25.3275 107.943 25.4062 107.911C25.4849 107.877 25.5695 107.862 25.6544 107.864C25.7394 107.861 25.824 107.877 25.9028 107.91C25.9816 107.943 26.0529 107.993 26.112 108.056C26.1717 108.12 26.2185 108.195 26.2496 108.278C26.2806 108.36 26.2954 108.449 26.2929 108.538V109.012L26.1333 108.979C26.21 108.834 26.3029 108.698 26.4099 108.575C26.5375 108.426 26.6802 108.291 26.8356 108.173C27.005 108.045 27.1914 107.942 27.389 107.868C27.6043 107.79 27.8312 107.751 28.0595 107.754Z" fill="#5245FF"/>
<path d="M37.0567 111.124C37.0681 111.671 36.9295 112.21 36.656 112.686C36.3968 113.128 36.0221 113.493 35.5709 113.746C35.1036 113.995 34.5802 114.125 34.0482 114.125C33.5163 114.125 32.9928 113.995 32.5256 113.746C32.0736 113.494 31.6989 113.128 31.4404 112.686C31.1745 112.205 31.0352 111.666 31.0352 111.118C31.0352 110.571 31.1745 110.032 31.4404 109.55C31.6994 109.108 32.0739 108.741 32.5256 108.487C32.9919 108.235 33.5157 108.103 34.0482 108.103C34.5807 108.103 35.1046 108.235 35.5709 108.487C36.0221 108.741 36.3964 109.108 36.656 109.55C36.9316 110.03 37.0698 110.574 37.0567 111.124ZM35.7281 111.124C35.7381 110.79 35.6618 110.459 35.5066 110.162C35.3647 109.902 35.1544 109.683 34.8976 109.529C34.6412 109.379 34.3486 109.301 34.0504 109.301C33.7523 109.301 33.4597 109.379 33.2033 109.529C32.946 109.683 32.7356 109.901 32.5943 110.162C32.4378 110.459 32.3615 110.79 32.3728 111.124C32.3629 111.453 32.4391 111.78 32.5943 112.072C32.7355 112.334 32.9459 112.553 33.2033 112.708C33.4597 112.857 33.7523 112.936 34.0504 112.936C34.3486 112.936 34.6412 112.857 34.8976 112.708C35.1545 112.553 35.3647 112.333 35.5066 112.072C35.6609 111.779 35.7373 111.453 35.7281 111.124Z" fill="#5245FF"/>
<path d="M44.6069 108.106C44.6859 108.106 44.7641 108.122 44.8367 108.154C44.9089 108.185 44.974 108.232 45.0278 108.29C45.0877 108.353 45.1344 108.427 45.1651 108.508C45.1958 108.589 45.2098 108.675 45.2066 108.762C45.2066 108.806 45.203 108.85 45.1962 108.893C45.1898 108.931 45.1791 108.969 45.1647 109.005L43.555 113.363C43.5095 113.498 43.4162 113.613 43.2921 113.684C43.1724 113.757 43.0311 113.785 42.8923 113.764C42.7741 113.756 42.6604 113.714 42.5655 113.643C42.4705 113.571 42.3975 113.474 42.356 113.363L41.3229 110.348L41.5966 110.359L40.6182 113.363C40.5767 113.474 40.5037 113.571 40.4087 113.643C40.3138 113.714 40.2 113.756 40.0819 113.764C39.9455 113.785 39.8062 113.756 39.6885 113.684C39.5616 113.615 39.4658 113.5 39.4191 113.363L37.8099 109.005C37.7819 108.927 37.7676 108.845 37.7676 108.762C37.7672 108.595 37.827 108.433 37.936 108.307C37.9926 108.24 38.0637 108.187 38.1439 108.152C38.2241 108.117 38.3115 108.101 38.3988 108.106C38.5245 108.104 38.6482 108.137 38.7564 108.201C38.8665 108.271 38.9459 108.381 38.9774 108.508L40.2499 111.977L39.987 111.956L40.9442 109.343C40.9861 109.225 41.0651 109.122 41.1693 109.052C41.2734 108.981 41.3975 108.946 41.5228 108.952C41.6485 108.943 41.7734 108.979 41.8763 109.052C41.9645 109.131 42.0312 109.231 42.0699 109.343L43.0271 111.956L42.7115 111.998L44.0055 108.508C44.0434 108.381 44.1244 108.272 44.2342 108.198C44.3439 108.125 44.476 108.092 44.6069 108.106Z" fill="#5245FF"/>
<path d="M49.3995 107.554C49.2292 107.559 49.0637 107.498 48.9378 107.384C48.876 107.327 48.8272 107.258 48.7949 107.181C48.7626 107.104 48.7473 107.021 48.7505 106.937C48.7469 106.855 48.7618 106.772 48.7941 106.696C48.8264 106.619 48.8756 106.551 48.9378 106.495C49.0653 106.384 49.2304 106.326 49.3995 106.332H54.1231C54.2938 106.326 54.46 106.387 54.5868 106.502C54.6481 106.558 54.6965 106.627 54.7284 106.704C54.7603 106.782 54.7752 106.865 54.772 106.948C54.7752 107.03 54.7603 107.113 54.7284 107.189C54.6965 107.265 54.6481 107.333 54.5868 107.388C54.4584 107.5 54.293 107.559 54.1231 107.554H49.3995ZM51.7506 113.77C51.6606 113.773 51.571 113.758 51.487 113.726C51.4031 113.694 51.3264 113.645 51.2611 113.583C51.1989 113.524 51.1497 113.452 51.1166 113.373C51.0835 113.293 51.0678 113.208 51.0698 113.122V106.959H52.4528V113.122C52.4544 113.208 52.4378 113.294 52.4039 113.374C52.3704 113.453 52.32 113.525 52.257 113.583C52.1194 113.71 51.9374 113.777 51.7506 113.77Z" fill="#5245FF"/>
<path d="M58.8905 108.031C59.3154 108.002 59.7374 108.117 60.0834 108.358C60.3601 108.582 60.5558 108.886 60.6429 109.225C60.749 109.62 60.8002 110.025 60.7953 110.432V113.129C60.7973 113.213 60.782 113.297 60.7502 113.375C60.7189 113.454 60.671 113.525 60.6103 113.586C60.4852 113.704 60.3171 113.771 60.142 113.771C59.967 113.771 59.7989 113.704 59.6742 113.586C59.6131 113.525 59.5656 113.454 59.5338 113.375C59.502 113.297 59.4868 113.213 59.4892 113.129V110.432C59.4925 110.219 59.4632 110.006 59.4021 109.801C59.3493 109.623 59.2386 109.466 59.0862 109.354C58.8938 109.23 58.6643 109.171 58.433 109.186C58.1857 109.178 57.9413 109.236 57.7257 109.354C57.5391 109.459 57.388 109.614 57.2901 109.801C57.1894 109.996 57.1386 110.213 57.1423 110.432V113.129C57.1444 113.213 57.1291 113.297 57.0977 113.375C57.0659 113.454 57.018 113.525 56.9573 113.586C56.8322 113.704 56.6642 113.771 56.4891 113.771C56.314 113.771 56.146 113.704 56.0213 113.586C55.9602 113.525 55.9127 113.454 55.8809 113.375C55.8491 113.297 55.8338 113.213 55.8363 113.129V106.62C55.8334 106.535 55.8487 106.451 55.8805 106.372C55.9123 106.293 55.9602 106.221 56.0213 106.161C56.1468 106.043 56.3144 105.977 56.4891 105.977C56.6637 105.977 56.8318 106.043 56.9573 106.161C57.0184 106.221 57.0663 106.293 57.0981 106.372C57.1299 106.451 57.1448 106.535 57.1423 106.62V109.232L56.9792 109.2C57.0543 109.064 57.1431 108.935 57.2447 108.815C57.5065 108.513 57.8438 108.281 58.2241 108.141C58.4376 108.066 58.6634 108.028 58.8905 108.031Z" fill="#5245FF"/>
<path d="M66.5171 108.109C66.6034 108.107 66.6898 108.122 66.7699 108.154C66.8501 108.185 66.9224 108.233 66.9828 108.294C67.0436 108.355 67.0913 108.427 67.123 108.506C67.1546 108.586 67.1694 108.67 67.1669 108.756V113.258C67.1945 113.799 67.0654 114.337 66.7946 114.809C66.5582 115.183 66.2068 115.475 65.7909 115.642C65.3433 115.817 64.8645 115.903 64.3824 115.896C64.1362 115.894 63.89 115.877 63.6459 115.843C63.4231 115.818 63.2044 115.765 62.9956 115.684C62.8127 115.618 62.6557 115.497 62.5472 115.339C62.5061 115.274 62.4802 115.201 62.4716 115.125C62.463 115.049 62.472 114.972 62.4971 114.901C62.5172 114.813 62.5555 114.73 62.6097 114.657C62.6636 114.584 62.7322 114.523 62.8115 114.477C62.881 114.44 62.9574 114.419 63.0363 114.415C63.1148 114.41 63.1933 114.423 63.2665 114.451C63.3816 114.485 63.5332 114.54 63.7215 114.614C63.929 114.692 64.1497 114.73 64.3717 114.727C64.6545 114.735 64.9364 114.69 65.2015 114.593C65.4169 114.508 65.5936 114.35 65.7001 114.148C65.8229 113.883 65.8801 113.592 65.8669 113.301V112.591L66.0946 112.845C65.9816 113.065 65.8254 113.261 65.6351 113.421C65.444 113.578 65.2229 113.695 64.9849 113.767C64.7038 113.848 64.4116 113.887 64.1181 113.883C63.7659 113.891 63.4186 113.801 63.1169 113.623C62.83 113.448 62.5986 113.199 62.4498 112.902C62.2854 112.573 62.2036 112.209 62.2114 111.843V108.749C62.2086 108.664 62.2238 108.58 62.2554 108.5C62.2871 108.421 62.3347 108.349 62.3956 108.288C62.5205 108.169 62.6874 108.103 62.8612 108.103C63.0351 108.103 63.2024 108.169 63.3273 108.288C63.3882 108.349 63.4358 108.421 63.4675 108.5C63.4991 108.58 63.5139 108.664 63.5115 108.749V111.462C63.5115 111.919 63.6154 112.243 63.8214 112.43C64.0618 112.63 64.3725 112.731 64.6882 112.711C64.9138 112.72 65.1382 112.671 65.3384 112.568C65.5135 112.47 65.6536 112.322 65.7391 112.144C65.8386 111.93 65.8867 111.696 65.8801 111.462V108.749C65.8772 108.664 65.8924 108.58 65.9241 108.5C65.9557 108.421 66.0034 108.349 66.0642 108.288C66.1234 108.229 66.1941 108.184 66.2722 108.154C66.3499 108.123 66.4333 108.108 66.5171 108.109Z" fill="#5245FF"/>
<path d="M77.0923 106.767C77.1803 106.808 77.2568 106.87 77.3145 106.948C77.3726 107.026 77.4095 107.118 77.4226 107.214C77.4381 107.313 77.432 107.414 77.405 107.51C77.3775 107.606 77.3301 107.695 77.265 107.77C77.2249 107.831 77.1717 107.883 77.1091 107.92C77.0469 107.958 76.9769 107.981 76.9049 107.989C76.7502 108.001 76.5951 107.97 76.456 107.901C76.0976 107.734 75.7072 107.649 75.3127 107.65C74.9567 107.644 74.6032 107.707 74.2705 107.836C73.9754 107.952 73.7086 108.132 73.4897 108.363C73.2708 108.596 73.1038 108.873 72.9999 109.176C72.8841 109.509 72.8272 109.859 72.8317 110.212C72.8227 110.606 72.8874 110.997 73.0216 111.367C73.1345 111.675 73.3125 111.954 73.5433 112.185C73.7671 112.403 74.036 112.569 74.331 112.669C74.6473 112.776 74.9788 112.83 75.3127 112.828C75.5079 112.827 75.7031 112.809 75.895 112.774C76.0906 112.736 76.2797 112.67 76.456 112.577C76.5943 112.506 76.7511 112.479 76.9049 112.501C77.0522 112.521 77.1852 112.6 77.2761 112.719C77.3432 112.793 77.3923 112.883 77.4197 112.98C77.4471 113.078 77.4516 113.18 77.4332 113.279C77.4156 113.371 77.3763 113.457 77.319 113.53C77.2617 113.603 77.1877 113.661 77.1034 113.7C76.9176 113.793 76.7253 113.871 76.5272 113.933C76.3308 113.994 76.1303 114.042 75.9273 114.075C75.7244 114.108 75.5185 114.125 75.3127 114.125C74.811 114.127 74.3126 114.042 73.8392 113.874C73.3825 113.71 72.961 113.458 72.5985 113.133C72.2249 112.793 71.9302 112.374 71.7355 111.906C71.5174 111.365 71.4105 110.785 71.4228 110.201C71.4167 109.671 71.5141 109.145 71.7097 108.653C71.8918 108.192 72.1672 107.774 72.5187 107.426C72.8726 107.077 73.2925 106.802 73.7528 106.619C74.2476 106.424 74.775 106.326 75.3062 106.332C75.6184 106.33 75.9302 106.367 76.2338 106.44C76.5325 106.513 76.821 106.622 77.0923 106.767Z" fill="#5245FF"/>
<path d="M81.5624 108.031C81.9873 108.002 82.4092 108.117 82.7553 108.358C83.0319 108.582 83.2281 108.886 83.3148 109.225C83.4209 109.62 83.4721 110.025 83.4671 110.432V113.129C83.4696 113.213 83.4543 113.297 83.4225 113.375C83.3907 113.454 83.3428 113.525 83.2821 113.586C83.1574 113.704 82.9894 113.771 82.8143 113.771C82.6392 113.771 82.4712 113.704 82.3461 113.586C82.2854 113.525 82.2375 113.454 82.2057 113.375C82.1739 113.297 82.159 113.213 82.1611 113.129V110.432C82.1648 110.219 82.1355 110.006 82.074 109.801C82.0211 109.623 81.9105 109.466 81.7585 109.354C81.5657 109.23 81.3361 109.171 81.1053 109.186C80.8579 109.178 80.6131 109.236 80.3976 109.354C80.2109 109.459 80.0598 109.614 79.9623 109.801C79.8612 109.996 79.8104 110.213 79.8141 110.432V113.129C79.8166 113.213 79.8013 113.297 79.7695 113.375C79.7377 113.454 79.6898 113.525 79.6291 113.586C79.5044 113.704 79.3364 113.771 79.1613 113.771C78.9862 113.771 78.8182 113.704 78.6931 113.586C78.6324 113.525 78.5845 113.454 78.5527 113.375C78.5209 113.297 78.506 113.213 78.5081 113.129V106.62C78.5056 106.535 78.5205 106.451 78.5523 106.372C78.5841 106.293 78.632 106.221 78.6931 106.161C78.8186 106.043 78.9866 105.977 79.1613 105.977C79.336 105.977 79.5036 106.043 79.6291 106.161C79.6902 106.221 79.7381 106.293 79.7699 106.372C79.8017 106.451 79.8166 106.535 79.8141 106.62V109.232L79.651 109.2C79.7282 109.064 79.8195 108.934 79.9231 108.815C80.1853 108.513 80.5223 108.281 80.903 108.141C81.114 108.066 81.3373 108.029 81.5624 108.031Z" fill="#5245FF"/>
<path d="M90.551 111.12C90.5624 111.668 90.4234 112.209 90.1483 112.687C89.8892 113.128 89.5147 113.493 89.0632 113.746C88.5963 113.995 88.073 114.125 87.541 114.125C87.0094 114.125 86.4862 113.995 86.0192 113.746C85.5674 113.494 85.1928 113.129 84.9341 112.687C84.6683 112.205 84.5293 111.666 84.5293 111.119C84.5293 110.571 84.6683 110.032 84.9341 109.551C85.1932 109.108 85.5678 108.741 86.0192 108.487C86.4853 108.235 87.009 108.103 87.541 108.103C88.0735 108.103 88.5971 108.235 89.0632 108.487C89.5142 108.742 89.8888 109.109 90.1483 109.551C90.4234 110.029 90.5628 110.571 90.551 111.12ZM89.2228 111.12C89.2325 110.786 89.1565 110.455 89.0015 110.158C88.8596 109.898 88.6492 109.679 88.3926 109.525C88.136 109.375 87.8438 109.297 87.5456 109.297C87.2475 109.297 86.9552 109.375 86.6986 109.525C86.4416 109.679 86.2313 109.897 86.0897 110.158C85.9335 110.455 85.8571 110.786 85.8684 111.12C85.8588 111.449 85.9348 111.776 86.0897 112.068C86.2313 112.33 86.4416 112.549 86.6986 112.704C86.9552 112.853 87.2475 112.932 87.5456 112.932C87.8438 112.932 88.136 112.853 88.3926 112.704C88.6492 112.549 88.8596 112.329 89.0015 112.068C89.1556 111.775 89.2316 111.449 89.2228 111.12Z" fill="#5245FF"/>
<path d="M92.3122 107.283C92.1248 107.299 91.9375 107.257 91.776 107.164C91.7183 107.11 91.6742 107.044 91.6471 106.971C91.62 106.898 91.6107 106.819 91.6196 106.742V106.526C91.6085 106.446 91.6187 106.364 91.6488 106.288C91.6793 106.212 91.7293 106.145 91.7938 106.094C91.9553 106.007 92.1393 105.968 92.3236 105.981C92.5144 105.964 92.706 106.005 92.8709 106.1C92.9307 106.155 92.976 106.223 93.0031 106.298C93.0303 106.373 93.0388 106.453 93.0273 106.533V106.748C93.0383 106.828 93.029 106.91 92.9998 106.986C92.9705 107.061 92.9226 107.128 92.8599 107.181C92.6912 107.266 92.5013 107.301 92.3122 107.283ZM92.9938 113.111C92.9964 113.198 92.9807 113.284 92.948 113.365C92.9154 113.445 92.8662 113.519 92.8039 113.581C92.6755 113.702 92.503 113.771 92.3236 113.771C92.1439 113.771 91.9714 113.702 91.8429 113.581C91.7806 113.519 91.7315 113.445 91.6988 113.365C91.6662 113.284 91.6505 113.198 91.653 113.111V108.645C91.6505 108.558 91.6658 108.472 91.6984 108.391C91.731 108.31 91.7802 108.236 91.8429 108.174C91.9718 108.053 92.1439 107.985 92.3236 107.985C92.503 107.985 92.6751 108.053 92.8039 108.174C92.8667 108.236 92.9158 108.31 92.9485 108.391C92.9811 108.472 92.9964 108.558 92.9938 108.645V113.111Z" fill="#5245FF"/>
<path d="M96.571 108.104C96.9362 108.097 97.3004 108.141 97.6536 108.234C97.9169 108.297 98.1617 108.421 98.3683 108.596C98.4488 108.665 98.5136 108.751 98.5576 108.847C98.6019 108.944 98.6245 109.049 98.6237 109.155C98.6233 109.301 98.5777 109.442 98.4939 109.561C98.4525 109.623 98.3958 109.673 98.3292 109.706C98.2631 109.739 98.1892 109.755 98.1149 109.752C98.0167 109.754 97.9185 109.738 97.827 109.702C97.7547 109.671 97.6873 109.629 97.6278 109.578C97.5649 109.523 97.4959 109.476 97.422 109.437C97.3185 109.383 97.2064 109.348 97.0906 109.333C96.9822 109.312 96.8721 109.3 96.7616 109.296C96.4326 109.285 96.1078 109.368 95.824 109.535C95.5702 109.692 95.3661 109.917 95.235 110.185C95.0933 110.478 95.0231 110.799 95.0293 111.124C95.0252 111.446 95.0995 111.763 95.2457 112.05C95.3796 112.315 95.5813 112.54 95.8306 112.7C96.0901 112.862 96.3907 112.945 96.6967 112.939C96.8524 112.941 97.008 112.93 97.162 112.906C97.2746 112.89 97.3842 112.857 97.4869 112.808C97.5822 112.755 97.6725 112.693 97.7576 112.624C97.8623 112.552 97.9884 112.518 98.1149 112.527C98.1958 112.522 98.2771 112.535 98.3518 112.566C98.427 112.597 98.4939 112.644 98.5481 112.705C98.6496 112.826 98.7034 112.98 98.6997 113.138C98.6927 113.239 98.6615 113.336 98.6089 113.422C98.5559 113.508 98.4833 113.579 98.3966 113.63C98.1543 113.796 97.8845 113.918 97.5994 113.988C97.2524 114.082 96.8939 114.128 96.5341 114.125C96.0121 114.138 95.4971 114 95.051 113.728C94.633 113.464 94.297 113.089 94.081 112.644C93.851 112.171 93.7343 111.652 93.7409 111.126C93.7298 110.582 93.8539 110.043 94.1027 109.559C94.3344 109.119 94.6826 108.751 95.1094 108.496C95.5521 108.235 96.0573 108.1 96.571 108.104Z" fill="#5245FF"/>
<path d="M102.494 114.125C101.922 114.137 101.355 114.004 100.851 113.738C100.4 113.495 100.03 113.132 99.7818 112.693C99.5296 112.232 99.4016 111.717 99.4096 111.195C99.3923 110.615 99.5322 110.04 99.8152 109.529C100.066 109.09 100.434 108.725 100.88 108.472C101.301 108.23 101.782 108.103 102.272 108.103C102.642 108.098 103.008 108.172 103.345 108.32C103.68 108.471 103.982 108.683 104.236 108.943C104.498 109.21 104.707 109.521 104.854 109.861C105.005 110.211 105.081 110.588 105.076 110.968C105.075 111.049 105.055 111.129 105.019 111.202C104.982 111.275 104.93 111.34 104.865 111.391C104.734 111.498 104.568 111.556 104.397 111.553H100.143L99.8084 110.469H103.896L103.651 110.685V110.393C103.639 110.187 103.561 109.989 103.428 109.828C103.288 109.659 103.111 109.522 102.91 109.429C102.709 109.335 102.488 109.286 102.265 109.286C102.054 109.284 101.844 109.313 101.642 109.373C101.451 109.427 101.279 109.528 101.14 109.666C100.987 109.823 100.873 110.012 100.806 110.219C100.717 110.5 100.676 110.793 100.684 111.087C100.672 111.433 100.758 111.777 100.933 112.078C101.088 112.337 101.311 112.551 101.579 112.697C101.836 112.838 102.126 112.913 102.421 112.914C102.642 112.92 102.863 112.898 103.078 112.849C103.216 112.815 103.35 112.761 103.472 112.691C103.573 112.63 103.665 112.578 103.746 112.534C103.863 112.473 103.993 112.44 104.125 112.437C104.274 112.435 104.418 112.492 104.524 112.593C104.63 112.695 104.691 112.834 104.693 112.979C104.687 113.085 104.656 113.188 104.602 113.281C104.548 113.373 104.472 113.452 104.381 113.511C104.14 113.701 103.867 113.848 103.573 113.944C103.226 114.064 102.862 114.125 102.494 114.125Z" fill="#5245FF"/>
</svg>
