<svg width="143" height="132" viewBox="0 0 143 132" fill="none" xmlns="http://www.w3.org/2000/svg">
<path d="M136.951 24.992L136.094 23.562C128.833 11.4717 115.741 4.18611 101.937 5.07268C100.157 5.17645 98.3869 5.41544 96.6422 5.78766C84.0906 8.50815 73.1697 18.121 68.6446 30.433C65.9797 37.6721 65.2385 46.0088 60.1734 51.7572C53.6011 59.2359 42.4366 59.4683 32.6417 59.1608C22.8468 58.8534 11.6576 59.1143 5.11003 66.6216C1.02264 71.344 -0.279821 78.0505 0.048441 84.3281C0.923807 101.001 12.4024 115.912 26.9836 123.323C41.5648 130.734 58.7509 131.395 74.7157 128.135C97.0834 123.57 118.357 111.029 131.142 91.6709C143.926 72.3128 147.163 45.898 136.951 24.992Z" fill="#E9F8F2"/>
<g clip-path="url(#clip0_2611_3780)">
<mask id="path-2-outside-1_2611_3780" maskUnits="userSpaceOnUse" x="3.73389" y="10.1799" width="134" height="122" fill="black">
<rect fill="white" x="3.73389" y="10.1799" width="134" height="122"/>
<path d="M45.7344 13.9219C49.3966 16.7827 51.5364 20.381 52.1797 25.0078C52.529 28.5343 51.4472 31.7113 49.8594 34.8047C50.0161 34.8822 50.1728 34.9597 50.3342 35.0396C55.1727 37.4514 59.5245 40.1805 63.5235 43.8282C63.6533 43.9463 63.783 44.0644 63.9167 44.186C66.1384 46.2373 68.0229 48.5387 69.711 51.0469C69.711 51.2171 69.711 51.3872 69.711 51.5625C70.9141 50.5524 72.044 49.4949 73.1431 48.3721C74.2751 47.2217 75.4638 46.1807 76.7273 45.1766C77.4553 44.5936 78.1575 43.9866 78.8633 43.377C87.6689 36.0333 97.9112 31.3651 109.563 32.2787C115.51 32.931 121.064 35.3808 125.656 39.1875C125.984 39.4567 125.984 39.4567 126.319 39.7313C132.058 44.661 136.034 52.0377 137 59.5547C137.081 60.807 137.098 62.0543 137.097 63.3091C137.097 63.4787 137.097 63.6483 137.097 63.823C137.087 67.6092 136.472 70.8853 135.077 74.4091C134.882 75.0204 134.882 75.0204 135.127 75.5854C135.569 76.2217 136.122 76.629 136.742 77.086C136.727 77.5442 136.727 77.5442 136.484 78.1172C135.879 78.4598 135.294 78.7503 134.664 79.0357C132.985 79.8592 132.044 80.6986 131.022 82.2956C129.889 84.0417 128.34 85.4994 126.871 86.9624C126.642 87.1902 126.414 87.418 126.178 87.6527C126.006 87.824 125.834 87.9954 125.656 88.1719C125.897 88.1784 126.138 88.1848 126.386 88.1915C127.276 88.216 128.166 88.2415 129.057 88.2679C129.443 88.2791 129.829 88.2898 130.214 88.3001C130.768 88.315 131.321 88.3314 131.875 88.3481C132.208 88.3576 132.542 88.367 132.886 88.3768C133.648 88.4297 133.648 88.4297 133.906 88.6875C133.931 89.2324 133.938 89.7782 133.937 90.3237C133.938 90.4962 133.938 90.6686 133.938 90.8463C133.938 91.4302 133.937 92.0142 133.936 92.5981C133.935 93.0214 133.936 93.4448 133.936 93.8682C133.936 95.0059 133.934 96.1436 133.932 97.2814C133.931 98.3475 133.931 99.4136 133.931 100.48C133.929 103.601 133.926 106.723 133.922 109.844C133.917 116.815 133.912 123.786 133.906 130.969C114.338 130.969 94.7703 130.969 74.6094 130.969C74.6041 123.998 74.5988 117.027 74.5933 109.844C74.591 107.639 74.5886 105.434 74.5862 103.162C74.585 100.48 74.585 100.48 74.5848 99.2257C74.5846 98.3457 74.5836 97.4657 74.5822 96.5857C74.5804 95.4654 74.5799 94.3451 74.5803 93.2248C74.5802 92.8123 74.5797 92.3998 74.5787 91.9873C74.5774 91.4327 74.5777 90.8782 74.5784 90.3237C74.5781 89.8564 74.5781 89.8564 74.5777 89.3796C74.6094 88.6875 74.6094 88.6875 74.8672 88.4297C75.4011 88.3889 75.9363 88.3649 76.4715 88.3481C76.7964 88.3373 77.1212 88.3265 77.4559 88.3154C77.8015 88.3051 78.1471 88.2949 78.4927 88.2847C78.8393 88.2736 79.1859 88.2623 79.5325 88.251C80.3836 88.2235 81.2348 88.1972 82.086 88.1719C81.9554 88.0971 81.8249 88.0223 81.6904 87.9452C77.2418 85.3787 73.1105 82.4741 69.1954 79.1485C67.4978 81.1562 67.1672 83.5857 66.6172 86.1094C66.0261 86.2695 66.0261 86.2695 65.3282 86.3672C64.4742 85.8677 64.4742 85.8677 63.7813 85.336C63.6676 85.4646 63.554 85.5932 63.4369 85.7257C57.3793 92.1894 47.9424 96.4534 39.1068 96.7502C35.8301 96.8166 32.6675 96.7872 29.4922 95.9063C29.3126 95.8578 29.133 95.8093 28.9479 95.7594C23.9756 94.3827 19.9248 91.8297 16.086 88.4297C15.8889 88.2589 15.6918 88.0881 15.4888 87.9121C13.4684 86.0309 11.396 83.502 10.1875 81.0136C9.46837 79.917 8.71108 79.5968 7.52982 79.1001C6.83062 78.7998 6.18587 78.4845 5.51566 78.1172C5.43059 77.7769 5.34551 77.4366 5.25785 77.086C5.8534 76.5755 6.44895 76.065 7.06254 75.5391C7.01867 75.3792 6.9748 75.2194 6.9296 75.0547C6.71517 74.2711 6.5021 73.4871 6.2891 72.7032C6.24498 72.5418 6.20087 72.3805 6.15541 72.2142C6.0166 71.706 5.87885 71.1975 5.74125 70.689C5.65551 70.3736 5.56976 70.0582 5.48142 69.7333C3.46482 61.6396 5.72524 53.1639 9.9015 46.1656C10.68 44.9649 11.5354 43.8733 12.4766 42.7969C12.6856 42.5506 12.8947 42.3044 13.1101 42.0507C15.589 39.1903 18.4447 37.0264 21.7679 35.2317C22.4147 34.8699 22.9852 34.4932 23.5625 34.0313C23.4319 33.7601 23.4319 33.7601 23.2987 33.4834C23.1837 33.2388 23.0687 32.9942 22.9502 32.7422C22.8366 32.5029 22.7229 32.2636 22.6058 32.0171C21.0923 28.2746 21.3669 23.9417 22.8938 20.2685C24.6983 16.3277 27.5097 13.8219 31.4611 12.0719C36.2494 10.4019 41.5312 11.1093 45.7344 13.9219ZM26.3985 17.2735C23.7986 20.5753 22.7905 23.927 23.0469 28.1016C23.5299 31.3395 24.9015 33.9043 27.1417 36.2539C28.3405 37.6009 28.9259 39.0354 29.4922 40.7344C34.4268 40.7344 39.3613 40.7344 44.4454 40.7344C44.7857 39.7985 45.126 38.8627 45.4766 37.8985C45.965 37.1482 45.965 37.1482 46.4595 36.5933C46.7277 36.2752 46.7277 36.2752 47.0013 35.9508C47.2675 35.6387 47.2675 35.6387 47.5391 35.3203C50.1139 32.1734 51.0111 28.773 50.6945 24.7738C50.3991 22.1899 49.3012 20.1261 47.7969 18.0469C47.6055 17.7757 47.4141 17.5045 47.2168 17.2251C44.4337 14.3787 40.9098 12.6631 36.9366 12.5362C32.7859 12.6022 29.2219 14.2466 26.3985 17.2735ZM78.4766 45.6328C78.3425 45.74 78.2085 45.8471 78.0704 45.9575C75.8079 47.7727 73.7473 49.7929 71.6929 51.8365C71.5609 51.9671 71.4289 52.0978 71.2929 52.2324C69.5264 53.9848 67.9101 55.8003 66.3594 57.75C66.1368 58.0149 65.9129 58.2788 65.6867 58.5406C61.0677 63.4455 61.0677 63.4455 58.3672 69.0938C59.734 69.2417 61.1009 69.3885 62.4679 69.5344C62.9326 69.5841 63.3972 69.6341 63.8617 69.6844C64.5311 69.7569 65.2005 69.8283 65.87 69.8994C66.1794 69.9333 66.1794 69.9333 66.4952 69.9678C67.573 70.0813 68.6252 70.1493 69.711 70.125C69.6784 70.2836 69.6458 70.4422 69.6122 70.6057C69.4656 71.3259 69.3224 72.0467 69.1792 72.7676C69.1279 73.0172 69.0765 73.2668 69.0236 73.5239C68.9763 73.7649 68.9289 74.0058 68.8801 74.2541C68.8356 74.4755 68.791 74.6969 68.7451 74.925C68.6783 75.5525 68.744 75.9745 68.9375 76.5703C69.032 76.433 69.1265 76.2957 69.2239 76.1543C71.1935 73.2989 73.1976 70.4989 75.3829 67.8047C75.68 67.4328 75.68 67.4328 75.9831 67.0534C77.1665 65.5845 78.4033 64.177 79.6811 62.7895C80.1828 62.2406 80.6695 61.6838 81.1514 61.1177C83.2413 58.7236 85.5284 56.6288 88.0157 54.6563C88.2373 54.4688 88.459 54.2814 88.6874 54.0883C94.4782 49.1956 100.869 45.5365 108.641 46.1485C112.228 46.5989 115.164 48.5199 117.664 51.0469C117.825 51.1991 117.986 51.3513 118.152 51.5081C120.42 53.8274 121.74 57.1851 122.305 60.3282C122.392 60.7668 122.392 60.7668 122.482 61.2144C122.765 64.4395 122.603 67.8935 121.273 70.8985C120.593 70.8134 119.912 70.7283 119.211 70.6407C120.36 76.8939 120.36 76.8939 121.531 83.2735C122.268 83.6074 122.268 83.6074 122.848 83.3372C123.057 83.2313 123.266 83.1253 123.481 83.0162C123.719 82.8975 123.956 82.7787 124.201 82.6564C124.456 82.5254 124.711 82.3943 124.974 82.2593C125.237 82.1274 125.499 81.9954 125.769 81.8594C126.608 81.4362 127.445 81.0094 128.283 80.5826C128.85 80.2955 129.418 80.0086 129.986 79.722C131.38 79.0179 132.773 78.3108 134.164 77.6016C134.164 77.3464 134.164 77.0911 134.164 76.8281C133.909 76.658 133.654 76.4878 133.391 76.3125C133.475 74.9283 133.796 73.7697 134.261 72.4615C136.657 65.5395 136.236 57.9489 133.133 51.3047C131.794 48.5625 130.283 46.1029 128.234 43.8282C128.058 43.6155 127.882 43.4028 127.701 43.1836C122.999 37.6318 116.041 34.4644 108.898 33.5962C108.469 33.5636 108.039 33.5371 107.609 33.5157C107.352 33.502 107.095 33.4884 106.83 33.4744C95.8224 33.1793 86.7067 38.9348 78.4766 45.6328ZM14.917 42.1442C9.32559 47.987 6.07984 55.9359 6.18525 64.0275C6.29466 67.344 6.96253 70.3704 8.09845 73.4833C8.75496 75.3013 8.75496 75.3013 8.60941 76.3125C8.09379 76.7476 8.09379 76.7476 7.57816 77.086C7.57816 77.2561 7.57816 77.4263 7.57816 77.6016C9.39802 78.5278 11.2199 79.4501 13.0431 80.3695C13.6637 80.6827 14.2836 80.9971 14.903 81.3126C15.7919 81.7649 16.6825 82.2138 17.5734 82.6622C17.8514 82.8045 18.1294 82.9468 18.4158 83.0934C18.6738 83.2225 18.9318 83.3515 19.1977 83.4845C19.4249 83.5996 19.6522 83.7147 19.8864 83.8332C20.4983 84.1264 20.4983 84.1264 21.2422 83.7891C21.4637 82.1239 21.6839 80.4585 21.9031 78.793C21.9779 78.2266 22.0529 77.6602 22.1282 77.0938C22.2365 76.2793 22.3437 75.4646 22.4507 74.6498C22.5015 74.2707 22.5015 74.2707 22.5533 73.8839C22.5842 73.6466 22.6152 73.4092 22.6471 73.1647C22.6746 72.9569 22.7021 72.7491 22.7304 72.535C22.792 71.8998 22.7991 71.2784 22.7891 70.6407C22.1085 70.7257 21.4279 70.8108 20.7266 70.8985C20.5588 70.3725 20.3926 69.846 20.2271 69.3194C20.1344 69.0262 20.0416 68.7331 19.9461 68.4311C18.5214 63.4076 19.3055 57.7109 21.7639 53.1497C23.4505 50.4565 25.8239 48.4748 28.7188 47.1797C28.6779 46.971 28.637 46.7623 28.5949 46.5473C28.4679 45.6803 28.4238 44.8514 28.3995 43.9778C28.2883 40.4855 27.4404 38.0859 24.8516 35.5782C21.3574 35.5782 17.2306 39.8421 14.917 42.1442ZM48.5704 36.0938C48.0686 36.6093 48.0686 36.6093 47.5552 37.27C47.3774 37.4884 47.1996 37.7067 47.0164 37.9317C45.8024 39.6987 45.5877 41.2282 45.4444 43.3286C45.4066 43.8258 45.3684 44.323 45.3296 44.8201C45.3119 45.0505 45.2942 45.2808 45.2759 45.5182C45.2094 46.2519 45.1 46.9719 44.961 47.6953C45.2445 47.8545 45.5279 48.0137 45.82 48.1777C48.1108 49.4824 50.2041 50.8332 52.1797 52.5938C52.3957 52.7789 52.6118 52.964 52.8343 53.1547C55.3583 55.3544 57.4422 57.7992 59.3401 60.5437C59.8507 61.2694 60.3828 61.9626 60.9454 62.6485C61.0859 62.458 61.2265 62.2676 61.3713 62.0714C62.9806 59.9065 64.6389 57.7939 66.4198 55.7661C66.562 55.6034 66.7041 55.4406 66.8506 55.273C67.1312 54.9526 67.4135 54.6338 67.6976 54.3165C68.4973 53.4573 68.4973 53.4573 68.6797 52.336C67.2268 49.8191 65.2858 47.7001 63.2657 45.6328C63.1258 45.487 62.986 45.3411 62.8419 45.1909C61.7655 44.0855 60.6273 43.1162 59.3985 42.1846C59.2077 42.0398 59.017 41.895 58.8205 41.7458C54.0409 38.0125 54.0409 38.0125 48.5704 36.0938ZM29.4922 42.2813C29.4922 45.2285 29.805 47.1866 31.8669 49.3318C33.5493 50.8856 35.3213 51.4403 37.5831 51.3853C39.5525 51.1501 41.3435 50.2284 42.6407 48.7266C44.1359 46.4935 44.1875 45.1372 44.1875 42.2813C39.3381 42.2813 34.4886 42.2813 29.4922 42.2813ZM89.8204 54.9141C89.5635 55.1175 89.3066 55.3209 89.0419 55.5304C86.8012 57.3548 84.7719 59.3996 82.7305 61.44C82.5829 61.5873 82.4352 61.7347 82.2831 61.8865C81.3497 62.8202 80.4251 63.7615 79.5079 64.711C79.2337 64.9928 79.2337 64.9928 78.954 65.2803C78.4734 65.7821 78.4734 65.7821 77.961 66.5157C78.0391 67.3675 78.3576 67.7758 78.9721 68.3465C79.1284 68.4928 79.2848 68.6391 79.4459 68.7899C79.6152 68.9433 79.7846 69.0968 79.959 69.2549C80.221 69.4951 80.221 69.4951 80.4882 69.7401C82.0669 71.1703 83.7018 72.4975 85.4375 73.7344C85.5863 73.8406 85.735 73.9468 85.8882 74.0563C91.9695 78.3532 99.5468 82.1819 107.213 81.0831C111.499 80.2458 115.426 78.2619 118.18 74.7657C118.676 73.5245 118.305 72.3369 118.046 71.0626C117.909 70.3103 117.881 69.5992 117.922 68.836C118.793 68.9746 119.646 69.1307 120.5 69.3516C121.978 65.5959 121.675 60.9512 120.242 57.2344C119.23 54.9147 117.914 53.0769 116.117 51.3047C115.953 51.1379 115.789 50.971 115.62 50.7992C113.039 48.3472 109.624 47.1894 106.111 47.0669C99.8099 47.2398 94.5517 51.1245 89.8204 54.9141ZM24.6744 51.2886C22.5779 53.4905 21.3088 56.6036 20.7266 59.5547C20.6681 59.8365 20.6096 60.1184 20.5494 60.4087C20.3094 63.2396 20.1862 66.7238 21.5 69.3516C22.7762 69.0964 22.7762 69.0964 24.0782 68.836C24.0386 69.1813 23.9991 69.5266 23.9583 69.8823C23.5656 72.7584 23.5656 72.7584 24.5616 75.3457C25.0704 75.8545 25.0704 75.8545 25.625 76.3125C25.8688 76.5703 25.8688 76.5703 26.1175 76.8332C28.9629 79.7005 33.106 81.1552 37.0816 81.3076C42.5361 81.1232 47.2232 78.7023 51.1213 75.0204C51.5633 74.6031 52.0084 74.2219 52.4859 73.8472C53.4282 73.0305 54.2157 72.1101 55.0157 71.1563C54.8242 70.8691 54.8242 70.8691 54.6289 70.5762C54.2422 69.8672 54.2422 69.8672 54.2422 68.836C54.3858 68.8689 54.5294 68.9018 54.6773 68.9357C55.3863 69.0279 55.8697 69.0275 56.5625 68.836C58.0221 67.423 58.9917 65.4757 59.9141 63.6797C56.2776 58.0509 51.0786 51.2624 44.4454 48.9844C43.6388 49.1717 43.6388 49.1717 43.2369 49.8223C41.8393 51.4843 39.9866 52.2232 37.8419 52.4226C34.67 52.4561 32.8028 51.8982 30.4751 49.7327C30.0079 49.2422 30.0079 49.2422 29.4922 48.4688C27.711 48.4688 25.9484 50.1364 24.6744 51.2886ZM76.5712 68.4069C74.6944 70.4651 73.1091 72.7435 71.5157 75.0235C71.3652 75.2328 71.2147 75.4422 71.0597 75.6579C70.9157 75.8633 70.7717 76.0687 70.6234 76.2803C70.4917 76.4657 70.3599 76.6512 70.2242 76.8422C70.1399 77.0078 70.0556 77.1733 69.9688 77.3438C70.3102 78.3681 70.9759 78.7761 71.8057 79.4063C71.968 79.5311 72.1304 79.6559 72.2976 79.7846C72.6398 80.0466 72.9828 80.3076 73.3265 80.5677C73.6513 80.8134 73.9752 81.0602 74.2981 81.3084C77.101 83.462 80.0671 85.3561 83.1172 87.1407C83.2647 87.2447 83.4121 87.3487 83.5641 87.4559C85.3576 88.6215 87.0131 88.6222 89.1071 88.6211C89.4733 88.6254 89.8395 88.6302 90.2056 88.6354C91.1943 88.6479 92.1829 88.652 93.1717 88.6538C93.791 88.6553 94.4102 88.6586 95.0295 88.6624C97.1945 88.6759 99.3594 88.6824 101.524 88.6827C103.536 88.6832 105.546 88.6991 107.557 88.7221C109.29 88.7412 111.022 88.7493 112.755 88.749C113.787 88.749 114.819 88.7533 115.851 88.769C116.823 88.7833 117.794 88.7838 118.766 88.7741C119.287 88.7722 119.809 88.7842 120.33 88.7969C122.537 88.7569 123.654 88.2029 125.165 86.6801C125.504 86.3215 125.838 85.9577 126.172 85.5938C126.546 85.2316 126.921 84.8712 127.3 84.5142C128.231 83.573 129.021 82.5513 129.781 81.4688C128.707 81.8053 127.718 82.2106 126.71 82.7115C126.429 82.8494 126.147 82.9874 125.858 83.1295C125.27 83.42 124.682 83.7114 124.095 84.0036C123.815 84.1409 123.534 84.2781 123.245 84.4195C122.863 84.609 122.863 84.609 122.473 84.8023C121.789 85.0782 121.789 85.0782 120.758 85.0782C120.162 82.1004 119.567 79.1227 118.953 76.0547C117.771 77.0673 117.771 77.0673 116.592 78.084C112.408 81.5288 107.504 82.6488 102.195 82.2422C100.875 82.1044 99.6086 81.8176 98.3282 81.4688C98.0706 81.4002 98.0706 81.4002 97.8078 81.3302C90.0368 79.1985 83.2589 74.3111 77.7152 68.5832C77.1319 67.9248 77.1319 67.9248 76.5712 68.4069ZM56.0469 70.125C56.1401 70.4032 56.1401 70.4032 56.2352 70.687C56.3047 71.4141 56.3047 71.4141 55.9311 72.0606C51.872 76.8068 46.4728 81.4213 40.0625 82.2422C39.0523 82.3189 38.0462 82.3466 37.0332 82.355C36.7893 82.3577 36.5454 82.3603 36.2941 82.363C33.7805 82.3317 31.4906 81.6923 29.2505 80.5664C29.0772 80.4802 28.9038 80.3939 28.7252 80.305C27.1507 79.4767 25.912 78.3949 24.6603 77.1434C24.1315 76.5638 24.1315 76.5638 23.5625 76.3125C23.139 78.0875 22.8568 79.8524 22.628 81.6621C22.5761 82.0545 22.5761 82.0545 22.5232 82.4547C22.3761 83.597 22.2541 84.6982 22.2735 85.8516C19.9479 85.1749 17.8693 84.0596 15.73 82.9489C15.2483 82.6996 14.7654 82.4527 14.2823 82.206C13.9973 82.0583 13.7124 81.9107 13.4188 81.7586C13.08 81.6151 13.08 81.6151 12.7344 81.4688C12.4792 81.5964 12.4792 81.5964 12.2188 81.7266C17.5243 88.8511 24.2222 93.9355 33.2094 95.2607C42.9401 96.4636 52.1441 92.9186 59.7698 87.077C60.8676 86.2114 61.8243 85.2511 62.75 84.206C63.2657 83.7891 63.2657 83.7891 63.9102 83.6944C64.5721 83.7916 65.0003 83.9944 65.586 84.3047C65.9546 82.635 66.3216 80.9649 66.6875 79.2945C66.8121 78.7262 66.9372 78.1581 67.0626 77.59C67.2428 76.7737 67.4216 75.957 67.6001 75.1403C67.6565 74.8862 67.7129 74.6321 67.771 74.3703C67.8226 74.133 67.8743 73.8956 67.9274 73.6511C67.9961 73.3385 67.9961 73.3385 68.0662 73.0196C68.193 72.373 68.193 72.373 68.1641 71.4141C65.7645 71.0201 63.3645 70.7237 60.9454 70.4795C60.6147 70.445 60.284 70.4104 59.9433 70.3748C57.9992 70.1717 57.9992 70.1717 56.0469 70.125ZM75.8985 89.7188C75.8985 102.906 75.8985 116.093 75.8985 129.68C78.7911 129.68 81.6838 129.68 84.6641 129.68C84.6641 124.575 84.6641 119.47 84.6641 114.211C83.4334 115.25 83.4334 115.25 82.2793 116.37C81.8282 116.789 81.8282 116.789 81.0547 116.789C81.1585 115.526 81.7771 114.865 82.6499 114.018C82.7872 113.883 82.9245 113.749 83.0659 113.61C86.0772 110.756 89.807 108.568 94.047 108.664C96.2567 108.789 97.2578 109.451 98.731 111.053C99.2744 111.684 99.807 112.323 100.332 112.969C101.925 114.888 103.951 116.6 106.498 116.902C108.28 116.848 109.861 115.89 111.122 114.678C111.78 113.973 112.358 113.221 112.943 112.455C116.462 108.006 122.11 104.973 127.703 104.215C127.966 104.186 127.966 104.186 128.234 104.156C128.149 104.497 128.064 104.837 127.977 105.188C126.7 105.57 126.7 105.57 125.398 105.961C125.398 113.788 125.398 121.615 125.398 129.68C127.781 129.68 130.163 129.68 132.617 129.68C132.617 116.493 132.617 103.305 132.617 89.7188C113.9 89.7188 95.1829 89.7188 75.8985 89.7188ZM121.692 107.379C121.521 107.46 121.349 107.541 121.172 107.625C120.592 107.91 120.033 108.224 119.469 108.539C119.23 108.658 118.99 108.777 118.744 108.9C117.531 109.609 116.76 110.129 116.384 111.524C116.268 112.675 116.314 113.822 116.356 114.976C116.361 115.401 116.365 115.826 116.368 116.251C116.379 117.363 116.407 118.475 116.438 119.587C116.467 120.724 116.48 121.861 116.494 122.999C116.525 125.226 116.575 127.453 116.633 129.68C119.015 129.68 121.397 129.68 123.852 129.68C123.852 122.023 123.852 114.366 123.852 106.477C123.148 106.477 122.329 107.067 121.692 107.379ZM85.9532 112.922C85.9289 113.444 85.9229 113.967 85.9239 114.489C85.9239 114.825 85.9239 115.16 85.924 115.506C85.9253 115.875 85.9266 116.244 85.928 116.613C85.9285 116.988 85.9288 117.364 85.9291 117.739C85.9301 118.729 85.9326 119.718 85.9355 120.708C85.9386 121.894 85.9398 123.081 85.9413 124.267C85.9438 126.072 85.9487 127.876 85.9532 129.68C89.1011 129.68 92.2489 129.68 95.4922 129.68C95.4922 123.214 95.4922 116.748 95.4922 110.086C92.7155 108.698 87.9392 110.936 85.9532 112.922ZM96.7813 111.117C96.7813 117.243 96.7813 123.368 96.7813 129.68C99.6739 129.68 102.567 129.68 105.547 129.68C105.547 125.851 105.547 122.023 105.547 118.078C104.271 117.568 104.271 117.568 102.969 117.047C100.775 115.736 99.1588 113.679 97.5547 111.73C97.3846 111.527 97.2144 111.325 97.0391 111.117C96.954 111.117 96.8689 111.117 96.7813 111.117ZM115.086 111.891C114.744 112.29 114.403 112.691 114.068 113.096C111.983 115.615 110.138 117.418 106.836 118.078C106.836 121.907 106.836 125.735 106.836 129.68C109.644 129.68 112.451 129.68 115.344 129.68C115.344 123.809 115.344 117.939 115.344 111.891C115.259 111.891 115.174 111.891 115.086 111.891Z"/>
</mask>
<path d="M45.7344 13.9219C49.3966 16.7827 51.5364 20.381 52.1797 25.0078C52.529 28.5343 51.4472 31.7113 49.8594 34.8047C50.0161 34.8822 50.1728 34.9597 50.3342 35.0396C55.1727 37.4514 59.5245 40.1805 63.5235 43.8282C63.6533 43.9463 63.783 44.0644 63.9167 44.186C66.1384 46.2373 68.0229 48.5387 69.711 51.0469C69.711 51.2171 69.711 51.3872 69.711 51.5625C70.9141 50.5524 72.044 49.4949 73.1431 48.3721C74.2751 47.2217 75.4638 46.1807 76.7273 45.1766C77.4553 44.5936 78.1575 43.9866 78.8633 43.377C87.6689 36.0333 97.9112 31.3651 109.563 32.2787C115.51 32.931 121.064 35.3808 125.656 39.1875C125.984 39.4567 125.984 39.4567 126.319 39.7313C132.058 44.661 136.034 52.0377 137 59.5547C137.081 60.807 137.098 62.0543 137.097 63.3091C137.097 63.4787 137.097 63.6483 137.097 63.823C137.087 67.6092 136.472 70.8853 135.077 74.4091C134.882 75.0204 134.882 75.0204 135.127 75.5854C135.569 76.2217 136.122 76.629 136.742 77.086C136.727 77.5442 136.727 77.5442 136.484 78.1172C135.879 78.4598 135.294 78.7503 134.664 79.0357C132.985 79.8592 132.044 80.6986 131.022 82.2956C129.889 84.0417 128.34 85.4994 126.871 86.9624C126.642 87.1902 126.414 87.418 126.178 87.6527C126.006 87.824 125.834 87.9954 125.656 88.1719C125.897 88.1784 126.138 88.1848 126.386 88.1915C127.276 88.216 128.166 88.2415 129.057 88.2679C129.443 88.2791 129.829 88.2898 130.214 88.3001C130.768 88.315 131.321 88.3314 131.875 88.3481C132.208 88.3576 132.542 88.367 132.886 88.3768C133.648 88.4297 133.648 88.4297 133.906 88.6875C133.931 89.2324 133.938 89.7782 133.937 90.3237C133.938 90.4962 133.938 90.6686 133.938 90.8463C133.938 91.4302 133.937 92.0142 133.936 92.5981C133.935 93.0214 133.936 93.4448 133.936 93.8682C133.936 95.0059 133.934 96.1436 133.932 97.2814C133.931 98.3475 133.931 99.4136 133.931 100.48C133.929 103.601 133.926 106.723 133.922 109.844C133.917 116.815 133.912 123.786 133.906 130.969C114.338 130.969 94.7703 130.969 74.6094 130.969C74.6041 123.998 74.5988 117.027 74.5933 109.844C74.591 107.639 74.5886 105.434 74.5862 103.162C74.585 100.48 74.585 100.48 74.5848 99.2257C74.5846 98.3457 74.5836 97.4657 74.5822 96.5857C74.5804 95.4654 74.5799 94.3451 74.5803 93.2248C74.5802 92.8123 74.5797 92.3998 74.5787 91.9873C74.5774 91.4327 74.5777 90.8782 74.5784 90.3237C74.5781 89.8564 74.5781 89.8564 74.5777 89.3796C74.6094 88.6875 74.6094 88.6875 74.8672 88.4297C75.4011 88.3889 75.9363 88.3649 76.4715 88.3481C76.7964 88.3373 77.1212 88.3265 77.4559 88.3154C77.8015 88.3051 78.1471 88.2949 78.4927 88.2847C78.8393 88.2736 79.1859 88.2623 79.5325 88.251C80.3836 88.2235 81.2348 88.1972 82.086 88.1719C81.9554 88.0971 81.8249 88.0223 81.6904 87.9452C77.2418 85.3787 73.1105 82.4741 69.1954 79.1485C67.4978 81.1562 67.1672 83.5857 66.6172 86.1094C66.0261 86.2695 66.0261 86.2695 65.3282 86.3672C64.4742 85.8677 64.4742 85.8677 63.7813 85.336C63.6676 85.4646 63.554 85.5932 63.4369 85.7257C57.3793 92.1894 47.9424 96.4534 39.1068 96.7502C35.8301 96.8166 32.6675 96.7872 29.4922 95.9063C29.3126 95.8578 29.133 95.8093 28.9479 95.7594C23.9756 94.3827 19.9248 91.8297 16.086 88.4297C15.8889 88.2589 15.6918 88.0881 15.4888 87.9121C13.4684 86.0309 11.396 83.502 10.1875 81.0136C9.46837 79.917 8.71108 79.5968 7.52982 79.1001C6.83062 78.7998 6.18587 78.4845 5.51566 78.1172C5.43059 77.7769 5.34551 77.4366 5.25785 77.086C5.8534 76.5755 6.44895 76.065 7.06254 75.5391C7.01867 75.3792 6.9748 75.2194 6.9296 75.0547C6.71517 74.2711 6.5021 73.4871 6.2891 72.7032C6.24498 72.5418 6.20087 72.3805 6.15541 72.2142C6.0166 71.706 5.87885 71.1975 5.74125 70.689C5.65551 70.3736 5.56976 70.0582 5.48142 69.7333C3.46482 61.6396 5.72524 53.1639 9.9015 46.1656C10.68 44.9649 11.5354 43.8733 12.4766 42.7969C12.6856 42.5506 12.8947 42.3044 13.1101 42.0507C15.589 39.1903 18.4447 37.0264 21.7679 35.2317C22.4147 34.8699 22.9852 34.4932 23.5625 34.0313C23.4319 33.7601 23.4319 33.7601 23.2987 33.4834C23.1837 33.2388 23.0687 32.9942 22.9502 32.7422C22.8366 32.5029 22.7229 32.2636 22.6058 32.0171C21.0923 28.2746 21.3669 23.9417 22.8938 20.2685C24.6983 16.3277 27.5097 13.8219 31.4611 12.0719C36.2494 10.4019 41.5312 11.1093 45.7344 13.9219ZM26.3985 17.2735C23.7986 20.5753 22.7905 23.927 23.0469 28.1016C23.5299 31.3395 24.9015 33.9043 27.1417 36.2539C28.3405 37.6009 28.9259 39.0354 29.4922 40.7344C34.4268 40.7344 39.3613 40.7344 44.4454 40.7344C44.7857 39.7985 45.126 38.8627 45.4766 37.8985C45.965 37.1482 45.965 37.1482 46.4595 36.5933C46.7277 36.2752 46.7277 36.2752 47.0013 35.9508C47.2675 35.6387 47.2675 35.6387 47.5391 35.3203C50.1139 32.1734 51.0111 28.773 50.6945 24.7738C50.3991 22.1899 49.3012 20.1261 47.7969 18.0469C47.6055 17.7757 47.4141 17.5045 47.2168 17.2251C44.4337 14.3787 40.9098 12.6631 36.9366 12.5362C32.7859 12.6022 29.2219 14.2466 26.3985 17.2735ZM78.4766 45.6328C78.3425 45.74 78.2085 45.8471 78.0704 45.9575C75.8079 47.7727 73.7473 49.7929 71.6929 51.8365C71.5609 51.9671 71.4289 52.0978 71.2929 52.2324C69.5264 53.9848 67.9101 55.8003 66.3594 57.75C66.1368 58.0149 65.9129 58.2788 65.6867 58.5406C61.0677 63.4455 61.0677 63.4455 58.3672 69.0938C59.734 69.2417 61.1009 69.3885 62.4679 69.5344C62.9326 69.5841 63.3972 69.6341 63.8617 69.6844C64.5311 69.7569 65.2005 69.8283 65.87 69.8994C66.1794 69.9333 66.1794 69.9333 66.4952 69.9678C67.573 70.0813 68.6252 70.1493 69.711 70.125C69.6784 70.2836 69.6458 70.4422 69.6122 70.6057C69.4656 71.3259 69.3224 72.0467 69.1792 72.7676C69.1279 73.0172 69.0765 73.2668 69.0236 73.5239C68.9763 73.7649 68.9289 74.0058 68.8801 74.2541C68.8356 74.4755 68.791 74.6969 68.7451 74.925C68.6783 75.5525 68.744 75.9745 68.9375 76.5703C69.032 76.433 69.1265 76.2957 69.2239 76.1543C71.1935 73.2989 73.1976 70.4989 75.3829 67.8047C75.68 67.4328 75.68 67.4328 75.9831 67.0534C77.1665 65.5845 78.4033 64.177 79.6811 62.7895C80.1828 62.2406 80.6695 61.6838 81.1514 61.1177C83.2413 58.7236 85.5284 56.6288 88.0157 54.6563C88.2373 54.4688 88.459 54.2814 88.6874 54.0883C94.4782 49.1956 100.869 45.5365 108.641 46.1485C112.228 46.5989 115.164 48.5199 117.664 51.0469C117.825 51.1991 117.986 51.3513 118.152 51.5081C120.42 53.8274 121.74 57.1851 122.305 60.3282C122.392 60.7668 122.392 60.7668 122.482 61.2144C122.765 64.4395 122.603 67.8935 121.273 70.8985C120.593 70.8134 119.912 70.7283 119.211 70.6407C120.36 76.8939 120.36 76.8939 121.531 83.2735C122.268 83.6074 122.268 83.6074 122.848 83.3372C123.057 83.2313 123.266 83.1253 123.481 83.0162C123.719 82.8975 123.956 82.7787 124.201 82.6564C124.456 82.5254 124.711 82.3943 124.974 82.2593C125.237 82.1274 125.499 81.9954 125.769 81.8594C126.608 81.4362 127.445 81.0094 128.283 80.5826C128.85 80.2955 129.418 80.0086 129.986 79.722C131.38 79.0179 132.773 78.3108 134.164 77.6016C134.164 77.3464 134.164 77.0911 134.164 76.8281C133.909 76.658 133.654 76.4878 133.391 76.3125C133.475 74.9283 133.796 73.7697 134.261 72.4615C136.657 65.5395 136.236 57.9489 133.133 51.3047C131.794 48.5625 130.283 46.1029 128.234 43.8282C128.058 43.6155 127.882 43.4028 127.701 43.1836C122.999 37.6318 116.041 34.4644 108.898 33.5962C108.469 33.5636 108.039 33.5371 107.609 33.5157C107.352 33.502 107.095 33.4884 106.83 33.4744C95.8224 33.1793 86.7067 38.9348 78.4766 45.6328ZM14.917 42.1442C9.32559 47.987 6.07984 55.9359 6.18525 64.0275C6.29466 67.344 6.96253 70.3704 8.09845 73.4833C8.75496 75.3013 8.75496 75.3013 8.60941 76.3125C8.09379 76.7476 8.09379 76.7476 7.57816 77.086C7.57816 77.2561 7.57816 77.4263 7.57816 77.6016C9.39802 78.5278 11.2199 79.4501 13.0431 80.3695C13.6637 80.6827 14.2836 80.9971 14.903 81.3126C15.7919 81.7649 16.6825 82.2138 17.5734 82.6622C17.8514 82.8045 18.1294 82.9468 18.4158 83.0934C18.6738 83.2225 18.9318 83.3515 19.1977 83.4845C19.4249 83.5996 19.6522 83.7147 19.8864 83.8332C20.4983 84.1264 20.4983 84.1264 21.2422 83.7891C21.4637 82.1239 21.6839 80.4585 21.9031 78.793C21.9779 78.2266 22.0529 77.6602 22.1282 77.0938C22.2365 76.2793 22.3437 75.4646 22.4507 74.6498C22.5015 74.2707 22.5015 74.2707 22.5533 73.8839C22.5842 73.6466 22.6152 73.4092 22.6471 73.1647C22.6746 72.9569 22.7021 72.7491 22.7304 72.535C22.792 71.8998 22.7991 71.2784 22.7891 70.6407C22.1085 70.7257 21.4279 70.8108 20.7266 70.8985C20.5588 70.3725 20.3926 69.846 20.2271 69.3194C20.1344 69.0262 20.0416 68.7331 19.9461 68.4311C18.5214 63.4076 19.3055 57.7109 21.7639 53.1497C23.4505 50.4565 25.8239 48.4748 28.7188 47.1797C28.6779 46.971 28.637 46.7623 28.5949 46.5473C28.4679 45.6803 28.4238 44.8514 28.3995 43.9778C28.2883 40.4855 27.4404 38.0859 24.8516 35.5782C21.3574 35.5782 17.2306 39.8421 14.917 42.1442ZM48.5704 36.0938C48.0686 36.6093 48.0686 36.6093 47.5552 37.27C47.3774 37.4884 47.1996 37.7067 47.0164 37.9317C45.8024 39.6987 45.5877 41.2282 45.4444 43.3286C45.4066 43.8258 45.3684 44.323 45.3296 44.8201C45.3119 45.0505 45.2942 45.2808 45.2759 45.5182C45.2094 46.2519 45.1 46.9719 44.961 47.6953C45.2445 47.8545 45.5279 48.0137 45.82 48.1777C48.1108 49.4824 50.2041 50.8332 52.1797 52.5938C52.3957 52.7789 52.6118 52.964 52.8343 53.1547C55.3583 55.3544 57.4422 57.7992 59.3401 60.5437C59.8507 61.2694 60.3828 61.9626 60.9454 62.6485C61.0859 62.458 61.2265 62.2676 61.3713 62.0714C62.9806 59.9065 64.6389 57.7939 66.4198 55.7661C66.562 55.6034 66.7041 55.4406 66.8506 55.273C67.1312 54.9526 67.4135 54.6338 67.6976 54.3165C68.4973 53.4573 68.4973 53.4573 68.6797 52.336C67.2268 49.8191 65.2858 47.7001 63.2657 45.6328C63.1258 45.487 62.986 45.3411 62.8419 45.1909C61.7655 44.0855 60.6273 43.1162 59.3985 42.1846C59.2077 42.0398 59.017 41.895 58.8205 41.7458C54.0409 38.0125 54.0409 38.0125 48.5704 36.0938ZM29.4922 42.2813C29.4922 45.2285 29.805 47.1866 31.8669 49.3318C33.5493 50.8856 35.3213 51.4403 37.5831 51.3853C39.5525 51.1501 41.3435 50.2284 42.6407 48.7266C44.1359 46.4935 44.1875 45.1372 44.1875 42.2813C39.3381 42.2813 34.4886 42.2813 29.4922 42.2813ZM89.8204 54.9141C89.5635 55.1175 89.3066 55.3209 89.0419 55.5304C86.8012 57.3548 84.7719 59.3996 82.7305 61.44C82.5829 61.5873 82.4352 61.7347 82.2831 61.8865C81.3497 62.8202 80.4251 63.7615 79.5079 64.711C79.2337 64.9928 79.2337 64.9928 78.954 65.2803C78.4734 65.7821 78.4734 65.7821 77.961 66.5157C78.0391 67.3675 78.3576 67.7758 78.9721 68.3465C79.1284 68.4928 79.2848 68.6391 79.4459 68.7899C79.6152 68.9433 79.7846 69.0968 79.959 69.2549C80.221 69.4951 80.221 69.4951 80.4882 69.7401C82.0669 71.1703 83.7018 72.4975 85.4375 73.7344C85.5863 73.8406 85.735 73.9468 85.8882 74.0563C91.9695 78.3532 99.5468 82.1819 107.213 81.0831C111.499 80.2458 115.426 78.2619 118.18 74.7657C118.676 73.5245 118.305 72.3369 118.046 71.0626C117.909 70.3103 117.881 69.5992 117.922 68.836C118.793 68.9746 119.646 69.1307 120.5 69.3516C121.978 65.5959 121.675 60.9512 120.242 57.2344C119.23 54.9147 117.914 53.0769 116.117 51.3047C115.953 51.1379 115.789 50.971 115.62 50.7992C113.039 48.3472 109.624 47.1894 106.111 47.0669C99.8099 47.2398 94.5517 51.1245 89.8204 54.9141ZM24.6744 51.2886C22.5779 53.4905 21.3088 56.6036 20.7266 59.5547C20.6681 59.8365 20.6096 60.1184 20.5494 60.4087C20.3094 63.2396 20.1862 66.7238 21.5 69.3516C22.7762 69.0964 22.7762 69.0964 24.0782 68.836C24.0386 69.1813 23.9991 69.5266 23.9583 69.8823C23.5656 72.7584 23.5656 72.7584 24.5616 75.3457C25.0704 75.8545 25.0704 75.8545 25.625 76.3125C25.8688 76.5703 25.8688 76.5703 26.1175 76.8332C28.9629 79.7005 33.106 81.1552 37.0816 81.3076C42.5361 81.1232 47.2232 78.7023 51.1213 75.0204C51.5633 74.6031 52.0084 74.2219 52.4859 73.8472C53.4282 73.0305 54.2157 72.1101 55.0157 71.1563C54.8242 70.8691 54.8242 70.8691 54.6289 70.5762C54.2422 69.8672 54.2422 69.8672 54.2422 68.836C54.3858 68.8689 54.5294 68.9018 54.6773 68.9357C55.3863 69.0279 55.8697 69.0275 56.5625 68.836C58.0221 67.423 58.9917 65.4757 59.9141 63.6797C56.2776 58.0509 51.0786 51.2624 44.4454 48.9844C43.6388 49.1717 43.6388 49.1717 43.2369 49.8223C41.8393 51.4843 39.9866 52.2232 37.8419 52.4226C34.67 52.4561 32.8028 51.8982 30.4751 49.7327C30.0079 49.2422 30.0079 49.2422 29.4922 48.4688C27.711 48.4688 25.9484 50.1364 24.6744 51.2886ZM76.5712 68.4069C74.6944 70.4651 73.1091 72.7435 71.5157 75.0235C71.3652 75.2328 71.2147 75.4422 71.0597 75.6579C70.9157 75.8633 70.7717 76.0687 70.6234 76.2803C70.4917 76.4657 70.3599 76.6512 70.2242 76.8422C70.1399 77.0078 70.0556 77.1733 69.9688 77.3438C70.3102 78.3681 70.9759 78.7761 71.8057 79.4063C71.968 79.5311 72.1304 79.6559 72.2976 79.7846C72.6398 80.0466 72.9828 80.3076 73.3265 80.5677C73.6513 80.8134 73.9752 81.0602 74.2981 81.3084C77.101 83.462 80.0671 85.3561 83.1172 87.1407C83.2647 87.2447 83.4121 87.3487 83.5641 87.4559C85.3576 88.6215 87.0131 88.6222 89.1071 88.6211C89.4733 88.6254 89.8395 88.6302 90.2056 88.6354C91.1943 88.6479 92.1829 88.652 93.1717 88.6538C93.791 88.6553 94.4102 88.6586 95.0295 88.6624C97.1945 88.6759 99.3594 88.6824 101.524 88.6827C103.536 88.6832 105.546 88.6991 107.557 88.7221C109.29 88.7412 111.022 88.7493 112.755 88.749C113.787 88.749 114.819 88.7533 115.851 88.769C116.823 88.7833 117.794 88.7838 118.766 88.7741C119.287 88.7722 119.809 88.7842 120.33 88.7969C122.537 88.7569 123.654 88.2029 125.165 86.6801C125.504 86.3215 125.838 85.9577 126.172 85.5938C126.546 85.2316 126.921 84.8712 127.3 84.5142C128.231 83.573 129.021 82.5513 129.781 81.4688C128.707 81.8053 127.718 82.2106 126.71 82.7115C126.429 82.8494 126.147 82.9874 125.858 83.1295C125.27 83.42 124.682 83.7114 124.095 84.0036C123.815 84.1409 123.534 84.2781 123.245 84.4195C122.863 84.609 122.863 84.609 122.473 84.8023C121.789 85.0782 121.789 85.0782 120.758 85.0782C120.162 82.1004 119.567 79.1227 118.953 76.0547C117.771 77.0673 117.771 77.0673 116.592 78.084C112.408 81.5288 107.504 82.6488 102.195 82.2422C100.875 82.1044 99.6086 81.8176 98.3282 81.4688C98.0706 81.4002 98.0706 81.4002 97.8078 81.3302C90.0368 79.1985 83.2589 74.3111 77.7152 68.5832C77.1319 67.9248 77.1319 67.9248 76.5712 68.4069ZM56.0469 70.125C56.1401 70.4032 56.1401 70.4032 56.2352 70.687C56.3047 71.4141 56.3047 71.4141 55.9311 72.0606C51.872 76.8068 46.4728 81.4213 40.0625 82.2422C39.0523 82.3189 38.0462 82.3466 37.0332 82.355C36.7893 82.3577 36.5454 82.3603 36.2941 82.363C33.7805 82.3317 31.4906 81.6923 29.2505 80.5664C29.0772 80.4802 28.9038 80.3939 28.7252 80.305C27.1507 79.4767 25.912 78.3949 24.6603 77.1434C24.1315 76.5638 24.1315 76.5638 23.5625 76.3125C23.139 78.0875 22.8568 79.8524 22.628 81.6621C22.5761 82.0545 22.5761 82.0545 22.5232 82.4547C22.3761 83.597 22.2541 84.6982 22.2735 85.8516C19.9479 85.1749 17.8693 84.0596 15.73 82.9489C15.2483 82.6996 14.7654 82.4527 14.2823 82.206C13.9973 82.0583 13.7124 81.9107 13.4188 81.7586C13.08 81.6151 13.08 81.6151 12.7344 81.4688C12.4792 81.5964 12.4792 81.5964 12.2188 81.7266C17.5243 88.8511 24.2222 93.9355 33.2094 95.2607C42.9401 96.4636 52.1441 92.9186 59.7698 87.077C60.8676 86.2114 61.8243 85.2511 62.75 84.206C63.2657 83.7891 63.2657 83.7891 63.9102 83.6944C64.5721 83.7916 65.0003 83.9944 65.586 84.3047C65.9546 82.635 66.3216 80.9649 66.6875 79.2945C66.8121 78.7262 66.9372 78.1581 67.0626 77.59C67.2428 76.7737 67.4216 75.957 67.6001 75.1403C67.6565 74.8862 67.7129 74.6321 67.771 74.3703C67.8226 74.133 67.8743 73.8956 67.9274 73.6511C67.9961 73.3385 67.9961 73.3385 68.0662 73.0196C68.193 72.373 68.193 72.373 68.1641 71.4141C65.7645 71.0201 63.3645 70.7237 60.9454 70.4795C60.6147 70.445 60.284 70.4104 59.9433 70.3748C57.9992 70.1717 57.9992 70.1717 56.0469 70.125ZM75.8985 89.7188C75.8985 102.906 75.8985 116.093 75.8985 129.68C78.7911 129.68 81.6838 129.68 84.6641 129.68C84.6641 124.575 84.6641 119.47 84.6641 114.211C83.4334 115.25 83.4334 115.25 82.2793 116.37C81.8282 116.789 81.8282 116.789 81.0547 116.789C81.1585 115.526 81.7771 114.865 82.6499 114.018C82.7872 113.883 82.9245 113.749 83.0659 113.61C86.0772 110.756 89.807 108.568 94.047 108.664C96.2567 108.789 97.2578 109.451 98.731 111.053C99.2744 111.684 99.807 112.323 100.332 112.969C101.925 114.888 103.951 116.6 106.498 116.902C108.28 116.848 109.861 115.89 111.122 114.678C111.78 113.973 112.358 113.221 112.943 112.455C116.462 108.006 122.11 104.973 127.703 104.215C127.966 104.186 127.966 104.186 128.234 104.156C128.149 104.497 128.064 104.837 127.977 105.188C126.7 105.57 126.7 105.57 125.398 105.961C125.398 113.788 125.398 121.615 125.398 129.68C127.781 129.68 130.163 129.68 132.617 129.68C132.617 116.493 132.617 103.305 132.617 89.7188C113.9 89.7188 95.1829 89.7188 75.8985 89.7188ZM121.692 107.379C121.521 107.46 121.349 107.541 121.172 107.625C120.592 107.91 120.033 108.224 119.469 108.539C119.23 108.658 118.99 108.777 118.744 108.9C117.531 109.609 116.76 110.129 116.384 111.524C116.268 112.675 116.314 113.822 116.356 114.976C116.361 115.401 116.365 115.826 116.368 116.251C116.379 117.363 116.407 118.475 116.438 119.587C116.467 120.724 116.48 121.861 116.494 122.999C116.525 125.226 116.575 127.453 116.633 129.68C119.015 129.68 121.397 129.68 123.852 129.68C123.852 122.023 123.852 114.366 123.852 106.477C123.148 106.477 122.329 107.067 121.692 107.379ZM85.9532 112.922C85.9289 113.444 85.9229 113.967 85.9239 114.489C85.9239 114.825 85.9239 115.16 85.924 115.506C85.9253 115.875 85.9266 116.244 85.928 116.613C85.9285 116.988 85.9288 117.364 85.9291 117.739C85.9301 118.729 85.9326 119.718 85.9355 120.708C85.9386 121.894 85.9398 123.081 85.9413 124.267C85.9438 126.072 85.9487 127.876 85.9532 129.68C89.1011 129.68 92.2489 129.68 95.4922 129.68C95.4922 123.214 95.4922 116.748 95.4922 110.086C92.7155 108.698 87.9392 110.936 85.9532 112.922ZM96.7813 111.117C96.7813 117.243 96.7813 123.368 96.7813 129.68C99.6739 129.68 102.567 129.68 105.547 129.68C105.547 125.851 105.547 122.023 105.547 118.078C104.271 117.568 104.271 117.568 102.969 117.047C100.775 115.736 99.1588 113.679 97.5547 111.73C97.3846 111.527 97.2144 111.325 97.0391 111.117C96.954 111.117 96.8689 111.117 96.7813 111.117ZM115.086 111.891C114.744 112.29 114.403 112.691 114.068 113.096C111.983 115.615 110.138 117.418 106.836 118.078C106.836 121.907 106.836 125.735 106.836 129.68C109.644 129.68 112.451 129.68 115.344 129.68C115.344 123.809 115.344 117.939 115.344 111.891C115.259 111.891 115.174 111.891 115.086 111.891Z" fill="#00995B"/>
<path d="M45.7344 13.9219C49.3966 16.7827 51.5364 20.381 52.1797 25.0078C52.529 28.5343 51.4472 31.7113 49.8594 34.8047C50.0161 34.8822 50.1728 34.9597 50.3342 35.0396C55.1727 37.4514 59.5245 40.1805 63.5235 43.8282C63.6533 43.9463 63.783 44.0644 63.9167 44.186C66.1384 46.2373 68.0229 48.5387 69.711 51.0469C69.711 51.2171 69.711 51.3872 69.711 51.5625C70.9141 50.5524 72.044 49.4949 73.1431 48.3721C74.2751 47.2217 75.4638 46.1807 76.7273 45.1766C77.4553 44.5936 78.1575 43.9866 78.8633 43.377C87.6689 36.0333 97.9112 31.3651 109.563 32.2787C115.51 32.931 121.064 35.3808 125.656 39.1875C125.984 39.4567 125.984 39.4567 126.319 39.7313C132.058 44.661 136.034 52.0377 137 59.5547C137.081 60.807 137.098 62.0543 137.097 63.3091C137.097 63.4787 137.097 63.6483 137.097 63.823C137.087 67.6092 136.472 70.8853 135.077 74.4091C134.882 75.0204 134.882 75.0204 135.127 75.5854C135.569 76.2217 136.122 76.629 136.742 77.086C136.727 77.5442 136.727 77.5442 136.484 78.1172C135.879 78.4598 135.294 78.7503 134.664 79.0357C132.985 79.8592 132.044 80.6986 131.022 82.2956C129.889 84.0417 128.34 85.4994 126.871 86.9624C126.642 87.1902 126.414 87.418 126.178 87.6527C126.006 87.824 125.834 87.9954 125.656 88.1719C125.897 88.1784 126.138 88.1848 126.386 88.1915C127.276 88.216 128.166 88.2415 129.057 88.2679C129.443 88.2791 129.829 88.2898 130.214 88.3001C130.768 88.315 131.321 88.3314 131.875 88.3481C132.208 88.3576 132.542 88.367 132.886 88.3768C133.648 88.4297 133.648 88.4297 133.906 88.6875C133.931 89.2324 133.938 89.7782 133.937 90.3237C133.938 90.4962 133.938 90.6686 133.938 90.8463C133.938 91.4302 133.937 92.0142 133.936 92.5981C133.935 93.0214 133.936 93.4448 133.936 93.8682C133.936 95.0059 133.934 96.1436 133.932 97.2814C133.931 98.3475 133.931 99.4136 133.931 100.48C133.929 103.601 133.926 106.723 133.922 109.844C133.917 116.815 133.912 123.786 133.906 130.969C114.338 130.969 94.7703 130.969 74.6094 130.969C74.6041 123.998 74.5988 117.027 74.5933 109.844C74.591 107.639 74.5886 105.434 74.5862 103.162C74.585 100.48 74.585 100.48 74.5848 99.2257C74.5846 98.3457 74.5836 97.4657 74.5822 96.5857C74.5804 95.4654 74.5799 94.3451 74.5803 93.2248C74.5802 92.8123 74.5797 92.3998 74.5787 91.9873C74.5774 91.4327 74.5777 90.8782 74.5784 90.3237C74.5781 89.8564 74.5781 89.8564 74.5777 89.3796C74.6094 88.6875 74.6094 88.6875 74.8672 88.4297C75.4011 88.3889 75.9363 88.3649 76.4715 88.3481C76.7964 88.3373 77.1212 88.3265 77.4559 88.3154C77.8015 88.3051 78.1471 88.2949 78.4927 88.2847C78.8393 88.2736 79.1859 88.2623 79.5325 88.251C80.3836 88.2235 81.2348 88.1972 82.086 88.1719C81.9554 88.0971 81.8249 88.0223 81.6904 87.9452C77.2418 85.3787 73.1105 82.4741 69.1954 79.1485C67.4978 81.1562 67.1672 83.5857 66.6172 86.1094C66.0261 86.2695 66.0261 86.2695 65.3282 86.3672C64.4742 85.8677 64.4742 85.8677 63.7813 85.336C63.6676 85.4646 63.554 85.5932 63.4369 85.7257C57.3793 92.1894 47.9424 96.4534 39.1068 96.7502C35.8301 96.8166 32.6675 96.7872 29.4922 95.9063C29.3126 95.8578 29.133 95.8093 28.9479 95.7594C23.9756 94.3827 19.9248 91.8297 16.086 88.4297C15.8889 88.2589 15.6918 88.0881 15.4888 87.9121C13.4684 86.0309 11.396 83.502 10.1875 81.0136C9.46837 79.917 8.71108 79.5968 7.52982 79.1001C6.83062 78.7998 6.18587 78.4845 5.51566 78.1172C5.43059 77.7769 5.34551 77.4366 5.25785 77.086C5.8534 76.5755 6.44895 76.065 7.06254 75.5391C7.01867 75.3792 6.9748 75.2194 6.9296 75.0547C6.71517 74.2711 6.5021 73.4871 6.2891 72.7032C6.24498 72.5418 6.20087 72.3805 6.15541 72.2142C6.0166 71.706 5.87885 71.1975 5.74125 70.689C5.65551 70.3736 5.56976 70.0582 5.48142 69.7333C3.46482 61.6396 5.72524 53.1639 9.9015 46.1656C10.68 44.9649 11.5354 43.8733 12.4766 42.7969C12.6856 42.5506 12.8947 42.3044 13.1101 42.0507C15.589 39.1903 18.4447 37.0264 21.7679 35.2317C22.4147 34.8699 22.9852 34.4932 23.5625 34.0313C23.4319 33.7601 23.4319 33.7601 23.2987 33.4834C23.1837 33.2388 23.0687 32.9942 22.9502 32.7422C22.8366 32.5029 22.7229 32.2636 22.6058 32.0171C21.0923 28.2746 21.3669 23.9417 22.8938 20.2685C24.6983 16.3277 27.5097 13.8219 31.4611 12.0719C36.2494 10.4019 41.5312 11.1093 45.7344 13.9219ZM26.3985 17.2735C23.7986 20.5753 22.7905 23.927 23.0469 28.1016C23.5299 31.3395 24.9015 33.9043 27.1417 36.2539C28.3405 37.6009 28.9259 39.0354 29.4922 40.7344C34.4268 40.7344 39.3613 40.7344 44.4454 40.7344C44.7857 39.7985 45.126 38.8627 45.4766 37.8985C45.965 37.1482 45.965 37.1482 46.4595 36.5933C46.7277 36.2752 46.7277 36.2752 47.0013 35.9508C47.2675 35.6387 47.2675 35.6387 47.5391 35.3203C50.1139 32.1734 51.0111 28.773 50.6945 24.7738C50.3991 22.1899 49.3012 20.1261 47.7969 18.0469C47.6055 17.7757 47.4141 17.5045 47.2168 17.2251C44.4337 14.3787 40.9098 12.6631 36.9366 12.5362C32.7859 12.6022 29.2219 14.2466 26.3985 17.2735ZM78.4766 45.6328C78.3425 45.74 78.2085 45.8471 78.0704 45.9575C75.8079 47.7727 73.7473 49.7929 71.6929 51.8365C71.5609 51.9671 71.4289 52.0978 71.2929 52.2324C69.5264 53.9848 67.9101 55.8003 66.3594 57.75C66.1368 58.0149 65.9129 58.2788 65.6867 58.5406C61.0677 63.4455 61.0677 63.4455 58.3672 69.0938C59.734 69.2417 61.1009 69.3885 62.4679 69.5344C62.9326 69.5841 63.3972 69.6341 63.8617 69.6844C64.5311 69.7569 65.2005 69.8283 65.87 69.8994C66.1794 69.9333 66.1794 69.9333 66.4952 69.9678C67.573 70.0813 68.6252 70.1493 69.711 70.125C69.6784 70.2836 69.6458 70.4422 69.6122 70.6057C69.4656 71.3259 69.3224 72.0467 69.1792 72.7676C69.1279 73.0172 69.0765 73.2668 69.0236 73.5239C68.9763 73.7649 68.9289 74.0058 68.8801 74.2541C68.8356 74.4755 68.791 74.6969 68.7451 74.925C68.6783 75.5525 68.744 75.9745 68.9375 76.5703C69.032 76.433 69.1265 76.2957 69.2239 76.1543C71.1935 73.2989 73.1976 70.4989 75.3829 67.8047C75.68 67.4328 75.68 67.4328 75.9831 67.0534C77.1665 65.5845 78.4033 64.177 79.6811 62.7895C80.1828 62.2406 80.6695 61.6838 81.1514 61.1177C83.2413 58.7236 85.5284 56.6288 88.0157 54.6563C88.2373 54.4688 88.459 54.2814 88.6874 54.0883C94.4782 49.1956 100.869 45.5365 108.641 46.1485C112.228 46.5989 115.164 48.5199 117.664 51.0469C117.825 51.1991 117.986 51.3513 118.152 51.5081C120.42 53.8274 121.74 57.1851 122.305 60.3282C122.392 60.7668 122.392 60.7668 122.482 61.2144C122.765 64.4395 122.603 67.8935 121.273 70.8985C120.593 70.8134 119.912 70.7283 119.211 70.6407C120.36 76.8939 120.36 76.8939 121.531 83.2735C122.268 83.6074 122.268 83.6074 122.848 83.3372C123.057 83.2313 123.266 83.1253 123.481 83.0162C123.719 82.8975 123.956 82.7787 124.201 82.6564C124.456 82.5254 124.711 82.3943 124.974 82.2593C125.237 82.1274 125.499 81.9954 125.769 81.8594C126.608 81.4362 127.445 81.0094 128.283 80.5826C128.85 80.2955 129.418 80.0086 129.986 79.722C131.38 79.0179 132.773 78.3108 134.164 77.6016C134.164 77.3464 134.164 77.0911 134.164 76.8281C133.909 76.658 133.654 76.4878 133.391 76.3125C133.475 74.9283 133.796 73.7697 134.261 72.4615C136.657 65.5395 136.236 57.9489 133.133 51.3047C131.794 48.5625 130.283 46.1029 128.234 43.8282C128.058 43.6155 127.882 43.4028 127.701 43.1836C122.999 37.6318 116.041 34.4644 108.898 33.5962C108.469 33.5636 108.039 33.5371 107.609 33.5157C107.352 33.502 107.095 33.4884 106.83 33.4744C95.8224 33.1793 86.7067 38.9348 78.4766 45.6328ZM14.917 42.1442C9.32559 47.987 6.07984 55.9359 6.18525 64.0275C6.29466 67.344 6.96253 70.3704 8.09845 73.4833C8.75496 75.3013 8.75496 75.3013 8.60941 76.3125C8.09379 76.7476 8.09379 76.7476 7.57816 77.086C7.57816 77.2561 7.57816 77.4263 7.57816 77.6016C9.39802 78.5278 11.2199 79.4501 13.0431 80.3695C13.6637 80.6827 14.2836 80.9971 14.903 81.3126C15.7919 81.7649 16.6825 82.2138 17.5734 82.6622C17.8514 82.8045 18.1294 82.9468 18.4158 83.0934C18.6738 83.2225 18.9318 83.3515 19.1977 83.4845C19.4249 83.5996 19.6522 83.7147 19.8864 83.8332C20.4983 84.1264 20.4983 84.1264 21.2422 83.7891C21.4637 82.1239 21.6839 80.4585 21.9031 78.793C21.9779 78.2266 22.0529 77.6602 22.1282 77.0938C22.2365 76.2793 22.3437 75.4646 22.4507 74.6498C22.5015 74.2707 22.5015 74.2707 22.5533 73.8839C22.5842 73.6466 22.6152 73.4092 22.6471 73.1647C22.6746 72.9569 22.7021 72.7491 22.7304 72.535C22.792 71.8998 22.7991 71.2784 22.7891 70.6407C22.1085 70.7257 21.4279 70.8108 20.7266 70.8985C20.5588 70.3725 20.3926 69.846 20.2271 69.3194C20.1344 69.0262 20.0416 68.7331 19.9461 68.4311C18.5214 63.4076 19.3055 57.7109 21.7639 53.1497C23.4505 50.4565 25.8239 48.4748 28.7188 47.1797C28.6779 46.971 28.637 46.7623 28.5949 46.5473C28.4679 45.6803 28.4238 44.8514 28.3995 43.9778C28.2883 40.4855 27.4404 38.0859 24.8516 35.5782C21.3574 35.5782 17.2306 39.8421 14.917 42.1442ZM48.5704 36.0938C48.0686 36.6093 48.0686 36.6093 47.5552 37.27C47.3774 37.4884 47.1996 37.7067 47.0164 37.9317C45.8024 39.6987 45.5877 41.2282 45.4444 43.3286C45.4066 43.8258 45.3684 44.323 45.3296 44.8201C45.3119 45.0505 45.2942 45.2808 45.2759 45.5182C45.2094 46.2519 45.1 46.9719 44.961 47.6953C45.2445 47.8545 45.5279 48.0137 45.82 48.1777C48.1108 49.4824 50.2041 50.8332 52.1797 52.5938C52.3957 52.7789 52.6118 52.964 52.8343 53.1547C55.3583 55.3544 57.4422 57.7992 59.3401 60.5437C59.8507 61.2694 60.3828 61.9626 60.9454 62.6485C61.0859 62.458 61.2265 62.2676 61.3713 62.0714C62.9806 59.9065 64.6389 57.7939 66.4198 55.7661C66.562 55.6034 66.7041 55.4406 66.8506 55.273C67.1312 54.9526 67.4135 54.6338 67.6976 54.3165C68.4973 53.4573 68.4973 53.4573 68.6797 52.336C67.2268 49.8191 65.2858 47.7001 63.2657 45.6328C63.1258 45.487 62.986 45.3411 62.8419 45.1909C61.7655 44.0855 60.6273 43.1162 59.3985 42.1846C59.2077 42.0398 59.017 41.895 58.8205 41.7458C54.0409 38.0125 54.0409 38.0125 48.5704 36.0938ZM29.4922 42.2813C29.4922 45.2285 29.805 47.1866 31.8669 49.3318C33.5493 50.8856 35.3213 51.4403 37.5831 51.3853C39.5525 51.1501 41.3435 50.2284 42.6407 48.7266C44.1359 46.4935 44.1875 45.1372 44.1875 42.2813C39.3381 42.2813 34.4886 42.2813 29.4922 42.2813ZM89.8204 54.9141C89.5635 55.1175 89.3066 55.3209 89.0419 55.5304C86.8012 57.3548 84.7719 59.3996 82.7305 61.44C82.5829 61.5873 82.4352 61.7347 82.2831 61.8865C81.3497 62.8202 80.4251 63.7615 79.5079 64.711C79.2337 64.9928 79.2337 64.9928 78.954 65.2803C78.4734 65.7821 78.4734 65.7821 77.961 66.5157C78.0391 67.3675 78.3576 67.7758 78.9721 68.3465C79.1284 68.4928 79.2848 68.6391 79.4459 68.7899C79.6152 68.9433 79.7846 69.0968 79.959 69.2549C80.221 69.4951 80.221 69.4951 80.4882 69.7401C82.0669 71.1703 83.7018 72.4975 85.4375 73.7344C85.5863 73.8406 85.735 73.9468 85.8882 74.0563C91.9695 78.3532 99.5468 82.1819 107.213 81.0831C111.499 80.2458 115.426 78.2619 118.18 74.7657C118.676 73.5245 118.305 72.3369 118.046 71.0626C117.909 70.3103 117.881 69.5992 117.922 68.836C118.793 68.9746 119.646 69.1307 120.5 69.3516C121.978 65.5959 121.675 60.9512 120.242 57.2344C119.23 54.9147 117.914 53.0769 116.117 51.3047C115.953 51.1379 115.789 50.971 115.62 50.7992C113.039 48.3472 109.624 47.1894 106.111 47.0669C99.8099 47.2398 94.5517 51.1245 89.8204 54.9141ZM24.6744 51.2886C22.5779 53.4905 21.3088 56.6036 20.7266 59.5547C20.6681 59.8365 20.6096 60.1184 20.5494 60.4087C20.3094 63.2396 20.1862 66.7238 21.5 69.3516C22.7762 69.0964 22.7762 69.0964 24.0782 68.836C24.0386 69.1813 23.9991 69.5266 23.9583 69.8823C23.5656 72.7584 23.5656 72.7584 24.5616 75.3457C25.0704 75.8545 25.0704 75.8545 25.625 76.3125C25.8688 76.5703 25.8688 76.5703 26.1175 76.8332C28.9629 79.7005 33.106 81.1552 37.0816 81.3076C42.5361 81.1232 47.2232 78.7023 51.1213 75.0204C51.5633 74.6031 52.0084 74.2219 52.4859 73.8472C53.4282 73.0305 54.2157 72.1101 55.0157 71.1563C54.8242 70.8691 54.8242 70.8691 54.6289 70.5762C54.2422 69.8672 54.2422 69.8672 54.2422 68.836C54.3858 68.8689 54.5294 68.9018 54.6773 68.9357C55.3863 69.0279 55.8697 69.0275 56.5625 68.836C58.0221 67.423 58.9917 65.4757 59.9141 63.6797C56.2776 58.0509 51.0786 51.2624 44.4454 48.9844C43.6388 49.1717 43.6388 49.1717 43.2369 49.8223C41.8393 51.4843 39.9866 52.2232 37.8419 52.4226C34.67 52.4561 32.8028 51.8982 30.4751 49.7327C30.0079 49.2422 30.0079 49.2422 29.4922 48.4688C27.711 48.4688 25.9484 50.1364 24.6744 51.2886ZM76.5712 68.4069C74.6944 70.4651 73.1091 72.7435 71.5157 75.0235C71.3652 75.2328 71.2147 75.4422 71.0597 75.6579C70.9157 75.8633 70.7717 76.0687 70.6234 76.2803C70.4917 76.4657 70.3599 76.6512 70.2242 76.8422C70.1399 77.0078 70.0556 77.1733 69.9688 77.3438C70.3102 78.3681 70.9759 78.7761 71.8057 79.4063C71.968 79.5311 72.1304 79.6559 72.2976 79.7846C72.6398 80.0466 72.9828 80.3076 73.3265 80.5677C73.6513 80.8134 73.9752 81.0602 74.2981 81.3084C77.101 83.462 80.0671 85.3561 83.1172 87.1407C83.2647 87.2447 83.4121 87.3487 83.5641 87.4559C85.3576 88.6215 87.0131 88.6222 89.1071 88.6211C89.4733 88.6254 89.8395 88.6302 90.2056 88.6354C91.1943 88.6479 92.1829 88.652 93.1717 88.6538C93.791 88.6553 94.4102 88.6586 95.0295 88.6624C97.1945 88.6759 99.3594 88.6824 101.524 88.6827C103.536 88.6832 105.546 88.6991 107.557 88.7221C109.29 88.7412 111.022 88.7493 112.755 88.749C113.787 88.749 114.819 88.7533 115.851 88.769C116.823 88.7833 117.794 88.7838 118.766 88.7741C119.287 88.7722 119.809 88.7842 120.33 88.7969C122.537 88.7569 123.654 88.2029 125.165 86.6801C125.504 86.3215 125.838 85.9577 126.172 85.5938C126.546 85.2316 126.921 84.8712 127.3 84.5142C128.231 83.573 129.021 82.5513 129.781 81.4688C128.707 81.8053 127.718 82.2106 126.71 82.7115C126.429 82.8494 126.147 82.9874 125.858 83.1295C125.27 83.42 124.682 83.7114 124.095 84.0036C123.815 84.1409 123.534 84.2781 123.245 84.4195C122.863 84.609 122.863 84.609 122.473 84.8023C121.789 85.0782 121.789 85.0782 120.758 85.0782C120.162 82.1004 119.567 79.1227 118.953 76.0547C117.771 77.0673 117.771 77.0673 116.592 78.084C112.408 81.5288 107.504 82.6488 102.195 82.2422C100.875 82.1044 99.6086 81.8176 98.3282 81.4688C98.0706 81.4002 98.0706 81.4002 97.8078 81.3302C90.0368 79.1985 83.2589 74.3111 77.7152 68.5832C77.1319 67.9248 77.1319 67.9248 76.5712 68.4069ZM56.0469 70.125C56.1401 70.4032 56.1401 70.4032 56.2352 70.687C56.3047 71.4141 56.3047 71.4141 55.9311 72.0606C51.872 76.8068 46.4728 81.4213 40.0625 82.2422C39.0523 82.3189 38.0462 82.3466 37.0332 82.355C36.7893 82.3577 36.5454 82.3603 36.2941 82.363C33.7805 82.3317 31.4906 81.6923 29.2505 80.5664C29.0772 80.4802 28.9038 80.3939 28.7252 80.305C27.1507 79.4767 25.912 78.3949 24.6603 77.1434C24.1315 76.5638 24.1315 76.5638 23.5625 76.3125C23.139 78.0875 22.8568 79.8524 22.628 81.6621C22.5761 82.0545 22.5761 82.0545 22.5232 82.4547C22.3761 83.597 22.2541 84.6982 22.2735 85.8516C19.9479 85.1749 17.8693 84.0596 15.73 82.9489C15.2483 82.6996 14.7654 82.4527 14.2823 82.206C13.9973 82.0583 13.7124 81.9107 13.4188 81.7586C13.08 81.6151 13.08 81.6151 12.7344 81.4688C12.4792 81.5964 12.4792 81.5964 12.2188 81.7266C17.5243 88.8511 24.2222 93.9355 33.2094 95.2607C42.9401 96.4636 52.1441 92.9186 59.7698 87.077C60.8676 86.2114 61.8243 85.2511 62.75 84.206C63.2657 83.7891 63.2657 83.7891 63.9102 83.6944C64.5721 83.7916 65.0003 83.9944 65.586 84.3047C65.9546 82.635 66.3216 80.9649 66.6875 79.2945C66.8121 78.7262 66.9372 78.1581 67.0626 77.59C67.2428 76.7737 67.4216 75.957 67.6001 75.1403C67.6565 74.8862 67.7129 74.6321 67.771 74.3703C67.8226 74.133 67.8743 73.8956 67.9274 73.6511C67.9961 73.3385 67.9961 73.3385 68.0662 73.0196C68.193 72.373 68.193 72.373 68.1641 71.4141C65.7645 71.0201 63.3645 70.7237 60.9454 70.4795C60.6147 70.445 60.284 70.4104 59.9433 70.3748C57.9992 70.1717 57.9992 70.1717 56.0469 70.125ZM75.8985 89.7188C75.8985 102.906 75.8985 116.093 75.8985 129.68C78.7911 129.68 81.6838 129.68 84.6641 129.68C84.6641 124.575 84.6641 119.47 84.6641 114.211C83.4334 115.25 83.4334 115.25 82.2793 116.37C81.8282 116.789 81.8282 116.789 81.0547 116.789C81.1585 115.526 81.7771 114.865 82.6499 114.018C82.7872 113.883 82.9245 113.749 83.0659 113.61C86.0772 110.756 89.807 108.568 94.047 108.664C96.2567 108.789 97.2578 109.451 98.731 111.053C99.2744 111.684 99.807 112.323 100.332 112.969C101.925 114.888 103.951 116.6 106.498 116.902C108.28 116.848 109.861 115.89 111.122 114.678C111.78 113.973 112.358 113.221 112.943 112.455C116.462 108.006 122.11 104.973 127.703 104.215C127.966 104.186 127.966 104.186 128.234 104.156C128.149 104.497 128.064 104.837 127.977 105.188C126.7 105.57 126.7 105.57 125.398 105.961C125.398 113.788 125.398 121.615 125.398 129.68C127.781 129.68 130.163 129.68 132.617 129.68C132.617 116.493 132.617 103.305 132.617 89.7188C113.9 89.7188 95.1829 89.7188 75.8985 89.7188ZM121.692 107.379C121.521 107.46 121.349 107.541 121.172 107.625C120.592 107.91 120.033 108.224 119.469 108.539C119.23 108.658 118.99 108.777 118.744 108.9C117.531 109.609 116.76 110.129 116.384 111.524C116.268 112.675 116.314 113.822 116.356 114.976C116.361 115.401 116.365 115.826 116.368 116.251C116.379 117.363 116.407 118.475 116.438 119.587C116.467 120.724 116.48 121.861 116.494 122.999C116.525 125.226 116.575 127.453 116.633 129.68C119.015 129.68 121.397 129.68 123.852 129.68C123.852 122.023 123.852 114.366 123.852 106.477C123.148 106.477 122.329 107.067 121.692 107.379ZM85.9532 112.922C85.9289 113.444 85.9229 113.967 85.9239 114.489C85.9239 114.825 85.9239 115.16 85.924 115.506C85.9253 115.875 85.9266 116.244 85.928 116.613C85.9285 116.988 85.9288 117.364 85.9291 117.739C85.9301 118.729 85.9326 119.718 85.9355 120.708C85.9386 121.894 85.9398 123.081 85.9413 124.267C85.9438 126.072 85.9487 127.876 85.9532 129.68C89.1011 129.68 92.2489 129.68 95.4922 129.68C95.4922 123.214 95.4922 116.748 95.4922 110.086C92.7155 108.698 87.9392 110.936 85.9532 112.922ZM96.7813 111.117C96.7813 117.243 96.7813 123.368 96.7813 129.68C99.6739 129.68 102.567 129.68 105.547 129.68C105.547 125.851 105.547 122.023 105.547 118.078C104.271 117.568 104.271 117.568 102.969 117.047C100.775 115.736 99.1588 113.679 97.5547 111.73C97.3846 111.527 97.2144 111.325 97.0391 111.117C96.954 111.117 96.8689 111.117 96.7813 111.117ZM115.086 111.891C114.744 112.29 114.403 112.691 114.068 113.096C111.983 115.615 110.138 117.418 106.836 118.078C106.836 121.907 106.836 125.735 106.836 129.68C109.644 129.68 112.451 129.68 115.344 129.68C115.344 123.809 115.344 117.939 115.344 111.891C115.259 111.891 115.174 111.891 115.086 111.891Z" stroke="#00995B" mask="url(#path-2-outside-1_2611_3780)"/>
<path d="M106.062 57.4922C107.901 57.4003 107.901 57.4003 108.753 57.75C109.783 59.0676 109.444 61.3093 109.414 62.9062C109.754 62.9913 110.095 63.0764 110.445 63.1641C110.445 63.5894 110.445 64.0148 110.445 64.4531C109.935 64.7084 109.935 64.7084 109.414 64.9687C109.42 65.1957 109.426 65.4227 109.432 65.6566C109.439 66.1057 109.439 66.1057 109.446 66.564C109.455 67.0081 109.455 67.0081 109.464 67.4613C109.401 68.5366 109.202 69.2832 108.463 70.0767C107.646 70.4963 106.967 70.435 106.062 70.3828C106.062 69.8723 106.062 69.3619 106.062 68.8359C106.701 68.7083 106.701 68.7083 107.352 68.5781C107.346 68.3325 107.34 68.0869 107.333 67.8339C107.329 67.5105 107.324 67.1872 107.319 66.854C107.313 66.534 107.307 66.2139 107.301 65.8842C107.352 64.9687 107.352 64.9687 107.644 64.2547C107.717 64.065 107.791 63.8752 107.867 63.6797C107.697 63.4244 107.527 63.1692 107.352 62.9062C107.301 62.0412 107.301 62.0412 107.319 61.0532C107.324 60.7252 107.329 60.3972 107.333 60.0592C107.339 59.8076 107.345 59.5561 107.352 59.2969C106.713 59.0416 106.713 59.0416 106.062 58.7812C106.062 58.3559 106.062 57.9305 106.062 57.4922Z" fill="#00995B"/>
<path d="M96.5234 57.4921C96.5234 57.9175 96.5234 58.3429 96.5234 58.7811C96.098 58.9513 95.6727 59.1214 95.2344 59.2968C95.2374 59.564 95.2404 59.8312 95.2434 60.1065C95.2459 60.4596 95.2482 60.8128 95.2505 61.1659C95.2526 61.3417 95.2548 61.5175 95.257 61.6986C95.2613 62.5774 95.209 63.3492 94.9766 64.1952C95.0616 64.2803 95.1467 64.3654 95.2344 64.453C95.2533 65.191 95.2582 65.9227 95.2505 66.6605C95.2493 66.8684 95.2482 67.0763 95.247 67.2905C95.2439 67.8056 95.2393 68.3207 95.2344 68.8358C95.6598 68.8358 96.0852 68.8358 96.5234 68.8358C96.5234 69.3463 96.5234 69.8568 96.5234 70.3827C96.1525 70.3671 95.7819 70.3442 95.4116 70.3182C95.2052 70.3063 94.9989 70.2943 94.7862 70.282C94.2031 70.1249 94.2031 70.1249 93.7439 69.7382C93.2755 68.7774 93.3473 67.8906 93.3813 66.8378C93.3848 66.6334 93.3883 66.429 93.3919 66.2184C93.401 65.7158 93.4149 65.2133 93.4297 64.7108C93.0894 64.6257 92.7491 64.5407 92.3984 64.453C92.3984 64.0276 92.3984 63.6022 92.3984 63.1639C92.7388 62.9938 93.0791 62.8236 93.4297 62.6483C93.4177 62.3625 93.4058 62.0767 93.3934 61.7822C93.3838 61.4049 93.3744 61.0276 93.3652 60.6503C93.3566 60.4622 93.348 60.2741 93.3391 60.0803C93.3225 59.1724 93.3536 58.632 93.8809 57.8788C94.8016 57.265 95.4389 57.4198 96.5234 57.4921Z" fill="#00995B"/>
<path d="M42.6406 59.8125C44.2572 59.9318 45.55 60.6856 46.959 61.4238C47.2059 61.5471 47.4528 61.6704 47.7072 61.7975C47.9429 61.9201 48.1785 62.0427 48.4213 62.1691C48.6355 62.2795 48.8498 62.3899 49.0706 62.5037C49.7202 62.9962 49.8808 63.4267 50.1172 64.1953C49.1113 65.3204 47.7133 65.8899 46.395 66.5801C45.989 66.7994 45.989 66.7994 45.5748 67.0232C45.314 67.1601 45.0533 67.297 44.7847 67.4381C44.5466 67.5641 44.3085 67.6902 44.0632 67.82C43.3579 68.0835 43.0728 68.0742 42.3828 67.8047C42.3828 67.3793 42.3828 66.9539 42.3828 66.5156C44.0844 65.6648 45.7859 64.8141 47.5391 63.9375C45.8375 63.0016 44.1359 62.0658 42.3828 61.1016C42.4679 60.6762 42.553 60.2508 42.6406 59.8125Z" fill="#00995B"/>
<path d="M34.6484 60.0704C34.5916 60.5409 34.5916 60.5409 34.3906 61.1016C33.888 61.479 33.888 61.479 33.2375 61.8227C32.8898 62.0096 32.8898 62.0096 32.5351 62.2004C32.1694 62.3903 32.1694 62.3903 31.7964 62.5841C31.5516 62.7147 31.3069 62.8453 31.0547 62.9798C30.4495 63.3022 29.8428 63.6213 29.2344 63.9376C29.3892 64.0103 29.5441 64.083 29.7036 64.1579C30.4031 64.4889 31.0997 64.8254 31.7964 65.1622C32.0402 65.2765 32.2839 65.3908 32.5351 65.5086C32.7669 65.6216 32.9987 65.7346 33.2375 65.851C33.4522 65.9536 33.6669 66.0562 33.888 66.162C34.3906 66.5157 34.3906 66.5157 34.5916 67.0729C34.6104 67.2293 34.6291 67.3858 34.6484 67.547C34.2226 67.8428 34.2226 67.8428 33.6172 68.0626C32.9403 67.8453 32.9403 67.8453 32.1811 67.4543C31.9076 67.3154 31.6341 67.1765 31.3523 67.0333C31.0681 66.8838 30.784 66.7342 30.4912 66.5802C30.2051 66.4346 29.9189 66.289 29.6241 66.1391C27.5167 65.0558 27.5167 65.0558 26.9141 64.4532C26.8818 63.7764 26.8818 63.7764 26.9141 63.1641C27.6981 62.7503 28.4823 62.3368 29.2666 61.9234C29.4873 61.8069 29.7079 61.6905 29.9353 61.5704C30.366 61.3435 30.797 61.1173 31.2285 60.8919C31.7201 60.6344 32.2097 60.373 32.6987 60.1107C33.4758 59.7601 33.8492 59.8118 34.6484 60.0704Z" fill="#00995B"/>
<path d="M40.5781 22.1719C42.1431 22.3042 43.402 22.9781 44.7837 23.6704C45.1389 23.8402 45.1389 23.8402 45.5012 24.0133C45.7261 24.1252 45.9509 24.237 46.1825 24.3522C46.3873 24.4532 46.5922 24.5541 46.8032 24.6582C47.2812 25.0078 47.2812 25.0078 47.5005 25.5334C47.5391 26.0391 47.5391 26.0391 47.1926 26.5345C46.2151 27.2994 45.1581 27.8534 44.0586 28.4238C43.8383 28.5421 43.6179 28.6605 43.3909 28.7823C43.1779 28.894 42.9648 29.0057 42.7454 29.1207C42.5521 29.2222 42.3589 29.3236 42.1597 29.4281C41.6094 29.6484 41.6094 29.6484 40.5781 29.6484C40.493 29.3081 40.408 28.9678 40.3203 28.6172C41.9158 27.5937 43.549 26.6788 45.2188 25.7812C43.6023 24.9305 41.9858 24.0797 40.3203 23.2031C40.4054 22.8628 40.4905 22.5225 40.5781 22.1719Z" fill="#00995B"/>
<path d="M33.3594 22.4297C33.3594 22.77 33.3594 23.1103 33.3594 23.461C31.0623 24.6095 31.0623 24.6095 28.7188 25.7813C29.6536 26.4824 30.5769 26.9981 31.6191 27.5054C31.7866 27.588 31.9541 27.6706 32.1267 27.7557C32.5371 27.9578 32.9482 28.1588 33.3594 28.3594C33.2743 28.7848 33.1892 29.2102 33.1016 29.6485C32.1647 29.4953 31.4137 29.2385 30.5678 28.8106C30.3404 28.6962 30.1131 28.5819 29.8789 28.4641C29.6449 28.3445 29.411 28.2249 29.1699 28.1016C28.932 27.9819 28.694 27.8623 28.4489 27.739C26.6961 26.8523 26.6961 26.8523 26.3984 26.5547C26.388 26.1252 26.3874 25.6952 26.3984 25.2656C27.3136 24.7386 28.2331 24.2199 29.1538 23.7027C29.4135 23.5529 29.6733 23.4032 29.9408 23.249C30.3185 23.0384 30.3185 23.0384 30.7037 22.8235C30.9346 22.6925 31.1654 22.5616 31.4033 22.4266C32.1786 22.1305 32.5761 22.1921 33.3594 22.4297Z" fill="#00995B"/>
<path d="M40.0625 57.2344C40.4944 57.3081 40.9246 57.3937 41.3516 57.4922C41.1813 58.8284 40.7868 60.0114 40.3243 61.2677C40.2476 61.4767 40.171 61.6856 40.0919 61.9008C39.9298 62.3399 39.7668 62.7787 39.603 63.2171C39.3533 63.8898 39.1107 64.5649 38.8681 65.2402C38.7094 65.6672 38.5503 66.094 38.3907 66.5207C38.3193 66.7231 38.2478 66.9256 38.1741 67.1342C37.958 67.6977 37.958 67.6977 37.4844 68.5781C36.7993 68.8517 36.7993 68.8517 36.1953 68.8359C36.1102 68.7509 36.0252 68.6658 35.9375 68.5781C36.0528 67.1354 36.4682 65.9139 37.001 64.576C37.0801 64.3731 37.1593 64.1703 37.2408 63.9613C37.4072 63.5359 37.5745 63.1108 37.7427 62.6861C38.001 62.0335 38.2566 61.3798 38.5116 60.7259C38.6739 60.3119 38.8364 59.898 38.999 59.4842C39.0758 59.2882 39.1526 59.0921 39.2318 58.8902C39.7745 57.5224 39.7745 57.5224 40.0625 57.2344Z" fill="#00995B"/>
<path d="M82.0859 100.547C86.1697 100.547 90.2534 100.547 94.4609 100.547C94.5886 101.057 94.5886 101.057 94.7188 101.578C94.4609 101.836 94.4609 101.836 93.9503 101.867C93.7265 101.866 93.5026 101.866 93.272 101.865C93.0191 101.865 92.7662 101.865 92.5057 101.865C92.2307 101.864 91.9557 101.862 91.6723 101.861C91.2523 101.861 91.2523 101.861 90.8237 101.86C89.9253 101.859 89.0269 101.855 88.1284 101.852C87.521 101.851 86.9135 101.85 86.3061 101.849C84.8134 101.846 83.3208 101.841 81.8281 101.836C81.9132 101.411 81.9983 100.985 82.0859 100.547Z" fill="#00995B"/>
<path d="M38.7734 19.5938C39.0287 19.6788 39.2839 19.7639 39.5469 19.8516C39.402 21.1694 39.0952 22.3191 38.6053 23.5536C38.5382 23.7266 38.4711 23.8996 38.402 24.0779C38.2609 24.4404 38.119 24.8027 37.9761 25.1645C37.7578 25.7181 37.5426 26.2727 37.3278 26.8276C37.1898 27.1812 37.0517 27.5346 36.9134 27.8881C36.8492 28.0532 36.785 28.2184 36.7188 28.3886C36.4244 29.1317 36.1257 29.7529 35.6797 30.4219C35.3394 30.4219 34.9991 30.4219 34.6484 30.4219C34.5576 29.0928 34.8792 28.0456 35.3544 26.8246C35.427 26.6334 35.4995 26.4423 35.5743 26.2453C35.7275 25.8436 35.8821 25.4423 36.0379 25.0415C36.276 24.4275 36.5086 23.8115 36.7406 23.1951C36.8905 22.8042 37.0408 22.4134 37.1913 22.0228C37.2606 21.8386 37.33 21.6544 37.4014 21.4646C37.7624 20.5467 37.9309 20.1554 38.7734 19.5938Z" fill="#00995B"/>
<path d="M82.0859 94.875C84.298 94.875 86.51 94.875 88.7891 94.875C88.8741 95.2153 88.9592 95.5556 89.0469 95.9062C88.5312 96.4219 88.5312 96.4219 87.9129 96.4845C87.6597 96.4834 87.4064 96.4824 87.1455 96.4813C86.8703 96.4808 86.5952 96.4803 86.3116 96.4798C86.0232 96.4766 85.7347 96.4735 85.4375 96.4702C85.0048 96.47 85.0048 96.47 84.5634 96.4697C82.4161 96.458 82.4161 96.458 81.8281 96.1641C81.9132 95.7387 81.9983 95.3133 82.0859 94.875Z" fill="#00995B"/>
<path d="M54.3177 7.53908C54.4629 7.60355 54.6082 7.66802 54.7578 7.73445C54.6341 8.91316 54.2181 9.45184 53.3882 10.2803C53.1871 10.4871 52.9861 10.6938 52.7789 10.9068C52.1797 11.3438 52.1797 11.3438 51.5885 11.2814C51.4433 11.2169 51.2981 11.1524 51.1484 11.086C51.2722 9.9073 51.6882 9.36862 52.5181 8.54011C52.8197 8.23004 52.8197 8.23004 53.1273 7.91371C53.7266 7.47664 53.7266 7.47664 54.3177 7.53908Z" fill="#00995B"/>
<path d="M19.1797 7.47656C20.2081 7.6184 20.7216 8.11771 21.4517 8.83008C21.6607 9.02815 21.8698 9.22622 22.0851 9.4303C22.5313 10.0547 22.5313 10.0547 22.4699 10.7758C22.405 10.9632 22.3402 11.1506 22.2735 11.3438C21.2451 11.2019 20.7316 10.7026 20.0015 9.99023C19.7925 9.79216 19.5834 9.59409 19.368 9.39001C18.9219 8.76562 18.9219 8.76562 18.9833 8.04456C19.0481 7.85712 19.113 7.66968 19.1797 7.47656Z" fill="#00995B"/>
<path d="M57.0781 24.4922C58.4394 24.4922 59.8006 24.4922 61.2031 24.4922C61.2882 24.9176 61.3733 25.343 61.4609 25.7812C59.9295 25.7812 58.3981 25.7812 56.8203 25.7812C56.9054 25.3559 56.9905 24.9305 57.0781 24.4922Z" fill="#00995B"/>
<path d="M12.4766 24.4922C13.8378 24.4922 15.1991 24.4922 16.6016 24.4922C16.6866 24.9176 16.7717 25.343 16.8594 25.7812C15.328 25.7812 13.7966 25.7812 12.2188 25.7812C12.3038 25.3559 12.3889 24.9305 12.4766 24.4922Z" fill="#00995B"/>
<path d="M36.4531 1.03125C36.7934 1.03125 37.1337 1.03125 37.4844 1.03125C37.4844 2.56266 37.4844 4.09406 37.4844 5.67188C37.059 5.5868 36.6336 5.50172 36.1953 5.41406C36.1884 4.73192 36.1832 4.04984 36.1792 3.36768C36.177 3.17309 36.1749 2.97851 36.1726 2.77803C36.1704 2.28166 36.1818 1.78526 36.1953 1.28906C36.2804 1.20398 36.3655 1.11891 36.4531 1.03125Z" fill="#00995B"/>
<path d="M100.906 62.9062C101.338 62.98 101.768 63.0655 102.195 63.1641C102.485 64.1309 102.485 64.1309 102.195 64.7109C101.766 64.722 101.336 64.7214 100.906 64.7109C100.648 64.4531 100.648 64.4531 100.616 63.8086C100.648 63.1641 100.648 63.1641 100.906 62.9062Z" fill="#00995B"/>
<path d="M97.2969 62.9062C97.9736 63.0029 97.9736 63.0029 98.5859 63.1641C98.597 63.5936 98.5964 64.0236 98.5859 64.4531C98.3281 64.7109 98.3281 64.7109 97.6675 64.7271C97.3564 64.7191 97.3564 64.7191 97.0391 64.7109C96.8779 64.0986 96.8779 64.0986 96.7812 63.4219C96.9514 63.2517 97.1216 63.0816 97.2969 62.9062Z" fill="#00995B"/>
<path d="M104.773 62.9062C105.321 63.0029 105.321 63.0029 105.805 63.1641C105.903 63.591 105.989 64.0212 106.062 64.4531C105.805 64.7109 105.805 64.7109 105.144 64.7271C104.833 64.7191 104.833 64.7191 104.516 64.7109C104.354 64.0986 104.354 64.0986 104.258 63.4219C104.428 63.2517 104.598 63.0816 104.773 62.9062Z" fill="#00995B"/>
</g>
<defs>
<clipPath id="clip0_2611_3780">
<rect width="132" height="132" fill="white" transform="translate(5)"/>
</clipPath>
</defs>
</svg>
