<svg width="52" height="52" viewBox="0 0 52 52" fill="none" xmlns="http://www.w3.org/2000/svg">
<g clip-path="url(#clip0_2472_3634)">
<path d="M11.4307 8.60626C11.5924 8.60595 11.7541 8.60556 11.9157 8.60508C12.3589 8.60404 12.8021 8.60426 13.2453 8.60469C13.7237 8.60494 14.2021 8.60403 14.6805 8.60327C15.6173 8.60197 16.5541 8.60179 17.4909 8.60203C18.2524 8.60221 19.0139 8.60203 19.7754 8.6016C19.938 8.60151 19.938 8.60151 20.1039 8.60142C20.3241 8.60129 20.5443 8.60117 20.7645 8.60105C22.8295 8.59994 24.8945 8.60016 26.9595 8.60078C28.8482 8.6013 30.737 8.60016 32.6257 8.59823C34.5656 8.59626 36.5054 8.59542 38.4452 8.59581C39.5341 8.596 40.623 8.59575 41.7118 8.59431C42.6388 8.5931 43.5658 8.59296 44.4927 8.59419C44.9655 8.59479 45.4383 8.5949 45.9111 8.59368C46.3443 8.59258 46.7774 8.59289 47.2106 8.59432C47.367 8.59459 47.5233 8.59434 47.6797 8.59353C48.9352 8.58745 49.9984 8.71039 50.9843 9.5468C51.2242 9.80007 51.4202 10.0567 51.5937 10.3593C51.6436 10.4444 51.6436 10.4444 51.6945 10.5311C52.0702 11.2554 52.0573 11.9556 52.0522 12.7554C52.0528 12.9053 52.0535 13.0552 52.0544 13.2051C52.0562 13.6153 52.0556 14.0254 52.0545 14.4355C52.0538 14.8785 52.0555 15.3216 52.0568 15.7646C52.059 16.6319 52.059 17.4991 52.0581 18.3664C52.0575 19.0715 52.0576 19.7767 52.0583 20.4818C52.0584 20.5822 52.0585 20.6827 52.0585 20.7862C52.0587 20.9902 52.0589 21.1942 52.0591 21.3983C52.0608 23.3111 52.0599 25.2239 52.0582 27.1367C52.0567 28.8855 52.0582 30.6342 52.0611 32.3829C52.0641 34.1797 52.0652 35.9765 52.0643 37.7734C52.0641 37.9767 52.064 38.1801 52.0639 38.3835C52.0639 38.4836 52.0639 38.5836 52.0638 38.6867C52.0636 39.3906 52.0646 40.0944 52.0661 40.7982C52.0678 41.6566 52.0678 42.515 52.0655 43.3734C52.0644 43.8111 52.0641 44.2488 52.066 44.6864C52.0677 45.0877 52.067 45.4889 52.0645 45.8902C52.064 46.0348 52.0644 46.1793 52.0657 46.3239C52.0756 47.4987 51.8738 48.456 51.0795 49.3529C50.1995 50.1624 49.1321 50.3873 47.9661 50.388C47.8684 50.3882 47.8684 50.3882 47.7687 50.3885C47.5514 50.389 47.3341 50.3887 47.1168 50.3885C46.9591 50.3887 46.8013 50.3889 46.6436 50.3892C46.2108 50.3898 45.778 50.3898 45.3452 50.3897C44.8781 50.3897 44.4111 50.3902 43.944 50.3907C43.0292 50.3915 42.1145 50.3918 41.1997 50.3919C40.456 50.3919 39.7123 50.3921 38.9686 50.3925C36.8597 50.3934 34.7507 50.3938 32.6417 50.3937C32.4712 50.3937 32.4712 50.3937 32.2973 50.3937C32.1835 50.3937 32.0696 50.3937 31.9524 50.3937C30.108 50.3937 28.2637 50.3947 26.4193 50.3961C24.5251 50.3975 22.6308 50.3982 20.7365 50.3982C19.6733 50.3981 18.61 50.3984 17.5467 50.3995C16.6414 50.4004 15.736 50.4006 14.8307 50.4C14.369 50.3996 13.9073 50.3996 13.4456 50.4005C13.0224 50.4013 12.5993 50.4011 12.1762 50.4003C12.0236 50.4001 11.8709 50.4003 11.7183 50.4009C10.3025 50.4058 8.93445 50.3431 7.83931 49.3402C7.20366 48.655 6.89429 47.8425 6.89228 46.9199C6.89177 46.7939 6.89125 46.6679 6.89072 46.5381C6.89066 46.398 6.89061 46.258 6.89057 46.1179C6.89016 45.9693 6.88971 45.8206 6.88922 45.672C6.88801 45.2631 6.88743 44.8541 6.88697 44.4451C6.88636 44.0042 6.88518 43.5634 6.88409 43.1225C6.8816 42.0574 6.88012 40.9923 6.87881 39.9272C6.87843 39.6263 6.87803 39.3254 6.87761 39.0245C6.87505 37.1558 6.87281 35.2871 6.87155 33.4184C6.87125 32.9855 6.87095 32.5527 6.87064 32.1199C6.87057 32.0123 6.87049 31.9047 6.87041 31.7939C6.86913 30.0517 6.86576 28.3095 6.86152 26.5673C6.85721 24.7783 6.85482 22.9893 6.85429 21.2003C6.85394 20.196 6.85275 19.1917 6.8494 18.1874C6.84656 17.3319 6.84545 16.4765 6.84658 15.621C6.84711 15.1848 6.84682 14.7486 6.8443 14.3123C6.84201 13.9123 6.8421 13.5124 6.84402 13.1124C6.8443 12.9683 6.84374 12.8243 6.84221 12.6802C6.83131 11.5866 7.03678 10.7442 7.62983 9.81975C8.79712 8.72858 9.90293 8.60215 11.4307 8.60626ZM9.24214 10.8671C8.84364 11.3678 8.72172 11.7401 8.72098 12.3705C8.72059 12.4942 8.7202 12.6179 8.71979 12.7454C8.71987 12.8834 8.71996 13.0214 8.72006 13.1594C8.7198 13.3054 8.71949 13.4514 8.71915 13.5975C8.71833 13.9997 8.71815 14.402 8.71807 14.8043C8.71788 15.2377 8.71712 15.6712 8.71643 16.1047C8.71505 17.0529 8.71444 18.0012 8.71399 18.9494C8.71371 19.5413 8.71328 20.1332 8.71283 20.725C8.71159 22.363 8.71054 24.0011 8.7102 25.6391C8.71017 25.744 8.71015 25.8488 8.71013 25.9569C8.71011 26.062 8.71009 26.1671 8.71006 26.2755C8.71002 26.4885 8.70997 26.7015 8.70993 26.9146C8.7099 27.0202 8.70988 27.1259 8.70986 27.2348C8.70946 28.9475 8.70768 30.6602 8.70532 32.3729C8.70291 34.1305 8.70165 35.888 8.70153 37.6456C8.70143 38.6327 8.70085 39.6199 8.69901 40.607C8.69744 41.4475 8.69692 42.288 8.69776 43.1285C8.69816 43.5575 8.69806 43.9864 8.69664 44.4153C8.69535 44.808 8.69546 45.2006 8.6967 45.5932C8.6969 45.7353 8.69658 45.8774 8.6957 46.0195C8.69457 46.2126 8.69551 46.4057 8.69655 46.5988C8.69649 46.7061 8.69643 46.8133 8.69637 46.9239C8.75981 47.4297 8.95943 47.7544 9.31196 48.1152C10.0766 48.6939 11.0904 48.5758 11.9983 48.5733C12.1555 48.5736 12.3126 48.574 12.4698 48.5744C12.9004 48.5755 13.331 48.5753 13.7617 48.5748C14.2266 48.5746 14.6915 48.5755 15.1564 48.5763C16.0667 48.5776 16.977 48.5777 17.8873 48.5775C18.6272 48.5773 19.3671 48.5775 20.107 48.5779C20.2123 48.578 20.3176 48.578 20.4261 48.5781C20.6401 48.5782 20.8541 48.5784 21.0681 48.5785C23.0744 48.5796 25.0807 48.5794 27.0871 48.5787C28.9224 48.5782 30.7577 48.5794 32.593 48.5813C34.4778 48.5833 36.3626 48.5841 38.2475 48.5837C39.3055 48.5835 40.3636 48.5838 41.4217 48.5852C42.3223 48.5864 43.2229 48.5866 44.1236 48.5853C44.583 48.5847 45.0425 48.5846 45.5019 48.5858C45.9227 48.5869 46.3435 48.5866 46.7643 48.5852C46.9163 48.5849 47.0683 48.5852 47.2203 48.586C48.5834 48.6011 48.5834 48.6011 49.7592 47.9945C50.1083 47.5608 50.1972 47.2822 50.1977 46.723C50.1983 46.5984 50.1989 46.4738 50.1995 46.3454C50.1991 46.2069 50.1987 46.0684 50.1983 45.9299C50.1986 45.783 50.199 45.636 50.1995 45.4891C50.2005 45.0847 50.2003 44.6804 50.1999 44.276C50.1996 43.8401 50.2005 43.4042 50.2013 42.9683C50.2026 42.1142 50.2028 41.26 50.2025 40.4058C50.2024 39.7117 50.2025 39.0175 50.203 38.3233C50.2031 38.1753 50.2031 38.1753 50.2031 38.0242C50.2033 37.8237 50.2034 37.6232 50.2035 37.4227C50.2046 35.5412 50.2044 33.6598 50.2038 31.7783C50.2033 30.0564 50.2044 28.3345 50.2063 26.6126C50.2083 24.8454 50.2091 23.0782 50.2088 21.311C50.2086 20.3185 50.2088 19.3261 50.2103 18.3336C50.2115 17.4886 50.2116 16.6437 50.2104 15.7987C50.2098 15.3675 50.2097 14.9363 50.2109 14.5051C50.212 14.1104 50.2117 13.7158 50.2102 13.3211C50.21 13.1782 50.2102 13.0354 50.211 12.8925C50.2121 12.6984 50.211 12.5043 50.2099 12.3102C50.2099 12.1484 50.2099 12.1484 50.2099 11.9834C50.1498 11.504 49.9749 11.1723 49.6259 10.8417C49.1429 10.5197 48.7646 10.4354 48.1854 10.4347C48.1195 10.4344 48.0537 10.434 47.9859 10.4337C47.7649 10.4327 47.544 10.4332 47.323 10.4337C47.1631 10.4333 47.0033 10.4329 46.8434 10.4323C46.4037 10.4311 45.9641 10.4311 45.5245 10.4313C45.0504 10.4314 44.5764 10.4302 44.1024 10.4293C43.1735 10.4276 42.2447 10.427 41.3159 10.4269C40.5609 10.4268 39.806 10.4264 39.0511 10.4258C36.9113 10.424 34.7715 10.423 32.6317 10.4232C32.5163 10.4232 32.4009 10.4232 32.282 10.4232C32.1087 10.4232 32.1087 10.4232 31.9319 10.4232C30.0595 10.4233 28.187 10.4214 26.3145 10.4185C24.3923 10.4156 22.4702 10.4142 20.5481 10.4144C19.4687 10.4144 18.3894 10.4139 17.31 10.4117C16.3911 10.4098 15.4722 10.4094 14.5532 10.4108C14.0843 10.4114 13.6155 10.4115 13.1466 10.4097C12.7172 10.4081 12.2879 10.4084 11.8586 10.4102C11.7034 10.4105 11.5482 10.4101 11.393 10.409C10.5884 10.4035 9.92798 10.4023 9.24214 10.8671Z" fill="black"/>
<path d="M27.343 18.9758C27.5017 18.9744 27.5017 18.9744 27.6636 18.9729C27.7773 18.9724 27.891 18.972 28.0082 18.9716C28.1844 18.9707 28.1844 18.9707 28.3641 18.9698C28.6126 18.9689 28.861 18.9682 29.1094 18.9678C29.489 18.9668 29.8686 18.9637 30.2481 18.9605C30.4896 18.9598 30.7311 18.9593 30.9726 18.9589C31.0859 18.9576 31.1992 18.9564 31.316 18.9551C32.3561 18.9581 32.3561 18.9581 32.8047 19.2969C33.0158 19.6577 33.032 19.9749 33.0276 20.3875C33.0266 20.55 33.0266 20.55 33.0256 20.7158C33.0231 20.8838 33.0231 20.8838 33.0205 21.0552C33.0196 21.1692 33.0186 21.2831 33.0177 21.4005C33.0153 21.6811 33.012 21.9616 33.0078 22.2422C33.074 22.2618 33.1403 22.2815 33.2085 22.3017C33.6859 22.4439 34.1614 22.5887 34.6328 22.75C34.6809 22.7013 34.7291 22.6526 34.7787 22.6025C34.9964 22.3827 35.2145 22.1633 35.4326 21.9439C35.5084 21.8672 35.5842 21.7906 35.6623 21.7116C35.7713 21.6021 35.7713 21.6021 35.8825 21.4904C35.9495 21.4229 36.0165 21.3553 36.0856 21.2857C36.324 21.0632 36.4508 21.0251 36.7783 20.9727C37.1946 21.0264 37.2595 21.0647 37.5521 21.3335C37.6586 21.4306 37.6586 21.4306 37.7671 21.5298C37.8388 21.5973 37.9105 21.6648 37.9843 21.7344C38.0505 21.7966 38.1167 21.8588 38.1848 21.923C38.6191 22.3369 39.0455 22.759 39.472 23.1809C39.6277 23.3344 39.784 23.4872 39.9409 23.6394C40.1692 23.861 40.3955 24.0844 40.6214 24.3084C40.6916 24.3758 40.7619 24.4432 40.8342 24.5126C41.2414 24.9216 41.4377 25.1918 41.4375 25.7969C41.2093 26.3764 40.6444 26.7899 40.1925 27.2013C40.0162 27.3696 39.855 27.5299 39.7109 27.7266C39.6871 27.9956 39.6871 27.9956 39.8125 28.2344C39.8614 28.3654 39.8614 28.3654 39.9113 28.499C39.9478 28.5855 39.9843 28.6721 40.0219 28.7612C40.2187 29.2283 40.2187 29.2283 40.2187 29.4531C40.2961 29.4505 40.3734 29.4478 40.4531 29.4451C40.8045 29.4345 41.1558 29.4279 41.5073 29.4214C41.629 29.4171 41.7507 29.4129 41.8761 29.4085C41.9936 29.4069 42.1111 29.4052 42.2321 29.4035C42.3401 29.4009 42.4481 29.3982 42.5593 29.3955C42.8593 29.4531 42.8593 29.4531 43.1485 29.626C43.4955 30.1575 43.4376 30.6858 43.431 31.3071C43.4313 31.4384 43.4315 31.5697 43.4318 31.705C43.4321 31.9824 43.4306 32.2597 43.4278 32.5371C43.4243 32.8922 43.4249 33.2471 43.4268 33.6022C43.4282 33.9417 43.4263 34.2811 43.4247 34.6205C43.4252 34.7479 43.4257 34.8753 43.4262 35.0065C43.4246 35.1248 43.423 35.2431 43.4213 35.365C43.4207 35.469 43.4201 35.573 43.4194 35.6802C43.3537 36.0235 43.2284 36.1419 42.9609 36.3594C42.6941 36.4928 42.4809 36.4825 42.1825 36.4931C42.0686 36.4973 41.9547 36.5016 41.8374 36.506C41.718 36.51 41.5986 36.514 41.4756 36.5181C41.2953 36.5247 41.2953 36.5247 41.1114 36.5314C40.8138 36.5422 40.5163 36.5525 40.2187 36.5625C40.1306 36.7735 40.0442 36.9853 39.9585 37.1973C39.9102 37.3151 39.8618 37.4329 39.8121 37.5543C39.7086 37.8903 39.692 37.9747 39.8125 38.2891C39.9618 38.4704 39.9618 38.4704 40.1521 38.637C40.254 38.7333 40.254 38.7333 40.358 38.8316C40.5015 38.9645 40.6457 39.0967 40.7904 39.2283C41.1179 39.5397 41.3129 39.7443 41.4597 40.1787C41.4101 40.9483 40.7173 41.475 40.1989 41.9886C40.1188 42.0686 40.0387 42.1487 39.9562 42.2312C39.7876 42.3995 39.6187 42.5675 39.4496 42.7353C39.19 42.993 38.9313 43.2516 38.6727 43.5102C38.5086 43.6738 38.3445 43.8373 38.1803 44.0008C38.1027 44.0783 38.025 44.1559 37.945 44.2357C37.8731 44.307 37.8013 44.3782 37.7272 44.4516C37.6323 44.5459 37.6323 44.5459 37.5355 44.6422C37.2765 44.8792 37.0298 44.9561 36.6763 44.9517C36.1704 44.8083 35.8053 44.34 35.4453 43.9766C35.3642 43.8968 35.2832 43.8171 35.1997 43.735C35.009 43.5463 34.8201 43.3561 34.6328 43.1641C34.575 43.1837 34.5173 43.2034 34.4578 43.2236C34.3794 43.25 34.301 43.2765 34.2202 43.3037C34.1436 43.3296 34.067 43.3556 33.9881 43.3823C33.6634 43.4865 33.336 43.5795 33.0078 43.6719C33.0088 43.7431 33.0099 43.8143 33.011 43.8876C33.0152 44.2114 33.0179 44.5351 33.0205 44.8589C33.0222 44.9709 33.0239 45.0829 33.0256 45.1983C33.0263 45.3066 33.0269 45.415 33.0276 45.5266C33.0287 45.6261 33.0297 45.7255 33.0308 45.828C33.0058 46.1332 32.9455 46.3457 32.8047 46.6172C32.4556 46.8499 32.3235 46.8468 31.9124 46.8498C31.7918 46.8511 31.6711 46.8524 31.5468 46.8538C31.3511 46.8541 31.3511 46.8541 31.1515 46.8544C31.0176 46.8551 30.8838 46.8558 30.7458 46.8565C30.4625 46.8577 30.1791 46.8581 29.8958 46.858C29.5329 46.8579 29.1702 46.8607 28.8074 46.8642C28.461 46.867 28.1146 46.8669 27.7682 46.8671C27.6379 46.8686 27.5077 46.8701 27.3735 46.8716C27.2525 46.8709 27.1315 46.8703 27.0069 46.8697C26.9005 46.87 26.794 46.8703 26.6844 46.8705C26.3345 46.8074 26.2146 46.6926 26 46.4141C25.9539 46.1162 25.9539 46.1162 25.9603 45.7746C25.9616 45.6521 25.9629 45.5297 25.9643 45.4036C25.9677 45.2762 25.9711 45.1488 25.9746 45.0176C25.9764 44.8886 25.9782 44.7597 25.9801 44.6268C25.9849 44.3084 25.9916 43.9902 26 43.6719C25.9215 43.6573 25.843 43.6427 25.7622 43.6277C25.3895 43.5485 25.0654 43.3884 24.7205 43.2295C24.4817 43.1396 24.4817 43.1396 24.2796 43.2411C24.0607 43.373 23.9044 43.5114 23.7267 43.6945C23.6648 43.7575 23.6029 43.8206 23.5391 43.8855C23.4756 43.9512 23.4121 44.0168 23.3467 44.0845C23.2197 44.215 23.0925 44.3452 22.965 44.4753C22.9091 44.533 22.8532 44.5908 22.7955 44.6502C22.5832 44.8506 22.459 44.8891 22.166 44.9224C21.4252 44.8512 20.9167 44.2031 20.4188 43.7001C20.3435 43.6247 20.2682 43.5494 20.1906 43.4717C20.0323 43.3131 19.8742 43.1542 19.7164 42.9951C19.4745 42.7514 19.2318 42.5085 18.989 42.2657C18.835 42.1112 18.6811 41.9567 18.5272 41.8021C18.4546 41.7294 18.382 41.6567 18.3073 41.5818C18.2401 41.514 18.173 41.4462 18.1038 41.3764C18.0447 41.317 17.9857 41.2575 17.9248 41.1963C17.6141 40.8577 17.5056 40.5969 17.5199 40.1343C17.622 39.688 17.9628 39.4116 18.2812 39.1016C18.3714 39.0102 18.4616 38.9188 18.5546 38.8247C18.8002 38.5766 19.0483 38.3311 19.2968 38.086C19.0958 37.5832 18.8947 37.0805 18.6875 36.5625C18.5101 36.5599 18.3327 36.5573 18.1499 36.5546C17.9165 36.5489 17.6831 36.543 17.4497 36.5371C17.3328 36.5357 17.216 36.5342 17.0956 36.5328C16.9262 36.5279 16.9262 36.5279 16.7534 36.5228C16.6497 36.5207 16.546 36.5186 16.4391 36.5164C16.0754 36.447 15.9028 36.3121 15.6406 36.0547C15.5377 35.7459 15.525 35.5339 15.5227 35.2107C15.5217 35.1005 15.5207 34.9904 15.5197 34.8769C15.5193 34.7578 15.5188 34.6388 15.5184 34.5162C15.5178 34.3938 15.5172 34.2715 15.5166 34.1454C15.5157 33.8864 15.515 33.6274 15.5146 33.3684C15.5136 32.972 15.5105 32.5758 15.5073 32.1795C15.5066 31.9279 15.5061 31.6764 15.5057 31.4249C15.5045 31.3063 15.5032 31.1877 15.5019 31.0655C15.5022 30.9546 15.5025 30.8438 15.5028 30.7297C15.5025 30.6325 15.5021 30.5353 15.5017 30.4352C15.5595 30.0154 15.7516 29.7484 16.0468 29.4531C16.3123 29.4208 16.3123 29.4208 16.6443 29.4111C16.7628 29.4072 16.8813 29.4032 17.0034 29.3992C17.1276 29.396 17.2518 29.3929 17.3799 29.3897C17.5049 29.3857 17.6299 29.3818 17.7587 29.3778C18.0683 29.3682 18.3779 29.3595 18.6875 29.3516C18.7759 29.1598 18.8622 28.9671 18.9477 28.7739C19.0202 28.6131 19.0202 28.6131 19.0941 28.449C19.2032 28.1081 19.2152 27.958 19.0937 27.625C18.9567 27.4343 18.9567 27.4343 18.7763 27.2715C18.713 27.2099 18.6496 27.1483 18.5843 27.0849C18.5178 27.0222 18.4513 26.9596 18.3828 26.895C18.2514 26.769 18.1202 26.6427 17.9892 26.5162C17.9308 26.4609 17.8724 26.4056 17.8123 26.3487C17.5446 26.0713 17.5175 25.7907 17.5223 25.4107C17.5823 25.1318 17.6876 25.0113 17.8806 24.8027C17.9454 24.7322 18.0101 24.6617 18.0768 24.5891C18.399 24.2516 18.724 23.9177 19.0544 23.5883C19.1251 23.5176 19.1957 23.4468 19.2685 23.3739C19.4163 23.2261 19.5642 23.0784 19.7122 22.9308C19.9395 22.7041 20.1662 22.4768 20.3928 22.2495C20.537 22.1054 20.6812 21.9614 20.8254 21.8173C20.8933 21.7493 20.9611 21.6813 21.0309 21.6112C21.0937 21.5488 21.1564 21.4863 21.2211 21.422C21.2762 21.3669 21.3314 21.3119 21.3882 21.2551C21.6641 21.0042 21.9459 20.9612 22.3156 20.9659C22.8104 21.089 23.1275 21.5233 23.4609 21.8867C23.5396 21.9691 23.6183 22.0514 23.6993 22.1363C23.8927 22.3391 24.0838 22.5437 24.2734 22.75C24.6912 22.6129 25.1009 22.4644 25.5092 22.3017C25.6953 22.2422 25.6953 22.2422 26 22.2422C25.9968 22.1208 25.9968 22.1208 25.9935 21.9969C25.9851 21.6301 25.9798 21.2634 25.9746 20.8965C25.9712 20.7691 25.9678 20.6417 25.9643 20.5105C25.9623 20.3269 25.9623 20.3269 25.9603 20.1395C25.9571 19.9704 25.9571 19.9704 25.9539 19.7979C26.011 19.429 26.1106 19.3154 26.4062 19.0938C26.7208 18.9906 27.0133 18.9783 27.343 18.9758ZM27.8281 20.8203C27.8028 21.4993 27.8028 21.4993 27.7795 22.1784C27.7759 22.2637 27.7723 22.3491 27.7686 22.437C27.7638 22.567 27.7638 22.567 27.7589 22.6997C27.7222 22.9867 27.6553 23.2033 27.5234 23.461C26.9529 23.8054 26.3299 24.0171 25.7068 24.2493C25.4413 24.3549 25.2014 24.471 24.9526 24.6099C24.6372 24.7679 24.3433 24.8716 23.9826 24.8539C23.5812 24.7196 23.3091 24.4193 23.013 24.1267C22.7033 23.8211 22.3694 23.541 22.039 23.2578C21.3017 23.9952 20.5643 24.7325 19.8047 25.4922C20.0483 25.9796 20.3918 26.279 20.7943 26.6324C21.1398 26.9573 21.3225 27.218 21.3498 27.7153C21.3085 28.1226 21.1349 28.4624 20.9536 28.8247C20.8771 28.9851 20.8009 29.1456 20.7251 29.3064C20.6884 29.3834 20.6518 29.4605 20.614 29.5399C20.4495 29.9042 20.3314 30.282 20.2192 30.6651C20.0564 30.9761 19.9298 31.0463 19.6015 31.1797C19.2188 31.2299 18.8382 31.2408 18.4526 31.2495C18.0944 31.26 17.7362 31.2705 17.3672 31.2813C17.3672 32.3873 17.3672 33.4933 17.3672 34.6328C18.113 34.6461 18.113 34.6461 18.8589 34.6539C19.3205 34.668 19.6188 34.6785 20.0094 34.9375C20.2633 35.3215 20.4208 35.7043 20.5727 36.1372C20.7687 36.6796 20.9735 37.198 21.2465 37.7069C21.3769 37.9882 21.3808 38.1891 21.3281 38.4922C21.0506 38.9591 20.7249 39.3244 20.3379 39.6983C20.2864 39.7488 20.235 39.7993 20.1819 39.8514C20.0566 39.9743 19.9307 40.0966 19.8047 40.2188C19.961 40.5912 20.186 40.8267 20.472 41.109C20.5629 41.1994 20.6539 41.2897 20.7477 41.3828C20.8429 41.4762 20.938 41.5697 21.0361 41.666C21.1331 41.762 21.23 41.858 21.3269 41.9541C21.5638 42.1886 21.8012 42.4226 22.039 42.6563C22.4377 42.3208 22.825 41.9835 23.188 41.6089C23.5154 41.2712 23.6449 41.1429 24.1282 41.1027C24.6375 41.1096 25.0278 41.2939 25.4795 41.5137C25.6399 41.5887 25.8005 41.6635 25.9611 41.7382C26.0375 41.7742 26.1139 41.8102 26.1927 41.8472C26.5368 42.0053 26.8893 42.1396 27.2441 42.2714C27.4218 42.3516 27.4218 42.3516 27.625 42.5547C27.7229 42.8503 27.7448 43.1351 27.7587 43.445C27.7625 43.5264 27.7664 43.6079 27.7704 43.6918C27.777 43.8453 27.777 43.8453 27.7837 44.002C27.8057 44.4921 27.8057 44.4921 27.8281 44.9922C28.9341 44.9922 30.0401 44.9922 31.1797 44.9922C31.201 44.2418 31.201 44.2418 31.2191 43.4913C31.2224 43.3974 31.2258 43.3036 31.2292 43.2069C31.2319 43.1112 31.2346 43.0155 31.2373 42.9168C31.2889 42.6106 31.3712 42.4723 31.5859 42.25C31.8603 42.1355 32.1223 42.0398 32.4048 41.9517C32.9193 41.7829 33.4014 41.6112 33.8774 41.3486C34.3434 41.1074 34.6173 41.0316 35.1406 41.1328C35.4497 41.3341 35.6967 41.58 35.9531 41.8438C36.0296 41.919 36.106 41.9943 36.1848 42.0719C36.3803 42.2649 36.5736 42.4597 36.7656 42.6563C37.3178 42.1962 37.8284 41.7074 38.3335 41.1963C38.4449 41.0842 38.4449 41.0842 38.5586 40.9698C38.7398 40.7874 38.9208 40.6047 39.1015 40.4219C38.8752 39.9332 38.5169 39.6332 38.1276 39.2674C37.7671 38.8736 37.572 38.587 37.5888 38.0431C37.6873 37.6492 37.8341 37.3037 38.0161 36.9434C38.2861 36.3923 38.5124 35.8477 38.6933 35.2597C38.8228 34.9837 38.9439 34.8934 39.2031 34.7344C39.4636 34.6905 39.4636 34.6905 39.7538 34.6824C39.8476 34.6791 39.9414 34.6757 40.0381 34.6722C40.2155 34.6684 40.2155 34.6684 40.3965 34.6646C40.7735 34.6541 41.1506 34.6436 41.539 34.6328C41.539 33.5268 41.539 32.4208 41.539 31.2813C40.8266 31.26 40.8266 31.26 40.1141 31.2419C39.1246 31.2047 39.1246 31.2047 38.7968 30.875C38.6464 30.5779 38.5437 30.271 38.4414 29.9546C38.2526 29.4008 38.0674 28.8741 37.7812 28.3613C37.6222 28.055 37.5773 27.9179 37.5527 27.5615C37.7326 27.0759 38.0292 26.7698 38.3906 26.4063C38.4921 26.3026 38.4921 26.3026 38.5957 26.1968C38.7628 26.028 38.9313 25.8609 39.1015 25.6953C38.9452 25.3228 38.7202 25.0874 38.4342 24.8051C38.3432 24.7147 38.2523 24.6244 38.1585 24.5313C38.0633 24.4378 37.9682 24.3444 37.8701 24.2481C37.7731 24.1521 37.6762 24.0561 37.5793 23.96C37.3424 23.7255 37.105 23.4915 36.8672 23.2578C36.49 23.576 36.118 23.8923 35.7754 24.2481C35.4508 24.5847 35.2471 24.772 34.7609 24.8142C34.3241 24.8025 33.9807 24.6589 33.5981 24.4575C33.4663 24.3917 33.3344 24.3262 33.2022 24.2612C33.1364 24.2287 33.0705 24.1963 33.0027 24.1628C32.5932 23.9716 32.1658 23.8273 31.7394 23.6784C31.4843 23.5625 31.4843 23.5625 31.2812 23.2578C31.2488 22.9995 31.2488 22.9995 31.2392 22.6949C31.2337 22.5475 31.2337 22.5475 31.2282 22.3972C31.2248 22.2728 31.2213 22.1483 31.2177 22.02C31.2052 21.6241 31.1926 21.2282 31.1797 20.8203C30.0736 20.8203 28.9676 20.8203 27.8281 20.8203Z" fill="black"/>
<path d="M3.40735 1.71266C3.47433 1.71239 3.54131 1.71212 3.61032 1.71185C3.83573 1.71107 4.06114 1.71101 4.28655 1.71095C4.44942 1.71054 4.61228 1.71009 4.77514 1.7096C5.22348 1.70838 5.67182 1.70781 6.12016 1.70735C6.60341 1.70674 7.08667 1.70556 7.56992 1.70447C8.73746 1.70198 9.90499 1.7005 11.0725 1.69919C11.4023 1.69881 11.7321 1.69841 12.0619 1.69799C14.1098 1.69543 16.1577 1.69319 18.2057 1.69193C18.68 1.69163 19.1544 1.69133 19.6288 1.69102C19.7467 1.69095 19.8646 1.69087 19.9861 1.69079C21.8958 1.68951 23.8054 1.68613 25.7151 1.6819C27.6758 1.67759 29.6365 1.6752 31.5972 1.67467C32.698 1.67432 33.7988 1.67313 34.8996 1.66978C35.8372 1.66694 36.7748 1.66582 37.7124 1.66696C38.1906 1.66749 38.6688 1.6672 39.1469 1.66468C39.5853 1.66239 40.0235 1.66247 40.4619 1.66439C40.6199 1.66468 40.7779 1.66411 40.9359 1.66258C42.1148 1.65188 43.2344 1.81715 44.1261 2.66087C44.722 3.36342 45.1232 4.15262 45.1136 5.0837C45.1129 5.19629 45.1123 5.30888 45.1116 5.42488C45.1099 5.54088 45.1082 5.65687 45.1064 5.77638C45.1055 5.89474 45.1046 6.01309 45.1037 6.13503C45.1013 6.42597 45.0976 6.7169 45.0937 7.00783C44.4905 7.00783 43.8872 7.00783 43.2656 7.00783C43.263 6.85478 43.2604 6.70174 43.2577 6.54405C43.252 6.34106 43.2461 6.13806 43.2402 5.93507C43.2388 5.83446 43.2373 5.73385 43.2359 5.63019C43.2146 4.99048 43.1587 4.57149 42.7578 4.06252C42.0798 3.51811 41.3127 3.59976 40.4849 3.60536C40.3238 3.60497 40.1628 3.60439 40.0017 3.60366C39.5598 3.60216 39.118 3.60319 38.6761 3.60465C38.1993 3.60578 37.7225 3.60456 37.2457 3.60365C36.3119 3.60223 35.3782 3.603 34.4444 3.60453C33.3572 3.60624 32.2701 3.60592 31.1829 3.60554C29.2433 3.60494 27.3037 3.60638 25.3641 3.60888C23.4815 3.61131 21.599 3.61203 19.7164 3.61096C17.6668 3.60981 15.6172 3.60961 13.5676 3.61108C13.3491 3.61123 13.1306 3.61139 12.9121 3.61154C12.8046 3.61162 12.6971 3.61169 12.5863 3.61177C11.8283 3.61225 11.0702 3.61207 10.3122 3.61163C9.38864 3.61113 8.46509 3.61174 7.54153 3.61376C7.07021 3.61476 6.5989 3.61528 6.12758 3.61448C5.69626 3.61376 5.26496 3.61445 4.83364 3.61627C4.67749 3.61668 4.52132 3.61657 4.36517 3.61591C4.15306 3.61508 3.94104 3.61613 3.72894 3.61764C3.55215 3.6178 3.55215 3.6178 3.3718 3.61796C2.86876 3.67726 2.54064 3.84665 2.20263 4.22121C1.94083 4.59936 1.91681 4.79504 1.91604 5.2535C1.91559 5.37806 1.91514 5.50262 1.91467 5.63096C1.91468 5.77045 1.9147 5.90994 1.91473 6.04943C1.91439 6.19663 1.91402 6.34383 1.9136 6.49103C1.91258 6.897 1.9122 7.30297 1.91193 7.70895C1.91154 8.14622 1.91056 8.5835 1.90968 9.02078C1.90767 10.0775 1.90665 11.1343 1.90574 12.191C1.9053 12.6883 1.90475 13.1856 1.90422 13.6829C1.90249 15.3355 1.90102 16.9881 1.90029 18.6407C1.90009 19.0697 1.8999 19.4987 1.8997 19.9278C1.89965 20.0344 1.8996 20.1411 1.89955 20.2509C1.89871 21.9791 1.89613 23.7073 1.89284 25.4354C1.88948 27.2086 1.88765 28.9817 1.88732 30.7549C1.8871 31.7509 1.88621 32.7469 1.88362 33.7429C1.88142 34.591 1.8806 35.4391 1.88158 36.2873C1.88205 36.7201 1.88185 37.153 1.87988 37.5858C1.8781 37.982 1.87819 38.3782 1.87977 38.7744C1.88001 38.9178 1.87957 39.0612 1.87837 39.2046C1.84945 40.2056 1.84945 40.2056 2.33593 41.0313C2.72387 41.3722 3.05755 41.4491 3.56539 41.4697C3.66521 41.4739 3.76504 41.4782 3.86789 41.4825C3.97191 41.4865 4.07593 41.4905 4.18309 41.4946C4.28829 41.499 4.39348 41.5034 4.50187 41.5079C4.76164 41.5187 5.02144 41.5289 5.28124 41.5391C5.28124 42.1424 5.28124 42.7456 5.28124 43.3672C4.87706 43.3755 4.47306 43.3815 4.06884 43.3862C3.89867 43.3901 3.89867 43.3901 3.72507 43.394C2.51307 43.4046 1.72406 43.1207 0.843831 42.2913C0.00981396 41.405 -0.0595773 40.3985 -0.051598 39.2309C-0.0520667 39.0808 -0.0527124 38.9307 -0.0535185 38.7806C-0.0552073 38.3702 -0.0543795 37.96 -0.0531179 37.5497C-0.0521962 37.1063 -0.0536186 36.6629 -0.0547346 36.2196C-0.0565387 35.3519 -0.0561519 34.4842 -0.0549733 33.6166C-0.0540549 32.9112 -0.0539317 32.2059 -0.0543735 31.5006C-0.0544358 31.4001 -0.0544981 31.2996 -0.0545622 31.1961C-0.0546921 30.992 -0.0548239 30.7878 -0.0549574 30.5837C-0.0561151 28.6706 -0.054785 26.7575 -0.052601 24.8444C-0.0507861 23.2037 -0.0511012 21.5631 -0.0529741 19.9224C-0.0551494 18.0161 -0.0560035 16.1097 -0.0547567 14.2033C-0.0546273 14 -0.0544995 13.7966 -0.0543735 13.5932C-0.0543109 13.4931 -0.0542483 13.3931 -0.0541837 13.29C-0.0538333 12.5857 -0.0544241 11.8814 -0.0553808 11.1772C-0.0565215 10.3186 -0.0562092 9.46002 -0.0540481 8.60146C-0.0529822 8.1636 -0.0525592 7.72578 -0.0539055 7.28792C-0.0551204 6.88672 -0.0544436 6.48556 -0.0522895 6.08436C-0.0518376 5.93962 -0.0520625 5.79487 -0.0530516 5.65013C-0.0611385 4.36792 0.17254 3.49811 1.06521 2.55971C1.75952 1.95069 2.49986 1.71446 3.40735 1.71266Z" fill="black"/>
<path d="M10.3594 15.5391C22.9613 15.5391 35.5631 15.5391 48.5469 15.5391C48.5469 16.1423 48.5469 16.7456 48.5469 17.3672C35.945 17.3672 23.3431 17.3672 10.3594 17.3672C10.3594 16.7639 10.3594 16.1606 10.3594 15.5391Z" fill="black"/>
<path d="M33.4521 28.2089C34.5204 29.1176 35.3388 30.4958 35.5468 31.8906C35.6754 33.6053 35.5115 35.3043 34.3769 36.6819C33.1908 38.0468 31.7929 38.9407 29.9482 39.0761C28.0827 39.1753 26.6032 38.6028 25.1883 37.4071C24.4099 36.6859 23.8904 35.7348 23.5625 34.7343C23.5281 34.6324 23.5281 34.6324 23.493 34.5284C23.076 33.0298 23.3501 31.3472 24.0385 29.9799C24.3816 29.3978 24.8136 28.9146 25.289 28.4375C25.344 28.3801 25.399 28.3228 25.4556 28.2637C27.6679 26.152 31.149 26.4939 33.4521 28.2089ZM26.1587 30.1561C25.4372 31.1157 25.0804 32.2203 25.1875 33.414C25.3666 34.6304 25.9192 35.6045 26.8696 36.3879C27.8245 37.0612 28.974 37.3905 30.1386 37.2099C31.2123 36.9661 32.2241 36.4264 32.9062 35.5468C33.6205 34.3015 33.9897 33.0906 33.6045 31.6494C33.3421 30.9056 32.8802 30.2828 32.2968 29.7578C32.211 29.674 32.1251 29.5902 32.0366 29.5039C30.2319 28.0453 27.6693 28.5438 26.1587 30.1561Z" fill="black"/>
<path d="M10.3594 19.9062C12.672 19.9062 14.9845 19.9062 17.3672 19.9062C17.3672 20.5095 17.3672 21.1128 17.3672 21.7344C15.0546 21.7344 12.742 21.7344 10.3594 21.7344C10.3594 21.1311 10.3594 20.5278 10.3594 19.9062Z" fill="black"/>
<path d="M43.2656 44.9922C45.0084 44.9922 46.7513 44.9922 48.5469 44.9922C48.5469 45.5955 48.5469 46.1988 48.5469 46.8203C46.8041 46.8203 45.0612 46.8203 43.2656 46.8203C43.2656 46.217 43.2656 45.6137 43.2656 44.9922Z" fill="black"/>
<path d="M10.3594 23.3594C12.1022 23.3594 13.845 23.3594 15.6406 23.3594C15.6406 23.9627 15.6406 24.5659 15.6406 25.1875C13.8978 25.1875 12.155 25.1875 10.3594 25.1875C10.3594 24.5842 10.3594 23.9809 10.3594 23.3594Z" fill="black"/>
<path d="M17.2656 12.0859C17.8689 12.0859 18.4722 12.0859 19.0938 12.0859C19.0938 12.6892 19.0938 13.2925 19.0938 13.9141C18.4905 13.9141 17.8872 13.9141 17.2656 13.9141C17.2656 13.3108 17.2656 12.7075 17.2656 12.0859Z" fill="black"/>
<path d="M13.8125 12.0859C14.4158 12.0859 15.0191 12.0859 15.6406 12.0859C15.6406 12.6892 15.6406 13.2925 15.6406 13.9141C15.0373 13.9141 14.4341 13.9141 13.8125 13.9141C13.8125 13.3108 13.8125 12.7075 13.8125 12.0859Z" fill="black"/>
<path d="M10.3594 12.0859C10.9627 12.0859 11.5659 12.0859 12.1875 12.0859C12.1875 12.6892 12.1875 13.2925 12.1875 13.9141C11.5842 13.9141 10.9809 13.9141 10.3594 13.9141C10.3594 13.3108 10.3594 12.7075 10.3594 12.0859Z" fill="black"/>
<path d="M10.3594 5.17969C10.9627 5.17969 11.5659 5.17969 12.1875 5.17969C12.1875 5.78297 12.1875 6.38625 12.1875 7.00781C11.5842 7.00781 10.9809 7.00781 10.3594 7.00781C10.3594 6.40453 10.3594 5.80125 10.3594 5.17969Z" fill="black"/>
<path d="M6.90625 5.17969C7.50953 5.17969 8.11281 5.17969 8.73438 5.17969C8.73438 5.78297 8.73438 6.38625 8.73438 7.00781C8.13109 7.00781 7.52781 7.00781 6.90625 7.00781C6.90625 6.40453 6.90625 5.80125 6.90625 5.17969Z" fill="black"/>
<path d="M3.45312 5.17969C4.05641 5.17969 4.65969 5.17969 5.28125 5.17969C5.28125 5.78297 5.28125 6.38625 5.28125 7.00781C4.67797 7.00781 4.07469 7.00781 3.45312 7.00781C3.45312 6.40453 3.45312 5.80125 3.45312 5.17969Z" fill="black"/>
</g>
<defs>
<clipPath id="clip0_2472_3634">
<rect width="52" height="52" fill="white"/>
</clipPath>
</defs>
</svg>
