<svg width="103" height="104" viewBox="0 0 103 104" fill="none" xmlns="http://www.w3.org/2000/svg">
<path opacity="0.5" d="M8.26668 103C4.67279 103 1.51257 100.321 0.404379 96.3324C0.275823 95.9071 0.170864 95.4143 0.0943813 94.8665C0.0943813 94.8665 0.0740423 94.6377 0.0675331 94.5921L0.0455642 94.4393L0.0439316 94.3719C0.0170811 94.033 0 93.7035 0 93.3541V9.63637C0 4.3226 3.70861 0 8.26668 0H94.7414C99.2954 0 103 4.3226 103 9.63637V93.3541C103 95.7295 102.242 98.0252 100.901 99.7758V99.8214L100.391 100.393C98.8658 102.074 96.8594 103 94.7414 103H8.26668Z" fill="#FEDFE5"/>
<path d="M92 22.3039V79.6896C92 81.219 91.3459 82.5986 90.2953 83.5618V83.5683C89.3372 84.4599 88.0356 85 86.615 85H16.3916C13.9931 85 11.9647 83.4576 11.2643 81.3296C11.1718 81.0693 11.1057 80.796 11.0595 80.5161C11.0529 80.4445 11.0462 80.373 11.033 80.3014V80.2949C11.0132 80.0931 11 79.8979 11 79.6896V22.3039C11 19.3753 13.4117 17 16.3916 17H86.615C89.5883 17 92 19.3753 92 22.3039Z" fill="#FFCDD6"/>
<path d="M85.7937 23.5945C85.6778 23.6983 85.5759 23.8168 85.4907 23.9469C84.9373 24.7768 84.3676 25.9823 84.6772 26.9934C85.1218 28.4294 85.0065 30.7315 83.9592 31.5253C82.9118 32.319 82.6978 33.1094 82.9151 33.9361C83.1325 34.7628 82.1938 35.9122 81.4759 35.5829V36.5709C81.7787 36.7216 82.1229 36.7678 82.4548 36.7023C82.7867 36.6367 83.0875 36.4631 83.3104 36.2086C84.1436 35.3029 83.9954 34.7793 84.1041 33.778C84.1456 33.485 84.2752 33.2114 84.4758 32.9938C84.6764 32.7761 84.9385 32.6247 85.2272 32.5594C85.2272 32.5594 84.6212 33.1819 84.608 33.778C84.5948 34.3742 85.0032 36.9398 84.4993 37.3054C84.4993 37.3054 89.8052 39.7986 92.0744 39.3276C94.3436 38.8566 96.0266 36.2086 96.0266 36.2086C96.0266 36.2086 96.3889 34.2325 95.0912 33.778C93.7936 33.3235 92.1271 33.0271 92.8253 31.9468C93.1972 31.2703 93.3383 30.491 93.2271 29.727C93.191 28.8264 93.2108 27.9245 93.2864 27.0263C93.3107 26.7262 93.2985 26.4243 93.2502 26.1272C93.1755 25.8253 93.0649 25.5333 92.9208 25.2577L92.5915 24.543C92.4193 24.2118 92.161 23.933 91.8438 23.7361C91.5343 23.4759 91.442 23.1005 91.0567 22.893C90.681 22.7189 90.2748 22.6204 89.8611 22.6031C89.5046 22.5642 89.1461 22.5466 88.7875 22.5504C87.8719 22.5867 86.5446 22.893 85.7937 23.5945Z" fill="#263238"/>
<path d="M77.6216 36.0306L77.0189 34.2785C77.0189 34.2785 77.1407 33.4321 77.2494 33.0665C77.3581 32.7009 75.4281 30.9718 75.4281 30.9718L74.0316 32.3946C74.0316 32.3946 75.7575 34.4135 75.9551 34.4069L76.5775 36.5609L77.6216 36.0306Z" fill="#EEC1BB"/>
<path d="M76.0123 35.3786C76.0123 35.3786 77.4087 41.6363 78.5812 42.295C79.2399 42.6671 80.6759 41.8075 81.8056 40.9776C82.6915 40.3189 83.3931 39.7063 83.3931 39.7063L83.2778 38.2933L83.0934 36.0142C82.2239 36.5149 79.9052 40.1048 79.5462 40.0719C79.1872 40.0389 77.2408 34.6079 77.2408 34.6079L76.0123 35.3786Z" fill="#FE5E7E"/>
<path opacity="0.2" d="M81.8056 41.0072C82.6915 40.3485 83.3931 39.7359 83.3931 39.7359L83.2778 38.323C82.7113 38.7808 81.7233 39.8018 81.8056 41.0072Z" fill="black"/>
<path d="M95.1267 96.503L93.7401 97.3165C93.0894 96.4419 92.3855 95.6081 91.6323 94.82C91.2305 94.3951 90.8089 93.9242 90.3709 93.4202C89.4915 92.4124 88.543 91.2597 87.545 90.0246L86.6525 88.9081C83.1844 84.5409 79.4331 79.4096 78.0301 75.9383C77.592 74.8613 77.3714 73.9457 77.4735 73.2574C77.76 71.1857 78.5669 68.0668 79.4858 65.0532C80.8888 60.4423 82.45 56.0817 82.45 56.0817L86.333 62.6358C86.333 62.6358 85.1441 65.4682 84.0605 68.485C82.9967 71.4492 82.035 74.5912 82.3907 75.4014L82.5158 75.6781C83.1745 76.9955 84.9399 80.0255 86.9621 83.3586C87.163 83.6879 87.3705 84.0337 87.578 84.3697C88.6615 86.1515 89.7912 87.9925 90.8353 89.6591L92.0143 91.5594C93.7994 94.4248 95.1267 96.503 95.1267 96.503Z" fill="#EEC1BB"/>
<path opacity="0.2" d="M86.5739 88.9048C88.4084 91.2103 90.1671 93.2951 91.4746 94.8167C91.6624 93.8813 91.8501 92.7714 92.0016 91.566C90.4866 89.1354 88.6356 86.1383 86.9559 83.3651C86.9901 85.2193 86.8622 87.0729 86.5739 88.9048Z" fill="black"/>
<path d="M93.487 69.9243C93.0062 73.1948 92.3244 76.1557 91.8798 77.921C91.6097 78.9815 91.4319 79.6073 91.4319 79.6073C91.4235 82.9686 91.2256 86.3267 90.839 89.6657C90.6941 90.9831 90.536 92.2412 90.3713 93.417C89.7686 97.7611 89.133 100.88 89.133 100.88L87.4862 100.666L87.5488 90.0214L87.585 84.3763L87.6311 76.6991V75.3619L87.7102 69.5225L87.8287 60.9133L93.5792 58.3312C94.3532 61.6016 94.0667 65.9886 93.487 69.9243Z" fill="#EEC1BB"/>
<path d="M94.9984 95.5972C94.8305 95.472 93.4011 97.6128 93.4011 97.6128C93.4011 97.6128 93.7304 99.8458 93.0717 101.285C92.413 102.724 93.681 102.603 94.7185 101.239L97.3006 97.8664C98.0416 96.8948 96.7539 96.8718 94.9984 95.5972Z" fill="#263238"/>
<path d="M92.9202 99.23C93.2495 99.1542 93.457 98.2419 93.4932 98.0443C93.4966 98.0359 93.4966 98.0265 93.4932 98.018C93.4952 98.0104 93.4952 98.0025 93.4932 97.9949H93.4669C93.4373 97.9949 92.8345 97.794 92.5085 97.9949C92.459 98.0238 92.4161 98.0628 92.3826 98.1093C92.3491 98.1558 92.3258 98.2089 92.3142 98.265C92.2878 98.3924 92.3109 98.4813 92.3833 98.5318C92.4953 98.6075 92.7127 98.5318 92.9301 98.4461C92.7855 98.5792 92.6816 98.7505 92.6303 98.9402C92.6242 98.9776 92.6257 99.0158 92.6347 99.0526C92.6438 99.0894 92.6602 99.124 92.683 99.1542C92.7058 99.1903 92.7368 99.2204 92.7734 99.2421C92.8101 99.2639 92.8513 99.2766 92.8938 99.2794L92.9202 99.23ZM92.8905 99.0983C92.8905 99.0983 92.8345 99.0983 92.772 99.0291C92.7592 99.0138 92.7501 98.9957 92.7456 98.9762C92.741 98.9568 92.741 98.9365 92.7456 98.9171C92.772 98.703 93.0914 98.3935 93.3187 98.2057C93.2133 98.6009 93.0387 99.062 92.8872 99.0983H92.8905ZM93.2495 98.0575C92.9202 98.2716 92.5217 98.4428 92.4261 98.3869C92.3965 98.3671 92.4064 98.2979 92.4261 98.2617C92.4325 98.2234 92.4478 98.187 92.4706 98.1556C92.4935 98.1241 92.5234 98.0985 92.5579 98.0806C92.6535 98.0319 92.7603 98.0091 92.8675 98.0147C92.996 98.0146 93.1242 98.0289 93.2495 98.0575Z" fill="#FE5E7E"/>
<path d="M89.7191 99.8294C89.7191 99.6186 87.1436 99.7833 87.1436 99.7833C87.1436 99.7833 85.5627 101.391 84.0279 101.759C82.4932 102.128 83.3528 103.041 85.0687 103.041H89.2976C90.5326 103.034 89.7685 101.997 89.7191 99.8294Z" fill="#263238"/>
<path d="M86.8576 100.116L86.8806 100.1V100.08C86.8821 100.073 86.8821 100.066 86.8806 100.06C86.8822 100.051 86.8822 100.042 86.8806 100.034C86.8806 100.004 86.6534 99.4079 86.3076 99.263C86.2559 99.2391 86.1998 99.2267 86.1429 99.2267C86.086 99.2267 86.0298 99.2391 85.9782 99.263C85.8596 99.3189 85.8036 99.3914 85.8069 99.4803C85.8102 99.5693 85.998 99.7504 86.2087 99.8624C86.0146 99.8275 85.8145 99.8492 85.6324 99.925C85.5982 99.9425 85.5682 99.9672 85.5444 99.9973C85.5205 100.027 85.5034 100.062 85.4941 100.1C85.4755 100.146 85.4716 100.197 85.4828 100.246C85.494 100.295 85.5197 100.339 85.5566 100.373C85.6236 100.418 85.7036 100.438 85.7839 100.432C86.1573 100.389 86.5206 100.282 86.8576 100.116ZM86.6237 100.073C86.245 100.231 85.774 100.373 85.6521 100.274C85.6521 100.274 85.6093 100.238 85.6357 100.139C85.6405 100.119 85.6494 100.101 85.6619 100.085C85.6744 100.069 85.6902 100.056 85.7081 100.047C85.8033 100.004 85.9071 99.9853 86.0111 99.9908C86.2176 99.9975 86.4228 100.025 86.6237 100.073ZM86.268 99.3848C86.47 99.517 86.6237 99.7112 86.7061 99.9381C86.3273 99.7932 85.9584 99.5923 85.9519 99.477C85.9519 99.4441 86.0111 99.4079 86.0441 99.3914C86.0815 99.3749 86.1218 99.3659 86.1626 99.3651C86.1987 99.3653 86.2344 99.3719 86.268 99.3848Z" fill="#FE5E7E"/>
<path d="M78.7583 61.7761L85.8097 64.2825L86.0469 63.6238L86.3367 62.8267L86.4553 63.9762L86.5475 64.8556H95.1106C95.1106 64.8556 95.137 64.6085 95.1633 64.1672C95.3247 61.3527 95.2144 58.5292 94.834 55.7358C94.5135 53.318 93.9042 50.9473 93.0192 48.6745C92.9468 48.4967 92.8743 48.3221 92.7986 48.1476L83.613 47.4362L83.5372 47.8775L82.9608 51.171L81.8641 53.9441L79.1568 60.7881L78.7583 61.7761Z" fill="#FE5E7E"/>
<path opacity="0.7" d="M78.7583 61.7761L85.8097 64.2825L86.0469 63.6238L86.3367 62.8267L86.4553 63.9762L86.5475 64.8556H95.1106C95.1106 64.8556 95.137 64.6085 95.1633 64.1672C95.3247 61.3527 95.2144 58.5292 94.834 55.7358C94.5135 53.318 93.9042 50.9473 93.0192 48.6745C92.9468 48.4967 92.8743 48.3221 92.7986 48.1476L83.613 47.4362L83.5372 47.8775L82.9608 51.171L81.8641 53.9441L79.1568 60.7881L78.7583 61.7761Z" fill="white"/>
<path opacity="0.6" d="M87.2229 48.6253C87.2235 48.7179 87.1967 48.8087 87.1457 48.886C87.0947 48.9633 87.0219 49.0238 86.9365 49.0597C86.8511 49.0956 86.7569 49.1053 86.666 49.0877C86.5751 49.07 86.4914 49.0257 86.4257 48.9604C86.36 48.8952 86.3151 48.8118 86.2968 48.721C86.2785 48.6302 86.2875 48.536 86.3228 48.4504C86.3581 48.3647 86.4181 48.2915 86.495 48.2399C86.572 48.1884 86.6626 48.1609 86.7552 48.1609C86.8787 48.1609 86.9971 48.2097 87.0848 48.2967C87.1724 48.3837 87.222 48.5018 87.2229 48.6253Z" fill="white"/>
<path opacity="0.2" d="M90.7662 48.9942C90.7662 48.9942 91.8103 54.7479 94.8173 55.7492C94.4968 53.3313 93.8875 50.9606 93.0025 48.6879L90.7662 48.9942Z" fill="black"/>
<path opacity="0.2" d="M81.847 53.9639C84.2546 52.7881 84.215 48.1607 84.215 48.1607L83.5201 47.8906L82.9438 51.1841L81.847 53.9639Z" fill="black"/>
<path opacity="0.2" d="M86.456 63.9895L86.5482 64.8689H95.1114C95.1114 64.8689 95.1377 64.6219 95.1641 64.1805L86.456 63.9895Z" fill="black"/>
<path opacity="0.2" d="M78.7587 61.7763L85.8101 64.2826L86.0472 63.6338L79.1407 60.808L78.7587 61.7763Z" fill="black"/>
<path opacity="0.2" d="M86.3341 62.8432L86.1497 60.4949L84.2131 56.6909C84.2131 56.6909 83.6005 58.8844 84.5655 60.8407C85.5305 62.7971 86.3341 62.8432 86.3341 62.8432Z" fill="black"/>
<path d="M92.7819 48.1609L93.1705 49.116L83.3921 48.6253L83.5963 47.4495L92.7819 48.1609Z" fill="#263238"/>
<path d="M87.6215 47.8052L87.5063 48.8788C87.5004 48.9354 87.4727 48.9874 87.429 49.0237C87.3853 49.06 87.3291 49.0778 87.2724 49.0732L85.8397 48.9579C85.811 48.9558 85.7829 48.948 85.7573 48.9349C85.7316 48.9217 85.7089 48.9035 85.6905 48.8814C85.672 48.8592 85.6582 48.8336 85.6499 48.806C85.6416 48.7784 85.639 48.7494 85.6421 48.7207L85.7409 47.6635C85.7468 47.6067 85.7744 47.5544 85.818 47.5176C85.8616 47.4807 85.9178 47.4622 85.9748 47.4659L87.4173 47.5647C87.4468 47.5663 87.4756 47.5739 87.5021 47.5871C87.5285 47.6002 87.552 47.6186 87.5711 47.6411C87.5902 47.6635 87.6045 47.6897 87.6132 47.7179C87.6219 47.7461 87.6247 47.7758 87.6215 47.8052Z" fill="white"/>
<path d="M90.0193 47.9335L90.1312 49.1982H90.4869L90.4309 47.9335H90.0193Z" fill="#FE5E7E"/>
<path d="M84.8679 47.5482L84.7263 48.8722H84.3969L84.5122 47.4922L84.8679 47.5482Z" fill="#FE5E7E"/>
<path opacity="0.7" d="M90.0193 47.9335L90.1312 49.1982H90.4869L90.4309 47.9335H90.0193Z" fill="white"/>
<path opacity="0.7" d="M84.8679 47.5482L84.7263 48.8722H84.3969L84.5122 47.4922L84.8679 47.5482Z" fill="white"/>
<path d="M83.5995 47.4493L92.7819 48.1574C92.7819 48.1574 92.6534 45.1933 93.5525 40.6976C93.7106 39.9072 93.8819 39.0509 94.1256 38.1814C94.3265 37.4107 94.5571 36.6071 94.8173 35.7804C94.3596 35.5609 93.8806 35.3887 93.3879 35.2666C91.9426 34.888 90.4583 34.678 88.9647 34.6409C87.417 34.5527 85.8679 34.7882 84.4163 35.3325C83.9464 35.5046 83.5029 35.7419 83.0989 36.0373C83.0989 36.0373 82.6345 40.5824 83.5995 47.4493Z" fill="#FE5E7E"/>
<path d="M88.0729 36.9595C90.3224 36.2185 90.8428 34.9834 90.8428 34.9834C89.7757 34.1798 89.6933 32.7373 89.7823 31.7755C89.8088 31.4501 89.8617 31.1274 89.9403 30.8105L87.2594 31.8875C87.386 32.2856 87.4861 32.6916 87.5591 33.1028C87.5591 33.1259 87.5591 33.1489 87.5591 33.1753C87.872 35.0559 87.1145 35.2107 87.1145 35.2107C86.8016 36.3239 88.0729 36.9595 88.0729 36.9595Z" fill="#EEC1BB"/>
<path opacity="0.2" d="M87.2594 31.894C87.3859 32.2921 87.4861 32.6981 87.5591 33.1093C88.422 33.162 89.2059 32.4506 89.7822 31.7919C89.8088 31.4665 89.8616 31.1438 89.9403 30.8269L87.2594 31.894Z" fill="black"/>
<path d="M88.6222 24.3817C86.3168 24.2533 85.4835 25.4587 85.1838 27.8432C84.805 30.8074 85.3518 32.9844 88.2929 32.5035C92.2846 31.8514 92.4822 24.5925 88.6222 24.3817Z" fill="#EEC1BB"/>
<path d="M86.6921 27.7936C86.4873 28.13 86.2429 28.4407 85.9643 28.7191C86.0262 28.819 86.1149 28.8997 86.2202 28.9521C86.3255 29.0044 86.4433 29.0264 86.5604 29.0155L86.6921 27.7936Z" fill="#D4827D"/>
<path d="M88.126 27.6817C88.126 27.8727 88.2017 28.0341 88.3269 28.044C88.452 28.0539 88.5706 27.909 88.5838 27.7146C88.597 27.5203 88.508 27.3622 88.3829 27.3524C88.2577 27.3425 88.1392 27.5039 88.126 27.6817Z" fill="#263238"/>
<path d="M88.4348 27.3688L88.033 27.1744C88.033 27.1744 88.2109 27.5367 88.4348 27.3688Z" fill="#263238"/>
<path d="M85.757 27.4577C85.757 27.6488 85.8327 27.8101 85.9612 27.82C86.0896 27.8299 86.2016 27.685 86.2181 27.4907C86.2345 27.2964 86.1423 27.135 86.0139 27.1251C85.8854 27.1152 85.7734 27.2667 85.757 27.4577Z" fill="#263238"/>
<path d="M86.0664 27.1449L85.6646 26.9473C85.6646 26.9473 85.8457 27.3128 86.0664 27.1449Z" fill="#263238"/>
<path d="M89.2251 26.6047C89.2469 26.6046 89.2681 26.5984 89.2866 26.587C89.3051 26.5756 89.3201 26.5593 89.33 26.5399C89.3399 26.5205 89.3442 26.4988 89.3426 26.4771C89.3409 26.4554 89.3333 26.4346 89.3206 26.417C89.1868 26.2605 89.0182 26.1376 88.8283 26.0581C88.6384 25.9786 88.4325 25.9447 88.2272 25.9592C88.1954 25.9617 88.1659 25.9766 88.145 26.0006C88.1241 26.0246 88.1134 26.0558 88.1152 26.0876C88.1177 26.1194 88.1326 26.1489 88.1566 26.1698C88.1806 26.1907 88.2119 26.2014 88.2437 26.1996C88.4082 26.1876 88.5733 26.2134 88.7263 26.275C88.8793 26.3367 89.0161 26.4326 89.1263 26.5553C89.1375 26.5709 89.1524 26.5836 89.1696 26.5922C89.1868 26.6008 89.2059 26.6051 89.2251 26.6047Z" fill="#263238"/>
<path d="M85.616 26.1469C85.6352 26.1532 85.656 26.1532 85.6752 26.1469C85.7948 26.064 85.9315 26.0092 86.0752 25.9863C86.2189 25.9635 86.3659 25.9734 86.5052 26.0152C86.5345 26.0274 86.5674 26.0277 86.597 26.016C86.6265 26.0044 86.6503 25.9816 86.6633 25.9526C86.6747 25.9232 86.6746 25.8906 86.663 25.8613C86.6514 25.832 86.6291 25.8082 86.6007 25.7945C86.4268 25.7385 86.2425 25.7227 86.0616 25.7484C85.8808 25.7741 85.7081 25.8405 85.5567 25.9427C85.5429 25.9506 85.5308 25.9611 85.5211 25.9737C85.5115 25.9863 85.5044 26.0007 85.5004 26.016C85.4964 26.0314 85.4956 26.0474 85.4979 26.0631C85.5002 26.0788 85.5056 26.0939 85.5139 26.1074C85.5266 26.1215 85.5425 26.1324 85.5602 26.1393C85.5779 26.1462 85.597 26.1488 85.616 26.1469Z" fill="#263238"/>
<path d="M86.8506 29.9509C86.9459 30.2185 87.0218 30.4926 87.0778 30.771H87.226C87.9078 30.7414 88.2141 30.5009 88.3425 30.2473C88.405 30.1204 88.4366 29.9804 88.4347 29.8389C88.4352 29.7598 88.4241 29.681 88.4018 29.6051C87.9913 29.8078 87.542 29.9201 87.0844 29.9345L86.8506 29.9509Z" fill="#263238"/>
<path d="M87.0812 29.9346L87.1536 30.175C87.8123 30.1454 88.2405 30.0367 88.4348 29.8457C88.4353 29.7665 88.4242 29.6877 88.4019 29.6118C87.9898 29.8127 87.5394 29.9228 87.0812 29.9346Z" fill="white"/>
<path d="M87.2269 30.7644C87.9086 30.7347 88.2149 30.4943 88.3434 30.2407C88.0852 30.255 87.8318 30.3164 87.5958 30.4219C87.4405 30.4955 87.3118 30.6151 87.2269 30.7644Z" fill="#DE5753"/>
<path d="M90.9448 28.4359C90.9448 28.4359 89.9568 26.4598 90.2071 25.0041C90.2071 25.0041 85.7082 22.8699 85.224 27.5302C85.224 27.5302 85.0033 23.3573 89.0017 23.4825C93 23.6076 92.6608 29.4503 90.5035 31.0773C90.5068 31.0773 91.5541 29.6677 90.9448 28.4359Z" fill="#263238"/>
<path d="M90.543 28.9069C90.5798 28.6394 90.721 28.3974 90.9358 28.2339C91.1506 28.0703 91.4215 27.9985 91.6891 28.0341C92.4038 28.1526 92.6772 29.6479 90.8558 29.9048C90.5989 29.9443 90.4672 29.6841 90.543 28.9069Z" fill="#EEC1BB"/>
<path d="M90.2103 25.004C90.2103 25.004 87.75 24.5429 86.5512 25.4091C86.5512 25.4091 87.7434 23.9073 90.3289 24.6911L90.2103 25.004Z" fill="#263238"/>
<path d="M84.4007 35.326C84.4402 35.8233 84.8453 37.1901 88.1256 37.1638C92.1273 37.1342 93.3953 35.2667 93.3953 35.2667C91.95 34.8881 90.4657 34.6781 88.9721 34.641C87.4171 34.5474 85.8599 34.7808 84.4007 35.326Z" fill="#EEC1BB"/>
<path d="M67.0001 28.4227L72.0457 33.9723L77.5755 32.0357L78.0564 24.5529L73.014 19L67.4842 20.9333L67.0001 28.4227Z" fill="#FE5E7E"/>
<path opacity="0.4" d="M68.2648 27.9781L73.3104 33.5277L77.5755 32.0357L78.0564 24.5529L73.014 19L68.7489 20.492L68.2648 27.9781Z" fill="white"/>
<path opacity="0.2" d="M68.2649 27.9783L67.0002 28.4229L72.0458 33.9725L73.3105 33.5278L68.2649 27.9783Z" fill="black"/>
<path d="M89.3768 42.98L97.357 41.3168L99.1421 41.4386L101.816 54.2702L93.8395 55.9334L92.0511 55.8115L89.3768 42.98Z" fill="#FE5E7E"/>
<path opacity="0.4" d="M91.1652 43.1019L93.8395 55.9335L95.3941 55.6107L99.2837 54.8005L101.816 54.2735L99.1421 41.4387L91.1652 43.1019Z" fill="white"/>
<path opacity="0.2" d="M91.1648 43.102L89.3764 42.9801L92.0507 55.8116L93.8391 55.9335L91.1648 43.102Z" fill="black"/>
<path opacity="0.2" d="M99.142 41.4386L91.1651 43.1019L89.3767 42.98L97.3569 41.3168L99.142 41.4386Z" fill="white"/>
<path opacity="0.2" d="M95.3943 55.6007L98.6055 54.942C98.6055 54.0396 97.5021 52.7749 97.5021 52.7749C97.5021 52.7749 95.5557 53.6082 95.3943 55.6007Z" fill="black"/>
<path d="M97.1363 51.3391V53.2131C96.8658 53.3049 96.6339 53.4846 96.4776 53.7236C96.191 54.1353 95.7168 55.6997 95.7168 55.6997C95.7168 55.6997 97.3042 56.2366 97.5282 55.9994C97.7521 55.7623 98.2593 54.2078 98.3549 53.9838C98.4504 53.7598 98.1309 53.2197 98.1309 53.2197L98.098 51.5367L97.1363 51.3391Z" fill="#EEC1BB"/>
<path opacity="0.2" d="M93.5529 40.6977C93.711 39.9072 93.8823 39.0509 94.126 38.1814C93.9485 38.118 93.7655 38.0717 93.5793 38.0431C93.5793 38.0431 92.9601 39.9566 93.5529 40.6977Z" fill="black"/>
<path d="M94.8173 35.7805C95.6143 36.2021 98.1437 43.2436 98.2952 43.685C98.4467 44.1263 98.2952 52.2086 98.2952 52.2086H96.7901C96.7901 52.2086 96.3982 44.6895 96.3092 44.2481C96.2203 43.8068 93.6744 39.0806 93.6744 39.0806C93.6744 39.0806 93.4043 37.9081 93.6744 37.1539C93.9372 36.6095 94.3296 36.1378 94.8173 35.7805Z" fill="#FE5E7E"/>
<path opacity="0.7" d="M89.4818 40.0521L85.0784 39.6832L86.9952 43.8067L89.4818 40.0521Z" fill="white"/>
<path opacity="0.2" d="M85.3985 41.093L84.7266 42.2095H85.8563L85.3985 41.093Z" fill="black"/>
<path d="M6.75169 54H32.8264V101.194H6.75169V54Z" fill="#FE869E"/>
<path opacity="0.2" d="M17.3341 101.194H6.75L6.75 54.0001H17.3341L17.3341 101.194Z" fill="black"/>
<path opacity="0.5" d="M10.6992 72.1942H13.3882L15.2898 74.7261V78.3083L13.3882 80.8401H10.6992L8.7976 78.3083V74.7261L10.6992 72.1942Z" fill="black"/>
<path d="M13.3043 80.6721L15.1201 78.2517V74.7827L13.3043 72.3641H10.7835L8.96587 74.7827V78.2517L10.7835 80.6721H13.3043Z" fill="#FE869E"/>
<path opacity="0.2" d="M20.6566 61.1608L22.8687 64.9915H27.2931L29.5034 61.1608L27.2931 57.3302H22.8687L20.6566 61.1608Z" fill="black"/>
<path opacity="0.2" d="M21.4458 80.1532V72.8828H28.7162V80.1532H21.4458Z" fill="black"/>
<path opacity="0.2" d="M20.741 91.2032C20.7409 92.2812 21.1422 93.3206 21.8665 94.1189C22.5909 94.9172 23.5865 95.4172 24.6593 95.5216C24.7995 95.5363 24.9404 95.5437 25.0813 95.5435C25.6513 95.5435 26.2157 95.4313 26.7423 95.2132C27.2689 94.995 27.7473 94.6753 28.1504 94.2723C28.5534 93.8693 28.8731 93.3908 29.0912 92.8642C29.3094 92.3376 29.4216 91.7732 29.4216 91.2032C29.4216 90.6332 29.3094 90.0689 29.0912 89.5423C28.8731 89.0157 28.5534 88.5372 28.1504 88.1342C27.7473 87.7311 27.2689 87.4114 26.7423 87.1933C26.2157 86.9752 25.6513 86.8629 25.0813 86.8629C24.9404 86.8628 24.7995 86.8701 24.6593 86.8848C23.5865 86.9892 22.5909 87.4893 21.8665 88.2876C21.1422 89.0859 20.7409 90.1253 20.741 91.2032Z" fill="black"/>
<path opacity="0.2" d="M8.45596 65.4445H15.6313L12.6337 58.5157L12.0437 57.1493L8.45596 65.4445Z" fill="black"/>
<path opacity="0.5" d="M9.63602 65.4444H15.6313L12.6337 58.5156L9.63602 65.4444Z" fill="black"/>
<path opacity="0.2" d="M8.70805 89.6888L9.98311 95.5453H14.1042L15.3774 89.6888L12.7195 86.8008L12.0437 86.0682L8.70805 89.6888Z" fill="black"/>
<path opacity="0.5" d="M10.058 89.6888L11.3331 95.5453H14.1042L15.3774 89.6888L12.7195 86.8008L10.058 89.6888Z" fill="black"/>
<path opacity="0.2" d="M10.0582 89.6888H8.70823L12.0438 86.0682L12.7197 86.8008L10.0582 89.6888Z" fill="black"/>
<path opacity="0.5" d="M20.6568 61.1608L22.8689 64.9915H26.4493L28.6597 61.1608L26.4493 57.3302H22.8689L20.6568 61.1608Z" fill="black"/>
<path opacity="0.5" d="M20.7408 91.2032C20.7407 92.2811 21.142 93.3205 21.8663 94.1188C22.5907 94.9171 23.5863 95.4172 24.6592 95.5215C25.7326 95.4179 26.7289 94.9181 27.4539 94.1197C28.1789 93.3214 28.5806 92.2816 28.5806 91.2032C28.5806 90.1247 28.1789 89.085 27.4539 88.2866C26.7289 87.4882 25.7326 86.9884 24.6592 86.8848C23.5863 86.9892 22.5907 87.4892 21.8663 88.2875C21.142 89.0858 20.7407 90.1252 20.7408 91.2032Z" fill="black"/>
<path opacity="0.5" d="M21.3945 80.1532V72.8828H27.7022V80.1532H21.3945Z" fill="black"/>
<path opacity="0.2" d="M32.8264 92.9331C32.8264 93.0829 29.0707 96.9044 29.0707 96.9044L29.5986 100.784H32.8264V92.9331Z" fill="black"/>
<path d="M5.35789 101.115V102.308H34.2202V101.115C34.2205 101.049 34.2075 100.983 34.1822 100.921C34.1568 100.86 34.1196 100.804 34.0725 100.757C34.0255 100.71 33.9696 100.672 33.9081 100.647C33.8466 100.622 33.7807 100.609 33.7142 100.609H5.86207C5.79571 100.609 5.73 100.622 5.66871 100.648C5.60742 100.673 5.55176 100.71 5.50492 100.757C5.45808 100.804 5.42098 100.86 5.39575 100.922C5.37052 100.983 5.35765 101.049 5.35789 101.115Z" fill="#263238"/>
<path opacity="0.2" d="M5.35795 101.115V102.308H17.334V101.115C17.3342 101.049 17.3213 100.983 17.296 100.921C17.2706 100.86 17.2333 100.804 17.1863 100.757C17.1393 100.71 17.0834 100.672 17.0219 100.647C16.9604 100.622 16.8945 100.609 16.828 100.609H5.86213C5.79576 100.609 5.73005 100.622 5.66876 100.648C5.60747 100.673 5.55181 100.71 5.50497 100.757C5.45813 100.804 5.42103 100.86 5.3958 100.922C5.37057 100.983 5.35771 101.049 5.35795 101.115Z" fill="black"/>
<path d="M33.0145 93.366L34.0631 92.7157L38.6646 95.5325L39.5159 101.058L38.4673 101.709L34.3901 102.308L31.0198 97.1528L33.0145 93.366Z" fill="#FE869E"/>
<path opacity="0.3" d="M32.0665 96.5007L35.4368 101.658L39.5159 101.058L38.6646 95.5325L34.9947 93.2856L34.0631 92.7157L32.0665 96.5007Z" fill="white"/>
<path opacity="0.2" d="M35.4368 101.658L34.3901 102.308L38.4673 101.709L39.5159 101.058L35.4368 101.658Z" fill="black"/>
<path opacity="0.2" d="M34.0632 92.7157L32.0666 96.5007L31.0199 97.1528L33.0147 93.366L34.0632 92.7157Z" fill="white"/>
<path d="M38.7193 96.5665C38.7595 96.4898 39.5413 95.4814 39.5943 95.4102C40.4821 94.2155 42.7618 94.4055 44.6854 95.8358C46.6089 97.2661 47.4474 99.3925 46.5596 100.585C46.5066 100.657 45.7138 101.658 45.6463 101.72C44.6616 102.688 42.5408 102.441 40.7287 101.095C38.9166 99.7487 38.0763 97.7904 38.7193 96.5665Z" fill="#FE869E"/>
<path opacity="0.4" d="M41.4687 100.154C43.279 101.5 45.4016 101.749 46.3862 100.779C46.4524 100.718 46.5135 100.651 46.5689 100.58C47.4567 99.385 46.6182 97.2569 44.6947 95.8302C42.7711 94.4036 40.4932 94.2099 39.6036 95.4046C39.551 95.4751 39.5039 95.5496 39.4629 95.6275C38.8108 96.855 39.6584 98.8169 41.4687 100.154Z" fill="white"/>
<path d="M0.000124931 101.395L5.46753 93.1907L6.74624 94.104L7.02755 95.4558L8.45605 102.308H1.27884L0.000124931 101.395Z" fill="#FE869E"/>
<path d="M2.6226e-05 101.395H7.17725L5.74874 94.5425L5.46743 93.1907L2.6226e-05 101.395Z" fill="#FE869E"/>
<path opacity="0.3" d="M8.45605 102.308L7.17734 101.395H0.000124931L1.27884 102.308H8.45605Z" fill="black"/>
<path opacity="0.3" d="M2.6226e-05 101.395H7.17725L5.74874 94.5425L5.46743 93.1907L2.6226e-05 101.395Z" fill="white"/>
</svg>
