<svg width="51" height="56" viewBox="0 0 51 56" fill="none" xmlns="http://www.w3.org/2000/svg">
<g opacity="0.9">
<path fill-rule="evenodd" clip-rule="evenodd" d="M24.6699 28.9658H26.601V35.7245H24.6699V28.9658Z" fill="#595959"/>
<path d="M25.6363 56.0002C31.502 56.0002 36.2571 51.2452 36.2571 45.3795C36.2571 39.5138 31.502 34.7588 25.6363 34.7588C19.7707 34.7588 15.0156 39.5138 15.0156 45.3795C15.0156 51.2452 19.7707 56.0002 25.6363 56.0002Z" fill="#FCC24C"/>
<path d="M25.6375 52.1384C29.3702 52.1384 32.3962 49.1124 32.3962 45.3797C32.3962 41.647 29.3702 38.6211 25.6375 38.6211C21.9049 38.6211 18.8789 41.647 18.8789 45.3797C18.8789 49.1124 21.9049 52.1384 25.6375 52.1384Z" fill="#FFDD95"/>
<path fill-rule="evenodd" clip-rule="evenodd" d="M0.533203 0H8.25736L29.4988 28.9656H21.7746L0.533203 0Z" fill="#BD7575"/>
<path fill-rule="evenodd" clip-rule="evenodd" d="M50.7402 0H43.0161L21.7746 28.9656H29.4988L50.7402 0Z" fill="#BD7575"/>
</g>
</svg>
