<svg width="130" height="33" viewBox="0 0 130 33" fill="none" xmlns="http://www.w3.org/2000/svg">
<path d="M16.875 12.9219H15.1719V18.8438C14.5573 18.4792 13.6719 18.1667 12.5156 17.9062C11.4323 17.6562 10.4948 17.5312 9.70312 17.5312C7.79688 17.5312 6.19792 17.8698 4.90625 18.5469C4.17708 18.9323 3.8125 19.4375 3.8125 20.0625C3.8125 20.8958 4.25 21.3125 5.125 21.3125C5.65625 21.3125 6.34896 21.1562 7.20312 20.8438C7.75521 20.6458 8.46354 20.3958 9.32812 20.0938C9.69271 19.9688 10.3385 19.9062 11.2656 19.9062C13.0677 19.9062 14.4115 20.4635 15.2969 21.5781C15.724 22.1094 15.9375 22.7344 15.9375 23.4531C15.9375 25.1094 14.8958 26.4115 12.8125 27.3594C11.9479 27.7552 11.125 27.9792 10.3438 28.0312C11.0938 28.7812 11.8073 29.1562 12.4844 29.1562C12.7031 29.1562 12.9375 29.125 13.1875 29.0625L14.7656 31.6406C14.4427 31.9219 13.7812 32.0625 12.7812 32.0625C11.9688 32.0625 11.2812 31.7865 10.7188 31.2344C10.4167 30.9323 9.98958 30.3021 9.4375 29.3438C8.96875 28.5208 8.57812 28.1042 8.26562 28.0938C6.33854 28.0417 4.85417 27.6927 3.8125 27.0469C3.15625 26.6406 2.82812 26.0833 2.82812 25.375C2.82812 24.5 3.34896 24.0625 4.39062 24.0625C4.77604 24.0625 5.57812 24.3646 6.79688 24.9688C8.02604 25.5625 9.03646 25.8594 9.82812 25.8594C11.4115 25.8594 12.8958 25.4844 14.2812 24.7344C14.9583 24.3698 15.2969 23.9219 15.2969 23.3906C15.2969 22.599 14.6719 22.2031 13.4219 22.2031C13.0365 22.2031 11.7917 22.4844 9.6875 23.0469C8.44792 23.3802 7.6875 23.5469 7.40625 23.5469C5.75 23.5469 4.38542 22.7656 3.3125 21.2031C2.79167 20.4531 2.53125 19.6458 2.53125 18.7812C2.52083 17.0208 3.72396 15.8333 6.14062 15.2188C7.13021 14.9688 8.0625 14.8438 8.9375 14.8438C9.9375 14.8438 11.3542 15.0885 13.1875 15.5781V12.9219H0.75V11.0469H16.875V12.9219ZM31.9844 12.9219H21.5781V15.4219C21.6198 15.4219 21.6615 15.4427 21.7031 15.4844C21.7448 15.526 21.7812 15.5469 21.8125 15.5469C21.7292 15.5469 21.6823 15.5417 21.6719 15.5312C21.6719 15.4792 22.4479 15.3125 24 15.0312C24.5729 14.9271 25.1406 14.875 25.7031 14.875C28.0469 14.875 29.5521 15.5312 30.2188 16.8438C30.6667 17.7188 30.8906 19.4844 30.8906 22.1406V28.1562C30.6719 28.0729 29.8438 27.7344 28.4062 27.1406C28.4062 26.8073 28.3385 26.5938 28.2031 26.5C27.651 26.8229 27.1979 27.0677 26.8438 27.2344C25.7188 27.7656 24.4115 28.0312 22.9219 28.0312C20.8698 28.0312 19.2865 27.3854 18.1719 26.0938C17.6302 25.4688 17.3594 24.7708 17.3594 24C17.3594 23.1354 17.7865 22.276 18.6406 21.4219C20.2969 19.7656 22.3542 18.9375 24.8125 18.9375C26.3021 18.9375 27.5 19.2812 28.4062 19.9688V18.5312C27.9479 17.9479 27.5 17.5573 27.0625 17.3594C26.6354 17.1615 26.0469 17.0729 25.2969 17.0938C23.6198 17.125 22.0833 17.4323 20.6875 18.0156C20.0625 18.276 19.4531 18.5104 18.8594 18.7188V17.5625C18.9948 17.4479 19.1927 17.276 19.4531 17.0469C19.4948 16.9948 19.5208 16.9635 19.5312 16.9531V12.9219H16.3281V11.0469H31.9844V12.9219ZM28.4062 22.8125C28.4062 22.3542 27.8594 21.9427 26.7656 21.5781C25.8594 21.276 25.1042 21.125 24.5 21.125C22.3021 21.125 20.5417 21.9167 19.2188 23.5C18.6875 24.1354 18.4219 24.6562 18.4219 25.0625C18.6406 25.8229 19.5 26.2031 21 26.2031C22.9375 26.2031 24.7083 25.7188 26.3125 24.75C27.7083 23.9062 28.4062 23.2604 28.4062 22.8125ZM46.5 12.9219H36.25V16.9531C36.8646 16.599 37.8698 16.1354 39.2656 15.5625C39.8385 15.4062 40.5312 15.3281 41.3438 15.3281C42.4583 15.3281 43.4531 15.6354 44.3281 16.25C45.3073 16.9271 45.7969 17.8021 45.7969 18.875C45.7969 20.3229 44.9688 21.375 43.3125 22.0312C42.625 22.3021 42.0312 22.4375 41.5312 22.4375L45.1562 26.8438L43.1719 28.2812L37.5938 21.6562L38.625 19.5156C39.1771 19.6719 39.7552 19.75 40.3594 19.75C41.2448 19.75 41.9688 19.5417 42.5312 19.125C43.1667 18.6667 43.4844 18.0104 43.4844 17.1562C43.4844 16.3229 42.8906 15.9062 41.7031 15.9062C40.8698 15.9062 39.9844 16.3073 39.0469 17.1094C38.3802 17.6823 37.7708 18.375 37.2188 19.1875C36.5521 20.1667 36.2188 21.0052 36.2188 21.7031V28.25L33.5312 27.0469V12.9219H31.5469V11.0469H33.4375C33.4375 8.05729 32.8958 5.57292 31.8125 3.59375C31.6042 3.20833 31.2031 2.63021 30.6094 1.85938C30.0469 1.11979 29.6562 0.53125 29.4375 0.09375H32.6094C33.224 0.666667 33.8594 1.60938 34.5156 2.92188C35.6302 5.15104 36.1875 7.85938 36.1875 11.0469H46.5V12.9219ZM62.1875 12.9219H60.4844V18.8438C59.8698 18.4792 58.9844 18.1667 57.8281 17.9062C56.7448 17.6562 55.8073 17.5312 55.0156 17.5312C53.1094 17.5312 51.5104 17.8698 50.2188 18.5469C49.4896 18.9323 49.125 19.4375 49.125 20.0625C49.125 20.8958 49.5625 21.3125 50.4375 21.3125C50.9688 21.3125 51.6615 21.1562 52.5156 20.8438C53.0677 20.6458 53.776 20.3958 54.6406 20.0938C55.0052 19.9688 55.651 19.9062 56.5781 19.9062C58.3802 19.9062 59.724 20.4635 60.6094 21.5781C61.0365 22.1094 61.25 22.7344 61.25 23.4531C61.25 25.1094 60.2083 26.4115 58.125 27.3594C57.2604 27.7552 56.4375 27.9792 55.6562 28.0312C56.4062 28.7812 57.1198 29.1562 57.7969 29.1562C58.0156 29.1562 58.25 29.125 58.5 29.0625L60.0781 31.6406C59.7552 31.9219 59.0938 32.0625 58.0938 32.0625C57.2812 32.0625 56.5938 31.7865 56.0312 31.2344C55.7292 30.9323 55.3021 30.3021 54.75 29.3438C54.2812 28.5208 53.8906 28.1042 53.5781 28.0938C51.651 28.0417 50.1667 27.6927 49.125 27.0469C48.4688 26.6406 48.1406 26.0833 48.1406 25.375C48.1406 24.5 48.6615 24.0625 49.7031 24.0625C50.0885 24.0625 50.8906 24.3646 52.1094 24.9688C53.3385 25.5625 54.349 25.8594 55.1406 25.8594C56.724 25.8594 58.2083 25.4844 59.5938 24.7344C60.2708 24.3698 60.6094 23.9219 60.6094 23.3906C60.6094 22.599 59.9844 22.2031 58.7344 22.2031C58.349 22.2031 57.1042 22.4844 55 23.0469C53.7604 23.3802 53 23.5469 52.7188 23.5469C51.0625 23.5469 49.6979 22.7656 48.625 21.2031C48.1042 20.4531 47.8438 19.6458 47.8438 18.7812C47.8333 17.0208 49.0365 15.8333 51.4531 15.2188C52.4427 14.9688 53.375 14.8438 54.25 14.8438C55.25 14.8438 56.6667 15.0885 58.5 15.5781V12.9219H46.0625V11.0469H62.1875V12.9219ZM79.1875 12.9219H66.5781V17.625C67.7135 16.3854 68.7656 15.5885 69.7344 15.2344C70.276 15.0365 70.8854 14.9375 71.5625 14.9375C74.1042 14.9375 76.0052 16.1875 77.2656 18.6875C77.8177 19.7812 78.0938 20.8594 78.0938 21.9219C78.0938 23.8594 77.2969 25.6094 75.7031 27.1719C75.1719 27.6927 74.776 28.0521 74.5156 28.25L71.9531 26.7188C72.599 26.0417 73.3333 25.2083 74.1562 24.2188C75.0833 23.1042 75.5521 21.6979 75.5625 20C75.5729 18.9896 75.3438 18.1458 74.875 17.4688C74.3438 16.6771 73.5938 16.2917 72.625 16.3125C71.7292 16.3333 70.7708 16.6719 69.75 17.3281C68.8333 17.9115 68.0729 18.6094 67.4688 19.4219C66.8125 20.2969 66.4844 21.1406 66.4844 21.9531V28.1562L63.5625 26.5938V12.9219H61.8438V11.0469H63.5625C63.5625 7.98438 62.7656 5.36979 61.1719 3.20312C60.2135 1.90104 59.3281 0.984375 58.5156 0.453125L61.6719 0.421875C63.4219 1.38021 64.8125 3.44792 65.8438 6.625C66.3333 8.13542 66.5781 9.60938 66.5781 11.0469H79.1875V12.9219ZM102.844 12.9219H97.6875L97.7188 15.1094C99.1354 15.6302 100.156 16.3125 100.781 17.1562C101.427 18.0312 101.75 19.2135 101.75 20.7031C101.75 22.849 100.891 24.6927 99.1719 26.2344C98.849 26.526 98.3542 26.9062 97.6875 27.375C96.8646 27.9583 96.3438 28.25 96.125 28.25C95.9062 28.25 94.901 27.3333 93.1094 25.5C94.2135 25.4375 95.3646 25.0833 96.5625 24.4375C97.6979 23.8333 98.6615 23.0938 99.4531 22.2188C100.307 21.2812 100.734 20.2865 100.734 19.2344C100.734 18.1927 100.156 17.4688 99 17.0625C98.4375 16.8646 97.8802 16.776 97.3281 16.7969C93.9531 16.9323 91.8854 18.8958 91.125 22.6875L87.9219 21.375C87.9219 20.5 88.2604 19.5208 88.9375 18.4375C89.1875 18.0417 89.3177 17.8177 89.3281 17.7656C89.3281 17.276 88.625 17.0312 87.2188 17.0312C85.4167 17.0312 84.0156 17.8229 83.0156 19.4062C82.5781 20.1042 82.3594 20.8021 82.3594 21.5C82.3594 22.9583 83.0312 24.3385 84.375 25.6406L87.3438 28.5156C85.5312 27.8906 83.849 26.9844 82.2969 25.7969C80.224 24.2135 79.1875 22.5156 79.1875 20.7031C79.1875 18.4115 80.3438 16.7031 82.6562 15.5781C83.6667 15.0885 84.7083 14.8438 85.7812 14.8438C87.1562 14.8438 88.5312 15.2552 89.9062 16.0781C90.4271 16.3906 90.7292 16.5573 90.8125 16.5781C91.6042 16.2344 92.474 15.8646 93.4219 15.4688C93.9219 15.2604 94.4271 15.1198 94.9375 15.0469L94.9688 12.9219H78.7188V11.0469H102.844V12.9219ZM108.516 12.9219H102.5V11.0469H108.516V12.9219ZM107.422 26.9375C107.276 27.0833 106.938 27.3229 106.406 27.6562C105.875 27.9896 105.542 28.1562 105.406 28.1562C105.354 28.1562 105.083 27.9688 104.594 27.5938C104.146 27.25 103.865 27.0208 103.75 26.9062L105.469 25.5312C105.594 25.5312 106.245 26 107.422 26.9375Z" fill="#1E1E1E"/>
<path d="M123.516 12.9219H113.109V15.4219C113.151 15.4219 113.193 15.4427 113.234 15.4844C113.276 15.526 113.312 15.5469 113.344 15.5469C113.26 15.5469 113.214 15.5417 113.203 15.5312C113.203 15.4792 113.979 15.3125 115.531 15.0312C116.104 14.9271 116.672 14.875 117.234 14.875C119.578 14.875 121.083 15.5312 121.75 16.8438C122.198 17.7188 122.422 19.4844 122.422 22.1406V28.1562C122.203 28.0729 121.375 27.7344 119.938 27.1406C119.938 26.8073 119.87 26.5938 119.734 26.5C119.182 26.8229 118.729 27.0677 118.375 27.2344C117.25 27.7656 115.943 28.0312 114.453 28.0312C112.401 28.0312 110.818 27.3854 109.703 26.0938C109.161 25.4688 108.891 24.7708 108.891 24C108.891 23.1354 109.318 22.276 110.172 21.4219C111.828 19.7656 113.885 18.9375 116.344 18.9375C117.833 18.9375 119.031 19.2812 119.938 19.9688V18.5312C119.479 17.9479 119.031 17.5573 118.594 17.3594C118.167 17.1615 117.578 17.0729 116.828 17.0938C115.151 17.125 113.615 17.4323 112.219 18.0156C111.594 18.276 110.984 18.5104 110.391 18.7188V17.5625C110.526 17.4479 110.724 17.276 110.984 17.0469C111.026 16.9948 111.052 16.9635 111.062 16.9531V12.9219H107.859V11.0469H123.516V12.9219ZM119.938 22.8125C119.938 22.3542 119.391 21.9427 118.297 21.5781C117.391 21.276 116.635 21.125 116.031 21.125C113.833 21.125 112.073 21.9167 110.75 23.5C110.219 24.1354 109.953 24.6562 109.953 25.0625C110.172 25.8229 111.031 26.2031 112.531 26.2031C114.469 26.2031 116.24 25.7188 117.844 24.75C119.24 23.9062 119.938 23.2604 119.938 22.8125ZM128.75 9.40625C128.708 9.44792 128.589 9.46875 128.391 9.46875C128.224 9.46875 128.078 9.44792 127.953 9.40625L126.938 7.32812C126.521 6.67188 125.953 6.22917 125.234 6C124.526 5.76042 124.089 5.5 123.922 5.21875C123.766 4.73958 123.464 4.00521 123.016 3.01562V2.65625H123.625C124.427 2.90625 125.078 3.14062 125.578 3.35938C126.401 3.72396 126.953 4.14583 127.234 4.625C127.391 4.88542 127.63 5.55208 127.953 6.625C128.255 7.63542 128.51 8.33854 128.719 8.73438C128.74 8.92188 128.75 9.14583 128.75 9.40625ZM129.672 12.9219H123.312V11.0469H129.672V12.9219ZM127.891 28.3594L125.266 26.9062V14.8438H127.891V28.3594Z" fill="black"/>
</svg>
