<svg width="129" height="41" viewBox="0 0 129 41" fill="none" xmlns="http://www.w3.org/2000/svg">
<path d="M20.8438 16.1523H18.7148V23.5547C17.9466 23.099 16.8398 22.7083 15.3945 22.3828C14.0404 22.0703 12.8685 21.9141 11.8789 21.9141C9.49609 21.9141 7.4974 22.3372 5.88281 23.1836C4.97135 23.6654 4.51562 24.2969 4.51562 25.0781C4.51562 26.1198 5.0625 26.6406 6.15625 26.6406C6.82031 26.6406 7.6862 26.4453 8.75391 26.0547C9.44401 25.8073 10.3294 25.4948 11.4102 25.1172C11.8659 24.9609 12.6732 24.8828 13.832 24.8828C16.0846 24.8828 17.7643 25.5794 18.8711 26.9727C19.4049 27.6367 19.6719 28.418 19.6719 29.3164C19.6719 31.3867 18.3698 33.0143 15.7656 34.1992C14.6849 34.694 13.6562 34.974 12.6797 35.0391C13.6172 35.9766 14.5091 36.4453 15.3555 36.4453C15.6289 36.4453 15.9219 36.4062 16.2344 36.3281L18.207 39.5508C17.8034 39.9023 16.9766 40.0781 15.7266 40.0781C14.7109 40.0781 13.8516 39.7331 13.1484 39.043C12.7708 38.6654 12.237 37.8776 11.5469 36.6797C10.9609 35.651 10.4727 35.1302 10.082 35.1172C7.67318 35.0521 5.81771 34.6159 4.51562 33.8086C3.69531 33.3008 3.28516 32.6042 3.28516 31.7188C3.28516 30.625 3.9362 30.0781 5.23828 30.0781C5.72005 30.0781 6.72266 30.4557 8.24609 31.2109C9.78255 31.9531 11.0456 32.3242 12.0352 32.3242C14.0143 32.3242 15.8698 31.8555 17.6016 30.918C18.4479 30.4622 18.8711 29.9023 18.8711 29.2383C18.8711 28.2487 18.0898 27.7539 16.5273 27.7539C16.0456 27.7539 14.4896 28.1055 11.8594 28.8086C10.3099 29.2253 9.35938 29.4336 9.00781 29.4336C6.9375 29.4336 5.23177 28.457 3.89062 26.5039C3.23958 25.5664 2.91406 24.5573 2.91406 23.4766C2.90104 21.276 4.40495 19.7917 7.42578 19.0234C8.66276 18.7109 9.82812 18.5547 10.9219 18.5547C12.1719 18.5547 13.9427 18.8607 16.2344 19.4727V16.1523H0.6875V13.8086H20.8438V16.1523ZM39.7305 16.1523H26.7227V19.2773C26.7747 19.2773 26.8268 19.3034 26.8789 19.3555C26.931 19.4076 26.9766 19.4336 27.0156 19.4336C26.9115 19.4336 26.8529 19.4271 26.8398 19.4141C26.8398 19.349 27.8099 19.1406 29.75 18.7891C30.4661 18.6589 31.1758 18.5938 31.8789 18.5938C34.8086 18.5938 36.6901 19.4141 37.5234 21.0547C38.0833 22.1484 38.3633 24.3555 38.3633 27.6758V35.1953C38.0898 35.0911 37.0547 34.668 35.2578 33.9258C35.2578 33.5091 35.1732 33.2422 35.0039 33.125C34.3138 33.5286 33.7474 33.8346 33.3047 34.043C31.8984 34.707 30.2643 35.0391 28.4023 35.0391C25.8372 35.0391 23.8581 34.2318 22.4648 32.6172C21.7878 31.8359 21.4492 30.9635 21.4492 30C21.4492 28.9193 21.9831 27.8451 23.0508 26.7773C25.1211 24.707 27.6927 23.6719 30.7656 23.6719C32.6276 23.6719 34.125 24.1016 35.2578 24.9609V23.1641C34.6849 22.4349 34.125 21.9466 33.5781 21.6992C33.0443 21.4518 32.3086 21.3411 31.3711 21.3672C29.2747 21.4062 27.3542 21.7904 25.6094 22.5195C24.8281 22.8451 24.0664 23.138 23.3242 23.3984V21.9531C23.4935 21.8099 23.7409 21.5951 24.0664 21.3086C24.1185 21.2435 24.151 21.2044 24.1641 21.1914V16.1523H20.1602V13.8086H39.7305V16.1523ZM35.2578 28.5156C35.2578 27.9427 34.5742 27.4284 33.207 26.9727C32.0742 26.5951 31.1302 26.4062 30.375 26.4062C27.6276 26.4062 25.4271 27.3958 23.7734 29.375C23.1094 30.1693 22.7773 30.8203 22.7773 31.3281C23.0508 32.2786 24.125 32.7539 26 32.7539C28.4219 32.7539 30.6354 32.1484 32.6406 30.9375C34.3854 29.8828 35.2578 29.0755 35.2578 28.5156ZM57.875 16.1523H45.0625V21.1914C45.8307 20.7487 47.0872 20.1693 48.832 19.4531C49.5482 19.2578 50.4141 19.1602 51.4297 19.1602C52.8229 19.1602 54.0664 19.5443 55.1602 20.3125C56.3841 21.1589 56.9961 22.2526 56.9961 23.5938C56.9961 25.4036 55.9609 26.7188 53.8906 27.5391C53.0312 27.8776 52.2891 28.0469 51.6641 28.0469L56.1953 33.5547L53.7148 35.3516L46.7422 27.0703L48.0312 24.3945C48.7214 24.5898 49.444 24.6875 50.1992 24.6875C51.306 24.6875 52.2109 24.4271 52.9141 23.9062C53.7083 23.3333 54.1055 22.513 54.1055 21.4453C54.1055 20.4036 53.3633 19.8828 51.8789 19.8828C50.8372 19.8828 49.7305 20.3841 48.5586 21.3867C47.7253 22.1029 46.9635 22.9688 46.2734 23.9844C45.4401 25.2083 45.0234 26.2565 45.0234 27.1289V35.3125L41.6641 33.8086V16.1523H39.1836V13.8086H41.5469C41.5469 10.0716 40.8698 6.96615 39.5156 4.49219C39.2552 4.01042 38.7539 3.28776 38.0117 2.32422C37.3086 1.39974 36.8203 0.664062 36.5469 0.117188H40.5117C41.2799 0.833333 42.0742 2.01172 42.8945 3.65234C44.2878 6.4388 44.9844 9.82422 44.9844 13.8086H57.875V16.1523ZM77.4844 16.1523H75.3555V23.5547C74.5872 23.099 73.4805 22.7083 72.0352 22.3828C70.681 22.0703 69.5091 21.9141 68.5195 21.9141C66.1367 21.9141 64.138 22.3372 62.5234 23.1836C61.612 23.6654 61.1562 24.2969 61.1562 25.0781C61.1562 26.1198 61.7031 26.6406 62.7969 26.6406C63.4609 26.6406 64.3268 26.4453 65.3945 26.0547C66.0846 25.8073 66.9701 25.4948 68.0508 25.1172C68.5065 24.9609 69.3138 24.8828 70.4727 24.8828C72.7253 24.8828 74.4049 25.5794 75.5117 26.9727C76.0456 27.6367 76.3125 28.418 76.3125 29.3164C76.3125 31.3867 75.0104 33.0143 72.4062 34.1992C71.3255 34.694 70.2969 34.974 69.3203 35.0391C70.2578 35.9766 71.1497 36.4453 71.9961 36.4453C72.2695 36.4453 72.5625 36.4062 72.875 36.3281L74.8477 39.5508C74.444 39.9023 73.6172 40.0781 72.3672 40.0781C71.3516 40.0781 70.4922 39.7331 69.7891 39.043C69.4115 38.6654 68.8776 37.8776 68.1875 36.6797C67.6016 35.651 67.1133 35.1302 66.7227 35.1172C64.3138 35.0521 62.4583 34.6159 61.1562 33.8086C60.3359 33.3008 59.9258 32.6042 59.9258 31.7188C59.9258 30.625 60.5768 30.0781 61.8789 30.0781C62.3607 30.0781 63.3633 30.4557 64.8867 31.2109C66.4232 31.9531 67.6862 32.3242 68.6758 32.3242C70.6549 32.3242 72.5104 31.8555 74.2422 30.918C75.0885 30.4622 75.5117 29.9023 75.5117 29.2383C75.5117 28.2487 74.7305 27.7539 73.168 27.7539C72.6862 27.7539 71.1302 28.1055 68.5 28.8086C66.9505 29.2253 66 29.4336 65.6484 29.4336C63.5781 29.4336 61.8724 28.457 60.5312 26.5039C59.8802 25.5664 59.5547 24.5573 59.5547 23.4766C59.5417 21.276 61.0456 19.7917 64.0664 19.0234C65.3034 18.7109 66.4688 18.5547 67.5625 18.5547C68.8125 18.5547 70.5833 18.8607 72.875 19.4727V16.1523H57.3281V13.8086H77.4844V16.1523ZM98.7344 16.1523H82.9727V22.0312C84.3919 20.4818 85.707 19.4857 86.918 19.043C87.5951 18.7956 88.3568 18.6719 89.2031 18.6719C92.3802 18.6719 94.7565 20.2344 96.332 23.3594C97.0221 24.7266 97.3672 26.0742 97.3672 27.4023C97.3672 29.8242 96.3711 32.0117 94.3789 33.9648C93.7148 34.6159 93.2201 35.0651 92.8945 35.3125L89.6914 33.3984C90.4987 32.5521 91.4167 31.5104 92.4453 30.2734C93.6042 28.8802 94.1901 27.1224 94.2031 25C94.2161 23.737 93.9297 22.6823 93.3438 21.8359C92.6797 20.8464 91.7422 20.3646 90.5312 20.3906C89.4115 20.4167 88.2135 20.8398 86.9375 21.6602C85.7917 22.3893 84.8411 23.2617 84.0859 24.2773C83.2656 25.3711 82.8555 26.4258 82.8555 27.4414V35.1953L79.2031 33.2422V16.1523H77.0547V13.8086H79.2031C79.2031 9.98047 78.207 6.71224 76.2148 4.00391C75.0169 2.3763 73.9102 1.23047 72.8945 0.566406L76.8398 0.527344C79.0273 1.72526 80.7656 4.3099 82.0547 8.28125C82.6667 10.1693 82.9727 12.0117 82.9727 13.8086H98.7344V16.1523ZM128.305 16.1523H121.859L121.898 18.8867C123.669 19.5378 124.945 20.3906 125.727 21.4453C126.534 22.5391 126.938 24.0169 126.938 25.8789C126.938 28.5612 125.863 30.8659 123.715 32.793C123.311 33.1576 122.693 33.6328 121.859 34.2188C120.831 34.9479 120.18 35.3125 119.906 35.3125C119.633 35.3125 118.376 34.1667 116.137 31.875C117.517 31.7969 118.956 31.3542 120.453 30.5469C121.872 29.7917 123.077 28.8672 124.066 27.7734C125.134 26.6016 125.668 25.3581 125.668 24.043C125.668 22.7409 124.945 21.8359 123.5 21.3281C122.797 21.0807 122.1 20.9701 121.41 20.9961C117.191 21.1654 114.607 23.6198 113.656 28.3594L109.652 26.7188C109.652 25.625 110.076 24.401 110.922 23.0469C111.234 22.5521 111.397 22.2721 111.41 22.207C111.41 21.5951 110.531 21.2891 108.773 21.2891C106.521 21.2891 104.77 22.2786 103.52 24.2578C102.973 25.1302 102.699 26.0026 102.699 26.875C102.699 28.6979 103.539 30.4232 105.219 32.0508L108.93 35.6445C106.664 34.8633 104.561 33.7305 102.621 32.2461C100.03 30.2669 98.7344 28.1445 98.7344 25.8789C98.7344 23.0143 100.18 20.8789 103.07 19.4727C104.333 18.8607 105.635 18.5547 106.977 18.5547C108.695 18.5547 110.414 19.069 112.133 20.0977C112.784 20.4883 113.161 20.6966 113.266 20.7227C114.255 20.293 115.342 19.8307 116.527 19.3359C117.152 19.0755 117.784 18.8997 118.422 18.8086L118.461 16.1523H98.1484V13.8086H128.305V16.1523Z" fill="#1E1E1E"/>
</svg>
