<svg width="222" height="222" viewBox="0 0 222 222" fill="none" xmlns="http://www.w3.org/2000/svg">
<path d="M135.535 62.9149C135.597 62.9149 135.642 63.1679 135.633 63.4743C135.624 63.7807 135.566 64.0249 135.5 64.0249C135.433 64.0249 135.393 63.7762 135.402 63.4654C135.411 63.1546 135.469 62.9104 135.535 62.9149Z" fill="#E0E0E0"/>
<path d="M136.383 58.6036C136.445 58.6258 136.321 59.1009 136.166 59.6825C136.006 60.2642 135.868 60.7393 135.806 60.7259C135.744 60.7171 135.779 60.2153 135.944 59.6204C136.104 59.0254 136.326 58.577 136.388 58.5992L136.383 58.6036Z" fill="#E0E0E0"/>
<path d="M138.541 54.7897C138.59 54.8297 138.315 55.2382 137.973 55.7354C137.631 56.2327 137.351 56.6368 137.293 56.6057C137.24 56.5746 137.431 56.1128 137.782 55.6067C138.128 55.1005 138.492 54.7498 138.537 54.7897H138.541Z" fill="#E0E0E0"/>
<path d="M141.822 51.8725C141.858 51.9258 141.471 52.2366 140.992 52.6007C140.512 52.9648 140.113 53.2534 140.068 53.2045C140.024 53.1601 140.361 52.7872 140.85 52.4142C141.338 52.0412 141.787 51.8148 141.818 51.8681L141.822 51.8725Z" fill="#E0E0E0"/>
<path d="M145.747 49.879C145.769 49.9367 145.339 50.1853 144.788 50.4295C144.233 50.6737 143.763 50.8291 143.736 50.7714C143.705 50.7137 144.136 50.4695 144.695 50.2209C145.254 49.9722 145.725 49.8213 145.747 49.879Z" fill="#E0E0E0"/>
<path d="M149.956 48.5915C149.97 48.6537 149.508 48.8313 148.922 48.9867C148.336 49.1421 147.847 49.222 147.83 49.1599C147.812 49.0977 148.274 48.9201 148.864 48.7647C149.455 48.6049 149.943 48.5294 149.956 48.5915Z" fill="#E0E0E0"/>
<path d="M154.286 47.7745C154.295 47.8366 153.819 47.9698 153.22 48.0719C152.621 48.1741 152.128 48.2007 152.115 48.1385C152.101 48.0764 152.581 47.9432 153.18 47.8411C153.78 47.7389 154.277 47.7079 154.286 47.7745Z" fill="#E0E0E0"/>
<path d="M158.668 47.3394C158.668 47.4015 158.179 47.4859 157.575 47.5259C156.972 47.5658 156.474 47.5436 156.47 47.4815C156.461 47.4193 156.949 47.3349 157.562 47.295C158.17 47.255 158.668 47.2772 158.668 47.3394Z" fill="#E0E0E0"/>
<path d="M163.059 47.6279C163.05 47.69 162.553 47.69 161.954 47.6234C161.354 47.5568 160.866 47.4503 160.87 47.3881C160.87 47.326 161.367 47.326 161.976 47.3926C162.584 47.4592 163.068 47.5657 163.059 47.6279Z" fill="#E0E0E0"/>
<path d="M167.33 48.6846C167.308 48.7468 166.819 48.6536 166.242 48.4848C165.661 48.3117 165.203 48.1252 165.217 48.063C165.23 48.0009 165.718 48.0897 166.304 48.2628C166.89 48.436 167.348 48.6269 167.326 48.6846H167.33Z" fill="#E0E0E0"/>
<path d="M171.326 50.5184C171.295 50.5716 170.834 50.394 170.296 50.1143C169.759 49.8346 169.346 49.5638 169.373 49.506C169.399 49.4483 169.861 49.6304 170.403 49.9101C170.945 50.1898 171.357 50.4651 171.326 50.5184Z" fill="#E0E0E0"/>
<path d="M174.865 53.1291C174.821 53.1779 174.43 52.8805 173.964 52.4942C173.498 52.1079 173.129 51.7793 173.169 51.7261C173.205 51.6728 173.64 51.9259 174.11 52.3121C174.581 52.7029 174.909 53.0803 174.865 53.1247V53.1291Z" fill="#E0E0E0"/>
<path d="M177.72 56.4679C177.667 56.5035 177.356 56.1216 176.987 55.6421C176.623 55.1581 176.339 54.7541 176.388 54.7141C176.437 54.6742 176.801 55.0116 177.169 55.5045C177.538 55.9929 177.769 56.4369 177.715 56.4724L177.72 56.4679Z" fill="#E0E0E0"/>
<path d="M179.74 60.3753C179.678 60.3975 179.46 59.9579 179.212 59.4029C178.967 58.8523 178.781 58.395 178.839 58.3639C178.896 58.3329 179.172 58.7502 179.42 59.3097C179.669 59.8691 179.793 60.3531 179.736 60.3753H179.74Z" fill="#E0E0E0"/>
<path d="M180.819 64.6332C180.757 64.6421 180.646 64.1626 180.53 63.5676C180.415 62.9727 180.34 62.4887 180.402 62.4709C180.464 62.4532 180.641 62.9238 180.757 63.5232C180.872 64.1226 180.881 64.6244 180.819 64.6332Z" fill="#E0E0E0"/>
<path d="M180.837 69.0288C180.775 69.0199 180.788 68.5271 180.823 67.9277C180.859 67.3239 180.903 66.8354 180.97 66.8354C181.032 66.8354 181.094 67.3327 181.054 67.9454C181.019 68.5582 180.899 69.0421 180.837 69.0332V69.0288Z" fill="#E0E0E0"/>
<path d="M179.664 73.26C179.607 73.2334 179.74 72.7583 179.962 72.1989C180.157 71.6305 180.339 71.1688 180.406 71.1865C180.464 71.1999 180.379 71.6927 180.179 72.2743C179.953 72.8471 179.722 73.2866 179.664 73.26Z" fill="#E0E0E0"/>
<path d="M177.271 76.9364C177.223 76.892 177.516 76.4969 177.884 76.0174C178.253 75.5378 178.559 75.156 178.612 75.1871C178.666 75.2226 178.444 75.671 178.066 76.155C177.693 76.6434 177.316 76.972 177.271 76.932V76.9364Z" fill="#E0E0E0"/>
<path d="M173.83 79.6581C173.799 79.6003 174.212 79.3295 174.714 78.9965C175.216 78.6635 175.628 78.3927 175.668 78.4459C175.708 78.4948 175.353 78.85 174.843 79.1919C174.328 79.5337 173.861 79.7158 173.835 79.6581H173.83Z" fill="#E0E0E0"/>
<path d="M169.63 80.8614C169.63 80.7948 170.114 80.7282 170.704 80.6261C171.295 80.524 171.779 80.4308 171.797 80.4929C171.814 80.5506 171.353 80.7505 170.744 80.8526C170.136 80.9591 169.634 80.9236 169.63 80.8614Z" fill="#E0E0E0"/>
<path d="M165.381 79.9245C165.412 79.8668 165.865 80.0577 166.429 80.2664C166.988 80.4751 167.459 80.626 167.445 80.6882C167.432 80.7503 166.93 80.6971 166.349 80.4795C165.767 80.2664 165.354 79.9778 165.385 79.9245H165.381Z" fill="#E0E0E0"/>
<path d="M162.086 77.0519C162.14 77.0164 162.459 77.3893 162.863 77.8333C163.267 78.2773 163.605 78.6326 163.565 78.6814C163.525 78.7302 163.108 78.4461 162.695 77.9887C162.277 77.5314 162.038 77.0874 162.091 77.0519H162.086Z" fill="#E0E0E0"/>
<path d="M160.626 72.9583C160.692 72.9583 160.75 73.4422 160.87 74.0283C160.99 74.6144 161.119 75.085 161.057 75.1116C160.999 75.1338 160.763 74.6854 160.644 74.0771C160.519 73.4688 160.564 72.9627 160.626 72.9627V72.9583Z" fill="#E0E0E0"/>
<path d="M161.936 68.8422C161.989 68.8822 161.731 69.2995 161.461 69.8323C161.185 70.3607 160.994 70.8136 160.932 70.7914C160.875 70.7736 160.968 70.2763 161.256 69.7258C161.541 69.1752 161.891 68.8067 161.94 68.8422H161.936Z" fill="#E0E0E0"/>
<path d="M165.332 66.0983C165.359 66.1561 164.941 66.4136 164.431 66.7288C163.92 67.0441 163.512 67.3149 163.467 67.2616C163.427 67.2128 163.783 66.8576 164.307 66.5335C164.83 66.2093 165.306 66.0406 165.332 66.0983Z" fill="#E0E0E0"/>
<path d="M169.532 64.8285C169.541 64.8906 169.062 65.0105 168.476 65.1393C167.885 65.268 167.406 65.3657 167.383 65.3036C167.366 65.2458 167.823 65.046 168.427 64.9128C169.026 64.7796 169.528 64.7663 169.537 64.8285H169.532Z" fill="#E0E0E0"/>
<path d="M173.928 64.7309C173.923 64.793 173.426 64.8286 172.822 64.8064C172.218 64.7842 171.726 64.7131 171.726 64.651C171.726 64.5888 172.218 64.5533 172.831 64.5755C173.444 64.5977 173.932 64.6687 173.928 64.7309Z" fill="#E0E0E0"/>
<path d="M178.239 65.601C178.217 65.6632 177.738 65.5566 177.152 65.4056C176.565 65.2547 176.095 65.1126 176.108 65.046C176.122 64.9838 176.619 65.0282 177.209 65.1792C177.804 65.3346 178.257 65.5388 178.239 65.5966V65.601Z" fill="#E0E0E0"/>
<path d="M182.227 67.4438C182.191 67.4971 181.752 67.2795 181.219 66.9909C180.686 66.7023 180.264 66.4581 180.291 66.396C180.317 66.3382 180.792 66.4936 181.33 66.7867C181.871 67.0753 182.262 67.3905 182.227 67.4438Z" fill="#E0E0E0"/>
<path d="M185.592 70.2632C185.543 70.3031 185.161 69.9923 184.735 69.5661C184.317 69.1265 183.967 68.7891 184.011 68.7314C184.047 68.687 184.473 68.9534 184.895 69.3974C185.33 69.8325 185.641 70.2188 185.592 70.2587V70.2632Z" fill="#E0E0E0"/>
<path d="M188.052 73.8995C187.994 73.9261 187.732 73.5087 187.43 72.9893C187.128 72.4653 186.893 72.0347 186.946 71.9991C186.999 71.9636 187.323 72.341 187.63 72.8738C187.936 73.4022 188.109 73.8728 188.052 73.8995Z" fill="#E0E0E0"/>
<path d="M189.521 78.042C189.459 78.0553 189.299 77.5891 189.135 77.0074C188.966 76.4258 188.851 75.9507 188.909 75.9285C188.966 75.9063 189.188 76.3548 189.357 76.9453C189.53 77.5314 189.583 78.0286 189.521 78.042Z" fill="#E0E0E0"/>
<path d="M190.072 82.4066C190.009 82.4066 189.916 81.9182 189.872 81.3188C189.827 80.715 189.841 80.2221 189.903 80.2133C189.965 80.2044 190.054 80.6928 190.103 81.3011C190.152 81.9093 190.134 82.4066 190.072 82.4066Z" fill="#E0E0E0"/>
<path d="M189.814 86.7976C189.752 86.7887 189.752 86.2914 189.814 85.692C189.876 85.0882 189.978 84.6042 190.041 84.6087C190.103 84.6087 190.107 85.106 190.041 85.7142C189.978 86.3225 189.876 86.8065 189.814 86.7976Z" fill="#E0E0E0"/>
<path d="M188.82 91.0867C188.758 91.0645 188.842 90.5761 189.002 89.9945C189.162 89.4128 189.344 88.9511 189.406 88.9644C189.468 88.9777 189.388 89.4661 189.224 90.0566C189.06 90.6472 188.878 91.1089 188.82 91.0867Z" fill="#E0E0E0"/>
<path d="M187.124 95.1449C187.066 95.1138 187.235 94.6476 187.497 94.1059C187.759 93.5598 187.989 93.1247 188.052 93.1513C188.105 93.1735 187.972 93.653 187.705 94.2036C187.439 94.7541 187.177 95.1759 187.124 95.1449Z" fill="#E0E0E0"/>
<path d="M184.886 98.9366C184.833 98.901 185.055 98.457 185.379 97.9464C185.703 97.4358 186.009 97.0451 186.067 97.0762C186.125 97.1073 185.903 97.5513 185.574 98.0708C185.25 98.5858 184.939 98.9765 184.886 98.941V98.9366Z" fill="#E0E0E0"/>
<path d="M182.244 102.457C182.195 102.417 182.462 101.996 182.835 101.521C183.212 101.046 183.554 100.69 183.607 100.726C183.66 100.766 183.394 101.183 183.017 101.663C182.639 102.142 182.293 102.497 182.244 102.457Z" fill="#E0E0E0"/>
<path d="M179.314 105.743C179.27 105.699 179.567 105.304 179.976 104.855C180.388 104.411 180.761 104.083 180.81 104.127C180.859 104.171 180.562 104.567 180.149 105.015C179.736 105.464 179.363 105.788 179.314 105.743Z" fill="#E0E0E0"/>
<path d="M176.183 108.847C176.139 108.802 176.459 108.42 176.894 107.999C177.329 107.577 177.72 107.27 177.768 107.315C177.813 107.359 177.493 107.741 177.058 108.163C176.618 108.585 176.228 108.891 176.183 108.847Z" fill="#E0E0E0"/>
<path d="M172.934 111.817C172.889 111.768 173.222 111.4 173.675 110.996C174.128 110.587 174.528 110.298 174.572 110.343C174.616 110.392 174.283 110.76 173.831 111.164C173.378 111.573 172.978 111.866 172.934 111.817Z" fill="#E0E0E0"/>
<path d="M170.452 114.01C170.412 113.961 170.563 113.757 170.794 113.557C171.024 113.353 171.246 113.229 171.286 113.278C171.326 113.327 171.175 113.531 170.945 113.731C170.714 113.935 170.492 114.059 170.452 114.01Z" fill="#E0E0E0"/>
<path d="M42.4462 104.731C42.4995 104.695 42.6771 104.877 42.8414 105.135C43.0057 105.392 43.0945 105.628 43.0412 105.663C42.9879 105.699 42.8103 105.517 42.646 105.259C42.4817 105.002 42.3885 104.762 42.4418 104.731H42.4462Z" fill="#E0E0E0"/>
<path d="M40.2839 100.841C40.3416 100.815 40.6169 101.232 40.9011 101.774C41.1852 102.315 41.3717 102.782 41.314 102.813C41.2563 102.844 40.981 102.426 40.6968 101.88C40.4127 101.334 40.2262 100.868 40.2839 100.841Z" fill="#E0E0E0"/>
<path d="M38.5127 96.7608C38.5704 96.7386 38.8057 97.1826 39.0366 97.7465C39.2675 98.3148 39.4051 98.7943 39.3474 98.821C39.2897 98.8476 39.0543 98.4036 38.8235 97.8353C38.5926 97.2625 38.4549 96.783 38.5127 96.7608Z" fill="#E0E0E0"/>
<path d="M37.1536 92.5251C37.2158 92.5074 37.4067 92.9736 37.5754 93.5597C37.7486 94.1458 37.8374 94.6386 37.7752 94.6608C37.7131 94.6785 37.5266 94.2168 37.3534 93.6263C37.1802 93.0357 37.0915 92.5429 37.1536 92.5251Z" fill="#E0E0E0"/>
<path d="M36.2349 88.1739C36.297 88.1651 36.4391 88.6446 36.5501 89.2484C36.6611 89.8523 36.7011 90.3496 36.6389 90.3629C36.5768 90.3762 36.4347 89.8967 36.3237 89.2884C36.2127 88.6846 36.1727 88.1828 36.2349 88.1739Z" fill="#E0E0E0"/>
<path d="M35.7774 83.7471C35.8396 83.7471 35.9328 84.2355 35.9772 84.8482C36.0216 85.4609 36.0083 85.9582 35.9461 85.9671C35.884 85.976 35.7952 85.4831 35.7463 84.866C35.6975 84.2532 35.7153 83.7515 35.7774 83.7471Z" fill="#E0E0E0"/>
<path d="M35.8085 79.2984C35.8707 79.2984 35.9062 79.8045 35.884 80.4128C35.8618 81.0255 35.7952 81.5228 35.7286 81.5184C35.6664 81.5184 35.6309 81.0166 35.6531 80.4039C35.6753 79.7868 35.7419 79.2939 35.8085 79.2984Z" fill="#E0E0E0"/>
<path d="M36.35 74.8849C36.4122 74.8982 36.39 75.3955 36.2967 76.0038C36.2035 76.6076 36.0792 77.0916 36.0126 77.0871C35.9504 77.0782 35.9726 76.581 36.0659 75.9682C36.1591 75.36 36.2834 74.876 36.35 74.8849Z" fill="#E0E0E0"/>
<path d="M37.4245 70.5694C37.4867 70.5871 37.4023 71.0844 37.2336 71.6705C37.0693 72.261 36.8829 72.7272 36.8207 72.7094C36.7585 72.6961 36.8429 72.1988 37.0116 71.6083C37.1803 71.0134 37.3624 70.5472 37.4245 70.5694Z" fill="#E0E0E0"/>
<path d="M39.0143 66.4135C39.072 66.4401 38.93 66.9197 38.6902 67.4835C38.4549 68.0474 38.2151 68.487 38.153 68.4648C38.0952 68.4426 38.2373 67.9631 38.4771 67.3947C38.7169 66.8264 38.9566 66.3869 39.0143 66.4135Z" fill="#E0E0E0"/>
<path d="M41.0964 62.4797C41.1496 62.5152 40.9498 62.9725 40.6479 63.5053C40.346 64.0381 40.053 64.4466 39.9997 64.4155C39.942 64.3845 40.1418 63.9271 40.4481 63.3899C40.7545 62.8527 41.0431 62.4442 41.0964 62.4797Z" fill="#E0E0E0"/>
<path d="M43.632 58.8298C43.6808 58.8698 43.4277 59.3005 43.0636 59.7933C42.6996 60.2862 42.3621 60.6547 42.3088 60.6192C42.2556 60.5836 42.5086 60.153 42.8772 59.6557C43.2457 59.1628 43.5831 58.7899 43.632 58.8298Z" fill="#E0E0E0"/>
<path d="M46.5975 55.5176C46.6419 55.562 46.3356 55.9616 45.9138 56.4011C45.492 56.8451 45.1101 57.1692 45.0613 57.1248C45.0124 57.0804 45.3188 56.6853 45.745 56.2413C46.1713 55.7928 46.5531 55.4687 46.5975 55.5176Z" fill="#E0E0E0"/>
<path d="M49.9632 52.6094C50.0031 52.6627 49.6479 53.0134 49.1729 53.3997C48.6978 53.786 48.276 54.0568 48.236 54.008C48.1961 53.9591 48.5468 53.6084 49.0263 53.2177C49.5059 52.8314 49.9232 52.5561 49.9632 52.6094Z" fill="#E0E0E0"/>
<path d="M53.6793 50.172C53.7104 50.2297 53.3108 50.5316 52.7913 50.8469C52.2674 51.1665 51.819 51.3797 51.7834 51.3264C51.7479 51.2731 52.1475 50.9712 52.6714 50.6515C53.1998 50.3318 53.6482 50.1187 53.6793 50.172Z" fill="#E0E0E0"/>
<path d="M57.6979 48.2672C57.7201 48.3249 57.2849 48.5735 56.7211 48.8133C56.1572 49.0575 55.6821 49.204 55.6555 49.1463C55.6288 49.0886 56.0639 48.8444 56.6323 48.6002C57.2006 48.356 57.6757 48.205 57.6979 48.2672Z" fill="#E0E0E0"/>
<path d="M61.9424 46.9353C61.9557 46.9974 61.4895 47.1795 60.899 47.3437C60.3085 47.508 59.8156 47.5879 59.7979 47.5302C59.7801 47.4725 60.2463 47.286 60.8413 47.1217C61.4362 46.9575 61.9291 46.8731 61.9424 46.9353Z" fill="#E0E0E0"/>
<path d="M66.3202 46.1848C66.3246 46.2469 65.8407 46.3668 65.2368 46.4512C64.633 46.5356 64.1313 46.5533 64.1179 46.4911C64.1046 46.429 64.593 46.3091 65.2013 46.2248C65.8096 46.1404 66.3113 46.1226 66.3157 46.1848H66.3202Z" fill="#E0E0E0"/>
<path d="M70.7645 46.0072C70.7645 46.0694 70.2628 46.1271 69.6545 46.1315C69.0418 46.1315 68.5445 46.0871 68.54 46.025C68.54 45.9628 69.0329 45.9051 69.65 45.9006C70.2672 45.9006 70.7645 45.945 70.7645 46.0072Z" fill="#E0E0E0"/>
<path d="M75.1911 46.4157C75.1822 46.4778 74.6805 46.469 74.0722 46.3935C73.4639 46.318 72.98 46.2026 72.9844 46.1404C72.9888 46.0782 73.4906 46.0871 74.1033 46.167C74.716 46.2425 75.2044 46.358 75.1911 46.4201V46.4157Z" fill="#E0E0E0"/>
<path d="M79.5247 47.4191C79.507 47.4813 79.0097 47.4013 78.4192 47.2415C77.8286 47.0817 77.3624 46.9041 77.3758 46.8419C77.3891 46.7797 77.8819 46.8597 78.4813 47.0195C79.0763 47.1793 79.5469 47.3569 79.5247 47.4191Z" fill="#E0E0E0"/>
<path d="M83.6672 49.0264C83.6406 49.0842 83.1611 48.9332 82.6016 48.6934C82.0378 48.4537 81.6026 48.2095 81.6248 48.1473C81.647 48.0896 82.1266 48.2361 82.6904 48.4803C83.2588 48.7245 83.6939 48.9687 83.6672 49.0264Z" fill="#E0E0E0"/>
<path d="M87.5344 51.2241C87.4988 51.2774 87.0504 51.0598 86.5265 50.7357C86.007 50.4116 85.6118 50.1052 85.6385 50.052C85.674 49.9898 86.1224 50.2118 86.6464 50.5359C87.1703 50.86 87.5654 51.1664 87.5299 51.2197L87.5344 51.2241Z" fill="#E0E0E0"/>
<path d="M91.0552 53.9371C91.0108 53.9859 90.5935 53.7062 90.1228 53.3199C89.6522 52.9292 89.3014 52.574 89.3369 52.5251C89.3725 52.4763 89.7943 52.7516 90.2693 53.1423C90.7444 53.533 91.0952 53.8927 91.0552 53.9371Z" fill="#E0E0E0"/>
<path d="M94.2168 57.0672C94.1679 57.1116 93.7861 56.783 93.3643 56.3434C92.9425 55.8994 92.6361 55.5043 92.6805 55.4599C92.7249 55.4155 93.1068 55.7396 93.533 56.1836C93.9593 56.632 94.2656 57.0272 94.2168 57.0672Z" fill="#E0E0E0"/>
<path d="M97.0227 60.5215C96.9694 60.557 96.6275 60.1974 96.2501 59.7134C95.8771 59.2295 95.6107 58.8032 95.664 58.7633C95.7129 58.7233 96.0592 59.0874 96.4366 59.5758C96.814 60.0642 97.0759 60.4904 97.0227 60.5259V60.5215Z" fill="#E0E0E0"/>
<path d="M99.4912 64.2202C99.438 64.2512 99.1272 63.8605 98.7942 63.3455C98.4656 62.8304 98.2392 62.382 98.2924 62.3465C98.3457 62.311 98.6565 62.7017 98.9895 63.2212C99.3225 63.7406 99.5445 64.1891 99.4912 64.2202Z" fill="#E0E0E0"/>
<path d="M101.663 68.1006C101.605 68.1317 101.325 67.7143 101.037 67.1726C100.748 66.631 100.557 66.1692 100.615 66.1381C100.673 66.107 100.952 66.52 101.241 67.0661C101.529 67.6078 101.72 68.074 101.663 68.1006Z" fill="#E0E0E0"/>
<path d="M103.115 71.111C103.057 71.1376 102.906 70.9334 102.777 70.6581C102.648 70.3784 102.591 70.1342 102.648 70.1076C102.706 70.0809 102.857 70.2852 102.986 70.5649C103.115 70.8446 103.172 71.0888 103.115 71.1154V71.111Z" fill="#E0E0E0"/>
<path d="M48.6933 124.844C48.6666 124.786 48.8709 124.635 49.1506 124.511C49.4303 124.382 49.6789 124.329 49.7056 124.387C49.7278 124.444 49.5235 124.595 49.2483 124.72C48.973 124.844 48.7243 124.902 48.6933 124.844Z" fill="#E0E0E0"/>
<path d="M45.0701 127.246C45.0302 127.197 45.3632 126.838 45.8471 126.473C46.3311 126.109 46.7707 125.883 46.8062 125.936C46.8417 125.989 46.4643 126.296 45.9892 126.66C45.5141 127.02 45.1145 127.299 45.0701 127.25V127.246Z" fill="#E0E0E0"/>
<path d="M42.1175 130.429C42.0642 130.394 42.3351 129.985 42.7214 129.519C43.1076 129.053 43.4584 128.711 43.5028 128.756C43.5472 128.8 43.2808 129.208 42.899 129.666C42.5171 130.128 42.1664 130.469 42.1175 130.429Z" fill="#E0E0E0"/>
<path d="M39.9201 134.177C39.8623 134.15 40.0399 133.693 40.3197 133.16C40.5994 132.623 40.8702 132.214 40.9235 132.246C40.9768 132.277 40.7992 132.734 40.5239 133.267C40.2486 133.795 39.9778 134.204 39.9201 134.177Z" fill="#E0E0E0"/>
<path d="M38.5347 138.297C38.4726 138.284 38.5525 137.8 38.7168 137.218C38.881 136.637 39.0631 136.179 39.1208 136.201C39.183 136.224 39.0986 136.703 38.9388 137.28C38.7789 137.853 38.5969 138.31 38.5347 138.297Z" fill="#E0E0E0"/>
<path d="M38.0239 142.613C37.9618 142.613 37.9396 142.125 37.9795 141.521C38.0195 140.917 38.0994 140.433 38.166 140.442C38.2282 140.451 38.2504 140.939 38.2104 141.534C38.1705 142.129 38.0905 142.613 38.0239 142.613Z" fill="#E0E0E0"/>
<path d="M38.4722 146.933C38.4101 146.946 38.2502 146.48 38.1526 145.885C38.0549 145.286 38.0593 144.793 38.1215 144.789C38.1881 144.784 38.2813 145.259 38.379 145.85C38.4722 146.44 38.5344 146.924 38.4722 146.938V146.933Z" fill="#E0E0E0"/>
<path d="M39.9286 151.027C39.8709 151.053 39.6045 150.64 39.3692 150.085C39.1339 149.53 39.0184 149.046 39.0806 149.029C39.1428 149.006 39.347 149.446 39.5823 149.997C39.8132 150.547 39.9864 151 39.9286 151.031V151.027Z" fill="#E0E0E0"/>
<path d="M42.2772 154.681C42.2284 154.721 41.8998 154.357 41.5491 153.868C41.1939 153.375 40.9541 152.954 41.0074 152.918C41.0607 152.883 41.3892 153.247 41.74 153.735C42.0908 154.219 42.3305 154.645 42.2817 154.685L42.2772 154.681Z" fill="#E0E0E0"/>
<path d="M45.3323 157.771C45.2924 157.82 44.8972 157.531 44.4532 157.123C44.0048 156.714 43.6806 156.346 43.7295 156.301C43.7739 156.257 44.169 156.546 44.6086 156.95C45.0482 157.354 45.3723 157.718 45.3323 157.771Z" fill="#E0E0E0"/>
<path d="M48.9329 160.213C48.9018 160.271 48.4578 160.058 47.9428 159.747C47.4278 159.432 47.037 159.134 47.0726 159.081C47.1081 159.028 47.5521 159.236 48.0627 159.547C48.5733 159.858 48.9596 160.155 48.9329 160.213Z" fill="#E0E0E0"/>
<path d="M52.9244 161.931C52.9066 161.993 52.4315 161.869 51.8632 161.656C51.2993 161.443 50.8598 161.225 50.8864 161.163C50.913 161.105 51.3881 161.225 51.9476 161.438C52.507 161.647 52.9466 161.869 52.9244 161.931Z" fill="#E0E0E0"/>
<path d="M57.1738 162.855C57.1649 162.917 56.6765 162.89 56.0816 162.793C55.4866 162.695 55.0115 162.562 55.0293 162.5C55.0426 162.438 55.531 162.464 56.1215 162.562C56.7121 162.66 57.1827 162.788 57.1738 162.855Z" fill="#E0E0E0"/>
<path d="M61.5203 162.895C61.5292 162.957 61.0452 163.033 60.4414 163.059C59.8375 163.086 59.3491 163.059 59.3491 162.993C59.3491 162.93 59.8331 162.855 60.4325 162.828C61.0274 162.802 61.5158 162.828 61.5247 162.895H61.5203Z" fill="#E0E0E0"/>
<path d="M65.7738 162.016C65.7916 162.078 65.3343 162.251 64.7482 162.402C64.1621 162.553 63.6782 162.628 63.6648 162.566C63.6515 162.504 64.1088 162.331 64.6905 162.18C65.2677 162.029 65.7516 161.958 65.7738 162.016Z" fill="#E0E0E0"/>
<path d="M69.7742 160.311C69.8053 160.369 69.3879 160.626 68.8462 160.888C68.3001 161.15 67.8428 161.319 67.8161 161.257C67.7895 161.194 68.2069 160.937 68.7441 160.679C69.2813 160.417 69.7431 160.253 69.7742 160.311Z" fill="#E0E0E0"/>
<path d="M73.3929 157.9C73.4329 157.949 73.0688 158.277 72.5848 158.637C72.0964 158.992 71.6746 159.241 71.6391 159.187C71.6036 159.134 71.9677 158.806 72.4472 158.45C72.9311 158.095 73.353 157.851 73.3929 157.9Z" fill="#E0E0E0"/>
<path d="M76.5363 154.898C76.5852 154.938 76.2833 155.329 75.8659 155.764C75.4485 156.199 75.0711 156.515 75.0312 156.47C74.9868 156.426 75.2887 156.035 75.7016 155.604C76.1145 155.174 76.4919 154.858 76.5363 154.898Z" fill="#E0E0E0"/>
<path d="M79.1162 151.395C79.1695 151.426 78.943 151.861 78.6056 152.363C78.2682 152.865 77.9529 153.242 77.9041 153.202C77.8552 153.162 78.0817 152.732 78.4147 152.234C78.7477 151.737 79.0629 151.364 79.1162 151.395Z" fill="#E0E0E0"/>
<path d="M81.0432 147.497C81.101 147.519 80.9544 147.985 80.7102 148.54C80.466 149.095 80.2218 149.517 80.1686 149.49C80.1108 149.464 80.2618 148.993 80.5016 148.447C80.7413 147.901 80.9855 147.475 81.0432 147.497Z" fill="#E0E0E0"/>
<path d="M82.0022 144.358C82.0643 144.371 82.0554 144.624 81.9755 144.926C81.9 145.224 81.789 145.454 81.7269 145.437C81.6647 145.419 81.678 145.166 81.7535 144.868C81.829 144.575 81.94 144.344 82.0022 144.358Z" fill="#E0E0E0"/>
<path d="M127.29 15.8429L107.436 21.1739C106.666 21.3806 106.21 22.172 106.417 22.9417L110.103 36.6723C110.31 37.4419 111.102 37.8984 111.871 37.6917L131.725 32.3607C132.495 32.154 132.951 31.3625 132.745 30.5929L129.058 16.8623C128.851 16.0926 128.06 15.6362 127.29 15.8429Z" fill="#F5F5F5"/>
<path d="M128.183 17.5869C128.183 17.5869 128.138 17.6713 128.036 17.8178L127.588 18.4483C127.17 19.0166 126.598 19.7936 125.896 20.7482C125.172 21.7206 124.316 22.8705 123.365 24.1404C122.886 24.7797 122.384 25.4457 121.865 26.1384C121.603 26.4847 121.336 26.8354 121.07 27.1951C120.786 27.5725 120.373 27.8611 119.902 27.9898C119.436 28.123 118.934 28.0964 118.495 27.9232C118.082 27.7456 117.673 27.5725 117.274 27.4038C116.479 27.0619 115.711 26.7333 114.978 26.4181C113.522 25.7876 112.208 25.2193 111.093 24.7353C110.01 24.2558 109.126 23.8651 108.483 23.5809C108.194 23.4477 107.963 23.3412 107.777 23.2568C107.617 23.1813 107.532 23.1369 107.537 23.128C107.537 23.1192 107.63 23.1502 107.794 23.2124C107.981 23.2879 108.221 23.3811 108.518 23.4966C109.171 23.763 110.063 24.1315 111.155 24.5844C112.274 25.055 113.597 25.61 115.058 26.2227C115.791 26.5335 116.563 26.8576 117.358 27.1951C117.758 27.3638 118.162 27.5325 118.575 27.7101C118.97 27.8655 119.418 27.8877 119.836 27.7678C120.253 27.648 120.626 27.3949 120.879 27.0574C121.15 26.7022 121.416 26.3515 121.678 26.0052C122.202 25.317 122.708 24.651 123.188 24.016C124.151 22.7551 125.022 21.6184 125.759 20.655C126.482 19.7226 127.077 18.9544 127.508 18.3994C127.708 18.1508 127.868 17.951 127.992 17.7912C128.103 17.6535 128.165 17.5825 128.174 17.5914L128.183 17.5869Z" fill="#E0E0E0"/>
<path d="M116.599 26.9953C116.652 27.0263 115.542 28.9489 114.122 31.2843C112.696 33.6197 111.498 35.4845 111.444 35.4535C111.391 35.4224 112.501 33.4999 113.922 31.1644C115.347 28.829 116.546 26.9642 116.599 26.9953Z" fill="#E0E0E0"/>
<path d="M122.202 25.4901C122.233 25.4368 124.156 26.5468 126.491 27.9676C128.827 29.3929 130.691 30.5917 130.66 30.645C130.629 30.6982 128.707 29.5882 126.371 28.1674C124.036 26.7422 122.171 25.5434 122.202 25.4901Z" fill="#E0E0E0"/>
<path d="M61.8135 189.481C62.1154 190.8 61.294 192.11 59.9753 192.412C58.6566 192.714 57.3468 191.892 57.0449 190.574C56.743 189.255 57.5644 187.945 58.8831 187.643C60.2017 187.341 61.5115 188.163 61.8135 189.481Z" fill="#EBEBEB"/>
<path d="M50.2695 192.172L68.6067 187.959L67.0083 186.795C66.0182 186.076 65.3211 185.019 65.0503 183.829L63.9092 178.857C63.0612 175.167 59.3849 172.863 55.6908 173.711C52.0011 174.559 49.6968 178.235 50.5448 181.929L51.6415 186.711C51.8946 187.821 51.7703 188.98 51.2863 190.01L50.2695 192.177V192.172Z" fill="#EBEBEB"/>
<path d="M55.1097 171.576L54.876 171.63C54.4435 171.729 54.1733 172.16 54.2726 172.593L54.7902 174.847C54.8895 175.28 55.3207 175.55 55.7533 175.451L55.987 175.397C56.4196 175.298 56.6897 174.866 56.5904 174.434L56.0728 172.179C55.9735 171.747 55.5423 171.477 55.1097 171.576Z" fill="#EBEBEB"/>
<path d="M68.6201 187.999C68.629 188.039 64.5575 189.002 59.5314 190.156C54.5009 191.311 50.4161 192.217 50.4072 192.177C50.3984 192.137 54.4698 191.173 59.5004 190.019C64.5309 188.864 68.6157 187.963 68.6201 187.999Z" fill="#E0E0E0"/>
<path d="M57.0669 190.649C57.0669 190.649 58.248 191.244 59.5622 190.942C61.1251 190.583 61.8311 189.552 61.8311 189.552L57.0625 190.645L57.0669 190.649Z" fill="#E0E0E0"/>
<path d="M62.7946 178.199C62.7369 177.991 62.6703 177.773 62.5193 177.613C62.3684 177.453 62.1108 177.378 61.9288 177.498C61.7068 177.6 61.5869 177.84 61.6402 178.079C61.8178 178.865 62.2085 180.606 62.4039 181.649C62.5637 182.506 62.6481 183.443 62.2529 184.22C61.9466 184.819 61.3649 185.241 60.7433 185.503C60.1217 185.765 59.4513 185.885 58.7897 186.027C57.955 186.205 57.1203 186.427 56.3566 186.804C56.1524 186.906 55.9437 187.026 55.8194 187.217C55.695 187.408 55.6906 187.692 55.8638 187.843C56.0236 187.981 56.2589 187.958 56.4632 187.932C58.5944 187.639 60.7389 187.306 62.7635 186.578C63.1853 186.427 63.6249 186.24 63.878 185.872C64.1666 185.454 64.1444 184.904 64.0955 184.398C63.8868 182.293 63.3762 180.233 62.7946 178.199Z" fill="#E0E0E0"/>
<g opacity="0.2">
<path d="M53.9546 175.304C53.9546 175.304 53.9632 175.304 53.9676 175.3C53.9762 175.3 53.9806 175.291 53.9892 175.287L53.9546 175.304Z" fill="white"/>
</g>
<path d="M59.8513 174.017C59.8424 174.044 59.4383 173.871 58.7501 173.733C58.4083 173.662 57.9909 173.613 57.5291 173.6C57.0674 173.595 56.5568 173.622 56.0329 173.715C55.5089 173.813 55.0205 173.959 54.5899 174.128C54.1636 174.301 53.7862 174.492 53.4932 174.679C52.8938 175.047 52.5741 175.349 52.5563 175.327C52.5519 175.318 52.6274 175.243 52.7739 175.109C52.8449 175.038 52.9382 174.958 53.0492 174.878C53.1602 174.794 53.2845 174.692 53.4399 174.599C53.7329 174.399 54.1103 174.199 54.541 174.013C54.9761 173.835 55.4734 173.68 56.0107 173.582C56.5479 173.489 57.0674 173.462 57.538 173.475C58.0087 173.502 58.4305 173.555 58.7768 173.644C58.9499 173.68 59.1053 173.733 59.2385 173.773C59.3762 173.813 59.4872 173.857 59.5804 173.897C59.7625 173.973 59.8646 174.022 59.8601 174.03L59.8513 174.017Z" fill="#E0E0E0"/>
<path d="M51.7125 189.633C51.6726 189.615 51.9079 189.042 51.9923 188.292C52.0855 187.541 51.9923 186.929 52.0322 186.924C52.0633 186.915 52.2276 187.537 52.1299 188.309C52.0411 189.086 51.7392 189.65 51.7081 189.633H51.7125Z" fill="white"/>
<path d="M60.1439 191.879C60.1439 191.879 60.0196 191.986 59.7754 192.057C59.5312 192.128 59.1671 192.163 58.7853 192.057C58.4035 191.955 58.106 191.737 57.9328 191.555C57.7552 191.368 57.6886 191.226 57.7064 191.218C57.7241 191.204 57.8174 191.329 58.0039 191.484C58.1859 191.639 58.4701 191.826 58.8253 191.923C59.1805 192.021 59.5179 192.003 59.7577 191.963C59.9974 191.923 60.1395 191.866 60.1484 191.884L60.1439 191.879Z" fill="white"/>
<path d="M54.7805 171.89C54.816 171.913 54.6296 172.179 54.6118 172.556C54.5807 172.934 54.7272 173.218 54.6917 173.236C54.6651 173.262 54.4386 172.974 54.4697 172.547C54.4964 172.121 54.7583 171.864 54.7805 171.89Z" fill="white"/>
<path d="M17.2138 70.4184C17.72 70.112 18.2572 69.8812 18.8122 69.7213L19.1408 68.1362L21.8181 68.0874L22.2044 69.6592C22.7638 69.7968 23.3099 70.0099 23.8294 70.2985L25.1836 69.4105L27.1106 71.2709L26.2714 72.6517C26.5778 73.1579 26.8087 73.6951 26.9685 74.2546L28.5536 74.5831L28.6024 77.2604L27.0307 77.6467C26.893 78.2062 26.6799 78.7523 26.3913 79.2718L27.2793 80.626L25.4189 82.5529L24.0337 81.7138C23.5275 82.0201 22.9903 82.251 22.4308 82.4108L22.1023 83.9959L19.4249 84.0448L19.0387 82.473C18.4792 82.3354 17.9331 82.1222 17.4136 81.8336L16.0594 82.7216L14.1325 80.8613L14.9716 79.4804C14.6653 78.9743 14.4344 78.437 14.2745 77.8776L12.6895 77.549L12.6406 74.8717L14.2124 74.4854C14.35 73.926 14.5631 73.3799 14.8517 72.8604L13.9637 71.5062L15.8241 69.5792L17.2094 70.4184H17.2138ZM18.6391 73.9837C17.5379 75.1248 17.569 76.9452 18.7101 78.0463C19.8512 79.1474 21.6716 79.1164 22.7727 77.9753C23.8738 76.8342 23.8427 75.0138 22.7017 73.9127C21.5606 72.8116 19.7446 72.8426 18.6391 73.9837Z" fill="#EBEBEB"/>
<path d="M198.188 134.559C198.681 134.261 199.2 134.035 199.742 133.884L200.062 132.348L202.659 132.303L203.032 133.831C203.578 133.964 204.107 134.172 204.608 134.452L205.922 133.591L207.792 135.398L206.979 136.739C207.277 137.232 207.503 137.756 207.654 138.293L209.19 138.612L209.235 141.21L207.707 141.583C207.574 142.129 207.365 142.657 207.086 143.159L207.947 144.473L206.14 146.342L204.799 145.53C204.306 145.827 203.782 146.054 203.245 146.205L202.925 147.741L200.328 147.785L199.955 146.258C199.409 146.125 198.881 145.916 198.379 145.637L197.065 146.498L195.195 144.691L196.008 143.35C195.71 142.857 195.484 142.338 195.333 141.796L193.797 141.476L193.752 138.879L195.28 138.506C195.413 137.96 195.622 137.431 195.901 136.93L195.04 135.615L196.847 133.746L198.188 134.559ZM199.573 138.022C198.503 139.132 198.534 140.895 199.644 141.965C200.754 143.035 202.517 143.004 203.587 141.894C204.657 140.784 204.626 139.021 203.516 137.951C202.406 136.881 200.643 136.912 199.573 138.022Z" fill="#EBEBEB"/>
<path d="M208.898 201.039C208.898 201.101 165.062 201.154 111.005 201.154C56.9475 201.154 13.1025 201.101 13.1025 201.039C13.1025 200.977 56.9253 200.923 111.005 200.923C165.084 200.923 208.898 200.977 208.898 201.039Z" fill="#263238"/>
<path d="M135.167 63.3056L60.7126 70.0189C50.7892 70.9157 43.521 80.2397 44.48 90.8513L48.405 134.359C49.3596 144.97 58.1818 152.843 68.1052 151.95L97.0052 149.344C97.8799 149.264 98.7412 149.65 99.3051 150.374L107.479 160.777C108.687 162.313 110.947 162.113 111.861 160.382L118.042 148.682C118.473 147.87 119.25 147.337 120.124 147.257L142.56 145.232C152.483 144.336 159.751 135.012 158.792 124.4L154.867 80.8924C153.913 70.2808 145.09 62.4087 135.167 63.3011V63.3056Z" fill="white"/>
<path d="M135.167 63.3056C135.167 63.3056 135.487 63.2878 136.117 63.2612C136.272 63.2567 136.45 63.2478 136.645 63.239C136.841 63.2301 137.054 63.2168 137.285 63.239C137.751 63.2745 138.288 63.3011 138.901 63.3588C139.203 63.4121 139.523 63.4698 139.86 63.5276C140.197 63.5942 140.557 63.6297 140.917 63.7496C141.281 63.8561 141.663 63.9627 142.058 64.0781C142.457 64.1847 142.848 64.38 143.265 64.5354C144.917 65.2192 146.746 66.2582 148.482 67.821C150.218 69.375 151.857 71.4574 153.056 74.0326C153.202 74.3567 153.349 74.6853 153.495 75.0138C153.651 75.3424 153.739 75.702 153.868 76.0484C153.984 76.3991 154.117 76.7499 154.219 77.114C154.308 77.4825 154.392 77.851 154.481 78.2284C154.836 79.7291 154.956 81.332 155.107 82.9748C155.706 89.5593 156.386 97.0584 157.14 105.343C157.518 109.486 157.909 113.828 158.321 118.353C158.424 119.485 158.526 120.626 158.632 121.78C158.686 122.358 158.739 122.935 158.792 123.521L158.872 124.396L158.912 125.284C159.027 127.65 158.743 130.083 157.997 132.427C157.256 134.767 156.057 137.018 154.432 138.968C152.807 140.921 150.751 142.573 148.385 143.705C147.208 144.287 145.943 144.691 144.651 144.993C144.331 145.095 143.994 145.108 143.669 145.166L142.679 145.308C142.018 145.379 141.352 145.432 140.686 145.494C138.017 145.734 135.309 145.983 132.569 146.227C129.83 146.476 127.055 146.724 124.249 146.977C122.846 147.106 121.438 147.235 120.022 147.364C119.343 147.448 118.717 147.848 118.322 148.407C118.126 148.682 117.98 149.02 117.806 149.331L117.305 150.285C115.959 152.834 114.601 155.404 113.229 158.002C112.887 158.65 112.541 159.303 112.199 159.955C112.026 160.275 111.87 160.626 111.613 160.919C111.368 161.212 111.062 161.461 110.711 161.634C110.014 161.976 109.166 161.985 108.456 161.669C108.096 161.514 107.785 161.27 107.523 160.981C107.261 160.693 107.053 160.395 106.817 160.102C104.966 157.749 103.101 155.373 101.223 152.98C100.752 152.381 100.282 151.781 99.8112 151.182C99.5758 150.885 99.3405 150.574 99.1008 150.29C98.8566 150.014 98.5546 149.792 98.2216 149.641C97.8842 149.49 97.5201 149.419 97.1516 149.428C96.7831 149.45 96.3879 149.495 96.0105 149.526C95.2424 149.597 94.4743 149.664 93.7062 149.735C87.5479 150.29 81.3008 150.853 74.9782 151.426C73.3976 151.568 71.8214 151.71 70.2496 151.852C68.6823 151.99 67.1017 152.177 65.5255 152.061C65.1303 152.03 64.7352 152.012 64.3489 151.968L63.1856 151.759C62.9947 151.724 62.7993 151.697 62.6084 151.648L62.0445 151.484L60.9168 151.151L59.829 150.707L59.2873 150.485L58.7678 150.21L57.7333 149.664L56.7565 149.02C54.1546 147.297 52.1078 144.864 50.647 142.182C50.5538 142.013 50.4517 141.854 50.3718 141.68L50.1364 141.157L49.6702 140.109C49.5326 139.753 49.4216 139.389 49.2973 139.03C49.1863 138.666 49.0309 138.315 48.9554 137.942C48.5647 136.477 48.3471 134.967 48.2228 133.48C47.1483 121.549 46.1138 110.045 45.1281 99.0831C44.8839 96.3436 44.6397 93.6352 44.4 90.9668C44.1513 88.285 44.4 85.5855 45.1725 83.0813C46.6821 78.0597 50.203 73.8372 54.6208 71.6572L55.4467 71.2487L56.3036 70.929C56.5878 70.8225 56.8719 70.7115 57.1605 70.6138L58.0396 70.3874C58.3327 70.3163 58.6257 70.232 58.9188 70.1654L59.8112 70.0366L60.6992 69.9078L61.5828 69.8279C63.936 69.6192 66.2403 69.4106 68.5047 69.2063C73.0291 68.8023 77.3714 68.4116 81.5184 68.0386C98.0973 66.5601 111.511 65.3613 120.786 64.5354C125.421 64.127 129.017 63.8117 131.464 63.5942C132.68 63.4876 133.613 63.4077 134.239 63.3544C134.865 63.3011 135.185 63.2789 135.185 63.2789C135.185 63.2789 134.865 63.3144 134.239 63.3766C133.613 63.4343 132.68 63.5231 131.464 63.6386C129.022 63.865 125.426 64.1936 120.79 64.6242C111.519 65.4678 98.1062 66.6933 81.5317 68.2029C77.3892 68.5803 73.0468 68.971 68.5225 69.3839C66.2625 69.5882 63.9537 69.7968 61.6005 70.01L60.717 70.0899L59.8378 70.2186L58.9543 70.3474C58.6657 70.414 58.3771 70.4939 58.0885 70.565L57.2182 70.787C56.9341 70.8802 56.6544 70.9956 56.3702 71.0978L55.5222 71.4174L54.7052 71.8215C50.3362 73.9793 46.8553 78.1574 45.3634 83.1346C44.5998 85.6166 44.3556 88.285 44.6042 90.9446C44.844 93.613 45.0926 96.3214 45.3368 99.0609C46.3269 110.023 47.3659 121.527 48.4448 133.453C48.5691 134.945 48.7867 136.423 49.173 137.88C49.244 138.248 49.3994 138.595 49.5104 138.954C49.6347 139.309 49.7413 139.669 49.8789 140.02L50.3407 141.054L50.5716 141.574C50.6515 141.743 50.7536 141.907 50.8468 142.071C52.2943 144.722 54.3145 147.124 56.8852 148.824L57.8487 149.459L58.8699 150.001L59.3805 150.272L59.9178 150.489L60.9922 150.925L62.1067 151.253L62.6661 151.417C62.8526 151.462 63.048 151.488 63.2389 151.528L64.3844 151.737C64.7707 151.786 65.1614 151.799 65.5477 151.83C67.1017 151.95 68.6646 151.764 70.2363 151.626C71.8081 151.484 73.3843 151.342 74.9649 151.2C81.2875 150.631 87.5346 150.068 93.6928 149.513C94.461 149.442 95.2291 149.375 95.9972 149.304C96.3835 149.273 96.7564 149.228 97.1516 149.206C97.5556 149.193 97.9552 149.277 98.3238 149.437C98.6878 149.601 99.0164 149.846 99.2828 150.143C99.5359 150.449 99.7623 150.747 100.002 151.049C100.473 151.648 100.943 152.248 101.414 152.847C103.297 155.24 105.161 157.616 107.008 159.969C107.239 160.257 107.466 160.573 107.705 160.835C107.945 161.097 108.234 161.327 108.562 161.465C109.215 161.758 109.988 161.749 110.627 161.434C110.947 161.274 111.226 161.048 111.453 160.777C111.684 160.51 111.835 160.177 112.012 159.849C112.359 159.196 112.7 158.544 113.042 157.895C114.414 155.298 115.777 152.723 117.123 150.179L117.629 149.224C117.802 148.909 117.944 148.585 118.162 148.274C118.592 147.666 119.272 147.235 120.013 147.142C121.434 147.013 122.846 146.884 124.249 146.755C127.055 146.502 129.83 146.254 132.569 146.005C135.309 145.761 138.013 145.517 140.686 145.277C141.352 145.215 142.018 145.161 142.679 145.09L143.661 144.948C143.985 144.891 144.318 144.877 144.633 144.78C145.912 144.482 147.159 144.082 148.323 143.51C150.662 142.391 152.696 140.757 154.303 138.83C155.915 136.899 157.1 134.674 157.838 132.356C158.579 130.034 158.863 127.623 158.748 125.279L158.712 124.4L158.632 123.525C158.579 122.944 158.53 122.362 158.477 121.785C158.375 120.63 158.273 119.489 158.171 118.357C157.766 113.833 157.376 109.49 157.003 105.348C156.261 97.0584 155.591 89.5593 155 82.9748C154.854 81.3275 154.734 79.7336 154.383 78.2417C154.294 77.8688 154.21 77.5002 154.121 77.1362C154.015 76.7765 153.886 76.4258 153.77 76.075C153.646 75.7287 153.557 75.3735 153.402 75.0449C153.255 74.7164 153.109 74.3878 152.967 74.0681C151.777 71.5062 150.152 69.4328 148.434 67.8788C146.711 66.3159 144.895 65.2769 143.248 64.5887C142.83 64.4289 142.444 64.2335 142.044 64.127C141.649 64.0115 141.267 63.9005 140.908 63.794C140.548 63.6696 140.189 63.6341 139.856 63.5675C139.518 63.5054 139.198 63.4476 138.901 63.3944C138.293 63.3322 137.755 63.3056 137.289 63.2656C137.058 63.239 136.845 63.2478 136.65 63.2567C136.454 63.2612 136.281 63.27 136.121 63.2745C135.495 63.2922 135.171 63.2967 135.171 63.2967L135.167 63.3056Z" fill="#263238"/>
<path d="M173.852 47.7714C175.331 39.5016 169.826 31.5985 161.556 30.1195C153.286 28.6405 145.383 34.1455 143.904 42.4153C142.425 50.6851 147.93 58.5882 156.2 60.0672C164.47 61.5462 172.373 56.0412 173.852 47.7714Z" fill="#5880FC"/>
<g opacity="0.3">
<path d="M173.852 47.7714C175.331 39.5016 169.826 31.5985 161.556 30.1195C153.286 28.6405 145.383 34.1455 143.904 42.4153C142.425 50.6851 147.93 58.5882 156.2 60.0672C164.47 61.5462 172.373 56.0412 173.852 47.7714Z" fill="black"/>
</g>
<path d="M166.974 56.323C174.101 51.8761 176.274 42.4931 171.827 35.3655C167.381 28.2379 157.998 26.0648 150.87 30.5117C143.742 34.9586 141.569 44.3415 146.016 51.4691C150.463 58.5967 159.846 60.7699 166.974 56.323Z" fill="#5880FC"/>
<path d="M169.048 44.5343C169.665 38.9405 165.63 33.906 160.036 33.2894C154.442 32.6728 149.408 36.7077 148.791 42.3015C148.175 47.8953 152.209 52.9298 157.803 53.5463C163.397 54.1629 168.432 50.1281 169.048 44.5343Z" fill="white"/>
<path d="M163.907 43.5387C163.841 46.2915 161.55 48.4671 158.797 48.4005C156.044 48.3339 153.868 46.0428 153.935 43.29C154.002 40.5372 156.293 38.3616 159.046 38.4282C161.798 38.4948 163.974 40.7859 163.907 43.5387Z" fill="#5880FC"/>
<path d="M169.799 32.5497L169.466 29.2951L172.854 25.8408L173.005 29.3484L169.799 32.5497Z" fill="#455A64"/>
<path d="M176.952 30.1433L173.608 29.7881L170.167 32.936L173.52 33.3756L176.952 30.1433Z" fill="#455A64"/>
<g opacity="0.3">
<path d="M159.587 43.3611L171.437 34.7742C171.055 34.1748 170.571 33.5709 170.025 32.9626L159.609 42.5708L159.591 43.3611H159.587Z" fill="black"/>
</g>
<path d="M173.156 28.8645C171.539 30.4052 169.919 31.9414 168.303 33.4821C165.736 35.9241 163.17 38.3661 160.604 40.8081C160.013 41.3676 159.423 41.9314 158.832 42.4909C158.273 43.0237 159.103 43.8895 159.667 43.3567C161.283 41.816 162.904 40.2798 164.52 38.7391C167.086 36.2971 169.652 33.8551 172.219 31.4131C172.809 30.8536 173.4 30.2898 173.99 29.7303C174.55 29.1975 173.719 28.3317 173.156 28.8645Z" fill="#263238"/>
<g opacity="0.2">
<path d="M144.562 100.069C144.371 95.6909 143.576 91.3175 142.604 86.9618C142.378 85.9984 142.151 85.0349 141.925 84.0758C141.689 83.1212 141.418 82.18 141.165 81.2342C140.677 79.3428 140.118 77.4869 139.549 75.6532C138.457 71.9635 136.788 67.5013 135.5 64.0248C133.24 63.2167 130.354 63.0968 126.935 63.563L101.96 67.1683C96.832 72.1944 92.1078 76.0794 88.2051 78.9521C88.1518 78.6058 88.0985 78.2639 88.0497 77.9176L66.6222 87.6767C62.5952 90.1897 60.5217 95.4111 62.937 101.432L65.308 107.994L66.9508 111.369C68.86 115.285 72.674 117.26 76.2393 116.47L76.0173 116.559C76.1061 116.528 76.1949 116.492 76.2837 116.461C76.9097 116.319 77.5269 116.097 78.1263 115.777C78.5614 115.613 78.9921 115.453 79.4183 115.289L97.0274 137.942C98.315 139.598 100.699 139.545 101.925 137.84L107.595 129.941C108.66 128.454 108.385 126.327 106.982 125.204C103.306 122.273 96.7521 116.648 94.3589 112.092C94.2701 111.901 93.5775 110.347 93.502 109.619C94.6209 109.157 95.7708 108.687 96.9519 108.203C98.2528 107.932 99.5848 107.674 100.952 107.426C103.776 106.929 106.747 106.485 109.846 106.28C112.94 106.067 116.164 106.28 119.472 106.702C126.109 107.523 133.022 109.251 140.326 110.92L140.681 110.982L141.09 110.964C141.365 110.96 141.601 110.8 141.849 110.711C142.058 110.547 142.28 110.392 142.475 110.21L142.981 109.584C143.532 108.665 143.945 107.643 144.136 106.578C144.575 104.46 144.682 102.258 144.558 100.073L144.562 100.069Z" fill="black"/>
</g>
<path d="M71.5996 85.0483C71.5996 85.0483 80.564 81.6384 94.4834 69.859C104.66 61.2454 112.403 51.2821 115.831 46.549C117.478 44.2758 120.559 43.7341 122.766 45.4257C126.172 48.0364 131.087 54.8385 137.125 72.5586C147.772 103.794 142.058 110.25 139.461 109.943C136.863 109.633 119.592 104.948 108.452 105.193C97.3116 105.441 80.6084 110.014 80.6084 110.014L71.5996 85.0527V85.0483Z" fill="#E0E0E0"/>
<path d="M71.5997 85.0482C71.5997 85.0482 71.6574 85.1947 71.764 85.4789C71.8705 85.7675 72.0259 86.1893 72.2302 86.7443C72.6387 87.8632 73.2381 89.506 74.0195 91.6416C75.5735 95.9129 77.8335 102.142 80.6839 109.983L80.5951 109.939C85.4747 108.642 91.0425 107.346 97.2318 106.298C100.326 105.787 103.581 105.335 106.982 105.157C110.388 104.97 113.926 105.224 117.54 105.668C121.155 106.12 124.853 106.778 128.627 107.537C130.514 107.914 132.423 108.327 134.346 108.753C135.309 108.966 136.277 109.18 137.25 109.393C137.738 109.499 138.226 109.601 138.715 109.699C138.959 109.748 139.203 109.783 139.447 109.823C139.683 109.841 139.918 109.828 140.144 109.748C140.602 109.606 140.992 109.282 141.317 108.913C141.636 108.536 141.889 108.101 142.107 107.652C142.524 106.738 142.773 105.747 142.942 104.74C143.27 102.719 143.257 100.637 143.133 98.5547C142.848 94.3855 142.027 90.1942 141.006 86.0117C140.087 82.2554 138.986 78.5924 137.818 75.0094C136.646 71.4263 135.402 67.9276 134.057 64.5398C132.707 61.1521 131.273 57.8665 129.622 54.7718C128.8 53.2267 127.912 51.7304 126.958 50.3096C125.999 48.8933 124.946 47.5524 123.739 46.4069C123.441 46.1138 123.121 45.8474 122.802 45.5899C122.646 45.4523 122.469 45.3546 122.304 45.2347C122.127 45.137 121.954 45.0305 121.767 44.9506C121.03 44.6264 120.213 44.471 119.414 44.5598C118.619 44.6398 117.847 44.9106 117.198 45.359L116.954 45.5278L116.728 45.7187C116.572 45.8386 116.439 45.9851 116.302 46.1272C116.04 46.4158 115.809 46.7354 115.573 47.0596C113.695 49.6259 111.782 52.0501 109.864 54.3367C106.032 58.9144 102.187 62.9459 98.475 66.4046C90.9892 73.2644 84.2315 78.0108 79.3963 80.9723C76.9721 82.4464 75.0185 83.4764 73.6732 84.1247C73.0027 84.4532 72.4788 84.6797 72.1281 84.8306C71.7729 84.9816 71.5908 85.0438 71.5908 85.0438C71.6574 85.0127 71.7995 84.9505 72.1192 84.8084C72.4699 84.653 72.985 84.4177 73.6554 84.0803C74.9919 83.4187 76.9366 82.3753 79.3519 80.8924C81.7629 79.405 84.6444 77.4647 87.8634 75.0449C88.6626 74.4366 89.5018 73.815 90.3365 73.1357C91.1801 72.4697 92.0503 71.7815 92.925 71.0444C94.6966 69.6014 96.5081 68.0075 98.364 66.2848C102.067 62.8216 105.894 58.79 109.717 54.2124C111.631 51.9258 113.535 49.5016 115.409 46.9397C115.64 46.62 115.875 46.2914 116.151 45.9895C116.293 45.843 116.43 45.692 116.59 45.5633L116.826 45.3635L117.079 45.1903C117.758 44.7241 118.562 44.44 119.392 44.3556C120.222 44.2624 121.079 44.4222 121.852 44.7596C122.047 44.844 122.229 44.955 122.411 45.0571C122.584 45.1814 122.771 45.288 122.926 45.4256C123.255 45.6876 123.579 45.9584 123.881 46.2559C125.106 47.4192 126.167 48.769 127.131 50.1898C128.094 51.6194 128.982 53.1157 129.808 54.6697C131.464 57.7733 132.903 61.0678 134.257 64.4599C135.607 67.8565 136.854 71.3552 138.027 74.9428C139.194 78.5303 140.3 82.1977 141.219 85.9628C142.24 90.1542 143.066 94.3544 143.35 98.5458C143.479 100.637 143.488 102.737 143.155 104.78C142.982 105.801 142.728 106.809 142.298 107.75C142.071 108.212 141.809 108.665 141.472 109.06C141.13 109.45 140.713 109.797 140.202 109.961C139.953 110.05 139.674 110.072 139.412 110.045C139.163 110.001 138.91 109.965 138.661 109.917C138.169 109.819 137.676 109.717 137.192 109.61C136.219 109.397 135.252 109.18 134.288 108.971C132.361 108.545 130.461 108.132 128.574 107.75C124.804 106.991 121.11 106.329 117.505 105.872C113.9 105.423 110.374 105.166 106.982 105.348C103.59 105.521 100.344 105.969 97.2496 106.471C91.0691 107.506 85.4969 108.793 80.6218 110.076L80.5552 110.094L80.533 110.032C77.7091 102.16 75.4669 95.9084 73.9307 91.6238C73.167 89.4882 72.5809 87.8454 72.1813 86.7265C71.986 86.176 71.835 85.7542 71.7373 85.47C71.6397 85.1858 71.5908 85.0482 71.5908 85.0482H71.5997Z" fill="#263238"/>
<g opacity="0.3">
<path d="M135.243 74.4011C140.802 91.0645 142.462 105.61 138.946 106.889C135.429 108.172 128.072 95.6998 122.509 79.0365C116.95 62.3732 115.289 47.8277 118.806 46.549C122.322 45.2659 129.679 57.7378 135.243 74.4011Z" fill="black"/>
</g>
<path d="M119.578 69.2285C119.578 69.2285 127.943 64.8151 131.375 76.5456C134.807 88.276 126.296 89.3195 126.296 89.3195C123.33 83.3965 121.07 76.7232 119.578 69.2285Z" fill="white"/>
<path d="M63.1504 97.8797L66.5914 109.885C67.0354 111.431 68.5095 112.443 70.1079 112.305C71.2046 112.212 72.2746 112.656 72.9762 113.504L92.712 137.223C94.0884 138.879 96.6458 138.825 97.9556 137.12L104.025 129.222C105.166 127.734 104.873 125.608 103.368 124.484C98.9102 121.159 90.4875 114.374 89.0845 109.61C88.192 106.578 88.3075 105.09 88.6804 104.367C89.1733 103.416 89.302 102.32 88.8802 101.338L85.8344 94.2212C85.2661 92.8892 83.903 92.0722 82.46 92.1965L66.0853 93.6084C63.9807 93.7905 62.5644 95.8462 63.146 97.8797H63.1504Z" fill="#4F5362"/>
<path opacity="0.3" d="M73.0381 113.575L76.7011 117.98L89.8701 111.391C89.8701 111.391 88.8534 109.322 88.9377 108.7L73.0381 113.575Z" fill="black"/>
<path d="M56.2239 100.717L58.7636 107.279L60.5218 110.654C62.9327 115.28 68.1986 117.211 72.4965 115.054L95.1361 106.529C88.3651 98.084 84.7154 88.1339 83.0992 77.2026L60.1666 86.9618C55.8554 89.4748 53.6354 94.6962 56.2239 100.717Z" fill="#4F5362"/>
<path d="M81.0348 87.5924C81.1014 87.7522 76.9323 89.7236 71.7242 91.9969C66.5116 94.2701 62.2315 95.9795 62.1649 95.8197C62.0983 95.6599 66.263 93.6885 71.4755 91.4152C76.6836 89.1419 80.9638 87.4325 81.0348 87.5924Z" fill="#263238"/>
<path d="M82.4509 90.9979C82.5175 91.1577 78.3483 93.1291 73.1402 95.4024C67.9276 97.6757 63.6475 99.3851 63.5809 99.2252C63.5143 99.0654 67.679 97.094 72.8915 94.8207C78.0997 92.5475 82.3798 90.8381 82.4509 90.9979Z" fill="#263238"/>
<path d="M83.8674 94.4032C83.934 94.563 79.7648 96.5344 74.5567 98.8077C69.3441 101.081 65.0684 102.79 64.9974 102.63C64.9308 102.471 69.0955 100.499 74.308 98.226C79.5162 95.9527 83.7963 94.2433 83.8674 94.4032Z" fill="#263238"/>
<path d="M85.2839 97.8087C85.3505 97.9685 81.1813 99.9399 75.9732 102.213C70.7606 104.486 66.4849 106.196 66.4139 106.036C66.3473 105.876 70.5164 103.905 75.7246 101.632C80.9327 99.3583 85.2128 97.6489 85.2839 97.8087Z" fill="#263238"/>
<path d="M95.1404 106.524C95.1404 106.524 95.0605 106.573 94.8962 106.644C94.7097 106.72 94.4699 106.817 94.1813 106.942C93.5287 107.199 92.6318 107.559 91.5307 107.994C89.2929 108.873 86.1982 110.09 82.7661 111.4C79.334 112.714 76.2082 113.85 73.9349 114.636C72.7983 115.031 71.8748 115.338 71.231 115.542C70.9291 115.635 70.6849 115.715 70.4895 115.773C70.3208 115.822 70.2275 115.848 70.2275 115.84C70.2275 115.831 70.3119 115.795 70.4762 115.729C70.6671 115.657 70.9069 115.569 71.1999 115.458C71.8615 115.218 72.7672 114.885 73.8772 114.481C76.1372 113.659 79.2541 112.496 82.6817 111.182C86.1005 109.881 89.1952 108.704 91.4685 107.839C92.5785 107.43 93.4843 107.097 94.1458 106.857C94.4433 106.755 94.6875 106.666 94.8784 106.604C95.0471 106.547 95.1359 106.524 95.1404 106.529V106.524Z" fill="#263238"/>
<path d="M134.883 104.833C134.883 104.833 134.852 104.797 134.798 104.722C134.741 104.637 134.67 104.526 134.576 104.384C134.377 104.074 134.097 103.638 133.742 103.083C133.031 101.942 132.023 100.282 130.847 98.1862C128.503 93.9992 125.523 88.0408 123.032 81.141C121.78 77.6956 120.768 74.3433 119.982 71.2664C119.774 70.4983 119.6 69.7435 119.432 69.0109C119.263 68.2783 119.103 67.5679 118.943 66.8797C118.637 65.5033 118.344 64.2202 118.095 63.0436C117.593 60.6948 117.283 58.7723 117.132 57.4358C117.052 56.7698 117.007 56.2503 116.981 55.8951C116.972 55.7309 116.963 55.5977 116.954 55.4955C116.954 55.4067 116.95 55.3579 116.954 55.3579C116.954 55.3579 116.967 55.4023 116.976 55.4911L117.025 55.8907C117.065 56.2415 117.123 56.761 117.216 57.4225C117.394 58.7501 117.731 60.6637 118.251 63.0036C118.517 64.1757 118.81 65.4545 119.125 66.8309C119.285 67.5191 119.454 68.2295 119.623 68.9576C119.796 69.6902 119.973 70.4406 120.182 71.2043C120.981 74.2723 121.994 77.6112 123.241 81.0522C125.728 87.9386 128.676 93.8971 130.98 98.0974C132.134 100.197 133.12 101.871 133.808 103.026C134.146 103.59 134.417 104.034 134.603 104.349C134.687 104.491 134.754 104.606 134.807 104.695C134.852 104.775 134.874 104.815 134.87 104.82L134.883 104.833Z" fill="#263238"/>
<path opacity="0.1" d="M128.298 133.102L125.51 127.077C124.999 125.976 125.874 124.733 127.086 124.844L133.697 125.443L140.308 126.043C141.52 126.154 142.155 127.53 141.454 128.525L137.627 133.951L133.799 139.376C133.098 140.371 131.588 140.233 131.078 139.128L128.289 133.102H128.298Z" fill="black"/>
<path d="M124.822 129.626L122.033 123.601C121.523 122.5 122.397 121.257 123.609 121.368L130.221 121.967L136.832 122.566C138.044 122.677 138.679 124.054 137.977 125.048L134.15 130.474L130.323 135.9C129.621 136.894 128.112 136.757 127.601 135.651L124.813 129.626H124.822Z" fill="#455A64"/>
<path d="M42.6433 104.67L16.7324 98.0366C15.9603 97.8389 15.1742 98.3046 14.9766 99.0766L10.3307 117.224C10.1331 117.996 10.5987 118.782 11.3707 118.98L37.2816 125.613C38.0537 125.811 38.8398 125.345 39.0374 124.573L43.6833 106.426C43.881 105.654 43.4153 104.868 42.6433 104.67Z" fill="#7F98E4"/>
<path d="M42.1618 107.062C42.1618 107.062 42.0597 107.124 41.8554 107.221C41.6334 107.324 41.336 107.461 40.963 107.634C40.1638 107.994 39.0449 108.496 37.673 109.108C36.2744 109.726 34.6182 110.458 32.7801 111.271C31.8566 111.675 30.8886 112.101 29.8852 112.541C29.3835 112.758 28.8729 112.985 28.3534 113.211C27.8117 113.446 27.1857 113.504 26.5952 113.362C26.0046 113.22 25.4718 112.882 25.1033 112.425C24.757 111.977 24.4151 111.533 24.0821 111.098C23.4161 110.227 22.7768 109.388 22.164 108.589C20.9475 106.991 19.8508 105.548 18.9273 104.331C18.0215 103.128 17.2889 102.146 16.7606 101.449C16.5208 101.121 16.3254 100.859 16.1789 100.659C16.0502 100.477 15.9836 100.379 15.988 100.375C15.9924 100.37 16.0724 100.459 16.2144 100.632C16.3698 100.823 16.5741 101.081 16.8272 101.396C17.3688 102.084 18.1236 103.052 19.0516 104.233C19.9884 105.445 21.0984 106.875 22.3283 108.465C22.9455 109.264 23.5893 110.099 24.2553 110.969C24.5883 111.399 24.9302 111.843 25.2765 112.287C25.6184 112.705 26.1068 113.016 26.6484 113.144C27.7673 113.464 28.7796 112.723 29.792 112.341C30.7954 111.906 31.7678 111.484 32.6913 111.084C34.5339 110.289 36.1989 109.575 37.6064 108.971C38.9916 108.385 40.1194 107.905 40.9275 107.563C41.3049 107.408 41.6068 107.284 41.8332 107.19C42.0419 107.106 42.1529 107.066 42.1574 107.075L42.1618 107.062Z" fill="#263238"/>
<path d="M23.5672 110.232C23.5983 110.289 21.1785 111.701 18.1637 113.389C15.1445 115.076 12.6759 116.399 12.6448 116.346C12.6137 116.288 15.0335 114.876 18.0527 113.189C21.0675 111.502 23.5406 110.178 23.5717 110.232H23.5672Z" fill="#263238"/>
<path d="M30.671 112.052C30.7287 112.021 32.1406 114.441 33.8278 117.456C35.515 120.475 36.8381 122.943 36.7849 122.974C36.7271 123.006 35.3152 120.586 33.628 117.567C31.9408 114.552 30.6177 112.079 30.671 112.048V112.052Z" fill="#263238"/>
<path d="M35.125 138.728L13.2891 167.876L50.6428 168.76L45.2881 158.53L47.2595 151.555L40.7238 149.375L35.125 138.728Z" fill="white"/>
<path opacity="0.3" d="M45.2881 158.53L13.2891 167.876L40.7238 149.375L47.2595 151.555L45.2881 158.53Z" fill="black"/>
<path d="M47.2596 151.555C47.2862 151.613 39.7027 155.311 30.3254 159.818C20.9437 164.324 13.3158 167.93 13.2891 167.876C13.2625 167.819 20.8416 164.12 30.2233 159.614C39.6006 155.107 47.2285 151.502 47.2596 151.559V151.555Z" fill="#263238"/>
<path d="M40.7241 149.375C40.7241 149.375 40.6797 149.415 40.5909 149.482C40.4888 149.553 40.3556 149.65 40.1869 149.77C39.8184 150.028 39.29 150.392 38.6151 150.862C37.2343 151.808 35.2496 153.167 32.8032 154.841C27.8748 158.188 21.0771 162.797 13.5691 167.899L13.4714 167.69L13.5824 167.659C22.3292 165.124 30.2457 162.828 35.9911 161.163C38.8504 160.346 41.1726 159.68 42.7887 159.218C43.5835 158.996 44.2051 158.823 44.6402 158.703C44.8444 158.65 45.0043 158.606 45.1242 158.575C45.2352 158.548 45.2885 158.535 45.2929 158.539C45.2929 158.539 45.2396 158.561 45.1331 158.597C45.0132 158.632 44.8578 158.686 44.658 158.748C44.2229 158.881 43.6057 159.068 42.8198 159.307C41.2081 159.787 38.8948 160.475 36.0444 161.323C30.3034 163.006 22.3958 165.323 13.6534 167.885L13.5424 167.916C13.4803 167.934 13.4181 167.899 13.4004 167.837C13.387 167.788 13.4048 167.734 13.4448 167.708C20.9706 162.633 27.7771 158.037 32.7188 154.707C35.183 153.06 37.181 151.724 38.5707 150.791C39.2545 150.338 39.7917 149.983 40.1691 149.735C40.3467 149.619 40.4844 149.53 40.5865 149.464C40.6797 149.406 40.733 149.375 40.733 149.379L40.7241 149.375Z" fill="#263238"/>
<path d="M35.1248 138.728C35.1248 138.728 35.1559 138.781 35.2225 138.901C35.2891 139.025 35.3823 139.203 35.5067 139.429C35.7642 139.909 36.1327 140.602 36.6122 141.498C37.5846 143.328 39.0009 145.992 40.7858 149.339L40.7459 149.304C42.6817 149.943 44.8839 150.671 47.286 151.466L47.3659 151.493L47.3437 151.573C46.7443 153.704 46.0827 156.057 45.3812 158.552L45.3723 158.481C47.0107 161.603 48.8222 165.057 50.7403 168.702L50.8247 168.867H50.6382C45.0571 168.733 38.9565 168.591 32.6073 168.44C25.7831 168.276 19.2429 168.121 13.28 167.974H13.0669L13.1957 167.801C19.6115 159.281 25.0949 151.995 28.9799 146.835C30.9113 144.273 32.4475 142.24 33.5042 140.841C34.0237 140.153 34.4277 139.62 34.7075 139.256C34.8407 139.083 34.9428 138.95 35.0183 138.852C35.0893 138.763 35.1204 138.723 35.1204 138.723C35.1204 138.723 35.0849 138.777 35.0138 138.874C34.9383 138.977 34.8362 139.114 34.703 139.296C34.4233 139.669 34.0237 140.215 33.5042 140.917C32.4519 142.329 30.9246 144.384 29.0021 146.969C25.1526 152.128 19.7225 159.414 13.3688 167.934L13.2845 167.761C19.2474 167.899 25.7875 168.054 32.6118 168.209C38.9565 168.36 45.0571 168.507 50.6426 168.64L50.5449 168.8C48.6357 165.15 46.8287 161.692 45.1992 158.566L45.1814 158.53L45.1903 158.495C45.9007 156.004 46.5667 153.651 47.1705 151.52L47.2283 151.626C44.8307 150.822 42.6329 150.085 40.697 149.433L40.6704 149.424L40.6571 149.397C38.9166 146.049 37.5357 143.39 36.5856 141.561C36.1149 140.646 35.7464 139.94 35.4978 139.456C35.3779 139.221 35.2847 139.039 35.2181 138.91C35.1559 138.786 35.1248 138.719 35.1248 138.719V138.728Z" fill="#263238"/>
<path d="M139.416 155.36L136.668 155.48L126.78 176.943L111.142 184.74L111.888 192.789C111.888 192.789 131.14 189.237 135.939 186.551C140.739 183.865 146.857 166.411 146.857 166.411C146.889 166.536 140.353 155.369 140.353 155.369" fill="#FFBF9D"/>
<path d="M112.057 174.976L110.054 172.867C109.668 172.618 109.215 172.494 108.758 172.507L102.409 172.698C101.21 172.818 100.131 173.471 99.4693 174.479L97.1605 178.408C97.1605 178.408 95.6065 181.099 95.8063 181.751C96.1038 182.737 97.1472 182.537 97.1472 182.537C97.1472 182.537 97.3692 183.78 97.7821 184.034C98.4748 184.455 99.3228 184.131 99.3228 184.131C99.5537 184.606 100.047 184.926 100.575 184.886C100.681 184.877 100.792 184.859 100.903 184.824C101.658 184.597 101.996 183.137 101.996 183.137L105.215 182.542C105.215 182.542 109.837 185.632 111.471 187.661C113.1 189.686 117.371 188.141 117.371 188.141L118.97 180.504L112.061 174.976H112.057Z" fill="#FFBF9D"/>
<path d="M107.377 175.891C107.382 175.935 106.867 176.033 105.987 176.121C105.113 176.219 103.874 176.255 102.48 176.437L102.631 176.326C102.404 176.823 102.125 177.338 101.805 177.844C100.819 179.42 99.656 180.65 98.7503 181.458C97.8401 182.262 97.1829 182.635 97.1563 182.595C97.1208 182.546 97.7113 182.093 98.5549 181.25C99.3941 180.406 100.5 179.172 101.463 177.631C101.774 177.134 102.049 176.636 102.276 176.161L102.324 176.064L102.427 176.05C103.861 175.891 105.095 175.904 105.97 175.877C106.844 175.859 107.368 175.842 107.373 175.891H107.377Z" fill="#FF9A6C"/>
<path d="M107.524 178.919C107.533 178.959 107.097 179.123 106.329 179.238C105.561 179.349 104.456 179.385 103.221 179.132L103.448 179.003C103.319 179.38 103.168 179.767 102.986 180.153C102.316 181.56 101.37 182.635 100.597 183.288C99.8247 183.945 99.2564 184.22 99.2342 184.18C99.1987 184.127 99.7048 183.772 100.406 183.079C101.108 182.391 101.978 181.33 102.626 179.98C102.804 179.607 102.95 179.234 103.084 178.874L103.141 178.71L103.31 178.745C105.685 179.274 107.519 178.799 107.533 178.919H107.524Z" fill="#FF9A6C"/>
<path d="M115.582 180.486C113.695 179.607 111.808 178.732 109.917 177.853C109.131 177.489 108.314 177.116 107.452 177.12C106.52 177.12 105.654 177.564 104.828 177.991C103.812 178.515 102.795 179.043 101.782 179.567C101.618 179.651 101.436 179.753 101.378 179.931C101.303 180.162 101.472 180.402 101.64 180.575C103.163 182.115 105.898 182.226 107.541 180.814C108.03 182.146 108.536 183.505 109.45 184.584C110.365 185.667 111.79 186.431 113.184 186.174" fill="#FFBF9D"/>
<path d="M113.184 186.178C113.184 186.178 113.135 186.205 113.033 186.227C112.931 186.253 112.776 186.271 112.572 186.28C112.168 186.289 111.55 186.213 110.867 185.867C110.187 185.53 109.446 184.917 108.86 184.038C108.26 183.163 107.816 182.062 107.377 180.877L107.661 180.952C106.826 181.689 105.61 182.08 104.362 181.982C103.74 181.938 103.106 181.769 102.524 181.467C102.24 181.307 101.956 181.13 101.707 180.903C101.583 180.788 101.454 180.686 101.343 180.53C101.236 180.384 101.121 180.171 101.183 179.913C101.232 179.704 101.396 179.571 101.52 179.491C101.654 179.407 101.769 179.354 101.889 179.292C102.124 179.167 102.36 179.047 102.595 178.927C103.061 178.688 103.523 178.448 103.976 178.217C104.882 177.769 105.738 177.24 106.706 177.027C107.683 176.792 108.642 177.094 109.393 177.436C110.161 177.786 110.849 178.124 111.488 178.43C112.714 179.03 113.726 179.522 114.503 179.9C115.209 180.255 115.595 180.464 115.586 180.49C115.573 180.517 115.165 180.353 114.436 180.042C113.646 179.691 112.616 179.238 111.368 178.688C110.716 178.395 110.014 178.079 109.259 177.742C108.509 177.422 107.657 177.169 106.782 177.391C105.907 177.591 105.064 178.11 104.153 178.568C103.7 178.803 103.243 179.043 102.773 179.287C102.537 179.407 102.302 179.531 102.067 179.651C101.827 179.776 101.574 179.895 101.565 180.015C101.516 180.162 101.734 180.424 101.969 180.61C102.191 180.814 102.448 180.979 102.706 181.125C103.234 181.401 103.816 181.556 104.389 181.605C105.534 181.702 106.658 181.347 107.426 180.69L107.621 180.521L107.705 180.766C108.127 181.956 108.545 183.034 109.1 183.887C109.641 184.744 110.321 185.339 110.96 185.694C112.265 186.409 113.193 186.12 113.18 186.191L113.184 186.178Z" fill="#FF9A6C"/>
<path d="M191.47 108.758C191.817 104.451 192.785 100.198 192.913 95.8775C193.042 91.5573 192.212 86.993 189.415 83.6985C186.617 80.4041 181.476 78.8678 177.791 81.1233L176.818 84.7419C177.076 101.463 175.739 118.344 175.997 135.065C176.033 137.263 177.671 139.358 178.528 141.379C179.389 143.399 181.272 145.148 183.47 145.161C186.342 145.179 188.42 142.404 189.495 139.74C193.393 130.079 190.64 119.139 191.47 108.753V108.758Z" fill="#263238"/>
<path d="M182.617 85.6966C182.062 84.5866 181.494 83.4633 180.628 82.5753C179.762 81.6873 178.541 81.0612 177.311 81.2122C176.734 81.2832 176.13 81.5674 175.899 82.1046C175.668 82.6419 176.033 83.4011 176.614 83.3922L176.73 83.5077C177.942 84.7376 179.18 85.9452 180.441 87.1218C180.757 87.4193 181.09 87.7212 181.494 87.8766C181.902 88.032 182.408 88.0054 182.715 87.7035C183.225 87.1973 182.937 86.3404 182.613 85.6966H182.617Z" fill="#2952CE"/>
<path d="M184.766 90.092C180.823 84.5465 175.26 81.1321 168.48 80.5594C164.657 80.2352 163.019 80.9234 160.213 81.4829C157.407 82.0379 154.818 83.3477 153.016 85.5721C150.876 88.2139 149.024 91.2065 148.425 94.5498C147.812 97.9864 147.843 101.392 148.314 104.229C148.882 107.674 150.858 113.016 152.714 115.973L158.539 117.087C163.41 117.585 168.347 118.082 173.178 117.291C178.008 116.501 182.804 114.255 185.632 110.259C189.561 104.709 188.704 95.6332 184.762 90.092H184.766Z" fill="#263238"/>
<path d="M176.903 89.5017L165.439 84.0183L162.335 84.1693C155.409 83.7253 150.112 91.038 149.686 96.6457C149.211 102.875 148.882 110.498 149.557 115.16C150.92 124.533 158.752 125.839 158.752 125.839C158.752 125.839 158.255 130.749 157.989 133.848L176.117 133.769L179.802 92.8806C179.86 91.1712 178.599 89.706 176.903 89.5062V89.5017Z" fill="#FFBF9D"/>
<path d="M163.561 113.935C163.53 113.442 163.29 112.994 162.961 112.674C162.313 112.035 161.305 111.91 160.533 112.368C159.76 112.829 159.267 113.846 159.338 114.827C159.716 115.427 160.324 115.853 161.021 115.964C161.128 115.982 161.239 115.991 161.35 115.995C161.882 116.017 162.437 115.875 162.868 115.511C163.303 115.147 163.596 114.543 163.556 113.935H163.561Z" fill="#FF9A6C"/>
<path d="M151.635 105.161C151.604 105.796 152.115 106.343 152.776 106.387C153.433 106.431 153.997 105.956 154.028 105.321C154.059 104.686 153.549 104.14 152.887 104.096C152.226 104.051 151.666 104.531 151.635 105.161Z" fill="#263238"/>
<path d="M151.586 99.9045C151.733 100.064 152.652 99.4028 153.939 99.4206C155.227 99.4206 156.168 100.1 156.31 99.9401C156.381 99.869 156.231 99.5849 155.822 99.2829C155.418 98.9766 154.73 98.6791 153.926 98.6702C153.123 98.6658 152.443 98.9499 152.048 99.2474C151.648 99.5449 151.511 99.8291 151.582 99.9001L151.586 99.9045Z" fill="#263238"/>
<path d="M159.166 110.552C159.174 110.481 158.371 110.33 157.074 110.148C156.746 110.108 156.435 110.041 156.382 109.815C156.306 109.575 156.448 109.224 156.613 108.842C156.932 108.048 157.27 107.217 157.62 106.343C159.019 102.786 160.04 99.8602 159.894 99.8069C159.752 99.7536 158.5 102.591 157.096 106.147C156.759 107.026 156.435 107.861 156.129 108.66C156 109.033 155.778 109.455 155.942 109.952C156.026 110.201 156.266 110.383 156.479 110.441C156.688 110.507 156.874 110.512 157.039 110.525C158.344 110.614 159.157 110.627 159.166 110.556V110.552Z" fill="#263238"/>
<path d="M158.739 125.825C158.739 125.825 165.026 126.314 171.309 122.646C171.309 122.646 167.885 129.089 158.535 128.09L158.734 125.825H158.739Z" fill="#FF9A6C"/>
<path d="M162.953 111.493C162.744 111.48 162.722 112.878 161.51 113.86C160.302 114.841 158.81 114.663 158.797 114.859C158.775 114.947 159.125 115.134 159.756 115.16C160.373 115.192 161.279 115.001 162.02 114.406C162.762 113.806 163.086 112.994 163.139 112.421C163.201 111.835 163.05 111.489 162.953 111.493Z" fill="#263238"/>
<path d="M152.328 95.429C152.541 95.7487 153.531 95.5489 154.685 95.6599C155.844 95.7354 156.79 96.0862 157.047 95.8064C157.163 95.6688 157.038 95.3624 156.643 95.0383C156.253 94.7186 155.573 94.4167 154.778 94.3546C153.984 94.2924 153.269 94.4789 152.838 94.7364C152.399 94.9939 152.23 95.2781 152.323 95.4335L152.328 95.429Z" fill="#263238"/>
<path d="M164.809 105.508C164.8 106.143 164.254 106.658 163.592 106.658C162.931 106.658 162.402 106.152 162.411 105.517C162.42 104.882 162.966 104.367 163.628 104.367C164.289 104.367 164.818 104.877 164.809 105.508Z" fill="#263238"/>
<path d="M169.022 100.588C168.867 100.735 167.992 100.02 166.7 99.9578C165.413 99.8779 164.431 100.495 164.303 100.326C164.236 100.251 164.405 99.98 164.831 99.7003C165.253 99.4206 165.959 99.1675 166.762 99.2119C167.566 99.2563 168.228 99.5848 168.601 99.909C168.982 100.233 169.102 100.522 169.027 100.588H169.022Z" fill="#263238"/>
<path d="M168.529 96.4146C168.263 96.6944 167.282 96.3392 166.087 96.2681C164.893 96.1571 163.867 96.3525 163.65 96.0372C163.557 95.8818 163.73 95.5977 164.187 95.3446C164.636 95.0915 165.377 94.9006 166.198 94.9628C167.02 95.0294 167.717 95.3268 168.117 95.651C168.525 95.9751 168.649 96.2814 168.529 96.4191V96.4146Z" fill="#263238"/>
<path d="M177.138 108.429C177.147 107.732 177.978 106.103 178.666 106.001C180.508 105.739 183.816 105.93 183.785 110.596C183.745 116.972 177.352 115.618 177.338 115.436C177.329 115.294 177.098 110.836 177.138 108.429Z" fill="#FFBF9D"/>
<path d="M179.114 113.114C179.141 113.091 179.225 113.193 179.412 113.278C179.594 113.362 179.909 113.424 180.242 113.3C180.917 113.056 181.49 111.99 181.53 110.84C181.552 110.259 181.432 109.708 181.228 109.246C181.037 108.78 180.735 108.452 180.397 108.389C180.06 108.309 179.82 108.509 179.74 108.691C179.652 108.869 179.691 108.998 179.66 109.007C179.643 109.024 179.523 108.9 179.576 108.638C179.603 108.509 179.678 108.363 179.829 108.238C179.984 108.114 180.207 108.052 180.446 108.079C180.939 108.114 181.379 108.571 181.601 109.073C181.849 109.579 181.996 110.201 181.974 110.854C181.925 112.137 181.259 113.336 180.335 113.598C179.887 113.713 179.514 113.575 179.319 113.42C179.123 113.26 179.088 113.118 179.11 113.109L179.114 113.114Z" fill="#FF9A6C"/>
<path d="M178.923 106.036L177.196 107.599C170.678 100.455 158.193 82.8283 158.886 83.8762C158.886 83.8762 163.792 82.2378 168.916 83.4721C174.039 84.7064 183.692 87.9654 183.124 94.0704C182.56 100.171 178.923 106.036 178.923 106.036Z" fill="#263238"/>
<path d="M188.247 105.264C188.247 105.264 188.234 105.135 188.176 104.891C188.118 104.646 188.003 104.296 187.812 103.861C187.426 102.995 186.657 101.805 185.361 100.695C184.082 99.5582 182.275 98.5769 180.193 97.76C178.115 96.9252 175.757 96.2237 173.475 95.056C171.175 93.9238 169.151 92.5297 167.437 91.1133C165.732 89.6881 164.342 88.2362 163.272 86.9397C162.197 85.6432 161.434 84.5155 160.919 83.7251C160.683 83.3522 160.493 83.0458 160.342 82.806C160.208 82.5974 160.133 82.4908 160.124 82.4953C160.115 82.4997 160.168 82.6196 160.284 82.8371C160.404 83.0547 160.568 83.3832 160.812 83.7917C161.296 84.6042 162.038 85.7587 163.094 87.0818C164.151 88.4049 165.536 89.8878 167.246 91.3397C168.964 92.7783 171.006 94.1991 173.329 95.3402C175.642 96.5256 178.017 97.2183 180.082 98.0353C182.155 98.83 183.94 99.7713 185.214 100.864C186.506 101.934 187.288 103.075 187.701 103.909C188.114 104.753 188.22 105.268 188.251 105.259L188.247 105.264Z" fill="#455A64"/>
<path d="M186.333 106.138C186.333 106.138 186.431 105.623 186.183 104.735C185.943 103.852 185.272 102.631 183.998 101.583C182.737 100.504 180.886 99.7624 178.839 99.1453C176.779 98.5414 174.554 97.7999 172.396 96.61C170.238 95.429 168.329 94.0437 166.771 92.5874C165.204 91.1399 163.96 89.6659 163.015 88.3561C162.056 87.0551 161.43 85.9007 160.981 85.1193C160.786 84.7419 160.63 84.4355 160.502 84.1913C160.391 83.9827 160.324 83.8717 160.315 83.8761C160.306 83.8805 160.351 84.0004 160.444 84.218C160.555 84.4711 160.697 84.7863 160.87 85.1726C161.287 85.9762 161.887 87.1573 162.828 88.4848C163.761 89.8213 164.995 91.3264 166.567 92.8005C168.129 94.2835 170.061 95.6954 172.241 96.8897C174.421 98.093 176.699 98.8433 178.754 99.4294C180.801 100.029 182.617 100.73 183.856 101.756C185.112 102.755 185.796 103.918 186.063 104.766C186.347 105.619 186.294 106.138 186.338 106.134L186.333 106.138Z" fill="#455A64"/>
<path d="M177.986 116.776C177.986 116.732 178.533 116.701 179.487 116.519C180.437 116.324 181.8 115.84 183.177 114.774C184.566 113.726 185.85 112.035 186.822 109.948C187.79 107.856 188.451 105.366 188.696 102.715C188.811 101.387 188.798 100.086 188.651 98.8433C188.487 97.6001 188.198 96.4235 187.83 95.3312C187.066 93.1512 185.974 91.3485 184.886 89.9855C182.697 87.2371 180.797 86.0649 180.877 85.9806C180.886 85.9673 181.001 86.0383 181.214 86.1893C181.423 86.3402 181.751 86.5489 182.133 86.8641C182.91 87.4724 183.989 88.4359 185.117 89.8034C186.249 91.1665 187.39 92.9869 188.194 95.2069C188.58 96.3213 188.882 97.5246 189.055 98.7989C189.211 100.073 189.228 101.41 189.113 102.764C188.864 105.463 188.176 107.994 187.168 110.125C186.16 112.252 184.811 113.975 183.354 115.023C181.911 116.093 180.495 116.541 179.514 116.692C179.025 116.794 178.635 116.768 178.377 116.794C178.115 116.807 177.982 116.803 177.982 116.79L177.986 116.776Z" fill="#455A64"/>
<path d="M158.131 131.651L176.126 129.706L179.42 132.703L166.575 140.255L160.906 143.19L155.311 141.49L153.535 138.155L158.131 131.651Z" fill="#FFBF9D"/>
<path d="M133.879 153.557C133.879 153.557 139.518 142.733 140.917 140.366C143.297 136.335 147.737 134.053 147.737 134.053L158.131 131.646C158.131 131.646 157.052 136.854 163.521 137.214C171.748 137.671 176.859 129.781 176.859 129.781C176.859 129.781 186.245 130.749 188.838 131.837C191.431 132.925 198.761 135.993 199.84 145.743L202.353 161.66L182.52 163.17L182.795 184.362L192.554 201.057H144.686C145.437 201.256 148.074 190.108 146.343 181.299L143.075 173.369C141.769 170.194 140.957 166.829 140.761 163.401C140.633 161.145 140.695 159.436 140.695 159.436C140.695 159.436 135.607 157.687 133.875 153.553L133.879 153.557Z" fill="#2952CE"/>
<path d="M149.504 191.817L182.755 181.836L182.519 163.175L199.454 161.883C199.454 161.883 198.104 171.553 197.904 176.508C197.62 183.639 194.188 193.606 191.897 195.72C189.601 197.838 148.625 200.133 148.625 200.133L149.508 191.808L149.504 191.817Z" fill="#FFBF9D"/>
<path d="M130.647 197.687C130.922 198.139 131.442 198.41 131.961 198.322C132.063 198.304 132.174 198.273 132.285 198.228C133.013 197.931 132.827 196.412 132.827 196.412L136.366 195.551C136.366 195.551 141.258 198.197 143.07 200.058C144.882 201.922 148.989 199.982 148.989 199.982L149.863 192.23L142.804 186.773C142.804 186.773 143.234 187.097 142.697 186.018C142.155 184.939 140.117 185.521 140.117 185.521C139.753 184.993 138.381 184.899 138.381 184.899L132.645 186.014C131.464 186.245 130.447 186.995 129.888 188.061L127.739 192.123C127.739 192.123 126.664 195.014 126.922 195.644C127.312 196.599 128.329 196.301 128.329 196.301C128.329 196.301 128.755 198.113 129.244 198.139C129.732 198.166 130.651 197.687 130.651 197.687H130.647Z" fill="#FFBF9D"/>
<path d="M142.537 191.244C142.537 191.306 141.76 191.293 140.53 191.444C139.3 191.599 137.613 191.95 135.877 192.692C135.011 193.06 134.217 193.486 133.524 193.922C132.853 194.37 132.152 194.747 131.965 195.276C131.872 195.533 131.943 195.782 132.081 195.959C132.219 196.137 132.392 196.248 132.547 196.297C132.862 196.399 133.049 196.297 133.062 196.332C133.075 196.341 132.893 196.506 132.512 196.435C132.325 196.399 132.108 196.297 131.921 196.093C131.735 195.902 131.606 195.542 131.712 195.196C131.81 194.849 132.081 194.565 132.37 194.326C132.667 194.095 132.982 193.859 133.333 193.633C134.03 193.171 134.838 192.727 135.726 192.35C137.502 191.586 139.247 191.271 140.499 191.182C141.76 191.098 142.537 191.204 142.533 191.244H142.537Z" fill="#FF9A6C"/>
<path d="M143.23 194.903C143.23 195.014 140.868 195.098 137.991 195.489C135.109 195.871 132.809 196.417 132.782 196.31C132.769 196.261 133.333 196.066 134.261 195.826C135.189 195.586 136.49 195.316 137.942 195.12C139.394 194.925 140.721 194.841 141.68 194.827C142.639 194.809 143.234 194.854 143.234 194.903H143.23Z" fill="#FF9A6C"/>
<path d="M130.669 197.536C130.669 197.536 130.607 197.323 130.549 196.923C130.496 196.528 130.425 195.951 130.416 195.227C130.416 194.867 130.42 194.468 130.487 194.041C130.545 193.611 130.713 193.149 130.958 192.736C131.419 191.906 132.081 191.031 132.956 190.347C133.826 189.668 134.705 189.086 135.615 188.736C136.517 188.385 137.373 188.247 138.084 188.163C138.799 188.083 139.376 188.052 139.776 188.038C140.175 188.025 140.397 188.03 140.397 188.052C140.406 188.11 139.522 188.207 138.119 188.42C137.422 188.54 136.592 188.7 135.74 189.051C134.892 189.397 134.03 189.979 133.187 190.636C132.343 191.302 131.726 192.101 131.251 192.909C130.749 193.682 130.709 194.53 130.678 195.231C130.647 196.643 130.753 197.531 130.674 197.536H130.669Z" fill="#FF9A6C"/>
<path d="M138.213 186.391C138.217 186.445 137.351 186.538 135.984 186.804C134.67 187.111 132.543 187.373 131.473 189.304C130.287 191.076 129.293 192.736 128.902 194.068C128.485 195.391 128.6 196.279 128.52 196.275C128.502 196.275 128.449 196.062 128.44 195.662C128.427 195.267 128.467 194.681 128.649 193.993C128.986 192.594 129.972 190.871 131.162 189.091C131.468 188.642 131.801 188.216 132.201 187.865C132.596 187.51 133.071 187.284 133.511 187.12C134.403 186.791 135.238 186.649 135.935 186.538C137.334 186.334 138.208 186.338 138.208 186.383L138.213 186.391Z" fill="#FF9A6C"/>
<path d="M141.711 198.926C141.711 198.926 141.578 198.855 141.347 198.69C141.085 198.508 140.744 198.277 140.317 197.989C139.412 197.394 138.066 196.55 136.312 195.662L136.397 195.671C135.34 195.937 134.15 196.235 132.863 196.559L132.974 196.399C133.005 196.692 133.009 196.976 132.974 197.278C132.938 197.576 132.867 197.896 132.636 198.171C132.516 198.304 132.33 198.393 132.179 198.424C132.023 198.477 131.85 198.508 131.677 198.49C131.331 198.468 130.998 198.313 130.749 198.064C130.687 198.002 130.629 197.935 130.576 197.864L130.54 197.811L130.523 197.785L130.514 197.771C130.465 197.753 130.927 197.882 130.731 197.829H130.722L130.611 197.891C130.465 197.962 130.314 198.029 130.163 198.091C130.008 198.153 129.852 198.206 129.683 198.251C129.599 198.273 129.515 198.291 129.422 198.3C129.333 198.308 129.231 198.322 129.084 198.26C128.871 198.131 128.787 197.967 128.698 197.811C128.613 197.656 128.542 197.496 128.48 197.332C128.356 197.008 128.258 196.679 128.169 196.337L128.391 196.466C127.934 196.586 127.375 196.515 127.019 196.115C126.86 195.929 126.722 195.693 126.718 195.414C126.709 195.16 126.749 194.938 126.789 194.712C126.971 193.815 127.259 192.945 127.579 192.057V192.048L127.588 192.035C127.952 191.342 128.338 190.609 128.733 189.868C128.978 189.406 129.217 188.949 129.461 188.496C129.706 188.056 129.914 187.564 130.27 187.155C130.611 186.751 131.038 186.423 131.499 186.192C131.961 185.947 132.49 185.854 132.951 185.77C134.852 185.406 136.663 185.059 138.359 184.735H138.404C138.746 184.762 139.061 184.82 139.38 184.909C139.691 185.006 140.02 185.117 140.255 185.424L140.051 185.375C140.646 185.077 141.352 185.02 141.916 185.335C142.484 185.646 142.773 186.201 142.95 186.729L142.901 186.658C144.926 188.216 146.582 189.486 147.763 190.396C148.309 190.827 148.744 191.169 149.077 191.431C149.375 191.671 149.526 191.804 149.521 191.813C149.513 191.822 149.344 191.715 149.033 191.493C148.691 191.249 148.243 190.925 147.679 190.516C146.48 189.633 144.802 188.394 142.742 186.875L142.71 186.849L142.693 186.8C142.533 186.334 142.249 185.832 141.782 185.592C141.33 185.335 140.708 185.392 140.211 185.646L140.086 185.708L140.002 185.597C139.864 185.415 139.576 185.29 139.292 185.21C139.003 185.131 138.692 185.077 138.381 185.051H138.426C136.734 185.384 134.923 185.739 133.022 186.112C132.538 186.205 132.086 186.285 131.664 186.507C131.242 186.716 130.86 187.013 130.549 187.382C130.234 187.737 130.034 188.199 129.786 188.656C129.546 189.109 129.302 189.571 129.062 190.028C128.671 190.769 128.28 191.502 127.916 192.195L127.925 192.172C127.614 193.038 127.321 193.908 127.148 194.765C127.108 194.978 127.073 195.196 127.077 195.387C127.073 195.551 127.166 195.724 127.286 195.866C127.517 196.146 127.943 196.204 128.289 196.12L128.467 196.075L128.511 196.248C128.591 196.572 128.684 196.897 128.8 197.203C128.911 197.491 129.066 197.842 129.235 197.949C129.244 197.949 129.306 197.967 129.382 197.953C129.453 197.949 129.524 197.931 129.599 197.913C129.746 197.878 129.892 197.824 130.039 197.771C130.185 197.713 130.327 197.651 130.465 197.585L130.567 197.536H130.576C130.381 197.478 130.842 197.602 130.793 197.594L130.802 197.607L130.816 197.629L130.842 197.674C130.882 197.731 130.927 197.785 130.976 197.833C131.171 198.029 131.433 198.153 131.695 198.171C131.828 198.184 131.957 198.162 132.086 198.118C132.228 198.086 132.321 198.038 132.401 197.953C132.716 197.571 132.716 196.932 132.676 196.426L132.667 196.293L132.787 196.266C134.079 195.96 135.273 195.68 136.33 195.427L136.375 195.418L136.415 195.44C138.173 196.368 139.5 197.243 140.388 197.873C140.832 198.193 141.165 198.451 141.383 198.633C141.6 198.815 141.711 198.912 141.707 198.921L141.711 198.926Z" fill="#FF9A6C"/>
<path d="M88.9821 199.84L76.4124 166.833C75.9374 165.59 76.8564 164.258 78.184 164.258H118.544C119.281 164.258 119.951 164.684 120.262 165.35L132.348 196.834L157.7 197.265C158.748 197.265 159.596 198.113 159.596 199.161C159.596 200.208 158.748 201.057 157.7 201.057H90.7536C89.9678 201.057 89.2618 200.568 88.9821 199.836V199.84Z" fill="#455A64"/>
<path d="M106.063 182.662C106.063 184.122 104.878 185.308 103.417 185.308C101.956 185.308 100.771 184.122 100.771 182.662C100.771 181.201 101.956 180.015 103.417 180.015C104.878 180.015 106.063 181.201 106.063 182.662Z" fill="white"/>
<path d="M145.832 141.601C145.89 141.632 145.353 142.64 144.593 144.322C143.834 146.001 142.897 148.372 142.138 151.076C141.388 153.784 140.961 156.297 140.739 158.126C140.517 159.956 140.455 161.097 140.389 161.097C140.362 161.097 140.349 160.808 140.349 160.293C140.349 159.773 140.38 159.023 140.455 158.1C140.606 156.253 140.988 153.704 141.747 150.973C142.511 148.243 143.501 145.867 144.331 144.207C144.744 143.377 145.104 142.719 145.375 142.275C145.641 141.831 145.801 141.592 145.828 141.605L145.832 141.601Z" fill="#263238"/>
<path d="M202.353 161.665C202.353 161.665 202.211 161.7 201.945 161.727C201.638 161.758 201.243 161.798 200.755 161.843C199.671 161.931 198.171 162.06 196.31 162.215C192.479 162.504 187.182 162.904 181.108 163.361L180.912 163.374L180.899 163.179C180.77 161.159 180.637 159.028 180.499 156.839C180.282 153.02 180.1 149.384 180.042 146.072C179.869 142.737 180.686 139.696 181.991 137.534C183.283 135.336 185.002 134.061 186.254 133.44C186.893 133.138 187.404 132.938 187.763 132.854C188.118 132.752 188.309 132.707 188.309 132.721C188.327 132.774 187.555 132.929 186.325 133.577C185.113 134.235 183.47 135.513 182.235 137.676C180.988 139.816 180.22 142.768 180.411 146.063C180.491 149.366 180.686 153.002 180.899 156.816C181.032 159.005 181.165 161.137 181.29 163.152L181.081 162.97C187.155 162.571 192.456 162.22 196.293 161.962C198.157 161.856 199.658 161.767 200.746 161.705C201.239 161.683 201.634 161.665 201.94 161.652C202.211 161.643 202.353 161.647 202.358 161.656L202.353 161.665Z" fill="#263238"/>
<path d="M165.066 174.63C165.053 174.656 164.822 174.568 164.4 174.386C164.187 174.297 163.934 174.181 163.659 174.013C163.379 173.848 163.046 173.68 162.717 173.435C162.034 172.987 161.283 172.357 160.528 171.58C159.791 170.785 159.059 169.839 158.433 168.756C157.82 167.663 157.38 166.549 157.078 165.506C156.799 164.458 156.639 163.49 156.603 162.673C156.559 162.264 156.586 161.896 156.59 161.572C156.59 161.248 156.617 160.968 156.652 160.742C156.71 160.289 156.754 160.044 156.781 160.044C156.861 160.053 156.732 161.052 156.888 162.646C156.959 163.445 157.145 164.382 157.438 165.399C157.753 166.407 158.193 167.486 158.788 168.551C159.396 169.608 160.102 170.536 160.808 171.322C161.532 172.095 162.242 172.73 162.89 173.2C164.182 174.15 165.106 174.55 165.075 174.625L165.066 174.63Z" fill="#263238"/>
</svg>
