<svg width="143" height="132" viewBox="0 0 143 132" fill="none" xmlns="http://www.w3.org/2000/svg">
<path d="M136.951 22.992L136.094 21.562C128.833 9.47174 115.741 2.18611 101.937 3.07268C100.157 3.17645 98.3869 3.41544 96.6422 3.78766C84.0906 6.50815 73.1697 16.121 68.6446 28.433C65.9797 35.6721 65.2385 44.0088 60.1734 49.7572C53.6011 57.2359 42.4366 57.4683 32.6417 57.1608C22.8468 56.8534 11.6576 57.1143 5.11003 64.6216C1.02264 69.344 -0.279821 76.0505 0.048441 82.3281C0.923807 99.0014 12.4024 113.912 26.9836 121.323C41.5648 128.734 58.7509 129.395 74.7157 126.135C97.0834 121.57 118.357 109.029 131.142 89.6709C143.926 70.3128 147.163 43.898 136.951 22.992Z" fill="#FFE7EC"/>
<g clip-path="url(#clip0_2611_3775)">
<mask id="path-2-outside-1_2611_3775" maskUnits="userSpaceOnUse" x="4" y="2.31885" width="134" height="127" fill="black">
<rect fill="white" x="4" y="2.31885" width="134" height="127"/>
<path d="M5 3.35156C20.3087 3.34624 35.6175 3.34092 51.3901 3.33544C58.6548 3.33192 58.6548 3.33192 66.0663 3.32833C71.9565 3.32717 71.9565 3.32717 74.7094 3.32695C76.6421 3.32671 78.5748 3.32576 80.5076 3.32434C82.7337 3.3227 84.9597 3.32195 87.1858 3.32231C88.3258 3.32246 89.4659 3.32221 90.6059 3.32082C91.6348 3.31958 92.6637 3.3195 93.6926 3.32039C94.0664 3.3205 94.4403 3.32016 94.8141 3.31936C95.3199 3.31834 95.8256 3.31903 96.3313 3.31983C96.6131 3.31973 96.895 3.31964 97.1854 3.31954C97.8125 3.35156 97.8125 3.35156 98.0703 3.60937C98.0951 4.05958 98.1017 4.5108 98.1013 4.96169C98.1019 5.4015 98.1018 5.4015 98.1024 5.8502C98.1015 6.17472 98.1005 6.49924 98.0996 6.8336C98.0996 7.17311 98.0997 7.51261 98.0997 7.86241C98.0998 8.79614 98.0982 9.72986 98.0965 10.6636C98.0948 11.6384 98.0947 12.6132 98.0944 13.588C98.0936 15.4351 98.0915 17.2822 98.0889 19.1293C98.086 21.2317 98.0846 23.3341 98.0833 25.4364C98.0806 29.7623 98.076 34.0882 98.0703 38.4141C98.5728 38.4061 98.5728 38.4061 99.0854 38.3979C99.4346 38.3924 99.7841 38.3956 100.133 38.4141C100.571 38.8518 100.429 39.4175 100.436 40.0163C100.442 40.2947 100.448 40.573 100.455 40.8597C100.465 41.4438 100.474 42.0279 100.479 42.6121C100.541 45.0545 101.031 47.2489 102.734 49.0871C105.169 51.1287 107.612 51.5432 110.703 51.3047C113.31 50.6635 115.099 48.4978 116.87 46.6177C117.444 46.1152 117.684 45.9435 118.438 45.8906C118.984 46.2735 118.984 46.2735 119.576 46.8626C119.799 47.0813 120.022 47.2999 120.251 47.5252C120.608 47.8861 120.608 47.8861 120.972 48.2542C121.22 48.5009 121.468 48.7473 121.715 48.9936C122.234 49.5106 122.751 50.0299 123.266 50.5509C123.927 51.2192 124.593 51.8815 125.262 52.5422C125.774 53.0501 126.284 53.5611 126.792 54.073C127.156 54.438 127.522 54.8005 127.889 55.1629C128.217 55.4969 128.217 55.4969 128.551 55.8377C128.746 56.0332 128.94 56.2286 129.141 56.4299C129.523 56.9766 129.523 56.9766 129.496 57.5146C129.1 58.3616 128.426 58.9867 127.783 59.6514C125.728 61.8077 124.13 63.4897 123.997 66.6123C124.074 69.0077 124.997 71.2522 126.688 72.9609C129.838 75.5424 132.705 75.1023 137 75.2812C137 80.7262 137 86.1712 137 91.7812C133.937 91.9089 133.937 91.9089 130.812 92.0391C127.406 93.2779 126.138 94.1137 124.658 97.2547C123.843 99.2558 123.795 101.546 124.566 103.578C125.234 104.796 126.239 105.747 127.203 106.734C127.647 107.193 128.087 107.655 128.524 108.12C128.722 108.324 128.919 108.528 129.123 108.738C129.523 109.312 129.523 109.312 129.484 109.795C129.197 110.516 128.793 110.909 128.242 111.455C128.026 111.672 127.809 111.888 127.586 112.111C127.232 112.459 127.232 112.459 126.872 112.813C126.632 113.052 126.392 113.291 126.145 113.537C125.508 114.171 124.868 114.803 124.228 115.434C123.576 116.079 122.925 116.726 122.274 117.373C120.997 118.642 119.718 119.907 118.438 121.172C117.551 120.835 116.971 120.57 116.333 119.862C116.189 119.707 116.045 119.552 115.896 119.392C115.746 119.23 115.595 119.067 115.44 118.9C113.466 116.865 111.827 115.737 108.915 115.597C106.544 115.69 104.316 116.499 102.573 118.145C101.219 119.755 100.638 121.369 100.576 123.447C100.566 123.733 100.557 124.019 100.547 124.314C100.529 124.919 100.51 125.523 100.492 126.127C100.483 126.413 100.473 126.698 100.463 126.992C100.455 127.254 100.448 127.516 100.439 127.786C100.391 128.391 100.391 128.391 100.133 128.648C99.6265 128.673 99.1194 128.679 98.6126 128.678C98.2874 128.678 97.9622 128.678 97.6272 128.678C97.2697 128.676 96.9122 128.675 96.5547 128.674C96.1909 128.673 95.8271 128.673 95.4633 128.673C94.5041 128.672 93.545 128.669 92.5858 128.666C91.6078 128.663 90.6297 128.662 89.6516 128.661C87.7313 128.658 85.811 128.654 83.8906 128.648C83.8844 128.494 83.8782 128.339 83.8718 128.179C83.8427 127.47 83.8118 126.761 83.7809 126.051C83.7663 125.686 83.7663 125.686 83.7514 125.313C83.6134 122.221 83.1706 119.799 80.8351 117.636C78.8354 116.007 76.7929 115.561 74.2327 115.643C70.7791 116.078 68.6 118.751 66.3594 121.172C65.3494 120.829 64.733 120.416 63.9814 119.663C63.6731 119.357 63.6731 119.357 63.3586 119.045C63.1405 118.825 62.9224 118.604 62.6976 118.377C62.4712 118.151 62.2447 117.925 62.0114 117.691C61.4116 117.091 60.8136 116.488 60.2163 115.885C59.8494 115.516 59.4812 115.148 59.1124 114.78C58.4047 114.074 57.6987 113.366 56.9935 112.657C56.7733 112.437 56.5531 112.217 56.3263 111.99C56.124 111.786 55.9217 111.581 55.7133 111.37C55.5345 111.19 55.3558 111.01 55.1716 110.825C54.7578 110.344 54.7578 110.344 54.5 109.57C54.7971 109.116 54.7971 109.116 55.2573 108.62C55.4242 108.437 55.591 108.253 55.7629 108.065C56.1095 107.708 56.4648 107.36 56.8304 107.023C58.8846 105.124 60.0441 102.946 60.1699 100.128C60.1717 99.5801 60.1719 99.0322 60.1719 98.4844C41.9652 98.4844 23.7584 98.4844 5 98.4844C5 67.0905 5 35.6967 5 3.35156ZM6.28906 4.64062C6.28906 8.63929 6.28906 12.638 6.28906 16.7578C36.0664 16.7578 65.8438 16.7578 96.5234 16.7578C96.5234 12.7591 96.5234 8.76046 96.5234 4.64062C66.7461 4.64062 36.9688 4.64062 6.28906 4.64062ZM6.28906 18.0469C6.28906 44.1659 6.28906 70.2848 6.28906 97.1953C23.9002 97.1953 41.5114 97.1953 59.6562 97.1953C58.7645 94.966 57.468 93.357 55.2734 92.2969C53.505 91.7139 51.8387 91.7202 49.9883 91.749C49.7025 91.7513 49.4167 91.7537 49.1222 91.7561C48.4226 91.7621 47.723 91.7713 47.0234 91.7812C47.0234 90.42 47.0234 89.0587 47.0234 87.6562C30.4332 87.5286 30.4332 87.5286 13.5078 87.3984C13.5929 87.0581 13.678 86.7178 13.7656 86.3672C24.7407 86.2821 35.7158 86.197 47.0234 86.1094C47.0234 82.9615 47.0234 79.8136 47.0234 76.5703C36.0484 76.4852 25.0733 76.4001 13.7656 76.3125C13.7656 76.0573 13.7656 75.802 13.7656 75.5391C13.9663 75.5387 14.167 75.5383 14.3737 75.5379C19.2651 75.5283 24.1564 75.5131 29.0478 75.4916C31.4132 75.4814 33.7787 75.473 36.1441 75.4692C38.2068 75.4658 40.2694 75.4589 42.332 75.4476C43.4234 75.4418 44.5146 75.4378 45.606 75.438C46.6351 75.4382 47.6641 75.4336 48.6931 75.4253C49.069 75.4231 49.4449 75.4227 49.8208 75.4241C53.0053 75.4348 55.5228 74.9972 57.8667 72.7414C59.5548 70.8732 60.3642 68.777 60.4297 66.2578C60.3446 66.0876 60.2595 65.9175 60.1719 65.7422C44.8578 65.6571 29.5438 65.572 13.7656 65.4844C13.638 64.9739 13.638 64.9739 13.5078 64.4531C28.8219 64.368 44.1359 64.283 59.9141 64.1953C58.9289 62.225 58.2854 61.1039 56.7559 59.6997C56.4312 59.395 56.1075 59.0893 55.785 58.7822C55.6434 58.6515 55.5017 58.5207 55.3558 58.386C55.0156 58.0078 55.0156 58.0078 54.7578 57.2344C55.1183 56.7258 55.1183 56.7258 55.6279 56.187C56.3059 55.4786 56.3059 55.4786 56.8203 54.6562C42.6123 54.5712 28.4042 54.4861 13.7656 54.3984C13.7656 54.1432 13.7656 53.888 13.7656 53.625C14.1008 53.6326 14.1008 53.6326 14.4427 53.6404C19.9119 53.7625 25.3805 53.845 30.8509 53.8848C33.4967 53.905 36.1411 53.938 38.7862 54.0025C41.0953 54.0587 43.4032 54.0895 45.713 54.0915C46.9336 54.0934 48.1513 54.1068 49.3712 54.1509C55.7051 54.3791 55.7051 54.3791 61.0277 51.3139C62.2476 50.1182 63.378 48.8345 64.4163 47.4779C65.2053 46.4589 65.2053 46.4589 65.8951 46.1631C66.3594 46.1484 66.3594 46.1484 66.7946 46.4537C66.9365 46.6089 67.0783 46.764 67.2245 46.9239C67.3851 47.0934 67.5458 47.2629 67.7114 47.4375C67.8767 47.6183 68.0421 47.7991 68.2124 47.9853C69.9247 49.852 71.6939 51.4048 74.3123 51.6239C77.0363 51.6868 79.0326 51.236 81.1514 49.4678C83.0064 47.6717 83.5716 46.1225 83.8906 43.5703C63.7271 43.4427 63.7271 43.4427 43.1562 43.3125C43.1562 43.0573 43.1562 42.802 43.1562 42.5391C56.5986 42.454 70.0409 42.3689 83.8906 42.2812C83.8906 41.0051 83.8906 39.7289 83.8906 38.4141C88.0595 38.4141 92.2283 38.4141 96.5234 38.4141C96.5234 31.6929 96.5234 24.9717 96.5234 18.0469C66.7461 18.0469 36.9688 18.0469 6.28906 18.0469ZM85.1797 39.7031C85.0946 41.4898 85.0095 43.2764 84.9219 45.1172C84.1639 47.9524 82.8232 50.0328 80.2812 51.5625C77.8784 52.8329 75.2689 53.168 72.6234 52.5192C70.7274 51.9323 69.4743 50.94 68.0331 49.5816C67.3276 48.9258 66.5838 48.312 65.8438 47.6953C62.6959 50.8432 59.548 53.9911 56.3047 57.2344C57.21 58.2906 58.086 59.2863 59.0439 60.2798C60.8146 62.2353 61.5588 64.5328 61.5153 67.1551C61.2799 69.9671 60.0805 72.3922 58.061 74.3467C55.0705 76.7814 52.3568 76.3865 48.3125 76.5703C48.3125 81.1645 48.3125 85.7587 48.3125 90.4922C50.1842 90.5773 52.0559 90.6623 53.9844 90.75C56.5554 91.367 58.3505 92.6132 59.8849 94.7924C61.5355 97.6141 61.7527 100.368 61.0541 103.545C60.4735 105.318 59.299 106.521 58.0208 107.827C57.2481 108.609 57.2481 108.609 56.3047 109.828C59.4526 112.976 62.6005 116.124 65.8438 119.367C66.8999 118.462 67.8957 117.586 68.8892 116.628C70.7632 114.931 73.0082 114.109 75.547 114.157C78.3738 114.409 80.8718 115.43 82.8271 117.514C85.2512 120.493 84.9947 123.474 85.1797 127.359C89.6888 127.359 94.198 127.359 98.8438 127.359C98.9288 125.828 99.0139 124.297 99.1016 122.719C99.6388 119.75 100.619 117.681 103.103 115.888C105.68 114.325 108.622 113.867 111.559 114.512C114.249 115.347 116.047 117.376 117.922 119.367C119.228 118.274 120.452 117.13 121.651 115.921C121.826 115.746 122.001 115.571 122.181 115.39C122.733 114.836 123.284 114.282 123.835 113.728C124.212 113.349 124.589 112.971 124.966 112.594C125.884 111.672 126.802 110.75 127.719 109.828C127.473 109.54 127.227 109.252 126.981 108.964C126.844 108.804 126.707 108.643 126.566 108.478C126.093 107.932 125.601 107.407 125.108 106.879C122.906 104.412 122.635 101.973 122.775 98.7642C122.962 96.5318 124.105 94.6371 125.656 93.0703C128.745 90.5317 131.544 90.6816 135.711 90.4922C135.711 85.898 135.711 81.3037 135.711 76.5703C133.839 76.4852 131.967 76.4001 130.039 76.3125C127.464 75.6944 125.544 74.4493 124.13 72.1583C122.723 69.4154 122.366 66.6291 123 63.5951C123.722 61.5936 125.05 60.1925 126.521 58.7077C127.221 58.0323 127.221 58.0323 127.719 57.2344C124.571 54.0865 121.423 50.9386 118.18 47.6953C116.777 48.8789 116.777 48.8789 115.553 50.1445C113.776 51.9535 111.473 52.7451 108.995 52.916C106.092 52.8552 103.429 51.7919 101.387 49.7125C98.9121 46.7088 99.0601 43.5973 98.8438 39.7031C94.3346 39.7031 89.8255 39.7031 85.1797 39.7031Z"/>
</mask>
<path d="M5 3.35156C20.3087 3.34624 35.6175 3.34092 51.3901 3.33544C58.6548 3.33192 58.6548 3.33192 66.0663 3.32833C71.9565 3.32717 71.9565 3.32717 74.7094 3.32695C76.6421 3.32671 78.5748 3.32576 80.5076 3.32434C82.7337 3.3227 84.9597 3.32195 87.1858 3.32231C88.3258 3.32246 89.4659 3.32221 90.6059 3.32082C91.6348 3.31958 92.6637 3.3195 93.6926 3.32039C94.0664 3.3205 94.4403 3.32016 94.8141 3.31936C95.3199 3.31834 95.8256 3.31903 96.3313 3.31983C96.6131 3.31973 96.895 3.31964 97.1854 3.31954C97.8125 3.35156 97.8125 3.35156 98.0703 3.60937C98.0951 4.05958 98.1017 4.5108 98.1013 4.96169C98.1019 5.4015 98.1018 5.4015 98.1024 5.8502C98.1015 6.17472 98.1005 6.49924 98.0996 6.8336C98.0996 7.17311 98.0997 7.51261 98.0997 7.86241C98.0998 8.79614 98.0982 9.72986 98.0965 10.6636C98.0948 11.6384 98.0947 12.6132 98.0944 13.588C98.0936 15.4351 98.0915 17.2822 98.0889 19.1293C98.086 21.2317 98.0846 23.3341 98.0833 25.4364C98.0806 29.7623 98.076 34.0882 98.0703 38.4141C98.5728 38.4061 98.5728 38.4061 99.0854 38.3979C99.4346 38.3924 99.7841 38.3956 100.133 38.4141C100.571 38.8518 100.429 39.4175 100.436 40.0163C100.442 40.2947 100.448 40.573 100.455 40.8597C100.465 41.4438 100.474 42.0279 100.479 42.6121C100.541 45.0545 101.031 47.2489 102.734 49.0871C105.169 51.1287 107.612 51.5432 110.703 51.3047C113.31 50.6635 115.099 48.4978 116.87 46.6177C117.444 46.1152 117.684 45.9435 118.438 45.8906C118.984 46.2735 118.984 46.2735 119.576 46.8626C119.799 47.0813 120.022 47.2999 120.251 47.5252C120.608 47.8861 120.608 47.8861 120.972 48.2542C121.22 48.5009 121.468 48.7473 121.715 48.9936C122.234 49.5106 122.751 50.0299 123.266 50.5509C123.927 51.2192 124.593 51.8815 125.262 52.5422C125.774 53.0501 126.284 53.5611 126.792 54.073C127.156 54.438 127.522 54.8005 127.889 55.1629C128.217 55.4969 128.217 55.4969 128.551 55.8377C128.746 56.0332 128.94 56.2286 129.141 56.4299C129.523 56.9766 129.523 56.9766 129.496 57.5146C129.1 58.3616 128.426 58.9867 127.783 59.6514C125.728 61.8077 124.13 63.4897 123.997 66.6123C124.074 69.0077 124.997 71.2522 126.688 72.9609C129.838 75.5424 132.705 75.1023 137 75.2812C137 80.7262 137 86.1712 137 91.7812C133.937 91.9089 133.937 91.9089 130.812 92.0391C127.406 93.2779 126.138 94.1137 124.658 97.2547C123.843 99.2558 123.795 101.546 124.566 103.578C125.234 104.796 126.239 105.747 127.203 106.734C127.647 107.193 128.087 107.655 128.524 108.12C128.722 108.324 128.919 108.528 129.123 108.738C129.523 109.312 129.523 109.312 129.484 109.795C129.197 110.516 128.793 110.909 128.242 111.455C128.026 111.672 127.809 111.888 127.586 112.111C127.232 112.459 127.232 112.459 126.872 112.813C126.632 113.052 126.392 113.291 126.145 113.537C125.508 114.171 124.868 114.803 124.228 115.434C123.576 116.079 122.925 116.726 122.274 117.373C120.997 118.642 119.718 119.907 118.438 121.172C117.551 120.835 116.971 120.57 116.333 119.862C116.189 119.707 116.045 119.552 115.896 119.392C115.746 119.23 115.595 119.067 115.44 118.9C113.466 116.865 111.827 115.737 108.915 115.597C106.544 115.69 104.316 116.499 102.573 118.145C101.219 119.755 100.638 121.369 100.576 123.447C100.566 123.733 100.557 124.019 100.547 124.314C100.529 124.919 100.51 125.523 100.492 126.127C100.483 126.413 100.473 126.698 100.463 126.992C100.455 127.254 100.448 127.516 100.439 127.786C100.391 128.391 100.391 128.391 100.133 128.648C99.6265 128.673 99.1194 128.679 98.6126 128.678C98.2874 128.678 97.9622 128.678 97.6272 128.678C97.2697 128.676 96.9122 128.675 96.5547 128.674C96.1909 128.673 95.8271 128.673 95.4633 128.673C94.5041 128.672 93.545 128.669 92.5858 128.666C91.6078 128.663 90.6297 128.662 89.6516 128.661C87.7313 128.658 85.811 128.654 83.8906 128.648C83.8844 128.494 83.8782 128.339 83.8718 128.179C83.8427 127.47 83.8118 126.761 83.7809 126.051C83.7663 125.686 83.7663 125.686 83.7514 125.313C83.6134 122.221 83.1706 119.799 80.8351 117.636C78.8354 116.007 76.7929 115.561 74.2327 115.643C70.7791 116.078 68.6 118.751 66.3594 121.172C65.3494 120.829 64.733 120.416 63.9814 119.663C63.6731 119.357 63.6731 119.357 63.3586 119.045C63.1405 118.825 62.9224 118.604 62.6976 118.377C62.4712 118.151 62.2447 117.925 62.0114 117.691C61.4116 117.091 60.8136 116.488 60.2163 115.885C59.8494 115.516 59.4812 115.148 59.1124 114.78C58.4047 114.074 57.6987 113.366 56.9935 112.657C56.7733 112.437 56.5531 112.217 56.3263 111.99C56.124 111.786 55.9217 111.581 55.7133 111.37C55.5345 111.19 55.3558 111.01 55.1716 110.825C54.7578 110.344 54.7578 110.344 54.5 109.57C54.7971 109.116 54.7971 109.116 55.2573 108.62C55.4242 108.437 55.591 108.253 55.7629 108.065C56.1095 107.708 56.4648 107.36 56.8304 107.023C58.8846 105.124 60.0441 102.946 60.1699 100.128C60.1717 99.5801 60.1719 99.0322 60.1719 98.4844C41.9652 98.4844 23.7584 98.4844 5 98.4844C5 67.0905 5 35.6967 5 3.35156ZM6.28906 4.64062C6.28906 8.63929 6.28906 12.638 6.28906 16.7578C36.0664 16.7578 65.8438 16.7578 96.5234 16.7578C96.5234 12.7591 96.5234 8.76046 96.5234 4.64062C66.7461 4.64062 36.9688 4.64062 6.28906 4.64062ZM6.28906 18.0469C6.28906 44.1659 6.28906 70.2848 6.28906 97.1953C23.9002 97.1953 41.5114 97.1953 59.6562 97.1953C58.7645 94.966 57.468 93.357 55.2734 92.2969C53.505 91.7139 51.8387 91.7202 49.9883 91.749C49.7025 91.7513 49.4167 91.7537 49.1222 91.7561C48.4226 91.7621 47.723 91.7713 47.0234 91.7812C47.0234 90.42 47.0234 89.0587 47.0234 87.6562C30.4332 87.5286 30.4332 87.5286 13.5078 87.3984C13.5929 87.0581 13.678 86.7178 13.7656 86.3672C24.7407 86.2821 35.7158 86.197 47.0234 86.1094C47.0234 82.9615 47.0234 79.8136 47.0234 76.5703C36.0484 76.4852 25.0733 76.4001 13.7656 76.3125C13.7656 76.0573 13.7656 75.802 13.7656 75.5391C13.9663 75.5387 14.167 75.5383 14.3737 75.5379C19.2651 75.5283 24.1564 75.5131 29.0478 75.4916C31.4132 75.4814 33.7787 75.473 36.1441 75.4692C38.2068 75.4658 40.2694 75.4589 42.332 75.4476C43.4234 75.4418 44.5146 75.4378 45.606 75.438C46.6351 75.4382 47.6641 75.4336 48.6931 75.4253C49.069 75.4231 49.4449 75.4227 49.8208 75.4241C53.0053 75.4348 55.5228 74.9972 57.8667 72.7414C59.5548 70.8732 60.3642 68.777 60.4297 66.2578C60.3446 66.0876 60.2595 65.9175 60.1719 65.7422C44.8578 65.6571 29.5438 65.572 13.7656 65.4844C13.638 64.9739 13.638 64.9739 13.5078 64.4531C28.8219 64.368 44.1359 64.283 59.9141 64.1953C58.9289 62.225 58.2854 61.1039 56.7559 59.6997C56.4312 59.395 56.1075 59.0893 55.785 58.7822C55.6434 58.6515 55.5017 58.5207 55.3558 58.386C55.0156 58.0078 55.0156 58.0078 54.7578 57.2344C55.1183 56.7258 55.1183 56.7258 55.6279 56.187C56.3059 55.4786 56.3059 55.4786 56.8203 54.6562C42.6123 54.5712 28.4042 54.4861 13.7656 54.3984C13.7656 54.1432 13.7656 53.888 13.7656 53.625C14.1008 53.6326 14.1008 53.6326 14.4427 53.6404C19.9119 53.7625 25.3805 53.845 30.8509 53.8848C33.4967 53.905 36.1411 53.938 38.7862 54.0025C41.0953 54.0587 43.4032 54.0895 45.713 54.0915C46.9336 54.0934 48.1513 54.1068 49.3712 54.1509C55.7051 54.3791 55.7051 54.3791 61.0277 51.3139C62.2476 50.1182 63.378 48.8345 64.4163 47.4779C65.2053 46.4589 65.2053 46.4589 65.8951 46.1631C66.3594 46.1484 66.3594 46.1484 66.7946 46.4537C66.9365 46.6089 67.0783 46.764 67.2245 46.9239C67.3851 47.0934 67.5458 47.2629 67.7114 47.4375C67.8767 47.6183 68.0421 47.7991 68.2124 47.9853C69.9247 49.852 71.6939 51.4048 74.3123 51.6239C77.0363 51.6868 79.0326 51.236 81.1514 49.4678C83.0064 47.6717 83.5716 46.1225 83.8906 43.5703C63.7271 43.4427 63.7271 43.4427 43.1562 43.3125C43.1562 43.0573 43.1562 42.802 43.1562 42.5391C56.5986 42.454 70.0409 42.3689 83.8906 42.2812C83.8906 41.0051 83.8906 39.7289 83.8906 38.4141C88.0595 38.4141 92.2283 38.4141 96.5234 38.4141C96.5234 31.6929 96.5234 24.9717 96.5234 18.0469C66.7461 18.0469 36.9688 18.0469 6.28906 18.0469ZM85.1797 39.7031C85.0946 41.4898 85.0095 43.2764 84.9219 45.1172C84.1639 47.9524 82.8232 50.0328 80.2812 51.5625C77.8784 52.8329 75.2689 53.168 72.6234 52.5192C70.7274 51.9323 69.4743 50.94 68.0331 49.5816C67.3276 48.9258 66.5838 48.312 65.8438 47.6953C62.6959 50.8432 59.548 53.9911 56.3047 57.2344C57.21 58.2906 58.086 59.2863 59.0439 60.2798C60.8146 62.2353 61.5588 64.5328 61.5153 67.1551C61.2799 69.9671 60.0805 72.3922 58.061 74.3467C55.0705 76.7814 52.3568 76.3865 48.3125 76.5703C48.3125 81.1645 48.3125 85.7587 48.3125 90.4922C50.1842 90.5773 52.0559 90.6623 53.9844 90.75C56.5554 91.367 58.3505 92.6132 59.8849 94.7924C61.5355 97.6141 61.7527 100.368 61.0541 103.545C60.4735 105.318 59.299 106.521 58.0208 107.827C57.2481 108.609 57.2481 108.609 56.3047 109.828C59.4526 112.976 62.6005 116.124 65.8438 119.367C66.8999 118.462 67.8957 117.586 68.8892 116.628C70.7632 114.931 73.0082 114.109 75.547 114.157C78.3738 114.409 80.8718 115.43 82.8271 117.514C85.2512 120.493 84.9947 123.474 85.1797 127.359C89.6888 127.359 94.198 127.359 98.8438 127.359C98.9288 125.828 99.0139 124.297 99.1016 122.719C99.6388 119.75 100.619 117.681 103.103 115.888C105.68 114.325 108.622 113.867 111.559 114.512C114.249 115.347 116.047 117.376 117.922 119.367C119.228 118.274 120.452 117.13 121.651 115.921C121.826 115.746 122.001 115.571 122.181 115.39C122.733 114.836 123.284 114.282 123.835 113.728C124.212 113.349 124.589 112.971 124.966 112.594C125.884 111.672 126.802 110.75 127.719 109.828C127.473 109.54 127.227 109.252 126.981 108.964C126.844 108.804 126.707 108.643 126.566 108.478C126.093 107.932 125.601 107.407 125.108 106.879C122.906 104.412 122.635 101.973 122.775 98.7642C122.962 96.5318 124.105 94.6371 125.656 93.0703C128.745 90.5317 131.544 90.6816 135.711 90.4922C135.711 85.898 135.711 81.3037 135.711 76.5703C133.839 76.4852 131.967 76.4001 130.039 76.3125C127.464 75.6944 125.544 74.4493 124.13 72.1583C122.723 69.4154 122.366 66.6291 123 63.5951C123.722 61.5936 125.05 60.1925 126.521 58.7077C127.221 58.0323 127.221 58.0323 127.719 57.2344C124.571 54.0865 121.423 50.9386 118.18 47.6953C116.777 48.8789 116.777 48.8789 115.553 50.1445C113.776 51.9535 111.473 52.7451 108.995 52.916C106.092 52.8552 103.429 51.7919 101.387 49.7125C98.9121 46.7088 99.0601 43.5973 98.8438 39.7031C94.3346 39.7031 89.8255 39.7031 85.1797 39.7031Z" fill="#EC6980"/>
<path d="M5 3.35156C20.3087 3.34624 35.6175 3.34092 51.3901 3.33544C58.6548 3.33192 58.6548 3.33192 66.0663 3.32833C71.9565 3.32717 71.9565 3.32717 74.7094 3.32695C76.6421 3.32671 78.5748 3.32576 80.5076 3.32434C82.7337 3.3227 84.9597 3.32195 87.1858 3.32231C88.3258 3.32246 89.4659 3.32221 90.6059 3.32082C91.6348 3.31958 92.6637 3.3195 93.6926 3.32039C94.0664 3.3205 94.4403 3.32016 94.8141 3.31936C95.3199 3.31834 95.8256 3.31903 96.3313 3.31983C96.6131 3.31973 96.895 3.31964 97.1854 3.31954C97.8125 3.35156 97.8125 3.35156 98.0703 3.60937C98.0951 4.05958 98.1017 4.5108 98.1013 4.96169C98.1019 5.4015 98.1018 5.4015 98.1024 5.8502C98.1015 6.17472 98.1005 6.49924 98.0996 6.8336C98.0996 7.17311 98.0997 7.51261 98.0997 7.86241C98.0998 8.79614 98.0982 9.72986 98.0965 10.6636C98.0948 11.6384 98.0947 12.6132 98.0944 13.588C98.0936 15.4351 98.0915 17.2822 98.0889 19.1293C98.086 21.2317 98.0846 23.3341 98.0833 25.4364C98.0806 29.7623 98.076 34.0882 98.0703 38.4141C98.5728 38.4061 98.5728 38.4061 99.0854 38.3979C99.4346 38.3924 99.7841 38.3956 100.133 38.4141C100.571 38.8518 100.429 39.4175 100.436 40.0163C100.442 40.2947 100.448 40.573 100.455 40.8597C100.465 41.4438 100.474 42.0279 100.479 42.6121C100.541 45.0545 101.031 47.2489 102.734 49.0871C105.169 51.1287 107.612 51.5432 110.703 51.3047C113.31 50.6635 115.099 48.4978 116.87 46.6177C117.444 46.1152 117.684 45.9435 118.438 45.8906C118.984 46.2735 118.984 46.2735 119.576 46.8626C119.799 47.0813 120.022 47.2999 120.251 47.5252C120.608 47.8861 120.608 47.8861 120.972 48.2542C121.22 48.5009 121.468 48.7473 121.715 48.9936C122.234 49.5106 122.751 50.0299 123.266 50.5509C123.927 51.2192 124.593 51.8815 125.262 52.5422C125.774 53.0501 126.284 53.5611 126.792 54.073C127.156 54.438 127.522 54.8005 127.889 55.1629C128.217 55.4969 128.217 55.4969 128.551 55.8377C128.746 56.0332 128.94 56.2286 129.141 56.4299C129.523 56.9766 129.523 56.9766 129.496 57.5146C129.1 58.3616 128.426 58.9867 127.783 59.6514C125.728 61.8077 124.13 63.4897 123.997 66.6123C124.074 69.0077 124.997 71.2522 126.688 72.9609C129.838 75.5424 132.705 75.1023 137 75.2812C137 80.7262 137 86.1712 137 91.7812C133.937 91.9089 133.937 91.9089 130.812 92.0391C127.406 93.2779 126.138 94.1137 124.658 97.2547C123.843 99.2558 123.795 101.546 124.566 103.578C125.234 104.796 126.239 105.747 127.203 106.734C127.647 107.193 128.087 107.655 128.524 108.12C128.722 108.324 128.919 108.528 129.123 108.738C129.523 109.312 129.523 109.312 129.484 109.795C129.197 110.516 128.793 110.909 128.242 111.455C128.026 111.672 127.809 111.888 127.586 112.111C127.232 112.459 127.232 112.459 126.872 112.813C126.632 113.052 126.392 113.291 126.145 113.537C125.508 114.171 124.868 114.803 124.228 115.434C123.576 116.079 122.925 116.726 122.274 117.373C120.997 118.642 119.718 119.907 118.438 121.172C117.551 120.835 116.971 120.57 116.333 119.862C116.189 119.707 116.045 119.552 115.896 119.392C115.746 119.23 115.595 119.067 115.44 118.9C113.466 116.865 111.827 115.737 108.915 115.597C106.544 115.69 104.316 116.499 102.573 118.145C101.219 119.755 100.638 121.369 100.576 123.447C100.566 123.733 100.557 124.019 100.547 124.314C100.529 124.919 100.51 125.523 100.492 126.127C100.483 126.413 100.473 126.698 100.463 126.992C100.455 127.254 100.448 127.516 100.439 127.786C100.391 128.391 100.391 128.391 100.133 128.648C99.6265 128.673 99.1194 128.679 98.6126 128.678C98.2874 128.678 97.9622 128.678 97.6272 128.678C97.2697 128.676 96.9122 128.675 96.5547 128.674C96.1909 128.673 95.8271 128.673 95.4633 128.673C94.5041 128.672 93.545 128.669 92.5858 128.666C91.6078 128.663 90.6297 128.662 89.6516 128.661C87.7313 128.658 85.811 128.654 83.8906 128.648C83.8844 128.494 83.8782 128.339 83.8718 128.179C83.8427 127.47 83.8118 126.761 83.7809 126.051C83.7663 125.686 83.7663 125.686 83.7514 125.313C83.6134 122.221 83.1706 119.799 80.8351 117.636C78.8354 116.007 76.7929 115.561 74.2327 115.643C70.7791 116.078 68.6 118.751 66.3594 121.172C65.3494 120.829 64.733 120.416 63.9814 119.663C63.6731 119.357 63.6731 119.357 63.3586 119.045C63.1405 118.825 62.9224 118.604 62.6976 118.377C62.4712 118.151 62.2447 117.925 62.0114 117.691C61.4116 117.091 60.8136 116.488 60.2163 115.885C59.8494 115.516 59.4812 115.148 59.1124 114.78C58.4047 114.074 57.6987 113.366 56.9935 112.657C56.7733 112.437 56.5531 112.217 56.3263 111.99C56.124 111.786 55.9217 111.581 55.7133 111.37C55.5345 111.19 55.3558 111.01 55.1716 110.825C54.7578 110.344 54.7578 110.344 54.5 109.57C54.7971 109.116 54.7971 109.116 55.2573 108.62C55.4242 108.437 55.591 108.253 55.7629 108.065C56.1095 107.708 56.4648 107.36 56.8304 107.023C58.8846 105.124 60.0441 102.946 60.1699 100.128C60.1717 99.5801 60.1719 99.0322 60.1719 98.4844C41.9652 98.4844 23.7584 98.4844 5 98.4844C5 67.0905 5 35.6967 5 3.35156ZM6.28906 4.64062C6.28906 8.63929 6.28906 12.638 6.28906 16.7578C36.0664 16.7578 65.8438 16.7578 96.5234 16.7578C96.5234 12.7591 96.5234 8.76046 96.5234 4.64062C66.7461 4.64062 36.9688 4.64062 6.28906 4.64062ZM6.28906 18.0469C6.28906 44.1659 6.28906 70.2848 6.28906 97.1953C23.9002 97.1953 41.5114 97.1953 59.6562 97.1953C58.7645 94.966 57.468 93.357 55.2734 92.2969C53.505 91.7139 51.8387 91.7202 49.9883 91.749C49.7025 91.7513 49.4167 91.7537 49.1222 91.7561C48.4226 91.7621 47.723 91.7713 47.0234 91.7812C47.0234 90.42 47.0234 89.0587 47.0234 87.6562C30.4332 87.5286 30.4332 87.5286 13.5078 87.3984C13.5929 87.0581 13.678 86.7178 13.7656 86.3672C24.7407 86.2821 35.7158 86.197 47.0234 86.1094C47.0234 82.9615 47.0234 79.8136 47.0234 76.5703C36.0484 76.4852 25.0733 76.4001 13.7656 76.3125C13.7656 76.0573 13.7656 75.802 13.7656 75.5391C13.9663 75.5387 14.167 75.5383 14.3737 75.5379C19.2651 75.5283 24.1564 75.5131 29.0478 75.4916C31.4132 75.4814 33.7787 75.473 36.1441 75.4692C38.2068 75.4658 40.2694 75.4589 42.332 75.4476C43.4234 75.4418 44.5146 75.4378 45.606 75.438C46.6351 75.4382 47.6641 75.4336 48.6931 75.4253C49.069 75.4231 49.4449 75.4227 49.8208 75.4241C53.0053 75.4348 55.5228 74.9972 57.8667 72.7414C59.5548 70.8732 60.3642 68.777 60.4297 66.2578C60.3446 66.0876 60.2595 65.9175 60.1719 65.7422C44.8578 65.6571 29.5438 65.572 13.7656 65.4844C13.638 64.9739 13.638 64.9739 13.5078 64.4531C28.8219 64.368 44.1359 64.283 59.9141 64.1953C58.9289 62.225 58.2854 61.1039 56.7559 59.6997C56.4312 59.395 56.1075 59.0893 55.785 58.7822C55.6434 58.6515 55.5017 58.5207 55.3558 58.386C55.0156 58.0078 55.0156 58.0078 54.7578 57.2344C55.1183 56.7258 55.1183 56.7258 55.6279 56.187C56.3059 55.4786 56.3059 55.4786 56.8203 54.6562C42.6123 54.5712 28.4042 54.4861 13.7656 54.3984C13.7656 54.1432 13.7656 53.888 13.7656 53.625C14.1008 53.6326 14.1008 53.6326 14.4427 53.6404C19.9119 53.7625 25.3805 53.845 30.8509 53.8848C33.4967 53.905 36.1411 53.938 38.7862 54.0025C41.0953 54.0587 43.4032 54.0895 45.713 54.0915C46.9336 54.0934 48.1513 54.1068 49.3712 54.1509C55.7051 54.3791 55.7051 54.3791 61.0277 51.3139C62.2476 50.1182 63.378 48.8345 64.4163 47.4779C65.2053 46.4589 65.2053 46.4589 65.8951 46.1631C66.3594 46.1484 66.3594 46.1484 66.7946 46.4537C66.9365 46.6089 67.0783 46.764 67.2245 46.9239C67.3851 47.0934 67.5458 47.2629 67.7114 47.4375C67.8767 47.6183 68.0421 47.7991 68.2124 47.9853C69.9247 49.852 71.6939 51.4048 74.3123 51.6239C77.0363 51.6868 79.0326 51.236 81.1514 49.4678C83.0064 47.6717 83.5716 46.1225 83.8906 43.5703C63.7271 43.4427 63.7271 43.4427 43.1562 43.3125C43.1562 43.0573 43.1562 42.802 43.1562 42.5391C56.5986 42.454 70.0409 42.3689 83.8906 42.2812C83.8906 41.0051 83.8906 39.7289 83.8906 38.4141C88.0595 38.4141 92.2283 38.4141 96.5234 38.4141C96.5234 31.6929 96.5234 24.9717 96.5234 18.0469C66.7461 18.0469 36.9688 18.0469 6.28906 18.0469ZM85.1797 39.7031C85.0946 41.4898 85.0095 43.2764 84.9219 45.1172C84.1639 47.9524 82.8232 50.0328 80.2812 51.5625C77.8784 52.8329 75.2689 53.168 72.6234 52.5192C70.7274 51.9323 69.4743 50.94 68.0331 49.5816C67.3276 48.9258 66.5838 48.312 65.8438 47.6953C62.6959 50.8432 59.548 53.9911 56.3047 57.2344C57.21 58.2906 58.086 59.2863 59.0439 60.2798C60.8146 62.2353 61.5588 64.5328 61.5153 67.1551C61.2799 69.9671 60.0805 72.3922 58.061 74.3467C55.0705 76.7814 52.3568 76.3865 48.3125 76.5703C48.3125 81.1645 48.3125 85.7587 48.3125 90.4922C50.1842 90.5773 52.0559 90.6623 53.9844 90.75C56.5554 91.367 58.3505 92.6132 59.8849 94.7924C61.5355 97.6141 61.7527 100.368 61.0541 103.545C60.4735 105.318 59.299 106.521 58.0208 107.827C57.2481 108.609 57.2481 108.609 56.3047 109.828C59.4526 112.976 62.6005 116.124 65.8438 119.367C66.8999 118.462 67.8957 117.586 68.8892 116.628C70.7632 114.931 73.0082 114.109 75.547 114.157C78.3738 114.409 80.8718 115.43 82.8271 117.514C85.2512 120.493 84.9947 123.474 85.1797 127.359C89.6888 127.359 94.198 127.359 98.8438 127.359C98.9288 125.828 99.0139 124.297 99.1016 122.719C99.6388 119.75 100.619 117.681 103.103 115.888C105.68 114.325 108.622 113.867 111.559 114.512C114.249 115.347 116.047 117.376 117.922 119.367C119.228 118.274 120.452 117.13 121.651 115.921C121.826 115.746 122.001 115.571 122.181 115.39C122.733 114.836 123.284 114.282 123.835 113.728C124.212 113.349 124.589 112.971 124.966 112.594C125.884 111.672 126.802 110.75 127.719 109.828C127.473 109.54 127.227 109.252 126.981 108.964C126.844 108.804 126.707 108.643 126.566 108.478C126.093 107.932 125.601 107.407 125.108 106.879C122.906 104.412 122.635 101.973 122.775 98.7642C122.962 96.5318 124.105 94.6371 125.656 93.0703C128.745 90.5317 131.544 90.6816 135.711 90.4922C135.711 85.898 135.711 81.3037 135.711 76.5703C133.839 76.4852 131.967 76.4001 130.039 76.3125C127.464 75.6944 125.544 74.4493 124.13 72.1583C122.723 69.4154 122.366 66.6291 123 63.5951C123.722 61.5936 125.05 60.1925 126.521 58.7077C127.221 58.0323 127.221 58.0323 127.719 57.2344C124.571 54.0865 121.423 50.9386 118.18 47.6953C116.777 48.8789 116.777 48.8789 115.553 50.1445C113.776 51.9535 111.473 52.7451 108.995 52.916C106.092 52.8552 103.429 51.7919 101.387 49.7125C98.9121 46.7088 99.0601 43.5973 98.8438 39.7031C94.3346 39.7031 89.8255 39.7031 85.1797 39.7031Z" stroke="#EC6980" mask="url(#path-2-outside-1_2611_3775)"/>
<path d="M15.4511 41.9992V41.9992L16.1852 42.002L16.1857 42.002L16.9549 42.0019L16.955 42.0019L15.4511 41.9992ZM15.4511 41.9992L15.4498 41.9992M15.4511 41.9992L15.4498 41.9992M15.4498 41.9992C15.305 41.9995 15.1545 41.9889 14.9923 41.9776C14.9789 41.9766 14.9656 41.9757 14.9521 41.9747C14.7786 41.9627 14.5927 41.9507 14.4096 41.9558C14.0415 41.966 13.6477 42.0456 13.331 42.3623L13.2309 42.4624L13.2653 42.5997L13.5231 43.631L13.5704 43.8204H13.7656H13.8175H13.8694H13.9212H13.9731H14.0249H14.0768H14.1286H14.1804H14.2323H14.2841H14.3359H14.3877H14.4395H14.4913H14.5431H14.5949H14.6466H14.6984H14.7502H14.8019H14.8537H14.9054H14.9572H15.0089H15.0607H15.1124H15.1641H15.2158H15.2675H15.3192H15.3709H15.4226H15.4743H15.526H15.5777H15.6293H15.681H15.7327H15.7843H15.836H15.8876H15.9392H15.9909H16.0425H16.0941H16.1457H16.1974H16.249H16.3006H16.3522H16.4037H16.4553H16.5069H16.5585H16.61H16.6616H16.7132H16.7647H16.8163H16.8678H16.9193H16.9709H17.0224H17.0739H17.1254H17.1769H17.2284H17.2799H17.3314H17.3829H17.4344H17.4859H17.5374H17.5888H17.6403H17.6917H17.7432H17.7946H17.8461H17.8975H17.949H18.0004H18.0518H18.1032H18.1546H18.206H18.2574H18.3088H18.3602H18.4116H18.463H18.5144H18.5658H18.6171H18.6685H18.7198H18.7712H18.8226H18.8739H18.9252H18.9766H19.0279H19.0792H19.1305H19.1819H19.2332H19.2845H19.3358H19.3871H19.4384H19.4897H19.5409H19.5922H19.6435H19.6948H19.746H19.7973H19.8485H19.8998H19.951H20.0023H20.0535H20.1047H20.156H20.2072H20.2584H20.3096H20.3608H20.412H20.4632H20.5144H20.5656H20.6168H20.668H20.7192H20.7703H20.8215H20.8727H20.9238H20.975H21.0262H21.0773H21.1284H21.1796H21.2307H21.2818H21.333H21.3841H21.4352H21.4863H21.5374H21.5885H21.6396H21.6907H21.7418H21.7929H21.844H21.8951H21.9462H21.9972H22.0483H22.0994H22.1504H22.2015H22.2525H22.3036H22.3546H22.4057H22.4567H22.5077H22.5588H22.6098H22.6608H22.7118H22.7628H22.8138H22.8648H22.9158H22.9668H23.0178H23.0688H23.1198H23.1708H23.2218H23.2727H23.3237H23.3747H23.4256H23.4766H23.5275H23.5785H23.6294H23.6804H23.7313H23.7823H23.8332H23.8841H23.935H23.986H24.0369H24.0878H24.1387H24.1896H24.2405H24.2914H24.3423H24.3932H24.4441H24.495H24.5459H24.5967H24.6476H24.6985H24.7494H24.8002H24.8511H24.9019H24.9528H25.0036H25.0545H25.1053H25.1562H25.207H25.2578H25.3087H25.3595H25.4103H25.4611H25.512H25.5628H25.6136H25.6644H25.7152H25.766H25.8168H25.8676H25.9184H25.9692H26.0199H26.0707H26.1215H26.1723H26.2231H26.2738H26.3246H26.3753H26.4261H26.4769H26.5276H26.5784H26.6291H26.6799H26.7306H26.7813H26.8321H26.8828H26.9335H26.9843H27.035H27.0857H27.1364H27.1871H27.2378H27.2886H27.3393H27.39H27.4407H27.4914H27.5421H27.5927H27.6434H27.6941H27.7448H27.7955H27.8462H27.8968H27.9475H27.9982H28.0488H28.0995H28.1502H28.2008H28.2515H28.3021H28.3528H28.4034H28.4541H28.5047H28.5554H28.606H28.6566H28.7073H28.7579H28.8085H28.8591H28.9098H28.9604H29.011H29.0616H29.1122H29.1628H29.2134H29.264H29.3146H29.3652H29.4158H29.4664H29.517H29.5676H29.6182H29.6688H29.7194H29.77H29.8205H29.8711H29.9217H29.9723H30.0228H30.0734H30.124H30.1745H30.2251H30.2756H30.3262H30.3767H30.4273H30.4778H30.5284H30.5789H30.6295H30.68H30.7306H30.7811H30.8316H30.8822H30.9327H30.9832H31.0337H31.0843H31.1348H31.1853H31.2358H31.2863H31.3369H31.3874H31.4379H31.4884H31.5389H31.5894H31.6399H31.6904H31.7409H31.7914H31.8419H31.8924H31.9429H31.9934H32.0439H32.0943H32.1448H32.1953H32.2458H32.2963H32.3468H32.3972H32.4477H32.4982H32.5486H32.5991H32.6496H32.7H32.7505H32.801H32.8514H32.9019H32.9523H33.0028H33.0533H33.1037H33.1542H33.2046H33.2551H33.3055H33.356H33.4064H33.4568H33.5073H33.5577H33.6082H33.6586H33.709H33.7595H33.8099H33.8603H33.9108H33.9612H34.0116H34.062H34.1125H34.1629H34.2133H34.2637H34.3141H34.3646H34.415H34.4654H34.5158H34.5662H34.6166H34.667H34.7174H34.7679H34.8183H34.8687H34.9191H34.9695H35.0199H35.0703H35.1207H35.1711H35.2215H35.2719H35.3223H35.3727H35.423H35.4734H35.5238H35.5742H35.6246H35.675H35.7254H35.7758H35.8262H35.8765H35.9269H35.9773H36.0277H36.0781H36.1285H36.1788H36.2292H36.2796H36.33H36.3803H36.4307H36.4811H36.5315H36.5818H36.6322H36.6826H36.733H36.7833H36.8337H36.8841H36.9344H36.9848H37.0352H37.0855H37.1359H37.1863H37.2366H37.287H37.3374H37.3877H37.4381H37.4884H37.5388H37.5892H37.6395H37.6899H37.7402H37.7906H37.841H37.8913H37.9417H37.992H38.0424H38.0927H38.1431H38.1935H38.2438H38.2942H38.3445H38.3949H38.4452H38.4956H38.5459H38.5963H38.6466H38.697H38.7473H38.7977H38.848H38.8984H38.9487H38.9991H39.0494H39.0998H39.1501H39.2005H39.2508H39.3012H39.3515H39.4019H39.4522H39.5026H39.5529H39.6033H39.6536H39.704H39.7543H39.8047H40.0547V43.5704V43.5678V43.5652V43.5627V43.5601V43.5575V43.555V43.5524V43.5498V43.5473V43.5447V43.5421V43.5396V43.537V43.5344V43.5319V43.5293V43.5267V43.5242V43.5216V43.5191V43.5165V43.5139V43.5114V43.5088V43.5063V43.5037V43.5011V43.4986V43.496V43.4935V43.4909V43.4883V43.4858V43.4832V43.4807V43.4781V43.4755V43.473V43.4704V43.4679V43.4653V43.4628V43.4602V43.4576V43.4551V43.4525V43.45V43.4474V43.4449V43.4423V43.4398V43.4372V43.4347V43.4321V43.4295V43.427V43.4244V43.4219V43.4193V43.4168V43.4142V43.4117V43.4091V43.4066V43.404V43.4015V43.3989V43.3964V43.3938V43.3913V43.3887V43.3862V43.3836V43.3811V43.3785V43.376V43.3735V43.3709V43.3684V43.3658V43.3633V43.3607V43.3582V43.3556V43.3531V43.3505V43.348V43.3454V43.3429V43.3404V43.3378V43.3353V43.3327V43.3302V43.3276V43.3251V43.3226V43.32V43.3175V43.3149V43.3124V43.3099V43.3073V43.3048V43.3022V43.2997V43.2972V43.2946V43.2921V43.2895V43.287V43.2845V43.2819V43.2794V43.2768V43.2743V43.2718V43.2692V43.2667V43.2642V43.2616V43.2591V43.2565V43.254V43.2515V43.2489V43.2464V43.2439V43.2413V43.2388V43.2363V43.2337V43.2312V43.2287V43.2261V43.2236V43.2211V43.2185V43.216V43.2135V43.2109V43.2084V43.2059V43.2033V43.2008V43.1983V43.1957V43.1932V43.1907V43.1881V43.1856V43.1831V43.1806V43.178V43.1755V43.173V43.1704V43.1679V43.1654V43.1629V43.1603V43.1578V43.1553V43.1527V43.1502V43.1477V43.1452V43.1426V43.1401V43.1376V43.1351V43.1325V43.13V43.1275V43.125V43.1224V43.1199V43.1174V43.1149V43.1123V43.1098V43.1073V43.1048V43.1022V43.0997V43.0972V43.0947V43.0921V43.0896V43.0871V43.0846V43.0821V43.0795V43.077V43.0745V43.072V43.0694V43.0669V43.0644V43.0619V43.0594V43.0568V43.0543V43.0518V43.0493V43.0468V43.0442V43.0417V43.0392V43.0367V43.0342V43.0316V43.0291V43.0266V43.0241V43.0216V43.0191V43.0165V43.014V43.0115V43.009V43.0065V43.004V43.0014V42.9989V42.9964V42.9939V42.9914V42.9889V42.9863V42.9838V42.9813V42.9788V42.9763V42.9738V42.9713V42.9687V42.9662V42.9637V42.9612V42.9587V42.9562V42.9537V42.9511V42.9486V42.9461V42.9436V42.9411V42.9386V42.9361V42.9336V42.931V42.9285V42.926V42.9235V42.921V42.9185V42.916V42.9135V42.911V42.9084V42.9059V42.9034V42.9009V42.8984V42.8959V42.8934V42.8909V42.8884V42.8859V42.8833V42.8808V42.8783V42.8758V42.8733V42.8708V42.8683V42.8658V42.8633V42.8608V42.8583V42.8557V42.8532V42.8507V42.8482V42.8457V42.8432V42.8407V42.8382V42.8357V42.8332V42.8307V42.8282V42.8257V42.8232V42.8207V42.8181V42.8156V42.8131V42.8106V42.8081V42.8056V42.8031V42.8006V42.7981V42.7956V42.7931V42.7906V42.7881V42.7856V42.7831V42.7806V42.7781V42.7756V42.7731V42.7706V42.7681V42.7655V42.763V42.7605V42.758V42.7555V42.753V42.7505V42.748V42.7455V42.743V42.7405V42.738V42.7355V42.733V42.7305V42.728V42.7255V42.723V42.7205V42.718V42.7155V42.713V42.7105V42.708V42.7055V42.703V42.7005V42.698V42.6955V42.693V42.6905V42.688V42.6855V42.683V42.6805V42.678V42.6755V42.673V42.6705V42.668V42.6655V42.663V42.6605V42.658V42.6555V42.653V42.6505V42.648V42.6455V42.643V42.6405V42.638V42.6355V42.633V42.6305V42.628V42.6255V42.623V42.6205V42.618V42.6155V42.613V42.6105V42.608V42.6055V42.603V42.6005V42.598V42.5955V42.5931V42.5906V42.5881V42.5856V42.5831V42.5806V42.5781V42.5756V42.5731V42.5706V42.5681V42.5656V42.5631V42.5606V42.5581V42.5556V42.5531V42.5506V42.5481V42.5456V42.5431V42.5406V42.5381V42.5356V42.5331V42.5306V42.5282V42.5257V42.5232V42.5207V42.5182V42.5157V42.5132V42.5107V42.5082V42.5057V42.5032V42.5007V42.4982V42.4957V42.4932V42.4907V42.4882V42.4857V42.4832V42.4808V42.4783V42.4758V42.4733V42.4708V42.4683V42.4658V42.4633V42.4608V42.4583V42.4558V42.4533V42.4508V42.4483V42.4458V42.4433V42.4408V42.4384V42.4359V42.4334V42.4309V42.4284V42.4259V42.4234V42.4209V42.4184V42.4159V42.4134V42.4109V42.4084V42.4059V42.4034V42.401V42.3985V42.396V42.3935V42.391V42.3885V42.386V42.3835V42.381V42.3785V42.376V42.3735V42.371V42.3685V42.366V42.3636V42.3611V42.3586V42.3561V42.3536V42.3511V42.3486V42.3461V42.3436V42.3411V42.3386V42.3361V42.3336V42.3312V42.3287V42.3262V42.3237V42.3212V42.3187V42.3162V42.3137V42.3112V42.3087V42.3062V42.3037V42.3012V42.2987V42.2963V42.2938V42.2913V42.2888V42.2863V42.2838V42.2813V42.0317M15.4498 41.9992L40.0547 42.0317M40.0547 42.0317L39.8051 42.0313M40.0547 42.0317L39.8051 42.0313M39.8051 42.0313C36.7239 42.0259 33.6427 42.0215 30.5614 42.0187L30.2047 42.0184M39.8051 42.0313L30.2047 42.0184M30.2047 42.0184C28.7545 42.0172 27.3045 42.016 25.8545 42.0136L30.2047 42.0184ZM21.2373 42.0072C20.6539 42.007 20.0706 42.0066 19.4872 42.0061L25.8545 42.0136C24.3155 42.0107 22.7764 42.0082 21.2373 42.0072L21.2373 42.0072Z" fill="#EC6980" stroke="#EC6980" stroke-width="0.5"/>
<path d="M29.75 26.0391C31.5162 26.1504 32.9172 26.8554 34.4873 27.6343C34.7475 27.7554 35.0077 27.8766 35.2758 28.0014C37.1559 28.9287 37.1559 28.9287 37.5267 29.9999C37.5127 30.2242 37.4988 30.4486 37.4844 30.6797C35.7285 31.7031 33.9669 32.7162 32.167 33.6606C31.8031 33.8526 31.8031 33.8526 31.4318 34.0484C30.7266 34.3093 30.4391 34.3014 29.75 34.0312C29.75 33.6059 29.75 33.1805 29.75 32.7422C31.4516 31.8914 33.1531 31.0406 34.9062 30.1641C34.1934 29.6294 33.6462 29.2448 32.8719 28.8639C32.6892 28.7734 32.5064 28.6828 32.3181 28.5895C32.13 28.4976 31.9418 28.4057 31.748 28.311C31.556 28.2162 31.3639 28.1213 31.166 28.0235C30.6944 27.7908 30.2223 27.5593 29.75 27.3281C29.75 26.9027 29.75 26.4773 29.75 26.0391Z" fill="#EC6980"/>
<path d="M21.7578 26.039C21.7578 26.4643 21.7578 26.8897 21.7578 27.328C19.2055 28.6042 19.2055 28.6042 16.6016 29.9061C17.3029 30.4321 17.8115 30.7978 18.5704 31.161C18.7404 31.2457 18.9104 31.3305 19.0855 31.4178C19.44 31.5925 19.7959 31.7643 20.153 31.9334C21.4462 32.587 21.4462 32.587 21.7467 33.4531C21.7504 33.6438 21.754 33.8346 21.7578 34.0311C21.0363 34.3264 20.7615 34.3026 20.0219 34.0146C19.7589 33.8745 19.496 33.7344 19.225 33.59C18.9387 33.4392 18.6524 33.2883 18.3574 33.1328C18.0598 32.972 17.7622 32.8111 17.4556 32.6454C17.155 32.4865 16.8544 32.3277 16.5447 32.164C14.3333 30.9894 14.3333 30.9894 14.0234 30.6796C14.013 30.25 14.0124 29.8201 14.0234 29.3905C14.8075 28.9767 15.5917 28.5632 16.376 28.1498C16.5967 28.0333 16.8173 27.9168 17.0447 27.7968C17.6698 27.4674 18.2957 27.1398 18.9219 26.8124C19.2143 26.6582 19.5068 26.504 19.8081 26.3451C20.5183 26.016 20.9846 25.9707 21.7578 26.039Z" fill="#EC6980"/>
<path d="M27.4297 23.2031C27.8617 23.2769 28.2918 23.3624 28.7188 23.4609C28.5721 24.9535 28.1525 26.1999 27.5899 27.5849C27.5044 27.7998 27.4189 28.0147 27.3309 28.2361C27.0595 28.9171 26.7855 29.597 26.5113 30.2769C26.326 30.7405 26.1408 31.2043 25.9559 31.6681C25.5039 32.8004 25.0495 33.9317 24.5938 35.0625C24.1684 35.0625 23.743 35.0625 23.3047 35.0625C23.0212 34.2186 23.0669 33.7704 23.3922 32.9479C23.474 32.7372 23.5558 32.5265 23.64 32.3094C23.7308 32.0843 23.8215 31.8593 23.915 31.6273C24.0063 31.3948 24.0977 31.1623 24.1917 30.9227C24.4842 30.1799 24.7808 29.4389 25.0772 28.6978C25.2752 28.1955 25.4729 27.6931 25.6704 27.1907C25.8585 26.7144 26.0468 26.2382 26.2354 25.7621C26.3251 25.5355 26.4148 25.3088 26.5072 25.0753C26.5906 24.867 26.674 24.6588 26.7599 24.4442C26.8334 24.2601 26.9069 24.076 26.9826 23.8863C27.1719 23.4609 27.1719 23.4609 27.4297 23.2031Z" fill="#EC6980"/>
<path d="M106.062 58.0078C106.403 58.178 106.743 58.3481 107.094 58.5234C106.728 59.6584 106.176 60.3266 105.337 61.166C105.008 61.503 105.008 61.503 104.672 61.8468C103.98 62.4066 103.584 62.5669 102.711 62.6484C102.534 62.1953 102.534 62.1953 102.453 61.6172C102.759 61.1197 102.759 61.1197 103.227 60.6182C103.392 60.4407 103.557 60.2632 103.727 60.0804C104.472 59.3424 105.25 58.6709 106.062 58.0078Z" fill="#EC6980"/>
<path d="M77.4453 58.0078C78.6257 58.2302 79.2775 58.9245 80.104 59.748C80.3216 59.9514 80.3216 59.9514 80.5436 60.1589C80.955 60.5658 80.955 60.5658 81.5703 61.3594C81.5331 62.1046 81.5331 62.1046 81.3125 62.6484C80.1322 62.4261 79.4803 61.7317 78.6538 60.9082C78.5087 60.7726 78.3637 60.637 78.2142 60.4973C77.8028 60.0905 77.8028 60.0905 77.1875 59.2969C77.2248 58.5516 77.2248 58.5516 77.4453 58.0078Z" fill="#EC6980"/>
<path d="M20.7265 9.28122C21.2099 9.57126 21.2099 9.57126 21.5 10.0547C21.6128 10.8281 21.6128 10.8281 21.5 11.6015C21.081 12.101 21.081 12.101 20.4687 12.375C19.6631 12.3427 19.6631 12.3427 18.9218 12.1172C18.3662 11.2838 18.2854 11.0211 18.4062 10.0547C18.9901 9.11397 19.6871 9.15129 20.7265 9.28122Z" fill="#EC6980"/>
<path d="M27.9453 9.28124C28.4448 9.7163 28.4448 9.7163 28.7188 10.3125C28.6831 11.0431 28.5449 11.469 28.1548 12.085C27.6875 12.375 27.6875 12.375 26.898 12.3267C26.1407 12.1172 26.1407 12.1172 25.625 11.6016C25.5399 10.8014 25.4947 10.2718 25.9151 9.57128C26.6333 9.14031 27.1255 9.16168 27.9453 9.28124Z" fill="#EC6980"/>
<path d="M12.8633 9.2168C13.7656 9.28125 13.7656 9.28125 14.2812 9.79688C14.3779 10.6831 14.3779 10.6831 14.2812 11.6016C13.8462 12.1172 13.8462 12.1172 13.25 12.375C12.3811 12.3129 12.0672 12.2234 11.4453 11.6016C11.3809 10.6992 11.3809 10.6992 11.4453 9.79688C11.9609 9.28125 11.9609 9.28125 12.8633 9.2168Z" fill="#EC6980"/>
<path d="M91.625 54.6562C91.9653 54.6562 92.3056 54.6562 92.6562 54.6562C92.6562 56.528 92.6562 58.3997 92.6562 60.3281C92.401 60.4132 92.1458 60.4983 91.8828 60.5859C91.7126 60.5009 91.5425 60.4158 91.3672 60.3281C91.3597 59.4312 91.3551 58.5342 91.351 57.6372C91.3489 57.3811 91.3467 57.1251 91.3445 56.8613C91.3437 56.6178 91.3428 56.3744 91.342 56.1236C91.3406 55.8981 91.3393 55.6726 91.3379 55.4403C91.3672 54.9141 91.3672 54.9141 91.625 54.6562Z" fill="#EC6980"/>
<path d="M107.366 73.567C107.526 74.1047 107.497 74.6666 107.239 75.1719C106.883 75.6834 106.457 76.0397 105.842 76.1739C105.387 76.2284 104.926 76.2209 104.536 75.9563C103.839 75.3387 103.839 75.3387 103.71 75.049C103.618 74.9019 103.618 74.9019 103.423 74.8899C103.344 74.8905 103.265 74.8911 103.183 74.8917C103.05 74.8918 103.05 74.8918 102.913 74.8918C102.816 74.8932 102.719 74.8946 102.62 74.8961C102.472 74.8966 102.472 74.8966 102.32 74.8972C102.058 74.8983 101.795 74.9009 101.532 74.9039C101.264 74.9067 100.996 74.908 100.728 74.9093C100.202 74.9123 99.6763 74.9169 99.1504 74.9226C99.1985 74.9463 99.2467 74.9699 99.2963 74.9943C101.093 75.8794 101.093 75.8794 101.769 76.3099C101.839 76.3548 101.91 76.3996 101.983 76.4458C105.941 79.0092 108.85 83.0908 109.886 87.7006C109.983 88.1543 110.066 88.6099 110.14 89.0677C110.58 89.1068 111.01 89.1266 111.451 89.1187C111.741 89.1249 111.913 89.2514 112.112 89.4579C112.317 89.7887 112.269 90.1903 112.265 90.5672C112.266 90.6598 112.266 90.7523 112.266 90.8476C112.267 91.043 112.266 91.2384 112.264 91.4337C112.262 91.7325 112.264 92.031 112.267 92.3298C112.267 92.5198 112.266 92.7098 112.265 92.8998C112.266 92.989 112.267 93.0782 112.268 93.1701C112.257 93.8609 112.257 93.8609 112.037 94.1292C111.721 94.38 111.342 94.3484 110.956 94.3449C110.825 94.3487 110.693 94.3528 110.562 94.3571C110.201 94.3638 109.841 94.3673 109.48 94.3699C109.326 94.3714 109.171 94.3736 109.016 94.3766C108.791 94.3809 108.565 94.3827 108.34 94.384C108.271 94.3858 108.203 94.3876 108.132 94.3895C107.757 94.3886 107.464 94.3579 107.179 94.0985C106.996 93.8119 107.033 93.4771 107.039 93.148C107.036 93.0129 107.032 92.8778 107.028 92.7427C107.022 92.3694 107.019 91.9961 107.017 91.6227C107.016 91.4624 107.014 91.3021 107.011 91.1418C107.008 90.9084 107.006 90.675 107.005 90.4416C107.004 90.3703 107.002 90.2989 107.001 90.2254C107.002 89.7938 107.048 89.5519 107.365 89.2309C107.765 89.0535 108.241 89.1127 108.671 89.1221C108.359 85.8869 106.638 82.646 104.428 80.3086C104.365 80.2421 104.303 80.1755 104.239 80.107C103.159 78.9892 101.944 78.0696 100.619 77.262C100.568 77.2304 100.516 77.1988 100.463 77.1663C98.8918 76.2201 97.0484 75.5206 95.2333 75.249C95.194 75.3399 95.1547 75.4308 95.1143 75.5245C94.7137 76.3956 94.0419 76.9487 93.1659 77.3164C92.2737 77.6043 91.3836 77.49 90.5526 77.0697C89.8134 76.6299 89.2816 75.9666 89.0312 75.1402C88.9821 75.1637 88.9329 75.1872 88.8822 75.2114C88.6469 75.3048 88.4178 75.3661 88.1722 75.4254C83.8592 76.4673 80.1452 79.1981 77.817 82.9695C76.6785 84.87 75.9548 86.8959 75.539 89.0677C75.5882 89.0713 75.6375 89.0749 75.6882 89.0786C75.8115 89.0878 75.9348 89.0975 76.0579 89.1077C76.2078 89.1192 76.3579 89.1265 76.5081 89.1323C76.8199 89.1928 76.9567 89.2656 77.1711 89.5029C77.201 89.673 77.201 89.673 77.2092 89.8725C77.2124 89.9454 77.2157 90.0184 77.219 90.0935C77.2212 90.1679 77.2233 90.2423 77.2255 90.319C77.2276 90.3864 77.2297 90.4538 77.2319 90.5233C77.2428 90.9635 77.2451 91.4039 77.2475 91.8443C77.2487 92.0046 77.2506 92.1649 77.2531 92.3252C77.2568 92.5586 77.2583 92.792 77.2593 93.0254C77.2608 93.0967 77.2623 93.1681 77.2639 93.2416C77.2631 93.5722 77.2455 93.7634 77.0874 94.0601C76.6748 94.4457 76.1275 94.36 75.594 94.3574C75.5105 94.3574 75.427 94.3574 75.3409 94.3574C75.1649 94.3572 74.9889 94.3568 74.8129 94.3561C74.5427 94.3551 74.2726 94.355 74.0024 94.355C73.8313 94.3547 73.6603 94.3544 73.4893 94.354C73.4082 94.354 73.3271 94.3539 73.2435 94.3539C73.1687 94.3535 73.0939 94.3532 73.0168 94.3528C72.9178 94.3525 72.9178 94.3525 72.8168 94.3522C72.5282 94.3392 72.3508 94.2204 72.151 94.0124C72.0275 93.8057 72.0249 93.6562 72.0172 93.4158C72.0141 93.3238 72.011 93.2319 72.0079 93.1371C71.9976 92.5925 71.9947 92.048 71.9956 91.5034C71.9959 91.3028 71.9956 91.1021 71.9953 90.9015C71.9953 90.7732 71.9954 90.6449 71.9955 90.5166C71.9954 90.457 71.9953 90.3974 71.9952 90.336C71.9971 89.6933 71.9971 89.6933 72.2271 89.3805C72.5408 89.0825 72.897 89.1161 73.3084 89.1221C73.3817 89.1215 73.455 89.1208 73.5305 89.1202C73.7104 89.1189 73.8901 89.1196 74.0701 89.1221C74.1701 88.7718 74.255 88.4268 74.3194 88.0677C74.5737 86.6641 75.0538 85.3554 75.6478 84.0625C75.6888 83.9714 75.7298 83.8803 75.7721 83.7865C76.356 82.5537 77.1175 81.359 77.9872 80.3086C78.0341 80.2498 78.081 80.191 78.1293 80.1303C79.9235 77.9468 82.1918 76.3827 84.6999 75.1296C84.7777 75.0907 84.8554 75.0519 84.9355 75.0118C84.9945 74.9824 85.0534 74.9529 85.1141 74.9226C84.5353 74.9163 83.9565 74.9115 83.3776 74.9085C83.1088 74.9071 82.8401 74.9052 82.5713 74.9021C82.2625 74.8986 81.9536 74.8973 81.6448 74.8961C81.548 74.8947 81.4513 74.8932 81.3516 74.8918C81.2623 74.8918 81.173 74.8918 81.081 74.8917C81.0021 74.8911 80.9232 74.8905 80.842 74.8899C80.6463 74.902 80.6463 74.902 80.5542 75.0491C80.533 75.0971 80.5117 75.1452 80.4898 75.1946C80.045 75.7254 79.6177 76.1334 78.912 76.2283C78.2979 76.2239 77.8536 76.0446 77.4057 75.6265C77.0303 75.2343 76.8007 74.8212 76.7818 74.2659C76.8162 73.6211 77.0605 73.2093 77.5181 72.7627C77.9433 72.3823 78.3688 72.2454 78.9333 72.2623C79.5955 72.3472 80.0038 72.6947 80.4354 73.1817C80.4671 73.2469 80.4988 73.3122 80.5315 73.3794C80.7324 73.5886 80.773 73.5916 81.0499 73.6083C81.1957 73.6094 81.3416 73.6084 81.4874 73.6058C81.6068 73.6058 81.6068 73.6058 81.7287 73.6059C81.9922 73.6057 82.2556 73.6027 82.5191 73.5997C82.7017 73.599 82.8842 73.5985 83.0668 73.5981C83.5476 73.5966 84.0283 73.5929 84.509 73.5887C84.9995 73.5848 85.49 73.583 85.9804 73.5811C86.943 73.577 87.9055 73.5706 88.868 73.5625C89.0161 73.2727 89.0161 73.2727 89.1458 72.9745C89.4318 72.2796 90.0811 71.6444 90.7517 71.3115C91.6967 70.9379 92.5238 70.9261 93.4673 71.3009C94.2011 71.6339 94.8031 72.2748 95.1075 73.0151C95.1499 73.137 95.1499 73.137 95.1931 73.2614C95.2669 73.4635 95.2669 73.4635 95.4356 73.5192C95.615 73.5627 95.7688 73.5769 95.9531 73.5782C96.02 73.5789 96.0869 73.5796 96.1558 73.5803C96.2285 73.5805 96.3011 73.5807 96.376 73.5809C96.4531 73.5815 96.5302 73.5822 96.6096 73.5828C96.8644 73.5847 97.1192 73.5857 97.374 73.5865C97.461 73.5869 97.548 73.5873 97.6376 73.5877C98.0975 73.5896 98.5575 73.5909 99.0174 73.5916C99.4932 73.5925 99.969 73.5957 100.445 73.5994C100.81 73.6019 101.176 73.6026 101.541 73.6029C101.716 73.6033 101.892 73.6044 102.067 73.6061C102.312 73.6083 102.557 73.6082 102.802 73.6075C102.875 73.6087 102.948 73.6099 103.023 73.6111C103.209 73.6092 103.376 73.6044 103.557 73.5625C103.739 73.3906 103.739 73.3906 103.829 73.1817C104.278 72.6448 104.704 72.4145 105.376 72.2534C106.268 72.2656 106.973 72.7669 107.366 73.567ZM105.427 73.5897C105.117 73.6961 105.023 73.8239 104.863 74.1066C104.82 74.3226 104.852 74.41 104.944 74.6098C105.123 74.8061 105.256 74.8322 105.516 74.8682C105.801 74.8394 105.801 74.8394 105.968 74.6132C106.116 74.3988 106.116 74.3988 106.162 74.2154C106.051 73.835 105.804 73.6304 105.427 73.5897ZM91.7414 72.3862C91.1983 72.4746 90.8291 72.8086 90.5001 73.2361C90.2161 73.7892 90.149 74.3269 90.3325 74.9211C90.5237 75.3957 90.8165 75.7221 91.2754 75.9495C91.899 76.2008 92.3723 76.2058 93.0027 75.9563C93.4883 75.6946 93.7579 75.3523 93.9321 74.837C94.0698 74.323 94.0813 73.9009 93.8638 73.4074C93.3831 72.5795 92.6675 72.2927 91.7414 72.3862ZM110.571 90.4699C110.476 90.4704 110.38 90.471 110.282 90.4716C110.232 90.4717 110.181 90.4719 110.129 90.4721C109.967 90.4727 109.805 90.474 109.644 90.4754C109.534 90.476 109.424 90.4765 109.315 90.4769C109.046 90.4781 108.777 90.48 108.508 90.4822C108.396 90.7587 108.386 90.9959 108.388 91.2928C108.389 91.385 108.389 91.4772 108.39 91.5722C108.39 91.6681 108.391 91.7639 108.392 91.8627C108.393 91.9598 108.393 92.057 108.394 92.1571C108.395 92.3967 108.397 92.6363 108.399 92.876C108.676 92.9877 108.913 92.9974 109.21 92.9954C109.302 92.9951 109.394 92.9947 109.489 92.9944C109.585 92.9935 109.681 92.9925 109.78 92.9916C109.877 92.9911 109.974 92.9906 110.074 92.9901C110.314 92.9888 110.553 92.987 110.793 92.9848C110.903 92.7101 110.916 92.4729 110.916 92.1781C110.916 92.0405 110.916 92.0405 110.917 91.9001C110.916 91.8047 110.916 91.7094 110.915 91.6111C110.916 91.5149 110.916 91.4187 110.917 91.3195C110.916 91.1824 110.916 91.1824 110.916 91.0424C110.916 90.9584 110.916 90.8745 110.916 90.788C110.895 90.5036 110.855 90.4857 110.571 90.4699ZM78.5312 73.6713C78.3199 73.8755 78.2137 74.0045 78.1878 74.3004C78.2872 74.5608 78.424 74.6947 78.64 74.8682C78.8008 74.9362 78.8008 74.9362 78.9664 74.8682C79.1561 74.7213 79.2756 74.6282 79.4017 74.433C79.4202 74.1544 79.3906 74.0118 79.2419 73.7767C78.9892 73.6169 78.8232 73.6245 78.5312 73.6713ZM75.6395 90.476C75.5395 90.4763 75.4395 90.4766 75.3365 90.4769C75.2834 90.477 75.2303 90.4771 75.1757 90.4771C75.0055 90.4774 74.8353 90.4781 74.6651 90.4788C74.55 90.4791 74.435 90.4793 74.3199 90.4796C74.0371 90.4802 73.7544 90.4811 73.4716 90.4822C73.3599 90.7587 73.3502 90.9959 73.3522 91.2927C73.3525 91.385 73.3529 91.4772 73.3533 91.5722C73.3542 91.6681 73.3551 91.7639 73.356 91.8627C73.3565 91.9598 73.357 92.057 73.3575 92.1571C73.3588 92.3967 73.3606 92.6363 73.3628 92.876C73.6461 92.9918 73.8927 92.9974 74.1972 92.9954C74.2943 92.9951 74.3914 92.9947 74.4915 92.9944C74.5925 92.9935 74.6936 92.9925 74.7977 92.9916C74.9011 92.9911 75.0044 92.9906 75.1078 92.9901C75.3603 92.9888 75.6129 92.987 75.8654 92.9848C75.9142 92.4439 75.9281 91.9092 75.9266 91.3663C75.9268 91.2869 75.927 91.2075 75.9272 91.1257C75.9272 91.0505 75.9271 90.9754 75.927 90.8979C75.927 90.8297 75.9269 90.7616 75.9268 90.6914C75.9157 90.4472 75.8982 90.4831 75.6395 90.476Z" fill="#EC6980"/>
<path d="M94.4537 79.3374C94.5432 79.5318 94.6271 79.7278 94.7092 79.9255C94.741 79.9999 94.7727 80.0743 94.8054 80.151C94.9101 80.397 95.0136 80.6434 95.1171 80.8899C95.191 81.0643 95.2651 81.2387 95.3392 81.413C95.5349 81.8738 95.7297 82.3351 95.9241 82.7964C96.1168 83.2531 96.3103 83.7095 96.5037 84.1658C96.58 84.3457 96.6562 84.5255 96.7324 84.7054C96.77 84.794 96.8076 84.8826 96.8463 84.9739C96.9601 85.2426 97.0739 85.5113 97.1876 85.78C97.8685 87.3879 98.5616 88.9904 99.259 90.5913C99.3517 90.8041 99.4444 91.0169 99.537 91.2297C99.5586 91.2793 99.5802 91.3289 99.6024 91.38C99.7798 91.7875 99.9564 92.1954 100.133 92.6034C100.21 92.7814 100.287 92.9593 100.365 93.1371C100.481 93.4032 100.596 93.6697 100.711 93.9363C100.746 94.0154 100.781 94.0946 100.817 94.1761C100.848 94.2494 100.88 94.3227 100.912 94.3982C100.94 94.4618 100.967 94.5254 100.996 94.591C101.099 94.9239 101.083 95.2045 100.943 95.5213C100.918 95.5783 100.893 95.6353 100.867 95.6941C100.839 95.7554 100.812 95.8168 100.783 95.88C100.754 95.9458 100.725 96.0116 100.695 96.0795C100.632 96.2233 100.568 96.367 100.504 96.5105C100.399 96.7448 100.295 96.9796 100.191 97.2144C99.9678 97.7206 99.7427 98.2261 99.5174 98.7315C99.4023 98.9901 99.2872 99.2487 99.1722 99.5073C99.099 99.6717 99.0257 99.836 98.9524 100C98.8057 100.329 98.6592 100.658 98.5159 100.988C98.4775 101.077 98.4392 101.165 98.3996 101.256C98.3688 101.327 98.3381 101.399 98.3064 101.473C98.2253 101.635 98.2253 101.635 98.0621 101.799C98.0917 101.852 98.1213 101.906 98.1517 101.961C98.3284 102.338 98.4552 102.727 98.5866 103.122C98.6153 103.207 98.644 103.293 98.6735 103.381C98.7338 103.561 98.794 103.742 98.854 103.922C98.946 104.199 99.039 104.475 99.1319 104.751C99.1905 104.926 99.249 105.102 99.3075 105.277C99.3353 105.36 99.3632 105.443 99.3919 105.528C99.4174 105.605 99.4428 105.682 99.469 105.761C99.4916 105.829 99.5141 105.896 99.5373 105.966C99.5857 106.152 99.6003 106.286 99.5854 106.477C99.4251 106.736 99.3568 106.827 99.0958 106.967C98.6543 107.042 98.2162 107.034 97.7695 107.03C97.633 107.031 97.4965 107.032 97.36 107.033C96.99 107.035 96.62 107.034 96.2499 107.033C95.8624 107.031 95.4749 107.033 95.0874 107.033C94.4367 107.034 93.786 107.033 93.1353 107.031C92.3833 107.028 91.6314 107.029 90.8794 107.032C90.2334 107.034 89.5874 107.034 88.9414 107.033C88.5558 107.032 88.1701 107.032 87.7844 107.034C87.4218 107.035 87.0593 107.034 86.6967 107.031C86.5637 107.031 86.4307 107.031 86.2977 107.032C85.1677 107.04 85.1677 107.04 84.842 106.732C84.6787 106.477 84.6787 106.477 84.6566 106.26C84.7708 105.853 84.897 105.452 85.0321 105.051C85.062 104.961 85.0918 104.872 85.1226 104.78C85.1856 104.591 85.2488 104.402 85.3123 104.213C85.4098 103.924 85.5064 103.634 85.6028 103.343C85.6642 103.16 85.7255 102.977 85.787 102.793C85.816 102.706 85.845 102.619 85.8749 102.529C85.9019 102.449 85.929 102.369 85.9569 102.286C85.9806 102.216 86.0044 102.145 86.0288 102.072C86.0932 101.907 86.0932 101.907 86.202 101.799C86.1532 101.728 86.1532 101.728 86.1033 101.657C85.9922 101.484 85.906 101.317 85.8221 101.13C85.7919 101.063 85.7616 100.996 85.7304 100.927C85.6981 100.854 85.6658 100.782 85.6325 100.707C85.5982 100.631 85.564 100.555 85.5287 100.476C85.4173 100.228 85.3064 99.9796 85.1955 99.7312C85.1579 99.647 85.1203 99.5628 85.0815 99.4761C84.8545 98.9684 84.6281 98.4604 84.4021 97.9522C84.3057 97.7358 84.209 97.5195 84.1122 97.3033C83.9801 97.0084 83.8489 96.7133 83.7185 96.4178C83.6721 96.313 83.6255 96.2083 83.5785 96.1038C83.5144 95.9608 83.4514 95.8172 83.3885 95.6736C83.3537 95.5949 83.3188 95.5163 83.2829 95.4352C83.1127 94.9242 83.2757 94.5663 83.4826 94.0977C83.5119 94.0296 83.5412 93.9615 83.5714 93.8914C83.6697 93.6634 83.7692 93.436 83.8686 93.2086C83.9391 93.0458 84.0095 92.8829 84.0798 92.72C84.2706 92.2787 84.4623 91.8378 84.6542 91.397C84.8541 90.9373 85.0533 90.4772 85.2524 90.0172C85.2926 89.9245 85.3327 89.8319 85.374 89.7365C85.4352 89.595 85.4965 89.4535 85.5577 89.312C85.6821 89.0248 85.8065 88.7376 85.931 88.4504C86.4854 87.1716 87.0353 85.8909 87.5809 84.6083C87.695 84.34 87.8092 84.0718 87.9234 83.8036C88.3586 82.7822 88.3586 82.7822 88.7922 81.7602C88.9593 81.3655 89.1271 80.9711 89.2954 80.577C89.3569 80.4327 89.418 80.2883 89.4789 80.1438C89.5618 79.9471 89.6456 79.7508 89.7297 79.5547C89.7535 79.4975 89.7773 79.4403 89.8018 79.3814C89.937 79.0693 90.0725 78.8394 90.3367 78.6224C90.4998 78.5788 90.4998 78.5788 90.681 78.5752C90.7526 78.5732 90.8243 78.5711 90.8981 78.5691C90.9821 78.5687 91.0662 78.5683 91.1528 78.568C91.2555 78.5666 91.3583 78.5653 91.461 78.5639C91.7477 78.5607 92.0344 78.5603 92.3211 78.5609C92.5012 78.5612 92.6813 78.5609 92.8614 78.5605C92.9762 78.5605 93.0909 78.5606 93.2057 78.5607C93.2594 78.5606 93.3131 78.5605 93.3685 78.5604C93.9588 78.5624 94.1833 78.8297 94.4537 79.3374ZM93.1113 79.8737C93.0036 79.9096 92.8959 79.9455 92.7849 79.9825C92.7849 83.609 92.7849 87.2356 92.7849 90.9721C93.0663 91.1128 93.3453 91.2475 93.6316 91.3767C94.5618 91.8119 95.2349 92.5458 95.5867 93.5155C95.8906 94.5222 95.7753 95.4102 95.3419 96.3581C94.8396 97.2067 94.0021 97.8927 93.058 98.1605C92.0682 98.3818 91.1418 98.2472 90.2589 97.753C89.4259 97.2215 88.8224 96.3652 88.5809 95.4184C88.3739 94.3567 88.5897 93.4784 89.1534 92.5702C89.6689 91.9376 90.2945 91.408 91.0916 91.1761C91.3733 91.1163 91.3733 91.1163 91.4414 90.9398C91.4854 90.7241 91.4926 90.5266 91.4923 90.3063C91.4924 90.2152 91.4926 90.1241 91.4928 90.0303C91.4924 89.9307 91.492 89.8312 91.4916 89.7286C91.4915 89.6224 91.4916 89.5162 91.4916 89.4101C91.4916 89.1221 91.491 88.8342 91.4902 88.5462C91.4896 88.2452 91.4895 87.9441 91.4894 87.6431C91.489 87.0732 91.4881 86.5032 91.487 85.9333C91.4858 85.2844 91.4852 84.6355 91.4847 83.9866C91.4836 82.6519 91.4816 81.3172 91.4792 79.9825C91.3176 79.9286 91.3176 79.9286 91.1528 79.8737C90.8889 80.2065 90.734 80.5614 90.5693 80.9491C90.5392 81.019 90.509 81.0889 90.478 81.1609C90.3776 81.3941 90.2779 81.6276 90.1782 81.8611C90.1068 82.0272 90.0354 82.1933 89.964 82.3594C89.7317 82.8997 89.5004 83.4404 89.269 83.9812C88.9892 84.6351 88.7092 85.2889 88.4292 85.9428C88.3479 86.1326 88.2666 86.3224 88.1854 86.5122C87.6585 87.7437 87.1258 88.9724 86.5855 90.1981C86.3883 90.6461 86.1924 91.0947 85.9965 91.5433C85.8136 91.9616 85.6287 92.3789 85.4423 92.7957C85.3282 93.0523 85.216 93.3097 85.1045 93.5675C85.053 93.6853 85.0006 93.8028 84.9473 93.9199C84.6085 94.5981 84.6085 94.5981 84.6552 95.3211C84.715 95.4323 84.7774 95.5423 84.8419 95.6509C84.8993 95.7807 84.9551 95.9112 85.0097 96.0423C85.0719 96.1836 85.1343 96.3249 85.1968 96.4661C85.2307 96.5429 85.2646 96.6198 85.2996 96.699C85.3713 96.8614 85.4431 97.0238 85.5149 97.1862C85.622 97.428 85.7287 97.67 85.8354 97.912C85.9059 98.0716 85.9764 98.2311 86.0469 98.3906C86.0775 98.4601 86.1081 98.5295 86.1397 98.601C86.5167 99.4522 86.9048 100.298 87.2901 101.146C90.4858 101.146 93.6815 101.146 96.974 101.146C97.2972 100.428 97.6204 99.7094 97.9533 98.9695C98.1143 98.6267 98.2753 98.2839 98.4412 97.9307C98.6153 97.5553 98.6153 97.5553 98.7889 97.1796C98.8679 97.01 98.9479 96.8408 99.0289 96.6721C99.1486 96.4219 99.2645 96.1701 99.3797 95.9178C99.4164 95.8434 99.4531 95.7691 99.4909 95.6924C99.6575 95.3178 99.7365 95.0612 99.5955 94.6678C99.5214 94.505 99.4452 94.3432 99.3678 94.1819C99.2887 93.9989 99.2114 93.815 99.1341 93.6311C98.9753 93.2552 98.8124 92.881 98.6504 92.5065C98.5783 92.3394 98.5062 92.1723 98.4342 92.0052C98.2414 91.5582 98.0484 91.1113 97.8554 90.6644C97.4942 89.828 97.1334 88.9914 96.7728 88.1548C96.7327 88.0619 96.6927 87.969 96.6514 87.8733C96.1134 86.6251 95.5787 85.3757 95.0484 84.1242C94.9892 83.9845 94.93 83.8448 94.8707 83.7052C94.6249 83.1252 94.3794 82.5452 94.1351 81.9646C94.0375 81.7329 93.9395 81.5014 93.8414 81.2699C93.7966 81.1642 93.7521 81.0583 93.7078 80.9524C93.6481 80.8097 93.5877 80.6673 93.5273 80.525C93.4773 80.4063 93.4773 80.4063 93.4263 80.2852C93.3315 80.071 93.3315 80.071 93.1113 79.8737ZM91.7478 92.3016C91.1596 92.4052 90.5808 92.7104 90.2279 93.2027C89.8194 93.9128 89.6724 94.488 89.8407 95.2896C90.0251 95.8903 90.3929 96.3004 90.8808 96.6845C91.5917 97.0517 92.2746 97.0938 93.0331 96.8648C93.5945 96.624 94.0845 96.134 94.3252 95.5727C94.5525 94.8335 94.5077 94.131 94.1892 93.4305C93.6143 92.5746 92.7686 92.202 91.7478 92.3016ZM96.704 102.438C96.6343 102.438 96.5646 102.438 96.4928 102.438C96.413 102.438 96.3332 102.438 96.2509 102.438C96.1628 102.438 96.0747 102.439 95.9839 102.439C95.8454 102.439 95.8454 102.439 95.7041 102.439C95.4503 102.439 95.1965 102.44 94.9427 102.44C94.6776 102.441 94.4126 102.441 94.1476 102.441C93.6455 102.442 93.1434 102.442 92.6413 102.444C92.0697 102.445 91.4982 102.445 90.9267 102.446C89.7507 102.447 88.5748 102.449 87.3989 102.451C87.2237 102.793 87.0887 103.136 86.9696 103.5C86.9506 103.558 86.9316 103.615 86.912 103.674C86.8518 103.856 86.7921 104.038 86.7324 104.22C86.6915 104.343 86.6506 104.467 86.6096 104.591C86.5097 104.893 86.4101 105.196 86.3108 105.498C86.4593 105.681 86.4593 105.681 86.6725 105.681C86.7987 105.681 86.7987 105.681 86.9274 105.681C87.0237 105.681 87.1201 105.681 87.2194 105.682C87.3267 105.681 87.434 105.68 87.5413 105.68C87.6539 105.68 87.7665 105.68 87.8791 105.68C88.1853 105.68 88.4914 105.679 88.7976 105.678C89.1174 105.677 89.4371 105.677 89.7569 105.676C90.3627 105.676 90.9685 105.675 91.5742 105.673C92.2638 105.671 92.9533 105.67 93.6429 105.669C95.0616 105.668 96.4802 105.665 97.8989 105.661C97.9113 105.315 97.8103 105.024 97.7004 104.7C97.6801 104.639 97.6599 104.578 97.639 104.515C97.5961 104.387 97.553 104.259 97.5097 104.131C97.4433 103.934 97.3778 103.737 97.3124 103.54C97.2706 103.415 97.2288 103.291 97.187 103.166C97.1673 103.107 97.1476 103.048 97.1274 102.987C97.0289 102.59 97.0289 102.59 96.704 102.438Z" fill="#EC6980"/>
</g>
<defs>
<clipPath id="clip0_2611_3775">
<rect width="132" height="132" fill="white" transform="translate(5)"/>
</clipPath>
</defs>
</svg>
