<svg width="52" height="52" viewBox="0 0 52 52" fill="none" xmlns="http://www.w3.org/2000/svg">
<g clip-path="url(#clip0_2472_4177)">
<path d="M28.5434 0.105419C29.1946 0.45812 29.6924 1.00919 29.9236 1.72129C30.0686 2.53112 30.0029 3.26209 29.5546 3.96083C29.1811 4.43607 28.7436 4.85965 28.1328 4.97645C26.9055 5.05088 26.9055 5.05088 26.5142 4.90121C26.2915 4.84935 26.2915 4.84935 26.0977 5.02076C26.0246 5.09496 25.9515 5.16916 25.8763 5.24561C25.7513 5.37067 25.7513 5.37067 25.6237 5.49826C25.5347 5.58987 25.4458 5.68148 25.3541 5.77586C25.2163 5.91471 25.2163 5.91471 25.0757 6.05637C24.8315 6.30255 24.5888 6.55022 24.3464 6.79822C24.0989 7.05099 23.8498 7.30233 23.6009 7.5538C23.1127 8.04746 22.6261 8.5427 22.1406 9.03895C22.2076 9.0161 22.2746 8.99325 22.3437 8.96971C24.847 8.11875 24.847 8.11875 25.8793 7.89003C25.9872 7.86586 26.0951 7.84168 26.2062 7.81678C32.293 6.5154 38.8182 7.60983 44.0885 10.9452C44.6022 11.2784 45.1046 11.6265 45.6015 11.9843C46.0482 11.6105 46.4686 11.2272 46.873 10.808C47.1489 10.5437 47.4277 10.501 47.8067 10.5074C48.3062 10.6256 48.6364 11.045 48.9848 11.4003C49.0716 11.4863 49.1583 11.5723 49.2477 11.6609C49.4304 11.8429 49.612 12.026 49.7926 12.2101C50.0693 12.4911 50.3501 12.7676 50.6316 13.0439C50.8087 13.2215 50.9855 13.3994 51.1621 13.5775C51.2461 13.66 51.3302 13.7424 51.4169 13.8274C52.0511 14.4828 52.0511 14.4828 52.0967 14.9379C52.0357 15.4672 51.6524 15.7916 51.289 16.1483C51.1698 16.2746 51.0509 16.4012 50.9322 16.528C50.602 16.8706 50.2689 17.2103 49.9348 17.5492C49.7918 17.6949 49.6495 17.8414 49.508 17.9886C49.3016 18.203 49.0929 18.415 48.8836 18.6267C48.8212 18.6925 48.7588 18.7583 48.6944 18.8261C48.3441 19.1748 48.042 19.4195 47.5337 19.4435C47.0951 19.3471 46.8171 19.0002 46.5156 18.6874C46.3862 18.5645 46.2566 18.4419 46.1266 18.3196C45.7728 17.9766 45.4217 17.6308 45.0713 17.2843C44.9205 17.1357 44.7691 16.9878 44.6171 16.8405C44.3959 16.6261 44.1767 16.4097 43.9579 16.1928C43.8898 16.1276 43.8218 16.0624 43.7517 15.9952C43.3498 15.5914 43.1669 15.3228 43.164 14.7265C43.3711 14.1881 43.8714 13.7984 44.2812 13.4061C40.9702 10.6776 36.3384 9.25928 32.0937 9.14052C31.9735 9.13646 31.8533 9.1324 31.7295 9.12822C29.6782 9.09285 27.686 9.36843 25.6953 9.85145C25.6176 9.87014 25.5399 9.88883 25.4599 9.90809C23.1103 10.4914 20.7367 11.5592 18.789 12.9999C18.8372 13.1214 18.8854 13.2429 18.935 13.3681C19.3742 14.5552 19.2634 15.6984 18.789 16.8593C18.2249 17.9608 17.2874 18.6849 16.1194 19.0683C15.0189 19.3477 13.9035 19.225 12.8984 18.6874C12.8744 18.7552 12.8505 18.823 12.8258 18.8929C12.6933 19.1997 12.5366 19.4708 12.3628 19.7553C9.30949 24.7537 8.39171 30.7693 9.73881 36.4628C10.4501 39.2993 11.6656 41.8658 13.3046 44.2811C13.354 44.2385 13.4033 44.1959 13.4541 44.152C13.5777 44.0455 13.7019 43.9395 13.8263 43.834C13.9769 43.7049 14.1239 43.5716 14.2695 43.4369C14.617 43.2023 14.8126 43.1425 15.2343 43.164C15.421 43.2948 15.421 43.2948 15.6148 43.4734C15.6859 43.5384 15.757 43.6035 15.8303 43.6705C15.9017 43.7379 15.9732 43.8054 16.0468 43.8749C16.1117 43.9359 16.1766 43.9968 16.2434 44.0596C16.6646 44.4604 17.0778 44.8693 17.4911 45.278C17.6418 45.4266 17.7932 45.5745 17.9452 45.7218C18.1665 45.9362 18.3857 46.1526 18.6045 46.3695C18.6725 46.4347 18.7406 46.4999 18.8106 46.5671C19.1185 46.8763 19.2805 47.0713 19.4099 47.4958C19.3846 48.2408 18.7939 48.6717 18.2935 49.1673C18.2155 49.2452 18.1375 49.3231 18.0572 49.4034C17.8927 49.5676 17.728 49.7314 17.5631 49.8951C17.31 50.1464 17.0577 50.3984 16.8056 50.6506C16.6457 50.81 16.4857 50.9694 16.3257 51.1287C16.25 51.2043 16.1742 51.2799 16.0962 51.3579C16.026 51.4274 15.9558 51.4969 15.8835 51.5686C15.7909 51.6606 15.7909 51.6606 15.6963 51.7546C15.4148 52.0118 15.1383 52.0665 14.7576 52.0589C14.4495 51.9813 14.3075 51.8442 14.0759 51.627C13.9872 51.544 13.8985 51.461 13.8071 51.3755C13.2892 50.8768 12.7782 50.3713 12.2707 49.862C12.0837 49.6745 11.8962 49.4875 11.7086 49.3006C11.5889 49.1808 11.4692 49.061 11.3496 48.9411C11.2938 48.8856 11.2381 48.83 11.1806 48.7728C10.5826 48.1711 10.5826 48.1711 10.5053 47.6644C10.52 47.0935 10.8837 46.7923 11.2734 46.414C11.3412 46.345 11.409 46.276 11.4789 46.2049C11.6457 46.0357 11.814 45.8686 11.9843 45.703C11.7507 45.2827 11.5079 44.8813 11.2329 44.4862C10.1601 42.9386 9.38668 41.269 8.73432 39.5077C8.68758 39.3844 8.64084 39.2611 8.59268 39.134C7.98708 37.4383 7.5827 35.6124 7.414 33.8202C7.40288 33.7215 7.39175 33.6228 7.38028 33.5211C7.01676 29.8083 7.6742 26.2311 8.84557 22.7203C8.88188 22.6114 8.91818 22.5026 8.95559 22.3905C8.98312 22.308 9.01064 22.2255 9.039 22.1405C8.49284 22.6749 7.94804 23.2107 7.40496 23.7482C7.15276 23.9978 6.9001 24.2469 6.64636 24.4949C6.35481 24.7798 6.06532 25.0669 5.77591 25.354C5.6843 25.443 5.5927 25.532 5.49831 25.6237C5.41494 25.707 5.33156 25.7903 5.24566 25.8762C5.17146 25.9493 5.09726 26.0224 5.02081 26.0976C4.84945 26.2915 4.84945 26.2915 4.90082 26.5148C4.92579 26.5795 4.95077 26.6442 4.9765 26.7108C5.05679 27.6214 5.03879 28.401 4.46869 29.1483C3.89126 29.7175 3.30922 29.9648 2.50092 29.9926C1.78443 29.977 1.18453 29.8057 0.648593 29.305C0.0787486 28.671 -0.0775717 28.0586 -0.0672792 27.2146C-0.0255018 26.4626 0.243938 25.9378 0.786654 25.4266C1.48392 24.8877 2.1895 24.8309 3.04682 24.8827C3.13734 24.914 3.22787 24.9453 3.32113 24.9775C3.70393 24.9852 3.7446 24.9502 4.01865 24.7073C4.1558 24.5722 4.29098 24.4351 4.42461 24.2966C4.53618 24.1851 4.53618 24.1851 4.65001 24.0715C4.89572 23.8253 5.13881 23.5766 5.38196 23.3279C5.55171 23.1568 5.72162 22.9859 5.89169 22.8152C6.33907 22.3651 6.78428 21.9129 7.22907 21.4602C7.68325 20.9988 8.13943 20.5393 8.59546 20.0797C9.49009 19.1775 10.3825 18.273 11.2734 17.3671C11.141 16.9583 11.141 16.9583 10.9838 16.5589C10.6021 15.6433 10.6153 14.4443 10.9306 13.5077C11.4639 12.2769 12.2249 11.494 13.4554 10.9631C14.4511 10.5889 15.6112 10.6253 16.5864 11.0321C16.7397 11.1063 16.7397 11.1063 16.8962 11.1821C17.1537 11.3018 17.1537 11.3018 17.3632 11.1963C17.5713 11.0696 17.7281 10.9393 17.9013 10.7684C17.9643 10.7066 18.0274 10.6448 18.0924 10.5812C18.1605 10.5136 18.2285 10.4459 18.2986 10.3762C18.3711 10.3049 18.4436 10.2335 18.5184 10.16C18.7579 9.92389 18.9967 9.68701 19.2353 9.44996C19.3169 9.36911 19.3984 9.28826 19.4824 9.20497C19.9136 8.77747 20.3441 8.34935 20.7741 7.92072C21.2191 7.47745 21.6661 7.03634 22.1137 6.59569C22.457 6.2569 22.7988 5.91654 23.1401 5.57574C23.3043 5.41236 23.469 5.24958 23.6344 5.08741C23.8652 4.86081 24.0937 4.63208 24.3217 4.40268C24.3908 4.33587 24.4598 4.26905 24.531 4.20021C24.7028 4.02484 24.8543 3.86439 24.9843 3.65614C24.9933 3.32613 24.9933 3.32613 24.8828 3.04676C24.8008 2.12648 24.9828 1.51451 25.4604 0.736217C26.3042 -0.0847749 27.4299 -0.274784 28.5434 0.105419ZM26.7553 1.93592C26.565 2.32481 26.5962 2.53218 26.7109 2.9452C26.8722 3.18719 26.9842 3.23831 27.2568 3.33876C27.6066 3.35541 27.7551 3.25567 28.0312 3.04676C28.2705 2.75366 28.2705 2.75366 28.2153 2.38661C28.1535 2.04803 28.1535 2.04803 28.0248 1.83436C27.5663 1.58291 27.1447 1.62249 26.7553 1.93592ZM12.8575 13.587C12.433 14.1765 12.4002 14.8329 12.4921 15.539C12.7433 16.3203 13.1826 16.8849 13.9084 17.2683C14.53 17.5327 15.1079 17.564 15.7485 17.348C16.5652 17.0005 17.0116 16.5634 17.3671 15.7421C17.5761 15.0446 17.5082 14.4733 17.1898 13.8298C16.8386 13.2216 16.4553 12.8168 15.7917 12.5591C14.5702 12.2351 13.6346 12.6354 12.8575 13.587ZM47.3123 12.891C47.2241 12.9803 47.1358 13.0697 47.0448 13.1618C46.9977 13.2091 46.9507 13.2564 46.9022 13.3052C46.7517 13.4569 46.6019 13.6092 46.4521 13.7616C46.3503 13.8644 46.2485 13.9672 46.1466 14.0699C45.8967 14.3221 45.6474 14.5749 45.3984 14.828C45.5521 15.1904 45.7645 15.4208 46.0435 15.6961C46.1299 15.7818 46.2163 15.8676 46.3053 15.9559C46.3956 16.0445 46.486 16.1332 46.579 16.2245C46.6702 16.3147 46.7613 16.4049 46.8552 16.4978C47.0801 16.7203 47.3054 16.9424 47.5312 17.164C47.8935 17.0102 48.124 16.7978 48.3992 16.5189C48.485 16.4325 48.5707 16.3461 48.6591 16.257C48.7477 16.1667 48.8364 16.0764 48.9277 15.9833C49.0179 15.8922 49.1081 15.801 49.201 15.7072C49.4235 15.4823 49.6455 15.2569 49.8671 15.0311C49.7137 14.6718 49.5039 14.4387 49.2292 14.1631C49.101 14.0345 49.101 14.0345 48.9701 13.9032C48.8807 13.8146 48.7913 13.726 48.6992 13.6347C48.6097 13.5445 48.5203 13.4542 48.4282 13.3613C48.3 13.2335 48.3 13.2335 48.1691 13.103C48.0906 13.0248 48.0122 12.9465 47.9313 12.8659C47.6468 12.6194 47.5923 12.6405 47.3123 12.891ZM1.7265 27.1171C1.71982 27.5049 1.74116 27.7244 1.99311 28.0248C2.32901 28.1751 2.58167 28.1724 2.94525 28.1327C3.15878 28.0462 3.15878 28.0462 3.24994 27.828C3.28983 27.5139 3.31451 27.3154 3.24994 27.0155C3.00726 26.7382 2.8464 26.6327 2.48822 26.5521C2.10322 26.6388 1.95534 26.8008 1.7265 27.1171ZM14.713 45.5019C14.6199 45.5955 14.5268 45.6891 14.4309 45.7855C14.3815 45.8351 14.332 45.8847 14.2811 45.9358C14.1225 46.095 13.9643 46.2545 13.8061 46.414C13.6989 46.5216 13.5918 46.6293 13.4845 46.7369C13.2212 47.0014 12.9581 47.2662 12.6953 47.5311C12.849 47.8935 13.0614 48.124 13.3403 48.3992C13.4267 48.4849 13.5131 48.5707 13.6022 48.659C13.6925 48.7477 13.7828 48.8363 13.8759 48.9276C13.967 49.0178 14.0582 49.108 14.152 49.201C14.3769 49.4235 14.6023 49.6455 14.8281 49.8671C15.2005 49.7108 15.436 49.4857 15.7183 49.1998C15.8087 49.1088 15.899 49.0178 15.9921 48.9241C16.0855 48.8289 16.179 48.7337 16.2753 48.6356C16.3713 48.5387 16.4673 48.4417 16.5634 48.3448C16.7979 48.1079 17.0319 47.8705 17.2656 47.6327C16.8063 47.0823 16.3201 46.5702 15.812 46.0648C15.738 45.9905 15.6641 45.9162 15.588 45.8397C15.5178 45.7696 15.4475 45.6995 15.3752 45.6272C15.3115 45.5637 15.2478 45.5001 15.1822 45.4347C14.9439 45.2171 14.9611 45.267 14.713 45.5019Z" fill="black"/>
<path d="M21.8775 17.5434C22.1425 17.6414 22.4037 17.7461 22.6649 17.8539C22.764 17.8937 22.8631 17.9335 22.9652 17.9746C23.2925 18.1064 23.6191 18.2399 23.9458 18.3734C24.1776 18.4671 24.4095 18.5607 24.6414 18.6543C25.2542 18.9017 25.8665 19.1505 26.4787 19.3996C27.0848 19.6461 27.6913 19.8915 28.2979 20.1368C28.5369 20.2335 28.7759 20.3302 29.0149 20.4269C29.1327 20.4746 29.2505 20.5223 29.3719 20.5713C29.7289 20.7158 30.0859 20.8605 30.4428 21.0051C32.5793 21.8705 34.722 22.7194 36.8672 23.5626C37.1524 23.6747 37.4375 23.7869 37.7227 23.8991C37.7891 23.9252 37.8555 23.9513 37.9239 23.9782C38.4699 24.1931 39.0155 24.4089 39.5609 24.6252C39.7991 24.7193 40.0374 24.8131 40.2758 24.9065C40.6326 25.0464 40.9889 25.1877 41.3451 25.3292C41.4515 25.3706 41.5579 25.4119 41.6675 25.4546C41.7652 25.4937 41.8629 25.5328 41.9636 25.5731C42.0487 25.6067 42.1339 25.6403 42.2216 25.6749C42.6286 25.8895 42.8762 26.1657 43.0404 26.5928C43.0704 26.6693 43.1004 26.7457 43.1313 26.8245C43.1627 26.9076 43.1941 26.9908 43.2264 27.0764C43.2608 27.1649 43.2951 27.2535 43.3306 27.3447C43.4056 27.5382 43.48 27.732 43.5541 27.9259C43.6749 28.2424 43.7971 28.5584 43.9196 28.8743C44.1833 29.5555 44.445 30.2375 44.7066 30.9195C44.8405 31.2683 44.9745 31.6171 45.1084 31.9659C45.1935 32.1877 45.2786 32.4094 45.3635 32.6312C45.5335 33.0751 45.7037 33.5188 45.8784 33.9609C45.9249 34.0791 45.9714 34.1973 46.0193 34.3191C46.0575 34.4147 46.0956 34.5102 46.1349 34.6087C46.211 34.836 46.211 34.836 46.211 35.1407C46.2885 35.163 46.3661 35.1854 46.4459 35.2084C46.9627 35.3953 47.4445 35.6404 47.9355 35.8862C48.0422 35.9393 48.1488 35.9923 48.2586 36.0471C48.4833 36.1591 48.7079 36.2714 48.9324 36.3838C49.2764 36.556 49.6209 36.727 49.9654 36.898C50.1838 37.0071 50.4022 37.1163 50.6206 37.2255C50.7238 37.2766 50.8269 37.3277 50.9332 37.3804C51.0288 37.4285 51.1244 37.4766 51.2229 37.5262C51.307 37.5682 51.3911 37.6102 51.4777 37.6535C51.6964 37.7819 51.8358 37.8939 52 38.086C52.0918 38.4771 52.1134 38.6262 52 39.0001C51.6581 39.4822 51.2415 39.8836 50.8212 40.2972C50.6944 40.4252 50.5678 40.5535 50.4414 40.6819C50.0981 41.0293 49.7519 41.3739 49.405 41.7178C49.0422 42.0784 48.6816 42.4412 48.3206 42.8036C47.714 43.4118 47.1056 44.018 46.496 44.6232C45.7916 45.3227 45.0906 46.0253 44.3912 46.7298C43.7903 47.3348 43.1876 47.9381 42.5835 48.5398C42.2228 48.8991 41.8627 49.259 41.5042 49.6205C41.1671 49.9603 40.8277 50.2978 40.4866 50.6336C40.3619 50.7571 40.238 50.8814 40.1149 51.0065C39.0679 52.0691 39.0679 52.0691 38.4759 52.0851C38.086 52.0001 38.086 52.0001 37.8629 51.8183C37.5894 51.3316 37.3325 50.8391 37.0846 50.339C37.0288 50.2275 36.9731 50.116 36.9156 50.0011C36.7982 49.766 36.6811 49.5308 36.5643 49.2955C36.3847 48.9341 36.2041 48.5732 36.0234 48.2123C35.9094 47.9839 35.7956 47.7555 35.6818 47.527C35.6275 47.4185 35.5733 47.3101 35.5174 47.1984C35.4678 47.0984 35.4183 46.9983 35.3673 46.8953C35.3234 46.8071 35.2795 46.7188 35.2343 46.6279C35.1406 46.4141 35.1406 46.4142 35.1406 46.211C35.0295 46.1911 35.0295 46.1911 34.9162 46.1707C34.6514 46.1135 34.415 46.038 34.1622 45.9417C34.0713 45.9073 33.9804 45.8729 33.8867 45.8375C33.7889 45.8 33.691 45.7625 33.5902 45.7238C33.4872 45.6847 33.3841 45.6455 33.278 45.6052C32.9423 45.4775 32.6069 45.3492 32.2715 45.2208C32.1578 45.1773 32.0441 45.1339 31.927 45.0891C31.2412 44.8271 30.5557 44.5642 29.8704 44.3009C29.5784 44.1889 29.2863 44.0772 28.994 43.9658C28.5956 43.8138 28.1976 43.6608 27.8 43.5067C27.659 43.4522 27.5178 43.3981 27.3764 43.3443C27.183 43.2706 26.9902 43.1954 26.7975 43.1201C26.6915 43.0792 26.5855 43.0383 26.4763 42.9962C25.8406 42.678 25.6586 42.1918 25.4144 41.5614C25.3781 41.4704 25.3419 41.3795 25.3046 41.2858C25.1837 40.9813 25.0642 40.6763 24.9447 40.3712C24.8585 40.1534 24.7722 39.9356 24.6858 39.7179C24.4519 39.1279 24.2194 38.5375 23.987 37.9469C23.7446 37.3312 23.501 36.7159 23.2575 36.1005C23.2085 35.9766 23.1595 35.8527 23.1089 35.7251C23.0341 35.5359 22.9592 35.3466 22.8843 35.1574C22.7322 34.7732 22.5803 34.389 22.4285 34.0048C21.7523 32.2936 21.0702 30.5849 20.3822 28.8785C20.2383 28.5216 20.0946 28.1646 19.9509 27.8077C19.4036 26.4482 19.4036 26.4482 18.8544 25.0894C18.642 24.5651 18.4305 24.0403 18.2197 23.5152C18.1424 23.3232 18.0647 23.1313 17.9866 22.9396C17.8804 22.6787 17.7755 22.4172 17.6708 22.1556C17.6397 22.0801 17.6086 22.0045 17.5765 21.9266C17.4113 21.5091 17.3232 21.1681 17.3672 20.7188C17.4788 20.526 17.4788 20.526 17.6445 20.3535C17.7095 20.2847 17.7745 20.216 17.8415 20.1451C17.9196 20.0663 17.9977 19.9875 18.0782 19.9063C18.1728 19.8092 18.2675 19.712 18.3621 19.6148C18.6268 19.3443 18.8939 19.0763 19.162 18.8092C19.3304 18.6414 19.4983 18.473 19.6661 18.3045C19.7732 18.1975 19.8804 18.0904 19.9876 17.9834C20.0376 17.9332 20.0877 17.8829 20.1392 17.8311C20.6922 17.282 21.1512 17.322 21.8775 17.5434ZM21.125 19.297C21.058 19.431 20.991 19.5651 20.9219 19.7032C24.307 23.0883 27.6921 26.4734 31.1797 29.961C31.5738 29.8297 31.9599 29.695 32.3477 29.5484C33.6222 29.0864 34.9355 29.143 36.169 29.7198C37.3923 30.3758 38.1134 31.3123 38.5938 32.6016C38.917 33.8625 38.7756 35.2846 38.1443 36.4158C37.4271 37.5463 36.4367 38.2853 35.1513 38.6482C33.8776 38.9296 32.515 38.6937 31.4058 38.0352C30.2216 37.2375 29.6033 36.2162 29.2818 34.8424C29.1724 33.7708 29.2619 32.6925 29.7896 31.732C29.9966 31.4132 29.9966 31.4132 29.8955 31.1849C29.7352 30.9424 29.5576 30.7515 29.3517 30.5461C29.2668 30.4609 29.1819 30.3758 29.0945 30.288C29.0012 30.1955 28.9079 30.1029 28.8118 30.0075C28.7127 29.9085 28.6136 29.8093 28.5145 29.7102C28.2458 29.4414 27.9764 29.1732 27.7069 28.9051C27.4253 28.6248 27.1442 28.3438 26.8631 28.063C26.3308 27.5313 25.798 27.0002 25.265 26.4692C24.6582 25.8647 24.052 25.2595 23.4458 24.6544C22.1989 23.4096 20.9512 22.1655 19.7032 20.922C19.5021 21.0225 19.5021 21.0225 19.2969 21.1251C19.3613 21.6822 19.548 22.158 19.7561 22.6735C19.7932 22.7669 19.8304 22.8603 19.8686 22.9565C19.9926 23.2679 20.1175 23.5789 20.2423 23.8899C20.3307 24.1116 20.4191 24.3333 20.5075 24.555C20.795 25.2761 21.0838 25.9967 21.3726 26.7174C21.7217 27.589 22.0707 28.4606 22.4196 29.3323C22.5209 29.5853 22.6222 29.8383 22.7236 30.0913C23.3812 31.7326 24.0309 33.3768 24.6707 35.0251C24.9048 35.6274 25.1406 36.229 25.3765 36.8306C25.5962 37.3917 25.8132 37.9538 26.0282 38.5168C26.1612 38.8629 26.2968 39.2079 26.4333 39.5526C26.4952 39.7107 26.556 39.8692 26.6156 40.0282C26.9323 40.9775 26.9323 40.9775 27.6507 41.6087C27.8104 41.6567 27.9712 41.7011 28.1328 41.7423C28.3076 41.8099 28.4815 41.8796 28.6548 41.951C28.8448 42.0249 29.0349 42.0985 29.225 42.1719C29.3284 42.212 29.4318 42.2521 29.5383 42.2934C29.7569 42.3781 29.9755 42.4627 30.1941 42.5472C30.5198 42.673 30.8453 42.7992 31.1708 42.9255C31.3855 43.0087 31.6002 43.0918 31.8149 43.1749C31.9083 43.2111 32.0017 43.2473 32.0979 43.2846C33.2444 43.7272 34.3961 44.1545 35.5469 44.586C38.5298 41.6031 41.5127 38.6202 44.586 35.547C44.2173 34.575 43.8486 33.6031 43.4688 32.6016C43.2991 32.1314 43.1294 31.6611 42.9546 31.1766C42.7666 30.6637 42.7666 30.6637 42.578 30.151C42.4934 29.9189 42.4102 29.6863 42.3283 29.4533C42.2065 29.1079 42.0797 28.7648 41.9517 28.4217C41.9165 28.3181 41.8814 28.2144 41.8451 28.1076C41.6509 27.6024 41.4852 27.2892 40.9864 27.0535C40.7653 26.9708 40.5431 26.8909 40.3203 26.8126C40.0755 26.7156 39.8319 26.616 39.588 26.5166C39.0889 26.3139 38.5876 26.1167 38.0868 25.9184C37.8635 25.8297 37.6403 25.741 37.4171 25.6523C36.8199 25.415 36.2226 25.1779 35.6253 24.941C34.5074 24.4975 33.3898 24.0533 32.2723 23.609C32.1482 23.5597 32.0242 23.5104 31.8963 23.4596C30.2291 22.7967 28.5637 22.1295 26.9006 21.4564C26.7149 21.3813 26.5293 21.3062 26.3436 21.2311C25.5729 20.9192 24.8023 20.6069 24.0323 20.2931C23.7249 20.1679 23.4174 20.0433 23.1098 19.9189C22.9693 19.8619 22.8289 19.8046 22.6886 19.7471C22.4998 19.6697 22.3105 19.5931 22.1212 19.5167C21.9638 19.4525 21.9638 19.4525 21.8032 19.3871C21.5148 19.2757 21.5148 19.2757 21.125 19.297ZM31.4527 32.17C31.0004 32.8158 30.745 33.6409 30.875 34.4298C31.1565 35.474 31.5562 36.148 32.4615 36.7391C33.1944 37.1278 33.9204 37.1673 34.7344 37.0704C35.7406 36.7495 36.4174 36.1513 36.9116 35.2296C37.2109 34.4809 37.2109 33.5662 36.9116 32.8175C36.4338 31.9154 35.7363 31.3016 34.7852 30.9449C33.4496 30.6826 32.3125 31.1242 31.4527 32.17ZM45.5402 37.0053C45.4752 37.0704 45.4102 37.1356 45.3433 37.2027C45.2687 37.2771 45.194 37.3514 45.1171 37.428C45.0352 37.5106 44.9534 37.5933 44.869 37.6784C44.7397 37.8077 44.7397 37.8077 44.6077 37.9395C44.3709 38.1765 44.1345 38.4139 43.8983 38.6515C43.6516 38.8995 43.4043 39.1469 43.157 39.3944C42.6886 39.8634 42.2208 40.333 41.7531 40.8026C41.2208 41.3373 40.6879 41.8713 40.1549 42.4053C39.0584 43.5039 37.9626 44.6033 36.8672 45.7032C37.0228 46.1859 37.2164 46.6315 37.4456 47.083C37.4814 47.1543 37.5172 47.2256 37.5541 47.299C37.6675 47.5248 37.7815 47.7502 37.8955 47.9757C37.9729 48.1295 38.0503 48.2833 38.1276 48.4371C38.3164 48.8125 38.5057 49.1876 38.6953 49.5626C39.0046 49.5947 39.0046 49.5947 39.2041 49.396C39.3216 49.2781 39.3216 49.2781 39.4415 49.1577C39.5317 49.068 39.6218 48.9783 39.7147 48.8858C39.8143 48.7851 39.9139 48.6844 40.0135 48.5837C40.1186 48.4785 40.2237 48.3735 40.3289 48.2685C40.6147 47.9827 40.8996 47.696 41.1843 47.4092C41.4818 47.1098 41.7802 46.8112 42.0785 46.5126C42.6435 45.9466 43.2077 45.38 43.7716 44.813C44.4135 44.1677 45.0563 43.5232 45.6991 42.8788C47.0218 41.553 48.3433 40.2261 49.6641 38.8985C49.3527 38.564 48.9866 38.3864 48.5814 38.1864C48.5057 38.1485 48.4299 38.1106 48.3519 38.0716C48.1922 37.9918 48.0323 37.9124 47.8722 37.8332C47.6267 37.7116 47.3817 37.5889 47.1367 37.4661C46.9814 37.3888 46.8261 37.3115 46.6708 37.2342C46.5972 37.1974 46.5237 37.1606 46.448 37.1227C45.9851 36.8437 45.9851 36.8437 45.5402 37.0053Z" fill="black"/>
</g>
<defs>
<clipPath id="clip0_2472_4177">
<rect width="52" height="52" fill="white"/>
</clipPath>
</defs>
</svg>
