<svg width="240" height="178" viewBox="0 0 240 178" fill="none" xmlns="http://www.w3.org/2000/svg">
<path d="M53.2835 49.2927L8.51904 79.2373L52.6118 145.152L97.3762 115.207L53.2835 49.2927Z" fill="#F5F5F5"/>
<path d="M74.2435 112.09L73.7368 115.233L51.4824 112.026L51.9891 108.882L74.2435 112.09Z" fill="#E0E0E0"/>
<path d="M63.037 100.875L66.2287 101.333L62.6899 123.245L59.4941 122.782L63.037 100.875Z" fill="#E0E0E0"/>
<path d="M42.5582 73.0264C42.5902 73.0703 38.1058 76.1304 32.5402 79.8488C26.9746 83.5672 22.4383 86.5514 22.4064 86.5036C22.3745 86.4557 26.8589 83.3996 32.4245 79.6772C37.9901 75.9549 42.5064 72.9786 42.5582 73.0264Z" fill="#E0E0E0"/>
<path d="M59.003 68.8934C59.0349 68.9413 51.5742 73.9842 42.3421 80.1602C33.11 86.3363 25.5855 91.3034 25.5616 91.2595C25.5376 91.2156 32.9824 86.1647 42.2264 79.9887C51.4705 73.8127 58.9711 68.8455 59.003 68.8934Z" fill="#E0E0E0"/>
<path d="M62.3028 73.8246C62.3347 73.8724 54.874 78.9194 45.6419 85.0954C36.4098 91.2714 28.8853 96.2385 28.8614 96.1907C28.8374 96.1428 36.2902 91.0998 45.5262 84.9198C54.7623 78.7398 62.2709 73.7767 62.3028 73.8246Z" fill="#E0E0E0"/>
<path d="M65.6021 78.7596C65.634 78.8075 58.1733 83.8544 48.9412 90.0265C39.7091 96.1985 32.1846 101.174 32.1846 101.126C32.1846 101.078 39.6093 96.0309 48.8454 89.8549C58.0815 83.6789 65.5701 78.7117 65.6021 78.7596Z" fill="#E0E0E0"/>
<path d="M68.8896 83.6952C68.9215 83.743 61.4609 88.786 52.2288 94.962C42.9967 101.138 35.4721 106.105 35.4522 106.057C35.4322 106.009 42.8889 100.966 52.133 94.7904C61.3771 88.6144 68.8896 83.6473 68.8896 83.6952Z" fill="#E0E0E0"/>
<path d="M202.97 93.4598L165.375 118.608L202.405 173.965L240 148.816L202.97 93.4598Z" fill="#F5F5F5"/>
<path d="M220.577 146.21L220.15 148.851L201.458 146.158L201.889 143.517L220.577 146.21Z" fill="#E0E0E0"/>
<path d="M211.165 136.79L213.846 137.177L210.874 155.577L208.189 155.19L211.165 136.79Z" fill="#E0E0E0"/>
<path d="M193.95 113.422C193.982 113.47 190.22 116.043 185.544 119.167C180.868 122.291 177.054 124.788 177.022 124.752C176.99 124.717 180.756 122.135 185.428 119.007C190.1 115.879 193.918 113.354 193.95 113.422Z" fill="#E0E0E0"/>
<path d="M207.774 109.932C207.806 109.979 201.546 114.224 193.81 119.407C186.074 124.59 179.742 128.763 179.711 128.715C179.679 128.667 185.938 124.422 193.674 119.235C201.41 114.049 207.73 109.884 207.774 109.932Z" fill="#E0E0E0"/>
<path d="M210.546 114.073C210.578 114.12 204.319 118.365 196.583 123.552C188.847 128.739 182.515 132.904 182.483 132.856C182.451 132.808 188.691 128.583 196.447 123.396C204.203 118.21 210.522 114.029 210.546 114.073Z" fill="#E0E0E0"/>
<path d="M213.316 118.21C213.348 118.258 207.084 122.503 199.352 127.689C191.62 132.876 185.284 137.041 185.253 136.993C185.221 136.945 191.48 132.704 199.216 127.514C206.952 122.323 213.288 118.17 213.316 118.21Z" fill="#E0E0E0"/>
<path d="M216.108 122.363C216.14 122.411 209.881 126.652 202.145 131.839C194.409 137.025 188.077 141.19 188.045 141.147C188.013 141.103 194.273 136.854 202.009 131.667C209.745 126.481 216.057 122.315 216.108 122.363Z" fill="#E0E0E0"/>
<path d="M143.494 51.7177L102.473 29.7778L70.1668 90.1798L111.188 112.12L143.494 51.7177Z" fill="#F5F5F5"/>
<path d="M104.167 93.2222L101.565 94.1119L94.9585 75.8512L97.5638 74.9575L104.167 93.2222Z" fill="#E0E0E0"/>
<path d="M108.156 80.1201L109.106 82.7413L90.9686 88.9532L90.019 86.332L108.156 80.1201Z" fill="#E0E0E0"/>
<path d="M121.043 53.1784C121.011 53.2382 116.853 51.0758 111.751 48.3509C106.648 45.6259 102.542 43.3638 102.574 43.3039C102.606 43.2441 106.768 45.4065 111.87 48.1314C116.973 50.8564 121.075 53.1145 121.043 53.1784Z" fill="#E0E0E0"/>
<path d="M130.889 64.0417C130.857 64.1015 123.971 60.4789 115.509 55.9546C107.047 51.4303 100.217 47.7119 100.249 47.6521C100.281 47.5923 107.163 51.2109 115.625 55.7392C124.087 60.2674 130.921 63.9818 130.889 64.0417Z" fill="#E0E0E0"/>
<path d="M128.471 68.5627C128.439 68.6225 121.553 65.0039 113.091 60.4756C104.629 55.9473 97.7988 52.2329 97.8307 52.1731C97.8626 52.1132 104.745 55.7359 113.207 60.2602C121.669 64.7844 128.503 68.5028 128.471 68.5627Z" fill="#E0E0E0"/>
<path d="M126.054 73.0824C126.022 73.1423 119.136 69.5236 110.674 64.9994C102.212 60.4751 95.3813 56.7687 95.4132 56.6968C95.4451 56.625 102.327 60.2556 110.789 64.7799C119.251 69.3042 126.086 73.0226 126.054 73.0824Z" fill="#E0E0E0"/>
<path d="M123.636 77.6026C123.604 77.6625 116.718 74.0438 108.256 69.5196C99.7937 64.9953 92.9594 61.2769 92.9953 61.217C93.0312 61.1572 99.9094 64.7758 108.371 69.3001C116.834 73.8244 123.668 77.5428 123.636 77.6026Z" fill="#E0E0E0"/>
<path opacity="0.2" d="M123.847 0.514648H122.818V18.0612H123.847V0.514648Z" fill="black"/>
<path d="M99.3027 39.2899H147.362C147.362 39.2899 142.926 18.0688 122.969 18.0688C105.219 18.0688 99.3027 39.2899 99.3027 39.2899Z" fill="#CACACA"/>
<path d="M123.847 0.514648H122.818V18.0612H123.847V0.514648Z" fill="#CACACA"/>
<path d="M230.34 175.992C230.34 176.048 178.773 176.096 115.174 176.096C51.5745 176.096 0 176.06 0 175.992C0 175.925 51.5585 175.889 115.174 175.889C178.789 175.889 230.34 175.933 230.34 175.992Z" fill="#263238"/>
<path d="M193.112 42.5974C191.939 42.8647 191.369 44.2172 191.257 45.4141C191.145 46.611 191.297 47.8798 190.794 48.9729C190.227 50.2017 188.875 51.1114 188.831 52.4639C188.803 53.2898 189.294 54.0598 189.27 54.8936C189.23 56.2501 187.85 57.2874 187.774 58.6279C187.722 59.6054 188.372 60.539 188.217 61.5045C188.097 62.2545 187.511 62.845 187.263 63.5632C186.772 64.9994 187.758 66.5754 189.039 67.3813C189.756 67.8324 190.563 68.1213 191.404 68.228C192.245 68.3347 193.099 68.2565 193.906 67.9989C194.714 67.7413 195.455 67.3105 196.079 66.7366C196.702 66.1627 197.193 65.4595 197.517 64.6763C198.227 62.9527 198.071 61.0098 197.916 59.1546C197.437 53.3669 197.08 47.5712 196.846 41.7676" fill="#263238"/>
<path d="M189.705 63.0164C189.946 62.8664 190.134 62.6446 190.243 62.3821C190.358 62.0698 190.405 61.7364 190.379 61.4046C190.335 60.9647 190.237 60.5319 190.088 60.1159C189.897 59.5931 189.826 59.0341 189.88 58.4801C189.98 57.8578 190.427 57.3471 190.83 56.8444C191.047 56.5984 191.228 56.323 191.368 56.0265C191.509 55.7266 191.532 55.3849 191.432 55.069C191.225 54.4187 190.586 53.9399 190.295 53.1859C190.158 52.8126 190.136 52.4069 190.231 52.0209C190.322 51.6589 190.456 51.3093 190.63 50.9796C190.967 50.3857 191.235 49.7552 191.428 49.1004C191.707 47.8357 191.576 46.6268 191.767 45.6334C191.873 44.8378 192.227 44.0954 192.777 43.5109C192.932 43.3534 193.11 43.2191 193.303 43.1119C193.37 43.0772 193.441 43.0517 193.515 43.0361C193.265 43.1738 193.035 43.3457 192.832 43.5468C192.323 44.1372 192.002 44.8668 191.911 45.6414C191.841 46.1705 191.804 46.7035 191.799 47.2373C191.798 47.8654 191.736 48.492 191.616 49.1084C191.425 49.7782 191.157 50.4236 190.818 51.0314C190.518 51.6578 190.243 52.3919 190.507 53.0781C190.77 53.7644 191.404 54.2391 191.648 54.9732C191.757 55.3359 191.73 55.7263 191.572 56.0704C191.416 56.3967 191.215 56.699 190.973 56.9681C190.574 57.4708 190.139 57.9495 190.044 58.5081C189.988 59.0379 190.051 59.5735 190.227 60.076C190.37 60.5049 190.458 60.9498 190.491 61.4006C190.51 61.7477 190.449 62.0947 190.311 62.414C190.225 62.6141 190.088 62.7877 189.912 62.9167C189.85 62.9624 189.779 62.9962 189.705 63.0164Z" fill="#455A64"/>
<path d="M186.585 72.4761L182.994 82.8492L167.977 83.6472L165.471 89.2327L181.151 90.8286C181.891 91.1327 182.686 91.2835 183.487 91.2718C184.288 91.2602 185.078 91.0863 185.809 90.7608C186.541 90.4353 187.199 89.9648 187.744 89.3778C188.288 88.7908 188.708 88.0995 188.978 87.3456L193.164 75.6638L186.585 72.4761Z" fill="#B78876"/>
<path d="M217.628 170.355C217.628 170.355 206.625 135.397 206.389 134.264C206.178 133.235 210.379 108.08 210.914 101.549L196.044 102.103V102.251L189.725 102.602L195.382 174.065H202.224L201.546 150.346C205.767 161.673 211.815 173.219 211.815 173.219L217.628 170.355Z" fill="#B78876"/>
<path d="M201.825 158.857C201.825 158.641 201.742 150.909 201.742 150.909C201.658 151.372 199.12 144.199 199.18 143.764C199.212 143.536 201.825 158.857 201.825 158.857Z" fill="#A36957"/>
<path d="M198.892 140.364C198.857 140.506 198.843 140.653 198.849 140.799C198.827 141.198 198.827 141.597 198.849 141.996C198.849 142.247 198.884 142.519 198.916 142.814C198.948 143.109 198.992 143.42 199.06 143.744C199.202 144.449 199.39 145.145 199.623 145.826C200.117 147.274 200.668 148.539 201.055 149.457C201.238 149.856 201.398 150.235 201.534 150.538C201.583 150.679 201.65 150.813 201.733 150.937C201.712 150.799 201.672 150.665 201.613 150.538C201.522 150.275 201.382 149.896 201.214 149.429C200.863 148.495 200.337 147.219 199.846 145.786C199.614 145.115 199.423 144.43 199.275 143.736C199.204 143.416 199.156 143.109 199.112 142.822C199.068 142.535 199.036 142.263 199.016 142.024C198.968 141.529 198.948 141.13 198.936 140.851C198.944 140.688 198.929 140.524 198.892 140.364Z" fill="#A36957"/>
<path d="M195.254 174.428V173.786L202.264 173.479L202.284 176.132L201.853 176.16C199.926 176.271 192.058 176.598 190.774 176.211C189.333 175.781 195.254 174.428 195.254 174.428Z" fill="#455A64"/>
<path d="M202.376 175.972C202.336 175.975 202.296 175.975 202.256 175.972L201.913 175.996L200.644 176.052C199.575 176.096 198.095 176.136 196.463 176.144C194.831 176.152 193.347 176.124 192.274 176.092L191.009 176.04H190.662H190.542C190.582 176.037 190.622 176.037 190.662 176.04H191.009L192.278 176.064C193.347 176.064 194.827 176.096 196.459 176.088C198.091 176.08 199.575 176.052 200.644 176.024L201.913 175.992H202.376V175.972Z" fill="#263238"/>
<path d="M192.968 176.196C192.91 175.987 192.83 175.785 192.729 175.594C192.603 175.417 192.457 175.255 192.294 175.111C192.512 175.189 192.693 175.345 192.801 175.55C192.933 175.738 192.992 175.967 192.968 176.196Z" fill="#263238"/>
<path d="M195.035 175.146C195.035 175.146 194.92 175.039 194.816 174.879C194.712 174.719 194.648 174.58 194.668 174.568C194.688 174.556 194.784 174.671 194.888 174.831C194.991 174.991 195.055 175.134 195.035 175.146Z" fill="#263238"/>
<path d="M195.601 174.863C195.601 174.883 195.474 174.807 195.354 174.699C195.234 174.592 195.147 174.492 195.163 174.476C195.178 174.46 195.29 174.532 195.41 174.639C195.53 174.747 195.617 174.827 195.601 174.863Z" fill="#263238"/>
<path d="M195.957 174.185C195.839 174.228 195.714 174.244 195.59 174.233C195.467 174.249 195.343 174.237 195.227 174.197C195.343 174.154 195.467 174.138 195.59 174.149C195.713 174.132 195.839 174.144 195.957 174.185Z" fill="#263238"/>
<path d="M196.076 173.722C195.957 173.8 195.819 173.841 195.677 173.842C195.542 173.86 195.404 173.841 195.278 173.786C195.41 173.764 195.544 173.753 195.677 173.754C195.809 173.731 195.943 173.72 196.076 173.722Z" fill="#263238"/>
<path d="M194.8 174.536C194.651 174.564 194.498 174.564 194.349 174.536C194.188 174.516 194.029 174.482 193.874 174.432C193.778 174.406 193.686 174.368 193.599 174.321C193.546 174.289 193.506 174.24 193.487 174.181C193.48 174.148 193.482 174.113 193.494 174.081C193.506 174.049 193.527 174.022 193.555 174.001C193.665 173.948 193.786 173.92 193.909 173.918C194.032 173.917 194.153 173.944 194.265 173.995C194.376 174.047 194.475 174.122 194.554 174.216C194.632 174.311 194.689 174.421 194.72 174.54C194.728 174.58 194.728 174.62 194.72 174.66C194.675 174.516 194.604 174.381 194.512 174.261C194.406 174.141 194.268 174.055 194.113 174.013C193.937 173.956 193.745 173.971 193.579 174.053C193.511 174.105 193.539 174.189 193.615 174.237C193.696 174.281 193.782 174.317 193.87 174.345C194.02 174.394 194.173 174.433 194.329 174.46C194.628 174.524 194.8 174.524 194.8 174.536Z" fill="#263238"/>
<path d="M194.684 174.56C194.626 174.468 194.606 174.356 194.628 174.249C194.643 174.132 194.685 174.019 194.752 173.922C194.789 173.855 194.843 173.799 194.908 173.759C194.972 173.718 195.046 173.695 195.123 173.69C195.168 173.701 195.207 173.728 195.233 173.767C195.259 173.805 195.27 173.852 195.262 173.898C195.253 173.969 195.227 174.037 195.187 174.097C195.126 174.196 195.055 174.289 194.975 174.373C194.906 174.452 194.818 174.514 194.72 174.552C194.72 174.552 194.808 174.472 194.931 174.329C195.003 174.247 195.066 174.157 195.119 174.061C195.179 173.966 195.223 173.794 195.119 173.774C195.015 173.754 194.895 173.878 194.828 173.966C194.764 174.052 194.721 174.152 194.7 174.257C194.684 174.357 194.678 174.459 194.684 174.56Z" fill="#263238"/>
<path d="M202.229 174.065C202.229 174.065 202.029 174.065 201.714 174.085C201.303 174.134 200.915 174.297 200.593 174.556C200.27 174.815 200.027 175.159 199.891 175.549C199.787 175.848 199.779 176.052 199.763 176.048C199.747 176.044 199.763 175.996 199.763 175.908C199.773 175.78 199.797 175.653 199.835 175.529C199.962 175.121 200.206 174.759 200.537 174.488C200.872 174.222 201.279 174.062 201.706 174.029C201.838 174.013 201.972 174.013 202.105 174.029C202.147 174.036 202.189 174.048 202.229 174.065Z" fill="#263238"/>
<path d="M198.873 175.414C198.538 175.491 198.195 175.525 197.851 175.513C197.51 175.53 197.168 175.501 196.834 175.425C196.834 175.402 197.289 175.425 197.851 175.425C198.414 175.425 198.869 175.39 198.873 175.414Z" fill="#263238"/>
<path d="M200.238 175.401C200.238 175.401 200.202 175.497 200.154 175.601C200.106 175.704 200.082 175.8 200.058 175.796C200.034 175.792 200.022 175.688 200.078 175.565C200.134 175.441 200.222 175.381 200.238 175.401Z" fill="#263238"/>
<path d="M200.752 174.76C200.752 174.76 200.724 174.847 200.652 174.919C200.58 174.991 200.508 175.039 200.488 175.023C200.468 175.007 200.516 174.935 200.588 174.859C200.66 174.784 200.732 174.74 200.752 174.76Z" fill="#263238"/>
<path d="M201.487 174.464C201.487 174.488 201.391 174.488 201.287 174.524C201.183 174.56 201.112 174.616 201.092 174.6C201.072 174.584 201.132 174.488 201.259 174.444C201.387 174.4 201.495 174.44 201.487 174.464Z" fill="#263238"/>
<path d="M202.009 174.32C202.009 174.344 201.981 174.38 201.921 174.4C201.861 174.42 201.809 174.424 201.801 174.4C201.793 174.376 201.833 174.34 201.889 174.32C201.945 174.3 202.001 174.3 202.009 174.32Z" fill="#263238"/>
<path d="M211.676 173.81L211.412 173.224L217.68 170.076L218.785 172.469L218.386 172.673C216.675 173.563 209.633 177.082 208.3 177.257C206.828 177.469 211.676 173.81 211.676 173.81Z" fill="#455A64"/>
<path d="M218.809 172.297L218.706 172.361L218.398 172.521L217.265 173.095C216.308 173.57 214.975 174.212 213.487 174.891C211.999 175.569 210.634 176.147 209.645 176.558L208.468 177.033L208.149 177.157C208.112 177.174 208.073 177.186 208.033 177.193L208.141 177.141L208.456 177.001L209.621 176.502C210.607 176.08 211.963 175.489 213.451 174.811C214.939 174.133 216.276 173.502 217.241 173.039L218.382 172.493L218.698 172.345L218.809 172.297Z" fill="#263238"/>
<path d="M210.331 176.355C210.193 176.187 210.036 176.034 209.864 175.901C209.677 175.79 209.478 175.701 209.27 175.637C209.499 175.634 209.724 175.701 209.913 175.83C210.103 175.958 210.249 176.142 210.331 176.355Z" fill="#263238"/>
<path d="M211.772 174.552C211.772 174.552 211.62 174.504 211.46 174.401C211.301 174.297 211.185 174.197 211.197 174.177C211.209 174.157 211.349 174.225 211.508 174.329C211.668 174.433 211.784 174.532 211.772 174.552Z" fill="#263238"/>
<path d="M212.163 174.065C212.163 174.085 212.027 174.065 211.871 174.018C211.716 173.97 211.6 173.91 211.604 173.886C211.705 173.876 211.807 173.893 211.899 173.934C212.051 173.97 212.171 174.026 212.163 174.065Z" fill="#263238"/>
<path d="M212.218 173.299C212.218 173.323 212.086 173.407 211.903 173.495C211.797 173.558 211.678 173.598 211.556 173.611C211.556 173.587 211.687 173.503 211.867 173.415C211.974 173.352 212.094 173.312 212.218 173.299Z" fill="#263238"/>
<path d="M212.139 172.828C212.139 172.828 212.023 172.988 211.815 173.103C211.698 173.183 211.559 173.225 211.417 173.223C211.531 173.146 211.652 173.081 211.78 173.027C211.975 172.92 212.119 172.808 212.139 172.828Z" fill="#263238"/>
<path d="M211.321 174.097C211.199 174.18 211.064 174.242 210.922 174.28C210.765 174.326 210.605 174.359 210.443 174.38C210.345 174.392 210.246 174.392 210.148 174.38C210.086 174.375 210.029 174.347 209.988 174.3C209.97 174.272 209.96 174.239 209.96 174.205C209.96 174.171 209.97 174.137 209.988 174.109C210.11 173.962 210.278 173.862 210.465 173.825C210.652 173.789 210.846 173.819 211.014 173.909C211.113 173.961 211.2 174.033 211.269 174.121C211.317 174.185 211.337 174.224 211.333 174.228C211.235 174.119 211.117 174.028 210.986 173.961C210.845 173.895 210.689 173.872 210.535 173.893C210.444 173.903 210.355 173.93 210.274 173.974C210.193 174.018 210.122 174.077 210.064 174.149C210.02 174.224 210.064 174.288 210.172 174.3C210.263 174.308 210.356 174.308 210.447 174.3C210.606 174.284 210.763 174.256 210.918 174.216C211.145 174.153 211.321 174.085 211.321 174.097Z" fill="#263238"/>
<path d="M211.209 174.165C211.12 174.102 211.058 174.008 211.034 173.902C210.999 173.789 210.99 173.67 211.01 173.554C211.017 173.478 211.043 173.404 211.086 173.341C211.129 173.277 211.188 173.226 211.257 173.191C211.357 173.159 211.588 173.363 211.604 173.439C211.62 173.515 211.488 173.475 211.481 173.538C211.468 173.652 211.441 173.763 211.401 173.87C211.372 173.972 211.317 174.066 211.241 174.141C211.241 174.141 211.289 174.033 211.345 173.854C211.373 173.748 211.393 173.64 211.405 173.53C211.405 173.419 211.405 173.247 211.277 173.275C211.149 173.303 211.113 173.459 211.086 173.57C211.061 173.674 211.061 173.782 211.086 173.886C211.118 173.982 211.16 174.076 211.209 174.165Z" fill="#263238"/>
<path d="M217.892 170.618C217.892 170.618 217.7 170.686 217.429 170.85C217.074 171.062 216.785 171.368 216.595 171.735C216.411 172.106 216.332 172.52 216.368 172.932C216.392 173.251 216.467 173.435 216.452 173.443C216.426 173.403 216.406 173.36 216.392 173.315C216.352 173.193 216.324 173.067 216.308 172.94C216.251 172.515 216.324 172.083 216.519 171.701C216.714 171.319 217.02 171.005 217.397 170.802C217.51 170.739 217.629 170.688 217.752 170.65C217.797 170.633 217.844 170.622 217.892 170.618Z" fill="#263238"/>
<path d="M215.382 173.227C214.82 173.618 214.191 173.905 213.527 174.073C213.527 174.049 213.946 173.889 214.456 173.674C214.967 173.459 215.37 173.207 215.382 173.227Z" fill="#263238"/>
<path d="M216.623 172.657C216.643 172.657 216.623 172.757 216.623 172.872C216.623 172.988 216.623 173.084 216.623 173.092C216.623 173.1 216.543 173.004 216.543 172.872C216.543 172.741 216.603 172.645 216.623 172.657Z" fill="#263238"/>
<path d="M216.826 171.859C216.846 171.859 216.826 171.951 216.802 172.047C216.778 172.142 216.718 172.214 216.698 172.206C216.678 172.198 216.698 172.114 216.722 172.019C216.746 171.923 216.802 171.851 216.826 171.859Z" fill="#263238"/>
<path d="M217.377 171.272C217.377 171.296 217.297 171.332 217.218 171.408C217.138 171.484 217.094 171.564 217.074 171.556C217.054 171.548 217.074 171.436 217.162 171.344C217.25 171.252 217.373 171.272 217.377 171.272Z" fill="#263238"/>
<path d="M217.797 170.945C217.797 170.945 217.797 171.01 217.748 171.054C217.7 171.098 217.656 171.122 217.64 171.106C217.624 171.09 217.64 171.042 217.688 170.998C217.736 170.953 217.781 170.929 217.797 170.945Z" fill="#263238"/>
<path d="M209.949 89.7392L208.784 75.496L214.768 75.6037C214.768 75.6037 215.043 73.5012 214.162 68.8971C213.619 66.0724 211.74 64.3409 209.629 63.3116V63.2717L209.446 63.2238C207.709 62.4438 205.853 61.9597 203.956 61.7915L196.595 61.8753C196.595 61.8753 190.974 61.1571 187.874 65.1827C186.677 66.7267 182.962 77.2954 182.962 77.2954L191.8 81.5484L190.974 75.6875C190.974 75.6875 191.141 79.9365 191.684 81.2731C191.983 82.0231 192.881 84.3531 192.881 84.3531L192.765 91.3829L209.949 89.7392Z" fill="#2952CE"/>
<path d="M205.891 73.4292L204.797 78.0811H215.103L214.424 70.2773L205.891 73.4292Z" fill="#2952CE"/>
<path d="M215.103 78.0817C214.653 77.9987 214.196 77.9534 213.738 77.9461C212.893 77.8982 211.744 77.8543 210.435 77.8623C209.126 77.8703 207.973 77.9261 207.128 77.9899C206.67 78.0059 206.215 78.0619 205.767 78.1575C206.224 78.1939 206.683 78.1939 207.14 78.1575C207.981 78.1296 209.134 78.0977 210.435 78.0937C211.736 78.0897 212.889 78.0937 213.734 78.1136C214.191 78.1392 214.648 78.1285 215.103 78.0817Z" fill="#263238"/>
<path d="M205.445 70.2412C205.395 70.6382 205.385 71.039 205.413 71.4381C205.413 72.1682 205.445 73.1736 205.488 74.2867C205.532 75.3999 205.584 76.4092 205.632 77.1354C205.634 77.5376 205.677 77.9386 205.76 78.3323C205.809 77.9352 205.819 77.5344 205.792 77.1354C205.792 76.4053 205.76 75.3959 205.716 74.2827C205.672 73.1696 205.62 72.1642 205.572 71.4341C205.571 71.0332 205.528 70.6334 205.445 70.2412Z" fill="#263238"/>
<g opacity="0.3">
<path d="M196.068 74.2715C196.068 74.2715 198.358 91.2555 204.797 90.8047C204.797 90.8047 207.698 90.7728 208.627 88.8458V88.0877L196.068 74.2715Z" fill="black"/>
</g>
<g opacity="0.3">
<path d="M205.444 71.2432L204.211 79.5696L205.009 81.0298L206.325 78.1732L205.767 78.1573L205.444 71.2432Z" fill="black"/>
</g>
<path d="M192.844 84.3611C192.768 84.2367 192.709 84.1025 192.669 83.9621C192.569 83.7028 192.437 83.3237 192.27 82.849C191.87 81.6119 191.541 80.3531 191.284 79.0787C191.028 77.8036 190.865 76.5115 190.797 75.2127C190.774 74.714 190.766 74.3111 190.774 74.0158C190.763 73.8716 190.773 73.7267 190.801 73.585C190.833 73.585 190.857 74.1994 190.941 75.1808C191.053 76.4678 191.236 77.7478 191.488 79.0149C191.783 80.4991 192.138 81.8276 192.409 82.7812C192.537 83.224 192.645 83.603 192.732 83.9142C192.787 84.0582 192.825 84.2082 192.844 84.3611Z" fill="#263238"/>
<path d="M195.446 89.2401C195.39 89.2401 195.23 88.893 195.091 88.4422C194.97 88.1659 194.917 87.8652 194.935 87.5645C195.111 87.8082 195.232 88.0873 195.29 88.3823C195.405 88.6533 195.458 88.9462 195.446 89.2401Z" fill="#263238"/>
<path d="M196.335 89.1766C196.034 88.3762 196.021 87.4957 196.3 86.687C196.331 87.1014 196.331 87.5174 196.3 87.9318C196.343 88.3452 196.355 88.7613 196.335 89.1766Z" fill="#263238"/>
<path d="M191.979 81.744C191.951 81.7918 189.896 80.8184 187.387 79.5656C184.877 78.3128 182.863 77.2516 182.886 77.1997C182.91 77.1479 184.969 78.1253 187.479 79.3781C189.988 80.6308 192.003 81.6921 191.979 81.744Z" fill="#263238"/>
<path d="M195.601 63.2515C195.645 61.2327 195.657 59.1102 195.657 59.1102C195.657 59.1102 193.068 58.6115 192.617 55.2043C192.186 51.9567 193.391 44.3325 193.391 44.3325C197.173 42.9042 201.103 44.2008 203.692 47.2649L203.05 63.6505C202.974 65.5535 201.279 67.0058 199.244 66.91C197.185 66.8103 195.557 65.1745 195.601 63.2515Z" fill="#B78876"/>
<path d="M193.192 50.4254C193.188 50.5372 193.227 50.6462 193.302 50.73C193.376 50.8138 193.479 50.8661 193.591 50.8762C193.647 50.8817 193.704 50.8756 193.759 50.8582C193.813 50.8409 193.863 50.8127 193.906 50.7753C193.949 50.738 193.984 50.6923 194.008 50.6411C194.033 50.5898 194.047 50.5341 194.049 50.4772C194.053 50.3658 194.013 50.2573 193.939 50.1742C193.865 50.091 193.762 50.0395 193.65 50.0304C193.594 50.0218 193.536 50.0255 193.48 50.0414C193.425 50.0573 193.374 50.085 193.33 50.1225C193.287 50.16 193.252 50.2065 193.228 50.2588C193.204 50.311 193.192 50.3679 193.192 50.4254Z" fill="#263238"/>
<path d="M193.032 49.8541C193.084 49.91 193.431 49.6746 193.89 49.6906C194.349 49.7065 194.688 49.9459 194.744 49.8901C194.8 49.8342 194.72 49.7624 194.572 49.6467C194.372 49.502 194.133 49.4225 193.886 49.4193C193.643 49.41 193.403 49.48 193.204 49.6188C193.056 49.7265 193.004 49.8262 193.032 49.8541Z" fill="#263238"/>
<path d="M197.944 50.7208C197.939 50.8329 197.978 50.9424 198.053 51.0264C198.127 51.1104 198.231 51.1624 198.343 51.1716C198.4 51.1803 198.458 51.1764 198.514 51.1603C198.569 51.1442 198.621 51.1162 198.664 51.0782C198.708 51.0403 198.743 50.9933 198.767 50.9405C198.79 50.8878 198.802 50.8305 198.801 50.7726C198.806 50.661 198.767 50.5519 198.692 50.4686C198.618 50.3852 198.514 50.334 198.403 50.3258C198.346 50.3172 198.288 50.3209 198.232 50.3368C198.177 50.3527 198.126 50.3804 198.082 50.4179C198.039 50.4554 198.004 50.5019 197.98 50.5542C197.956 50.6065 197.944 50.6633 197.944 50.7208Z" fill="#263238"/>
<path d="M197.911 50.1502C197.963 50.2101 198.31 49.9747 198.769 49.9867C199.228 49.9986 199.567 50.242 199.627 50.1861C199.687 50.1303 199.599 50.0585 199.451 49.9468C199.255 49.7982 199.016 49.7171 198.769 49.7154C198.525 49.7081 198.285 49.7779 198.083 49.9148C197.939 50.0226 197.887 50.1223 197.911 50.1502Z" fill="#263238"/>
<path d="M196.124 53.5765C195.879 53.4923 195.624 53.44 195.366 53.4209C195.246 53.4209 195.135 53.3771 195.119 53.2973C195.109 53.1725 195.14 53.048 195.207 52.9422L195.582 52.0445C195.931 51.2816 196.217 50.4917 196.439 49.6826C196.031 50.4157 195.681 51.1801 195.394 51.9687C195.27 52.2839 195.147 52.5871 195.031 52.8744C194.954 53.0169 194.928 53.1819 194.959 53.3411C194.975 53.3844 195 53.4235 195.033 53.4553C195.067 53.4871 195.107 53.5109 195.151 53.5247C195.217 53.5438 195.285 53.5546 195.354 53.5566C195.609 53.5958 195.868 53.6025 196.124 53.5765Z" fill="#263238"/>
<path d="M195.658 59.1103C197.254 59.1742 198.837 58.7945 200.23 58.0132C200.23 58.0132 199.069 60.3152 195.682 59.9123L195.658 59.1103Z" fill="#A36957"/>
<path d="M199.412 48.7893C199.316 48.9369 198.957 48.873 198.558 48.7893C198.159 48.7055 197.808 48.6377 197.76 48.4661C197.712 48.2945 198.131 48.0671 198.666 48.1748C199.2 48.2826 199.508 48.6616 199.412 48.7893Z" fill="#263238"/>
<path d="M194.756 48.111C194.72 48.2825 194.337 48.3464 193.898 48.3663C193.459 48.3863 193.072 48.3663 193.02 48.1908C192.969 48.0152 193.34 47.7679 193.87 47.7439C194.401 47.72 194.792 47.9474 194.756 48.111Z" fill="#263238"/>
<path d="M196.132 54.6975C196.082 54.6855 196.029 54.6908 195.982 54.7125C195.935 54.7342 195.896 54.7711 195.873 54.8172C195.85 54.8578 195.838 54.9038 195.839 54.9504C195.839 54.9969 195.852 55.0426 195.876 55.0828C195.899 55.123 195.933 55.1563 195.973 55.1794C196.014 55.2026 196.06 55.2148 196.106 55.2148C196.153 55.2148 196.199 55.2026 196.239 55.1794C196.279 55.1563 196.313 55.123 196.337 55.0828C196.36 55.0426 196.373 54.9969 196.373 54.9504C196.374 54.9038 196.362 54.8578 196.34 54.8172C196.311 54.7636 196.265 54.7213 196.209 54.6974C196.153 54.6735 196.091 54.6693 196.032 54.6855" fill="#A36957"/>
<path d="M196.239 54.7461C196.239 54.7262 196.164 54.6105 195.96 54.6544C195.899 54.6703 195.844 54.7018 195.799 54.7459C195.754 54.7901 195.722 54.8452 195.705 54.9057C195.683 54.9821 195.685 55.0632 195.71 55.1385C195.735 55.2138 195.782 55.28 195.844 55.3286C195.911 55.3741 195.989 55.3984 196.07 55.3984C196.15 55.3984 196.229 55.3741 196.295 55.3286C196.348 55.2929 196.39 55.2427 196.415 55.1841C196.441 55.1254 196.449 55.0606 196.439 54.9975C196.399 54.786 196.243 54.7541 196.235 54.7821C196.227 54.81 196.291 54.8818 196.279 55.0055C196.277 55.036 196.266 55.0655 196.25 55.0912C196.233 55.117 196.21 55.1382 196.184 55.1531C196.153 55.171 196.117 55.1804 196.082 55.1804C196.046 55.1804 196.011 55.171 195.98 55.1531C195.952 55.1295 195.931 55.0991 195.918 55.0648C195.906 55.0305 195.902 54.9936 195.908 54.9576C195.913 54.9261 195.925 54.8962 195.944 54.8704C195.963 54.8447 195.987 54.824 196.016 54.81C196.128 54.7422 196.227 54.7741 196.239 54.7461Z" fill="#263238"/>
<path d="M202.144 51.2666C201.745 52.2002 200.756 52.9223 200.892 53.9317C200.979 54.582 201.398 55.1884 201.319 55.8427C201.215 56.6407 200.365 57.2311 200.241 58.049C200.094 59.0504 201.071 59.8284 201.458 60.762C202.029 62.1265 201.303 63.6585 201.283 65.1506C201.306 66.2835 201.739 67.3694 202.502 68.2072C203.265 69.045 204.306 69.5778 205.432 69.7068C206.342 69.7826 207.367 69.5074 207.826 68.7254C208.225 68.0791 208.137 67.2572 208.368 66.543C208.719 65.4738 209.737 64.6918 209.964 63.5907C210.363 61.5958 207.929 59.9202 208.089 57.8775C208.157 57.0037 208.695 56.2457 208.923 55.3999C209.068 54.844 209.079 54.2618 208.955 53.7008C208.832 53.1398 208.577 52.616 208.213 52.1722C207.61 51.4581 206.74 50.9753 206.218 50.2093C205.639 49.3276 205.619 48.2145 205.42 47.1732C205.152 45.9075 204.568 44.7304 203.721 43.7519C202.875 42.7734 201.794 42.0254 200.581 41.5779C199.367 41.1304 198.059 40.9979 196.78 41.1929C195.501 41.3878 194.293 41.9039 193.267 42.6928C193.267 42.6928 192.689 45.322 195.39 45.7648C198.091 46.2077 199.34 45.697 199.643 46.7782C199.571 47.2236 199.606 47.6796 199.745 48.1089C199.884 48.5381 200.122 48.9284 200.441 49.2478C201.542 50.4367 202.591 50.1814 202.144 51.2666Z" fill="#263238"/>
<path d="M206.434 69.5038C206.351 69.5066 206.268 69.4986 206.186 69.4798C205.953 69.4384 205.723 69.3756 205.5 69.2923C204.676 68.9765 203.954 68.4428 203.41 67.7483C203.028 67.2691 202.729 66.7298 202.524 66.1525C202.291 65.4949 202.168 64.8033 202.161 64.1058C202.153 63.3369 202.249 62.5704 202.448 61.8276C202.557 61.4354 202.69 61.0503 202.847 60.6746C203.012 60.3007 203.157 59.9186 203.282 59.5296C203.392 59.1463 203.392 58.7399 203.282 58.3566C203.165 57.9793 203.014 57.6134 202.831 57.2635C202.646 56.9165 202.49 56.5548 202.364 56.1823C202.242 55.8135 202.213 55.4199 202.281 55.0372C202.44 54.2872 202.895 53.7286 203.166 53.1581C203.425 52.63 203.548 52.046 203.525 51.4585C203.489 50.5987 203.177 49.7734 202.636 49.1046C202.426 48.8703 202.201 48.6504 201.961 48.4463C202.241 48.6035 202.491 48.8088 202.7 49.0527C203.281 49.7206 203.623 50.5627 203.673 51.4465C203.706 52.0596 203.585 52.6713 203.322 53.2259C203.047 53.8164 202.604 54.3789 202.468 55.0652C202.332 55.7514 202.656 56.4735 203.011 57.1677C203.204 57.5277 203.362 57.9059 203.481 58.2968C203.599 58.7142 203.599 59.1561 203.481 59.5735C203.349 59.976 203.196 60.3715 203.023 60.7584C202.866 61.1259 202.733 61.503 202.624 61.8875C202.426 62.6115 202.328 63.3592 202.332 64.1097C202.32 65.388 202.733 66.6342 203.505 67.6526C204.022 68.3384 204.71 68.8763 205.5 69.2125C206.095 69.4439 206.438 69.4798 206.434 69.5038Z" fill="#455A64"/>
<path d="M206.035 49.3719C205.84 49.4222 205.641 49.4516 205.44 49.4596C204.893 49.5182 204.34 49.5034 203.796 49.4157C203.384 49.3547 202.989 49.2122 202.633 48.9964C202.276 48.7806 201.967 48.4959 201.722 48.159C201.494 47.7328 201.312 47.2834 201.179 46.8185C201.009 46.3541 200.689 45.9596 200.27 45.6974C199.396 45.1428 198.371 45.075 197.477 44.9673C196.653 44.9262 195.852 44.6763 195.151 44.2411C194.681 43.9299 194.342 43.4572 194.197 42.9126C194.163 42.765 194.153 42.6125 194.169 42.4617C194.169 42.358 194.193 42.3062 194.201 42.3062C194.206 42.5038 194.231 42.7003 194.277 42.8926C194.442 43.4019 194.781 43.8368 195.235 44.1215C195.923 44.5231 196.7 44.7479 197.497 44.7758C198.39 44.8795 199.452 44.9314 200.385 45.5218C200.842 45.8087 201.19 46.2397 201.375 46.7467C201.5 47.1998 201.672 47.6384 201.889 48.0553C202.354 48.6927 203.05 49.1225 203.828 49.2522C204.354 49.3499 204.89 49.3861 205.424 49.3599C205.628 49.3485 205.832 49.3525 206.035 49.3719Z" fill="#455A64"/>
<path d="M205.045 46.1239C204.894 46.1741 204.736 46.1971 204.578 46.1917C203.834 46.1967 203.118 45.9103 202.583 45.3938C202.339 45.149 202.131 44.871 201.965 44.5679C201.606 43.9615 201.259 43.2154 200.512 42.9042C199.794 42.6631 199.028 42.5961 198.278 42.7087C197.646 42.7976 197.004 42.7976 196.371 42.7087C195.931 42.6476 195.517 42.4653 195.174 42.1821C195.086 42.1049 195.008 42.0164 194.943 41.9188C194.895 41.8496 194.875 41.8137 194.883 41.811C194.883 41.811 194.995 41.9387 195.226 42.1182C195.567 42.3609 195.964 42.5145 196.379 42.5651C197 42.6351 197.628 42.6244 198.246 42.5332C199.029 42.4054 199.831 42.4739 200.58 42.7326C200.966 42.9058 201.296 43.1819 201.534 43.5306C201.744 43.8416 201.937 44.1639 202.112 44.4961C202.27 44.7861 202.464 45.0543 202.691 45.294C202.891 45.4967 203.121 45.6676 203.373 45.8007C203.744 45.9945 204.152 46.1073 204.57 46.1318C204.877 46.1279 205.041 46.1039 205.045 46.1239Z" fill="#455A64"/>
<path d="M207.622 68.6419C207.602 68.6419 207.73 68.3786 207.878 67.8839C208.078 67.1894 208.166 66.4677 208.141 65.7454C208.112 64.6763 207.82 63.6308 207.291 62.7013C207 62.1786 206.557 61.7119 206.194 61.1373C206.002 60.8447 205.867 60.5185 205.795 60.1758C205.732 59.8151 205.762 59.4444 205.883 59.0986C206.106 58.4084 206.505 57.8299 206.593 57.1956C206.681 56.5612 206.378 55.9987 206.074 55.468C205.918 55.2098 205.776 54.9435 205.648 54.6701C205.531 54.405 205.454 54.1239 205.42 53.8362C205.383 53.3293 205.399 52.8198 205.468 52.3162C205.596 51.6043 205.529 50.8712 205.276 50.1937C205.164 49.9563 205.003 49.7445 204.806 49.5713C204.806 49.5713 204.826 49.5713 204.854 49.5952C204.901 49.6187 204.944 49.6497 204.981 49.687C205.137 49.817 205.264 49.9789 205.352 50.1618C205.641 50.8451 205.731 51.596 205.612 52.3282C205.557 52.8224 205.55 53.3208 205.592 53.8163C205.69 54.3737 205.911 54.9024 206.238 55.3643C206.408 55.6339 206.554 55.9183 206.673 56.2141C206.799 56.5334 206.84 56.8796 206.793 57.2195C206.697 57.9177 206.286 58.5082 206.078 59.1585C205.97 59.4722 205.941 59.8082 205.995 60.1359C206.064 60.4529 206.191 60.7545 206.37 61.0256C206.709 61.5802 207.168 62.055 207.459 62.6016C207.993 63.5624 208.279 64.6419 208.289 65.7414C208.301 66.4774 208.188 67.2101 207.954 67.9078C207.89 68.0966 207.812 68.2806 207.722 68.4584C207.698 68.524 207.664 68.5858 207.622 68.6419Z" fill="#455A64"/>
<path d="M191.373 142.982C191.373 142.982 188.684 117.512 188.528 108.1C188.372 98.6886 192.761 89.4007 192.761 89.4007L209.949 88.6865C209.949 88.6865 213.348 98.2338 213.408 102.251C213.527 110.047 211.337 117.743 211.588 123.927L212.163 142.998" fill="#263238"/>
<path d="M212.741 111.667C212.651 111.745 212.557 111.817 212.458 111.882L212.302 111.99L212.135 112.154C211.987 112.282 211.853 112.425 211.736 112.581C211.181 113.259 210.778 114.476 210.391 115.988C210.193 116.827 209.902 117.64 209.521 118.414C209.406 118.625 209.272 118.827 209.122 119.016C209.051 119.112 208.983 119.215 208.899 119.307L208.636 119.571C208.258 119.923 207.82 120.204 207.343 120.4C206.382 120.823 205.292 121.023 204.303 121.521C203.289 122.067 202.506 122.959 202.097 124.035C201.61 125.116 201.299 126.249 200.9 127.31C200.501 128.372 199.962 129.385 199.104 130.031C198.284 130.601 197.31 130.909 196.312 130.913C195.386 130.969 194.528 130.941 193.758 131.057C193.065 131.129 192.403 131.379 191.835 131.783C191.421 132.107 191.11 132.545 190.941 133.044C190.834 133.358 190.811 133.695 190.874 134.021C190.922 134.245 190.981 134.352 190.969 134.356C190.905 134.256 190.859 134.145 190.834 134.029C190.75 133.696 190.761 133.347 190.866 133.02C191.024 132.497 191.337 132.033 191.763 131.691C192.345 131.252 193.034 130.977 193.758 130.893C194.556 130.766 195.406 130.781 196.32 130.722C197.289 130.715 198.234 130.415 199.029 129.86C199.835 129.155 200.43 128.241 200.748 127.219C201.147 126.169 201.438 125.032 201.945 123.931C202.374 122.811 203.193 121.883 204.251 121.318C205.28 120.807 206.37 120.612 207.307 120.205C207.766 120.015 208.188 119.745 208.552 119.407L208.803 119.156C208.883 119.068 208.951 118.968 209.023 118.876C209.163 118.695 209.288 118.501 209.394 118.298C209.776 117.535 210.072 116.732 210.275 115.904C210.674 114.396 211.109 113.163 211.696 112.481C211.812 112.325 211.946 112.184 212.095 112.058C212.159 112.002 212.214 111.946 212.27 111.902L212.434 111.799C212.533 111.749 212.636 111.705 212.741 111.667Z" fill="#FAFAFA"/>
<path d="M212.845 99.8809C212.863 99.9929 212.871 100.106 212.869 100.22C212.868 100.549 212.827 100.877 212.749 101.197C212.406 102.365 211.731 103.407 210.806 104.198C210.196 104.759 209.527 105.252 208.811 105.67C208.041 106.125 207.192 106.56 206.318 107.054C205.4 107.546 204.545 108.148 203.772 108.846C202.979 109.632 202.326 110.549 201.841 111.555C201.352 112.574 200.794 113.56 200.17 114.503C199.853 114.943 199.486 115.344 199.077 115.7C198.673 116.043 198.23 116.336 197.756 116.574C196.899 116.995 196.006 117.338 195.087 117.599C194.233 117.862 193.435 118.098 192.741 118.397C192.111 118.648 191.511 118.969 190.954 119.354C190.534 119.646 190.157 119.993 189.832 120.388C189.561 120.73 189.334 121.105 189.158 121.505C189.187 121.394 189.224 121.286 189.27 121.182C189.401 120.88 189.568 120.596 189.769 120.336C190.087 119.925 190.463 119.562 190.886 119.259C191.446 118.859 192.05 118.525 192.685 118.261C193.454 117.948 194.238 117.675 195.035 117.443C195.941 117.176 196.821 116.832 197.668 116.414C198.117 116.18 198.539 115.896 198.925 115.568C199.319 115.218 199.672 114.824 199.978 114.395C200.594 113.456 201.147 112.478 201.634 111.467C202.134 110.438 202.809 109.504 203.629 108.706C204.415 107.998 205.286 107.389 206.222 106.895C207.1 106.404 207.95 105.977 208.72 105.526C209.433 105.123 210.102 104.644 210.714 104.098C211.631 103.331 212.312 102.32 212.677 101.181C212.78 100.755 212.836 100.319 212.845 99.8809Z" fill="#FAFAFA"/>
<path d="M188.615 109.432C188.6 109.407 188.588 109.38 188.58 109.352C188.55 109.275 188.524 109.197 188.504 109.117C188.435 108.799 188.449 108.47 188.544 108.159C188.767 107.361 189.649 106.336 191.069 105.829C191.779 105.586 192.581 105.43 193.419 105.223C194.115 105.108 194.773 104.828 195.339 104.406C195.904 103.985 196.361 103.435 196.671 102.801C196.898 102.336 197.096 101.858 197.265 101.369C197.577 100.307 198.001 99.2811 198.53 98.3088C199.136 97.3531 200.056 96.6379 201.131 96.286C202.11 95.9686 203.108 95.7153 204.119 95.528C205.022 95.3547 205.896 95.0566 206.717 94.6423C207.412 94.2453 208.011 93.7005 208.472 93.0464C209.153 92.1021 209.542 90.9782 209.589 89.8148C209.591 89.3878 209.563 88.9612 209.505 88.5381C209.626 88.9526 209.681 89.3833 209.669 89.8148C209.653 91.0034 209.278 92.1594 208.592 93.1302C208.125 93.8058 207.513 94.3688 206.8 94.7779C205.969 95.2077 205.081 95.5179 204.163 95.6995C203.161 95.8898 202.172 96.1443 201.203 96.4616C200.17 96.7999 199.287 97.4868 198.705 98.4045C198.185 99.3636 197.766 100.375 197.457 101.421C197.284 101.919 197.08 102.405 196.846 102.877C196.61 103.33 196.309 103.747 195.952 104.114C195.252 104.753 194.389 105.187 193.459 105.371C192.613 105.586 191.815 105.722 191.117 105.953C189.733 106.424 188.855 107.393 188.619 108.167C188.523 108.466 188.497 108.783 188.544 109.093C188.577 109.204 188.601 109.317 188.615 109.432Z" fill="#FAFAFA"/>
<path d="M211.369 130.977C211.385 131.059 211.394 131.144 211.397 131.228C211.404 131.47 211.379 131.711 211.321 131.946C211.07 132.811 210.54 133.569 209.813 134.1C209.327 134.487 208.79 134.804 208.217 135.042C207.606 135.301 206.932 135.509 206.222 135.728C205.485 135.944 204.764 136.21 204.064 136.526C203.336 136.874 202.684 137.36 202.145 137.958C201.562 138.565 201.059 139.231 200.501 139.822C199.967 140.394 199.346 140.878 198.662 141.258C197.497 141.893 196.194 142.233 194.867 142.247C193.979 142.257 193.096 142.11 192.258 141.813C192.031 141.734 191.81 141.64 191.596 141.529C191.518 141.497 191.444 141.455 191.376 141.406C191.457 141.428 191.536 141.456 191.612 141.489C191.831 141.583 192.055 141.666 192.282 141.737C193.118 141.999 193.992 142.122 194.867 142.1C196.165 142.066 197.435 141.72 198.57 141.09C199.233 140.715 199.834 140.24 200.353 139.682C200.9 139.1 201.399 138.437 201.993 137.815C202.565 137.194 203.254 136.692 204.02 136.339C204.73 136.021 205.462 135.755 206.21 135.541C206.912 135.325 207.583 135.142 208.205 134.878C208.762 134.651 209.285 134.349 209.761 133.981C210.476 133.476 211.009 132.754 211.281 131.922C211.34 131.61 211.369 131.294 211.369 130.977Z" fill="#FAFAFA"/>
<path d="M209.41 78.0969L206.083 78.1767C205.955 78.8476 205.7 79.4881 205.333 80.0638C202.54 75.2363 200.398 68.773 199.863 66.1758C199.943 65.9164 200.034 65.6292 200.15 65.31C200.233 64.8252 200.218 64.3287 200.106 63.8498C200.011 63.2713 199.851 62.4933 199.803 62.1342C199.655 61.0331 199.476 60.8615 199.093 60.9852C198.574 61.1568 199.308 64.0692 198.881 64.1331C198.65 64.165 198.371 63.1676 198.291 62.3497C198.211 61.5318 197.836 59.0103 197.569 58.8427C197.17 58.5954 196.823 58.9864 196.927 59.8003C197.03 60.6142 197.154 63.0878 196.723 63.1237C196.292 63.1596 195.925 58.9784 195.925 58.9784C195.925 58.9784 195.993 58.0688 195.49 58.0887C194.589 58.1286 195.295 62.5332 195.371 62.9521C195.426 63.2394 194.972 63.2952 194.916 62.98C194.86 62.6649 194.652 58.8029 193.719 58.8348C193.009 58.8348 194.265 62.4614 193.866 63.2992C193.467 64.137 193.196 60.4586 192.522 60.5064C192.271 60.5264 192.083 60.5743 192.546 62.6529C192.989 64.3044 193.522 65.9306 194.142 67.5243C195.211 73.2894 199.903 91.7336 207.256 88.3583C211.373 86.4672 213.041 78.0969 213.041 78.0969H209.41Z" fill="#B78876"/>
<path d="M195.226 63.2316C195.258 63.2396 195.29 63.2396 195.322 63.2316C195.37 63.2169 195.411 63.1856 195.438 63.1431C195.465 63.1007 195.476 63.0501 195.47 63.0002C195.47 62.7529 195.422 62.3938 195.366 61.927C195.272 61.3644 195.211 60.797 195.182 60.2274C195.182 59.8923 195.182 59.5332 195.202 59.1542C195.208 58.9615 195.228 58.7695 195.262 58.5797C195.294 58.4001 195.414 58.1807 195.553 58.2166H195.577C195.717 58.2166 195.829 58.3203 195.872 58.4879C195.922 58.6616 195.941 58.8424 195.928 59.0225C196.011 60.1399 196.153 61.2519 196.355 62.3539C196.387 62.5015 196.419 62.6531 196.467 62.8047C196.488 62.8823 196.515 62.9583 196.547 63.0322C196.567 63.0732 196.59 63.1132 196.615 63.1518C196.632 63.181 196.657 63.2056 196.686 63.2236C196.715 63.2416 196.748 63.2525 196.782 63.2556C196.84 63.2492 196.895 63.2257 196.94 63.188C196.985 63.1504 197.017 63.1003 197.033 63.0441C197.068 62.9661 197.093 62.8844 197.109 62.8007C197.14 62.6399 197.162 62.4774 197.173 62.314C197.209 61.6492 197.2 60.9827 197.145 60.3192C197.095 59.9879 197.081 59.652 197.105 59.3178C197.12 59.1734 197.19 59.0403 197.301 58.9467C197.326 58.9315 197.355 58.9219 197.384 58.9184C197.414 58.915 197.444 58.9178 197.472 58.9268C197.506 58.9349 197.538 58.9484 197.568 58.9667C197.588 58.9818 197.604 59.0027 197.612 59.0265C197.738 59.3501 197.83 59.6856 197.887 60.0279C197.959 60.379 198.019 60.7421 198.075 61.1051C198.131 61.4682 198.182 61.8353 198.226 62.2063C198.261 62.5892 198.322 62.9691 198.41 63.3433C198.457 63.5347 198.517 63.7226 198.589 63.9059C198.63 64.0085 198.687 64.1041 198.757 64.1892C198.784 64.2245 198.82 64.2515 198.862 64.2671C198.904 64.2826 198.949 64.286 198.992 64.2769C199.033 64.2636 199.069 64.2401 199.098 64.2086C199.126 64.1772 199.146 64.1389 199.156 64.0974C199.203 63.8935 199.218 63.6835 199.2 63.475C199.2 63.2755 199.176 63.076 199.156 62.8845C199.128 62.5494 199.096 62.2183 199.084 61.8911C199.074 61.7303 199.074 61.5691 199.084 61.4084C199.092 61.3372 199.109 61.2674 199.136 61.2009C199.144 61.179 199.156 61.1587 199.172 61.1411H199.224C199.487 61.0333 199.575 61.4004 199.647 61.6956C199.718 61.9908 199.746 62.326 199.81 62.6412C199.914 63.2675 200.05 63.8939 200.117 64.4924C200.164 64.7789 200.153 65.0718 200.086 65.3541C199.99 65.6414 199.894 65.9247 199.802 66.2079V66.2359V66.2598C200.27 68.2198 200.865 70.147 201.586 72.0289C202.216 73.7325 202.85 75.2206 203.405 76.4175C203.96 77.6144 204.462 78.552 204.805 79.1823L205.204 79.8965C205.247 79.9816 205.3 80.0619 205.36 80.1359C205.326 80.0473 205.285 79.9618 205.236 79.8805L204.837 79.1504C204.51 78.5081 204.039 77.5546 203.497 76.3577C202.954 75.1608 202.34 73.6726 201.725 71.969C201.022 70.09 200.439 68.1685 199.978 66.2159V66.2718C200.07 65.9925 200.161 65.7092 200.257 65.426C200.34 65.115 200.356 64.7901 200.305 64.4724C200.233 63.846 200.102 63.2396 199.998 62.6092C199.938 62.2981 199.898 61.9789 199.834 61.6517C199.83 61.4837 199.802 61.317 199.75 61.157C199.705 61.0597 199.627 60.9808 199.531 60.9336C199.429 60.9001 199.318 60.9001 199.216 60.9336H199.152C199.118 60.9444 199.087 60.9621 199.06 60.9855C199.016 61.023 198.982 61.071 198.96 61.1251C198.924 61.2114 198.901 61.303 198.893 61.3964C198.881 61.5691 198.881 61.7424 198.893 61.915C198.893 62.2502 198.941 62.5853 198.968 62.9204C198.968 63.1159 199 63.3194 199.008 63.4989C199.024 63.6789 199.015 63.8602 198.98 64.0375C198.98 64.0774 198.948 64.0695 198.98 64.0894L198.956 64.0655C198.906 64.0003 198.865 63.9276 198.837 63.85C198.767 63.6775 198.71 63.5001 198.665 63.3194C198.578 62.9561 198.518 62.5866 198.486 62.2143C198.443 61.8392 198.391 61.4682 198.33 61.1012C198.274 60.7341 198.21 60.375 198.139 60.016C198.078 59.6505 197.977 59.2931 197.835 58.9507C197.808 58.8935 197.765 58.8451 197.712 58.8111C197.665 58.7841 197.616 58.7627 197.564 58.7472C197.507 58.7323 197.448 58.7289 197.39 58.7371C197.331 58.7453 197.275 58.765 197.225 58.7951C197.143 58.8566 197.074 58.9344 197.023 59.0236C196.972 59.1129 196.941 59.2117 196.93 59.3138C196.904 59.4951 196.904 59.6791 196.93 59.8604C196.93 60.0319 196.97 60.1995 196.982 60.3671C197.037 61.0198 197.049 61.6756 197.018 62.33C197.008 62.4854 196.988 62.6401 196.958 62.7928C196.946 62.8641 196.926 62.9338 196.898 63.0002C196.887 63.0265 196.873 63.0508 196.854 63.0721C196.854 63.108 196.826 63.072 196.83 63.1199C196.83 63.08 196.83 63.1199 196.83 63.0681C196.812 63.0411 196.796 63.0131 196.782 62.9843C196.754 62.9204 196.73 62.8486 196.706 62.7808C196.662 62.6372 196.63 62.4896 196.599 62.3459C196.39 61.2534 196.24 60.1508 196.148 59.0425C196.16 58.8419 196.137 58.6408 196.08 58.448C196.054 58.3475 196 58.2563 195.924 58.1847C195.885 58.147 195.839 58.1176 195.788 58.0984C195.737 58.0792 195.683 58.0706 195.629 58.073H195.653C195.585 58.0631 195.517 58.0734 195.455 58.1025C195.393 58.1316 195.341 58.1782 195.306 58.2366C195.247 58.3317 195.206 58.4374 195.186 58.5478C195.153 58.7456 195.134 58.9456 195.13 59.1462C195.13 59.5452 195.13 59.8923 195.13 60.2314C195.168 60.8046 195.241 61.3749 195.35 61.939C195.418 62.4018 195.47 62.7609 195.493 63.0042C195.501 63.0468 195.494 63.0908 195.473 63.1286C195.452 63.1664 195.418 63.1958 195.378 63.2117C195.258 63.2237 195.222 63.2276 195.226 63.2316Z" fill="#A36957"/>
<path d="M169.242 83.5913C168.463 83.5747 167.686 83.6646 166.932 83.8586C164.869 84.4012 161.314 86.5556 161.167 89.2167H163.752C163.752 89.2167 162.304 92.2968 162.726 92.0095C163.832 91.2674 166.026 89.0372 166.026 89.0372L169.242 83.5913Z" fill="#B78876"/>
<path d="M204.482 37.2193C204.422 37.2193 204.191 35.0888 203.96 32.4316C203.728 29.7745 203.585 27.644 203.64 27.644C203.696 27.644 203.932 29.7745 204.163 32.4316C204.395 35.0888 204.538 37.2193 204.482 37.2193Z" fill="#263238"/>
<path d="M215.817 27.8079C215.861 27.8398 214.118 30.3733 211.92 33.4653C209.721 36.5573 207.898 39.0508 207.85 39.0029C207.802 38.9551 209.55 36.4376 211.748 33.3456C213.946 30.2536 215.77 27.776 215.817 27.8079Z" fill="#263238"/>
<path d="M220.525 39.2902C220.525 39.346 218.498 39.8128 215.976 40.3315C213.455 40.8501 211.396 41.2252 211.384 41.1693C211.372 41.1135 213.407 40.6467 215.933 40.128C218.458 39.6094 220.497 39.2343 220.525 39.2902Z" fill="#263238"/>
<path d="M84.8483 94.088L70.7249 166.62L68.8896 176.116L163.046 175.661C167.275 175.641 171.025 171.887 172.378 166.309L189.079 97.8343C190.112 93.6013 187.846 89.1967 184.638 89.2007L89.3168 89.3004C87.2421 89.2964 85.383 91.2594 84.8483 94.088Z" fill="#5785FE"/>
<g opacity="0.5">
<path d="M84.8483 94.088L70.7249 166.62L68.8896 176.116L163.046 175.661C167.275 175.641 171.025 171.887 172.378 166.309L189.079 97.8343C190.112 93.6013 187.846 89.1967 184.638 89.2007L89.3168 89.3004C87.2421 89.2964 85.383 91.2594 84.8483 94.088Z" fill="black"/>
</g>
<path d="M154.025 161.697L144.051 81.3407C143.652 78.0492 141.022 75.5916 137.922 75.6036L116.059 75.6714C115.247 75.6805 114.444 75.8551 113.702 76.1843C112.959 76.5135 112.291 76.9906 111.738 77.5864L101.365 88.6258L40.5625 88.953C36.8481 88.9729 33.9915 92.4918 34.4822 96.4416L43.7423 170.709C44.1412 173.997 46.7704 176.45 49.8624 176.446L155.848 176.235C167.649 176.478 168.779 172.995 168.779 172.995C155.23 175.992 154.025 161.717 154.025 161.697Z" fill="#5785FE"/>
<g opacity="0.5">
<path d="M108.323 145.627L104.748 149.465L77.2197 124.697L80.7945 120.859L108.323 145.627Z" fill="white"/>
<path d="M103.253 120.009L107.203 123.564L82.2951 150.315L78.3413 146.76L103.253 120.009Z" fill="white"/>
</g>
<path d="M169.158 41.92C169.029 41.8656 168.918 41.7755 168.838 41.6604C168.759 41.5452 168.713 41.4097 168.708 41.2697L168.548 37.5673C168.542 37.4522 168.564 37.3375 168.61 37.2321C168.656 37.1266 168.727 37.0335 168.815 36.9599C168.904 36.8864 169.008 36.8345 169.121 36.8083C169.233 36.7822 169.35 36.7825 169.462 36.8093C169.77 36.8759 170.09 36.8788 170.4 36.8177C170.71 36.7567 171.004 36.633 171.265 36.4542C171.505 36.3023 171.711 36.1029 171.871 35.8682C172.031 35.6335 172.141 35.3686 172.194 35.0897C172.231 34.8073 172.21 34.5206 172.133 34.2464C172.056 33.9723 171.925 33.7164 171.748 33.4938C171.561 33.2406 171.326 33.0268 171.056 32.8645C170.786 32.7023 170.487 32.5948 170.176 32.5483C169.548 32.5134 168.927 32.6913 168.413 33.0534C167.899 33.4154 167.522 33.9403 167.343 34.5431C167.283 34.7258 167.156 34.8784 166.986 34.9692C166.817 35.06 166.619 35.082 166.434 35.0306C166.249 34.9791 166.091 34.8583 165.993 34.6932C165.894 34.528 165.864 34.3314 165.907 34.1442C166.178 33.196 166.768 32.3702 167.577 31.8056C168.385 31.2411 169.364 30.9722 170.347 31.0442C170.859 31.1124 171.352 31.2828 171.797 31.5453C172.242 31.8078 172.629 32.157 172.937 32.5722C173.235 32.957 173.454 33.3979 173.579 33.8687C173.705 34.3395 173.734 34.8307 173.667 35.3131C173.576 35.7949 173.388 36.253 173.113 36.6592C172.839 37.0654 172.484 37.4111 172.071 37.675C171.472 38.078 170.773 38.306 170.052 38.3333L170.176 41.1899C170.18 41.3154 170.153 41.4401 170.097 41.5523C170.04 41.6645 169.957 41.7607 169.853 41.8319C169.75 41.9031 169.63 41.9471 169.505 41.9597C169.38 41.9723 169.254 41.9532 169.138 41.9041L169.158 41.92Z" fill="#263238"/>
<path d="M170.251 43.4359C170.259 43.5564 170.232 43.6766 170.172 43.7815C170.112 43.8863 170.022 43.971 169.914 44.0248C169.806 44.0786 169.684 44.0992 169.565 44.0838C169.445 44.0685 169.332 44.018 169.241 43.9386C169.15 43.8593 169.085 43.7547 169.053 43.6382C169.021 43.5216 169.025 43.3983 169.064 43.2838C169.102 43.1693 169.174 43.0688 169.269 42.9951C169.365 42.9213 169.48 42.8775 169.601 42.8694C169.681 42.8634 169.761 42.8734 169.837 42.8987C169.913 42.924 169.984 42.9642 170.044 43.0169C170.105 43.0695 170.154 43.1337 170.19 43.2056C170.225 43.2776 170.246 43.3558 170.251 43.4359Z" fill="#263238"/>
<path d="M156.34 36.6971C156.357 36.6181 156.369 36.5382 156.375 36.4577C156.375 36.2821 156.419 36.0587 156.451 35.7435C156.491 35.3566 156.556 34.9727 156.647 34.5945C156.699 34.3711 156.727 34.1237 156.806 33.8724C156.886 33.621 156.966 33.3497 157.054 33.0744C157.516 31.7105 158.189 30.4275 159.049 29.2723C160.175 27.7764 161.604 26.534 163.242 25.6257C164.174 25.1001 165.167 24.6902 166.198 24.4049C167.311 24.1098 168.458 23.9596 169.609 23.958C170.216 23.9483 170.822 23.9803 171.424 24.0538C171.732 24.0857 172.035 24.1655 172.342 24.2174C172.653 24.2706 172.959 24.3452 173.26 24.4408C174.517 24.7922 175.713 25.3345 176.807 26.0486C179.237 27.6251 181.088 29.9498 182.081 32.6715C182.615 34.1294 182.886 35.6709 182.879 37.2237C182.895 38.8233 182.613 40.4119 182.045 41.9076L181.865 42.3624L181.842 42.4222L181.865 42.4821C182.867 44.7841 183.86 47.0463 184.798 49.2366L184.965 49.0451L178.981 46.751L178.909 46.7231L178.849 46.779C177.266 48.3129 175.328 49.4313 173.208 50.0345C171.396 50.5333 169.499 50.6422 167.643 50.354C165.786 50.0659 164.011 49.3872 162.436 48.3629C161.146 47.5168 160.008 46.4577 159.072 45.231C157.716 43.4403 156.838 41.3343 156.519 39.1108C156.471 38.7118 156.431 38.3767 156.395 38.0735C156.359 37.7703 156.395 37.5229 156.375 37.3115C156.356 37.1 156.375 36.9604 156.375 36.8447C156.395 36.8417 156.413 36.8312 156.426 36.8155C156.438 36.7998 156.445 36.7799 156.443 36.7598C156.442 36.7397 156.432 36.721 156.418 36.7073C156.403 36.6936 156.384 36.686 156.363 36.686C156.343 36.686 156.324 36.6936 156.309 36.7073C156.294 36.721 156.285 36.7397 156.284 36.7598C156.282 36.7799 156.289 36.7998 156.301 36.8155C156.314 36.8312 156.332 36.8417 156.352 36.8447C156.352 36.9604 156.352 37.116 156.352 37.3115C156.352 37.507 156.352 37.7783 156.352 38.0815C156.352 38.3847 156.419 38.7318 156.459 39.1268C156.59 40.0864 156.819 41.0302 157.141 41.9435C157.598 43.1496 158.213 44.2899 158.969 45.3347C159.908 46.5833 161.054 47.6627 162.356 48.5264C163.951 49.5764 165.75 50.2752 167.636 50.5765C169.521 50.8778 171.449 50.7746 173.292 50.2739C175.437 49.6645 177.4 48.5353 179.005 46.9864L178.873 47.0144L184.858 49.3204L185.157 49.4361L185.025 49.1289C184.076 46.9386 183.094 44.6804 182.097 42.3744V42.4901L182.28 42.0233C182.863 40.495 183.152 38.8709 183.134 37.2357C183.147 35.6499 182.876 34.0746 182.336 32.5837C181.322 29.8078 179.43 27.4388 176.946 25.8372C175.826 25.1064 174.598 24.5545 173.308 24.2014C173.002 24.1048 172.69 24.0314 172.374 23.982C172.063 23.9261 171.756 23.8463 171.444 23.8184C170.834 23.7427 170.22 23.708 169.605 23.7147C168.435 23.7196 167.271 23.8779 166.142 24.1855C165.097 24.4822 164.091 24.9028 163.146 25.4382C161.492 26.3688 160.054 27.6404 158.929 29.1686C158.072 30.3429 157.408 31.6467 156.962 33.0306C156.878 33.3178 156.798 33.5931 156.727 33.8285C156.663 34.069 156.613 34.3127 156.575 34.5586C156.489 34.9394 156.433 35.3262 156.407 35.7156C156.383 36.0228 156.367 36.2582 156.356 36.4337C156.339 36.5204 156.333 36.609 156.34 36.6971Z" fill="#263238"/>
</svg>
