<svg width="104" height="103" viewBox="0 0 104 103" fill="none" xmlns="http://www.w3.org/2000/svg">
<rect width="102.86" height="103" rx="8" fill="#F9EFF8"/>
<path d="M92 22.3039V79.6896C92 81.219 91.3459 82.5986 90.2953 83.5618V83.5683C89.3372 84.4599 88.0356 85 86.615 85H16.3916C13.9931 85 11.9647 83.4576 11.2643 81.3296C11.1718 81.0693 11.1057 80.796 11.0595 80.5161C11.0529 80.4445 11.0462 80.373 11.033 80.3014V80.2949C11.0132 80.0931 11 79.8979 11 79.6896V22.3039C11 19.3753 13.4117 17 16.3916 17H86.615C89.5883 17 92 19.3753 92 22.3039Z" fill="#F2D8EE"/>
<path d="M45.8964 17.0851H35.6817C32.5974 17.0851 30.0972 19.5887 30.0972 22.6772V29.4257C30.0972 32.5136 32.5974 35.0178 35.6812 35.0178H36.6093L36.0713 39.1112L40.3659 35.0178H45.8964C48.9802 35.0178 51.4804 32.5142 51.4804 29.4257V22.6772C51.4804 19.5887 48.9802 17.0851 45.8964 17.0851Z" fill="#91828F"/>
<path opacity="0.4" d="M45.8964 17.0851H35.6817C32.5974 17.0851 30.0972 19.5887 30.0972 22.6772V29.4257C30.0972 32.5136 32.5974 35.0178 35.6812 35.0178H36.6093L36.0713 39.1112L40.3659 35.0178H45.8964C48.9802 35.0178 51.4804 32.5142 51.4804 29.4257V22.6772C51.4804 19.5887 48.9802 17.0851 45.8964 17.0851Z" fill="white"/>
<path d="M53.8819 10.5044H64.096C67.1803 10.5044 69.6806 13.0075 69.6806 16.096V22.8445C69.6806 25.933 67.1803 28.4361 64.0966 28.4361H63.1689L63.707 32.53L59.4124 28.4361H53.8819C50.7981 28.4361 48.2979 25.9324 48.2979 22.8445V16.096C48.2979 13.0075 50.7981 10.5044 53.8819 10.5044Z" fill="#91828F"/>
<path opacity="0.4" d="M53.8819 10.5044H64.096C67.1803 10.5044 69.6806 13.0075 69.6806 16.096V22.8445C69.6806 25.933 67.1803 28.4361 64.0966 28.4361H63.1689L63.707 32.53L59.4124 28.4361H53.8819C50.7981 28.4361 48.2979 25.9324 48.2979 22.8445V16.096C48.2979 13.0075 50.7981 10.5044 53.8819 10.5044Z" fill="black"/>
<path d="M55.5041 19.4302C55.5041 20.2602 54.8324 20.9328 54.0036 20.9328C53.1749 20.9328 52.5032 20.2602 52.5032 19.4302C52.5032 18.6003 53.1749 17.9277 54.0036 17.9277C54.8324 17.9277 55.5041 18.6003 55.5041 19.4302Z" fill="white"/>
<path d="M60.4895 19.4302C60.4895 20.2602 59.8178 20.9328 58.989 20.9328C58.1602 20.9328 57.4885 20.2602 57.4885 19.4302C57.4885 18.6003 58.1602 17.9277 58.989 17.9277C59.8178 17.9277 60.4895 18.6003 60.4895 19.4302Z" fill="white"/>
<path d="M65.4753 19.4302C65.4753 20.2602 64.8036 20.9328 63.9748 20.9328C63.146 20.9328 62.4744 20.2602 62.4744 19.4302C62.4744 18.6003 63.146 17.9277 63.9748 17.9277C64.8036 17.9277 65.4753 18.6003 65.4753 19.4302Z" fill="white"/>
<path d="M37.5336 26.3851C37.5336 27.215 36.862 27.8876 36.0332 27.8876C35.2044 27.8876 34.5327 27.215 34.5327 26.3851C34.5327 25.5552 35.2044 24.8826 36.0332 24.8826C36.862 24.8826 37.5336 25.5552 37.5336 26.3851Z" fill="white"/>
<path d="M42.5192 26.3851C42.5192 27.215 41.8476 27.8876 41.0188 27.8876C40.19 27.8876 39.5183 27.215 39.5183 26.3851C39.5183 25.5552 40.19 24.8826 41.0188 24.8826C41.8476 24.8826 42.5192 25.5552 42.5192 26.3851Z" fill="white"/>
<path d="M47.5048 26.3851C47.5048 27.215 46.8332 27.8876 46.0044 27.8876C45.1756 27.8876 44.5039 27.215 44.5039 26.3851C44.5039 25.5552 45.1756 24.8826 46.0044 24.8826C46.8332 24.8826 47.5048 25.5552 47.5048 26.3851Z" fill="white"/>
<path d="M20.446 84.2382C21.0826 85.8626 21.7657 87.5465 22.4794 89.1399C22.8497 89.931 23.2285 90.7076 23.6221 91.4377C23.8244 91.7882 24.031 92.1351 24.2344 92.4332C24.3369 92.6072 24.433 92.6955 24.5281 92.8314L24.5984 92.9246L24.6512 92.9727C24.685 93.0059 24.7167 93.0423 24.7468 93.0824C24.7606 93.0921 24.6707 93.045 24.648 93.0471C24.6227 93.0321 24.5778 93.0439 24.5878 93.0407C24.5878 93.0407 24.5815 93.0482 24.5862 93.0519C24.5978 93.0514 24.61 93.0519 24.6216 93.0551C24.6369 93.0675 24.695 93.0578 24.7389 93.06C24.9444 93.053 25.2751 92.9652 25.6095 92.8346C26.2894 92.5697 27.0364 92.1645 27.7591 91.7149C28.4935 91.2733 29.2215 90.7772 29.9368 90.2553C30.6595 89.7474 31.3811 89.195 32.0779 88.6667L32.107 88.6448C32.5449 88.3129 33.1662 88.4034 33.4938 88.8471C33.7706 89.2223 33.7489 89.7297 33.4716 90.0782C32.2787 91.5774 30.9844 92.9138 29.5041 94.1808C28.7497 94.7979 27.9673 95.4022 26.9963 95.9074C26.506 96.1568 25.9783 96.3972 25.2867 96.5385C25.1055 96.5684 24.9402 96.6065 24.7273 96.6107L24.4224 96.6198C24.3141 96.6166 24.1958 96.6027 24.0828 96.5904C23.8635 96.5743 23.6057 96.5005 23.3632 96.4196C23.1324 96.3378 22.8402 96.175 22.669 96.0568C22.0541 95.6066 21.6442 95.1538 21.2965 94.7267C20.9431 94.2969 20.6621 93.8682 20.3773 93.4416C19.8369 92.5938 19.372 91.7395 18.9425 90.8794C18.0845 89.1559 17.3486 87.4485 16.7088 85.6282C16.3401 84.5791 16.8811 83.4262 17.916 83.0532C18.9277 82.6887 20.0371 83.203 20.4312 84.205L20.4444 84.2392L20.446 84.2382Z" fill="#D9877C"/>
<path d="M18.7293 82.3757C22.3491 83.6699 22.3491 88.3238 24.9494 93.0227L22.7823 96.7897C22.7823 96.7897 18.5222 93.7538 17.1851 88.3458C15.848 82.9377 18.7293 82.3757 18.7293 82.3757Z" fill="#BC3AAA"/>
<path opacity="0.7" d="M24.9467 93.0243L22.7849 96.7908C22.7849 96.7908 22.253 96.4124 21.5007 95.6786C20.7648 94.956 19.8144 93.8957 18.9659 92.5196C18.2416 91.3501 17.585 89.951 17.1835 88.3458C15.8479 82.9399 18.7282 82.3779 18.7282 82.3779C22.3496 83.6679 22.3496 88.3228 24.9472 93.0238L24.9467 93.0243Z" fill="white"/>
<path d="M24.9492 92.5002L25.6761 92.8428L24.3469 97.5267H22.0837C22.0837 97.5267 22.9987 93.5729 24.9492 92.5002Z" fill="#BC3AAA"/>
<path opacity="0.6" d="M24.9492 92.5002L25.6761 92.8428L24.3469 97.5267H22.0837C22.0837 97.5267 22.9987 93.5729 24.9492 92.5002Z" fill="white"/>
<path opacity="0.1" d="M21.5006 95.6786C20.7647 94.9561 19.8143 93.8958 18.9658 92.5197C18.8977 91.1264 18.9431 89.7562 19.147 88.6499C19.147 88.6499 21.3363 91.8715 21.5006 95.6786Z" fill="black"/>
<path d="M16.6795 72.845C16.4645 73.0516 16.1761 73.2865 15.8195 73.5274C15.101 74.0091 14.1221 74.5251 12.9847 74.9436C12.7696 75.0239 12.5546 75.0983 12.3285 75.1674C12.142 75.2305 11.9492 75.2878 11.7516 75.3392C11.7516 75.3392 11.7516 75.3333 11.7458 75.3392C10.9138 75.5683 10.0315 75.7288 9.12601 75.7749C8.83175 75.792 8.5375 75.7979 8.24324 75.792C8.14128 75.792 8.03931 75.7861 7.93735 75.7808C7.88083 75.7749 7.81849 75.7749 7.76196 75.7695C4.12361 75.4312 3.51819 70.5584 4.03856 68.9361C4.03856 68.9361 2.86152 68.5005 2.61269 69.8765C2.36915 71.2468 3.99312 72.4104 3.10506 73.5226C2.22229 74.6348 1.53181 75.1337 2.58998 76.1827C3.64815 77.2259 2.17157 78.7053 1.28879 78.4875C1.28879 78.4875 1.75845 78.4243 1.62268 77.6792C1.54343 77.2323 0.971819 77.2323 0.383301 76.9053V67.1195C0.762615 66.3343 -0.0409194 65.8928 0.796424 64.4252C1.37385 63.4045 3.16159 63.5249 4.03856 63.9606C5.56638 64.7233 5.4137 66.116 5.4137 66.116C5.50985 65.0899 9.17092 63.5763 10.8852 64.0751C12.5995 64.5739 11.6719 65.365 12.8769 65.342C14.0766 65.319 15.5083 65.6573 15.8248 66.7352C16.1417 67.8132 14.5685 69.1947 15.5987 69.6994C16.6341 70.2041 17.9126 71.6487 16.6795 72.8466V72.845Z" fill="#263238"/>
<path opacity="0.7" d="M15.8249 88.3463C11.8727 84.5873 6.90991 82.0498 6.90991 82.0498C7.20259 82.0155 7.50424 81.9856 7.8059 81.9593C10.077 81.7704 11.9366 81.6323 13.9616 81.7484C14.4708 81.7784 14.9933 81.8218 15.5068 81.8646V81.8689C16.7805 84.8239 15.8249 88.3463 15.8249 88.3463Z" fill="white"/>
<path d="M16.3371 101.638H14.439L14.4294 101.393L15.8838 101.278C16.0207 101.267 16.1527 101.336 16.223 101.451L16.3371 101.639V101.638Z" fill="white"/>
<path d="M20.6515 91.689C20.6515 92.0615 20.6515 92.4689 20.6404 92.9158C20.6404 93.1679 20.6293 93.466 20.6235 93.8043C20.6177 94.0853 20.6066 94.3946 20.595 94.7217C20.5274 96.8428 20.3911 99.6576 20.3404 100.69C20.3293 100.948 20.3234 101.091 20.3234 101.091C20.2949 101.252 20.2442 101.395 20.1761 101.515H6.8953C6.88421 101.344 6.86677 101.166 6.84406 100.976C6.80444 100.65 6.76481 100.3 6.7141 99.9274C6.69719 99.8011 6.68029 99.6753 6.65757 99.549C6.5498 98.7809 6.40822 97.932 6.23335 97.0205V97.0146C6.05796 96.0742 5.84876 95.0712 5.61102 94.0104C5.54868 93.7411 5.48635 93.466 5.41873 93.185C5.3622 92.9388 5.29986 92.6862 5.23752 92.4341C5.18099 92.1873 5.11284 91.9293 5.05051 91.6772C4.91474 91.1324 4.76787 90.5768 4.61466 90.0148C4.4847 89.539 4.34893 89.0573 4.20735 88.5702V88.559C4.12811 88.301 4.05467 88.0489 3.97543 87.7909C3.84547 87.3322 3.70389 86.8735 3.55649 86.4094C3.51687 86.2778 3.47725 86.1456 3.44925 86.0198C3.40382 85.8651 3.37001 85.7104 3.34201 85.567C3.3362 85.5327 3.3251 85.4926 3.3251 85.4578C3.29658 85.309 3.27438 85.1656 3.25748 85.028C3.20676 84.6153 3.20676 84.2599 3.21786 83.9618C3.22895 83.8012 3.24057 83.6578 3.25748 83.5374C3.26857 83.463 3.2802 83.3998 3.28548 83.3425C3.28548 83.3366 3.28548 83.3313 3.29129 83.3254C3.3082 83.228 3.3251 83.1589 3.3362 83.1134C3.3362 83.0963 3.34201 83.0851 3.34729 83.0733C3.34729 83.0621 3.3531 83.0503 3.3531 83.0444L3.35891 83.0385C3.52321 82.9871 6.64648 82.081 6.90693 82.0526C6.98617 82.0414 7.07123 82.0355 7.15575 82.0242C7.37077 82.0012 7.58578 81.9782 7.80661 81.9611C7.92547 81.9498 8.04434 81.944 8.15739 81.9327C8.87587 81.8754 9.55526 81.8182 10.2114 81.7834C10.3192 81.7775 10.4264 81.7663 10.5337 81.7663C10.8052 81.7491 11.0715 81.7374 11.3372 81.7261C11.7107 81.7149 12.0784 81.709 12.4519 81.709H12.5084C12.735 81.709 12.9612 81.7149 13.1931 81.7202C13.3516 81.7261 13.5101 81.7315 13.6738 81.7373C13.77 81.7373 13.8661 81.7432 13.9623 81.7486C14.4715 81.7775 14.9919 81.823 15.507 81.8631C15.5355 81.869 15.6486 81.8861 15.8124 81.9092C16.5932 82.0355 18.5965 82.3679 18.7264 82.3791L18.7322 82.385C18.7549 82.431 18.8849 82.6489 19.0719 82.9984V83.0043C19.5358 83.8986 20.3113 85.6355 20.4243 87.321C20.4978 88.4792 20.6563 89.3961 20.651 91.6896L20.6515 91.689Z" fill="#BC3AAA"/>
<path opacity="0.7" d="M20.6515 91.689C20.6515 92.0615 20.6515 92.4689 20.6404 92.9158C20.6404 93.1679 20.6293 93.466 20.6235 93.8043C20.6177 94.0853 20.6066 94.3946 20.595 94.7217C20.5274 96.8428 20.3911 99.6576 20.3404 100.69C20.3293 100.948 20.3234 101.091 20.3234 101.091C20.2949 101.252 20.2442 101.395 20.1761 101.515H6.8953C6.88421 101.344 6.86677 101.166 6.84406 100.976C6.81025 100.65 6.76481 100.3 6.7141 99.9274C6.69719 99.8011 6.68029 99.6753 6.65757 99.549C6.5498 98.7809 6.40822 97.932 6.23335 97.0205V97.0146C6.05796 96.0742 5.84876 95.0712 5.61102 94.0104C5.54868 93.7411 5.48635 93.466 5.41873 93.185C5.3622 92.9388 5.29986 92.6862 5.23752 92.4341C5.18099 92.1873 5.11284 91.9293 5.05051 91.6772C4.91474 91.1324 4.76787 90.5768 4.61466 90.0148C4.4847 89.539 4.34893 89.0573 4.20735 88.5702V88.559C4.12811 88.301 4.05467 88.0489 3.97543 87.7909C3.84547 87.3322 3.70389 86.8735 3.55649 86.4094C3.51687 86.2778 3.47725 86.1456 3.44925 86.0198C3.40382 85.8651 3.37001 85.7104 3.34201 85.567C3.3362 85.5327 3.3251 85.4926 3.3251 85.4578C3.29658 85.309 3.27438 85.1656 3.25748 85.028C3.20676 84.6153 3.20676 84.2599 3.21786 83.9618C3.22895 83.8012 3.24057 83.6578 3.25748 83.5374C3.26857 83.463 3.2802 83.3998 3.28548 83.3425C3.28548 83.3366 3.28548 83.3313 3.29129 83.3254C3.30239 83.2339 3.31929 83.1648 3.3362 83.1134C3.3362 83.0963 3.34201 83.0851 3.34729 83.0733C3.34729 83.0621 3.3531 83.0503 3.3531 83.0444L3.35891 83.0385C3.52321 82.9871 6.64648 82.081 6.90693 82.0526C6.98617 82.0414 7.07123 82.0355 7.15575 82.0242C7.37077 82.0012 7.58578 81.9782 7.80661 81.9611C7.92547 81.9498 8.04434 81.944 8.15739 81.9327C8.87587 81.8754 9.55526 81.8182 10.2114 81.7834C10.3192 81.7775 10.4264 81.7663 10.5337 81.7663C10.8052 81.7491 11.0715 81.7374 11.3372 81.7261C11.7107 81.7149 12.0784 81.709 12.4519 81.709H12.5084C12.735 81.709 12.9612 81.7149 13.1931 81.7202C13.3516 81.7261 13.5101 81.7315 13.6738 81.7373C13.77 81.7373 13.8661 81.7432 13.9623 81.7486C14.4715 81.7775 14.9919 81.823 15.507 81.8631C15.5355 81.869 15.6486 81.8861 15.8124 81.9092C16.5932 82.0355 18.5965 82.3679 18.7264 82.3791L18.7322 82.385C18.7549 82.431 18.8849 82.6489 19.0719 82.9984V83.0043C19.5358 83.8986 20.3113 85.6355 20.4243 87.321C20.4978 88.4792 20.6563 89.3961 20.651 91.6896L20.6515 91.689Z" fill="white"/>
<path opacity="0.2" d="M14.4312 87.7995C14.4312 87.9167 14.3376 88.012 14.2217 88.012C14.1058 88.012 14.0122 87.9167 14.0122 87.7995C14.0122 87.6824 14.1058 87.5876 14.2217 87.5876C14.3376 87.5876 14.4312 87.6824 14.4312 87.7995Z" fill="black"/>
<path opacity="0.2" d="M14.9866 92.5004C15.1023 92.5004 15.1961 92.4056 15.1961 92.2886C15.1961 92.1715 15.1023 92.0767 14.9866 92.0767C14.8709 92.0767 14.7771 92.1715 14.7771 92.2886C14.7771 92.4056 14.8709 92.5004 14.9866 92.5004Z" fill="black"/>
<path opacity="0.2" d="M15.1958 96.7824C15.3115 96.7824 15.4053 96.6876 15.4053 96.5705C15.4053 96.4535 15.3115 96.3586 15.1958 96.3586C15.0801 96.3586 14.9863 96.4535 14.9863 96.5705C14.9863 96.6876 15.0801 96.7824 15.1958 96.7824Z" fill="black"/>
<path opacity="0.2" d="M15.405 100.904C15.5207 100.904 15.6145 100.809 15.6145 100.692C15.6145 100.575 15.5207 100.48 15.405 100.48C15.2893 100.48 15.1956 100.575 15.1956 100.692C15.1956 100.809 15.2893 100.904 15.405 100.904Z" fill="black"/>
<path d="M10.9432 80.4688C16.419 80.4533 18.1893 84.6683 18.1893 84.6683L15.6144 84.1368C15.6144 84.1368 14.8441 86.4982 14.0084 87.1443C14.0084 87.1443 10.7134 86.3623 9.07411 84.5682L6.69785 85.2324C6.69785 85.2324 5.44263 80.4843 10.9432 80.4688Z" fill="#BC3AAA"/>
<path opacity="0.6" d="M10.9432 80.4688C16.419 80.4533 18.1893 84.6683 18.1893 84.6683L15.6144 84.1368C15.6144 84.1368 14.8441 86.4982 14.0084 87.1443C14.0084 87.1443 10.7134 86.3623 9.07411 84.5682L6.69785 85.2324C6.69785 85.2324 5.44263 80.4843 10.9432 80.4688Z" fill="white"/>
<path d="M14.7554 82.6283C15.4047 85.0261 14.0084 87.1446 14.0084 87.1446C9.8613 85.8199 8.14593 81.949 8.14593 81.949C9.38531 80.5644 8.60449 76.9125 8.00171 74.9214L9.6616 76.1819L12.1324 78.0525C12.0733 78.4695 12.1282 79.0416 12.2513 79.5924C12.4378 80.3878 12.7732 81.1366 13.1425 81.2955L14.7559 82.6288L14.7554 82.6283Z" fill="#D9877C"/>
<path opacity="0.2" d="M12.2511 79.5907C11.2664 79.367 9.97574 78.3349 9.76759 77.3161C9.68253 76.8864 9.6445 76.4647 9.6614 76.1812L12.1322 78.0513C12.0731 78.4681 12.128 79.0401 12.2511 79.5907Z" fill="black"/>
<path d="M6.17482 70.9531C6.88484 74.1726 7.11782 75.5466 8.99537 77.0377C11.8191 79.2804 15.5488 77.9134 15.7982 74.5976C16.0227 71.6131 14.8235 66.85 11.4921 65.8941C8.2098 64.9526 5.46479 67.7342 6.17482 70.9531Z" fill="#D9877C"/>
<path d="M10.2776 71.3521C10.3258 71.625 10.5051 71.8304 10.6781 71.8117C10.8511 71.793 10.9526 71.5565 10.904 71.2836C10.8558 71.0107 10.6765 70.8052 10.5035 70.8239C10.3305 70.8427 10.2295 71.0792 10.2776 71.3521Z" fill="#263238"/>
<path d="M13.6318 70.8782C13.68 71.1511 13.8593 71.3565 14.0323 71.3378C14.2053 71.3191 14.3069 71.0826 14.2587 70.8097C14.2106 70.5368 14.0312 70.3313 13.8582 70.3501C13.6853 70.3688 13.5837 70.6053 13.6318 70.8782Z" fill="#263238"/>
<path d="M13.7842 70.3737L14.3867 70.1152C14.3867 70.1152 14.1508 70.6626 13.7842 70.3737Z" fill="#263238"/>
<path d="M12.71 71.5906C12.71 71.5906 13.3656 72.7153 13.9594 73.2279C13.6693 73.6019 13.0491 73.5137 13.0491 73.5137L12.71 71.5906Z" fill="#DE5753"/>
<path d="M9.47919 69.6963C9.52093 69.6958 9.56055 69.6781 9.58855 69.6444C10.0244 69.1152 10.6034 69.2051 10.6097 69.2062C10.6953 69.2196 10.773 69.1613 10.7809 69.0735C10.7888 68.9857 10.7249 68.9028 10.6377 68.8884C10.6076 68.8836 9.88122 68.7696 9.34025 69.4272C9.28637 69.4925 9.29799 69.5947 9.36667 69.6546C9.39942 69.6835 9.4401 69.6974 9.47867 69.6969L9.47919 69.6963Z" fill="#263238"/>
<path d="M14.6945 68.9314C14.7336 68.9357 14.7737 68.9255 14.8049 68.8993C14.8699 68.8452 14.8757 68.7441 14.8181 68.6735C14.2386 67.9656 13.5164 68.0126 13.4858 68.0148C13.3996 68.0212 13.3399 68.0988 13.3531 68.1871C13.3658 68.2754 13.4461 68.3423 13.5322 68.3358C13.5602 68.3337 14.1213 68.3059 14.582 68.8688C14.6115 68.9052 14.6527 68.9266 14.694 68.9308L14.6945 68.9314Z" fill="#263238"/>
<path d="M10.4297 70.8473L11.0322 70.5889C11.0322 70.5889 10.7963 71.1363 10.4297 70.8473Z" fill="#263238"/>
<path d="M7.80572 72.8182C7.80572 72.8182 9.36788 70.5123 8.17658 67.0997C8.17658 67.0997 11.7098 65.3644 14.3856 68.0139C14.3856 68.0139 11.8968 63.5896 6.69842 65.7086C1.49949 67.8276 5.4189 72.8845 6.06236 73.3052C6.70582 73.7259 7.80572 72.8187 7.80572 72.8187V72.8182Z" fill="#263238"/>
<path d="M5.54123 73.7355C6.00612 74.3535 6.67705 74.6922 7.26134 74.7623C8.13989 74.8672 8.39242 73.9682 7.99197 73.1426C7.63115 72.3994 6.73939 71.4491 5.93269 71.7273C5.13814 72.0013 5.00923 73.0286 5.54123 73.7355Z" fill="#D9877C"/>
<path d="M13.2334 74.2625C13.0237 74.705 12.8098 75.537 12.8098 75.537C12.7316 75.5312 12.6539 75.5247 12.5762 75.5146C11.5218 75.4059 11.0674 75.0025 10.8847 74.5883C10.7853 74.3615 10.7695 74.1287 10.7811 73.9414C10.7922 73.7247 10.8487 73.5728 10.8487 73.5728C11.3739 73.9687 12.3496 74.1469 12.8742 74.2197C13.0934 74.2523 13.2334 74.2625 13.2334 74.2625Z" fill="#263238"/>
<path d="M12.8741 74.2195L12.7394 74.592C11.7462 74.4871 11.061 74.2784 10.7805 73.9413C10.7916 73.7246 10.8481 73.5726 10.8481 73.5726C11.3733 73.9686 12.3495 74.1468 12.8741 74.2195Z" fill="white"/>
<path d="M12.5768 75.5146C11.5224 75.406 11.068 75.0025 10.8853 74.5884C11.2434 74.6397 11.6692 74.7414 12.0327 74.9442C12.3111 75.0983 12.4749 75.3086 12.5768 75.5146Z" fill="#DE5753"/>
<path d="M11.7366 92.6689L14.5725 91.3142L14.5535 94.8377C14.5535 94.8377 11.9511 95.8916 11.4714 94.5101L11.7366 92.6689Z" fill="#D9877C"/>
<path d="M17.6608 91.6487L16.6291 94.6723L14.554 94.8371L14.573 91.3142L17.6608 91.6487Z" fill="#D9877C"/>
<path d="M33.1923 90.3832L36.2474 89.6691L34.0809 86.9132C34.0809 86.9132 31.3929 87.7171 31.8599 89.1023L33.1923 90.3832Z" fill="#D9877C"/>
<path d="M38.3304 87.516L35.8115 85.7422L34.0803 86.9138L36.2474 89.6692L38.3304 87.516Z" fill="#D9877C"/>
<path opacity="0.1" d="M5.05115 91.6771C4.73418 90.4214 4.3781 89.1202 3.97607 87.7902C4.33267 87.2512 4.75108 86.7925 5.22073 86.5002C5.22073 86.5002 6.04698 89.7625 5.05115 91.6771Z" fill="black"/>
<path d="M12.8487 93.3627C12.7299 92.8982 12.3167 92.5947 11.8698 92.6059H11.864C11.7906 92.6059 11.7166 92.6172 11.6432 92.6402L11.6094 92.6461C10.7551 92.8698 9.87233 93.116 8.99483 93.3108C8.12315 93.5287 7.252 93.7235 6.38613 93.8782C6.12568 93.9242 5.86576 93.9697 5.61112 94.0098C5.0057 94.1073 4.41137 94.1875 3.83976 94.2218C3.7267 94.233 3.61365 94.2389 3.50006 94.2389C3.21162 94.262 2.93426 94.2619 2.67382 94.2448H2.61729C2.36265 94.2277 2.12492 94.1875 1.95534 94.1356C1.96115 94.0671 1.96696 93.9751 1.98387 93.8776C1.98968 93.8605 1.98968 93.8487 1.99496 93.8316C2.09692 93.2241 2.39118 92.433 2.70234 91.6591C3.0246 90.8851 3.40973 90.0999 3.81704 89.3201C3.94172 89.068 4.07168 88.8213 4.20745 88.5692V88.5579C4.4848 88.0307 4.77906 87.503 5.05642 87.0041L5.09023 86.9469C5.15256 86.8323 5.20328 86.7178 5.2429 86.5973V86.5915C5.51444 85.726 5.19166 84.7513 4.39394 84.2525C4.02624 84.0234 3.6184 83.9313 3.2169 83.9602C2.59985 83.9945 2.00605 84.3328 1.65527 84.906C1.19143 85.6687 0.766677 86.425 0.38208 87.199V96.8359C0.38208 97.0195 0.393175 97.1913 0.410608 97.369V97.3749C0.45023 97.392 0.489855 97.4038 0.529477 97.415C0.631438 97.4552 0.727587 97.4841 0.823736 97.5066C0.988035 97.5467 1.14071 97.581 1.29339 97.604C1.80266 97.6955 2.26122 97.6901 2.69125 97.6784C3.24596 97.6554 3.76051 97.5868 4.26398 97.4948C4.94865 97.3631 5.5995 97.2025 6.23345 97.019V97.0131C6.52771 96.9328 6.82197 96.8413 7.11041 96.738C8.69476 96.2049 10.1941 95.5856 11.6712 94.8459C11.8973 94.7313 12.1181 94.6168 12.3447 94.4964C12.7462 94.2898 12.9613 93.8198 12.8482 93.3611L12.8487 93.3627ZM1.73557 94.0393C1.74666 94.0452 1.76938 94.0623 1.7979 94.0853C1.75828 94.0682 1.73557 94.057 1.72447 94.0452C1.71338 94.0339 1.72395 94.0339 1.73557 94.0393Z" fill="#D9877C"/>
<path d="M5.4248 87.5895C5.28321 88.2891 5.02276 89.0914 4.61545 90.0147C4.61545 90.0147 3.18959 92.6288 2.8388 93.7126C2.79918 93.8389 2.77065 93.9417 2.76537 94.022L2.6185 94.2457L0.530694 97.4159L0.434545 97.5653C0.428734 97.5021 0.423447 97.4389 0.411825 97.3758V97.3699C0.39492 97.1922 0.383301 97.0204 0.383301 96.8368V86.6898C1.83188 83.9263 3.24664 83.101 3.35389 83.0437L3.3597 83.0378C3.3597 83.0378 6.26267 83.565 5.42532 87.59L5.4248 87.5895Z" fill="#BC3AAA"/>
<path opacity="0.7" d="M5.4248 87.5895C5.28321 88.2891 5.02276 89.0914 4.61545 90.0147C4.61545 90.0147 3.18959 92.6288 2.8388 93.7126C2.79918 93.8389 2.77065 93.9417 2.76537 94.022L2.6185 94.2457L0.530694 97.4159L0.434545 97.5653C0.428734 97.5021 0.423447 97.4389 0.411825 97.3758V97.3699C0.39492 97.1922 0.383301 97.0204 0.383301 96.8368V86.6898C1.83188 83.9263 3.24664 83.101 3.35389 83.0437L3.3597 83.0378C3.3597 83.0378 6.26267 83.565 5.42532 87.59L5.4248 87.5895Z" fill="white"/>
<path d="M3.59743 94.3205C2.61851 95.1057 1.74735 96.6825 1.2946 97.6053C1.0854 98.0297 0.966534 98.3161 0.966534 98.3161L0.609935 98.2818C0.530691 98.0528 0.474167 97.8119 0.434545 97.5652C0.428734 97.502 0.423447 97.4388 0.411825 97.3757V97.3698C0.39492 97.1921 0.383301 97.0203 0.383301 96.8367V95.0597C0.858764 94.6353 1.3337 94.297 1.72463 94.0449C1.73044 94.0449 1.73045 94.039 1.73626 94.039C1.82131 93.9817 1.90584 93.9298 1.98508 93.8784C2.36387 93.6494 2.61322 93.5289 2.61322 93.5289L2.83933 93.7125L3.50128 94.2397L3.59743 94.32V94.3205Z" fill="#BC3AAA"/>
<path opacity="0.6" d="M3.59743 94.3205C2.61851 95.1057 1.74735 96.6825 1.2946 97.6053C1.0854 98.0297 0.966534 98.3161 0.966534 98.3161L0.609935 98.2818C0.530691 98.0528 0.474167 97.8119 0.434545 97.5652C0.428734 97.502 0.423447 97.4388 0.411825 97.3757V97.3698C0.39492 97.1921 0.383301 97.0203 0.383301 96.8367V95.0597C0.858764 94.6353 1.3337 94.297 1.72463 94.0449C1.73044 94.0449 1.73045 94.039 1.73626 94.039C1.82131 93.9817 1.90584 93.9298 1.98508 93.8784C2.36387 93.6494 2.61322 93.5289 2.61322 93.5289L2.83933 93.7125L3.50128 94.2397L3.59743 94.32V94.3205Z" fill="white"/>
<path d="M86.7446 65.8184C86.4011 66.9171 85.999 67.938 85.5867 68.9897C85.1563 70.029 84.6861 71.0603 84.1773 72.0922C83.6651 73.1275 83.0938 74.1456 82.3823 75.1819C82.0228 75.702 81.6236 76.2187 81.0904 76.7606C80.9654 76.8931 80.7962 77.0375 80.6486 77.172L80.3788 77.3851L80.2408 77.4899C80.1704 77.5403 80.0586 77.6125 79.9649 77.6679C79.5662 77.9077 78.9631 78.1089 78.3606 78.1099C77.7507 78.1163 77.2817 77.9606 76.933 77.8083C76.2357 77.4844 75.916 77.1571 75.6127 76.8615C75.3231 76.5633 75.1033 76.2815 74.9035 76.0051C74.5082 75.4533 74.2055 74.9238 73.9227 74.3953C73.3782 73.3352 72.9301 72.293 72.5354 71.2403C71.7382 69.1385 71.1305 67.0362 70.6399 64.879L72.9125 64.2996C73.8427 66.2506 74.8126 68.2174 75.82 70.1081C76.3345 71.049 76.8541 71.982 77.4282 72.8339C77.7082 73.2591 78.0023 73.6699 78.297 74.0076C78.443 74.1752 78.5906 74.325 78.7127 74.4259C78.8229 74.5243 78.9558 74.5772 78.8127 74.4931C78.7388 74.4571 78.5713 74.3908 78.2715 74.3864C77.9779 74.3814 77.6741 74.4843 77.5281 74.5732C77.4963 74.5881 77.4481 74.6232 77.4373 74.6311L77.4679 74.598L77.5338 74.5347C77.5883 74.4669 77.6406 74.4229 77.7019 74.3424C77.9455 74.0506 78.2028 73.6551 78.4521 73.2437C78.954 72.4121 79.3907 71.4678 79.8297 70.5249C80.2596 69.5736 80.6554 68.5956 81.0341 67.6083C81.4311 66.6332 81.7945 65.6147 82.1517 64.6565L86.7429 65.8184H86.7446Z" fill="#E7B278"/>
<path d="M88.2208 63.9366C90.6597 67.6394 83.8788 74.9465 83.8788 74.9465L78.7283 71.9884C78.7283 71.9884 79.8776 67.8505 81.5029 64.7376C83.2059 61.4764 86.5995 61.4749 88.2208 63.9366Z" fill="#263238"/>
<path opacity="0.7" d="M87.626 69.6403C87.2058 70.466 86.7118 71.257 86.2234 71.969C85.5987 72.8738 84.9854 73.6451 84.5425 74.1791C84.1393 74.6636 83.8781 74.9455 83.8781 74.9455L81.3681 73.5067L78.7275 71.9888C78.7275 71.9888 79.8803 67.8504 81.5044 64.7356C83.208 61.4773 86.5982 61.4723 88.2223 63.9346C89.2388 65.4772 88.6482 67.6428 87.626 69.6403Z" fill="white"/>
<path d="M72.4705 66.6785L67.9531 66.3427L68.9168 62.995C68.9168 62.995 72.1122 62.8432 73.2025 64.9366L72.4705 66.6785Z" fill="#EBB376"/>
<path d="M65.2432 64.8174L66.6475 62.4718L68.9167 62.9949L67.9536 66.3427L65.2432 64.8174Z" fill="#EBB376"/>
<path opacity="0.1" d="M84.5428 74.1792C84.1396 74.6637 83.8784 74.9455 83.8784 74.9455L81.3684 73.5068C81.7716 70.5254 83.4582 68.5625 83.4582 68.5625C84.6677 70.1249 84.8494 72.3053 84.5428 74.1792Z" fill="black"/>
<path opacity="0.2" d="M87.627 69.641C87.209 70.4667 86.7133 71.2583 86.2238 71.9718C85.8921 70.2339 86.1744 68.4495 86.1744 68.4495C86.8058 68.6972 87.2783 69.1229 87.627 69.641Z" fill="black"/>
<path d="M103.175 61.5664V61.5713C103.072 61.9866 102.976 62.397 102.891 62.8123C102.783 63.3216 102.681 63.8308 102.59 64.3401C102.527 64.6615 102.47 64.9829 102.419 65.3042C102.351 65.7146 102.289 66.1299 102.232 66.5403C102.215 66.6441 102.204 66.748 102.192 66.8468C102.147 67.1583 102.107 67.4649 102.067 67.7764C102.062 67.8011 102.062 67.8258 102.056 67.8505C102.05 67.8851 102.05 67.9198 102.045 67.9544C101.999 68.3202 101.965 68.6861 101.925 69.052C101.914 69.2053 101.897 69.3585 101.886 69.5118C101.823 70.1447 101.772 70.7726 101.732 71.3956C101.727 71.45 101.727 71.5043 101.721 71.5587C101.692 71.9988 101.67 72.4339 101.647 72.864C101.63 73.2744 101.613 73.6749 101.602 74.0754C101.59 74.5154 101.579 74.9456 101.573 75.3708C101.562 75.8207 101.562 76.2607 101.562 76.6909C101.562 77.0963 101.568 77.4968 101.573 77.8874C101.579 78.4214 101.59 78.9356 101.602 79.435C101.607 79.6871 101.613 79.9343 101.624 80.1766C101.636 80.4189 101.641 80.6562 101.653 80.8886C101.664 81.1209 101.67 81.3484 101.681 81.5709C101.698 81.8824 101.71 82.1889 101.727 82.4806V82.4856C100.903 83.1629 99.7845 83.5733 98.5635 83.5733H83.038C82.5099 80.5524 82.2544 77.8627 82.1635 75.4944C82.1465 74.9604 82.1351 74.4462 82.1294 73.9468V73.9419C82.1238 72.7256 82.1635 71.6032 82.2317 70.5798C82.3963 68.1472 82.7484 66.2535 83.0891 64.8939C83.4128 63.5836 83.7308 62.7678 83.8728 62.4366C83.9182 62.3228 83.9466 62.2685 83.9466 62.2685H83.9523L88.393 60.7852C88.393 60.7852 88.4271 60.7802 88.4896 60.7753H88.4952C88.6883 60.7605 89.0972 60.7209 89.3357 60.7061C89.5401 60.6912 89.7616 60.6813 89.9887 60.6715C90.1023 60.6665 90.2216 60.6665 90.3408 60.6616C91.681 60.627 93.3221 60.6517 94.8497 60.711C95.3267 60.7258 95.7923 60.7456 96.2296 60.7654C96.5249 60.7802 96.8088 60.7951 97.0757 60.8099C97.2007 60.8198 97.3256 60.8247 97.4448 60.8346C97.814 60.8593 98.1831 60.889 98.5408 60.9236C99.8469 61.0423 101.074 61.2153 101.931 61.3538C102.033 61.3686 102.13 61.3834 102.221 61.3983C102.232 61.3983 102.243 61.4032 102.255 61.4032C102.26 61.4032 102.266 61.4032 102.272 61.4082C102.647 61.4724 102.919 61.5169 103.061 61.5417C103.067 61.5466 103.072 61.5466 103.078 61.5466H103.089C103.101 61.5515 103.112 61.5565 103.118 61.5565H103.129C103.146 61.5614 103.158 61.5614 103.169 61.5664H103.175Z" fill="#263238"/>
<g opacity="0.7">
<path d="M103.169 61.5614V61.5713C103.066 61.9866 102.976 62.397 102.89 62.8123C102.777 63.3216 102.675 63.8358 102.584 64.345C102.527 64.6664 102.47 64.9878 102.419 65.3042C102.351 65.7196 102.289 66.1299 102.232 66.5403C102.215 66.6392 102.198 66.743 102.186 66.8419C102.141 67.1534 102.101 67.4649 102.067 67.7764C102.061 67.8011 102.061 67.8258 102.056 67.8505C102.05 67.8851 102.05 67.9198 102.044 67.9544C101.999 68.3202 101.965 68.6861 101.925 69.052C101.908 69.2053 101.897 69.3536 101.88 69.5069C101.823 70.1447 101.772 70.7726 101.726 71.3956C101.721 71.45 101.715 71.5093 101.721 71.5587C101.692 71.9988 101.67 72.4339 101.647 72.864C101.63 73.2744 101.613 73.6749 101.601 74.0754C101.584 74.5154 101.579 74.9456 101.573 75.3708C101.562 75.8207 101.562 76.2607 101.562 76.6909C101.562 77.0963 101.562 77.4968 101.567 77.8874C101.573 78.4214 101.584 78.9356 101.601 79.435C101.607 79.6871 101.613 79.9343 101.624 80.1766C101.63 80.4189 101.641 80.6562 101.653 80.8886C101.658 81.1209 101.67 81.3484 101.681 81.5709C101.698 81.8824 101.709 82.1889 101.726 82.4806V82.4856C100.903 83.1629 99.7842 83.5733 98.5633 83.5733H83.0378C82.5154 80.5474 82.2541 77.8528 82.169 75.4845C82.1519 74.9554 82.1406 74.4412 82.1349 73.9468C82.1292 72.7206 82.1633 71.5933 82.2371 70.5649C82.4075 68.1373 82.7539 66.2535 83.0889 64.8939H83.0946C83.4183 63.5836 83.7363 62.7678 83.8726 62.4366C83.8726 62.4366 83.8782 62.4366 83.8782 62.4316C83.9237 62.3228 83.9521 62.2685 83.9521 62.2685L88.3928 60.7852C88.3928 60.7852 88.4269 60.7802 88.4893 60.7753H88.495C88.6881 60.7605 89.0969 60.7209 89.3354 60.7061C89.5399 60.6912 89.7614 60.6813 89.9885 60.6715C90.1021 60.6665 90.2213 60.6665 90.3406 60.6616C91.6807 60.627 93.3219 60.6517 94.8495 60.711C95.3265 60.7258 95.7921 60.7456 96.2294 60.7654C96.5247 60.7802 96.8086 60.7951 97.0755 60.8099C97.2004 60.8198 97.3254 60.8247 97.4446 60.8346C97.8137 60.8593 98.1828 60.889 98.5406 60.9236C99.8467 61.0423 101.073 61.2153 101.931 61.3538C102.033 61.3686 102.13 61.3834 102.22 61.3983C102.232 61.3983 102.243 61.4032 102.254 61.4032C102.26 61.4032 102.266 61.4032 102.271 61.4082C102.612 61.4625 102.868 61.507 103.015 61.5318C103.032 61.5318 103.044 61.5318 103.061 61.5417H103.072C103.078 61.5466 103.084 61.5466 103.089 61.5466C103.095 61.5466 103.101 61.5515 103.112 61.5515C103.118 61.5515 103.123 61.5515 103.129 61.5565C103.157 61.5565 103.169 61.5614 103.169 61.5614Z" fill="white"/>
</g>
<path d="M96.4635 60.6532C96.4635 60.6532 91.8745 62.9167 90.6451 62.7397C89.7836 62.6161 88.7501 61.2173 88.7501 61.2173C89.4293 61.0215 89.9239 60.763 90.2646 60.4594C91.2987 59.5541 91.0227 58.2488 90.5281 57.0221L94.8837 53.1597C94.7814 54.0358 94.7133 55.2041 94.7894 56.37V56.3739C94.8962 58.1183 95.3328 59.8656 96.464 60.6532H96.4635Z" fill="#EBB376"/>
<path opacity="0.2" d="M94.7882 56.37V56.3739C94.079 58.2211 92.7405 60.2834 90.264 60.4594C91.2981 59.5541 91.0221 58.2488 90.5275 57.0221L94.8831 53.1597C94.7809 54.0358 94.7121 55.2041 94.7882 56.37Z" fill="black"/>
<path d="M90.6434 62.7403C90.6434 62.7403 91.5003 63.6634 92.5066 64.5796C94.0166 63.9685 97.5595 62.3206 97.4499 60.6998C97.2625 60.2232 95.8616 59.885 95.8616 59.885C95.8616 59.885 94.2556 61.5804 90.6434 62.7398V62.7403Z" fill="#263238"/>
<path d="M90.6433 62.7401C90.6433 62.7401 89.4525 63.4912 88.6609 64.4667C87.591 63.819 88.2583 60.8287 88.6723 60.5078C89.5547 60.0796 90.5701 60.1335 90.5701 60.1335C90.5701 60.1335 89.7404 61.4784 90.6433 62.7401Z" fill="#263238"/>
<g opacity="0.5">
<path d="M90.6434 62.7403C90.6434 62.7403 91.5003 63.6634 92.5066 64.5796C94.0166 63.9685 97.5595 62.3206 97.4499 60.6998C97.2625 60.2232 95.8616 59.885 95.8616 59.885C95.8616 59.885 94.2556 61.5804 90.6434 62.7398V62.7403Z" fill="white"/>
<path d="M90.6433 62.7401C90.6433 62.7401 89.4525 63.4912 88.6609 64.4667C87.591 63.819 88.2583 60.8287 88.6723 60.5078C89.5547 60.0796 90.5701 60.1335 90.5701 60.1335C90.5701 60.1335 89.7404 61.4784 90.6433 62.7401Z" fill="white"/>
</g>
<path d="M86.3082 48.8384C85.7006 49.9924 85.583 52.4862 87.6262 51.8944C89.6694 51.3026 87.3525 46.8552 86.3082 48.8384Z" fill="#263238"/>
<path d="M96.0158 51.5482C95.783 54.6591 95.8284 56.4915 94.0129 58.0682C91.282 60.44 86.868 58.9616 86.027 55.8438C85.2694 53.0374 85.7782 48.4214 89.2888 47.2239C92.7477 46.0442 96.2492 48.4373 96.0158 51.5482Z" fill="#EBB376"/>
<path d="M90.5815 52.3542C90.5804 52.6078 90.4246 52.8115 90.2341 52.809C90.043 52.8066 89.8895 52.5994 89.8906 52.3458C89.8918 52.0921 90.0476 51.8884 90.2381 51.8909C90.4291 51.8929 90.5827 52.1005 90.5815 52.3542Z" fill="#263238"/>
<path d="M87.2859 52.3151C87.2847 52.5687 87.1289 52.7725 86.9384 52.77C86.7479 52.7675 86.5938 52.5603 86.595 52.3067C86.5961 52.0531 86.7514 51.8494 86.9424 51.8518C87.1335 51.8543 87.287 52.0615 87.2859 52.3151Z" fill="#263238"/>
<path d="M88.3323 52.4539C88.3323 52.4539 87.6469 53.8541 86.907 54.5285C87.4141 54.9304 88.292 54.749 88.292 54.749L88.3323 52.4539Z" fill="#D58745"/>
<path d="M91.6007 51.441C91.5416 51.4474 91.4797 51.4261 91.4411 51.3811C90.9828 50.8462 90.3525 50.8709 90.3462 50.8709C90.252 50.8758 90.1702 50.813 90.164 50.731C90.1577 50.6489 90.2293 50.5787 90.3235 50.5737C90.357 50.5718 91.1464 50.5411 91.7148 51.2046C91.7716 51.2709 91.7563 51.3643 91.6807 51.4128C91.6563 51.4286 91.6285 51.4375 91.6001 51.4405L91.6007 51.441Z" fill="#263238"/>
<path d="M85.869 51.3126C85.8366 51.3161 85.8031 51.3116 85.7713 51.2978C85.6867 51.2607 85.6515 51.1712 85.6929 51.098C86.1103 50.3609 86.8923 50.2822 86.9269 50.2743C87.0206 50.2654 87.1064 50.3243 87.1177 50.4058C87.1291 50.4874 87.0632 50.5606 86.9701 50.5705C86.9371 50.5725 86.3358 50.6402 86.0007 51.232C85.9746 51.2785 85.9241 51.3067 85.869 51.3126Z" fill="#263238"/>
<path d="M90.4458 48.9743C90.4458 48.9743 91.4435 48.3761 91.8791 49.042C92.3146 49.708 92.2555 51.4741 92.2555 51.4741L92.46 51.1651C92.46 51.1651 93.6542 55.1141 95.514 54.149C97.3737 53.1839 100.153 49.2319 95.8893 47.137C95.8893 47.137 95.4498 46.1808 92.6161 45.6745C89.7825 45.1677 86.3202 46.6456 85.7018 48.2727C85.0834 49.8999 85.8915 50.822 85.8915 50.822C86.0567 50.2316 86.4553 49.8603 86.4553 49.8603C86.511 50.3903 87.1504 50.6227 87.1504 50.6227C87.1476 49.977 87.4003 49.6611 87.4003 49.6611C87.4474 50.0116 87.8603 50.4541 87.8603 50.4541C88.0976 48.7731 89.4191 48.4482 89.8342 48.4675C90.3458 48.4917 90.4458 48.9743 90.4458 48.9743Z" fill="#263238"/>
<path d="M97.3837 54.1464C97.0946 54.9463 96.4058 55.552 95.696 55.8566C94.6272 56.3144 93.8646 55.5248 93.9702 54.5449C94.0651 53.6628 94.7351 52.3615 95.8998 52.3125C97.0469 52.2641 97.7142 53.2317 97.3837 54.1464Z" fill="#EBB376"/>
<path d="M88.3853 55.7934C88.7329 56.0886 89.2161 56.6977 89.2161 56.6977C89.2877 56.6695 89.3587 56.6413 89.4279 56.6097C90.3837 56.2062 90.6738 55.7439 90.7056 55.3543C90.7221 55.1412 90.6585 54.9479 90.5841 54.8001C90.5001 54.628 90.395 54.5222 90.395 54.5222C90.035 54.9993 89.1775 55.4354 88.7079 55.6515C88.5125 55.7434 88.3853 55.7934 88.3853 55.7934Z" fill="#263238"/>
<path d="M88.7087 55.6522L88.9614 55.9133C89.8603 55.5311 90.435 55.1573 90.5844 54.8008C90.5003 54.6288 90.3953 54.5229 90.3953 54.5229C90.0352 55.0001 89.1783 55.4362 88.7087 55.6522Z" fill="white"/>
<path d="M89.4287 56.6103C90.3844 56.2069 90.6746 55.7446 90.7064 55.355C90.3867 55.5033 90.0204 55.7134 89.7473 55.9859C89.5372 56.1935 89.4543 56.4131 89.4287 56.6103Z" fill="#A24E3F"/>
<path opacity="0.1" d="M102.045 67.9541C101.908 69.1259 101.806 70.273 101.727 71.3953C101.721 71.4497 101.715 71.5091 101.721 71.5585C101.692 71.9985 101.67 72.4336 101.647 72.8638C100.102 70.0307 99.4664 66.8516 99.4664 66.8516C100.364 66.9356 101.221 67.2817 102.022 67.791C102.028 67.8454 102.039 67.8998 102.045 67.9541Z" fill="black"/>
<path d="M103.191 63.9546V68.1078C102.862 67.6875 102.527 67.2623 102.192 66.847C102.192 66.8437 102.19 66.842 102.186 66.842C101.789 66.3427 101.391 65.8482 101 65.3588L102.584 64.3452L102.59 64.3402L103.191 63.9546Z" fill="#E7B278"/>
<path d="M103.191 61.5765V70.753C102.783 70.3773 102.34 69.957 101.885 69.512C101.885 69.512 101.88 69.512 101.88 69.5071C101.062 68.7111 100.216 67.826 99.4889 66.9509V66.946C99.4605 66.9163 99.4378 66.8965 99.4151 66.8669C97.0073 63.9596 98.6939 61.3985 101.953 61.3936C102.056 61.3936 102.152 61.3985 102.254 61.4034C102.26 61.4034 102.266 61.4034 102.271 61.4084C102.516 61.4232 102.766 61.4677 103.004 61.532H103.015C103.032 61.532 103.044 61.532 103.061 61.5419H103.072L103.078 61.5468H103.089C103.095 61.5468 103.101 61.5518 103.112 61.5518L103.118 61.5567H103.129C103.135 61.5617 103.14 61.5617 103.152 61.5617C103.157 61.5617 103.163 61.5666 103.169 61.5715H103.174C103.18 61.5715 103.186 61.5715 103.191 61.5765Z" fill="#263238"/>
<path opacity="0.7" d="M103.191 61.5765V70.753C102.783 70.3773 102.34 69.957 101.885 69.512C101.885 69.512 101.88 69.512 101.88 69.5071C101.062 68.7111 100.216 67.826 99.4889 66.9509V66.946C99.4605 66.9163 99.4378 66.8965 99.4151 66.8669C97.0073 63.9596 98.6939 61.3985 101.953 61.3936C102.056 61.3936 102.152 61.3985 102.254 61.4034C102.26 61.4034 102.266 61.4034 102.271 61.4084C102.516 61.4232 102.766 61.4677 103.004 61.532H103.015C103.032 61.532 103.044 61.532 103.061 61.5419H103.072L103.078 61.5468H103.089C103.095 61.5468 103.101 61.5518 103.112 61.5518L103.118 61.5567H103.129C103.135 61.5617 103.14 61.5617 103.152 61.5617C103.157 61.5617 103.163 61.5666 103.169 61.5715H103.174C103.18 61.5715 103.186 61.5715 103.191 61.5765Z" fill="white"/>
</svg>
