<svg width="490" height="366" viewBox="0 0 490 366" fill="none" xmlns="http://www.w3.org/2000/svg">
<path d="M392 68.2814V287.719C392 298.917 382.919 308 371.723 308H107.302C96.0811 308 87 298.917 87 287.719V68.2814C87 57.0831 96.0811 48 107.302 48H371.723C382.919 48 392 57.0831 392 68.2814Z" fill="#D2EDED"/>
<path d="M490.002 320.853H0V321.098H490.002V320.853Z" fill="#EBEBEB"/>
<path d="M440.904 336.621H408.446V336.866H440.904V336.621Z" fill="#EBEBEB"/>
<path d="M324.597 339.287H316.081V339.532H324.597V339.287Z" fill="#EBEBEB"/>
<path d="M407.466 327.527H388.66V327.772H407.466V327.527Z" fill="#EBEBEB"/>
<path d="M93.7372 329.173H51.4109V329.418H93.7372V329.173Z" fill="#EBEBEB"/>
<path d="M108.673 329.173H102.469V329.418H108.673V329.173Z" fill="#EBEBEB"/>
<path d="M220.648 333.309H128.841V333.554H220.648V333.309Z" fill="#EBEBEB"/>
<path d="M232.261 277.145H43.0321C41.5497 277.142 40.1289 276.552 39.0816 275.503C38.0343 274.453 37.446 273.032 37.446 271.549V5.54682C37.4589 4.07292 38.0529 2.66363 39.0988 1.62506C40.1447 0.586491 41.5581 0.00252487 43.0321 0H232.261C233.745 0 235.168 0.589558 236.218 1.63898C237.267 2.6884 237.857 4.11172 237.857 5.59582V271.549C237.857 273.033 237.267 274.457 236.218 275.506C235.168 276.555 233.745 277.145 232.261 277.145ZM43.0321 0.196001C41.6146 0.198598 40.2562 0.763487 39.2548 1.76668C38.2534 2.76987 37.691 4.12939 37.691 5.54682V271.549C37.691 272.967 38.2534 274.326 39.2548 275.329C40.2562 276.333 41.6146 276.897 43.0321 276.9H232.261C233.679 276.897 235.039 276.333 236.042 275.33C237.045 274.327 237.609 272.968 237.612 271.549V5.54682C237.609 4.12849 237.045 2.76899 236.042 1.76608C235.039 0.763168 233.679 0.198592 232.261 0.196001H43.0321Z" fill="#EBEBEB"/>
<path d="M444.245 277.145H255.007C253.523 277.142 252.102 276.552 251.053 275.503C250.004 274.454 249.413 273.033 249.411 271.549V5.54682C249.426 4.07203 250.022 2.66275 251.07 1.62445C252.117 0.586149 253.532 0.00249733 255.007 0H444.245C445.718 0.00510042 447.129 0.590206 448.172 1.6285C449.216 2.66679 449.809 4.07461 449.822 5.54682V271.549C449.822 273.03 449.235 274.45 448.19 275.499C447.144 276.548 445.726 277.14 444.245 277.145ZM255.007 0.196001C253.588 0.198592 252.229 0.763168 251.226 1.76608C250.223 2.76899 249.658 4.12849 249.656 5.54682V271.549C249.658 272.968 250.223 274.327 251.226 275.33C252.229 276.333 253.588 276.897 255.007 276.9H444.245C445.664 276.897 447.023 276.333 448.026 275.33C449.029 274.327 449.594 272.968 449.596 271.549V5.54682C449.594 4.12849 449.029 2.76899 448.026 1.76608C447.023 0.763168 445.664 0.198592 444.245 0.196001H255.007Z" fill="#EBEBEB"/>
<path d="M352.135 132.545C380.507 132.545 403.507 109.546 403.507 81.1737C403.507 52.8018 380.507 29.8019 352.135 29.8019C323.763 29.8019 300.763 52.8018 300.763 81.1737C300.763 109.546 323.763 132.545 352.135 132.545Z" fill="#E0E0E0"/>
<path d="M348.235 132.545C376.606 132.545 399.606 109.546 399.606 81.1737C399.606 52.8018 376.606 29.8019 348.235 29.8019C319.863 29.8019 296.863 52.8018 296.863 81.1737C296.863 109.546 319.863 132.545 348.235 132.545Z" fill="#F5F5F5"/>
<path d="M381.813 114.755C400.355 96.2125 400.355 66.1491 381.813 47.6065C363.27 29.064 333.207 29.064 314.664 47.6065C296.122 66.1491 296.122 96.2125 314.664 114.755C333.207 133.298 363.27 133.298 381.813 114.755Z" fill="white"/>
<path d="M356.329 115.729C356.071 115.729 355.82 115.642 355.617 115.482C355.415 115.322 355.272 115.098 355.212 114.847L347.117 81.4481C347.06 81.1562 347.118 80.8535 347.278 80.6029C347.438 80.3522 347.688 80.173 347.977 80.1023C348.266 80.0317 348.571 80.0751 348.829 80.2235C349.087 80.3719 349.278 80.6139 349.361 80.8993L357.447 114.308C357.517 114.605 357.467 114.919 357.308 115.179C357.148 115.44 356.891 115.627 356.594 115.699C356.507 115.719 356.418 115.729 356.329 115.729Z" fill="#F5F5F5"/>
<path d="M348.234 83.4767C347.932 83.4767 347.633 83.4171 347.354 83.301C347.074 83.185 346.821 83.0149 346.608 82.8005L318.825 55.0174C318.611 54.8031 318.442 54.5488 318.326 54.2691C318.211 53.9894 318.152 53.6897 318.152 53.3871C318.153 52.776 318.397 52.1903 318.829 51.7588C319.262 51.3274 319.849 51.0855 320.46 51.0864C321.071 51.0873 321.656 51.331 322.088 51.7637L348.234 77.92L363.493 62.6614C363.926 62.2299 364.512 61.988 365.123 61.989C365.734 61.9899 366.32 62.2335 366.752 62.6663C367.183 63.099 367.425 63.6855 367.424 64.2966C367.423 64.9076 367.179 65.4933 366.747 65.9248L349.861 82.8005C349.43 83.2326 348.845 83.4758 348.234 83.4767Z" fill="#EBEBEB"/>
<path d="M217.071 313.699H224.813V260.681H217.071V313.699Z" fill="#F0F0F0"/>
<path d="M60.476 320.853H219.707V313.699H60.476V320.853Z" fill="#F0F0F0"/>
<path d="M217.071 260.681H55.3604V313.699H217.071V260.681Z" fill="#F5F5F5"/>
<path d="M206.604 269.913H65.8171V300.195H206.604V269.913Z" fill="#F0F0F0"/>
<path d="M101.969 273.96H170.472C171.754 273.96 172.794 272.92 172.794 271.637V271.206C172.794 269.923 171.754 268.884 170.472 268.884H101.969C100.687 268.884 99.6467 269.923 99.6467 271.206V271.637C99.6467 272.92 100.687 273.96 101.969 273.96Z" fill="#F5F5F5"/>
<path d="M51.8128 260.681H217.071V255.948L51.8128 255.948V260.681Z" fill="#F0F0F0"/>
<path d="M228.527 255.948H217.071V260.681H228.527V255.948Z" fill="#E6E6E6"/>
<path d="M421.098 204.703H406.006V320.853H421.098V204.703Z" fill="#F0F0F0"/>
<path d="M273.911 320.853H406.006V204.703H273.911V320.853Z" fill="#F5F5F5"/>
<path d="M272.706 310.651H388.679V248.529H272.706V310.651Z" fill="#FAFAFA"/>
<path d="M272.706 241.943H388.679V221.491H272.706V241.943Z" fill="#FAFAFA"/>
<g style="mix-blend-mode:multiply" opacity="0.7">
<path d="M389.718 248.529H388.679V310.651H389.718V248.529Z" fill="#E6E6E6"/>
</g>
<g style="mix-blend-mode:multiply" opacity="0.7">
<path d="M389.718 221.491H388.679V241.943H389.718V221.491Z" fill="#E6E6E6"/>
</g>
<g style="mix-blend-mode:multiply" opacity="0.7">
<path d="M421.098 209.603H273.578V212.23H421.098V209.603Z" fill="#E6E6E6"/>
</g>
<path d="M422.862 203.116H406.006V210.711H422.862V203.116Z" fill="#F0F0F0"/>
<path d="M272.147 210.711L406.006 210.711V203.116L272.147 203.116V210.711Z" fill="#F5F5F5"/>
<path d="M322.362 180.752C321.452 179.317 320.851 177.708 320.598 176.028C320.333 174.35 320.247 172.648 320.344 170.952C320.553 167.576 321.274 164.252 322.48 161.093C323.054 159.525 323.708 157.988 324.44 156.487C325.224 155.017 326.008 153.547 326.89 152.146C327.772 150.744 328.742 149.392 329.742 148.079C330.741 146.765 331.868 145.54 333.035 144.354C332.466 145.932 331.79 147.422 331.075 148.912C330.359 150.401 329.801 151.901 329.115 153.351L327.213 157.761L326.341 159.986L325.89 161.093L325.498 162.21C324.379 165.155 323.491 168.182 322.843 171.265C322.506 172.806 322.277 174.368 322.157 175.94C322.01 177.546 322.079 179.164 322.362 180.752Z" fill="#E6E6E6"/>
<path d="M303.34 183.349C303.466 180.983 303.259 178.611 302.723 176.303C302.222 174.198 301.239 172.239 299.852 170.579C298.373 168.935 296.622 167.556 294.677 166.503C292.668 165.336 290.453 164.425 288.17 163.347C290.707 163.076 293.273 163.35 295.696 164.151C296.948 164.56 298.146 165.12 299.264 165.817C300.406 166.552 301.439 167.447 302.331 168.472C304.111 170.571 305.145 173.201 305.271 175.95C305.406 178.556 304.732 181.141 303.34 183.349Z" fill="#E6E6E6"/>
<path d="M304.193 183.006C304.11 180.248 303.851 177.499 303.419 174.774C303.014 172.177 302.294 169.64 301.273 167.218C300.251 164.837 298.848 162.639 297.117 160.711C295.25 158.717 293.173 156.93 290.924 155.38C293.822 155.829 296.556 157.017 298.862 158.829C301.226 160.707 303.082 163.146 304.262 165.924C305.425 168.659 306.003 171.607 305.957 174.578C305.974 177.481 305.373 180.354 304.193 183.006Z" fill="#E6E6E6"/>
<path d="M321.059 177.998C318.93 175.236 317.122 172.241 315.669 169.07C314.192 165.908 312.976 162.63 312.033 159.27C311.079 155.901 310.446 152.449 310.142 148.961C309.821 145.473 309.982 141.957 310.622 138.514C311.337 141.953 311.886 145.276 312.67 148.578C313.454 151.881 314.238 155.135 315.169 158.378C316.1 161.622 317.041 164.866 318.05 168.11C319.06 171.354 320.089 174.646 321.059 177.998Z" fill="#E6E6E6"/>
<path d="M320.177 177.753C317.751 175.38 315.589 172.751 313.729 169.913C311.866 167.083 310.228 164.111 308.829 161.024C307.41 157.931 306.282 154.712 305.457 151.411C304.623 148.103 304.244 144.697 304.33 141.287C305.565 144.482 306.633 147.579 307.898 150.627C309.162 153.674 310.416 156.693 311.818 159.682C313.219 162.671 314.571 165.65 316.002 168.649C317.433 171.648 318.815 174.637 320.177 177.753Z" fill="#E6E6E6"/>
<path d="M323.823 180.889C321.075 179.434 318.523 177.636 316.228 175.538C313.916 173.455 311.806 171.158 309.926 168.678C308.008 166.212 306.364 163.544 305.026 160.721C303.687 157.9 302.794 154.888 302.38 151.793C304.066 154.429 305.555 157.006 307.28 159.466C309.005 161.926 310.671 164.366 312.504 166.708C314.336 169.051 316.169 171.403 318.07 173.735C319.971 176.067 321.902 178.439 323.823 180.889Z" fill="#E6E6E6"/>
<path d="M318.501 177.773C315.831 176.673 313.356 175.151 311.171 173.265C308.966 171.41 306.992 169.298 305.291 166.973C304.426 165.814 303.628 164.606 302.9 163.357C302.19 162.09 301.558 160.781 301.008 159.437C299.881 156.775 299.189 153.949 298.96 151.068C300.499 153.527 301.763 155.968 303.292 158.261C303.978 159.447 304.801 160.544 305.516 161.701C306.232 162.857 307.065 163.935 307.907 165.013C309.528 167.195 311.226 169.335 313.003 171.432C314.728 173.559 316.541 175.626 318.501 177.773Z" fill="#E6E6E6"/>
<path d="M322.676 179.448C321.408 178.554 320.395 177.345 319.736 175.94C319.055 174.538 318.577 173.047 318.315 171.51C317.825 168.464 317.911 165.352 318.57 162.338C318.887 160.858 319.279 159.396 319.746 157.957C320.304 156.556 320.804 155.135 321.471 153.792C322.137 152.449 322.843 151.136 323.636 149.872C324.453 148.619 325.333 147.409 326.273 146.246C325.959 147.726 325.518 149.127 325.097 150.529C324.675 151.93 324.322 153.341 323.862 154.703C323.401 156.066 323.127 157.477 322.705 158.839L322.225 160.907C322.059 161.593 321.863 162.279 321.765 162.975C321.173 165.696 320.871 168.471 320.863 171.256C320.851 172.646 320.975 174.035 321.235 175.401C321.48 176.823 321.967 178.192 322.676 179.448Z" fill="#E6E6E6"/>
<path d="M320.853 176.322C318.705 174.026 317.148 171.241 316.316 168.208C315.411 165.146 315.121 161.935 315.463 158.761C315.512 157.967 315.708 157.193 315.836 156.409L316.061 155.233L316.404 154.096C316.659 153.341 316.874 152.587 317.159 151.852C317.443 151.117 317.815 150.411 318.139 149.705L318.668 148.657L319.305 147.677L320.598 145.717C321.566 144.51 322.61 143.368 323.725 142.297C323.215 143.776 322.539 145.119 321.99 146.511L321.216 148.598L320.824 149.578L320.51 150.636C320.304 151.332 320.089 152.028 319.863 152.714L319.383 154.821L319.128 155.87L318.981 156.928C318.893 157.634 318.717 158.339 318.678 159.045C318.379 161.898 318.418 164.776 318.795 167.62C319.158 170.588 319.848 173.506 320.853 176.322Z" fill="#E6E6E6"/>
<path d="M316.718 175.127L302.674 162.632L304.752 179.595L316.718 175.127Z" fill="#E6E6E6"/>
<path d="M289.65 172.843H330.398L325.057 203.116H294.991L289.65 172.843Z" fill="#F5F5F5"/>
<path d="M315.11 172.843H330.398L325.057 203.116H317.031L315.11 172.843Z" fill="#EBEBEB"/>
<path d="M366.384 180.811C366.576 179.472 366.52 178.11 366.218 176.793C365.958 175.532 365.554 174.305 365.012 173.137C363.914 170.794 362.521 168.601 360.867 166.61C360.494 166.071 360.014 165.63 359.593 165.111C359.171 164.592 358.74 164.131 358.289 163.612C357.309 162.632 356.466 161.652 355.496 160.672C354.526 159.692 353.595 158.712 352.615 157.732C351.635 156.752 350.655 155.772 349.675 154.703C350.998 155.203 352.252 155.821 353.526 156.448C354.763 157.127 355.963 157.87 357.123 158.672C357.708 159.073 358.271 159.505 358.809 159.966C359.357 160.417 359.896 160.887 360.435 161.348C361.48 162.334 362.462 163.384 363.376 164.494C365.257 166.76 366.631 169.403 367.403 172.245C367.775 173.684 367.904 175.174 367.786 176.655C367.719 178.145 367.233 179.585 366.384 180.811Z" fill="#E6E6E6"/>
<path d="M389.297 176.704C388.264 175.814 387.5 174.654 387.092 173.353C386.865 172.683 386.717 171.989 386.651 171.285C386.631 170.926 386.631 170.566 386.651 170.207C386.639 169.848 386.672 169.489 386.749 169.139C387.324 166.351 388.781 163.822 390.904 161.926C391.394 161.446 391.953 161.064 392.472 160.632C392.989 160.203 393.539 159.816 394.118 159.476C394.687 159.143 395.255 158.8 395.843 158.496C396.127 158.339 396.412 158.163 396.715 158.026L397.617 157.643C398.225 157.389 398.832 157.153 399.44 156.918C400.044 156.674 400.667 156.477 401.302 156.33C402.564 156.001 403.843 155.74 405.134 155.546C404.12 156.349 403.064 157.095 401.968 157.781C401.429 158.104 400.92 158.467 400.41 158.839C399.9 159.211 399.43 159.545 398.862 159.888C397.793 160.525 396.902 161.338 395.922 162.024C395.432 162.367 394.967 162.744 394.53 163.151C394.079 163.543 393.55 163.896 393.178 164.307C391.48 165.808 390.141 167.67 389.258 169.756C389.071 170.281 388.92 170.818 388.807 171.363C388.716 171.931 388.671 172.504 388.669 173.078C388.669 174.314 388.881 175.541 389.297 176.704Z" fill="#E6E6E6"/>
<path d="M388.248 176.704C386.478 174.399 385.514 171.575 385.504 168.668C385.463 165.691 386.221 162.757 387.699 160.172L388.875 158.31C389.326 157.732 389.806 157.183 390.286 156.634L391.021 155.821L391.825 155.115L393.471 153.733C394.635 152.926 395.842 152.183 397.088 151.509C398.366 150.929 399.674 150.419 401.008 149.98C400.028 151.019 399.048 151.94 397.999 152.822C396.95 153.704 396.098 154.713 395.177 155.644C394.745 156.154 394.324 156.624 393.883 157.124L393.226 157.839L392.668 158.623C392.295 159.143 391.884 159.603 391.521 160.152L390.541 161.769C389.299 163.95 388.459 166.337 388.062 168.815C387.656 171.435 387.719 174.107 388.248 176.704Z" fill="#E6E6E6"/>
<path d="M367.639 178.155C368.452 175.127 369.334 172.206 370.187 169.335C371.039 166.463 371.872 163.533 372.637 160.632C373.401 157.732 374.038 154.811 374.597 151.812C375.155 148.814 375.459 145.932 375.724 142.757C376.754 145.75 377.238 148.903 377.154 152.067C377.036 155.217 376.58 158.345 375.792 161.397C374.993 164.43 373.914 167.383 372.568 170.217C371.253 173.053 369.598 175.719 367.639 178.155Z" fill="#E6E6E6"/>
<path d="M368.658 177.665C369.932 174.725 371.304 171.785 372.656 168.972C374.009 166.16 375.371 163.298 376.674 160.456C377.978 157.614 379.232 154.762 380.398 151.871C381.564 148.98 382.564 145.991 383.544 142.914C383.847 146.167 383.612 149.449 382.848 152.626C382.075 155.785 381.002 158.863 379.644 161.818C378.279 164.75 376.683 167.568 374.871 170.246C373.076 172.938 370.993 175.426 368.658 177.665Z" fill="#E6E6E6"/>
<path d="M364.669 181.399C366.58 178.772 368.589 176.293 370.549 173.813C372.509 171.334 374.469 168.913 376.37 166.414C378.272 163.915 380.134 161.436 381.917 158.868C383.701 156.301 385.328 153.655 386.984 150.852C386.55 154.091 385.586 157.236 384.132 160.162C382.675 163.068 380.942 165.828 378.958 168.404C376.971 170.955 374.786 173.343 372.421 175.548C370.058 177.775 367.459 179.737 364.669 181.399Z" fill="#E6E6E6"/>
<path d="M370.667 177.126C372.539 174.784 374.41 172.569 376.253 170.325C378.095 168.08 379.879 165.856 381.623 163.592C383.368 161.328 384.985 158.996 386.523 156.614C388.062 154.233 389.463 151.714 390.972 149.108C390.752 152.12 390.009 155.072 388.777 157.83C387.55 160.584 386.001 163.182 384.161 165.572C382.339 167.949 380.284 170.139 378.027 172.108C375.806 174.098 373.331 175.786 370.667 177.126Z" fill="#E6E6E6"/>
<path d="M365.875 179.86C366.938 177.734 367.451 175.375 367.364 173C367.235 170.733 366.655 168.514 365.659 166.473L365.326 165.679L364.904 164.915L364.081 163.367C363.425 162.387 362.837 161.338 362.121 160.329C361.406 159.319 360.759 158.31 360.034 157.3C359.272 156.285 358.563 155.232 357.907 154.145C359.034 154.765 360.127 155.445 361.18 156.183C362.208 156.966 363.19 157.806 364.12 158.702C364.585 159.157 365.021 159.641 365.424 160.152C365.842 160.655 366.254 161.165 366.659 161.681L367.707 163.376L368.207 164.239L368.619 165.16C369.814 167.644 370.257 170.424 369.893 173.157C369.719 174.49 369.272 175.773 368.581 176.926C367.89 178.08 366.968 179.078 365.875 179.86Z" fill="#E6E6E6"/>
<path d="M367.697 176.734C368.503 174.305 369.055 171.799 369.344 169.256C369.608 166.886 369.432 164.487 368.824 162.181C368.519 161.044 368.092 159.943 367.55 158.898C367.011 157.82 366.375 156.793 365.649 155.83C364.089 153.792 362.379 151.872 360.533 150.088C363.159 150.865 365.566 152.248 367.56 154.125C368.6 155.082 369.503 156.176 370.245 157.379C371.01 158.593 371.591 159.914 371.97 161.299C372.708 164.069 372.664 166.99 371.843 169.737C371.1 172.393 369.67 174.807 367.697 176.734Z" fill="#E6E6E6"/>
<path d="M372.49 174.411L387.817 159.692L387.199 174.127L372.49 174.411Z" fill="#E6E6E6"/>
<path d="M355.722 172.843H396.47L391.129 203.116H361.063L355.722 172.843Z" fill="#F5F5F5"/>
<path d="M381.172 172.843H396.47L391.129 203.116H383.103L381.172 172.843Z" fill="#EBEBEB"/>
<path d="M101.793 35.0057V193.766C101.793 200.368 99.1704 206.7 94.5022 211.368C89.8341 216.036 83.5027 218.658 76.9009 218.658H192.541C199.144 218.658 205.476 216.036 210.146 211.368C214.816 206.7 217.441 200.369 217.443 193.766V35.0057H101.793Z" fill="#F5F5F5"/>
<path d="M199.294 75.1957H124.568V149.921H199.294V75.1957Z" fill="#F0F0F0"/>
<path d="M197 72.8927H122.275V147.618H197V72.8927Z" fill="white"/>
<path d="M140.621 158.682H121.618V177.684H140.621V158.682Z" fill="white"/>
<path d="M196.991 158.682H177.988V177.684H196.991V158.682Z" fill="white"/>
<path d="M168.805 158.682H149.803V177.684H168.805V158.682Z" fill="white"/>
<path d="M217.463 35.0057H101.793V53.9002H217.463V35.0057Z" fill="#F0F0F0"/>
<path d="M108.78 28.9395V41.0719C108.779 41.5163 108.866 41.9565 109.035 42.3673C109.204 42.7781 109.453 43.1513 109.768 43.4655C110.082 43.7798 110.455 44.0288 110.866 44.1982C111.277 44.3677 111.717 44.4542 112.161 44.4529C112.605 44.4529 113.045 44.3655 113.455 44.1956C113.865 44.0257 114.238 43.7766 114.552 43.4627C114.866 43.1487 115.115 42.776 115.285 42.3658C115.455 41.9556 115.542 41.5159 115.542 41.0719V28.9395C115.54 28.0436 115.183 27.1851 114.549 26.5516C113.916 25.9181 113.057 25.5611 112.161 25.5585C111.265 25.5585 110.405 25.9147 109.771 26.5487C109.137 27.1828 108.78 28.0428 108.78 28.9395Z" fill="#E6E6E6"/>
<path d="M203.762 28.9395V41.0719C203.762 41.9686 204.119 42.8286 204.753 43.4627C205.387 44.0967 206.247 44.4529 207.143 44.4529C207.588 44.4542 208.028 44.3677 208.439 44.1982C208.85 44.0288 209.223 43.7798 209.537 43.4655C209.851 43.1513 210.1 42.7781 210.27 42.3673C210.439 41.9565 210.526 41.5163 210.524 41.0719V28.9395C210.524 28.0428 210.168 27.1828 209.534 26.5487C208.9 25.9147 208.04 25.5585 207.143 25.5585C206.248 25.5611 205.389 25.9181 204.756 26.5516C204.122 27.1851 203.765 28.0436 203.762 28.9395Z" fill="#E6E6E6"/>
<path d="M184.76 28.9395V41.0719C184.76 41.5159 184.847 41.9556 185.017 42.3658C185.187 42.776 185.436 43.1487 185.75 43.4627C186.064 43.7766 186.437 44.0257 186.847 44.1956C187.257 44.3655 187.697 44.453 188.141 44.453C188.585 44.453 189.025 44.3655 189.435 44.1956C189.845 44.0257 190.218 43.7766 190.532 43.4627C190.846 43.1487 191.095 42.776 191.265 42.3658C191.435 41.9556 191.522 41.5159 191.522 41.0719V28.9395C191.519 28.047 191.165 27.1914 190.536 26.5585C189.907 25.9255 189.053 25.5662 188.161 25.5585C187.715 25.5572 187.274 25.6436 186.862 25.8128C186.45 25.9821 186.076 26.2307 185.76 26.5447C185.444 26.8587 185.193 27.2317 185.022 27.6426C184.85 28.0535 184.761 28.4942 184.76 28.9395Z" fill="#E6E6E6"/>
<path d="M165.758 28.9395V41.0719C165.757 41.5163 165.843 41.9565 166.013 42.3673C166.182 42.7781 166.431 43.1513 166.745 43.4655C167.059 43.7798 167.433 44.0288 167.843 44.1982C168.254 44.3677 168.694 44.4542 169.139 44.4529C170.03 44.4452 170.881 44.0852 171.507 43.4517C172.133 42.8182 172.483 41.9627 172.481 41.0719V28.9395C172.481 28.0445 172.126 27.186 171.494 26.5522C170.862 25.9184 170.004 25.5611 169.109 25.5585C168.218 25.5662 167.365 25.9259 166.738 26.5591C166.11 27.1923 165.758 28.0479 165.758 28.9395Z" fill="#E6E6E6"/>
<path d="M146.756 28.9395V41.0719C146.754 41.5155 146.841 41.9549 147.009 42.365C147.178 42.7752 147.426 43.148 147.74 43.4621C148.053 43.7762 148.425 44.0254 148.834 44.1954C149.244 44.3654 149.683 44.4529 150.127 44.4529C150.571 44.4542 151.011 44.3677 151.422 44.1982C151.833 44.0288 152.206 43.7798 152.52 43.4655C152.835 43.1513 153.084 42.7781 153.253 42.3673C153.423 41.9565 153.509 41.5163 153.508 41.0719V28.9395C153.508 28.0428 153.152 27.1828 152.518 26.5487C151.884 25.9147 151.024 25.5585 150.127 25.5585C149.232 25.5611 148.374 25.9184 147.742 26.5522C147.11 27.186 146.756 28.0445 146.756 28.9395Z" fill="#E6E6E6"/>
<path d="M127.743 28.9395V41.0719C127.743 41.5159 127.831 41.9556 128.001 42.3658C128.171 42.776 128.42 43.1487 128.734 43.4627C129.048 43.7766 129.42 44.0257 129.831 44.1956C130.241 44.3655 130.68 44.4529 131.124 44.4529C131.568 44.4529 132.008 44.3655 132.418 44.1956C132.828 44.0257 133.201 43.7766 133.515 43.4627C133.829 43.1487 134.078 42.776 134.248 42.3658C134.418 41.9556 134.505 41.5159 134.505 41.0719V28.9395C134.503 28.0436 134.146 27.1851 133.512 26.5516C132.879 25.9181 132.02 25.5611 131.124 25.5585C130.229 25.5611 129.37 25.9181 128.737 26.5516C128.103 27.1851 127.746 28.0436 127.743 28.9395Z" fill="#E6E6E6"/>
<path d="M182.153 208.192C182.153 210.955 183.251 213.605 185.204 215.558C187.158 217.512 189.808 218.609 192.571 218.609H62.4165C59.6536 218.609 57.0039 217.512 55.0502 215.558C53.0966 213.605 51.999 210.955 51.999 208.192H182.153Z" fill="#E6E6E6"/>
<path d="M245.001 365.11C349.942 365.11 435.014 360.143 435.014 354.016C435.014 347.89 349.942 342.923 245.001 342.923C140.06 342.923 54.988 347.89 54.988 354.016C54.988 360.143 140.06 365.11 245.001 365.11Z" fill="#F5F5F5"/>
<path opacity="0.2" d="M264.199 260.416C264.199 260.416 192.179 302.939 192.179 343.227H336.239C336.229 302.939 264.199 260.416 264.199 260.416Z" fill="#2C9B9B"/>
<path opacity="0.2" d="M264.199 311.151C264.199 311.151 197.696 327.625 197.696 343.227H330.702C330.702 327.625 264.199 311.151 264.199 311.151Z" fill="#2C9B9B"/>
<path opacity="0.3" d="M272.941 272.157C286.465 285.456 312.748 314.924 312.748 343.227H294.726C294.726 314.924 280.34 285.456 272.941 272.157Z" fill="white"/>
<path opacity="0.2" d="M264.199 260.416C264.199 260.416 192.179 217.894 192.179 177.606H336.239C336.229 217.894 264.199 260.416 264.199 260.416Z" fill="#2C9B9B"/>
<path opacity="0.2" d="M264.199 256.536C264.199 256.536 227.429 238.896 227.429 222.137H300.979C300.979 238.866 264.199 256.536 264.199 256.536Z" fill="#2C9B9B"/>
<path opacity="0.3" d="M256.349 248.676C242.835 235.377 216.581 205.909 216.581 177.606H234.603C234.564 205.909 248.921 235.377 256.349 248.676Z" fill="white"/>
<path opacity="0.3" d="M272.941 248.676C286.465 235.377 312.092 202.498 312.748 177.606H307.946C305.692 207.957 283.642 235.808 272.941 248.676Z" fill="white"/>
<path d="M326.449 163.386H318.286V164.366H326.449V163.386Z" fill="#2C9B9B"/>
<path d="M354.163 176.851H353.183C353.181 173.543 351.866 170.37 349.527 168.029C347.188 165.689 344.017 164.371 340.708 164.366H332.094V163.386H340.708C344.276 163.394 347.695 164.815 350.217 167.339C352.739 169.863 354.158 173.284 354.163 176.851Z" fill="#2C9B9B"/>
<path d="M340.698 166.816H187.7C182.158 166.816 177.665 171.309 177.665 176.852V178.361C177.665 183.903 182.158 188.396 187.7 188.396H340.698C346.24 188.396 350.733 183.903 350.733 178.361V176.852C350.733 171.309 346.24 166.816 340.698 166.816Z" fill="#1DA5A7"/>
<path d="M340.698 332.437H187.7C182.158 332.437 177.665 336.93 177.665 342.472V343.981C177.665 349.524 182.158 354.017 187.7 354.017H340.698C346.24 354.017 350.733 349.524 350.733 343.981V342.472C350.733 336.93 346.24 332.437 340.698 332.437Z" fill="#1DA5A7"/>
<path d="M137.906 244.531L131.262 238.631L142.591 221.236L149.235 227.126L137.906 244.531Z" fill="#FF8B7B"/>
<path d="M132.634 234.887L141.081 240.767C141.154 240.812 141.216 240.871 141.265 240.94C141.315 241.009 141.35 241.088 141.369 241.171C141.388 241.253 141.391 241.339 141.377 241.423C141.363 241.507 141.332 241.587 141.287 241.659L137.054 248.637C136.81 248.988 136.438 249.228 136.018 249.307C135.598 249.386 135.164 249.297 134.809 249.058C131.869 246.971 130.782 245.952 127.263 243.11C123.786 240.377 120.45 237.469 117.267 234.397C114.661 231.692 117.414 229.076 118.796 230.007C122.06 232.222 127.734 234.662 131.017 234.466C131.588 234.421 132.157 234.569 132.634 234.887Z" fill="#263238"/>
<path opacity="0.2" d="M149.225 227.135L142.581 221.236L137.132 229.615L143.943 235.269L149.225 227.135Z" fill="black"/>
<path d="M216.826 140.238C216.826 140.238 172.236 137.191 166.709 152.302C154.135 186.661 137.779 223.108 137.779 223.108L150.921 232.623C150.921 232.623 178.704 190.14 187.181 162.867C204.331 167.032 235.338 170.589 245.324 159.123C253.85 149.323 247.471 140.238 247.471 140.238H216.826Z" fill="#263238"/>
<path opacity="0.3" d="M178.635 166.944C177.596 171.138 176.019 183.153 175.039 191.12C177.204 186.926 179.262 182.673 181.115 178.517L178.635 166.944Z" fill="black"/>
<path d="M150.078 236.926L135.172 225.244L138.22 218.698L154.88 231.428L150.078 236.926Z" fill="#1DA5A7"/>
<path d="M129.057 234.348C129.748 234.798 130.483 235.176 131.252 235.475C131.29 235.489 131.331 235.491 131.371 235.482C131.41 235.473 131.446 235.453 131.475 235.424C131.504 235.396 131.524 235.359 131.533 235.32C131.542 235.28 131.54 235.239 131.526 235.201C131.399 234.868 130.282 231.938 129.116 231.653C128.982 231.623 128.842 231.626 128.71 231.664C128.579 231.702 128.458 231.772 128.361 231.869C128.197 231.999 128.07 232.169 127.993 232.364C127.915 232.558 127.89 232.769 127.92 232.976C128.118 233.557 128.523 234.046 129.057 234.348ZM130.948 234.887C129.409 234.221 128.449 233.486 128.341 232.927C128.324 232.791 128.345 232.652 128.4 232.527C128.455 232.401 128.543 232.292 128.655 232.212C128.7 232.163 128.758 232.128 128.821 232.109C128.885 232.09 128.953 232.088 129.017 232.104C129.645 232.261 130.458 233.721 130.948 234.887Z" fill="#1DA5A7"/>
<path d="M131.203 235.446C131.235 235.455 131.269 235.455 131.301 235.446C131.338 235.45 131.375 235.445 131.409 235.431C131.443 235.417 131.473 235.396 131.497 235.367C131.566 235.289 133.232 233.241 132.987 231.977C132.954 231.815 132.885 231.663 132.785 231.532C132.685 231.401 132.556 231.295 132.408 231.222C132.258 231.128 132.081 231.085 131.904 231.101C131.727 231.117 131.56 231.191 131.428 231.31C130.684 232.006 130.713 234.358 131.154 235.328C131.161 235.371 131.177 235.411 131.203 235.446ZM132.291 231.692C132.362 231.739 132.423 231.8 132.47 231.871C132.517 231.941 132.549 232.021 132.565 232.104C132.712 232.849 131.918 234.133 131.399 234.838C131.125 233.858 131.213 232.114 131.693 231.663C131.791 231.575 131.928 231.487 132.212 231.663L132.291 231.692Z" fill="#1DA5A7"/>
<path d="M196.491 254.811L187.916 256.526L186.328 233.564L195.04 233.839L196.491 254.811Z" fill="#FF8B7B"/>
<path d="M186.75 253.39L196.55 249.264C196.63 249.224 196.717 249.202 196.806 249.196C196.895 249.191 196.985 249.204 197.069 249.235C197.153 249.265 197.23 249.312 197.296 249.372C197.362 249.433 197.414 249.506 197.451 249.587L201.195 257.114C201.366 257.521 201.371 257.979 201.208 258.39C201.044 258.8 200.727 259.13 200.323 259.309C196.893 260.691 195.187 261.171 190.885 262.994C188.239 264.111 181.085 267.345 177.263 268.296C173.441 269.246 172.579 265.414 174.127 264.67C177.792 262.906 183.868 257.525 185.505 254.556C185.784 254.044 186.22 253.635 186.75 253.39Z" fill="#263238"/>
<path d="M184.309 256.212C185.082 255.859 185.814 255.426 186.495 254.919C186.529 254.892 186.555 254.858 186.57 254.818C186.586 254.778 186.59 254.735 186.583 254.693C186.572 254.652 186.549 254.615 186.518 254.585C186.487 254.556 186.448 254.536 186.407 254.527C186.054 254.448 182.879 253.811 181.987 254.674C181.885 254.772 181.811 254.895 181.771 255.031C181.732 255.166 181.728 255.31 181.761 255.448C181.783 255.66 181.861 255.862 181.987 256.034C182.112 256.206 182.282 256.342 182.477 256.428C183.093 256.585 183.746 256.509 184.309 256.212ZM185.809 254.86C184.388 255.84 183.222 256.261 182.643 256.036C182.514 255.977 182.404 255.883 182.325 255.766C182.245 255.648 182.199 255.511 182.193 255.369C182.174 255.303 182.173 255.232 182.19 255.165C182.207 255.098 182.242 255.036 182.291 254.987C182.771 254.527 184.535 254.644 185.809 254.86Z" fill="#1DA5A7"/>
<path d="M186.446 254.948C186.479 254.931 186.509 254.907 186.534 254.879C186.55 254.847 186.559 254.812 186.559 254.776C186.559 254.741 186.55 254.705 186.534 254.674C186.534 254.566 185.632 251.979 184.397 251.498C184.239 251.435 184.067 251.41 183.897 251.425C183.727 251.441 183.562 251.496 183.417 251.587C183.246 251.663 183.105 251.796 183.019 251.964C182.934 252.132 182.908 252.324 182.947 252.508C183.143 253.488 185.211 254.811 186.299 254.958C186.347 254.974 186.4 254.97 186.446 254.948ZM183.77 251.92C183.851 251.886 183.938 251.868 184.025 251.868C184.113 251.868 184.199 251.886 184.28 251.92C185.015 252.204 185.691 253.605 186.024 254.448C185.044 254.125 183.545 253.115 183.417 252.429C183.417 252.302 183.417 252.135 183.682 251.979L183.77 251.92Z" fill="#1DA5A7"/>
<path opacity="0.2" d="M195.05 233.848L186.328 233.564L187.161 245.559L195.844 245.403L195.05 233.848Z" fill="black"/>
<path d="M238.484 140.239C238.484 140.239 174.784 146.266 177.077 165.444C180.428 193.11 182.878 241.551 182.878 241.551L199.117 242.188C199.117 242.188 205.213 199.597 201.646 171.265C218.139 171.265 253.968 172.138 260.269 163.612C267.747 153.498 264.287 140.239 264.287 140.239H238.484Z" fill="#263238"/>
<path d="M200.911 243.188L181.418 242.218L180.723 233.741L202.097 235.211L200.911 243.188Z" fill="#1DA5A7"/>
<path d="M224.343 84.0745C224.205 85.8288 224.049 87.387 223.833 89.0236C223.617 90.6602 223.412 92.2576 223.157 93.8746C222.686 97.0988 222.04 100.303 221.314 103.528C220.589 106.752 219.697 109.966 218.58 113.21C217.446 116.623 215.958 119.907 214.141 123.01C213.056 124.836 211.738 126.512 210.221 127.998C209.819 128.374 209.397 128.727 208.956 129.057C208.555 129.39 208.153 129.674 207.741 129.958C206.958 130.511 206.143 131.018 205.301 131.477C202.193 133.168 198.906 134.506 195.501 135.466C193.884 135.966 192.257 136.368 190.601 136.73C188.945 137.093 187.367 137.406 185.701 137.661C182.458 138.192 179.185 138.519 175.901 138.641C175.091 138.675 174.297 138.415 173.664 137.909C173.032 137.402 172.604 136.684 172.461 135.886C172.317 135.088 172.468 134.266 172.884 133.571C173.3 132.875 173.954 132.355 174.725 132.105L174.852 132.056C180.599 130.238 186.237 128.091 191.738 125.627C194.267 124.482 196.688 123.111 198.97 121.53C199.49 121.158 199.95 120.776 200.421 120.393C200.636 120.207 200.862 120.021 201.048 119.825C201.222 119.669 201.385 119.502 201.538 119.325C202.188 118.539 202.747 117.681 203.204 116.767C204.393 114.352 205.348 111.829 206.056 109.231C206.849 106.477 207.535 103.606 208.104 100.686C208.672 97.7652 209.182 94.8056 209.662 91.8068C210.142 88.808 210.505 85.7504 210.838 82.9084V82.7417C211.083 81.0232 211.983 79.4659 213.349 78.3949C214.716 77.3239 216.443 76.822 218.17 76.994C219.898 77.1659 221.492 77.9985 222.62 79.3179C223.748 80.6372 224.323 82.3414 224.225 84.0745H224.343Z" fill="#1DA5A7"/>
<path d="M176.224 130.34L171.324 130.644L175.244 139.66C175.244 139.66 183.721 139.474 183.545 135.299L182.016 133.339C181.316 132.46 180.439 131.738 179.441 131.221C178.442 130.704 177.346 130.404 176.224 130.34Z" fill="#FF8B7B"/>
<path d="M165.954 131.389L170.187 139.68H175.234L171.314 130.664L165.954 131.389Z" fill="#FF8B7B"/>
<path d="M223.637 70.1781L233.113 68.2181L240.659 67.1302C241.738 66.954 242.833 66.9047 243.923 66.9832C246.819 67.2459 249.566 68.3858 251.796 70.2507C254.027 72.1157 255.636 74.6169 256.408 77.4203C258.3 84.2803 260.005 92.6985 261.308 100.156C263.131 110.515 264.072 126.077 264.248 140.229H219.354C218.374 114.602 212.925 98.0886 211.073 87.8475C210.515 84.7558 210.989 81.5664 212.422 78.7703C213.854 75.9743 216.166 73.7266 219.001 72.3733L223.637 70.1781Z" fill="#1DA5A7"/>
<path d="M219.354 75.8132C219.462 80.0272 220.334 95.0506 224.852 103.586C225.646 95.5896 235.142 71.2463 235.142 71.2463L219.354 75.8132Z" fill="#F5F5F5"/>
<path opacity="0.3" d="M262.337 107.193C262.337 107.036 262.337 106.889 262.278 106.722L262.19 106.017C262.141 105.635 262.092 105.252 262.043 104.89L261.896 103.841L261.749 102.861C261.749 102.587 261.661 102.303 261.622 102.038C261.524 101.411 261.426 100.803 261.318 100.205C260.995 98.3727 260.652 96.4715 260.279 94.5605V94.4037C259.907 92.4437 259.525 90.5523 259.113 88.6413V88.5139C258.946 87.6907 258.77 86.8871 258.584 86.0737L258.378 85.1721L258.025 83.6139L257.731 82.3987L257.672 82.1439C257.28 80.5367 256.879 78.9589 256.467 77.4693L249.656 73.8824C250.44 76.8911 251.185 80.2035 251.89 83.5943C251.075 84.0209 250.323 84.5584 249.656 85.1917C248.029 86.6421 248.088 89.7291 249.715 93.3845C254.218 103.837 256.712 115.045 257.065 126.42C257.271 131.036 257.398 135.711 257.457 140.248H264.317C264.121 129.008 263.494 116.895 262.337 107.193Z" fill="black"/>
<path d="M229.585 51.2935L225.734 57.1735L220.501 65.1605C221.174 65.8467 221.722 66.6462 222.118 67.5223C223.098 69.4823 223.862 70.8935 219.815 73.6473C218.952 74.2353 218.923 75.1663 219.119 76.1954C219.354 77.4498 220.099 78.763 224.45 77.9888C228.655 77.1798 232.493 75.0515 235.407 71.9127C236.857 70.4525 236.524 69.3647 235.122 67.8555C231.163 63.5925 229.977 56.7815 229.585 51.2935Z" fill="#FF8B7B"/>
<path d="M220.334 78.1357L223.108 79.8801L227.616 77.9691C226.553 76.8964 225.183 76.1807 223.696 75.9209C222.4 76.3507 221.24 77.1147 220.334 78.1357Z" fill="#263238"/>
<path d="M223.647 75.9209C225.715 76.7735 226.753 78.6943 227.694 80.9091C227.694 80.9091 237.602 73.4023 237.808 68.4533C237.279 66.7677 234.799 67.0617 234.799 67.0617C234.799 67.0617 231.781 72.2949 223.647 75.9209Z" fill="white"/>
<path d="M223.647 75.9209C222.681 76.3119 221.86 76.9934 221.298 77.8713C220.736 78.7491 220.461 79.7799 220.511 80.821C220.511 80.821 216.101 75.6465 219.688 71.7363C220.661 71.2257 221.695 70.8405 222.765 70.5897C222.765 70.5897 221.687 72.7457 223.647 75.9209Z" fill="white"/>
<path d="M223.98 79.0667H222.716C222.304 79.7723 221.736 88.9647 221.51 93.8549C222.116 96.7099 223.006 99.4972 224.166 102.175C224.162 102.208 224.162 102.241 224.166 102.273C224.235 102.43 224.303 102.577 224.382 102.724C224.519 103.018 224.656 103.312 224.813 103.586C225.266 100.551 225.97 97.5577 226.92 94.6389C225.626 88.9745 223.98 79.0667 223.98 79.0667Z" fill="#263238"/>
<path opacity="0.2" d="M221.795 63.1907L225.009 57.4968C225.068 57.634 225.146 57.8006 225.225 57.9574C225.506 58.6681 225.736 59.3986 225.911 60.1428C226.499 62.681 224.539 66.2875 222.373 67.9829C222.285 67.8261 222.206 67.6595 222.118 67.4929C221.732 66.6701 221.234 65.9049 220.638 65.2193L220.511 65.1213L221.795 63.1907Z" fill="black"/>
<path d="M206.134 50.9602C205.36 47.4812 210.897 42.6694 210.897 42.6694L204.341 40.386C201.381 42.5126 203.302 48.5788 206.134 50.9602Z" fill="#263238"/>
<path d="M228.223 40.9053C229.772 49.6078 231.163 54.6254 227.89 60.182C226.864 62.0065 225.359 63.5158 223.537 64.5465C221.716 65.5771 219.647 66.0899 217.555 66.0294C215.462 65.9688 213.427 65.3372 211.667 64.2029C209.908 63.0686 208.493 61.4748 207.575 59.594C203.9 52.4204 201.989 39.4059 209.466 33.6925C211.051 32.4149 212.943 31.5763 214.954 31.2606C216.965 30.945 219.023 31.1633 220.923 31.8939C222.823 32.6244 224.497 33.8415 225.779 35.4231C227.06 37.0047 227.903 38.8952 228.223 40.9053Z" fill="#FF8B7B"/>
<path d="M228.341 49.7057L224.225 48.5787V43.2867C224.225 43.2867 219.021 40.3467 219.825 36.6717C220.223 34.6056 220.784 32.574 221.5 30.5957C221.5 30.5957 229.752 30.0665 232.28 31.1249C231.626 31.8344 230.914 32.4899 230.154 33.0849C232.132 34.4538 233.829 36.1905 235.152 38.2005C234.119 38.4307 233.153 38.8969 232.329 39.5627C232.329 39.5627 233.407 46.8245 228.341 49.7057Z" fill="#263238"/>
<path d="M218.874 24.9509C221.902 26.8521 220.148 30.3409 220.148 30.3409L228.253 30.5075C227.821 27.9497 220.795 24.8235 218.874 24.9509Z" fill="#263238"/>
<path d="M222.039 38.4553C221.461 40.0821 214.895 42.0814 208.907 42.2774C205.923 42.2126 202.969 41.6563 200.166 40.6309C201.011 39.7627 202.007 39.0554 203.106 38.5435C199.489 37.6517 194.913 34.4765 193.649 31.8893C196.289 30.9457 199.141 30.7623 201.881 31.3601C200.984 30.6033 200.248 29.6753 199.714 28.6303C199.181 27.5853 198.861 26.4443 198.774 25.2743C198.774 25.2743 214.101 31.3503 220.001 28.8317C226.41 26.0877 231.281 31.2327 227.067 35.1527C222.853 39.0727 222.039 38.4553 222.039 38.4553Z" fill="#263238"/>
<path d="M232.908 47.2067C232.991 49.1261 232.367 51.0093 231.154 52.4988C229.566 54.3902 227.096 52.881 226.528 50.5388C226.018 48.4121 226.685 45.1291 228.772 44.1099C230.86 43.0907 232.8 44.8253 232.908 47.2067Z" fill="#FF8B7B"/>
<path d="M214.974 49.0001C215.189 49.6861 214.974 50.3623 214.582 50.5289C214.19 50.6955 213.602 50.2643 213.376 49.5489C213.151 48.8335 213.376 48.1867 213.768 48.0201C214.16 47.8535 214.748 48.2749 214.974 49.0001Z" fill="#263238"/>
<path d="M207.379 51.7442C207.594 52.4204 207.379 53.1064 206.987 53.2632C206.595 53.42 206.007 53.0084 205.781 52.2832C205.556 51.558 205.781 50.921 206.173 50.7642C206.565 50.6074 207.153 51.0582 207.379 51.7442Z" fill="#263238"/>
<path d="M209.976 51.3816C210.008 53.4097 209.77 55.4331 209.27 57.3988C209.767 57.5046 210.282 57.4988 210.777 57.3819C211.272 57.265 211.734 57.0398 212.132 56.7226L209.976 51.3816Z" fill="#A02724"/>
<path d="M214.621 59.3393C215.408 59.0754 216.134 58.6569 216.757 58.1082C217.379 57.5595 217.886 56.8919 218.247 56.1444C218.266 56.0924 218.265 56.0347 218.243 55.9836C218.221 55.9325 218.18 55.8918 218.129 55.87C218.104 55.8587 218.077 55.8526 218.05 55.8519C218.022 55.8512 217.995 55.856 217.969 55.8661C217.944 55.8761 217.92 55.8912 217.901 55.9104C217.881 55.9296 217.865 55.9525 217.855 55.9778C217.457 56.7883 216.878 57.4963 216.162 58.0469C215.447 58.5976 214.614 58.9761 213.729 59.153C213.702 59.1588 213.676 59.17 213.653 59.1861C213.63 59.2022 213.61 59.2228 213.596 59.2467C213.581 59.2705 213.571 59.2971 213.567 59.3248C213.563 59.3525 213.565 59.3808 213.572 59.4079C213.584 59.4611 213.616 59.5075 213.662 59.5369C213.708 59.5663 213.764 59.5763 213.817 59.5646C214.09 59.5071 214.358 59.4318 214.621 59.3393Z" fill="#263238"/>
<path d="M216.659 44.9822C216.72 44.9463 216.77 44.8957 216.806 44.8352C216.837 44.7898 216.859 44.7386 216.87 44.6846C216.88 44.6307 216.88 44.5752 216.869 44.5213C216.859 44.4674 216.837 44.4162 216.806 44.3708C216.775 44.3254 216.735 44.2867 216.689 44.257C216.138 43.8884 215.505 43.6599 214.846 43.5916C214.187 43.5233 213.521 43.6171 212.906 43.865C212.856 43.8888 212.811 43.9223 212.773 43.9635C212.736 44.0047 212.707 44.0528 212.689 44.1051C212.67 44.1575 212.662 44.213 212.665 44.2684C212.667 44.3239 212.681 44.3783 212.705 44.4285C212.729 44.4787 212.762 44.5237 212.803 44.561C212.845 44.5982 212.893 44.627 212.945 44.6457C212.997 44.6643 213.053 44.6725 213.108 44.6697C213.164 44.6669 213.218 44.6532 213.268 44.6294C213.749 44.4429 214.267 44.3759 214.779 44.4339C215.292 44.4919 215.782 44.6734 216.208 44.9626C216.274 45.0083 216.351 45.0344 216.431 45.0378C216.511 45.0413 216.59 45.022 216.659 44.9822Z" fill="#263238"/>
<path d="M205.869 47.6184C205.888 47.5511 205.888 47.4799 205.869 47.4126C205.826 47.3103 205.744 47.2292 205.641 47.187C205.539 47.1448 205.423 47.1449 205.321 47.1872C204.703 47.4269 204.155 47.8153 203.724 48.3179C203.293 48.8206 202.993 49.4219 202.851 50.0684C202.848 50.17 202.883 50.269 202.947 50.3474C203.012 50.4257 203.103 50.478 203.203 50.4947C203.303 50.5114 203.406 50.4914 203.493 50.4382C203.579 50.3851 203.644 50.3025 203.674 50.2057C203.796 49.7015 204.038 49.2342 204.379 48.8436C204.721 48.4529 205.151 48.1503 205.634 47.9614C205.7 47.9295 205.756 47.8811 205.797 47.821C205.838 47.7609 205.863 47.6911 205.869 47.6184Z" fill="#263238"/>
<path d="M254.321 73.2063C255.399 74.5391 256.34 75.7445 257.261 77.0283C258.182 78.3121 259.143 79.5861 260.044 80.8895C261.877 83.4865 263.582 86.1815 265.248 88.9256C266.914 91.6696 268.462 94.5312 269.854 97.5594C271.364 100.701 272.563 103.983 273.431 107.359C273.919 109.322 274.175 111.335 274.195 113.357C274.171 115.379 273.881 117.389 273.333 119.335C272.357 122.724 270.933 125.967 269.099 128.978C268.257 130.419 267.345 131.801 266.395 133.134C265.444 134.466 264.435 135.76 263.455 137.005C261.409 139.507 259.185 141.859 256.8 144.041C256.204 144.573 255.437 144.874 254.638 144.892C253.839 144.91 253.059 144.642 252.44 144.137C251.82 143.632 251.401 142.922 251.257 142.136C251.114 141.35 251.255 140.538 251.655 139.847L251.743 139.7C254.787 134.762 257.447 129.599 259.701 124.255C260.713 121.846 261.449 119.331 261.896 116.758C262.06 115.724 262.103 114.675 262.024 113.631C261.906 112.599 261.682 111.581 261.357 110.593C260.51 108.088 259.444 105.661 258.172 103.341C256.869 100.882 255.399 98.4414 253.831 95.962C252.263 93.4826 250.616 91.062 248.931 88.6806L246.353 85.0937C245.491 83.9275 244.589 82.6829 243.776 81.6147L243.717 81.5363C242.613 80.1354 242.11 78.353 242.319 76.5813C242.529 74.8096 243.434 73.1937 244.834 72.0891C246.235 70.9845 248.018 70.4816 249.789 70.6911C251.561 70.9006 253.177 71.8054 254.282 73.2063H254.321Z" fill="#1DA5A7"/>
<path d="M160.946 145.501L244.325 141.728C244.588 141.711 244.851 141.747 245.1 141.834C245.349 141.921 245.578 142.057 245.773 142.235C245.968 142.412 246.125 142.627 246.234 142.867C246.344 143.107 246.405 143.366 246.412 143.629L159.045 147.549C159.033 147.29 159.073 147.03 159.162 146.786C159.252 146.542 159.389 146.318 159.566 146.127C159.743 145.936 159.956 145.783 160.193 145.675C160.43 145.568 160.686 145.509 160.946 145.501Z" fill="#1DA5A7"/>
<g opacity="0.6">
<path d="M160.946 145.501L244.325 141.728C244.588 141.711 244.851 141.747 245.1 141.834C245.349 141.921 245.578 142.057 245.773 142.235C245.968 142.412 246.125 142.627 246.234 142.867C246.344 143.107 246.405 143.366 246.412 143.629L159.045 147.549C159.033 147.29 159.073 147.03 159.162 146.786C159.252 146.542 159.389 146.318 159.566 146.127C159.743 145.936 159.956 145.783 160.193 145.675C160.43 145.568 160.686 145.509 160.946 145.501Z" fill="white"/>
</g>
<path d="M147.677 106.82L206.996 104.135C207.377 104.14 207.747 104.263 208.055 104.485C208.364 104.708 208.596 105.02 208.721 105.38L220.109 141.513C220.17 141.662 220.194 141.824 220.177 141.984C220.161 142.145 220.105 142.299 220.015 142.433C219.925 142.566 219.803 142.676 219.66 142.751C219.518 142.827 219.359 142.866 219.197 142.865L159.878 145.55C159.499 145.547 159.131 145.426 158.824 145.205C158.517 144.984 158.286 144.673 158.163 144.315L146.775 108.173C146.714 108.024 146.691 107.863 146.706 107.703C146.722 107.544 146.777 107.39 146.866 107.257C146.955 107.123 147.076 107.014 147.217 106.938C147.358 106.861 147.516 106.821 147.677 106.82Z" fill="#1DA5A7"/>
<path opacity="0.6" d="M147.677 106.82L206.996 104.135C207.377 104.14 207.747 104.263 208.055 104.485C208.364 104.708 208.596 105.02 208.721 105.38L220.109 141.513C220.17 141.662 220.194 141.824 220.177 141.984C220.161 142.145 220.105 142.299 220.015 142.433C219.925 142.566 219.803 142.676 219.66 142.751C219.518 142.827 219.359 142.866 219.197 142.865L159.878 145.55C159.499 145.547 159.131 145.426 158.824 145.205C158.517 144.984 158.286 144.673 158.163 144.315L146.775 108.173C146.714 108.024 146.691 107.863 146.706 107.703C146.722 107.544 146.777 107.39 146.866 107.257C146.955 107.123 147.076 107.014 147.217 106.938C147.358 106.861 147.516 106.821 147.677 106.82Z" fill="white"/>
<path opacity="0.5" d="M208.741 105.37L220.129 141.503C220.192 141.652 220.217 141.816 220.202 141.977C220.186 142.139 220.131 142.295 220.041 142.43C219.95 142.565 219.828 142.676 219.684 142.751C219.54 142.827 219.38 142.866 219.217 142.865L207.016 104.125C207.397 104.13 207.766 104.253 208.075 104.475C208.384 104.698 208.616 105.01 208.741 105.37Z" fill="#1DA5A7"/>
<path opacity="0.5" d="M222.402 142.718L244.325 141.738C244.588 141.721 244.851 141.757 245.1 141.844C245.349 141.931 245.578 142.067 245.773 142.245C245.968 142.422 246.125 142.637 246.234 142.877C246.344 143.116 246.405 143.376 246.412 143.639L220.501 144.805C220.484 144.542 220.52 144.279 220.607 144.03C220.694 143.781 220.83 143.552 221.008 143.357C221.185 143.163 221.4 143.005 221.64 142.896C221.879 142.786 222.138 142.725 222.402 142.718Z" fill="#1DA5A7"/>
<path d="M250.097 139.435L244.491 140.248L250.234 148.235C250.234 148.235 259.358 146.775 258.3 142.728L256.34 141.101C255.474 140.402 254.47 139.893 253.395 139.606C252.32 139.319 251.196 139.261 250.097 139.435Z" fill="#FF8B7B"/>
<path d="M237.631 142.64L244.658 148.765L250.234 148.235L244.491 140.248L237.631 142.64Z" fill="#FF8B7B"/>
<g clip-path="url(#clip0_236_4036)">
<path d="M392 68.2814V287.719C392 298.917 382.919 308 371.723 308H107.302C96.0811 308 87 298.917 87 287.719V68.2814C87 57.0831 96.0811 48 107.302 48H371.723C382.919 48 392 57.0831 392 68.2814Z" fill="#D2EDED"/>
<path d="M490.002 320.853H0V321.098H490.002V320.853Z" fill="#EBEBEB"/>
<path d="M440.904 336.621H408.446V336.866H440.904V336.621Z" fill="#EBEBEB"/>
<path d="M324.597 339.287H316.081V339.532H324.597V339.287Z" fill="#EBEBEB"/>
<path d="M407.466 327.527H388.66V327.772H407.466V327.527Z" fill="#EBEBEB"/>
<path d="M93.7372 329.173H51.4109V329.418H93.7372V329.173Z" fill="#EBEBEB"/>
<path d="M108.673 329.173H102.469V329.418H108.673V329.173Z" fill="#EBEBEB"/>
<path d="M220.648 333.309H128.841V333.554H220.648V333.309Z" fill="#EBEBEB"/>
<path d="M232.261 277.145H43.0321C41.5497 277.142 40.1289 276.552 39.0816 275.503C38.0343 274.453 37.446 273.032 37.446 271.549V5.54682C37.4589 4.07292 38.0529 2.66363 39.0988 1.62506C40.1447 0.586491 41.5581 0.00252487 43.0321 0H232.261C233.745 0 235.168 0.589558 236.218 1.63898C237.267 2.6884 237.857 4.11172 237.857 5.59582V271.549C237.857 273.033 237.267 274.457 236.218 275.506C235.168 276.555 233.745 277.145 232.261 277.145ZM43.0321 0.196001C41.6146 0.198598 40.2562 0.763487 39.2548 1.76668C38.2534 2.76987 37.691 4.12939 37.691 5.54682V271.549C37.691 272.967 38.2534 274.326 39.2548 275.329C40.2562 276.333 41.6146 276.897 43.0321 276.9H232.261C233.679 276.897 235.039 276.333 236.042 275.33C237.045 274.327 237.609 272.968 237.612 271.549V5.54682C237.609 4.12849 237.045 2.76899 236.042 1.76608C235.039 0.763168 233.679 0.198592 232.261 0.196001H43.0321Z" fill="#EBEBEB"/>
<path d="M444.245 277.145H255.007C253.523 277.142 252.102 276.552 251.053 275.503C250.004 274.454 249.413 273.033 249.411 271.549V5.54682C249.426 4.07203 250.022 2.66275 251.07 1.62445C252.117 0.586149 253.532 0.00249733 255.007 0H444.245C445.718 0.00510042 447.129 0.590206 448.172 1.6285C449.216 2.66679 449.809 4.07461 449.822 5.54682V271.549C449.822 273.03 449.235 274.45 448.19 275.499C447.144 276.548 445.726 277.14 444.245 277.145ZM255.007 0.196001C253.588 0.198592 252.229 0.763168 251.226 1.76608C250.223 2.76899 249.658 4.12849 249.656 5.54682V271.549C249.658 272.968 250.223 274.327 251.226 275.33C252.229 276.333 253.588 276.897 255.007 276.9H444.245C445.664 276.897 447.023 276.333 448.026 275.33C449.029 274.327 449.594 272.968 449.596 271.549V5.54682C449.594 4.12849 449.029 2.76899 448.026 1.76608C447.023 0.763168 445.664 0.198592 444.245 0.196001H255.007Z" fill="#EBEBEB"/>
<path d="M352.135 132.545C380.507 132.545 403.507 109.546 403.507 81.1737C403.507 52.8018 380.507 29.8019 352.135 29.8019C323.763 29.8019 300.763 52.8018 300.763 81.1737C300.763 109.546 323.763 132.545 352.135 132.545Z" fill="#E0E0E0"/>
<path d="M348.235 132.545C376.606 132.545 399.606 109.546 399.606 81.1737C399.606 52.8018 376.606 29.8019 348.235 29.8019C319.863 29.8019 296.863 52.8018 296.863 81.1737C296.863 109.546 319.863 132.545 348.235 132.545Z" fill="#F5F5F5"/>
<path d="M381.813 114.755C400.355 96.2125 400.355 66.1491 381.813 47.6065C363.27 29.064 333.207 29.064 314.664 47.6065C296.122 66.1491 296.122 96.2125 314.664 114.755C333.207 133.298 363.27 133.298 381.813 114.755Z" fill="white"/>
<path d="M356.329 115.729C356.071 115.729 355.82 115.642 355.617 115.482C355.415 115.322 355.272 115.098 355.212 114.847L347.117 81.4481C347.06 81.1562 347.118 80.8535 347.278 80.6029C347.438 80.3522 347.688 80.173 347.977 80.1023C348.266 80.0317 348.571 80.0751 348.829 80.2235C349.087 80.3719 349.278 80.6139 349.361 80.8993L357.447 114.308C357.517 114.605 357.467 114.919 357.308 115.179C357.148 115.44 356.891 115.627 356.594 115.699C356.507 115.719 356.418 115.729 356.329 115.729Z" fill="#F5F5F5"/>
<path d="M348.234 83.4767C347.932 83.4767 347.633 83.4171 347.354 83.301C347.074 83.185 346.821 83.0149 346.608 82.8005L318.825 55.0174C318.611 54.8031 318.442 54.5488 318.326 54.2691C318.211 53.9894 318.152 53.6897 318.152 53.3871C318.153 52.776 318.397 52.1903 318.829 51.7588C319.262 51.3274 319.849 51.0855 320.46 51.0864C321.071 51.0873 321.656 51.331 322.088 51.7637L348.234 77.92L363.493 62.6614C363.926 62.2299 364.512 61.988 365.123 61.989C365.734 61.9899 366.32 62.2335 366.752 62.6663C367.183 63.099 367.425 63.6855 367.424 64.2966C367.423 64.9076 367.179 65.4933 366.747 65.9248L349.861 82.8005C349.43 83.2326 348.845 83.4758 348.234 83.4767Z" fill="#EBEBEB"/>
<path d="M217.071 313.699H224.813V260.681H217.071V313.699Z" fill="#F0F0F0"/>
<path d="M60.4761 320.853H219.707V313.699H60.4761V320.853Z" fill="#F0F0F0"/>
<path d="M217.071 260.681H55.3604V313.699H217.071V260.681Z" fill="#F5F5F5"/>
<path d="M206.604 269.913H65.8171V300.195H206.604V269.913Z" fill="#F0F0F0"/>
<path d="M101.969 273.96H170.472C171.754 273.96 172.794 272.92 172.794 271.637V271.206C172.794 269.923 171.754 268.884 170.472 268.884H101.969C100.687 268.884 99.6467 269.923 99.6467 271.206V271.637C99.6467 272.92 100.687 273.96 101.969 273.96Z" fill="#F5F5F5"/>
<path d="M51.8127 260.681H217.071V255.948H51.8127V260.681Z" fill="#F0F0F0"/>
<path d="M228.527 255.948H217.071V260.681H228.527V255.948Z" fill="#E6E6E6"/>
<path d="M421.098 204.703H406.006V320.853H421.098V204.703Z" fill="#F0F0F0"/>
<path d="M273.911 320.853H406.006V204.703H273.911V320.853Z" fill="#F5F5F5"/>
<path d="M272.706 310.651H388.679V248.529H272.706V310.651Z" fill="#FAFAFA"/>
<path d="M272.706 241.943H388.679V221.491H272.706V241.943Z" fill="#FAFAFA"/>
<g style="mix-blend-mode:multiply" opacity="0.7">
<path d="M389.718 248.529H388.679V310.651H389.718V248.529Z" fill="#E6E6E6"/>
</g>
<g style="mix-blend-mode:multiply" opacity="0.7">
<path d="M389.718 221.491H388.679V241.943H389.718V221.491Z" fill="#E6E6E6"/>
</g>
<g style="mix-blend-mode:multiply" opacity="0.7">
<path d="M421.098 209.603H273.578V212.23H421.098V209.603Z" fill="#E6E6E6"/>
</g>
<path d="M422.862 203.116H406.006V210.711H422.862V203.116Z" fill="#F0F0F0"/>
<path d="M272.147 210.711H406.006V203.116H272.147V210.711Z" fill="#F5F5F5"/>
<path d="M322.362 180.752C321.452 179.317 320.851 177.708 320.598 176.028C320.333 174.35 320.247 172.648 320.344 170.952C320.553 167.576 321.274 164.252 322.48 161.093C323.054 159.525 323.708 157.988 324.44 156.487C325.224 155.017 326.008 153.547 326.89 152.146C327.772 150.744 328.742 149.392 329.742 148.079C330.741 146.765 331.868 145.54 333.035 144.354C332.466 145.932 331.79 147.422 331.075 148.912C330.359 150.401 329.801 151.901 329.115 153.351L327.213 157.761L326.341 159.986L325.89 161.093L325.498 162.21C324.379 165.155 323.491 168.182 322.843 171.265C322.506 172.806 322.277 174.368 322.157 175.94C322.01 177.546 322.079 179.164 322.362 180.752Z" fill="#E6E6E6"/>
<path d="M303.34 183.349C303.466 180.983 303.259 178.611 302.723 176.303C302.222 174.198 301.239 172.239 299.852 170.579C298.373 168.935 296.622 167.556 294.677 166.503C292.668 165.336 290.453 164.425 288.17 163.347C290.707 163.076 293.273 163.35 295.696 164.151C296.948 164.56 298.146 165.12 299.264 165.817C300.406 166.552 301.439 167.447 302.331 168.472C304.111 170.571 305.145 173.201 305.271 175.95C305.406 178.556 304.732 181.141 303.34 183.349Z" fill="#E6E6E6"/>
<path d="M304.193 183.006C304.11 180.248 303.851 177.499 303.419 174.774C303.014 172.177 302.294 169.64 301.273 167.218C300.251 164.837 298.848 162.639 297.117 160.711C295.25 158.717 293.173 156.93 290.924 155.38C293.822 155.829 296.556 157.017 298.862 158.829C301.226 160.707 303.082 163.146 304.262 165.924C305.425 168.659 306.003 171.607 305.957 174.578C305.974 177.481 305.373 180.354 304.193 183.006Z" fill="#E6E6E6"/>
<path d="M321.059 177.998C318.93 175.236 317.122 172.241 315.669 169.07C314.192 165.908 312.976 162.63 312.033 159.27C311.079 155.901 310.446 152.449 310.142 148.961C309.821 145.473 309.982 141.957 310.622 138.514C311.337 141.953 311.886 145.276 312.67 148.578C313.454 151.881 314.238 155.135 315.169 158.378C316.1 161.622 317.041 164.866 318.05 168.11C319.06 171.354 320.089 174.646 321.059 177.998Z" fill="#E6E6E6"/>
<path d="M320.177 177.753C317.751 175.38 315.589 172.751 313.729 169.913C311.866 167.083 310.228 164.111 308.829 161.024C307.41 157.931 306.282 154.712 305.457 151.411C304.623 148.103 304.244 144.697 304.33 141.287C305.565 144.482 306.633 147.579 307.898 150.627C309.162 153.674 310.416 156.693 311.818 159.682C313.219 162.671 314.571 165.65 316.002 168.649C317.433 171.648 318.815 174.637 320.177 177.753Z" fill="#E6E6E6"/>
<path d="M323.823 180.889C321.075 179.434 318.523 177.636 316.228 175.538C313.916 173.455 311.806 171.158 309.926 168.678C308.008 166.212 306.364 163.544 305.026 160.721C303.687 157.9 302.794 154.888 302.38 151.793C304.066 154.429 305.555 157.006 307.28 159.466C309.005 161.926 310.671 164.366 312.504 166.708C314.336 169.051 316.169 171.403 318.07 173.735C319.971 176.067 321.902 178.439 323.823 180.889Z" fill="#E6E6E6"/>
<path d="M318.501 177.773C315.831 176.673 313.356 175.151 311.171 173.265C308.966 171.41 306.992 169.298 305.291 166.973C304.426 165.814 303.628 164.606 302.9 163.357C302.19 162.09 301.558 160.781 301.008 159.437C299.881 156.775 299.189 153.949 298.96 151.068C300.499 153.527 301.763 155.968 303.292 158.261C303.978 159.447 304.801 160.544 305.516 161.701C306.232 162.857 307.065 163.935 307.907 165.013C309.528 167.195 311.226 169.335 313.003 171.432C314.728 173.559 316.541 175.626 318.501 177.773Z" fill="#E6E6E6"/>
<path d="M322.676 179.448C321.408 178.554 320.395 177.345 319.736 175.94C319.055 174.538 318.577 173.047 318.315 171.51C317.825 168.464 317.911 165.352 318.57 162.338C318.887 160.858 319.279 159.396 319.746 157.957C320.304 156.556 320.804 155.135 321.471 153.792C322.137 152.449 322.843 151.136 323.636 149.872C324.453 148.619 325.333 147.409 326.273 146.246C325.959 147.726 325.518 149.127 325.097 150.529C324.675 151.93 324.322 153.341 323.862 154.703C323.401 156.066 323.127 157.477 322.705 158.839L322.225 160.907C322.059 161.593 321.863 162.279 321.765 162.975C321.173 165.696 320.871 168.471 320.863 171.256C320.851 172.646 320.975 174.035 321.235 175.401C321.48 176.823 321.967 178.192 322.676 179.448Z" fill="#E6E6E6"/>
<path d="M320.853 176.322C318.705 174.026 317.148 171.241 316.316 168.208C315.411 165.146 315.121 161.935 315.463 158.761C315.512 157.967 315.708 157.193 315.836 156.409L316.061 155.233L316.404 154.096C316.659 153.341 316.874 152.587 317.159 151.852C317.443 151.117 317.815 150.411 318.139 149.705L318.668 148.657L319.305 147.677L320.598 145.717C321.566 144.51 322.61 143.368 323.725 142.297C323.215 143.776 322.539 145.119 321.99 146.511L321.216 148.598L320.824 149.578L320.51 150.636C320.304 151.332 320.089 152.028 319.863 152.714L319.383 154.821L319.128 155.87L318.981 156.928C318.893 157.634 318.717 158.339 318.678 159.045C318.379 161.898 318.418 164.776 318.795 167.62C319.158 170.588 319.848 173.506 320.853 176.322Z" fill="#E6E6E6"/>
<path d="M316.718 175.127L302.674 162.632L304.752 179.595L316.718 175.127Z" fill="#E6E6E6"/>
<path d="M289.65 172.843H330.398L325.057 203.116H294.991L289.65 172.843Z" fill="#F5F5F5"/>
<path d="M315.11 172.843H330.398L325.057 203.116H317.031L315.11 172.843Z" fill="#EBEBEB"/>
<path d="M366.384 180.811C366.576 179.472 366.52 178.11 366.218 176.793C365.958 175.532 365.554 174.305 365.012 173.137C363.914 170.794 362.521 168.601 360.867 166.61C360.494 166.071 360.014 165.63 359.593 165.111C359.171 164.592 358.74 164.131 358.289 163.612C357.309 162.632 356.466 161.652 355.496 160.672C354.526 159.692 353.595 158.712 352.615 157.732C351.635 156.752 350.655 155.772 349.675 154.703C350.998 155.203 352.252 155.821 353.526 156.448C354.763 157.127 355.963 157.87 357.123 158.672C357.708 159.073 358.271 159.505 358.809 159.966C359.357 160.417 359.896 160.887 360.435 161.348C361.48 162.334 362.462 163.384 363.376 164.494C365.257 166.76 366.631 169.403 367.403 172.245C367.775 173.684 367.904 175.174 367.786 176.655C367.719 178.145 367.233 179.585 366.384 180.811Z" fill="#E6E6E6"/>
<path d="M389.297 176.704C388.264 175.814 387.5 174.654 387.092 173.353C386.865 172.683 386.717 171.989 386.651 171.285C386.631 170.926 386.631 170.566 386.651 170.207C386.639 169.848 386.672 169.489 386.749 169.139C387.324 166.351 388.781 163.822 390.904 161.926C391.394 161.446 391.953 161.064 392.472 160.632C392.989 160.203 393.539 159.816 394.118 159.476C394.687 159.143 395.255 158.8 395.843 158.496C396.127 158.339 396.412 158.163 396.715 158.026L397.617 157.643C398.225 157.389 398.832 157.153 399.44 156.918C400.044 156.674 400.667 156.477 401.302 156.33C402.564 156.001 403.843 155.74 405.134 155.546C404.12 156.349 403.064 157.095 401.968 157.781C401.429 158.104 400.92 158.467 400.41 158.839C399.9 159.211 399.43 159.545 398.862 159.888C397.793 160.525 396.902 161.338 395.922 162.024C395.432 162.367 394.967 162.744 394.53 163.151C394.079 163.543 393.55 163.896 393.178 164.307C391.48 165.808 390.141 167.67 389.258 169.756C389.071 170.281 388.92 170.818 388.807 171.363C388.716 171.931 388.671 172.504 388.669 173.078C388.669 174.314 388.881 175.541 389.297 176.704Z" fill="#E6E6E6"/>
<path d="M388.248 176.704C386.478 174.399 385.514 171.575 385.504 168.668C385.463 165.691 386.221 162.757 387.699 160.172L388.875 158.31C389.326 157.732 389.806 157.183 390.286 156.634L391.021 155.821L391.825 155.115L393.471 153.733C394.635 152.926 395.842 152.183 397.088 151.509C398.366 150.929 399.674 150.419 401.008 149.98C400.028 151.019 399.048 151.94 397.999 152.822C396.95 153.704 396.098 154.713 395.177 155.644C394.745 156.154 394.324 156.624 393.883 157.124L393.226 157.839L392.668 158.623C392.295 159.143 391.884 159.603 391.521 160.152L390.541 161.769C389.299 163.95 388.459 166.337 388.062 168.815C387.656 171.435 387.719 174.107 388.248 176.704Z" fill="#E6E6E6"/>
<path d="M367.639 178.155C368.452 175.127 369.334 172.206 370.187 169.335C371.039 166.463 371.872 163.533 372.637 160.632C373.401 157.732 374.038 154.811 374.597 151.812C375.155 148.814 375.459 145.932 375.724 142.757C376.754 145.75 377.238 148.903 377.154 152.067C377.036 155.217 376.58 158.345 375.792 161.397C374.993 164.43 373.914 167.383 372.568 170.217C371.253 173.053 369.598 175.719 367.639 178.155Z" fill="#E6E6E6"/>
<path d="M368.658 177.665C369.932 174.725 371.304 171.785 372.656 168.972C374.009 166.16 375.371 163.298 376.674 160.456C377.978 157.614 379.232 154.762 380.398 151.871C381.564 148.98 382.564 145.991 383.544 142.914C383.847 146.167 383.612 149.449 382.848 152.626C382.075 155.785 381.002 158.863 379.644 161.818C378.279 164.75 376.683 167.568 374.871 170.246C373.076 172.938 370.993 175.426 368.658 177.665Z" fill="#E6E6E6"/>
<path d="M364.669 181.399C366.58 178.772 368.589 176.293 370.549 173.813C372.509 171.334 374.469 168.913 376.37 166.414C378.272 163.915 380.134 161.436 381.917 158.868C383.701 156.301 385.328 153.655 386.984 150.852C386.55 154.091 385.586 157.236 384.132 160.162C382.675 163.068 380.942 165.828 378.958 168.404C376.971 170.955 374.786 173.343 372.421 175.548C370.058 177.775 367.459 179.737 364.669 181.399Z" fill="#E6E6E6"/>
<path d="M370.667 177.126C372.539 174.784 374.41 172.569 376.253 170.325C378.095 168.08 379.879 165.856 381.623 163.592C383.368 161.328 384.985 158.996 386.523 156.614C388.062 154.233 389.463 151.714 390.972 149.108C390.752 152.12 390.009 155.072 388.777 157.83C387.55 160.584 386.001 163.182 384.161 165.572C382.339 167.949 380.284 170.139 378.027 172.108C375.806 174.098 373.331 175.786 370.667 177.126Z" fill="#E6E6E6"/>
<path d="M365.875 179.86C366.938 177.734 367.451 175.375 367.364 173C367.235 170.733 366.655 168.514 365.659 166.473L365.326 165.679L364.904 164.915L364.081 163.367C363.425 162.387 362.837 161.338 362.121 160.329C361.406 159.319 360.759 158.31 360.034 157.3C359.272 156.285 358.563 155.232 357.907 154.145C359.034 154.765 360.127 155.445 361.18 156.183C362.208 156.966 363.19 157.806 364.12 158.702C364.585 159.157 365.021 159.641 365.424 160.152C365.842 160.655 366.254 161.165 366.659 161.681L367.707 163.376L368.207 164.239L368.619 165.16C369.814 167.644 370.257 170.424 369.893 173.157C369.719 174.49 369.272 175.773 368.581 176.926C367.89 178.08 366.968 179.078 365.875 179.86Z" fill="#E6E6E6"/>
<path d="M367.697 176.734C368.503 174.305 369.055 171.799 369.344 169.256C369.608 166.886 369.432 164.487 368.824 162.181C368.519 161.044 368.092 159.943 367.55 158.898C367.011 157.82 366.375 156.793 365.649 155.83C364.089 153.792 362.379 151.872 360.533 150.088C363.159 150.865 365.566 152.248 367.56 154.125C368.6 155.082 369.503 156.176 370.245 157.379C371.01 158.593 371.591 159.914 371.97 161.299C372.708 164.069 372.664 166.99 371.843 169.737C371.1 172.393 369.67 174.807 367.697 176.734Z" fill="#E6E6E6"/>
<path d="M372.49 174.411L387.817 159.692L387.199 174.127L372.49 174.411Z" fill="#E6E6E6"/>
<path d="M355.722 172.843H396.47L391.129 203.116H361.063L355.722 172.843Z" fill="#F5F5F5"/>
<path d="M381.172 172.843H396.47L391.129 203.116H383.103L381.172 172.843Z" fill="#EBEBEB"/>
<path d="M101.793 35.0057V193.766C101.793 200.368 99.1704 206.7 94.5022 211.368C89.8341 216.036 83.5027 218.658 76.9009 218.658H192.541C199.144 218.658 205.476 216.036 210.146 211.368C214.816 206.7 217.441 200.369 217.443 193.766V35.0057H101.793Z" fill="#F5F5F5"/>
<path d="M199.294 75.1957H124.568V149.921H199.294V75.1957Z" fill="#F0F0F0"/>
<path d="M197 72.8927H122.275V147.618H197V72.8927Z" fill="white"/>
<path d="M140.621 158.682H121.618V177.684H140.621V158.682Z" fill="white"/>
<path d="M196.991 158.682H177.988V177.684H196.991V158.682Z" fill="white"/>
<path d="M168.805 158.682H149.803V177.684H168.805V158.682Z" fill="white"/>
<path d="M217.463 35.0057H101.793V53.9002H217.463V35.0057Z" fill="#F0F0F0"/>
<path d="M108.78 28.9395V41.0719C108.779 41.5163 108.866 41.9565 109.035 42.3673C109.204 42.7781 109.453 43.1513 109.768 43.4655C110.082 43.7798 110.455 44.0288 110.866 44.1982C111.277 44.3677 111.717 44.4542 112.161 44.4529C112.605 44.4529 113.045 44.3655 113.455 44.1956C113.865 44.0257 114.238 43.7766 114.552 43.4627C114.866 43.1487 115.115 42.776 115.285 42.3658C115.455 41.9556 115.542 41.5159 115.542 41.0719V28.9395C115.54 28.0436 115.183 27.1851 114.549 26.5516C113.916 25.9181 113.057 25.5611 112.161 25.5585C111.265 25.5585 110.405 25.9147 109.771 26.5487C109.137 27.1828 108.78 28.0428 108.78 28.9395Z" fill="#E6E6E6"/>
<path d="M203.762 28.9395V41.0719C203.762 41.9686 204.119 42.8286 204.753 43.4627C205.387 44.0967 206.247 44.4529 207.143 44.4529C207.588 44.4542 208.028 44.3677 208.439 44.1982C208.85 44.0288 209.223 43.7798 209.537 43.4655C209.851 43.1513 210.1 42.7781 210.27 42.3673C210.439 41.9565 210.526 41.5163 210.524 41.0719V28.9395C210.524 28.0428 210.168 27.1828 209.534 26.5487C208.9 25.9147 208.04 25.5585 207.143 25.5585C206.248 25.5611 205.389 25.9181 204.756 26.5516C204.122 27.1851 203.765 28.0436 203.762 28.9395Z" fill="#E6E6E6"/>
<path d="M184.76 28.9395V41.0719C184.76 41.5159 184.847 41.9556 185.017 42.3658C185.187 42.776 185.436 43.1487 185.75 43.4627C186.064 43.7766 186.437 44.0257 186.847 44.1956C187.257 44.3655 187.697 44.453 188.141 44.453C188.585 44.453 189.025 44.3655 189.435 44.1956C189.845 44.0257 190.218 43.7766 190.532 43.4627C190.846 43.1487 191.095 42.776 191.265 42.3658C191.435 41.9556 191.522 41.5159 191.522 41.0719V28.9395C191.519 28.047 191.165 27.1914 190.536 26.5585C189.907 25.9255 189.053 25.5662 188.161 25.5585C187.715 25.5572 187.274 25.6436 186.862 25.8128C186.45 25.9821 186.076 26.2307 185.76 26.5447C185.444 26.8587 185.193 27.2317 185.022 27.6426C184.85 28.0535 184.761 28.4942 184.76 28.9395Z" fill="#E6E6E6"/>
<path d="M165.758 28.9395V41.0719C165.757 41.5163 165.843 41.9565 166.013 42.3673C166.182 42.7781 166.431 43.1513 166.745 43.4655C167.059 43.7798 167.433 44.0288 167.843 44.1982C168.254 44.3677 168.694 44.4542 169.139 44.4529C170.03 44.4452 170.881 44.0852 171.507 43.4517C172.133 42.8182 172.483 41.9627 172.481 41.0719V28.9395C172.481 28.0445 172.126 27.186 171.494 26.5522C170.862 25.9184 170.004 25.5611 169.109 25.5585C168.218 25.5662 167.365 25.9259 166.738 26.5591C166.11 27.1923 165.758 28.0479 165.758 28.9395Z" fill="#E6E6E6"/>
<path d="M146.756 28.9395V41.0719C146.754 41.5155 146.841 41.9549 147.009 42.365C147.178 42.7752 147.426 43.148 147.74 43.4621C148.053 43.7762 148.425 44.0254 148.834 44.1954C149.244 44.3654 149.683 44.4529 150.127 44.4529C150.571 44.4542 151.011 44.3677 151.422 44.1982C151.833 44.0288 152.206 43.7798 152.52 43.4655C152.835 43.1513 153.084 42.7781 153.253 42.3673C153.423 41.9565 153.509 41.5163 153.508 41.0719V28.9395C153.508 28.0428 153.152 27.1828 152.518 26.5487C151.884 25.9147 151.024 25.5585 150.127 25.5585C149.232 25.5611 148.374 25.9184 147.742 26.5522C147.11 27.186 146.756 28.0445 146.756 28.9395Z" fill="#E6E6E6"/>
<path d="M127.743 28.9395V41.0719C127.743 41.5159 127.831 41.9556 128.001 42.3658C128.171 42.776 128.42 43.1487 128.734 43.4627C129.048 43.7766 129.42 44.0257 129.831 44.1956C130.241 44.3655 130.68 44.4529 131.124 44.4529C131.568 44.4529 132.008 44.3655 132.418 44.1956C132.828 44.0257 133.201 43.7766 133.515 43.4627C133.829 43.1487 134.078 42.776 134.248 42.3658C134.418 41.9556 134.505 41.5159 134.505 41.0719V28.9395C134.503 28.0436 134.146 27.1851 133.512 26.5516C132.879 25.9181 132.02 25.5611 131.124 25.5585C130.229 25.5611 129.37 25.9181 128.737 26.5516C128.103 27.1851 127.746 28.0436 127.743 28.9395Z" fill="#E6E6E6"/>
<path d="M182.153 208.192C182.153 210.955 183.251 213.605 185.204 215.558C187.158 217.512 189.808 218.609 192.571 218.609H62.4165C59.6536 218.609 57.0039 217.512 55.0502 215.558C53.0966 213.605 51.999 210.955 51.999 208.192H182.153Z" fill="#E6E6E6"/>
<path d="M245.001 365.11C349.942 365.11 435.014 360.143 435.014 354.016C435.014 347.89 349.942 342.923 245.001 342.923C140.06 342.923 54.988 347.89 54.988 354.016C54.988 360.143 140.06 365.11 245.001 365.11Z" fill="#F5F5F5"/>
<path opacity="0.2" d="M264.199 260.416C264.199 260.416 192.179 302.939 192.179 343.227H336.239C336.229 302.939 264.199 260.416 264.199 260.416Z" fill="#2C9B9B"/>
<path opacity="0.2" d="M264.199 311.151C264.199 311.151 197.696 327.625 197.696 343.227H330.702C330.702 327.625 264.199 311.151 264.199 311.151Z" fill="#2C9B9B"/>
<path opacity="0.3" d="M272.941 272.157C286.465 285.456 312.748 314.924 312.748 343.227H294.726C294.726 314.924 280.34 285.456 272.941 272.157Z" fill="white"/>
<path opacity="0.2" d="M264.199 260.416C264.199 260.416 192.179 217.894 192.179 177.606H336.239C336.229 217.894 264.199 260.416 264.199 260.416Z" fill="#2C9B9B"/>
<path opacity="0.2" d="M264.199 256.536C264.199 256.536 227.429 238.896 227.429 222.137H300.979C300.979 238.866 264.199 256.536 264.199 256.536Z" fill="#2C9B9B"/>
<path opacity="0.3" d="M256.349 248.676C242.835 235.377 216.581 205.909 216.581 177.606H234.603C234.564 205.909 248.921 235.377 256.349 248.676Z" fill="white"/>
<path opacity="0.3" d="M272.941 248.676C286.465 235.377 312.092 202.498 312.748 177.606H307.946C305.692 207.957 283.642 235.808 272.941 248.676Z" fill="white"/>
<path d="M326.449 163.386H318.286V164.366H326.449V163.386Z" fill="#2C9B9B"/>
<path d="M354.163 176.851H353.183C353.181 173.543 351.866 170.37 349.527 168.029C347.188 165.689 344.017 164.371 340.708 164.366H332.094V163.386H340.708C344.276 163.394 347.695 164.815 350.217 167.339C352.739 169.863 354.158 173.284 354.163 176.851Z" fill="#2C9B9B"/>
<path d="M340.698 166.816H187.7C182.158 166.816 177.665 171.309 177.665 176.852V178.361C177.665 183.903 182.158 188.396 187.7 188.396H340.698C346.24 188.396 350.733 183.903 350.733 178.361V176.852C350.733 171.309 346.24 166.816 340.698 166.816Z" fill="#1DA5A7"/>
<path d="M340.698 332.437H187.7C182.158 332.437 177.665 336.93 177.665 342.472V343.981C177.665 349.524 182.158 354.017 187.7 354.017H340.698C346.24 354.017 350.733 349.524 350.733 343.981V342.472C350.733 336.93 346.24 332.437 340.698 332.437Z" fill="#1DA5A7"/>
<path d="M137.906 244.531L131.262 238.631L142.591 221.236L149.235 227.126L137.906 244.531Z" fill="#FF8B7B"/>
<path d="M132.634 234.887L141.081 240.767C141.154 240.812 141.216 240.871 141.265 240.94C141.315 241.009 141.35 241.088 141.369 241.171C141.388 241.253 141.391 241.339 141.377 241.423C141.363 241.507 141.332 241.587 141.287 241.659L137.054 248.637C136.81 248.988 136.438 249.228 136.018 249.307C135.598 249.386 135.164 249.297 134.809 249.058C131.869 246.971 130.782 245.952 127.263 243.11C123.786 240.377 120.45 237.469 117.267 234.397C114.661 231.692 117.414 229.076 118.796 230.007C122.06 232.222 127.734 234.662 131.017 234.466C131.588 234.421 132.157 234.569 132.634 234.887Z" fill="#263238"/>
<path opacity="0.2" d="M149.225 227.135L142.581 221.236L137.132 229.615L143.943 235.269L149.225 227.135Z" fill="black"/>
<path d="M216.826 140.238C216.826 140.238 172.236 137.191 166.709 152.302C154.135 186.661 137.779 223.108 137.779 223.108L150.921 232.623C150.921 232.623 178.704 190.14 187.181 162.867C204.331 167.032 235.338 170.589 245.324 159.123C253.85 149.323 247.471 140.238 247.471 140.238H216.826Z" fill="#263238"/>
<path opacity="0.3" d="M178.635 166.944C177.596 171.138 176.019 183.153 175.039 191.12C177.204 186.926 179.262 182.673 181.115 178.517L178.635 166.944Z" fill="black"/>
<path d="M150.078 236.926L135.172 225.244L138.22 218.698L154.88 231.428L150.078 236.926Z" fill="#1DA5A7"/>
<path d="M129.057 234.348C129.748 234.798 130.483 235.176 131.252 235.475C131.29 235.489 131.331 235.491 131.371 235.482C131.41 235.473 131.446 235.453 131.475 235.424C131.504 235.396 131.524 235.359 131.533 235.32C131.542 235.28 131.54 235.239 131.526 235.201C131.399 234.868 130.282 231.938 129.116 231.653C128.982 231.623 128.842 231.626 128.71 231.664C128.579 231.702 128.458 231.772 128.361 231.869C128.197 231.999 128.07 232.169 127.993 232.364C127.915 232.558 127.89 232.769 127.92 232.976C128.118 233.557 128.523 234.046 129.057 234.348ZM130.948 234.887C129.409 234.221 128.449 233.486 128.341 232.927C128.324 232.791 128.345 232.652 128.4 232.527C128.455 232.401 128.543 232.292 128.655 232.212C128.7 232.163 128.758 232.128 128.821 232.109C128.885 232.09 128.953 232.088 129.017 232.104C129.645 232.261 130.458 233.721 130.948 234.887Z" fill="#1DA5A7"/>
<path d="M131.203 235.446C131.235 235.455 131.269 235.455 131.301 235.446C131.338 235.45 131.375 235.445 131.409 235.431C131.443 235.417 131.473 235.396 131.497 235.367C131.566 235.289 133.232 233.241 132.987 231.977C132.954 231.815 132.885 231.663 132.785 231.532C132.685 231.401 132.556 231.295 132.408 231.222C132.258 231.128 132.081 231.085 131.904 231.101C131.727 231.117 131.56 231.191 131.428 231.31C130.684 232.006 130.713 234.358 131.154 235.328C131.161 235.371 131.177 235.411 131.203 235.446ZM132.291 231.692C132.362 231.739 132.423 231.8 132.47 231.871C132.517 231.941 132.549 232.021 132.565 232.104C132.712 232.849 131.918 234.133 131.399 234.838C131.125 233.858 131.213 232.114 131.693 231.663C131.791 231.575 131.928 231.487 132.212 231.663L132.291 231.692Z" fill="#1DA5A7"/>
<path d="M196.491 254.811L187.916 256.526L186.328 233.564L195.04 233.839L196.491 254.811Z" fill="#FF8B7B"/>
<path d="M186.75 253.39L196.55 249.264C196.63 249.224 196.717 249.202 196.806 249.196C196.895 249.191 196.985 249.204 197.069 249.235C197.153 249.265 197.23 249.312 197.296 249.372C197.362 249.433 197.414 249.506 197.451 249.587L201.195 257.114C201.366 257.521 201.371 257.979 201.208 258.39C201.044 258.8 200.727 259.13 200.323 259.309C196.893 260.691 195.187 261.171 190.885 262.994C188.239 264.111 181.085 267.345 177.263 268.296C173.441 269.246 172.579 265.414 174.127 264.67C177.792 262.906 183.868 257.525 185.505 254.556C185.784 254.044 186.22 253.635 186.75 253.39Z" fill="#263238"/>
<path d="M184.309 256.212C185.082 255.859 185.814 255.426 186.495 254.919C186.529 254.892 186.555 254.858 186.57 254.818C186.586 254.778 186.59 254.735 186.583 254.693C186.572 254.652 186.549 254.615 186.518 254.585C186.487 254.556 186.448 254.536 186.407 254.527C186.054 254.448 182.879 253.811 181.987 254.674C181.885 254.772 181.811 254.895 181.771 255.031C181.732 255.166 181.728 255.31 181.761 255.448C181.783 255.66 181.861 255.862 181.987 256.034C182.112 256.206 182.282 256.342 182.477 256.428C183.093 256.585 183.746 256.509 184.309 256.212ZM185.809 254.86C184.388 255.84 183.222 256.261 182.643 256.036C182.514 255.977 182.404 255.883 182.325 255.766C182.245 255.648 182.199 255.511 182.193 255.369C182.174 255.303 182.173 255.232 182.19 255.165C182.207 255.098 182.242 255.036 182.291 254.987C182.771 254.527 184.535 254.644 185.809 254.86Z" fill="#1DA5A7"/>
<path d="M186.446 254.948C186.479 254.931 186.509 254.907 186.534 254.879C186.55 254.847 186.559 254.812 186.559 254.776C186.559 254.741 186.55 254.705 186.534 254.674C186.534 254.566 185.632 251.979 184.397 251.498C184.239 251.435 184.067 251.41 183.897 251.425C183.727 251.441 183.562 251.496 183.417 251.587C183.246 251.663 183.105 251.796 183.019 251.964C182.934 252.132 182.908 252.324 182.947 252.508C183.143 253.488 185.211 254.811 186.299 254.958C186.347 254.974 186.4 254.97 186.446 254.948ZM183.77 251.92C183.851 251.886 183.938 251.868 184.025 251.868C184.113 251.868 184.199 251.886 184.28 251.92C185.015 252.204 185.691 253.605 186.024 254.448C185.044 254.125 183.545 253.115 183.417 252.429C183.417 252.302 183.417 252.135 183.682 251.979L183.77 251.92Z" fill="#1DA5A7"/>
<path opacity="0.2" d="M195.05 233.848L186.328 233.564L187.161 245.559L195.844 245.403L195.05 233.848Z" fill="black"/>
<path d="M238.484 140.239C238.484 140.239 174.784 146.266 177.077 165.444C180.428 193.11 182.878 241.551 182.878 241.551L199.117 242.188C199.117 242.188 205.213 199.597 201.646 171.265C218.139 171.265 253.968 172.138 260.269 163.612C267.747 153.498 264.287 140.239 264.287 140.239H238.484Z" fill="#263238"/>
<path d="M200.911 243.188L181.418 242.218L180.723 233.741L202.097 235.211L200.911 243.188Z" fill="#1DA5A7"/>
<path d="M224.343 84.0745C224.205 85.8288 224.049 87.387 223.833 89.0236C223.617 90.6602 223.412 92.2576 223.157 93.8746C222.686 97.0988 222.04 100.303 221.314 103.528C220.589 106.752 219.697 109.966 218.58 113.21C217.446 116.623 215.958 119.907 214.141 123.01C213.056 124.836 211.738 126.512 210.221 127.998C209.819 128.374 209.397 128.727 208.956 129.057C208.555 129.39 208.153 129.674 207.741 129.958C206.958 130.511 206.143 131.018 205.301 131.477C202.193 133.168 198.906 134.506 195.501 135.466C193.884 135.966 192.257 136.368 190.601 136.73C188.945 137.093 187.367 137.406 185.701 137.661C182.458 138.192 179.185 138.519 175.901 138.641C175.091 138.675 174.297 138.415 173.664 137.909C173.032 137.402 172.604 136.684 172.461 135.886C172.317 135.088 172.468 134.266 172.884 133.571C173.3 132.875 173.954 132.355 174.725 132.105L174.852 132.056C180.599 130.238 186.237 128.091 191.738 125.627C194.267 124.482 196.688 123.111 198.97 121.53C199.49 121.158 199.95 120.776 200.421 120.393C200.636 120.207 200.862 120.021 201.048 119.825C201.222 119.669 201.385 119.502 201.538 119.325C202.188 118.539 202.747 117.681 203.204 116.767C204.393 114.352 205.348 111.829 206.056 109.231C206.849 106.477 207.535 103.606 208.104 100.686C208.672 97.7652 209.182 94.8056 209.662 91.8068C210.142 88.808 210.505 85.7504 210.838 82.9084V82.7417C211.083 81.0232 211.983 79.4659 213.349 78.3949C214.716 77.3239 216.443 76.822 218.17 76.994C219.898 77.1659 221.492 77.9985 222.62 79.3179C223.748 80.6372 224.323 82.3414 224.225 84.0745H224.343Z" fill="#1DA5A7"/>
<path d="M176.224 130.34L171.324 130.644L175.244 139.66C175.244 139.66 183.721 139.474 183.545 135.299L182.016 133.339C181.316 132.46 180.439 131.738 179.441 131.221C178.442 130.704 177.346 130.404 176.224 130.34Z" fill="#FF8B7B"/>
<path d="M165.954 131.389L170.187 139.68H175.234L171.314 130.664L165.954 131.389Z" fill="#FF8B7B"/>
<path d="M223.637 70.1781L233.113 68.2181L240.659 67.1302C241.738 66.954 242.833 66.9047 243.923 66.9832C246.819 67.2459 249.566 68.3858 251.796 70.2507C254.027 72.1157 255.636 74.6169 256.408 77.4203C258.3 84.2803 260.005 92.6985 261.308 100.156C263.131 110.515 264.072 126.077 264.248 140.229H219.354C218.374 114.602 212.925 98.0886 211.073 87.8475C210.515 84.7558 210.989 81.5664 212.422 78.7703C213.854 75.9743 216.166 73.7266 219.001 72.3733L223.637 70.1781Z" fill="#1DA5A7"/>
<path d="M219.354 75.8132C219.462 80.0272 220.334 95.0506 224.852 103.586C225.646 95.5896 235.142 71.2463 235.142 71.2463L219.354 75.8132Z" fill="#F5F5F5"/>
<path opacity="0.3" d="M262.337 107.193C262.337 107.036 262.337 106.889 262.278 106.722L262.19 106.017C262.141 105.635 262.092 105.252 262.043 104.89L261.896 103.841L261.749 102.861C261.749 102.587 261.661 102.303 261.622 102.038C261.524 101.411 261.426 100.803 261.318 100.205C260.995 98.3727 260.652 96.4715 260.279 94.5605V94.4037C259.907 92.4437 259.525 90.5523 259.113 88.6413V88.5139C258.946 87.6907 258.77 86.8871 258.584 86.0737L258.378 85.1721L258.025 83.6139L257.731 82.3987L257.672 82.1439C257.28 80.5367 256.879 78.9589 256.467 77.4693L249.656 73.8824C250.44 76.8911 251.185 80.2035 251.89 83.5943C251.075 84.0209 250.323 84.5584 249.656 85.1917C248.029 86.6421 248.088 89.7291 249.715 93.3845C254.218 103.837 256.712 115.045 257.065 126.42C257.271 131.036 257.398 135.711 257.457 140.248H264.317C264.121 129.008 263.494 116.895 262.337 107.193Z" fill="black"/>
<path d="M229.585 51.2935L225.734 57.1735L220.501 65.1605C221.174 65.8467 221.722 66.6462 222.118 67.5223C223.098 69.4823 223.862 70.8935 219.815 73.6473C218.952 74.2353 218.923 75.1663 219.119 76.1954C219.354 77.4498 220.099 78.763 224.45 77.9888C228.655 77.1798 232.493 75.0515 235.407 71.9127C236.857 70.4525 236.524 69.3647 235.122 67.8555C231.163 63.5925 229.977 56.7815 229.585 51.2935Z" fill="#FF8B7B"/>
<path d="M220.334 78.1357L223.108 79.8801L227.616 77.9691C226.553 76.8964 225.183 76.1807 223.696 75.9209C222.4 76.3507 221.24 77.1147 220.334 78.1357Z" fill="#263238"/>
<path d="M223.647 75.9209C225.715 76.7735 226.753 78.6943 227.694 80.9091C227.694 80.9091 237.602 73.4023 237.808 68.4533C237.279 66.7677 234.799 67.0617 234.799 67.0617C234.799 67.0617 231.781 72.2949 223.647 75.9209Z" fill="white"/>
<path d="M223.647 75.9209C222.681 76.3119 221.86 76.9934 221.298 77.8713C220.736 78.7491 220.461 79.7799 220.511 80.821C220.511 80.821 216.101 75.6465 219.688 71.7363C220.661 71.2257 221.695 70.8405 222.765 70.5897C222.765 70.5897 221.687 72.7457 223.647 75.9209Z" fill="white"/>
<path d="M223.98 79.0667H222.716C222.304 79.7723 221.736 88.9646 221.51 93.8548C222.116 96.7098 223.006 99.4971 224.166 102.175C224.162 102.208 224.162 102.241 224.166 102.273C224.235 102.43 224.303 102.577 224.382 102.724C224.519 103.018 224.656 103.312 224.813 103.586C225.266 100.551 225.97 97.5576 226.92 94.6388C225.626 88.9744 223.98 79.0667 223.98 79.0667Z" fill="#263238"/>
<path opacity="0.2" d="M221.795 63.1907L225.009 57.4968C225.068 57.634 225.146 57.8006 225.225 57.9574C225.506 58.6681 225.736 59.3986 225.911 60.1428C226.499 62.681 224.539 66.2875 222.373 67.9829C222.285 67.8261 222.206 67.6595 222.118 67.4929C221.732 66.6701 221.234 65.9049 220.638 65.2193L220.511 65.1213L221.795 63.1907Z" fill="black"/>
<path d="M206.134 50.9602C205.36 47.4812 210.897 42.6694 210.897 42.6694L204.341 40.386C201.381 42.5126 203.302 48.5788 206.134 50.9602Z" fill="#263238"/>
<path d="M228.223 40.9053C229.772 49.6078 231.163 54.6254 227.89 60.182C226.864 62.0065 225.359 63.5158 223.537 64.5465C221.716 65.5771 219.647 66.0899 217.555 66.0294C215.462 65.9688 213.427 65.3372 211.667 64.2029C209.908 63.0686 208.493 61.4748 207.575 59.594C203.9 52.4204 201.989 39.4059 209.466 33.6925C211.051 32.4149 212.943 31.5763 214.954 31.2606C216.965 30.945 219.023 31.1633 220.923 31.8939C222.823 32.6244 224.497 33.8415 225.779 35.4231C227.06 37.0047 227.903 38.8952 228.223 40.9053Z" fill="#FF8B7B"/>
<path d="M228.341 49.7057L224.225 48.5787V43.2867C224.225 43.2867 219.021 40.3467 219.825 36.6717C220.223 34.6056 220.784 32.574 221.5 30.5957C221.5 30.5957 229.752 30.0665 232.28 31.1249C231.626 31.8344 230.914 32.4899 230.154 33.0849C232.132 34.4538 233.829 36.1905 235.152 38.2005C234.119 38.4307 233.153 38.8969 232.329 39.5627C232.329 39.5627 233.407 46.8245 228.341 49.7057Z" fill="#263238"/>
<path d="M218.874 24.9509C221.902 26.8521 220.148 30.3409 220.148 30.3409L228.253 30.5075C227.821 27.9497 220.795 24.8235 218.874 24.9509Z" fill="#263238"/>
<path d="M222.039 38.4553C221.461 40.0821 214.895 42.0814 208.907 42.2774C205.923 42.2126 202.969 41.6563 200.166 40.6309C201.011 39.7627 202.007 39.0554 203.106 38.5435C199.489 37.6517 194.913 34.4765 193.649 31.8893C196.289 30.9457 199.141 30.7623 201.881 31.3601C200.984 30.6033 200.248 29.6753 199.714 28.6303C199.181 27.5853 198.861 26.4443 198.774 25.2743C198.774 25.2743 214.101 31.3503 220.001 28.8317C226.41 26.0877 231.281 31.2327 227.067 35.1527C222.853 39.0727 222.039 38.4553 222.039 38.4553Z" fill="#263238"/>
<path d="M232.908 47.2067C232.991 49.1261 232.367 51.0093 231.154 52.4988C229.566 54.3902 227.096 52.881 226.528 50.5388C226.018 48.4121 226.685 45.1291 228.772 44.1099C230.86 43.0907 232.8 44.8253 232.908 47.2067Z" fill="#FF8B7B"/>
<path d="M214.974 49.0001C215.189 49.6861 214.974 50.3623 214.582 50.5289C214.19 50.6955 213.602 50.2643 213.376 49.5489C213.151 48.8335 213.376 48.1867 213.768 48.0201C214.16 47.8535 214.748 48.2749 214.974 49.0001Z" fill="#263238"/>
<path d="M207.379 51.7442C207.594 52.4204 207.379 53.1064 206.987 53.2632C206.595 53.42 206.007 53.0084 205.781 52.2832C205.556 51.558 205.781 50.921 206.173 50.7642C206.565 50.6074 207.153 51.0582 207.379 51.7442Z" fill="#263238"/>
<path d="M209.976 51.3816C210.008 53.4097 209.77 55.4331 209.27 57.3988C209.767 57.5046 210.282 57.4988 210.777 57.3819C211.272 57.265 211.734 57.0398 212.132 56.7226L209.976 51.3816Z" fill="#A02724"/>
<path d="M214.621 59.3393C215.408 59.0754 216.134 58.6569 216.757 58.1082C217.379 57.5595 217.886 56.8919 218.247 56.1444C218.266 56.0924 218.265 56.0347 218.243 55.9836C218.221 55.9325 218.18 55.8918 218.129 55.87C218.104 55.8587 218.077 55.8526 218.05 55.8519C218.022 55.8512 217.995 55.856 217.969 55.8661C217.944 55.8761 217.92 55.8912 217.901 55.9104C217.881 55.9296 217.865 55.9525 217.855 55.9778C217.457 56.7883 216.878 57.4963 216.162 58.0469C215.447 58.5976 214.614 58.9761 213.729 59.153C213.702 59.1588 213.676 59.17 213.653 59.1861C213.63 59.2022 213.61 59.2228 213.596 59.2467C213.581 59.2705 213.571 59.2971 213.567 59.3248C213.563 59.3525 213.565 59.3808 213.572 59.4079C213.584 59.4611 213.616 59.5075 213.662 59.5369C213.708 59.5663 213.764 59.5763 213.817 59.5646C214.09 59.5071 214.358 59.4318 214.621 59.3393Z" fill="#263238"/>
<path d="M216.659 44.9822C216.72 44.9463 216.77 44.8957 216.806 44.8352C216.837 44.7898 216.859 44.7386 216.87 44.6846C216.88 44.6307 216.88 44.5752 216.869 44.5213C216.859 44.4674 216.837 44.4162 216.806 44.3708C216.775 44.3254 216.735 44.2867 216.689 44.257C216.138 43.8884 215.505 43.6599 214.846 43.5916C214.187 43.5233 213.521 43.6171 212.906 43.865C212.856 43.8888 212.811 43.9223 212.773 43.9635C212.736 44.0047 212.707 44.0528 212.689 44.1051C212.67 44.1575 212.662 44.213 212.665 44.2684C212.667 44.3239 212.681 44.3783 212.705 44.4285C212.729 44.4787 212.762 44.5237 212.803 44.561C212.845 44.5982 212.893 44.627 212.945 44.6457C212.997 44.6643 213.053 44.6725 213.108 44.6697C213.164 44.6669 213.218 44.6532 213.268 44.6294C213.749 44.4429 214.267 44.3759 214.779 44.4339C215.292 44.4919 215.782 44.6734 216.208 44.9626C216.274 45.0083 216.351 45.0344 216.431 45.0378C216.511 45.0413 216.59 45.022 216.659 44.9822Z" fill="#263238"/>
<path d="M205.869 47.6184C205.888 47.5511 205.888 47.4799 205.869 47.4126C205.826 47.3103 205.744 47.2292 205.641 47.187C205.539 47.1448 205.423 47.1449 205.321 47.1872C204.703 47.4269 204.155 47.8153 203.724 48.3179C203.293 48.8206 202.993 49.4219 202.851 50.0684C202.848 50.17 202.883 50.269 202.947 50.3474C203.012 50.4257 203.103 50.478 203.203 50.4947C203.303 50.5114 203.406 50.4914 203.493 50.4382C203.579 50.3851 203.644 50.3025 203.674 50.2057C203.796 49.7015 204.038 49.2342 204.379 48.8436C204.721 48.4529 205.151 48.1503 205.634 47.9614C205.7 47.9295 205.756 47.8811 205.797 47.821C205.838 47.7609 205.863 47.6911 205.869 47.6184Z" fill="#263238"/>
<path d="M254.321 73.2063C255.399 74.5391 256.34 75.7445 257.261 77.0283C258.182 78.3121 259.143 79.5861 260.044 80.8895C261.877 83.4865 263.582 86.1815 265.248 88.9256C266.914 91.6696 268.462 94.5312 269.854 97.5594C271.364 100.701 272.563 103.983 273.431 107.359C273.919 109.322 274.175 111.335 274.195 113.357C274.171 115.379 273.881 117.389 273.333 119.335C272.357 122.724 270.933 125.967 269.099 128.978C268.257 130.419 267.345 131.801 266.395 133.134C265.444 134.466 264.435 135.76 263.455 137.005C261.409 139.507 259.185 141.859 256.8 144.041C256.204 144.573 255.437 144.874 254.638 144.892C253.839 144.91 253.059 144.642 252.44 144.137C251.82 143.632 251.401 142.922 251.257 142.136C251.114 141.35 251.255 140.538 251.655 139.847L251.743 139.7C254.787 134.762 257.447 129.599 259.701 124.255C260.713 121.846 261.449 119.331 261.896 116.758C262.06 115.724 262.103 114.675 262.024 113.631C261.906 112.599 261.682 111.581 261.357 110.593C260.51 108.088 259.444 105.661 258.172 103.341C256.869 100.882 255.399 98.4414 253.831 95.962C252.263 93.4826 250.616 91.062 248.931 88.6806L246.353 85.0937C245.491 83.9275 244.589 82.6829 243.776 81.6147L243.717 81.5363C242.613 80.1354 242.11 78.353 242.319 76.5813C242.529 74.8096 243.434 73.1937 244.834 72.0891C246.235 70.9845 248.018 70.4816 249.789 70.6911C251.561 70.9006 253.177 71.8054 254.282 73.2063H254.321Z" fill="#1DA5A7"/>
<path d="M160.946 145.501L244.325 141.728C244.588 141.711 244.851 141.747 245.1 141.834C245.349 141.921 245.578 142.057 245.773 142.235C245.968 142.412 246.125 142.627 246.234 142.867C246.344 143.107 246.405 143.366 246.412 143.629L159.045 147.549C159.033 147.29 159.073 147.03 159.162 146.786C159.252 146.542 159.389 146.318 159.566 146.127C159.743 145.936 159.956 145.783 160.193 145.675C160.43 145.568 160.686 145.509 160.946 145.501Z" fill="#1DA5A7"/>
<g opacity="0.6">
<path d="M160.946 145.501L244.325 141.728C244.588 141.711 244.851 141.747 245.1 141.834C245.349 141.921 245.578 142.057 245.773 142.235C245.968 142.412 246.125 142.627 246.234 142.867C246.344 143.107 246.405 143.366 246.412 143.629L159.045 147.549C159.033 147.29 159.073 147.03 159.162 146.786C159.252 146.542 159.389 146.318 159.566 146.127C159.743 145.936 159.956 145.783 160.193 145.675C160.43 145.568 160.686 145.509 160.946 145.501Z" fill="white"/>
</g>
<path d="M147.677 106.82L206.996 104.135C207.377 104.14 207.747 104.263 208.055 104.485C208.364 104.708 208.596 105.02 208.721 105.38L220.109 141.513C220.17 141.662 220.194 141.824 220.177 141.984C220.161 142.145 220.105 142.299 220.015 142.433C219.925 142.566 219.803 142.676 219.66 142.751C219.518 142.827 219.359 142.866 219.197 142.865L159.878 145.55C159.499 145.547 159.131 145.426 158.824 145.205C158.517 144.984 158.286 144.673 158.163 144.315L146.775 108.173C146.714 108.024 146.691 107.863 146.706 107.703C146.722 107.544 146.777 107.39 146.866 107.257C146.955 107.123 147.076 107.014 147.217 106.938C147.358 106.861 147.516 106.821 147.677 106.82Z" fill="#1DA5A7"/>
<path opacity="0.6" d="M147.677 106.82L206.996 104.135C207.377 104.14 207.747 104.263 208.055 104.485C208.364 104.708 208.596 105.02 208.721 105.38L220.109 141.513C220.17 141.662 220.194 141.824 220.177 141.984C220.161 142.145 220.105 142.299 220.015 142.433C219.925 142.566 219.803 142.676 219.66 142.751C219.518 142.827 219.359 142.866 219.197 142.865L159.878 145.55C159.499 145.547 159.131 145.426 158.824 145.205C158.517 144.984 158.286 144.673 158.163 144.315L146.775 108.173C146.714 108.024 146.691 107.863 146.706 107.703C146.722 107.544 146.777 107.39 146.866 107.257C146.955 107.123 147.076 107.014 147.217 106.938C147.358 106.861 147.516 106.821 147.677 106.82Z" fill="white"/>
<path opacity="0.5" d="M208.741 105.37L220.129 141.503C220.192 141.652 220.217 141.816 220.202 141.977C220.186 142.139 220.131 142.295 220.041 142.43C219.95 142.565 219.828 142.676 219.684 142.751C219.54 142.827 219.38 142.866 219.217 142.865L207.016 104.125C207.397 104.13 207.766 104.253 208.075 104.475C208.384 104.698 208.616 105.01 208.741 105.37Z" fill="#1DA5A7"/>
<path opacity="0.5" d="M222.402 142.718L244.325 141.738C244.588 141.721 244.851 141.757 245.1 141.844C245.349 141.931 245.578 142.067 245.773 142.245C245.968 142.422 246.125 142.637 246.234 142.877C246.344 143.116 246.405 143.376 246.412 143.639L220.501 144.805C220.484 144.542 220.52 144.279 220.607 144.03C220.694 143.781 220.83 143.552 221.008 143.357C221.185 143.163 221.4 143.005 221.64 142.896C221.879 142.786 222.138 142.725 222.402 142.718Z" fill="#1DA5A7"/>
<path d="M250.097 139.435L244.491 140.248L250.234 148.235C250.234 148.235 259.358 146.775 258.3 142.728L256.34 141.101C255.474 140.402 254.47 139.893 253.395 139.606C252.32 139.319 251.196 139.261 250.097 139.435Z" fill="#FF8B7B"/>
<path d="M237.631 142.64L244.658 148.765L250.234 148.235L244.491 140.248L237.631 142.64Z" fill="#FF8B7B"/>
</g>
<defs>
<clipPath id="clip0_236_4036">
<rect width="490" height="366" fill="white"/>
</clipPath>
</defs>
</svg>
