<svg width="101" height="107" viewBox="0 0 101 107" fill="none" xmlns="http://www.w3.org/2000/svg">
<path d="M7.78762 106.221C3.4937 106.221 0 102.731 0 98.4414V30.8508C0 26.5607 3.4937 23.0717 7.78762 23.0717H89.251C93.5411 23.0717 97.0309 26.5615 97.0309 30.8508V98.4414C97.0309 102.731 93.5411 106.221 89.251 106.221H7.78762Z" fill="#D2EDED"/>
<path opacity="0.5" d="M7.78762 106.221C3.4937 106.221 0 102.731 0 98.4414V30.8508C0 26.5607 3.4937 23.0717 7.78762 23.0717H89.251C93.5411 23.0717 97.0309 26.5615 97.0309 30.8508V98.4414C97.0309 102.731 93.5411 106.221 89.251 106.221H7.78762Z" fill="white"/>
<path d="M95.4981 30.8508V98.4406C95.4981 101.89 92.7004 104.688 89.2512 104.688H7.78783C4.33092 104.688 1.5332 101.89 1.5332 98.4406V30.8508C1.5332 27.4016 4.33092 24.6039 7.78783 24.6039H89.2512C92.7004 24.6039 95.4981 27.4016 95.4981 30.8508Z" fill="#D2EDED"/>
<path d="M74.8074 61.9569C88.981 56.0861 95.7116 39.8369 89.8407 25.6634C83.9699 11.4899 67.7207 4.75927 53.5472 10.6301C39.3737 16.501 32.6431 32.7502 38.5139 46.9237C44.3848 61.0972 60.6339 67.8278 74.8074 61.9569Z" fill="#D2EDED"/>
<path opacity="0.6" d="M74.8074 61.9569C88.981 56.0861 95.7116 39.8369 89.8407 25.6634C83.9699 11.4899 67.7207 4.75927 53.5472 10.6301C39.3737 16.501 32.6431 32.7502 38.5139 46.9237C44.3848 61.0972 60.6339 67.8278 74.8074 61.9569Z" fill="white"/>
<path d="M64.1772 58.9016C76.6631 58.9016 86.785 48.7797 86.785 36.2938C86.785 23.8078 76.6631 13.6859 64.1772 13.6859C51.6912 13.6859 41.5693 23.8078 41.5693 36.2938C41.5693 48.7797 51.6912 58.9016 64.1772 58.9016Z" fill="#D2EDED"/>
<path opacity="0.8" d="M64.1772 58.9016C76.6631 58.9016 86.785 48.7797 86.785 36.2938C86.785 23.8078 76.6631 13.6859 64.1772 13.6859C51.6912 13.6859 41.5693 23.8078 41.5693 36.2938C41.5693 48.7797 51.6912 58.9016 64.1772 58.9016Z" fill="white"/>
<path d="M45.2782 83.4042C47.57 84.2121 49.9638 85.0399 52.2917 85.7221C53.4613 86.051 54.6264 86.3637 55.7378 86.5783C56.2897 86.6802 56.8309 86.7607 57.2954 86.7968C57.5322 86.8182 57.7323 86.8152 57.8856 86.8113C57.9676 86.806 57.9821 86.8075 58.0642 86.7975C58.1523 86.7784 58.2443 86.7607 58.3056 86.7408C58.4405 86.7032 58.5164 86.6749 58.531 86.6756C58.5486 86.6756 58.5494 86.7055 58.5915 86.6649C58.6789 86.6013 58.8414 86.1951 58.938 85.6869C59.1534 84.6567 59.2652 83.3475 59.4247 82.0813C59.5856 80.8012 59.762 79.502 59.9681 78.212C60.2012 76.9235 60.4426 75.6381 60.7645 74.3711C60.9477 73.6513 61.679 73.216 62.3987 73.3991C63.0104 73.5547 63.4166 74.1066 63.412 74.7106V74.7168C63.4028 75.9845 63.3714 77.2431 63.3905 78.5025C63.3806 79.7603 63.3997 81.0143 63.4327 82.2874C63.4465 83.5729 63.4994 84.8253 63.3668 86.33C63.2771 87.0804 63.1759 87.9542 62.6225 89.0043C62.3474 89.5186 61.9258 90.0429 61.4383 90.4353C60.9477 90.8316 60.4395 91.0822 59.9773 91.2677C59.7405 91.3643 59.5236 91.4318 59.3044 91.4992C59.0767 91.5628 58.777 91.6318 58.5424 91.6686C58.0618 91.7422 57.6219 91.7729 57.2195 91.7767C56.4055 91.7905 55.6734 91.7261 54.9614 91.638C53.5456 91.4586 52.2173 91.1873 50.9173 90.8554C48.3074 90.2046 45.8416 89.4212 43.3443 88.4355C41.9593 87.889 41.2802 86.3238 41.8267 84.9395C42.3602 83.5874 43.8648 82.9083 45.2245 83.3851L45.2782 83.4042Z" fill="#D9877C"/>
<path d="M41.872 83.5154C46.4028 80.9637 51.0861 85.0606 58.134 86.5454L59.9927 92.071C59.9927 92.071 53.138 93.742 46.5032 90.3449C39.8684 86.9478 41.872 83.5154 41.872 83.5154Z" fill="#D2EDED"/>
<path opacity="0.7" d="M59.9939 92.0718C59.9939 92.0718 59.1431 92.2787 57.7328 92.4014C56.3454 92.5163 54.4368 92.547 52.2906 92.2021C51.2635 92.0411 50.1828 91.7882 49.079 91.4202C48.2282 91.1366 47.362 90.7841 46.5036 90.3472C46.3503 90.2705 46.197 90.1862 46.059 90.1095C39.9654 86.7906 41.8739 83.5177 41.8739 83.5177C46.4039 80.9652 51.0872 85.0583 58.1313 86.553L59.9939 92.0718Z" fill="white"/>
<path d="M57.6085 86.0847L58.6019 85.6448L62.1301 91.1229L60.1119 93.4309C60.1119 93.4309 56.9486 89.0174 57.6093 86.0847H57.6085Z" fill="#D2EDED"/>
<path opacity="0.6" d="M57.6085 86.0847L58.6019 85.6448L62.1301 91.1229L60.1119 93.4309C60.1119 93.4309 56.9486 89.0174 57.6093 86.0847H57.6085Z" fill="white"/>
<path opacity="0.1" d="M49.0789 91.4203C48.2281 91.1367 47.362 90.7841 46.5035 90.3472C46.3502 90.2706 46.1969 90.1862 46.0589 90.1096C45.8673 88.6992 45.783 87.3349 45.852 86.1698C45.852 86.1698 47.7452 88.293 49.0789 91.4203Z" fill="black"/>
<path d="M23.7954 65.2973C23.4934 63.9529 27.575 60.4906 29.9894 60.4025C32.4039 60.3143 31.5431 61.7132 33.0784 61.1781C34.6137 60.6431 36.602 60.4714 37.4551 61.7055C38.3082 62.9396 36.8565 65.3586 38.3956 65.5656C39.9347 65.7725 42.1821 67.071 41.0952 69.1076C40.0091 71.1449 36.0248 75.1805 31.0556 76.525C26.0864 77.8686 23.1998 71.7765 23.196 69.4594C23.196 69.4594 21.4966 69.4042 21.7511 71.2545C22.0056 73.1048 24.578 73.8997 23.9011 75.6864C23.2236 77.4731 22.5414 78.3975 24.3388 79.2813C26.1362 80.165 24.85 82.6631 23.6206 82.7619C23.6206 82.7619 24.197 82.4814 23.711 81.5884C23.2251 80.6955 21.4752 81.9886 19.8525 79.8109C18.229 77.6333 19.9889 76.7971 19.0668 75.9064C18.1447 75.0165 16.739 75.8612 16.0338 73.7042C15.5195 72.1314 17.4281 70.1147 17.7094 68.8308C17.9907 67.5477 16.6585 67.3983 17.1429 65.0911C17.4656 63.555 19.8172 62.9549 21.1302 63.1404C23.4098 63.4631 23.7946 65.2958 23.7946 65.2958L23.7954 65.2973Z" fill="#263238"/>
<path opacity="0.7" d="M41.5045 90.9083C35.8745 86.1935 28.9707 83.1873 28.9707 83.1873C29.3639 83.1191 29.7694 83.0555 30.1756 82.998C33.2324 82.5711 35.7373 82.2445 38.4845 82.2438C39.1758 82.2445 39.8849 82.2622 40.5831 82.2798V82.2852C42.53 86.1315 41.5052 90.9067 41.5052 90.9067L41.5045 90.9083Z" fill="white"/>
<path d="M48.5273 104.688H29.5489C29.0966 102.748 28.5141 100.533 27.8012 98.1647C27.7093 97.8427 27.6096 97.5131 27.5023 97.1835C27.4027 96.854 27.2954 96.5167 27.1881 96.1794V96.1718C27.0578 95.7655 26.9275 95.3516 26.7818 94.93C26.6822 94.6311 26.5825 94.3245 26.4752 94.0179V94.0102C26.4215 93.8646 26.3756 93.7113 26.3296 93.5657C26.0996 92.8988 25.862 92.2243 25.6167 91.5498C25.5631 91.3888 25.5018 91.2355 25.4404 91.0746V91.0669C25.2258 90.469 25.0035 89.8712 24.7659 89.2656C24.26 87.9549 24.1297 86.8282 24.1221 86.0387C24.1221 85.2415 24.237 84.7816 24.237 84.7816C24.237 84.7816 26.9045 83.8465 28.2382 83.4096C28.2918 83.3943 28.3531 83.3713 28.4068 83.3559C28.6981 83.2563 28.8973 83.195 28.9663 83.1873H28.974C29.0813 83.1643 29.1963 83.149 29.3036 83.1336C29.5872 83.08 29.8785 83.034 30.1774 82.9957L30.6603 82.9267C33.3584 82.5588 35.6502 82.2752 38.103 82.2522C38.2256 82.2445 38.3559 82.2445 38.4862 82.2445C38.8312 82.2445 39.1837 82.2522 39.5363 82.2522C39.8812 82.2598 40.2339 82.2752 40.5788 82.2828H40.5864C40.6094 82.2828 40.6631 82.2905 40.7321 82.2905C40.7627 82.2905 40.7934 82.2982 40.8317 82.2982C40.8854 82.3058 40.9467 82.3135 41.008 82.3212H41.054C41.9048 82.4055 43.6677 82.5894 44.5109 82.6738C44.5952 82.6814 44.6719 82.6891 44.7409 82.6967C44.7638 82.6967 44.7945 82.6967 44.8175 82.7044H44.8252C44.9018 82.7121 44.9555 82.7121 44.9785 82.7121V82.7197L44.9861 82.7274C45.0245 82.7811 45.2007 83.0417 45.4537 83.4632C45.653 83.8005 45.9059 84.2374 46.1665 84.7433C46.7031 85.7934 47.2703 87.1271 47.5462 88.5068C47.5922 88.7291 47.6229 88.959 47.6535 89.1813C47.6689 89.2963 47.6842 89.4036 47.6919 89.5109C47.7149 89.6719 47.7302 89.8252 47.7609 89.9785C47.8068 90.3081 47.8528 90.6377 47.9065 90.9902C47.9525 91.3505 48.0061 91.7338 48.0521 92.1707C48.1748 93.2438 48.2897 94.6235 48.3587 96.6393C48.3664 96.8233 48.3741 97.0226 48.3894 97.2449C48.3971 97.4672 48.4047 97.6971 48.4124 97.95C48.42 98.1953 48.4277 98.4559 48.4354 98.7242C48.443 99.0001 48.4507 99.2838 48.4507 99.5827C48.4584 99.874 48.466 100.165 48.4737 100.472C48.4967 101.905 48.5197 103.423 48.5273 104.688Z" fill="#D2EDED"/>
<path opacity="0.7" d="M48.5273 104.688H29.5489C29.0966 102.748 28.5141 100.533 27.8012 98.1647C27.7016 97.8427 27.602 97.5131 27.5023 97.1835C27.4027 96.8463 27.2954 96.5167 27.1881 96.1794V96.1718C27.0578 95.7655 26.9198 95.3516 26.7818 94.93C26.6822 94.6311 26.5825 94.3245 26.4752 94.0179V94.0102C26.4215 93.8646 26.3756 93.7113 26.3296 93.5657C26.0996 92.9065 25.862 92.2396 25.6167 91.5651C25.5631 91.4042 25.5018 91.2355 25.4404 91.0746V91.0669C25.2258 90.469 25.0035 89.8712 24.7659 89.2656C24.26 87.9549 24.1297 86.8282 24.1221 86.0387C24.1221 85.2415 24.237 84.7816 24.237 84.7816C24.237 84.7816 26.9045 83.8465 28.2382 83.4096C28.2995 83.3866 28.3531 83.3713 28.4068 83.3559C28.6981 83.2563 28.8973 83.195 28.9663 83.1873H28.974C29.0813 83.1643 29.1963 83.149 29.3036 83.1336C29.5872 83.08 29.8785 83.034 30.1774 82.9957L30.6603 82.9267C33.3584 82.5588 35.6502 82.2752 38.103 82.2522C38.2256 82.2445 38.3559 82.2445 38.4862 82.2445C38.8312 82.2445 39.1837 82.2522 39.5363 82.2522C39.8812 82.2598 40.2338 82.2675 40.5864 82.2752C40.6094 82.2752 40.6554 82.2828 40.7321 82.2905C40.7627 82.2905 40.7934 82.2982 40.8317 82.2982C40.8777 82.3058 40.939 82.3058 41.0003 82.3135C41.0157 82.3135 41.0387 82.3212 41.054 82.3212C41.9048 82.4055 43.6677 82.5894 44.5109 82.6738C44.5952 82.6814 44.6719 82.6891 44.7409 82.6967C44.7562 82.6967 44.7715 82.6967 44.7868 82.7044H44.8252C44.9018 82.7121 44.9555 82.7197 44.9785 82.7197L44.9861 82.7274C45.0245 82.7811 45.2007 83.0417 45.4537 83.4632C45.653 83.8005 45.9059 84.2374 46.1665 84.7433C46.6877 85.7857 47.2549 87.1118 47.5309 88.4838C47.5769 88.7138 47.6152 88.9514 47.6459 89.1813C47.6612 89.2963 47.6765 89.4036 47.6919 89.5109C47.7149 89.6719 47.7302 89.8252 47.7609 89.9785C47.8068 90.3081 47.8528 90.6377 47.9065 90.9902C47.9525 91.3505 48.0061 91.7338 48.0521 92.1707C48.1824 93.2438 48.2974 94.6235 48.3664 96.6393C48.3741 96.8233 48.3817 97.0226 48.3894 97.2449C48.3971 97.4672 48.4047 97.6971 48.4124 97.95C48.42 98.1953 48.4277 98.4559 48.4354 98.7242C48.443 99.0001 48.4507 99.2838 48.4507 99.5827C48.4584 99.874 48.466 100.173 48.4737 100.472C48.4967 101.905 48.5197 103.423 48.5273 104.688Z" fill="white"/>
<path opacity="0.2" d="M39.5766 90.2851C39.5851 90.4415 39.4663 90.5756 39.3091 90.5848C39.1528 90.594 39.0186 90.4744 39.0102 90.3173C39.0018 90.1602 39.1206 90.0268 39.2777 90.0176C39.4348 90.0084 39.5682 90.1287 39.5766 90.2851Z" fill="black"/>
<path opacity="0.2" d="M40.9517 96.2178C40.9609 96.3742 40.8413 96.5083 40.6842 96.5175C40.5278 96.5267 40.3937 96.4064 40.3853 96.25C40.3761 96.0936 40.4956 95.9595 40.6528 95.9511C40.8091 95.9419 40.9433 96.0614 40.9517 96.2178Z" fill="black"/>
<path opacity="0.2" d="M41.5601 101.918C41.5685 102.075 41.449 102.209 41.2926 102.217C41.1362 102.226 41.0021 102.107 40.9937 101.95C40.9845 101.794 41.104 101.66 41.2612 101.651C41.4175 101.641 41.5509 101.762 41.5601 101.918Z" fill="black"/>
<path d="M34.3043 80.7676C41.7079 80.3261 44.4221 85.8165 44.4221 85.8165L40.9 85.3045C40.9 85.3045 40.0377 88.5161 38.9562 89.4428C38.9562 89.4428 34.4408 88.6518 32.0876 86.3829L28.9243 87.4522C28.9243 87.4522 26.8662 81.2106 34.3043 80.7668V80.7676Z" fill="#D2EDED"/>
<path opacity="0.6" d="M34.3043 80.7676C41.7079 80.3261 44.4221 85.8165 44.4221 85.8165L40.9 85.3045C40.9 85.3045 40.0377 88.5161 38.9562 89.4428C38.9562 89.4428 34.4408 88.6518 32.0876 86.3829L28.9243 87.4522C28.9243 87.4522 26.8662 81.2106 34.3043 80.7668V80.7676Z" fill="white"/>
<path d="M39.6254 83.3575C40.6855 86.5079 38.9571 89.4435 38.9571 89.4435C33.2482 87.9941 30.6344 82.9582 30.6344 82.9582C32.2058 81.0144 30.8728 76.2 29.9062 73.5878L32.2464 75.1422L35.7293 77.4502C35.6803 78.012 35.7983 78.7708 36.0068 79.4967C36.3195 80.5445 36.83 81.518 37.3413 81.7019L39.6239 83.3575H39.6254Z" fill="#D9877C"/>
<path opacity="0.2" d="M36.0073 79.4967C34.6583 79.2736 32.8348 77.9951 32.476 76.6507C32.3289 76.0834 32.2453 75.5231 32.2461 75.1429L35.7291 77.4509C35.68 78.0127 35.7981 78.7715 36.0065 79.4974L36.0073 79.4967Z" fill="black"/>
<path d="M26.7834 71.1296C29.0353 74.9222 29.9061 76.5702 32.9429 77.6747C37.5105 79.3364 41.7446 76.029 40.6876 71.7106C39.7364 67.8236 36.2136 62.275 31.5272 62.462C26.9098 62.6467 24.5314 67.3369 26.7834 71.1296Z" fill="#D9877C"/>
<path d="M32.2324 69.9092C32.4079 70.2358 32.7237 70.422 32.9383 70.3255C33.1529 70.2289 33.1851 69.8855 33.0096 69.559C32.8341 69.2324 32.5183 69.0462 32.3037 69.1435C32.089 69.2401 32.0568 69.5827 32.2324 69.9092Z" fill="#263238"/>
<path d="M36.3535 67.8957C36.529 68.2223 36.8448 68.4085 37.0594 68.3112C37.274 68.2146 37.3062 67.8712 37.1307 67.5447C36.9552 67.2181 36.6394 67.0319 36.4247 67.1292C36.2101 67.2258 36.1779 67.5692 36.3535 67.8957Z" fill="#263238"/>
<path d="M36.3398 67.1897L37.0075 66.6079C37.0075 66.6079 36.9316 67.4028 36.3398 67.1897Z" fill="#263238"/>
<path d="M35.4629 69.1887C35.4629 69.1887 36.7744 70.3431 37.7516 70.7447C37.534 71.3426 36.6985 71.4913 36.6985 71.4913L35.4629 69.1887Z" fill="#DE5753"/>
<path d="M30.5162 68.1409C30.5691 68.1225 30.6136 68.0834 30.6358 68.0282C30.9777 67.1713 31.7595 67.0425 31.7687 67.041C31.8844 67.0218 31.9603 66.9153 31.9343 66.8003C31.9082 66.6854 31.7909 66.6072 31.6729 66.6248C31.6323 66.6317 30.6496 66.7927 30.2257 67.8558C30.1836 67.9616 30.2411 68.0865 30.3538 68.134C30.4082 68.157 30.4657 68.1578 30.5155 68.1402L30.5162 68.1409Z" fill="#263238"/>
<path d="M36.9141 64.9738C36.9662 64.963 37.0137 64.9331 37.0428 64.8864C37.1042 64.7898 37.0697 64.6595 36.9662 64.5936C35.9253 63.9375 35.0154 64.3008 34.9771 64.3169C34.869 64.3613 34.8246 64.4847 34.8782 64.5921C34.9319 64.6994 35.0622 64.75 35.1703 64.7055C35.2055 64.6909 35.9161 64.4196 36.7431 64.9408C36.7968 64.9745 36.8581 64.9845 36.9133 64.973L36.9141 64.9738Z" fill="#263238"/>
<path d="M32.2178 69.2034L32.8854 68.6216C32.8854 68.6216 32.8095 69.4164 32.2178 69.2034Z" fill="#263238"/>
<path d="M29.658 72.812C29.658 72.812 30.7112 69.224 27.7594 65.3885C27.7594 65.3885 31.5873 61.6963 36.1342 63.9367C36.1342 63.9367 31.0921 59.3615 25.2783 64.2426C19.4644 69.1236 26.6119 73.9004 27.6153 74.1641C28.6186 74.4278 29.658 72.812 29.658 72.812Z" fill="#263238"/>
<path d="M27.1235 74.9321C27.9789 75.5223 28.9838 75.6702 29.7648 75.5131C30.9399 75.2763 30.8916 74.0276 30.0323 73.1469C29.2589 72.3536 27.716 71.5212 26.7924 72.2141C25.8825 72.897 26.1447 74.2568 27.1235 74.9321Z" fill="#D9877C"/>
<path d="M37.2466 72.3636C37.1607 73.0144 37.2312 74.1618 37.2312 74.1618C37.1285 74.1871 37.0258 74.2124 36.9216 74.2316C35.5181 74.5374 34.7662 74.2155 34.3584 73.7663C34.1361 73.5195 34.0189 73.2306 33.956 72.9876C33.8801 72.707 33.8901 72.4901 33.8901 72.4901C34.7309 72.7722 36.0608 72.5882 36.7668 72.4602C37.0626 72.4096 37.2466 72.3636 37.2466 72.3636Z" fill="#263238"/>
<path d="M36.7668 72.4609L36.7484 72.9914C35.4261 73.2765 34.4573 73.2995 33.956 72.9891C33.8801 72.7085 33.8901 72.4916 33.8901 72.4916C34.7309 72.7737 36.0608 72.5897 36.7668 72.4617V72.4609Z" fill="white"/>
<path d="M36.9216 74.2323C35.5181 74.5382 34.7662 74.2162 34.3584 73.7671C34.8405 73.6812 35.4315 73.6314 35.9834 73.7364C36.4057 73.8146 36.7039 74.0131 36.9216 74.2323Z" fill="#DE5753"/>
<path d="M62.9024 76.1064L66.8521 74.5451L63.4006 71.3396C63.4006 71.3396 59.9606 72.9454 60.8627 74.6831L62.9024 76.1064Z" fill="#D9877C"/>
<path d="M69.2135 71.2768L65.4853 69.441L63.4004 71.3397L66.8519 74.5451L69.2135 71.2768Z" fill="#D9877C"/>
<path opacity="0.1" d="M27.1859 96.1818C26.6624 94.53 26.0814 92.8207 25.4375 91.0762C25.879 90.3296 26.4102 89.685 27.0234 89.2588C27.0234 89.2588 28.3878 93.5489 27.1859 96.1818Z" fill="black"/>
<path d="M26.2685 89.5187L26.2532 89.557C26.1842 89.7639 26.1229 89.9709 26.0539 90.1855C25.9083 90.6377 25.7626 91.09 25.617 91.5499V91.5652C25.1878 92.9219 24.7662 94.3016 24.3676 95.6583C23.7774 97.6819 23.1872 99.7591 22.8959 101.622C22.8653 101.821 22.8346 102.013 22.8193 102.197C22.7963 102.426 22.781 102.633 22.781 102.779C22.781 102.84 22.781 102.856 22.7733 102.894C22.781 102.917 22.7656 102.925 22.781 102.978C22.781 102.994 22.7886 103.024 22.7963 103.047C22.8193 103.132 22.8653 103.239 22.9113 103.354C22.9726 103.507 23.0569 103.668 23.1565 103.837C23.3175 104.113 23.5091 104.396 23.7238 104.688H18.2816C18.2586 104.657 18.251 104.619 18.2356 104.588C18.159 104.419 18.0977 104.197 18.044 103.982C18.0287 103.952 18.021 103.913 18.0134 103.883C17.9674 103.653 17.9214 103.4 17.8984 103.193C17.8601 102.833 17.8447 102.503 17.8447 102.197C17.8447 101.798 17.8677 101.438 17.8907 101.07C18.1207 98.5863 18.6342 96.4248 19.1784 94.225C19.7533 92.0481 20.3972 89.9402 21.156 87.8017C21.6006 86.56 22.8576 85.8395 24.1223 86.0388C24.2756 86.0618 24.4366 86.1077 24.5976 86.1614C25.9696 86.652 26.7054 88.139 26.2685 89.5187Z" fill="#D9877C"/>
<path d="M24.2362 84.7801C22.0401 85.296 20.3378 87.8791 18.9029 92.7203C17.468 97.5622 16.6846 102.063 17.5331 104.085L23.4037 102.926C23.4037 102.926 24.5918 97.2518 26.4766 94.0141C26.4766 94.0141 27.3673 89.8237 26.5602 87.495C25.7531 85.1664 24.2362 84.7786 24.2362 84.7786V84.7801Z" fill="#D2EDED"/>
<path opacity="0.7" d="M24.2362 84.7801C22.0401 85.296 20.3378 87.8791 18.9029 92.7203C17.468 97.5622 16.6846 102.063 17.5331 104.085L23.4037 102.926C23.4037 102.926 24.5918 97.2518 26.4766 94.0141C26.4766 94.0141 27.3673 89.8237 26.5602 87.495C25.7531 85.1664 24.2362 84.7786 24.2362 84.7786V84.7801Z" fill="white"/>
<path d="M23.8076 103.668L23.1561 103.837L19.8295 104.688H17.1468L15.9434 102.641C15.9434 102.641 16.4416 102.488 17.2004 102.319C17.3997 102.281 17.6143 102.235 17.8443 102.197C19.2853 101.921 21.2782 101.721 22.8188 102.197C23.0565 102.273 23.2864 102.365 23.501 102.48C23.57 102.511 23.639 102.549 23.708 102.587L23.8076 103.668Z" fill="#D2EDED"/>
<path opacity="0.6" d="M23.8076 103.668L23.1561 103.837L19.8295 104.688H17.1468L15.9434 102.641C15.9434 102.641 16.4416 102.488 17.2004 102.319C17.3997 102.281 17.6143 102.235 17.8443 102.197C19.2853 101.921 21.2782 101.721 22.8188 102.197C23.0565 102.273 23.2864 102.365 23.501 102.48C23.57 102.511 23.639 102.549 23.708 102.587L23.8076 103.668Z" fill="white"/>
</svg>
