<svg width="98" height="84" viewBox="0 0 98 84" fill="none" xmlns="http://www.w3.org/2000/svg">
<path d="M7.77995 83.1566C3.48986 83.1566 0 79.6628 0 75.3697V7.77917C0 3.48909 3.48986 0 7.77995 0H89.2433C93.5334 0 97.0233 3.48985 97.0233 7.77917V75.3697C97.0233 78.6672 94.9369 81.619 91.831 82.7166L91.4999 82.8277L91.4792 82.8293C90.7594 83.047 90.0083 83.1573 89.2433 83.1573L7.77995 83.1566Z" fill="#FEDFE5"/>
<path opacity="0.5" d="M7.77995 83.1566C3.48986 83.1566 0 79.6628 0 75.3697V7.77917C0 3.48909 3.48986 0 7.77995 0H89.2433C93.5334 0 97.0233 3.48985 97.0233 7.77917V75.3697C97.0233 78.6672 94.9369 81.619 91.831 82.7166L91.4999 82.8277L91.4792 82.8293C90.7594 83.047 90.0083 83.1573 89.2433 83.1573L7.77995 83.1566Z" fill="white"/>
<path d="M95.4905 7.78015V75.3699C95.4905 78.0986 93.7505 80.4135 91.3207 81.2719L91.1827 81.3179H91.1751C90.5695 81.5172 89.918 81.6245 89.2435 81.6245H7.78015C4.33091 81.6245 1.5332 78.8268 1.5332 75.3699V7.78015C1.5332 4.33091 4.33091 1.5332 7.78015 1.5332H89.2435C92.6927 1.5332 95.4905 4.33091 95.4905 7.78015Z" fill="#FEDFE5"/>
<g opacity="0.5">
<path d="M46.7539 56.0618C43.9884 56.0618 41.8269 53.4281 42.644 50.5361C42.8954 49.6485 43.4473 48.8521 44.1992 48.3171C45.2953 47.5368 46.5869 47.3344 47.7427 47.6058V42.3484H41.3578C41.0819 42.3484 40.8274 42.2004 40.691 41.9605C40.5545 41.7198 40.5584 41.4263 40.6994 41.1886C41.0435 40.6138 41.1547 39.891 40.9945 39.1728C40.7714 38.1732 39.9536 37.3661 38.9548 37.1392C37.1605 36.7315 35.5623 38.092 35.5623 39.8182C35.5623 40.3125 35.6896 40.7863 35.9295 41.1879C36.0705 41.4247 36.0743 41.7191 35.9379 41.9597C35.8015 42.1989 35.547 42.3476 35.271 42.3476H28.8555V57.8508C28.8555 59.7195 30.3701 61.2341 32.2388 61.2341H47.742V55.9468C47.4208 56.0227 47.0882 56.061 46.7532 56.061L46.7539 56.0618Z" fill="white"/>
<path d="M50.2734 27.0949C53.0044 27.0949 55.1475 29.6642 54.4117 32.5133C54.0852 33.7788 53.1608 34.8534 51.9474 35.3394C51.0606 35.6943 50.127 35.7502 49.2769 35.5494V40.816H55.6618C55.9363 40.816 56.1892 40.9624 56.3264 41.2008C56.4628 41.4384 56.4621 41.7312 56.3241 41.968C55.9087 42.6824 55.8351 43.593 56.177 44.4369C56.4705 45.1605 57.0998 45.7269 57.8456 45.9569C59.7297 46.5371 61.4635 45.1367 61.4635 43.3385C61.4635 42.8503 61.3378 42.3773 61.1002 41.9688C60.9622 41.7319 60.9614 41.4391 61.0979 41.2015C61.2351 40.9639 61.488 40.8168 61.7624 40.8168H68.1688V25.3067C68.1688 23.4379 66.6542 21.9233 64.7855 21.9233H49.2754V27.2122C49.5981 27.1355 49.9323 27.0964 50.2719 27.0964L50.2734 27.0949Z" fill="white"/>
</g>
<path d="M70.9342 68.3785C68.8884 69.9559 66.815 71.3356 64.5899 72.644C63.4777 73.2963 62.3302 73.9156 61.1008 74.4721C60.4677 74.7427 59.8376 75.0186 59.124 75.2424C58.4188 75.4678 57.624 75.6755 56.5984 75.7307C56.3171 75.7384 55.8679 75.7069 55.5452 75.6295C55.2103 75.5429 54.863 75.4371 54.6024 75.2938C54.4644 75.2248 54.3203 75.1535 54.1946 75.0776L53.8543 74.8439C53.6152 74.6829 53.4542 74.5196 53.2695 74.3525C52.5842 73.6857 52.1573 73.0295 51.7794 72.3895C51.039 71.1095 50.5852 69.8562 50.1728 68.6099C49.4033 66.1004 48.8966 63.6484 48.623 61.0883C48.544 60.3509 49.0783 59.6902 49.8149 59.6112C50.4373 59.5446 51.006 59.9155 51.2153 60.4766L51.2321 60.5234C51.6437 61.6287 52.0661 62.7784 52.5214 63.8791C52.9583 64.9905 53.4281 66.082 53.9455 67.1176C54.443 68.1531 55.001 69.1557 55.5835 69.9528C55.8694 70.3445 56.1822 70.6856 56.4121 70.8443C56.4642 70.8742 56.5233 70.9278 56.5493 70.9248C56.5654 70.9309 56.5792 70.9378 56.5922 70.9478C56.5999 70.9478 56.5984 70.934 56.5984 70.934C56.6068 70.9447 56.5646 70.8979 56.5248 70.8964C56.501 70.878 56.3646 70.865 56.3876 70.8642C56.4512 70.8412 56.5133 70.8243 56.5762 70.8113L56.6704 70.796L56.8176 70.7431C57.0246 70.6596 57.1978 70.6312 57.4408 70.5108C57.8884 70.3254 58.3751 70.087 58.8588 69.8409C59.8353 69.309 60.8294 68.7134 61.8236 68.0956C63.7896 66.8271 65.7864 65.4359 67.6873 64.0761L67.7226 64.0508C68.9336 63.1847 70.6169 63.4644 71.483 64.6747C72.3292 65.8575 72.0778 67.4955 70.9365 68.3777L70.9342 68.3785Z" fill="#D9877C"/>
<path d="M70.9862 63.2426C65.9265 62.043 62.5585 67.2751 56.1958 70.6508L55.9375 76.4746C55.9375 76.4746 62.987 76.1857 68.4238 71.0862C73.8605 65.9874 70.9862 63.2426 70.9862 63.2426Z" fill="#FEDFE5"/>
<path opacity="0.7" d="M68.4236 71.0848C67.8181 71.652 67.1895 72.1579 66.5533 72.6178C65.4956 73.369 64.4148 73.9822 63.3724 74.4727C63.0581 74.6184 62.7439 74.7563 62.4449 74.8866C60.8353 75.5535 59.3483 75.9367 58.1985 76.1667C56.8112 76.435 55.9297 76.4733 55.9297 76.4733L56.198 70.6556C62.5599 67.2753 65.9248 62.0401 70.9837 63.2435C70.9837 63.2435 73.8581 65.9876 68.4236 71.0848Z" fill="white"/>
<path d="M56.5736 70.063L55.4975 69.915L53.6211 76.1551L56.1988 77.8146C56.1988 77.8146 58.0185 72.699 56.5729 70.063H56.5736Z" fill="#FEDFE5"/>
<path opacity="0.6" d="M56.5736 70.063L55.4975 69.915L53.6211 76.1551L56.1988 77.8146C56.1988 77.8146 58.0185 72.699 56.5729 70.063H56.5736Z" fill="white"/>
<path opacity="0.1" d="M67.3912 69.3213C67.2379 70.3331 66.9466 71.4598 66.5557 72.6172C65.4979 73.3684 64.4172 73.9816 63.3747 74.4722C63.0605 74.6178 62.7462 74.7558 62.4473 74.8861C64.4938 71.4598 67.3912 69.3213 67.3912 69.3213Z" fill="black"/>
<path d="M93.4288 61.0512C93.0685 62.0016 93.6817 62.2009 93.6817 62.2009C92.4477 62.2776 90.8227 59.9857 92.4783 58.859C94.1339 57.7246 93.3291 56.9121 92.4017 55.2335C91.4819 53.5625 93.9116 52.4127 93.904 50.5425C93.8963 48.6799 92.2177 48.9712 92.2177 48.9712C92.5396 51.2324 90.6081 57.5176 85.6718 57.1037L85.4419 57.0807C85.2962 57.0654 85.1583 57.0424 85.0203 57.0194C84.6217 56.9581 84.2308 56.8814 83.8475 56.7894C82.6441 56.5058 81.4944 56.0843 80.4366 55.5937C80.1913 55.4787 79.9537 55.3638 79.7238 55.2411C79.4402 55.0955 79.1719 54.9499 78.9036 54.7889C77.4856 53.9764 76.2975 53.0643 75.4467 52.2518C75.0252 51.8532 74.6879 51.4853 74.4503 51.1557C73.0859 49.2931 75.1325 47.6911 76.6271 47.2696C78.1218 46.8403 76.3359 44.6558 77.0104 43.3144C77.6772 41.9731 79.6701 41.8581 81.2644 42.1723C82.8664 42.4866 81.8163 41.2219 84.2155 40.9689C86.6146 40.716 91.1446 43.5597 91.0373 44.9394C91.0373 44.9394 91.1599 43.0691 93.3751 42.4253C93.9423 42.2643 94.7395 42.2183 95.4906 42.364V60.231C94.5478 60.6526 93.6587 60.438 93.4288 61.0512Z" fill="#263238"/>
<path opacity="0.7" d="M72.005 71.7711C78.1485 67.7478 84.6024 65.3893 84.6024 65.3893C84.2199 65.2751 84.5779 65.3456 84.1816 65.2414C81.1953 64.4595 78.7464 63.8425 76.0184 63.5198C75.3316 63.4401 74.6249 63.3742 73.9297 63.3105V63.3159C71.5451 66.9085 72.005 71.7711 72.005 71.7711Z" fill="white"/>
<path d="M89.9326 69.3442C89.925 69.3902 89.9096 69.4438 89.8943 69.5052C89.879 69.5741 89.8637 69.6508 89.8407 69.7351C89.8023 69.8501 89.764 69.9881 89.7103 70.1414C89.6797 70.218 89.649 70.3023 89.6107 70.3943V70.402C89.5417 70.5859 89.4574 70.7852 89.3578 71.0075C89.3271 71.0765 89.2888 71.1455 89.2581 71.2221C89.1815 71.3831 89.0972 71.5517 89.0052 71.7433C88.9439 71.8506 88.8825 71.9733 88.8212 72.0959C88.5683 72.5711 88.323 73.054 88.0854 73.5293C88.0394 73.6289 87.9857 73.7209 87.9397 73.8205C87.7021 74.2804 87.4722 74.748 87.2499 75.2003C86.8666 75.9744 86.4987 76.7409 86.1538 77.4921C85.9622 77.8906 85.7782 78.2892 85.6096 78.6801C85.4639 78.9791 85.3336 79.278 85.2033 79.5769V79.5846C84.9581 80.1288 84.7205 80.6577 84.5058 81.1866C84.4369 81.3322 84.3755 81.4778 84.3142 81.6235H63.8027C64.0633 79.7149 64.3316 77.7987 64.5232 76.6566C64.6459 75.8594 64.7685 75.1619 64.8758 74.5487C64.9371 74.2038 64.9985 73.8819 65.0598 73.5906V73.5829C65.1288 73.261 65.1901 72.9697 65.2514 72.7015C65.2897 72.5175 65.3281 72.3489 65.3664 72.1802C65.3894 72.0883 65.4124 71.9963 65.4354 71.912C65.535 71.4904 65.6347 71.1225 65.7343 70.7699C65.8646 70.2793 65.9873 69.8271 66.1022 69.3442V69.3365C66.1559 69.1219 66.2172 68.9073 66.2862 68.6927C66.3398 68.524 66.4012 68.3478 66.4702 68.1791V68.1715C66.6235 67.7882 66.7844 67.4203 66.9607 67.06C67.1447 66.6998 67.3286 66.3549 67.5203 66.0253C67.7119 65.6957 67.9035 65.3891 68.0951 65.1055C68.1335 65.0441 68.1794 64.9828 68.2178 64.9215C68.6393 64.316 69.0073 63.8407 69.2449 63.5495C69.2449 63.5418 69.2525 63.5341 69.2679 63.5265C69.3675 63.4038 69.4442 63.3119 69.4825 63.2659L69.5055 63.2429L69.5131 63.2352V63.2275C69.5591 63.2275 69.7891 63.2352 70.1187 63.2429C70.1493 63.2429 70.18 63.2505 70.2183 63.2429C70.3793 63.2505 70.5632 63.2505 70.7625 63.2505C70.8392 63.2582 70.9158 63.2582 71.0001 63.2582H71.1381C71.2608 63.2582 71.3911 63.2659 71.5214 63.2659C72.2649 63.2812 73.0314 63.2889 73.4989 63.2965C73.7289 63.3042 73.8898 63.3119 73.9282 63.3119C74.5873 63.3732 75.2619 63.4345 75.9134 63.5112C75.944 63.5112 75.9824 63.5111 76.013 63.5188C76.1433 63.5341 76.2736 63.5495 76.3963 63.5725C78.8337 63.8791 81.0796 64.4309 83.7163 65.1208C83.8696 65.1591 84.0229 65.2051 84.1762 65.2434C84.2299 65.2588 84.2682 65.2664 84.2989 65.2741C84.3602 65.2894 84.3832 65.2971 84.3908 65.3048L84.3985 65.3124C84.4062 65.3201 84.4138 65.3277 84.6055 65.3891C84.6668 65.4044 84.8508 65.5117 85.119 65.6803C85.4563 65.895 85.9315 66.2092 86.4451 66.5541C86.4451 66.5592 86.4476 66.5618 86.4527 66.5618C86.606 66.6615 86.7593 66.7688 86.9203 66.8684C88.208 67.7345 89.603 68.7004 89.902 68.8996V68.9073C89.9096 68.9073 89.9096 68.915 89.9173 68.915C89.925 68.9226 89.9326 68.9226 89.9326 68.9303C89.9403 68.9226 89.9403 68.9303 89.9403 68.9303L89.948 68.938C89.948 68.938 89.9786 69.0453 89.9326 69.3442Z" fill="#FEDFE5"/>
<path opacity="0.7" d="M89.9326 69.3443C89.925 69.3903 89.9096 69.444 89.8943 69.5053C89.879 69.5743 89.8637 69.6509 89.8407 69.7353C89.8023 69.8502 89.764 69.9882 89.7103 70.1415C89.6797 70.2182 89.649 70.3025 89.6107 70.3944V70.4021C89.5417 70.5861 89.4574 70.7854 89.3578 71.0076C89.3271 71.0766 89.2888 71.1456 89.2581 71.2223C89.1815 71.3832 89.0972 71.5519 89.0052 71.7435C88.9439 71.8508 88.8825 71.9734 88.8212 72.0961C88.5683 72.5713 88.323 73.0542 88.0854 73.5294C88.0394 73.6291 87.9857 73.721 87.9397 73.8207C87.3112 75.0624 86.7133 76.2888 86.1538 77.4922C85.9698 77.8908 85.7935 78.2894 85.6096 78.6803V78.6879C85.4716 78.9869 85.3413 79.2782 85.2033 79.5771V79.5847C84.9657 80.1213 84.7281 80.6579 84.5058 81.1867C84.4445 81.3324 84.3832 81.478 84.3219 81.6236H63.8027C64.0633 79.715 64.3316 77.7988 64.5232 76.6567C64.6459 75.8596 64.7685 75.1621 64.8758 74.5489C64.9448 74.2039 65.0061 73.8897 65.0598 73.5907L65.0675 73.5831V73.5754C65.0981 73.4144 65.1288 73.2688 65.1594 73.1232C65.1901 72.9775 65.2207 72.8396 65.2514 72.7016C65.2744 72.5943 65.2974 72.5023 65.3204 72.4027C65.3434 72.326 65.3587 72.2494 65.3817 72.1727C65.397 72.0807 65.42 71.9964 65.443 71.9121C65.4967 71.7052 65.5427 71.5059 65.5887 71.3142C65.6423 71.1226 65.6883 70.9463 65.7343 70.77C65.8646 70.2795 65.9873 69.8272 66.1022 69.3443V69.3367C66.1559 69.122 66.2172 68.9074 66.2862 68.7005V68.6928C66.3475 68.5165 66.4088 68.3479 66.4702 68.1793V68.1716C66.6235 67.7883 66.7844 67.4204 66.9607 67.0602C67.1447 66.6999 67.3286 66.355 67.5203 66.0254C67.7119 65.6958 67.9035 65.3892 68.0951 65.1056C68.1335 65.0443 68.1794 64.983 68.2178 64.9217C68.6393 64.3161 69.0073 63.8409 69.2449 63.5496H69.2525C69.2525 63.542 69.2602 63.5343 69.2679 63.5266C69.3675 63.404 69.4442 63.312 69.4825 63.266L69.5055 63.243L69.5131 63.2354C69.5591 63.2354 69.7891 63.243 70.1187 63.243C70.1493 63.243 70.18 63.2507 70.2183 63.243C70.3793 63.2507 70.5632 63.2507 70.7625 63.2507C70.8162 63.2583 70.8622 63.2583 70.9158 63.2583C70.9388 63.2583 70.9695 63.2583 70.9925 63.2507C71.0385 63.2583 71.0921 63.2583 71.1381 63.2583C71.2608 63.2583 71.3911 63.266 71.5214 63.266C71.7053 63.266 71.8969 63.2737 72.0809 63.2737C72.6404 63.2813 73.1617 63.289 73.5142 63.289H73.5219C73.7442 63.2967 73.8898 63.3043 73.9282 63.3043C74.2654 63.335 74.595 63.3657 74.9246 63.404C75.2619 63.4346 75.5838 63.473 75.9134 63.5113C75.944 63.5113 75.9824 63.5113 76.013 63.519C76.1433 63.5343 76.2736 63.5496 76.3963 63.5726C76.6339 63.6033 76.8715 63.6339 77.1091 63.6723C77.3544 63.7029 77.592 63.7412 77.8373 63.7872C79.7459 64.1015 81.6085 64.5691 83.7163 65.1209C83.8696 65.1593 84.0229 65.2052 84.1762 65.2436C84.2299 65.2589 84.2682 65.2666 84.2989 65.2742C84.3602 65.2896 84.3832 65.2972 84.3908 65.3049L84.3985 65.3126C84.4062 65.3279 84.4138 65.3432 84.5901 65.3969H84.6055C84.6668 65.4122 84.8508 65.5272 85.1267 65.7035C85.464 65.9104 85.9315 66.217 86.4451 66.5543C86.4451 66.5594 86.4476 66.5619 86.4527 66.5619C86.606 66.6616 86.7593 66.7689 86.9203 66.8685C88.208 67.7347 89.603 68.7005 89.902 68.8998V68.9074C89.9096 68.9074 89.9096 68.9151 89.9173 68.9151H89.925C89.9326 68.9151 89.9326 68.9304 89.9326 68.9304H89.9403L89.948 68.9381H89.9556C89.9556 68.9381 89.9863 69.0454 89.9326 69.3443Z" fill="white"/>
<path opacity="0.2" d="M73.9906 71.378C73.9638 71.532 74.0665 71.6792 74.2205 71.7068C74.3746 71.7344 74.5218 71.6309 74.5494 71.4769C74.577 71.3228 74.4735 71.1756 74.3194 71.148C74.1654 71.1204 74.0182 71.2239 73.9906 71.378Z" fill="black"/>
<path opacity="0.2" d="M71.932 77.1092C71.9052 77.2633 72.0079 77.4104 72.1619 77.438C72.316 77.4656 72.4632 77.3622 72.4907 77.2081C72.5183 77.054 72.4149 76.9069 72.2608 76.8793C72.1067 76.8524 71.9596 76.9552 71.932 77.1092Z" fill="black"/>
<path d="M80.3421 62.5435C73.0405 61.2382 69.7031 66.3737 69.7031 66.3737L73.2612 66.2779C73.2612 66.2779 73.7418 69.5677 74.7076 70.6155C74.7076 70.6155 79.2844 70.3587 81.8866 68.3804L84.9028 69.813C84.9028 69.813 87.6775 63.8543 80.3421 62.5435Z" fill="#FEDFE5"/>
<path opacity="0.6" d="M80.3421 62.5435C73.0405 61.2382 69.7031 66.3737 69.7031 66.3737L73.2612 66.2779C73.2612 66.2779 73.7418 69.5677 74.7076 70.6155C74.7076 70.6155 79.2844 70.3587 81.8866 68.3804L84.9028 69.813C84.9028 69.813 87.6775 63.8543 80.3421 62.5435Z" fill="white"/>
<path d="M74.7559 64.4924C73.3348 67.4971 74.7068 70.6144 74.7068 70.6144C80.546 69.8425 83.7316 65.1477 83.7316 65.1477C82.3986 63.0337 84.2858 58.4079 85.5513 55.9268L83.0448 57.1969L79.3158 59.0809C79.2982 59.6443 79.0927 60.3847 78.8007 61.0807C78.3676 62.0848 77.7468 62.9916 77.2171 63.1142L74.7559 64.4916V64.4924Z" fill="#D9877C"/>
<path opacity="0.2" d="M78.8008 61.0811C80.1667 61.0175 82.1274 59.9613 82.6409 58.6674C82.854 58.1209 83.002 57.5751 83.0456 57.1973L79.3166 59.0813C79.299 59.6447 79.0936 60.3851 78.8016 61.0811H78.8008Z" fill="black"/>
<path d="M88.9056 51.1313C87.2132 55.2045 86.5839 56.959 83.7341 58.482C79.4478 60.7731 74.7883 58.098 75.2237 53.673C75.6153 49.6903 78.318 43.6993 82.9837 43.2218C87.5804 42.7519 90.5988 47.0581 88.9056 51.1313Z" fill="#D9877C"/>
<path d="M83.3407 50.6938C83.2135 51.0417 82.9268 51.2709 82.7007 51.205C82.4745 51.1399 82.3941 50.8041 82.5213 50.4561C82.6486 50.1082 82.9352 49.879 83.1613 49.9449C83.3875 50.01 83.4679 50.3458 83.3407 50.6938Z" fill="#263238"/>
<path d="M78.9755 49.2836C78.8482 49.6316 78.5616 49.8608 78.3354 49.7948C78.1093 49.7297 78.0288 49.394 78.1561 49.046C78.2833 48.698 78.57 48.4688 78.7961 48.5347C79.0222 48.5999 79.1027 48.9356 78.9755 49.2836Z" fill="#263238"/>
<path d="M78.8892 48.5839L78.1465 48.1025C78.1465 48.1025 78.3343 48.879 78.8892 48.5839Z" fill="#263238"/>
<path d="M80.0399 50.4385C80.0399 50.4385 78.9047 51.7668 77.9941 52.3026C78.2938 52.8637 79.1423 52.8928 79.1423 52.8928L80.0399 50.4385Z" fill="#DE5753"/>
<path d="M84.7888 48.7018C84.7336 48.6911 84.6838 48.6589 84.6547 48.6075C84.1956 47.8081 83.403 47.7912 83.3938 47.7904C83.2765 47.7881 83.1861 47.6931 83.1961 47.575C83.206 47.4578 83.3103 47.3635 83.4298 47.3643C83.4712 47.3643 84.4669 47.3857 85.0364 48.3783C85.0931 48.4772 85.054 48.609 84.949 48.6719C84.8984 48.7026 84.8417 48.711 84.7896 48.701L84.7888 48.7018Z" fill="#263238"/>
<path d="M78.0077 46.4705C77.954 46.4675 77.9034 46.4445 77.8674 46.4023C77.793 46.3157 77.8084 46.1816 77.9019 46.1019C78.8393 45.3055 79.7913 45.5362 79.8319 45.5469C79.9454 45.5761 80.0067 45.6918 79.9691 45.8052C79.9316 45.9187 79.8089 45.9877 79.6963 45.9593C79.6595 45.9493 78.9175 45.7815 78.1725 46.4146C78.1242 46.4552 78.0636 46.4736 78.0077 46.4705Z" fill="#263238"/>
<path d="M83.2545 49.9931L82.5117 49.5117C82.5117 49.5117 82.6995 50.2882 83.2545 49.9931Z" fill="#263238"/>
<path d="M86.2986 53.2043C86.2986 53.2043 84.7487 49.8011 87.1279 45.5869C87.1279 45.5869 82.8164 42.4734 78.6328 45.3347C78.6328 45.3347 82.9773 40.0926 89.4228 44.1022C95.8683 48.1117 89.468 53.8513 88.513 54.2544C87.5572 54.6576 86.2993 53.2043 86.2993 53.2043H86.2986Z" fill="#263238"/>
<path d="M89.1084 54.9447C88.345 55.6498 87.3715 55.9388 86.5759 55.8936C85.3794 55.8253 85.2507 54.5821 85.9765 53.5887C86.6296 52.6942 88.0399 51.6518 89.0517 52.2075C90.0489 52.7548 89.9815 54.1383 89.1084 54.9447Z" fill="#D9877C"/>
<path d="M78.7227 53.8341C78.8997 54.4657 78.9925 55.6124 78.9925 55.6124C79.0975 55.6224 79.2033 55.6331 79.309 55.6377C80.7416 55.7419 81.4407 55.3173 81.781 54.8145C81.9665 54.5385 82.0408 54.2358 82.0692 53.9867C82.1044 53.6985 82.0646 53.4854 82.0646 53.4854C81.272 53.8839 79.9299 53.8893 79.2125 53.8625C78.912 53.854 78.7234 53.8349 78.7234 53.8349L78.7227 53.8341Z" fill="#263238"/>
<path d="M79.2109 53.8615L79.3045 54.3835C80.6535 54.4785 81.6162 54.3643 82.0684 53.9857C82.1037 53.6975 82.0639 53.4844 82.0639 53.4844C81.2713 53.883 79.9292 53.8883 79.2117 53.8615H79.2109Z" fill="white"/>
<path d="M79.3086 55.6376C80.7412 55.7418 81.4402 55.3172 81.7806 54.8144C81.2908 54.7975 80.699 54.832 80.1671 55.0136C79.7601 55.1509 79.4926 55.3892 79.3086 55.6376Z" fill="#DE5753"/>
<path d="M48.4043 60.4984L48.4763 56.252L52.6913 58.3552C52.6913 58.3552 52.3985 62.1402 50.4547 61.9072L48.4043 60.4984Z" fill="#D9877C"/>
<path d="M50.7048 52.8916L53.7355 55.7345L52.6915 58.3544L48.4766 56.2512L50.7048 52.8916Z" fill="#D9877C"/>
<path d="M68.2046 54.6804C67.2901 56.8588 64.7737 57.8875 62.5953 56.973C60.417 56.0586 59.3883 53.5422 60.3027 51.3638C60.4323 51.0549 60.5963 50.7629 60.791 50.4961L55.936 48.458L53.4679 54.3386C53.3621 54.5908 53.1283 54.7686 52.8562 54.8023C52.5841 54.8368 52.3143 54.7234 52.1495 54.5034C51.6635 53.8595 50.8779 53.4433 50.0025 53.4157C49.0322 53.385 48.1001 53.9208 47.6042 54.7556C46.7304 56.2249 47.3788 58.0745 48.8973 58.7122C49.3464 58.9008 49.8316 58.9682 50.3015 58.9069C50.5736 58.8709 50.8434 58.9836 51.0105 59.202C51.1768 59.4205 51.2136 59.7109 51.1078 59.9639L48.6282 65.8721L62.9295 71.8753C64.6526 72.5981 66.6355 71.7879 67.3583 70.0648L73.3585 55.7704L68.4836 53.7238C68.4291 54.0488 68.3356 54.3708 68.2061 54.6797L68.2046 54.6804Z" fill="white"/>
<path d="M72.9151 70.9994L71.251 67.0918L68.1367 70.6261C68.1367 70.6261 69.8322 74.0232 71.5454 73.0758L72.9151 70.9994Z" fill="#D9877C"/>
<path d="M67.8293 64.6436L66.1836 68.5918L68.1366 70.6261L71.2502 67.0917L67.8293 64.6436Z" fill="#D9877C"/>
<path opacity="0.1" d="M85.2035 79.5776V79.5852C84.9659 80.1218 84.7283 80.6583 84.506 81.1872C84.4447 81.3328 84.3834 81.4785 84.322 81.6241H77.7148C77.8145 79.8458 78.2897 78.6884 78.2897 78.6884L78.7803 78.88L80.5815 79.5929C81.1487 77.4773 81.8846 75.8754 82.4595 74.8176V74.8099C83.0037 73.8212 83.4023 73.3076 83.4023 73.3076C83.4023 73.3076 83.5939 73.8978 83.8851 74.8713C84.2301 76.0133 84.713 77.692 85.2035 79.5776Z" fill="black"/>
<path opacity="0.1" d="M85.6064 78.6852C86.32 77.1062 87.0965 75.4759 87.9404 73.8187C87.5893 73.0254 87.1371 72.3233 86.5783 71.8281C86.5783 71.8281 84.7211 75.9297 85.6064 78.6852Z" fill="black"/>
<path d="M89.611 70.4025V70.3949C89.243 69.8277 88.6528 69.3984 87.94 69.2375C86.4913 68.9155 85.0503 69.8277 84.7284 71.284L84.7054 71.3683C84.4601 72.4644 84.2072 73.6678 83.9006 74.7946C83.8929 74.8176 83.8852 74.8482 83.8852 74.8712C83.6093 75.9903 83.3027 77.0941 82.9424 78.1365C82.5745 79.1789 82.1759 80.2444 81.7314 80.9419C81.6854 81.0339 81.6241 81.1105 81.5781 81.1795C81.5474 81.2178 81.5244 81.2485 81.5014 81.2792C81.2868 81.1795 81.0109 81.0032 80.7349 80.7886C80.7119 80.7733 80.6966 80.7579 80.6736 80.7426C80.3287 80.4667 79.9684 80.1294 79.6235 79.7768L79.5162 79.6695C79.2633 79.4166 79.018 79.1559 78.7804 78.88C78.2591 78.2975 77.7609 77.6613 77.2474 77.0251C76.5115 76.0899 75.8064 75.1088 75.1165 74.1124C74.4037 73.1313 73.7291 72.0965 73.0623 71.1001V71.0924L73.0393 71.0541C72.9856 70.9698 72.9167 70.8931 72.84 70.8241C72.6101 70.6018 72.2958 70.4792 71.9739 70.4639C71.8052 70.4562 71.6213 70.4869 71.4527 70.5482C70.7551 70.8088 70.4102 71.5829 70.6708 72.2805C70.7935 72.6024 70.9161 72.9243 71.0464 73.2386C71.8742 75.3005 72.8477 77.2704 73.9668 79.2326C74.4267 80.0451 74.9325 80.8346 75.4921 81.6241H87.1965C87.4724 81.0645 87.7024 80.5127 87.917 79.9608C88.8905 77.416 89.5497 74.9632 90.0096 72.3341C90.1322 71.6443 89.9712 70.9621 89.611 70.4025Z" fill="#D9877C"/>
<path d="M87.305 81.6241H80.6211L80.7361 80.7886L80.7897 80.436C80.8817 80.3134 80.9813 80.0911 81.0886 79.8075C81.6482 78.3588 82.361 75.2698 82.4607 74.8176V74.8099C82.476 74.7792 82.476 74.7639 82.476 74.7639C85.0821 66.6084 89.3822 68.6243 89.9034 68.9079C89.911 68.9079 89.911 68.9155 89.9187 68.9155H89.9264C89.934 68.9155 89.934 68.9309 89.934 68.9309H89.9417L89.9494 68.9385H89.957C89.957 68.9385 91.5437 73.1236 87.305 81.6241Z" fill="#FEDFE5"/>
<path opacity="0.7" d="M87.305 81.6241H80.6211L80.7361 80.7886L80.7897 80.436C80.8817 80.3134 80.9813 80.0911 81.0886 79.8075C81.6482 78.3588 82.361 75.2698 82.4607 74.8176V74.8099C82.476 74.7792 82.476 74.7639 82.476 74.7639C85.0821 66.6084 89.3822 68.6243 89.9034 68.9079C89.911 68.9079 89.911 68.9155 89.9187 68.9155H89.9264C89.934 68.9155 89.934 68.9309 89.934 68.9309H89.9417L89.9494 68.9385H89.957C89.957 68.9385 91.5437 73.1236 87.305 81.6241Z" fill="white"/>
<path d="M81.7172 81.6236H79.6707C79.7167 80.9721 79.7167 80.3282 79.6247 79.7763C79.6247 79.7227 79.617 79.6767 79.6094 79.623H81.0121C81.0121 79.623 81.0427 79.6844 81.0887 79.807C81.1884 80.0523 81.38 80.5428 81.5793 81.179C81.6023 81.2327 81.6176 81.2863 81.6329 81.34C81.6329 81.3553 81.6406 81.363 81.6406 81.3783C81.6712 81.455 81.6942 81.5393 81.7172 81.6236Z" fill="#FEDFE5"/>
<path opacity="0.6" d="M81.7172 81.6236H79.6707C79.7167 80.9721 79.7167 80.3282 79.6247 79.7763C79.6247 79.7227 79.617 79.6767 79.6094 79.623H81.0121C81.0121 79.623 81.0427 79.6844 81.0887 79.807C81.1884 80.0523 81.38 80.5428 81.5793 81.179C81.6023 81.2327 81.6176 81.2863 81.6329 81.34C81.6329 81.3553 81.6406 81.363 81.6406 81.3783C81.6712 81.455 81.6942 81.5393 81.7172 81.6236Z" fill="white"/>
<path d="M13.9222 31.956C14.9011 33.0399 15.9465 34.2172 17.0005 35.301C18.0483 36.4071 19.1045 37.4978 20.1937 38.5096C21.2837 39.5099 22.3882 40.4925 23.472 41.2598C24.0093 41.6377 24.5482 41.9688 24.9728 42.1719C25.1928 42.2854 25.3492 42.3245 25.4389 42.3651C25.4756 42.3727 25.4427 42.4149 25.5952 42.3957C25.8842 42.3635 26.4414 42.1643 26.9948 41.8845C27.5582 41.5978 28.15 41.2353 28.7394 40.8321C29.9259 40.0303 31.1086 39.0883 32.2737 38.1056C34.5908 36.1281 36.9026 33.975 39.1201 31.8135L41.6096 33.8186C39.7969 36.555 37.8477 39.1182 35.6149 41.5618C34.4966 42.7813 33.3192 43.9663 31.9847 45.0915C31.3125 45.6503 30.5997 46.1937 29.7933 46.7081C28.9747 47.2155 28.0871 47.7183 26.8247 48.0379C26.2023 48.202 25.3683 48.2602 24.6179 48.1721C23.9265 48.0778 23.3118 47.9138 22.7998 47.7214C21.7489 47.3396 20.9073 46.8721 20.117 46.3861C18.5465 45.4127 17.2113 44.3518 15.9381 43.2389C13.3887 41.0122 11.1437 38.7035 8.98828 36.1174L13.9222 31.9576V31.956Z" fill="#E7B278"/>
<path d="M41.4899 34.0855L45.2496 29.2574L40.5579 26.6865C40.5579 26.6865 37.4551 29.692 38.8371 32.9764L41.4899 34.0855Z" fill="#EBB376"/>
<path d="M43.843 24.7042L40.8797 23.5698L40.5586 26.6864L45.2511 29.2572L43.843 24.7042Z" fill="#EBB376"/>
<path opacity="0.1" d="M45.2517 29.2572L43.8436 24.7042L40.8804 23.5698L40.56 26.6864C40.56 26.6864 37.8765 29.2902 38.6184 32.2987C36.5542 34.2962 34.4188 36.276 32.2757 38.1057C31.1106 39.0883 29.9279 40.0304 28.7413 40.8321C28.1527 41.2361 27.5602 41.5986 26.9968 41.8845C26.4434 42.1643 25.8861 42.3636 25.5972 42.3958C25.4446 42.4142 25.4768 42.372 25.4408 42.3651C25.3511 42.3245 25.1948 42.2854 24.9748 42.172C24.5501 41.9688 24.0113 41.6377 23.474 41.2598C22.3901 40.4926 21.2856 39.5099 20.1957 38.5096C19.1065 37.4971 18.0502 36.4064 17.0024 35.3011C15.9485 34.2172 14.903 33.0399 13.9242 31.9561L8.99023 36.1159C11.1456 38.702 13.3907 41.0107 15.9401 43.2374C17.2132 44.3503 18.5492 45.4112 20.119 46.3846C20.91 46.8714 21.7516 47.3381 22.8017 47.7199C23.3138 47.9122 23.9285 48.0763 24.6199 48.1706C25.3703 48.2587 26.2042 48.1997 26.8266 48.0364C28.0883 47.7168 28.9759 47.214 29.7953 46.7065C30.6016 46.1922 31.3145 45.6488 31.9867 45.09C33.3212 43.9648 34.4993 42.7798 35.6168 41.5603C37.7822 39.191 39.677 36.7068 41.443 34.0639L41.492 34.0846L45.2517 29.2565V29.2572Z" fill="black"/>
<path d="M15.9943 32.6895C19.2834 34.7421 23.9797 40.9623 23.9797 40.9623L16.9348 47.187L8.43359 41.6368L15.9936 32.6895H15.9943Z" fill="#263238"/>
<path opacity="0.7" d="M23.9762 40.9614L16.9321 47.1854L11.6969 43.7668L9.04483 42.0345L8.43164 41.636L9.23645 40.6855L12.2258 37.1519L15.997 32.6909C19.2852 34.7451 23.9762 40.9614 23.9762 40.9614Z" fill="white"/>
<path opacity="0.1" d="M11.697 43.7672L9.04492 42.0349C9.10624 41.5674 9.17523 41.1151 9.23655 40.6859L12.2259 37.1523C12.2259 37.1523 12.8314 40.0727 11.697 43.7672Z" fill="black"/>
<path d="M15.997 32.691C15.7901 32.99 15.5908 33.2889 15.3915 33.5879C15.2458 33.7948 15.1079 34.0018 14.9622 34.2164C14.579 34.7989 14.2034 35.3815 13.8355 35.9717C13.4829 36.5312 13.1456 37.0831 12.816 37.6426C12.6627 37.8956 12.5171 38.1485 12.3638 38.4015V38.4091C12.2028 38.6774 12.0419 38.9533 11.8886 39.2216C11.8732 39.2523 11.8579 39.2753 11.8426 39.3059C11.7046 39.5512 11.5666 39.7965 11.4287 40.0418C11.2294 40.3943 11.0301 40.7469 10.8385 41.0995C10.5549 41.6207 10.2713 42.142 10.003 42.6555H9.99532V42.6632C9.53542 43.537 9.09086 44.4108 8.66162 45.2769C8.53898 45.5222 8.41634 45.7598 8.30137 45.9975C8.26304 46.0741 8.22471 46.1507 8.19405 46.2197C8.14039 46.327 8.08675 46.4344 8.04076 46.5417C7.90279 46.8253 7.76482 47.1089 7.63452 47.3925C7.45056 47.7834 7.2666 48.1666 7.09031 48.5576C6.96001 48.8335 6.8297 49.1094 6.70706 49.3777C6.66107 49.4927 6.60742 49.6 6.56143 49.7073C6.43879 49.9832 6.31613 50.2668 6.18583 50.5428C5.97887 51.018 5.77193 51.4856 5.57264 51.9531C5.28137 52.6276 4.99776 53.2945 4.72948 53.9537C4.55319 54.3753 4.38457 54.7815 4.21594 55.1878C3.16584 57.7709 2.27671 60.1393 1.5332 62.1706V25.0874C1.67884 25.1487 1.82446 25.21 1.97776 25.2714H1.98543C2.02376 25.2867 2.06208 25.302 2.1004 25.325C2.33802 25.4247 2.58328 25.5243 2.82856 25.6239C3.63338 25.9765 4.46888 26.3521 5.28136 26.7277C5.92522 27.0266 6.55375 27.3179 7.15162 27.6092C7.54253 27.7931 7.92579 27.9771 8.28604 28.1534C8.48533 28.253 8.67696 28.345 8.86092 28.437C8.86858 28.437 8.86857 28.4447 8.87624 28.4447C8.91456 28.4677 8.96056 28.483 8.99888 28.506C9.54309 28.7742 10.095 29.0655 10.6162 29.3568C10.7158 29.4104 10.8078 29.4641 10.9075 29.5254L10.9151 29.5331C13.7052 31.0814 15.997 32.691 15.997 32.691Z" fill="#263238"/>
<g opacity="0.7">
<path d="M15.997 32.691C15.7901 32.99 15.5908 33.2813 15.3838 33.5802C15.2458 33.7948 15.1002 34.0094 14.9622 34.2164C14.579 34.7989 14.2034 35.3815 13.8355 35.9717C13.4906 36.5235 13.1456 37.0831 12.816 37.6426C12.6627 37.8956 12.5171 38.1485 12.3638 38.4015V38.4091C12.2028 38.6774 12.0419 38.9533 11.8886 39.2216C11.8732 39.2523 11.8579 39.2753 11.8426 39.3059C11.7046 39.5512 11.5666 39.7965 11.4287 40.0418C11.2294 40.3943 11.0301 40.7469 10.8385 41.0995C10.5549 41.6207 10.2713 42.142 10.003 42.6555V42.6632H9.99532C9.53542 43.537 9.09086 44.4108 8.66162 45.2769C8.53898 45.5222 8.41634 45.7598 8.30137 45.9975C8.26304 46.0741 8.22471 46.1507 8.19405 46.2197C8.14039 46.327 8.08675 46.4344 8.04076 46.5417C7.90279 46.8253 7.76482 47.1089 7.63452 47.3925C7.45056 47.7834 7.2666 48.1666 7.09031 48.5576C6.96001 48.8335 6.83735 49.1018 6.71471 49.3777C6.66106 49.485 6.61508 49.5923 6.56143 49.7073C6.43879 49.9832 6.31613 50.2668 6.18583 50.5428C5.97887 51.018 5.77193 51.4856 5.57264 51.9531C5.28137 52.6276 4.99776 53.2945 4.72948 53.9537C4.55319 54.3753 4.38457 54.7815 4.21594 55.1878C3.16584 57.7709 2.27671 60.1393 1.5332 62.1706V25.0874C1.67884 25.1487 1.82446 25.21 1.97776 25.2714H1.98543C2.02376 25.2867 2.06208 25.302 2.1004 25.325C2.33802 25.4247 2.58328 25.5243 2.82856 25.6239C3.63338 25.9765 4.46888 26.3521 5.28136 26.7277C5.92522 27.0266 6.55375 27.3179 7.15162 27.6092C7.54253 27.7931 7.92579 27.9771 8.28604 28.1534C8.48533 28.253 8.67696 28.345 8.86092 28.437C8.86858 28.437 8.86857 28.4447 8.87624 28.4447C8.91456 28.4677 8.96056 28.483 8.99888 28.506C9.54309 28.7742 10.095 29.0655 10.6162 29.3568C10.7158 29.4104 10.8078 29.4641 10.9075 29.5254L10.9151 29.5331C13.7052 31.0814 15.997 32.691 15.997 32.691Z" fill="white"/>
</g>
<path d="M9.05254 28.6667C9.28249 29.2799 9.72706 29.9161 10.4399 30.5676C10.4399 30.5676 8.28603 31.9856 7.14395 31.6867C5.74892 31.3188 2.44534 27.0647 1.5332 25.8537V25.4551C1.67884 25.4091 1.83213 25.3478 1.97776 25.2711H1.98543C2.17706 25.1715 2.36868 25.0565 2.56031 24.9262C3.6564 24.175 4.64516 22.8873 5.48831 21.4463C5.67993 21.1014 5.87157 20.7488 6.05553 20.3962V20.3885C6.15518 20.1892 6.25483 19.99 6.34681 19.7907C6.73772 18.9935 7.07497 18.1964 7.36624 17.4452C7.42756 17.2919 7.48121 17.1462 7.53487 17.0006C7.64218 16.717 7.74183 16.4411 7.83381 16.1728C7.8798 16.0425 7.92578 15.9122 7.96411 15.7896L8.447 17.0926V17.1003L8.51598 17.2612L8.54665 17.3379V17.3455L10.8998 23.6538C10.5855 23.9911 10.2789 24.336 10.0107 24.6886C9.91868 24.8112 9.83437 24.9262 9.75006 25.0488C9.66574 25.1715 9.58141 25.2941 9.51242 25.4168C9.43577 25.5394 9.36679 25.662 9.2978 25.7923C9.23648 25.915 9.17516 26.0453 9.12917 26.1679C9.11384 26.1909 9.10619 26.2139 9.09853 26.2446C9.06021 26.3519 9.02187 26.4515 8.99121 26.5588C8.96821 26.6355 8.94523 26.7121 8.9299 26.7964C8.85325 27.1184 8.82259 27.448 8.85325 27.7852C8.86091 27.8695 8.86858 27.9539 8.88391 28.0382V28.0458C8.90691 28.1991 8.94523 28.3524 8.99888 28.5057C9.01421 28.5594 9.02955 28.613 9.05254 28.6667Z" fill="#EBB376"/>
<path opacity="0.2" d="M6.05426 20.3893L6.05271 20.3954C5.76068 23.4008 6.1102 27.0562 9.05278 28.6651C8.34914 26.8148 9.51269 25.1178 10.897 23.653L7.9636 15.791C7.53666 17.0879 6.88361 18.7796 6.05426 20.3893Z" fill="black"/>
<path d="M7.14395 31.6869C7.14395 31.6869 5.51132 32.5224 3.68706 33.2659C3.11985 32.6143 2.28437 31.5873 1.5332 30.4298V24.7041C2.06209 24.7118 2.51432 24.7807 2.51432 24.7807C2.51432 24.7807 2.52965 24.8344 2.56031 24.9264C2.6063 25.072 2.69059 25.3096 2.82856 25.6239C3.33445 26.8273 4.56852 29.1728 7.14395 31.6869Z" fill="#263238"/>
<path d="M7.14648 31.687C7.14648 31.687 8.1414 33.4047 8.50166 35.2205C10.2293 34.8909 11.2933 30.2904 10.9851 29.6082C10.1673 28.5175 8.88107 28.0361 8.88107 28.0361C8.88107 28.0361 9.05506 30.3962 7.14648 31.687Z" fill="#263238"/>
<g opacity="0.5">
<path d="M7.14395 31.6869C7.14395 31.6869 5.51132 32.5224 3.68706 33.2659C3.11985 32.6143 2.28437 31.5873 1.5332 30.4298V24.7041C2.06209 24.7118 2.51432 24.7807 2.51432 24.7807C2.51432 24.7807 2.52965 24.8344 2.56031 24.9264C2.6063 25.072 2.69059 25.3096 2.82856 25.6239C3.33445 26.8273 4.56852 29.1728 7.14395 31.6869Z" fill="white"/>
<path d="M7.14648 31.687C7.14648 31.687 8.1414 33.4047 8.50166 35.2205C10.2293 34.8909 11.2933 30.2904 10.9851 29.6082C10.1673 28.5175 8.88107 28.0361 8.88107 28.0361C8.88107 28.0361 9.05506 30.3962 7.14648 31.687Z" fill="white"/>
</g>
<path d="M21.2636 14.3819C21.285 16.3495 19.8563 19.9459 17.7101 17.9859C15.5639 16.026 21.2268 11.0001 21.2636 14.3819Z" fill="#263238"/>
<path d="M7.58425 12.8879C5.90946 17.421 4.69687 19.991 5.9409 23.2211C7.81192 28.0791 14.1869 28.4102 17.1908 24.4574C19.895 20.8993 22.1799 14.0836 18.6073 10.4596C15.0867 6.88929 9.25982 8.35483 7.58503 12.8887L7.58425 12.8879Z" fill="#EBB376"/>
<path d="M13.777 17.0139C13.6183 17.3733 13.6812 17.7474 13.918 17.8486C14.1549 17.9498 14.4745 17.7413 14.6332 17.381C14.7919 17.0215 14.7282 16.6475 14.4921 16.5463C14.2553 16.4444 13.9357 16.6536 13.777 17.0139Z" fill="#263238"/>
<path d="M17.8647 18.7684C17.706 19.1279 17.7697 19.502 18.0057 19.6031C18.2418 19.7043 18.5622 19.4958 18.7209 19.1356C18.8795 18.7761 18.8159 18.402 18.5798 18.3009C18.343 18.1997 18.0234 18.4089 17.8647 18.7684Z" fill="#263238"/>
<path d="M16.486 18.3896C16.486 18.3896 16.4484 20.7489 16.9344 22.1102C16.0552 22.4007 15.0879 21.6618 15.0879 21.6618L16.486 18.3896Z" fill="#D58745"/>
<path d="M13.0949 15.1605C13.1639 15.2019 13.2535 15.2057 13.3294 15.1636C14.2324 14.6577 14.9935 15.0386 15.0012 15.0425C15.1146 15.1007 15.2549 15.057 15.3147 14.9444C15.3737 14.8317 15.33 14.6929 15.2173 14.6347C15.1775 14.614 14.2232 14.1365 13.1033 14.7642C12.9914 14.8271 12.9516 14.9673 13.0136 15.0777C13.0336 15.1137 13.0627 15.1413 13.0957 15.1613L13.0949 15.1605Z" fill="#263238"/>
<path d="M20.2442 18.1268C20.2818 18.1498 20.3262 18.1613 20.3737 18.159C20.5017 18.1536 20.6014 18.0455 20.5968 17.9191C20.547 16.6459 19.6325 16.1048 19.595 16.0749C19.4853 16.0105 19.3428 16.0465 19.2769 16.1561C19.2117 16.265 19.247 16.4052 19.3551 16.4704C19.3941 16.4918 20.0932 16.9172 20.133 17.9398C20.1361 18.0195 20.1798 18.0884 20.2442 18.1268Z" fill="#263238"/>
<path d="M16.076 12.3014C16.076 12.3014 15.2236 10.9064 14.2663 11.61C13.3089 12.3145 12.268 14.8477 12.268 14.8477L12.2105 14.2981C12.2105 14.2981 8.24696 19.2344 6.5622 16.8468C4.87744 14.4591 3.9446 7.33606 10.5227 6.71059C10.5227 6.71059 11.6678 5.59841 15.4812 6.43696C19.2945 7.27551 22.6318 11.2705 22.3674 13.9141C22.1029 16.5578 20.5247 17.4201 20.5247 17.4201C20.6934 16.4934 20.4366 15.7484 20.4366 15.7484C20.0334 16.4689 19.099 16.4466 19.099 16.4466C19.5099 15.5345 19.398 14.9474 19.398 14.9474C19.119 15.418 18.3302 15.8181 18.3302 15.8181C19.0975 13.3071 17.6741 12.1213 17.149 11.9205C16.5029 11.6737 16.0752 12.3022 16.0752 12.3022L16.076 12.3014Z" fill="#263238"/>
<path d="M4.25791 15.816C4.10997 17.1075 4.57678 18.3439 5.26049 19.1648C6.28913 20.3996 7.72784 19.7013 8.2161 18.2557C8.6553 16.9542 8.64994 14.7436 7.24495 14.0346C5.86142 13.3363 4.4273 14.3389 4.25791 15.816Z" fill="#EBB376"/>
<path d="M14.3142 23.0908C13.6995 23.3177 12.7191 23.9148 12.7191 23.9148C12.6494 23.8358 12.5789 23.7569 12.513 23.6741C11.5893 22.578 11.5226 21.764 11.7296 21.1945C11.8438 20.8833 12.0446 20.6449 12.2293 20.4763C12.4417 20.2785 12.6379 20.1865 12.6379 20.1865C12.7805 21.0603 13.5631 22.1488 14.0053 22.7121C14.1878 22.9498 14.3142 23.0908 14.3142 23.0908Z" fill="#263238"/>
<path d="M14.005 22.7121L13.5282 22.9429C12.6605 21.9081 12.1884 21.0634 12.229 20.4763C12.4413 20.2785 12.6375 20.1865 12.6375 20.1865C12.7801 21.0603 13.5627 22.1488 14.005 22.7121Z" fill="white"/>
<path d="M12.513 23.6739C11.5893 22.5779 11.5226 21.7638 11.7296 21.1943C12.0301 21.5799 12.3489 22.0789 12.5137 22.6147C12.6417 23.024 12.6049 23.3804 12.513 23.6739Z" fill="#A24E3F"/>
<path d="M33.1658 42.992C32.4062 40.8282 33.4931 38.4559 35.5964 37.6028C37.5341 36.8171 39.855 37.5898 40.9044 39.3987C41.2194 39.9421 41.4103 40.5354 41.4731 41.131L46.4354 39.3887L44.3176 33.3572C44.2264 33.0966 44.2816 32.8076 44.4632 32.5999C44.6441 32.3914 44.9231 32.2971 45.1937 32.3523C45.8475 32.4856 46.5634 32.353 47.1873 31.9675C48.0581 31.4286 48.5517 30.3923 48.4375 29.3744C48.2328 27.541 46.4162 26.4794 44.7851 27.0519C44.3183 27.216 43.9136 27.4927 43.6139 27.8522C43.4376 28.0637 43.1609 28.1641 42.8888 28.1151C42.6175 28.066 42.3929 27.8752 42.3017 27.6146L40.1762 21.5615L25.5484 26.6978C23.7854 27.3171 22.858 29.248 23.4773 31.0109L28.6159 45.6456L33.6065 43.8934C33.428 43.6144 33.28 43.3116 33.1673 42.992H33.1658Z" fill="#FEDFE5"/>
<path opacity="0.4" d="M33.1658 42.992C32.4062 40.8282 33.4931 38.4559 35.5964 37.6028C37.5341 36.8171 39.855 37.5898 40.9044 39.3987C41.2194 39.9421 41.4103 40.5354 41.4731 41.131L46.4354 39.3887L44.3176 33.3572C44.2264 33.0966 44.2816 32.8076 44.4632 32.5999C44.6441 32.3914 44.9231 32.2971 45.1937 32.3523C45.8475 32.4856 46.5634 32.353 47.1873 31.9675C48.0581 31.4286 48.5517 30.3923 48.4375 29.3744C48.2328 27.541 46.4162 26.4794 44.7851 27.0519C44.3183 27.216 43.9136 27.4927 43.6139 27.8522C43.4376 28.0637 43.1609 28.1641 42.8888 28.1151C42.6175 28.066 42.3929 27.8752 42.3017 27.6146L40.1762 21.5615L25.5484 26.6978C23.7854 27.3171 22.858 29.248 23.4773 31.0109L28.6159 45.6456L33.6065 43.8934C33.428 43.6144 33.28 43.3116 33.1673 42.992H33.1658Z" fill="black"/>
<path d="M21.5762 46.3108L25.5259 41.6367L29.0081 45.6984C29.0081 45.6984 26.7063 49.3538 23.208 48.6785L21.5762 46.3116V46.3108Z" fill="#EBB376"/>
<path d="M29.5694 40.0195L31.4404 43.6681L29.0076 45.6985L25.5254 41.6369L29.5694 40.0195Z" fill="#EBB376"/>
<path opacity="0.1" d="M9.65806 49.1631C8.66928 49.3164 7.68816 49.3854 6.71471 49.3777H6.70706C5.35036 49.37 4.01665 49.2167 2.72126 48.9485C2.32269 48.8641 1.92412 48.7721 1.5332 48.6648V33.5342C2.0161 33.6798 2.41468 33.8561 2.68295 34.0861C3.00488 34.3543 3.30381 34.6609 3.58741 34.9982C5.97888 37.8036 7.14395 42.5942 7.14395 42.5942L5.97121 43.1844L6.99066 44.8323L8.04076 46.5416L9.65806 49.1631Z" fill="black"/>
<path d="M24.8424 48.4499C24.4745 48.5495 24.1066 48.6492 23.7386 48.7488C20.8336 49.5153 17.9209 50.0978 14.9086 50.4811C13.2146 50.6881 11.4977 50.849 9.68872 50.8413C8.78426 50.8337 7.85679 50.7953 6.85267 50.6574C6.63806 50.6267 6.41577 50.5884 6.18583 50.5424C5.89456 50.4811 5.58796 50.4044 5.25837 50.3048L4.82913 50.1668C4.67583 50.1132 4.51486 50.0442 4.36156 49.9752C4.07029 49.8679 3.70239 49.6456 3.37279 49.4386C3.13518 49.27 2.92055 49.1091 2.72126 48.9481C2.26137 48.5802 1.88579 48.2276 1.5332 47.8673V37.4736C1.56386 37.5273 1.59452 37.5733 1.62518 37.6269C2.47599 38.976 3.32679 40.3173 4.2006 41.582C4.43055 41.9116 4.6605 42.2336 4.89812 42.5478C5.11273 42.8314 5.32737 43.1074 5.53432 43.3756C5.96356 43.9199 6.46178 44.4487 6.73006 44.6864C6.73006 44.7093 6.8297 44.763 6.99066 44.832C7.20528 44.924 7.52721 45.039 7.87213 45.1156C8.12507 45.1769 8.38568 45.2306 8.66162 45.2766C9.06786 45.3456 9.50476 45.4069 9.94933 45.4452C11.4133 45.5908 12.9847 45.6445 14.5637 45.6368H14.602C15.974 45.6368 17.3767 45.6062 18.7794 45.5525C18.8024 45.5602 18.8254 45.5602 18.856 45.5525C20.0134 45.5218 21.1785 45.4682 22.3359 45.4145C22.9875 45.3762 23.639 45.3456 24.2828 45.3072L24.7964 48.1893L24.8424 48.4499Z" fill="#E7B278"/>
<path d="M6.35446 41.8738L4.89812 42.5483L1.5332 44.112V31.2578C2.27671 32.3999 2.97421 33.7029 3.58741 34.9983C5.25071 38.4782 6.35446 41.8738 6.35446 41.8738Z" fill="#263238"/>
<path opacity="0.7" d="M6.35446 41.8738L4.89812 42.5483L1.5332 44.112V31.2578C2.27671 32.3999 2.97421 33.7029 3.58741 34.9983C5.25071 38.4782 6.35446 41.8738 6.35446 41.8738Z" fill="white"/>
</svg>
