<svg width="98" height="84" viewBox="0 0 98 84" fill="none" xmlns="http://www.w3.org/2000/svg">
<path d="M7.77995 83.1566C3.48986 83.1566 0 79.6628 0 75.3697V7.77917C0 3.48909 3.48986 0 7.77995 0H89.2433C93.5334 0 97.0233 3.48985 97.0233 7.77917V75.3697C97.0233 78.6672 94.9369 81.619 91.831 82.7166L91.4999 82.8277L91.4792 82.8293C90.7594 83.047 90.0083 83.1573 89.2433 83.1573L7.77995 83.1566Z" fill="#FEDFE5"/>
<path opacity="0.5" d="M7.77995 83.1566C3.48986 83.1566 0 79.6628 0 75.3697V7.77917C0 3.48909 3.48986 0 7.77995 0H89.2433C93.5334 0 97.0233 3.48985 97.0233 7.77917V75.3697C97.0233 78.6672 94.9369 81.619 91.831 82.7166L91.4999 82.8277L91.4792 82.8293C90.7594 83.047 90.0083 83.1573 89.2433 83.1573L7.77995 83.1566Z" fill="white"/>
<path d="M95.4905 7.77991V75.3697C95.4905 78.0984 93.7505 80.4132 91.3207 81.2717L91.1827 81.3177H91.1751C90.5695 81.517 89.918 81.6243 89.2435 81.6243H7.78015C4.33091 81.6243 1.5332 78.8266 1.5332 75.3697V7.77991C1.5332 4.33067 4.33091 1.53296 7.78015 1.53296H89.2435C92.6927 1.53296 95.4905 4.33067 95.4905 7.77991Z" fill="#FEDFE5"/>
<g opacity="0.5">
<path d="M46.753 56.0617C43.9874 56.0617 41.8259 53.428 42.643 50.536C42.8944 49.6484 43.4463 48.852 44.1982 48.317C45.2943 47.5367 46.5859 47.3343 47.7418 47.6056V42.3482H41.3568C41.0809 42.3482 40.8264 42.2003 40.69 41.9604C40.5536 41.7197 40.5574 41.4261 40.6984 41.1885C41.0426 40.6136 41.1537 39.8908 40.9935 39.1726C40.7705 38.1731 39.9526 37.366 38.9539 37.1391C37.1595 36.7313 35.5613 38.0919 35.5613 39.818C35.5613 40.3124 35.6886 40.7861 35.9285 41.1878C36.0695 41.4246 36.0734 41.7189 35.9369 41.9596C35.8005 42.1988 35.546 42.3475 35.2701 42.3475H28.8545V57.8507C28.8545 59.7194 30.3691 61.234 32.2378 61.234H47.741V55.9467C47.4198 56.0225 47.0872 56.0609 46.7522 56.0609L46.753 56.0617Z" fill="white"/>
<path d="M50.2724 27.0949C53.0034 27.0949 55.1466 29.6642 54.4107 32.5133C54.0842 33.7788 53.1598 34.8534 51.9464 35.3394C51.0596 35.6943 50.126 35.7502 49.276 35.5494V40.816H55.6609C55.9353 40.816 56.1882 40.9624 56.3254 41.2008C56.4619 41.4384 56.4611 41.7312 56.3231 41.968C55.9077 42.6824 55.8341 43.593 56.176 44.4369C56.4695 45.1605 57.0988 45.7269 57.8446 45.9569C59.7287 46.5371 61.4625 45.1367 61.4625 43.3385C61.4625 42.8503 61.3368 42.3773 61.0992 41.9688C60.9612 41.7319 60.9604 41.4391 61.0969 41.2015C61.2341 40.9639 61.487 40.8168 61.7614 40.8168H68.1678V25.3067C68.1678 23.4379 66.6532 21.9233 64.7845 21.9233H49.2744V27.2122C49.5971 27.1355 49.9313 27.0964 50.2709 27.0964L50.2724 27.0949Z" fill="white"/>
</g>
<path d="M70.9332 68.3785C68.8874 69.9559 66.814 71.3356 64.5889 72.644C63.4767 73.2963 62.3293 73.9156 61.0998 74.4721C60.4667 74.7427 59.8366 75.0186 59.123 75.2424C58.4178 75.4678 57.623 75.6755 56.5974 75.7307C56.3161 75.7384 55.8669 75.7069 55.5442 75.6295C55.2093 75.5429 54.862 75.4371 54.6014 75.2938C54.4635 75.2248 54.3194 75.1535 54.1937 75.0776L53.8533 74.8439C53.6142 74.6829 53.4532 74.5196 53.2685 74.3525C52.5832 73.6857 52.1563 73.0295 51.7784 72.3895C51.038 71.1095 50.5842 69.8562 50.1719 68.6099C49.4023 66.1004 48.8956 63.6484 48.622 61.0883C48.543 60.3509 49.0773 59.6902 49.8139 59.6112C50.4363 59.5446 51.005 59.9155 51.2143 60.4766L51.2311 60.5234C51.6428 61.6287 52.0651 62.7784 52.5204 63.8791C52.9573 64.9905 53.4272 66.082 53.9446 67.1176C54.442 68.1531 55 69.1557 55.5826 69.9528C55.8685 70.3445 56.1812 70.6856 56.4111 70.8443C56.4633 70.8742 56.5223 70.9278 56.5483 70.9248C56.5644 70.9309 56.5782 70.9378 56.5913 70.9478C56.5989 70.9478 56.5974 70.934 56.5974 70.934C56.6058 70.9447 56.5637 70.8979 56.5238 70.8964C56.5 70.878 56.3636 70.865 56.3866 70.8642C56.4502 70.8412 56.5123 70.8243 56.5752 70.8113L56.6694 70.796L56.8166 70.7431C57.0236 70.6596 57.1968 70.6312 57.4398 70.5108C57.8874 70.3254 58.3741 70.087 58.8578 69.8409C59.8343 69.309 60.8285 68.7134 61.8226 68.0956C63.7887 66.8271 65.7854 65.4359 67.6863 64.0761L67.7216 64.0508C68.9326 63.1847 70.6159 63.4644 71.482 64.6747C72.3282 65.8575 72.0768 67.4955 70.9355 68.3777L70.9332 68.3785Z" fill="#D9877C"/>
<path d="M70.9871 63.243C65.9275 62.0434 62.5595 67.2755 56.1968 70.6512L55.9385 76.475C55.9385 76.475 62.988 76.186 68.4247 71.0865C73.8615 65.9878 70.9871 63.243 70.9871 63.243Z" fill="#FEDFE5"/>
<path opacity="0.7" d="M68.4246 71.0849C67.819 71.6521 67.1905 72.158 66.5543 72.6179C65.4965 73.3691 64.4158 73.9823 63.3733 74.4728C63.0591 74.6185 62.7448 74.7565 62.4459 74.8868C60.8362 75.5536 59.3492 75.9368 58.1995 76.1668C56.8121 76.4351 55.9307 76.4734 55.9307 76.4734L56.1989 70.6557C62.5609 67.2754 65.9258 62.0403 70.9847 63.2437C70.9847 63.2437 73.859 65.9877 68.4246 71.0849Z" fill="white"/>
<path d="M56.5746 70.0632L55.4985 69.9153L53.6221 76.1554L56.1998 77.8148C56.1998 77.8148 58.0195 72.6992 56.5738 70.0632H56.5746Z" fill="#FEDFE5"/>
<path opacity="0.6" d="M56.5746 70.0632L55.4985 69.9153L53.6221 76.1554L56.1998 77.8148C56.1998 77.8148 58.0195 72.6992 56.5738 70.0632H56.5746Z" fill="white"/>
<path opacity="0.1" d="M67.3902 69.322C67.2369 70.3338 66.9456 71.4605 66.5547 72.618C65.4969 73.3691 64.4162 73.9823 63.3737 74.4729C63.0595 74.6185 62.7452 74.7565 62.4463 74.8868C64.4928 71.4606 67.3902 69.322 67.3902 69.322Z" fill="black"/>
<path d="M93.4288 61.0515C93.0685 62.002 93.6817 62.2013 93.6817 62.2013C92.4477 62.2779 90.8227 59.9861 92.4783 58.8594C94.1339 57.7249 93.3291 56.9125 92.4017 55.2338C91.4819 53.5629 93.9116 52.4131 93.904 50.5429C93.8963 48.6803 92.2177 48.9715 92.2177 48.9715C92.5396 51.2327 90.6081 57.518 85.6718 57.1041L85.4419 57.0811C85.2962 57.0658 85.1583 57.0428 85.0203 57.0198C84.6217 56.9585 84.2308 56.8818 83.8475 56.7898C82.6441 56.5062 81.4944 56.0846 80.4366 55.5941C80.1913 55.4791 79.9537 55.3641 79.7238 55.2415C79.4402 55.0959 79.1719 54.9502 78.9036 54.7893C77.4856 53.9768 76.2975 53.0646 75.4467 52.2522C75.0252 51.8536 74.6879 51.4856 74.4503 51.156C73.0859 49.2935 75.1325 47.6915 76.6271 47.2699C78.1218 46.8407 76.3359 44.6562 77.0104 43.3148C77.6772 41.9734 79.6701 41.8584 81.2644 42.1727C82.8664 42.487 81.8163 41.2223 84.2155 40.9693C86.6146 40.7164 91.1446 43.5601 91.0373 44.9398C91.0373 44.9398 91.1599 43.0695 93.3751 42.4257C93.9423 42.2647 94.7395 42.2187 95.4906 42.3643V60.2314C94.5478 60.653 93.6587 60.4383 93.4288 61.0515Z" fill="#263238"/>
<path opacity="0.7" d="M72.005 71.7718C78.1485 67.7484 84.6024 65.3899 84.6024 65.3899C84.2199 65.2757 84.5779 65.3462 84.1816 65.242C81.1953 64.4601 78.7464 63.8431 76.0184 63.5204C75.3316 63.4407 74.6249 63.3748 73.9297 63.3112V63.3165C71.5451 66.9091 72.005 71.7718 72.005 71.7718Z" fill="white"/>
<path d="M89.9336 69.3451C89.9259 69.391 89.9106 69.4447 89.8953 69.506C89.88 69.575 89.8646 69.6517 89.8416 69.736C89.8033 69.8509 89.765 69.9889 89.7113 70.1422C89.6807 70.2189 89.65 70.3032 89.6117 70.3952V70.4028C89.5427 70.5868 89.4584 70.7861 89.3587 71.0084C89.3281 71.0773 89.2897 71.1463 89.2591 71.223C89.1824 71.3839 89.0981 71.5526 89.0062 71.7442C88.9448 71.8515 88.8835 71.9741 88.8222 72.0968C88.5692 72.572 88.324 73.0549 88.0863 73.5301C88.0404 73.6298 87.9867 73.7218 87.9407 73.8214C87.7031 74.2813 87.4732 74.7489 87.2509 75.2011C86.8676 75.9753 86.4997 76.7418 86.1548 77.4929C85.9632 77.8915 85.7792 78.2901 85.6106 78.681C85.4649 78.9799 85.3346 79.2789 85.2043 79.5778V79.5854C84.959 80.1297 84.7214 80.6586 84.5068 81.1874C84.4378 81.3331 84.3765 81.4787 84.3152 81.6243H63.8037C64.0643 79.7158 64.3326 77.7995 64.5242 76.6574C64.6469 75.8603 64.7695 75.1628 64.8768 74.5496C64.9381 74.2047 64.9994 73.8827 65.0608 73.5915V73.5838C65.1297 73.2619 65.1911 72.9706 65.2524 72.7023C65.2907 72.5184 65.329 72.3497 65.3674 72.1811C65.3904 72.0891 65.4134 71.9971 65.4364 71.9128C65.536 71.4913 65.6356 71.1233 65.7353 70.7707C65.8656 70.2802 65.9882 69.8279 66.1032 69.3451V69.3374C66.1569 69.1228 66.2182 68.9081 66.2872 68.6935C66.3408 68.5249 66.4021 68.3486 66.4711 68.18V68.1723C66.6244 67.7891 66.7854 67.4211 66.9617 67.0609C67.1456 66.7006 67.3296 66.3557 67.5212 66.0261C67.7129 65.6965 67.9045 65.3899 68.0961 65.1063C68.1344 65.045 68.1804 64.9837 68.2187 64.9224C68.6403 64.3168 69.0082 63.8416 69.2458 63.5503C69.2458 63.5427 69.2535 63.535 69.2688 63.5273C69.3685 63.4047 69.4451 63.3127 69.4835 63.2667L69.5065 63.2437L69.5141 63.2361V63.2284C69.5601 63.2284 69.79 63.2361 70.1196 63.2437C70.1503 63.2437 70.181 63.2514 70.2193 63.2437C70.3803 63.2514 70.5642 63.2514 70.7635 63.2514C70.8401 63.2591 70.9168 63.2591 71.0011 63.2591H71.1391C71.2617 63.2591 71.392 63.2667 71.5223 63.2667C72.2658 63.2821 73.0323 63.2897 73.4999 63.2974C73.7298 63.305 73.8908 63.3127 73.9291 63.3127C74.5883 63.374 75.2628 63.4354 75.9144 63.512C75.945 63.512 75.9834 63.512 76.014 63.5197C76.1443 63.535 76.2746 63.5503 76.3973 63.5733C78.8347 63.8799 81.0806 64.4318 83.7173 65.1216C83.8706 65.16 84.0239 65.206 84.1772 65.2443C84.2309 65.2596 84.2692 65.2673 84.2998 65.275C84.3612 65.2903 84.3842 65.298 84.3918 65.3056L84.3995 65.3133C84.4072 65.3209 84.4148 65.3286 84.6064 65.3899C84.6678 65.4053 84.8517 65.5126 85.12 65.6812C85.4573 65.8958 85.9325 66.2101 86.4461 66.555C86.4461 66.5601 86.4486 66.5627 86.4537 66.5627C86.607 66.6623 86.7603 66.7696 86.9213 66.8693C88.209 67.7354 89.604 68.7012 89.9029 68.9005V68.9081C89.9106 68.9081 89.9106 68.9158 89.9183 68.9158C89.926 68.9235 89.9336 68.9235 89.9336 68.9311C89.9413 68.9235 89.9413 68.9311 89.9413 68.9311L89.9489 68.9388C89.9489 68.9388 89.9796 69.0461 89.9336 69.3451Z" fill="#FEDFE5"/>
<path opacity="0.7" d="M89.9336 69.3451C89.9259 69.3911 89.9106 69.4447 89.8953 69.506C89.88 69.575 89.8646 69.6517 89.8416 69.736C89.8033 69.851 89.765 69.9889 89.7113 70.1422C89.6807 70.2189 89.65 70.3032 89.6117 70.3952V70.4028C89.5427 70.5868 89.4584 70.7861 89.3587 71.0084C89.3281 71.0774 89.2897 71.1463 89.2591 71.223C89.1824 71.384 89.0981 71.5526 89.0062 71.7442C88.9448 71.8515 88.8835 71.9742 88.8222 72.0968C88.5692 72.572 88.324 73.0549 88.0863 73.5301C88.0404 73.6298 87.9867 73.7218 87.9407 73.8214C87.3122 75.0631 86.7143 76.2895 86.1548 77.4929C85.9708 77.8915 85.7945 78.2901 85.6106 78.681V78.6887C85.4726 78.9876 85.3423 79.2789 85.2043 79.5778V79.5855C84.9667 80.122 84.7291 80.6586 84.5068 81.1875C84.4455 81.3331 84.3842 81.4787 84.3228 81.6244H63.8037C64.0643 79.7158 64.3326 77.7995 64.5242 76.6575C64.6469 75.8603 64.7695 75.1628 64.8768 74.5496C64.9458 74.2047 65.0071 73.8904 65.0608 73.5915L65.0684 73.5838V73.5761C65.0991 73.4152 65.1297 73.2695 65.1604 73.1239C65.1911 72.9783 65.2217 72.8403 65.2524 72.7023C65.2754 72.595 65.2984 72.503 65.3214 72.4034C65.3444 72.3267 65.3597 72.2501 65.3827 72.1734C65.398 72.0815 65.421 71.9972 65.444 71.9128C65.4977 71.7059 65.5437 71.5066 65.5896 71.315C65.6433 71.1234 65.6893 70.947 65.7353 70.7707C65.8656 70.2802 65.9882 69.828 66.1032 69.3451V69.3374C66.1569 69.1228 66.2182 68.9082 66.2872 68.7012V68.6935C66.3485 68.5172 66.4098 68.3486 66.4711 68.18V68.1723C66.6244 67.7891 66.7854 67.4212 66.9617 67.0609C67.1456 66.7006 67.3296 66.3557 67.5212 66.0261C67.7129 65.6966 67.9045 65.3899 68.0961 65.1063C68.1344 65.045 68.1804 64.9837 68.2187 64.9224C68.6403 64.3169 69.0082 63.8416 69.2458 63.5504H69.2535C69.2535 63.5427 69.2612 63.535 69.2688 63.5274C69.3685 63.4047 69.4451 63.3127 69.4835 63.2668L69.5065 63.2438L69.5141 63.2361C69.5601 63.2361 69.79 63.2438 70.1196 63.2438C70.1503 63.2438 70.181 63.2514 70.2193 63.2438C70.3803 63.2514 70.5642 63.2514 70.7635 63.2514C70.8172 63.2591 70.8632 63.2591 70.9168 63.2591C70.9398 63.2591 70.9705 63.2591 70.9935 63.2514C71.0395 63.2591 71.0931 63.2591 71.1391 63.2591C71.2617 63.2591 71.392 63.2668 71.5223 63.2668C71.7063 63.2668 71.8979 63.2744 72.0819 63.2744C72.6414 63.2821 73.1626 63.2897 73.5152 63.2897H73.5229C73.7452 63.2974 73.8908 63.3051 73.9291 63.3051C74.2664 63.3357 74.596 63.3664 74.9256 63.4047C75.2629 63.4354 75.5848 63.4737 75.9144 63.512C75.945 63.512 75.9834 63.512 76.014 63.5197C76.1443 63.535 76.2746 63.5503 76.3973 63.5733C76.6349 63.604 76.8725 63.6347 77.1101 63.673C77.3554 63.7037 77.593 63.742 77.8383 63.788C79.7469 64.1022 81.6095 64.5698 83.7173 65.1217C83.8706 65.16 84.0239 65.206 84.1772 65.2443C84.2309 65.2596 84.2692 65.2673 84.2998 65.275C84.3612 65.2903 84.3842 65.298 84.3918 65.3056L84.3995 65.3133C84.4072 65.3286 84.4148 65.344 84.5911 65.3976H84.6064C84.6678 65.4129 84.8517 65.5279 85.1277 65.7042C85.4649 65.9112 85.9325 66.2177 86.4461 66.555C86.4461 66.5601 86.4486 66.5627 86.4537 66.5627C86.607 66.6623 86.7603 66.7696 86.9213 66.8693C88.209 67.7354 89.604 68.7012 89.9029 68.9005V68.9082C89.9106 68.9082 89.9106 68.9158 89.9183 68.9158H89.9259C89.9336 68.9158 89.9336 68.9312 89.9336 68.9312H89.9413L89.9489 68.9388H89.9566C89.9566 68.9388 89.9873 69.0461 89.9336 69.3451Z" fill="white"/>
<path opacity="0.2" d="M73.9916 71.3786C73.9647 71.5326 74.0675 71.6798 74.2215 71.7074C74.3756 71.735 74.5227 71.6315 74.5503 71.4775C74.5779 71.3234 74.4745 71.1762 74.3204 71.1486C74.1663 71.121 74.0192 71.2245 73.9916 71.3786Z" fill="black"/>
<path opacity="0.2" d="M71.932 77.1104C71.9052 77.2645 72.0079 77.4117 72.1619 77.4393C72.316 77.4669 72.4632 77.3634 72.4907 77.2093C72.5183 77.0553 72.4149 76.9081 72.2608 76.8805C72.1067 76.8537 71.9596 76.9564 71.932 77.1104Z" fill="black"/>
<path d="M80.3411 62.5439C73.0395 61.2386 69.7021 66.3741 69.7021 66.3741L73.2602 66.2783C73.2602 66.2783 73.7408 69.5681 74.7066 70.6159C74.7066 70.6159 79.2834 70.3591 81.8856 68.3808L84.9018 69.8134C84.9018 69.8134 87.6765 63.8546 80.3411 62.5439Z" fill="#FEDFE5"/>
<path opacity="0.6" d="M80.3411 62.5439C73.0395 61.2386 69.7021 66.3741 69.7021 66.3741L73.2602 66.2783C73.2602 66.2783 73.7408 69.5681 74.7066 70.6159C74.7066 70.6159 79.2834 70.3591 81.8856 68.3808L84.9018 69.8134C84.9018 69.8134 87.6765 63.8546 80.3411 62.5439Z" fill="white"/>
<path d="M74.7549 64.4931C73.3338 67.4978 74.7059 70.6151 74.7059 70.6151C80.545 69.8433 83.7306 65.1485 83.7306 65.1485C82.3977 63.0345 84.2848 58.4086 85.5503 55.9275L83.0438 57.1976L79.3148 59.0816C79.2972 59.645 79.0918 60.3854 78.7997 61.0814C78.3667 62.0855 77.7458 62.9923 77.2161 63.1149L74.7549 64.4923V64.4931Z" fill="#D9877C"/>
<path opacity="0.2" d="M78.7988 61.0822C80.1647 61.0186 82.1254 59.9624 82.639 58.6685C82.8521 58.122 83 57.5762 83.0437 57.1984L79.3147 59.0824C79.2971 59.6458 79.0916 60.3862 78.7996 61.0822H78.7988Z" fill="black"/>
<path d="M88.9056 51.1324C87.2132 55.2056 86.5839 56.9601 83.7341 58.4831C79.4478 60.7742 74.7883 58.0991 75.2237 53.6741C75.6153 49.6914 78.318 43.7004 82.9837 43.2229C87.5804 42.753 90.5988 47.0592 88.9056 51.1324Z" fill="#D9877C"/>
<path d="M83.3397 50.6947C83.2125 51.0427 82.9258 51.2719 82.6997 51.206C82.4736 51.1408 82.3931 50.8051 82.5203 50.4571C82.6476 50.1091 82.9342 49.88 83.1604 49.9459C83.3865 50.011 83.467 50.3467 83.3397 50.6947Z" fill="#263238"/>
<path d="M78.9745 49.2843C78.8472 49.6323 78.5606 49.8615 78.3345 49.7956C78.1083 49.7304 78.0279 49.3947 78.1551 49.0467C78.2823 48.6987 78.569 48.4696 78.7951 48.5355C79.0212 48.6006 79.1017 48.9363 78.9745 49.2843Z" fill="#263238"/>
<path d="M78.8892 48.5845L78.1465 48.1031C78.1465 48.1031 78.3343 48.8796 78.8892 48.5845Z" fill="#263238"/>
<path d="M80.0399 50.4387C80.0399 50.4387 78.9047 51.767 77.9941 52.3028C78.2938 52.8639 79.1423 52.893 79.1423 52.893L80.0399 50.4387Z" fill="#DE5753"/>
<path d="M84.7878 48.7025C84.7327 48.6918 84.6828 48.6596 84.6537 48.6083C84.1946 47.8088 83.402 47.7919 83.3928 47.7912C83.2756 47.7889 83.1851 47.6938 83.1951 47.5758C83.2051 47.4585 83.3093 47.3642 83.4289 47.365C83.4703 47.365 84.4659 47.3865 85.0354 48.3791C85.0921 48.4779 85.0531 48.6098 84.9481 48.6726C84.8975 48.7033 84.8407 48.7117 84.7886 48.7018L84.7878 48.7025Z" fill="#263238"/>
<path d="M78.0077 46.4713C77.954 46.4682 77.9034 46.4452 77.8674 46.4031C77.793 46.3165 77.8084 46.1823 77.9019 46.1026C78.8393 45.3062 79.7913 45.5369 79.8319 45.5477C79.9454 45.5768 80.0067 45.6925 79.9691 45.806C79.9316 45.9194 79.8089 45.9884 79.6963 45.96C79.6595 45.9501 78.9175 45.7822 78.1725 46.4153C78.1242 46.456 78.0636 46.4743 78.0077 46.4713Z" fill="#263238"/>
<path d="M83.2545 49.994L82.5117 49.5127C82.5117 49.5127 82.6995 50.2892 83.2545 49.994Z" fill="#263238"/>
<path d="M86.2986 53.2049C86.2986 53.2049 84.7487 49.8017 87.1279 45.5875C87.1279 45.5875 82.8164 42.474 78.6328 45.3353C78.6328 45.3353 82.9773 40.0932 89.4228 44.1028C95.8683 48.1123 89.468 53.8519 88.513 54.255C87.5572 54.6582 86.2993 53.2049 86.2993 53.2049H86.2986Z" fill="#263238"/>
<path d="M89.1084 54.9449C88.345 55.6501 87.3715 55.939 86.5759 55.8938C85.3794 55.8256 85.2507 54.5823 85.9765 53.589C86.6296 52.6945 88.0399 51.652 89.0517 52.2077C90.0489 52.755 89.9815 54.1386 89.1084 54.9449Z" fill="#D9877C"/>
<path d="M78.7227 53.8345C78.8997 54.4661 78.9925 55.6128 78.9925 55.6128C79.0975 55.6227 79.2033 55.6335 79.309 55.6381C80.7416 55.7423 81.4407 55.3177 81.781 54.8148C81.9665 54.5389 82.0408 54.2361 82.0692 53.987C82.1044 53.6988 82.0646 53.4857 82.0646 53.4857C81.272 53.8843 79.9299 53.8897 79.2125 53.8628C78.912 53.8544 78.7234 53.8353 78.7234 53.8353L78.7227 53.8345Z" fill="#263238"/>
<path d="M79.2119 53.8618L79.3054 54.3838C80.6545 54.4789 81.6172 54.3647 82.0694 53.986C82.1047 53.6978 82.0648 53.4847 82.0648 53.4847C81.2723 53.8833 79.9301 53.8887 79.2127 53.8618H79.2119Z" fill="white"/>
<path d="M79.3086 55.6378C80.7412 55.7421 81.4402 55.3174 81.7806 54.8146C81.2908 54.7977 80.699 54.8322 80.1671 55.0139C79.7601 55.1511 79.4926 55.3895 79.3086 55.6378Z" fill="#DE5753"/>
<path d="M48.4033 60.499L48.4754 56.2526L52.6903 58.3558C52.6903 58.3558 52.3975 62.1408 50.4537 61.9078L48.4033 60.499Z" fill="#D9877C"/>
<path d="M50.7038 52.8922L53.7345 55.7351L52.6906 58.355L48.4756 56.2518L50.7038 52.8922Z" fill="#D9877C"/>
<path d="M68.2046 54.6804C67.2901 56.8588 64.7737 57.8875 62.5953 56.973C60.417 56.0586 59.3883 53.5422 60.3027 51.3638C60.4323 51.0549 60.5963 50.7629 60.791 50.4961L55.936 48.458L53.4679 54.3386C53.3621 54.5908 53.1283 54.7686 52.8562 54.8023C52.5841 54.8368 52.3143 54.7234 52.1495 54.5034C51.6635 53.8595 50.8779 53.4433 50.0025 53.4157C49.0322 53.385 48.1001 53.9208 47.6042 54.7556C46.7304 56.2249 47.3788 58.0745 48.8973 58.7122C49.3464 58.9008 49.8316 58.9682 50.3015 58.9069C50.5736 58.8709 50.8434 58.9836 51.0105 59.202C51.1768 59.4205 51.2136 59.7109 51.1078 59.9639L48.6282 65.8721L62.9295 71.8753C64.6526 72.5981 66.6355 71.7879 67.3583 70.0648L73.3585 55.7704L68.4836 53.7238C68.4291 54.0488 68.3356 54.3708 68.2061 54.6797L68.2046 54.6804Z" fill="white"/>
<path d="M72.9141 71L71.25 67.0924L68.1357 70.6267C68.1357 70.6267 69.8313 74.0238 71.5444 73.0765L72.9141 71Z" fill="#D9877C"/>
<path d="M67.8293 64.6442L66.1836 68.5924L68.1366 70.6267L71.2502 67.0924L67.8293 64.6442Z" fill="#D9877C"/>
<path opacity="0.1" d="M85.2035 79.5778V79.5855C84.9659 80.122 84.7283 80.6586 84.506 81.1875C84.4447 81.3331 84.3834 81.4787 84.322 81.6243H77.7148C77.8145 79.8461 78.2897 78.6887 78.2897 78.6887L78.7803 78.8803L80.5815 79.5931C81.1487 77.4776 81.8846 75.8756 82.4595 74.8179V74.8102C83.0037 73.8214 83.4023 73.3079 83.4023 73.3079C83.4023 73.3079 83.5939 73.898 83.8851 74.8715C84.2301 76.0136 84.713 77.6922 85.2035 79.5778Z" fill="black"/>
<path opacity="0.1" d="M85.6074 78.6856C86.321 77.1066 87.0974 75.4763 87.9414 73.8191C87.5903 73.0258 87.1381 72.3236 86.5793 71.8285C86.5793 71.8285 84.7221 75.93 85.6074 78.6856Z" fill="black"/>
<path d="M89.611 70.4028V70.3951C89.243 69.8279 88.6528 69.3987 87.94 69.2377C86.4913 68.9158 85.0503 69.8279 84.7284 71.2843L84.7054 71.3686C84.4601 72.4647 84.2072 73.6681 83.9006 74.7948C83.8929 74.8178 83.8852 74.8485 83.8852 74.8715C83.6093 75.9906 83.3027 77.0943 82.9424 78.1368C82.5745 79.1792 82.1759 80.2446 81.7314 80.9421C81.6854 81.0341 81.6241 81.1108 81.5781 81.1797C81.5474 81.2181 81.5244 81.2487 81.5014 81.2794C81.2868 81.1798 81.0109 81.0034 80.7349 80.7888C80.7119 80.7735 80.6966 80.7582 80.6736 80.7428C80.3287 80.4669 79.9684 80.1296 79.6235 79.777L79.5162 79.6697C79.2633 79.4168 79.018 79.1562 78.7804 78.8803C78.2591 78.2977 77.7609 77.6615 77.2474 77.0253C76.5115 76.0902 75.8064 75.1091 75.1165 74.1126C74.4037 73.1315 73.7291 72.0968 73.0623 71.1003V71.0926L73.0393 71.0543C72.9856 70.97 72.9167 70.8933 72.84 70.8244C72.6101 70.6021 72.2958 70.4794 71.9739 70.4641C71.8052 70.4564 71.6213 70.4871 71.4527 70.5484C70.7551 70.809 70.4102 71.5832 70.6708 72.2807C70.7935 72.6026 70.9161 72.9246 71.0464 73.2388C71.8742 75.3007 72.8477 77.2706 73.9668 79.2328C74.4267 80.0453 74.9325 80.8348 75.4921 81.6243H87.1965C87.4724 81.0648 87.7024 80.5129 87.917 79.961C88.8905 77.4162 89.5497 74.9634 90.0096 72.3344C90.1322 71.6445 89.9712 70.9623 89.611 70.4028Z" fill="#D9877C"/>
<path d="M87.304 81.6243H80.6201L80.7351 80.7888L80.7887 80.4362C80.8807 80.3136 80.9804 80.0913 81.0877 79.8077C81.6472 78.359 82.3601 75.2701 82.4597 74.8178V74.8101C82.475 74.7795 82.475 74.7642 82.475 74.7642C85.0811 66.6086 89.3812 68.6245 89.9024 68.9081C89.9101 68.9081 89.9101 68.9158 89.9177 68.9158H89.9254C89.9331 68.9158 89.9331 68.9311 89.9331 68.9311H89.9407L89.9484 68.9388H89.9561C89.9561 68.9388 91.5427 73.1238 87.304 81.6243Z" fill="#FEDFE5"/>
<path opacity="0.7" d="M87.304 81.6243H80.6201L80.7351 80.7888L80.7887 80.4362C80.8807 80.3136 80.9804 80.0913 81.0877 79.8077C81.6472 78.359 82.3601 75.2701 82.4597 74.8178V74.8101C82.475 74.7795 82.475 74.7642 82.475 74.7642C85.0811 66.6086 89.3812 68.6245 89.9024 68.9081C89.9101 68.9081 89.9101 68.9158 89.9177 68.9158H89.9254C89.9331 68.9158 89.9331 68.9311 89.9331 68.9311H89.9407L89.9484 68.9388H89.9561C89.9561 68.9388 91.5427 73.1238 87.304 81.6243Z" fill="white"/>
<path d="M81.7163 81.6243H79.6697C79.7157 80.9728 79.7157 80.3289 79.6237 79.7771C79.6237 79.7234 79.6161 79.6774 79.6084 79.6238H81.0111C81.0111 79.6238 81.0417 79.6851 81.0877 79.8077C81.1874 80.053 81.379 80.5436 81.5783 81.1798C81.6013 81.2334 81.6166 81.2871 81.632 81.3407C81.632 81.3561 81.6396 81.3637 81.6396 81.3791C81.6703 81.4557 81.6933 81.54 81.7163 81.6243Z" fill="#FEDFE5"/>
<path opacity="0.6" d="M81.7163 81.6243H79.6697C79.7157 80.9728 79.7157 80.3289 79.6237 79.7771C79.6237 79.7234 79.6161 79.6774 79.6084 79.6238H81.0111C81.0111 79.6238 81.0417 79.6851 81.0877 79.8077C81.1874 80.053 81.379 80.5436 81.5783 81.1798C81.6013 81.2334 81.6166 81.2871 81.632 81.3407C81.632 81.3561 81.6396 81.3637 81.6396 81.3791C81.6703 81.4557 81.6933 81.54 81.7163 81.6243Z" fill="white"/>
<path d="M13.9232 31.956C14.902 33.0399 15.9475 34.2172 17.0015 35.301C18.0493 36.4071 19.1055 37.4978 20.1947 38.5096C21.2846 39.5099 22.3892 40.4925 23.473 41.2598C24.0103 41.6377 24.5492 41.9688 24.9738 42.1719C25.1938 42.2854 25.3502 42.3245 25.4398 42.3651C25.4766 42.3727 25.4436 42.4149 25.5962 42.3957C25.8852 42.3635 26.4424 42.1643 26.9958 41.8845C27.5592 41.5978 28.1509 41.2353 28.7404 40.8321C29.9269 40.0303 31.1096 39.0883 32.2747 38.1056C34.5918 36.1281 36.9036 33.975 39.121 31.8135L41.6106 33.8186C39.7979 36.555 37.8487 39.1182 35.6159 41.5618C34.4975 42.7813 33.3202 43.9663 31.9857 45.0915C31.3135 45.6503 30.6007 46.1937 29.7943 46.7081C28.9757 47.2155 28.0881 47.7183 26.8256 48.0379C26.2033 48.202 25.3693 48.2602 24.6189 48.1721C23.9275 48.0778 23.3128 47.9138 22.8008 47.7214C21.7499 47.3396 20.9083 46.8721 20.118 46.3861C18.5475 45.4127 17.2122 44.3518 15.9391 43.2389C13.3897 41.0122 11.1446 38.7035 8.98926 36.1174L13.9232 31.9576V31.956Z" fill="#E7B278"/>
<path d="M41.4909 34.0854L45.2506 29.2572L40.5589 26.6864C40.5589 26.6864 37.4561 29.6918 38.838 32.9763L41.4909 34.0854Z" fill="#EBB376"/>
<path d="M43.843 24.7042L40.8797 23.5698L40.5586 26.6864L45.2511 29.2572L43.843 24.7042Z" fill="#EBB376"/>
<path opacity="0.1" d="M45.2507 29.2572L43.8427 24.7042L40.8794 23.5698L40.559 26.6864C40.559 26.6864 37.8755 29.2902 38.6175 32.2987C36.5533 34.2962 34.4178 36.276 32.2747 38.1057C31.1096 39.0883 29.9269 40.0304 28.7403 40.8321C28.1517 41.2361 27.5592 41.5986 26.9958 41.8845C26.4424 42.1643 25.8852 42.3636 25.5962 42.3958C25.4437 42.4142 25.4758 42.372 25.4398 42.3651C25.3501 42.3245 25.1938 42.2854 24.9738 42.172C24.5492 41.9688 24.0103 41.6377 23.473 41.2598C22.3892 40.4926 21.2846 39.5099 20.1947 38.5096C19.1055 37.4971 18.0493 36.4064 17.0015 35.3011C15.9475 34.2172 14.902 33.0399 13.9232 31.9561L8.98926 36.1159C11.1446 38.702 13.3897 41.0107 15.9391 43.2374C17.2122 44.3503 18.5482 45.4112 20.118 46.3846C20.909 46.8714 21.7507 47.3381 22.8008 47.7199C23.3128 47.9122 23.9275 48.0763 24.6189 48.1706C25.3693 48.2587 26.2033 48.1997 26.8256 48.0364C28.0873 47.7168 28.9749 47.214 29.7943 46.7065C30.6006 46.1922 31.3135 45.6488 31.9857 45.09C33.3202 43.9648 34.4983 42.7798 35.6158 41.5603C37.7812 39.191 39.676 36.7068 41.442 34.0639L41.491 34.0846L45.2507 29.2565V29.2572Z" fill="black"/>
<path d="M15.9943 32.6896C19.2834 34.7423 23.9797 40.9624 23.9797 40.9624L16.9348 47.1871L8.43359 41.6369L15.9936 32.6896H15.9943Z" fill="#263238"/>
<path opacity="0.7" d="M23.9762 40.9617L16.9321 47.1856L11.6969 43.7671L9.04483 42.0348L8.43164 41.6362L9.23645 40.6857L12.2258 37.1522L15.997 32.6912C19.2852 34.7454 23.9762 40.9617 23.9762 40.9617Z" fill="white"/>
<path opacity="0.1" d="M11.697 43.767L9.04492 42.0347C9.10624 41.5671 9.17523 41.1149 9.23655 40.6856L12.2259 37.1521C12.2259 37.1521 12.8314 40.0725 11.697 43.767Z" fill="black"/>
<path d="M15.997 32.6912C15.7901 32.9901 15.5908 33.289 15.3915 33.588C15.2458 33.7949 15.1079 34.0019 14.9622 34.2165C14.579 34.7991 14.2034 35.3816 13.8355 35.9718C13.4829 36.5313 13.1456 37.0832 12.816 37.6428C12.6627 37.8957 12.5171 38.1486 12.3638 38.4016V38.4093C12.2028 38.6775 12.0419 38.9535 11.8886 39.2217C11.8732 39.2524 11.8579 39.2754 11.8426 39.306C11.7046 39.5513 11.5666 39.7966 11.4287 40.0419C11.2294 40.3945 11.0301 40.7471 10.8385 41.0996C10.5549 41.6209 10.2713 42.1421 10.003 42.6556H9.99532V42.6633C9.53542 43.5371 9.09086 44.4109 8.66162 45.2771C8.53898 45.5223 8.41634 45.76 8.30137 45.9976C8.26304 46.0742 8.22471 46.1509 8.19405 46.2198C8.14039 46.3272 8.08675 46.4345 8.04076 46.5418C7.90279 46.8254 7.76482 47.109 7.63452 47.3926C7.45056 47.7835 7.2666 48.1668 7.09031 48.5577C6.96001 48.8336 6.8297 49.1096 6.70706 49.3778C6.66107 49.4928 6.60742 49.6001 6.56143 49.7074C6.43879 49.9834 6.31613 50.267 6.18583 50.5429C5.97887 51.0181 5.77193 51.4857 5.57264 51.9533C5.28137 52.6278 4.99776 53.2946 4.72948 53.9538C4.55319 54.3754 4.38457 54.7816 4.21594 55.1879C3.16584 57.771 2.27671 60.1395 1.5332 62.1707V25.0875C1.67884 25.1488 1.82446 25.2102 1.97776 25.2715H1.98543C2.02376 25.2868 2.06208 25.3021 2.1004 25.3251C2.33802 25.4248 2.58328 25.5244 2.82856 25.6241C3.63338 25.9766 4.46888 26.3522 5.28136 26.7278C5.92522 27.0268 6.55375 27.318 7.15162 27.6093C7.54253 27.7932 7.92579 27.9772 8.28604 28.1535C8.48533 28.2532 8.67696 28.3451 8.86092 28.4371C8.86858 28.4371 8.86857 28.4448 8.87624 28.4448C8.91456 28.4678 8.96056 28.4831 8.99888 28.5061C9.54309 28.7744 10.095 29.0656 10.6162 29.3569C10.7158 29.4106 10.8078 29.4642 10.9075 29.5255L10.9151 29.5332C13.7052 31.0815 15.997 32.6912 15.997 32.6912Z" fill="#263238"/>
<g opacity="0.7">
<path d="M15.997 32.6912C15.7901 32.9901 15.5908 33.2814 15.3838 33.5803C15.2458 33.7949 15.1002 34.0096 14.9622 34.2165C14.579 34.7991 14.2034 35.3816 13.8355 35.9718C13.4906 36.5237 13.1456 37.0832 12.816 37.6428C12.6627 37.8957 12.5171 38.1486 12.3638 38.4016V38.4093C12.2028 38.6775 12.0419 38.9535 11.8886 39.2217C11.8732 39.2524 11.8579 39.2754 11.8426 39.306C11.7046 39.5513 11.5666 39.7966 11.4287 40.0419C11.2294 40.3945 11.0301 40.7471 10.8385 41.0996C10.5549 41.6209 10.2713 42.1421 10.003 42.6556V42.6633H9.99532C9.53542 43.5371 9.09086 44.4109 8.66162 45.2771C8.53898 45.5223 8.41634 45.76 8.30137 45.9976C8.26304 46.0742 8.22471 46.1509 8.19405 46.2198C8.14039 46.3272 8.08675 46.4345 8.04076 46.5418C7.90279 46.8254 7.76482 47.109 7.63452 47.3926C7.45056 47.7835 7.2666 48.1668 7.09031 48.5577C6.96001 48.8336 6.83735 49.1019 6.71471 49.3778C6.66106 49.4851 6.61508 49.5924 6.56143 49.7074C6.43879 49.9834 6.31613 50.267 6.18583 50.5429C5.97887 51.0181 5.77193 51.4857 5.57264 51.9533C5.28137 52.6278 4.99776 53.2946 4.72948 53.9538C4.55319 54.3754 4.38457 54.7816 4.21594 55.1879C3.16584 57.771 2.27671 60.1395 1.5332 62.1707V25.0875C1.67884 25.1488 1.82446 25.2102 1.97776 25.2715H1.98543C2.02376 25.2868 2.06208 25.3021 2.1004 25.3251C2.33802 25.4248 2.58328 25.5244 2.82856 25.6241C3.63338 25.9766 4.46888 26.3522 5.28136 26.7278C5.92522 27.0268 6.55375 27.318 7.15162 27.6093C7.54253 27.7932 7.92579 27.9772 8.28604 28.1535C8.48533 28.2532 8.67696 28.3451 8.86092 28.4371C8.86858 28.4371 8.86857 28.4448 8.87624 28.4448C8.91456 28.4678 8.96056 28.4831 8.99888 28.5061C9.54309 28.7744 10.095 29.0656 10.6162 29.3569C10.7158 29.4106 10.8078 29.4642 10.9075 29.5255L10.9151 29.5332C13.7052 31.0815 15.997 32.6912 15.997 32.6912Z" fill="white"/>
</g>
<path d="M9.05254 28.6671C9.28249 29.2803 9.72706 29.9165 10.4399 30.568C10.4399 30.568 8.28603 31.986 7.14395 31.6871C5.74892 31.3191 2.44534 27.0651 1.5332 25.854V25.4554C1.67884 25.4094 1.83213 25.3481 1.97776 25.2715H1.98543C2.17706 25.1718 2.36868 25.0569 2.56031 24.9266C3.6564 24.1754 4.64516 22.8877 5.48831 21.4467C5.67993 21.1017 5.87157 20.7492 6.05553 20.3966V20.3889C6.15518 20.1896 6.25483 19.9903 6.34681 19.791C6.73772 18.9939 7.07497 18.1967 7.36624 17.4456C7.42756 17.2923 7.48121 17.1466 7.53487 17.001C7.64218 16.7174 7.74183 16.4414 7.83381 16.1732C7.8798 16.0429 7.92578 15.9126 7.96411 15.7899L8.447 17.0929V17.1006L8.51598 17.2616L8.54665 17.3382V17.3459L10.8998 23.6542C10.5855 23.9914 10.2789 24.3364 10.0107 24.6889C9.91868 24.8116 9.83437 24.9266 9.75006 25.0492C9.66574 25.1718 9.58141 25.2945 9.51242 25.4171C9.43577 25.5398 9.36679 25.6624 9.2978 25.7927C9.23648 25.9153 9.17516 26.0457 9.12917 26.1683C9.11384 26.1913 9.10619 26.2143 9.09853 26.2449C9.06021 26.3522 9.02187 26.4519 8.99121 26.5592C8.96821 26.6358 8.94523 26.7125 8.9299 26.7968C8.85325 27.1187 8.82259 27.4483 8.85325 27.7856C8.86091 27.8699 8.86858 27.9542 8.88391 28.0385V28.0462C8.90691 28.1995 8.94523 28.3528 8.99888 28.5061C9.01421 28.5598 9.02955 28.6134 9.05254 28.6671Z" fill="#EBB376"/>
<path opacity="0.2" d="M6.05523 20.3896L6.05369 20.3957C5.76165 23.4012 6.11118 27.0566 9.05376 28.6655C8.35012 26.8152 9.51366 25.1181 10.898 23.6534L7.96458 15.7914C7.53764 17.0883 6.88458 18.78 6.05523 20.3896Z" fill="black"/>
<path d="M7.14395 31.687C7.14395 31.687 5.51132 32.5225 3.68706 33.266C3.11985 32.6145 2.28437 31.5874 1.5332 30.43V24.7042C2.06209 24.7119 2.51432 24.7809 2.51432 24.7809C2.51432 24.7809 2.52965 24.8345 2.56031 24.9265C2.6063 25.0721 2.69059 25.3097 2.82856 25.624C3.33445 26.8274 4.56852 29.1729 7.14395 31.687Z" fill="#263238"/>
<path d="M7.14746 31.687C7.14746 31.687 8.14238 33.4047 8.50263 35.2205C10.2303 34.8909 11.2942 30.2904 10.9861 29.6082C10.1682 28.5175 8.88205 28.0361 8.88205 28.0361C8.88205 28.0361 9.05604 30.3962 7.14746 31.687Z" fill="#263238"/>
<g opacity="0.5">
<path d="M7.14395 31.687C7.14395 31.687 5.51132 32.5225 3.68706 33.266C3.11985 32.6145 2.28437 31.5874 1.5332 30.43V24.7042C2.06209 24.7119 2.51432 24.7809 2.51432 24.7809C2.51432 24.7809 2.52965 24.8345 2.56031 24.9265C2.6063 25.0721 2.69059 25.3097 2.82856 25.624C3.33445 26.8274 4.56852 29.1729 7.14395 31.687Z" fill="white"/>
<path d="M7.14746 31.687C7.14746 31.687 8.14238 33.4047 8.50263 35.2205C10.2303 34.8909 11.2942 30.2904 10.9861 29.6082C10.1682 28.5175 8.88205 28.0361 8.88205 28.0361C8.88205 28.0361 9.05604 30.3962 7.14746 31.687Z" fill="white"/>
</g>
<path d="M21.2626 14.3819C21.2841 16.3495 19.8553 19.9459 17.7091 17.9859C15.5629 16.026 21.2258 11.0001 21.2626 14.3819Z" fill="#263238"/>
<path d="M7.5823 12.8879C5.9075 17.421 4.69492 19.991 5.93894 23.2211C7.80996 28.0791 14.1849 28.4102 17.1888 24.4574C19.893 20.8993 22.178 14.0836 18.6053 10.4596C15.0848 6.88929 9.25787 8.35483 7.58307 12.8887L7.5823 12.8879Z" fill="#EBB376"/>
<path d="M13.776 17.014C13.6174 17.3735 13.6802 17.7475 13.9171 17.8487C14.1539 17.9499 14.4735 17.7414 14.6322 17.3811C14.7909 17.0217 14.7272 16.6476 14.4912 16.5464C14.2543 16.4445 13.9347 16.6537 13.776 17.014Z" fill="#263238"/>
<path d="M17.8647 18.7684C17.706 19.1279 17.7697 19.502 18.0057 19.6031C18.2418 19.7043 18.5622 19.4958 18.7209 19.1356C18.8795 18.7761 18.8159 18.402 18.5798 18.3009C18.343 18.1997 18.0234 18.4089 17.8647 18.7684Z" fill="#263238"/>
<path d="M16.486 18.3899C16.486 18.3899 16.4484 20.7492 16.9344 22.1105C16.0552 22.401 15.0879 21.6621 15.0879 21.6621L16.486 18.3899Z" fill="#D58745"/>
<path d="M13.0949 15.1605C13.1639 15.2019 13.2535 15.2057 13.3294 15.1636C14.2324 14.6577 14.9935 15.0386 15.0012 15.0425C15.1146 15.1007 15.2549 15.057 15.3147 14.9444C15.3737 14.8317 15.33 14.6929 15.2173 14.6347C15.1775 14.614 14.2232 14.1365 13.1033 14.7642C12.9914 14.8271 12.9516 14.9673 13.0136 15.0777C13.0336 15.1137 13.0627 15.1413 13.0957 15.1613L13.0949 15.1605Z" fill="#263238"/>
<path d="M20.2422 18.1269C20.2798 18.1499 20.3242 18.1614 20.3718 18.1591C20.4998 18.1537 20.5994 18.0457 20.5948 17.9192C20.545 16.646 19.6306 16.1049 19.593 16.075C19.4834 16.0106 19.3408 16.0466 19.2749 16.1562C19.2097 16.2651 19.245 16.4054 19.3531 16.4705C19.3922 16.492 20.0912 16.9174 20.1311 17.9399C20.1341 18.0196 20.1779 18.0886 20.2422 18.1269Z" fill="#263238"/>
<path d="M16.075 12.3016C16.075 12.3016 15.2226 10.9065 14.2653 11.6102C13.3079 12.3146 12.267 14.8479 12.267 14.8479L12.2095 14.2983C12.2095 14.2983 8.24598 19.2345 6.56122 16.8469C4.87646 14.4592 3.94363 7.33618 10.5217 6.71072C10.5217 6.71072 11.6669 5.59853 15.4802 6.43708C19.2935 7.27563 22.6308 11.2706 22.3664 13.9143C22.102 16.5579 20.5237 17.4202 20.5237 17.4202C20.6924 16.4935 20.4356 15.7485 20.4356 15.7485C20.0324 16.469 19.098 16.4468 19.098 16.4468C19.5089 15.5346 19.397 14.9475 19.397 14.9475C19.118 15.4181 18.3293 15.8182 18.3293 15.8182C19.0965 13.3072 17.6731 12.1214 17.1481 11.9206C16.5019 11.6738 16.0742 12.3023 16.0742 12.3023L16.075 12.3016Z" fill="#263238"/>
<path d="M4.25693 15.816C4.10899 17.1075 4.5758 18.3439 5.25952 19.1648C6.28816 20.3996 7.72686 19.7013 8.21512 18.2557C8.65433 16.9542 8.64896 14.7436 7.24397 14.0346C5.86044 13.3363 4.42632 14.3389 4.25693 15.816Z" fill="#EBB376"/>
<path d="M14.3123 23.0908C13.6975 23.3177 12.7172 23.9148 12.7172 23.9148C12.6474 23.8358 12.5769 23.7569 12.511 23.6741C11.5874 22.578 11.5207 21.764 11.7276 21.1945C11.8419 20.8833 12.0427 20.6449 12.2274 20.4763C12.4397 20.2785 12.6359 20.1865 12.6359 20.1865C12.7785 21.0603 13.5611 22.1488 14.0034 22.7121C14.1858 22.9498 14.3123 23.0908 14.3123 23.0908Z" fill="#263238"/>
<path d="M14.003 22.7121L13.5262 22.9429C12.6586 21.9081 12.1864 21.0634 12.227 20.4763C12.4394 20.2785 12.6356 20.1865 12.6356 20.1865C12.7782 21.0603 13.5607 22.1488 14.003 22.7121Z" fill="white"/>
<path d="M12.511 23.6741C11.5874 22.578 11.5207 21.764 11.7276 21.1945C12.0281 21.58 12.347 22.079 12.5118 22.6148C12.6398 23.0241 12.603 23.3805 12.511 23.6741Z" fill="#A24E3F"/>
<path d="M33.1658 42.9921C32.4062 40.8283 33.4931 38.456 35.5964 37.6029C37.5341 36.8173 39.855 37.5899 40.9044 39.3988C41.2194 39.9423 41.4103 40.5355 41.4731 41.1311L46.4354 39.3888L44.3176 33.3573C44.2264 33.0967 44.2816 32.8077 44.4632 32.6C44.6441 32.3915 44.9231 32.2972 45.1937 32.3524C45.8475 32.4858 46.5634 32.3532 47.1873 31.9676C48.0581 31.4288 48.5517 30.3925 48.4375 29.3745C48.2328 27.5411 46.4162 26.4795 44.7851 27.0521C44.3183 27.2161 43.9136 27.4928 43.6139 27.8523C43.4376 28.0638 43.1609 28.1642 42.8888 28.1152C42.6175 28.0661 42.3929 27.8753 42.3017 27.6147L40.1762 21.5616L25.5484 26.6979C23.7854 27.3173 22.858 29.2481 23.4773 31.011L28.6159 45.6458L33.6065 43.8936C33.428 43.6146 33.28 43.3118 33.1673 42.9921H33.1658Z" fill="#FEDFE5"/>
<path opacity="0.4" d="M33.1658 42.9921C32.4062 40.8283 33.4931 38.456 35.5964 37.6029C37.5341 36.8173 39.855 37.5899 40.9044 39.3988C41.2194 39.9423 41.4103 40.5355 41.4731 41.1311L46.4354 39.3888L44.3176 33.3573C44.2264 33.0967 44.2816 32.8077 44.4632 32.6C44.6441 32.3915 44.9231 32.2972 45.1937 32.3524C45.8475 32.4858 46.5634 32.3532 47.1873 31.9676C48.0581 31.4288 48.5517 30.3925 48.4375 29.3745C48.2328 27.5411 46.4162 26.4795 44.7851 27.0521C44.3183 27.2161 43.9136 27.4928 43.6139 27.8523C43.4376 28.0638 43.1609 28.1642 42.8888 28.1152C42.6175 28.0661 42.3929 27.8753 42.3017 27.6147L40.1762 21.5616L25.5484 26.6979C23.7854 27.3173 22.858 29.2481 23.4773 31.011L28.6159 45.6458L33.6065 43.8936C33.428 43.6146 33.28 43.3118 33.1673 42.9921H33.1658Z" fill="black"/>
<path d="M21.5752 46.3111L25.525 41.637L29.0072 45.6986C29.0072 45.6986 26.7054 49.354 23.2071 48.6788L21.5752 46.3118V46.3111Z" fill="#EBB376"/>
<path d="M29.5694 40.0197L31.4404 43.6682L29.0076 45.6986L25.5254 41.637L29.5694 40.0197Z" fill="#EBB376"/>
<path opacity="0.1" d="M9.65806 49.1632C8.66928 49.3165 7.68816 49.3855 6.71471 49.3778H6.70706C5.35036 49.3702 4.01665 49.2169 2.72126 48.9486C2.32269 48.8643 1.92412 48.7723 1.5332 48.665V33.5343C2.0161 33.6799 2.41468 33.8562 2.68295 34.0862C3.00488 34.3545 3.30381 34.6611 3.58741 34.9983C5.97888 37.8037 7.14395 42.5943 7.14395 42.5943L5.97121 43.1845L6.99066 44.8325L8.04076 46.5418L9.65806 49.1632Z" fill="black"/>
<path d="M24.8424 48.4503C24.4745 48.55 24.1066 48.6496 23.7386 48.7493C20.8336 49.5158 17.9209 50.0983 14.9086 50.4816C13.2146 50.6885 11.4977 50.8495 9.68872 50.8418C8.78426 50.8342 7.85679 50.7958 6.85267 50.6579C6.63806 50.6272 6.41577 50.5889 6.18583 50.5429C5.89456 50.4816 5.58796 50.4049 5.25837 50.3053L4.82913 50.1673C4.67583 50.1137 4.51486 50.0447 4.36156 49.9757C4.07029 49.8684 3.70239 49.6461 3.37279 49.4391C3.13518 49.2705 2.92055 49.1096 2.72126 48.9486C2.26137 48.5807 1.88579 48.2281 1.5332 47.8678V37.4741C1.56386 37.5278 1.59452 37.5738 1.62518 37.6274C2.47599 38.9764 3.32679 40.3178 4.2006 41.5825C4.43055 41.9121 4.6605 42.2341 4.89812 42.5483C5.11273 42.8319 5.32737 43.1079 5.53432 43.3761C5.96356 43.9204 6.46178 44.4492 6.73006 44.6868C6.73006 44.7098 6.8297 44.7635 6.99066 44.8325C7.20528 44.9245 7.52721 45.0395 7.87213 45.1161C8.12507 45.1774 8.38568 45.2311 8.66162 45.2771C9.06786 45.346 9.50476 45.4074 9.94933 45.4457C11.4133 45.5913 12.9847 45.645 14.5637 45.6373H14.602C15.974 45.6373 17.3767 45.6066 18.7794 45.553C18.8024 45.5607 18.8254 45.5607 18.856 45.553C20.0134 45.5223 21.1785 45.4687 22.3359 45.415C22.9875 45.3767 23.639 45.3461 24.2828 45.3077L24.7964 48.1897L24.8424 48.4503Z" fill="#E7B278"/>
<path d="M6.35446 41.8738L4.89812 42.5483L1.5332 44.112V31.2578C2.27671 32.3999 2.97421 33.7029 3.58741 34.9983C5.25071 38.4782 6.35446 41.8738 6.35446 41.8738Z" fill="#263238"/>
<path opacity="0.7" d="M6.35446 41.8738L4.89812 42.5483L1.5332 44.112V31.2578C2.27671 32.3999 2.97421 33.7029 3.58741 34.9983C5.25071 38.4782 6.35446 41.8738 6.35446 41.8738Z" fill="white"/>
</svg>
