<svg width="103" height="103" viewBox="0 0 103 103" fill="none" xmlns="http://www.w3.org/2000/svg">
<path opacity="0.5" d="M8.26668 103C4.67279 103 1.51257 100.321 0.404379 96.3324C0.275823 95.9071 0.170864 95.4143 0.0943813 94.8665C0.0943813 94.8665 0.0740423 94.6377 0.0675331 94.5921L0.0455642 94.4393L0.0439316 94.3719C0.0170811 94.033 0 93.7035 0 93.3541V9.63637C0 4.3226 3.70861 0 8.26668 0H94.7414C99.2954 0 103 4.3226 103 9.63637V93.3541C103 95.7295 102.242 98.0252 100.901 99.7758V99.8214L100.391 100.393C98.8658 102.074 96.8594 103 94.7414 103H8.26668Z" fill="#D2EDED"/>
<path d="M92 22.3039V79.6896C92 81.219 91.3459 82.5986 90.2953 83.5618V83.5683C89.3372 84.4599 88.0356 85 86.615 85H16.3916C13.9931 85 11.9647 83.4576 11.2643 81.3296C11.1718 81.0693 11.1057 80.796 11.0595 80.5161C11.0529 80.4445 11.0462 80.373 11.033 80.3014V80.2949C11.0132 80.0931 11 79.8979 11 79.6896V22.3039C11 19.3753 13.4117 17 16.3916 17H86.615C89.5883 17 92 19.3753 92 22.3039Z" fill="#D2EDED"/>
<path d="M95.4649 55.9747H68.8714C68.7122 55.9772 68.5543 55.946 68.408 55.8832C68.2617 55.8204 68.1304 55.7274 68.0226 55.6102C67.9148 55.4931 67.8329 55.3545 67.7825 55.2035C67.732 55.0526 67.7139 54.8926 67.7296 54.7342L71.0821 11.7244C71.1125 11.3893 71.2657 11.0771 71.5123 10.8481C71.7589 10.6191 72.0815 10.4894 72.418 10.4839H99.0097C99.169 10.4814 99.3269 10.5126 99.4733 10.5754C99.6196 10.6382 99.7511 10.7312 99.859 10.8483C99.967 10.9654 100.049 11.104 100.1 11.255C100.15 11.4059 100.169 11.5659 100.153 11.7244L96.8007 54.7342C96.77 55.0692 96.6167 55.3811 96.3702 55.6101C96.1236 55.839 95.8013 55.9689 95.4649 55.9747Z" fill="#2E353A"/>
<path opacity="0.2" d="M95.4649 55.9747H68.8714C68.7122 55.9772 68.5543 55.946 68.408 55.8832C68.2617 55.8204 68.1304 55.7274 68.0226 55.6102C67.9148 55.4931 67.8329 55.3545 67.7825 55.2035C67.732 55.0526 67.7139 54.8926 67.7296 54.7342L71.0821 11.7244C71.1125 11.3893 71.2657 11.0771 71.5123 10.8481C71.7589 10.6191 72.0815 10.4894 72.418 10.4839H99.0097C99.169 10.4814 99.3269 10.5126 99.4733 10.5754C99.6196 10.6382 99.7511 10.7312 99.859 10.8483C99.967 10.9654 100.049 11.104 100.1 11.255C100.15 11.4059 100.169 11.5659 100.153 11.7244L96.8007 54.7342C96.77 55.0692 96.6167 55.3811 96.3702 55.6101C96.1236 55.839 95.8013 55.9689 95.4649 55.9747Z" fill="white"/>
<path d="M91.8629 13.2959H79.1284C79.0727 13.2969 79.0175 13.2861 78.9662 13.2642C78.915 13.2423 78.869 13.2099 78.8312 13.169C78.7934 13.1281 78.7647 13.0797 78.7469 13.0269C78.7292 12.9741 78.7228 12.9181 78.7282 12.8627L78.924 10.3487C78.9346 10.2313 78.9883 10.122 79.0746 10.0417C79.1609 9.96148 79.2739 9.91594 79.3918 9.91386H92.1263C92.182 9.91308 92.2372 9.9241 92.2883 9.94618C92.3395 9.96826 92.3854 10.0009 92.423 10.042C92.4606 10.083 92.4892 10.1316 92.5067 10.1845C92.5242 10.2373 92.5304 10.2933 92.5248 10.3487L92.329 12.8558C92.32 12.974 92.2672 13.0845 92.181 13.1659C92.0948 13.2473 91.9814 13.2936 91.8629 13.2959Z" fill="#1DA5A7"/>
<path opacity="0.2" d="M91.8629 13.2959H79.1284C79.0727 13.2969 79.0175 13.2861 78.9662 13.2642C78.915 13.2423 78.869 13.2099 78.8312 13.169C78.7934 13.1281 78.7647 13.0797 78.7469 13.0269C78.7292 12.9741 78.7228 12.9181 78.7282 12.8627L78.924 10.3487C78.9346 10.2313 78.9883 10.122 79.0746 10.0417C79.1609 9.96148 79.2739 9.91594 79.3918 9.91386H92.1263C92.182 9.91308 92.2372 9.9241 92.2883 9.94618C92.3395 9.96826 92.3854 10.0009 92.423 10.042C92.4606 10.083 92.4892 10.1316 92.5067 10.1845C92.5242 10.2373 92.5304 10.2933 92.5248 10.3487L92.329 12.8558C92.32 12.974 92.2672 13.0845 92.181 13.1659C92.0948 13.2473 91.9814 13.2936 91.8629 13.2959Z" fill="black"/>
<path d="M86.6877 10.6953H84.6952L84.7732 9.69728C84.7975 9.42816 84.9205 9.17754 85.1185 8.99362C85.3164 8.80971 85.5754 8.7055 85.8456 8.70104C85.9736 8.699 86.1006 8.72398 86.2182 8.77436C86.3359 8.82475 86.4416 8.89939 86.5284 8.99342C86.6153 9.08745 86.6813 9.19875 86.7221 9.32004C86.763 9.44133 86.7778 9.56987 86.7656 9.69728L86.6877 10.6953Z" fill="#1DA5A7"/>
<path opacity="0.4" d="M86.6877 10.6953H84.6952L84.7732 9.69728C84.7975 9.42816 84.9205 9.17754 85.1185 8.99362C85.3164 8.80971 85.5754 8.7055 85.8456 8.70104C85.9736 8.699 86.1006 8.72398 86.2182 8.77436C86.3359 8.82475 86.4416 8.89939 86.5284 8.99342C86.6153 9.08745 86.6813 9.19875 86.7221 9.32004C86.763 9.44133 86.7778 9.56987 86.7656 9.69728L86.6877 10.6953Z" fill="white"/>
<path d="M95.106 54.1781H69.5088L72.7765 12.2789H98.372L95.106 54.1781Z" fill="white"/>
<path d="M89.4943 14.4725H81.3165C81.1854 14.4743 81.0554 14.4484 80.935 14.3966C80.8145 14.3448 80.7064 14.2681 80.6176 14.1717C80.5288 14.0752 80.4614 13.9611 80.4197 13.8367C80.378 13.7124 80.363 13.5807 80.3757 13.4502L80.4797 12.1196C80.5048 11.8436 80.631 11.5866 80.8341 11.3979C81.0371 11.2092 81.3027 11.1022 81.5799 11.0974H89.7594C89.8906 11.0956 90.0206 11.1214 90.1412 11.1732C90.2617 11.2251 90.3699 11.3017 90.4588 11.3981C90.5478 11.4946 90.6154 11.6087 90.6573 11.733C90.6991 11.8573 90.7144 11.989 90.7019 12.1196L90.598 13.4502C90.572 13.7266 90.4451 13.9836 90.2415 14.1722C90.0378 14.3608 89.7718 14.4677 89.4943 14.4725ZM81.5487 11.4456C81.3659 11.4487 81.1906 11.5192 81.0567 11.6436C80.9227 11.768 80.8394 11.9375 80.8227 12.1196L80.7188 13.4502C80.7102 13.5364 80.72 13.6234 80.7474 13.7055C80.7747 13.7877 80.8192 13.8631 80.8777 13.9269C80.9363 13.9906 81.0076 14.0413 81.0871 14.0757C81.1666 14.11 81.2525 14.1271 81.339 14.1259H89.5203C89.7036 14.1229 89.8792 14.0522 90.0136 13.9274C90.1479 13.8027 90.2314 13.6328 90.248 13.4502L90.352 12.1196C90.36 12.0335 90.3498 11.9467 90.3221 11.8647C90.2944 11.7828 90.2497 11.7076 90.1911 11.6441C90.1324 11.5805 90.0611 11.53 89.9816 11.4958C89.9022 11.4616 89.8164 11.4445 89.73 11.4456H81.5487Z" fill="#1DA5A7"/>
<g opacity="0.4">
<path d="M89.4948 14.4725H81.317C81.1859 14.4743 81.0559 14.4484 80.9355 14.3966C80.815 14.3448 80.7069 14.2681 80.6181 14.1717C80.5293 14.0752 80.4619 13.9611 80.4202 13.8367C80.3785 13.7124 80.3635 13.5807 80.3762 13.4502L80.4802 12.1196C80.5053 11.8436 80.6315 11.5866 80.8346 11.3979C81.0376 11.2092 81.3032 11.1022 81.5803 11.0974H89.7599C89.8911 11.0956 90.0211 11.1214 90.1416 11.1732C90.2622 11.2251 90.3704 11.3017 90.4593 11.3981C90.5482 11.4946 90.6159 11.6087 90.6577 11.733C90.6996 11.8573 90.7149 11.989 90.7024 12.1196L90.5985 13.4502C90.5725 13.7266 90.4456 13.9836 90.2419 14.1722C90.0383 14.3608 89.7723 14.4677 89.4948 14.4725ZM81.5492 11.4456C81.3664 11.4487 81.1911 11.5192 81.0571 11.6436C80.9232 11.768 80.8398 11.9375 80.8232 12.1196L80.7192 13.4502C80.7107 13.5364 80.7205 13.6234 80.7478 13.7055C80.7752 13.7877 80.8197 13.8631 80.8782 13.9269C80.9368 13.9906 81.0081 14.0413 81.0876 14.0757C81.1671 14.11 81.2529 14.1271 81.3395 14.1259H89.5208C89.7041 14.1229 89.8797 14.0522 90.014 13.9274C90.1484 13.8027 90.2318 13.6328 90.2485 13.4502L90.3524 12.1196C90.3605 12.0335 90.3503 11.9467 90.3226 11.8647C90.2949 11.7828 90.2502 11.7076 90.1916 11.6441C90.1329 11.5805 90.0616 11.53 89.9821 11.4958C89.9027 11.4616 89.8169 11.4445 89.7304 11.4456H81.5492Z" fill="white"/>
</g>
<path d="M89.0721 11.8646H82.1417C82.1111 11.8652 82.0808 11.8594 82.0526 11.8474C82.0245 11.8355 81.9992 11.8177 81.9784 11.7953C81.9576 11.7729 81.9418 11.7463 81.932 11.7173C81.9223 11.6884 81.9187 11.6577 81.9217 11.6272L81.9754 10.9342C81.9817 10.8698 82.0116 10.8101 82.0592 10.7663C82.1068 10.7225 82.1689 10.6978 82.2335 10.6968H89.1639C89.1944 10.6962 89.2247 10.702 89.2527 10.714C89.2808 10.7259 89.306 10.7437 89.3267 10.7662C89.3473 10.7886 89.363 10.8152 89.3725 10.8442C89.3821 10.8732 89.3854 10.9039 89.3822 10.9342L89.3285 11.6272C89.3225 11.6914 89.293 11.7512 89.2457 11.795C89.1984 11.8388 89.1365 11.8636 89.0721 11.8646Z" fill="#1DA5A7"/>
<path d="M94.9399 18.4001H75.5349L75.6995 16.2828H95.1045L94.9399 18.4001Z" fill="#1DA5A7"/>
<path d="M87.0861 21.3473H74.168L74.2113 20.8015H87.1295L87.0861 21.3473Z" fill="#1DA5A7"/>
<path d="M86.9651 22.9238H74.0469L74.0885 22.3763H87.0066L86.9651 22.9238Z" fill="#1DA5A7"/>
<path d="M86.8418 24.5004H73.9236L73.9652 23.9529H86.8833L86.8418 24.5004Z" fill="#1DA5A7"/>
<path d="M86.719 26.0753H73.8008L73.8424 25.5295H86.7605L86.719 26.0753Z" fill="#1DA5A7"/>
<path d="M95.1945 26.0755H89.924L90.3363 20.8015H95.6068L95.1945 26.0755Z" fill="#1DA5A7"/>
<path d="M93.7355 22.7591C93.7598 22.4507 93.5207 22.2393 93.0875 22.2393C92.9194 22.2313 92.7516 22.2614 92.5968 22.3275C92.442 22.3935 92.3041 22.4936 92.1935 22.6205L91.8608 22.3693C92.0224 22.189 92.222 22.047 92.4453 21.9535C92.6685 21.86 92.9098 21.8173 93.1516 21.8287C93.8447 21.8287 94.2709 22.1527 94.2276 22.695C94.1652 23.5007 93.3076 23.5613 93.259 24.1868H92.7757C92.8363 23.4244 93.6922 23.3135 93.7355 22.7591ZM92.6474 24.9647C92.6537 24.8783 92.6934 24.7977 92.7581 24.7401C92.8228 24.6825 92.9074 24.6525 92.994 24.6563C93.0338 24.6547 93.0735 24.6619 93.1103 24.6772C93.1471 24.6925 93.1802 24.7156 93.2072 24.7449C93.2342 24.7742 93.2546 24.8091 93.2668 24.847C93.279 24.885 93.2829 24.9251 93.2781 24.9647C93.2716 25.0485 93.2337 25.1268 93.1721 25.1839C93.1104 25.2411 93.0295 25.2729 92.9454 25.2731C92.9046 25.2761 92.8636 25.2701 92.8254 25.2556C92.7872 25.241 92.7526 25.2182 92.7241 25.1887C92.6957 25.1593 92.6741 25.124 92.6608 25.0853C92.6476 25.0465 92.643 25.0054 92.6474 24.9647Z" fill="white"/>
<path d="M86.4643 29.3294H73.5461L73.5895 28.7819H86.5076L86.4643 29.3294Z" fill="#1DA5A7"/>
<path d="M86.3413 30.9039H73.4231L73.4664 30.3582H86.3846L86.3413 30.9039Z" fill="#1DA5A7"/>
<path d="M86.2199 32.4808H73.3018L73.3433 31.9351H86.2615L86.2199 32.4808Z" fill="#1DA5A7"/>
<path d="M86.0966 34.0575H73.1785L73.22 33.51H86.1382L86.0966 34.0575Z" fill="#1DA5A7"/>
<path d="M94.5727 34.0576H89.3021L89.7127 28.7819H94.9833L94.5727 34.0576Z" fill="#1DA5A7"/>
<path d="M93.1137 30.7411C93.1379 30.431 92.8988 30.2213 92.4657 30.2213C92.2976 30.2133 92.1298 30.2434 91.975 30.3095C91.8202 30.3755 91.6823 30.4756 91.5717 30.6025L91.239 30.3547C91.4003 30.1742 91.5999 30.0319 91.8232 29.9384C92.0466 29.8449 92.288 29.8024 92.5298 29.8142C93.2228 29.8142 93.649 30.1382 93.6057 30.6805C93.5434 31.4861 92.6857 31.5468 92.6372 32.1722H92.1538C92.2127 31.3943 93.0704 31.2955 93.1137 30.7411ZM92.0256 32.9536C92.0314 32.8684 92.0697 32.7888 92.1326 32.731C92.1954 32.6733 92.2781 32.642 92.3635 32.6435C92.4035 32.6419 92.4433 32.6491 92.4803 32.6645C92.5173 32.6799 92.5504 32.7031 92.5775 32.7327C92.6045 32.7622 92.6248 32.7972 92.6369 32.8354C92.649 32.8736 92.6527 32.9139 92.6476 32.9536C92.6407 33.0373 92.6027 33.1153 92.5412 33.1724C92.4796 33.2295 92.3989 33.2614 92.315 33.262C92.2748 33.2637 92.2348 33.2568 92.1977 33.2416C92.1605 33.2265 92.127 33.2035 92.0995 33.1742C92.0721 33.1449 92.0512 33.11 92.0385 33.072C92.0257 33.0339 92.0213 32.9935 92.0256 32.9536Z" fill="white"/>
<path d="M85.8418 37.3096H72.9236L72.9669 36.7638H85.8851L85.8418 37.3096Z" fill="#1DA5A7"/>
<path d="M85.719 38.8861H72.8008L72.8441 38.3386H85.7623L85.719 38.8861Z" fill="#1DA5A7"/>
<path d="M85.5959 40.4628H72.6794L72.721 39.9153H85.6392L85.5959 40.4628Z" fill="#1DA5A7"/>
<path d="M85.4746 42.038H72.5564L72.598 41.4922H85.5162L85.4746 42.038Z" fill="#1DA5A7"/>
<path d="M93.9502 42.0378H88.6797L89.0903 36.7638H94.3608L93.9502 42.0378Z" fill="#1DA5A7"/>
<path d="M92.4917 38.7217C92.516 38.4133 92.2769 38.2019 91.842 38.2019C91.6742 38.1941 91.5067 38.2243 91.3522 38.2903C91.1977 38.3563 91.0601 38.4564 90.9497 38.5831L90.6171 38.3249C90.7784 38.1444 90.978 38.0021 91.2013 37.9086C91.4246 37.8151 91.666 37.7726 91.9078 37.7844C92.6009 37.7844 93.0254 38.1066 92.9838 38.642C92.9214 39.4494 92.0638 39.5083 92.0153 40.1338H91.5388C91.5908 39.3836 92.4484 39.2761 92.4917 38.7217ZM91.4037 40.9238C91.4099 40.839 91.4483 40.7597 91.5112 40.7023C91.574 40.645 91.6564 40.6139 91.7415 40.6154C91.7814 40.6139 91.8211 40.621 91.8579 40.6363C91.8947 40.6516 91.9278 40.6747 91.9548 40.704C91.9818 40.7334 92.0021 40.7682 92.0144 40.8061C92.0266 40.8441 92.0305 40.8842 92.0257 40.9238C92.0191 41.0076 91.9813 41.0859 91.9196 41.1431C91.858 41.2002 91.7771 41.232 91.693 41.2322C91.6528 41.2343 91.6127 41.2275 91.5754 41.2124C91.538 41.1974 91.5044 41.1744 91.4769 41.145C91.4494 41.1157 91.4286 41.0807 91.4159 41.0425C91.4033 41.0043 91.3991 40.9638 91.4037 40.9238Z" fill="white"/>
<path d="M85.2199 45.2914H72.3018L72.3451 44.7439H85.2633L85.2199 45.2914Z" fill="#1DA5A7"/>
<path d="M85.0969 46.8683H72.1787L72.222 46.3208H85.1402L85.0969 46.8683Z" fill="#1DA5A7"/>
<path d="M84.9743 48.4432H72.0562L72.0995 47.8975H85.0176L84.9743 48.4432Z" fill="#1DA5A7"/>
<path d="M84.8508 50.0198H71.9326L71.9759 49.4723H84.8941L84.8508 50.0198Z" fill="#1DA5A7"/>
<path d="M93.3289 50.0196H88.0583L88.469 44.7439H93.7395L93.3289 50.0196Z" fill="#1DA5A7"/>
<path d="M91.8699 46.7037C91.8942 46.3935 91.6551 46.1839 91.2202 46.1839C91.0523 46.1759 90.8848 46.206 90.7303 46.2721C90.5757 46.3381 90.4382 46.4383 90.3279 46.5651L89.9952 46.3138C90.1565 46.1333 90.3561 45.991 90.5795 45.8975C90.8028 45.804 91.0442 45.7615 91.286 45.7733C91.9791 45.7733 92.4035 46.0973 92.362 46.6396C92.2996 47.4452 91.442 47.5059 91.3934 48.1313H90.91C90.969 47.3638 91.8266 47.2581 91.8699 46.7037ZM90.7818 48.9093C90.7876 48.8241 90.8259 48.7444 90.8888 48.6867C90.9517 48.6289 91.0343 48.5976 91.1197 48.5991C91.1597 48.5975 91.1996 48.6047 91.2365 48.6201C91.2735 48.6355 91.3066 48.6588 91.3337 48.6883C91.3607 48.7178 91.381 48.7529 91.3931 48.791C91.4053 48.8292 91.4089 48.8695 91.4038 48.9093C91.3969 48.9929 91.3589 49.071 91.2974 49.128C91.2358 49.1851 91.1551 49.2171 91.0712 49.2177C91.0311 49.2194 90.9911 49.2124 90.9539 49.1973C90.9167 49.1821 90.8832 49.1591 90.8558 49.1298C90.8283 49.1006 90.8075 49.0657 90.7947 49.0276C90.782 48.9896 90.7776 48.9492 90.7818 48.9093Z" fill="white"/>
<path opacity="0.7" d="M94.9399 18.4001H75.5349L75.6995 16.2828H95.1045L94.9399 18.4001Z" fill="white"/>
<path opacity="0.7" d="M87.0861 21.3473H74.168L74.2113 20.8015H87.1295L87.0861 21.3473Z" fill="white"/>
<path opacity="0.7" d="M86.9651 22.9238H74.0469L74.0885 22.3763H87.0066L86.9651 22.9238Z" fill="white"/>
<path opacity="0.7" d="M86.8418 24.5004H73.9236L73.9652 23.9529H86.8833L86.8418 24.5004Z" fill="white"/>
<path opacity="0.7" d="M86.719 26.0753H73.8008L73.8424 25.5295H86.7605L86.719 26.0753Z" fill="white"/>
<path opacity="0.7" d="M95.1945 26.0755H89.924L90.3363 20.8015H95.6068L95.1945 26.0755Z" fill="white"/>
<path opacity="0.7" d="M86.4643 29.3294H73.5461L73.5895 28.7819H86.5076L86.4643 29.3294Z" fill="white"/>
<path opacity="0.7" d="M86.3413 30.9039H73.4231L73.4664 30.3582H86.3846L86.3413 30.9039Z" fill="white"/>
<path opacity="0.7" d="M86.2199 32.4808H73.3018L73.3433 31.9351H86.2615L86.2199 32.4808Z" fill="white"/>
<path opacity="0.7" d="M86.0966 34.0575H73.1785L73.22 33.51H86.1382L86.0966 34.0575Z" fill="white"/>
<path opacity="0.7" d="M94.5727 34.0576H89.3021L89.7127 28.7819H94.9833L94.5727 34.0576Z" fill="white"/>
<path opacity="0.7" d="M85.8418 37.3096H72.9236L72.9669 36.7638H85.8851L85.8418 37.3096Z" fill="white"/>
<path opacity="0.7" d="M85.719 38.8861H72.8008L72.8441 38.3386H85.7623L85.719 38.8861Z" fill="white"/>
<path opacity="0.7" d="M85.5959 40.4628H72.6794L72.721 39.9153H85.6392L85.5959 40.4628Z" fill="white"/>
<path opacity="0.7" d="M85.4746 42.038H72.5564L72.598 41.4922H85.5162L85.4746 42.038Z" fill="white"/>
<path opacity="0.7" d="M93.9502 42.0378H88.6797L89.0903 36.7638H94.3608L93.9502 42.0378Z" fill="white"/>
<path opacity="0.7" d="M85.2199 45.2914H72.3018L72.3451 44.7439H85.2633L85.2199 45.2914Z" fill="white"/>
<path opacity="0.7" d="M85.0969 46.8683H72.1787L72.222 46.3208H85.1402L85.0969 46.8683Z" fill="white"/>
<path opacity="0.7" d="M84.9743 48.4432H72.0562L72.0995 47.8975H85.0176L84.9743 48.4432Z" fill="white"/>
<path opacity="0.7" d="M84.8508 50.0198H71.9326L71.9759 49.4723H84.8941L84.8508 50.0198Z" fill="white"/>
<path opacity="0.7" d="M93.3289 50.0196H88.0583L88.469 44.7439H93.7395L93.3289 50.0196Z" fill="white"/>
<path d="M31.7856 59.2871V66.7798C31.7875 68.2572 31.2171 69.6779 30.194 70.7438L23.2019 78.0596H27.1605L34.4246 70.9097C34.9664 70.377 35.3969 69.7419 35.6912 69.0413C35.9854 68.3407 36.1375 67.5886 36.1386 66.8288V59.2871H31.7856Z" fill="#1DA5A7"/>
<path opacity="0.4" d="M36.1386 59.2871V66.8206C36.1397 67.2427 36.0922 67.6636 35.9971 68.0748C35.759 69.1523 35.2126 70.1373 34.4246 70.9097L27.1605 78.0596H23.2019L30.194 70.7438C31.2171 69.6779 31.7875 68.2572 31.7856 66.7798V59.2871H36.1386Z" fill="white"/>
<path opacity="0.2" d="M36.1387 59.2871V66.8206C36.1398 67.2427 36.0923 67.6636 35.9972 68.0748L31.7856 66.3744V59.2871H36.1387Z" fill="black"/>
<path d="M20.4521 78.876L14.5918 101.202C14.5393 101.405 14.4208 101.585 14.2548 101.714C14.0889 101.842 13.8849 101.912 13.6749 101.912H3.20315C3.1169 101.911 3.03186 101.891 2.95453 101.853C2.8772 101.815 2.80962 101.76 2.75696 101.691C2.70412 101.623 2.66777 101.544 2.65078 101.459C2.63378 101.375 2.6366 101.288 2.65902 101.204L8.52203 78.876H7.39568L1.60612 100.927C1.54269 101.171 1.53595 101.427 1.58641 101.674C1.63687 101.922 1.7432 102.154 1.89728 102.354C2.05136 102.554 2.24911 102.716 2.47544 102.828C2.70176 102.94 2.95067 102.999 3.20315 103H13.6749C14.1252 103 14.5626 102.85 14.9189 102.575C15.2753 102.3 15.5305 101.915 15.6447 101.479L21.5757 78.876H20.4521Z" fill="#1DA5A7"/>
<g opacity="0.4">
<path d="M20.4504 78.876L14.5901 101.202C14.5376 101.405 14.4191 101.585 14.2531 101.714C14.0871 101.842 13.8832 101.912 13.6732 101.912H3.20144C3.11519 101.911 3.03015 101.891 2.95282 101.853C2.87549 101.815 2.80791 101.76 2.75525 101.691C2.70241 101.623 2.66606 101.544 2.64907 101.459C2.63207 101.375 2.63489 101.288 2.65731 101.204L8.52032 78.876H7.39397L1.60441 100.927C1.54098 101.171 1.53424 101.427 1.5847 101.674C1.63516 101.922 1.74149 102.154 1.89557 102.354C2.04965 102.554 2.24741 102.716 2.47373 102.828C2.70005 102.94 2.94896 102.999 3.20144 103H13.6732C14.1234 103 14.5609 102.85 14.9172 102.575C15.2736 102.3 15.5288 101.915 15.643 101.479L21.574 78.876H20.4504Z" fill="white"/>
</g>
<path d="M22.8485 103L16.4413 78.5685L15.3884 78.8433L21.7221 103H22.8485Z" fill="#1DA5A7"/>
<path d="M35.9078 103L29.5007 78.5685L28.4478 78.8433L34.7814 103H35.9078Z" fill="#1DA5A7"/>
<g opacity="0.5">
<path d="M22.8492 103L16.4421 78.5685L15.3892 78.8433L21.7228 103H22.8492Z" fill="white"/>
</g>
<g opacity="0.5">
<path d="M35.9085 103L29.5014 78.5685L28.4485 78.8433L34.7822 103H35.9085Z" fill="white"/>
</g>
<path opacity="0.2" d="M7.39582 78.876H8.52217L7.63796 82.2414L6.59595 81.9231L7.39582 78.876Z" fill="black"/>
<path opacity="0.2" d="M16.4413 78.5685L17.8969 84.1213L16.6753 83.7513L15.3884 78.8433L16.4413 78.5685Z" fill="black"/>
<path opacity="0.2" d="M20.4512 78.876H21.5749L19.7303 85.9225L18.6855 85.6042L20.4512 78.876Z" fill="black"/>
<path opacity="0.2" d="M32.0717 88.4391L30.8447 88.0636L28.4478 78.9113L29.5007 78.6121L32.0717 88.4391Z" fill="black"/>
<path d="M6.40225 79.2487L1.31463 51.7075L1.24661 51.2912C1.19634 51.034 1.20318 50.7688 1.26664 50.5145C1.33011 50.2601 1.44865 50.0229 1.6139 49.8194C1.77351 49.6282 1.97389 49.4753 2.20034 49.3717C2.42679 49.2681 2.67356 49.2166 2.92254 49.2208H13.9357C14.4584 49.2465 14.9577 49.4455 15.3548 49.7864C15.7518 50.1273 16.0241 50.5907 16.1286 51.1035L16.2102 51.5688L21.2951 79.0474L20.2232 79.2433L15.122 51.683L15.0567 51.2967C15 51.0338 14.8606 50.796 14.6588 50.6183C14.4571 50.4405 14.2036 50.3322 13.9357 50.3091H2.91165C2.82226 50.3056 2.73324 50.3224 2.65126 50.3582C2.56928 50.394 2.49646 50.4479 2.43826 50.5159C2.37471 50.5988 2.3301 50.6946 2.30754 50.7966C2.28498 50.8986 2.28502 51.0043 2.30767 51.1062L2.38384 51.5633L7.47419 79.0419L6.40225 79.2487Z" fill="#1DA5A7"/>
<g opacity="0.5">
<path d="M6.40249 79.2487L1.31487 51.7075L1.24685 51.2912C1.19658 51.034 1.20342 50.7688 1.26689 50.5145C1.33035 50.2601 1.44889 50.0229 1.61414 49.8194C1.77375 49.6282 1.97413 49.4753 2.20058 49.3717C2.42703 49.2681 2.6738 49.2166 2.92278 49.2208H13.936C14.4587 49.2465 14.9579 49.4455 15.355 49.7864C15.7521 50.1273 16.0243 50.5907 16.1288 51.1035L16.2105 51.5688L21.2954 79.0474L20.2234 79.2433L15.1222 51.683L15.0569 51.2967C15.0003 51.0338 14.8608 50.796 14.6591 50.6183C14.4573 50.4405 14.2039 50.3322 13.936 50.3091H2.9119C2.8225 50.3056 2.73349 50.3224 2.6515 50.3582C2.56952 50.394 2.49671 50.4479 2.4385 50.5159C2.37496 50.5988 2.33034 50.6946 2.30778 50.7966C2.28522 50.8986 2.28526 51.0043 2.30791 51.1062L2.38409 51.5633L7.47443 79.0419L6.40249 79.2487Z" fill="white"/>
</g>
<path d="M8.62742 76.5171H29.5574C29.9182 76.5171 30.2642 76.6604 30.5193 76.9155C30.7744 77.1706 30.9177 77.5166 30.9177 77.8774V79.6921H7.26709V77.872C7.26853 77.5121 7.41248 77.1675 7.66744 76.9136C7.92239 76.6597 8.26758 76.5171 8.62742 76.5171Z" fill="#1DA5A7"/>
<path d="M31.2443 78.1085H6.94065C6.63863 78.1085 6.3938 78.3534 6.3938 78.6554V79.1505C6.3938 79.4526 6.63863 79.6974 6.94065 79.6974H31.2443C31.5463 79.6974 31.7911 79.4526 31.7911 79.1505V78.6554C31.7911 78.3534 31.5463 78.1085 31.2443 78.1085Z" fill="#1DA5A7"/>
<path opacity="0.6" d="M31.2443 78.1085H6.94065C6.63863 78.1085 6.3938 78.3534 6.3938 78.6554V79.1505C6.3938 79.4526 6.63863 79.6974 6.94065 79.6974H31.2443C31.5463 79.6974 31.7911 79.4526 31.7911 79.1505V78.6554C31.7911 78.3534 31.5463 78.1085 31.2443 78.1085Z" fill="white"/>
<path d="M17.728 62.8241H3.89893L1.83667 51.6694H15.663L17.709 62.7207L17.728 62.8241Z" fill="#1DA5A7"/>
<path d="M31.3326 39.0537C31.3326 39.0537 29.5941 35.0163 29.4445 34.5837C29.2949 34.1511 29.4717 31.9664 29.3384 31.591C29.2051 31.2155 27.1864 30.9462 26.7592 30.9951C26.3321 31.0441 26.7075 34.4232 26.8844 34.6898C27.115 34.9641 27.375 35.2122 27.6597 35.4298L29.1969 40.0549L31.3326 39.0537Z" fill="#B97964"/>
<path d="M22.5357 46.6742C23.7219 46.8619 28.5783 47.5639 29.6638 46.8402C30.5399 46.2552 28.0723 36.7738 28.0723 36.7738L30.2678 35.8787C30.2678 35.8787 35.4833 47.3653 32.6974 49.988C31.2826 51.3211 27.305 51.6585 21.5835 51.6585L22.5357 46.6742Z" fill="#1DA5A7"/>
<path opacity="0.1" d="M24.5467 51.6313C23.7033 51.6558 22.8027 51.6667 21.856 51.6667L22.6722 48.5406C23.5565 49.3892 24.2028 50.4549 24.5467 51.6313Z" fill="black"/>
<path d="M29.3835 53.2988L35.1405 59.3877" stroke="#2E353A" stroke-width="2" stroke-miterlimit="10"/>
<path d="M25.2561 56.8849C25.2561 56.8849 29.65 56.7489 30.107 56.7027C30.5641 56.6564 32.4658 55.5681 32.8739 55.5246C33.282 55.4811 34.3703 57.2005 34.5063 57.6086C34.6424 58.0167 31.4238 59.105 31.1055 59.0615C30.7596 58.9671 30.4249 58.8357 30.107 58.6697L25.2561 59.241V56.8849Z" fill="#B97964"/>
<path d="M22.6707 100.867L24.839 100.57L25.1383 95.4175L22.9754 95.7168L22.6707 100.867Z" fill="#B97964"/>
<path d="M25.0036 100.309L22.555 100.154C22.5141 100.151 22.4735 100.164 22.4417 100.189C22.4098 100.215 22.389 100.252 22.3836 100.293L22.1442 102.225C22.1374 102.326 22.1712 102.426 22.238 102.502C22.3048 102.579 22.3992 102.626 22.5006 102.633C23.3548 102.673 23.7657 102.649 24.843 102.709C25.5069 102.747 26.8101 102.888 27.7215 102.799C28.6329 102.709 28.5214 101.811 28.1296 101.768C27.1937 101.661 25.9531 100.976 25.3708 100.453C25.2678 100.366 25.1386 100.315 25.0036 100.309Z" fill="#2E353A"/>
<path d="M25.7536 100.728C25.5579 100.71 25.3645 100.672 25.1769 100.614C25.1673 100.611 25.1586 100.606 25.1518 100.599C25.1451 100.592 25.1405 100.583 25.1388 100.573C25.1382 100.563 25.1402 100.553 25.1444 100.544C25.1487 100.535 25.1552 100.527 25.1632 100.521C25.2367 100.478 25.8815 100.094 26.1427 100.214C26.1719 100.228 26.197 100.25 26.2156 100.276C26.2341 100.303 26.2456 100.334 26.2488 100.366C26.2619 100.414 26.2615 100.465 26.2475 100.513C26.2336 100.561 26.2068 100.605 26.1699 100.638C26.0472 100.719 25.8987 100.751 25.7536 100.728ZM26.0992 100.317C25.9604 100.252 25.585 100.412 25.321 100.557C25.7074 100.657 25.993 100.663 26.1046 100.57C26.127 100.547 26.143 100.518 26.151 100.486C26.1591 100.455 26.1591 100.422 26.1508 100.391C26.1497 100.375 26.1443 100.36 26.1352 100.347C26.1261 100.334 26.1136 100.324 26.0992 100.317Z" fill="#1DA5A7"/>
<path d="M25.1876 100.614C25.1806 100.616 25.1729 100.616 25.1659 100.614C25.152 100.604 25.1423 100.59 25.1387 100.573C25.1387 100.554 25.1387 99.9147 25.3618 99.7161C25.3925 99.6909 25.4284 99.6727 25.467 99.6628C25.5055 99.6529 25.5458 99.6516 25.5849 99.659C25.628 99.6628 25.6686 99.6809 25.7001 99.7105C25.7317 99.7401 25.7524 99.7795 25.759 99.8222C25.7943 100.064 25.4407 100.5 25.2148 100.614C25.2106 100.616 25.2059 100.617 25.2012 100.617C25.1966 100.617 25.1919 100.616 25.1876 100.614ZM25.5413 99.7651C25.5209 99.7636 25.5004 99.7665 25.4812 99.7735C25.4619 99.7805 25.4444 99.7916 25.4298 99.8059C25.2883 99.9229 25.2529 100.282 25.2448 100.486C25.4559 100.332 25.603 100.105 25.6583 99.8494C25.6583 99.8195 25.6393 99.7814 25.5658 99.7678L25.5413 99.7651Z" fill="#1DA5A7"/>
<path opacity="0.2" d="M22.9761 95.717L25.139 95.4204L24.9676 98.3642L22.8074 98.5546L22.9761 95.717Z" fill="black"/>
<path d="M22.7587 70.5808L22.2309 67.2671L10.0805 66.5406C10.0805 66.5406 8.78816 73.4348 9.7812 75.2712C11.5524 78.5496 21.1046 76.9036 23.8987 77.2165C22.2282 84.0481 22.3914 97.3983 22.3914 97.3983L26.3826 97.703C26.3826 97.703 29.4543 83.3189 30.0746 76.4819C30.4936 71.8704 26.671 71.9847 22.7587 70.5808Z" fill="#2E353A"/>
<path d="M21.9239 97.5856L26.7204 97.9012L27.1312 95.8472L21.8613 95.6023L21.9239 97.5856Z" fill="#1DA5A7"/>
<path d="M27.6721 98.9434L29.8541 99.104L31.2199 94.1279L29.0406 93.9701L27.6721 98.9434Z" fill="#B97964"/>
<path d="M30.0694 98.8809L27.7052 98.2225C27.6662 98.2096 27.6237 98.2126 27.587 98.231C27.5502 98.2493 27.5223 98.2815 27.5093 98.3204L26.8726 100.16C26.859 100.209 26.8553 100.26 26.8616 100.311C26.868 100.361 26.8843 100.41 26.9095 100.454C26.9348 100.499 26.9686 100.537 27.009 100.569C27.0493 100.6 27.0955 100.622 27.1447 100.636C27.9609 100.851 28.3772 100.908 29.4192 101.196C30.0585 101.373 31.3046 101.781 32.216 101.884C33.1274 101.988 33.2036 101.085 32.8281 100.962C31.9358 100.663 30.8693 99.7325 30.404 99.1013C30.3207 98.992 30.2027 98.9143 30.0694 98.8809Z" fill="#2E353A"/>
<path d="M30.7158 99.4495C30.526 99.3926 30.3434 99.3141 30.1716 99.2155C30.1626 99.2119 30.155 99.2054 30.1501 99.1971C30.1451 99.1887 30.1431 99.1789 30.1444 99.1692C30.1451 99.1593 30.1485 99.1497 30.1543 99.1415C30.16 99.1334 30.1679 99.127 30.1771 99.123C30.256 99.0958 30.9688 98.8509 31.1973 99.0278C31.2237 99.0473 31.2446 99.0734 31.258 99.1034C31.2713 99.1335 31.2767 99.1665 31.2735 99.1992C31.2769 99.2506 31.2657 99.3019 31.2412 99.3471C31.2166 99.3924 31.1797 99.4298 31.1347 99.4549C30.9993 99.5054 30.8499 99.5035 30.7158 99.4495ZM31.1375 99.1175C31.015 99.025 30.6151 99.1175 30.3213 99.191C30.6777 99.3706 30.9579 99.4359 31.083 99.3678C31.1103 99.3499 31.1325 99.3252 31.1472 99.2961C31.162 99.2669 31.169 99.2345 31.1674 99.2019C31.1702 99.1859 31.1684 99.1695 31.1621 99.1545C31.1559 99.1395 31.1454 99.1267 31.132 99.1175H31.1375Z" fill="#1DA5A7"/>
<path d="M30.1858 99.221H30.1532C30.1468 99.2153 30.142 99.208 30.1392 99.2C30.1363 99.1919 30.1355 99.1832 30.1369 99.1748C30.1369 99.1557 30.2647 98.53 30.5313 98.3831C30.5672 98.3665 30.6061 98.3579 30.6456 98.3579C30.6851 98.3579 30.7241 98.3665 30.7599 98.3831C30.8017 98.3962 30.838 98.4228 30.863 98.4588C30.8881 98.4947 30.9007 98.5379 30.8986 98.5817C30.8796 98.8238 30.4443 99.1775 30.1994 99.2428C30.1925 99.2373 30.1877 99.2296 30.1858 99.221ZM30.6973 98.4647C30.6777 98.4592 30.6572 98.4578 30.6371 98.4606C30.617 98.4634 30.5976 98.4703 30.5803 98.481C30.4171 98.5681 30.3083 98.9109 30.2566 99.1095C30.4797 99.0061 30.7735 98.7313 30.8007 98.5654C30.8007 98.5354 30.8007 98.4973 30.7272 98.4701L30.6973 98.4647Z" fill="#1DA5A7"/>
<path opacity="0.2" d="M29.0405 93.9701L31.2198 94.1306L30.4389 96.9737L28.2842 96.7098L29.0405 93.9701Z" fill="black"/>
<path d="M31.9595 96.6228L28.118 95.4937C28.118 95.4937 30.4251 82.5488 32.7376 78.0598C32.5635 78.0026 32.3323 77.9292 32.0466 77.8448C31.5324 77.6898 30.8495 77.4966 30.0469 77.2735C24.4641 75.7254 13.1489 72.8225 13.1489 72.8225L18.3182 67.9988C18.3182 67.9988 38.9081 71.1384 39.3352 76.5634C39.5393 79.1725 31.9595 96.6228 31.9595 96.6228Z" fill="#2E353A"/>
<path d="M27.6243 95.5781L32.2494 96.8867L33.0792 94.9632L27.9752 93.6246L27.6243 95.5781Z" fill="#1DA5A7"/>
<path opacity="0.2" d="M32.0577 77.8446C31.5435 77.6895 30.8606 77.4964 30.058 77.2733C30.2185 75.9565 30.2213 74.4465 29.5874 73.6766C28.3277 72.1421 25.0874 71.2416 23.2428 70.9151C21.7002 70.643 16.5173 70.0989 16.5173 70.0989C16.5173 70.0989 23.2428 69.4541 30.1206 71.4592C33.5051 72.455 32.844 75.7769 32.0577 77.8446Z" fill="black"/>
<path d="M22.5358 46.6743C22.5358 46.6743 24.2988 53.2038 22.2393 67.2669C18.4004 67.1853 11.9498 67.0356 10.0807 66.9948C10.0344 65.0359 11.4791 55.4375 9.78955 46.1791C11.0062 45.9692 12.2364 45.8474 13.4706 45.8145C15.277 45.7501 17.0855 45.7891 18.8874 45.9315C20.1208 46.0849 21.3406 46.3332 22.5358 46.6743Z" fill="#1DA5A7"/>
<path opacity="0.7" d="M22.5358 46.6743C22.5358 46.6743 24.2988 53.2038 22.2393 67.2669C18.4004 67.1853 11.9498 67.0356 10.0807 66.9948C10.0344 65.0359 11.4791 55.4375 9.78955 46.1791C11.0062 45.9692 12.2364 45.8474 13.4706 45.8145C15.277 45.7501 17.0855 45.7891 18.8874 45.9315C20.1208 46.0849 21.3406 46.3332 22.5358 46.6743Z" fill="white"/>
<path opacity="0.1" d="M14.0556 58.1093C12.9674 57.8699 11.6696 56.8224 10.6004 55.7886C10.6004 53.9494 10.5106 51.9933 10.312 49.999C11.8247 52.2381 15.922 58.5201 14.0556 58.1093Z" fill="black"/>
<path d="M9.78151 46.1791C5.62163 47.6782 12.9239 58.9417 15.1902 60.1034C17.4565 61.2651 28.9757 58.8328 28.9757 58.8328L28.5214 56.504C28.5214 56.504 18.3298 56.7624 17.3912 56.5257C16.4526 56.289 14.2216 51.4871 12.9375 49.2208C12.2236 47.9062 11.1215 46.844 9.78151 46.1791Z" fill="#1DA5A7"/>
<path d="M27.7051 56.2943L28.2955 59.3877L29.3837 59.015L28.9756 56.2943H27.7051Z" fill="#1DA5A7"/>
<path opacity="0.7" d="M27.7051 56.2943L28.2955 59.3877L29.3837 59.015L28.9756 56.2943H27.7051Z" fill="white"/>
<path d="M27.9987 37.4622L30.9261 36.3032L30.3575 35.3047L27.7593 36.2134L27.9987 37.4622Z" fill="#1DA5A7"/>
<path opacity="0.7" d="M27.9987 37.4622L30.9261 36.3032L30.3575 35.3047L27.7593 36.2134L27.9987 37.4622Z" fill="white"/>
<path opacity="0.1" d="M12.8071 45.8419C12.8071 45.8419 12.886 47.1125 15.3809 48.3368L17.1058 47.088C17.1058 47.088 17.5982 50.2766 17.922 52.6572C17.922 52.6572 17.9002 48.8482 17.5737 47.3845L18.8932 47.8525C18.8932 47.8525 17.7696 45.9235 15.857 45.4801C13.9444 45.0366 12.8071 45.8419 12.8071 45.8419Z" fill="black"/>
<path d="M14.1287 39.7419C14.4334 41.4913 14.7055 44.6908 13.4622 45.828L17.0942 46.8401L18.8681 45.945C16.9337 45.439 17.0153 43.997 17.3826 42.6503L14.1287 39.7419Z" fill="#B97964"/>
<path opacity="0.2" d="M15.4624 40.9282L17.3941 42.6504C17.3047 42.9638 17.2419 43.2841 17.2064 43.6081C16.4664 43.4856 15.4652 42.6477 15.4026 41.8696C15.3639 41.5548 15.3842 41.2356 15.4624 40.9282Z" fill="black"/>
<path d="M16.7055 34.8802C15.9138 35.7399 16.5967 36.7221 19.1242 37.9164C19.7255 36.5915 19.3582 34.3796 18.542 33.9933C17.7258 33.6069 17.3966 34.1347 16.7055 34.8802Z" fill="#2E353A"/>
<path d="M13.0681 37.5846C13.7102 39.8618 13.9714 41.2248 15.3915 42.158C17.53 43.5591 20.15 41.8859 20.2017 39.4618C20.2452 37.2853 19.1896 33.9253 16.7328 33.4982C16.1921 33.4016 15.6357 33.4446 15.1163 33.6232C14.5969 33.8018 14.1316 34.11 13.7646 34.5187C13.3977 34.9273 13.1411 35.4229 13.0192 35.9585C12.8973 36.4941 12.9141 37.0519 13.0681 37.5791V37.5846Z" fill="#B97964"/>
<path d="M16.6504 37.4701C16.6912 37.6579 16.8245 37.7884 16.947 37.7612C17.0694 37.734 17.1347 37.5626 17.0939 37.3749C17.0531 37.1872 16.9225 37.0566 16.8001 37.0811C16.6776 37.1056 16.6232 37.2824 16.6504 37.4701Z" fill="#2E353A"/>
<path d="M18.7863 37.0107C18.8271 37.1985 18.9604 37.3291 19.0828 37.3019C19.2053 37.2746 19.2733 37.1032 19.2325 36.9128C19.1917 36.7223 19.0583 36.5945 18.9359 36.6217C18.8135 36.6489 18.7455 36.823 18.7863 37.0107Z" fill="#2E353A"/>
<path d="M18.1089 37.2499C18.4565 37.7763 18.8759 38.2515 19.3549 38.6619C19.2462 38.7813 19.1127 38.8756 18.9637 38.9381C18.8147 39.0006 18.6539 39.0298 18.4925 39.0237L18.1089 37.2499Z" fill="#A24E3F"/>
<path d="M15.9216 36.9235C15.9013 36.9311 15.8793 36.9323 15.8584 36.927C15.8375 36.9217 15.8187 36.9102 15.8045 36.8939C15.7903 36.8776 15.7814 36.8574 15.779 36.836C15.7766 36.8146 15.7808 36.7929 15.791 36.7739C15.8622 36.6092 15.972 36.464 16.1113 36.3508C16.2505 36.2376 16.415 36.1597 16.5908 36.1236C16.6193 36.1188 16.6485 36.1252 16.6723 36.1414C16.6962 36.1576 16.7128 36.1825 16.7187 36.2107C16.7219 36.2401 16.7139 36.2697 16.6963 36.2934C16.6786 36.3171 16.6526 36.3333 16.6235 36.3386C16.4854 36.3692 16.3566 36.4323 16.2478 36.5227C16.1389 36.6131 16.0532 36.7281 15.9977 36.8582C15.9912 36.8744 15.9809 36.8888 15.9676 36.9002C15.9544 36.9115 15.9386 36.9195 15.9216 36.9235Z" fill="#2E353A"/>
<path d="M19.603 36.0801C19.582 36.0854 19.56 36.0844 19.5396 36.0771C19.5193 36.0698 19.5016 36.0567 19.4887 36.0393C19.4043 35.9256 19.2943 35.8334 19.1676 35.7701C19.041 35.7067 18.9012 35.6741 18.7596 35.6747C18.7297 35.677 18.7001 35.6674 18.6772 35.6481C18.6543 35.6287 18.6399 35.6012 18.6371 35.5713C18.6355 35.542 18.6449 35.5131 18.6636 35.4905C18.6822 35.4678 18.7087 35.453 18.7378 35.4489C18.9172 35.4448 19.0951 35.4837 19.2564 35.5622C19.4178 35.6408 19.5581 35.7568 19.6656 35.9005C19.6748 35.9121 19.6816 35.9254 19.6856 35.9396C19.6897 35.9538 19.6908 35.9687 19.6891 35.9834C19.6873 35.9981 19.6826 36.0123 19.6753 36.0251C19.668 36.038 19.6582 36.0493 19.6465 36.0583C19.6341 36.0692 19.6191 36.0767 19.603 36.0801Z" fill="#2E353A"/>
<path d="M13.5575 35.3455C14.7165 35.4815 14.8362 36.6732 13.6935 39.2224C12.374 38.6076 11.2123 36.6868 11.585 35.8651C11.9577 35.0435 12.5318 35.2231 13.5575 35.3455Z" fill="#2E353A"/>
<path d="M12.369 39.6686C12.5084 39.9285 12.6976 40.1584 12.9259 40.3451C13.1542 40.5319 13.417 40.6718 13.6994 40.7569C14.4557 40.9773 14.842 40.3025 14.6407 39.5843C14.4584 38.9368 13.8436 38.0417 13.0818 38.1369C12.32 38.2321 12.0262 39.0238 12.369 39.6686Z" fill="#B97964"/>
<path d="M11.6744 35.6694C11.6744 35.6694 11.1004 34.9293 12.2186 33.4493C13.3367 31.9693 16.0683 31.5149 18.1632 31.923C20.2581 32.3311 19.012 34.6437 18.2639 35.0273L18.3564 34.6654C17.5556 35.0832 16.6738 35.3227 15.7717 35.3674L16.1853 34.9837C16.1853 34.9837 12.8987 35.8353 11.6744 35.6694Z" fill="#2E353A"/>
<path d="M18.3542 39.6495C18.3067 39.9291 18.2803 40.212 18.2753 40.4956L18.1284 40.5174C17.4536 40.6071 17.1135 40.4249 16.9394 40.199C16.8567 40.0854 16.8018 39.9541 16.7789 39.8154C16.7677 39.7369 16.7677 39.6572 16.7789 39.5787C17.22 39.709 17.684 39.7424 18.1392 39.6767C18.2644 39.6658 18.3542 39.6495 18.3542 39.6495Z" fill="#2E353A"/>
<path d="M18.1229 39.6767L18.093 39.927C17.4618 40.0086 17.0047 39.9814 16.7789 39.8154C16.7677 39.7369 16.7677 39.6572 16.7789 39.5787C17.2148 39.7067 17.673 39.7401 18.1229 39.6767Z" fill="white"/>
<path d="M18.1281 40.5147C17.4534 40.6045 17.1133 40.4222 16.9392 40.1964C17.1949 40.1674 17.4538 40.1839 17.7037 40.2453C17.87 40.2882 18.0185 40.3825 18.1281 40.5147Z" fill="#A24E3F"/>
<path d="M14.1018 44.7534C14.1018 44.7534 16.0661 46.228 17.0945 46.5681C17.0945 46.5681 17.5788 45.6594 17.3802 44.9085L18.8684 45.9451C19.0357 46.5689 19.0357 47.2257 18.8684 47.8495L17.0945 46.8402L15.4186 48.0645C15.4186 48.0645 12.9401 47.3462 12.7959 45.8417L14.1018 44.7534Z" fill="#1DA5A7"/>
<path opacity="0.8" d="M14.1018 44.7534C14.1018 44.7534 16.0661 46.228 17.0945 46.5681C17.0945 46.5681 17.5788 45.6594 17.3802 44.9085L18.8684 45.9451C19.0357 46.5689 19.0357 47.2257 18.8684 47.8495L17.0945 46.8402L15.4186 48.0645C15.4186 48.0645 12.9401 47.3462 12.7959 45.8417L14.1018 44.7534Z" fill="white"/>
<path d="M46.523 58.7076H19.4062C19.2304 58.7076 19.0879 58.8502 19.0879 59.026V59.8231C19.0879 59.9989 19.2304 60.1414 19.4062 60.1414H46.523C46.6988 60.1414 46.8413 59.9989 46.8413 59.8231V59.026C46.8413 58.8502 46.6988 58.7076 46.523 58.7076Z" fill="#1DA5A7"/>
<path opacity="0.5" d="M46.7499 58.9879V59.785C46.7499 59.9619 46.701 60.1034 46.5269 60.1034H19.4074C19.2305 60.1034 18.9993 59.9619 18.9993 59.785V58.9879C18.9993 58.8138 19.2305 58.743 19.4074 58.743H46.5269C46.701 58.743 46.7499 58.8138 46.7499 58.9879Z" fill="white"/>
<path opacity="0.2" d="M30.426 58.9879V59.785C30.426 59.9619 30.3662 60.1034 30.192 60.1034H19.4074C19.2305 60.1034 18.9993 59.9619 18.9993 59.785V58.9879C18.9993 58.8138 19.2305 58.743 19.4074 58.743H30.192C30.3662 58.743 30.426 58.8138 30.426 58.9879Z" fill="black"/>
<path d="M33.8898 13.8509C33.6907 13.1291 33.3115 12.4698 32.7879 11.9346C32.2642 11.3994 31.6133 11.0059 30.896 10.7911C30.1788 10.5762 29.4187 10.547 28.6871 10.7062C27.9555 10.8653 27.2763 11.2076 26.7131 11.701C26.1499 12.1944 25.7212 12.8228 25.4673 13.5271C25.2133 14.2314 25.1423 14.9887 25.261 15.728C25.3797 16.4673 25.6841 17.1643 26.1458 17.7538C26.6075 18.3432 27.2112 18.8058 27.9006 19.0982C28.1968 19.2197 28.4357 19.4494 28.5686 19.7408L28.7189 20.0806L32.9744 18.9248L32.9305 18.5549C32.8999 18.2343 32.9897 17.9138 33.1825 17.6557C33.5791 17.1156 33.8487 16.493 33.9712 15.8342C34.0937 15.1754 34.0658 14.4975 33.8898 13.8509Z" fill="#1DA5A7"/>
<path d="M30.1083 20.0898C30.1083 20.0898 29.468 18.0811 28.3376 17.1911L28.9641 17.0201L29.0126 16.0562L30.0366 17.5379L29.9534 15.7349L30.9636 17.3784L31.0653 16.4538L31.9599 16.2226C31.4705 17.3219 31.3829 18.5581 31.7125 19.7154" stroke="white" stroke-linecap="round" stroke-linejoin="round"/>
<path d="M30.9125 19.7523C30.1589 19.9581 29.7382 20.8249 29.974 21.6871C30.2097 22.5493 31.0095 23.0741 31.7631 22.8753C32.5167 22.6765 32.9351 21.805 32.7016 20.9428C32.4681 20.0806 31.666 19.5489 30.9125 19.7523Z" fill="#2E353A"/>
<path d="M32.3643 22.0824L30.8479 22.4962C30.4857 22.5947 30.0996 22.5528 29.767 22.3788C29.4343 22.2047 29.1797 21.9114 29.0542 21.5577L28.5572 20.1545C28.5472 20.1268 28.5431 20.0973 28.5452 20.0679C28.5472 20.0386 28.5554 20.0099 28.569 19.9839C28.5827 19.9578 28.6017 19.9348 28.6247 19.9165C28.6477 19.8981 28.6743 19.8847 28.7028 19.8772L32.8821 18.7376C32.9105 18.7297 32.9403 18.7278 32.9695 18.7321C32.9987 18.7363 33.0266 18.7466 33.0516 18.7623C33.0766 18.7779 33.0981 18.7986 33.1147 18.823C33.1313 18.8474 33.1426 18.875 33.1479 18.904L33.4323 20.3626C33.5039 20.7311 33.4337 21.113 33.2356 21.432C33.0376 21.7509 32.7264 21.9832 32.3643 22.0824Z" fill="#1DA5A7"/>
<path opacity="0.4" d="M32.3643 22.0824L30.8479 22.4962C30.4857 22.5947 30.0996 22.5528 29.767 22.3788C29.4343 22.2047 29.1797 21.9114 29.0542 21.5577L28.5572 20.1545C28.5472 20.1268 28.5431 20.0973 28.5452 20.0679C28.5472 20.0386 28.5554 20.0099 28.569 19.9839C28.5827 19.9578 28.6017 19.9348 28.6247 19.9165C28.6477 19.8981 28.6743 19.8847 28.7028 19.8772L32.8821 18.7376C32.9105 18.7297 32.9403 18.7278 32.9695 18.7321C32.9987 18.7363 33.0266 18.7466 33.0516 18.7623C33.0766 18.7779 33.0981 18.7986 33.1147 18.823C33.1313 18.8474 33.1426 18.875 33.1479 18.904L33.4323 20.3626C33.5039 20.7311 33.4337 21.113 33.2356 21.432C33.0376 21.7509 32.7264 21.9832 32.3643 22.0824Z" fill="white"/>
<path d="M23.7238 18.2707C23.3097 18.1946 22.8897 18.1551 22.4686 18.1528C22.2593 18.1515 22.0501 18.1631 21.8422 18.1875C21.7382 18.2036 21.6341 18.2152 21.5347 18.2406C21.4839 18.2545 21.433 18.2614 21.3845 18.2799L21.2389 18.3261L21.0724 18.3793L21.1718 18.2337C21.4522 17.8186 21.6753 17.3677 21.8352 16.893C21.9147 16.6575 21.9728 16.4154 22.0086 16.1695C22.0263 16.0477 22.0371 15.9249 22.041 15.8019C22.0479 15.6795 22.0479 15.5568 22.041 15.4344C22.0321 15.3132 22.0151 15.1927 21.9901 15.0738L21.9462 14.8981L21.8884 14.7247C21.8474 14.6114 21.7971 14.5016 21.7382 14.3965C21.6813 14.2905 21.6172 14.1885 21.5463 14.0914C21.4748 13.9944 21.3976 13.9018 21.3151 13.814L21.188 13.6845L21.0493 13.5643C20.9592 13.4811 20.8528 13.4164 20.7581 13.3332C20.6633 13.25 20.55 13.2037 20.446 13.1367L20.2148 12.9841L20.4714 12.8616C20.5939 12.8015 20.7234 12.7299 20.8459 12.6559C20.9684 12.5819 21.0909 12.5056 21.2111 12.4247C21.4494 12.2623 21.6757 12.0831 21.8884 11.8885C21.9924 11.7914 22.0941 11.692 22.1935 11.5879C22.2929 11.4839 22.3831 11.373 22.4686 11.262C22.5541 11.1511 22.6374 11.0309 22.6998 10.913C22.7744 10.7948 22.8416 10.672 22.9009 10.5454C22.962 10.4197 23.0145 10.2899 23.0581 10.1571L23.1182 9.9583L23.1621 9.75257C23.1879 9.61678 23.2033 9.47924 23.2083 9.34111C23.2206 9.06244 23.1957 8.78337 23.1343 8.51126L23.0881 8.30553L23.0234 8.10443C22.9841 7.96804 22.9217 7.84091 22.8708 7.70915C22.82 7.57739 22.746 7.45488 22.6836 7.32543L22.353 6.63196L22.9864 7.0388C23.0974 7.11277 23.2176 7.18443 23.3493 7.25146C23.4811 7.3185 23.6036 7.38322 23.733 7.44101C23.9908 7.5614 24.2565 7.66412 24.5282 7.74845C24.6646 7.78774 24.801 7.82473 24.9374 7.85478C25.0738 7.88593 25.212 7.90908 25.3511 7.92412C25.4883 7.94174 25.6266 7.95023 25.7649 7.94955C25.9017 7.94852 26.0383 7.93926 26.174 7.92181L26.3728 7.88714L26.5693 7.83397C26.6962 7.79231 26.8198 7.74132 26.9392 7.68141C26.9987 7.65279 27.0559 7.61956 27.1102 7.58201C27.1682 7.54832 27.2231 7.50965 27.2744 7.46644C27.3804 7.38388 27.4808 7.29429 27.5749 7.19829C27.6673 7.09853 27.753 6.99274 27.8314 6.88161C27.913 6.7699 27.9863 6.65248 28.051 6.53025C28.1227 6.41236 28.1712 6.27829 28.2336 6.15347C28.2961 6.02865 28.333 5.88995 28.3839 5.75819L28.6728 5L28.8162 5.79056C28.8404 5.91985 28.8736 6.0473 28.9156 6.17196C29.0374 6.55855 29.2234 6.9219 29.4657 7.24684C29.6255 7.45901 29.8146 7.64736 30.0274 7.80624C30.1323 7.88619 30.2437 7.95732 30.3603 8.0189C30.4768 8.08222 30.5982 8.13632 30.7232 8.18071C30.8486 8.22452 30.9768 8.26004 31.1069 8.28704C31.239 8.31361 31.3725 8.33214 31.5068 8.34252C31.6416 8.34946 31.7766 8.34946 31.9113 8.34252C32.0477 8.34252 32.1841 8.32402 32.3205 8.31247C32.4569 8.30091 32.5933 8.26855 32.7273 8.24774L33.1318 8.15066L33.5317 8.03046L33.927 7.88945L34.4749 7.69297L34.1605 8.18071C34.1027 8.26624 34.0449 8.37026 33.9917 8.46965C33.9386 8.56905 33.89 8.67076 33.8438 8.77709C33.7529 8.98436 33.6809 9.19945 33.6288 9.4197C33.5771 9.63703 33.5515 9.85974 33.5525 10.0831C33.555 10.3021 33.5933 10.5191 33.6658 10.7257L33.7282 10.8783L33.8068 11.047C33.8634 11.1408 33.9275 11.2297 33.9987 11.3129C34.07 11.3954 34.1473 11.4727 34.2298 11.544C34.3154 11.6184 34.4058 11.6871 34.5003 11.7498C34.594 11.8137 34.6913 11.8724 34.7915 11.9254C34.8909 11.9809 34.9973 12.0225 35.1013 12.0734L35.4249 12.1959L35.7578 12.2999L35.9889 12.3739L35.7948 12.5241C35.664 12.6256 35.5412 12.7369 35.4272 12.857C35.3121 12.9774 35.2056 13.1056 35.1082 13.2407C35.0551 13.3077 35.0135 13.3794 34.9672 13.4488C34.9227 13.5186 34.8825 13.5912 34.847 13.666C34.8064 13.74 34.7724 13.8173 34.7453 13.8972C34.7132 13.9719 34.6877 14.0492 34.669 14.1284C34.6529 14.2093 34.6251 14.2879 34.6159 14.3595L34.5928 14.6068C34.5928 14.6901 34.5928 14.7733 34.6066 14.8565C34.6113 14.9395 34.6252 15.0217 34.6482 15.1015C34.6634 15.1802 34.685 15.2576 34.713 15.3327L34.8077 15.5638C34.8396 15.6445 34.8791 15.7219 34.9256 15.795L35.0551 16.0261L35.1036 16.107H35.0135C34.6716 16.108 34.3313 16.153 34.001 16.2411C33.8356 16.2849 33.6758 16.3478 33.5248 16.4284C33.4873 16.4485 33.451 16.4709 33.4162 16.4954C33.3786 16.5166 33.3437 16.5422 33.3121 16.5717C33.2777 16.5969 33.2453 16.6247 33.2151 16.6549L33.1249 16.7497L33.2104 16.6503C33.2384 16.6174 33.2693 16.5872 33.3029 16.5601C33.3342 16.5293 33.3683 16.5015 33.4046 16.4769C33.4393 16.4538 33.474 16.426 33.5109 16.4052C33.6604 16.3156 33.8194 16.2428 33.9848 16.188C34.3176 16.0798 34.6638 16.0184 35.0135 16.0053L34.9742 16.0862L34.8308 15.8551C34.7788 15.7825 34.7339 15.7051 34.6968 15.6239L34.5881 15.3928C34.5536 15.3108 34.5273 15.2256 34.5095 15.1385C34.4807 15.054 34.4621 14.9663 34.4541 14.8773C34.4541 14.7895 34.4333 14.6993 34.4309 14.6115V14.341C34.4309 14.2532 34.4633 14.1653 34.4772 14.0775C34.4948 13.9893 34.5195 13.9028 34.5511 13.8186C34.5764 13.7325 34.6097 13.6489 34.6505 13.569C34.6853 13.4893 34.7255 13.412 34.7707 13.3378C34.8128 13.2583 34.8591 13.1812 34.9094 13.1066C35.0091 12.9592 35.1196 12.8194 35.24 12.6883C35.3605 12.5544 35.4911 12.43 35.6306 12.3161L35.6746 12.5472L35.3255 12.4478L34.9811 12.3253C34.8678 12.2768 34.7499 12.2329 34.6436 12.1751C34.5328 12.121 34.4255 12.06 34.3223 11.9925C34.2166 11.9261 34.1154 11.8527 34.0195 11.7729C33.9245 11.6925 33.8363 11.6044 33.756 11.5094C33.6698 11.4141 33.5924 11.3112 33.5248 11.2019L33.43 11.0355L33.3538 10.8575C33.2648 10.6222 33.2148 10.3739 33.2058 10.1224C33.1967 9.87018 33.2192 9.6178 33.2729 9.37116C33.3242 9.12866 33.3969 8.89118 33.4901 8.66151C33.5364 8.54594 33.5872 8.43036 33.6427 8.32403C33.6982 8.21769 33.756 8.10674 33.8276 7.99347L34.0588 8.28473L33.6473 8.43498L33.2289 8.56443C33.0856 8.60372 32.9423 8.63609 32.799 8.67076C32.6557 8.70543 32.51 8.72624 32.3621 8.74242C32.2142 8.76287 32.0652 8.77522 31.916 8.7794C31.762 8.7879 31.6076 8.7879 31.4537 8.7794C31.3031 8.76847 31.1533 8.7484 31.0052 8.7193C30.8557 8.68925 30.7083 8.64987 30.5637 8.60141C30.4195 8.55008 30.279 8.48907 30.143 8.4188C30.0064 8.34784 29.8757 8.2659 29.7523 8.17377C29.5059 7.99224 29.2864 7.77666 29.1005 7.53347C28.9159 7.29397 28.7607 7.03321 28.6382 6.75679C28.5757 6.61971 28.5209 6.47926 28.474 6.33608C28.4242 6.1902 28.384 6.04116 28.3539 5.88995L28.7861 5.92231C28.7329 6.06563 28.6844 6.21126 28.6266 6.35226C28.5674 6.49496 28.501 6.6346 28.4278 6.77066C28.3604 6.90929 28.2831 7.04293 28.1967 7.17056C28.106 7.30004 28.0072 7.42357 27.9008 7.54041C27.7904 7.65566 27.6714 7.76231 27.5448 7.8594C27.4824 7.90959 27.4159 7.95444 27.346 7.99347C27.2793 8.03796 27.2098 8.07811 27.138 8.11367C26.9941 8.18523 26.845 8.24551 26.6918 8.29397L26.4607 8.35176L26.2295 8.39337C26.0762 8.41287 25.9217 8.42137 25.7672 8.4188C25.6126 8.4191 25.4582 8.40906 25.3049 8.38875C25.1494 8.37029 24.9951 8.34328 24.8426 8.30784C24.6923 8.27548 24.5444 8.23387 24.3988 8.18764C24.1092 8.09699 23.8265 7.98576 23.5527 7.85478C23.414 7.79237 23.28 7.72302 23.1482 7.65136C23.0165 7.5797 22.887 7.50342 22.7506 7.4202L23.0534 7.14513C23.1205 7.28382 23.1921 7.41789 23.2522 7.56121C23.3141 7.70247 23.3689 7.84674 23.4164 7.99347L23.4857 8.22463L23.5366 8.45578C23.5677 8.60858 23.5908 8.7629 23.6059 8.9181C23.6149 9.07207 23.6149 9.22644 23.6059 9.38041C23.5989 9.53567 23.5803 9.6902 23.5504 9.84272L23.4996 10.0739L23.4302 10.305C23.3797 10.4537 23.3195 10.5989 23.2499 10.7396C23.1825 10.8797 23.1052 11.0149 23.0188 11.1441C22.9342 11.2705 22.8431 11.3924 22.746 11.5094C22.6466 11.6296 22.5449 11.7405 22.4386 11.8538C22.3322 11.967 22.219 12.0664 22.1057 12.1682C21.8752 12.3665 21.632 12.5495 21.3776 12.716C21.2497 12.7992 21.1202 12.8763 20.9892 12.9471C20.8551 13.0211 20.7234 13.0905 20.5778 13.1552L20.5939 12.8801C20.7026 12.9541 20.8251 13.0211 20.9222 13.0974C21.0193 13.1737 21.1348 13.2523 21.2296 13.3447L21.3776 13.4788L21.5139 13.6221C21.6029 13.7206 21.6862 13.8241 21.7636 13.9319C21.8401 14.0418 21.9088 14.1568 21.9693 14.2763C22.0307 14.394 22.0832 14.516 22.1265 14.6415L22.1843 14.8334L22.2259 15.0276C22.2504 15.1581 22.2659 15.2902 22.2721 15.4228C22.2885 15.9466 22.1973 16.4683 22.004 16.9554C21.8198 17.4378 21.5718 17.8934 21.2666 18.31L21.1996 18.2175L21.3544 18.1736C21.4076 18.1574 21.4608 18.1505 21.5139 18.1389C21.618 18.1158 21.7243 18.1089 21.8306 18.095C22.0431 18.0823 22.2561 18.0823 22.4686 18.095C22.8913 18.1174 23.3112 18.1762 23.7238 18.2707Z" fill="#1DA5A7"/>
<path opacity="0.7" d="M23.7238 18.2707C23.3097 18.1946 22.8897 18.1551 22.4686 18.1528C22.2593 18.1515 22.0501 18.1631 21.8422 18.1875C21.7382 18.2036 21.6341 18.2152 21.5347 18.2406C21.4839 18.2545 21.433 18.2614 21.3845 18.2799L21.2389 18.3261L21.0724 18.3793L21.1718 18.2337C21.4522 17.8186 21.6753 17.3677 21.8352 16.893C21.9147 16.6575 21.9728 16.4154 22.0086 16.1695C22.0263 16.0477 22.0371 15.9249 22.041 15.8019C22.0479 15.6795 22.0479 15.5568 22.041 15.4344C22.0321 15.3132 22.0151 15.1927 21.9901 15.0738L21.9462 14.8981L21.8884 14.7247C21.8474 14.6114 21.7971 14.5016 21.7382 14.3965C21.6813 14.2905 21.6172 14.1885 21.5463 14.0914C21.4748 13.9944 21.3976 13.9018 21.3151 13.814L21.188 13.6845L21.0493 13.5643C20.9592 13.4811 20.8528 13.4164 20.7581 13.3332C20.6633 13.25 20.55 13.2037 20.446 13.1367L20.2148 12.9841L20.4714 12.8616C20.5939 12.8015 20.7234 12.7299 20.8459 12.6559C20.9684 12.5819 21.0909 12.5056 21.2111 12.4247C21.4494 12.2623 21.6757 12.0831 21.8884 11.8885C21.9924 11.7914 22.0941 11.692 22.1935 11.5879C22.2929 11.4839 22.3831 11.373 22.4686 11.262C22.5541 11.1511 22.6374 11.0309 22.6998 10.913C22.7744 10.7948 22.8416 10.672 22.9009 10.5454C22.962 10.4197 23.0145 10.2899 23.0581 10.1571L23.1182 9.9583L23.1621 9.75257C23.1879 9.61678 23.2033 9.47924 23.2083 9.34111C23.2206 9.06244 23.1957 8.78337 23.1343 8.51126L23.0881 8.30553L23.0234 8.10443C22.9841 7.96804 22.9217 7.84091 22.8708 7.70915C22.82 7.57739 22.746 7.45488 22.6836 7.32543L22.353 6.63196L22.9864 7.0388C23.0974 7.11277 23.2176 7.18443 23.3493 7.25146C23.4811 7.3185 23.6036 7.38322 23.733 7.44101C23.9908 7.5614 24.2565 7.66412 24.5282 7.74845C24.6646 7.78774 24.801 7.82473 24.9374 7.85478C25.0738 7.88593 25.212 7.90908 25.3511 7.92412C25.4883 7.94174 25.6266 7.95023 25.7649 7.94955C25.9017 7.94852 26.0383 7.93926 26.174 7.92181L26.3728 7.88714L26.5693 7.83397C26.6962 7.79231 26.8198 7.74132 26.9392 7.68141C26.9987 7.65279 27.0559 7.61956 27.1102 7.58201C27.1682 7.54832 27.2231 7.50965 27.2744 7.46644C27.3804 7.38388 27.4808 7.29429 27.5749 7.19829C27.6673 7.09853 27.753 6.99274 27.8314 6.88161C27.913 6.7699 27.9863 6.65248 28.051 6.53025C28.1227 6.41236 28.1712 6.27829 28.2336 6.15347C28.2961 6.02865 28.333 5.88995 28.3839 5.75819L28.6728 5L28.8162 5.79056C28.8404 5.91985 28.8736 6.0473 28.9156 6.17196C29.0374 6.55855 29.2234 6.9219 29.4657 7.24684C29.6255 7.45901 29.8146 7.64736 30.0274 7.80624C30.1323 7.88619 30.2437 7.95732 30.3603 8.0189C30.4768 8.08222 30.5982 8.13632 30.7232 8.18071C30.8486 8.22452 30.9768 8.26004 31.1069 8.28704C31.239 8.31361 31.3725 8.33214 31.5068 8.34252C31.6416 8.34946 31.7766 8.34946 31.9113 8.34252C32.0477 8.34252 32.1841 8.32402 32.3205 8.31247C32.4569 8.30091 32.5933 8.26855 32.7273 8.24774L33.1318 8.15066L33.5317 8.03046L33.927 7.88945L34.4749 7.69297L34.1605 8.18071C34.1027 8.26624 34.0449 8.37026 33.9917 8.46965C33.9386 8.56905 33.89 8.67076 33.8438 8.77709C33.7529 8.98436 33.6809 9.19945 33.6288 9.4197C33.5771 9.63703 33.5515 9.85974 33.5525 10.0831C33.555 10.3021 33.5933 10.5191 33.6658 10.7257L33.7282 10.8783L33.8068 11.047C33.8634 11.1408 33.9275 11.2297 33.9987 11.3129C34.07 11.3954 34.1473 11.4727 34.2298 11.544C34.3154 11.6184 34.4058 11.6871 34.5003 11.7498C34.594 11.8137 34.6913 11.8724 34.7915 11.9254C34.8909 11.9809 34.9973 12.0225 35.1013 12.0734L35.4249 12.1959L35.7578 12.2999L35.9889 12.3739L35.7948 12.5241C35.664 12.6256 35.5412 12.7369 35.4272 12.857C35.3121 12.9774 35.2056 13.1056 35.1082 13.2407C35.0551 13.3077 35.0135 13.3794 34.9672 13.4488C34.9227 13.5186 34.8825 13.5912 34.847 13.666C34.8064 13.74 34.7724 13.8173 34.7453 13.8972C34.7132 13.9719 34.6877 14.0492 34.669 14.1284C34.6529 14.2093 34.6251 14.2879 34.6159 14.3595L34.5928 14.6068C34.5928 14.6901 34.5928 14.7733 34.6066 14.8565C34.6113 14.9395 34.6252 15.0217 34.6482 15.1015C34.6634 15.1802 34.685 15.2576 34.713 15.3327L34.8077 15.5638C34.8396 15.6445 34.8791 15.7219 34.9256 15.795L35.0551 16.0261L35.1036 16.107H35.0135C34.6716 16.108 34.3313 16.153 34.001 16.2411C33.8356 16.2849 33.6758 16.3478 33.5248 16.4284C33.4873 16.4485 33.451 16.4709 33.4162 16.4954C33.3786 16.5166 33.3437 16.5422 33.3121 16.5717C33.2777 16.5969 33.2453 16.6247 33.2151 16.6549L33.1249 16.7497L33.2104 16.6503C33.2384 16.6174 33.2693 16.5872 33.3029 16.5601C33.3342 16.5293 33.3683 16.5015 33.4046 16.4769C33.4393 16.4538 33.474 16.426 33.5109 16.4052C33.6604 16.3156 33.8194 16.2428 33.9848 16.188C34.3176 16.0798 34.6638 16.0184 35.0135 16.0053L34.9742 16.0862L34.8308 15.8551C34.7788 15.7825 34.7339 15.7051 34.6968 15.6239L34.5881 15.3928C34.5536 15.3108 34.5273 15.2256 34.5095 15.1385C34.4807 15.054 34.4621 14.9663 34.4541 14.8773C34.4541 14.7895 34.4333 14.6993 34.4309 14.6115V14.341C34.4309 14.2532 34.4633 14.1653 34.4772 14.0775C34.4948 13.9893 34.5195 13.9028 34.5511 13.8186C34.5764 13.7325 34.6097 13.6489 34.6505 13.569C34.6853 13.4893 34.7255 13.412 34.7707 13.3378C34.8128 13.2583 34.8591 13.1812 34.9094 13.1066C35.0091 12.9592 35.1196 12.8194 35.24 12.6883C35.3605 12.5544 35.4911 12.43 35.6306 12.3161L35.6746 12.5472L35.3255 12.4478L34.9811 12.3253C34.8678 12.2768 34.7499 12.2329 34.6436 12.1751C34.5328 12.121 34.4255 12.06 34.3223 11.9925C34.2166 11.9261 34.1154 11.8527 34.0195 11.7729C33.9245 11.6925 33.8363 11.6044 33.756 11.5094C33.6698 11.4141 33.5924 11.3112 33.5248 11.2019L33.43 11.0355L33.3538 10.8575C33.2648 10.6222 33.2148 10.3739 33.2058 10.1224C33.1967 9.87018 33.2192 9.6178 33.2729 9.37116C33.3242 9.12866 33.3969 8.89118 33.4901 8.66151C33.5364 8.54594 33.5872 8.43036 33.6427 8.32403C33.6982 8.21769 33.756 8.10674 33.8276 7.99347L34.0588 8.28473L33.6473 8.43498L33.2289 8.56443C33.0856 8.60372 32.9423 8.63609 32.799 8.67076C32.6557 8.70543 32.51 8.72624 32.3621 8.74242C32.2142 8.76287 32.0652 8.77522 31.916 8.7794C31.762 8.7879 31.6076 8.7879 31.4537 8.7794C31.3031 8.76847 31.1533 8.7484 31.0052 8.7193C30.8557 8.68925 30.7083 8.64987 30.5637 8.60141C30.4195 8.55008 30.279 8.48907 30.143 8.4188C30.0064 8.34784 29.8757 8.2659 29.7523 8.17377C29.5059 7.99224 29.2864 7.77666 29.1005 7.53347C28.9159 7.29397 28.7607 7.03321 28.6382 6.75679C28.5757 6.61971 28.5209 6.47926 28.474 6.33608C28.4242 6.1902 28.384 6.04116 28.3539 5.88995L28.7861 5.92231C28.7329 6.06563 28.6844 6.21126 28.6266 6.35226C28.5674 6.49496 28.501 6.6346 28.4278 6.77066C28.3604 6.90929 28.2831 7.04293 28.1967 7.17056C28.106 7.30004 28.0072 7.42357 27.9008 7.54041C27.7904 7.65566 27.6714 7.76231 27.5448 7.8594C27.4824 7.90959 27.4159 7.95444 27.346 7.99347C27.2793 8.03796 27.2098 8.07811 27.138 8.11367C26.9941 8.18523 26.845 8.24551 26.6918 8.29397L26.4607 8.35176L26.2295 8.39337C26.0762 8.41287 25.9217 8.42137 25.7672 8.4188C25.6126 8.4191 25.4582 8.40906 25.3049 8.38875C25.1494 8.37029 24.9951 8.34328 24.8426 8.30784C24.6923 8.27548 24.5444 8.23387 24.3988 8.18764C24.1092 8.09699 23.8265 7.98576 23.5527 7.85478C23.414 7.79237 23.28 7.72302 23.1482 7.65136C23.0165 7.5797 22.887 7.50342 22.7506 7.4202L23.0534 7.14513C23.1205 7.28382 23.1921 7.41789 23.2522 7.56121C23.3141 7.70247 23.3689 7.84674 23.4164 7.99347L23.4857 8.22463L23.5366 8.45578C23.5677 8.60858 23.5908 8.7629 23.6059 8.9181C23.6149 9.07207 23.6149 9.22644 23.6059 9.38041C23.5989 9.53567 23.5803 9.6902 23.5504 9.84272L23.4996 10.0739L23.4302 10.305C23.3797 10.4537 23.3195 10.5989 23.2499 10.7396C23.1825 10.8797 23.1052 11.0149 23.0188 11.1441C22.9342 11.2705 22.8431 11.3924 22.746 11.5094C22.6466 11.6296 22.5449 11.7405 22.4386 11.8538C22.3322 11.967 22.219 12.0664 22.1057 12.1682C21.8752 12.3665 21.632 12.5495 21.3776 12.716C21.2497 12.7992 21.1202 12.8763 20.9892 12.9471C20.8551 13.0211 20.7234 13.0905 20.5778 13.1552L20.5939 12.8801C20.7026 12.9541 20.8251 13.0211 20.9222 13.0974C21.0193 13.1737 21.1348 13.2523 21.2296 13.3447L21.3776 13.4788L21.5139 13.6221C21.6029 13.7206 21.6862 13.8241 21.7636 13.9319C21.8401 14.0418 21.9088 14.1568 21.9693 14.2763C22.0307 14.394 22.0832 14.516 22.1265 14.6415L22.1843 14.8334L22.2259 15.0276C22.2504 15.1581 22.2659 15.2902 22.2721 15.4228C22.2885 15.9466 22.1973 16.4683 22.004 16.9554C21.8198 17.4378 21.5718 17.8934 21.2666 18.31L21.1996 18.2175L21.3544 18.1736C21.4076 18.1574 21.4608 18.1505 21.5139 18.1389C21.618 18.1158 21.7243 18.1089 21.8306 18.095C22.0431 18.0823 22.2561 18.0823 22.4686 18.095C22.8913 18.1174 23.3112 18.1762 23.7238 18.2707Z" fill="white"/>
</svg>
