<svg width="429" height="320" viewBox="0 0 429 320" fill="none" xmlns="http://www.w3.org/2000/svg">
<path d="M343.187 59.7794V251.892C343.187 261.696 335.237 269.648 325.435 269.648H93.9398C84.1163 269.648 76.166 261.696 76.166 251.892V59.7794C76.166 49.9755 84.1163 42.0234 93.9398 42.0234H325.435C335.237 42.0234 343.187 49.9755 343.187 59.7794Z" fill="#D2EDED" fill-opacity="0.5"/>
<path d="M428.986 280.9H0V281.115H428.986V280.9Z" fill="#EBEBEB"/>
<path d="M386.002 294.705H357.586V294.92H386.002V294.705Z" fill="#EBEBEB"/>
<path d="M284.176 297.039H276.721V297.254H284.176V297.039Z" fill="#EBEBEB"/>
<path d="M356.728 286.743H340.264V286.958H356.728V286.743Z" fill="#EBEBEB"/>
<path d="M82.0656 288.185H45.0098V288.399H82.0656V288.185Z" fill="#EBEBEB"/>
<path d="M95.14 288.185H89.709V288.399H95.14V288.185Z" fill="#EBEBEB"/>
<path d="M193.172 291.806H112.797V292.02H193.172V291.806Z" fill="#EBEBEB"/>
<path d="M203.34 242.635H37.6736C36.3758 242.632 35.132 242.115 34.2151 241.197C33.2982 240.278 32.7832 239.034 32.7832 237.736V4.85613C32.7945 3.56576 33.3145 2.33195 34.2301 1.42271C35.1458 0.513461 36.3832 0.00221047 37.6736 0H203.34C204.639 0 205.885 0.516146 206.804 1.43489C207.723 2.35364 208.239 3.59972 208.239 4.89902V237.736C208.239 239.035 207.723 240.281 206.804 241.2C205.885 242.119 204.639 242.635 203.34 242.635ZM37.6736 0.171595C36.4327 0.173868 35.2434 0.668417 34.3667 1.54669C33.4901 2.42496 32.9977 3.6152 32.9977 4.85613V237.736C32.9977 238.977 33.4901 240.167 34.3667 241.045C35.2434 241.923 36.4327 242.418 37.6736 242.42H203.34C204.581 242.418 205.772 241.924 206.65 241.046C207.528 240.168 208.022 238.977 208.024 237.736V4.85613C208.022 3.61441 207.528 2.4242 206.65 1.54617C205.772 0.668138 204.581 0.173863 203.34 0.171595H37.6736Z" fill="#EBEBEB"/>
<path d="M388.927 242.635H223.253C221.954 242.632 220.709 242.116 219.791 241.197C218.873 240.279 218.356 239.034 218.354 237.736V4.85613C218.367 3.56497 218.889 2.33118 219.806 1.42217C220.723 0.513161 221.961 0.00218636 223.253 0H388.927C390.216 0.00446532 391.451 0.516714 392.365 1.42572C393.279 2.33472 393.798 3.56724 393.809 4.85613V237.736C393.809 239.032 393.295 240.276 392.38 241.194C391.465 242.112 390.223 242.63 388.927 242.635ZM223.253 0.171595C222.011 0.173863 220.821 0.668138 219.943 1.54617C219.065 2.4242 218.57 3.61441 218.568 4.85613V237.736C218.57 238.977 219.065 240.168 219.943 241.046C220.821 241.924 222.011 242.418 223.253 242.42H388.927C390.169 242.418 391.359 241.924 392.237 241.046C393.115 240.168 393.609 238.977 393.612 237.736V4.85613C393.609 3.61441 393.115 2.4242 392.237 1.54617C391.359 0.668138 390.169 0.173863 388.927 0.171595H223.253Z" fill="#EBEBEB"/>
<path d="M308.287 116.041C333.126 116.041 353.262 95.9047 353.262 71.0658C353.262 46.2268 333.126 26.0908 308.287 26.0908C283.448 26.0908 263.312 46.2268 263.312 71.0658C263.312 95.9047 283.448 116.041 308.287 116.041Z" fill="#E0E0E0"/>
<path d="M304.871 116.041C329.71 116.041 349.846 95.9047 349.846 71.0658C349.846 46.2268 329.71 26.0908 304.871 26.0908C280.032 26.0908 259.896 46.2268 259.896 71.0658C259.896 95.9047 280.032 116.041 304.871 116.041Z" fill="#F5F5F5"/>
<path d="M334.269 100.466C350.502 84.2322 350.502 57.9123 334.269 41.6787C318.035 25.4451 291.715 25.4451 275.481 41.6787C259.248 57.9123 259.248 84.2322 275.481 100.466C291.715 116.699 318.035 116.699 334.269 100.466Z" fill="white"/>
<path d="M311.959 101.319C311.733 101.319 311.513 101.243 311.335 101.103C311.158 100.963 311.033 100.767 310.981 100.547L303.894 71.3068C303.844 71.0513 303.894 70.7862 304.034 70.5668C304.175 70.3474 304.394 70.1904 304.647 70.1286C304.9 70.0667 305.167 70.1047 305.393 70.2347C305.618 70.3646 305.785 70.5765 305.859 70.8263L312.937 100.075C312.999 100.335 312.955 100.61 312.815 100.838C312.675 101.066 312.451 101.23 312.191 101.293C312.114 101.31 312.037 101.319 311.959 101.319Z" fill="#F5F5F5"/>
<path d="M304.872 73.0826C304.607 73.0826 304.345 73.0304 304.1 72.9288C303.856 72.8272 303.634 72.6783 303.447 72.4906L279.124 48.167C278.937 47.9794 278.789 47.7568 278.688 47.5119C278.587 47.2671 278.535 47.0047 278.535 46.7398C278.536 46.2048 278.749 45.692 279.128 45.3143C279.507 44.9365 280.02 44.7248 280.555 44.7256C281.09 44.7264 281.603 44.9397 281.981 45.3186L304.872 68.2179L318.23 54.8592C318.609 54.4815 319.123 54.2697 319.658 54.2705C320.193 54.2713 320.705 54.4846 321.083 54.8635C321.461 55.2424 321.673 55.7558 321.672 56.2908C321.671 56.8258 321.458 57.3385 321.079 57.7163L306.296 72.4906C305.918 72.8689 305.406 73.0818 304.872 73.0826Z" fill="#EBEBEB"/>
<path d="M190.04 274.638H196.818V228.221H190.04V274.638Z" fill="#F0F0F0"/>
<path d="M52.9462 280.9H192.35V274.637H52.9462V280.9Z" fill="#F0F0F0"/>
<path d="M190.041 228.221H48.4668V274.637H190.041V228.221Z" fill="#F5F5F5"/>
<path d="M180.878 236.303H57.6211V262.814H180.878V236.303Z" fill="#F0F0F0"/>
<path d="M89.2716 239.846H149.244C150.367 239.846 151.277 238.935 151.277 237.812V237.435C151.277 236.312 150.367 235.401 149.244 235.401H89.2716C88.1486 235.401 87.2382 236.312 87.2382 237.435V237.812C87.2382 238.935 88.1486 239.846 89.2716 239.846Z" fill="#F5F5F5"/>
<path d="M45.361 228.221L190.041 228.221V224.077L45.361 224.077V228.221Z" fill="#F0F0F0"/>
<path d="M200.071 224.077H190.041V228.221H200.071V224.077Z" fill="#E6E6E6"/>
<path d="M368.662 179.213H355.449V280.9H368.662V179.213Z" fill="#F0F0F0"/>
<path d="M239.803 280.9H355.449V179.213H239.803V280.9Z" fill="#F5F5F5"/>
<path d="M238.749 271.969H340.281V217.582H238.749V271.969Z" fill="#FAFAFA"/>
<path d="M238.749 211.816H340.281V193.911H238.749V211.816Z" fill="#FAFAFA"/>
<g style="mix-blend-mode:multiply" opacity="0.7">
<path d="M341.191 217.582H340.281V271.969H341.191V217.582Z" fill="#E6E6E6"/>
</g>
<g style="mix-blend-mode:multiply" opacity="0.7">
<path d="M341.191 193.91H340.281V211.816H341.191V193.91Z" fill="#E6E6E6"/>
</g>
<g style="mix-blend-mode:multiply" opacity="0.7">
<path d="M368.662 183.503H239.512V185.802H368.662V183.503Z" fill="#E6E6E6"/>
</g>
<path d="M370.206 177.823H355.449V184.473H370.206V177.823Z" fill="#F0F0F0"/>
<path d="M238.259 184.473L355.449 184.473V177.823H238.259V184.473Z" fill="#F5F5F5"/>
<path d="M282.221 158.244C281.424 156.988 280.898 155.58 280.677 154.109C280.444 152.639 280.369 151.149 280.454 149.664C280.637 146.709 281.268 143.799 282.324 141.033C282.827 139.66 283.399 138.315 284.04 137.001C284.726 135.714 285.413 134.427 286.185 133.2C286.957 131.973 287.806 130.789 288.681 129.639C289.557 128.49 290.543 127.417 291.564 126.379C291.067 127.76 290.475 129.064 289.848 130.368C289.222 131.673 288.733 132.985 288.132 134.255L286.468 138.116L285.704 140.064L285.31 141.033L284.966 142.011C283.986 144.589 283.209 147.24 282.641 149.939C282.347 151.287 282.146 152.655 282.041 154.031C281.913 155.437 281.973 156.854 282.221 158.244Z" fill="#E6E6E6"/>
<path d="M265.569 160.519C265.679 158.447 265.497 156.371 265.028 154.35C264.589 152.508 263.729 150.792 262.514 149.339C261.219 147.899 259.687 146.692 257.984 145.77C256.225 144.749 254.286 143.951 252.287 143.008C254.509 142.771 256.755 143.01 258.876 143.711C259.972 144.07 261.021 144.56 261.999 145.17C263 145.814 263.904 146.597 264.685 147.495C266.243 149.332 267.148 151.634 267.259 154.041C267.377 156.323 266.787 158.586 265.569 160.519Z" fill="#E6E6E6"/>
<path d="M266.314 160.218C266.242 157.803 266.015 155.396 265.636 153.011C265.282 150.737 264.651 148.516 263.757 146.396C262.863 144.311 261.634 142.387 260.12 140.699C258.485 138.953 256.667 137.388 254.697 136.031C257.235 136.425 259.628 137.465 261.647 139.051C263.716 140.695 265.341 142.83 266.374 145.263C267.393 147.657 267.899 150.238 267.859 152.839C267.874 155.38 267.347 157.896 266.314 160.218Z" fill="#E6E6E6"/>
<path d="M281.081 155.833C279.217 153.415 277.634 150.793 276.362 148.017C275.069 145.249 274.004 142.379 273.179 139.438C272.344 136.488 271.79 133.466 271.523 130.412C271.242 127.358 271.384 124.28 271.944 121.266C272.57 124.277 273.05 127.186 273.737 130.077C274.423 132.968 275.109 135.817 275.925 138.657C276.74 141.497 277.563 144.337 278.447 147.176C279.331 150.016 280.232 152.899 281.081 155.833Z" fill="#E6E6E6"/>
<path d="M280.308 155.62C278.184 153.542 276.291 151.241 274.662 148.756C273.032 146.278 271.597 143.676 270.372 140.974C269.131 138.266 268.143 135.448 267.421 132.557C266.691 129.662 266.359 126.68 266.434 123.694C267.515 126.491 268.451 129.203 269.557 131.871C270.664 134.539 271.762 137.182 272.989 139.798C274.216 142.415 275.4 145.024 276.653 147.649C277.905 150.274 279.115 152.891 280.308 155.62Z" fill="#E6E6E6"/>
<path d="M283.499 158.365C281.093 157.091 278.859 155.517 276.85 153.68C274.826 151.856 272.979 149.845 271.333 147.674C269.653 145.516 268.215 143.179 267.043 140.708C265.871 138.238 265.089 135.601 264.727 132.892C266.202 135.2 267.506 137.456 269.016 139.61C270.526 141.763 271.985 143.899 273.589 145.95C275.194 148.001 276.798 150.06 278.463 152.102C280.127 154.144 281.817 156.22 283.499 158.365Z" fill="#E6E6E6"/>
<path d="M278.842 155.637C276.505 154.674 274.338 153.342 272.425 151.69C270.495 150.066 268.766 148.217 267.277 146.182C266.52 145.167 265.821 144.11 265.183 143.016C264.562 141.907 264.009 140.76 263.528 139.584C262.541 137.254 261.935 134.78 261.734 132.257C263.081 134.41 264.188 136.547 265.527 138.554C266.127 139.593 266.848 140.553 267.474 141.566C268.101 142.578 268.83 143.522 269.568 144.466C270.986 146.376 272.473 148.249 274.029 150.086C275.539 151.947 277.126 153.758 278.842 155.637Z" fill="#E6E6E6"/>
<path d="M282.496 157.103C281.386 156.32 280.499 155.261 279.922 154.032C279.326 152.804 278.907 151.499 278.678 150.154C278.249 147.486 278.325 144.762 278.901 142.123C279.179 140.828 279.522 139.548 279.931 138.288C280.42 137.061 280.857 135.817 281.441 134.642C282.024 133.466 282.642 132.316 283.337 131.21C284.052 130.113 284.822 129.053 285.645 128.035C285.37 129.331 284.984 130.558 284.615 131.785C284.246 133.011 283.937 134.247 283.534 135.439C283.131 136.632 282.891 137.868 282.522 139.06L282.101 140.87C281.956 141.471 281.784 142.072 281.698 142.681C281.18 145.063 280.916 147.493 280.909 149.931C280.898 151.148 281.007 152.364 281.235 153.56C281.449 154.805 281.876 156.003 282.496 157.103Z" fill="#E6E6E6"/>
<path d="M280.901 154.366C279.02 152.355 277.657 149.917 276.929 147.262C276.137 144.581 275.883 141.77 276.182 138.991C276.225 138.296 276.397 137.618 276.508 136.932L276.706 135.902L277.006 134.907C277.229 134.247 277.418 133.586 277.667 132.942C277.915 132.299 278.241 131.681 278.525 131.063L278.988 130.145L279.546 129.287L280.678 127.571C281.525 126.515 282.439 125.515 283.415 124.577C282.969 125.873 282.377 127.048 281.896 128.266L281.219 130.094L280.875 130.952L280.601 131.879C280.421 132.488 280.232 133.097 280.035 133.697L279.614 135.542L279.391 136.46L279.262 137.387C279.185 138.004 279.031 138.622 278.996 139.24C278.735 141.738 278.769 144.258 279.099 146.747C279.417 149.345 280.022 151.901 280.901 154.366Z" fill="#E6E6E6"/>
<path d="M277.279 153.32L264.984 142.381L266.803 157.232L277.279 153.32Z" fill="#E6E6E6"/>
<path d="M253.582 151.32H289.257L284.581 177.823H258.258L253.582 151.32Z" fill="#F5F5F5"/>
<path d="M275.873 151.32H289.257L284.581 177.823H277.555L275.873 151.32Z" fill="#EBEBEB"/>
<path d="M320.761 158.296C320.929 157.124 320.88 155.932 320.615 154.778C320.388 153.674 320.034 152.6 319.56 151.578C318.599 149.526 317.379 147.606 315.931 145.864C315.605 145.392 315.184 145.006 314.815 144.551C314.447 144.096 314.069 143.693 313.674 143.238C312.816 142.38 312.079 141.522 311.229 140.665C310.38 139.807 309.565 138.949 308.707 138.091C307.849 137.233 306.991 136.375 306.133 135.439C307.291 135.877 308.389 136.418 309.505 136.967C310.587 137.562 311.638 138.212 312.653 138.914C313.165 139.265 313.658 139.643 314.129 140.047C314.61 140.441 315.081 140.853 315.553 141.257C316.468 142.12 317.328 143.04 318.127 144.011C319.775 145.994 320.977 148.309 321.654 150.797C321.979 152.057 322.092 153.361 321.988 154.658C321.93 155.962 321.505 157.223 320.761 158.296Z" fill="#E6E6E6"/>
<path d="M340.822 154.701C339.917 153.922 339.249 152.906 338.891 151.767C338.693 151.181 338.563 150.573 338.505 149.957C338.488 149.642 338.488 149.327 338.505 149.013C338.495 148.699 338.524 148.385 338.591 148.078C339.095 145.637 340.37 143.423 342.229 141.763C342.658 141.343 343.147 141.008 343.601 140.631C344.054 140.255 344.536 139.916 345.043 139.618C345.54 139.326 346.038 139.026 346.553 138.76C346.802 138.623 347.05 138.469 347.316 138.348L348.106 138.014C348.638 137.791 349.17 137.585 349.702 137.379C350.231 137.165 350.776 136.993 351.332 136.864C352.437 136.576 353.557 136.347 354.686 136.178C353.799 136.88 352.874 137.533 351.915 138.134C351.443 138.417 350.997 138.734 350.551 139.061C350.105 139.387 349.693 139.678 349.195 139.979C348.26 140.536 347.479 141.248 346.621 141.849C346.193 142.149 345.786 142.479 345.403 142.836C345.008 143.179 344.545 143.488 344.219 143.848C342.733 145.162 341.56 146.792 340.787 148.618C340.624 149.078 340.492 149.548 340.393 150.025C340.314 150.522 340.273 151.024 340.272 151.527C340.272 152.609 340.458 153.682 340.822 154.701Z" fill="#E6E6E6"/>
<path d="M339.904 154.702C338.354 152.683 337.51 150.211 337.501 147.666C337.466 145.06 338.129 142.491 339.423 140.228L340.453 138.597C340.847 138.091 341.268 137.611 341.688 137.13L342.332 136.418L343.035 135.8L344.477 134.591C345.495 133.884 346.552 133.234 347.643 132.643C348.762 132.136 349.907 131.689 351.075 131.305C350.217 132.214 349.359 133.021 348.441 133.793C347.522 134.565 346.776 135.449 345.97 136.264C345.592 136.71 345.223 137.122 344.837 137.559L344.262 138.186L343.773 138.872C343.447 139.327 343.087 139.73 342.769 140.21L341.911 141.626C340.823 143.535 340.088 145.625 339.741 147.795C339.385 150.089 339.44 152.427 339.904 154.702Z" fill="#E6E6E6"/>
<path d="M321.859 155.971C322.571 153.32 323.344 150.764 324.09 148.25C324.837 145.736 325.566 143.17 326.235 140.631C326.904 138.091 327.462 135.535 327.951 132.909C328.44 130.284 328.706 127.761 328.938 124.981C329.839 127.602 330.264 130.362 330.19 133.132C330.087 135.89 329.687 138.628 328.998 141.3C328.298 143.956 327.353 146.541 326.175 149.022C325.024 151.505 323.574 153.839 321.859 155.971Z" fill="#E6E6E6"/>
<path d="M322.752 155.542C323.867 152.968 325.068 150.394 326.252 147.932C327.437 145.469 328.629 142.964 329.77 140.476C330.911 137.988 332.009 135.491 333.03 132.96C334.051 130.429 334.927 127.812 335.785 125.118C336.05 127.967 335.844 130.839 335.175 133.621C334.499 136.387 333.559 139.081 332.37 141.668C331.175 144.235 329.778 146.702 328.191 149.047C326.62 151.404 324.796 153.582 322.752 155.542Z" fill="#E6E6E6"/>
<path d="M319.26 158.811C320.933 156.512 322.692 154.341 324.408 152.171C326.124 150 327.839 147.881 329.504 145.693C331.168 143.505 332.799 141.334 334.36 139.087C335.922 136.839 337.346 134.522 338.796 132.068C338.416 134.904 337.572 137.657 336.299 140.219C335.023 142.764 333.506 145.18 331.769 147.435C330.03 149.668 328.117 151.759 326.046 153.689C323.978 155.639 321.702 157.357 319.26 158.811Z" fill="#E6E6E6"/>
<path d="M324.512 155.069C326.15 153.019 327.789 151.08 329.402 149.115C331.015 147.15 332.577 145.203 334.104 143.221C335.631 141.239 337.047 139.197 338.394 137.112C339.741 135.027 340.968 132.822 342.289 130.54C342.096 133.178 341.446 135.761 340.367 138.176C339.293 140.587 337.936 142.862 336.326 144.954C334.73 147.035 332.931 148.952 330.955 150.677C329.011 152.419 326.844 153.896 324.512 155.069Z" fill="#E6E6E6"/>
<path d="M320.315 157.463C321.246 155.602 321.695 153.537 321.619 151.458C321.506 149.473 320.998 147.53 320.126 145.743L319.835 145.049L319.466 144.379L318.745 143.024C318.17 142.166 317.655 141.248 317.029 140.364C316.403 139.48 315.837 138.597 315.202 137.713C314.535 136.824 313.914 135.902 313.34 134.95C314.327 135.493 315.283 136.089 316.205 136.735C317.105 137.42 317.965 138.156 318.779 138.94C319.186 139.338 319.568 139.762 319.921 140.21C320.287 140.65 320.647 141.096 321.002 141.548L321.92 143.032L322.357 143.787L322.718 144.594C323.764 146.769 324.152 149.202 323.833 151.595C323.68 152.762 323.289 153.885 322.684 154.895C322.079 155.905 321.273 156.779 320.315 157.463Z" fill="#E6E6E6"/>
<path d="M321.91 154.727C322.616 152.6 323.099 150.407 323.352 148.18C323.584 146.105 323.429 144.005 322.897 141.986C322.63 140.99 322.256 140.027 321.782 139.112C321.31 138.168 320.753 137.269 320.117 136.426C318.751 134.641 317.254 132.961 315.639 131.398C317.938 132.079 320.045 133.29 321.79 134.933C322.701 135.771 323.492 136.729 324.141 137.782C324.811 138.845 325.319 140.002 325.651 141.214C326.297 143.639 326.259 146.196 325.54 148.601C324.89 150.926 323.638 153.039 321.91 154.727Z" fill="#E6E6E6"/>
<path d="M326.107 152.693L339.526 139.807L338.986 152.445L326.107 152.693Z" fill="#E6E6E6"/>
<path d="M311.428 151.32H347.102L342.426 177.823H316.104L311.428 151.32Z" fill="#F5F5F5"/>
<path d="M333.709 151.32H347.102L342.426 177.823H335.399L333.709 151.32Z" fill="#EBEBEB"/>
<path d="M89.1187 30.6465V169.638C89.1187 175.418 86.8227 180.961 82.7358 185.048C78.6489 189.135 73.1059 191.431 67.3262 191.431H168.567C174.347 191.431 179.891 189.135 183.98 185.048C188.068 180.962 190.366 175.419 190.368 169.638V30.6465H89.1187Z" fill="#F5F5F5"/>
<path d="M174.477 65.832H109.057V131.252H174.477V65.832Z" fill="#F0F0F0"/>
<path d="M172.471 63.8164H107.051V129.237H172.471V63.8164Z" fill="white"/>
<path d="M123.111 138.923H106.475V155.559H123.111V138.923Z" fill="white"/>
<path d="M172.462 138.923H155.826V155.559H172.462V138.923Z" fill="white"/>
<path d="M147.786 138.923H131.15V155.559H147.786V138.923Z" fill="white"/>
<path d="M190.384 30.6465H89.1172V47.1882H190.384V30.6465Z" fill="#F0F0F0"/>
<path d="M95.2344 25.336V35.9577C95.2333 36.3467 95.309 36.7321 95.4574 37.0918C95.6057 37.4514 95.8237 37.7782 96.0988 38.0533C96.3739 38.3283 96.7007 38.5463 97.0603 38.6947C97.4199 38.843 97.8054 38.9188 98.1944 38.9177C98.5831 38.9177 98.968 38.8411 99.3271 38.6924C99.6863 38.5436 100.013 38.3256 100.287 38.0507C100.562 37.7759 100.78 37.4496 100.929 37.0904C101.078 36.7313 101.154 36.3464 101.154 35.9577V25.336C101.152 24.5516 100.84 23.8001 100.285 23.2454C99.7303 22.6908 98.9787 22.3782 98.1944 22.376C97.4093 22.376 96.6565 22.6878 96.1014 23.2429C95.5462 23.7981 95.2344 24.5509 95.2344 25.336Z" fill="#E6E6E6"/>
<path d="M178.391 25.336V35.9577C178.391 36.7427 178.702 37.4956 179.258 38.0507C179.813 38.6058 180.566 38.9177 181.351 38.9177C181.74 38.9188 182.125 38.843 182.485 38.6947C182.844 38.5463 183.171 38.3283 183.446 38.0533C183.721 37.7782 183.939 37.4514 184.088 37.0918C184.236 36.7321 184.312 36.3467 184.311 35.9577V25.336C184.311 24.5509 183.999 23.7981 183.444 23.2429C182.889 22.6878 182.136 22.376 181.351 22.376C180.566 22.3782 179.815 22.6908 179.26 23.2454C178.705 23.8001 178.393 24.5516 178.391 25.336Z" fill="#E6E6E6"/>
<path d="M161.754 25.336V35.9577C161.754 36.3464 161.83 36.7313 161.979 37.0904C162.128 37.4496 162.346 37.7759 162.621 38.0507C162.896 38.3256 163.222 38.5436 163.581 38.6924C163.94 38.8411 164.325 38.9177 164.714 38.9177C165.103 38.9177 165.488 38.8411 165.847 38.6924C166.206 38.5436 166.532 38.3256 166.807 38.0507C167.082 37.7759 167.3 37.4496 167.449 37.0904C167.597 36.7313 167.674 36.3464 167.674 35.9577V25.336C167.672 24.5546 167.361 23.8056 166.811 23.2515C166.26 22.6973 165.512 22.3828 164.731 22.376C164.341 22.3749 163.955 22.4505 163.594 22.5987C163.234 22.7468 162.906 22.9645 162.629 23.2394C162.353 23.5143 162.133 23.8409 161.983 24.2006C161.833 24.5604 161.755 24.9462 161.754 25.336Z" fill="#E6E6E6"/>
<path d="M145.117 25.336V35.9577C145.116 36.3467 145.192 36.7321 145.34 37.0918C145.489 37.4514 145.707 37.7782 145.982 38.0533C146.257 38.3283 146.583 38.5463 146.943 38.6947C147.303 38.843 147.688 38.9188 148.077 38.9177C148.857 38.9109 149.602 38.5958 150.151 38.0412C150.699 37.4865 151.005 36.7375 151.003 35.9577V25.336C151.003 24.5524 150.692 23.8008 150.139 23.246C149.586 22.6911 148.835 22.3782 148.051 22.376C147.271 22.3828 146.525 22.6976 145.975 23.252C145.425 23.8064 145.117 24.5554 145.117 25.336Z" fill="#E6E6E6"/>
<path d="M128.482 25.336V35.9577C128.481 36.346 128.557 36.7307 128.705 37.0898C128.852 37.4489 129.07 37.7752 129.344 38.0502C129.618 38.3252 129.944 38.5434 130.302 38.6922C130.661 38.8411 131.046 38.9177 131.434 38.9177C131.823 38.9188 132.208 38.843 132.568 38.6947C132.928 38.5463 133.254 38.3283 133.529 38.0533C133.805 37.7782 134.022 37.4514 134.171 37.0918C134.319 36.7321 134.395 36.3467 134.394 35.9577V25.336C134.394 24.5509 134.082 23.7981 133.527 23.2429C132.972 22.6878 132.219 22.376 131.434 22.376C130.65 22.3782 129.9 22.6911 129.346 23.246C128.793 23.8008 128.482 24.5524 128.482 25.336Z" fill="#E6E6E6"/>
<path d="M111.836 25.336V35.9577C111.836 36.3464 111.912 36.7313 112.061 37.0904C112.21 37.4496 112.428 37.7759 112.703 38.0507C112.978 38.3256 113.304 38.5436 113.663 38.6924C114.022 38.8411 114.407 38.9177 114.796 38.9177C115.185 38.9177 115.57 38.8411 115.929 38.6924C116.288 38.5436 116.614 38.3256 116.889 38.0507C117.164 37.7759 117.382 37.4496 117.531 37.0904C117.679 36.7313 117.756 36.3464 117.756 35.9577V25.336C117.754 24.5516 117.441 23.8001 116.886 23.2454C116.332 22.6908 115.58 22.3782 114.796 22.376C114.012 22.3782 113.26 22.6908 112.705 23.2454C112.151 23.8001 111.838 24.5516 111.836 25.336Z" fill="#E6E6E6"/>
<path d="M159.471 182.268C159.471 184.686 160.432 187.006 162.142 188.717C163.852 190.427 166.172 191.388 168.591 191.388H54.6437C52.2248 191.388 49.9051 190.427 48.1947 188.717C46.4843 187.006 45.5234 184.686 45.5234 182.268H159.471Z" fill="#E6E6E6"/>
<path d="M214.493 319.646C306.367 319.646 380.845 315.298 380.845 309.934C380.845 304.57 306.367 300.222 214.493 300.222C122.619 300.222 48.1406 304.57 48.1406 309.934C48.1406 315.298 122.619 319.646 214.493 319.646Z" fill="#F5F5F5"/>
<path d="M290.205 106.727H308.902C312.625 106.727 315.648 111.085 313.485 115.443H239.351C241.918 110.308 237.329 106.727 234.762 106.727H290.205Z" fill="#4B9097"/>
<path d="M231.308 106.727H307.368C296.951 106.727 287.663 115.167 286.61 125.578L273.131 259.193C272.079 269.604 262.791 278.044 252.374 278.044H214.036C203.625 278.044 196.064 269.604 197.084 259.193L210.563 125.578C211.603 115.148 220.884 106.727 231.308 106.727Z" fill="#4B9097"/>
<path opacity="0.7" d="M231.308 106.727H307.368C296.951 106.727 287.663 115.167 286.61 125.578L273.131 259.193C272.079 269.604 262.791 278.044 252.374 278.044H214.036C203.625 278.044 196.064 269.604 197.084 259.193L210.563 125.578C211.603 115.148 220.884 106.727 231.308 106.727Z" fill="white"/>
<path d="M235.437 259.193C235.537 258.413 235.467 257.621 235.233 256.87C234.999 256.119 234.605 255.428 234.08 254.843C233.554 254.258 232.908 253.794 232.186 253.481C231.465 253.168 230.684 253.015 229.898 253.032H153.838C154.625 253.014 155.406 253.167 156.128 253.479C156.851 253.791 157.497 254.256 158.024 254.841C158.55 255.426 158.944 256.117 159.179 256.869C159.414 257.62 159.483 258.413 159.384 259.193C158.331 269.604 165.924 278.045 176.335 278.045H252.388C241.977 278.045 234.365 269.604 235.437 259.193Z" fill="#4B9097"/>
<path d="M157.849 253.024H139.152C137.508 253.031 135.932 253.679 134.761 254.832C133.589 255.985 132.914 257.549 132.881 259.193H223.626C223.66 257.549 224.335 255.985 225.506 254.832C226.678 253.679 228.254 253.031 229.897 253.024H157.849Z" fill="#4B9097"/>
<path opacity="0.6" d="M157.849 253.024H139.152C137.508 253.031 135.932 253.679 134.761 254.832C133.589 255.985 132.914 257.549 132.881 259.193H223.626C223.66 257.549 224.335 255.985 225.506 254.832C226.678 253.679 228.254 253.031 229.897 253.024H157.849Z" fill="white"/>
<g opacity="0.5">
<path d="M222.855 172.228H217.117L217.701 166.496H223.433L222.855 172.228Z" fill="white"/>
<path d="M232.324 172.228H226.592L227.169 166.496H232.901L232.324 172.228Z" fill="white"/>
<path d="M241.797 172.228H236.059L236.636 166.496H242.374L241.797 172.228Z" fill="white"/>
<path d="M251.264 172.228H245.525L246.109 166.496H251.841L251.264 172.228Z" fill="white"/>
<path d="M260.73 172.228H254.998L255.576 166.496H261.307L260.73 172.228Z" fill="white"/>
<path d="M270.203 172.228H264.465L265.043 166.496H270.781L270.203 172.228Z" fill="white"/>
<path d="M221.898 181.702H216.166L216.744 175.964H222.475L221.898 181.702Z" fill="white"/>
<path d="M231.371 181.702H225.633L226.21 175.964H231.949L231.371 181.702Z" fill="white"/>
<path d="M240.84 181.702H235.102L235.686 175.964H241.417L240.84 181.702Z" fill="white"/>
<path d="M250.308 181.702H244.576L245.154 175.964H250.886L250.308 181.702Z" fill="white"/>
<path d="M259.781 181.702H254.043L254.621 175.964H260.359L259.781 181.702Z" fill="white"/>
<path d="M269.248 181.702H263.51L264.087 175.964H269.826L269.248 181.702Z" fill="white"/>
<path d="M220.949 191.17H215.211L215.789 185.432H221.527L220.949 191.17Z" fill="white"/>
<path d="M230.416 191.17H224.678L225.255 185.432H230.994L230.416 191.17Z" fill="white"/>
<path d="M239.884 191.17H234.152L234.73 185.432H240.462L239.884 191.17Z" fill="white"/>
<path d="M249.357 191.17H243.619L244.197 185.432H249.935L249.357 191.17Z" fill="white"/>
<path d="M258.824 191.17H253.086L253.664 185.432H259.402L258.824 191.17Z" fill="white"/>
<path d="M268.292 191.17H262.561L263.138 185.432H268.87L268.292 191.17Z" fill="white"/>
<path d="M219.992 200.637H214.254L214.832 194.905H220.57L219.992 200.637Z" fill="white"/>
<path d="M229.46 200.637H223.729L224.306 194.905H230.038L229.46 200.637Z" fill="white"/>
<path d="M238.927 200.637H233.195L233.773 194.905H239.505L238.927 200.637Z" fill="white"/>
<path d="M248.402 200.637H242.664L243.242 194.905H248.98L248.402 200.637Z" fill="white"/>
<path d="M257.868 200.637H252.137L252.714 194.905H258.446L257.868 200.637Z" fill="white"/>
<path d="M267.335 200.637H261.604L262.181 194.905H267.913L267.335 200.637Z" fill="white"/>
<path d="M219.036 210.11H213.305L213.882 204.372H219.614L219.036 210.11Z" fill="white"/>
<path d="M228.503 210.11H222.771L223.349 204.372H229.081L228.503 210.11Z" fill="white"/>
<path d="M237.976 210.11H232.238L232.816 204.372H238.554L237.976 210.11Z" fill="white"/>
<path d="M247.443 210.11H241.705L242.289 204.372H248.021L247.443 210.11Z" fill="white"/>
<path d="M256.911 210.11H251.18L251.757 204.372H257.489L256.911 210.11Z" fill="white"/>
<path d="M266.385 210.11H260.646L261.224 204.372H266.962L266.385 210.11Z" fill="white"/>
<path d="M218.079 219.578H212.348L212.925 213.84H218.657L218.079 219.578Z" fill="white"/>
<path d="M227.553 219.578H221.814L222.392 213.84H228.13L227.553 219.578Z" fill="white"/>
<path d="M237.021 219.578H231.283L231.867 213.84H237.599L237.021 219.578Z" fill="white"/>
<path d="M246.488 219.578H240.756L241.334 213.84H247.065L246.488 219.578Z" fill="white"/>
<path d="M255.961 219.578H250.223L250.8 213.84H256.539L255.961 219.578Z" fill="white"/>
<path d="M265.43 219.578H259.691L260.275 213.84H266.007L265.43 219.578Z" fill="white"/>
</g>
<path opacity="0.5" d="M216.033 239.886H210.301L210.59 237.017H216.321L216.033 239.886Z" fill="#4B9097"/>
<path opacity="0.6" d="M225.506 239.886H219.768L220.762 230.008H226.501L225.506 239.886Z" fill="#4B9097"/>
<path opacity="0.7" d="M234.975 239.886H229.236L229.82 234.147H235.552L234.975 239.886Z" fill="#4B9097"/>
<path opacity="0.8" d="M244.441 239.886H238.709L239.466 232.344H245.205L244.441 239.886Z" fill="#4B9097"/>
<path opacity="0.9" d="M253.916 239.886H248.178L248.64 235.31H254.378L253.916 239.886Z" fill="#4B9097"/>
<path d="M263.383 239.886H257.645L257.94 237.017H263.672L263.383 239.886Z" fill="#4B9097"/>
<path opacity="0.5" d="M270.142 156.49H220.36C220.149 156.494 219.94 156.453 219.747 156.369C219.554 156.286 219.381 156.161 219.24 156.005C219.1 155.848 218.994 155.663 218.932 155.462C218.869 155.261 218.85 155.049 218.877 154.84L221.143 132.311C221.196 131.863 221.408 131.449 221.742 131.146C222.076 130.843 222.508 130.671 222.959 130.661H272.748C272.958 130.658 273.167 130.7 273.359 130.784C273.552 130.868 273.725 130.992 273.865 131.148C274.006 131.305 274.111 131.489 274.174 131.69C274.237 131.891 274.257 132.102 274.231 132.311L271.959 154.84C271.906 155.288 271.693 155.702 271.359 156.005C271.025 156.308 270.593 156.48 270.142 156.49Z" fill="white"/>
<path d="M236.002 143.575L240.123 134.718C241.874 135.383 243.351 136.619 244.315 138.225C245.279 139.832 245.675 141.717 245.437 143.575C245.16 145.851 244.164 147.979 242.594 149.649C241.024 151.32 238.962 152.445 236.708 152.863L236.002 143.575Z" fill="#4B9097"/>
<path d="M236.001 143.575L236.707 152.863C236.16 152.958 235.606 153.005 235.051 153.004C233.849 153.023 232.658 152.784 231.556 152.304C230.455 151.824 229.469 151.113 228.666 150.219C227.862 149.326 227.26 148.27 226.899 147.124C226.537 145.978 226.426 144.768 226.572 143.575C226.883 141.023 228.1 138.668 230.001 136.938C231.903 135.207 234.362 134.217 236.932 134.147C238.012 134.143 239.085 134.337 240.096 134.718L236.001 143.575Z" fill="white"/>
<path d="M258.415 141.284H261.991L260.81 152.992H257.234L258.415 141.284Z" fill="white"/>
<path d="M263.864 147.51H267.44L266.888 152.991H263.312L263.864 147.51Z" fill="white"/>
<path d="M263.865 147.51H267.44L267.781 144.166H264.205L263.865 147.51Z" fill="#4B9097"/>
<path d="M258.414 141.284H261.989L262.708 134.146H259.133L258.414 141.284Z" fill="#4B9097"/>
<path d="M252.125 143.415H255.7L254.737 152.992H251.162L252.125 143.415Z" fill="white"/>
<path d="M252.125 143.416H255.7L256.143 139.025H252.568L252.125 143.416Z" fill="#4B9097"/>
<path d="M133.785 145.026C133.503 145.495 133.144 146.085 132.868 146.625C132.592 147.164 132.226 147.748 131.963 148.313C131.385 149.455 130.801 150.591 130.268 151.759C129.195 154.052 128.269 156.41 127.495 158.82L127.226 159.718L127.097 160.174L127.059 160.283C127.018 160.569 127.051 160.861 127.155 161.131C127.523 162.202 128.014 163.227 128.618 164.186C129.982 166.373 131.465 168.484 133.06 170.508L131.025 172.658C128.754 170.979 126.686 169.04 124.864 166.882C123.839 165.701 122.988 164.38 122.335 162.96C121.891 161.997 121.671 160.946 121.693 159.885C121.703 159.713 121.722 159.542 121.751 159.372L121.796 159.102V158.974L121.905 158.448L122.129 157.395C122.794 154.641 123.685 151.947 124.793 149.34C125.345 148.056 125.929 146.772 126.584 145.527C126.905 144.885 127.226 144.282 127.585 143.666C127.945 143.049 128.285 142.465 128.715 141.798L133.785 145.026Z" fill="#FF8B7B"/>
<path d="M131.59 169.353L136.417 169.552L134.492 173.691C134.492 173.691 131.058 173.499 129.768 171.419L131.59 169.353Z" fill="#FF8B7B"/>
<path d="M137.611 171.412L136.417 175.122L134.473 173.697L136.417 169.551L137.611 171.412Z" fill="#FF8B7B"/>
<path d="M141.616 304.148C141.092 304.134 140.571 304.063 140.063 303.936C140.036 303.93 140.012 303.916 139.993 303.897C139.973 303.878 139.96 303.854 139.954 303.827C139.949 303.801 139.951 303.773 139.962 303.748C139.972 303.723 139.989 303.702 140.011 303.686C140.21 303.551 141.982 302.402 142.669 302.71C142.746 302.746 142.812 302.8 142.862 302.869C142.911 302.938 142.942 303.018 142.951 303.102C142.982 303.233 142.978 303.371 142.94 303.5C142.901 303.629 142.83 303.747 142.733 303.84C142.409 304.073 142.013 304.183 141.616 304.148ZM140.454 303.737C141.481 303.943 142.245 303.904 142.54 303.635C142.605 303.572 142.652 303.493 142.676 303.406C142.699 303.319 142.699 303.227 142.675 303.141C142.673 303.103 142.661 303.067 142.641 303.036C142.62 303.004 142.592 302.978 142.559 302.961C142.194 302.8 141.173 303.295 140.454 303.737Z" fill="#4B9097"/>
<path d="M140.094 303.937C140.071 303.944 140.047 303.944 140.024 303.937C140.003 303.924 139.985 303.906 139.973 303.885C139.961 303.864 139.954 303.84 139.953 303.815C139.953 303.744 139.953 302.05 140.595 301.485C140.673 301.413 140.765 301.359 140.866 301.327C140.967 301.295 141.074 301.285 141.179 301.299C141.291 301.302 141.398 301.342 141.484 301.413C141.57 301.484 141.63 301.582 141.654 301.69C141.795 302.332 140.743 303.616 140.191 303.937C140.16 303.948 140.125 303.948 140.094 303.937ZM141.064 301.562C140.95 301.561 140.84 301.603 140.755 301.678C140.377 302.018 140.261 302.961 140.236 303.533C140.788 303.083 141.442 302.133 141.352 301.729C141.352 301.665 141.301 301.581 141.121 301.562H141.064Z" fill="#4B9097"/>
<path d="M185.049 301.529C185.025 301.531 185.001 301.526 184.978 301.516C184.956 301.506 184.936 301.491 184.921 301.472C184.904 301.448 184.895 301.42 184.895 301.391C184.895 301.363 184.904 301.334 184.921 301.311C185.101 301.08 186.68 299.097 187.533 299.039H187.591C187.668 299.041 187.743 299.063 187.809 299.103C187.876 299.142 187.931 299.197 187.97 299.264C188.038 299.366 188.08 299.484 188.09 299.606C188.1 299.728 188.079 299.852 188.028 299.963C187.694 300.746 186.031 301.247 185.069 301.523L185.049 301.529ZM187.546 299.315C187.078 299.347 186.089 300.342 185.415 301.151C186.699 300.772 187.585 300.304 187.777 299.867C187.809 299.792 187.822 299.711 187.814 299.63C187.806 299.549 187.778 299.472 187.732 299.405C187.717 299.378 187.694 299.355 187.667 299.34C187.64 299.324 187.61 299.315 187.578 299.315H187.546Z" fill="#4B9097"/>
<path d="M185.05 301.53C185.026 301.527 185.003 301.518 184.984 301.503C184.965 301.488 184.95 301.469 184.941 301.446C184.941 301.389 184.357 299.944 184.767 299.084C184.827 298.957 184.912 298.843 185.017 298.749C185.122 298.656 185.244 298.584 185.377 298.539C185.75 298.404 185.942 298.539 186.019 298.654C186.411 299.187 185.679 300.901 185.165 301.485C185.151 301.501 185.133 301.513 185.113 301.521C185.093 301.528 185.071 301.532 185.05 301.53ZM185.583 298.718C185.526 298.725 185.47 298.738 185.416 298.757C185.318 298.791 185.227 298.844 185.15 298.914C185.073 298.983 185.011 299.067 184.966 299.161C184.789 299.797 184.823 300.472 185.063 301.087C185.538 300.4 185.974 299.116 185.743 298.795C185.726 298.769 185.702 298.747 185.674 298.734C185.646 298.72 185.614 298.715 185.583 298.718Z" fill="#4B9097"/>
<path d="M141.41 121.393C142.052 124.884 143.567 132.516 141.115 134.788C141.115 134.788 142.046 138.344 148.529 138.472C155.66 138.607 151.956 135.006 151.956 135.006C148.073 133.999 148.188 131.123 148.882 128.427L141.41 121.393Z" fill="#FF8B7B"/>
<path d="M139.37 136.56L138.125 130.405C139.913 130.927 141.758 131.228 143.619 131.303C146.116 131.303 151.527 131.105 154.216 130.174C154.961 131.226 158.863 134.025 158.863 134.025L157.118 136.971L139.37 136.56Z" fill="#4B9097"/>
<path opacity="0.8" d="M139.37 136.56L138.125 130.405C139.913 130.927 141.758 131.228 143.619 131.303C146.116 131.303 151.527 131.105 154.216 130.174C154.961 131.226 158.863 134.025 158.863 134.025L157.118 136.971L139.37 136.56Z" fill="white"/>
<path d="M155.326 114.685C155.283 114.679 155.242 114.664 155.205 114.641C155.143 114.6 155.1 114.537 155.085 114.465C155.069 114.393 155.082 114.318 155.121 114.255C155.353 113.883 155.671 113.571 156.049 113.348C156.426 113.124 156.852 112.995 157.291 112.972C157.364 112.972 157.435 113.001 157.488 113.052C157.541 113.104 157.571 113.174 157.573 113.248C157.573 113.321 157.544 113.392 157.493 113.445C157.441 113.498 157.371 113.528 157.297 113.53C156.95 113.553 156.613 113.66 156.316 113.841C156.019 114.022 155.77 114.272 155.59 114.57C155.561 114.612 155.521 114.645 155.475 114.666C155.428 114.686 155.377 114.693 155.326 114.685Z" fill="#263238"/>
<path d="M157.117 117.966C157.556 119.048 158.141 120.066 158.857 120.989C158.617 121.162 158.342 121.28 158.051 121.336C157.761 121.391 157.462 121.382 157.175 121.31L157.117 117.966Z" fill="#FF5652"/>
<path d="M156.699 117.15C156.699 117.625 156.962 118.01 157.27 118.01C157.579 118.01 157.829 117.625 157.816 117.15C157.803 116.675 157.553 116.29 157.245 116.29C156.937 116.29 156.699 116.675 156.699 117.15Z" fill="#263238"/>
<path d="M157.086 116.316L158.222 115.988C158.222 115.988 157.651 116.88 157.086 116.316Z" fill="#263238"/>
<path d="M179.441 305.233L185.135 303.275L181.117 290.611L175.43 292.575L179.441 305.233Z" fill="#FF8B7B"/>
<path d="M133.26 303.802H139.133L138.484 290.194H132.611L133.26 303.802Z" fill="#FF8B7B"/>
<path d="M139.595 303.121H132.99C132.878 303.12 132.769 303.16 132.684 303.233C132.599 303.306 132.543 303.408 132.528 303.519L131.847 308.744C131.836 308.877 131.852 309.01 131.895 309.136C131.938 309.263 132.006 309.378 132.096 309.477C132.186 309.575 132.295 309.654 132.417 309.708C132.539 309.762 132.671 309.79 132.804 309.79C135.108 309.751 136.212 309.617 139.113 309.617C140.904 309.617 143.51 309.796 145.981 309.796C148.452 309.796 148.548 307.364 147.515 307.139C142.894 306.151 142.149 304.784 140.577 303.481C140.3 303.252 139.953 303.125 139.595 303.121Z" fill="#263238"/>
<path d="M184.388 300.965L178.284 303.853C178.178 303.896 178.092 303.977 178.043 304.081C177.995 304.184 177.987 304.302 178.021 304.411L179.593 309.315C179.643 309.439 179.718 309.551 179.813 309.645C179.909 309.738 180.023 309.811 180.148 309.858C180.273 309.905 180.406 309.925 180.539 309.918C180.673 309.911 180.803 309.876 180.922 309.816C183.034 308.782 184.003 308.179 186.699 306.921C188.348 306.144 191.834 304.7 194.131 303.628C196.429 302.556 195.473 300.361 194.427 300.612C189.741 301.748 187.469 301.337 185.441 300.868C185.089 300.784 184.719 300.817 184.388 300.965Z" fill="#263238"/>
<path opacity="0.2" d="M181.115 290.618L183.272 297.396L177.495 299.103L175.422 292.576L181.115 290.618Z" fill="black"/>
<path opacity="0.2" d="M132.611 290.201H138.484L138.818 297.21H132.945L132.611 290.201Z" fill="black"/>
<path d="M130.967 135.924C128.521 136.412 125.832 145.135 125.832 145.135L132.7 152.599C132.7 152.599 138.477 144.473 137.328 141.418C136.159 138.254 133.855 135.353 130.967 135.924Z" fill="#4B9097"/>
<path opacity="0.2" d="M130.967 135.924C128.521 136.412 125.832 145.135 125.832 145.135L132.7 152.599C132.7 152.599 138.477 144.473 137.328 141.418C136.159 138.254 133.855 135.353 130.967 135.924Z" fill="black"/>
<path opacity="0.4" d="M134.805 141.586C136.044 140.482 136.878 140.835 137.443 141.74C137.989 144.358 134.632 149.75 133.278 151.791C132.674 149.314 131.994 144.095 134.805 141.586Z" fill="black"/>
<path d="M162.354 137.952C162.79 140.52 162.886 148.344 158.875 172.074L134.991 171.631C135.453 161.932 135.498 155.95 130.967 135.95C134.317 135.326 137.709 134.946 141.115 134.814C144.729 134.631 148.351 134.704 151.955 135.032C155.428 135.411 159.241 136.168 160.941 136.528C161.292 136.597 161.614 136.77 161.866 137.024C162.117 137.278 162.287 137.601 162.354 137.952Z" fill="#4B9097"/>
<path opacity="0.2" d="M162.354 137.952C162.79 140.52 162.886 148.344 158.875 172.074L134.991 171.631C135.453 161.932 135.498 155.95 130.967 135.95C134.317 135.326 137.709 134.946 141.115 134.814C144.729 134.631 148.351 134.704 151.955 135.032C155.428 135.411 159.241 136.168 160.941 136.528C161.292 136.597 161.614 136.77 161.866 137.024C162.117 137.278 162.287 137.601 162.354 137.952Z" fill="black"/>
<path d="M140.731 115.578C141.186 121.399 141.257 123.871 144.241 126.849C148.734 131.342 155.795 129.596 157.079 123.781C158.24 118.543 157.297 109.904 151.565 107.6C150.315 107.077 148.951 106.887 147.605 107.048C146.26 107.209 144.979 107.716 143.888 108.52C142.797 109.323 141.932 110.396 141.379 111.633C140.826 112.87 140.602 114.229 140.731 115.578Z" fill="#FF8B7B"/>
<path d="M142.272 104.878C135.956 105.347 134.492 112.767 136.951 117.503C133.035 123.46 133.51 125.61 134.762 126.997C136.912 129.397 147.978 132.285 154.602 127.298C157.561 125.071 152.079 117.15 152.079 117.15C152.079 117.15 155.269 103.896 142.272 104.878Z" fill="#263238"/>
<path d="M135.365 127.234C133.574 127.234 132.938 126.348 132.733 125.565C132.091 122.997 135.3 118.017 138.51 116.637C138.592 116.611 138.682 116.617 138.76 116.653C138.839 116.689 138.902 116.753 138.936 116.832C138.971 116.911 138.976 117 138.949 117.083C138.923 117.165 138.867 117.235 138.792 117.278C135.949 118.504 132.836 123.196 133.42 125.385C133.657 126.284 134.53 126.669 135.987 126.489C136.08 126.48 136.172 126.508 136.245 126.567C136.317 126.626 136.363 126.711 136.372 126.804C136.378 126.849 136.374 126.895 136.361 126.939C136.349 126.984 136.327 127.025 136.299 127.061C136.27 127.096 136.235 127.126 136.194 127.148C136.154 127.17 136.11 127.184 136.064 127.189C135.827 127.214 135.583 127.234 135.365 127.234Z" fill="#263238"/>
<path d="M144.896 119.782L137.945 120.013C137.671 120.022 137.398 119.976 137.142 119.878C136.887 119.779 136.654 119.629 136.458 119.438C136.261 119.246 136.106 119.017 136.001 118.764C135.896 118.511 135.843 118.239 135.846 117.965C135.848 117.403 136.067 116.863 136.456 116.457C136.846 116.05 137.376 115.809 137.938 115.783L144.89 115.552C145.163 115.542 145.436 115.589 145.692 115.687C145.948 115.786 146.18 115.936 146.377 116.127C146.573 116.319 146.728 116.548 146.833 116.801C146.938 117.054 146.991 117.326 146.988 117.6C146.986 118.162 146.767 118.702 146.378 119.108C145.988 119.514 145.458 119.756 144.896 119.782Z" fill="#4B9097"/>
<path d="M143.053 106.996C145.421 103.312 151.621 102.201 155.543 104.512C160.133 107.214 160.036 112.638 152.289 115.674C143.861 118.999 143.053 106.996 143.053 106.996Z" fill="#263238"/>
<path d="M153.6 115.61C154.539 116.42 155.196 117.508 155.474 118.717C155.821 120.251 154.832 120.045 153.696 119.416C152.669 118.851 151.065 117.735 151.129 116.457C151.193 115.18 152.592 114.744 153.6 115.61Z" fill="#FF8B7B"/>
<path d="M152.567 171.946C152.567 171.946 148.928 212.164 145.256 234.803C142.291 253.083 139.781 295.856 139.781 295.856H131.771C131.771 295.856 129.159 254.135 130.712 235.996C134.653 190.174 126.482 186.272 134.993 171.605L152.567 171.946Z" fill="#263238"/>
<path opacity="0.4" d="M144.422 185.393C146.508 188.461 149.293 191.997 150.198 195.733C149.479 202.517 148.639 210.021 147.727 217.235C145.519 211.169 141.745 199.045 144.422 185.393Z" fill="black"/>
<path d="M158.876 172.074C158.876 172.074 166.688 216.092 169.968 233.73C173.376 252.068 183.049 292.89 183.049 292.89L175.058 296.998C175.058 296.998 158.53 247.704 156.559 238.454C151.348 219.128 136.418 171.631 136.418 171.631L158.876 172.074Z" fill="#263238"/>
<path d="M184.704 294.604L174.993 298.475L173.105 295.092L183.497 290.939L184.704 294.604Z" fill="#4B9097"/>
<path d="M140.877 296.016H130.678L130.088 292.434L140.884 292.068L140.877 296.016Z" fill="#4B9097"/>
<path d="M134.646 170.199L133.554 172.311C133.471 172.471 133.67 172.645 133.946 172.651L158.978 173.145C159.196 173.145 159.376 173.043 159.389 172.908L159.614 170.783C159.614 170.636 159.447 170.507 159.209 170.501L135.031 170.026C134.957 170.018 134.882 170.03 134.815 170.06C134.747 170.091 134.688 170.139 134.646 170.199Z" fill="#4B9097"/>
<path d="M137.881 172.959H137.239C137.11 172.959 137.008 172.889 137.021 172.811L137.342 170.045C137.342 169.962 137.463 169.897 137.592 169.897H138.234C138.362 169.897 138.458 169.968 138.452 170.051L138.131 172.818C138.118 172.914 138.009 172.966 137.881 172.959Z" fill="#263238"/>
<path d="M153.574 173.268H152.932C152.803 173.268 152.707 173.197 152.72 173.12L153.034 170.354C153.034 170.27 153.156 170.206 153.291 170.206H153.933C154.068 170.206 154.164 170.277 154.151 170.36L153.83 173.126C153.817 173.21 153.702 173.274 153.574 173.268Z" fill="#263238"/>
<path d="M165.384 140.963C166.109 142.189 166.88 143.53 167.669 144.756C168.459 145.982 169.242 147.279 170.07 148.498C170.898 149.718 171.751 150.924 172.637 152.086C173.523 153.248 174.421 154.346 175.365 155.353C176.135 156.098 177.087 156.629 178.125 156.894C179.433 157.262 180.775 157.494 182.13 157.587C185.049 157.787 187.98 157.739 190.891 157.446L191.533 160.347C188.459 161.347 185.268 161.94 182.04 162.112C180.322 162.205 178.598 162.095 176.905 161.785C175.977 161.602 175.069 161.324 174.197 160.957C173.224 160.54 172.328 159.963 171.546 159.249C169.182 157.019 167.05 154.555 165.185 151.894C163.32 149.327 161.622 146.643 160.102 143.858L165.384 140.963Z" fill="#FF8B7B"/>
<path d="M161.963 136.669C167.663 137.574 170.018 145.706 170.018 145.706L163.17 152.304C163.17 152.304 155.416 145.186 155.416 140.654C155.416 137.285 158.856 136.174 161.963 136.669Z" fill="#4B9097"/>
<path opacity="0.2" d="M161.963 136.669C167.663 137.574 170.018 145.706 170.018 145.706L163.17 152.304C163.17 152.304 155.416 145.186 155.416 140.654C155.416 137.285 158.856 136.174 161.963 136.669Z" fill="black"/>
<path d="M197.643 153.749C197.566 154.77 197.432 155.777 197.284 156.779C197.136 157.78 196.957 158.775 196.77 159.763C196.584 160.752 196.372 161.74 196.129 162.722C195.885 163.704 195.93 164.75 194.845 165.489C194.672 165.585 194.472 165.622 194.277 165.594C194.081 165.566 193.899 165.475 193.76 165.334C193.706 165.278 193.658 165.216 193.619 165.148C192.977 163.929 193.535 163.037 193.715 162.048C193.895 161.06 194.222 160.123 194.498 159.134C194.774 158.146 195.07 157.209 195.384 156.252C195.699 155.296 196.026 154.327 196.417 153.409C196.5 153.281 196.626 153.187 196.772 153.144C196.918 153.1 197.074 153.11 197.213 153.171C197.335 153.214 197.44 153.291 197.517 153.394C197.594 153.497 197.638 153.621 197.643 153.749Z" fill="#263238"/>
<path d="M197.727 154.834L195.801 154.519C195.512 154.468 195.371 154.115 195.48 153.73C195.589 153.345 195.917 153.088 196.205 153.088L198.131 153.409C198.42 153.454 198.561 153.807 198.452 154.198C198.343 154.609 198.016 154.885 197.727 154.834Z" fill="#263238"/>
<path d="M200.937 139.602C198.01 138.755 194.621 141.226 193.376 145.128C192.13 149.031 193.491 152.882 196.418 153.729C199.345 154.576 202.734 152.099 203.985 148.203C205.237 144.307 203.87 140.449 200.937 139.602ZM196.777 152.612C194.306 151.9 193.164 148.659 194.21 145.372C195.256 142.086 198.113 140.006 200.577 140.719C203.042 141.431 204.197 144.673 203.145 147.959C202.092 151.245 199.242 153.325 196.777 152.612Z" fill="#4B9097"/>
<path opacity="0.1" d="M197.458 153.017C195.147 152.375 194.069 149.307 195.051 146.232C196.033 143.158 198.709 141.194 201.026 141.868C203.343 142.542 204.415 145.578 203.427 148.652C202.438 151.727 199.768 153.659 197.458 153.017Z" fill="#4B9097"/>
<path d="M189.043 160.558L195.333 161.733L195.975 156.457C195.975 156.457 190.801 156.759 189.023 158.383L189.043 160.558Z" fill="#FF8B7B"/>
<path d="M196.913 161.721L198.024 158.216C198.065 158.099 198.065 157.971 198.023 157.854C197.98 157.737 197.899 157.639 197.793 157.575L195.995 156.438L195.354 161.715L196.22 162.048C196.355 162.096 196.504 162.088 196.634 162.027C196.764 161.966 196.864 161.856 196.913 161.721Z" fill="#FF8B7B"/>
</svg>
