<svg width="98" height="79" viewBox="0 0 98 79" fill="none" xmlns="http://www.w3.org/2000/svg">
<path opacity="0.5" d="M71.0156 64.1807C72.9385 64.6393 74.6533 65.757 75.8792 67.3506C76.8226 69.0665 77.4021 70.969 77.5795 72.9325" stroke="#BAE0DB" stroke-width="2" stroke-linecap="round" stroke-linejoin="round"/>
<path opacity="0.5" d="M21.4211 49.1114C20.0255 50.7802 16.373 53.7754 12.9228 52.4052C8.61035 50.6933 8.73692 48.0569 10.1324 47.003C11.5279 45.9491 13.4284 47.6617 13.8107 49.1114C14.193 50.5611 13.5569 55.436 10.1324 57.2808C6.70793 59.1256 2.14172 58.2032 1 57.2808" stroke="#EFE0FF" stroke-width="2" stroke-linecap="round" stroke-linejoin="round"/>
<path opacity="0.5" d="M77.5798 3.6731C75.8971 3.45897 72.3736 4.4429 71.7517 10.091C71.1298 15.739 66.1403 16.8937 63.7227 16.765" stroke="#3D5CFF" stroke-width="2" stroke-linecap="round" stroke-linejoin="round"/>
<path opacity="0.5" d="M14.4929 29.902C16.3055 29.902 17.7748 28.5959 17.7748 26.9847C17.7748 25.3735 16.3055 24.0674 14.4929 24.0674C12.6803 24.0674 11.2109 25.3735 11.2109 26.9847C11.2109 28.5959 12.6803 29.902 14.4929 29.902Z" fill="#F99A3D"/>
<path opacity="0.5" d="M33.455 5.10526C34.8648 5.10526 36.0076 3.96241 36.0076 2.55263C36.0076 1.14285 34.8648 0 33.455 0C32.0452 0 30.9023 1.14285 30.9023 2.55263C30.9023 3.96241 32.0452 5.10526 33.455 5.10526Z" fill="white"/>
<path opacity="0.5" d="M41.1129 8.75225C41.9185 8.75225 42.5716 8.0992 42.5716 7.29361C42.5716 6.48802 41.9185 5.83496 41.1129 5.83496C40.3074 5.83496 39.6543 6.48802 39.6543 7.29361C39.6543 8.0992 40.3074 8.75225 41.1129 8.75225Z" fill="white"/>
<path opacity="0.5" d="M52.7829 37.9251C53.5885 37.9251 54.2415 37.272 54.2415 36.4665C54.2415 35.6609 53.5885 35.0078 52.7829 35.0078C51.9773 35.0078 51.3242 35.6609 51.3242 36.4665C51.3242 37.272 51.9773 37.9251 52.7829 37.9251Z" fill="#EFE0FF"/>
<path opacity="0.5" d="M96.5407 8.75225C97.3463 8.75225 97.9993 8.0992 97.9993 7.29361C97.9993 6.48802 97.3463 5.83496 96.5407 5.83496C95.7351 5.83496 95.082 6.48802 95.082 7.29361C95.082 8.0992 95.7351 8.75225 96.5407 8.75225Z" fill="#EFE0FF"/>
<path opacity="0.5" d="M24.3392 70.7439C25.9503 70.7439 27.2565 69.6011 27.2565 68.1913C27.2565 66.7815 25.9503 65.6387 24.3392 65.6387C22.728 65.6387 21.4219 66.7815 21.4219 68.1913C21.4219 69.6011 22.728 70.7439 24.3392 70.7439Z" fill="white"/>
<path opacity="0.5" d="M58.9804 78.7674C60.3901 78.7674 61.533 77.6245 61.533 76.2147C61.533 74.805 60.3901 73.6621 58.9804 73.6621C57.5706 73.6621 56.4277 74.805 56.4277 76.2147C56.4277 77.6245 57.5706 78.7674 58.9804 78.7674Z" fill="#F9D2DD"/>
<path opacity="0.5" d="M50.5934 75.1204C51.399 75.1204 52.0521 74.4674 52.0521 73.6618C52.0521 72.8562 51.399 72.2031 50.5934 72.2031C49.7878 72.2031 49.1348 72.8562 49.1348 73.6618C49.1348 74.4674 49.7878 75.1204 50.5934 75.1204Z" fill="#3D5CFF"/>
</svg>
