<svg width="20" height="10" viewBox="0 0 20 10" fill="none" xmlns="http://www.w3.org/2000/svg">
<path d="M1 9L6 4" stroke="#21B8C7" stroke-width="2" stroke-linecap="round" stroke-linejoin="round"/>
<path d="M7 4C7.55228 4 8 3.55228 8 3C8 2.44772 7.55228 2 7 2C6.44772 2 6 2.44772 6 3C6 3.55228 6.44772 4 7 4Z" stroke="#21B8C7" stroke-width="2" stroke-linecap="round" stroke-linejoin="round"/>
<path d="M12 9C12.5523 9 13 8.55228 13 8C13 7.44772 12.5523 7 12 7C11.4477 7 11 7.44772 11 8C11 8.55228 11.4477 9 12 9Z" stroke="#21B8C7" stroke-width="2" stroke-linecap="round" stroke-linejoin="round"/>
<path d="M13 7L19 1M8 4L11 7L8 4Z" stroke="#21B8C7" stroke-width="2" stroke-linecap="round" stroke-linejoin="round"/>
</svg>
