<svg width="30" height="30" viewBox="0 0 30 30" fill="none" xmlns="http://www.w3.org/2000/svg">
<path d="M20.9133 2.5C21.7258 2.5 22.4508 2.52503 23.1008 2.61253C26.5633 3.00003 27.5008 4.62501 27.5008 9.07501V16.975C27.5008 21.425 26.5633 23.05 23.1008 23.4375C22.4508 23.525 21.7383 23.55 20.9133 23.55H9.07577C8.26327 23.55 7.53827 23.525 6.88827 23.4375C3.42577 23.05 2.48828 21.425 2.48828 16.975V9.07501C2.48828 4.62501 3.42577 3.00003 6.88827 2.61253C7.53827 2.52503 8.26327 2.5 9.07577 2.5H20.9133Z" stroke="#FF6905" stroke-width="1.5" stroke-linecap="round" stroke-linejoin="round"/>
<path d="M16.9766 10.3999H21.5766" stroke="#FF6905" stroke-width="1.5" stroke-linecap="round" stroke-linejoin="round"/>
<path d="M8.42578 17.6377H8.45077H21.5883" stroke="#FF6905" stroke-width="1.5" stroke-linecap="round" stroke-linejoin="round"/>
<path d="M8.75 27.5H21.25" stroke="#FF6905" stroke-width="1.5" stroke-linecap="round" stroke-linejoin="round"/>
<path d="M8.99313 10.375H9.00436" stroke="#FF6905" stroke-width="2" stroke-linecap="round" stroke-linejoin="round"/>
<path d="M13.1181 10.375H13.1294" stroke="#FF6905" stroke-width="2" stroke-linecap="round" stroke-linejoin="round"/>
</svg>
