<svg width="30" height="30" viewBox="0 0 30 30" fill="none" xmlns="http://www.w3.org/2000/svg">
<path d="M5.50042 18.7498C3.22542 18.7498 1.77542 16.3123 2.87542 14.3123L5.78792 9.01231L8.51292 4.0498C9.65042 1.9873 12.6254 1.9873 13.7629 4.0498L16.5004 9.01231L17.8129 11.3998L19.4129 14.3123C20.5129 16.3123 19.0629 18.7498 16.7879 18.7498H5.50042Z" stroke="#6223A9" stroke-width="1.5" stroke-linecap="round" stroke-linejoin="round"/>
<path d="M19.375 27.5C14.8875 27.5 11.25 23.8625 11.25 19.375C11.25 19.1625 11.2625 18.9625 11.275 18.75H16.7875C19.0625 18.75 20.5125 16.3125 19.4125 14.3125L17.8125 11.4C18.3125 11.3 18.8375 11.25 19.375 11.25C23.8625 11.25 27.5 14.8875 27.5 19.375C27.5 23.8625 23.8625 27.5 19.375 27.5Z" stroke="#6223A9" stroke-width="1.5" stroke-linecap="round" stroke-linejoin="round"/>
</svg>
