<svg width="40" height="40" viewBox="0 0 40 40" fill="none" xmlns="http://www.w3.org/2000/svg">
<path d="M15.5166 24.4999L18.0166 26.9999L24.6833 20.3333" stroke="#2059EE" stroke-width="3" stroke-linecap="round" stroke-linejoin="round"/>
<path d="M23.333 9.99992C26.6663 9.99992 26.6663 8.33325 26.6663 6.66659C26.6663 3.33325 24.9997 3.33325 23.333 3.33325H16.6663C14.9997 3.33325 13.333 3.33325 13.333 6.66659C13.333 9.99992 14.9997 9.99992 16.6663 9.99992H23.333Z" stroke="#2059EE" stroke-width="3" stroke-linecap="round" stroke-linejoin="round"/>
<path d="M26.6667 6.69995C32.2167 6.99995 35 9.04995 35 16.6666V26.6666C35 33.3333 33.3333 36.6666 25 36.6666H15C6.66667 36.6666 5 33.3333 5 26.6666V16.6666C5 9.06662 7.78333 6.99995 13.3333 6.69995" stroke="#2059EE" stroke-width="3" stroke-linecap="round" stroke-linejoin="round"/>
</svg>
