<svg width="32" height="32" viewBox="0 0 32 32" fill="none" xmlns="http://www.w3.org/2000/svg">
<path d="M23.7746 17.1868C22.3346 19.3201 20.0546 20.8268 17.4013 21.2134C16.948 21.2934 16.4813 21.3334 16.0013 21.3334C15.5213 21.3334 15.0546 21.2934 14.6013 21.2134C11.948 20.8268 9.66797 19.3201 8.22797 17.1868C7.2413 15.7068 6.66797 13.9334 6.66797 12.0001C6.66797 6.84008 10.8413 2.66675 16.0013 2.66675C21.1613 2.66675 25.3346 6.84008 25.3346 12.0001C25.3346 13.9334 24.7613 15.7068 23.7746 17.1868Z" stroke="#FF627E" stroke-width="1.5" stroke-linecap="round" stroke-linejoin="round"/>
<path d="M26.1347 25.1466C25.6414 25.2666 25.2547 25.64 25.1481 26.1333L24.6814 28.0933C24.4281 29.16 23.0681 29.48 22.3614 28.64L16.0014 21.3333L9.64141 28.6533C8.93474 29.4933 7.57474 29.1733 7.32141 28.1066L6.85474 26.1466C6.73474 25.6533 6.34807 25.2666 5.86807 25.16L3.66807 24.64C2.65474 24.4 2.29474 23.1333 3.02807 22.3999L8.22807 17.2C9.66807 19.3333 11.9481 20.84 14.6014 21.2266C15.0547 21.3066 15.5214 21.3466 16.0014 21.3466C16.4814 21.3466 16.9481 21.3066 17.4014 21.2266C20.0547 20.84 22.3347 19.3333 23.7747 17.2L28.9747 22.3999C29.7081 23.1199 29.3481 24.3866 28.3347 24.6266L26.1347 25.1466Z" stroke="#FF627E" stroke-width="1.5" stroke-linecap="round" stroke-linejoin="round"/>
<path d="M17.5613 9.54658C17.6679 9.75991 17.9479 9.97325 18.2013 10.0133L19.6279 10.2532C20.5346 10.3999 20.7479 11.0666 20.0946 11.7199L18.9879 12.8266C18.8013 13.0132 18.6946 13.3733 18.7613 13.6399L19.0813 15.0132C19.3346 16.0932 18.7613 16.5199 17.8013 15.9466L16.4679 15.1599C16.2279 15.0132 15.8279 15.0132 15.5879 15.1599L14.2546 15.9466C13.2946 16.5066 12.7213 16.0932 12.9746 15.0132L13.2946 13.6399C13.3479 13.3866 13.2546 13.0132 13.0679 12.8266L11.9613 11.7199C11.3079 11.0666 11.5213 10.4132 12.4279 10.2532L13.8546 10.0133C14.0946 9.97325 14.3746 9.75991 14.4813 9.54658L15.2679 7.97325C15.6546 7.11992 16.3479 7.11992 16.7746 7.97325L17.5613 9.54658Z" stroke="#FF627E" stroke-width="1.5" stroke-linecap="round" stroke-linejoin="round"/>
</svg>
