<svg width="30" height="30" viewBox="0 0 30 30" fill="none" xmlns="http://www.w3.org/2000/svg">
<path d="M25.5125 9.4875C24.9125 9.9625 24.15 10.25 23.3125 10.25C21.3375 10.25 19.75 8.6625 19.75 6.6875C19.75 5.85 20.0375 5.1 20.5125 4.4875H20.525C21.1625 3.6625 22.175 3.125 23.3125 3.125C25.2875 3.125 26.875 4.7125 26.875 6.6875C26.875 7.825 26.3375 8.8375 25.5125 9.4875Z" stroke="#A6ACBE" stroke-width="1.5" stroke-linecap="round" stroke-linejoin="round"/>
<path d="M6.6875 10.25C5.85 10.25 5.1 9.9625 4.4875 9.4875C3.6625 8.8375 3.125 7.825 3.125 6.6875C3.125 4.7125 4.7125 3.125 6.6875 3.125C7.825 3.125 8.8375 3.6625 9.4875 4.4875C9.9625 5.1 10.25 5.85 10.25 6.6875C10.25 8.6625 8.6625 10.25 6.6875 10.25Z" stroke="#A6ACBE" stroke-width="1.5" stroke-linecap="round" stroke-linejoin="round"/>
<path d="M23.3125 26.875C22.175 26.875 21.1625 26.3375 20.525 25.5125H20.5125C20.0375 24.9125 19.75 24.15 19.75 23.3125C19.75 21.3375 21.3375 19.75 23.3125 19.75C24.15 19.75 24.9 20.0375 25.5125 20.5125V20.525C26.3375 21.1625 26.875 22.175 26.875 23.3125C26.875 25.2875 25.2875 26.875 23.3125 26.875Z" stroke="#A6ACBE" stroke-width="1.5" stroke-linecap="round" stroke-linejoin="round"/>
<path d="M9.4875 25.5125C8.8375 26.35 7.825 26.875 6.6875 26.875C4.7125 26.875 3.125 25.2875 3.125 23.3125C3.125 22.175 3.6625 21.1625 4.4875 20.525V20.5125C5.0875 20.0375 5.85 19.75 6.6875 19.75C8.6625 19.75 10.25 21.3375 10.25 23.3125C10.25 24.15 9.9625 24.9 9.4875 25.5125Z" stroke="#A6ACBE" stroke-width="1.5" stroke-linecap="round" stroke-linejoin="round"/>
<path d="M25.5125 20.5125C24.9125 20.0375 24.15 19.75 23.3125 19.75C21.3375 19.75 19.75 21.3375 19.75 23.3125C19.75 24.15 20.0375 24.9 20.5125 25.5125C18.8625 26.3875 17 26.875 15 26.875C13.0125 26.875 11.1375 26.3875 9.4875 25.5125C9.9625 24.9125 10.25 24.15 10.25 23.3125C10.25 21.3375 8.6625 19.75 6.6875 19.75C5.85 19.75 5.1 20.0375 4.4875 20.5125C3.6125 18.8625 3.125 17 3.125 15C3.125 13.0125 3.6125 11.1375 4.4875 9.4875C5.1 9.9625 5.85 10.25 6.6875 10.25C8.6625 10.25 10.25 8.6625 10.25 6.6875C10.25 5.85 9.9625 5.1 9.4875 4.4875C11.1375 3.6125 13.0125 3.125 15 3.125C17 3.125 18.8625 3.6125 20.5125 4.4875C20.0375 5.0875 19.75 5.85 19.75 6.6875C19.75 8.6625 21.3375 10.25 23.3125 10.25C24.15 10.25 24.9 9.9625 25.5125 9.4875C26.3875 11.1375 26.875 13.0125 26.875 15C26.875 17 26.3875 18.8625 25.5125 20.5125Z" stroke="#A6ACBE" stroke-width="1.5" stroke-linecap="round" stroke-linejoin="round"/>
</svg>
