<svg width="30" height="30" viewBox="0 0 30 30" fill="none" xmlns="http://www.w3.org/2000/svg">
<path d="M16.25 23.0377L10.6875 26.7376C9.86248 27.2876 8.75 26.7002 8.75 25.7002V23.0377C5 23.0377 2.5 20.5377 2.5 16.7877V9.2876C2.5 5.5376 5 3.0376 8.75 3.0376H21.25C25 3.0376 27.5 5.5376 27.5 9.2876V16.7877C27.5 20.5377 25 23.0377 21.25 23.0377H16.25Z" stroke="#000" stroke-width="1.5" stroke-linecap="round" stroke-linejoin="round"/>
<path d="M15.0007 14.2002V13.9377C15.0007 13.0877 15.5258 12.6377 16.0508 12.2752C16.5633 11.9252 17.0757 11.4752 17.0757 10.6502C17.0757 9.50024 16.1507 8.5752 15.0007 8.5752C13.8507 8.5752 12.9258 9.50024 12.9258 10.6502" stroke="#000" stroke-width="1.5" stroke-linecap="round" stroke-linejoin="round"/>
<path d="M14.9944 17.1875H15.0056" stroke="#000" stroke-width="1.5" stroke-linecap="round" stroke-linejoin="round"/>
</svg>
