<svg width="30" height="30" viewBox="0 0 30 30" fill="none" xmlns="http://www.w3.org/2000/svg">
<path d="M26.25 21.25C26.25 25 24.375 27.5 20 27.5H10C5.625 27.5 3.75 25 3.75 21.25V8.75C3.75 5 5.625 2.5 10 2.5H20C24.375 2.5 26.25 5 26.25 8.75V21.25Z" stroke="#A6ACBE" stroke-width="1.5" stroke-linecap="round" stroke-linejoin="round"/>
<path d="M19.375 12.325C19.375 12.875 18.725 13.15 18.325 12.7875L15.425 10.1125C15.1875 9.88753 14.8125 9.88753 14.575 10.1125L11.675 12.7875C11.275 13.15 10.625 12.875 10.625 12.325V2.5H19.375V12.325Z" stroke="#A6ACBE" stroke-width="1.5" stroke-linecap="round" stroke-linejoin="round"/>
<path d="M16.5625 17.5H21.875" stroke="#A6ACBE" stroke-width="1.5" stroke-linecap="round" stroke-linejoin="round"/>
<path d="M11.25 22.5H21.875" stroke="#A6ACBE" stroke-width="1.5" stroke-linecap="round" stroke-linejoin="round"/>
</svg>
