<svg width="172" height="165" viewBox="0 0 172 165" fill="none" xmlns="http://www.w3.org/2000/svg">
<path d="M85.8807 102.44L82.1419 102.604L68.6909 131.801L47.418 142.407L48.4327 153.358C48.4327 153.358 74.6221 148.526 81.1514 144.871C87.6806 141.217 96.0037 117.474 96.0037 117.474C96.046 117.643 87.1551 102.453 87.1551 102.453" fill="#FFBF9D"/>
<path d="M48.6618 129.125L45.9377 126.256C45.4123 125.918 44.7962 125.749 44.1741 125.767L35.5369 126.027C33.9061 126.19 32.4383 127.078 31.5384 128.449L28.3976 133.794C28.3976 133.794 26.2836 137.454 26.5554 138.342C26.9601 139.683 28.3795 139.411 28.3795 139.411C28.3795 139.411 28.6815 141.102 29.2432 141.447C30.1854 142.021 31.3391 141.58 31.3391 141.58C31.6531 142.226 32.3236 142.661 33.0423 142.606C33.1873 142.594 33.3383 142.57 33.4893 142.522C34.5161 142.214 34.9751 140.227 34.9751 140.227L39.3541 139.417C39.3541 139.417 45.6418 143.621 47.8645 146.381C50.0812 149.136 55.8917 147.034 55.8917 147.034L58.0661 136.645L48.6678 129.125H48.6618Z" fill="#FFBF9D"/>
<path d="M42.2968 130.369C42.3028 130.43 41.6022 130.563 40.4063 130.684C39.2164 130.816 37.5312 130.865 35.6346 131.112L35.84 130.961C35.532 131.638 35.1514 132.339 34.7166 133.027C33.3757 135.171 31.7932 136.844 30.5611 137.944C29.3229 139.037 28.4289 139.544 28.3927 139.49C28.3444 139.423 29.1477 138.807 30.2953 137.66C31.4368 136.512 32.9408 134.833 34.2515 132.737C34.6743 132.061 35.0488 131.384 35.3568 130.738L35.4233 130.605L35.5622 130.587C37.5131 130.369 39.1922 130.388 40.3821 130.351C41.572 130.327 42.2847 130.303 42.2907 130.369H42.2968Z" fill="#FF9A6C"/>
<path d="M42.4939 134.489C42.506 134.543 41.9141 134.767 40.8692 134.924C39.8242 135.075 38.3203 135.123 36.6412 134.779L36.9492 134.604C36.774 135.117 36.5687 135.643 36.321 136.168C35.409 138.083 34.1225 139.544 33.0715 140.432C32.0206 141.326 31.2474 141.701 31.2172 141.646C31.1689 141.574 31.8575 141.091 32.8118 140.148C33.7661 139.212 34.95 137.769 35.8318 135.933C36.0734 135.425 36.2727 134.918 36.4539 134.429L36.5324 134.205L36.762 134.253C39.9934 134.972 42.4879 134.326 42.506 134.489H42.4939Z" fill="#FF9A6C"/>
<path d="M53.4604 136.621C50.8934 135.425 48.3264 134.235 45.7534 133.039C44.6843 132.544 43.573 132.036 42.4012 132.042C41.1328 132.042 39.955 132.646 38.8316 133.226C37.4484 133.939 36.0652 134.658 34.6881 135.37C34.4646 135.485 34.217 135.624 34.1385 135.866C34.0358 136.18 34.2653 136.506 34.4948 136.741C36.5666 138.837 40.2872 138.988 42.522 137.068C43.1864 138.88 43.875 140.728 45.1192 142.196C46.3634 143.669 48.3023 144.708 50.1988 144.358" fill="#FFBF9D"/>
<path d="M50.1976 144.364C50.1976 144.364 50.1311 144.4 49.9922 144.43C49.8533 144.467 49.6419 144.491 49.364 144.503C48.8144 144.515 47.9748 144.412 47.0447 143.941C46.1206 143.482 45.1119 142.648 44.3146 141.453C43.4992 140.263 42.8952 138.765 42.2972 137.152L42.6838 137.255C41.5483 138.257 39.8933 138.789 38.1961 138.656C37.3505 138.596 36.4868 138.366 35.6955 137.955C35.309 137.738 34.9224 137.496 34.5842 137.188C34.415 137.031 34.2399 136.892 34.0889 136.681C33.9439 136.482 33.7869 136.192 33.8714 135.841C33.9379 135.558 34.1614 135.376 34.3305 135.268C34.5117 135.153 34.6687 135.08 34.8318 134.996C35.1519 134.827 35.472 134.664 35.7922 134.501C36.4264 134.174 37.0545 133.848 37.6706 133.534C38.9028 132.924 40.0685 132.205 41.3852 131.915C42.714 131.595 44.0186 132.006 45.0394 132.471C46.0843 132.948 47.0205 133.407 47.8903 133.824C49.5573 134.639 50.9345 135.31 51.9915 135.823C52.9518 136.306 53.4773 136.59 53.4652 136.627C53.4471 136.663 52.8914 136.439 51.9008 136.017C50.8257 135.539 49.4244 134.923 47.7272 134.174C46.8393 133.776 45.885 133.347 44.8582 132.888C43.8374 132.453 42.6778 132.109 41.4879 132.411C40.298 132.682 39.1504 133.389 37.9122 134.011C37.2961 134.331 36.674 134.658 36.0338 134.99C35.7136 135.153 35.3935 135.322 35.0734 135.485C34.7472 135.654 34.403 135.817 34.3909 135.98C34.3244 136.18 34.6204 136.536 34.9405 136.79C35.2425 137.068 35.5928 137.291 35.9432 137.49C36.6619 137.865 37.4532 138.076 38.2323 138.143C39.7906 138.276 41.3188 137.792 42.3637 136.898L42.6294 136.669L42.7442 137.001C43.318 138.62 43.8858 140.088 44.6408 141.247C45.3776 142.413 46.3018 143.222 47.1715 143.705C48.9473 144.678 50.2096 144.285 50.1915 144.382L50.1976 144.364Z" fill="#FF9A6C"/>
<path d="M156.696 39.045C157.167 33.1862 158.484 27.3999 158.659 21.523C158.834 15.6461 157.705 9.43697 153.899 4.95529C150.094 0.473608 143.1 -1.61622 138.087 1.45209L136.764 6.37469C137.114 29.1213 135.296 52.0854 135.647 74.8321C135.695 77.8219 137.924 80.6727 139.089 83.4209C140.261 86.1691 142.822 88.5489 145.812 88.567C149.72 88.5912 152.547 84.8162 154.008 81.1922C159.311 68.0491 155.567 53.1666 156.696 39.039V39.045Z" fill="#263238"/>
<path d="M144.652 7.67299C143.897 6.16299 143.124 4.63487 141.946 3.42687C140.768 2.21887 139.107 1.36723 137.434 1.57259C136.649 1.66923 135.828 2.05579 135.514 2.78663C135.199 3.51747 135.695 4.55031 136.486 4.53823L136.643 4.69527C138.292 6.36835 139.977 8.01123 141.692 9.61183C142.121 10.0165 142.574 10.4272 143.124 10.6386C143.68 10.85 144.368 10.8138 144.785 10.4031C145.48 9.71451 145.087 8.54879 144.646 7.67299H144.652Z" fill="#0CAA6A"/>
<path d="M147.574 13.6525C142.211 6.10852 134.642 1.46376 125.419 0.684597C120.219 0.243677 117.99 1.17988 114.173 1.94092C110.356 2.69592 106.834 4.47771 104.382 7.50375C101.471 11.0976 98.9521 15.1685 98.1367 19.7166C97.3032 24.3916 97.3455 29.0243 97.9857 32.8838C98.7588 37.5709 101.447 44.837 103.971 48.8596L111.896 50.3757C118.522 51.0522 125.238 51.7286 131.81 50.6535C138.381 49.5784 144.904 46.5222 148.752 41.0862C154.097 33.5362 152.932 21.1904 147.568 13.6525H147.574Z" fill="#263238"/>
<path d="M136.878 12.85L121.283 5.39062L117.061 5.59599C107.638 4.99199 100.432 14.9399 99.8526 22.5684C99.2063 31.0425 98.7594 41.4132 99.6775 47.7552C101.532 60.5056 112.186 62.2814 112.186 62.2814C112.186 62.2814 111.51 68.9616 111.147 73.1775L135.809 73.0688L140.822 17.4465C140.9 15.1211 139.185 13.1279 136.878 12.8561V12.85Z" fill="#FFBF9D"/>
<path d="M118.726 46.0877C118.684 45.4172 118.357 44.8072 117.911 44.3723C117.029 43.5026 115.658 43.3334 114.607 43.9556C113.556 44.5837 112.885 45.9669 112.982 47.3017C113.495 48.1171 114.323 48.697 115.271 48.848C115.416 48.8721 115.567 48.8842 115.718 48.8902C116.443 48.9204 117.198 48.7272 117.784 48.2319C118.376 47.7366 118.774 46.9152 118.72 46.0877H118.726Z" fill="#FF9A6C"/>
<path d="M102.502 34.1534C102.46 35.0172 103.154 35.7601 104.054 35.8205C104.948 35.8809 105.715 35.2346 105.757 34.3709C105.8 33.5072 105.105 32.7642 104.205 32.7038C103.305 32.6434 102.544 33.2958 102.502 34.1534Z" fill="#263238"/>
<path d="M102.437 27.0012C102.636 27.2187 103.886 26.3187 105.638 26.3429C107.389 26.3429 108.67 27.267 108.863 27.0495C108.96 26.9529 108.754 26.5663 108.199 26.1556C107.649 25.7389 106.713 25.3342 105.62 25.3221C104.526 25.3161 103.602 25.7026 103.065 26.1073C102.521 26.512 102.334 26.8985 102.431 26.9952L102.437 27.0012Z" fill="#263238"/>
<path d="M112.746 41.4855C112.758 41.3888 111.664 41.1835 109.901 40.9358C109.454 40.8815 109.031 40.7909 108.958 40.4828C108.856 40.1567 109.049 39.6795 109.273 39.1601C109.707 38.0789 110.166 36.9494 110.644 35.7596C112.546 30.9215 113.935 26.9412 113.736 26.8687C113.543 26.7962 111.84 30.6558 109.931 35.4938C109.472 36.6897 109.031 37.8252 108.614 38.9124C108.439 39.4198 108.137 39.9936 108.361 40.6701C108.475 41.0083 108.801 41.256 109.091 41.3345C109.375 41.4251 109.629 41.4311 109.852 41.4492C111.628 41.57 112.733 41.5882 112.746 41.4915V41.4855Z" fill="#263238"/>
<path d="M112.168 62.2629C112.168 62.2629 120.721 62.9273 129.268 57.9382C129.268 57.9382 124.611 66.7023 111.891 65.3433L112.162 62.2629H112.168Z" fill="#FF9A6C"/>
<path d="M117.901 42.7665C117.617 42.7484 117.587 44.651 115.938 45.9858C114.295 47.3206 112.266 47.079 112.247 47.3448C112.217 47.4656 112.694 47.7193 113.552 47.7555C114.392 47.7978 115.624 47.5381 116.632 46.7287C117.641 45.9133 118.082 44.808 118.155 44.0288C118.239 43.2316 118.034 42.7604 117.901 42.7665Z" fill="#263238"/>
<path d="M103.446 20.9133C103.736 21.3482 105.083 21.0764 106.653 21.2274C108.23 21.3301 109.516 21.8073 109.867 21.4267C110.024 21.2395 109.855 20.8227 109.317 20.3818C108.785 19.9469 107.861 19.5362 106.78 19.4517C105.699 19.3671 104.727 19.6208 104.141 19.9711C103.543 20.3214 103.313 20.708 103.44 20.9194L103.446 20.9133Z" fill="#263238"/>
<path d="M120.422 34.6241C120.41 35.4878 119.667 36.1884 118.767 36.1884C117.867 36.1884 117.148 35.4999 117.16 34.6361C117.172 33.7724 117.915 33.0718 118.815 33.0718C119.715 33.0718 120.434 33.7664 120.422 34.6241Z" fill="#263238"/>
<path d="M126.155 27.9318C125.943 28.1311 124.753 27.1587 122.996 27.0741C121.244 26.9654 119.909 27.805 119.734 27.5755C119.643 27.4728 119.873 27.1043 120.453 26.7238C121.027 26.3433 121.987 25.999 123.08 26.0594C124.173 26.1198 125.073 26.5668 125.581 27.0077C126.1 27.4486 126.263 27.8412 126.161 27.9318H126.155Z" fill="#263238"/>
<path d="M125.484 22.2546C125.121 22.6351 123.786 22.1519 122.162 22.0553C120.537 21.9043 119.142 22.17 118.846 21.7412C118.719 21.5298 118.954 21.1432 119.577 20.799C120.187 20.4547 121.195 20.195 122.313 20.2795C123.43 20.3701 124.378 20.7748 124.922 21.2157C125.478 21.6566 125.647 22.0734 125.484 22.2606V22.2546Z" fill="#263238"/>
<path d="M137.198 38.5985C137.21 37.6502 138.339 35.4335 139.275 35.2946C141.782 34.9383 146.282 35.198 146.24 41.546C146.185 50.2195 137.488 48.3773 137.47 48.1296C137.457 47.9363 137.143 41.8722 137.198 38.5985Z" fill="#FFBF9D"/>
<path d="M139.885 44.9707C139.921 44.9405 140.036 45.0794 140.29 45.1942C140.537 45.3089 140.966 45.3935 141.419 45.2244C142.337 44.8922 143.116 43.4426 143.171 41.8782C143.201 41.087 143.038 40.338 142.76 39.7098C142.5 39.0756 142.09 38.6287 141.631 38.5441C141.172 38.4354 140.845 38.7072 140.737 38.9548C140.616 39.1964 140.67 39.3716 140.628 39.3837C140.604 39.4078 140.441 39.2387 140.513 38.8824C140.549 38.7072 140.652 38.5079 140.857 38.3388C141.069 38.1696 141.371 38.0851 141.697 38.1213C142.367 38.1696 142.965 38.7918 143.267 39.4743C143.606 40.1628 143.805 41.0084 143.775 41.8963C143.708 43.6419 142.802 45.2727 141.546 45.629C140.936 45.7861 140.429 45.5988 140.163 45.3874C139.897 45.17 139.849 44.9767 139.879 44.9646L139.885 44.9707Z" fill="#FF9A6C"/>
<path d="M139.624 35.3421L137.275 37.4682C128.408 27.7498 111.424 3.77102 112.366 5.19646C112.366 5.19646 119.04 2.9677 126.01 4.64682C132.98 6.32594 146.111 10.7593 145.338 19.0643C144.571 27.3633 139.624 35.3421 139.624 35.3421Z" fill="#263238"/>
<path d="M152.309 34.2917C152.309 34.2917 152.291 34.1165 152.213 33.7843C152.134 33.4521 151.977 32.9749 151.718 32.383C151.192 31.2052 150.147 29.5865 148.383 28.0765C146.644 26.5303 144.186 25.1954 141.353 24.0841C138.526 22.9485 135.319 21.9942 132.214 20.4057C129.086 18.8655 126.331 16.9689 124 15.0422C121.681 13.1033 119.79 11.1283 118.334 9.36458C116.873 7.6009 115.834 6.06674 115.133 4.99162C114.813 4.48426 114.553 4.0675 114.348 3.74134C114.167 3.45746 114.064 3.3125 114.052 3.31854C114.04 3.32458 114.112 3.48766 114.27 3.78362C114.433 4.07958 114.656 4.52654 114.988 5.08222C115.647 6.18754 116.655 7.75794 118.093 9.55786C119.53 11.3578 121.415 13.3751 123.74 15.3502C126.078 17.3072 128.856 19.24 132.015 20.7923C135.162 22.4049 138.393 23.3472 141.202 24.4585C144.023 25.5397 146.451 26.8202 148.184 28.306C149.942 29.7617 151.005 31.3139 151.567 32.4495C152.128 33.5971 152.273 34.2977 152.315 34.2856L152.309 34.2917Z" fill="#455A64"/>
<path d="M149.705 35.481C149.705 35.481 149.837 34.7804 149.499 33.5724C149.173 32.3704 148.261 30.7094 146.527 29.284C144.812 27.8163 142.293 26.8076 139.509 25.968C136.706 25.1466 133.68 24.1379 130.745 22.5192C127.81 20.9125 125.212 19.0281 123.092 17.0469C120.96 15.0779 119.269 13.0726 117.982 11.2908C116.678 9.5211 115.826 7.95071 115.216 6.88767C114.95 6.37427 114.739 5.9575 114.564 5.6253C114.413 5.34142 114.322 5.19042 114.31 5.19646C114.298 5.2025 114.358 5.36558 114.485 5.66154C114.636 6.00582 114.83 6.43466 115.065 6.96014C115.633 8.05338 116.448 9.66002 117.729 11.466C118.997 13.284 120.676 15.3316 122.814 17.3369C124.94 19.3542 127.568 21.2749 130.534 22.8997C133.499 24.5365 136.598 25.5573 139.394 26.3546C142.179 27.17 144.649 28.1243 146.334 29.5195C148.043 30.8785 148.974 32.461 149.336 33.6147C149.723 34.7743 149.65 35.481 149.711 35.475L149.705 35.481Z" fill="#455A64"/>
<path d="M138.35 49.9532C138.35 49.8928 139.093 49.8505 140.391 49.6029C141.684 49.3371 143.538 48.6788 145.411 47.2292C147.301 45.8037 149.047 43.5025 150.369 40.6637C151.686 37.8189 152.586 34.4304 152.918 30.8245C153.075 29.0186 153.057 27.2488 152.858 25.5576C152.634 23.8664 152.242 22.2659 151.74 20.78C150.702 17.8144 149.216 15.3621 147.736 13.5078C144.758 9.76909 142.173 8.17453 142.282 8.05977C142.294 8.04165 142.451 8.13829 142.741 8.34365C143.025 8.54901 143.472 8.83289 143.991 9.26173C145.048 10.0892 146.516 11.3999 148.05 13.2602C149.59 15.1145 151.143 17.5909 152.236 20.6109C152.761 22.1269 153.172 23.7638 153.408 25.4973C153.619 27.2307 153.643 29.0488 153.486 30.891C153.148 34.5633 152.212 38.0061 150.841 40.9053C149.469 43.7985 147.633 46.142 145.652 47.5674C143.689 49.023 141.762 49.6331 140.428 49.8385C139.763 49.9774 139.232 49.9411 138.881 49.9774C138.525 49.9955 138.344 49.9895 138.344 49.9713L138.35 49.9532Z" fill="#455A64"/>
<path d="M111.341 70.1873L135.821 67.5417L140.303 71.6187L122.829 81.8928L115.116 85.8852L107.506 83.5719L105.09 79.0359L111.341 70.1873Z" fill="#FFBF9D"/>
<path d="M78.3498 99.9887C78.3498 99.9887 86.0206 85.2632 87.9232 82.0439C91.1606 76.5596 97.2006 73.455 97.2006 73.455L111.34 70.1813C111.34 70.1813 109.873 77.2663 118.673 77.7555C129.865 78.3776 136.817 67.6445 136.817 67.6445C136.817 67.6445 149.586 68.9613 153.113 70.4411C156.64 71.9209 166.612 76.0945 168.08 89.3583L171.499 111.012L144.518 113.065L144.892 141.894L158.168 164.605H93.0512C94.0719 164.876 97.6597 149.71 95.3041 137.727L90.8586 126.939C89.0829 122.621 87.9776 118.042 87.7118 113.379C87.5366 110.311 87.6212 107.986 87.6212 107.986C87.6212 107.986 80.6994 105.606 78.3438 99.9827L78.3498 99.9887Z" fill="#0CAA6A"/>
<path d="M99.6061 152.035L144.84 138.457L144.52 113.071L167.556 111.313C167.556 111.313 165.72 124.469 165.448 131.209C165.062 140.909 160.393 154.469 157.276 157.344C154.153 160.225 98.4102 163.348 98.4102 163.348L99.6121 152.023L99.6061 152.035Z" fill="#FFBF9D"/>
<path d="M73.9538 160.02C74.3283 160.636 75.035 161.004 75.7417 160.884C75.8806 160.86 76.0316 160.817 76.1826 160.757C77.1731 160.352 76.9195 158.286 76.9195 158.286L81.7333 157.115C81.7333 157.115 88.3894 160.715 90.8538 163.245C93.3181 165.782 98.9051 163.143 98.9051 163.143L100.095 152.597L90.4913 145.174C90.4913 145.174 91.0772 145.615 90.3464 144.147C89.6095 142.679 86.8371 143.47 86.8371 143.47C86.3419 142.752 84.4755 142.625 84.4755 142.625L76.6718 144.141C75.0652 144.455 73.682 145.476 72.921 146.925L69.9976 152.452C69.9976 152.452 68.5359 156.384 68.8863 157.242C69.4178 158.54 70.8009 158.135 70.8009 158.135C70.8009 158.135 71.3808 160.6 72.0452 160.636C72.7096 160.672 73.9599 160.02 73.9599 160.02H73.9538Z" fill="#FFBF9D"/>
<path d="M90.1296 151.256C90.1296 151.34 89.0726 151.322 87.3995 151.527C85.7264 151.739 83.4312 152.216 81.0696 153.225C79.8918 153.726 78.8106 154.306 77.8684 154.898C76.9563 155.508 76.002 156.021 75.7483 156.74C75.6215 157.09 75.7181 157.428 75.9054 157.67C76.0926 157.912 76.3282 158.063 76.5396 158.129C76.9684 158.268 77.2221 158.129 77.2402 158.177C77.2583 158.189 77.0107 158.413 76.4912 158.316C76.2376 158.268 75.9416 158.129 75.6879 157.851C75.4342 157.591 75.2591 157.102 75.404 156.631C75.5369 156.16 75.9054 155.773 76.298 155.447C76.7026 155.133 77.1315 154.813 77.6086 154.505C78.5569 153.877 79.6562 153.273 80.8642 152.76C83.2802 151.721 85.6539 151.292 87.3572 151.171C89.0726 151.056 90.1296 151.201 90.1235 151.256H90.1296Z" fill="#FF9A6C"/>
<path d="M91.0718 156.233C91.0718 156.384 87.8585 156.499 83.9446 157.03C80.0247 157.55 76.8959 158.293 76.8597 158.148C76.8416 158.081 77.6087 157.815 78.871 157.489C80.1334 157.163 81.9031 156.795 83.8782 156.529C85.8532 156.263 87.6592 156.148 88.9639 156.13C90.2685 156.106 91.0779 156.166 91.0779 156.233H91.0718Z" fill="#FF9A6C"/>
<path d="M73.981 159.815C73.981 159.815 73.8964 159.525 73.8179 158.981C73.7454 158.444 73.6488 157.658 73.6367 156.674C73.6367 156.185 73.6428 155.641 73.7334 155.061C73.8119 154.475 74.0414 153.847 74.3736 153.286C75.0018 152.156 75.9017 150.966 77.0916 150.036C78.2754 149.112 79.4714 148.321 80.7096 147.843C81.9357 147.366 83.1014 147.179 84.0678 147.064C85.0402 146.956 85.8254 146.913 86.369 146.895C86.9126 146.877 87.2146 146.883 87.2146 146.913C87.2267 146.992 86.0247 147.125 84.1161 147.415C83.1678 147.578 82.0384 147.795 80.8787 148.272C79.725 148.743 78.5533 149.535 77.4057 150.429C76.2581 151.335 75.4185 152.422 74.7722 153.521C74.0897 154.572 74.0354 155.726 73.9931 156.68C73.9508 158.601 74.0958 159.809 73.987 159.815H73.981Z" fill="#FF9A6C"/>
<path d="M84.2465 144.654C84.2525 144.727 83.0747 144.854 81.2144 145.216C79.4265 145.633 76.5334 145.989 75.0777 148.616C73.465 151.026 72.1121 153.285 71.5806 155.097C71.0128 156.897 71.1698 158.105 71.0611 158.099C71.037 158.099 70.9645 157.809 70.9524 157.266C70.9343 156.728 70.9887 155.931 71.2363 154.995C71.6953 153.092 73.0362 150.749 74.6549 148.327C75.0717 147.717 75.5247 147.137 76.0683 146.66C76.6059 146.176 77.2521 145.868 77.8501 145.645C79.0641 145.198 80.1997 145.005 81.1479 144.854C83.0505 144.576 84.2404 144.582 84.2404 144.642L84.2465 144.654Z" fill="#FF9A6C"/>
<path d="M89.0043 161.705C89.0043 161.705 88.8231 161.609 88.509 161.385C88.1526 161.137 87.6875 160.823 87.1077 160.431C85.8755 159.621 84.0454 158.474 81.6596 157.266L81.7744 157.278C80.3369 157.64 78.7181 158.045 76.9665 158.486L77.1175 158.268C77.1598 158.667 77.1658 159.054 77.1175 159.464C77.0692 159.869 76.9726 160.304 76.6585 160.678C76.4954 160.86 76.2417 160.98 76.0364 161.023C75.825 161.095 75.5894 161.137 75.3539 161.113C74.8827 161.083 74.4297 160.872 74.0915 160.533C74.0069 160.449 73.9284 160.358 73.8559 160.262L73.8076 160.189L73.7835 160.153L73.7714 160.135C73.7049 160.111 74.3331 160.286 74.0673 160.213H74.0553L73.9043 160.298C73.7049 160.395 73.4996 160.485 73.2942 160.57C73.0828 160.654 72.8714 160.727 72.6419 160.787C72.5271 160.817 72.4124 160.841 72.2855 160.854C72.1647 160.866 72.0258 160.884 71.8265 160.799C71.5366 160.624 71.4218 160.401 71.301 160.189C71.1862 159.978 71.0896 159.76 71.0051 159.537C70.8359 159.096 70.7031 158.649 70.5823 158.184L70.8843 158.359C70.2621 158.522 69.5011 158.425 69.0179 157.882C68.8004 157.628 68.6132 157.308 68.6072 156.928C68.5951 156.583 68.6495 156.281 68.7038 155.973C68.9515 154.753 69.3441 153.569 69.7789 152.361V152.349L69.791 152.331C70.2863 151.389 70.8118 150.392 71.3493 149.384C71.6815 148.755 72.0077 148.133 72.3399 147.517C72.6721 146.919 72.956 146.249 73.4392 145.693C73.9043 145.144 74.4841 144.697 75.1123 144.382C75.7404 144.05 76.4592 143.923 77.0873 143.809C79.6725 143.313 82.1368 142.842 84.4441 142.401H84.5045C84.9695 142.438 85.3984 142.516 85.8333 142.637C86.2561 142.77 86.703 142.921 87.0231 143.338L86.7453 143.271C87.5546 142.866 88.515 142.788 89.2821 143.217C90.0552 143.64 90.4478 144.395 90.6894 145.113L90.623 145.017C93.3772 147.137 95.6301 148.864 97.2368 150.102C97.9797 150.688 98.5716 151.153 99.0246 151.51C99.4293 151.836 99.6347 152.017 99.6286 152.029C99.6165 152.041 99.387 151.896 98.9642 151.594C98.4991 151.262 97.8891 150.821 97.122 150.265C95.4912 149.063 93.2081 147.378 90.4055 145.313L90.3633 145.276L90.3391 145.21C90.1217 144.576 89.7351 143.893 89.1009 143.567C88.4848 143.217 87.6392 143.295 86.9627 143.64L86.7936 143.724L86.6789 143.573C86.4916 143.325 86.099 143.156 85.7125 143.048C85.3199 142.939 84.8971 142.866 84.4743 142.83H84.5346C82.2334 143.283 79.7691 143.766 77.184 144.274C76.5256 144.401 75.9095 144.509 75.3357 144.811C74.7619 145.095 74.2425 145.5 73.8197 146.001C73.3909 146.484 73.1191 147.113 72.7808 147.735C72.4547 148.351 72.1224 148.979 71.7963 149.601C71.2648 150.61 70.7333 151.606 70.238 152.549L70.2501 152.518C69.8273 153.696 69.4286 154.88 69.1931 156.046C69.1387 156.336 69.0904 156.632 69.0964 156.891C69.0904 157.115 69.2172 157.35 69.3803 157.544C69.6944 157.924 70.2742 158.003 70.7453 157.888L70.9869 157.828L71.0473 158.063C71.1561 158.504 71.2829 158.945 71.4399 159.362C71.5909 159.754 71.8023 160.231 72.0319 160.376C72.0439 160.376 72.1285 160.401 72.2312 160.382C72.3278 160.376 72.4245 160.352 72.5271 160.328C72.7265 160.28 72.9258 160.207 73.1251 160.135C73.3244 160.056 73.5177 159.972 73.7049 159.881L73.8439 159.815H73.8559C73.5902 159.736 74.2183 159.905 74.1519 159.893L74.164 159.911L74.1821 159.942L74.2183 160.002C74.2727 160.08 74.3331 160.153 74.3995 160.219C74.6653 160.485 75.0216 160.654 75.378 160.678C75.5592 160.697 75.7344 160.666 75.9095 160.606C76.1028 160.564 76.2297 160.497 76.3384 160.382C76.7672 159.863 76.7672 158.993 76.7129 158.305L76.7008 158.123L76.8639 158.087C78.6215 157.67 80.2462 157.29 81.6838 156.946L81.7442 156.934L81.7985 156.964C84.1904 158.226 85.9963 159.416 87.2043 160.274C87.8083 160.709 88.2613 161.059 88.5573 161.307C88.8532 161.554 89.0043 161.687 88.9982 161.699L89.0043 161.705Z" fill="#FF9A6C"/>
<path d="M17.2717 162.949L0.172488 118.048C-0.473792 116.357 0.776482 114.545 2.58244 114.545H57.486C58.4887 114.545 59.4007 115.125 59.8235 116.031L76.2644 158.86L110.753 159.446C112.178 159.446 113.332 160.6 113.332 162.025C113.332 163.451 112.178 164.604 110.753 164.604H19.6817C18.6126 164.604 17.6522 163.94 17.2717 162.943V162.949Z" fill="#455A64"/>
<path d="M40.5083 139.58C40.5083 141.567 38.8956 143.18 36.9084 143.18C34.9213 143.18 33.3086 141.567 33.3086 139.58C33.3086 137.593 34.9213 135.98 36.9084 135.98C38.8956 135.98 40.5083 137.593 40.5083 139.58Z" fill="white"/>
<path d="M94.6078 83.7234C94.6864 83.7657 93.9555 85.1367 92.9227 87.4259C91.8898 89.709 90.6154 92.9344 89.5826 96.6127C88.5618 100.297 87.982 103.716 87.68 106.204C87.378 108.693 87.2934 110.245 87.2028 110.245C87.1666 110.245 87.1484 109.852 87.1484 109.152C87.1484 108.445 87.1907 107.424 87.2934 106.168C87.4988 103.655 88.0182 100.188 89.051 96.4738C90.0899 92.7592 91.4368 89.5278 92.5663 87.2689C93.128 86.1394 93.6173 85.2455 93.9857 84.6415C94.3481 84.0375 94.5656 83.7113 94.6018 83.7294L94.6078 83.7234Z" fill="#263238"/>
<path d="M171.496 111.017C171.496 111.017 171.302 111.066 170.94 111.102C170.523 111.144 169.986 111.199 169.321 111.259C167.847 111.38 165.806 111.555 163.275 111.766C158.063 112.159 150.857 112.702 142.594 113.325L142.328 113.343L142.31 113.077C142.135 110.329 141.954 107.43 141.767 104.452C141.471 99.2574 141.223 94.3106 141.145 89.8048C140.909 85.2688 142.02 81.1314 143.796 78.1899C145.554 75.2001 147.891 73.4666 149.595 72.621C150.464 72.2103 151.159 71.9385 151.648 71.8237C152.131 71.6848 152.391 71.6244 152.391 71.6425C152.415 71.715 151.364 71.9264 149.691 72.8083C148.042 73.7022 145.808 75.4417 144.128 78.3832C142.431 81.2944 141.386 85.3111 141.646 89.7927C141.755 94.2865 142.02 99.2333 142.31 104.422C142.492 107.399 142.673 110.299 142.842 113.041L142.558 112.793C150.821 112.249 158.032 111.772 163.251 111.422C165.788 111.277 167.829 111.156 169.309 111.072C169.98 111.041 170.517 111.017 170.934 110.999C171.302 110.987 171.496 110.993 171.502 111.005L171.496 111.017Z" fill="#263238"/>
<path d="M120.773 128.654C120.755 128.691 120.441 128.57 119.867 128.322C119.577 128.201 119.233 128.044 118.859 127.815C118.478 127.591 118.025 127.362 117.578 127.03C116.648 126.42 115.627 125.562 114.6 124.505C113.598 123.424 112.601 122.137 111.749 120.663C110.916 119.178 110.318 117.662 109.907 116.242C109.527 114.817 109.309 113.5 109.261 112.389C109.201 111.833 109.237 111.332 109.243 110.891C109.243 110.45 109.279 110.069 109.327 109.761C109.406 109.145 109.466 108.813 109.503 108.813C109.611 108.825 109.436 110.184 109.648 112.352C109.744 113.44 109.998 114.714 110.396 116.097C110.825 117.468 111.423 118.936 112.233 120.386C113.06 121.823 114.02 123.086 114.981 124.155C115.965 125.206 116.932 126.069 117.814 126.71C119.571 128.002 120.828 128.546 120.785 128.648L120.773 128.654Z" fill="#263238"/>
</svg>
