<svg width="108" height="94" viewBox="0 0 108 94" fill="none" xmlns="http://www.w3.org/2000/svg">
<path d="M103.432 15.034L102.784 13.9586C97.3005 4.86675 87.4131 -0.612046 76.9872 0.0546573C75.6429 0.132687 74.3062 0.312413 72.9885 0.592321C63.509 2.63813 55.261 9.86702 51.8435 19.1256C49.8308 24.5694 49.271 30.8386 45.4456 35.1614C40.4819 40.7854 32.05 40.9601 24.6525 40.7289C17.2549 40.4977 8.80436 40.694 3.85932 46.3395C0.772342 49.8907 -0.211333 54.934 0.0365848 59.6547C0.6977 72.193 9.36684 83.406 20.3792 88.9789C31.3916 94.5518 44.3713 95.0491 56.4287 92.5974C73.3218 89.1644 89.3885 79.7338 99.044 65.1765C108.699 50.6193 111.144 30.7553 103.432 15.034Z" fill="#FFEFE3"/>
<g clip-path="url(#clip0_5407_12094)">
<path d="M50.67 6.80352C50.969 6.80032 51.268 6.79691 51.567 6.79329C52.1918 6.78732 52.8163 6.78622 53.441 6.78822C54.0738 6.7897 54.7056 6.78333 55.3382 6.76924C61.9215 6.62426 61.9215 6.62426 64.9227 8.88308C65.5554 9.34645 66.2351 9.72932 66.9115 10.1245C68.0127 10.7918 68.0127 10.7918 68.387 11.166C68.4742 11.5757 68.5008 11.9825 68.5413 12.4004C68.7183 12.3983 68.7183 12.3983 68.8989 12.3962C70.0178 12.3838 71.1367 12.3744 72.2556 12.3684C72.8307 12.3652 73.4058 12.3609 73.9808 12.3538C74.5371 12.3471 75.0933 12.3434 75.6496 12.3418C75.8605 12.3407 76.0714 12.3385 76.2823 12.3351C78.1516 12.3065 79.6664 12.5768 81.0478 13.8988C81.9698 14.9837 82.2926 16.1135 82.294 17.5083C82.2943 17.6193 82.2946 17.7303 82.2949 17.8447C82.2958 18.2186 82.2956 18.5926 82.2954 18.9665C82.2958 19.2365 82.2962 19.5066 82.2968 19.7766C82.298 20.5202 82.2983 21.2638 82.2984 22.0074C82.2987 22.8088 82.2999 23.6102 82.3009 24.4115C82.303 26.1646 82.3039 27.9176 82.3046 29.6707C82.305 30.765 82.3057 31.8594 82.3064 32.9537C82.3083 35.9828 82.3098 39.012 82.3104 42.0411C82.3104 42.235 82.3104 42.4289 82.3105 42.6287C82.3105 42.8231 82.3105 43.0175 82.3106 43.2178C82.3106 43.6117 82.3107 44.0056 82.3108 44.3996C82.3108 44.595 82.3108 44.7904 82.3109 44.9917C82.3115 48.1581 82.3142 51.3245 82.3178 54.491C82.3214 57.7408 82.3234 60.9907 82.3235 64.2406C82.3237 66.0657 82.3246 67.8908 82.3274 69.7159C82.3297 71.27 82.3305 72.8241 82.3293 74.3782C82.3287 75.1711 82.3288 75.9641 82.331 76.7571C82.3329 77.4832 82.3328 78.2093 82.3309 78.9354C82.3306 79.1979 82.331 79.4604 82.3324 79.7229C82.3418 81.676 82.2044 83.1856 80.8272 84.7078C79.4983 85.9101 78.3697 86.0458 76.642 86.0413C76.4457 86.042 76.2495 86.0427 76.0472 86.0434C75.5034 86.0453 74.9596 86.0452 74.4158 86.0449C73.8289 86.0448 73.242 86.0465 72.6551 86.048C71.5055 86.0505 70.356 86.0514 69.2064 86.0516C68.2718 86.0517 67.3372 86.0523 66.4026 86.0533C63.7519 86.056 61.1012 86.0575 58.4505 86.0572C58.3077 86.0572 58.1648 86.0572 58.0176 86.0572C57.8746 86.0572 57.7315 86.0572 57.5841 86.0571C55.2664 86.057 52.9487 86.06 50.631 86.0643C48.2503 86.0688 45.8696 86.0709 43.4889 86.0706C42.1527 86.0705 40.8165 86.0714 39.4802 86.0747C38.3425 86.0775 37.2047 86.0782 36.0669 86.0761C35.4867 86.0751 34.9065 86.075 34.3263 86.0777C33.6965 86.0806 33.0667 86.0787 32.4369 86.0763C32.1636 86.0787 32.1636 86.0787 31.8848 86.0811C30.5407 86.0699 29.513 85.7921 28.3855 85.0549C27.2309 83.8478 26.689 82.5069 26.6871 80.836C26.6866 80.7245 26.6861 80.6131 26.6855 80.4983C26.6841 80.1256 26.6848 79.753 26.6856 79.3803C26.685 79.1101 26.6843 78.8399 26.6835 78.5697C26.6816 77.8277 26.6816 77.0858 26.682 76.3438C26.682 75.5434 26.6803 74.7429 26.6789 73.9425C26.6763 72.3745 26.6755 70.8065 26.6753 69.2385C26.6751 67.9639 26.6745 66.6894 26.6735 65.4148C26.6708 61.8009 26.6694 58.1871 26.6696 54.5732C26.6696 54.3784 26.6696 54.1836 26.6697 53.9829C26.6697 53.7878 26.6697 53.5928 26.6697 53.3918C26.6698 50.2306 26.6669 47.0694 26.6625 43.9082C26.6581 40.6621 26.6559 37.4161 26.6562 34.17C26.6563 32.3477 26.6555 30.5253 26.6521 28.703C26.6493 27.1514 26.6487 25.5998 26.6508 24.0482C26.6518 23.2568 26.6518 22.4653 26.6491 21.6739C26.6467 20.9488 26.6471 20.2238 26.6498 19.4987C26.6503 19.2369 26.6497 18.9752 26.648 18.7134C26.636 16.7533 26.8132 15.1018 28.2252 13.6263C29.2621 12.7451 30.3755 12.3802 31.7151 12.3829C32.0116 12.3829 32.0116 12.3829 32.3141 12.3829C32.529 12.3837 32.744 12.3845 32.959 12.3853C33.1795 12.3856 33.4 12.3858 33.6205 12.386C34.1999 12.3866 34.7792 12.3881 35.3586 12.3898C35.9502 12.3914 36.5418 12.3921 37.1334 12.3929C38.2935 12.3945 39.4535 12.3971 40.6136 12.4004C40.5976 12.2095 40.5817 12.0185 40.5653 11.8218C40.566 11.2989 40.5698 11.2127 40.9445 10.813C41.0899 10.7258 41.2352 10.6386 41.385 10.5488C41.5242 10.4621 41.6633 10.3753 41.8066 10.2859C41.9569 10.2 42.1072 10.1141 42.262 10.0257C42.4308 9.92881 42.5995 9.83194 42.7734 9.73214C42.9485 9.6325 43.1237 9.53285 43.3041 9.43018C43.4739 9.33292 43.6436 9.23566 43.8185 9.13545C44.1576 8.94131 44.4977 8.74897 44.8389 8.55862C45.1956 8.35625 45.5246 8.14615 45.8635 7.91217C47.4339 6.87456 48.8217 6.80331 50.67 6.80352ZM45.1865 11.3517C44.7796 11.6289 44.7796 11.6289 44.2995 11.8483C43.7465 12.0897 43.7465 12.0897 43.0823 12.709C43.0823 13.5746 43.0823 14.4402 43.0823 15.332C50.6182 15.332 58.154 15.332 65.9182 15.332C65.9182 14.4664 65.9182 13.6008 65.9182 12.709C65.2656 12.1395 65.2656 12.1395 64.5688 11.7869C64.0743 11.5672 63.6596 11.3064 63.2219 10.9885C60.6775 9.21985 58.2872 9.14917 55.2976 9.19877C54.6499 9.20933 54.004 9.20095 53.3564 9.18769C50.1759 9.13211 47.8185 9.41244 45.1865 11.3517ZM29.9671 15.6406C29.4443 16.4162 29.2727 16.9117 29.2726 17.8655C29.2718 17.9762 29.2709 18.0868 29.2701 18.2008C29.268 18.5707 29.2703 18.9405 29.2725 19.3105C29.2719 19.5787 29.2711 19.8469 29.27 20.1151C29.2677 20.8515 29.2693 21.5879 29.2715 22.3243C29.2732 23.1187 29.2713 23.9132 29.2699 24.7076C29.2678 26.2636 29.269 27.8195 29.2713 29.3755C29.2739 31.187 29.2734 32.9984 29.2728 34.8099C29.2719 38.0415 29.2741 41.2732 29.2779 44.5048C29.2816 47.6418 29.2827 50.7787 29.2811 53.9157C29.2793 57.3306 29.279 60.7455 29.2812 64.1604C29.2815 64.5244 29.2817 64.8884 29.2819 65.2524C29.282 65.4315 29.2822 65.6106 29.2823 65.7952C29.283 67.0583 29.2827 68.3215 29.2821 69.5847C29.2813 71.1236 29.2822 72.6625 29.2853 74.2014C29.2868 74.9868 29.2876 75.7722 29.2864 76.5576C29.2853 77.2763 29.2864 77.9949 29.2891 78.7136C29.2897 78.9739 29.2896 79.2342 29.2886 79.4945C29.2873 79.8478 29.2889 80.201 29.2912 80.5543C29.2914 80.7507 29.2915 80.9471 29.2917 81.1494C29.3749 81.9081 29.6222 82.4149 30.1599 82.9526C31.2162 83.6248 32.3045 83.5756 33.5188 83.5715C33.7052 83.5721 33.8916 83.5727 34.0837 83.5733C34.5994 83.5746 35.115 83.5745 35.6306 83.5739C36.1874 83.5735 36.7442 83.5749 37.3011 83.576C38.3912 83.578 39.4814 83.5783 40.5715 83.5779C41.4578 83.5776 42.3441 83.5779 43.2304 83.5786C43.3566 83.5787 43.4828 83.5787 43.6128 83.5788C43.8692 83.579 44.1256 83.5792 44.382 83.5794C46.7859 83.5811 49.1897 83.5807 51.5936 83.5798C53.7917 83.579 55.9897 83.5807 58.1878 83.5837C60.446 83.5867 62.7041 83.5879 64.9622 83.5874C66.2295 83.5871 67.4968 83.5874 68.7642 83.5896C69.8431 83.5915 70.9219 83.5917 72.0008 83.5898C72.551 83.5889 73.1012 83.5887 73.6513 83.5906C74.2484 83.5926 74.8455 83.591 75.4426 83.589C75.6155 83.5901 75.7885 83.5913 75.9666 83.5924C76.9992 83.5853 78.1569 83.565 78.9748 82.8498C79.6103 82.1207 79.6701 81.5508 79.6714 80.6141C79.6717 80.5045 79.6721 80.3949 79.6725 80.282C79.6735 79.9121 79.6734 79.5421 79.6734 79.1721C79.6739 78.9053 79.6745 78.6384 79.6751 78.3716C79.6766 77.6362 79.6772 76.9007 79.6776 76.1653C79.6782 75.3729 79.6797 74.5806 79.681 73.7883C79.6841 71.8737 79.6856 69.9592 79.687 68.0446C79.6877 67.1435 79.6885 66.2424 79.6893 65.3413C79.692 62.3466 79.6942 59.3519 79.6953 56.3572C79.6956 55.5798 79.6959 54.8024 79.6962 54.025C79.6963 53.8318 79.6964 53.6386 79.6964 53.4395C79.6977 50.3084 79.7016 47.1773 79.7066 44.0462C79.7117 40.8331 79.7145 37.62 79.715 34.4069C79.7153 32.6022 79.7167 30.7976 79.7206 28.9929C79.724 27.4562 79.7252 25.9195 79.7237 24.3828C79.723 23.5986 79.7233 22.8144 79.7263 22.0302C79.729 21.3123 79.7289 20.5944 79.7265 19.8764C79.7261 19.6167 79.7268 19.357 79.7286 19.0974C79.7611 17.2762 79.7611 17.2762 79.0335 15.6406C78.0754 14.8152 77.003 14.9439 75.789 14.9632C75.5795 14.9643 75.3701 14.9652 75.1606 14.9658C74.6124 14.9682 74.0643 14.9742 73.5161 14.9811C72.9555 14.9874 72.3949 14.9902 71.8343 14.9933C70.7366 14.9999 69.6389 15.0104 68.5413 15.0234C68.5244 15.1851 68.5075 15.3469 68.4901 15.5135C68.4655 15.7262 68.4407 15.939 68.4159 16.1517C68.3997 16.3115 68.3997 16.3115 68.3831 16.4745C68.2892 17.2519 68.2892 17.2519 68.0605 17.6001C67.6174 17.906 67.2437 17.8591 66.7097 17.8596C66.6013 17.8603 66.4928 17.861 66.3811 17.8618C66.0168 17.8636 65.6527 17.8621 65.2884 17.8607C65.0276 17.8613 64.7668 17.8621 64.5061 17.8631C63.7971 17.8653 63.0881 17.8644 62.3791 17.863C61.638 17.8618 60.8969 17.8629 60.1557 17.8636C58.911 17.8644 57.6663 17.8633 56.4216 17.8611C54.9815 17.8586 53.5414 17.8594 52.1012 17.862C50.8659 17.8641 49.6307 17.8644 48.3954 17.8632C47.657 17.8624 46.9188 17.8624 46.1805 17.8639C45.4864 17.8652 44.7924 17.8643 44.0984 17.8616C43.8433 17.861 43.5882 17.8612 43.3332 17.8622C42.9857 17.8635 42.6383 17.8619 42.2908 17.8596C41.9988 17.8593 41.9988 17.8593 41.7009 17.859C41.2307 17.8008 41.2307 17.8008 40.9401 17.6001C40.652 17.1615 40.6366 16.662 40.5846 16.1517C40.572 16.0434 40.5594 15.9351 40.5463 15.8236C40.5155 15.5571 40.4872 15.2903 40.4593 15.0234C39.2507 15.0091 38.0422 14.9982 36.8337 14.9915C36.2724 14.9883 35.7112 14.9839 35.1499 14.9769C34.6077 14.9701 34.0655 14.9665 33.5232 14.9649C33.217 14.9632 32.9107 14.9584 32.6045 14.9535C31.1706 14.9495 31.1706 14.9495 29.9671 15.6406Z" fill="#FF9140"/>
<path d="M52.9798 28.9892C53.3876 29.5368 53.3473 30.0479 53.3357 30.7037C53.3358 30.8377 53.3359 30.9718 53.336 31.1099C53.3356 31.5524 53.3308 31.9948 53.3259 32.4373C53.3248 32.7443 53.3239 33.0513 53.3233 33.3583C53.3209 34.166 53.3149 34.9736 53.308 35.7813C53.3017 36.6055 53.2989 37.4298 53.2958 38.2542C53.2892 39.8713 53.2786 41.4884 53.2657 43.1055C53.4318 43.1044 53.5979 43.1034 53.7691 43.1024C55.3355 43.093 56.902 43.086 58.4684 43.0815C59.2738 43.0791 60.0791 43.0758 60.8844 43.0705C61.6617 43.0655 62.439 43.0627 63.2164 43.0616C63.5128 43.0607 63.8092 43.059 64.1056 43.0565C64.5211 43.0532 64.9366 43.0527 65.3521 43.0529C65.4743 43.0513 65.5965 43.0496 65.7224 43.0479C66.4644 43.052 66.9716 43.1589 67.6153 43.5684C68.2554 44.8486 67.5622 46.6205 67.1524 47.8887C65.8502 51.5384 63.2477 54.417 59.8215 56.193C58.1255 56.9626 56.2161 57.5283 54.3457 57.6094C54.2165 57.6173 54.0872 57.6253 53.954 57.6335C50.3619 57.7522 46.6011 56.5898 43.9403 54.1281C43.6514 53.8512 43.3668 53.5704 43.0821 53.2891C42.981 53.1992 42.88 53.1093 42.7759 53.0166C40.4755 50.9273 39.0637 47.3532 38.8969 44.2971C38.7657 40.1837 39.7808 36.3254 42.6095 33.2401C44.4688 31.2891 50.1345 26.9855 52.9798 28.9892ZM44.7793 34.9277C44.6646 35.0389 44.5498 35.1501 44.4316 35.2647C42.2421 37.5312 41.4478 40.6759 41.4957 43.7516C41.6186 46.8188 43.1242 49.8276 45.3477 51.9209C47.8658 53.9507 50.9182 55.2113 54.1914 54.9863C56.7833 54.7001 58.95 53.8734 60.9805 52.209C61.1434 52.0837 61.1434 52.0837 61.3096 51.9558C63.0279 50.5677 64.3323 48.4588 64.8515 46.3106C64.898 46.1185 64.9444 45.9264 64.9922 45.7285C64.7386 45.7272 64.7386 45.7272 64.4799 45.7258C62.8883 45.717 61.2967 45.7057 59.7051 45.6921C58.8868 45.6852 58.0685 45.6792 57.2502 45.6751C56.4608 45.6711 55.6715 45.6648 54.8822 45.657C54.5807 45.6545 54.2792 45.6527 53.9777 45.6517C53.5561 45.6503 53.1346 45.6459 52.7131 45.6409C52.5251 45.6413 52.5251 45.6413 52.3334 45.6416C51.4886 45.6274 51.4886 45.6274 51.1111 45.3579C50.7302 44.7706 50.7701 44.23 50.7652 43.5496C50.7637 43.4201 50.7622 43.2907 50.7606 43.1573C50.7557 42.7281 50.7519 42.299 50.7481 41.8699C50.7449 41.5728 50.7417 41.2758 50.7384 40.9787C50.7298 40.1959 50.7222 39.4131 50.7148 38.6303C50.707 37.8319 50.6985 37.0335 50.6899 36.235C50.6733 34.6678 50.6577 33.1005 50.6426 31.5332C48.4391 31.5332 46.2444 33.4668 44.7793 34.9277Z" fill="#FF9140"/>
<path d="M60.1838 26.7906C61.8885 27.3701 63.4538 28.222 64.8384 29.373C64.9808 29.4903 65.1232 29.6077 65.2699 29.7286C67.9237 32.0231 69.7163 35.2895 70.1212 38.7947C70.1436 39.3801 70.1217 39.6505 69.8048 40.1641C69.2153 40.7199 68.61 40.6603 67.8451 40.6615C67.7274 40.6623 67.6097 40.663 67.4884 40.6638C67.0989 40.6661 66.7094 40.6671 66.3199 40.668C66.0491 40.6689 65.7783 40.6698 65.5075 40.6707C64.9397 40.6723 64.3718 40.6732 63.8039 40.6737C63.0767 40.6746 62.3495 40.6783 61.6222 40.6827C61.0628 40.6855 60.5035 40.6863 59.9441 40.6866C59.676 40.687 59.4079 40.6883 59.1398 40.6903C58.7645 40.6929 58.3894 40.6926 58.0141 40.6916C57.9036 40.6931 57.7932 40.6945 57.6793 40.696C57.0039 40.6903 56.5788 40.5905 56.0434 40.1738C55.6653 39.6066 55.6903 39.1793 55.6925 38.5233C55.6917 38.4025 55.6909 38.2818 55.6901 38.1574C55.6879 37.7579 55.6881 37.3584 55.6884 36.9588C55.6878 36.6811 55.6872 36.4034 55.6864 36.1257C55.6853 35.5434 55.6853 34.961 55.6861 34.3786C55.687 33.6326 55.6844 32.8868 55.6808 32.1408C55.6786 31.5671 55.6784 30.9935 55.6789 30.4198C55.6788 30.1448 55.678 29.8698 55.6765 29.5948C55.6746 29.21 55.6756 28.8252 55.6774 28.4403C55.6762 28.327 55.675 28.2136 55.6738 28.0968C55.6808 27.4166 55.7783 26.9822 56.1977 26.4413C57.3592 25.8606 59.01 26.4302 60.1838 26.7906ZM58.3579 29.2187C58.3579 32.121 58.3579 35.0233 58.3579 38.0136C61.2602 38.0136 64.1625 38.0136 67.1528 38.0136C66.7412 35.1319 64.7908 32.6606 62.5239 30.9159C61.2958 30.0921 59.8736 29.2187 58.3579 29.2187Z" fill="#FF9140"/>
<path d="M36.7648 68.4861C36.9225 68.4851 37.0801 68.4842 37.2425 68.4832C37.7714 68.4807 38.3002 68.4827 38.8291 68.4846C39.208 68.4838 39.5869 68.4827 39.9658 68.4813C40.8886 68.4788 41.8113 68.4792 42.734 68.481C43.4839 68.4824 44.2338 68.4826 44.9837 68.4819C45.0904 68.4818 45.1972 68.4817 45.3071 68.4816C45.5239 68.4814 45.7408 68.4812 45.9576 68.481C47.9907 68.4792 50.0238 68.4813 52.057 68.4846C53.8015 68.4873 55.546 68.4869 57.2905 68.484C59.3164 68.4807 61.3422 68.4794 63.3681 68.4813C63.5841 68.4815 63.8001 68.4817 64.0162 68.4819C64.1224 68.482 64.2287 68.4821 64.3382 68.4822C65.0872 68.4827 65.8362 68.4818 66.5853 68.4804C67.5934 68.4784 68.6014 68.4798 69.6095 68.4834C69.9799 68.4842 70.3503 68.484 70.7208 68.4826C71.2256 68.4809 71.7302 68.483 72.235 68.4861C72.3823 68.4847 72.5297 68.4834 72.6814 68.4819C73.3374 68.4897 73.6935 68.5072 74.2634 68.8566C74.5996 69.2269 74.6634 69.3819 74.655 69.876C74.6569 69.9922 74.6589 70.1083 74.661 70.228C74.5021 70.7588 74.2579 70.8988 73.787 71.1875C73.2699 71.2786 72.7591 71.2708 72.235 71.2659C71.9986 71.2673 71.9986 71.2673 71.7573 71.2688C71.2284 71.2713 70.6996 71.2693 70.1707 71.2674C69.7918 71.2682 69.4129 71.2693 69.034 71.2707C68.1113 71.2732 67.1886 71.2728 66.2659 71.271C65.516 71.2696 64.7661 71.2694 64.0162 71.2701C63.8561 71.2703 63.8561 71.2703 63.6927 71.2704C63.4759 71.2706 63.2591 71.2708 63.0423 71.271C61.0091 71.2728 58.976 71.2707 56.9429 71.2674C55.1984 71.2647 53.4538 71.2651 51.7093 71.268C49.6835 71.2713 47.6576 71.2726 45.6318 71.2707C45.4157 71.2705 45.1997 71.2703 44.9837 71.2701C44.8774 71.27 44.7711 71.2699 44.6616 71.2698C43.9126 71.2693 43.1636 71.2702 42.4146 71.2716C41.4065 71.2736 40.3984 71.2722 39.3903 71.2686C39.0199 71.2678 38.6495 71.268 38.2791 71.2694C37.7743 71.2711 37.2696 71.269 36.7648 71.2659C36.5438 71.268 36.5438 71.268 36.3184 71.2701C35.6624 71.2623 35.3063 71.2449 34.7365 70.8954C34.4003 70.5251 34.3364 70.3701 34.3449 69.876C34.3429 69.7598 34.3409 69.6437 34.3389 69.524C34.6789 68.3878 35.7935 68.477 36.7648 68.4861Z" fill="#FF9140"/>
<path d="M36.1687 76.4132C36.3012 76.4126 36.4338 76.4121 36.5704 76.4114C36.7889 76.4116 36.7889 76.4116 37.0119 76.4118C37.244 76.4112 37.244 76.4112 37.4808 76.4105C38.0018 76.4091 38.5227 76.4089 39.0437 76.4087C39.4162 76.4079 39.7887 76.4072 40.1613 76.4063C41.175 76.4043 42.1888 76.4033 43.2026 76.4026C43.8355 76.4022 44.4685 76.4015 45.1014 76.4009C46.8538 76.399 48.6061 76.3974 50.3585 76.3969C50.4707 76.3968 50.5828 76.3968 50.6984 76.3968C50.867 76.3967 50.867 76.3967 51.0391 76.3967C51.2669 76.3966 51.4947 76.3965 51.7226 76.3964C51.8356 76.3964 51.9486 76.3964 52.065 76.3963C53.8963 76.3957 55.7275 76.393 57.5587 76.3895C59.4387 76.3858 61.3186 76.3839 63.1986 76.3837C64.2541 76.3835 65.3097 76.3827 66.3653 76.3799C67.3581 76.3772 68.3508 76.377 69.3436 76.3783C69.7082 76.3785 70.0728 76.3778 70.4375 76.3763C70.9348 76.3743 71.432 76.3752 71.9293 76.3768C72.074 76.3756 72.2187 76.3743 72.3677 76.373C73.1604 76.3791 73.721 76.4468 74.4043 76.8964C74.6457 77.3793 74.6661 77.9164 74.5586 78.4394C74.3425 78.763 74.3425 78.763 73.9414 79.0566C73.427 79.1508 72.9169 79.1398 72.3952 79.1349C72.2363 79.1359 72.0775 79.1369 71.9138 79.1379C71.3798 79.1403 70.8458 79.1384 70.3118 79.1364C69.9297 79.1373 69.5475 79.1384 69.1653 79.1397C68.2341 79.1422 67.3029 79.1419 66.3716 79.1401C65.6148 79.1387 64.8581 79.1385 64.1013 79.1392C63.9937 79.1392 63.886 79.1393 63.7751 79.1394C63.5564 79.1396 63.3378 79.1398 63.1191 79.14C61.0678 79.1418 59.0166 79.1398 56.9654 79.1365C55.2049 79.1337 53.4443 79.1342 51.6838 79.137C49.64 79.1403 47.5962 79.1416 45.5523 79.1397C45.3344 79.1395 45.1166 79.1393 44.8987 79.1392C44.7915 79.1391 44.6843 79.139 44.5738 79.1389C43.8178 79.1383 43.0619 79.1392 42.3059 79.1407C41.2887 79.1426 40.2715 79.1412 39.2543 79.1377C38.8804 79.1368 38.5064 79.1371 38.1324 79.1384C37.6232 79.1401 37.1141 79.138 36.6048 79.1349C36.4557 79.1363 36.3067 79.1377 36.1531 79.1391C35.1548 79.1273 35.1548 79.1273 34.6585 78.7624C34.3564 78.3129 34.354 78.0258 34.3805 77.4985C34.4744 77.0459 34.6901 76.8511 35.0586 76.5878C35.4829 76.4464 35.7318 76.414 36.1687 76.4132Z" fill="#FF9140"/>
<path d="M36.1687 60.5207C36.3012 60.5201 36.4338 60.5195 36.5704 60.5189C36.7889 60.5191 36.7889 60.5191 37.0119 60.5193C37.244 60.5186 37.244 60.5186 37.4808 60.5179C38.0018 60.5165 38.5227 60.5163 39.0437 60.5161C39.4162 60.5154 39.7887 60.5146 40.1613 60.5138C41.175 60.5117 42.1888 60.5107 43.2026 60.5101C43.8355 60.5096 44.4685 60.509 45.1014 60.5083C46.8538 60.5064 48.6061 60.5048 50.3585 60.5043C50.4707 60.5042 50.5828 60.5042 50.6984 60.5042C50.867 60.5041 50.867 60.5041 51.0391 60.5041C51.2669 60.504 51.4947 60.5039 51.7226 60.5039C51.8356 60.5038 51.9486 60.5038 52.065 60.5038C53.8963 60.5032 55.7275 60.5005 57.5587 60.4969C59.4387 60.4932 61.3186 60.4913 63.1986 60.4911C64.2541 60.491 65.3097 60.4901 66.3653 60.4873C67.3581 60.4847 68.3508 60.4844 69.3436 60.4858C69.7082 60.4859 70.0728 60.4852 70.4375 60.4837C70.9348 60.4817 71.432 60.4826 71.9293 60.4842C72.074 60.483 72.2187 60.4817 72.3677 60.4805C73.1604 60.4865 73.721 60.5543 74.4043 61.0038C74.6457 61.4867 74.6661 62.0239 74.5586 62.5468C74.3425 62.8705 74.3425 62.8705 73.9414 63.164C73.427 63.2583 72.9169 63.2472 72.3952 63.2424C72.2363 63.2433 72.0775 63.2443 71.9138 63.2453C71.3798 63.2477 70.8458 63.2458 70.3118 63.2438C69.9297 63.2447 69.5475 63.2458 69.1653 63.2471C68.2341 63.2497 67.3029 63.2493 66.3716 63.2475C65.6148 63.2461 64.8581 63.2459 64.1013 63.2466C63.9937 63.2467 63.886 63.2468 63.7751 63.2469C63.5564 63.2471 63.3378 63.2473 63.1191 63.2475C61.0678 63.2492 59.0166 63.2472 56.9654 63.2439C55.2049 63.2411 53.4443 63.2416 51.6838 63.2444C49.64 63.2478 47.5962 63.2491 45.5523 63.2472C45.3344 63.247 45.1166 63.2468 44.8987 63.2466C44.7915 63.2465 44.6843 63.2464 44.5738 63.2463C43.8178 63.2458 43.0619 63.2467 42.3059 63.2481C41.2887 63.25 40.2715 63.2487 39.2543 63.2451C38.8804 63.2443 38.5064 63.2445 38.1324 63.2459C37.6232 63.2475 37.1141 63.2454 36.6048 63.2424C36.4557 63.2437 36.3067 63.2451 36.1531 63.2465C35.1548 63.2347 35.1548 63.2347 34.6585 62.8698C34.3564 62.4203 34.354 62.1332 34.3805 61.6059C34.4744 61.1533 34.6901 60.9585 35.0586 60.6952C35.4829 60.5538 35.7318 60.5214 36.1687 60.5207Z" fill="#FF9140"/>
</g>
<defs>
<clipPath id="clip0_5407_12094">
<rect width="79" height="79" fill="white" transform="translate(15 7)"/>
</clipPath>
</defs>
</svg>
