<svg width="108" height="100" viewBox="0 0 108 100" fill="none" xmlns="http://www.w3.org/2000/svg">
<path d="M103.432 21.034L102.784 19.9586C97.3005 10.8667 87.4131 5.38795 76.9872 6.05466C75.6429 6.13269 74.3062 6.31241 72.9885 6.59232C63.509 8.63813 55.261 15.867 51.8435 25.1256C49.8308 30.5694 49.271 36.8386 45.4456 41.1614C40.4819 46.7854 32.05 46.9601 24.6525 46.7289C17.2549 46.4977 8.80436 46.694 3.85932 52.3395C0.772342 55.8907 -0.211333 60.934 0.0365848 65.6547C0.6977 78.193 9.36684 89.406 20.3792 94.9789C31.3916 100.552 44.3713 101.049 56.4287 98.5974C73.3218 95.1644 89.3885 85.7338 99.044 71.1765C108.699 56.6193 111.144 36.7553 103.432 21.034Z" fill="#FFE7EC"/>
<g clip-path="url(#clip0_5407_12086)">
<g clip-path="url(#clip1_5407_12086)">
<mask id="path-2-outside-1_5407_12086" maskUnits="userSpaceOnUse" x="17" y="0" width="75" height="80" fill="black">
<rect fill="white" x="17" width="75" height="80"/>
<path d="M54.5868 1.00029C54.4779 1.00038 54.369 1.00046 54.2569 1.00055C52.4804 1.00674 50.806 1.13882 49.1036 1.66616C48.9972 1.69878 48.8908 1.73139 48.7811 1.765C43.7249 3.36897 39.7387 6.91445 37.3264 11.54C35.7655 14.6567 35.2341 18.1473 35.5116 21.6041C35.5626 21.7045 35.6135 21.805 35.666 21.9085C35.501 21.9069 35.501 21.9069 35.3326 21.9054C34.2876 21.8962 33.2426 21.8893 32.1976 21.8848C31.6605 21.8824 31.1235 21.8792 30.5865 21.874C29.9668 21.868 29.3473 21.8659 28.7276 21.8639C28.443 21.8603 28.443 21.8603 28.1526 21.8567C26.4857 21.8564 24.9545 22.1483 23.4641 22.8978C23.3604 22.9497 23.2567 23.0016 23.1498 23.0551C20.6337 24.3812 19.2141 26.5578 18.3285 29.1759C18.1021 30.1424 18.0352 31.0931 18.0365 32.0824C18.0358 32.253 18.0358 32.253 18.0351 32.4272C18.0338 32.8051 18.0335 33.183 18.0333 33.5609C18.0326 33.8332 18.0318 34.1056 18.031 34.378C18.0289 35.1158 18.0279 35.8535 18.0273 36.5913C18.0268 37.0532 18.0262 37.5151 18.0255 37.977C18.0234 39.4249 18.0219 40.8727 18.0213 42.3206C18.0206 43.9868 18.0179 45.653 18.0134 47.3192C18.01 48.6105 18.0085 49.9018 18.0083 51.1931C18.0081 51.9628 18.0072 52.7324 18.0045 53.5021C18.0019 54.227 18.0016 54.9519 18.0029 55.6769C18.0031 55.9412 18.0024 56.2056 18.0009 56.4699C17.9896 58.516 18.0749 60.5964 19.0814 62.4407C19.1347 62.5416 19.188 62.6425 19.2428 62.7465C19.7485 63.6654 20.3813 64.4102 21.1473 65.1327C21.2383 65.227 21.3293 65.3214 21.423 65.4186C22.0736 66.0484 22.812 66.451 23.6186 66.8544C23.7212 66.9058 23.8239 66.9572 23.9296 67.0102C25.4941 67.7588 27.1207 67.9019 28.8411 67.8799C28.9708 67.8789 29.1005 67.878 29.2341 67.877C29.5163 67.8748 29.7984 67.8722 30.0805 67.8694C30.7016 67.863 31.3228 67.8585 31.9439 67.8539C32.2785 67.8514 32.613 67.8488 32.9476 67.8461C35.1067 67.8291 37.2658 67.8246 39.4249 67.8194C41.5215 67.8144 43.6179 67.8055 45.7144 67.784C47.3839 67.7669 49.0531 67.7588 50.7226 67.7605C51.603 67.7612 52.4829 67.7577 53.3631 67.7434C57.7085 67.6761 61.0364 68.0884 64.8796 70.1504C65.855 70.6674 66.88 71.0805 67.8989 71.5059C68.1255 71.6031 68.3521 71.7006 68.5784 71.7985C68.7563 71.875 68.9343 71.9515 69.1176 72.0303C70.5787 72.6588 72.0383 73.2904 73.4979 73.9221C73.764 74.0372 74.0302 74.1524 74.2964 74.2676C75.5482 74.8092 76.7999 75.351 78.0515 75.8931C78.623 76.1406 79.1945 76.388 79.766 76.6354C80.0362 76.7524 80.3063 76.8694 80.5764 76.9865C80.7682 77.0696 80.7682 77.0696 80.9639 77.1543C81.0886 77.2084 81.2133 77.2624 81.3418 77.3181C81.7002 77.4731 82.059 77.6273 82.4179 77.7814C82.8495 77.967 83.2788 78.1567 83.7068 78.3504C83.8525 78.4151 83.8525 78.4151 84.0011 78.4811C84.2579 78.5952 84.5138 78.711 84.7697 78.827C85.3167 79.0057 85.7544 79.0214 86.3273 78.9827C86.6362 78.8209 86.6362 78.8209 86.7907 78.5261C86.773 77.5125 86.383 77.08 85.6902 76.4048C85.5048 76.2164 85.3196 76.028 85.1345 75.8394C85.0459 75.7506 84.9572 75.6617 84.8659 75.5702C84.2531 74.9506 83.6941 74.2822 83.1248 73.6242C82.2631 72.6292 81.3929 71.6463 80.496 70.6819C79.6913 69.8131 78.9175 68.9178 78.1412 68.0244C78.2336 68.0214 78.326 68.0184 78.4212 68.0153C82.3571 67.8804 85.6921 67.4821 88.5548 64.5363C90.2314 62.6394 90.9873 60.2029 90.9816 57.7136C90.9819 57.5996 90.9823 57.4856 90.9827 57.3682C90.9836 56.9887 90.9835 56.6093 90.9834 56.2299C90.9838 55.9568 90.9844 55.6837 90.9849 55.4106C90.9863 54.6703 90.9867 53.93 90.9868 53.1898C90.9869 52.7266 90.9872 52.2635 90.9876 51.8004C90.9891 50.1828 90.9897 48.5653 90.9896 46.9477C90.9895 45.443 90.9911 43.9383 90.9935 42.4336C90.9956 41.1393 90.9964 39.845 90.9963 38.5508C90.9962 37.7788 90.9967 37.0069 90.9983 36.235C90.9998 35.5083 90.9998 34.7816 90.9987 34.0549C90.9985 33.7894 90.9989 33.5239 90.9998 33.2584C91.0105 30.0294 90.4834 27.1249 88.1421 24.6861C85.9296 22.6203 83.3194 21.8544 80.3367 21.8787C80.1364 21.8792 79.9361 21.8796 79.7298 21.8801C79.2019 21.8812 78.674 21.8842 78.1461 21.8876C77.6056 21.8907 77.0651 21.8921 76.5245 21.8936C75.4674 21.8969 74.4102 21.902 73.3531 21.9085C73.404 21.808 73.455 21.7076 73.5075 21.6041C73.9049 16.6548 72.5299 11.6662 69.2894 7.81828C66.4562 4.56556 62.9282 2.33429 58.6798 1.36176C58.557 1.33354 58.4342 1.30531 58.3077 1.27623C57.0716 1.02271 55.8458 0.996689 54.5868 1.00029ZM58.8343 3.34034C59.0197 3.39036 59.205 3.44039 59.396 3.49194C63.6876 4.76899 67.3538 7.66593 69.5146 11.5352C71.8325 15.8351 72.3046 20.7446 70.8974 25.419C69.9493 28.3093 68.1731 30.6216 66.0924 32.8163C65.5031 33.4386 64.9525 34.0851 64.4122 34.749C64.2027 35.0061 63.9902 35.2608 63.7738 35.5123C60.9556 38.8317 59.9677 42.647 59.4521 46.8689C58.7895 46.8689 58.1269 46.8689 57.4442 46.8689C57.4442 41.093 57.4442 35.3171 57.4442 29.3662C58.1578 29.2657 58.8714 29.1653 59.6066 29.0618C60.4147 28.7432 60.8993 28.3408 61.3243 27.6028C61.6582 26.699 61.5988 25.7478 61.238 24.8668C61.1185 24.6832 61.1185 24.6832 60.9967 24.4958C60.9457 24.3452 60.8947 24.1945 60.8422 24.0392C60.5719 23.8775 60.5719 23.8775 60.2244 23.7348C60.1067 23.6829 59.9891 23.6309 59.8678 23.5773C58.9722 23.2609 57.9538 23.2884 57.0774 23.6587C56.4036 24.0555 55.9991 24.5225 55.7452 25.2568C55.6401 26.0195 55.6019 26.7708 55.5907 27.5398C54.8772 27.5398 54.1636 27.5398 53.4284 27.5398C53.4262 27.3891 53.424 27.2384 53.4217 27.0832C53.355 24.855 53.355 24.855 52.5016 24.0392C51.7252 23.4338 50.9319 23.3449 49.9616 23.3793C49.4505 23.4455 49.0753 23.6191 48.6403 23.887C48.4874 23.9373 48.3344 23.9875 48.1769 24.0392C48.0128 24.3056 48.0128 24.3056 47.868 24.648C47.8154 24.7624 47.7629 24.8768 47.7087 24.9946C47.4096 25.8229 47.3893 26.773 47.6942 27.6034C48.1208 28.3405 48.6041 28.7431 49.4125 29.0618C50.4829 29.2124 50.4829 29.2124 51.5749 29.3662C51.5749 35.1421 51.5749 40.918 51.5749 46.8689C50.9123 46.8689 50.2497 46.8689 49.567 46.8689C49.5349 46.6093 49.5029 46.3498 49.4699 46.0824C48.9145 41.8603 47.7077 38.4299 44.9333 35.1497C44.8594 35.0622 44.7855 34.9747 44.7093 34.8845C43.928 33.9654 43.1289 33.0672 42.298 32.1913C38.9486 28.5678 37.1522 24.1429 37.3216 19.2052C37.6033 14.2608 39.7269 10.1037 43.4122 6.78047C46.4498 4.18495 50.481 2.81611 54.4709 2.83618C54.7359 2.8373 54.7359 2.8373 55.0063 2.83845C56.3388 2.8566 57.5484 2.97599 58.8343 3.34034ZM87.534 26.9786C89.1463 29.1444 89.1546 31.718 89.1475 34.2906C89.1479 34.5486 89.1484 34.8067 89.1491 35.0647C89.1505 35.759 89.15 36.4533 89.149 37.1476C89.1482 37.8779 89.1489 38.6082 89.1494 39.3386C89.15 40.5643 89.1492 41.79 89.1478 43.0157C89.1461 44.4284 89.1466 45.841 89.1483 47.2537C89.1497 48.4716 89.1499 49.6895 89.1491 50.9074C89.1486 51.6326 89.1486 52.3578 89.1496 53.083C89.1505 53.765 89.1498 54.447 89.1481 55.129C89.1477 55.3777 89.1478 55.6265 89.1485 55.8753C89.1558 58.7867 88.8223 61.3788 86.7967 63.6452C85.1723 65.1863 83.1149 65.9333 80.8954 65.946C80.6736 65.9493 80.6736 65.9493 80.4474 65.9527C79.8185 65.9621 79.1896 65.9682 78.5607 65.9746C78.1 65.9797 77.6395 65.9866 77.1788 65.9935C76.9657 65.9947 76.9657 65.9947 76.7483 65.996C76.6158 65.998 76.4833 66 76.3467 66.0021C76.2306 66.0033 76.1145 66.0044 75.9949 66.0055C75.6268 66.0512 75.3727 66.1705 75.0521 66.3502C74.9941 66.9829 74.9792 67.3117 75.3519 67.8431C75.5523 68.0411 75.5523 68.0411 75.7568 68.2432C75.9007 68.3894 76.0445 68.5356 76.1882 68.682C76.323 68.8165 76.4577 68.9511 76.5966 69.0898C76.7724 69.2814 76.9464 69.4747 77.1179 69.6701C77.2025 69.7658 77.2871 69.8615 77.3743 69.9602C77.6177 70.2386 77.8601 70.5177 78.102 70.7973C78.9616 71.7904 79.8299 72.7715 80.7253 73.7336C81.2111 74.2584 81.6853 74.7928 82.157 75.3299C82.0551 75.3801 81.9531 75.4304 81.8481 75.4821C81.4586 75.3497 81.4586 75.3497 81.0119 75.1391C80.8364 75.0604 80.6609 74.9816 80.4802 74.9006C80.3857 74.8575 80.2913 74.8145 80.1939 74.7702C79.789 74.5858 79.3828 74.4042 78.9767 74.2225C78.7627 74.1267 78.5488 74.0308 78.335 73.9348C77.2327 73.4406 76.1237 72.9622 75.0135 72.4857C74.5981 72.3072 74.1828 72.1286 73.7676 71.95C73.6609 71.9042 73.5542 71.8583 73.4442 71.8111C72.5977 71.447 71.752 71.0811 70.9065 70.7146C68.2303 69.5547 65.5525 68.3984 62.8694 67.2539C62.7455 67.201 62.6216 67.148 62.4939 67.0935C62.1465 66.9452 61.7991 66.7972 61.4516 66.6493C61.3491 66.6055 61.2466 66.5617 61.141 66.5166C60.2552 66.1404 59.5643 66.0238 58.6057 66.0258C58.4703 66.0255 58.335 66.0252 58.1956 66.0249C57.7403 66.024 57.285 66.0241 56.8297 66.0242C56.504 66.0238 56.1782 66.0233 55.8525 66.0226C55.1499 66.0214 54.4472 66.0207 53.7446 66.0202C52.6326 66.0193 51.5207 66.0168 50.4087 66.0139C50.028 66.0129 49.6474 66.0119 49.2667 66.011C48.9807 66.0103 48.9807 66.0103 48.6889 66.0095C46.0997 66.0031 43.5106 65.9981 40.9215 65.9962C39.1757 65.995 37.43 65.9915 35.6843 65.9857C34.7607 65.9827 33.8372 65.9808 32.9136 65.9815C32.0437 65.9822 31.174 65.9801 30.3042 65.9759C29.9859 65.9749 29.6676 65.9748 29.3493 65.9759C26.5706 65.9846 24.3264 65.5296 22.2098 63.6166C20.0549 61.3123 19.8634 58.4862 19.8717 55.5097C19.8712 55.252 19.8707 54.9943 19.87 54.7365C19.8686 54.0422 19.8692 53.3479 19.8701 52.6535C19.8709 51.9233 19.8702 51.193 19.8697 50.4628C19.8691 49.2368 19.8699 48.0108 19.8714 46.7848C19.873 45.3722 19.8725 43.9597 19.8708 42.5471C19.8694 41.3293 19.8692 40.1116 19.87 38.8938C19.8705 38.1687 19.8706 37.4435 19.8695 36.7184C19.8686 36.0361 19.8693 35.3539 19.871 34.6717C19.8714 34.423 19.8713 34.1743 19.8707 33.9256C19.8635 31.0939 20.0768 28.5241 22.074 26.3222C22.2003 26.1792 22.2003 26.1792 22.3292 26.0333C23.6663 24.6135 25.4539 23.873 27.3999 23.6821C27.9453 23.6653 28.4873 23.6661 29.0329 23.6754C29.2287 23.6763 29.4245 23.6771 29.6262 23.678C30.1386 23.6808 30.651 23.6862 31.1634 23.693C31.6894 23.6993 32.2155 23.7021 32.7417 23.7051C33.768 23.7118 34.7942 23.7219 35.8205 23.7348C35.8501 23.834 35.8797 23.9332 35.9103 24.0354C36.0471 24.4915 36.1854 24.9473 36.3237 25.4031C36.3935 25.637 36.3935 25.637 36.4648 25.8757C37.4939 29.2518 39.5779 31.9069 41.985 34.4685C42.6944 35.2264 43.3641 36.0097 44.0066 36.8239C44.1019 36.9444 44.1019 36.9444 44.1992 37.0675C46.4421 39.9368 47.7135 43.3701 47.7135 47.0211C47.6315 47.0562 47.5495 47.0913 47.465 47.1275C46.5342 47.551 45.9478 48.045 45.5512 48.9997C45.4462 50.0395 45.4152 50.9937 46.0145 51.8914C46.0655 52.0421 46.1165 52.1928 46.169 52.348C46.0702 52.4893 45.9715 52.6306 45.8697 52.7761C45.3487 53.6246 45.4078 54.591 45.5512 55.5442C45.9557 56.5414 46.5865 57.0819 47.5591 57.5228C47.5336 57.6201 47.5081 57.7174 47.4819 57.8176C47.2664 59.118 47.3997 60.0667 48.1769 61.1755C48.8638 61.8185 49.5868 61.9554 50.5074 61.9634C50.7013 61.9654 50.8952 61.9673 51.0949 61.9694C51.307 61.9706 51.5191 61.9717 51.7312 61.9728C51.8918 61.9737 51.8918 61.9737 52.0557 61.9746C52.6229 61.9778 53.1902 61.98 53.7575 61.9814C54.341 61.9831 54.9245 61.9883 55.5081 61.9944C55.9587 61.9984 56.4094 61.9996 56.8601 62.0002C57.075 62.0009 57.29 62.0027 57.505 62.0055C58.7331 62.0207 59.646 62.002 60.6878 61.3277C60.9719 61.018 60.9719 61.018 61.1415 60.7094C61.2296 60.5561 61.2296 60.5561 61.3195 60.3997C61.556 59.9124 61.6356 59.521 61.6338 58.9877C61.6342 58.8735 61.6346 58.7593 61.635 58.6417C61.613 58.2571 61.5449 57.8983 61.46 57.5228C61.5532 57.4692 61.6464 57.4156 61.7424 57.3605C62.5166 56.8892 63.2257 56.4546 63.4679 55.5442C63.6119 54.2784 63.5526 53.4094 62.8501 52.348C62.9298 52.0133 62.9298 52.0133 63.159 51.7392C63.5889 50.8499 63.5828 49.9658 63.4679 48.9997C63.1438 48.1277 62.5952 47.6158 61.7689 47.1733C61.616 47.1231 61.4631 47.0729 61.3056 47.0211C61.6926 42.0778 63.4462 38.351 66.8672 34.7437C67.4564 34.1212 68.0071 33.4747 68.5475 32.8108C68.7569 32.5537 68.9695 32.299 69.1858 32.0475C70.9779 29.9367 72.0691 27.5865 72.839 24.956C72.8739 24.8378 72.9089 24.7197 72.9448 24.5979C73.0298 24.3103 73.1142 24.0226 73.1986 23.7348C74.3319 23.7206 75.4653 23.7099 76.5987 23.7033C77.1252 23.7001 77.6516 23.6959 78.1781 23.6889C78.7858 23.6809 79.3935 23.6781 80.0013 23.6754C80.1869 23.6723 80.3725 23.6691 80.5637 23.6659C83.4707 23.6651 85.6893 24.8052 87.534 26.9786ZM59.761 25.8656C59.8769 26.3288 59.8769 26.3288 59.761 26.7788C59.4894 27.1325 59.2796 27.332 58.8633 27.5017C58.389 27.5551 57.9209 27.5488 57.4442 27.5398C57.3353 26.3977 57.3353 26.3977 57.7821 25.3805C58.1887 25.0898 58.1887 25.0898 58.6026 25.0095C59.1754 25.1506 59.4073 25.4075 59.761 25.8656ZM51.5749 25.8656C51.6392 26.4295 51.6201 26.9749 51.5749 27.5398C50.7288 27.5725 50.1444 27.5228 49.4415 27.0451C49.1542 26.6279 49.1782 26.3575 49.2581 25.8656C49.6118 25.4075 49.8437 25.1506 50.4165 25.0095C51.0205 25.1583 51.2216 25.3583 51.5749 25.8656ZM55.5907 29.3662C55.5907 35.1421 55.5907 40.918 55.5907 46.8689C54.8772 46.8689 54.1636 46.8689 53.4284 46.8689C53.4284 41.093 53.4284 35.3171 53.4284 29.3662C54.142 29.3662 54.8555 29.3662 55.5907 29.3662ZM61.7689 49.4563C61.9105 49.989 61.9105 49.989 61.7689 50.5217C61.3446 51.0732 61.1167 51.2626 60.4164 51.3793C60.1878 51.3838 59.959 51.3841 59.7303 51.3811C59.5421 51.3831 59.5421 51.3831 59.3502 51.3852C58.9368 51.3885 58.5237 51.3863 58.1103 51.3837C57.8224 51.3842 57.5344 51.385 57.2465 51.3859C56.6435 51.387 56.0406 51.3854 55.4376 51.3819C54.6653 51.3775 53.8931 51.38 53.1207 51.3846C52.5263 51.3873 51.9319 51.3865 51.3375 51.3845C51.0528 51.384 50.768 51.3846 50.4833 51.3864C50.085 51.3883 49.6871 51.3853 49.2889 51.3811C49.1129 51.3834 49.1129 51.3834 48.9333 51.3858C48.3257 51.3738 48.0481 51.3024 47.5638 50.9293C47.2114 50.5332 47.2114 50.5332 47.144 49.989C47.2608 49.403 47.4262 49.2142 47.8972 48.8525C48.3838 48.579 48.8863 48.5894 49.43 48.5968C49.5522 48.5955 49.6744 48.5942 49.8003 48.5928C50.2021 48.5894 50.6036 48.5916 51.0054 48.5942C51.2858 48.5937 51.5662 48.593 51.8466 48.592C52.4335 48.5909 53.0203 48.5925 53.6071 48.5961C54.3582 48.6004 55.109 48.5979 55.8601 48.5934C56.4389 48.5906 57.0176 48.5915 57.5964 48.5935C57.8733 48.594 58.1501 48.5933 58.427 48.5916C58.8145 48.5896 59.2016 48.5926 59.5891 48.5968C59.7027 48.5953 59.8164 48.5937 59.9334 48.5921C60.8127 48.6099 61.1847 48.8482 61.7689 49.4563ZM61.46 53.5656C61.8217 54.1002 61.8456 54.306 61.7689 54.9354C61.4367 55.4434 61.274 55.656 60.6878 55.8486C60.2948 55.8647 59.9061 55.8725 59.5131 55.8731C59.3938 55.8739 59.2744 55.8746 59.1515 55.8754C58.7565 55.8776 58.3616 55.8787 57.9667 55.8795C57.6922 55.8804 57.4177 55.8812 57.1431 55.8821C56.5674 55.8837 55.9917 55.8846 55.416 55.8851C54.6786 55.886 53.9413 55.8896 53.204 55.894C52.6369 55.8968 52.0698 55.8976 51.5026 55.8978C51.2308 55.8983 50.959 55.8995 50.6872 55.9015C50.3068 55.9041 49.9264 55.9038 49.546 55.9028C49.3779 55.9049 49.3779 55.9049 49.2065 55.9071C48.5269 55.9016 48.0975 55.8061 47.5591 55.392C47.1974 54.8574 47.1735 54.6516 47.2502 54.0222C47.5824 53.5142 47.7451 53.3016 48.3314 53.109C48.7243 53.0929 49.113 53.0851 49.506 53.0845C49.6253 53.0837 49.7447 53.083 49.8676 53.0822C50.2626 53.08 50.6575 53.0789 51.0524 53.0781C51.3269 53.0772 51.6015 53.0764 51.876 53.0755C52.4517 53.0739 53.0274 53.073 53.6031 53.0725C54.3405 53.0716 55.0778 53.068 55.8151 53.0636C56.3822 53.0608 56.9493 53.06 57.5165 53.0598C57.7883 53.0593 58.0601 53.0581 58.3319 53.0561C58.7124 53.0535 59.0927 53.0538 59.4732 53.0548C59.5852 53.0534 59.6972 53.052 59.8127 53.0505C60.4922 53.056 60.9216 53.1515 61.46 53.5656ZM59.761 58.2837C59.952 58.8367 59.9687 59.0816 59.7224 59.6155C59.4562 59.99 59.4562 59.99 58.9888 60.2623C58.5854 60.3107 58.5854 60.3107 58.126 60.3065C57.8608 60.3095 57.8608 60.3095 57.5902 60.3124C57.3991 60.3128 57.2079 60.3131 57.011 60.3134C56.8146 60.3145 56.6183 60.3155 56.416 60.3165C56.0002 60.3181 55.5845 60.3189 55.1688 60.3187C54.6371 60.3187 54.1055 60.3228 53.5739 60.3281C53.0656 60.3323 52.5574 60.3321 52.0491 60.3325C51.8586 60.3347 51.6681 60.3368 51.4718 60.3391C51.2051 60.3377 51.2051 60.3377 50.933 60.3363C50.777 60.3367 50.621 60.3371 50.4602 60.3376C49.9112 60.2415 49.6529 60.0348 49.2581 59.6535C49.0671 59.1006 49.0504 58.8557 49.2967 58.3218C49.5629 57.9473 49.5629 57.9473 50.0304 57.675C50.4338 57.6266 50.4338 57.6266 50.8931 57.6307C51.1583 57.6278 51.1583 57.6278 51.4289 57.6249C51.62 57.6245 51.8112 57.6242 52.0081 57.6238C52.2045 57.6228 52.4008 57.6218 52.6031 57.6208C53.0189 57.6192 53.4346 57.6184 53.8503 57.6186C54.382 57.6186 54.9136 57.6144 55.4452 57.6092C55.9535 57.605 56.4617 57.6052 56.97 57.6048C57.1605 57.6026 57.351 57.6004 57.5473 57.5982C57.814 57.5996 57.814 57.5996 58.0861 57.601C58.2421 57.6006 58.3981 57.6001 58.5589 57.5997C59.1079 57.6958 59.3662 57.9025 59.761 58.2837Z"/>
</mask>
<path d="M54.5868 1.00029C54.4779 1.00038 54.369 1.00046 54.2569 1.00055C52.4804 1.00674 50.806 1.13882 49.1036 1.66616C48.9972 1.69878 48.8908 1.73139 48.7811 1.765C43.7249 3.36897 39.7387 6.91445 37.3264 11.54C35.7655 14.6567 35.2341 18.1473 35.5116 21.6041C35.5626 21.7045 35.6135 21.805 35.666 21.9085C35.501 21.9069 35.501 21.9069 35.3326 21.9054C34.2876 21.8962 33.2426 21.8893 32.1976 21.8848C31.6605 21.8824 31.1235 21.8792 30.5865 21.874C29.9668 21.868 29.3473 21.8659 28.7276 21.8639C28.443 21.8603 28.443 21.8603 28.1526 21.8567C26.4857 21.8564 24.9545 22.1483 23.4641 22.8978C23.3604 22.9497 23.2567 23.0016 23.1498 23.0551C20.6337 24.3812 19.2141 26.5578 18.3285 29.1759C18.1021 30.1424 18.0352 31.0931 18.0365 32.0824C18.0358 32.253 18.0358 32.253 18.0351 32.4272C18.0338 32.8051 18.0335 33.183 18.0333 33.5609C18.0326 33.8332 18.0318 34.1056 18.031 34.378C18.0289 35.1158 18.0279 35.8535 18.0273 36.5913C18.0268 37.0532 18.0262 37.5151 18.0255 37.977C18.0234 39.4249 18.0219 40.8727 18.0213 42.3206C18.0206 43.9868 18.0179 45.653 18.0134 47.3192C18.01 48.6105 18.0085 49.9018 18.0083 51.1931C18.0081 51.9628 18.0072 52.7324 18.0045 53.5021C18.0019 54.227 18.0016 54.9519 18.0029 55.6769C18.0031 55.9412 18.0024 56.2056 18.0009 56.4699C17.9896 58.516 18.0749 60.5964 19.0814 62.4407C19.1347 62.5416 19.188 62.6425 19.2428 62.7465C19.7485 63.6654 20.3813 64.4102 21.1473 65.1327C21.2383 65.227 21.3293 65.3214 21.423 65.4186C22.0736 66.0484 22.812 66.451 23.6186 66.8544C23.7212 66.9058 23.8239 66.9572 23.9296 67.0102C25.4941 67.7588 27.1207 67.9019 28.8411 67.8799C28.9708 67.8789 29.1005 67.878 29.2341 67.877C29.5163 67.8748 29.7984 67.8722 30.0805 67.8694C30.7016 67.863 31.3228 67.8585 31.9439 67.8539C32.2785 67.8514 32.613 67.8488 32.9476 67.8461C35.1067 67.8291 37.2658 67.8246 39.4249 67.8194C41.5215 67.8144 43.6179 67.8055 45.7144 67.784C47.3839 67.7669 49.0531 67.7588 50.7226 67.7605C51.603 67.7612 52.4829 67.7577 53.3631 67.7434C57.7085 67.6761 61.0364 68.0884 64.8796 70.1504C65.855 70.6674 66.88 71.0805 67.8989 71.5059C68.1255 71.6031 68.3521 71.7006 68.5784 71.7985C68.7563 71.875 68.9343 71.9515 69.1176 72.0303C70.5787 72.6588 72.0383 73.2904 73.4979 73.9221C73.764 74.0372 74.0302 74.1524 74.2964 74.2676C75.5482 74.8092 76.7999 75.351 78.0515 75.8931C78.623 76.1406 79.1945 76.388 79.766 76.6354C80.0362 76.7524 80.3063 76.8694 80.5764 76.9865C80.7682 77.0696 80.7682 77.0696 80.9639 77.1543C81.0886 77.2084 81.2133 77.2624 81.3418 77.3181C81.7002 77.4731 82.059 77.6273 82.4179 77.7814C82.8495 77.967 83.2788 78.1567 83.7068 78.3504C83.8525 78.4151 83.8525 78.4151 84.0011 78.4811C84.2579 78.5952 84.5138 78.711 84.7697 78.827C85.3167 79.0057 85.7544 79.0214 86.3273 78.9827C86.6362 78.8209 86.6362 78.8209 86.7907 78.5261C86.773 77.5125 86.383 77.08 85.6902 76.4048C85.5048 76.2164 85.3196 76.028 85.1345 75.8394C85.0459 75.7506 84.9572 75.6617 84.8659 75.5702C84.2531 74.9506 83.6941 74.2822 83.1248 73.6242C82.2631 72.6292 81.3929 71.6463 80.496 70.6819C79.6913 69.8131 78.9175 68.9178 78.1412 68.0244C78.2336 68.0214 78.326 68.0184 78.4212 68.0153C82.3571 67.8804 85.6921 67.4821 88.5548 64.5363C90.2314 62.6394 90.9873 60.2029 90.9816 57.7136C90.9819 57.5996 90.9823 57.4856 90.9827 57.3682C90.9836 56.9887 90.9835 56.6093 90.9834 56.2299C90.9838 55.9568 90.9844 55.6837 90.9849 55.4106C90.9863 54.6703 90.9867 53.93 90.9868 53.1898C90.9869 52.7266 90.9872 52.2635 90.9876 51.8004C90.9891 50.1828 90.9897 48.5653 90.9896 46.9477C90.9895 45.443 90.9911 43.9383 90.9935 42.4336C90.9956 41.1393 90.9964 39.845 90.9963 38.5508C90.9962 37.7788 90.9967 37.0069 90.9983 36.235C90.9998 35.5083 90.9998 34.7816 90.9987 34.0549C90.9985 33.7894 90.9989 33.5239 90.9998 33.2584C91.0105 30.0294 90.4834 27.1249 88.1421 24.6861C85.9296 22.6203 83.3194 21.8544 80.3367 21.8787C80.1364 21.8792 79.9361 21.8796 79.7298 21.8801C79.2019 21.8812 78.674 21.8842 78.1461 21.8876C77.6056 21.8907 77.0651 21.8921 76.5245 21.8936C75.4674 21.8969 74.4102 21.902 73.3531 21.9085C73.404 21.808 73.455 21.7076 73.5075 21.6041C73.9049 16.6548 72.5299 11.6662 69.2894 7.81828C66.4562 4.56556 62.9282 2.33429 58.6798 1.36176C58.557 1.33354 58.4342 1.30531 58.3077 1.27623C57.0716 1.02271 55.8458 0.996689 54.5868 1.00029ZM58.8343 3.34034C59.0197 3.39036 59.205 3.44039 59.396 3.49194C63.6876 4.76899 67.3538 7.66593 69.5146 11.5352C71.8325 15.8351 72.3046 20.7446 70.8974 25.419C69.9493 28.3093 68.1731 30.6216 66.0924 32.8163C65.5031 33.4386 64.9525 34.0851 64.4122 34.749C64.2027 35.0061 63.9902 35.2608 63.7738 35.5123C60.9556 38.8317 59.9677 42.647 59.4521 46.8689C58.7895 46.8689 58.1269 46.8689 57.4442 46.8689C57.4442 41.093 57.4442 35.3171 57.4442 29.3662C58.1578 29.2657 58.8714 29.1653 59.6066 29.0618C60.4147 28.7432 60.8993 28.3408 61.3243 27.6028C61.6582 26.699 61.5988 25.7478 61.238 24.8668C61.1185 24.6832 61.1185 24.6832 60.9967 24.4958C60.9457 24.3452 60.8947 24.1945 60.8422 24.0392C60.5719 23.8775 60.5719 23.8775 60.2244 23.7348C60.1067 23.6829 59.9891 23.6309 59.8678 23.5773C58.9722 23.2609 57.9538 23.2884 57.0774 23.6587C56.4036 24.0555 55.9991 24.5225 55.7452 25.2568C55.6401 26.0195 55.6019 26.7708 55.5907 27.5398C54.8772 27.5398 54.1636 27.5398 53.4284 27.5398C53.4262 27.3891 53.424 27.2384 53.4217 27.0832C53.355 24.855 53.355 24.855 52.5016 24.0392C51.7252 23.4338 50.9319 23.3449 49.9616 23.3793C49.4505 23.4455 49.0753 23.6191 48.6403 23.887C48.4874 23.9373 48.3344 23.9875 48.1769 24.0392C48.0128 24.3056 48.0128 24.3056 47.868 24.648C47.8154 24.7624 47.7629 24.8768 47.7087 24.9946C47.4096 25.8229 47.3893 26.773 47.6942 27.6034C48.1208 28.3405 48.6041 28.7431 49.4125 29.0618C50.4829 29.2124 50.4829 29.2124 51.5749 29.3662C51.5749 35.1421 51.5749 40.918 51.5749 46.8689C50.9123 46.8689 50.2497 46.8689 49.567 46.8689C49.5349 46.6093 49.5029 46.3498 49.4699 46.0824C48.9145 41.8603 47.7077 38.4299 44.9333 35.1497C44.8594 35.0622 44.7855 34.9747 44.7093 34.8845C43.928 33.9654 43.1289 33.0672 42.298 32.1913C38.9486 28.5678 37.1522 24.1429 37.3216 19.2052C37.6033 14.2608 39.7269 10.1037 43.4122 6.78047C46.4498 4.18495 50.481 2.81611 54.4709 2.83618C54.7359 2.8373 54.7359 2.8373 55.0063 2.83845C56.3388 2.8566 57.5484 2.97599 58.8343 3.34034ZM87.534 26.9786C89.1463 29.1444 89.1546 31.718 89.1475 34.2906C89.1479 34.5486 89.1484 34.8067 89.1491 35.0647C89.1505 35.759 89.15 36.4533 89.149 37.1476C89.1482 37.8779 89.1489 38.6082 89.1494 39.3386C89.15 40.5643 89.1492 41.79 89.1478 43.0157C89.1461 44.4284 89.1466 45.841 89.1483 47.2537C89.1497 48.4716 89.1499 49.6895 89.1491 50.9074C89.1486 51.6326 89.1486 52.3578 89.1496 53.083C89.1505 53.765 89.1498 54.447 89.1481 55.129C89.1477 55.3777 89.1478 55.6265 89.1485 55.8753C89.1558 58.7867 88.8223 61.3788 86.7967 63.6452C85.1723 65.1863 83.1149 65.9333 80.8954 65.946C80.6736 65.9493 80.6736 65.9493 80.4474 65.9527C79.8185 65.9621 79.1896 65.9682 78.5607 65.9746C78.1 65.9797 77.6395 65.9866 77.1788 65.9935C76.9657 65.9947 76.9657 65.9947 76.7483 65.996C76.6158 65.998 76.4833 66 76.3467 66.0021C76.2306 66.0033 76.1145 66.0044 75.9949 66.0055C75.6268 66.0512 75.3727 66.1705 75.0521 66.3502C74.9941 66.9829 74.9792 67.3117 75.3519 67.8431C75.5523 68.0411 75.5523 68.0411 75.7568 68.2432C75.9007 68.3894 76.0445 68.5356 76.1882 68.682C76.323 68.8165 76.4577 68.9511 76.5966 69.0898C76.7724 69.2814 76.9464 69.4747 77.1179 69.6701C77.2025 69.7658 77.2871 69.8615 77.3743 69.9602C77.6177 70.2386 77.8601 70.5177 78.102 70.7973C78.9616 71.7904 79.8299 72.7715 80.7253 73.7336C81.2111 74.2584 81.6853 74.7928 82.157 75.3299C82.0551 75.3801 81.9531 75.4304 81.8481 75.4821C81.4586 75.3497 81.4586 75.3497 81.0119 75.1391C80.8364 75.0604 80.6609 74.9816 80.4802 74.9006C80.3857 74.8575 80.2913 74.8145 80.1939 74.7702C79.789 74.5858 79.3828 74.4042 78.9767 74.2225C78.7627 74.1267 78.5488 74.0308 78.335 73.9348C77.2327 73.4406 76.1237 72.9622 75.0135 72.4857C74.5981 72.3072 74.1828 72.1286 73.7676 71.95C73.6609 71.9042 73.5542 71.8583 73.4442 71.8111C72.5977 71.447 71.752 71.0811 70.9065 70.7146C68.2303 69.5547 65.5525 68.3984 62.8694 67.2539C62.7455 67.201 62.6216 67.148 62.4939 67.0935C62.1465 66.9452 61.7991 66.7972 61.4516 66.6493C61.3491 66.6055 61.2466 66.5617 61.141 66.5166C60.2552 66.1404 59.5643 66.0238 58.6057 66.0258C58.4703 66.0255 58.335 66.0252 58.1956 66.0249C57.7403 66.024 57.285 66.0241 56.8297 66.0242C56.504 66.0238 56.1782 66.0233 55.8525 66.0226C55.1499 66.0214 54.4472 66.0207 53.7446 66.0202C52.6326 66.0193 51.5207 66.0168 50.4087 66.0139C50.028 66.0129 49.6474 66.0119 49.2667 66.011C48.9807 66.0103 48.9807 66.0103 48.6889 66.0095C46.0997 66.0031 43.5106 65.9981 40.9215 65.9962C39.1757 65.995 37.43 65.9915 35.6843 65.9857C34.7607 65.9827 33.8372 65.9808 32.9136 65.9815C32.0437 65.9822 31.174 65.9801 30.3042 65.9759C29.9859 65.9749 29.6676 65.9748 29.3493 65.9759C26.5706 65.9846 24.3264 65.5296 22.2098 63.6166C20.0549 61.3123 19.8634 58.4862 19.8717 55.5097C19.8712 55.252 19.8707 54.9943 19.87 54.7365C19.8686 54.0422 19.8692 53.3479 19.8701 52.6535C19.8709 51.9233 19.8702 51.193 19.8697 50.4628C19.8691 49.2368 19.8699 48.0108 19.8714 46.7848C19.873 45.3722 19.8725 43.9597 19.8708 42.5471C19.8694 41.3293 19.8692 40.1116 19.87 38.8938C19.8705 38.1687 19.8706 37.4435 19.8695 36.7184C19.8686 36.0361 19.8693 35.3539 19.871 34.6717C19.8714 34.423 19.8713 34.1743 19.8707 33.9256C19.8635 31.0939 20.0768 28.5241 22.074 26.3222C22.2003 26.1792 22.2003 26.1792 22.3292 26.0333C23.6663 24.6135 25.4539 23.873 27.3999 23.6821C27.9453 23.6653 28.4873 23.6661 29.0329 23.6754C29.2287 23.6763 29.4245 23.6771 29.6262 23.678C30.1386 23.6808 30.651 23.6862 31.1634 23.693C31.6894 23.6993 32.2155 23.7021 32.7417 23.7051C33.768 23.7118 34.7942 23.7219 35.8205 23.7348C35.8501 23.834 35.8797 23.9332 35.9103 24.0354C36.0471 24.4915 36.1854 24.9473 36.3237 25.4031C36.3935 25.637 36.3935 25.637 36.4648 25.8757C37.4939 29.2518 39.5779 31.9069 41.985 34.4685C42.6944 35.2264 43.3641 36.0097 44.0066 36.8239C44.1019 36.9444 44.1019 36.9444 44.1992 37.0675C46.4421 39.9368 47.7135 43.3701 47.7135 47.0211C47.6315 47.0562 47.5495 47.0913 47.465 47.1275C46.5342 47.551 45.9478 48.045 45.5512 48.9997C45.4462 50.0395 45.4152 50.9937 46.0145 51.8914C46.0655 52.0421 46.1165 52.1928 46.169 52.348C46.0702 52.4893 45.9715 52.6306 45.8697 52.7761C45.3487 53.6246 45.4078 54.591 45.5512 55.5442C45.9557 56.5414 46.5865 57.0819 47.5591 57.5228C47.5336 57.6201 47.5081 57.7174 47.4819 57.8176C47.2664 59.118 47.3997 60.0667 48.1769 61.1755C48.8638 61.8185 49.5868 61.9554 50.5074 61.9634C50.7013 61.9654 50.8952 61.9673 51.0949 61.9694C51.307 61.9706 51.5191 61.9717 51.7312 61.9728C51.8918 61.9737 51.8918 61.9737 52.0557 61.9746C52.6229 61.9778 53.1902 61.98 53.7575 61.9814C54.341 61.9831 54.9245 61.9883 55.5081 61.9944C55.9587 61.9984 56.4094 61.9996 56.8601 62.0002C57.075 62.0009 57.29 62.0027 57.505 62.0055C58.7331 62.0207 59.646 62.002 60.6878 61.3277C60.9719 61.018 60.9719 61.018 61.1415 60.7094C61.2296 60.5561 61.2296 60.5561 61.3195 60.3997C61.556 59.9124 61.6356 59.521 61.6338 58.9877C61.6342 58.8735 61.6346 58.7593 61.635 58.6417C61.613 58.2571 61.5449 57.8983 61.46 57.5228C61.5532 57.4692 61.6464 57.4156 61.7424 57.3605C62.5166 56.8892 63.2257 56.4546 63.4679 55.5442C63.6119 54.2784 63.5526 53.4094 62.8501 52.348C62.9298 52.0133 62.9298 52.0133 63.159 51.7392C63.5889 50.8499 63.5828 49.9658 63.4679 48.9997C63.1438 48.1277 62.5952 47.6158 61.7689 47.1733C61.616 47.1231 61.4631 47.0729 61.3056 47.0211C61.6926 42.0778 63.4462 38.351 66.8672 34.7437C67.4564 34.1212 68.0071 33.4747 68.5475 32.8108C68.7569 32.5537 68.9695 32.299 69.1858 32.0475C70.9779 29.9367 72.0691 27.5865 72.839 24.956C72.8739 24.8378 72.9089 24.7197 72.9448 24.5979C73.0298 24.3103 73.1142 24.0226 73.1986 23.7348C74.3319 23.7206 75.4653 23.7099 76.5987 23.7033C77.1252 23.7001 77.6516 23.6959 78.1781 23.6889C78.7858 23.6809 79.3935 23.6781 80.0013 23.6754C80.1869 23.6723 80.3725 23.6691 80.5637 23.6659C83.4707 23.6651 85.6893 24.8052 87.534 26.9786ZM59.761 25.8656C59.8769 26.3288 59.8769 26.3288 59.761 26.7788C59.4894 27.1325 59.2796 27.332 58.8633 27.5017C58.389 27.5551 57.9209 27.5488 57.4442 27.5398C57.3353 26.3977 57.3353 26.3977 57.7821 25.3805C58.1887 25.0898 58.1887 25.0898 58.6026 25.0095C59.1754 25.1506 59.4073 25.4075 59.761 25.8656ZM51.5749 25.8656C51.6392 26.4295 51.6201 26.9749 51.5749 27.5398C50.7288 27.5725 50.1444 27.5228 49.4415 27.0451C49.1542 26.6279 49.1782 26.3575 49.2581 25.8656C49.6118 25.4075 49.8437 25.1506 50.4165 25.0095C51.0205 25.1583 51.2216 25.3583 51.5749 25.8656ZM55.5907 29.3662C55.5907 35.1421 55.5907 40.918 55.5907 46.8689C54.8772 46.8689 54.1636 46.8689 53.4284 46.8689C53.4284 41.093 53.4284 35.3171 53.4284 29.3662C54.142 29.3662 54.8555 29.3662 55.5907 29.3662ZM61.7689 49.4563C61.9105 49.989 61.9105 49.989 61.7689 50.5217C61.3446 51.0732 61.1167 51.2626 60.4164 51.3793C60.1878 51.3838 59.959 51.3841 59.7303 51.3811C59.5421 51.3831 59.5421 51.3831 59.3502 51.3852C58.9368 51.3885 58.5237 51.3863 58.1103 51.3837C57.8224 51.3842 57.5344 51.385 57.2465 51.3859C56.6435 51.387 56.0406 51.3854 55.4376 51.3819C54.6653 51.3775 53.8931 51.38 53.1207 51.3846C52.5263 51.3873 51.9319 51.3865 51.3375 51.3845C51.0528 51.384 50.768 51.3846 50.4833 51.3864C50.085 51.3883 49.6871 51.3853 49.2889 51.3811C49.1129 51.3834 49.1129 51.3834 48.9333 51.3858C48.3257 51.3738 48.0481 51.3024 47.5638 50.9293C47.2114 50.5332 47.2114 50.5332 47.144 49.989C47.2608 49.403 47.4262 49.2142 47.8972 48.8525C48.3838 48.579 48.8863 48.5894 49.43 48.5968C49.5522 48.5955 49.6744 48.5942 49.8003 48.5928C50.2021 48.5894 50.6036 48.5916 51.0054 48.5942C51.2858 48.5937 51.5662 48.593 51.8466 48.592C52.4335 48.5909 53.0203 48.5925 53.6071 48.5961C54.3582 48.6004 55.109 48.5979 55.8601 48.5934C56.4389 48.5906 57.0176 48.5915 57.5964 48.5935C57.8733 48.594 58.1501 48.5933 58.427 48.5916C58.8145 48.5896 59.2016 48.5926 59.5891 48.5968C59.7027 48.5953 59.8164 48.5937 59.9334 48.5921C60.8127 48.6099 61.1847 48.8482 61.7689 49.4563ZM61.46 53.5656C61.8217 54.1002 61.8456 54.306 61.7689 54.9354C61.4367 55.4434 61.274 55.656 60.6878 55.8486C60.2948 55.8647 59.9061 55.8725 59.5131 55.8731C59.3938 55.8739 59.2744 55.8746 59.1515 55.8754C58.7565 55.8776 58.3616 55.8787 57.9667 55.8795C57.6922 55.8804 57.4177 55.8812 57.1431 55.8821C56.5674 55.8837 55.9917 55.8846 55.416 55.8851C54.6786 55.886 53.9413 55.8896 53.204 55.894C52.6369 55.8968 52.0698 55.8976 51.5026 55.8978C51.2308 55.8983 50.959 55.8995 50.6872 55.9015C50.3068 55.9041 49.9264 55.9038 49.546 55.9028C49.3779 55.9049 49.3779 55.9049 49.2065 55.9071C48.5269 55.9016 48.0975 55.8061 47.5591 55.392C47.1974 54.8574 47.1735 54.6516 47.2502 54.0222C47.5824 53.5142 47.7451 53.3016 48.3314 53.109C48.7243 53.0929 49.113 53.0851 49.506 53.0845C49.6253 53.0837 49.7447 53.083 49.8676 53.0822C50.2626 53.08 50.6575 53.0789 51.0524 53.0781C51.3269 53.0772 51.6015 53.0764 51.876 53.0755C52.4517 53.0739 53.0274 53.073 53.6031 53.0725C54.3405 53.0716 55.0778 53.068 55.8151 53.0636C56.3822 53.0608 56.9493 53.06 57.5165 53.0598C57.7883 53.0593 58.0601 53.0581 58.3319 53.0561C58.7124 53.0535 59.0927 53.0538 59.4732 53.0548C59.5852 53.0534 59.6972 53.052 59.8127 53.0505C60.4922 53.056 60.9216 53.1515 61.46 53.5656ZM59.761 58.2837C59.952 58.8367 59.9687 59.0816 59.7224 59.6155C59.4562 59.99 59.4562 59.99 58.9888 60.2623C58.5854 60.3107 58.5854 60.3107 58.126 60.3065C57.8608 60.3095 57.8608 60.3095 57.5902 60.3124C57.3991 60.3128 57.2079 60.3131 57.011 60.3134C56.8146 60.3145 56.6183 60.3155 56.416 60.3165C56.0002 60.3181 55.5845 60.3189 55.1688 60.3187C54.6371 60.3187 54.1055 60.3228 53.5739 60.3281C53.0656 60.3323 52.5574 60.3321 52.0491 60.3325C51.8586 60.3347 51.6681 60.3368 51.4718 60.3391C51.2051 60.3377 51.2051 60.3377 50.933 60.3363C50.777 60.3367 50.621 60.3371 50.4602 60.3376C49.9112 60.2415 49.6529 60.0348 49.2581 59.6535C49.0671 59.1006 49.0504 58.8557 49.2967 58.3218C49.5629 57.9473 49.5629 57.9473 50.0304 57.675C50.4338 57.6266 50.4338 57.6266 50.8931 57.6307C51.1583 57.6278 51.1583 57.6278 51.4289 57.6249C51.62 57.6245 51.8112 57.6242 52.0081 57.6238C52.2045 57.6228 52.4008 57.6218 52.6031 57.6208C53.0189 57.6192 53.4346 57.6184 53.8503 57.6186C54.382 57.6186 54.9136 57.6144 55.4452 57.6092C55.9535 57.605 56.4617 57.6052 56.97 57.6048C57.1605 57.6026 57.351 57.6004 57.5473 57.5982C57.814 57.5996 57.814 57.5996 58.0861 57.601C58.2421 57.6006 58.3981 57.6001 58.5589 57.5997C59.1079 57.6958 59.3662 57.9025 59.761 58.2837Z" fill="#EC6980"/>
<path d="M54.5868 1.00029C54.4779 1.00038 54.369 1.00046 54.2569 1.00055C52.4804 1.00674 50.806 1.13882 49.1036 1.66616C48.9972 1.69878 48.8908 1.73139 48.7811 1.765C43.7249 3.36897 39.7387 6.91445 37.3264 11.54C35.7655 14.6567 35.2341 18.1473 35.5116 21.6041C35.5626 21.7045 35.6135 21.805 35.666 21.9085C35.501 21.9069 35.501 21.9069 35.3326 21.9054C34.2876 21.8962 33.2426 21.8893 32.1976 21.8848C31.6605 21.8824 31.1235 21.8792 30.5865 21.874C29.9668 21.868 29.3473 21.8659 28.7276 21.8639C28.443 21.8603 28.443 21.8603 28.1526 21.8567C26.4857 21.8564 24.9545 22.1483 23.4641 22.8978C23.3604 22.9497 23.2567 23.0016 23.1498 23.0551C20.6337 24.3812 19.2141 26.5578 18.3285 29.1759C18.1021 30.1424 18.0352 31.0931 18.0365 32.0824C18.0358 32.253 18.0358 32.253 18.0351 32.4272C18.0338 32.8051 18.0335 33.183 18.0333 33.5609C18.0326 33.8332 18.0318 34.1056 18.031 34.378C18.0289 35.1158 18.0279 35.8535 18.0273 36.5913C18.0268 37.0532 18.0262 37.5151 18.0255 37.977C18.0234 39.4249 18.0219 40.8727 18.0213 42.3206C18.0206 43.9868 18.0179 45.653 18.0134 47.3192C18.01 48.6105 18.0085 49.9018 18.0083 51.1931C18.0081 51.9628 18.0072 52.7324 18.0045 53.5021C18.0019 54.227 18.0016 54.9519 18.0029 55.6769C18.0031 55.9412 18.0024 56.2056 18.0009 56.4699C17.9896 58.516 18.0749 60.5964 19.0814 62.4407C19.1347 62.5416 19.188 62.6425 19.2428 62.7465C19.7485 63.6654 20.3813 64.4102 21.1473 65.1327C21.2383 65.227 21.3293 65.3214 21.423 65.4186C22.0736 66.0484 22.812 66.451 23.6186 66.8544C23.7212 66.9058 23.8239 66.9572 23.9296 67.0102C25.4941 67.7588 27.1207 67.9019 28.8411 67.8799C28.9708 67.8789 29.1005 67.878 29.2341 67.877C29.5163 67.8748 29.7984 67.8722 30.0805 67.8694C30.7016 67.863 31.3228 67.8585 31.9439 67.8539C32.2785 67.8514 32.613 67.8488 32.9476 67.8461C35.1067 67.8291 37.2658 67.8246 39.4249 67.8194C41.5215 67.8144 43.6179 67.8055 45.7144 67.784C47.3839 67.7669 49.0531 67.7588 50.7226 67.7605C51.603 67.7612 52.4829 67.7577 53.3631 67.7434C57.7085 67.6761 61.0364 68.0884 64.8796 70.1504C65.855 70.6674 66.88 71.0805 67.8989 71.5059C68.1255 71.6031 68.3521 71.7006 68.5784 71.7985C68.7563 71.875 68.9343 71.9515 69.1176 72.0303C70.5787 72.6588 72.0383 73.2904 73.4979 73.9221C73.764 74.0372 74.0302 74.1524 74.2964 74.2676C75.5482 74.8092 76.7999 75.351 78.0515 75.8931C78.623 76.1406 79.1945 76.388 79.766 76.6354C80.0362 76.7524 80.3063 76.8694 80.5764 76.9865C80.7682 77.0696 80.7682 77.0696 80.9639 77.1543C81.0886 77.2084 81.2133 77.2624 81.3418 77.3181C81.7002 77.4731 82.059 77.6273 82.4179 77.7814C82.8495 77.967 83.2788 78.1567 83.7068 78.3504C83.8525 78.4151 83.8525 78.4151 84.0011 78.4811C84.2579 78.5952 84.5138 78.711 84.7697 78.827C85.3167 79.0057 85.7544 79.0214 86.3273 78.9827C86.6362 78.8209 86.6362 78.8209 86.7907 78.5261C86.773 77.5125 86.383 77.08 85.6902 76.4048C85.5048 76.2164 85.3196 76.028 85.1345 75.8394C85.0459 75.7506 84.9572 75.6617 84.8659 75.5702C84.2531 74.9506 83.6941 74.2822 83.1248 73.6242C82.2631 72.6292 81.3929 71.6463 80.496 70.6819C79.6913 69.8131 78.9175 68.9178 78.1412 68.0244C78.2336 68.0214 78.326 68.0184 78.4212 68.0153C82.3571 67.8804 85.6921 67.4821 88.5548 64.5363C90.2314 62.6394 90.9873 60.2029 90.9816 57.7136C90.9819 57.5996 90.9823 57.4856 90.9827 57.3682C90.9836 56.9887 90.9835 56.6093 90.9834 56.2299C90.9838 55.9568 90.9844 55.6837 90.9849 55.4106C90.9863 54.6703 90.9867 53.93 90.9868 53.1898C90.9869 52.7266 90.9872 52.2635 90.9876 51.8004C90.9891 50.1828 90.9897 48.5653 90.9896 46.9477C90.9895 45.443 90.9911 43.9383 90.9935 42.4336C90.9956 41.1393 90.9964 39.845 90.9963 38.5508C90.9962 37.7788 90.9967 37.0069 90.9983 36.235C90.9998 35.5083 90.9998 34.7816 90.9987 34.0549C90.9985 33.7894 90.9989 33.5239 90.9998 33.2584C91.0105 30.0294 90.4834 27.1249 88.1421 24.6861C85.9296 22.6203 83.3194 21.8544 80.3367 21.8787C80.1364 21.8792 79.9361 21.8796 79.7298 21.8801C79.2019 21.8812 78.674 21.8842 78.1461 21.8876C77.6056 21.8907 77.0651 21.8921 76.5245 21.8936C75.4674 21.8969 74.4102 21.902 73.3531 21.9085C73.404 21.808 73.455 21.7076 73.5075 21.6041C73.9049 16.6548 72.5299 11.6662 69.2894 7.81828C66.4562 4.56556 62.9282 2.33429 58.6798 1.36176C58.557 1.33354 58.4342 1.30531 58.3077 1.27623C57.0716 1.02271 55.8458 0.996689 54.5868 1.00029ZM58.8343 3.34034C59.0197 3.39036 59.205 3.44039 59.396 3.49194C63.6876 4.76899 67.3538 7.66593 69.5146 11.5352C71.8325 15.8351 72.3046 20.7446 70.8974 25.419C69.9493 28.3093 68.1731 30.6216 66.0924 32.8163C65.5031 33.4386 64.9525 34.0851 64.4122 34.749C64.2027 35.0061 63.9902 35.2608 63.7738 35.5123C60.9556 38.8317 59.9677 42.647 59.4521 46.8689C58.7895 46.8689 58.1269 46.8689 57.4442 46.8689C57.4442 41.093 57.4442 35.3171 57.4442 29.3662C58.1578 29.2657 58.8714 29.1653 59.6066 29.0618C60.4147 28.7432 60.8993 28.3408 61.3243 27.6028C61.6582 26.699 61.5988 25.7478 61.238 24.8668C61.1185 24.6832 61.1185 24.6832 60.9967 24.4958C60.9457 24.3452 60.8947 24.1945 60.8422 24.0392C60.5719 23.8775 60.5719 23.8775 60.2244 23.7348C60.1067 23.6829 59.9891 23.6309 59.8678 23.5773C58.9722 23.2609 57.9538 23.2884 57.0774 23.6587C56.4036 24.0555 55.9991 24.5225 55.7452 25.2568C55.6401 26.0195 55.6019 26.7708 55.5907 27.5398C54.8772 27.5398 54.1636 27.5398 53.4284 27.5398C53.4262 27.3891 53.424 27.2384 53.4217 27.0832C53.355 24.855 53.355 24.855 52.5016 24.0392C51.7252 23.4338 50.9319 23.3449 49.9616 23.3793C49.4505 23.4455 49.0753 23.6191 48.6403 23.887C48.4874 23.9373 48.3344 23.9875 48.1769 24.0392C48.0128 24.3056 48.0128 24.3056 47.868 24.648C47.8154 24.7624 47.7629 24.8768 47.7087 24.9946C47.4096 25.8229 47.3893 26.773 47.6942 27.6034C48.1208 28.3405 48.6041 28.7431 49.4125 29.0618C50.4829 29.2124 50.4829 29.2124 51.5749 29.3662C51.5749 35.1421 51.5749 40.918 51.5749 46.8689C50.9123 46.8689 50.2497 46.8689 49.567 46.8689C49.5349 46.6093 49.5029 46.3498 49.4699 46.0824C48.9145 41.8603 47.7077 38.4299 44.9333 35.1497C44.8594 35.0622 44.7855 34.9747 44.7093 34.8845C43.928 33.9654 43.1289 33.0672 42.298 32.1913C38.9486 28.5678 37.1522 24.1429 37.3216 19.2052C37.6033 14.2608 39.7269 10.1037 43.4122 6.78047C46.4498 4.18495 50.481 2.81611 54.4709 2.83618C54.7359 2.8373 54.7359 2.8373 55.0063 2.83845C56.3388 2.8566 57.5484 2.97599 58.8343 3.34034ZM87.534 26.9786C89.1463 29.1444 89.1546 31.718 89.1475 34.2906C89.1479 34.5486 89.1484 34.8067 89.1491 35.0647C89.1505 35.759 89.15 36.4533 89.149 37.1476C89.1482 37.8779 89.1489 38.6082 89.1494 39.3386C89.15 40.5643 89.1492 41.79 89.1478 43.0157C89.1461 44.4284 89.1466 45.841 89.1483 47.2537C89.1497 48.4716 89.1499 49.6895 89.1491 50.9074C89.1486 51.6326 89.1486 52.3578 89.1496 53.083C89.1505 53.765 89.1498 54.447 89.1481 55.129C89.1477 55.3777 89.1478 55.6265 89.1485 55.8753C89.1558 58.7867 88.8223 61.3788 86.7967 63.6452C85.1723 65.1863 83.1149 65.9333 80.8954 65.946C80.6736 65.9493 80.6736 65.9493 80.4474 65.9527C79.8185 65.9621 79.1896 65.9682 78.5607 65.9746C78.1 65.9797 77.6395 65.9866 77.1788 65.9935C76.9657 65.9947 76.9657 65.9947 76.7483 65.996C76.6158 65.998 76.4833 66 76.3467 66.0021C76.2306 66.0033 76.1145 66.0044 75.9949 66.0055C75.6268 66.0512 75.3727 66.1705 75.0521 66.3502C74.9941 66.9829 74.9792 67.3117 75.3519 67.8431C75.5523 68.0411 75.5523 68.0411 75.7568 68.2432C75.9007 68.3894 76.0445 68.5356 76.1882 68.682C76.323 68.8165 76.4577 68.9511 76.5966 69.0898C76.7724 69.2814 76.9464 69.4747 77.1179 69.6701C77.2025 69.7658 77.2871 69.8615 77.3743 69.9602C77.6177 70.2386 77.8601 70.5177 78.102 70.7973C78.9616 71.7904 79.8299 72.7715 80.7253 73.7336C81.2111 74.2584 81.6853 74.7928 82.157 75.3299C82.0551 75.3801 81.9531 75.4304 81.8481 75.4821C81.4586 75.3497 81.4586 75.3497 81.0119 75.1391C80.8364 75.0604 80.6609 74.9816 80.4802 74.9006C80.3857 74.8575 80.2913 74.8145 80.1939 74.7702C79.789 74.5858 79.3828 74.4042 78.9767 74.2225C78.7627 74.1267 78.5488 74.0308 78.335 73.9348C77.2327 73.4406 76.1237 72.9622 75.0135 72.4857C74.5981 72.3072 74.1828 72.1286 73.7676 71.95C73.6609 71.9042 73.5542 71.8583 73.4442 71.8111C72.5977 71.447 71.752 71.0811 70.9065 70.7146C68.2303 69.5547 65.5525 68.3984 62.8694 67.2539C62.7455 67.201 62.6216 67.148 62.4939 67.0935C62.1465 66.9452 61.7991 66.7972 61.4516 66.6493C61.3491 66.6055 61.2466 66.5617 61.141 66.5166C60.2552 66.1404 59.5643 66.0238 58.6057 66.0258C58.4703 66.0255 58.335 66.0252 58.1956 66.0249C57.7403 66.024 57.285 66.0241 56.8297 66.0242C56.504 66.0238 56.1782 66.0233 55.8525 66.0226C55.1499 66.0214 54.4472 66.0207 53.7446 66.0202C52.6326 66.0193 51.5207 66.0168 50.4087 66.0139C50.028 66.0129 49.6474 66.0119 49.2667 66.011C48.9807 66.0103 48.9807 66.0103 48.6889 66.0095C46.0997 66.0031 43.5106 65.9981 40.9215 65.9962C39.1757 65.995 37.43 65.9915 35.6843 65.9857C34.7607 65.9827 33.8372 65.9808 32.9136 65.9815C32.0437 65.9822 31.174 65.9801 30.3042 65.9759C29.9859 65.9749 29.6676 65.9748 29.3493 65.9759C26.5706 65.9846 24.3264 65.5296 22.2098 63.6166C20.0549 61.3123 19.8634 58.4862 19.8717 55.5097C19.8712 55.252 19.8707 54.9943 19.87 54.7365C19.8686 54.0422 19.8692 53.3479 19.8701 52.6535C19.8709 51.9233 19.8702 51.193 19.8697 50.4628C19.8691 49.2368 19.8699 48.0108 19.8714 46.7848C19.873 45.3722 19.8725 43.9597 19.8708 42.5471C19.8694 41.3293 19.8692 40.1116 19.87 38.8938C19.8705 38.1687 19.8706 37.4435 19.8695 36.7184C19.8686 36.0361 19.8693 35.3539 19.871 34.6717C19.8714 34.423 19.8713 34.1743 19.8707 33.9256C19.8635 31.0939 20.0768 28.5241 22.074 26.3222C22.2003 26.1792 22.2003 26.1792 22.3292 26.0333C23.6663 24.6135 25.4539 23.873 27.3999 23.6821C27.9453 23.6653 28.4873 23.6661 29.0329 23.6754C29.2287 23.6763 29.4245 23.6771 29.6262 23.678C30.1386 23.6808 30.651 23.6862 31.1634 23.693C31.6894 23.6993 32.2155 23.7021 32.7417 23.7051C33.768 23.7118 34.7942 23.7219 35.8205 23.7348C35.8501 23.834 35.8797 23.9332 35.9103 24.0354C36.0471 24.4915 36.1854 24.9473 36.3237 25.4031C36.3935 25.637 36.3935 25.637 36.4648 25.8757C37.4939 29.2518 39.5779 31.9069 41.985 34.4685C42.6944 35.2264 43.3641 36.0097 44.0066 36.8239C44.1019 36.9444 44.1019 36.9444 44.1992 37.0675C46.4421 39.9368 47.7135 43.3701 47.7135 47.0211C47.6315 47.0562 47.5495 47.0913 47.465 47.1275C46.5342 47.551 45.9478 48.045 45.5512 48.9997C45.4462 50.0395 45.4152 50.9937 46.0145 51.8914C46.0655 52.0421 46.1165 52.1928 46.169 52.348C46.0702 52.4893 45.9715 52.6306 45.8697 52.7761C45.3487 53.6246 45.4078 54.591 45.5512 55.5442C45.9557 56.5414 46.5865 57.0819 47.5591 57.5228C47.5336 57.6201 47.5081 57.7174 47.4819 57.8176C47.2664 59.118 47.3997 60.0667 48.1769 61.1755C48.8638 61.8185 49.5868 61.9554 50.5074 61.9634C50.7013 61.9654 50.8952 61.9673 51.0949 61.9694C51.307 61.9706 51.5191 61.9717 51.7312 61.9728C51.8918 61.9737 51.8918 61.9737 52.0557 61.9746C52.6229 61.9778 53.1902 61.98 53.7575 61.9814C54.341 61.9831 54.9245 61.9883 55.5081 61.9944C55.9587 61.9984 56.4094 61.9996 56.8601 62.0002C57.075 62.0009 57.29 62.0027 57.505 62.0055C58.7331 62.0207 59.646 62.002 60.6878 61.3277C60.9719 61.018 60.9719 61.018 61.1415 60.7094C61.2296 60.5561 61.2296 60.5561 61.3195 60.3997C61.556 59.9124 61.6356 59.521 61.6338 58.9877C61.6342 58.8735 61.6346 58.7593 61.635 58.6417C61.613 58.2571 61.5449 57.8983 61.46 57.5228C61.5532 57.4692 61.6464 57.4156 61.7424 57.3605C62.5166 56.8892 63.2257 56.4546 63.4679 55.5442C63.6119 54.2784 63.5526 53.4094 62.8501 52.348C62.9298 52.0133 62.9298 52.0133 63.159 51.7392C63.5889 50.8499 63.5828 49.9658 63.4679 48.9997C63.1438 48.1277 62.5952 47.6158 61.7689 47.1733C61.616 47.1231 61.4631 47.0729 61.3056 47.0211C61.6926 42.0778 63.4462 38.351 66.8672 34.7437C67.4564 34.1212 68.0071 33.4747 68.5475 32.8108C68.7569 32.5537 68.9695 32.299 69.1858 32.0475C70.9779 29.9367 72.0691 27.5865 72.839 24.956C72.8739 24.8378 72.9089 24.7197 72.9448 24.5979C73.0298 24.3103 73.1142 24.0226 73.1986 23.7348C74.3319 23.7206 75.4653 23.7099 76.5987 23.7033C77.1252 23.7001 77.6516 23.6959 78.1781 23.6889C78.7858 23.6809 79.3935 23.6781 80.0013 23.6754C80.1869 23.6723 80.3725 23.6691 80.5637 23.6659C83.4707 23.6651 85.6893 24.8052 87.534 26.9786ZM59.761 25.8656C59.8769 26.3288 59.8769 26.3288 59.761 26.7788C59.4894 27.1325 59.2796 27.332 58.8633 27.5017C58.389 27.5551 57.9209 27.5488 57.4442 27.5398C57.3353 26.3977 57.3353 26.3977 57.7821 25.3805C58.1887 25.0898 58.1887 25.0898 58.6026 25.0095C59.1754 25.1506 59.4073 25.4075 59.761 25.8656ZM51.5749 25.8656C51.6392 26.4295 51.6201 26.9749 51.5749 27.5398C50.7288 27.5725 50.1444 27.5228 49.4415 27.0451C49.1542 26.6279 49.1782 26.3575 49.2581 25.8656C49.6118 25.4075 49.8437 25.1506 50.4165 25.0095C51.0205 25.1583 51.2216 25.3583 51.5749 25.8656ZM55.5907 29.3662C55.5907 35.1421 55.5907 40.918 55.5907 46.8689C54.8772 46.8689 54.1636 46.8689 53.4284 46.8689C53.4284 41.093 53.4284 35.3171 53.4284 29.3662C54.142 29.3662 54.8555 29.3662 55.5907 29.3662ZM61.7689 49.4563C61.9105 49.989 61.9105 49.989 61.7689 50.5217C61.3446 51.0732 61.1167 51.2626 60.4164 51.3793C60.1878 51.3838 59.959 51.3841 59.7303 51.3811C59.5421 51.3831 59.5421 51.3831 59.3502 51.3852C58.9368 51.3885 58.5237 51.3863 58.1103 51.3837C57.8224 51.3842 57.5344 51.385 57.2465 51.3859C56.6435 51.387 56.0406 51.3854 55.4376 51.3819C54.6653 51.3775 53.8931 51.38 53.1207 51.3846C52.5263 51.3873 51.9319 51.3865 51.3375 51.3845C51.0528 51.384 50.768 51.3846 50.4833 51.3864C50.085 51.3883 49.6871 51.3853 49.2889 51.3811C49.1129 51.3834 49.1129 51.3834 48.9333 51.3858C48.3257 51.3738 48.0481 51.3024 47.5638 50.9293C47.2114 50.5332 47.2114 50.5332 47.144 49.989C47.2608 49.403 47.4262 49.2142 47.8972 48.8525C48.3838 48.579 48.8863 48.5894 49.43 48.5968C49.5522 48.5955 49.6744 48.5942 49.8003 48.5928C50.2021 48.5894 50.6036 48.5916 51.0054 48.5942C51.2858 48.5937 51.5662 48.593 51.8466 48.592C52.4335 48.5909 53.0203 48.5925 53.6071 48.5961C54.3582 48.6004 55.109 48.5979 55.8601 48.5934C56.4389 48.5906 57.0176 48.5915 57.5964 48.5935C57.8733 48.594 58.1501 48.5933 58.427 48.5916C58.8145 48.5896 59.2016 48.5926 59.5891 48.5968C59.7027 48.5953 59.8164 48.5937 59.9334 48.5921C60.8127 48.6099 61.1847 48.8482 61.7689 49.4563ZM61.46 53.5656C61.8217 54.1002 61.8456 54.306 61.7689 54.9354C61.4367 55.4434 61.274 55.656 60.6878 55.8486C60.2948 55.8647 59.9061 55.8725 59.5131 55.8731C59.3938 55.8739 59.2744 55.8746 59.1515 55.8754C58.7565 55.8776 58.3616 55.8787 57.9667 55.8795C57.6922 55.8804 57.4177 55.8812 57.1431 55.8821C56.5674 55.8837 55.9917 55.8846 55.416 55.8851C54.6786 55.886 53.9413 55.8896 53.204 55.894C52.6369 55.8968 52.0698 55.8976 51.5026 55.8978C51.2308 55.8983 50.959 55.8995 50.6872 55.9015C50.3068 55.9041 49.9264 55.9038 49.546 55.9028C49.3779 55.9049 49.3779 55.9049 49.2065 55.9071C48.5269 55.9016 48.0975 55.8061 47.5591 55.392C47.1974 54.8574 47.1735 54.6516 47.2502 54.0222C47.5824 53.5142 47.7451 53.3016 48.3314 53.109C48.7243 53.0929 49.113 53.0851 49.506 53.0845C49.6253 53.0837 49.7447 53.083 49.8676 53.0822C50.2626 53.08 50.6575 53.0789 51.0524 53.0781C51.3269 53.0772 51.6015 53.0764 51.876 53.0755C52.4517 53.0739 53.0274 53.073 53.6031 53.0725C54.3405 53.0716 55.0778 53.068 55.8151 53.0636C56.3822 53.0608 56.9493 53.06 57.5165 53.0598C57.7883 53.0593 58.0601 53.0581 58.3319 53.0561C58.7124 53.0535 59.0927 53.0538 59.4732 53.0548C59.5852 53.0534 59.6972 53.052 59.8127 53.0505C60.4922 53.056 60.9216 53.1515 61.46 53.5656ZM59.761 58.2837C59.952 58.8367 59.9687 59.0816 59.7224 59.6155C59.4562 59.99 59.4562 59.99 58.9888 60.2623C58.5854 60.3107 58.5854 60.3107 58.126 60.3065C57.8608 60.3095 57.8608 60.3095 57.5902 60.3124C57.3991 60.3128 57.2079 60.3131 57.011 60.3134C56.8146 60.3145 56.6183 60.3155 56.416 60.3165C56.0002 60.3181 55.5845 60.3189 55.1688 60.3187C54.6371 60.3187 54.1055 60.3228 53.5739 60.3281C53.0656 60.3323 52.5574 60.3321 52.0491 60.3325C51.8586 60.3347 51.6681 60.3368 51.4718 60.3391C51.2051 60.3377 51.2051 60.3377 50.933 60.3363C50.777 60.3367 50.621 60.3371 50.4602 60.3376C49.9112 60.2415 49.6529 60.0348 49.2581 59.6535C49.0671 59.1006 49.0504 58.8557 49.2967 58.3218C49.5629 57.9473 49.5629 57.9473 50.0304 57.675C50.4338 57.6266 50.4338 57.6266 50.8931 57.6307C51.1583 57.6278 51.1583 57.6278 51.4289 57.6249C51.62 57.6245 51.8112 57.6242 52.0081 57.6238C52.2045 57.6228 52.4008 57.6218 52.6031 57.6208C53.0189 57.6192 53.4346 57.6184 53.8503 57.6186C54.382 57.6186 54.9136 57.6144 55.4452 57.6092C55.9535 57.605 56.4617 57.6052 56.97 57.6048C57.1605 57.6026 57.351 57.6004 57.5473 57.5982C57.814 57.5996 57.814 57.5996 58.0861 57.601C58.2421 57.6006 58.3981 57.6001 58.5589 57.5997C59.1079 57.6958 59.3662 57.9025 59.761 58.2837Z" stroke="#EC6980" mask="url(#path-2-outside-1_5407_12086)"/>
<path d="M48.7914 5.09182C46.9091 5.86405 44.75 7.10153 43.5453 8.79495C43.4489 9.39285 43.4489 9.39285 43.5453 9.87503C43.8539 10.1836 43.8539 10.1836 44.3638 10.2463C45.0636 10.1694 45.2433 9.99031 45.7248 9.48928C47.6871 7.59641 50.2767 6.38505 52.9912 6.10259C53.168 6.08372 53.168 6.08372 53.3484 6.06447C53.5856 6.04003 53.823 6.01776 54.0606 5.99787C54.8867 5.91662 54.8867 5.91662 55.2689 5.65055C55.5241 5.24469 55.494 4.93974 55.4262 4.47464C54.2855 2.98685 50.2815 4.51984 48.7914 5.09182Z" fill="#EC6980"/>
<path d="M42.4165 11.0129C41.8475 11.1094 41.8475 11.1094 41.6323 11.3203C41.4161 11.6512 41.2448 11.9862 41.076 12.3438C41.011 12.4746 40.946 12.6055 40.8789 12.7403C39.9902 14.6799 39.2614 17.3011 39.6874 19.4414C40.0472 19.7476 40.0472 19.7476 40.4588 19.9043C40.9603 19.7982 40.9603 19.7982 41.3846 19.5957C41.5888 19.1873 41.5872 18.7924 41.6229 18.3429C41.793 16.2718 42.2679 14.4986 43.2549 12.6608C43.4524 12.1989 43.41 11.8815 43.2362 11.418C42.9276 11.1094 42.9276 11.1094 42.4165 11.0129Z" fill="#EC6980"/>
</g>
</g>
<defs>
<clipPath id="clip0_5407_12086">
<rect width="79" height="79" fill="white" transform="translate(15)"/>
</clipPath>
<clipPath id="clip1_5407_12086">
<rect width="79" height="79" fill="white" transform="matrix(-1 0 0 1 94 0)"/>
</clipPath>
</defs>
</svg>
