<svg width="108" height="94" viewBox="0 0 108 94" fill="none" xmlns="http://www.w3.org/2000/svg">
<path d="M103.432 15.034L102.784 13.9586C97.3005 4.86675 87.4131 -0.612046 76.9872 0.0546573C75.6429 0.132687 74.3062 0.312413 72.9885 0.592321C63.509 2.63813 55.261 9.86702 51.8435 19.1256C49.8308 24.5694 49.271 30.8386 45.4456 35.1614C40.4819 40.7854 32.05 40.9601 24.6525 40.7289C17.2549 40.4977 8.80436 40.694 3.85932 46.3395C0.772342 49.8907 -0.211333 54.934 0.0365848 59.6547C0.6977 72.193 9.36684 83.406 20.3792 88.9789C31.3916 94.5518 44.3713 95.0491 56.4287 92.5974C73.3218 89.1644 89.3885 79.7338 99.044 65.1765C108.699 50.6193 111.144 30.7553 103.432 15.034Z" fill="#E7EDFF"/>
<g clip-path="url(#clip0_5407_12079)">
<path d="M41.0543 8.58384C42.6785 9.8343 43.5248 11.9382 43.8046 13.9143C44.1235 17.1276 43.4135 20.4391 41.3635 22.9949C40.7051 23.7528 40.0496 24.3319 39.2245 24.8983C39.3755 24.9203 39.3755 24.9203 39.5296 24.9427C48.2782 26.2336 48.2782 26.2336 50.9944 29.473C52.0259 30.8842 52.3866 32.38 52.3845 34.1046C52.3856 34.2302 52.3866 34.3559 52.3877 34.4853C52.3906 34.8961 52.3912 35.3069 52.3915 35.7178C52.3925 36.0062 52.3936 36.2945 52.3947 36.5829C52.3965 37.1856 52.3971 37.7882 52.3969 38.3909C52.3969 39.1599 52.4011 39.9289 52.4064 40.6979C52.4098 41.2929 52.4105 41.8879 52.4103 42.483C52.4107 42.7663 52.412 43.0497 52.4144 43.3331C52.4389 46.5208 52.4389 46.5208 51.4248 47.8018C51.3257 47.8813 51.2267 47.9609 51.1246 48.0429C51.0264 48.1256 50.9281 48.2083 50.8269 48.2936C50.0545 48.7774 49.2878 48.8598 48.3953 48.8566C48.2809 48.8574 48.1666 48.8583 48.0487 48.8591C47.6671 48.8614 47.2855 48.8615 46.9039 48.8616C46.6296 48.8628 46.3553 48.8641 46.081 48.8655C45.3369 48.8689 44.5928 48.8703 43.8487 48.871C43.3834 48.8716 42.9181 48.8726 42.4528 48.8737C40.8283 48.8774 39.2039 48.8795 37.5794 48.88C36.0671 48.8806 34.5549 48.8852 33.0426 48.8916C31.7427 48.897 30.4428 48.8994 29.1429 48.8995C28.3672 48.8996 27.5915 48.9009 26.8159 48.9053C26.0858 48.9094 25.3559 48.9097 24.6259 48.9072C24.3588 48.907 24.0917 48.908 23.8247 48.9105C22.4007 48.9228 21.1388 48.92 19.9374 48.0429C19.5896 47.68 19.5896 47.68 19.3877 47.3292C19.3175 47.2127 19.2473 47.0961 19.1749 46.976C18.823 46.2826 18.8335 45.6477 18.8324 44.8885C18.8313 44.6889 18.8313 44.6889 18.8301 44.4853C18.8279 44.0444 18.8268 43.6035 18.826 43.1626C18.8251 42.8556 18.8242 42.5486 18.8233 42.2417C18.8217 41.5971 18.8208 40.9526 18.8202 40.3081C18.8194 39.4851 18.8157 38.6621 18.8113 37.8391C18.8084 37.2044 18.8076 36.5697 18.8074 35.9349C18.8069 35.6317 18.8057 35.3285 18.8036 35.0253C18.7883 32.5576 18.9504 30.5602 20.7613 28.6919C23.8179 26.0168 27.9355 25.441 31.8182 24.8983C31.7194 24.8124 31.6205 24.7265 31.5187 24.638C29.0983 22.5025 27.58 20.0491 27.3099 16.7742C27.162 14.1391 27.4481 11.5568 29.1663 9.43127C32.2301 6.15738 37.4943 6.16064 41.0543 8.58384ZM31.201 11.1659C29.8484 12.8719 29.8116 14.947 29.9667 17.0292C30.2587 19.1902 31.3326 21.1055 33.0116 22.4971C34.1352 23.2848 35.2658 23.3425 36.6014 23.2011C37.1762 23.0201 37.6465 22.7663 38.1444 22.4296C38.2423 22.3643 38.3401 22.2991 38.4409 22.2319C40.1351 20.9425 40.8912 18.7475 41.1815 16.7152C41.3779 14.875 41.2397 12.9897 40.0966 11.4636C39.0493 10.2405 37.8261 9.68889 36.2253 9.48793C34.4121 9.38461 32.5175 9.84945 31.201 11.1659ZM28.4237 28.1386C28.1923 28.1838 27.9609 28.2288 27.7294 28.2736C25.664 28.7005 23.3403 29.6225 22.0364 31.3568C21.2479 32.6896 21.3743 34.1191 21.3887 35.6165C21.389 35.9073 21.389 36.198 21.3887 36.4887C21.389 37.0951 21.3918 37.7013 21.3967 38.3076C21.4029 39.0852 21.4035 39.8627 21.4024 40.6403C21.4019 41.2393 21.4037 41.8382 21.4064 42.4371C21.4075 42.724 21.4079 43.0109 21.4078 43.2977C21.4081 43.6973 21.4114 44.0968 21.4155 44.4964C21.4151 44.615 21.4146 44.7335 21.4142 44.8556C21.4213 45.3007 21.4314 45.6453 21.6603 46.034C22.0628 46.2578 22.3732 46.2435 22.8322 46.2365C23.0911 46.2343 23.0911 46.2343 23.3551 46.232C23.5352 46.2281 23.7153 46.2242 23.9009 46.2202C24.1737 46.2171 24.1737 46.2171 24.4521 46.2139C24.9017 46.2084 25.3511 46.2008 25.8007 46.1913C25.8009 46.0693 25.8011 45.9473 25.8013 45.8216C25.8041 44.6706 25.8105 43.5196 25.821 42.3686C25.8263 41.7769 25.8302 41.1853 25.8308 40.5936C25.8315 40.0222 25.8359 39.4511 25.8428 38.8798C25.8448 38.6621 25.8455 38.4444 25.8448 38.2267C25.844 37.9212 25.8485 37.6158 25.8532 37.3104C25.8542 37.1367 25.8553 36.9629 25.8563 36.784C25.9856 36.1712 26.2484 35.9356 26.7264 35.5448C27.2019 35.4626 27.4797 35.5729 27.9608 35.6991C28.3253 36.2459 28.3111 36.4864 28.3186 37.1352C28.3217 37.3388 28.3248 37.5423 28.328 37.7521C28.3298 37.9684 28.3316 38.1848 28.3333 38.4011C28.336 38.5978 28.3387 38.7945 28.3415 38.9971C28.3513 39.7333 28.3584 40.4694 28.3658 41.2056C28.3849 42.8509 28.404 44.4962 28.4237 46.1913C33.1082 46.1913 37.7926 46.1913 42.619 46.1913C42.6514 43.027 42.6514 43.027 42.6789 39.8626C42.6839 39.4658 42.689 39.0691 42.6944 38.6723C42.695 38.5185 42.695 38.5185 42.6957 38.3616C42.6972 38.0579 42.7019 37.7542 42.7066 37.4505C42.7092 37.194 42.7092 37.194 42.7118 36.9324C42.7817 36.4078 42.9114 36.1151 43.2362 35.6991C43.7812 35.5505 44.1438 35.4858 44.6827 35.6702C44.9335 35.8534 44.9335 35.8534 45.0878 36.162C45.1064 36.4802 45.1151 36.799 45.1194 37.1177C45.1225 37.3185 45.1256 37.5192 45.1288 37.7261C45.1314 37.9461 45.134 38.1661 45.1366 38.386C45.1398 38.6105 45.143 38.8349 45.1463 39.0593C45.1548 39.6503 45.1624 40.2414 45.1699 40.8324C45.1776 41.4354 45.1862 42.0383 45.1947 42.6413C45.2113 43.8246 45.227 45.0079 45.2421 46.1913C45.8721 46.2092 46.502 46.2202 47.1322 46.2299C47.311 46.235 47.4898 46.2402 47.674 46.2455C47.8461 46.2475 48.0181 46.2495 48.1954 46.2516C48.433 46.2564 48.433 46.2564 48.6753 46.2614C49.1105 46.219 49.1105 46.219 49.4596 45.9544C49.8111 45.4344 49.8032 44.9736 49.7965 44.3671C49.7976 44.2461 49.7987 44.125 49.7998 44.0004C49.8025 43.6003 49.8007 43.2004 49.7986 42.8004C49.7991 42.5213 49.7997 42.2422 49.8004 41.9631C49.8013 41.3776 49.8 40.7921 49.7971 40.2066C49.7936 39.4595 49.7956 38.7126 49.7993 37.9655C49.8016 37.3886 49.8008 36.8117 49.7993 36.2348C49.7988 35.9596 49.7993 35.6844 49.8008 35.4092C49.8175 32.8566 49.8175 32.8566 48.5829 30.6736C46.9324 29.2455 44.9636 28.6492 42.8794 28.1868C42.7387 28.1555 42.598 28.1243 42.4531 28.0921C40.1444 27.6073 37.8827 27.4586 35.531 27.4635C35.3928 27.4635 35.2546 27.4635 35.1122 27.4635C32.8262 27.4678 30.6616 27.6452 28.4237 28.1386Z" fill="#2952CE"/>
<path d="M78.9124 45.8146C80.5377 47.1155 81.3985 49.0953 81.6566 51.1288C81.8701 54.5876 81.2806 57.8279 79.0028 60.556C78.4641 61.1251 77.8888 61.7305 77.182 62.0839C78.0103 62.2533 78.8396 62.4147 79.6718 62.5643C83.2035 63.2052 86.8962 63.9728 89.1207 67.0793C90.2071 68.9236 90.2348 70.5971 90.2249 72.684C90.2253 72.9934 90.2259 73.3028 90.2267 73.6122C90.2276 74.258 90.2263 74.9036 90.2234 75.5494C90.2198 76.3748 90.2219 77.2001 90.2256 78.0256C90.2278 78.6635 90.2271 79.3013 90.2255 79.9393C90.2251 80.2436 90.2256 80.5479 90.227 80.8522C90.2286 81.2779 90.2262 81.7034 90.2228 82.1291C90.224 82.2532 90.2253 82.3774 90.2265 82.5054C90.2116 83.511 89.9174 84.3117 89.2563 85.0778C89.1702 85.1466 89.084 85.2154 88.9953 85.2863C88.9096 85.3575 88.8239 85.4287 88.7355 85.5021C88.0144 85.9729 87.3515 86.0451 86.507 86.0422C86.3908 86.043 86.2746 86.0438 86.1548 86.0447C85.7659 86.047 85.3771 86.0471 84.9883 86.0472C84.7092 86.0484 84.4301 86.0497 84.151 86.0511C83.3932 86.0545 82.6354 86.0558 81.8776 86.0566C81.4039 86.0572 80.9302 86.0581 80.4565 86.0592C78.8032 86.063 77.1499 86.065 75.4965 86.0656C73.9567 86.0661 72.4168 86.0708 70.877 86.0772C69.554 86.0826 68.231 86.085 66.908 86.0851C66.1183 86.0852 65.3286 86.0865 64.5389 86.0909C63.7957 86.095 63.0526 86.0953 62.3094 86.0928C62.0373 86.0925 61.7652 86.0936 61.4931 86.096C58.773 86.1192 58.773 86.1192 57.7406 85.2284C56.8044 84.216 56.6136 83.1212 56.6181 81.7711C56.6173 81.646 56.6165 81.5209 56.6157 81.392C56.6136 80.981 56.6137 80.57 56.6141 80.1589C56.6135 79.8709 56.6128 79.5828 56.6121 79.2947C56.6109 78.6915 56.611 78.0883 56.6118 77.4851C56.6127 76.7164 56.6101 75.9478 56.6065 75.1792C56.6042 74.5842 56.6041 73.9891 56.6045 73.3941C56.6045 73.111 56.6037 72.8278 56.6021 72.5447C56.5901 70.0711 56.7656 67.9717 58.5175 66.0619C61.0453 63.6762 64.318 63.0554 67.6173 62.4754C68.2874 62.355 68.9545 62.2208 69.6214 62.0839C69.5208 61.9962 69.4201 61.9085 69.3164 61.8181C67.9613 60.6209 67.0288 59.5468 66.2269 57.9179C66.1678 57.7991 66.1087 57.6804 66.0479 57.5581C64.889 54.9714 64.7505 51.636 65.7152 48.9875C66.4799 47.1053 67.7456 45.6333 69.6214 44.8027C72.7649 43.695 76.1408 43.8643 78.9124 45.8146ZM69.0368 48.4829C67.8483 49.9523 67.6583 51.765 67.7698 53.5976C68.0417 55.9098 68.9005 58.0714 70.7015 59.6152C71.7604 60.2879 72.8272 60.6957 74.096 60.5409C75.8708 60.0479 77.042 59.0356 77.9534 57.455C78.7083 55.9233 79.0937 54.4637 79.0817 52.7586C79.081 52.6302 79.0802 52.5019 79.0794 52.3696C79.0457 50.6006 78.5292 49.1777 77.2495 47.9272C74.9405 46.0482 71.083 46.3652 69.0368 48.4829ZM60.2286 68.2269C59.0111 69.559 59.2154 71.4344 59.222 73.1095C59.2217 73.3862 59.2213 73.663 59.2207 73.9397C59.22 74.5173 59.221 75.0947 59.2232 75.6722C59.2258 76.4123 59.2243 77.1523 59.2215 77.8923C59.2198 78.4627 59.2204 79.033 59.2216 79.6034C59.2219 79.8764 59.2215 80.1493 59.2204 80.4223C59.2193 80.803 59.221 81.1836 59.2236 81.5644C59.2227 81.6768 59.2217 81.7893 59.2208 81.9052C59.2268 82.3811 59.2578 82.7131 59.4898 83.1333C59.9552 83.575 60.4217 83.5496 61.0308 83.5462C61.1894 83.5457 61.3481 83.5452 61.5115 83.5447C61.6769 83.5434 61.8422 83.5421 62.0126 83.5408C62.1798 83.5401 62.347 83.5394 62.5192 83.5387C62.9322 83.5369 63.3452 83.5343 63.7581 83.5312C63.759 83.4046 63.7599 83.2781 63.7609 83.1477C63.7698 81.9557 63.7809 80.7638 63.7945 79.5718C63.8014 78.959 63.8075 78.3462 63.8116 77.7334C63.8156 77.1421 63.8218 76.5509 63.8296 75.9596C63.8322 75.7339 63.8339 75.5082 63.8349 75.2825C63.8364 74.9666 63.8407 74.6508 63.8457 74.335C63.8474 74.1551 63.8491 73.9752 63.8509 73.7899C63.9124 73.3476 63.9124 73.3476 64.1294 73.0583C64.5806 72.7398 65.0819 72.8009 65.6097 72.8847C65.9453 73.1228 66.0445 73.2915 66.2269 73.6562C66.2455 73.9696 66.2542 74.2837 66.2586 74.5977C66.2617 74.7982 66.2648 74.9986 66.268 75.2051C66.2706 75.4189 66.2732 75.6327 66.2757 75.8465C66.2786 76.0403 66.2815 76.2341 66.2844 76.4338C66.295 77.1602 66.3042 77.8866 66.3137 78.613C66.3471 81.0475 66.3471 81.0475 66.3812 83.5312C71.0656 83.5312 75.7501 83.5312 80.5765 83.5312C80.6089 80.2006 80.6089 80.2006 80.6363 76.87C80.6413 76.4535 80.6465 76.037 80.6518 75.6204C80.6525 75.458 80.6525 75.458 80.6532 75.2922C80.6547 74.9731 80.6591 74.6541 80.6641 74.335C80.6666 74.0651 80.6666 74.0651 80.6693 73.7899C80.7308 73.3476 80.7308 73.3476 80.9477 73.0579C81.256 72.8408 81.4365 72.8273 81.8109 72.8365C81.9684 72.8374 81.9684 72.8374 82.1291 72.8383C82.428 72.8847 82.428 72.8847 82.8909 73.1933C83.0596 73.6992 83.0696 74.0825 83.0769 74.6152C83.08 74.8129 83.0831 75.0106 83.0862 75.2142C83.0889 75.43 83.0915 75.6458 83.0941 75.8615C83.0972 76.0823 83.1005 76.303 83.1038 76.5237C83.1123 77.1044 83.1199 77.685 83.1274 78.2656C83.1351 78.8583 83.1437 79.4509 83.1522 80.0435C83.1688 81.2061 83.1845 82.3686 83.1995 83.5312C83.7492 83.5402 84.2989 83.5456 84.8486 83.5505C85.0817 83.5543 85.0817 83.5543 85.3196 83.5583C85.5456 83.5598 85.5456 83.5598 85.7762 83.5613C85.9834 83.5637 85.9834 83.5637 86.1949 83.5662C86.6402 83.5271 86.9662 83.4217 87.3655 83.2226C87.6052 82.7432 87.5439 82.235 87.5447 81.7088C87.5455 81.5843 87.5462 81.4598 87.547 81.3316C87.5493 80.9184 87.5503 80.5052 87.5512 80.092C87.5521 79.8049 87.553 79.5177 87.5539 79.2305C87.5555 78.6273 87.5564 78.0242 87.5569 77.421C87.5578 76.65 87.5615 75.8791 87.5659 75.1081C87.5687 74.5143 87.5695 73.9205 87.5698 73.3267C87.5702 73.0426 87.5715 72.7585 87.5735 72.4744C87.5762 72.0756 87.5758 71.6769 87.5748 71.2781C87.577 71.1036 87.577 71.1036 87.5792 70.9257C87.5701 69.764 87.2243 68.7642 86.4253 67.9044C81.0618 63.0574 65.2948 62.8962 60.2286 68.2269Z" fill="#2952CE"/>
<path d="M25.9555 58.8439C26.5702 59.3199 26.7253 59.8173 26.9392 60.5508C27.7438 63.1419 29.1367 65.0058 31.5048 66.3568C33.6135 67.4178 35.977 67.7069 38.2993 67.9474C38.2939 67.7558 38.2885 67.5643 38.283 67.3669C38.2787 67.1136 38.2745 66.8603 38.2704 66.6069C38.2665 66.4809 38.2626 66.3549 38.2586 66.2251C38.2496 65.4824 38.2859 65.0068 38.7622 64.3985C38.9974 64.1633 39.2102 64.1968 39.5379 64.1791C40.4365 64.1912 40.9424 64.5875 41.6263 65.1314C41.7461 65.2223 41.866 65.3132 41.9894 65.4069C42.2365 65.5947 42.4826 65.7838 42.7276 65.9744C43.1535 66.3053 43.5846 66.6287 44.0167 66.9516C44.2177 67.1018 44.4184 67.2525 44.6188 67.4035C45.3887 67.9837 46.1674 68.5507 46.9496 69.1142C47.0647 69.1977 47.1799 69.2812 47.2985 69.3672C47.8638 69.7762 48.4317 70.1798 49.0078 70.5734C49.1679 70.685 49.1679 70.685 49.3312 70.7988C49.5306 70.9377 49.7315 71.0744 49.9343 71.2084C50.4188 71.5496 50.6403 71.7986 50.8793 72.346C50.9598 72.9459 50.9646 73.1493 50.643 73.6564C50.3144 73.9987 49.9575 74.2995 49.5919 74.6014C49.4368 74.7325 49.4368 74.7325 49.2786 74.8662C49.0657 75.0459 48.8523 75.225 48.6383 75.4035C48.3538 75.6412 48.0711 75.8807 47.7891 76.1215C46.8887 76.8898 45.9774 77.6441 45.0594 78.3913C44.5764 78.7885 44.099 79.1919 43.6225 79.5968C40.3301 82.393 40.3301 82.393 39.5337 82.4513C39.0452 82.335 38.8252 82.2211 38.5096 81.8287C38.2244 81.2083 38.2483 80.6846 38.2704 80.0115C38.2735 79.829 38.2735 79.829 38.2767 79.6429C38.2821 79.3446 38.2904 79.0464 38.2993 78.7481C38.1662 78.7442 38.0332 78.7402 37.8961 78.7361C33.1875 78.5173 28.7366 76.8392 25.4553 73.3725C23.1425 70.8045 22.3787 67.5301 22.5302 64.1657C22.6716 62.4022 23.2141 60.0356 24.5669 58.8439C25.0584 58.5981 25.4312 58.7263 25.9555 58.8439ZM25.3383 63.9356C24.801 65.0103 25.1737 66.9405 25.4685 68.0528C26.5472 71.1467 28.7022 73.1608 31.5949 74.605C33.6519 75.5776 35.9557 76.0682 38.2227 76.1552C38.4004 76.1626 38.4004 76.1626 38.5816 76.1702C38.8123 76.1785 39.0431 76.184 39.2739 76.1861C39.7952 76.2026 40.1013 76.2434 40.5281 76.553C40.8979 77.0826 40.8798 77.4937 40.9223 78.131C41.5618 77.8686 42.04 77.4148 42.5521 76.9641C42.7464 76.7952 42.9409 76.6264 43.1355 76.4578C43.2314 76.3747 43.3273 76.2915 43.426 76.2059C43.7981 75.8863 44.1772 75.5759 44.5579 75.2668C45.5183 74.4871 46.4605 73.6863 47.4028 72.8849C46.8488 72.2802 46.2072 71.8326 45.5416 71.3612C45.294 71.1843 45.0465 71.0073 44.799 70.8302C44.6704 70.7381 44.5417 70.646 44.4091 70.5511C43.5972 69.9652 42.7945 69.3665 41.9918 68.768C41.8742 68.6808 41.7565 68.5936 41.6353 68.5037C41.531 68.4259 41.4267 68.3482 41.3192 68.2681C41.1045 68.0871 41.1045 68.0871 40.9223 68.1017C40.9184 68.217 40.9144 68.3324 40.9103 68.4512C40.8971 68.6792 40.8971 68.6792 40.8838 68.9117C40.8766 69.0621 40.8694 69.2125 40.8621 69.3674C40.7419 69.9188 40.6191 70.0995 40.1508 70.4161C39.7096 70.4712 39.3365 70.4892 38.8972 70.474C38.7745 70.4714 38.6519 70.4689 38.5256 70.4663C34.3003 70.3451 30.2786 69.4662 27.1875 66.405C26.573 65.7411 26.1155 65.0166 25.6723 64.2298C25.613 64.1327 25.5537 64.0357 25.4926 63.9356C25.4417 63.9356 25.3908 63.9356 25.3383 63.9356Z" fill="#2952CE"/>
<path d="M69.033 15.9492C69.5631 16.1377 69.7529 16.2622 70.0841 16.7207C70.1603 17.2242 70.1422 17.7174 70.1227 18.2251C70.1199 18.3621 70.1171 18.4992 70.1142 18.6404C70.107 18.9779 70.0968 19.315 70.0841 19.6523C70.2283 19.6563 70.3725 19.6603 70.5211 19.6644C74.704 19.845 78.8265 21.1181 81.965 23.9727C82.0738 24.0671 82.1826 24.1616 82.2947 24.2589C84.5565 26.343 85.8026 29.5002 85.9767 32.5283C85.9767 34.89 85.543 37.4563 84.1251 39.4023C83.674 39.7037 83.5205 39.7116 82.9583 39.682C82.2869 39.5233 82.2869 39.5233 81.965 39.0938C81.8069 38.6829 81.6652 38.2777 81.531 37.8594C80.6423 35.2516 79.284 33.2009 76.7882 31.9364C74.6585 30.9403 72.3929 30.7377 70.0841 30.4531C70.089 30.5885 70.089 30.5885 70.0939 30.7266C70.1068 31.1369 70.1148 31.5471 70.1227 31.9575C70.1279 32.0995 70.133 32.2415 70.1384 32.3879C70.1533 33.4185 70.1533 33.4185 69.8503 33.9465C69.3018 34.2466 68.8327 34.2846 68.2325 34.1562C67.7879 33.9457 67.4154 33.6657 67.0271 33.3655C66.9149 33.2825 66.8027 33.1995 66.6871 33.1141C66.4482 32.937 66.2101 32.7587 65.973 32.5792C65.6145 32.3084 65.2531 32.0419 64.8904 31.7767C64.2767 31.3276 63.6651 30.8757 63.054 30.4229C62.5442 30.0456 62.0333 29.6699 61.5223 29.2942C61.0388 28.9385 60.5559 28.5819 60.073 28.2253C59.7697 28.0017 59.4657 27.779 59.1616 27.5564C58.9932 27.4323 58.8248 27.3082 58.6565 27.184C58.4438 27.0279 58.4438 27.0279 58.2268 26.8687C57.7526 26.4789 57.5978 26.2235 57.5186 25.6121C57.6027 24.9147 57.8442 24.7044 58.3575 24.2812C58.5956 24.0629 58.8335 23.8443 59.0712 23.6255C59.7438 23.0233 60.4356 22.4497 61.1373 21.8818C61.6576 21.4548 62.1682 21.0176 62.6779 20.5781C63.4504 19.9125 64.2315 19.2597 65.0243 18.6181C65.3426 18.3563 65.6564 18.0919 65.9681 17.8225C66.056 17.7468 66.1439 17.6711 66.2345 17.5932C66.4034 17.4473 66.5718 17.3008 66.7393 17.1534C68.1372 15.9492 68.1372 15.9492 69.033 15.9492ZM64.2542 22.821C63.2374 23.6951 62.2134 24.5636 61.1349 25.3613C61.3678 26.0007 61.8171 26.2879 62.3596 26.6536C62.5537 26.7881 62.7475 26.9229 62.9412 27.058C63.0993 27.1677 63.0993 27.1677 63.2605 27.2797C63.9031 27.7325 64.5339 28.2016 65.1659 28.6691C65.355 28.8087 65.355 28.8087 65.548 28.9511C66.5079 29.6599 66.5079 29.6599 66.8637 29.9421C67.1358 30.1741 67.1358 30.1741 67.4611 30.1445C67.4751 30.0049 67.4751 30.0049 67.4894 29.8625C67.5023 29.7391 67.5152 29.6158 67.5286 29.4888C67.5411 29.367 67.5536 29.2453 67.5665 29.1199C67.6574 28.4426 67.6574 28.4426 67.7697 28.1387C70.7915 27.1314 75.2904 28.2839 78.0823 29.6272C80.0475 30.6312 81.7106 32.2223 82.8371 34.1237C82.94 34.2926 82.94 34.2926 83.045 34.4648C83.096 34.4648 83.1469 34.4648 83.1993 34.4648C83.311 31.3535 82.808 28.9464 80.7595 26.4944C77.8837 23.4132 73.7415 22.4109 69.6853 22.2671C68.5019 22.2054 68.5019 22.2054 67.8962 21.7619C67.5546 21.2605 67.4964 20.8697 67.4611 20.2695C66.6211 20.2695 64.9345 22.2351 64.2542 22.821Z" fill="#2952CE"/>
</g>
<defs>
<clipPath id="clip0_5407_12079">
<rect width="79" height="79" fill="white" transform="translate(15 7)"/>
</clipPath>
</defs>
</svg>
