<svg width="30" height="30" viewBox="0 0 30 30" fill="none" xmlns="http://www.w3.org/2000/svg">
<path d="M11.875 20L10.7125 21.4L10.025 22.225C9.43751 22.925 8.3125 22.775 7.925 21.9375L6.25 18.25C3.975 16.65 2.5 14.1125 2.5 11.25C2.5 6.4125 6.7 2.5 11.875 2.5C15.65 2.5 18.9125 4.58751 20.375 7.58751C20.9375 8.70001 21.25 9.9375 21.25 11.25C21.25 16.0875 17.05 20 11.875 20Z" stroke="#455A64" stroke-width="1.5" stroke-linecap="round" stroke-linejoin="round"/>
<path d="M23.7484 23.0752L22.0734 26.7626C21.6859 27.6001 20.5609 27.7627 19.9734 27.0502L18.1234 24.8251C15.0984 24.8251 12.3984 23.4876 10.7109 21.4001L11.8734 20.0001C17.0484 20.0001 21.2484 16.0876 21.2484 11.2501C21.2484 9.93764 20.9359 8.70015 20.3734 7.58765C24.4609 8.52515 27.4984 11.9751 27.4984 16.0751C27.4984 18.9376 26.0234 21.4752 23.7484 23.0752Z" stroke="#455A64" stroke-width="1.5" stroke-linecap="round" stroke-linejoin="round"/>
<path d="M8.75 11.25H15" stroke="#455A64" stroke-width="1.5" stroke-linecap="round" stroke-linejoin="round"/>
</svg>
