<svg width="30" height="30" viewBox="0 0 30 30" fill="none" xmlns="http://www.w3.org/2000/svg">
<path d="M25 22.0304C25 25.6668 22.7625 26.8789 20 26.8789H10C7.2375 26.8789 5 25.6668 5 22.0304V10.2123C5 6.27286 7.2375 5.36377 10 5.36377C10 6.11528 10.3125 6.79407 10.825 7.29104C11.3375 7.78801 12.0375 8.09104 12.8125 8.09104H17.1875C18.7375 8.09104 20 6.8668 20 5.36377C22.7625 5.36377 25 6.27286 25 10.2123V22.0304Z" stroke="#00995B" stroke-width="1.5" stroke-linecap="round" stroke-linejoin="round"/>
<path d="M17.1875 8.09102H12.8125C12.0375 8.09102 11.3375 7.78799 10.825 7.29102C10.3125 6.79405 10 6.11526 10 5.36375C10 3.86072 11.2625 2.63647 12.8125 2.63647H17.1875C17.9625 2.63647 18.6625 2.93951 19.175 3.43648C19.6875 3.93345 20 4.61223 20 5.36375C20 6.86678 18.7375 8.09102 17.1875 8.09102Z" stroke="#00995B" stroke-width="1.5" stroke-linecap="round" stroke-linejoin="round"/>
<path d="M15.0007 18.2V17.9375C15.0007 17.0875 15.5258 16.6375 16.0508 16.275C16.5633 15.925 17.0757 15.475 17.0757 14.65C17.0757 13.5 16.1507 12.575 15.0007 12.575C13.8507 12.575 12.9258 13.5 12.9258 14.65" stroke="#00995B" stroke-width="1.5" stroke-linecap="round" stroke-linejoin="round"/>
<path d="M14.9944 21.1875H15.0056" stroke="#00995B" stroke-width="1.5" stroke-linecap="round" stroke-linejoin="round"/>
</svg>
