<svg width="87" height="106" viewBox="0 0 87 106" fill="none" xmlns="http://www.w3.org/2000/svg">
<path d="M28.2791 16.1108H84.8516V51.2316H37.2276L34.2785 58.031L31.6651 51.2316H28.2791V16.1108Z" fill="white"/>
<path d="M28.2874 16.1087C28.2874 16.4494 28.2726 29.6524 28.2451 51.2378V51.2802H31.6649L31.6248 51.2527C32.4418 53.3837 33.3242 55.6798 34.2361 58.0521L34.2762 58.16L34.3227 58.0542C35.2473 55.9253 36.2458 53.6207 37.2781 51.2548L37.2337 51.2844H80.298H84.9062V51.2294C84.9062 38.712 84.9062 26.8336 84.9062 16.1002V16.0515H84.8556L28.281 16.1002L84.8556 16.151L84.8049 16.1002C84.8049 26.8273 84.8049 38.7056 84.8049 51.2294L84.8598 51.1744H80.3043H37.2401H37.2084L37.1957 51.204L34.2404 58.0055H34.3269L31.7051 51.2124L31.6945 51.1828H28.2874L28.3296 51.2251C28.2874 29.644 28.2874 16.4494 28.2874 16.1087Z" fill="#263238"/>
<path d="M28.3072 19.537C28.3072 19.5793 40.9478 19.6153 56.5353 19.6153C72.1229 19.6153 84.7656 19.5793 84.7656 19.537C84.7656 19.4946 72.1271 19.4692 56.5353 19.4692C40.9436 19.4692 28.3072 19.4946 28.3072 19.537Z" fill="#263238"/>
<path d="M81.8446 17.9878C81.8446 18.08 81.8719 18.1701 81.923 18.2467C81.9741 18.3233 82.0468 18.3829 82.1318 18.4181C82.2168 18.4533 82.3103 18.4624 82.4004 18.4442C82.4905 18.4261 82.5733 18.3816 82.6382 18.3162C82.703 18.2509 82.7471 18.1678 82.7648 18.0773C82.7825 17.9869 82.7729 17.8932 82.7375 17.8082C82.702 17.7231 82.6421 17.6506 82.5655 17.5997C82.4888 17.5488 82.3988 17.5218 82.3069 17.5222C82.1841 17.5228 82.0665 17.5721 81.9799 17.6593C81.8932 17.7466 81.8446 17.8647 81.8446 17.9878Z" fill="#263238"/>
<path d="M80.1688 17.9878C80.1688 18.08 80.1961 18.1701 80.2472 18.2467C80.2984 18.3233 80.371 18.3829 80.456 18.4181C80.541 18.4533 80.6345 18.4624 80.7246 18.4442C80.8148 18.4261 80.8975 18.3816 80.9624 18.3162C81.0272 18.2509 81.0713 18.1678 81.089 18.0773C81.1067 17.9869 81.0972 17.8932 81.0617 17.8082C81.0262 17.7231 80.9664 17.6506 80.8897 17.5997C80.8131 17.5488 80.7231 17.5218 80.6311 17.5222C80.5083 17.5228 80.3907 17.5721 80.3041 17.6593C80.2175 17.7466 80.1688 17.8647 80.1688 17.9878Z" fill="#263238"/>
<path d="M78.4891 17.9878C78.4891 18.0799 78.5164 18.1699 78.5674 18.2464C78.6184 18.323 78.691 18.3827 78.7758 18.4179C78.8607 18.4531 78.9541 18.4624 79.0442 18.4444C79.1342 18.4264 79.217 18.3821 79.2819 18.317C79.3469 18.2519 79.3911 18.1689 79.409 18.0786C79.427 17.9883 79.4178 17.8947 79.3826 17.8096C79.3475 17.7245 79.2879 17.6518 79.2116 17.6007C79.1352 17.5495 79.0454 17.5222 78.9536 17.5222C78.8304 17.5222 78.7123 17.5713 78.6252 17.6586C78.5381 17.7459 78.4891 17.8643 78.4891 17.9878Z" fill="#263238"/>
<path d="M78.6823 25.8178L80.0249 26.3384L78.6823 26.8569V27.1722L80.3711 26.5014V26.1776L78.6823 25.5046V25.8178Z" fill="#263238"/>
<path d="M77.2819 24.4741H76.9525L78.2022 28.0463H78.5273L77.2819 24.4741Z" fill="#263238"/>
<path d="M75.1511 26.1775V26.5034L76.8398 27.1743V26.8589L75.493 26.3405L76.8398 25.8178V25.5024L75.1511 26.1775Z" fill="#263238"/>
<path d="M74.7148 27.4281C74.7154 27.3941 74.7091 27.3602 74.6964 27.3287C74.6836 27.2971 74.6647 27.2684 74.6406 27.2443C74.6166 27.2202 74.588 27.2012 74.5565 27.1884C74.525 27.1757 74.4912 27.1694 74.4573 27.17C74.4237 27.1697 74.3903 27.1762 74.3593 27.1891C74.3283 27.2021 74.3002 27.2212 74.2767 27.2453C74.2532 27.2694 74.2349 27.2981 74.2227 27.3295C74.2106 27.3609 74.2049 27.3945 74.2061 27.4281C74.2049 27.462 74.2106 27.4958 74.2227 27.5274C74.2348 27.5591 74.2531 27.588 74.2765 27.6124C74.2999 27.6369 74.3279 27.6564 74.359 27.6698C74.39 27.6832 74.4235 27.6903 74.4573 27.6905C74.4914 27.6906 74.5253 27.6837 74.5568 27.6705C74.5883 27.6573 74.6169 27.6379 74.6409 27.6134C74.6649 27.589 74.6837 27.5601 74.6964 27.5282C74.7091 27.4964 74.7154 27.4624 74.7148 27.4281Z" fill="#263238"/>
<path d="M73.8554 27.4282C73.8563 27.394 73.8502 27.3601 73.8376 27.3284C73.8249 27.2966 73.806 27.2678 73.7819 27.2437C73.7578 27.2195 73.7291 27.2005 73.6974 27.1879C73.6658 27.1752 73.6319 27.1691 73.5979 27.17C73.5644 27.17 73.5313 27.1767 73.5005 27.1898C73.4697 27.2029 73.4419 27.222 73.4187 27.2461C73.3954 27.2702 73.3772 27.2987 73.3652 27.33C73.3532 27.3613 73.3476 27.3947 73.3488 27.4282C73.3476 27.4619 73.3532 27.4955 73.3652 27.527C73.3771 27.5585 73.3952 27.5873 73.4184 27.6117C73.4416 27.6362 73.4694 27.6557 73.5002 27.6693C73.531 27.6828 73.5642 27.6901 73.5979 27.6906C73.6321 27.6909 73.6661 27.6843 73.6977 27.6711C73.7294 27.658 73.7581 27.6386 73.7821 27.6141C73.8061 27.5896 73.825 27.5606 73.8376 27.5286C73.8502 27.4967 73.8562 27.4625 73.8554 27.4282Z" fill="#263238"/>
<path d="M72.996 27.4282C72.9969 27.394 72.9908 27.3601 72.9782 27.3284C72.9655 27.2966 72.9466 27.2678 72.9225 27.2437C72.8984 27.2195 72.8697 27.2005 72.838 27.1879C72.8064 27.1752 72.7725 27.1691 72.7385 27.17C72.705 27.17 72.6719 27.1767 72.6412 27.1898C72.6104 27.2029 72.5825 27.222 72.5593 27.2461C72.536 27.2702 72.5179 27.2987 72.5059 27.33C72.4938 27.3613 72.4882 27.3947 72.4894 27.4282C72.4882 27.4619 72.4938 27.4955 72.5058 27.527C72.5178 27.5585 72.5359 27.5873 72.559 27.6117C72.5822 27.6362 72.61 27.6557 72.6408 27.6693C72.6717 27.6828 72.7048 27.6901 72.7385 27.6906C72.7727 27.6909 72.8067 27.6843 72.8384 27.6711C72.87 27.658 72.8987 27.6386 72.9227 27.6141C72.9468 27.5896 72.9656 27.5606 72.9782 27.5286C72.9908 27.4967 72.9969 27.4625 72.996 27.4282Z" fill="#263238"/>
<path d="M42.9585 30.8354C42.9585 30.8777 51.3202 30.9116 61.6345 30.9116C71.9488 30.9116 80.3125 30.8777 80.3125 30.8354C80.3125 30.7931 71.9509 30.7571 61.6345 30.7571C51.318 30.7571 42.9585 30.7909 42.9585 30.8354Z" fill="#455A64"/>
<path d="M36.8566 30.9455C36.8566 30.9878 37.6588 31.0238 38.651 31.0238C39.6431 31.0238 40.4453 30.9878 40.4453 30.9455C40.4453 30.9032 39.641 30.8672 38.651 30.8672C37.6609 30.8672 36.8566 30.8968 36.8566 30.9455Z" fill="#263238"/>
<path d="M31.6111 30.9455C31.6111 30.9878 32.4893 31.0238 33.5701 31.0238C34.651 31.0238 35.5312 30.9878 35.5312 30.9455C35.5312 30.9032 34.6531 30.8672 33.5701 30.8672C32.4872 30.8672 31.6111 30.8968 31.6111 30.9455Z" fill="#263238"/>
<path d="M56.5272 33.9907C56.5272 34.033 61.8427 34.0668 68.3994 34.0668C74.9562 34.0668 80.2695 34.033 80.2695 33.9907C80.2695 33.9483 74.9562 33.9124 68.3994 33.9124C61.8427 33.9124 56.5272 33.9462 56.5272 33.9907Z" fill="#455A64"/>
<path d="M56.6952 45.7631C56.6952 45.8054 62.0107 45.8393 68.5653 45.8393C75.1199 45.8393 80.4375 45.8054 80.4375 45.7631C80.4375 45.7208 75.122 45.6848 68.5653 45.6848C62.0086 45.6848 56.6952 45.7208 56.6952 45.7631Z" fill="#455A64"/>
<path d="M47.8997 33.9907C47.8997 34.033 49.3458 34.0668 51.1296 34.0668C52.9133 34.0668 54.3594 34.033 54.3594 33.9907C54.3594 33.9483 52.9133 33.9124 51.1296 33.9124C49.3458 33.9124 47.8997 33.9462 47.8997 33.9907Z" fill="#263238"/>
<path d="M47.9661 45.7631C47.9661 45.8054 49.4122 45.8393 51.196 45.8393C52.9798 45.8393 54.4258 45.8054 54.4258 45.7631C54.4258 45.7208 52.9798 45.6848 51.196 45.6848C49.4122 45.6848 47.9661 45.7208 47.9661 45.7631Z" fill="#263238"/>
<path d="M78.7103 35.5947C78.7103 35.6371 79.0691 35.673 79.5124 35.673C79.9557 35.673 80.3125 35.6371 80.3125 35.5947C80.3125 35.5524 79.9536 35.5186 79.5124 35.5186C79.0712 35.5186 78.7103 35.5524 78.7103 35.5947Z" fill="#EC6980"/>
<path d="M73.1891 35.6288C73.1891 35.6712 73.968 35.705 74.9285 35.705C75.889 35.705 76.668 35.6712 76.668 35.6288C76.668 35.5865 75.889 35.5505 74.9285 35.5505C73.968 35.5505 73.1891 35.5865 73.1891 35.6288Z" fill="#263238"/>
<path d="M69.6638 35.6286C69.6638 35.6709 70.3309 35.7048 71.1542 35.7048C71.9775 35.7048 72.6445 35.6709 72.6445 35.6286C72.6445 35.5863 71.9775 35.5503 71.1542 35.5503C70.3309 35.5503 69.6638 35.5863 69.6638 35.6286Z" fill="#263238"/>
<path d="M65.1849 35.6286C65.1849 35.6709 65.8647 35.7048 66.7027 35.7048C67.5408 35.7048 68.2227 35.6709 68.2227 35.6286C68.2227 35.5863 67.5429 35.5503 66.7027 35.5503C65.8626 35.5503 65.1849 35.5863 65.1849 35.6286Z" fill="#263238"/>
<path d="M61.2623 35.6286C61.2623 35.6709 61.8808 35.7048 62.6428 35.7048C63.4049 35.7048 64.0234 35.6709 64.0234 35.6286C64.0234 35.5863 63.4049 35.5503 62.6428 35.5503C61.8808 35.5503 61.2623 35.5863 61.2623 35.6286Z" fill="#263238"/>
<path d="M48.2887 35.6288C48.2887 35.6712 51.0077 35.705 54.3621 35.705C57.7164 35.705 60.4375 35.6712 60.4375 35.6288C60.4375 35.5865 57.7185 35.5505 54.3621 35.5505C51.0056 35.5505 48.2887 35.5865 48.2887 35.6288Z" fill="#263238"/>
<path d="M78.9319 37.6432C78.9319 37.6856 79.2401 37.7215 79.6222 37.7215C80.0043 37.7215 80.3125 37.6856 80.3125 37.6432C80.3125 37.6009 80.0043 37.5649 79.6222 37.5649C79.2401 37.5649 78.9319 37.6009 78.9319 37.6432Z" fill="#EC6980"/>
<path d="M78.877 39.7468C78.877 39.7891 79.1979 39.8251 79.5948 39.8251C79.9916 39.8251 80.3125 39.7891 80.3125 39.7468C80.3125 39.7044 79.9916 39.6685 79.5948 39.6685C79.1979 39.6685 78.877 39.7044 78.877 39.7468Z" fill="#EC6980"/>
<path d="M78.877 42.1274C78.877 42.1697 79.1979 42.2036 79.5948 42.2036C79.9916 42.2036 80.3125 42.1697 80.3125 42.1274C80.3125 42.0851 79.9916 42.0491 79.5948 42.0491C79.1979 42.0491 78.877 42.0829 78.877 42.1274Z" fill="#EC6980"/>
<path d="M65.7927 42.0154C65.7927 42.0598 68.1908 42.0937 71.1483 42.0937C74.1058 42.0937 76.5039 42.0598 76.5039 42.0154C76.5039 41.971 74.1058 41.9392 71.1483 41.9392C68.1908 41.9392 65.7927 41.9731 65.7927 42.0154Z" fill="#263238"/>
<path d="M66.7302 39.7468C66.7302 39.7891 69.0185 39.8251 71.8388 39.8251C74.6591 39.8251 76.9453 39.7891 76.9453 39.7468C76.9453 39.7044 74.6591 39.6685 71.8388 39.6685C69.0185 39.6685 66.7302 39.7044 66.7302 39.7468Z" fill="#263238"/>
<path d="M42.0489 37.5334C42.0489 37.5757 49.8385 37.6096 59.4414 37.6096C69.0443 37.6096 76.8359 37.5757 76.8359 37.5334C76.8359 37.4911 69.0506 37.4551 59.4414 37.4551C49.8321 37.4551 42.0489 37.4889 42.0489 37.5334Z" fill="#263238"/>
<path d="M24.8042 30.4736V60.3207L29.4336 64.1913H24.8042H24.3482H5.22264V30.4736H24.8042Z" fill="white"/>
<path d="M24.8055 30.4736C24.8055 30.4736 24.6894 30.4736 24.4635 30.4736H23.4502H19.5512L5.22393 30.4524H5.18171V30.4947C5.18171 39.5035 5.18171 51.2696 5.16904 64.2124V64.2674H8.6184H29.4349H29.5742L29.4666 64.1764L24.835 60.3059L24.854 60.3439C24.8435 51.4199 24.835 43.9539 24.8287 38.7162C24.8287 36.1027 24.8181 34.0457 24.816 32.6406C24.816 31.9422 24.816 31.4068 24.816 31.0407C24.816 30.8629 24.816 30.7254 24.816 30.6323C24.816 30.5392 24.816 30.4968 24.816 30.4968C24.816 30.4968 24.816 30.5455 24.816 30.6386C24.816 30.7317 24.816 30.8714 24.816 31.0619C24.816 31.428 24.816 31.9676 24.816 32.6702C24.816 34.0775 24.816 36.1387 24.8034 38.7543C24.8034 43.9856 24.7907 51.4516 24.7802 60.3524V60.3736L24.797 60.3884L29.4243 64.2632L29.4581 64.1722H8.64162H5.24714L5.30203 64.2272C5.30203 51.2844 5.30203 39.5183 5.28937 30.5095L5.24714 30.5497L19.5491 30.5286L23.4333 30.4736H24.4551H24.8055Z" fill="#263238"/>
<path d="M23.0266 31.955C23.0266 32.0337 23.0499 32.1106 23.0935 32.176C23.1371 32.2414 23.199 32.2924 23.2716 32.3225C23.3441 32.3527 23.4239 32.3605 23.5009 32.3452C23.5779 32.3298 23.6486 32.2919 23.7041 32.2363C23.7596 32.1807 23.7974 32.1098 23.8127 32.0326C23.828 31.9554 23.8201 31.8754 23.7901 31.8027C23.7601 31.73 23.7092 31.6679 23.6439 31.6242C23.5787 31.5805 23.5019 31.5571 23.4234 31.5571C23.3182 31.5571 23.2173 31.599 23.1428 31.6737C23.0684 31.7483 23.0266 31.8495 23.0266 31.955Z" fill="#263238"/>
<path d="M21.5891 31.9547C21.5891 32.0334 21.6124 32.1103 21.656 32.1758C21.6996 32.2412 21.7615 32.2922 21.8341 32.3223C21.9066 32.3524 21.9864 32.3603 22.0634 32.3449C22.1404 32.3296 22.2111 32.2917 22.2666 32.2361C22.3221 32.1804 22.3599 32.1095 22.3752 32.0324C22.3905 31.9552 22.3826 31.8752 22.3526 31.8025C22.3226 31.7298 22.2717 31.6677 22.2064 31.6239C22.1412 31.5802 22.0644 31.5569 21.9859 31.5569C21.8807 31.5569 21.7797 31.5988 21.7053 31.6734C21.6309 31.748 21.5891 31.8492 21.5891 31.9547Z" fill="#263238"/>
<path d="M20.1555 31.955C20.1555 32.0337 20.1788 32.1106 20.2224 32.176C20.266 32.2414 20.328 32.2924 20.4005 32.3225C20.473 32.3527 20.5528 32.3605 20.6298 32.3452C20.7068 32.3298 20.7775 32.2919 20.833 32.2363C20.8885 32.1807 20.9263 32.1098 20.9416 32.0326C20.9569 31.9554 20.9491 31.8754 20.919 31.8027C20.889 31.73 20.8381 31.6679 20.7728 31.6242C20.7076 31.5805 20.6308 31.5571 20.5524 31.5571C20.4471 31.5571 20.3462 31.599 20.2717 31.6737C20.1973 31.7483 20.1555 31.8495 20.1555 31.955Z" fill="#263238"/>
<path d="M10.6045 41.1541C10.6045 41.19 13.087 41.2176 16.1479 41.2176C19.2089 41.2176 21.6914 41.19 21.6914 41.1541C21.6914 41.1181 19.211 41.0906 16.1479 41.0906C13.0849 41.0906 10.6045 41.1181 10.6045 41.1541Z" fill="#EC6980"/>
<path d="M8.29044 43.8543C8.29044 43.8881 11.3113 43.9177 15.0456 43.9177C18.78 43.9177 21.8008 43.8881 21.8008 43.8543C21.8008 43.8204 18.78 43.7908 15.0456 43.7908C11.3113 43.7908 8.29044 43.8183 8.29044 43.8543Z" fill="#EC6980"/>
<path d="M7.74429 53.9275C7.74429 53.9635 10.9657 53.991 14.9386 53.991C18.9114 53.991 22.1328 53.9635 22.1328 53.9275C22.1328 53.8915 18.9114 53.864 14.9386 53.864C10.9657 53.864 7.74429 53.8936 7.74429 53.9275Z" fill="#EC6980"/>
<path d="M20.6534 45.2278C21.1062 45.3124 21.5707 45.3124 22.0234 45.2278C21.5707 45.1431 21.1062 45.1431 20.6534 45.2278Z" fill="#EC6980"/>
<path d="M15.9274 45.2554C15.9274 45.2913 16.5945 45.3189 17.4051 45.3189C18.2157 45.3189 18.8828 45.2913 18.8828 45.2554C17.8924 45.1707 16.8967 45.1707 15.9063 45.2554H15.9274Z" fill="#EC6980"/>
<path d="M12.9055 45.2554C12.9055 45.2914 13.4754 45.3189 14.1721 45.3189C14.8687 45.3189 15.4492 45.2914 15.4492 45.2554C14.6006 45.1707 13.7457 45.1707 12.897 45.2554H12.9055Z" fill="#EC6980"/>
<path d="M20.8413 46.98C21.2308 47.0646 21.6339 47.0646 22.0234 46.98C21.6339 46.8953 21.2308 46.8953 20.8413 46.98Z" fill="#EC6980"/>
<path d="M20.7948 48.781C21.2 48.8656 21.6183 48.8656 22.0234 48.781C21.6186 48.6935 21.1997 48.6935 20.7948 48.781Z" fill="#EC6980"/>
<path d="M20.7948 50.8167C21.2 50.9013 21.6183 50.9013 22.0234 50.8167C21.6183 50.732 21.2 50.732 20.7948 50.8167Z" fill="#EC6980"/>
<path d="M9.5958 50.7214C9.5958 50.7574 11.6477 50.7849 14.1788 50.7849C16.7098 50.7849 18.7617 50.7574 18.7617 50.7214C18.7617 50.6855 16.7098 50.658 14.1788 50.658C11.6477 50.658 9.5958 50.6876 9.5958 50.7214Z" fill="#EC6980"/>
<path d="M10.4011 48.7809C10.4011 48.8148 12.358 48.8444 14.7709 48.8444C17.1837 48.8444 19.1406 48.8148 19.1406 48.7809C19.1406 48.7471 17.1858 48.7153 14.7709 48.7153C12.3559 48.7153 10.4011 48.745 10.4011 48.7809Z" fill="#EC6980"/>
<path d="M19.9003 56.6172C20.3055 56.7019 20.7237 56.7019 21.1289 56.6172C20.7237 56.5325 20.3055 56.5325 19.9003 56.6172Z" fill="#EC6980"/>
<path d="M19.9003 58.6552C20.3055 58.7399 20.7237 58.7399 21.1289 58.6552C20.724 58.5677 20.3052 58.5677 19.9003 58.6552Z" fill="#EC6980"/>
<path d="M8.70125 58.5601C8.70125 58.5939 10.7531 58.6235 13.2842 58.6235C15.8153 58.6235 17.8672 58.5939 17.8672 58.5601C17.8672 58.5262 15.8174 58.4966 13.2842 58.4966C10.751 58.4966 8.70125 58.5241 8.70125 58.5601Z" fill="#EC6980"/>
<path d="M9.50058 56.6172C9.50058 56.6532 11.4575 56.6807 13.8703 56.6807C16.2832 56.6807 18.2422 56.6532 18.2422 56.6172C18.2422 56.5812 16.2853 56.5537 13.8703 56.5537C11.4554 56.5537 9.50058 56.5812 9.50058 56.6172Z" fill="#EC6980"/>
<path d="M7.14933 46.8848C7.14933 46.9208 9.8134 46.9483 13.0981 46.9483C16.3828 46.9483 19.0469 46.9208 19.0469 46.8848C19.0469 46.8488 16.3828 46.8213 13.0981 46.8213C9.8134 46.8213 7.14933 46.8509 7.14933 46.8848Z" fill="#EC6980"/>
<path d="M5.40748 33.5166C5.40748 33.5505 9.70756 33.5801 15.0104 33.5801C20.3132 33.5801 24.6133 33.5505 24.6133 33.5166C24.6133 33.4828 20.3153 33.4531 15.0104 33.4531C9.70545 33.4531 5.40748 33.4806 5.40748 33.5166Z" fill="#263238"/>
<path d="M17.6419 39.5266C18.993 39.6113 20.3481 39.6113 21.6992 39.5266C21.6992 39.4906 20.7915 39.4631 19.6706 39.4631C18.5496 39.4631 17.6419 39.4906 17.6419 39.5266Z" fill="#EC6980"/>
<path d="M19.939 35.8423C19.939 35.8783 20.3612 35.9058 20.8953 35.9058C21.4294 35.9058 21.8516 35.8783 21.8516 35.8423C21.2168 35.7576 20.5737 35.7576 19.939 35.8423Z" fill="#EC6980"/>
<path d="M41.2088 74.0032L35.724 68.5676L45.5063 51.7749C46.5242 50.6071 47.813 49.708 49.259 49.1567L52.704 47.8436L61.269 46.2683L67.3475 48.679C68.0954 48.9739 68.7248 49.5089 69.1372 50.2005C69.5496 50.892 69.7218 51.701 69.6269 52.5011L68.0365 65.9222L67.0996 83.3947L45.0051 79.5508L47.2274 73.0887L47.1539 63.0092L41.2088 74.0032Z" fill="#EC6980"/>
<path d="M47.0282 72.6555C46.9764 72.6555 46.9628 69.1637 46.9982 64.8584C47.0336 60.5531 47.1017 57.0613 47.1534 57.0613C47.2052 57.0613 47.2188 60.5531 47.1834 64.8584C47.148 69.1637 47.0799 72.6555 47.0282 72.6555Z" fill="#263238"/>
<path d="M47.8348 75.2162L61.1792 69.8297C61.7072 69.6165 62.1655 69.2597 62.5023 68.7996C62.8391 68.3394 63.0411 67.7942 63.0855 67.2252L64.0605 54.3938C64.0605 54.3938 63.9461 48.9337 67.3448 48.6606L69.2811 49.4223C71.7839 50.7655 72.4021 54.4129 72.0562 57.2304C71.5742 61.2327 71.3726 66.8976 70.8307 70.373C70.3868 73.215 68.6847 75.4619 65.9886 76.4474L49.545 80.0157L47.8348 75.2162Z" fill="#EC6980"/>
<path d="M63.8731 56.3511C63.8529 56.4474 63.8392 56.545 63.8323 56.6432C63.8105 56.8534 63.7805 57.1346 63.7451 57.4895C63.6771 58.2403 63.5817 59.2996 63.4728 60.6018C63.3639 61.9041 63.2277 63.4848 63.0779 65.2184C63.0425 65.6525 63.0044 66.0975 62.9663 66.5534C62.9396 67.0117 62.8823 67.4678 62.7947 67.9184C62.7024 68.3775 62.4713 68.7969 62.1329 69.1197C61.766 69.4409 61.3493 69.7001 60.8992 69.8868C57.22 71.4839 53.8186 72.8026 51.3676 73.7281L48.4427 74.8201L47.6475 75.1122C47.5533 75.1418 47.4621 75.1802 47.3751 75.2269C47.4676 75.2068 47.5586 75.1804 47.6475 75.1477L48.4645 74.8747C49.1644 74.6426 50.172 74.2932 51.4111 73.8482C53.8866 72.95 57.2854 71.6641 60.9782 70.0506C61.4455 69.8545 61.8778 69.5834 62.2582 69.248C62.6226 68.9015 62.8709 68.4504 62.969 67.9567C63.0575 67.4952 63.1139 67.0281 63.1378 66.5589C63.176 66.1038 63.2114 65.6588 63.244 65.2238C63.3802 63.4875 63.5 61.9232 63.6035 60.6018C63.707 59.2805 63.7724 58.2403 63.8296 57.4868C63.8514 57.1319 63.8677 56.8479 63.8813 56.6377C63.8849 56.5421 63.8821 56.4463 63.8731 56.3511Z" fill="#263238"/>
<path d="M71.5121 63.3264C71.4932 63.3817 71.484 63.4399 71.4849 63.4984C71.4849 63.6322 71.4577 63.796 71.4413 63.9926C71.4005 64.4512 71.346 65.0655 71.2834 65.8135C71.2207 66.5616 71.1172 67.4953 70.9838 68.5054C70.852 69.6011 70.6501 70.6872 70.3792 71.7569C70.2548 72.3073 70.0345 72.8313 69.7283 73.3049C69.4334 73.7434 69.0998 74.1546 68.7316 74.5334C68.1078 75.1789 67.3863 75.7215 66.5938 76.1414C65.8563 76.5173 65.0654 76.777 64.249 76.9113C64.3069 76.9179 64.3654 76.9179 64.4233 76.9113C64.5897 76.902 64.7554 76.8811 64.9189 76.8485C65.5258 76.7335 66.1135 76.5331 66.6646 76.2534C67.478 75.8419 68.2194 75.3007 68.8596 74.6508C69.2389 74.2677 69.5817 73.85 69.8836 73.4032C70.2028 72.9143 70.4333 72.3727 70.5644 71.8033C70.8361 70.726 71.0345 69.6315 71.1581 68.5272C71.2806 67.5116 71.3623 66.5943 71.4304 65.8244C71.4985 65.0546 71.5149 64.4294 71.5312 63.998C71.5312 63.7987 71.5312 63.6349 71.5312 63.4984C71.5319 63.4405 71.5255 63.3827 71.5121 63.3264Z" fill="#263238"/>
<path d="M65.8125 72.3055C65.7791 72.0535 65.6967 71.8105 65.5701 71.5902C65.2962 71.0422 64.9155 70.5548 64.4506 70.1567C63.9856 69.7586 63.4459 69.4579 62.8631 69.2724C62.6269 69.1818 62.3753 69.1382 62.1224 69.1441C62.1224 69.1741 62.3947 69.2287 62.8195 69.3925C63.3706 69.6067 63.8823 69.9111 64.3337 70.2934C64.7828 70.6816 65.1631 71.1431 65.4585 71.6585C65.6872 72.0462 65.7934 72.3137 65.8125 72.3055Z" fill="#263238"/>
<g opacity="0.3">
<path d="M51.6727 73.6869C53.0997 72.8679 54.4968 72.2563 55.9892 71.5765C57.4815 70.8968 58.944 70.0231 59.9189 68.7045C61.7626 66.2147 61.5529 62.6219 63.4375 60.1648L63.0698 65.1199C62.9555 66.6351 63.1869 68.123 62.2147 69.1604C61.3977 70.0259 59.7964 70.692 58.6744 71.0715C56.4004 71.8223 53.9521 72.9389 51.6808 73.6924" fill="black"/>
</g>
<path opacity="0.3" d="M47.1523 58.0051L45.9976 65.147L47.0897 63.124L47.1523 58.0051Z" fill="black"/>
<path d="M64.277 53.5941C64.3781 53.616 64.4816 53.6243 64.5848 53.6187L65.429 53.6405C66.1398 53.6596 67.1202 53.6951 68.2014 53.7716C69.2825 53.848 70.2575 53.9545 70.9656 54.0446L71.8016 54.1428C71.9032 54.1605 72.0063 54.1679 72.1094 54.1647C72.0137 54.1251 71.9128 54.0993 71.8098 54.0882C71.6137 54.0473 71.3305 53.9981 70.9928 53.9435C70.2875 53.8343 69.3098 53.7142 68.2259 53.635C67.142 53.5559 66.1561 53.5368 65.4426 53.545C65.0859 53.545 64.7972 53.5586 64.5984 53.5695C64.4907 53.566 64.383 53.5743 64.277 53.5941Z" fill="#455A64"/>
<path d="M63.8852 60.435C63.8852 60.4732 65.6336 60.6506 67.7932 60.8281C69.9528 61.0055 71.7121 61.1229 71.7148 61.082C71.7176 61.041 69.9692 60.8663 67.8068 60.6861C65.6445 60.5059 63.8852 60.394 63.8852 60.435Z" fill="#455A64"/>
<path d="M63.252 67.6177C63.3368 67.6802 63.4281 67.7333 63.5243 67.776C63.7068 67.8716 63.9736 67.9972 64.3141 68.1391C66.0811 68.8799 67.9644 69.3032 69.8778 69.3895C70.2455 69.4059 70.5423 69.4059 70.7466 69.3895C70.8525 69.3954 70.9588 69.3871 71.0625 69.3649C70.9585 69.3442 70.8526 69.3341 70.7466 69.3349C70.5423 69.3349 70.2482 69.3103 69.8833 69.2803C68.9401 69.2138 68.0027 69.0806 67.0782 68.8817C66.1521 68.6743 65.242 68.4006 64.3549 68.0627C64.0145 67.9316 63.7394 67.8224 63.5379 67.7433C63.4477 67.6905 63.3518 67.6484 63.252 67.6177Z" fill="#455A64"/>
<path d="M58.5032 71.3042C58.9858 71.604 59.4303 71.9616 59.8268 72.3689C60.1882 72.8078 60.4979 73.2869 60.75 73.7968C60.7321 73.6261 60.6822 73.4603 60.6029 73.3081C60.2653 72.5458 59.6925 71.9123 58.9689 71.5008C58.8285 71.4044 58.6701 71.3376 58.5032 71.3042Z" fill="#455A64"/>
<path d="M53.6758 76.0326C53.4639 75.0418 52.9679 74.1347 52.2488 73.4226C52.2161 73.4499 52.6355 73.9686 53.0276 74.6921C53.4198 75.4156 53.6349 76.0462 53.6758 76.0326Z" fill="#455A64"/>
<path d="M61.2845 49.5803C61.9029 49.7638 62.5336 49.9025 63.1718 49.9953C63.7998 50.1325 64.4369 50.2237 65.0781 50.2683C64.4603 50.0829 63.8294 49.9442 63.1909 49.8533C62.5628 49.7161 61.9257 49.6249 61.2845 49.5803Z" fill="#455A64"/>
<path d="M48.5059 50.1652C49.3829 50.132 50.2574 50.0518 51.1258 49.9249C51.999 49.8455 52.8673 49.7179 53.7266 49.5427C52.8497 49.5775 51.9753 49.6577 51.1067 49.783C50.2336 49.8641 49.3655 49.9916 48.5059 50.1652Z" fill="#455A64"/>
<path d="M47.4165 56.1211C47.4716 56.1293 47.5276 56.1293 47.5827 56.1211H48.062H49.824C51.3109 56.1211 53.3643 56.1211 55.6329 56.1893C57.9014 56.2576 59.9521 56.3422 61.439 56.4214L63.1983 56.5142L63.6749 56.5333C63.7309 56.5417 63.7878 56.5417 63.8438 56.5333C63.7892 56.5201 63.7336 56.5119 63.6776 56.5088L63.201 56.4596C62.7871 56.4214 62.188 56.375 61.4445 56.3231C59.9603 56.2194 57.9041 56.1102 55.6356 56.0501C53.3671 55.99 51.3109 55.9955 49.8212 56.0228C49.0778 56.0365 48.4759 56.0528 48.062 56.0719L47.5827 56.0938C47.5266 56.0976 47.4709 56.1068 47.4165 56.1211Z" fill="#455A64"/>
<path d="M47.2564 63.6698C47.2564 63.708 50.7559 63.9701 55.0778 64.2568C59.3998 64.5435 62.9074 64.74 62.9102 64.7018C62.9129 64.6636 59.4107 64.3988 55.0887 64.1148C50.7668 63.8309 47.2591 63.6289 47.2564 63.6698Z" fill="#455A64"/>
<path d="M47.6315 70.3179C47.7251 70.3697 47.8236 70.4117 47.9257 70.4435C48.119 70.5172 48.3995 70.6127 48.7427 70.7165C49.4426 70.9458 50.4202 71.2324 51.5123 71.4973C52.6044 71.7621 53.6038 71.9505 54.331 72.0624C54.6959 72.1225 54.99 72.1634 55.1943 72.1852C55.3004 72.203 55.4081 72.2103 55.5156 72.2071C55.4144 72.17 55.3093 72.1444 55.2024 72.1306L54.35 71.9641C53.6283 71.8249 52.6343 71.6201 51.545 71.358C50.4556 71.0959 49.478 70.8257 48.7726 70.6209L47.9366 70.3779C47.8377 70.3454 47.7353 70.3252 47.6315 70.3179Z" fill="#455A64"/>
<path d="M42.0297 58.2683C42.8637 58.5582 43.7129 58.8025 44.5733 59C45.4218 59.2442 46.2827 59.4429 47.1523 59.5951C46.318 59.3061 45.469 59.0619 44.6088 58.8635C43.7606 58.618 42.8996 58.4193 42.0297 58.2683Z" fill="#455A64"/>
<path d="M44.701 53.1651C45.0632 53.3026 45.441 53.3943 45.8258 53.4381C46.2037 53.5304 46.5915 53.5762 46.9805 53.5746C46.6167 53.4392 46.2383 53.3475 45.853 53.3016C45.476 53.2094 45.0891 53.1635 44.701 53.1651Z" fill="#455A64"/>
<path d="M63.8322 54.7485C63.8594 54.7485 63.903 54.2953 64.1508 53.61C64.4724 52.7143 65.0103 51.9124 65.7165 51.2759C66.4226 50.6394 67.2751 50.1882 68.1977 49.9626C68.9057 49.7879 69.366 49.7961 69.3633 49.7688C69.2573 49.7497 69.1492 49.7451 69.0419 49.7552C68.7505 49.767 68.4607 49.8045 68.1759 49.8671C67.2252 50.0691 66.3443 50.5182 65.6215 51.1695C64.8987 51.8207 64.3596 52.6511 64.0582 53.5773C63.9646 53.8543 63.8972 54.1394 63.8567 54.4291C63.834 54.5339 63.8257 54.6414 63.8322 54.7485Z" fill="#263238"/>
<path d="M47.9258 51.1096C47.7208 51.9316 47.5635 52.7647 47.4546 53.6049C47.2966 54.4378 47.1866 55.2792 47.1251 56.1248C47.3269 55.3014 47.4833 54.4674 47.5935 53.6268C47.7513 52.7946 47.8622 51.9542 47.9258 51.1096Z" fill="#263238"/>
<path d="M33.0463 91.3484C33.0463 91.3484 22.7847 94.1931 22.3735 94.3515C21.7553 94.5699 21.8588 96.8386 22.8201 96.8086C23.2749 96.7922 30.7015 97.0816 31.641 97.027C32.5806 96.9724 35.4102 95.8503 35.4102 95.8503L33.0463 91.3484Z" fill="#EC6980"/>
<path d="M28.7731 95.2712C28.7214 95.2712 28.6533 94.7252 28.3211 94.1791C27.9888 93.6331 27.564 93.2728 27.5966 93.2318C27.6293 93.1909 28.125 93.483 28.4708 94.0918C28.8167 94.7006 28.8167 95.2766 28.7731 95.2712Z" fill="#263238"/>
<path d="M29.8457 94.785C29.7967 94.785 29.6932 94.3072 29.4181 93.7694C29.1431 93.2315 28.8217 92.8575 28.8735 92.822C29.1912 93.036 29.4393 93.3389 29.587 93.6929C29.8457 94.2717 29.8866 94.7822 29.8457 94.785Z" fill="#263238"/>
<path d="M30.8465 94.5171C30.7947 94.5171 30.8465 93.9984 30.6068 93.4251C30.3672 92.8517 30.0104 92.5023 30.0458 92.4641C30.0812 92.4259 30.5279 92.7371 30.7648 93.365C31.0017 93.9929 30.8873 94.5444 30.8465 94.5171Z" fill="#263238"/>
<path d="M30.6601 93.1806C30.5688 92.9358 30.5308 92.6742 30.5485 92.4134C30.5519 92.1309 30.5875 91.8497 30.6547 91.5753C30.693 91.4123 30.744 91.2526 30.8072 91.0975C30.8384 91.0007 30.8948 90.914 30.9706 90.8464C31.0217 90.807 31.0849 90.7871 31.1492 90.7901C31.2136 90.7931 31.2747 90.8188 31.3219 90.8628C31.4023 90.9398 31.4517 91.0437 31.4608 91.1549C31.4662 91.2458 31.4662 91.337 31.4608 91.4279C31.4601 91.5981 31.4391 91.7677 31.3982 91.9329C31.329 92.2082 31.2227 92.4727 31.0823 92.7192C30.9679 92.9523 30.8119 93.1623 30.622 93.3389C30.5975 93.3226 30.7691 93.0823 30.976 92.6619C31.0961 92.4185 31.1875 92.162 31.2484 91.8975C31.2803 91.743 31.2968 91.5857 31.2974 91.4279C31.2974 91.2695 31.2974 91.073 31.2021 90.9965C31.1838 90.9788 31.1594 90.969 31.134 90.969C31.1086 90.969 31.0842 90.9788 31.0659 90.9965C31.0136 91.0457 30.9751 91.1079 30.9543 91.1767C30.8925 91.3241 30.8406 91.4755 30.799 91.6299C30.7271 91.8922 30.6814 92.1611 30.6629 92.4326C30.6438 92.9076 30.6901 93.1806 30.6601 93.1806Z" fill="#263238"/>
<path d="M30.6611 93.0844C30.8708 92.9957 31.0986 92.9582 31.3256 92.9752C31.5707 92.9753 31.8149 93.0055 32.0527 93.0653C32.1991 93.097 32.3403 93.1494 32.4721 93.2209C32.5561 93.2635 32.6241 93.3324 32.6658 93.417C32.7076 93.5017 32.7208 93.5976 32.7036 93.6904C32.6806 93.7793 32.634 93.8602 32.5688 93.9246C32.5036 93.9891 32.4222 94.0345 32.3332 94.0563C32.1822 94.0945 32.024 94.0945 31.873 94.0563C31.6302 93.9934 31.4031 93.881 31.2057 93.7259C31.02 93.5983 30.8586 93.4383 30.7292 93.2536C30.9196 93.3638 31.1016 93.4879 31.2738 93.6249C31.4642 93.7554 31.6777 93.8481 31.9029 93.8979C32.0281 93.9294 32.159 93.9294 32.2842 93.8979C32.3434 93.8828 32.3977 93.8524 32.4416 93.8098C32.4856 93.7672 32.5177 93.7138 32.5347 93.655C32.5439 93.5967 32.534 93.537 32.5065 93.4848C32.479 93.4326 32.4354 93.3908 32.3822 93.3656C32.2642 93.3022 32.1389 93.2536 32.0091 93.2209C31.7832 93.1576 31.5514 93.1173 31.3174 93.1007C30.9334 93.0707 30.6801 93.1117 30.6611 93.0844Z" fill="#263238"/>
<path d="M27.1958 95.3835C27.1468 95.3835 27.1958 94.9385 26.9943 94.4553C26.7928 93.9721 26.4496 93.6881 26.4932 93.6499C26.5368 93.6117 26.9371 93.8519 27.1522 94.3898C27.3674 94.9276 27.2394 95.3999 27.1958 95.3835Z" fill="#263238"/>
<path d="M34.3555 95.8581C34.2307 95.9336 34.0983 95.9959 33.9606 96.0437C33.588 96.1886 33.2058 96.3072 32.8168 96.3987C31.5312 96.6809 30.2162 96.8056 28.9006 96.7699C27.3619 96.7536 25.9757 96.6853 24.9708 96.6444L23.7834 96.5816C23.6371 96.58 23.4912 96.5645 23.3477 96.5352C23.4926 96.5117 23.6397 96.5043 23.7862 96.5133H24.9763L28.9006 96.5898C30.2054 96.6222 31.5098 96.516 32.7923 96.2731C33.7727 96.0792 34.3446 95.8253 34.3555 95.8581Z" fill="#263238"/>
<path d="M34.6602 96.0928C34.6602 96.1146 34.366 95.9508 33.8922 95.7433C33.2882 95.4543 32.6153 95.3417 31.9504 95.4185C31.2966 95.5606 30.7068 95.9123 30.2701 96.4204C30.0872 96.6358 29.8898 96.8383 29.6792 97.0265C29.8154 96.7746 29.9848 96.5423 30.183 96.3358C30.3842 96.0986 30.6117 95.8852 30.8611 95.6997C31.1743 95.467 31.5385 95.3125 31.9232 95.2492C32.6161 95.1682 33.317 95.3036 33.9303 95.6369C34.1965 95.7485 34.4429 95.9024 34.6602 96.0928Z" fill="#263238"/>
<path d="M45.1906 88.9587C45.1906 88.9587 54.8994 95.3308 55.2507 95.5956C55.7736 95.9914 55.1744 97.8779 54.2675 97.5503C53.84 97.3974 45.6917 95.1233 44.8148 94.782C43.9379 94.4407 41.5795 92.5133 41.5795 92.5133L45.1906 88.9587Z" fill="#EC6980"/>
<path d="M48.0762 93.9985C48.0353 93.9985 48.2069 93.428 48.7271 92.9584C49.2472 92.4888 49.8164 92.3605 49.8164 92.4124C49.8164 92.4642 49.3208 92.6472 48.8387 93.0922C48.3567 93.5372 48.1225 94.0231 48.0762 93.9985Z" fill="#263238"/>
<path d="M47.2007 93.2094C47.1598 93.1958 47.3477 92.7044 47.7916 92.2539C48.2355 91.8034 48.7176 91.5987 48.7339 91.6396C48.7502 91.6806 48.3336 91.94 47.9169 92.374C47.5002 92.8081 47.247 93.234 47.2007 93.2094Z" fill="#263238"/>
<path d="M46.3262 92.6474C46.2826 92.6474 46.3262 92.1013 46.751 91.5772C47.1759 91.053 47.6988 90.8974 47.7069 90.9411C47.7151 90.9847 47.2657 91.2141 46.8899 91.6864C46.5141 92.1587 46.3752 92.661 46.3262 92.6474Z" fill="#263238"/>
<path d="M46.9021 91.4383C46.8776 91.4383 47.011 91.1653 47.1227 90.7093C47.1864 90.4452 47.2247 90.1755 47.237 89.904C47.2464 89.7439 47.2464 89.5835 47.237 89.4235C47.2369 89.352 47.2191 89.2816 47.1853 89.2187C47.1709 89.1978 47.1492 89.1831 47.1244 89.1775C47.0997 89.172 47.0738 89.1759 47.0519 89.1887C46.9402 89.2324 46.883 89.4207 46.8313 89.5709C46.7832 89.7208 46.7512 89.8755 46.736 90.0323C46.7109 90.3053 46.7191 90.5803 46.7605 90.8513C46.8285 91.3127 46.9184 91.5939 46.8912 91.6021C46.7629 91.3769 46.6779 91.1297 46.6406 90.8731C46.5812 90.5952 46.5602 90.3105 46.578 90.0268C46.5898 89.8573 46.6208 89.6897 46.6706 89.5272C46.6968 89.4406 46.7287 89.3558 46.7659 89.2733C46.8076 89.171 46.885 89.0876 46.9838 89.0385C47.042 89.0107 47.1081 89.0045 47.1705 89.021C47.2328 89.0375 47.2873 89.0756 47.3242 89.1286C47.3758 89.2164 47.4039 89.3161 47.4059 89.418C47.4168 89.5853 47.4168 89.7531 47.4059 89.9203C47.3868 90.1986 47.3347 90.4735 47.2507 90.7394C47.1874 90.9953 47.0683 91.234 46.9021 91.4383Z" fill="#263238"/>
<path d="M46.9258 91.3344C46.9122 91.359 46.6861 91.2443 46.294 91.1487C46.0663 91.0937 45.8336 91.0617 45.5995 91.0532C45.4656 91.0449 45.3311 91.0531 45.1992 91.0778C45.1415 91.0858 45.0879 91.1121 45.0462 91.1529C45.0046 91.1937 44.9771 91.2467 44.9677 91.3044C44.9656 91.366 44.9796 91.4271 45.0082 91.4817C45.0369 91.5363 45.0792 91.5824 45.1311 91.6156C45.2407 91.6837 45.3648 91.7249 45.4933 91.7357C45.7225 91.7568 45.9536 91.7336 46.1742 91.6675C46.3812 91.5903 46.5932 91.5274 46.8087 91.4791C46.63 91.6173 46.4266 91.7201 46.2096 91.7821C45.9761 91.8714 45.7263 91.9096 45.477 91.8941C45.3209 91.884 45.1695 91.8362 45.0358 91.7548C44.9583 91.7059 44.8952 91.637 44.853 91.5554C44.8109 91.4738 44.7913 91.3825 44.7961 91.2907C44.8074 91.197 44.8489 91.1095 44.9142 91.0415C44.9796 90.9735 45.0653 90.9287 45.1583 90.914C45.3057 90.8877 45.4559 90.8813 45.605 90.8949C45.8502 90.9105 46.0926 90.9564 46.3267 91.0314C46.5468 91.0853 46.7517 91.1889 46.9258 91.3344Z" fill="#263238"/>
<path d="M53.033 97.1952C53.033 97.2116 52.8696 97.097 52.7933 96.8185C52.7155 96.4559 52.7809 96.0772 52.9758 95.7619C53.0716 95.5915 53.1809 95.429 53.3026 95.276C53.3954 95.1429 53.5063 95.0234 53.6321 94.9211C53.7209 94.8484 53.8287 94.8029 53.9426 94.79C54.0215 94.79 54.0651 94.8064 54.0624 94.8173C53.9314 94.8559 53.8105 94.923 53.7083 95.0139C53.6064 95.1232 53.5152 95.242 53.436 95.3688C53.3263 95.5218 53.2245 95.6804 53.131 95.8439C52.9581 96.1286 52.8834 96.4624 52.9186 96.7939C52.9494 96.9297 52.9876 97.0636 53.033 97.1952Z" fill="#263238"/>
<path d="M49.5466 94.586C49.5003 94.586 49.514 94.0946 49.8871 93.6524C50.2602 93.2101 50.7395 93.1063 50.7422 93.15C50.7449 93.1937 50.35 93.3575 50.0205 93.7643C49.691 94.1711 49.5957 94.5942 49.5466 94.586Z" fill="#263238"/>
<path d="M42.5771 92.8572C42.7276 92.9433 42.8706 93.0419 43.0047 93.152C43.389 93.4193 43.7882 93.6645 44.2002 93.8864C44.8165 94.2109 45.4533 94.4945 46.1065 94.7355C46.8418 95.0085 47.667 95.2678 48.5385 95.5217C50.2869 96.0268 51.8691 96.4882 53.0102 96.8322L54.3719 97.2471C54.5394 97.2901 54.7026 97.3486 54.8594 97.4219C54.6878 97.3982 54.5184 97.3608 54.3528 97.3099L52.9912 96.9496C51.8419 96.6356 50.2678 96.1933 48.5085 95.6883C47.6343 95.4344 46.8064 95.1696 46.0575 94.8829C45.4013 94.6333 44.7641 94.3358 44.1512 93.9929C43.7387 93.7602 43.3446 93.4965 42.972 93.2039C42.8286 93.1026 42.6962 92.9864 42.5771 92.8572Z" fill="#263238"/>
<path d="M42.2216 92.9892C42.4805 92.8729 42.7563 92.7992 43.0386 92.7708C43.7278 92.6403 44.4404 92.7271 45.0784 93.0192C45.4254 93.1971 45.7251 93.4555 45.9526 93.7727C46.1349 94.0274 46.2875 94.3022 46.4074 94.5918C46.5347 94.8511 46.6264 95.1267 46.6797 95.4108C46.536 95.1679 46.4095 94.9152 46.3011 94.6545C46.0697 94.2013 45.7047 93.5379 45.0048 93.1885C44.3929 92.9173 43.7176 92.8228 43.0549 92.9155C42.5429 92.9455 42.227 93.0165 42.2216 92.9892Z" fill="#263238"/>
<path d="M25.0045 73.0209C25.0045 73.0209 22.0932 74.0693 22.0796 77.3454C22.0578 83.6246 34.7214 90.5317 34.7214 90.5317L51.5762 79.3383L52.6328 78.9097C52.6328 78.9097 29.882 70.3318 25.0045 73.0209Z" fill="#263238"/>
<path d="M43.0391 84.9901C42.8837 84.9054 42.7368 84.8057 42.6006 84.6926C42.3283 84.4933 41.9307 84.1929 41.4459 83.8189C40.4818 83.0736 39.1692 82.0116 37.7558 80.7967C36.3424 79.5818 35.1005 78.4407 34.2154 77.5971C33.7742 77.1766 33.4202 76.8299 33.1806 76.5869C33.0489 76.4683 32.9285 76.3376 32.8211 76.1965C32.9652 76.2992 33.1009 76.4133 33.2268 76.5378L34.2971 77.507C35.2013 78.326 36.4567 79.4535 37.8674 80.6657C39.2781 81.8778 40.5744 82.9535 41.5194 83.7261L42.6442 84.6325C42.7853 84.7407 42.9174 84.8603 43.0391 84.9901Z" fill="#455A64"/>
<path d="M29.7616 75.3634C30.3102 75.2771 30.8717 75.3287 31.3956 75.5136C32.2752 75.7702 32.8662 76.2398 32.8389 76.2725C32.8117 76.3053 32.1962 75.9258 31.3466 75.6774C30.4969 75.4289 29.7616 75.418 29.7616 75.3634Z" fill="#455A64"/>
<path d="M31.2076 74.375C31.6093 74.5172 31.9575 74.7804 32.2043 75.1285C32.6537 75.6745 32.7735 76.2615 32.7299 76.2669C32.6864 76.2724 32.4957 75.7592 32.0709 75.2377C31.646 74.7163 31.1912 74.4214 31.2076 74.375Z" fill="#455A64"/>
<path d="M24.0798 94.2366C24.0798 94.2175 24.2814 94.1765 24.5156 94.3676C24.7886 94.6259 24.9605 94.9735 25.0003 95.3477C25.0588 95.7188 25.0057 96.099 24.8478 96.4397C24.728 96.6964 24.5973 96.8192 24.5755 96.8056C24.5537 96.7919 24.6436 96.6472 24.728 96.3961C24.8372 96.0703 24.8698 95.7237 24.8233 95.3832C24.7853 95.0453 24.6467 94.7266 24.4257 94.4686C24.2541 94.2721 24.0771 94.2721 24.0798 94.2366Z" fill="#263238"/>
<path d="M26.214 64.113L31.0071 77.0727C31.1408 77.434 31.3827 77.7449 31.6996 77.9629C32.0165 78.1809 32.3929 78.2952 32.7772 78.2903L59.1719 77.9409V75.9315L49.3678 76.2892L45.212 63.365C45.143 63.1523 45.0086 62.9669 44.8281 62.8355C44.6476 62.7041 44.4302 62.6333 44.2071 62.6333L27.1808 62.6824C27.0118 62.6855 26.846 62.7292 26.6975 62.8099C26.5489 62.8906 26.4218 63.006 26.327 63.1462C26.2323 63.2865 26.1725 63.4475 26.1528 63.6158C26.1332 63.784 26.1541 63.9546 26.214 64.113Z" fill="#E0E0E0"/>
<path d="M26.2106 64.1128C26.2106 64.1128 26.2106 64.1128 26.2106 64.0718C26.1962 64.0328 26.1853 63.9926 26.178 63.9517C26.1386 63.7912 26.1386 63.6235 26.178 63.463C26.2329 63.2504 26.3538 63.0608 26.5231 62.9215C26.6925 62.7822 26.9015 62.7003 27.1202 62.6877C27.3 62.6877 27.4988 62.6877 27.7058 62.6877H34.8082H39.7838H42.5807H44.0485C44.2933 62.6634 44.5394 62.7179 44.7512 62.8433C44.9618 62.9761 45.1175 63.1806 45.1896 63.4193L49.3346 76.3217V76.3517H49.3672L59.1713 75.9968L59.1277 75.9532V77.9625L59.1685 77.9215L42.5725 78.1427L35.3584 78.2437L33.6944 78.2655H32.8774C32.6174 78.281 32.3569 78.2429 32.1121 78.1536C31.8743 78.0668 31.6573 77.9311 31.4748 77.7553C31.2924 77.5794 31.1486 77.3673 31.0528 77.1326C30.8785 76.663 30.7069 76.2016 30.538 75.7539C29.2009 72.1583 28.1197 69.2535 27.3735 67.2442C26.9977 66.245 26.709 65.4669 26.5102 64.9373C26.3114 64.4076 26.2052 64.1374 26.2052 64.1374C26.2052 64.1374 26.3005 64.4104 26.4939 64.9564L27.349 67.2442C28.0898 69.2563 29.16 72.1583 30.489 75.7621L31.001 77.1462C31.0997 77.3883 31.2475 77.6072 31.435 77.7891C31.6226 77.971 31.8457 78.1118 32.0903 78.2028C32.3437 78.2959 32.6133 78.3367 32.8828 78.3229H33.6998L35.3611 78.301L42.5752 78.2109L59.174 77.9953H59.2148V75.8986H59.1713L49.3672 76.2589L49.4081 76.289L45.2523 63.3893C45.1761 63.1341 45.0095 62.9157 44.7838 62.775C44.5604 62.6435 44.3011 62.5861 44.0431 62.6112H42.5752H39.7783L34.8028 62.6331L27.7003 62.6658C27.4933 62.6658 27.2973 62.6658 27.1121 62.6658C26.8888 62.6805 26.6759 62.7659 26.5041 62.9097C26.3323 63.0534 26.2105 63.2481 26.1562 63.4658C26.1159 63.6271 26.1159 63.7958 26.1562 63.9572C26.1699 64.0105 26.1881 64.0626 26.2106 64.1128Z" fill="#263238"/>
<path d="M37.916 69.0074C37.7119 68.9038 37.4822 68.8616 37.2546 68.8858C37.027 68.91 36.8113 68.9996 36.6333 69.1439C36.483 69.2875 36.3789 69.4728 36.3342 69.6761C36.2896 69.8794 36.3065 70.0915 36.3828 70.2851C36.4656 70.4759 36.5995 70.6399 36.7697 70.7589C36.9399 70.878 37.1397 70.9474 37.3469 70.9594C37.5668 70.9737 37.7853 70.9156 37.9692 70.7938C38.1531 70.6721 38.2922 70.4934 38.3654 70.2851C38.488 69.8619 38.3654 69.2313 37.916 69.0074Z" fill="white"/>
<path d="M31.8816 91.2276C31.8816 91.2276 55.6673 75.9555 56.7158 75.3549C57.609 74.8444 60.0001 73.3701 62.3558 74.0226C64.7115 74.6751 66.8248 76.7991 67.8815 79.8868C68.4833 81.6559 68.7693 84.6727 68.9027 86.9359C69.0827 89.646 68.2037 92.3199 66.4517 94.3918C65.6765 95.3581 64.6488 96.0896 63.4833 96.5049C63.2354 96.5813 62.9767 96.6468 62.7126 96.7042C58.2109 97.6843 53.5839 95.6585 51.0539 91.79L50.5093 90.9437C50.5093 90.9437 34.9317 96.6769 34.6894 96.5977L31.8816 91.2276Z" fill="#263238"/>
<path d="M55.4887 76.2009C55.4887 76.2009 55.5105 76.2009 55.5486 76.1654L55.7147 76.0508C55.8618 75.9498 56.0769 75.8023 56.3574 75.6194C57.1496 75.098 57.9972 74.6667 58.8847 74.3336C59.4974 74.1079 60.1395 73.9727 60.791 73.9322C61.534 73.9011 62.2754 74.0228 62.9697 74.2899C63.7402 74.5882 64.4519 75.0207 65.0721 75.5675C65.4041 75.8525 65.7162 76.1599 66.0062 76.4876C66.2995 76.825 66.5586 77.1908 66.7797 77.5796C67.2173 78.3549 67.5611 79.1797 67.8036 80.0367C68.0297 80.8694 68.2094 81.6911 68.3783 82.4665C68.6925 83.84 68.8749 85.2406 68.9229 86.649C68.9399 87.5991 68.8679 88.5488 68.7078 89.4855C68.656 89.8186 68.5961 90.0725 68.5607 90.2472L68.5226 90.4465C68.519 90.4691 68.519 90.4922 68.5226 90.5148C68.532 90.4937 68.5393 90.4717 68.5444 90.4492C68.5444 90.3974 68.5771 90.3318 68.5961 90.2527C68.6424 90.0807 68.7105 89.8295 68.7704 89.4964C68.9567 88.5589 69.048 87.6049 69.0428 86.649C69.0063 85.2345 68.8302 83.8271 68.5172 82.4474C68.3483 81.6666 68.174 80.8503 67.9507 80.0067C67.7035 79.1388 67.3552 78.3031 66.9131 77.5168C66.6873 77.1177 66.4228 76.7418 66.1233 76.3948C65.8285 76.0618 65.5109 75.7498 65.1729 75.4611C64.5392 74.9063 63.8127 74.4682 63.0269 74.167C62.3121 73.8954 61.5491 73.7746 60.7856 73.8121C60.1259 73.8609 59.4765 74.0043 58.8575 74.238C57.9658 74.5803 57.1182 75.0285 56.3329 75.573C56.0606 75.7641 55.8454 75.9197 55.7038 76.0289L55.5459 76.1545C55.5245 76.1669 55.5052 76.1826 55.4887 76.2009Z" fill="#455A64"/>
<path d="M61.3398 86.9166C61.2974 86.9391 61.2538 86.9592 61.2091 86.9767L60.8197 87.1296L59.311 87.7193L53.7009 89.8378C51.3179 90.7278 48.4611 91.7898 45.2585 92.9583C42.0558 94.1268 38.5073 95.4154 34.7164 96.6931L34.6456 96.7149L34.613 96.6521C34.0193 95.5109 33.3902 94.3097 32.7529 93.0893L31.8052 91.2684L31.7671 91.1974L31.8351 91.1564L49.9971 79.5973L55.4438 76.1464L56.9253 75.2182L57.312 74.9834C57.3551 74.9556 57.3997 74.9301 57.4455 74.907C57.4455 74.907 57.4046 74.9397 57.3202 74.9971L56.9416 75.2482L55.4765 76.201L50.0489 79.6955L31.9168 91.3011L31.9468 91.1892C32.2464 91.7653 32.5677 92.3822 32.8945 93.0047L34.7518 96.5675L34.6511 96.5238C38.4393 95.2407 41.9905 93.9657 45.1959 92.8081L53.6382 89.7259L59.2674 87.6565L60.787 87.1105L61.1819 86.9712L61.3398 86.9166Z" fill="#455A64"/>
<path d="M60.1065 36.2495C60.5525 35.4465 60.907 34.5957 61.1632 33.7132C61.4188 32.8236 61.369 31.8737 61.0216 31.0159C60.801 30.5272 60.4524 30.0986 60.2781 29.5908C60.0412 28.8919 60.1392 28.0674 59.7062 27.4695C59.0335 26.5331 57.5902 26.7515 56.5471 26.2628C55.7301 25.8806 55.1664 25.0589 54.314 24.7831C53.5678 24.5429 52.7535 24.7831 52.0345 25.0834C51.3156 25.3837 50.6102 25.7851 49.8341 25.8861C49.2762 25.9175 48.7171 25.9175 48.1592 25.8861C47.5937 25.8625 47.0407 26.058 46.6151 26.4321C46.2229 26.8279 46.1412 27.5623 46.5661 27.9254C45.5884 27.7589 44.6597 28.7445 44.6815 29.73C44.7033 30.7156 45.4413 31.5974 46.3428 32.0124C47.2442 32.4274 48.2709 32.4519 49.2594 32.3728C52.0563 32.1543 54.8668 31.0896 56.7704 29.0257" fill="#EC6980"/>
<path d="M59.5077 32.7415L61.414 46.624C61.4911 47.1834 61.4539 47.7526 61.3048 48.2972C61.1556 48.8417 60.8975 49.3502 60.5463 49.7917C60.1951 50.2331 59.7579 50.5984 59.2615 50.8653C58.7651 51.1322 58.2197 51.2952 57.6586 51.3443C56.5946 51.4369 55.5358 51.1158 54.7014 50.4475C53.867 49.7793 53.3208 48.815 53.1759 47.7542C53.0343 46.7086 52.9036 45.8432 52.9036 45.7312C52.9036 45.7312 49.3333 45.8841 48.598 42.4224C48.244 40.7488 47.781 37.2352 47.4215 34.0656C47.2303 32.4232 47.6617 30.7687 48.6302 29.4302C49.5987 28.0916 51.0336 27.1668 52.6503 26.839L52.9853 26.7735C56.6291 26.2575 59.0992 29.075 59.5077 32.7415Z" fill="#FFBE9D"/>
<path d="M52.8696 45.676C54.4738 45.3869 55.9562 44.6267 57.1289 43.4919C57.1289 43.4919 56.5597 46.2056 53.0439 46.5851L52.8696 45.676Z" fill="#EB996E"/>
<path d="M48.9557 37.0169C48.9803 37.1465 49.0544 37.2614 49.1623 37.3369C49.2702 37.4124 49.4033 37.4426 49.5331 37.421C49.5966 37.4133 49.6579 37.3929 49.7135 37.3612C49.7691 37.3295 49.8179 37.2869 49.8569 37.2361C49.896 37.1853 49.9245 37.1272 49.9409 37.0652C49.9573 37.0032 49.9613 36.9385 49.9525 36.875C49.9285 36.7454 49.855 36.6304 49.7477 36.5544C49.6403 36.4784 49.5076 36.4475 49.3778 36.4682C49.3138 36.4756 49.2519 36.4957 49.1958 36.5275C49.1397 36.5593 49.0905 36.602 49.0511 36.6532C49.0118 36.7043 48.9831 36.7629 48.9667 36.8254C48.9503 36.8879 48.9466 36.953 48.9557 37.0169Z" fill="#263238"/>
<path d="M48.4897 35.6194C48.5632 35.6713 48.8819 35.3191 49.4156 35.2154C49.9494 35.1116 50.3906 35.2973 50.4342 35.2154C50.456 35.1799 50.3715 35.0762 50.1618 34.9861C49.9047 34.8742 49.6194 34.8447 49.3448 34.9014C49.0674 34.9554 48.8145 35.097 48.6232 35.3055C48.4843 35.4693 48.4516 35.5976 48.4897 35.6194Z" fill="#263238"/>
<path d="M53.9202 36.1568C53.9448 36.2864 54.0189 36.4012 54.1268 36.4767C54.2347 36.5522 54.3678 36.5824 54.4976 36.5608C54.5612 36.5535 54.6228 36.5334 54.6786 36.5017C54.7343 36.4701 54.7832 36.4276 54.8223 36.3767C54.8614 36.3257 54.89 36.2675 54.9062 36.2053C54.9225 36.1432 54.9261 36.0784 54.917 36.0148C54.893 35.8854 54.8195 35.7706 54.712 35.6951C54.6045 35.6195 54.4718 35.5893 54.3423 35.6108C54.2786 35.6182 54.2169 35.6382 54.161 35.6698C54.1051 35.7014 54.056 35.7439 54.0167 35.7948C53.9774 35.8456 53.9486 35.9039 53.932 35.966C53.9155 36.0282 53.9114 36.093 53.9202 36.1568Z" fill="#263238"/>
<path d="M53.737 34.672C53.8132 34.7239 54.1319 34.3717 54.6656 34.2652C55.1994 34.1587 55.6406 34.3498 55.6842 34.2652C55.706 34.2297 55.6215 34.126 55.4118 34.0359C55.1547 33.924 54.8694 33.8945 54.5948 33.9512C54.3181 34.0056 54.0656 34.146 53.8731 34.3526C53.7342 34.5218 53.7016 34.6474 53.737 34.672Z" fill="#263238"/>
<path d="M52.5938 39.0155C52.2956 38.9824 51.9945 38.9879 51.6978 39.0319C51.5589 39.0455 51.4254 39.0319 51.3846 38.9555C51.3411 38.8178 51.3411 38.67 51.3846 38.5323C51.4445 38.1774 51.5099 37.8061 51.5779 37.4157C51.8503 35.8268 52.0028 34.5327 51.9402 34.5218C51.8775 34.5109 51.6106 35.7913 51.3465 37.3802C51.2866 37.7706 51.2266 38.1419 51.1694 38.4995C51.1185 38.6802 51.131 38.873 51.2049 39.0455C51.2353 39.0907 51.2757 39.1282 51.3229 39.1552C51.3701 39.1822 51.4229 39.1979 51.4772 39.2012C51.5565 39.2061 51.6362 39.2006 51.7141 39.1848C52.0133 39.1659 52.3089 39.109 52.5938 39.0155Z" fill="#263238"/>
<path d="M54.2332 39.0692C54.146 39.0692 54.2604 39.6617 53.8465 40.1613C53.4325 40.6609 52.8061 40.7319 52.8198 40.8138C52.8198 40.852 52.9777 40.8984 53.2391 40.8547C53.5789 40.7906 53.8854 40.6089 54.1052 40.3415C54.3099 40.083 54.4074 39.7555 54.3775 39.4269C54.353 39.1894 54.2713 39.0583 54.2332 39.0692Z" fill="#263238"/>
<path d="M53.1841 32.6072C53.2658 32.741 53.7832 32.5662 54.4232 32.5171C55.0632 32.4679 55.5997 32.5362 55.6569 32.3915C55.6814 32.3205 55.567 32.2031 55.3355 32.1021C55.0291 31.9861 54.7006 31.9408 54.3743 31.9696C54.048 31.9985 53.7324 32.1007 53.451 32.2687C53.2413 32.4052 53.1487 32.5444 53.1841 32.6072Z" fill="#EC6980"/>
<path d="M48.3639 34.0356C48.4838 34.1394 48.8242 33.9401 49.2626 33.8445C49.7011 33.749 50.0797 33.7626 50.1559 33.6207C50.1804 33.5497 50.0987 33.4405 49.9108 33.3477C49.6645 33.2543 49.3961 33.2363 49.1396 33.2961C48.8831 33.3559 48.6501 33.4907 48.4702 33.6835C48.3503 33.85 48.3231 33.9865 48.3639 34.0356Z" fill="#EC6980"/>
<path d="M59.7346 35.368C59.7891 35.3298 61.9732 34.1859 62.3708 36.5747C62.7684 38.9635 60.2929 38.8707 60.2793 38.8024C60.2657 38.7342 59.7346 35.368 59.7346 35.368Z" fill="#FFBE9D"/>
<path d="M60.8557 37.7754C60.8557 37.7754 60.902 37.7972 60.9755 37.8163C61.0816 37.843 61.1939 37.8273 61.2887 37.7726C61.5256 37.6361 61.6699 37.202 61.61 36.768C61.5813 36.5624 61.5079 36.3658 61.3949 36.1919C61.3602 36.1205 61.309 36.0584 61.2455 36.0109C61.182 35.9634 61.1081 35.9319 61.0299 35.9189C60.9801 35.9144 60.9303 35.9275 60.889 35.9559C60.8477 35.9843 60.8177 36.0263 60.8039 36.0745C60.7821 36.1482 60.8039 36.1919 60.8039 36.1974C60.8039 36.2028 60.7467 36.1673 60.7494 36.0663C60.7527 36.0047 60.7767 35.946 60.8175 35.8998C60.8752 35.8391 60.9545 35.8037 61.0381 35.8015C61.1392 35.8044 61.2379 35.8333 61.3247 35.8854C61.4115 35.9375 61.4835 36.0111 61.5338 36.0991C61.6695 36.2888 61.7565 36.5092 61.787 36.7407C61.8524 37.2239 61.6808 37.7153 61.354 37.8736C61.2927 37.9026 61.2257 37.9176 61.1579 37.9176C61.0902 37.9176 61.0232 37.9026 60.9619 37.8736C60.8693 37.8327 60.8475 37.7808 60.8557 37.7754Z" fill="#EB996E"/>
<path d="M46.7301 30.8407C47.1386 31.7226 49.2411 32.0638 50.7825 31.597C52.2013 31.1683 52.7188 30.2647 53.6202 29.4757C54.1921 28.9761 54.1921 28.9761 55.1262 28.8805C55.8806 28.8014 56.4879 29.5549 57.0571 30.0545C56.7384 31.9655 57.5799 33.8329 58.4024 35.572C58.4716 35.7752 58.6068 35.9492 58.7864 36.0661C59.1077 36.2245 59.4945 35.9733 59.6878 35.6675C59.9591 35.1531 60.0755 34.5707 60.0228 33.9913C60.0152 32.67 59.7458 31.3634 59.2303 30.1473C58.7136 28.9224 57.8477 27.8777 56.7412 27.1442C55.3233 26.2753 53.624 25.9934 52.0025 26.3579C50.3905 26.7319 48.9372 27.6061 47.8494 28.856C47.3182 29.4091 46.9334 30.0867 46.7301 30.8271" fill="#EC6980"/>
<path d="M51.5661 36.6129C51.5443 36.6129 51.5661 36.4081 51.4571 36.0669C51.3179 35.5756 51.0212 35.1438 50.6129 34.8383C50.3141 34.6168 49.965 34.4731 49.5971 34.4202C49.2292 34.3673 48.8539 34.4069 48.505 34.5353C48.0932 34.6866 47.7358 34.9575 47.4783 35.3134C47.2006 35.6931 47.0509 36.1516 47.0509 36.6225C47.0509 37.0933 47.2006 37.5518 47.4783 37.9315C47.7358 38.2874 48.0932 38.5583 48.505 38.7096C48.8541 38.8381 49.2295 38.8775 49.5976 38.8241C49.9656 38.7707 50.3145 38.6263 50.6129 38.4038C51.0215 38.0998 51.3183 37.6688 51.4571 37.178C51.5524 36.8286 51.5443 36.632 51.5661 36.632C51.5725 36.6819 51.5725 36.7323 51.5661 36.7822C51.567 36.9247 51.5505 37.0668 51.517 37.2053C51.4021 37.7292 51.1071 38.1959 50.6837 38.524C50.4326 38.7162 50.1458 38.8562 49.8399 38.9357C49.5341 39.0152 49.2155 39.0325 48.9029 38.9867C48.5902 38.9409 48.2899 38.8329 48.0195 38.6691C47.7492 38.5052 47.5142 38.2888 47.3285 38.0325C47.0229 37.6221 46.8577 37.1237 46.8577 36.6115C46.8577 36.0994 47.0229 35.6009 47.3285 35.1905C47.5159 34.9344 47.7527 34.7185 48.0248 34.5557C48.2968 34.3929 48.5987 34.2864 48.9126 34.2426C49.2264 34.1989 49.5458 34.2186 49.8519 34.3008C50.158 34.3829 50.4446 34.5258 50.6946 34.7209C51.1178 35.048 51.4128 35.5138 51.5279 36.0368C51.5613 36.1763 51.5778 36.3193 51.5769 36.4627C51.5803 36.5131 51.5766 36.5636 51.5661 36.6129Z" fill="#263238"/>
<path d="M57.2179 35.6246C57.1961 35.6246 57.2179 35.4198 57.109 35.0786C56.9703 34.587 56.6735 34.1551 56.2647 33.85C55.9661 33.628 55.6171 33.4841 55.2491 33.4312C54.881 33.3783 54.5057 33.4181 54.1569 33.547C53.7453 33.6972 53.3878 33.9672 53.1302 34.3223C52.8523 34.7025 52.7024 35.1615 52.7024 35.6328C52.7024 36.1041 52.8523 36.5631 53.1302 36.9432C53.3868 37.2993 53.7446 37.5695 54.1569 37.7186C54.5057 37.8475 54.881 37.8873 55.2491 37.8344C55.6171 37.7815 55.9661 37.6375 56.2647 37.4155C56.6735 37.1105 56.9703 36.6786 57.109 36.187C57.2043 35.8403 57.1961 35.641 57.2179 35.641C57.2242 35.6899 57.2242 35.7395 57.2179 35.7884C57.2187 35.9318 57.2023 36.0748 57.1689 36.2143C57.0539 36.7382 56.7589 37.2049 56.3355 37.5329C56.0851 37.7278 55.7984 37.8704 55.4921 37.9524C55.1859 38.0343 54.8663 38.054 54.5524 38.0103C54.2384 37.9665 53.9364 37.8602 53.664 37.6975C53.3917 37.5349 53.1547 37.3193 52.9668 37.0633C52.6617 36.6522 52.497 36.1534 52.497 35.641C52.497 35.1285 52.6617 34.6298 52.9668 34.2186C53.1542 33.9624 53.3909 33.7466 53.663 33.5838C53.9351 33.4209 54.237 33.3145 54.5508 33.2707C54.8646 33.2269 55.1841 33.2467 55.4902 33.3289C55.7962 33.411 56.0828 33.5539 56.3328 33.749C56.7557 34.0775 57.0505 34.544 57.1662 35.0677C57.1996 35.2071 57.216 35.3501 57.2152 35.4935C57.2213 35.537 57.2223 35.581 57.2179 35.6246Z" fill="#263238"/>
<path d="M52.5606 35.7065C52.5361 35.7529 52.2338 35.6109 51.8825 35.7201C51.5312 35.8293 51.3542 36.1105 51.3079 36.0832C51.2616 36.0559 51.3079 35.9822 51.376 35.8621C51.4845 35.7049 51.643 35.5893 51.8255 35.5343C52.0081 35.4792 52.2039 35.488 52.3809 35.559C52.5143 35.6136 52.5742 35.6846 52.5606 35.7065Z" fill="#263238"/>
<path d="M60.418 35.0123C60.418 35.0669 59.6582 35.097 58.7213 35.086C57.7845 35.0751 57.0274 35.0178 57.0274 34.9632C57.0274 34.9086 57.7872 34.8785 58.724 34.8922C59.6609 34.9058 60.418 34.9577 60.418 35.0123Z" fill="#263238"/>
<path d="M45.6032 28.5618C45.6034 28.639 45.6163 28.7155 45.6413 28.7884C45.7089 28.9902 45.8327 29.1683 45.9981 29.3017C46.2423 29.5027 46.5412 29.6255 46.8559 29.6539C47.2355 29.6845 47.6174 29.6643 47.9916 29.5938C48.6717 29.4932 49.3462 29.3574 50.0123 29.187C50.2683 29.1188 50.4753 29.0614 50.6142 29.0178L50.7776 28.9659L50.832 28.944C50.832 28.944 50.8102 28.944 50.7748 28.944L50.6087 28.985L50.0041 29.1352C49.4922 29.258 48.7786 29.4082 47.9834 29.5283C47.6137 29.598 47.2365 29.6192 46.8614 29.5911C46.5555 29.5659 46.2638 29.451 46.0226 29.2607C45.8603 29.134 45.736 28.9649 45.6631 28.772C45.6141 28.6437 45.6114 28.5591 45.6032 28.5618Z" fill="white"/>
<path d="M45.0785 29.1023C45.112 29.33 45.181 29.5511 45.2827 29.7575C45.5189 30.2644 45.9012 30.6886 46.3804 30.9752C46.8596 31.2619 47.4136 31.3979 47.9707 31.3655C48.1993 31.3579 48.4253 31.3146 48.6406 31.2372C48.5799 31.2444 48.5198 31.2562 48.4609 31.2727C48.2981 31.3031 48.1334 31.3213 47.968 31.3273C47.4207 31.3473 46.8794 31.2079 46.4096 30.9259C45.9398 30.6439 45.5617 30.2314 45.3209 29.7384C45.2448 29.5908 45.1828 29.4363 45.1357 29.277C45.1206 29.2176 45.1014 29.1592 45.0785 29.1023Z" fill="white"/>
</svg>
