<svg width="104" height="69" viewBox="0 0 104 69" fill="none" xmlns="http://www.w3.org/2000/svg">
<path d="M0.0503998 40.8607H35.1475V53.0302H0.0503998V40.8607Z" fill="white"/>
<path d="M0.0566406 53.0289C0.0566406 53.0289 0.0566406 52.9563 0.0566406 52.8111C0.0566406 52.6659 0.0566406 52.4654 0.0566406 52.1819C0.0566406 51.6252 0.0566406 50.799 0.0566406 49.7618C0.0566406 47.6632 0.0566483 44.6243 0.0768967 40.8628L0.0404358 40.8973H35.1335L35.0767 40.8489V53.0185L35.1335 52.9736L9.96692 52.9943H2.67697H2.65267H9.94262L35.1456 53.0151H35.1982V40.8109H35.1415L0.0485458 40.8282H0.00804138V40.8593C0.00804138 44.6277 0.00803757 47.6736 0.028286 49.7791C0.028286 50.8162 0.028286 51.6391 0.028286 52.1992C0.028286 52.4723 0.028286 52.6832 0.028286 52.8249C0.028286 52.9667 0.0566406 53.0289 0.0566406 53.0289Z" fill="#C9E7DB"/>
<path d="M23.6904 43.6469H32.167V50.8829H23.6904V43.6469Z" fill="#C9E7DB"/>
<path d="M2.4832 46.4185C2.4832 46.4427 6.84503 46.4669 12.2274 46.4669C17.6099 46.4669 21.9717 46.4427 21.9717 46.4185C21.9717 46.3943 17.6099 46.3701 12.2274 46.3701C6.84503 46.3701 2.4832 46.3909 2.4832 46.4185Z" fill="#C9E7DB"/>
<path d="M2.4832 47.8926C2.4832 47.9203 6.84503 47.941 12.2274 47.941C17.6099 47.941 21.9717 47.9203 21.9717 47.8926C21.9717 47.8649 17.6099 47.8477 12.2274 47.8477C6.84503 47.8477 2.4832 47.8684 2.4832 47.8926Z" fill="#C9E7DB"/>
<path d="M9.43586 49.3693C9.47891 49.3739 9.52242 49.3739 9.56547 49.3693H9.92996H11.2746H15.7093H20.1642H21.5088H21.8733C21.9164 49.3739 21.9599 49.3739 22.0029 49.3693H21.8733H21.5088H20.1642H15.7093H11.2746H9.92996H9.56547H9.43586Z" fill="#C9E7DB"/>
<path d="M9.79044 16.302H46.8193V37.1597H9.79044V16.302Z" fill="#FAFAFA"/>
<path d="M9.7909 37.161C9.7909 37.161 9.7909 37.0297 9.7909 36.7807C9.7909 36.5318 9.7909 36.1584 9.7909 35.6779C9.7909 34.7098 9.7909 33.2958 9.81115 31.4842C9.81115 27.8575 9.83545 22.6543 9.85571 16.3033L9.77065 16.3759L46.7955 16.3932L46.6942 16.293C46.6942 23.7157 46.6942 30.7755 46.6942 37.1507L46.7914 37.0677L20.1345 37.1092L12.5044 37.1334H10.4794H9.9529H9.77065H9.94075H10.4591H12.4841L20.09 37.1541L46.8198 37.1956H46.917V37.1126C46.917 30.7374 46.917 23.6777 46.917 16.2549V16.165H46.8076L9.78279 16.1858H9.69775V16.2549C9.69775 22.6232 9.73015 27.8437 9.73825 31.4669C9.73825 33.2716 9.73825 34.6822 9.76255 35.6468C9.76255 36.1204 9.76255 36.4869 9.76255 36.7358C9.76255 36.9847 9.7909 37.161 9.7909 37.161Z" fill="#263238"/>
<path d="M9.62939 18.4323C9.62939 18.4807 17.8994 18.5222 28.1013 18.5222C38.3032 18.5222 46.5732 18.4807 46.5732 18.4323C46.5732 18.3839 38.3032 18.3424 28.1013 18.3424C17.8994 18.3424 9.62939 18.3666 9.62939 18.4323Z" fill="#263238"/>
<path d="M31.7991 21.4372H43.5967V34.7131H31.7991V21.4372Z" fill="#C9E7DB"/>
<path d="M13.0175 22.0552C13.0175 22.1036 16.7192 22.1451 21.2876 22.1451C25.8559 22.1451 29.5576 22.1036 29.5576 22.0552C29.5576 22.0068 25.8559 21.9653 21.2876 21.9653C16.7192 21.9653 13.0175 22.0034 13.0175 22.0552Z" fill="#C9E7DB"/>
<path d="M13.0175 23.7166C13.0175 23.765 16.7192 23.8065 21.2876 23.8065C25.8559 23.8065 29.5576 23.765 29.5576 23.7166C29.5576 23.6682 25.8559 23.6267 21.2876 23.6267C16.7192 23.6267 13.0175 23.6682 13.0175 23.7166Z" fill="#C9E7DB"/>
<path d="M13.0175 25.3799C13.0175 25.4283 16.7192 25.4698 21.2876 25.4698C25.8559 25.4698 29.5576 25.4283 29.5576 25.3799C29.5576 25.3315 25.8559 25.29 21.2876 25.29C16.7192 25.29 13.0175 25.328 13.0175 25.3799Z" fill="#C9E7DB"/>
<path d="M13.0175 27.0365C13.0175 27.0884 16.7192 27.1264 21.2876 27.1264C25.8559 27.1264 29.5576 27.0884 29.5576 27.0365C29.5576 26.9847 25.8559 26.9467 21.2876 26.9467C16.7192 26.9467 13.0175 26.9881 13.0175 27.0365Z" fill="#C9E7DB"/>
<path d="M13.5209 28.4139H20.1709V34.7096H13.5209V28.4139Z" fill="#C9E7DB"/>
<path d="M21.2663 28.6998C22.6136 28.789 23.9653 28.819 25.3162 28.7897C26.6671 28.8192 28.0189 28.7892 29.3662 28.6998C28.0191 28.6083 26.6671 28.5783 25.3162 28.6099C23.9653 28.5784 22.6134 28.6084 21.2663 28.6998Z" fill="#C9E7DB"/>
<path d="M21.2663 30.36C22.6134 30.4514 23.9653 30.4814 25.3162 30.4499C26.6671 30.4816 28.0191 30.4516 29.3662 30.36C28.0189 30.2706 26.6671 30.2406 25.3162 30.2701C23.9653 30.2408 22.6136 30.2708 21.2663 30.36Z" fill="#C9E7DB"/>
<path d="M21.2663 32.285C22.6134 32.3764 23.9653 32.4064 25.3162 32.3749C26.6671 32.4065 28.0191 32.3765 29.3662 32.285C28.0189 32.1956 26.6671 32.1656 25.3162 32.1951C23.9653 32.1658 22.6136 32.1958 21.2663 32.285Z" fill="#C9E7DB"/>
<path d="M21.4733 34.2485C22.8204 34.34 24.1724 34.37 25.5233 34.3383C26.8742 34.3698 28.2261 34.3398 29.5732 34.2485C28.226 34.1592 26.8742 34.1292 25.5233 34.1586C24.1724 34.129 22.8206 34.1591 21.4733 34.2485Z" fill="#C9E7DB"/>
<path d="M27.1712 61.7956C27.1712 61.8233 31.7518 61.844 37.4015 61.844C43.0512 61.844 47.6357 61.8233 47.6357 61.7956C47.6357 61.768 43.0552 61.7438 37.4015 61.7438C31.7477 61.7438 27.1712 61.768 27.1712 61.7956Z" fill="#C9E7DB"/>
<path d="M27.1712 63.3435C27.1712 63.3712 31.7518 63.3919 37.4015 63.3919C43.0512 63.3919 47.6357 63.3712 47.6357 63.3435C47.6357 63.3159 43.0552 63.2917 37.4015 63.2917C31.7477 63.2917 27.1712 63.3124 27.1712 63.3435Z" fill="#C9E7DB"/>
<path d="M34.4605 64.8887H34.5941H34.9789L36.3923 64.906H41.0457H45.7032L47.1166 64.8887H47.5216H47.6553C47.6109 64.8837 47.566 64.8837 47.5216 64.8887H47.1166L45.7032 64.8715H41.0457H36.3923L34.9789 64.8887H34.5941C34.5498 64.8837 34.5048 64.8837 34.4605 64.8887Z" fill="#C9E7DB"/>
<path d="M25.2764 68.9263C25.2764 68.8848 25.1265 68.8537 24.9483 68.8537C24.7701 68.8537 24.6162 68.8848 24.6162 68.9263C24.6162 68.9678 24.7661 68.9989 24.9483 68.9989C25.1306 68.9989 25.2764 68.9643 25.2764 68.9263Z" fill="#C9E7DB"/>
<path d="M26.585 68.9263C26.585 68.8848 26.4392 68.8537 26.2569 68.8537C26.0747 68.8537 25.9289 68.8848 25.9289 68.9263C25.9289 68.9678 26.0747 68.9989 26.2569 68.9989C26.4392 68.9989 26.585 68.9643 26.585 68.9263Z" fill="#C9E7DB"/>
<path d="M27.9053 68.9263C27.9053 68.8848 27.7554 68.8537 27.5772 68.8537C27.399 68.8537 27.2492 68.8848 27.2492 68.9263C27.2492 68.9678 27.395 68.9989 27.5772 68.9989C27.7595 68.9989 27.9053 68.9643 27.9053 68.9263Z" fill="#C9E7DB"/>
<path d="M29.2061 68.9263C29.2061 68.8848 29.0603 68.8537 28.878 68.8537C28.6958 68.8537 28.55 68.8848 28.55 68.9263C28.55 68.9678 28.6958 68.9989 28.878 68.9989C29.0603 68.9989 29.2061 68.9643 29.2061 68.9263Z" fill="#C9E7DB"/>
<path d="M30.5342 68.9263C30.5342 68.8848 30.3884 68.8537 30.2061 68.8537C30.0239 68.8537 29.8781 68.8848 29.8781 68.9263C29.8781 68.9678 30.0239 68.9989 30.2061 68.9989C30.3884 68.9989 30.5342 68.9643 30.5342 68.9263Z" fill="#C9E7DB"/>
<path d="M31.835 68.9263C31.835 68.8848 31.6892 68.8537 31.5069 68.8537C31.3247 68.8537 31.1789 68.8848 31.1789 68.9263C31.1789 68.9678 31.3247 68.9989 31.5069 68.9989C31.6892 68.9989 31.835 68.9643 31.835 68.9263Z" fill="#C9E7DB"/>
<path d="M33.1553 68.9263C33.1553 68.8848 33.0095 68.8537 32.8272 68.8537C32.645 68.8537 32.4992 68.8848 32.4992 68.9263C32.4992 68.9678 32.645 68.9989 32.8272 68.9989C33.0095 68.9989 33.1553 68.9643 33.1553 68.9263Z" fill="#C9E7DB"/>
<path d="M34.4678 68.9263C34.4678 68.8848 34.322 68.8537 34.1397 68.8537C33.9575 68.8537 33.8117 68.8848 33.8117 68.9263C33.8117 68.9678 33.9575 68.9989 34.1397 68.9989C34.322 68.9989 34.4678 68.9643 34.4678 68.9263Z" fill="#C9E7DB"/>
<path d="M35.7842 68.9263C35.7842 68.8848 35.6384 68.8537 35.4561 68.8537C35.2739 68.8537 35.1281 68.8848 35.1281 68.9263C35.1281 68.9678 35.2739 68.9989 35.4561 68.9989C35.6384 68.9989 35.7842 68.9643 35.7842 68.9263Z" fill="#C9E7DB"/>
<path d="M37.0967 68.9263C37.0967 68.8848 36.9509 68.8537 36.7686 68.8537C36.5864 68.8537 36.4406 68.8848 36.4406 68.9263C36.4406 68.9678 36.5904 68.9989 36.7686 68.9989C36.9468 68.9989 37.0967 68.9643 37.0967 68.9263Z" fill="#C9E7DB"/>
<path d="M38.4131 68.9263C38.4131 68.8848 38.2673 68.8537 38.085 68.8537C37.9028 68.8537 37.757 68.8848 37.757 68.9263C37.757 68.9678 37.9028 68.9989 38.085 68.9989C38.2673 68.9989 38.4131 68.9643 38.4131 68.9263Z" fill="#C9E7DB"/>
<path d="M39.7295 68.9263C39.7295 68.8848 39.5797 68.8537 39.3974 68.8537C39.2152 68.8537 39.0694 68.8848 39.0694 68.9263C39.0694 68.9678 39.2192 68.9989 39.3974 68.9989C39.5756 68.9989 39.7295 68.9643 39.7295 68.9263Z" fill="#C9E7DB"/>
<path d="M41.0264 68.9263C41.0264 68.8848 40.8806 68.8537 40.6983 68.8537C40.5161 68.8537 40.3703 68.8848 40.3703 68.9263C40.3703 68.9678 40.5161 68.9989 40.6983 68.9989C40.8806 68.9989 41.0264 68.9643 41.0264 68.9263Z" fill="#C9E7DB"/>
<path d="M42.3584 68.9263C42.3584 68.8848 42.2085 68.8537 42.0263 68.8537C41.844 68.8537 41.6983 68.8848 41.6983 68.9263C41.6983 68.9678 41.8481 68.9989 42.0263 68.9989C42.2045 68.9989 42.3584 68.9643 42.3584 68.9263Z" fill="#C9E7DB"/>
<path d="M43.6709 68.9263C43.6709 68.8848 43.5251 68.8537 43.3429 68.8537C43.1606 68.8537 43.0148 68.8848 43.0148 68.9263C43.0148 68.9678 43.1606 68.9989 43.3429 68.9989C43.5251 68.9989 43.6709 68.9643 43.6709 68.9263Z" fill="#C9E7DB"/>
<path d="M44.9873 68.9263C44.9873 68.8848 44.8375 68.8537 44.6552 68.8537C44.473 68.8537 44.3272 68.8848 44.3272 68.9263C44.3272 68.9678 44.477 68.9989 44.6552 68.9989C44.8334 68.9989 44.9873 68.9643 44.9873 68.9263Z" fill="#C9E7DB"/>
<path d="M46.2881 68.9263C46.2881 68.8848 46.1423 68.8537 45.96 68.8537C45.7778 68.8537 45.632 68.8848 45.632 68.9263C45.632 68.9678 45.7778 68.9989 45.96 68.9989C46.1423 68.9989 46.2881 68.9643 46.2881 68.9263Z" fill="#C9E7DB"/>
<path d="M47.6162 68.9263C47.6162 68.8848 47.4664 68.8537 47.2882 68.8537C47.11 68.8537 46.9561 68.8848 46.9561 68.9263C46.9561 68.9678 47.1059 68.9989 47.2882 68.9989C47.4704 68.9989 47.6162 68.9643 47.6162 68.9263Z" fill="#C9E7DB"/>
<path d="M48.9248 68.9263C48.9248 68.8848 48.779 68.8537 48.5968 68.8537C48.4145 68.8537 48.2687 68.8848 48.2687 68.9263C48.2687 68.9678 48.4145 68.9989 48.5968 68.9989C48.779 68.9989 48.9248 68.9643 48.9248 68.9263Z" fill="#C9E7DB"/>
<path d="M50.2451 68.9263C50.2451 68.8848 50.0953 68.8537 49.9171 68.8537C49.7389 68.8537 49.585 68.8848 49.585 68.9263C49.585 68.9678 49.7348 68.9989 49.9171 68.9989C50.0993 68.9989 50.2451 68.9643 50.2451 68.9263Z" fill="#C9E7DB"/>
<path d="M51.5537 68.9263C51.5537 68.8848 51.4079 68.8537 51.2257 68.8537C51.0434 68.8537 50.8976 68.8848 50.8976 68.9263C50.8976 68.9678 51.0434 68.9989 51.2257 68.9989C51.4079 68.9989 51.5537 68.9643 51.5537 68.9263Z" fill="#C9E7DB"/>
<path d="M52.874 68.9263C52.874 68.8848 52.7242 68.8537 52.546 68.8537C52.3678 68.8537 52.2139 68.8848 52.2139 68.9263C52.2139 68.9678 52.3637 68.9989 52.546 68.9989C52.7282 68.9989 52.874 68.9643 52.874 68.9263Z" fill="#C9E7DB"/>
<path d="M54.1826 68.9263C54.1826 68.8848 54.0368 68.8537 53.8546 68.8537C53.6723 68.8537 53.5265 68.8848 53.5265 68.9263C53.5265 68.9678 53.6723 68.9989 53.8546 68.9989C54.0368 68.9989 54.1826 68.9643 54.1826 68.9263Z" fill="#C9E7DB"/>
<path d="M55.5029 68.9263C55.5029 68.8848 55.3531 68.8537 55.1749 68.8537C54.9967 68.8537 54.8468 68.8848 54.8468 68.9263C54.8468 68.9678 54.9926 68.9989 55.1749 68.9989C55.3571 68.9989 55.5029 68.9643 55.5029 68.9263Z" fill="#C9E7DB"/>
<path d="M56.8311 68.9263C56.8311 68.8848 56.6853 68.8537 56.503 68.8537C56.3208 68.8537 56.175 68.8848 56.175 68.9263C56.175 68.9678 56.3208 68.9989 56.503 68.9989C56.6853 68.9989 56.8311 68.9643 56.8311 68.9263Z" fill="#C9E7DB"/>
<path d="M58.124 68.9263C58.124 68.8848 57.9782 68.8537 57.796 68.8537C57.6137 68.8537 57.4679 68.8848 57.4679 68.9263C57.4679 68.9678 57.6137 68.9989 57.796 68.9989C57.9782 68.9989 58.124 68.9643 58.124 68.9263Z" fill="#C9E7DB"/>
<path d="M59.4443 68.9263C59.4443 68.8848 59.2985 68.8537 59.1163 68.8537C58.934 68.8537 58.7882 68.8848 58.7882 68.9263C58.7882 68.9678 58.934 68.9989 59.1163 68.9989C59.2985 68.9989 59.4443 68.9643 59.4443 68.9263Z" fill="#C9E7DB"/>
<path d="M60.7568 68.9263C60.7568 68.8848 60.611 68.8537 60.4288 68.8537C60.2465 68.8537 60.1007 68.8848 60.1007 68.9263C60.1007 68.9678 60.2465 68.9989 60.4288 68.9989C60.611 68.9989 60.7568 68.9643 60.7568 68.9263Z" fill="#C9E7DB"/>
<path d="M61.4724 68.4137C61.4238 68.4137 61.3833 68.5382 61.3833 68.6937C61.3807 68.7724 61.3944 68.8508 61.4238 68.9254L61.4724 68.8839C61.4319 68.8839 61.4117 68.8977 61.4117 68.9254C61.4117 68.9254 61.4319 68.953 61.4724 68.9669H61.4967L61.521 68.9185C61.5468 68.8432 61.5591 68.7652 61.5575 68.6868C61.5575 68.5382 61.517 68.4137 61.4724 68.4137Z" fill="#C9E7DB"/>
<path d="M61.4726 67.8509C61.4256 67.8509 61.3875 67.7255 61.3875 67.5709C61.3875 67.4162 61.4256 67.2908 61.4726 67.2908C61.5195 67.2908 61.5576 67.4162 61.5576 67.5709C61.5576 67.7255 61.5195 67.8509 61.4726 67.8509Z" fill="#C9E7DB"/>
<path d="M61.4726 66.7308C61.4256 66.7308 61.3875 66.6054 61.3875 66.4508C61.3875 66.2961 61.4256 66.1707 61.4726 66.1707C61.5195 66.1707 61.5576 66.2961 61.5576 66.4508C61.5576 66.6054 61.5195 66.7308 61.4726 66.7308Z" fill="#C9E7DB"/>
<path d="M61.4726 65.6089C61.4256 65.6089 61.3875 65.4835 61.3875 65.3288C61.3875 65.1741 61.4256 65.0488 61.4726 65.0488C61.5195 65.0488 61.5576 65.1741 61.5576 65.3288C61.5576 65.4835 61.5195 65.6089 61.4726 65.6089Z" fill="#C9E7DB"/>
<path d="M61.4726 64.4859C61.4256 64.4859 61.3875 64.3605 61.3875 64.2059C61.3875 64.0512 61.4256 63.9258 61.4726 63.9258C61.5195 63.9258 61.5576 64.0512 61.5576 64.2059C61.5576 64.3605 61.5195 64.4859 61.4726 64.4859Z" fill="#C9E7DB"/>
<path d="M61.4726 63.3621C61.4256 63.3621 61.3875 63.2367 61.3875 63.082C61.3875 62.9274 61.4256 62.802 61.4726 62.802C61.5195 62.802 61.5576 62.9274 61.5576 63.082C61.5576 63.2367 61.5195 63.3621 61.4726 63.3621Z" fill="#C9E7DB"/>
<path d="M61.4726 62.2448C61.4256 62.2448 61.3875 62.1194 61.3875 61.9647C61.3875 61.8101 61.4256 61.6847 61.4726 61.6847C61.5195 61.6847 61.5576 61.8101 61.5576 61.9647C61.5576 62.1194 61.5195 62.2448 61.4726 62.2448Z" fill="#C9E7DB"/>
<path d="M61.4726 60.5449C61.424 60.5449 61.3835 60.6728 61.3835 60.825C61.3835 60.9771 61.424 61.105 61.4726 61.105C61.5212 61.105 61.5576 60.9805 61.5576 60.825C61.5576 60.6694 61.5171 60.5449 61.4726 60.5449Z" fill="#C9E7DB"/>
<path d="M61.4726 59.9999C61.4256 59.9999 61.3875 59.8745 61.3875 59.7199C61.3875 59.5652 61.4256 59.4398 61.4726 59.4398C61.5195 59.4398 61.5576 59.5652 61.5576 59.7199C61.5576 59.8745 61.5195 59.9999 61.4726 59.9999Z" fill="#C9E7DB"/>
<path d="M61.4726 58.877C61.4256 58.877 61.3875 58.7516 61.3875 58.5969C61.3875 58.4423 61.4256 58.3169 61.4726 58.3169C61.5195 58.3169 61.5576 58.4423 61.5576 58.5969C61.5576 58.7516 61.5195 58.877 61.4726 58.877Z" fill="#C9E7DB"/>
<path d="M61.4726 57.755C61.4256 57.755 61.3875 57.6296 61.3875 57.475C61.3875 57.3203 61.4256 57.1949 61.4726 57.1949C61.5195 57.1949 61.5576 57.3203 61.5576 57.475C61.5576 57.6296 61.5195 57.755 61.4726 57.755Z" fill="#C9E7DB"/>
<path d="M61.1888 56.3188C61.1888 56.3568 61.3143 56.3845 61.4763 56.3914L61.3913 56.3188V56.3534C61.3913 56.5089 61.4318 56.6334 61.4804 56.6334C61.529 56.6334 61.5654 56.5089 61.5654 56.3534V56.2427H61.4844C61.3143 56.2497 61.1888 56.2808 61.1888 56.3188Z" fill="#C9E7DB"/>
<path d="M59.8701 56.3172C59.8701 56.3553 60.02 56.3898 60.1982 56.3898C60.3764 56.3898 60.5303 56.3553 60.5303 56.3172C60.5303 56.2792 60.3804 56.2446 60.1982 56.2446C60.0159 56.2446 59.8701 56.2757 59.8701 56.3172Z" fill="#C9E7DB"/>
<path d="M58.5617 56.3172C58.5617 56.3553 58.7075 56.3898 58.8897 56.3898C59.072 56.3898 59.2178 56.3553 59.2178 56.3172C59.2178 56.2792 59.072 56.2446 58.8897 56.2446C58.7075 56.2446 58.5617 56.2757 58.5617 56.3172Z" fill="#C9E7DB"/>
<path d="M57.2256 56.3172C57.2256 56.3553 57.3754 56.3898 57.5536 56.3898C57.7318 56.3898 57.8857 56.3553 57.8857 56.3172C57.8857 56.2792 57.7359 56.2446 57.5536 56.2446C57.3714 56.2446 57.2256 56.2757 57.2256 56.3172Z" fill="#C9E7DB"/>
<path d="M55.9328 56.3172C55.9328 56.3553 56.0786 56.3898 56.2608 56.3898C56.4431 56.3898 56.5889 56.3553 56.5889 56.3172C56.5889 56.2792 56.4431 56.2446 56.2608 56.2446C56.0786 56.2446 55.9328 56.2757 55.9328 56.3172Z" fill="#C9E7DB"/>
<path d="M54.6123 56.3172C54.6123 56.3553 54.7622 56.3898 54.9404 56.3898C55.1186 56.3898 55.2725 56.3553 55.2725 56.3172C55.2725 56.2792 55.1226 56.2446 54.9404 56.2446C54.7581 56.2446 54.6123 56.2757 54.6123 56.3172Z" fill="#C9E7DB"/>
<path d="M53.3 56.3172C53.3 56.3553 53.4458 56.3898 53.628 56.3898C53.8103 56.3898 53.9561 56.3553 53.9561 56.3172C53.9561 56.2792 53.8103 56.2446 53.628 56.2446C53.4458 56.2446 53.3 56.2757 53.3 56.3172Z" fill="#C9E7DB"/>
<path d="M51.9875 56.3172C51.9875 56.3553 52.1373 56.3898 52.3155 56.3898C52.4937 56.3898 52.6436 56.3553 52.6436 56.3172C52.6436 56.2792 52.4978 56.2446 52.3155 56.2446C52.1333 56.2446 51.9875 56.2757 51.9875 56.3172Z" fill="#C9E7DB"/>
<path d="M50.6711 56.3172C50.6711 56.3553 50.8169 56.3898 50.9991 56.3898C51.1814 56.3898 51.3271 56.3553 51.3271 56.3172C51.3271 56.2792 51.1814 56.2446 50.9991 56.2446C50.8169 56.2446 50.6711 56.2757 50.6711 56.3172Z" fill="#C9E7DB"/>
<path d="M49.3586 56.3172C49.3586 56.3553 49.5044 56.3898 49.6866 56.3898C49.8689 56.3898 50.0146 56.3553 50.0146 56.3172C50.0146 56.2792 49.8689 56.2446 49.6866 56.2446C49.5044 56.2446 49.3586 56.2757 49.3586 56.3172Z" fill="#C9E7DB"/>
<path d="M48.0421 56.3172C48.0421 56.3553 48.1879 56.3898 48.3702 56.3898C48.5524 56.3898 48.6982 56.3553 48.6982 56.3172C48.6982 56.2792 48.5524 56.2446 48.3702 56.2446C48.1879 56.2446 48.0421 56.2757 48.0421 56.3172Z" fill="#C9E7DB"/>
<path d="M46.7296 56.3172C46.7296 56.3553 46.8754 56.3898 47.0577 56.3898C47.2399 56.3898 47.3857 56.3553 47.3857 56.3172C47.3857 56.2792 47.2399 56.2446 47.0577 56.2446C46.8754 56.2446 46.7296 56.2757 46.7296 56.3172Z" fill="#C9E7DB"/>
<path d="M45.4211 56.3172C45.4211 56.3553 45.5669 56.3898 45.7491 56.3898C45.9314 56.3898 46.0771 56.3553 46.0771 56.3172C46.0771 56.2792 45.9314 56.2446 45.7491 56.2446C45.5669 56.2446 45.4211 56.2757 45.4211 56.3172Z" fill="#C9E7DB"/>
<path d="M44.0968 56.3172C44.0968 56.3553 44.2426 56.3898 44.4249 56.3898C44.6071 56.3898 44.7529 56.3553 44.7529 56.3172C44.7529 56.2792 44.6071 56.2446 44.4249 56.2446C44.2426 56.2446 44.0968 56.2757 44.0968 56.3172Z" fill="#C9E7DB"/>
<path d="M42.7804 56.3172C42.7804 56.3553 42.9262 56.3898 43.1085 56.3898C43.2907 56.3898 43.4365 56.3553 43.4365 56.3172C43.4365 56.2792 43.2867 56.2446 43.1085 56.2446C42.9303 56.2446 42.7804 56.2757 42.7804 56.3172Z" fill="#C9E7DB"/>
<path d="M41.4718 56.3172C41.4718 56.3553 41.6176 56.3898 41.7999 56.3898C41.9821 56.3898 42.1279 56.3553 42.1279 56.3172C42.1279 56.2792 41.9821 56.2446 41.7999 56.2446C41.6176 56.2446 41.4718 56.2757 41.4718 56.3172Z" fill="#C9E7DB"/>
<path d="M40.1593 56.3172C40.1593 56.3553 40.3051 56.3898 40.4874 56.3898C40.6696 56.3898 40.8154 56.3553 40.8154 56.3172C40.8154 56.2792 40.6656 56.2446 40.4874 56.2446C40.3092 56.2446 40.1593 56.2757 40.1593 56.3172Z" fill="#C9E7DB"/>
<path d="M38.8429 56.3172C38.8429 56.3553 38.9887 56.3898 39.171 56.3898C39.3532 56.3898 39.499 56.3553 39.499 56.3172C39.499 56.2792 39.3532 56.2446 39.171 56.2446C38.9887 56.2446 38.8429 56.2757 38.8429 56.3172Z" fill="#C9E7DB"/>
<path d="M37.5264 56.3172C37.5264 56.3553 37.6762 56.3898 37.8585 56.3898C38.0407 56.3898 38.1865 56.3553 38.1865 56.3172C38.1865 56.2792 38.0367 56.2446 37.8585 56.2446C37.6803 56.2446 37.5264 56.2757 37.5264 56.3172Z" fill="#C9E7DB"/>
<path d="M36.214 56.3172C36.214 56.3553 36.3598 56.3898 36.5421 56.3898C36.7243 56.3898 36.8701 56.3553 36.8701 56.3172C36.8701 56.2792 36.7243 56.2446 36.5421 56.2446C36.3598 56.2446 36.214 56.2757 36.214 56.3172Z" fill="#C9E7DB"/>
<path d="M34.8975 56.3172C34.8975 56.3553 35.0473 56.3898 35.2296 56.3898C35.4118 56.3898 35.5576 56.3553 35.5576 56.3172C35.5576 56.2792 35.4078 56.2446 35.2296 56.2446C35.0514 56.2446 34.8975 56.2757 34.8975 56.3172Z" fill="#C9E7DB"/>
<path d="M33.5851 56.3172C33.5851 56.3553 33.7309 56.3898 33.9132 56.3898C34.0954 56.3898 34.2412 56.3553 34.2412 56.3172C34.2412 56.2792 34.0954 56.2446 33.9132 56.2446C33.7309 56.2446 33.5851 56.2757 33.5851 56.3172Z" fill="#C9E7DB"/>
<path d="M32.2725 56.3172C32.2725 56.3553 32.4223 56.3898 32.6005 56.3898C32.7787 56.3898 32.9326 56.3553 32.9326 56.3172C32.9326 56.2792 32.7828 56.2446 32.6005 56.2446C32.4183 56.2446 32.2725 56.2757 32.2725 56.3172Z" fill="#C9E7DB"/>
<path d="M30.9601 56.3172C30.9601 56.3553 31.1059 56.3898 31.2882 56.3898C31.4704 56.3898 31.6162 56.3553 31.6162 56.3172C31.6162 56.2792 31.4704 56.2446 31.2882 56.2446C31.1059 56.2446 30.9601 56.2757 30.9601 56.3172Z" fill="#C9E7DB"/>
<path d="M29.6397 56.3172C29.6397 56.3553 29.7895 56.3898 29.9677 56.3898C30.1459 56.3898 30.2998 56.3553 30.2998 56.3172C30.2998 56.2792 30.15 56.2446 29.9677 56.2446C29.7855 56.2446 29.6397 56.2757 29.6397 56.3172Z" fill="#C9E7DB"/>
<path d="M28.3312 56.3172C28.3312 56.3553 28.477 56.3898 28.6593 56.3898C28.8415 56.3898 28.9873 56.3553 28.9873 56.3172C28.9873 56.2792 28.8415 56.2446 28.6593 56.2446C28.477 56.2446 28.3312 56.2757 28.3312 56.3172Z" fill="#C9E7DB"/>
<path d="M27.0147 56.3172C27.0147 56.3553 27.1645 56.3898 27.3427 56.3898C27.5209 56.3898 27.6748 56.3553 27.6748 56.3172C27.6748 56.2792 27.525 56.2446 27.3427 56.2446C27.1605 56.2446 27.0147 56.2757 27.0147 56.3172Z" fill="#C9E7DB"/>
<path d="M25.7023 56.3172C25.7023 56.3553 25.8481 56.3898 26.0304 56.3898C26.2126 56.3898 26.3584 56.3553 26.3584 56.3172C26.3584 56.2792 26.2126 56.2446 26.0304 56.2446C25.8481 56.2446 25.7023 56.2757 25.7023 56.3172Z" fill="#C9E7DB"/>
<path d="M24.6088 56.5124C24.6493 56.5124 24.6817 56.4329 24.6938 56.3188L24.6128 56.3879H24.71C24.8923 56.3879 25.0381 56.3534 25.0381 56.3153C25.0381 56.2773 24.8923 56.2427 24.71 56.2427H24.6128H24.5237V56.305C24.5399 56.4329 24.5723 56.5124 24.6088 56.5124Z" fill="#C9E7DB"/>
<path d="M24.6052 57.6346C24.6538 57.6346 24.6943 57.5067 24.6943 57.3511C24.6943 57.1956 24.6538 57.0711 24.6052 57.0711C24.5566 57.0711 24.5202 57.199 24.5202 57.3511C24.5202 57.5033 24.5607 57.6346 24.6052 57.6346Z" fill="#C9E7DB"/>
<path d="M24.6052 58.755C24.6538 58.755 24.6943 58.6306 24.6943 58.475C24.6943 58.3194 24.6538 58.1949 24.6052 58.1949C24.5566 58.1949 24.5202 58.3194 24.5202 58.475C24.5202 58.6306 24.5607 58.755 24.6052 58.755Z" fill="#C9E7DB"/>
<path d="M24.6052 59.8776C24.6538 59.8776 24.6943 59.7497 24.6943 59.5976C24.6943 59.4455 24.6538 59.3141 24.6052 59.3141C24.5566 59.3141 24.5202 59.442 24.5202 59.5976C24.5202 59.7532 24.5607 59.8776 24.6052 59.8776Z" fill="#C9E7DB"/>
<path d="M24.6052 60.9971C24.6538 60.9971 24.6943 60.8726 24.6943 60.717C24.6943 60.5615 24.6538 60.437 24.6052 60.437C24.5566 60.437 24.5202 60.5615 24.5202 60.717C24.5202 60.8726 24.5607 60.9971 24.6052 60.9971Z" fill="#C9E7DB"/>
<path d="M24.6052 62.1226C24.6538 62.1226 24.6943 61.9946 24.6943 61.8425C24.6943 61.6904 24.6538 61.559 24.6052 61.559C24.5566 61.559 24.5202 61.6869 24.5202 61.8425C24.5202 61.9981 24.5607 62.1226 24.6052 62.1226Z" fill="#C9E7DB"/>
<path d="M24.6052 63.242C24.6538 63.242 24.6943 63.1175 24.6943 62.9619C24.6943 62.8064 24.6538 62.6819 24.6052 62.6819C24.5566 62.6819 24.5202 62.8064 24.5202 62.9619C24.5202 63.1175 24.5607 63.242 24.6052 63.242Z" fill="#C9E7DB"/>
<path d="M24.6052 64.3674C24.6538 64.3674 24.6943 64.2395 24.6943 64.0874C24.6943 63.9353 24.6538 63.8039 24.6052 63.8039C24.5566 63.8039 24.5202 63.9318 24.5202 64.0874C24.5202 64.243 24.5607 64.3674 24.6052 64.3674Z" fill="#C9E7DB"/>
<path d="M24.6052 65.4878C24.6538 65.4878 24.6943 65.3633 24.6943 65.2078C24.6943 65.0522 24.6538 64.9277 24.6052 64.9277C24.5566 64.9277 24.5202 65.0522 24.5202 65.2078C24.5202 65.3633 24.5607 65.4878 24.6052 65.4878Z" fill="#C9E7DB"/>
<path d="M24.6052 66.6098C24.6538 66.6098 24.6943 66.4818 24.6943 66.3297C24.6943 66.1776 24.6538 66.0497 24.6052 66.0497C24.5566 66.0497 24.5202 66.1741 24.5202 66.3297C24.5202 66.4853 24.5607 66.6098 24.6052 66.6098Z" fill="#C9E7DB"/>
<path d="M24.6052 67.729C24.6538 67.729 24.6943 67.6045 24.6943 67.4489C24.6943 67.2933 24.6538 67.1689 24.6052 67.1689C24.5566 67.1689 24.5202 67.2933 24.5202 67.4489C24.5202 67.6045 24.5607 67.729 24.6052 67.729Z" fill="#C9E7DB"/>
<path d="M24.6052 68.8443C24.6538 68.8443 24.6943 68.7164 24.6943 68.5643C24.6943 68.4122 24.6538 68.2842 24.6052 68.2842C24.5566 68.2842 24.5202 68.4087 24.5202 68.5643C24.5202 68.7199 24.5607 68.8443 24.6052 68.8443Z" fill="#C9E7DB"/>
<path d="M49.2842 66.7056C49.2842 66.6675 49.1384 66.633 48.9561 66.633L49.0412 66.7056V66.6053C49.0375 66.5749 49.0308 66.5448 49.0209 66.5154C49.0209 66.4635 48.9845 66.4324 48.9602 66.4324C48.9359 66.4324 48.9156 66.4635 48.8994 66.5154C48.8966 66.5453 48.8966 66.5754 48.8994 66.6053V66.6572V66.7056C48.9359 66.7401 48.8144 66.633 48.9845 66.7816C49.1222 66.7678 49.2842 66.747 49.2842 66.7056Z" fill="#C9E7DB"/>
<path d="M50.5186 66.7068C50.5186 66.6687 50.3809 66.6342 50.2148 66.6342C50.0488 66.6342 49.907 66.6687 49.907 66.7068C49.907 66.7448 50.0447 66.7828 50.2148 66.7828C50.3849 66.7828 50.5186 66.7483 50.5186 66.7068Z" fill="#C9E7DB"/>
<path d="M51.7412 66.7068C51.7412 66.6687 51.6035 66.6342 51.4375 66.6342C51.2714 66.6342 51.1297 66.6687 51.1297 66.7068C51.1297 66.7448 51.2674 66.7828 51.4375 66.7828C51.6076 66.7828 51.7412 66.7483 51.7412 66.7068Z" fill="#C9E7DB"/>
<path d="M52.9717 66.7068C52.9717 66.6687 52.834 66.6342 52.6679 66.6342C52.5019 66.6342 52.3601 66.6687 52.3601 66.7068C52.3601 66.7448 52.4978 66.7828 52.6679 66.7828C52.838 66.7828 52.9717 66.7483 52.9717 66.7068Z" fill="#C9E7DB"/>
<path d="M54.1943 66.7068C54.1943 66.6687 54.0566 66.6342 53.8906 66.6342C53.7245 66.6342 53.5828 66.6687 53.5828 66.7068C53.5828 66.7448 53.7205 66.7828 53.8906 66.7828C54.0607 66.7828 54.1943 66.7483 54.1943 66.7068Z" fill="#C9E7DB"/>
<path d="M55.4248 66.7068C55.4248 66.6687 55.2912 66.6342 55.1211 66.6342C54.951 66.6342 54.8133 66.6687 54.8133 66.7068C54.8133 66.7448 54.951 66.7828 55.1211 66.7828C55.2912 66.7828 55.4248 66.7483 55.4248 66.7068Z" fill="#C9E7DB"/>
<path d="M56.6436 66.7068C56.6436 66.6687 56.5099 66.6342 56.3398 66.6342C56.1697 66.6342 56.032 66.6687 56.032 66.7068C56.032 66.7448 56.1697 66.7828 56.3398 66.7828C56.5099 66.7828 56.6436 66.7483 56.6436 66.7068Z" fill="#C9E7DB"/>
<path d="M57.8818 66.7068C57.8818 66.6687 57.7482 66.6342 57.5781 66.6342C57.408 66.6342 57.2703 66.6687 57.2703 66.7068C57.2703 66.7448 57.408 66.7828 57.5781 66.7828C57.7482 66.7828 57.8818 66.7483 57.8818 66.7068Z" fill="#C9E7DB"/>
<path d="M58.8241 66.424C58.7755 66.424 58.7391 66.5519 58.7391 66.704L58.8241 66.6314H58.6986H58.5933C58.5325 66.6314 58.4961 66.666 58.4961 66.6833C58.4961 66.7006 58.5325 66.7248 58.5933 66.7352H58.6986H58.8241C58.8646 66.7006 58.7391 66.8078 58.9092 66.6591C58.9092 66.5554 58.8727 66.424 58.8241 66.424Z" fill="#C9E7DB"/>
<path d="M58.8241 65.3002C58.7755 65.3002 58.7391 65.4246 58.7391 65.5802C58.7391 65.7358 58.7755 65.8637 58.8241 65.8637C58.8727 65.8637 58.9092 65.7358 58.9092 65.5802C58.9092 65.4246 58.8727 65.3002 58.8241 65.3002Z" fill="#C9E7DB"/>
<path d="M58.8241 64.1707C58.7755 64.1707 58.7391 64.2986 58.7391 64.4541C58.7391 64.6097 58.7755 64.7342 58.8241 64.7342C58.8727 64.7342 58.9092 64.6097 58.9092 64.4541C58.9092 64.2986 58.8727 64.1707 58.8241 64.1707Z" fill="#C9E7DB"/>
<path d="M58.8241 63.0393C58.7755 63.0393 58.7391 63.1672 58.7391 63.3228C58.7391 63.4784 58.7755 63.6063 58.8241 63.6063C58.8727 63.6063 58.9092 63.4784 58.9092 63.3228C58.9092 63.1672 58.8727 63.0393 58.8241 63.0393Z" fill="#C9E7DB"/>
<path d="M58.8241 61.9286C58.7755 61.9286 58.7391 62.053 58.7391 62.2086C58.7391 62.3642 58.7755 62.4921 58.8241 62.4921C58.8727 62.4921 58.9092 62.3677 58.9092 62.2086C58.9092 62.0496 58.8727 61.9286 58.8241 61.9286Z" fill="#C9E7DB"/>
<path d="M58.8241 60.7804C58.7755 60.7804 58.7391 60.9083 58.7391 61.0639C58.7391 61.2195 58.7755 61.3439 58.8241 61.3439C58.8727 61.3439 58.9092 61.2195 58.9092 61.0639C58.9092 60.9083 58.8727 60.7804 58.8241 60.7804Z" fill="#C9E7DB"/>
<path d="M58.8241 59.6537C58.7755 59.6537 58.7391 59.7781 58.7391 59.9337C58.7391 60.0893 58.7755 60.2172 58.8241 60.2172C58.8727 60.2172 58.9092 60.0893 58.9092 59.9337C58.9092 59.7781 58.8727 59.6537 58.8241 59.6537Z" fill="#C9E7DB"/>
<path d="M58.4893 58.8174C58.4893 58.8589 58.6351 58.89 58.8173 58.89C58.6472 58.7448 58.7687 58.852 58.7323 58.8174V58.8658V58.9211C58.7297 58.9499 58.7297 58.9788 58.7323 59.0075C58.7323 59.0594 58.7687 59.0905 58.793 59.0905C58.8173 59.0905 58.8376 59.0594 58.8538 59.0075C58.8632 58.9792 58.87 58.9503 58.874 58.9211V58.8174L58.789 58.7448C58.6351 58.7344 58.4893 58.7655 58.4893 58.8174Z" fill="#C9E7DB"/>
<path d="M57.2703 58.8173C57.2703 58.8588 57.408 58.8899 57.5781 58.8899C57.7482 58.8899 57.8818 58.8588 57.8818 58.8173C57.8818 58.7758 57.7482 58.7447 57.5781 58.7447C57.408 58.7447 57.2703 58.7654 57.2703 58.8173Z" fill="#C9E7DB"/>
<path d="M56.032 58.8173C56.032 58.8588 56.1697 58.8899 56.3398 58.8899C56.5099 58.8899 56.6436 58.8588 56.6436 58.8173C56.6436 58.7758 56.5099 58.7447 56.3398 58.7447C56.1697 58.7447 56.032 58.7654 56.032 58.8173Z" fill="#C9E7DB"/>
<path d="M54.8015 58.8173C54.8015 58.8588 54.9392 58.8899 55.1093 58.8899C55.2794 58.8899 55.4131 58.8588 55.4131 58.8173C55.4131 58.7758 55.2794 58.7447 55.1093 58.7447C54.9392 58.7447 54.8015 58.7654 54.8015 58.8173Z" fill="#C9E7DB"/>
<path d="M53.5828 58.8173C53.5828 58.8588 53.7205 58.8899 53.8906 58.8899C54.0607 58.8899 54.1943 58.8588 54.1943 58.8173C54.1943 58.7758 54.0566 58.7447 53.8906 58.7447C53.7245 58.7447 53.5828 58.7654 53.5828 58.8173Z" fill="#C9E7DB"/>
<path d="M52.364 58.8173C52.364 58.8588 52.5017 58.8899 52.6718 58.8899C52.8419 58.8899 52.9756 58.8588 52.9756 58.8173C52.9756 58.7758 52.8379 58.7447 52.6718 58.7447C52.5058 58.7447 52.364 58.7654 52.364 58.8173Z" fill="#C9E7DB"/>
<path d="M51.1297 58.8173C51.1297 58.8588 51.2674 58.8899 51.4375 58.8899C51.6076 58.8899 51.7412 58.8588 51.7412 58.8173C51.7412 58.7758 51.6035 58.7447 51.4375 58.7447C51.2714 58.7447 51.1297 58.7654 51.1297 58.8173Z" fill="#C9E7DB"/>
<path d="M49.907 58.8173C49.907 58.8588 50.0447 58.8899 50.2148 58.8899C50.3849 58.8899 50.5186 58.8588 50.5186 58.8173C50.5186 58.7758 50.3809 58.7447 50.2148 58.7447C50.0488 58.7447 49.907 58.7654 49.907 58.8173Z" fill="#C9E7DB"/>
<path d="M48.9561 59.0887C49.0047 59.0887 49.0412 58.9642 49.0412 58.8086C48.8711 58.9538 48.9966 58.8501 48.9561 58.8812H49.0857H49.191C49.2477 58.8812 49.2842 58.8501 49.2842 58.8294C49.2842 58.8086 49.2477 58.7914 49.191 58.7775H49.0857H49.025H48.9561L48.8711 58.8501C48.8711 58.9642 48.9075 59.0887 48.9561 59.0887Z" fill="#C9E7DB"/>
<path d="M48.9569 60.2172C49.0055 60.2172 49.042 60.0893 49.042 59.9337C49.042 59.7781 49.0055 59.6537 48.9569 59.6537C48.9083 59.6537 48.8719 59.7781 48.8719 59.9337C48.8719 60.0893 48.9083 60.2172 48.9569 60.2172Z" fill="#C9E7DB"/>
<path d="M48.9569 61.3439C49.0055 61.3439 49.042 61.2195 49.042 61.0639C49.042 60.9083 49.0055 60.7804 48.9569 60.7804C48.9083 60.7804 48.8719 60.9083 48.8719 61.0639C48.8719 61.2195 48.9083 61.3439 48.9569 61.3439Z" fill="#C9E7DB"/>
<path d="M48.9569 62.4734C49.0055 62.4734 49.042 62.3489 49.042 62.1899C49.042 62.0309 49.0055 61.9099 48.9569 61.9099C48.9083 61.9099 48.8719 62.0343 48.8719 62.1899C48.8719 62.3455 48.9083 62.4734 48.9569 62.4734Z" fill="#C9E7DB"/>
<path d="M48.9569 63.6063C49.0055 63.6063 49.042 63.4784 49.042 63.3228C49.042 63.1672 49.0055 63.0393 48.9569 63.0393C48.9083 63.0393 48.8719 63.1672 48.8719 63.3228C48.8719 63.4784 48.9083 63.6063 48.9569 63.6063Z" fill="#C9E7DB"/>
<path d="M48.9569 64.7342C49.0055 64.7342 49.042 64.6097 49.042 64.4541C49.042 64.2986 49.0055 64.1707 48.9569 64.1707C48.9083 64.1707 48.8719 64.2986 48.8719 64.4541C48.8719 64.6097 48.9083 64.7342 48.9569 64.7342Z" fill="#C9E7DB"/>
<path d="M48.9569 65.8637C49.0055 65.8637 49.042 65.7358 49.042 65.5802C49.042 65.4246 49.0055 65.3002 48.9569 65.3002C48.9083 65.3002 48.8719 65.4246 48.8719 65.5802C48.8719 65.7358 48.9083 65.8637 48.9569 65.8637Z" fill="#C9E7DB"/>
<path d="M58.5878 66.5075H59.0576V66.9086H58.5878V66.5075Z" fill="#C9E7DB"/>
<path d="M58.5878 58.6049H59.0576V59.006H58.5878V58.6049Z" fill="#C9E7DB"/>
<path d="M48.7284 58.6049H49.1982V59.006H48.7284V58.6049Z" fill="#C9E7DB"/>
<path d="M48.7284 66.3058H49.1982V66.7068H48.7284V66.3058Z" fill="#C9E7DB"/>
<path d="M53.8925 66.5075H54.3623V66.9086H53.8925V66.5075Z" fill="#C9E7DB"/>
<path d="M53.662 58.6049H54.1318V59.006H53.662V58.6049Z" fill="#C9E7DB"/>
<path d="M58.5878 62.7579H59.0576V63.1589H58.5878V62.7579Z" fill="#C9E7DB"/>
<path d="M48.9589 62.5581H49.4287V62.9591H48.9589V62.5581Z" fill="#C9E7DB"/>
<path d="M71.5983 44.3778H35.1257C34.9249 44.3767 34.7265 44.3358 34.5428 44.2578C34.3592 44.1797 34.1942 44.0661 34.0583 43.9242L20.3762 29.4883C20.1358 29.2326 20.0022 28.9007 20.001 28.5562V2.20122C20.001 1.83369 20.153 1.48121 20.4235 1.22132C20.6941 0.961433 21.061 0.81543 21.4436 0.81543H56.3766C56.7592 0.81543 57.1261 0.961433 57.3967 1.22132C57.6672 1.48121 57.8192 1.83369 57.8192 2.20122V27.4189C57.8191 27.6031 57.8575 27.7854 57.9319 27.9551C58.0063 28.1248 58.1154 28.2784 58.2526 28.407L72.6399 42.0039C72.846 42.1985 72.9865 42.4481 73.0432 42.7203C73.0999 42.9925 73.0703 43.2747 72.958 43.5305C72.8458 43.7863 72.6562 44.0039 72.4138 44.1549C72.1713 44.306 71.8872 44.3837 71.5983 44.3778Z" fill="#263238"/>
<path d="M21.2676 2.47028H56.4658V26.5321H21.2676V2.47028Z" fill="#F5F5F5"/>
<path d="M20.4679 28.2139C20.4679 28.3009 28.6578 28.3755 38.7625 28.3755C48.8672 28.3755 57.0635 28.3009 57.0635 28.2139C57.0635 28.1269 48.8736 28.0524 38.7625 28.0524C28.6513 28.0524 20.4679 28.1207 20.4679 28.2139Z" fill="#455A64"/>
<path d="M23.9775 24.7529C23.6058 24.6928 23.2284 24.672 22.8519 24.6907H22.6837L22.7484 24.7529C22.7685 24.447 22.7468 24.1398 22.6837 23.8394C22.6246 24.1403 22.6028 24.447 22.619 24.7529V24.8212H22.8519C23.2286 24.8436 23.6068 24.8206 23.9775 24.7529Z" fill="#263238"/>
<path d="M26.5635 24.753C26.1366 24.6693 25.6965 24.6693 25.2697 24.753C25.6957 24.8441 26.1374 24.8441 26.5635 24.753Z" fill="#263238"/>
<path d="M29.1455 24.753C28.7186 24.6693 28.2786 24.6693 27.8517 24.753C28.2777 24.8441 28.7195 24.8441 29.1455 24.753Z" fill="#263238"/>
<path d="M31.7354 24.753C31.3085 24.6693 30.8684 24.6693 30.4415 24.753C30.8676 24.8441 31.3093 24.8441 31.7354 24.753Z" fill="#263238"/>
<path d="M34.3174 24.753C33.8905 24.6693 33.4504 24.6693 33.0236 24.753C33.4496 24.8441 33.8913 24.8441 34.3174 24.753Z" fill="#263238"/>
<path d="M36.915 24.753C36.4882 24.6693 36.0481 24.6693 35.6212 24.753C36.0473 24.8441 36.489 24.8441 36.915 24.753Z" fill="#263238"/>
<path d="M39.501 24.753C39.0741 24.6693 38.634 24.6693 38.2072 24.753C38.6332 24.8441 39.0749 24.8441 39.501 24.753Z" fill="#263238"/>
<path d="M42.0869 24.753C41.66 24.6693 41.22 24.6693 40.7931 24.753C41.2192 24.8441 41.6609 24.8441 42.0869 24.753Z" fill="#263238"/>
<path d="M44.6729 24.753C44.246 24.6693 43.8059 24.6693 43.379 24.753C43.8051 24.8441 44.2468 24.8441 44.6729 24.753Z" fill="#263238"/>
<path d="M47.2627 24.753C46.8358 24.6693 46.3958 24.6693 45.9689 24.753C46.3949 24.8441 46.8366 24.8441 47.2627 24.753Z" fill="#263238"/>
<path d="M49.8525 24.753C49.4257 24.6693 48.9856 24.6693 48.5587 24.753C48.9848 24.8441 49.4265 24.8441 49.8525 24.753Z" fill="#263238"/>
<path d="M52.4385 24.753C52.0116 24.6693 51.5715 24.6693 51.1447 24.753C51.5707 24.8441 52.0124 24.8441 52.4385 24.753Z" fill="#263238"/>
<path d="M55.0244 24.753C54.5975 24.6693 54.1575 24.6693 53.7306 24.753C54.1567 24.8441 54.5984 24.8441 55.0244 24.753Z" fill="#263238"/>
<path d="M55.0463 22.2858C54.981 22.4866 54.9589 22.698 54.9816 22.9073C54.9582 23.1165 54.9802 23.3281 55.0463 23.5287C55.1164 23.3289 55.1407 23.1169 55.1174 22.9073C55.1399 22.6976 55.1156 22.4858 55.0463 22.2858Z" fill="#263238"/>
<path d="M55.0463 19.7999C54.981 20.0006 54.9589 20.2121 54.9816 20.4213C54.9582 20.6305 54.9802 20.8421 55.0463 21.0427C55.1164 20.8429 55.1407 20.6309 55.1174 20.4213C55.1399 20.2116 55.1156 19.9998 55.0463 19.7999Z" fill="#263238"/>
<path d="M55.0463 17.3139C54.981 17.5147 54.9589 17.7261 54.9816 17.9353C54.9582 18.1445 54.9802 18.3561 55.0463 18.5568C55.1164 18.357 55.1407 18.145 55.1174 17.9353C55.1399 17.7257 55.1156 17.5139 55.0463 17.3139Z" fill="#263238"/>
<path d="M55.0463 14.8298C54.981 15.0305 54.9589 15.242 54.9816 15.4512C54.9582 15.6604 54.9802 15.872 55.0463 16.0726C55.1164 15.8729 55.1407 15.6609 55.1174 15.4512C55.1399 15.2416 55.1156 15.0297 55.0463 14.8298Z" fill="#263238"/>
<path d="M55.0463 12.3438C54.981 12.5446 54.9589 12.756 54.9816 12.9652C54.9582 13.1745 54.9802 13.3861 55.0463 13.5867C55.1164 13.3869 55.1407 13.1749 55.1174 12.9652C55.1399 12.7556 55.1156 12.5438 55.0463 12.3438Z" fill="#263238"/>
<path d="M55.0463 9.85596C54.981 10.0567 54.9589 10.2682 54.9816 10.4774C54.9582 10.6866 54.9802 10.8982 55.0463 11.0988C55.1164 10.899 55.1407 10.687 55.1174 10.4774C55.1399 10.2677 55.1156 10.0559 55.0463 9.85596Z" fill="#263238"/>
<path d="M52.9376 9.39649C53.3637 9.48765 53.8054 9.48765 54.2314 9.39649C53.8045 9.31364 53.3646 9.31364 52.9376 9.39649Z" fill="#263238"/>
<path d="M50.3478 9.39649C50.7738 9.48765 51.2155 9.48765 51.6416 9.39649C51.2146 9.31364 50.7747 9.31364 50.3478 9.39649Z" fill="#263238"/>
<path d="M47.7618 9.39649C48.1879 9.48765 48.6296 9.48765 49.0557 9.39649C48.6287 9.31364 48.1888 9.31364 47.7618 9.39649Z" fill="#263238"/>
<path d="M45.1759 9.39649C45.602 9.48765 46.0437 9.48765 46.4697 9.39649C46.0428 9.31364 45.6029 9.31364 45.1759 9.39649Z" fill="#263238"/>
<path d="M42.59 9.39649C43.016 9.48765 43.4577 9.48765 43.8838 9.39649C43.4568 9.31364 43.0169 9.31364 42.59 9.39649Z" fill="#263238"/>
<path d="M39.9923 9.39649C40.4184 9.48765 40.8601 9.48765 41.2861 9.39649C40.8592 9.31364 40.4193 9.31364 39.9923 9.39649Z" fill="#263238"/>
<path d="M37.4103 9.39649C37.8363 9.48765 38.278 9.48765 38.7041 9.39649C38.2771 9.31364 37.8372 9.31364 37.4103 9.39649Z" fill="#263238"/>
<path d="M34.8204 9.39649C35.2465 9.48765 35.6882 9.48765 36.1143 9.39649C35.6873 9.31364 35.2474 9.31364 34.8204 9.39649Z" fill="#263238"/>
<path d="M32.2384 9.39649C32.6645 9.48765 33.1062 9.48765 33.5322 9.39649C33.1053 9.31364 32.6654 9.31364 32.2384 9.39649Z" fill="#263238"/>
<path d="M29.6525 9.39649C30.0785 9.48765 30.5202 9.48765 30.9463 9.39649C30.5193 9.31364 30.0794 9.31364 29.6525 9.39649Z" fill="#263238"/>
<path d="M27.0626 9.39649C27.4887 9.48765 27.9304 9.48765 28.3564 9.39649C27.9295 9.31364 27.4896 9.31364 27.0626 9.39649Z" fill="#263238"/>
<path d="M24.4689 9.39649C24.8949 9.48765 25.3366 9.48765 25.7627 9.39649C25.3357 9.31364 24.8958 9.31364 24.4689 9.39649Z" fill="#263238"/>
<path d="M22.6761 10.1682C22.7454 9.96826 22.7697 9.75642 22.7472 9.54677V9.39762L22.6826 9.46598C22.8518 9.47755 23.0216 9.45425 23.1807 9.39762C23.0216 9.34134 22.8513 9.32011 22.6826 9.33549H22.6179V9.54677C22.5931 9.75556 22.6129 9.96701 22.6761 10.1682Z" fill="#263238"/>
<path d="M22.6791 12.6542C22.7484 12.4542 22.7727 12.2424 22.7502 12.0327C22.7735 11.8231 22.7492 11.6111 22.6791 11.4113C22.613 11.6119 22.591 11.8235 22.6144 12.0327C22.5918 12.242 22.6138 12.4534 22.6791 12.6542Z" fill="#263238"/>
<path d="M22.6791 15.1373C22.7484 14.9374 22.7727 14.7255 22.7502 14.5159C22.7735 14.3063 22.7492 14.0943 22.6791 13.8945C22.613 14.0951 22.591 14.3067 22.6144 14.5159C22.5918 14.7251 22.6138 14.9366 22.6791 15.1373Z" fill="#263238"/>
<path d="M22.6791 17.6243C22.7484 17.4243 22.7727 17.2125 22.7502 17.0028C22.7735 16.7932 22.7492 16.5812 22.6791 16.3814C22.613 16.582 22.591 16.7936 22.6144 17.0028C22.5918 17.2121 22.6138 17.4235 22.6791 17.6243Z" fill="#263238"/>
<path d="M22.6791 20.1102C22.7484 19.9103 22.7727 19.6985 22.7502 19.4888C22.7735 19.2792 22.7492 19.0672 22.6791 18.8674C22.613 19.068 22.591 19.2796 22.6144 19.4888C22.5918 19.698 22.6138 19.9095 22.6791 20.1102Z" fill="#263238"/>
<path d="M22.6791 22.5962C22.7484 22.3962 22.7727 22.1844 22.7502 21.9748C22.7735 21.7651 22.7492 21.5531 22.6791 21.3533C22.613 21.554 22.591 21.7656 22.6144 21.9748C22.5918 22.184 22.6138 22.3954 22.6791 22.5962Z" fill="#263238"/>
<path d="M22.6792 3.73578H55.0439V8.21631H22.6792V3.73578Z" fill="#263238"/>
<path d="M30.8646 37.2685L23.2311 29.2644H56.1134L64.5361 37.0261L30.8646 37.2685Z" fill="#455A64"/>
<path d="M49.458 35.5294C49.458 35.5294 47.0695 32.0842 47.0049 32.0601C47.0049 32.0601 44.8531 28.5736 44.1358 28.5736C43.4185 28.5736 43.6767 29.2799 44.4155 30.5305C44.7722 31.0728 45.0158 31.6766 45.1328 32.3082L43.3647 33.3417C43.3647 33.3417 42.1812 32.9042 42.131 33.9619C42.1512 34.4459 42.2196 34.927 42.3354 35.3985C42.4071 35.7775 42.5864 36.1771 42.9558 36.0359C43.0482 36.0061 43.1284 35.9491 43.1851 35.8731C43.2417 35.797 43.272 35.7057 43.2715 35.6121C43.2966 34.9851 43.1746 34.7542 43.2715 34.7542C43.3683 34.7542 44.5446 38.0409 44.5446 38.0409L49.458 35.5294Z" fill="#FFBE9D"/>
<path d="M44.6416 32.832C44.4627 32.7059 44.2717 32.5964 44.0714 32.5047C43.87 32.4147 43.6462 32.3812 43.4258 32.4083C43.2869 32.427 43.1596 32.493 43.0672 32.5943C43.0132 32.6694 42.9788 32.7559 42.9669 32.8464C42.9551 32.937 42.9661 33.0289 42.999 33.1145C43.0683 33.2851 43.1664 33.4434 43.2895 33.5831" fill="#FFBE9D"/>
<path d="M45.4541 32.1446C45.2837 32.0286 45.1038 31.9261 44.9161 31.838C44.7249 31.7521 44.512 31.721 44.3029 31.7485C44.1726 31.7652 44.053 31.8264 43.9657 31.9207C43.9131 31.9912 43.8796 32.0731 43.8683 32.1592C43.8571 32.2452 43.8683 32.3326 43.9012 32.4134C44.0593 32.6603 44.2431 32.8912 44.4499 33.1024" fill="#FFBE9D"/>
<path d="M48.629 33.5906L52.0791 40.6773L48.2739 44.4119L46.2978 39.1304C46.2978 39.1304 45.2219 39.3337 44.8023 38.655C44.3181 37.9005 43.6833 35.7162 43.6833 35.7162L48.629 33.5906Z" fill="#FFBE9D"/>
<path d="M46.1611 33.3935C46.1282 33.0357 45.9859 32.6953 45.7523 32.415C45.5964 32.2072 45.3943 32.0353 45.1605 31.912C44.9812 31.819 44.8629 31.788 44.8521 31.8087C44.8413 31.8293 45.2645 32.0705 45.6017 32.5184C45.9388 32.9662 46.1002 33.4176 46.1611 33.3935Z" fill="#EB996E"/>
<path d="M42.3366 33.4268C42.3546 33.4509 42.4693 33.3889 42.6702 33.3544C42.9281 33.3083 43.1947 33.3471 43.4269 33.4647C43.6507 33.6025 43.8415 33.7845 43.9864 33.9987C44.1083 34.164 44.1908 34.2674 44.2123 34.2571C44.2338 34.2467 44.2123 34.1192 44.0975 33.9332C43.9716 33.6743 43.7696 33.4564 43.5165 33.3062C43.3829 33.2374 43.2362 33.1952 43.0853 33.1822C42.9343 33.1692 42.7821 33.1856 42.6379 33.2304C42.4191 33.3027 42.3223 33.4095 42.3366 33.4268Z" fill="#EB996E"/>
<path d="M43.6139 32.4274C43.8993 32.5524 44.1709 32.7048 44.4245 32.8822C44.8118 33.2267 45.0019 33.5953 45.0557 33.5712C45.0054 33.2439 44.8239 32.9484 44.55 32.7478C44.3681 32.5938 44.1504 32.4839 43.9152 32.4274C43.7323 32.3895 43.6175 32.4033 43.6139 32.4274Z" fill="#EB996E"/>
<path d="M42.7662 33.9565C42.716 33.9565 42.6264 34.2114 42.8093 34.487C42.9922 34.7627 43.2827 34.804 43.2898 34.7558C43.297 34.7075 43.1034 34.6076 42.9671 34.394C42.8308 34.1804 42.82 33.9634 42.7662 33.9565Z" fill="#EB996E"/>
<path d="M49.4585 35.3915C49.4585 35.3915 49.5768 33.2761 49.046 32.7973C48.5152 32.3184 46.9874 32.8179 46.9874 32.8179" fill="#FFBE9D"/>
<path d="M46.7684 31.7988C46.978 32.2308 47.2431 32.6359 47.5574 33.0046C47.8223 33.4068 48.1379 33.7759 48.4971 34.1036C48.0244 33.2684 47.4436 32.4939 46.7684 31.7988Z" fill="#EB996E"/>
<path d="M83.946 33.7348C83.8922 33.4523 83.8205 33.1216 83.7201 32.7357C83.6293 32.4054 83.4814 32.0921 83.2825 31.8089C83.0491 31.4476 82.7655 31.1184 82.4397 30.8305C82.3674 30.7868 82.3112 30.7225 82.2789 30.6466C82.2466 30.5706 82.2399 30.4869 82.2596 30.4071C82.2794 30.3273 82.3247 30.2554 82.3892 30.2016C82.4536 30.1478 82.534 30.1147 82.619 30.107C82.9777 30.107 83.9066 30.7306 84.5378 31.8296C85.169 32.9286 85.5384 30.9821 85.6854 30.2758C85.8325 29.5696 86.4027 27.3991 86.6645 27.2717C87.0483 27.0822 87.328 27.4439 87.163 28.1467C86.998 28.8495 86.6573 30.9924 87.0518 31.051C87.4463 31.1096 88.1278 27.4956 88.1278 27.4956C88.1278 27.4956 88.1493 26.6998 88.6048 26.7514C89.426 26.8445 88.386 30.6307 88.2748 30.989C88.1995 31.237 88.6334 31.3335 88.6908 31.0441C88.7482 30.7547 89.3077 27.4232 90.1469 27.5128C90.7889 27.5783 89.3184 30.6341 89.6054 31.3886C89.8923 32.1431 90.4769 28.977 91.0865 29.0494C91.3161 29.0838 91.481 29.1355 90.8714 30.9166C90.5773 31.7814 89.4368 35.826 89.4368 35.826L90.0931 39.1437L84.8534 40.4184L83.946 33.7348Z" fill="#FFBE9D"/>
<path d="M77.3101 15.7726L77.3604 32.2785L69.9903 32.623L69.7787 28.6094C69.7787 28.6094 67.157 29.1089 66.4828 26.7731C66.0524 25.2813 66.16 13.7469 66.16 13.7469L77.3101 15.7726Z" fill="#FFBE9D"/>
<path d="M65.1908 14.9167C66.3528 15.2337 66.6038 17.0596 66.6038 17.0596L68.4257 20.9216C69.3546 20.2326 70.5991 20.2636 70.8358 21.8312C71.008 22.9612 69.5411 23.192 69.5411 23.192C70.3947 24.5701 70.9757 25.7139 72.213 27.0403C73.5579 28.4735 74.311 28.6182 75.7671 28.6423H77.3738C77.3738 28.6423 78.1628 26.1893 79.6189 20.0535C81.2364 13.2492 72.8585 14.1243 71.3056 12.388C68.7736 9.54569 61.5327 13.8832 65.1908 14.9167Z" fill="#263238"/>
<path d="M79.4654 20.6849C80.8246 19.8064 80.9466 17.3569 80.154 15.8858C79.7473 15.1528 79.1466 14.5359 78.4123 14.0974C77.6781 13.6588 76.8364 13.4141 75.9722 13.3881C75.7411 13.3995 75.5096 13.3738 75.2872 13.3123C74.9893 13.1563 74.7413 12.9252 74.5699 12.6439C73.3541 11.128 72.1635 9.63971 69.9076 9.63971C69.4046 9.61715 68.9058 9.73694 68.473 9.98423C68.0723 10.2486 67.7716 10.6306 67.6159 11.0729C67.2018 10.8586 66.7571 10.7042 66.2961 10.6147C66.0642 10.5709 65.8251 10.576 65.5954 10.6295C65.3657 10.6831 65.1508 10.7838 64.9655 10.9248C64.7862 11.0723 64.667 11.276 64.629 11.4998C64.5909 11.7236 64.6364 11.9531 64.7575 12.1478C64.3746 12.1427 64.0024 12.2695 63.7083 12.5052C63.4143 12.741 63.2178 13.07 63.1544 13.4328C63.0325 14.1563 64.1156 14.6662 64.2303 14.7213C64.2303 14.7213 63.6386 15.9168 65.0516 16.63C65.6218 16.9194 66.3642 16.5714 66.4467 16.5301" fill="#263238"/>
<path d="M74.0843 22.2686C73.9405 23.1122 74.1423 23.9765 74.6474 24.6802C74.694 24.6561 74.4573 24.1497 74.2887 23.4917C74.1202 22.8336 74.1381 22.2721 74.0843 22.2686Z" fill="#455A64"/>
<path d="M73.1943 21.4637C73.1315 21.8659 73.1547 22.2762 73.2624 22.6695C73.3076 23.0751 73.4407 23.4671 73.6533 23.8202C73.6215 23.421 73.5519 23.0255 73.4453 22.6385C73.4006 22.2401 73.3165 21.8468 73.1943 21.4637Z" fill="#455A64"/>
<path d="M70.6347 18.7366C70.6168 18.7607 70.8248 18.9089 71.0902 19.2052C71.4318 19.5983 71.701 20.0445 71.8863 20.5247C72.0691 21.0089 72.2153 21.5051 72.3239 22.0095C72.3577 22.2239 72.4192 22.4333 72.5068 22.6331C72.5229 22.416 72.506 22.1978 72.4566 21.9854C72.3801 21.4647 72.2466 20.9531 72.0585 20.4592C71.8676 19.9594 71.5709 19.5031 71.187 19.119C71.0375 18.9508 70.8481 18.8197 70.6347 18.7366Z" fill="#455A64"/>
<path d="M69.6016 16.882C69.5801 16.882 69.5048 17.0405 69.4582 17.3299C69.3496 18.0895 69.5514 18.8599 70.0212 19.4797C70.2006 19.7105 70.3476 19.8242 70.3799 19.807C70.1005 19.37 69.8788 18.9013 69.72 18.4117C69.6134 17.9086 69.5736 17.3947 69.6016 16.882Z" fill="#455A64"/>
<path d="M78.397 21.0045C78.4221 21.0459 78.648 20.9701 78.9026 20.8357C79.1573 20.7014 79.3402 20.5532 79.3151 20.5119C79.29 20.4705 79.064 20.5429 78.813 20.6807C78.5619 20.8185 78.3719 20.9598 78.397 21.0045Z" fill="#455A64"/>
<path d="M74.8371 19.2407C74.8094 19.4978 74.8851 19.7554 75.0487 19.9607C75.2747 20.3225 75.5831 20.5119 75.6118 20.474C75.6405 20.4361 75.4145 20.2019 75.2101 19.8677C75.0057 19.5335 74.8909 19.2303 74.8371 19.2407Z" fill="#455A64"/>
<path d="M73.7484 18.6757C73.7558 18.9883 73.8705 19.2899 74.0747 19.5335C74.3724 19.9642 74.7418 20.195 74.7705 20.1571C74.6063 19.9059 74.4266 19.6643 74.2325 19.4336C74.0862 19.1724 73.9245 18.9193 73.7484 18.6757Z" fill="#455A64"/>
<path d="M68.3038 11.7658C68.3038 11.7658 68.4437 11.6624 68.7091 11.5177C69.0891 11.3228 69.5121 11.2177 69.9428 11.2111C70.5751 11.1981 71.1978 11.3608 71.736 11.6797C72.3923 12.0908 72.9252 12.6597 73.2818 13.3299C73.5509 13.8224 73.7614 14.3425 73.9094 14.8802L73.9381 14.9836L74.0349 14.9319C74.5436 14.6766 75.1072 14.5386 75.6811 14.5288C76.1353 14.517 76.5882 14.5823 77.0188 14.7217C77.3957 14.8606 77.7564 15.0373 78.0947 15.2489C78.0247 15.1663 77.9411 15.0954 77.8473 15.0387C77.6003 14.8636 77.3286 14.7232 77.0403 14.6218C76.5995 14.4604 76.1313 14.3786 75.6596 14.3807C75.0596 14.3797 74.4681 14.5167 73.9345 14.7803L74.0636 14.8354C73.9176 14.2839 73.7045 13.7509 73.4288 13.2472C73.061 12.5425 72.5007 11.947 71.8078 11.5246C71.2336 11.1958 70.571 11.0375 69.9034 11.0699C69.4537 11.0884 69.0165 11.2177 68.6338 11.4454C68.5327 11.508 68.4378 11.5795 68.3505 11.659C68.3289 11.7279 68.3002 11.7589 68.3038 11.7658Z" fill="#455A64"/>
<path d="M64.4239 12.6598C64.4239 12.6598 64.2194 12.6081 64.0007 12.8458C63.9377 12.9166 63.8903 12.9988 63.8613 13.0876C63.8324 13.1765 63.8224 13.27 63.8321 13.3626C63.8513 13.4857 63.8998 13.6029 63.9738 13.7051C64.0478 13.8073 64.1454 13.8917 64.2589 13.9517C64.5313 14.0991 64.852 14.141 65.1555 14.0689C65.4907 13.9859 65.8053 13.8395 66.0808 13.6382C66.3687 13.4215 66.6706 13.2225 66.9846 13.0422C67.3215 12.868 67.6844 12.7449 68.0605 12.677C68.8028 12.5486 69.5666 12.5983 70.2841 12.8217C70.8713 13.0065 71.4254 13.2773 71.9266 13.6244C72.3826 13.9577 72.8207 14.313 73.2393 14.689C73.1566 14.5638 73.0591 14.4482 72.9488 14.3445C72.6595 14.0456 72.3439 13.7712 72.0055 13.5245C71.5008 13.155 70.9378 12.8654 70.3379 12.6667C69.5944 12.4271 68.8004 12.3703 68.0282 12.5013C67.6279 12.5743 67.2419 12.7068 66.8841 12.8941C66.5657 13.0791 66.2602 13.2839 65.9696 13.5073C65.7137 13.6996 65.4214 13.8423 65.1089 13.9276C64.8434 13.9986 64.5597 13.969 64.3163 13.8449C64.2156 13.7978 64.1278 13.7287 64.0599 13.6432C63.992 13.5576 63.946 13.458 63.9254 13.3523C63.9014 13.1995 63.9383 13.0437 64.0287 12.916C64.1191 12.7882 64.2564 12.698 64.4131 12.6632L64.4239 12.6598Z" fill="#455A64"/>
<path d="M84.8068 33.084L93.8159 48.5598C94.0636 49.2466 94.1296 49.9818 94.0082 50.6992C93.8867 51.4166 93.5816 52.0938 93.1201 52.6699L93.3066 52.4149C92.9463 52.844 92.4907 53.1904 91.9733 53.4288C91.4558 53.6672 90.8895 53.7916 90.3156 53.793H90.147C89.3974 53.793 88.6641 53.5827 88.0372 53.188C87.4102 52.7932 86.917 52.2312 86.618 51.5708L84.5056 48.4702L84.8068 33.084Z" fill="#00995B"/>
<path d="M65.3049 31.9786C67.073 31.1104 68.816 30.914 70.7203 30.8623C72.9367 30.8003 76.0641 30.5006 78.4526 30.7452C78.4526 30.7452 85.7331 30.5316 85.7653 35.9508L84.8042 56.7597L86.3643 65.6792L64.5446 66.3131L64.7024 55.7916C64.4334 50.3172 65.0072 42.5656 65.0072 42.5656C64.6737 39.6199 62.9952 38.297 62.7585 36.3815C62.5362 34.6899 63.7125 32.7537 65.3049 31.9786Z" fill="#00995B"/>
<path d="M71.4417 57.0623C71.5366 57.1721 71.645 57.2704 71.7644 57.3552C72.0758 57.5999 72.4081 57.8189 72.7579 58.0098C73.9208 58.649 75.2328 58.9962 76.5725 59.0191C77.9121 59.042 79.2362 58.7398 80.422 58.1407C80.7783 57.9606 81.1189 57.7532 81.4406 57.5206C81.5618 57.4393 81.6725 57.3444 81.7705 57.2381C81.749 57.2105 81.2648 57.6032 80.361 58.027C79.1853 58.5817 77.889 58.8595 76.5793 58.8373C75.2696 58.8152 73.9842 58.4937 72.8296 57.8995C71.933 57.4448 71.4668 57.0348 71.4417 57.0623Z" fill="#263238"/>
<path d="M85.7484 35.95C85.7342 36.0181 85.7258 36.0872 85.7233 36.1567C85.7233 36.3117 85.7018 36.5012 85.6874 36.7458C85.6623 37.2798 85.6265 38.0136 85.5834 38.9094C85.5009 40.756 85.3934 43.2709 85.2714 46.0478C85.1495 48.8246 85.0204 51.3395 84.9343 53.1896C84.8877 54.0853 84.8482 54.8192 84.8195 55.3532C84.8195 55.5909 84.8016 55.7873 84.7944 55.9423C84.786 56.011 84.786 56.0803 84.7944 56.149C84.8139 56.0816 84.8248 56.0122 84.8267 55.9423C84.8267 55.7907 84.8626 55.5978 84.8877 55.3566C84.9415 54.8467 84.9953 54.1095 85.0634 53.1965C85.1925 51.3705 85.3324 48.8452 85.4543 46.0581C85.5763 43.2709 85.6623 40.7422 85.7125 38.9128C85.7125 38.0171 85.7448 37.2832 85.7556 36.7458C85.7556 36.5081 85.7556 36.3117 85.7556 36.1567C85.7616 36.0877 85.7592 36.0184 85.7484 35.95Z" fill="#263238"/>
<path d="M90.3324 37.7492C90.3324 37.7492 91.1573 40.0781 91.3043 40.3917C91.3043 40.3917 93.3414 46.0486 94.0049 49.8693L87.492 38.5726C87.4346 38.5795 90.2427 37.7733 90.3324 37.7492Z" fill="#00995B"/>
<path d="M87.1178 37.0683C87.1369 37.1247 87.1621 37.179 87.1931 37.2303L87.4406 37.685C87.6629 38.0743 87.9893 38.6359 88.4089 39.3215C89.2373 40.6996 90.4818 42.5358 91.7407 44.6305C92.3683 45.664 92.9027 46.6976 93.3653 47.6588C93.8038 48.4796 94.0221 49.3927 94.0001 50.315C93.9669 50.9357 93.7944 51.5421 93.4944 52.0927C93.2792 52.4786 93.0999 52.6612 93.1143 52.6715C93.1286 52.6819 93.1645 52.6336 93.2469 52.5441C93.3615 52.4127 93.4658 52.2734 93.559 52.1272C93.8909 51.5753 94.0872 50.9578 94.1328 50.3219C94.1732 49.3764 93.9634 48.4364 93.5231 47.5899C93.064 46.6321 92.5368 45.5951 91.902 44.5409C90.6396 42.4394 89.3916 40.6134 88.5201 39.256L87.5051 37.6506L87.2254 37.213C87.1608 37.1166 87.125 37.0649 87.1178 37.0683Z" fill="#263238"/>
<path d="M46.995 42.8447L52.0375 39.6717L55.2258 44.9738C55.2258 44.9738 59.6443 39.0757 61.6491 35.6201C63.4961 32.4403 65.8846 31.5859 67.0287 31.355C67.1075 31.3393 67.1891 31.3417 67.2668 31.3621C67.3444 31.3826 67.416 31.4204 67.4755 31.4725C67.535 31.5246 67.5807 31.5895 67.6091 31.6619C67.6374 31.7343 67.6474 31.8122 67.6384 31.889L65.899 43.358C65.6802 43.9575 62.0328 49.0322 59.9993 51.5851C56.5994 55.8468 51.5928 53.1182 50.2156 50.1347C49.1397 47.7678 47.4397 44.1711 46.995 42.8447Z" fill="#00995B"/>
<path d="M53.7729 49.761C53.8356 49.5128 53.8681 49.2584 53.8697 49.003C53.9125 48.3971 53.994 47.7942 54.1136 47.1978C54.2379 46.6045 54.4556 46.033 54.7591 45.5027C54.9959 45.0997 55.1967 44.8826 55.1752 44.8619C54.9577 45.0153 54.7767 45.2114 54.6444 45.4373C54.2968 45.9641 54.0537 46.5481 53.9271 47.1599C53.8037 47.7649 53.7389 48.3796 53.7334 48.9961C53.7146 49.2517 53.7279 49.5085 53.7729 49.761Z" fill="#263238"/>
<path d="M52.2967 47.3919C52.3254 47.3919 52.3505 47.1439 52.4761 46.7684C52.6416 46.2833 52.9172 45.8397 53.283 45.4695C53.6237 45.0809 54.1035 44.829 54.6279 44.7633C54.8459 44.7675 55.0612 44.8107 55.2627 44.8907C55.1807 44.8079 55.0806 44.7436 54.9695 44.7025C54.8585 44.6614 54.7394 44.6445 54.6207 44.653C54.3376 44.6684 54.0608 44.7393 53.8072 44.8613C53.5537 44.9834 53.3289 45.154 53.1467 45.3627C52.76 45.7475 52.4843 46.2225 52.3469 46.7408C52.2775 46.9511 52.2603 47.1741 52.2967 47.3919Z" fill="#263238"/>
<path d="M67.3646 32.7683C67.3999 32.8173 67.4408 32.8624 67.4865 32.9027L67.6408 33.0542L67.8344 33.2782C68.2324 33.7585 68.5296 34.3084 68.7095 34.8974C68.9755 35.7763 69.0404 36.7001 68.8996 37.6053C68.8305 38.14 68.6844 38.663 68.4656 39.1591C68.2224 39.6913 67.9506 40.2111 67.6515 40.7163C66.4142 42.8006 65.141 44.6025 64.2229 45.9047L63.1147 47.4344C62.9686 47.6156 62.8344 47.8055 62.713 48.0029C62.713 48.0029 62.7632 47.9615 62.8421 47.8719C62.921 47.7824 63.0322 47.6514 63.1721 47.4757C63.4554 47.1312 63.8535 46.6179 64.3305 45.9771C65.581 44.3118 66.7433 42.5871 67.8129 40.8093C68.1163 40.2976 68.3917 39.7709 68.6378 39.2314C68.856 38.7208 69.002 38.1843 69.0717 37.6363C69.2045 36.7121 69.1237 35.7711 68.835 34.8802C68.641 34.2782 68.3199 33.7212 67.8918 33.2437L67.6838 33.0267C67.6192 32.975 67.5619 32.9302 67.5116 32.8854C67.4614 32.8407 67.3682 32.7614 67.3646 32.7683Z" fill="#263238"/>
<g opacity="0.3">
<path d="M73.0032 57.981C71.3929 57.292 70.1341 55.659 70.0767 54.0225C70.0526 53.8031 70.0751 53.5812 70.1429 53.3704C70.2107 53.1596 70.3224 52.9642 70.4712 52.796C70.9482 52.3447 71.7516 52.4309 72.3433 52.7271C73.3188 53.2198 73.9572 54.1466 74.6422 54.9734C75.3272 55.8002 76.1987 56.6167 77.2926 56.7166C77.7659 56.7298 78.2394 56.6963 78.7056 56.6167C79.1732 56.5364 79.6551 56.5915 80.09 56.7752C80.3009 56.8766 80.4714 57.0418 80.5751 57.2453C80.6788 57.4489 80.7099 57.6795 80.6638 57.9018C80.6638 57.9018 78.7343 59.0525 76.7187 58.9181C75.4339 58.8105 74.1774 58.4936 73.0032 57.981Z" fill="black"/>
</g>
<path d="M67.3523 63.2448C67.4005 63.2724 67.4524 63.2932 67.5066 63.3068L67.9584 63.4584C68.1557 63.5239 68.3996 63.5997 68.6757 63.672C68.9519 63.7444 69.2818 63.8408 69.6476 63.9166C70.4983 64.1117 71.359 64.2635 72.2263 64.3714C74.3528 64.6309 76.505 64.6309 78.6316 64.3714C79.4988 64.2692 80.3596 64.122 81.2102 63.9304C81.5689 63.8581 81.8988 63.765 82.1857 63.6927C82.4726 63.6203 82.7165 63.5445 82.903 63.4825L83.3585 63.3344C83.4125 63.3189 83.4643 63.2969 83.5127 63.2689C83.4556 63.274 83.3991 63.2844 83.3441 63.2999L82.8815 63.4136C82.6807 63.4688 82.4368 63.5342 82.1642 63.5962C81.8916 63.6582 81.5509 63.7409 81.1851 63.8064C80.4678 63.958 79.5892 64.0958 78.6137 64.206C77.5573 64.3191 76.4954 64.3766 75.4325 64.3783C74.3694 64.3698 73.3075 64.3065 72.2514 64.1888C71.2759 64.0751 70.4044 63.9304 69.6799 63.7754C69.3213 63.7099 68.9913 63.6238 68.7044 63.5583C68.4175 63.4929 68.1736 63.4309 67.9871 63.3757L67.5245 63.2551C67.4681 63.2426 67.4099 63.2392 67.3523 63.2448Z" fill="#263238"/>
<path d="M56.3623 3.81647C56.3623 2.92806 56.7842 2.39941 57.3588 2.39941C57.9335 2.39941 58.3553 2.92806 58.3553 3.81647C58.3553 4.70489 57.9301 5.22987 57.3588 5.22987C56.7875 5.22987 56.3623 4.69388 56.3623 3.81647ZM58.1095 3.81647C58.1095 3.08225 57.8072 2.66007 57.3688 2.66007C56.9303 2.66007 56.628 3.08225 56.628 3.81647C56.628 4.5507 56.9303 4.96921 57.3688 4.96921C57.8072 4.96921 58.1095 4.5507 58.1095 3.81647Z" fill="#00995B"/>
<path d="M58.7471 3.81647C58.7471 2.92806 59.1656 2.39941 59.7436 2.39941C60.3215 2.39941 60.7401 2.92806 60.7401 3.81647C60.7401 4.70489 60.3149 5.22987 59.7436 5.22987C59.1722 5.22987 58.7471 4.69388 58.7471 3.81647ZM60.4909 3.81647C60.4909 3.08225 60.1887 2.66007 59.7502 2.66007C59.3118 2.66007 59.0194 3.08225 59.0194 3.81647C59.0194 4.5507 59.3217 4.96921 59.7602 4.96921C60.1986 4.96921 60.4909 4.5507 60.4909 3.81647Z" fill="#00995B"/>
<path d="M61.8185 2.41364V5.20003H61.5594V2.67062H60.9648V2.41364H61.8185Z" fill="#00995B"/>
<path d="M62.4199 3.81647C62.4199 2.92806 62.8418 2.39941 63.4164 2.39941C63.9911 2.39941 64.4129 2.92806 64.4129 3.81647C64.4129 4.70489 63.9877 5.22987 63.4164 5.22987C62.8451 5.22987 62.4199 4.69388 62.4199 3.81647ZM64.1638 3.81647C64.1638 3.08225 63.8615 2.66007 63.4231 2.66007C62.9846 2.66007 62.6724 3.08225 62.6724 3.81647C62.6724 4.5507 62.9746 4.96921 63.4131 4.96921C63.8516 4.96921 64.1638 4.5507 64.1638 3.81647Z" fill="#00995B"/>
<path d="M65.491 2.41364V5.20003H65.2319V2.67062H64.6406V2.41364H65.491Z" fill="#00995B"/>
<path d="M53.8818 7.75996C53.8818 6.87521 54.3004 6.3429 54.8783 6.3429C55.4563 6.3429 55.8748 6.87521 55.8748 7.75996C55.8748 8.6447 55.4497 9.17702 54.8783 9.17702C54.307 9.17702 53.8818 8.64837 53.8818 7.75996ZM55.6257 7.75996C55.6257 7.02573 55.3234 6.60722 54.885 6.60722C54.4465 6.60722 54.1443 7.01471 54.1443 7.75996C54.1443 8.5052 54.4465 8.91269 54.885 8.91269C55.3234 8.91269 55.6257 8.5052 55.6257 7.75996Z" fill="#00995B"/>
<path d="M56.2617 7.75996C56.2617 6.87521 56.6836 6.3429 57.2582 6.3429C57.8329 6.3429 58.2547 6.87521 58.2547 7.75996C58.2547 8.6447 57.8295 9.17702 57.2582 9.17702C56.6869 9.17702 56.2617 8.64837 56.2617 7.75996ZM58.0056 7.75996C58.0056 7.02573 57.7033 6.60722 57.2649 6.60722C56.8264 6.60722 56.5241 7.01471 56.5241 7.75996C56.5241 8.5052 56.8264 8.91269 57.2649 8.91269C57.7033 8.91269 58.0189 8.5052 58.0189 7.75996H58.0056Z" fill="#00995B"/>
<path d="M59.349 6.38702V9.16975H59.0899V6.64033H58.4854V6.38702H59.349Z" fill="#00995B"/>
<path d="M59.9404 7.75996C59.9404 6.87521 60.3623 6.3429 60.9369 6.3429C61.5116 6.3429 61.9334 6.87521 61.9334 7.75996C61.9334 8.6447 61.5083 9.17702 60.9369 9.17702C60.3656 9.17702 59.9404 8.64837 59.9404 7.75996ZM61.6876 7.75996C61.6876 7.02573 61.3854 6.60722 60.9436 6.60722C60.5018 6.60722 60.2028 7.01471 60.2028 7.75996C60.2028 8.5052 60.5051 8.91269 60.9436 8.91269C61.382 8.91269 61.6777 8.5052 61.6777 7.75996H61.6876Z" fill="#00995B"/>
<path d="M63.006 6.38702V9.16975H62.7436V6.64033H62.1523V6.38702H63.006Z" fill="#00995B"/>
<path d="M64.3097 6.38702V9.16975H64.0506V6.64033H63.4561V6.38702H64.3097Z" fill="#00995B"/>
<path d="M64.9111 7.75996C64.9111 6.87521 65.3297 6.3429 65.9076 6.3429C66.4856 6.3429 66.9041 6.87521 66.9041 7.75996C66.9041 8.6447 66.479 9.17702 65.9076 9.17702C65.3363 9.17702 64.9111 8.64837 64.9111 7.75996ZM66.655 7.75996C66.655 7.02573 66.3527 6.60722 65.9143 6.60722C65.4758 6.60722 65.1735 7.01471 65.1735 7.75996C65.1735 8.5052 65.4758 8.91269 65.9143 8.91269C66.3527 8.91269 66.655 8.5052 66.655 7.75996Z" fill="#00995B"/>
<path d="M67.9826 6.38702V9.16975H67.7235V6.64033H67.1289V6.38702H67.9826Z" fill="#00995B"/>
<path d="M56.3623 11.5817C56.3623 10.6933 56.7808 10.1646 57.3588 10.1646C57.9368 10.1646 58.3553 10.6933 58.3553 11.5817C58.3553 12.4701 57.9301 12.9987 57.3588 12.9987C56.7875 12.9987 56.3623 12.4701 56.3623 11.5817ZM58.1062 11.5817C58.1062 10.8474 57.8039 10.4289 57.3654 10.4289C56.927 10.4289 56.6247 10.8364 56.6247 11.5817C56.6247 12.3269 56.927 12.7344 57.3654 12.7344C57.8039 12.7344 58.1095 12.3269 58.1095 11.5817H58.1062Z" fill="#00995B"/>
<path d="M59.4357 10.1893V12.972H59.1766V10.4426H58.582V10.1893H59.4357Z" fill="#00995B"/>
<path d="M60.7316 10.1893V12.972H60.4725V10.4426H59.8779V10.1893H60.7316Z" fill="#00995B"/>
<path d="M62.0275 10.1893V12.972H61.7684V10.4426H61.1738V10.1893H62.0275Z" fill="#00995B"/>
<path d="M62.6338 11.5817C62.6338 10.6933 63.0556 10.1646 63.6303 10.1646C64.2049 10.1646 64.6268 10.6933 64.6268 11.5817C64.6268 12.4701 64.2016 12.9987 63.6303 12.9987C63.059 12.9987 62.6338 12.4701 62.6338 11.5817ZM64.381 11.5817C64.381 10.8474 64.0754 10.4289 63.6369 10.4289C63.1985 10.4289 62.8962 10.8364 62.8962 11.5817C62.8962 12.3269 63.1985 12.7344 63.6369 12.7344C64.0754 12.7344 64.381 12.3269 64.381 11.5817Z" fill="#00995B"/>
<path d="M65.7078 10.1893V12.972H65.4487V10.4426H64.8574V10.1893H65.7078Z" fill="#00995B"/>
</svg>
