<svg width="20" height="20" viewBox="0 0 20 20" fill="none" xmlns="http://www.w3.org/2000/svg">
<path d="M1.66634 11.1916C1.66634 12.4416 2.08301 13.4832 2.81635 14.2166C3.54135 14.9416 4.58301 15.3582 5.83301 15.3582V17.1332C5.83301 17.7999 6.57466 18.1999 7.12466 17.8333L10.833 15.3582H12.5997C12.533 15.1082 12.4997 14.8499 12.4997 14.5832C12.4997 13.7332 12.8247 12.9499 13.358 12.3583C13.958 11.6749 14.8497 11.2499 15.833 11.2499C16.7663 11.2499 17.6163 11.6333 18.2247 12.2583C18.2997 11.9249 18.333 11.5666 18.333 11.1916V6.19157C18.333 3.69157 16.6663 2.0249 14.1663 2.0249H5.83301C3.33301 2.0249 1.66634 3.69157 1.66634 6.19157V11.1916Z" stroke="#2059EE" stroke-width="1.5" stroke-linecap="round" stroke-linejoin="round"/>
<path d="M12.6003 15.3583C12.6753 15.6917 12.8086 16.0167 12.9836 16.3C13.5586 17.2667 14.617 17.9167 15.8337 17.9167C16.692 17.9167 17.467 17.5916 18.0503 17.0583C18.3003 16.8416 18.517 16.5833 18.6837 16.3C18.992 15.8 19.167 15.2083 19.167 14.5833C19.167 13.6833 18.8087 12.8584 18.2253 12.2584C17.617 11.6334 16.767 11.25 15.8337 11.25C14.8503 11.25 13.9587 11.675 13.3587 12.3583C12.8253 12.95 12.5003 13.7333 12.5003 14.5833C12.5003 14.85 12.5337 15.1083 12.6003 15.3583Z" stroke="#2059EE" stroke-width="1.5" stroke-linecap="round" stroke-linejoin="round"/>
<path d="M14.5919 14.5664H17.0752" stroke="#2059EE" stroke-width="1.5" stroke-linecap="round" stroke-linejoin="round"/>
<path d="M15.833 13.3501V15.8418" stroke="#2059EE" stroke-width="1.5" stroke-linecap="round" stroke-linejoin="round"/>
<path d="M12.917 8.75H7.08366" stroke="#2059EE" stroke-width="1.5" stroke-linecap="round" stroke-linejoin="round"/>
</svg>
