<svg width="34" height="34" viewBox="0 0 34 34" fill="none" xmlns="http://www.w3.org/2000/svg">
<path d="M33.011 13.9089H17V20.4849H26.149C25.9598 21.5251 25.5617 22.516 24.9787 23.3979C24.3956 24.2798 23.6399 25.0344 22.757 25.6159V29.8809H28.251C29.9247 28.2689 31.2409 26.3231 32.1141 24.1697C32.9874 22.0163 33.3982 19.7034 33.32 17.3809C33.3207 16.2167 33.2173 15.0547 33.011 13.9089V13.9089Z" fill="white"/>
<path d="M28.2509 29.881L22.7569 25.616C21.0427 26.7191 19.0378 27.2843 16.9999 27.239C14.8804 27.2126 12.8227 26.5221 11.1163 25.2647C9.40991 24.0074 8.14088 22.2465 7.48786 20.23H1.80786V24.63C3.222 27.4471 5.39178 29.8154 8.07465 31.4701C10.7575 33.1248 13.8477 34.0008 16.9999 34C21.1383 34.1122 25.1631 32.6387 28.2509 29.881Z" fill="white"/>
<path d="M6.95497 17.001C6.95737 15.901 7.13735 14.8086 7.48797 13.766V9.36597H1.80797C0.618942 11.7353 -0.000244141 14.3495 -0.000244141 17.0005C-0.000244141 19.6514 0.618942 22.2657 1.80797 24.635L7.48797 20.235C7.13746 19.1927 6.95748 18.1006 6.95497 17.001Z" fill="white"/>
<path d="M23.4979 9.29992L28.3739 4.42392C25.2963 1.53544 21.2203 -0.049947 16.9999 -7.8958e-05C13.8483 -0.00131491 10.7584 0.873872 8.07558 2.52768C5.39277 4.18148 3.22269 6.54874 1.80786 9.36492L7.48786 13.7649C8.14088 11.7484 9.40991 9.98754 11.1163 8.73018C12.8227 7.47282 14.8804 6.78233 16.9999 6.75592C19.4162 6.71595 21.7509 7.63001 23.4979 9.29992Z" fill="white"/>
</svg>
