<svg width="41" height="40" viewBox="0 0 41 40" fill="none" xmlns="http://www.w3.org/2000/svg">
  <path
    d="M14.2803 3.33325C7.61361 3.33325 4.28027 6.66659 4.28027 13.3333V34.9999C4.28027 35.9166 5.03027 36.6666 5.94694 36.6666H27.6136C34.2803 36.6666 37.6136 33.3333 37.6136 26.6666V13.3333C37.6136 6.66659 34.2803 3.33325 27.6136 3.33325H14.2803Z"
    stroke="#925FE2" stroke-width="3" stroke-linecap="round" stroke-linejoin="round" />
  <path
    d="M18.2475 11.6666C15.1141 11.6666 14.8725 14.4833 16.5641 16.0166L25.3308 23.9833C27.0225 25.5166 26.7808 28.3333 23.6475 28.3333H18.2475C15.1141 28.3333 14.8725 25.5166 16.5641 23.9833L25.3308 16.0166C27.0225 14.4833 26.7808 11.6666 23.6475 11.6666H18.2475Z"
    stroke="#925FE2" stroke-width="3" stroke-linecap="round" stroke-linejoin="round" />
</svg>