<svg width="82" height="79" viewBox="0 0 82 79" fill="none" xmlns="http://www.w3.org/2000/svg">
<path d="M41.0704 20.0971L38.8265 16.145C40.2161 13.8944 40.7113 11.2069 40.2146 8.61069C39.718 6.01454 38.2655 3.69749 36.1426 2.11498C34.0198 0.532463 31.3801 -0.201071 28.7424 0.0585525C26.1047 0.318176 23.6597 1.55218 21.8881 3.51802C20.1165 5.48387 19.1464 8.03937 19.1683 10.6822C19.1903 13.3251 20.2028 15.8642 22.0069 17.8005C23.811 19.7368 26.2761 20.9302 28.9177 21.1461C31.5594 21.3621 34.1865 20.585 36.2828 18.9676L41.0704 20.0971Z" fill="white"/>
<path d="M41.0692 20.0973L36.2665 19.0001H36.2255L36.2514 18.9657L36.2902 19.0044C35.6174 19.5253 34.8853 19.9651 34.109 20.3146C33.1848 20.727 32.2061 21.0052 31.2027 21.1408C30.6468 21.218 30.0851 21.2461 29.5241 21.2247C29.2372 21.2096 28.9416 21.201 28.646 21.1774L27.7506 21.0418C25.082 20.5151 22.7154 18.9931 21.1334 16.7863C20.2502 15.5671 19.6396 14.1732 19.3426 12.6986C19.0361 11.1417 19.0789 9.53637 19.4678 7.9978C19.8677 6.38964 20.6465 4.89979 21.7397 3.65195L22.1712 3.17649C22.3136 3.01728 22.484 2.88605 22.6372 2.74621C22.7901 2.59471 22.9507 2.45109 23.1183 2.31592L23.6275 1.93727C23.7951 1.81345 23.971 1.70131 24.154 1.60165L24.6912 1.27679L25.2543 1.00786C25.4376 0.911285 25.6271 0.827187 25.8218 0.756149C27.3294 0.162259 28.9514 -0.0869648 30.5684 0.0268206C32.0984 0.13375 33.5862 0.57441 34.9267 1.31767C37.3363 2.65477 39.1378 4.86482 39.9581 7.49007C40.2876 8.6072 40.4433 9.76812 40.4198 10.9323C40.3917 11.941 40.2173 12.9403 39.902 13.8991C39.6386 14.697 39.2815 15.461 38.8383 16.1753V16.1474L41.0628 20.1124C40.9678 19.9468 40.2472 18.7011 38.7909 16.1732V16.1603V16.1474C39.2269 15.4346 39.5781 14.6736 39.8373 13.8798C40.1449 12.9255 40.3141 11.9322 40.34 10.9302C40.3588 9.77638 40.2009 8.62649 39.8718 7.52019C39.0525 4.92103 37.2638 2.73468 34.8749 1.41233C33.5466 0.680753 32.0737 0.24822 30.5598 0.145147C28.958 0.0326269 27.3513 0.280405 25.8584 0.870174C25.666 0.940495 25.4785 1.02388 25.2975 1.11974L24.7408 1.38866L24.2079 1.71138C24.0258 1.81226 23.8519 1.92737 23.6879 2.0556L23.1831 2.42995C23.0126 2.55043 22.8681 2.70748 22.7084 2.84302C22.5487 2.97856 22.3891 3.1184 22.2467 3.2733L21.8152 3.74231C20.7337 4.9782 19.9631 6.45318 19.567 8.04513C19.1819 9.5681 19.1385 11.157 19.4397 12.6986C19.7339 14.1564 20.3371 15.5347 21.2089 16.7411C22.7795 18.9232 25.1222 20.4295 27.7636 20.9558L28.6503 21.0913C28.9438 21.1171 29.2372 21.1236 29.5134 21.1408C30.0698 21.1632 30.6271 21.1373 31.179 21.0633C33.0235 20.8198 34.7706 20.0938 36.2428 18.9593L36.4111 18.8302L36.2816 19.0001L36.2644 18.9549L41.0692 20.0973Z" fill="#263238"/>
<path d="M27.4917 10.6096C27.4917 10.7798 27.4411 10.9462 27.3462 11.0877C27.2514 11.2292 27.1166 11.3395 26.9589 11.4046C26.8012 11.4698 26.6277 11.4868 26.4603 11.4536C26.2929 11.4204 26.1391 11.3385 26.0184 11.2181C25.8977 11.0977 25.8155 10.9444 25.7822 10.7775C25.7489 10.6105 25.766 10.4375 25.8313 10.2803C25.8966 10.123 26.0073 9.98862 26.1492 9.89406C26.2911 9.7995 26.458 9.74902 26.6286 9.74902C26.8575 9.74902 27.0771 9.83969 27.2389 10.0011C27.4007 10.1625 27.4917 10.3814 27.4917 10.6096Z" fill="#263238"/>
<path d="M30.9331 10.6096C30.9331 10.7798 30.8825 10.9462 30.7876 11.0877C30.6928 11.2292 30.558 11.3395 30.4003 11.4046C30.2426 11.4698 30.0691 11.4868 29.9017 11.4536C29.7343 11.4204 29.5805 11.3385 29.4598 11.2181C29.3391 11.0977 29.2569 10.9444 29.2236 10.7775C29.1903 10.6105 29.2074 10.4375 29.2727 10.2803C29.338 10.123 29.4487 9.98862 29.5906 9.89406C29.7325 9.7995 29.8994 9.74902 30.0701 9.74902C30.2989 9.74902 30.5185 9.83969 30.6803 10.0011C30.8422 10.1625 30.9331 10.3814 30.9331 10.6096Z" fill="#263238"/>
<path d="M34.371 10.1793C34.4568 10.3266 34.4969 10.4961 34.486 10.6661C34.4752 10.8362 34.414 10.9992 34.3101 11.1345C34.2063 11.2698 34.0645 11.3714 33.9027 11.4262C33.741 11.4811 33.5665 11.4869 33.4014 11.4428C33.2364 11.3987 33.0881 11.3067 32.9756 11.1786C32.863 11.0504 32.7911 10.8918 32.769 10.7228C32.7469 10.5538 32.7756 10.3821 32.8514 10.2295C32.9273 10.0768 33.0469 9.95 33.1951 9.86518C33.393 9.75195 33.6277 9.72143 33.8481 9.78029C34.0684 9.83915 34.2564 9.9826 34.371 10.1793Z" fill="#263238"/>
<path d="M57.8321 49.4382H78.0118C78.8776 49.4382 79.7079 49.7812 80.3201 50.3916C80.9322 51.0021 81.2762 51.83 81.2762 52.6933V77.9982H54.5742V52.6933C54.5742 51.8311 54.9173 51.0042 55.528 50.3939C56.1388 49.7836 56.9675 49.4399 57.8321 49.4382Z" fill="#455A64"/>
<path d="M79.0288 49.5847C79.0611 49.5847 79.0849 55.9421 79.0849 63.784C79.0849 71.6259 79.0611 77.9834 79.0288 77.9834C78.9964 77.9834 78.9727 71.6259 78.9727 63.784C78.9727 55.9421 78.9985 49.5847 79.0288 49.5847Z" fill="#263238"/>
<path d="M65.8727 18.4342C68.3284 21.9399 69.7365 26.0684 69.9332 30.3401C70.0584 33.2015 69.6722 36.25 71.0336 38.7715C72.9884 42.3902 77.215 42.2675 78.5095 46.1681C79.0727 47.8655 78.0349 51.5982 77.7544 53.3645C77.4372 55.3696 78.667 57.0542 78.3499 59.0615C78.0586 60.9009 76.6778 62.2133 75.0208 63.0696C73.545 63.8312 72.1814 63.8527 70.6474 63.218C67.7217 62.0111 65.288 60.7374 63.206 58.3623C60.2803 55.0276 59.3957 50.402 58.8909 46.0067C57.7891 36.2863 58.0119 26.462 59.5532 16.8013" fill="#263238"/>
<path d="M72.1238 63.6289C72.1542 63.6192 72.1852 63.6112 72.2166 63.6053C72.2792 63.5902 72.3741 63.5751 72.4949 63.5386C73.405 63.2918 74.2208 62.7802 74.838 62.0692C75.0703 61.7981 75.2476 61.4846 75.3602 61.1462C75.4678 60.7611 75.5294 60.3646 75.5436 59.9651C75.5592 59.0436 75.4651 58.1235 75.2631 57.2242C75.0754 56.2474 74.8316 55.2062 74.7582 54.0767C74.7225 53.5001 74.7639 52.9213 74.8812 52.3555C75.0164 51.7679 75.1997 51.1922 75.4292 50.6344C75.6642 50.0621 75.8701 49.4783 76.0463 48.8853C76.2292 48.2791 76.2807 47.6411 76.1973 47.0136C76.0968 46.3892 75.8572 45.7952 75.4961 45.2752C75.1432 44.7693 74.7327 44.3058 74.2728 43.894C73.3817 43.0636 72.4173 42.388 71.5931 41.6092C70.1228 40.2525 68.9363 38.6191 68.1021 36.803C67.7789 36.1077 67.5105 35.3884 67.2995 34.6516C67.196 34.331 67.1356 34.0212 67.0622 33.7415C66.9888 33.4618 66.9565 33.1994 66.909 32.967C66.8421 32.4958 66.7903 32.1323 66.7774 31.8913C66.7774 31.7708 66.7601 31.6762 66.7558 31.6073C66.7515 31.5385 66.7558 31.5105 66.7558 31.5105C66.7558 31.5105 66.7558 31.5428 66.7709 31.6073C66.786 31.6719 66.7903 31.7687 66.8055 31.8891C66.8249 32.1366 66.8831 32.5001 66.9565 32.9649C67.0061 33.1972 67.06 33.4554 67.1183 33.7372C67.1765 34.019 67.2564 34.3202 67.3643 34.6408C67.5808 35.3703 67.8528 36.0823 68.1777 36.7707C69.0177 38.5703 70.2029 40.1885 71.6664 41.5339C72.4863 42.2955 73.4529 42.9775 74.3526 43.8123C74.8186 44.2301 75.2349 44.7001 75.5932 45.2128C75.9637 45.7469 76.2093 46.3572 76.3117 46.9985C76.3978 47.6411 76.3456 48.2946 76.1585 48.9154C75.9902 49.5264 75.755 50.1052 75.5371 50.6731C75.3094 51.2242 75.1262 51.7926 74.9891 52.3727C74.8725 52.9306 74.8312 53.5015 74.8661 54.0702C74.9243 55.1846 75.1746 56.2216 75.3602 57.2048C75.5587 58.1118 75.6486 59.0391 75.6277 59.9672C75.6095 60.3735 75.5444 60.7763 75.4335 61.1677C75.3137 61.5122 75.1299 61.8311 74.892 62.1079C74.5114 62.5481 74.0482 62.9099 73.5284 63.1728C73.2045 63.3443 72.8601 63.4744 72.5036 63.5601C72.3789 63.5927 72.252 63.6157 72.1238 63.6289Z" fill="#455A64"/>
<path d="M31.9531 71.316L42.3094 66.4129C42.3094 66.4129 46.3419 46.8888 47.1057 45.4237C47.8694 43.9586 51.054 42.6914 51.054 42.6914L50.5211 69.128L49.5718 75.2315L34.9694 76.6106L31.9531 71.316Z" fill="#FFD95B"/>
<path d="M23.1177 75.9414C23.0594 75.9414 22.7724 76.1178 23.0119 76.5718C23.2514 77.0257 25.0077 78.5253 25.5233 78.0025C26.039 77.4797 25.2515 76.8428 25.2515 76.8428L23.1177 75.9414Z" fill="#FFBE9D"/>
<path d="M25.3257 76.8622C25.3257 76.8622 27.4444 77.129 28.2578 77.4388C29.1446 77.7744 30.2233 77.5442 30.9483 77.0559C31.3602 76.7823 31.7446 76.4696 32.0961 76.1221L34.7974 76.0791C35.1857 75.6257 35.4405 75.0739 35.5334 74.4849C35.6263 73.8959 35.5538 73.2927 35.3238 72.7423C35.1792 72.3593 34.9706 72.0036 34.7067 71.6902C34.3853 71.3439 33.8782 71.0642 33.0023 70.9136L29.794 71.6042C29.794 71.6042 24.8316 71.2492 23.9384 71.6666C23.9384 71.6666 22.8272 72.3228 22.4842 72.5981C22.3547 72.7036 21.9599 73.9643 22.769 74.6205C22.769 74.6205 22.0656 75.1777 22.4475 75.679L22.6287 75.8941C22.6287 75.8941 22.1562 76.5051 22.4 76.7719C22.6438 77.0386 24.7733 78.2779 25.5306 77.9853C26.2879 77.6927 25.6623 76.9849 25.3257 76.8558" fill="#FFBE9D"/>
<path d="M23.3015 73.5298C23.3911 73.5561 23.479 73.5877 23.5647 73.6244C23.7309 73.6868 23.9747 73.7772 24.2811 73.874C24.4321 73.9235 24.6004 73.973 24.7838 74.0203C24.9672 74.0676 25.1635 74.1085 25.3685 74.1752C25.5914 74.2361 25.7931 74.3575 25.951 74.5259C26.038 74.6192 26.0984 74.7341 26.1257 74.8586C26.153 74.9831 26.1463 75.1127 26.1063 75.2337C26.0557 75.3556 25.9631 75.4555 25.8453 75.5155C25.7344 75.5697 25.6145 75.6033 25.4914 75.6145C25.2657 75.6278 25.0391 75.6155 24.8161 75.5779C24.4427 75.5177 24.0757 75.4226 23.7201 75.2939C23.4159 75.1864 23.1764 75.0788 23.0102 75.0143C22.9223 74.9826 22.8377 74.9422 22.7578 74.8938C22.848 74.9177 22.9366 74.9472 23.0232 74.982C23.1915 75.0422 23.4353 75.1347 23.7395 75.2337C24.0908 75.3526 24.4517 75.4411 24.8183 75.4983C25.0323 75.5318 25.2493 75.5419 25.4656 75.5284C25.5774 75.5185 25.6864 75.4879 25.787 75.4381C25.8848 75.3871 25.9612 75.3033 26.0028 75.2014C26.0377 75.0969 26.0445 74.9851 26.0225 74.8771C26.0005 74.7692 25.9506 74.6688 25.8776 74.5861C25.7306 74.4292 25.5434 74.3154 25.3361 74.257C25.1376 74.1903 24.9391 74.1472 24.7579 74.0956C24.5766 74.044 24.4062 73.9902 24.2552 73.9386C23.9488 73.8331 23.7093 73.7234 23.5453 73.661C23.4601 73.625 23.3785 73.5811 23.3015 73.5298Z" fill="#EB996E"/>
<path d="M23.492 72.0044C23.5814 72.0293 23.6686 72.0609 23.7531 72.0991C23.9214 72.1636 24.163 72.2561 24.4651 72.3551C24.7672 72.454 25.1318 72.5702 25.5439 72.6627C25.7699 72.6981 25.9848 72.785 26.1717 72.9166C26.2708 72.9987 26.3361 73.1144 26.3551 73.2415C26.374 73.3695 26.3553 73.5003 26.3012 73.618C26.2464 73.7301 26.1688 73.8298 26.0733 73.9105C25.9779 73.9912 25.8666 74.0513 25.7467 74.087C25.529 74.1576 25.2976 74.176 25.0714 74.1407C24.7033 74.0673 24.3424 73.9623 23.9926 73.8266L23.2784 73.5771C23.1899 73.5494 23.1034 73.5156 23.0195 73.476C23.1112 73.4913 23.2014 73.5143 23.2892 73.5448L24.012 73.7599C24.3636 73.8847 24.7243 73.9825 25.0908 74.0525C25.3044 74.0831 25.5223 74.0639 25.7273 73.9966C25.8363 73.9633 25.9372 73.9079 26.0238 73.8339C26.1103 73.7598 26.1805 73.6687 26.23 73.5663C26.2809 73.4686 26.2982 73.3568 26.2791 73.2483C26.26 73.1398 26.2056 73.0406 26.1243 72.9661C25.9477 72.8433 25.7456 72.7616 25.5331 72.7273C25.121 72.624 24.7564 72.5121 24.4543 72.4003C24.1522 72.2884 23.9149 72.1851 23.7509 72.1163C23.6617 72.086 23.5752 72.0486 23.492 72.0044Z" fill="#EB996E"/>
<path d="M24.5114 72.4348C24.4672 72.2943 24.4348 72.1503 24.4143 72.0045C24.3657 71.8647 24.3303 71.7206 24.3086 71.5742C24.4115 71.6862 24.4784 71.8263 24.5006 71.9765C24.5546 72.124 24.5584 72.285 24.5114 72.4348Z" fill="#EB996E"/>
<path d="M31.9819 72.5036L30.0941 71.7894C30.0941 71.7894 24.8534 69.3497 24.7649 69.4831C24.6764 69.6164 24.3916 69.5992 24.4542 70.2361C24.5168 70.8729 27.5697 72.1594 27.6668 72.3875C27.7639 72.6155 27.6021 73.7256 28.7305 74.5238C29.8589 75.322 30.6723 75.3414 30.6723 75.3414" fill="#FFBE9D"/>
<path d="M30.6729 75.3218H30.6233L30.4938 75.3089C30.3276 75.2826 30.1638 75.243 30.004 75.1906C29.4157 74.9908 28.872 74.6787 28.4031 74.2719C28.0856 73.9753 27.8608 73.5935 27.7559 73.1725C27.7017 72.941 27.6642 72.7059 27.6437 72.469C27.64 72.4419 27.6335 72.4152 27.6242 72.3894C27.612 72.3686 27.595 72.3509 27.5746 72.3378C27.5254 72.3021 27.4742 72.2691 27.4214 72.2388C27.3157 72.1764 27.2057 72.1162 27.0892 72.0559C26.6361 71.8128 26.1506 71.5697 25.663 71.29C25.4131 71.1496 25.1704 70.9967 24.9359 70.8318C24.8145 70.7468 24.7005 70.6518 24.595 70.5478C24.5389 70.4943 24.4903 70.4335 24.4505 70.3671C24.4291 70.3305 24.4145 70.2905 24.4073 70.2488C24.4031 70.2101 24.4031 70.1712 24.4073 70.1326C24.3901 69.9768 24.4178 69.8193 24.4872 69.6786C24.53 69.6122 24.5867 69.5557 24.6533 69.513C24.6804 69.4955 24.705 69.4745 24.7266 69.4506C24.7266 69.4506 24.7266 69.4506 24.7439 69.4312C24.7544 69.4233 24.7674 69.4195 24.7806 69.4205C24.7928 69.4191 24.8051 69.4191 24.8173 69.4205L24.8755 69.4355C25.1582 69.5216 25.4192 69.6356 25.6803 69.7432C26.1981 69.9583 26.6922 70.1735 27.1625 70.3886C28.1054 70.8189 28.9468 71.2018 29.6545 71.5331C29.8314 71.6128 29.9976 71.6967 30.1572 71.7655L30.6189 71.9462L31.359 72.2388L31.825 72.426L31.9437 72.4776C31.9717 72.4776 31.9847 72.4948 31.9847 72.497C31.9847 72.4991 31.9696 72.497 31.9415 72.4841L31.8185 72.4432L31.346 72.2689L30.5995 72.0043L30.1335 71.83C29.9695 71.7634 29.8034 71.6816 29.6265 71.602L27.128 70.4768C26.6555 70.2617 26.1614 70.0465 25.6436 69.8314C25.3847 69.726 25.1215 69.6162 24.8496 69.528L24.8022 69.5173H24.7849C24.7849 69.5173 24.7849 69.5044 24.7849 69.4958C24.8453 69.5345 24.8 69.5087 24.8129 69.5173C24.7872 69.5491 24.7566 69.5766 24.7223 69.599C24.6648 69.6342 24.6161 69.682 24.5799 69.7389C24.5192 69.8653 24.4953 70.0062 24.5109 70.1455C24.5095 70.2128 24.5251 70.2794 24.5562 70.3391C24.5923 70.3988 24.6358 70.4538 24.6856 70.5026C24.7877 70.6029 24.8982 70.6943 25.0158 70.7759C25.2488 70.9437 25.4926 71.09 25.7342 71.2298C26.2197 71.5095 26.7008 71.7547 27.1561 71.9979C27.2704 72.0602 27.3718 72.1205 27.4905 72.1872C27.5462 72.2188 27.6002 72.2533 27.6523 72.2904C27.6837 72.3115 27.709 72.3405 27.7257 72.3744C27.7366 72.4057 27.7438 72.4382 27.7472 72.4712C27.7677 72.7055 27.803 72.9383 27.8529 73.1682C27.9516 73.5781 28.1657 73.9513 28.47 74.2439C28.9298 74.6496 29.4619 74.9656 30.0386 75.1755C30.1956 75.2307 30.3564 75.2746 30.5197 75.3067C30.5758 75.3196 30.6189 75.3239 30.6491 75.3282L30.6729 75.3218Z" fill="#EB996E"/>
<path d="M24.8919 75.5671C24.9615 75.5755 25.0293 75.5952 25.0926 75.6252C25.2699 75.6962 25.4362 75.7918 25.5867 75.9092C25.6915 75.991 25.7871 76.0841 25.8715 76.1867C25.9245 76.2446 25.9654 76.3125 25.9917 76.3864C26.018 76.4603 26.0292 76.5387 26.0247 76.617C26.0074 76.706 25.9655 76.7885 25.9037 76.855C25.842 76.9215 25.7628 76.9695 25.6751 76.9935C25.4949 77.0427 25.3039 77.0367 25.1271 76.9763C24.527 76.7992 23.9448 76.5666 23.3881 76.2814C23.2205 76.1942 23.0577 76.098 22.9005 75.9931C22.8401 75.9586 22.7843 75.9167 22.7344 75.8683C22.7986 75.8936 22.86 75.9253 22.9178 75.963C23.0343 76.0297 23.2026 76.1222 23.4162 76.2255C23.9737 76.4911 24.5507 76.7141 25.1422 76.8924C25.3035 76.9481 25.4777 76.9548 25.6428 76.9118C25.7154 76.8927 25.7813 76.8542 25.8334 76.8003C25.8856 76.7464 25.9219 76.6793 25.9383 76.6063C25.9431 76.5371 25.9341 76.4676 25.9119 76.4019C25.8897 76.3362 25.8547 76.2755 25.8089 76.2233C25.7297 76.123 25.64 76.0314 25.5414 75.9501C25.3419 75.7957 25.1237 75.667 24.8919 75.5671Z" fill="#EB996E"/>
<g opacity="0.3">
<path d="M49.5002 75.2315C47.8044 69.5281 46.3092 62.1831 44.6133 56.4797C43.992 61.7442 44.7687 68.6955 45.7396 73.9062C45.8539 74.5172 45.9057 75.1153 46.3868 75.5176L49.5002 75.2315Z" fill="black"/>
</g>
<path d="M46.7233 71.3159C46.6996 71.3159 46.6284 70.9437 46.3975 70.3736C46.2618 70.0413 46.0995 69.7204 45.9121 69.4141C45.6782 69.0422 45.411 68.6923 45.1138 68.3685C44.8122 68.0481 44.4814 67.7564 44.1256 67.4972C43.834 67.2867 43.5251 67.101 43.2022 66.9421C42.6499 66.671 42.2788 66.5721 42.2852 66.5505C42.3751 66.561 42.4635 66.582 42.5485 66.6129C42.6507 66.6387 42.7509 66.6717 42.8484 66.7119C42.9806 66.758 43.1102 66.8112 43.2367 66.8711C43.569 67.0228 43.8867 67.2043 44.186 67.4133C44.5511 67.6724 44.89 67.9664 45.1979 68.291C45.4996 68.623 45.7684 68.9832 46.0006 69.3667C46.1869 69.6799 46.345 70.0089 46.4731 70.3499C46.5313 70.4941 46.5658 70.6296 46.6025 70.7479C46.6358 70.8485 46.6617 70.9513 46.6802 71.0556C46.7029 71.1408 46.7174 71.228 46.7233 71.3159Z" fill="#263238"/>
<path d="M49.9532 42.4249C49.9532 42.4249 44.5312 54.5051 44.5312 56.7296C44.5312 58.9542 48.5939 74.3562 48.5939 74.3562C48.5551 74.9693 48.3976 78.0394 48.3976 78.0394L71.1793 78.119L71.5266 73.2353L69.7488 68.5818L71.5245 55.4259C71.5245 55.4259 72.7198 47.7884 72.819 45.652C72.9528 42.98 63.8738 39.8819 64.1219 39.5119L62.5555 37.4121L53.5779 44.6817L51.8022 39.57L49.6749 41.5729L49.9532 42.4249Z" fill="#FFD95B"/>
<path d="M64.872 45.6387C62.4059 49.7974 57.8945 57.3747 57.8945 57.3747L49.8079 66.5698C49.8079 66.5698 49.2793 71.2405 50.3365 72.6734C51.3937 74.1062 53.2082 75.0851 53.2082 75.0851C53.2082 75.0851 55.3421 75.0851 58.0541 72.824C60.7662 70.5629 68.2464 61.2193 68.2464 61.2193L70.8161 58.1277C70.8161 58.1277 73.8798 50.6236 73.3081 46.8048C73.0923 45.3311 72.458 44.7201 71.6209 44.0445C69.5129 42.3514 66.2507 43.3131 64.872 45.6387Z" fill="#FFD95B"/>
<path d="M71.7707 55.5244C71.7598 55.554 71.7469 55.5827 71.7319 55.6105C71.7038 55.6707 71.6628 55.7503 71.6132 55.8557C71.5053 56.0709 71.3414 56.3828 71.117 56.7787C70.6704 57.5726 69.9756 58.6934 69.0695 60.0467C68.6142 60.7222 68.1072 61.4559 67.5484 62.2347C66.9896 63.0135 66.3552 63.816 65.8331 64.754C65.311 65.692 64.8363 66.7161 64.2646 67.7401C63.6772 68.8012 62.9886 69.8034 62.2084 70.7328C61.428 71.666 60.5099 72.4756 59.4856 73.1337C58.5257 73.7445 57.4533 74.1584 56.3312 74.3514C55.3156 74.5311 54.2729 74.4871 53.2761 74.2223C52.825 74.1008 52.3904 73.9253 51.9816 73.6996C51.6011 73.4994 51.2437 73.2585 50.9158 72.981C50.6149 72.7325 50.3454 72.4486 50.1131 72.1355C49.9039 71.8574 49.726 71.5573 49.5824 71.2405C49.3606 70.7309 49.2152 70.1916 49.1509 69.6398C49.1138 69.2919 49.1015 68.9418 49.1142 68.5921C49.1142 68.4759 49.1271 68.377 49.1314 68.3189C49.1292 68.2881 49.1292 68.2572 49.1314 68.2264C49.1338 68.2572 49.1338 68.2881 49.1314 68.3189C49.1314 68.3856 49.1314 68.4759 49.1314 68.5921C49.1273 68.94 49.146 69.2879 49.1875 69.6334C49.26 70.1793 49.4112 70.7119 49.6363 71.2147C49.7814 71.5253 49.9593 71.8195 50.1671 72.0924C50.3983 72.4 50.6664 72.6781 50.9654 72.9207C51.2904 73.1928 51.6441 73.4287 52.0204 73.6243C52.4236 73.8442 52.8517 74.0154 53.2955 74.1341C54.282 74.391 55.3127 74.4307 56.3161 74.2503C57.4233 74.0567 58.4808 73.6457 59.4273 73.0412C60.4425 72.3878 61.3525 71.5848 62.1264 70.6596C62.9021 69.7366 63.5863 68.7408 64.1696 67.6864C64.7414 66.6687 65.2031 65.6361 65.7447 64.7023C66.2735 63.8304 66.8497 62.988 67.4707 62.1787C68.0317 61.4042 68.5495 60.6727 69.0004 60.0015C69.9152 58.6569 70.6186 57.5424 71.076 56.7572C71.3069 56.3635 71.4773 56.0558 71.5895 55.845L71.7211 55.604C71.7346 55.5757 71.7512 55.549 71.7707 55.5244Z" fill="#263238"/>
<path d="M49.3975 66.1589C49.3975 66.174 49.2832 66.245 49.1343 66.4107C48.9361 66.6204 48.814 66.8902 48.7874 67.1772C48.7608 67.4641 48.8313 67.7517 48.9876 67.9941C49.1019 68.1834 49.2033 68.2759 49.2033 68.2888C49.2033 68.3017 49.0674 68.2286 48.925 68.0393C48.739 67.7883 48.6522 67.4778 48.6813 67.167C48.7103 66.8563 48.8532 66.5671 49.0825 66.3547C49.1661 66.2602 49.2756 66.1921 49.3975 66.1589Z" fill="#263238"/>
<path d="M50.8906 68.5987C50.934 68.6044 50.9766 68.6145 51.0179 68.6288L51.169 68.6697L51.3847 68.7084C51.8329 68.7673 52.2887 68.7247 52.7181 68.5836C53.3569 68.3703 53.9446 68.0275 54.4441 67.5768C55.0378 67.0086 55.576 66.3854 56.0515 65.7158C56.5346 65.0407 57.091 64.4209 57.7107 63.8677C58.0041 63.6225 58.2911 63.4052 58.5305 63.1707C58.7586 62.962 58.9421 62.7095 59.0699 62.4284C59.1556 62.2231 59.1892 61.9998 59.1678 61.7784C59.1463 61.557 59.0705 61.3443 58.947 61.1591C58.8428 61.0317 58.7086 60.9319 58.5564 60.8687C58.5993 60.8767 58.6412 60.889 58.6816 60.9052C58.7978 60.9572 58.9005 61.0352 58.9815 61.1333C59.1182 61.3227 59.2049 61.5434 59.2335 61.775C59.2622 62.0066 59.2319 62.2417 59.1455 62.4585C59.0169 62.7521 58.8305 63.017 58.5974 63.2374C58.3536 63.4783 58.0645 63.7021 57.7776 63.9473C57.1681 64.4997 56.6198 65.1157 56.1421 65.7846C55.6609 66.4601 55.1146 67.087 54.511 67.6564C54.001 68.1097 53.4012 68.4513 52.7504 68.6589C52.3089 68.7968 51.8409 68.8285 51.3847 68.7514L51.169 68.7019C51.1085 68.6847 51.0589 68.6632 51.0201 68.6503C50.975 68.6383 50.9316 68.621 50.8906 68.5987Z" fill="#263238"/>
<path d="M65.9709 44.3608C65.9437 44.4059 65.9134 44.449 65.8803 44.4899C65.8091 44.5803 65.7185 44.7051 65.6042 44.8492C65.3582 45.1547 65.0195 45.6108 64.6052 46.1788C63.5494 47.6711 62.5888 49.2282 61.7292 50.8409C60.7108 52.7255 59.8694 54.4746 59.2242 55.7225C58.9049 56.3485 58.6417 56.8519 58.4497 57.1962L58.2404 57.5899C58.2169 57.637 58.1887 57.6817 58.1562 57.7233C58.1725 57.6734 58.1935 57.6251 58.2188 57.5791L58.4216 57.1725L59.1617 55.6859C59.7874 54.4273 60.6202 52.6739 61.6386 50.785C62.4991 49.1671 63.4724 47.6114 64.5513 46.1293C64.9828 45.5678 65.3215 45.116 65.5783 44.8191L65.8717 44.4727C65.9006 44.4319 65.9339 44.3944 65.9709 44.3608Z" fill="#263238"/>
<g opacity="0.3">
<path d="M49.1375 68.2266C50.1883 68.7945 51.3447 68.7343 52.5184 68.5063C53.7035 68.2701 54.7704 67.6332 55.539 66.7034C55.3615 67.739 54.875 68.6971 54.1431 69.4529C53.3966 70.1822 52.3135 70.6039 51.2865 70.4167C50.2595 70.2295 49.2195 69.2657 49.1289 68.2266" fill="black"/>
</g>
<g opacity="0.3">
<path d="M59.0815 62.0176C59.7484 63.0429 59.9811 64.2898 59.7288 65.4857C60.6198 64.126 60.8291 62.4048 60.5918 60.7977C60.3545 59.1906 59.6964 57.6739 58.9671 56.2217C58.9671 56.2217 58.1645 57.5771 58.1559 57.7277C58.1171 58.5108 58.4062 59.9823 58.5572 60.7504C58.7587 60.9433 58.9089 61.1831 58.9944 61.4482C59.0799 61.7133 59.098 61.9955 59.047 62.2693" fill="black"/>
</g>
<g opacity="0.3">
<path d="M52.6992 73.8546C54.8438 75.522 58.0262 75.5994 60.3715 74.2311C62.6305 72.9123 64.0221 70.5372 65.3123 68.2674C67.3124 64.752 69.7504 60.404 71.1787 56.6218C71.1787 56.6218 67.1764 62.0671 65.9704 64.4142C65.1663 66.001 64.2537 67.5307 63.2389 68.9924C62.0906 70.6396 60.5381 71.9657 58.7296 72.8444C56.9212 73.7231 54.917 74.125 52.9085 74.0117" fill="black"/>
</g>
<path d="M48.3972 78.0284C48.3938 78.0063 48.3938 77.9838 48.3972 77.9617C48.3972 77.91 48.3972 77.8455 48.3972 77.7659C48.3972 77.583 48.4123 77.3356 48.4253 77.0194C48.4555 76.3739 48.4965 75.4488 48.5483 74.3451V74.371C48.1621 73.0801 47.709 71.5139 47.2386 69.8229C46.6173 67.5811 46.093 65.5416 45.7391 64.0592C45.5644 63.3192 45.4263 62.7168 45.34 62.2994C45.299 62.0993 45.2666 61.9379 45.2429 61.8196C45.2301 61.7636 45.2208 61.7068 45.2148 61.6497C45.2367 61.7024 45.2533 61.7572 45.2645 61.8132L45.3831 62.2908C45.4889 62.7211 45.6356 63.3106 45.8146 64.0399C46.1879 65.5179 46.7251 67.5531 47.3465 69.7928C47.8147 71.4838 48.2613 73.05 48.641 74.343V74.3581C48.5742 75.4617 48.5181 76.3804 48.4771 77.0344C48.4555 77.3464 48.4382 77.5959 48.4253 77.7788C48.4253 77.8563 48.4123 77.9208 48.408 77.9724C48.4068 77.9914 48.4032 78.0102 48.3972 78.0284Z" fill="#263238"/>
<path d="M71.1856 43.92C71.1856 43.9372 70.9525 43.8555 70.5793 43.763C70.0925 43.6406 69.5943 43.5685 69.0927 43.5478C68.5909 43.5341 68.089 43.573 67.5954 43.664C67.2156 43.735 66.9848 43.7996 66.9805 43.7824C67.0284 43.7516 67.0808 43.7284 67.1358 43.7135C67.281 43.6636 67.4286 43.6212 67.5781 43.5866C68.0729 43.4714 68.5806 43.4208 69.0884 43.436C69.6001 43.4513 70.1077 43.5323 70.5987 43.6769C70.7456 43.7195 70.8897 43.7713 71.0302 43.8318C71.1381 43.8856 71.1856 43.9114 71.1856 43.92Z" fill="#263238"/>
<path d="M63.9726 39.9482C63.9569 39.9874 63.9374 40.0248 63.9143 40.0601L63.7309 40.3678C63.5691 40.6345 63.3296 41.0132 63.0254 41.4844C62.4148 42.4159 61.541 43.6874 60.5075 45.0385C59.6769 46.1293 58.8721 47.1081 58.214 47.874L58.1666 47.9278L58.1385 47.8633C57.8235 47.1791 57.5646 46.6112 57.3769 46.2002C57.2928 46.0109 57.2259 45.856 57.1719 45.7377C57.1454 45.6848 57.1245 45.6293 57.1094 45.572C57.144 45.6206 57.1737 45.6725 57.1978 45.7269C57.2561 45.8431 57.3294 45.9937 57.4244 46.1787C57.6207 46.5853 57.8926 47.1469 58.2184 47.8267L58.145 47.816C58.7923 47.0415 59.5884 46.0604 60.4191 44.9718C61.4504 43.6207 62.3307 42.36 62.9585 41.4392L63.6942 40.3441L63.8949 40.0472C63.9163 40.0109 63.9424 39.9777 63.9726 39.9482Z" fill="#263238"/>
<path d="M69.221 74.6442C69.1886 74.6442 69.2879 73.5233 69.4367 72.1486C69.5856 70.7738 69.7388 69.6637 69.769 69.668C69.7992 69.6723 69.7 70.7867 69.5532 72.1615C69.4065 73.5362 69.2469 74.6463 69.221 74.6442Z" fill="#263238"/>
<path d="M53.6016 74.3494C53.7242 74.9691 53.8099 75.5956 53.8583 76.2254C53.9456 76.8507 53.9939 77.4809 54.0029 78.1122C53.8815 77.4922 53.7958 76.8659 53.7461 76.2362C53.6614 75.6105 53.6131 74.9806 53.6016 74.3494Z" fill="#263238"/>
<path d="M65.1264 49.7781C65.1159 49.7354 65.0954 49.6958 65.0664 49.6627C65.0375 49.6295 65.001 49.6038 64.96 49.5875C64.919 49.5713 64.8748 49.5651 64.8309 49.5695C64.787 49.5738 64.7448 49.5885 64.7078 49.6125L64.6927 49.6254C64.6589 49.6555 64.6335 49.6938 64.6191 49.7367C64.6046 49.7795 64.6016 49.8254 64.6103 49.8697C64.6191 49.9141 64.6392 49.9554 64.6688 49.9896C64.6984 50.0239 64.7365 50.0498 64.7792 50.065C64.8219 50.0801 64.8678 50.0838 64.9125 50.0759C64.9571 50.0679 64.9989 50.0485 65.0337 50.0196C65.0685 49.9906 65.0952 49.9532 65.1111 49.9108C65.1269 49.8685 65.1315 49.8228 65.1243 49.7781H65.1264Z" fill="white"/>
<path d="M62.8743 44.3091C62.8638 44.2664 62.8432 44.2268 62.8143 44.1937C62.7853 44.1605 62.7488 44.1348 62.7079 44.1185C62.6669 44.1023 62.6226 44.0961 62.5787 44.1005C62.5349 44.1048 62.4927 44.1195 62.4557 44.1435L62.4428 44.1564C62.4089 44.1865 62.3835 44.2248 62.3691 44.2677C62.3546 44.3105 62.3516 44.3564 62.3603 44.4007C62.3691 44.4451 62.3892 44.4864 62.4188 44.5206C62.4484 44.5549 62.4865 44.5808 62.5292 44.596C62.5719 44.6111 62.6179 44.6148 62.6625 44.6069C62.7071 44.5989 62.7489 44.5795 62.7837 44.5506C62.8185 44.5217 62.8452 44.4842 62.8611 44.4418C62.8769 44.3995 62.8815 44.3537 62.8743 44.3091Z" fill="white"/>
<path d="M57.7144 48.7132C57.7039 48.6705 57.6834 48.6309 57.6544 48.5977C57.6255 48.5646 57.589 48.5388 57.548 48.5226C57.507 48.5064 57.4628 48.5002 57.4189 48.5045C57.375 48.5089 57.3328 48.5236 57.2958 48.5475H57.2829C57.2491 48.5775 57.2236 48.6158 57.2091 48.6585C57.1946 48.7013 57.1915 48.7471 57.2 48.7914C57.2086 48.8357 57.2286 48.877 57.2581 48.9113C57.2875 48.9456 57.3254 48.9717 57.368 48.987C57.4105 49.0023 57.4564 49.0063 57.501 48.9985C57.5456 48.9908 57.5874 48.9717 57.6224 48.943C57.6573 48.9143 57.6842 48.877 57.7003 48.8348C57.7164 48.7927 57.7213 48.747 57.7144 48.7024V48.7132Z" fill="white"/>
<path d="M52.1321 46.5016C52.1219 46.459 52.1016 46.4194 52.0729 46.3862C52.0442 46.353 52.0078 46.3272 51.967 46.311C51.9262 46.2947 51.882 46.2885 51.8383 46.2929C51.7945 46.2972 51.7525 46.312 51.7157 46.336L51.7006 46.3489C51.6667 46.379 51.6413 46.4173 51.6269 46.4602C51.6124 46.503 51.6094 46.5489 51.6182 46.5932C51.6269 46.6376 51.647 46.6789 51.6766 46.7131C51.7063 46.7474 51.7443 46.7733 51.787 46.7884C51.8297 46.8036 51.8757 46.8073 51.9203 46.7994C51.9649 46.7914 52.0067 46.772 52.0415 46.7431C52.0763 46.7141 52.103 46.6766 52.1189 46.6343C52.1347 46.592 52.1393 46.5462 52.1321 46.5016Z" fill="white"/>
<path d="M51.1457 44.3221C51.1352 44.2794 51.1146 44.2398 51.0857 44.2066C51.0568 44.1735 51.0203 44.1477 50.9793 44.1315C50.9383 44.1153 50.894 44.1091 50.8502 44.1134C50.8063 44.1177 50.7641 44.1325 50.7271 44.1564L50.712 44.1693C50.6772 44.1994 50.6509 44.238 50.6358 44.2813C50.6206 44.3247 50.6171 44.3712 50.6256 44.4163C50.6342 44.4615 50.6544 44.5035 50.6844 44.5384C50.7143 44.5733 50.7529 44.5997 50.7963 44.6151C50.8396 44.6304 50.8863 44.6342 50.9316 44.6259C50.9769 44.6177 51.0192 44.5978 51.0543 44.5681C51.0895 44.5385 51.1162 44.5001 51.1319 44.457C51.1475 44.4138 51.1515 44.3673 51.1435 44.3221H51.1457Z" fill="white"/>
<path d="M51.5759 41.8052C51.5655 41.7625 51.5449 41.7229 51.516 41.6898C51.487 41.6566 51.4505 41.6309 51.4095 41.6146C51.3686 41.5984 51.3243 41.5922 51.2804 41.5966C51.2365 41.6009 51.1944 41.6156 51.1574 41.6396L51.1423 41.6503C51.1084 41.6803 51.083 41.7186 51.0685 41.7613C51.054 41.8041 51.0508 41.8499 51.0594 41.8942C51.068 41.9385 51.088 41.9798 51.1174 42.0141C51.1469 42.0484 51.1847 42.0745 51.2273 42.0898C51.2699 42.1051 51.3158 42.1091 51.3604 42.1013C51.405 42.0936 51.4468 42.0745 51.4817 42.0458C51.5167 42.0171 51.5435 41.9798 51.5597 41.9376C51.5758 41.8955 51.5807 41.8498 51.5738 41.8052H51.5759Z" fill="white"/>
<path d="M48.4822 45.2688C48.4717 45.2261 48.4512 45.1866 48.4222 45.1534C48.3933 45.1202 48.3568 45.0945 48.3158 45.0783C48.2748 45.062 48.2305 45.0558 48.1867 45.0602C48.1428 45.0645 48.1006 45.0793 48.0636 45.1032L48.0485 45.1139C48.0147 45.1439 47.9893 45.1822 47.9747 45.2249C47.9602 45.2677 47.9571 45.3135 47.9657 45.3578C47.9742 45.4021 47.9942 45.4435 48.0237 45.4778C48.0531 45.512 48.091 45.5381 48.1336 45.5534C48.1762 45.5687 48.222 45.5727 48.2666 45.565C48.3112 45.5572 48.353 45.5381 48.388 45.5094C48.4229 45.4807 48.4498 45.4434 48.4659 45.4013C48.4821 45.3591 48.4869 45.3135 48.48 45.2688H48.4822Z" fill="white"/>
<path d="M55.6516 46.267C55.6414 46.2243 55.6211 46.1848 55.5924 46.1516C55.5637 46.1184 55.5274 46.0926 55.4865 46.0763C55.4457 46.0601 55.4016 46.0539 55.3578 46.0582C55.3141 46.0626 55.272 46.0774 55.2352 46.1013L55.2201 46.1142C55.1863 46.1443 55.1609 46.1827 55.1464 46.2255C55.132 46.2684 55.129 46.3142 55.1377 46.3586C55.1464 46.403 55.1666 46.4443 55.1962 46.4785C55.2258 46.5127 55.2638 46.5387 55.3065 46.5538C55.3493 46.5689 55.3952 46.5727 55.4398 46.5648C55.4844 46.5568 55.5262 46.5374 55.561 46.5085C55.5959 46.4795 55.6225 46.442 55.6384 46.3997C55.6543 46.3574 55.6588 46.3116 55.6516 46.267Z" fill="white"/>
<path d="M49.5798 50.7571C49.5694 50.7144 49.5488 50.6748 49.5199 50.6417C49.4909 50.6085 49.4544 50.5828 49.4134 50.5665C49.3725 50.5503 49.3282 50.5441 49.2843 50.5485C49.2405 50.5528 49.1983 50.5675 49.1613 50.5915H49.1462C49.1123 50.6215 49.0869 50.6597 49.0724 50.7025C49.0579 50.7452 49.0547 50.791 49.0633 50.8353C49.0719 50.8796 49.0919 50.921 49.1213 50.9553C49.1508 50.9896 49.1886 51.0156 49.2312 51.0309C49.2738 51.0462 49.3197 51.0502 49.3643 51.0425C49.4089 51.0348 49.4507 51.0156 49.4856 50.9869C49.5206 50.9582 49.5474 50.921 49.5636 50.8788C49.5797 50.8366 49.5846 50.791 49.5777 50.7464L49.5798 50.7571Z" fill="white"/>
<path d="M44.0308 63.67C44.0203 63.6273 43.9998 63.5877 43.9708 63.5545C43.9419 63.5214 43.9054 63.4956 43.8644 63.4794C43.8234 63.4632 43.7792 63.457 43.7353 63.4613C43.6914 63.4656 43.6492 63.4804 43.6122 63.5043L43.5993 63.5151C43.5655 63.5451 43.54 63.5833 43.5255 63.6261C43.511 63.6688 43.5079 63.7146 43.5164 63.7589C43.525 63.8032 43.545 63.8446 43.5745 63.8789C43.6039 63.9132 43.6418 63.9392 43.6844 63.9545C43.7269 63.9698 43.7728 63.9738 43.8174 63.9661C43.862 63.9584 43.9038 63.9392 43.9388 63.9105C43.9737 63.8818 44.0006 63.8446 44.0167 63.8024C44.0328 63.7602 44.0377 63.7146 44.0308 63.67Z" fill="white"/>
<path d="M46.0131 56.2217C46.0027 56.179 45.9821 56.1394 45.9532 56.1063C45.9242 56.0731 45.8877 56.0474 45.8467 56.0311C45.8058 56.0149 45.7615 56.0087 45.7176 56.0131C45.6737 56.0174 45.6316 56.0321 45.5946 56.0561L45.5795 56.069C45.5456 56.0991 45.5202 56.1374 45.5058 56.1803C45.4914 56.2231 45.4883 56.269 45.4971 56.3133C45.5058 56.3577 45.526 56.399 45.5556 56.4332C45.5852 56.4675 45.6232 56.4934 45.6659 56.5086C45.7086 56.5237 45.7546 56.5274 45.7992 56.5195C45.8438 56.5115 45.8856 56.4921 45.9204 56.4632C45.9552 56.4342 45.9819 56.3968 45.9978 56.3544C46.0137 56.3121 46.0182 56.2664 46.011 56.2217H46.0131Z" fill="white"/>
<path d="M60.615 43.1453C60.6045 43.1026 60.584 43.063 60.555 43.0299C60.5261 42.9967 60.4896 42.9709 60.4486 42.9547C60.4076 42.9385 60.3633 42.9323 60.3195 42.9366C60.2756 42.941 60.2334 42.9557 60.1964 42.9797L60.1813 42.9904C60.1475 43.0204 60.1221 43.0587 60.1076 43.1014C60.093 43.1442 60.0899 43.1899 60.0985 43.2343C60.1071 43.2786 60.1271 43.3199 60.1565 43.3542C60.1859 43.3885 60.2238 43.4146 60.2664 43.4299C60.309 43.4452 60.3548 43.4491 60.3994 43.4414C60.444 43.4337 60.4859 43.4146 60.5208 43.3859C60.5557 43.3572 60.5826 43.3199 60.5987 43.2777C60.6149 43.2356 60.6197 43.1899 60.6128 43.1453H60.615Z" fill="white"/>
<path d="M67.5715 57.973C67.561 57.9302 67.5404 57.8907 67.5115 57.8575C67.4825 57.8243 67.446 57.7986 67.4051 57.7824C67.3641 57.7661 67.3198 57.7599 67.2759 57.7643C67.2321 57.7686 67.1899 57.7834 67.1529 57.8073L67.1378 57.8202C67.103 57.8503 67.0767 57.8889 67.0615 57.9322C67.0464 57.9756 67.0429 58.0221 67.0514 58.0672C67.06 58.1123 67.0802 58.1544 67.1101 58.1893C67.1401 58.2242 67.1787 58.2506 67.222 58.266C67.2654 58.2813 67.3121 58.2851 67.3574 58.2768C67.4027 58.2686 67.445 58.2486 67.4801 58.219C67.5153 58.1893 67.542 58.151 67.5576 58.1078C67.5733 58.0647 67.5773 58.0182 67.5693 57.973H67.5715Z" fill="white"/>
<path d="M70.2808 45.2128C70.2706 45.1701 70.2503 45.1305 70.2216 45.0974C70.1929 45.0642 70.1566 45.0384 70.1157 45.0221C70.0749 45.0059 70.0308 44.9997 69.987 45.004C69.9433 45.0084 69.9012 45.0232 69.8644 45.0471L69.8493 45.0579C69.8155 45.0879 69.79 45.1261 69.7755 45.1689C69.761 45.2116 69.7579 45.2574 69.7664 45.3018C69.775 45.3461 69.795 45.3874 69.8245 45.4217C69.8539 45.456 69.8918 45.4821 69.9344 45.4973C69.9769 45.5126 70.0228 45.5166 70.0674 45.5089C70.112 45.5012 70.1538 45.482 70.1888 45.4534C70.2237 45.4247 70.2506 45.3874 70.2667 45.3452C70.2828 45.303 70.2877 45.2574 70.2808 45.2128Z" fill="white"/>
<path d="M69.2199 53.5689C69.2094 53.5262 69.1889 53.4866 69.1599 53.4535C69.131 53.4203 69.0945 53.3945 69.0535 53.3783C69.0125 53.3621 68.9683 53.3559 68.9244 53.3602C68.8805 53.3646 68.8383 53.3793 68.8013 53.4032L68.7862 53.4161C68.7514 53.4462 68.7251 53.4848 68.71 53.5282C68.6948 53.5715 68.6913 53.6181 68.6999 53.6632C68.7084 53.7083 68.7286 53.7504 68.7586 53.7853C68.7885 53.8201 68.8271 53.8466 68.8705 53.8619C68.9139 53.8773 68.9605 53.881 69.0058 53.8728C69.0511 53.8645 69.0934 53.8446 69.1286 53.8149C69.1637 53.7853 69.1904 53.747 69.2061 53.7038C69.2217 53.6606 69.2257 53.6141 69.2177 53.5689H69.2199Z" fill="white"/>
<path d="M63.1303 59.6036C63.1199 59.5609 63.0993 59.5213 63.0703 59.4881C63.0414 59.455 63.0049 59.4292 62.9639 59.413C62.923 59.3968 62.8787 59.3906 62.8348 59.3949C62.7909 59.3992 62.7487 59.414 62.7118 59.4379L62.6967 59.4508C62.6628 59.4809 62.6374 59.5193 62.623 59.5621C62.6085 59.6049 62.6055 59.6508 62.6143 59.6952C62.623 59.7395 62.6431 59.7809 62.6727 59.8151C62.7023 59.8493 62.7404 59.8753 62.7831 59.8904C62.8258 59.9055 62.8718 59.9093 62.9164 59.9013C62.961 59.8934 63.0028 59.874 63.0376 59.845C63.0724 59.8161 63.0991 59.7786 63.115 59.7363C63.1308 59.6939 63.1354 59.6482 63.1282 59.6036H63.1303Z" fill="white"/>
<path d="M63.3879 54.5779C63.3774 54.5352 63.3568 54.4956 63.3279 54.4625C63.2989 54.4293 63.2625 54.4036 63.2215 54.3873C63.1805 54.3711 63.1362 54.3649 63.0924 54.3693C63.0485 54.3736 63.0063 54.3884 62.9693 54.4123L62.9542 54.4252C62.9194 54.4552 62.8931 54.4939 62.878 54.5372C62.8628 54.5806 62.8593 54.6271 62.8678 54.6722C62.8764 54.7173 62.8966 54.7594 62.9265 54.7943C62.9565 54.8292 62.9951 54.8556 63.0384 54.871C63.0818 54.8863 63.1285 54.8901 63.1738 54.8818C63.2191 54.8736 63.2614 54.8536 63.2965 54.824C63.3317 54.7943 63.3584 54.756 63.3741 54.7128C63.3897 54.6696 63.3937 54.6231 63.3857 54.5779H63.3879Z" fill="white"/>
<path d="M67.0578 45.256C67.0477 45.2134 67.0274 45.1738 66.9987 45.1406C66.9699 45.1074 66.9336 45.0816 66.8928 45.0653C66.852 45.0491 66.8078 45.0429 66.7641 45.0472C66.7203 45.0516 66.6783 45.0664 66.6414 45.0904L66.6263 45.1033C66.5925 45.1334 66.5671 45.1717 66.5527 45.2146C66.5382 45.2574 66.5352 45.3033 66.5439 45.3476C66.5527 45.392 66.5728 45.4333 66.6024 45.4675C66.632 45.5018 66.6701 45.5277 66.7128 45.5428C66.7555 45.558 66.8014 45.5617 66.8461 45.5538C66.8907 45.5458 66.9325 45.5264 66.9673 45.4975C67.0021 45.4685 67.0288 45.431 67.0446 45.3887C67.0605 45.3464 67.0651 45.3006 67.0578 45.256Z" fill="white"/>
<path d="M62.1246 40.3893C62.1144 40.3467 62.0941 40.3071 62.0654 40.2739C62.0366 40.2407 62.0003 40.2149 61.9595 40.1987C61.9187 40.1824 61.8745 40.1762 61.8308 40.1805C61.787 40.1849 61.745 40.1997 61.7081 40.2237L61.693 40.2344C61.6592 40.2644 61.6338 40.3027 61.6193 40.3454C61.6047 40.3882 61.6016 40.4339 61.6102 40.4783C61.6188 40.5226 61.6388 40.5639 61.6682 40.5982C61.6976 40.6325 61.7355 40.6586 61.7781 40.6739C61.8207 40.6892 61.8665 40.6931 61.9111 40.6854C61.9557 40.6777 61.9976 40.6586 62.0325 40.6299C62.0675 40.6012 62.0943 40.5639 62.1104 40.5217C62.1266 40.4796 62.1314 40.4339 62.1246 40.3893Z" fill="white"/>
<path d="M61.9371 48.2355C61.927 48.1925 61.9067 48.1526 61.8778 48.1192C61.849 48.0857 61.8124 48.0597 61.7713 48.0434C61.7301 48.0272 61.6856 48.0211 61.6416 48.0257C61.5976 48.0303 61.5554 48.0454 61.5185 48.0699L61.5055 48.0806C61.4717 48.1106 61.4463 48.1489 61.4318 48.1916C61.4172 48.2344 61.4141 48.2801 61.4227 48.3245C61.4313 48.3688 61.4513 48.4101 61.4807 48.4444C61.5101 48.4787 61.548 48.5048 61.5906 48.5201C61.6332 48.5354 61.679 48.5393 61.7236 48.5316C61.7682 48.5239 61.8101 48.5048 61.845 48.4761C61.88 48.4474 61.9068 48.4101 61.9229 48.3679C61.9391 48.3258 61.9439 48.2801 61.9371 48.2355Z" fill="white"/>
<path d="M55.6276 72.17C55.617 72.1287 55.5968 72.0904 55.5687 72.0582C55.5405 72.026 55.5052 72.0009 55.4656 71.9848C55.426 71.9687 55.3831 71.9621 55.3404 71.9655C55.2977 71.9689 55.2564 71.9822 55.2199 72.0044L55.2048 72.0151C55.1709 72.0451 55.1455 72.0834 55.131 72.1261C55.1165 72.1689 55.1133 72.2147 55.1219 72.259C55.1305 72.3033 55.1505 72.3446 55.1799 72.3789C55.2094 72.4132 55.2472 72.4393 55.2898 72.4546C55.3324 72.4699 55.3783 72.4738 55.4229 72.4661C55.4675 72.4584 55.5093 72.4393 55.5442 72.4106C55.5792 72.3819 55.606 72.3446 55.6222 72.3024C55.6383 72.2603 55.6432 72.2146 55.6363 72.17H55.6276Z" fill="white"/>
<path d="M48.3881 68.233C48.3777 68.1903 48.3571 68.1507 48.3282 68.1175C48.2992 68.0844 48.2627 68.0586 48.2217 68.0424C48.1808 68.0262 48.1365 68.02 48.0926 68.0243C48.0488 68.0286 48.0066 68.0434 47.9696 68.0673L47.9545 68.0802C47.9206 68.1103 47.8953 68.1487 47.8808 68.1915C47.8664 68.2344 47.8633 68.2802 47.8721 68.3246C47.8808 68.3689 47.9009 68.4103 47.9306 68.4445C47.9602 68.4787 47.9982 68.5047 48.0409 68.5198C48.0836 68.5349 48.1296 68.5387 48.1742 68.5307C48.2188 68.5228 48.2606 68.5034 48.2954 68.4744C48.3302 68.4455 48.3569 68.408 48.3728 68.3657C48.3887 68.3233 48.3932 68.2776 48.386 68.233H48.3881Z" fill="white"/>
<path d="M42.5347 70.1629C42.5242 70.1202 42.5037 70.0806 42.4747 70.0474C42.4458 70.0143 42.4093 69.9885 42.3683 69.9723C42.3273 69.9561 42.2831 69.9499 42.2392 69.9542C42.1953 69.9586 42.1531 69.9733 42.1161 69.9972L42.1032 70.008C42.0694 70.038 42.044 70.0762 42.0294 70.119C42.0149 70.1617 42.0118 70.2075 42.0204 70.2518C42.0289 70.2962 42.0489 70.3375 42.0784 70.3718C42.1078 70.4061 42.1457 70.4322 42.1883 70.4474C42.2309 70.4627 42.2767 70.4667 42.3213 70.459C42.3659 70.4513 42.4077 70.4321 42.4427 70.4034C42.4776 70.3747 42.5045 70.3375 42.5206 70.2953C42.5367 70.2531 42.5416 70.2075 42.5347 70.1629Z" fill="white"/>
<path d="M41.9119 73.4866C41.9014 73.4439 41.8808 73.4043 41.8519 73.3712C41.8229 73.338 41.7865 73.3123 41.7455 73.296C41.7045 73.2798 41.6602 73.2736 41.6164 73.278C41.5725 73.2823 41.5303 73.297 41.4933 73.321L41.4782 73.3317C41.4444 73.3617 41.419 73.4 41.4044 73.4427C41.3899 73.4855 41.3868 73.5313 41.3954 73.5756C41.4039 73.6199 41.4239 73.6612 41.4534 73.6955C41.4828 73.7298 41.5207 73.7559 41.5633 73.7712C41.6059 73.7865 41.6517 73.7904 41.6963 73.7827C41.7409 73.775 41.7827 73.7559 41.8177 73.7272C41.8526 73.6985 41.8795 73.6612 41.8956 73.619C41.9117 73.5769 41.9166 73.5312 41.9097 73.4866H41.9119Z" fill="white"/>
<path d="M47.3977 74.5989C47.3872 74.5562 47.3667 74.5166 47.3377 74.4835C47.3088 74.4503 47.2723 74.4246 47.2313 74.4083C47.1903 74.3921 47.1461 74.3859 47.1022 74.3903C47.0583 74.3946 47.0161 74.4093 46.9791 74.4333L46.9662 74.4462C46.9324 74.4763 46.907 74.5146 46.8925 74.5575C46.8781 74.6003 46.8751 74.6462 46.8838 74.6905C46.8925 74.7349 46.9127 74.7762 46.9423 74.8105C46.9719 74.8447 47.0099 74.8706 47.0526 74.8858C47.0954 74.9009 47.1413 74.9047 47.1859 74.8967C47.2305 74.8887 47.2723 74.8693 47.3071 74.8404C47.342 74.8114 47.3686 74.774 47.3845 74.7316C47.4004 74.6893 47.4049 74.6436 47.3977 74.5989Z" fill="white"/>
<path d="M45.5636 67.1551C45.5532 67.1124 45.5326 67.0728 45.5037 67.0396C45.4747 67.0065 45.4382 66.9807 45.3973 66.9645C45.3563 66.9483 45.312 66.9421 45.2681 66.9464C45.2243 66.9507 45.1821 66.9655 45.1451 66.9894L45.13 67.0023C45.0952 67.0324 45.0689 67.071 45.0537 67.1143C45.0386 67.1577 45.0351 67.2042 45.0436 67.2494C45.0521 67.2945 45.0724 67.3366 45.1023 67.3714C45.1323 67.4063 45.1708 67.4327 45.2142 67.4481C45.2576 67.4635 45.3043 67.4672 45.3496 67.459C45.3949 67.4507 45.4372 67.4308 45.4723 67.4011C45.5075 67.3715 45.5342 67.3331 45.5498 67.29C45.5655 67.2468 45.5695 67.2003 45.5615 67.1551H45.5636Z" fill="white"/>
<path d="M52.2964 69.0483C52.2864 69.0053 52.2661 68.9653 52.2372 68.9319C52.2083 68.8984 52.1718 68.8725 52.1306 68.8562C52.0895 68.8399 52.045 68.8338 52.001 68.8384C51.957 68.843 51.9147 68.8582 51.8779 68.8826L51.8649 68.8934C51.8311 68.9234 51.8057 68.9616 51.7911 69.0044C51.7766 69.0471 51.7735 69.0929 51.7821 69.1372C51.7907 69.1815 51.8106 69.2229 51.8401 69.2572C51.8695 69.2915 51.9074 69.3175 51.95 69.3328C51.9926 69.3481 52.0384 69.3521 52.083 69.3444C52.1276 69.3367 52.1694 69.3175 52.2044 69.2888C52.2393 69.2601 52.2662 69.2228 52.2823 69.1807C52.2985 69.1385 52.3033 69.0929 52.2964 69.0483Z" fill="white"/>
<path d="M68.2964 67.1443C68.2867 67.1014 68.2667 67.0615 68.238 67.028C68.2094 66.9945 68.173 66.9685 68.132 66.9522C68.091 66.9358 68.0466 66.9297 68.0027 66.9344C67.9588 66.939 67.9167 66.9542 67.88 66.9787L67.8649 66.9894C67.8311 67.0194 67.8057 67.0577 67.7911 67.1004C67.7766 67.1432 67.7735 67.189 67.7821 67.2333C67.7907 67.2776 67.8106 67.3189 67.8401 67.3532C67.8695 67.3875 67.9074 67.4136 67.95 67.4289C67.9926 67.4442 68.0384 67.4482 68.083 67.4404C68.1276 67.4327 68.1694 67.4136 68.2044 67.3849C68.2393 67.3562 68.2662 67.3189 68.2823 67.2767C68.2985 67.2346 68.3033 67.1889 68.2964 67.1443Z" fill="white"/>
<path d="M58.3959 76.6041C58.3855 76.5613 58.3649 76.5218 58.336 76.4886C58.307 76.4554 58.2705 76.4297 58.2296 76.4135C58.1886 76.3972 58.1443 76.391 58.1004 76.3954C58.0566 76.3997 58.0144 76.4145 57.9774 76.4384L57.9623 76.4513C57.9284 76.4814 57.9031 76.5197 57.8886 76.5626C57.8742 76.6054 57.8712 76.6513 57.8799 76.6957C57.8886 76.74 57.9088 76.7813 57.9384 76.8156C57.968 76.8498 58.006 76.8758 58.0487 76.8909C58.0914 76.906 58.1374 76.9098 58.182 76.9018C58.2266 76.8939 58.2684 76.8745 58.3032 76.8455C58.338 76.8166 58.3647 76.7791 58.3806 76.7368C58.3965 76.6944 58.401 76.6487 58.3938 76.6041H58.3959Z" fill="white"/>
<path d="M62.6204 71.3376C62.6102 71.2949 62.5899 71.2553 62.5612 71.2221C62.5324 71.1889 62.4961 71.1631 62.4553 71.1469C62.4145 71.1306 62.3703 71.1244 62.3266 71.1288C62.2828 71.1331 62.2407 71.1479 62.2039 71.1719L62.1888 71.1848C62.155 71.2149 62.1296 71.2532 62.1152 71.2961C62.1007 71.3389 62.0977 71.3848 62.1064 71.4292C62.1152 71.4735 62.1353 71.5148 62.1649 71.5491C62.1945 71.5833 62.2326 71.6093 62.2753 71.6244C62.318 71.6395 62.3639 71.6433 62.4086 71.6353C62.4532 71.6274 62.495 71.608 62.5298 71.579C62.5646 71.5501 62.5913 71.5126 62.6072 71.4702C62.623 71.4279 62.6276 71.3822 62.6204 71.3376Z" fill="white"/>
<path d="M65.1278 75.6209C65.1181 75.5781 65.0984 75.5382 65.0702 75.5046C65.042 75.4709 65.0061 75.4445 64.9656 75.4274C64.9251 75.4104 64.8811 75.4032 64.8372 75.4066C64.7934 75.4099 64.751 75.4236 64.7135 75.4466L64.7006 75.4595C64.6667 75.4896 64.6413 75.528 64.6269 75.5708C64.6124 75.6137 64.6094 75.6595 64.6182 75.7039C64.6269 75.7483 64.647 75.7896 64.6766 75.8238C64.7063 75.858 64.7443 75.884 64.787 75.8991C64.8297 75.9142 64.8757 75.918 64.9203 75.9101C64.9649 75.9021 65.0067 75.8827 65.0415 75.8538C65.0763 75.8248 65.103 75.7873 65.1189 75.745C65.1347 75.7026 65.1393 75.6569 65.1321 75.6123L65.1278 75.6209Z" fill="white"/>
<path d="M58.1499 53.1902C58.1394 53.1475 58.1188 53.1079 58.0899 53.0748C58.0609 53.0416 58.0244 53.0159 57.9835 52.9996C57.9425 52.9834 57.8982 52.9772 57.8543 52.9816C57.8105 52.9859 57.7683 53.0006 57.7313 53.0246L57.7162 53.0375C57.6824 53.0676 57.657 53.1059 57.6425 53.1488C57.6281 53.1916 57.6251 53.2375 57.6338 53.2818C57.6425 53.3262 57.6627 53.3675 57.6923 53.4018C57.7219 53.436 57.7599 53.4619 57.8026 53.4771C57.8454 53.4922 57.8913 53.496 57.9359 53.488C57.9805 53.48 58.0223 53.4606 58.0571 53.4317C58.092 53.4028 58.1186 53.3653 58.1345 53.3229C58.1504 53.2806 58.1549 53.2349 58.1477 53.1902H58.1499Z" fill="white"/>
<path d="M63.8298 64.126C63.8194 64.0833 63.7988 64.0437 63.7699 64.0106C63.7409 63.9774 63.7044 63.9517 63.6634 63.9354C63.6225 63.9192 63.5782 63.913 63.5343 63.9174C63.4905 63.9217 63.4483 63.9364 63.4113 63.9604L63.3962 63.9711C63.3623 64.0011 63.3369 64.0394 63.3224 64.0821C63.3079 64.1249 63.3047 64.1707 63.3133 64.215C63.3219 64.2593 63.3419 64.3006 63.3713 64.3349C63.4008 64.3692 63.4386 64.3953 63.4812 64.4106C63.5238 64.4259 63.5697 64.4299 63.6143 64.4221C63.6589 64.4144 63.7007 64.3953 63.7356 64.3666C63.7706 64.3379 63.7974 64.3006 63.8136 64.2584C63.8297 64.2163 63.8346 64.1706 63.8277 64.126H63.8298Z" fill="white"/>
<path d="M61.9861 68.2676C61.9756 68.2249 61.9551 68.1853 61.9261 68.1522C61.8972 68.119 61.8607 68.0933 61.8197 68.077C61.7787 68.0608 61.7344 68.0546 61.6906 68.059C61.6467 68.0633 61.6045 68.078 61.5675 68.102L61.5524 68.1127C61.5186 68.1427 61.4932 68.181 61.4786 68.2237C61.4641 68.2665 61.461 68.3123 61.4696 68.3566C61.4782 68.4009 61.4981 68.4422 61.5276 68.4765C61.557 68.5108 61.5949 68.5369 61.6375 68.5522C61.6801 68.5675 61.7259 68.5715 61.7705 68.5637C61.8151 68.556 61.8569 68.5369 61.8919 68.5082C61.9268 68.4795 61.9537 68.4422 61.9698 68.4C61.986 68.3579 61.9908 68.3122 61.9839 68.2676H61.9861Z" fill="white"/>
<path d="M68.0444 71.5936C68.0339 71.5509 68.0134 71.5113 67.9844 71.4781C67.9555 71.445 67.919 71.4192 67.878 71.403C67.837 71.3868 67.7927 71.3806 67.7489 71.3849C67.705 71.3892 67.6628 71.404 67.6258 71.4279L67.6107 71.4408C67.5769 71.4709 67.5515 71.5093 67.5371 71.5521C67.5226 71.5949 67.5196 71.6408 67.5283 71.6852C67.537 71.7295 67.5572 71.7708 67.5868 71.8051C67.6164 71.8393 67.6544 71.8653 67.6972 71.8804C67.7399 71.8955 67.7858 71.8993 67.8304 71.8913C67.8751 71.8834 67.9168 71.864 67.9517 71.835C67.9865 71.8061 68.0132 71.7686 68.029 71.7263C68.0449 71.6839 68.0495 71.6382 68.0422 71.5936H68.0444Z" fill="white"/>
<path d="M51.4705 76.3976C51.4604 76.3546 51.4401 76.3147 51.4112 76.2813C51.3824 76.2478 51.3458 76.2218 51.3047 76.2056C51.2635 76.1893 51.219 76.1832 51.175 76.1878C51.131 76.1924 51.0888 76.2075 51.0519 76.232L51.0368 76.2427C51.003 76.2727 50.9775 76.311 50.963 76.3537C50.9485 76.3965 50.9454 76.4423 50.9539 76.4866C50.9625 76.5309 50.9825 76.5722 51.012 76.6065C51.0414 76.6408 51.0793 76.6669 51.1219 76.6822C51.1644 76.6975 51.2103 76.7015 51.2549 76.6937C51.2995 76.686 51.3413 76.6669 51.3763 76.6382C51.4112 76.6095 51.4381 76.5722 51.4542 76.53C51.4703 76.4879 51.4752 76.4422 51.4683 76.3976H51.4705Z" fill="white"/>
<path d="M37.6613 75.1392C37.6508 75.0965 37.6303 75.0569 37.6013 75.0238C37.5724 74.9906 37.5359 74.9648 37.4949 74.9486C37.4539 74.9324 37.4097 74.9262 37.3658 74.9305C37.3219 74.9349 37.2797 74.9496 37.2427 74.9735L37.2276 74.9865C37.1928 75.0165 37.1665 75.0551 37.1514 75.0985C37.1362 75.1418 37.1327 75.1884 37.1413 75.2335C37.1498 75.2786 37.17 75.3207 37.2 75.3556C37.2299 75.3904 37.2685 75.4169 37.3119 75.4322C37.3553 75.4476 37.4019 75.4513 37.4472 75.4431C37.4925 75.4348 37.5348 75.4149 37.57 75.3852C37.6051 75.3556 37.6318 75.3173 37.6475 75.2741C37.6631 75.2309 37.6672 75.1844 37.6591 75.1392H37.6613Z" fill="white"/>
<path d="M49.8254 72.878C49.8149 72.8353 49.7943 72.7957 49.7654 72.7625C49.7364 72.7294 49.7 72.7036 49.659 72.6874C49.618 72.6712 49.5737 72.665 49.5298 72.6693C49.486 72.6736 49.4438 72.6884 49.4068 72.7123L49.3917 72.7252C49.3569 72.7553 49.3306 72.7939 49.3154 72.8373C49.3003 72.8806 49.2968 72.9272 49.3053 72.9723C49.3139 73.0174 49.3341 73.0595 49.364 73.0943C49.394 73.1292 49.4326 73.1556 49.4759 73.171C49.5193 73.1864 49.566 73.1901 49.6113 73.1819C49.6566 73.1736 49.6989 73.1537 49.734 73.124C49.7692 73.0944 49.7959 73.056 49.8116 73.0129C49.8272 72.9697 49.8312 72.9232 49.8232 72.878H49.8254Z" fill="white"/>
<path d="M38.1753 70.4189C38.1653 70.3759 38.145 70.3359 38.1161 70.3025C38.0872 70.269 38.0507 70.2431 38.0095 70.2268C37.9684 70.2105 37.9239 70.2044 37.8799 70.209C37.8359 70.2136 37.7936 70.2288 37.7568 70.2532L37.7438 70.264C37.71 70.294 37.6846 70.3322 37.6701 70.375C37.6555 70.4177 37.6524 70.4635 37.661 70.5078C37.6696 70.5521 37.6895 70.5935 37.719 70.6278C37.7484 70.6621 37.7863 70.6881 37.8289 70.7034C37.8715 70.7187 37.9173 70.7227 37.9619 70.715C38.0065 70.7073 38.0484 70.6881 38.0833 70.6594C38.1182 70.6307 38.1451 70.5935 38.1612 70.5513C38.1774 70.5091 38.1822 70.4635 38.1753 70.4189Z" fill="white"/>
<path d="M57.6384 62.6092C57.628 62.5665 57.6074 62.5269 57.5785 62.4937C57.5495 62.4606 57.513 62.4348 57.472 62.4186C57.4311 62.4024 57.3868 62.3962 57.3429 62.4005C57.299 62.4048 57.2569 62.4196 57.2199 62.4435L57.2048 62.4543C57.1709 62.4843 57.1455 62.5225 57.131 62.5653C57.1165 62.608 57.1133 62.6538 57.1219 62.6981C57.1305 62.7425 57.1505 62.7838 57.1799 62.8181C57.2094 62.8524 57.2472 62.8784 57.2898 62.8937C57.3324 62.909 57.3783 62.913 57.4229 62.9053C57.4675 62.8976 57.5093 62.8784 57.5442 62.8497C57.5792 62.821 57.606 62.7838 57.6222 62.7416C57.6383 62.6994 57.6432 62.6538 57.6363 62.6092H57.6384Z" fill="white"/>
<path d="M53.5642 50.7571C53.5537 50.7144 53.5332 50.6748 53.5042 50.6417C53.4753 50.6085 53.4388 50.5828 53.3978 50.5665C53.3568 50.5503 53.3126 50.5441 53.2687 50.5485C53.2248 50.5528 53.1826 50.5675 53.1456 50.5915H53.1305C53.0967 50.6215 53.0713 50.6597 53.0568 50.7025C53.0422 50.7452 53.0391 50.791 53.0477 50.8353C53.0563 50.8796 53.0763 50.921 53.1057 50.9553C53.1351 50.9896 53.173 51.0156 53.2156 51.0309C53.2582 51.0462 53.304 51.0502 53.3486 51.0425C53.3932 51.0348 53.4351 51.0156 53.47 50.9869C53.505 50.9582 53.5318 50.921 53.5479 50.8788C53.5641 50.8366 53.5689 50.791 53.5621 50.7464L53.5642 50.7571Z" fill="white"/>
<path d="M52.5461 61.0323C52.5357 60.9896 52.5151 60.95 52.4861 60.9168C52.4572 60.8837 52.4207 60.8579 52.3797 60.8417C52.3388 60.8255 52.2945 60.8193 52.2506 60.8236C52.2067 60.8279 52.1646 60.8427 52.1276 60.8666L52.1146 60.8795C52.0808 60.9096 52.0554 60.948 52.041 60.9908C52.0265 61.0337 52.0235 61.0795 52.0322 61.1239C52.0409 61.1682 52.0611 61.2096 52.0907 61.2438C52.1203 61.278 52.1583 61.304 52.2011 61.3191C52.2438 61.3342 52.2897 61.338 52.3343 61.33C52.379 61.3221 52.4208 61.3027 52.4556 61.2737C52.4904 61.2448 52.5171 61.2073 52.5329 61.165C52.5488 61.1226 52.5534 61.0769 52.5461 61.0323Z" fill="white"/>
<path d="M50.8863 57.6824C50.8758 57.6397 50.8552 57.6001 50.8263 57.567C50.7973 57.5338 50.7609 57.5081 50.7199 57.4918C50.6789 57.4756 50.6346 57.4694 50.5908 57.4738C50.5469 57.4781 50.5047 57.4928 50.4677 57.5168H50.4548C50.4209 57.5468 50.3955 57.585 50.381 57.6278C50.3665 57.6705 50.3633 57.7163 50.3719 57.7606C50.3805 57.8049 50.4005 57.8463 50.4299 57.8806C50.4594 57.9149 50.4972 57.9409 50.5398 57.9562C50.5824 57.9715 50.6283 57.9755 50.6729 57.9678C50.7175 57.9601 50.7593 57.9409 50.7942 57.9122C50.8292 57.8835 50.856 57.8463 50.8722 57.8041C50.8883 57.7619 50.8932 57.7163 50.8863 57.6717V57.6824Z" fill="white"/>
<path d="M58.216 68.22C58.2055 68.1773 58.185 68.1377 58.156 68.1046C58.1271 68.0714 58.0906 68.0457 58.0496 68.0294C58.0086 68.0132 57.9643 68.007 57.9205 68.0114C57.8766 68.0157 57.8344 68.0304 57.7974 68.0544L57.7823 68.0673C57.7475 68.0973 57.7212 68.1359 57.7061 68.1793C57.6909 68.2226 57.6874 68.2692 57.696 68.3143C57.7045 68.3594 57.7247 68.4015 57.7547 68.4364C57.7846 68.4712 57.8232 68.4977 57.8666 68.513C57.91 68.5284 57.9566 68.5321 58.0019 68.5239C58.0472 68.5157 58.0895 68.4957 58.1247 68.4661C58.1598 68.4364 58.1865 68.3981 58.2022 68.3549C58.2178 68.3117 58.2218 68.2652 58.2138 68.22H58.216Z" fill="white"/>
<path d="M53.0522 66.1525C53.043 66.109 53.0233 66.0683 52.9948 66.0341C52.9662 65.9999 52.9298 65.9731 52.8885 65.9562C52.8473 65.9392 52.8025 65.9326 52.7581 65.9368C52.7136 65.941 52.6709 65.956 52.6336 65.9804L52.6185 65.9933C52.5847 66.0234 52.5593 66.0618 52.5449 66.1046C52.5304 66.1474 52.5274 66.1933 52.5361 66.2377C52.5449 66.282 52.565 66.3233 52.5946 66.3576C52.6242 66.3918 52.6623 66.4178 52.705 66.4329C52.7477 66.448 52.7936 66.4518 52.8383 66.4438C52.8829 66.4359 52.9247 66.4165 52.9595 66.3875C52.9943 66.3586 53.021 66.3211 53.0368 66.2788C53.0527 66.2364 53.0573 66.1907 53.05 66.1461L53.0522 66.1525Z" fill="white"/>
<path d="M55.2613 54.8039C55.2511 54.7612 55.2308 54.7216 55.2021 54.6884C55.1734 54.6553 55.137 54.6294 55.0962 54.6132C55.0554 54.597 55.0112 54.5907 54.9675 54.5951C54.9237 54.5995 54.8817 54.6142 54.8449 54.6382L54.8298 54.649C54.7959 54.679 54.7705 54.7172 54.756 54.76C54.7415 54.8027 54.7383 54.8485 54.7469 54.8928C54.7555 54.9371 54.7755 54.9785 54.8049 55.0128C54.8344 55.0471 54.8722 55.0731 54.9148 55.0884C54.9574 55.1037 55.0033 55.1077 55.0479 55.1C55.0925 55.0923 55.1343 55.0731 55.1692 55.0444C55.2042 55.0157 55.231 54.9785 55.2472 54.9363C55.2633 54.8941 55.2682 54.8485 55.2613 54.8039Z" fill="white"/>
<path d="M47.3977 62.8392C47.3872 62.7965 47.3667 62.7569 47.3377 62.7237C47.3088 62.6906 47.2723 62.6648 47.2313 62.6486C47.1903 62.6324 47.1461 62.6262 47.1022 62.6305C47.0583 62.6348 47.0161 62.6496 46.9791 62.6735L46.9662 62.6864C46.9324 62.7165 46.907 62.7549 46.8925 62.7977C46.8781 62.8406 46.8751 62.8864 46.8838 62.9308C46.8925 62.9751 46.9127 63.0165 46.9423 63.0507C46.9719 63.0849 47.0099 63.1109 47.0526 63.126C47.0954 63.1411 47.1413 63.1449 47.1859 63.1369C47.2305 63.129 47.2723 63.1096 47.3071 63.0806C47.342 63.0517 47.3686 63.0142 47.3845 62.9719C47.4004 62.9295 47.4049 62.8838 47.3977 62.8392Z" fill="white"/>
<path d="M59.5369 59.1519C59.5264 59.1092 59.5058 59.0696 59.4769 59.0365C59.4479 59.0033 59.4115 58.9775 59.3705 58.9613C59.3295 58.9451 59.2852 58.9389 59.2414 58.9432C59.1975 58.9476 59.1553 58.9623 59.1183 58.9862L59.1032 58.997C59.0694 59.027 59.044 59.0652 59.0294 59.108C59.0149 59.1508 59.0118 59.1965 59.0204 59.2409C59.0289 59.2852 59.0489 59.3265 59.0784 59.3608C59.1078 59.3951 59.1457 59.4212 59.1883 59.4365C59.2309 59.4517 59.2767 59.4557 59.3213 59.448C59.3659 59.4403 59.4077 59.4212 59.4427 59.3925C59.4776 59.3638 59.5045 59.3265 59.5206 59.2843C59.5367 59.2421 59.5416 59.1965 59.5347 59.1519H59.5369Z" fill="white"/>
<path d="M70.7944 49.522C70.7839 49.4793 70.7633 49.4397 70.7344 49.4066C70.7055 49.3734 70.669 49.3477 70.628 49.3314C70.587 49.3152 70.5427 49.309 70.4989 49.3134C70.455 49.3177 70.4128 49.3324 70.3758 49.3564L70.3607 49.3693C70.3269 49.3994 70.3015 49.4377 70.2871 49.4806C70.2726 49.5234 70.2696 49.5693 70.2783 49.6136C70.287 49.658 70.3072 49.6993 70.3368 49.7335C70.3664 49.7678 70.4044 49.7937 70.4472 49.8089C70.4899 49.824 70.5358 49.8277 70.5804 49.8198C70.6251 49.8118 70.6668 49.7924 70.7017 49.7635C70.7365 49.7345 70.7631 49.6971 70.779 49.6547C70.7949 49.6124 70.7995 49.5666 70.7922 49.522H70.7944Z" fill="white"/>
<path d="M66.2241 42.231C66.2136 42.1883 66.193 42.1487 66.1641 42.1156C66.1351 42.0824 66.0987 42.0566 66.0577 42.0404C66.0167 42.0242 65.9724 42.018 65.9286 42.0223C65.8847 42.0267 65.8425 42.0414 65.8055 42.0653L65.7904 42.0783C65.7566 42.1083 65.7312 42.1467 65.7167 42.1895C65.7023 42.2324 65.6993 42.2783 65.708 42.3226C65.7167 42.367 65.7369 42.4083 65.7665 42.4425C65.7961 42.4768 65.8341 42.5027 65.8769 42.5178C65.9196 42.533 65.9655 42.5367 66.0101 42.5288C66.0548 42.5208 66.0965 42.5014 66.1314 42.4725C66.1662 42.4435 66.1928 42.406 66.2087 42.3637C66.2246 42.3214 66.2291 42.2756 66.2219 42.231H66.2241Z" fill="white"/>
<path d="M57.365 43.1453C57.3545 43.1026 57.334 43.063 57.305 43.0299C57.2761 42.9967 57.2396 42.9709 57.1986 42.9547C57.1576 42.9385 57.1133 42.9323 57.0695 42.9366C57.0256 42.941 56.9834 42.9557 56.9464 42.9797L56.9313 42.9904C56.8975 43.0204 56.8721 43.0587 56.8576 43.1014C56.843 43.1442 56.8399 43.1899 56.8485 43.2343C56.8571 43.2786 56.8771 43.3199 56.9065 43.3542C56.9359 43.3885 56.9738 43.4146 57.0164 43.4299C57.059 43.4452 57.1048 43.4491 57.1494 43.4414C57.194 43.4337 57.2359 43.4146 57.2708 43.3859C57.3057 43.3572 57.3326 43.3199 57.3487 43.2777C57.3649 43.2356 57.3697 43.1899 57.3628 43.1453H57.365Z" fill="white"/>
<path d="M48.3253 16.9734C46.6273 18.0491 45.952 20.3102 46.2713 21.6463C46.4353 22.3196 46.7417 22.9973 46.6079 23.675C46.4935 24.2624 46.0685 24.7335 45.7449 25.2413C45.2117 26.096 44.9667 27.0984 45.0458 28.1019C45.1249 29.1053 45.5239 30.0573 46.1845 30.8184C46.8451 31.5795 47.7326 32.1099 48.7172 32.332C49.7018 32.5541 50.7318 32.4562 51.6566 32.0526" fill="#263238"/>
<path d="M47.3203 25.7919C43.1865 16.7259 53.0206 12.1713 58.3843 13.6816C63.4265 15.1016 65.5776 17.6037 66.4083 20.9663C67.2389 24.329 67.1979 27.9756 65.8754 31.1791C65.2281 32.7582 64.0501 34.3632 62.3477 34.5611" fill="#263238"/>
<path d="M52.1634 47.9321C52.0922 43.5991 52.0404 37.6505 52.0404 37.6742C52.0404 37.6978 48.3143 37.0567 47.5311 32.2031C47.1471 29.7871 47.27 25.8263 47.4729 22.5884C47.6584 19.6733 49.5937 16.0976 52.5064 16.4053L61.6006 18.6965C62.0275 18.7412 62.422 18.9444 62.7057 19.2656C62.9895 19.5868 63.1418 20.0026 63.1324 20.4306L62.5413 39.1845" fill="#FFBE9D"/>
<path d="M49.1017 25.5511C49.0982 25.7124 49.158 25.8686 49.2685 25.9864C49.379 26.1042 49.5313 26.1742 49.6929 26.1815C49.7719 26.1888 49.8515 26.1803 49.9272 26.1565C50.0028 26.1326 50.0729 26.0938 50.1332 26.0425C50.1935 25.9911 50.243 25.9282 50.2785 25.8575C50.3141 25.7868 50.335 25.7097 50.3401 25.6307C50.3432 25.4694 50.2832 25.3133 50.1729 25.1952C50.0626 25.0772 49.9106 25.0066 49.749 24.9982C49.6699 24.9912 49.5902 25 49.5145 25.0241C49.4389 25.0482 49.3688 25.0872 49.3085 25.1387C49.2482 25.1902 49.1988 25.2532 49.1633 25.3241C49.1278 25.3949 49.1069 25.4721 49.1017 25.5511Z" fill="#263238"/>
<path d="M55.5587 25.5511C55.5557 25.7119 55.6158 25.8676 55.7263 25.985C55.8367 26.1023 55.9887 26.172 56.1499 26.1793C56.2289 26.1866 56.3085 26.1781 56.3842 26.1542C56.4598 26.1304 56.5298 26.0916 56.5902 26.0403C56.6505 25.9889 56.6999 25.926 56.7355 25.8553C56.771 25.7846 56.792 25.7075 56.7971 25.6285C56.8007 25.4673 56.7408 25.311 56.6303 25.1932C56.5199 25.0754 56.3675 25.0054 56.206 24.9982C56.1268 24.9908 56.047 24.9994 55.9712 25.0234C55.8954 25.0474 55.8253 25.0864 55.7649 25.1379C55.7045 25.1895 55.6552 25.2527 55.6197 25.3236C55.5843 25.3946 55.5636 25.4719 55.5587 25.5511Z" fill="#263238"/>
<path d="M48.4308 24.4193C48.5063 24.5032 48.9917 24.1697 49.6627 24.2041C50.3337 24.2386 50.8149 24.5785 50.8925 24.4989C50.9292 24.4645 50.8537 24.316 50.6444 24.1525C50.361 23.9413 50.0186 23.8232 49.6649 23.8147C49.3153 23.8025 48.9708 23.9012 48.681 24.0966C48.4696 24.2429 48.3941 24.3806 48.4308 24.4193Z" fill="#263238"/>
<path d="M54.8111 24.5786C54.8888 24.6604 55.3613 24.3075 56.0323 24.3075C56.7033 24.3075 57.1995 24.6389 57.2707 24.5571C57.3074 24.5205 57.2276 24.3742 57.0118 24.2193C56.7204 24.0185 56.3735 23.9133 56.0193 23.9181C55.6699 23.9181 55.3296 24.0297 55.0484 24.2365C54.8413 24.3957 54.7723 24.542 54.8111 24.5786Z" fill="#263238"/>
<path d="M52.5053 29.7419C52.5053 29.7032 52.0911 29.6322 51.4136 29.544C51.241 29.5268 51.0792 29.4923 51.0511 29.3762C51.0358 29.1992 51.0757 29.0219 51.1655 28.8684C51.3252 28.4554 51.4956 28.0208 51.6725 27.5647C52.378 25.7102 52.8872 24.1827 52.8117 24.1547C52.7362 24.1267 52.104 25.609 51.4007 27.4657L50.9131 28.7781C50.805 28.9844 50.7737 29.2222 50.8246 29.4493C50.8497 29.5095 50.8881 29.5633 50.9371 29.6066C50.9861 29.6498 51.0442 29.6814 51.1072 29.6989C51.2021 29.7255 51.3 29.7392 51.3985 29.7398C52.0803 29.7763 52.5032 29.7785 52.5053 29.7419Z" fill="#263238"/>
<path d="M52.043 37.6742C54.3368 37.7092 56.5954 37.1089 58.5674 35.9402C58.5674 35.9402 56.9191 39.3179 52.043 38.864V37.6742Z" fill="#EB996E"/>
<path d="M54.6445 23.6254C54.7092 23.8083 55.3824 23.7201 56.1699 23.8169C56.9574 23.9137 57.5961 24.1246 57.7018 23.9611C57.7492 23.8836 57.6371 23.7115 57.3803 23.5308C57.0368 23.3147 56.6485 23.1793 56.2448 23.135C55.8411 23.0906 55.4326 23.1384 55.0501 23.2748C54.761 23.3952 54.6143 23.5394 54.6445 23.6254Z" fill="#263238"/>
<path d="M48.5835 22.7371C48.7022 22.8898 49.166 22.7371 49.7227 22.7242C50.2793 22.7113 50.7519 22.8274 50.8597 22.6682C50.9072 22.5908 50.8338 22.438 50.6267 22.2939C50.3517 22.1168 50.0282 22.0296 49.7011 22.0443C49.3741 22.0507 49.0569 22.1574 48.7928 22.3498C48.5965 22.5026 48.5317 22.6596 48.5835 22.7371Z" fill="#263238"/>
<path d="M62.3015 26.8247C62.3727 26.7903 64.91 25.6716 64.9402 28.5803C64.9704 31.489 62.0339 30.9189 62.0275 30.835C62.021 30.7511 62.3015 26.8247 62.3015 26.8247Z" fill="#FFBE9D"/>
<path d="M62.9045 29.7205C62.9174 29.7205 62.9562 29.7549 63.0425 29.7937C63.1645 29.842 63.3003 29.842 63.4223 29.7937C63.7286 29.6775 63.9832 29.187 63.9919 28.662C63.9984 28.4129 63.9474 28.1656 63.843 27.9391C63.8151 27.8484 63.7653 27.7658 63.698 27.6987C63.6306 27.6315 63.5478 27.5819 63.4568 27.554C63.3983 27.539 63.3365 27.545 63.282 27.571C63.2276 27.597 63.184 27.6412 63.159 27.696C63.1202 27.7778 63.1396 27.8359 63.1245 27.8402C63.1094 27.8445 63.0598 27.7928 63.0835 27.6724C63.0988 27.6004 63.1384 27.5358 63.1957 27.4895C63.2351 27.4588 63.2801 27.4362 63.3282 27.4229C63.3764 27.4096 63.4266 27.4059 63.4762 27.412C63.5961 27.4345 63.7083 27.4872 63.8019 27.5652C63.8956 27.6432 63.9677 27.7438 64.0113 27.8574C64.1384 28.1079 64.2021 28.3856 64.1968 28.6663C64.1839 29.2515 63.8883 29.8044 63.4676 29.9292C63.3895 29.9527 63.3071 29.9585 63.2265 29.9462C63.1459 29.9339 63.069 29.9039 63.0015 29.8582C62.9109 29.7915 62.8958 29.7248 62.9045 29.7205Z" fill="#EB996E"/>
<path d="M51.5389 14.9661C49.9164 15.803 49.2476 19.1118 49.9186 20.8071C50.5896 22.5025 52.3998 23.3286 54.1841 23.718C55.9684 24.1074 57.7182 24.1483 59.4788 23.6664C59.5996 24.8454 60.3094 26.0566 61.4572 26.3686C62.9783 26.7795 64.5102 25.3918 64.8489 23.8579C65.1876 22.3239 64.6785 20.7448 64.1779 19.2538" fill="#263238"/>
<path d="M64.4087 25.519C64.4087 25.519 64.3353 25.605 64.1822 25.7341C63.968 25.9148 63.744 26.0836 63.5112 26.2397C63.1631 26.4791 62.7804 26.6641 62.3763 26.7883C61.8716 26.947 61.3289 26.9387 60.8293 26.7646C60.3375 26.567 59.9254 26.2121 59.6578 25.7556C59.441 25.391 59.2981 24.9875 59.237 24.568C59.1944 24.2891 59.1792 24.0066 59.1917 23.7247C59.187 23.6215 59.1994 23.5183 59.2284 23.4192C59.2608 23.4192 59.2284 23.8602 59.3535 24.5465C59.4275 24.9453 59.5737 25.3273 59.7851 25.6739C60.0413 26.0944 60.4263 26.4218 60.8832 26.6076C61.3507 26.7686 61.8572 26.7792 62.331 26.6377C62.7228 26.5247 63.0969 26.3574 63.4421 26.1407C64.0419 25.7664 64.3914 25.4953 64.4087 25.519Z" fill="#263238"/>
<path d="M52.7035 31.6096C52.7893 31.8618 52.9114 32.1002 53.066 32.3174C53.1436 32.4262 53.2436 32.5172 53.3593 32.5843C53.475 32.6515 53.6038 32.6932 53.737 32.7068C53.8793 32.7058 54.0192 32.6697 54.1442 32.6018C54.2692 32.5339 54.3753 32.4361 54.4533 32.3174C54.6037 32.0739 54.6731 31.7893 54.6518 31.5041C54.641 31.2481 54.5223 30.9426 54.2677 30.9125C54.1607 30.9087 54.0544 30.9324 53.9592 30.9813L52.6172 31.5235" fill="#EB996E"/>
<path d="M53.2393 32.709C53.2393 32.6682 53.5414 32.7865 53.9556 32.6208C54.1905 32.5304 54.3834 32.3564 54.4972 32.1325C54.5615 31.9959 54.5962 31.8473 54.5992 31.6965C54.6022 31.5456 54.5733 31.3958 54.5144 31.2568C54.4834 31.1859 54.4443 31.1188 54.3979 31.0568C54.344 31.0008 54.3526 31.003 54.2965 31.0116C54.2404 31.0202 54.152 31.0675 54.0808 31.0955L53.865 31.1858C53.5781 31.302 53.317 31.401 53.0991 31.4849C52.6676 31.6484 52.3806 31.7345 52.3677 31.7C52.3547 31.6656 52.6093 31.5279 53.0322 31.3257C53.2479 31.2246 53.4961 31.1105 53.7787 30.9793L53.9945 30.8825C54.0743 30.8502 54.1325 30.8158 54.2404 30.7814C54.3049 30.76 54.3745 30.76 54.4389 30.7814C54.4979 30.8065 54.5492 30.8465 54.5878 30.8976C54.7318 31.0842 54.8188 31.3083 54.8383 31.5429C54.8578 31.7776 54.809 32.0129 54.6978 32.2207C54.6262 32.3525 54.5291 32.4689 54.412 32.5631C54.295 32.6573 54.1604 32.7273 54.016 32.7693C53.8285 32.8307 53.6276 32.8389 53.4357 32.793C53.2976 32.7693 53.235 32.7241 53.2393 32.709Z" fill="#263238"/>
<path d="M65.5754 24.8303C65.2776 24.8088 62.8677 25.1207 63.0575 29.5849C63.2344 33.7565 66.1687 32.8378 67.1051 31.2673C67.9854 29.7807 68.4989 25.0347 65.5754 24.8303Z" fill="#455A64"/>
<path d="M67.0586 25.3575C67.0519 25.3191 67.0483 25.2803 67.0478 25.2413C67.0478 25.1531 67.0478 25.0413 67.0349 24.8993C67.0349 24.5916 67.0133 24.1613 66.9982 23.6278C66.9766 22.5327 66.9464 21.0073 66.9098 19.2496L66.9637 19.3013H65.7231L65.7792 19.2453C65.7792 19.5767 65.7965 19.9273 65.8072 20.2845C65.8482 21.9583 65.8871 23.5116 65.9194 24.8261V24.8648H65.8828C65.3734 24.982 64.9209 25.2726 64.6033 25.6867C64.3628 26.0078 64.189 26.3735 64.092 26.7624C64.0273 27.013 63.9833 27.2684 63.9604 27.5261C63.9604 27.6143 63.9496 27.6832 63.9474 27.7284C63.9453 27.7735 63.9474 27.7994 63.9474 27.7994C63.9446 27.7758 63.9446 27.7519 63.9474 27.7284C63.9474 27.6832 63.9474 27.6143 63.9474 27.524C63.9579 27.2629 63.9941 27.0035 64.0553 26.7495C64.1453 26.3492 64.3164 25.9714 64.558 25.6393C64.8836 25.2083 65.3498 24.904 65.8763 24.7788L65.8396 24.8261C65.8029 23.5202 65.7576 21.9604 65.7102 20.2845C65.6994 19.9295 65.6907 19.5788 65.6821 19.2453V19.1873H67.0349V19.241C67.0543 21.0009 67.0716 22.5241 67.0845 23.6213C67.0845 24.1549 67.0845 24.5852 67.0845 24.8928C67.0845 25.0348 67.0845 25.1467 67.0845 25.2327C67.0817 25.2753 67.073 25.3173 67.0586 25.3575Z" fill="#455A64"/>
<path d="M65.5766 19.2475C65.5766 19.2475 64.3166 16.3087 61.3154 14.8565C60.1676 14.2864 58.9618 13.8407 57.7188 13.5269C57.7188 13.5269 59.4707 13.1138 62.3036 14.3703C63.5981 14.9425 64.8926 15.6848 65.7557 16.8014C66.2994 17.5092 66.9812 18.8925 66.979 19.2475H65.5766Z" fill="#455A64"/>
<path d="M57.8086 54.847C57.8086 54.847 57.8259 54.8255 57.8625 54.7889C57.8992 54.7523 57.9553 54.6964 58.0243 54.6211C58.2314 54.4027 58.4259 54.1728 58.6069 53.9326C58.8949 53.5482 59.158 53.1458 59.3944 52.7278C59.6749 52.2395 59.9683 51.6629 60.2855 51.0196C60.922 49.7288 61.6577 48.1754 62.4215 46.3898C62.8012 45.4969 63.1895 44.5482 63.5779 43.5478L63.867 42.7904C63.9581 42.5254 64.0745 42.2697 64.2144 42.0267C64.3637 41.7748 64.5804 41.5692 64.8401 41.4329C64.9723 41.3604 65.1207 41.3227 65.2716 41.3232C65.3539 41.3288 65.4331 41.3571 65.5003 41.4049C65.564 41.4564 65.6137 41.523 65.6449 41.5986V41.6136V41.6308C65.6265 41.7333 65.5868 41.8308 65.5283 41.917C65.4632 42.0068 65.3672 42.0696 65.2586 42.0934C65.0514 42.122 64.8404 42.0836 64.6567 41.9837C64.4638 41.894 64.3066 41.7425 64.2101 41.5534C64.1135 41.3644 64.0831 41.1485 64.1238 40.9402C64.1678 40.7262 64.294 40.5378 64.4755 40.4153C64.6545 40.2907 64.8702 40.2294 65.0882 40.241C65.2011 40.2418 65.3119 40.2707 65.4107 40.3252C65.5094 40.3797 65.5929 40.458 65.6535 40.553C65.684 40.6073 65.6982 40.6693 65.6943 40.7315C65.6905 40.7937 65.6688 40.8534 65.6319 40.9037C65.5607 40.9936 65.4658 41.0622 65.3579 41.1016C65.177 41.1701 64.9787 41.1787 64.7926 41.126C64.6064 41.0733 64.4422 40.9621 64.3244 40.809C64.2097 40.6529 64.1595 40.4588 64.1842 40.2668C64.2031 40.0798 64.2783 39.9028 64.3999 39.7591C64.5236 39.614 64.6963 39.5191 64.8854 39.4923C64.9808 39.4799 65.0779 39.4898 65.1689 39.5211C65.2599 39.5525 65.3423 39.6045 65.4097 39.6731C65.4786 39.7472 65.5158 39.8452 65.5132 39.9463C65.512 39.9967 65.5003 40.0462 65.4787 40.0918C65.4572 40.1374 65.4263 40.1779 65.3881 40.2109C65.3177 40.2741 65.2333 40.3198 65.1419 40.3445C65.0504 40.3692 64.9544 40.3721 64.8617 40.3529C64.7719 40.3295 64.688 40.2875 64.6155 40.2297C64.543 40.1719 64.4836 40.0995 64.4409 40.0173C64.3573 39.8631 64.3039 39.6944 64.2834 39.5203C64.2226 39.1822 64.2623 38.8336 64.3978 38.5177C64.4734 38.3566 64.6042 38.2276 64.7667 38.1542C64.9328 38.0928 65.1165 38.099 65.2781 38.1714C65.3627 38.2019 65.4373 38.2552 65.4933 38.3255C65.5493 38.3958 65.5846 38.4802 65.5952 38.5694C65.5995 38.6605 65.5755 38.7507 65.5265 38.8277C65.4774 38.9047 65.4057 38.9648 65.3212 38.9997C65.2444 39.0389 65.1594 39.0594 65.0731 39.0594C64.9868 39.0594 64.9018 39.0389 64.825 38.9997C64.679 38.9155 64.5691 38.7807 64.5164 38.621C64.4676 38.4695 64.458 38.3082 64.4884 38.152C64.5053 37.9997 64.5386 37.8497 64.5876 37.7045C64.6363 37.5553 64.7269 37.4231 64.8487 37.3237C64.9683 37.228 65.1075 37.1597 65.2565 37.1236C65.334 37.1015 65.4163 37.1015 65.4938 37.1236C65.5682 37.1493 65.6354 37.1921 65.6902 37.2484C65.7451 37.3022 65.7884 37.3666 65.8175 37.4377C65.8488 37.5143 65.8488 37.6 65.8175 37.6765C65.7827 37.7473 65.7271 37.8059 65.6581 37.8443C65.5891 37.8828 65.5099 37.8993 65.4312 37.8917C65.2852 37.8896 65.1434 37.8422 65.0256 37.7561C64.8021 37.5918 64.6481 37.3501 64.5941 37.0785C64.5377 36.8103 64.5798 36.5308 64.7128 36.291C64.7712 36.176 64.8545 36.0753 64.9566 35.9963C65.0573 35.9201 65.175 35.8691 65.2996 35.8478C65.4242 35.8226 65.5537 35.8408 65.6664 35.8995C65.7222 35.9296 65.7695 35.9732 65.8042 36.0261C65.8388 36.0791 65.8597 36.1398 65.8649 36.2028C65.8642 36.3215 65.824 36.4367 65.7506 36.5301C65.6772 36.6236 65.5747 36.6901 65.4593 36.7192C65.3511 36.7421 65.2386 36.7341 65.1347 36.696C65.0309 36.658 64.94 36.5914 64.8724 36.504C64.7429 36.3484 64.6672 36.1552 64.6567 35.9533C64.6754 35.6015 64.7482 35.2546 64.8724 34.9249C64.9609 34.6151 65.0407 34.3311 65.1141 34.0772C65.2586 33.5716 65.3708 33.1779 65.4507 32.9069C65.4874 32.7756 65.5176 32.6745 65.5391 32.6035C65.5607 32.5325 65.5736 32.5002 65.5736 32.5002C65.5736 32.5002 65.5737 32.5368 65.5499 32.6057C65.5262 32.6745 65.5046 32.7821 65.4722 32.9133C65.3989 33.1865 65.291 33.5824 65.1551 34.088L64.9242 34.9378C64.8509 35.2498 64.7085 35.5832 64.7236 35.949C64.7392 36.1381 64.8148 36.3174 64.9393 36.461C64.999 36.5382 65.0791 36.5972 65.1705 36.6314C65.262 36.6656 65.3613 36.6737 65.4571 36.6546C65.554 36.6298 65.6403 36.5745 65.7032 36.4971C65.7661 36.4196 65.8024 36.324 65.8067 36.2243C65.8022 36.1738 65.7853 36.1252 65.7574 36.0828C65.7296 36.0404 65.6916 36.0055 65.647 35.9812C65.5495 35.9331 65.4386 35.9187 65.332 35.9404C65.2189 35.9597 65.1123 36.0062 65.0213 36.0759C64.9309 36.1491 64.8573 36.2408 64.8056 36.3448C64.6986 36.5655 64.6705 36.816 64.7257 37.0548C64.7776 37.3045 64.9206 37.5261 65.127 37.6765C65.2304 37.7506 65.3537 37.7918 65.4809 37.7949C65.5406 37.802 65.6012 37.7908 65.6544 37.7628C65.7076 37.7347 65.7509 37.6911 65.7786 37.6378C65.7919 37.5781 65.7883 37.5159 65.7681 37.4581C65.7479 37.4003 65.7119 37.3493 65.6643 37.3108C65.6198 37.266 65.5661 37.2315 65.5068 37.2097C65.4452 37.1936 65.3806 37.1936 65.3191 37.2097C65.1832 37.2391 65.057 37.3026 64.9524 37.394C64.8479 37.4855 64.7684 37.6019 64.7214 37.7325C64.6744 37.872 64.6432 38.0163 64.6286 38.1628C64.5994 38.306 64.6084 38.4543 64.6545 38.593C64.6974 38.7285 64.7898 38.843 64.9134 38.9136C64.9761 38.9448 65.0451 38.9611 65.1152 38.9611C65.1852 38.9611 65.2543 38.9448 65.3169 38.9136C65.3814 38.8886 65.4367 38.8444 65.4752 38.7871C65.5138 38.7298 65.5338 38.6621 65.5327 38.593C65.5231 38.5236 65.4944 38.4581 65.4499 38.4038C65.4053 38.3495 65.3466 38.3085 65.2802 38.2854C65.1435 38.2259 64.9892 38.2205 64.8487 38.2703C64.7109 38.3344 64.6002 38.4449 64.5359 38.5823C64.412 38.8794 64.3768 39.2059 64.4345 39.5225C64.4535 39.6829 64.5025 39.8383 64.579 39.9807C64.6142 40.0491 64.6632 40.1095 64.723 40.158C64.7828 40.2065 64.8521 40.2421 64.9264 40.2625C65.0022 40.2788 65.0809 40.277 65.1559 40.2571C65.2309 40.2373 65.3001 40.2001 65.3579 40.1485C65.3849 40.1246 65.4069 40.0956 65.4223 40.063C65.4378 40.0305 65.4465 39.9952 65.4479 39.9592C65.4493 39.9232 65.4434 39.8873 65.4305 39.8537C65.4177 39.82 65.3981 39.7893 65.373 39.7634C65.3169 39.7081 65.2489 39.6663 65.1741 39.6413C65.0992 39.6163 65.0197 39.6088 64.9415 39.6193C64.7793 39.643 64.6317 39.7257 64.5272 39.8516C64.4141 39.9728 64.3449 40.1283 64.3308 40.2933C64.3167 40.4583 64.3586 40.6232 64.4496 40.7617C64.5532 40.8942 64.6966 40.9903 64.8588 41.0359C65.021 41.0816 65.1936 41.0744 65.3514 41.0155C65.4359 40.9809 65.5102 40.9254 65.5672 40.8542C65.5915 40.8208 65.6056 40.7811 65.6079 40.7399C65.6102 40.6987 65.6005 40.6577 65.5801 40.6218C65.5282 40.5443 65.458 40.4808 65.3755 40.4369C65.2931 40.393 65.2011 40.37 65.1076 40.3701C64.9169 40.3553 64.7271 40.4083 64.5719 40.5197C64.4166 40.6312 64.306 40.7939 64.2597 40.979C64.2246 41.1586 64.2499 41.3448 64.3319 41.5086C64.4138 41.6724 64.5477 41.8046 64.7128 41.8847C64.873 41.9755 65.0586 42.0118 65.2414 41.988C65.3237 41.9625 65.3964 41.913 65.4503 41.8459C65.5041 41.7788 65.5366 41.6971 65.5434 41.6115V41.6437C65.5225 41.5843 65.4846 41.5322 65.4344 41.494C65.3842 41.4558 65.3238 41.433 65.2608 41.4286C65.1271 41.428 64.9954 41.4621 64.8789 41.5276C64.6358 41.6544 64.4332 41.8467 64.2942 42.0826C64.1574 42.3185 64.044 42.5671 63.9555 42.8249L63.6621 43.5843C63.2737 44.5826 62.881 45.5206 62.497 46.4242C61.7289 48.2099 60.9867 49.7675 60.3394 51.0497C60.0179 51.6952 59.7202 52.2653 59.4332 52.7536C59.1915 53.1702 58.9226 53.5705 58.6285 53.952C58.3881 54.2787 58.1132 54.5788 57.8086 54.847Z" fill="white"/>
<path d="M68.1871 22.7371C68.1609 22.4636 68.0947 22.1955 67.9908 21.9411C67.6773 21.2568 67.1275 20.7077 66.4417 20.3942C65.9708 20.1821 65.4646 20.0588 64.9486 20.0306C64.3549 20.0002 63.7597 20.045 63.1773 20.164C61.941 20.392 60.6421 20.9234 59.1879 21.1429C58.479 21.2365 57.7609 21.2365 57.052 21.1429C56.3938 21.0441 55.7494 20.8693 55.1317 20.6222C54.083 20.2011 53.1293 19.5749 52.3269 18.7806C51.7868 18.2495 51.33 17.6403 50.972 16.9735C50.9115 16.8718 50.8581 16.7662 50.8123 16.6572L50.7087 16.4184C50.6828 16.3603 50.6634 16.3108 50.6462 16.2721C50.6379 16.2558 50.6321 16.2384 50.6289 16.2205C50.6402 16.235 50.6497 16.2509 50.657 16.2678L50.7282 16.4098L50.8425 16.6421C50.8917 16.7497 50.9479 16.8539 51.0108 16.9541C51.3809 17.6067 51.843 18.203 52.383 18.7247C53.6568 19.9687 55.294 20.7771 57.0584 21.0332C57.7573 21.1257 58.4654 21.1257 59.1642 21.0332C60.599 20.818 61.9 20.2888 63.1514 20.065C63.742 19.9473 64.3452 19.9054 64.9465 19.9403C65.4733 19.9721 65.9893 20.1027 66.4676 20.3254C67.165 20.6512 67.7185 21.2207 68.0232 21.926C68.0989 22.118 68.149 22.3191 68.172 22.5241V22.6833C68.1798 22.7004 68.1849 22.7185 68.1871 22.7371Z" fill="#455A64"/>
<path d="M64.9311 18.1009C64.88 18.1134 64.8281 18.122 64.7757 18.1267C64.6743 18.1418 64.5233 18.1633 64.3313 18.1977C63.9472 18.2601 63.3971 18.3827 62.7196 18.5505C61.9271 18.7636 61.1202 18.9196 60.3053 19.0174C59.3038 19.1197 58.2935 19.0973 57.2976 18.9507C56.3014 18.8066 55.3259 18.5452 54.3914 18.1719C53.6253 17.8695 52.8917 17.4911 52.2015 17.0424C51.9124 16.8466 51.6535 16.6659 51.4334 16.4938C51.2133 16.3217 51.0278 16.1732 50.8854 16.0398L50.5574 15.7322C50.4841 15.6612 50.4452 15.6225 50.4495 15.6182C50.4935 15.6466 50.5346 15.679 50.5725 15.715L50.9134 16.0054C51.0601 16.1345 51.2565 16.2722 51.4722 16.4357C51.688 16.5992 51.9555 16.7778 52.2446 16.9671C53.7827 17.9346 55.5069 18.57 57.3063 18.8324C58.2943 18.9766 59.2962 19.0012 60.2902 18.9055C61.1004 18.8177 61.9035 18.6739 62.6937 18.4752C63.3733 18.3182 63.93 18.2063 64.3183 18.1547C64.5125 18.1289 64.6635 18.1138 64.7671 18.1073C64.8214 18.0996 64.8763 18.0974 64.9311 18.1009Z" fill="#455A64"/>
<path d="M65.2483 32.5152C65.2194 32.5096 65.1912 32.501 65.1642 32.4894C65.089 32.4578 65.0168 32.4197 64.9484 32.3754C64.6876 32.2044 64.471 31.9744 64.3163 31.7041C64.0949 31.2998 63.9625 30.8532 63.9279 30.3939C63.8782 29.8385 63.8782 29.2798 63.9279 28.7244C63.9746 28.1692 64.067 27.6187 64.2041 27.0786C64.3021 26.6324 64.4641 26.2028 64.6852 25.8028C64.8444 25.5315 65.0663 25.3021 65.3325 25.1337C65.4003 25.0891 65.4726 25.0516 65.5482 25.0218C65.6022 25.0025 65.6324 24.9939 65.6324 24.9982C65.6324 25.0025 65.5223 25.0476 65.3476 25.1703C65.1037 25.3483 64.9019 25.5774 64.7564 25.8415C64.5488 26.2397 64.3978 26.6647 64.3076 27.1044C64.1766 27.6403 64.0872 28.1855 64.0401 28.7352C63.9949 29.2836 63.9949 29.8347 64.0401 30.3831C64.0676 30.8331 64.1881 31.2726 64.3939 31.674C64.5363 31.9402 64.7369 32.171 64.9808 32.3495C65.1448 32.4636 65.2548 32.5044 65.2483 32.5152Z" fill="#263238"/>
<path d="M55.5446 31.8503L53.33 32.2836C52.9967 32.3488 52.7796 32.671 52.8449 33.0033L52.8611 33.0856C52.9265 33.4179 53.2497 33.6345 53.5829 33.5693L55.7975 33.136C56.1308 33.0708 56.3479 32.7486 56.2825 32.4163L56.2663 32.334C56.2009 32.0017 55.8778 31.7851 55.5446 31.8503Z" fill="#455A64"/>
<path d="M55.9688 32.1776L66.2064 28.9763C66.328 28.9384 66.4597 28.9499 66.5728 29.0083C66.6859 29.0667 66.7714 29.1673 66.8105 29.2882C66.8302 29.3504 66.8372 29.4158 66.831 29.4807C66.8247 29.5456 66.8054 29.6086 66.7742 29.6658C66.743 29.7231 66.7005 29.7735 66.6492 29.8139C66.598 29.8544 66.5391 29.8842 66.4761 29.9014L56.0076 32.7197L55.9688 32.1776Z" fill="#455A64"/>
<path d="M63.534 30.7705C63.6436 30.7223 63.7569 30.6827 63.8727 30.6521L64.8091 30.3682C65.2018 30.2477 65.685 30.1186 66.1942 29.9529C66.32 29.9062 66.4341 29.8328 66.5287 29.7378C66.6219 29.6431 66.6738 29.5155 66.6732 29.3828C66.6727 29.3176 66.6516 29.2542 66.6128 29.2017C66.5741 29.1491 66.5197 29.1101 66.4575 29.0902C66.3152 29.0541 66.1657 29.0586 66.0259 29.1031L62.9557 30.0885L62.0215 30.3768C61.9145 30.4207 61.8041 30.456 61.6914 30.4822C61.7993 30.4298 61.9111 30.386 62.0258 30.3509L62.9493 30.0282C63.7325 29.7636 64.8069 29.3957 66.0152 29.0106C66.1758 28.9642 66.3464 28.9642 66.5071 29.0106C66.5891 29.0402 66.6602 29.0938 66.7111 29.1645C66.7619 29.2351 66.7901 29.3195 66.7919 29.4065C66.7921 29.5675 66.7285 29.7222 66.615 29.8368C66.5014 29.9362 66.3673 30.0096 66.2223 30.0519C65.6937 30.2176 65.2212 30.3337 64.822 30.4456L63.8856 30.6973C63.771 30.7326 63.6532 30.7571 63.534 30.7705Z" fill="#263238"/>
<path d="M46.8047 22.9524C47.1542 24.1787 45.905 25.2307 45.4649 26.4291C45.0334 27.5865 45.4001 28.8838 45.9244 30.0026C46.4487 31.1213 47.1391 32.1798 47.4067 33.3824C48.069 36.3514 45.3764 39.5505 45.8964 42.5475C46.0819 43.6404 46.5242 44.7806 46.9061 45.8198C47.2751 46.7997 47.2751 47.8798 46.9061 48.8597C46.3236 50.5808 45.3354 51.3876 44.6407 53.0614C44.2847 53.922 44.3127 54.8772 44.33 55.8023C44.3473 56.7274 44.3429 57.6956 43.9287 58.526C43.5144 59.3564 42.5694 59.9976 41.6719 59.7566C42.1562 60.2977 42.806 60.6646 43.5205 60.8003C44.2351 60.936 44.9746 60.8331 45.6245 60.5075C46.8047 59.8792 47.4649 58.6056 48.0302 57.3965C50.766 51.5425 52.2137 51.0477 52.1296 44.5892C52.1296 44.1739 52.0476 37.7046 52.0476 37.7046C51.4806 37.5529 50.9369 37.3249 50.4316 37.0269C47.3765 34.9229 47.2643 31.1751 47.288 28.2685" fill="#263238"/>
<path d="M52.9112 42.5471V44.9847C52.9112 44.9847 51.0319 54.5477 50.4666 59.8595C49.9014 65.1714 49.8086 66.5741 49.8086 66.5741C49.8086 66.5741 51.1571 68.6717 53.977 65.109C56.7969 61.5463 57.2996 60.9847 58.428 60.9223C58.428 60.9223 57.0494 45.9851 57.1119 45.4322C57.1818 45.0401 57.3545 44.6734 57.6125 44.3694L52.9112 42.5471Z" fill="#FFBE9D"/>
<path d="M56.6082 37.0483C56.6082 37.0483 53.538 41.1102 53.2877 41.6695C53.0375 42.2289 52.9102 42.543 52.9102 42.543L57.6115 44.3566L62.1877 39.3568L63.8792 34.9184L63.3765 29.6689C63.3765 29.6689 62.3754 29.6065 62.1877 30.4822C62.0726 31.0366 62.0298 31.6035 62.0604 32.1689L60.658 31.0437L58.3947 30.3574C58.3947 30.3574 57.8618 31.2309 58.7399 31.6698C59.618 32.1086 59.8683 32.1 59.8683 32.1L60.658 33.4748L60.3127 35.0152L58.7118 33.5092C58.5568 33.3632 58.3554 33.276 58.1426 33.2626C57.9297 33.2492 57.7189 33.3106 57.5468 33.4361L56.5111 34.1848L55.5424 33.7545L53.6631 35.4304L52.9102 36.1167C52.9102 36.1167 53.4129 37.0547 54.4204 36.618L55.4237 36.1877L56.6082 37.0483Z" fill="#FFBE9D"/>
<path d="M52.9124 43.3711C52.9095 43.3274 52.9095 43.2835 52.9124 43.2398C52.9124 43.1538 52.9232 43.0247 52.9426 42.859C52.9678 42.6521 53.0074 42.4473 53.0613 42.2459C53.1284 41.9678 53.239 41.7021 53.3892 41.4585C54.0926 40.3828 55.1994 38.8768 56.5802 37.0244V37.0803L55.3893 36.2069H55.4303L54.811 36.4801C54.5984 36.5835 54.3776 36.6691 54.1508 36.7361C53.904 36.7951 53.6443 36.7653 53.4173 36.6522C53.1864 36.5338 52.9946 36.3515 52.8649 36.1273L52.8477 36.0971L52.8757 36.0713C53.6826 35.314 54.5823 34.5503 55.5058 33.7327L55.5338 33.7091L55.564 33.7263L56.399 34.219H56.3451L57.3203 33.5735C57.4907 33.4638 57.6439 33.3584 57.8273 33.2465C57.9272 33.1971 58.0388 33.1759 58.1499 33.1854C58.261 33.1949 58.3673 33.2346 58.4573 33.3003L60.3581 34.9031L60.2697 34.9332C60.3732 34.4707 60.4854 33.9694 60.5976 33.4638V33.5025L59.8079 32.1278L59.8576 32.1558C59.7234 32.1375 59.5921 32.1021 59.467 32.0503C59.3441 32.0052 59.2211 31.9535 59.0981 31.8997C58.9751 31.846 58.8543 31.7857 58.7335 31.7276C58.6709 31.6975 58.6105 31.6566 58.5501 31.6222C58.491 31.5802 58.4361 31.5326 58.3861 31.4802C58.3136 31.4036 58.2572 31.3133 58.2202 31.2147C58.1831 31.116 58.1662 31.011 58.1704 30.9058C58.1773 30.7002 58.2343 30.4993 58.3365 30.3206L58.3581 30.284L58.4012 30.2969L60.6623 30.9854H60.6731L62.0755 32.1106L61.9871 32.1579C61.9569 31.6008 61.9967 31.0421 62.1057 30.4949C62.1287 30.3538 62.1813 30.2191 62.2601 30.0997C62.3389 29.9803 62.4422 29.8789 62.5631 29.8021C62.8044 29.6601 63.0816 29.5907 63.3614 29.602H63.4197V29.6494C63.5966 31.5146 63.7627 33.2745 63.9159 34.8988V34.9096C63.2902 36.5446 62.7207 38.0291 62.2158 39.3436L58.6731 43.242L57.7108 44.2811C57.6008 44.3951 57.5166 44.4855 57.4584 44.5479L57.3699 44.6361C57.3699 44.6361 57.3958 44.6017 57.4497 44.5393L57.6935 44.2661L58.6429 43.214L62.1683 39.3415V39.3522L63.8512 34.9117V34.9332C63.6937 33.3089 63.5254 31.5512 63.3442 29.6838L63.3938 29.7333C63.1365 29.7228 62.8816 29.787 62.6602 29.9183C62.5515 29.9872 62.4589 30.0786 62.3885 30.1862C62.3182 30.2938 62.2718 30.4152 62.2525 30.5422C62.1443 31.0794 62.1051 31.6281 62.1359 32.1751V32.2999L62.0389 32.2225L60.6149 31.0908H60.6343L58.3732 30.4045L58.4357 30.3787C58.3448 30.5409 58.2937 30.7223 58.2869 30.9079C58.2829 30.9989 58.2973 31.0898 58.3292 31.1751C58.3611 31.2605 58.4098 31.3386 58.4724 31.4049C58.5171 31.4504 58.5654 31.4921 58.617 31.5297C58.6752 31.562 58.727 31.5964 58.7874 31.6265C58.9082 31.6846 59.0269 31.7448 59.1477 31.7965C59.375 31.9071 59.6148 31.9901 59.8619 32.0439H59.8964L59.9094 32.0654L60.699 33.4402L60.7098 33.4595V33.481C60.5955 33.9866 60.494 34.4879 60.3797 34.9504L60.3603 35.0408L60.2891 34.9806L58.3947 33.3821C58.3212 33.3274 58.2339 33.2941 58.1425 33.2857C58.0511 33.2774 57.9592 33.2943 57.8769 33.3347C57.7173 33.4294 57.5447 33.5499 57.3807 33.6553L56.4033 34.3007L56.3774 34.3179L56.3494 34.3029L55.5144 33.808H55.5748C54.6514 34.6213 53.7495 35.385 52.9404 36.138L52.9512 36.0821C53.0704 36.2897 53.2472 36.4585 53.4604 36.5683C53.6682 36.6737 53.9071 36.7012 54.1336 36.6458C54.3557 36.5809 54.5721 36.4982 54.7808 36.3983L55.4 36.1273H55.4238L55.4432 36.1402L56.632 37.018L56.6644 37.0416L56.6406 37.0739C55.2533 38.9263 54.1357 40.4193 53.4237 41.4843C53.2738 41.7235 53.1611 41.9839 53.0893 42.2566C53.0343 42.456 52.9918 42.6587 52.962 42.8633C52.9383 43.029 52.9275 43.1581 52.921 43.242C52.9145 43.3259 52.9124 43.3711 52.9124 43.3711Z" fill="#EB996E"/>
<path d="M58.7278 37.9886C58.7062 37.9886 58.7882 37.6573 58.8227 37.1281C58.8454 36.8196 58.7952 36.51 58.676 36.2245C58.496 35.89 58.2395 35.6026 57.9273 35.3854C57.3698 34.9592 56.7885 34.5649 56.1862 34.2043L55.636 33.8816C55.5653 33.8468 55.4987 33.8042 55.4375 33.7546C55.5135 33.773 55.5862 33.8028 55.6533 33.8428C55.7913 33.9052 55.9877 34.0042 56.225 34.1354C56.8425 34.4789 57.4338 34.8672 57.9942 35.2972C58.3206 35.5242 58.5859 35.8279 58.7666 36.1814C58.8906 36.4822 58.9366 36.8092 58.9004 37.1324C58.882 37.3457 58.8466 37.5572 58.7947 37.7649C58.783 37.8422 58.7604 37.9175 58.7278 37.9886Z" fill="#EB996E"/>
<path d="M62.0167 36.0391C62.0305 35.8496 62.0572 35.6613 62.0966 35.4754C62.1638 35.0268 62.1963 34.5736 62.1937 34.12C62.1878 33.6651 62.1475 33.2113 62.0728 32.7625C62.0313 32.5781 62.0017 32.3913 61.9844 32.2031C62.0637 32.3764 62.1195 32.5595 62.1505 32.7474C62.3496 33.6502 62.3577 34.5844 62.1742 35.4905C62.1464 35.6795 62.0934 35.864 62.0167 36.0391Z" fill="#EB996E"/>
<path d="M55.7734 78.1123C56.2797 77.3441 56.9626 76.7075 57.7653 76.2555C58.568 75.8034 59.4673 75.549 60.3885 75.5134C63.5407 75.4058 65.1157 78.1123 65.1157 78.1123H55.7734Z" fill="#455A64"/>
<path d="M61.8158 78.0282C61.7741 77.8742 61.7431 77.7175 61.723 77.5592C61.5535 76.8129 61.1073 76.1581 60.4738 75.7262C60.3342 75.6483 60.1995 75.5621 60.0703 75.468C60.2332 75.4929 60.3886 75.5531 60.5256 75.6444C60.8694 75.8446 61.1641 76.1189 61.3881 76.4472C61.6121 76.7755 61.7597 77.1495 61.8201 77.542C61.8539 77.7025 61.8525 77.8683 61.8158 78.0282Z" fill="#263238"/>
<path d="M53.8221 77.9984V77.9769C53.817 77.6604 53.6872 77.3586 53.4607 77.1368C53.2341 76.9149 52.9292 76.7909 52.6117 76.7915H25.7846C25.4636 76.7915 25.1557 76.9187 24.9287 77.145C24.7017 77.3714 24.5742 77.6783 24.5742 77.9984H53.8221Z" fill="#455A64"/>
<path d="M2.46484 31.1277C2.46484 31.6913 2.89636 65.2878 2.89636 65.2878L27.924 71.2924H29.9802L28.6641 24.3916H26.7827L2.46484 31.1277Z" fill="#263238"/>
<path d="M7.75643 63.8914L0 78.0649H7.08974C5.8211 77.9401 18.3091 78.0649 18.3091 78.0649L7.08974 75.0981L10.6001 67.1486L10.3002 63.8914H7.75643Z" fill="#263238"/>
<path d="M7.92913 66.5076L7.08984 40.0883L14.7103 39.3611L15.6489 67.5683L12.9282 67.7059L7.92913 66.5076Z" fill="#263238"/>
<path d="M16.7142 68.6136C16.7142 68.6136 16.7142 68.5727 16.7142 68.4909C16.7142 68.4092 16.7142 68.2865 16.7142 68.1295C16.7142 67.8068 16.7142 67.3356 16.7142 66.7268C16.7142 65.4983 16.7034 63.7148 16.6969 61.4709C16.6969 56.9809 16.6862 50.6622 16.6775 43.3345L16.7315 43.3883H7.72366L7.77975 43.3323V44.55C7.77975 51.697 7.77975 58.347 7.76896 63.8891V63.8998C5.43448 68.1661 3.49915 71.7073 2.1442 74.1814C1.46673 75.4163 0.933815 76.3845 0.569187 77.0471C0.387952 77.3741 0.247711 77.6237 0.152778 77.7979C0.0578458 77.9722 0.00390625 78.0518 0.00390625 78.0518C0.00390625 78.0518 0.0492144 77.9615 0.139832 77.7915C0.230449 77.6215 0.368534 77.3612 0.543296 77.032C0.903609 76.3673 1.42789 75.3948 2.09674 74.1556L7.68482 63.8546V63.8783C7.68482 58.3363 7.68482 51.6863 7.68482 44.5393V43.2656H16.7854V43.3194C16.7854 50.6471 16.7703 56.9658 16.766 61.4558C16.766 63.6976 16.753 65.4833 16.7487 66.7117C16.7487 67.3206 16.7487 67.7874 16.7487 68.1144C16.7487 68.2715 16.7487 68.392 16.7487 68.4759C16.7487 68.5598 16.7142 68.6136 16.7142 68.6136Z" fill="#455A64"/>
<path d="M10.5999 67.1485C10.6279 67.1592 9.54913 69.6484 8.18987 72.7034C6.83061 75.7584 5.70436 78.2283 5.67632 78.2154C5.64827 78.2024 6.72705 75.7154 8.08631 72.6583C9.44557 69.6011 10.5718 67.1356 10.5999 67.1485Z" fill="#455A64"/>
<path d="M27.9121 71.301C27.9121 71.301 27.9121 71.2601 27.9121 71.1805C27.9121 71.1009 27.9121 70.9783 27.9121 70.8255C27.9121 70.5093 27.9013 70.051 27.8948 69.4615C27.8948 68.2782 27.8581 66.5657 27.8171 64.4487C27.7373 60.2148 27.5453 54.3694 27.3101 47.913C27.0749 41.4566 26.8958 35.6047 26.8354 31.3708C26.8031 29.2538 26.788 27.5391 26.7944 26.3558C26.7944 25.7663 26.7944 25.3081 26.7944 24.9918C26.7944 24.8391 26.7944 24.7229 26.7944 24.6368C26.7944 24.5508 26.7944 24.5164 26.7944 24.5164C26.7944 24.5164 26.7944 24.5572 26.7944 24.6368C26.7944 24.7164 26.7944 24.8391 26.7944 24.9918C26.7944 25.3081 26.7944 25.7663 26.8117 26.3558C26.8117 27.5391 26.8462 29.2516 26.8894 31.3686C26.9821 35.6026 27.1742 41.4544 27.4093 47.9087C27.6445 54.3629 27.8236 60.2126 27.884 64.4466C27.9164 66.5636 27.9293 68.2782 27.925 69.4615C27.925 70.051 27.925 70.5093 27.925 70.8255C27.925 70.9783 27.925 71.0966 27.925 71.1805C27.925 71.2644 27.9121 71.301 27.9121 71.301Z" fill="#455A64"/>
<path d="M15.3491 43.1389C15.3814 43.1389 15.4052 48.7584 15.4052 55.6881C15.4052 62.6178 15.3814 68.2373 15.3491 68.2373C15.3167 68.2373 15.293 62.62 15.293 55.6881C15.293 48.7563 15.3189 43.1389 15.3491 43.1389Z" fill="#455A64"/>
<path d="M1.86649 75.8532C1.82567 75.8067 1.78954 75.7562 1.75861 75.7026C1.72193 75.651 1.68094 75.5886 1.63347 75.5176C1.57638 75.4333 1.5245 75.3457 1.47813 75.2551C1.16178 74.6859 0.931317 74.0734 0.794182 73.4372C0.595162 72.4917 0.549994 71.5205 0.660412 70.5607C0.795431 69.3857 1.11126 68.2384 1.59679 67.1594C1.85367 66.6022 2.18223 66.0807 2.57417 65.6082C2.66342 65.491 2.75923 65.379 2.86112 65.2726C2.96037 65.165 3.0553 65.0574 3.15455 64.9542C3.37031 64.7584 3.55801 64.5583 3.77161 64.3883C4.16523 64.0544 4.58434 63.7516 5.02515 63.4826C5.24091 63.3664 5.43725 63.2438 5.64006 63.147C5.84287 63.0501 6.03489 62.9469 6.22907 62.878C6.82872 62.6219 7.46244 62.4537 8.11047 62.3789C8.28562 62.3551 8.46231 62.3443 8.63907 62.3466C8.70081 62.3415 8.76287 62.3415 8.82462 62.3466C8.76396 62.357 8.70271 62.3635 8.64123 62.366C8.46559 62.374 8.29054 62.392 8.11694 62.4198C7.47635 62.5106 6.8513 62.6887 6.25928 62.949C6.06726 63.02 5.88171 63.1276 5.6789 63.2201C5.47609 63.3126 5.2819 63.4353 5.07262 63.56C4.63852 63.8299 4.22593 64.1327 3.8385 64.4658C3.62274 64.6336 3.43503 64.8337 3.23006 65.0273C3.13297 65.1284 3.03804 65.2424 2.94095 65.3414C2.8417 65.4476 2.74808 65.5589 2.66047 65.6749C2.27476 66.1411 1.9513 66.6553 1.6982 67.2045C1.21736 68.2724 0.902346 69.407 0.763974 70.5693C0.649441 71.5186 0.685848 72.4799 0.871852 73.4178C1.00223 74.0494 1.22008 74.6598 1.51912 75.2314C1.56204 75.3235 1.61105 75.4126 1.66583 75.4982L1.78019 75.6897C1.81257 75.7422 1.8414 75.7969 1.86649 75.8532Z" fill="#455A64"/>
</svg>
