<svg width="56" height="56" viewBox="0 0 56 56" fill="none" xmlns="http://www.w3.org/2000/svg">
<g clip-path="url(#clip0_4622_32431)">
<rect y="0.937256" width="56" height="54.7826" rx="27.3913" fill="#C9F2E9"/>
<ellipse cx="28" cy="28.3286" rx="28" ry="27.3913" fill="#C9F2E9"/>
<path fill-rule="evenodd" clip-rule="evenodd" d="M28.0011 14.5085C22.0966 14.5085 17.3102 19.295 17.3102 25.1995V26.1193C16.2267 26.3011 15.4011 27.2434 15.4011 28.3785V30.8935C15.4011 32.0573 16.2688 33.0184 17.3925 33.1651C17.8515 36.8539 20.1898 39.9594 23.4193 41.4936V44.9626C15.3513 45.2869 8.91016 51.9301 8.91016 60.0776H47.092C47.092 51.9301 40.6508 45.287 32.5829 44.9626V41.4936C35.8123 39.9594 38.1506 36.8539 38.6096 33.1651C39.7333 33.0184 40.6011 32.0573 40.6011 30.8935V28.3785C40.6011 27.2434 39.7755 26.3011 38.692 26.1193V25.1995C38.692 19.295 33.9055 14.5085 28.0011 14.5085Z" fill="#D0C6AC"/>
<mask id="mask0_4622_32431" style="mask-type:luminance" maskUnits="userSpaceOnUse" x="8" y="14" width="40" height="47">
<path fill-rule="evenodd" clip-rule="evenodd" d="M28.0011 14.5085C22.0966 14.5085 17.3102 19.295 17.3102 25.1995V26.1193C16.2267 26.3011 15.4011 27.2434 15.4011 28.3785V30.8935C15.4011 32.0573 16.2688 33.0184 17.3925 33.1651C17.8515 36.8539 20.1898 39.9594 23.4193 41.4936V44.9626C15.3513 45.2869 8.91016 51.9301 8.91016 60.0776H47.092C47.092 51.9301 40.6508 45.287 32.5829 44.9626V41.4936C35.8123 39.9594 38.1506 36.8539 38.6096 33.1651C39.7333 33.0184 40.6011 32.0573 40.6011 30.8935V28.3785C40.6011 27.2434 39.7755 26.3011 38.692 26.1193V25.1995C38.692 19.295 33.9055 14.5085 28.0011 14.5085Z" fill="white"/>
</mask>
<g mask="url(#mask0_4622_32431)">
<rect x="2.80078" y="14.5085" width="50.4" height="45.5692" fill="#FFCCD7"/>
<path fill-rule="evenodd" clip-rule="evenodd" d="M17.3086 31.8315V33.3258C17.3086 39.2302 22.0951 44.0167 27.9995 44.0167C33.9039 44.0167 38.6904 39.2302 38.6904 33.3258V31.8315C38.6904 37.736 33.9039 42.5225 27.9995 42.5225C22.0951 42.5225 17.3086 37.736 17.3086 31.8315Z" fill="black" fill-opacity="0.1"/>
</g>
<path fill-rule="evenodd" clip-rule="evenodd" d="M28.0011 50.1891C30.8479 50.1891 33.1556 48.0987 33.1556 45.5201C33.1556 45.3453 33.145 45.1727 33.1244 45.0029C40.9364 45.5906 47.092 52.1153 47.092 60.0776H8.91016C8.91016 52.1153 15.0658 45.5906 22.8778 45.0029C22.8571 45.1727 22.8465 45.3453 22.8465 45.5201C22.8465 48.0987 25.1543 50.1891 28.0011 50.1891Z" fill="#909292"/>
<mask id="mask1_4622_32431" style="mask-type:luminance" maskUnits="userSpaceOnUse" x="8" y="45" width="40" height="16">
<path fill-rule="evenodd" clip-rule="evenodd" d="M28.0011 50.1891C30.8479 50.1891 33.1556 48.0987 33.1556 45.5201C33.1556 45.3453 33.145 45.1727 33.1244 45.0029C40.9364 45.5906 47.092 52.1153 47.092 60.0776H8.91016C8.91016 52.1153 15.0658 45.5906 22.8778 45.0029C22.8571 45.1727 22.8465 45.3453 22.8465 45.5201C22.8465 48.0987 25.1543 50.1891 28.0011 50.1891Z" fill="white"/>
</mask>
<g mask="url(#mask1_4622_32431)">
<rect x="2.80078" y="39.5342" width="50.4" height="20.5435" fill="#909292"/>
</g>
<path fill-rule="evenodd" clip-rule="evenodd" d="M34.0411 60.0778C34.6904 57.8218 35.0647 55.1677 35.0647 52.3274C35.0647 49.7124 34.7474 47.2552 34.1904 45.1213C41.4891 46.1935 47.092 52.4813 47.092 60.0778H34.0411ZM22.1519 60.0778H8.91016C8.91016 52.4127 14.6147 46.08 22.0099 45.0935C21.4484 47.2339 21.1283 49.701 21.1283 52.3274C21.1283 55.1677 21.5027 57.8218 22.1519 60.0778Z" fill="#0C1626"/>
<path fill-rule="evenodd" clip-rule="evenodd" d="M37.3555 55.5954L37.9057 55.1917C38.938 54.4343 40.3456 54.4466 41.3646 55.2219L37.3555 55.5954Z" fill="#E6E6E6"/>
<path fill-rule="evenodd" clip-rule="evenodd" d="M22.0813 44.7634C20.9359 50.1794 23.0359 60.0777 23.0359 60.0777H19.9813L17.3086 53.3543L18.454 51.6735L17.3086 50.553L20.9359 44.9502C20.9359 44.9502 21.5165 44.7735 22.0813 44.7634Z" fill="#0C092A"/>
<path fill-rule="evenodd" clip-rule="evenodd" d="M33.9187 44.7634C35.0641 50.1794 32.9641 60.0777 32.9641 60.0777H36.0187L38.6914 53.3543L37.546 51.6735L38.6914 50.553L35.0641 44.9502C35.0641 44.9502 34.4835 44.7735 33.9187 44.7634Z" fill="#0C092A"/>
<path fill-rule="evenodd" clip-rule="evenodd" d="M23.4203 43.5566C22.1274 44.4152 21.3203 45.6329 21.3203 46.9835C21.3203 48.3656 22.1656 49.6087 23.5119 50.47L24.6461 49.5959L25.5203 49.6578L25.3294 49.0693L25.3442 49.0579C24.1797 48.471 23.4203 47.5087 23.4203 46.4211C23.4203 46.4211 23.4203 46.4211 23.4203 46.4211V43.5566ZM32.5839 46.4211C32.5839 46.4211 32.5839 46.4211 32.5839 46.4211C32.5839 47.5087 31.8246 48.471 30.66 49.0579L30.6749 49.0693L30.4839 49.6578L31.3582 49.5959L32.4924 50.47C33.8386 49.6087 34.6839 48.3656 34.6839 46.9835C34.6839 45.6329 33.8768 44.4152 32.5839 43.5566V46.4211Z" fill="#0C092A"/>
<path d="M25.3281 35.7991C25.3281 36.8023 26.5038 37.4799 28.0009 37.4799C29.4979 37.4799 30.6736 36.8023 30.6736 35.7991C30.6736 35.5928 30.4923 35.4255 30.2918 35.4255C30.045 35.4255 29.9348 35.5946 29.9099 35.7991C29.6728 36.3477 29.0858 36.6799 28.0009 36.7328C26.9159 36.6799 26.329 36.3477 26.0918 35.7991C26.0669 35.5946 25.9567 35.4255 25.7099 35.4255C25.5094 35.4255 25.3281 35.5928 25.3281 35.7991Z" fill="#0C092A"/>
<path fill-rule="evenodd" clip-rule="evenodd" d="M25.707 32.064C25.707 32.8891 26.7327 33.558 27.9979 33.558C29.2632 33.558 30.2888 32.8891 30.2888 32.064" fill="black" fill-opacity="0.16"/>
<ellipse cx="23.0361" cy="28.7021" rx="1.14545" ry="1.12055" fill="#0C092A"/>
<ellipse cx="32.9619" cy="28.7021" rx="1.14545" ry="1.12055" fill="#0C092A"/>
<path d="M20.2907 26.3037C21.0381 25.2749 23.0871 24.698 24.8521 25.122C25.0569 25.1712 25.2637 25.0487 25.3139 24.8484C25.3642 24.648 25.239 24.4457 25.0342 24.3965C22.9845 23.9041 20.6118 24.5722 19.6683 25.871C19.5461 26.0391 19.5864 26.2723 19.7583 26.3918C19.9302 26.5113 20.1686 26.4719 20.2907 26.3037Z" fill="#0C092A"/>
<path d="M35.7054 26.3037C34.958 25.2749 32.909 24.698 31.144 25.122C30.9392 25.1712 30.7324 25.0487 30.6822 24.8484C30.6319 24.648 30.7571 24.4457 30.9619 24.3965C33.0116 23.9041 35.3843 24.5722 36.3278 25.871C36.45 26.0391 36.4097 26.2723 36.2378 26.3918C36.0659 26.5113 35.8275 26.4719 35.7054 26.3037Z" fill="#0C092A"/>
<mask id="mask2_4622_32431" style="mask-type:luminance" maskUnits="userSpaceOnUse" x="2" y="7" width="52" height="54">
<rect x="2.80078" y="7.78516" width="50.4" height="52.2925" fill="white"/>
</mask>
<g mask="url(#mask2_4622_32431)">
<path fill-rule="evenodd" clip-rule="evenodd" d="M28.0983 38.7576C25.9007 38.8282 24.9204 39.8558 24.1821 38.8114C23.628 38.0276 23.8598 36.7093 24.3776 35.9677C25.1143 34.9122 26.1137 35.4227 27.2312 35.3023C27.535 35.2696 27.8403 35.1871 28.0983 35.0521C28.3564 35.1871 28.6615 35.2696 28.9654 35.3023C30.0829 35.4227 31.0823 34.9122 31.819 35.9677C32.3367 36.7093 32.5686 38.0276 32.0145 38.8114C31.2762 39.8558 30.2959 38.6869 28.0983 38.7576ZM38.7675 26.0876C38.1137 28.7162 37.8133 31.3979 37.3393 34.0569C37.2405 34.6111 37.1323 35.1634 37.0175 35.715C36.9934 35.8308 36.9696 36.2609 36.853 36.3154C36.4996 36.4805 35.7794 35.6024 35.5868 35.4041C35.1031 34.9063 34.6236 34.4039 34.0345 34.0132C32.8443 33.2238 31.4508 32.757 30.0008 32.6462C29.3941 32.5998 28.5737 32.6807 28.0019 33.0183C27.4302 32.6807 26.6098 32.5998 26.0031 32.6462C24.553 32.757 23.1595 33.2238 21.9693 34.0132C21.3802 34.4039 20.9007 34.9063 20.417 35.4041C20.2244 35.6024 19.5042 36.4805 19.1508 36.3154C19.0342 36.2609 19.0104 35.8308 18.9863 35.715C18.8715 35.1634 18.7633 34.6111 18.6645 34.0569C18.1906 31.3979 17.8902 28.7162 17.2364 26.0876C17.0462 26.0876 16.8793 29.589 16.858 29.9152C16.7716 31.2401 16.6708 32.5356 16.7997 33.8617C17.0219 36.1493 17.2536 39.0177 19.0354 40.7646C20.6454 42.3431 22.983 42.673 24.9992 43.6694C25.2588 43.7977 25.6031 43.9561 25.9744 44.0858C26.3656 44.3777 27.1414 44.5768 28.0351 44.5768C28.9726 44.5768 29.7803 44.3578 30.1504 44.0423C30.4751 43.9218 30.7736 43.7836 31.0046 43.6694C33.0207 42.6728 35.3584 42.3431 36.9684 40.7646C38.7502 39.0177 38.9819 36.1493 39.2042 33.8617C39.333 32.5356 39.2322 31.2401 39.1458 29.9152C39.1245 29.589 38.9576 26.0876 38.7675 26.0876Z" fill="#0C092A"/>
<mask id="mask3_4622_32431" style="mask-type:luminance" maskUnits="userSpaceOnUse" x="16" y="26" width="24" height="19">
<path fill-rule="evenodd" clip-rule="evenodd" d="M28.0983 38.7576C25.9007 38.8282 24.9204 39.8558 24.1821 38.8114C23.628 38.0276 23.8598 36.7093 24.3776 35.9677C25.1143 34.9122 26.1137 35.4227 27.2312 35.3023C27.535 35.2696 27.8403 35.1871 28.0983 35.0521C28.3564 35.1871 28.6615 35.2696 28.9654 35.3023C30.0829 35.4227 31.0823 34.9122 31.819 35.9677C32.3367 36.7093 32.5686 38.0276 32.0145 38.8114C31.2762 39.8558 30.2959 38.6869 28.0983 38.7576ZM38.7675 26.0876C38.1137 28.7162 37.8133 31.3979 37.3393 34.0569C37.2405 34.6111 37.1323 35.1634 37.0175 35.715C36.9934 35.8308 36.9696 36.2609 36.853 36.3154C36.4996 36.4805 35.7794 35.6024 35.5868 35.4041C35.1031 34.9063 34.6236 34.4039 34.0345 34.0132C32.8443 33.2238 31.4508 32.757 30.0008 32.6462C29.3941 32.5998 28.5737 32.6807 28.0019 33.0183C27.4302 32.6807 26.6098 32.5998 26.0031 32.6462C24.553 32.757 23.1595 33.2238 21.9693 34.0132C21.3802 34.4039 20.9007 34.9063 20.417 35.4041C20.2244 35.6024 19.5042 36.4805 19.1508 36.3154C19.0342 36.2609 19.0104 35.8308 18.9863 35.715C18.8715 35.1634 18.7633 34.6111 18.6645 34.0569C18.1906 31.3979 17.8902 28.7162 17.2364 26.0876C17.0462 26.0876 16.8793 29.589 16.858 29.9152C16.7716 31.2401 16.6708 32.5356 16.7997 33.8617C17.0219 36.1493 17.2536 39.0177 19.0354 40.7646C20.6454 42.3431 22.983 42.673 24.9992 43.6694C25.2588 43.7977 25.6031 43.9561 25.9744 44.0858C26.3656 44.3777 27.1414 44.5768 28.0351 44.5768C28.9726 44.5768 29.7803 44.3578 30.1504 44.0423C30.4751 43.9218 30.7736 43.7836 31.0046 43.6694C33.0207 42.6728 35.3584 42.3431 36.9684 40.7646C38.7502 39.0177 38.9819 36.1493 39.2042 33.8617C39.333 32.5356 39.2322 31.2401 39.1458 29.9152C39.1245 29.589 38.9576 26.0876 38.7675 26.0876Z" fill="white"/>
</mask>
<g mask="url(#mask3_4622_32431)">
<rect x="11.9648" y="21.2319" width="32.0727" height="28.3874" fill="#0C092A"/>
</g>
<path fill-rule="evenodd" clip-rule="evenodd" d="M20.6043 17.5005C20.6278 17.4903 20.5695 17.4864 20.4295 17.4888C20.5997 17.4885 20.6579 17.4923 20.6043 17.5005ZM19.0512 14.5646C19.0508 14.5609 19.0544 14.5928 19.0512 14.5646V14.5646ZM39.602 21.0011C39.5516 20.3816 39.4623 19.7659 39.3121 19.1607C39.1929 18.6796 39.03 18.2206 38.8374 17.7617C38.7211 17.4844 38.4494 17.1035 38.4175 16.8044C38.386 16.5098 38.621 16.1834 38.6712 15.8403C38.7199 15.5065 38.7116 15.1555 38.6416 14.8247C38.4825 14.0734 37.9555 13.3747 37.1416 13.1789C36.9599 13.1351 36.5758 13.189 36.4474 13.0855C36.3002 12.9668 36.1977 12.5624 36.0644 12.4002C35.6844 11.9378 35.0918 11.64 34.4667 11.7438C34.0064 11.8202 34.2708 11.9134 33.9257 11.6484C33.7339 11.501 33.5905 11.2761 33.4042 11.1166C33.124 10.877 32.8027 10.6719 32.4702 10.5036C31.6003 10.0632 30.6081 9.74314 29.6364 9.58711C27.8638 9.30245 25.9719 9.55062 24.2536 10.0016C23.3986 10.226 22.5379 10.5108 21.7438 10.8874C21.4033 11.0489 21.2068 11.1828 20.8518 11.2251C20.2927 11.2917 19.8191 11.2884 19.2895 11.5203C17.6598 12.2341 16.9258 13.8901 17.56 15.4748C17.6875 15.7935 17.8602 16.0734 18.0983 16.3308C18.3887 16.6447 18.4937 16.5829 18.2436 16.9439C17.8697 17.4836 17.5544 18.0591 17.2978 18.6568C16.6241 20.2259 16.5113 21.9931 16.5552 23.6665C16.5706 24.2523 16.5962 24.8453 16.6907 25.4255C16.7315 25.6767 16.7429 26.1489 16.9354 26.3352C17.0331 26.4297 17.1723 26.4824 17.3112 26.4448C17.6376 26.3563 17.5253 26.1207 17.5329 25.902C17.5711 24.8032 17.5196 23.8312 17.7867 22.7456C17.984 21.9435 18.3129 21.2151 18.739 20.4979C19.281 19.5858 19.866 18.7847 20.6112 18.0036C20.7865 17.8199 20.8247 17.7421 21.0597 17.7287C21.2376 17.7187 21.4979 17.8379 21.6708 17.8792C22.0522 17.9701 22.4344 18.06 22.8227 18.1212C23.5367 18.2338 24.2437 18.2414 24.9641 18.2193C26.3818 18.1759 27.8057 18.0786 29.1803 17.7294C30.0932 17.4975 30.9026 17.0811 31.777 16.776C31.7926 16.7705 32.0118 16.6178 32.0502 16.624C32.1038 16.6327 32.4276 16.965 32.4823 17.0069C32.9071 17.3328 33.3732 17.4697 33.8321 17.7221C34.3978 18.0333 33.8499 17.588 34.162 17.9758C34.2529 18.0888 34.2995 18.2982 34.3724 18.4262C34.6046 18.8339 34.9275 19.1921 35.3138 19.4764C35.687 19.7511 36.248 19.8838 36.4383 20.2413C36.585 20.5171 36.6345 20.892 36.7529 21.1864C37.0636 21.9587 37.4739 22.6789 37.8842 23.4063C38.2148 23.9925 38.5763 24.5046 38.6131 25.1744C38.6258 25.4076 38.399 26.8063 38.9515 26.3809C39.0334 26.3179 39.21 25.6047 39.2462 25.4837C39.3935 24.992 39.4458 24.4787 39.5125 23.9736C39.6451 22.9689 39.6886 22.013 39.602 21.0011Z" fill="#28354B"/>
<mask id="mask4_4622_32431" style="mask-type:luminance" maskUnits="userSpaceOnUse" x="16" y="9" width="24" height="18">
<path fill-rule="evenodd" clip-rule="evenodd" d="M20.6043 17.5005C20.6278 17.4903 20.5695 17.4864 20.4295 17.4888C20.5997 17.4885 20.6579 17.4923 20.6043 17.5005ZM19.0512 14.5646C19.0508 14.5609 19.0544 14.5928 19.0512 14.5646V14.5646ZM39.602 21.0011C39.5516 20.3816 39.4623 19.7659 39.3122 19.1607C39.1929 18.6796 39.0301 18.2206 38.8374 17.7617C38.7211 17.4844 38.4494 17.1035 38.4175 16.8044C38.386 16.5098 38.621 16.1834 38.6712 15.8403C38.7199 15.5065 38.7116 15.1555 38.6416 14.8247C38.4825 14.0734 37.9555 13.3747 37.1416 13.1789C36.9599 13.1351 36.5758 13.189 36.4474 13.0855C36.3002 12.9668 36.1977 12.5624 36.0644 12.4002C35.6844 11.9378 35.0918 11.64 34.4667 11.7438C34.0065 11.8202 34.2708 11.9134 33.9257 11.6484C33.7339 11.501 33.5905 11.2761 33.4042 11.1166C33.1241 10.877 32.8027 10.6719 32.4702 10.5036C31.6003 10.0632 30.6081 9.74314 29.6364 9.58711C27.8638 9.30245 25.9719 9.55062 24.2536 10.0016C23.3986 10.226 22.5379 10.5108 21.7438 10.8874C21.4033 11.0489 21.2068 11.1828 20.8518 11.2251C20.2927 11.2917 19.8191 11.2884 19.2895 11.5203C17.6598 12.2341 16.9258 13.8901 17.56 15.4748C17.6875 15.7935 17.8602 16.0734 18.0983 16.3308C18.3887 16.6447 18.4937 16.5829 18.2436 16.9439C17.8697 17.4836 17.5544 18.0591 17.2978 18.6568C16.6241 20.2259 16.5113 21.9931 16.5552 23.6665C16.5706 24.2523 16.5962 24.8453 16.6907 25.4255C16.7315 25.6767 16.7429 26.1489 16.9354 26.3352C17.0331 26.4297 17.1723 26.4824 17.3112 26.4448C17.6376 26.3563 17.5253 26.1207 17.5329 25.902C17.5711 24.8032 17.5196 23.8312 17.7867 22.7456C17.984 21.9435 18.3129 21.2151 18.739 20.4979C19.281 19.5858 19.866 18.7847 20.6112 18.0036C20.7865 17.8199 20.8247 17.7421 21.0597 17.7287C21.2376 17.7187 21.4979 17.8379 21.6708 17.8792C22.0522 17.9701 22.4344 18.06 22.8227 18.1212C23.5367 18.2338 24.2437 18.2414 24.9641 18.2193C26.3818 18.1759 27.8057 18.0786 29.1803 17.7294C30.0932 17.4975 30.9026 17.0811 31.777 16.776C31.7926 16.7705 32.0118 16.6178 32.0502 16.624C32.1038 16.6327 32.4276 16.965 32.4823 17.0069C32.9071 17.3328 33.3732 17.4697 33.8321 17.7221C34.3978 18.0333 33.8499 17.588 34.162 17.9758C34.2529 18.0888 34.2995 18.2982 34.3724 18.4262C34.6046 18.8339 34.9275 19.1921 35.3138 19.4764C35.687 19.7511 36.248 19.8838 36.4383 20.2413C36.5851 20.5171 36.6345 20.892 36.7529 21.1864C37.0636 21.9587 37.4739 22.6789 37.8842 23.4063C38.2148 23.9925 38.5763 24.5046 38.6131 25.1744C38.6258 25.4076 38.399 26.8063 38.9515 26.3809C39.0334 26.3179 39.21 25.6047 39.2463 25.4837C39.3935 24.992 39.4458 24.4787 39.5125 23.9736C39.6451 22.9689 39.6886 22.013 39.602 21.0011Z" fill="white"/>
</mask>
<g mask="url(#mask4_4622_32431)">
<rect x="2.80078" y="7.78516" width="50.4" height="52.2925" fill="#0C092A"/>
</g>
</g>
</g>
<defs>
<clipPath id="clip0_4622_32431">
<rect y="0.937256" width="56" height="54.7826" rx="27.3913" fill="white"/>
</clipPath>
</defs>
</svg>
