<svg width="56" height="57" viewBox="0 0 56 57" fill="none" xmlns="http://www.w3.org/2000/svg">
<circle cx="28" cy="28.9373" r="28" fill="#FFD6DD"/>
<mask id="mask0_4622_32365" style="mask-type:alpha" maskUnits="userSpaceOnUse" x="0" y="0" width="56" height="57">
<circle cx="28" cy="28.9373" r="28" fill="#C4C4C4"/>
</mask>
<g mask="url(#mask0_4622_32365)">
<path fill-rule="evenodd" clip-rule="evenodd" d="M27.9982 15.4336C22.375 15.4336 17.8164 19.9921 17.8164 25.6154V26.6517C16.7845 26.8249 15.9982 27.7223 15.9982 28.8034V31.2969C15.9982 32.3999 16.8167 33.3117 17.8794 33.4582C18.2767 37.0289 20.5207 40.0422 23.6346 41.5214V44.8686C15.9334 45.2831 9.81641 51.659 9.81641 59.4637H46.18C46.18 51.659 40.0631 45.2831 32.3619 44.8686V41.5214C35.4758 40.0422 37.7197 37.0289 38.1171 33.4582C39.1798 33.3117 39.9982 32.3999 39.9982 31.2969V28.8034C39.9982 27.7223 39.2119 26.8249 38.18 26.6517V25.6154C38.18 19.9921 33.6215 15.4336 27.9982 15.4336Z" fill="#D0C6AC"/>
<mask id="mask1_4622_32365" style="mask-type:luminance" maskUnits="userSpaceOnUse" x="9" y="15" width="38" height="45">
<path fill-rule="evenodd" clip-rule="evenodd" d="M27.9982 15.4336C22.375 15.4336 17.8164 19.9921 17.8164 25.6154V26.6517C16.7845 26.8249 15.9982 27.7223 15.9982 28.8034V31.2969C15.9982 32.3999 16.8167 33.3117 17.8794 33.4582C18.2767 37.0289 20.5207 40.0422 23.6346 41.5214V44.8686C15.9334 45.2831 9.81641 51.659 9.81641 59.4637H46.18C46.18 51.659 40.0631 45.2831 32.3619 44.8686V41.5214C35.4758 40.0422 37.7197 37.0289 38.1171 33.4582C39.1798 33.3117 39.9982 32.3999 39.9982 31.2969V28.8034C39.9982 27.7223 39.2119 26.8249 38.18 26.6517V25.6154C38.18 19.9921 33.6215 15.4336 27.9982 15.4336Z" fill="white"/>
</mask>
<g mask="url(#mask1_4622_32365)">
<rect x="4" y="15.4336" width="48" height="44.0301" fill="#EDB98A"/>
<path fill-rule="evenodd" clip-rule="evenodd" d="M17.8164 32.3193V33.7629C17.8164 39.3862 22.375 43.9448 27.9982 43.9448C33.6215 43.9448 38.18 39.3862 38.18 33.7629V32.3193C38.18 37.9426 33.6215 42.5012 27.9982 42.5012C22.375 42.5012 17.8164 37.9426 17.8164 32.3193Z" fill="black" fill-opacity="0.1"/>
</g>
<path fill-rule="evenodd" clip-rule="evenodd" d="M27.9982 49.9091C30.7094 49.9091 32.9073 47.8893 32.9073 45.3978C32.9073 45.2344 32.8979 45.073 32.8794 44.9141C40.3346 45.5749 46.18 51.8366 46.18 59.4636H9.81641C9.81641 51.8366 15.6618 45.5749 23.117 44.9141C23.0986 45.073 23.0891 45.2344 23.0891 45.3978C23.0891 47.8893 25.287 49.9091 27.9982 49.9091Z" fill="#E6E6E6"/>
<mask id="mask2_4622_32365" style="mask-type:luminance" maskUnits="userSpaceOnUse" x="9" y="44" width="38" height="16">
<path fill-rule="evenodd" clip-rule="evenodd" d="M27.9982 49.9091C30.7094 49.9091 32.9073 47.8893 32.9073 45.3978C32.9073 45.2344 32.8979 45.073 32.8794 44.9141C40.3346 45.5749 46.18 51.8366 46.18 59.4636H9.81641C9.81641 51.8366 15.6618 45.5749 23.117 44.9141C23.0986 45.073 23.0891 45.2344 23.0891 45.3978C23.0891 47.8893 25.287 49.9091 27.9982 49.9091Z" fill="white"/>
</mask>
<g mask="url(#mask2_4622_32365)">
<rect x="4" y="39.614" width="48" height="19.8496" fill="#FF7096"/>
</g>
<path fill-rule="evenodd" clip-rule="evenodd" d="M23.6367 43.5066C22.4063 44.3371 21.6367 45.5219 21.6367 46.8371C21.6367 48.1721 22.4297 49.3728 23.6928 50.205L24.8041 49.3361L25.6367 49.3959L25.4549 48.8272L25.469 48.8162C24.3599 48.2491 23.6367 47.3193 23.6367 46.2685C23.6367 46.2685 23.6367 46.2685 23.6367 46.2685V43.5066ZM32.364 46.2685C32.364 46.2685 32.364 46.2685 32.364 46.2685C32.364 47.3193 31.6408 48.2491 30.5317 48.8162L30.5458 48.8272L30.364 49.3959L31.1966 49.3361L32.2238 50.1392C33.4299 49.3102 34.1822 48.1373 34.1822 46.8371C34.1822 45.588 33.4879 44.4564 32.364 43.6343V46.2685Z" fill="#F2F2F2"/>
<path d="M25.4531 36.0052C25.4531 36.9745 26.5728 37.6293 27.9986 37.6293C29.4244 37.6293 30.544 36.9745 30.544 36.0052C30.544 35.8059 30.3714 35.6443 30.1804 35.6443C29.9454 35.6443 29.8404 35.8076 29.8168 36.0052C29.5909 36.5353 29.0319 36.8563 27.9986 36.9074C26.9653 36.8563 26.4063 36.5353 26.1804 36.0052C26.1567 35.8076 26.0518 35.6443 25.8168 35.6443C25.6258 35.6443 25.4531 35.8059 25.4531 36.0052Z" fill="black" fill-opacity="0.6"/>
<path fill-rule="evenodd" clip-rule="evenodd" d="M25.8164 32.396C25.8164 33.1933 26.7932 33.8396 27.9982 33.8396C29.2032 33.8396 30.18 33.1933 30.18 32.396" fill="black" fill-opacity="0.16"/>
<ellipse cx="23.2706" cy="29.1479" rx="1.09091" ry="1.08271" fill="black" fill-opacity="0.6"/>
<ellipse cx="32.7237" cy="29.1479" rx="1.09091" ry="1.08271" fill="black" fill-opacity="0.6"/>
<path d="M20.6601 26.8308C21.3719 25.8367 23.3233 25.2793 25.0042 25.689C25.1993 25.7365 25.3962 25.6181 25.4441 25.4246C25.492 25.231 25.3727 25.0355 25.1777 24.988C23.2255 24.5122 20.9659 25.1577 20.0673 26.4126C19.9509 26.5751 19.9893 26.8004 20.153 26.9159C20.3167 27.0313 20.5437 26.9932 20.6601 26.8308Z" fill="black" fill-opacity="0.6"/>
<path d="M35.3399 26.8308C34.6281 25.8367 32.6767 25.2793 30.9958 25.689C30.8008 25.7365 30.6038 25.6181 30.5559 25.4246C30.508 25.231 30.6273 25.0355 30.8223 24.988C32.7745 24.5122 35.0341 25.1577 35.9327 26.4126C36.0491 26.5751 36.0107 26.8004 35.847 26.9159C35.6833 27.0313 35.4563 26.9932 35.3399 26.8308Z" fill="black" fill-opacity="0.6"/>
<mask id="mask3_4622_32365" style="mask-type:luminance" maskUnits="userSpaceOnUse" x="4" y="8" width="48" height="52">
<rect x="4" y="8.93726" width="48" height="50.5263" fill="white"/>
</mask>
<g mask="url(#mask3_4622_32365)">
<path fill-rule="evenodd" clip-rule="evenodd" d="M12.9062 25.268C12.9062 26.0892 13.2144 26.8277 13.7887 27.212C13.9532 27.3221 14.2379 27.3789 14.5426 27.4046V41.7793C14.5426 42.5766 15.1938 43.2229 15.9972 43.2229H23.6335V41.5286C20.4461 40.0258 18.1702 36.9278 17.8533 33.2741C16.8028 33.1181 15.9972 32.2187 15.9972 31.1327V28.7868C15.9972 28.1569 16.2681 27.5899 16.7007 27.1942C18.7988 26.7216 21.0827 25.8342 23.332 24.5454C25.5378 23.2814 27.4233 21.7958 28.8737 20.2609C28.2506 21.6879 27.4962 22.938 26.6103 24.0112C28.9149 23.0146 30.484 21.4122 31.3178 19.2041C31.3865 19.3705 31.4581 19.5367 31.5325 19.7026C33.3971 23.8592 36.6004 26.8052 39.8528 27.7768C39.946 28.1577 39.9972 28.5132 39.9972 28.7868V31.1327C39.9972 32.2187 39.1915 33.1181 38.1411 33.2741C37.8241 36.9278 35.5482 40.0258 32.3608 41.5286V43.2229H35.6335C38.8468 43.2229 41.4517 40.6376 41.4517 37.4485V28.0923V27.6815C41.4517 27.6689 41.4498 27.6524 41.4461 27.632C41.4327 26.6142 41.3954 24.2264 41.3354 23.7749C40.4657 17.2337 34.8254 12.1853 27.9972 12.1853C21.4363 12.1853 15.9722 16.846 14.7244 23.0124C13.7203 23.0124 12.9062 24.0223 12.9062 25.268Z" fill="#944F23"/>
<mask id="mask4_4622_32365" style="mask-type:luminance" maskUnits="userSpaceOnUse" x="12" y="12" width="30" height="32">
<path fill-rule="evenodd" clip-rule="evenodd" d="M12.9062 25.268C12.9062 26.0892 13.2144 26.8277 13.7887 27.212C13.9532 27.3221 14.2379 27.3789 14.5426 27.4046V41.7793C14.5426 42.5766 15.1938 43.2229 15.9972 43.2229H23.6335V41.5286C20.4461 40.0258 18.1702 36.9278 17.8533 33.2741C16.8028 33.1181 15.9972 32.2187 15.9972 31.1327V28.7868C15.9972 28.1569 16.2681 27.5899 16.7007 27.1942C18.7988 26.7216 21.0827 25.8342 23.332 24.5454C25.5378 23.2814 27.4233 21.7958 28.8737 20.2609C28.2506 21.6879 27.4962 22.938 26.6103 24.0112C28.9149 23.0146 30.484 21.4122 31.3178 19.2041C31.3865 19.3705 31.4581 19.5367 31.5325 19.7026C33.3971 23.8592 36.6004 26.8052 39.8528 27.7768C39.946 28.1577 39.9972 28.5132 39.9972 28.7868V31.1327C39.9972 32.2187 39.1915 33.1181 38.1411 33.2741C37.8241 36.9278 35.5482 40.0258 32.3608 41.5286V43.2229H35.6335C38.8468 43.2229 41.4517 40.6376 41.4517 37.4485V28.0923V27.6815C41.4517 27.6689 41.4498 27.6524 41.4461 27.632C41.4327 26.6142 41.3954 24.2264 41.3354 23.7749C40.4657 17.2337 34.8254 12.1853 27.9972 12.1853C21.4363 12.1853 15.9722 16.846 14.7244 23.0124C13.7203 23.0124 12.9062 24.0223 12.9062 25.268Z" fill="white"/>
</mask>
<g mask="url(#mask4_4622_32365)">
<rect x="3.81641" y="8.93726" width="48.3636" height="50.5263" fill="#2C1B18"/>
</g>
<g opacity="0.439991">
<path fill-rule="evenodd" clip-rule="evenodd" d="M31.5325 19.7026C33.703 24.541 37.6873 27.7392 41.4517 28.0923V25.5387C41.4517 18.1638 35.4279 12.1853 27.9972 12.1853C21.4363 12.1853 15.9722 16.846 14.7828 23.0135C14.7634 23.0128 14.744 23.0124 14.7244 23.0124C13.7203 23.0124 12.9062 24.0223 12.9062 25.268C12.9062 26.4376 13.6238 27.3993 14.5426 27.5125V27.5404C14.6001 27.5352 14.6578 27.5296 14.7158 27.5236C14.7187 27.5237 14.7215 27.5237 14.7244 27.5237C14.8425 27.5237 14.958 27.5097 15.0698 27.483C17.581 27.1654 20.4843 26.1771 23.332 24.5454C25.5378 23.2814 27.4233 21.7958 28.8737 20.2609C28.2506 21.6879 27.4962 22.938 26.6103 24.0112C28.9149 23.0146 30.484 21.4122 31.3178 19.2041C31.3865 19.3705 31.4581 19.5367 31.5325 19.7026Z" fill="white" fill-opacity="0.16"/>
</g>
</g>
</g>
</svg>
