<svg width="56" height="57" viewBox="0 0 56 57" fill="none" xmlns="http://www.w3.org/2000/svg">
<circle cx="28" cy="28.9373" r="28" fill="#C4D0FB"/>
<mask id="mask0_4622_32375" style="mask-type:alpha" maskUnits="userSpaceOnUse" x="0" y="0" width="56" height="57">
<circle cx="28" cy="28.9373" r="28" fill="#C4C4C4"/>
</mask>
<g mask="url(#mask0_4622_32375)">
<path fill-rule="evenodd" clip-rule="evenodd" d="M27.9982 15.4336C22.375 15.4336 17.8164 19.9921 17.8164 25.6154V26.6517C16.7845 26.8249 15.9982 27.7223 15.9982 28.8034V31.2969C15.9982 32.3999 16.8167 33.3117 17.8794 33.4582C18.2767 37.0289 20.5207 40.0422 23.6346 41.5214V44.8686C15.9334 45.2831 9.81641 51.659 9.81641 59.4637H46.18C46.18 51.659 40.0631 45.2831 32.3619 44.8686V41.5214C35.4758 40.0422 37.7197 37.0289 38.1171 33.4582C39.1798 33.3117 39.9982 32.3999 39.9982 31.2969V28.8034C39.9982 27.7223 39.2119 26.8249 38.18 26.6517V25.6154C38.18 19.9921 33.6215 15.4336 27.9982 15.4336Z" fill="#D0C6AC"/>
<mask id="mask1_4622_32375" style="mask-type:luminance" maskUnits="userSpaceOnUse" x="9" y="15" width="38" height="45">
<path fill-rule="evenodd" clip-rule="evenodd" d="M27.9982 15.4336C22.375 15.4336 17.8164 19.9921 17.8164 25.6154V26.6517C16.7845 26.8249 15.9982 27.7223 15.9982 28.8034V31.2969C15.9982 32.3999 16.8167 33.3117 17.8794 33.4582C18.2767 37.0289 20.5207 40.0422 23.6346 41.5214V44.8686C15.9334 45.2831 9.81641 51.659 9.81641 59.4637H46.18C46.18 51.659 40.0631 45.2831 32.3619 44.8686V41.5214C35.4758 40.0422 37.7197 37.0289 38.1171 33.4582C39.1798 33.3117 39.9982 32.3999 39.9982 31.2969V28.8034C39.9982 27.7223 39.2119 26.8249 38.18 26.6517V25.6154C38.18 19.9921 33.6215 15.4336 27.9982 15.4336Z" fill="white"/>
</mask>
<g mask="url(#mask1_4622_32375)">
<rect x="4" y="15.4336" width="48" height="44.0301" fill="#D08B5B"/>
<path fill-rule="evenodd" clip-rule="evenodd" d="M17.8164 32.3193V33.7629C17.8164 39.3862 22.375 43.9448 27.9982 43.9448C33.6215 43.9448 38.18 39.3862 38.18 33.7629V32.3193C38.18 37.9426 33.6215 42.5012 27.9982 42.5012C22.375 42.5012 17.8164 37.9426 17.8164 32.3193Z" fill="black" fill-opacity="0.1"/>
</g>
<path fill-rule="evenodd" clip-rule="evenodd" d="M28.0891 48.9664C31.453 48.9664 34.18 47.231 34.18 45.0903C34.18 45.0897 34.18 45.0891 34.18 45.0885C41.0034 46.3179 46.18 52.2863 46.18 59.4637H9.81641C9.81641 52.2226 15.0853 46.212 21.9984 45.0569C21.9983 45.068 21.9982 45.0791 21.9982 45.0903C21.9982 47.231 24.7252 48.9664 28.0891 48.9664Z" fill="#E6E6E6"/>
<mask id="mask2_4622_32375" style="mask-type:luminance" maskUnits="userSpaceOnUse" x="9" y="45" width="38" height="15">
<path fill-rule="evenodd" clip-rule="evenodd" d="M28.0891 48.9664C31.453 48.9664 34.18 47.231 34.18 45.0903C34.18 45.0897 34.18 45.0891 34.18 45.0885C41.0034 46.3179 46.18 52.2863 46.18 59.4637H9.81641C9.81641 52.2226 15.0853 46.212 21.9984 45.0569C21.9983 45.068 21.9982 45.0791 21.9982 45.0903C21.9982 47.231 24.7252 48.9664 28.0891 48.9664Z" fill="white"/>
</mask>
<g mask="url(#mask2_4622_32375)">
<rect x="4" y="39.614" width="48" height="19.8496" fill="#555FA8"/>
<g opacity="0.6">
<ellipse cx="28.0892" cy="45.361" rx="7.20638" ry="4.85663" fill="black" fill-opacity="0.16"/>
</g>
</g>
<path d="M25.4531 36.0052C25.4531 36.9745 26.5728 37.6293 27.9986 37.6293C29.4244 37.6293 30.544 36.9745 30.544 36.0052C30.544 35.8059 30.3714 35.6443 30.1804 35.6443C29.9454 35.6443 29.8404 35.8076 29.8168 36.0052C29.5909 36.5353 29.0319 36.8563 27.9986 36.9074C26.9653 36.8563 26.4063 36.5353 26.1804 36.0052C26.1567 35.8076 26.0518 35.6443 25.8168 35.6443C25.6258 35.6443 25.4531 35.8059 25.4531 36.0052Z" fill="black" fill-opacity="0.6"/>
<path fill-rule="evenodd" clip-rule="evenodd" d="M25.8164 32.396C25.8164 33.1933 26.7932 33.8396 27.9982 33.8396C29.2032 33.8396 30.18 33.1933 30.18 32.396" fill="black" fill-opacity="0.16"/>
<ellipse cx="23.2706" cy="29.1479" rx="1.09091" ry="1.08271" fill="black" fill-opacity="0.6"/>
<ellipse cx="32.7237" cy="29.1479" rx="1.09091" ry="1.08271" fill="black" fill-opacity="0.6"/>
<path d="M20.6601 26.8308C21.3719 25.8367 23.3233 25.2793 25.0042 25.689C25.1993 25.7365 25.3962 25.6181 25.4441 25.4246C25.492 25.231 25.3727 25.0355 25.1777 24.988C23.2255 24.5122 20.9659 25.1577 20.0673 26.4126C19.9509 26.5751 19.9893 26.8004 20.153 26.9159C20.3167 27.0313 20.5437 26.9932 20.6601 26.8308Z" fill="black" fill-opacity="0.6"/>
<path d="M35.3399 26.8308C34.6281 25.8367 32.6767 25.2793 30.9958 25.689C30.8008 25.7365 30.6038 25.6181 30.5559 25.4246C30.508 25.231 30.6273 25.0355 30.8223 24.988C32.7745 24.5122 35.0341 25.1577 35.9327 26.4126C36.0491 26.5751 36.0107 26.8004 35.847 26.9159C35.6833 27.0313 35.4563 26.9932 35.3399 26.8308Z" fill="black" fill-opacity="0.6"/>
<mask id="mask3_4622_32375" style="mask-type:luminance" maskUnits="userSpaceOnUse" x="4" y="8" width="48" height="52">
<rect x="4" y="8.93726" width="48" height="50.5263" fill="white"/>
</mask>
<g mask="url(#mask3_4622_32375)">
<path fill-rule="evenodd" clip-rule="evenodd" d="M17.9986 26.6215C17.9391 26.8421 17.698 26.89 17.635 26.6215C17.5042 24.7632 17.635 15.384 27.9986 15.253C38.3622 15.1221 38.493 24.7632 38.3622 26.6215C38.2992 26.89 38.0581 26.8421 37.9986 26.6215C38.0827 26.341 37.3993 21.4331 35.635 20.1252C35.3151 19.9044 34.3173 19.694 32.973 19.5368L33.6351 17.9598L32.3656 19.4717C31.0871 19.3465 29.5727 19.2683 28.0554 19.2673C24.5455 19.2648 21.0201 19.6711 20.3622 20.1252C18.5979 21.4331 17.9145 26.341 17.9986 26.6215Z" fill="#28354B"/>
<mask id="mask4_4622_32375" style="mask-type:luminance" maskUnits="userSpaceOnUse" x="17" y="15" width="22" height="12">
<path fill-rule="evenodd" clip-rule="evenodd" d="M17.9986 26.6215C17.9391 26.8421 17.698 26.89 17.635 26.6215C17.5042 24.7632 17.635 15.384 27.9986 15.253C38.3622 15.1221 38.493 24.7632 38.3622 26.6215C38.2992 26.89 38.0581 26.8421 37.9986 26.6215C38.0827 26.341 37.3993 21.4331 35.635 20.1252C35.3151 19.9044 34.3173 19.694 32.973 19.5368L33.6351 17.9598L32.3656 19.4717C31.0871 19.3465 29.5727 19.2683 28.0554 19.2673C24.5455 19.2648 21.0201 19.6711 20.3622 20.1252C18.5979 21.4331 17.9145 26.341 17.9986 26.6215Z" fill="white"/>
</mask>
<g mask="url(#mask4_4622_32375)">
<rect x="4" y="8.93726" width="48" height="50.5263" fill="#2C1B18"/>
</g>
<g filter="url(#filter0_d_4622_32375)">
<path fill-rule="evenodd" clip-rule="evenodd" d="M24.9536 27.0321C25.3848 27.0361 25.5886 27.1073 25.6621 27.5536C25.7365 28.0057 25.6641 28.514 25.5783 28.9593C25.4473 29.6392 25.2295 30.3054 24.7224 30.8023C24.4553 31.064 24.1295 31.2726 23.7829 31.4151C23.5989 31.4907 23.4046 31.5454 23.2103 31.5868C23.1535 31.5989 22.6687 31.6652 22.966 31.6315C22.2721 31.7101 21.5192 31.707 20.9396 31.2686C20.2973 30.7828 19.8574 30.014 19.664 29.2482C19.5508 28.8002 19.313 27.7285 19.7475 27.3703C20.2452 26.9598 24.9536 27.0321 24.9536 27.0321ZM20.5844 25.8078C19.5952 25.8416 18.9351 26.0141 18.4472 26.9949C17.5531 28.7924 19.0834 31.4881 20.7906 32.2227C22.7864 33.0815 25.0161 32.131 26.0712 30.4121C26.63 29.5019 26.9125 28.1235 26.8943 27.0734C26.8711 25.7331 25.9279 25.6959 24.8191 25.7254L20.5844 25.8078Z" fill="#44509F"/>
<path fill-rule="evenodd" clip-rule="evenodd" d="M31.0315 27.0316C30.6003 27.0356 30.3964 27.1067 30.323 27.5531C30.2485 28.0052 30.3209 28.5134 30.4067 28.9587C30.5377 29.6387 30.7556 30.3048 31.2626 30.8018C31.5298 31.0635 31.8556 31.2721 32.2021 31.4146C32.3861 31.4902 32.5804 31.5448 32.7747 31.5863C32.8315 31.5984 33.3163 31.6647 33.019 31.631C33.713 31.7096 34.4658 31.7064 35.0454 31.2681C35.6877 30.7822 36.1276 30.0135 36.321 29.2477C36.4342 28.7996 36.6719 27.728 36.2375 27.3697C35.7398 26.9593 31.0315 27.0316 31.0315 27.0316ZM35.4006 25.8073C36.3898 25.8411 37.05 26.0136 37.5378 26.9944C38.4319 28.7919 36.9016 31.4876 35.1944 32.2222C33.1986 33.081 30.969 32.1305 29.9137 30.4116C29.355 29.5014 29.0725 28.1229 29.0907 27.0728C29.1139 25.7326 30.0571 25.6954 31.1659 25.7249L35.4006 25.8073Z" fill="#44509F"/>
<path fill-rule="evenodd" clip-rule="evenodd" d="M18.9424 26.6083C18.3221 26.6429 17.6132 26.6512 17.0321 26.9174C16.4167 27.1992 16.3216 27.8376 17.0974 27.9255C17.4468 27.9651 17.7966 27.8996 18.1406 27.8387C18.4224 27.7888 18.8052 27.805 19.0714 27.6981C19.5676 27.499 19.5358 26.5746 18.9424 26.6083Z" fill="#44509F"/>
<path fill-rule="evenodd" clip-rule="evenodd" d="M37.0417 26.6083C37.6621 26.6429 38.371 26.6512 38.9521 26.9174C39.5675 27.1992 39.6626 27.8376 38.8868 27.9255C38.5374 27.9651 38.1876 27.8996 37.8435 27.8387C37.5617 27.7888 37.179 27.805 36.9127 27.6981C36.4165 27.499 36.4484 26.5746 37.0417 26.6083Z" fill="#44509F"/>
<path fill-rule="evenodd" clip-rule="evenodd" d="M29.8353 26.9848C29.4814 26.5697 28.5592 26.3301 27.9775 26.3301C27.3956 26.3301 26.5005 26.5697 26.1467 26.9848C25.9682 27.194 25.9622 27.474 26.2714 27.6052C26.6565 27.7686 27.0004 27.4723 27.3086 27.3173C27.7028 27.119 28.3085 27.1408 28.6734 27.3173C28.984 27.4675 29.3254 27.7686 29.7105 27.6052C30.0198 27.474 30.0137 27.194 29.8353 26.9848Z" fill="#44509F"/>
</g>
</g>
</g>
<defs>
<filter id="filter0_d_4622_32375" x="16.543" y="25.7192" width="22.8984" height="8.82471" filterUnits="userSpaceOnUse" color-interpolation-filters="sRGB">
<feFlood flood-opacity="0" result="BackgroundImageFix"/>
<feColorMatrix in="SourceAlpha" type="matrix" values="0 0 0 0 0 0 0 0 0 0 0 0 0 0 0 0 0 0 127 0" result="hardAlpha"/>
<feOffset dy="2"/>
<feColorMatrix type="matrix" values="0 0 0 0 0 0 0 0 0 0 0 0 0 0 0 0 0 0 0.1 0"/>
<feBlend mode="normal" in2="BackgroundImageFix" result="effect1_dropShadow_4622_32375"/>
<feBlend mode="normal" in="SourceGraphic" in2="effect1_dropShadow_4622_32375" result="shape"/>
</filter>
</defs>
</svg>
