<svg width="56" height="56" viewBox="0 0 56 56" fill="none" xmlns="http://www.w3.org/2000/svg">
<ellipse cx="28" cy="28.3286" rx="28" ry="27.3913" fill="#FFD6DD"/>
<mask id="mask0_4622_32398" style="mask-type:alpha" maskUnits="userSpaceOnUse" x="0" y="0" width="56" height="56">
<ellipse cx="28" cy="28.3286" rx="28" ry="27.3913" fill="#C4C4C4"/>
</mask>
<g mask="url(#mask0_4622_32398)">
<path fill-rule="evenodd" clip-rule="evenodd" d="M27.9982 15.1184C22.375 15.1184 17.8164 19.677 17.8164 25.3002V26.0934C16.7845 26.2665 15.9982 27.1639 15.9982 28.245V30.5894C15.9982 31.7008 16.8291 32.618 17.9035 32.7539C18.3608 36.2372 20.5788 39.1662 23.6346 40.6178V43.9005C15.9601 44.154 9.81641 50.4552 9.81641 58.1914H46.18C46.18 50.4552 40.0364 44.154 32.3619 43.9005V40.6178C35.4177 39.1662 37.6356 36.2372 38.0929 32.7539C39.1673 32.618 39.9982 31.7008 39.9982 30.5894V28.245C39.9982 27.1639 39.2119 26.2665 38.18 26.0934V25.3002C38.18 19.677 33.6215 15.1184 27.9982 15.1184Z" fill="#D0C6AC"/>
<mask id="mask1_4622_32398" style="mask-type:luminance" maskUnits="userSpaceOnUse" x="9" y="15" width="38" height="44">
<path fill-rule="evenodd" clip-rule="evenodd" d="M27.9982 15.1184C22.375 15.1184 17.8164 19.677 17.8164 25.3002V26.0934C16.7845 26.2665 15.9982 27.1639 15.9982 28.245V30.5894C15.9982 31.7008 16.8291 32.618 17.9035 32.7539C18.3608 36.2372 20.5788 39.1662 23.6346 40.6178V43.9005C15.9601 44.154 9.81641 50.4552 9.81641 58.1914H46.18C46.18 50.4552 40.0364 44.154 32.3619 43.9005V40.6178C35.4177 39.1662 37.6356 36.2372 38.0929 32.7539C39.1673 32.618 39.9982 31.7008 39.9982 30.5894V28.245C39.9982 27.1639 39.2119 26.2665 38.18 26.0934V25.3002C38.18 19.677 33.6215 15.1184 27.9982 15.1184Z" fill="white"/>
</mask>
<g mask="url(#mask1_4622_32398)">
<rect width="48" height="43.0729" transform="translate(4 15.1184)" fill="#FFCCD7"/>
<rect x="4" y="15.1184" width="48" height="43.0729" fill="#FFCCD7"/>
<path fill-rule="evenodd" clip-rule="evenodd" d="M17.8164 31.4158V32.828C17.8164 38.4513 22.375 43.0098 27.9982 43.0098C33.6215 43.0098 38.18 38.4513 38.18 32.828V31.4158C38.18 37.039 33.6215 41.5976 27.9982 41.5976C22.375 41.5976 17.8164 37.039 17.8164 31.4158Z" fill="black" fill-opacity="0.1"/>
</g>
<path fill-rule="evenodd" clip-rule="evenodd" d="M28.0891 50.3938C33.0597 50.3938 37.0891 48.0638 37.0891 45.1897C37.0891 45.0825 37.0835 44.976 37.0725 44.8704C42.4026 46.9454 46.18 52.1273 46.18 58.1914H9.81641C9.81641 52.0553 13.6839 46.8226 19.1143 44.7979C19.0976 44.9272 19.0891 45.0579 19.0891 45.1897C19.0891 48.0638 23.1186 50.3938 28.0891 50.3938Z" fill="#6223A9"/>
<mask id="mask2_4622_32398" style="mask-type:luminance" maskUnits="userSpaceOnUse" x="9" y="44" width="38" height="15">
<path fill-rule="evenodd" clip-rule="evenodd" d="M28.0891 50.3938C33.0597 50.3938 37.0891 48.0638 37.0891 45.1897C37.0891 45.0825 37.0835 44.976 37.0725 44.8704C42.4026 46.9454 46.18 52.1273 46.18 58.1914H9.81641C9.81641 52.0553 13.6839 46.8226 19.1143 44.7979C19.0976 44.9272 19.0891 45.0579 19.0891 45.1897C19.0891 48.0638 23.1186 50.3938 28.0891 50.3938Z" fill="white"/>
</mask>
<g mask="url(#mask2_4622_32398)">
<rect x="4" y="38.7734" width="48" height="19.4181" fill="#6223A9"/>
</g>
<path fill-rule="evenodd" clip-rule="evenodd" d="M25.4531 35.0659C25.4531 36.4308 26.5928 37.5373 27.9986 37.5373C29.4044 37.5373 30.544 36.4308 30.544 35.0659" fill="#0C092A"/>
<g opacity="0.3">
<path fill-rule="evenodd" clip-rule="evenodd" d="M25.8164 31.7124C25.8164 32.4924 26.7932 33.1246 27.9982 33.1246C29.2032 33.1246 30.18 32.4924 30.18 31.7124" fill="#0C092A"/>
</g>
<ellipse cx="23.2706" cy="28.5345" rx="1.09091" ry="1.05917" fill="#0C092A"/>
<ellipse cx="32.7237" cy="28.5345" rx="1.09091" ry="1.05917" fill="#0C092A"/>
<path d="M20.6601 26.2678C21.3719 25.2953 23.3233 24.75 25.0042 25.1508C25.1993 25.1973 25.3962 25.0815 25.4441 24.8921C25.492 24.7028 25.3727 24.5116 25.1777 24.4651C23.2255 23.9996 20.9659 24.6311 20.0673 25.8587C19.9509 26.0177 19.9893 26.2381 20.153 26.351C20.3167 26.464 20.5437 26.4267 20.6601 26.2678Z" fill="#0C092A"/>
<path d="M35.3399 26.2678C34.6281 25.2953 32.6767 24.75 30.9958 25.1508C30.8008 25.1973 30.6038 25.0815 30.5559 24.8921C30.508 24.7028 30.6273 24.5116 30.8223 24.4651C32.7745 23.9996 35.0341 24.6311 35.9327 25.8587C36.0491 26.0177 36.0107 26.2381 35.847 26.351C35.6833 26.464 35.4563 26.4267 35.3399 26.2678Z" fill="#0C092A"/>
<mask id="mask3_4622_32398" style="mask-type:luminance" maskUnits="userSpaceOnUse" x="4" y="8" width="48" height="51">
<rect x="4" y="8.76343" width="48" height="49.4279" fill="white"/>
</mask>
<g mask="url(#mask3_4622_32398)">
<path fill-rule="evenodd" clip-rule="evenodd" d="M11.0877 34.36C10.9755 28.9166 16.2366 17.5536 18.1786 15.295C19.6192 13.6195 23.5778 12.2147 27.9968 12.294C32.4159 12.3733 36.5171 13.32 37.9968 15.1184C40.2375 17.8418 44.882 28.1954 44.9059 34.36C44.9229 38.7379 43.1718 43.1264 40.7241 43.363C39.3421 43.4965 37.5867 43.3231 35.4773 43.1148L35.4771 43.1148L35.4771 43.1148H35.4771H35.4771C34.5117 43.0195 33.4722 42.9168 32.3604 42.8329V40.6178C35.8003 38.9837 38.1786 35.4775 38.1786 31.4158V26.6922C36.268 25.6702 34.6414 24.4364 33.2863 23.1828C33.8964 24.2844 34.5942 25.2847 35.3811 26.0408C29.8205 24.526 25.9767 21.4241 23.6731 18.992C22.6141 20.9478 20.7173 23.8081 17.8149 25.9868V31.4158C17.8149 35.4775 20.1932 38.9837 23.6331 40.6178V42.965C22.369 43.133 21.1941 43.3462 20.1129 43.5424L20.1128 43.5425L20.1128 43.5425C18.1403 43.9004 16.4796 44.2018 15.1576 44.0691C12.5716 43.8097 11.1779 38.7371 11.0877 34.36Z" fill="#E6E6E6"/>
<mask id="mask4_4622_32398" style="mask-type:luminance" maskUnits="userSpaceOnUse" x="11" y="12" width="34" height="33">
<path fill-rule="evenodd" clip-rule="evenodd" d="M11.0877 34.36C10.9755 28.9166 16.2366 17.5536 18.1786 15.295C19.6192 13.6195 23.5778 12.2147 27.9968 12.294C32.4159 12.3733 36.5171 13.32 37.9968 15.1184C40.2375 17.8418 44.882 28.1954 44.9059 34.36C44.9229 38.7379 43.1718 43.1264 40.7241 43.363C39.3421 43.4965 37.5867 43.3231 35.4773 43.1148L35.4771 43.1148L35.4771 43.1148H35.4771H35.4771C34.5117 43.0195 33.4722 42.9168 32.3604 42.8329V40.6178C35.8003 38.9837 38.1786 35.4775 38.1786 31.4158V26.6922C36.268 25.6702 34.6414 24.4364 33.2863 23.1828C33.8964 24.2844 34.5942 25.2847 35.3811 26.0408C29.8205 24.526 25.9767 21.4241 23.6731 18.992C22.6141 20.9478 20.7173 23.8081 17.8149 25.9868V31.4158C17.8149 35.4775 20.1932 38.9837 23.6331 40.6178V42.965C22.369 43.133 21.1941 43.3462 20.1129 43.5424L20.1128 43.5425L20.1128 43.5425C18.1403 43.9004 16.4796 44.2018 15.1576 44.0691C12.5716 43.8097 11.1779 38.7371 11.0877 34.36Z" fill="white"/>
</mask>
<g mask="url(#mask4_4622_32398)">
<rect x="3.81641" y="8.76343" width="48.3636" height="49.4279" fill="#0C092A"/>
</g>
</g>
</g>
</svg>
