<svg width="40" height="40" viewBox="0 0 40 40" fill="none" xmlns="http://www.w3.org/2000/svg">
<path d="M13.333 3.33325C6.66634 3.33325 3.33301 6.66659 3.33301 13.3333V34.9999C3.33301 35.9166 4.08301 36.6666 4.99967 36.6666H26.6663C33.333 36.6666 36.6663 33.3333 36.6663 26.6666V13.3333C36.6663 6.66659 33.333 3.33325 26.6663 3.33325H13.333Z" stroke="#2059EE" stroke-width="3" stroke-linecap="round" stroke-linejoin="round"/>
<path d="M12.8666 21.7164C12.5333 22.0498 12.2167 22.6998 12.15 23.1664L11.6833 26.4664C11.5167 27.6664 12.35 28.4998 13.55 28.3331L16.85 27.8664C17.3166 27.7998 17.9667 27.4831 18.3 27.1498L26.95 18.4998C28.4333 17.0164 29.15 15.2831 26.95 13.0831C24.75 10.8664 23.0166 11.5664 21.5166 13.0664L12.8666 21.7164Z" stroke="#2059EE" stroke-width="3" stroke-linecap="round" stroke-linejoin="round"/>
<path d="M20.2832 14.2998C21.0165 16.9165 23.0665 18.9831 25.6999 19.7165" stroke="#2059EE" stroke-width="3" stroke-linecap="round" stroke-linejoin="round"/>
</svg>
