<svg width="40" height="40" viewBox="0 0 40 40" fill="none" xmlns="http://www.w3.org/2000/svg">
<path d="M15.833 26.6666L14.283 28.5332L13.3663 29.6333C12.583 30.5666 11.083 30.3666 10.5663 29.2499L8.33301 24.3332C5.29967 22.1999 3.33301 18.8166 3.33301 14.9999C3.33301 8.54992 8.93301 3.33325 15.833 3.33325C20.8663 3.33325 25.2163 6.1166 27.1663 10.1166C27.9163 11.5999 28.333 13.2499 28.333 14.9999C28.333 21.4499 22.733 26.6666 15.833 26.6666Z" stroke="#2059EE" stroke-width="3" stroke-linecap="round" stroke-linejoin="round"/>
<path d="M31.6665 30.7667L29.4332 35.6833C28.9165 36.8 27.4165 37.0167 26.6332 36.0667L24.1665 33.1C20.1332 33.1 16.5332 31.3167 14.2832 28.5333L15.8332 26.6667C22.7332 26.6667 28.3332 21.45 28.3332 15C28.3332 13.25 27.9165 11.6 27.1665 10.1167C32.6165 11.3667 36.6665 15.9667 36.6665 21.4333C36.6665 25.25 34.6999 28.6334 31.6665 30.7667Z" stroke="#2059EE" stroke-width="3" stroke-linecap="round" stroke-linejoin="round"/>
<path d="M11.667 15H20.0003" stroke="#2059EE" stroke-width="3" stroke-linecap="round" stroke-linejoin="round"/>
</svg>
