<svg width="161" height="123" viewBox="0 0 161 123" fill="none" xmlns="http://www.w3.org/2000/svg">
<path d="M0.0278931 113.053C0.0278931 113.103 35.9542 113.146 80.2662 113.146C124.578 113.146 160.512 113.103 160.512 113.053C160.512 113.002 124.593 112.959 80.2662 112.959C35.9398 112.959 0.0278931 112.999 0.0278931 113.053Z" fill="#263238"/>
<path d="M114.851 30.7188H159.938V60.9058H114.851V30.7188Z" fill="white"/>
<path d="M114.834 60.9056C114.834 60.9056 114.834 60.7148 114.834 60.3548C114.834 59.9947 114.834 59.4582 114.834 58.7633C114.834 57.3663 114.834 55.3176 114.834 52.6928C114.834 47.4468 114.852 39.9072 114.867 30.7294L114.802 30.7942H159.884L159.802 30.715C159.802 41.4699 159.802 51.6954 159.802 60.902L159.877 60.8264L127.397 60.8624L118.114 60.884H115.648H115.011H114.791H115.63H118.086L127.346 60.902L159.877 60.9381H159.949V60.866C159.949 51.6594 159.949 41.4231 159.949 30.679V30.5962H159.866H114.784H114.719V30.661C114.719 39.8676 114.744 47.4216 114.755 52.6748C114.755 55.2924 114.755 57.3375 114.755 58.7309C114.755 59.4222 114.755 59.9515 114.755 60.3116C114.755 60.6716 114.834 60.9056 114.834 60.9056Z" fill="#E0E0E0"/>
<path d="M159.938 33.4114C159.938 33.3682 149.856 33.3286 137.412 33.3286C124.969 33.3286 114.887 33.3682 114.887 33.4114C114.887 33.4546 124.969 33.4906 137.412 33.4906C149.856 33.4906 159.938 33.4474 159.938 33.4114Z" fill="#E0E0E0"/>
<g opacity="0.3">
<path d="M158.159 32.051C158.159 32.1222 158.18 32.1918 158.219 32.251C158.259 32.3102 158.315 32.3564 158.381 32.3836C158.447 32.4109 158.519 32.418 158.589 32.4041C158.659 32.3902 158.723 32.3559 158.773 32.3056C158.824 32.2552 158.858 32.1911 158.872 32.1212C158.886 32.0514 158.879 31.979 158.851 31.9132C158.824 31.8474 158.778 31.7912 158.719 31.7516C158.66 31.712 158.59 31.6909 158.519 31.6909C158.423 31.6909 158.332 31.7289 158.264 31.7964C158.197 31.8639 158.159 31.9555 158.159 32.051Z" fill="#E0E0E0"/>
</g>
<g opacity="0.3">
<path d="M157.281 32.411C157.082 32.411 156.921 32.2498 156.921 32.051C156.921 31.8521 157.082 31.6909 157.281 31.6909C157.479 31.6909 157.641 31.8521 157.641 32.051C157.641 32.2498 157.479 32.411 157.281 32.411Z" fill="#E0E0E0"/>
</g>
<g opacity="0.3">
<path d="M155.698 32.051C155.698 32.1222 155.719 32.1918 155.759 32.251C155.798 32.3102 155.854 32.3564 155.92 32.3836C155.986 32.4109 156.058 32.418 156.128 32.4041C156.198 32.3902 156.262 32.3559 156.313 32.3056C156.363 32.2552 156.397 32.1911 156.411 32.1212C156.425 32.0514 156.418 31.979 156.391 31.9132C156.363 31.8474 156.317 31.7912 156.258 31.7516C156.199 31.712 156.129 31.6909 156.058 31.6909C155.962 31.6909 155.871 31.7289 155.803 31.7964C155.736 31.8639 155.698 31.9555 155.698 32.051Z" fill="#E0E0E0"/>
</g>
<path d="M144.033 36.5586H156.059V48.5844H144.033V36.5586Z" fill="#E0E0E0"/>
<path d="M121.033 39.9571C121.033 40.0039 125.713 40.04 131.507 40.04C137.3 40.04 141.984 40.0039 141.984 39.9571C141.984 39.9103 137.304 39.8779 131.507 39.8779C125.71 39.8779 121.033 39.9283 121.033 39.9571Z" fill="#E0E0E0"/>
<path d="M121.033 42.193C121.033 42.2362 125.713 42.2722 131.507 42.2722C137.3 42.2722 141.984 42.2362 141.984 42.193C141.984 42.1498 137.304 42.1138 131.507 42.1138C125.71 42.1138 121.033 42.1498 121.033 42.193Z" fill="#E0E0E0"/>
<path d="M121.033 44.429C121.033 44.4722 125.713 44.5082 131.507 44.5082C137.3 44.5082 141.984 44.4722 141.984 44.429C141.984 44.3858 137.304 44.3462 131.507 44.3462C125.71 44.3462 121.033 44.3822 121.033 44.429Z" fill="#E0E0E0"/>
<path d="M129.598 46.6617C129.759 46.6884 129.922 46.6992 130.084 46.6941L131.413 46.7193C132.533 46.7193 134.081 46.7445 135.788 46.7445C137.494 46.7445 139.028 46.7445 140.166 46.7193L141.494 46.6941C141.657 46.6992 141.82 46.6884 141.98 46.6617C141.82 46.6378 141.657 46.6281 141.494 46.6329L140.166 46.6077C139.046 46.5897 137.498 46.5825 135.788 46.5825C134.077 46.5825 132.547 46.5825 131.413 46.6077L130.084 46.6329C129.922 46.6281 129.759 46.6378 129.598 46.6617Z" fill="#E0E0E0"/>
<path d="M149.656 52.6387H155.309V58.2915H149.656V52.6387Z" fill="#E0E0E0"/>
<path d="M139.406 52.6387H145.059V58.2915H139.406V52.6387Z" fill="#E0E0E0"/>
<path d="M129.156 52.6387H134.809V58.2915H129.156V52.6387Z" fill="#E0E0E0"/>
<path d="M118.906 52.6387H124.559V58.2915H118.906V52.6387Z" fill="#E0E0E0"/>
<path d="M32.7037 38.3552C32.7564 38.538 32.8391 38.7107 32.9485 38.8664C33.2002 39.2327 33.552 39.5188 33.9619 39.6905C34.3718 39.8623 34.8224 39.9124 35.26 39.835C35.6723 39.7614 36.0569 39.5772 36.3726 39.3021C36.5459 39.1571 36.6953 38.9858 36.8155 38.7944C36.9441 38.5962 37.0402 38.3786 37.0999 38.1499C37.2323 37.6674 37.2071 37.1552 37.0279 36.6881C36.8458 36.2234 36.5221 35.8279 36.1026 35.5575C35.9041 35.4292 35.6866 35.3332 35.4581 35.2731C35.2402 35.2121 35.0145 35.1842 34.7884 35.1903C34.3957 35.2009 34.0121 35.3108 33.6733 35.5098C33.3346 35.7087 33.0518 35.9902 32.8513 36.328C32.5772 36.7775 32.4678 37.3082 32.5416 37.8295C32.5644 38.0174 32.6192 38.2001 32.7037 38.3696C32.7037 38.3696 32.6352 38.1787 32.592 37.8223C32.5427 37.318 32.6617 36.8116 32.9305 36.382C33.1277 36.065 33.4017 35.8029 33.727 35.6198C34.0524 35.4366 34.4186 35.3384 34.792 35.3343C35.006 35.3288 35.2196 35.3555 35.4257 35.4135C35.9918 35.5709 36.4727 35.9458 36.7634 36.4564C37.0542 36.967 37.1311 37.572 36.9775 38.1391C36.9203 38.355 36.8292 38.5604 36.7075 38.7476C36.5952 38.9299 36.4556 39.0939 36.2934 39.2337C36.013 39.4789 35.6759 39.6505 35.3125 39.7328C34.9492 39.8152 34.571 39.8057 34.2123 39.7054C33.7225 39.5673 33.2929 39.2694 32.9917 38.8592C32.8846 38.6978 32.7884 38.5294 32.7037 38.3552Z" fill="#E0E0E0"/>
<path d="M30.5473 40.5299H30.468L30.2268 40.5587L29.2727 40.6884H29.2943C29.0998 40.1807 28.8478 39.5074 28.5381 38.6973V38.7369L29.6183 38.0168H29.6399V37.9952C29.5926 37.5357 29.6059 37.0721 29.6795 36.6161V36.5909H29.6579L28.6282 35.8168V35.8744L29.4959 33.9301L29.4419 33.9589L30.7021 34.211H30.7345L30.7561 34.1822C31.0446 33.8243 31.3801 33.507 31.7534 33.2388L31.7822 33.2172V33.1848C31.7246 32.7888 31.6634 32.3531 31.5986 31.9102L31.5626 31.9714L33.5501 31.2081L33.4781 31.1865L34.1982 32.2667L34.2198 32.2991H34.2558C34.7127 32.2521 35.1738 32.2642 35.6276 32.3351H35.6672L35.6888 32.3027L36.4594 31.2729H36.3801L38.328 32.1407L38.292 32.0686C38.2128 32.4647 38.1264 32.8968 38.0436 33.3288V33.3684L38.076 33.3936C38.4343 33.6815 38.7527 34.0157 39.023 34.3874L39.0842 34.4126H39.1238H39.1634H39.2426L39.4046 34.3874L39.7251 34.3406L40.3588 34.2506L40.2867 34.2074L41.0213 36.1841L41.0465 36.1085L39.9663 36.8286L39.9339 36.8502V36.8898C39.9845 37.3464 39.9736 37.8078 39.9015 38.2616V38.3012L39.9339 38.3228L40.9673 39.0897L40.9457 39.0141C40.6552 39.6814 40.3684 40.3319 40.0851 40.9656L40.1535 40.9296L38.8897 40.6812H38.8537L38.8321 40.71C38.5447 41.0686 38.2105 41.3871 37.8384 41.6569L37.8096 41.6785V41.7145C37.8744 42.1502 37.9392 42.5715 38.0004 42.9855L38.0328 42.9279L36.0453 43.6984L36.1065 43.7164L35.3864 42.6363V42.6111H35.3576C34.8998 42.6623 34.4371 42.6514 33.9822 42.5787H33.9534V42.6003L33.1865 43.6372H33.2333L31.2818 42.7839V42.8163C31.379 42.3086 31.4582 41.8946 31.523 41.5489C31.2491 41.3342 30.997 41.093 30.7705 40.8288L30.6049 40.6308L30.5509 40.5659L30.5977 40.638C30.6301 40.6848 30.6805 40.7532 30.7561 40.8432C30.9693 41.1162 31.2106 41.3661 31.4762 41.5885V41.5669C31.4078 41.927 31.3214 42.323 31.2206 42.8271V42.8091H31.2422L33.1865 43.684H33.2117L33.2333 43.6588L34.0038 42.6291L33.9642 42.6471C34.4272 42.7224 34.8982 42.7357 35.3648 42.6867L35.318 42.6651L36.0381 43.7452L36.0597 43.7776H36.0957L38.0868 43.0143H38.1264V42.9711C38.064 42.5583 38.0028 42.1334 37.9428 41.6965L37.9176 41.7505C38.2989 41.4745 38.6416 41.1488 38.9365 40.782L38.8789 40.8036L40.1427 41.0556H40.1895L40.2111 41.0124L41.0753 39.0681L41.0969 39.0213L41.0573 38.9925L40.0239 38.222L40.0491 38.2796C40.1224 37.8151 40.1345 37.343 40.0851 36.8754L40.0563 36.9366L41.1365 36.2165L41.1797 36.1877V36.1373L40.4128 34.1498L40.3948 34.103H40.3444L39.7071 34.193L39.3902 34.2398L39.2282 34.265H39.149H39.1094H39.0698C39.1958 34.319 39.1022 34.265 39.131 34.2938C38.846 33.9215 38.5131 33.5886 38.1408 33.3036L38.1624 33.3684C38.2488 32.9328 38.3352 32.5007 38.4109 32.1046V32.0506L38.3641 32.029L36.4162 31.1685L36.3693 31.1469L36.3369 31.1865C36.0741 31.5466 35.8113 31.9066 35.57 32.2199L35.6312 32.1983C35.1656 32.1239 34.6922 32.1118 34.2234 32.1623L34.2846 32.1911L33.5645 31.1109L33.5393 31.0713H33.4925L31.505 31.8418H31.4618V31.885C31.5266 32.3315 31.5914 32.7671 31.649 33.1596L31.6706 33.1056C31.2911 33.3826 30.9508 33.7096 30.6589 34.0778L30.7093 34.0561L29.4455 33.8113H29.4059L29.3879 33.8509C29.0854 34.535 28.801 35.1867 28.5273 35.7988V35.8348L28.5598 35.8564L29.5931 36.6233L29.5751 36.5801C29.5031 37.0436 29.4934 37.5147 29.5463 37.9807L29.5643 37.9447L28.4841 38.6649H28.4625V38.6865L29.2403 40.6704V40.6884L30.1836 40.5407L30.4284 40.4975L30.5473 40.5299Z" fill="#E0E0E0"/>
<path fill-rule="evenodd" clip-rule="evenodd" d="M19.2194 34.4666C19.4457 34.7797 19.7134 35.0607 20.0151 35.302L19.8099 36.3497L21.4229 37.0698L22.0638 36.2129C22.4448 36.2748 22.8324 36.2845 23.216 36.2417L23.8101 37.1311L25.4592 36.4938L25.3043 35.4388C25.6174 35.2125 25.8984 34.9448 26.1397 34.6431L27.1874 34.8483L27.9075 33.2353L27.0506 32.5944C27.1125 32.2134 27.1222 31.8258 27.0794 31.4422L27.9688 30.8481L27.3315 29.199L26.2765 29.3539C26.0502 29.0408 25.7825 28.7598 25.4808 28.5185L25.686 27.4708L24.073 26.7507L23.4321 27.6076C23.0511 27.5457 22.6635 27.536 22.2799 27.5788L21.6858 26.6895L20.0331 27.3267L20.188 28.3817C19.8757 28.609 19.5948 28.8766 19.3526 29.1774L18.3049 28.9722L17.5848 30.5888L18.4417 31.2261C18.3798 31.6071 18.3701 31.9947 18.4129 32.3783L17.5236 32.9724L18.1608 34.6215L19.2158 34.4666H19.2194ZM21.0197 32.6664C20.8832 32.3165 20.8536 31.934 20.9346 31.5673C21.0156 31.2006 21.2036 30.8662 21.4748 30.6065C21.746 30.3467 22.0882 30.1732 22.458 30.108C22.8278 30.0428 23.2087 30.0889 23.5524 30.2402C23.896 30.3916 24.1871 30.6416 24.3886 30.9585C24.5901 31.2754 24.693 31.6449 24.6844 32.0204C24.6758 32.3958 24.5559 32.7602 24.34 33.0675C24.1241 33.3748 23.8219 33.6111 23.4717 33.7465C23.2389 33.8384 22.9902 33.8834 22.74 33.8788C22.4898 33.8742 22.2429 33.8201 22.0137 33.7197C21.7844 33.6193 21.5773 33.4746 21.4043 33.2938C21.2312 33.113 21.0956 32.8998 21.0053 32.6664H21.0197Z" fill="#E0E0E0"/>
<path fill-rule="evenodd" clip-rule="evenodd" d="M26.1818 24.6189C26.5372 25.109 26.9562 25.5497 27.4276 25.9295L27.1035 27.5714L29.6239 28.6947L30.6249 27.3517C31.2203 27.446 31.8256 27.4617 32.4252 27.3985L33.3577 28.7883L35.9429 27.791L35.7017 26.1347C36.1917 25.7793 36.6324 25.3604 37.0123 24.8889L38.6541 25.213L39.7775 22.6926L38.4345 21.6917C38.5288 21.0962 38.5445 20.4909 38.4813 19.8914L39.8711 18.9588L38.8737 16.3736L37.2175 16.6149C36.8668 16.119 36.4515 15.6722 35.9825 15.2863L36.3065 13.6408L33.7862 12.5174L32.7852 13.8604C32.1897 13.7662 31.5845 13.7504 30.9849 13.8136L30.0524 12.4238L27.4672 13.4212L27.7012 15.0846C27.2123 15.4401 26.7727 15.8591 26.3942 16.3304L24.7488 16.0064L23.6254 18.5268L24.9684 19.5277C24.8741 20.1232 24.8584 20.7284 24.9216 21.328L23.5282 22.2857L24.5255 24.8709L26.1818 24.6297V24.6189ZM28.983 21.7925C28.7714 21.2435 28.7275 20.6441 28.8566 20.0701C28.9858 19.4961 29.2822 18.9733 29.7086 18.5679C30.1349 18.1624 30.6719 17.8925 31.2517 17.7923C31.8314 17.6921 32.4278 17.7662 32.9655 18.005C33.5032 18.2439 33.958 18.6368 34.2722 19.1342C34.5865 19.6315 34.7463 20.2109 34.7312 20.7991C34.7161 21.3872 34.527 21.9577 34.1876 22.4383C33.8483 22.9189 33.374 23.2881 32.8248 23.4991C32.4605 23.6396 32.0721 23.7069 31.6818 23.6971C31.2915 23.6874 30.9069 23.6008 30.5501 23.4422C30.1933 23.2837 29.8712 23.0564 29.6023 22.7734C29.3334 22.4903 29.123 22.157 28.983 21.7925Z" fill="#E0E0E0"/>
<path d="M51.6016 10.8938C51.5451 10.8169 51.4811 10.7457 51.4107 10.6813L50.8634 10.1304C50.399 9.66957 49.7509 9.05027 49.0272 8.35176H49.0092V8.44178C49.7293 7.76847 50.3918 7.14918 50.8598 6.69911L51.4107 6.16263C51.4811 6.09823 51.5451 6.02708 51.6016 5.9502C51.5201 5.99943 51.4451 6.0587 51.3783 6.12662L50.7986 6.6343C50.3162 7.06637 49.6501 7.67486 48.9228 8.35176L48.8723 8.39497L48.9228 8.44178L48.9407 8.45978C49.6609 9.14749 50.3198 9.76678 50.8022 10.2096L51.3783 10.7317C51.4459 10.7946 51.5209 10.849 51.6016 10.8938Z" fill="#E0E0E0"/>
<path d="M57.226 5.93604C57.2815 6.01484 57.3455 6.08729 57.4168 6.15207L57.9461 6.69935C58.4106 7.16022 59.0587 7.77952 59.7824 8.47803L59.8004 8.49603V8.40241C59.0803 9.07932 58.4178 9.69501 57.9497 10.1451L57.3988 10.6852C57.3291 10.749 57.2653 10.8188 57.208 10.894C57.2901 10.8471 57.3652 10.7889 57.4312 10.7212C57.5896 10.5843 57.7913 10.4115 58.0109 10.2135C58.4934 9.77783 59.1559 9.17293 59.8868 8.49603L59.9336 8.44922L59.8868 8.40241H59.8688C59.1487 7.71111 58.4898 7.09181 58.0073 6.64894L57.4312 6.13047C57.3716 6.05694 57.3026 5.99157 57.226 5.93604Z" fill="#E0E0E0"/>
<path d="M55.7839 12.0603C55.8163 12.0603 55.2258 10.3897 54.4661 8.35894C53.7064 6.32823 53.0619 4.68638 53.0259 4.70078C52.9899 4.71518 53.5803 6.37143 54.3437 8.40215C55.107 10.4329 55.7443 12.0747 55.7839 12.0603Z" fill="#E0E0E0"/>
<path d="M45.214 15.6105C45.214 15.6105 45.214 15.5133 45.214 15.3333C45.214 15.1532 45.214 14.8796 45.214 14.5339C45.214 13.8354 45.214 12.8129 45.214 11.5131C45.214 8.91347 45.214 5.1977 45.2428 0.71141L45.1888 0.765418H63.4652L63.4004 0.700608C63.4004 6.08343 63.4004 11.171 63.4004 15.5961L63.458 15.5385L50.2584 15.5673H46.5174H45.5237H46.4922L50.2224 15.5853L63.458 15.6141H63.5156V15.5565C63.5156 11.1314 63.5156 6.04383 63.5156 0.661001V0.596191H63.4508H45.1744H45.1204V0.6502C45.1204 5.14369 45.142 8.87386 45.1492 11.4807C45.1492 12.7769 45.1492 13.7922 45.1492 14.4907C45.1492 14.8508 45.1492 15.0956 45.1492 15.2792C45.1492 15.4629 45.214 15.6105 45.214 15.6105Z" fill="#E0E0E0"/>
<path d="M45.0688 2.92565C45.0688 2.96166 49.195 2.99046 54.2826 2.99046C59.3702 2.99046 63.5 2.96166 63.5 2.92565C63.5 2.88964 59.3738 2.86084 54.2826 2.86084C49.1914 2.86084 45.0688 2.88964 45.0688 2.92565Z" fill="#E0E0E0"/>
<path d="M61.9992 1.83828C61.9992 1.90417 62.0254 1.96736 62.072 2.01395C62.1186 2.06054 62.1818 2.08672 62.2477 2.08672C62.3135 2.08672 62.3767 2.06054 62.4233 2.01395C62.4699 1.96736 62.4961 1.90417 62.4961 1.83828C62.4961 1.77239 62.4699 1.7092 62.4233 1.66261C62.3767 1.61602 62.3135 1.58984 62.2477 1.58984C62.215 1.58984 62.1827 1.59627 62.1526 1.60876C62.1224 1.62124 62.095 1.63954 62.072 1.66261C62.0489 1.68568 62.0306 1.71307 62.0181 1.74321C62.0056 1.77335 61.9992 1.80566 61.9992 1.83828Z" fill="#E0E0E0"/>
<path d="M61.3528 2.08294C61.2176 2.08294 61.108 1.97332 61.108 1.8381C61.108 1.70288 61.2176 1.59326 61.3528 1.59326C61.488 1.59326 61.5977 1.70288 61.5977 1.8381C61.5977 1.97332 61.488 2.08294 61.3528 2.08294Z" fill="#E0E0E0"/>
<path d="M60.2063 1.83828C60.2063 1.88742 60.2208 1.93545 60.2481 1.97631C60.2754 2.01716 60.3142 2.049 60.3596 2.06781C60.405 2.08661 60.455 2.09153 60.5032 2.08195C60.5514 2.07236 60.5956 2.0487 60.6304 2.01395C60.6651 1.97921 60.6888 1.93494 60.6983 1.88675C60.7079 1.83856 60.703 1.78861 60.6842 1.74321C60.6654 1.69781 60.6336 1.65901 60.5927 1.63171C60.5519 1.60441 60.5038 1.58984 60.4547 1.58984C60.3888 1.58984 60.3256 1.61602 60.279 1.66261C60.2324 1.7092 60.2063 1.77239 60.2063 1.83828Z" fill="#E0E0E0"/>
<path d="M80.5492 7.89844H122.812V25.0659H80.5492V7.89844Z" fill="white"/>
<path d="M80.5487 25.0656C80.5487 25.0656 80.5487 24.9612 80.5487 24.7596C80.5487 24.5579 80.5487 24.2591 80.5487 23.8702C80.5487 23.0853 80.5487 21.9367 80.5487 20.4533C80.5487 17.49 80.5487 13.2054 80.5739 7.89817L80.5271 7.94498L122.787 7.96658L122.754 7.88377V25.0512L122.819 24.9864L92.517 25.0188L83.728 25.0368H81.3733H83.7136H92.4882L122.834 25.0656H122.898V25.0008C122.898 19.6504 122.898 13.8391 122.898 7.83336V7.76855H122.826H80.5667H80.5199V7.88377C80.5199 13.2018 80.5379 17.4972 80.5451 20.4677C80.5451 21.9439 80.5451 23.0925 80.5451 23.8738C80.5451 24.2591 80.5451 24.5543 80.5451 24.756C80.5451 24.9576 80.5487 25.0656 80.5487 25.0656Z" fill="#E0E0E0"/>
<path d="M122.754 10.2132C122.754 10.1772 113.306 10.1484 101.655 10.1484C90.0033 10.1484 80.5554 10.1772 80.5554 10.2132C80.5554 10.2493 89.9997 10.2817 101.655 10.2817C113.31 10.2817 122.754 10.2529 122.754 10.2132Z" fill="#E0E0E0"/>
<g opacity="0.3">
<path d="M121.001 9.18007C121.001 9.26124 121.033 9.33908 121.091 9.39648C121.148 9.45387 121.226 9.48612 121.307 9.48612C121.388 9.48612 121.466 9.45387 121.524 9.39648C121.581 9.33908 121.613 9.26124 121.613 9.18007C121.613 9.0989 121.581 9.02106 121.524 8.96366C121.466 8.90627 121.388 8.87402 121.307 8.87402C121.226 8.87402 121.148 8.90627 121.091 8.96366C121.033 9.02106 121.001 9.0989 121.001 9.18007Z" fill="#EBEBEB"/>
</g>
<g opacity="0.3">
<path d="M119.95 9.18007C119.95 9.26124 119.983 9.33908 120.04 9.39648C120.097 9.45387 120.175 9.48612 120.256 9.48612C120.338 9.48612 120.415 9.45387 120.473 9.39648C120.53 9.33908 120.562 9.26124 120.562 9.18007C120.562 9.0989 120.53 9.02106 120.473 8.96366C120.415 8.90627 120.338 8.87402 120.256 8.87402C120.175 8.87402 120.097 8.90627 120.04 8.96366C119.983 9.02106 119.95 9.0989 119.95 9.18007Z" fill="#EBEBEB"/>
</g>
<g opacity="0.3">
<path d="M119.221 9.48612C119.052 9.48612 118.915 9.34909 118.915 9.18007C118.915 9.01104 119.052 8.87402 119.221 8.87402C119.39 8.87402 119.527 9.01104 119.527 9.18007C119.527 9.34909 119.39 9.48612 119.221 9.48612Z" fill="#EBEBEB"/>
</g>
<path d="M109.015 13.0039H119.223V23.2115H109.015V13.0039Z" fill="#E0E0E0"/>
<path d="M83.4727 15.7403C83.4727 15.7763 88.7259 15.8087 95.2033 15.8087C101.681 15.8087 106.938 15.7763 106.938 15.7403C106.938 15.7043 101.684 15.6719 95.2033 15.6719C88.7223 15.6719 83.4727 15.7043 83.4727 15.7403Z" fill="#E0E0E0"/>
<path d="M83.4727 17.8213C83.4727 17.8573 88.7259 17.8861 95.2033 17.8861C101.681 17.8861 106.938 17.8573 106.938 17.8213C106.938 17.7853 101.684 17.7529 95.2033 17.7529C88.7223 17.7529 83.4727 17.7817 83.4727 17.8213Z" fill="#E0E0E0"/>
<path d="M91.8332 19.8986C91.8833 19.9068 91.9343 19.9068 91.9844 19.8986H92.4273L94.0439 19.9202L99.3835 19.9418L104.727 19.9202L106.343 19.8986H106.786C106.836 19.9068 106.887 19.9068 106.938 19.8986C106.887 19.8941 106.837 19.8941 106.786 19.8986H106.343L104.727 19.877H99.3835H94.0439L92.4273 19.8986H91.9844C91.9341 19.8941 91.8835 19.8941 91.8332 19.8986Z" fill="#E0E0E0"/>
<path d="M117.039 50.7299L107.634 82.4616C107.431 83.1483 107.011 83.7509 106.438 84.1798C105.864 84.6087 105.168 84.8408 104.451 84.8416L66.2855 84.946C65.8055 84.9471 65.3303 84.8504 64.8889 84.6617C64.4475 84.4731 64.0492 84.1964 63.7183 83.8487C63.3874 83.501 63.1309 83.0894 62.9644 82.6392C62.7978 82.189 62.7248 81.7096 62.7498 81.2302C62.7986 80.3281 63.1912 79.479 63.8468 78.8576C64.5025 78.2361 65.3713 77.8894 66.2747 77.8889H80.8678L92.5552 45.3291H113.014C113.668 45.3286 114.313 45.4811 114.898 45.7744C115.483 46.0678 115.992 46.4938 116.383 47.0185C116.774 47.5432 117.037 48.152 117.151 48.7964C117.265 49.4408 117.226 50.103 117.039 50.7299Z" fill="#455A64"/>
<path d="M84.749 80.496C84.749 80.5716 88.6412 80.6292 93.4408 80.6292C98.2403 80.6292 102.129 80.5716 102.129 80.496C102.129 80.4204 98.2403 80.3628 93.4408 80.3628C88.6412 80.3628 84.749 80.4204 84.749 80.496Z" fill="#263238"/>
<path d="M114.229 46.3301C114.161 46.3085 111.561 53.9093 108.425 63.3103C105.289 72.7114 102.808 80.3517 102.876 80.3733C102.945 80.395 105.544 72.8122 108.68 63.3931C111.817 53.9741 114.301 46.3553 114.229 46.3301Z" fill="#263238"/>
<path d="M86.3381 113.052L88.6641 112.998V84.8413H86.3381V113.052Z" fill="#455A64"/>
<path d="M98.3242 112.922H76.6741L86.482 109.513H88.808L98.3242 112.922Z" fill="#455A64"/>
<path d="M103.801 38.0417L100.218 55.9401L100.859 69.3521L76.7786 65.3483L77.722 53.6105L77.7508 43.889L71.8459 55.3316L67.2516 46.449L75.6661 31.2007C77.1981 29.5995 79.0834 28.3788 81.1713 27.6361C82.2806 27.2364 83.4457 27.0129 84.6242 26.9736C87.3363 27.8323 90.2474 27.8323 92.9595 26.9736C93.298 27.0168 93.766 27.0636 94.3601 27.1321H94.4681C96.9449 27.4462 99.2326 28.6207 100.931 30.4503C102.63 32.2799 103.632 34.6483 103.761 37.1416L103.801 38.0417Z" fill="#2059EE"/>
<path d="M94.3526 27.1357C94.3526 27.1357 104.247 27.2114 105.471 37.6602L105.637 45.3293L97.1178 45.2573L94.3526 27.1357Z" fill="#2059EE"/>
<path d="M70.7129 40.5766C70.7129 40.6522 78.4973 40.7134 88.1 40.7134C97.7027 40.7134 105.473 40.6486 105.473 40.5766C105.473 40.5046 97.6919 40.4434 88.0856 40.4434C78.4793 40.4434 70.7129 40.5046 70.7129 40.5766Z" fill="#FAFAFA"/>
<path d="M70.7141 42.2359C70.7141 42.308 78.4985 42.3692 88.1012 42.3692C97.7039 42.3692 105.488 42.308 105.488 42.2359C105.488 42.1639 97.7075 42.0991 88.1012 42.0991C78.4949 42.0991 70.7141 42.1603 70.7141 42.2359Z" fill="#FAFAFA"/>
<path d="M71.2674 39.2084C71.2674 39.284 78.9258 39.3452 88.3736 39.3452C97.8215 39.3452 105.473 39.2804 105.473 39.2084C105.473 39.1364 97.8143 39.0752 88.3628 39.0752C78.9114 39.0752 71.2674 39.1328 71.2674 39.2084Z" fill="#FAFAFA"/>
<path d="M77.8693 55.3278C77.9449 55.3278 77.9125 51.0899 77.7973 45.8691C77.6821 40.6483 77.5273 36.4141 77.4552 36.4141C77.3832 36.4141 77.412 40.6519 77.5273 45.8727C77.6425 51.0935 77.7973 55.3278 77.8693 55.3278Z" fill="#263238"/>
<path d="M81.2543 48.458C81.2543 48.458 76.5736 48.7929 75.7311 50.0314C74.8886 51.27 73.6032 54.795 74.0892 54.8202C74.3919 54.8314 74.6892 54.7387 74.9318 54.5573L76.2136 52.2818C76.2136 52.2818 76.0083 54.4781 76.7753 54.5213C77.5422 54.5645 81.3516 55.3279 81.3516 55.3279L81.2543 48.458Z" fill="#FFBE9D"/>
<path d="M105.63 43.2842L105.648 55.3496C105.613 56.0125 105.433 56.6596 105.123 57.2463C104.812 57.8329 104.378 58.3451 103.85 58.7474C103.322 59.1498 102.713 59.4326 102.065 59.5764C101.417 59.7202 100.745 59.7215 100.096 59.5803L81.2259 55.6917L81.2655 47.9541L97.5508 51.0902L97.7668 42.8989L105.63 43.2842Z" fill="#2059EE"/>
<path d="M94.8655 58.6118C94.7846 58.5825 94.7016 58.5596 94.6171 58.5434L93.897 58.3778L91.1245 57.7909L81.2914 55.771L81.3886 55.8862C81.3886 53.4594 81.3886 50.7734 81.3886 47.9398L81.2302 48.073L84.5499 48.7103L97.5119 51.1767L97.6523 51.2055V51.0902C97.5299 47.4897 97.4255 44.5084 97.3535 42.3913C97.3103 41.3615 97.2779 40.5442 97.2527 39.9609C97.2527 39.6981 97.2275 39.4857 97.2167 39.3236C97.2167 39.2497 97.2082 39.176 97.1915 39.104C97.1868 39.1771 97.1868 39.2505 97.1915 39.3236C97.1915 39.4893 97.1915 39.6837 97.1915 39.9645C97.1915 40.5478 97.2131 41.3652 97.2275 42.3949C97.2779 44.5156 97.3463 47.5041 97.4291 51.0938L97.5659 50.9822L84.6039 48.4618L81.2842 47.8281L81.1258 47.7957V47.9578C81.1258 50.7914 81.1258 53.4774 81.1258 55.9042V56.005L81.223 56.023L91.0705 57.9313L93.8574 58.4534L94.5955 58.583C94.6842 58.6024 94.7747 58.612 94.8655 58.6118Z" fill="#263238"/>
<path d="M84.044 27.1357C84.044 27.1357 84.008 27.1933 83.9683 27.3121C83.9058 27.4858 83.8564 27.6639 83.8207 27.845C83.6901 28.5195 83.7209 29.2154 83.9107 29.8757C84.203 30.8551 84.7704 31.7299 85.5454 32.3961C86.4888 33.2416 87.7135 33.7051 88.9803 33.6959C89.6099 33.7062 90.2351 33.5894 90.8185 33.3525C91.402 33.1155 91.9315 32.7633 92.3756 32.3169C93.0808 31.5663 93.5242 30.6076 93.6394 29.5841C93.7241 28.9015 93.6425 28.2085 93.4018 27.5642C93.338 27.391 93.2572 27.2245 93.1606 27.0673C93.0957 26.9593 93.0597 26.9053 93.0489 26.9089C93.0381 26.9125 93.1642 27.1501 93.3046 27.6002C93.4957 28.2346 93.546 28.903 93.4522 29.5589C93.3159 30.5306 92.8775 31.435 92.1992 32.1441C91.7749 32.5611 91.2717 32.8893 90.7189 33.1094C90.1662 33.3295 89.5751 33.4371 88.9803 33.4259C87.7787 33.4356 86.6153 33.0038 85.711 32.2125C84.9576 31.5801 84.3964 30.7494 84.0908 29.8145C83.8939 29.1814 83.8374 28.513 83.9251 27.8558C83.9863 27.3949 84.0728 27.1429 84.044 27.1357Z" fill="#263238"/>
<path d="M83.1327 56.3324C83.1745 55.9362 83.1745 55.5368 83.1327 55.1406C83.1039 54.4205 83.0679 53.3979 83.0607 52.2818C83.0535 51.1656 83.0607 50.1538 83.1003 49.4193C83.1408 49.0231 83.1408 48.6238 83.1003 48.2275C82.9908 48.6121 82.9303 49.0089 82.9202 49.4085C82.8518 50.1286 82.7978 51.1584 82.805 52.289C82.8122 53.4195 82.877 54.4277 82.9526 55.1694C82.9655 55.5629 83.026 55.9534 83.1327 56.3324Z" fill="#FAFAFA"/>
<path d="M84.108 56.5304C84.1586 56.1376 84.1694 55.7408 84.1404 55.3458C84.1404 54.5141 84.1224 53.5455 84.1116 52.505V49.6497C84.1392 49.2557 84.1247 48.8598 84.0684 48.4688C83.971 48.8524 83.9214 49.2467 83.9208 49.6425C83.874 50.3626 83.8344 51.3816 83.8416 52.4942C83.8488 53.6067 83.892 54.6149 83.9496 55.3458C83.9538 55.7457 84.007 56.1435 84.108 56.5304Z" fill="#FAFAFA"/>
<path d="M65.2104 104.468L61.6458 114.291L56.5834 121.243C56.4984 121.363 56.4386 121.498 56.4075 121.641C56.3765 121.784 56.3749 121.932 56.4029 122.076C56.4308 122.22 56.4877 122.357 56.5702 122.478C56.6526 122.599 56.7588 122.702 56.8823 122.781C57.0269 122.87 57.1907 122.925 57.3602 122.939C57.5298 122.953 57.7004 122.928 57.858 122.863C59.8996 122.017 67.3887 118.863 67.6119 118.132C67.8676 117.283 72.7031 106.719 72.7031 106.719L65.2104 104.468Z" fill="#808080"/>
<g opacity="0.6">
<path d="M56.8663 122.781L67.8516 117.474L67.6895 117.888C67.5535 118.241 67.299 118.536 66.9694 118.723C66.0693 119.209 63.5489 120.494 57.8852 122.874C57.7228 122.942 57.5464 122.968 57.3713 122.952C57.1963 122.936 57.0279 122.877 56.8807 122.781H56.8663Z" fill="white"/>
</g>
<g opacity="0.6">
<path d="M67.089 113.556C66.9355 113.597 66.8024 113.693 66.7154 113.826C66.6283 113.959 66.5934 114.119 66.6174 114.276C66.6528 114.433 66.7476 114.57 66.8818 114.659C67.016 114.747 67.1793 114.78 67.3375 114.751C67.5014 114.708 67.6432 114.605 67.7352 114.462C67.8271 114.32 67.8624 114.148 67.8344 113.981C67.78 113.823 67.667 113.693 67.5188 113.616C67.3706 113.54 67.1986 113.523 67.0386 113.57" fill="white"/>
</g>
<path d="M60.764 119.393C60.6474 119 60.4568 118.633 60.2023 118.313C59.745 117.801 59.1545 117.726 59.1653 117.661C59.1761 117.596 59.3202 117.607 59.5614 117.661C59.8733 117.746 60.1548 117.918 60.3733 118.156C60.5918 118.394 60.7385 118.689 60.7964 119.007C60.8288 119.245 60.7892 119.393 60.764 119.393Z" fill="#263238"/>
<path d="M59.5593 120.426C59.498 120.451 59.3072 120.012 58.8607 119.67C58.5703 119.487 58.2684 119.324 57.957 119.18C57.957 119.119 58.4971 119.094 59.0012 119.49C59.5052 119.886 59.6205 120.419 59.5593 120.426Z" fill="#263238"/>
<path d="M62.7021 118.222C62.6373 118.251 62.342 117.578 61.7011 116.987C61.0602 116.397 60.3653 116.152 60.3869 116.087C60.4085 116.022 61.1682 116.173 61.8559 116.807C62.5436 117.441 62.7597 118.215 62.7021 118.222Z" fill="#263238"/>
<path d="M64.0372 115.327C63.9904 115.378 63.5403 114.942 62.849 114.643C62.1577 114.344 61.5384 114.283 61.542 114.229C61.5456 114.175 62.2045 114.107 62.9426 114.434C63.6807 114.762 64.0696 115.295 64.0372 115.327Z" fill="#263238"/>
<path d="M65.1488 112.472C65.0984 112.515 64.6843 111.983 63.9318 111.727C63.1793 111.471 62.5276 111.615 62.5132 111.55C62.4988 111.486 62.6608 111.442 62.9344 111.399C63.2955 111.352 63.6626 111.391 64.0064 111.511C64.3502 111.631 64.6612 111.829 64.9147 112.091C65.1092 112.299 65.1812 112.454 65.1488 112.472Z" fill="#263238"/>
<path d="M64.1636 111.19C64.1832 111.063 64.2286 110.94 64.2968 110.83C64.4603 110.506 64.6867 110.217 64.9629 109.981C65.1492 109.786 65.395 109.66 65.6614 109.621C65.7499 109.617 65.8375 109.64 65.9122 109.688C65.9869 109.736 66.0452 109.805 66.0791 109.887C66.1403 110.047 66.1403 110.224 66.0791 110.384C65.9312 110.708 65.6734 110.97 65.3512 111.123C65.0291 111.276 64.6633 111.31 64.3184 111.219C63.9829 111.127 63.6825 110.937 63.4554 110.674C63.2284 110.41 63.0851 110.085 63.0438 109.739C63.0337 109.653 63.0422 109.565 63.0689 109.481C63.0957 109.398 63.1399 109.322 63.1986 109.257C63.2655 109.198 63.3489 109.162 63.4372 109.153C63.5256 109.144 63.6146 109.163 63.6919 109.207C63.9106 109.353 64.0869 109.554 64.2032 109.79C64.381 110.105 64.5028 110.448 64.5632 110.805C64.5931 110.935 64.5931 111.071 64.5632 111.201C64.4555 110.736 64.2783 110.289 64.0376 109.876C63.9276 109.676 63.7707 109.506 63.5803 109.379C63.5388 109.353 63.4898 109.342 63.441 109.346C63.3922 109.351 63.3462 109.371 63.3102 109.405C63.2747 109.449 63.2487 109.501 63.2338 109.556C63.219 109.611 63.2156 109.668 63.2238 109.725C63.2694 110.022 63.3991 110.299 63.5976 110.524C63.7961 110.75 64.055 110.913 64.3436 110.996C64.632 111.07 64.937 111.043 65.208 110.92C65.4791 110.797 65.7 110.585 65.8342 110.319C65.8883 110.207 65.8986 110.078 65.863 109.959C65.845 109.913 65.813 109.875 65.7716 109.848C65.7303 109.822 65.6816 109.809 65.6326 109.811C65.4097 109.844 65.2023 109.945 65.0385 110.099C64.6852 110.409 64.389 110.778 64.1636 111.19Z" fill="#263238"/>
<path d="M50.1569 101.898L50.463 109.88C50.463 109.88 42.4554 112.876 42.3689 114.355L57.8513 114.312L57.8945 101.858L50.1569 101.898Z" fill="#808080"/>
<g opacity="0.6">
<path d="M55.2536 109.196C55.4024 109.241 55.5294 109.339 55.6104 109.472C55.6914 109.605 55.7208 109.763 55.6928 109.916C55.6536 110.069 55.5566 110.2 55.4222 110.283C55.2879 110.365 55.1267 110.393 54.9727 110.359C54.8149 110.31 54.6805 110.205 54.5954 110.064C54.5104 109.922 54.4806 109.754 54.5118 109.592C54.5703 109.439 54.6851 109.315 54.8325 109.245C54.9799 109.174 55.1486 109.163 55.304 109.214" fill="white"/>
</g>
<g opacity="0.6">
<path d="M57.8633 114.312V113.07L42.9714 113.567C42.9714 113.567 42.2837 113.869 42.3629 114.355L57.8633 114.312Z" fill="white"/>
</g>
<path d="M50.2131 109.801C50.2131 109.876 50.5911 109.912 50.9656 110.161C51.3401 110.409 51.5381 110.722 51.6065 110.69C51.6749 110.658 51.5633 110.222 51.106 109.937C50.6488 109.653 50.1951 109.732 50.2131 109.801Z" fill="#263238"/>
<path d="M48.5866 110.478C48.5686 110.553 48.8963 110.679 49.1555 111C49.4147 111.32 49.4868 111.659 49.5624 111.655C49.638 111.652 49.6848 111.223 49.3571 110.831C49.0295 110.438 48.5866 110.406 48.5866 110.478Z" fill="#263238"/>
<path d="M47.6723 112.425C47.7407 112.425 47.8451 112.065 47.6471 111.651C47.4491 111.237 47.0998 111.071 47.0674 111.136C47.035 111.201 47.2547 111.421 47.4275 111.763C47.6003 112.105 47.5967 112.418 47.6723 112.425Z" fill="#263238"/>
<path d="M50.3404 107.979C50.3728 108.047 50.7185 107.943 51.1469 107.979C51.5754 108.015 51.9103 108.141 51.9499 108.076C51.9895 108.011 51.6654 107.741 51.1613 107.716C50.6573 107.691 50.3044 107.917 50.3404 107.979Z" fill="#263238"/>
<g opacity="0.3">
<path d="M50.2182 103.479L50.2722 104.901L57.8873 104.811L57.8945 103.529L50.2182 103.479Z" fill="black"/>
</g>
<path d="M50.3097 106.366C50.5645 106.434 50.8327 106.434 51.0875 106.366C51.3664 106.313 51.6382 106.229 51.8976 106.114C52.0518 106.045 52.201 105.966 52.344 105.876C52.4302 105.826 52.5089 105.764 52.5781 105.692C52.6273 105.638 52.6571 105.569 52.663 105.496C52.6689 105.423 52.6504 105.35 52.6105 105.289C52.5725 105.237 52.5228 105.194 52.4653 105.164C52.4078 105.134 52.3441 105.117 52.2792 105.116C52.1804 105.116 52.0821 105.13 51.9876 105.159C51.8224 105.201 51.661 105.256 51.5051 105.325C51.2416 105.443 50.9985 105.602 50.785 105.797C50.4249 106.132 50.3025 106.412 50.3277 106.43C50.3529 106.448 50.5366 106.218 50.9038 105.941C51.1159 105.78 51.3484 105.648 51.5951 105.548C51.7385 105.49 51.8867 105.444 52.038 105.411C52.2036 105.365 52.344 105.365 52.3981 105.437C52.4521 105.509 52.4161 105.476 52.3981 105.523C52.347 105.576 52.2888 105.622 52.2252 105.66C52.0932 105.746 51.9561 105.824 51.8148 105.894C51.5745 106.013 51.3238 106.109 51.0659 106.182C50.8094 106.223 50.5566 106.285 50.3097 106.366Z" fill="#263238"/>
<path d="M50.4096 106.474C50.5526 106.25 50.623 105.987 50.6113 105.721C50.6226 105.434 50.5861 105.147 50.5032 104.871C50.4511 104.71 50.3849 104.553 50.3052 104.403C50.2619 104.302 50.1935 104.214 50.1066 104.146C50.0197 104.079 49.917 104.035 49.8083 104.018C49.7393 104.019 49.672 104.04 49.6146 104.078C49.5571 104.117 49.5119 104.171 49.4843 104.234C49.4452 104.326 49.4185 104.423 49.4051 104.522C49.3781 104.695 49.3781 104.871 49.4051 105.044C49.4499 105.334 49.5649 105.608 49.7399 105.844C50.0424 106.243 50.3592 106.333 50.3664 106.308C50.3736 106.283 50.1252 106.124 49.8947 105.739C49.7596 105.52 49.6748 105.274 49.6463 105.019C49.6249 104.87 49.6249 104.718 49.6463 104.569C49.6679 104.407 49.7291 104.274 49.7903 104.288C49.8515 104.303 49.9992 104.411 50.064 104.544C50.1405 104.677 50.2055 104.817 50.2584 104.961C50.3453 105.211 50.3962 105.472 50.4096 105.736C50.4456 106.178 50.3664 106.459 50.4096 106.474Z" fill="#263238"/>
<path d="M57.8782 63.6345C67.0344 64.5815 79.1719 65.8273 79.1719 65.8273L77.5156 80.7299C77.5156 80.7299 59.6857 76.0168 59.8117 76.4093C59.9377 76.8017 58.9836 108.116 58.9836 108.116H48.2467L48.0451 72.6395C48.0262 71.38 48.2744 70.1307 48.7733 68.974C49.2721 67.8173 50.0103 66.7795 50.9393 65.9287C51.8683 65.078 52.967 64.4337 54.163 64.0382C55.359 63.6428 56.6252 63.5052 57.8782 63.6345Z" fill="#263238"/>
<path d="M101.078 69.6474V74.2669C101.078 77.4137 97.4956 80.7479 94.3523 80.7479H91.9183C90.0028 80.7479 87 79.3508 85.4373 78.2275L84.5084 77.547L73.3251 112.188C73.3251 112.188 60.5323 109.894 60.5323 109.491C60.5323 109.088 69.1952 81.1187 73.1954 68.1387C74.8301 62.8387 80.5082 59.7566 85.7542 61.5533C85.9306 61.6145 86.1142 61.6829 86.2907 61.7549C92.0371 64.0521 101.078 69.6474 101.078 69.6474Z" fill="#263238"/>
<path d="M60.5459 109.487C60.5681 109.449 60.5862 109.408 60.5999 109.365C60.6395 109.268 60.6863 109.145 60.7439 109.005C60.8664 108.677 61.0428 108.195 61.2516 107.565C61.6801 106.315 62.267 104.49 62.9799 102.232C64.4201 97.7209 66.3212 91.4667 68.4023 84.5536C69.4393 81.0935 70.4222 77.799 71.3224 74.7961C71.7688 73.2983 72.1901 71.8725 72.5862 70.5367C72.7878 69.8694 72.9798 69.2273 73.1622 68.6104C73.3247 68.0157 73.5194 67.4304 73.7455 66.8569C74.1507 65.8819 74.7653 65.008 75.5458 64.2969C76.138 63.7577 76.7712 63.2653 77.4397 62.8243C77.987 62.4642 78.4227 62.187 78.7215 62.007L79.0564 61.7945C79.0974 61.774 79.135 61.7473 79.168 61.7153C79.1246 61.7284 79.0833 61.7478 79.0456 61.7729L78.6855 61.9602C78.3794 62.1258 77.933 62.3814 77.3749 62.7379C76.6898 63.1626 76.0418 63.6444 75.4378 64.1781C74.626 64.8914 73.9838 65.7771 73.5583 66.7705C73.3243 67.3482 73.1224 67.9384 72.9534 68.5384C72.7626 69.1541 72.5682 69.7986 72.3629 70.4647L71.0739 74.7133C70.1702 77.7126 69.1764 81.0071 68.1323 84.4636C66.0512 91.3659 64.1717 97.6164 62.7891 102.168L61.14 107.522L60.6791 108.962C60.6323 109.117 60.5963 109.239 60.5639 109.34C60.5315 109.441 60.5387 109.487 60.5459 109.487Z" fill="#455A64"/>
<path d="M57.847 71.9298C57.7822 71.973 58.3907 72.8875 58.8984 74.1297C59.4061 75.3719 59.6365 76.4449 59.7157 76.4305C59.7949 76.4161 59.6797 75.2999 59.1468 74.0253C58.6139 72.7507 57.901 71.8866 57.847 71.9298Z" fill="#455A64"/>
<path d="M55.7841 73.3701C55.7553 73.4421 56.677 73.849 57.6384 74.6087C58.5997 75.3684 59.219 76.1641 59.2838 76.1173C59.3486 76.0705 58.8086 75.1812 57.804 74.3998C56.7994 73.6185 55.8093 73.3053 55.7841 73.3701Z" fill="#455A64"/>
<path d="M73.2192 112.184C73.2876 112.206 76.3085 102.938 79.9666 91.4808C83.6248 80.0239 86.5268 70.7165 86.4476 70.6949C86.3684 70.6733 83.3584 79.9411 79.7002 91.4016C76.042 102.862 73.1472 112.162 73.2192 112.184Z" fill="#455A64"/>
<path d="M86.9414 58.1435L50.3418 58.4964L43.5151 39.2046L70.1376 39.3846L76.3162 56.7321L86.9414 56.8941V58.1435Z" fill="#455A64"/>
<path d="M59.1909 50.5141C59.4816 50.4734 59.7537 50.3474 59.9728 50.152C60.1918 49.9566 60.348 49.7006 60.4215 49.4164C60.495 49.1322 60.4825 48.8326 60.3857 48.5555C60.2888 48.2784 60.1119 48.0363 59.8774 47.8597C59.6429 47.6832 59.3613 47.5802 59.0682 47.5638C58.7751 47.5474 58.4838 47.6184 58.231 47.7676C57.9782 47.9169 57.7755 48.1378 57.6483 48.4023C57.5211 48.6669 57.4753 48.9633 57.5167 49.2539C57.572 49.6428 57.7794 49.9939 58.0932 50.2302C58.4071 50.4664 58.8019 50.5685 59.1909 50.5141Z" fill="white"/>
<path d="M89.9313 5.92837C89.5712 4.64297 88.6171 4.01287 87.3605 3.58441C86.7277 3.37388 86.0534 3.31959 85.395 3.42618C84.7367 3.53277 84.114 3.79706 83.5799 4.1965C82.8598 4.73658 82.3197 5.51791 81.4772 5.80955C80.0946 6.28842 78.4743 5.25506 77.1565 5.87436C76.7557 6.05685 76.4312 6.37385 76.2396 6.77042C76.0479 7.16699 76.001 7.61813 76.107 8.04565C76.213 8.47316 76.4653 8.85011 76.8201 9.11116C77.1748 9.3722 77.6098 9.50089 78.0495 9.47491C77.1493 9.80616 76.8685 11.0916 77.3942 11.8945C77.9199 12.6974 79.0036 12.9999 79.9506 12.8234C80.8887 12.5948 81.7465 12.1142 82.4313 11.4336C83.1515 10.7927 83.7852 10.0654 84.5485 9.48211C85.2893 8.85525 86.2281 8.51086 87.1985 8.50997C88.4983 8.57838 89.6108 9.55772 90.1905 10.7243C90.7702 11.8909 90.9106 13.2159 90.9755 14.5157C91.0403 15.8155 91.0691 17.1333 91.4543 18.3755C91.5011 18.5231 91.5695 18.6851 91.7136 18.7355C91.926 18.8003 92.106 18.5771 92.2104 18.3755C93.3941 16.1753 94.1342 13.7641 94.3888 11.2788C94.5364 9.83857 94.5004 8.47756 93.7083 7.26417C92.9162 6.05079 90.9179 5.16145 89.9385 5.92837" fill="#263238"/>
<path d="M92.4381 11.9518L93.1042 26.5196C93.2159 28.9968 92.8738 32.6622 88.9492 32.6622C85.5431 32.403 84.5385 29.2201 84.4341 26.9013C84.3873 25.8211 84.3441 24.8922 84.3297 24.7806C84.3297 24.7806 80.6067 24.6006 80.1711 20.9424C79.9622 19.1745 79.811 15.4948 79.739 12.1678C79.6964 10.4467 80.3019 8.77235 81.4356 7.47662C82.5693 6.18088 84.1484 5.35833 85.8599 5.17197L86.22 5.13597C90.0618 4.95954 92.3625 8.11363 92.4381 11.9518Z" fill="#FFBE9D"/>
<path d="M84.3228 24.7342C86.0173 24.5867 87.6294 23.9373 88.9531 22.8691C88.9531 22.8691 88.107 25.6236 84.4164 25.6848L84.3228 24.7342Z" fill="#EB996E"/>
<path d="M81.0686 14.5158C81.0814 14.6527 81.1474 14.7792 81.2524 14.8681C81.3574 14.9569 81.4931 15.0011 81.6303 14.9911C81.6973 14.9892 81.7632 14.974 81.8242 14.9462C81.8852 14.9184 81.94 14.8787 81.9853 14.8293C82.0307 14.7799 82.0656 14.722 82.0881 14.6588C82.1106 14.5957 82.1202 14.5287 82.1163 14.4618C82.1035 14.3255 82.038 14.1996 81.9338 14.1108C81.8296 14.0221 81.6949 13.9775 81.5583 13.9865C81.491 13.9878 81.4246 14.0027 81.3632 14.0303C81.3018 14.0579 81.2466 14.0976 81.2009 14.147C81.1551 14.1964 81.1199 14.2545 81.0971 14.3179C81.0744 14.3813 81.0647 14.4486 81.0686 14.5158Z" fill="#263238"/>
<path d="M80.7196 13.8893C80.7916 13.9505 81.1552 13.6156 81.7205 13.558C82.2858 13.5004 82.7251 13.738 82.7791 13.6624C82.8331 13.5868 82.7251 13.5112 82.5307 13.3996C82.269 13.2569 81.9699 13.1979 81.6737 13.2304C81.3802 13.263 81.105 13.3892 80.8888 13.5904C80.7304 13.7344 80.6836 13.8641 80.7196 13.8893Z" fill="#263238"/>
<path d="M86.6122 14.1196C86.6251 14.2565 86.691 14.383 86.7961 14.4719C86.9011 14.5607 87.0367 14.6049 87.1739 14.5949C87.2409 14.5925 87.3068 14.577 87.3677 14.5491C87.4287 14.5212 87.4835 14.4815 87.529 14.4323C87.5746 14.383 87.6099 14.3253 87.633 14.2624C87.6561 14.1994 87.6665 14.1326 87.6636 14.0656C87.649 13.9293 87.5825 13.8039 87.4779 13.7154C87.3733 13.6269 87.2387 13.5821 87.1019 13.5903C87.0348 13.5921 86.9686 13.6074 86.9075 13.6351C86.8463 13.6629 86.7913 13.7026 86.7457 13.7519C86.7 13.8012 86.6647 13.8591 86.6418 13.9223C86.6189 13.9854 86.6088 14.0525 86.6122 14.1196Z" fill="#263238"/>
<path d="M86.2665 13.4069C86.3385 13.4681 86.7021 13.1332 87.2674 13.072C87.8327 13.0108 88.272 13.2521 88.326 13.1764C88.38 13.1008 88.272 13.0288 88.0775 12.9172C87.8163 12.7734 87.5169 12.7143 87.2206 12.748C86.9276 12.7823 86.6529 12.9083 86.4357 13.108C86.2773 13.2485 86.2304 13.3781 86.2665 13.4069Z" fill="#263238"/>
<path d="M84.668 17.7991C84.3613 17.7368 84.0479 17.7138 83.7354 17.7307C83.5878 17.7307 83.451 17.7307 83.415 17.6227C83.3887 17.4745 83.4062 17.3218 83.4654 17.1834C83.5662 16.8234 83.667 16.4417 83.775 16.0457C84.1999 14.4254 84.4951 13.0968 84.4267 13.0788C84.3583 13.0608 83.9623 14.3642 83.5374 15.9844C83.4366 16.3841 83.3394 16.7658 83.2493 17.1294C83.1803 17.314 83.1803 17.5173 83.2493 17.7019C83.2749 17.7505 83.3112 17.7927 83.3555 17.8252C83.3998 17.8576 83.4509 17.8795 83.505 17.8891C83.5875 17.8996 83.6709 17.8996 83.7534 17.8891C84.0608 17.8958 84.3678 17.8656 84.668 17.7991Z" fill="#263238"/>
<path d="M86.3626 18.012C86.2726 18.012 86.3338 18.6277 85.8585 19.1173C85.3832 19.607 84.7243 19.607 84.7279 19.6934C84.7315 19.7798 84.8863 19.7978 85.1636 19.7762C85.5221 19.7415 85.8572 19.5823 86.1105 19.3262C86.3527 19.0802 86.4895 18.7496 86.4922 18.4044C86.4886 18.1488 86.3914 18.0048 86.3626 18.012Z" fill="#263238"/>
<path d="M85.8835 11.2138C85.9555 11.3615 86.51 11.2138 87.1797 11.239C87.8494 11.2643 88.4003 11.3723 88.4759 11.239C88.5047 11.1706 88.3967 11.0374 88.1663 10.9114C87.8594 10.7599 87.5219 10.6812 87.1797 10.6812C86.8375 10.6812 86.5 10.7599 86.1932 10.9114C85.9627 11.0122 85.8511 11.1454 85.8835 11.2138Z" fill="#263238"/>
<path d="M80.754 12.2402C80.8656 12.3554 81.24 12.1826 81.7045 12.125C82.169 12.0674 82.5758 12.125 82.6514 11.9774C82.6875 11.909 82.6118 11.7865 82.4246 11.6821C82.1785 11.5597 81.9008 11.5157 81.6289 11.5561C81.3598 11.5923 81.1083 11.7104 80.9088 11.8946C80.7432 12.0422 80.7035 12.1826 80.754 12.2402Z" fill="#263238"/>
<path d="M92.4279 14.6956C92.4891 14.6632 94.8655 13.6838 95.0527 16.197C95.24 18.7102 92.6764 18.3789 92.6692 18.3069C92.662 18.2349 92.4279 14.6956 92.4279 14.6956Z" fill="#FFBE9D"/>
<path d="M93.3652 17.2991C93.3652 17.2991 93.412 17.3279 93.4876 17.3567C93.5953 17.3914 93.712 17.385 93.8152 17.3387C93.9699 17.2229 94.0912 17.0684 94.1671 16.8908C94.243 16.7132 94.2706 16.5187 94.2473 16.3269C94.2371 16.1117 94.1793 15.9014 94.0781 15.7112C94.0481 15.6337 93.9996 15.5646 93.9368 15.51C93.8741 15.4554 93.799 15.417 93.718 15.398C93.6668 15.3894 93.6142 15.3987 93.569 15.4242C93.5237 15.4498 93.4887 15.4901 93.4696 15.5384C93.4408 15.6104 93.4696 15.6608 93.448 15.6644C93.4264 15.668 93.3904 15.6284 93.4012 15.5204C93.4108 15.4574 93.4428 15.3999 93.4912 15.3584C93.5233 15.3294 93.5608 15.3072 93.6016 15.2929C93.6425 15.2787 93.6857 15.2728 93.7288 15.2756C93.8338 15.2893 93.9335 15.3296 94.0185 15.3926C94.1036 15.4556 94.1711 15.5392 94.2149 15.6356C94.3364 15.8453 94.4055 16.0812 94.4165 16.3233C94.4381 16.831 94.2149 17.3243 93.8584 17.4575C93.7926 17.4815 93.7221 17.4904 93.6523 17.4836C93.5825 17.4767 93.5151 17.4543 93.4552 17.4179C93.376 17.3603 93.358 17.3027 93.3652 17.2991Z" fill="#EB996E"/>
<path d="M78.8842 11.4844C79.7176 11.6052 80.5677 11.5269 81.3651 11.2559C82.1624 10.9849 82.8841 10.5289 83.4713 9.92533C84.2814 9.0756 84.8539 7.91622 85.9341 7.45175C86.3043 7.3103 86.6988 7.24352 87.0949 7.25526C87.491 7.267 87.8809 7.35703 88.2421 7.52016C88.9634 7.85267 89.6082 8.33075 90.1359 8.92438C89.6283 10.8615 90.3232 12.885 91.0109 14.7681C91.0664 14.9856 91.1931 15.1783 91.3709 15.3154C91.6914 15.5134 92.1162 15.2866 92.3467 14.9877C92.6768 14.4812 92.852 13.8893 92.8508 13.2846C92.9715 11.9141 92.8173 10.5333 92.3971 9.22322C91.97 7.9112 91.1691 6.75242 90.0927 5.88911C88.6971 4.85843 86.955 4.41161 85.2356 4.64332C83.5254 4.8765 81.9326 5.64391 80.6845 6.83606C80.0801 7.35924 79.616 8.02509 79.3343 8.77315" fill="#263238"/>
<path d="M136.273 58.2627V61.7048H117.212V112.998H115.459V61.7048L35.854 62.0973V112.998H34.1329V62.0037L21.8479 62.1009V57.9639L136.273 58.2627Z" fill="#263238"/>
<path d="M124.076 61.0352L116.562 66.4468L117.214 67.0733L124.793 61.3664L124.076 61.0352Z" fill="#263238"/>
<path d="M27.049 61.5391L35.7695 67.75L35.1142 68.3765L26.3325 61.8703L27.049 61.5391Z" fill="#263238"/>
<path d="M88.8525 56.9917H108.555V58.4427H88.8525V56.9917Z" fill="#263238"/>
</svg>
