<svg width="37" height="37" viewBox="0 0 37 37" fill="none" xmlns="http://www.w3.org/2000/svg">
<path d="M35.3333 17V13.6667C35.3333 5.33333 32 2 23.6667 2H13.6667C5.33333 2 2 5.33333 2 13.6667V23.6667C2 32 5.33333 35.3333 13.6667 35.3333H15.3333" stroke="#142349" stroke-width="3" stroke-linecap="round" stroke-linejoin="round"/>
<path d="M2.05078 12.832H35.3341" stroke="#142349" stroke-width="3" stroke-linecap="round" stroke-linejoin="round"/>
<path d="M2.05078 24.5H18.6674" stroke="#142349" stroke-width="3" stroke-linecap="round" stroke-linejoin="round"/>
<path d="M12.8516 35.3156V2.01562" stroke="#142349" stroke-width="3" stroke-linecap="round" stroke-linejoin="round"/>
<path d="M24.5195 18.6489V2.01562" stroke="#142349" stroke-width="3" stroke-linecap="round" stroke-linejoin="round"/>
<path d="M22.968 30.033C22.7014 30.2996 22.4513 30.8164 22.3847 31.1831L22.0014 33.833C21.868 34.783 22.5347 35.4664 23.4847 35.3164L26.1347 34.9331C26.5013 34.8831 27.018 34.6165 27.2847 34.3498L34.2014 27.4331C35.3847 26.2498 35.9514 24.8498 34.2014 23.0998C32.468 21.3665 31.0847 21.9165 29.8847 23.1165L22.968 30.033Z" stroke="#142349" stroke-width="3" stroke-linecap="round" stroke-linejoin="round"/>
<path d="M28.9023 24.0996C29.4857 26.1996 31.1356 27.8329 33.2356 28.4329" stroke="#142349" stroke-width="3" stroke-linecap="round" stroke-linejoin="round"/>
</svg>
