<svg width="82" height="71" viewBox="0 0 82 71" fill="none" xmlns="http://www.w3.org/2000/svg">
<path d="M59.4763 16.1668C60.2718 14.5909 60.9313 12.95 61.4478 11.262C61.9618 9.56408 62.0451 7.76492 61.6901 6.02679C61.6313 5.76613 61.055 3.9966 60.787 3.98926C60.5961 3.98926 60.8824 5.60093 60.7686 5.75512C59.6672 7.20159 59.1679 9.05924 59.0835 10.8728C59.0178 12.6466 59.1495 14.4221 59.4763 16.1668Z" fill="#263238"/>
<path d="M47.8256 29.846C47.9688 28.6088 48.659 22.4191 48.6479 22.4191C48.6369 22.4191 44.4627 21.4462 44.7197 17.2096C44.8445 15.161 45.454 10.9685 46.034 7.17243C46.3362 5.20411 47.3688 3.42189 48.9262 2.18087C50.4836 0.939857 52.4514 0.331168 54.4375 0.476089L54.845 0.505454C59.2505 1.08918 61.1926 5.13856 60.4877 9.511L57.3121 29.846L49.8374 29.4789L47.8256 29.846Z" fill="#E2C6B7"/>
<path d="M48.6498 22.4003C50.6069 22.5389 52.5626 22.1133 54.2852 21.1741C54.2852 21.1741 52.7322 24.2212 48.5323 23.5273L48.6498 22.4003Z" fill="#FF9A6C"/>
<path d="M47.3009 11.1225C47.2875 11.2797 47.336 11.4361 47.4361 11.5581C47.5362 11.6802 47.68 11.7583 47.8369 11.7759C47.9135 11.7884 47.9919 11.7852 48.0672 11.7666C48.1426 11.748 48.2134 11.7144 48.2755 11.6678C48.3375 11.6212 48.3895 11.5625 48.4284 11.4953C48.4672 11.4281 48.492 11.3537 48.5014 11.2766C48.5158 11.1192 48.4676 10.9623 48.3673 10.8401C48.267 10.7178 48.1227 10.6399 47.9654 10.6232C47.8888 10.6107 47.8104 10.6139 47.7351 10.6325C47.6597 10.6511 47.5889 10.6847 47.5268 10.7313C47.4648 10.7779 47.4128 10.8366 47.374 10.9038C47.3351 10.971 47.3103 11.0454 47.3009 11.1225Z" fill="#263238"/>
<path d="M46.8133 8.97852C46.883 9.06296 47.364 8.75825 48.0138 8.80597C48.6636 8.8537 49.1152 9.21714 49.1959 9.14372C49.2767 9.07029 49.1665 8.96016 48.972 8.79496C48.7037 8.57926 48.3756 8.45111 48.0321 8.42783C47.6936 8.4025 47.3557 8.48473 47.0666 8.66279C46.8573 8.80229 46.7766 8.93814 46.8133 8.97852Z" fill="#263238"/>
<path d="M53.2111 11.8568C53.1977 12.0147 53.2467 12.1715 53.3476 12.2937C53.4485 12.4158 53.5932 12.4936 53.7507 12.5103C53.827 12.5217 53.9048 12.5177 53.9795 12.4987C54.0543 12.4796 54.1244 12.4459 54.186 12.3994C54.2475 12.3529 54.2992 12.2946 54.3379 12.2279C54.3766 12.1612 54.4017 12.0875 54.4116 12.011C54.4259 11.8535 54.3778 11.6967 54.2775 11.5744C54.1772 11.4521 54.0328 11.3742 53.8756 11.3575C53.7989 11.3451 53.7206 11.3483 53.6452 11.3669C53.5699 11.3854 53.499 11.4191 53.437 11.4657C53.3749 11.5123 53.3229 11.571 53.2841 11.6382C53.2453 11.7054 53.2204 11.7798 53.2111 11.8568Z" fill="#263238"/>
<path d="M53.169 9.70892C53.2388 9.79336 53.7234 9.48865 54.3732 9.54005C55.023 9.59144 55.4746 9.94755 55.5553 9.87413C55.6361 9.8007 55.526 9.69424 55.3277 9.52903C55.0621 9.31106 54.7345 9.18256 54.3915 9.16191C54.0528 9.13372 53.714 9.21615 53.426 9.39686C53.2131 9.53637 53.136 9.67221 53.169 9.70892Z" fill="#263238"/>
<path d="M50.4649 14.5403C50.13 14.4076 49.7797 14.3176 49.4223 14.2722C49.2571 14.2429 49.1029 14.1988 49.0809 14.0813C49.0816 13.909 49.1326 13.7405 49.2277 13.5967L49.8151 12.3669C50.6301 10.6157 51.2322 9.16923 51.1625 9.13986C51.0927 9.11049 50.3732 10.5019 49.5581 12.2531L48.9928 13.4903C48.8733 13.6831 48.8252 13.9118 48.8569 14.1364C48.8772 14.1969 48.9109 14.2521 48.9553 14.2978C48.9998 14.3436 49.054 14.3788 49.1139 14.4007C49.204 14.4323 49.2978 14.4521 49.3929 14.4595C49.7454 14.5317 50.1056 14.5588 50.4649 14.5403Z" fill="#263238"/>
<path d="M47.4096 6.23968C47.5051 6.40121 47.9677 6.30208 48.511 6.35715C49.0544 6.41222 49.4912 6.57008 49.6124 6.43058C49.6675 6.36082 49.6124 6.20296 49.4325 6.04143C49.1861 5.83993 48.8835 5.71941 48.5661 5.69633C48.2497 5.6646 47.9314 5.73263 47.6556 5.8909C47.4464 6.0194 47.3619 6.16258 47.4096 6.23968Z" fill="#263238"/>
<path d="M53.1537 8.21134C53.2601 8.36553 53.719 8.24071 54.255 8.26641C54.791 8.2921 55.2463 8.42794 55.3564 8.26641C55.4078 8.19665 55.3564 8.04246 55.1545 7.89928C54.8993 7.71009 54.591 7.60605 54.2734 7.60191C53.9557 7.58753 53.6414 7.6722 53.3739 7.84422C53.1794 7.98739 53.1096 8.13424 53.1537 8.21134Z" fill="#263238"/>
<path d="M59.9141 12.6202C59.9875 12.5945 62.8878 11.9741 62.583 14.8633C62.2783 17.7526 59.1615 16.9559 59.1651 16.8715C59.1688 16.7871 59.9141 12.6202 59.9141 12.6202Z" fill="#E2C6B7"/>
<path d="M60.4425 15.7665C60.4425 15.7665 60.4866 15.8069 60.5673 15.8546C60.6799 15.9142 60.8103 15.9312 60.9344 15.9023C61.2502 15.8215 61.5586 15.3626 61.6283 14.845C61.6616 14.5984 61.639 14.3474 61.5622 14.1108C61.5449 14.0171 61.5052 13.9291 61.4463 13.8543C61.3875 13.7795 61.3114 13.7201 61.2245 13.6812C61.1682 13.6603 61.1063 13.6594 61.0495 13.6788C60.9926 13.6982 60.9442 13.7367 60.9124 13.7877C60.8647 13.8648 60.8794 13.9272 60.861 13.9272C60.8427 13.9272 60.806 13.8721 60.861 13.7583C60.8837 13.6882 60.9306 13.6283 60.9932 13.5894C61.0354 13.563 61.0826 13.5455 61.1318 13.538C61.1811 13.5304 61.2313 13.5329 61.2795 13.5454C61.3957 13.581 61.5007 13.646 61.5843 13.7341C61.6679 13.8222 61.7273 13.9305 61.7568 14.0483C61.8535 14.311 61.885 14.5932 61.8486 14.8707C61.7678 15.4507 61.4117 15.9721 60.9822 16.0418C60.9018 16.0555 60.8194 16.0515 60.7407 16.0299C60.6621 16.0084 60.5891 15.9698 60.5269 15.917C60.4388 15.8362 60.4315 15.7701 60.4425 15.7665Z" fill="#FF9A6C"/>
<path d="M48.4621 2.58683C48.0252 2.27477 49.6001 0.923759 50.808 0.534607C52.6436 -0.0564622 55.3383 -0.236359 56.8875 0.402437C58.7489 1.16973 60.2394 2.31149 61.0067 4.17281C61.7323 6.06521 61.9426 8.11628 61.6161 10.1165C61.5689 10.7332 61.3586 11.3261 61.0067 11.8347C60.5294 12.4258 59.7107 12.7378 59.6446 13.6226C59.6285 13.947 59.4846 14.2519 59.2445 14.4706C58.6497 14.9699 58.066 14.3678 57.8274 13.8061C57.3244 12.602 57.4089 11.2363 57.5006 9.944C57.5161 9.01502 57.6835 8.09483 57.9963 7.21993C58.1945 6.75369 58.2275 4.59133 58.3964 4.11774C58.4975 3.88503 58.4028 4.37137 58.3964 4.11774C58.3901 3.86411 58.7183 4.60944 58.6057 4.38207C58.544 4.28789 58.4739 4.19943 58.3964 4.11774C58.3964 6.40822 58.9095 7.66004 58.3964 7.5C57.8834 7.33996 56.0013 3.08575 55.4778 3.20727C55.4778 5.85057 46.6628 5.0172 46.002 4.38207C45.0474 3.46793 49.1082 2.03247 49.1082 2.03247L48.4621 2.58683Z" fill="#263238"/>
<path d="M50.0073 16.2807C50.0403 16.1779 50.5543 16.2807 51.0903 16.0531C51.6263 15.8255 51.92 15.4033 52.0191 15.451C52.0632 15.473 52.0522 15.6235 51.9347 15.8181C51.7685 16.0813 51.5248 16.2866 51.2372 16.4055C50.9499 16.5241 50.6324 16.5486 50.3304 16.4753C50.1028 16.4275 49.989 16.3284 50.0073 16.2807Z" fill="#263238"/>
<path d="M57.6418 8.97856C58.3341 9.06459 59.0351 9.05098 59.7234 8.93817C60.8652 8.82069 61.772 8.57105 61.7536 8.49395C61.7353 8.41685 60.8358 8.62979 59.7014 8.75094C58.567 8.87209 57.6418 8.91982 57.6418 8.97856Z" fill="#EBEBEB"/>
<path d="M64.3948 44.7916L70.68 44.4685L64.7179 39.5344L69.4905 30.7234C69.4905 30.7234 79.4836 42.4089 80.3537 44.072C81.3266 45.937 82.1526 48.9658 79.4579 50.449C77.5856 51.4769 62.7868 51.3704 62.7868 51.3704L64.3948 44.7916Z" fill="#E2C6B7"/>
<path d="M55.8516 67.9608V70.2847L37.6092 70.5527L37.1172 63.0156L55.8516 67.9608Z" fill="#263238"/>
<path d="M39.1445 24.6143C39.1445 24.6143 26.9744 35.2388 26.7835 34.9818C26.5926 34.7248 22.7635 24.6143 22.7635 24.6143L15.8248 24.7538C15.8248 24.7538 19.4961 40.0775 21.7502 42.093C24.0043 44.1085 26.5228 43.4551 28.252 43.1136C29.9811 42.7722 38.3662 35.0736 38.3662 35.0736L39.1445 24.6143Z" fill="#E2C6B7"/>
<path d="M57.9174 24.4162L67.6719 27.7203L65.5426 35.5438L61.2509 48.1361L56.2249 68.0563L27.9784 60.9047L36.0552 35.8375L39.139 24.6182L41.7786 23.6416L46.5512 24.3758L48.1886 24.2584C48.1886 24.2584 47.7995 26.3179 51.6506 26.4611C53.9671 26.5419 57.9174 24.4162 57.9174 24.4162Z" fill="#E0E0E0"/>
<path d="M36.7136 38.2896L33.2773 40.4373L29.3968 32.0632C29.3968 32.0632 36.9559 24.3022 39.4267 23.7772C41.8974 23.2522 42.7969 24.0195 42.7969 24.0195L36.7136 38.2896Z" fill="#E0E0E0"/>
<path d="M67.9521 44.1893L76.6016 38.3447C76.6016 38.3447 70.8634 30.6351 70.0484 29.6916C69.3508 28.8521 68.4903 28.1627 67.5189 27.665L63.9762 40.0665L67.9521 44.1893Z" fill="#E0E0E0"/>
<path d="M66.2996 32.948C66.3363 32.948 65.4993 35.6317 64.4346 38.9138C63.37 42.1959 62.4815 44.8465 62.4485 44.8355C62.4154 44.8245 63.2488 42.1555 64.3135 38.8734C65.3781 35.5913 66.2666 32.937 66.2996 32.948Z" fill="#263238"/>
<path d="M36.7128 48.0257L44.9805 47.989V49.7916L44.8777 70.4607L22.4831 70.5488L22.4464 62.417C22.4464 61.6827 21.6608 61.1467 20.8311 61.1357C20.4198 61.1332 20.0241 61.2928 19.7297 61.5799C19.1495 62.1648 18.3717 62.5117 17.549 62.5528C17.2209 62.5604 16.8948 62.4992 16.5918 62.3733C16.2887 62.2473 16.0153 62.0594 15.7892 61.8215C15.5631 61.5836 15.3893 61.3011 15.2788 60.9921C15.1684 60.683 15.1238 60.3543 15.148 60.027C15.1737 58.5585 16.0217 57.6811 17.6334 57.5673C18.8119 57.4828 19.3919 58.1547 19.8361 58.5915C19.9699 58.731 20.1299 58.8427 20.3069 58.9202C20.484 58.9976 20.6746 59.0394 20.8678 59.0431C21.0532 59.0587 21.2399 59.0375 21.4171 58.9807C21.5944 58.924 21.7587 58.8328 21.9006 58.7124C22.0425 58.5919 22.1592 58.4447 22.244 58.2791C22.3289 58.1134 22.3802 57.9327 22.395 57.7472V48.1689H25.9157L31.4226 48.1138C31.7982 48.1267 32.1637 47.9903 32.4389 47.7343C32.7141 47.4783 32.8767 47.1237 32.8911 46.7481C32.8875 46.5607 32.8422 46.3764 32.7584 46.2087C32.6745 46.0411 32.5543 45.8942 32.4065 45.7789C31.9182 45.3861 31.228 44.6776 31.2133 43.8589C31.1913 42.5666 32.3147 41.6561 33.9557 41.6304C35.5968 41.6047 36.7495 42.4932 36.7716 43.7818C36.7716 44.6151 36.1218 45.331 35.6445 45.7349C35.5008 45.855 35.3857 46.0056 35.3076 46.1758C35.2295 46.346 35.1903 46.5315 35.1929 46.7188C35.2248 47.0922 35.4018 47.4382 35.686 47.6826C35.9702 47.927 36.3388 48.0501 36.7128 48.0257Z" fill="#455A64"/>
<path d="M8.74339 48.1507C9.12012 48.1264 9.49125 48.2515 9.77641 48.4988C10.0616 48.7462 10.2378 49.0959 10.267 49.4723C10.2689 49.6598 10.229 49.8454 10.1503 50.0156C10.0715 50.1858 9.95589 50.3363 9.81173 50.4562C9.33814 50.8601 8.66997 51.5759 8.68465 52.4093C8.70668 53.6979 9.87414 54.5864 11.5005 54.5607C13.1269 54.535 14.2649 53.6245 14.2429 52.3322C14.2429 51.5025 13.5417 50.805 13.0534 50.4122C12.9057 50.2965 12.7853 50.1497 12.7009 49.9822C12.6165 49.8146 12.5702 49.6305 12.5652 49.443C12.5725 49.1319 12.6856 48.8326 12.8858 48.5943C13.086 48.3561 13.3613 48.1931 13.6665 48.1323L20.5464 48.158L22.3821 48.1837L22.3967 57.7473C22.3668 58.1206 22.1899 58.4667 21.9049 58.7097C21.6199 58.9527 21.2502 59.0727 20.8768 59.0433C20.6836 59.0396 20.4931 58.9978 20.316 58.9203C20.139 58.8428 19.979 58.7311 19.8452 58.5917C19.412 58.1548 18.832 57.4903 17.6425 57.5674C16.0308 57.6812 15.1828 58.566 15.1571 60.0271C15.1329 60.3544 15.1775 60.6832 15.2879 60.9922C15.3983 61.3013 15.5722 61.5838 15.7983 61.8216C16.0244 62.0595 16.2978 62.2474 16.6008 62.3734C16.9039 62.4993 17.2299 62.5605 17.558 62.553C18.3808 62.5119 19.1586 62.1649 19.7388 61.5801C20.0332 61.293 20.4289 61.1334 20.8401 61.1359C21.5964 61.1359 22.3086 61.5874 22.4371 62.2372C22.4256 62.299 22.4194 62.3616 22.4188 62.4245L22.4922 70.5599L0.00217438 70.4718L0.266504 48.2021L8.74339 48.1507Z" fill="#FF9A6C"/>
<path d="M8.85035 48.2389L0.266991 48.1875V46.473L0.369785 25.8076L22.4706 25.7195L22.511 33.8513C22.511 34.5855 23.2857 35.1215 24.1043 35.1325C24.5076 35.131 24.8946 34.9731 25.1837 34.692C25.752 34.1068 26.5204 33.758 27.335 33.7154C28.7558 33.7375 29.7287 34.7801 29.7067 36.2413C29.6846 37.7024 28.8439 38.5872 27.2506 38.7047C26.0868 38.7891 25.5178 38.1136 25.0846 37.6767C24.9545 37.5375 24.7977 37.4258 24.6237 37.3482C24.4497 37.2707 24.2618 37.2288 24.0713 37.2251C23.7 37.1978 23.3329 37.3189 23.0507 37.5619C22.7686 37.8048 22.5943 38.1498 22.5661 38.5211L22.3862 48.1728H19.0821H14.0819C13.8956 48.1654 13.7098 48.195 13.535 48.2597C13.3602 48.3245 13.2 48.4232 13.0635 48.5501C12.927 48.677 12.8169 48.8297 12.7397 48.9993C12.6625 49.169 12.6195 49.3522 12.6134 49.5385C12.6393 49.7297 12.7054 49.9132 12.8073 50.0771C12.9092 50.2409 13.0445 50.3814 13.2044 50.4893C13.508 50.7207 13.7599 51.013 13.9439 51.3475C14.1278 51.6819 14.2399 52.0511 14.2728 52.4314C14.2948 53.72 13.1714 54.6342 11.5634 54.6599C9.95539 54.6856 8.69983 53.7604 8.6778 52.4571C8.6778 51.6237 9.33128 50.8528 9.8012 50.4489C9.9433 50.3397 10.0581 50.1989 10.1364 50.0378C10.2148 49.8766 10.2546 49.6994 10.2528 49.5201C10.2492 49.3425 10.2096 49.1674 10.1363 49.0056C10.063 48.8437 9.95758 48.6985 9.82641 48.5787C9.69524 48.4588 9.54108 48.3669 9.37329 48.3085C9.20549 48.2501 9.02758 48.2264 8.85035 48.2389Z" fill="#455A64"/>
<g opacity="0.3">
<path d="M35.981 36.9974C36.0347 36.818 36.1234 36.6509 36.242 36.5059C36.3605 36.3609 36.5065 36.2408 36.6717 36.1524C36.8368 36.064 37.0178 36.0092 37.2042 35.991C37.3906 35.9729 37.5788 35.9917 37.7579 36.0465C37.943 36.097 38.1156 36.1854 38.2648 36.3061C38.4139 36.4268 38.5364 36.5772 38.6243 36.7477C38.9253 37.2984 39.3071 38.1171 40.4599 38.3117C42.0239 38.5797 43.0555 37.8858 43.4483 36.4137C43.8411 34.9415 43.1693 33.6419 41.8073 33.2784C41.0022 33.1258 40.1693 33.2945 39.487 33.7483C39.1426 33.9606 38.7282 34.0279 38.3343 33.9356C37.5486 33.7263 36.9245 33.0031 37.1228 32.2541L38.5509 26.4242L39.1676 24.0085L60.7031 29.5154L55.1742 52.0201L47.1893 50.1551C46.8163 50.073 46.49 49.8488 46.2796 49.5301C46.0692 49.2114 45.9912 48.8232 46.0622 48.448C46.1063 48.2593 46.1904 48.0824 46.3088 47.9291C46.4273 47.7758 46.5773 47.6498 46.7487 47.5595C47.3068 47.2658 48.1328 46.7005 48.331 45.8524C48.6358 44.5418 47.74 43.3633 46.165 42.9925C44.5901 42.6217 43.2611 43.2752 42.9564 44.5895C42.7581 45.4339 43.2464 46.3076 43.6172 46.8216C43.7303 46.9789 43.8085 47.1585 43.8465 47.3485C43.8845 47.5384 43.8814 47.7343 43.8375 47.923C43.7591 48.2301 43.5795 48.5018 43.3277 48.6943C43.0759 48.8868 42.7666 48.9889 42.4497 48.984L35.2578 47.1484L33.569 46.7005L35.981 36.9974Z" fill="black"/>
</g>
<g opacity="0.3">
<path d="M22.5974 25.7381C21.0481 25.0993 19.4034 26.4099 17.8541 25.7711C17.6309 25.6467 17.3713 25.6039 17.1199 25.6499C16.9828 25.7131 16.8631 25.8085 16.771 25.9281C16.6789 26.0476 16.6172 26.1878 16.5912 26.3365C16.493 26.7418 16.4807 27.1633 16.5553 27.5737C16.63 27.9841 16.7898 28.3743 17.0244 28.7191C17.5026 29.4083 18.1747 29.9398 18.9555 30.2463C19.5683 30.5295 20.2572 30.6031 20.916 30.4556C22.0283 30.1399 22.6121 26.9092 22.5974 25.7381Z" fill="black"/>
</g>
<path d="M22.8996 24.706C22.6728 24.58 22.4897 24.3879 22.3747 24.1553C22.1948 23.6597 20.8181 23.4211 20.8181 23.4211C20.6004 23.3004 20.3747 23.1949 20.1425 23.1053C19.7754 22.9768 19.0412 23.4908 19.0412 23.4908C18.2519 23.0539 18.0096 23.2779 17.536 23.5863C17.3327 23.6954 17.1408 23.8245 16.9633 23.9717C16.9186 23.9207 16.8606 23.883 16.7958 23.863C16.731 23.8429 16.6619 23.8411 16.5961 23.8579C16.383 23.8864 16.1828 23.9767 16.0204 24.1176C15.8579 24.2585 15.7403 24.4439 15.682 24.6509C15.467 25.2857 15.3206 25.9417 15.2451 26.6077C15.2671 27.1657 15.9794 28.5351 15.9794 28.5351C15.9794 28.5351 16.6035 28.9242 17.011 28.7444C17.4185 28.5645 16.9522 27.3089 16.9522 27.3089L17.301 25.6091C17.301 25.6091 17.8774 29.3207 18.1638 29.7576C18.4501 30.1945 19.3679 30.1247 19.3679 30.1247C20.2821 30.9104 20.7153 30.2239 20.7153 30.2239C20.7153 30.2239 20.8291 30.3487 21.2329 30.1688C21.6367 29.9889 22.36 25.7193 22.36 25.7193L23.5898 25.8698C23.5823 25.6333 23.5151 25.4026 23.3944 25.1991C23.2737 24.9957 23.1035 24.826 22.8996 24.706Z" fill="#E2C6B7"/>
<path d="M18.765 24.6289C18.7804 24.7016 18.7914 24.7752 18.7981 24.8492C18.7981 25.0034 18.8348 25.2163 18.8605 25.4439C18.9082 25.9469 18.9706 26.6444 19.033 27.4117C19.0629 28.0678 19.134 28.7213 19.246 29.3685C19.2873 29.5631 19.3425 29.7545 19.4112 29.9412C19.4408 30.0082 19.4665 30.0768 19.4883 30.1468C19.4883 30.1468 19.4883 30.1468 19.4552 30.0991C19.4222 30.0513 19.4112 30.0183 19.3818 29.9522C19.3004 29.7686 19.2353 29.5782 19.1872 29.3832C19.06 28.7352 18.9814 28.0787 18.9523 27.4191C18.8862 26.6481 18.8348 25.9505 18.8018 25.4476L18.765 24.8492C18.7557 24.7761 18.7557 24.702 18.765 24.6289Z" fill="#FF9A6C"/>
<path d="M20.5618 24.6216C20.5784 24.6951 20.5871 24.7702 20.5875 24.8455C20.5875 25.0022 20.5985 25.2041 20.6205 25.4513C20.6462 25.9616 20.6756 26.6701 20.7049 27.4521C20.7343 28.2341 20.7527 28.9206 20.7637 29.4529C20.7637 29.6952 20.7637 29.9008 20.7637 30.0587C20.7715 30.1331 20.7715 30.2082 20.7637 30.2826C20.747 30.2091 20.7384 30.134 20.738 30.0587C20.738 29.8996 20.727 29.6977 20.7049 29.4529C20.6792 28.9426 20.6499 28.2341 20.6205 27.4521C20.5911 26.6701 20.5728 25.9653 20.5618 25.4513C20.5618 25.209 20.5618 25.0034 20.5618 24.8455C20.554 24.7711 20.554 24.696 20.5618 24.6216Z" fill="#FF9A6C"/>
<path d="M60.7247 44.8613L72.4139 44.4905L73.9375 51.1097L61.4039 51.5613L60.7247 44.8613Z" fill="#E2C6B7"/>
<path d="M77.6523 43.9252C77.6523 43.9472 77.2448 43.8958 76.5914 43.8921C75.732 43.9011 74.874 43.9599 74.0215 44.0684L71.4773 44.4061C71.1506 44.4465 70.8862 44.4759 70.7027 44.4906C70.6077 44.5042 70.5113 44.5042 70.4163 44.4906C70.507 44.4612 70.6005 44.4416 70.6953 44.4318L71.4663 44.307C72.1124 44.2042 73.0082 44.0537 74.0068 43.9399C74.8589 43.8305 75.7178 43.7838 76.5767 43.8004C76.7382 43.8004 76.8887 43.8187 77.0209 43.8297C77.1531 43.8407 77.2632 43.8518 77.355 43.8664C77.4563 43.8722 77.5564 43.892 77.6523 43.9252Z" fill="#FF9A6C"/>
<path d="M36.9151 36.0867C36.9683 35.9071 37.0568 35.7399 37.1753 35.5947C37.2938 35.4496 37.4399 35.3295 37.6053 35.2413C37.7706 35.1532 37.9518 35.0988 38.1384 35.0813C38.3249 35.0639 38.5131 35.0837 38.6919 35.1396C38.8767 35.1898 39.0489 35.2782 39.1975 35.399C39.346 35.5197 39.4677 35.6702 39.5547 35.8408C39.8594 36.3878 40.2375 37.2065 41.3903 37.4047C42.9543 37.6727 43.9859 36.9789 44.3824 35.503C44.7789 34.0272 44.1033 32.7349 42.7376 32.3715C41.933 32.2182 41.1004 32.3855 40.4174 32.8377C40.2475 32.9444 40.0581 33.0162 39.8602 33.049C39.6623 33.0817 39.4599 33.0748 39.2647 33.0286C38.4827 32.8194 37.8549 32.0924 38.0568 31.3435L39.4886 25.5136L40.1054 23.0979L61.6445 28.6048L56.112 51.1095L48.1307 49.2408C47.7571 49.1595 47.4299 48.9356 47.2187 48.6168C47.0075 48.298 46.9291 47.9094 47 47.5337C47.044 47.3455 47.1282 47.1691 47.2466 47.0164C47.3651 46.8637 47.5151 46.7383 47.6865 46.6489C48.2482 46.3515 49.0705 45.7862 49.2688 44.9418C49.5772 43.6311 48.6777 42.449 47.1027 42.0782C45.5278 41.7074 44.2025 42.3646 43.8941 43.6752C43.6958 44.5233 44.1841 45.397 44.5549 45.911C44.6693 46.0676 44.7486 46.2471 44.7872 46.4372C44.8259 46.6273 44.823 46.8235 44.7789 47.0124C44.6987 47.3185 44.5187 47.5891 44.2673 47.7813C44.0159 47.9735 43.7076 48.0763 43.3911 48.0733L36.1955 46.2377L34.5067 45.7898L36.9151 36.0867Z" fill="#FF9A6C"/>
<path d="M64.3164 46.6969L61.1334 42.4272L58.6297 40.5623L58.604 41.8472C58.604 41.8472 53.6515 41.3479 52.9319 41.5204C52.495 41.6269 51.8599 42.8568 52.8291 43.1358C52.5983 43.2321 52.3923 43.3796 52.227 43.5673C52.0616 43.7549 51.9411 43.9777 51.8746 44.2188C51.7241 44.9824 52.1059 45.3422 53.0127 45.6359C53.0127 45.6359 51.9994 46.1719 52.205 46.8364C52.2897 47.0491 52.4181 47.2417 52.5819 47.4016C52.7457 47.5616 52.9412 47.6855 53.1558 47.7652C53.1558 47.7652 52.6125 48.7895 53.1044 49.1713C53.9376 49.7142 54.8471 50.13 55.8028 50.4048L59.1289 51.0657L61.2105 51.6604L64.3164 46.6969Z" fill="#E2C6B7"/>
<path d="M55.8047 43.7963C55.8047 43.8624 55.1108 43.7706 54.2885 43.5907C53.4661 43.4109 52.82 43.2236 52.82 43.1502C52.82 43.0768 53.5138 43.1796 54.3362 43.3558C55.1585 43.532 55.8047 43.7119 55.8047 43.7963Z" fill="#FF9A6C"/>
<path d="M55.4375 46.1829C55.4375 46.249 54.8795 46.1829 54.215 46.0544C53.5505 45.9259 53.0292 45.757 53.0402 45.6872C53.0512 45.6175 53.6019 45.6873 54.2627 45.8157C54.9235 45.9442 55.4375 46.1205 55.4375 46.1829Z" fill="#FF9A6C"/>
<path d="M55.1836 48.2018C55.1579 48.2716 54.7063 48.1358 54.163 47.9999C53.6196 47.8641 53.1571 47.8274 53.1571 47.7576C53.1571 47.6879 53.638 47.6255 54.2181 47.7576C54.5748 47.8134 54.9091 47.9672 55.1836 48.2018Z" fill="#FF9A6C"/>
<path d="M59.1912 42.0711C59.1912 42.1371 58.512 42.038 57.6933 41.9022C56.8746 41.7663 56.2248 41.6489 56.2248 41.5791C56.2248 41.5094 56.9113 41.5277 57.7337 41.6672C58.556 41.8067 59.2058 42.0086 59.1912 42.0711Z" fill="#FF9A6C"/>
</svg>
