<svg width="40" height="40" viewBox="0 0 40 40" fill="none" xmlns="http://www.w3.org/2000/svg">
<path d="M13.334 3.33594C6.66732 3.33594 3.33398 6.66927 3.33398 13.3359V35.0026C3.33398 35.9193 4.08398 36.6693 5.00065 36.6693H26.6673C33.334 36.6693 36.6673 33.3359 36.6673 26.6693V13.3359C36.6673 6.66927 33.334 3.33594 26.6673 3.33594H13.334Z" stroke="#2059EE" stroke-width="3" stroke-linecap="round" stroke-linejoin="round"/>
<path d="M12.8666 21.7189C12.5333 22.0522 12.2167 22.7022 12.15 23.1689L11.6833 26.4689C11.5167 27.6689 12.35 28.5022 13.55 28.3355L16.85 27.8689C17.3166 27.8022 17.9667 27.4855 18.3 27.1522L26.95 18.5022C28.4333 17.0189 29.15 15.2855 26.95 13.0855C24.75 10.8689 23.0166 11.5689 21.5166 13.0689L12.8666 21.7189Z" stroke="#2059EE" stroke-width="3" stroke-linecap="round" stroke-linejoin="round"/>
<path d="M20.2832 14.2969C21.0165 16.9135 23.0665 18.9802 25.6999 19.7135" stroke="#2059EE" stroke-width="3" stroke-linecap="round" stroke-linejoin="round"/>
</svg>
