<svg width="14" height="14" viewBox="0 0 14 14" fill="none" xmlns="http://www.w3.org/2000/svg">
<path d="M12.8346 2.72407C12.8346 2.02407 12.263 1.50491 11.5688 1.56324H11.5338C10.3088 1.66824 8.44797 2.29241 7.40964 2.94574L7.31047 3.00991C7.1413 3.11491 6.8613 3.11491 6.69214 3.00991L6.5463 2.92241C5.50797 2.27491 3.65297 1.65657 2.42797 1.55741C1.7338 1.49907 1.16797 2.02407 1.16797 2.71824V9.76491C1.16797 10.3249 1.62297 10.8499 2.18297 10.9199L2.35214 10.9432C3.61797 11.1124 5.57214 11.7541 6.69214 12.3666L6.71547 12.3782C6.87297 12.4657 7.1238 12.4657 7.27547 12.3782C8.39547 11.7599 10.3555 11.1124 11.6271 10.9432L11.8196 10.9199C12.3796 10.8499 12.8346 10.3249 12.8346 9.76491V2.72407Z" stroke="#2059EE" stroke-linecap="round" stroke-linejoin="round"/>
<path d="M7 3.20239V11.9524" stroke="#2059EE" stroke-linecap="round" stroke-linejoin="round"/>
<path d="M4.51953 4.95264H3.20703" stroke="#2059EE" stroke-linecap="round" stroke-linejoin="round"/>
<path d="M4.95703 6.70264H3.20703" stroke="#2059EE" stroke-linecap="round" stroke-linejoin="round"/>
</svg>
