<svg width="14" height="14" viewBox="0 0 14 14" fill="none" xmlns="http://www.w3.org/2000/svg">
<path d="M8.7513 12.8332C11.668 12.8332 12.8346 11.6665 12.8346 8.74984V5.24984C12.8346 2.33317 11.668 1.1665 8.7513 1.1665H5.2513C2.33464 1.1665 1.16797 2.33317 1.16797 5.24984V8.74984C1.16797 11.6665 2.33464 12.8332 5.2513 12.8332H8.7513Z" stroke="#2059EE" stroke-linecap="round" stroke-linejoin="round"/>
<path d="M5.30859 6.13654C5.30859 5.02237 6.09609 4.57321 7.05859 5.12737L7.80526 5.55904L8.55193 5.99071C9.51443 6.54487 9.51443 7.45487 8.55193 8.00904L7.80526 8.44071L7.05859 8.87237C6.09609 9.42654 5.30859 8.97154 5.30859 7.86321V6.99987V6.13654Z" stroke="#2059EE" stroke-linecap="round" stroke-linejoin="round"/>
</svg>
