<?xml version="1.0" encoding="utf-8"?>
<!-- Generator: Adobe Illustrator 27.5.0, SVG Export Plug-In . SVG Version: 6.00 Build 0)  -->
<svg version="1.1" xmlns="http://www.w3.org/2000/svg" xmlns:xlink="http://www.w3.org/1999/xlink" x="0px" y="0px"
	 viewBox="0 0 800 800" style="enable-background:new 0 0 800 800;" xml:space="preserve">
<g id="Layer_2">
	<rect style="fill:#fff;" width="800" height="800"/>
</g>
<g id="Layer_1">
	<g style="opacity:0.05;">
		<ellipse cx="400" cy="744.277" rx="219.776" ry="18.631"/>
	</g>
	<g>
		<g>
			<g style="opacity:0.8;">
				<path style="fill:#F2F2F2;" d="M506.6,404.442v-36.444H293.4v36.444c0,90.766,55.953,126.567,86.783,139.406
					c1.736,0.723,1.736,3.043,0,3.766c-30.83,12.839-86.783,48.64-86.783,139.406v36.444H506.6v-36.444
					c0-90.766-55.953-126.567-86.783-139.406c-1.736-0.723-1.736-3.043,0-3.766C450.647,531.01,506.6,495.208,506.6,404.442z"/>
			</g>
			<g>
				<path style="fill:#8C6239;" d="M515.456,344.724H284.544c-3.82,0-6.917,3.097-6.917,6.918v9.44c0,3.82,3.097,6.917,6.917,6.917
					h230.911c3.82,0,6.917-3.097,6.917-6.917v-9.44C522.373,347.821,519.276,344.724,515.456,344.724z"/>
			</g>
			<g>
				<path style="fill:#8C6239;" d="M515.456,723.465H284.544c-3.82,0-6.917,3.097-6.917,6.917v9.44c0,3.82,3.097,6.917,6.917,6.917
					h230.911c3.82,0,6.917-3.097,6.917-6.917v-9.44C522.373,726.562,519.276,723.465,515.456,723.465z"/>
			</g>
			<g>
				<path style="fill:#855C36;" d="M515.456,739.687H284.544c-3.82,0-6.917-3.097-6.917-6.917v7.052c0,3.82,3.097,6.917,6.917,6.917
					h230.911c3.82,0,6.917-3.097,6.917-6.917v-7.052C522.373,736.59,519.276,739.687,515.456,739.687z"/>
			</g>
			<g>
				<path style="fill:#EDCD7E;" d="M307.051,421.319c-2.097-0.688-4.213,1.018-3.985,3.213c1.978,19.063,6.847,36.347,14.554,51.569
					c8.198,16.191,19.634,30.153,33.991,41.497c20.96,16.563,42.278,22.782,48.406,24.315c6.055-1.496,26.866-7.522,47.767-23.838
					c14.508-11.326,26.072-25.297,34.37-41.527c7.839-15.332,12.785-32.766,14.782-52.016c0.228-2.196-1.888-3.902-3.985-3.214
					l-65.595,21.51c-17.772,5.828-36.94,5.828-54.711,0L307.051,421.319z"/>
			</g>
			<g>
				<polygon style="fill:#EDCD7E;" points="302.047,723.465 400.016,637.534 497.93,723.465 				"/>
			</g>
			<g>
				<g>
					<rect x="396.557" y="533.856" style="fill:#EDCD7E;" width="6.918" height="115.257"/>
				</g>
			</g>
		</g>
		<g>
			<path style="fill:#855C36;" d="M515.456,360.946H284.544c-3.82,0-6.917-3.097-6.917-6.917v7.052c0,3.82,3.097,6.917,6.917,6.917
				h230.911c3.82,0,6.917-3.097,6.917-6.917v-7.052C522.373,357.849,519.276,360.946,515.456,360.946z"/>
		</g>
		<g style="opacity:0.3;">
			<g style="opacity:0.8;">
				<path style="fill:#FFFFFF;" d="M419.817,543.848c30.83-12.839,86.783-48.64,86.783-139.406v-36.444h-82.473
					c0,95.107-1.06,146.873-24.111,177.733c22.718,36.987,24.755,106.5,24.111,177.733H506.6v-36.444
					c0-90.766-55.953-126.567-86.783-139.406C418.08,546.891,418.08,544.571,419.817,543.848z"/>
			</g>
		</g>
		<g style="opacity:0.05;">
			<rect x="293.4" y="367.998" width="213.199" height="13.433"/>
		</g>
	</g>
	<g>
		<path style="opacity:0.05;" d="M280.357,346.144c0.093,0.421,0.207,0.841,0.37,1.257l8.064,20.597h4.609v11.772l5.321,13.591
			c0,0-2.273,0.207-5.321,1.05v10.032c0,2.756,0.054,5.46,0.155,8.115c7.436-6.521,14.674-15.334,14.674-15.334l-10.962-48.031
			c24.123-1.952,50.809-2.024,73.697-1.525l17.313,51.363c0,0-19.032-1.19-22.941,12.866c-7.459,26.822,32.017-7.668,32.017-7.668
			l-9.401-49.637c10.181-2.987,22.457-4.049,38.019-4.927c6.897-0.029,11.737-2.13,15.141-4.941H284.544
			C282.968,344.724,281.52,345.257,280.357,346.144z"/>
		<g>
			<g>
				<g>
					<path style="fill:#FDDCBE;" d="M297.317,256.577c0,0,0.627-3.679-1.003-3.851c-2.178-0.228-2.631,2.48-2.729,3.521
						c0.041-0.962-0.027-3.446-1.828-3.563c-1.815-0.117-2.194,2.298-2.272,3.207l-0.022-0.002c-0.032-0.97-0.313-3.706-2.465-3.814
						c-1.623-0.082-2.074,1.357-2.185,2.465c-0.001,0.163-0.012,0.322-0.03,0.472c0.004-0.146,0.014-0.305,0.03-0.472
						c0.01-1.102-0.405-2.403-1.709-2.595c-1.471-0.141-2.013,3.522-2.013,3.522c-16.264,96.811,23.763,108.233,40.956,16.643
						l-14.769-2.841c-6.587,27.295-12.562,41.735-13.528,44.367C293.258,314.977,292.018,295.164,297.317,256.577z"/>
				</g>
			</g>
		</g>
		<g>
			<path style="opacity:0.05;" d="M290.324,271.612c1.538,3.004,2.964,5.853,4.287,8.591c0.616-6.865,1.486-14.741,2.706-23.626
				c0,0,0.627-3.679-1.003-3.851c-2.178-0.228-2.631,2.481-2.729,3.522c0.041-0.963-0.027-3.446-1.828-3.563
				c-1.815-0.117-2.194,2.298-2.272,3.207l-0.022-0.002c-0.032-0.97-0.314-3.706-2.465-3.814c-1.623-0.081-2.074,1.357-2.185,2.465
				c0.01-1.102-0.405-2.402-1.709-2.595c-0.626-0.06-1.083,0.57-1.402,1.313C286.309,264.405,290.324,271.612,290.324,271.612z"/>
			<path style="opacity:0.05;" d="M322.046,272.112l-14.769-2.841c-2.371,9.823-4.661,17.973-6.668,24.515
				c3.525,9.043,5.592,17.338,6.26,26.598C312.512,310.022,317.933,294.022,322.046,272.112z"/>
		</g>
		<g>
			<path style="fill:#FDDCBE;" d="M293.179,271.36c0,0-80.833-136.887,53.901-141.75c0,0,47.623,9.575,82.131,82.529
				C329.44,284.898,293.179,271.36,293.179,271.36z"/>
		</g>
		<g>
			<path style="fill:#523D26;" d="M217.212,125.151c0,0,6.83,103.68,131.253,25.39l22.98,25.294c0,0,6.365-17.783,16.005-6.449
				c9.638,11.336-8.555,14.438-8.555,14.438s30.077,27.187,50.316,28.315c0,0-20.225-155.935-79.728-111.859
				c0,0-13.897-23.514-51.129-7.747C259.765,108.872,257.125,165.564,217.212,125.151z"/>
		</g>
		<path style="fill:#574939;" d="M311.398,329.222l-27.737,4.74c-5.206,0.89-8.282,6.336-6.357,11.254l17.994,45.96
			c0,0-19.634,1.777-20.957,16.306c-2.525,27.725,30.464-12.443,30.464-12.443l-10.962-48.031
			c24.123-1.952,50.809-2.024,73.697-1.525l17.313,51.363c0,0-19.032-1.19-22.941,12.866c-7.459,26.822,32.017-7.668,32.017-7.668
			l-9.4-49.637c10.181-2.987,22.457-4.049,38.019-4.927c21.133-0.089,23.041-19.583,23.041-19.583L311.398,329.222z"/>
		<g>
			<path style="fill:#F5F5F5;" d="M293.179,271.36c12.423,22.833,18.22,36.913,18.22,57.862c0,0,60.209,6.969,134.19-1.326
				c4.455-37.965,0.133-71.741-16.379-115.757C429.21,212.139,345.347,266.006,293.179,271.36z"/>
		</g>
		<g>
			<g>
				<polygon style="fill:#E6E6E6;" points="348.973,266.099 352.574,273.106 347.241,281.185 359.3,329.061 343.509,341.373 
					330.572,327.555 336.993,281.866 331.046,273.142 334.341,267.515 				"/>
			</g>
			<g>
				<polygon style="fill:#574939;" points="348.973,266.099 352.574,273.106 347.241,281.185 355.321,327.625 339.53,339.937 
					326.593,326.118 336.993,281.866 331.046,273.142 334.341,267.515 				"/>
			</g>
		</g>
		<g>
			<g>
				<g>
					<g>
						<path style="fill:#523D26;" d="M292.639,209.546c2.028,4.958,1.764,9.763-0.585,10.732c-2.351,0.969-5.902-2.266-7.929-7.224
							c-2.025-4.962-1.761-9.767,0.585-10.733C287.063,201.35,290.611,204.588,292.639,209.546z"/>
					</g>
				</g>
			</g>
		</g>
		<g>
			<g>
				<g>
					<g>
						<path style="fill:#523D26;" d="M351.436,187.689c2.029,4.957,1.772,9.762-0.584,10.732c-2.345,0.962-5.9-2.272-7.922-7.232
							c-2.03-4.957-1.769-9.76,0.582-10.73C345.862,179.492,349.411,182.726,351.436,187.689z"/>
					</g>
				</g>
			</g>
		</g>
		<g>
			<path style="fill:#523D26;" d="M272.016,212.537c-0.295,0-0.592-0.1-0.835-0.305c-0.548-0.462-0.618-1.28-0.156-1.828
				c5.967-7.081,10.746-14.972,14.206-23.456c0.271-0.664,1.029-0.981,1.692-0.712c0.664,0.271,0.982,1.028,0.712,1.692
				c-3.563,8.735-8.483,16.86-14.625,24.148C272.752,212.381,272.385,212.537,272.016,212.537z"/>
		</g>
		<g>
			<path style="fill:#523D26;" d="M359.215,178.442c-0.031,0-0.063-0.001-0.094-0.003c-10.823-0.774-19.857-2.702-27.617-5.894
				c-0.663-0.272-0.979-1.031-0.706-1.694c0.273-0.662,1.031-0.978,1.694-0.706c7.501,3.086,16.272,4.952,26.815,5.706
				c0.715,0.051,1.253,0.672,1.202,1.387C360.459,177.92,359.89,178.442,359.215,178.442z"/>
		</g>
		<g>
			<path style="fill:#523D26;" d="M309.537,249.677c-0.223,0-0.449-0.058-0.655-0.178c-0.618-0.363-0.825-1.158-0.463-1.776
				c12.447-21.218,26.726-30.347,42.438-27.143c0.702,0.143,1.155,0.829,1.012,1.531c-0.143,0.702-0.827,1.155-1.531,1.012
				c-14.712-3.002-27.69,5.474-39.681,25.913C310.416,249.448,309.982,249.677,309.537,249.677z"/>
		</g>
		<g style="opacity:0.05;">
			<path d="M404.666,252.242l-0.991,13.906c-7.716,73.814-23.258,74.938-40.362-18.176c0,0-0.413-3.709-2.027-3.424
				c-2.156,0.382-1.844,3.111-1.651,4.138c-0.226-0.936-0.978-3.305-2.741-2.919c-1.777,0.388-1.474,2.814-1.298,3.709l-0.022,0.005
				c-0.298-0.923-1.324-3.475-3.423-2.985c-1.582,0.37-1.619,1.877-1.419,2.973c-0.294-1.062-1.052-2.197-2.359-2.022
				c-1.453,0.271-0.963,3.941-0.963,3.941c17.979,109.066,61.962,120.52,71.275,15.702l1.582-15.172L404.666,252.242z"/>
		</g>
		<g>
			<g>
				<g>
					<path style="fill:#FDDCBE;" d="M365.063,249.668c0,0-0.209-3.726-1.837-3.53c-2.174,0.263-2.012,3.005-1.875,4.042
						c-0.175-0.947-0.795-3.354-2.577-3.065c-1.796,0.29-1.626,2.729-1.499,3.633l-0.022,0.003
						c-0.247-0.938-1.132-3.542-3.254-3.168c-1.6,0.283-1.719,1.786-1.58,2.891c0.035,0.159,0.06,0.316,0.076,0.467
						c-0.029-0.143-0.055-0.3-0.076-0.467c-0.236-1.077-0.931-2.252-2.245-2.149c-1.465,0.191-1.177,3.882-1.177,3.882
						c11.977,109.887,53.818,118.924,68.859,14.773l-14.936-1.762C391.172,338.499,377.04,343.579,365.063,249.668z"/>
				</g>
			</g>
		</g>
		<g>
			<polygon style="fill:#F5F5F5;" points="402.92,265.218 404.672,251.387 420.267,251.918 417.856,266.98 			"/>
		</g>
	</g>
</g>
</svg>
