<svg width="37" height="37" viewBox="0 0 37 37" fill="none" xmlns="http://www.w3.org/2000/svg">
<path d="M12 2C5.33333 2 2 5.33333 2 12V33.6667C2 34.5833 2.75 35.3333 3.66667 35.3333H25.3333C32 35.3333 35.3333 32 35.3333 25.3333V12C35.3333 5.33333 32 2 25.3333 2H12Z" stroke="#D8A600" stroke-width="3" stroke-linecap="round" stroke-linejoin="round"/>
<path d="M18.6133 14.8984L17.6325 16.6034C17.4125 16.9793 17.5958 17.2909 18.0267 17.2909H19.1908C19.6308 17.2909 19.805 17.6026 19.585 17.9784L18.6133 19.6834" stroke="#F6BD00" stroke-width="2" stroke-linecap="round" stroke-linejoin="round"/>
<path d="M15.2236 23.1393C13.1153 21.8652 11.3828 19.381 11.3828 16.741C11.3828 12.2035 15.5536 8.64685 20.2653 9.67351C22.337 10.1318 24.152 11.5068 25.0961 13.4043C27.012 17.2543 24.9953 21.3427 22.0345 23.1302V24.1935C22.0345 24.4593 22.1353 25.0735 21.1545 25.0735H16.1036C15.0953 25.0827 15.2236 24.6885 15.2236 24.2027V23.1393Z" stroke="#F6BD00" stroke-width="2" stroke-linecap="round" stroke-linejoin="round"/>
<path d="M15.4062 27.8326C17.5054 27.2368 19.7238 27.2368 21.8229 27.8326" stroke="#F6BD00" stroke-width="2" stroke-linecap="round" stroke-linejoin="round"/>
</svg>
