<svg width="22" height="20" viewBox="0 0 22 20" fill="none" xmlns="http://www.w3.org/2000/svg">
<path fill-rule="evenodd" clip-rule="evenodd" d="M1.46975 0H21.1071C21.598 0 21.9997 0.375 21.9997 0.833333V19.1667C21.9997 19.625 21.598 20 21.1071 20H1.46975C0.978821 20 0.577148 19.625 0.577148 19.1667V0.833333C0.577148 0.375 0.978821 0 1.46975 0ZM3.74609 17.0417H6.91484V7.5H3.74609V17.0417ZM5.3523 6.20828C4.32581 6.20828 3.52246 5.45828 3.52246 4.49995C3.52246 3.54161 4.32581 2.79161 5.3523 2.79161C6.3788 2.79161 7.18214 3.54161 7.18214 4.49995C7.18214 5.41661 6.3788 6.20828 5.3523 6.20828ZM15.662 17.0417H18.7861V11.7917C18.7861 9.20841 18.2059 7.25007 14.9926 7.25007C13.4751 7.25007 12.404 8.04174 12.0023 8.79174H11.9577V7.50007H8.92285V17.0417H12.0916V12.3334C12.0916 11.0834 12.3594 9.87507 14.0107 9.87507C15.662 9.87507 15.662 11.2917 15.662 12.4167V17.0417Z" fill="#7D818D"/>
</svg>
