<svg width="38" height="38" viewBox="0 0 38 38" fill="none" xmlns="http://www.w3.org/2000/svg">
<path d="M34.8327 26.5054C34.8327 28.0254 33.5977 29.4503 32.0777 29.6403L31.5552 29.7037C28.1035 30.1629 22.7835 31.9203 19.7435 33.5987C19.3318 33.8362 18.651 33.8362 18.2235 33.5987L18.1601 33.5671C15.1201 31.9046 9.81606 30.1629 6.38023 29.7037L5.921 29.6403C4.401 29.4503 3.16602 28.0254 3.16602 26.5054V7.37866C3.16602 5.49449 4.70181 4.06951 6.58597 4.22784C9.91097 4.49701 14.946 6.17538 17.7643 7.93288L18.1601 8.17032C18.6193 8.45532 19.3794 8.45532 19.8386 8.17032L20.1077 7.99618C21.1052 7.37868 22.3718 6.76117 23.7493 6.20701V12.667L26.916 10.5612L30.0827 12.667V4.40208C30.5102 4.32291 30.9219 4.27536 31.3019 4.24369H31.3969C33.281 4.08536 34.8327 5.49451 34.8327 7.39451V26.5054Z" stroke="#34A853" stroke-width="2" stroke-linecap="round" stroke-linejoin="round"/>
<path d="M19 8.69238V32.4424" stroke="#34A853" stroke-width="2" stroke-linecap="round" stroke-linejoin="round"/>
<path d="M30.0833 12.6663L26.9167 10.5605L23.75 12.6663V6.20629C25.8242 5.38296 28.1358 4.71803 30.0833 4.40137V12.6663Z" stroke="#34A853" stroke-width="2" stroke-linecap="round" stroke-linejoin="round"/>
</svg>
