<svg width="38" height="38" viewBox="0 0 38 38" fill="none" xmlns="http://www.w3.org/2000/svg">
<path d="M25.3327 34.8333C31.6977 34.8333 32.8377 32.2842 33.1702 29.1808L34.3577 16.5142C34.7852 12.6508 33.6768 9.5 26.916 9.5H11.0827C4.32182 9.5 3.21349 12.6508 3.64099 16.5142L4.82849 29.1808C5.16099 32.2842 6.30099 34.8333 12.666 34.8333H25.3327Z" stroke="#FF6905" stroke-width="2" stroke-linecap="round" stroke-linejoin="round"/>
<path d="M12.666 9.50033V8.23366C12.666 5.43116 12.666 3.16699 17.7327 3.16699H20.266C25.3327 3.16699 25.3327 5.43116 25.3327 8.23366V9.50033" stroke="#FF6905" stroke-width="2" stroke-linecap="round" stroke-linejoin="round"/>
<path d="M22.1673 22.1667C22.1673 22.1825 22.1673 22.1825 22.1673 22.1983C22.1673 23.9242 22.1515 25.3333 19.0007 25.3333C15.8657 25.3333 15.834 23.94 15.834 22.2142V20.5833C15.834 19 15.834 19 17.4173 19H20.584C22.1673 19 22.1673 19 22.1673 20.5833V22.1667Z" stroke="#FF6905" stroke-width="2" stroke-linecap="round" stroke-linejoin="round"/>
<path d="M34.2785 17.417C30.621 20.077 26.441 21.6603 22.166 22.1987" stroke="#FF6905" stroke-width="2" stroke-linecap="round" stroke-linejoin="round"/>
<path d="M4.14844 17.8438C7.71094 20.2821 11.7326 21.7546 15.8334 22.2137" stroke="#FF6905" stroke-width="2" stroke-linecap="round" stroke-linejoin="round"/>
</svg>
