<svg width="38" height="38" viewBox="0 0 38 38" fill="none" xmlns="http://www.w3.org/2000/svg">
<path d="M4.75 34.833H33.25" stroke="#FF6905" stroke-width="2" stroke-linecap="round" stroke-linejoin="round"/>
<path d="M6.33333 13.2686C5.4625 13.2686 4.75 13.9811 4.75 14.8519V28.5002C4.75 29.371 5.4625 30.0835 6.33333 30.0835H8.86663C9.73746 30.0835 10.45 29.371 10.45 28.5002V14.8519C10.45 13.9811 9.73746 13.2686 8.86663 13.2686H6.33333Z" stroke="#FF6905" stroke-width="2" stroke-linecap="round" stroke-linejoin="round"/>
<path d="M17.7337 8.21777C16.8629 8.21777 16.1504 8.93027 16.1504 9.80111V28.5003C16.1504 29.3711 16.8629 30.0836 17.7337 30.0836H20.267C21.1379 30.0836 21.8504 29.3711 21.8504 28.5003V9.80111C21.8504 8.93027 21.1379 8.21777 20.267 8.21777H17.7337Z" stroke="#FF6905" stroke-width="2" stroke-linecap="round" stroke-linejoin="round"/>
<path d="M29.1341 3.16699C28.2633 3.16699 27.5508 3.87949 27.5508 4.75033V28.5003C27.5508 29.3712 28.2633 30.0837 29.1341 30.0837H31.6674C32.5382 30.0837 33.2507 29.3712 33.2507 28.5003V4.75033C33.2507 3.87949 32.5382 3.16699 31.6674 3.16699H29.1341Z" stroke="#FF6905" stroke-width="2" stroke-linecap="round" stroke-linejoin="round"/>
</svg>
