<svg width="38" height="38" viewBox="0 0 38 38" fill="none" xmlns="http://www.w3.org/2000/svg">
<path d="M23.7493 34.8337C31.666 34.8337 34.8327 31.667 34.8327 23.7503V14.2503C34.8327 6.33366 31.666 3.16699 23.7493 3.16699H14.2493C6.33268 3.16699 3.16602 6.33366 3.16602 14.2503V23.7503C3.16602 31.667 6.33268 34.8337 14.2493 34.8337H23.7493Z" stroke="#2F80ED" stroke-width="2" stroke-linecap="round" stroke-linejoin="round"/>
<path fill-rule="evenodd" clip-rule="evenodd" d="M24.541 15.4375C23.2293 15.4375 22.166 14.3742 22.166 13.0625C22.166 11.7508 23.2293 10.6875 24.541 10.6875C25.8527 10.6875 26.916 11.7508 26.916 13.0625C26.916 14.3742 25.8527 15.4375 24.541 15.4375Z" stroke="#2F80ED" stroke-width="2" stroke-linecap="round" stroke-linejoin="round"/>
<path fill-rule="evenodd" clip-rule="evenodd" d="M13.459 15.4375C12.1473 15.4375 11.084 14.3742 11.084 13.0625C11.084 11.7508 12.1473 10.6875 13.459 10.6875C14.7707 10.6875 15.834 11.7508 15.834 13.0625C15.834 14.3742 14.7707 15.4375 13.459 15.4375Z" stroke="#2F80ED" stroke-width="2" stroke-linecap="round" stroke-linejoin="round"/>
<path d="M24.7 21.0586C25.4917 21.0586 26.125 21.6919 26.125 22.4836C26.125 26.4261 22.9425 29.6086 19 29.6086C15.0575 29.6086 11.875 26.4261 11.875 22.4836C11.875 21.6919 12.5083 21.0586 13.3 21.0586H24.7Z" stroke="#2F80ED" stroke-width="2" stroke-linecap="round" stroke-linejoin="round"/>
</svg>
