<svg width="38" height="38" viewBox="0 0 38 38" fill="none" xmlns="http://www.w3.org/2000/svg">
<path d="M7.78906 32.1099L10.5916 34.2791C10.9557 34.6433 11.7632 34.8174 12.3174 34.8174H15.7532C16.8457 34.8174 18.0174 34.01 18.2866 32.9175L20.4557 26.3149C20.9149 25.0482 20.0916 23.9557 18.7299 23.9557H15.1041C14.5657 23.9557 14.1066 23.4965 14.2016 22.8631L14.6607 19.9657C14.8349 19.1582 14.2966 18.2399 13.4891 17.9707C12.7607 17.7015 11.8582 18.0657 11.4941 18.6041L7.78906 24.1299" stroke="#A64FD7" stroke-width="2"/>
<path d="M3.16602 23.2436C3.16602 21.9769 3.70435 21.5176 4.97101 21.5176H5.87351C7.14018 21.5176 7.67851 21.9769 7.67851 23.2436V32.1102C7.67851 33.3768 7.14018 33.836 5.87351 33.836H4.97101C3.70435 33.836 3.16602 33.3927 3.16602 32.1102V23.2436Z" stroke="#A64FD7" stroke-width="2" stroke-linecap="round" stroke-linejoin="round"/>
<path d="M30.2106 5.89006L27.4081 3.7209C27.0439 3.35673 26.2365 3.18262 25.6823 3.18262H22.2465C21.154 3.18262 19.9823 3.99004 19.7131 5.08254L17.544 11.6851C17.0848 12.9518 17.9081 14.0443 19.2698 14.0443H22.8956C23.4339 14.0443 23.8931 14.5035 23.7981 15.1369L23.3389 18.0343C23.1648 18.8418 23.7031 19.7601 24.5106 20.0293C25.239 20.2985 26.1414 19.9343 26.5056 19.3959L30.2106 13.8701" stroke="#A64FD7" stroke-width="2"/>
<path d="M34.8348 14.7565C34.8348 16.0231 34.2964 16.4824 33.0298 16.4824H32.1273C30.8606 16.4824 30.3223 16.0231 30.3223 14.7565V5.88984C30.3223 4.62318 30.8606 4.16406 32.1273 4.16406H33.0298C34.2964 4.16406 34.8348 4.60734 34.8348 5.88984V14.7565Z" stroke="#A64FD7" stroke-width="2" stroke-linecap="round" stroke-linejoin="round"/>
</svg>
