<svg width="34" height="39" viewBox="0 0 34 39" fill="none" xmlns="http://www.w3.org/2000/svg">
<path d="M26.4444 35.2464C25.8967 35.2464 25.3867 35.1338 25.0089 34.9649C23.6678 34.2705 22.7233 33.3133 21.7789 30.4981C20.8156 27.5703 19.0022 26.2002 17.2644 24.8677C15.7722 23.7228 14.2233 22.5404 12.8822 20.1193C11.8811 18.3176 11.3333 16.347 11.3333 14.6015C11.3333 9.34649 15.4889 5.21752 20.7778 5.21752C26.0667 5.21752 30.2222 9.34649 30.2222 14.6015H34C34 7.2257 28.2011 1.46391 20.7778 1.46391C13.3544 1.46391 7.55556 7.2257 7.55556 14.6015C7.55556 16.9663 8.27333 19.5751 9.57667 21.9211C11.2956 25.0178 13.3167 26.5756 14.96 27.833C16.49 28.9966 17.5856 29.8412 18.19 31.6805C19.3233 35.0962 20.7778 37.0106 23.3467 38.3431C24.31 38.7748 25.3678 39 26.4444 39C30.6189 39 34 35.6405 34 31.4928H30.2222C30.2222 33.5573 28.5222 35.2464 26.4444 35.2464ZM8.76444 2.66506L6.08222 0C2.32333 3.73484 0 8.89605 0 14.6015C0 20.307 2.32333 25.4682 6.08222 29.2031L8.74556 26.5568C5.68556 23.4976 3.77778 19.2748 3.77778 14.6015C3.77778 9.9283 5.68555 5.70549 8.76444 2.66506ZM16.0556 14.6015C16.0556 17.1915 18.1711 19.2936 20.7778 19.2936C23.3844 19.2936 25.5 17.1915 25.5 14.6015C25.5 12.0115 23.3844 9.90953 20.7778 9.90953C18.1711 9.90953 16.0556 12.0115 16.0556 14.6015Z" fill="#A64FD7"/>
</svg>
