<svg width="38" height="38" viewBox="0 0 38 38" fill="none" xmlns="http://www.w3.org/2000/svg">
<path d="M23.749 34.8334H14.249C12.3173 34.8334 10.6707 34.6433 9.27734 34.2317C9.62568 30.115 13.8532 26.8691 18.999 26.8691C24.1448 26.8691 28.3723 30.115 28.7207 34.2317C27.3273 34.6433 25.6807 34.8334 23.749 34.8334Z" stroke="#2F80ED" stroke-width="2" stroke-linecap="round" stroke-linejoin="round"/>
<path fill-rule="evenodd" clip-rule="evenodd" d="M14.2493 3.16699C6.33268 3.16699 3.16602 6.33366 3.16602 14.2503V23.7503C3.16602 29.7353 4.97102 33.0128 9.27768 34.232C9.62602 30.1153 13.8535 26.8694 18.9993 26.8694C24.1452 26.8694 28.3727 30.1153 28.721 34.232C33.0277 33.0128 34.8327 29.7353 34.8327 23.7503V14.2503C34.8327 6.33366 31.666 3.16699 23.7493 3.16699H14.2493Z" stroke="#2F80ED" stroke-width="2" stroke-linecap="round" stroke-linejoin="round"/>
<path d="M19.0004 22.4355C15.8654 22.4355 13.332 19.8864 13.332 16.7514C13.332 13.6164 15.8654 11.083 19.0004 11.083C22.1354 11.083 24.6687 13.6164 24.6687 16.7514C24.6687 19.8864 22.1354 22.4355 19.0004 22.4355Z" stroke="#2F80ED" stroke-width="2" stroke-linecap="round" stroke-linejoin="round"/>
</svg>
