<svg width="38" height="38" viewBox="0 0 38 38" fill="none" xmlns="http://www.w3.org/2000/svg">
<path d="M34.8327 17.9711C34.8327 19.982 34.1677 21.6761 32.9802 22.8478C31.8085 24.0353 30.1143 24.7003 28.1035 24.7003V27.5661C28.1035 28.6428 26.9002 29.292 26.0135 28.6903L24.4777 27.677C24.6202 27.1861 24.6835 26.6478 24.6835 26.0778V19.6337C24.6835 16.4037 22.5302 14.2503 19.3002 14.2503H8.54934C8.32767 14.2503 8.12185 14.2662 7.91602 14.282V9.89616C7.91602 5.85866 10.6077 3.16699 14.6452 3.16699H28.1035C32.141 3.16699 34.8327 5.85866 34.8327 9.89616V17.9711Z" stroke="#2F80ED" stroke-width="2" stroke-linecap="round" stroke-linejoin="round"/>
<path d="M24.6835 26.0775C24.6835 26.6475 24.6202 27.1858 24.4777 27.6766C23.8919 30.0041 21.9602 31.4608 19.3002 31.4608H14.9935L10.2118 34.6433C9.49934 35.1342 8.54934 34.6117 8.54934 33.7567V31.4608C6.93434 31.4608 5.58852 30.9225 4.65435 29.9883C3.70435 29.0383 3.16602 27.6925 3.16602 26.0775V19.6334C3.16602 16.625 5.03435 14.5509 7.91602 14.2817C8.12185 14.2659 8.32767 14.25 8.54934 14.25H19.3002C22.5302 14.25 24.6835 16.4034 24.6835 19.6334V26.0775Z" stroke="#2F80ED" stroke-width="2" stroke-linecap="round" stroke-linejoin="round"/>
</svg>
