<svg width="34" height="34" viewBox="0 0 34 34" fill="none" xmlns="http://www.w3.org/2000/svg">
<path d="M4.80053 21.5794C1.91887 21.5794 0.0821972 18.4919 1.47553 15.9586L5.1647 9.24521L8.61637 2.95937C10.0572 0.346875 13.8255 0.346875 15.2664 2.95937L18.7339 9.24521L20.3964 12.2694L22.423 15.9586C23.8164 18.4919 21.9797 21.5794 19.098 21.5794H4.80053Z" stroke="#A64FD7" stroke-width="2" stroke-linecap="round" stroke-linejoin="round"/>
<path d="M22.3757 32.6624C16.6915 32.6624 12.084 28.0549 12.084 22.3708C12.084 22.1016 12.0998 21.8483 12.1157 21.5791H19.0982C21.9798 21.5791 23.8165 18.4916 22.4231 15.9583L20.3965 12.2691C21.0298 12.1424 21.6948 12.0791 22.3757 12.0791C28.0598 12.0791 32.6673 16.6866 32.6673 22.3708C32.6673 28.0549 28.0598 32.6624 22.3757 32.6624Z" stroke="#A64FD7" stroke-width="2" stroke-linecap="round" stroke-linejoin="round"/>
</svg>
